{
    "header": {
        "PPQ": 480,
        "timeSignature": [
            6,
            4
        ],
        "bpm": 269.7805335359685,
        "name": "Mendelssohn: Lieder ohne Worte Opus 19 Nr. 5"
    },
    "startTime": 0,
    "duration": 159.01814500000313,
    "tracks": [
        {
            "startTime": 0,
            "duration": 0,
            "length": 0,
            "notes": [],
            "controlChanges": {},
            "id": 0,
            "name": "Mendelssohn: Lieder ohne Worte Opus 19 Nr. 5"
        },
        {
            "startTime": 1.112015,
            "duration": 159.01814500000313,
            "length": 1470,
            "notes": [
                {
                    "name": "C#4",
                    "midi": 61,
                    "time": 1.112015,
                    "velocity": 0.3937007874015748,
                    "duration": 0.2112828499999999
                },
                {
                    "name": "A3",
                    "midi": 57,
                    "time": 1.2232165,
                    "velocity": 0.31496062992125984,
                    "duration": 0.11120149999999995
                },
                {
                    "name": "C#4",
                    "midi": 61,
                    "time": 1.3344179999999999,
                    "velocity": 0.4409448818897638,
                    "duration": 0.4448059999999998
                },
                {
                    "name": "G#3",
                    "midi": 56,
                    "time": 1.4456194999999998,
                    "velocity": 0.29133858267716534,
                    "duration": 0.11120149999999995
                },
                {
                    "name": "A3",
                    "midi": 57,
                    "time": 1.5568209999999998,
                    "velocity": 0.33070866141732286,
                    "duration": 0.11120149999999995
                },
                {
                    "name": "F#3",
                    "midi": 54,
                    "time": 1.6680224999999997,
                    "velocity": 0.2677165354330709,
                    "duration": 0.11120149999999995
                },
                {
                    "name": "F#4",
                    "midi": 66,
                    "time": 1.7792239999999997,
                    "velocity": 0.4251968503937008,
                    "duration": 0.2112828499999999
                },
                {
                    "name": "C#4",
                    "midi": 61,
                    "time": 1.8904254999999996,
                    "velocity": 0.30708661417322836,
                    "duration": 0.11120149999999995
                },
                {
                    "name": "F#4",
                    "midi": 66,
                    "time": 2.0016269999999996,
                    "velocity": 0.4330708661417323,
                    "duration": 0.4448059999999998
                },
                {
                    "name": "C4",
                    "midi": 60,
                    "time": 2.1128284999999996,
                    "velocity": 0.3543307086614173,
                    "duration": 0.11120149999999995
                },
                {
                    "name": "C#4",
                    "midi": 61,
                    "time": 2.2240299999999995,
                    "velocity": 0.4330708661417323,
                    "duration": 0.11120149999999995
                },
                {
                    "name": "A3",
                    "midi": 57,
                    "time": 2.3352314999999995,
                    "velocity": 0.36220472440944884,
                    "duration": 0.11120149999999995
                },
                {
                    "name": "A4",
                    "midi": 69,
                    "time": 2.4464329999999994,
                    "velocity": 0.5196850393700787,
                    "duration": 0.2224029999999999
                },
                {
                    "name": "F#4",
                    "midi": 66,
                    "time": 2.5576344999999994,
                    "velocity": 0.4330708661417323,
                    "duration": 0.11120149999999995
                },
                {
                    "name": "D5",
                    "midi": 74,
                    "time": 2.6688359999999993,
                    "velocity": 0.5748031496062992,
                    "duration": 0.4448059999999998
                },
                {
                    "name": "G#4",
                    "midi": 68,
                    "time": 2.7800374999999993,
                    "velocity": 0.4409448818897638,
                    "duration": 0.11120149999999995
                },
                {
                    "name": "A4",
                    "midi": 69,
                    "time": 2.8912389999999992,
                    "velocity": 0.48031496062992124,
                    "duration": 0.11120149999999995
                },
                {
                    "name": "F#4",
                    "midi": 66,
                    "time": 3.002440499999999,
                    "velocity": 0.4409448818897638,
                    "duration": 0.11120149999999995
                },
                {
                    "name": "C#5",
                    "midi": 73,
                    "time": 3.113641999999999,
                    "velocity": 0.5354330708661418,
                    "duration": 0.2224029999999999
                },
                {
                    "name": "A4",
                    "midi": 69,
                    "time": 3.224843499999999,
                    "velocity": 0.3858267716535433,
                    "duration": 0.11120149999999995
                },
                {
                    "name": "C5",
                    "midi": 72,
                    "time": 3.336044999999999,
                    "velocity": 0.5354330708661418,
                    "duration": 0.4401726041666665
                },
                {
                    "name": "G#4",
                    "midi": 68,
                    "time": 3.447246499999999,
                    "velocity": 0.3937007874015748,
                    "duration": 0.11120149999999995
                },
                {
                    "name": "A4",
                    "midi": 69,
                    "time": 3.558447999999999,
                    "velocity": 0.4330708661417323,
                    "duration": 0.11120149999999995
                },
                {
                    "name": "F#4",
                    "midi": 66,
                    "time": 3.669649499999999,
                    "velocity": 0.3543307086614173,
                    "duration": 0.11120149999999995
                },
                {
                    "name": "C5",
                    "midi": 72,
                    "time": 3.780850999999999,
                    "velocity": 0.4015748031496063,
                    "duration": 0.22240300000000035
                },
                {
                    "name": "A4",
                    "midi": 69,
                    "time": 3.892052499999999,
                    "velocity": 0.25984251968503935,
                    "duration": 0.1112015000000004
                },
                {
                    "name": "C#5",
                    "midi": 73,
                    "time": 4.003253999999999,
                    "velocity": 0.4409448818897638,
                    "duration": 0.4448059999999998
                },
                {
                    "name": "G#4",
                    "midi": 68,
                    "time": 4.114455499999999,
                    "velocity": 0.33858267716535434,
                    "duration": 0.11120149999999995
                },
                {
                    "name": "C#4",
                    "midi": 61,
                    "time": 4.225656999999999,
                    "velocity": 0.36220472440944884,
                    "duration": 0.11120149999999995
                },
                {
                    "name": "D#4",
                    "midi": 63,
                    "time": 4.336858499999999,
                    "velocity": 0.33070866141732286,
                    "duration": 0.11120149999999995
                },
                {
                    "name": "F4",
                    "midi": 65,
                    "time": 4.448059999999999,
                    "velocity": 0.31496062992125984,
                    "duration": 0.11120149999999995
                },
                {
                    "name": "B4",
                    "midi": 71,
                    "time": 4.448059999999999,
                    "velocity": 0.3937007874015748,
                    "duration": 0.1899692291666666
                },
                {
                    "name": "C#4",
                    "midi": 61,
                    "time": 4.559261499999999,
                    "velocity": 0.2992125984251969,
                    "duration": 0.11120149999999995
                },
                {
                    "name": "B4",
                    "midi": 71,
                    "time": 4.642662624999999,
                    "velocity": 0.33858267716535434,
                    "duration": 0.02780037499999999
                },
                {
                    "name": "F#4",
                    "midi": 66,
                    "time": 4.670462999999999,
                    "velocity": 0.3464566929133858,
                    "duration": 0.11120149999999995
                },
                {
                    "name": "A4",
                    "midi": 69,
                    "time": 4.670462999999999,
                    "velocity": 0.4330708661417323,
                    "duration": 0.11120149999999995
                },
                {
                    "name": "C#4",
                    "midi": 61,
                    "time": 4.781664499999999,
                    "velocity": 0.36220472440944884,
                    "duration": 0.11120149999999995
                },
                {
                    "name": "F4",
                    "midi": 65,
                    "time": 4.892865999999999,
                    "velocity": 0.3937007874015748,
                    "duration": 0.11120149999999995
                },
                {
                    "name": "G#4",
                    "midi": 68,
                    "time": 4.892865999999999,
                    "velocity": 0.49606299212598426,
                    "duration": 0.11120149999999995
                },
                {
                    "name": "C#4",
                    "midi": 61,
                    "time": 5.004067499999999,
                    "velocity": 0.4251968503937008,
                    "duration": 0.11120149999999995
                },
                {
                    "name": "F#4",
                    "midi": 66,
                    "time": 5.115268999999999,
                    "velocity": 0.4330708661417323,
                    "duration": 0.11120149999999995
                },
                {
                    "name": "A4",
                    "midi": 69,
                    "time": 5.115268999999999,
                    "velocity": 0.5433070866141733,
                    "duration": 0.11120149999999995
                },
                {
                    "name": "C#4",
                    "midi": 61,
                    "time": 5.226470499999999,
                    "velocity": 0.44881889763779526,
                    "duration": 0.11120149999999995
                },
                {
                    "name": "F#4",
                    "midi": 66,
                    "time": 5.337671999999999,
                    "velocity": 0.4330708661417323,
                    "duration": 0.11120149999999995
                },
                {
                    "name": "A4",
                    "midi": 69,
                    "time": 5.337671999999999,
                    "velocity": 0.5433070866141733,
                    "duration": 0.2224029999999999
                },
                {
                    "name": "C#5",
                    "midi": 73,
                    "time": 5.337671999999999,
                    "velocity": 0.5984251968503937,
                    "duration": 0.2224029999999999
                },
                {
                    "name": "D4",
                    "midi": 62,
                    "time": 5.448873499999999,
                    "velocity": 0.4251968503937008,
                    "duration": 0.11120149999999995
                },
                {
                    "name": "G#4",
                    "midi": 68,
                    "time": 5.5600749999999985,
                    "velocity": 0.3779527559055118,
                    "duration": 0.11120149999999995
                },
                {
                    "name": "B4",
                    "midi": 71,
                    "time": 5.5600749999999985,
                    "velocity": 0.48031496062992124,
                    "duration": 0.2224029999999999
                },
                {
                    "name": "D4",
                    "midi": 62,
                    "time": 5.6712764999999985,
                    "velocity": 0.3858267716535433,
                    "duration": 0.11120149999999995
                },
                {
                    "name": "F#4",
                    "midi": 66,
                    "time": 5.7824779999999985,
                    "velocity": 0.31496062992125984,
                    "duration": 0.11120149999999995
                },
                {
                    "name": "A4",
                    "midi": 69,
                    "time": 5.7824779999999985,
                    "velocity": 0.3937007874015748,
                    "duration": 0.11120149999999995
                },
                {
                    "name": "D4",
                    "midi": 62,
                    "time": 5.893679499999998,
                    "velocity": 0.3228346456692913,
                    "duration": 0.11120149999999995
                },
                {
                    "name": "F#4",
                    "midi": 66,
                    "time": 6.004880999999998,
                    "velocity": 0.3464566929133858,
                    "duration": 0.11120149999999995
                },
                {
                    "name": "A4",
                    "midi": 69,
                    "time": 6.004880999999998,
                    "velocity": 0.4409448818897638,
                    "duration": 0.2224029999999999
                },
                {
                    "name": "C#4",
                    "midi": 61,
                    "time": 6.116082499999998,
                    "velocity": 0.3543307086614173,
                    "duration": 0.11120149999999995
                },
                {
                    "name": "F4",
                    "midi": 65,
                    "time": 6.227283999999998,
                    "velocity": 0.31496062992125984,
                    "duration": 0.11120149999999995
                },
                {
                    "name": "G#4",
                    "midi": 68,
                    "time": 6.227283999999998,
                    "velocity": 0.3937007874015748,
                    "duration": 0.2224029999999999
                },
                {
                    "name": "B3",
                    "midi": 59,
                    "time": 6.338485499999998,
                    "velocity": 0.33858267716535434,
                    "duration": 0.11120149999999995
                },
                {
                    "name": "C#4",
                    "midi": 61,
                    "time": 6.449686999999998,
                    "velocity": 0.3937007874015748,
                    "duration": 0.2112828499999999
                },
                {
                    "name": "A3",
                    "midi": 57,
                    "time": 6.560888499999998,
                    "velocity": 0.31496062992125984,
                    "duration": 0.11120149999999995
                },
                {
                    "name": "C#4",
                    "midi": 61,
                    "time": 6.672089999999998,
                    "velocity": 0.4409448818897638,
                    "duration": 0.4448059999999998
                },
                {
                    "name": "G#3",
                    "midi": 56,
                    "time": 6.783291499999998,
                    "velocity": 0.29133858267716534,
                    "duration": 0.11120149999999995
                },
                {
                    "name": "A3",
                    "midi": 57,
                    "time": 6.894492999999998,
                    "velocity": 0.33070866141732286,
                    "duration": 0.11120149999999995
                },
                {
                    "name": "F#3",
                    "midi": 54,
                    "time": 7.005694499999998,
                    "velocity": 0.2677165354330709,
                    "duration": 0.11120149999999995
                },
                {
                    "name": "F#4",
                    "midi": 66,
                    "time": 7.116895999999998,
                    "velocity": 0.4251968503937008,
                    "duration": 0.2112828499999999
                },
                {
                    "name": "C#4",
                    "midi": 61,
                    "time": 7.228097499999998,
                    "velocity": 0.30708661417322836,
                    "duration": 0.11120149999999995
                },
                {
                    "name": "F#4",
                    "midi": 66,
                    "time": 7.339298999999998,
                    "velocity": 0.4330708661417323,
                    "duration": 0.4448059999999998
                },
                {
                    "name": "C4",
                    "midi": 60,
                    "time": 7.450500499999998,
                    "velocity": 0.3543307086614173,
                    "duration": 0.11120149999999995
                },
                {
                    "name": "C#4",
                    "midi": 61,
                    "time": 7.561701999999998,
                    "velocity": 0.4330708661417323,
                    "duration": 0.11120149999999995
                },
                {
                    "name": "A3",
                    "midi": 57,
                    "time": 7.672903499999998,
                    "velocity": 0.36220472440944884,
                    "duration": 0.11120149999999995
                },
                {
                    "name": "A4",
                    "midi": 69,
                    "time": 7.784104999999998,
                    "velocity": 0.5196850393700787,
                    "duration": 0.2224030000000008
                },
                {
                    "name": "F#4",
                    "midi": 66,
                    "time": 7.895306499999998,
                    "velocity": 0.4330708661417323,
                    "duration": 0.11120150000000084
                },
                {
                    "name": "D5",
                    "midi": 74,
                    "time": 8.006507999999998,
                    "velocity": 0.5748031496062992,
                    "duration": 0.4448059999999998
                },
                {
                    "name": "G#4",
                    "midi": 68,
                    "time": 8.117709499999998,
                    "velocity": 0.4409448818897638,
                    "duration": 0.11120149999999995
                },
                {
                    "name": "A4",
                    "midi": 69,
                    "time": 8.228910999999998,
                    "velocity": 0.48031496062992124,
                    "duration": 0.11120149999999995
                },
                {
                    "name": "F#4",
                    "midi": 66,
                    "time": 8.340112499999998,
                    "velocity": 0.4409448818897638,
                    "duration": 0.11120149999999995
                },
                {
                    "name": "C#5",
                    "midi": 73,
                    "time": 8.451313999999998,
                    "velocity": 0.5354330708661418,
                    "duration": 0.2224029999999999
                },
                {
                    "name": "A4",
                    "midi": 69,
                    "time": 8.562515499999998,
                    "velocity": 0.3858267716535433,
                    "duration": 0.11120149999999995
                },
                {
                    "name": "C5",
                    "midi": 72,
                    "time": 8.673716999999998,
                    "velocity": 0.5354330708661418,
                    "duration": 0.44017260416666737
                },
                {
                    "name": "G#4",
                    "midi": 68,
                    "time": 8.784918499999998,
                    "velocity": 0.3937007874015748,
                    "duration": 0.11120149999999995
                },
                {
                    "name": "A4",
                    "midi": 69,
                    "time": 8.896119999999998,
                    "velocity": 0.4330708661417323,
                    "duration": 0.11120149999999995
                },
                {
                    "name": "F#4",
                    "midi": 66,
                    "time": 9.007321499999998,
                    "velocity": 0.3543307086614173,
                    "duration": 0.11120150000000173
                },
                {
                    "name": "C5",
                    "midi": 72,
                    "time": 9.118523,
                    "velocity": 0.4015748031496063,
                    "duration": 0.2224029999999999
                },
                {
                    "name": "A4",
                    "midi": 69,
                    "time": 9.2297245,
                    "velocity": 0.25984251968503935,
                    "duration": 0.11120149999999995
                },
                {
                    "name": "C#5",
                    "midi": 73,
                    "time": 9.340926,
                    "velocity": 0.4409448818897638,
                    "duration": 0.4448059999999998
                },
                {
                    "name": "G#4",
                    "midi": 68,
                    "time": 9.4521275,
                    "velocity": 0.33858267716535434,
                    "duration": 0.11120149999999995
                },
                {
                    "name": "C#4",
                    "midi": 61,
                    "time": 9.563329,
                    "velocity": 0.36220472440944884,
                    "duration": 0.11120149999999995
                },
                {
                    "name": "D4",
                    "midi": 62,
                    "time": 9.6745305,
                    "velocity": 0.33070866141732286,
                    "duration": 0.11120149999999995
                },
                {
                    "name": "E4",
                    "midi": 64,
                    "time": 9.785732,
                    "velocity": 0.31496062992125984,
                    "duration": 0.11120149999999995
                },
                {
                    "name": "A#4",
                    "midi": 70,
                    "time": 9.785732,
                    "velocity": 0.3937007874015748,
                    "duration": 0.11120149999999995
                },
                {
                    "name": "C#4",
                    "midi": 61,
                    "time": 9.8969335,
                    "velocity": 0.2992125984251969,
                    "duration": 0.11120149999999995
                },
                {
                    "name": "D4",
                    "midi": 62,
                    "time": 10.008135,
                    "velocity": 0.36220472440944884,
                    "duration": 0.11120149999999995
                },
                {
                    "name": "B4",
                    "midi": 71,
                    "time": 10.008135,
                    "velocity": 0.4409448818897638,
                    "duration": 0.2224029999999999
                },
                {
                    "name": "F#4",
                    "midi": 66,
                    "time": 10.1193365,
                    "velocity": 0.33858267716535434,
                    "duration": 0.11120149999999995
                },
                {
                    "name": "E4",
                    "midi": 64,
                    "time": 10.230538,
                    "velocity": 0.36220472440944884,
                    "duration": 0.11120149999999995
                },
                {
                    "name": "D4",
                    "midi": 62,
                    "time": 10.3417395,
                    "velocity": 0.33070866141732286,
                    "duration": 0.11120149999999995
                },
                {
                    "name": "C#4",
                    "midi": 61,
                    "time": 10.452941,
                    "velocity": 0.31496062992125984,
                    "duration": 0.11120149999999995
                },
                {
                    "name": "A#4",
                    "midi": 70,
                    "time": 10.452941,
                    "velocity": 0.3937007874015748,
                    "duration": 0.2224029999999999
                },
                {
                    "name": "E4",
                    "midi": 64,
                    "time": 10.564142499999999,
                    "velocity": 0.2992125984251969,
                    "duration": 0.11120149999999995
                },
                {
                    "name": "D4",
                    "midi": 62,
                    "time": 10.675343999999999,
                    "velocity": 0.36220472440944884,
                    "duration": 0.11120149999999995
                },
                {
                    "name": "B4",
                    "midi": 71,
                    "time": 10.675343999999999,
                    "velocity": 0.4409448818897638,
                    "duration": 0.2224029999999999
                },
                {
                    "name": "F#4",
                    "midi": 66,
                    "time": 10.786545499999999,
                    "velocity": 0.33858267716535434,
                    "duration": 0.11120149999999995
                },
                {
                    "name": "A4",
                    "midi": 69,
                    "time": 10.897746999999999,
                    "velocity": 0.3937007874015748,
                    "duration": 0.11120149999999995
                },
                {
                    "name": "C#4",
                    "midi": 61,
                    "time": 10.897746999999999,
                    "velocity": 0.36220472440944884,
                    "duration": 0.11120149999999995
                },
                {
                    "name": "E4",
                    "midi": 64,
                    "time": 11.008948499999999,
                    "velocity": 0.33070866141732286,
                    "duration": 0.11120149999999995
                },
                {
                    "name": "B3",
                    "midi": 59,
                    "time": 11.120149999999999,
                    "velocity": 0.31496062992125984,
                    "duration": 0.11120149999999995
                },
                {
                    "name": "G#4",
                    "midi": 68,
                    "time": 11.120149999999999,
                    "velocity": 0.3937007874015748,
                    "duration": 0.11120149999999995
                },
                {
                    "name": "D4",
                    "midi": 62,
                    "time": 11.231351499999999,
                    "velocity": 0.2992125984251969,
                    "duration": 0.11120149999999995
                },
                {
                    "name": "A3",
                    "midi": 57,
                    "time": 11.342552999999999,
                    "velocity": 0.36220472440944884,
                    "duration": 0.11120149999999995
                },
                {
                    "name": "F#4",
                    "midi": 66,
                    "time": 11.342552999999999,
                    "velocity": 0.4409448818897638,
                    "duration": 0.2224029999999999
                },
                {
                    "name": "C#4",
                    "midi": 61,
                    "time": 11.453754499999999,
                    "velocity": 0.33858267716535434,
                    "duration": 0.11120149999999995
                },
                {
                    "name": "F4",
                    "midi": 65,
                    "time": 11.564955999999999,
                    "velocity": 0.4409448818897638,
                    "duration": 0.2224029999999999
                },
                {
                    "name": "G#3",
                    "midi": 56,
                    "time": 11.564955999999999,
                    "velocity": 0.36220472440944884,
                    "duration": 0.11120149999999995
                },
                {
                    "name": "B3",
                    "midi": 59,
                    "time": 11.676157499999999,
                    "velocity": 0.33070866141732286,
                    "duration": 0.11120149999999995
                },
                {
                    "name": "C#4",
                    "midi": 61,
                    "time": 11.787358999999999,
                    "velocity": 0.31496062992125984,
                    "duration": 0.11120149999999995
                },
                {
                    "name": "A#4",
                    "midi": 70,
                    "time": 11.787358999999999,
                    "velocity": 0.3937007874015748,
                    "duration": 0.2224029999999999
                },
                {
                    "name": "E4",
                    "midi": 64,
                    "time": 11.898560499999999,
                    "velocity": 0.2992125984251969,
                    "duration": 0.11120149999999995
                },
                {
                    "name": "D4",
                    "midi": 62,
                    "time": 12.009761999999998,
                    "velocity": 0.33858267716535434,
                    "duration": 0.11120149999999995
                },
                {
                    "name": "B4",
                    "midi": 71,
                    "time": 12.009761999999998,
                    "velocity": 0.4409448818897638,
                    "duration": 0.2224029999999999
                },
                {
                    "name": "F#4",
                    "midi": 66,
                    "time": 12.120963499999998,
                    "velocity": 0.33858267716535434,
                    "duration": 0.11120149999999995
                },
                {
                    "name": "E4",
                    "midi": 64,
                    "time": 12.232164999999998,
                    "velocity": 0.36220472440944884,
                    "duration": 0.11120149999999995
                },
                {
                    "name": "D4",
                    "midi": 62,
                    "time": 12.343366499999998,
                    "velocity": 0.33070866141732286,
                    "duration": 0.11120149999999995
                },
                {
                    "name": "C#4",
                    "midi": 61,
                    "time": 12.454567999999998,
                    "velocity": 0.31496062992125984,
                    "duration": 0.11120149999999995
                },
                {
                    "name": "A#4",
                    "midi": 70,
                    "time": 12.454567999999998,
                    "velocity": 0.3937007874015748,
                    "duration": 0.2224029999999999
                },
                {
                    "name": "E4",
                    "midi": 64,
                    "time": 12.565769499999998,
                    "velocity": 0.2992125984251969,
                    "duration": 0.11120149999999995
                },
                {
                    "name": "D4",
                    "midi": 62,
                    "time": 12.676970999999998,
                    "velocity": 0.36220472440944884,
                    "duration": 0.11120149999999995
                },
                {
                    "name": "B4",
                    "midi": 71,
                    "time": 12.676970999999998,
                    "velocity": 0.4409448818897638,
                    "duration": 0.2224029999999999
                },
                {
                    "name": "F#4",
                    "midi": 66,
                    "time": 12.788172499999998,
                    "velocity": 0.33858267716535434,
                    "duration": 0.11120149999999995
                },
                {
                    "name": "E4",
                    "midi": 64,
                    "time": 12.899373999999998,
                    "velocity": 0.36220472440944884,
                    "duration": 0.11120149999999995
                },
                {
                    "name": "D4",
                    "midi": 62,
                    "time": 13.010575499999998,
                    "velocity": 0.33070866141732286,
                    "duration": 0.11120149999999995
                },
                {
                    "name": "C#4",
                    "midi": 61,
                    "time": 13.121776999999998,
                    "velocity": 0.31496062992125984,
                    "duration": 0.11120149999999995
                },
                {
                    "name": "A#4",
                    "midi": 70,
                    "time": 13.121776999999998,
                    "velocity": 0.3937007874015748,
                    "duration": 0.2224029999999999
                },
                {
                    "name": "E4",
                    "midi": 64,
                    "time": 13.232978499999998,
                    "velocity": 0.2992125984251969,
                    "duration": 0.11120149999999995
                },
                {
                    "name": "D4",
                    "midi": 62,
                    "time": 13.344179999999998,
                    "velocity": 0.36220472440944884,
                    "duration": 0.11120149999999995
                },
                {
                    "name": "B4",
                    "midi": 71,
                    "time": 13.344179999999998,
                    "velocity": 0.4409448818897638,
                    "duration": 0.2224029999999999
                },
                {
                    "name": "F#4",
                    "midi": 66,
                    "time": 13.455381499999998,
                    "velocity": 0.33858267716535434,
                    "duration": 0.11120149999999995
                },
                {
                    "name": "A4",
                    "midi": 69,
                    "time": 13.566582999999998,
                    "velocity": 0.3937007874015748,
                    "duration": 0.11120149999999995
                },
                {
                    "name": "C#4",
                    "midi": 61,
                    "time": 13.566582999999998,
                    "velocity": 0.36220472440944884,
                    "duration": 0.11120149999999995
                },
                {
                    "name": "E4",
                    "midi": 64,
                    "time": 13.677784499999998,
                    "velocity": 0.33070866141732286,
                    "duration": 0.11120149999999995
                },
                {
                    "name": "B3",
                    "midi": 59,
                    "time": 13.788985999999998,
                    "velocity": 0.31496062992125984,
                    "duration": 0.11120149999999995
                },
                {
                    "name": "G#4",
                    "midi": 68,
                    "time": 13.788985999999998,
                    "velocity": 0.3937007874015748,
                    "duration": 0.11120149999999995
                },
                {
                    "name": "D4",
                    "midi": 62,
                    "time": 13.900187499999998,
                    "velocity": 0.2992125984251969,
                    "duration": 0.11120149999999995
                },
                {
                    "name": "A3",
                    "midi": 57,
                    "time": 14.011388999999998,
                    "velocity": 0.36220472440944884,
                    "duration": 0.11120149999999995
                },
                {
                    "name": "F#4",
                    "midi": 66,
                    "time": 14.011388999999998,
                    "velocity": 0.4409448818897638,
                    "duration": 0.2224029999999999
                },
                {
                    "name": "C#4",
                    "midi": 61,
                    "time": 14.122590499999998,
                    "velocity": 0.33858267716535434,
                    "duration": 0.11120149999999995
                },
                {
                    "name": "F4",
                    "midi": 65,
                    "time": 14.233791999999998,
                    "velocity": 0.4409448818897638,
                    "duration": 0.2224029999999999
                },
                {
                    "name": "G#3",
                    "midi": 56,
                    "time": 14.233791999999998,
                    "velocity": 0.36220472440944884,
                    "duration": 0.11120149999999995
                },
                {
                    "name": "B3",
                    "midi": 59,
                    "time": 14.344993499999998,
                    "velocity": 0.33070866141732286,
                    "duration": 0.11120149999999995
                },
                {
                    "name": "C#4",
                    "midi": 61,
                    "time": 14.456194999999997,
                    "velocity": 0.31496062992125984,
                    "duration": 0.11120149999999995
                },
                {
                    "name": "A#4",
                    "midi": 70,
                    "time": 14.456194999999997,
                    "velocity": 0.3937007874015748,
                    "duration": 0.2224029999999999
                },
                {
                    "name": "E4",
                    "midi": 64,
                    "time": 14.567396499999997,
                    "velocity": 0.2992125984251969,
                    "duration": 0.11120149999999995
                },
                {
                    "name": "D4",
                    "midi": 62,
                    "time": 14.678597999999997,
                    "velocity": 0.33858267716535434,
                    "duration": 0.11120149999999995
                },
                {
                    "name": "B4",
                    "midi": 71,
                    "time": 14.678597999999997,
                    "velocity": 0.4409448818897638,
                    "duration": 0.2224029999999999
                },
                {
                    "name": "F#4",
                    "midi": 66,
                    "time": 14.789799499999997,
                    "velocity": 0.33858267716535434,
                    "duration": 0.11120149999999995
                },
                {
                    "name": "E4",
                    "midi": 64,
                    "time": 14.901000999999997,
                    "velocity": 0.36220472440944884,
                    "duration": 0.11120149999999995
                },
                {
                    "name": "D4",
                    "midi": 62,
                    "time": 15.012202499999997,
                    "velocity": 0.33070866141732286,
                    "duration": 0.11120149999999995
                },
                {
                    "name": "A#4",
                    "midi": 70,
                    "time": 15.123403999999997,
                    "velocity": 0.31496062992125984,
                    "duration": 0.11120149999999995
                },
                {
                    "name": "C#5",
                    "midi": 73,
                    "time": 15.123403999999997,
                    "velocity": 0.3937007874015748,
                    "duration": 0.2224029999999999
                },
                {
                    "name": "F#4",
                    "midi": 66,
                    "time": 15.234605499999997,
                    "velocity": 0.2992125984251969,
                    "duration": 0.11120149999999995
                },
                {
                    "name": "B4",
                    "midi": 71,
                    "time": 15.345806999999997,
                    "velocity": 0.3543307086614173,
                    "duration": 0.11120149999999995
                },
                {
                    "name": "D5",
                    "midi": 74,
                    "time": 15.345806999999997,
                    "velocity": 0.4409448818897638,
                    "duration": 0.2224029999999999
                },
                {
                    "name": "F#4",
                    "midi": 66,
                    "time": 15.457008499999997,
                    "velocity": 0.33858267716535434,
                    "duration": 0.11120149999999995
                },
                {
                    "name": "C5",
                    "midi": 72,
                    "time": 15.568209999999997,
                    "velocity": 0.3779527559055118,
                    "duration": 0.11120149999999995
                },
                {
                    "name": "D#5",
                    "midi": 75,
                    "time": 15.568209999999997,
                    "velocity": 0.48031496062992124,
                    "duration": 0.2224029999999999
                },
                {
                    "name": "F#4",
                    "midi": 66,
                    "time": 15.679411499999997,
                    "velocity": 0.3779527559055118,
                    "duration": 0.11120149999999995
                },
                {
                    "name": "B4",
                    "midi": 71,
                    "time": 15.790612999999997,
                    "velocity": 0.41732283464566927,
                    "duration": 0.11120149999999995
                },
                {
                    "name": "E5",
                    "midi": 76,
                    "time": 15.790612999999997,
                    "velocity": 0.5196850393700787,
                    "duration": 0.2224029999999999
                },
                {
                    "name": "G#4",
                    "midi": 68,
                    "time": 15.901814499999997,
                    "velocity": 0.4094488188976378,
                    "duration": 0.11120149999999995
                },
                {
                    "name": "D#5",
                    "midi": 75,
                    "time": 16.013015999999997,
                    "velocity": 0.4566929133858268,
                    "duration": 0.11120149999999995
                },
                {
                    "name": "F#5",
                    "midi": 78,
                    "time": 16.013015999999997,
                    "velocity": 0.5669291338582677,
                    "duration": 0.2224029999999999
                },
                {
                    "name": "A4",
                    "midi": 69,
                    "time": 16.124217499999997,
                    "velocity": 0.44881889763779526,
                    "duration": 0.11120149999999995
                },
                {
                    "name": "E5",
                    "midi": 76,
                    "time": 16.235418999999997,
                    "velocity": 0.4881889763779528,
                    "duration": 0.11120149999999995
                },
                {
                    "name": "G5",
                    "midi": 79,
                    "time": 16.235418999999997,
                    "velocity": 0.6141732283464567,
                    "duration": 0.2224029999999999
                },
                {
                    "name": "B4",
                    "midi": 71,
                    "time": 16.346620499999997,
                    "velocity": 0.4881889763779528,
                    "duration": 0.11120149999999995
                },
                {
                    "name": "E5",
                    "midi": 76,
                    "time": 16.457821999999997,
                    "velocity": 0.5275590551181102,
                    "duration": 0.11120149999999995
                },
                {
                    "name": "G#5",
                    "midi": 80,
                    "time": 16.457821999999997,
                    "velocity": 0.6614173228346457,
                    "duration": 0.2224029999999999
                },
                {
                    "name": "B4",
                    "midi": 71,
                    "time": 16.569023499999997,
                    "velocity": 0.5196850393700787,
                    "duration": 0.11120149999999995
                },
                {
                    "name": "E5",
                    "midi": 76,
                    "time": 16.680224999999997,
                    "velocity": 0.5748031496062992,
                    "duration": 0.11120149999999995
                },
                {
                    "name": "A5",
                    "midi": 81,
                    "time": 16.680224999999997,
                    "velocity": 0.7165354330708661,
                    "duration": 0.2224029999999999
                },
                {
                    "name": "C#5",
                    "midi": 73,
                    "time": 16.791426499999996,
                    "velocity": 0.5511811023622047,
                    "duration": 0.11120149999999995
                },
                {
                    "name": "E5",
                    "midi": 76,
                    "time": 16.902627999999996,
                    "velocity": 0.5905511811023622,
                    "duration": 0.11120149999999995
                },
                {
                    "name": "C#6",
                    "midi": 85,
                    "time": 16.902627999999996,
                    "velocity": 0.7322834645669292,
                    "duration": 0.2224029999999999
                },
                {
                    "name": "C#5",
                    "midi": 73,
                    "time": 17.013829499999996,
                    "velocity": 0.5590551181102362,
                    "duration": 0.11120149999999995
                },
                {
                    "name": "E5",
                    "midi": 76,
                    "time": 17.125030999999996,
                    "velocity": 0.5905511811023622,
                    "duration": 0.11120149999999995
                },
                {
                    "name": "B5",
                    "midi": 83,
                    "time": 17.125030999999996,
                    "velocity": 0.7322834645669292,
                    "duration": 0.2085028125000008
                },
                {
                    "name": "C#5",
                    "midi": 73,
                    "time": 17.236232499999996,
                    "velocity": 0.5590551181102362,
                    "duration": 0.11120149999999995
                },
                {
                    "name": "E5",
                    "midi": 76,
                    "time": 17.347433999999996,
                    "velocity": 0.5905511811023622,
                    "duration": 0.11120149999999995
                },
                {
                    "name": "B5",
                    "midi": 83,
                    "time": 17.347433999999996,
                    "velocity": 0.7322834645669292,
                    "duration": 0.2224029999999999
                },
                {
                    "name": "C#5",
                    "midi": 73,
                    "time": 17.458635499999996,
                    "velocity": 0.5590551181102362,
                    "duration": 0.11120149999999995
                },
                {
                    "name": "E5",
                    "midi": 76,
                    "time": 17.569836999999996,
                    "velocity": 0.5905511811023622,
                    "duration": 0.11120149999999995
                },
                {
                    "name": "A#5",
                    "midi": 82,
                    "time": 17.569836999999996,
                    "velocity": 0.7322834645669292,
                    "duration": 0.2224029999999999
                },
                {
                    "name": "C#5",
                    "midi": 73,
                    "time": 17.681038499999996,
                    "velocity": 0.5590551181102362,
                    "duration": 0.11120149999999995
                },
                {
                    "name": "D5",
                    "midi": 74,
                    "time": 17.792239999999996,
                    "velocity": 0.5905511811023622,
                    "duration": 0.11120149999999995
                },
                {
                    "name": "G5",
                    "midi": 79,
                    "time": 17.792239999999996,
                    "velocity": 0.7322834645669292,
                    "duration": 0.2085028125000008
                },
                {
                    "name": "B4",
                    "midi": 71,
                    "time": 17.903441499999996,
                    "velocity": 0.49606299212598426,
                    "duration": 0.11120149999999995
                },
                {
                    "name": "C#5",
                    "midi": 73,
                    "time": 18.014642999999996,
                    "velocity": 0.5905511811023622,
                    "duration": 0.11120149999999995
                },
                {
                    "name": "G5",
                    "midi": 79,
                    "time": 18.014642999999996,
                    "velocity": 0.7322834645669292,
                    "duration": 0.2224029999999999
                },
                {
                    "name": "A#4",
                    "midi": 70,
                    "time": 18.125844499999996,
                    "velocity": 0.5354330708661418,
                    "duration": 0.11120149999999995
                },
                {
                    "name": "C#5",
                    "midi": 73,
                    "time": 18.237045999999996,
                    "velocity": 0.5590551181102362,
                    "duration": 0.11120149999999995
                },
                {
                    "name": "F#5",
                    "midi": 78,
                    "time": 18.237045999999996,
                    "velocity": 0.7086614173228346,
                    "duration": 0.2224029999999999
                },
                {
                    "name": "A#4",
                    "midi": 70,
                    "time": 18.348247499999996,
                    "velocity": 0.5118110236220472,
                    "duration": 0.11120149999999995
                },
                {
                    "name": "C#5",
                    "midi": 73,
                    "time": 18.459448999999996,
                    "velocity": 0.5196850393700787,
                    "duration": 0.11120149999999995
                },
                {
                    "name": "E5",
                    "midi": 76,
                    "time": 18.459448999999996,
                    "velocity": 0.6535433070866141,
                    "duration": 0.2085028125000008
                },
                {
                    "name": "G4",
                    "midi": 67,
                    "time": 18.570650499999996,
                    "velocity": 0.47244094488188976,
                    "duration": 0.11120149999999995
                },
                {
                    "name": "C#5",
                    "midi": 73,
                    "time": 18.681851999999996,
                    "velocity": 0.48031496062992124,
                    "duration": 0.11120149999999995
                },
                {
                    "name": "E5",
                    "midi": 76,
                    "time": 18.681851999999996,
                    "velocity": 0.6062992125984252,
                    "duration": 0.2224029999999999
                },
                {
                    "name": "F#4",
                    "midi": 66,
                    "time": 18.793053499999996,
                    "velocity": 0.4409448818897638,
                    "duration": 0.11120149999999995
                },
                {
                    "name": "C5",
                    "midi": 72,
                    "time": 18.904254999999996,
                    "velocity": 0.44881889763779526,
                    "duration": 0.11120149999999995
                },
                {
                    "name": "D#5",
                    "midi": 75,
                    "time": 18.904254999999996,
                    "velocity": 0.5590551181102362,
                    "duration": 0.2224029999999999
                },
                {
                    "name": "A#4",
                    "midi": 70,
                    "time": 19.015456499999996,
                    "velocity": 0.4015748031496063,
                    "duration": 0.11120149999999995
                },
                {
                    "name": "B4",
                    "midi": 71,
                    "time": 19.126657999999995,
                    "velocity": 0.4094488188976378,
                    "duration": 0.11120149999999995
                },
                {
                    "name": "D5",
                    "midi": 74,
                    "time": 19.126657999999995,
                    "velocity": 0.5196850393700787,
                    "duration": 0.2085028125000008
                },
                {
                    "name": "F4",
                    "midi": 65,
                    "time": 19.237859499999995,
                    "velocity": 0.3700787401574803,
                    "duration": 0.11120149999999995
                },
                {
                    "name": "B4",
                    "midi": 71,
                    "time": 19.349060999999995,
                    "velocity": 0.3779527559055118,
                    "duration": 0.11120149999999995
                },
                {
                    "name": "D5",
                    "midi": 74,
                    "time": 19.349060999999995,
                    "velocity": 0.47244094488188976,
                    "duration": 0.2224029999999999
                },
                {
                    "name": "E4",
                    "midi": 64,
                    "time": 19.460262499999995,
                    "velocity": 0.3464566929133858,
                    "duration": 0.11120149999999995
                },
                {
                    "name": "A4",
                    "midi": 69,
                    "time": 19.571463999999995,
                    "velocity": 0.3464566929133858,
                    "duration": 0.11120149999999995
                },
                {
                    "name": "C#5",
                    "midi": 73,
                    "time": 19.571463999999995,
                    "velocity": 0.4330708661417323,
                    "duration": 0.2224029999999999
                },
                {
                    "name": "G#4",
                    "midi": 68,
                    "time": 19.682665499999995,
                    "velocity": 0.30708661417322836,
                    "duration": 0.11120149999999995
                },
                {
                    "name": "A4",
                    "midi": 69,
                    "time": 19.793866999999995,
                    "velocity": 0.31496062992125984,
                    "duration": 0.11120149999999995
                },
                {
                    "name": "C5",
                    "midi": 72,
                    "time": 19.793866999999995,
                    "velocity": 0.3937007874015748,
                    "duration": 0.2224029999999999
                },
                {
                    "name": "F4",
                    "midi": 65,
                    "time": 19.905068499999995,
                    "velocity": 0.2992125984251969,
                    "duration": 0.11120149999999995
                },
                {
                    "name": "G#4",
                    "midi": 68,
                    "time": 20.016269999999995,
                    "velocity": 0.31496062992125984,
                    "duration": 0.11120149999999995
                },
                {
                    "name": "B4",
                    "midi": 71,
                    "time": 20.016269999999995,
                    "velocity": 0.3937007874015748,
                    "duration": 0.2224029999999999
                },
                {
                    "name": "E4",
                    "midi": 64,
                    "time": 20.127471499999995,
                    "velocity": 0.2992125984251969,
                    "duration": 0.11120149999999995
                },
                {
                    "name": "D5",
                    "midi": 74,
                    "time": 20.238672999999995,
                    "velocity": 0.5826771653543307,
                    "duration": 0.2224029999999999
                },
                {
                    "name": "B4",
                    "midi": 71,
                    "time": 20.238672999999995,
                    "velocity": 0.4881889763779528,
                    "duration": 0.11120149999999995
                },
                {
                    "name": "E4",
                    "midi": 64,
                    "time": 20.349874499999995,
                    "velocity": 0.4409448818897638,
                    "duration": 0.11120149999999995
                },
                {
                    "name": "C5",
                    "midi": 72,
                    "time": 20.461075999999995,
                    "velocity": 0.4881889763779528,
                    "duration": 0.2224029999999999
                },
                {
                    "name": "A4",
                    "midi": 69,
                    "time": 20.461075999999995,
                    "velocity": 0.4881889763779528,
                    "duration": 0.11120149999999995
                },
                {
                    "name": "E4",
                    "midi": 64,
                    "time": 20.572277499999995,
                    "velocity": 0.2992125984251969,
                    "duration": 0.11120149999999995
                },
                {
                    "name": "G#4",
                    "midi": 68,
                    "time": 20.683478999999995,
                    "velocity": 0.31496062992125984,
                    "duration": 0.11120149999999995
                },
                {
                    "name": "B4",
                    "midi": 71,
                    "time": 20.683478999999995,
                    "velocity": 0.3937007874015748,
                    "duration": 0.2224029999999999
                },
                {
                    "name": "E4",
                    "midi": 64,
                    "time": 20.794680499999995,
                    "velocity": 0.2992125984251969,
                    "duration": 0.11120149999999995
                },
                {
                    "name": "E5",
                    "midi": 76,
                    "time": 20.905881999999995,
                    "velocity": 0.5826771653543307,
                    "duration": 0.2224029999999999
                },
                {
                    "name": "B4",
                    "midi": 71,
                    "time": 20.905881999999995,
                    "velocity": 0.4881889763779528,
                    "duration": 0.11120149999999995
                },
                {
                    "name": "E4",
                    "midi": 64,
                    "time": 21.017083499999995,
                    "velocity": 0.4409448818897638,
                    "duration": 0.11120149999999995
                },
                {
                    "name": "C5",
                    "midi": 72,
                    "time": 21.128284999999995,
                    "velocity": 0.4881889763779528,
                    "duration": 0.2224029999999999
                },
                {
                    "name": "A4",
                    "midi": 69,
                    "time": 21.128284999999995,
                    "velocity": 0.4881889763779528,
                    "duration": 0.11120149999999995
                },
                {
                    "name": "E4",
                    "midi": 64,
                    "time": 21.239486499999995,
                    "velocity": 0.2992125984251969,
                    "duration": 0.11120149999999995
                },
                {
                    "name": "G#4",
                    "midi": 68,
                    "time": 21.350687999999995,
                    "velocity": 0.31496062992125984,
                    "duration": 0.11120149999999995
                },
                {
                    "name": "B4",
                    "midi": 71,
                    "time": 21.350687999999995,
                    "velocity": 0.3937007874015748,
                    "duration": 0.2224029999999999
                },
                {
                    "name": "E4",
                    "midi": 64,
                    "time": 21.461889499999995,
                    "velocity": 0.2992125984251969,
                    "duration": 0.11120149999999995
                },
                {
                    "name": "D5",
                    "midi": 74,
                    "time": 21.573090999999994,
                    "velocity": 0.5826771653543307,
                    "duration": 0.2224029999999999
                },
                {
                    "name": "B4",
                    "midi": 71,
                    "time": 21.573090999999994,
                    "velocity": 0.4881889763779528,
                    "duration": 0.11120149999999995
                },
                {
                    "name": "E4",
                    "midi": 64,
                    "time": 21.684292499999994,
                    "velocity": 0.4409448818897638,
                    "duration": 0.11120149999999995
                },
                {
                    "name": "C5",
                    "midi": 72,
                    "time": 21.795493999999994,
                    "velocity": 0.4881889763779528,
                    "duration": 0.2224029999999999
                },
                {
                    "name": "A4",
                    "midi": 69,
                    "time": 21.795493999999994,
                    "velocity": 0.4881889763779528,
                    "duration": 0.11120149999999995
                },
                {
                    "name": "E4",
                    "midi": 64,
                    "time": 21.906695499999994,
                    "velocity": 0.2992125984251969,
                    "duration": 0.11120149999999995
                },
                {
                    "name": "G#4",
                    "midi": 68,
                    "time": 22.017896999999994,
                    "velocity": 0.31496062992125984,
                    "duration": 0.11120149999999995
                },
                {
                    "name": "B4",
                    "midi": 71,
                    "time": 22.017896999999994,
                    "velocity": 0.3937007874015748,
                    "duration": 0.2224029999999999
                },
                {
                    "name": "E4",
                    "midi": 64,
                    "time": 22.129098499999994,
                    "velocity": 0.2992125984251969,
                    "duration": 0.11120149999999995
                },
                {
                    "name": "E5",
                    "midi": 76,
                    "time": 22.240299999999994,
                    "velocity": 0.5826771653543307,
                    "duration": 0.2224029999999999
                },
                {
                    "name": "B4",
                    "midi": 71,
                    "time": 22.240299999999994,
                    "velocity": 0.4881889763779528,
                    "duration": 0.11120149999999995
                },
                {
                    "name": "E4",
                    "midi": 64,
                    "time": 22.351501499999994,
                    "velocity": 0.4409448818897638,
                    "duration": 0.11120149999999995
                },
                {
                    "name": "C5",
                    "midi": 72,
                    "time": 22.462702999999994,
                    "velocity": 0.4881889763779528,
                    "duration": 0.2224029999999999
                },
                {
                    "name": "A4",
                    "midi": 69,
                    "time": 22.462702999999994,
                    "velocity": 0.4881889763779528,
                    "duration": 0.11120149999999995
                },
                {
                    "name": "E4",
                    "midi": 64,
                    "time": 22.573904499999994,
                    "velocity": 0.2992125984251969,
                    "duration": 0.11120149999999995
                },
                {
                    "name": "G#4",
                    "midi": 68,
                    "time": 22.685105999999994,
                    "velocity": 0.31496062992125984,
                    "duration": 0.11120149999999995
                },
                {
                    "name": "B4",
                    "midi": 71,
                    "time": 22.685105999999994,
                    "velocity": 0.3937007874015748,
                    "duration": 0.11120149999999995
                },
                {
                    "name": "E4",
                    "midi": 64,
                    "time": 22.796307499999994,
                    "velocity": 0.2992125984251969,
                    "duration": 0.11120149999999995
                },
                {
                    "name": "D#4",
                    "midi": 63,
                    "time": 22.907508999999994,
                    "velocity": 0.33070866141732286,
                    "duration": 0.11120149999999995
                },
                {
                    "name": "E4",
                    "midi": 64,
                    "time": 23.018710499999994,
                    "velocity": 0.2992125984251969,
                    "duration": 0.11120149999999995
                },
                {
                    "name": "G#4",
                    "midi": 68,
                    "time": 23.129911999999994,
                    "velocity": 0.33070866141732286,
                    "duration": 0.11120149999999995
                },
                {
                    "name": "E4",
                    "midi": 64,
                    "time": 23.241113499999994,
                    "velocity": 0.2992125984251969,
                    "duration": 0.11120149999999995
                },
                {
                    "name": "B4",
                    "midi": 71,
                    "time": 23.352314999999994,
                    "velocity": 0.3543307086614173,
                    "duration": 0.11120149999999995
                },
                {
                    "name": "G#4",
                    "midi": 68,
                    "time": 23.463516499999994,
                    "velocity": 0.3543307086614173,
                    "duration": 0.11120149999999995
                },
                {
                    "name": "G4",
                    "midi": 67,
                    "time": 23.574717999999994,
                    "velocity": 0.36220472440944884,
                    "duration": 0.11120149999999995
                },
                {
                    "name": "G#4",
                    "midi": 68,
                    "time": 23.685919499999994,
                    "velocity": 0.3858267716535433,
                    "duration": 0.11120149999999995
                },
                {
                    "name": "B4",
                    "midi": 71,
                    "time": 23.797120999999994,
                    "velocity": 0.3937007874015748,
                    "duration": 0.11120149999999995
                },
                {
                    "name": "G#4",
                    "midi": 68,
                    "time": 23.908322499999993,
                    "velocity": 0.4094488188976378,
                    "duration": 0.11120149999999995
                },
                {
                    "name": "D5",
                    "midi": 74,
                    "time": 24.019523999999993,
                    "velocity": 0.4251968503937008,
                    "duration": 0.11120149999999995
                },
                {
                    "name": "B4",
                    "midi": 71,
                    "time": 24.130725499999993,
                    "velocity": 0.4251968503937008,
                    "duration": 0.11120149999999995
                },
                {
                    "name": "F5",
                    "midi": 77,
                    "time": 24.241926999999993,
                    "velocity": 0.4330708661417323,
                    "duration": 0.11120149999999995
                },
                {
                    "name": "D5",
                    "midi": 74,
                    "time": 24.353128499999993,
                    "velocity": 0.4409448818897638,
                    "duration": 0.11120149999999995
                },
                {
                    "name": "G#5",
                    "midi": 80,
                    "time": 24.464329999999993,
                    "velocity": 0.4645669291338583,
                    "duration": 0.11120149999999995
                },
                {
                    "name": "F5",
                    "midi": 77,
                    "time": 24.575531499999993,
                    "velocity": 0.49606299212598426,
                    "duration": 0.11120149999999995
                },
                {
                    "name": "B5",
                    "midi": 83,
                    "time": 24.686732999999993,
                    "velocity": 0.5511811023622047,
                    "duration": 0.11120149999999995
                },
                {
                    "name": "G#5",
                    "midi": 80,
                    "time": 24.797934499999993,
                    "velocity": 0.4881889763779528,
                    "duration": 0.11120149999999995
                },
                {
                    "name": "D6",
                    "midi": 86,
                    "time": 24.909135999999993,
                    "velocity": 0.5511811023622047,
                    "duration": 0.11120149999999995
                },
                {
                    "name": "B5",
                    "midi": 83,
                    "time": 25.020337499999993,
                    "velocity": 0.4645669291338583,
                    "duration": 0.11120149999999995
                },
                {
                    "name": "A5",
                    "midi": 81,
                    "time": 25.131538999999993,
                    "velocity": 0.5118110236220472,
                    "duration": 0.11120149999999995
                },
                {
                    "name": "G#5",
                    "midi": 80,
                    "time": 25.242740499999993,
                    "velocity": 0.48031496062992124,
                    "duration": 0.11120149999999995
                },
                {
                    "name": "E6",
                    "midi": 88,
                    "time": 25.353941999999993,
                    "velocity": 0.5433070866141733,
                    "duration": 0.11120149999999995
                },
                {
                    "name": "D6",
                    "midi": 86,
                    "time": 25.465143499999993,
                    "velocity": 0.49606299212598426,
                    "duration": 0.11120149999999995
                },
                {
                    "name": "C#6",
                    "midi": 85,
                    "time": 25.576344999999993,
                    "velocity": 0.4645669291338583,
                    "duration": 0.11120149999999995
                },
                {
                    "name": "B5",
                    "midi": 83,
                    "time": 25.687546499999993,
                    "velocity": 0.4566929133858268,
                    "duration": 0.11120149999999995
                },
                {
                    "name": "A5",
                    "midi": 81,
                    "time": 25.798747999999993,
                    "velocity": 0.4409448818897638,
                    "duration": 0.11120149999999995
                },
                {
                    "name": "G#5",
                    "midi": 80,
                    "time": 25.909949499999993,
                    "velocity": 0.3858267716535433,
                    "duration": 0.11120149999999995
                },
                {
                    "name": "A5",
                    "midi": 81,
                    "time": 26.021150999999993,
                    "velocity": 0.4330708661417323,
                    "duration": 0.11120149999999995
                },
                {
                    "name": "F#5",
                    "midi": 78,
                    "time": 26.132352499999993,
                    "velocity": 0.41732283464566927,
                    "duration": 0.11120149999999995
                },
                {
                    "name": "D#5",
                    "midi": 75,
                    "time": 26.243553999999992,
                    "velocity": 0.4015748031496063,
                    "duration": 0.11120149999999995
                },
                {
                    "name": "B4",
                    "midi": 71,
                    "time": 26.354755499999992,
                    "velocity": 0.4015748031496063,
                    "duration": 0.11120149999999995
                },
                {
                    "name": "A4",
                    "midi": 69,
                    "time": 26.465956999999992,
                    "velocity": 0.3779527559055118,
                    "duration": 0.11120149999999995
                },
                {
                    "name": "F#4",
                    "midi": 66,
                    "time": 26.577158499999992,
                    "velocity": 0.36220472440944884,
                    "duration": 0.11120149999999995
                },
                {
                    "name": "D5",
                    "midi": 74,
                    "time": 26.688359999999992,
                    "velocity": 0.48031496062992124,
                    "duration": 0.11120149999999995
                },
                {
                    "name": "G#4",
                    "midi": 68,
                    "time": 26.688359999999992,
                    "velocity": 0.48031496062992124,
                    "duration": 0.11120149999999995
                },
                {
                    "name": "B4",
                    "midi": 71,
                    "time": 26.799561499999992,
                    "velocity": 0.4015748031496063,
                    "duration": 0.11120149999999995
                },
                {
                    "name": "G#4",
                    "midi": 68,
                    "time": 26.910762999999992,
                    "velocity": 0.3779527559055118,
                    "duration": 0.11120149999999995
                },
                {
                    "name": "E4",
                    "midi": 64,
                    "time": 27.021964499999992,
                    "velocity": 0.3700787401574803,
                    "duration": 0.11120149999999995
                },
                {
                    "name": "D4",
                    "midi": 62,
                    "time": 27.133165999999992,
                    "velocity": 0.36220472440944884,
                    "duration": 0.11120149999999995
                },
                {
                    "name": "B3",
                    "midi": 59,
                    "time": 27.244367499999992,
                    "velocity": 0.33858267716535434,
                    "duration": 0.11120149999999995
                },
                {
                    "name": "G4",
                    "midi": 67,
                    "time": 27.355568999999992,
                    "velocity": 0.3858267716535433,
                    "duration": 0.11120149999999995
                },
                {
                    "name": "E4",
                    "midi": 64,
                    "time": 27.466770499999992,
                    "velocity": 0.33070866141732286,
                    "duration": 0.11120149999999995
                },
                {
                    "name": "C#4",
                    "midi": 61,
                    "time": 27.577971999999992,
                    "velocity": 0.3543307086614173,
                    "duration": 0.11120149999999995
                },
                {
                    "name": "A3",
                    "midi": 57,
                    "time": 27.689173499999992,
                    "velocity": 0.36220472440944884,
                    "duration": 0.11120149999999995
                },
                {
                    "name": "G#3",
                    "midi": 56,
                    "time": 27.800374999999992,
                    "velocity": 0.3779527559055118,
                    "duration": 0.11120149999999995
                },
                {
                    "name": "G3",
                    "midi": 55,
                    "time": 27.911576499999992,
                    "velocity": 0.4094488188976378,
                    "duration": 0.11120149999999995
                },
                {
                    "name": "F#3",
                    "midi": 54,
                    "time": 28.02277799999999,
                    "velocity": 0.4251968503937008,
                    "duration": 0.11120149999999995
                },
                {
                    "name": "A#3",
                    "midi": 58,
                    "time": 28.13397949999999,
                    "velocity": 0.2992125984251969,
                    "duration": 0.11120149999999995
                },
                {
                    "name": "B3",
                    "midi": 59,
                    "time": 28.24518099999999,
                    "velocity": 0.3543307086614173,
                    "duration": 0.11120149999999995
                },
                {
                    "name": "F#3",
                    "midi": 54,
                    "time": 28.35638249999999,
                    "velocity": 0.2992125984251969,
                    "duration": 0.11120149999999995
                },
                {
                    "name": "C#4",
                    "midi": 61,
                    "time": 28.46758399999999,
                    "velocity": 0.33858267716535434,
                    "duration": 0.11120149999999995
                },
                {
                    "name": "F#3",
                    "midi": 54,
                    "time": 28.57878549999999,
                    "velocity": 0.2992125984251969,
                    "duration": 0.11120149999999995
                },
                {
                    "name": "D4",
                    "midi": 62,
                    "time": 28.68998699999999,
                    "velocity": 0.3937007874015748,
                    "duration": 0.11120149999999995
                },
                {
                    "name": "G#3",
                    "midi": 56,
                    "time": 28.80118849999999,
                    "velocity": 0.2992125984251969,
                    "duration": 0.11120149999999995
                },
                {
                    "name": "E3",
                    "midi": 52,
                    "time": 28.91238999999999,
                    "velocity": 0.33858267716535434,
                    "duration": 0.11120149999999995
                },
                {
                    "name": "G#3",
                    "midi": 56,
                    "time": 29.02359149999999,
                    "velocity": 0.2992125984251969,
                    "duration": 0.11120149999999995
                },
                {
                    "name": "D3",
                    "midi": 50,
                    "time": 29.13479299999999,
                    "velocity": 0.3543307086614173,
                    "duration": 0.11120149999999995
                },
                {
                    "name": "G#3",
                    "midi": 56,
                    "time": 29.24599449999999,
                    "velocity": 0.29133858267716534,
                    "duration": 0.11120149999999995
                },
                {
                    "name": "C#3",
                    "midi": 49,
                    "time": 29.35719599999999,
                    "velocity": 0.3543307086614173,
                    "duration": 0.11120149999999995
                },
                {
                    "name": "E3",
                    "midi": 52,
                    "time": 29.46839749999999,
                    "velocity": 0.25984251968503935,
                    "duration": 0.11120149999999995
                },
                {
                    "name": "A3",
                    "midi": 57,
                    "time": 29.57959899999999,
                    "velocity": 0.25984251968503935,
                    "duration": 0.11120149999999995
                },
                {
                    "name": "B3",
                    "midi": 59,
                    "time": 29.69080049999999,
                    "velocity": 0.25984251968503935,
                    "duration": 0.11120149999999995
                },
                {
                    "name": "C#4",
                    "midi": 61,
                    "time": 29.80200199999999,
                    "velocity": 0.25984251968503935,
                    "duration": 0.11120149999999995
                },
                {
                    "name": "E4",
                    "midi": 64,
                    "time": 29.91320349999999,
                    "velocity": 0.25984251968503935,
                    "duration": 0.11120149999999995
                },
                {
                    "name": "C#4",
                    "midi": 61,
                    "time": 30.02440499999999,
                    "velocity": 0.28346456692913385,
                    "duration": 0.11120149999999995
                },
                {
                    "name": "B3",
                    "midi": 59,
                    "time": 30.13560649999999,
                    "velocity": 0.2440944881889764,
                    "duration": 0.11120149999999995
                },
                {
                    "name": "A3",
                    "midi": 57,
                    "time": 30.24680799999999,
                    "velocity": 0.25984251968503935,
                    "duration": 0.11120149999999995
                },
                {
                    "name": "E3",
                    "midi": 52,
                    "time": 30.35800949999999,
                    "velocity": 0.25984251968503935,
                    "duration": 0.33360449999999986
                },
                {
                    "name": "E4",
                    "midi": 64,
                    "time": 30.46921099999999,
                    "velocity": 0.3937007874015748,
                    "duration": 0.2224029999999999
                },
                {
                    "name": "A4",
                    "midi": 69,
                    "time": 30.69161399999999,
                    "velocity": 0.5118110236220472,
                    "duration": 0.8896119999999996
                },
                {
                    "name": "A3",
                    "midi": 57,
                    "time": 30.69161399999999,
                    "velocity": 0.4330708661417323,
                    "duration": 0.8896119999999996
                },
                {
                    "name": "G#4",
                    "midi": 68,
                    "time": 31.58122599999999,
                    "velocity": 0.5433070866141733,
                    "duration": 0.2224029999999999
                },
                {
                    "name": "G#3",
                    "midi": 56,
                    "time": 31.58122599999999,
                    "velocity": 0.4566929133858268,
                    "duration": 0.2224029999999999
                },
                {
                    "name": "A3",
                    "midi": 57,
                    "time": 31.80362899999999,
                    "velocity": 0.4881889763779528,
                    "duration": 0.22240300000000346
                },
                {
                    "name": "A4",
                    "midi": 69,
                    "time": 31.80362899999999,
                    "velocity": 0.5826771653543307,
                    "duration": 0.22240300000000346
                },
                {
                    "name": "B4",
                    "midi": 71,
                    "time": 32.026031999999994,
                    "velocity": 0.6614173228346457,
                    "duration": 0.6672089999999997
                },
                {
                    "name": "B3",
                    "midi": 59,
                    "time": 32.026031999999994,
                    "velocity": 0.5590551181102362,
                    "duration": 0.6672089999999997
                },
                {
                    "name": "C#5",
                    "midi": 73,
                    "time": 32.69324099999999,
                    "velocity": 0.6062992125984252,
                    "duration": 0.6672089999999997
                },
                {
                    "name": "C#4",
                    "midi": 61,
                    "time": 32.69324099999999,
                    "velocity": 0.5118110236220472,
                    "duration": 0.6672089999999997
                },
                {
                    "name": "E5",
                    "midi": 76,
                    "time": 33.36044999999999,
                    "velocity": 0.7007874015748031,
                    "duration": 0.2224029999999999
                },
                {
                    "name": "C#5",
                    "midi": 73,
                    "time": 33.36044999999999,
                    "velocity": 0.7007874015748031,
                    "duration": 0.2224029999999999
                },
                {
                    "name": "E4",
                    "midi": 64,
                    "time": 33.36044999999999,
                    "velocity": 0.5905511811023622,
                    "duration": 0.2224029999999999
                },
                {
                    "name": "D5",
                    "midi": 74,
                    "time": 33.58285299999999,
                    "velocity": 0.5984251968503937,
                    "duration": 0.2224029999999999
                },
                {
                    "name": "B4",
                    "midi": 71,
                    "time": 33.58285299999999,
                    "velocity": 0.5984251968503937,
                    "duration": 0.2224029999999999
                },
                {
                    "name": "D4",
                    "midi": 62,
                    "time": 33.58285299999999,
                    "velocity": 0.49606299212598426,
                    "duration": 0.2224029999999999
                },
                {
                    "name": "C#5",
                    "midi": 73,
                    "time": 33.80525599999999,
                    "velocity": 0.5511811023622047,
                    "duration": 0.2224029999999999
                },
                {
                    "name": "A4",
                    "midi": 69,
                    "time": 33.80525599999999,
                    "velocity": 0.5511811023622047,
                    "duration": 0.2224029999999999
                },
                {
                    "name": "C#4",
                    "midi": 61,
                    "time": 33.80525599999999,
                    "velocity": 0.4645669291338583,
                    "duration": 0.2224029999999999
                },
                {
                    "name": "B4",
                    "midi": 71,
                    "time": 34.02765899999999,
                    "velocity": 0.6456692913385826,
                    "duration": 0.2224029999999999
                },
                {
                    "name": "G#4",
                    "midi": 68,
                    "time": 34.02765899999999,
                    "velocity": 0.6456692913385826,
                    "duration": 0.2224029999999999
                },
                {
                    "name": "B3",
                    "midi": 59,
                    "time": 34.02765899999999,
                    "velocity": 0.5511811023622047,
                    "duration": 0.2224029999999999
                },
                {
                    "name": "C#5",
                    "midi": 73,
                    "time": 34.25006199999999,
                    "velocity": 0.5905511811023622,
                    "duration": 0.2224029999999999
                },
                {
                    "name": "C#4",
                    "midi": 61,
                    "time": 34.25006199999999,
                    "velocity": 0.4881889763779528,
                    "duration": 0.2224029999999999
                },
                {
                    "name": "B4",
                    "midi": 71,
                    "time": 34.47246499999999,
                    "velocity": 0.5354330708661418,
                    "duration": 0.2224029999999999
                },
                {
                    "name": "B3",
                    "midi": 59,
                    "time": 34.47246499999999,
                    "velocity": 0.44881889763779526,
                    "duration": 0.2224029999999999
                },
                {
                    "name": "A4",
                    "midi": 69,
                    "time": 34.69486799999999,
                    "velocity": 0.7086614173228346,
                    "duration": 0.4448059999999998
                },
                {
                    "name": "A3",
                    "midi": 57,
                    "time": 34.69486799999999,
                    "velocity": 0.6062992125984252,
                    "duration": 0.4448059999999998
                },
                {
                    "name": "A5",
                    "midi": 81,
                    "time": 35.13967399999999,
                    "velocity": 0.6771653543307087,
                    "duration": 0.2224029999999999
                },
                {
                    "name": "A4",
                    "midi": 69,
                    "time": 35.13967399999999,
                    "velocity": 0.5748031496062992,
                    "duration": 0.2224029999999999
                },
                {
                    "name": "B5",
                    "midi": 83,
                    "time": 35.36207699999999,
                    "velocity": 0.7165354330708661,
                    "duration": 0.4448059999999998
                },
                {
                    "name": "B4",
                    "midi": 71,
                    "time": 35.36207699999999,
                    "velocity": 0.6062992125984252,
                    "duration": 0.4448059999999998
                },
                {
                    "name": "C#6",
                    "midi": 85,
                    "time": 35.80688299999999,
                    "velocity": 0.7480314960629921,
                    "duration": 0.2224029999999999
                },
                {
                    "name": "C#5",
                    "midi": 73,
                    "time": 35.80688299999999,
                    "velocity": 0.6299212598425197,
                    "duration": 0.2224029999999999
                },
                {
                    "name": "E5",
                    "midi": 76,
                    "time": 36.02928599999999,
                    "velocity": 0.6456692913385826,
                    "duration": 0.2224029999999999
                },
                {
                    "name": "C#6",
                    "midi": 85,
                    "time": 36.02928599999999,
                    "velocity": 0.7637795275590551,
                    "duration": 0.2224029999999999
                },
                {
                    "name": "E6",
                    "midi": 88,
                    "time": 36.02928599999999,
                    "velocity": 0.7637795275590551,
                    "duration": 0.2224029999999999
                },
                {
                    "name": "D5",
                    "midi": 74,
                    "time": 36.25168899999999,
                    "velocity": 0.5905511811023622,
                    "duration": 0.2224029999999999
                },
                {
                    "name": "B5",
                    "midi": 83,
                    "time": 36.25168899999999,
                    "velocity": 0.7007874015748031,
                    "duration": 0.2224029999999999
                },
                {
                    "name": "D6",
                    "midi": 86,
                    "time": 36.25168899999999,
                    "velocity": 0.7007874015748031,
                    "duration": 0.2224029999999999
                },
                {
                    "name": "C#5",
                    "midi": 73,
                    "time": 36.47409199999999,
                    "velocity": 0.5433070866141733,
                    "duration": 0.2224029999999999
                },
                {
                    "name": "A5",
                    "midi": 81,
                    "time": 36.47409199999999,
                    "velocity": 0.6456692913385826,
                    "duration": 0.2224029999999999
                },
                {
                    "name": "C#6",
                    "midi": 85,
                    "time": 36.47409199999999,
                    "velocity": 0.6456692913385826,
                    "duration": 0.2224029999999999
                },
                {
                    "name": "B4",
                    "midi": 71,
                    "time": 36.69649499999999,
                    "velocity": 0.6299212598425197,
                    "duration": 0.2224029999999999
                },
                {
                    "name": "G#5",
                    "midi": 80,
                    "time": 36.69649499999999,
                    "velocity": 0.7480314960629921,
                    "duration": 0.2224029999999999
                },
                {
                    "name": "B5",
                    "midi": 83,
                    "time": 36.69649499999999,
                    "velocity": 0.7480314960629921,
                    "duration": 0.2224029999999999
                },
                {
                    "name": "C#5",
                    "midi": 73,
                    "time": 36.91889799999999,
                    "velocity": 0.5905511811023622,
                    "duration": 0.2224029999999999
                },
                {
                    "name": "C#6",
                    "midi": 85,
                    "time": 36.91889799999999,
                    "velocity": 0.7007874015748031,
                    "duration": 0.2224029999999999
                },
                {
                    "name": "B4",
                    "midi": 71,
                    "time": 37.14130099999999,
                    "velocity": 0.5354330708661418,
                    "duration": 0.2224029999999999
                },
                {
                    "name": "B5",
                    "midi": 83,
                    "time": 37.14130099999999,
                    "velocity": 0.6299212598425197,
                    "duration": 0.2224029999999999
                },
                {
                    "name": "A4",
                    "midi": 69,
                    "time": 37.36370399999999,
                    "velocity": 0.6220472440944882,
                    "duration": 0.2224029999999999
                },
                {
                    "name": "A5",
                    "midi": 81,
                    "time": 37.36370399999999,
                    "velocity": 0.7322834645669292,
                    "duration": 0.2224029999999999
                },
                {
                    "name": "E5",
                    "midi": 76,
                    "time": 37.58610699999999,
                    "velocity": 0.6299212598425197,
                    "duration": 0.2224029999999999
                },
                {
                    "name": "G#5",
                    "midi": 80,
                    "time": 37.58610699999999,
                    "velocity": 0.6299212598425197,
                    "duration": 0.2224029999999999
                },
                {
                    "name": "D5",
                    "midi": 74,
                    "time": 37.80850999999999,
                    "velocity": 0.6062992125984252,
                    "duration": 0.2224029999999999
                },
                {
                    "name": "F#5",
                    "midi": 78,
                    "time": 37.80850999999999,
                    "velocity": 0.6062992125984252,
                    "duration": 0.2224029999999999
                },
                {
                    "name": "C#5",
                    "midi": 73,
                    "time": 38.03091299999999,
                    "velocity": 0.5669291338582677,
                    "duration": 0.2224029999999999
                },
                {
                    "name": "E5",
                    "midi": 76,
                    "time": 38.03091299999999,
                    "velocity": 0.5669291338582677,
                    "duration": 0.2224029999999999
                },
                {
                    "name": "C5",
                    "midi": 72,
                    "time": 38.25331599999999,
                    "velocity": 0.5511811023622047,
                    "duration": 0.2224029999999999
                },
                {
                    "name": "D#5",
                    "midi": 75,
                    "time": 38.25331599999999,
                    "velocity": 0.5511811023622047,
                    "duration": 0.2224029999999999
                },
                {
                    "name": "B4",
                    "midi": 71,
                    "time": 38.47571899999999,
                    "velocity": 0.5511811023622047,
                    "duration": 0.2224029999999999
                },
                {
                    "name": "D5",
                    "midi": 74,
                    "time": 38.47571899999999,
                    "velocity": 0.5511811023622047,
                    "duration": 0.2224029999999999
                },
                {
                    "name": "C#5",
                    "midi": 73,
                    "time": 38.69812199999999,
                    "velocity": 0.5826771653543307,
                    "duration": 0.11120149999999995
                },
                {
                    "name": "A4",
                    "midi": 69,
                    "time": 38.69812199999999,
                    "velocity": 0.5118110236220472,
                    "duration": 0.11120149999999995
                },
                {
                    "name": "D5",
                    "midi": 74,
                    "time": 38.92052499999999,
                    "velocity": 0.44881889763779526,
                    "duration": 0.08340112500000174
                },
                {
                    "name": "A4",
                    "midi": 69,
                    "time": 38.92052499999999,
                    "velocity": 0.3937007874015748,
                    "duration": 0.08340112500000174
                },
                {
                    "name": "C#5",
                    "midi": 73,
                    "time": 39.14292799999999,
                    "velocity": 0.4015748031496063,
                    "duration": 0.08340112500000174
                },
                {
                    "name": "A4",
                    "midi": 69,
                    "time": 39.14292799999999,
                    "velocity": 0.3543307086614173,
                    "duration": 0.08340112500000174
                },
                {
                    "name": "A4",
                    "midi": 69,
                    "time": 39.36533099999999,
                    "velocity": 0.3937007874015748,
                    "duration": 0.08340112500000174
                },
                {
                    "name": "F#4",
                    "midi": 66,
                    "time": 39.36533099999999,
                    "velocity": 0.3937007874015748,
                    "duration": 0.08340112500000174
                },
                {
                    "name": "B4",
                    "midi": 71,
                    "time": 39.36533099999999,
                    "velocity": 0.44881889763779526,
                    "duration": 0.08340112500000174
                },
                {
                    "name": "G#4",
                    "midi": 68,
                    "time": 39.81013699999999,
                    "velocity": 0.5118110236220472,
                    "duration": 0.11120149999999995
                },
                {
                    "name": "E5",
                    "midi": 76,
                    "time": 39.81013699999999,
                    "velocity": 0.5826771653543307,
                    "duration": 0.11120149999999995
                },
                {
                    "name": "A4",
                    "midi": 69,
                    "time": 40.03253999999999,
                    "velocity": 0.5275590551181102,
                    "duration": 0.2224029999999999
                },
                {
                    "name": "A5",
                    "midi": 81,
                    "time": 40.03253999999999,
                    "velocity": 0.6220472440944882,
                    "duration": 0.2224029999999999
                },
                {
                    "name": "E5",
                    "midi": 76,
                    "time": 40.25494299999999,
                    "velocity": 0.44881889763779526,
                    "duration": 0.2224029999999999
                },
                {
                    "name": "G#5",
                    "midi": 80,
                    "time": 40.25494299999999,
                    "velocity": 0.5354330708661418,
                    "duration": 0.2224029999999999
                },
                {
                    "name": "D5",
                    "midi": 74,
                    "time": 40.47734599999999,
                    "velocity": 0.4330708661417323,
                    "duration": 0.2224029999999999
                },
                {
                    "name": "F#5",
                    "midi": 78,
                    "time": 40.47734599999999,
                    "velocity": 0.5118110236220472,
                    "duration": 0.2224029999999999
                },
                {
                    "name": "C#5",
                    "midi": 73,
                    "time": 40.69974899999999,
                    "velocity": 0.4015748031496063,
                    "duration": 0.2224029999999999
                },
                {
                    "name": "E5",
                    "midi": 76,
                    "time": 40.69974899999999,
                    "velocity": 0.48031496062992124,
                    "duration": 0.2224029999999999
                },
                {
                    "name": "C5",
                    "midi": 72,
                    "time": 40.92215199999999,
                    "velocity": 0.3937007874015748,
                    "duration": 0.2224029999999999
                },
                {
                    "name": "D#5",
                    "midi": 75,
                    "time": 40.92215199999999,
                    "velocity": 0.4645669291338583,
                    "duration": 0.2224029999999999
                },
                {
                    "name": "B4",
                    "midi": 71,
                    "time": 41.14455499999999,
                    "velocity": 0.3937007874015748,
                    "duration": 0.2224029999999999
                },
                {
                    "name": "D5",
                    "midi": 74,
                    "time": 41.14455499999999,
                    "velocity": 0.4645669291338583,
                    "duration": 0.2224029999999999
                },
                {
                    "name": "C#5",
                    "midi": 73,
                    "time": 41.47815949999999,
                    "velocity": 0.3700787401574803,
                    "duration": 0.11120149999999995
                },
                {
                    "name": "D5",
                    "midi": 74,
                    "time": 41.58936099999999,
                    "velocity": 0.3700787401574803,
                    "duration": 0.11120149999999995
                },
                {
                    "name": "E5",
                    "midi": 76,
                    "time": 41.70056249999999,
                    "velocity": 0.3700787401574803,
                    "duration": 0.11120149999999995
                },
                {
                    "name": "F#5",
                    "midi": 78,
                    "time": 41.81176399999999,
                    "velocity": 0.4015748031496063,
                    "duration": 0.11120149999999995
                },
                {
                    "name": "D5",
                    "midi": 74,
                    "time": 41.92296549999999,
                    "velocity": 0.3700787401574803,
                    "duration": 0.11120149999999995
                },
                {
                    "name": "E5",
                    "midi": 76,
                    "time": 42.03416699999999,
                    "velocity": 0.3937007874015748,
                    "duration": 0.11120149999999995
                },
                {
                    "name": "F#5",
                    "midi": 78,
                    "time": 42.14536849999999,
                    "velocity": 0.3700787401574803,
                    "duration": 0.11120149999999995
                },
                {
                    "name": "G#5",
                    "midi": 80,
                    "time": 42.25656999999999,
                    "velocity": 0.3858267716535433,
                    "duration": 0.11120149999999995
                },
                {
                    "name": "E5",
                    "midi": 76,
                    "time": 42.36777149999999,
                    "velocity": 0.3700787401574803,
                    "duration": 0.11120149999999995
                },
                {
                    "name": "F#5",
                    "midi": 78,
                    "time": 42.47897299999999,
                    "velocity": 0.3937007874015748,
                    "duration": 0.11120149999999995
                },
                {
                    "name": "G#5",
                    "midi": 80,
                    "time": 42.59017449999999,
                    "velocity": 0.3700787401574803,
                    "duration": 0.11120149999999995
                },
                {
                    "name": "A5",
                    "midi": 81,
                    "time": 42.70137599999999,
                    "velocity": 0.3937007874015748,
                    "duration": 0.11120149999999995
                },
                {
                    "name": "C#6",
                    "midi": 85,
                    "time": 42.81257749999999,
                    "velocity": 0.4015748031496063,
                    "duration": 0.11120149999999995
                },
                {
                    "name": "D6",
                    "midi": 86,
                    "time": 42.92377899999999,
                    "velocity": 0.4015748031496063,
                    "duration": 0.11120149999999995
                },
                {
                    "name": "E6",
                    "midi": 88,
                    "time": 43.03498049999999,
                    "velocity": 0.3937007874015748,
                    "duration": 0.11120149999999995
                },
                {
                    "name": "F#6",
                    "midi": 90,
                    "time": 43.14618199999999,
                    "velocity": 0.4251968503937008,
                    "duration": 0.11120149999999995
                },
                {
                    "name": "D6",
                    "midi": 86,
                    "time": 43.25738349999999,
                    "velocity": 0.3779527559055118,
                    "duration": 0.11120149999999995
                },
                {
                    "name": "E6",
                    "midi": 88,
                    "time": 43.36858499999999,
                    "velocity": 0.3937007874015748,
                    "duration": 0.11120149999999995
                },
                {
                    "name": "F#6",
                    "midi": 90,
                    "time": 43.47978649999999,
                    "velocity": 0.3700787401574803,
                    "duration": 0.11120149999999995
                },
                {
                    "name": "G#6",
                    "midi": 92,
                    "time": 43.59098799999999,
                    "velocity": 0.3700787401574803,
                    "duration": 0.11120149999999995
                },
                {
                    "name": "E6",
                    "midi": 88,
                    "time": 43.70218949999999,
                    "velocity": 0.3543307086614173,
                    "duration": 0.11120149999999995
                },
                {
                    "name": "F#6",
                    "midi": 90,
                    "time": 43.81339099999999,
                    "velocity": 0.3700787401574803,
                    "duration": 0.11120149999999995
                },
                {
                    "name": "G#6",
                    "midi": 92,
                    "time": 43.92459249999999,
                    "velocity": 0.3464566929133858,
                    "duration": 0.11120149999999995
                },
                {
                    "name": "A6",
                    "midi": 93,
                    "time": 44.03579399999999,
                    "velocity": 0.4094488188976378,
                    "duration": 0.11120149999999995
                },
                {
                    "name": "E6",
                    "midi": 88,
                    "time": 44.14699549999999,
                    "velocity": 0.4094488188976378,
                    "duration": 0.11120149999999995
                },
                {
                    "name": "C#6",
                    "midi": 85,
                    "time": 44.25819699999999,
                    "velocity": 0.3779527559055118,
                    "duration": 0.11120149999999995
                },
                {
                    "name": "A5",
                    "midi": 81,
                    "time": 44.36939849999999,
                    "velocity": 0.3779527559055118,
                    "duration": 0.11120149999999995
                },
                {
                    "name": "E5",
                    "midi": 76,
                    "time": 44.48059999999999,
                    "velocity": 0.3779527559055118,
                    "duration": 0.11120149999999995
                },
                {
                    "name": "C#5",
                    "midi": 73,
                    "time": 44.59180149999999,
                    "velocity": 0.3779527559055118,
                    "duration": 0.11120149999999995
                },
                {
                    "name": "A4",
                    "midi": 69,
                    "time": 44.70300299999999,
                    "velocity": 0.36220472440944884,
                    "duration": 0.11120149999999995
                },
                {
                    "name": "E4",
                    "midi": 64,
                    "time": 44.81420449999999,
                    "velocity": 0.3543307086614173,
                    "duration": 0.11120149999999995
                },
                {
                    "name": "C#4",
                    "midi": 61,
                    "time": 44.92540599999999,
                    "velocity": 0.33858267716535434,
                    "duration": 0.11120149999999995
                },
                {
                    "name": "A3",
                    "midi": 57,
                    "time": 45.03660749999999,
                    "velocity": 0.33070866141732286,
                    "duration": 0.11120149999999995
                },
                {
                    "name": "C#4",
                    "midi": 61,
                    "time": 45.14780899999999,
                    "velocity": 0.3937007874015748,
                    "duration": 0.21128285000000346
                },
                {
                    "name": "A3",
                    "midi": 57,
                    "time": 45.25901049999999,
                    "velocity": 0.31496062992125984,
                    "duration": 0.11120150000000706
                },
                {
                    "name": "C#4",
                    "midi": 61,
                    "time": 45.370211999999995,
                    "velocity": 0.3937007874015748,
                    "duration": 0.4448059999999998
                },
                {
                    "name": "G#3",
                    "midi": 56,
                    "time": 45.481413499999995,
                    "velocity": 0.29133858267716534,
                    "duration": 0.11120149999999995
                },
                {
                    "name": "A3",
                    "midi": 57,
                    "time": 45.592614999999995,
                    "velocity": 0.33070866141732286,
                    "duration": 0.11120149999999995
                },
                {
                    "name": "F#3",
                    "midi": 54,
                    "time": 45.703816499999995,
                    "velocity": 0.2677165354330709,
                    "duration": 0.11120149999999995
                },
                {
                    "name": "F#4",
                    "midi": 66,
                    "time": 45.815017999999995,
                    "velocity": 0.4251968503937008,
                    "duration": 0.21128285000000346
                },
                {
                    "name": "C#4",
                    "midi": 61,
                    "time": 45.926219499999995,
                    "velocity": 0.30708661417322836,
                    "duration": 0.11120150000000706
                },
                {
                    "name": "F#4",
                    "midi": 66,
                    "time": 46.037421,
                    "velocity": 0.4330708661417323,
                    "duration": 0.4448059999999998
                },
                {
                    "name": "C4",
                    "midi": 60,
                    "time": 46.1486225,
                    "velocity": 0.3543307086614173,
                    "duration": 0.11120149999999995
                },
                {
                    "name": "C#4",
                    "midi": 61,
                    "time": 46.259824,
                    "velocity": 0.4330708661417323,
                    "duration": 0.11120149999999995
                },
                {
                    "name": "A3",
                    "midi": 57,
                    "time": 46.3710255,
                    "velocity": 0.36220472440944884,
                    "duration": 0.11120149999999995
                },
                {
                    "name": "A4",
                    "midi": 69,
                    "time": 46.482227,
                    "velocity": 0.5196850393700787,
                    "duration": 0.2224029999999999
                },
                {
                    "name": "F#4",
                    "midi": 66,
                    "time": 46.5934285,
                    "velocity": 0.4330708661417323,
                    "duration": 0.11120149999999995
                },
                {
                    "name": "D5",
                    "midi": 74,
                    "time": 46.70463,
                    "velocity": 0.5748031496062992,
                    "duration": 0.4448059999999998
                },
                {
                    "name": "G#4",
                    "midi": 68,
                    "time": 46.8158315,
                    "velocity": 0.4409448818897638,
                    "duration": 0.11120149999999995
                },
                {
                    "name": "A4",
                    "midi": 69,
                    "time": 46.927033,
                    "velocity": 0.48031496062992124,
                    "duration": 0.11120149999999995
                },
                {
                    "name": "F#4",
                    "midi": 66,
                    "time": 47.0382345,
                    "velocity": 0.4409448818897638,
                    "duration": 0.11120149999999995
                },
                {
                    "name": "C#5",
                    "midi": 73,
                    "time": 47.149436,
                    "velocity": 0.5354330708661418,
                    "duration": 0.2224029999999999
                },
                {
                    "name": "A4",
                    "midi": 69,
                    "time": 47.2606375,
                    "velocity": 0.3858267716535433,
                    "duration": 0.11120149999999995
                },
                {
                    "name": "C5",
                    "midi": 72,
                    "time": 47.371839,
                    "velocity": 0.5354330708661418,
                    "duration": 0.44017260416666915
                },
                {
                    "name": "G#4",
                    "midi": 68,
                    "time": 47.4830405,
                    "velocity": 0.3937007874015748,
                    "duration": 0.11120149999999995
                },
                {
                    "name": "A4",
                    "midi": 69,
                    "time": 47.594242,
                    "velocity": 0.4330708661417323,
                    "duration": 0.11120149999999995
                },
                {
                    "name": "F#4",
                    "midi": 66,
                    "time": 47.7054435,
                    "velocity": 0.3543307086614173,
                    "duration": 0.11120149999999995
                },
                {
                    "name": "C5",
                    "midi": 72,
                    "time": 47.816645,
                    "velocity": 0.4015748031496063,
                    "duration": 0.2224029999999999
                },
                {
                    "name": "A4",
                    "midi": 69,
                    "time": 47.9278465,
                    "velocity": 0.25984251968503935,
                    "duration": 0.11120149999999995
                },
                {
                    "name": "C#5",
                    "midi": 73,
                    "time": 48.039048,
                    "velocity": 0.4409448818897638,
                    "duration": 0.4448059999999998
                },
                {
                    "name": "G#4",
                    "midi": 68,
                    "time": 48.1502495,
                    "velocity": 0.33858267716535434,
                    "duration": 0.11120149999999995
                },
                {
                    "name": "C#4",
                    "midi": 61,
                    "time": 48.261451,
                    "velocity": 0.36220472440944884,
                    "duration": 0.11120149999999995
                },
                {
                    "name": "D#4",
                    "midi": 63,
                    "time": 48.3726525,
                    "velocity": 0.33070866141732286,
                    "duration": 0.11120149999999995
                },
                {
                    "name": "F4",
                    "midi": 65,
                    "time": 48.483854,
                    "velocity": 0.31496062992125984,
                    "duration": 0.11120149999999995
                },
                {
                    "name": "B4",
                    "midi": 71,
                    "time": 48.483854,
                    "velocity": 0.3937007874015748,
                    "duration": 0.18996922916666392
                },
                {
                    "name": "C#4",
                    "midi": 61,
                    "time": 48.5950555,
                    "velocity": 0.2992125984251969,
                    "duration": 0.11120149999999285
                },
                {
                    "name": "B4",
                    "midi": 71,
                    "time": 48.678456624999995,
                    "velocity": 0.33858267716535434,
                    "duration": 0.027800374999998212
                },
                {
                    "name": "F#4",
                    "midi": 66,
                    "time": 48.706256999999994,
                    "velocity": 0.3464566929133858,
                    "duration": 0.11120149999999995
                },
                {
                    "name": "A4",
                    "midi": 69,
                    "time": 48.706256999999994,
                    "velocity": 0.4330708661417323,
                    "duration": 0.11120149999999995
                },
                {
                    "name": "C#4",
                    "midi": 61,
                    "time": 48.817458499999994,
                    "velocity": 0.36220472440944884,
                    "duration": 0.11120149999999995
                },
                {
                    "name": "F4",
                    "midi": 65,
                    "time": 48.928659999999994,
                    "velocity": 0.3937007874015748,
                    "duration": 0.11120149999999995
                },
                {
                    "name": "G#4",
                    "midi": 68,
                    "time": 48.928659999999994,
                    "velocity": 0.49606299212598426,
                    "duration": 0.11120149999999995
                },
                {
                    "name": "C#4",
                    "midi": 61,
                    "time": 49.039861499999994,
                    "velocity": 0.4251968503937008,
                    "duration": 0.11120149999999995
                },
                {
                    "name": "F#4",
                    "midi": 66,
                    "time": 49.15106299999999,
                    "velocity": 0.4330708661417323,
                    "duration": 0.11120149999999995
                },
                {
                    "name": "A4",
                    "midi": 69,
                    "time": 49.15106299999999,
                    "velocity": 0.5433070866141733,
                    "duration": 0.11120149999999995
                },
                {
                    "name": "C#4",
                    "midi": 61,
                    "time": 49.26226449999999,
                    "velocity": 0.44881889763779526,
                    "duration": 0.11120149999999995
                },
                {
                    "name": "F#4",
                    "midi": 66,
                    "time": 49.37346599999999,
                    "velocity": 0.4330708661417323,
                    "duration": 0.11120149999999995
                },
                {
                    "name": "A4",
                    "midi": 69,
                    "time": 49.37346599999999,
                    "velocity": 0.5433070866141733,
                    "duration": 0.2224029999999999
                },
                {
                    "name": "C#5",
                    "midi": 73,
                    "time": 49.37346599999999,
                    "velocity": 0.5984251968503937,
                    "duration": 0.2224029999999999
                },
                {
                    "name": "D4",
                    "midi": 62,
                    "time": 49.48466749999999,
                    "velocity": 0.4251968503937008,
                    "duration": 0.11120149999999995
                },
                {
                    "name": "G#4",
                    "midi": 68,
                    "time": 49.59586899999999,
                    "velocity": 0.3779527559055118,
                    "duration": 0.11120149999999995
                },
                {
                    "name": "B4",
                    "midi": 71,
                    "time": 49.59586899999999,
                    "velocity": 0.48031496062992124,
                    "duration": 0.2224029999999999
                },
                {
                    "name": "D4",
                    "midi": 62,
                    "time": 49.70707049999999,
                    "velocity": 0.3858267716535433,
                    "duration": 0.11120149999999995
                },
                {
                    "name": "F#4",
                    "midi": 66,
                    "time": 49.81827199999999,
                    "velocity": 0.31496062992125984,
                    "duration": 0.11120149999999995
                },
                {
                    "name": "A4",
                    "midi": 69,
                    "time": 49.81827199999999,
                    "velocity": 0.3937007874015748,
                    "duration": 0.11120149999999995
                },
                {
                    "name": "D4",
                    "midi": 62,
                    "time": 49.92947349999999,
                    "velocity": 0.3228346456692913,
                    "duration": 0.11120149999999995
                },
                {
                    "name": "F#4",
                    "midi": 66,
                    "time": 50.04067499999999,
                    "velocity": 0.3464566929133858,
                    "duration": 0.11120149999999995
                },
                {
                    "name": "A4",
                    "midi": 69,
                    "time": 50.04067499999999,
                    "velocity": 0.4409448818897638,
                    "duration": 0.2224029999999999
                },
                {
                    "name": "C#4",
                    "midi": 61,
                    "time": 50.15187649999999,
                    "velocity": 0.3543307086614173,
                    "duration": 0.11120149999999995
                },
                {
                    "name": "F4",
                    "midi": 65,
                    "time": 50.26307799999999,
                    "velocity": 0.31496062992125984,
                    "duration": 0.11120149999999995
                },
                {
                    "name": "G#4",
                    "midi": 68,
                    "time": 50.26307799999999,
                    "velocity": 0.3937007874015748,
                    "duration": 0.2224029999999999
                },
                {
                    "name": "B3",
                    "midi": 59,
                    "time": 50.37427949999999,
                    "velocity": 0.33858267716535434,
                    "duration": 0.11120149999999995
                },
                {
                    "name": "C#4",
                    "midi": 61,
                    "time": 50.48548099999999,
                    "velocity": 0.3937007874015748,
                    "duration": 0.21128285000000346
                },
                {
                    "name": "A3",
                    "midi": 57,
                    "time": 50.59668249999999,
                    "velocity": 0.31496062992125984,
                    "duration": 0.11120150000000706
                },
                {
                    "name": "C#4",
                    "midi": 61,
                    "time": 50.707884,
                    "velocity": 0.4409448818897638,
                    "duration": 0.4448059999999998
                },
                {
                    "name": "G#3",
                    "midi": 56,
                    "time": 50.8190855,
                    "velocity": 0.29133858267716534,
                    "duration": 0.11120149999999995
                },
                {
                    "name": "A3",
                    "midi": 57,
                    "time": 50.930287,
                    "velocity": 0.33070866141732286,
                    "duration": 0.11120149999999995
                },
                {
                    "name": "F#3",
                    "midi": 54,
                    "time": 51.0414885,
                    "velocity": 0.2677165354330709,
                    "duration": 0.11120149999999995
                },
                {
                    "name": "F#4",
                    "midi": 66,
                    "time": 51.15269,
                    "velocity": 0.4251968503937008,
                    "duration": 0.21128285000000346
                },
                {
                    "name": "C#4",
                    "midi": 61,
                    "time": 51.2638915,
                    "velocity": 0.30708661417322836,
                    "duration": 0.11120150000000706
                },
                {
                    "name": "F#4",
                    "midi": 66,
                    "time": 51.37509300000001,
                    "velocity": 0.4330708661417323,
                    "duration": 0.4448059999999998
                },
                {
                    "name": "C4",
                    "midi": 60,
                    "time": 51.48629450000001,
                    "velocity": 0.3543307086614173,
                    "duration": 0.11120149999999995
                },
                {
                    "name": "C#4",
                    "midi": 61,
                    "time": 51.59749600000001,
                    "velocity": 0.4330708661417323,
                    "duration": 0.11120149999999995
                },
                {
                    "name": "A3",
                    "midi": 57,
                    "time": 51.70869750000001,
                    "velocity": 0.36220472440944884,
                    "duration": 0.11120149999999995
                },
                {
                    "name": "A4",
                    "midi": 69,
                    "time": 51.81989900000001,
                    "velocity": 0.5196850393700787,
                    "duration": 0.2224029999999999
                },
                {
                    "name": "F#4",
                    "midi": 66,
                    "time": 51.93110050000001,
                    "velocity": 0.4330708661417323,
                    "duration": 0.11120149999999995
                },
                {
                    "name": "D5",
                    "midi": 74,
                    "time": 52.04230200000001,
                    "velocity": 0.5748031496062992,
                    "duration": 0.4448059999999998
                },
                {
                    "name": "G#4",
                    "midi": 68,
                    "time": 52.15350350000001,
                    "velocity": 0.4409448818897638,
                    "duration": 0.11120149999999995
                },
                {
                    "name": "A4",
                    "midi": 69,
                    "time": 52.264705000000006,
                    "velocity": 0.48031496062992124,
                    "duration": 0.11120149999999995
                },
                {
                    "name": "F#4",
                    "midi": 66,
                    "time": 52.375906500000006,
                    "velocity": 0.4409448818897638,
                    "duration": 0.11120149999999995
                },
                {
                    "name": "C#5",
                    "midi": 73,
                    "time": 52.487108000000006,
                    "velocity": 0.5354330708661418,
                    "duration": 0.2224029999999999
                },
                {
                    "name": "A4",
                    "midi": 69,
                    "time": 52.598309500000006,
                    "velocity": 0.3858267716535433,
                    "duration": 0.11120149999999995
                },
                {
                    "name": "C5",
                    "midi": 72,
                    "time": 52.709511000000006,
                    "velocity": 0.5354330708661418,
                    "duration": 0.44017260416666915
                },
                {
                    "name": "G#4",
                    "midi": 68,
                    "time": 52.820712500000006,
                    "velocity": 0.3937007874015748,
                    "duration": 0.11120149999999995
                },
                {
                    "name": "A4",
                    "midi": 69,
                    "time": 52.931914000000006,
                    "velocity": 0.4330708661417323,
                    "duration": 0.11120149999999995
                },
                {
                    "name": "F#4",
                    "midi": 66,
                    "time": 53.043115500000006,
                    "velocity": 0.3543307086614173,
                    "duration": 0.11120149999999995
                },
                {
                    "name": "C5",
                    "midi": 72,
                    "time": 53.154317000000006,
                    "velocity": 0.4015748031496063,
                    "duration": 0.2224029999999999
                },
                {
                    "name": "A4",
                    "midi": 69,
                    "time": 53.265518500000006,
                    "velocity": 0.25984251968503935,
                    "duration": 0.11120149999999995
                },
                {
                    "name": "C#5",
                    "midi": 73,
                    "time": 53.376720000000006,
                    "velocity": 0.4409448818897638,
                    "duration": 0.4448059999999998
                },
                {
                    "name": "G#4",
                    "midi": 68,
                    "time": 53.487921500000006,
                    "velocity": 0.33858267716535434,
                    "duration": 0.11120149999999995
                },
                {
                    "name": "C#4",
                    "midi": 61,
                    "time": 53.599123000000006,
                    "velocity": 0.36220472440944884,
                    "duration": 0.11120149999999995
                },
                {
                    "name": "D4",
                    "midi": 62,
                    "time": 53.710324500000006,
                    "velocity": 0.33070866141732286,
                    "duration": 0.11120149999999995
                },
                {
                    "name": "E4",
                    "midi": 64,
                    "time": 53.821526000000006,
                    "velocity": 0.31496062992125984,
                    "duration": 0.11120149999999995
                },
                {
                    "name": "A#4",
                    "midi": 70,
                    "time": 53.821526000000006,
                    "velocity": 0.3937007874015748,
                    "duration": 0.11120149999999995
                },
                {
                    "name": "C#4",
                    "midi": 61,
                    "time": 53.932727500000006,
                    "velocity": 0.2992125984251969,
                    "duration": 0.11120149999999995
                },
                {
                    "name": "D4",
                    "midi": 62,
                    "time": 54.043929000000006,
                    "velocity": 0.36220472440944884,
                    "duration": 0.11120149999999995
                },
                {
                    "name": "B4",
                    "midi": 71,
                    "time": 54.043929000000006,
                    "velocity": 0.4409448818897638,
                    "duration": 0.2224029999999999
                },
                {
                    "name": "F#4",
                    "midi": 66,
                    "time": 54.155130500000006,
                    "velocity": 0.33858267716535434,
                    "duration": 0.11120149999999995
                },
                {
                    "name": "E4",
                    "midi": 64,
                    "time": 54.266332000000006,
                    "velocity": 0.36220472440944884,
                    "duration": 0.11120149999999995
                },
                {
                    "name": "D4",
                    "midi": 62,
                    "time": 54.377533500000006,
                    "velocity": 0.33070866141732286,
                    "duration": 0.11120149999999995
                },
                {
                    "name": "C#4",
                    "midi": 61,
                    "time": 54.488735000000005,
                    "velocity": 0.31496062992125984,
                    "duration": 0.11120149999999995
                },
                {
                    "name": "A#4",
                    "midi": 70,
                    "time": 54.488735000000005,
                    "velocity": 0.3937007874015748,
                    "duration": 0.2224029999999999
                },
                {
                    "name": "E4",
                    "midi": 64,
                    "time": 54.599936500000005,
                    "velocity": 0.2992125984251969,
                    "duration": 0.11120149999999995
                },
                {
                    "name": "D4",
                    "midi": 62,
                    "time": 54.711138000000005,
                    "velocity": 0.36220472440944884,
                    "duration": 0.11120149999999995
                },
                {
                    "name": "B4",
                    "midi": 71,
                    "time": 54.711138000000005,
                    "velocity": 0.4409448818897638,
                    "duration": 0.2224029999999999
                },
                {
                    "name": "F#4",
                    "midi": 66,
                    "time": 54.822339500000005,
                    "velocity": 0.33858267716535434,
                    "duration": 0.11120149999999995
                },
                {
                    "name": "A4",
                    "midi": 69,
                    "time": 54.933541000000005,
                    "velocity": 0.3937007874015748,
                    "duration": 0.11120149999999995
                },
                {
                    "name": "C#4",
                    "midi": 61,
                    "time": 54.933541000000005,
                    "velocity": 0.36220472440944884,
                    "duration": 0.11120149999999995
                },
                {
                    "name": "E4",
                    "midi": 64,
                    "time": 55.044742500000005,
                    "velocity": 0.33070866141732286,
                    "duration": 0.11120149999999995
                },
                {
                    "name": "B3",
                    "midi": 59,
                    "time": 55.155944000000005,
                    "velocity": 0.31496062992125984,
                    "duration": 0.11120149999999995
                },
                {
                    "name": "G#4",
                    "midi": 68,
                    "time": 55.155944000000005,
                    "velocity": 0.3937007874015748,
                    "duration": 0.11120149999999995
                },
                {
                    "name": "D4",
                    "midi": 62,
                    "time": 55.267145500000005,
                    "velocity": 0.2992125984251969,
                    "duration": 0.11120149999999995
                },
                {
                    "name": "A3",
                    "midi": 57,
                    "time": 55.378347000000005,
                    "velocity": 0.36220472440944884,
                    "duration": 0.11120149999999995
                },
                {
                    "name": "F#4",
                    "midi": 66,
                    "time": 55.378347000000005,
                    "velocity": 0.4409448818897638,
                    "duration": 0.2224029999999999
                },
                {
                    "name": "C#4",
                    "midi": 61,
                    "time": 55.489548500000005,
                    "velocity": 0.33858267716535434,
                    "duration": 0.11120149999999995
                },
                {
                    "name": "F4",
                    "midi": 65,
                    "time": 55.600750000000005,
                    "velocity": 0.4409448818897638,
                    "duration": 0.2224029999999999
                },
                {
                    "name": "G#3",
                    "midi": 56,
                    "time": 55.600750000000005,
                    "velocity": 0.36220472440944884,
                    "duration": 0.11120149999999995
                },
                {
                    "name": "B3",
                    "midi": 59,
                    "time": 55.711951500000005,
                    "velocity": 0.33070866141732286,
                    "duration": 0.11120149999999995
                },
                {
                    "name": "C#4",
                    "midi": 61,
                    "time": 55.823153000000005,
                    "velocity": 0.31496062992125984,
                    "duration": 0.11120149999999995
                },
                {
                    "name": "A#4",
                    "midi": 70,
                    "time": 55.823153000000005,
                    "velocity": 0.3937007874015748,
                    "duration": 0.2224029999999999
                },
                {
                    "name": "E4",
                    "midi": 64,
                    "time": 55.934354500000005,
                    "velocity": 0.2992125984251969,
                    "duration": 0.11120149999999995
                },
                {
                    "name": "D4",
                    "midi": 62,
                    "time": 56.045556000000005,
                    "velocity": 0.33858267716535434,
                    "duration": 0.11120149999999995
                },
                {
                    "name": "B4",
                    "midi": 71,
                    "time": 56.045556000000005,
                    "velocity": 0.4409448818897638,
                    "duration": 0.2224029999999999
                },
                {
                    "name": "F#4",
                    "midi": 66,
                    "time": 56.156757500000005,
                    "velocity": 0.33858267716535434,
                    "duration": 0.11120149999999995
                },
                {
                    "name": "E4",
                    "midi": 64,
                    "time": 56.267959000000005,
                    "velocity": 0.36220472440944884,
                    "duration": 0.11120149999999995
                },
                {
                    "name": "D4",
                    "midi": 62,
                    "time": 56.379160500000005,
                    "velocity": 0.33070866141732286,
                    "duration": 0.11120149999999995
                },
                {
                    "name": "C#4",
                    "midi": 61,
                    "time": 56.490362000000005,
                    "velocity": 0.31496062992125984,
                    "duration": 0.11120149999999995
                },
                {
                    "name": "A#4",
                    "midi": 70,
                    "time": 56.490362000000005,
                    "velocity": 0.3937007874015748,
                    "duration": 0.2224029999999999
                },
                {
                    "name": "E4",
                    "midi": 64,
                    "time": 56.601563500000005,
                    "velocity": 0.2992125984251969,
                    "duration": 0.11120149999999995
                },
                {
                    "name": "D4",
                    "midi": 62,
                    "time": 56.712765000000005,
                    "velocity": 0.36220472440944884,
                    "duration": 0.11120149999999995
                },
                {
                    "name": "B4",
                    "midi": 71,
                    "time": 56.712765000000005,
                    "velocity": 0.4409448818897638,
                    "duration": 0.2224029999999999
                },
                {
                    "name": "F#4",
                    "midi": 66,
                    "time": 56.823966500000004,
                    "velocity": 0.33858267716535434,
                    "duration": 0.11120149999999995
                },
                {
                    "name": "E4",
                    "midi": 64,
                    "time": 56.935168000000004,
                    "velocity": 0.36220472440944884,
                    "duration": 0.11120149999999995
                },
                {
                    "name": "D4",
                    "midi": 62,
                    "time": 57.046369500000004,
                    "velocity": 0.33070866141732286,
                    "duration": 0.11120149999999995
                },
                {
                    "name": "C#4",
                    "midi": 61,
                    "time": 57.157571000000004,
                    "velocity": 0.31496062992125984,
                    "duration": 0.11120149999999995
                },
                {
                    "name": "A#4",
                    "midi": 70,
                    "time": 57.157571000000004,
                    "velocity": 0.3937007874015748,
                    "duration": 0.2224029999999999
                },
                {
                    "name": "E4",
                    "midi": 64,
                    "time": 57.268772500000004,
                    "velocity": 0.2992125984251969,
                    "duration": 0.11120149999999995
                },
                {
                    "name": "D4",
                    "midi": 62,
                    "time": 57.379974000000004,
                    "velocity": 0.36220472440944884,
                    "duration": 0.11120149999999995
                },
                {
                    "name": "B4",
                    "midi": 71,
                    "time": 57.379974000000004,
                    "velocity": 0.4409448818897638,
                    "duration": 0.2224029999999999
                },
                {
                    "name": "F#4",
                    "midi": 66,
                    "time": 57.491175500000004,
                    "velocity": 0.33858267716535434,
                    "duration": 0.11120149999999995
                },
                {
                    "name": "A4",
                    "midi": 69,
                    "time": 57.602377000000004,
                    "velocity": 0.3937007874015748,
                    "duration": 0.11120149999999995
                },
                {
                    "name": "C#4",
                    "midi": 61,
                    "time": 57.602377000000004,
                    "velocity": 0.36220472440944884,
                    "duration": 0.11120149999999995
                },
                {
                    "name": "E4",
                    "midi": 64,
                    "time": 57.713578500000004,
                    "velocity": 0.33070866141732286,
                    "duration": 0.11120149999999995
                },
                {
                    "name": "B3",
                    "midi": 59,
                    "time": 57.824780000000004,
                    "velocity": 0.31496062992125984,
                    "duration": 0.11120149999999995
                },
                {
                    "name": "G#4",
                    "midi": 68,
                    "time": 57.824780000000004,
                    "velocity": 0.3937007874015748,
                    "duration": 0.11120149999999995
                },
                {
                    "name": "D4",
                    "midi": 62,
                    "time": 57.935981500000004,
                    "velocity": 0.2992125984251969,
                    "duration": 0.11120149999999995
                },
                {
                    "name": "A3",
                    "midi": 57,
                    "time": 58.047183000000004,
                    "velocity": 0.36220472440944884,
                    "duration": 0.11120149999999995
                },
                {
                    "name": "F#4",
                    "midi": 66,
                    "time": 58.047183000000004,
                    "velocity": 0.4409448818897638,
                    "duration": 0.2224029999999999
                },
                {
                    "name": "C#4",
                    "midi": 61,
                    "time": 58.158384500000004,
                    "velocity": 0.33858267716535434,
                    "duration": 0.11120149999999995
                },
                {
                    "name": "F4",
                    "midi": 65,
                    "time": 58.269586000000004,
                    "velocity": 0.4409448818897638,
                    "duration": 0.2224029999999999
                },
                {
                    "name": "G#3",
                    "midi": 56,
                    "time": 58.269586000000004,
                    "velocity": 0.36220472440944884,
                    "duration": 0.11120149999999995
                },
                {
                    "name": "B3",
                    "midi": 59,
                    "time": 58.380787500000004,
                    "velocity": 0.33070866141732286,
                    "duration": 0.11120149999999995
                },
                {
                    "name": "C#4",
                    "midi": 61,
                    "time": 58.491989000000004,
                    "velocity": 0.31496062992125984,
                    "duration": 0.11120149999999995
                },
                {
                    "name": "A#4",
                    "midi": 70,
                    "time": 58.491989000000004,
                    "velocity": 0.3937007874015748,
                    "duration": 0.2224029999999999
                },
                {
                    "name": "E4",
                    "midi": 64,
                    "time": 58.603190500000004,
                    "velocity": 0.2992125984251969,
                    "duration": 0.11120149999999995
                },
                {
                    "name": "D4",
                    "midi": 62,
                    "time": 58.714392000000004,
                    "velocity": 0.33858267716535434,
                    "duration": 0.11120149999999995
                },
                {
                    "name": "B4",
                    "midi": 71,
                    "time": 58.714392000000004,
                    "velocity": 0.4409448818897638,
                    "duration": 0.2224029999999999
                },
                {
                    "name": "F#4",
                    "midi": 66,
                    "time": 58.825593500000004,
                    "velocity": 0.33858267716535434,
                    "duration": 0.11120149999999995
                },
                {
                    "name": "E4",
                    "midi": 64,
                    "time": 58.936795000000004,
                    "velocity": 0.36220472440944884,
                    "duration": 0.11120149999999995
                },
                {
                    "name": "D4",
                    "midi": 62,
                    "time": 59.0479965,
                    "velocity": 0.33070866141732286,
                    "duration": 0.11120149999999995
                },
                {
                    "name": "A#4",
                    "midi": 70,
                    "time": 59.159198,
                    "velocity": 0.31496062992125984,
                    "duration": 0.11120149999999995
                },
                {
                    "name": "C#5",
                    "midi": 73,
                    "time": 59.159198,
                    "velocity": 0.3937007874015748,
                    "duration": 0.2224029999999999
                },
                {
                    "name": "F#4",
                    "midi": 66,
                    "time": 59.2703995,
                    "velocity": 0.2992125984251969,
                    "duration": 0.11120149999999995
                },
                {
                    "name": "B4",
                    "midi": 71,
                    "time": 59.381601,
                    "velocity": 0.3543307086614173,
                    "duration": 0.11120149999999995
                },
                {
                    "name": "D5",
                    "midi": 74,
                    "time": 59.381601,
                    "velocity": 0.4409448818897638,
                    "duration": 0.2224029999999999
                },
                {
                    "name": "F#4",
                    "midi": 66,
                    "time": 59.4928025,
                    "velocity": 0.33858267716535434,
                    "duration": 0.11120149999999995
                },
                {
                    "name": "C5",
                    "midi": 72,
                    "time": 59.604004,
                    "velocity": 0.3779527559055118,
                    "duration": 0.11120149999999995
                },
                {
                    "name": "D#5",
                    "midi": 75,
                    "time": 59.604004,
                    "velocity": 0.48031496062992124,
                    "duration": 0.2224029999999999
                },
                {
                    "name": "F#4",
                    "midi": 66,
                    "time": 59.7152055,
                    "velocity": 0.3779527559055118,
                    "duration": 0.11120149999999995
                },
                {
                    "name": "B4",
                    "midi": 71,
                    "time": 59.826407,
                    "velocity": 0.41732283464566927,
                    "duration": 0.11120149999999995
                },
                {
                    "name": "E5",
                    "midi": 76,
                    "time": 59.826407,
                    "velocity": 0.5196850393700787,
                    "duration": 0.2224029999999999
                },
                {
                    "name": "G#4",
                    "midi": 68,
                    "time": 59.9376085,
                    "velocity": 0.4094488188976378,
                    "duration": 0.11120149999999995
                },
                {
                    "name": "D#5",
                    "midi": 75,
                    "time": 60.04881,
                    "velocity": 0.4566929133858268,
                    "duration": 0.11120149999999995
                },
                {
                    "name": "F#5",
                    "midi": 78,
                    "time": 60.04881,
                    "velocity": 0.5669291338582677,
                    "duration": 0.2224029999999999
                },
                {
                    "name": "A4",
                    "midi": 69,
                    "time": 60.1600115,
                    "velocity": 0.44881889763779526,
                    "duration": 0.11120149999999995
                },
                {
                    "name": "E5",
                    "midi": 76,
                    "time": 60.271213,
                    "velocity": 0.4881889763779528,
                    "duration": 0.11120149999999995
                },
                {
                    "name": "G5",
                    "midi": 79,
                    "time": 60.271213,
                    "velocity": 0.6141732283464567,
                    "duration": 0.2224029999999999
                },
                {
                    "name": "B4",
                    "midi": 71,
                    "time": 60.3824145,
                    "velocity": 0.4881889763779528,
                    "duration": 0.11120149999999995
                },
                {
                    "name": "E5",
                    "midi": 76,
                    "time": 60.493616,
                    "velocity": 0.5275590551181102,
                    "duration": 0.11120149999999995
                },
                {
                    "name": "G#5",
                    "midi": 80,
                    "time": 60.493616,
                    "velocity": 0.6614173228346457,
                    "duration": 0.2224029999999999
                },
                {
                    "name": "B4",
                    "midi": 71,
                    "time": 60.6048175,
                    "velocity": 0.5196850393700787,
                    "duration": 0.11120149999999995
                },
                {
                    "name": "E5",
                    "midi": 76,
                    "time": 60.716019,
                    "velocity": 0.5748031496062992,
                    "duration": 0.11120149999999995
                },
                {
                    "name": "A5",
                    "midi": 81,
                    "time": 60.716019,
                    "velocity": 0.7165354330708661,
                    "duration": 0.2224029999999999
                },
                {
                    "name": "C#5",
                    "midi": 73,
                    "time": 60.8272205,
                    "velocity": 0.5511811023622047,
                    "duration": 0.11120149999999995
                },
                {
                    "name": "E5",
                    "midi": 76,
                    "time": 60.938422,
                    "velocity": 0.5905511811023622,
                    "duration": 0.11120149999999995
                },
                {
                    "name": "C#6",
                    "midi": 85,
                    "time": 60.938422,
                    "velocity": 0.7322834645669292,
                    "duration": 0.2224029999999999
                },
                {
                    "name": "C#5",
                    "midi": 73,
                    "time": 61.0496235,
                    "velocity": 0.5590551181102362,
                    "duration": 0.11120149999999995
                },
                {
                    "name": "E5",
                    "midi": 76,
                    "time": 61.160825,
                    "velocity": 0.5905511811023622,
                    "duration": 0.11120149999999995
                },
                {
                    "name": "B5",
                    "midi": 83,
                    "time": 61.160825,
                    "velocity": 0.7322834645669292,
                    "duration": 0.2085028125000008
                },
                {
                    "name": "C#5",
                    "midi": 73,
                    "time": 61.2720265,
                    "velocity": 0.5590551181102362,
                    "duration": 0.11120149999999995
                },
                {
                    "name": "E5",
                    "midi": 76,
                    "time": 61.383228,
                    "velocity": 0.5905511811023622,
                    "duration": 0.11120149999999995
                },
                {
                    "name": "B5",
                    "midi": 83,
                    "time": 61.383228,
                    "velocity": 0.7322834645669292,
                    "duration": 0.2224029999999999
                },
                {
                    "name": "C#5",
                    "midi": 73,
                    "time": 61.4944295,
                    "velocity": 0.5590551181102362,
                    "duration": 0.11120149999999995
                },
                {
                    "name": "E5",
                    "midi": 76,
                    "time": 61.605631,
                    "velocity": 0.5905511811023622,
                    "duration": 0.11120149999999995
                },
                {
                    "name": "A#5",
                    "midi": 82,
                    "time": 61.605631,
                    "velocity": 0.7322834645669292,
                    "duration": 0.2224029999999999
                },
                {
                    "name": "C#5",
                    "midi": 73,
                    "time": 61.7168325,
                    "velocity": 0.5590551181102362,
                    "duration": 0.11120149999999995
                },
                {
                    "name": "D5",
                    "midi": 74,
                    "time": 61.828034,
                    "velocity": 0.5905511811023622,
                    "duration": 0.11120149999999995
                },
                {
                    "name": "G5",
                    "midi": 79,
                    "time": 61.828034,
                    "velocity": 0.7322834645669292,
                    "duration": 0.2085028125000008
                },
                {
                    "name": "B4",
                    "midi": 71,
                    "time": 61.9392355,
                    "velocity": 0.49606299212598426,
                    "duration": 0.11120149999999995
                },
                {
                    "name": "C#5",
                    "midi": 73,
                    "time": 62.050437,
                    "velocity": 0.5905511811023622,
                    "duration": 0.11120149999999995
                },
                {
                    "name": "G5",
                    "midi": 79,
                    "time": 62.050437,
                    "velocity": 0.7322834645669292,
                    "duration": 0.2224029999999999
                },
                {
                    "name": "A#4",
                    "midi": 70,
                    "time": 62.1616385,
                    "velocity": 0.5354330708661418,
                    "duration": 0.11120149999999995
                },
                {
                    "name": "C#5",
                    "midi": 73,
                    "time": 62.27284,
                    "velocity": 0.5590551181102362,
                    "duration": 0.11120149999999995
                },
                {
                    "name": "F#5",
                    "midi": 78,
                    "time": 62.27284,
                    "velocity": 0.7086614173228346,
                    "duration": 0.2224029999999999
                },
                {
                    "name": "A#4",
                    "midi": 70,
                    "time": 62.3840415,
                    "velocity": 0.5118110236220472,
                    "duration": 0.11120149999999995
                },
                {
                    "name": "C#5",
                    "midi": 73,
                    "time": 62.495243,
                    "velocity": 0.5196850393700787,
                    "duration": 0.11120149999999995
                },
                {
                    "name": "E5",
                    "midi": 76,
                    "time": 62.495243,
                    "velocity": 0.6535433070866141,
                    "duration": 0.2085028125000008
                },
                {
                    "name": "G4",
                    "midi": 67,
                    "time": 62.6064445,
                    "velocity": 0.47244094488188976,
                    "duration": 0.11120149999999995
                },
                {
                    "name": "C#5",
                    "midi": 73,
                    "time": 62.717646,
                    "velocity": 0.48031496062992124,
                    "duration": 0.11120149999999995
                },
                {
                    "name": "E5",
                    "midi": 76,
                    "time": 62.717646,
                    "velocity": 0.6062992125984252,
                    "duration": 0.2224029999999999
                },
                {
                    "name": "F#4",
                    "midi": 66,
                    "time": 62.8288475,
                    "velocity": 0.4409448818897638,
                    "duration": 0.11120149999999995
                },
                {
                    "name": "C5",
                    "midi": 72,
                    "time": 62.940049,
                    "velocity": 0.44881889763779526,
                    "duration": 0.11120149999999995
                },
                {
                    "name": "D#5",
                    "midi": 75,
                    "time": 62.940049,
                    "velocity": 0.5590551181102362,
                    "duration": 0.2224029999999999
                },
                {
                    "name": "A#4",
                    "midi": 70,
                    "time": 63.0512505,
                    "velocity": 0.4015748031496063,
                    "duration": 0.11120149999999995
                },
                {
                    "name": "B4",
                    "midi": 71,
                    "time": 63.162452,
                    "velocity": 0.4094488188976378,
                    "duration": 0.11120149999999995
                },
                {
                    "name": "D5",
                    "midi": 74,
                    "time": 63.162452,
                    "velocity": 0.5196850393700787,
                    "duration": 0.2085028125000008
                },
                {
                    "name": "F4",
                    "midi": 65,
                    "time": 63.2736535,
                    "velocity": 0.3700787401574803,
                    "duration": 0.11120149999999995
                },
                {
                    "name": "B4",
                    "midi": 71,
                    "time": 63.384855,
                    "velocity": 0.3779527559055118,
                    "duration": 0.11120149999999995
                },
                {
                    "name": "D5",
                    "midi": 74,
                    "time": 63.384855,
                    "velocity": 0.47244094488188976,
                    "duration": 0.2224029999999999
                },
                {
                    "name": "E4",
                    "midi": 64,
                    "time": 63.4960565,
                    "velocity": 0.3464566929133858,
                    "duration": 0.11120149999999995
                },
                {
                    "name": "A4",
                    "midi": 69,
                    "time": 63.607258,
                    "velocity": 0.3464566929133858,
                    "duration": 0.11120149999999995
                },
                {
                    "name": "C#5",
                    "midi": 73,
                    "time": 63.607258,
                    "velocity": 0.4330708661417323,
                    "duration": 0.2224029999999999
                },
                {
                    "name": "G#4",
                    "midi": 68,
                    "time": 63.7184595,
                    "velocity": 0.30708661417322836,
                    "duration": 0.11120149999999995
                },
                {
                    "name": "A4",
                    "midi": 69,
                    "time": 63.829661,
                    "velocity": 0.31496062992125984,
                    "duration": 0.11120149999999995
                },
                {
                    "name": "C5",
                    "midi": 72,
                    "time": 63.829661,
                    "velocity": 0.3937007874015748,
                    "duration": 0.2224029999999999
                },
                {
                    "name": "F4",
                    "midi": 65,
                    "time": 63.9408625,
                    "velocity": 0.2992125984251969,
                    "duration": 0.11120149999999995
                },
                {
                    "name": "G#4",
                    "midi": 68,
                    "time": 64.052064,
                    "velocity": 0.31496062992125984,
                    "duration": 0.11120150000000706
                },
                {
                    "name": "B4",
                    "midi": 71,
                    "time": 64.052064,
                    "velocity": 0.3937007874015748,
                    "duration": 0.22240300000001412
                },
                {
                    "name": "E4",
                    "midi": 64,
                    "time": 64.16326550000001,
                    "velocity": 0.2992125984251969,
                    "duration": 0.11120150000000706
                },
                {
                    "name": "D5",
                    "midi": 74,
                    "time": 64.27446700000002,
                    "velocity": 0.5826771653543307,
                    "duration": 0.22240300000001412
                },
                {
                    "name": "B4",
                    "midi": 71,
                    "time": 64.27446700000002,
                    "velocity": 0.4881889763779528,
                    "duration": 0.11120150000000706
                },
                {
                    "name": "E4",
                    "midi": 64,
                    "time": 64.38566850000002,
                    "velocity": 0.4409448818897638,
                    "duration": 0.11120150000000706
                },
                {
                    "name": "C5",
                    "midi": 72,
                    "time": 64.49687000000003,
                    "velocity": 0.4881889763779528,
                    "duration": 0.22240300000001412
                },
                {
                    "name": "A4",
                    "midi": 69,
                    "time": 64.49687000000003,
                    "velocity": 0.4881889763779528,
                    "duration": 0.11120150000000706
                },
                {
                    "name": "E4",
                    "midi": 64,
                    "time": 64.60807150000004,
                    "velocity": 0.2992125984251969,
                    "duration": 0.11120150000000706
                },
                {
                    "name": "G#4",
                    "midi": 68,
                    "time": 64.71927300000004,
                    "velocity": 0.31496062992125984,
                    "duration": 0.11120150000000706
                },
                {
                    "name": "B4",
                    "midi": 71,
                    "time": 64.71927300000004,
                    "velocity": 0.3937007874015748,
                    "duration": 0.22240300000001412
                },
                {
                    "name": "E4",
                    "midi": 64,
                    "time": 64.83047450000005,
                    "velocity": 0.2992125984251969,
                    "duration": 0.11120150000000706
                },
                {
                    "name": "E5",
                    "midi": 76,
                    "time": 64.94167600000006,
                    "velocity": 0.5826771653543307,
                    "duration": 0.22240300000001412
                },
                {
                    "name": "B4",
                    "midi": 71,
                    "time": 64.94167600000006,
                    "velocity": 0.4881889763779528,
                    "duration": 0.11120150000000706
                },
                {
                    "name": "E4",
                    "midi": 64,
                    "time": 65.05287750000006,
                    "velocity": 0.4409448818897638,
                    "duration": 0.11120150000000706
                },
                {
                    "name": "C5",
                    "midi": 72,
                    "time": 65.16407900000007,
                    "velocity": 0.4881889763779528,
                    "duration": 0.22240300000001412
                },
                {
                    "name": "A4",
                    "midi": 69,
                    "time": 65.16407900000007,
                    "velocity": 0.4881889763779528,
                    "duration": 0.11120150000000706
                },
                {
                    "name": "E4",
                    "midi": 64,
                    "time": 65.27528050000008,
                    "velocity": 0.2992125984251969,
                    "duration": 0.11120150000000706
                },
                {
                    "name": "G#4",
                    "midi": 68,
                    "time": 65.38648200000009,
                    "velocity": 0.31496062992125984,
                    "duration": 0.11120150000000706
                },
                {
                    "name": "B4",
                    "midi": 71,
                    "time": 65.38648200000009,
                    "velocity": 0.3937007874015748,
                    "duration": 0.22240300000001412
                },
                {
                    "name": "E4",
                    "midi": 64,
                    "time": 65.4976835000001,
                    "velocity": 0.2992125984251969,
                    "duration": 0.11120150000000706
                },
                {
                    "name": "D5",
                    "midi": 74,
                    "time": 65.6088850000001,
                    "velocity": 0.5826771653543307,
                    "duration": 0.22240300000001412
                },
                {
                    "name": "B4",
                    "midi": 71,
                    "time": 65.6088850000001,
                    "velocity": 0.4881889763779528,
                    "duration": 0.11120150000000706
                },
                {
                    "name": "E4",
                    "midi": 64,
                    "time": 65.72008650000011,
                    "velocity": 0.4409448818897638,
                    "duration": 0.11120150000000706
                },
                {
                    "name": "C5",
                    "midi": 72,
                    "time": 65.83128800000011,
                    "velocity": 0.4881889763779528,
                    "duration": 0.22240300000001412
                },
                {
                    "name": "A4",
                    "midi": 69,
                    "time": 65.83128800000011,
                    "velocity": 0.4881889763779528,
                    "duration": 0.11120150000000706
                },
                {
                    "name": "E4",
                    "midi": 64,
                    "time": 65.94248950000012,
                    "velocity": 0.2992125984251969,
                    "duration": 0.11120150000000706
                },
                {
                    "name": "G#4",
                    "midi": 68,
                    "time": 66.05369100000013,
                    "velocity": 0.31496062992125984,
                    "duration": 0.11120150000000706
                },
                {
                    "name": "B4",
                    "midi": 71,
                    "time": 66.05369100000013,
                    "velocity": 0.3937007874015748,
                    "duration": 0.22240300000001412
                },
                {
                    "name": "E4",
                    "midi": 64,
                    "time": 66.16489250000014,
                    "velocity": 0.2992125984251969,
                    "duration": 0.11120150000000706
                },
                {
                    "name": "E5",
                    "midi": 76,
                    "time": 66.27609400000014,
                    "velocity": 0.5826771653543307,
                    "duration": 0.22240300000001412
                },
                {
                    "name": "B4",
                    "midi": 71,
                    "time": 66.27609400000014,
                    "velocity": 0.4881889763779528,
                    "duration": 0.11120150000000706
                },
                {
                    "name": "E4",
                    "midi": 64,
                    "time": 66.38729550000015,
                    "velocity": 0.4409448818897638,
                    "duration": 0.11120150000000706
                },
                {
                    "name": "C5",
                    "midi": 72,
                    "time": 66.49849700000016,
                    "velocity": 0.4881889763779528,
                    "duration": 0.22240300000001412
                },
                {
                    "name": "A4",
                    "midi": 69,
                    "time": 66.49849700000016,
                    "velocity": 0.4881889763779528,
                    "duration": 0.11120150000000706
                },
                {
                    "name": "E4",
                    "midi": 64,
                    "time": 66.60969850000016,
                    "velocity": 0.2992125984251969,
                    "duration": 0.11120150000000706
                },
                {
                    "name": "G#4",
                    "midi": 68,
                    "time": 66.72090000000017,
                    "velocity": 0.31496062992125984,
                    "duration": 0.11120150000000706
                },
                {
                    "name": "B4",
                    "midi": 71,
                    "time": 66.72090000000017,
                    "velocity": 0.3937007874015748,
                    "duration": 0.11120150000000706
                },
                {
                    "name": "E4",
                    "midi": 64,
                    "time": 66.83210150000018,
                    "velocity": 0.2992125984251969,
                    "duration": 0.11120150000000706
                },
                {
                    "name": "D#4",
                    "midi": 63,
                    "time": 66.94330300000018,
                    "velocity": 0.33070866141732286,
                    "duration": 0.11120150000000706
                },
                {
                    "name": "E4",
                    "midi": 64,
                    "time": 67.05450450000019,
                    "velocity": 0.2992125984251969,
                    "duration": 0.11120150000000706
                },
                {
                    "name": "G#4",
                    "midi": 68,
                    "time": 67.1657060000002,
                    "velocity": 0.33070866141732286,
                    "duration": 0.11120150000000706
                },
                {
                    "name": "E4",
                    "midi": 64,
                    "time": 67.2769075000002,
                    "velocity": 0.2992125984251969,
                    "duration": 0.11120150000000706
                },
                {
                    "name": "B4",
                    "midi": 71,
                    "time": 67.38810900000021,
                    "velocity": 0.3543307086614173,
                    "duration": 0.11120150000000706
                },
                {
                    "name": "G#4",
                    "midi": 68,
                    "time": 67.49931050000022,
                    "velocity": 0.3543307086614173,
                    "duration": 0.11120150000000706
                },
                {
                    "name": "G4",
                    "midi": 67,
                    "time": 67.61051200000023,
                    "velocity": 0.36220472440944884,
                    "duration": 0.11120150000000706
                },
                {
                    "name": "G#4",
                    "midi": 68,
                    "time": 67.72171350000023,
                    "velocity": 0.3858267716535433,
                    "duration": 0.11120150000000706
                },
                {
                    "name": "B4",
                    "midi": 71,
                    "time": 67.83291500000024,
                    "velocity": 0.3937007874015748,
                    "duration": 0.11120150000000706
                },
                {
                    "name": "G#4",
                    "midi": 68,
                    "time": 67.94411650000025,
                    "velocity": 0.4094488188976378,
                    "duration": 0.11120150000000706
                },
                {
                    "name": "D5",
                    "midi": 74,
                    "time": 68.05531800000026,
                    "velocity": 0.4251968503937008,
                    "duration": 0.11120150000000706
                },
                {
                    "name": "B4",
                    "midi": 71,
                    "time": 68.16651950000026,
                    "velocity": 0.4251968503937008,
                    "duration": 0.11120150000000706
                },
                {
                    "name": "F5",
                    "midi": 77,
                    "time": 68.27772100000027,
                    "velocity": 0.4330708661417323,
                    "duration": 0.11120150000000706
                },
                {
                    "name": "D5",
                    "midi": 74,
                    "time": 68.38892250000028,
                    "velocity": 0.4409448818897638,
                    "duration": 0.11120150000000706
                },
                {
                    "name": "G#5",
                    "midi": 80,
                    "time": 68.50012400000028,
                    "velocity": 0.4645669291338583,
                    "duration": 0.11120150000000706
                },
                {
                    "name": "F5",
                    "midi": 77,
                    "time": 68.61132550000029,
                    "velocity": 0.49606299212598426,
                    "duration": 0.11120150000000706
                },
                {
                    "name": "B5",
                    "midi": 83,
                    "time": 68.7225270000003,
                    "velocity": 0.5511811023622047,
                    "duration": 0.11120150000000706
                },
                {
                    "name": "G#5",
                    "midi": 80,
                    "time": 68.8337285000003,
                    "velocity": 0.4881889763779528,
                    "duration": 0.11120150000000706
                },
                {
                    "name": "D6",
                    "midi": 86,
                    "time": 68.94493000000031,
                    "velocity": 0.5511811023622047,
                    "duration": 0.11120150000000706
                },
                {
                    "name": "B5",
                    "midi": 83,
                    "time": 69.05613150000032,
                    "velocity": 0.4645669291338583,
                    "duration": 0.11120150000000706
                },
                {
                    "name": "A5",
                    "midi": 81,
                    "time": 69.16733300000033,
                    "velocity": 0.5118110236220472,
                    "duration": 0.11120150000000706
                },
                {
                    "name": "G#5",
                    "midi": 80,
                    "time": 69.27853450000033,
                    "velocity": 0.48031496062992124,
                    "duration": 0.11120150000000706
                },
                {
                    "name": "E6",
                    "midi": 88,
                    "time": 69.38973600000034,
                    "velocity": 0.5433070866141733,
                    "duration": 0.11120150000000706
                },
                {
                    "name": "D6",
                    "midi": 86,
                    "time": 69.50093750000035,
                    "velocity": 0.49606299212598426,
                    "duration": 0.11120150000000706
                },
                {
                    "name": "C#6",
                    "midi": 85,
                    "time": 69.61213900000035,
                    "velocity": 0.4645669291338583,
                    "duration": 0.11120150000000706
                },
                {
                    "name": "B5",
                    "midi": 83,
                    "time": 69.72334050000036,
                    "velocity": 0.4566929133858268,
                    "duration": 0.11120150000000706
                },
                {
                    "name": "A5",
                    "midi": 81,
                    "time": 69.83454200000037,
                    "velocity": 0.4409448818897638,
                    "duration": 0.11120150000000706
                },
                {
                    "name": "G#5",
                    "midi": 80,
                    "time": 69.94574350000038,
                    "velocity": 0.3858267716535433,
                    "duration": 0.11120150000000706
                },
                {
                    "name": "A5",
                    "midi": 81,
                    "time": 70.05694500000038,
                    "velocity": 0.4330708661417323,
                    "duration": 0.11120150000000706
                },
                {
                    "name": "F#5",
                    "midi": 78,
                    "time": 70.16814650000039,
                    "velocity": 0.41732283464566927,
                    "duration": 0.11120150000000706
                },
                {
                    "name": "D#5",
                    "midi": 75,
                    "time": 70.2793480000004,
                    "velocity": 0.4015748031496063,
                    "duration": 0.11120150000000706
                },
                {
                    "name": "B4",
                    "midi": 71,
                    "time": 70.3905495000004,
                    "velocity": 0.4015748031496063,
                    "duration": 0.11120150000000706
                },
                {
                    "name": "A4",
                    "midi": 69,
                    "time": 70.50175100000041,
                    "velocity": 0.3779527559055118,
                    "duration": 0.11120150000000706
                },
                {
                    "name": "F#4",
                    "midi": 66,
                    "time": 70.61295250000042,
                    "velocity": 0.36220472440944884,
                    "duration": 0.11120150000000706
                },
                {
                    "name": "D5",
                    "midi": 74,
                    "time": 70.72415400000042,
                    "velocity": 0.48031496062992124,
                    "duration": 0.11120150000000706
                },
                {
                    "name": "G#4",
                    "midi": 68,
                    "time": 70.72415400000042,
                    "velocity": 0.48031496062992124,
                    "duration": 0.11120150000000706
                },
                {
                    "name": "B4",
                    "midi": 71,
                    "time": 70.83535550000043,
                    "velocity": 0.4015748031496063,
                    "duration": 0.11120150000000706
                },
                {
                    "name": "G#4",
                    "midi": 68,
                    "time": 70.94655700000044,
                    "velocity": 0.3779527559055118,
                    "duration": 0.11120150000000706
                },
                {
                    "name": "E4",
                    "midi": 64,
                    "time": 71.05775850000045,
                    "velocity": 0.3700787401574803,
                    "duration": 0.11120150000000706
                },
                {
                    "name": "D4",
                    "midi": 62,
                    "time": 71.16896000000045,
                    "velocity": 0.36220472440944884,
                    "duration": 0.11120150000000706
                },
                {
                    "name": "B3",
                    "midi": 59,
                    "time": 71.28016150000046,
                    "velocity": 0.33858267716535434,
                    "duration": 0.11120150000000706
                },
                {
                    "name": "G4",
                    "midi": 67,
                    "time": 71.39136300000047,
                    "velocity": 0.3858267716535433,
                    "duration": 0.11120150000000706
                },
                {
                    "name": "E4",
                    "midi": 64,
                    "time": 71.50256450000047,
                    "velocity": 0.33070866141732286,
                    "duration": 0.11120150000000706
                },
                {
                    "name": "C#4",
                    "midi": 61,
                    "time": 71.61376600000048,
                    "velocity": 0.3543307086614173,
                    "duration": 0.11120150000000706
                },
                {
                    "name": "A3",
                    "midi": 57,
                    "time": 71.72496750000049,
                    "velocity": 0.36220472440944884,
                    "duration": 0.11120150000000706
                },
                {
                    "name": "G#3",
                    "midi": 56,
                    "time": 71.8361690000005,
                    "velocity": 0.3779527559055118,
                    "duration": 0.11120150000000706
                },
                {
                    "name": "G3",
                    "midi": 55,
                    "time": 71.9473705000005,
                    "velocity": 0.4094488188976378,
                    "duration": 0.11120150000000706
                },
                {
                    "name": "F#3",
                    "midi": 54,
                    "time": 72.05857200000051,
                    "velocity": 0.4251968503937008,
                    "duration": 0.11120150000000706
                },
                {
                    "name": "A#3",
                    "midi": 58,
                    "time": 72.16977350000052,
                    "velocity": 0.2992125984251969,
                    "duration": 0.11120150000000706
                },
                {
                    "name": "B3",
                    "midi": 59,
                    "time": 72.28097500000052,
                    "velocity": 0.3543307086614173,
                    "duration": 0.11120150000000706
                },
                {
                    "name": "F#3",
                    "midi": 54,
                    "time": 72.39217650000053,
                    "velocity": 0.2992125984251969,
                    "duration": 0.11120150000000706
                },
                {
                    "name": "C#4",
                    "midi": 61,
                    "time": 72.50337800000054,
                    "velocity": 0.33858267716535434,
                    "duration": 0.11120150000000706
                },
                {
                    "name": "F#3",
                    "midi": 54,
                    "time": 72.61457950000054,
                    "velocity": 0.2992125984251969,
                    "duration": 0.11120150000000706
                },
                {
                    "name": "D4",
                    "midi": 62,
                    "time": 72.72578100000055,
                    "velocity": 0.3937007874015748,
                    "duration": 0.11120150000000706
                },
                {
                    "name": "G#3",
                    "midi": 56,
                    "time": 72.83698250000056,
                    "velocity": 0.2992125984251969,
                    "duration": 0.11120150000000706
                },
                {
                    "name": "E3",
                    "midi": 52,
                    "time": 72.94818400000057,
                    "velocity": 0.33858267716535434,
                    "duration": 0.11120150000000706
                },
                {
                    "name": "G#3",
                    "midi": 56,
                    "time": 73.05938550000057,
                    "velocity": 0.2992125984251969,
                    "duration": 0.11120150000000706
                },
                {
                    "name": "D3",
                    "midi": 50,
                    "time": 73.17058700000058,
                    "velocity": 0.3543307086614173,
                    "duration": 0.11120150000000706
                },
                {
                    "name": "G#3",
                    "midi": 56,
                    "time": 73.28178850000059,
                    "velocity": 0.29133858267716534,
                    "duration": 0.11120150000000706
                },
                {
                    "name": "C#3",
                    "midi": 49,
                    "time": 73.3929900000006,
                    "velocity": 0.3543307086614173,
                    "duration": 0.11120150000000706
                },
                {
                    "name": "E3",
                    "midi": 52,
                    "time": 73.5041915000006,
                    "velocity": 0.25984251968503935,
                    "duration": 0.11120150000000706
                },
                {
                    "name": "A3",
                    "midi": 57,
                    "time": 73.61539300000061,
                    "velocity": 0.25984251968503935,
                    "duration": 0.11120150000000706
                },
                {
                    "name": "B3",
                    "midi": 59,
                    "time": 73.72659450000062,
                    "velocity": 0.25984251968503935,
                    "duration": 0.11120150000000706
                },
                {
                    "name": "C#4",
                    "midi": 61,
                    "time": 73.83779600000062,
                    "velocity": 0.25984251968503935,
                    "duration": 0.11120150000000706
                },
                {
                    "name": "E4",
                    "midi": 64,
                    "time": 73.94899750000063,
                    "velocity": 0.25984251968503935,
                    "duration": 0.11120150000000706
                },
                {
                    "name": "C#4",
                    "midi": 61,
                    "time": 74.06019900000064,
                    "velocity": 0.28346456692913385,
                    "duration": 0.11120150000000706
                },
                {
                    "name": "B3",
                    "midi": 59,
                    "time": 74.17140050000064,
                    "velocity": 0.2440944881889764,
                    "duration": 0.11120150000000706
                },
                {
                    "name": "A3",
                    "midi": 57,
                    "time": 74.28260200000065,
                    "velocity": 0.25984251968503935,
                    "duration": 0.11120150000000706
                },
                {
                    "name": "E3",
                    "midi": 52,
                    "time": 74.39380350000066,
                    "velocity": 0.25984251968503935,
                    "duration": 0.33360450000000696
                },
                {
                    "name": "E4",
                    "midi": 64,
                    "time": 74.50500500000066,
                    "velocity": 0.3937007874015748,
                    "duration": 0.2224029999999999
                },
                {
                    "name": "A4",
                    "midi": 69,
                    "time": 74.72740800000066,
                    "velocity": 0.5118110236220472,
                    "duration": 0.8896119999999996
                },
                {
                    "name": "A3",
                    "midi": 57,
                    "time": 74.72740800000066,
                    "velocity": 0.4330708661417323,
                    "duration": 0.8896119999999996
                },
                {
                    "name": "G#4",
                    "midi": 68,
                    "time": 75.61702000000066,
                    "velocity": 0.5433070866141733,
                    "duration": 0.2224029999999999
                },
                {
                    "name": "G#3",
                    "midi": 56,
                    "time": 75.61702000000066,
                    "velocity": 0.4566929133858268,
                    "duration": 0.2224029999999999
                },
                {
                    "name": "A3",
                    "midi": 57,
                    "time": 75.83942300000066,
                    "velocity": 0.4881889763779528,
                    "duration": 0.2224029999999999
                },
                {
                    "name": "A4",
                    "midi": 69,
                    "time": 75.83942300000066,
                    "velocity": 0.5826771653543307,
                    "duration": 0.2224029999999999
                },
                {
                    "name": "B4",
                    "midi": 71,
                    "time": 76.06182600000066,
                    "velocity": 0.6614173228346457,
                    "duration": 0.6672089999999997
                },
                {
                    "name": "B3",
                    "midi": 59,
                    "time": 76.06182600000066,
                    "velocity": 0.5590551181102362,
                    "duration": 0.6672089999999997
                },
                {
                    "name": "C#5",
                    "midi": 73,
                    "time": 76.72903500000066,
                    "velocity": 0.6062992125984252,
                    "duration": 0.6672089999999997
                },
                {
                    "name": "C#4",
                    "midi": 61,
                    "time": 76.72903500000066,
                    "velocity": 0.5118110236220472,
                    "duration": 0.6672089999999997
                },
                {
                    "name": "E5",
                    "midi": 76,
                    "time": 77.39624400000066,
                    "velocity": 0.7007874015748031,
                    "duration": 0.2224029999999999
                },
                {
                    "name": "C#5",
                    "midi": 73,
                    "time": 77.39624400000066,
                    "velocity": 0.7007874015748031,
                    "duration": 0.2224029999999999
                },
                {
                    "name": "E4",
                    "midi": 64,
                    "time": 77.39624400000066,
                    "velocity": 0.5905511811023622,
                    "duration": 0.2224029999999999
                },
                {
                    "name": "D5",
                    "midi": 74,
                    "time": 77.61864700000066,
                    "velocity": 0.5984251968503937,
                    "duration": 0.2224029999999999
                },
                {
                    "name": "B4",
                    "midi": 71,
                    "time": 77.61864700000066,
                    "velocity": 0.5984251968503937,
                    "duration": 0.2224029999999999
                },
                {
                    "name": "D4",
                    "midi": 62,
                    "time": 77.61864700000066,
                    "velocity": 0.49606299212598426,
                    "duration": 0.2224029999999999
                },
                {
                    "name": "C#5",
                    "midi": 73,
                    "time": 77.84105000000066,
                    "velocity": 0.5511811023622047,
                    "duration": 0.2224029999999999
                },
                {
                    "name": "A4",
                    "midi": 69,
                    "time": 77.84105000000066,
                    "velocity": 0.5511811023622047,
                    "duration": 0.2224029999999999
                },
                {
                    "name": "C#4",
                    "midi": 61,
                    "time": 77.84105000000066,
                    "velocity": 0.4645669291338583,
                    "duration": 0.2224029999999999
                },
                {
                    "name": "B4",
                    "midi": 71,
                    "time": 78.06345300000066,
                    "velocity": 0.6456692913385826,
                    "duration": 0.2224029999999999
                },
                {
                    "name": "G#4",
                    "midi": 68,
                    "time": 78.06345300000066,
                    "velocity": 0.6456692913385826,
                    "duration": 0.2224029999999999
                },
                {
                    "name": "B3",
                    "midi": 59,
                    "time": 78.06345300000066,
                    "velocity": 0.5511811023622047,
                    "duration": 0.2224029999999999
                },
                {
                    "name": "C#5",
                    "midi": 73,
                    "time": 78.28585600000066,
                    "velocity": 0.5905511811023622,
                    "duration": 0.2224029999999999
                },
                {
                    "name": "C#4",
                    "midi": 61,
                    "time": 78.28585600000066,
                    "velocity": 0.4881889763779528,
                    "duration": 0.2224029999999999
                },
                {
                    "name": "B4",
                    "midi": 71,
                    "time": 78.50825900000066,
                    "velocity": 0.5354330708661418,
                    "duration": 0.2224029999999999
                },
                {
                    "name": "B3",
                    "midi": 59,
                    "time": 78.50825900000066,
                    "velocity": 0.44881889763779526,
                    "duration": 0.2224029999999999
                },
                {
                    "name": "A4",
                    "midi": 69,
                    "time": 78.73066200000066,
                    "velocity": 0.7086614173228346,
                    "duration": 0.4448059999999998
                },
                {
                    "name": "A3",
                    "midi": 57,
                    "time": 78.73066200000066,
                    "velocity": 0.6062992125984252,
                    "duration": 0.4448059999999998
                },
                {
                    "name": "A5",
                    "midi": 81,
                    "time": 79.17546800000066,
                    "velocity": 0.6771653543307087,
                    "duration": 0.2224029999999999
                },
                {
                    "name": "A4",
                    "midi": 69,
                    "time": 79.17546800000066,
                    "velocity": 0.5748031496062992,
                    "duration": 0.2224029999999999
                },
                {
                    "name": "B5",
                    "midi": 83,
                    "time": 79.39787100000066,
                    "velocity": 0.7165354330708661,
                    "duration": 0.4448059999999998
                },
                {
                    "name": "B4",
                    "midi": 71,
                    "time": 79.39787100000066,
                    "velocity": 0.6062992125984252,
                    "duration": 0.4448059999999998
                },
                {
                    "name": "C#6",
                    "midi": 85,
                    "time": 79.84267700000066,
                    "velocity": 0.7480314960629921,
                    "duration": 0.2224029999999999
                },
                {
                    "name": "C#5",
                    "midi": 73,
                    "time": 79.84267700000066,
                    "velocity": 0.6299212598425197,
                    "duration": 0.2224029999999999
                },
                {
                    "name": "E5",
                    "midi": 76,
                    "time": 80.06508000000066,
                    "velocity": 0.6456692913385826,
                    "duration": 0.2224029999999999
                },
                {
                    "name": "C#6",
                    "midi": 85,
                    "time": 80.06508000000066,
                    "velocity": 0.7637795275590551,
                    "duration": 0.2224029999999999
                },
                {
                    "name": "E6",
                    "midi": 88,
                    "time": 80.06508000000066,
                    "velocity": 0.7637795275590551,
                    "duration": 0.2224029999999999
                },
                {
                    "name": "D5",
                    "midi": 74,
                    "time": 80.28748300000066,
                    "velocity": 0.5905511811023622,
                    "duration": 0.2224029999999999
                },
                {
                    "name": "B5",
                    "midi": 83,
                    "time": 80.28748300000066,
                    "velocity": 0.7007874015748031,
                    "duration": 0.2224029999999999
                },
                {
                    "name": "D6",
                    "midi": 86,
                    "time": 80.28748300000066,
                    "velocity": 0.7007874015748031,
                    "duration": 0.2224029999999999
                },
                {
                    "name": "C#5",
                    "midi": 73,
                    "time": 80.50988600000066,
                    "velocity": 0.5433070866141733,
                    "duration": 0.2224029999999999
                },
                {
                    "name": "A5",
                    "midi": 81,
                    "time": 80.50988600000066,
                    "velocity": 0.6456692913385826,
                    "duration": 0.2224029999999999
                },
                {
                    "name": "C#6",
                    "midi": 85,
                    "time": 80.50988600000066,
                    "velocity": 0.6456692913385826,
                    "duration": 0.2224029999999999
                },
                {
                    "name": "B4",
                    "midi": 71,
                    "time": 80.73228900000066,
                    "velocity": 0.6299212598425197,
                    "duration": 0.2224029999999999
                },
                {
                    "name": "G#5",
                    "midi": 80,
                    "time": 80.73228900000066,
                    "velocity": 0.7480314960629921,
                    "duration": 0.2224029999999999
                },
                {
                    "name": "B5",
                    "midi": 83,
                    "time": 80.73228900000066,
                    "velocity": 0.7480314960629921,
                    "duration": 0.2224029999999999
                },
                {
                    "name": "C#5",
                    "midi": 73,
                    "time": 80.95469200000066,
                    "velocity": 0.5905511811023622,
                    "duration": 0.2224029999999999
                },
                {
                    "name": "C#6",
                    "midi": 85,
                    "time": 80.95469200000066,
                    "velocity": 0.7007874015748031,
                    "duration": 0.2224029999999999
                },
                {
                    "name": "B4",
                    "midi": 71,
                    "time": 81.17709500000066,
                    "velocity": 0.5354330708661418,
                    "duration": 0.2224029999999999
                },
                {
                    "name": "B5",
                    "midi": 83,
                    "time": 81.17709500000066,
                    "velocity": 0.6299212598425197,
                    "duration": 0.2224029999999999
                },
                {
                    "name": "A4",
                    "midi": 69,
                    "time": 81.39949800000066,
                    "velocity": 0.6220472440944882,
                    "duration": 0.2224029999999999
                },
                {
                    "name": "A5",
                    "midi": 81,
                    "time": 81.39949800000066,
                    "velocity": 0.7322834645669292,
                    "duration": 0.2224029999999999
                },
                {
                    "name": "E5",
                    "midi": 76,
                    "time": 81.62190100000066,
                    "velocity": 0.6299212598425197,
                    "duration": 0.2224029999999999
                },
                {
                    "name": "G#5",
                    "midi": 80,
                    "time": 81.62190100000066,
                    "velocity": 0.6299212598425197,
                    "duration": 0.2224029999999999
                },
                {
                    "name": "D5",
                    "midi": 74,
                    "time": 81.84430400000066,
                    "velocity": 0.6062992125984252,
                    "duration": 0.2224029999999999
                },
                {
                    "name": "F#5",
                    "midi": 78,
                    "time": 81.84430400000066,
                    "velocity": 0.6062992125984252,
                    "duration": 0.2224029999999999
                },
                {
                    "name": "C#5",
                    "midi": 73,
                    "time": 82.06670700000066,
                    "velocity": 0.5669291338582677,
                    "duration": 0.2224029999999999
                },
                {
                    "name": "E5",
                    "midi": 76,
                    "time": 82.06670700000066,
                    "velocity": 0.5669291338582677,
                    "duration": 0.2224029999999999
                },
                {
                    "name": "C5",
                    "midi": 72,
                    "time": 82.28911000000066,
                    "velocity": 0.5511811023622047,
                    "duration": 0.2224029999999999
                },
                {
                    "name": "D#5",
                    "midi": 75,
                    "time": 82.28911000000066,
                    "velocity": 0.5511811023622047,
                    "duration": 0.2224029999999999
                },
                {
                    "name": "B4",
                    "midi": 71,
                    "time": 82.51151300000066,
                    "velocity": 0.5511811023622047,
                    "duration": 0.2224029999999999
                },
                {
                    "name": "D5",
                    "midi": 74,
                    "time": 82.51151300000066,
                    "velocity": 0.5511811023622047,
                    "duration": 0.2224029999999999
                },
                {
                    "name": "C#5",
                    "midi": 73,
                    "time": 82.73391600000066,
                    "velocity": 0.5826771653543307,
                    "duration": 0.11120150000000706
                },
                {
                    "name": "A4",
                    "midi": 69,
                    "time": 82.73391600000066,
                    "velocity": 0.5118110236220472,
                    "duration": 0.11120150000000706
                },
                {
                    "name": "D5",
                    "midi": 74,
                    "time": 82.95631900000068,
                    "velocity": 0.44881889763779526,
                    "duration": 0.08340112499999464
                },
                {
                    "name": "A4",
                    "midi": 69,
                    "time": 82.95631900000068,
                    "velocity": 0.3937007874015748,
                    "duration": 0.08340112499999464
                },
                {
                    "name": "C#5",
                    "midi": 73,
                    "time": 83.17872200000068,
                    "velocity": 0.4015748031496063,
                    "duration": 0.08340112499999464
                },
                {
                    "name": "A4",
                    "midi": 69,
                    "time": 83.17872200000068,
                    "velocity": 0.3543307086614173,
                    "duration": 0.08340112499999464
                },
                {
                    "name": "A4",
                    "midi": 69,
                    "time": 83.40112500000068,
                    "velocity": 0.3937007874015748,
                    "duration": 0.08340112499999464
                },
                {
                    "name": "F#4",
                    "midi": 66,
                    "time": 83.40112500000068,
                    "velocity": 0.3937007874015748,
                    "duration": 0.08340112499999464
                },
                {
                    "name": "B4",
                    "midi": 71,
                    "time": 83.40112500000068,
                    "velocity": 0.44881889763779526,
                    "duration": 0.08340112499999464
                },
                {
                    "name": "G#4",
                    "midi": 68,
                    "time": 83.84593100000068,
                    "velocity": 0.5118110236220472,
                    "duration": 0.11120150000000706
                },
                {
                    "name": "E5",
                    "midi": 76,
                    "time": 83.84593100000068,
                    "velocity": 0.5826771653543307,
                    "duration": 0.11120150000000706
                },
                {
                    "name": "A4",
                    "midi": 69,
                    "time": 84.06833400000069,
                    "velocity": 0.5275590551181102,
                    "duration": 0.2224029999999999
                },
                {
                    "name": "A5",
                    "midi": 81,
                    "time": 84.06833400000069,
                    "velocity": 0.6220472440944882,
                    "duration": 0.2224029999999999
                },
                {
                    "name": "E5",
                    "midi": 76,
                    "time": 84.29073700000069,
                    "velocity": 0.44881889763779526,
                    "duration": 0.2224029999999999
                },
                {
                    "name": "G#5",
                    "midi": 80,
                    "time": 84.29073700000069,
                    "velocity": 0.5354330708661418,
                    "duration": 0.2224029999999999
                },
                {
                    "name": "D5",
                    "midi": 74,
                    "time": 84.51314000000069,
                    "velocity": 0.4330708661417323,
                    "duration": 0.2224029999999999
                },
                {
                    "name": "F#5",
                    "midi": 78,
                    "time": 84.51314000000069,
                    "velocity": 0.5118110236220472,
                    "duration": 0.2224029999999999
                },
                {
                    "name": "C#5",
                    "midi": 73,
                    "time": 84.73554300000069,
                    "velocity": 0.4015748031496063,
                    "duration": 0.2224029999999999
                },
                {
                    "name": "E5",
                    "midi": 76,
                    "time": 84.73554300000069,
                    "velocity": 0.48031496062992124,
                    "duration": 0.2224029999999999
                },
                {
                    "name": "C5",
                    "midi": 72,
                    "time": 84.95794600000069,
                    "velocity": 0.3937007874015748,
                    "duration": 0.2224029999999999
                },
                {
                    "name": "D#5",
                    "midi": 75,
                    "time": 84.95794600000069,
                    "velocity": 0.4645669291338583,
                    "duration": 0.2224029999999999
                },
                {
                    "name": "B4",
                    "midi": 71,
                    "time": 85.18034900000069,
                    "velocity": 0.3937007874015748,
                    "duration": 0.2224029999999999
                },
                {
                    "name": "D5",
                    "midi": 74,
                    "time": 85.18034900000069,
                    "velocity": 0.4645669291338583,
                    "duration": 0.2224029999999999
                },
                {
                    "name": "C#5",
                    "midi": 73,
                    "time": 85.5139535000007,
                    "velocity": 0.3700787401574803,
                    "duration": 0.11120150000000706
                },
                {
                    "name": "D5",
                    "midi": 74,
                    "time": 85.6251550000007,
                    "velocity": 0.3700787401574803,
                    "duration": 0.11120150000000706
                },
                {
                    "name": "E5",
                    "midi": 76,
                    "time": 85.73635650000071,
                    "velocity": 0.3700787401574803,
                    "duration": 0.11120150000000706
                },
                {
                    "name": "F#5",
                    "midi": 78,
                    "time": 85.84755800000072,
                    "velocity": 0.4015748031496063,
                    "duration": 0.11120150000000706
                },
                {
                    "name": "D5",
                    "midi": 74,
                    "time": 85.95875950000072,
                    "velocity": 0.3700787401574803,
                    "duration": 0.11120150000000706
                },
                {
                    "name": "E5",
                    "midi": 76,
                    "time": 86.06996100000073,
                    "velocity": 0.3937007874015748,
                    "duration": 0.11120150000000706
                },
                {
                    "name": "F#5",
                    "midi": 78,
                    "time": 86.18116250000074,
                    "velocity": 0.3700787401574803,
                    "duration": 0.11120150000000706
                },
                {
                    "name": "G#5",
                    "midi": 80,
                    "time": 86.29236400000075,
                    "velocity": 0.3858267716535433,
                    "duration": 0.11120150000000706
                },
                {
                    "name": "E5",
                    "midi": 76,
                    "time": 86.40356550000075,
                    "velocity": 0.3700787401574803,
                    "duration": 0.11120150000000706
                },
                {
                    "name": "F#5",
                    "midi": 78,
                    "time": 86.51476700000076,
                    "velocity": 0.3937007874015748,
                    "duration": 0.11120150000000706
                },
                {
                    "name": "G#5",
                    "midi": 80,
                    "time": 86.62596850000077,
                    "velocity": 0.3700787401574803,
                    "duration": 0.11120150000000706
                },
                {
                    "name": "A5",
                    "midi": 81,
                    "time": 86.73717000000077,
                    "velocity": 0.3937007874015748,
                    "duration": 0.11120150000000706
                },
                {
                    "name": "C#6",
                    "midi": 85,
                    "time": 86.84837150000078,
                    "velocity": 0.4015748031496063,
                    "duration": 0.11120150000000706
                },
                {
                    "name": "D6",
                    "midi": 86,
                    "time": 86.95957300000079,
                    "velocity": 0.4015748031496063,
                    "duration": 0.11120150000000706
                },
                {
                    "name": "E6",
                    "midi": 88,
                    "time": 87.0707745000008,
                    "velocity": 0.3937007874015748,
                    "duration": 0.11120150000000706
                },
                {
                    "name": "F#6",
                    "midi": 90,
                    "time": 87.1819760000008,
                    "velocity": 0.4251968503937008,
                    "duration": 0.11120150000000706
                },
                {
                    "name": "D6",
                    "midi": 86,
                    "time": 87.29317750000081,
                    "velocity": 0.3779527559055118,
                    "duration": 0.11120150000000706
                },
                {
                    "name": "E6",
                    "midi": 88,
                    "time": 87.40437900000082,
                    "velocity": 0.3937007874015748,
                    "duration": 0.11120150000000706
                },
                {
                    "name": "F#6",
                    "midi": 90,
                    "time": 87.51558050000082,
                    "velocity": 0.3700787401574803,
                    "duration": 0.11120150000000706
                },
                {
                    "name": "G#6",
                    "midi": 92,
                    "time": 87.62678200000083,
                    "velocity": 0.3700787401574803,
                    "duration": 0.11120150000000706
                },
                {
                    "name": "E6",
                    "midi": 88,
                    "time": 87.73798350000084,
                    "velocity": 0.3543307086614173,
                    "duration": 0.11120150000000706
                },
                {
                    "name": "F#6",
                    "midi": 90,
                    "time": 87.84918500000084,
                    "velocity": 0.3700787401574803,
                    "duration": 0.11120150000000706
                },
                {
                    "name": "G#6",
                    "midi": 92,
                    "time": 87.96038650000085,
                    "velocity": 0.3464566929133858,
                    "duration": 0.11120150000000706
                },
                {
                    "name": "A6",
                    "midi": 93,
                    "time": 88.07158800000086,
                    "velocity": 0.4094488188976378,
                    "duration": 0.11120150000000706
                },
                {
                    "name": "E6",
                    "midi": 88,
                    "time": 88.18278950000087,
                    "velocity": 0.4094488188976378,
                    "duration": 0.11120150000000706
                },
                {
                    "name": "C#6",
                    "midi": 85,
                    "time": 88.29399100000087,
                    "velocity": 0.3779527559055118,
                    "duration": 0.11120150000000706
                },
                {
                    "name": "A5",
                    "midi": 81,
                    "time": 88.40519250000088,
                    "velocity": 0.3779527559055118,
                    "duration": 0.11120150000000706
                },
                {
                    "name": "E5",
                    "midi": 76,
                    "time": 88.51639400000089,
                    "velocity": 0.3779527559055118,
                    "duration": 0.11120150000000706
                },
                {
                    "name": "C#5",
                    "midi": 73,
                    "time": 88.6275955000009,
                    "velocity": 0.3779527559055118,
                    "duration": 0.11120150000000706
                },
                {
                    "name": "A4",
                    "midi": 69,
                    "time": 88.7387970000009,
                    "velocity": 0.36220472440944884,
                    "duration": 0.11120150000000706
                },
                {
                    "name": "E4",
                    "midi": 64,
                    "time": 88.84999850000091,
                    "velocity": 0.3543307086614173,
                    "duration": 0.11120150000000706
                },
                {
                    "name": "C#4",
                    "midi": 61,
                    "time": 88.96120000000091,
                    "velocity": 0.33858267716535434,
                    "duration": 0.11120150000000706
                },
                {
                    "name": "A3",
                    "midi": 57,
                    "time": 89.07240150000092,
                    "velocity": 0.33070866141732286,
                    "duration": 0.11120150000000706
                },
                {
                    "name": "E3",
                    "midi": 52,
                    "time": 89.40600600000093,
                    "velocity": 0.4409448818897638,
                    "duration": 0.44480600000002823
                },
                {
                    "name": "B2",
                    "midi": 47,
                    "time": 89.51720750000094,
                    "velocity": 0.29133858267716534,
                    "duration": 0.11120150000000706
                },
                {
                    "name": "C3",
                    "midi": 48,
                    "time": 89.62840900000094,
                    "velocity": 0.33070866141732286,
                    "duration": 0.11120150000000706
                },
                {
                    "name": "A2",
                    "midi": 45,
                    "time": 89.73961050000095,
                    "velocity": 0.2677165354330709,
                    "duration": 0.11120150000000706
                },
                {
                    "name": "A3",
                    "midi": 57,
                    "time": 89.85081200000096,
                    "velocity": 0.4251968503937008,
                    "duration": 0.21128285000000346
                },
                {
                    "name": "E3",
                    "midi": 52,
                    "time": 89.96201350000096,
                    "velocity": 0.30708661417322836,
                    "duration": 0.11120149999999285
                },
                {
                    "name": "A3",
                    "midi": 57,
                    "time": 90.07321500000096,
                    "velocity": 0.4330708661417323,
                    "duration": 0.44480600000002823
                },
                {
                    "name": "D#3",
                    "midi": 51,
                    "time": 90.18441650000096,
                    "velocity": 0.3543307086614173,
                    "duration": 0.11120150000000706
                },
                {
                    "name": "E3",
                    "midi": 52,
                    "time": 90.29561800000097,
                    "velocity": 0.4330708661417323,
                    "duration": 0.11120150000000706
                },
                {
                    "name": "C3",
                    "midi": 48,
                    "time": 90.40681950000098,
                    "velocity": 0.36220472440944884,
                    "duration": 0.11120150000000706
                },
                {
                    "name": "C4",
                    "midi": 60,
                    "time": 90.51802100000099,
                    "velocity": 0.5196850393700787,
                    "duration": 0.22240300000001412
                },
                {
                    "name": "A3",
                    "midi": 57,
                    "time": 90.62922250000099,
                    "velocity": 0.4330708661417323,
                    "duration": 0.11120150000000706
                },
                {
                    "name": "F4",
                    "midi": 65,
                    "time": 90.740424000001,
                    "velocity": 0.5748031496062992,
                    "duration": 0.44480600000002823
                },
                {
                    "name": "B3",
                    "midi": 59,
                    "time": 90.851625500001,
                    "velocity": 0.4409448818897638,
                    "duration": 0.11120150000000706
                },
                {
                    "name": "C4",
                    "midi": 60,
                    "time": 90.96282700000101,
                    "velocity": 0.48031496062992124,
                    "duration": 0.11120150000000706
                },
                {
                    "name": "A3",
                    "midi": 57,
                    "time": 91.07402850000102,
                    "velocity": 0.4409448818897638,
                    "duration": 0.11120150000000706
                },
                {
                    "name": "E4",
                    "midi": 64,
                    "time": 91.18523000000103,
                    "velocity": 0.5354330708661418,
                    "duration": 0.22240300000001412
                },
                {
                    "name": "C4",
                    "midi": 60,
                    "time": 91.29643150000103,
                    "velocity": 0.3858267716535433,
                    "duration": 0.11120150000000706
                },
                {
                    "name": "D#4",
                    "midi": 63,
                    "time": 91.40763300000104,
                    "velocity": 0.5354330708661418,
                    "duration": 0.44017260416669046
                },
                {
                    "name": "B3",
                    "midi": 59,
                    "time": 91.51883450000105,
                    "velocity": 0.3937007874015748,
                    "duration": 0.11120150000000706
                },
                {
                    "name": "C4",
                    "midi": 60,
                    "time": 91.63003600000106,
                    "velocity": 0.4330708661417323,
                    "duration": 0.11120150000000706
                },
                {
                    "name": "A3",
                    "midi": 57,
                    "time": 91.74123750000106,
                    "velocity": 0.3543307086614173,
                    "duration": 0.11120150000000706
                },
                {
                    "name": "D#4",
                    "midi": 63,
                    "time": 91.85243900000107,
                    "velocity": 0.4015748031496063,
                    "duration": 0.22240300000001412
                },
                {
                    "name": "C4",
                    "midi": 60,
                    "time": 91.96364050000108,
                    "velocity": 0.25984251968503935,
                    "duration": 0.11120150000000706
                },
                {
                    "name": "E4",
                    "midi": 64,
                    "time": 92.07484200000108,
                    "velocity": 0.3543307086614173,
                    "duration": 0.2224029999999999
                },
                {
                    "name": "E3",
                    "midi": 52,
                    "time": 92.40844650000109,
                    "velocity": 0.30708661417322836,
                    "duration": 0.11120150000000706
                },
                {
                    "name": "B3",
                    "midi": 59,
                    "time": 92.5196480000011,
                    "velocity": 0.31496062992125984,
                    "duration": 0.11120150000000706
                },
                {
                    "name": "D#4",
                    "midi": 63,
                    "time": 92.6308495000011,
                    "velocity": 0.33070866141732286,
                    "duration": 0.11120150000000706
                },
                {
                    "name": "E4",
                    "midi": 64,
                    "time": 92.74205100000111,
                    "velocity": 0.3464566929133858,
                    "duration": 0.2224029999999999
                },
                {
                    "name": "E4",
                    "midi": 64,
                    "time": 93.07565550000112,
                    "velocity": 0.33858267716535434,
                    "duration": 0.11120150000000706
                },
                {
                    "name": "B4",
                    "midi": 71,
                    "time": 93.18685700000113,
                    "velocity": 0.3779527559055118,
                    "duration": 0.11120150000000706
                },
                {
                    "name": "D#5",
                    "midi": 75,
                    "time": 93.29805850000113,
                    "velocity": 0.3937007874015748,
                    "duration": 0.11120150000000706
                },
                {
                    "name": "E5",
                    "midi": 76,
                    "time": 93.40926000000114,
                    "velocity": 0.4094488188976378,
                    "duration": 0.2224029999999999
                },
                {
                    "name": "E6",
                    "midi": 88,
                    "time": 93.74286450000115,
                    "velocity": 0.4566929133858268,
                    "duration": 0.11120150000000706
                },
                {
                    "name": "C#6",
                    "midi": 85,
                    "time": 93.85406600000115,
                    "velocity": 0.44881889763779526,
                    "duration": 0.11120150000000706
                },
                {
                    "name": "A#5",
                    "midi": 82,
                    "time": 93.96526750000116,
                    "velocity": 0.4330708661417323,
                    "duration": 0.11120150000000706
                },
                {
                    "name": "G5",
                    "midi": 79,
                    "time": 94.07646900000117,
                    "velocity": 0.4251968503937008,
                    "duration": 0.11120150000000706
                },
                {
                    "name": "E5",
                    "midi": 76,
                    "time": 94.18767050000118,
                    "velocity": 0.4251968503937008,
                    "duration": 0.11120150000000706
                },
                {
                    "name": "C#5",
                    "midi": 73,
                    "time": 94.29887200000118,
                    "velocity": 0.4251968503937008,
                    "duration": 0.11120150000000706
                },
                {
                    "name": "A#4",
                    "midi": 70,
                    "time": 94.41007350000119,
                    "velocity": 0.41732283464566927,
                    "duration": 0.11120150000000706
                },
                {
                    "name": "F#4",
                    "midi": 66,
                    "time": 94.5212750000012,
                    "velocity": 0.3937007874015748,
                    "duration": 0.11120150000000706
                },
                {
                    "name": "D4",
                    "midi": 62,
                    "time": 94.6324765000012,
                    "velocity": 0.36220472440944884,
                    "duration": 0.11120150000000706
                },
                {
                    "name": "F#4",
                    "midi": 66,
                    "time": 94.74367800000121,
                    "velocity": 0.4409448818897638,
                    "duration": 0.44480600000002823
                },
                {
                    "name": "C#4",
                    "midi": 61,
                    "time": 94.85487950000122,
                    "velocity": 0.29133858267716534,
                    "duration": 0.11120150000000706
                },
                {
                    "name": "D4",
                    "midi": 62,
                    "time": 94.96608100000122,
                    "velocity": 0.33070866141732286,
                    "duration": 0.11120150000000706
                },
                {
                    "name": "B3",
                    "midi": 59,
                    "time": 95.07728250000123,
                    "velocity": 0.2677165354330709,
                    "duration": 0.11120150000000706
                },
                {
                    "name": "B4",
                    "midi": 71,
                    "time": 95.18848400000124,
                    "velocity": 0.4251968503937008,
                    "duration": 0.21128285000000346
                },
                {
                    "name": "F#4",
                    "midi": 66,
                    "time": 95.29968550000125,
                    "velocity": 0.30708661417322836,
                    "duration": 0.11120149999999285
                },
                {
                    "name": "B4",
                    "midi": 71,
                    "time": 95.41088700000124,
                    "velocity": 0.4330708661417323,
                    "duration": 0.44480600000002823
                },
                {
                    "name": "F4",
                    "midi": 65,
                    "time": 95.52208850000125,
                    "velocity": 0.3543307086614173,
                    "duration": 0.11120150000000706
                },
                {
                    "name": "F#4",
                    "midi": 66,
                    "time": 95.63329000000125,
                    "velocity": 0.4330708661417323,
                    "duration": 0.11120150000000706
                },
                {
                    "name": "D4",
                    "midi": 62,
                    "time": 95.74449150000126,
                    "velocity": 0.36220472440944884,
                    "duration": 0.11120150000000706
                },
                {
                    "name": "D5",
                    "midi": 74,
                    "time": 95.85569300000127,
                    "velocity": 0.5196850393700787,
                    "duration": 0.22240300000001412
                },
                {
                    "name": "B4",
                    "midi": 71,
                    "time": 95.96689450000127,
                    "velocity": 0.4330708661417323,
                    "duration": 0.11120150000000706
                },
                {
                    "name": "G5",
                    "midi": 79,
                    "time": 96.07809600000128,
                    "velocity": 0.5748031496062992,
                    "duration": 0.44480600000002823
                },
                {
                    "name": "C#5",
                    "midi": 73,
                    "time": 96.18929750000129,
                    "velocity": 0.4409448818897638,
                    "duration": 0.11120150000000706
                },
                {
                    "name": "D5",
                    "midi": 74,
                    "time": 96.3004990000013,
                    "velocity": 0.48031496062992124,
                    "duration": 0.11120150000000706
                },
                {
                    "name": "B4",
                    "midi": 71,
                    "time": 96.4117005000013,
                    "velocity": 0.4409448818897638,
                    "duration": 0.11120150000000706
                },
                {
                    "name": "F#5",
                    "midi": 78,
                    "time": 96.52290200000131,
                    "velocity": 0.5354330708661418,
                    "duration": 0.22240300000001412
                },
                {
                    "name": "D5",
                    "midi": 74,
                    "time": 96.63410350000132,
                    "velocity": 0.3858267716535433,
                    "duration": 0.11120150000000706
                },
                {
                    "name": "F5",
                    "midi": 77,
                    "time": 96.74530500000132,
                    "velocity": 0.5354330708661418,
                    "duration": 0.44017260416669046
                },
                {
                    "name": "C#5",
                    "midi": 73,
                    "time": 96.85650650000133,
                    "velocity": 0.3937007874015748,
                    "duration": 0.11120150000000706
                },
                {
                    "name": "D5",
                    "midi": 74,
                    "time": 96.96770800000134,
                    "velocity": 0.4330708661417323,
                    "duration": 0.11120150000000706
                },
                {
                    "name": "B4",
                    "midi": 71,
                    "time": 97.07890950000134,
                    "velocity": 0.3543307086614173,
                    "duration": 0.11120150000000706
                },
                {
                    "name": "F5",
                    "midi": 77,
                    "time": 97.19011100000135,
                    "velocity": 0.4015748031496063,
                    "duration": 0.22240300000001412
                },
                {
                    "name": "D5",
                    "midi": 74,
                    "time": 97.30131250000136,
                    "velocity": 0.25984251968503935,
                    "duration": 0.11120150000000706
                },
                {
                    "name": "C#5",
                    "midi": 73,
                    "time": 97.41251400000137,
                    "velocity": 0.3543307086614173,
                    "duration": 0.2224029999999999
                },
                {
                    "name": "F#5",
                    "midi": 78,
                    "time": 97.41251400000137,
                    "velocity": 0.3543307086614173,
                    "duration": 0.2224029999999999
                },
                {
                    "name": "F#4",
                    "midi": 66,
                    "time": 97.74611850000137,
                    "velocity": 0.30708661417322836,
                    "duration": 0.11120150000000706
                },
                {
                    "name": "C#5",
                    "midi": 73,
                    "time": 97.85732000000138,
                    "velocity": 0.31496062992125984,
                    "duration": 0.11120150000000706
                },
                {
                    "name": "F5",
                    "midi": 77,
                    "time": 97.96852150000139,
                    "velocity": 0.33070866141732286,
                    "duration": 0.11120150000000706
                },
                {
                    "name": "F#5",
                    "midi": 78,
                    "time": 98.0797230000014,
                    "velocity": 0.3464566929133858,
                    "duration": 0.2224029999999999
                },
                {
                    "name": "F#5",
                    "midi": 78,
                    "time": 98.4133275000014,
                    "velocity": 0.33858267716535434,
                    "duration": 0.11120150000000706
                },
                {
                    "name": "C#6",
                    "midi": 85,
                    "time": 98.52452900000141,
                    "velocity": 0.3779527559055118,
                    "duration": 0.11120150000000706
                },
                {
                    "name": "F6",
                    "midi": 89,
                    "time": 98.63573050000142,
                    "velocity": 0.3937007874015748,
                    "duration": 0.11120150000000706
                },
                {
                    "name": "F#6",
                    "midi": 90,
                    "time": 98.74693200000142,
                    "velocity": 0.4094488188976378,
                    "duration": 0.2224029999999999
                },
                {
                    "name": "D#6",
                    "midi": 87,
                    "time": 99.08053650000143,
                    "velocity": 0.4566929133858268,
                    "duration": 0.11120150000000706
                },
                {
                    "name": "C6",
                    "midi": 84,
                    "time": 99.19173800000144,
                    "velocity": 0.44881889763779526,
                    "duration": 0.11120150000000706
                },
                {
                    "name": "A5",
                    "midi": 81,
                    "time": 99.30293950000144,
                    "velocity": 0.4330708661417323,
                    "duration": 0.11120150000000706
                },
                {
                    "name": "F#5",
                    "midi": 78,
                    "time": 99.41414100000145,
                    "velocity": 0.4251968503937008,
                    "duration": 0.11120150000000706
                },
                {
                    "name": "D#5",
                    "midi": 75,
                    "time": 99.52534250000146,
                    "velocity": 0.4251968503937008,
                    "duration": 0.11120150000000706
                },
                {
                    "name": "C5",
                    "midi": 72,
                    "time": 99.63654400000146,
                    "velocity": 0.4251968503937008,
                    "duration": 0.11120150000000706
                },
                {
                    "name": "A4",
                    "midi": 69,
                    "time": 99.74774550000147,
                    "velocity": 0.41732283464566927,
                    "duration": 0.11120150000000706
                },
                {
                    "name": "F#4",
                    "midi": 66,
                    "time": 99.85894700000148,
                    "velocity": 0.3937007874015748,
                    "duration": 0.11120150000000706
                },
                {
                    "name": "D#4",
                    "midi": 63,
                    "time": 99.97014850000149,
                    "velocity": 0.36220472440944884,
                    "duration": 0.11120150000000706
                },
                {
                    "name": "C#4",
                    "midi": 61,
                    "time": 100.08135000000149,
                    "velocity": 0.3543307086614173,
                    "duration": 0.2224029999999999
                },
                {
                    "name": "C#4",
                    "midi": 61,
                    "time": 100.4149545000015,
                    "velocity": 0.33070866141732286,
                    "duration": 0.11120150000000706
                },
                {
                    "name": "G#4",
                    "midi": 68,
                    "time": 100.5261560000015,
                    "velocity": 0.3464566929133858,
                    "duration": 0.11120150000000706
                },
                {
                    "name": "B4",
                    "midi": 71,
                    "time": 100.63735750000151,
                    "velocity": 0.36220472440944884,
                    "duration": 0.11120150000000706
                },
                {
                    "name": "A#4",
                    "midi": 70,
                    "time": 100.74855900000152,
                    "velocity": 0.3858267716535433,
                    "duration": 0.2224029999999999
                },
                {
                    "name": "C#5",
                    "midi": 73,
                    "time": 101.08216350000153,
                    "velocity": 0.3858267716535433,
                    "duration": 0.11120150000000706
                },
                {
                    "name": "F#5",
                    "midi": 78,
                    "time": 101.19336500000153,
                    "velocity": 0.4330708661417323,
                    "duration": 0.11120150000000706
                },
                {
                    "name": "A#5",
                    "midi": 82,
                    "time": 101.30456650000154,
                    "velocity": 0.44881889763779526,
                    "duration": 0.11120150000000706
                },
                {
                    "name": "C#6",
                    "midi": 85,
                    "time": 101.41576800000155,
                    "velocity": 0.5275590551181102,
                    "duration": 0.11120150000000706
                },
                {
                    "name": "B5",
                    "midi": 83,
                    "time": 101.52696950000156,
                    "velocity": 0.4566929133858268,
                    "duration": 0.11120150000000706
                },
                {
                    "name": "B3",
                    "midi": 59,
                    "time": 101.74937250000157,
                    "velocity": 0.36220472440944884,
                    "duration": 0.11120150000000706
                },
                {
                    "name": "F#4",
                    "midi": 66,
                    "time": 101.86057400000158,
                    "velocity": 0.3700787401574803,
                    "duration": 0.11120150000000706
                },
                {
                    "name": "A4",
                    "midi": 69,
                    "time": 101.97177550000158,
                    "velocity": 0.3937007874015748,
                    "duration": 0.11120150000000706
                },
                {
                    "name": "G#4",
                    "midi": 68,
                    "time": 102.08297700000159,
                    "velocity": 0.4094488188976378,
                    "duration": 0.2224029999999999
                },
                {
                    "name": "B4",
                    "midi": 71,
                    "time": 102.4165815000016,
                    "velocity": 0.4094488188976378,
                    "duration": 0.11120150000000706
                },
                {
                    "name": "E5",
                    "midi": 76,
                    "time": 102.5277830000016,
                    "velocity": 0.4645669291338583,
                    "duration": 0.11120150000000706
                },
                {
                    "name": "G#5",
                    "midi": 80,
                    "time": 102.63898450000161,
                    "velocity": 0.4881889763779528,
                    "duration": 0.11120150000000706
                },
                {
                    "name": "B5",
                    "midi": 83,
                    "time": 102.75018600000162,
                    "velocity": 0.5511811023622047,
                    "duration": 0.11120150000000706
                },
                {
                    "name": "A5",
                    "midi": 81,
                    "time": 102.86138750000163,
                    "velocity": 0.4881889763779528,
                    "duration": 0.11120150000000706
                },
                {
                    "name": "A3",
                    "midi": 57,
                    "time": 103.08379050000164,
                    "velocity": 0.3858267716535433,
                    "duration": 0.11120150000000706
                },
                {
                    "name": "E4",
                    "midi": 64,
                    "time": 103.19499200000165,
                    "velocity": 0.4015748031496063,
                    "duration": 0.11120150000000706
                },
                {
                    "name": "G#4",
                    "midi": 68,
                    "time": 103.30619350000165,
                    "velocity": 0.41732283464566927,
                    "duration": 0.11120150000000706
                },
                {
                    "name": "G4",
                    "midi": 67,
                    "time": 103.41739500000166,
                    "velocity": 0.4409448818897638,
                    "duration": 0.2224029999999999
                },
                {
                    "name": "A#4",
                    "midi": 70,
                    "time": 103.75099950000167,
                    "velocity": 0.4409448818897638,
                    "duration": 0.11120150000000706
                },
                {
                    "name": "D#5",
                    "midi": 75,
                    "time": 103.86220100000168,
                    "velocity": 0.49606299212598426,
                    "duration": 0.11120150000000706
                },
                {
                    "name": "G5",
                    "midi": 79,
                    "time": 103.97340250000168,
                    "velocity": 0.5196850393700787,
                    "duration": 0.11120150000000706
                },
                {
                    "name": "A5",
                    "midi": 81,
                    "time": 104.08460400000169,
                    "velocity": 0.5748031496062992,
                    "duration": 0.11120150000000706
                },
                {
                    "name": "G#5",
                    "midi": 80,
                    "time": 104.1958055000017,
                    "velocity": 0.5275590551181102,
                    "duration": 0.11120150000000706
                },
                {
                    "name": "G#3",
                    "midi": 56,
                    "time": 104.41820850000171,
                    "velocity": 0.41732283464566927,
                    "duration": 0.11120150000000706
                },
                {
                    "name": "D#4",
                    "midi": 63,
                    "time": 104.52941000000172,
                    "velocity": 0.4251968503937008,
                    "duration": 0.11120150000000706
                },
                {
                    "name": "F#4",
                    "midi": 66,
                    "time": 104.64061150000173,
                    "velocity": 0.44881889763779526,
                    "duration": 0.11120150000000706
                },
                {
                    "name": "F4",
                    "midi": 65,
                    "time": 104.75181300000173,
                    "velocity": 0.47244094488188976,
                    "duration": 0.2224029999999999
                },
                {
                    "name": "B4",
                    "midi": 71,
                    "time": 105.08541750000174,
                    "velocity": 0.47244094488188976,
                    "duration": 0.11120150000000706
                },
                {
                    "name": "C#5",
                    "midi": 73,
                    "time": 105.19661900000175,
                    "velocity": 0.5275590551181102,
                    "duration": 0.11120150000000706
                },
                {
                    "name": "F5",
                    "midi": 77,
                    "time": 105.30782050000175,
                    "velocity": 0.5511811023622047,
                    "duration": 0.11120150000000706
                },
                {
                    "name": "G#5",
                    "midi": 80,
                    "time": 105.41902200000176,
                    "velocity": 0.6062992125984252,
                    "duration": 0.11120150000000706
                },
                {
                    "name": "F#5",
                    "midi": 78,
                    "time": 105.53022350000177,
                    "velocity": 0.5590551181102362,
                    "duration": 0.11120150000000706
                },
                {
                    "name": "F#4",
                    "midi": 66,
                    "time": 105.75262650000178,
                    "velocity": 0.4409448818897638,
                    "duration": 0.11120150000000706
                },
                {
                    "name": "B4",
                    "midi": 71,
                    "time": 105.86382800000179,
                    "velocity": 0.4566929133858268,
                    "duration": 0.11120150000000706
                },
                {
                    "name": "E5",
                    "midi": 76,
                    "time": 105.9750295000018,
                    "velocity": 0.48031496062992124,
                    "duration": 0.11120150000000706
                },
                {
                    "name": "D5",
                    "midi": 74,
                    "time": 106.0862310000018,
                    "velocity": 0.5039370078740157,
                    "duration": 0.2224029999999999
                },
                {
                    "name": "A4",
                    "midi": 69,
                    "time": 106.41983550000181,
                    "velocity": 0.5039370078740157,
                    "duration": 0.11120150000000706
                },
                {
                    "name": "G#4",
                    "midi": 68,
                    "time": 106.53103700000182,
                    "velocity": 0.5590551181102362,
                    "duration": 0.11120150000000706
                },
                {
                    "name": "C#5",
                    "midi": 73,
                    "time": 106.64223850000182,
                    "velocity": 0.5905511811023622,
                    "duration": 0.11120150000000706
                },
                {
                    "name": "G#5",
                    "midi": 80,
                    "time": 106.75344000000183,
                    "velocity": 0.6220472440944882,
                    "duration": 0.11120150000000706
                },
                {
                    "name": "F#5",
                    "midi": 78,
                    "time": 106.86464150000184,
                    "velocity": 0.5984251968503937,
                    "duration": 0.11120150000000706
                },
                {
                    "name": "F#4",
                    "midi": 66,
                    "time": 107.08704450000185,
                    "velocity": 0.4645669291338583,
                    "duration": 0.11120150000000706
                },
                {
                    "name": "B4",
                    "midi": 71,
                    "time": 107.19824600000186,
                    "velocity": 0.48031496062992124,
                    "duration": 0.11120150000000706
                },
                {
                    "name": "E5",
                    "midi": 76,
                    "time": 107.30944750000187,
                    "velocity": 0.5039370078740157,
                    "duration": 0.11120150000000706
                },
                {
                    "name": "D5",
                    "midi": 74,
                    "time": 107.42064900000187,
                    "velocity": 0.5354330708661418,
                    "duration": 0.2224029999999999
                },
                {
                    "name": "A4",
                    "midi": 69,
                    "time": 107.75425350000188,
                    "velocity": 0.5275590551181102,
                    "duration": 0.11120150000000706
                },
                {
                    "name": "G#4",
                    "midi": 68,
                    "time": 107.86545500000189,
                    "velocity": 0.5905511811023622,
                    "duration": 0.11120150000000706
                },
                {
                    "name": "C#5",
                    "midi": 73,
                    "time": 107.9766565000019,
                    "velocity": 0.6220472440944882,
                    "duration": 0.11120150000000706
                },
                {
                    "name": "B4",
                    "midi": 71,
                    "time": 108.0878580000019,
                    "velocity": 0.7086614173228346,
                    "duration": 0.2224029999999999
                },
                {
                    "name": "B3",
                    "midi": 59,
                    "time": 108.42146250000191,
                    "velocity": 0.4881889763779528,
                    "duration": 0.11120150000000706
                },
                {
                    "name": "E4",
                    "midi": 64,
                    "time": 108.53266400000192,
                    "velocity": 0.5039370078740157,
                    "duration": 0.11120150000000706
                },
                {
                    "name": "A#4",
                    "midi": 70,
                    "time": 108.64386550000192,
                    "velocity": 0.5275590551181102,
                    "duration": 0.11120150000000706
                },
                {
                    "name": "B4",
                    "midi": 71,
                    "time": 108.75506700000193,
                    "velocity": 0.5511811023622047,
                    "duration": 0.2224029999999999
                },
                {
                    "name": "B3",
                    "midi": 59,
                    "time": 109.08867150000194,
                    "velocity": 0.5354330708661418,
                    "duration": 0.11120150000000706
                },
                {
                    "name": "E4",
                    "midi": 64,
                    "time": 109.19987300000194,
                    "velocity": 0.5984251968503937,
                    "duration": 0.11120150000000706
                },
                {
                    "name": "A#4",
                    "midi": 70,
                    "time": 109.31107450000195,
                    "velocity": 0.6299212598425197,
                    "duration": 0.11120150000000706
                },
                {
                    "name": "B4",
                    "midi": 71,
                    "time": 109.42227600000196,
                    "velocity": 0.7086614173228346,
                    "duration": 0.11120150000000706
                },
                {
                    "name": "B3",
                    "midi": 59,
                    "time": 109.53347750000196,
                    "velocity": 0.4881889763779528,
                    "duration": 0.11120150000000706
                },
                {
                    "name": "E4",
                    "midi": 64,
                    "time": 109.64467900000197,
                    "velocity": 0.5196850393700787,
                    "duration": 0.11120150000000706
                },
                {
                    "name": "A#4",
                    "midi": 70,
                    "time": 109.75588050000198,
                    "velocity": 0.5669291338582677,
                    "duration": 0.11120150000000706
                },
                {
                    "name": "B4",
                    "midi": 71,
                    "time": 109.86708200000199,
                    "velocity": 0.6614173228346457,
                    "duration": 0.11120150000000706
                },
                {
                    "name": "B3",
                    "midi": 59,
                    "time": 109.978283500002,
                    "velocity": 0.5669291338582677,
                    "duration": 0.11120150000000706
                },
                {
                    "name": "E4",
                    "midi": 64,
                    "time": 110.089485000002,
                    "velocity": 0.5905511811023622,
                    "duration": 0.11120150000000706
                },
                {
                    "name": "A#4",
                    "midi": 70,
                    "time": 110.200686500002,
                    "velocity": 0.6456692913385826,
                    "duration": 0.11120150000000706
                },
                {
                    "name": "B4",
                    "midi": 71,
                    "time": 110.31188800000201,
                    "velocity": 0.7007874015748031,
                    "duration": 0.11120150000000706
                },
                {
                    "name": "B3",
                    "midi": 59,
                    "time": 110.42308950000202,
                    "velocity": 0.6062992125984252,
                    "duration": 0.11120150000000706
                },
                {
                    "name": "E4",
                    "midi": 64,
                    "time": 110.53429100000203,
                    "velocity": 0.6377952755905512,
                    "duration": 0.11120150000000706
                },
                {
                    "name": "A#4",
                    "midi": 70,
                    "time": 110.64549250000204,
                    "velocity": 0.6929133858267716,
                    "duration": 0.11120150000000706
                },
                {
                    "name": "F#4",
                    "midi": 66,
                    "time": 110.75669400000204,
                    "velocity": 0.6377952755905512,
                    "duration": 0.11120150000000706
                },
                {
                    "name": "C5",
                    "midi": 72,
                    "time": 110.75669400000204,
                    "velocity": 0.8110236220472441,
                    "duration": 0.6672090000000424
                },
                {
                    "name": "F4",
                    "midi": 65,
                    "time": 110.86789550000205,
                    "velocity": 0.5275590551181102,
                    "duration": 0.11120150000000706
                },
                {
                    "name": "F#4",
                    "midi": 66,
                    "time": 110.97909700000206,
                    "velocity": 0.5590551181102362,
                    "duration": 0.11120150000000706
                },
                {
                    "name": "G#4",
                    "midi": 68,
                    "time": 111.09029850000206,
                    "velocity": 0.5669291338582677,
                    "duration": 0.11120150000000706
                },
                {
                    "name": "A4",
                    "midi": 69,
                    "time": 111.20150000000207,
                    "velocity": 0.6141732283464567,
                    "duration": 0.11120150000000706
                },
                {
                    "name": "G#4",
                    "midi": 68,
                    "time": 111.31270150000208,
                    "velocity": 0.5669291338582677,
                    "duration": 0.11120150000000706
                },
                {
                    "name": "F#4",
                    "midi": 66,
                    "time": 111.42390300000208,
                    "velocity": 0.6377952755905512,
                    "duration": 0.11120150000000706
                },
                {
                    "name": "C#5",
                    "midi": 73,
                    "time": 111.42390300000208,
                    "velocity": 0.8110236220472441,
                    "duration": 0.22240300000001412
                },
                {
                    "name": "F4",
                    "midi": 65,
                    "time": 111.53510450000209,
                    "velocity": 0.5511811023622047,
                    "duration": 0.11120150000000706
                },
                {
                    "name": "F#4",
                    "midi": 66,
                    "time": 111.6463060000021,
                    "velocity": 0.5669291338582677,
                    "duration": 0.11120150000000706
                },
                {
                    "name": "G#4",
                    "midi": 68,
                    "time": 111.7575075000021,
                    "velocity": 0.5826771653543307,
                    "duration": 0.11120150000000706
                },
                {
                    "name": "A4",
                    "midi": 69,
                    "time": 111.86870900000211,
                    "velocity": 0.5984251968503937,
                    "duration": 0.11120150000000706
                },
                {
                    "name": "G#4",
                    "midi": 68,
                    "time": 111.97991050000212,
                    "velocity": 0.5669291338582677,
                    "duration": 0.11120150000000706
                },
                {
                    "name": "F#4",
                    "midi": 66,
                    "time": 112.09111200000213,
                    "velocity": 0.6377952755905512,
                    "duration": 0.11120150000000706
                },
                {
                    "name": "C5",
                    "midi": 72,
                    "time": 112.09111200000213,
                    "velocity": 0.8110236220472441,
                    "duration": 0.6672090000000424
                },
                {
                    "name": "F4",
                    "midi": 65,
                    "time": 112.20231350000213,
                    "velocity": 0.5275590551181102,
                    "duration": 0.11120150000000706
                },
                {
                    "name": "F#4",
                    "midi": 66,
                    "time": 112.31351500000214,
                    "velocity": 0.5590551181102362,
                    "duration": 0.11120150000000706
                },
                {
                    "name": "G#4",
                    "midi": 68,
                    "time": 112.42471650000215,
                    "velocity": 0.5669291338582677,
                    "duration": 0.11120150000000706
                },
                {
                    "name": "A4",
                    "midi": 69,
                    "time": 112.53591800000216,
                    "velocity": 0.6141732283464567,
                    "duration": 0.11120150000000706
                },
                {
                    "name": "G#4",
                    "midi": 68,
                    "time": 112.64711950000216,
                    "velocity": 0.5669291338582677,
                    "duration": 0.11120150000000706
                },
                {
                    "name": "F#4",
                    "midi": 66,
                    "time": 112.75832100000217,
                    "velocity": 0.6377952755905512,
                    "duration": 0.11120150000000706
                },
                {
                    "name": "C#5",
                    "midi": 73,
                    "time": 112.75832100000217,
                    "velocity": 0.8110236220472441,
                    "duration": 0.22240300000001412
                },
                {
                    "name": "F4",
                    "midi": 65,
                    "time": 112.86952250000218,
                    "velocity": 0.5511811023622047,
                    "duration": 0.11120150000000706
                },
                {
                    "name": "F#4",
                    "midi": 66,
                    "time": 112.98072400000218,
                    "velocity": 0.5669291338582677,
                    "duration": 0.11120150000000706
                },
                {
                    "name": "G#4",
                    "midi": 68,
                    "time": 113.09192550000219,
                    "velocity": 0.5826771653543307,
                    "duration": 0.11120150000000706
                },
                {
                    "name": "A4",
                    "midi": 69,
                    "time": 113.2031270000022,
                    "velocity": 0.5984251968503937,
                    "duration": 0.11120150000000706
                },
                {
                    "name": "G#4",
                    "midi": 68,
                    "time": 113.3143285000022,
                    "velocity": 0.5669291338582677,
                    "duration": 0.11120150000000706
                },
                {
                    "name": "F#4",
                    "midi": 66,
                    "time": 113.42553000000221,
                    "velocity": 0.6377952755905512,
                    "duration": 0.11120150000000706
                },
                {
                    "name": "C5",
                    "midi": 72,
                    "time": 113.42553000000221,
                    "velocity": 0.8110236220472441,
                    "duration": 1.3344180000000847
                },
                {
                    "name": "F4",
                    "midi": 65,
                    "time": 113.53673150000222,
                    "velocity": 0.5275590551181102,
                    "duration": 0.11120150000000706
                },
                {
                    "name": "F#4",
                    "midi": 66,
                    "time": 113.64793300000223,
                    "velocity": 0.5590551181102362,
                    "duration": 0.11120150000000706
                },
                {
                    "name": "G#4",
                    "midi": 68,
                    "time": 113.75913450000223,
                    "velocity": 0.5669291338582677,
                    "duration": 0.11120150000000706
                },
                {
                    "name": "A4",
                    "midi": 69,
                    "time": 113.87033600000224,
                    "velocity": 0.6141732283464567,
                    "duration": 0.11120150000000706
                },
                {
                    "name": "G#4",
                    "midi": 68,
                    "time": 113.98153750000225,
                    "velocity": 0.5669291338582677,
                    "duration": 0.11120150000000706
                },
                {
                    "name": "F#4",
                    "midi": 66,
                    "time": 114.09273900000225,
                    "velocity": 0.4094488188976378,
                    "duration": 0.11120150000000706
                },
                {
                    "name": "F4",
                    "midi": 65,
                    "time": 114.20394050000226,
                    "velocity": 0.41732283464566927,
                    "duration": 0.11120150000000706
                },
                {
                    "name": "F#4",
                    "midi": 66,
                    "time": 114.31514200000227,
                    "velocity": 0.4251968503937008,
                    "duration": 0.11120150000000706
                },
                {
                    "name": "G4",
                    "midi": 67,
                    "time": 114.42634350000228,
                    "velocity": 0.4330708661417323,
                    "duration": 0.11120150000000706
                },
                {
                    "name": "A4",
                    "midi": 69,
                    "time": 114.53754500000228,
                    "velocity": 0.48031496062992124,
                    "duration": 0.11120150000000706
                },
                {
                    "name": "F#4",
                    "midi": 66,
                    "time": 114.64874650000229,
                    "velocity": 0.4251968503937008,
                    "duration": 0.11120150000000706
                },
                {
                    "name": "B4",
                    "midi": 71,
                    "time": 114.7599480000023,
                    "velocity": 0.4881889763779528,
                    "duration": 0.6672090000000424
                },
                {
                    "name": "A4",
                    "midi": 69,
                    "time": 114.7599480000023,
                    "velocity": 0.4566929133858268,
                    "duration": 0.11120150000000706
                },
                {
                    "name": "G4",
                    "midi": 67,
                    "time": 114.8711495000023,
                    "velocity": 0.3700787401574803,
                    "duration": 0.11120150000000706
                },
                {
                    "name": "F#4",
                    "midi": 66,
                    "time": 114.98235100000231,
                    "velocity": 0.3700787401574803,
                    "duration": 0.11120150000000706
                },
                {
                    "name": "G4",
                    "midi": 67,
                    "time": 115.09355250000232,
                    "velocity": 0.3700787401574803,
                    "duration": 0.11120150000000706
                },
                {
                    "name": "A4",
                    "midi": 69,
                    "time": 115.20475400000232,
                    "velocity": 0.4251968503937008,
                    "duration": 0.11120150000000706
                },
                {
                    "name": "G4",
                    "midi": 67,
                    "time": 115.31595550000233,
                    "velocity": 0.3700787401574803,
                    "duration": 0.11120150000000706
                },
                {
                    "name": "D5",
                    "midi": 74,
                    "time": 115.42715700000234,
                    "velocity": 0.47244094488188976,
                    "duration": 0.6672090000000424
                },
                {
                    "name": "G#4",
                    "midi": 68,
                    "time": 115.42715700000234,
                    "velocity": 0.4409448818897638,
                    "duration": 0.11120150000000706
                },
                {
                    "name": "F#4",
                    "midi": 66,
                    "time": 115.53835850000235,
                    "velocity": 0.3543307086614173,
                    "duration": 0.11120150000000706
                },
                {
                    "name": "G#4",
                    "midi": 68,
                    "time": 115.64956000000235,
                    "velocity": 0.3543307086614173,
                    "duration": 0.11120150000000706
                },
                {
                    "name": "A4",
                    "midi": 69,
                    "time": 115.76076150000236,
                    "velocity": 0.3543307086614173,
                    "duration": 0.11120150000000706
                },
                {
                    "name": "B4",
                    "midi": 71,
                    "time": 115.87196300000237,
                    "velocity": 0.4094488188976378,
                    "duration": 0.11120150000000706
                },
                {
                    "name": "G#4",
                    "midi": 68,
                    "time": 115.98316450000237,
                    "velocity": 0.3543307086614173,
                    "duration": 0.11120150000000706
                },
                {
                    "name": "C#5",
                    "midi": 73,
                    "time": 116.09436600000238,
                    "velocity": 0.44881889763779526,
                    "duration": 0.6672090000000424
                },
                {
                    "name": "B4",
                    "midi": 71,
                    "time": 116.09436600000238,
                    "velocity": 0.41732283464566927,
                    "duration": 0.11120150000000706
                },
                {
                    "name": "A4",
                    "midi": 69,
                    "time": 116.20556750000239,
                    "velocity": 0.33858267716535434,
                    "duration": 0.11120150000000706
                },
                {
                    "name": "G#4",
                    "midi": 68,
                    "time": 116.3167690000024,
                    "velocity": 0.3464566929133858,
                    "duration": 0.11120150000000706
                },
                {
                    "name": "A4",
                    "midi": 69,
                    "time": 116.4279705000024,
                    "velocity": 0.3464566929133858,
                    "duration": 0.11120150000000706
                },
                {
                    "name": "B4",
                    "midi": 71,
                    "time": 116.53917200000241,
                    "velocity": 0.3858267716535433,
                    "duration": 0.11120150000000706
                },
                {
                    "name": "A4",
                    "midi": 69,
                    "time": 116.65037350000242,
                    "velocity": 0.3464566929133858,
                    "duration": 0.11120150000000706
                },
                {
                    "name": "E5",
                    "midi": 76,
                    "time": 116.76157500000242,
                    "velocity": 0.4330708661417323,
                    "duration": 0.6672090000000424
                },
                {
                    "name": "A#4",
                    "midi": 70,
                    "time": 116.76157500000242,
                    "velocity": 0.4015748031496063,
                    "duration": 0.11120150000000706
                },
                {
                    "name": "G#4",
                    "midi": 68,
                    "time": 116.87277650000243,
                    "velocity": 0.33070866141732286,
                    "duration": 0.11120150000000706
                },
                {
                    "name": "A#4",
                    "midi": 70,
                    "time": 116.98397800000244,
                    "velocity": 0.33070866141732286,
                    "duration": 0.11120150000000706
                },
                {
                    "name": "B4",
                    "midi": 71,
                    "time": 117.09517950000244,
                    "velocity": 0.3228346456692913,
                    "duration": 0.11120150000000706
                },
                {
                    "name": "C#5",
                    "midi": 73,
                    "time": 117.20638100000245,
                    "velocity": 0.3700787401574803,
                    "duration": 0.11120150000000706
                },
                {
                    "name": "A#4",
                    "midi": 70,
                    "time": 117.31758250000246,
                    "velocity": 0.33070866141732286,
                    "duration": 0.11120150000000706
                },
                {
                    "name": "D5",
                    "midi": 74,
                    "time": 117.42878400000247,
                    "velocity": 0.4094488188976378,
                    "duration": 0.6672090000000424
                },
                {
                    "name": "C#5",
                    "midi": 73,
                    "time": 117.42878400000247,
                    "velocity": 0.3858267716535433,
                    "duration": 0.11120150000000706
                },
                {
                    "name": "B4",
                    "midi": 71,
                    "time": 117.53998550000247,
                    "velocity": 0.31496062992125984,
                    "duration": 0.11120150000000706
                },
                {
                    "name": "A#4",
                    "midi": 70,
                    "time": 117.65118700000248,
                    "velocity": 0.31496062992125984,
                    "duration": 0.11120150000000706
                },
                {
                    "name": "B4",
                    "midi": 71,
                    "time": 117.76238850000249,
                    "velocity": 0.31496062992125984,
                    "duration": 0.11120150000000706
                },
                {
                    "name": "C#5",
                    "midi": 73,
                    "time": 117.8735900000025,
                    "velocity": 0.36220472440944884,
                    "duration": 0.11120150000000706
                },
                {
                    "name": "B4",
                    "midi": 71,
                    "time": 117.9847915000025,
                    "velocity": 0.3228346456692913,
                    "duration": 0.11120150000000706
                },
                {
                    "name": "C#5",
                    "midi": 73,
                    "time": 118.09599300000251,
                    "velocity": 0.4094488188976378,
                    "duration": 0.6672090000000424
                },
                {
                    "name": "B4",
                    "midi": 71,
                    "time": 118.09599300000251,
                    "velocity": 0.3858267716535433,
                    "duration": 0.11120150000000706
                },
                {
                    "name": "A4",
                    "midi": 69,
                    "time": 118.20719450000252,
                    "velocity": 0.31496062992125984,
                    "duration": 0.11120150000000706
                },
                {
                    "name": "G#4",
                    "midi": 68,
                    "time": 118.31839600000252,
                    "velocity": 0.31496062992125984,
                    "duration": 0.11120150000000706
                },
                {
                    "name": "A4",
                    "midi": 69,
                    "time": 118.42959750000253,
                    "velocity": 0.31496062992125984,
                    "duration": 0.11120150000000706
                },
                {
                    "name": "B4",
                    "midi": 71,
                    "time": 118.54079900000254,
                    "velocity": 0.36220472440944884,
                    "duration": 0.11120150000000706
                },
                {
                    "name": "A4",
                    "midi": 69,
                    "time": 118.65200050000254,
                    "velocity": 0.3228346456692913,
                    "duration": 0.11120150000000706
                },
                {
                    "name": "C5",
                    "midi": 72,
                    "time": 118.76320200000255,
                    "velocity": 0.4094488188976378,
                    "duration": 0.6672090000000424
                },
                {
                    "name": "A4",
                    "midi": 69,
                    "time": 118.76320200000255,
                    "velocity": 0.3858267716535433,
                    "duration": 0.11120150000000706
                },
                {
                    "name": "G#4",
                    "midi": 68,
                    "time": 118.87440350000256,
                    "velocity": 0.31496062992125984,
                    "duration": 0.11120150000000706
                },
                {
                    "name": "G4",
                    "midi": 67,
                    "time": 118.98560500000256,
                    "velocity": 0.31496062992125984,
                    "duration": 0.11120150000000706
                },
                {
                    "name": "G#4",
                    "midi": 68,
                    "time": 119.09680650000257,
                    "velocity": 0.31496062992125984,
                    "duration": 0.11120150000000706
                },
                {
                    "name": "A4",
                    "midi": 69,
                    "time": 119.20800800000258,
                    "velocity": 0.36220472440944884,
                    "duration": 0.11120150000000706
                },
                {
                    "name": "G#4",
                    "midi": 68,
                    "time": 119.31920950000259,
                    "velocity": 0.3228346456692913,
                    "duration": 0.11120150000000706
                },
                {
                    "name": "B4",
                    "midi": 71,
                    "time": 119.4304110000026,
                    "velocity": 0.4094488188976378,
                    "duration": 0.6672090000000424
                },
                {
                    "name": "A4",
                    "midi": 69,
                    "time": 119.4304110000026,
                    "velocity": 0.3858267716535433,
                    "duration": 0.11120150000000706
                },
                {
                    "name": "G#4",
                    "midi": 68,
                    "time": 119.5416125000026,
                    "velocity": 0.31496062992125984,
                    "duration": 0.11120150000000706
                },
                {
                    "name": "F#4",
                    "midi": 66,
                    "time": 119.6528140000026,
                    "velocity": 0.31496062992125984,
                    "duration": 0.11120150000000706
                },
                {
                    "name": "G#4",
                    "midi": 68,
                    "time": 119.76401550000261,
                    "velocity": 0.31496062992125984,
                    "duration": 0.11120150000000706
                },
                {
                    "name": "A4",
                    "midi": 69,
                    "time": 119.87521700000262,
                    "velocity": 0.36220472440944884,
                    "duration": 0.11120150000000706
                },
                {
                    "name": "G#4",
                    "midi": 68,
                    "time": 119.98641850000263,
                    "velocity": 0.3228346456692913,
                    "duration": 0.11120150000000706
                },
                {
                    "name": "A#4",
                    "midi": 70,
                    "time": 120.09762000000264,
                    "velocity": 0.4094488188976378,
                    "duration": 0.6672090000000424
                },
                {
                    "name": "G#4",
                    "midi": 68,
                    "time": 120.09762000000264,
                    "velocity": 0.3858267716535433,
                    "duration": 0.11120150000000706
                },
                {
                    "name": "F#4",
                    "midi": 66,
                    "time": 120.20882150000264,
                    "velocity": 0.31496062992125984,
                    "duration": 0.11120150000000706
                },
                {
                    "name": "F4",
                    "midi": 65,
                    "time": 120.32002300000265,
                    "velocity": 0.31496062992125984,
                    "duration": 0.11120150000000706
                },
                {
                    "name": "F#4",
                    "midi": 66,
                    "time": 120.43122450000266,
                    "velocity": 0.31496062992125984,
                    "duration": 0.11120150000000706
                },
                {
                    "name": "G#4",
                    "midi": 68,
                    "time": 120.54242600000266,
                    "velocity": 0.36220472440944884,
                    "duration": 0.11120150000000706
                },
                {
                    "name": "F#4",
                    "midi": 66,
                    "time": 120.65362750000267,
                    "velocity": 0.3228346456692913,
                    "duration": 0.11120150000000706
                },
                {
                    "name": "A4",
                    "midi": 69,
                    "time": 120.76482900000268,
                    "velocity": 0.4094488188976378,
                    "duration": 0.6672090000000424
                },
                {
                    "name": "G#4",
                    "midi": 68,
                    "time": 120.76482900000268,
                    "velocity": 0.3858267716535433,
                    "duration": 0.11120150000000706
                },
                {
                    "name": "F#4",
                    "midi": 66,
                    "time": 120.87603050000268,
                    "velocity": 0.31496062992125984,
                    "duration": 0.11120150000000706
                },
                {
                    "name": "F4",
                    "midi": 65,
                    "time": 120.98723200000269,
                    "velocity": 0.31496062992125984,
                    "duration": 0.11120150000000706
                },
                {
                    "name": "F#4",
                    "midi": 66,
                    "time": 121.0984335000027,
                    "velocity": 0.31496062992125984,
                    "duration": 0.11120150000000706
                },
                {
                    "name": "G#4",
                    "midi": 68,
                    "time": 121.2096350000027,
                    "velocity": 0.36220472440944884,
                    "duration": 0.11120150000000706
                },
                {
                    "name": "F#4",
                    "midi": 66,
                    "time": 121.32083650000271,
                    "velocity": 0.3228346456692913,
                    "duration": 0.11120150000000706
                },
                {
                    "name": "F4",
                    "midi": 65,
                    "time": 121.43203800000272,
                    "velocity": 0.4330708661417323,
                    "duration": 0.11120150000000706
                },
                {
                    "name": "C#4",
                    "midi": 61,
                    "time": 121.54323950000273,
                    "velocity": 0.3543307086614173,
                    "duration": 0.11120150000000706
                },
                {
                    "name": "G#3",
                    "midi": 56,
                    "time": 121.65444100000273,
                    "velocity": 0.3858267716535433,
                    "duration": 0.11120150000000706
                },
                {
                    "name": "C#4",
                    "midi": 61,
                    "time": 121.76564250000274,
                    "velocity": 0.3700787401574803,
                    "duration": 0.11120150000000706
                },
                {
                    "name": "F4",
                    "midi": 65,
                    "time": 121.87684400000275,
                    "velocity": 0.3858267716535433,
                    "duration": 0.11120150000000706
                },
                {
                    "name": "G#4",
                    "midi": 68,
                    "time": 121.98804550000276,
                    "velocity": 0.3858267716535433,
                    "duration": 0.11120150000000706
                },
                {
                    "name": "F4",
                    "midi": 65,
                    "time": 122.09924700000276,
                    "velocity": 0.44881889763779526,
                    "duration": 0.11120150000000706
                },
                {
                    "name": "C#4",
                    "midi": 61,
                    "time": 122.21044850000277,
                    "velocity": 0.3543307086614173,
                    "duration": 0.11120150000000706
                },
                {
                    "name": "G#3",
                    "midi": 56,
                    "time": 122.32165000000278,
                    "velocity": 0.3858267716535433,
                    "duration": 0.11120150000000706
                },
                {
                    "name": "C#4",
                    "midi": 61,
                    "time": 122.43285150000278,
                    "velocity": 0.3700787401574803,
                    "duration": 0.11120150000000706
                },
                {
                    "name": "F4",
                    "midi": 65,
                    "time": 122.54405300000279,
                    "velocity": 0.36220472440944884,
                    "duration": 0.11120150000000706
                },
                {
                    "name": "G#4",
                    "midi": 68,
                    "time": 122.6552545000028,
                    "velocity": 0.33858267716535434,
                    "duration": 0.11120150000000706
                },
                {
                    "name": "F#4",
                    "midi": 66,
                    "time": 122.7664560000028,
                    "velocity": 0.4330708661417323,
                    "duration": 0.11120150000000706
                },
                {
                    "name": "C#4",
                    "midi": 61,
                    "time": 122.87765750000281,
                    "velocity": 0.3543307086614173,
                    "duration": 0.11120150000000706
                },
                {
                    "name": "A3",
                    "midi": 57,
                    "time": 122.98885900000282,
                    "velocity": 0.3858267716535433,
                    "duration": 0.11120150000000706
                },
                {
                    "name": "C#4",
                    "midi": 61,
                    "time": 123.10006050000283,
                    "velocity": 0.3700787401574803,
                    "duration": 0.11120150000000706
                },
                {
                    "name": "F#4",
                    "midi": 66,
                    "time": 123.21126200000283,
                    "velocity": 0.3858267716535433,
                    "duration": 0.11120150000000706
                },
                {
                    "name": "A4",
                    "midi": 69,
                    "time": 123.32246350000284,
                    "velocity": 0.3858267716535433,
                    "duration": 0.11120150000000706
                },
                {
                    "name": "F#4",
                    "midi": 66,
                    "time": 123.43366500000285,
                    "velocity": 0.44881889763779526,
                    "duration": 0.11120150000000706
                },
                {
                    "name": "D#4",
                    "midi": 63,
                    "time": 123.54486650000285,
                    "velocity": 0.3543307086614173,
                    "duration": 0.11120150000000706
                },
                {
                    "name": "C4",
                    "midi": 60,
                    "time": 123.65606800000286,
                    "velocity": 0.3858267716535433,
                    "duration": 0.11120150000000706
                },
                {
                    "name": "D#4",
                    "midi": 63,
                    "time": 123.76726950000287,
                    "velocity": 0.3700787401574803,
                    "duration": 0.11120150000000706
                },
                {
                    "name": "F#4",
                    "midi": 66,
                    "time": 123.87847100000288,
                    "velocity": 0.36220472440944884,
                    "duration": 0.11120150000000706
                },
                {
                    "name": "A4",
                    "midi": 69,
                    "time": 123.98967250000288,
                    "velocity": 0.33858267716535434,
                    "duration": 0.11120150000000706
                },
                {
                    "name": "G#4",
                    "midi": 68,
                    "time": 124.10087400000289,
                    "velocity": 0.4330708661417323,
                    "duration": 0.11120150000000706
                },
                {
                    "name": "F4",
                    "midi": 65,
                    "time": 124.2120755000029,
                    "velocity": 0.3543307086614173,
                    "duration": 0.11120150000000706
                },
                {
                    "name": "C#4",
                    "midi": 61,
                    "time": 124.3232770000029,
                    "velocity": 0.3858267716535433,
                    "duration": 0.11120150000000706
                },
                {
                    "name": "F4",
                    "midi": 65,
                    "time": 124.43447850000291,
                    "velocity": 0.3700787401574803,
                    "duration": 0.11120150000000706
                },
                {
                    "name": "G#4",
                    "midi": 68,
                    "time": 124.54568000000292,
                    "velocity": 0.3858267716535433,
                    "duration": 0.11120150000000706
                },
                {
                    "name": "C#5",
                    "midi": 73,
                    "time": 124.65688150000292,
                    "velocity": 0.3858267716535433,
                    "duration": 0.11120150000000706
                },
                {
                    "name": "G#4",
                    "midi": 68,
                    "time": 124.76808300000293,
                    "velocity": 0.44881889763779526,
                    "duration": 0.11120150000000706
                },
                {
                    "name": "F4",
                    "midi": 65,
                    "time": 124.87928450000294,
                    "velocity": 0.3543307086614173,
                    "duration": 0.11120150000000706
                },
                {
                    "name": "C#4",
                    "midi": 61,
                    "time": 124.99048600000295,
                    "velocity": 0.3858267716535433,
                    "duration": 0.11120150000000706
                },
                {
                    "name": "F4",
                    "midi": 65,
                    "time": 125.10168750000295,
                    "velocity": 0.3700787401574803,
                    "duration": 0.11120150000000706
                },
                {
                    "name": "G#4",
                    "midi": 68,
                    "time": 125.21288900000296,
                    "velocity": 0.36220472440944884,
                    "duration": 0.11120150000000706
                },
                {
                    "name": "C#5",
                    "midi": 73,
                    "time": 125.32409050000297,
                    "velocity": 0.33858267716535434,
                    "duration": 0.11120150000000706
                },
                {
                    "name": "A4",
                    "midi": 69,
                    "time": 125.43529200000297,
                    "velocity": 0.4330708661417323,
                    "duration": 0.11120150000000706
                },
                {
                    "name": "F#4",
                    "midi": 66,
                    "time": 125.54649350000298,
                    "velocity": 0.3543307086614173,
                    "duration": 0.11120150000000706
                },
                {
                    "name": "C#4",
                    "midi": 61,
                    "time": 125.65769500000299,
                    "velocity": 0.3858267716535433,
                    "duration": 0.11120150000000706
                },
                {
                    "name": "F#4",
                    "midi": 66,
                    "time": 125.768896500003,
                    "velocity": 0.3700787401574803,
                    "duration": 0.11120150000000706
                },
                {
                    "name": "A4",
                    "midi": 69,
                    "time": 125.880098000003,
                    "velocity": 0.3858267716535433,
                    "duration": 0.11120150000000706
                },
                {
                    "name": "C#5",
                    "midi": 73,
                    "time": 125.99129950000301,
                    "velocity": 0.3858267716535433,
                    "duration": 0.11120150000000706
                },
                {
                    "name": "A4",
                    "midi": 69,
                    "time": 126.10250100000302,
                    "velocity": 0.44881889763779526,
                    "duration": 0.11120150000000706
                },
                {
                    "name": "F#4",
                    "midi": 66,
                    "time": 126.21370250000302,
                    "velocity": 0.3543307086614173,
                    "duration": 0.11120150000000706
                },
                {
                    "name": "D#4",
                    "midi": 63,
                    "time": 126.32490400000303,
                    "velocity": 0.3858267716535433,
                    "duration": 0.11120150000000706
                },
                {
                    "name": "F#4",
                    "midi": 66,
                    "time": 126.43610550000304,
                    "velocity": 0.3700787401574803,
                    "duration": 0.11120150000000706
                },
                {
                    "name": "A4",
                    "midi": 69,
                    "time": 126.54730700000304,
                    "velocity": 0.36220472440944884,
                    "duration": 0.11120150000000706
                },
                {
                    "name": "C5",
                    "midi": 72,
                    "time": 126.65850850000305,
                    "velocity": 0.33858267716535434,
                    "duration": 0.11120150000000706
                },
                {
                    "name": "C#5",
                    "midi": 73,
                    "time": 126.76971000000306,
                    "velocity": 0.4330708661417323,
                    "duration": 0.11120150000000706
                },
                {
                    "name": "G#4",
                    "midi": 68,
                    "time": 126.88091150000307,
                    "velocity": 0.3543307086614173,
                    "duration": 0.11120150000000706
                },
                {
                    "name": "F4",
                    "midi": 65,
                    "time": 126.99211300000307,
                    "velocity": 0.3858267716535433,
                    "duration": 0.11120150000000706
                },
                {
                    "name": "G#4",
                    "midi": 68,
                    "time": 127.10331450000308,
                    "velocity": 0.3700787401574803,
                    "duration": 0.11120150000000706
                },
                {
                    "name": "C#5",
                    "midi": 73,
                    "time": 127.21451600000309,
                    "velocity": 0.3858267716535433,
                    "duration": 0.11120150000000706
                },
                {
                    "name": "F5",
                    "midi": 77,
                    "time": 127.3257175000031,
                    "velocity": 0.3858267716535433,
                    "duration": 0.11120150000000706
                },
                {
                    "name": "G#5",
                    "midi": 80,
                    "time": 127.4369190000031,
                    "velocity": 0.4330708661417323,
                    "duration": 0.11120150000000706
                },
                {
                    "name": "F5",
                    "midi": 77,
                    "time": 127.54812050000311,
                    "velocity": 0.3543307086614173,
                    "duration": 0.11120150000000706
                },
                {
                    "name": "B5",
                    "midi": 83,
                    "time": 127.65932200000312,
                    "velocity": 0.4330708661417323,
                    "duration": 0.11120150000000706
                },
                {
                    "name": "G#5",
                    "midi": 80,
                    "time": 127.77052350000312,
                    "velocity": 0.41732283464566927,
                    "duration": 0.11120150000000706
                },
                {
                    "name": "F#5",
                    "midi": 78,
                    "time": 127.88172500000313,
                    "velocity": 0.3858267716535433,
                    "duration": 0.11120150000000706
                },
                {
                    "name": "F5",
                    "midi": 77,
                    "time": 127.99292650000314,
                    "velocity": 0.3858267716535433,
                    "duration": 0.11120149999999285
                },
                {
                    "name": "C#6",
                    "midi": 85,
                    "time": 128.10412800000313,
                    "velocity": 0.5433070866141733,
                    "duration": 0.11120149999999285
                },
                {
                    "name": "B5",
                    "midi": 83,
                    "time": 128.21532950000312,
                    "velocity": 0.49606299212598426,
                    "duration": 0.11120149999999285
                },
                {
                    "name": "A#5",
                    "midi": 82,
                    "time": 128.32653100000311,
                    "velocity": 0.4645669291338583,
                    "duration": 0.11120149999999285
                },
                {
                    "name": "G#5",
                    "midi": 80,
                    "time": 128.4377325000031,
                    "velocity": 0.4566929133858268,
                    "duration": 0.11120149999999285
                },
                {
                    "name": "F#5",
                    "midi": 78,
                    "time": 128.5489340000031,
                    "velocity": 0.4409448818897638,
                    "duration": 0.11120149999999285
                },
                {
                    "name": "F5",
                    "midi": 77,
                    "time": 128.6601355000031,
                    "velocity": 0.3858267716535433,
                    "duration": 0.11120149999999285
                },
                {
                    "name": "F#5",
                    "midi": 78,
                    "time": 128.7713370000031,
                    "velocity": 0.4330708661417323,
                    "duration": 0.11120149999999285
                },
                {
                    "name": "D#5",
                    "midi": 75,
                    "time": 128.88253850000308,
                    "velocity": 0.41732283464566927,
                    "duration": 0.11120149999999285
                },
                {
                    "name": "C5",
                    "midi": 72,
                    "time": 128.99374000000307,
                    "velocity": 0.4015748031496063,
                    "duration": 0.11120149999999285
                },
                {
                    "name": "G#4",
                    "midi": 68,
                    "time": 129.10494150000306,
                    "velocity": 0.4015748031496063,
                    "duration": 0.11120149999999285
                },
                {
                    "name": "F#4",
                    "midi": 66,
                    "time": 129.21614300000306,
                    "velocity": 0.3779527559055118,
                    "duration": 0.11120149999999285
                },
                {
                    "name": "D#4",
                    "midi": 63,
                    "time": 129.32734450000305,
                    "velocity": 0.36220472440944884,
                    "duration": 0.11120149999999285
                },
                {
                    "name": "B4",
                    "midi": 71,
                    "time": 129.43854600000304,
                    "velocity": 0.48031496062992124,
                    "duration": 0.11120149999999285
                },
                {
                    "name": "F4",
                    "midi": 65,
                    "time": 129.43854600000304,
                    "velocity": 0.48031496062992124,
                    "duration": 0.11120149999999285
                },
                {
                    "name": "G#4",
                    "midi": 68,
                    "time": 129.54974750000304,
                    "velocity": 0.4015748031496063,
                    "duration": 0.11120149999999285
                },
                {
                    "name": "F4",
                    "midi": 65,
                    "time": 129.66094900000303,
                    "velocity": 0.3779527559055118,
                    "duration": 0.11120149999999285
                },
                {
                    "name": "C#4",
                    "midi": 61,
                    "time": 129.77215050000302,
                    "velocity": 0.3700787401574803,
                    "duration": 0.11120149999999285
                },
                {
                    "name": "C4",
                    "midi": 60,
                    "time": 129.88335200000301,
                    "velocity": 0.36220472440944884,
                    "duration": 0.11120149999999285
                },
                {
                    "name": "B3",
                    "midi": 59,
                    "time": 129.994553500003,
                    "velocity": 0.33858267716535434,
                    "duration": 0.11120149999999285
                },
                {
                    "name": "A#3",
                    "midi": 58,
                    "time": 130.105755000003,
                    "velocity": 0.3858267716535433,
                    "duration": 0.11120149999999285
                },
                {
                    "name": "C#4",
                    "midi": 61,
                    "time": 130.216956500003,
                    "velocity": 0.33070866141732286,
                    "duration": 0.11120149999999285
                },
                {
                    "name": "E4",
                    "midi": 64,
                    "time": 130.328158000003,
                    "velocity": 0.3543307086614173,
                    "duration": 0.11120149999999285
                },
                {
                    "name": "E5",
                    "midi": 76,
                    "time": 130.43935950000298,
                    "velocity": 0.36220472440944884,
                    "duration": 0.11120149999999285
                },
                {
                    "name": "C#5",
                    "midi": 73,
                    "time": 130.55056100000297,
                    "velocity": 0.3779527559055118,
                    "duration": 0.11120149999999285
                },
                {
                    "name": "A#4",
                    "midi": 70,
                    "time": 130.66176250000296,
                    "velocity": 0.4094488188976378,
                    "duration": 0.11120149999999285
                },
                {
                    "name": "G4",
                    "midi": 67,
                    "time": 130.77296400000296,
                    "velocity": 0.4251968503937008,
                    "duration": 0.11120149999999285
                },
                {
                    "name": "D#4",
                    "midi": 63,
                    "time": 130.8735086895863,
                    "velocity": 0.2992125984251969,
                    "duration": 0.11120149999999285
                },
                {
                    "name": "G#4",
                    "midi": 68,
                    "time": 130.99536700000294,
                    "velocity": 0.3543307086614173,
                    "duration": 0.11120149999999285
                },
                {
                    "name": "D#4",
                    "midi": 63,
                    "time": 131.10656850000294,
                    "velocity": 0.2992125984251969,
                    "duration": 0.11120149999999285
                },
                {
                    "name": "A#4",
                    "midi": 70,
                    "time": 131.21777000000293,
                    "velocity": 0.33858267716535434,
                    "duration": 0.11120149999999285
                },
                {
                    "name": "D#4",
                    "midi": 63,
                    "time": 131.32897150000292,
                    "velocity": 0.2992125984251969,
                    "duration": 0.11120149999999285
                },
                {
                    "name": "B4",
                    "midi": 71,
                    "time": 131.44017300000291,
                    "velocity": 0.3937007874015748,
                    "duration": 0.11120149999999285
                },
                {
                    "name": "F4",
                    "midi": 65,
                    "time": 131.5513745000029,
                    "velocity": 0.2992125984251969,
                    "duration": 0.11120149999999285
                },
                {
                    "name": "C#4",
                    "midi": 61,
                    "time": 131.6625760000029,
                    "velocity": 0.33858267716535434,
                    "duration": 0.11120149999999285
                },
                {
                    "name": "F4",
                    "midi": 65,
                    "time": 131.7737775000029,
                    "velocity": 0.2992125984251969,
                    "duration": 0.11120149999999285
                },
                {
                    "name": "B3",
                    "midi": 59,
                    "time": 131.8849790000029,
                    "velocity": 0.3543307086614173,
                    "duration": 0.11120149999999285
                },
                {
                    "name": "F4",
                    "midi": 65,
                    "time": 131.99618050000288,
                    "velocity": 0.29133858267716534,
                    "duration": 0.11120149999999285
                },
                {
                    "name": "A#3",
                    "midi": 58,
                    "time": 132.10738200000287,
                    "velocity": 0.3543307086614173,
                    "duration": 0.11120149999999285
                },
                {
                    "name": "C#4",
                    "midi": 61,
                    "time": 132.21858350000286,
                    "velocity": 0.25984251968503935,
                    "duration": 0.11120149999999285
                },
                {
                    "name": "F#4",
                    "midi": 66,
                    "time": 132.32978500000286,
                    "velocity": 0.25984251968503935,
                    "duration": 0.11120149999999285
                },
                {
                    "name": "A#4",
                    "midi": 70,
                    "time": 132.44747325416952,
                    "velocity": 0.25984251968503935,
                    "duration": 0.11120149999999285
                },
                {
                    "name": "F#4",
                    "midi": 66,
                    "time": 132.55218800000284,
                    "velocity": 0.25984251968503935,
                    "duration": 0.11120149999999285
                },
                {
                    "name": "C#4",
                    "midi": 61,
                    "time": 132.66338950000284,
                    "velocity": 0.25984251968503935,
                    "duration": 0.11120149999999285
                },
                {
                    "name": "A#3",
                    "midi": 58,
                    "time": 132.77459100000283,
                    "velocity": 0.28346456692913385,
                    "duration": 0.11120149999999285
                },
                {
                    "name": "G#3",
                    "midi": 56,
                    "time": 132.88579250000282,
                    "velocity": 0.2440944881889764,
                    "duration": 0.11120149999999285
                },
                {
                    "name": "C#4",
                    "midi": 61,
                    "time": 133.21939700000283,
                    "velocity": 0.4645669291338583,
                    "duration": 0.44480600000002823
                },
                {
                    "name": "F#4",
                    "midi": 66,
                    "time": 133.44180000000284,
                    "velocity": 0.5039370078740157,
                    "duration": 0.8896120000000565
                },
                {
                    "name": "D#4",
                    "midi": 63,
                    "time": 133.66420300000286,
                    "velocity": 0.4330708661417323,
                    "duration": 0.22240300000001412
                },
                {
                    "name": "C#4",
                    "midi": 61,
                    "time": 133.88660600000287,
                    "velocity": 0.4330708661417323,
                    "duration": 0.22240300000001412
                },
                {
                    "name": "C4",
                    "midi": 60,
                    "time": 134.10900900000289,
                    "velocity": 0.4566929133858268,
                    "duration": 0.6672090000000424
                },
                {
                    "name": "F4",
                    "midi": 65,
                    "time": 134.3314120000029,
                    "velocity": 0.4881889763779528,
                    "duration": 0.22240300000001412
                },
                {
                    "name": "F#4",
                    "midi": 66,
                    "time": 134.5538150000029,
                    "velocity": 0.5511811023622047,
                    "duration": 0.22240300000001412
                },
                {
                    "name": "B3",
                    "midi": 59,
                    "time": 134.77621800000293,
                    "velocity": 0.4566929133858268,
                    "duration": 0.6672090000000139
                },
                {
                    "name": "G#4",
                    "midi": 68,
                    "time": 134.77621800000293,
                    "velocity": 0.5669291338582677,
                    "duration": 0.6672090000000139
                },
                {
                    "name": "F4",
                    "midi": 65,
                    "time": 134.77621800000293,
                    "velocity": 0.47244094488188976,
                    "duration": 0.6672090000000139
                },
                {
                    "name": "A#3",
                    "midi": 58,
                    "time": 135.44342700000294,
                    "velocity": 0.4251968503937008,
                    "duration": 0.6672090000000139
                },
                {
                    "name": "E4",
                    "midi": 64,
                    "time": 135.44342700000294,
                    "velocity": 0.4251968503937008,
                    "duration": 0.6672090000000139
                },
                {
                    "name": "A#4",
                    "midi": 70,
                    "time": 135.44342700000294,
                    "velocity": 0.4251968503937008,
                    "duration": 0.6672090000000139
                },
                {
                    "name": "A#4",
                    "midi": 70,
                    "time": 136.11063600000296,
                    "velocity": 0.4881889763779528,
                    "duration": 0.22240300000001412
                },
                {
                    "name": "D#4",
                    "midi": 63,
                    "time": 136.11063600000296,
                    "velocity": 0.4881889763779528,
                    "duration": 0.6672090000000424
                },
                {
                    "name": "C#5",
                    "midi": 73,
                    "time": 136.11063600000296,
                    "velocity": 0.5748031496062992,
                    "duration": 0.22240300000001412
                },
                {
                    "name": "G#4",
                    "midi": 68,
                    "time": 136.33303900000297,
                    "velocity": 0.4094488188976378,
                    "duration": 0.22240300000001412
                },
                {
                    "name": "B4",
                    "midi": 71,
                    "time": 136.33303900000297,
                    "velocity": 0.4881889763779528,
                    "duration": 0.22240300000001412
                },
                {
                    "name": "F#4",
                    "midi": 66,
                    "time": 136.55544200000298,
                    "velocity": 0.3543307086614173,
                    "duration": 0.22240300000001412
                },
                {
                    "name": "A#4",
                    "midi": 70,
                    "time": 136.55544200000298,
                    "velocity": 0.4251968503937008,
                    "duration": 0.22240300000001412
                },
                {
                    "name": "F4",
                    "midi": 65,
                    "time": 136.777845000003,
                    "velocity": 0.5196850393700787,
                    "duration": 0.6672090000000424
                },
                {
                    "name": "G#4",
                    "midi": 68,
                    "time": 136.777845000003,
                    "velocity": 0.5196850393700787,
                    "duration": 0.22240300000001412
                },
                {
                    "name": "A#4",
                    "midi": 70,
                    "time": 137.000248000003,
                    "velocity": 0.3858267716535433,
                    "duration": 0.22240300000001412
                },
                {
                    "name": "G#4",
                    "midi": 68,
                    "time": 137.22265100000303,
                    "velocity": 0.3228346456692913,
                    "duration": 0.22240300000001412
                },
                {
                    "name": "F#4",
                    "midi": 66,
                    "time": 137.44505400000304,
                    "velocity": 0.3937007874015748,
                    "duration": 0.22240300000001412
                },
                {
                    "name": "F#5",
                    "midi": 78,
                    "time": 137.88986000000307,
                    "velocity": 0.4566929133858268,
                    "duration": 0.22240300000001412
                },
                {
                    "name": "F#4",
                    "midi": 66,
                    "time": 137.88986000000307,
                    "velocity": 0.3858267716535433,
                    "duration": 0.22240300000001412
                },
                {
                    "name": "G#4",
                    "midi": 68,
                    "time": 138.11226300000308,
                    "velocity": 0.4566929133858268,
                    "duration": 0.4448059999999998
                },
                {
                    "name": "F5",
                    "midi": 77,
                    "time": 138.11226300000308,
                    "velocity": 0.4566929133858268,
                    "duration": 0.4448059999999998
                },
                {
                    "name": "G#5",
                    "midi": 80,
                    "time": 138.11226300000308,
                    "velocity": 0.5433070866141733,
                    "duration": 0.4448059999999998
                },
                {
                    "name": "A#4",
                    "midi": 70,
                    "time": 138.55706900000308,
                    "velocity": 0.4881889763779528,
                    "duration": 0.21776960416667634
                },
                {
                    "name": "E5",
                    "midi": 76,
                    "time": 138.55706900000308,
                    "velocity": 0.4881889763779528,
                    "duration": 0.21776960416667634
                },
                {
                    "name": "A#5",
                    "midi": 82,
                    "time": 138.55706900000308,
                    "velocity": 0.5748031496062992,
                    "duration": 0.21776960416667634
                },
                {
                    "name": "C#6",
                    "midi": 85,
                    "time": 138.7794720000031,
                    "velocity": 0.7007874015748031,
                    "duration": 0.22240300000001412
                },
                {
                    "name": "A#5",
                    "midi": 82,
                    "time": 138.7794720000031,
                    "velocity": 0.5905511811023622,
                    "duration": 0.22240300000001412
                },
                {
                    "name": "C#5",
                    "midi": 73,
                    "time": 138.7794720000031,
                    "velocity": 0.5905511811023622,
                    "duration": 0.22240300000001412
                },
                {
                    "name": "B5",
                    "midi": 83,
                    "time": 139.0018750000031,
                    "velocity": 0.5984251968503937,
                    "duration": 0.22240300000001412
                },
                {
                    "name": "G#5",
                    "midi": 80,
                    "time": 139.0018750000031,
                    "velocity": 0.5039370078740157,
                    "duration": 0.22240300000001412
                },
                {
                    "name": "B4",
                    "midi": 71,
                    "time": 139.0018750000031,
                    "velocity": 0.49606299212598426,
                    "duration": 0.22240300000001412
                },
                {
                    "name": "A#5",
                    "midi": 82,
                    "time": 139.22427800000312,
                    "velocity": 0.5511811023622047,
                    "duration": 0.22240300000001412
                },
                {
                    "name": "F#5",
                    "midi": 78,
                    "time": 139.22427800000312,
                    "velocity": 0.5511811023622047,
                    "duration": 0.22240300000001412
                },
                {
                    "name": "F5",
                    "midi": 77,
                    "time": 139.44668100000314,
                    "velocity": 0.6456692913385826,
                    "duration": 0.6672090000000424
                },
                {
                    "name": "G#5",
                    "midi": 80,
                    "time": 139.44668100000314,
                    "velocity": 0.6456692913385826,
                    "duration": 0.22240300000001412
                },
                {
                    "name": "A#5",
                    "midi": 82,
                    "time": 139.66908400000315,
                    "velocity": 0.5905511811023622,
                    "duration": 0.22240300000001412
                },
                {
                    "name": "G#5",
                    "midi": 80,
                    "time": 139.89148700000317,
                    "velocity": 0.5354330708661418,
                    "duration": 0.22240300000001412
                },
                {
                    "name": "F#5",
                    "midi": 78,
                    "time": 140.11389000000318,
                    "velocity": 0.7086614173228346,
                    "duration": 0.22240300000001412
                },
                {
                    "name": "F#4",
                    "midi": 66,
                    "time": 140.5586960000032,
                    "velocity": 0.5748031496062992,
                    "duration": 0.22240300000001412
                },
                {
                    "name": "F#5",
                    "midi": 78,
                    "time": 140.5586960000032,
                    "velocity": 0.6771653543307087,
                    "duration": 0.22240300000001412
                },
                {
                    "name": "A#4",
                    "midi": 70,
                    "time": 140.5586960000032,
                    "velocity": 0.5748031496062992,
                    "duration": 0.22240300000001412
                },
                {
                    "name": "G#4",
                    "midi": 68,
                    "time": 140.78109900000322,
                    "velocity": 0.6062992125984252,
                    "duration": 0.4448059999999998
                },
                {
                    "name": "G#5",
                    "midi": 80,
                    "time": 140.78109900000322,
                    "velocity": 0.7165354330708661,
                    "duration": 0.4448059999999998
                },
                {
                    "name": "B4",
                    "midi": 71,
                    "time": 140.78109900000322,
                    "velocity": 0.6062992125984252,
                    "duration": 0.4448059999999998
                },
                {
                    "name": "A#4",
                    "midi": 70,
                    "time": 141.22590500000322,
                    "velocity": 0.6299212598425197,
                    "duration": 0.22240300000001412
                },
                {
                    "name": "A#5",
                    "midi": 82,
                    "time": 141.22590500000322,
                    "velocity": 0.7480314960629921,
                    "duration": 0.22240300000001412
                },
                {
                    "name": "C#5",
                    "midi": 73,
                    "time": 141.22590500000322,
                    "velocity": 0.6299212598425197,
                    "duration": 0.22240300000001412
                },
                {
                    "name": "C#5",
                    "midi": 73,
                    "time": 141.44830800000324,
                    "velocity": 0.6456692913385826,
                    "duration": 0.22240300000001412
                },
                {
                    "name": "F#5",
                    "midi": 78,
                    "time": 141.44830800000324,
                    "velocity": 0.7637795275590551,
                    "duration": 0.22240300000001412
                },
                {
                    "name": "C#6",
                    "midi": 85,
                    "time": 141.44830800000324,
                    "velocity": 0.7637795275590551,
                    "duration": 0.22240300000001412
                },
                {
                    "name": "B4",
                    "midi": 71,
                    "time": 141.67071100000325,
                    "velocity": 0.5905511811023622,
                    "duration": 0.22240300000001412
                },
                {
                    "name": "B5",
                    "midi": 83,
                    "time": 141.67071100000325,
                    "velocity": 0.7007874015748031,
                    "duration": 0.22240300000001412
                },
                {
                    "name": "A#4",
                    "midi": 70,
                    "time": 141.89311400000327,
                    "velocity": 0.5433070866141733,
                    "duration": 0.21776960416667634
                },
                {
                    "name": "A#5",
                    "midi": 82,
                    "time": 141.89311400000327,
                    "velocity": 0.6456692913385826,
                    "duration": 0.21776960416667634
                },
                {
                    "name": "A#4",
                    "midi": 70,
                    "time": 142.11551700000328,
                    "velocity": 0.5984251968503937,
                    "duration": 0.22240300000001412
                },
                {
                    "name": "D#5",
                    "midi": 75,
                    "time": 142.11551700000328,
                    "velocity": 0.7086614173228346,
                    "duration": 0.22240300000001412
                },
                {
                    "name": "A#5",
                    "midi": 82,
                    "time": 142.11551700000328,
                    "velocity": 0.7086614173228346,
                    "duration": 0.22240300000001412
                },
                {
                    "name": "G#4",
                    "midi": 68,
                    "time": 142.3379200000033,
                    "velocity": 0.5433070866141733,
                    "duration": 0.22240300000001412
                },
                {
                    "name": "G#5",
                    "midi": 80,
                    "time": 142.3379200000033,
                    "velocity": 0.6377952755905512,
                    "duration": 0.22240300000001412
                },
                {
                    "name": "F#5",
                    "midi": 78,
                    "time": 142.5603230000033,
                    "velocity": 0.5590551181102362,
                    "duration": 0.21776960416667634
                },
                {
                    "name": "F#4",
                    "midi": 66,
                    "time": 142.5603230000033,
                    "velocity": 0.47244094488188976,
                    "duration": 0.21776960416667634
                },
                {
                    "name": "F#4",
                    "midi": 66,
                    "time": 142.78272600000332,
                    "velocity": 0.5433070866141733,
                    "duration": 0.22240300000001412
                },
                {
                    "name": "F#5",
                    "midi": 78,
                    "time": 142.78272600000332,
                    "velocity": 0.6456692913385826,
                    "duration": 0.22240300000001412
                },
                {
                    "name": "F5",
                    "midi": 77,
                    "time": 143.00512900000334,
                    "velocity": 0.5669291338582677,
                    "duration": 0.22240300000001412
                },
                {
                    "name": "F4",
                    "midi": 65,
                    "time": 143.00512900000334,
                    "velocity": 0.48031496062992124,
                    "duration": 0.22240300000001412
                },
                {
                    "name": "D#4",
                    "midi": 63,
                    "time": 143.22753200000335,
                    "velocity": 0.4251968503937008,
                    "duration": 0.21776960416667634
                },
                {
                    "name": "D#5",
                    "midi": 75,
                    "time": 143.22753200000335,
                    "velocity": 0.5039370078740157,
                    "duration": 0.21776960416667634
                },
                {
                    "name": "C#5",
                    "midi": 73,
                    "time": 143.44993500000336,
                    "velocity": 0.5590551181102362,
                    "duration": 0.2001626999999928
                },
                {
                    "name": "C#4",
                    "midi": 61,
                    "time": 143.44993500000336,
                    "velocity": 0.47244094488188976,
                    "duration": 0.2001626999999928
                },
                {
                    "name": "C#4",
                    "midi": 61,
                    "time": 143.67233800000335,
                    "velocity": 0.4409448818897638,
                    "duration": 0.2001626999999928
                },
                {
                    "name": "C#5",
                    "midi": 73,
                    "time": 143.67233800000335,
                    "velocity": 0.5196850393700787,
                    "duration": 0.2001626999999928
                },
                {
                    "name": "C#5",
                    "midi": 73,
                    "time": 143.89474100000334,
                    "velocity": 0.47244094488188976,
                    "duration": 0.21776960416667634
                },
                {
                    "name": "C#4",
                    "midi": 61,
                    "time": 143.89474100000334,
                    "velocity": 0.4015748031496063,
                    "duration": 0.21776960416667634
                },
                {
                    "name": "C#5",
                    "midi": 73,
                    "time": 144.11714400000335,
                    "velocity": 0.4881889763779528,
                    "duration": 0.22240300000001412
                },
                {
                    "name": "C#4",
                    "midi": 61,
                    "time": 144.11714400000335,
                    "velocity": 0.4094488188976378,
                    "duration": 0.22240300000001412
                },
                {
                    "name": "A#4",
                    "midi": 70,
                    "time": 144.11714400000335,
                    "velocity": 0.4094488188976378,
                    "duration": 0.22240300000001412
                },
                {
                    "name": "G#4",
                    "midi": 68,
                    "time": 144.33954700000336,
                    "velocity": 0.3779527559055118,
                    "duration": 0.22240300000001412
                },
                {
                    "name": "B4",
                    "midi": 71,
                    "time": 144.33954700000336,
                    "velocity": 0.44881889763779526,
                    "duration": 0.22240300000001412
                },
                {
                    "name": "F#4",
                    "midi": 66,
                    "time": 144.56195000000338,
                    "velocity": 0.30708661417322836,
                    "duration": 0.22240300000001412
                },
                {
                    "name": "A#4",
                    "midi": 70,
                    "time": 144.56195000000338,
                    "velocity": 0.36220472440944884,
                    "duration": 0.22240300000001412
                },
                {
                    "name": "C#5",
                    "midi": 73,
                    "time": 144.7843530000034,
                    "velocity": 0.4409448818897638,
                    "duration": 0.22240300000001412
                },
                {
                    "name": "D#4",
                    "midi": 63,
                    "time": 144.7843530000034,
                    "velocity": 0.3700787401574803,
                    "duration": 0.6672090000000424
                },
                {
                    "name": "B4",
                    "midi": 71,
                    "time": 145.0067560000034,
                    "velocity": 0.3858267716535433,
                    "duration": 0.22240300000001412
                },
                {
                    "name": "G#4",
                    "midi": 68,
                    "time": 145.22915900000342,
                    "velocity": 0.3228346456692913,
                    "duration": 0.22240300000001412
                },
                {
                    "name": "F#4",
                    "midi": 66,
                    "time": 145.45156200000343,
                    "velocity": 0.4015748031496063,
                    "duration": 0.6672089999999571
                },
                {
                    "name": "C#4",
                    "midi": 61,
                    "time": 145.56276350000343,
                    "velocity": 0.33858267716535434,
                    "duration": 0.11120149999999285
                },
                {
                    "name": "C4",
                    "midi": 60,
                    "time": 145.67396500000342,
                    "velocity": 0.33858267716535434,
                    "duration": 0.11120149999999285
                },
                {
                    "name": "C#4",
                    "midi": 61,
                    "time": 145.7851665000034,
                    "velocity": 0.31496062992125984,
                    "duration": 0.11120149999999285
                },
                {
                    "name": "D#4",
                    "midi": 63,
                    "time": 145.8963680000034,
                    "velocity": 0.33858267716535434,
                    "duration": 0.11120149999999285
                },
                {
                    "name": "C#4",
                    "midi": 61,
                    "time": 146.0075695000034,
                    "velocity": 0.31496062992125984,
                    "duration": 0.11120149999999285
                },
                {
                    "name": "F4",
                    "midi": 65,
                    "time": 146.1187710000034,
                    "velocity": 0.3858267716535433,
                    "duration": 0.6672090000000139
                },
                {
                    "name": "F#4",
                    "midi": 66,
                    "time": 146.7859800000034,
                    "velocity": 0.5275590551181102,
                    "duration": 0.22240300000001412
                },
                {
                    "name": "F#5",
                    "midi": 78,
                    "time": 146.7859800000034,
                    "velocity": 0.6220472440944882,
                    "duration": 0.22240300000001412
                },
                {
                    "name": "C#5",
                    "midi": 73,
                    "time": 147.00838300000342,
                    "velocity": 0.5354330708661418,
                    "duration": 0.22240300000001412
                },
                {
                    "name": "F5",
                    "midi": 77,
                    "time": 147.00838300000342,
                    "velocity": 0.5354330708661418,
                    "duration": 0.22240300000001412
                },
                {
                    "name": "B4",
                    "midi": 71,
                    "time": 147.23078600000343,
                    "velocity": 0.5118110236220472,
                    "duration": 0.22240300000001412
                },
                {
                    "name": "D#5",
                    "midi": 75,
                    "time": 147.23078600000343,
                    "velocity": 0.5118110236220472,
                    "duration": 0.22240300000001412
                },
                {
                    "name": "A#4",
                    "midi": 70,
                    "time": 147.45318900000345,
                    "velocity": 0.48031496062992124,
                    "duration": 0.22240300000001412
                },
                {
                    "name": "C#5",
                    "midi": 73,
                    "time": 147.45318900000345,
                    "velocity": 0.48031496062992124,
                    "duration": 0.22240300000001412
                },
                {
                    "name": "A4",
                    "midi": 69,
                    "time": 147.67559200000346,
                    "velocity": 0.4645669291338583,
                    "duration": 0.22240300000001412
                },
                {
                    "name": "C5",
                    "midi": 72,
                    "time": 147.67559200000346,
                    "velocity": 0.4645669291338583,
                    "duration": 0.22240300000001412
                },
                {
                    "name": "G#4",
                    "midi": 68,
                    "time": 147.89799500000348,
                    "velocity": 0.4645669291338583,
                    "duration": 0.22240300000001412
                },
                {
                    "name": "B4",
                    "midi": 71,
                    "time": 147.89799500000348,
                    "velocity": 0.4645669291338583,
                    "duration": 0.22240300000001412
                },
                {
                    "name": "A#4",
                    "midi": 70,
                    "time": 148.1203980000035,
                    "velocity": 0.4881889763779528,
                    "duration": 0.11120149999999285
                },
                {
                    "name": "F#4",
                    "midi": 66,
                    "time": 148.1203980000035,
                    "velocity": 0.4330708661417323,
                    "duration": 0.11120149999999285
                },
                {
                    "name": "B4",
                    "midi": 71,
                    "time": 148.34280100000348,
                    "velocity": 0.44881889763779526,
                    "duration": 0.08340112499999464
                },
                {
                    "name": "F#4",
                    "midi": 66,
                    "time": 148.34280100000348,
                    "velocity": 0.3937007874015748,
                    "duration": 0.08340112499999464
                },
                {
                    "name": "A#4",
                    "midi": 70,
                    "time": 148.56520400000346,
                    "velocity": 0.4015748031496063,
                    "duration": 0.08340112499999464
                },
                {
                    "name": "F#4",
                    "midi": 66,
                    "time": 148.56520400000346,
                    "velocity": 0.3543307086614173,
                    "duration": 0.08340112499999464
                },
                {
                    "name": "F#4",
                    "midi": 66,
                    "time": 148.78760700000345,
                    "velocity": 0.3937007874015748,
                    "duration": 0.08340112499999464
                },
                {
                    "name": "D#4",
                    "midi": 63,
                    "time": 148.78760700000345,
                    "velocity": 0.3937007874015748,
                    "duration": 0.08340112499999464
                },
                {
                    "name": "G#4",
                    "midi": 68,
                    "time": 148.78760700000345,
                    "velocity": 0.44881889763779526,
                    "duration": 0.08340112499999464
                },
                {
                    "name": "F4",
                    "midi": 65,
                    "time": 149.23241300000345,
                    "velocity": 0.5196850393700787,
                    "duration": 0.11120149999999285
                },
                {
                    "name": "F#4",
                    "midi": 66,
                    "time": 149.45481600000343,
                    "velocity": 0.47244094488188976,
                    "duration": 0.22240300000001412
                },
                {
                    "name": "F#5",
                    "midi": 78,
                    "time": 149.45481600000343,
                    "velocity": 0.5590551181102362,
                    "duration": 0.22240300000001412
                },
                {
                    "name": "C#5",
                    "midi": 73,
                    "time": 149.67721900000345,
                    "velocity": 0.4015748031496063,
                    "duration": 0.22240300000001412
                },
                {
                    "name": "F5",
                    "midi": 77,
                    "time": 149.67721900000345,
                    "velocity": 0.48031496062992124,
                    "duration": 0.22240300000001412
                },
                {
                    "name": "B4",
                    "midi": 71,
                    "time": 149.89962200000346,
                    "velocity": 0.3858267716535433,
                    "duration": 0.22240300000001412
                },
                {
                    "name": "D#5",
                    "midi": 75,
                    "time": 149.89962200000346,
                    "velocity": 0.4566929133858268,
                    "duration": 0.22240300000001412
                },
                {
                    "name": "A#4",
                    "midi": 70,
                    "time": 150.12202500000348,
                    "velocity": 0.3543307086614173,
                    "duration": 0.22240300000001412
                },
                {
                    "name": "C#5",
                    "midi": 73,
                    "time": 150.12202500000348,
                    "velocity": 0.4251968503937008,
                    "duration": 0.22240300000001412
                },
                {
                    "name": "A4",
                    "midi": 69,
                    "time": 150.3444280000035,
                    "velocity": 0.3543307086614173,
                    "duration": 0.22240300000001412
                },
                {
                    "name": "C5",
                    "midi": 72,
                    "time": 150.3444280000035,
                    "velocity": 0.41732283464566927,
                    "duration": 0.22240300000001412
                },
                {
                    "name": "G#4",
                    "midi": 68,
                    "time": 150.5668310000035,
                    "velocity": 0.3543307086614173,
                    "duration": 0.22240300000001412
                },
                {
                    "name": "B4",
                    "midi": 71,
                    "time": 150.5668310000035,
                    "velocity": 0.41732283464566927,
                    "duration": 0.22240300000001412
                },
                {
                    "name": "A#4",
                    "midi": 70,
                    "time": 150.78923400000352,
                    "velocity": 0.3937007874015748,
                    "duration": 0.11120149999999285
                },
                {
                    "name": "F4",
                    "midi": 65,
                    "time": 150.9004355000035,
                    "velocity": 0.3700787401574803,
                    "duration": 0.11120149999999285
                },
                {
                    "name": "F#4",
                    "midi": 66,
                    "time": 151.0116370000035,
                    "velocity": 0.3700787401574803,
                    "duration": 0.11120149999999285
                },
                {
                    "name": "G#4",
                    "midi": 68,
                    "time": 151.1228385000035,
                    "velocity": 0.3700787401574803,
                    "duration": 0.11120149999999285
                },
                {
                    "name": "A#4",
                    "midi": 70,
                    "time": 151.2340400000035,
                    "velocity": 0.4015748031496063,
                    "duration": 0.11120149999999285
                },
                {
                    "name": "B4",
                    "midi": 71,
                    "time": 151.34524150000348,
                    "velocity": 0.3700787401574803,
                    "duration": 0.11120149999999285
                },
                {
                    "name": "C#5",
                    "midi": 73,
                    "time": 151.45644300000347,
                    "velocity": 0.3937007874015748,
                    "duration": 0.11120149999999285
                },
                {
                    "name": "C5",
                    "midi": 72,
                    "time": 151.56764450000347,
                    "velocity": 0.3700787401574803,
                    "duration": 0.11120149999999285
                },
                {
                    "name": "C#5",
                    "midi": 73,
                    "time": 151.67884600000346,
                    "velocity": 0.3858267716535433,
                    "duration": 0.11120149999999285
                },
                {
                    "name": "D#5",
                    "midi": 75,
                    "time": 151.79004750000345,
                    "velocity": 0.3700787401574803,
                    "duration": 0.11120149999999285
                },
                {
                    "name": "E5",
                    "midi": 76,
                    "time": 151.90124900000345,
                    "velocity": 0.3937007874015748,
                    "duration": 0.11120149999999285
                },
                {
                    "name": "F5",
                    "midi": 77,
                    "time": 152.01245050000344,
                    "velocity": 0.3700787401574803,
                    "duration": 0.11120149999999285
                },
                {
                    "name": "F#5",
                    "midi": 78,
                    "time": 152.12365200000343,
                    "velocity": 0.3937007874015748,
                    "duration": 0.11120149999999285
                },
                {
                    "name": "F5",
                    "midi": 77,
                    "time": 152.23485350000342,
                    "velocity": 0.3937007874015748,
                    "duration": 0.11120149999999285
                },
                {
                    "name": "F#5",
                    "midi": 78,
                    "time": 152.34605500000342,
                    "velocity": 0.3858267716535433,
                    "duration": 0.11120149999999285
                },
                {
                    "name": "G#5",
                    "midi": 80,
                    "time": 152.4572565000034,
                    "velocity": 0.3779527559055118,
                    "duration": 0.11120149999999285
                },
                {
                    "name": "A#5",
                    "midi": 82,
                    "time": 152.5684580000034,
                    "velocity": 0.4015748031496063,
                    "duration": 0.11120149999999285
                },
                {
                    "name": "B5",
                    "midi": 83,
                    "time": 152.6796595000034,
                    "velocity": 0.3543307086614173,
                    "duration": 0.11120149999999285
                },
                {
                    "name": "C#6",
                    "midi": 85,
                    "time": 152.7908610000034,
                    "velocity": 0.36220472440944884,
                    "duration": 0.11120149999999285
                },
                {
                    "name": "C6",
                    "midi": 84,
                    "time": 152.90206250000338,
                    "velocity": 0.33858267716535434,
                    "duration": 0.11120149999999285
                },
                {
                    "name": "C#6",
                    "midi": 85,
                    "time": 153.01326400000337,
                    "velocity": 0.33070866141732286,
                    "duration": 0.11120149999999285
                },
                {
                    "name": "D#6",
                    "midi": 87,
                    "time": 153.12446550000337,
                    "velocity": 0.31496062992125984,
                    "duration": 0.11120149999999285
                },
                {
                    "name": "E6",
                    "midi": 88,
                    "time": 153.23566700000336,
                    "velocity": 0.3228346456692913,
                    "duration": 0.11120149999999285
                },
                {
                    "name": "F6",
                    "midi": 89,
                    "time": 153.34686850000335,
                    "velocity": 0.2992125984251969,
                    "duration": 0.11120149999999285
                },
                {
                    "name": "F#6",
                    "midi": 90,
                    "time": 153.45807000000335,
                    "velocity": 0.3464566929133858,
                    "duration": 0.11120149999999285
                },
                {
                    "name": "C#6",
                    "midi": 85,
                    "time": 153.56927150000334,
                    "velocity": 0.3464566929133858,
                    "duration": 0.11120149999999285
                },
                {
                    "name": "A#5",
                    "midi": 82,
                    "time": 153.68047300000333,
                    "velocity": 0.31496062992125984,
                    "duration": 0.11120149999999285
                },
                {
                    "name": "G#5",
                    "midi": 80,
                    "time": 153.79167450000332,
                    "velocity": 0.29133858267716534,
                    "duration": 0.11120149999999285
                },
                {
                    "name": "A#5",
                    "midi": 82,
                    "time": 153.90287600000332,
                    "velocity": 0.31496062992125984,
                    "duration": 0.11120149999999285
                },
                {
                    "name": "F#5",
                    "midi": 78,
                    "time": 154.0140775000033,
                    "velocity": 0.28346456692913385,
                    "duration": 0.11120149999999285
                },
                {
                    "name": "C#6",
                    "midi": 85,
                    "time": 154.1252790000033,
                    "velocity": 0.3543307086614173,
                    "duration": 0.11120149999999285
                },
                {
                    "name": "A#5",
                    "midi": 82,
                    "time": 154.2364805000033,
                    "velocity": 0.28346456692913385,
                    "duration": 0.11120149999999285
                },
                {
                    "name": "F#5",
                    "midi": 78,
                    "time": 154.3476820000033,
                    "velocity": 0.31496062992125984,
                    "duration": 0.11120149999999285
                },
                {
                    "name": "F5",
                    "midi": 77,
                    "time": 154.45888350000328,
                    "velocity": 0.28346456692913385,
                    "duration": 0.11120149999999285
                },
                {
                    "name": "F#5",
                    "midi": 78,
                    "time": 154.57008500000327,
                    "velocity": 0.31496062992125984,
                    "duration": 0.11120149999999285
                },
                {
                    "name": "C#5",
                    "midi": 73,
                    "time": 154.68128650000327,
                    "velocity": 0.28346456692913385,
                    "duration": 0.11120149999999285
                },
                {
                    "name": "A#5",
                    "midi": 82,
                    "time": 154.79248800000326,
                    "velocity": 0.3543307086614173,
                    "duration": 0.11120149999999285
                },
                {
                    "name": "F#5",
                    "midi": 78,
                    "time": 154.90368950000325,
                    "velocity": 0.28346456692913385,
                    "duration": 0.11120149999999285
                },
                {
                    "name": "C#5",
                    "midi": 73,
                    "time": 155.01489100000325,
                    "velocity": 0.31496062992125984,
                    "duration": 0.11120149999999285
                },
                {
                    "name": "B4",
                    "midi": 71,
                    "time": 155.12609250000324,
                    "velocity": 0.28346456692913385,
                    "duration": 0.11120149999999285
                },
                {
                    "name": "C#5",
                    "midi": 73,
                    "time": 155.23729400000323,
                    "velocity": 0.31496062992125984,
                    "duration": 0.11120149999999285
                },
                {
                    "name": "A#4",
                    "midi": 70,
                    "time": 155.34849550000322,
                    "velocity": 0.28346456692913385,
                    "duration": 0.11120149999999285
                },
                {
                    "name": "F#5",
                    "midi": 78,
                    "time": 155.45969700000322,
                    "velocity": 0.3543307086614173,
                    "duration": 0.11120149999999285
                },
                {
                    "name": "C#5",
                    "midi": 73,
                    "time": 155.5708985000032,
                    "velocity": 0.28346456692913385,
                    "duration": 0.11120149999999285
                },
                {
                    "name": "A#4",
                    "midi": 70,
                    "time": 155.6821000000032,
                    "velocity": 0.31496062992125984,
                    "duration": 0.11120149999999285
                },
                {
                    "name": "G#4",
                    "midi": 68,
                    "time": 155.7933015000032,
                    "velocity": 0.28346456692913385,
                    "duration": 0.11120149999999285
                },
                {
                    "name": "A#4",
                    "midi": 70,
                    "time": 155.9045030000032,
                    "velocity": 0.31496062992125984,
                    "duration": 0.11120149999999285
                },
                {
                    "name": "F#4",
                    "midi": 66,
                    "time": 156.01570450000318,
                    "velocity": 0.28346456692913385,
                    "duration": 0.11120149999999285
                },
                {
                    "name": "C#5",
                    "midi": 73,
                    "time": 156.12690600000317,
                    "velocity": 0.3543307086614173,
                    "duration": 0.11120149999999285
                },
                {
                    "name": "A#4",
                    "midi": 70,
                    "time": 156.23810750000317,
                    "velocity": 0.29133858267716534,
                    "duration": 0.11120149999999285
                },
                {
                    "name": "F#4",
                    "midi": 66,
                    "time": 156.34930900000316,
                    "velocity": 0.29133858267716534,
                    "duration": 0.11120149999999285
                },
                {
                    "name": "C#4",
                    "midi": 61,
                    "time": 156.46051050000315,
                    "velocity": 0.29133858267716534,
                    "duration": 0.11120149999999285
                },
                {
                    "name": "A#4",
                    "midi": 70,
                    "time": 156.90531650000315,
                    "velocity": 0.30708661417322836,
                    "duration": 0.11120149999999285
                },
                {
                    "name": "C#5",
                    "midi": 73,
                    "time": 157.01651800000315,
                    "velocity": 0.33070866141732286,
                    "duration": 0.11120149999999285
                },
                {
                    "name": "F#5",
                    "midi": 78,
                    "time": 157.12771950000314,
                    "velocity": 0.31496062992125984,
                    "duration": 0.11120149999999285
                },
                {
                    "name": "A#5",
                    "midi": 82,
                    "time": 157.23892100000313,
                    "velocity": 0.33858267716535434,
                    "duration": 0.11120149999999285
                },
                {
                    "name": "C#6",
                    "midi": 85,
                    "time": 157.35012250000312,
                    "velocity": 0.30708661417322836,
                    "duration": 0.11120149999999285
                },
                {
                    "name": "F#6",
                    "midi": 90,
                    "time": 157.46132400000312,
                    "velocity": 0.3543307086614173,
                    "duration": 0.11120149999999285
                },
                {
                    "name": "A#3",
                    "midi": 58,
                    "time": 158.1285330000031,
                    "velocity": 0.2047244094488189,
                    "duration": 0.22240300000001412
                },
                {
                    "name": "F#4",
                    "midi": 66,
                    "time": 158.1285330000031,
                    "velocity": 0.2047244094488189,
                    "duration": 0.22240300000001412
                },
                {
                    "name": "A#4",
                    "midi": 70,
                    "time": 158.1285330000031,
                    "velocity": 0.2440944881889764,
                    "duration": 0.22240300000001412
                },
                {
                    "name": "F#5",
                    "midi": 78,
                    "time": 158.79574200000312,
                    "velocity": 0.2992125984251969,
                    "duration": 0.22240300000001412
                },
                {
                    "name": "A#4",
                    "midi": 70,
                    "time": 158.79574200000312,
                    "velocity": 0.25196850393700787,
                    "duration": 0.22240300000001412
                }
            ],
            "controlChanges": {},
            "id": 1,
            "name": "Piano right",
            "instrumentNumber": 0,
            "instrument": "acoustic grand piano",
            "instrumentFamily": "piano",
            "channelNumber": 0,
            "isPercussion": false
        },
        {
            "startTime": 1.3344179999999999,
            "duration": 159.0181450000004,
            "length": 785,
            "notes": [
                {
                    "name": "F#1",
                    "midi": 30,
                    "time": 1.3344179999999999,
                    "velocity": 0.31496062992125984,
                    "duration": 0.44480600000000003
                },
                {
                    "name": "F#2",
                    "midi": 42,
                    "time": 1.3344179999999999,
                    "velocity": 0.3779527559055118,
                    "duration": 0.44480600000000003
                },
                {
                    "name": "F#2",
                    "midi": 42,
                    "time": 2.001627,
                    "velocity": 0.31496062992125984,
                    "duration": 0.4448059999999998
                },
                {
                    "name": "F#3",
                    "midi": 54,
                    "time": 2.001627,
                    "velocity": 0.3779527559055118,
                    "duration": 0.4448059999999998
                },
                {
                    "name": "D4",
                    "midi": 62,
                    "time": 2.6688359999999998,
                    "velocity": 0.47244094488188976,
                    "duration": 0.4448059999999998
                },
                {
                    "name": "A3",
                    "midi": 57,
                    "time": 2.6688359999999998,
                    "velocity": 0.3937007874015748,
                    "duration": 1.0008134999999996
                },
                {
                    "name": "F#3",
                    "midi": 54,
                    "time": 2.6688359999999998,
                    "velocity": 0.3937007874015748,
                    "duration": 1.0008134999999996
                },
                {
                    "name": "C#4",
                    "midi": 61,
                    "time": 3.1136419999999996,
                    "velocity": 0.3779527559055118,
                    "duration": 0.2224029999999999
                },
                {
                    "name": "C4",
                    "midi": 60,
                    "time": 3.3360449999999995,
                    "velocity": 0.4251968503937008,
                    "duration": 0.4448059999999998
                },
                {
                    "name": "A3",
                    "midi": 57,
                    "time": 3.7808509999999993,
                    "velocity": 0.30708661417322836,
                    "duration": 0.2224029999999999
                },
                {
                    "name": "F#3",
                    "midi": 54,
                    "time": 3.7808509999999993,
                    "velocity": 0.25984251968503935,
                    "duration": 0.2224029999999999
                },
                {
                    "name": "F3",
                    "midi": 53,
                    "time": 4.003253999999999,
                    "velocity": 0.31496062992125984,
                    "duration": 0.2224029999999999
                },
                {
                    "name": "G#3",
                    "midi": 56,
                    "time": 4.003253999999999,
                    "velocity": 0.3779527559055118,
                    "duration": 0.2224029999999999
                },
                {
                    "name": "C#3",
                    "midi": 49,
                    "time": 4.448059999999999,
                    "velocity": 0.2992125984251969,
                    "duration": 0.2224029999999999
                },
                {
                    "name": "C#2",
                    "midi": 37,
                    "time": 4.448059999999999,
                    "velocity": 0.25196850393700787,
                    "duration": 0.2224029999999999
                },
                {
                    "name": "F#2",
                    "midi": 42,
                    "time": 4.670462999999999,
                    "velocity": 0.31496062992125984,
                    "duration": 0.2224029999999999
                },
                {
                    "name": "F#3",
                    "midi": 54,
                    "time": 4.670462999999999,
                    "velocity": 0.3779527559055118,
                    "duration": 0.2224029999999999
                },
                {
                    "name": "B1",
                    "midi": 35,
                    "time": 5.337671999999999,
                    "velocity": 0.31496062992125984,
                    "duration": 0.2224029999999999
                },
                {
                    "name": "B2",
                    "midi": 47,
                    "time": 5.337671999999999,
                    "velocity": 0.3779527559055118,
                    "duration": 0.2224029999999999
                },
                {
                    "name": "C#3",
                    "midi": 49,
                    "time": 6.004880999999998,
                    "velocity": 0.3228346456692913,
                    "duration": 0.2224029999999999
                },
                {
                    "name": "C#2",
                    "midi": 37,
                    "time": 6.004880999999998,
                    "velocity": 0.2677165354330709,
                    "duration": 0.2224029999999999
                },
                {
                    "name": "F#1",
                    "midi": 30,
                    "time": 6.672089999999998,
                    "velocity": 0.31496062992125984,
                    "duration": 0.4448059999999998
                },
                {
                    "name": "F#2",
                    "midi": 42,
                    "time": 6.672089999999998,
                    "velocity": 0.3779527559055118,
                    "duration": 0.4448059999999998
                },
                {
                    "name": "F#2",
                    "midi": 42,
                    "time": 7.339298999999998,
                    "velocity": 0.31496062992125984,
                    "duration": 0.4448059999999998
                },
                {
                    "name": "F#3",
                    "midi": 54,
                    "time": 7.339298999999998,
                    "velocity": 0.3779527559055118,
                    "duration": 0.4448059999999998
                },
                {
                    "name": "D4",
                    "midi": 62,
                    "time": 8.006507999999998,
                    "velocity": 0.4330708661417323,
                    "duration": 0.4448059999999998
                },
                {
                    "name": "A3",
                    "midi": 57,
                    "time": 8.006507999999998,
                    "velocity": 0.36220472440944884,
                    "duration": 1.0008134999999996
                },
                {
                    "name": "F#3",
                    "midi": 54,
                    "time": 8.006507999999998,
                    "velocity": 0.36220472440944884,
                    "duration": 1.0008134999999996
                },
                {
                    "name": "C#4",
                    "midi": 61,
                    "time": 8.451313999999998,
                    "velocity": 0.3779527559055118,
                    "duration": 0.2224029999999999
                },
                {
                    "name": "C4",
                    "midi": 60,
                    "time": 8.673716999999998,
                    "velocity": 0.4251968503937008,
                    "duration": 0.4448059999999998
                },
                {
                    "name": "A3",
                    "midi": 57,
                    "time": 9.118522999999998,
                    "velocity": 0.30708661417322836,
                    "duration": 0.2224029999999999
                },
                {
                    "name": "F#3",
                    "midi": 54,
                    "time": 9.118522999999998,
                    "velocity": 0.25984251968503935,
                    "duration": 0.2224029999999999
                },
                {
                    "name": "F3",
                    "midi": 53,
                    "time": 9.340925999999998,
                    "velocity": 0.31496062992125984,
                    "duration": 0.2224029999999999
                },
                {
                    "name": "G#3",
                    "midi": 56,
                    "time": 9.340925999999998,
                    "velocity": 0.3779527559055118,
                    "duration": 0.2224029999999999
                },
                {
                    "name": "F#3",
                    "midi": 54,
                    "time": 9.785731999999998,
                    "velocity": 0.2992125984251969,
                    "duration": 0.4448059999999998
                },
                {
                    "name": "F#2",
                    "midi": 42,
                    "time": 9.785731999999998,
                    "velocity": 0.25196850393700787,
                    "duration": 0.2224029999999999
                },
                {
                    "name": "B2",
                    "midi": 47,
                    "time": 10.008134999999998,
                    "velocity": 0.31496062992125984,
                    "duration": 0.2224029999999999
                },
                {
                    "name": "F#3",
                    "midi": 54,
                    "time": 10.452940999999997,
                    "velocity": 0.2992125984251969,
                    "duration": 0.2224029999999999
                },
                {
                    "name": "F#2",
                    "midi": 42,
                    "time": 10.452940999999997,
                    "velocity": 0.25196850393700787,
                    "duration": 0.2224029999999999
                },
                {
                    "name": "B2",
                    "midi": 47,
                    "time": 10.675343999999997,
                    "velocity": 0.3779527559055118,
                    "duration": 0.6672089999999997
                },
                {
                    "name": "C#3",
                    "midi": 49,
                    "time": 11.342552999999997,
                    "velocity": 0.31496062992125984,
                    "duration": 0.4448059999999998
                },
                {
                    "name": "F#3",
                    "midi": 54,
                    "time": 11.787358999999997,
                    "velocity": 0.2992125984251969,
                    "duration": 0.4448059999999998
                },
                {
                    "name": "F#2",
                    "midi": 42,
                    "time": 11.787358999999997,
                    "velocity": 0.25196850393700787,
                    "duration": 0.2224029999999999
                },
                {
                    "name": "B2",
                    "midi": 47,
                    "time": 12.009761999999997,
                    "velocity": 0.31496062992125984,
                    "duration": 0.2224029999999999
                },
                {
                    "name": "F#3",
                    "midi": 54,
                    "time": 12.454567999999997,
                    "velocity": 0.2992125984251969,
                    "duration": 0.4448059999999998
                },
                {
                    "name": "F#2",
                    "midi": 42,
                    "time": 12.454567999999997,
                    "velocity": 0.25196850393700787,
                    "duration": 0.2224029999999999
                },
                {
                    "name": "B2",
                    "midi": 47,
                    "time": 12.676970999999996,
                    "velocity": 0.31496062992125984,
                    "duration": 0.2224029999999999
                },
                {
                    "name": "F#3",
                    "midi": 54,
                    "time": 13.121776999999996,
                    "velocity": 0.2992125984251969,
                    "duration": 0.2224029999999999
                },
                {
                    "name": "F#2",
                    "midi": 42,
                    "time": 13.121776999999996,
                    "velocity": 0.25196850393700787,
                    "duration": 0.2224029999999999
                },
                {
                    "name": "B2",
                    "midi": 47,
                    "time": 13.344179999999996,
                    "velocity": 0.3779527559055118,
                    "duration": 0.6672089999999997
                },
                {
                    "name": "C#3",
                    "midi": 49,
                    "time": 14.011388999999996,
                    "velocity": 0.31496062992125984,
                    "duration": 0.4448059999999998
                },
                {
                    "name": "F#3",
                    "midi": 54,
                    "time": 14.456194999999996,
                    "velocity": 0.2992125984251969,
                    "duration": 0.4448059999999998
                },
                {
                    "name": "F#2",
                    "midi": 42,
                    "time": 14.456194999999996,
                    "velocity": 0.25196850393700787,
                    "duration": 0.2224029999999999
                },
                {
                    "name": "B2",
                    "midi": 47,
                    "time": 14.678597999999996,
                    "velocity": 0.31496062992125984,
                    "duration": 0.2224029999999999
                },
                {
                    "name": "C#4",
                    "midi": 61,
                    "time": 15.123403999999995,
                    "velocity": 0.2992125984251969,
                    "duration": 0.2224029999999999
                },
                {
                    "name": "B3",
                    "midi": 59,
                    "time": 15.345806999999995,
                    "velocity": 0.33070866141732286,
                    "duration": 0.2224029999999999
                },
                {
                    "name": "A3",
                    "midi": 57,
                    "time": 15.568209999999995,
                    "velocity": 0.36220472440944884,
                    "duration": 0.2224029999999999
                },
                {
                    "name": "G#3",
                    "midi": 56,
                    "time": 15.790612999999995,
                    "velocity": 0.3937007874015748,
                    "duration": 0.22240300000000168
                },
                {
                    "name": "F#3",
                    "midi": 54,
                    "time": 16.013015999999997,
                    "velocity": 0.4251968503937008,
                    "duration": 0.2224029999999999
                },
                {
                    "name": "E3",
                    "midi": 52,
                    "time": 16.235418999999997,
                    "velocity": 0.49606299212598426,
                    "duration": 0.2224029999999999
                },
                {
                    "name": "D3",
                    "midi": 50,
                    "time": 16.457821999999997,
                    "velocity": 0.5669291338582677,
                    "duration": 0.2224029999999999
                },
                {
                    "name": "C#3",
                    "midi": 49,
                    "time": 16.680224999999997,
                    "velocity": 0.6614173228346457,
                    "duration": 0.2224029999999999
                },
                {
                    "name": "A2",
                    "midi": 45,
                    "time": 16.902627999999996,
                    "velocity": 0.6456692913385826,
                    "duration": 0.2224029999999999
                },
                {
                    "name": "G2",
                    "midi": 43,
                    "time": 17.125030999999996,
                    "velocity": 0.6456692913385826,
                    "duration": 0.2224029999999999
                },
                {
                    "name": "F#2",
                    "midi": 42,
                    "time": 17.347433999999996,
                    "velocity": 0.6771653543307087,
                    "duration": 1.1120149999999995
                },
                {
                    "name": "A#2",
                    "midi": 46,
                    "time": 18.459448999999996,
                    "velocity": 0.5669291338582677,
                    "duration": 0.2224029999999999
                },
                {
                    "name": "B2",
                    "midi": 47,
                    "time": 18.681851999999996,
                    "velocity": 0.5511811023622047,
                    "duration": 0.4448059999999998
                },
                {
                    "name": "G#2",
                    "midi": 44,
                    "time": 19.126657999999995,
                    "velocity": 0.44881889763779526,
                    "duration": 0.2224029999999999
                },
                {
                    "name": "A2",
                    "midi": 45,
                    "time": 19.349060999999995,
                    "velocity": 0.4330708661417323,
                    "duration": 0.4448059999999998
                },
                {
                    "name": "D#2",
                    "midi": 39,
                    "time": 19.793866999999995,
                    "velocity": 0.3464566929133858,
                    "duration": 0.2224029999999999
                },
                {
                    "name": "E2",
                    "midi": 40,
                    "time": 20.016269999999995,
                    "velocity": 0.3700787401574803,
                    "duration": 0.2224029999999999
                },
                {
                    "name": "E3",
                    "midi": 52,
                    "time": 20.238672999999995,
                    "velocity": 0.5433070866141733,
                    "duration": 0.2224029999999999
                },
                {
                    "name": "G#2",
                    "midi": 44,
                    "time": 20.238672999999995,
                    "velocity": 0.4566929133858268,
                    "duration": 0.2224029999999999
                },
                {
                    "name": "A2",
                    "midi": 45,
                    "time": 20.461075999999995,
                    "velocity": 0.41732283464566927,
                    "duration": 0.2224029999999999
                },
                {
                    "name": "E2",
                    "midi": 40,
                    "time": 20.683478999999995,
                    "velocity": 0.4251968503937008,
                    "duration": 0.2224029999999999
                },
                {
                    "name": "E3",
                    "midi": 52,
                    "time": 20.905881999999995,
                    "velocity": 0.5433070866141733,
                    "duration": 0.2224029999999999
                },
                {
                    "name": "G#2",
                    "midi": 44,
                    "time": 20.905881999999995,
                    "velocity": 0.4566929133858268,
                    "duration": 0.2224029999999999
                },
                {
                    "name": "A2",
                    "midi": 45,
                    "time": 21.128284999999995,
                    "velocity": 0.41732283464566927,
                    "duration": 0.2224029999999999
                },
                {
                    "name": "E2",
                    "midi": 40,
                    "time": 21.350687999999995,
                    "velocity": 0.4251968503937008,
                    "duration": 0.2224029999999999
                },
                {
                    "name": "E3",
                    "midi": 52,
                    "time": 21.573090999999994,
                    "velocity": 0.5433070866141733,
                    "duration": 0.2224029999999999
                },
                {
                    "name": "G#2",
                    "midi": 44,
                    "time": 21.573090999999994,
                    "velocity": 0.4566929133858268,
                    "duration": 0.2224029999999999
                },
                {
                    "name": "A2",
                    "midi": 45,
                    "time": 21.795493999999994,
                    "velocity": 0.41732283464566927,
                    "duration": 0.2224029999999999
                },
                {
                    "name": "E2",
                    "midi": 40,
                    "time": 22.017896999999994,
                    "velocity": 0.4251968503937008,
                    "duration": 0.2224029999999999
                },
                {
                    "name": "E3",
                    "midi": 52,
                    "time": 22.240299999999994,
                    "velocity": 0.5433070866141733,
                    "duration": 0.2224029999999999
                },
                {
                    "name": "G#2",
                    "midi": 44,
                    "time": 22.240299999999994,
                    "velocity": 0.4566929133858268,
                    "duration": 0.2224029999999999
                },
                {
                    "name": "A2",
                    "midi": 45,
                    "time": 22.462702999999994,
                    "velocity": 0.41732283464566927,
                    "duration": 0.2224029999999999
                },
                {
                    "name": "E2",
                    "midi": 40,
                    "time": 22.685105999999994,
                    "velocity": 0.4251968503937008,
                    "duration": 0.2224029999999999
                },
                {
                    "name": "E2",
                    "midi": 40,
                    "time": 25.131538999999993,
                    "velocity": 0.4251968503937008,
                    "duration": 0.2224029999999999
                },
                {
                    "name": "A2",
                    "midi": 45,
                    "time": 25.353941999999993,
                    "velocity": 0.5039370078740157,
                    "duration": 0.8896119999999996
                },
                {
                    "name": "C#2",
                    "midi": 37,
                    "time": 25.353941999999993,
                    "velocity": 0.5039370078740157,
                    "duration": 0.4448059999999998
                },
                {
                    "name": "F#2",
                    "midi": 42,
                    "time": 26.021150999999993,
                    "velocity": 0.4566929133858268,
                    "duration": 0.4448059999999998
                },
                {
                    "name": "G#2",
                    "midi": 44,
                    "time": 26.243553999999992,
                    "velocity": 0.4881889763779528,
                    "duration": 0.2224029999999999
                },
                {
                    "name": "A2",
                    "midi": 45,
                    "time": 26.465956999999992,
                    "velocity": 0.5511811023622047,
                    "duration": 0.2224029999999999
                },
                {
                    "name": "B2",
                    "midi": 47,
                    "time": 26.688359999999992,
                    "velocity": 0.5669291338582677,
                    "duration": 0.6672089999999997
                },
                {
                    "name": "E2",
                    "midi": 40,
                    "time": 26.688359999999992,
                    "velocity": 0.5669291338582677,
                    "duration": 0.4448059999999998
                },
                {
                    "name": "A2",
                    "midi": 45,
                    "time": 27.355568999999992,
                    "velocity": 0.4251968503937008,
                    "duration": 0.4448059999999998
                },
                {
                    "name": "C#3",
                    "midi": 49,
                    "time": 27.355568999999992,
                    "velocity": 0.4251968503937008,
                    "duration": 0.6672089999999997
                },
                {
                    "name": "D2",
                    "midi": 38,
                    "time": 28.02277799999999,
                    "velocity": 0.5748031496062992,
                    "duration": 0.4448059999999998
                },
                {
                    "name": "E3",
                    "midi": 52,
                    "time": 28.02277799999999,
                    "velocity": 0.5748031496062992,
                    "duration": 0.2224029999999999
                },
                {
                    "name": "D3",
                    "midi": 50,
                    "time": 28.24518099999999,
                    "velocity": 0.4881889763779528,
                    "duration": 0.2224029999999999
                },
                {
                    "name": "C#3",
                    "midi": 49,
                    "time": 28.46758399999999,
                    "velocity": 0.4251968503937008,
                    "duration": 0.2224029999999999
                },
                {
                    "name": "E2",
                    "midi": 40,
                    "time": 28.68998699999999,
                    "velocity": 0.5196850393700787,
                    "duration": 0.4448059999999998
                },
                {
                    "name": "B2",
                    "midi": 47,
                    "time": 28.68998699999999,
                    "velocity": 0.5196850393700787,
                    "duration": 0.2224029999999999
                },
                {
                    "name": "C#3",
                    "midi": 49,
                    "time": 28.91238999999999,
                    "velocity": 0.3858267716535433,
                    "duration": 0.2224029999999999
                },
                {
                    "name": "B2",
                    "midi": 47,
                    "time": 29.13479299999999,
                    "velocity": 0.3228346456692913,
                    "duration": 0.2224029999999999
                },
                {
                    "name": "A2",
                    "midi": 45,
                    "time": 29.35719599999999,
                    "velocity": 0.3937007874015748,
                    "duration": 1.1120149999999995
                },
                {
                    "name": "C#3",
                    "midi": 49,
                    "time": 30.46921099999999,
                    "velocity": 0.28346456692913385,
                    "duration": 0.11120149999999995
                },
                {
                    "name": "A2",
                    "midi": 45,
                    "time": 30.58041249999999,
                    "velocity": 0.28346456692913385,
                    "duration": 0.11120149999999995
                },
                {
                    "name": "F#2",
                    "midi": 42,
                    "time": 30.69161399999999,
                    "velocity": 0.3779527559055118,
                    "duration": 0.11120149999999995
                },
                {
                    "name": "A2",
                    "midi": 45,
                    "time": 30.80281549999999,
                    "velocity": 0.28346456692913385,
                    "duration": 0.11120149999999995
                },
                {
                    "name": "B2",
                    "midi": 47,
                    "time": 30.91401699999999,
                    "velocity": 0.28346456692913385,
                    "duration": 0.11120149999999995
                },
                {
                    "name": "C#3",
                    "midi": 49,
                    "time": 31.02521849999999,
                    "velocity": 0.28346456692913385,
                    "duration": 0.11120149999999995
                },
                {
                    "name": "B2",
                    "midi": 47,
                    "time": 31.13641999999999,
                    "velocity": 0.29133858267716534,
                    "duration": 0.11120149999999995
                },
                {
                    "name": "A2",
                    "midi": 45,
                    "time": 31.24762149999999,
                    "velocity": 0.29133858267716534,
                    "duration": 0.11120149999999995
                },
                {
                    "name": "D#3",
                    "midi": 51,
                    "time": 31.35882299999999,
                    "velocity": 0.3700787401574803,
                    "duration": 0.11120149999999995
                },
                {
                    "name": "F#2",
                    "midi": 42,
                    "time": 31.47002449999999,
                    "velocity": 0.29133858267716534,
                    "duration": 0.11120149999999995
                },
                {
                    "name": "G#2",
                    "midi": 44,
                    "time": 31.58122599999999,
                    "velocity": 0.4015748031496063,
                    "duration": 0.11120149999999995
                },
                {
                    "name": "A2",
                    "midi": 45,
                    "time": 31.69242749999999,
                    "velocity": 0.3543307086614173,
                    "duration": 0.11120149999999995
                },
                {
                    "name": "G#2",
                    "midi": 44,
                    "time": 31.80362899999999,
                    "velocity": 0.4409448818897638,
                    "duration": 0.11120149999999995
                },
                {
                    "name": "F#2",
                    "midi": 42,
                    "time": 31.91483049999999,
                    "velocity": 0.3937007874015748,
                    "duration": 0.1112015000000035
                },
                {
                    "name": "E2",
                    "midi": 40,
                    "time": 32.026031999999994,
                    "velocity": 0.5118110236220472,
                    "duration": 0.11120149999999995
                },
                {
                    "name": "D3",
                    "midi": 50,
                    "time": 32.137233499999994,
                    "velocity": 0.2992125984251969,
                    "duration": 0.11120149999999995
                },
                {
                    "name": "E3",
                    "midi": 52,
                    "time": 32.24843499999999,
                    "velocity": 0.4094488188976378,
                    "duration": 0.11120149999999995
                },
                {
                    "name": "F#3",
                    "midi": 54,
                    "time": 32.35963649999999,
                    "velocity": 0.30708661417322836,
                    "duration": 0.11120149999999995
                },
                {
                    "name": "E3",
                    "midi": 52,
                    "time": 32.47083799999999,
                    "velocity": 0.4015748031496063,
                    "duration": 0.11120149999999995
                },
                {
                    "name": "D3",
                    "midi": 50,
                    "time": 32.58203949999999,
                    "velocity": 0.3700787401574803,
                    "duration": 0.11120149999999995
                },
                {
                    "name": "G3",
                    "midi": 55,
                    "time": 32.69324099999999,
                    "velocity": 0.5275590551181102,
                    "duration": 0.11120149999999995
                },
                {
                    "name": "A2",
                    "midi": 45,
                    "time": 32.69324099999999,
                    "velocity": 0.5275590551181102,
                    "duration": 0.11120149999999995
                },
                {
                    "name": "E3",
                    "midi": 52,
                    "time": 32.80444249999999,
                    "velocity": 0.3858267716535433,
                    "duration": 0.11120149999999995
                },
                {
                    "name": "C#3",
                    "midi": 49,
                    "time": 32.91564399999999,
                    "velocity": 0.4251968503937008,
                    "duration": 0.11120149999999995
                },
                {
                    "name": "B2",
                    "midi": 47,
                    "time": 33.02684549999999,
                    "velocity": 0.3700787401574803,
                    "duration": 0.11120149999999995
                },
                {
                    "name": "G2",
                    "midi": 43,
                    "time": 33.13804699999999,
                    "velocity": 0.44881889763779526,
                    "duration": 0.11120149999999995
                },
                {
                    "name": "E2",
                    "midi": 40,
                    "time": 33.24924849999999,
                    "velocity": 0.41732283464566927,
                    "duration": 0.11120149999999995
                },
                {
                    "name": "D2",
                    "midi": 38,
                    "time": 33.36044999999999,
                    "velocity": 0.5669291338582677,
                    "duration": 0.11120149999999995
                },
                {
                    "name": "F#2",
                    "midi": 42,
                    "time": 33.47165149999999,
                    "velocity": 0.4015748031496063,
                    "duration": 0.11120149999999995
                },
                {
                    "name": "G#2",
                    "midi": 44,
                    "time": 33.58285299999999,
                    "velocity": 0.4566929133858268,
                    "duration": 0.11120149999999995
                },
                {
                    "name": "A2",
                    "midi": 45,
                    "time": 33.69405449999999,
                    "velocity": 0.3779527559055118,
                    "duration": 0.11120149999999995
                },
                {
                    "name": "B2",
                    "midi": 47,
                    "time": 33.80525599999999,
                    "velocity": 0.4330708661417323,
                    "duration": 0.11120149999999995
                },
                {
                    "name": "C#3",
                    "midi": 49,
                    "time": 33.91645749999999,
                    "velocity": 0.3700787401574803,
                    "duration": 0.11120149999999995
                },
                {
                    "name": "D3",
                    "midi": 50,
                    "time": 34.02765899999999,
                    "velocity": 0.5039370078740157,
                    "duration": 0.11120149999999995
                },
                {
                    "name": "E2",
                    "midi": 40,
                    "time": 34.02765899999999,
                    "velocity": 0.5039370078740157,
                    "duration": 0.11120149999999995
                },
                {
                    "name": "C#3",
                    "midi": 49,
                    "time": 34.13886049999999,
                    "velocity": 0.3858267716535433,
                    "duration": 0.11120149999999995
                },
                {
                    "name": "D3",
                    "midi": 50,
                    "time": 34.25006199999999,
                    "velocity": 0.4330708661417323,
                    "duration": 0.11120149999999995
                },
                {
                    "name": "B2",
                    "midi": 47,
                    "time": 34.36126349999999,
                    "velocity": 0.3779527559055118,
                    "duration": 0.11120149999999995
                },
                {
                    "name": "E3",
                    "midi": 52,
                    "time": 34.47246499999999,
                    "velocity": 0.4251968503937008,
                    "duration": 0.11120149999999995
                },
                {
                    "name": "D3",
                    "midi": 50,
                    "time": 34.58366649999999,
                    "velocity": 0.3228346456692913,
                    "duration": 0.11120149999999995
                },
                {
                    "name": "C#3",
                    "midi": 49,
                    "time": 34.69486799999999,
                    "velocity": 0.47244094488188976,
                    "duration": 0.11120149999999995
                },
                {
                    "name": "A2",
                    "midi": 45,
                    "time": 34.69486799999999,
                    "velocity": 0.47244094488188976,
                    "duration": 0.11120149999999995
                },
                {
                    "name": "E3",
                    "midi": 52,
                    "time": 34.80606949999999,
                    "velocity": 0.4251968503937008,
                    "duration": 0.11120149999999995
                },
                {
                    "name": "D3",
                    "midi": 50,
                    "time": 34.91727099999999,
                    "velocity": 0.4251968503937008,
                    "duration": 0.11120149999999995
                },
                {
                    "name": "C#3",
                    "midi": 49,
                    "time": 35.02847249999999,
                    "velocity": 0.4251968503937008,
                    "duration": 0.11120149999999995
                },
                {
                    "name": "B2",
                    "midi": 47,
                    "time": 35.13967399999999,
                    "velocity": 0.4251968503937008,
                    "duration": 0.11120149999999995
                },
                {
                    "name": "A2",
                    "midi": 45,
                    "time": 35.25087549999999,
                    "velocity": 0.4015748031496063,
                    "duration": 0.11120149999999995
                },
                {
                    "name": "G#2",
                    "midi": 44,
                    "time": 35.36207699999999,
                    "velocity": 0.4330708661417323,
                    "duration": 0.11120149999999995
                },
                {
                    "name": "A2",
                    "midi": 45,
                    "time": 35.47327849999999,
                    "velocity": 0.4330708661417323,
                    "duration": 0.11120149999999995
                },
                {
                    "name": "G2",
                    "midi": 43,
                    "time": 35.58447999999999,
                    "velocity": 0.44881889763779526,
                    "duration": 0.11120149999999995
                },
                {
                    "name": "A2",
                    "midi": 45,
                    "time": 35.69568149999999,
                    "velocity": 0.47244094488188976,
                    "duration": 0.11120149999999995
                },
                {
                    "name": "F#2",
                    "midi": 42,
                    "time": 35.80688299999999,
                    "velocity": 0.48031496062992124,
                    "duration": 0.11120149999999995
                },
                {
                    "name": "A#2",
                    "midi": 46,
                    "time": 35.91808449999999,
                    "velocity": 0.5118110236220472,
                    "duration": 0.11120149999999995
                },
                {
                    "name": "D2",
                    "midi": 38,
                    "time": 36.02928599999999,
                    "velocity": 0.5905511811023622,
                    "duration": 0.11120149999999995
                },
                {
                    "name": "F#2",
                    "midi": 42,
                    "time": 36.14048749999999,
                    "velocity": 0.41732283464566927,
                    "duration": 0.11120149999999995
                },
                {
                    "name": "G#2",
                    "midi": 44,
                    "time": 36.25168899999999,
                    "velocity": 0.4881889763779528,
                    "duration": 0.11120149999999995
                },
                {
                    "name": "A2",
                    "midi": 45,
                    "time": 36.36289049999999,
                    "velocity": 0.3937007874015748,
                    "duration": 0.11120149999999995
                },
                {
                    "name": "B2",
                    "midi": 47,
                    "time": 36.47409199999999,
                    "velocity": 0.5118110236220472,
                    "duration": 0.11120149999999995
                },
                {
                    "name": "C#3",
                    "midi": 49,
                    "time": 36.58529349999999,
                    "velocity": 0.3858267716535433,
                    "duration": 0.11120149999999995
                },
                {
                    "name": "D3",
                    "midi": 50,
                    "time": 36.69649499999999,
                    "velocity": 0.5748031496062992,
                    "duration": 0.11120149999999995
                },
                {
                    "name": "E2",
                    "midi": 40,
                    "time": 36.80769649999999,
                    "velocity": 0.4015748031496063,
                    "duration": 0.11120149999999995
                },
                {
                    "name": "E3",
                    "midi": 52,
                    "time": 36.91889799999999,
                    "velocity": 0.5039370078740157,
                    "duration": 0.11120149999999995
                },
                {
                    "name": "E2",
                    "midi": 40,
                    "time": 37.03009949999999,
                    "velocity": 0.3937007874015748,
                    "duration": 0.11120149999999995
                },
                {
                    "name": "D3",
                    "midi": 50,
                    "time": 37.14130099999999,
                    "velocity": 0.4409448818897638,
                    "duration": 0.11120149999999995
                },
                {
                    "name": "E2",
                    "midi": 40,
                    "time": 37.25250249999999,
                    "velocity": 0.33858267716535434,
                    "duration": 0.11120149999999995
                },
                {
                    "name": "A2",
                    "midi": 45,
                    "time": 37.36370399999999,
                    "velocity": 0.49606299212598426,
                    "duration": 0.7784104999999997
                },
                {
                    "name": "C#3",
                    "midi": 49,
                    "time": 37.47490549999999,
                    "velocity": 0.3779527559055118,
                    "duration": 0.11120149999999995
                },
                {
                    "name": "D3",
                    "midi": 50,
                    "time": 37.58610699999999,
                    "velocity": 0.3937007874015748,
                    "duration": 0.11120149999999995
                },
                {
                    "name": "E3",
                    "midi": 52,
                    "time": 37.69730849999999,
                    "velocity": 0.36220472440944884,
                    "duration": 0.11120149999999995
                },
                {
                    "name": "F#3",
                    "midi": 54,
                    "time": 37.80850999999999,
                    "velocity": 0.3700787401574803,
                    "duration": 0.11120149999999995
                },
                {
                    "name": "D3",
                    "midi": 50,
                    "time": 37.91971149999999,
                    "velocity": 0.3543307086614173,
                    "duration": 0.11120149999999995
                },
                {
                    "name": "E3",
                    "midi": 52,
                    "time": 38.03091299999999,
                    "velocity": 0.3543307086614173,
                    "duration": 0.11120149999999995
                },
                {
                    "name": "F#3",
                    "midi": 54,
                    "time": 38.14211449999999,
                    "velocity": 0.3228346456692913,
                    "duration": 0.11120149999999995
                },
                {
                    "name": "G#3",
                    "midi": 56,
                    "time": 38.25331599999999,
                    "velocity": 0.33858267716535434,
                    "duration": 0.11120149999999995
                },
                {
                    "name": "E3",
                    "midi": 52,
                    "time": 38.36451749999999,
                    "velocity": 0.3228346456692913,
                    "duration": 0.11120149999999995
                },
                {
                    "name": "F#3",
                    "midi": 54,
                    "time": 38.47571899999999,
                    "velocity": 0.33070866141732286,
                    "duration": 0.11120149999999995
                },
                {
                    "name": "G#3",
                    "midi": 56,
                    "time": 38.58692049999999,
                    "velocity": 0.29133858267716534,
                    "duration": 0.11120149999999995
                },
                {
                    "name": "A3",
                    "midi": 57,
                    "time": 38.69812199999999,
                    "velocity": 0.33070866141732286,
                    "duration": 0.11120149999999995
                },
                {
                    "name": "F#4",
                    "midi": 66,
                    "time": 38.92052499999999,
                    "velocity": 0.2992125984251969,
                    "duration": 0.08340112500000174
                },
                {
                    "name": "E4",
                    "midi": 64,
                    "time": 39.14292799999999,
                    "velocity": 0.25196850393700787,
                    "duration": 0.08340112500000174
                },
                {
                    "name": "D#4",
                    "midi": 63,
                    "time": 39.36533099999999,
                    "velocity": 0.2992125984251969,
                    "duration": 0.08340112500000174
                },
                {
                    "name": "D4",
                    "midi": 62,
                    "time": 39.81013699999999,
                    "velocity": 0.2992125984251969,
                    "duration": 0.11120149999999995
                },
                {
                    "name": "A3",
                    "midi": 57,
                    "time": 40.03253999999999,
                    "velocity": 0.49606299212598426,
                    "duration": 0.7784104999999997
                },
                {
                    "name": "C#4",
                    "midi": 61,
                    "time": 40.14374149999999,
                    "velocity": 0.3779527559055118,
                    "duration": 0.11120149999999995
                },
                {
                    "name": "D4",
                    "midi": 62,
                    "time": 40.25494299999999,
                    "velocity": 0.3937007874015748,
                    "duration": 0.11120149999999995
                },
                {
                    "name": "E4",
                    "midi": 64,
                    "time": 40.36614449999999,
                    "velocity": 0.36220472440944884,
                    "duration": 0.11120149999999995
                },
                {
                    "name": "F#4",
                    "midi": 66,
                    "time": 40.47734599999999,
                    "velocity": 0.3700787401574803,
                    "duration": 0.11120149999999995
                },
                {
                    "name": "D4",
                    "midi": 62,
                    "time": 40.58854749999999,
                    "velocity": 0.3543307086614173,
                    "duration": 0.11120149999999995
                },
                {
                    "name": "E4",
                    "midi": 64,
                    "time": 40.69974899999999,
                    "velocity": 0.3543307086614173,
                    "duration": 0.11120149999999995
                },
                {
                    "name": "F#4",
                    "midi": 66,
                    "time": 40.81095049999999,
                    "velocity": 0.3228346456692913,
                    "duration": 0.11120149999999995
                },
                {
                    "name": "G#4",
                    "midi": 68,
                    "time": 40.92215199999999,
                    "velocity": 0.33858267716535434,
                    "duration": 0.11120149999999995
                },
                {
                    "name": "E4",
                    "midi": 64,
                    "time": 41.03335349999999,
                    "velocity": 0.3228346456692913,
                    "duration": 0.11120149999999995
                },
                {
                    "name": "F#4",
                    "midi": 66,
                    "time": 41.14455499999999,
                    "velocity": 0.33070866141732286,
                    "duration": 0.11120149999999995
                },
                {
                    "name": "G#4",
                    "midi": 68,
                    "time": 41.25575649999999,
                    "velocity": 0.29133858267716534,
                    "duration": 0.11120149999999995
                },
                {
                    "name": "A4",
                    "midi": 69,
                    "time": 41.36695799999999,
                    "velocity": 0.4409448818897638,
                    "duration": 0.7784104999999997
                },
                {
                    "name": "E4",
                    "midi": 64,
                    "time": 41.58936099999999,
                    "velocity": 0.4251968503937008,
                    "duration": 0.2224029999999999
                },
                {
                    "name": "G#4",
                    "midi": 68,
                    "time": 41.58936099999999,
                    "velocity": 0.5039370078740157,
                    "duration": 0.2224029999999999
                },
                {
                    "name": "D4",
                    "midi": 62,
                    "time": 41.81176399999999,
                    "velocity": 0.4015748031496063,
                    "duration": 0.2224029999999999
                },
                {
                    "name": "F#4",
                    "midi": 66,
                    "time": 41.81176399999999,
                    "velocity": 0.48031496062992124,
                    "duration": 0.2224029999999999
                },
                {
                    "name": "C#4",
                    "midi": 61,
                    "time": 42.03416699999999,
                    "velocity": 0.3779527559055118,
                    "duration": 0.2224029999999999
                },
                {
                    "name": "E4",
                    "midi": 64,
                    "time": 42.03416699999999,
                    "velocity": 0.44881889763779526,
                    "duration": 0.2224029999999999
                },
                {
                    "name": "C4",
                    "midi": 60,
                    "time": 42.25656999999999,
                    "velocity": 0.3700787401574803,
                    "duration": 0.2224029999999999
                },
                {
                    "name": "D#4",
                    "midi": 63,
                    "time": 42.25656999999999,
                    "velocity": 0.4409448818897638,
                    "duration": 0.2224029999999999
                },
                {
                    "name": "B3",
                    "midi": 59,
                    "time": 42.47897299999999,
                    "velocity": 0.3700787401574803,
                    "duration": 0.2224029999999999
                },
                {
                    "name": "D4",
                    "midi": 62,
                    "time": 42.47897299999999,
                    "velocity": 0.4409448818897638,
                    "duration": 0.2224029999999999
                },
                {
                    "name": "A3",
                    "midi": 57,
                    "time": 42.70137599999999,
                    "velocity": 0.3700787401574803,
                    "duration": 0.2224029999999999
                },
                {
                    "name": "C#4",
                    "midi": 61,
                    "time": 42.70137599999999,
                    "velocity": 0.4409448818897638,
                    "duration": 0.2224029999999999
                },
                {
                    "name": "E3",
                    "midi": 52,
                    "time": 42.92377899999999,
                    "velocity": 0.3779527559055118,
                    "duration": 0.2224029999999999
                },
                {
                    "name": "G#3",
                    "midi": 56,
                    "time": 42.92377899999999,
                    "velocity": 0.44881889763779526,
                    "duration": 0.2224029999999999
                },
                {
                    "name": "D3",
                    "midi": 50,
                    "time": 43.14618199999999,
                    "velocity": 0.3464566929133858,
                    "duration": 0.2224029999999999
                },
                {
                    "name": "F#3",
                    "midi": 54,
                    "time": 43.14618199999999,
                    "velocity": 0.41732283464566927,
                    "duration": 0.2224029999999999
                },
                {
                    "name": "C#3",
                    "midi": 49,
                    "time": 43.36858499999999,
                    "velocity": 0.31496062992125984,
                    "duration": 0.2224029999999999
                },
                {
                    "name": "E3",
                    "midi": 52,
                    "time": 43.36858499999999,
                    "velocity": 0.3779527559055118,
                    "duration": 0.2224029999999999
                },
                {
                    "name": "C3",
                    "midi": 48,
                    "time": 43.59098799999999,
                    "velocity": 0.30708661417322836,
                    "duration": 0.2224029999999999
                },
                {
                    "name": "D#3",
                    "midi": 51,
                    "time": 43.59098799999999,
                    "velocity": 0.36220472440944884,
                    "duration": 0.2224029999999999
                },
                {
                    "name": "B2",
                    "midi": 47,
                    "time": 43.81339099999999,
                    "velocity": 0.29133858267716534,
                    "duration": 0.2224029999999999
                },
                {
                    "name": "D3",
                    "midi": 50,
                    "time": 43.81339099999999,
                    "velocity": 0.3464566929133858,
                    "duration": 0.2224029999999999
                },
                {
                    "name": "A2",
                    "midi": 45,
                    "time": 44.03579399999999,
                    "velocity": 0.30708661417322836,
                    "duration": 0.6672089999999997
                },
                {
                    "name": "C#3",
                    "midi": 49,
                    "time": 44.03579399999999,
                    "velocity": 0.33858267716535434,
                    "duration": 0.6672089999999997
                },
                {
                    "name": "F#1",
                    "midi": 30,
                    "time": 45.37021199999999,
                    "velocity": 0.31496062992125984,
                    "duration": 0.4448059999999998
                },
                {
                    "name": "F#2",
                    "midi": 42,
                    "time": 45.37021199999999,
                    "velocity": 0.3779527559055118,
                    "duration": 0.4448059999999998
                },
                {
                    "name": "F#2",
                    "midi": 42,
                    "time": 46.03742099999999,
                    "velocity": 0.31496062992125984,
                    "duration": 0.4448059999999998
                },
                {
                    "name": "F#3",
                    "midi": 54,
                    "time": 46.03742099999999,
                    "velocity": 0.3779527559055118,
                    "duration": 0.4448059999999998
                },
                {
                    "name": "D4",
                    "midi": 62,
                    "time": 46.70462999999999,
                    "velocity": 0.47244094488188976,
                    "duration": 0.4448059999999998
                },
                {
                    "name": "A3",
                    "midi": 57,
                    "time": 46.70462999999999,
                    "velocity": 0.3937007874015748,
                    "duration": 1.0008134999999996
                },
                {
                    "name": "F#3",
                    "midi": 54,
                    "time": 46.70462999999999,
                    "velocity": 0.3937007874015748,
                    "duration": 1.0008134999999996
                },
                {
                    "name": "C#4",
                    "midi": 61,
                    "time": 47.14943599999999,
                    "velocity": 0.3779527559055118,
                    "duration": 0.2224029999999999
                },
                {
                    "name": "C4",
                    "midi": 60,
                    "time": 47.37183899999999,
                    "velocity": 0.4251968503937008,
                    "duration": 0.4448059999999998
                },
                {
                    "name": "A3",
                    "midi": 57,
                    "time": 47.81664499999999,
                    "velocity": 0.30708661417322836,
                    "duration": 0.2224029999999999
                },
                {
                    "name": "F#3",
                    "midi": 54,
                    "time": 47.81664499999999,
                    "velocity": 0.25984251968503935,
                    "duration": 0.2224029999999999
                },
                {
                    "name": "F3",
                    "midi": 53,
                    "time": 48.03904799999999,
                    "velocity": 0.31496062992125984,
                    "duration": 0.2224029999999999
                },
                {
                    "name": "G#3",
                    "midi": 56,
                    "time": 48.03904799999999,
                    "velocity": 0.3779527559055118,
                    "duration": 0.2224029999999999
                },
                {
                    "name": "C#3",
                    "midi": 49,
                    "time": 48.48385399999999,
                    "velocity": 0.2992125984251969,
                    "duration": 0.2224029999999999
                },
                {
                    "name": "C#2",
                    "midi": 37,
                    "time": 48.48385399999999,
                    "velocity": 0.25196850393700787,
                    "duration": 0.2224029999999999
                },
                {
                    "name": "F#2",
                    "midi": 42,
                    "time": 48.70625699999999,
                    "velocity": 0.31496062992125984,
                    "duration": 0.2224029999999999
                },
                {
                    "name": "F#3",
                    "midi": 54,
                    "time": 48.70625699999999,
                    "velocity": 0.3779527559055118,
                    "duration": 0.2224029999999999
                },
                {
                    "name": "B1",
                    "midi": 35,
                    "time": 49.373465999999986,
                    "velocity": 0.31496062992125984,
                    "duration": 0.2224029999999999
                },
                {
                    "name": "B2",
                    "midi": 47,
                    "time": 49.373465999999986,
                    "velocity": 0.3779527559055118,
                    "duration": 0.2224029999999999
                },
                {
                    "name": "C#3",
                    "midi": 49,
                    "time": 50.040674999999986,
                    "velocity": 0.3228346456692913,
                    "duration": 0.2224029999999999
                },
                {
                    "name": "C#2",
                    "midi": 37,
                    "time": 50.040674999999986,
                    "velocity": 0.2677165354330709,
                    "duration": 0.2224029999999999
                },
                {
                    "name": "F#1",
                    "midi": 30,
                    "time": 50.707883999999986,
                    "velocity": 0.31496062992125984,
                    "duration": 0.4448059999999998
                },
                {
                    "name": "F#2",
                    "midi": 42,
                    "time": 50.707883999999986,
                    "velocity": 0.3779527559055118,
                    "duration": 0.4448059999999998
                },
                {
                    "name": "F#2",
                    "midi": 42,
                    "time": 51.375092999999985,
                    "velocity": 0.31496062992125984,
                    "duration": 0.4448059999999998
                },
                {
                    "name": "F#3",
                    "midi": 54,
                    "time": 51.375092999999985,
                    "velocity": 0.3779527559055118,
                    "duration": 0.4448059999999998
                },
                {
                    "name": "D4",
                    "midi": 62,
                    "time": 52.042301999999985,
                    "velocity": 0.4330708661417323,
                    "duration": 0.4448059999999998
                },
                {
                    "name": "A3",
                    "midi": 57,
                    "time": 52.042301999999985,
                    "velocity": 0.36220472440944884,
                    "duration": 1.0008134999999996
                },
                {
                    "name": "F#3",
                    "midi": 54,
                    "time": 52.042301999999985,
                    "velocity": 0.36220472440944884,
                    "duration": 1.0008134999999996
                },
                {
                    "name": "C#4",
                    "midi": 61,
                    "time": 52.487107999999985,
                    "velocity": 0.3779527559055118,
                    "duration": 0.2224029999999999
                },
                {
                    "name": "C4",
                    "midi": 60,
                    "time": 52.709510999999985,
                    "velocity": 0.4251968503937008,
                    "duration": 0.4448059999999998
                },
                {
                    "name": "A3",
                    "midi": 57,
                    "time": 53.154316999999985,
                    "velocity": 0.30708661417322836,
                    "duration": 0.2224029999999999
                },
                {
                    "name": "F#3",
                    "midi": 54,
                    "time": 53.154316999999985,
                    "velocity": 0.25984251968503935,
                    "duration": 0.2224029999999999
                },
                {
                    "name": "F3",
                    "midi": 53,
                    "time": 53.376719999999985,
                    "velocity": 0.31496062992125984,
                    "duration": 0.2224029999999999
                },
                {
                    "name": "G#3",
                    "midi": 56,
                    "time": 53.376719999999985,
                    "velocity": 0.3779527559055118,
                    "duration": 0.2224029999999999
                },
                {
                    "name": "F#3",
                    "midi": 54,
                    "time": 53.821525999999984,
                    "velocity": 0.2992125984251969,
                    "duration": 0.4448059999999998
                },
                {
                    "name": "F#2",
                    "midi": 42,
                    "time": 53.821525999999984,
                    "velocity": 0.25196850393700787,
                    "duration": 0.2224029999999999
                },
                {
                    "name": "B2",
                    "midi": 47,
                    "time": 54.043928999999984,
                    "velocity": 0.31496062992125984,
                    "duration": 0.2224029999999999
                },
                {
                    "name": "F#3",
                    "midi": 54,
                    "time": 54.488734999999984,
                    "velocity": 0.2992125984251969,
                    "duration": 0.2224029999999999
                },
                {
                    "name": "F#2",
                    "midi": 42,
                    "time": 54.488734999999984,
                    "velocity": 0.25196850393700787,
                    "duration": 0.2224029999999999
                },
                {
                    "name": "B2",
                    "midi": 47,
                    "time": 54.711137999999984,
                    "velocity": 0.3779527559055118,
                    "duration": 0.6672089999999997
                },
                {
                    "name": "C#3",
                    "midi": 49,
                    "time": 55.378346999999984,
                    "velocity": 0.31496062992125984,
                    "duration": 0.4448059999999998
                },
                {
                    "name": "F#3",
                    "midi": 54,
                    "time": 55.823152999999984,
                    "velocity": 0.2992125984251969,
                    "duration": 0.4448059999999998
                },
                {
                    "name": "F#2",
                    "midi": 42,
                    "time": 55.823152999999984,
                    "velocity": 0.25196850393700787,
                    "duration": 0.2224029999999999
                },
                {
                    "name": "B2",
                    "midi": 47,
                    "time": 56.04555599999998,
                    "velocity": 0.31496062992125984,
                    "duration": 0.2224029999999999
                },
                {
                    "name": "F#3",
                    "midi": 54,
                    "time": 56.49036199999998,
                    "velocity": 0.2992125984251969,
                    "duration": 0.4448059999999998
                },
                {
                    "name": "F#2",
                    "midi": 42,
                    "time": 56.49036199999998,
                    "velocity": 0.25196850393700787,
                    "duration": 0.2224029999999999
                },
                {
                    "name": "B2",
                    "midi": 47,
                    "time": 56.71276499999998,
                    "velocity": 0.31496062992125984,
                    "duration": 0.2224029999999999
                },
                {
                    "name": "F#3",
                    "midi": 54,
                    "time": 57.15757099999998,
                    "velocity": 0.2992125984251969,
                    "duration": 0.2224029999999999
                },
                {
                    "name": "F#2",
                    "midi": 42,
                    "time": 57.15757099999998,
                    "velocity": 0.25196850393700787,
                    "duration": 0.2224029999999999
                },
                {
                    "name": "B2",
                    "midi": 47,
                    "time": 57.37997399999998,
                    "velocity": 0.3779527559055118,
                    "duration": 0.6672089999999997
                },
                {
                    "name": "C#3",
                    "midi": 49,
                    "time": 58.04718299999998,
                    "velocity": 0.31496062992125984,
                    "duration": 0.4448059999999998
                },
                {
                    "name": "F#3",
                    "midi": 54,
                    "time": 58.49198899999998,
                    "velocity": 0.2992125984251969,
                    "duration": 0.4448059999999998
                },
                {
                    "name": "F#2",
                    "midi": 42,
                    "time": 58.49198899999998,
                    "velocity": 0.25196850393700787,
                    "duration": 0.2224029999999999
                },
                {
                    "name": "B2",
                    "midi": 47,
                    "time": 58.71439199999998,
                    "velocity": 0.31496062992125984,
                    "duration": 0.2224029999999999
                },
                {
                    "name": "C#4",
                    "midi": 61,
                    "time": 59.15919799999998,
                    "velocity": 0.2992125984251969,
                    "duration": 0.2224029999999999
                },
                {
                    "name": "B3",
                    "midi": 59,
                    "time": 59.38160099999998,
                    "velocity": 0.33070866141732286,
                    "duration": 0.2224029999999999
                },
                {
                    "name": "A3",
                    "midi": 57,
                    "time": 59.60400399999998,
                    "velocity": 0.36220472440944884,
                    "duration": 0.2224029999999999
                },
                {
                    "name": "G#3",
                    "midi": 56,
                    "time": 59.82640699999998,
                    "velocity": 0.3937007874015748,
                    "duration": 0.2224029999999999
                },
                {
                    "name": "F#3",
                    "midi": 54,
                    "time": 60.04880999999998,
                    "velocity": 0.4251968503937008,
                    "duration": 0.2224029999999999
                },
                {
                    "name": "E3",
                    "midi": 52,
                    "time": 60.27121299999998,
                    "velocity": 0.49606299212598426,
                    "duration": 0.2224029999999999
                },
                {
                    "name": "D3",
                    "midi": 50,
                    "time": 60.49361599999998,
                    "velocity": 0.5669291338582677,
                    "duration": 0.2224029999999999
                },
                {
                    "name": "C#3",
                    "midi": 49,
                    "time": 60.71601899999998,
                    "velocity": 0.6614173228346457,
                    "duration": 0.2224029999999999
                },
                {
                    "name": "A2",
                    "midi": 45,
                    "time": 60.93842199999998,
                    "velocity": 0.6456692913385826,
                    "duration": 0.2224029999999999
                },
                {
                    "name": "G2",
                    "midi": 43,
                    "time": 61.16082499999998,
                    "velocity": 0.6456692913385826,
                    "duration": 0.2224029999999999
                },
                {
                    "name": "F#2",
                    "midi": 42,
                    "time": 61.38322799999998,
                    "velocity": 0.6771653543307087,
                    "duration": 1.1120149999999995
                },
                {
                    "name": "A#2",
                    "midi": 46,
                    "time": 62.49524299999998,
                    "velocity": 0.5669291338582677,
                    "duration": 0.2224029999999999
                },
                {
                    "name": "B2",
                    "midi": 47,
                    "time": 62.71764599999998,
                    "velocity": 0.5511811023622047,
                    "duration": 0.4448059999999998
                },
                {
                    "name": "G#2",
                    "midi": 44,
                    "time": 63.16245199999998,
                    "velocity": 0.44881889763779526,
                    "duration": 0.2224029999999999
                },
                {
                    "name": "A2",
                    "midi": 45,
                    "time": 63.38485499999998,
                    "velocity": 0.4330708661417323,
                    "duration": 0.4448059999999998
                },
                {
                    "name": "D#2",
                    "midi": 39,
                    "time": 63.82966099999998,
                    "velocity": 0.3464566929133858,
                    "duration": 0.222403000000007
                },
                {
                    "name": "E2",
                    "midi": 40,
                    "time": 64.05206399999999,
                    "velocity": 0.3700787401574803,
                    "duration": 0.2224029999999999
                },
                {
                    "name": "E3",
                    "midi": 52,
                    "time": 64.27446699999999,
                    "velocity": 0.5433070866141733,
                    "duration": 0.2224029999999999
                },
                {
                    "name": "G#2",
                    "midi": 44,
                    "time": 64.27446699999999,
                    "velocity": 0.4566929133858268,
                    "duration": 0.2224029999999999
                },
                {
                    "name": "A2",
                    "midi": 45,
                    "time": 64.49686999999999,
                    "velocity": 0.41732283464566927,
                    "duration": 0.2224029999999999
                },
                {
                    "name": "E2",
                    "midi": 40,
                    "time": 64.71927299999999,
                    "velocity": 0.4251968503937008,
                    "duration": 0.2224029999999999
                },
                {
                    "name": "E3",
                    "midi": 52,
                    "time": 64.94167599999999,
                    "velocity": 0.5433070866141733,
                    "duration": 0.2224029999999999
                },
                {
                    "name": "G#2",
                    "midi": 44,
                    "time": 64.94167599999999,
                    "velocity": 0.4566929133858268,
                    "duration": 0.2224029999999999
                },
                {
                    "name": "A2",
                    "midi": 45,
                    "time": 65.16407899999999,
                    "velocity": 0.41732283464566927,
                    "duration": 0.2224029999999999
                },
                {
                    "name": "E2",
                    "midi": 40,
                    "time": 65.38648199999999,
                    "velocity": 0.4251968503937008,
                    "duration": 0.2224029999999999
                },
                {
                    "name": "E3",
                    "midi": 52,
                    "time": 65.60888499999999,
                    "velocity": 0.5433070866141733,
                    "duration": 0.2224029999999999
                },
                {
                    "name": "G#2",
                    "midi": 44,
                    "time": 65.60888499999999,
                    "velocity": 0.4566929133858268,
                    "duration": 0.2224029999999999
                },
                {
                    "name": "A2",
                    "midi": 45,
                    "time": 65.83128799999999,
                    "velocity": 0.41732283464566927,
                    "duration": 0.2224029999999999
                },
                {
                    "name": "E2",
                    "midi": 40,
                    "time": 66.05369099999999,
                    "velocity": 0.4251968503937008,
                    "duration": 0.2224029999999999
                },
                {
                    "name": "E3",
                    "midi": 52,
                    "time": 66.27609399999999,
                    "velocity": 0.5433070866141733,
                    "duration": 0.2224029999999999
                },
                {
                    "name": "G#2",
                    "midi": 44,
                    "time": 66.27609399999999,
                    "velocity": 0.4566929133858268,
                    "duration": 0.2224029999999999
                },
                {
                    "name": "A2",
                    "midi": 45,
                    "time": 66.49849699999999,
                    "velocity": 0.41732283464566927,
                    "duration": 0.2224029999999999
                },
                {
                    "name": "E2",
                    "midi": 40,
                    "time": 66.72089999999999,
                    "velocity": 0.4251968503937008,
                    "duration": 0.2224029999999999
                },
                {
                    "name": "E2",
                    "midi": 40,
                    "time": 69.16733299999999,
                    "velocity": 0.4251968503937008,
                    "duration": 0.2224029999999999
                },
                {
                    "name": "C#2",
                    "midi": 37,
                    "time": 69.38973599999998,
                    "velocity": 0.5039370078740157,
                    "duration": 0.4448059999999998
                },
                {
                    "name": "A2",
                    "midi": 45,
                    "time": 69.38973599999998,
                    "velocity": 0.5039370078740157,
                    "duration": 0.8896119999999996
                },
                {
                    "name": "F#2",
                    "midi": 42,
                    "time": 70.05694499999998,
                    "velocity": 0.4566929133858268,
                    "duration": 0.4448059999999998
                },
                {
                    "name": "G#2",
                    "midi": 44,
                    "time": 70.27934799999998,
                    "velocity": 0.4881889763779528,
                    "duration": 0.2224029999999999
                },
                {
                    "name": "A2",
                    "midi": 45,
                    "time": 70.50175099999998,
                    "velocity": 0.5511811023622047,
                    "duration": 0.2224029999999999
                },
                {
                    "name": "B2",
                    "midi": 47,
                    "time": 70.72415399999998,
                    "velocity": 0.5669291338582677,
                    "duration": 0.6672089999999997
                },
                {
                    "name": "E2",
                    "midi": 40,
                    "time": 70.72415399999998,
                    "velocity": 0.5669291338582677,
                    "duration": 0.4448059999999998
                },
                {
                    "name": "A2",
                    "midi": 45,
                    "time": 71.39136299999998,
                    "velocity": 0.4251968503937008,
                    "duration": 0.4448059999999998
                },
                {
                    "name": "C#3",
                    "midi": 49,
                    "time": 71.39136299999998,
                    "velocity": 0.4251968503937008,
                    "duration": 0.6672089999999997
                },
                {
                    "name": "E3",
                    "midi": 52,
                    "time": 72.05857199999998,
                    "velocity": 0.5748031496062992,
                    "duration": 0.2224029999999999
                },
                {
                    "name": "D2",
                    "midi": 38,
                    "time": 72.05857199999998,
                    "velocity": 0.5748031496062992,
                    "duration": 0.4448059999999998
                },
                {
                    "name": "D3",
                    "midi": 50,
                    "time": 72.28097499999998,
                    "velocity": 0.4881889763779528,
                    "duration": 0.2224029999999999
                },
                {
                    "name": "C#3",
                    "midi": 49,
                    "time": 72.50337799999998,
                    "velocity": 0.4251968503937008,
                    "duration": 0.2224029999999999
                },
                {
                    "name": "B2",
                    "midi": 47,
                    "time": 72.72578099999998,
                    "velocity": 0.5196850393700787,
                    "duration": 0.2224029999999999
                },
                {
                    "name": "E2",
                    "midi": 40,
                    "time": 72.72578099999998,
                    "velocity": 0.5196850393700787,
                    "duration": 0.4448059999999998
                },
                {
                    "name": "C#3",
                    "midi": 49,
                    "time": 72.94818399999998,
                    "velocity": 0.3858267716535433,
                    "duration": 0.2224029999999999
                },
                {
                    "name": "B2",
                    "midi": 47,
                    "time": 73.17058699999998,
                    "velocity": 0.3228346456692913,
                    "duration": 0.2224029999999999
                },
                {
                    "name": "A2",
                    "midi": 45,
                    "time": 73.39298999999998,
                    "velocity": 0.3937007874015748,
                    "duration": 1.1120149999999995
                },
                {
                    "name": "C#3",
                    "midi": 49,
                    "time": 74.50500499999998,
                    "velocity": 0.28346456692913385,
                    "duration": 0.11120150000000706
                },
                {
                    "name": "A2",
                    "midi": 45,
                    "time": 74.61620649999999,
                    "velocity": 0.28346456692913385,
                    "duration": 0.11120150000000706
                },
                {
                    "name": "F#2",
                    "midi": 42,
                    "time": 74.727408,
                    "velocity": 0.3779527559055118,
                    "duration": 0.11120150000000706
                },
                {
                    "name": "A2",
                    "midi": 45,
                    "time": 74.8386095,
                    "velocity": 0.28346456692913385,
                    "duration": 0.11120150000000706
                },
                {
                    "name": "B2",
                    "midi": 47,
                    "time": 74.94981100000001,
                    "velocity": 0.28346456692913385,
                    "duration": 0.11120150000000706
                },
                {
                    "name": "C#3",
                    "midi": 49,
                    "time": 75.06101250000002,
                    "velocity": 0.28346456692913385,
                    "duration": 0.11120150000000706
                },
                {
                    "name": "B2",
                    "midi": 47,
                    "time": 75.17221400000003,
                    "velocity": 0.29133858267716534,
                    "duration": 0.11120150000000706
                },
                {
                    "name": "A2",
                    "midi": 45,
                    "time": 75.28341550000003,
                    "velocity": 0.29133858267716534,
                    "duration": 0.11120150000000706
                },
                {
                    "name": "D#3",
                    "midi": 51,
                    "time": 75.39461700000004,
                    "velocity": 0.3700787401574803,
                    "duration": 0.11120150000000706
                },
                {
                    "name": "F#2",
                    "midi": 42,
                    "time": 75.50581850000005,
                    "velocity": 0.29133858267716534,
                    "duration": 0.11120150000000706
                },
                {
                    "name": "G#2",
                    "midi": 44,
                    "time": 75.61702000000005,
                    "velocity": 0.4015748031496063,
                    "duration": 0.11120150000000706
                },
                {
                    "name": "A2",
                    "midi": 45,
                    "time": 75.72822150000006,
                    "velocity": 0.3543307086614173,
                    "duration": 0.11120150000000706
                },
                {
                    "name": "G#2",
                    "midi": 44,
                    "time": 75.83942300000007,
                    "velocity": 0.4409448818897638,
                    "duration": 0.11120150000000706
                },
                {
                    "name": "F#2",
                    "midi": 42,
                    "time": 75.95062450000007,
                    "velocity": 0.3937007874015748,
                    "duration": 0.11120150000000706
                },
                {
                    "name": "E2",
                    "midi": 40,
                    "time": 76.06182600000008,
                    "velocity": 0.5118110236220472,
                    "duration": 0.11120150000000706
                },
                {
                    "name": "D3",
                    "midi": 50,
                    "time": 76.17302750000009,
                    "velocity": 0.2992125984251969,
                    "duration": 0.11120150000000706
                },
                {
                    "name": "E3",
                    "midi": 52,
                    "time": 76.2842290000001,
                    "velocity": 0.4094488188976378,
                    "duration": 0.11120150000000706
                },
                {
                    "name": "F#3",
                    "midi": 54,
                    "time": 76.3954305000001,
                    "velocity": 0.30708661417322836,
                    "duration": 0.11120150000000706
                },
                {
                    "name": "E3",
                    "midi": 52,
                    "time": 76.50663200000011,
                    "velocity": 0.4015748031496063,
                    "duration": 0.11120150000000706
                },
                {
                    "name": "D3",
                    "midi": 50,
                    "time": 76.61783350000012,
                    "velocity": 0.3700787401574803,
                    "duration": 0.11120150000000706
                },
                {
                    "name": "G3",
                    "midi": 55,
                    "time": 76.72903500000012,
                    "velocity": 0.5275590551181102,
                    "duration": 0.11120150000000706
                },
                {
                    "name": "A2",
                    "midi": 45,
                    "time": 76.72903500000012,
                    "velocity": 0.5275590551181102,
                    "duration": 0.11120150000000706
                },
                {
                    "name": "E3",
                    "midi": 52,
                    "time": 76.84023650000013,
                    "velocity": 0.3858267716535433,
                    "duration": 0.11120150000000706
                },
                {
                    "name": "C#3",
                    "midi": 49,
                    "time": 76.95143800000014,
                    "velocity": 0.4881889763779528,
                    "duration": 0.11120150000000706
                },
                {
                    "name": "B2",
                    "midi": 47,
                    "time": 77.06263950000015,
                    "velocity": 0.4409448818897638,
                    "duration": 0.11120150000000706
                },
                {
                    "name": "G2",
                    "midi": 43,
                    "time": 77.17384100000015,
                    "velocity": 0.5118110236220472,
                    "duration": 0.11120150000000706
                },
                {
                    "name": "E2",
                    "midi": 40,
                    "time": 77.28504250000016,
                    "velocity": 0.4881889763779528,
                    "duration": 0.11120150000000706
                },
                {
                    "name": "D2",
                    "midi": 38,
                    "time": 77.39624400000017,
                    "velocity": 0.5669291338582677,
                    "duration": 0.11120150000000706
                },
                {
                    "name": "F#2",
                    "midi": 42,
                    "time": 77.50744550000017,
                    "velocity": 0.4015748031496063,
                    "duration": 0.11120150000000706
                },
                {
                    "name": "G#2",
                    "midi": 44,
                    "time": 77.61864700000018,
                    "velocity": 0.4566929133858268,
                    "duration": 0.11120150000000706
                },
                {
                    "name": "A2",
                    "midi": 45,
                    "time": 77.72984850000019,
                    "velocity": 0.3779527559055118,
                    "duration": 0.11120150000000706
                },
                {
                    "name": "B2",
                    "midi": 47,
                    "time": 77.8410500000002,
                    "velocity": 0.4330708661417323,
                    "duration": 0.11120150000000706
                },
                {
                    "name": "C#3",
                    "midi": 49,
                    "time": 77.9522515000002,
                    "velocity": 0.3700787401574803,
                    "duration": 0.11120150000000706
                },
                {
                    "name": "D3",
                    "midi": 50,
                    "time": 78.06345300000021,
                    "velocity": 0.5039370078740157,
                    "duration": 0.11120150000000706
                },
                {
                    "name": "E2",
                    "midi": 40,
                    "time": 78.06345300000021,
                    "velocity": 0.5039370078740157,
                    "duration": 0.11120150000000706
                },
                {
                    "name": "C#3",
                    "midi": 49,
                    "time": 78.17465450000022,
                    "velocity": 0.3858267716535433,
                    "duration": 0.11120150000000706
                },
                {
                    "name": "D3",
                    "midi": 50,
                    "time": 78.28585600000022,
                    "velocity": 0.4330708661417323,
                    "duration": 0.11120150000000706
                },
                {
                    "name": "B2",
                    "midi": 47,
                    "time": 78.39705750000023,
                    "velocity": 0.3779527559055118,
                    "duration": 0.11120150000000706
                },
                {
                    "name": "E3",
                    "midi": 52,
                    "time": 78.50825900000024,
                    "velocity": 0.4251968503937008,
                    "duration": 0.11120150000000706
                },
                {
                    "name": "D3",
                    "midi": 50,
                    "time": 78.61946050000024,
                    "velocity": 0.3228346456692913,
                    "duration": 0.11120150000000706
                },
                {
                    "name": "C#3",
                    "midi": 49,
                    "time": 78.73066200000025,
                    "velocity": 0.47244094488188976,
                    "duration": 0.11120150000000706
                },
                {
                    "name": "A2",
                    "midi": 45,
                    "time": 78.73066200000025,
                    "velocity": 0.47244094488188976,
                    "duration": 0.11120150000000706
                },
                {
                    "name": "E3",
                    "midi": 52,
                    "time": 78.84186350000026,
                    "velocity": 0.4251968503937008,
                    "duration": 0.11120150000000706
                },
                {
                    "name": "D3",
                    "midi": 50,
                    "time": 78.95306500000027,
                    "velocity": 0.4251968503937008,
                    "duration": 0.11120150000000706
                },
                {
                    "name": "C#3",
                    "midi": 49,
                    "time": 79.06426650000027,
                    "velocity": 0.4251968503937008,
                    "duration": 0.11120150000000706
                },
                {
                    "name": "B2",
                    "midi": 47,
                    "time": 79.17546800000028,
                    "velocity": 0.4251968503937008,
                    "duration": 0.11120150000000706
                },
                {
                    "name": "A2",
                    "midi": 45,
                    "time": 79.28666950000029,
                    "velocity": 0.4015748031496063,
                    "duration": 0.11120150000000706
                },
                {
                    "name": "G#2",
                    "midi": 44,
                    "time": 79.3978710000003,
                    "velocity": 0.4330708661417323,
                    "duration": 0.11120150000000706
                },
                {
                    "name": "A2",
                    "midi": 45,
                    "time": 79.5090725000003,
                    "velocity": 0.4330708661417323,
                    "duration": 0.11120150000000706
                },
                {
                    "name": "G2",
                    "midi": 43,
                    "time": 79.62027400000031,
                    "velocity": 0.44881889763779526,
                    "duration": 0.11120150000000706
                },
                {
                    "name": "A2",
                    "midi": 45,
                    "time": 79.73147550000031,
                    "velocity": 0.47244094488188976,
                    "duration": 0.11120150000000706
                },
                {
                    "name": "F#2",
                    "midi": 42,
                    "time": 79.84267700000032,
                    "velocity": 0.48031496062992124,
                    "duration": 0.11120150000000706
                },
                {
                    "name": "A#2",
                    "midi": 46,
                    "time": 79.95387850000033,
                    "velocity": 0.5118110236220472,
                    "duration": 0.11120150000000706
                },
                {
                    "name": "D2",
                    "midi": 38,
                    "time": 80.06508000000034,
                    "velocity": 0.5905511811023622,
                    "duration": 0.11120150000000706
                },
                {
                    "name": "F#2",
                    "midi": 42,
                    "time": 80.17628150000034,
                    "velocity": 0.41732283464566927,
                    "duration": 0.11120150000000706
                },
                {
                    "name": "G#2",
                    "midi": 44,
                    "time": 80.28748300000035,
                    "velocity": 0.5196850393700787,
                    "duration": 0.11120150000000706
                },
                {
                    "name": "A2",
                    "midi": 45,
                    "time": 80.39868450000036,
                    "velocity": 0.3937007874015748,
                    "duration": 0.11120150000000706
                },
                {
                    "name": "B2",
                    "midi": 47,
                    "time": 80.50988600000036,
                    "velocity": 0.49606299212598426,
                    "duration": 0.11120150000000706
                },
                {
                    "name": "C#3",
                    "midi": 49,
                    "time": 80.62108750000037,
                    "velocity": 0.3858267716535433,
                    "duration": 0.11120150000000706
                },
                {
                    "name": "D3",
                    "midi": 50,
                    "time": 80.73228900000038,
                    "velocity": 0.5275590551181102,
                    "duration": 0.11120150000000706
                },
                {
                    "name": "E2",
                    "midi": 40,
                    "time": 80.84349050000039,
                    "velocity": 0.4015748031496063,
                    "duration": 0.11120150000000706
                },
                {
                    "name": "E3",
                    "midi": 52,
                    "time": 80.95469200000039,
                    "velocity": 0.44881889763779526,
                    "duration": 0.11120150000000706
                },
                {
                    "name": "E2",
                    "midi": 40,
                    "time": 81.0658935000004,
                    "velocity": 0.3937007874015748,
                    "duration": 0.11120150000000706
                },
                {
                    "name": "D3",
                    "midi": 50,
                    "time": 81.1770950000004,
                    "velocity": 0.4409448818897638,
                    "duration": 0.11120150000000706
                },
                {
                    "name": "E2",
                    "midi": 40,
                    "time": 81.28829650000041,
                    "velocity": 0.33858267716535434,
                    "duration": 0.11120150000000706
                },
                {
                    "name": "A2",
                    "midi": 45,
                    "time": 81.39949800000042,
                    "velocity": 0.49606299212598426,
                    "duration": 0.7784105000000494
                },
                {
                    "name": "C#3",
                    "midi": 49,
                    "time": 81.51069950000043,
                    "velocity": 0.3779527559055118,
                    "duration": 0.11120150000000706
                },
                {
                    "name": "D3",
                    "midi": 50,
                    "time": 81.62190100000043,
                    "velocity": 0.3937007874015748,
                    "duration": 0.11120150000000706
                },
                {
                    "name": "E3",
                    "midi": 52,
                    "time": 81.73310250000044,
                    "velocity": 0.36220472440944884,
                    "duration": 0.11120150000000706
                },
                {
                    "name": "F#3",
                    "midi": 54,
                    "time": 81.84430400000045,
                    "velocity": 0.3700787401574803,
                    "duration": 0.11120150000000706
                },
                {
                    "name": "D3",
                    "midi": 50,
                    "time": 81.95550550000046,
                    "velocity": 0.3543307086614173,
                    "duration": 0.11120150000000706
                },
                {
                    "name": "E3",
                    "midi": 52,
                    "time": 82.06670700000046,
                    "velocity": 0.3543307086614173,
                    "duration": 0.11120150000000706
                },
                {
                    "name": "F#3",
                    "midi": 54,
                    "time": 82.17790850000047,
                    "velocity": 0.3228346456692913,
                    "duration": 0.11120150000000706
                },
                {
                    "name": "G#3",
                    "midi": 56,
                    "time": 82.28911000000048,
                    "velocity": 0.33858267716535434,
                    "duration": 0.11120150000000706
                },
                {
                    "name": "E3",
                    "midi": 52,
                    "time": 82.40031150000048,
                    "velocity": 0.3228346456692913,
                    "duration": 0.11120150000000706
                },
                {
                    "name": "F#3",
                    "midi": 54,
                    "time": 82.51151300000049,
                    "velocity": 0.33070866141732286,
                    "duration": 0.11120150000000706
                },
                {
                    "name": "G#3",
                    "midi": 56,
                    "time": 82.6227145000005,
                    "velocity": 0.29133858267716534,
                    "duration": 0.11120150000000706
                },
                {
                    "name": "A3",
                    "midi": 57,
                    "time": 82.7339160000005,
                    "velocity": 0.33070866141732286,
                    "duration": 0.11120150000000706
                },
                {
                    "name": "F#4",
                    "midi": 66,
                    "time": 82.95631900000052,
                    "velocity": 0.2992125984251969,
                    "duration": 0.08340112499999464
                },
                {
                    "name": "E4",
                    "midi": 64,
                    "time": 83.17872200000052,
                    "velocity": 0.25196850393700787,
                    "duration": 0.08340112499999464
                },
                {
                    "name": "D#4",
                    "midi": 63,
                    "time": 83.40112500000052,
                    "velocity": 0.2992125984251969,
                    "duration": 0.08340112499999464
                },
                {
                    "name": "D4",
                    "midi": 62,
                    "time": 83.84593100000052,
                    "velocity": 0.2992125984251969,
                    "duration": 0.11120150000000706
                },
                {
                    "name": "A3",
                    "midi": 57,
                    "time": 84.06833400000053,
                    "velocity": 0.49606299212598426,
                    "duration": 0.7784105000000494
                },
                {
                    "name": "C#4",
                    "midi": 61,
                    "time": 84.17953550000054,
                    "velocity": 0.3779527559055118,
                    "duration": 0.11120150000000706
                },
                {
                    "name": "D4",
                    "midi": 62,
                    "time": 84.29073700000055,
                    "velocity": 0.3937007874015748,
                    "duration": 0.11120150000000706
                },
                {
                    "name": "E4",
                    "midi": 64,
                    "time": 84.40193850000055,
                    "velocity": 0.36220472440944884,
                    "duration": 0.11120150000000706
                },
                {
                    "name": "F#4",
                    "midi": 66,
                    "time": 84.51314000000056,
                    "velocity": 0.3700787401574803,
                    "duration": 0.11120150000000706
                },
                {
                    "name": "D4",
                    "midi": 62,
                    "time": 84.62434150000057,
                    "velocity": 0.3543307086614173,
                    "duration": 0.11120150000000706
                },
                {
                    "name": "E4",
                    "midi": 64,
                    "time": 84.73554300000058,
                    "velocity": 0.3543307086614173,
                    "duration": 0.11120150000000706
                },
                {
                    "name": "F#4",
                    "midi": 66,
                    "time": 84.84674450000058,
                    "velocity": 0.3228346456692913,
                    "duration": 0.11120150000000706
                },
                {
                    "name": "G#4",
                    "midi": 68,
                    "time": 84.95794600000059,
                    "velocity": 0.33858267716535434,
                    "duration": 0.11120150000000706
                },
                {
                    "name": "E4",
                    "midi": 64,
                    "time": 85.0691475000006,
                    "velocity": 0.3228346456692913,
                    "duration": 0.11120150000000706
                },
                {
                    "name": "F#4",
                    "midi": 66,
                    "time": 85.1803490000006,
                    "velocity": 0.33070866141732286,
                    "duration": 0.11120150000000706
                },
                {
                    "name": "G#4",
                    "midi": 68,
                    "time": 85.29155050000061,
                    "velocity": 0.29133858267716534,
                    "duration": 0.11120150000000706
                },
                {
                    "name": "A4",
                    "midi": 69,
                    "time": 85.40275200000062,
                    "velocity": 0.4409448818897638,
                    "duration": 0.7784105000000068
                },
                {
                    "name": "E4",
                    "midi": 64,
                    "time": 85.62515500000062,
                    "velocity": 0.4251968503937008,
                    "duration": 0.2224029999999999
                },
                {
                    "name": "G#4",
                    "midi": 68,
                    "time": 85.62515500000062,
                    "velocity": 0.5039370078740157,
                    "duration": 0.2224029999999999
                },
                {
                    "name": "F#4",
                    "midi": 66,
                    "time": 85.84755800000062,
                    "velocity": 0.48031496062992124,
                    "duration": 0.2224029999999999
                },
                {
                    "name": "D4",
                    "midi": 62,
                    "time": 85.84755800000062,
                    "velocity": 0.4015748031496063,
                    "duration": 0.2224029999999999
                },
                {
                    "name": "C#4",
                    "midi": 61,
                    "time": 86.06996100000062,
                    "velocity": 0.3779527559055118,
                    "duration": 0.22240300000001412
                },
                {
                    "name": "E4",
                    "midi": 64,
                    "time": 86.06996100000062,
                    "velocity": 0.44881889763779526,
                    "duration": 0.22240300000001412
                },
                {
                    "name": "C4",
                    "midi": 60,
                    "time": 86.29236400000063,
                    "velocity": 0.3700787401574803,
                    "duration": 0.2224029999999999
                },
                {
                    "name": "D#4",
                    "midi": 63,
                    "time": 86.29236400000063,
                    "velocity": 0.4409448818897638,
                    "duration": 0.2224029999999999
                },
                {
                    "name": "B3",
                    "midi": 59,
                    "time": 86.51476700000063,
                    "velocity": 0.3700787401574803,
                    "duration": 0.2224029999999999
                },
                {
                    "name": "D4",
                    "midi": 62,
                    "time": 86.51476700000063,
                    "velocity": 0.4409448818897638,
                    "duration": 0.2224029999999999
                },
                {
                    "name": "A3",
                    "midi": 57,
                    "time": 86.73717000000063,
                    "velocity": 0.3700787401574803,
                    "duration": 0.2224029999999999
                },
                {
                    "name": "C#4",
                    "midi": 61,
                    "time": 86.73717000000063,
                    "velocity": 0.4409448818897638,
                    "duration": 0.2224029999999999
                },
                {
                    "name": "G#3",
                    "midi": 56,
                    "time": 86.95957300000063,
                    "velocity": 0.44881889763779526,
                    "duration": 0.2224029999999999
                },
                {
                    "name": "E3",
                    "midi": 52,
                    "time": 86.95957300000063,
                    "velocity": 0.3779527559055118,
                    "duration": 0.2224029999999999
                },
                {
                    "name": "D3",
                    "midi": 50,
                    "time": 87.18197600000063,
                    "velocity": 0.3464566929133858,
                    "duration": 0.2224029999999999
                },
                {
                    "name": "F#3",
                    "midi": 54,
                    "time": 87.18197600000063,
                    "velocity": 0.41732283464566927,
                    "duration": 0.2224029999999999
                },
                {
                    "name": "E3",
                    "midi": 52,
                    "time": 87.40437900000063,
                    "velocity": 0.3779527559055118,
                    "duration": 0.2224029999999999
                },
                {
                    "name": "C#3",
                    "midi": 49,
                    "time": 87.40437900000063,
                    "velocity": 0.31496062992125984,
                    "duration": 0.2224029999999999
                },
                {
                    "name": "C3",
                    "midi": 48,
                    "time": 87.62678200000063,
                    "velocity": 0.30708661417322836,
                    "duration": 0.2224029999999999
                },
                {
                    "name": "D#3",
                    "midi": 51,
                    "time": 87.62678200000063,
                    "velocity": 0.36220472440944884,
                    "duration": 0.2224029999999999
                },
                {
                    "name": "B2",
                    "midi": 47,
                    "time": 87.84918500000063,
                    "velocity": 0.29133858267716534,
                    "duration": 0.2224029999999999
                },
                {
                    "name": "D3",
                    "midi": 50,
                    "time": 87.84918500000063,
                    "velocity": 0.3464566929133858,
                    "duration": 0.2224029999999999
                },
                {
                    "name": "A2",
                    "midi": 45,
                    "time": 88.07158800000063,
                    "velocity": 0.30708661417322836,
                    "duration": 0.6672089999999997
                },
                {
                    "name": "C#3",
                    "midi": 49,
                    "time": 88.07158800000063,
                    "velocity": 0.33858267716535434,
                    "duration": 0.6672089999999997
                },
                {
                    "name": "E3",
                    "midi": 52,
                    "time": 89.18360300000063,
                    "velocity": 0.3937007874015748,
                    "duration": 0.11120150000000706
                },
                {
                    "name": "C3",
                    "midi": 48,
                    "time": 89.29480450000064,
                    "velocity": 0.33070866141732286,
                    "duration": 0.11120150000000706
                },
                {
                    "name": "A1",
                    "midi": 33,
                    "time": 89.40600600000064,
                    "velocity": 0.3779527559055118,
                    "duration": 0.4448059999999998
                },
                {
                    "name": "A1",
                    "midi": 33,
                    "time": 90.07321500000064,
                    "velocity": 0.31496062992125984,
                    "duration": 0.4448059999999998
                },
                {
                    "name": "A2",
                    "midi": 45,
                    "time": 90.07321500000064,
                    "velocity": 0.3779527559055118,
                    "duration": 0.4448059999999998
                },
                {
                    "name": "F3",
                    "midi": 53,
                    "time": 90.74042400000064,
                    "velocity": 0.47244094488188976,
                    "duration": 0.4448059999999998
                },
                {
                    "name": "C3",
                    "midi": 48,
                    "time": 90.74042400000064,
                    "velocity": 0.3937007874015748,
                    "duration": 1.0008135000000067
                },
                {
                    "name": "A2",
                    "midi": 45,
                    "time": 90.74042400000064,
                    "velocity": 0.3937007874015748,
                    "duration": 1.0008135000000067
                },
                {
                    "name": "E3",
                    "midi": 52,
                    "time": 91.18523000000064,
                    "velocity": 0.3779527559055118,
                    "duration": 0.2224029999999999
                },
                {
                    "name": "D#3",
                    "midi": 51,
                    "time": 91.40763300000064,
                    "velocity": 0.4251968503937008,
                    "duration": 0.444806000000014
                },
                {
                    "name": "C3",
                    "midi": 48,
                    "time": 91.85243900000066,
                    "velocity": 0.30708661417322836,
                    "duration": 0.2224029999999999
                },
                {
                    "name": "A2",
                    "midi": 45,
                    "time": 91.85243900000066,
                    "velocity": 0.25984251968503935,
                    "duration": 0.2224029999999999
                },
                {
                    "name": "G#1",
                    "midi": 32,
                    "time": 92.18604350000066,
                    "velocity": 0.2755905511811024,
                    "duration": 0.11120150000000706
                },
                {
                    "name": "B2",
                    "midi": 47,
                    "time": 92.29724500000067,
                    "velocity": 0.33070866141732286,
                    "duration": 0.11120150000000706
                },
                {
                    "name": "G2",
                    "midi": 43,
                    "time": 92.85325250000068,
                    "velocity": 0.28346456692913385,
                    "duration": 0.11120150000000706
                },
                {
                    "name": "B3",
                    "midi": 59,
                    "time": 92.96445400000069,
                    "velocity": 0.30708661417322836,
                    "duration": 0.11120150000000706
                },
                {
                    "name": "F#3",
                    "midi": 54,
                    "time": 93.52046150000069,
                    "velocity": 0.28346456692913385,
                    "duration": 0.11120150000000706
                },
                {
                    "name": "G4",
                    "midi": 67,
                    "time": 93.6316630000007,
                    "velocity": 0.30708661417322836,
                    "duration": 0.11120150000000706
                },
                {
                    "name": "B1",
                    "midi": 35,
                    "time": 94.74367800000071,
                    "velocity": 0.3464566929133858,
                    "duration": 0.4448059999999998
                },
                {
                    "name": "B2",
                    "midi": 47,
                    "time": 94.74367800000071,
                    "velocity": 0.3779527559055118,
                    "duration": 0.4448059999999998
                },
                {
                    "name": "B2",
                    "midi": 47,
                    "time": 95.41088700000071,
                    "velocity": 0.31496062992125984,
                    "duration": 0.4448059999999998
                },
                {
                    "name": "B3",
                    "midi": 59,
                    "time": 95.41088700000071,
                    "velocity": 0.3779527559055118,
                    "duration": 0.4448059999999998
                },
                {
                    "name": "G4",
                    "midi": 67,
                    "time": 96.07809600000071,
                    "velocity": 0.47244094488188976,
                    "duration": 0.4448059999999998
                },
                {
                    "name": "D4",
                    "midi": 62,
                    "time": 96.07809600000071,
                    "velocity": 0.3937007874015748,
                    "duration": 1.0008135000000067
                },
                {
                    "name": "B3",
                    "midi": 59,
                    "time": 96.07809600000071,
                    "velocity": 0.3937007874015748,
                    "duration": 1.0008135000000067
                },
                {
                    "name": "F#4",
                    "midi": 66,
                    "time": 96.52290200000071,
                    "velocity": 0.3779527559055118,
                    "duration": 0.2224029999999999
                },
                {
                    "name": "F4",
                    "midi": 65,
                    "time": 96.74530500000071,
                    "velocity": 0.4251968503937008,
                    "duration": 0.444806000000014
                },
                {
                    "name": "D4",
                    "midi": 62,
                    "time": 97.19011100000073,
                    "velocity": 0.30708661417322836,
                    "duration": 0.2224029999999999
                },
                {
                    "name": "B3",
                    "midi": 59,
                    "time": 97.19011100000073,
                    "velocity": 0.25984251968503935,
                    "duration": 0.2224029999999999
                },
                {
                    "name": "A#2",
                    "midi": 46,
                    "time": 97.52371550000073,
                    "velocity": 0.2755905511811024,
                    "duration": 0.11120150000000706
                },
                {
                    "name": "C#4",
                    "midi": 61,
                    "time": 97.63491700000074,
                    "velocity": 0.33070866141732286,
                    "duration": 0.11120150000000706
                },
                {
                    "name": "A3",
                    "midi": 57,
                    "time": 98.19092450000075,
                    "velocity": 0.28346456692913385,
                    "duration": 0.11120150000000706
                },
                {
                    "name": "C#5",
                    "midi": 73,
                    "time": 98.30212600000075,
                    "velocity": 0.30708661417322836,
                    "duration": 0.11120150000000706
                },
                {
                    "name": "G#4",
                    "midi": 68,
                    "time": 98.85813350000076,
                    "velocity": 0.28346456692913385,
                    "duration": 0.11120150000000706
                },
                {
                    "name": "A5",
                    "midi": 81,
                    "time": 98.96933500000077,
                    "velocity": 0.30708661417322836,
                    "duration": 0.11120150000000706
                },
                {
                    "name": "F2",
                    "midi": 41,
                    "time": 100.19255150000077,
                    "velocity": 0.2755905511811024,
                    "duration": 0.11120150000000706
                },
                {
                    "name": "G#3",
                    "midi": 56,
                    "time": 100.30375300000078,
                    "velocity": 0.33070866141732286,
                    "duration": 0.11120150000000706
                },
                {
                    "name": "E3",
                    "midi": 52,
                    "time": 100.85976050000079,
                    "velocity": 0.31496062992125984,
                    "duration": 0.11120150000000706
                },
                {
                    "name": "F#4",
                    "midi": 66,
                    "time": 100.9709620000008,
                    "velocity": 0.3464566929133858,
                    "duration": 0.11120150000000706
                },
                {
                    "name": "D#2",
                    "midi": 39,
                    "time": 101.5269695000008,
                    "velocity": 0.31496062992125984,
                    "duration": 0.11120150000000706
                },
                {
                    "name": "F#3",
                    "midi": 54,
                    "time": 101.63817100000081,
                    "velocity": 0.3858267716535433,
                    "duration": 0.11120150000000706
                },
                {
                    "name": "D3",
                    "midi": 50,
                    "time": 102.19417850000082,
                    "velocity": 0.33858267716535434,
                    "duration": 0.11120150000000706
                },
                {
                    "name": "E4",
                    "midi": 64,
                    "time": 102.30538000000082,
                    "velocity": 0.3700787401574803,
                    "duration": 0.11120150000000706
                },
                {
                    "name": "C#2",
                    "midi": 37,
                    "time": 102.86138750000083,
                    "velocity": 0.33858267716535434,
                    "duration": 0.11120150000000706
                },
                {
                    "name": "E3",
                    "midi": 52,
                    "time": 102.97258900000084,
                    "velocity": 0.4094488188976378,
                    "duration": 0.11120150000000706
                },
                {
                    "name": "C#3",
                    "midi": 49,
                    "time": 103.52859650000084,
                    "velocity": 0.36220472440944884,
                    "duration": 0.11120150000000706
                },
                {
                    "name": "D#4",
                    "midi": 63,
                    "time": 103.63979800000085,
                    "velocity": 0.4015748031496063,
                    "duration": 0.11120150000000706
                },
                {
                    "name": "C2",
                    "midi": 36,
                    "time": 104.19580550000086,
                    "velocity": 0.36220472440944884,
                    "duration": 0.11120150000000706
                },
                {
                    "name": "D#3",
                    "midi": 51,
                    "time": 104.30700700000087,
                    "velocity": 0.4409448818897638,
                    "duration": 0.11120150000000706
                },
                {
                    "name": "B2",
                    "midi": 47,
                    "time": 104.86301450000087,
                    "velocity": 0.3858267716535433,
                    "duration": 0.11120150000000706
                },
                {
                    "name": "C#4",
                    "midi": 61,
                    "time": 104.97421600000088,
                    "velocity": 0.4251968503937008,
                    "duration": 0.11120150000000706
                },
                {
                    "name": "A3",
                    "midi": 57,
                    "time": 105.53022350000089,
                    "velocity": 0.3937007874015748,
                    "duration": 0.11120150000000706
                },
                {
                    "name": "C#4",
                    "midi": 61,
                    "time": 105.6414250000009,
                    "velocity": 0.47244094488188976,
                    "duration": 0.11120150000000706
                },
                {
                    "name": "G#3",
                    "midi": 56,
                    "time": 105.86382800000091,
                    "velocity": 0.4645669291338583,
                    "duration": 0.2224029999999999
                },
                {
                    "name": "F#3",
                    "midi": 54,
                    "time": 106.19743250000091,
                    "velocity": 0.4094488188976378,
                    "duration": 0.11120150000000706
                },
                {
                    "name": "C#4",
                    "midi": 61,
                    "time": 106.30863400000092,
                    "velocity": 0.44881889763779526,
                    "duration": 0.11120150000000706
                },
                {
                    "name": "F3",
                    "midi": 53,
                    "time": 106.53103700000094,
                    "velocity": 0.48031496062992124,
                    "duration": 0.2224029999999999
                },
                {
                    "name": "A3",
                    "midi": 57,
                    "time": 106.86464150000094,
                    "velocity": 0.41732283464566927,
                    "duration": 0.11120150000000706
                },
                {
                    "name": "C#4",
                    "midi": 61,
                    "time": 106.97584300000095,
                    "velocity": 0.49606299212598426,
                    "duration": 0.11120150000000706
                },
                {
                    "name": "G#3",
                    "midi": 56,
                    "time": 107.19824600000096,
                    "velocity": 0.49606299212598426,
                    "duration": 0.2224029999999999
                },
                {
                    "name": "F#3",
                    "midi": 54,
                    "time": 107.53185050000097,
                    "velocity": 0.4409448818897638,
                    "duration": 0.11120150000000706
                },
                {
                    "name": "C#4",
                    "midi": 61,
                    "time": 107.64305200000098,
                    "velocity": 0.48031496062992124,
                    "duration": 0.11120150000000706
                },
                {
                    "name": "F3",
                    "midi": 53,
                    "time": 107.86545500000099,
                    "velocity": 0.5039370078740157,
                    "duration": 0.2224029999999999
                },
                {
                    "name": "D3",
                    "midi": 50,
                    "time": 108.199059500001,
                    "velocity": 0.4409448818897638,
                    "duration": 0.11120150000000706
                },
                {
                    "name": "F#3",
                    "midi": 54,
                    "time": 108.310261000001,
                    "velocity": 0.5275590551181102,
                    "duration": 0.11120150000000706
                },
                {
                    "name": "C#3",
                    "midi": 49,
                    "time": 108.53266400000102,
                    "velocity": 0.5118110236220472,
                    "duration": 0.2224029999999999
                },
                {
                    "name": "G3",
                    "midi": 55,
                    "time": 108.53266400000102,
                    "velocity": 0.5118110236220472,
                    "duration": 0.2224029999999999
                },
                {
                    "name": "D3",
                    "midi": 50,
                    "time": 108.86626850000103,
                    "velocity": 0.44881889763779526,
                    "duration": 0.11120150000000706
                },
                {
                    "name": "F#3",
                    "midi": 54,
                    "time": 108.97747000000103,
                    "velocity": 0.4881889763779528,
                    "duration": 0.11120150000000706
                },
                {
                    "name": "C#3",
                    "midi": 49,
                    "time": 109.19987300000105,
                    "velocity": 0.5118110236220472,
                    "duration": 0.2224029999999999
                },
                {
                    "name": "G3",
                    "midi": 55,
                    "time": 109.19987300000105,
                    "velocity": 0.5118110236220472,
                    "duration": 0.2224029999999999
                },
                {
                    "name": "F#3",
                    "midi": 54,
                    "time": 109.42227600000105,
                    "velocity": 0.4409448818897638,
                    "duration": 0.11120150000000706
                },
                {
                    "name": "D3",
                    "midi": 50,
                    "time": 109.42227600000105,
                    "velocity": 0.4409448818897638,
                    "duration": 0.11120150000000706
                },
                {
                    "name": "C#3",
                    "midi": 49,
                    "time": 109.64467900000106,
                    "velocity": 0.5196850393700787,
                    "duration": 0.2224029999999999
                },
                {
                    "name": "G3",
                    "midi": 55,
                    "time": 109.64467900000106,
                    "velocity": 0.5196850393700787,
                    "duration": 0.2224029999999999
                },
                {
                    "name": "D3",
                    "midi": 50,
                    "time": 109.86708200000106,
                    "velocity": 0.4566929133858268,
                    "duration": 0.11120150000000706
                },
                {
                    "name": "F#3",
                    "midi": 54,
                    "time": 109.86708200000106,
                    "velocity": 0.4566929133858268,
                    "duration": 0.11120150000000706
                },
                {
                    "name": "C#3",
                    "midi": 49,
                    "time": 110.08948500000108,
                    "velocity": 0.5433070866141733,
                    "duration": 0.2224029999999999
                },
                {
                    "name": "G3",
                    "midi": 55,
                    "time": 110.08948500000108,
                    "velocity": 0.5433070866141733,
                    "duration": 0.2224029999999999
                },
                {
                    "name": "D3",
                    "midi": 50,
                    "time": 110.31188800000108,
                    "velocity": 0.48031496062992124,
                    "duration": 0.11120150000000706
                },
                {
                    "name": "F#3",
                    "midi": 54,
                    "time": 110.31188800000108,
                    "velocity": 0.48031496062992124,
                    "duration": 0.11120150000000706
                },
                {
                    "name": "C#3",
                    "midi": 49,
                    "time": 110.53429100000109,
                    "velocity": 0.5669291338582677,
                    "duration": 0.2224029999999999
                },
                {
                    "name": "G3",
                    "midi": 55,
                    "time": 110.53429100000109,
                    "velocity": 0.5669291338582677,
                    "duration": 0.2224029999999999
                },
                {
                    "name": "D3",
                    "midi": 50,
                    "time": 110.75669400000109,
                    "velocity": 0.5826771653543307,
                    "duration": 0.6672089999999997
                },
                {
                    "name": "F#3",
                    "midi": 54,
                    "time": 110.75669400000109,
                    "velocity": 0.5826771653543307,
                    "duration": 0.8896119999999996
                },
                {
                    "name": "C#3",
                    "midi": 49,
                    "time": 111.42390300000109,
                    "velocity": 0.5826771653543307,
                    "duration": 0.2224029999999999
                },
                {
                    "name": "A3",
                    "midi": 57,
                    "time": 111.42390300000109,
                    "velocity": 0.5826771653543307,
                    "duration": 0.2224029999999999
                },
                {
                    "name": "D3",
                    "midi": 50,
                    "time": 112.09111200000109,
                    "velocity": 0.5826771653543307,
                    "duration": 0.6672089999999997
                },
                {
                    "name": "F#3",
                    "midi": 54,
                    "time": 112.09111200000109,
                    "velocity": 0.5826771653543307,
                    "duration": 0.8896119999999996
                },
                {
                    "name": "C#3",
                    "midi": 49,
                    "time": 112.75832100000109,
                    "velocity": 0.5826771653543307,
                    "duration": 0.2224029999999999
                },
                {
                    "name": "A3",
                    "midi": 57,
                    "time": 112.75832100000109,
                    "velocity": 0.5826771653543307,
                    "duration": 0.2224029999999999
                },
                {
                    "name": "D4",
                    "midi": 62,
                    "time": 113.42553000000109,
                    "velocity": 0.5826771653543307,
                    "duration": 1.3344179999999994
                },
                {
                    "name": "G3",
                    "midi": 55,
                    "time": 114.75994800000109,
                    "velocity": 0.31496062992125984,
                    "duration": 0.6672089999999997
                },
                {
                    "name": "E3",
                    "midi": 52,
                    "time": 115.42715700000109,
                    "velocity": 0.2992125984251969,
                    "duration": 0.6672089999999997
                },
                {
                    "name": "A2",
                    "midi": 45,
                    "time": 116.09436600000109,
                    "velocity": 0.29133858267716534,
                    "duration": 0.6672089999999997
                },
                {
                    "name": "F#2",
                    "midi": 42,
                    "time": 116.76157500000109,
                    "velocity": 0.2755905511811024,
                    "duration": 0.6672089999999997
                },
                {
                    "name": "B1",
                    "midi": 35,
                    "time": 117.42878400000109,
                    "velocity": 0.2677165354330709,
                    "duration": 0.6672089999999997
                },
                {
                    "name": "C#2",
                    "midi": 37,
                    "time": 118.09599300000109,
                    "velocity": 0.2677165354330709,
                    "duration": 0.6672089999999997
                },
                {
                    "name": "D#2",
                    "midi": 39,
                    "time": 118.76320200000109,
                    "velocity": 0.2677165354330709,
                    "duration": 0.6672089999999997
                },
                {
                    "name": "F2",
                    "midi": 41,
                    "time": 119.43041100000109,
                    "velocity": 0.2677165354330709,
                    "duration": 0.6672089999999997
                },
                {
                    "name": "F#2",
                    "midi": 42,
                    "time": 120.09762000000109,
                    "velocity": 0.2677165354330709,
                    "duration": 0.6672089999999997
                },
                {
                    "name": "C2",
                    "midi": 36,
                    "time": 120.76482900000109,
                    "velocity": 0.2677165354330709,
                    "duration": 0.6672089999999997
                },
                {
                    "name": "C#2",
                    "midi": 37,
                    "time": 121.43203800000109,
                    "velocity": 0.49606299212598426,
                    "duration": 0.6672089999999997
                },
                {
                    "name": "F2",
                    "midi": 41,
                    "time": 122.09924700000109,
                    "velocity": 0.47244094488188976,
                    "duration": 0.2224029999999999
                },
                {
                    "name": "G#2",
                    "midi": 44,
                    "time": 122.32165000000109,
                    "velocity": 0.4409448818897638,
                    "duration": 0.2224029999999999
                },
                {
                    "name": "B2",
                    "midi": 47,
                    "time": 122.54405300000109,
                    "velocity": 0.4015748031496063,
                    "duration": 0.18996922916666392
                },
                {
                    "name": "B2",
                    "midi": 47,
                    "time": 122.73865562500109,
                    "velocity": 0.4409448818897638,
                    "duration": 0.027800374999998212
                },
                {
                    "name": "C#2",
                    "midi": 37,
                    "time": 122.76645600000109,
                    "velocity": 0.5433070866141733,
                    "duration": 0.6672089999999997
                },
                {
                    "name": "A2",
                    "midi": 45,
                    "time": 122.76645600000109,
                    "velocity": 0.5433070866141733,
                    "duration": 0.2224029999999999
                },
                {
                    "name": "G#2",
                    "midi": 44,
                    "time": 122.98885900000109,
                    "velocity": 0.5039370078740157,
                    "duration": 0.2224029999999999
                },
                {
                    "name": "F#2",
                    "midi": 42,
                    "time": 123.21126200000108,
                    "velocity": 0.4251968503937008,
                    "duration": 0.2224029999999999
                },
                {
                    "name": "A2",
                    "midi": 45,
                    "time": 123.43366500000108,
                    "velocity": 0.5039370078740157,
                    "duration": 0.2224029999999999
                },
                {
                    "name": "G#2",
                    "midi": 44,
                    "time": 123.65606800000108,
                    "velocity": 0.4645669291338583,
                    "duration": 0.2224029999999999
                },
                {
                    "name": "F#2",
                    "midi": 42,
                    "time": 123.87847100000108,
                    "velocity": 0.4645669291338583,
                    "duration": 0.2224029999999999
                },
                {
                    "name": "C#2",
                    "midi": 37,
                    "time": 124.10087400000108,
                    "velocity": 0.4645669291338583,
                    "duration": 0.4448059999999998
                },
                {
                    "name": "C#3",
                    "midi": 49,
                    "time": 124.10087400000108,
                    "velocity": 0.49606299212598426,
                    "duration": 0.6672089999999997
                },
                {
                    "name": "D3",
                    "midi": 50,
                    "time": 124.76808300000108,
                    "velocity": 0.47244094488188976,
                    "duration": 0.2224029999999999
                },
                {
                    "name": "C#3",
                    "midi": 49,
                    "time": 124.99048600000108,
                    "velocity": 0.4409448818897638,
                    "duration": 0.2224029999999999
                },
                {
                    "name": "B2",
                    "midi": 47,
                    "time": 125.21288900000108,
                    "velocity": 0.4015748031496063,
                    "duration": 0.18996922916666392
                },
                {
                    "name": "B2",
                    "midi": 47,
                    "time": 125.40749162500109,
                    "velocity": 0.4409448818897638,
                    "duration": 0.027800374999998212
                },
                {
                    "name": "A2",
                    "midi": 45,
                    "time": 125.43529200000108,
                    "velocity": 0.5433070866141733,
                    "duration": 0.2224029999999999
                },
                {
                    "name": "G#2",
                    "midi": 44,
                    "time": 125.65769500000108,
                    "velocity": 0.5039370078740157,
                    "duration": 0.2224029999999999
                },
                {
                    "name": "F#2",
                    "midi": 42,
                    "time": 125.88009800000108,
                    "velocity": 0.4251968503937008,
                    "duration": 0.2224029999999999
                },
                {
                    "name": "A2",
                    "midi": 45,
                    "time": 126.10250100000108,
                    "velocity": 0.5039370078740157,
                    "duration": 0.2224029999999999
                },
                {
                    "name": "G#2",
                    "midi": 44,
                    "time": 126.32490400000108,
                    "velocity": 0.4645669291338583,
                    "duration": 0.2224029999999999
                },
                {
                    "name": "F#2",
                    "midi": 42,
                    "time": 126.54730700000108,
                    "velocity": 0.4645669291338583,
                    "duration": 0.2224029999999999
                },
                {
                    "name": "C#2",
                    "midi": 37,
                    "time": 126.76971000000108,
                    "velocity": 0.4645669291338583,
                    "duration": 0.8896119999999996
                },
                {
                    "name": "G#2",
                    "midi": 44,
                    "time": 126.76971000000108,
                    "velocity": 0.49606299212598426,
                    "duration": 0.8896119999999996
                },
                {
                    "name": "C#3",
                    "midi": 49,
                    "time": 127.88172500000108,
                    "velocity": 0.4645669291338583,
                    "duration": 0.2224029999999999
                },
                {
                    "name": "F#3",
                    "midi": 54,
                    "time": 128.10412800000108,
                    "velocity": 0.5039370078740157,
                    "duration": 0.889612000000028
                },
                {
                    "name": "A#2",
                    "midi": 46,
                    "time": 128.10412800000108,
                    "velocity": 0.5039370078740157,
                    "duration": 0.4448059999999998
                },
                {
                    "name": "D#3",
                    "midi": 51,
                    "time": 128.7713370000011,
                    "velocity": 0.4566929133858268,
                    "duration": 0.44480600000002823
                },
                {
                    "name": "F3",
                    "midi": 53,
                    "time": 128.9937400000011,
                    "velocity": 0.4881889763779528,
                    "duration": 0.22240300000001412
                },
                {
                    "name": "F#3",
                    "midi": 54,
                    "time": 129.21614300000113,
                    "velocity": 0.5511811023622047,
                    "duration": 0.22240300000001412
                },
                {
                    "name": "G#3",
                    "midi": 56,
                    "time": 129.43854600000114,
                    "velocity": 0.5669291338582677,
                    "duration": 0.6672090000000139
                },
                {
                    "name": "C#3",
                    "midi": 49,
                    "time": 129.43854600000114,
                    "velocity": 0.5669291338582677,
                    "duration": 0.4448059999999998
                },
                {
                    "name": "F#3",
                    "midi": 54,
                    "time": 130.10575500000115,
                    "velocity": 0.4251968503937008,
                    "duration": 0.4448059999999998
                },
                {
                    "name": "A#3",
                    "midi": 58,
                    "time": 130.10575500000115,
                    "velocity": 0.4251968503937008,
                    "duration": 0.6672090000000139
                },
                {
                    "name": "B2",
                    "midi": 47,
                    "time": 130.77296400000117,
                    "velocity": 0.5748031496062992,
                    "duration": 0.44480600000002823
                },
                {
                    "name": "C#4",
                    "midi": 61,
                    "time": 130.77296400000117,
                    "velocity": 0.5748031496062992,
                    "duration": 0.22240300000001412
                },
                {
                    "name": "B3",
                    "midi": 59,
                    "time": 130.99536700000118,
                    "velocity": 0.4881889763779528,
                    "duration": 0.22240300000001412
                },
                {
                    "name": "A#3",
                    "midi": 58,
                    "time": 131.2177700000012,
                    "velocity": 0.4251968503937008,
                    "duration": 0.22240300000001412
                },
                {
                    "name": "C#3",
                    "midi": 49,
                    "time": 131.4401730000012,
                    "velocity": 0.5196850393700787,
                    "duration": 0.44480600000002823
                },
                {
                    "name": "G#3",
                    "midi": 56,
                    "time": 131.4401730000012,
                    "velocity": 0.5196850393700787,
                    "duration": 0.22240300000001412
                },
                {
                    "name": "A#3",
                    "midi": 58,
                    "time": 131.66257600000122,
                    "velocity": 0.3858267716535433,
                    "duration": 0.22240300000001412
                },
                {
                    "name": "G#3",
                    "midi": 56,
                    "time": 131.88497900000124,
                    "velocity": 0.3228346456692913,
                    "duration": 0.22240300000001412
                },
                {
                    "name": "F#3",
                    "midi": 54,
                    "time": 132.10738200000125,
                    "velocity": 0.3937007874015748,
                    "duration": 1.0008134999999925
                },
                {
                    "name": "F#3",
                    "midi": 54,
                    "time": 132.99699400000125,
                    "velocity": 0.2677165354330709,
                    "duration": 0.2224029999999857
                },
                {
                    "name": "C#3",
                    "midi": 49,
                    "time": 133.10819550000124,
                    "velocity": 0.2440944881889764,
                    "duration": 0.11120149999999285
                },
                {
                    "name": "A#2",
                    "midi": 46,
                    "time": 133.21939700000124,
                    "velocity": 0.2440944881889764,
                    "duration": 0.11120149999999285
                },
                {
                    "name": "F#2",
                    "midi": 42,
                    "time": 133.33059850000123,
                    "velocity": 0.2047244094488189,
                    "duration": 0.11120149999999285
                },
                {
                    "name": "D#2",
                    "midi": 39,
                    "time": 133.44180000000122,
                    "velocity": 0.33070866141732286,
                    "duration": 0.11120149999999285
                },
                {
                    "name": "D#3",
                    "midi": 51,
                    "time": 133.55300150000122,
                    "velocity": 0.2440944881889764,
                    "duration": 0.11120149999999285
                },
                {
                    "name": "F#3",
                    "midi": 54,
                    "time": 133.6642030000012,
                    "velocity": 0.29133858267716534,
                    "duration": 0.11120149999999285
                },
                {
                    "name": "A#3",
                    "midi": 58,
                    "time": 133.7754045000012,
                    "velocity": 0.2440944881889764,
                    "duration": 0.11120149999999285
                },
                {
                    "name": "F#3",
                    "midi": 54,
                    "time": 133.8866060000012,
                    "velocity": 0.29133858267716534,
                    "duration": 0.11120149999999285
                },
                {
                    "name": "D#3",
                    "midi": 51,
                    "time": 133.9978075000012,
                    "velocity": 0.2440944881889764,
                    "duration": 0.11120149999999285
                },
                {
                    "name": "D#2",
                    "midi": 39,
                    "time": 134.10900900000118,
                    "velocity": 0.31496062992125984,
                    "duration": 0.11120149999999285
                },
                {
                    "name": "D#3",
                    "midi": 51,
                    "time": 134.22021050000117,
                    "velocity": 0.2440944881889764,
                    "duration": 0.11120149999999285
                },
                {
                    "name": "F#3",
                    "midi": 54,
                    "time": 134.33141200000117,
                    "velocity": 0.3858267716535433,
                    "duration": 0.11120149999999285
                },
                {
                    "name": "G#3",
                    "midi": 56,
                    "time": 134.44261350000116,
                    "velocity": 0.30708661417322836,
                    "duration": 0.11120149999999285
                },
                {
                    "name": "F#3",
                    "midi": 54,
                    "time": 134.55381500000115,
                    "velocity": 0.3937007874015748,
                    "duration": 0.11120149999999285
                },
                {
                    "name": "D#3",
                    "midi": 51,
                    "time": 134.66501650000114,
                    "velocity": 0.3700787401574803,
                    "duration": 0.11120149999999285
                },
                {
                    "name": "C#2",
                    "midi": 37,
                    "time": 134.77621800000114,
                    "velocity": 0.48031496062992124,
                    "duration": 0.11120149999999285
                },
                {
                    "name": "D#3",
                    "midi": 51,
                    "time": 134.88741950000113,
                    "velocity": 0.3543307086614173,
                    "duration": 0.11120149999999285
                },
                {
                    "name": "C#3",
                    "midi": 49,
                    "time": 134.99862100000112,
                    "velocity": 0.3464566929133858,
                    "duration": 0.11120149999999285
                },
                {
                    "name": "B2",
                    "midi": 47,
                    "time": 135.10982250000112,
                    "velocity": 0.2992125984251969,
                    "duration": 0.11120149999999285
                },
                {
                    "name": "A#2",
                    "midi": 46,
                    "time": 135.2210240000011,
                    "velocity": 0.3937007874015748,
                    "duration": 0.11120149999999285
                },
                {
                    "name": "G#2",
                    "midi": 44,
                    "time": 135.3322255000011,
                    "velocity": 0.2440944881889764,
                    "duration": 0.11120149999999285
                },
                {
                    "name": "F#2",
                    "midi": 42,
                    "time": 135.4434270000011,
                    "velocity": 0.3858267716535433,
                    "duration": 0.11120149999999285
                },
                {
                    "name": "C#3",
                    "midi": 49,
                    "time": 135.5546285000011,
                    "velocity": 0.2440944881889764,
                    "duration": 0.11120149999999285
                },
                {
                    "name": "E3",
                    "midi": 52,
                    "time": 135.66583000000108,
                    "velocity": 0.30708661417322836,
                    "duration": 0.11120149999999285
                },
                {
                    "name": "F#3",
                    "midi": 54,
                    "time": 135.77703150000107,
                    "velocity": 0.2440944881889764,
                    "duration": 0.11120149999999285
                },
                {
                    "name": "E3",
                    "midi": 52,
                    "time": 135.88823300000107,
                    "velocity": 0.2992125984251969,
                    "duration": 0.11120149999999285
                },
                {
                    "name": "C#3",
                    "midi": 49,
                    "time": 135.99943450000106,
                    "velocity": 0.2440944881889764,
                    "duration": 0.11120149999999285
                },
                {
                    "name": "B2",
                    "midi": 47,
                    "time": 136.11063600000105,
                    "velocity": 0.4094488188976378,
                    "duration": 0.11120149999999285
                },
                {
                    "name": "D#3",
                    "midi": 51,
                    "time": 136.22183750000104,
                    "velocity": 0.2440944881889764,
                    "duration": 0.11120149999999285
                },
                {
                    "name": "G#3",
                    "midi": 56,
                    "time": 136.33303900000104,
                    "velocity": 0.3543307086614173,
                    "duration": 0.11120149999999285
                },
                {
                    "name": "D#3",
                    "midi": 51,
                    "time": 136.44424050000103,
                    "velocity": 0.2440944881889764,
                    "duration": 0.11120149999999285
                },
                {
                    "name": "A#3",
                    "midi": 58,
                    "time": 136.55544200000102,
                    "velocity": 0.36220472440944884,
                    "duration": 0.11120149999999285
                },
                {
                    "name": "D#3",
                    "midi": 51,
                    "time": 136.66664350000102,
                    "velocity": 0.25984251968503935,
                    "duration": 0.11120149999999285
                },
                {
                    "name": "B3",
                    "midi": 59,
                    "time": 136.777845000001,
                    "velocity": 0.4330708661417323,
                    "duration": 0.11120149999999285
                },
                {
                    "name": "C#3",
                    "midi": 49,
                    "time": 136.889046500001,
                    "velocity": 0.3779527559055118,
                    "duration": 0.11120149999999285
                },
                {
                    "name": "C#4",
                    "midi": 61,
                    "time": 137.000248000001,
                    "velocity": 0.33858267716535434,
                    "duration": 0.11120149999999285
                },
                {
                    "name": "C#3",
                    "midi": 49,
                    "time": 137.111449500001,
                    "velocity": 0.29133858267716534,
                    "duration": 0.11120149999999285
                },
                {
                    "name": "B3",
                    "midi": 59,
                    "time": 137.22265100000098,
                    "velocity": 0.3543307086614173,
                    "duration": 0.11120149999999285
                },
                {
                    "name": "C#3",
                    "midi": 49,
                    "time": 137.33385250000097,
                    "velocity": 0.31496062992125984,
                    "duration": 0.11120149999999285
                },
                {
                    "name": "F#2",
                    "midi": 42,
                    "time": 137.44505400000097,
                    "velocity": 0.36220472440944884,
                    "duration": 0.11120149999999285
                },
                {
                    "name": "F#3",
                    "midi": 54,
                    "time": 137.55625550000096,
                    "velocity": 0.30708661417322836,
                    "duration": 0.11120149999999285
                },
                {
                    "name": "A#3",
                    "midi": 58,
                    "time": 137.66745700000095,
                    "velocity": 0.33858267716535434,
                    "duration": 0.11120149999999285
                },
                {
                    "name": "F#3",
                    "midi": 54,
                    "time": 137.77865850000094,
                    "velocity": 0.29133858267716534,
                    "duration": 0.11120149999999285
                },
                {
                    "name": "A#3",
                    "midi": 58,
                    "time": 137.88986000000094,
                    "velocity": 0.3779527559055118,
                    "duration": 0.11120149999999285
                },
                {
                    "name": "F#3",
                    "midi": 54,
                    "time": 138.00106150000093,
                    "velocity": 0.31496062992125984,
                    "duration": 0.11120149999999285
                },
                {
                    "name": "B3",
                    "midi": 59,
                    "time": 138.11226300000092,
                    "velocity": 0.4409448818897638,
                    "duration": 0.11120149999999285
                },
                {
                    "name": "F#3",
                    "midi": 54,
                    "time": 138.22346450000092,
                    "velocity": 0.36220472440944884,
                    "duration": 0.11120149999999285
                },
                {
                    "name": "B3",
                    "midi": 59,
                    "time": 138.3346660000009,
                    "velocity": 0.4566929133858268,
                    "duration": 0.11120149999999285
                },
                {
                    "name": "F#3",
                    "midi": 54,
                    "time": 138.4458675000009,
                    "velocity": 0.3779527559055118,
                    "duration": 0.11120149999999285
                },
                {
                    "name": "C#4",
                    "midi": 61,
                    "time": 138.5570690000009,
                    "velocity": 0.5275590551181102,
                    "duration": 0.11120149999999285
                },
                {
                    "name": "F#3",
                    "midi": 54,
                    "time": 138.6682705000009,
                    "velocity": 0.4409448818897638,
                    "duration": 0.11120149999999285
                },
                {
                    "name": "B2",
                    "midi": 47,
                    "time": 138.77947200000088,
                    "velocity": 0.5118110236220472,
                    "duration": 0.6672089999999571
                },
                {
                    "name": "G3",
                    "midi": 55,
                    "time": 138.77947200000088,
                    "velocity": 0.5669291338582677,
                    "duration": 0.11120149999999285
                },
                {
                    "name": "D#3",
                    "midi": 51,
                    "time": 138.89067350000087,
                    "velocity": 0.4015748031496063,
                    "duration": 0.11120149999999285
                },
                {
                    "name": "G#3",
                    "midi": 56,
                    "time": 139.00187500000087,
                    "velocity": 0.4566929133858268,
                    "duration": 0.11120149999999285
                },
                {
                    "name": "D#3",
                    "midi": 51,
                    "time": 139.11307650000086,
                    "velocity": 0.3779527559055118,
                    "duration": 0.11120149999999285
                },
                {
                    "name": "A#3",
                    "midi": 58,
                    "time": 139.22427800000085,
                    "velocity": 0.4330708661417323,
                    "duration": 0.11120149999999285
                },
                {
                    "name": "D#3",
                    "midi": 51,
                    "time": 139.33547950000084,
                    "velocity": 0.3700787401574803,
                    "duration": 0.11120149999999285
                },
                {
                    "name": "B3",
                    "midi": 59,
                    "time": 139.44668100000084,
                    "velocity": 0.5039370078740157,
                    "duration": 0.11120149999999285
                },
                {
                    "name": "C#3",
                    "midi": 49,
                    "time": 139.55788250000083,
                    "velocity": 0.3858267716535433,
                    "duration": 0.11120149999999285
                },
                {
                    "name": "C#4",
                    "midi": 61,
                    "time": 139.66908400000082,
                    "velocity": 0.4330708661417323,
                    "duration": 0.11120149999999285
                },
                {
                    "name": "C#3",
                    "midi": 49,
                    "time": 139.78028550000082,
                    "velocity": 0.3779527559055118,
                    "duration": 0.11120149999999285
                },
                {
                    "name": "B3",
                    "midi": 59,
                    "time": 139.8914870000008,
                    "velocity": 0.4251968503937008,
                    "duration": 0.11120149999999285
                },
                {
                    "name": "C#3",
                    "midi": 49,
                    "time": 140.0026885000008,
                    "velocity": 0.3228346456692913,
                    "duration": 0.11120149999999285
                },
                {
                    "name": "F#3",
                    "midi": 54,
                    "time": 140.2250915000008,
                    "velocity": 0.4251968503937008,
                    "duration": 0.11120149999999285
                },
                {
                    "name": "F3",
                    "midi": 53,
                    "time": 140.33629300000078,
                    "velocity": 0.4251968503937008,
                    "duration": 0.11120149999999285
                },
                {
                    "name": "F#3",
                    "midi": 54,
                    "time": 140.44749450000077,
                    "velocity": 0.4251968503937008,
                    "duration": 0.11120149999999285
                },
                {
                    "name": "A#3",
                    "midi": 58,
                    "time": 140.55869600000077,
                    "velocity": 0.4251968503937008,
                    "duration": 0.11120149999999285
                },
                {
                    "name": "F#3",
                    "midi": 54,
                    "time": 140.66989750000076,
                    "velocity": 0.4015748031496063,
                    "duration": 0.11120149999999285
                },
                {
                    "name": "F3",
                    "midi": 53,
                    "time": 140.78109900000075,
                    "velocity": 0.4330708661417323,
                    "duration": 0.11120149999999285
                },
                {
                    "name": "F#3",
                    "midi": 54,
                    "time": 140.89230050000074,
                    "velocity": 0.4330708661417323,
                    "duration": 0.11120149999999285
                },
                {
                    "name": "F3",
                    "midi": 53,
                    "time": 141.00350200000074,
                    "velocity": 0.44881889763779526,
                    "duration": 0.11120149999999285
                },
                {
                    "name": "F#3",
                    "midi": 54,
                    "time": 141.11470350000073,
                    "velocity": 0.47244094488188976,
                    "duration": 0.11120149999999285
                },
                {
                    "name": "E3",
                    "midi": 52,
                    "time": 141.22590500000072,
                    "velocity": 0.48031496062992124,
                    "duration": 0.11120149999999285
                },
                {
                    "name": "F#3",
                    "midi": 54,
                    "time": 141.33710650000071,
                    "velocity": 0.5118110236220472,
                    "duration": 0.11120149999999285
                },
                {
                    "name": "D#3",
                    "midi": 51,
                    "time": 141.4483080000007,
                    "velocity": 0.5905511811023622,
                    "duration": 0.11120149999999285
                },
                {
                    "name": "F#3",
                    "midi": 54,
                    "time": 141.5595095000007,
                    "velocity": 0.41732283464566927,
                    "duration": 0.11120149999999285
                },
                {
                    "name": "B3",
                    "midi": 59,
                    "time": 141.6707110000007,
                    "velocity": 0.47244094488188976,
                    "duration": 0.11120149999999285
                },
                {
                    "name": "F#3",
                    "midi": 54,
                    "time": 141.7819125000007,
                    "velocity": 0.3937007874015748,
                    "duration": 0.11120149999999285
                },
                {
                    "name": "C#3",
                    "midi": 49,
                    "time": 141.89311400000068,
                    "velocity": 0.44881889763779526,
                    "duration": 0.11120149999999285
                },
                {
                    "name": "F#3",
                    "midi": 54,
                    "time": 142.00431550000067,
                    "velocity": 0.3858267716535433,
                    "duration": 0.11120149999999285
                },
                {
                    "name": "C3",
                    "midi": 48,
                    "time": 142.11551700000066,
                    "velocity": 0.49606299212598426,
                    "duration": 0.11120149999999285
                },
                {
                    "name": "F#3",
                    "midi": 54,
                    "time": 142.22671850000066,
                    "velocity": 0.3700787401574803,
                    "duration": 0.11120149999999285
                },
                {
                    "name": "G#3",
                    "midi": 56,
                    "time": 142.33792000000065,
                    "velocity": 0.4094488188976378,
                    "duration": 0.11120149999999285
                },
                {
                    "name": "F#3",
                    "midi": 54,
                    "time": 142.44912150000064,
                    "velocity": 0.3543307086614173,
                    "duration": 0.11120149999999285
                },
                {
                    "name": "C3",
                    "midi": 48,
                    "time": 142.56032300000064,
                    "velocity": 0.3858267716535433,
                    "duration": 0.11120149999999285
                },
                {
                    "name": "F#3",
                    "midi": 54,
                    "time": 142.67152450000063,
                    "velocity": 0.29133858267716534,
                    "duration": 0.11120149999999285
                },
                {
                    "name": "C#3",
                    "midi": 49,
                    "time": 142.78272600000062,
                    "velocity": 0.49606299212598426,
                    "duration": 0.11120149999999285
                },
                {
                    "name": "G#3",
                    "midi": 56,
                    "time": 142.89392750000061,
                    "velocity": 0.3464566929133858,
                    "duration": 0.11120149999999285
                },
                {
                    "name": "B3",
                    "midi": 59,
                    "time": 143.0051290000006,
                    "velocity": 0.3858267716535433,
                    "duration": 0.11120149999999285
                },
                {
                    "name": "G#3",
                    "midi": 56,
                    "time": 143.1163305000006,
                    "velocity": 0.31496062992125984,
                    "duration": 0.11120149999999285
                },
                {
                    "name": "D#3",
                    "midi": 51,
                    "time": 143.2275320000006,
                    "velocity": 0.3543307086614173,
                    "duration": 0.11120149999999285
                },
                {
                    "name": "B3",
                    "midi": 59,
                    "time": 143.2275320000006,
                    "velocity": 0.3543307086614173,
                    "duration": 0.11120149999999285
                },
                {
                    "name": "G#3",
                    "midi": 56,
                    "time": 143.3387335000006,
                    "velocity": 0.29133858267716534,
                    "duration": 0.11120149999999285
                },
                {
                    "name": "F3",
                    "midi": 53,
                    "time": 143.44993500000058,
                    "velocity": 0.33070866141732286,
                    "duration": 0.11120149999999285
                },
                {
                    "name": "B3",
                    "midi": 59,
                    "time": 143.44993500000058,
                    "velocity": 0.3937007874015748,
                    "duration": 0.11120149999999285
                },
                {
                    "name": "G#3",
                    "midi": 56,
                    "time": 143.56113650000057,
                    "velocity": 0.2992125984251969,
                    "duration": 0.11120149999999285
                },
                {
                    "name": "D#3",
                    "midi": 51,
                    "time": 143.67233800000056,
                    "velocity": 0.33070866141732286,
                    "duration": 0.11120149999999285
                },
                {
                    "name": "B3",
                    "midi": 59,
                    "time": 143.67233800000056,
                    "velocity": 0.33070866141732286,
                    "duration": 0.11120149999999285
                },
                {
                    "name": "G#3",
                    "midi": 56,
                    "time": 143.78353950000056,
                    "velocity": 0.29133858267716534,
                    "duration": 0.11120149999999285
                },
                {
                    "name": "F3",
                    "midi": 53,
                    "time": 143.89474100000055,
                    "velocity": 0.33070866141732286,
                    "duration": 0.11120149999999285
                },
                {
                    "name": "B3",
                    "midi": 59,
                    "time": 143.89474100000055,
                    "velocity": 0.33070866141732286,
                    "duration": 0.11120149999999285
                },
                {
                    "name": "G#3",
                    "midi": 56,
                    "time": 144.00594250000054,
                    "velocity": 0.25196850393700787,
                    "duration": 0.11120149999999285
                },
                {
                    "name": "A#3",
                    "midi": 58,
                    "time": 144.11714400000054,
                    "velocity": 0.3937007874015748,
                    "duration": 0.11120149999999285
                },
                {
                    "name": "F#3",
                    "midi": 54,
                    "time": 144.22834550000053,
                    "velocity": 0.2992125984251969,
                    "duration": 0.11120149999999285
                },
                {
                    "name": "B3",
                    "midi": 59,
                    "time": 144.33954700000052,
                    "velocity": 0.33070866141732286,
                    "duration": 0.11120149999999285
                },
                {
                    "name": "F#3",
                    "midi": 54,
                    "time": 144.45074850000051,
                    "velocity": 0.29133858267716534,
                    "duration": 0.11120149999999285
                },
                {
                    "name": "C#4",
                    "midi": 61,
                    "time": 144.5619500000005,
                    "velocity": 0.33070866141732286,
                    "duration": 0.11120149999999285
                },
                {
                    "name": "F#3",
                    "midi": 54,
                    "time": 144.6731515000005,
                    "velocity": 0.25196850393700787,
                    "duration": 0.11120149999999285
                },
                {
                    "name": "B2",
                    "midi": 47,
                    "time": 144.7843530000005,
                    "velocity": 0.3543307086614173,
                    "duration": 0.11120149999999285
                },
                {
                    "name": "D#3",
                    "midi": 51,
                    "time": 144.8955545000005,
                    "velocity": 0.25984251968503935,
                    "duration": 0.11120149999999285
                },
                {
                    "name": "G#3",
                    "midi": 56,
                    "time": 145.00675600000048,
                    "velocity": 0.33858267716535434,
                    "duration": 0.11120149999999285
                },
                {
                    "name": "B3",
                    "midi": 59,
                    "time": 145.11795750000047,
                    "velocity": 0.25196850393700787,
                    "duration": 0.11120149999999285
                },
                {
                    "name": "G#3",
                    "midi": 56,
                    "time": 145.22915900000046,
                    "velocity": 0.3228346456692913,
                    "duration": 0.11120149999999285
                },
                {
                    "name": "D#3",
                    "midi": 51,
                    "time": 145.34036050000046,
                    "velocity": 0.25196850393700787,
                    "duration": 0.11120149999999285
                },
                {
                    "name": "C#3",
                    "midi": 49,
                    "time": 145.45156200000045,
                    "velocity": 0.3937007874015748,
                    "duration": 0.6672089999999855
                },
                {
                    "name": "A#3",
                    "midi": 58,
                    "time": 145.45156200000045,
                    "velocity": 0.3937007874015748,
                    "duration": 0.11120149999999285
                },
                {
                    "name": "B3",
                    "midi": 59,
                    "time": 146.11877100000044,
                    "velocity": 0.3228346456692913,
                    "duration": 0.11120149999999285
                },
                {
                    "name": "G#3",
                    "midi": 56,
                    "time": 146.22997250000043,
                    "velocity": 0.2755905511811024,
                    "duration": 0.11120149999999285
                },
                {
                    "name": "F3",
                    "midi": 53,
                    "time": 146.34117400000042,
                    "velocity": 0.3228346456692913,
                    "duration": 0.11120149999999285
                },
                {
                    "name": "C#3",
                    "midi": 49,
                    "time": 146.45237550000041,
                    "velocity": 0.2992125984251969,
                    "duration": 0.11120149999999285
                },
                {
                    "name": "B2",
                    "midi": 47,
                    "time": 146.5635770000004,
                    "velocity": 0.3228346456692913,
                    "duration": 0.11120149999999285
                },
                {
                    "name": "G#2",
                    "midi": 44,
                    "time": 146.6747785000004,
                    "velocity": 0.29133858267716534,
                    "duration": 0.11120149999999285
                },
                {
                    "name": "F#2",
                    "midi": 42,
                    "time": 146.7859800000004,
                    "velocity": 0.41732283464566927,
                    "duration": 0.11120149999999285
                },
                {
                    "name": "F2",
                    "midi": 41,
                    "time": 146.89718150000039,
                    "velocity": 0.31496062992125984,
                    "duration": 0.11120149999999285
                },
                {
                    "name": "F#2",
                    "midi": 42,
                    "time": 147.00838300000038,
                    "velocity": 0.33070866141732286,
                    "duration": 0.11120149999999285
                },
                {
                    "name": "G#2",
                    "midi": 44,
                    "time": 147.11958450000037,
                    "velocity": 0.30708661417322836,
                    "duration": 0.11120149999999285
                },
                {
                    "name": "A#2",
                    "midi": 46,
                    "time": 147.23078600000036,
                    "velocity": 0.30708661417322836,
                    "duration": 0.11120149999999285
                },
                {
                    "name": "B2",
                    "midi": 47,
                    "time": 147.34198750000036,
                    "velocity": 0.2992125984251969,
                    "duration": 0.11120149999999285
                },
                {
                    "name": "C#3",
                    "midi": 49,
                    "time": 147.45318900000035,
                    "velocity": 0.2992125984251969,
                    "duration": 0.11120149999999285
                },
                {
                    "name": "C3",
                    "midi": 48,
                    "time": 147.56439050000034,
                    "velocity": 0.2677165354330709,
                    "duration": 0.11120149999999285
                },
                {
                    "name": "C#3",
                    "midi": 49,
                    "time": 147.67559200000034,
                    "velocity": 0.28346456692913385,
                    "duration": 0.11120149999999285
                },
                {
                    "name": "D#3",
                    "midi": 51,
                    "time": 147.78679350000033,
                    "velocity": 0.2677165354330709,
                    "duration": 0.11120149999999285
                },
                {
                    "name": "E3",
                    "midi": 52,
                    "time": 147.89799500000032,
                    "velocity": 0.2755905511811024,
                    "duration": 0.11120149999999285
                },
                {
                    "name": "F3",
                    "midi": 53,
                    "time": 148.00919650000031,
                    "velocity": 0.2440944881889764,
                    "duration": 0.11120149999999285
                },
                {
                    "name": "F#3",
                    "midi": 54,
                    "time": 148.1203980000003,
                    "velocity": 0.2755905511811024,
                    "duration": 0.6672089999999855
                },
                {
                    "name": "D#4",
                    "midi": 63,
                    "time": 148.34280100000032,
                    "velocity": 0.2992125984251969,
                    "duration": 0.08340112499999464
                },
                {
                    "name": "C#4",
                    "midi": 61,
                    "time": 148.5652040000003,
                    "velocity": 0.25196850393700787,
                    "duration": 0.08340112499999464
                },
                {
                    "name": "C#3",
                    "midi": 49,
                    "time": 148.7876070000003,
                    "velocity": 0.2755905511811024,
                    "duration": 0.6672089999999855
                },
                {
                    "name": "C4",
                    "midi": 60,
                    "time": 148.7876070000003,
                    "velocity": 0.2992125984251969,
                    "duration": 0.08340112499999464
                },
                {
                    "name": "B3",
                    "midi": 59,
                    "time": 149.2324130000003,
                    "velocity": 0.2992125984251969,
                    "duration": 0.11120149999999285
                },
                {
                    "name": "F#3",
                    "midi": 54,
                    "time": 149.45481600000028,
                    "velocity": 0.4015748031496063,
                    "duration": 0.11120149999999285
                },
                {
                    "name": "A#3",
                    "midi": 58,
                    "time": 149.45481600000028,
                    "velocity": 0.4015748031496063,
                    "duration": 0.11120149999999285
                },
                {
                    "name": "F3",
                    "midi": 53,
                    "time": 149.56601750000027,
                    "velocity": 0.33858267716535434,
                    "duration": 0.11120149999999285
                },
                {
                    "name": "F#3",
                    "midi": 54,
                    "time": 149.67721900000026,
                    "velocity": 0.3543307086614173,
                    "duration": 0.11120149999999285
                },
                {
                    "name": "G#3",
                    "midi": 56,
                    "time": 149.78842050000026,
                    "velocity": 0.3228346456692913,
                    "duration": 0.11120149999999285
                },
                {
                    "name": "A#3",
                    "midi": 58,
                    "time": 149.89962200000025,
                    "velocity": 0.33070866141732286,
                    "duration": 0.11120149999999285
                },
                {
                    "name": "B3",
                    "midi": 59,
                    "time": 150.01082350000024,
                    "velocity": 0.31496062992125984,
                    "duration": 0.11120149999999285
                },
                {
                    "name": "C#4",
                    "midi": 61,
                    "time": 150.12202500000024,
                    "velocity": 0.31496062992125984,
                    "duration": 0.11120149999999285
                },
                {
                    "name": "C4",
                    "midi": 60,
                    "time": 150.23322650000023,
                    "velocity": 0.28346456692913385,
                    "duration": 0.11120149999999285
                },
                {
                    "name": "C#4",
                    "midi": 61,
                    "time": 150.34442800000022,
                    "velocity": 0.2992125984251969,
                    "duration": 0.11120149999999285
                },
                {
                    "name": "D#4",
                    "midi": 63,
                    "time": 150.4556295000002,
                    "velocity": 0.28346456692913385,
                    "duration": 0.11120149999999285
                },
                {
                    "name": "E4",
                    "midi": 64,
                    "time": 150.5668310000002,
                    "velocity": 0.29133858267716534,
                    "duration": 0.11120149999999285
                },
                {
                    "name": "F4",
                    "midi": 65,
                    "time": 150.6780325000002,
                    "velocity": 0.25984251968503935,
                    "duration": 0.11120149999999285
                },
                {
                    "name": "F#4",
                    "midi": 66,
                    "time": 150.7892340000002,
                    "velocity": 0.3464566929133858,
                    "duration": 0.22240300000001412
                },
                {
                    "name": "C#4",
                    "midi": 61,
                    "time": 151.0116370000002,
                    "velocity": 0.33858267716535434,
                    "duration": 0.22240300000001412
                },
                {
                    "name": "F4",
                    "midi": 65,
                    "time": 151.0116370000002,
                    "velocity": 0.4015748031496063,
                    "duration": 0.22240300000001412
                },
                {
                    "name": "B3",
                    "midi": 59,
                    "time": 151.23404000000022,
                    "velocity": 0.31496062992125984,
                    "duration": 0.22240300000001412
                },
                {
                    "name": "D#4",
                    "midi": 63,
                    "time": 151.23404000000022,
                    "velocity": 0.3779527559055118,
                    "duration": 0.22240300000001412
                },
                {
                    "name": "A#3",
                    "midi": 58,
                    "time": 151.45644300000023,
                    "velocity": 0.2992125984251969,
                    "duration": 0.22240300000001412
                },
                {
                    "name": "C#4",
                    "midi": 61,
                    "time": 151.45644300000023,
                    "velocity": 0.3543307086614173,
                    "duration": 0.22240300000001412
                },
                {
                    "name": "A3",
                    "midi": 57,
                    "time": 151.67884600000025,
                    "velocity": 0.29133858267716534,
                    "duration": 0.22240300000001412
                },
                {
                    "name": "C4",
                    "midi": 60,
                    "time": 151.67884600000025,
                    "velocity": 0.3464566929133858,
                    "duration": 0.22240300000001412
                },
                {
                    "name": "G#3",
                    "midi": 56,
                    "time": 151.90124900000026,
                    "velocity": 0.29133858267716534,
                    "duration": 0.22240300000001412
                },
                {
                    "name": "B3",
                    "midi": 59,
                    "time": 151.90124900000026,
                    "velocity": 0.3464566929133858,
                    "duration": 0.22240300000001412
                },
                {
                    "name": "F#3",
                    "midi": 54,
                    "time": 152.12365200000028,
                    "velocity": 0.29133858267716534,
                    "duration": 0.22240300000001412
                },
                {
                    "name": "A#3",
                    "midi": 58,
                    "time": 152.12365200000028,
                    "velocity": 0.3464566929133858,
                    "duration": 0.22240300000001412
                },
                {
                    "name": "C#3",
                    "midi": 49,
                    "time": 152.3460550000003,
                    "velocity": 0.29133858267716534,
                    "duration": 0.22240300000001412
                },
                {
                    "name": "F3",
                    "midi": 53,
                    "time": 152.3460550000003,
                    "velocity": 0.3464566929133858,
                    "duration": 0.22240300000001412
                },
                {
                    "name": "B2",
                    "midi": 47,
                    "time": 152.5684580000003,
                    "velocity": 0.25984251968503935,
                    "duration": 0.22240300000001412
                },
                {
                    "name": "D#3",
                    "midi": 51,
                    "time": 152.5684580000003,
                    "velocity": 0.30708661417322836,
                    "duration": 0.22240300000001412
                },
                {
                    "name": "A#2",
                    "midi": 46,
                    "time": 152.79086100000032,
                    "velocity": 0.2283464566929134,
                    "duration": 0.22240300000001412
                },
                {
                    "name": "C#3",
                    "midi": 49,
                    "time": 152.79086100000032,
                    "velocity": 0.2755905511811024,
                    "duration": 0.22240300000001412
                },
                {
                    "name": "A2",
                    "midi": 45,
                    "time": 153.01326400000033,
                    "velocity": 0.2125984251968504,
                    "duration": 0.22240300000001412
                },
                {
                    "name": "C3",
                    "midi": 48,
                    "time": 153.01326400000033,
                    "velocity": 0.25196850393700787,
                    "duration": 0.22240300000001412
                },
                {
                    "name": "G#2",
                    "midi": 44,
                    "time": 153.23566700000035,
                    "velocity": 0.1968503937007874,
                    "duration": 0.22240300000001412
                },
                {
                    "name": "B2",
                    "midi": 47,
                    "time": 153.23566700000035,
                    "velocity": 0.23622047244094488,
                    "duration": 0.22240300000001412
                },
                {
                    "name": "F#2",
                    "midi": 42,
                    "time": 153.45807000000036,
                    "velocity": 0.2047244094488189,
                    "duration": 2.891239000000013
                },
                {
                    "name": "A#2",
                    "midi": 46,
                    "time": 153.45807000000036,
                    "velocity": 0.2204724409448819,
                    "duration": 2.891239000000013
                },
                {
                    "name": "C#3",
                    "midi": 49,
                    "time": 154.79248800000036,
                    "velocity": 0.2047244094488189,
                    "duration": 1.5568210000000136
                },
                {
                    "name": "A#3",
                    "midi": 58,
                    "time": 156.5717120000004,
                    "velocity": 0.25984251968503935,
                    "duration": 0.11120149999999285
                },
                {
                    "name": "F#3",
                    "midi": 54,
                    "time": 156.68291350000038,
                    "velocity": 0.2283464566929134,
                    "duration": 0.11120149999999285
                },
                {
                    "name": "C#3",
                    "midi": 49,
                    "time": 156.79411500000037,
                    "velocity": 0.25984251968503935,
                    "duration": 0.11120149999999285
                },
                {
                    "name": "F#2",
                    "midi": 42,
                    "time": 158.12853300000037,
                    "velocity": 0.16535433070866143,
                    "duration": 0.22240300000001412
                },
                {
                    "name": "C#3",
                    "midi": 49,
                    "time": 158.12853300000037,
                    "velocity": 0.1968503937007874,
                    "duration": 0.22240300000001412
                },
                {
                    "name": "F#3",
                    "midi": 54,
                    "time": 158.7957420000004,
                    "velocity": 0.16535433070866143,
                    "duration": 0.22240300000001412
                },
                {
                    "name": "C#4",
                    "midi": 61,
                    "time": 158.7957420000004,
                    "velocity": 0.1968503937007874,
                    "duration": 0.22240300000001412
                }
            ],
            "controlChanges": {},
            "id": 2,
            "name": "Piano left",
            "instrumentNumber": 0,
            "instrument": "acoustic grand piano",
            "instrumentFamily": "piano",
            "channelNumber": 0,
            "isPercussion": false
        },
        {
            "startTime": 0,
            "duration": 0,
            "length": 0,
            "notes": [],
            "controlChanges": {
                "64": [
                    {
                        "number": 64,
                        "time": 0,
                        "value": 0
                    },
                    {
                        "number": 64,
                        "time": 1.3877020520833332,
                        "value": 1
                    },
                    {
                        "number": 64,
                        "time": 2.6688359999999998,
                        "value": 0
                    },
                    {
                        "number": 64,
                        "time": 2.7800374999999997,
                        "value": 1
                    },
                    {
                        "number": 64,
                        "time": 3.1201287541666662,
                        "value": 0
                    },
                    {
                        "number": 64,
                        "time": 3.192409729166666,
                        "value": 1
                    },
                    {
                        "number": 64,
                        "time": 3.3402150562499995,
                        "value": 0
                    },
                    {
                        "number": 64,
                        "time": 3.4013758812499995,
                        "value": 1
                    },
                    {
                        "number": 64,
                        "time": 3.7854843958333326,
                        "value": 0
                    },
                    {
                        "number": 64,
                        "time": 3.859618729166666,
                        "value": 1
                    },
                    {
                        "number": 64,
                        "time": 4.006497377083333,
                        "value": 0
                    },
                    {
                        "number": 64,
                        "time": 4.034297752083333,
                        "value": 1
                    },
                    {
                        "number": 64,
                        "time": 4.454546754166667,
                        "value": 0
                    },
                    {
                        "number": 64,
                        "time": 4.480957110416667,
                        "value": 1
                    },
                    {
                        "number": 64,
                        "time": 4.676023075000001,
                        "value": 0
                    },
                    {
                        "number": 64,
                        "time": 5.343232075,
                        "value": 1
                    },
                    {
                        "number": 64,
                        "time": 5.564708395833334,
                        "value": 0
                    },
                    {
                        "number": 64,
                        "time": 5.623552522916667,
                        "value": 1
                    },
                    {
                        "number": 64,
                        "time": 5.789428093750001,
                        "value": 0
                    },
                    {
                        "number": 64,
                        "time": 5.856612333333334,
                        "value": 1
                    },
                    {
                        "number": 64,
                        "time": 6.013684452083335,
                        "value": 0
                    },
                    {
                        "number": 64,
                        "time": 6.084575408333335,
                        "value": 1
                    },
                    {
                        "number": 64,
                        "time": 6.232844075000002,
                        "value": 0
                    },
                    {
                        "number": 64,
                        "time": 6.301418333333335,
                        "value": 1
                    },
                    {
                        "number": 64,
                        "time": 6.454320395833335,
                        "value": 0
                    },
                    {
                        "number": 64,
                        "time": 6.725374052083335,
                        "value": 1
                    },
                    {
                        "number": 64,
                        "time": 8.006508000000002,
                        "value": 0
                    },
                    {
                        "number": 64,
                        "time": 8.117709500000002,
                        "value": 1
                    },
                    {
                        "number": 64,
                        "time": 8.45780075416667,
                        "value": 0
                    },
                    {
                        "number": 64,
                        "time": 8.53008172916667,
                        "value": 1
                    },
                    {
                        "number": 64,
                        "time": 8.677887056250002,
                        "value": 0
                    },
                    {
                        "number": 64,
                        "time": 8.739047881250002,
                        "value": 1
                    },
                    {
                        "number": 64,
                        "time": 9.123156395833336,
                        "value": 0
                    },
                    {
                        "number": 64,
                        "time": 9.197290729166669,
                        "value": 1
                    },
                    {
                        "number": 64,
                        "time": 9.344169377083336,
                        "value": 0
                    },
                    {
                        "number": 64,
                        "time": 9.386796618750003,
                        "value": 1
                    },
                    {
                        "number": 64,
                        "time": 9.792218754166669,
                        "value": 0
                    },
                    {
                        "number": 64,
                        "time": 9.82974926041667,
                        "value": 1
                    },
                    {
                        "number": 64,
                        "time": 10.011378377083336,
                        "value": 0
                    },
                    {
                        "number": 64,
                        "time": 10.051688920833335,
                        "value": 1
                    },
                    {
                        "number": 64,
                        "time": 10.459427754166668,
                        "value": 0
                    },
                    {
                        "number": 64,
                        "time": 10.497884939583335,
                        "value": 1
                    },
                    {
                        "number": 64,
                        "time": 10.678587377083335,
                        "value": 0
                    },
                    {
                        "number": 64,
                        "time": 10.721214618750002,
                        "value": 1
                    },
                    {
                        "number": 64,
                        "time": 10.901917056250003,
                        "value": 0
                    },
                    {
                        "number": 64,
                        "time": 10.956127787500003,
                        "value": 1
                    },
                    {
                        "number": 64,
                        "time": 11.12663675416667,
                        "value": 0
                    },
                    {
                        "number": 64,
                        "time": 11.165093939583336,
                        "value": 1
                    },
                    {
                        "number": 64,
                        "time": 11.345796377083337,
                        "value": 0
                    },
                    {
                        "number": 64,
                        "time": 11.386106920833337,
                        "value": 1
                    },
                    {
                        "number": 64,
                        "time": 11.570516075000004,
                        "value": 0
                    },
                    {
                        "number": 64,
                        "time": 11.623336787500005,
                        "value": 1
                    },
                    {
                        "number": 64,
                        "time": 11.793845754166671,
                        "value": 0
                    },
                    {
                        "number": 64,
                        "time": 11.830912920833338,
                        "value": 1
                    },
                    {
                        "number": 64,
                        "time": 12.013005377083338,
                        "value": 0
                    },
                    {
                        "number": 64,
                        "time": 12.047755845833338,
                        "value": 1
                    },
                    {
                        "number": 64,
                        "time": 12.461054754166671,
                        "value": 0
                    },
                    {
                        "number": 64,
                        "time": 12.498585260416672,
                        "value": 1
                    },
                    {
                        "number": 64,
                        "time": 12.680214377083338,
                        "value": 0
                    },
                    {
                        "number": 64,
                        "time": 12.721451600000005,
                        "value": 1
                    },
                    {
                        "number": 64,
                        "time": 13.128263754166673,
                        "value": 0
                    },
                    {
                        "number": 64,
                        "time": 13.16255088333334,
                        "value": 1
                    },
                    {
                        "number": 64,
                        "time": 13.34742337708334,
                        "value": 0
                    },
                    {
                        "number": 64,
                        "time": 13.388197260416673,
                        "value": 1
                    },
                    {
                        "number": 64,
                        "time": 13.570753056250007,
                        "value": 0
                    },
                    {
                        "number": 64,
                        "time": 13.624963787500008,
                        "value": 1
                    },
                    {
                        "number": 64,
                        "time": 13.795472754166674,
                        "value": 0
                    },
                    {
                        "number": 64,
                        "time": 13.830686562500007,
                        "value": 1
                    },
                    {
                        "number": 64,
                        "time": 14.014632377083341,
                        "value": 0
                    },
                    {
                        "number": 64,
                        "time": 14.050772864583342,
                        "value": 1
                    },
                    {
                        "number": 64,
                        "time": 14.239352075000008,
                        "value": 0
                    },
                    {
                        "number": 64,
                        "time": 14.292172787500009,
                        "value": 1
                    },
                    {
                        "number": 64,
                        "time": 14.462681754166676,
                        "value": 0
                    },
                    {
                        "number": 64,
                        "time": 14.497432222916675,
                        "value": 1
                    },
                    {
                        "number": 64,
                        "time": 14.681841377083343,
                        "value": 0
                    },
                    {
                        "number": 64,
                        "time": 14.716591845833342,
                        "value": 1
                    },
                    {
                        "number": 64,
                        "time": 15.129890754166675,
                        "value": 0
                    },
                    {
                        "number": 64,
                        "time": 15.167421260416676,
                        "value": 1
                    },
                    {
                        "number": 64,
                        "time": 15.352293754166675,
                        "value": 0
                    },
                    {
                        "number": 64,
                        "time": 15.354610452083342,
                        "value": 0
                    },
                    {
                        "number": 64,
                        "time": 15.389824260416676,
                        "value": 1
                    },
                    {
                        "number": 64,
                        "time": 15.574696754166675,
                        "value": 0
                    },
                    {
                        "number": 64,
                        "time": 15.577013452083342,
                        "value": 0
                    },
                    {
                        "number": 64,
                        "time": 15.612227260416676,
                        "value": 1
                    },
                    {
                        "number": 64,
                        "time": 15.797099754166675,
                        "value": 0
                    },
                    {
                        "number": 64,
                        "time": 15.799416452083342,
                        "value": 0
                    },
                    {
                        "number": 64,
                        "time": 15.834630260416676,
                        "value": 1
                    },
                    {
                        "number": 64,
                        "time": 16.019502754166677,
                        "value": 0
                    },
                    {
                        "number": 64,
                        "time": 16.021819452083342,
                        "value": 0
                    },
                    {
                        "number": 64,
                        "time": 16.057033260416677,
                        "value": 1
                    },
                    {
                        "number": 64,
                        "time": 16.241905754166677,
                        "value": 0
                    },
                    {
                        "number": 64,
                        "time": 16.244222452083342,
                        "value": 0
                    },
                    {
                        "number": 64,
                        "time": 16.279436260416677,
                        "value": 1
                    },
                    {
                        "number": 64,
                        "time": 16.464308754166677,
                        "value": 0
                    },
                    {
                        "number": 64,
                        "time": 16.466625452083342,
                        "value": 0
                    },
                    {
                        "number": 64,
                        "time": 16.501839260416677,
                        "value": 1
                    },
                    {
                        "number": 64,
                        "time": 16.686711754166677,
                        "value": 0
                    },
                    {
                        "number": 64,
                        "time": 16.689028452083342,
                        "value": 0
                    },
                    {
                        "number": 64,
                        "time": 16.724242260416677,
                        "value": 1
                    },
                    {
                        "number": 64,
                        "time": 17.131517754166676,
                        "value": 0
                    },
                    {
                        "number": 64,
                        "time": 17.13383445208334,
                        "value": 0
                    },
                    {
                        "number": 64,
                        "time": 17.169048260416677,
                        "value": 1
                    },
                    {
                        "number": 64,
                        "time": 17.353920754166676,
                        "value": 0
                    },
                    {
                        "number": 64,
                        "time": 17.35623745208334,
                        "value": 0
                    },
                    {
                        "number": 64,
                        "time": 17.391451260416677,
                        "value": 1
                    },
                    {
                        "number": 64,
                        "time": 17.576323754166676,
                        "value": 0
                    },
                    {
                        "number": 64,
                        "time": 17.57864045208334,
                        "value": 0
                    },
                    {
                        "number": 64,
                        "time": 17.613854260416677,
                        "value": 1
                    },
                    {
                        "number": 64,
                        "time": 17.798726754166676,
                        "value": 0
                    },
                    {
                        "number": 64,
                        "time": 17.80104345208334,
                        "value": 0
                    },
                    {
                        "number": 64,
                        "time": 17.836257260416676,
                        "value": 1
                    },
                    {
                        "number": 64,
                        "time": 18.021129754166676,
                        "value": 0
                    },
                    {
                        "number": 64,
                        "time": 18.02344645208334,
                        "value": 0
                    },
                    {
                        "number": 64,
                        "time": 18.058660260416676,
                        "value": 1
                    },
                    {
                        "number": 64,
                        "time": 18.243532754166676,
                        "value": 0
                    },
                    {
                        "number": 64,
                        "time": 18.24584945208334,
                        "value": 0
                    },
                    {
                        "number": 64,
                        "time": 18.281063260416676,
                        "value": 1
                    },
                    {
                        "number": 64,
                        "time": 18.465935754166676,
                        "value": 0
                    },
                    {
                        "number": 64,
                        "time": 18.46825245208334,
                        "value": 0
                    },
                    {
                        "number": 64,
                        "time": 18.503466260416676,
                        "value": 1
                    },
                    {
                        "number": 64,
                        "time": 18.688338754166676,
                        "value": 0
                    },
                    {
                        "number": 64,
                        "time": 18.69065545208334,
                        "value": 0
                    },
                    {
                        "number": 64,
                        "time": 18.725869260416676,
                        "value": 1
                    },
                    {
                        "number": 64,
                        "time": 18.910741754166676,
                        "value": 0
                    },
                    {
                        "number": 64,
                        "time": 18.91305845208334,
                        "value": 0
                    },
                    {
                        "number": 64,
                        "time": 18.948272260416676,
                        "value": 1
                    },
                    {
                        "number": 64,
                        "time": 19.133144754166675,
                        "value": 0
                    },
                    {
                        "number": 64,
                        "time": 19.13546145208334,
                        "value": 0
                    },
                    {
                        "number": 64,
                        "time": 19.170675260416676,
                        "value": 1
                    },
                    {
                        "number": 64,
                        "time": 19.355547754166675,
                        "value": 0
                    },
                    {
                        "number": 64,
                        "time": 19.35786445208334,
                        "value": 0
                    },
                    {
                        "number": 64,
                        "time": 19.393078260416676,
                        "value": 1
                    },
                    {
                        "number": 64,
                        "time": 19.577950754166675,
                        "value": 0
                    },
                    {
                        "number": 64,
                        "time": 19.58026745208334,
                        "value": 0
                    },
                    {
                        "number": 64,
                        "time": 19.615481260416676,
                        "value": 1
                    },
                    {
                        "number": 64,
                        "time": 19.800353754166675,
                        "value": 0
                    },
                    {
                        "number": 64,
                        "time": 19.80267045208334,
                        "value": 0
                    },
                    {
                        "number": 64,
                        "time": 19.837884260416676,
                        "value": 1
                    },
                    {
                        "number": 64,
                        "time": 20.022756754166675,
                        "value": 0
                    },
                    {
                        "number": 64,
                        "time": 20.02507345208334,
                        "value": 0
                    },
                    {
                        "number": 64,
                        "time": 20.060287260416676,
                        "value": 1
                    },
                    {
                        "number": 64,
                        "time": 20.245159754166675,
                        "value": 0
                    },
                    {
                        "number": 64,
                        "time": 20.24747645208334,
                        "value": 0
                    },
                    {
                        "number": 64,
                        "time": 20.282690260416675,
                        "value": 1
                    },
                    {
                        "number": 64,
                        "time": 20.467562754166675,
                        "value": 0
                    },
                    {
                        "number": 64,
                        "time": 20.46987945208334,
                        "value": 0
                    },
                    {
                        "number": 64,
                        "time": 20.505093260416675,
                        "value": 1
                    },
                    {
                        "number": 64,
                        "time": 20.689965754166675,
                        "value": 0
                    },
                    {
                        "number": 64,
                        "time": 20.69228245208334,
                        "value": 0
                    },
                    {
                        "number": 64,
                        "time": 20.727496260416675,
                        "value": 1
                    },
                    {
                        "number": 64,
                        "time": 20.912368754166675,
                        "value": 0
                    },
                    {
                        "number": 64,
                        "time": 20.91468545208334,
                        "value": 0
                    },
                    {
                        "number": 64,
                        "time": 20.949899260416675,
                        "value": 1
                    },
                    {
                        "number": 64,
                        "time": 21.134771754166675,
                        "value": 0
                    },
                    {
                        "number": 64,
                        "time": 21.13708845208334,
                        "value": 0
                    },
                    {
                        "number": 64,
                        "time": 21.172302260416675,
                        "value": 1
                    },
                    {
                        "number": 64,
                        "time": 21.357174754166675,
                        "value": 0
                    },
                    {
                        "number": 64,
                        "time": 21.35949145208334,
                        "value": 0
                    },
                    {
                        "number": 64,
                        "time": 21.394705260416675,
                        "value": 1
                    },
                    {
                        "number": 64,
                        "time": 21.579577754166674,
                        "value": 0
                    },
                    {
                        "number": 64,
                        "time": 21.58189445208334,
                        "value": 0
                    },
                    {
                        "number": 64,
                        "time": 21.617108260416675,
                        "value": 1
                    },
                    {
                        "number": 64,
                        "time": 21.801980754166674,
                        "value": 0
                    },
                    {
                        "number": 64,
                        "time": 21.80429745208334,
                        "value": 0
                    },
                    {
                        "number": 64,
                        "time": 21.839511260416675,
                        "value": 1
                    },
                    {
                        "number": 64,
                        "time": 22.024383754166674,
                        "value": 0
                    },
                    {
                        "number": 64,
                        "time": 22.02670045208334,
                        "value": 0
                    },
                    {
                        "number": 64,
                        "time": 22.061914260416675,
                        "value": 1
                    },
                    {
                        "number": 64,
                        "time": 22.246786754166674,
                        "value": 0
                    },
                    {
                        "number": 64,
                        "time": 22.24910345208334,
                        "value": 0
                    },
                    {
                        "number": 64,
                        "time": 22.284317260416675,
                        "value": 1
                    },
                    {
                        "number": 64,
                        "time": 22.469189754166674,
                        "value": 0
                    },
                    {
                        "number": 64,
                        "time": 22.47150645208334,
                        "value": 0
                    },
                    {
                        "number": 64,
                        "time": 22.506720260416675,
                        "value": 1
                    },
                    {
                        "number": 64,
                        "time": 22.691592754166674,
                        "value": 0
                    },
                    {
                        "number": 64,
                        "time": 22.69390945208334,
                        "value": 0
                    },
                    {
                        "number": 64,
                        "time": 22.729123260416674,
                        "value": 1
                    },
                    {
                        "number": 64,
                        "time": 22.913995754166674,
                        "value": 0
                    },
                    {
                        "number": 64,
                        "time": 23.702136385416672,
                        "value": 1
                    },
                    {
                        "number": 64,
                        "time": 24.019524000000004,
                        "value": 0
                    },
                    {
                        "number": 64,
                        "time": 24.067247977083337,
                        "value": 1
                    },
                    {
                        "number": 64,
                        "time": 24.469890075000002,
                        "value": 0
                    },
                    {
                        "number": 64,
                        "time": 24.75577059791667,
                        "value": 1
                    },
                    {
                        "number": 64,
                        "time": 25.14404916875,
                        "value": 0
                    },
                    {
                        "number": 64,
                        "time": 25.184823052083335,
                        "value": 1
                    },
                    {
                        "number": 64,
                        "time": 25.353942,
                        "value": 0
                    },
                    {
                        "number": 64,
                        "time": 25.422979597916665,
                        "value": 1
                    },
                    {
                        "number": 64,
                        "time": 26.04756135625,
                        "value": 0
                    },
                    {
                        "number": 64,
                        "time": 26.100845408333335,
                        "value": 1
                    },
                    {
                        "number": 64,
                        "time": 26.250504093750003,
                        "value": 0
                    },
                    {
                        "number": 64,
                        "time": 26.28062116666667,
                        "value": 1
                    },
                    {
                        "number": 64,
                        "time": 26.473370433333336,
                        "value": 0
                    },
                    {
                        "number": 64,
                        "time": 26.50302416666667,
                        "value": 1
                    },
                    {
                        "number": 64,
                        "time": 26.692530056250003,
                        "value": 0
                    },
                    {
                        "number": 64,
                        "time": 26.746740787500002,
                        "value": 1
                    },
                    {
                        "number": 64,
                        "time": 27.14382281041667,
                        "value": 0
                    },
                    {
                        "number": 64,
                        "time": 27.19664352291667,
                        "value": 1
                    },
                    {
                        "number": 64,
                        "time": 27.362982433333336,
                        "value": 0
                    },
                    {
                        "number": 64,
                        "time": 27.41904652291667,
                        "value": 1
                    },
                    {
                        "number": 64,
                        "time": 27.807788433333336,
                        "value": 0
                    },
                    {
                        "number": 64,
                        "time": 28.028338075000004,
                        "value": 1
                    },
                    {
                        "number": 64,
                        "time": 28.25027773541667,
                        "value": 0
                    },
                    {
                        "number": 64,
                        "time": 28.319315333333336,
                        "value": 1
                    },
                    {
                        "number": 64,
                        "time": 28.474997433333336,
                        "value": 0
                    },
                    {
                        "number": 64,
                        "time": 28.515307977083335,
                        "value": 1
                    },
                    {
                        "number": 64,
                        "time": 28.698327112500003,
                        "value": 0
                    },
                    {
                        "number": 64,
                        "time": 28.78543495416667,
                        "value": 1
                    },
                    {
                        "number": 64,
                        "time": 28.91980343333334,
                        "value": 0
                    },
                    {
                        "number": 64,
                        "time": 28.96567405208334,
                        "value": 1
                    },
                    {
                        "number": 64,
                        "time": 29.14359645208334,
                        "value": 0
                    },
                    {
                        "number": 64,
                        "time": 29.193173787500008,
                        "value": 1
                    },
                    {
                        "number": 64,
                        "time": 29.360439377083342,
                        "value": 0
                    },
                    {
                        "number": 64,
                        "time": 29.442450483333342,
                        "value": 1
                    },
                    {
                        "number": 64,
                        "time": 30.05081535625001,
                        "value": 0
                    },
                    {
                        "number": 64,
                        "time": 30.109659483333342,
                        "value": 1
                    },
                    {
                        "number": 64,
                        "time": 30.69161400000001,
                        "value": 0
                    },
                    {
                        "number": 64,
                        "time": 30.760651597916674,
                        "value": 1
                    },
                    {
                        "number": 64,
                        "time": 31.38523335625001,
                        "value": 0
                    },
                    {
                        "number": 64,
                        "time": 31.438517408333343,
                        "value": 1
                    },
                    {
                        "number": 64,
                        "time": 31.58817609375001,
                        "value": 0
                    },
                    {
                        "number": 64,
                        "time": 31.618293166666678,
                        "value": 1
                    },
                    {
                        "number": 64,
                        "time": 31.811042433333345,
                        "value": 0
                    },
                    {
                        "number": 64,
                        "time": 31.840696166666678,
                        "value": 1
                    },
                    {
                        "number": 64,
                        "time": 32.03020205625001,
                        "value": 0
                    },
                    {
                        "number": 64,
                        "time": 32.084412787500014,
                        "value": 1
                    },
                    {
                        "number": 64,
                        "time": 32.48149481041668,
                        "value": 0
                    },
                    {
                        "number": 64,
                        "time": 32.53431552291668,
                        "value": 1
                    },
                    {
                        "number": 64,
                        "time": 32.70065443333335,
                        "value": 0
                    },
                    {
                        "number": 64,
                        "time": 32.75671852291668,
                        "value": 1
                    },
                    {
                        "number": 64,
                        "time": 33.14546043333335,
                        "value": 0
                    },
                    {
                        "number": 64,
                        "time": 33.17604084583335,
                        "value": 1
                    },
                    {
                        "number": 64,
                        "time": 33.36137667916668,
                        "value": 0
                    },
                    {
                        "number": 64,
                        "time": 33.40122388333335,
                        "value": 1
                    },
                    {
                        "number": 64,
                        "time": 33.587949735416686,
                        "value": 0
                    },
                    {
                        "number": 64,
                        "time": 33.656987333333355,
                        "value": 1
                    },
                    {
                        "number": 64,
                        "time": 33.812669433333355,
                        "value": 0
                    },
                    {
                        "number": 64,
                        "time": 33.85297997708336,
                        "value": 1
                    },
                    {
                        "number": 64,
                        "time": 34.03599911250002,
                        "value": 0
                    },
                    {
                        "number": 64,
                        "time": 34.12310695416669,
                        "value": 1
                    },
                    {
                        "number": 64,
                        "time": 34.257475433333354,
                        "value": 0
                    },
                    {
                        "number": 64,
                        "time": 34.303346052083356,
                        "value": 1
                    },
                    {
                        "number": 64,
                        "time": 34.481268452083356,
                        "value": 0
                    },
                    {
                        "number": 64,
                        "time": 34.53084578750002,
                        "value": 1
                    },
                    {
                        "number": 64,
                        "time": 34.69811137708335,
                        "value": 0
                    },
                    {
                        "number": 64,
                        "time": 34.78012248333335,
                        "value": 1
                    },
                    {
                        "number": 64,
                        "time": 35.38848735625002,
                        "value": 0
                    },
                    {
                        "number": 64,
                        "time": 35.44733148333335,
                        "value": 1
                    },
                    {
                        "number": 64,
                        "time": 35.81568645208335,
                        "value": 0
                    },
                    {
                        "number": 64,
                        "time": 35.86016705208335,
                        "value": 1
                    },
                    {
                        "number": 64,
                        "time": 36.03021267916668,
                        "value": 0
                    },
                    {
                        "number": 64,
                        "time": 36.07005988333335,
                        "value": 1
                    },
                    {
                        "number": 64,
                        "time": 36.256785735416685,
                        "value": 0
                    },
                    {
                        "number": 64,
                        "time": 36.325823333333354,
                        "value": 1
                    },
                    {
                        "number": 64,
                        "time": 36.48150543333335,
                        "value": 0
                    },
                    {
                        "number": 64,
                        "time": 36.52181597708336,
                        "value": 1
                    },
                    {
                        "number": 64,
                        "time": 36.70483511250002,
                        "value": 0
                    },
                    {
                        "number": 64,
                        "time": 36.791942954166686,
                        "value": 1
                    },
                    {
                        "number": 64,
                        "time": 36.92631143333335,
                        "value": 0
                    },
                    {
                        "number": 64,
                        "time": 36.972182052083355,
                        "value": 1
                    },
                    {
                        "number": 64,
                        "time": 37.150104452083355,
                        "value": 0
                    },
                    {
                        "number": 64,
                        "time": 37.19968178750002,
                        "value": 1
                    },
                    {
                        "number": 64,
                        "time": 37.36694737708335,
                        "value": 0
                    },
                    {
                        "number": 64,
                        "time": 37.44895848333335,
                        "value": 1
                    },
                    {
                        "number": 64,
                        "time": 37.81731345208335,
                        "value": 0
                    },
                    {
                        "number": 64,
                        "time": 37.88079097500001,
                        "value": 1
                    },
                    {
                        "number": 64,
                        "time": 38.036936414583344,
                        "value": 0
                    },
                    {
                        "number": 64,
                        "time": 38.09114714583335,
                        "value": 1
                    },
                    {
                        "number": 64,
                        "time": 38.26211945208335,
                        "value": 0
                    },
                    {
                        "number": 64,
                        "time": 38.32559697500001,
                        "value": 1
                    },
                    {
                        "number": 64,
                        "time": 38.481742414583344,
                        "value": 0
                    },
                    {
                        "number": 64,
                        "time": 38.54197656041668,
                        "value": 1
                    },
                    {
                        "number": 64,
                        "time": 38.69951201875001,
                        "value": 0
                    },
                    {
                        "number": 64,
                        "time": 40.03578337708335,
                        "value": 0
                    },
                    {
                        "number": 64,
                        "time": 40.11779448333335,
                        "value": 1
                    },
                    {
                        "number": 64,
                        "time": 40.486149452083346,
                        "value": 0
                    },
                    {
                        "number": 64,
                        "time": 40.54962697500001,
                        "value": 1
                    },
                    {
                        "number": 64,
                        "time": 40.70577241458334,
                        "value": 0
                    },
                    {
                        "number": 64,
                        "time": 40.759983145833345,
                        "value": 1
                    },
                    {
                        "number": 64,
                        "time": 40.930955452083346,
                        "value": 0
                    },
                    {
                        "number": 64,
                        "time": 40.99443297500001,
                        "value": 1
                    },
                    {
                        "number": 64,
                        "time": 41.15057841458334,
                        "value": 0
                    },
                    {
                        "number": 64,
                        "time": 41.21081256041668,
                        "value": 1
                    },
                    {
                        "number": 64,
                        "time": 41.37298141458334,
                        "value": 0
                    },
                    {
                        "number": 64,
                        "time": 41.427192145833345,
                        "value": 1
                    },
                    {
                        "number": 64,
                        "time": 41.60001781041668,
                        "value": 0
                    },
                    {
                        "number": 64,
                        "time": 41.649595145833345,
                        "value": 1
                    },
                    {
                        "number": 64,
                        "time": 41.820567452083345,
                        "value": 0
                    },
                    {
                        "number": 64,
                        "time": 41.87802156041668,
                        "value": 1
                    },
                    {
                        "number": 64,
                        "time": 42.04019041458334,
                        "value": 0
                    },
                    {
                        "number": 64,
                        "time": 42.10042456041668,
                        "value": 1
                    },
                    {
                        "number": 64,
                        "time": 42.26583679166668,
                        "value": 0
                    },
                    {
                        "number": 64,
                        "time": 42.328850975000016,
                        "value": 1
                    },
                    {
                        "number": 64,
                        "time": 42.483143056250015,
                        "value": 0
                    },
                    {
                        "number": 64,
                        "time": 42.539207145833345,
                        "value": 1
                    },
                    {
                        "number": 64,
                        "time": 42.70739941458334,
                        "value": 0
                    },
                    {
                        "number": 64,
                        "time": 42.761610145833345,
                        "value": 1
                    },
                    {
                        "number": 64,
                        "time": 42.93443581041668,
                        "value": 0
                    },
                    {
                        "number": 64,
                        "time": 42.984013145833345,
                        "value": 1
                    },
                    {
                        "number": 64,
                        "time": 43.154985452083345,
                        "value": 0
                    },
                    {
                        "number": 64,
                        "time": 43.212439560416676,
                        "value": 1
                    },
                    {
                        "number": 64,
                        "time": 43.37460841458334,
                        "value": 0
                    },
                    {
                        "number": 64,
                        "time": 43.434842560416676,
                        "value": 1
                    },
                    {
                        "number": 64,
                        "time": 43.60025479166668,
                        "value": 0
                    },
                    {
                        "number": 64,
                        "time": 43.663268975000015,
                        "value": 1
                    },
                    {
                        "number": 64,
                        "time": 43.817561056250014,
                        "value": 0
                    },
                    {
                        "number": 64,
                        "time": 43.873625145833344,
                        "value": 1
                    },
                    {
                        "number": 64,
                        "time": 44.06081433750001,
                        "value": 0
                    },
                    {
                        "number": 64,
                        "time": 44.14699550000001,
                        "value": 1
                    },
                    {
                        "number": 64,
                        "time": 45.15058903750001,
                        "value": 0
                    },
                    {
                        "number": 64,
                        "time": 45.423496052083344,
                        "value": 1
                    },
                    {
                        "number": 64,
                        "time": 46.70463000000001,
                        "value": 0
                    },
                    {
                        "number": 64,
                        "time": 46.81583150000001,
                        "value": 1
                    },
                    {
                        "number": 64,
                        "time": 47.155922754166674,
                        "value": 0
                    },
                    {
                        "number": 64,
                        "time": 47.22820372916667,
                        "value": 1
                    },
                    {
                        "number": 64,
                        "time": 47.376009056250005,
                        "value": 0
                    },
                    {
                        "number": 64,
                        "time": 47.43716988125001,
                        "value": 1
                    },
                    {
                        "number": 64,
                        "time": 47.82127839583334,
                        "value": 0
                    },
                    {
                        "number": 64,
                        "time": 47.89541272916667,
                        "value": 1
                    },
                    {
                        "number": 64,
                        "time": 48.04229137708334,
                        "value": 0
                    },
                    {
                        "number": 64,
                        "time": 48.070091752083336,
                        "value": 1
                    },
                    {
                        "number": 64,
                        "time": 48.49034075416667,
                        "value": 0
                    },
                    {
                        "number": 64,
                        "time": 48.51675111041666,
                        "value": 1
                    },
                    {
                        "number": 64,
                        "time": 48.711817075,
                        "value": 0
                    },
                    {
                        "number": 64,
                        "time": 49.379026075,
                        "value": 1
                    },
                    {
                        "number": 64,
                        "time": 49.60050239583333,
                        "value": 0
                    },
                    {
                        "number": 64,
                        "time": 49.659346522916664,
                        "value": 1
                    },
                    {
                        "number": 64,
                        "time": 49.82522209375,
                        "value": 0
                    },
                    {
                        "number": 64,
                        "time": 49.892406333333334,
                        "value": 1
                    },
                    {
                        "number": 64,
                        "time": 50.049478452083335,
                        "value": 0
                    },
                    {
                        "number": 64,
                        "time": 50.12036940833333,
                        "value": 1
                    },
                    {
                        "number": 64,
                        "time": 50.268638075,
                        "value": 0
                    },
                    {
                        "number": 64,
                        "time": 50.33721233333333,
                        "value": 1
                    },
                    {
                        "number": 64,
                        "time": 50.49011439583333,
                        "value": 0
                    },
                    {
                        "number": 64,
                        "time": 50.76116805208333,
                        "value": 1
                    },
                    {
                        "number": 64,
                        "time": 52.04230199999999,
                        "value": 0
                    },
                    {
                        "number": 64,
                        "time": 52.15350349999999,
                        "value": 1
                    },
                    {
                        "number": 64,
                        "time": 52.49359475416666,
                        "value": 0
                    },
                    {
                        "number": 64,
                        "time": 52.565875729166656,
                        "value": 1
                    },
                    {
                        "number": 64,
                        "time": 52.71368105624999,
                        "value": 0
                    },
                    {
                        "number": 64,
                        "time": 52.77484188124999,
                        "value": 1
                    },
                    {
                        "number": 64,
                        "time": 53.15895039583332,
                        "value": 0
                    },
                    {
                        "number": 64,
                        "time": 53.233084729166656,
                        "value": 1
                    },
                    {
                        "number": 64,
                        "time": 53.37996337708332,
                        "value": 0
                    },
                    {
                        "number": 64,
                        "time": 53.422590618749986,
                        "value": 1
                    },
                    {
                        "number": 64,
                        "time": 53.82801275416665,
                        "value": 0
                    },
                    {
                        "number": 64,
                        "time": 53.86554326041665,
                        "value": 1
                    },
                    {
                        "number": 64,
                        "time": 54.04717237708332,
                        "value": 0
                    },
                    {
                        "number": 64,
                        "time": 54.087482920833324,
                        "value": 1
                    },
                    {
                        "number": 64,
                        "time": 54.49522175416666,
                        "value": 0
                    },
                    {
                        "number": 64,
                        "time": 54.533678939583325,
                        "value": 1
                    },
                    {
                        "number": 64,
                        "time": 54.71438137708333,
                        "value": 0
                    },
                    {
                        "number": 64,
                        "time": 54.75700861874999,
                        "value": 1
                    },
                    {
                        "number": 64,
                        "time": 54.937711056249995,
                        "value": 0
                    },
                    {
                        "number": 64,
                        "time": 54.9919217875,
                        "value": 1
                    },
                    {
                        "number": 64,
                        "time": 55.162430754166664,
                        "value": 0
                    },
                    {
                        "number": 64,
                        "time": 55.20088793958333,
                        "value": 1
                    },
                    {
                        "number": 64,
                        "time": 55.381590377083334,
                        "value": 0
                    },
                    {
                        "number": 64,
                        "time": 55.42190092083334,
                        "value": 1
                    },
                    {
                        "number": 64,
                        "time": 55.606310075,
                        "value": 0
                    },
                    {
                        "number": 64,
                        "time": 55.659130787500004,
                        "value": 1
                    },
                    {
                        "number": 64,
                        "time": 55.82963975416667,
                        "value": 0
                    },
                    {
                        "number": 64,
                        "time": 55.86670692083334,
                        "value": 1
                    },
                    {
                        "number": 64,
                        "time": 56.048799377083334,
                        "value": 0
                    },
                    {
                        "number": 64,
                        "time": 56.08354984583333,
                        "value": 1
                    },
                    {
                        "number": 64,
                        "time": 56.49684875416666,
                        "value": 0
                    },
                    {
                        "number": 64,
                        "time": 56.534379260416664,
                        "value": 1
                    },
                    {
                        "number": 64,
                        "time": 56.716008377083334,
                        "value": 0
                    },
                    {
                        "number": 64,
                        "time": 56.7572456,
                        "value": 1
                    },
                    {
                        "number": 64,
                        "time": 57.16405775416666,
                        "value": 0
                    },
                    {
                        "number": 64,
                        "time": 57.19834488333333,
                        "value": 1
                    },
                    {
                        "number": 64,
                        "time": 57.38321737708333,
                        "value": 0
                    },
                    {
                        "number": 64,
                        "time": 57.42399126041666,
                        "value": 1
                    },
                    {
                        "number": 64,
                        "time": 57.606547056249994,
                        "value": 0
                    },
                    {
                        "number": 64,
                        "time": 57.660757787499996,
                        "value": 1
                    },
                    {
                        "number": 64,
                        "time": 57.83126675416666,
                        "value": 0
                    },
                    {
                        "number": 64,
                        "time": 57.866480562499994,
                        "value": 1
                    },
                    {
                        "number": 64,
                        "time": 58.050426377083326,
                        "value": 0
                    },
                    {
                        "number": 64,
                        "time": 58.086566864583325,
                        "value": 1
                    },
                    {
                        "number": 64,
                        "time": 58.275146074999995,
                        "value": 0
                    },
                    {
                        "number": 64,
                        "time": 58.327966787499996,
                        "value": 1
                    },
                    {
                        "number": 64,
                        "time": 58.49847575416666,
                        "value": 0
                    },
                    {
                        "number": 64,
                        "time": 58.53322622291666,
                        "value": 1
                    },
                    {
                        "number": 64,
                        "time": 58.717635377083326,
                        "value": 0
                    },
                    {
                        "number": 64,
                        "time": 58.752385845833324,
                        "value": 1
                    },
                    {
                        "number": 64,
                        "time": 59.165684754166655,
                        "value": 0
                    },
                    {
                        "number": 64,
                        "time": 59.203215260416655,
                        "value": 1
                    },
                    {
                        "number": 64,
                        "time": 59.388087754166655,
                        "value": 0
                    },
                    {
                        "number": 64,
                        "time": 59.390404452083324,
                        "value": 0
                    },
                    {
                        "number": 64,
                        "time": 59.425618260416655,
                        "value": 1
                    },
                    {
                        "number": 64,
                        "time": 59.610490754166655,
                        "value": 0
                    },
                    {
                        "number": 64,
                        "time": 59.612807452083324,
                        "value": 0
                    },
                    {
                        "number": 64,
                        "time": 59.648021260416655,
                        "value": 1
                    },
                    {
                        "number": 64,
                        "time": 59.832893754166655,
                        "value": 0
                    },
                    {
                        "number": 64,
                        "time": 59.835210452083324,
                        "value": 0
                    },
                    {
                        "number": 64,
                        "time": 59.870424260416655,
                        "value": 1
                    },
                    {
                        "number": 64,
                        "time": 60.055296754166655,
                        "value": 0
                    },
                    {
                        "number": 64,
                        "time": 60.057613452083324,
                        "value": 0
                    },
                    {
                        "number": 64,
                        "time": 60.092827260416655,
                        "value": 1
                    },
                    {
                        "number": 64,
                        "time": 60.277699754166655,
                        "value": 0
                    },
                    {
                        "number": 64,
                        "time": 60.28001645208332,
                        "value": 0
                    },
                    {
                        "number": 64,
                        "time": 60.315230260416655,
                        "value": 1
                    },
                    {
                        "number": 64,
                        "time": 60.500102754166655,
                        "value": 0
                    },
                    {
                        "number": 64,
                        "time": 60.50241945208332,
                        "value": 0
                    },
                    {
                        "number": 64,
                        "time": 60.537633260416655,
                        "value": 1
                    },
                    {
                        "number": 64,
                        "time": 60.722505754166654,
                        "value": 0
                    },
                    {
                        "number": 64,
                        "time": 60.72482245208332,
                        "value": 0
                    },
                    {
                        "number": 64,
                        "time": 60.760036260416655,
                        "value": 1
                    },
                    {
                        "number": 64,
                        "time": 61.167311754166654,
                        "value": 0
                    },
                    {
                        "number": 64,
                        "time": 61.16962845208332,
                        "value": 0
                    },
                    {
                        "number": 64,
                        "time": 61.204842260416655,
                        "value": 1
                    },
                    {
                        "number": 64,
                        "time": 61.389714754166654,
                        "value": 0
                    },
                    {
                        "number": 64,
                        "time": 61.39203145208332,
                        "value": 0
                    },
                    {
                        "number": 64,
                        "time": 61.427245260416655,
                        "value": 1
                    },
                    {
                        "number": 64,
                        "time": 61.612117754166654,
                        "value": 0
                    },
                    {
                        "number": 64,
                        "time": 61.61443445208332,
                        "value": 0
                    },
                    {
                        "number": 64,
                        "time": 61.649648260416654,
                        "value": 1
                    },
                    {
                        "number": 64,
                        "time": 61.834520754166654,
                        "value": 0
                    },
                    {
                        "number": 64,
                        "time": 61.83683745208332,
                        "value": 0
                    },
                    {
                        "number": 64,
                        "time": 61.872051260416654,
                        "value": 1
                    },
                    {
                        "number": 64,
                        "time": 62.056923754166654,
                        "value": 0
                    },
                    {
                        "number": 64,
                        "time": 62.05924045208332,
                        "value": 0
                    },
                    {
                        "number": 64,
                        "time": 62.094454260416654,
                        "value": 1
                    },
                    {
                        "number": 64,
                        "time": 62.279326754166654,
                        "value": 0
                    },
                    {
                        "number": 64,
                        "time": 62.28164345208332,
                        "value": 0
                    },
                    {
                        "number": 64,
                        "time": 62.316857260416654,
                        "value": 1
                    },
                    {
                        "number": 64,
                        "time": 62.501729754166654,
                        "value": 0
                    },
                    {
                        "number": 64,
                        "time": 62.50404645208332,
                        "value": 0
                    },
                    {
                        "number": 64,
                        "time": 62.539260260416654,
                        "value": 1
                    },
                    {
                        "number": 64,
                        "time": 62.724132754166654,
                        "value": 0
                    },
                    {
                        "number": 64,
                        "time": 62.72644945208332,
                        "value": 0
                    },
                    {
                        "number": 64,
                        "time": 62.761663260416654,
                        "value": 1
                    },
                    {
                        "number": 64,
                        "time": 62.94653575416665,
                        "value": 0
                    },
                    {
                        "number": 64,
                        "time": 62.94885245208332,
                        "value": 0
                    },
                    {
                        "number": 64,
                        "time": 62.984066260416654,
                        "value": 1
                    },
                    {
                        "number": 64,
                        "time": 63.16893875416665,
                        "value": 0
                    },
                    {
                        "number": 64,
                        "time": 63.17125545208332,
                        "value": 0
                    },
                    {
                        "number": 64,
                        "time": 63.206469260416654,
                        "value": 1
                    },
                    {
                        "number": 64,
                        "time": 63.39134175416665,
                        "value": 0
                    },
                    {
                        "number": 64,
                        "time": 63.39365845208332,
                        "value": 0
                    },
                    {
                        "number": 64,
                        "time": 63.428872260416654,
                        "value": 1
                    },
                    {
                        "number": 64,
                        "time": 63.61374475416665,
                        "value": 0
                    },
                    {
                        "number": 64,
                        "time": 63.61606145208332,
                        "value": 0
                    },
                    {
                        "number": 64,
                        "time": 63.651275260416654,
                        "value": 1
                    },
                    {
                        "number": 64,
                        "time": 63.83614775416665,
                        "value": 0
                    },
                    {
                        "number": 64,
                        "time": 63.83846445208332,
                        "value": 0
                    },
                    {
                        "number": 64,
                        "time": 63.87367826041665,
                        "value": 1
                    },
                    {
                        "number": 64,
                        "time": 64.05855075416666,
                        "value": 0
                    },
                    {
                        "number": 64,
                        "time": 64.06086745208333,
                        "value": 0
                    },
                    {
                        "number": 64,
                        "time": 64.09608126041667,
                        "value": 1
                    },
                    {
                        "number": 64,
                        "time": 64.28095375416667,
                        "value": 0
                    },
                    {
                        "number": 64,
                        "time": 64.28327045208334,
                        "value": 0
                    },
                    {
                        "number": 64,
                        "time": 64.31848426041668,
                        "value": 1
                    },
                    {
                        "number": 64,
                        "time": 64.50335675416669,
                        "value": 0
                    },
                    {
                        "number": 64,
                        "time": 64.50567345208336,
                        "value": 0
                    },
                    {
                        "number": 64,
                        "time": 64.5408872604167,
                        "value": 1
                    },
                    {
                        "number": 64,
                        "time": 64.7257597541667,
                        "value": 0
                    },
                    {
                        "number": 64,
                        "time": 64.72807645208337,
                        "value": 0
                    },
                    {
                        "number": 64,
                        "time": 64.76329026041671,
                        "value": 1
                    },
                    {
                        "number": 64,
                        "time": 64.94816275416672,
                        "value": 0
                    },
                    {
                        "number": 64,
                        "time": 64.95047945208339,
                        "value": 0
                    },
                    {
                        "number": 64,
                        "time": 64.98569326041672,
                        "value": 1
                    },
                    {
                        "number": 64,
                        "time": 65.17056575416673,
                        "value": 0
                    },
                    {
                        "number": 64,
                        "time": 65.1728824520834,
                        "value": 0
                    },
                    {
                        "number": 64,
                        "time": 65.20809626041674,
                        "value": 1
                    },
                    {
                        "number": 64,
                        "time": 65.39296875416674,
                        "value": 0
                    },
                    {
                        "number": 64,
                        "time": 65.39528545208341,
                        "value": 0
                    },
                    {
                        "number": 64,
                        "time": 65.43049926041675,
                        "value": 1
                    },
                    {
                        "number": 64,
                        "time": 65.61537175416676,
                        "value": 0
                    },
                    {
                        "number": 64,
                        "time": 65.61768845208343,
                        "value": 0
                    },
                    {
                        "number": 64,
                        "time": 65.65290226041677,
                        "value": 1
                    },
                    {
                        "number": 64,
                        "time": 65.83777475416677,
                        "value": 0
                    },
                    {
                        "number": 64,
                        "time": 65.84009145208344,
                        "value": 0
                    },
                    {
                        "number": 64,
                        "time": 65.87530526041678,
                        "value": 1
                    },
                    {
                        "number": 64,
                        "time": 66.06017775416679,
                        "value": 0
                    },
                    {
                        "number": 64,
                        "time": 66.06249445208346,
                        "value": 0
                    },
                    {
                        "number": 64,
                        "time": 66.0977082604168,
                        "value": 1
                    },
                    {
                        "number": 64,
                        "time": 66.2825807541668,
                        "value": 0
                    },
                    {
                        "number": 64,
                        "time": 66.28489745208347,
                        "value": 0
                    },
                    {
                        "number": 64,
                        "time": 66.32011126041681,
                        "value": 1
                    },
                    {
                        "number": 64,
                        "time": 66.50498375416682,
                        "value": 0
                    },
                    {
                        "number": 64,
                        "time": 66.50730045208348,
                        "value": 0
                    },
                    {
                        "number": 64,
                        "time": 66.54251426041682,
                        "value": 1
                    },
                    {
                        "number": 64,
                        "time": 66.72738675416683,
                        "value": 0
                    },
                    {
                        "number": 64,
                        "time": 66.7297034520835,
                        "value": 0
                    },
                    {
                        "number": 64,
                        "time": 66.76491726041684,
                        "value": 1
                    },
                    {
                        "number": 64,
                        "time": 66.94978975416684,
                        "value": 0
                    },
                    {
                        "number": 64,
                        "time": 67.73793038541685,
                        "value": 1
                    },
                    {
                        "number": 64,
                        "time": 68.05531800000018,
                        "value": 0
                    },
                    {
                        "number": 64,
                        "time": 68.10304197708352,
                        "value": 1
                    },
                    {
                        "number": 64,
                        "time": 68.50568407500019,
                        "value": 0
                    },
                    {
                        "number": 64,
                        "time": 68.79156459791686,
                        "value": 1
                    },
                    {
                        "number": 64,
                        "time": 69.1798431687502,
                        "value": 0
                    },
                    {
                        "number": 64,
                        "time": 69.22061705208353,
                        "value": 1
                    },
                    {
                        "number": 64,
                        "time": 69.3897360000002,
                        "value": 0
                    },
                    {
                        "number": 64,
                        "time": 69.45877359791686,
                        "value": 1
                    },
                    {
                        "number": 64,
                        "time": 70.0833553562502,
                        "value": 0
                    },
                    {
                        "number": 64,
                        "time": 70.13663940833352,
                        "value": 1
                    },
                    {
                        "number": 64,
                        "time": 70.28629809375019,
                        "value": 0
                    },
                    {
                        "number": 64,
                        "time": 70.31641516666686,
                        "value": 1
                    },
                    {
                        "number": 64,
                        "time": 70.50916443333352,
                        "value": 0
                    },
                    {
                        "number": 64,
                        "time": 70.53881816666686,
                        "value": 1
                    },
                    {
                        "number": 64,
                        "time": 70.72832405625019,
                        "value": 0
                    },
                    {
                        "number": 64,
                        "time": 70.78253478750018,
                        "value": 1
                    },
                    {
                        "number": 64,
                        "time": 71.17961681041685,
                        "value": 0
                    },
                    {
                        "number": 64,
                        "time": 71.23243752291684,
                        "value": 1
                    },
                    {
                        "number": 64,
                        "time": 71.39877643333351,
                        "value": 0
                    },
                    {
                        "number": 64,
                        "time": 71.45484052291684,
                        "value": 1
                    },
                    {
                        "number": 64,
                        "time": 71.84358243333351,
                        "value": 0
                    },
                    {
                        "number": 64,
                        "time": 72.06413207500017,
                        "value": 1
                    },
                    {
                        "number": 64,
                        "time": 72.28607173541684,
                        "value": 0
                    },
                    {
                        "number": 64,
                        "time": 72.3551093333335,
                        "value": 1
                    },
                    {
                        "number": 64,
                        "time": 72.51079143333351,
                        "value": 0
                    },
                    {
                        "number": 64,
                        "time": 72.5511019770835,
                        "value": 1
                    },
                    {
                        "number": 64,
                        "time": 72.73412111250018,
                        "value": 0
                    },
                    {
                        "number": 64,
                        "time": 72.82122895416684,
                        "value": 1
                    },
                    {
                        "number": 64,
                        "time": 72.95559743333351,
                        "value": 0
                    },
                    {
                        "number": 64,
                        "time": 73.00146805208351,
                        "value": 1
                    },
                    {
                        "number": 64,
                        "time": 73.17939045208351,
                        "value": 0
                    },
                    {
                        "number": 64,
                        "time": 73.22896778750018,
                        "value": 1
                    },
                    {
                        "number": 64,
                        "time": 73.39623337708352,
                        "value": 0
                    },
                    {
                        "number": 64,
                        "time": 73.47824448333351,
                        "value": 1
                    },
                    {
                        "number": 64,
                        "time": 74.08660935625018,
                        "value": 0
                    },
                    {
                        "number": 64,
                        "time": 74.14545348333351,
                        "value": 1
                    },
                    {
                        "number": 64,
                        "time": 74.72740800000018,
                        "value": 0
                    },
                    {
                        "number": 64,
                        "time": 74.79644559791684,
                        "value": 1
                    },
                    {
                        "number": 64,
                        "time": 75.42102735625018,
                        "value": 0
                    },
                    {
                        "number": 64,
                        "time": 75.4743114083335,
                        "value": 1
                    },
                    {
                        "number": 64,
                        "time": 75.62397009375017,
                        "value": 0
                    },
                    {
                        "number": 64,
                        "time": 75.65408716666684,
                        "value": 1
                    },
                    {
                        "number": 64,
                        "time": 75.84683643333351,
                        "value": 0
                    },
                    {
                        "number": 64,
                        "time": 75.87649016666684,
                        "value": 1
                    },
                    {
                        "number": 64,
                        "time": 76.06599605625017,
                        "value": 0
                    },
                    {
                        "number": 64,
                        "time": 76.12020678750017,
                        "value": 1
                    },
                    {
                        "number": 64,
                        "time": 76.51728881041683,
                        "value": 0
                    },
                    {
                        "number": 64,
                        "time": 76.57010952291682,
                        "value": 1
                    },
                    {
                        "number": 64,
                        "time": 76.73644843333349,
                        "value": 0
                    },
                    {
                        "number": 64,
                        "time": 76.79251252291682,
                        "value": 1
                    },
                    {
                        "number": 64,
                        "time": 77.18125443333349,
                        "value": 0
                    },
                    {
                        "number": 64,
                        "time": 77.2118348458335,
                        "value": 1
                    },
                    {
                        "number": 64,
                        "time": 77.39717067916683,
                        "value": 0
                    },
                    {
                        "number": 64,
                        "time": 77.4370178833335,
                        "value": 1
                    },
                    {
                        "number": 64,
                        "time": 77.62374373541682,
                        "value": 0
                    },
                    {
                        "number": 64,
                        "time": 77.69278133333349,
                        "value": 1
                    },
                    {
                        "number": 64,
                        "time": 77.84846343333349,
                        "value": 0
                    },
                    {
                        "number": 64,
                        "time": 77.88877397708349,
                        "value": 1
                    },
                    {
                        "number": 64,
                        "time": 78.07179311250016,
                        "value": 0
                    },
                    {
                        "number": 64,
                        "time": 78.15890095416682,
                        "value": 1
                    },
                    {
                        "number": 64,
                        "time": 78.29326943333349,
                        "value": 0
                    },
                    {
                        "number": 64,
                        "time": 78.3391400520835,
                        "value": 1
                    },
                    {
                        "number": 64,
                        "time": 78.5170624520835,
                        "value": 0
                    },
                    {
                        "number": 64,
                        "time": 78.56663978750016,
                        "value": 1
                    },
                    {
                        "number": 64,
                        "time": 78.7339053770835,
                        "value": 0
                    },
                    {
                        "number": 64,
                        "time": 78.8159164833335,
                        "value": 1
                    },
                    {
                        "number": 64,
                        "time": 79.42428135625016,
                        "value": 0
                    },
                    {
                        "number": 64,
                        "time": 79.4831254833335,
                        "value": 1
                    },
                    {
                        "number": 64,
                        "time": 79.85148045208349,
                        "value": 0
                    },
                    {
                        "number": 64,
                        "time": 79.89596105208349,
                        "value": 1
                    },
                    {
                        "number": 64,
                        "time": 80.06600667916683,
                        "value": 0
                    },
                    {
                        "number": 64,
                        "time": 80.1058538833335,
                        "value": 1
                    },
                    {
                        "number": 64,
                        "time": 80.29257973541682,
                        "value": 0
                    },
                    {
                        "number": 64,
                        "time": 80.36161733333348,
                        "value": 1
                    },
                    {
                        "number": 64,
                        "time": 80.51729943333349,
                        "value": 0
                    },
                    {
                        "number": 64,
                        "time": 80.55760997708349,
                        "value": 1
                    },
                    {
                        "number": 64,
                        "time": 80.74062911250016,
                        "value": 0
                    },
                    {
                        "number": 64,
                        "time": 80.82773695416682,
                        "value": 1
                    },
                    {
                        "number": 64,
                        "time": 80.96210543333349,
                        "value": 0
                    },
                    {
                        "number": 64,
                        "time": 81.00797605208349,
                        "value": 1
                    },
                    {
                        "number": 64,
                        "time": 81.18589845208349,
                        "value": 0
                    },
                    {
                        "number": 64,
                        "time": 81.23547578750016,
                        "value": 1
                    },
                    {
                        "number": 64,
                        "time": 81.4027413770835,
                        "value": 0
                    },
                    {
                        "number": 64,
                        "time": 81.4847524833335,
                        "value": 1
                    },
                    {
                        "number": 64,
                        "time": 81.85310745208349,
                        "value": 0
                    },
                    {
                        "number": 64,
                        "time": 81.91658497500016,
                        "value": 1
                    },
                    {
                        "number": 64,
                        "time": 82.07273041458349,
                        "value": 0
                    },
                    {
                        "number": 64,
                        "time": 82.12694114583348,
                        "value": 1
                    },
                    {
                        "number": 64,
                        "time": 82.29791345208348,
                        "value": 0
                    },
                    {
                        "number": 64,
                        "time": 82.36139097500015,
                        "value": 1
                    },
                    {
                        "number": 64,
                        "time": 82.51753641458347,
                        "value": 0
                    },
                    {
                        "number": 64,
                        "time": 82.57777056041681,
                        "value": 1
                    },
                    {
                        "number": 64,
                        "time": 82.73530601875014,
                        "value": 0
                    },
                    {
                        "number": 64,
                        "time": 84.07157737708347,
                        "value": 0
                    },
                    {
                        "number": 64,
                        "time": 84.15358848333346,
                        "value": 1
                    },
                    {
                        "number": 64,
                        "time": 84.52194345208346,
                        "value": 0
                    },
                    {
                        "number": 64,
                        "time": 84.58542097500013,
                        "value": 1
                    },
                    {
                        "number": 64,
                        "time": 84.74156641458346,
                        "value": 0
                    },
                    {
                        "number": 64,
                        "time": 84.79577714583345,
                        "value": 1
                    },
                    {
                        "number": 64,
                        "time": 84.96674945208345,
                        "value": 0
                    },
                    {
                        "number": 64,
                        "time": 85.03022697500012,
                        "value": 1
                    },
                    {
                        "number": 64,
                        "time": 85.18637241458345,
                        "value": 0
                    },
                    {
                        "number": 64,
                        "time": 85.24660656041678,
                        "value": 1
                    },
                    {
                        "number": 64,
                        "time": 85.40877541458345,
                        "value": 0
                    },
                    {
                        "number": 64,
                        "time": 85.46298614583344,
                        "value": 1
                    },
                    {
                        "number": 64,
                        "time": 85.63581181041677,
                        "value": 0
                    },
                    {
                        "number": 64,
                        "time": 85.68538914583344,
                        "value": 1
                    },
                    {
                        "number": 64,
                        "time": 85.85636145208343,
                        "value": 0
                    },
                    {
                        "number": 64,
                        "time": 85.91381556041677,
                        "value": 1
                    },
                    {
                        "number": 64,
                        "time": 86.07598441458343,
                        "value": 0
                    },
                    {
                        "number": 64,
                        "time": 86.13621856041676,
                        "value": 1
                    },
                    {
                        "number": 64,
                        "time": 86.30163079166677,
                        "value": 0
                    },
                    {
                        "number": 64,
                        "time": 86.3646449750001,
                        "value": 1
                    },
                    {
                        "number": 64,
                        "time": 86.51893705625011,
                        "value": 0
                    },
                    {
                        "number": 64,
                        "time": 86.57500114583344,
                        "value": 1
                    },
                    {
                        "number": 64,
                        "time": 86.74319341458344,
                        "value": 0
                    },
                    {
                        "number": 64,
                        "time": 86.79740414583344,
                        "value": 1
                    },
                    {
                        "number": 64,
                        "time": 86.97022981041677,
                        "value": 0
                    },
                    {
                        "number": 64,
                        "time": 87.01980714583344,
                        "value": 1
                    },
                    {
                        "number": 64,
                        "time": 87.19077945208343,
                        "value": 0
                    },
                    {
                        "number": 64,
                        "time": 87.24823356041676,
                        "value": 1
                    },
                    {
                        "number": 64,
                        "time": 87.41040241458343,
                        "value": 0
                    },
                    {
                        "number": 64,
                        "time": 87.47063656041676,
                        "value": 1
                    },
                    {
                        "number": 64,
                        "time": 87.63604879166677,
                        "value": 0
                    },
                    {
                        "number": 64,
                        "time": 87.6990629750001,
                        "value": 1
                    },
                    {
                        "number": 64,
                        "time": 87.85335505625011,
                        "value": 0
                    },
                    {
                        "number": 64,
                        "time": 87.90941914583344,
                        "value": 1
                    },
                    {
                        "number": 64,
                        "time": 88.0966083375001,
                        "value": 0
                    },
                    {
                        "number": 64,
                        "time": 88.1827895000001,
                        "value": 1
                    },
                    {
                        "number": 64,
                        "time": 89.4060060000001,
                        "value": 0
                    },
                    {
                        "number": 64,
                        "time": 89.45929005208343,
                        "value": 1
                    },
                    {
                        "number": 64,
                        "time": 90.7404240000001,
                        "value": 0
                    },
                    {
                        "number": 64,
                        "time": 90.85162550000011,
                        "value": 1
                    },
                    {
                        "number": 64,
                        "time": 91.19171675416678,
                        "value": 0
                    },
                    {
                        "number": 64,
                        "time": 91.26399772916677,
                        "value": 1
                    },
                    {
                        "number": 64,
                        "time": 91.41180305625011,
                        "value": 0
                    },
                    {
                        "number": 64,
                        "time": 91.47296388125011,
                        "value": 1
                    },
                    {
                        "number": 64,
                        "time": 91.85707239583344,
                        "value": 0
                    },
                    {
                        "number": 64,
                        "time": 91.93120672916677,
                        "value": 1
                    },
                    {
                        "number": 64,
                        "time": 92.08596215000011,
                        "value": 0
                    },
                    {
                        "number": 64,
                        "time": 92.14387959791678,
                        "value": 1
                    },
                    {
                        "number": 64,
                        "time": 92.75317115000011,
                        "value": 0
                    },
                    {
                        "number": 64,
                        "time": 92.82174540833344,
                        "value": 1
                    },
                    {
                        "number": 64,
                        "time": 93.41296671666677,
                        "value": 0
                    },
                    {
                        "number": 64,
                        "time": 93.4676407875001,
                        "value": 1
                    },
                    {
                        "number": 64,
                        "time": 94.7436780000001,
                        "value": 0
                    },
                    {
                        "number": 64,
                        "time": 94.74738471666677,
                        "value": 0
                    },
                    {
                        "number": 64,
                        "time": 94.79696205208344,
                        "value": 1
                    },
                    {
                        "number": 64,
                        "time": 96.07809600000012,
                        "value": 0
                    },
                    {
                        "number": 64,
                        "time": 96.18929750000012,
                        "value": 1
                    },
                    {
                        "number": 64,
                        "time": 96.52938875416679,
                        "value": 0
                    },
                    {
                        "number": 64,
                        "time": 96.60166972916679,
                        "value": 1
                    },
                    {
                        "number": 64,
                        "time": 96.74947505625012,
                        "value": 0
                    },
                    {
                        "number": 64,
                        "time": 96.81063588125012,
                        "value": 1
                    },
                    {
                        "number": 64,
                        "time": 97.19474439583345,
                        "value": 0
                    },
                    {
                        "number": 64,
                        "time": 97.26887872916679,
                        "value": 1
                    },
                    {
                        "number": 64,
                        "time": 97.42363415000013,
                        "value": 0
                    },
                    {
                        "number": 64,
                        "time": 97.48155159791679,
                        "value": 1
                    },
                    {
                        "number": 64,
                        "time": 98.09084315000013,
                        "value": 0
                    },
                    {
                        "number": 64,
                        "time": 98.15941740833345,
                        "value": 1
                    },
                    {
                        "number": 64,
                        "time": 98.75063871666678,
                        "value": 0
                    },
                    {
                        "number": 64,
                        "time": 98.80531278750011,
                        "value": 1
                    },
                    {
                        "number": 64,
                        "time": 100.09061679166678,
                        "value": 0
                    },
                    {
                        "number": 64,
                        "time": 100.09247015000011,
                        "value": 0
                    },
                    {
                        "number": 64,
                        "time": 100.15038759791678,
                        "value": 1
                    },
                    {
                        "number": 64,
                        "time": 100.75967915000011,
                        "value": 0
                    },
                    {
                        "number": 64,
                        "time": 100.82825340833344,
                        "value": 1
                    },
                    {
                        "number": 64,
                        "time": 101.42503479166677,
                        "value": 0
                    },
                    {
                        "number": 64,
                        "time": 101.42688815000011,
                        "value": 0
                    },
                    {
                        "number": 64,
                        "time": 101.48480559791678,
                        "value": 1
                    },
                    {
                        "number": 64,
                        "time": 102.09409715000011,
                        "value": 0
                    },
                    {
                        "number": 64,
                        "time": 102.16267140833344,
                        "value": 1
                    },
                    {
                        "number": 64,
                        "time": 102.75945279166677,
                        "value": 0
                    },
                    {
                        "number": 64,
                        "time": 102.76130615000011,
                        "value": 0
                    },
                    {
                        "number": 64,
                        "time": 102.81922359791677,
                        "value": 1
                    },
                    {
                        "number": 64,
                        "time": 103.42851515000011,
                        "value": 0
                    },
                    {
                        "number": 64,
                        "time": 103.49708940833344,
                        "value": 1
                    },
                    {
                        "number": 64,
                        "time": 104.09387079166677,
                        "value": 0
                    },
                    {
                        "number": 64,
                        "time": 104.09572415000011,
                        "value": 0
                    },
                    {
                        "number": 64,
                        "time": 104.15364159791677,
                        "value": 1
                    },
                    {
                        "number": 64,
                        "time": 104.76293315000011,
                        "value": 0
                    },
                    {
                        "number": 64,
                        "time": 104.83150740833344,
                        "value": 1
                    },
                    {
                        "number": 64,
                        "time": 105.42828879166677,
                        "value": 0
                    },
                    {
                        "number": 64,
                        "time": 105.43014215000011,
                        "value": 0
                    },
                    {
                        "number": 64,
                        "time": 105.48805959791677,
                        "value": 1
                    },
                    {
                        "number": 64,
                        "time": 106.09735115000011,
                        "value": 0
                    },
                    {
                        "number": 64,
                        "time": 106.14507512708344,
                        "value": 1
                    },
                    {
                        "number": 64,
                        "time": 106.76270679166677,
                        "value": 0
                    },
                    {
                        "number": 64,
                        "time": 106.76456015000011,
                        "value": 0
                    },
                    {
                        "number": 64,
                        "time": 106.82247759791677,
                        "value": 1
                    },
                    {
                        "number": 64,
                        "time": 107.43176915000011,
                        "value": 0
                    },
                    {
                        "number": 64,
                        "time": 107.47717642916678,
                        "value": 1
                    },
                    {
                        "number": 64,
                        "time": 108.09712479166677,
                        "value": 0
                    },
                    {
                        "number": 64,
                        "time": 108.09897815000011,
                        "value": 0
                    },
                    {
                        "number": 64,
                        "time": 108.15689559791677,
                        "value": 1
                    },
                    {
                        "number": 64,
                        "time": 108.5354440375001,
                        "value": 0
                    },
                    {
                        "number": 64,
                        "time": 108.61745514375009,
                        "value": 1
                    },
                    {
                        "number": 64,
                        "time": 108.76294377291676,
                        "value": 0
                    },
                    {
                        "number": 64,
                        "time": 108.83476140833342,
                        "value": 1
                    },
                    {
                        "number": 64,
                        "time": 109.20728643333342,
                        "value": 0
                    },
                    {
                        "number": 64,
                        "time": 109.26891059791676,
                        "value": 1
                    },
                    {
                        "number": 64,
                        "time": 109.43154279166676,
                        "value": 0
                    },
                    {
                        "number": 64,
                        "time": 109.43339615000009,
                        "value": 0
                    },
                    {
                        "number": 64,
                        "time": 109.49131359791676,
                        "value": 1
                    },
                    {
                        "number": 64,
                        "time": 109.65533581041676,
                        "value": 0
                    },
                    {
                        "number": 64,
                        "time": 109.71371659791676,
                        "value": 1
                    },
                    {
                        "number": 64,
                        "time": 109.87264207500009,
                        "value": 0
                    },
                    {
                        "number": 64,
                        "time": 109.92546278750008,
                        "value": 1
                    },
                    {
                        "number": 64,
                        "time": 110.10014181041674,
                        "value": 0
                    },
                    {
                        "number": 64,
                        "time": 110.17427614375008,
                        "value": 1
                    },
                    {
                        "number": 64,
                        "time": 110.31976477291674,
                        "value": 0
                    },
                    {
                        "number": 64,
                        "time": 110.3915824083334,
                        "value": 1
                    },
                    {
                        "number": 64,
                        "time": 110.54170443333341,
                        "value": 0
                    },
                    {
                        "number": 64,
                        "time": 110.61908214375008,
                        "value": 1
                    },
                    {
                        "number": 64,
                        "time": 110.76457077291674,
                        "value": 0
                    },
                    {
                        "number": 64,
                        "time": 110.80997805208341,
                        "value": 1
                    },
                    {
                        "number": 64,
                        "time": 111.43270645208341,
                        "value": 0
                    },
                    {
                        "number": 64,
                        "time": 111.48738052291674,
                        "value": 1
                    },
                    {
                        "number": 64,
                        "time": 112.09898877291674,
                        "value": 0
                    },
                    {
                        "number": 64,
                        "time": 112.14439605208341,
                        "value": 1
                    },
                    {
                        "number": 64,
                        "time": 112.76712445208341,
                        "value": 0
                    },
                    {
                        "number": 64,
                        "time": 112.82179852291674,
                        "value": 1
                    },
                    {
                        "number": 64,
                        "time": 113.43340677291674,
                        "value": 0
                    },
                    {
                        "number": 64,
                        "time": 113.47881405208341,
                        "value": 1
                    },
                    {
                        "number": 64,
                        "time": 114.10154245208341,
                        "value": 0
                    },
                    {
                        "number": 64,
                        "time": 114.15621652291674,
                        "value": 1
                    },
                    {
                        "number": 64,
                        "time": 114.76875145208341,
                        "value": 0
                    },
                    {
                        "number": 64,
                        "time": 114.85029921875008,
                        "value": 1
                    },
                    {
                        "number": 64,
                        "time": 115.43596045208342,
                        "value": 0
                    },
                    {
                        "number": 64,
                        "time": 115.5175082187501,
                        "value": 1
                    },
                    {
                        "number": 64,
                        "time": 116.10316945208343,
                        "value": 0
                    },
                    {
                        "number": 64,
                        "time": 116.18471721875011,
                        "value": 1
                    },
                    {
                        "number": 64,
                        "time": 116.77037845208345,
                        "value": 0
                    },
                    {
                        "number": 64,
                        "time": 116.85192621875012,
                        "value": 1
                    },
                    {
                        "number": 64,
                        "time": 117.43758745208346,
                        "value": 0
                    },
                    {
                        "number": 64,
                        "time": 117.51913521875014,
                        "value": 1
                    },
                    {
                        "number": 64,
                        "time": 118.10479645208348,
                        "value": 0
                    },
                    {
                        "number": 64,
                        "time": 118.18634421875015,
                        "value": 1
                    },
                    {
                        "number": 64,
                        "time": 118.77200545208349,
                        "value": 0
                    },
                    {
                        "number": 64,
                        "time": 118.85355321875016,
                        "value": 1
                    },
                    {
                        "number": 64,
                        "time": 119.4392144520835,
                        "value": 0
                    },
                    {
                        "number": 64,
                        "time": 119.52076221875018,
                        "value": 1
                    },
                    {
                        "number": 64,
                        "time": 120.10642345208352,
                        "value": 0
                    },
                    {
                        "number": 64,
                        "time": 120.18797121875019,
                        "value": 1
                    },
                    {
                        "number": 64,
                        "time": 120.77363245208353,
                        "value": 0
                    },
                    {
                        "number": 64,
                        "time": 120.8551802187502,
                        "value": 1
                    },
                    {
                        "number": 64,
                        "time": 121.4320380000002,
                        "value": 0
                    },
                    {
                        "number": 64,
                        "time": 121.50617233333354,
                        "value": 1
                    },
                    {
                        "number": 64,
                        "time": 122.7664560000002,
                        "value": 0
                    },
                    {
                        "number": 64,
                        "time": 122.84059033333354,
                        "value": 1
                    },
                    {
                        "number": 64,
                        "time": 123.44015175416688,
                        "value": 0
                    },
                    {
                        "number": 64,
                        "time": 123.52911295416688,
                        "value": 1
                    },
                    {
                        "number": 64,
                        "time": 124.1008740000002,
                        "value": 0
                    },
                    {
                        "number": 64,
                        "time": 124.17500833333354,
                        "value": 1
                    },
                    {
                        "number": 64,
                        "time": 125.4352920000002,
                        "value": 0
                    },
                    {
                        "number": 64,
                        "time": 125.50942633333354,
                        "value": 1
                    },
                    {
                        "number": 64,
                        "time": 126.10898775416688,
                        "value": 0
                    },
                    {
                        "number": 64,
                        "time": 126.19794895416688,
                        "value": 1
                    },
                    {
                        "number": 64,
                        "time": 126.7697100000002,
                        "value": 0
                    },
                    {
                        "number": 64,
                        "time": 126.84384433333354,
                        "value": 1
                    },
                    {
                        "number": 64,
                        "time": 128.1041280000002,
                        "value": 0
                    },
                    {
                        "number": 64,
                        "time": 128.17316559791686,
                        "value": 1
                    },
                    {
                        "number": 64,
                        "time": 128.7977473562502,
                        "value": 0
                    },
                    {
                        "number": 64,
                        "time": 128.85103140833354,
                        "value": 1
                    },
                    {
                        "number": 64,
                        "time": 129.0006900937502,
                        "value": 0
                    },
                    {
                        "number": 64,
                        "time": 129.03080716666685,
                        "value": 1
                    },
                    {
                        "number": 64,
                        "time": 129.22355643333353,
                        "value": 0
                    },
                    {
                        "number": 64,
                        "time": 129.25321016666686,
                        "value": 1
                    },
                    {
                        "number": 64,
                        "time": 129.4427160562502,
                        "value": 0
                    },
                    {
                        "number": 64,
                        "time": 129.4969267875002,
                        "value": 1
                    },
                    {
                        "number": 64,
                        "time": 129.89400881041686,
                        "value": 0
                    },
                    {
                        "number": 64,
                        "time": 129.94682952291686,
                        "value": 1
                    },
                    {
                        "number": 64,
                        "time": 130.11316843333353,
                        "value": 0
                    },
                    {
                        "number": 64,
                        "time": 130.16923252291687,
                        "value": 1
                    },
                    {
                        "number": 64,
                        "time": 130.7729640000002,
                        "value": 0
                    },
                    {
                        "number": 64,
                        "time": 130.81281120416688,
                        "value": 1
                    },
                    {
                        "number": 64,
                        "time": 131.00046373541687,
                        "value": 0
                    },
                    {
                        "number": 64,
                        "time": 131.06950133333353,
                        "value": 1
                    },
                    {
                        "number": 64,
                        "time": 131.22518343333354,
                        "value": 0
                    },
                    {
                        "number": 64,
                        "time": 131.26549397708354,
                        "value": 1
                    },
                    {
                        "number": 64,
                        "time": 131.4485131125002,
                        "value": 0
                    },
                    {
                        "number": 64,
                        "time": 131.53562095416686,
                        "value": 1
                    },
                    {
                        "number": 64,
                        "time": 131.6699894333335,
                        "value": 0
                    },
                    {
                        "number": 64,
                        "time": 131.7158600520835,
                        "value": 1
                    },
                    {
                        "number": 64,
                        "time": 131.8937824520835,
                        "value": 0
                    },
                    {
                        "number": 64,
                        "time": 131.94335978750019,
                        "value": 1
                    },
                    {
                        "number": 64,
                        "time": 132.11062537708352,
                        "value": 0
                    },
                    {
                        "number": 64,
                        "time": 132.19263648333353,
                        "value": 1
                    },
                    {
                        "number": 64,
                        "time": 132.8010013562502,
                        "value": 0
                    },
                    {
                        "number": 64,
                        "time": 132.8857925000002,
                        "value": 1
                    },
                    {
                        "number": 64,
                        "time": 133.4418000000002,
                        "value": 0
                    },
                    {
                        "number": 64,
                        "time": 133.51083759791686,
                        "value": 1
                    },
                    {
                        "number": 64,
                        "time": 134.1354193562502,
                        "value": 0
                    },
                    {
                        "number": 64,
                        "time": 134.18870340833354,
                        "value": 1
                    },
                    {
                        "number": 64,
                        "time": 134.3383620937502,
                        "value": 0
                    },
                    {
                        "number": 64,
                        "time": 134.36847916666684,
                        "value": 1
                    },
                    {
                        "number": 64,
                        "time": 134.56122843333353,
                        "value": 0
                    },
                    {
                        "number": 64,
                        "time": 134.59088216666686,
                        "value": 1
                    },
                    {
                        "number": 64,
                        "time": 134.7803880562502,
                        "value": 0
                    },
                    {
                        "number": 64,
                        "time": 134.8345987875002,
                        "value": 1
                    },
                    {
                        "number": 64,
                        "time": 135.45084043333352,
                        "value": 0
                    },
                    {
                        "number": 64,
                        "time": 135.50690452291687,
                        "value": 1
                    },
                    {
                        "number": 64,
                        "time": 136.1106360000002,
                        "value": 0
                    },
                    {
                        "number": 64,
                        "time": 136.15048320416687,
                        "value": 1
                    },
                    {
                        "number": 64,
                        "time": 136.33813573541687,
                        "value": 0
                    },
                    {
                        "number": 64,
                        "time": 136.40717333333353,
                        "value": 1
                    },
                    {
                        "number": 64,
                        "time": 136.56285543333354,
                        "value": 0
                    },
                    {
                        "number": 64,
                        "time": 136.60316597708353,
                        "value": 1
                    },
                    {
                        "number": 64,
                        "time": 136.7861851125002,
                        "value": 0
                    },
                    {
                        "number": 64,
                        "time": 136.87329295416686,
                        "value": 1
                    },
                    {
                        "number": 64,
                        "time": 137.0076614333335,
                        "value": 0
                    },
                    {
                        "number": 64,
                        "time": 137.0535320520835,
                        "value": 1
                    },
                    {
                        "number": 64,
                        "time": 137.2314544520835,
                        "value": 0
                    },
                    {
                        "number": 64,
                        "time": 137.28103178750018,
                        "value": 1
                    },
                    {
                        "number": 64,
                        "time": 137.44829737708352,
                        "value": 0
                    },
                    {
                        "number": 64,
                        "time": 137.53030848333353,
                        "value": 1
                    },
                    {
                        "number": 64,
                        "time": 138.1386733562502,
                        "value": 0
                    },
                    {
                        "number": 64,
                        "time": 138.19751748333354,
                        "value": 1
                    },
                    {
                        "number": 64,
                        "time": 138.78039867916686,
                        "value": 0
                    },
                    {
                        "number": 64,
                        "time": 138.82024588333354,
                        "value": 1
                    },
                    {
                        "number": 64,
                        "time": 139.00697173541687,
                        "value": 0
                    },
                    {
                        "number": 64,
                        "time": 139.07600933333353,
                        "value": 1
                    },
                    {
                        "number": 64,
                        "time": 139.23169143333354,
                        "value": 0
                    },
                    {
                        "number": 64,
                        "time": 139.27200197708353,
                        "value": 1
                    },
                    {
                        "number": 64,
                        "time": 139.4550211125002,
                        "value": 0
                    },
                    {
                        "number": 64,
                        "time": 139.54212895416686,
                        "value": 1
                    },
                    {
                        "number": 64,
                        "time": 139.6764974333335,
                        "value": 0
                    },
                    {
                        "number": 64,
                        "time": 139.7223680520835,
                        "value": 1
                    },
                    {
                        "number": 64,
                        "time": 139.9002904520835,
                        "value": 0
                    },
                    {
                        "number": 64,
                        "time": 139.94986778750018,
                        "value": 1
                    },
                    {
                        "number": 64,
                        "time": 140.11713337708352,
                        "value": 0
                    },
                    {
                        "number": 64,
                        "time": 140.19914448333353,
                        "value": 1
                    },
                    {
                        "number": 64,
                        "time": 140.8075093562502,
                        "value": 0
                    },
                    {
                        "number": 64,
                        "time": 140.86635348333354,
                        "value": 1
                    },
                    {
                        "number": 64,
                        "time": 141.23470845208354,
                        "value": 0
                    },
                    {
                        "number": 64,
                        "time": 141.27918905208355,
                        "value": 1
                    },
                    {
                        "number": 64,
                        "time": 141.4492346791669,
                        "value": 0
                    },
                    {
                        "number": 64,
                        "time": 141.48908188333357,
                        "value": 1
                    },
                    {
                        "number": 64,
                        "time": 141.6758077354169,
                        "value": 0
                    },
                    {
                        "number": 64,
                        "time": 141.74484533333356,
                        "value": 1
                    },
                    {
                        "number": 64,
                        "time": 141.90052743333356,
                        "value": 0
                    },
                    {
                        "number": 64,
                        "time": 141.94083797708356,
                        "value": 1
                    },
                    {
                        "number": 64,
                        "time": 142.12385711250022,
                        "value": 0
                    },
                    {
                        "number": 64,
                        "time": 142.21096495416688,
                        "value": 1
                    },
                    {
                        "number": 64,
                        "time": 142.34533343333354,
                        "value": 0
                    },
                    {
                        "number": 64,
                        "time": 142.39120405208354,
                        "value": 1
                    },
                    {
                        "number": 64,
                        "time": 142.56912645208354,
                        "value": 0
                    },
                    {
                        "number": 64,
                        "time": 142.6187037875002,
                        "value": 1
                    },
                    {
                        "number": 64,
                        "time": 142.78365267916686,
                        "value": 0
                    },
                    {
                        "number": 64,
                        "time": 142.82349988333354,
                        "value": 1
                    },
                    {
                        "number": 64,
                        "time": 143.01022573541687,
                        "value": 0
                    },
                    {
                        "number": 64,
                        "time": 143.07926333333353,
                        "value": 1
                    },
                    {
                        "number": 64,
                        "time": 143.23494543333354,
                        "value": 0
                    },
                    {
                        "number": 64,
                        "time": 143.27525597708353,
                        "value": 1
                    },
                    {
                        "number": 64,
                        "time": 143.4582751125002,
                        "value": 0
                    },
                    {
                        "number": 64,
                        "time": 143.5073891083335,
                        "value": 1
                    },
                    {
                        "number": 64,
                        "time": 143.67836141458352,
                        "value": 0
                    },
                    {
                        "number": 64,
                        "time": 143.70338175208352,
                        "value": 1
                    },
                    {
                        "number": 64,
                        "time": 143.90215443333352,
                        "value": 0
                    },
                    {
                        "number": 64,
                        "time": 143.92254137500018,
                        "value": 1
                    },
                    {
                        "number": 64,
                        "time": 144.12548411250017,
                        "value": 0
                    },
                    {
                        "number": 64,
                        "time": 144.1745981083335,
                        "value": 1
                    },
                    {
                        "number": 64,
                        "time": 144.34464373541684,
                        "value": 0
                    },
                    {
                        "number": 64,
                        "time": 144.40487788125017,
                        "value": 1
                    },
                    {
                        "number": 64,
                        "time": 144.57121679166684,
                        "value": 0
                    },
                    {
                        "number": 64,
                        "time": 144.63423097500018,
                        "value": 1
                    },
                    {
                        "number": 64,
                        "time": 144.7926931125002,
                        "value": 0
                    },
                    {
                        "number": 64,
                        "time": 144.8418071083335,
                        "value": 1
                    },
                    {
                        "number": 64,
                        "time": 145.01185273541685,
                        "value": 0
                    },
                    {
                        "number": 64,
                        "time": 145.0720868812502,
                        "value": 1
                    },
                    {
                        "number": 64,
                        "time": 145.23842579166686,
                        "value": 0
                    },
                    {
                        "number": 64,
                        "time": 145.3014399750002,
                        "value": 1
                    },
                    {
                        "number": 64,
                        "time": 145.45943877291685,
                        "value": 0
                    },
                    {
                        "number": 64,
                        "time": 146.16649497708352,
                        "value": 1
                    },
                    {
                        "number": 64,
                        "time": 146.7859800000002,
                        "value": 0
                    },
                    {
                        "number": 64,
                        "time": 146.78922337708352,
                        "value": 0
                    },
                    {
                        "number": 64,
                        "time": 146.87123448333352,
                        "value": 1
                    },
                    {
                        "number": 64,
                        "time": 147.23958945208352,
                        "value": 0
                    },
                    {
                        "number": 64,
                        "time": 147.30306697500018,
                        "value": 1
                    },
                    {
                        "number": 64,
                        "time": 147.4592124145835,
                        "value": 0
                    },
                    {
                        "number": 64,
                        "time": 147.5134231458335,
                        "value": 1
                    },
                    {
                        "number": 64,
                        "time": 147.68439545208352,
                        "value": 0
                    },
                    {
                        "number": 64,
                        "time": 147.74787297500018,
                        "value": 1
                    },
                    {
                        "number": 64,
                        "time": 147.9040184145835,
                        "value": 0
                    },
                    {
                        "number": 64,
                        "time": 147.96425256041684,
                        "value": 1
                    },
                    {
                        "number": 64,
                        "time": 148.12178801875018,
                        "value": 0
                    },
                    {
                        "number": 64,
                        "time": 149.45805937708352,
                        "value": 0
                    },
                    {
                        "number": 64,
                        "time": 149.54007048333352,
                        "value": 1
                    },
                    {
                        "number": 64,
                        "time": 149.90842545208352,
                        "value": 0
                    },
                    {
                        "number": 64,
                        "time": 149.97190297500018,
                        "value": 1
                    },
                    {
                        "number": 64,
                        "time": 150.1280484145835,
                        "value": 0
                    },
                    {
                        "number": 64,
                        "time": 150.1822591458335,
                        "value": 1
                    },
                    {
                        "number": 64,
                        "time": 150.35323145208352,
                        "value": 0
                    },
                    {
                        "number": 64,
                        "time": 150.41670897500018,
                        "value": 1
                    },
                    {
                        "number": 64,
                        "time": 150.5728544145835,
                        "value": 0
                    },
                    {
                        "number": 64,
                        "time": 150.63308856041684,
                        "value": 1
                    },
                    {
                        "number": 64,
                        "time": 150.79525741458352,
                        "value": 0
                    },
                    {
                        "number": 64,
                        "time": 150.84946814583353,
                        "value": 1
                    },
                    {
                        "number": 64,
                        "time": 151.02229381041687,
                        "value": 0
                    },
                    {
                        "number": 64,
                        "time": 151.07187114583354,
                        "value": 1
                    },
                    {
                        "number": 64,
                        "time": 151.24284345208355,
                        "value": 0
                    },
                    {
                        "number": 64,
                        "time": 151.30029756041688,
                        "value": 1
                    },
                    {
                        "number": 64,
                        "time": 151.46246641458356,
                        "value": 0
                    },
                    {
                        "number": 64,
                        "time": 151.5227005604169,
                        "value": 1
                    },
                    {
                        "number": 64,
                        "time": 151.6881127916669,
                        "value": 0
                    },
                    {
                        "number": 64,
                        "time": 151.75112697500023,
                        "value": 1
                    },
                    {
                        "number": 64,
                        "time": 151.90541905625022,
                        "value": 0
                    },
                    {
                        "number": 64,
                        "time": 151.96148314583357,
                        "value": 1
                    },
                    {
                        "number": 64,
                        "time": 152.12967541458357,
                        "value": 0
                    },
                    {
                        "number": 64,
                        "time": 152.18388614583358,
                        "value": 1
                    },
                    {
                        "number": 64,
                        "time": 152.35671181041693,
                        "value": 0
                    },
                    {
                        "number": 64,
                        "time": 152.4062891458336,
                        "value": 1
                    },
                    {
                        "number": 64,
                        "time": 152.5772614520836,
                        "value": 0
                    },
                    {
                        "number": 64,
                        "time": 152.63471556041694,
                        "value": 1
                    },
                    {
                        "number": 64,
                        "time": 152.79688441458362,
                        "value": 0
                    },
                    {
                        "number": 64,
                        "time": 152.85711856041695,
                        "value": 1
                    },
                    {
                        "number": 64,
                        "time": 153.02253079166695,
                        "value": 0
                    },
                    {
                        "number": 64,
                        "time": 153.0855449750003,
                        "value": 1
                    },
                    {
                        "number": 64,
                        "time": 153.23983705625028,
                        "value": 0
                    },
                    {
                        "number": 64,
                        "time": 153.29590114583362,
                        "value": 1
                    },
                    {
                        "number": 64,
                        "time": 153.4830903375003,
                        "value": 0
                    },
                    {
                        "number": 64,
                        "time": 153.5692715000003,
                        "value": 1
                    },
                    {
                        "number": 64,
                        "time": 154.8480887500003,
                        "value": 0
                    },
                    {
                        "number": 64,
                        "time": 156.1825067500003,
                        "value": 1
                    },
                    {
                        "number": 64,
                        "time": 157.6281262500003,
                        "value": 0
                    },
                    {
                        "number": 64,
                        "time": 158.24622125416695,
                        "value": 1
                    },
                    {
                        "number": 64,
                        "time": 158.6650802375003,
                        "value": 0
                    },
                    {
                        "number": 64,
                        "time": 158.89489667083362,
                        "value": 1
                    },
                    {
                        "number": 64,
                        "time": 159.57415250000028,
                        "value": 0
                    }
                ]
            },
            "id": 3,
            "name": "Pedale",
            "instrumentNumber": 0,
            "instrument": "acoustic grand piano",
            "instrumentFamily": "piano",
            "channelNumber": 0,
            "isPercussion": false
        },
        {
            "startTime": 0,
            "duration": 0,
            "length": 0,
            "notes": [],
            "controlChanges": {},
            "id": 4,
            "name": "Mendelssohn: Songs without words Opus 19 No. 5"
        },
        {
            "startTime": 0,
            "duration": 0,
            "length": 0,
            "notes": [],
            "controlChanges": {},
            "id": 5,
            "name": "Copyright  2010 by Bernd Krueger"
        },
        {
            "startTime": 0,
            "duration": 0,
            "length": 0,
            "notes": [],
            "controlChanges": {},
            "id": 6,
            "name": "http://www.piano-midi.de/"
        },
        {
            "startTime": 0,
            "duration": 0,
            "length": 0,
            "notes": [],
            "controlChanges": {},
            "id": 7,
            "name": "Edition: 2014-11-30"
        },
        {
            "startTime": 0,
            "duration": 0,
            "length": 0,
            "notes": [],
            "controlChanges": {},
            "id": 8,
            "name": "Spur 8"
        },
        {
            "startTime": 0,
            "duration": 0,
            "length": 0,
            "notes": [],
            "controlChanges": {},
            "id": 9,
            "name": "Spur 9"
        },
        {
            "startTime": 0,
            "duration": 0,
            "length": 0,
            "notes": [],
            "controlChanges": {},
            "id": 10,
            "name": "Spur 10"
        },
        {
            "startTime": 0,
            "duration": 0,
            "length": 0,
            "notes": [],
            "controlChanges": {},
            "id": 11,
            "name": "Spur 11"
        },
        {
            "startTime": 0,
            "duration": 0,
            "length": 0,
            "notes": [],
            "controlChanges": {},
            "id": 12,
            "name": "Spur 12"
        },
        {
            "startTime": 0,
            "duration": 0,
            "length": 0,
            "notes": [],
            "controlChanges": {},
            "id": 13,
            "name": "Spur 13"
        },
        {
            "startTime": 0,
            "duration": 0,
            "length": 0,
            "notes": [],
            "controlChanges": {},
            "id": 14,
            "name": "Spur 14"
        },
        {
            "startTime": 0,
            "duration": 0,
            "length": 0,
            "notes": [],
            "controlChanges": {},
            "id": 15,
            "name": "Spur 15"
        },
        {
            "startTime": 0,
            "duration": 0,
            "length": 0,
            "notes": [],
            "controlChanges": {},
            "id": 16,
            "name": "Spur 16"
        }
    ]
}