{
    "header": {
        "PPQ": 480,
        "timeSignature": [
            2,
            4
        ],
        "bpm": 129.2900039433451,
        "name": "Sonate D960, 4. Satz"
    },
    "startTime": 0,
    "duration": 499.80662100002417,
    "tracks": [
        {
            "startTime": 0,
            "duration": 0,
            "length": 0,
            "notes": [],
            "controlChanges": {},
            "id": 0,
            "name": "Sonate D960, 4. Satz"
        },
        {
            "startTime": 1.6242555,
            "duration": 499.80662100002417,
            "length": 3118,
            "notes": [
                {
                    "name": "D5",
                    "midi": 74,
                    "time": 1.6242555,
                    "velocity": 0.4094488188976378,
                    "duration": 0.11601824999999999
                },
                {
                    "name": "C5",
                    "midi": 72,
                    "time": 1.856292,
                    "velocity": 0.49606299212598426,
                    "duration": 0.2320365000000002
                },
                {
                    "name": "B4",
                    "midi": 71,
                    "time": 2.0883285000000003,
                    "velocity": 0.29133858267716534,
                    "duration": 0.11601825000000021
                },
                {
                    "name": "B4",
                    "midi": 71,
                    "time": 2.3203650000000007,
                    "velocity": 0.33858267716535434,
                    "duration": 0.11601825000000021
                },
                {
                    "name": "B4",
                    "midi": 71,
                    "time": 2.552401500000001,
                    "velocity": 0.29133858267716534,
                    "duration": 0.11601825000000021
                },
                {
                    "name": "B4",
                    "midi": 71,
                    "time": 2.7844380000000015,
                    "velocity": 0.4330708661417323,
                    "duration": 0.23203649999999998
                },
                {
                    "name": "C5",
                    "midi": 72,
                    "time": 3.0164745000000015,
                    "velocity": 0.31496062992125984,
                    "duration": 0.11601825000000021
                },
                {
                    "name": "D#5",
                    "midi": 75,
                    "time": 3.480547500000002,
                    "velocity": 0.4015748031496063,
                    "duration": 0.11601825000000021
                },
                {
                    "name": "C5",
                    "midi": 72,
                    "time": 3.7125840000000023,
                    "velocity": 0.49606299212598426,
                    "duration": 0.23203649999999998
                },
                {
                    "name": "B4",
                    "midi": 71,
                    "time": 3.9446205000000023,
                    "velocity": 0.29133858267716534,
                    "duration": 0.11601825000000021
                },
                {
                    "name": "B4",
                    "midi": 71,
                    "time": 4.176657000000002,
                    "velocity": 0.3464566929133858,
                    "duration": 0.11601824999999977
                },
                {
                    "name": "B4",
                    "midi": 71,
                    "time": 4.408693500000002,
                    "velocity": 0.29133858267716534,
                    "duration": 0.11601824999999977
                },
                {
                    "name": "B4",
                    "midi": 71,
                    "time": 4.640730000000001,
                    "velocity": 0.44881889763779526,
                    "duration": 0.23203650000000042
                },
                {
                    "name": "C5",
                    "midi": 72,
                    "time": 4.872766500000002,
                    "velocity": 0.3700787401574803,
                    "duration": 0.11601824999999977
                },
                {
                    "name": "D#5",
                    "midi": 75,
                    "time": 5.336839500000002,
                    "velocity": 0.4251968503937008,
                    "duration": 0.23203650000000042
                },
                {
                    "name": "C5",
                    "midi": 72,
                    "time": 5.568876000000002,
                    "velocity": 0.49606299212598426,
                    "duration": 0.23203650000000042
                },
                {
                    "name": "A#4",
                    "midi": 70,
                    "time": 5.800912500000003,
                    "velocity": 0.4094488188976378,
                    "duration": 0.11601824999999977
                },
                {
                    "name": "A#4",
                    "midi": 70,
                    "time": 6.032949000000002,
                    "velocity": 0.4251968503937008,
                    "duration": 0.11601824999999977
                },
                {
                    "name": "A#4",
                    "midi": 70,
                    "time": 6.264985500000002,
                    "velocity": 0.4251968503937008,
                    "duration": 0.11601824999999977
                },
                {
                    "name": "C5",
                    "midi": 72,
                    "time": 6.497022000000001,
                    "velocity": 0.49606299212598426,
                    "duration": 0.23203650000000042
                },
                {
                    "name": "A#4",
                    "midi": 70,
                    "time": 6.729058500000002,
                    "velocity": 0.41732283464566927,
                    "duration": 0.11601824999999977
                },
                {
                    "name": "A#4",
                    "midi": 70,
                    "time": 6.961095000000001,
                    "velocity": 0.4330708661417323,
                    "duration": 0.11601824999999977
                },
                {
                    "name": "A#4",
                    "midi": 70,
                    "time": 7.193131500000001,
                    "velocity": 0.4330708661417323,
                    "duration": 0.11601824999999977
                },
                {
                    "name": "C5",
                    "midi": 72,
                    "time": 7.425168,
                    "velocity": 0.49606299212598426,
                    "duration": 0.11601824999999977
                },
                {
                    "name": "A#4",
                    "midi": 70,
                    "time": 7.54118625,
                    "velocity": 0.4094488188976378,
                    "duration": 0.11601824999999977
                },
                {
                    "name": "A4",
                    "midi": 69,
                    "time": 7.6572045,
                    "velocity": 0.41732283464566927,
                    "duration": 0.11601824999999977
                },
                {
                    "name": "A#4",
                    "midi": 70,
                    "time": 7.7732227499999995,
                    "velocity": 0.41732283464566927,
                    "duration": 0.11601824999999977
                },
                {
                    "name": "C5",
                    "midi": 72,
                    "time": 7.889240999999999,
                    "velocity": 0.4566929133858268,
                    "duration": 0.11601825000000066
                },
                {
                    "name": "D5",
                    "midi": 74,
                    "time": 8.1212775,
                    "velocity": 0.4251968503937008,
                    "duration": 0.11601824999999977
                },
                {
                    "name": "A#4",
                    "midi": 70,
                    "time": 8.353314,
                    "velocity": 0.4566929133858268,
                    "duration": 0.23203649999999953
                },
                {
                    "name": "D6",
                    "midi": 86,
                    "time": 9.9775695,
                    "velocity": 0.4094488188976378,
                    "duration": 0.11601824999999977
                },
                {
                    "name": "C6",
                    "midi": 84,
                    "time": 10.209605999999999,
                    "velocity": 0.5039370078740157,
                    "duration": 0.23203649999999953
                },
                {
                    "name": "B5",
                    "midi": 83,
                    "time": 10.441642499999999,
                    "velocity": 0.29133858267716534,
                    "duration": 0.11601824999999977
                },
                {
                    "name": "B5",
                    "midi": 83,
                    "time": 10.673678999999998,
                    "velocity": 0.33858267716535434,
                    "duration": 0.11601824999999977
                },
                {
                    "name": "B5",
                    "midi": 83,
                    "time": 10.905715499999998,
                    "velocity": 0.29133858267716534,
                    "duration": 0.11601824999999977
                },
                {
                    "name": "B5",
                    "midi": 83,
                    "time": 11.137751999999997,
                    "velocity": 0.4330708661417323,
                    "duration": 0.23203649999999953
                },
                {
                    "name": "C6",
                    "midi": 84,
                    "time": 11.369788499999997,
                    "velocity": 0.33070866141732286,
                    "duration": 0.11601824999999977
                },
                {
                    "name": "D#6",
                    "midi": 87,
                    "time": 11.833861499999996,
                    "velocity": 0.4015748031496063,
                    "duration": 0.11601824999999977
                },
                {
                    "name": "C6",
                    "midi": 84,
                    "time": 12.065897999999995,
                    "velocity": 0.5039370078740157,
                    "duration": 0.23203649999999953
                },
                {
                    "name": "B5",
                    "midi": 83,
                    "time": 12.297934499999995,
                    "velocity": 0.29133858267716534,
                    "duration": 0.11601824999999977
                },
                {
                    "name": "B5",
                    "midi": 83,
                    "time": 12.529970999999994,
                    "velocity": 0.3464566929133858,
                    "duration": 0.11601824999999977
                },
                {
                    "name": "B5",
                    "midi": 83,
                    "time": 12.762007499999994,
                    "velocity": 0.29133858267716534,
                    "duration": 0.11601824999999977
                },
                {
                    "name": "B5",
                    "midi": 83,
                    "time": 12.994043999999993,
                    "velocity": 0.44881889763779526,
                    "duration": 0.23203649999999953
                },
                {
                    "name": "C6",
                    "midi": 84,
                    "time": 13.226080499999993,
                    "velocity": 0.3700787401574803,
                    "duration": 0.11601824999999977
                },
                {
                    "name": "D#6",
                    "midi": 87,
                    "time": 13.690153499999992,
                    "velocity": 0.4251968503937008,
                    "duration": 0.23203649999999953
                },
                {
                    "name": "C6",
                    "midi": 84,
                    "time": 13.922189999999992,
                    "velocity": 0.5039370078740157,
                    "duration": 0.23203649999999953
                },
                {
                    "name": "A#5",
                    "midi": 82,
                    "time": 14.154226499999991,
                    "velocity": 0.4094488188976378,
                    "duration": 0.11601824999999977
                },
                {
                    "name": "A#5",
                    "midi": 82,
                    "time": 14.38626299999999,
                    "velocity": 0.4251968503937008,
                    "duration": 0.11601824999999977
                },
                {
                    "name": "A#5",
                    "midi": 82,
                    "time": 14.61829949999999,
                    "velocity": 0.4251968503937008,
                    "duration": 0.11601824999999977
                },
                {
                    "name": "C6",
                    "midi": 84,
                    "time": 14.85033599999999,
                    "velocity": 0.5039370078740157,
                    "duration": 0.23203649999999953
                },
                {
                    "name": "A#5",
                    "midi": 82,
                    "time": 15.08237249999999,
                    "velocity": 0.41732283464566927,
                    "duration": 0.11601824999999977
                },
                {
                    "name": "A#5",
                    "midi": 82,
                    "time": 15.314408999999989,
                    "velocity": 0.4330708661417323,
                    "duration": 0.11601824999999977
                },
                {
                    "name": "A#5",
                    "midi": 82,
                    "time": 15.546445499999988,
                    "velocity": 0.4330708661417323,
                    "duration": 0.11601824999999977
                },
                {
                    "name": "C6",
                    "midi": 84,
                    "time": 15.778481999999988,
                    "velocity": 0.5039370078740157,
                    "duration": 0.11601824999999977
                },
                {
                    "name": "A#5",
                    "midi": 82,
                    "time": 15.894500249999988,
                    "velocity": 0.4094488188976378,
                    "duration": 0.11601825000000154
                },
                {
                    "name": "A5",
                    "midi": 81,
                    "time": 16.01051849999999,
                    "velocity": 0.41732283464566927,
                    "duration": 0.11601824999999977
                },
                {
                    "name": "A#5",
                    "midi": 82,
                    "time": 16.12653674999999,
                    "velocity": 0.41732283464566927,
                    "duration": 0.11601824999999977
                },
                {
                    "name": "C6",
                    "midi": 84,
                    "time": 16.24255499999999,
                    "velocity": 0.4566929133858268,
                    "duration": 0.11601824999999977
                },
                {
                    "name": "D6",
                    "midi": 86,
                    "time": 16.47459149999999,
                    "velocity": 0.4251968503937008,
                    "duration": 0.11601824999999977
                },
                {
                    "name": "A#5",
                    "midi": 82,
                    "time": 16.706627999999988,
                    "velocity": 0.4566929133858268,
                    "duration": 0.46407299999999907
                },
                {
                    "name": "D5",
                    "midi": 74,
                    "time": 17.402737499999986,
                    "velocity": 0.44881889763779526,
                    "duration": 0.11601824999999977
                },
                {
                    "name": "G5",
                    "midi": 79,
                    "time": 17.634773999999986,
                    "velocity": 0.47244094488188976,
                    "duration": 0.46407299999999907
                },
                {
                    "name": "D#5",
                    "midi": 75,
                    "time": 18.098846999999985,
                    "velocity": 0.47244094488188976,
                    "duration": 0.46407299999999907
                },
                {
                    "name": "C5",
                    "midi": 72,
                    "time": 18.562919999999984,
                    "velocity": 0.47244094488188976,
                    "duration": 0.46407299999999907
                },
                {
                    "name": "D5",
                    "midi": 74,
                    "time": 19.026992999999983,
                    "velocity": 0.47244094488188976,
                    "duration": 0.11601824999999977
                },
                {
                    "name": "D#5",
                    "midi": 75,
                    "time": 19.259029499999983,
                    "velocity": 0.4566929133858268,
                    "duration": 0.11601824999999977
                },
                {
                    "name": "F5",
                    "midi": 77,
                    "time": 19.491065999999982,
                    "velocity": 0.44881889763779526,
                    "duration": 0.11601824999999977
                },
                {
                    "name": "G5",
                    "midi": 79,
                    "time": 19.607084249999982,
                    "velocity": 0.41732283464566927,
                    "duration": 0.11601824999999977
                },
                {
                    "name": "F5",
                    "midi": 77,
                    "time": 19.72310249999998,
                    "velocity": 0.41732283464566927,
                    "duration": 0.11601824999999977
                },
                {
                    "name": "D#5",
                    "midi": 75,
                    "time": 19.83912074999998,
                    "velocity": 0.41732283464566927,
                    "duration": 0.11601824999999977
                },
                {
                    "name": "D5",
                    "midi": 74,
                    "time": 19.95513899999998,
                    "velocity": 0.4645669291338583,
                    "duration": 0.11601824999999977
                },
                {
                    "name": "D#5",
                    "midi": 75,
                    "time": 20.07115724999998,
                    "velocity": 0.4094488188976378,
                    "duration": 0.11601824999999977
                },
                {
                    "name": "D5",
                    "midi": 74,
                    "time": 20.18717549999998,
                    "velocity": 0.4094488188976378,
                    "duration": 0.11601824999999977
                },
                {
                    "name": "C5",
                    "midi": 72,
                    "time": 20.30319374999998,
                    "velocity": 0.41732283464566927,
                    "duration": 0.11601824999999977
                },
                {
                    "name": "A#4",
                    "midi": 70,
                    "time": 20.41921199999998,
                    "velocity": 0.47244094488188976,
                    "duration": 0.6961094999999986
                },
                {
                    "name": "A#4",
                    "midi": 70,
                    "time": 21.11532149999998,
                    "velocity": 0.44881889763779526,
                    "duration": 0.11601824999999977
                },
                {
                    "name": "D#5",
                    "midi": 75,
                    "time": 21.34735799999998,
                    "velocity": 0.47244094488188976,
                    "duration": 0.46407299999999907
                },
                {
                    "name": "C5",
                    "midi": 72,
                    "time": 21.811430999999978,
                    "velocity": 0.47244094488188976,
                    "duration": 0.46407299999999907
                },
                {
                    "name": "A4",
                    "midi": 69,
                    "time": 22.275503999999977,
                    "velocity": 0.47244094488188976,
                    "duration": 0.46407299999999907
                },
                {
                    "name": "D5",
                    "midi": 74,
                    "time": 22.739576999999976,
                    "velocity": 0.5118110236220472,
                    "duration": 0.11601824999999977
                },
                {
                    "name": "D4",
                    "midi": 62,
                    "time": 22.739576999999976,
                    "velocity": 0.4251968503937008,
                    "duration": 0.11601824999999977
                },
                {
                    "name": "C4",
                    "midi": 60,
                    "time": 22.971613499999975,
                    "velocity": 0.3858267716535433,
                    "duration": 0.11601824999999977
                },
                {
                    "name": "C5",
                    "midi": 72,
                    "time": 22.971613499999975,
                    "velocity": 0.4566929133858268,
                    "duration": 0.11601824999999977
                },
                {
                    "name": "C4",
                    "midi": 60,
                    "time": 23.203649999999975,
                    "velocity": 0.4330708661417323,
                    "duration": 0.23203649999999953
                },
                {
                    "name": "C5",
                    "midi": 72,
                    "time": 23.203649999999975,
                    "velocity": 0.5196850393700787,
                    "duration": 0.23203649999999953
                },
                {
                    "name": "A#3",
                    "midi": 58,
                    "time": 23.435686499999974,
                    "velocity": 0.4015748031496063,
                    "duration": 0.11601824999999977
                },
                {
                    "name": "A#4",
                    "midi": 70,
                    "time": 23.435686499999974,
                    "velocity": 0.47244094488188976,
                    "duration": 0.11601824999999977
                },
                {
                    "name": "A4",
                    "midi": 69,
                    "time": 23.667722999999974,
                    "velocity": 0.5275590551181102,
                    "duration": 0.11601824999999977
                },
                {
                    "name": "A3",
                    "midi": 57,
                    "time": 23.667722999999974,
                    "velocity": 0.4409448818897638,
                    "duration": 0.11601824999999977
                },
                {
                    "name": "G3",
                    "midi": 55,
                    "time": 23.899759499999973,
                    "velocity": 0.4094488188976378,
                    "duration": 0.11601824999999977
                },
                {
                    "name": "G4",
                    "midi": 67,
                    "time": 23.899759499999973,
                    "velocity": 0.48031496062992124,
                    "duration": 0.11601824999999977
                },
                {
                    "name": "A#4",
                    "midi": 70,
                    "time": 24.131795999999973,
                    "velocity": 0.5748031496062992,
                    "duration": 0.23203649999999953
                },
                {
                    "name": "A#3",
                    "midi": 58,
                    "time": 24.131795999999973,
                    "velocity": 0.48031496062992124,
                    "duration": 0.23203649999999953
                },
                {
                    "name": "A4",
                    "midi": 69,
                    "time": 24.363832499999972,
                    "velocity": 0.5196850393700787,
                    "duration": 0.11601824999999977
                },
                {
                    "name": "A3",
                    "midi": 57,
                    "time": 24.363832499999972,
                    "velocity": 0.4330708661417323,
                    "duration": 0.11601824999999977
                },
                {
                    "name": "G3",
                    "midi": 55,
                    "time": 24.595868999999972,
                    "velocity": 0.4645669291338583,
                    "duration": 0.11601824999999977
                },
                {
                    "name": "G4",
                    "midi": 67,
                    "time": 24.595868999999972,
                    "velocity": 0.5590551181102362,
                    "duration": 0.11601824999999977
                },
                {
                    "name": "F#4",
                    "midi": 66,
                    "time": 24.82790549999997,
                    "velocity": 0.5196850393700787,
                    "duration": 0.11601824999999977
                },
                {
                    "name": "F#3",
                    "midi": 54,
                    "time": 24.82790549999997,
                    "velocity": 0.4330708661417323,
                    "duration": 0.11601824999999977
                },
                {
                    "name": "G3",
                    "midi": 55,
                    "time": 25.05994199999997,
                    "velocity": 0.47244094488188976,
                    "duration": 0.23203649999999953
                },
                {
                    "name": "G4",
                    "midi": 67,
                    "time": 25.05994199999997,
                    "velocity": 0.5669291338582677,
                    "duration": 0.23203649999999953
                },
                {
                    "name": "D5",
                    "midi": 74,
                    "time": 25.52401499999997,
                    "velocity": 0.6377952755905512,
                    "duration": 0.6961094999999986
                },
                {
                    "name": "D4",
                    "midi": 62,
                    "time": 25.52401499999997,
                    "velocity": 0.5433070866141733,
                    "duration": 0.6961094999999986
                },
                {
                    "name": "A4",
                    "midi": 69,
                    "time": 25.52401499999997,
                    "velocity": 0.5433070866141733,
                    "duration": 0.6961094999999986
                },
                {
                    "name": "D#4",
                    "midi": 63,
                    "time": 26.22012449999997,
                    "velocity": 0.41732283464566927,
                    "duration": 0.11601824999999977
                },
                {
                    "name": "D#5",
                    "midi": 75,
                    "time": 26.22012449999997,
                    "velocity": 0.5039370078740157,
                    "duration": 0.11601824999999977
                },
                {
                    "name": "D5",
                    "midi": 74,
                    "time": 26.45216099999997,
                    "velocity": 0.5354330708661418,
                    "duration": 0.11601824999999977
                },
                {
                    "name": "D4",
                    "midi": 62,
                    "time": 26.45216099999997,
                    "velocity": 0.44881889763779526,
                    "duration": 0.11601824999999977
                },
                {
                    "name": "C5",
                    "midi": 72,
                    "time": 26.684197499999968,
                    "velocity": 0.5039370078740157,
                    "duration": 0.11601824999999977
                },
                {
                    "name": "C4",
                    "midi": 60,
                    "time": 26.684197499999968,
                    "velocity": 0.41732283464566927,
                    "duration": 0.11601824999999977
                },
                {
                    "name": "C4",
                    "midi": 60,
                    "time": 26.916233999999967,
                    "velocity": 0.4566929133858268,
                    "duration": 0.23203649999999953
                },
                {
                    "name": "C5",
                    "midi": 72,
                    "time": 26.916233999999967,
                    "velocity": 0.5433070866141733,
                    "duration": 0.23203649999999953
                },
                {
                    "name": "A#4",
                    "midi": 70,
                    "time": 27.148270499999967,
                    "velocity": 0.5039370078740157,
                    "duration": 0.11601824999999977
                },
                {
                    "name": "A#3",
                    "midi": 58,
                    "time": 27.148270499999967,
                    "velocity": 0.41732283464566927,
                    "duration": 0.11601824999999977
                },
                {
                    "name": "A3",
                    "midi": 57,
                    "time": 27.380306999999966,
                    "velocity": 0.4566929133858268,
                    "duration": 0.11601824999999977
                },
                {
                    "name": "A4",
                    "midi": 69,
                    "time": 27.380306999999966,
                    "velocity": 0.5433070866141733,
                    "duration": 0.11601824999999977
                },
                {
                    "name": "G3",
                    "midi": 55,
                    "time": 27.612343499999966,
                    "velocity": 0.41732283464566927,
                    "duration": 0.11601824999999977
                },
                {
                    "name": "G4",
                    "midi": 67,
                    "time": 27.612343499999966,
                    "velocity": 0.5039370078740157,
                    "duration": 0.11601824999999977
                },
                {
                    "name": "G#4",
                    "midi": 68,
                    "time": 27.844379999999965,
                    "velocity": 0.5669291338582677,
                    "duration": 0.46407299999999907
                },
                {
                    "name": "G#3",
                    "midi": 56,
                    "time": 27.844379999999965,
                    "velocity": 0.47244094488188976,
                    "duration": 0.46407299999999907
                },
                {
                    "name": "F#3",
                    "midi": 54,
                    "time": 28.308452999999965,
                    "velocity": 0.4330708661417323,
                    "duration": 0.46407299999999907
                },
                {
                    "name": "F#4",
                    "midi": 66,
                    "time": 28.308452999999965,
                    "velocity": 0.5196850393700787,
                    "duration": 0.46407299999999907
                },
                {
                    "name": "G3",
                    "midi": 55,
                    "time": 28.772525999999964,
                    "velocity": 0.4645669291338583,
                    "duration": 0.23203649999999953
                },
                {
                    "name": "G4",
                    "midi": 67,
                    "time": 28.772525999999964,
                    "velocity": 0.5590551181102362,
                    "duration": 0.23203649999999953
                },
                {
                    "name": "D5",
                    "midi": 74,
                    "time": 30.396781499999964,
                    "velocity": 0.4094488188976378,
                    "duration": 0.11601824999999977
                },
                {
                    "name": "C5",
                    "midi": 72,
                    "time": 30.628817999999963,
                    "velocity": 0.49606299212598426,
                    "duration": 0.23203649999999953
                },
                {
                    "name": "B4",
                    "midi": 71,
                    "time": 30.860854499999963,
                    "velocity": 0.29133858267716534,
                    "duration": 0.11601824999999977
                },
                {
                    "name": "B4",
                    "midi": 71,
                    "time": 31.092890999999963,
                    "velocity": 0.33858267716535434,
                    "duration": 0.11601824999999977
                },
                {
                    "name": "B4",
                    "midi": 71,
                    "time": 31.324927499999962,
                    "velocity": 0.29133858267716534,
                    "duration": 0.11601824999999977
                },
                {
                    "name": "B4",
                    "midi": 71,
                    "time": 31.55696399999996,
                    "velocity": 0.4330708661417323,
                    "duration": 0.11601824999999977
                },
                {
                    "name": "C5",
                    "midi": 72,
                    "time": 31.67298224999996,
                    "velocity": 0.3858267716535433,
                    "duration": 0.11601824999999977
                },
                {
                    "name": "G5",
                    "midi": 79,
                    "time": 31.78900049999996,
                    "velocity": 0.4645669291338583,
                    "duration": 0.2320365000000031
                },
                {
                    "name": "F5",
                    "midi": 77,
                    "time": 32.021036999999964,
                    "velocity": 0.3937007874015748,
                    "duration": 0.11601825000000332
                },
                {
                    "name": "D#5",
                    "midi": 75,
                    "time": 32.13705524999997,
                    "velocity": 0.3543307086614173,
                    "duration": 0.11601825000000332
                },
                {
                    "name": "D5",
                    "midi": 74,
                    "time": 32.25307349999997,
                    "velocity": 0.3543307086614173,
                    "duration": 0.11601825000000332
                },
                {
                    "name": "C5",
                    "midi": 72,
                    "time": 32.369091749999974,
                    "velocity": 0.3543307086614173,
                    "duration": 0.11601825000000332
                },
                {
                    "name": "C5",
                    "midi": 72,
                    "time": 32.48510999999998,
                    "velocity": 0.49606299212598426,
                    "duration": 0.23203649999999953
                },
                {
                    "name": "B4",
                    "midi": 71,
                    "time": 32.71714649999998,
                    "velocity": 0.29133858267716534,
                    "duration": 0.11601825000000332
                },
                {
                    "name": "B4",
                    "midi": 71,
                    "time": 32.949182999999984,
                    "velocity": 0.3464566929133858,
                    "duration": 0.11601825000000332
                },
                {
                    "name": "B4",
                    "midi": 71,
                    "time": 33.18121949999999,
                    "velocity": 0.29133858267716534,
                    "duration": 0.11601825000000332
                },
                {
                    "name": "B4",
                    "midi": 71,
                    "time": 33.413256,
                    "velocity": 0.44881889763779526,
                    "duration": 0.23203649999999953
                },
                {
                    "name": "C5",
                    "midi": 72,
                    "time": 33.6452925,
                    "velocity": 0.3700787401574803,
                    "duration": 0.11601825000000332
                },
                {
                    "name": "D#5",
                    "midi": 75,
                    "time": 34.1093655,
                    "velocity": 0.4251968503937008,
                    "duration": 0.23203649999999953
                },
                {
                    "name": "C5",
                    "midi": 72,
                    "time": 34.341402,
                    "velocity": 0.49606299212598426,
                    "duration": 0.23203649999999953
                },
                {
                    "name": "A#4",
                    "midi": 70,
                    "time": 34.5734385,
                    "velocity": 0.4094488188976378,
                    "duration": 0.11601825000000332
                },
                {
                    "name": "A#4",
                    "midi": 70,
                    "time": 34.80547500000001,
                    "velocity": 0.4251968503937008,
                    "duration": 0.11601825000000332
                },
                {
                    "name": "A#4",
                    "midi": 70,
                    "time": 35.037511500000015,
                    "velocity": 0.4251968503937008,
                    "duration": 0.11601825000000332
                },
                {
                    "name": "C5",
                    "midi": 72,
                    "time": 35.26954800000002,
                    "velocity": 0.49606299212598426,
                    "duration": 0.23203649999999953
                },
                {
                    "name": "A#4",
                    "midi": 70,
                    "time": 35.50158450000002,
                    "velocity": 0.41732283464566927,
                    "duration": 0.11601825000000332
                },
                {
                    "name": "A#4",
                    "midi": 70,
                    "time": 35.73362100000003,
                    "velocity": 0.4330708661417323,
                    "duration": 0.11601825000000332
                },
                {
                    "name": "A#4",
                    "midi": 70,
                    "time": 35.965657500000034,
                    "velocity": 0.4330708661417323,
                    "duration": 0.11601825000000332
                },
                {
                    "name": "C5",
                    "midi": 72,
                    "time": 36.19769400000004,
                    "velocity": 0.49606299212598426,
                    "duration": 0.11601825000000332
                },
                {
                    "name": "A#4",
                    "midi": 70,
                    "time": 36.313712250000044,
                    "velocity": 0.4094488188976378,
                    "duration": 0.11601825000000332
                },
                {
                    "name": "A4",
                    "midi": 69,
                    "time": 36.42973050000005,
                    "velocity": 0.41732283464566927,
                    "duration": 0.11601825000000332
                },
                {
                    "name": "A#4",
                    "midi": 70,
                    "time": 36.54574875000005,
                    "velocity": 0.41732283464566927,
                    "duration": 0.11601825000000332
                },
                {
                    "name": "C5",
                    "midi": 72,
                    "time": 36.661767000000054,
                    "velocity": 0.4566929133858268,
                    "duration": 0.11601825000000332
                },
                {
                    "name": "D5",
                    "midi": 74,
                    "time": 36.89380350000006,
                    "velocity": 0.4251968503937008,
                    "duration": 0.11601825000000332
                },
                {
                    "name": "A#4",
                    "midi": 70,
                    "time": 37.12584000000007,
                    "velocity": 0.4566929133858268,
                    "duration": 0.46407299999999907
                },
                {
                    "name": "D5",
                    "midi": 74,
                    "time": 37.821949500000066,
                    "velocity": 0.44881889763779526,
                    "duration": 0.11601825000000332
                },
                {
                    "name": "G5",
                    "midi": 79,
                    "time": 38.05398600000007,
                    "velocity": 0.47244094488188976,
                    "duration": 0.46407299999999907
                },
                {
                    "name": "D#5",
                    "midi": 75,
                    "time": 38.51805900000007,
                    "velocity": 0.47244094488188976,
                    "duration": 0.46407299999999907
                },
                {
                    "name": "C5",
                    "midi": 72,
                    "time": 38.98213200000007,
                    "velocity": 0.47244094488188976,
                    "duration": 0.46407299999999907
                },
                {
                    "name": "D5",
                    "midi": 74,
                    "time": 39.44620500000007,
                    "velocity": 0.47244094488188976,
                    "duration": 0.11601825000000332
                },
                {
                    "name": "D#5",
                    "midi": 75,
                    "time": 39.67824150000008,
                    "velocity": 0.4566929133858268,
                    "duration": 0.11601825000000332
                },
                {
                    "name": "F5",
                    "midi": 77,
                    "time": 39.91027800000008,
                    "velocity": 0.44881889763779526,
                    "duration": 0.11601825000000332
                },
                {
                    "name": "G5",
                    "midi": 79,
                    "time": 40.02629625000009,
                    "velocity": 0.41732283464566927,
                    "duration": 0.11601825000000332
                },
                {
                    "name": "F5",
                    "midi": 77,
                    "time": 40.14231450000009,
                    "velocity": 0.41732283464566927,
                    "duration": 0.11601825000000332
                },
                {
                    "name": "D#5",
                    "midi": 75,
                    "time": 40.25833275000009,
                    "velocity": 0.41732283464566927,
                    "duration": 0.11601825000000332
                },
                {
                    "name": "D5",
                    "midi": 74,
                    "time": 40.3743510000001,
                    "velocity": 0.4645669291338583,
                    "duration": 0.11601825000000332
                },
                {
                    "name": "D#5",
                    "midi": 75,
                    "time": 40.4903692500001,
                    "velocity": 0.4094488188976378,
                    "duration": 0.11601825000000332
                },
                {
                    "name": "D5",
                    "midi": 74,
                    "time": 40.6063875000001,
                    "velocity": 0.4094488188976378,
                    "duration": 0.11601825000000332
                },
                {
                    "name": "C5",
                    "midi": 72,
                    "time": 40.72240575000011,
                    "velocity": 0.41732283464566927,
                    "duration": 0.11601825000000332
                },
                {
                    "name": "A#4",
                    "midi": 70,
                    "time": 40.83842400000011,
                    "velocity": 0.47244094488188976,
                    "duration": 0.6961094999999986
                },
                {
                    "name": "A#4",
                    "midi": 70,
                    "time": 41.53453350000011,
                    "velocity": 0.36220472440944884,
                    "duration": 0.11601825000000332
                },
                {
                    "name": "D#5",
                    "midi": 75,
                    "time": 41.766570000000115,
                    "velocity": 0.3779527559055118,
                    "duration": 0.46407299999999907
                },
                {
                    "name": "C5",
                    "midi": 72,
                    "time": 42.230643000000114,
                    "velocity": 0.3779527559055118,
                    "duration": 0.46407299999999907
                },
                {
                    "name": "G#4",
                    "midi": 68,
                    "time": 42.69471600000011,
                    "velocity": 0.3779527559055118,
                    "duration": 0.46407299999999907
                },
                {
                    "name": "A#4",
                    "midi": 70,
                    "time": 43.15878900000011,
                    "velocity": 0.3779527559055118,
                    "duration": 0.23203649999999953
                },
                {
                    "name": "C5",
                    "midi": 72,
                    "time": 43.39082550000011,
                    "velocity": 0.36220472440944884,
                    "duration": 0.23203649999999953
                },
                {
                    "name": "D#5",
                    "midi": 75,
                    "time": 43.62286200000011,
                    "velocity": 0.3779527559055118,
                    "duration": 0.46407299999999907
                },
                {
                    "name": "C#5",
                    "midi": 73,
                    "time": 44.08693500000011,
                    "velocity": 0.3779527559055118,
                    "duration": 0.23203649999999953
                },
                {
                    "name": "C5",
                    "midi": 72,
                    "time": 44.31897150000011,
                    "velocity": 0.3779527559055118,
                    "duration": 0.23203649999999953
                },
                {
                    "name": "A#4",
                    "midi": 70,
                    "time": 44.55100800000011,
                    "velocity": 0.3779527559055118,
                    "duration": 0.46407299999999907
                },
                {
                    "name": "C5",
                    "midi": 72,
                    "time": 45.01508100000011,
                    "velocity": 0.3779527559055118,
                    "duration": 0.11601825000000332
                },
                {
                    "name": "C#5",
                    "midi": 73,
                    "time": 45.247117500000115,
                    "velocity": 0.36220472440944884,
                    "duration": 0.11601825000000332
                },
                {
                    "name": "D#5",
                    "midi": 75,
                    "time": 45.47915400000012,
                    "velocity": 0.36220472440944884,
                    "duration": 0.11601825000000332
                },
                {
                    "name": "F5",
                    "midi": 77,
                    "time": 45.595172250000125,
                    "velocity": 0.33070866141732286,
                    "duration": 0.11601825000000332
                },
                {
                    "name": "D#5",
                    "midi": 75,
                    "time": 45.71119050000013,
                    "velocity": 0.33070866141732286,
                    "duration": 0.11601825000000332
                },
                {
                    "name": "C#5",
                    "midi": 73,
                    "time": 45.82720875000013,
                    "velocity": 0.33070866141732286,
                    "duration": 0.11601825000000332
                },
                {
                    "name": "C5",
                    "midi": 72,
                    "time": 45.943227000000135,
                    "velocity": 0.3700787401574803,
                    "duration": 0.11601825000000332
                },
                {
                    "name": "C#5",
                    "midi": 73,
                    "time": 46.05924525000014,
                    "velocity": 0.33070866141732286,
                    "duration": 0.11601825000000332
                },
                {
                    "name": "C5",
                    "midi": 72,
                    "time": 46.17526350000014,
                    "velocity": 0.33070866141732286,
                    "duration": 0.11601825000000332
                },
                {
                    "name": "A#4",
                    "midi": 70,
                    "time": 46.291281750000145,
                    "velocity": 0.33070866141732286,
                    "duration": 0.11601825000000332
                },
                {
                    "name": "G#4",
                    "midi": 68,
                    "time": 46.40730000000015,
                    "velocity": 0.3779527559055118,
                    "duration": 0.46407299999999907
                },
                {
                    "name": "A#4",
                    "midi": 70,
                    "time": 46.87137300000015,
                    "velocity": 0.3779527559055118,
                    "duration": 0.11601825000000332
                },
                {
                    "name": "C5",
                    "midi": 72,
                    "time": 47.103409500000154,
                    "velocity": 0.3464566929133858,
                    "duration": 0.11601825000000332
                },
                {
                    "name": "D#5",
                    "midi": 75,
                    "time": 47.33544600000016,
                    "velocity": 0.3779527559055118,
                    "duration": 0.23203649999999953
                },
                {
                    "name": "C#5",
                    "midi": 73,
                    "time": 47.56748250000016,
                    "velocity": 0.3779527559055118,
                    "duration": 0.11601825000000332
                },
                {
                    "name": "C#5",
                    "midi": 73,
                    "time": 47.79951900000017,
                    "velocity": 0.3779527559055118,
                    "duration": 0.11601825000000332
                },
                {
                    "name": "D#5",
                    "midi": 75,
                    "time": 47.91553725000017,
                    "velocity": 0.3464566929133858,
                    "duration": 0.11601825000000332
                },
                {
                    "name": "C#5",
                    "midi": 73,
                    "time": 48.031555500000174,
                    "velocity": 0.3464566929133858,
                    "duration": 0.11601825000000332
                },
                {
                    "name": "C5",
                    "midi": 72,
                    "time": 48.14757375000018,
                    "velocity": 0.3464566929133858,
                    "duration": 0.11601825000000332
                },
                {
                    "name": "A#4",
                    "midi": 70,
                    "time": 48.26359200000018,
                    "velocity": 0.3779527559055118,
                    "duration": 0.23203649999999953
                },
                {
                    "name": "D#5",
                    "midi": 75,
                    "time": 48.49562850000018,
                    "velocity": 0.3858267716535433,
                    "duration": 0.11601825000000332
                },
                {
                    "name": "F5",
                    "midi": 77,
                    "time": 48.72766500000019,
                    "velocity": 0.41732283464566927,
                    "duration": 0.11601825000000332
                },
                {
                    "name": "G5",
                    "midi": 79,
                    "time": 48.95970150000019,
                    "velocity": 0.4409448818897638,
                    "duration": 0.11601825000000332
                },
                {
                    "name": "G#5",
                    "midi": 80,
                    "time": 49.1917380000002,
                    "velocity": 0.4645669291338583,
                    "duration": 0.9281459999999981
                },
                {
                    "name": "G#4",
                    "midi": 68,
                    "time": 49.1917380000002,
                    "velocity": 0.3937007874015748,
                    "duration": 0.9281459999999981
                },
                {
                    "name": "C6",
                    "midi": 84,
                    "time": 50.1198840000002,
                    "velocity": 0.47244094488188976,
                    "duration": 0.6961094999999986
                },
                {
                    "name": "C5",
                    "midi": 72,
                    "time": 50.1198840000002,
                    "velocity": 0.4015748031496063,
                    "duration": 0.6961094999999986
                },
                {
                    "name": "G#5",
                    "midi": 80,
                    "time": 50.8159935000002,
                    "velocity": 0.4330708661417323,
                    "duration": 0.23203649999999953
                },
                {
                    "name": "G#4",
                    "midi": 68,
                    "time": 50.8159935000002,
                    "velocity": 0.3700787401574803,
                    "duration": 0.23203649999999953
                },
                {
                    "name": "G#5",
                    "midi": 80,
                    "time": 51.048030000000196,
                    "velocity": 0.4645669291338583,
                    "duration": 0.46407299999999907
                },
                {
                    "name": "G#4",
                    "midi": 68,
                    "time": 51.048030000000196,
                    "velocity": 0.3937007874015748,
                    "duration": 0.46407299999999907
                },
                {
                    "name": "G4",
                    "midi": 67,
                    "time": 51.512103000000195,
                    "velocity": 0.3700787401574803,
                    "duration": 0.9281459999999981
                },
                {
                    "name": "G5",
                    "midi": 79,
                    "time": 51.512103000000195,
                    "velocity": 0.4330708661417323,
                    "duration": 0.9281459999999981
                },
                {
                    "name": "G4",
                    "midi": 67,
                    "time": 52.44024900000019,
                    "velocity": 0.3779527559055118,
                    "duration": 0.46407299999999907
                },
                {
                    "name": "G5",
                    "midi": 79,
                    "time": 52.44024900000019,
                    "velocity": 0.44881889763779526,
                    "duration": 0.46407299999999907
                },
                {
                    "name": "G4",
                    "midi": 67,
                    "time": 52.90432200000019,
                    "velocity": 0.4094488188976378,
                    "duration": 0.46407299999999907
                },
                {
                    "name": "G5",
                    "midi": 79,
                    "time": 52.90432200000019,
                    "velocity": 0.49606299212598426,
                    "duration": 0.46407299999999907
                },
                {
                    "name": "F5",
                    "midi": 77,
                    "time": 53.36839500000019,
                    "velocity": 0.4566929133858268,
                    "duration": 0.46407299999999907
                },
                {
                    "name": "F4",
                    "midi": 65,
                    "time": 53.36839500000019,
                    "velocity": 0.3858267716535433,
                    "duration": 0.46407299999999907
                },
                {
                    "name": "A#4",
                    "midi": 70,
                    "time": 53.83246800000019,
                    "velocity": 0.44881889763779526,
                    "duration": 0.6961094999999986
                },
                {
                    "name": "A#5",
                    "midi": 82,
                    "time": 53.83246800000019,
                    "velocity": 0.5275590551181102,
                    "duration": 0.6961094999999986
                },
                {
                    "name": "A5",
                    "midi": 81,
                    "time": 54.52857750000019,
                    "velocity": 0.48031496062992124,
                    "duration": 0.23203649999999953
                },
                {
                    "name": "A4",
                    "midi": 69,
                    "time": 54.52857750000019,
                    "velocity": 0.4015748031496063,
                    "duration": 0.23203649999999953
                },
                {
                    "name": "A4",
                    "midi": 69,
                    "time": 54.76061400000019,
                    "velocity": 0.4015748031496063,
                    "duration": 0.23203649999999953
                },
                {
                    "name": "A5",
                    "midi": 81,
                    "time": 54.76061400000019,
                    "velocity": 0.48031496062992124,
                    "duration": 0.23203649999999953
                },
                {
                    "name": "G5",
                    "midi": 79,
                    "time": 54.99265050000019,
                    "velocity": 0.4251968503937008,
                    "duration": 0.23203649999999953
                },
                {
                    "name": "G4",
                    "midi": 67,
                    "time": 54.99265050000019,
                    "velocity": 0.36220472440944884,
                    "duration": 0.23203649999999953
                },
                {
                    "name": "D#5",
                    "midi": 75,
                    "time": 55.22468700000019,
                    "velocity": 0.4645669291338583,
                    "duration": 0.46407299999999907
                },
                {
                    "name": "D#6",
                    "midi": 87,
                    "time": 55.22468700000019,
                    "velocity": 0.5590551181102362,
                    "duration": 0.46407299999999907
                },
                {
                    "name": "D6",
                    "midi": 86,
                    "time": 55.68876000000019,
                    "velocity": 0.49606299212598426,
                    "duration": 0.46407299999999907
                },
                {
                    "name": "D5",
                    "midi": 74,
                    "time": 55.68876000000019,
                    "velocity": 0.4094488188976378,
                    "duration": 0.46407299999999907
                },
                {
                    "name": "C5",
                    "midi": 72,
                    "time": 56.152833000000186,
                    "velocity": 0.3543307086614173,
                    "duration": 0.46407299999999907
                },
                {
                    "name": "C6",
                    "midi": 84,
                    "time": 56.152833000000186,
                    "velocity": 0.41732283464566927,
                    "duration": 0.46407299999999907
                },
                {
                    "name": "A#5",
                    "midi": 82,
                    "time": 56.616906000000185,
                    "velocity": 0.41732283464566927,
                    "duration": 0.23203649999999953
                },
                {
                    "name": "A#4",
                    "midi": 70,
                    "time": 56.616906000000185,
                    "velocity": 0.3464566929133858,
                    "duration": 0.23203649999999953
                },
                {
                    "name": "D5",
                    "midi": 74,
                    "time": 57.080979000000184,
                    "velocity": 0.36220472440944884,
                    "duration": 0.11601825000000332
                },
                {
                    "name": "D5",
                    "midi": 74,
                    "time": 57.23567000000019,
                    "velocity": 0.3779527559055118,
                    "duration": 0.11601825000000332
                },
                {
                    "name": "D5",
                    "midi": 74,
                    "time": 57.3903610000002,
                    "velocity": 0.3937007874015748,
                    "duration": 0.11601825000000332
                },
                {
                    "name": "D5",
                    "midi": 74,
                    "time": 57.545052000000204,
                    "velocity": 0.4015748031496063,
                    "duration": 0.11601825000000332
                },
                {
                    "name": "D5",
                    "midi": 74,
                    "time": 57.69974300000021,
                    "velocity": 0.3858267716535433,
                    "duration": 0.11601825000000332
                },
                {
                    "name": "D5",
                    "midi": 74,
                    "time": 57.85443400000022,
                    "velocity": 0.3700787401574803,
                    "duration": 0.11601825000000332
                },
                {
                    "name": "D5",
                    "midi": 74,
                    "time": 58.009125000000225,
                    "velocity": 0.4015748031496063,
                    "duration": 0.11601825000000332
                },
                {
                    "name": "C5",
                    "midi": 72,
                    "time": 58.12514325000023,
                    "velocity": 0.36220472440944884,
                    "duration": 0.11601825000000332
                },
                {
                    "name": "D5",
                    "midi": 74,
                    "time": 58.24116150000023,
                    "velocity": 0.3700787401574803,
                    "duration": 0.11601825000000332
                },
                {
                    "name": "D#5",
                    "midi": 75,
                    "time": 58.357179750000235,
                    "velocity": 0.3700787401574803,
                    "duration": 0.11601825000000332
                },
                {
                    "name": "D5",
                    "midi": 74,
                    "time": 58.47319800000024,
                    "velocity": 0.41732283464566927,
                    "duration": 0.23203649999999953
                },
                {
                    "name": "D6",
                    "midi": 86,
                    "time": 60.097453500000235,
                    "velocity": 0.4094488188976378,
                    "duration": 0.11601825000000332
                },
                {
                    "name": "C6",
                    "midi": 84,
                    "time": 60.32949000000024,
                    "velocity": 0.49606299212598426,
                    "duration": 0.23203649999999953
                },
                {
                    "name": "B5",
                    "midi": 83,
                    "time": 60.56152650000024,
                    "velocity": 0.29133858267716534,
                    "duration": 0.11601825000000332
                },
                {
                    "name": "B5",
                    "midi": 83,
                    "time": 60.79356300000025,
                    "velocity": 0.33858267716535434,
                    "duration": 0.11601825000000332
                },
                {
                    "name": "B5",
                    "midi": 83,
                    "time": 61.025599500000254,
                    "velocity": 0.29133858267716534,
                    "duration": 0.11601825000000332
                },
                {
                    "name": "B5",
                    "midi": 83,
                    "time": 61.25763600000026,
                    "velocity": 0.4330708661417323,
                    "duration": 0.11601825000000332
                },
                {
                    "name": "C6",
                    "midi": 84,
                    "time": 61.373654250000264,
                    "velocity": 0.3858267716535433,
                    "duration": 0.11601825000000332
                },
                {
                    "name": "G6",
                    "midi": 91,
                    "time": 61.48967250000027,
                    "velocity": 0.4645669291338583,
                    "duration": 0.23203649999999953
                },
                {
                    "name": "F6",
                    "midi": 89,
                    "time": 61.72170900000027,
                    "velocity": 0.3937007874015748,
                    "duration": 0.11601825000000332
                },
                {
                    "name": "D#6",
                    "midi": 87,
                    "time": 61.83772725000027,
                    "velocity": 0.3543307086614173,
                    "duration": 0.11601825000000332
                },
                {
                    "name": "D6",
                    "midi": 86,
                    "time": 61.953745500000274,
                    "velocity": 0.3543307086614173,
                    "duration": 0.11601825000000332
                },
                {
                    "name": "C6",
                    "midi": 84,
                    "time": 62.06976375000028,
                    "velocity": 0.3543307086614173,
                    "duration": 0.11601825000000332
                },
                {
                    "name": "C6",
                    "midi": 84,
                    "time": 62.18578200000028,
                    "velocity": 0.49606299212598426,
                    "duration": 0.23203649999999953
                },
                {
                    "name": "B5",
                    "midi": 83,
                    "time": 62.41781850000028,
                    "velocity": 0.29133858267716534,
                    "duration": 0.11601825000000332
                },
                {
                    "name": "B5",
                    "midi": 83,
                    "time": 62.64985500000029,
                    "velocity": 0.3464566929133858,
                    "duration": 0.11601825000000332
                },
                {
                    "name": "B5",
                    "midi": 83,
                    "time": 62.88189150000029,
                    "velocity": 0.29133858267716534,
                    "duration": 0.11601825000000332
                },
                {
                    "name": "B5",
                    "midi": 83,
                    "time": 63.1139280000003,
                    "velocity": 0.44881889763779526,
                    "duration": 0.23203649999999953
                },
                {
                    "name": "C6",
                    "midi": 84,
                    "time": 63.3459645000003,
                    "velocity": 0.3700787401574803,
                    "duration": 0.11601825000000332
                },
                {
                    "name": "D#6",
                    "midi": 87,
                    "time": 63.810037500000305,
                    "velocity": 0.4251968503937008,
                    "duration": 0.23203650000000664
                },
                {
                    "name": "C6",
                    "midi": 84,
                    "time": 64.04207400000031,
                    "velocity": 0.49606299212598426,
                    "duration": 0.23203650000000664
                },
                {
                    "name": "A#5",
                    "midi": 82,
                    "time": 64.27411050000032,
                    "velocity": 0.4094488188976378,
                    "duration": 0.11601824999999621
                },
                {
                    "name": "A#5",
                    "midi": 82,
                    "time": 64.50614700000031,
                    "velocity": 0.4251968503937008,
                    "duration": 0.11601824999999621
                },
                {
                    "name": "A#5",
                    "midi": 82,
                    "time": 64.7381835000003,
                    "velocity": 0.4251968503937008,
                    "duration": 0.11601824999999621
                },
                {
                    "name": "C6",
                    "midi": 84,
                    "time": 64.9702200000003,
                    "velocity": 0.49606299212598426,
                    "duration": 0.23203650000000664
                },
                {
                    "name": "A#5",
                    "midi": 82,
                    "time": 65.2022565000003,
                    "velocity": 0.41732283464566927,
                    "duration": 0.11601824999999621
                },
                {
                    "name": "A#5",
                    "midi": 82,
                    "time": 65.4342930000003,
                    "velocity": 0.4330708661417323,
                    "duration": 0.11601824999999621
                },
                {
                    "name": "A#5",
                    "midi": 82,
                    "time": 65.66632950000029,
                    "velocity": 0.4330708661417323,
                    "duration": 0.11601824999999621
                },
                {
                    "name": "G5",
                    "midi": 79,
                    "time": 65.89836600000028,
                    "velocity": 0.49606299212598426,
                    "duration": 0.11601824999999621
                },
                {
                    "name": "F5",
                    "midi": 77,
                    "time": 66.01438425000028,
                    "velocity": 0.4094488188976378,
                    "duration": 0.11601824999999621
                },
                {
                    "name": "E5",
                    "midi": 76,
                    "time": 66.13040250000027,
                    "velocity": 0.41732283464566927,
                    "duration": 0.11601824999999621
                },
                {
                    "name": "F5",
                    "midi": 77,
                    "time": 66.24642075000027,
                    "velocity": 0.41732283464566927,
                    "duration": 0.11601824999999621
                },
                {
                    "name": "D#5",
                    "midi": 75,
                    "time": 66.36243900000026,
                    "velocity": 0.4566929133858268,
                    "duration": 0.11601824999999621
                },
                {
                    "name": "C5",
                    "midi": 72,
                    "time": 66.59447550000026,
                    "velocity": 0.4251968503937008,
                    "duration": 0.11601824999999621
                },
                {
                    "name": "A#4",
                    "midi": 70,
                    "time": 66.82651200000025,
                    "velocity": 0.4566929133858268,
                    "duration": 0.11601824999999621
                },
                {
                    "name": "D5",
                    "midi": 74,
                    "time": 67.05854850000024,
                    "velocity": 0.4330708661417323,
                    "duration": 0.11601824999999621
                },
                {
                    "name": "F5",
                    "midi": 77,
                    "time": 67.29058500000023,
                    "velocity": 0.4330708661417323,
                    "duration": 0.11601824999999621
                },
                {
                    "name": "A#5",
                    "midi": 82,
                    "time": 67.52262150000023,
                    "velocity": 0.4330708661417323,
                    "duration": 0.11601824999999621
                },
                {
                    "name": "D6",
                    "midi": 86,
                    "time": 67.75465800000022,
                    "velocity": 0.47244094488188976,
                    "duration": 0.23203650000000664
                },
                {
                    "name": "C6",
                    "midi": 84,
                    "time": 67.98669450000023,
                    "velocity": 0.4566929133858268,
                    "duration": 0.11601824999999621
                },
                {
                    "name": "C6",
                    "midi": 84,
                    "time": 68.21873100000022,
                    "velocity": 0.48031496062992124,
                    "duration": 0.11601824999999621
                },
                {
                    "name": "C6",
                    "midi": 84,
                    "time": 68.45076750000021,
                    "velocity": 0.4566929133858268,
                    "duration": 0.11601824999999621
                },
                {
                    "name": "G5",
                    "midi": 79,
                    "time": 68.6828040000002,
                    "velocity": 0.49606299212598426,
                    "duration": 0.11601824999999621
                },
                {
                    "name": "F5",
                    "midi": 77,
                    "time": 68.7988222500002,
                    "velocity": 0.4094488188976378,
                    "duration": 0.11601824999999621
                },
                {
                    "name": "E5",
                    "midi": 76,
                    "time": 68.9148405000002,
                    "velocity": 0.41732283464566927,
                    "duration": 0.11601824999999621
                },
                {
                    "name": "F5",
                    "midi": 77,
                    "time": 69.03085875000019,
                    "velocity": 0.41732283464566927,
                    "duration": 0.11601824999999621
                },
                {
                    "name": "C5",
                    "midi": 72,
                    "time": 69.14687700000019,
                    "velocity": 0.4566929133858268,
                    "duration": 0.11601824999999621
                },
                {
                    "name": "A4",
                    "midi": 69,
                    "time": 69.37891350000018,
                    "velocity": 0.4251968503937008,
                    "duration": 0.11601824999999621
                },
                {
                    "name": "D6",
                    "midi": 86,
                    "time": 69.61095000000017,
                    "velocity": 0.5118110236220472,
                    "duration": 0.23203650000000664
                },
                {
                    "name": "C6",
                    "midi": 84,
                    "time": 69.84298650000018,
                    "velocity": 0.4566929133858268,
                    "duration": 0.11601824999999621
                },
                {
                    "name": "C6",
                    "midi": 84,
                    "time": 70.07502300000017,
                    "velocity": 0.48031496062992124,
                    "duration": 0.11601824999999621
                },
                {
                    "name": "C6",
                    "midi": 84,
                    "time": 70.30705950000016,
                    "velocity": 0.4566929133858268,
                    "duration": 0.11601824999999621
                },
                {
                    "name": "G5",
                    "midi": 79,
                    "time": 70.53909600000016,
                    "velocity": 0.49606299212598426,
                    "duration": 0.11601824999999621
                },
                {
                    "name": "F5",
                    "midi": 77,
                    "time": 70.65511425000015,
                    "velocity": 0.4094488188976378,
                    "duration": 0.11601824999999621
                },
                {
                    "name": "E5",
                    "midi": 76,
                    "time": 70.77113250000015,
                    "velocity": 0.41732283464566927,
                    "duration": 0.11601824999999621
                },
                {
                    "name": "F5",
                    "midi": 77,
                    "time": 70.88715075000015,
                    "velocity": 0.41732283464566927,
                    "duration": 0.11601824999999621
                },
                {
                    "name": "C5",
                    "midi": 72,
                    "time": 71.00316900000014,
                    "velocity": 0.4566929133858268,
                    "duration": 0.11601824999999621
                },
                {
                    "name": "A4",
                    "midi": 69,
                    "time": 71.23520550000013,
                    "velocity": 0.4251968503937008,
                    "duration": 0.11601824999999621
                },
                {
                    "name": "A5",
                    "midi": 81,
                    "time": 71.46724200000013,
                    "velocity": 0.4251968503937008,
                    "duration": 0.23203650000000664
                },
                {
                    "name": "G5",
                    "midi": 79,
                    "time": 71.69927850000013,
                    "velocity": 0.3858267716535433,
                    "duration": 0.11601824999999621
                },
                {
                    "name": "G5",
                    "midi": 79,
                    "time": 71.93131500000013,
                    "velocity": 0.4094488188976378,
                    "duration": 0.11601824999999621
                },
                {
                    "name": "G5",
                    "midi": 79,
                    "time": 72.16335150000012,
                    "velocity": 0.3858267716535433,
                    "duration": 0.11601824999999621
                },
                {
                    "name": "D6",
                    "midi": 86,
                    "time": 72.39538800000011,
                    "velocity": 0.41732283464566927,
                    "duration": 0.11601824999999621
                },
                {
                    "name": "C6",
                    "midi": 84,
                    "time": 72.5114062500001,
                    "velocity": 0.3464566929133858,
                    "duration": 0.11601824999999621
                },
                {
                    "name": "B5",
                    "midi": 83,
                    "time": 72.6274245000001,
                    "velocity": 0.3543307086614173,
                    "duration": 0.11601824999999621
                },
                {
                    "name": "C6",
                    "midi": 84,
                    "time": 72.7434427500001,
                    "velocity": 0.3543307086614173,
                    "duration": 0.11601824999999621
                },
                {
                    "name": "G5",
                    "midi": 79,
                    "time": 72.8594610000001,
                    "velocity": 0.3858267716535433,
                    "duration": 0.11601824999999621
                },
                {
                    "name": "E5",
                    "midi": 76,
                    "time": 73.09149750000009,
                    "velocity": 0.36220472440944884,
                    "duration": 0.11601824999999621
                },
                {
                    "name": "A5",
                    "midi": 81,
                    "time": 73.32353400000008,
                    "velocity": 0.4251968503937008,
                    "duration": 0.23203650000000664
                },
                {
                    "name": "G5",
                    "midi": 79,
                    "time": 73.55557050000009,
                    "velocity": 0.3858267716535433,
                    "duration": 0.11601824999999621
                },
                {
                    "name": "G5",
                    "midi": 79,
                    "time": 73.78760700000008,
                    "velocity": 0.4094488188976378,
                    "duration": 0.11601824999999621
                },
                {
                    "name": "G5",
                    "midi": 79,
                    "time": 74.01964350000007,
                    "velocity": 0.3858267716535433,
                    "duration": 0.11601824999999621
                },
                {
                    "name": "D6",
                    "midi": 86,
                    "time": 74.25168000000006,
                    "velocity": 0.41732283464566927,
                    "duration": 0.11601824999999621
                },
                {
                    "name": "C6",
                    "midi": 84,
                    "time": 74.36769825000006,
                    "velocity": 0.3464566929133858,
                    "duration": 0.11601824999999621
                },
                {
                    "name": "B5",
                    "midi": 83,
                    "time": 74.48371650000006,
                    "velocity": 0.3543307086614173,
                    "duration": 0.11601824999999621
                },
                {
                    "name": "C6",
                    "midi": 84,
                    "time": 74.59973475000005,
                    "velocity": 0.3543307086614173,
                    "duration": 0.11601824999999621
                },
                {
                    "name": "G5",
                    "midi": 79,
                    "time": 74.71575300000005,
                    "velocity": 0.3858267716535433,
                    "duration": 0.11601824999999621
                },
                {
                    "name": "E5",
                    "midi": 76,
                    "time": 74.94778950000004,
                    "velocity": 0.36220472440944884,
                    "duration": 0.11601824999999621
                },
                {
                    "name": "D5",
                    "midi": 74,
                    "time": 75.17982600000003,
                    "velocity": 0.41732283464566927,
                    "duration": 0.11601824999999621
                },
                {
                    "name": "C5",
                    "midi": 72,
                    "time": 75.29584425000003,
                    "velocity": 0.3464566929133858,
                    "duration": 0.11601824999999621
                },
                {
                    "name": "B4",
                    "midi": 71,
                    "time": 75.41186250000003,
                    "velocity": 0.3543307086614173,
                    "duration": 0.11601824999999621
                },
                {
                    "name": "C5",
                    "midi": 72,
                    "time": 75.52788075000002,
                    "velocity": 0.3543307086614173,
                    "duration": 0.11601824999999621
                },
                {
                    "name": "G4",
                    "midi": 67,
                    "time": 75.64389900000002,
                    "velocity": 0.3858267716535433,
                    "duration": 0.11601824999999621
                },
                {
                    "name": "E4",
                    "midi": 64,
                    "time": 75.87593550000001,
                    "velocity": 0.36220472440944884,
                    "duration": 0.11601824999999621
                },
                {
                    "name": "G4",
                    "midi": 67,
                    "time": 78.1963005,
                    "velocity": 0.4094488188976378,
                    "duration": 0.11601824999999621
                },
                {
                    "name": "E4",
                    "midi": 64,
                    "time": 78.1963005,
                    "velocity": 0.4094488188976378,
                    "duration": 0.11601824999999621
                },
                {
                    "name": "C5",
                    "midi": 72,
                    "time": 78.1963005,
                    "velocity": 0.4094488188976378,
                    "duration": 0.11601824999999621
                },
                {
                    "name": "E4",
                    "midi": 64,
                    "time": 78.428337,
                    "velocity": 0.4094488188976378,
                    "duration": 0.11601824999999621
                },
                {
                    "name": "C5",
                    "midi": 72,
                    "time": 78.428337,
                    "velocity": 0.4094488188976378,
                    "duration": 0.11601824999999621
                },
                {
                    "name": "A4",
                    "midi": 69,
                    "time": 78.428337,
                    "velocity": 0.4094488188976378,
                    "duration": 0.11601824999999621
                },
                {
                    "name": "E4",
                    "midi": 64,
                    "time": 78.66037349999999,
                    "velocity": 0.4094488188976378,
                    "duration": 0.11601824999999621
                },
                {
                    "name": "A#4",
                    "midi": 70,
                    "time": 78.66037349999999,
                    "velocity": 0.4094488188976378,
                    "duration": 0.11601824999999621
                },
                {
                    "name": "C5",
                    "midi": 72,
                    "time": 78.66037349999999,
                    "velocity": 0.4094488188976378,
                    "duration": 0.11601824999999621
                },
                {
                    "name": "C5",
                    "midi": 72,
                    "time": 78.89240999999998,
                    "velocity": 0.4094488188976378,
                    "duration": 0.46407299999998486
                },
                {
                    "name": "A4",
                    "midi": 69,
                    "time": 79.00842824999998,
                    "velocity": 0.2677165354330709,
                    "duration": 0.11601824999999621
                },
                {
                    "name": "F4",
                    "midi": 65,
                    "time": 79.12444649999998,
                    "velocity": 0.25984251968503935,
                    "duration": 0.11601824999999621
                },
                {
                    "name": "A4",
                    "midi": 69,
                    "time": 79.24046474999997,
                    "velocity": 0.25984251968503935,
                    "duration": 0.11601824999999621
                },
                {
                    "name": "F5",
                    "midi": 77,
                    "time": 79.35648299999997,
                    "velocity": 0.41732283464566927,
                    "duration": 0.46407299999998486
                },
                {
                    "name": "A4",
                    "midi": 69,
                    "time": 79.47250124999997,
                    "velocity": 0.30708661417322836,
                    "duration": 0.11601824999999621
                },
                {
                    "name": "F4",
                    "midi": 65,
                    "time": 79.58851949999996,
                    "velocity": 0.30708661417322836,
                    "duration": 0.11601824999999621
                },
                {
                    "name": "A4",
                    "midi": 69,
                    "time": 79.70453774999996,
                    "velocity": 0.30708661417322836,
                    "duration": 0.11601824999999621
                },
                {
                    "name": "C5",
                    "midi": 72,
                    "time": 79.82055599999995,
                    "velocity": 0.4094488188976378,
                    "duration": 0.11601824999999621
                },
                {
                    "name": "E5",
                    "midi": 76,
                    "time": 79.82055599999995,
                    "velocity": 0.4094488188976378,
                    "duration": 0.46407299999998486
                },
                {
                    "name": "A4",
                    "midi": 69,
                    "time": 79.93657424999995,
                    "velocity": 0.2992125984251969,
                    "duration": 0.11601824999999621
                },
                {
                    "name": "E4",
                    "midi": 64,
                    "time": 80.05259249999995,
                    "velocity": 0.2992125984251969,
                    "duration": 0.11601824999999621
                },
                {
                    "name": "A4",
                    "midi": 69,
                    "time": 80.16861074999994,
                    "velocity": 0.2992125984251969,
                    "duration": 0.11601824999999621
                },
                {
                    "name": "A#4",
                    "midi": 70,
                    "time": 80.28462899999994,
                    "velocity": 0.4015748031496063,
                    "duration": 0.11601824999999621
                },
                {
                    "name": "D5",
                    "midi": 74,
                    "time": 80.28462899999994,
                    "velocity": 0.4015748031496063,
                    "duration": 0.46407299999998486
                },
                {
                    "name": "F4",
                    "midi": 65,
                    "time": 80.40064724999993,
                    "velocity": 0.2677165354330709,
                    "duration": 0.11601824999999621
                },
                {
                    "name": "D4",
                    "midi": 62,
                    "time": 80.51666549999993,
                    "velocity": 0.2677165354330709,
                    "duration": 0.11601824999999621
                },
                {
                    "name": "F4",
                    "midi": 65,
                    "time": 80.63268374999993,
                    "velocity": 0.2677165354330709,
                    "duration": 0.11601824999999621
                },
                {
                    "name": "A4",
                    "midi": 69,
                    "time": 80.74870199999992,
                    "velocity": 0.4015748031496063,
                    "duration": 0.11601824999999621
                },
                {
                    "name": "D5",
                    "midi": 74,
                    "time": 80.74870199999992,
                    "velocity": 0.4015748031496063,
                    "duration": 0.46407299999998486
                },
                {
                    "name": "F4",
                    "midi": 65,
                    "time": 80.86472024999992,
                    "velocity": 0.2755905511811024,
                    "duration": 0.11601824999999621
                },
                {
                    "name": "D4",
                    "midi": 62,
                    "time": 80.98073849999992,
                    "velocity": 0.2755905511811024,
                    "duration": 0.11601824999999621
                },
                {
                    "name": "F4",
                    "midi": 65,
                    "time": 81.09675674999991,
                    "velocity": 0.2755905511811024,
                    "duration": 0.11601824999999621
                },
                {
                    "name": "A4",
                    "midi": 69,
                    "time": 81.21277499999991,
                    "velocity": 0.3858267716535433,
                    "duration": 0.11601824999999621
                },
                {
                    "name": "C5",
                    "midi": 72,
                    "time": 81.21277499999991,
                    "velocity": 0.3858267716535433,
                    "duration": 0.46407299999998486
                },
                {
                    "name": "F4",
                    "midi": 65,
                    "time": 81.3287932499999,
                    "velocity": 0.2755905511811024,
                    "duration": 0.11601824999999621
                },
                {
                    "name": "C4",
                    "midi": 60,
                    "time": 81.4448114999999,
                    "velocity": 0.2755905511811024,
                    "duration": 0.11601824999999621
                },
                {
                    "name": "F4",
                    "midi": 65,
                    "time": 81.5608297499999,
                    "velocity": 0.2755905511811024,
                    "duration": 0.11601824999999621
                },
                {
                    "name": "A4",
                    "midi": 69,
                    "time": 81.6768479999999,
                    "velocity": 0.3937007874015748,
                    "duration": 0.11601824999999621
                },
                {
                    "name": "C5",
                    "midi": 72,
                    "time": 81.6768479999999,
                    "velocity": 0.3937007874015748,
                    "duration": 0.46407299999998486
                },
                {
                    "name": "E4",
                    "midi": 64,
                    "time": 81.79286624999989,
                    "velocity": 0.28346456692913385,
                    "duration": 0.11601824999999621
                },
                {
                    "name": "C4",
                    "midi": 60,
                    "time": 81.90888449999989,
                    "velocity": 0.28346456692913385,
                    "duration": 0.11601824999999621
                },
                {
                    "name": "E4",
                    "midi": 64,
                    "time": 82.02490274999988,
                    "velocity": 0.28346456692913385,
                    "duration": 0.11601824999999621
                },
                {
                    "name": "G4",
                    "midi": 67,
                    "time": 82.14092099999988,
                    "velocity": 0.3858267716535433,
                    "duration": 0.11601824999999621
                },
                {
                    "name": "A#4",
                    "midi": 70,
                    "time": 82.14092099999988,
                    "velocity": 0.3858267716535433,
                    "duration": 0.46407299999998486
                },
                {
                    "name": "E4",
                    "midi": 64,
                    "time": 82.25693924999987,
                    "velocity": 0.2677165354330709,
                    "duration": 0.11601824999999621
                },
                {
                    "name": "A#3",
                    "midi": 58,
                    "time": 82.37295749999987,
                    "velocity": 0.2677165354330709,
                    "duration": 0.11601824999999621
                },
                {
                    "name": "E4",
                    "midi": 64,
                    "time": 82.48897574999987,
                    "velocity": 0.2677165354330709,
                    "duration": 0.11601824999999621
                },
                {
                    "name": "G4",
                    "midi": 67,
                    "time": 82.60499399999986,
                    "velocity": 0.3937007874015748,
                    "duration": 0.11601824999999621
                },
                {
                    "name": "A#4",
                    "midi": 70,
                    "time": 82.60499399999986,
                    "velocity": 0.3937007874015748,
                    "duration": 0.46407299999998486
                },
                {
                    "name": "D4",
                    "midi": 62,
                    "time": 82.72101224999986,
                    "velocity": 0.2755905511811024,
                    "duration": 0.11601824999999621
                },
                {
                    "name": "A#3",
                    "midi": 58,
                    "time": 82.83703049999986,
                    "velocity": 0.2755905511811024,
                    "duration": 0.11601824999999621
                },
                {
                    "name": "D4",
                    "midi": 62,
                    "time": 82.95304874999985,
                    "velocity": 0.2755905511811024,
                    "duration": 0.11601824999999621
                },
                {
                    "name": "F4",
                    "midi": 65,
                    "time": 83.06906699999985,
                    "velocity": 0.3858267716535433,
                    "duration": 0.11601824999999621
                },
                {
                    "name": "A4",
                    "midi": 69,
                    "time": 83.06906699999985,
                    "velocity": 0.3858267716535433,
                    "duration": 0.46407299999998486
                },
                {
                    "name": "D4",
                    "midi": 62,
                    "time": 83.18508524999984,
                    "velocity": 0.2755905511811024,
                    "duration": 0.11601824999999621
                },
                {
                    "name": "A3",
                    "midi": 57,
                    "time": 83.30110349999984,
                    "velocity": 0.2755905511811024,
                    "duration": 0.11601824999999621
                },
                {
                    "name": "D4",
                    "midi": 62,
                    "time": 83.41712174999984,
                    "velocity": 0.2755905511811024,
                    "duration": 0.11601824999999621
                },
                {
                    "name": "E4",
                    "midi": 64,
                    "time": 83.53313999999983,
                    "velocity": 0.3779527559055118,
                    "duration": 0.11601824999999621
                },
                {
                    "name": "A4",
                    "midi": 69,
                    "time": 83.53313999999983,
                    "velocity": 0.3779527559055118,
                    "duration": 0.46407299999998486
                },
                {
                    "name": "C#4",
                    "midi": 61,
                    "time": 83.64915824999983,
                    "velocity": 0.28346456692913385,
                    "duration": 0.11601824999999621
                },
                {
                    "name": "A3",
                    "midi": 57,
                    "time": 83.76517649999982,
                    "velocity": 0.28346456692913385,
                    "duration": 0.11601824999999621
                },
                {
                    "name": "C#4",
                    "midi": 61,
                    "time": 83.88119474999982,
                    "velocity": 0.28346456692913385,
                    "duration": 0.11601824999999621
                },
                {
                    "name": "G4",
                    "midi": 67,
                    "time": 83.99721299999982,
                    "velocity": 0.3700787401574803,
                    "duration": 0.46407299999998486
                },
                {
                    "name": "E4",
                    "midi": 64,
                    "time": 84.11323124999981,
                    "velocity": 0.2755905511811024,
                    "duration": 0.11601824999999621
                },
                {
                    "name": "A3",
                    "midi": 57,
                    "time": 84.22924949999981,
                    "velocity": 0.2755905511811024,
                    "duration": 0.11601824999999621
                },
                {
                    "name": "E4",
                    "midi": 64,
                    "time": 84.3452677499998,
                    "velocity": 0.2755905511811024,
                    "duration": 0.11601824999999621
                },
                {
                    "name": "G4",
                    "midi": 67,
                    "time": 84.4612859999998,
                    "velocity": 0.3779527559055118,
                    "duration": 0.46407299999998486
                },
                {
                    "name": "E4",
                    "midi": 64,
                    "time": 84.5773042499998,
                    "velocity": 0.2992125984251969,
                    "duration": 0.11601824999999621
                },
                {
                    "name": "A3",
                    "midi": 57,
                    "time": 84.6933224999998,
                    "velocity": 0.33070866141732286,
                    "duration": 0.11601824999999621
                },
                {
                    "name": "E4",
                    "midi": 64,
                    "time": 84.80934074999979,
                    "velocity": 0.3543307086614173,
                    "duration": 0.11601824999999621
                },
                {
                    "name": "F4",
                    "midi": 65,
                    "time": 84.92535899999979,
                    "velocity": 0.4094488188976378,
                    "duration": 0.46407299999998486
                },
                {
                    "name": "D4",
                    "midi": 62,
                    "time": 85.04137724999978,
                    "velocity": 0.30708661417322836,
                    "duration": 0.11601824999999621
                },
                {
                    "name": "A3",
                    "midi": 57,
                    "time": 85.15739549999978,
                    "velocity": 0.30708661417322836,
                    "duration": 0.11601824999999621
                },
                {
                    "name": "D4",
                    "midi": 62,
                    "time": 85.27341374999978,
                    "velocity": 0.30708661417322836,
                    "duration": 0.11601824999999621
                },
                {
                    "name": "E4",
                    "midi": 64,
                    "time": 85.38943199999977,
                    "velocity": 0.3858267716535433,
                    "duration": 0.46407299999999907
                },
                {
                    "name": "D4",
                    "midi": 62,
                    "time": 85.85350499999977,
                    "velocity": 0.3700787401574803,
                    "duration": 0.46407299999999907
                },
                {
                    "name": "E4",
                    "midi": 64,
                    "time": 87.47776049999977,
                    "velocity": 0.4094488188976378,
                    "duration": 0.11601824999999621
                },
                {
                    "name": "G4",
                    "midi": 67,
                    "time": 87.47776049999977,
                    "velocity": 0.4094488188976378,
                    "duration": 0.11601824999999621
                },
                {
                    "name": "C5",
                    "midi": 72,
                    "time": 87.47776049999977,
                    "velocity": 0.4094488188976378,
                    "duration": 0.11601824999999621
                },
                {
                    "name": "E4",
                    "midi": 64,
                    "time": 87.70979699999977,
                    "velocity": 0.4094488188976378,
                    "duration": 0.11601824999999621
                },
                {
                    "name": "A4",
                    "midi": 69,
                    "time": 87.70979699999977,
                    "velocity": 0.4094488188976378,
                    "duration": 0.11601824999999621
                },
                {
                    "name": "C5",
                    "midi": 72,
                    "time": 87.70979699999977,
                    "velocity": 0.4094488188976378,
                    "duration": 0.11601824999999621
                },
                {
                    "name": "E4",
                    "midi": 64,
                    "time": 87.94183349999976,
                    "velocity": 0.4094488188976378,
                    "duration": 0.11601824999999621
                },
                {
                    "name": "A#4",
                    "midi": 70,
                    "time": 87.94183349999976,
                    "velocity": 0.4094488188976378,
                    "duration": 0.11601824999999621
                },
                {
                    "name": "C5",
                    "midi": 72,
                    "time": 87.94183349999976,
                    "velocity": 0.4094488188976378,
                    "duration": 0.11601824999999621
                },
                {
                    "name": "C5",
                    "midi": 72,
                    "time": 88.17386999999975,
                    "velocity": 0.4094488188976378,
                    "duration": 0.46407299999998486
                },
                {
                    "name": "A4",
                    "midi": 69,
                    "time": 88.28988824999975,
                    "velocity": 0.29133858267716534,
                    "duration": 0.11601824999999621
                },
                {
                    "name": "F4",
                    "midi": 65,
                    "time": 88.40590649999974,
                    "velocity": 0.29133858267716534,
                    "duration": 0.11601824999999621
                },
                {
                    "name": "A4",
                    "midi": 69,
                    "time": 88.52192474999974,
                    "velocity": 0.29133858267716534,
                    "duration": 0.11601824999999621
                },
                {
                    "name": "F5",
                    "midi": 77,
                    "time": 88.63794299999974,
                    "velocity": 0.41732283464566927,
                    "duration": 0.46407299999998486
                },
                {
                    "name": "A4",
                    "midi": 69,
                    "time": 88.75396124999973,
                    "velocity": 0.31496062992125984,
                    "duration": 0.11601824999999621
                },
                {
                    "name": "F4",
                    "midi": 65,
                    "time": 88.86997949999973,
                    "velocity": 0.31496062992125984,
                    "duration": 0.11601824999999621
                },
                {
                    "name": "A4",
                    "midi": 69,
                    "time": 88.98599774999973,
                    "velocity": 0.33070866141732286,
                    "duration": 0.11601824999999621
                },
                {
                    "name": "C5",
                    "midi": 72,
                    "time": 89.10201599999972,
                    "velocity": 0.4094488188976378,
                    "duration": 0.11601824999999621
                },
                {
                    "name": "E5",
                    "midi": 76,
                    "time": 89.10201599999972,
                    "velocity": 0.4094488188976378,
                    "duration": 0.46407299999998486
                },
                {
                    "name": "A4",
                    "midi": 69,
                    "time": 89.21803424999972,
                    "velocity": 0.2992125984251969,
                    "duration": 0.11601824999999621
                },
                {
                    "name": "E4",
                    "midi": 64,
                    "time": 89.33405249999971,
                    "velocity": 0.2992125984251969,
                    "duration": 0.11601824999999621
                },
                {
                    "name": "A4",
                    "midi": 69,
                    "time": 89.45007074999971,
                    "velocity": 0.2992125984251969,
                    "duration": 0.11601824999999621
                },
                {
                    "name": "A#4",
                    "midi": 70,
                    "time": 89.5660889999997,
                    "velocity": 0.4015748031496063,
                    "duration": 0.11601824999999621
                },
                {
                    "name": "D5",
                    "midi": 74,
                    "time": 89.5660889999997,
                    "velocity": 0.4015748031496063,
                    "duration": 0.46407299999998486
                },
                {
                    "name": "F4",
                    "midi": 65,
                    "time": 89.6821072499997,
                    "velocity": 0.2677165354330709,
                    "duration": 0.11601824999999621
                },
                {
                    "name": "D4",
                    "midi": 62,
                    "time": 89.7981254999997,
                    "velocity": 0.2677165354330709,
                    "duration": 0.11601824999999621
                },
                {
                    "name": "F4",
                    "midi": 65,
                    "time": 89.9141437499997,
                    "velocity": 0.2677165354330709,
                    "duration": 0.11601824999999621
                },
                {
                    "name": "A4",
                    "midi": 69,
                    "time": 90.03016199999969,
                    "velocity": 0.3779527559055118,
                    "duration": 0.11601824999999621
                },
                {
                    "name": "D5",
                    "midi": 74,
                    "time": 90.03016199999969,
                    "velocity": 0.3779527559055118,
                    "duration": 0.46407299999998486
                },
                {
                    "name": "F4",
                    "midi": 65,
                    "time": 90.14618024999969,
                    "velocity": 0.29133858267716534,
                    "duration": 0.11601824999999621
                },
                {
                    "name": "D4",
                    "midi": 62,
                    "time": 90.26219849999968,
                    "velocity": 0.29133858267716534,
                    "duration": 0.11601824999999621
                },
                {
                    "name": "F4",
                    "midi": 65,
                    "time": 90.37821674999968,
                    "velocity": 0.29133858267716534,
                    "duration": 0.11601824999999621
                },
                {
                    "name": "A4",
                    "midi": 69,
                    "time": 90.49423499999968,
                    "velocity": 0.3858267716535433,
                    "duration": 0.11601824999999621
                },
                {
                    "name": "C5",
                    "midi": 72,
                    "time": 90.49423499999968,
                    "velocity": 0.3858267716535433,
                    "duration": 0.46407299999998486
                },
                {
                    "name": "F4",
                    "midi": 65,
                    "time": 90.61025324999967,
                    "velocity": 0.2755905511811024,
                    "duration": 0.11601824999999621
                },
                {
                    "name": "C4",
                    "midi": 60,
                    "time": 90.72627149999967,
                    "velocity": 0.2755905511811024,
                    "duration": 0.11601824999999621
                },
                {
                    "name": "F4",
                    "midi": 65,
                    "time": 90.84228974999967,
                    "velocity": 0.2755905511811024,
                    "duration": 0.11601824999999621
                },
                {
                    "name": "A4",
                    "midi": 69,
                    "time": 90.95830799999966,
                    "velocity": 0.3858267716535433,
                    "duration": 0.11601824999999621
                },
                {
                    "name": "C5",
                    "midi": 72,
                    "time": 90.95830799999966,
                    "velocity": 0.3858267716535433,
                    "duration": 0.46407299999998486
                },
                {
                    "name": "E4",
                    "midi": 64,
                    "time": 91.07432624999966,
                    "velocity": 0.28346456692913385,
                    "duration": 0.11601824999999621
                },
                {
                    "name": "C4",
                    "midi": 60,
                    "time": 91.19034449999965,
                    "velocity": 0.28346456692913385,
                    "duration": 0.11601824999999621
                },
                {
                    "name": "E4",
                    "midi": 64,
                    "time": 91.30636274999965,
                    "velocity": 0.29133858267716534,
                    "duration": 0.11601824999999621
                },
                {
                    "name": "G4",
                    "midi": 67,
                    "time": 91.42238099999965,
                    "velocity": 0.3858267716535433,
                    "duration": 0.11601824999999621
                },
                {
                    "name": "A#4",
                    "midi": 70,
                    "time": 91.42238099999965,
                    "velocity": 0.3858267716535433,
                    "duration": 0.46407299999998486
                },
                {
                    "name": "E4",
                    "midi": 64,
                    "time": 91.53839924999964,
                    "velocity": 0.2755905511811024,
                    "duration": 0.11601824999999621
                },
                {
                    "name": "A#3",
                    "midi": 58,
                    "time": 91.65441749999964,
                    "velocity": 0.2755905511811024,
                    "duration": 0.11601824999999621
                },
                {
                    "name": "E4",
                    "midi": 64,
                    "time": 91.77043574999963,
                    "velocity": 0.2755905511811024,
                    "duration": 0.11601824999999621
                },
                {
                    "name": "G4",
                    "midi": 67,
                    "time": 91.88645399999963,
                    "velocity": 0.3937007874015748,
                    "duration": 0.11601824999999621
                },
                {
                    "name": "A#4",
                    "midi": 70,
                    "time": 91.88645399999963,
                    "velocity": 0.3937007874015748,
                    "duration": 0.46407299999998486
                },
                {
                    "name": "D4",
                    "midi": 62,
                    "time": 92.00247224999963,
                    "velocity": 0.28346456692913385,
                    "duration": 0.11601824999999621
                },
                {
                    "name": "A#3",
                    "midi": 58,
                    "time": 92.11849049999962,
                    "velocity": 0.28346456692913385,
                    "duration": 0.11601824999999621
                },
                {
                    "name": "D4",
                    "midi": 62,
                    "time": 92.23450874999962,
                    "velocity": 0.28346456692913385,
                    "duration": 0.11601824999999621
                },
                {
                    "name": "F4",
                    "midi": 65,
                    "time": 92.35052699999962,
                    "velocity": 0.3858267716535433,
                    "duration": 0.11601824999999621
                },
                {
                    "name": "A4",
                    "midi": 69,
                    "time": 92.35052699999962,
                    "velocity": 0.3858267716535433,
                    "duration": 0.46407299999998486
                },
                {
                    "name": "D4",
                    "midi": 62,
                    "time": 92.46654524999961,
                    "velocity": 0.28346456692913385,
                    "duration": 0.11601824999999621
                },
                {
                    "name": "A3",
                    "midi": 57,
                    "time": 92.58256349999961,
                    "velocity": 0.28346456692913385,
                    "duration": 0.11601824999999621
                },
                {
                    "name": "D4",
                    "midi": 62,
                    "time": 92.6985817499996,
                    "velocity": 0.28346456692913385,
                    "duration": 0.11601824999999621
                },
                {
                    "name": "E4",
                    "midi": 64,
                    "time": 92.8145999999996,
                    "velocity": 0.3779527559055118,
                    "duration": 0.11601824999999621
                },
                {
                    "name": "A4",
                    "midi": 69,
                    "time": 92.8145999999996,
                    "velocity": 0.3779527559055118,
                    "duration": 0.46407299999998486
                },
                {
                    "name": "C#4",
                    "midi": 61,
                    "time": 92.9306182499996,
                    "velocity": 0.28346456692913385,
                    "duration": 0.11601824999999621
                },
                {
                    "name": "A3",
                    "midi": 57,
                    "time": 93.0466364999996,
                    "velocity": 0.28346456692913385,
                    "duration": 0.11601824999999621
                },
                {
                    "name": "C#4",
                    "midi": 61,
                    "time": 93.16265474999959,
                    "velocity": 0.28346456692913385,
                    "duration": 0.11601824999999621
                },
                {
                    "name": "G4",
                    "midi": 67,
                    "time": 93.27867299999959,
                    "velocity": 0.3700787401574803,
                    "duration": 0.46407299999998486
                },
                {
                    "name": "E4",
                    "midi": 64,
                    "time": 93.39469124999958,
                    "velocity": 0.29133858267716534,
                    "duration": 0.11601824999999621
                },
                {
                    "name": "A3",
                    "midi": 57,
                    "time": 93.51070949999958,
                    "velocity": 0.29133858267716534,
                    "duration": 0.11601824999999621
                },
                {
                    "name": "E4",
                    "midi": 64,
                    "time": 93.62672774999957,
                    "velocity": 0.29133858267716534,
                    "duration": 0.11601824999999621
                },
                {
                    "name": "G4",
                    "midi": 67,
                    "time": 93.74274599999957,
                    "velocity": 0.3779527559055118,
                    "duration": 0.46407299999998486
                },
                {
                    "name": "E4",
                    "midi": 64,
                    "time": 93.85876424999957,
                    "velocity": 0.2992125984251969,
                    "duration": 0.11601824999999621
                },
                {
                    "name": "A3",
                    "midi": 57,
                    "time": 93.97478249999956,
                    "velocity": 0.33070866141732286,
                    "duration": 0.11601824999999621
                },
                {
                    "name": "E4",
                    "midi": 64,
                    "time": 94.09080074999956,
                    "velocity": 0.3543307086614173,
                    "duration": 0.11601824999999621
                },
                {
                    "name": "F#4",
                    "midi": 66,
                    "time": 94.20681899999956,
                    "velocity": 0.4094488188976378,
                    "duration": 0.46407299999998486
                },
                {
                    "name": "D4",
                    "midi": 62,
                    "time": 94.32283724999955,
                    "velocity": 0.33858267716535434,
                    "duration": 0.11601824999999621
                },
                {
                    "name": "A3",
                    "midi": 57,
                    "time": 94.43885549999955,
                    "velocity": 0.3464566929133858,
                    "duration": 0.11601824999999621
                },
                {
                    "name": "D4",
                    "midi": 62,
                    "time": 94.55487374999954,
                    "velocity": 0.3464566929133858,
                    "duration": 0.11601824999999621
                },
                {
                    "name": "E4",
                    "midi": 64,
                    "time": 94.67089199999954,
                    "velocity": 0.3858267716535433,
                    "duration": 0.46407299999998486
                },
                {
                    "name": "D4",
                    "midi": 62,
                    "time": 94.78691024999954,
                    "velocity": 0.31496062992125984,
                    "duration": 0.11601824999999621
                },
                {
                    "name": "B3",
                    "midi": 59,
                    "time": 94.90292849999953,
                    "velocity": 0.2992125984251969,
                    "duration": 0.11601824999999621
                },
                {
                    "name": "D4",
                    "midi": 62,
                    "time": 95.01894674999953,
                    "velocity": 0.28346456692913385,
                    "duration": 0.11601824999999621
                },
                {
                    "name": "F#4",
                    "midi": 66,
                    "time": 95.13496499999953,
                    "velocity": 0.3543307086614173,
                    "duration": 0.46407299999998486
                },
                {
                    "name": "C#4",
                    "midi": 61,
                    "time": 95.25098324999952,
                    "velocity": 0.25984251968503935,
                    "duration": 0.11601824999999621
                },
                {
                    "name": "A3",
                    "midi": 57,
                    "time": 95.36700149999952,
                    "velocity": 0.25984251968503935,
                    "duration": 0.11601824999999621
                },
                {
                    "name": "C#4",
                    "midi": 61,
                    "time": 95.48301974999951,
                    "velocity": 0.25984251968503935,
                    "duration": 0.11601824999999621
                },
                {
                    "name": "D4",
                    "midi": 62,
                    "time": 95.59903799999951,
                    "velocity": 0.33858267716535434,
                    "duration": 0.46407299999998486
                },
                {
                    "name": "A3",
                    "midi": 57,
                    "time": 95.7150562499995,
                    "velocity": 0.2755905511811024,
                    "duration": 0.11601824999999621
                },
                {
                    "name": "F#3",
                    "midi": 54,
                    "time": 95.8310744999995,
                    "velocity": 0.2755905511811024,
                    "duration": 0.11601824999999621
                },
                {
                    "name": "A3",
                    "midi": 57,
                    "time": 95.9470927499995,
                    "velocity": 0.2755905511811024,
                    "duration": 0.11601824999999621
                },
                {
                    "name": "E4",
                    "midi": 64,
                    "time": 96.0631109999995,
                    "velocity": 0.3858267716535433,
                    "duration": 0.46407299999998486
                },
                {
                    "name": "B3",
                    "midi": 59,
                    "time": 96.17912924999949,
                    "velocity": 0.2755905511811024,
                    "duration": 0.11601824999999621
                },
                {
                    "name": "G3",
                    "midi": 55,
                    "time": 96.29514749999949,
                    "velocity": 0.2755905511811024,
                    "duration": 0.11601824999999621
                },
                {
                    "name": "B3",
                    "midi": 59,
                    "time": 96.41116574999948,
                    "velocity": 0.2755905511811024,
                    "duration": 0.11601824999999621
                },
                {
                    "name": "F#4",
                    "midi": 66,
                    "time": 96.52718399999948,
                    "velocity": 0.3858267716535433,
                    "duration": 0.46407299999998486
                },
                {
                    "name": "C4",
                    "midi": 60,
                    "time": 96.64320224999948,
                    "velocity": 0.2755905511811024,
                    "duration": 0.11601824999999621
                },
                {
                    "name": "A3",
                    "midi": 57,
                    "time": 96.75922049999947,
                    "velocity": 0.28346456692913385,
                    "duration": 0.11601824999999621
                },
                {
                    "name": "C4",
                    "midi": 60,
                    "time": 96.87523874999947,
                    "velocity": 0.28346456692913385,
                    "duration": 0.11601824999999621
                },
                {
                    "name": "F#4",
                    "midi": 66,
                    "time": 96.99125699999946,
                    "velocity": 0.4094488188976378,
                    "duration": 0.46407299999998486
                },
                {
                    "name": "C4",
                    "midi": 60,
                    "time": 97.10727524999946,
                    "velocity": 0.2992125984251969,
                    "duration": 0.11601824999999621
                },
                {
                    "name": "A3",
                    "midi": 57,
                    "time": 97.22329349999946,
                    "velocity": 0.2992125984251969,
                    "duration": 0.11601824999999621
                },
                {
                    "name": "C4",
                    "midi": 60,
                    "time": 97.33931174999945,
                    "velocity": 0.30708661417322836,
                    "duration": 0.11601824999999621
                },
                {
                    "name": "F#4",
                    "midi": 66,
                    "time": 97.45532999999945,
                    "velocity": 0.4409448818897638,
                    "duration": 0.46407299999998486
                },
                {
                    "name": "C4",
                    "midi": 60,
                    "time": 97.57134824999945,
                    "velocity": 0.30708661417322836,
                    "duration": 0.11601824999999621
                },
                {
                    "name": "A3",
                    "midi": 57,
                    "time": 97.68736649999944,
                    "velocity": 0.30708661417322836,
                    "duration": 0.11601824999999621
                },
                {
                    "name": "C4",
                    "midi": 60,
                    "time": 97.80338474999944,
                    "velocity": 0.2992125984251969,
                    "duration": 0.11601824999999621
                },
                {
                    "name": "G4",
                    "midi": 67,
                    "time": 97.91940299999943,
                    "velocity": 0.4094488188976378,
                    "duration": 0.46407299999998486
                },
                {
                    "name": "D4",
                    "midi": 62,
                    "time": 98.03542124999943,
                    "velocity": 0.29133858267716534,
                    "duration": 0.11601824999999621
                },
                {
                    "name": "B3",
                    "midi": 59,
                    "time": 98.15143949999943,
                    "velocity": 0.28346456692913385,
                    "duration": 0.11601824999999621
                },
                {
                    "name": "D4",
                    "midi": 62,
                    "time": 98.26745774999942,
                    "velocity": 0.2755905511811024,
                    "duration": 0.11601824999999621
                },
                {
                    "name": "F#4",
                    "midi": 66,
                    "time": 98.38347599999942,
                    "velocity": 0.3858267716535433,
                    "duration": 0.46407299999998486
                },
                {
                    "name": "D4",
                    "midi": 62,
                    "time": 98.49949424999942,
                    "velocity": 0.2755905511811024,
                    "duration": 0.11601824999999621
                },
                {
                    "name": "A3",
                    "midi": 57,
                    "time": 98.61551249999941,
                    "velocity": 0.2755905511811024,
                    "duration": 0.11601824999999621
                },
                {
                    "name": "D4",
                    "midi": 62,
                    "time": 98.73153074999941,
                    "velocity": 0.2755905511811024,
                    "duration": 0.11601824999999621
                },
                {
                    "name": "E4",
                    "midi": 64,
                    "time": 98.8475489999994,
                    "velocity": 0.3858267716535433,
                    "duration": 0.46407299999998486
                },
                {
                    "name": "C#4",
                    "midi": 61,
                    "time": 98.9635672499994,
                    "velocity": 0.2755905511811024,
                    "duration": 0.11601824999999621
                },
                {
                    "name": "A3",
                    "midi": 57,
                    "time": 99.0795854999994,
                    "velocity": 0.2755905511811024,
                    "duration": 0.11601824999999621
                },
                {
                    "name": "C#4",
                    "midi": 61,
                    "time": 99.19560374999939,
                    "velocity": 0.2755905511811024,
                    "duration": 0.11601824999999621
                },
                {
                    "name": "F#4",
                    "midi": 66,
                    "time": 99.31162199999939,
                    "velocity": 0.3700787401574803,
                    "duration": 0.46407299999998486
                },
                {
                    "name": "D4",
                    "midi": 62,
                    "time": 99.42764024999938,
                    "velocity": 0.2755905511811024,
                    "duration": 0.11601824999999621
                },
                {
                    "name": "C4",
                    "midi": 60,
                    "time": 99.54365849999938,
                    "velocity": 0.2755905511811024,
                    "duration": 0.11601824999999621
                },
                {
                    "name": "D4",
                    "midi": 62,
                    "time": 99.65967674999938,
                    "velocity": 0.2755905511811024,
                    "duration": 0.11601824999999621
                },
                {
                    "name": "G4",
                    "midi": 67,
                    "time": 99.77569499999937,
                    "velocity": 0.3858267716535433,
                    "duration": 0.46407299999998486
                },
                {
                    "name": "E4",
                    "midi": 64,
                    "time": 99.89171324999937,
                    "velocity": 0.2755905511811024,
                    "duration": 0.11601824999999621
                },
                {
                    "name": "C4",
                    "midi": 60,
                    "time": 100.00773149999937,
                    "velocity": 0.2755905511811024,
                    "duration": 0.11601824999999621
                },
                {
                    "name": "E4",
                    "midi": 64,
                    "time": 100.12374974999936,
                    "velocity": 0.2755905511811024,
                    "duration": 0.11601824999999621
                },
                {
                    "name": "A4",
                    "midi": 69,
                    "time": 100.23976799999936,
                    "velocity": 0.3858267716535433,
                    "duration": 0.46407299999998486
                },
                {
                    "name": "F#4",
                    "midi": 66,
                    "time": 100.35578624999935,
                    "velocity": 0.2755905511811024,
                    "duration": 0.11601824999999621
                },
                {
                    "name": "C4",
                    "midi": 60,
                    "time": 100.47180449999935,
                    "velocity": 0.28346456692913385,
                    "duration": 0.11601824999999621
                },
                {
                    "name": "F#4",
                    "midi": 66,
                    "time": 100.58782274999935,
                    "velocity": 0.28346456692913385,
                    "duration": 0.11601824999999621
                },
                {
                    "name": "A4",
                    "midi": 69,
                    "time": 100.70384099999934,
                    "velocity": 0.4094488188976378,
                    "duration": 0.46407299999998486
                },
                {
                    "name": "F#4",
                    "midi": 66,
                    "time": 100.81985924999934,
                    "velocity": 0.2992125984251969,
                    "duration": 0.11601824999999621
                },
                {
                    "name": "C4",
                    "midi": 60,
                    "time": 100.93587749999934,
                    "velocity": 0.2992125984251969,
                    "duration": 0.11601824999999621
                },
                {
                    "name": "F#4",
                    "midi": 66,
                    "time": 101.05189574999933,
                    "velocity": 0.30708661417322836,
                    "duration": 0.11601824999999621
                },
                {
                    "name": "A4",
                    "midi": 69,
                    "time": 101.16791399999933,
                    "velocity": 0.4409448818897638,
                    "duration": 0.46407299999998486
                },
                {
                    "name": "F#4",
                    "midi": 66,
                    "time": 101.28393224999932,
                    "velocity": 0.30708661417322836,
                    "duration": 0.11601824999999621
                },
                {
                    "name": "C4",
                    "midi": 60,
                    "time": 101.39995049999932,
                    "velocity": 0.30708661417322836,
                    "duration": 0.11601824999999621
                },
                {
                    "name": "F#4",
                    "midi": 66,
                    "time": 101.51596874999932,
                    "velocity": 0.2992125984251969,
                    "duration": 0.11601824999999621
                },
                {
                    "name": "B4",
                    "midi": 71,
                    "time": 101.63198699999931,
                    "velocity": 0.4094488188976378,
                    "duration": 0.46407299999998486
                },
                {
                    "name": "G4",
                    "midi": 67,
                    "time": 101.74800524999931,
                    "velocity": 0.29133858267716534,
                    "duration": 0.11601824999999621
                },
                {
                    "name": "B3",
                    "midi": 59,
                    "time": 101.8640234999993,
                    "velocity": 0.28346456692913385,
                    "duration": 0.11601824999999621
                },
                {
                    "name": "G4",
                    "midi": 67,
                    "time": 101.9800417499993,
                    "velocity": 0.2755905511811024,
                    "duration": 0.11601824999999621
                },
                {
                    "name": "A4",
                    "midi": 69,
                    "time": 102.0960599999993,
                    "velocity": 0.3858267716535433,
                    "duration": 0.46407299999998486
                },
                {
                    "name": "F#4",
                    "midi": 66,
                    "time": 102.2120782499993,
                    "velocity": 0.2755905511811024,
                    "duration": 0.11601824999999621
                },
                {
                    "name": "D4",
                    "midi": 62,
                    "time": 102.32809649999929,
                    "velocity": 0.2755905511811024,
                    "duration": 0.11601824999999621
                },
                {
                    "name": "F#4",
                    "midi": 66,
                    "time": 102.44411474999929,
                    "velocity": 0.2755905511811024,
                    "duration": 0.11601824999999621
                },
                {
                    "name": "A4",
                    "midi": 69,
                    "time": 102.56013299999928,
                    "velocity": 0.3858267716535433,
                    "duration": 0.46407299999998486
                },
                {
                    "name": "E4",
                    "midi": 64,
                    "time": 102.67615124999928,
                    "velocity": 0.2755905511811024,
                    "duration": 0.11601824999999621
                },
                {
                    "name": "C#4",
                    "midi": 61,
                    "time": 102.79216949999928,
                    "velocity": 0.2755905511811024,
                    "duration": 0.11601824999999621
                },
                {
                    "name": "E4",
                    "midi": 64,
                    "time": 102.90818774999927,
                    "velocity": 0.2755905511811024,
                    "duration": 0.11601824999999621
                },
                {
                    "name": "A4",
                    "midi": 69,
                    "time": 103.02420599999927,
                    "velocity": 0.33070866141732286,
                    "duration": 0.46407299999998486
                },
                {
                    "name": "F#4",
                    "midi": 66,
                    "time": 103.14022424999926,
                    "velocity": 0.2440944881889764,
                    "duration": 0.11601824999999621
                },
                {
                    "name": "D4",
                    "midi": 62,
                    "time": 103.25624249999926,
                    "velocity": 0.2440944881889764,
                    "duration": 0.11601824999999621
                },
                {
                    "name": "F#4",
                    "midi": 66,
                    "time": 103.37226074999926,
                    "velocity": 0.2440944881889764,
                    "duration": 0.11601824999999621
                },
                {
                    "name": "D5",
                    "midi": 74,
                    "time": 103.48827899999925,
                    "velocity": 0.30708661417322836,
                    "duration": 0.46407299999998486
                },
                {
                    "name": "A4",
                    "midi": 69,
                    "time": 103.60429724999925,
                    "velocity": 0.2440944881889764,
                    "duration": 0.11601824999999621
                },
                {
                    "name": "D4",
                    "midi": 62,
                    "time": 103.72031549999924,
                    "velocity": 0.2440944881889764,
                    "duration": 0.11601824999999621
                },
                {
                    "name": "A4",
                    "midi": 69,
                    "time": 103.83633374999924,
                    "velocity": 0.2440944881889764,
                    "duration": 0.11601824999999621
                },
                {
                    "name": "C#5",
                    "midi": 73,
                    "time": 103.95235199999924,
                    "velocity": 0.3464566929133858,
                    "duration": 0.46407299999998486
                },
                {
                    "name": "A4",
                    "midi": 69,
                    "time": 104.06837024999923,
                    "velocity": 0.2440944881889764,
                    "duration": 0.11601824999999621
                },
                {
                    "name": "E4",
                    "midi": 64,
                    "time": 104.18438849999923,
                    "velocity": 0.25196850393700787,
                    "duration": 0.11601824999999621
                },
                {
                    "name": "A4",
                    "midi": 69,
                    "time": 104.30040674999923,
                    "velocity": 0.25196850393700787,
                    "duration": 0.11601824999999621
                },
                {
                    "name": "E5",
                    "midi": 76,
                    "time": 104.41642499999922,
                    "velocity": 0.31496062992125984,
                    "duration": 0.46407299999998486
                },
                {
                    "name": "A4",
                    "midi": 69,
                    "time": 104.53244324999922,
                    "velocity": 0.2677165354330709,
                    "duration": 0.11601824999999621
                },
                {
                    "name": "E4",
                    "midi": 64,
                    "time": 104.64846149999921,
                    "velocity": 0.25984251968503935,
                    "duration": 0.11601824999999621
                },
                {
                    "name": "A4",
                    "midi": 69,
                    "time": 104.76447974999921,
                    "velocity": 0.25984251968503935,
                    "duration": 0.11601824999999621
                },
                {
                    "name": "A4",
                    "midi": 69,
                    "time": 104.8804979999992,
                    "velocity": 0.30708661417322836,
                    "duration": 0.46407299999998486
                },
                {
                    "name": "F#4",
                    "midi": 66,
                    "time": 104.9965162499992,
                    "velocity": 0.25196850393700787,
                    "duration": 0.11601824999999621
                },
                {
                    "name": "D4",
                    "midi": 62,
                    "time": 105.1125344999992,
                    "velocity": 0.25196850393700787,
                    "duration": 0.11601824999999621
                },
                {
                    "name": "F#4",
                    "midi": 66,
                    "time": 105.2285527499992,
                    "velocity": 0.25196850393700787,
                    "duration": 0.11601824999999621
                },
                {
                    "name": "B4",
                    "midi": 71,
                    "time": 105.34457099999919,
                    "velocity": 0.30708661417322836,
                    "duration": 0.46407299999998486
                },
                {
                    "name": "G4",
                    "midi": 67,
                    "time": 105.46058924999919,
                    "velocity": 0.2440944881889764,
                    "duration": 0.11601824999999621
                },
                {
                    "name": "D4",
                    "midi": 62,
                    "time": 105.57660749999918,
                    "velocity": 0.2440944881889764,
                    "duration": 0.11601824999999621
                },
                {
                    "name": "G4",
                    "midi": 67,
                    "time": 105.69262574999918,
                    "velocity": 0.2440944881889764,
                    "duration": 0.11601824999999621
                },
                {
                    "name": "A4",
                    "midi": 69,
                    "time": 105.80864399999918,
                    "velocity": 0.31496062992125984,
                    "duration": 0.46407299999998486
                },
                {
                    "name": "G4",
                    "midi": 67,
                    "time": 105.92466224999917,
                    "velocity": 0.2440944881889764,
                    "duration": 0.11601824999999621
                },
                {
                    "name": "E4",
                    "midi": 64,
                    "time": 106.04068049999917,
                    "velocity": 0.2440944881889764,
                    "duration": 0.11601824999999621
                },
                {
                    "name": "G4",
                    "midi": 67,
                    "time": 106.15669874999917,
                    "velocity": 0.2440944881889764,
                    "duration": 0.11601824999999621
                },
                {
                    "name": "A4",
                    "midi": 69,
                    "time": 106.27271699999916,
                    "velocity": 0.2992125984251969,
                    "duration": 0.46407299999998486
                },
                {
                    "name": "G4",
                    "midi": 67,
                    "time": 106.38873524999916,
                    "velocity": 0.2440944881889764,
                    "duration": 0.11601824999999621
                },
                {
                    "name": "C#4",
                    "midi": 61,
                    "time": 106.50475349999915,
                    "velocity": 0.2440944881889764,
                    "duration": 0.11601824999999621
                },
                {
                    "name": "G4",
                    "midi": 67,
                    "time": 106.62077174999915,
                    "velocity": 0.2440944881889764,
                    "duration": 0.11601824999999621
                },
                {
                    "name": "A4",
                    "midi": 69,
                    "time": 106.73678999999915,
                    "velocity": 0.33070866141732286,
                    "duration": 0.46407299999998486
                },
                {
                    "name": "F#4",
                    "midi": 66,
                    "time": 106.85280824999914,
                    "velocity": 0.2440944881889764,
                    "duration": 0.11601824999999621
                },
                {
                    "name": "D4",
                    "midi": 62,
                    "time": 106.96882649999914,
                    "velocity": 0.2440944881889764,
                    "duration": 0.11601824999999621
                },
                {
                    "name": "F#4",
                    "midi": 66,
                    "time": 107.08484474999914,
                    "velocity": 0.2440944881889764,
                    "duration": 0.11601824999999621
                },
                {
                    "name": "D5",
                    "midi": 74,
                    "time": 107.20086299999913,
                    "velocity": 0.30708661417322836,
                    "duration": 0.46407299999998486
                },
                {
                    "name": "A4",
                    "midi": 69,
                    "time": 107.31688124999913,
                    "velocity": 0.2440944881889764,
                    "duration": 0.11601824999999621
                },
                {
                    "name": "D4",
                    "midi": 62,
                    "time": 107.43289949999912,
                    "velocity": 0.2440944881889764,
                    "duration": 0.11601824999999621
                },
                {
                    "name": "A4",
                    "midi": 69,
                    "time": 107.54891774999912,
                    "velocity": 0.2440944881889764,
                    "duration": 0.11601824999999621
                },
                {
                    "name": "C#5",
                    "midi": 73,
                    "time": 107.66493599999912,
                    "velocity": 0.3464566929133858,
                    "duration": 0.46407299999998486
                },
                {
                    "name": "A4",
                    "midi": 69,
                    "time": 107.78095424999911,
                    "velocity": 0.2440944881889764,
                    "duration": 0.11601824999999621
                },
                {
                    "name": "E4",
                    "midi": 64,
                    "time": 107.89697249999911,
                    "velocity": 0.25196850393700787,
                    "duration": 0.11601824999999621
                },
                {
                    "name": "A4",
                    "midi": 69,
                    "time": 108.0129907499991,
                    "velocity": 0.25196850393700787,
                    "duration": 0.11601824999999621
                },
                {
                    "name": "E5",
                    "midi": 76,
                    "time": 108.1290089999991,
                    "velocity": 0.31496062992125984,
                    "duration": 0.46407299999998486
                },
                {
                    "name": "A4",
                    "midi": 69,
                    "time": 108.2450272499991,
                    "velocity": 0.2677165354330709,
                    "duration": 0.11601824999999621
                },
                {
                    "name": "E4",
                    "midi": 64,
                    "time": 108.3610454999991,
                    "velocity": 0.25984251968503935,
                    "duration": 0.11601824999999621
                },
                {
                    "name": "A4",
                    "midi": 69,
                    "time": 108.47706374999909,
                    "velocity": 0.25984251968503935,
                    "duration": 0.11601824999999621
                },
                {
                    "name": "A4",
                    "midi": 69,
                    "time": 108.59308199999909,
                    "velocity": 0.31496062992125984,
                    "duration": 0.46407299999998486
                },
                {
                    "name": "F#4",
                    "midi": 66,
                    "time": 108.70910024999908,
                    "velocity": 0.25196850393700787,
                    "duration": 0.11601824999999621
                },
                {
                    "name": "D4",
                    "midi": 62,
                    "time": 108.82511849999908,
                    "velocity": 0.25196850393700787,
                    "duration": 0.11601824999999621
                },
                {
                    "name": "F#4",
                    "midi": 66,
                    "time": 108.94113674999907,
                    "velocity": 0.25196850393700787,
                    "duration": 0.11601824999999621
                },
                {
                    "name": "A#4",
                    "midi": 70,
                    "time": 109.05715499999907,
                    "velocity": 0.30708661417322836,
                    "duration": 0.46407299999998486
                },
                {
                    "name": "G4",
                    "midi": 67,
                    "time": 109.17317324999907,
                    "velocity": 0.2440944881889764,
                    "duration": 0.11601824999999621
                },
                {
                    "name": "D4",
                    "midi": 62,
                    "time": 109.28919149999906,
                    "velocity": 0.2440944881889764,
                    "duration": 0.11601824999999621
                },
                {
                    "name": "G4",
                    "midi": 67,
                    "time": 109.40520974999906,
                    "velocity": 0.2440944881889764,
                    "duration": 0.11601824999999621
                },
                {
                    "name": "A4",
                    "midi": 69,
                    "time": 109.52122799999906,
                    "velocity": 0.30708661417322836,
                    "duration": 0.46407299999998486
                },
                {
                    "name": "G4",
                    "midi": 67,
                    "time": 109.63724624999905,
                    "velocity": 0.2440944881889764,
                    "duration": 0.11601824999999621
                },
                {
                    "name": "E4",
                    "midi": 64,
                    "time": 109.75326449999905,
                    "velocity": 0.2440944881889764,
                    "duration": 0.11601824999999621
                },
                {
                    "name": "G4",
                    "midi": 67,
                    "time": 109.86928274999904,
                    "velocity": 0.2440944881889764,
                    "duration": 0.11601824999999621
                },
                {
                    "name": "A4",
                    "midi": 69,
                    "time": 109.98530099999904,
                    "velocity": 0.2992125984251969,
                    "duration": 0.46407299999998486
                },
                {
                    "name": "G4",
                    "midi": 67,
                    "time": 110.10131924999904,
                    "velocity": 0.2440944881889764,
                    "duration": 0.11601824999999621
                },
                {
                    "name": "C#4",
                    "midi": 61,
                    "time": 110.21733749999903,
                    "velocity": 0.2440944881889764,
                    "duration": 0.11601824999999621
                },
                {
                    "name": "G4",
                    "midi": 67,
                    "time": 110.33335574999903,
                    "velocity": 0.2440944881889764,
                    "duration": 0.11601824999999621
                },
                {
                    "name": "A4",
                    "midi": 69,
                    "time": 110.44937399999903,
                    "velocity": 0.3464566929133858,
                    "duration": 0.46407299999998486
                },
                {
                    "name": "F#4",
                    "midi": 66,
                    "time": 110.56539224999902,
                    "velocity": 0.2440944881889764,
                    "duration": 0.11601824999999621
                },
                {
                    "name": "D4",
                    "midi": 62,
                    "time": 110.68141049999902,
                    "velocity": 0.2440944881889764,
                    "duration": 0.11601824999999621
                },
                {
                    "name": "F#4",
                    "midi": 66,
                    "time": 110.79742874999901,
                    "velocity": 0.2440944881889764,
                    "duration": 0.11601824999999621
                },
                {
                    "name": "A#4",
                    "midi": 70,
                    "time": 110.91344699999901,
                    "velocity": 0.29133858267716534,
                    "duration": 0.46407299999998486
                },
                {
                    "name": "G4",
                    "midi": 67,
                    "time": 111.029465249999,
                    "velocity": 0.2283464566929134,
                    "duration": 0.11601824999999621
                },
                {
                    "name": "D4",
                    "midi": 62,
                    "time": 111.145483499999,
                    "velocity": 0.2204724409448819,
                    "duration": 0.11601824999999621
                },
                {
                    "name": "G4",
                    "midi": 67,
                    "time": 111.261501749999,
                    "velocity": 0.2204724409448819,
                    "duration": 0.11601824999999621
                },
                {
                    "name": "A4",
                    "midi": 69,
                    "time": 111.377519999999,
                    "velocity": 0.28346456692913385,
                    "duration": 0.46407299999998486
                },
                {
                    "name": "G4",
                    "midi": 67,
                    "time": 111.49353824999899,
                    "velocity": 0.2204724409448819,
                    "duration": 0.11601824999999621
                },
                {
                    "name": "E4",
                    "midi": 64,
                    "time": 111.60955649999899,
                    "velocity": 0.2204724409448819,
                    "duration": 0.11601824999999621
                },
                {
                    "name": "G4",
                    "midi": 67,
                    "time": 111.72557474999898,
                    "velocity": 0.2204724409448819,
                    "duration": 0.11601824999999621
                },
                {
                    "name": "A4",
                    "midi": 69,
                    "time": 111.84159299999898,
                    "velocity": 0.2677165354330709,
                    "duration": 0.46407299999998486
                },
                {
                    "name": "G4",
                    "midi": 67,
                    "time": 111.95761124999898,
                    "velocity": 0.2204724409448819,
                    "duration": 0.11601824999999621
                },
                {
                    "name": "C#4",
                    "midi": 61,
                    "time": 112.07362949999897,
                    "velocity": 0.2204724409448819,
                    "duration": 0.11601824999999621
                },
                {
                    "name": "G4",
                    "midi": 67,
                    "time": 112.18964774999897,
                    "velocity": 0.2204724409448819,
                    "duration": 0.11601824999999621
                },
                {
                    "name": "A4",
                    "midi": 69,
                    "time": 112.30566599999896,
                    "velocity": 0.28346456692913385,
                    "duration": 0.46407299999998486
                },
                {
                    "name": "F4",
                    "midi": 65,
                    "time": 112.42168424999896,
                    "velocity": 0.2204724409448819,
                    "duration": 0.11601824999999621
                },
                {
                    "name": "D4",
                    "midi": 62,
                    "time": 112.53770249999896,
                    "velocity": 0.2204724409448819,
                    "duration": 0.11601824999999621
                },
                {
                    "name": "F4",
                    "midi": 65,
                    "time": 112.65372074999895,
                    "velocity": 0.2204724409448819,
                    "duration": 0.11601824999999621
                },
                {
                    "name": "A4",
                    "midi": 69,
                    "time": 112.76973899999895,
                    "velocity": 0.2677165354330709,
                    "duration": 0.46407299999998486
                },
                {
                    "name": "F4",
                    "midi": 65,
                    "time": 112.88575724999895,
                    "velocity": 0.2204724409448819,
                    "duration": 0.11601824999999621
                },
                {
                    "name": "C4",
                    "midi": 60,
                    "time": 113.00177549999894,
                    "velocity": 0.2204724409448819,
                    "duration": 0.11601824999999621
                },
                {
                    "name": "F4",
                    "midi": 65,
                    "time": 113.11779374999894,
                    "velocity": 0.2204724409448819,
                    "duration": 0.11601824999999621
                },
                {
                    "name": "A4",
                    "midi": 69,
                    "time": 113.23381199999893,
                    "velocity": 0.28346456692913385,
                    "duration": 0.46407299999998486
                },
                {
                    "name": "E4",
                    "midi": 64,
                    "time": 113.34983024999893,
                    "velocity": 0.2204724409448819,
                    "duration": 0.11601824999999621
                },
                {
                    "name": "C4",
                    "midi": 60,
                    "time": 113.46584849999893,
                    "velocity": 0.2204724409448819,
                    "duration": 0.11601824999999621
                },
                {
                    "name": "E4",
                    "midi": 64,
                    "time": 113.58186674999892,
                    "velocity": 0.2204724409448819,
                    "duration": 0.11601824999999621
                },
                {
                    "name": "G4",
                    "midi": 67,
                    "time": 113.69788499999892,
                    "velocity": 0.2677165354330709,
                    "duration": 0.46407299999998486
                },
                {
                    "name": "E4",
                    "midi": 64,
                    "time": 113.81390324999892,
                    "velocity": 0.2204724409448819,
                    "duration": 0.11601824999999621
                },
                {
                    "name": "C4",
                    "midi": 60,
                    "time": 113.92992149999891,
                    "velocity": 0.2204724409448819,
                    "duration": 0.11601824999999621
                },
                {
                    "name": "E4",
                    "midi": 64,
                    "time": 114.04593974999891,
                    "velocity": 0.2204724409448819,
                    "duration": 0.11601824999999621
                },
                {
                    "name": "G4",
                    "midi": 67,
                    "time": 114.1619579999989,
                    "velocity": 0.28346456692913385,
                    "duration": 0.46407299999998486
                },
                {
                    "name": "D#4",
                    "midi": 63,
                    "time": 114.2779762499989,
                    "velocity": 0.2204724409448819,
                    "duration": 0.11601824999999621
                },
                {
                    "name": "C4",
                    "midi": 60,
                    "time": 114.3939944999989,
                    "velocity": 0.2204724409448819,
                    "duration": 0.11601824999999621
                },
                {
                    "name": "D#4",
                    "midi": 63,
                    "time": 114.5100127499989,
                    "velocity": 0.2204724409448819,
                    "duration": 0.11601824999999621
                },
                {
                    "name": "G4",
                    "midi": 67,
                    "time": 114.62603099999889,
                    "velocity": 0.2677165354330709,
                    "duration": 0.46407299999998486
                },
                {
                    "name": "D#4",
                    "midi": 63,
                    "time": 114.74204924999889,
                    "velocity": 0.2204724409448819,
                    "duration": 0.11601824999999621
                },
                {
                    "name": "A#3",
                    "midi": 58,
                    "time": 114.85806749999888,
                    "velocity": 0.2204724409448819,
                    "duration": 0.11601824999999621
                },
                {
                    "name": "D#4",
                    "midi": 63,
                    "time": 114.97408574999888,
                    "velocity": 0.2204724409448819,
                    "duration": 0.11601824999999621
                },
                {
                    "name": "G4",
                    "midi": 67,
                    "time": 115.09010399999887,
                    "velocity": 0.28346456692913385,
                    "duration": 0.46407299999998486
                },
                {
                    "name": "D4",
                    "midi": 62,
                    "time": 115.20612224999887,
                    "velocity": 0.2204724409448819,
                    "duration": 0.11601824999999621
                },
                {
                    "name": "A#3",
                    "midi": 58,
                    "time": 115.32214049999887,
                    "velocity": 0.2204724409448819,
                    "duration": 0.11601824999999621
                },
                {
                    "name": "D4",
                    "midi": 62,
                    "time": 115.43815874999886,
                    "velocity": 0.2204724409448819,
                    "duration": 0.11601824999999621
                },
                {
                    "name": "F4",
                    "midi": 65,
                    "time": 115.55417699999886,
                    "velocity": 0.2677165354330709,
                    "duration": 0.46407299999998486
                },
                {
                    "name": "D4",
                    "midi": 62,
                    "time": 115.67019524999886,
                    "velocity": 0.2204724409448819,
                    "duration": 0.11601824999999621
                },
                {
                    "name": "A#3",
                    "midi": 58,
                    "time": 115.78621349999885,
                    "velocity": 0.2204724409448819,
                    "duration": 0.11601824999999621
                },
                {
                    "name": "D4",
                    "midi": 62,
                    "time": 115.90223174999885,
                    "velocity": 0.2204724409448819,
                    "duration": 0.11601824999999621
                },
                {
                    "name": "F4",
                    "midi": 65,
                    "time": 116.01824999999884,
                    "velocity": 0.33070866141732286,
                    "duration": 0.46407299999998486
                },
                {
                    "name": "D4",
                    "midi": 62,
                    "time": 116.13426824999884,
                    "velocity": 0.25196850393700787,
                    "duration": 0.11601824999999621
                },
                {
                    "name": "A#3",
                    "midi": 58,
                    "time": 116.25028649999884,
                    "velocity": 0.25196850393700787,
                    "duration": 0.11601824999999621
                },
                {
                    "name": "D4",
                    "midi": 62,
                    "time": 116.36630474999883,
                    "velocity": 0.25196850393700787,
                    "duration": 0.11601824999999621
                },
                {
                    "name": "F4",
                    "midi": 65,
                    "time": 116.48232299999883,
                    "velocity": 0.30708661417322836,
                    "duration": 0.46407299999998486
                },
                {
                    "name": "D4",
                    "midi": 62,
                    "time": 116.59834124999882,
                    "velocity": 0.25984251968503935,
                    "duration": 0.11601824999999621
                },
                {
                    "name": "A3",
                    "midi": 57,
                    "time": 116.71435949999882,
                    "velocity": 0.25984251968503935,
                    "duration": 0.11601824999999621
                },
                {
                    "name": "D4",
                    "midi": 62,
                    "time": 116.83037774999882,
                    "velocity": 0.25984251968503935,
                    "duration": 0.11601824999999621
                },
                {
                    "name": "F4",
                    "midi": 65,
                    "time": 116.94639599999881,
                    "velocity": 0.3464566929133858,
                    "duration": 0.46407299999998486
                },
                {
                    "name": "C4",
                    "midi": 60,
                    "time": 117.06241424999881,
                    "velocity": 0.2677165354330709,
                    "duration": 0.11601824999999621
                },
                {
                    "name": "A3",
                    "midi": 57,
                    "time": 117.1784324999988,
                    "velocity": 0.2677165354330709,
                    "duration": 0.11601824999999621
                },
                {
                    "name": "C4",
                    "midi": 60,
                    "time": 117.2944507499988,
                    "velocity": 0.2677165354330709,
                    "duration": 0.11601824999999621
                },
                {
                    "name": "E4",
                    "midi": 64,
                    "time": 117.4104689999988,
                    "velocity": 0.33858267716535434,
                    "duration": 0.46407299999998486
                },
                {
                    "name": "C4",
                    "midi": 60,
                    "time": 117.5264872499988,
                    "velocity": 0.2755905511811024,
                    "duration": 0.11601824999999621
                },
                {
                    "name": "A3",
                    "midi": 57,
                    "time": 117.64250549999879,
                    "velocity": 0.2755905511811024,
                    "duration": 0.11601824999999621
                },
                {
                    "name": "C4",
                    "midi": 60,
                    "time": 117.75852374999879,
                    "velocity": 0.2755905511811024,
                    "duration": 0.11601824999999621
                },
                {
                    "name": "E4",
                    "midi": 64,
                    "time": 117.87454199999878,
                    "velocity": 0.36220472440944884,
                    "duration": 0.46407299999998486
                },
                {
                    "name": "C4",
                    "midi": 60,
                    "time": 117.99056024999878,
                    "velocity": 0.2677165354330709,
                    "duration": 0.11601824999999621
                },
                {
                    "name": "A3",
                    "midi": 57,
                    "time": 118.10657849999878,
                    "velocity": 0.28346456692913385,
                    "duration": 0.11601824999999621
                },
                {
                    "name": "C4",
                    "midi": 60,
                    "time": 118.22259674999877,
                    "velocity": 0.2992125984251969,
                    "duration": 0.11601824999999621
                },
                {
                    "name": "C5",
                    "midi": 72,
                    "time": 118.33861499999877,
                    "velocity": 0.3937007874015748,
                    "duration": 0.46407299999998486
                },
                {
                    "name": "G4",
                    "midi": 67,
                    "time": 118.45463324999876,
                    "velocity": 0.2992125984251969,
                    "duration": 0.11601824999999621
                },
                {
                    "name": "E4",
                    "midi": 64,
                    "time": 118.57065149999876,
                    "velocity": 0.2992125984251969,
                    "duration": 0.11601824999999621
                },
                {
                    "name": "G4",
                    "midi": 67,
                    "time": 118.68666974999876,
                    "velocity": 0.2992125984251969,
                    "duration": 0.11601824999999621
                },
                {
                    "name": "C5",
                    "midi": 72,
                    "time": 118.80268799999875,
                    "velocity": 0.4015748031496063,
                    "duration": 0.46407299999998486
                },
                {
                    "name": "A4",
                    "midi": 69,
                    "time": 118.91870624999875,
                    "velocity": 0.2992125984251969,
                    "duration": 0.11601824999999621
                },
                {
                    "name": "F4",
                    "midi": 65,
                    "time": 119.03472449999875,
                    "velocity": 0.29133858267716534,
                    "duration": 0.11601824999999621
                },
                {
                    "name": "A4",
                    "midi": 69,
                    "time": 119.15074274999874,
                    "velocity": 0.2677165354330709,
                    "duration": 0.11601824999999621
                },
                {
                    "name": "C5",
                    "midi": 72,
                    "time": 119.26676099999874,
                    "velocity": 0.33858267716535434,
                    "duration": 0.46407299999998486
                },
                {
                    "name": "A#4",
                    "midi": 70,
                    "time": 119.38277924999873,
                    "velocity": 0.2755905511811024,
                    "duration": 0.11601824999999621
                },
                {
                    "name": "E4",
                    "midi": 64,
                    "time": 119.49879749999873,
                    "velocity": 0.2755905511811024,
                    "duration": 0.11601824999999621
                },
                {
                    "name": "A#4",
                    "midi": 70,
                    "time": 119.61481574999873,
                    "velocity": 0.2755905511811024,
                    "duration": 0.11601824999999621
                },
                {
                    "name": "C5",
                    "midi": 72,
                    "time": 119.73083399999872,
                    "velocity": 0.4094488188976378,
                    "duration": 0.46407299999998486
                },
                {
                    "name": "A4",
                    "midi": 69,
                    "time": 119.84685224999872,
                    "velocity": 0.2992125984251969,
                    "duration": 0.11601824999999621
                },
                {
                    "name": "F4",
                    "midi": 65,
                    "time": 119.96287049999871,
                    "velocity": 0.2992125984251969,
                    "duration": 0.11601824999999621
                },
                {
                    "name": "A4",
                    "midi": 69,
                    "time": 120.07888874999871,
                    "velocity": 0.2992125984251969,
                    "duration": 0.11601824999999621
                },
                {
                    "name": "F5",
                    "midi": 77,
                    "time": 120.19490699999871,
                    "velocity": 0.41732283464566927,
                    "duration": 0.46407299999998486
                },
                {
                    "name": "A4",
                    "midi": 69,
                    "time": 120.3109252499987,
                    "velocity": 0.33858267716535434,
                    "duration": 0.11601824999999621
                },
                {
                    "name": "F4",
                    "midi": 65,
                    "time": 120.4269434999987,
                    "velocity": 0.3464566929133858,
                    "duration": 0.11601824999999621
                },
                {
                    "name": "A4",
                    "midi": 69,
                    "time": 120.5429617499987,
                    "velocity": 0.3464566929133858,
                    "duration": 0.11601824999999621
                },
                {
                    "name": "C5",
                    "midi": 72,
                    "time": 120.65897999999869,
                    "velocity": 0.4094488188976378,
                    "duration": 0.11601824999999621
                },
                {
                    "name": "E5",
                    "midi": 76,
                    "time": 120.65897999999869,
                    "velocity": 0.4094488188976378,
                    "duration": 0.46407299999998486
                },
                {
                    "name": "A4",
                    "midi": 69,
                    "time": 120.77499824999869,
                    "velocity": 0.2992125984251969,
                    "duration": 0.11601824999999621
                },
                {
                    "name": "E4",
                    "midi": 64,
                    "time": 120.89101649999868,
                    "velocity": 0.2992125984251969,
                    "duration": 0.11601824999999621
                },
                {
                    "name": "A4",
                    "midi": 69,
                    "time": 121.00703474999868,
                    "velocity": 0.2992125984251969,
                    "duration": 0.11601824999999621
                },
                {
                    "name": "A#4",
                    "midi": 70,
                    "time": 121.12305299999868,
                    "velocity": 0.4015748031496063,
                    "duration": 0.11601824999999621
                },
                {
                    "name": "D5",
                    "midi": 74,
                    "time": 121.12305299999868,
                    "velocity": 0.4015748031496063,
                    "duration": 0.46407299999998486
                },
                {
                    "name": "F4",
                    "midi": 65,
                    "time": 121.23907124999867,
                    "velocity": 0.2677165354330709,
                    "duration": 0.11601824999999621
                },
                {
                    "name": "D4",
                    "midi": 62,
                    "time": 121.35508949999867,
                    "velocity": 0.2677165354330709,
                    "duration": 0.11601824999999621
                },
                {
                    "name": "F4",
                    "midi": 65,
                    "time": 121.47110774999867,
                    "velocity": 0.2677165354330709,
                    "duration": 0.11601824999999621
                },
                {
                    "name": "A4",
                    "midi": 69,
                    "time": 121.58712599999866,
                    "velocity": 0.3937007874015748,
                    "duration": 0.11601824999999621
                },
                {
                    "name": "D5",
                    "midi": 74,
                    "time": 121.58712599999866,
                    "velocity": 0.3937007874015748,
                    "duration": 0.46407299999998486
                },
                {
                    "name": "F4",
                    "midi": 65,
                    "time": 121.70314424999866,
                    "velocity": 0.28346456692913385,
                    "duration": 0.11601824999999621
                },
                {
                    "name": "D4",
                    "midi": 62,
                    "time": 121.81916249999865,
                    "velocity": 0.28346456692913385,
                    "duration": 0.11601824999999621
                },
                {
                    "name": "F4",
                    "midi": 65,
                    "time": 121.93518074999865,
                    "velocity": 0.28346456692913385,
                    "duration": 0.11601824999999621
                },
                {
                    "name": "A4",
                    "midi": 69,
                    "time": 122.05119899999865,
                    "velocity": 0.3858267716535433,
                    "duration": 0.11601824999999621
                },
                {
                    "name": "C5",
                    "midi": 72,
                    "time": 122.05119899999865,
                    "velocity": 0.3858267716535433,
                    "duration": 0.46407299999998486
                },
                {
                    "name": "F4",
                    "midi": 65,
                    "time": 122.16721724999864,
                    "velocity": 0.2755905511811024,
                    "duration": 0.11601824999999621
                },
                {
                    "name": "C4",
                    "midi": 60,
                    "time": 122.28323549999864,
                    "velocity": 0.2755905511811024,
                    "duration": 0.11601824999999621
                },
                {
                    "name": "F4",
                    "midi": 65,
                    "time": 122.39925374999864,
                    "velocity": 0.2755905511811024,
                    "duration": 0.11601824999999621
                },
                {
                    "name": "A4",
                    "midi": 69,
                    "time": 122.51527199999863,
                    "velocity": 0.3937007874015748,
                    "duration": 0.11601824999999621
                },
                {
                    "name": "C5",
                    "midi": 72,
                    "time": 122.51527199999863,
                    "velocity": 0.3937007874015748,
                    "duration": 0.46407299999998486
                },
                {
                    "name": "E4",
                    "midi": 64,
                    "time": 122.63129024999863,
                    "velocity": 0.28346456692913385,
                    "duration": 0.11601824999999621
                },
                {
                    "name": "C4",
                    "midi": 60,
                    "time": 122.74730849999862,
                    "velocity": 0.28346456692913385,
                    "duration": 0.11601824999999621
                },
                {
                    "name": "E4",
                    "midi": 64,
                    "time": 122.86332674999862,
                    "velocity": 0.28346456692913385,
                    "duration": 0.11601824999999621
                },
                {
                    "name": "G4",
                    "midi": 67,
                    "time": 122.97934499999862,
                    "velocity": 0.3858267716535433,
                    "duration": 0.11601824999999621
                },
                {
                    "name": "A#4",
                    "midi": 70,
                    "time": 122.97934499999862,
                    "velocity": 0.3858267716535433,
                    "duration": 0.46407299999998486
                },
                {
                    "name": "E4",
                    "midi": 64,
                    "time": 123.09536324999861,
                    "velocity": 0.2755905511811024,
                    "duration": 0.11601824999999621
                },
                {
                    "name": "A#3",
                    "midi": 58,
                    "time": 123.21138149999861,
                    "velocity": 0.2755905511811024,
                    "duration": 0.11601824999999621
                },
                {
                    "name": "E4",
                    "midi": 64,
                    "time": 123.3273997499986,
                    "velocity": 0.2755905511811024,
                    "duration": 0.11601824999999621
                },
                {
                    "name": "G4",
                    "midi": 67,
                    "time": 123.4434179999986,
                    "velocity": 0.3937007874015748,
                    "duration": 0.11601824999999621
                },
                {
                    "name": "A#4",
                    "midi": 70,
                    "time": 123.4434179999986,
                    "velocity": 0.3937007874015748,
                    "duration": 0.46407299999998486
                },
                {
                    "name": "D4",
                    "midi": 62,
                    "time": 123.5594362499986,
                    "velocity": 0.28346456692913385,
                    "duration": 0.11601824999999621
                },
                {
                    "name": "A#3",
                    "midi": 58,
                    "time": 123.6754544999986,
                    "velocity": 0.28346456692913385,
                    "duration": 0.11601824999999621
                },
                {
                    "name": "D4",
                    "midi": 62,
                    "time": 123.79147274999859,
                    "velocity": 0.28346456692913385,
                    "duration": 0.11601824999999621
                },
                {
                    "name": "F4",
                    "midi": 65,
                    "time": 123.90749099999859,
                    "velocity": 0.3858267716535433,
                    "duration": 0.11601824999999621
                },
                {
                    "name": "A4",
                    "midi": 69,
                    "time": 123.90749099999859,
                    "velocity": 0.3858267716535433,
                    "duration": 0.46407299999998486
                },
                {
                    "name": "D4",
                    "midi": 62,
                    "time": 124.02350924999858,
                    "velocity": 0.28346456692913385,
                    "duration": 0.11601824999999621
                },
                {
                    "name": "A3",
                    "midi": 57,
                    "time": 124.13952749999858,
                    "velocity": 0.28346456692913385,
                    "duration": 0.11601824999999621
                },
                {
                    "name": "D4",
                    "midi": 62,
                    "time": 124.25554574999857,
                    "velocity": 0.28346456692913385,
                    "duration": 0.11601824999999621
                },
                {
                    "name": "E4",
                    "midi": 64,
                    "time": 124.37156399999857,
                    "velocity": 0.3779527559055118,
                    "duration": 0.11601824999999621
                },
                {
                    "name": "A4",
                    "midi": 69,
                    "time": 124.37156399999857,
                    "velocity": 0.3779527559055118,
                    "duration": 0.46407299999998486
                },
                {
                    "name": "C#4",
                    "midi": 61,
                    "time": 124.48758224999857,
                    "velocity": 0.28346456692913385,
                    "duration": 0.11601824999999621
                },
                {
                    "name": "A3",
                    "midi": 57,
                    "time": 124.60360049999856,
                    "velocity": 0.28346456692913385,
                    "duration": 0.11601824999999621
                },
                {
                    "name": "C#4",
                    "midi": 61,
                    "time": 124.71961874999856,
                    "velocity": 0.28346456692913385,
                    "duration": 0.11601824999999621
                },
                {
                    "name": "G4",
                    "midi": 67,
                    "time": 124.83563699999856,
                    "velocity": 0.3700787401574803,
                    "duration": 0.46407299999998486
                },
                {
                    "name": "E4",
                    "midi": 64,
                    "time": 124.95165524999855,
                    "velocity": 0.29133858267716534,
                    "duration": 0.11601824999999621
                },
                {
                    "name": "A3",
                    "midi": 57,
                    "time": 125.06767349999855,
                    "velocity": 0.29133858267716534,
                    "duration": 0.11601824999999621
                },
                {
                    "name": "E4",
                    "midi": 64,
                    "time": 125.18369174999854,
                    "velocity": 0.29133858267716534,
                    "duration": 0.11601824999999621
                },
                {
                    "name": "G4",
                    "midi": 67,
                    "time": 125.29970999999854,
                    "velocity": 0.3779527559055118,
                    "duration": 0.46407299999998486
                },
                {
                    "name": "E4",
                    "midi": 64,
                    "time": 125.41572824999854,
                    "velocity": 0.2992125984251969,
                    "duration": 0.11601824999999621
                },
                {
                    "name": "A3",
                    "midi": 57,
                    "time": 125.53174649999853,
                    "velocity": 0.33070866141732286,
                    "duration": 0.11601824999999621
                },
                {
                    "name": "E4",
                    "midi": 64,
                    "time": 125.64776474999853,
                    "velocity": 0.3543307086614173,
                    "duration": 0.11601824999999621
                },
                {
                    "name": "F4",
                    "midi": 65,
                    "time": 125.76378299999853,
                    "velocity": 0.4094488188976378,
                    "duration": 0.46407299999998486
                },
                {
                    "name": "D4",
                    "midi": 62,
                    "time": 125.87980124999852,
                    "velocity": 0.33858267716535434,
                    "duration": 0.11601824999999621
                },
                {
                    "name": "A3",
                    "midi": 57,
                    "time": 125.99581949999852,
                    "velocity": 0.3464566929133858,
                    "duration": 0.11601824999999621
                },
                {
                    "name": "D4",
                    "midi": 62,
                    "time": 126.11183774999851,
                    "velocity": 0.3464566929133858,
                    "duration": 0.11601824999999621
                },
                {
                    "name": "G4",
                    "midi": 67,
                    "time": 126.22785599999851,
                    "velocity": 0.3858267716535433,
                    "duration": 0.46407299999998486
                },
                {
                    "name": "F4",
                    "midi": 65,
                    "time": 126.3438742499985,
                    "velocity": 0.2755905511811024,
                    "duration": 0.11601824999999621
                },
                {
                    "name": "D4",
                    "midi": 62,
                    "time": 126.4598924999985,
                    "velocity": 0.2755905511811024,
                    "duration": 0.11601824999999621
                },
                {
                    "name": "F4",
                    "midi": 65,
                    "time": 126.5759107499985,
                    "velocity": 0.2755905511811024,
                    "duration": 0.11601824999999621
                },
                {
                    "name": "A4",
                    "midi": 69,
                    "time": 126.6919289999985,
                    "velocity": 0.3543307086614173,
                    "duration": 0.46407299999998486
                },
                {
                    "name": "E4",
                    "midi": 64,
                    "time": 126.80794724999849,
                    "velocity": 0.25984251968503935,
                    "duration": 0.11601824999999621
                },
                {
                    "name": "C4",
                    "midi": 60,
                    "time": 126.92396549999849,
                    "velocity": 0.25984251968503935,
                    "duration": 0.11601824999999621
                },
                {
                    "name": "E4",
                    "midi": 64,
                    "time": 127.03998374999848,
                    "velocity": 0.25984251968503935,
                    "duration": 0.11601824999999621
                },
                {
                    "name": "F4",
                    "midi": 65,
                    "time": 127.15600199999848,
                    "velocity": 0.3700787401574803,
                    "duration": 0.46407299999998486
                },
                {
                    "name": "C4",
                    "midi": 60,
                    "time": 127.27202024999848,
                    "velocity": 0.2755905511811024,
                    "duration": 0.11601824999999621
                },
                {
                    "name": "A3",
                    "midi": 57,
                    "time": 127.38803849999847,
                    "velocity": 0.2755905511811024,
                    "duration": 0.11601824999999621
                },
                {
                    "name": "C4",
                    "midi": 60,
                    "time": 127.50405674999847,
                    "velocity": 0.2755905511811024,
                    "duration": 0.11601824999999621
                },
                {
                    "name": "G4",
                    "midi": 67,
                    "time": 127.62007499999847,
                    "velocity": 0.3858267716535433,
                    "duration": 0.46407299999999907
                },
                {
                    "name": "D4",
                    "midi": 62,
                    "time": 127.73609324999846,
                    "velocity": 0.2755905511811024,
                    "duration": 0.11601824999999621
                },
                {
                    "name": "A#3",
                    "midi": 58,
                    "time": 127.85211149999846,
                    "velocity": 0.2755905511811024,
                    "duration": 0.11601824999999621
                },
                {
                    "name": "D4",
                    "midi": 62,
                    "time": 127.96812974999845,
                    "velocity": 0.2755905511811024,
                    "duration": 0.11601825000001043
                },
                {
                    "name": "A4",
                    "midi": 69,
                    "time": 128.08414799999846,
                    "velocity": 0.3858267716535433,
                    "duration": 0.46407299999998486
                },
                {
                    "name": "D#4",
                    "midi": 63,
                    "time": 128.20016624999846,
                    "velocity": 0.2755905511811024,
                    "duration": 0.11601824999999621
                },
                {
                    "name": "C4",
                    "midi": 60,
                    "time": 128.31618449999846,
                    "velocity": 0.28346456692913385,
                    "duration": 0.11601824999999621
                },
                {
                    "name": "D#4",
                    "midi": 63,
                    "time": 128.43220274999845,
                    "velocity": 0.28346456692913385,
                    "duration": 0.11601824999999621
                },
                {
                    "name": "A4",
                    "midi": 69,
                    "time": 128.54822099999845,
                    "velocity": 0.4094488188976378,
                    "duration": 0.46407299999998486
                },
                {
                    "name": "D#4",
                    "midi": 63,
                    "time": 128.66423924999845,
                    "velocity": 0.2992125984251969,
                    "duration": 0.11601824999999621
                },
                {
                    "name": "C4",
                    "midi": 60,
                    "time": 128.78025749999844,
                    "velocity": 0.2992125984251969,
                    "duration": 0.11601824999999621
                },
                {
                    "name": "D#4",
                    "midi": 63,
                    "time": 128.89627574999844,
                    "velocity": 0.30708661417322836,
                    "duration": 0.11601824999999621
                },
                {
                    "name": "A4",
                    "midi": 69,
                    "time": 129.01229399999843,
                    "velocity": 0.41732283464566927,
                    "duration": 0.46407299999998486
                },
                {
                    "name": "D#4",
                    "midi": 63,
                    "time": 129.12831224999843,
                    "velocity": 0.29133858267716534,
                    "duration": 0.11601824999999621
                },
                {
                    "name": "C4",
                    "midi": 60,
                    "time": 129.24433049999843,
                    "velocity": 0.28346456692913385,
                    "duration": 0.11601824999999621
                },
                {
                    "name": "D#4",
                    "midi": 63,
                    "time": 129.36034874999842,
                    "velocity": 0.28346456692913385,
                    "duration": 0.11601824999999621
                },
                {
                    "name": "A#4",
                    "midi": 70,
                    "time": 129.47636699999842,
                    "velocity": 0.3858267716535433,
                    "duration": 0.46407299999998486
                },
                {
                    "name": "F4",
                    "midi": 65,
                    "time": 129.59238524999842,
                    "velocity": 0.29133858267716534,
                    "duration": 0.11601824999999621
                },
                {
                    "name": "D4",
                    "midi": 62,
                    "time": 129.7084034999984,
                    "velocity": 0.28346456692913385,
                    "duration": 0.11601824999999621
                },
                {
                    "name": "F4",
                    "midi": 65,
                    "time": 129.8244217499984,
                    "velocity": 0.2755905511811024,
                    "duration": 0.11601824999999621
                },
                {
                    "name": "A4",
                    "midi": 69,
                    "time": 129.9404399999984,
                    "velocity": 0.3858267716535433,
                    "duration": 0.46407299999998486
                },
                {
                    "name": "F4",
                    "midi": 65,
                    "time": 130.0564582499984,
                    "velocity": 0.2755905511811024,
                    "duration": 0.11601824999999621
                },
                {
                    "name": "C4",
                    "midi": 60,
                    "time": 130.1724764999984,
                    "velocity": 0.2755905511811024,
                    "duration": 0.11601824999999621
                },
                {
                    "name": "F4",
                    "midi": 65,
                    "time": 130.2884947499984,
                    "velocity": 0.2755905511811024,
                    "duration": 0.11601824999999621
                },
                {
                    "name": "G4",
                    "midi": 67,
                    "time": 130.4045129999984,
                    "velocity": 0.3858267716535433,
                    "duration": 0.46407299999998486
                },
                {
                    "name": "E4",
                    "midi": 64,
                    "time": 130.52053124999838,
                    "velocity": 0.2755905511811024,
                    "duration": 0.11601824999999621
                },
                {
                    "name": "C4",
                    "midi": 60,
                    "time": 130.63654949999838,
                    "velocity": 0.2755905511811024,
                    "duration": 0.11601824999999621
                },
                {
                    "name": "E4",
                    "midi": 64,
                    "time": 130.75256774999838,
                    "velocity": 0.2755905511811024,
                    "duration": 0.11601824999999621
                },
                {
                    "name": "A4",
                    "midi": 69,
                    "time": 130.86858599999837,
                    "velocity": 0.3700787401574803,
                    "duration": 0.46407299999998486
                },
                {
                    "name": "F4",
                    "midi": 65,
                    "time": 130.98460424999837,
                    "velocity": 0.2755905511811024,
                    "duration": 0.11601824999999621
                },
                {
                    "name": "D#4",
                    "midi": 63,
                    "time": 131.10062249999837,
                    "velocity": 0.2755905511811024,
                    "duration": 0.11601824999999621
                },
                {
                    "name": "F4",
                    "midi": 65,
                    "time": 131.21664074999836,
                    "velocity": 0.2755905511811024,
                    "duration": 0.11601824999999621
                },
                {
                    "name": "A#4",
                    "midi": 70,
                    "time": 131.33265899999836,
                    "velocity": 0.3858267716535433,
                    "duration": 0.46407299999998486
                },
                {
                    "name": "G4",
                    "midi": 67,
                    "time": 131.44867724999835,
                    "velocity": 0.2755905511811024,
                    "duration": 0.11601824999999621
                },
                {
                    "name": "D#4",
                    "midi": 63,
                    "time": 131.56469549999835,
                    "velocity": 0.2755905511811024,
                    "duration": 0.11601824999999621
                },
                {
                    "name": "G4",
                    "midi": 67,
                    "time": 131.68071374999835,
                    "velocity": 0.2755905511811024,
                    "duration": 0.11601824999999621
                },
                {
                    "name": "C5",
                    "midi": 72,
                    "time": 131.79673199999834,
                    "velocity": 0.3858267716535433,
                    "duration": 0.46407299999998486
                },
                {
                    "name": "A4",
                    "midi": 69,
                    "time": 131.91275024999834,
                    "velocity": 0.2755905511811024,
                    "duration": 0.11601824999999621
                },
                {
                    "name": "D#4",
                    "midi": 63,
                    "time": 132.02876849999834,
                    "velocity": 0.28346456692913385,
                    "duration": 0.11601824999999621
                },
                {
                    "name": "A4",
                    "midi": 69,
                    "time": 132.14478674999833,
                    "velocity": 0.28346456692913385,
                    "duration": 0.11601824999999621
                },
                {
                    "name": "C5",
                    "midi": 72,
                    "time": 132.26080499999833,
                    "velocity": 0.4094488188976378,
                    "duration": 0.46407299999998486
                },
                {
                    "name": "A4",
                    "midi": 69,
                    "time": 132.37682324999832,
                    "velocity": 0.2992125984251969,
                    "duration": 0.11601824999999621
                },
                {
                    "name": "D#4",
                    "midi": 63,
                    "time": 132.49284149999832,
                    "velocity": 0.2992125984251969,
                    "duration": 0.11601824999999621
                },
                {
                    "name": "A4",
                    "midi": 69,
                    "time": 132.60885974999832,
                    "velocity": 0.30708661417322836,
                    "duration": 0.11601824999999621
                },
                {
                    "name": "C5",
                    "midi": 72,
                    "time": 132.7248779999983,
                    "velocity": 0.4409448818897638,
                    "duration": 0.46407299999998486
                },
                {
                    "name": "A4",
                    "midi": 69,
                    "time": 132.8408962499983,
                    "velocity": 0.30708661417322836,
                    "duration": 0.11601824999999621
                },
                {
                    "name": "D#4",
                    "midi": 63,
                    "time": 132.9569144999983,
                    "velocity": 0.30708661417322836,
                    "duration": 0.11601824999999621
                },
                {
                    "name": "A4",
                    "midi": 69,
                    "time": 133.0729327499983,
                    "velocity": 0.2992125984251969,
                    "duration": 0.11601824999999621
                },
                {
                    "name": "D5",
                    "midi": 74,
                    "time": 133.1889509999983,
                    "velocity": 0.4094488188976378,
                    "duration": 0.46407299999998486
                },
                {
                    "name": "A#4",
                    "midi": 70,
                    "time": 133.3049692499983,
                    "velocity": 0.29133858267716534,
                    "duration": 0.11601824999999621
                },
                {
                    "name": "D4",
                    "midi": 62,
                    "time": 133.4209874999983,
                    "velocity": 0.28346456692913385,
                    "duration": 0.11601824999999621
                },
                {
                    "name": "A#4",
                    "midi": 70,
                    "time": 133.5370057499983,
                    "velocity": 0.2755905511811024,
                    "duration": 0.11601824999999621
                },
                {
                    "name": "C5",
                    "midi": 72,
                    "time": 133.65302399999828,
                    "velocity": 0.3858267716535433,
                    "duration": 0.46407299999998486
                },
                {
                    "name": "A4",
                    "midi": 69,
                    "time": 133.76904224999828,
                    "velocity": 0.2677165354330709,
                    "duration": 0.11601824999999621
                },
                {
                    "name": "F4",
                    "midi": 65,
                    "time": 133.88506049999827,
                    "velocity": 0.2677165354330709,
                    "duration": 0.11601824999999621
                },
                {
                    "name": "A4",
                    "midi": 69,
                    "time": 134.00107874999827,
                    "velocity": 0.2677165354330709,
                    "duration": 0.11601824999999621
                },
                {
                    "name": "C5",
                    "midi": 72,
                    "time": 134.11709699999827,
                    "velocity": 0.3700787401574803,
                    "duration": 0.46407299999998486
                },
                {
                    "name": "G4",
                    "midi": 67,
                    "time": 134.23311524999826,
                    "velocity": 0.2677165354330709,
                    "duration": 0.11601824999999621
                },
                {
                    "name": "E4",
                    "midi": 64,
                    "time": 134.34913349999826,
                    "velocity": 0.25984251968503935,
                    "duration": 0.11601824999999621
                },
                {
                    "name": "G4",
                    "midi": 67,
                    "time": 134.46515174999826,
                    "velocity": 0.25196850393700787,
                    "duration": 0.11601824999999621
                },
                {
                    "name": "C5",
                    "midi": 72,
                    "time": 134.58116999999825,
                    "velocity": 0.33070866141732286,
                    "duration": 0.46407299999998486
                },
                {
                    "name": "A4",
                    "midi": 69,
                    "time": 134.69718824999825,
                    "velocity": 0.2440944881889764,
                    "duration": 0.11601824999999621
                },
                {
                    "name": "F4",
                    "midi": 65,
                    "time": 134.81320649999824,
                    "velocity": 0.2440944881889764,
                    "duration": 0.11601824999999621
                },
                {
                    "name": "A4",
                    "midi": 69,
                    "time": 134.92922474999824,
                    "velocity": 0.2440944881889764,
                    "duration": 0.11601824999999621
                },
                {
                    "name": "F5",
                    "midi": 77,
                    "time": 135.04524299999824,
                    "velocity": 0.30708661417322836,
                    "duration": 0.46407299999998486
                },
                {
                    "name": "C5",
                    "midi": 72,
                    "time": 135.16126124999823,
                    "velocity": 0.2440944881889764,
                    "duration": 0.11601824999999621
                },
                {
                    "name": "F4",
                    "midi": 65,
                    "time": 135.27727949999823,
                    "velocity": 0.2440944881889764,
                    "duration": 0.11601824999999621
                },
                {
                    "name": "C5",
                    "midi": 72,
                    "time": 135.39329774999823,
                    "velocity": 0.2440944881889764,
                    "duration": 0.11601824999999621
                },
                {
                    "name": "E5",
                    "midi": 76,
                    "time": 135.50931599999822,
                    "velocity": 0.3464566929133858,
                    "duration": 0.46407299999998486
                },
                {
                    "name": "C5",
                    "midi": 72,
                    "time": 135.62533424999822,
                    "velocity": 0.2440944881889764,
                    "duration": 0.11601824999999621
                },
                {
                    "name": "G4",
                    "midi": 67,
                    "time": 135.74135249999821,
                    "velocity": 0.25196850393700787,
                    "duration": 0.11601824999999621
                },
                {
                    "name": "C5",
                    "midi": 72,
                    "time": 135.8573707499982,
                    "velocity": 0.25196850393700787,
                    "duration": 0.11601824999999621
                },
                {
                    "name": "G5",
                    "midi": 79,
                    "time": 135.9733889999982,
                    "velocity": 0.31496062992125984,
                    "duration": 0.46407299999998486
                },
                {
                    "name": "C5",
                    "midi": 72,
                    "time": 136.0894072499982,
                    "velocity": 0.2677165354330709,
                    "duration": 0.11601824999999621
                },
                {
                    "name": "G4",
                    "midi": 67,
                    "time": 136.2054254999982,
                    "velocity": 0.25984251968503935,
                    "duration": 0.11601824999999621
                },
                {
                    "name": "C5",
                    "midi": 72,
                    "time": 136.3214437499982,
                    "velocity": 0.25984251968503935,
                    "duration": 0.11601824999999621
                },
                {
                    "name": "C5",
                    "midi": 72,
                    "time": 136.4374619999982,
                    "velocity": 0.3464566929133858,
                    "duration": 0.46407299999998486
                },
                {
                    "name": "A4",
                    "midi": 69,
                    "time": 136.5534802499982,
                    "velocity": 0.25196850393700787,
                    "duration": 0.11601824999999621
                },
                {
                    "name": "F4",
                    "midi": 65,
                    "time": 136.66949849999818,
                    "velocity": 0.25196850393700787,
                    "duration": 0.11601824999999621
                },
                {
                    "name": "A4",
                    "midi": 69,
                    "time": 136.78551674999818,
                    "velocity": 0.25196850393700787,
                    "duration": 0.11601824999999621
                },
                {
                    "name": "D5",
                    "midi": 74,
                    "time": 136.90153499999818,
                    "velocity": 0.30708661417322836,
                    "duration": 0.46407299999998486
                },
                {
                    "name": "A#4",
                    "midi": 70,
                    "time": 137.01755324999817,
                    "velocity": 0.2440944881889764,
                    "duration": 0.11601824999999621
                },
                {
                    "name": "F4",
                    "midi": 65,
                    "time": 137.13357149999817,
                    "velocity": 0.2440944881889764,
                    "duration": 0.11601824999999621
                },
                {
                    "name": "A#4",
                    "midi": 70,
                    "time": 137.24958974999817,
                    "velocity": 0.2440944881889764,
                    "duration": 0.11601824999999621
                },
                {
                    "name": "C5",
                    "midi": 72,
                    "time": 137.36560799999816,
                    "velocity": 0.31496062992125984,
                    "duration": 0.46407299999998486
                },
                {
                    "name": "A#4",
                    "midi": 70,
                    "time": 137.48162624999816,
                    "velocity": 0.2440944881889764,
                    "duration": 0.11601824999999621
                },
                {
                    "name": "G4",
                    "midi": 67,
                    "time": 137.59764449999815,
                    "velocity": 0.2440944881889764,
                    "duration": 0.11601824999999621
                },
                {
                    "name": "A#4",
                    "midi": 70,
                    "time": 137.71366274999815,
                    "velocity": 0.2440944881889764,
                    "duration": 0.11601824999999621
                },
                {
                    "name": "C5",
                    "midi": 72,
                    "time": 137.82968099999815,
                    "velocity": 0.2992125984251969,
                    "duration": 0.46407299999998486
                },
                {
                    "name": "A#4",
                    "midi": 70,
                    "time": 137.94569924999814,
                    "velocity": 0.2440944881889764,
                    "duration": 0.11601824999999621
                },
                {
                    "name": "E4",
                    "midi": 64,
                    "time": 138.06171749999814,
                    "velocity": 0.2440944881889764,
                    "duration": 0.11601824999999621
                },
                {
                    "name": "A#4",
                    "midi": 70,
                    "time": 138.17773574999813,
                    "velocity": 0.2440944881889764,
                    "duration": 0.11601824999999621
                },
                {
                    "name": "C5",
                    "midi": 72,
                    "time": 138.29375399999813,
                    "velocity": 0.33070866141732286,
                    "duration": 0.46407299999998486
                },
                {
                    "name": "A4",
                    "midi": 69,
                    "time": 138.40977224999813,
                    "velocity": 0.2440944881889764,
                    "duration": 0.11601824999999621
                },
                {
                    "name": "F4",
                    "midi": 65,
                    "time": 138.52579049999812,
                    "velocity": 0.2440944881889764,
                    "duration": 0.11601824999999621
                },
                {
                    "name": "A4",
                    "midi": 69,
                    "time": 138.64180874999812,
                    "velocity": 0.2440944881889764,
                    "duration": 0.11601824999999621
                },
                {
                    "name": "F5",
                    "midi": 77,
                    "time": 138.75782699999812,
                    "velocity": 0.30708661417322836,
                    "duration": 0.46407299999998486
                },
                {
                    "name": "C5",
                    "midi": 72,
                    "time": 138.8738452499981,
                    "velocity": 0.2440944881889764,
                    "duration": 0.11601824999999621
                },
                {
                    "name": "F4",
                    "midi": 65,
                    "time": 138.9898634999981,
                    "velocity": 0.2440944881889764,
                    "duration": 0.11601824999999621
                },
                {
                    "name": "C5",
                    "midi": 72,
                    "time": 139.1058817499981,
                    "velocity": 0.2440944881889764,
                    "duration": 0.11601824999999621
                },
                {
                    "name": "E5",
                    "midi": 76,
                    "time": 139.2218999999981,
                    "velocity": 0.3464566929133858,
                    "duration": 0.46407299999998486
                },
                {
                    "name": "C5",
                    "midi": 72,
                    "time": 139.3379182499981,
                    "velocity": 0.2440944881889764,
                    "duration": 0.11601824999999621
                },
                {
                    "name": "G4",
                    "midi": 67,
                    "time": 139.4539364999981,
                    "velocity": 0.25196850393700787,
                    "duration": 0.11601824999999621
                },
                {
                    "name": "C5",
                    "midi": 72,
                    "time": 139.5699547499981,
                    "velocity": 0.25196850393700787,
                    "duration": 0.11601824999999621
                },
                {
                    "name": "G5",
                    "midi": 79,
                    "time": 139.68597299999809,
                    "velocity": 0.31496062992125984,
                    "duration": 0.46407299999998486
                },
                {
                    "name": "C5",
                    "midi": 72,
                    "time": 139.80199124999808,
                    "velocity": 0.2677165354330709,
                    "duration": 0.11601824999999621
                },
                {
                    "name": "G4",
                    "midi": 67,
                    "time": 139.91800949999808,
                    "velocity": 0.25984251968503935,
                    "duration": 0.11601824999999621
                },
                {
                    "name": "C5",
                    "midi": 72,
                    "time": 140.03402774999807,
                    "velocity": 0.25984251968503935,
                    "duration": 0.11601824999999621
                },
                {
                    "name": "C5",
                    "midi": 72,
                    "time": 140.15004599999807,
                    "velocity": 0.3464566929133858,
                    "duration": 0.46407299999998486
                },
                {
                    "name": "A4",
                    "midi": 69,
                    "time": 140.26606424999807,
                    "velocity": 0.25196850393700787,
                    "duration": 0.11601824999999621
                },
                {
                    "name": "F4",
                    "midi": 65,
                    "time": 140.38208249999806,
                    "velocity": 0.25196850393700787,
                    "duration": 0.11601824999999621
                },
                {
                    "name": "A4",
                    "midi": 69,
                    "time": 140.49810074999806,
                    "velocity": 0.25196850393700787,
                    "duration": 0.11601824999999621
                },
                {
                    "name": "C#5",
                    "midi": 73,
                    "time": 140.61411899999806,
                    "velocity": 0.30708661417322836,
                    "duration": 0.46407299999998486
                },
                {
                    "name": "A#4",
                    "midi": 70,
                    "time": 140.73013724999805,
                    "velocity": 0.2440944881889764,
                    "duration": 0.11601824999999621
                },
                {
                    "name": "F4",
                    "midi": 65,
                    "time": 140.84615549999805,
                    "velocity": 0.2440944881889764,
                    "duration": 0.11601824999999621
                },
                {
                    "name": "A#4",
                    "midi": 70,
                    "time": 140.96217374999804,
                    "velocity": 0.2440944881889764,
                    "duration": 0.11601824999999621
                },
                {
                    "name": "C5",
                    "midi": 72,
                    "time": 141.07819199999804,
                    "velocity": 0.30708661417322836,
                    "duration": 0.46407299999998486
                },
                {
                    "name": "A#4",
                    "midi": 70,
                    "time": 141.19421024999804,
                    "velocity": 0.2440944881889764,
                    "duration": 0.11601824999999621
                },
                {
                    "name": "G4",
                    "midi": 67,
                    "time": 141.31022849999803,
                    "velocity": 0.2440944881889764,
                    "duration": 0.11601824999999621
                },
                {
                    "name": "A#4",
                    "midi": 70,
                    "time": 141.42624674999803,
                    "velocity": 0.2440944881889764,
                    "duration": 0.11601824999999621
                },
                {
                    "name": "C5",
                    "midi": 72,
                    "time": 141.54226499999803,
                    "velocity": 0.2992125984251969,
                    "duration": 0.46407299999998486
                },
                {
                    "name": "A#4",
                    "midi": 70,
                    "time": 141.65828324999802,
                    "velocity": 0.2440944881889764,
                    "duration": 0.11601824999999621
                },
                {
                    "name": "E4",
                    "midi": 64,
                    "time": 141.77430149999802,
                    "velocity": 0.2440944881889764,
                    "duration": 0.11601824999999621
                },
                {
                    "name": "A#4",
                    "midi": 70,
                    "time": 141.890319749998,
                    "velocity": 0.2440944881889764,
                    "duration": 0.11601824999999621
                },
                {
                    "name": "G#4",
                    "midi": 68,
                    "time": 143.862629999998,
                    "velocity": 0.7007874015748031,
                    "duration": 0.8121277500000019
                },
                {
                    "name": "C5",
                    "midi": 72,
                    "time": 143.862629999998,
                    "velocity": 0.7007874015748031,
                    "duration": 0.8121277500000019
                },
                {
                    "name": "F5",
                    "midi": 77,
                    "time": 143.862629999998,
                    "velocity": 0.8346456692913385,
                    "duration": 0.8121277500000019
                },
                {
                    "name": "G#4",
                    "midi": 68,
                    "time": 144.674757749998,
                    "velocity": 0.6062992125984252,
                    "duration": 0.1102173374999893
                },
                {
                    "name": "C5",
                    "midi": 72,
                    "time": 144.674757749998,
                    "velocity": 0.6062992125984252,
                    "duration": 0.1102173374999893
                },
                {
                    "name": "F5",
                    "midi": 77,
                    "time": 144.674757749998,
                    "velocity": 0.7244094488188977,
                    "duration": 0.1102173374999893
                },
                {
                    "name": "G#4",
                    "midi": 68,
                    "time": 144.790775999998,
                    "velocity": 0.6377952755905512,
                    "duration": 0.34805474999998864
                },
                {
                    "name": "C5",
                    "midi": 72,
                    "time": 144.790775999998,
                    "velocity": 0.6377952755905512,
                    "duration": 0.34805474999998864
                },
                {
                    "name": "G#5",
                    "midi": 80,
                    "time": 144.790775999998,
                    "velocity": 0.7559055118110236,
                    "duration": 0.34805474999998864
                },
                {
                    "name": "G#4",
                    "midi": 68,
                    "time": 145.138830749998,
                    "velocity": 0.5984251968503937,
                    "duration": 0.1102173374999893
                },
                {
                    "name": "C5",
                    "midi": 72,
                    "time": 145.138830749998,
                    "velocity": 0.5984251968503937,
                    "duration": 0.1102173374999893
                },
                {
                    "name": "G#5",
                    "midi": 80,
                    "time": 145.138830749998,
                    "velocity": 0.7165354330708661,
                    "duration": 0.1102173374999893
                },
                {
                    "name": "G#4",
                    "midi": 68,
                    "time": 145.254848999998,
                    "velocity": 0.6377952755905512,
                    "duration": 0.34805474999998864
                },
                {
                    "name": "C5",
                    "midi": 72,
                    "time": 145.254848999998,
                    "velocity": 0.6377952755905512,
                    "duration": 0.34805474999998864
                },
                {
                    "name": "F5",
                    "midi": 77,
                    "time": 145.254848999998,
                    "velocity": 0.7559055118110236,
                    "duration": 0.34805474999998864
                },
                {
                    "name": "G#4",
                    "midi": 68,
                    "time": 145.60290374999798,
                    "velocity": 0.6062992125984252,
                    "duration": 0.1102173374999893
                },
                {
                    "name": "C5",
                    "midi": 72,
                    "time": 145.60290374999798,
                    "velocity": 0.6062992125984252,
                    "duration": 0.1102173374999893
                },
                {
                    "name": "F5",
                    "midi": 77,
                    "time": 145.60290374999798,
                    "velocity": 0.7244094488188977,
                    "duration": 0.1102173374999893
                },
                {
                    "name": "F4",
                    "midi": 65,
                    "time": 145.71892199999797,
                    "velocity": 0.6377952755905512,
                    "duration": 0.34805474999998864
                },
                {
                    "name": "G#4",
                    "midi": 68,
                    "time": 145.71892199999797,
                    "velocity": 0.6377952755905512,
                    "duration": 0.34805474999998864
                },
                {
                    "name": "C5",
                    "midi": 72,
                    "time": 145.71892199999797,
                    "velocity": 0.7559055118110236,
                    "duration": 0.34805474999998864
                },
                {
                    "name": "F4",
                    "midi": 65,
                    "time": 146.06697674999796,
                    "velocity": 0.6062992125984252,
                    "duration": 0.1102173374999893
                },
                {
                    "name": "G#4",
                    "midi": 68,
                    "time": 146.06697674999796,
                    "velocity": 0.6062992125984252,
                    "duration": 0.1102173374999893
                },
                {
                    "name": "C5",
                    "midi": 72,
                    "time": 146.06697674999796,
                    "velocity": 0.7244094488188977,
                    "duration": 0.1102173374999893
                },
                {
                    "name": "C4",
                    "midi": 60,
                    "time": 146.18299499999796,
                    "velocity": 0.6062992125984252,
                    "duration": 0.34805474999998864
                },
                {
                    "name": "F4",
                    "midi": 65,
                    "time": 146.18299499999796,
                    "velocity": 0.6062992125984252,
                    "duration": 0.34805474999998864
                },
                {
                    "name": "G#4",
                    "midi": 68,
                    "time": 146.18299499999796,
                    "velocity": 0.7165354330708661,
                    "duration": 0.34805474999998864
                },
                {
                    "name": "C4",
                    "midi": 60,
                    "time": 146.53104974999795,
                    "velocity": 0.5669291338582677,
                    "duration": 0.1102173374999893
                },
                {
                    "name": "F4",
                    "midi": 65,
                    "time": 146.53104974999795,
                    "velocity": 0.5669291338582677,
                    "duration": 0.1102173374999893
                },
                {
                    "name": "G#4",
                    "midi": 68,
                    "time": 146.53104974999795,
                    "velocity": 0.6771653543307087,
                    "duration": 0.1102173374999893
                },
                {
                    "name": "G#3",
                    "midi": 56,
                    "time": 146.64706799999794,
                    "velocity": 0.6062992125984252,
                    "duration": 0.34805474999998864
                },
                {
                    "name": "C4",
                    "midi": 60,
                    "time": 146.64706799999794,
                    "velocity": 0.6062992125984252,
                    "duration": 0.34805474999998864
                },
                {
                    "name": "F4",
                    "midi": 65,
                    "time": 146.64706799999794,
                    "velocity": 0.7165354330708661,
                    "duration": 0.34805474999998864
                },
                {
                    "name": "G#3",
                    "midi": 56,
                    "time": 146.99512274999793,
                    "velocity": 0.5669291338582677,
                    "duration": 0.1102173374999893
                },
                {
                    "name": "C4",
                    "midi": 60,
                    "time": 146.99512274999793,
                    "velocity": 0.5669291338582677,
                    "duration": 0.1102173374999893
                },
                {
                    "name": "F4",
                    "midi": 65,
                    "time": 146.99512274999793,
                    "velocity": 0.6771653543307087,
                    "duration": 0.1102173374999893
                },
                {
                    "name": "G#3",
                    "midi": 56,
                    "time": 147.11114099999793,
                    "velocity": 0.6062992125984252,
                    "duration": 0.34805474999998864
                },
                {
                    "name": "C4",
                    "midi": 60,
                    "time": 147.11114099999793,
                    "velocity": 0.7165354330708661,
                    "duration": 0.34805474999998864
                },
                {
                    "name": "G#3",
                    "midi": 56,
                    "time": 147.45919574999792,
                    "velocity": 0.5590551181102362,
                    "duration": 0.11601824999999621
                },
                {
                    "name": "C4",
                    "midi": 60,
                    "time": 147.45919574999792,
                    "velocity": 0.5590551181102362,
                    "duration": 0.11601824999999621
                },
                {
                    "name": "F4",
                    "midi": 65,
                    "time": 147.45919574999792,
                    "velocity": 0.6692913385826772,
                    "duration": 0.11601824999999621
                },
                {
                    "name": "A#3",
                    "midi": 58,
                    "time": 147.5752139999979,
                    "velocity": 0.6377952755905512,
                    "duration": 0.11601824999999621
                },
                {
                    "name": "C#4",
                    "midi": 61,
                    "time": 147.5752139999979,
                    "velocity": 0.6377952755905512,
                    "duration": 0.11601824999999621
                },
                {
                    "name": "F#4",
                    "midi": 66,
                    "time": 147.5752139999979,
                    "velocity": 0.7559055118110236,
                    "duration": 0.11601824999999621
                },
                {
                    "name": "F#5",
                    "midi": 78,
                    "time": 147.8072504999979,
                    "velocity": 0.48031496062992124,
                    "duration": 0.13535462499999085
                },
                {
                    "name": "A#5",
                    "midi": 82,
                    "time": 147.9232687499979,
                    "velocity": 0.5118110236220472,
                    "duration": 0.13535462499999085
                },
                {
                    "name": "C#6",
                    "midi": 85,
                    "time": 148.0392869999979,
                    "velocity": 0.5354330708661418,
                    "duration": 0.13535462499999085
                },
                {
                    "name": "B5",
                    "midi": 83,
                    "time": 148.1553052499979,
                    "velocity": 0.5354330708661418,
                    "duration": 0.13535462499999085
                },
                {
                    "name": "A#5",
                    "midi": 82,
                    "time": 148.2713234999979,
                    "velocity": 0.5275590551181102,
                    "duration": 0.13535462499999085
                },
                {
                    "name": "G#5",
                    "midi": 80,
                    "time": 148.3873417499979,
                    "velocity": 0.5275590551181102,
                    "duration": 0.13535462499999085
                },
                {
                    "name": "F#5",
                    "midi": 78,
                    "time": 148.50335999999788,
                    "velocity": 0.5354330708661418,
                    "duration": 0.13535462499999085
                },
                {
                    "name": "F5",
                    "midi": 77,
                    "time": 148.61937824999788,
                    "velocity": 0.5354330708661418,
                    "duration": 0.13535462499999085
                },
                {
                    "name": "D#5",
                    "midi": 75,
                    "time": 148.73539649999788,
                    "velocity": 0.5275590551181102,
                    "duration": 0.13535462499999085
                },
                {
                    "name": "C#5",
                    "midi": 73,
                    "time": 148.85141474999787,
                    "velocity": 0.5275590551181102,
                    "duration": 0.13535462499999085
                },
                {
                    "name": "B4",
                    "midi": 71,
                    "time": 148.96743299999787,
                    "velocity": 0.5275590551181102,
                    "duration": 0.13535462499999085
                },
                {
                    "name": "A#4",
                    "midi": 70,
                    "time": 149.08345124999786,
                    "velocity": 0.5275590551181102,
                    "duration": 0.13535462499999085
                },
                {
                    "name": "G#4",
                    "midi": 68,
                    "time": 149.19946949999786,
                    "velocity": 0.5275590551181102,
                    "duration": 0.13535462499999085
                },
                {
                    "name": "F#4",
                    "midi": 66,
                    "time": 149.31548774999786,
                    "velocity": 0.5275590551181102,
                    "duration": 0.13535462499999085
                },
                {
                    "name": "G#4",
                    "midi": 68,
                    "time": 149.43150599999785,
                    "velocity": 0.5275590551181102,
                    "duration": 0.13535462499999085
                },
                {
                    "name": "F4",
                    "midi": 65,
                    "time": 149.54752424999785,
                    "velocity": 0.5354330708661418,
                    "duration": 0.13535462499999085
                },
                {
                    "name": "F#4",
                    "midi": 66,
                    "time": 149.66354249999785,
                    "velocity": 0.5669291338582677,
                    "duration": 0.13535462499999085
                },
                {
                    "name": "A#4",
                    "midi": 70,
                    "time": 149.77956074999784,
                    "velocity": 0.5905511811023622,
                    "duration": 0.13535462499999085
                },
                {
                    "name": "C#5",
                    "midi": 73,
                    "time": 149.89557899999784,
                    "velocity": 0.5826771653543307,
                    "duration": 0.13535462499999085
                },
                {
                    "name": "B4",
                    "midi": 71,
                    "time": 150.01159724999783,
                    "velocity": 0.5748031496062992,
                    "duration": 0.13535462499999085
                },
                {
                    "name": "A#4",
                    "midi": 70,
                    "time": 150.12761549999783,
                    "velocity": 0.5748031496062992,
                    "duration": 0.13535462499999085
                },
                {
                    "name": "G#4",
                    "midi": 68,
                    "time": 150.24363374999783,
                    "velocity": 0.5669291338582677,
                    "duration": 0.13535462499999085
                },
                {
                    "name": "F#4",
                    "midi": 66,
                    "time": 150.35965199999782,
                    "velocity": 0.5590551181102362,
                    "duration": 0.13535462499999085
                },
                {
                    "name": "F4",
                    "midi": 65,
                    "time": 150.47567024999782,
                    "velocity": 0.5590551181102362,
                    "duration": 0.13535462499999085
                },
                {
                    "name": "D#4",
                    "midi": 63,
                    "time": 150.59168849999782,
                    "velocity": 0.5669291338582677,
                    "duration": 0.13535462499999085
                },
                {
                    "name": "C#4",
                    "midi": 61,
                    "time": 150.7077067499978,
                    "velocity": 0.5748031496062992,
                    "duration": 0.13535462499999085
                },
                {
                    "name": "B3",
                    "midi": 59,
                    "time": 150.8237249999978,
                    "velocity": 0.5826771653543307,
                    "duration": 0.13535462499999085
                },
                {
                    "name": "A#3",
                    "midi": 58,
                    "time": 150.9397432499978,
                    "velocity": 0.5905511811023622,
                    "duration": 0.13535462499999085
                },
                {
                    "name": "G#3",
                    "midi": 56,
                    "time": 151.0557614999978,
                    "velocity": 0.5984251968503937,
                    "duration": 0.13535462499999085
                },
                {
                    "name": "F#3",
                    "midi": 54,
                    "time": 151.1717797499978,
                    "velocity": 0.6220472440944882,
                    "duration": 0.11601824999999621
                },
                {
                    "name": "C#3",
                    "midi": 49,
                    "time": 151.2877979999978,
                    "velocity": 0.6771653543307087,
                    "duration": 0.23203649999999243
                },
                {
                    "name": "F#3",
                    "midi": 54,
                    "time": 151.2877979999978,
                    "velocity": 0.6771653543307087,
                    "duration": 0.23203649999999243
                },
                {
                    "name": "A#3",
                    "midi": 58,
                    "time": 151.51983449999778,
                    "velocity": 0.5826771653543307,
                    "duration": 0.4640730000000133
                },
                {
                    "name": "C#4",
                    "midi": 61,
                    "time": 151.51983449999778,
                    "velocity": 0.5826771653543307,
                    "duration": 0.4640730000000133
                },
                {
                    "name": "F#4",
                    "midi": 66,
                    "time": 151.51983449999778,
                    "velocity": 0.6929133858267716,
                    "duration": 0.4640730000000133
                },
                {
                    "name": "C#4",
                    "midi": 61,
                    "time": 151.9839074999978,
                    "velocity": 0.5748031496062992,
                    "duration": 0.4640730000000133
                },
                {
                    "name": "F#4",
                    "midi": 66,
                    "time": 151.9839074999978,
                    "velocity": 0.5748031496062992,
                    "duration": 0.4640730000000133
                },
                {
                    "name": "A#4",
                    "midi": 70,
                    "time": 151.9839074999978,
                    "velocity": 0.6850393700787402,
                    "duration": 0.4640730000000133
                },
                {
                    "name": "F#4",
                    "midi": 66,
                    "time": 152.4479804999978,
                    "velocity": 0.5433070866141733,
                    "duration": 0.11601824999999621
                },
                {
                    "name": "A#4",
                    "midi": 70,
                    "time": 152.4479804999978,
                    "velocity": 0.5433070866141733,
                    "duration": 0.11601824999999621
                },
                {
                    "name": "C#5",
                    "midi": 73,
                    "time": 152.4479804999978,
                    "velocity": 0.6377952755905512,
                    "duration": 0.11601824999999621
                },
                {
                    "name": "A#4",
                    "midi": 70,
                    "time": 152.6800169999978,
                    "velocity": 0.5590551181102362,
                    "duration": 0.11601824999999621
                },
                {
                    "name": "C#5",
                    "midi": 73,
                    "time": 152.6800169999978,
                    "velocity": 0.5590551181102362,
                    "duration": 0.11601824999999621
                },
                {
                    "name": "F#5",
                    "midi": 78,
                    "time": 152.6800169999978,
                    "velocity": 0.6692913385826772,
                    "duration": 0.11601824999999621
                },
                {
                    "name": "C#5",
                    "midi": 73,
                    "time": 152.9120534999978,
                    "velocity": 0.5826771653543307,
                    "duration": 0.11601824999999621
                },
                {
                    "name": "F#5",
                    "midi": 78,
                    "time": 152.9120534999978,
                    "velocity": 0.5826771653543307,
                    "duration": 0.11601824999999621
                },
                {
                    "name": "A#5",
                    "midi": 82,
                    "time": 152.9120534999978,
                    "velocity": 0.6929133858267716,
                    "duration": 0.11601824999999621
                },
                {
                    "name": "A#3",
                    "midi": 58,
                    "time": 153.1440899999978,
                    "velocity": 0.5905511811023622,
                    "duration": 0.23203649999999243
                },
                {
                    "name": "E4",
                    "midi": 64,
                    "time": 153.1440899999978,
                    "velocity": 0.5905511811023622,
                    "duration": 0.23203649999999243
                },
                {
                    "name": "G4",
                    "midi": 67,
                    "time": 153.1440899999978,
                    "velocity": 0.6771653543307087,
                    "duration": 0.23203649999999243
                },
                {
                    "name": "E4",
                    "midi": 64,
                    "time": 153.37612649999778,
                    "velocity": 0.5826771653543307,
                    "duration": 0.4640730000000133
                },
                {
                    "name": "G4",
                    "midi": 67,
                    "time": 153.37612649999778,
                    "velocity": 0.5826771653543307,
                    "duration": 0.4640730000000133
                },
                {
                    "name": "A#4",
                    "midi": 70,
                    "time": 153.37612649999778,
                    "velocity": 0.6929133858267716,
                    "duration": 0.4640730000000133
                },
                {
                    "name": "G4",
                    "midi": 67,
                    "time": 153.8401994999978,
                    "velocity": 0.5748031496062992,
                    "duration": 0.4640730000000133
                },
                {
                    "name": "A#4",
                    "midi": 70,
                    "time": 153.8401994999978,
                    "velocity": 0.5748031496062992,
                    "duration": 0.4640730000000133
                },
                {
                    "name": "E5",
                    "midi": 76,
                    "time": 153.8401994999978,
                    "velocity": 0.6850393700787402,
                    "duration": 0.4640730000000133
                },
                {
                    "name": "A#4",
                    "midi": 70,
                    "time": 154.3042724999978,
                    "velocity": 0.5433070866141733,
                    "duration": 0.11601824999999621
                },
                {
                    "name": "E5",
                    "midi": 76,
                    "time": 154.3042724999978,
                    "velocity": 0.5433070866141733,
                    "duration": 0.11601824999999621
                },
                {
                    "name": "G5",
                    "midi": 79,
                    "time": 154.3042724999978,
                    "velocity": 0.6377952755905512,
                    "duration": 0.11601824999999621
                },
                {
                    "name": "E5",
                    "midi": 76,
                    "time": 154.5363089999978,
                    "velocity": 0.5590551181102362,
                    "duration": 0.11601824999999621
                },
                {
                    "name": "G5",
                    "midi": 79,
                    "time": 154.5363089999978,
                    "velocity": 0.5590551181102362,
                    "duration": 0.11601824999999621
                },
                {
                    "name": "A#5",
                    "midi": 82,
                    "time": 154.5363089999978,
                    "velocity": 0.6692913385826772,
                    "duration": 0.11601824999999621
                },
                {
                    "name": "G5",
                    "midi": 79,
                    "time": 154.7683454999978,
                    "velocity": 0.5826771653543307,
                    "duration": 0.11601824999999621
                },
                {
                    "name": "A#5",
                    "midi": 82,
                    "time": 154.7683454999978,
                    "velocity": 0.5826771653543307,
                    "duration": 0.11601824999999621
                },
                {
                    "name": "E6",
                    "midi": 88,
                    "time": 154.7683454999978,
                    "velocity": 0.6929133858267716,
                    "duration": 0.11601824999999621
                },
                {
                    "name": "F5",
                    "midi": 77,
                    "time": 155.00038199999778,
                    "velocity": 0.7007874015748031,
                    "duration": 0.8121277500000019
                },
                {
                    "name": "G#5",
                    "midi": 80,
                    "time": 155.00038199999778,
                    "velocity": 0.7007874015748031,
                    "duration": 0.8121277500000019
                },
                {
                    "name": "C6",
                    "midi": 84,
                    "time": 155.00038199999778,
                    "velocity": 0.7007874015748031,
                    "duration": 0.8121277500000019
                },
                {
                    "name": "F6",
                    "midi": 89,
                    "time": 155.00038199999778,
                    "velocity": 0.8346456692913385,
                    "duration": 0.8121277500000019
                },
                {
                    "name": "F5",
                    "midi": 77,
                    "time": 155.8125097499978,
                    "velocity": 0.6062992125984252,
                    "duration": 0.11601824999999621
                },
                {
                    "name": "F6",
                    "midi": 89,
                    "time": 155.8125097499978,
                    "velocity": 0.7244094488188977,
                    "duration": 0.11601824999999621
                },
                {
                    "name": "G#5",
                    "midi": 80,
                    "time": 155.92852799999778,
                    "velocity": 0.6377952755905512,
                    "duration": 0.34805474999998864
                },
                {
                    "name": "G#6",
                    "midi": 92,
                    "time": 155.92852799999778,
                    "velocity": 0.7559055118110236,
                    "duration": 0.34805474999998864
                },
                {
                    "name": "G#5",
                    "midi": 80,
                    "time": 156.27658274999777,
                    "velocity": 0.5984251968503937,
                    "duration": 0.11601824999999621
                },
                {
                    "name": "G#6",
                    "midi": 92,
                    "time": 156.27658274999777,
                    "velocity": 0.7165354330708661,
                    "duration": 0.11601824999999621
                },
                {
                    "name": "F5",
                    "midi": 77,
                    "time": 156.39260099999777,
                    "velocity": 0.6377952755905512,
                    "duration": 0.34805474999998864
                },
                {
                    "name": "F6",
                    "midi": 89,
                    "time": 156.39260099999777,
                    "velocity": 0.7559055118110236,
                    "duration": 0.34805474999998864
                },
                {
                    "name": "F5",
                    "midi": 77,
                    "time": 156.74065574999776,
                    "velocity": 0.6062992125984252,
                    "duration": 0.11601824999999621
                },
                {
                    "name": "F6",
                    "midi": 89,
                    "time": 156.74065574999776,
                    "velocity": 0.7244094488188977,
                    "duration": 0.11601824999999621
                },
                {
                    "name": "C#5",
                    "midi": 73,
                    "time": 156.85667399999775,
                    "velocity": 0.6377952755905512,
                    "duration": 0.34805474999998864
                },
                {
                    "name": "C#6",
                    "midi": 85,
                    "time": 156.85667399999775,
                    "velocity": 0.7559055118110236,
                    "duration": 0.34805474999998864
                },
                {
                    "name": "C#5",
                    "midi": 73,
                    "time": 157.20472874999774,
                    "velocity": 0.6062992125984252,
                    "duration": 0.11601824999999621
                },
                {
                    "name": "C#6",
                    "midi": 85,
                    "time": 157.20472874999774,
                    "velocity": 0.7244094488188977,
                    "duration": 0.11601824999999621
                },
                {
                    "name": "G#4",
                    "midi": 68,
                    "time": 157.32074699999774,
                    "velocity": 0.6062992125984252,
                    "duration": 0.34805474999998864
                },
                {
                    "name": "G#5",
                    "midi": 80,
                    "time": 157.32074699999774,
                    "velocity": 0.7165354330708661,
                    "duration": 0.34805474999998864
                },
                {
                    "name": "G#4",
                    "midi": 68,
                    "time": 157.66880174999773,
                    "velocity": 0.5669291338582677,
                    "duration": 0.11601824999999621
                },
                {
                    "name": "G#5",
                    "midi": 80,
                    "time": 157.66880174999773,
                    "velocity": 0.6771653543307087,
                    "duration": 0.11601824999999621
                },
                {
                    "name": "A4",
                    "midi": 69,
                    "time": 157.78481999999772,
                    "velocity": 0.6062992125984252,
                    "duration": 0.34805474999998864
                },
                {
                    "name": "A5",
                    "midi": 81,
                    "time": 157.78481999999772,
                    "velocity": 0.7165354330708661,
                    "duration": 0.34805474999998864
                },
                {
                    "name": "A4",
                    "midi": 69,
                    "time": 158.1328747499977,
                    "velocity": 0.5669291338582677,
                    "duration": 0.11601824999999621
                },
                {
                    "name": "A5",
                    "midi": 81,
                    "time": 158.1328747499977,
                    "velocity": 0.6771653543307087,
                    "duration": 0.11601824999999621
                },
                {
                    "name": "F4",
                    "midi": 65,
                    "time": 158.2488929999977,
                    "velocity": 0.6062992125984252,
                    "duration": 0.34805474999998864
                },
                {
                    "name": "F5",
                    "midi": 77,
                    "time": 158.2488929999977,
                    "velocity": 0.7165354330708661,
                    "duration": 0.34805474999998864
                },
                {
                    "name": "F4",
                    "midi": 65,
                    "time": 158.5969477499977,
                    "velocity": 0.5590551181102362,
                    "duration": 0.11601824999999621
                },
                {
                    "name": "F5",
                    "midi": 77,
                    "time": 158.5969477499977,
                    "velocity": 0.6692913385826772,
                    "duration": 0.11601824999999621
                },
                {
                    "name": "A#4",
                    "midi": 70,
                    "time": 158.7129659999977,
                    "velocity": 0.6220472440944882,
                    "duration": 0.8121277500000019
                },
                {
                    "name": "C#5",
                    "midi": 73,
                    "time": 158.7129659999977,
                    "velocity": 0.6220472440944882,
                    "duration": 0.8121277500000019
                },
                {
                    "name": "F5",
                    "midi": 77,
                    "time": 158.7129659999977,
                    "velocity": 0.6220472440944882,
                    "duration": 0.8121277500000019
                },
                {
                    "name": "A#5",
                    "midi": 82,
                    "time": 158.7129659999977,
                    "velocity": 0.7401574803149606,
                    "duration": 0.8121277500000019
                },
                {
                    "name": "A#5",
                    "midi": 82,
                    "time": 159.5250937499977,
                    "velocity": 0.5748031496062992,
                    "duration": 0.11601824999999621
                },
                {
                    "name": "A#6",
                    "midi": 94,
                    "time": 159.5250937499977,
                    "velocity": 0.6850393700787402,
                    "duration": 0.11601824999999621
                },
                {
                    "name": "C#6",
                    "midi": 85,
                    "time": 159.6411119999977,
                    "velocity": 0.6062992125984252,
                    "duration": 0.34805474999998864
                },
                {
                    "name": "C#7",
                    "midi": 97,
                    "time": 159.6411119999977,
                    "velocity": 0.7165354330708661,
                    "duration": 0.34805474999998864
                },
                {
                    "name": "C#6",
                    "midi": 85,
                    "time": 159.98916674999768,
                    "velocity": 0.5669291338582677,
                    "duration": 0.11601824999999621
                },
                {
                    "name": "C#7",
                    "midi": 97,
                    "time": 159.98916674999768,
                    "velocity": 0.6771653543307087,
                    "duration": 0.11601824999999621
                },
                {
                    "name": "A#5",
                    "midi": 82,
                    "time": 160.10518499999768,
                    "velocity": 0.6062992125984252,
                    "duration": 0.34805474999998864
                },
                {
                    "name": "A#6",
                    "midi": 94,
                    "time": 160.10518499999768,
                    "velocity": 0.7165354330708661,
                    "duration": 0.34805474999998864
                },
                {
                    "name": "A#5",
                    "midi": 82,
                    "time": 160.45323974999766,
                    "velocity": 0.5748031496062992,
                    "duration": 0.11601824999999621
                },
                {
                    "name": "A#6",
                    "midi": 94,
                    "time": 160.45323974999766,
                    "velocity": 0.6850393700787402,
                    "duration": 0.11601824999999621
                },
                {
                    "name": "F#5",
                    "midi": 78,
                    "time": 160.56925799999766,
                    "velocity": 0.6062992125984252,
                    "duration": 0.34805474999998864
                },
                {
                    "name": "F#6",
                    "midi": 90,
                    "time": 160.56925799999766,
                    "velocity": 0.7165354330708661,
                    "duration": 0.34805474999998864
                },
                {
                    "name": "F#5",
                    "midi": 78,
                    "time": 160.91731274999765,
                    "velocity": 0.5748031496062992,
                    "duration": 0.11601824999999621
                },
                {
                    "name": "F#6",
                    "midi": 90,
                    "time": 160.91731274999765,
                    "velocity": 0.6850393700787402,
                    "duration": 0.11601824999999621
                },
                {
                    "name": "F5",
                    "midi": 77,
                    "time": 161.03333099999764,
                    "velocity": 0.5748031496062992,
                    "duration": 0.34805474999998864
                },
                {
                    "name": "F6",
                    "midi": 89,
                    "time": 161.03333099999764,
                    "velocity": 0.6771653543307087,
                    "duration": 0.34805474999998864
                },
                {
                    "name": "F5",
                    "midi": 77,
                    "time": 161.38138574999763,
                    "velocity": 0.5354330708661418,
                    "duration": 0.11601824999999621
                },
                {
                    "name": "F6",
                    "midi": 89,
                    "time": 161.38138574999763,
                    "velocity": 0.6299212598425197,
                    "duration": 0.11601824999999621
                },
                {
                    "name": "E5",
                    "midi": 76,
                    "time": 161.49740399999763,
                    "velocity": 0.5748031496062992,
                    "duration": 0.34805474999998864
                },
                {
                    "name": "E6",
                    "midi": 88,
                    "time": 161.49740399999763,
                    "velocity": 0.6771653543307087,
                    "duration": 0.34805474999998864
                },
                {
                    "name": "E5",
                    "midi": 76,
                    "time": 161.84545874999762,
                    "velocity": 0.5354330708661418,
                    "duration": 0.11601824999999621
                },
                {
                    "name": "E6",
                    "midi": 88,
                    "time": 161.84545874999762,
                    "velocity": 0.6299212598425197,
                    "duration": 0.11601824999999621
                },
                {
                    "name": "C6",
                    "midi": 84,
                    "time": 161.96147699999761,
                    "velocity": 0.5748031496062992,
                    "duration": 0.34805474999998864
                },
                {
                    "name": "C7",
                    "midi": 96,
                    "time": 161.96147699999761,
                    "velocity": 0.6771653543307087,
                    "duration": 0.34805474999998864
                },
                {
                    "name": "C6",
                    "midi": 84,
                    "time": 162.3095317499976,
                    "velocity": 0.5275590551181102,
                    "duration": 0.11601824999999621
                },
                {
                    "name": "C7",
                    "midi": 96,
                    "time": 162.3095317499976,
                    "velocity": 0.6220472440944882,
                    "duration": 0.11601824999999621
                },
                {
                    "name": "F5",
                    "midi": 77,
                    "time": 162.4255499999976,
                    "velocity": 0.6220472440944882,
                    "duration": 0.8121277500000019
                },
                {
                    "name": "G#5",
                    "midi": 80,
                    "time": 162.4255499999976,
                    "velocity": 0.6220472440944882,
                    "duration": 0.8121277500000019
                },
                {
                    "name": "C6",
                    "midi": 84,
                    "time": 162.4255499999976,
                    "velocity": 0.6220472440944882,
                    "duration": 0.8121277500000019
                },
                {
                    "name": "F6",
                    "midi": 89,
                    "time": 162.4255499999976,
                    "velocity": 0.7401574803149606,
                    "duration": 0.8121277500000019
                },
                {
                    "name": "F5",
                    "midi": 77,
                    "time": 163.2376777499976,
                    "velocity": 0.5748031496062992,
                    "duration": 0.11601824999999621
                },
                {
                    "name": "F6",
                    "midi": 89,
                    "time": 163.2376777499976,
                    "velocity": 0.6850393700787402,
                    "duration": 0.11601824999999621
                },
                {
                    "name": "G#5",
                    "midi": 80,
                    "time": 163.3536959999976,
                    "velocity": 0.6062992125984252,
                    "duration": 0.34805474999998864
                },
                {
                    "name": "G#6",
                    "midi": 92,
                    "time": 163.3536959999976,
                    "velocity": 0.7165354330708661,
                    "duration": 0.34805474999998864
                },
                {
                    "name": "G#5",
                    "midi": 80,
                    "time": 163.7017507499976,
                    "velocity": 0.5669291338582677,
                    "duration": 0.11601824999999621
                },
                {
                    "name": "G#6",
                    "midi": 92,
                    "time": 163.7017507499976,
                    "velocity": 0.6771653543307087,
                    "duration": 0.11601824999999621
                },
                {
                    "name": "F5",
                    "midi": 77,
                    "time": 163.81776899999758,
                    "velocity": 0.6062992125984252,
                    "duration": 0.34805474999998864
                },
                {
                    "name": "F6",
                    "midi": 89,
                    "time": 163.81776899999758,
                    "velocity": 0.7165354330708661,
                    "duration": 0.34805474999998864
                },
                {
                    "name": "F5",
                    "midi": 77,
                    "time": 164.16582374999757,
                    "velocity": 0.5748031496062992,
                    "duration": 0.11601824999999621
                },
                {
                    "name": "F6",
                    "midi": 89,
                    "time": 164.16582374999757,
                    "velocity": 0.6850393700787402,
                    "duration": 0.11601824999999621
                },
                {
                    "name": "C#5",
                    "midi": 73,
                    "time": 164.28184199999757,
                    "velocity": 0.6062992125984252,
                    "duration": 0.34805474999998864
                },
                {
                    "name": "C#6",
                    "midi": 85,
                    "time": 164.28184199999757,
                    "velocity": 0.7165354330708661,
                    "duration": 0.34805474999998864
                },
                {
                    "name": "C#5",
                    "midi": 73,
                    "time": 164.62989674999756,
                    "velocity": 0.5748031496062992,
                    "duration": 0.11601824999999621
                },
                {
                    "name": "C#6",
                    "midi": 85,
                    "time": 164.62989674999756,
                    "velocity": 0.6850393700787402,
                    "duration": 0.11601824999999621
                },
                {
                    "name": "G#4",
                    "midi": 68,
                    "time": 164.74591499999755,
                    "velocity": 0.5748031496062992,
                    "duration": 0.34805474999998864
                },
                {
                    "name": "G#5",
                    "midi": 80,
                    "time": 164.74591499999755,
                    "velocity": 0.6771653543307087,
                    "duration": 0.34805474999998864
                },
                {
                    "name": "G#4",
                    "midi": 68,
                    "time": 165.09396974999754,
                    "velocity": 0.5354330708661418,
                    "duration": 0.11601824999999621
                },
                {
                    "name": "G#5",
                    "midi": 80,
                    "time": 165.09396974999754,
                    "velocity": 0.6299212598425197,
                    "duration": 0.11601824999999621
                },
                {
                    "name": "C5",
                    "midi": 72,
                    "time": 165.20998799999754,
                    "velocity": 0.5748031496062992,
                    "duration": 0.34805474999998864
                },
                {
                    "name": "C6",
                    "midi": 84,
                    "time": 165.20998799999754,
                    "velocity": 0.6771653543307087,
                    "duration": 0.34805474999998864
                },
                {
                    "name": "C5",
                    "midi": 72,
                    "time": 165.55804274999753,
                    "velocity": 0.5354330708661418,
                    "duration": 0.11601824999999621
                },
                {
                    "name": "C6",
                    "midi": 84,
                    "time": 165.55804274999753,
                    "velocity": 0.6299212598425197,
                    "duration": 0.11601824999999621
                },
                {
                    "name": "G#4",
                    "midi": 68,
                    "time": 165.67406099999752,
                    "velocity": 0.5748031496062992,
                    "duration": 0.34805474999998864
                },
                {
                    "name": "G#5",
                    "midi": 80,
                    "time": 165.67406099999752,
                    "velocity": 0.6771653543307087,
                    "duration": 0.34805474999998864
                },
                {
                    "name": "G#4",
                    "midi": 68,
                    "time": 166.0221157499975,
                    "velocity": 0.5275590551181102,
                    "duration": 0.11601824999999621
                },
                {
                    "name": "G#5",
                    "midi": 80,
                    "time": 166.0221157499975,
                    "velocity": 0.6220472440944882,
                    "duration": 0.11601824999999621
                },
                {
                    "name": "C#5",
                    "midi": 73,
                    "time": 166.1381339999975,
                    "velocity": 0.6220472440944882,
                    "duration": 0.8121277500000019
                },
                {
                    "name": "F5",
                    "midi": 77,
                    "time": 166.1381339999975,
                    "velocity": 0.6220472440944882,
                    "duration": 0.8121277500000019
                },
                {
                    "name": "G#5",
                    "midi": 80,
                    "time": 166.1381339999975,
                    "velocity": 0.6220472440944882,
                    "duration": 0.8121277500000019
                },
                {
                    "name": "C#6",
                    "midi": 85,
                    "time": 166.1381339999975,
                    "velocity": 0.7401574803149606,
                    "duration": 0.8121277500000019
                },
                {
                    "name": "C#5",
                    "midi": 73,
                    "time": 166.9502617499975,
                    "velocity": 0.5433070866141733,
                    "duration": 0.11601824999999621
                },
                {
                    "name": "C#6",
                    "midi": 85,
                    "time": 166.9502617499975,
                    "velocity": 0.6377952755905512,
                    "duration": 0.11601824999999621
                },
                {
                    "name": "F5",
                    "midi": 77,
                    "time": 167.0662799999975,
                    "velocity": 0.5748031496062992,
                    "duration": 0.34805474999998864
                },
                {
                    "name": "F6",
                    "midi": 89,
                    "time": 167.0662799999975,
                    "velocity": 0.6771653543307087,
                    "duration": 0.34805474999998864
                },
                {
                    "name": "F5",
                    "midi": 77,
                    "time": 167.4143347499975,
                    "velocity": 0.5354330708661418,
                    "duration": 0.11601824999999621
                },
                {
                    "name": "F6",
                    "midi": 89,
                    "time": 167.4143347499975,
                    "velocity": 0.6299212598425197,
                    "duration": 0.11601824999999621
                },
                {
                    "name": "C#5",
                    "midi": 73,
                    "time": 167.5303529999975,
                    "velocity": 0.5748031496062992,
                    "duration": 0.34805474999998864
                },
                {
                    "name": "C#6",
                    "midi": 85,
                    "time": 167.5303529999975,
                    "velocity": 0.6771653543307087,
                    "duration": 0.34805474999998864
                },
                {
                    "name": "C#5",
                    "midi": 73,
                    "time": 167.87840774999748,
                    "velocity": 0.5433070866141733,
                    "duration": 0.11601824999999621
                },
                {
                    "name": "C#6",
                    "midi": 85,
                    "time": 167.87840774999748,
                    "velocity": 0.6377952755905512,
                    "duration": 0.11601824999999621
                },
                {
                    "name": "C5",
                    "midi": 72,
                    "time": 167.99442599999747,
                    "velocity": 0.5748031496062992,
                    "duration": 0.34805474999998864
                },
                {
                    "name": "C6",
                    "midi": 84,
                    "time": 167.99442599999747,
                    "velocity": 0.6771653543307087,
                    "duration": 0.34805474999998864
                },
                {
                    "name": "C5",
                    "midi": 72,
                    "time": 168.34248074999746,
                    "velocity": 0.5433070866141733,
                    "duration": 0.11601824999999621
                },
                {
                    "name": "C6",
                    "midi": 84,
                    "time": 168.34248074999746,
                    "velocity": 0.6377952755905512,
                    "duration": 0.11601824999999621
                },
                {
                    "name": "A#4",
                    "midi": 70,
                    "time": 168.45849899999746,
                    "velocity": 0.5433070866141733,
                    "duration": 0.34805474999998864
                },
                {
                    "name": "A#5",
                    "midi": 82,
                    "time": 168.45849899999746,
                    "velocity": 0.6299212598425197,
                    "duration": 0.34805474999998864
                },
                {
                    "name": "A#4",
                    "midi": 70,
                    "time": 168.80655374999745,
                    "velocity": 0.5039370078740157,
                    "duration": 0.11601824999999621
                },
                {
                    "name": "A#5",
                    "midi": 82,
                    "time": 168.80655374999745,
                    "velocity": 0.5984251968503937,
                    "duration": 0.11601824999999621
                },
                {
                    "name": "C5",
                    "midi": 72,
                    "time": 168.92257199999744,
                    "velocity": 0.5433070866141733,
                    "duration": 0.34805474999998864
                },
                {
                    "name": "C6",
                    "midi": 84,
                    "time": 168.92257199999744,
                    "velocity": 0.6299212598425197,
                    "duration": 0.34805474999998864
                },
                {
                    "name": "C5",
                    "midi": 72,
                    "time": 169.27062674999743,
                    "velocity": 0.5039370078740157,
                    "duration": 0.11601824999999621
                },
                {
                    "name": "C6",
                    "midi": 84,
                    "time": 169.27062674999743,
                    "velocity": 0.5984251968503937,
                    "duration": 0.11601824999999621
                },
                {
                    "name": "C5",
                    "midi": 72,
                    "time": 169.38664499999743,
                    "velocity": 0.5433070866141733,
                    "duration": 0.34805474999998864
                },
                {
                    "name": "C6",
                    "midi": 84,
                    "time": 169.38664499999743,
                    "velocity": 0.6299212598425197,
                    "duration": 0.34805474999998864
                },
                {
                    "name": "C5",
                    "midi": 72,
                    "time": 169.73469974999742,
                    "velocity": 0.49606299212598426,
                    "duration": 0.11601824999999621
                },
                {
                    "name": "C6",
                    "midi": 84,
                    "time": 169.73469974999742,
                    "velocity": 0.5905511811023622,
                    "duration": 0.11601824999999621
                },
                {
                    "name": "C5",
                    "midi": 72,
                    "time": 169.8507179999974,
                    "velocity": 0.5196850393700787,
                    "duration": 0.34805474999998864
                },
                {
                    "name": "C6",
                    "midi": 84,
                    "time": 169.8507179999974,
                    "velocity": 0.5984251968503937,
                    "duration": 0.34805474999998864
                },
                {
                    "name": "C5",
                    "midi": 72,
                    "time": 170.1987727499974,
                    "velocity": 0.44881889763779526,
                    "duration": 0.11601824999999621
                },
                {
                    "name": "C6",
                    "midi": 84,
                    "time": 170.1987727499974,
                    "velocity": 0.5354330708661418,
                    "duration": 0.11601824999999621
                },
                {
                    "name": "C5",
                    "midi": 72,
                    "time": 170.3147909999974,
                    "velocity": 0.47244094488188976,
                    "duration": 0.34805474999998864
                },
                {
                    "name": "C6",
                    "midi": 84,
                    "time": 170.3147909999974,
                    "velocity": 0.5590551181102362,
                    "duration": 0.34805474999998864
                },
                {
                    "name": "C5",
                    "midi": 72,
                    "time": 170.6628457499974,
                    "velocity": 0.4015748031496063,
                    "duration": 0.11601824999999621
                },
                {
                    "name": "C6",
                    "midi": 84,
                    "time": 170.6628457499974,
                    "velocity": 0.48031496062992124,
                    "duration": 0.11601824999999621
                },
                {
                    "name": "F5",
                    "midi": 77,
                    "time": 170.77886399999738,
                    "velocity": 0.4566929133858268,
                    "duration": 0.4640730000000133
                },
                {
                    "name": "F5",
                    "midi": 77,
                    "time": 171.5909917499974,
                    "velocity": 0.33858267716535434,
                    "duration": 0.11601824999999621
                },
                {
                    "name": "A5",
                    "midi": 81,
                    "time": 171.70700999999738,
                    "velocity": 0.3779527559055118,
                    "duration": 0.34805474999998864
                },
                {
                    "name": "A5",
                    "midi": 81,
                    "time": 172.05506474999737,
                    "velocity": 0.33858267716535434,
                    "duration": 0.11601824999999621
                },
                {
                    "name": "F5",
                    "midi": 77,
                    "time": 172.17108299999737,
                    "velocity": 0.3779527559055118,
                    "duration": 0.34805474999998864
                },
                {
                    "name": "F5",
                    "midi": 77,
                    "time": 172.51913774999736,
                    "velocity": 0.33070866141732286,
                    "duration": 0.11601824999999621
                },
                {
                    "name": "C5",
                    "midi": 72,
                    "time": 172.63515599999735,
                    "velocity": 0.3779527559055118,
                    "duration": 0.34805474999998864
                },
                {
                    "name": "C5",
                    "midi": 72,
                    "time": 172.98321074999734,
                    "velocity": 0.33858267716535434,
                    "duration": 0.11601824999999621
                },
                {
                    "name": "A4",
                    "midi": 69,
                    "time": 173.09922899999734,
                    "velocity": 0.3779527559055118,
                    "duration": 0.34805474999998864
                },
                {
                    "name": "A4",
                    "midi": 69,
                    "time": 173.44728374999733,
                    "velocity": 0.33858267716535434,
                    "duration": 0.11601824999999621
                },
                {
                    "name": "A#4",
                    "midi": 70,
                    "time": 173.56330199999732,
                    "velocity": 0.3779527559055118,
                    "duration": 0.34805474999998864
                },
                {
                    "name": "A#4",
                    "midi": 70,
                    "time": 173.9113567499973,
                    "velocity": 0.33070866141732286,
                    "duration": 0.11601824999999621
                },
                {
                    "name": "G4",
                    "midi": 67,
                    "time": 174.0273749999973,
                    "velocity": 0.3779527559055118,
                    "duration": 0.34805474999998864
                },
                {
                    "name": "G4",
                    "midi": 67,
                    "time": 174.3754297499973,
                    "velocity": 0.33070866141732286,
                    "duration": 0.11601824999999621
                },
                {
                    "name": "C5",
                    "midi": 72,
                    "time": 174.4914479999973,
                    "velocity": 0.3779527559055118,
                    "duration": 0.34805474999998864
                },
                {
                    "name": "F5",
                    "midi": 77,
                    "time": 174.83950274999728,
                    "velocity": 0.28346456692913385,
                    "duration": 0.11601824999999621
                },
                {
                    "name": "C5",
                    "midi": 72,
                    "time": 174.95552099999728,
                    "velocity": 0.3543307086614173,
                    "duration": 0.23203649999999243
                },
                {
                    "name": "F5",
                    "midi": 77,
                    "time": 175.30357574999726,
                    "velocity": 0.33858267716535434,
                    "duration": 0.11601824999999621
                },
                {
                    "name": "A5",
                    "midi": 81,
                    "time": 175.41959399999726,
                    "velocity": 0.3779527559055118,
                    "duration": 0.34805474999998864
                },
                {
                    "name": "A5",
                    "midi": 81,
                    "time": 175.76764874999725,
                    "velocity": 0.3543307086614173,
                    "duration": 0.11601824999999621
                },
                {
                    "name": "C6",
                    "midi": 84,
                    "time": 175.88366699999725,
                    "velocity": 0.4094488188976378,
                    "duration": 0.34805474999998864
                },
                {
                    "name": "C6",
                    "midi": 84,
                    "time": 176.23172174999723,
                    "velocity": 0.3779527559055118,
                    "duration": 0.11601824999999621
                },
                {
                    "name": "F6",
                    "midi": 89,
                    "time": 176.34773999999723,
                    "velocity": 0.4094488188976378,
                    "duration": 0.34805474999998864
                },
                {
                    "name": "F6",
                    "midi": 89,
                    "time": 176.69579474999722,
                    "velocity": 0.3937007874015748,
                    "duration": 0.11601824999999621
                },
                {
                    "name": "G6",
                    "midi": 91,
                    "time": 176.81181299999722,
                    "velocity": 0.4409448818897638,
                    "duration": 0.34805474999998864
                },
                {
                    "name": "G6",
                    "midi": 91,
                    "time": 177.1598677499972,
                    "velocity": 0.3858267716535433,
                    "duration": 0.11601824999999621
                },
                {
                    "name": "A6",
                    "midi": 93,
                    "time": 177.2758859999972,
                    "velocity": 0.4330708661417323,
                    "duration": 0.34805474999998864
                },
                {
                    "name": "A6",
                    "midi": 93,
                    "time": 177.6239407499972,
                    "velocity": 0.3779527559055118,
                    "duration": 0.11601824999999621
                },
                {
                    "name": "C7",
                    "midi": 96,
                    "time": 177.73995899999719,
                    "velocity": 0.4251968503937008,
                    "duration": 0.34805474999998864
                },
                {
                    "name": "C7",
                    "midi": 96,
                    "time": 178.08801374999717,
                    "velocity": 0.3700787401574803,
                    "duration": 0.11601824999999621
                },
                {
                    "name": "A6",
                    "midi": 93,
                    "time": 178.20403199999717,
                    "velocity": 0.41732283464566927,
                    "duration": 0.23203649999999243
                },
                {
                    "name": "F5",
                    "midi": 77,
                    "time": 179.01615974999717,
                    "velocity": 0.33858267716535434,
                    "duration": 0.11601824999999621
                },
                {
                    "name": "A5",
                    "midi": 81,
                    "time": 179.13217799999717,
                    "velocity": 0.3779527559055118,
                    "duration": 0.34805474999998864
                },
                {
                    "name": "A5",
                    "midi": 81,
                    "time": 179.48023274999716,
                    "velocity": 0.33858267716535434,
                    "duration": 0.11601824999999621
                },
                {
                    "name": "F5",
                    "midi": 77,
                    "time": 179.59625099999715,
                    "velocity": 0.3779527559055118,
                    "duration": 0.34805474999998864
                },
                {
                    "name": "F5",
                    "midi": 77,
                    "time": 179.94430574999714,
                    "velocity": 0.33070866141732286,
                    "duration": 0.11601824999999621
                },
                {
                    "name": "C5",
                    "midi": 72,
                    "time": 180.06032399999714,
                    "velocity": 0.3779527559055118,
                    "duration": 0.34805474999998864
                },
                {
                    "name": "C5",
                    "midi": 72,
                    "time": 180.40837874999713,
                    "velocity": 0.33858267716535434,
                    "duration": 0.11601824999999621
                },
                {
                    "name": "A4",
                    "midi": 69,
                    "time": 180.52439699999712,
                    "velocity": 0.3779527559055118,
                    "duration": 0.34805474999998864
                },
                {
                    "name": "A4",
                    "midi": 69,
                    "time": 180.8724517499971,
                    "velocity": 0.33858267716535434,
                    "duration": 0.11601824999999621
                },
                {
                    "name": "C5",
                    "midi": 72,
                    "time": 180.9884699999971,
                    "velocity": 0.3779527559055118,
                    "duration": 0.34805474999998864
                },
                {
                    "name": "C5",
                    "midi": 72,
                    "time": 181.3365247499971,
                    "velocity": 0.33070866141732286,
                    "duration": 0.11601824999999621
                },
                {
                    "name": "A#4",
                    "midi": 70,
                    "time": 181.4525429999971,
                    "velocity": 0.3779527559055118,
                    "duration": 0.34805474999998864
                },
                {
                    "name": "A#4",
                    "midi": 70,
                    "time": 181.80059774999708,
                    "velocity": 0.33070866141732286,
                    "duration": 0.11601824999999621
                },
                {
                    "name": "A4",
                    "midi": 69,
                    "time": 181.91661599999708,
                    "velocity": 0.3779527559055118,
                    "duration": 0.34805474999998864
                },
                {
                    "name": "F5",
                    "midi": 77,
                    "time": 182.26467074999707,
                    "velocity": 0.28346456692913385,
                    "duration": 0.11601824999999621
                },
                {
                    "name": "C5",
                    "midi": 72,
                    "time": 182.38068899999706,
                    "velocity": 0.3543307086614173,
                    "duration": 0.23203649999999243
                },
                {
                    "name": "F5",
                    "midi": 77,
                    "time": 182.72874374999705,
                    "velocity": 0.33858267716535434,
                    "duration": 0.11601824999999621
                },
                {
                    "name": "A5",
                    "midi": 81,
                    "time": 182.84476199999705,
                    "velocity": 0.3779527559055118,
                    "duration": 0.34805474999998864
                },
                {
                    "name": "A5",
                    "midi": 81,
                    "time": 183.19281674999704,
                    "velocity": 0.3543307086614173,
                    "duration": 0.11601824999999621
                },
                {
                    "name": "C6",
                    "midi": 84,
                    "time": 183.30883499999703,
                    "velocity": 0.4094488188976378,
                    "duration": 0.34805474999998864
                },
                {
                    "name": "C6",
                    "midi": 84,
                    "time": 183.65688974999702,
                    "velocity": 0.3779527559055118,
                    "duration": 0.11601824999999621
                },
                {
                    "name": "F6",
                    "midi": 89,
                    "time": 183.77290799999702,
                    "velocity": 0.4094488188976378,
                    "duration": 0.34805474999998864
                },
                {
                    "name": "F6",
                    "midi": 89,
                    "time": 184.120962749997,
                    "velocity": 0.3937007874015748,
                    "duration": 0.11601824999999621
                },
                {
                    "name": "G6",
                    "midi": 91,
                    "time": 184.236980999997,
                    "velocity": 0.4409448818897638,
                    "duration": 0.34805474999998864
                },
                {
                    "name": "G6",
                    "midi": 91,
                    "time": 184.585035749997,
                    "velocity": 0.3858267716535433,
                    "duration": 0.11601824999999621
                },
                {
                    "name": "A6",
                    "midi": 93,
                    "time": 184.701053999997,
                    "velocity": 0.4330708661417323,
                    "duration": 0.34805474999998864
                },
                {
                    "name": "A6",
                    "midi": 93,
                    "time": 185.04910874999698,
                    "velocity": 0.3779527559055118,
                    "duration": 0.11601824999999621
                },
                {
                    "name": "C7",
                    "midi": 96,
                    "time": 185.16512699999697,
                    "velocity": 0.4251968503937008,
                    "duration": 0.34805474999998864
                },
                {
                    "name": "C7",
                    "midi": 96,
                    "time": 185.51318174999696,
                    "velocity": 0.3700787401574803,
                    "duration": 0.11601824999999621
                },
                {
                    "name": "F7",
                    "midi": 101,
                    "time": 185.62919999999696,
                    "velocity": 0.41732283464566927,
                    "duration": 0.23203649999999243
                },
                {
                    "name": "E6",
                    "midi": 88,
                    "time": 186.44132774999696,
                    "velocity": 0.33858267716535434,
                    "duration": 0.11601824999999621
                },
                {
                    "name": "F6",
                    "midi": 89,
                    "time": 186.55734599999695,
                    "velocity": 0.3779527559055118,
                    "duration": 0.34805474999998864
                },
                {
                    "name": "F6",
                    "midi": 89,
                    "time": 186.90540074999694,
                    "velocity": 0.3543307086614173,
                    "duration": 0.11601824999999621
                },
                {
                    "name": "D#6",
                    "midi": 87,
                    "time": 187.02141899999694,
                    "velocity": 0.4094488188976378,
                    "duration": 0.34805474999998864
                },
                {
                    "name": "D#6",
                    "midi": 87,
                    "time": 187.36947374999693,
                    "velocity": 0.3779527559055118,
                    "duration": 0.11601824999999621
                },
                {
                    "name": "C6",
                    "midi": 84,
                    "time": 187.48549199999692,
                    "velocity": 0.4094488188976378,
                    "duration": 0.34805474999998864
                },
                {
                    "name": "C6",
                    "midi": 84,
                    "time": 187.8335467499969,
                    "velocity": 0.3937007874015748,
                    "duration": 0.11601824999999621
                },
                {
                    "name": "A5",
                    "midi": 81,
                    "time": 187.9495649999969,
                    "velocity": 0.4409448818897638,
                    "duration": 0.34805474999998864
                },
                {
                    "name": "A5",
                    "midi": 81,
                    "time": 188.2976197499969,
                    "velocity": 0.3858267716535433,
                    "duration": 0.11601824999999621
                },
                {
                    "name": "C6",
                    "midi": 84,
                    "time": 188.4136379999969,
                    "velocity": 0.4330708661417323,
                    "duration": 0.34805474999998864
                },
                {
                    "name": "C6",
                    "midi": 84,
                    "time": 188.76169274999688,
                    "velocity": 0.3779527559055118,
                    "duration": 0.11601824999999621
                },
                {
                    "name": "C#6",
                    "midi": 85,
                    "time": 188.87771099999688,
                    "velocity": 0.4251968503937008,
                    "duration": 0.34805474999998864
                },
                {
                    "name": "C#6",
                    "midi": 85,
                    "time": 189.22576574999687,
                    "velocity": 0.3700787401574803,
                    "duration": 0.11601824999999621
                },
                {
                    "name": "D6",
                    "midi": 86,
                    "time": 189.34178399999686,
                    "velocity": 0.4330708661417323,
                    "duration": 0.34805474999998864
                },
                {
                    "name": "D6",
                    "midi": 86,
                    "time": 189.68983874999685,
                    "velocity": 0.3700787401574803,
                    "duration": 0.11601824999999621
                },
                {
                    "name": "D6",
                    "midi": 86,
                    "time": 189.80585699999685,
                    "velocity": 0.4094488188976378,
                    "duration": 0.34805474999998864
                },
                {
                    "name": "D6",
                    "midi": 86,
                    "time": 190.15391174999684,
                    "velocity": 0.3464566929133858,
                    "duration": 0.11601824999999621
                },
                {
                    "name": "D6",
                    "midi": 86,
                    "time": 190.26992999999683,
                    "velocity": 0.4015748031496063,
                    "duration": 0.34805474999998864
                },
                {
                    "name": "D6",
                    "midi": 86,
                    "time": 190.61798474999682,
                    "velocity": 0.33858267716535434,
                    "duration": 0.11601824999999621
                },
                {
                    "name": "D6",
                    "midi": 86,
                    "time": 190.73400299999682,
                    "velocity": 0.3779527559055118,
                    "duration": 0.34805474999998864
                },
                {
                    "name": "D6",
                    "midi": 86,
                    "time": 191.0820577499968,
                    "velocity": 0.31496062992125984,
                    "duration": 0.11601824999999621
                },
                {
                    "name": "D6",
                    "midi": 86,
                    "time": 191.1980759999968,
                    "velocity": 0.3700787401574803,
                    "duration": 0.23203649999999243
                },
                {
                    "name": "D5",
                    "midi": 74,
                    "time": 192.0102037499968,
                    "velocity": 0.3779527559055118,
                    "duration": 0.08701368749999006
                },
                {
                    "name": "D#5",
                    "midi": 75,
                    "time": 192.1262219999968,
                    "velocity": 0.41732283464566927,
                    "duration": 0.23203649999999243
                },
                {
                    "name": "D5",
                    "midi": 74,
                    "time": 192.3582584999968,
                    "velocity": 0.3858267716535433,
                    "duration": 0.23203649999999243
                },
                {
                    "name": "D5",
                    "midi": 74,
                    "time": 192.5902949999968,
                    "velocity": 0.4015748031496063,
                    "duration": 0.11601824999999621
                },
                {
                    "name": "D5",
                    "midi": 74,
                    "time": 192.82233149999678,
                    "velocity": 0.3858267716535433,
                    "duration": 0.11601824999999621
                },
                {
                    "name": "D5",
                    "midi": 74,
                    "time": 193.05436799999677,
                    "velocity": 0.3700787401574803,
                    "duration": 0.23203649999999243
                },
                {
                    "name": "A6",
                    "midi": 93,
                    "time": 193.86649574999677,
                    "velocity": 0.33858267716535434,
                    "duration": 0.11601824999999621
                },
                {
                    "name": "A#6",
                    "midi": 94,
                    "time": 193.98251399999677,
                    "velocity": 0.3779527559055118,
                    "duration": 0.34805474999998864
                },
                {
                    "name": "A#6",
                    "midi": 94,
                    "time": 194.33056874999676,
                    "velocity": 0.3543307086614173,
                    "duration": 0.11601824999999621
                },
                {
                    "name": "G#6",
                    "midi": 92,
                    "time": 194.44658699999675,
                    "velocity": 0.4094488188976378,
                    "duration": 0.34805474999998864
                },
                {
                    "name": "G#6",
                    "midi": 92,
                    "time": 194.79464174999674,
                    "velocity": 0.3779527559055118,
                    "duration": 0.11601824999999621
                },
                {
                    "name": "F6",
                    "midi": 89,
                    "time": 194.91065999999674,
                    "velocity": 0.4094488188976378,
                    "duration": 0.34805474999998864
                },
                {
                    "name": "F6",
                    "midi": 89,
                    "time": 195.25871474999673,
                    "velocity": 0.3779527559055118,
                    "duration": 0.11601824999999621
                },
                {
                    "name": "D6",
                    "midi": 86,
                    "time": 195.37473299999672,
                    "velocity": 0.4251968503937008,
                    "duration": 0.34805474999998864
                },
                {
                    "name": "D6",
                    "midi": 86,
                    "time": 195.7227877499967,
                    "velocity": 0.3858267716535433,
                    "duration": 0.11601824999999621
                },
                {
                    "name": "F6",
                    "midi": 89,
                    "time": 195.8388059999967,
                    "velocity": 0.4251968503937008,
                    "duration": 0.34805474999998864
                },
                {
                    "name": "F6",
                    "midi": 89,
                    "time": 196.1868607499967,
                    "velocity": 0.3779527559055118,
                    "duration": 0.11601824999999621
                },
                {
                    "name": "F#6",
                    "midi": 90,
                    "time": 196.3028789999967,
                    "velocity": 0.4251968503937008,
                    "duration": 0.34805474999998864
                },
                {
                    "name": "F#6",
                    "midi": 90,
                    "time": 196.65093374999668,
                    "velocity": 0.3700787401574803,
                    "duration": 0.11601824999999621
                },
                {
                    "name": "G6",
                    "midi": 91,
                    "time": 196.76695199999668,
                    "velocity": 0.4330708661417323,
                    "duration": 0.34805474999998864
                },
                {
                    "name": "G6",
                    "midi": 91,
                    "time": 197.11500674999667,
                    "velocity": 0.3700787401574803,
                    "duration": 0.11601824999999621
                },
                {
                    "name": "G6",
                    "midi": 91,
                    "time": 197.23102499999666,
                    "velocity": 0.4094488188976378,
                    "duration": 0.34805474999998864
                },
                {
                    "name": "G6",
                    "midi": 91,
                    "time": 197.57907974999665,
                    "velocity": 0.3464566929133858,
                    "duration": 0.11601824999999621
                },
                {
                    "name": "G6",
                    "midi": 91,
                    "time": 197.69509799999665,
                    "velocity": 0.4015748031496063,
                    "duration": 0.34805474999998864
                },
                {
                    "name": "G6",
                    "midi": 91,
                    "time": 198.04315274999664,
                    "velocity": 0.33858267716535434,
                    "duration": 0.11601824999999621
                },
                {
                    "name": "G6",
                    "midi": 91,
                    "time": 198.15917099999663,
                    "velocity": 0.3779527559055118,
                    "duration": 0.34805474999998864
                },
                {
                    "name": "G6",
                    "midi": 91,
                    "time": 198.50722574999662,
                    "velocity": 0.31496062992125984,
                    "duration": 0.11601824999999621
                },
                {
                    "name": "G6",
                    "midi": 91,
                    "time": 198.62324399999662,
                    "velocity": 0.3700787401574803,
                    "duration": 0.23203649999999243
                },
                {
                    "name": "G5",
                    "midi": 79,
                    "time": 199.43537174999662,
                    "velocity": 0.3779527559055118,
                    "duration": 0.08701368749999006
                },
                {
                    "name": "G#5",
                    "midi": 80,
                    "time": 199.55138999999662,
                    "velocity": 0.41732283464566927,
                    "duration": 0.23203649999999243
                },
                {
                    "name": "G5",
                    "midi": 79,
                    "time": 199.7834264999966,
                    "velocity": 0.3858267716535433,
                    "duration": 0.11601824999999621
                },
                {
                    "name": "G5",
                    "midi": 79,
                    "time": 200.0154629999966,
                    "velocity": 0.4015748031496063,
                    "duration": 0.11601824999999621
                },
                {
                    "name": "G5",
                    "midi": 79,
                    "time": 200.2474994999966,
                    "velocity": 0.3858267716535433,
                    "duration": 0.11601824999999621
                },
                {
                    "name": "G5",
                    "midi": 79,
                    "time": 200.47953599999659,
                    "velocity": 0.3700787401574803,
                    "duration": 0.23203649999999243
                },
                {
                    "name": "A#6",
                    "midi": 94,
                    "time": 201.2916637499966,
                    "velocity": 0.3779527559055118,
                    "duration": 0.08701368749999006
                },
                {
                    "name": "G#6",
                    "midi": 92,
                    "time": 201.40768199999658,
                    "velocity": 0.41732283464566927,
                    "duration": 0.23203649999999243
                },
                {
                    "name": "G6",
                    "midi": 91,
                    "time": 201.63971849999658,
                    "velocity": 0.3858267716535433,
                    "duration": 0.11601824999999621
                },
                {
                    "name": "G6",
                    "midi": 91,
                    "time": 201.87175499999657,
                    "velocity": 0.4015748031496063,
                    "duration": 0.11601824999999621
                },
                {
                    "name": "G6",
                    "midi": 91,
                    "time": 202.10379149999656,
                    "velocity": 0.3858267716535433,
                    "duration": 0.11601824999999621
                },
                {
                    "name": "G6",
                    "midi": 91,
                    "time": 202.33582799999655,
                    "velocity": 0.3700787401574803,
                    "duration": 0.23203649999999243
                },
                {
                    "name": "G4",
                    "midi": 67,
                    "time": 203.14795574999656,
                    "velocity": 0.3779527559055118,
                    "duration": 0.08701368749999006
                },
                {
                    "name": "G#4",
                    "midi": 68,
                    "time": 203.26397399999655,
                    "velocity": 0.41732283464566927,
                    "duration": 0.23203649999999243
                },
                {
                    "name": "G4",
                    "midi": 67,
                    "time": 203.49601049999654,
                    "velocity": 0.3858267716535433,
                    "duration": 0.11601824999999621
                },
                {
                    "name": "G4",
                    "midi": 67,
                    "time": 203.72804699999654,
                    "velocity": 0.4015748031496063,
                    "duration": 0.11601824999999621
                },
                {
                    "name": "G4",
                    "midi": 67,
                    "time": 203.96008349999653,
                    "velocity": 0.3858267716535433,
                    "duration": 0.11601824999999621
                },
                {
                    "name": "G4",
                    "midi": 67,
                    "time": 204.19211999999652,
                    "velocity": 0.3700787401574803,
                    "duration": 0.23203649999999243
                },
                {
                    "name": "A#5",
                    "midi": 82,
                    "time": 205.00424774999652,
                    "velocity": 0.3779527559055118,
                    "duration": 0.08701368749999006
                },
                {
                    "name": "G#5",
                    "midi": 80,
                    "time": 205.12026599999652,
                    "velocity": 0.41732283464566927,
                    "duration": 0.23203649999999243
                },
                {
                    "name": "G5",
                    "midi": 79,
                    "time": 205.3523024999965,
                    "velocity": 0.3858267716535433,
                    "duration": 0.11601824999999621
                },
                {
                    "name": "G5",
                    "midi": 79,
                    "time": 205.5843389999965,
                    "velocity": 0.4015748031496063,
                    "duration": 0.11601824999999621
                },
                {
                    "name": "G5",
                    "midi": 79,
                    "time": 205.8163754999965,
                    "velocity": 0.3858267716535433,
                    "duration": 0.11601824999999621
                },
                {
                    "name": "G#5",
                    "midi": 80,
                    "time": 206.0484119999965,
                    "velocity": 0.41732283464566927,
                    "duration": 0.23203649999999243
                },
                {
                    "name": "G5",
                    "midi": 79,
                    "time": 206.28044849999648,
                    "velocity": 0.3858267716535433,
                    "duration": 0.11601824999999621
                },
                {
                    "name": "G5",
                    "midi": 79,
                    "time": 206.51248499999647,
                    "velocity": 0.4015748031496063,
                    "duration": 0.11601824999999621
                },
                {
                    "name": "G5",
                    "midi": 79,
                    "time": 206.74452149999647,
                    "velocity": 0.3858267716535433,
                    "duration": 0.11601824999999621
                },
                {
                    "name": "G5",
                    "midi": 79,
                    "time": 206.97655799999646,
                    "velocity": 0.41732283464566927,
                    "duration": 0.23203649999999243
                },
                {
                    "name": "D5",
                    "midi": 74,
                    "time": 208.71683174999646,
                    "velocity": 0.4094488188976378,
                    "duration": 0.08701368749999006
                },
                {
                    "name": "C5",
                    "midi": 72,
                    "time": 208.83284999999645,
                    "velocity": 0.49606299212598426,
                    "duration": 0.23203649999999243
                },
                {
                    "name": "B4",
                    "midi": 71,
                    "time": 209.06488649999645,
                    "velocity": 0.29133858267716534,
                    "duration": 0.11601824999999621
                },
                {
                    "name": "B4",
                    "midi": 71,
                    "time": 209.29692299999644,
                    "velocity": 0.33858267716535434,
                    "duration": 0.11601824999999621
                },
                {
                    "name": "B4",
                    "midi": 71,
                    "time": 209.52895949999643,
                    "velocity": 0.29133858267716534,
                    "duration": 0.11601824999999621
                },
                {
                    "name": "B4",
                    "midi": 71,
                    "time": 209.76099599999642,
                    "velocity": 0.4330708661417323,
                    "duration": 0.23203649999999243
                },
                {
                    "name": "C5",
                    "midi": 72,
                    "time": 209.99303249999642,
                    "velocity": 0.31496062992125984,
                    "duration": 0.11601824999999621
                },
                {
                    "name": "D#5",
                    "midi": 75,
                    "time": 210.57312374999643,
                    "velocity": 0.4015748031496063,
                    "duration": 0.08701368749999006
                },
                {
                    "name": "C5",
                    "midi": 72,
                    "time": 210.68914199999642,
                    "velocity": 0.49606299212598426,
                    "duration": 0.23203649999999243
                },
                {
                    "name": "B4",
                    "midi": 71,
                    "time": 210.92117849999642,
                    "velocity": 0.29133858267716534,
                    "duration": 0.11601824999999621
                },
                {
                    "name": "B4",
                    "midi": 71,
                    "time": 211.1532149999964,
                    "velocity": 0.3464566929133858,
                    "duration": 0.11601824999999621
                },
                {
                    "name": "B4",
                    "midi": 71,
                    "time": 211.3852514999964,
                    "velocity": 0.29133858267716534,
                    "duration": 0.11601824999999621
                },
                {
                    "name": "B4",
                    "midi": 71,
                    "time": 211.6172879999964,
                    "velocity": 0.44881889763779526,
                    "duration": 0.23203649999999243
                },
                {
                    "name": "C5",
                    "midi": 72,
                    "time": 211.84932449999638,
                    "velocity": 0.3700787401574803,
                    "duration": 0.11601824999999621
                },
                {
                    "name": "D#5",
                    "midi": 75,
                    "time": 212.4294157499964,
                    "velocity": 0.4251968503937008,
                    "duration": 0.08701368749999006
                },
                {
                    "name": "C5",
                    "midi": 72,
                    "time": 212.5454339999964,
                    "velocity": 0.49606299212598426,
                    "duration": 0.23203649999999243
                },
                {
                    "name": "A#4",
                    "midi": 70,
                    "time": 212.77747049999638,
                    "velocity": 0.4094488188976378,
                    "duration": 0.11601824999999621
                },
                {
                    "name": "A#4",
                    "midi": 70,
                    "time": 213.00950699999638,
                    "velocity": 0.4251968503937008,
                    "duration": 0.11601824999999621
                },
                {
                    "name": "A#4",
                    "midi": 70,
                    "time": 213.24154349999637,
                    "velocity": 0.4251968503937008,
                    "duration": 0.11601824999999621
                },
                {
                    "name": "C5",
                    "midi": 72,
                    "time": 213.47357999999636,
                    "velocity": 0.49606299212598426,
                    "duration": 0.23203649999999243
                },
                {
                    "name": "A#4",
                    "midi": 70,
                    "time": 213.70561649999635,
                    "velocity": 0.41732283464566927,
                    "duration": 0.11601824999999621
                },
                {
                    "name": "A#4",
                    "midi": 70,
                    "time": 213.93765299999635,
                    "velocity": 0.4330708661417323,
                    "duration": 0.11601824999999621
                },
                {
                    "name": "A#4",
                    "midi": 70,
                    "time": 214.16968949999634,
                    "velocity": 0.4330708661417323,
                    "duration": 0.11601824999999621
                },
                {
                    "name": "C5",
                    "midi": 72,
                    "time": 214.40172599999633,
                    "velocity": 0.49606299212598426,
                    "duration": 0.11601824999999621
                },
                {
                    "name": "A#4",
                    "midi": 70,
                    "time": 214.51774424999633,
                    "velocity": 0.4094488188976378,
                    "duration": 0.11601824999999621
                },
                {
                    "name": "A4",
                    "midi": 69,
                    "time": 214.63376249999632,
                    "velocity": 0.41732283464566927,
                    "duration": 0.11601824999999621
                },
                {
                    "name": "A#4",
                    "midi": 70,
                    "time": 214.74978074999632,
                    "velocity": 0.41732283464566927,
                    "duration": 0.11601824999999621
                },
                {
                    "name": "C5",
                    "midi": 72,
                    "time": 214.86579899999631,
                    "velocity": 0.4566929133858268,
                    "duration": 0.11601824999999621
                },
                {
                    "name": "D5",
                    "midi": 74,
                    "time": 215.0978354999963,
                    "velocity": 0.4251968503937008,
                    "duration": 0.11601824999999621
                },
                {
                    "name": "A#4",
                    "midi": 70,
                    "time": 215.3298719999963,
                    "velocity": 0.4566929133858268,
                    "duration": 0.23203649999999243
                },
                {
                    "name": "D6",
                    "midi": 86,
                    "time": 217.0701457499963,
                    "velocity": 0.4094488188976378,
                    "duration": 0.08701368749999006
                },
                {
                    "name": "C6",
                    "midi": 84,
                    "time": 217.1861639999963,
                    "velocity": 0.5039370078740157,
                    "duration": 0.23203649999999243
                },
                {
                    "name": "B5",
                    "midi": 83,
                    "time": 217.4182004999963,
                    "velocity": 0.29133858267716534,
                    "duration": 0.11601824999999621
                },
                {
                    "name": "B5",
                    "midi": 83,
                    "time": 217.65023699999628,
                    "velocity": 0.33858267716535434,
                    "duration": 0.11601824999999621
                },
                {
                    "name": "B5",
                    "midi": 83,
                    "time": 217.88227349999627,
                    "velocity": 0.29133858267716534,
                    "duration": 0.11601824999999621
                },
                {
                    "name": "B5",
                    "midi": 83,
                    "time": 218.11430999999627,
                    "velocity": 0.4330708661417323,
                    "duration": 0.23203649999999243
                },
                {
                    "name": "C6",
                    "midi": 84,
                    "time": 218.34634649999626,
                    "velocity": 0.33070866141732286,
                    "duration": 0.11601824999999621
                },
                {
                    "name": "D#6",
                    "midi": 87,
                    "time": 218.92643774999627,
                    "velocity": 0.4015748031496063,
                    "duration": 0.08701368749999006
                },
                {
                    "name": "C6",
                    "midi": 84,
                    "time": 219.04245599999626,
                    "velocity": 0.5039370078740157,
                    "duration": 0.23203649999999243
                },
                {
                    "name": "B5",
                    "midi": 83,
                    "time": 219.27449249999626,
                    "velocity": 0.29133858267716534,
                    "duration": 0.11601824999999621
                },
                {
                    "name": "B5",
                    "midi": 83,
                    "time": 219.50652899999625,
                    "velocity": 0.3464566929133858,
                    "duration": 0.11601824999999621
                },
                {
                    "name": "B5",
                    "midi": 83,
                    "time": 219.73856549999624,
                    "velocity": 0.29133858267716534,
                    "duration": 0.11601824999999621
                },
                {
                    "name": "B5",
                    "midi": 83,
                    "time": 219.97060199999623,
                    "velocity": 0.44881889763779526,
                    "duration": 0.23203649999999243
                },
                {
                    "name": "C6",
                    "midi": 84,
                    "time": 220.20263849999623,
                    "velocity": 0.3700787401574803,
                    "duration": 0.11601824999999621
                },
                {
                    "name": "D#6",
                    "midi": 87,
                    "time": 220.78272974999624,
                    "velocity": 0.4251968503937008,
                    "duration": 0.08701368749999006
                },
                {
                    "name": "C6",
                    "midi": 84,
                    "time": 220.89874799999623,
                    "velocity": 0.5039370078740157,
                    "duration": 0.23203649999999243
                },
                {
                    "name": "A#5",
                    "midi": 82,
                    "time": 221.13078449999622,
                    "velocity": 0.4094488188976378,
                    "duration": 0.11601824999999621
                },
                {
                    "name": "A#5",
                    "midi": 82,
                    "time": 221.36282099999622,
                    "velocity": 0.4251968503937008,
                    "duration": 0.11601824999999621
                },
                {
                    "name": "A#5",
                    "midi": 82,
                    "time": 221.5948574999962,
                    "velocity": 0.4251968503937008,
                    "duration": 0.11601824999999621
                },
                {
                    "name": "C6",
                    "midi": 84,
                    "time": 221.8268939999962,
                    "velocity": 0.5039370078740157,
                    "duration": 0.23203649999999243
                },
                {
                    "name": "A#5",
                    "midi": 82,
                    "time": 222.0589304999962,
                    "velocity": 0.41732283464566927,
                    "duration": 0.11601824999999621
                },
                {
                    "name": "A#5",
                    "midi": 82,
                    "time": 222.2909669999962,
                    "velocity": 0.4330708661417323,
                    "duration": 0.11601824999999621
                },
                {
                    "name": "A#5",
                    "midi": 82,
                    "time": 222.52300349999618,
                    "velocity": 0.4330708661417323,
                    "duration": 0.11601824999999621
                },
                {
                    "name": "C6",
                    "midi": 84,
                    "time": 222.75503999999617,
                    "velocity": 0.5039370078740157,
                    "duration": 0.11601824999999621
                },
                {
                    "name": "A#5",
                    "midi": 82,
                    "time": 222.87105824999617,
                    "velocity": 0.4094488188976378,
                    "duration": 0.11601824999999621
                },
                {
                    "name": "A5",
                    "midi": 81,
                    "time": 222.98707649999616,
                    "velocity": 0.41732283464566927,
                    "duration": 0.11601824999999621
                },
                {
                    "name": "A#5",
                    "midi": 82,
                    "time": 223.10309474999616,
                    "velocity": 0.41732283464566927,
                    "duration": 0.11601824999999621
                },
                {
                    "name": "C6",
                    "midi": 84,
                    "time": 223.21911299999616,
                    "velocity": 0.4566929133858268,
                    "duration": 0.11601824999999621
                },
                {
                    "name": "D6",
                    "midi": 86,
                    "time": 223.45114949999615,
                    "velocity": 0.4251968503937008,
                    "duration": 0.11601824999999621
                },
                {
                    "name": "A#5",
                    "midi": 82,
                    "time": 223.68318599999614,
                    "velocity": 0.4566929133858268,
                    "duration": 0.23203649999999243
                },
                {
                    "name": "D5",
                    "midi": 74,
                    "time": 224.37929549999615,
                    "velocity": 0.44881889763779526,
                    "duration": 0.11601824999999621
                },
                {
                    "name": "G5",
                    "midi": 79,
                    "time": 224.61133199999614,
                    "velocity": 0.47244094488188976,
                    "duration": 0.4640730000000133
                },
                {
                    "name": "D#5",
                    "midi": 75,
                    "time": 225.07540499999615,
                    "velocity": 0.47244094488188976,
                    "duration": 0.4640730000000133
                },
                {
                    "name": "C5",
                    "midi": 72,
                    "time": 225.53947799999617,
                    "velocity": 0.47244094488188976,
                    "duration": 0.4640730000000133
                },
                {
                    "name": "D5",
                    "midi": 74,
                    "time": 226.00355099999618,
                    "velocity": 0.47244094488188976,
                    "duration": 0.11601824999999621
                },
                {
                    "name": "D#5",
                    "midi": 75,
                    "time": 226.23558749999617,
                    "velocity": 0.4566929133858268,
                    "duration": 0.11601824999999621
                },
                {
                    "name": "F5",
                    "midi": 77,
                    "time": 226.46762399999616,
                    "velocity": 0.44881889763779526,
                    "duration": 0.11601824999999621
                },
                {
                    "name": "G5",
                    "midi": 79,
                    "time": 226.58364224999616,
                    "velocity": 0.41732283464566927,
                    "duration": 0.11601824999999621
                },
                {
                    "name": "F5",
                    "midi": 77,
                    "time": 226.69966049999616,
                    "velocity": 0.41732283464566927,
                    "duration": 0.11601824999999621
                },
                {
                    "name": "D#5",
                    "midi": 75,
                    "time": 226.81567874999615,
                    "velocity": 0.41732283464566927,
                    "duration": 0.11601824999999621
                },
                {
                    "name": "D5",
                    "midi": 74,
                    "time": 226.93169699999615,
                    "velocity": 0.4645669291338583,
                    "duration": 0.11601824999999621
                },
                {
                    "name": "D#5",
                    "midi": 75,
                    "time": 227.04771524999614,
                    "velocity": 0.4094488188976378,
                    "duration": 0.11601824999999621
                },
                {
                    "name": "D5",
                    "midi": 74,
                    "time": 227.16373349999614,
                    "velocity": 0.4094488188976378,
                    "duration": 0.11601824999999621
                },
                {
                    "name": "C5",
                    "midi": 72,
                    "time": 227.27975174999614,
                    "velocity": 0.41732283464566927,
                    "duration": 0.11601824999999621
                },
                {
                    "name": "A#4",
                    "midi": 70,
                    "time": 227.39576999999613,
                    "velocity": 0.47244094488188976,
                    "duration": 0.6961095000000057
                },
                {
                    "name": "A#4",
                    "midi": 70,
                    "time": 228.09187949999614,
                    "velocity": 0.44881889763779526,
                    "duration": 0.11601824999999621
                },
                {
                    "name": "D#5",
                    "midi": 75,
                    "time": 228.32391599999613,
                    "velocity": 0.47244094488188976,
                    "duration": 0.4640730000000133
                },
                {
                    "name": "C5",
                    "midi": 72,
                    "time": 228.78798899999614,
                    "velocity": 0.47244094488188976,
                    "duration": 0.4640730000000133
                },
                {
                    "name": "A4",
                    "midi": 69,
                    "time": 229.25206199999616,
                    "velocity": 0.47244094488188976,
                    "duration": 0.4640730000000133
                },
                {
                    "name": "D4",
                    "midi": 62,
                    "time": 229.71613499999617,
                    "velocity": 0.4251968503937008,
                    "duration": 0.11601824999999621
                },
                {
                    "name": "D5",
                    "midi": 74,
                    "time": 229.71613499999617,
                    "velocity": 0.5118110236220472,
                    "duration": 0.11601824999999621
                },
                {
                    "name": "C4",
                    "midi": 60,
                    "time": 229.94817149999616,
                    "velocity": 0.3858267716535433,
                    "duration": 0.11601824999999621
                },
                {
                    "name": "C5",
                    "midi": 72,
                    "time": 229.94817149999616,
                    "velocity": 0.4566929133858268,
                    "duration": 0.11601824999999621
                },
                {
                    "name": "C4",
                    "midi": 60,
                    "time": 230.18020799999616,
                    "velocity": 0.4330708661417323,
                    "duration": 0.23203649999999243
                },
                {
                    "name": "C5",
                    "midi": 72,
                    "time": 230.18020799999616,
                    "velocity": 0.5196850393700787,
                    "duration": 0.23203649999999243
                },
                {
                    "name": "A#3",
                    "midi": 58,
                    "time": 230.41224449999615,
                    "velocity": 0.4015748031496063,
                    "duration": 0.11601824999999621
                },
                {
                    "name": "A#4",
                    "midi": 70,
                    "time": 230.41224449999615,
                    "velocity": 0.47244094488188976,
                    "duration": 0.11601824999999621
                },
                {
                    "name": "A3",
                    "midi": 57,
                    "time": 230.64428099999614,
                    "velocity": 0.4409448818897638,
                    "duration": 0.11601824999999621
                },
                {
                    "name": "A4",
                    "midi": 69,
                    "time": 230.64428099999614,
                    "velocity": 0.5275590551181102,
                    "duration": 0.11601824999999621
                },
                {
                    "name": "G3",
                    "midi": 55,
                    "time": 230.87631749999613,
                    "velocity": 0.4094488188976378,
                    "duration": 0.11601824999999621
                },
                {
                    "name": "G4",
                    "midi": 67,
                    "time": 230.87631749999613,
                    "velocity": 0.48031496062992124,
                    "duration": 0.11601824999999621
                },
                {
                    "name": "A#3",
                    "midi": 58,
                    "time": 231.10835399999613,
                    "velocity": 0.48031496062992124,
                    "duration": 0.23203649999999243
                },
                {
                    "name": "A#4",
                    "midi": 70,
                    "time": 231.10835399999613,
                    "velocity": 0.5748031496062992,
                    "duration": 0.23203649999999243
                },
                {
                    "name": "A4",
                    "midi": 69,
                    "time": 231.34039049999612,
                    "velocity": 0.5196850393700787,
                    "duration": 0.11601824999999621
                },
                {
                    "name": "A3",
                    "midi": 57,
                    "time": 231.34039049999612,
                    "velocity": 0.4330708661417323,
                    "duration": 0.11601824999999621
                },
                {
                    "name": "G3",
                    "midi": 55,
                    "time": 231.5724269999961,
                    "velocity": 0.4645669291338583,
                    "duration": 0.11601824999999621
                },
                {
                    "name": "G4",
                    "midi": 67,
                    "time": 231.5724269999961,
                    "velocity": 0.5590551181102362,
                    "duration": 0.11601824999999621
                },
                {
                    "name": "F#3",
                    "midi": 54,
                    "time": 231.8044634999961,
                    "velocity": 0.4330708661417323,
                    "duration": 0.11601824999999621
                },
                {
                    "name": "F#4",
                    "midi": 66,
                    "time": 231.8044634999961,
                    "velocity": 0.5196850393700787,
                    "duration": 0.11601824999999621
                },
                {
                    "name": "G3",
                    "midi": 55,
                    "time": 232.0364999999961,
                    "velocity": 0.47244094488188976,
                    "duration": 0.23203649999999243
                },
                {
                    "name": "G4",
                    "midi": 67,
                    "time": 232.0364999999961,
                    "velocity": 0.5669291338582677,
                    "duration": 0.23203649999999243
                },
                {
                    "name": "D4",
                    "midi": 62,
                    "time": 232.50057299999608,
                    "velocity": 0.5433070866141733,
                    "duration": 0.6961095000000057
                },
                {
                    "name": "D5",
                    "midi": 74,
                    "time": 232.50057299999608,
                    "velocity": 0.6377952755905512,
                    "duration": 0.6961095000000057
                },
                {
                    "name": "D#4",
                    "midi": 63,
                    "time": 233.1966824999961,
                    "velocity": 0.41732283464566927,
                    "duration": 0.11601824999999621
                },
                {
                    "name": "D#5",
                    "midi": 75,
                    "time": 233.1966824999961,
                    "velocity": 0.5039370078740157,
                    "duration": 0.11601824999999621
                },
                {
                    "name": "D4",
                    "midi": 62,
                    "time": 233.42871899999608,
                    "velocity": 0.44881889763779526,
                    "duration": 0.11601824999999621
                },
                {
                    "name": "D5",
                    "midi": 74,
                    "time": 233.42871899999608,
                    "velocity": 0.5354330708661418,
                    "duration": 0.11601824999999621
                },
                {
                    "name": "C4",
                    "midi": 60,
                    "time": 233.66075549999607,
                    "velocity": 0.41732283464566927,
                    "duration": 0.11601824999999621
                },
                {
                    "name": "C5",
                    "midi": 72,
                    "time": 233.66075549999607,
                    "velocity": 0.5039370078740157,
                    "duration": 0.11601824999999621
                },
                {
                    "name": "C4",
                    "midi": 60,
                    "time": 233.89279199999606,
                    "velocity": 0.4566929133858268,
                    "duration": 0.23203649999999243
                },
                {
                    "name": "C5",
                    "midi": 72,
                    "time": 233.89279199999606,
                    "velocity": 0.5433070866141733,
                    "duration": 0.23203649999999243
                },
                {
                    "name": "A#3",
                    "midi": 58,
                    "time": 234.12482849999606,
                    "velocity": 0.41732283464566927,
                    "duration": 0.11601824999999621
                },
                {
                    "name": "A#4",
                    "midi": 70,
                    "time": 234.12482849999606,
                    "velocity": 0.5039370078740157,
                    "duration": 0.11601824999999621
                },
                {
                    "name": "A3",
                    "midi": 57,
                    "time": 234.35686499999605,
                    "velocity": 0.4566929133858268,
                    "duration": 0.11601824999999621
                },
                {
                    "name": "A4",
                    "midi": 69,
                    "time": 234.35686499999605,
                    "velocity": 0.5433070866141733,
                    "duration": 0.11601824999999621
                },
                {
                    "name": "G3",
                    "midi": 55,
                    "time": 234.58890149999604,
                    "velocity": 0.41732283464566927,
                    "duration": 0.11601824999999621
                },
                {
                    "name": "G4",
                    "midi": 67,
                    "time": 234.58890149999604,
                    "velocity": 0.5039370078740157,
                    "duration": 0.11601824999999621
                },
                {
                    "name": "G#3",
                    "midi": 56,
                    "time": 234.82093799999603,
                    "velocity": 0.47244094488188976,
                    "duration": 0.4640730000000133
                },
                {
                    "name": "G#4",
                    "midi": 68,
                    "time": 234.82093799999603,
                    "velocity": 0.5669291338582677,
                    "duration": 0.4640730000000133
                },
                {
                    "name": "F#3",
                    "midi": 54,
                    "time": 235.28501099999605,
                    "velocity": 0.4330708661417323,
                    "duration": 0.4640730000000133
                },
                {
                    "name": "F#4",
                    "midi": 66,
                    "time": 235.28501099999605,
                    "velocity": 0.5196850393700787,
                    "duration": 0.4640730000000133
                },
                {
                    "name": "G3",
                    "midi": 55,
                    "time": 235.74908399999606,
                    "velocity": 0.4645669291338583,
                    "duration": 0.23203649999999243
                },
                {
                    "name": "G4",
                    "midi": 67,
                    "time": 235.74908399999606,
                    "velocity": 0.5590551181102362,
                    "duration": 0.23203649999999243
                },
                {
                    "name": "A#4",
                    "midi": 70,
                    "time": 236.44519349999607,
                    "velocity": 0.5039370078740157,
                    "duration": 0.11601824999999621
                },
                {
                    "name": "A#5",
                    "midi": 82,
                    "time": 236.44519349999607,
                    "velocity": 0.5984251968503937,
                    "duration": 0.11601824999999621
                },
                {
                    "name": "A4",
                    "midi": 69,
                    "time": 236.67722999999606,
                    "velocity": 0.5590551181102362,
                    "duration": 0.23203649999999243
                },
                {
                    "name": "A5",
                    "midi": 81,
                    "time": 236.67722999999606,
                    "velocity": 0.6614173228346457,
                    "duration": 0.23203649999999243
                },
                {
                    "name": "G4",
                    "midi": 67,
                    "time": 236.90926649999605,
                    "velocity": 0.4251968503937008,
                    "duration": 0.11601824999999621
                },
                {
                    "name": "G5",
                    "midi": 79,
                    "time": 236.90926649999605,
                    "velocity": 0.5118110236220472,
                    "duration": 0.11601824999999621
                },
                {
                    "name": "G4",
                    "midi": 67,
                    "time": 237.14130299999604,
                    "velocity": 0.4645669291338583,
                    "duration": 0.11601824999999621
                },
                {
                    "name": "G5",
                    "midi": 79,
                    "time": 237.14130299999604,
                    "velocity": 0.5590551181102362,
                    "duration": 0.11601824999999621
                },
                {
                    "name": "G4",
                    "midi": 67,
                    "time": 237.37333949999604,
                    "velocity": 0.41732283464566927,
                    "duration": 0.11601824999999621
                },
                {
                    "name": "G5",
                    "midi": 79,
                    "time": 237.37333949999604,
                    "velocity": 0.5039370078740157,
                    "duration": 0.11601824999999621
                },
                {
                    "name": "G4",
                    "midi": 67,
                    "time": 237.60537599999603,
                    "velocity": 0.5511811023622047,
                    "duration": 0.23203649999999243
                },
                {
                    "name": "G5",
                    "midi": 79,
                    "time": 237.60537599999603,
                    "velocity": 0.6456692913385826,
                    "duration": 0.23203649999999243
                },
                {
                    "name": "F#4",
                    "midi": 66,
                    "time": 237.83741249999602,
                    "velocity": 0.5039370078740157,
                    "duration": 0.11601824999999621
                },
                {
                    "name": "F#5",
                    "midi": 78,
                    "time": 237.83741249999602,
                    "velocity": 0.5984251968503937,
                    "duration": 0.11601824999999621
                },
                {
                    "name": "G4",
                    "midi": 67,
                    "time": 238.301485499996,
                    "velocity": 0.5039370078740157,
                    "duration": 0.11601824999999621
                },
                {
                    "name": "G5",
                    "midi": 79,
                    "time": 238.301485499996,
                    "velocity": 0.5984251968503937,
                    "duration": 0.11601824999999621
                },
                {
                    "name": "F4",
                    "midi": 65,
                    "time": 238.533521999996,
                    "velocity": 0.5590551181102362,
                    "duration": 0.23203649999999243
                },
                {
                    "name": "F5",
                    "midi": 77,
                    "time": 238.533521999996,
                    "velocity": 0.6614173228346457,
                    "duration": 0.23203649999999243
                },
                {
                    "name": "E4",
                    "midi": 64,
                    "time": 238.765558499996,
                    "velocity": 0.4251968503937008,
                    "duration": 0.11601824999999621
                },
                {
                    "name": "E5",
                    "midi": 76,
                    "time": 238.765558499996,
                    "velocity": 0.5118110236220472,
                    "duration": 0.11601824999999621
                },
                {
                    "name": "D#4",
                    "midi": 63,
                    "time": 238.99759499999598,
                    "velocity": 0.4645669291338583,
                    "duration": 0.11601824999999621
                },
                {
                    "name": "D#5",
                    "midi": 75,
                    "time": 238.99759499999598,
                    "velocity": 0.5590551181102362,
                    "duration": 0.11601824999999621
                },
                {
                    "name": "D#4",
                    "midi": 63,
                    "time": 239.22963149999597,
                    "velocity": 0.41732283464566927,
                    "duration": 0.11601824999999621
                },
                {
                    "name": "D#5",
                    "midi": 75,
                    "time": 239.22963149999597,
                    "velocity": 0.5039370078740157,
                    "duration": 0.11601824999999621
                },
                {
                    "name": "D#4",
                    "midi": 63,
                    "time": 239.46166799999597,
                    "velocity": 0.5511811023622047,
                    "duration": 0.23203649999999243
                },
                {
                    "name": "D#5",
                    "midi": 75,
                    "time": 239.46166799999597,
                    "velocity": 0.6456692913385826,
                    "duration": 0.23203649999999243
                },
                {
                    "name": "D4",
                    "midi": 62,
                    "time": 239.69370449999596,
                    "velocity": 0.5039370078740157,
                    "duration": 0.11601824999999621
                },
                {
                    "name": "D5",
                    "midi": 74,
                    "time": 239.69370449999596,
                    "velocity": 0.5984251968503937,
                    "duration": 0.11601824999999621
                },
                {
                    "name": "D5",
                    "midi": 74,
                    "time": 239.92574099999595,
                    "velocity": 0.5196850393700787,
                    "duration": 0.4640730000000133
                },
                {
                    "name": "D6",
                    "midi": 86,
                    "time": 239.92574099999595,
                    "velocity": 0.6141732283464567,
                    "duration": 0.4640730000000133
                },
                {
                    "name": "D#5",
                    "midi": 75,
                    "time": 240.38981399999597,
                    "velocity": 0.5118110236220472,
                    "duration": 0.4640730000000133
                },
                {
                    "name": "D#6",
                    "midi": 87,
                    "time": 240.38981399999597,
                    "velocity": 0.6062992125984252,
                    "duration": 0.4640730000000133
                },
                {
                    "name": "C#5",
                    "midi": 73,
                    "time": 240.85388699999598,
                    "velocity": 0.44881889763779526,
                    "duration": 0.4640730000000133
                },
                {
                    "name": "C#6",
                    "midi": 85,
                    "time": 240.85388699999598,
                    "velocity": 0.5433070866141733,
                    "duration": 0.4640730000000133
                },
                {
                    "name": "D5",
                    "midi": 74,
                    "time": 241.317959999996,
                    "velocity": 0.44881889763779526,
                    "duration": 0.4640730000000133
                },
                {
                    "name": "D6",
                    "midi": 86,
                    "time": 241.317959999996,
                    "velocity": 0.5433070866141733,
                    "duration": 0.4640730000000133
                },
                {
                    "name": "B5",
                    "midi": 83,
                    "time": 241.782032999996,
                    "velocity": 0.6377952755905512,
                    "duration": 0.1546910000000139
                },
                {
                    "name": "B4",
                    "midi": 71,
                    "time": 241.93672399999602,
                    "velocity": 0.5433070866141733,
                    "duration": 0.1546910000000139
                },
                {
                    "name": "B5",
                    "midi": 83,
                    "time": 242.09141499999603,
                    "velocity": 0.5433070866141733,
                    "duration": 0.1546910000000139
                },
                {
                    "name": "C6",
                    "midi": 84,
                    "time": 242.24610599999605,
                    "velocity": 0.6141732283464567,
                    "duration": 0.1546910000000139
                },
                {
                    "name": "C5",
                    "midi": 72,
                    "time": 242.40079699999606,
                    "velocity": 0.5433070866141733,
                    "duration": 0.1546910000000139
                },
                {
                    "name": "C6",
                    "midi": 84,
                    "time": 242.55548799999607,
                    "velocity": 0.5433070866141733,
                    "duration": 0.1546910000000139
                },
                {
                    "name": "A5",
                    "midi": 81,
                    "time": 242.7101789999961,
                    "velocity": 0.5984251968503937,
                    "duration": 0.1546910000000139
                },
                {
                    "name": "A4",
                    "midi": 69,
                    "time": 242.8648699999961,
                    "velocity": 0.5433070866141733,
                    "duration": 0.1546910000000139
                },
                {
                    "name": "A5",
                    "midi": 81,
                    "time": 243.01956099999612,
                    "velocity": 0.5433070866141733,
                    "duration": 0.1546910000000139
                },
                {
                    "name": "A#5",
                    "midi": 82,
                    "time": 243.17425199999613,
                    "velocity": 0.6062992125984252,
                    "duration": 0.1546910000000139
                },
                {
                    "name": "A#4",
                    "midi": 70,
                    "time": 243.32894299999614,
                    "velocity": 0.5511811023622047,
                    "duration": 0.1546910000000139
                },
                {
                    "name": "A#5",
                    "midi": 82,
                    "time": 243.48363399999616,
                    "velocity": 0.5511811023622047,
                    "duration": 0.1546910000000139
                },
                {
                    "name": "G5",
                    "midi": 79,
                    "time": 243.63832499999617,
                    "velocity": 0.48031496062992124,
                    "duration": 0.1546910000000139
                },
                {
                    "name": "A5",
                    "midi": 81,
                    "time": 243.63832499999617,
                    "velocity": 0.6062992125984252,
                    "duration": 0.1546910000000139
                },
                {
                    "name": "A4",
                    "midi": 69,
                    "time": 243.7930159999962,
                    "velocity": 0.5511811023622047,
                    "duration": 0.1546910000000139
                },
                {
                    "name": "G5",
                    "midi": 79,
                    "time": 243.9477069999962,
                    "velocity": 0.4330708661417323,
                    "duration": 0.1546910000000139
                },
                {
                    "name": "A5",
                    "midi": 81,
                    "time": 243.9477069999962,
                    "velocity": 0.5511811023622047,
                    "duration": 0.1546910000000139
                },
                {
                    "name": "G5",
                    "midi": 79,
                    "time": 244.1023979999962,
                    "velocity": 0.48031496062992124,
                    "duration": 0.1546910000000139
                },
                {
                    "name": "A5",
                    "midi": 81,
                    "time": 244.1023979999962,
                    "velocity": 0.6062992125984252,
                    "duration": 0.1546910000000139
                },
                {
                    "name": "A4",
                    "midi": 69,
                    "time": 244.25708899999623,
                    "velocity": 0.5511811023622047,
                    "duration": 0.1546910000000139
                },
                {
                    "name": "G5",
                    "midi": 79,
                    "time": 244.41177999999624,
                    "velocity": 0.4330708661417323,
                    "duration": 0.1546910000000139
                },
                {
                    "name": "A5",
                    "midi": 81,
                    "time": 244.41177999999624,
                    "velocity": 0.5511811023622047,
                    "duration": 0.1546910000000139
                },
                {
                    "name": "G5",
                    "midi": 79,
                    "time": 244.56647099999626,
                    "velocity": 0.48031496062992124,
                    "duration": 0.1546910000000139
                },
                {
                    "name": "A5",
                    "midi": 81,
                    "time": 244.56647099999626,
                    "velocity": 0.6062992125984252,
                    "duration": 0.1546910000000139
                },
                {
                    "name": "A4",
                    "midi": 69,
                    "time": 244.72116199999627,
                    "velocity": 0.5511811023622047,
                    "duration": 0.1546910000000139
                },
                {
                    "name": "G5",
                    "midi": 79,
                    "time": 244.87585299999628,
                    "velocity": 0.44881889763779526,
                    "duration": 0.1546910000000139
                },
                {
                    "name": "A5",
                    "midi": 81,
                    "time": 244.87585299999628,
                    "velocity": 0.5669291338582677,
                    "duration": 0.1546910000000139
                },
                {
                    "name": "F#5",
                    "midi": 78,
                    "time": 245.0305439999963,
                    "velocity": 0.5748031496062992,
                    "duration": 0.4640730000000133
                },
                {
                    "name": "A5",
                    "midi": 81,
                    "time": 245.0305439999963,
                    "velocity": 0.6062992125984252,
                    "duration": 0.4640730000000133
                },
                {
                    "name": "D5",
                    "midi": 74,
                    "time": 245.7266534999963,
                    "velocity": 0.5433070866141733,
                    "duration": 0.23203649999999243
                },
                {
                    "name": "D6",
                    "midi": 86,
                    "time": 245.7266534999963,
                    "velocity": 0.6377952755905512,
                    "duration": 0.23203649999999243
                },
                {
                    "name": "D#5",
                    "midi": 75,
                    "time": 245.9586899999963,
                    "velocity": 0.5354330708661418,
                    "duration": 0.4640730000000133
                },
                {
                    "name": "D#6",
                    "midi": 87,
                    "time": 245.9586899999963,
                    "velocity": 0.6299212598425197,
                    "duration": 0.4640730000000133
                },
                {
                    "name": "C#5",
                    "midi": 73,
                    "time": 246.4227629999963,
                    "velocity": 0.48031496062992124,
                    "duration": 0.4640730000000133
                },
                {
                    "name": "C#6",
                    "midi": 85,
                    "time": 246.4227629999963,
                    "velocity": 0.5905511811023622,
                    "duration": 0.4640730000000133
                },
                {
                    "name": "D5",
                    "midi": 74,
                    "time": 246.88683599999632,
                    "velocity": 0.48031496062992124,
                    "duration": 0.4640730000000133
                },
                {
                    "name": "D6",
                    "midi": 86,
                    "time": 246.88683599999632,
                    "velocity": 0.5905511811023622,
                    "duration": 0.4640730000000133
                },
                {
                    "name": "D5",
                    "midi": 74,
                    "time": 247.58294549999633,
                    "velocity": 0.3464566929133858,
                    "duration": 0.23203649999999243
                },
                {
                    "name": "D6",
                    "midi": 86,
                    "time": 247.58294549999633,
                    "velocity": 0.4094488188976378,
                    "duration": 0.23203649999999243
                },
                {
                    "name": "C5",
                    "midi": 72,
                    "time": 247.81498199999632,
                    "velocity": 0.41732283464566927,
                    "duration": 0.23203649999999243
                },
                {
                    "name": "C6",
                    "midi": 84,
                    "time": 247.81498199999632,
                    "velocity": 0.5039370078740157,
                    "duration": 0.23203649999999243
                },
                {
                    "name": "B4",
                    "midi": 71,
                    "time": 248.0470184999963,
                    "velocity": 0.2755905511811024,
                    "duration": 0.11601824999999621
                },
                {
                    "name": "B5",
                    "midi": 83,
                    "time": 248.0470184999963,
                    "velocity": 0.33070866141732286,
                    "duration": 0.11601824999999621
                },
                {
                    "name": "B4",
                    "midi": 71,
                    "time": 248.2790549999963,
                    "velocity": 0.31496062992125984,
                    "duration": 0.11601824999999621
                },
                {
                    "name": "B5",
                    "midi": 83,
                    "time": 248.2790549999963,
                    "velocity": 0.3779527559055118,
                    "duration": 0.11601824999999621
                },
                {
                    "name": "B4",
                    "midi": 71,
                    "time": 248.5110914999963,
                    "velocity": 0.2755905511811024,
                    "duration": 0.11601824999999621
                },
                {
                    "name": "B5",
                    "midi": 83,
                    "time": 248.5110914999963,
                    "velocity": 0.33858267716535434,
                    "duration": 0.11601824999999621
                },
                {
                    "name": "B4",
                    "midi": 71,
                    "time": 248.7431279999963,
                    "velocity": 0.3700787401574803,
                    "duration": 0.23203649999999243
                },
                {
                    "name": "B5",
                    "midi": 83,
                    "time": 248.7431279999963,
                    "velocity": 0.4330708661417323,
                    "duration": 0.23203649999999243
                },
                {
                    "name": "C5",
                    "midi": 72,
                    "time": 248.97516449999628,
                    "velocity": 0.2755905511811024,
                    "duration": 0.11601824999999621
                },
                {
                    "name": "C6",
                    "midi": 84,
                    "time": 248.97516449999628,
                    "velocity": 0.33070866141732286,
                    "duration": 0.11601824999999621
                },
                {
                    "name": "C5",
                    "midi": 72,
                    "time": 249.43923749999627,
                    "velocity": 0.5433070866141733,
                    "duration": 0.23203649999999243
                },
                {
                    "name": "C6",
                    "midi": 84,
                    "time": 249.43923749999627,
                    "velocity": 0.6377952755905512,
                    "duration": 0.23203649999999243
                },
                {
                    "name": "C#5",
                    "midi": 73,
                    "time": 249.67127399999626,
                    "velocity": 0.5354330708661418,
                    "duration": 0.4640730000000133
                },
                {
                    "name": "C#6",
                    "midi": 85,
                    "time": 249.67127399999626,
                    "velocity": 0.6299212598425197,
                    "duration": 0.4640730000000133
                },
                {
                    "name": "B4",
                    "midi": 71,
                    "time": 250.13534699999627,
                    "velocity": 0.4645669291338583,
                    "duration": 0.4640730000000133
                },
                {
                    "name": "B5",
                    "midi": 83,
                    "time": 250.13534699999627,
                    "velocity": 0.5669291338582677,
                    "duration": 0.4640730000000133
                },
                {
                    "name": "C5",
                    "midi": 72,
                    "time": 250.5994199999963,
                    "velocity": 0.4645669291338583,
                    "duration": 0.4640730000000133
                },
                {
                    "name": "C6",
                    "midi": 84,
                    "time": 250.5994199999963,
                    "velocity": 0.5669291338582677,
                    "duration": 0.4640730000000133
                },
                {
                    "name": "C5",
                    "midi": 72,
                    "time": 251.2955294999963,
                    "velocity": 0.3464566929133858,
                    "duration": 0.23203649999999243
                },
                {
                    "name": "C6",
                    "midi": 84,
                    "time": 251.2955294999963,
                    "velocity": 0.4094488188976378,
                    "duration": 0.23203649999999243
                },
                {
                    "name": "A#4",
                    "midi": 70,
                    "time": 251.52756599999628,
                    "velocity": 0.41732283464566927,
                    "duration": 0.23203649999999243
                },
                {
                    "name": "A#5",
                    "midi": 82,
                    "time": 251.52756599999628,
                    "velocity": 0.5039370078740157,
                    "duration": 0.23203649999999243
                },
                {
                    "name": "A4",
                    "midi": 69,
                    "time": 251.75960249999628,
                    "velocity": 0.2755905511811024,
                    "duration": 0.11601824999999621
                },
                {
                    "name": "A5",
                    "midi": 81,
                    "time": 251.75960249999628,
                    "velocity": 0.33070866141732286,
                    "duration": 0.11601824999999621
                },
                {
                    "name": "A4",
                    "midi": 69,
                    "time": 251.99163899999627,
                    "velocity": 0.31496062992125984,
                    "duration": 0.11601824999999621
                },
                {
                    "name": "A5",
                    "midi": 81,
                    "time": 251.99163899999627,
                    "velocity": 0.3779527559055118,
                    "duration": 0.11601824999999621
                },
                {
                    "name": "A4",
                    "midi": 69,
                    "time": 252.22367549999626,
                    "velocity": 0.2755905511811024,
                    "duration": 0.11601824999999621
                },
                {
                    "name": "A5",
                    "midi": 81,
                    "time": 252.22367549999626,
                    "velocity": 0.33858267716535434,
                    "duration": 0.11601824999999621
                },
                {
                    "name": "A4",
                    "midi": 69,
                    "time": 252.45571199999625,
                    "velocity": 0.3700787401574803,
                    "duration": 0.23203649999999243
                },
                {
                    "name": "A5",
                    "midi": 81,
                    "time": 252.45571199999625,
                    "velocity": 0.4330708661417323,
                    "duration": 0.23203649999999243
                },
                {
                    "name": "A#4",
                    "midi": 70,
                    "time": 252.68774849999625,
                    "velocity": 0.2755905511811024,
                    "duration": 0.11601824999999621
                },
                {
                    "name": "A#5",
                    "midi": 82,
                    "time": 252.68774849999625,
                    "velocity": 0.33070866141732286,
                    "duration": 0.11601824999999621
                },
                {
                    "name": "D5",
                    "midi": 74,
                    "time": 253.15182149999623,
                    "velocity": 0.3464566929133858,
                    "duration": 0.23203649999999243
                },
                {
                    "name": "F5",
                    "midi": 77,
                    "time": 253.38385799999622,
                    "velocity": 0.3700787401574803,
                    "duration": 0.1546910000000139
                },
                {
                    "name": "D#5",
                    "midi": 75,
                    "time": 253.53854899999624,
                    "velocity": 0.31496062992125984,
                    "duration": 0.1546910000000139
                },
                {
                    "name": "F4",
                    "midi": 65,
                    "time": 253.69323999999625,
                    "velocity": 0.31496062992125984,
                    "duration": 0.1546910000000139
                },
                {
                    "name": "F5",
                    "midi": 77,
                    "time": 253.84793099999627,
                    "velocity": 0.3700787401574803,
                    "duration": 0.1546910000000139
                },
                {
                    "name": "C5",
                    "midi": 72,
                    "time": 254.00262199999628,
                    "velocity": 0.30708661417322836,
                    "duration": 0.1546910000000139
                },
                {
                    "name": "F4",
                    "midi": 65,
                    "time": 254.1573129999963,
                    "velocity": 0.31496062992125984,
                    "duration": 0.1546910000000139
                },
                {
                    "name": "F5",
                    "midi": 77,
                    "time": 254.3120039999963,
                    "velocity": 0.3700787401574803,
                    "duration": 0.1546910000000139
                },
                {
                    "name": "D5",
                    "midi": 74,
                    "time": 254.46669499999632,
                    "velocity": 0.33070866141732286,
                    "duration": 0.1546910000000139
                },
                {
                    "name": "F4",
                    "midi": 65,
                    "time": 254.62138599999633,
                    "velocity": 0.31496062992125984,
                    "duration": 0.1546910000000139
                },
                {
                    "name": "A#5",
                    "midi": 82,
                    "time": 254.77607699999635,
                    "velocity": 0.3700787401574803,
                    "duration": 0.1546910000000139
                },
                {
                    "name": "F5",
                    "midi": 77,
                    "time": 254.93076799999636,
                    "velocity": 0.2992125984251969,
                    "duration": 0.1546910000000139
                },
                {
                    "name": "A#4",
                    "midi": 70,
                    "time": 255.08545899999638,
                    "velocity": 0.2992125984251969,
                    "duration": 0.1546910000000139
                },
                {
                    "name": "C6",
                    "midi": 84,
                    "time": 255.2401499999964,
                    "velocity": 0.3700787401574803,
                    "duration": 0.1546910000000139
                },
                {
                    "name": "F5",
                    "midi": 77,
                    "time": 255.3948409999964,
                    "velocity": 0.30708661417322836,
                    "duration": 0.1546910000000139
                },
                {
                    "name": "C5",
                    "midi": 72,
                    "time": 255.54953199999642,
                    "velocity": 0.30708661417322836,
                    "duration": 0.1546910000000139
                },
                {
                    "name": "A5",
                    "midi": 81,
                    "time": 255.70422299999643,
                    "velocity": 0.3700787401574803,
                    "duration": 0.1546910000000139
                },
                {
                    "name": "F5",
                    "midi": 77,
                    "time": 255.85891399999645,
                    "velocity": 0.2992125984251969,
                    "duration": 0.1546910000000139
                },
                {
                    "name": "A4",
                    "midi": 69,
                    "time": 256.01360499999646,
                    "velocity": 0.2992125984251969,
                    "duration": 0.1546910000000139
                },
                {
                    "name": "A#5",
                    "midi": 82,
                    "time": 256.1682959999965,
                    "velocity": 0.3700787401574803,
                    "duration": 0.1546910000000139
                },
                {
                    "name": "F5",
                    "midi": 77,
                    "time": 256.3229869999965,
                    "velocity": 0.30708661417322836,
                    "duration": 0.1546910000000139
                },
                {
                    "name": "A#4",
                    "midi": 70,
                    "time": 256.4776779999965,
                    "velocity": 0.31496062992125984,
                    "duration": 0.1546910000000139
                },
                {
                    "name": "F5",
                    "midi": 77,
                    "time": 256.6323689999965,
                    "velocity": 0.3464566929133858,
                    "duration": 0.1546910000000139
                },
                {
                    "name": "D5",
                    "midi": 74,
                    "time": 256.78705999999653,
                    "velocity": 0.29133858267716534,
                    "duration": 0.1546910000000139
                },
                {
                    "name": "F4",
                    "midi": 65,
                    "time": 256.94175099999654,
                    "velocity": 0.29133858267716534,
                    "duration": 0.1546910000000139
                },
                {
                    "name": "F5",
                    "midi": 77,
                    "time": 257.09644199999656,
                    "velocity": 0.3700787401574803,
                    "duration": 0.1546910000000139
                },
                {
                    "name": "D#5",
                    "midi": 75,
                    "time": 257.25113299999657,
                    "velocity": 0.31496062992125984,
                    "duration": 0.1546910000000139
                },
                {
                    "name": "F4",
                    "midi": 65,
                    "time": 257.4058239999966,
                    "velocity": 0.31496062992125984,
                    "duration": 0.1546910000000139
                },
                {
                    "name": "F5",
                    "midi": 77,
                    "time": 257.5605149999966,
                    "velocity": 0.3700787401574803,
                    "duration": 0.1546910000000139
                },
                {
                    "name": "C5",
                    "midi": 72,
                    "time": 257.7152059999966,
                    "velocity": 0.30708661417322836,
                    "duration": 0.1546910000000139
                },
                {
                    "name": "F4",
                    "midi": 65,
                    "time": 257.8698969999966,
                    "velocity": 0.31496062992125984,
                    "duration": 0.1546910000000139
                },
                {
                    "name": "F5",
                    "midi": 77,
                    "time": 258.02458799999664,
                    "velocity": 0.3700787401574803,
                    "duration": 0.1546910000000139
                },
                {
                    "name": "D5",
                    "midi": 74,
                    "time": 258.17927899999665,
                    "velocity": 0.33070866141732286,
                    "duration": 0.1546910000000139
                },
                {
                    "name": "F4",
                    "midi": 65,
                    "time": 258.33396999999667,
                    "velocity": 0.31496062992125984,
                    "duration": 0.1546910000000139
                },
                {
                    "name": "A#5",
                    "midi": 82,
                    "time": 258.4886609999967,
                    "velocity": 0.3700787401574803,
                    "duration": 0.1546910000000139
                },
                {
                    "name": "F5",
                    "midi": 77,
                    "time": 258.6433519999967,
                    "velocity": 0.2992125984251969,
                    "duration": 0.1546910000000139
                },
                {
                    "name": "A#4",
                    "midi": 70,
                    "time": 258.7980429999967,
                    "velocity": 0.2992125984251969,
                    "duration": 0.1546910000000139
                },
                {
                    "name": "C6",
                    "midi": 84,
                    "time": 258.9527339999967,
                    "velocity": 0.3700787401574803,
                    "duration": 0.1546910000000139
                },
                {
                    "name": "F5",
                    "midi": 77,
                    "time": 259.10742499999674,
                    "velocity": 0.30708661417322836,
                    "duration": 0.1546910000000139
                },
                {
                    "name": "C5",
                    "midi": 72,
                    "time": 259.26211599999675,
                    "velocity": 0.30708661417322836,
                    "duration": 0.1546910000000139
                },
                {
                    "name": "A5",
                    "midi": 81,
                    "time": 259.41680699999677,
                    "velocity": 0.3700787401574803,
                    "duration": 0.1546910000000139
                },
                {
                    "name": "F5",
                    "midi": 77,
                    "time": 259.5714979999968,
                    "velocity": 0.2992125984251969,
                    "duration": 0.1546910000000139
                },
                {
                    "name": "A4",
                    "midi": 69,
                    "time": 259.7261889999968,
                    "velocity": 0.2992125984251969,
                    "duration": 0.1546910000000139
                },
                {
                    "name": "A#5",
                    "midi": 82,
                    "time": 259.8808799999968,
                    "velocity": 0.3700787401574803,
                    "duration": 0.1546910000000139
                },
                {
                    "name": "F5",
                    "midi": 77,
                    "time": 260.0355709999968,
                    "velocity": 0.30708661417322836,
                    "duration": 0.1546910000000139
                },
                {
                    "name": "A#4",
                    "midi": 70,
                    "time": 260.19026199999684,
                    "velocity": 0.31496062992125984,
                    "duration": 0.1546910000000139
                },
                {
                    "name": "F5",
                    "midi": 77,
                    "time": 260.34495299999685,
                    "velocity": 0.5905511811023622,
                    "duration": 0.1546910000000139
                },
                {
                    "name": "D5",
                    "midi": 74,
                    "time": 260.49964399999686,
                    "velocity": 0.5196850393700787,
                    "duration": 0.1546910000000139
                },
                {
                    "name": "F4",
                    "midi": 65,
                    "time": 260.6543349999969,
                    "velocity": 0.5118110236220472,
                    "duration": 0.1546910000000139
                },
                {
                    "name": "F4",
                    "midi": 65,
                    "time": 260.8090259999969,
                    "velocity": 0.5748031496062992,
                    "duration": 0.4640730000000417
                },
                {
                    "name": "G#4",
                    "midi": 68,
                    "time": 260.8090259999969,
                    "velocity": 0.5748031496062992,
                    "duration": 0.4640730000000417
                },
                {
                    "name": "D#5",
                    "midi": 75,
                    "time": 260.8090259999969,
                    "velocity": 0.6850393700787402,
                    "duration": 0.23203649999999243
                },
                {
                    "name": "C#5",
                    "midi": 73,
                    "time": 261.0410624999969,
                    "velocity": 0.5984251968503937,
                    "duration": 0.11601825000002464
                },
                {
                    "name": "F4",
                    "midi": 65,
                    "time": 261.27309899999693,
                    "velocity": 0.5275590551181102,
                    "duration": 0.11601825000002464
                },
                {
                    "name": "B4",
                    "midi": 71,
                    "time": 261.27309899999693,
                    "velocity": 0.6299212598425197,
                    "duration": 0.11601825000002464
                },
                {
                    "name": "C#5",
                    "midi": 73,
                    "time": 261.27309899999693,
                    "velocity": 0.6299212598425197,
                    "duration": 0.11601825000002464
                },
                {
                    "name": "F4",
                    "midi": 65,
                    "time": 261.505135499997,
                    "velocity": 0.4645669291338583,
                    "duration": 0.11601825000002464
                },
                {
                    "name": "B4",
                    "midi": 71,
                    "time": 261.505135499997,
                    "velocity": 0.5590551181102362,
                    "duration": 0.11601825000002464
                },
                {
                    "name": "C#5",
                    "midi": 73,
                    "time": 261.505135499997,
                    "velocity": 0.5590551181102362,
                    "duration": 0.11601825000002464
                },
                {
                    "name": "F#4",
                    "midi": 66,
                    "time": 261.73717199999703,
                    "velocity": 0.5118110236220472,
                    "duration": 0.46407299999998486
                },
                {
                    "name": "A#4",
                    "midi": 70,
                    "time": 261.73717199999703,
                    "velocity": 0.5118110236220472,
                    "duration": 0.46407299999998486
                },
                {
                    "name": "C#5",
                    "midi": 73,
                    "time": 261.73717199999703,
                    "velocity": 0.6062992125984252,
                    "duration": 0.23203649999999243
                },
                {
                    "name": "F#5",
                    "midi": 78,
                    "time": 261.969208499997,
                    "velocity": 0.5590551181102362,
                    "duration": 0.23203649999999243
                },
                {
                    "name": "A#5",
                    "midi": 82,
                    "time": 262.201244999997,
                    "velocity": 0.6299212598425197,
                    "duration": 0.1546910000000139
                },
                {
                    "name": "C#6",
                    "midi": 85,
                    "time": 262.35593599999703,
                    "velocity": 0.47244094488188976,
                    "duration": 0.1546910000000139
                },
                {
                    "name": "F#6",
                    "midi": 90,
                    "time": 262.51062699999704,
                    "velocity": 0.47244094488188976,
                    "duration": 0.1546910000000139
                },
                {
                    "name": "C#6",
                    "midi": 85,
                    "time": 262.66531799999706,
                    "velocity": 0.5118110236220472,
                    "duration": 0.1546910000000139
                },
                {
                    "name": "G#6",
                    "midi": 92,
                    "time": 262.66531799999706,
                    "velocity": 0.6062992125984252,
                    "duration": 0.1546910000000139
                },
                {
                    "name": "G#5",
                    "midi": 80,
                    "time": 262.82000899999707,
                    "velocity": 0.48031496062992124,
                    "duration": 0.1546910000000139
                },
                {
                    "name": "C#6",
                    "midi": 85,
                    "time": 262.9746999999971,
                    "velocity": 0.4015748031496063,
                    "duration": 0.1546910000000139
                },
                {
                    "name": "G#6",
                    "midi": 92,
                    "time": 262.9746999999971,
                    "velocity": 0.48031496062992124,
                    "duration": 0.1546910000000139
                },
                {
                    "name": "C#6",
                    "midi": 85,
                    "time": 263.1293909999971,
                    "velocity": 0.5196850393700787,
                    "duration": 0.1546910000000139
                },
                {
                    "name": "F6",
                    "midi": 89,
                    "time": 263.1293909999971,
                    "velocity": 0.6141732283464567,
                    "duration": 0.1546910000000139
                },
                {
                    "name": "F5",
                    "midi": 77,
                    "time": 263.2840819999971,
                    "velocity": 0.4566929133858268,
                    "duration": 0.1546910000000139
                },
                {
                    "name": "C#6",
                    "midi": 85,
                    "time": 263.4387729999971,
                    "velocity": 0.3779527559055118,
                    "duration": 0.1546910000000139
                },
                {
                    "name": "F6",
                    "midi": 89,
                    "time": 263.4387729999971,
                    "velocity": 0.44881889763779526,
                    "duration": 0.1546910000000139
                },
                {
                    "name": "C#6",
                    "midi": 85,
                    "time": 263.59346399999714,
                    "velocity": 0.49606299212598426,
                    "duration": 0.1546910000000139
                },
                {
                    "name": "F#6",
                    "midi": 90,
                    "time": 263.59346399999714,
                    "velocity": 0.5826771653543307,
                    "duration": 0.1546910000000139
                },
                {
                    "name": "F#5",
                    "midi": 78,
                    "time": 263.74815499999715,
                    "velocity": 0.4645669291338583,
                    "duration": 0.1546910000000139
                },
                {
                    "name": "C#6",
                    "midi": 85,
                    "time": 263.90284599999717,
                    "velocity": 0.3937007874015748,
                    "duration": 0.1546910000000139
                },
                {
                    "name": "F#6",
                    "midi": 90,
                    "time": 263.90284599999717,
                    "velocity": 0.4645669291338583,
                    "duration": 0.1546910000000139
                },
                {
                    "name": "F#5",
                    "midi": 78,
                    "time": 264.2895734999972,
                    "velocity": 0.5905511811023622,
                    "duration": 0.11601825000002464
                },
                {
                    "name": "F4",
                    "midi": 65,
                    "time": 264.5216099999972,
                    "velocity": 0.5748031496062992,
                    "duration": 0.4640730000000417
                },
                {
                    "name": "G#4",
                    "midi": 68,
                    "time": 264.5216099999972,
                    "velocity": 0.5748031496062992,
                    "duration": 0.4640730000000417
                },
                {
                    "name": "D#5",
                    "midi": 75,
                    "time": 264.5216099999972,
                    "velocity": 0.6850393700787402,
                    "duration": 0.23203649999999243
                },
                {
                    "name": "C#5",
                    "midi": 73,
                    "time": 264.7536464999972,
                    "velocity": 0.5984251968503937,
                    "duration": 0.11601825000002464
                },
                {
                    "name": "F4",
                    "midi": 65,
                    "time": 264.98568299999727,
                    "velocity": 0.5275590551181102,
                    "duration": 0.11601825000002464
                },
                {
                    "name": "B4",
                    "midi": 71,
                    "time": 264.98568299999727,
                    "velocity": 0.6299212598425197,
                    "duration": 0.11601825000002464
                },
                {
                    "name": "C#5",
                    "midi": 73,
                    "time": 264.98568299999727,
                    "velocity": 0.6299212598425197,
                    "duration": 0.11601825000002464
                },
                {
                    "name": "F4",
                    "midi": 65,
                    "time": 265.2177194999973,
                    "velocity": 0.4645669291338583,
                    "duration": 0.11601825000002464
                },
                {
                    "name": "B4",
                    "midi": 71,
                    "time": 265.2177194999973,
                    "velocity": 0.5590551181102362,
                    "duration": 0.11601825000002464
                },
                {
                    "name": "C#5",
                    "midi": 73,
                    "time": 265.2177194999973,
                    "velocity": 0.5590551181102362,
                    "duration": 0.11601825000002464
                },
                {
                    "name": "F#4",
                    "midi": 66,
                    "time": 265.44975599999736,
                    "velocity": 0.5118110236220472,
                    "duration": 0.46407299999998486
                },
                {
                    "name": "A#4",
                    "midi": 70,
                    "time": 265.44975599999736,
                    "velocity": 0.5118110236220472,
                    "duration": 0.46407299999998486
                },
                {
                    "name": "C#5",
                    "midi": 73,
                    "time": 265.44975599999736,
                    "velocity": 0.6062992125984252,
                    "duration": 0.23203649999999243
                },
                {
                    "name": "F#5",
                    "midi": 78,
                    "time": 265.68179249999736,
                    "velocity": 0.5590551181102362,
                    "duration": 0.23203649999999243
                },
                {
                    "name": "A#5",
                    "midi": 82,
                    "time": 265.91382899999735,
                    "velocity": 0.6299212598425197,
                    "duration": 0.1546910000000139
                },
                {
                    "name": "C#6",
                    "midi": 85,
                    "time": 266.06851999999736,
                    "velocity": 0.47244094488188976,
                    "duration": 0.1546910000000139
                },
                {
                    "name": "F#6",
                    "midi": 90,
                    "time": 266.2232109999974,
                    "velocity": 0.47244094488188976,
                    "duration": 0.1546910000000139
                },
                {
                    "name": "C#6",
                    "midi": 85,
                    "time": 266.3779019999974,
                    "velocity": 0.5118110236220472,
                    "duration": 0.1546910000000139
                },
                {
                    "name": "G#6",
                    "midi": 92,
                    "time": 266.3779019999974,
                    "velocity": 0.6062992125984252,
                    "duration": 0.1546910000000139
                },
                {
                    "name": "G#5",
                    "midi": 80,
                    "time": 266.5325929999974,
                    "velocity": 0.48031496062992124,
                    "duration": 0.1546910000000139
                },
                {
                    "name": "C#6",
                    "midi": 85,
                    "time": 266.6872839999974,
                    "velocity": 0.4015748031496063,
                    "duration": 0.1546910000000139
                },
                {
                    "name": "G#6",
                    "midi": 92,
                    "time": 266.6872839999974,
                    "velocity": 0.48031496062992124,
                    "duration": 0.1546910000000139
                },
                {
                    "name": "C#6",
                    "midi": 85,
                    "time": 266.84197499999743,
                    "velocity": 0.5196850393700787,
                    "duration": 0.1546910000000139
                },
                {
                    "name": "F6",
                    "midi": 89,
                    "time": 266.84197499999743,
                    "velocity": 0.6141732283464567,
                    "duration": 0.1546910000000139
                },
                {
                    "name": "F5",
                    "midi": 77,
                    "time": 266.99666599999745,
                    "velocity": 0.4566929133858268,
                    "duration": 0.1546910000000139
                },
                {
                    "name": "C#6",
                    "midi": 85,
                    "time": 267.15135699999746,
                    "velocity": 0.3779527559055118,
                    "duration": 0.1546910000000139
                },
                {
                    "name": "F6",
                    "midi": 89,
                    "time": 267.15135699999746,
                    "velocity": 0.44881889763779526,
                    "duration": 0.1546910000000139
                },
                {
                    "name": "C#6",
                    "midi": 85,
                    "time": 267.3060479999975,
                    "velocity": 0.5118110236220472,
                    "duration": 0.1546910000000139
                },
                {
                    "name": "F#6",
                    "midi": 90,
                    "time": 267.3060479999975,
                    "velocity": 0.6062992125984252,
                    "duration": 0.1546910000000139
                },
                {
                    "name": "F#5",
                    "midi": 78,
                    "time": 267.4607389999975,
                    "velocity": 0.48031496062992124,
                    "duration": 0.1546910000000139
                },
                {
                    "name": "C#6",
                    "midi": 85,
                    "time": 267.6154299999975,
                    "velocity": 0.4015748031496063,
                    "duration": 0.1546910000000139
                },
                {
                    "name": "F#6",
                    "midi": 90,
                    "time": 267.6154299999975,
                    "velocity": 0.48031496062992124,
                    "duration": 0.1546910000000139
                },
                {
                    "name": "F#5",
                    "midi": 78,
                    "time": 267.7701209999975,
                    "velocity": 0.5196850393700787,
                    "duration": 0.1546910000000139
                },
                {
                    "name": "C#6",
                    "midi": 85,
                    "time": 267.7701209999975,
                    "velocity": 0.6141732283464567,
                    "duration": 0.1546910000000139
                },
                {
                    "name": "C#5",
                    "midi": 73,
                    "time": 267.92481199999753,
                    "velocity": 0.4566929133858268,
                    "duration": 0.1546910000000139
                },
                {
                    "name": "C#6",
                    "midi": 85,
                    "time": 268.07950299999754,
                    "velocity": 0.44881889763779526,
                    "duration": 0.1546910000000139
                },
                {
                    "name": "A#5",
                    "midi": 82,
                    "time": 268.23419399999756,
                    "velocity": 0.5118110236220472,
                    "duration": 0.1546910000000139
                },
                {
                    "name": "F6",
                    "midi": 89,
                    "time": 268.23419399999756,
                    "velocity": 0.6062992125984252,
                    "duration": 0.1546910000000139
                },
                {
                    "name": "F5",
                    "midi": 77,
                    "time": 268.3888849999976,
                    "velocity": 0.48031496062992124,
                    "duration": 0.1546910000000139
                },
                {
                    "name": "A#5",
                    "midi": 82,
                    "time": 268.5435759999976,
                    "velocity": 0.4015748031496063,
                    "duration": 0.1546910000000139
                },
                {
                    "name": "F6",
                    "midi": 89,
                    "time": 268.5435759999976,
                    "velocity": 0.48031496062992124,
                    "duration": 0.1546910000000139
                },
                {
                    "name": "A#5",
                    "midi": 82,
                    "time": 268.6982669999976,
                    "velocity": 0.5196850393700787,
                    "duration": 0.1546910000000139
                },
                {
                    "name": "D6",
                    "midi": 86,
                    "time": 268.6982669999976,
                    "velocity": 0.6141732283464567,
                    "duration": 0.1546910000000139
                },
                {
                    "name": "D5",
                    "midi": 74,
                    "time": 268.8529579999976,
                    "velocity": 0.4566929133858268,
                    "duration": 0.1546910000000139
                },
                {
                    "name": "A#5",
                    "midi": 82,
                    "time": 269.0076489999976,
                    "velocity": 0.3779527559055118,
                    "duration": 0.1546910000000139
                },
                {
                    "name": "D6",
                    "midi": 86,
                    "time": 269.0076489999976,
                    "velocity": 0.44881889763779526,
                    "duration": 0.1546910000000139
                },
                {
                    "name": "A#5",
                    "midi": 82,
                    "time": 269.16233999999764,
                    "velocity": 0.5118110236220472,
                    "duration": 0.1546910000000139
                },
                {
                    "name": "D#6",
                    "midi": 87,
                    "time": 269.16233999999764,
                    "velocity": 0.6062992125984252,
                    "duration": 0.1546910000000139
                },
                {
                    "name": "D#5",
                    "midi": 75,
                    "time": 269.31703099999766,
                    "velocity": 0.48031496062992124,
                    "duration": 0.1546910000000139
                },
                {
                    "name": "A#5",
                    "midi": 82,
                    "time": 269.47172199999767,
                    "velocity": 0.4015748031496063,
                    "duration": 0.1546910000000139
                },
                {
                    "name": "D#6",
                    "midi": 87,
                    "time": 269.47172199999767,
                    "velocity": 0.48031496062992124,
                    "duration": 0.1546910000000139
                },
                {
                    "name": "D#5",
                    "midi": 75,
                    "time": 269.6264129999977,
                    "velocity": 0.5196850393700787,
                    "duration": 0.1546910000000139
                },
                {
                    "name": "A#5",
                    "midi": 82,
                    "time": 269.6264129999977,
                    "velocity": 0.6141732283464567,
                    "duration": 0.1546910000000139
                },
                {
                    "name": "A#4",
                    "midi": 70,
                    "time": 269.7811039999977,
                    "velocity": 0.4566929133858268,
                    "duration": 0.1546910000000139
                },
                {
                    "name": "D#5",
                    "midi": 75,
                    "time": 269.9357949999977,
                    "velocity": 0.41732283464566927,
                    "duration": 0.1546910000000139
                },
                {
                    "name": "A#5",
                    "midi": 82,
                    "time": 269.9357949999977,
                    "velocity": 0.44881889763779526,
                    "duration": 0.1546910000000139
                },
                {
                    "name": "D#4",
                    "midi": 63,
                    "time": 270.20650424999775,
                    "velocity": 0.5669291338582677,
                    "duration": 0.11601825000002464
                },
                {
                    "name": "F#4",
                    "midi": 66,
                    "time": 270.3225224999978,
                    "velocity": 0.5748031496062992,
                    "duration": 0.11601825000002464
                },
                {
                    "name": "B4",
                    "midi": 71,
                    "time": 270.4385407499978,
                    "velocity": 0.5905511811023622,
                    "duration": 0.11601825000002464
                },
                {
                    "name": "D#5",
                    "midi": 75,
                    "time": 270.5545589999978,
                    "velocity": 0.5984251968503937,
                    "duration": 0.11601825000002464
                },
                {
                    "name": "F#5",
                    "midi": 78,
                    "time": 270.67057724999785,
                    "velocity": 0.6062992125984252,
                    "duration": 0.11601825000002464
                },
                {
                    "name": "B5",
                    "midi": 83,
                    "time": 270.7865954999979,
                    "velocity": 0.6220472440944882,
                    "duration": 0.11601825000002464
                },
                {
                    "name": "D#6",
                    "midi": 87,
                    "time": 270.9026137499979,
                    "velocity": 0.6299212598425197,
                    "duration": 0.11601825000002464
                },
                {
                    "name": "E6",
                    "midi": 88,
                    "time": 271.0186319999979,
                    "velocity": 0.7007874015748031,
                    "duration": 0.46407299999998486
                },
                {
                    "name": "E5",
                    "midi": 76,
                    "time": 271.0186319999979,
                    "velocity": 0.5905511811023622,
                    "duration": 0.46407299999998486
                },
                {
                    "name": "F#5",
                    "midi": 78,
                    "time": 271.0186319999979,
                    "velocity": 0.5905511811023622,
                    "duration": 0.46407299999998486
                },
                {
                    "name": "C#6",
                    "midi": 85,
                    "time": 271.4827049999979,
                    "velocity": 0.6377952755905512,
                    "duration": 0.46407299999998486
                },
                {
                    "name": "F#5",
                    "midi": 78,
                    "time": 271.4827049999979,
                    "velocity": 0.5433070866141733,
                    "duration": 0.46407299999998486
                },
                {
                    "name": "C#5",
                    "midi": 73,
                    "time": 271.4827049999979,
                    "velocity": 0.5433070866141733,
                    "duration": 0.46407299999998486
                },
                {
                    "name": "D#4",
                    "midi": 63,
                    "time": 272.0627962499979,
                    "velocity": 0.5669291338582677,
                    "duration": 0.11601825000002464
                },
                {
                    "name": "F#4",
                    "midi": 66,
                    "time": 272.17881449999794,
                    "velocity": 0.5748031496062992,
                    "duration": 0.11601825000002464
                },
                {
                    "name": "B4",
                    "midi": 71,
                    "time": 272.29483274999797,
                    "velocity": 0.5905511811023622,
                    "duration": 0.11601825000002464
                },
                {
                    "name": "D#5",
                    "midi": 75,
                    "time": 272.410850999998,
                    "velocity": 0.5984251968503937,
                    "duration": 0.11601825000002464
                },
                {
                    "name": "F#5",
                    "midi": 78,
                    "time": 272.526869249998,
                    "velocity": 0.6062992125984252,
                    "duration": 0.11601825000002464
                },
                {
                    "name": "B5",
                    "midi": 83,
                    "time": 272.64288749999804,
                    "velocity": 0.6220472440944882,
                    "duration": 0.11601825000002464
                },
                {
                    "name": "D#6",
                    "midi": 87,
                    "time": 272.75890574999806,
                    "velocity": 0.6299212598425197,
                    "duration": 0.11601825000002464
                },
                {
                    "name": "E5",
                    "midi": 76,
                    "time": 272.8749239999981,
                    "velocity": 0.5905511811023622,
                    "duration": 0.46407299999998486
                },
                {
                    "name": "F#5",
                    "midi": 78,
                    "time": 272.8749239999981,
                    "velocity": 0.5905511811023622,
                    "duration": 0.46407299999998486
                },
                {
                    "name": "E6",
                    "midi": 88,
                    "time": 272.8749239999981,
                    "velocity": 0.7007874015748031,
                    "duration": 0.46407299999998486
                },
                {
                    "name": "C#5",
                    "midi": 73,
                    "time": 273.3389969999981,
                    "velocity": 0.5433070866141733,
                    "duration": 0.46407299999998486
                },
                {
                    "name": "C#6",
                    "midi": 85,
                    "time": 273.3389969999981,
                    "velocity": 0.6377952755905512,
                    "duration": 0.46407299999998486
                },
                {
                    "name": "F#5",
                    "midi": 78,
                    "time": 273.3389969999981,
                    "velocity": 0.5433070866141733,
                    "duration": 0.46407299999998486
                },
                {
                    "name": "D#4",
                    "midi": 63,
                    "time": 273.9190882499981,
                    "velocity": 0.5669291338582677,
                    "duration": 0.11601825000002464
                },
                {
                    "name": "F#4",
                    "midi": 66,
                    "time": 274.0351064999981,
                    "velocity": 0.5748031496062992,
                    "duration": 0.11601825000002464
                },
                {
                    "name": "B4",
                    "midi": 71,
                    "time": 274.15112474999813,
                    "velocity": 0.5905511811023622,
                    "duration": 0.11601825000002464
                },
                {
                    "name": "D#5",
                    "midi": 75,
                    "time": 274.26714299999816,
                    "velocity": 0.5984251968503937,
                    "duration": 0.11601825000002464
                },
                {
                    "name": "F#5",
                    "midi": 78,
                    "time": 274.3831612499982,
                    "velocity": 0.6062992125984252,
                    "duration": 0.11601825000002464
                },
                {
                    "name": "B5",
                    "midi": 83,
                    "time": 274.4991794999982,
                    "velocity": 0.6220472440944882,
                    "duration": 0.11601825000002464
                },
                {
                    "name": "D#6",
                    "midi": 87,
                    "time": 274.61519774999823,
                    "velocity": 0.6299212598425197,
                    "duration": 0.11601825000002464
                },
                {
                    "name": "F6",
                    "midi": 89,
                    "time": 274.73121599999826,
                    "velocity": 0.7007874015748031,
                    "duration": 0.23203649999999243
                },
                {
                    "name": "F5",
                    "midi": 77,
                    "time": 274.73121599999826,
                    "velocity": 0.5039370078740157,
                    "duration": 0.23203649999999243
                },
                {
                    "name": "D#6",
                    "midi": 87,
                    "time": 274.96325249999825,
                    "velocity": 0.5196850393700787,
                    "duration": 0.11601825000002464
                },
                {
                    "name": "F#5",
                    "midi": 78,
                    "time": 274.96325249999825,
                    "velocity": 0.5196850393700787,
                    "duration": 0.11601825000002464
                },
                {
                    "name": "F#6",
                    "midi": 90,
                    "time": 274.96325249999825,
                    "velocity": 0.6141732283464567,
                    "duration": 0.11601825000002464
                },
                {
                    "name": "F#5",
                    "midi": 78,
                    "time": 275.1952889999983,
                    "velocity": 0.5196850393700787,
                    "duration": 0.11601825000002464
                },
                {
                    "name": "D#6",
                    "midi": 87,
                    "time": 275.1952889999983,
                    "velocity": 0.5196850393700787,
                    "duration": 0.11601825000002464
                },
                {
                    "name": "F#6",
                    "midi": 90,
                    "time": 275.1952889999983,
                    "velocity": 0.6141732283464567,
                    "duration": 0.11601825000002464
                },
                {
                    "name": "F#5",
                    "midi": 78,
                    "time": 275.42732549999835,
                    "velocity": 0.5196850393700787,
                    "duration": 0.11601825000002464
                },
                {
                    "name": "D#6",
                    "midi": 87,
                    "time": 275.42732549999835,
                    "velocity": 0.5196850393700787,
                    "duration": 0.11601825000002464
                },
                {
                    "name": "F#6",
                    "midi": 90,
                    "time": 275.42732549999835,
                    "velocity": 0.6141732283464567,
                    "duration": 0.11601825000002464
                },
                {
                    "name": "D4",
                    "midi": 62,
                    "time": 275.77538024999836,
                    "velocity": 0.5669291338582677,
                    "duration": 0.11601825000002464
                },
                {
                    "name": "F4",
                    "midi": 65,
                    "time": 275.8913984999984,
                    "velocity": 0.5748031496062992,
                    "duration": 0.11601825000002464
                },
                {
                    "name": "A#4",
                    "midi": 70,
                    "time": 276.0074167499984,
                    "velocity": 0.5826771653543307,
                    "duration": 0.11601825000002464
                },
                {
                    "name": "D5",
                    "midi": 74,
                    "time": 276.12343499999844,
                    "velocity": 0.5905511811023622,
                    "duration": 0.11601825000002464
                },
                {
                    "name": "F5",
                    "midi": 77,
                    "time": 276.23945324999846,
                    "velocity": 0.5905511811023622,
                    "duration": 0.11601825000002464
                },
                {
                    "name": "A#5",
                    "midi": 82,
                    "time": 276.3554714999985,
                    "velocity": 0.6062992125984252,
                    "duration": 0.11601825000002464
                },
                {
                    "name": "D6",
                    "midi": 86,
                    "time": 276.4714897499985,
                    "velocity": 0.6062992125984252,
                    "duration": 0.11601825000002464
                },
                {
                    "name": "D#5",
                    "midi": 75,
                    "time": 276.58750799999854,
                    "velocity": 0.5669291338582677,
                    "duration": 0.46407299999998486
                },
                {
                    "name": "F5",
                    "midi": 77,
                    "time": 276.58750799999854,
                    "velocity": 0.5669291338582677,
                    "duration": 0.46407299999998486
                },
                {
                    "name": "D#6",
                    "midi": 87,
                    "time": 276.58750799999854,
                    "velocity": 0.6771653543307087,
                    "duration": 0.46407299999998486
                },
                {
                    "name": "C5",
                    "midi": 72,
                    "time": 277.0515809999985,
                    "velocity": 0.5118110236220472,
                    "duration": 0.46407299999998486
                },
                {
                    "name": "C6",
                    "midi": 84,
                    "time": 277.0515809999985,
                    "velocity": 0.6062992125984252,
                    "duration": 0.46407299999998486
                },
                {
                    "name": "F5",
                    "midi": 77,
                    "time": 277.0515809999985,
                    "velocity": 0.5118110236220472,
                    "duration": 0.46407299999998486
                },
                {
                    "name": "D4",
                    "midi": 62,
                    "time": 277.63167224999853,
                    "velocity": 0.5275590551181102,
                    "duration": 0.11601825000002464
                },
                {
                    "name": "F4",
                    "midi": 65,
                    "time": 277.74769049999855,
                    "velocity": 0.5275590551181102,
                    "duration": 0.11601825000002464
                },
                {
                    "name": "A#4",
                    "midi": 70,
                    "time": 277.8637087499986,
                    "velocity": 0.5433070866141733,
                    "duration": 0.11601825000002464
                },
                {
                    "name": "D5",
                    "midi": 74,
                    "time": 277.9797269999986,
                    "velocity": 0.5433070866141733,
                    "duration": 0.11601825000002464
                },
                {
                    "name": "F5",
                    "midi": 77,
                    "time": 278.09574524999863,
                    "velocity": 0.5511811023622047,
                    "duration": 0.11601825000002464
                },
                {
                    "name": "A#5",
                    "midi": 82,
                    "time": 278.21176349999865,
                    "velocity": 0.5590551181102362,
                    "duration": 0.11601825000002464
                },
                {
                    "name": "D6",
                    "midi": 86,
                    "time": 278.3277817499987,
                    "velocity": 0.5669291338582677,
                    "duration": 0.11601825000002464
                },
                {
                    "name": "D#5",
                    "midi": 75,
                    "time": 278.4437999999987,
                    "velocity": 0.5275590551181102,
                    "duration": 0.46407299999998486
                },
                {
                    "name": "F5",
                    "midi": 77,
                    "time": 278.4437999999987,
                    "velocity": 0.5275590551181102,
                    "duration": 0.46407299999998486
                },
                {
                    "name": "D#6",
                    "midi": 87,
                    "time": 278.4437999999987,
                    "velocity": 0.6141732283464567,
                    "duration": 0.46407299999998486
                },
                {
                    "name": "C5",
                    "midi": 72,
                    "time": 278.9078729999987,
                    "velocity": 0.4645669291338583,
                    "duration": 0.46407299999998486
                },
                {
                    "name": "C6",
                    "midi": 84,
                    "time": 278.9078729999987,
                    "velocity": 0.5511811023622047,
                    "duration": 0.46407299999998486
                },
                {
                    "name": "F5",
                    "midi": 77,
                    "time": 278.9078729999987,
                    "velocity": 0.4645669291338583,
                    "duration": 0.46407299999998486
                },
                {
                    "name": "D4",
                    "midi": 62,
                    "time": 279.4879642499987,
                    "velocity": 0.47244094488188976,
                    "duration": 0.11601825000002464
                },
                {
                    "name": "F4",
                    "midi": 65,
                    "time": 279.6039824999987,
                    "velocity": 0.48031496062992124,
                    "duration": 0.11601825000002464
                },
                {
                    "name": "A#4",
                    "midi": 70,
                    "time": 279.72000074999875,
                    "velocity": 0.49606299212598426,
                    "duration": 0.11601825000002464
                },
                {
                    "name": "D5",
                    "midi": 74,
                    "time": 279.83601899999877,
                    "velocity": 0.5039370078740157,
                    "duration": 0.11601825000002464
                },
                {
                    "name": "F5",
                    "midi": 77,
                    "time": 279.9520372499988,
                    "velocity": 0.5039370078740157,
                    "duration": 0.11601825000002464
                },
                {
                    "name": "A#5",
                    "midi": 82,
                    "time": 280.0680554999988,
                    "velocity": 0.5196850393700787,
                    "duration": 0.11601825000002464
                },
                {
                    "name": "D6",
                    "midi": 86,
                    "time": 280.18407374999884,
                    "velocity": 0.5196850393700787,
                    "duration": 0.11601825000002464
                },
                {
                    "name": "D#5",
                    "midi": 75,
                    "time": 280.30009199999887,
                    "velocity": 0.48031496062992124,
                    "duration": 0.46407299999998486
                },
                {
                    "name": "F5",
                    "midi": 77,
                    "time": 280.30009199999887,
                    "velocity": 0.48031496062992124,
                    "duration": 0.46407299999998486
                },
                {
                    "name": "D#6",
                    "midi": 87,
                    "time": 280.30009199999887,
                    "velocity": 0.5669291338582677,
                    "duration": 0.46407299999998486
                },
                {
                    "name": "C5",
                    "midi": 72,
                    "time": 280.76416499999885,
                    "velocity": 0.4251968503937008,
                    "duration": 0.46407299999998486
                },
                {
                    "name": "C6",
                    "midi": 84,
                    "time": 280.76416499999885,
                    "velocity": 0.5118110236220472,
                    "duration": 0.46407299999998486
                },
                {
                    "name": "F5",
                    "midi": 77,
                    "time": 280.76416499999885,
                    "velocity": 0.4251968503937008,
                    "duration": 0.46407299999998486
                },
                {
                    "name": "D4",
                    "midi": 62,
                    "time": 281.34425624999886,
                    "velocity": 0.4330708661417323,
                    "duration": 0.11601825000002464
                },
                {
                    "name": "F4",
                    "midi": 65,
                    "time": 281.4602744999989,
                    "velocity": 0.4330708661417323,
                    "duration": 0.11601825000002464
                },
                {
                    "name": "A#4",
                    "midi": 70,
                    "time": 281.5762927499989,
                    "velocity": 0.44881889763779526,
                    "duration": 0.11601825000002464
                },
                {
                    "name": "D5",
                    "midi": 74,
                    "time": 281.69231099999894,
                    "velocity": 0.44881889763779526,
                    "duration": 0.11601825000002464
                },
                {
                    "name": "F5",
                    "midi": 77,
                    "time": 281.80832924999896,
                    "velocity": 0.4566929133858268,
                    "duration": 0.11601825000002464
                },
                {
                    "name": "A#5",
                    "midi": 82,
                    "time": 281.924347499999,
                    "velocity": 0.4645669291338583,
                    "duration": 0.11601825000002464
                },
                {
                    "name": "D6",
                    "midi": 86,
                    "time": 282.040365749999,
                    "velocity": 0.4645669291338583,
                    "duration": 0.11601825000002464
                },
                {
                    "name": "E6",
                    "midi": 88,
                    "time": 282.15638399999904,
                    "velocity": 0.5118110236220472,
                    "duration": 0.23203649999999243
                },
                {
                    "name": "E5",
                    "midi": 76,
                    "time": 282.15638399999904,
                    "velocity": 0.3700787401574803,
                    "duration": 0.23203649999999243
                },
                {
                    "name": "D6",
                    "midi": 86,
                    "time": 282.38842049999903,
                    "velocity": 0.3700787401574803,
                    "duration": 0.11601825000002464
                },
                {
                    "name": "F5",
                    "midi": 77,
                    "time": 282.38842049999903,
                    "velocity": 0.3700787401574803,
                    "duration": 0.11601825000002464
                },
                {
                    "name": "F6",
                    "midi": 89,
                    "time": 282.38842049999903,
                    "velocity": 0.4409448818897638,
                    "duration": 0.11601825000002464
                },
                {
                    "name": "F5",
                    "midi": 77,
                    "time": 282.6204569999991,
                    "velocity": 0.3700787401574803,
                    "duration": 0.11601825000002464
                },
                {
                    "name": "D6",
                    "midi": 86,
                    "time": 282.6204569999991,
                    "velocity": 0.3700787401574803,
                    "duration": 0.11601825000002464
                },
                {
                    "name": "F6",
                    "midi": 89,
                    "time": 282.6204569999991,
                    "velocity": 0.4409448818897638,
                    "duration": 0.11601825000002464
                },
                {
                    "name": "F5",
                    "midi": 77,
                    "time": 282.8524934999991,
                    "velocity": 0.36220472440944884,
                    "duration": 0.11601825000002464
                },
                {
                    "name": "D6",
                    "midi": 86,
                    "time": 282.8524934999991,
                    "velocity": 0.36220472440944884,
                    "duration": 0.11601825000002464
                },
                {
                    "name": "F6",
                    "midi": 89,
                    "time": 282.8524934999991,
                    "velocity": 0.4330708661417323,
                    "duration": 0.11601825000002464
                },
                {
                    "name": "C#4",
                    "midi": 61,
                    "time": 283.20054824999914,
                    "velocity": 0.3937007874015748,
                    "duration": 0.11601825000002464
                },
                {
                    "name": "E4",
                    "midi": 64,
                    "time": 283.31656649999917,
                    "velocity": 0.4015748031496063,
                    "duration": 0.11601825000002464
                },
                {
                    "name": "A4",
                    "midi": 69,
                    "time": 283.4325847499992,
                    "velocity": 0.4094488188976378,
                    "duration": 0.11601825000002464
                },
                {
                    "name": "C#5",
                    "midi": 73,
                    "time": 283.5486029999992,
                    "velocity": 0.41732283464566927,
                    "duration": 0.11601825000002464
                },
                {
                    "name": "E5",
                    "midi": 76,
                    "time": 283.66462124999924,
                    "velocity": 0.41732283464566927,
                    "duration": 0.11601825000002464
                },
                {
                    "name": "A5",
                    "midi": 81,
                    "time": 283.78063949999927,
                    "velocity": 0.4330708661417323,
                    "duration": 0.11601825000002464
                },
                {
                    "name": "C#6",
                    "midi": 85,
                    "time": 283.8966577499993,
                    "velocity": 0.4330708661417323,
                    "duration": 0.11601825000002464
                },
                {
                    "name": "D6",
                    "midi": 86,
                    "time": 284.0126759999993,
                    "velocity": 0.48031496062992124,
                    "duration": 0.23203649999999243
                },
                {
                    "name": "D5",
                    "midi": 74,
                    "time": 284.0126759999993,
                    "velocity": 0.3464566929133858,
                    "duration": 0.23203649999999243
                },
                {
                    "name": "C6",
                    "midi": 84,
                    "time": 284.2447124999993,
                    "velocity": 0.36220472440944884,
                    "duration": 0.11601825000002464
                },
                {
                    "name": "D#5",
                    "midi": 75,
                    "time": 284.2447124999993,
                    "velocity": 0.36220472440944884,
                    "duration": 0.11601825000002464
                },
                {
                    "name": "D#6",
                    "midi": 87,
                    "time": 284.2447124999993,
                    "velocity": 0.4251968503937008,
                    "duration": 0.11601825000002464
                },
                {
                    "name": "D#5",
                    "midi": 75,
                    "time": 284.47674899999936,
                    "velocity": 0.36220472440944884,
                    "duration": 0.11601825000002464
                },
                {
                    "name": "C6",
                    "midi": 84,
                    "time": 284.47674899999936,
                    "velocity": 0.36220472440944884,
                    "duration": 0.11601825000002464
                },
                {
                    "name": "D#6",
                    "midi": 87,
                    "time": 284.47674899999936,
                    "velocity": 0.4251968503937008,
                    "duration": 0.11601825000002464
                },
                {
                    "name": "D#5",
                    "midi": 75,
                    "time": 284.7087854999994,
                    "velocity": 0.36220472440944884,
                    "duration": 0.11601825000002464
                },
                {
                    "name": "C6",
                    "midi": 84,
                    "time": 284.7087854999994,
                    "velocity": 0.36220472440944884,
                    "duration": 0.11601825000002464
                },
                {
                    "name": "D#6",
                    "midi": 87,
                    "time": 284.7087854999994,
                    "velocity": 0.4251968503937008,
                    "duration": 0.11601825000002464
                },
                {
                    "name": "B3",
                    "midi": 59,
                    "time": 285.0568402499994,
                    "velocity": 0.3937007874015748,
                    "duration": 0.11601825000002464
                },
                {
                    "name": "D4",
                    "midi": 62,
                    "time": 285.17285849999945,
                    "velocity": 0.4015748031496063,
                    "duration": 0.11601825000002464
                },
                {
                    "name": "G4",
                    "midi": 67,
                    "time": 285.2888767499995,
                    "velocity": 0.4094488188976378,
                    "duration": 0.11601825000002464
                },
                {
                    "name": "B4",
                    "midi": 71,
                    "time": 285.4048949999995,
                    "velocity": 0.41732283464566927,
                    "duration": 0.11601825000002464
                },
                {
                    "name": "D5",
                    "midi": 74,
                    "time": 285.5209132499995,
                    "velocity": 0.41732283464566927,
                    "duration": 0.11601825000002464
                },
                {
                    "name": "G5",
                    "midi": 79,
                    "time": 285.63693149999955,
                    "velocity": 0.4330708661417323,
                    "duration": 0.11601825000002464
                },
                {
                    "name": "B5",
                    "midi": 83,
                    "time": 285.7529497499996,
                    "velocity": 0.4330708661417323,
                    "duration": 0.11601825000002464
                },
                {
                    "name": "D5",
                    "midi": 74,
                    "time": 285.8689679999996,
                    "velocity": 0.4094488188976378,
                    "duration": 0.46407299999998486
                },
                {
                    "name": "F#5",
                    "midi": 78,
                    "time": 285.8689679999996,
                    "velocity": 0.4094488188976378,
                    "duration": 0.46407299999998486
                },
                {
                    "name": "D6",
                    "midi": 86,
                    "time": 285.8689679999996,
                    "velocity": 0.48031496062992124,
                    "duration": 0.46407299999998486
                },
                {
                    "name": "C5",
                    "midi": 72,
                    "time": 286.3330409999996,
                    "velocity": 0.3779527559055118,
                    "duration": 0.46407299999998486
                },
                {
                    "name": "C6",
                    "midi": 84,
                    "time": 286.3330409999996,
                    "velocity": 0.4409448818897638,
                    "duration": 0.46407299999998486
                },
                {
                    "name": "F#5",
                    "midi": 78,
                    "time": 286.3330409999996,
                    "velocity": 0.3779527559055118,
                    "duration": 0.46407299999998486
                },
                {
                    "name": "B3",
                    "midi": 59,
                    "time": 286.9131322499996,
                    "velocity": 0.3858267716535433,
                    "duration": 0.11601825000002464
                },
                {
                    "name": "D4",
                    "midi": 62,
                    "time": 287.0291504999996,
                    "velocity": 0.3779527559055118,
                    "duration": 0.11601825000002464
                },
                {
                    "name": "G4",
                    "midi": 67,
                    "time": 287.14516874999964,
                    "velocity": 0.3779527559055118,
                    "duration": 0.11601825000002464
                },
                {
                    "name": "B4",
                    "midi": 71,
                    "time": 287.26118699999967,
                    "velocity": 0.3700787401574803,
                    "duration": 0.11601825000002464
                },
                {
                    "name": "D5",
                    "midi": 74,
                    "time": 287.3772052499997,
                    "velocity": 0.36220472440944884,
                    "duration": 0.11601825000002464
                },
                {
                    "name": "G5",
                    "midi": 79,
                    "time": 287.4932234999997,
                    "velocity": 0.3700787401574803,
                    "duration": 0.11601825000002464
                },
                {
                    "name": "B5",
                    "midi": 83,
                    "time": 287.60924174999974,
                    "velocity": 0.3543307086614173,
                    "duration": 0.11601825000002464
                },
                {
                    "name": "D5",
                    "midi": 74,
                    "time": 287.72525999999976,
                    "velocity": 0.33070866141732286,
                    "duration": 0.46407299999998486
                },
                {
                    "name": "F#5",
                    "midi": 78,
                    "time": 287.72525999999976,
                    "velocity": 0.33070866141732286,
                    "duration": 0.46407299999998486
                },
                {
                    "name": "D6",
                    "midi": 86,
                    "time": 287.72525999999976,
                    "velocity": 0.3858267716535433,
                    "duration": 0.46407299999998486
                },
                {
                    "name": "C5",
                    "midi": 72,
                    "time": 288.18933299999975,
                    "velocity": 0.29133858267716534,
                    "duration": 0.46407299999998486
                },
                {
                    "name": "C6",
                    "midi": 84,
                    "time": 288.18933299999975,
                    "velocity": 0.3543307086614173,
                    "duration": 0.46407299999998486
                },
                {
                    "name": "F#5",
                    "midi": 78,
                    "time": 288.18933299999975,
                    "velocity": 0.29133858267716534,
                    "duration": 0.46407299999998486
                },
                {
                    "name": "B4",
                    "midi": 71,
                    "time": 288.65340599999973,
                    "velocity": 0.29133858267716534,
                    "duration": 0.23203649999999243
                },
                {
                    "name": "G5",
                    "midi": 79,
                    "time": 288.65340599999973,
                    "velocity": 0.29133858267716534,
                    "duration": 0.23203649999999243
                },
                {
                    "name": "B5",
                    "midi": 83,
                    "time": 288.65340599999973,
                    "velocity": 0.3543307086614173,
                    "duration": 0.23203649999999243
                },
                {
                    "name": "D5",
                    "midi": 74,
                    "time": 290.27766149999974,
                    "velocity": 0.4094488188976378,
                    "duration": 0.11601825000002464
                },
                {
                    "name": "C5",
                    "midi": 72,
                    "time": 290.5096979999998,
                    "velocity": 0.49606299212598426,
                    "duration": 0.23203649999999243
                },
                {
                    "name": "B4",
                    "midi": 71,
                    "time": 290.7417344999998,
                    "velocity": 0.29133858267716534,
                    "duration": 0.11601825000002464
                },
                {
                    "name": "B4",
                    "midi": 71,
                    "time": 290.97377099999983,
                    "velocity": 0.33858267716535434,
                    "duration": 0.11601825000002464
                },
                {
                    "name": "B4",
                    "midi": 71,
                    "time": 291.2058074999999,
                    "velocity": 0.29133858267716534,
                    "duration": 0.11601825000002464
                },
                {
                    "name": "B4",
                    "midi": 71,
                    "time": 291.4378439999999,
                    "velocity": 0.4330708661417323,
                    "duration": 0.11601825000002464
                },
                {
                    "name": "C5",
                    "midi": 72,
                    "time": 291.55386224999995,
                    "velocity": 0.3858267716535433,
                    "duration": 0.11601825000002464
                },
                {
                    "name": "G5",
                    "midi": 79,
                    "time": 291.6698805,
                    "velocity": 0.4645669291338583,
                    "duration": 0.23203649999999243
                },
                {
                    "name": "F5",
                    "midi": 77,
                    "time": 291.90191699999997,
                    "velocity": 0.3937007874015748,
                    "duration": 0.11601825000002464
                },
                {
                    "name": "D#5",
                    "midi": 75,
                    "time": 292.01793525,
                    "velocity": 0.3543307086614173,
                    "duration": 0.11601825000002464
                },
                {
                    "name": "D5",
                    "midi": 74,
                    "time": 292.1339535,
                    "velocity": 0.3543307086614173,
                    "duration": 0.11601825000002464
                },
                {
                    "name": "C5",
                    "midi": 72,
                    "time": 292.24997175000004,
                    "velocity": 0.3543307086614173,
                    "duration": 0.11601825000002464
                },
                {
                    "name": "C5",
                    "midi": 72,
                    "time": 292.36599000000007,
                    "velocity": 0.49606299212598426,
                    "duration": 0.23203649999999243
                },
                {
                    "name": "B4",
                    "midi": 71,
                    "time": 292.59802650000006,
                    "velocity": 0.29133858267716534,
                    "duration": 0.11601825000002464
                },
                {
                    "name": "B4",
                    "midi": 71,
                    "time": 292.8300630000001,
                    "velocity": 0.3464566929133858,
                    "duration": 0.11601825000002464
                },
                {
                    "name": "B4",
                    "midi": 71,
                    "time": 293.06209950000016,
                    "velocity": 0.29133858267716534,
                    "duration": 0.11601825000002464
                },
                {
                    "name": "B4",
                    "midi": 71,
                    "time": 293.2941360000002,
                    "velocity": 0.44881889763779526,
                    "duration": 0.23203649999999243
                },
                {
                    "name": "C5",
                    "midi": 72,
                    "time": 293.5261725000002,
                    "velocity": 0.3700787401574803,
                    "duration": 0.11601825000002464
                },
                {
                    "name": "D#5",
                    "midi": 75,
                    "time": 293.99024550000024,
                    "velocity": 0.4251968503937008,
                    "duration": 0.23203649999999243
                },
                {
                    "name": "C5",
                    "midi": 72,
                    "time": 294.22228200000023,
                    "velocity": 0.49606299212598426,
                    "duration": 0.23203649999999243
                },
                {
                    "name": "A#4",
                    "midi": 70,
                    "time": 294.4543185000002,
                    "velocity": 0.4094488188976378,
                    "duration": 0.11601825000002464
                },
                {
                    "name": "A#4",
                    "midi": 70,
                    "time": 294.6863550000003,
                    "velocity": 0.4251968503937008,
                    "duration": 0.11601825000002464
                },
                {
                    "name": "A#4",
                    "midi": 70,
                    "time": 294.9183915000003,
                    "velocity": 0.4251968503937008,
                    "duration": 0.11601825000002464
                },
                {
                    "name": "C5",
                    "midi": 72,
                    "time": 295.1504280000004,
                    "velocity": 0.49606299212598426,
                    "duration": 0.23203649999999243
                },
                {
                    "name": "A#4",
                    "midi": 70,
                    "time": 295.38246450000037,
                    "velocity": 0.41732283464566927,
                    "duration": 0.11601825000002464
                },
                {
                    "name": "A#4",
                    "midi": 70,
                    "time": 295.6145010000004,
                    "velocity": 0.4330708661417323,
                    "duration": 0.11601825000002464
                },
                {
                    "name": "A#4",
                    "midi": 70,
                    "time": 295.84653750000047,
                    "velocity": 0.4330708661417323,
                    "duration": 0.11601825000002464
                },
                {
                    "name": "C5",
                    "midi": 72,
                    "time": 296.0785740000005,
                    "velocity": 0.49606299212598426,
                    "duration": 0.11601825000002464
                },
                {
                    "name": "A#4",
                    "midi": 70,
                    "time": 296.19459225000054,
                    "velocity": 0.4094488188976378,
                    "duration": 0.11601825000002464
                },
                {
                    "name": "A4",
                    "midi": 69,
                    "time": 296.31061050000056,
                    "velocity": 0.41732283464566927,
                    "duration": 0.11601825000002464
                },
                {
                    "name": "A#4",
                    "midi": 70,
                    "time": 296.4266287500006,
                    "velocity": 0.41732283464566927,
                    "duration": 0.11601825000002464
                },
                {
                    "name": "C5",
                    "midi": 72,
                    "time": 296.5426470000006,
                    "velocity": 0.4566929133858268,
                    "duration": 0.11601825000002464
                },
                {
                    "name": "D5",
                    "midi": 74,
                    "time": 296.77468350000066,
                    "velocity": 0.4251968503937008,
                    "duration": 0.11601825000002464
                },
                {
                    "name": "A#4",
                    "midi": 70,
                    "time": 297.0067200000007,
                    "velocity": 0.4566929133858268,
                    "duration": 0.23203649999999243
                },
                {
                    "name": "D5",
                    "midi": 74,
                    "time": 297.7028295000007,
                    "velocity": 0.44881889763779526,
                    "duration": 0.11601825000002464
                },
                {
                    "name": "G5",
                    "midi": 79,
                    "time": 297.93486600000074,
                    "velocity": 0.47244094488188976,
                    "duration": 0.46407299999998486
                },
                {
                    "name": "D#5",
                    "midi": 75,
                    "time": 298.3989390000007,
                    "velocity": 0.47244094488188976,
                    "duration": 0.46407299999998486
                },
                {
                    "name": "C5",
                    "midi": 72,
                    "time": 298.8630120000007,
                    "velocity": 0.47244094488188976,
                    "duration": 0.46407299999998486
                },
                {
                    "name": "D5",
                    "midi": 74,
                    "time": 299.3270850000007,
                    "velocity": 0.47244094488188976,
                    "duration": 0.11601825000002464
                },
                {
                    "name": "D#5",
                    "midi": 75,
                    "time": 299.55912150000074,
                    "velocity": 0.4566929133858268,
                    "duration": 0.11601825000002464
                },
                {
                    "name": "F5",
                    "midi": 77,
                    "time": 299.7911580000008,
                    "velocity": 0.44881889763779526,
                    "duration": 0.11601825000002464
                },
                {
                    "name": "G5",
                    "midi": 79,
                    "time": 299.9071762500008,
                    "velocity": 0.41732283464566927,
                    "duration": 0.11601825000002464
                },
                {
                    "name": "F5",
                    "midi": 77,
                    "time": 300.02319450000084,
                    "velocity": 0.41732283464566927,
                    "duration": 0.11601825000002464
                },
                {
                    "name": "D#5",
                    "midi": 75,
                    "time": 300.13921275000087,
                    "velocity": 0.41732283464566927,
                    "duration": 0.11601825000002464
                },
                {
                    "name": "D5",
                    "midi": 74,
                    "time": 300.2552310000009,
                    "velocity": 0.4645669291338583,
                    "duration": 0.11601825000002464
                },
                {
                    "name": "D#5",
                    "midi": 75,
                    "time": 300.3712492500009,
                    "velocity": 0.4094488188976378,
                    "duration": 0.11601825000002464
                },
                {
                    "name": "D5",
                    "midi": 74,
                    "time": 300.48726750000094,
                    "velocity": 0.4094488188976378,
                    "duration": 0.11601825000002464
                },
                {
                    "name": "C5",
                    "midi": 72,
                    "time": 300.60328575000096,
                    "velocity": 0.41732283464566927,
                    "duration": 0.11601825000002464
                },
                {
                    "name": "A#4",
                    "midi": 70,
                    "time": 300.719304000001,
                    "velocity": 0.47244094488188976,
                    "duration": 0.6961094999999773
                },
                {
                    "name": "A#4",
                    "midi": 70,
                    "time": 301.41541350000097,
                    "velocity": 0.36220472440944884,
                    "duration": 0.11601825000002464
                },
                {
                    "name": "D#5",
                    "midi": 75,
                    "time": 301.647450000001,
                    "velocity": 0.3779527559055118,
                    "duration": 0.46407299999998486
                },
                {
                    "name": "C5",
                    "midi": 72,
                    "time": 302.111523000001,
                    "velocity": 0.3779527559055118,
                    "duration": 0.46407299999998486
                },
                {
                    "name": "G#4",
                    "midi": 68,
                    "time": 302.575596000001,
                    "velocity": 0.3779527559055118,
                    "duration": 0.46407299999998486
                },
                {
                    "name": "A#4",
                    "midi": 70,
                    "time": 303.03966900000097,
                    "velocity": 0.3779527559055118,
                    "duration": 0.11601825000002464
                },
                {
                    "name": "C5",
                    "midi": 72,
                    "time": 303.271705500001,
                    "velocity": 0.36220472440944884,
                    "duration": 0.11601825000002464
                },
                {
                    "name": "D#5",
                    "midi": 75,
                    "time": 303.50374200000107,
                    "velocity": 0.3779527559055118,
                    "duration": 0.46407299999998486
                },
                {
                    "name": "C#5",
                    "midi": 73,
                    "time": 303.96781500000105,
                    "velocity": 0.3779527559055118,
                    "duration": 0.23203649999999243
                },
                {
                    "name": "C5",
                    "midi": 72,
                    "time": 304.19985150000105,
                    "velocity": 0.3779527559055118,
                    "duration": 0.23203649999999243
                },
                {
                    "name": "A#4",
                    "midi": 70,
                    "time": 304.43188800000104,
                    "velocity": 0.3779527559055118,
                    "duration": 0.46407299999998486
                },
                {
                    "name": "C5",
                    "midi": 72,
                    "time": 304.895961000001,
                    "velocity": 0.3779527559055118,
                    "duration": 0.11601825000002464
                },
                {
                    "name": "C#5",
                    "midi": 73,
                    "time": 305.1279975000011,
                    "velocity": 0.36220472440944884,
                    "duration": 0.11601825000002464
                },
                {
                    "name": "D#5",
                    "midi": 75,
                    "time": 305.3600340000011,
                    "velocity": 0.36220472440944884,
                    "duration": 0.11601825000002464
                },
                {
                    "name": "F5",
                    "midi": 77,
                    "time": 305.47605225000115,
                    "velocity": 0.33070866141732286,
                    "duration": 0.11601825000002464
                },
                {
                    "name": "D#5",
                    "midi": 75,
                    "time": 305.59207050000117,
                    "velocity": 0.33070866141732286,
                    "duration": 0.11601825000002464
                },
                {
                    "name": "C#5",
                    "midi": 73,
                    "time": 305.7080887500012,
                    "velocity": 0.33070866141732286,
                    "duration": 0.11601825000002464
                },
                {
                    "name": "C5",
                    "midi": 72,
                    "time": 305.8241070000012,
                    "velocity": 0.3700787401574803,
                    "duration": 0.11601825000002464
                },
                {
                    "name": "C#5",
                    "midi": 73,
                    "time": 305.94012525000124,
                    "velocity": 0.33070866141732286,
                    "duration": 0.11601825000002464
                },
                {
                    "name": "C5",
                    "midi": 72,
                    "time": 306.05614350000127,
                    "velocity": 0.33070866141732286,
                    "duration": 0.11601825000002464
                },
                {
                    "name": "A#4",
                    "midi": 70,
                    "time": 306.1721617500013,
                    "velocity": 0.33070866141732286,
                    "duration": 0.11601825000002464
                },
                {
                    "name": "G#4",
                    "midi": 68,
                    "time": 306.2881800000013,
                    "velocity": 0.3779527559055118,
                    "duration": 0.46407299999998486
                },
                {
                    "name": "A#4",
                    "midi": 70,
                    "time": 306.7522530000013,
                    "velocity": 0.3779527559055118,
                    "duration": 0.11601825000002464
                },
                {
                    "name": "C5",
                    "midi": 72,
                    "time": 306.98428950000135,
                    "velocity": 0.3464566929133858,
                    "duration": 0.11601825000002464
                },
                {
                    "name": "D#5",
                    "midi": 75,
                    "time": 307.2163260000014,
                    "velocity": 0.3779527559055118,
                    "duration": 0.23203649999999243
                },
                {
                    "name": "C#5",
                    "midi": 73,
                    "time": 307.4483625000014,
                    "velocity": 0.3779527559055118,
                    "duration": 0.11601825000002464
                },
                {
                    "name": "C#5",
                    "midi": 73,
                    "time": 307.68039900000144,
                    "velocity": 0.3779527559055118,
                    "duration": 0.11601825000002464
                },
                {
                    "name": "D#5",
                    "midi": 75,
                    "time": 307.79641725000147,
                    "velocity": 0.3464566929133858,
                    "duration": 0.11601825000002464
                },
                {
                    "name": "C#5",
                    "midi": 73,
                    "time": 307.9124355000015,
                    "velocity": 0.3464566929133858,
                    "duration": 0.11601825000002464
                },
                {
                    "name": "C5",
                    "midi": 72,
                    "time": 308.0284537500015,
                    "velocity": 0.3464566929133858,
                    "duration": 0.11601825000002464
                },
                {
                    "name": "A#4",
                    "midi": 70,
                    "time": 308.14447200000154,
                    "velocity": 0.3779527559055118,
                    "duration": 0.23203649999999243
                },
                {
                    "name": "D#5",
                    "midi": 75,
                    "time": 308.37650850000153,
                    "velocity": 0.3858267716535433,
                    "duration": 0.11601825000002464
                },
                {
                    "name": "F5",
                    "midi": 77,
                    "time": 308.6085450000016,
                    "velocity": 0.41732283464566927,
                    "duration": 0.11601825000002464
                },
                {
                    "name": "G5",
                    "midi": 79,
                    "time": 308.84058150000163,
                    "velocity": 0.4409448818897638,
                    "duration": 0.11601825000002464
                },
                {
                    "name": "G#5",
                    "midi": 80,
                    "time": 309.0726180000017,
                    "velocity": 0.4645669291338583,
                    "duration": 0.9281460000000266
                },
                {
                    "name": "G#4",
                    "midi": 68,
                    "time": 309.0726180000017,
                    "velocity": 0.3937007874015748,
                    "duration": 0.9281460000000266
                },
                {
                    "name": "C5",
                    "midi": 72,
                    "time": 310.0007640000017,
                    "velocity": 0.4015748031496063,
                    "duration": 0.6961094999999773
                },
                {
                    "name": "C6",
                    "midi": 84,
                    "time": 310.0007640000017,
                    "velocity": 0.47244094488188976,
                    "duration": 0.6961094999999773
                },
                {
                    "name": "G#5",
                    "midi": 80,
                    "time": 310.6968735000017,
                    "velocity": 0.4330708661417323,
                    "duration": 0.23203649999999243
                },
                {
                    "name": "G#4",
                    "midi": 68,
                    "time": 310.6968735000017,
                    "velocity": 0.3700787401574803,
                    "duration": 0.23203649999999243
                },
                {
                    "name": "G#4",
                    "midi": 68,
                    "time": 310.9289100000017,
                    "velocity": 0.3937007874015748,
                    "duration": 0.46407299999998486
                },
                {
                    "name": "G#5",
                    "midi": 80,
                    "time": 310.9289100000017,
                    "velocity": 0.4645669291338583,
                    "duration": 0.46407299999998486
                },
                {
                    "name": "G4",
                    "midi": 67,
                    "time": 311.39298300000166,
                    "velocity": 0.3700787401574803,
                    "duration": 0.9281460000000266
                },
                {
                    "name": "G5",
                    "midi": 79,
                    "time": 311.39298300000166,
                    "velocity": 0.4330708661417323,
                    "duration": 0.9281460000000266
                },
                {
                    "name": "G4",
                    "midi": 67,
                    "time": 312.3211290000017,
                    "velocity": 0.3779527559055118,
                    "duration": 0.46407299999998486
                },
                {
                    "name": "G5",
                    "midi": 79,
                    "time": 312.3211290000017,
                    "velocity": 0.44881889763779526,
                    "duration": 0.46407299999998486
                },
                {
                    "name": "G4",
                    "midi": 67,
                    "time": 312.7852020000017,
                    "velocity": 0.4094488188976378,
                    "duration": 0.23203649999999243
                },
                {
                    "name": "G5",
                    "midi": 79,
                    "time": 312.7852020000017,
                    "velocity": 0.49606299212598426,
                    "duration": 0.23203649999999243
                },
                {
                    "name": "F4",
                    "midi": 65,
                    "time": 313.01723850000167,
                    "velocity": 0.3779527559055118,
                    "duration": 0.23203649999999243
                },
                {
                    "name": "F5",
                    "midi": 77,
                    "time": 313.01723850000167,
                    "velocity": 0.4645669291338583,
                    "duration": 0.23203649999999243
                },
                {
                    "name": "A#4",
                    "midi": 70,
                    "time": 313.24927500000166,
                    "velocity": 0.3858267716535433,
                    "duration": 0.9281460000000266
                },
                {
                    "name": "A#5",
                    "midi": 82,
                    "time": 313.24927500000166,
                    "velocity": 0.4566929133858268,
                    "duration": 0.9281460000000266
                },
                {
                    "name": "A4",
                    "midi": 69,
                    "time": 314.1774210000017,
                    "velocity": 0.4015748031496063,
                    "duration": 0.46407299999998486
                },
                {
                    "name": "A5",
                    "midi": 81,
                    "time": 314.1774210000017,
                    "velocity": 0.48031496062992124,
                    "duration": 0.46407299999998486
                },
                {
                    "name": "A4",
                    "midi": 69,
                    "time": 314.64149400000167,
                    "velocity": 0.4015748031496063,
                    "duration": 0.23203649999999243
                },
                {
                    "name": "A5",
                    "midi": 81,
                    "time": 314.64149400000167,
                    "velocity": 0.48031496062992124,
                    "duration": 0.23203649999999243
                },
                {
                    "name": "G5",
                    "midi": 79,
                    "time": 314.87353050000166,
                    "velocity": 0.4251968503937008,
                    "duration": 0.23203649999999243
                },
                {
                    "name": "G4",
                    "midi": 67,
                    "time": 314.87353050000166,
                    "velocity": 0.36220472440944884,
                    "duration": 0.23203649999999243
                },
                {
                    "name": "D#6",
                    "midi": 87,
                    "time": 315.10556700000166,
                    "velocity": 0.5590551181102362,
                    "duration": 0.46407299999998486
                },
                {
                    "name": "D#5",
                    "midi": 75,
                    "time": 315.10556700000166,
                    "velocity": 0.4645669291338583,
                    "duration": 0.46407299999998486
                },
                {
                    "name": "D6",
                    "midi": 86,
                    "time": 315.56964000000164,
                    "velocity": 0.49606299212598426,
                    "duration": 0.46407299999998486
                },
                {
                    "name": "D5",
                    "midi": 74,
                    "time": 315.56964000000164,
                    "velocity": 0.4094488188976378,
                    "duration": 0.46407299999998486
                },
                {
                    "name": "C6",
                    "midi": 84,
                    "time": 316.0337130000016,
                    "velocity": 0.41732283464566927,
                    "duration": 0.46407299999998486
                },
                {
                    "name": "C5",
                    "midi": 72,
                    "time": 316.0337130000016,
                    "velocity": 0.3543307086614173,
                    "duration": 0.46407299999998486
                },
                {
                    "name": "A#4",
                    "midi": 70,
                    "time": 316.4977860000016,
                    "velocity": 0.3464566929133858,
                    "duration": 0.23203649999999243
                },
                {
                    "name": "A#5",
                    "midi": 82,
                    "time": 316.4977860000016,
                    "velocity": 0.41732283464566927,
                    "duration": 0.23203649999999243
                },
                {
                    "name": "D5",
                    "midi": 74,
                    "time": 316.9618590000016,
                    "velocity": 0.36220472440944884,
                    "duration": 0.11601825000002464
                },
                {
                    "name": "D5",
                    "midi": 74,
                    "time": 317.1165500000016,
                    "velocity": 0.3779527559055118,
                    "duration": 0.11601825000002464
                },
                {
                    "name": "D5",
                    "midi": 74,
                    "time": 317.2712410000016,
                    "velocity": 0.3937007874015748,
                    "duration": 0.11601825000002464
                },
                {
                    "name": "D5",
                    "midi": 74,
                    "time": 317.42593200000164,
                    "velocity": 0.4015748031496063,
                    "duration": 0.11601825000002464
                },
                {
                    "name": "D5",
                    "midi": 74,
                    "time": 317.58062300000165,
                    "velocity": 0.3858267716535433,
                    "duration": 0.11601825000002464
                },
                {
                    "name": "D5",
                    "midi": 74,
                    "time": 317.73531400000167,
                    "velocity": 0.3700787401574803,
                    "duration": 0.11601825000002464
                },
                {
                    "name": "D5",
                    "midi": 74,
                    "time": 317.8900050000017,
                    "velocity": 0.4015748031496063,
                    "duration": 0.11601825000002464
                },
                {
                    "name": "C5",
                    "midi": 72,
                    "time": 318.0060232500017,
                    "velocity": 0.36220472440944884,
                    "duration": 0.11601825000002464
                },
                {
                    "name": "D5",
                    "midi": 74,
                    "time": 318.1220415000017,
                    "velocity": 0.3700787401574803,
                    "duration": 0.11601825000002464
                },
                {
                    "name": "D#5",
                    "midi": 75,
                    "time": 318.23805975000175,
                    "velocity": 0.3700787401574803,
                    "duration": 0.11601825000002464
                },
                {
                    "name": "D5",
                    "midi": 74,
                    "time": 318.3540780000018,
                    "velocity": 0.41732283464566927,
                    "duration": 0.23203649999999243
                },
                {
                    "name": "D6",
                    "midi": 86,
                    "time": 319.9783335000018,
                    "velocity": 0.4094488188976378,
                    "duration": 0.11601825000002464
                },
                {
                    "name": "C6",
                    "midi": 84,
                    "time": 320.21037000000183,
                    "velocity": 0.49606299212598426,
                    "duration": 0.23203649999999243
                },
                {
                    "name": "B5",
                    "midi": 83,
                    "time": 320.4424065000018,
                    "velocity": 0.29133858267716534,
                    "duration": 0.11601825000002464
                },
                {
                    "name": "B5",
                    "midi": 83,
                    "time": 320.6744430000019,
                    "velocity": 0.33858267716535434,
                    "duration": 0.11601825000002464
                },
                {
                    "name": "B5",
                    "midi": 83,
                    "time": 320.9064795000019,
                    "velocity": 0.29133858267716534,
                    "duration": 0.11601825000002464
                },
                {
                    "name": "B5",
                    "midi": 83,
                    "time": 321.13851600000197,
                    "velocity": 0.4330708661417323,
                    "duration": 0.11601825000002464
                },
                {
                    "name": "C6",
                    "midi": 84,
                    "time": 321.254534250002,
                    "velocity": 0.3858267716535433,
                    "duration": 0.11601825000002464
                },
                {
                    "name": "G6",
                    "midi": 91,
                    "time": 321.370552500002,
                    "velocity": 0.4645669291338583,
                    "duration": 0.23203649999999243
                },
                {
                    "name": "F6",
                    "midi": 89,
                    "time": 321.602589000002,
                    "velocity": 0.3937007874015748,
                    "duration": 0.11601825000002464
                },
                {
                    "name": "D#6",
                    "midi": 87,
                    "time": 321.71860725000204,
                    "velocity": 0.3543307086614173,
                    "duration": 0.11601825000002464
                },
                {
                    "name": "D6",
                    "midi": 86,
                    "time": 321.83462550000206,
                    "velocity": 0.3543307086614173,
                    "duration": 0.11601825000002464
                },
                {
                    "name": "C6",
                    "midi": 84,
                    "time": 321.9506437500021,
                    "velocity": 0.3543307086614173,
                    "duration": 0.11601825000002464
                },
                {
                    "name": "C6",
                    "midi": 84,
                    "time": 322.0666620000021,
                    "velocity": 0.49606299212598426,
                    "duration": 0.23203649999999243
                },
                {
                    "name": "B5",
                    "midi": 83,
                    "time": 322.2986985000021,
                    "velocity": 0.29133858267716534,
                    "duration": 0.11601825000002464
                },
                {
                    "name": "B5",
                    "midi": 83,
                    "time": 322.53073500000215,
                    "velocity": 0.3464566929133858,
                    "duration": 0.11601825000002464
                },
                {
                    "name": "B5",
                    "midi": 83,
                    "time": 322.7627715000022,
                    "velocity": 0.29133858267716534,
                    "duration": 0.11601825000002464
                },
                {
                    "name": "B5",
                    "midi": 83,
                    "time": 322.99480800000225,
                    "velocity": 0.44881889763779526,
                    "duration": 0.23203649999999243
                },
                {
                    "name": "C6",
                    "midi": 84,
                    "time": 323.22684450000224,
                    "velocity": 0.3700787401574803,
                    "duration": 0.11601825000002464
                },
                {
                    "name": "D#6",
                    "midi": 87,
                    "time": 323.6909175000023,
                    "velocity": 0.4251968503937008,
                    "duration": 0.23203649999999243
                },
                {
                    "name": "C6",
                    "midi": 84,
                    "time": 323.9229540000023,
                    "velocity": 0.49606299212598426,
                    "duration": 0.23203649999999243
                },
                {
                    "name": "A#5",
                    "midi": 82,
                    "time": 324.15499050000227,
                    "velocity": 0.4094488188976378,
                    "duration": 0.11601825000002464
                },
                {
                    "name": "A#5",
                    "midi": 82,
                    "time": 324.3870270000023,
                    "velocity": 0.4251968503937008,
                    "duration": 0.11601825000002464
                },
                {
                    "name": "A#5",
                    "midi": 82,
                    "time": 324.61906350000237,
                    "velocity": 0.4251968503937008,
                    "duration": 0.11601825000002464
                },
                {
                    "name": "C6",
                    "midi": 84,
                    "time": 324.8511000000024,
                    "velocity": 0.49606299212598426,
                    "duration": 0.23203649999999243
                },
                {
                    "name": "A#5",
                    "midi": 82,
                    "time": 325.0831365000024,
                    "velocity": 0.41732283464566927,
                    "duration": 0.11601825000002464
                },
                {
                    "name": "A#5",
                    "midi": 82,
                    "time": 325.31517300000246,
                    "velocity": 0.4330708661417323,
                    "duration": 0.11601825000002464
                },
                {
                    "name": "A#5",
                    "midi": 82,
                    "time": 325.5472095000025,
                    "velocity": 0.4330708661417323,
                    "duration": 0.11601825000002464
                },
                {
                    "name": "G5",
                    "midi": 79,
                    "time": 325.77924600000256,
                    "velocity": 0.49606299212598426,
                    "duration": 0.11601825000002464
                },
                {
                    "name": "F5",
                    "midi": 77,
                    "time": 325.8952642500026,
                    "velocity": 0.4094488188976378,
                    "duration": 0.11601825000002464
                },
                {
                    "name": "E5",
                    "midi": 76,
                    "time": 326.0112825000026,
                    "velocity": 0.41732283464566927,
                    "duration": 0.11601825000002464
                },
                {
                    "name": "F5",
                    "midi": 77,
                    "time": 326.12730075000263,
                    "velocity": 0.41732283464566927,
                    "duration": 0.11601825000002464
                },
                {
                    "name": "D#5",
                    "midi": 75,
                    "time": 326.24331900000266,
                    "velocity": 0.4566929133858268,
                    "duration": 0.11601825000002464
                },
                {
                    "name": "C5",
                    "midi": 72,
                    "time": 326.4753555000027,
                    "velocity": 0.4251968503937008,
                    "duration": 0.11601825000002464
                },
                {
                    "name": "A#4",
                    "midi": 70,
                    "time": 326.70739200000276,
                    "velocity": 0.4566929133858268,
                    "duration": 0.11601825000002464
                },
                {
                    "name": "D5",
                    "midi": 74,
                    "time": 326.9394285000028,
                    "velocity": 0.4330708661417323,
                    "duration": 0.11601825000002464
                },
                {
                    "name": "F5",
                    "midi": 77,
                    "time": 327.17146500000285,
                    "velocity": 0.4330708661417323,
                    "duration": 0.11601825000002464
                },
                {
                    "name": "A#5",
                    "midi": 82,
                    "time": 327.4035015000029,
                    "velocity": 0.4330708661417323,
                    "duration": 0.11601825000002464
                },
                {
                    "name": "D6",
                    "midi": 86,
                    "time": 327.63553800000295,
                    "velocity": 0.47244094488188976,
                    "duration": 0.23203649999999243
                },
                {
                    "name": "C6",
                    "midi": 84,
                    "time": 327.86757450000295,
                    "velocity": 0.4566929133858268,
                    "duration": 0.11601825000002464
                },
                {
                    "name": "C6",
                    "midi": 84,
                    "time": 328.099611000003,
                    "velocity": 0.48031496062992124,
                    "duration": 0.11601825000002464
                },
                {
                    "name": "C6",
                    "midi": 84,
                    "time": 328.33164750000304,
                    "velocity": 0.4566929133858268,
                    "duration": 0.11601825000002464
                },
                {
                    "name": "G5",
                    "midi": 79,
                    "time": 328.5636840000031,
                    "velocity": 0.49606299212598426,
                    "duration": 0.11601825000002464
                },
                {
                    "name": "F5",
                    "midi": 77,
                    "time": 328.6797022500031,
                    "velocity": 0.4094488188976378,
                    "duration": 0.11601825000002464
                },
                {
                    "name": "E5",
                    "midi": 76,
                    "time": 328.79572050000314,
                    "velocity": 0.41732283464566927,
                    "duration": 0.11601825000002464
                },
                {
                    "name": "F5",
                    "midi": 77,
                    "time": 328.91173875000317,
                    "velocity": 0.41732283464566927,
                    "duration": 0.11601825000002464
                },
                {
                    "name": "C5",
                    "midi": 72,
                    "time": 329.0277570000032,
                    "velocity": 0.4566929133858268,
                    "duration": 0.11601825000002464
                },
                {
                    "name": "A4",
                    "midi": 69,
                    "time": 329.25979350000324,
                    "velocity": 0.4251968503937008,
                    "duration": 0.11601825000002464
                },
                {
                    "name": "D6",
                    "midi": 86,
                    "time": 329.4918300000033,
                    "velocity": 0.5118110236220472,
                    "duration": 0.23203649999999243
                },
                {
                    "name": "C6",
                    "midi": 84,
                    "time": 329.7238665000033,
                    "velocity": 0.4566929133858268,
                    "duration": 0.11601825000002464
                },
                {
                    "name": "C6",
                    "midi": 84,
                    "time": 329.95590300000333,
                    "velocity": 0.48031496062992124,
                    "duration": 0.11601825000002464
                },
                {
                    "name": "C6",
                    "midi": 84,
                    "time": 330.1879395000034,
                    "velocity": 0.4566929133858268,
                    "duration": 0.11601825000002464
                },
                {
                    "name": "G5",
                    "midi": 79,
                    "time": 330.41997600000343,
                    "velocity": 0.49606299212598426,
                    "duration": 0.11601825000002464
                },
                {
                    "name": "F5",
                    "midi": 77,
                    "time": 330.53599425000345,
                    "velocity": 0.4094488188976378,
                    "duration": 0.11601825000002464
                },
                {
                    "name": "E5",
                    "midi": 76,
                    "time": 330.6520125000035,
                    "velocity": 0.41732283464566927,
                    "duration": 0.11601825000002464
                },
                {
                    "name": "F5",
                    "midi": 77,
                    "time": 330.7680307500035,
                    "velocity": 0.41732283464566927,
                    "duration": 0.11601825000002464
                },
                {
                    "name": "C5",
                    "midi": 72,
                    "time": 330.88404900000353,
                    "velocity": 0.4566929133858268,
                    "duration": 0.11601825000002464
                },
                {
                    "name": "A4",
                    "midi": 69,
                    "time": 331.1160855000036,
                    "velocity": 0.4251968503937008,
                    "duration": 0.11601825000002464
                },
                {
                    "name": "F4",
                    "midi": 65,
                    "time": 331.3481220000036,
                    "velocity": 0.36220472440944884,
                    "duration": 0.11601825000002464
                },
                {
                    "name": "A4",
                    "midi": 69,
                    "time": 332.50830450000365,
                    "velocity": 0.4094488188976378,
                    "duration": 0.11601825000002464
                },
                {
                    "name": "C5",
                    "midi": 72,
                    "time": 332.50830450000365,
                    "velocity": 0.4094488188976378,
                    "duration": 0.11601825000002464
                },
                {
                    "name": "F5",
                    "midi": 77,
                    "time": 332.50830450000365,
                    "velocity": 0.4094488188976378,
                    "duration": 0.11601825000002464
                },
                {
                    "name": "A4",
                    "midi": 69,
                    "time": 332.7403410000037,
                    "velocity": 0.4094488188976378,
                    "duration": 0.11601825000002464
                },
                {
                    "name": "D5",
                    "midi": 74,
                    "time": 332.7403410000037,
                    "velocity": 0.4094488188976378,
                    "duration": 0.11601825000002464
                },
                {
                    "name": "F5",
                    "midi": 77,
                    "time": 332.7403410000037,
                    "velocity": 0.4094488188976378,
                    "duration": 0.11601825000002464
                },
                {
                    "name": "A4",
                    "midi": 69,
                    "time": 332.97237750000374,
                    "velocity": 0.4094488188976378,
                    "duration": 0.11601825000002464
                },
                {
                    "name": "D#5",
                    "midi": 75,
                    "time": 332.97237750000374,
                    "velocity": 0.4094488188976378,
                    "duration": 0.11601825000002464
                },
                {
                    "name": "F5",
                    "midi": 77,
                    "time": 332.97237750000374,
                    "velocity": 0.4094488188976378,
                    "duration": 0.11601825000002464
                },
                {
                    "name": "F5",
                    "midi": 77,
                    "time": 333.2044140000038,
                    "velocity": 0.4094488188976378,
                    "duration": 0.46407300000009855
                },
                {
                    "name": "D5",
                    "midi": 74,
                    "time": 333.3204322500038,
                    "velocity": 0.2677165354330709,
                    "duration": 0.11601825000002464
                },
                {
                    "name": "A#4",
                    "midi": 70,
                    "time": 333.43645050000384,
                    "velocity": 0.25984251968503935,
                    "duration": 0.11601825000002464
                },
                {
                    "name": "D5",
                    "midi": 74,
                    "time": 333.55246875000387,
                    "velocity": 0.25984251968503935,
                    "duration": 0.11601825000002464
                },
                {
                    "name": "A#5",
                    "midi": 82,
                    "time": 333.6684870000039,
                    "velocity": 0.41732283464566927,
                    "duration": 0.46407300000009855
                },
                {
                    "name": "D5",
                    "midi": 74,
                    "time": 333.7845052500039,
                    "velocity": 0.30708661417322836,
                    "duration": 0.11601825000002464
                },
                {
                    "name": "A#4",
                    "midi": 70,
                    "time": 333.90052350000394,
                    "velocity": 0.30708661417322836,
                    "duration": 0.11601825000002464
                },
                {
                    "name": "D5",
                    "midi": 74,
                    "time": 334.01654175000397,
                    "velocity": 0.30708661417322836,
                    "duration": 0.11601825000002464
                },
                {
                    "name": "F5",
                    "midi": 77,
                    "time": 334.132560000004,
                    "velocity": 0.4094488188976378,
                    "duration": 0.11601825000002464
                },
                {
                    "name": "A5",
                    "midi": 81,
                    "time": 334.132560000004,
                    "velocity": 0.4094488188976378,
                    "duration": 0.46407300000009855
                },
                {
                    "name": "D5",
                    "midi": 74,
                    "time": 334.248578250004,
                    "velocity": 0.2992125984251969,
                    "duration": 0.11601825000002464
                },
                {
                    "name": "A4",
                    "midi": 69,
                    "time": 334.36459650000404,
                    "velocity": 0.2992125984251969,
                    "duration": 0.11601825000002464
                },
                {
                    "name": "D5",
                    "midi": 74,
                    "time": 334.48061475000407,
                    "velocity": 0.2992125984251969,
                    "duration": 0.11601825000002464
                },
                {
                    "name": "D#5",
                    "midi": 75,
                    "time": 334.5966330000041,
                    "velocity": 0.4015748031496063,
                    "duration": 0.11601825000002464
                },
                {
                    "name": "G5",
                    "midi": 79,
                    "time": 334.5966330000041,
                    "velocity": 0.4015748031496063,
                    "duration": 0.46407300000009855
                },
                {
                    "name": "A#4",
                    "midi": 70,
                    "time": 334.7126512500041,
                    "velocity": 0.2677165354330709,
                    "duration": 0.11601825000002464
                },
                {
                    "name": "G4",
                    "midi": 67,
                    "time": 334.82866950000414,
                    "velocity": 0.2677165354330709,
                    "duration": 0.11601825000002464
                },
                {
                    "name": "A#4",
                    "midi": 70,
                    "time": 334.94468775000416,
                    "velocity": 0.2677165354330709,
                    "duration": 0.11601825000002464
                },
                {
                    "name": "D5",
                    "midi": 74,
                    "time": 335.0607060000042,
                    "velocity": 0.4015748031496063,
                    "duration": 0.11601825000002464
                },
                {
                    "name": "G5",
                    "midi": 79,
                    "time": 335.0607060000042,
                    "velocity": 0.4015748031496063,
                    "duration": 0.46407300000009855
                },
                {
                    "name": "A#4",
                    "midi": 70,
                    "time": 335.1767242500042,
                    "velocity": 0.2755905511811024,
                    "duration": 0.11601825000002464
                },
                {
                    "name": "G4",
                    "midi": 67,
                    "time": 335.29274250000424,
                    "velocity": 0.2755905511811024,
                    "duration": 0.11601825000002464
                },
                {
                    "name": "A#4",
                    "midi": 70,
                    "time": 335.40876075000426,
                    "velocity": 0.2755905511811024,
                    "duration": 0.11601825000002464
                },
                {
                    "name": "D5",
                    "midi": 74,
                    "time": 335.5247790000043,
                    "velocity": 0.3858267716535433,
                    "duration": 0.11601825000002464
                },
                {
                    "name": "F5",
                    "midi": 77,
                    "time": 335.5247790000043,
                    "velocity": 0.3858267716535433,
                    "duration": 0.46407300000009855
                },
                {
                    "name": "A#4",
                    "midi": 70,
                    "time": 335.6407972500043,
                    "velocity": 0.2755905511811024,
                    "duration": 0.11601825000002464
                },
                {
                    "name": "F4",
                    "midi": 65,
                    "time": 335.75681550000434,
                    "velocity": 0.2755905511811024,
                    "duration": 0.11601825000002464
                },
                {
                    "name": "A#4",
                    "midi": 70,
                    "time": 335.87283375000436,
                    "velocity": 0.2755905511811024,
                    "duration": 0.11601825000002464
                },
                {
                    "name": "D5",
                    "midi": 74,
                    "time": 335.9888520000044,
                    "velocity": 0.3937007874015748,
                    "duration": 0.11601825000002464
                },
                {
                    "name": "F5",
                    "midi": 77,
                    "time": 335.9888520000044,
                    "velocity": 0.3937007874015748,
                    "duration": 0.46407300000009855
                },
                {
                    "name": "A4",
                    "midi": 69,
                    "time": 336.1048702500044,
                    "velocity": 0.28346456692913385,
                    "duration": 0.11601825000002464
                },
                {
                    "name": "F4",
                    "midi": 65,
                    "time": 336.22088850000443,
                    "velocity": 0.28346456692913385,
                    "duration": 0.11601825000002464
                },
                {
                    "name": "A4",
                    "midi": 69,
                    "time": 336.33690675000446,
                    "velocity": 0.28346456692913385,
                    "duration": 0.11601825000002464
                },
                {
                    "name": "C5",
                    "midi": 72,
                    "time": 336.4529250000045,
                    "velocity": 0.3858267716535433,
                    "duration": 0.11601825000002464
                },
                {
                    "name": "D#5",
                    "midi": 75,
                    "time": 336.4529250000045,
                    "velocity": 0.3858267716535433,
                    "duration": 0.46407300000009855
                },
                {
                    "name": "A4",
                    "midi": 69,
                    "time": 336.5689432500045,
                    "velocity": 0.2677165354330709,
                    "duration": 0.11601825000002464
                },
                {
                    "name": "D#4",
                    "midi": 63,
                    "time": 336.68496150000453,
                    "velocity": 0.2677165354330709,
                    "duration": 0.11601825000002464
                },
                {
                    "name": "A4",
                    "midi": 69,
                    "time": 336.80097975000456,
                    "velocity": 0.2677165354330709,
                    "duration": 0.11601825000002464
                },
                {
                    "name": "A#4",
                    "midi": 70,
                    "time": 336.9169980000046,
                    "velocity": 0.3937007874015748,
                    "duration": 0.11601825000002464
                },
                {
                    "name": "D#5",
                    "midi": 75,
                    "time": 336.9169980000046,
                    "velocity": 0.3937007874015748,
                    "duration": 0.46407300000009855
                },
                {
                    "name": "G4",
                    "midi": 67,
                    "time": 337.0330162500046,
                    "velocity": 0.2755905511811024,
                    "duration": 0.11601825000002464
                },
                {
                    "name": "D#4",
                    "midi": 63,
                    "time": 337.14903450000463,
                    "velocity": 0.2755905511811024,
                    "duration": 0.11601825000002464
                },
                {
                    "name": "G4",
                    "midi": 67,
                    "time": 337.26505275000466,
                    "velocity": 0.2755905511811024,
                    "duration": 0.11601825000002464
                },
                {
                    "name": "A#4",
                    "midi": 70,
                    "time": 337.3810710000047,
                    "velocity": 0.3858267716535433,
                    "duration": 0.11601825000002464
                },
                {
                    "name": "D5",
                    "midi": 74,
                    "time": 337.3810710000047,
                    "velocity": 0.3858267716535433,
                    "duration": 0.46407300000009855
                },
                {
                    "name": "G4",
                    "midi": 67,
                    "time": 337.4970892500047,
                    "velocity": 0.2755905511811024,
                    "duration": 0.11601825000002464
                },
                {
                    "name": "D4",
                    "midi": 62,
                    "time": 337.61310750000473,
                    "velocity": 0.2755905511811024,
                    "duration": 0.11601825000002464
                },
                {
                    "name": "G4",
                    "midi": 67,
                    "time": 337.72912575000475,
                    "velocity": 0.2755905511811024,
                    "duration": 0.11601825000002464
                },
                {
                    "name": "A4",
                    "midi": 69,
                    "time": 337.8451440000048,
                    "velocity": 0.3779527559055118,
                    "duration": 0.11601825000002464
                },
                {
                    "name": "D5",
                    "midi": 74,
                    "time": 337.8451440000048,
                    "velocity": 0.3779527559055118,
                    "duration": 0.46407300000009855
                },
                {
                    "name": "F#4",
                    "midi": 66,
                    "time": 337.9611622500048,
                    "velocity": 0.28346456692913385,
                    "duration": 0.11601825000002464
                },
                {
                    "name": "D4",
                    "midi": 62,
                    "time": 338.07718050000483,
                    "velocity": 0.28346456692913385,
                    "duration": 0.11601825000002464
                },
                {
                    "name": "F#4",
                    "midi": 66,
                    "time": 338.19319875000485,
                    "velocity": 0.28346456692913385,
                    "duration": 0.11601825000002464
                },
                {
                    "name": "C5",
                    "midi": 72,
                    "time": 338.3092170000049,
                    "velocity": 0.3700787401574803,
                    "duration": 0.46407300000009855
                },
                {
                    "name": "A4",
                    "midi": 69,
                    "time": 338.4252352500049,
                    "velocity": 0.2755905511811024,
                    "duration": 0.11601825000002464
                },
                {
                    "name": "D4",
                    "midi": 62,
                    "time": 338.5412535000049,
                    "velocity": 0.2755905511811024,
                    "duration": 0.11601825000002464
                },
                {
                    "name": "A4",
                    "midi": 69,
                    "time": 338.65727175000495,
                    "velocity": 0.2755905511811024,
                    "duration": 0.11601825000002464
                },
                {
                    "name": "C5",
                    "midi": 72,
                    "time": 338.773290000005,
                    "velocity": 0.3779527559055118,
                    "duration": 0.46407300000009855
                },
                {
                    "name": "G4",
                    "midi": 67,
                    "time": 338.889308250005,
                    "velocity": 0.2992125984251969,
                    "duration": 0.11601825000002464
                },
                {
                    "name": "D4",
                    "midi": 62,
                    "time": 339.005326500005,
                    "velocity": 0.33070866141732286,
                    "duration": 0.11601825000002464
                },
                {
                    "name": "G4",
                    "midi": 67,
                    "time": 339.12134475000505,
                    "velocity": 0.3543307086614173,
                    "duration": 0.11601825000002464
                },
                {
                    "name": "A#4",
                    "midi": 70,
                    "time": 339.2373630000051,
                    "velocity": 0.4094488188976378,
                    "duration": 0.46407300000009855
                },
                {
                    "name": "G4",
                    "midi": 67,
                    "time": 339.3533812500051,
                    "velocity": 0.30708661417322836,
                    "duration": 0.11601825000002464
                },
                {
                    "name": "D4",
                    "midi": 62,
                    "time": 339.4693995000051,
                    "velocity": 0.30708661417322836,
                    "duration": 0.11601825000002464
                },
                {
                    "name": "G4",
                    "midi": 67,
                    "time": 339.58541775000515,
                    "velocity": 0.30708661417322836,
                    "duration": 0.11601825000002464
                },
                {
                    "name": "A4",
                    "midi": 69,
                    "time": 339.7014360000052,
                    "velocity": 0.3858267716535433,
                    "duration": 0.46407299999998486
                },
                {
                    "name": "G4",
                    "midi": 67,
                    "time": 340.16550900000516,
                    "velocity": 0.3700787401574803,
                    "duration": 0.46407299999998486
                },
                {
                    "name": "A4",
                    "midi": 69,
                    "time": 341.78976450000516,
                    "velocity": 0.4094488188976378,
                    "duration": 0.11601825000002464
                },
                {
                    "name": "C5",
                    "midi": 72,
                    "time": 341.78976450000516,
                    "velocity": 0.4094488188976378,
                    "duration": 0.11601825000002464
                },
                {
                    "name": "F5",
                    "midi": 77,
                    "time": 341.78976450000516,
                    "velocity": 0.4094488188976378,
                    "duration": 0.11601825000002464
                },
                {
                    "name": "A4",
                    "midi": 69,
                    "time": 342.0218010000052,
                    "velocity": 0.4094488188976378,
                    "duration": 0.11601825000002464
                },
                {
                    "name": "D5",
                    "midi": 74,
                    "time": 342.0218010000052,
                    "velocity": 0.4094488188976378,
                    "duration": 0.11601825000002464
                },
                {
                    "name": "F5",
                    "midi": 77,
                    "time": 342.0218010000052,
                    "velocity": 0.4094488188976378,
                    "duration": 0.11601825000002464
                },
                {
                    "name": "A4",
                    "midi": 69,
                    "time": 342.25383750000526,
                    "velocity": 0.4094488188976378,
                    "duration": 0.11601825000002464
                },
                {
                    "name": "D#5",
                    "midi": 75,
                    "time": 342.25383750000526,
                    "velocity": 0.4094488188976378,
                    "duration": 0.11601825000002464
                },
                {
                    "name": "F5",
                    "midi": 77,
                    "time": 342.25383750000526,
                    "velocity": 0.4094488188976378,
                    "duration": 0.11601825000002464
                },
                {
                    "name": "F5",
                    "midi": 77,
                    "time": 342.4858740000053,
                    "velocity": 0.4094488188976378,
                    "duration": 0.46407300000009855
                },
                {
                    "name": "D5",
                    "midi": 74,
                    "time": 342.60189225000533,
                    "velocity": 0.29133858267716534,
                    "duration": 0.11601825000002464
                },
                {
                    "name": "A#4",
                    "midi": 70,
                    "time": 342.71791050000536,
                    "velocity": 0.29133858267716534,
                    "duration": 0.11601825000002464
                },
                {
                    "name": "D5",
                    "midi": 74,
                    "time": 342.8339287500054,
                    "velocity": 0.29133858267716534,
                    "duration": 0.11601825000002464
                },
                {
                    "name": "A#5",
                    "midi": 82,
                    "time": 342.9499470000054,
                    "velocity": 0.41732283464566927,
                    "duration": 0.46407300000009855
                },
                {
                    "name": "D5",
                    "midi": 74,
                    "time": 343.06596525000543,
                    "velocity": 0.31496062992125984,
                    "duration": 0.11601825000002464
                },
                {
                    "name": "A#4",
                    "midi": 70,
                    "time": 343.18198350000546,
                    "velocity": 0.31496062992125984,
                    "duration": 0.11601825000002464
                },
                {
                    "name": "D5",
                    "midi": 74,
                    "time": 343.2980017500055,
                    "velocity": 0.33070866141732286,
                    "duration": 0.11601825000002464
                },
                {
                    "name": "F5",
                    "midi": 77,
                    "time": 343.4140200000055,
                    "velocity": 0.4094488188976378,
                    "duration": 0.11601825000002464
                },
                {
                    "name": "A5",
                    "midi": 81,
                    "time": 343.4140200000055,
                    "velocity": 0.4094488188976378,
                    "duration": 0.46407300000009855
                },
                {
                    "name": "D5",
                    "midi": 74,
                    "time": 343.53003825000553,
                    "velocity": 0.2992125984251969,
                    "duration": 0.11601825000002464
                },
                {
                    "name": "A4",
                    "midi": 69,
                    "time": 343.64605650000556,
                    "velocity": 0.2992125984251969,
                    "duration": 0.11601825000002464
                },
                {
                    "name": "D5",
                    "midi": 74,
                    "time": 343.7620747500056,
                    "velocity": 0.2992125984251969,
                    "duration": 0.11601825000002464
                },
                {
                    "name": "D#5",
                    "midi": 75,
                    "time": 343.8780930000056,
                    "velocity": 0.4015748031496063,
                    "duration": 0.11601825000002464
                },
                {
                    "name": "G5",
                    "midi": 79,
                    "time": 343.8780930000056,
                    "velocity": 0.4015748031496063,
                    "duration": 0.46407300000009855
                },
                {
                    "name": "A#4",
                    "midi": 70,
                    "time": 343.99411125000563,
                    "velocity": 0.2677165354330709,
                    "duration": 0.11601825000002464
                },
                {
                    "name": "G4",
                    "midi": 67,
                    "time": 344.11012950000566,
                    "velocity": 0.2677165354330709,
                    "duration": 0.11601825000002464
                },
                {
                    "name": "A#4",
                    "midi": 70,
                    "time": 344.2261477500057,
                    "velocity": 0.2677165354330709,
                    "duration": 0.11601825000002464
                },
                {
                    "name": "D5",
                    "midi": 74,
                    "time": 344.3421660000057,
                    "velocity": 0.3779527559055118,
                    "duration": 0.11601825000002464
                },
                {
                    "name": "G5",
                    "midi": 79,
                    "time": 344.3421660000057,
                    "velocity": 0.3779527559055118,
                    "duration": 0.46407300000009855
                },
                {
                    "name": "A#4",
                    "midi": 70,
                    "time": 344.45818425000573,
                    "velocity": 0.29133858267716534,
                    "duration": 0.11601825000002464
                },
                {
                    "name": "G4",
                    "midi": 67,
                    "time": 344.57420250000575,
                    "velocity": 0.29133858267716534,
                    "duration": 0.11601825000002464
                },
                {
                    "name": "A#4",
                    "midi": 70,
                    "time": 344.6902207500058,
                    "velocity": 0.29133858267716534,
                    "duration": 0.11601825000002464
                },
                {
                    "name": "D5",
                    "midi": 74,
                    "time": 344.8062390000058,
                    "velocity": 0.3858267716535433,
                    "duration": 0.11601825000002464
                },
                {
                    "name": "F5",
                    "midi": 77,
                    "time": 344.8062390000058,
                    "velocity": 0.3858267716535433,
                    "duration": 0.46407300000009855
                },
                {
                    "name": "A#4",
                    "midi": 70,
                    "time": 344.9222572500058,
                    "velocity": 0.2755905511811024,
                    "duration": 0.11601825000002464
                },
                {
                    "name": "F4",
                    "midi": 65,
                    "time": 345.03827550000585,
                    "velocity": 0.2755905511811024,
                    "duration": 0.11601825000002464
                },
                {
                    "name": "A#4",
                    "midi": 70,
                    "time": 345.1542937500059,
                    "velocity": 0.2755905511811024,
                    "duration": 0.11601825000002464
                },
                {
                    "name": "D5",
                    "midi": 74,
                    "time": 345.2703120000059,
                    "velocity": 0.3858267716535433,
                    "duration": 0.11601825000002464
                },
                {
                    "name": "F5",
                    "midi": 77,
                    "time": 345.2703120000059,
                    "velocity": 0.3858267716535433,
                    "duration": 0.46407300000009855
                },
                {
                    "name": "A4",
                    "midi": 69,
                    "time": 345.3863302500059,
                    "velocity": 0.28346456692913385,
                    "duration": 0.11601825000002464
                },
                {
                    "name": "F4",
                    "midi": 65,
                    "time": 345.50234850000595,
                    "velocity": 0.28346456692913385,
                    "duration": 0.11601825000002464
                },
                {
                    "name": "A4",
                    "midi": 69,
                    "time": 345.618366750006,
                    "velocity": 0.29133858267716534,
                    "duration": 0.11601825000002464
                },
                {
                    "name": "C5",
                    "midi": 72,
                    "time": 345.734385000006,
                    "velocity": 0.3858267716535433,
                    "duration": 0.11601825000002464
                },
                {
                    "name": "D#5",
                    "midi": 75,
                    "time": 345.734385000006,
                    "velocity": 0.3858267716535433,
                    "duration": 0.46407300000009855
                },
                {
                    "name": "A4",
                    "midi": 69,
                    "time": 345.850403250006,
                    "velocity": 0.2755905511811024,
                    "duration": 0.11601825000002464
                },
                {
                    "name": "D#4",
                    "midi": 63,
                    "time": 345.96642150000605,
                    "velocity": 0.2755905511811024,
                    "duration": 0.11601825000002464
                },
                {
                    "name": "A4",
                    "midi": 69,
                    "time": 346.0824397500061,
                    "velocity": 0.2755905511811024,
                    "duration": 0.11601825000002464
                },
                {
                    "name": "A#4",
                    "midi": 70,
                    "time": 346.1984580000061,
                    "velocity": 0.3937007874015748,
                    "duration": 0.11601825000002464
                },
                {
                    "name": "D#5",
                    "midi": 75,
                    "time": 346.1984580000061,
                    "velocity": 0.3937007874015748,
                    "duration": 0.46407300000009855
                },
                {
                    "name": "G4",
                    "midi": 67,
                    "time": 346.3144762500061,
                    "velocity": 0.28346456692913385,
                    "duration": 0.11601825000002464
                },
                {
                    "name": "D#4",
                    "midi": 63,
                    "time": 346.43049450000615,
                    "velocity": 0.28346456692913385,
                    "duration": 0.11601825000002464
                },
                {
                    "name": "G4",
                    "midi": 67,
                    "time": 346.5465127500062,
                    "velocity": 0.28346456692913385,
                    "duration": 0.11601825000002464
                },
                {
                    "name": "A#4",
                    "midi": 70,
                    "time": 346.6625310000062,
                    "velocity": 0.3858267716535433,
                    "duration": 0.11601825000002464
                },
                {
                    "name": "D5",
                    "midi": 74,
                    "time": 346.6625310000062,
                    "velocity": 0.3858267716535433,
                    "duration": 0.46407300000009855
                },
                {
                    "name": "G4",
                    "midi": 67,
                    "time": 346.7785492500062,
                    "velocity": 0.28346456692913385,
                    "duration": 0.11601825000002464
                },
                {
                    "name": "D4",
                    "midi": 62,
                    "time": 346.89456750000625,
                    "velocity": 0.28346456692913385,
                    "duration": 0.11601825000002464
                },
                {
                    "name": "G4",
                    "midi": 67,
                    "time": 347.01058575000627,
                    "velocity": 0.28346456692913385,
                    "duration": 0.11601825000002464
                },
                {
                    "name": "A4",
                    "midi": 69,
                    "time": 347.1266040000063,
                    "velocity": 0.3779527559055118,
                    "duration": 0.11601825000002464
                },
                {
                    "name": "D5",
                    "midi": 74,
                    "time": 347.1266040000063,
                    "velocity": 0.3779527559055118,
                    "duration": 0.46407300000009855
                },
                {
                    "name": "F#4",
                    "midi": 66,
                    "time": 347.2426222500063,
                    "velocity": 0.28346456692913385,
                    "duration": 0.11601825000002464
                },
                {
                    "name": "D4",
                    "midi": 62,
                    "time": 347.35864050000635,
                    "velocity": 0.28346456692913385,
                    "duration": 0.11601825000002464
                },
                {
                    "name": "F#4",
                    "midi": 66,
                    "time": 347.47465875000637,
                    "velocity": 0.28346456692913385,
                    "duration": 0.11601825000002464
                },
                {
                    "name": "C5",
                    "midi": 72,
                    "time": 347.5906770000064,
                    "velocity": 0.3700787401574803,
                    "duration": 0.46407300000009855
                },
                {
                    "name": "A4",
                    "midi": 69,
                    "time": 347.7066952500064,
                    "velocity": 0.29133858267716534,
                    "duration": 0.11601825000002464
                },
                {
                    "name": "D4",
                    "midi": 62,
                    "time": 347.82271350000644,
                    "velocity": 0.29133858267716534,
                    "duration": 0.11601825000002464
                },
                {
                    "name": "A4",
                    "midi": 69,
                    "time": 347.93873175000647,
                    "velocity": 0.29133858267716534,
                    "duration": 0.11601825000002464
                },
                {
                    "name": "C5",
                    "midi": 72,
                    "time": 348.0547500000065,
                    "velocity": 0.3779527559055118,
                    "duration": 0.46407300000009855
                },
                {
                    "name": "A4",
                    "midi": 69,
                    "time": 348.1707682500065,
                    "velocity": 0.2992125984251969,
                    "duration": 0.11601825000002464
                },
                {
                    "name": "D4",
                    "midi": 62,
                    "time": 348.28678650000654,
                    "velocity": 0.33070866141732286,
                    "duration": 0.11601825000002464
                },
                {
                    "name": "A4",
                    "midi": 69,
                    "time": 348.40280475000657,
                    "velocity": 0.3543307086614173,
                    "duration": 0.11601825000002464
                },
                {
                    "name": "B4",
                    "midi": 71,
                    "time": 348.5188230000066,
                    "velocity": 0.4094488188976378,
                    "duration": 0.46407300000009855
                },
                {
                    "name": "G4",
                    "midi": 67,
                    "time": 348.6348412500066,
                    "velocity": 0.33858267716535434,
                    "duration": 0.11601825000002464
                },
                {
                    "name": "D4",
                    "midi": 62,
                    "time": 348.75085950000664,
                    "velocity": 0.3464566929133858,
                    "duration": 0.11601825000002464
                },
                {
                    "name": "G4",
                    "midi": 67,
                    "time": 348.86687775000667,
                    "velocity": 0.3464566929133858,
                    "duration": 0.11601825000002464
                },
                {
                    "name": "A4",
                    "midi": 69,
                    "time": 348.9828960000067,
                    "velocity": 0.3858267716535433,
                    "duration": 0.46407300000009855
                },
                {
                    "name": "G4",
                    "midi": 67,
                    "time": 349.0989142500067,
                    "velocity": 0.31496062992125984,
                    "duration": 0.11601825000002464
                },
                {
                    "name": "E4",
                    "midi": 64,
                    "time": 349.21493250000674,
                    "velocity": 0.2992125984251969,
                    "duration": 0.11601825000002464
                },
                {
                    "name": "G4",
                    "midi": 67,
                    "time": 349.33095075000676,
                    "velocity": 0.28346456692913385,
                    "duration": 0.11601825000002464
                },
                {
                    "name": "B4",
                    "midi": 71,
                    "time": 349.4469690000068,
                    "velocity": 0.3543307086614173,
                    "duration": 0.46407300000009855
                },
                {
                    "name": "F#4",
                    "midi": 66,
                    "time": 349.5629872500068,
                    "velocity": 0.25984251968503935,
                    "duration": 0.11601825000002464
                },
                {
                    "name": "D4",
                    "midi": 62,
                    "time": 349.67900550000684,
                    "velocity": 0.25984251968503935,
                    "duration": 0.11601825000002464
                },
                {
                    "name": "F#4",
                    "midi": 66,
                    "time": 349.79502375000686,
                    "velocity": 0.25984251968503935,
                    "duration": 0.11601825000002464
                },
                {
                    "name": "G4",
                    "midi": 67,
                    "time": 349.9110420000069,
                    "velocity": 0.33858267716535434,
                    "duration": 0.46407300000009855
                },
                {
                    "name": "D4",
                    "midi": 62,
                    "time": 350.0270602500069,
                    "velocity": 0.2755905511811024,
                    "duration": 0.11601825000002464
                },
                {
                    "name": "B3",
                    "midi": 59,
                    "time": 350.14307850000694,
                    "velocity": 0.2755905511811024,
                    "duration": 0.11601825000002464
                },
                {
                    "name": "D4",
                    "midi": 62,
                    "time": 350.25909675000696,
                    "velocity": 0.2755905511811024,
                    "duration": 0.11601825000002464
                },
                {
                    "name": "A4",
                    "midi": 69,
                    "time": 350.375115000007,
                    "velocity": 0.3858267716535433,
                    "duration": 0.46407300000009855
                },
                {
                    "name": "E4",
                    "midi": 64,
                    "time": 350.491133250007,
                    "velocity": 0.2755905511811024,
                    "duration": 0.11601825000002464
                },
                {
                    "name": "C4",
                    "midi": 60,
                    "time": 350.60715150000703,
                    "velocity": 0.2755905511811024,
                    "duration": 0.11601825000002464
                },
                {
                    "name": "E4",
                    "midi": 64,
                    "time": 350.72316975000706,
                    "velocity": 0.2755905511811024,
                    "duration": 0.11601825000002464
                },
                {
                    "name": "B4",
                    "midi": 71,
                    "time": 350.8391880000071,
                    "velocity": 0.3858267716535433,
                    "duration": 0.46407300000009855
                },
                {
                    "name": "F4",
                    "midi": 65,
                    "time": 350.9552062500071,
                    "velocity": 0.2755905511811024,
                    "duration": 0.11601825000002464
                },
                {
                    "name": "D4",
                    "midi": 62,
                    "time": 351.07122450000713,
                    "velocity": 0.28346456692913385,
                    "duration": 0.11601825000002464
                },
                {
                    "name": "F4",
                    "midi": 65,
                    "time": 351.18724275000716,
                    "velocity": 0.28346456692913385,
                    "duration": 0.11601825000002464
                },
                {
                    "name": "B4",
                    "midi": 71,
                    "time": 351.3032610000072,
                    "velocity": 0.4094488188976378,
                    "duration": 0.46407300000009855
                },
                {
                    "name": "F4",
                    "midi": 65,
                    "time": 351.4192792500072,
                    "velocity": 0.2992125984251969,
                    "duration": 0.11601825000002464
                },
                {
                    "name": "D4",
                    "midi": 62,
                    "time": 351.53529750000723,
                    "velocity": 0.2992125984251969,
                    "duration": 0.11601825000002464
                },
                {
                    "name": "F4",
                    "midi": 65,
                    "time": 351.65131575000726,
                    "velocity": 0.30708661417322836,
                    "duration": 0.11601825000002464
                },
                {
                    "name": "B4",
                    "midi": 71,
                    "time": 351.7673340000073,
                    "velocity": 0.4409448818897638,
                    "duration": 0.46407300000009855
                },
                {
                    "name": "F4",
                    "midi": 65,
                    "time": 351.8833522500073,
                    "velocity": 0.30708661417322836,
                    "duration": 0.11601825000002464
                },
                {
                    "name": "D4",
                    "midi": 62,
                    "time": 351.99937050000733,
                    "velocity": 0.30708661417322836,
                    "duration": 0.11601825000002464
                },
                {
                    "name": "F4",
                    "midi": 65,
                    "time": 352.11538875000736,
                    "velocity": 0.2992125984251969,
                    "duration": 0.11601825000002464
                },
                {
                    "name": "C5",
                    "midi": 72,
                    "time": 352.2314070000074,
                    "velocity": 0.4094488188976378,
                    "duration": 0.46407300000009855
                },
                {
                    "name": "G4",
                    "midi": 67,
                    "time": 352.3474252500074,
                    "velocity": 0.29133858267716534,
                    "duration": 0.11601825000002464
                },
                {
                    "name": "E4",
                    "midi": 64,
                    "time": 352.46344350000743,
                    "velocity": 0.28346456692913385,
                    "duration": 0.11601825000002464
                },
                {
                    "name": "G4",
                    "midi": 67,
                    "time": 352.57946175000745,
                    "velocity": 0.2755905511811024,
                    "duration": 0.11601825000002464
                },
                {
                    "name": "B4",
                    "midi": 71,
                    "time": 352.6954800000075,
                    "velocity": 0.3858267716535433,
                    "duration": 0.46407300000009855
                },
                {
                    "name": "G4",
                    "midi": 67,
                    "time": 352.8114982500075,
                    "velocity": 0.2755905511811024,
                    "duration": 0.11601825000002464
                },
                {
                    "name": "D4",
                    "midi": 62,
                    "time": 352.9275165000075,
                    "velocity": 0.2755905511811024,
                    "duration": 0.11601825000002464
                },
                {
                    "name": "G4",
                    "midi": 67,
                    "time": 353.04353475000755,
                    "velocity": 0.2755905511811024,
                    "duration": 0.11601825000002464
                },
                {
                    "name": "A4",
                    "midi": 69,
                    "time": 353.1595530000076,
                    "velocity": 0.3858267716535433,
                    "duration": 0.46407300000009855
                },
                {
                    "name": "F#4",
                    "midi": 66,
                    "time": 353.2755712500076,
                    "velocity": 0.2755905511811024,
                    "duration": 0.11601825000002464
                },
                {
                    "name": "D4",
                    "midi": 62,
                    "time": 353.3915895000076,
                    "velocity": 0.2755905511811024,
                    "duration": 0.11601825000002464
                },
                {
                    "name": "F#4",
                    "midi": 66,
                    "time": 353.50760775000765,
                    "velocity": 0.2755905511811024,
                    "duration": 0.11601825000002464
                },
                {
                    "name": "B4",
                    "midi": 71,
                    "time": 353.6236260000077,
                    "velocity": 0.3700787401574803,
                    "duration": 0.46407300000009855
                },
                {
                    "name": "G4",
                    "midi": 67,
                    "time": 353.7396442500077,
                    "velocity": 0.2755905511811024,
                    "duration": 0.11601825000002464
                },
                {
                    "name": "F4",
                    "midi": 65,
                    "time": 353.8556625000077,
                    "velocity": 0.2755905511811024,
                    "duration": 0.11601825000002464
                },
                {
                    "name": "G4",
                    "midi": 67,
                    "time": 353.97168075000775,
                    "velocity": 0.2755905511811024,
                    "duration": 0.11601825000002464
                },
                {
                    "name": "C5",
                    "midi": 72,
                    "time": 354.0876990000078,
                    "velocity": 0.3858267716535433,
                    "duration": 0.46407300000009855
                },
                {
                    "name": "A4",
                    "midi": 69,
                    "time": 354.2037172500078,
                    "velocity": 0.2755905511811024,
                    "duration": 0.11601825000002464
                },
                {
                    "name": "F4",
                    "midi": 65,
                    "time": 354.3197355000078,
                    "velocity": 0.2755905511811024,
                    "duration": 0.11601825000002464
                },
                {
                    "name": "A4",
                    "midi": 69,
                    "time": 354.43575375000785,
                    "velocity": 0.2755905511811024,
                    "duration": 0.11601825000002464
                },
                {
                    "name": "D5",
                    "midi": 74,
                    "time": 354.5517720000079,
                    "velocity": 0.3858267716535433,
                    "duration": 0.46407300000009855
                },
                {
                    "name": "B4",
                    "midi": 71,
                    "time": 354.6677902500079,
                    "velocity": 0.2755905511811024,
                    "duration": 0.11601825000002464
                },
                {
                    "name": "F4",
                    "midi": 65,
                    "time": 354.7838085000079,
                    "velocity": 0.28346456692913385,
                    "duration": 0.11601825000002464
                },
                {
                    "name": "B4",
                    "midi": 71,
                    "time": 354.89982675000795,
                    "velocity": 0.28346456692913385,
                    "duration": 0.11601825000002464
                },
                {
                    "name": "D5",
                    "midi": 74,
                    "time": 355.01584500000797,
                    "velocity": 0.4094488188976378,
                    "duration": 0.46407300000009855
                },
                {
                    "name": "B4",
                    "midi": 71,
                    "time": 355.131863250008,
                    "velocity": 0.2992125984251969,
                    "duration": 0.11601825000002464
                },
                {
                    "name": "F4",
                    "midi": 65,
                    "time": 355.247881500008,
                    "velocity": 0.2992125984251969,
                    "duration": 0.11601825000002464
                },
                {
                    "name": "B4",
                    "midi": 71,
                    "time": 355.36389975000804,
                    "velocity": 0.30708661417322836,
                    "duration": 0.11601825000002464
                },
                {
                    "name": "D5",
                    "midi": 74,
                    "time": 355.47991800000807,
                    "velocity": 0.4409448818897638,
                    "duration": 0.46407300000009855
                },
                {
                    "name": "B4",
                    "midi": 71,
                    "time": 355.5959362500081,
                    "velocity": 0.30708661417322836,
                    "duration": 0.11601825000002464
                },
                {
                    "name": "F4",
                    "midi": 65,
                    "time": 355.7119545000081,
                    "velocity": 0.30708661417322836,
                    "duration": 0.11601825000002464
                },
                {
                    "name": "B4",
                    "midi": 71,
                    "time": 355.82797275000814,
                    "velocity": 0.2992125984251969,
                    "duration": 0.11601825000002464
                },
                {
                    "name": "E5",
                    "midi": 76,
                    "time": 355.94399100000817,
                    "velocity": 0.4094488188976378,
                    "duration": 0.46407300000009855
                },
                {
                    "name": "C5",
                    "midi": 72,
                    "time": 356.0600092500082,
                    "velocity": 0.29133858267716534,
                    "duration": 0.11601825000002464
                },
                {
                    "name": "E4",
                    "midi": 64,
                    "time": 356.1760275000082,
                    "velocity": 0.28346456692913385,
                    "duration": 0.11601825000002464
                },
                {
                    "name": "C5",
                    "midi": 72,
                    "time": 356.29204575000824,
                    "velocity": 0.2755905511811024,
                    "duration": 0.11601825000002464
                },
                {
                    "name": "D5",
                    "midi": 74,
                    "time": 356.40806400000827,
                    "velocity": 0.3858267716535433,
                    "duration": 0.46407300000009855
                },
                {
                    "name": "B4",
                    "midi": 71,
                    "time": 356.5240822500083,
                    "velocity": 0.2755905511811024,
                    "duration": 0.11601825000002464
                },
                {
                    "name": "G4",
                    "midi": 67,
                    "time": 356.6401005000083,
                    "velocity": 0.2755905511811024,
                    "duration": 0.11601825000002464
                },
                {
                    "name": "B4",
                    "midi": 71,
                    "time": 356.75611875000834,
                    "velocity": 0.2755905511811024,
                    "duration": 0.11601825000002464
                },
                {
                    "name": "D5",
                    "midi": 74,
                    "time": 356.87213700000837,
                    "velocity": 0.3858267716535433,
                    "duration": 0.46407300000009855
                },
                {
                    "name": "A4",
                    "midi": 69,
                    "time": 356.9881552500084,
                    "velocity": 0.2755905511811024,
                    "duration": 0.11601825000002464
                },
                {
                    "name": "F#4",
                    "midi": 66,
                    "time": 357.1041735000084,
                    "velocity": 0.2755905511811024,
                    "duration": 0.11601825000002464
                },
                {
                    "name": "A4",
                    "midi": 69,
                    "time": 357.22019175000844,
                    "velocity": 0.2755905511811024,
                    "duration": 0.11601825000002464
                },
                {
                    "name": "D5",
                    "midi": 74,
                    "time": 357.33621000000846,
                    "velocity": 0.33070866141732286,
                    "duration": 0.46407300000009855
                },
                {
                    "name": "B4",
                    "midi": 71,
                    "time": 357.4522282500085,
                    "velocity": 0.2440944881889764,
                    "duration": 0.11601825000002464
                },
                {
                    "name": "G4",
                    "midi": 67,
                    "time": 357.5682465000085,
                    "velocity": 0.2440944881889764,
                    "duration": 0.11601825000002464
                },
                {
                    "name": "B4",
                    "midi": 71,
                    "time": 357.68426475000854,
                    "velocity": 0.2440944881889764,
                    "duration": 0.11601825000002464
                },
                {
                    "name": "G5",
                    "midi": 79,
                    "time": 357.80028300000856,
                    "velocity": 0.30708661417322836,
                    "duration": 0.46407300000009855
                },
                {
                    "name": "D5",
                    "midi": 74,
                    "time": 357.9163012500086,
                    "velocity": 0.2440944881889764,
                    "duration": 0.11601825000002464
                },
                {
                    "name": "G4",
                    "midi": 67,
                    "time": 358.0323195000086,
                    "velocity": 0.2440944881889764,
                    "duration": 0.11601825000002464
                },
                {
                    "name": "D5",
                    "midi": 74,
                    "time": 358.14833775000864,
                    "velocity": 0.2440944881889764,
                    "duration": 0.11601825000002464
                },
                {
                    "name": "F#5",
                    "midi": 78,
                    "time": 358.26435600000866,
                    "velocity": 0.3464566929133858,
                    "duration": 0.46407300000009855
                },
                {
                    "name": "D5",
                    "midi": 74,
                    "time": 358.3803742500087,
                    "velocity": 0.2440944881889764,
                    "duration": 0.11601825000002464
                },
                {
                    "name": "A4",
                    "midi": 69,
                    "time": 358.4963925000087,
                    "velocity": 0.25196850393700787,
                    "duration": 0.11601825000002464
                },
                {
                    "name": "D5",
                    "midi": 74,
                    "time": 358.61241075000873,
                    "velocity": 0.25196850393700787,
                    "duration": 0.11601825000002464
                },
                {
                    "name": "A5",
                    "midi": 81,
                    "time": 358.72842900000876,
                    "velocity": 0.31496062992125984,
                    "duration": 0.46407300000009855
                },
                {
                    "name": "D5",
                    "midi": 74,
                    "time": 358.8444472500088,
                    "velocity": 0.2677165354330709,
                    "duration": 0.11601825000002464
                },
                {
                    "name": "A4",
                    "midi": 69,
                    "time": 358.9604655000088,
                    "velocity": 0.25984251968503935,
                    "duration": 0.11601825000002464
                },
                {
                    "name": "D5",
                    "midi": 74,
                    "time": 359.07648375000883,
                    "velocity": 0.25984251968503935,
                    "duration": 0.11601825000002464
                },
                {
                    "name": "D5",
                    "midi": 74,
                    "time": 359.19250200000886,
                    "velocity": 0.30708661417322836,
                    "duration": 0.46407300000009855
                },
                {
                    "name": "B4",
                    "midi": 71,
                    "time": 359.3085202500089,
                    "velocity": 0.25196850393700787,
                    "duration": 0.11601825000002464
                },
                {
                    "name": "G4",
                    "midi": 67,
                    "time": 359.4245385000089,
                    "velocity": 0.25196850393700787,
                    "duration": 0.11601825000002464
                },
                {
                    "name": "B4",
                    "midi": 71,
                    "time": 359.54055675000893,
                    "velocity": 0.25196850393700787,
                    "duration": 0.11601825000002464
                },
                {
                    "name": "E5",
                    "midi": 76,
                    "time": 359.65657500000896,
                    "velocity": 0.30708661417322836,
                    "duration": 0.46407300000009855
                },
                {
                    "name": "C5",
                    "midi": 72,
                    "time": 359.772593250009,
                    "velocity": 0.2440944881889764,
                    "duration": 0.11601825000002464
                },
                {
                    "name": "G4",
                    "midi": 67,
                    "time": 359.888611500009,
                    "velocity": 0.2440944881889764,
                    "duration": 0.11601825000002464
                },
                {
                    "name": "C5",
                    "midi": 72,
                    "time": 360.00462975000903,
                    "velocity": 0.2440944881889764,
                    "duration": 0.11601825000002464
                },
                {
                    "name": "D5",
                    "midi": 74,
                    "time": 360.12064800000906,
                    "velocity": 0.31496062992125984,
                    "duration": 0.46407300000009855
                },
                {
                    "name": "C5",
                    "midi": 72,
                    "time": 360.2366662500091,
                    "velocity": 0.2440944881889764,
                    "duration": 0.11601825000002464
                },
                {
                    "name": "A4",
                    "midi": 69,
                    "time": 360.3526845000091,
                    "velocity": 0.2440944881889764,
                    "duration": 0.11601825000002464
                },
                {
                    "name": "C5",
                    "midi": 72,
                    "time": 360.46870275000913,
                    "velocity": 0.2440944881889764,
                    "duration": 0.11601825000002464
                },
                {
                    "name": "D5",
                    "midi": 74,
                    "time": 360.58472100000915,
                    "velocity": 0.2992125984251969,
                    "duration": 0.46407300000009855
                },
                {
                    "name": "C5",
                    "midi": 72,
                    "time": 360.7007392500092,
                    "velocity": 0.2440944881889764,
                    "duration": 0.11601825000002464
                },
                {
                    "name": "F#4",
                    "midi": 66,
                    "time": 360.8167575000092,
                    "velocity": 0.2440944881889764,
                    "duration": 0.11601825000002464
                },
                {
                    "name": "C5",
                    "midi": 72,
                    "time": 360.9327757500092,
                    "velocity": 0.2440944881889764,
                    "duration": 0.11601825000002464
                },
                {
                    "name": "D5",
                    "midi": 74,
                    "time": 361.04879400000925,
                    "velocity": 0.33070866141732286,
                    "duration": 0.46407300000009855
                },
                {
                    "name": "B4",
                    "midi": 71,
                    "time": 361.1648122500093,
                    "velocity": 0.2440944881889764,
                    "duration": 0.11601825000002464
                },
                {
                    "name": "G4",
                    "midi": 67,
                    "time": 361.2808305000093,
                    "velocity": 0.2440944881889764,
                    "duration": 0.11601825000002464
                },
                {
                    "name": "B4",
                    "midi": 71,
                    "time": 361.3968487500093,
                    "velocity": 0.2440944881889764,
                    "duration": 0.11601825000002464
                },
                {
                    "name": "G5",
                    "midi": 79,
                    "time": 361.51286700000935,
                    "velocity": 0.30708661417322836,
                    "duration": 0.46407300000009855
                },
                {
                    "name": "D5",
                    "midi": 74,
                    "time": 361.6288852500094,
                    "velocity": 0.2440944881889764,
                    "duration": 0.11601825000002464
                },
                {
                    "name": "G4",
                    "midi": 67,
                    "time": 361.7449035000094,
                    "velocity": 0.2440944881889764,
                    "duration": 0.11601825000002464
                },
                {
                    "name": "D5",
                    "midi": 74,
                    "time": 361.8609217500094,
                    "velocity": 0.2440944881889764,
                    "duration": 0.11601825000002464
                },
                {
                    "name": "F#5",
                    "midi": 78,
                    "time": 361.97694000000945,
                    "velocity": 0.3464566929133858,
                    "duration": 0.46407300000009855
                },
                {
                    "name": "D5",
                    "midi": 74,
                    "time": 362.0929582500095,
                    "velocity": 0.2440944881889764,
                    "duration": 0.11601825000002464
                },
                {
                    "name": "A4",
                    "midi": 69,
                    "time": 362.2089765000095,
                    "velocity": 0.25196850393700787,
                    "duration": 0.11601825000002464
                },
                {
                    "name": "D5",
                    "midi": 74,
                    "time": 362.3249947500095,
                    "velocity": 0.25196850393700787,
                    "duration": 0.11601825000002464
                },
                {
                    "name": "A5",
                    "midi": 81,
                    "time": 362.44101300000955,
                    "velocity": 0.31496062992125984,
                    "duration": 0.46407300000009855
                },
                {
                    "name": "D5",
                    "midi": 74,
                    "time": 362.5570312500096,
                    "velocity": 0.2677165354330709,
                    "duration": 0.11601825000002464
                },
                {
                    "name": "A4",
                    "midi": 69,
                    "time": 362.6730495000096,
                    "velocity": 0.25984251968503935,
                    "duration": 0.11601825000002464
                },
                {
                    "name": "D5",
                    "midi": 74,
                    "time": 362.7890677500096,
                    "velocity": 0.25984251968503935,
                    "duration": 0.11601825000002464
                },
                {
                    "name": "D5",
                    "midi": 74,
                    "time": 362.90508600000965,
                    "velocity": 0.31496062992125984,
                    "duration": 0.46407300000009855
                },
                {
                    "name": "B4",
                    "midi": 71,
                    "time": 363.02110425000967,
                    "velocity": 0.25196850393700787,
                    "duration": 0.11601825000002464
                },
                {
                    "name": "G4",
                    "midi": 67,
                    "time": 363.1371225000097,
                    "velocity": 0.25196850393700787,
                    "duration": 0.11601825000002464
                },
                {
                    "name": "B4",
                    "midi": 71,
                    "time": 363.2531407500097,
                    "velocity": 0.25196850393700787,
                    "duration": 0.11601825000002464
                },
                {
                    "name": "D#5",
                    "midi": 75,
                    "time": 363.36915900000974,
                    "velocity": 0.30708661417322836,
                    "duration": 0.46407300000009855
                },
                {
                    "name": "C5",
                    "midi": 72,
                    "time": 363.48517725000977,
                    "velocity": 0.2440944881889764,
                    "duration": 0.11601825000002464
                },
                {
                    "name": "G4",
                    "midi": 67,
                    "time": 363.6011955000098,
                    "velocity": 0.2440944881889764,
                    "duration": 0.11601825000002464
                },
                {
                    "name": "C5",
                    "midi": 72,
                    "time": 363.7172137500098,
                    "velocity": 0.2440944881889764,
                    "duration": 0.11601825000002464
                },
                {
                    "name": "D5",
                    "midi": 74,
                    "time": 363.83323200000984,
                    "velocity": 0.30708661417322836,
                    "duration": 0.46407300000009855
                },
                {
                    "name": "C5",
                    "midi": 72,
                    "time": 363.94925025000987,
                    "velocity": 0.2440944881889764,
                    "duration": 0.11601825000002464
                },
                {
                    "name": "A4",
                    "midi": 69,
                    "time": 364.0652685000099,
                    "velocity": 0.2440944881889764,
                    "duration": 0.11601825000002464
                },
                {
                    "name": "C5",
                    "midi": 72,
                    "time": 364.1812867500099,
                    "velocity": 0.2440944881889764,
                    "duration": 0.11601825000002464
                },
                {
                    "name": "D5",
                    "midi": 74,
                    "time": 364.29730500000994,
                    "velocity": 0.2992125984251969,
                    "duration": 0.46407300000009855
                },
                {
                    "name": "C5",
                    "midi": 72,
                    "time": 364.41332325000997,
                    "velocity": 0.2440944881889764,
                    "duration": 0.11601825000002464
                },
                {
                    "name": "F#4",
                    "midi": 66,
                    "time": 364.52934150001,
                    "velocity": 0.2440944881889764,
                    "duration": 0.11601825000002464
                },
                {
                    "name": "C5",
                    "midi": 72,
                    "time": 364.64535975001,
                    "velocity": 0.2440944881889764,
                    "duration": 0.11601825000002464
                },
                {
                    "name": "D5",
                    "midi": 74,
                    "time": 364.76137800001004,
                    "velocity": 0.3464566929133858,
                    "duration": 0.46407300000009855
                },
                {
                    "name": "B4",
                    "midi": 71,
                    "time": 364.87739625001007,
                    "velocity": 0.2440944881889764,
                    "duration": 0.11601825000002464
                },
                {
                    "name": "G4",
                    "midi": 67,
                    "time": 364.9934145000101,
                    "velocity": 0.2440944881889764,
                    "duration": 0.11601825000002464
                },
                {
                    "name": "B4",
                    "midi": 71,
                    "time": 365.1094327500101,
                    "velocity": 0.2440944881889764,
                    "duration": 0.11601825000002464
                },
                {
                    "name": "D#5",
                    "midi": 75,
                    "time": 365.22545100001014,
                    "velocity": 0.29133858267716534,
                    "duration": 0.46407300000009855
                },
                {
                    "name": "C5",
                    "midi": 72,
                    "time": 365.34146925001016,
                    "velocity": 0.2283464566929134,
                    "duration": 0.11601825000002464
                },
                {
                    "name": "G4",
                    "midi": 67,
                    "time": 365.4574875000102,
                    "velocity": 0.2204724409448819,
                    "duration": 0.11601825000002464
                },
                {
                    "name": "C5",
                    "midi": 72,
                    "time": 365.5735057500102,
                    "velocity": 0.2204724409448819,
                    "duration": 0.11601825000002464
                },
                {
                    "name": "D5",
                    "midi": 74,
                    "time": 365.68952400001024,
                    "velocity": 0.28346456692913385,
                    "duration": 0.46407300000009855
                },
                {
                    "name": "C5",
                    "midi": 72,
                    "time": 365.80554225001026,
                    "velocity": 0.2204724409448819,
                    "duration": 0.11601825000002464
                },
                {
                    "name": "A4",
                    "midi": 69,
                    "time": 365.9215605000103,
                    "velocity": 0.2204724409448819,
                    "duration": 0.11601825000002464
                },
                {
                    "name": "C5",
                    "midi": 72,
                    "time": 366.0375787500103,
                    "velocity": 0.2204724409448819,
                    "duration": 0.11601825000002464
                },
                {
                    "name": "D5",
                    "midi": 74,
                    "time": 366.15359700001034,
                    "velocity": 0.2677165354330709,
                    "duration": 0.46407300000009855
                },
                {
                    "name": "C5",
                    "midi": 72,
                    "time": 366.26961525001036,
                    "velocity": 0.2204724409448819,
                    "duration": 0.11601825000002464
                },
                {
                    "name": "F#4",
                    "midi": 66,
                    "time": 366.3856335000104,
                    "velocity": 0.2204724409448819,
                    "duration": 0.11601825000002464
                },
                {
                    "name": "C5",
                    "midi": 72,
                    "time": 366.5016517500104,
                    "velocity": 0.2204724409448819,
                    "duration": 0.11601825000002464
                },
                {
                    "name": "D5",
                    "midi": 74,
                    "time": 366.61767000001043,
                    "velocity": 0.28346456692913385,
                    "duration": 0.46407300000009855
                },
                {
                    "name": "A#4",
                    "midi": 70,
                    "time": 366.73368825001046,
                    "velocity": 0.2204724409448819,
                    "duration": 0.11601825000002464
                },
                {
                    "name": "G4",
                    "midi": 67,
                    "time": 366.8497065000105,
                    "velocity": 0.2204724409448819,
                    "duration": 0.11601825000002464
                },
                {
                    "name": "A#4",
                    "midi": 70,
                    "time": 366.9657247500105,
                    "velocity": 0.2204724409448819,
                    "duration": 0.11601825000002464
                },
                {
                    "name": "D5",
                    "midi": 74,
                    "time": 367.08174300001053,
                    "velocity": 0.2677165354330709,
                    "duration": 0.46407300000009855
                },
                {
                    "name": "A#4",
                    "midi": 70,
                    "time": 367.19776125001056,
                    "velocity": 0.2204724409448819,
                    "duration": 0.11601825000002464
                },
                {
                    "name": "F4",
                    "midi": 65,
                    "time": 367.3137795000106,
                    "velocity": 0.2204724409448819,
                    "duration": 0.11601825000002464
                },
                {
                    "name": "A#4",
                    "midi": 70,
                    "time": 367.4297977500106,
                    "velocity": 0.2204724409448819,
                    "duration": 0.11601825000002464
                },
                {
                    "name": "D5",
                    "midi": 74,
                    "time": 367.54581600001063,
                    "velocity": 0.28346456692913385,
                    "duration": 0.46407300000009855
                },
                {
                    "name": "A4",
                    "midi": 69,
                    "time": 367.66183425001066,
                    "velocity": 0.2204724409448819,
                    "duration": 0.11601825000002464
                },
                {
                    "name": "F4",
                    "midi": 65,
                    "time": 367.7778525000107,
                    "velocity": 0.2204724409448819,
                    "duration": 0.11601825000002464
                },
                {
                    "name": "A4",
                    "midi": 69,
                    "time": 367.8938707500107,
                    "velocity": 0.2204724409448819,
                    "duration": 0.11601825000002464
                },
                {
                    "name": "C5",
                    "midi": 72,
                    "time": 368.00988900001073,
                    "velocity": 0.2677165354330709,
                    "duration": 0.46407300000009855
                },
                {
                    "name": "A4",
                    "midi": 69,
                    "time": 368.12590725001075,
                    "velocity": 0.2204724409448819,
                    "duration": 0.11601825000002464
                },
                {
                    "name": "F4",
                    "midi": 65,
                    "time": 368.2419255000108,
                    "velocity": 0.2204724409448819,
                    "duration": 0.11601825000002464
                },
                {
                    "name": "A4",
                    "midi": 69,
                    "time": 368.3579437500108,
                    "velocity": 0.2204724409448819,
                    "duration": 0.11601825000002464
                },
                {
                    "name": "C5",
                    "midi": 72,
                    "time": 368.47396200001083,
                    "velocity": 0.28346456692913385,
                    "duration": 0.46407300000009855
                },
                {
                    "name": "G#4",
                    "midi": 68,
                    "time": 368.58998025001085,
                    "velocity": 0.2204724409448819,
                    "duration": 0.11601825000002464
                },
                {
                    "name": "F4",
                    "midi": 65,
                    "time": 368.7059985000109,
                    "velocity": 0.2204724409448819,
                    "duration": 0.11601825000002464
                },
                {
                    "name": "G#4",
                    "midi": 68,
                    "time": 368.8220167500109,
                    "velocity": 0.2204724409448819,
                    "duration": 0.11601825000002464
                },
                {
                    "name": "C5",
                    "midi": 72,
                    "time": 368.9380350000109,
                    "velocity": 0.2677165354330709,
                    "duration": 0.46407300000009855
                },
                {
                    "name": "G#4",
                    "midi": 68,
                    "time": 369.05405325001095,
                    "velocity": 0.2204724409448819,
                    "duration": 0.11601825000002464
                },
                {
                    "name": "D#4",
                    "midi": 63,
                    "time": 369.170071500011,
                    "velocity": 0.2204724409448819,
                    "duration": 0.11601825000002464
                },
                {
                    "name": "G#4",
                    "midi": 68,
                    "time": 369.286089750011,
                    "velocity": 0.2204724409448819,
                    "duration": 0.11601825000002464
                },
                {
                    "name": "C5",
                    "midi": 72,
                    "time": 369.402108000011,
                    "velocity": 0.28346456692913385,
                    "duration": 0.46407300000009855
                },
                {
                    "name": "G4",
                    "midi": 67,
                    "time": 369.51812625001105,
                    "velocity": 0.2204724409448819,
                    "duration": 0.11601825000002464
                },
                {
                    "name": "D#4",
                    "midi": 63,
                    "time": 369.6341445000111,
                    "velocity": 0.2204724409448819,
                    "duration": 0.11601825000002464
                },
                {
                    "name": "G4",
                    "midi": 67,
                    "time": 369.7501627500111,
                    "velocity": 0.2204724409448819,
                    "duration": 0.11601825000002464
                },
                {
                    "name": "A#4",
                    "midi": 70,
                    "time": 369.8661810000111,
                    "velocity": 0.2677165354330709,
                    "duration": 0.46407300000009855
                },
                {
                    "name": "G4",
                    "midi": 67,
                    "time": 369.98219925001115,
                    "velocity": 0.2204724409448819,
                    "duration": 0.11601825000002464
                },
                {
                    "name": "D#4",
                    "midi": 63,
                    "time": 370.0982175000112,
                    "velocity": 0.2204724409448819,
                    "duration": 0.11601825000002464
                },
                {
                    "name": "G4",
                    "midi": 67,
                    "time": 370.2142357500112,
                    "velocity": 0.2204724409448819,
                    "duration": 0.11601825000002464
                },
                {
                    "name": "A#4",
                    "midi": 70,
                    "time": 370.3302540000112,
                    "velocity": 0.33070866141732286,
                    "duration": 0.46407300000009855
                },
                {
                    "name": "G4",
                    "midi": 67,
                    "time": 370.44627225001125,
                    "velocity": 0.25196850393700787,
                    "duration": 0.11601825000002464
                },
                {
                    "name": "D#4",
                    "midi": 63,
                    "time": 370.5622905000113,
                    "velocity": 0.25196850393700787,
                    "duration": 0.11601825000002464
                },
                {
                    "name": "G4",
                    "midi": 67,
                    "time": 370.6783087500113,
                    "velocity": 0.25196850393700787,
                    "duration": 0.11601825000002464
                },
                {
                    "name": "A#4",
                    "midi": 70,
                    "time": 370.7943270000113,
                    "velocity": 0.30708661417322836,
                    "duration": 0.46407300000009855
                },
                {
                    "name": "G4",
                    "midi": 67,
                    "time": 370.91034525001135,
                    "velocity": 0.25984251968503935,
                    "duration": 0.11601825000002464
                },
                {
                    "name": "D4",
                    "midi": 62,
                    "time": 371.02636350001137,
                    "velocity": 0.25984251968503935,
                    "duration": 0.11601825000002464
                },
                {
                    "name": "G4",
                    "midi": 67,
                    "time": 371.1423817500114,
                    "velocity": 0.25984251968503935,
                    "duration": 0.11601825000002464
                },
                {
                    "name": "A#4",
                    "midi": 70,
                    "time": 371.2584000000114,
                    "velocity": 0.3464566929133858,
                    "duration": 0.46407300000009855
                },
                {
                    "name": "F4",
                    "midi": 65,
                    "time": 371.37441825001144,
                    "velocity": 0.2677165354330709,
                    "duration": 0.11601825000002464
                },
                {
                    "name": "D4",
                    "midi": 62,
                    "time": 371.49043650001147,
                    "velocity": 0.2677165354330709,
                    "duration": 0.11601825000002464
                },
                {
                    "name": "F4",
                    "midi": 65,
                    "time": 371.6064547500115,
                    "velocity": 0.2677165354330709,
                    "duration": 0.11601825000002464
                },
                {
                    "name": "A4",
                    "midi": 69,
                    "time": 371.7224730000115,
                    "velocity": 0.33858267716535434,
                    "duration": 0.46407300000009855
                },
                {
                    "name": "F4",
                    "midi": 65,
                    "time": 371.83849125001154,
                    "velocity": 0.2755905511811024,
                    "duration": 0.11601825000002464
                },
                {
                    "name": "D4",
                    "midi": 62,
                    "time": 371.95450950001157,
                    "velocity": 0.2755905511811024,
                    "duration": 0.11601825000002464
                },
                {
                    "name": "F4",
                    "midi": 65,
                    "time": 372.0705277500116,
                    "velocity": 0.2755905511811024,
                    "duration": 0.11601825000002464
                },
                {
                    "name": "A4",
                    "midi": 69,
                    "time": 372.1865460000116,
                    "velocity": 0.36220472440944884,
                    "duration": 0.46407300000009855
                },
                {
                    "name": "F4",
                    "midi": 65,
                    "time": 372.30256425001164,
                    "velocity": 0.2677165354330709,
                    "duration": 0.11601825000002464
                },
                {
                    "name": "C4",
                    "midi": 60,
                    "time": 372.41858250001167,
                    "velocity": 0.28346456692913385,
                    "duration": 0.11601825000002464
                },
                {
                    "name": "F4",
                    "midi": 65,
                    "time": 372.5346007500117,
                    "velocity": 0.2992125984251969,
                    "duration": 0.11601825000002464
                },
                {
                    "name": "F5",
                    "midi": 77,
                    "time": 372.6506190000117,
                    "velocity": 0.3937007874015748,
                    "duration": 0.46407300000009855
                },
                {
                    "name": "C5",
                    "midi": 72,
                    "time": 372.76663725001174,
                    "velocity": 0.2992125984251969,
                    "duration": 0.11601825000002464
                },
                {
                    "name": "A4",
                    "midi": 69,
                    "time": 372.88265550001177,
                    "velocity": 0.2992125984251969,
                    "duration": 0.11601825000002464
                },
                {
                    "name": "C5",
                    "midi": 72,
                    "time": 372.9986737500118,
                    "velocity": 0.2992125984251969,
                    "duration": 0.11601825000002464
                },
                {
                    "name": "F5",
                    "midi": 77,
                    "time": 373.1146920000118,
                    "velocity": 0.4015748031496063,
                    "duration": 0.46407300000009855
                },
                {
                    "name": "D5",
                    "midi": 74,
                    "time": 373.23071025001184,
                    "velocity": 0.2992125984251969,
                    "duration": 0.11601825000002464
                },
                {
                    "name": "A#4",
                    "midi": 70,
                    "time": 373.34672850001186,
                    "velocity": 0.29133858267716534,
                    "duration": 0.11601825000002464
                },
                {
                    "name": "D5",
                    "midi": 74,
                    "time": 373.4627467500119,
                    "velocity": 0.2677165354330709,
                    "duration": 0.11601825000002464
                },
                {
                    "name": "F5",
                    "midi": 77,
                    "time": 373.5787650000119,
                    "velocity": 0.33858267716535434,
                    "duration": 0.46407300000009855
                },
                {
                    "name": "D#5",
                    "midi": 75,
                    "time": 373.69478325001194,
                    "velocity": 0.2755905511811024,
                    "duration": 0.11601825000002464
                },
                {
                    "name": "A4",
                    "midi": 69,
                    "time": 373.81080150001196,
                    "velocity": 0.2755905511811024,
                    "duration": 0.11601825000002464
                },
                {
                    "name": "D#5",
                    "midi": 75,
                    "time": 373.926819750012,
                    "velocity": 0.2755905511811024,
                    "duration": 0.11601825000002464
                },
                {
                    "name": "F5",
                    "midi": 77,
                    "time": 374.042838000012,
                    "velocity": 0.4094488188976378,
                    "duration": 0.46407300000009855
                },
                {
                    "name": "D5",
                    "midi": 74,
                    "time": 374.15885625001204,
                    "velocity": 0.2992125984251969,
                    "duration": 0.11601825000002464
                },
                {
                    "name": "A#4",
                    "midi": 70,
                    "time": 374.27487450001206,
                    "velocity": 0.2992125984251969,
                    "duration": 0.11601825000002464
                },
                {
                    "name": "D5",
                    "midi": 74,
                    "time": 374.3908927500121,
                    "velocity": 0.2992125984251969,
                    "duration": 0.11601825000002464
                },
                {
                    "name": "A#5",
                    "midi": 82,
                    "time": 374.5069110000121,
                    "velocity": 0.41732283464566927,
                    "duration": 0.46407300000009855
                },
                {
                    "name": "D5",
                    "midi": 74,
                    "time": 374.62292925001213,
                    "velocity": 0.33858267716535434,
                    "duration": 0.11601825000002464
                },
                {
                    "name": "A#4",
                    "midi": 70,
                    "time": 374.73894750001216,
                    "velocity": 0.3464566929133858,
                    "duration": 0.11601825000002464
                },
                {
                    "name": "D5",
                    "midi": 74,
                    "time": 374.8549657500122,
                    "velocity": 0.3464566929133858,
                    "duration": 0.11601825000002464
                },
                {
                    "name": "F5",
                    "midi": 77,
                    "time": 374.9709840000122,
                    "velocity": 0.4094488188976378,
                    "duration": 0.11601825000002464
                },
                {
                    "name": "A5",
                    "midi": 81,
                    "time": 374.9709840000122,
                    "velocity": 0.4094488188976378,
                    "duration": 0.46407300000009855
                },
                {
                    "name": "D5",
                    "midi": 74,
                    "time": 375.08700225001223,
                    "velocity": 0.2992125984251969,
                    "duration": 0.11601825000002464
                },
                {
                    "name": "A4",
                    "midi": 69,
                    "time": 375.20302050001226,
                    "velocity": 0.2992125984251969,
                    "duration": 0.11601825000002464
                },
                {
                    "name": "D5",
                    "midi": 74,
                    "time": 375.3190387500123,
                    "velocity": 0.2992125984251969,
                    "duration": 0.11601825000002464
                },
                {
                    "name": "D#5",
                    "midi": 75,
                    "time": 375.4350570000123,
                    "velocity": 0.4015748031496063,
                    "duration": 0.11601825000002464
                },
                {
                    "name": "G5",
                    "midi": 79,
                    "time": 375.4350570000123,
                    "velocity": 0.4015748031496063,
                    "duration": 0.46407300000009855
                },
                {
                    "name": "A#4",
                    "midi": 70,
                    "time": 375.55107525001233,
                    "velocity": 0.2677165354330709,
                    "duration": 0.11601825000002464
                },
                {
                    "name": "G4",
                    "midi": 67,
                    "time": 375.66709350001236,
                    "velocity": 0.2677165354330709,
                    "duration": 0.11601825000002464
                },
                {
                    "name": "A#4",
                    "midi": 70,
                    "time": 375.7831117500124,
                    "velocity": 0.2677165354330709,
                    "duration": 0.11601825000002464
                },
                {
                    "name": "D5",
                    "midi": 74,
                    "time": 375.8991300000124,
                    "velocity": 0.3937007874015748,
                    "duration": 0.11601825000002464
                },
                {
                    "name": "G5",
                    "midi": 79,
                    "time": 375.8991300000124,
                    "velocity": 0.3937007874015748,
                    "duration": 0.46407300000009855
                },
                {
                    "name": "A#4",
                    "midi": 70,
                    "time": 376.01514825001243,
                    "velocity": 0.28346456692913385,
                    "duration": 0.11601825000002464
                },
                {
                    "name": "G4",
                    "midi": 67,
                    "time": 376.13116650001245,
                    "velocity": 0.28346456692913385,
                    "duration": 0.11601825000002464
                },
                {
                    "name": "A#4",
                    "midi": 70,
                    "time": 376.2471847500125,
                    "velocity": 0.28346456692913385,
                    "duration": 0.11601825000002464
                },
                {
                    "name": "D5",
                    "midi": 74,
                    "time": 376.3632030000125,
                    "velocity": 0.3858267716535433,
                    "duration": 0.11601825000002464
                },
                {
                    "name": "F5",
                    "midi": 77,
                    "time": 376.3632030000125,
                    "velocity": 0.3858267716535433,
                    "duration": 0.46407300000009855
                },
                {
                    "name": "A#4",
                    "midi": 70,
                    "time": 376.47922125001253,
                    "velocity": 0.2755905511811024,
                    "duration": 0.11601825000002464
                },
                {
                    "name": "F4",
                    "midi": 65,
                    "time": 376.59523950001255,
                    "velocity": 0.2755905511811024,
                    "duration": 0.11601825000002464
                },
                {
                    "name": "A#4",
                    "midi": 70,
                    "time": 376.7112577500126,
                    "velocity": 0.2755905511811024,
                    "duration": 0.11601825000002464
                },
                {
                    "name": "D5",
                    "midi": 74,
                    "time": 376.8272760000126,
                    "velocity": 0.3937007874015748,
                    "duration": 0.11601825000002464
                },
                {
                    "name": "F5",
                    "midi": 77,
                    "time": 376.8272760000126,
                    "velocity": 0.3937007874015748,
                    "duration": 0.46407300000009855
                },
                {
                    "name": "A4",
                    "midi": 69,
                    "time": 376.9432942500126,
                    "velocity": 0.28346456692913385,
                    "duration": 0.11601825000002464
                },
                {
                    "name": "F4",
                    "midi": 65,
                    "time": 377.05931250001265,
                    "velocity": 0.28346456692913385,
                    "duration": 0.11601825000002464
                },
                {
                    "name": "A4",
                    "midi": 69,
                    "time": 377.1753307500127,
                    "velocity": 0.28346456692913385,
                    "duration": 0.11601825000002464
                },
                {
                    "name": "C5",
                    "midi": 72,
                    "time": 377.2913490000127,
                    "velocity": 0.3858267716535433,
                    "duration": 0.11601825000002464
                },
                {
                    "name": "D#5",
                    "midi": 75,
                    "time": 377.2913490000127,
                    "velocity": 0.3858267716535433,
                    "duration": 0.46407300000009855
                },
                {
                    "name": "A4",
                    "midi": 69,
                    "time": 377.4073672500127,
                    "velocity": 0.2755905511811024,
                    "duration": 0.11601825000002464
                },
                {
                    "name": "D#4",
                    "midi": 63,
                    "time": 377.52338550001275,
                    "velocity": 0.2755905511811024,
                    "duration": 0.11601825000002464
                },
                {
                    "name": "A4",
                    "midi": 69,
                    "time": 377.6394037500128,
                    "velocity": 0.2755905511811024,
                    "duration": 0.11601825000002464
                },
                {
                    "name": "A#4",
                    "midi": 70,
                    "time": 377.7554220000128,
                    "velocity": 0.3937007874015748,
                    "duration": 0.11601825000002464
                },
                {
                    "name": "D#5",
                    "midi": 75,
                    "time": 377.7554220000128,
                    "velocity": 0.3937007874015748,
                    "duration": 0.46407300000009855
                },
                {
                    "name": "G4",
                    "midi": 67,
                    "time": 377.8714402500128,
                    "velocity": 0.28346456692913385,
                    "duration": 0.11601825000002464
                },
                {
                    "name": "D#4",
                    "midi": 63,
                    "time": 377.98745850001285,
                    "velocity": 0.28346456692913385,
                    "duration": 0.11601825000002464
                },
                {
                    "name": "G4",
                    "midi": 67,
                    "time": 378.1034767500129,
                    "velocity": 0.28346456692913385,
                    "duration": 0.11601825000002464
                },
                {
                    "name": "A#4",
                    "midi": 70,
                    "time": 378.2194950000129,
                    "velocity": 0.3858267716535433,
                    "duration": 0.11601825000002464
                },
                {
                    "name": "D5",
                    "midi": 74,
                    "time": 378.2194950000129,
                    "velocity": 0.3858267716535433,
                    "duration": 0.46407300000009855
                },
                {
                    "name": "G4",
                    "midi": 67,
                    "time": 378.3355132500129,
                    "velocity": 0.28346456692913385,
                    "duration": 0.11601825000002464
                },
                {
                    "name": "D4",
                    "midi": 62,
                    "time": 378.45153150001295,
                    "velocity": 0.28346456692913385,
                    "duration": 0.11601825000002464
                },
                {
                    "name": "G4",
                    "midi": 67,
                    "time": 378.567549750013,
                    "velocity": 0.28346456692913385,
                    "duration": 0.11601825000002464
                },
                {
                    "name": "A4",
                    "midi": 69,
                    "time": 378.683568000013,
                    "velocity": 0.3779527559055118,
                    "duration": 0.11601825000002464
                },
                {
                    "name": "D5",
                    "midi": 74,
                    "time": 378.683568000013,
                    "velocity": 0.3779527559055118,
                    "duration": 0.46407300000009855
                },
                {
                    "name": "F#4",
                    "midi": 66,
                    "time": 378.799586250013,
                    "velocity": 0.28346456692913385,
                    "duration": 0.11601825000002464
                },
                {
                    "name": "D4",
                    "midi": 62,
                    "time": 378.91560450001305,
                    "velocity": 0.28346456692913385,
                    "duration": 0.11601825000002464
                },
                {
                    "name": "F#4",
                    "midi": 66,
                    "time": 379.03162275001307,
                    "velocity": 0.28346456692913385,
                    "duration": 0.11601825000002464
                },
                {
                    "name": "C5",
                    "midi": 72,
                    "time": 379.1476410000131,
                    "velocity": 0.3700787401574803,
                    "duration": 0.46407300000009855
                },
                {
                    "name": "A4",
                    "midi": 69,
                    "time": 379.2636592500131,
                    "velocity": 0.29133858267716534,
                    "duration": 0.11601825000002464
                },
                {
                    "name": "D4",
                    "midi": 62,
                    "time": 379.37967750001314,
                    "velocity": 0.29133858267716534,
                    "duration": 0.11601825000002464
                },
                {
                    "name": "A4",
                    "midi": 69,
                    "time": 379.49569575001317,
                    "velocity": 0.29133858267716534,
                    "duration": 0.11601825000002464
                },
                {
                    "name": "C5",
                    "midi": 72,
                    "time": 379.6117140000132,
                    "velocity": 0.3779527559055118,
                    "duration": 0.46407300000009855
                },
                {
                    "name": "G4",
                    "midi": 67,
                    "time": 379.7277322500132,
                    "velocity": 0.2992125984251969,
                    "duration": 0.11601825000002464
                },
                {
                    "name": "D4",
                    "midi": 62,
                    "time": 379.84375050001324,
                    "velocity": 0.33070866141732286,
                    "duration": 0.11601825000002464
                },
                {
                    "name": "G4",
                    "midi": 67,
                    "time": 379.95976875001327,
                    "velocity": 0.3543307086614173,
                    "duration": 0.11601825000002464
                },
                {
                    "name": "A#4",
                    "midi": 70,
                    "time": 380.0757870000133,
                    "velocity": 0.4094488188976378,
                    "duration": 0.46407300000009855
                },
                {
                    "name": "G4",
                    "midi": 67,
                    "time": 380.1918052500133,
                    "velocity": 0.33858267716535434,
                    "duration": 0.11601825000002464
                },
                {
                    "name": "D4",
                    "midi": 62,
                    "time": 380.30782350001334,
                    "velocity": 0.3464566929133858,
                    "duration": 0.11601825000002464
                },
                {
                    "name": "G4",
                    "midi": 67,
                    "time": 380.42384175001337,
                    "velocity": 0.3464566929133858,
                    "duration": 0.11601825000002464
                },
                {
                    "name": "C5",
                    "midi": 72,
                    "time": 380.5398600000134,
                    "velocity": 0.3858267716535433,
                    "duration": 0.46407300000009855
                },
                {
                    "name": "A#4",
                    "midi": 70,
                    "time": 380.6558782500134,
                    "velocity": 0.2755905511811024,
                    "duration": 0.11601825000002464
                },
                {
                    "name": "G4",
                    "midi": 67,
                    "time": 380.77189650001344,
                    "velocity": 0.2755905511811024,
                    "duration": 0.11601825000002464
                },
                {
                    "name": "A#4",
                    "midi": 70,
                    "time": 380.88791475001346,
                    "velocity": 0.2755905511811024,
                    "duration": 0.11601825000002464
                },
                {
                    "name": "D5",
                    "midi": 74,
                    "time": 381.0039330000135,
                    "velocity": 0.3543307086614173,
                    "duration": 0.46407300000009855
                },
                {
                    "name": "A4",
                    "midi": 69,
                    "time": 381.1199512500135,
                    "velocity": 0.25984251968503935,
                    "duration": 0.11601825000002464
                },
                {
                    "name": "F4",
                    "midi": 65,
                    "time": 381.23596950001354,
                    "velocity": 0.25984251968503935,
                    "duration": 0.11601825000002464
                },
                {
                    "name": "A4",
                    "midi": 69,
                    "time": 381.35198775001356,
                    "velocity": 0.25984251968503935,
                    "duration": 0.11601825000002464
                },
                {
                    "name": "A#4",
                    "midi": 70,
                    "time": 381.4680060000136,
                    "velocity": 0.3700787401574803,
                    "duration": 0.46407300000009855
                },
                {
                    "name": "F4",
                    "midi": 65,
                    "time": 381.5840242500136,
                    "velocity": 0.2755905511811024,
                    "duration": 0.11601825000002464
                },
                {
                    "name": "D4",
                    "midi": 62,
                    "time": 381.70004250001364,
                    "velocity": 0.2755905511811024,
                    "duration": 0.11601825000002464
                },
                {
                    "name": "F4",
                    "midi": 65,
                    "time": 381.81606075001366,
                    "velocity": 0.2755905511811024,
                    "duration": 0.11601825000002464
                },
                {
                    "name": "C5",
                    "midi": 72,
                    "time": 381.9320790000137,
                    "velocity": 0.3858267716535433,
                    "duration": 0.46407300000009855
                },
                {
                    "name": "G4",
                    "midi": 67,
                    "time": 382.0480972500137,
                    "velocity": 0.2755905511811024,
                    "duration": 0.11601825000002464
                },
                {
                    "name": "D#4",
                    "midi": 63,
                    "time": 382.16411550001374,
                    "velocity": 0.2755905511811024,
                    "duration": 0.11601825000002464
                },
                {
                    "name": "G4",
                    "midi": 67,
                    "time": 382.28013375001376,
                    "velocity": 0.2755905511811024,
                    "duration": 0.11601825000002464
                },
                {
                    "name": "D5",
                    "midi": 74,
                    "time": 382.3961520000138,
                    "velocity": 0.3858267716535433,
                    "duration": 0.46407300000009855
                },
                {
                    "name": "G#4",
                    "midi": 68,
                    "time": 382.5121702500138,
                    "velocity": 0.2755905511811024,
                    "duration": 0.11601825000002464
                },
                {
                    "name": "F4",
                    "midi": 65,
                    "time": 382.62818850001383,
                    "velocity": 0.28346456692913385,
                    "duration": 0.11601825000002464
                },
                {
                    "name": "G#4",
                    "midi": 68,
                    "time": 382.74420675001386,
                    "velocity": 0.28346456692913385,
                    "duration": 0.11601825000002464
                },
                {
                    "name": "D5",
                    "midi": 74,
                    "time": 382.8602250000139,
                    "velocity": 0.4094488188976378,
                    "duration": 0.46407300000009855
                },
                {
                    "name": "G#4",
                    "midi": 68,
                    "time": 382.9762432500139,
                    "velocity": 0.2992125984251969,
                    "duration": 0.11601825000002464
                },
                {
                    "name": "F4",
                    "midi": 65,
                    "time": 383.09226150001393,
                    "velocity": 0.2992125984251969,
                    "duration": 0.11601825000002464
                },
                {
                    "name": "G#4",
                    "midi": 68,
                    "time": 383.20827975001396,
                    "velocity": 0.30708661417322836,
                    "duration": 0.11601825000002464
                },
                {
                    "name": "D5",
                    "midi": 74,
                    "time": 383.324298000014,
                    "velocity": 0.41732283464566927,
                    "duration": 0.46407300000009855
                },
                {
                    "name": "G#4",
                    "midi": 68,
                    "time": 383.440316250014,
                    "velocity": 0.29133858267716534,
                    "duration": 0.11601825000002464
                },
                {
                    "name": "F4",
                    "midi": 65,
                    "time": 383.55633450001403,
                    "velocity": 0.28346456692913385,
                    "duration": 0.11601825000002464
                },
                {
                    "name": "G#4",
                    "midi": 68,
                    "time": 383.67235275001406,
                    "velocity": 0.28346456692913385,
                    "duration": 0.11601825000002464
                },
                {
                    "name": "D#5",
                    "midi": 75,
                    "time": 383.7883710000141,
                    "velocity": 0.3858267716535433,
                    "duration": 0.46407300000009855
                },
                {
                    "name": "A#4",
                    "midi": 70,
                    "time": 383.9043892500141,
                    "velocity": 0.29133858267716534,
                    "duration": 0.11601825000002464
                },
                {
                    "name": "G4",
                    "midi": 67,
                    "time": 384.02040750001413,
                    "velocity": 0.28346456692913385,
                    "duration": 0.11601825000002464
                },
                {
                    "name": "A#4",
                    "midi": 70,
                    "time": 384.13642575001415,
                    "velocity": 0.2755905511811024,
                    "duration": 0.11601825000002464
                },
                {
                    "name": "D5",
                    "midi": 74,
                    "time": 384.2524440000142,
                    "velocity": 0.3858267716535433,
                    "duration": 0.46407300000009855
                },
                {
                    "name": "A#4",
                    "midi": 70,
                    "time": 384.3684622500142,
                    "velocity": 0.2755905511811024,
                    "duration": 0.11601825000002464
                },
                {
                    "name": "F4",
                    "midi": 65,
                    "time": 384.48448050001423,
                    "velocity": 0.2755905511811024,
                    "duration": 0.11601825000002464
                },
                {
                    "name": "A#4",
                    "midi": 70,
                    "time": 384.60049875001425,
                    "velocity": 0.2755905511811024,
                    "duration": 0.11601825000002464
                },
                {
                    "name": "C5",
                    "midi": 72,
                    "time": 384.7165170000143,
                    "velocity": 0.3858267716535433,
                    "duration": 0.46407300000009855
                },
                {
                    "name": "A4",
                    "midi": 69,
                    "time": 384.8325352500143,
                    "velocity": 0.2755905511811024,
                    "duration": 0.11601825000002464
                },
                {
                    "name": "F4",
                    "midi": 65,
                    "time": 384.9485535000143,
                    "velocity": 0.2755905511811024,
                    "duration": 0.11601825000002464
                },
                {
                    "name": "A4",
                    "midi": 69,
                    "time": 385.06457175001435,
                    "velocity": 0.2755905511811024,
                    "duration": 0.11601825000002464
                },
                {
                    "name": "D5",
                    "midi": 74,
                    "time": 385.1805900000144,
                    "velocity": 0.3700787401574803,
                    "duration": 0.46407300000009855
                },
                {
                    "name": "A#4",
                    "midi": 70,
                    "time": 385.2966082500144,
                    "velocity": 0.2755905511811024,
                    "duration": 0.11601825000002464
                },
                {
                    "name": "G#4",
                    "midi": 68,
                    "time": 385.4126265000144,
                    "velocity": 0.2755905511811024,
                    "duration": 0.11601825000002464
                },
                {
                    "name": "A#4",
                    "midi": 70,
                    "time": 385.52864475001445,
                    "velocity": 0.2755905511811024,
                    "duration": 0.11601825000002464
                },
                {
                    "name": "D#5",
                    "midi": 75,
                    "time": 385.6446630000145,
                    "velocity": 0.3858267716535433,
                    "duration": 0.46407300000009855
                },
                {
                    "name": "C5",
                    "midi": 72,
                    "time": 385.7606812500145,
                    "velocity": 0.2755905511811024,
                    "duration": 0.11601825000002464
                },
                {
                    "name": "G#4",
                    "midi": 68,
                    "time": 385.8766995000145,
                    "velocity": 0.2755905511811024,
                    "duration": 0.11601825000002464
                },
                {
                    "name": "C5",
                    "midi": 72,
                    "time": 385.99271775001455,
                    "velocity": 0.2755905511811024,
                    "duration": 0.11601825000002464
                },
                {
                    "name": "F5",
                    "midi": 77,
                    "time": 386.1087360000146,
                    "velocity": 0.3858267716535433,
                    "duration": 0.46407300000009855
                },
                {
                    "name": "D5",
                    "midi": 74,
                    "time": 386.2247542500146,
                    "velocity": 0.2755905511811024,
                    "duration": 0.11601825000002464
                },
                {
                    "name": "G#4",
                    "midi": 68,
                    "time": 386.3407725000146,
                    "velocity": 0.28346456692913385,
                    "duration": 0.11601825000002464
                },
                {
                    "name": "D5",
                    "midi": 74,
                    "time": 386.45679075001465,
                    "velocity": 0.28346456692913385,
                    "duration": 0.11601825000002464
                },
                {
                    "name": "F5",
                    "midi": 77,
                    "time": 386.5728090000147,
                    "velocity": 0.4094488188976378,
                    "duration": 0.46407300000009855
                },
                {
                    "name": "D5",
                    "midi": 74,
                    "time": 386.6888272500147,
                    "velocity": 0.2992125984251969,
                    "duration": 0.11601825000002464
                },
                {
                    "name": "G#4",
                    "midi": 68,
                    "time": 386.8048455000147,
                    "velocity": 0.2992125984251969,
                    "duration": 0.11601825000002464
                },
                {
                    "name": "D5",
                    "midi": 74,
                    "time": 386.92086375001475,
                    "velocity": 0.30708661417322836,
                    "duration": 0.11601825000002464
                },
                {
                    "name": "F5",
                    "midi": 77,
                    "time": 387.03688200001477,
                    "velocity": 0.4409448818897638,
                    "duration": 0.46407300000009855
                },
                {
                    "name": "D5",
                    "midi": 74,
                    "time": 387.1529002500148,
                    "velocity": 0.30708661417322836,
                    "duration": 0.11601825000002464
                },
                {
                    "name": "G#4",
                    "midi": 68,
                    "time": 387.2689185000148,
                    "velocity": 0.30708661417322836,
                    "duration": 0.11601825000002464
                },
                {
                    "name": "D5",
                    "midi": 74,
                    "time": 387.38493675001484,
                    "velocity": 0.2992125984251969,
                    "duration": 0.11601825000002464
                },
                {
                    "name": "G5",
                    "midi": 79,
                    "time": 387.50095500001487,
                    "velocity": 0.4094488188976378,
                    "duration": 0.46407300000009855
                },
                {
                    "name": "D#5",
                    "midi": 75,
                    "time": 387.6169732500149,
                    "velocity": 0.29133858267716534,
                    "duration": 0.11601825000002464
                },
                {
                    "name": "G4",
                    "midi": 67,
                    "time": 387.7329915000149,
                    "velocity": 0.28346456692913385,
                    "duration": 0.11601825000002464
                },
                {
                    "name": "D#5",
                    "midi": 75,
                    "time": 387.84900975001494,
                    "velocity": 0.2755905511811024,
                    "duration": 0.11601825000002464
                },
                {
                    "name": "F5",
                    "midi": 77,
                    "time": 387.96502800001497,
                    "velocity": 0.3858267716535433,
                    "duration": 0.46407300000009855
                },
                {
                    "name": "D5",
                    "midi": 74,
                    "time": 388.081046250015,
                    "velocity": 0.2677165354330709,
                    "duration": 0.11601825000002464
                },
                {
                    "name": "A#4",
                    "midi": 70,
                    "time": 388.197064500015,
                    "velocity": 0.2677165354330709,
                    "duration": 0.11601825000002464
                },
                {
                    "name": "D5",
                    "midi": 74,
                    "time": 388.31308275001504,
                    "velocity": 0.2677165354330709,
                    "duration": 0.11601825000002464
                },
                {
                    "name": "F5",
                    "midi": 77,
                    "time": 388.42910100001507,
                    "velocity": 0.3700787401574803,
                    "duration": 0.46407300000009855
                },
                {
                    "name": "C5",
                    "midi": 72,
                    "time": 388.5451192500151,
                    "velocity": 0.2677165354330709,
                    "duration": 0.11601825000002464
                },
                {
                    "name": "A4",
                    "midi": 69,
                    "time": 388.6611375000151,
                    "velocity": 0.25984251968503935,
                    "duration": 0.11601825000002464
                },
                {
                    "name": "C5",
                    "midi": 72,
                    "time": 388.77715575001514,
                    "velocity": 0.25196850393700787,
                    "duration": 0.11601825000002464
                },
                {
                    "name": "F5",
                    "midi": 77,
                    "time": 388.89317400001516,
                    "velocity": 0.33070866141732286,
                    "duration": 0.46407300000009855
                },
                {
                    "name": "D5",
                    "midi": 74,
                    "time": 389.0091922500152,
                    "velocity": 0.2440944881889764,
                    "duration": 0.11601825000002464
                },
                {
                    "name": "A#4",
                    "midi": 70,
                    "time": 389.1252105000152,
                    "velocity": 0.2440944881889764,
                    "duration": 0.11601825000002464
                },
                {
                    "name": "D5",
                    "midi": 74,
                    "time": 389.24122875001524,
                    "velocity": 0.2440944881889764,
                    "duration": 0.11601825000002464
                },
                {
                    "name": "A#5",
                    "midi": 82,
                    "time": 389.35724700001526,
                    "velocity": 0.30708661417322836,
                    "duration": 0.46407300000009855
                },
                {
                    "name": "F5",
                    "midi": 77,
                    "time": 389.4732652500153,
                    "velocity": 0.2440944881889764,
                    "duration": 0.11601825000002464
                },
                {
                    "name": "A#4",
                    "midi": 70,
                    "time": 389.5892835000153,
                    "velocity": 0.2440944881889764,
                    "duration": 0.11601825000002464
                },
                {
                    "name": "F5",
                    "midi": 77,
                    "time": 389.70530175001534,
                    "velocity": 0.2440944881889764,
                    "duration": 0.11601825000002464
                },
                {
                    "name": "A5",
                    "midi": 81,
                    "time": 389.82132000001536,
                    "velocity": 0.3464566929133858,
                    "duration": 0.46407300000009855
                },
                {
                    "name": "F5",
                    "midi": 77,
                    "time": 389.9373382500154,
                    "velocity": 0.2440944881889764,
                    "duration": 0.11601825000002464
                },
                {
                    "name": "C5",
                    "midi": 72,
                    "time": 390.0533565000154,
                    "velocity": 0.25196850393700787,
                    "duration": 0.11601825000002464
                },
                {
                    "name": "F5",
                    "midi": 77,
                    "time": 390.16937475001544,
                    "velocity": 0.25196850393700787,
                    "duration": 0.11601825000002464
                },
                {
                    "name": "C6",
                    "midi": 84,
                    "time": 390.28539300001546,
                    "velocity": 0.31496062992125984,
                    "duration": 0.46407300000009855
                },
                {
                    "name": "F5",
                    "midi": 77,
                    "time": 390.4014112500155,
                    "velocity": 0.2677165354330709,
                    "duration": 0.11601825000002464
                },
                {
                    "name": "C5",
                    "midi": 72,
                    "time": 390.5174295000155,
                    "velocity": 0.25984251968503935,
                    "duration": 0.11601825000002464
                },
                {
                    "name": "F5",
                    "midi": 77,
                    "time": 390.63344775001553,
                    "velocity": 0.25984251968503935,
                    "duration": 0.11601825000002464
                },
                {
                    "name": "F5",
                    "midi": 77,
                    "time": 390.74946600001556,
                    "velocity": 0.3464566929133858,
                    "duration": 0.46407300000009855
                },
                {
                    "name": "D5",
                    "midi": 74,
                    "time": 390.8654842500156,
                    "velocity": 0.25196850393700787,
                    "duration": 0.11601825000002464
                },
                {
                    "name": "A#4",
                    "midi": 70,
                    "time": 390.9815025000156,
                    "velocity": 0.25196850393700787,
                    "duration": 0.11601825000002464
                },
                {
                    "name": "D5",
                    "midi": 74,
                    "time": 391.09752075001563,
                    "velocity": 0.25196850393700787,
                    "duration": 0.11601825000002464
                },
                {
                    "name": "G5",
                    "midi": 79,
                    "time": 391.21353900001566,
                    "velocity": 0.30708661417322836,
                    "duration": 0.46407300000009855
                },
                {
                    "name": "D#5",
                    "midi": 75,
                    "time": 391.3295572500157,
                    "velocity": 0.2440944881889764,
                    "duration": 0.11601825000002464
                },
                {
                    "name": "A#4",
                    "midi": 70,
                    "time": 391.4455755000157,
                    "velocity": 0.2440944881889764,
                    "duration": 0.11601825000002464
                },
                {
                    "name": "D#5",
                    "midi": 75,
                    "time": 391.56159375001573,
                    "velocity": 0.2440944881889764,
                    "duration": 0.11601825000002464
                },
                {
                    "name": "F5",
                    "midi": 77,
                    "time": 391.67761200001576,
                    "velocity": 0.31496062992125984,
                    "duration": 0.46407300000009855
                },
                {
                    "name": "D#5",
                    "midi": 75,
                    "time": 391.7936302500158,
                    "velocity": 0.2440944881889764,
                    "duration": 0.11601825000002464
                },
                {
                    "name": "C5",
                    "midi": 72,
                    "time": 391.9096485000158,
                    "velocity": 0.2440944881889764,
                    "duration": 0.11601825000002464
                },
                {
                    "name": "D#5",
                    "midi": 75,
                    "time": 392.02566675001583,
                    "velocity": 0.2440944881889764,
                    "duration": 0.11601825000002464
                },
                {
                    "name": "F5",
                    "midi": 77,
                    "time": 392.14168500001585,
                    "velocity": 0.2992125984251969,
                    "duration": 0.46407300000009855
                },
                {
                    "name": "D#5",
                    "midi": 75,
                    "time": 392.2577032500159,
                    "velocity": 0.2440944881889764,
                    "duration": 0.11601825000002464
                },
                {
                    "name": "A4",
                    "midi": 69,
                    "time": 392.3737215000159,
                    "velocity": 0.2440944881889764,
                    "duration": 0.11601825000002464
                },
                {
                    "name": "D#5",
                    "midi": 75,
                    "time": 392.48973975001593,
                    "velocity": 0.2440944881889764,
                    "duration": 0.11601825000002464
                },
                {
                    "name": "F5",
                    "midi": 77,
                    "time": 392.60575800001595,
                    "velocity": 0.33070866141732286,
                    "duration": 0.46407300000009855
                },
                {
                    "name": "D5",
                    "midi": 74,
                    "time": 392.721776250016,
                    "velocity": 0.2440944881889764,
                    "duration": 0.11601825000002464
                },
                {
                    "name": "A#4",
                    "midi": 70,
                    "time": 392.837794500016,
                    "velocity": 0.2440944881889764,
                    "duration": 0.11601825000002464
                },
                {
                    "name": "D5",
                    "midi": 74,
                    "time": 392.953812750016,
                    "velocity": 0.2440944881889764,
                    "duration": 0.11601825000002464
                },
                {
                    "name": "A#5",
                    "midi": 82,
                    "time": 393.06983100001605,
                    "velocity": 0.30708661417322836,
                    "duration": 0.46407300000009855
                },
                {
                    "name": "F5",
                    "midi": 77,
                    "time": 393.1858492500161,
                    "velocity": 0.2440944881889764,
                    "duration": 0.11601825000002464
                },
                {
                    "name": "A#4",
                    "midi": 70,
                    "time": 393.3018675000161,
                    "velocity": 0.2440944881889764,
                    "duration": 0.11601825000002464
                },
                {
                    "name": "F5",
                    "midi": 77,
                    "time": 393.4178857500161,
                    "velocity": 0.2440944881889764,
                    "duration": 0.11601825000002464
                },
                {
                    "name": "A5",
                    "midi": 81,
                    "time": 393.53390400001615,
                    "velocity": 0.3464566929133858,
                    "duration": 0.46407300000009855
                },
                {
                    "name": "F5",
                    "midi": 77,
                    "time": 393.6499222500162,
                    "velocity": 0.2440944881889764,
                    "duration": 0.11601825000002464
                },
                {
                    "name": "C5",
                    "midi": 72,
                    "time": 393.7659405000162,
                    "velocity": 0.25196850393700787,
                    "duration": 0.11601825000002464
                },
                {
                    "name": "F5",
                    "midi": 77,
                    "time": 393.8819587500162,
                    "velocity": 0.25196850393700787,
                    "duration": 0.11601825000002464
                },
                {
                    "name": "C6",
                    "midi": 84,
                    "time": 393.99797700001625,
                    "velocity": 0.31496062992125984,
                    "duration": 0.46407300000009855
                },
                {
                    "name": "F5",
                    "midi": 77,
                    "time": 394.1139952500163,
                    "velocity": 0.2677165354330709,
                    "duration": 0.11601825000002464
                },
                {
                    "name": "C5",
                    "midi": 72,
                    "time": 394.2300135000163,
                    "velocity": 0.25984251968503935,
                    "duration": 0.11601825000002464
                },
                {
                    "name": "F5",
                    "midi": 77,
                    "time": 394.3460317500163,
                    "velocity": 0.25984251968503935,
                    "duration": 0.11601825000002464
                },
                {
                    "name": "F5",
                    "midi": 77,
                    "time": 394.46205000001635,
                    "velocity": 0.3464566929133858,
                    "duration": 0.46407300000009855
                },
                {
                    "name": "D5",
                    "midi": 74,
                    "time": 394.5780682500164,
                    "velocity": 0.25196850393700787,
                    "duration": 0.11601825000002464
                },
                {
                    "name": "A#4",
                    "midi": 70,
                    "time": 394.6940865000164,
                    "velocity": 0.25196850393700787,
                    "duration": 0.11601825000002464
                },
                {
                    "name": "D5",
                    "midi": 74,
                    "time": 394.8101047500164,
                    "velocity": 0.25196850393700787,
                    "duration": 0.11601825000002464
                },
                {
                    "name": "F#5",
                    "midi": 78,
                    "time": 394.92612300001645,
                    "velocity": 0.30708661417322836,
                    "duration": 0.46407300000009855
                },
                {
                    "name": "D#5",
                    "midi": 75,
                    "time": 395.04214125001647,
                    "velocity": 0.2440944881889764,
                    "duration": 0.11601825000002464
                },
                {
                    "name": "A#4",
                    "midi": 70,
                    "time": 395.1581595000165,
                    "velocity": 0.2440944881889764,
                    "duration": 0.11601825000002464
                },
                {
                    "name": "D#5",
                    "midi": 75,
                    "time": 395.2741777500165,
                    "velocity": 0.2440944881889764,
                    "duration": 0.11601825000002464
                },
                {
                    "name": "F5",
                    "midi": 77,
                    "time": 395.39019600001654,
                    "velocity": 0.30708661417322836,
                    "duration": 0.46407300000009855
                },
                {
                    "name": "D#5",
                    "midi": 75,
                    "time": 395.50621425001657,
                    "velocity": 0.2440944881889764,
                    "duration": 0.11601825000002464
                },
                {
                    "name": "C5",
                    "midi": 72,
                    "time": 395.6222325000166,
                    "velocity": 0.2440944881889764,
                    "duration": 0.11601825000002464
                },
                {
                    "name": "D#5",
                    "midi": 75,
                    "time": 395.7382507500166,
                    "velocity": 0.2440944881889764,
                    "duration": 0.11601825000002464
                },
                {
                    "name": "F5",
                    "midi": 77,
                    "time": 395.85426900001664,
                    "velocity": 0.2992125984251969,
                    "duration": 0.46407300000009855
                },
                {
                    "name": "D#5",
                    "midi": 75,
                    "time": 395.97028725001667,
                    "velocity": 0.2440944881889764,
                    "duration": 0.11601825000002464
                },
                {
                    "name": "A4",
                    "midi": 69,
                    "time": 396.0863055000167,
                    "velocity": 0.2440944881889764,
                    "duration": 0.11601825000002464
                },
                {
                    "name": "D#5",
                    "midi": 75,
                    "time": 396.2023237500167,
                    "velocity": 0.2440944881889764,
                    "duration": 0.11601825000002464
                },
                {
                    "name": "C#5",
                    "midi": 73,
                    "time": 398.17463400001674,
                    "velocity": 0.7007874015748031,
                    "duration": 0.8121277500000019
                },
                {
                    "name": "F5",
                    "midi": 77,
                    "time": 398.17463400001674,
                    "velocity": 0.7007874015748031,
                    "duration": 0.8121277500000019
                },
                {
                    "name": "A#5",
                    "midi": 82,
                    "time": 398.17463400001674,
                    "velocity": 0.8346456692913385,
                    "duration": 0.8121277500000019
                },
                {
                    "name": "C#5",
                    "midi": 73,
                    "time": 398.98676175001674,
                    "velocity": 0.6062992125984252,
                    "duration": 0.1102173374999893
                },
                {
                    "name": "F5",
                    "midi": 77,
                    "time": 398.98676175001674,
                    "velocity": 0.6062992125984252,
                    "duration": 0.1102173374999893
                },
                {
                    "name": "A#5",
                    "midi": 82,
                    "time": 398.98676175001674,
                    "velocity": 0.7244094488188977,
                    "duration": 0.1102173374999893
                },
                {
                    "name": "C#5",
                    "midi": 73,
                    "time": 399.1027800000167,
                    "velocity": 0.6377952755905512,
                    "duration": 0.34805475000001707
                },
                {
                    "name": "F5",
                    "midi": 77,
                    "time": 399.1027800000167,
                    "velocity": 0.6377952755905512,
                    "duration": 0.34805475000001707
                },
                {
                    "name": "C#6",
                    "midi": 85,
                    "time": 399.1027800000167,
                    "velocity": 0.7559055118110236,
                    "duration": 0.34805475000001707
                },
                {
                    "name": "C#5",
                    "midi": 73,
                    "time": 399.4508347500167,
                    "velocity": 0.5984251968503937,
                    "duration": 0.1102173374999893
                },
                {
                    "name": "F5",
                    "midi": 77,
                    "time": 399.4508347500167,
                    "velocity": 0.5984251968503937,
                    "duration": 0.1102173374999893
                },
                {
                    "name": "C#6",
                    "midi": 85,
                    "time": 399.4508347500167,
                    "velocity": 0.7165354330708661,
                    "duration": 0.1102173374999893
                },
                {
                    "name": "C#5",
                    "midi": 73,
                    "time": 399.5668530000167,
                    "velocity": 0.6377952755905512,
                    "duration": 0.34805475000001707
                },
                {
                    "name": "F5",
                    "midi": 77,
                    "time": 399.5668530000167,
                    "velocity": 0.6377952755905512,
                    "duration": 0.34805475000001707
                },
                {
                    "name": "A#5",
                    "midi": 82,
                    "time": 399.5668530000167,
                    "velocity": 0.7559055118110236,
                    "duration": 0.34805475000001707
                },
                {
                    "name": "C#5",
                    "midi": 73,
                    "time": 399.9149077500167,
                    "velocity": 0.6062992125984252,
                    "duration": 0.1102173374999893
                },
                {
                    "name": "F5",
                    "midi": 77,
                    "time": 399.9149077500167,
                    "velocity": 0.6062992125984252,
                    "duration": 0.1102173374999893
                },
                {
                    "name": "A#5",
                    "midi": 82,
                    "time": 399.9149077500167,
                    "velocity": 0.7244094488188977,
                    "duration": 0.1102173374999893
                },
                {
                    "name": "A#4",
                    "midi": 70,
                    "time": 400.0309260000167,
                    "velocity": 0.6377952755905512,
                    "duration": 0.34805475000001707
                },
                {
                    "name": "C#5",
                    "midi": 73,
                    "time": 400.0309260000167,
                    "velocity": 0.6377952755905512,
                    "duration": 0.34805475000001707
                },
                {
                    "name": "F5",
                    "midi": 77,
                    "time": 400.0309260000167,
                    "velocity": 0.7559055118110236,
                    "duration": 0.34805475000001707
                },
                {
                    "name": "A#4",
                    "midi": 70,
                    "time": 400.3789807500167,
                    "velocity": 0.6062992125984252,
                    "duration": 0.1102173374999893
                },
                {
                    "name": "C#5",
                    "midi": 73,
                    "time": 400.3789807500167,
                    "velocity": 0.6062992125984252,
                    "duration": 0.1102173374999893
                },
                {
                    "name": "F5",
                    "midi": 77,
                    "time": 400.3789807500167,
                    "velocity": 0.7244094488188977,
                    "duration": 0.1102173374999893
                },
                {
                    "name": "F4",
                    "midi": 65,
                    "time": 400.49499900001666,
                    "velocity": 0.6062992125984252,
                    "duration": 0.34805475000001707
                },
                {
                    "name": "A#4",
                    "midi": 70,
                    "time": 400.49499900001666,
                    "velocity": 0.6062992125984252,
                    "duration": 0.34805475000001707
                },
                {
                    "name": "C#5",
                    "midi": 73,
                    "time": 400.49499900001666,
                    "velocity": 0.7165354330708661,
                    "duration": 0.34805475000001707
                },
                {
                    "name": "F4",
                    "midi": 65,
                    "time": 400.8430537500167,
                    "velocity": 0.5669291338582677,
                    "duration": 0.1102173374999893
                },
                {
                    "name": "A#4",
                    "midi": 70,
                    "time": 400.8430537500167,
                    "velocity": 0.5669291338582677,
                    "duration": 0.1102173374999893
                },
                {
                    "name": "C#5",
                    "midi": 73,
                    "time": 400.8430537500167,
                    "velocity": 0.6771653543307087,
                    "duration": 0.1102173374999893
                },
                {
                    "name": "C#4",
                    "midi": 61,
                    "time": 400.95907200001665,
                    "velocity": 0.6062992125984252,
                    "duration": 0.34805475000001707
                },
                {
                    "name": "F4",
                    "midi": 65,
                    "time": 400.95907200001665,
                    "velocity": 0.6062992125984252,
                    "duration": 0.34805475000001707
                },
                {
                    "name": "A#4",
                    "midi": 70,
                    "time": 400.95907200001665,
                    "velocity": 0.7165354330708661,
                    "duration": 0.34805475000001707
                },
                {
                    "name": "C#4",
                    "midi": 61,
                    "time": 401.30712675001666,
                    "velocity": 0.5669291338582677,
                    "duration": 0.1102173374999893
                },
                {
                    "name": "F4",
                    "midi": 65,
                    "time": 401.30712675001666,
                    "velocity": 0.5669291338582677,
                    "duration": 0.1102173374999893
                },
                {
                    "name": "A#4",
                    "midi": 70,
                    "time": 401.30712675001666,
                    "velocity": 0.6771653543307087,
                    "duration": 0.1102173374999893
                },
                {
                    "name": "C#4",
                    "midi": 61,
                    "time": 401.42314500001663,
                    "velocity": 0.6062992125984252,
                    "duration": 0.34805475000001707
                },
                {
                    "name": "F4",
                    "midi": 65,
                    "time": 401.42314500001663,
                    "velocity": 0.7165354330708661,
                    "duration": 0.34805475000001707
                },
                {
                    "name": "C#4",
                    "midi": 61,
                    "time": 401.77119975001665,
                    "velocity": 0.5590551181102362,
                    "duration": 0.11601825000002464
                },
                {
                    "name": "F4",
                    "midi": 65,
                    "time": 401.77119975001665,
                    "velocity": 0.5590551181102362,
                    "duration": 0.11601825000002464
                },
                {
                    "name": "A#4",
                    "midi": 70,
                    "time": 401.77119975001665,
                    "velocity": 0.6692913385826772,
                    "duration": 0.11601825000002464
                },
                {
                    "name": "D#4",
                    "midi": 63,
                    "time": 401.8872180000167,
                    "velocity": 0.6377952755905512,
                    "duration": 0.11601825000002464
                },
                {
                    "name": "F#4",
                    "midi": 66,
                    "time": 401.8872180000167,
                    "velocity": 0.6377952755905512,
                    "duration": 0.11601825000002464
                },
                {
                    "name": "B4",
                    "midi": 71,
                    "time": 401.8872180000167,
                    "velocity": 0.7559055118110236,
                    "duration": 0.11601825000002464
                },
                {
                    "name": "B5",
                    "midi": 83,
                    "time": 402.1192545000167,
                    "velocity": 0.48031496062992124,
                    "duration": 0.1353546250000477
                },
                {
                    "name": "D#6",
                    "midi": 87,
                    "time": 402.23527275001675,
                    "velocity": 0.5118110236220472,
                    "duration": 0.1353546250000477
                },
                {
                    "name": "F#6",
                    "midi": 90,
                    "time": 402.3512910000168,
                    "velocity": 0.5354330708661418,
                    "duration": 0.1353546250000477
                },
                {
                    "name": "E6",
                    "midi": 88,
                    "time": 402.4673092500168,
                    "velocity": 0.5354330708661418,
                    "duration": 0.1353546250000477
                },
                {
                    "name": "D#6",
                    "midi": 87,
                    "time": 402.5833275000168,
                    "velocity": 0.5275590551181102,
                    "duration": 0.1353546250000477
                },
                {
                    "name": "C#6",
                    "midi": 85,
                    "time": 402.69934575001685,
                    "velocity": 0.5275590551181102,
                    "duration": 0.1353546250000477
                },
                {
                    "name": "B5",
                    "midi": 83,
                    "time": 402.81536400001687,
                    "velocity": 0.5354330708661418,
                    "duration": 0.1353546250000477
                },
                {
                    "name": "A#5",
                    "midi": 82,
                    "time": 402.9313822500169,
                    "velocity": 0.5354330708661418,
                    "duration": 0.1353546250000477
                },
                {
                    "name": "G#5",
                    "midi": 80,
                    "time": 403.0474005000169,
                    "velocity": 0.5275590551181102,
                    "duration": 0.1353546250000477
                },
                {
                    "name": "F#5",
                    "midi": 78,
                    "time": 403.16341875001694,
                    "velocity": 0.5275590551181102,
                    "duration": 0.1353546250000477
                },
                {
                    "name": "E5",
                    "midi": 76,
                    "time": 403.27943700001697,
                    "velocity": 0.5275590551181102,
                    "duration": 0.1353546250000477
                },
                {
                    "name": "D#5",
                    "midi": 75,
                    "time": 403.395455250017,
                    "velocity": 0.5275590551181102,
                    "duration": 0.1353546250000477
                },
                {
                    "name": "C#5",
                    "midi": 73,
                    "time": 403.511473500017,
                    "velocity": 0.5275590551181102,
                    "duration": 0.1353546250000477
                },
                {
                    "name": "B4",
                    "midi": 71,
                    "time": 403.62749175001704,
                    "velocity": 0.5275590551181102,
                    "duration": 0.1353546250000477
                },
                {
                    "name": "C#5",
                    "midi": 73,
                    "time": 403.74351000001707,
                    "velocity": 0.5275590551181102,
                    "duration": 0.1353546250000477
                },
                {
                    "name": "A#4",
                    "midi": 70,
                    "time": 403.8595282500171,
                    "velocity": 0.5354330708661418,
                    "duration": 0.1353546250000477
                },
                {
                    "name": "B4",
                    "midi": 71,
                    "time": 403.9755465000171,
                    "velocity": 0.5669291338582677,
                    "duration": 0.1353546250000477
                },
                {
                    "name": "D#5",
                    "midi": 75,
                    "time": 404.09156475001714,
                    "velocity": 0.5905511811023622,
                    "duration": 0.1353546250000477
                },
                {
                    "name": "F#5",
                    "midi": 78,
                    "time": 404.20758300001717,
                    "velocity": 0.5826771653543307,
                    "duration": 0.1353546250000477
                },
                {
                    "name": "E5",
                    "midi": 76,
                    "time": 404.3236012500172,
                    "velocity": 0.5748031496062992,
                    "duration": 0.1353546250000477
                },
                {
                    "name": "D#5",
                    "midi": 75,
                    "time": 404.4396195000172,
                    "velocity": 0.5748031496062992,
                    "duration": 0.1353546250000477
                },
                {
                    "name": "C#5",
                    "midi": 73,
                    "time": 404.55563775001724,
                    "velocity": 0.5669291338582677,
                    "duration": 0.1353546250000477
                },
                {
                    "name": "B4",
                    "midi": 71,
                    "time": 404.67165600001726,
                    "velocity": 0.5590551181102362,
                    "duration": 0.1353546250000477
                },
                {
                    "name": "A#4",
                    "midi": 70,
                    "time": 404.7876742500173,
                    "velocity": 0.5590551181102362,
                    "duration": 0.1353546250000477
                },
                {
                    "name": "G#4",
                    "midi": 68,
                    "time": 404.9036925000173,
                    "velocity": 0.5669291338582677,
                    "duration": 0.1353546250000477
                },
                {
                    "name": "F#4",
                    "midi": 66,
                    "time": 405.01971075001734,
                    "velocity": 0.5748031496062992,
                    "duration": 0.1353546250000477
                },
                {
                    "name": "E4",
                    "midi": 64,
                    "time": 405.13572900001736,
                    "velocity": 0.5826771653543307,
                    "duration": 0.1353546250000477
                },
                {
                    "name": "D#4",
                    "midi": 63,
                    "time": 405.2517472500174,
                    "velocity": 0.5905511811023622,
                    "duration": 0.1353546250000477
                },
                {
                    "name": "C#4",
                    "midi": 61,
                    "time": 405.3677655000174,
                    "velocity": 0.5984251968503937,
                    "duration": 0.1353546250000477
                },
                {
                    "name": "B3",
                    "midi": 59,
                    "time": 405.48378375001744,
                    "velocity": 0.6220472440944882,
                    "duration": 0.11601825000002464
                },
                {
                    "name": "F#3",
                    "midi": 54,
                    "time": 405.59980200001746,
                    "velocity": 0.6771653543307087,
                    "duration": 0.23203649999999243
                },
                {
                    "name": "B3",
                    "midi": 59,
                    "time": 405.59980200001746,
                    "velocity": 0.6771653543307087,
                    "duration": 0.23203649999999243
                },
                {
                    "name": "F#3",
                    "midi": 54,
                    "time": 405.83183850001745,
                    "velocity": 0.5826771653543307,
                    "duration": 0.46407299999998486
                },
                {
                    "name": "B3",
                    "midi": 59,
                    "time": 405.83183850001745,
                    "velocity": 0.5826771653543307,
                    "duration": 0.46407299999998486
                },
                {
                    "name": "D#4",
                    "midi": 63,
                    "time": 405.83183850001745,
                    "velocity": 0.6929133858267716,
                    "duration": 0.46407299999998486
                },
                {
                    "name": "B3",
                    "midi": 59,
                    "time": 406.29591150001744,
                    "velocity": 0.5748031496062992,
                    "duration": 0.46407299999998486
                },
                {
                    "name": "D#4",
                    "midi": 63,
                    "time": 406.29591150001744,
                    "velocity": 0.5748031496062992,
                    "duration": 0.46407299999998486
                },
                {
                    "name": "F#4",
                    "midi": 66,
                    "time": 406.29591150001744,
                    "velocity": 0.6850393700787402,
                    "duration": 0.46407299999998486
                },
                {
                    "name": "D#4",
                    "midi": 63,
                    "time": 406.7599845000174,
                    "velocity": 0.5433070866141733,
                    "duration": 0.11601825000002464
                },
                {
                    "name": "F#4",
                    "midi": 66,
                    "time": 406.7599845000174,
                    "velocity": 0.5433070866141733,
                    "duration": 0.11601825000002464
                },
                {
                    "name": "B4",
                    "midi": 71,
                    "time": 406.7599845000174,
                    "velocity": 0.6377952755905512,
                    "duration": 0.11601825000002464
                },
                {
                    "name": "F#4",
                    "midi": 66,
                    "time": 406.9920210000175,
                    "velocity": 0.5590551181102362,
                    "duration": 0.11601825000002464
                },
                {
                    "name": "B4",
                    "midi": 71,
                    "time": 406.9920210000175,
                    "velocity": 0.5590551181102362,
                    "duration": 0.11601825000002464
                },
                {
                    "name": "D#5",
                    "midi": 75,
                    "time": 406.9920210000175,
                    "velocity": 0.6692913385826772,
                    "duration": 0.11601825000002464
                },
                {
                    "name": "B4",
                    "midi": 71,
                    "time": 407.2240575000175,
                    "velocity": 0.5826771653543307,
                    "duration": 0.11601825000002464
                },
                {
                    "name": "D#5",
                    "midi": 75,
                    "time": 407.2240575000175,
                    "velocity": 0.5826771653543307,
                    "duration": 0.11601825000002464
                },
                {
                    "name": "F#5",
                    "midi": 78,
                    "time": 407.2240575000175,
                    "velocity": 0.6929133858267716,
                    "duration": 0.11601825000002464
                },
                {
                    "name": "D#4",
                    "midi": 63,
                    "time": 407.4560940000176,
                    "velocity": 0.5905511811023622,
                    "duration": 0.23203649999999243
                },
                {
                    "name": "A4",
                    "midi": 69,
                    "time": 407.4560940000176,
                    "velocity": 0.5905511811023622,
                    "duration": 0.23203649999999243
                },
                {
                    "name": "C5",
                    "midi": 72,
                    "time": 407.4560940000176,
                    "velocity": 0.6771653543307087,
                    "duration": 0.23203649999999243
                },
                {
                    "name": "A4",
                    "midi": 69,
                    "time": 407.68813050001756,
                    "velocity": 0.5826771653543307,
                    "duration": 0.46407299999998486
                },
                {
                    "name": "C5",
                    "midi": 72,
                    "time": 407.68813050001756,
                    "velocity": 0.5826771653543307,
                    "duration": 0.46407299999998486
                },
                {
                    "name": "D#5",
                    "midi": 75,
                    "time": 407.68813050001756,
                    "velocity": 0.6929133858267716,
                    "duration": 0.46407299999998486
                },
                {
                    "name": "C5",
                    "midi": 72,
                    "time": 408.15220350001755,
                    "velocity": 0.5748031496062992,
                    "duration": 0.46407299999998486
                },
                {
                    "name": "D#5",
                    "midi": 75,
                    "time": 408.15220350001755,
                    "velocity": 0.5748031496062992,
                    "duration": 0.46407299999998486
                },
                {
                    "name": "A5",
                    "midi": 81,
                    "time": 408.15220350001755,
                    "velocity": 0.6850393700787402,
                    "duration": 0.46407299999998486
                },
                {
                    "name": "D#5",
                    "midi": 75,
                    "time": 408.61627650001753,
                    "velocity": 0.5433070866141733,
                    "duration": 0.11601825000002464
                },
                {
                    "name": "A5",
                    "midi": 81,
                    "time": 408.61627650001753,
                    "velocity": 0.5433070866141733,
                    "duration": 0.11601825000002464
                },
                {
                    "name": "C6",
                    "midi": 84,
                    "time": 408.61627650001753,
                    "velocity": 0.6377952755905512,
                    "duration": 0.11601825000002464
                },
                {
                    "name": "A5",
                    "midi": 81,
                    "time": 408.8483130000176,
                    "velocity": 0.5590551181102362,
                    "duration": 0.11601825000002464
                },
                {
                    "name": "C6",
                    "midi": 84,
                    "time": 408.8483130000176,
                    "velocity": 0.5590551181102362,
                    "duration": 0.11601825000002464
                },
                {
                    "name": "D#6",
                    "midi": 87,
                    "time": 408.8483130000176,
                    "velocity": 0.6692913385826772,
                    "duration": 0.11601825000002464
                },
                {
                    "name": "C6",
                    "midi": 84,
                    "time": 409.08034950001763,
                    "velocity": 0.5826771653543307,
                    "duration": 0.11601825000002464
                },
                {
                    "name": "D#6",
                    "midi": 87,
                    "time": 409.08034950001763,
                    "velocity": 0.5826771653543307,
                    "duration": 0.11601825000002464
                },
                {
                    "name": "A6",
                    "midi": 93,
                    "time": 409.08034950001763,
                    "velocity": 0.6929133858267716,
                    "duration": 0.11601825000002464
                },
                {
                    "name": "A#5",
                    "midi": 82,
                    "time": 409.3123860000177,
                    "velocity": 0.7007874015748031,
                    "duration": 0.8121277500000019
                },
                {
                    "name": "C#6",
                    "midi": 85,
                    "time": 409.3123860000177,
                    "velocity": 0.7007874015748031,
                    "duration": 0.8121277500000019
                },
                {
                    "name": "F6",
                    "midi": 89,
                    "time": 409.3123860000177,
                    "velocity": 0.7007874015748031,
                    "duration": 0.8121277500000019
                },
                {
                    "name": "A#6",
                    "midi": 94,
                    "time": 409.3123860000177,
                    "velocity": 0.8346456692913385,
                    "duration": 0.8121277500000019
                },
                {
                    "name": "A#5",
                    "midi": 82,
                    "time": 410.1245137500177,
                    "velocity": 0.6062992125984252,
                    "duration": 0.11601825000002464
                },
                {
                    "name": "A#6",
                    "midi": 94,
                    "time": 410.1245137500177,
                    "velocity": 0.7244094488188977,
                    "duration": 0.11601825000002464
                },
                {
                    "name": "C#6",
                    "midi": 85,
                    "time": 410.2405320000177,
                    "velocity": 0.6377952755905512,
                    "duration": 0.34805475000001707
                },
                {
                    "name": "C#7",
                    "midi": 97,
                    "time": 410.2405320000177,
                    "velocity": 0.7559055118110236,
                    "duration": 0.34805475000001707
                },
                {
                    "name": "C#6",
                    "midi": 85,
                    "time": 410.5885867500177,
                    "velocity": 0.5984251968503937,
                    "duration": 0.11601825000002464
                },
                {
                    "name": "C#7",
                    "midi": 97,
                    "time": 410.5885867500177,
                    "velocity": 0.7165354330708661,
                    "duration": 0.11601825000002464
                },
                {
                    "name": "A#5",
                    "midi": 82,
                    "time": 410.70460500001775,
                    "velocity": 0.6377952755905512,
                    "duration": 0.34805475000001707
                },
                {
                    "name": "A#6",
                    "midi": 94,
                    "time": 410.70460500001775,
                    "velocity": 0.7559055118110236,
                    "duration": 0.34805475000001707
                },
                {
                    "name": "A#5",
                    "midi": 82,
                    "time": 411.05265975001777,
                    "velocity": 0.6062992125984252,
                    "duration": 0.11601825000002464
                },
                {
                    "name": "A#6",
                    "midi": 94,
                    "time": 411.05265975001777,
                    "velocity": 0.7244094488188977,
                    "duration": 0.11601825000002464
                },
                {
                    "name": "F#5",
                    "midi": 78,
                    "time": 411.1686780000178,
                    "velocity": 0.6377952755905512,
                    "duration": 0.34805475000001707
                },
                {
                    "name": "F#6",
                    "midi": 90,
                    "time": 411.1686780000178,
                    "velocity": 0.7559055118110236,
                    "duration": 0.34805475000001707
                },
                {
                    "name": "F#5",
                    "midi": 78,
                    "time": 411.5167327500178,
                    "velocity": 0.6062992125984252,
                    "duration": 0.11601825000002464
                },
                {
                    "name": "F#6",
                    "midi": 90,
                    "time": 411.5167327500178,
                    "velocity": 0.7244094488188977,
                    "duration": 0.11601825000002464
                },
                {
                    "name": "C#5",
                    "midi": 73,
                    "time": 411.63275100001783,
                    "velocity": 0.6062992125984252,
                    "duration": 0.34805475000001707
                },
                {
                    "name": "C#6",
                    "midi": 85,
                    "time": 411.63275100001783,
                    "velocity": 0.7165354330708661,
                    "duration": 0.34805475000001707
                },
                {
                    "name": "C#5",
                    "midi": 73,
                    "time": 411.98080575001785,
                    "velocity": 0.5669291338582677,
                    "duration": 0.11601825000002464
                },
                {
                    "name": "C#6",
                    "midi": 85,
                    "time": 411.98080575001785,
                    "velocity": 0.6771653543307087,
                    "duration": 0.11601825000002464
                },
                {
                    "name": "D5",
                    "midi": 74,
                    "time": 412.0968240000179,
                    "velocity": 0.6062992125984252,
                    "duration": 0.34805475000001707
                },
                {
                    "name": "D6",
                    "midi": 86,
                    "time": 412.0968240000179,
                    "velocity": 0.7165354330708661,
                    "duration": 0.34805475000001707
                },
                {
                    "name": "D5",
                    "midi": 74,
                    "time": 412.4448787500179,
                    "velocity": 0.5669291338582677,
                    "duration": 0.11601825000002464
                },
                {
                    "name": "D6",
                    "midi": 86,
                    "time": 412.4448787500179,
                    "velocity": 0.6771653543307087,
                    "duration": 0.11601825000002464
                },
                {
                    "name": "A#4",
                    "midi": 70,
                    "time": 412.5608970000179,
                    "velocity": 0.6062992125984252,
                    "duration": 0.34805475000001707
                },
                {
                    "name": "A#5",
                    "midi": 82,
                    "time": 412.5608970000179,
                    "velocity": 0.7165354330708661,
                    "duration": 0.34805475000001707
                },
                {
                    "name": "A#4",
                    "midi": 70,
                    "time": 412.90895175001793,
                    "velocity": 0.5590551181102362,
                    "duration": 0.11601825000002464
                },
                {
                    "name": "A#5",
                    "midi": 82,
                    "time": 412.90895175001793,
                    "velocity": 0.6692913385826772,
                    "duration": 0.11601825000002464
                },
                {
                    "name": "D#5",
                    "midi": 75,
                    "time": 413.02497000001796,
                    "velocity": 0.6220472440944882,
                    "duration": 0.8121277500000019
                },
                {
                    "name": "F#5",
                    "midi": 78,
                    "time": 413.02497000001796,
                    "velocity": 0.6220472440944882,
                    "duration": 0.8121277500000019
                },
                {
                    "name": "A#5",
                    "midi": 82,
                    "time": 413.02497000001796,
                    "velocity": 0.6220472440944882,
                    "duration": 0.8121277500000019
                },
                {
                    "name": "D#6",
                    "midi": 87,
                    "time": 413.02497000001796,
                    "velocity": 0.7401574803149606,
                    "duration": 0.8121277500000019
                },
                {
                    "name": "D#5",
                    "midi": 75,
                    "time": 413.83709775001796,
                    "velocity": 0.5748031496062992,
                    "duration": 0.11601825000002464
                },
                {
                    "name": "D#6",
                    "midi": 87,
                    "time": 413.83709775001796,
                    "velocity": 0.6850393700787402,
                    "duration": 0.11601825000002464
                },
                {
                    "name": "F#5",
                    "midi": 78,
                    "time": 413.953116000018,
                    "velocity": 0.6062992125984252,
                    "duration": 0.34805475000001707
                },
                {
                    "name": "F#6",
                    "midi": 90,
                    "time": 413.953116000018,
                    "velocity": 0.7165354330708661,
                    "duration": 0.34805475000001707
                },
                {
                    "name": "F#5",
                    "midi": 78,
                    "time": 414.301170750018,
                    "velocity": 0.5669291338582677,
                    "duration": 0.11601825000002464
                },
                {
                    "name": "F#6",
                    "midi": 90,
                    "time": 414.301170750018,
                    "velocity": 0.6771653543307087,
                    "duration": 0.11601825000002464
                },
                {
                    "name": "D#5",
                    "midi": 75,
                    "time": 414.417189000018,
                    "velocity": 0.6062992125984252,
                    "duration": 0.34805475000001707
                },
                {
                    "name": "D#6",
                    "midi": 87,
                    "time": 414.417189000018,
                    "velocity": 0.7165354330708661,
                    "duration": 0.34805475000001707
                },
                {
                    "name": "D#5",
                    "midi": 75,
                    "time": 414.76524375001804,
                    "velocity": 0.5748031496062992,
                    "duration": 0.11601825000002464
                },
                {
                    "name": "D#6",
                    "midi": 87,
                    "time": 414.76524375001804,
                    "velocity": 0.6850393700787402,
                    "duration": 0.11601825000002464
                },
                {
                    "name": "B4",
                    "midi": 71,
                    "time": 414.88126200001807,
                    "velocity": 0.6062992125984252,
                    "duration": 0.34805475000001707
                },
                {
                    "name": "B5",
                    "midi": 83,
                    "time": 414.88126200001807,
                    "velocity": 0.7165354330708661,
                    "duration": 0.34805475000001707
                },
                {
                    "name": "B4",
                    "midi": 71,
                    "time": 415.2293167500181,
                    "velocity": 0.5748031496062992,
                    "duration": 0.11601825000002464
                },
                {
                    "name": "B5",
                    "midi": 83,
                    "time": 415.2293167500181,
                    "velocity": 0.6850393700787402,
                    "duration": 0.11601825000002464
                },
                {
                    "name": "A#4",
                    "midi": 70,
                    "time": 415.3453350000181,
                    "velocity": 0.5748031496062992,
                    "duration": 0.34805475000001707
                },
                {
                    "name": "A#5",
                    "midi": 82,
                    "time": 415.3453350000181,
                    "velocity": 0.6771653543307087,
                    "duration": 0.34805475000001707
                },
                {
                    "name": "A#4",
                    "midi": 70,
                    "time": 415.6933897500181,
                    "velocity": 0.5354330708661418,
                    "duration": 0.11601825000002464
                },
                {
                    "name": "A#5",
                    "midi": 82,
                    "time": 415.6933897500181,
                    "velocity": 0.6299212598425197,
                    "duration": 0.11601825000002464
                },
                {
                    "name": "A4",
                    "midi": 69,
                    "time": 415.80940800001815,
                    "velocity": 0.5748031496062992,
                    "duration": 0.34805475000001707
                },
                {
                    "name": "A5",
                    "midi": 81,
                    "time": 415.80940800001815,
                    "velocity": 0.6771653543307087,
                    "duration": 0.34805475000001707
                },
                {
                    "name": "A4",
                    "midi": 69,
                    "time": 416.15746275001817,
                    "velocity": 0.5354330708661418,
                    "duration": 0.11601825000002464
                },
                {
                    "name": "A5",
                    "midi": 81,
                    "time": 416.15746275001817,
                    "velocity": 0.6299212598425197,
                    "duration": 0.11601825000002464
                },
                {
                    "name": "F5",
                    "midi": 77,
                    "time": 416.2734810000182,
                    "velocity": 0.5748031496062992,
                    "duration": 0.34805475000001707
                },
                {
                    "name": "F6",
                    "midi": 89,
                    "time": 416.2734810000182,
                    "velocity": 0.6771653543307087,
                    "duration": 0.34805475000001707
                },
                {
                    "name": "F5",
                    "midi": 77,
                    "time": 416.6215357500182,
                    "velocity": 0.5275590551181102,
                    "duration": 0.11601825000002464
                },
                {
                    "name": "F6",
                    "midi": 89,
                    "time": 416.6215357500182,
                    "velocity": 0.6220472440944882,
                    "duration": 0.11601825000002464
                },
                {
                    "name": "A#4",
                    "midi": 70,
                    "time": 416.73755400001824,
                    "velocity": 0.6220472440944882,
                    "duration": 0.8121277500000019
                },
                {
                    "name": "C#5",
                    "midi": 73,
                    "time": 416.73755400001824,
                    "velocity": 0.6220472440944882,
                    "duration": 0.8121277500000019
                },
                {
                    "name": "F5",
                    "midi": 77,
                    "time": 416.73755400001824,
                    "velocity": 0.6220472440944882,
                    "duration": 0.8121277500000019
                },
                {
                    "name": "A#5",
                    "midi": 82,
                    "time": 416.73755400001824,
                    "velocity": 0.7401574803149606,
                    "duration": 0.8121277500000019
                },
                {
                    "name": "A#5",
                    "midi": 82,
                    "time": 417.54968175001824,
                    "velocity": 0.5748031496062992,
                    "duration": 0.11601825000002464
                },
                {
                    "name": "A#6",
                    "midi": 94,
                    "time": 417.54968175001824,
                    "velocity": 0.6850393700787402,
                    "duration": 0.11601825000002464
                },
                {
                    "name": "C#6",
                    "midi": 85,
                    "time": 417.66570000001826,
                    "velocity": 0.6062992125984252,
                    "duration": 0.34805475000001707
                },
                {
                    "name": "C#7",
                    "midi": 97,
                    "time": 417.66570000001826,
                    "velocity": 0.7165354330708661,
                    "duration": 0.34805475000001707
                },
                {
                    "name": "C#6",
                    "midi": 85,
                    "time": 418.0137547500183,
                    "velocity": 0.5669291338582677,
                    "duration": 0.11601825000002464
                },
                {
                    "name": "C#7",
                    "midi": 97,
                    "time": 418.0137547500183,
                    "velocity": 0.6771653543307087,
                    "duration": 0.11601825000002464
                },
                {
                    "name": "A#5",
                    "midi": 82,
                    "time": 418.1297730000183,
                    "velocity": 0.6062992125984252,
                    "duration": 0.34805475000001707
                },
                {
                    "name": "A#6",
                    "midi": 94,
                    "time": 418.1297730000183,
                    "velocity": 0.7165354330708661,
                    "duration": 0.34805475000001707
                },
                {
                    "name": "A#5",
                    "midi": 82,
                    "time": 418.4778277500183,
                    "velocity": 0.5748031496062992,
                    "duration": 0.11601825000002464
                },
                {
                    "name": "A#6",
                    "midi": 94,
                    "time": 418.4778277500183,
                    "velocity": 0.6850393700787402,
                    "duration": 0.11601825000002464
                },
                {
                    "name": "F#5",
                    "midi": 78,
                    "time": 418.59384600001835,
                    "velocity": 0.6062992125984252,
                    "duration": 0.34805475000001707
                },
                {
                    "name": "F#6",
                    "midi": 90,
                    "time": 418.59384600001835,
                    "velocity": 0.7165354330708661,
                    "duration": 0.34805475000001707
                },
                {
                    "name": "F#5",
                    "midi": 78,
                    "time": 418.94190075001836,
                    "velocity": 0.5748031496062992,
                    "duration": 0.11601825000002464
                },
                {
                    "name": "F#6",
                    "midi": 90,
                    "time": 418.94190075001836,
                    "velocity": 0.6850393700787402,
                    "duration": 0.11601825000002464
                },
                {
                    "name": "C#5",
                    "midi": 73,
                    "time": 419.0579190000184,
                    "velocity": 0.5748031496062992,
                    "duration": 0.34805475000001707
                },
                {
                    "name": "C#6",
                    "midi": 85,
                    "time": 419.0579190000184,
                    "velocity": 0.6771653543307087,
                    "duration": 0.34805475000001707
                },
                {
                    "name": "C#5",
                    "midi": 73,
                    "time": 419.4059737500184,
                    "velocity": 0.5354330708661418,
                    "duration": 0.11601825000002464
                },
                {
                    "name": "C#6",
                    "midi": 85,
                    "time": 419.4059737500184,
                    "velocity": 0.6299212598425197,
                    "duration": 0.11601825000002464
                },
                {
                    "name": "F5",
                    "midi": 77,
                    "time": 419.52199200001843,
                    "velocity": 0.5748031496062992,
                    "duration": 0.34805475000001707
                },
                {
                    "name": "F6",
                    "midi": 89,
                    "time": 419.52199200001843,
                    "velocity": 0.6771653543307087,
                    "duration": 0.34805475000001707
                },
                {
                    "name": "F5",
                    "midi": 77,
                    "time": 419.87004675001845,
                    "velocity": 0.5354330708661418,
                    "duration": 0.11601825000002464
                },
                {
                    "name": "F6",
                    "midi": 89,
                    "time": 419.87004675001845,
                    "velocity": 0.6299212598425197,
                    "duration": 0.11601825000002464
                },
                {
                    "name": "C#5",
                    "midi": 73,
                    "time": 419.98606500001847,
                    "velocity": 0.5748031496062992,
                    "duration": 0.34805475000001707
                },
                {
                    "name": "C#6",
                    "midi": 85,
                    "time": 419.98606500001847,
                    "velocity": 0.6771653543307087,
                    "duration": 0.34805475000001707
                },
                {
                    "name": "C#5",
                    "midi": 73,
                    "time": 420.3341197500185,
                    "velocity": 0.5275590551181102,
                    "duration": 0.11601825000002464
                },
                {
                    "name": "C#6",
                    "midi": 85,
                    "time": 420.3341197500185,
                    "velocity": 0.6220472440944882,
                    "duration": 0.11601825000002464
                },
                {
                    "name": "F#5",
                    "midi": 78,
                    "time": 420.4501380000185,
                    "velocity": 0.6220472440944882,
                    "duration": 0.8121277500000019
                },
                {
                    "name": "A#5",
                    "midi": 82,
                    "time": 420.4501380000185,
                    "velocity": 0.6220472440944882,
                    "duration": 0.8121277500000019
                },
                {
                    "name": "C#6",
                    "midi": 85,
                    "time": 420.4501380000185,
                    "velocity": 0.6220472440944882,
                    "duration": 0.8121277500000019
                },
                {
                    "name": "F#6",
                    "midi": 90,
                    "time": 420.4501380000185,
                    "velocity": 0.7401574803149606,
                    "duration": 0.8121277500000019
                },
                {
                    "name": "F#5",
                    "midi": 78,
                    "time": 421.2622657500185,
                    "velocity": 0.5433070866141733,
                    "duration": 0.11601825000002464
                },
                {
                    "name": "F#6",
                    "midi": 90,
                    "time": 421.2622657500185,
                    "velocity": 0.6377952755905512,
                    "duration": 0.11601825000002464
                },
                {
                    "name": "A#5",
                    "midi": 82,
                    "time": 421.37828400001854,
                    "velocity": 0.5748031496062992,
                    "duration": 0.34805475000001707
                },
                {
                    "name": "A#6",
                    "midi": 94,
                    "time": 421.37828400001854,
                    "velocity": 0.6771653543307087,
                    "duration": 0.34805475000001707
                },
                {
                    "name": "A#5",
                    "midi": 82,
                    "time": 421.72633875001856,
                    "velocity": 0.5354330708661418,
                    "duration": 0.11601825000002464
                },
                {
                    "name": "A#6",
                    "midi": 94,
                    "time": 421.72633875001856,
                    "velocity": 0.6299212598425197,
                    "duration": 0.11601825000002464
                },
                {
                    "name": "F#5",
                    "midi": 78,
                    "time": 421.8423570000186,
                    "velocity": 0.5748031496062992,
                    "duration": 0.34805475000001707
                },
                {
                    "name": "F#6",
                    "midi": 90,
                    "time": 421.8423570000186,
                    "velocity": 0.6771653543307087,
                    "duration": 0.34805475000001707
                },
                {
                    "name": "F#5",
                    "midi": 78,
                    "time": 422.1904117500186,
                    "velocity": 0.5433070866141733,
                    "duration": 0.11601825000002464
                },
                {
                    "name": "F#6",
                    "midi": 90,
                    "time": 422.1904117500186,
                    "velocity": 0.6377952755905512,
                    "duration": 0.11601825000002464
                },
                {
                    "name": "F5",
                    "midi": 77,
                    "time": 422.3064300000186,
                    "velocity": 0.5748031496062992,
                    "duration": 0.34805475000001707
                },
                {
                    "name": "F6",
                    "midi": 89,
                    "time": 422.3064300000186,
                    "velocity": 0.6771653543307087,
                    "duration": 0.34805475000001707
                },
                {
                    "name": "F5",
                    "midi": 77,
                    "time": 422.65448475001864,
                    "velocity": 0.5433070866141733,
                    "duration": 0.11601825000002464
                },
                {
                    "name": "F6",
                    "midi": 89,
                    "time": 422.65448475001864,
                    "velocity": 0.6377952755905512,
                    "duration": 0.11601825000002464
                },
                {
                    "name": "D#5",
                    "midi": 75,
                    "time": 422.77050300001866,
                    "velocity": 0.5433070866141733,
                    "duration": 0.34805475000001707
                },
                {
                    "name": "D#6",
                    "midi": 87,
                    "time": 422.77050300001866,
                    "velocity": 0.6299212598425197,
                    "duration": 0.34805475000001707
                },
                {
                    "name": "D#5",
                    "midi": 75,
                    "time": 423.1185577500187,
                    "velocity": 0.5039370078740157,
                    "duration": 0.11601825000002464
                },
                {
                    "name": "D#6",
                    "midi": 87,
                    "time": 423.1185577500187,
                    "velocity": 0.5984251968503937,
                    "duration": 0.11601825000002464
                },
                {
                    "name": "F5",
                    "midi": 77,
                    "time": 423.2345760000187,
                    "velocity": 0.5433070866141733,
                    "duration": 0.34805475000001707
                },
                {
                    "name": "F6",
                    "midi": 89,
                    "time": 423.2345760000187,
                    "velocity": 0.6299212598425197,
                    "duration": 0.34805475000001707
                },
                {
                    "name": "F5",
                    "midi": 77,
                    "time": 423.5826307500187,
                    "velocity": 0.5039370078740157,
                    "duration": 0.11601825000002464
                },
                {
                    "name": "F6",
                    "midi": 89,
                    "time": 423.5826307500187,
                    "velocity": 0.5984251968503937,
                    "duration": 0.11601825000002464
                },
                {
                    "name": "F5",
                    "midi": 77,
                    "time": 423.69864900001875,
                    "velocity": 0.5433070866141733,
                    "duration": 0.34805475000001707
                },
                {
                    "name": "F6",
                    "midi": 89,
                    "time": 423.69864900001875,
                    "velocity": 0.6299212598425197,
                    "duration": 0.34805475000001707
                },
                {
                    "name": "F5",
                    "midi": 77,
                    "time": 424.04670375001876,
                    "velocity": 0.49606299212598426,
                    "duration": 0.11601825000002464
                },
                {
                    "name": "F6",
                    "midi": 89,
                    "time": 424.04670375001876,
                    "velocity": 0.5905511811023622,
                    "duration": 0.11601825000002464
                },
                {
                    "name": "F5",
                    "midi": 77,
                    "time": 424.1627220000188,
                    "velocity": 0.5196850393700787,
                    "duration": 0.34805475000001707
                },
                {
                    "name": "F6",
                    "midi": 89,
                    "time": 424.1627220000188,
                    "velocity": 0.5984251968503937,
                    "duration": 0.34805475000001707
                },
                {
                    "name": "F5",
                    "midi": 77,
                    "time": 424.5107767500188,
                    "velocity": 0.44881889763779526,
                    "duration": 0.11601825000002464
                },
                {
                    "name": "F6",
                    "midi": 89,
                    "time": 424.5107767500188,
                    "velocity": 0.5354330708661418,
                    "duration": 0.11601825000002464
                },
                {
                    "name": "F5",
                    "midi": 77,
                    "time": 424.62679500001883,
                    "velocity": 0.47244094488188976,
                    "duration": 0.34805475000001707
                },
                {
                    "name": "F6",
                    "midi": 89,
                    "time": 424.62679500001883,
                    "velocity": 0.5590551181102362,
                    "duration": 0.34805475000001707
                },
                {
                    "name": "F5",
                    "midi": 77,
                    "time": 424.97484975001885,
                    "velocity": 0.4015748031496063,
                    "duration": 0.11601825000002464
                },
                {
                    "name": "F6",
                    "midi": 89,
                    "time": 424.97484975001885,
                    "velocity": 0.48031496062992124,
                    "duration": 0.11601825000002464
                },
                {
                    "name": "A#5",
                    "midi": 82,
                    "time": 425.0908680000189,
                    "velocity": 0.4566929133858268,
                    "duration": 0.46407299999998486
                },
                {
                    "name": "A#5",
                    "midi": 82,
                    "time": 425.9029957500189,
                    "velocity": 0.33858267716535434,
                    "duration": 0.11601825000002464
                },
                {
                    "name": "D6",
                    "midi": 86,
                    "time": 426.0190140000189,
                    "velocity": 0.3779527559055118,
                    "duration": 0.34805475000001707
                },
                {
                    "name": "D6",
                    "midi": 86,
                    "time": 426.3670687500189,
                    "velocity": 0.33858267716535434,
                    "duration": 0.11601825000002464
                },
                {
                    "name": "A#5",
                    "midi": 82,
                    "time": 426.48308700001894,
                    "velocity": 0.3779527559055118,
                    "duration": 0.34805475000001707
                },
                {
                    "name": "A#5",
                    "midi": 82,
                    "time": 426.83114175001896,
                    "velocity": 0.33070866141732286,
                    "duration": 0.11601825000002464
                },
                {
                    "name": "F5",
                    "midi": 77,
                    "time": 426.947160000019,
                    "velocity": 0.3779527559055118,
                    "duration": 0.34805475000001707
                },
                {
                    "name": "F5",
                    "midi": 77,
                    "time": 427.295214750019,
                    "velocity": 0.33858267716535434,
                    "duration": 0.11601825000002464
                },
                {
                    "name": "D5",
                    "midi": 74,
                    "time": 427.411233000019,
                    "velocity": 0.3779527559055118,
                    "duration": 0.34805475000001707
                },
                {
                    "name": "D5",
                    "midi": 74,
                    "time": 427.75928775001904,
                    "velocity": 0.33858267716535434,
                    "duration": 0.11601825000002464
                },
                {
                    "name": "D#5",
                    "midi": 75,
                    "time": 427.87530600001907,
                    "velocity": 0.3779527559055118,
                    "duration": 0.34805475000001707
                },
                {
                    "name": "D#5",
                    "midi": 75,
                    "time": 428.2233607500191,
                    "velocity": 0.33070866141732286,
                    "duration": 0.11601825000002464
                },
                {
                    "name": "C5",
                    "midi": 72,
                    "time": 428.3393790000191,
                    "velocity": 0.3779527559055118,
                    "duration": 0.34805475000001707
                },
                {
                    "name": "C5",
                    "midi": 72,
                    "time": 428.6874337500191,
                    "velocity": 0.33070866141732286,
                    "duration": 0.11601825000002464
                },
                {
                    "name": "F5",
                    "midi": 77,
                    "time": 428.80345200001915,
                    "velocity": 0.3779527559055118,
                    "duration": 0.34805475000001707
                },
                {
                    "name": "A#5",
                    "midi": 82,
                    "time": 429.15150675001917,
                    "velocity": 0.28346456692913385,
                    "duration": 0.11601825000002464
                },
                {
                    "name": "F5",
                    "midi": 77,
                    "time": 429.2675250000192,
                    "velocity": 0.3543307086614173,
                    "duration": 0.23203649999999243
                },
                {
                    "name": "A#5",
                    "midi": 82,
                    "time": 429.6155797500192,
                    "velocity": 0.33858267716535434,
                    "duration": 0.11601825000002464
                },
                {
                    "name": "D6",
                    "midi": 86,
                    "time": 429.73159800001923,
                    "velocity": 0.3779527559055118,
                    "duration": 0.34805475000001707
                },
                {
                    "name": "D6",
                    "midi": 86,
                    "time": 430.07965275001925,
                    "velocity": 0.3543307086614173,
                    "duration": 0.11601825000002464
                },
                {
                    "name": "F6",
                    "midi": 89,
                    "time": 430.1956710000193,
                    "velocity": 0.4094488188976378,
                    "duration": 0.34805475000001707
                },
                {
                    "name": "F6",
                    "midi": 89,
                    "time": 430.5437257500193,
                    "velocity": 0.3779527559055118,
                    "duration": 0.11601825000002464
                },
                {
                    "name": "A#6",
                    "midi": 94,
                    "time": 430.6597440000193,
                    "velocity": 0.4094488188976378,
                    "duration": 0.34805475000001707
                },
                {
                    "name": "A#6",
                    "midi": 94,
                    "time": 431.00779875001933,
                    "velocity": 0.3937007874015748,
                    "duration": 0.11601825000002464
                },
                {
                    "name": "C7",
                    "midi": 96,
                    "time": 431.12381700001936,
                    "velocity": 0.4409448818897638,
                    "duration": 0.34805475000001707
                },
                {
                    "name": "C7",
                    "midi": 96,
                    "time": 431.4718717500194,
                    "velocity": 0.3858267716535433,
                    "duration": 0.11601825000002464
                },
                {
                    "name": "D7",
                    "midi": 98,
                    "time": 431.5878900000194,
                    "velocity": 0.4330708661417323,
                    "duration": 0.34805475000001707
                },
                {
                    "name": "D7",
                    "midi": 98,
                    "time": 431.9359447500194,
                    "velocity": 0.3779527559055118,
                    "duration": 0.11601825000002464
                },
                {
                    "name": "F7",
                    "midi": 101,
                    "time": 432.05196300001944,
                    "velocity": 0.4251968503937008,
                    "duration": 0.34805475000001707
                },
                {
                    "name": "F7",
                    "midi": 101,
                    "time": 432.40001775001946,
                    "velocity": 0.3700787401574803,
                    "duration": 0.11601825000002464
                },
                {
                    "name": "D7",
                    "midi": 98,
                    "time": 432.5160360000195,
                    "velocity": 0.41732283464566927,
                    "duration": 0.23203649999999243
                },
                {
                    "name": "A#5",
                    "midi": 82,
                    "time": 433.3281637500195,
                    "velocity": 0.33858267716535434,
                    "duration": 0.11601825000002464
                },
                {
                    "name": "D6",
                    "midi": 86,
                    "time": 433.4441820000195,
                    "velocity": 0.3779527559055118,
                    "duration": 0.34805475000001707
                },
                {
                    "name": "D6",
                    "midi": 86,
                    "time": 433.7922367500195,
                    "velocity": 0.33858267716535434,
                    "duration": 0.11601825000002464
                },
                {
                    "name": "A#5",
                    "midi": 82,
                    "time": 433.90825500001955,
                    "velocity": 0.3779527559055118,
                    "duration": 0.34805475000001707
                },
                {
                    "name": "A#5",
                    "midi": 82,
                    "time": 434.25630975001957,
                    "velocity": 0.33070866141732286,
                    "duration": 0.11601825000002464
                },
                {
                    "name": "F5",
                    "midi": 77,
                    "time": 434.3723280000196,
                    "velocity": 0.3779527559055118,
                    "duration": 0.34805475000001707
                },
                {
                    "name": "F5",
                    "midi": 77,
                    "time": 434.7203827500196,
                    "velocity": 0.33858267716535434,
                    "duration": 0.11601825000002464
                },
                {
                    "name": "D5",
                    "midi": 74,
                    "time": 434.83640100001963,
                    "velocity": 0.3779527559055118,
                    "duration": 0.34805475000001707
                },
                {
                    "name": "D5",
                    "midi": 74,
                    "time": 435.18445575001965,
                    "velocity": 0.33858267716535434,
                    "duration": 0.11601825000002464
                },
                {
                    "name": "F5",
                    "midi": 77,
                    "time": 435.3004740000197,
                    "velocity": 0.3779527559055118,
                    "duration": 0.34805475000001707
                },
                {
                    "name": "F5",
                    "midi": 77,
                    "time": 435.6485287500197,
                    "velocity": 0.33070866141732286,
                    "duration": 0.11601825000002464
                },
                {
                    "name": "D#5",
                    "midi": 75,
                    "time": 435.7645470000197,
                    "velocity": 0.3779527559055118,
                    "duration": 0.34805475000001707
                },
                {
                    "name": "D#5",
                    "midi": 75,
                    "time": 436.11260175001973,
                    "velocity": 0.33070866141732286,
                    "duration": 0.11601825000002464
                },
                {
                    "name": "D5",
                    "midi": 74,
                    "time": 436.22862000001976,
                    "velocity": 0.3779527559055118,
                    "duration": 0.34805475000001707
                },
                {
                    "name": "A#5",
                    "midi": 82,
                    "time": 436.5766747500198,
                    "velocity": 0.28346456692913385,
                    "duration": 0.11601825000002464
                },
                {
                    "name": "F5",
                    "midi": 77,
                    "time": 436.6926930000198,
                    "velocity": 0.3543307086614173,
                    "duration": 0.23203649999999243
                },
                {
                    "name": "A#5",
                    "midi": 82,
                    "time": 437.0407477500198,
                    "velocity": 0.33858267716535434,
                    "duration": 0.11601825000002464
                },
                {
                    "name": "D6",
                    "midi": 86,
                    "time": 437.15676600001984,
                    "velocity": 0.3779527559055118,
                    "duration": 0.34805475000001707
                },
                {
                    "name": "D6",
                    "midi": 86,
                    "time": 437.50482075001986,
                    "velocity": 0.3543307086614173,
                    "duration": 0.11601825000002464
                },
                {
                    "name": "F6",
                    "midi": 89,
                    "time": 437.6208390000199,
                    "velocity": 0.4094488188976378,
                    "duration": 0.34805475000001707
                },
                {
                    "name": "F6",
                    "midi": 89,
                    "time": 437.9688937500199,
                    "velocity": 0.3779527559055118,
                    "duration": 0.11601825000002464
                },
                {
                    "name": "A#6",
                    "midi": 94,
                    "time": 438.0849120000199,
                    "velocity": 0.4094488188976378,
                    "duration": 0.34805475000001707
                },
                {
                    "name": "A#6",
                    "midi": 94,
                    "time": 438.43296675001994,
                    "velocity": 0.3937007874015748,
                    "duration": 0.11601825000002464
                },
                {
                    "name": "C7",
                    "midi": 96,
                    "time": 438.54898500001997,
                    "velocity": 0.4409448818897638,
                    "duration": 0.34805475000001707
                },
                {
                    "name": "C7",
                    "midi": 96,
                    "time": 438.89703975002,
                    "velocity": 0.3858267716535433,
                    "duration": 0.11601825000002464
                },
                {
                    "name": "D7",
                    "midi": 98,
                    "time": 439.01305800002,
                    "velocity": 0.4330708661417323,
                    "duration": 0.34805475000001707
                },
                {
                    "name": "D7",
                    "midi": 98,
                    "time": 439.36111275002,
                    "velocity": 0.3779527559055118,
                    "duration": 0.11601825000002464
                },
                {
                    "name": "F7",
                    "midi": 101,
                    "time": 439.47713100002005,
                    "velocity": 0.4251968503937008,
                    "duration": 0.34805475000001707
                },
                {
                    "name": "F7",
                    "midi": 101,
                    "time": 439.82518575002007,
                    "velocity": 0.3700787401574803,
                    "duration": 0.11601825000002464
                },
                {
                    "name": "A#6",
                    "midi": 94,
                    "time": 439.9412040000201,
                    "velocity": 0.41732283464566927,
                    "duration": 0.23203649999999243
                },
                {
                    "name": "A6",
                    "midi": 93,
                    "time": 440.7533317500201,
                    "velocity": 0.33858267716535434,
                    "duration": 0.11601825000002464
                },
                {
                    "name": "A#6",
                    "midi": 94,
                    "time": 440.8693500000201,
                    "velocity": 0.3779527559055118,
                    "duration": 0.34805475000001707
                },
                {
                    "name": "A#6",
                    "midi": 94,
                    "time": 441.21740475002014,
                    "velocity": 0.3543307086614173,
                    "duration": 0.1102173374999893
                },
                {
                    "name": "G#6",
                    "midi": 92,
                    "time": 441.3334230000201,
                    "velocity": 0.4094488188976378,
                    "duration": 0.34805475000001707
                },
                {
                    "name": "G#6",
                    "midi": 92,
                    "time": 441.6814777500201,
                    "velocity": 0.3779527559055118,
                    "duration": 0.1102173374999893
                },
                {
                    "name": "F6",
                    "midi": 89,
                    "time": 441.7974960000201,
                    "velocity": 0.4094488188976378,
                    "duration": 0.34805475000001707
                },
                {
                    "name": "F6",
                    "midi": 89,
                    "time": 442.1455507500201,
                    "velocity": 0.3937007874015748,
                    "duration": 0.1102173374999893
                },
                {
                    "name": "D6",
                    "midi": 86,
                    "time": 442.2615690000201,
                    "velocity": 0.4409448818897638,
                    "duration": 0.34805475000001707
                },
                {
                    "name": "D6",
                    "midi": 86,
                    "time": 442.6096237500201,
                    "velocity": 0.3858267716535433,
                    "duration": 0.11601825000002464
                },
                {
                    "name": "F6",
                    "midi": 89,
                    "time": 442.7256420000201,
                    "velocity": 0.4330708661417323,
                    "duration": 0.34805475000001707
                },
                {
                    "name": "F6",
                    "midi": 89,
                    "time": 443.07369675002013,
                    "velocity": 0.3779527559055118,
                    "duration": 0.11601825000002464
                },
                {
                    "name": "F#6",
                    "midi": 90,
                    "time": 443.18971500002016,
                    "velocity": 0.4251968503937008,
                    "duration": 0.34805475000001707
                },
                {
                    "name": "F#6",
                    "midi": 90,
                    "time": 443.5377697500202,
                    "velocity": 0.3700787401574803,
                    "duration": 0.11601825000002464
                },
                {
                    "name": "G6",
                    "midi": 91,
                    "time": 443.6537880000202,
                    "velocity": 0.4330708661417323,
                    "duration": 0.34805475000001707
                },
                {
                    "name": "G6",
                    "midi": 91,
                    "time": 444.0018427500202,
                    "velocity": 0.3700787401574803,
                    "duration": 0.1102173374999893
                },
                {
                    "name": "G6",
                    "midi": 91,
                    "time": 444.1178610000202,
                    "velocity": 0.4094488188976378,
                    "duration": 0.34805475000001707
                },
                {
                    "name": "G6",
                    "midi": 91,
                    "time": 444.4659157500202,
                    "velocity": 0.3464566929133858,
                    "duration": 0.1102173374999893
                },
                {
                    "name": "G6",
                    "midi": 91,
                    "time": 444.58193400002017,
                    "velocity": 0.4015748031496063,
                    "duration": 0.34805475000001707
                },
                {
                    "name": "G6",
                    "midi": 91,
                    "time": 444.9299887500202,
                    "velocity": 0.33858267716535434,
                    "duration": 0.1102173374999893
                },
                {
                    "name": "G6",
                    "midi": 91,
                    "time": 445.04600700002015,
                    "velocity": 0.3779527559055118,
                    "duration": 0.34805475000001707
                },
                {
                    "name": "G6",
                    "midi": 91,
                    "time": 445.39406175002017,
                    "velocity": 0.31496062992125984,
                    "duration": 0.1102173374999893
                },
                {
                    "name": "G6",
                    "midi": 91,
                    "time": 445.51008000002014,
                    "velocity": 0.3700787401574803,
                    "duration": 0.23203649999999243
                },
                {
                    "name": "G5",
                    "midi": 79,
                    "time": 446.32220775002014,
                    "velocity": 0.3779527559055118,
                    "duration": 0.08701368750001848
                },
                {
                    "name": "G#5",
                    "midi": 80,
                    "time": 446.43822600002017,
                    "velocity": 0.41732283464566927,
                    "duration": 0.23203649999999243
                },
                {
                    "name": "G5",
                    "midi": 79,
                    "time": 446.67026250002016,
                    "velocity": 0.3858267716535433,
                    "duration": 0.11601825000002464
                },
                {
                    "name": "G5",
                    "midi": 79,
                    "time": 446.9022990000202,
                    "velocity": 0.4015748031496063,
                    "duration": 0.11601825000002464
                },
                {
                    "name": "G5",
                    "midi": 79,
                    "time": 447.13433550002026,
                    "velocity": 0.3858267716535433,
                    "duration": 0.11601825000002464
                },
                {
                    "name": "G5",
                    "midi": 79,
                    "time": 447.3663720000203,
                    "velocity": 0.3700787401574803,
                    "duration": 0.23203649999999243
                },
                {
                    "name": "A#6",
                    "midi": 94,
                    "time": 448.1784997500203,
                    "velocity": 0.3779527559055118,
                    "duration": 0.08701368750001848
                },
                {
                    "name": "G#6",
                    "midi": 92,
                    "time": 448.29451800002033,
                    "velocity": 0.41732283464566927,
                    "duration": 0.23203649999999243
                },
                {
                    "name": "G6",
                    "midi": 91,
                    "time": 448.5265545000203,
                    "velocity": 0.3858267716535433,
                    "duration": 0.11601825000002464
                },
                {
                    "name": "G6",
                    "midi": 91,
                    "time": 448.7585910000204,
                    "velocity": 0.4015748031496063,
                    "duration": 0.11601825000002464
                },
                {
                    "name": "G6",
                    "midi": 91,
                    "time": 448.9906275000204,
                    "velocity": 0.3858267716535433,
                    "duration": 0.11601825000002464
                },
                {
                    "name": "G6",
                    "midi": 91,
                    "time": 449.2226640000205,
                    "velocity": 0.3700787401574803,
                    "duration": 0.23203649999999243
                },
                {
                    "name": "G4",
                    "midi": 67,
                    "time": 450.0347917500205,
                    "velocity": 0.3779527559055118,
                    "duration": 0.08701368750001848
                },
                {
                    "name": "G#4",
                    "midi": 68,
                    "time": 450.1508100000205,
                    "velocity": 0.41732283464566927,
                    "duration": 0.23203649999999243
                },
                {
                    "name": "G4",
                    "midi": 67,
                    "time": 450.3828465000205,
                    "velocity": 0.3858267716535433,
                    "duration": 0.11601825000002464
                },
                {
                    "name": "G4",
                    "midi": 67,
                    "time": 450.61488300002054,
                    "velocity": 0.4015748031496063,
                    "duration": 0.11601825000002464
                },
                {
                    "name": "G4",
                    "midi": 67,
                    "time": 450.8469195000206,
                    "velocity": 0.3858267716535433,
                    "duration": 0.11601825000002464
                },
                {
                    "name": "G4",
                    "midi": 67,
                    "time": 451.07895600002064,
                    "velocity": 0.3700787401574803,
                    "duration": 0.23203649999999243
                },
                {
                    "name": "A#5",
                    "midi": 82,
                    "time": 451.89108375002064,
                    "velocity": 0.3779527559055118,
                    "duration": 0.08701368750001848
                },
                {
                    "name": "G#5",
                    "midi": 80,
                    "time": 452.00710200002067,
                    "velocity": 0.41732283464566927,
                    "duration": 0.23203649999999243
                },
                {
                    "name": "G5",
                    "midi": 79,
                    "time": 452.23913850002066,
                    "velocity": 0.3858267716535433,
                    "duration": 0.11601825000002464
                },
                {
                    "name": "G5",
                    "midi": 79,
                    "time": 452.4711750000207,
                    "velocity": 0.4015748031496063,
                    "duration": 0.11601825000002464
                },
                {
                    "name": "G5",
                    "midi": 79,
                    "time": 452.70321150002076,
                    "velocity": 0.3858267716535433,
                    "duration": 0.11601825000002464
                },
                {
                    "name": "G#5",
                    "midi": 80,
                    "time": 452.9352480000208,
                    "velocity": 0.41732283464566927,
                    "duration": 0.23203649999999243
                },
                {
                    "name": "G5",
                    "midi": 79,
                    "time": 453.1672845000208,
                    "velocity": 0.3858267716535433,
                    "duration": 0.11601825000002464
                },
                {
                    "name": "G5",
                    "midi": 79,
                    "time": 453.39932100002085,
                    "velocity": 0.4015748031496063,
                    "duration": 0.11601825000002464
                },
                {
                    "name": "G5",
                    "midi": 79,
                    "time": 453.6313575000209,
                    "velocity": 0.3858267716535433,
                    "duration": 0.11601825000002464
                },
                {
                    "name": "G5",
                    "midi": 79,
                    "time": 453.86339400002095,
                    "velocity": 0.41732283464566927,
                    "duration": 0.23203649999999243
                },
                {
                    "name": "D5",
                    "midi": 74,
                    "time": 455.48764950002095,
                    "velocity": 0.3700787401574803,
                    "duration": 0.23203649999999243
                },
                {
                    "name": "C5",
                    "midi": 72,
                    "time": 455.71968600002094,
                    "velocity": 0.4409448818897638,
                    "duration": 0.23203649999999243
                },
                {
                    "name": "B4",
                    "midi": 71,
                    "time": 455.95172250002094,
                    "velocity": 0.25984251968503935,
                    "duration": 0.11601825000002464
                },
                {
                    "name": "B4",
                    "midi": 71,
                    "time": 456.183759000021,
                    "velocity": 0.29133858267716534,
                    "duration": 0.11601825000002464
                },
                {
                    "name": "B4",
                    "midi": 71,
                    "time": 456.41579550002103,
                    "velocity": 0.25984251968503935,
                    "duration": 0.11601825000002464
                },
                {
                    "name": "B4",
                    "midi": 71,
                    "time": 456.6478320000211,
                    "velocity": 0.3858267716535433,
                    "duration": 0.23203649999999243
                },
                {
                    "name": "C5",
                    "midi": 72,
                    "time": 456.8798685000211,
                    "velocity": 0.28346456692913385,
                    "duration": 0.11601825000002464
                },
                {
                    "name": "D#5",
                    "midi": 75,
                    "time": 457.3439415000211,
                    "velocity": 0.36220472440944884,
                    "duration": 0.23203649999999243
                },
                {
                    "name": "C5",
                    "midi": 72,
                    "time": 457.5759780000211,
                    "velocity": 0.4409448818897638,
                    "duration": 0.23203649999999243
                },
                {
                    "name": "B4",
                    "midi": 71,
                    "time": 457.8080145000211,
                    "velocity": 0.25984251968503935,
                    "duration": 0.11601825000002464
                },
                {
                    "name": "B4",
                    "midi": 71,
                    "time": 458.04005100002115,
                    "velocity": 0.2992125984251969,
                    "duration": 0.11601825000002464
                },
                {
                    "name": "B4",
                    "midi": 71,
                    "time": 458.2720875000212,
                    "velocity": 0.25984251968503935,
                    "duration": 0.11601825000002464
                },
                {
                    "name": "B4",
                    "midi": 71,
                    "time": 458.50412400002125,
                    "velocity": 0.4015748031496063,
                    "duration": 0.23203649999999243
                },
                {
                    "name": "C5",
                    "midi": 72,
                    "time": 458.73616050002124,
                    "velocity": 0.33070866141732286,
                    "duration": 0.11601825000002464
                },
                {
                    "name": "D#5",
                    "midi": 75,
                    "time": 461.0565255000213,
                    "velocity": 0.3700787401574803,
                    "duration": 0.23203649999999243
                },
                {
                    "name": "C5",
                    "midi": 72,
                    "time": 461.2885620000213,
                    "velocity": 0.4409448818897638,
                    "duration": 0.23203649999999243
                },
                {
                    "name": "B4",
                    "midi": 71,
                    "time": 461.52059850002126,
                    "velocity": 0.25196850393700787,
                    "duration": 0.11601825000002464
                },
                {
                    "name": "B4",
                    "midi": 71,
                    "time": 461.7526350000213,
                    "velocity": 0.29133858267716534,
                    "duration": 0.11601825000002464
                },
                {
                    "name": "B4",
                    "midi": 71,
                    "time": 461.98467150002136,
                    "velocity": 0.25984251968503935,
                    "duration": 0.11601825000002464
                },
                {
                    "name": "B4",
                    "midi": 71,
                    "time": 462.2167080000214,
                    "velocity": 0.3700787401574803,
                    "duration": 0.23203649999999243
                },
                {
                    "name": "C5",
                    "midi": 72,
                    "time": 462.4487445000214,
                    "velocity": 0.2677165354330709,
                    "duration": 0.11601825000002464
                },
                {
                    "name": "D#5",
                    "midi": 75,
                    "time": 462.91281750002145,
                    "velocity": 0.3464566929133858,
                    "duration": 0.23203649999999243
                },
                {
                    "name": "C5",
                    "midi": 72,
                    "time": 463.14485400002144,
                    "velocity": 0.41732283464566927,
                    "duration": 0.23203649999999243
                },
                {
                    "name": "B4",
                    "midi": 71,
                    "time": 463.37689050002143,
                    "velocity": 0.2440944881889764,
                    "duration": 0.11601825000002464
                },
                {
                    "name": "B4",
                    "midi": 71,
                    "time": 463.6089270000215,
                    "velocity": 0.28346456692913385,
                    "duration": 0.11601825000002464
                },
                {
                    "name": "B4",
                    "midi": 71,
                    "time": 463.84096350002153,
                    "velocity": 0.23622047244094488,
                    "duration": 0.11601825000002464
                },
                {
                    "name": "B4",
                    "midi": 71,
                    "time": 464.0730000000216,
                    "velocity": 0.3700787401574803,
                    "duration": 0.23203649999999243
                },
                {
                    "name": "C5",
                    "midi": 72,
                    "time": 464.3050365000216,
                    "velocity": 0.29133858267716534,
                    "duration": 0.11601825000002464
                },
                {
                    "name": "D#5",
                    "midi": 75,
                    "time": 466.6254015000216,
                    "velocity": 0.3464566929133858,
                    "duration": 0.23203649999999243
                },
                {
                    "name": "C5",
                    "midi": 72,
                    "time": 466.8574380000216,
                    "velocity": 0.41732283464566927,
                    "duration": 0.23203649999999243
                },
                {
                    "name": "B4",
                    "midi": 71,
                    "time": 467.0894745000216,
                    "velocity": 0.2755905511811024,
                    "duration": 0.11601825000002464
                },
                {
                    "name": "B4",
                    "midi": 71,
                    "time": 467.32151100002164,
                    "velocity": 0.31496062992125984,
                    "duration": 0.11601825000002464
                },
                {
                    "name": "B4",
                    "midi": 71,
                    "time": 467.5535475000217,
                    "velocity": 0.2755905511811024,
                    "duration": 0.11601825000002464
                },
                {
                    "name": "B4",
                    "midi": 71,
                    "time": 467.78558400002174,
                    "velocity": 0.3700787401574803,
                    "duration": 0.23203649999999243
                },
                {
                    "name": "C5",
                    "midi": 72,
                    "time": 468.01762050002174,
                    "velocity": 0.2677165354330709,
                    "duration": 0.11601825000002464
                },
                {
                    "name": "D#5",
                    "midi": 75,
                    "time": 468.4816935000218,
                    "velocity": 0.33858267716535434,
                    "duration": 0.23203649999999243
                },
                {
                    "name": "C5",
                    "midi": 72,
                    "time": 468.71373000002177,
                    "velocity": 0.41732283464566927,
                    "duration": 0.23203649999999243
                },
                {
                    "name": "B4",
                    "midi": 71,
                    "time": 468.94576650002176,
                    "velocity": 0.2755905511811024,
                    "duration": 0.11601825000002464
                },
                {
                    "name": "B4",
                    "midi": 71,
                    "time": 469.1778030000218,
                    "velocity": 0.31496062992125984,
                    "duration": 0.11601825000002464
                },
                {
                    "name": "B4",
                    "midi": 71,
                    "time": 469.40983950002186,
                    "velocity": 0.2755905511811024,
                    "duration": 0.11601825000002464
                },
                {
                    "name": "B4",
                    "midi": 71,
                    "time": 469.6418760000219,
                    "velocity": 0.3779527559055118,
                    "duration": 0.23203649999999243
                },
                {
                    "name": "C5",
                    "midi": 72,
                    "time": 469.8739125000219,
                    "velocity": 0.30708661417322836,
                    "duration": 0.11601825000002464
                },
                {
                    "name": "C5",
                    "midi": 72,
                    "time": 470.10594900002195,
                    "velocity": 0.4251968503937008,
                    "duration": 0.23203649999999243
                },
                {
                    "name": "G5",
                    "midi": 79,
                    "time": 470.33798550002194,
                    "velocity": 0.3779527559055118,
                    "duration": 0.23203649999999243
                },
                {
                    "name": "G5",
                    "midi": 79,
                    "time": 470.57002200002194,
                    "velocity": 0.4645669291338583,
                    "duration": 0.23203649999999243
                },
                {
                    "name": "F5",
                    "midi": 77,
                    "time": 470.80205850002193,
                    "velocity": 0.4015748031496063,
                    "duration": 0.23203649999999243
                },
                {
                    "name": "F5",
                    "midi": 77,
                    "time": 471.0340950000219,
                    "velocity": 0.4330708661417323,
                    "duration": 0.23203649999999243
                },
                {
                    "name": "D5",
                    "midi": 74,
                    "time": 471.2661315000219,
                    "velocity": 0.4094488188976378,
                    "duration": 0.23203649999999243
                },
                {
                    "name": "B4",
                    "midi": 71,
                    "time": 471.4981680000219,
                    "velocity": 0.44881889763779526,
                    "duration": 0.23203649999999243
                },
                {
                    "name": "C5",
                    "midi": 72,
                    "time": 471.7302045000219,
                    "velocity": 0.3700787401574803,
                    "duration": 0.11601825000002464
                },
                {
                    "name": "C5",
                    "midi": 72,
                    "time": 471.96224100002195,
                    "velocity": 0.44881889763779526,
                    "duration": 0.23203649999999243
                },
                {
                    "name": "G5",
                    "midi": 79,
                    "time": 472.19427750002194,
                    "velocity": 0.3937007874015748,
                    "duration": 0.23203649999999243
                },
                {
                    "name": "G5",
                    "midi": 79,
                    "time": 472.42631400002193,
                    "velocity": 0.5039370078740157,
                    "duration": 0.23203649999999243
                },
                {
                    "name": "F5",
                    "midi": 77,
                    "time": 472.6583505000219,
                    "velocity": 0.4330708661417323,
                    "duration": 0.23203649999999243
                },
                {
                    "name": "F5",
                    "midi": 77,
                    "time": 472.8903870000219,
                    "velocity": 0.44881889763779526,
                    "duration": 0.23203649999999243
                },
                {
                    "name": "D5",
                    "midi": 74,
                    "time": 473.1224235000219,
                    "velocity": 0.4094488188976378,
                    "duration": 0.23203649999999243
                },
                {
                    "name": "B4",
                    "midi": 71,
                    "time": 473.3544600000219,
                    "velocity": 0.4409448818897638,
                    "duration": 0.23203649999999243
                },
                {
                    "name": "C5",
                    "midi": 72,
                    "time": 473.5864965000219,
                    "velocity": 0.3464566929133858,
                    "duration": 0.23203649999999243
                },
                {
                    "name": "D#5",
                    "midi": 75,
                    "time": 473.8185330000219,
                    "velocity": 0.3779527559055118,
                    "duration": 0.23203649999999243
                },
                {
                    "name": "A4",
                    "midi": 69,
                    "time": 474.0505695000219,
                    "velocity": 0.31496062992125984,
                    "duration": 0.23203649999999243
                },
                {
                    "name": "D6",
                    "midi": 86,
                    "time": 474.97871550002185,
                    "velocity": 0.6771653543307087,
                    "duration": 0.23203649999999243
                },
                {
                    "name": "D5",
                    "midi": 74,
                    "time": 474.97871550002185,
                    "velocity": 0.5669291338582677,
                    "duration": 0.23203649999999243
                },
                {
                    "name": "C6",
                    "midi": 84,
                    "time": 475.21075200002184,
                    "velocity": 0.7322834645669292,
                    "duration": 0.23203649999999243
                },
                {
                    "name": "C5",
                    "midi": 72,
                    "time": 475.21075200002184,
                    "velocity": 0.6062992125984252,
                    "duration": 0.23203649999999243
                },
                {
                    "name": "A#5",
                    "midi": 82,
                    "time": 475.44278850002183,
                    "velocity": 0.6771653543307087,
                    "duration": 0.11601825000002464
                },
                {
                    "name": "A#4",
                    "midi": 70,
                    "time": 475.44278850002183,
                    "velocity": 0.5669291338582677,
                    "duration": 0.11601825000002464
                },
                {
                    "name": "A#5",
                    "midi": 82,
                    "time": 475.6748250000219,
                    "velocity": 0.6771653543307087,
                    "duration": 0.11601825000002464
                },
                {
                    "name": "A#4",
                    "midi": 70,
                    "time": 475.6748250000219,
                    "velocity": 0.5669291338582677,
                    "duration": 0.11601825000002464
                },
                {
                    "name": "A#4",
                    "midi": 70,
                    "time": 475.90686150002193,
                    "velocity": 0.5669291338582677,
                    "duration": 0.11601825000002464
                },
                {
                    "name": "A#5",
                    "midi": 82,
                    "time": 475.90686150002193,
                    "velocity": 0.6771653543307087,
                    "duration": 0.11601825000002464
                },
                {
                    "name": "G4",
                    "midi": 67,
                    "time": 476.138898000022,
                    "velocity": 0.6062992125984252,
                    "duration": 0.23203649999999243
                },
                {
                    "name": "G5",
                    "midi": 79,
                    "time": 476.138898000022,
                    "velocity": 0.7322834645669292,
                    "duration": 0.23203649999999243
                },
                {
                    "name": "F4",
                    "midi": 65,
                    "time": 476.370934500022,
                    "velocity": 0.5748031496062992,
                    "duration": 0.11601825000002464
                },
                {
                    "name": "F5",
                    "midi": 77,
                    "time": 476.370934500022,
                    "velocity": 0.6929133858267716,
                    "duration": 0.11601825000002464
                },
                {
                    "name": "F4",
                    "midi": 65,
                    "time": 476.602971000022,
                    "velocity": 0.5748031496062992,
                    "duration": 0.11601825000002464
                },
                {
                    "name": "F5",
                    "midi": 77,
                    "time": 476.602971000022,
                    "velocity": 0.6929133858267716,
                    "duration": 0.11601825000002464
                },
                {
                    "name": "F4",
                    "midi": 65,
                    "time": 476.8350075000221,
                    "velocity": 0.5748031496062992,
                    "duration": 0.11601825000002464
                },
                {
                    "name": "F5",
                    "midi": 77,
                    "time": 476.8350075000221,
                    "velocity": 0.6929133858267716,
                    "duration": 0.11601825000002464
                },
                {
                    "name": "F4",
                    "midi": 65,
                    "time": 477.0670440000221,
                    "velocity": 0.6062992125984252,
                    "duration": 0.23203649999999243
                },
                {
                    "name": "D#5",
                    "midi": 75,
                    "time": 477.0670440000221,
                    "velocity": 0.7322834645669292,
                    "duration": 0.23203649999999243
                },
                {
                    "name": "D4",
                    "midi": 62,
                    "time": 477.2990805000221,
                    "velocity": 0.5748031496062992,
                    "duration": 0.11601825000002464
                },
                {
                    "name": "D5",
                    "midi": 74,
                    "time": 477.2990805000221,
                    "velocity": 0.6929133858267716,
                    "duration": 0.11601825000002464
                },
                {
                    "name": "D4",
                    "midi": 62,
                    "time": 477.53111700002216,
                    "velocity": 0.5748031496062992,
                    "duration": 0.11601825000002464
                },
                {
                    "name": "D5",
                    "midi": 74,
                    "time": 477.53111700002216,
                    "velocity": 0.6929133858267716,
                    "duration": 0.11601825000002464
                },
                {
                    "name": "D4",
                    "midi": 62,
                    "time": 477.7631535000222,
                    "velocity": 0.5748031496062992,
                    "duration": 0.11601825000002464
                },
                {
                    "name": "D5",
                    "midi": 74,
                    "time": 477.7631535000222,
                    "velocity": 0.6929133858267716,
                    "duration": 0.11601825000002464
                },
                {
                    "name": "C4",
                    "midi": 60,
                    "time": 477.99519000002226,
                    "velocity": 0.6062992125984252,
                    "duration": 0.23203649999999243
                },
                {
                    "name": "C5",
                    "midi": 72,
                    "time": 477.99519000002226,
                    "velocity": 0.7244094488188977,
                    "duration": 0.23203649999999243
                },
                {
                    "name": "A#3",
                    "midi": 58,
                    "time": 478.22722650002225,
                    "velocity": 0.5748031496062992,
                    "duration": 0.11601825000002464
                },
                {
                    "name": "A#4",
                    "midi": 70,
                    "time": 478.22722650002225,
                    "velocity": 0.6929133858267716,
                    "duration": 0.11601825000002464
                },
                {
                    "name": "A#3",
                    "midi": 58,
                    "time": 478.4592630000223,
                    "velocity": 0.5748031496062992,
                    "duration": 0.11601825000002464
                },
                {
                    "name": "A#4",
                    "midi": 70,
                    "time": 478.4592630000223,
                    "velocity": 0.6929133858267716,
                    "duration": 0.11601825000002464
                },
                {
                    "name": "A#3",
                    "midi": 58,
                    "time": 478.69129950002235,
                    "velocity": 0.5748031496062992,
                    "duration": 0.11601825000002464
                },
                {
                    "name": "A#4",
                    "midi": 70,
                    "time": 478.69129950002235,
                    "velocity": 0.6929133858267716,
                    "duration": 0.11601825000002464
                },
                {
                    "name": "A3",
                    "midi": 57,
                    "time": 478.9233360000224,
                    "velocity": 0.6062992125984252,
                    "duration": 0.23203649999999243
                },
                {
                    "name": "A4",
                    "midi": 69,
                    "time": 478.9233360000224,
                    "velocity": 0.7244094488188977,
                    "duration": 0.23203649999999243
                },
                {
                    "name": "G3",
                    "midi": 55,
                    "time": 479.1553725000224,
                    "velocity": 0.5748031496062992,
                    "duration": 0.11601825000002464
                },
                {
                    "name": "G4",
                    "midi": 67,
                    "time": 479.1553725000224,
                    "velocity": 0.6929133858267716,
                    "duration": 0.11601825000002464
                },
                {
                    "name": "G3",
                    "midi": 55,
                    "time": 479.38740900002244,
                    "velocity": 0.5748031496062992,
                    "duration": 0.11601825000002464
                },
                {
                    "name": "G4",
                    "midi": 67,
                    "time": 479.38740900002244,
                    "velocity": 0.6929133858267716,
                    "duration": 0.11601825000002464
                },
                {
                    "name": "G3",
                    "midi": 55,
                    "time": 479.6194455000225,
                    "velocity": 0.5748031496062992,
                    "duration": 0.11601825000002464
                },
                {
                    "name": "G4",
                    "midi": 67,
                    "time": 479.6194455000225,
                    "velocity": 0.6929133858267716,
                    "duration": 0.11601825000002464
                },
                {
                    "name": "A4",
                    "midi": 69,
                    "time": 479.85148200002254,
                    "velocity": 0.6062992125984252,
                    "duration": 0.23203649999999243
                },
                {
                    "name": "A5",
                    "midi": 81,
                    "time": 479.85148200002254,
                    "velocity": 0.7244094488188977,
                    "duration": 0.23203649999999243
                },
                {
                    "name": "G4",
                    "midi": 67,
                    "time": 480.08351850002254,
                    "velocity": 0.5748031496062992,
                    "duration": 0.11601825000002464
                },
                {
                    "name": "G5",
                    "midi": 79,
                    "time": 480.08351850002254,
                    "velocity": 0.6929133858267716,
                    "duration": 0.11601825000002464
                },
                {
                    "name": "G4",
                    "midi": 67,
                    "time": 480.3155550000226,
                    "velocity": 0.5748031496062992,
                    "duration": 0.11601825000002464
                },
                {
                    "name": "G5",
                    "midi": 79,
                    "time": 480.3155550000226,
                    "velocity": 0.6929133858267716,
                    "duration": 0.11601825000002464
                },
                {
                    "name": "G4",
                    "midi": 67,
                    "time": 480.54759150002263,
                    "velocity": 0.5748031496062992,
                    "duration": 0.11601825000002464
                },
                {
                    "name": "G5",
                    "midi": 79,
                    "time": 480.54759150002263,
                    "velocity": 0.6929133858267716,
                    "duration": 0.11601825000002464
                },
                {
                    "name": "A5",
                    "midi": 81,
                    "time": 480.7796280000227,
                    "velocity": 0.6062992125984252,
                    "duration": 0.23203649999999243
                },
                {
                    "name": "A6",
                    "midi": 93,
                    "time": 480.7796280000227,
                    "velocity": 0.7244094488188977,
                    "duration": 0.23203649999999243
                },
                {
                    "name": "G5",
                    "midi": 79,
                    "time": 481.0116645000227,
                    "velocity": 0.5748031496062992,
                    "duration": 0.11601825000002464
                },
                {
                    "name": "G6",
                    "midi": 91,
                    "time": 481.0116645000227,
                    "velocity": 0.6929133858267716,
                    "duration": 0.11601825000002464
                },
                {
                    "name": "G5",
                    "midi": 79,
                    "time": 481.2437010000227,
                    "velocity": 0.5748031496062992,
                    "duration": 0.11601825000002464
                },
                {
                    "name": "G6",
                    "midi": 91,
                    "time": 481.2437010000227,
                    "velocity": 0.6929133858267716,
                    "duration": 0.11601825000002464
                },
                {
                    "name": "G5",
                    "midi": 79,
                    "time": 481.4757375000228,
                    "velocity": 0.5748031496062992,
                    "duration": 0.11601825000002464
                },
                {
                    "name": "G6",
                    "midi": 91,
                    "time": 481.4757375000228,
                    "velocity": 0.6929133858267716,
                    "duration": 0.11601825000002464
                },
                {
                    "name": "F#5",
                    "midi": 78,
                    "time": 481.7077740000228,
                    "velocity": 0.6062992125984252,
                    "duration": 0.23203649999999243
                },
                {
                    "name": "F#6",
                    "midi": 90,
                    "time": 481.7077740000228,
                    "velocity": 0.7244094488188977,
                    "duration": 0.23203649999999243
                },
                {
                    "name": "G5",
                    "midi": 79,
                    "time": 481.9398105000228,
                    "velocity": 0.5748031496062992,
                    "duration": 0.11601825000002464
                },
                {
                    "name": "G6",
                    "midi": 91,
                    "time": 481.9398105000228,
                    "velocity": 0.6929133858267716,
                    "duration": 0.11601825000002464
                },
                {
                    "name": "G5",
                    "midi": 79,
                    "time": 482.17184700002286,
                    "velocity": 0.5748031496062992,
                    "duration": 0.11601825000002464
                },
                {
                    "name": "G6",
                    "midi": 91,
                    "time": 482.17184700002286,
                    "velocity": 0.6929133858267716,
                    "duration": 0.11601825000002464
                },
                {
                    "name": "G5",
                    "midi": 79,
                    "time": 482.4038835000229,
                    "velocity": 0.5748031496062992,
                    "duration": 0.11601825000002464
                },
                {
                    "name": "G6",
                    "midi": 91,
                    "time": 482.4038835000229,
                    "velocity": 0.6929133858267716,
                    "duration": 0.11601825000002464
                },
                {
                    "name": "G5",
                    "midi": 79,
                    "time": 482.63592000002296,
                    "velocity": 0.7086614173228346,
                    "duration": 0.46407299999998486
                },
                {
                    "name": "A#5",
                    "midi": 82,
                    "time": 482.63592000002296,
                    "velocity": 0.7086614173228346,
                    "duration": 0.46407299999998486
                },
                {
                    "name": "D#6",
                    "midi": 87,
                    "time": 482.63592000002296,
                    "velocity": 0.7086614173228346,
                    "duration": 0.46407299999998486
                },
                {
                    "name": "G6",
                    "midi": 91,
                    "time": 482.63592000002296,
                    "velocity": 0.84251968503937,
                    "duration": 0.46407299999998486
                },
                {
                    "name": "A5",
                    "midi": 81,
                    "time": 484.49221200002296,
                    "velocity": 0.7086614173228346,
                    "duration": 0.46407299999998486
                },
                {
                    "name": "D#6",
                    "midi": 87,
                    "time": 484.49221200002296,
                    "velocity": 0.7086614173228346,
                    "duration": 0.46407299999998486
                },
                {
                    "name": "A6",
                    "midi": 93,
                    "time": 484.49221200002296,
                    "velocity": 0.84251968503937,
                    "duration": 0.46407299999998486
                },
                {
                    "name": "A#5",
                    "midi": 82,
                    "time": 486.34850400002296,
                    "velocity": 0.8110236220472441,
                    "duration": 0.46407299999998486
                },
                {
                    "name": "D6",
                    "midi": 86,
                    "time": 486.34850400002296,
                    "velocity": 0.8110236220472441,
                    "duration": 0.46407299999998486
                },
                {
                    "name": "A#6",
                    "midi": 94,
                    "time": 486.34850400002296,
                    "velocity": 0.9448818897637795,
                    "duration": 0.46407299999998486
                },
                {
                    "name": "D6",
                    "midi": 86,
                    "time": 487.04461350002293,
                    "velocity": 0.4251968503937008,
                    "duration": 0.23203649999999243
                },
                {
                    "name": "D#5",
                    "midi": 75,
                    "time": 487.04461350002293,
                    "velocity": 0.36220472440944884,
                    "duration": 0.23203649999999243
                },
                {
                    "name": "C6",
                    "midi": 84,
                    "time": 487.2766500000229,
                    "velocity": 0.4566929133858268,
                    "duration": 0.23203649999999243
                },
                {
                    "name": "F5",
                    "midi": 77,
                    "time": 487.2766500000229,
                    "velocity": 0.3858267716535433,
                    "duration": 0.4640730000000417
                },
                {
                    "name": "A#5",
                    "midi": 82,
                    "time": 487.5086865000229,
                    "velocity": 0.4251968503937008,
                    "duration": 0.11601825000002464
                },
                {
                    "name": "A#5",
                    "midi": 82,
                    "time": 487.74072300002297,
                    "velocity": 0.4251968503937008,
                    "duration": 0.11601825000002464
                },
                {
                    "name": "D5",
                    "midi": 74,
                    "time": 487.74072300002297,
                    "velocity": 0.36220472440944884,
                    "duration": 0.11601825000002464
                },
                {
                    "name": "D5",
                    "midi": 74,
                    "time": 487.972759500023,
                    "velocity": 0.36220472440944884,
                    "duration": 0.11601825000002464
                },
                {
                    "name": "A#5",
                    "midi": 82,
                    "time": 487.972759500023,
                    "velocity": 0.4251968503937008,
                    "duration": 0.11601825000002464
                },
                {
                    "name": "D#5",
                    "midi": 75,
                    "time": 488.20479600002307,
                    "velocity": 0.3858267716535433,
                    "duration": 0.23203649999999243
                },
                {
                    "name": "G5",
                    "midi": 79,
                    "time": 488.20479600002307,
                    "velocity": 0.4566929133858268,
                    "duration": 0.23203649999999243
                },
                {
                    "name": "F5",
                    "midi": 77,
                    "time": 488.43683250002306,
                    "velocity": 0.4330708661417323,
                    "duration": 0.11601825000002464
                },
                {
                    "name": "A4",
                    "midi": 69,
                    "time": 488.6688690000231,
                    "velocity": 0.36220472440944884,
                    "duration": 0.11601825000002464
                },
                {
                    "name": "F5",
                    "midi": 77,
                    "time": 488.6688690000231,
                    "velocity": 0.4330708661417323,
                    "duration": 0.11601825000002464
                },
                {
                    "name": "A4",
                    "midi": 69,
                    "time": 488.90090550002316,
                    "velocity": 0.36220472440944884,
                    "duration": 0.11601825000002464
                },
                {
                    "name": "F5",
                    "midi": 77,
                    "time": 488.90090550002316,
                    "velocity": 0.4330708661417323,
                    "duration": 0.11601825000002464
                },
                {
                    "name": "A#4",
                    "midi": 70,
                    "time": 489.1329420000232,
                    "velocity": 0.3858267716535433,
                    "duration": 0.4640730000000417
                },
                {
                    "name": "D#5",
                    "midi": 75,
                    "time": 489.1329420000232,
                    "velocity": 0.4566929133858268,
                    "duration": 0.23203649999999243
                },
                {
                    "name": "D5",
                    "midi": 74,
                    "time": 489.3649785000232,
                    "velocity": 0.4330708661417323,
                    "duration": 0.11601825000002464
                },
                {
                    "name": "E4",
                    "midi": 64,
                    "time": 489.59701500002325,
                    "velocity": 0.36220472440944884,
                    "duration": 0.11601825000002464
                },
                {
                    "name": "D5",
                    "midi": 74,
                    "time": 489.59701500002325,
                    "velocity": 0.4330708661417323,
                    "duration": 0.11601825000002464
                },
                {
                    "name": "E4",
                    "midi": 64,
                    "time": 489.8290515000233,
                    "velocity": 0.36220472440944884,
                    "duration": 0.11601825000002464
                },
                {
                    "name": "D5",
                    "midi": 74,
                    "time": 489.8290515000233,
                    "velocity": 0.4330708661417323,
                    "duration": 0.11601825000002464
                },
                {
                    "name": "F4",
                    "midi": 65,
                    "time": 490.06108800002335,
                    "velocity": 0.3858267716535433,
                    "duration": 0.4640730000000417
                },
                {
                    "name": "C5",
                    "midi": 72,
                    "time": 490.06108800002335,
                    "velocity": 0.4566929133858268,
                    "duration": 0.23203649999999243
                },
                {
                    "name": "A#4",
                    "midi": 70,
                    "time": 490.29312450002334,
                    "velocity": 0.4330708661417323,
                    "duration": 0.11601825000002464
                },
                {
                    "name": "D4",
                    "midi": 62,
                    "time": 490.5251610000234,
                    "velocity": 0.36220472440944884,
                    "duration": 0.11601825000002464
                },
                {
                    "name": "A#4",
                    "midi": 70,
                    "time": 490.5251610000234,
                    "velocity": 0.4330708661417323,
                    "duration": 0.11601825000002464
                },
                {
                    "name": "D4",
                    "midi": 62,
                    "time": 490.75719750002344,
                    "velocity": 0.36220472440944884,
                    "duration": 0.11601825000002464
                },
                {
                    "name": "A#4",
                    "midi": 70,
                    "time": 490.75719750002344,
                    "velocity": 0.4330708661417323,
                    "duration": 0.11601825000002464
                },
                {
                    "name": "D#4",
                    "midi": 63,
                    "time": 490.9892340000235,
                    "velocity": 0.3858267716535433,
                    "duration": 0.4640730000000417
                },
                {
                    "name": "G4",
                    "midi": 67,
                    "time": 490.9892340000235,
                    "velocity": 0.4566929133858268,
                    "duration": 0.23203649999999243
                },
                {
                    "name": "F4",
                    "midi": 65,
                    "time": 491.2212705000235,
                    "velocity": 0.4330708661417323,
                    "duration": 0.11601825000002464
                },
                {
                    "name": "A3",
                    "midi": 57,
                    "time": 491.4533070000235,
                    "velocity": 0.36220472440944884,
                    "duration": 0.11601825000002464
                },
                {
                    "name": "F4",
                    "midi": 65,
                    "time": 491.4533070000235,
                    "velocity": 0.4409448818897638,
                    "duration": 0.11601825000002464
                },
                {
                    "name": "A3",
                    "midi": 57,
                    "time": 491.6853435000236,
                    "velocity": 0.3700787401574803,
                    "duration": 0.11601825000002464
                },
                {
                    "name": "F4",
                    "midi": 65,
                    "time": 491.6853435000236,
                    "velocity": 0.4409448818897638,
                    "duration": 0.11601825000002464
                },
                {
                    "name": "D#4",
                    "midi": 63,
                    "time": 491.9173800000236,
                    "velocity": 0.3937007874015748,
                    "duration": 0.4640730000000417
                },
                {
                    "name": "G4",
                    "midi": 67,
                    "time": 491.9173800000236,
                    "velocity": 0.47244094488188976,
                    "duration": 0.23203649999999243
                },
                {
                    "name": "F4",
                    "midi": 65,
                    "time": 492.1494165000236,
                    "velocity": 0.4566929133858268,
                    "duration": 0.11601825000002464
                },
                {
                    "name": "A3",
                    "midi": 57,
                    "time": 492.38145300002367,
                    "velocity": 0.3858267716535433,
                    "duration": 0.11601825000002464
                },
                {
                    "name": "F4",
                    "midi": 65,
                    "time": 492.38145300002367,
                    "velocity": 0.4566929133858268,
                    "duration": 0.11601825000002464
                },
                {
                    "name": "A3",
                    "midi": 57,
                    "time": 492.6134895000237,
                    "velocity": 0.3858267716535433,
                    "duration": 0.11601825000002464
                },
                {
                    "name": "F4",
                    "midi": 65,
                    "time": 492.6134895000237,
                    "velocity": 0.4645669291338583,
                    "duration": 0.11601825000002464
                },
                {
                    "name": "D#4",
                    "midi": 63,
                    "time": 492.84552600002377,
                    "velocity": 0.4094488188976378,
                    "duration": 0.4640730000000417
                },
                {
                    "name": "G4",
                    "midi": 67,
                    "time": 492.84552600002377,
                    "velocity": 0.49606299212598426,
                    "duration": 0.23203649999999243
                },
                {
                    "name": "F4",
                    "midi": 65,
                    "time": 493.07756250002376,
                    "velocity": 0.47244094488188976,
                    "duration": 0.11601825000002464
                },
                {
                    "name": "A3",
                    "midi": 57,
                    "time": 493.3095990000238,
                    "velocity": 0.4015748031496063,
                    "duration": 0.11601825000002464
                },
                {
                    "name": "F4",
                    "midi": 65,
                    "time": 493.3095990000238,
                    "velocity": 0.47244094488188976,
                    "duration": 0.11601825000002464
                },
                {
                    "name": "F4",
                    "midi": 65,
                    "time": 493.54163550002386,
                    "velocity": 0.48031496062992124,
                    "duration": 0.11601825000002464
                },
                {
                    "name": "A3",
                    "midi": 57,
                    "time": 493.54163550002386,
                    "velocity": 0.4015748031496063,
                    "duration": 0.11601825000002464
                },
                {
                    "name": "A3",
                    "midi": 57,
                    "time": 493.7736720000239,
                    "velocity": 0.3700787401574803,
                    "duration": 0.4640730000000417
                },
                {
                    "name": "G4",
                    "midi": 67,
                    "time": 493.7736720000239,
                    "velocity": 0.5275590551181102,
                    "duration": 0.23203649999999243
                },
                {
                    "name": "D#4",
                    "midi": 63,
                    "time": 493.7736720000239,
                    "velocity": 0.3700787401574803,
                    "duration": 0.4640730000000417
                },
                {
                    "name": "F4",
                    "midi": 65,
                    "time": 494.0057085000239,
                    "velocity": 0.49606299212598426,
                    "duration": 0.11601825000002464
                },
                {
                    "name": "A#4",
                    "midi": 70,
                    "time": 494.23774500002395,
                    "velocity": 0.5590551181102362,
                    "duration": 0.23203649999999243
                },
                {
                    "name": "F4",
                    "midi": 65,
                    "time": 494.23774500002395,
                    "velocity": 0.4645669291338583,
                    "duration": 0.4640730000000417
                },
                {
                    "name": "D#4",
                    "midi": 63,
                    "time": 494.23774500002395,
                    "velocity": 0.4645669291338583,
                    "duration": 0.4640730000000417
                },
                {
                    "name": "A4",
                    "midi": 69,
                    "time": 494.46978150002394,
                    "velocity": 0.5275590551181102,
                    "duration": 0.11601825000002464
                },
                {
                    "name": "D5",
                    "midi": 74,
                    "time": 494.701818000024,
                    "velocity": 0.5905511811023622,
                    "duration": 0.23203649999999243
                },
                {
                    "name": "A4",
                    "midi": 69,
                    "time": 494.701818000024,
                    "velocity": 0.49606299212598426,
                    "duration": 0.4640730000000417
                },
                {
                    "name": "D#4",
                    "midi": 63,
                    "time": 494.701818000024,
                    "velocity": 0.49606299212598426,
                    "duration": 0.4640730000000417
                },
                {
                    "name": "C5",
                    "midi": 72,
                    "time": 494.933854500024,
                    "velocity": 0.5590551181102362,
                    "duration": 0.11601825000002464
                },
                {
                    "name": "A4",
                    "midi": 69,
                    "time": 495.16589100002403,
                    "velocity": 0.5039370078740157,
                    "duration": 0.4640730000000417
                },
                {
                    "name": "D#5",
                    "midi": 75,
                    "time": 495.16589100002403,
                    "velocity": 0.5039370078740157,
                    "duration": 0.4640730000000417
                },
                {
                    "name": "G5",
                    "midi": 79,
                    "time": 495.16589100002403,
                    "velocity": 0.5984251968503937,
                    "duration": 0.23203649999999243
                },
                {
                    "name": "F5",
                    "midi": 77,
                    "time": 495.397927500024,
                    "velocity": 0.5748031496062992,
                    "duration": 0.11601825000002464
                },
                {
                    "name": "F5",
                    "midi": 77,
                    "time": 495.6299640000241,
                    "velocity": 0.5433070866141733,
                    "duration": 0.4640730000000417
                },
                {
                    "name": "D#5",
                    "midi": 75,
                    "time": 495.6299640000241,
                    "velocity": 0.5433070866141733,
                    "duration": 0.4640730000000417
                },
                {
                    "name": "A#5",
                    "midi": 82,
                    "time": 495.6299640000241,
                    "velocity": 0.6299212598425197,
                    "duration": 0.23203649999999243
                },
                {
                    "name": "A5",
                    "midi": 81,
                    "time": 495.86200050002407,
                    "velocity": 0.5905511811023622,
                    "duration": 0.11601825000002464
                },
                {
                    "name": "D#5",
                    "midi": 75,
                    "time": 496.0940370000241,
                    "velocity": 0.5511811023622047,
                    "duration": 0.4640730000000417
                },
                {
                    "name": "A5",
                    "midi": 81,
                    "time": 496.0940370000241,
                    "velocity": 0.5511811023622047,
                    "duration": 0.4640730000000417
                },
                {
                    "name": "D6",
                    "midi": 86,
                    "time": 496.0940370000241,
                    "velocity": 0.6614173228346457,
                    "duration": 0.23203649999999243
                },
                {
                    "name": "C6",
                    "midi": 84,
                    "time": 496.3260735000241,
                    "velocity": 0.6220472440944882,
                    "duration": 0.11601825000002464
                },
                {
                    "name": "A5",
                    "midi": 81,
                    "time": 496.55811000002416,
                    "velocity": 0.5984251968503937,
                    "duration": 0.4640730000000417
                },
                {
                    "name": "D#6",
                    "midi": 87,
                    "time": 496.55811000002416,
                    "velocity": 0.5984251968503937,
                    "duration": 0.4640730000000417
                },
                {
                    "name": "G6",
                    "midi": 91,
                    "time": 496.55811000002416,
                    "velocity": 0.7086614173228346,
                    "duration": 0.23203649999999243
                },
                {
                    "name": "F6",
                    "midi": 89,
                    "time": 496.79014650002415,
                    "velocity": 0.6692913385826772,
                    "duration": 0.11601825000002464
                },
                {
                    "name": "D#6",
                    "midi": 87,
                    "time": 497.0221830000242,
                    "velocity": 0.6456692913385826,
                    "duration": 0.4640730000000417
                },
                {
                    "name": "A#6",
                    "midi": 94,
                    "time": 497.0221830000242,
                    "velocity": 0.7637795275590551,
                    "duration": 0.23203649999999243
                },
                {
                    "name": "F6",
                    "midi": 89,
                    "time": 497.0221830000242,
                    "velocity": 0.6456692913385826,
                    "duration": 0.4640730000000417
                },
                {
                    "name": "A6",
                    "midi": 93,
                    "time": 497.2542195000242,
                    "velocity": 0.7401574803149606,
                    "duration": 0.11601825000002464
                },
                {
                    "name": "A#6",
                    "midi": 94,
                    "time": 497.48625600002424,
                    "velocity": 0.889763779527559,
                    "duration": 0.46407299999998486
                },
                {
                    "name": "F6",
                    "midi": 89,
                    "time": 497.48625600002424,
                    "velocity": 0.7559055118110236,
                    "duration": 0.46407299999998486
                },
                {
                    "name": "D6",
                    "midi": 86,
                    "time": 497.48625600002424,
                    "velocity": 0.7559055118110236,
                    "duration": 0.46407299999998486
                },
                {
                    "name": "D7",
                    "midi": 98,
                    "time": 498.4144020000242,
                    "velocity": 0.8661417322834646,
                    "duration": 0.46407299999998486
                },
                {
                    "name": "F6",
                    "midi": 89,
                    "time": 498.4144020000242,
                    "velocity": 0.7244094488188977,
                    "duration": 0.46407299999998486
                },
                {
                    "name": "D6",
                    "midi": 86,
                    "time": 498.4144020000242,
                    "velocity": 0.7244094488188977,
                    "duration": 0.46407299999998486
                },
                {
                    "name": "A#6",
                    "midi": 94,
                    "time": 498.4144020000242,
                    "velocity": 0.8661417322834646,
                    "duration": 0.46407299999998486
                },
                {
                    "name": "A#3",
                    "midi": 58,
                    "time": 499.3425480000242,
                    "velocity": 0.9133858267716536,
                    "duration": 0.46407299999998486
                }
            ],
            "controlChanges": {
                "7": [
                    {
                        "number": 7,
                        "time": 0,
                        "value": 0.7874015748031497
                    }
                ],
                "10": [
                    {
                        "number": 10,
                        "time": 0,
                        "value": 0.5039370078740157
                    }
                ],
                "91": [
                    {
                        "number": 91,
                        "time": 0,
                        "value": 1
                    },
                    {
                        "number": 91,
                        "time": 28.772525999999964,
                        "value": 1
                    },
                    {
                        "number": 91,
                        "time": 206.97655799999646,
                        "value": 1
                    },
                    {
                        "number": 91,
                        "time": 235.74908399999606,
                        "value": 1
                    },
                    {
                        "number": 91,
                        "time": 453.86339400002095,
                        "value": 1
                    }
                ]
            },
            "id": 1,
            "name": "Piano right",
            "instrumentNumber": 1,
            "instrument": "bright acoustic piano",
            "instrumentFamily": "piano",
            "channelNumber": 0,
            "isPercussion": false
        },
        {
            "startTime": 0,
            "duration": 499.8066210000137,
            "length": 2461,
            "notes": [
                {
                    "name": "G4",
                    "midi": 67,
                    "time": 0,
                    "velocity": 0.7401574803149606,
                    "duration": 1.856292
                },
                {
                    "name": "G3",
                    "midi": 55,
                    "time": 0,
                    "velocity": 0.6141732283464567,
                    "duration": 1.856292
                },
                {
                    "name": "G3",
                    "midi": 55,
                    "time": 1.856292,
                    "velocity": 0.33070866141732286,
                    "duration": 0.2320365000000002
                },
                {
                    "name": "G4",
                    "midi": 67,
                    "time": 2.0883285000000003,
                    "velocity": 0.2440944881889764,
                    "duration": 0.11601825000000021
                },
                {
                    "name": "D4",
                    "midi": 62,
                    "time": 2.3203650000000007,
                    "velocity": 0.2047244094488189,
                    "duration": 0.11601825000000021
                },
                {
                    "name": "F4",
                    "midi": 65,
                    "time": 2.3203650000000007,
                    "velocity": 0.2440944881889764,
                    "duration": 0.11601825000000021
                },
                {
                    "name": "G4",
                    "midi": 67,
                    "time": 2.552401500000001,
                    "velocity": 0.25196850393700787,
                    "duration": 0.11601825000000021
                },
                {
                    "name": "G3",
                    "midi": 55,
                    "time": 2.7844380000000015,
                    "velocity": 0.3464566929133858,
                    "duration": 0.23203649999999998
                },
                {
                    "name": "G4",
                    "midi": 67,
                    "time": 3.0164745000000015,
                    "velocity": 0.2204724409448819,
                    "duration": 0.11601825000000021
                },
                {
                    "name": "C4",
                    "midi": 60,
                    "time": 3.248511000000002,
                    "velocity": 0.2283464566929134,
                    "duration": 0.11601825000000021
                },
                {
                    "name": "D#4",
                    "midi": 63,
                    "time": 3.248511000000002,
                    "velocity": 0.2755905511811024,
                    "duration": 0.11601825000000021
                },
                {
                    "name": "G4",
                    "midi": 67,
                    "time": 3.4805475000000023,
                    "velocity": 0.25196850393700787,
                    "duration": 0.11601825000000021
                },
                {
                    "name": "G3",
                    "midi": 55,
                    "time": 3.7125840000000028,
                    "velocity": 0.33070866141732286,
                    "duration": 0.23203649999999998
                },
                {
                    "name": "G4",
                    "midi": 67,
                    "time": 3.9446205000000027,
                    "velocity": 0.2440944881889764,
                    "duration": 0.11601824999999977
                },
                {
                    "name": "D4",
                    "midi": 62,
                    "time": 4.176657000000002,
                    "velocity": 0.2047244094488189,
                    "duration": 0.11601824999999977
                },
                {
                    "name": "F4",
                    "midi": 65,
                    "time": 4.176657000000002,
                    "velocity": 0.2440944881889764,
                    "duration": 0.11601824999999977
                },
                {
                    "name": "G4",
                    "midi": 67,
                    "time": 4.408693500000002,
                    "velocity": 0.2283464566929134,
                    "duration": 0.11601824999999977
                },
                {
                    "name": "G3",
                    "midi": 55,
                    "time": 4.640730000000001,
                    "velocity": 0.3464566929133858,
                    "duration": 0.23203650000000042
                },
                {
                    "name": "G4",
                    "midi": 67,
                    "time": 4.872766500000002,
                    "velocity": 0.25196850393700787,
                    "duration": 0.11601824999999977
                },
                {
                    "name": "C4",
                    "midi": 60,
                    "time": 5.104803000000001,
                    "velocity": 0.2283464566929134,
                    "duration": 0.17402737499999965
                },
                {
                    "name": "D#4",
                    "midi": 63,
                    "time": 5.104803000000001,
                    "velocity": 0.2755905511811024,
                    "duration": 0.17402737499999965
                },
                {
                    "name": "F#3",
                    "midi": 54,
                    "time": 5.104803000000001,
                    "velocity": 0.2283464566929134,
                    "duration": 0.17402737499999965
                },
                {
                    "name": "F#4",
                    "midi": 66,
                    "time": 5.336839500000001,
                    "velocity": 0.2755905511811024,
                    "duration": 0.17402737499999965
                },
                {
                    "name": "F3",
                    "midi": 53,
                    "time": 5.568876,
                    "velocity": 0.33070866141732286,
                    "duration": 0.23203650000000042
                },
                {
                    "name": "F4",
                    "midi": 65,
                    "time": 5.800912500000001,
                    "velocity": 0.2755905511811024,
                    "duration": 0.11601824999999977
                },
                {
                    "name": "D4",
                    "midi": 62,
                    "time": 6.032949,
                    "velocity": 0.2755905511811024,
                    "duration": 0.11601824999999977
                },
                {
                    "name": "F4",
                    "midi": 65,
                    "time": 6.2649855,
                    "velocity": 0.28346456692913385,
                    "duration": 0.11601824999999977
                },
                {
                    "name": "G3",
                    "midi": 55,
                    "time": 6.497021999999999,
                    "velocity": 0.33070866141732286,
                    "duration": 0.23203650000000042
                },
                {
                    "name": "E4",
                    "midi": 64,
                    "time": 6.7290585,
                    "velocity": 0.28346456692913385,
                    "duration": 0.11601824999999977
                },
                {
                    "name": "C4",
                    "midi": 60,
                    "time": 6.961094999999999,
                    "velocity": 0.28346456692913385,
                    "duration": 0.11601824999999977
                },
                {
                    "name": "E4",
                    "midi": 64,
                    "time": 7.193131499999999,
                    "velocity": 0.28346456692913385,
                    "duration": 0.11601824999999977
                },
                {
                    "name": "D4",
                    "midi": 62,
                    "time": 7.425167999999998,
                    "velocity": 0.33070866141732286,
                    "duration": 0.23203649999999953
                },
                {
                    "name": "F3",
                    "midi": 53,
                    "time": 7.425167999999998,
                    "velocity": 0.2755905511811024,
                    "duration": 0.23203649999999953
                },
                {
                    "name": "F4",
                    "midi": 65,
                    "time": 7.657204499999998,
                    "velocity": 0.25984251968503935,
                    "duration": 0.23203650000000042
                },
                {
                    "name": "D#4",
                    "midi": 63,
                    "time": 7.889240999999998,
                    "velocity": 0.2755905511811024,
                    "duration": 0.11601824999999977
                },
                {
                    "name": "F3",
                    "midi": 53,
                    "time": 7.889240999999998,
                    "velocity": 0.2283464566929134,
                    "duration": 0.11601824999999977
                },
                {
                    "name": "F4",
                    "midi": 65,
                    "time": 8.121277499999998,
                    "velocity": 0.2677165354330709,
                    "duration": 0.11601824999999977
                },
                {
                    "name": "D4",
                    "midi": 62,
                    "time": 8.353313999999997,
                    "velocity": 0.33070866141732286,
                    "duration": 0.23203649999999953
                },
                {
                    "name": "A#3",
                    "midi": 58,
                    "time": 8.353313999999997,
                    "velocity": 0.33070866141732286,
                    "duration": 0.23203649999999953
                },
                {
                    "name": "G3",
                    "midi": 55,
                    "time": 8.817386999999997,
                    "velocity": 0.6141732283464567,
                    "duration": 1.3922190000000008
                },
                {
                    "name": "G4",
                    "midi": 67,
                    "time": 8.817386999999997,
                    "velocity": 0.7401574803149606,
                    "duration": 1.3922190000000008
                },
                {
                    "name": "G3",
                    "midi": 55,
                    "time": 10.209605999999997,
                    "velocity": 0.33070866141732286,
                    "duration": 0.23203649999999953
                },
                {
                    "name": "G4",
                    "midi": 67,
                    "time": 10.441642499999997,
                    "velocity": 0.2440944881889764,
                    "duration": 0.11601824999999977
                },
                {
                    "name": "F4",
                    "midi": 65,
                    "time": 10.673678999999996,
                    "velocity": 0.2440944881889764,
                    "duration": 0.11601824999999977
                },
                {
                    "name": "D4",
                    "midi": 62,
                    "time": 10.673678999999996,
                    "velocity": 0.2047244094488189,
                    "duration": 0.11601824999999977
                },
                {
                    "name": "G4",
                    "midi": 67,
                    "time": 10.905715499999996,
                    "velocity": 0.25196850393700787,
                    "duration": 0.11601824999999977
                },
                {
                    "name": "G3",
                    "midi": 55,
                    "time": 11.137751999999995,
                    "velocity": 0.3464566929133858,
                    "duration": 0.23203649999999953
                },
                {
                    "name": "G4",
                    "midi": 67,
                    "time": 11.369788499999995,
                    "velocity": 0.2440944881889764,
                    "duration": 0.11601824999999977
                },
                {
                    "name": "C4",
                    "midi": 60,
                    "time": 11.601824999999995,
                    "velocity": 0.2283464566929134,
                    "duration": 0.11601824999999977
                },
                {
                    "name": "D#4",
                    "midi": 63,
                    "time": 11.601824999999995,
                    "velocity": 0.2755905511811024,
                    "duration": 0.11601824999999977
                },
                {
                    "name": "G4",
                    "midi": 67,
                    "time": 11.833861499999994,
                    "velocity": 0.25196850393700787,
                    "duration": 0.11601824999999977
                },
                {
                    "name": "G3",
                    "midi": 55,
                    "time": 12.065897999999994,
                    "velocity": 0.33070866141732286,
                    "duration": 0.23203649999999953
                },
                {
                    "name": "G4",
                    "midi": 67,
                    "time": 12.297934499999993,
                    "velocity": 0.2440944881889764,
                    "duration": 0.11601824999999977
                },
                {
                    "name": "D4",
                    "midi": 62,
                    "time": 12.529970999999993,
                    "velocity": 0.2047244094488189,
                    "duration": 0.11601824999999977
                },
                {
                    "name": "F4",
                    "midi": 65,
                    "time": 12.529970999999993,
                    "velocity": 0.2440944881889764,
                    "duration": 0.11601824999999977
                },
                {
                    "name": "G4",
                    "midi": 67,
                    "time": 12.762007499999992,
                    "velocity": 0.2283464566929134,
                    "duration": 0.11601824999999977
                },
                {
                    "name": "G3",
                    "midi": 55,
                    "time": 12.994043999999992,
                    "velocity": 0.3464566929133858,
                    "duration": 0.23203649999999953
                },
                {
                    "name": "G4",
                    "midi": 67,
                    "time": 13.226080499999991,
                    "velocity": 0.25196850393700787,
                    "duration": 0.11601824999999977
                },
                {
                    "name": "F#3",
                    "midi": 54,
                    "time": 13.45811699999999,
                    "velocity": 0.2283464566929134,
                    "duration": 0.11601824999999977
                },
                {
                    "name": "C4",
                    "midi": 60,
                    "time": 13.45811699999999,
                    "velocity": 0.2283464566929134,
                    "duration": 0.11601824999999977
                },
                {
                    "name": "D#4",
                    "midi": 63,
                    "time": 13.45811699999999,
                    "velocity": 0.2755905511811024,
                    "duration": 0.11601824999999977
                },
                {
                    "name": "F#4",
                    "midi": 66,
                    "time": 13.69015349999999,
                    "velocity": 0.2755905511811024,
                    "duration": 0.11601824999999977
                },
                {
                    "name": "F3",
                    "midi": 53,
                    "time": 13.92218999999999,
                    "velocity": 0.33070866141732286,
                    "duration": 0.23203649999999953
                },
                {
                    "name": "F4",
                    "midi": 65,
                    "time": 14.15422649999999,
                    "velocity": 0.2755905511811024,
                    "duration": 0.11601824999999977
                },
                {
                    "name": "D4",
                    "midi": 62,
                    "time": 14.386262999999989,
                    "velocity": 0.2755905511811024,
                    "duration": 0.11601824999999977
                },
                {
                    "name": "F4",
                    "midi": 65,
                    "time": 14.618299499999988,
                    "velocity": 0.28346456692913385,
                    "duration": 0.11601824999999977
                },
                {
                    "name": "G3",
                    "midi": 55,
                    "time": 14.850335999999988,
                    "velocity": 0.33070866141732286,
                    "duration": 0.23203649999999953
                },
                {
                    "name": "E4",
                    "midi": 64,
                    "time": 15.082372499999988,
                    "velocity": 0.28346456692913385,
                    "duration": 0.11601824999999977
                },
                {
                    "name": "C4",
                    "midi": 60,
                    "time": 15.314408999999987,
                    "velocity": 0.28346456692913385,
                    "duration": 0.11601824999999977
                },
                {
                    "name": "E4",
                    "midi": 64,
                    "time": 15.546445499999987,
                    "velocity": 0.28346456692913385,
                    "duration": 0.11601824999999977
                },
                {
                    "name": "F3",
                    "midi": 53,
                    "time": 15.778481999999986,
                    "velocity": 0.2755905511811024,
                    "duration": 0.23203649999999953
                },
                {
                    "name": "D4",
                    "midi": 62,
                    "time": 15.778481999999986,
                    "velocity": 0.33070866141732286,
                    "duration": 0.23203649999999953
                },
                {
                    "name": "F4",
                    "midi": 65,
                    "time": 16.010518499999986,
                    "velocity": 0.25984251968503935,
                    "duration": 0.23203649999999953
                },
                {
                    "name": "D#4",
                    "midi": 63,
                    "time": 16.242554999999985,
                    "velocity": 0.2755905511811024,
                    "duration": 0.11601824999999977
                },
                {
                    "name": "F3",
                    "midi": 53,
                    "time": 16.242554999999985,
                    "velocity": 0.2283464566929134,
                    "duration": 0.11601824999999977
                },
                {
                    "name": "F4",
                    "midi": 65,
                    "time": 16.474591499999985,
                    "velocity": 0.2677165354330709,
                    "duration": 0.11601824999999977
                },
                {
                    "name": "A#3",
                    "midi": 58,
                    "time": 16.706627999999984,
                    "velocity": 0.33070866141732286,
                    "duration": 0.11601824999999977
                },
                {
                    "name": "D4",
                    "midi": 62,
                    "time": 16.706627999999984,
                    "velocity": 0.33070866141732286,
                    "duration": 0.11601824999999977
                },
                {
                    "name": "A3",
                    "midi": 57,
                    "time": 16.938664499999984,
                    "velocity": 0.2992125984251969,
                    "duration": 0.11601824999999977
                },
                {
                    "name": "G3",
                    "midi": 55,
                    "time": 17.170700999999983,
                    "velocity": 0.29133858267716534,
                    "duration": 0.11601824999999977
                },
                {
                    "name": "F3",
                    "midi": 53,
                    "time": 17.402737499999983,
                    "velocity": 0.28346456692913385,
                    "duration": 0.11601824999999977
                },
                {
                    "name": "D#3",
                    "midi": 51,
                    "time": 17.634773999999982,
                    "velocity": 0.33070866141732286,
                    "duration": 0.11601824999999977
                },
                {
                    "name": "G3",
                    "midi": 55,
                    "time": 17.866810499999982,
                    "velocity": 0.28346456692913385,
                    "duration": 0.11601824999999977
                },
                {
                    "name": "A#3",
                    "midi": 58,
                    "time": 17.866810499999982,
                    "velocity": 0.28346456692913385,
                    "duration": 0.11601824999999977
                },
                {
                    "name": "C3",
                    "midi": 48,
                    "time": 18.09884699999998,
                    "velocity": 0.28346456692913385,
                    "duration": 0.11601824999999977
                },
                {
                    "name": "C4",
                    "midi": 60,
                    "time": 18.33088349999998,
                    "velocity": 0.28346456692913385,
                    "duration": 0.11601824999999977
                },
                {
                    "name": "G3",
                    "midi": 55,
                    "time": 18.33088349999998,
                    "velocity": 0.28346456692913385,
                    "duration": 0.11601824999999977
                },
                {
                    "name": "F3",
                    "midi": 53,
                    "time": 18.56291999999998,
                    "velocity": 0.33070866141732286,
                    "duration": 0.11601824999999977
                },
                {
                    "name": "A3",
                    "midi": 57,
                    "time": 18.79495649999998,
                    "velocity": 0.2755905511811024,
                    "duration": 0.11601824999999977
                },
                {
                    "name": "C4",
                    "midi": 60,
                    "time": 18.79495649999998,
                    "velocity": 0.2755905511811024,
                    "duration": 0.11601824999999977
                },
                {
                    "name": "D#3",
                    "midi": 51,
                    "time": 19.02699299999998,
                    "velocity": 0.28346456692913385,
                    "duration": 0.11601824999999977
                },
                {
                    "name": "A3",
                    "midi": 57,
                    "time": 19.25902949999998,
                    "velocity": 0.28346456692913385,
                    "duration": 0.11601824999999977
                },
                {
                    "name": "C4",
                    "midi": 60,
                    "time": 19.25902949999998,
                    "velocity": 0.28346456692913385,
                    "duration": 0.11601824999999977
                },
                {
                    "name": "D3",
                    "midi": 50,
                    "time": 19.49106599999998,
                    "velocity": 0.30708661417322836,
                    "duration": 0.23203649999999953
                },
                {
                    "name": "A#3",
                    "midi": 58,
                    "time": 19.723102499999978,
                    "velocity": 0.2677165354330709,
                    "duration": 0.23203649999999953
                },
                {
                    "name": "F3",
                    "midi": 53,
                    "time": 19.723102499999978,
                    "velocity": 0.2283464566929134,
                    "duration": 0.23203649999999953
                },
                {
                    "name": "A#2",
                    "midi": 46,
                    "time": 19.955138999999978,
                    "velocity": 0.2677165354330709,
                    "duration": 0.23203649999999953
                },
                {
                    "name": "A#3",
                    "midi": 58,
                    "time": 20.187175499999977,
                    "velocity": 0.2677165354330709,
                    "duration": 0.23203649999999953
                },
                {
                    "name": "F3",
                    "midi": 53,
                    "time": 20.187175499999977,
                    "velocity": 0.2283464566929134,
                    "duration": 0.23203649999999953
                },
                {
                    "name": "D#3",
                    "midi": 51,
                    "time": 20.419211999999977,
                    "velocity": 0.31496062992125984,
                    "duration": 0.23203649999999953
                },
                {
                    "name": "G3",
                    "midi": 55,
                    "time": 20.651248499999976,
                    "velocity": 0.2283464566929134,
                    "duration": 0.23203649999999953
                },
                {
                    "name": "A#3",
                    "midi": 58,
                    "time": 20.651248499999976,
                    "velocity": 0.2677165354330709,
                    "duration": 0.23203649999999953
                },
                {
                    "name": "D3",
                    "midi": 50,
                    "time": 20.883284999999976,
                    "velocity": 0.2677165354330709,
                    "duration": 0.23203649999999953
                },
                {
                    "name": "G3",
                    "midi": 55,
                    "time": 21.115321499999975,
                    "velocity": 0.2283464566929134,
                    "duration": 0.23203649999999953
                },
                {
                    "name": "A#3",
                    "midi": 58,
                    "time": 21.115321499999975,
                    "velocity": 0.2677165354330709,
                    "duration": 0.23203649999999953
                },
                {
                    "name": "C3",
                    "midi": 48,
                    "time": 21.347357999999975,
                    "velocity": 0.33070866141732286,
                    "duration": 0.23203649999999953
                },
                {
                    "name": "D#3",
                    "midi": 51,
                    "time": 21.579394499999974,
                    "velocity": 0.23622047244094488,
                    "duration": 0.23203649999999953
                },
                {
                    "name": "A3",
                    "midi": 57,
                    "time": 21.579394499999974,
                    "velocity": 0.28346456692913385,
                    "duration": 0.23203649999999953
                },
                {
                    "name": "A2",
                    "midi": 45,
                    "time": 21.811430999999974,
                    "velocity": 0.28346456692913385,
                    "duration": 0.23203649999999953
                },
                {
                    "name": "D#3",
                    "midi": 51,
                    "time": 22.043467499999974,
                    "velocity": 0.23622047244094488,
                    "duration": 0.23203649999999953
                },
                {
                    "name": "A3",
                    "midi": 57,
                    "time": 22.043467499999974,
                    "velocity": 0.28346456692913385,
                    "duration": 0.23203649999999953
                },
                {
                    "name": "D3",
                    "midi": 50,
                    "time": 22.275503999999973,
                    "velocity": 0.33070866141732286,
                    "duration": 0.23203649999999953
                },
                {
                    "name": "A3",
                    "midi": 57,
                    "time": 22.507540499999973,
                    "velocity": 0.2755905511811024,
                    "duration": 0.23203649999999953
                },
                {
                    "name": "F#3",
                    "midi": 54,
                    "time": 22.507540499999973,
                    "velocity": 0.2283464566929134,
                    "duration": 0.23203649999999953
                },
                {
                    "name": "F#2",
                    "midi": 42,
                    "time": 22.739576999999972,
                    "velocity": 0.33070866141732286,
                    "duration": 0.11601824999999977
                },
                {
                    "name": "D3",
                    "midi": 50,
                    "time": 22.97161349999997,
                    "velocity": 0.23622047244094488,
                    "duration": 0.11601824999999977
                },
                {
                    "name": "F#3",
                    "midi": 54,
                    "time": 22.97161349999997,
                    "velocity": 0.28346456692913385,
                    "duration": 0.11601824999999977
                },
                {
                    "name": "G2",
                    "midi": 43,
                    "time": 23.20364999999997,
                    "velocity": 0.3700787401574803,
                    "duration": 0.11601824999999977
                },
                {
                    "name": "G3",
                    "midi": 55,
                    "time": 23.43568649999997,
                    "velocity": 0.30708661417322836,
                    "duration": 0.11601824999999977
                },
                {
                    "name": "D#2",
                    "midi": 39,
                    "time": 23.66772299999997,
                    "velocity": 0.3858267716535433,
                    "duration": 0.11601824999999977
                },
                {
                    "name": "D#3",
                    "midi": 51,
                    "time": 23.89975949999997,
                    "velocity": 0.3464566929133858,
                    "duration": 0.11601824999999977
                },
                {
                    "name": "C2",
                    "midi": 36,
                    "time": 24.13179599999997,
                    "velocity": 0.4015748031496063,
                    "duration": 0.11601824999999977
                },
                {
                    "name": "C3",
                    "midi": 48,
                    "time": 24.36383249999997,
                    "velocity": 0.36220472440944884,
                    "duration": 0.11601824999999977
                },
                {
                    "name": "D2",
                    "midi": 38,
                    "time": 24.59586899999997,
                    "velocity": 0.4251968503937008,
                    "duration": 0.11601824999999977
                },
                {
                    "name": "D3",
                    "midi": 50,
                    "time": 24.827905499999968,
                    "velocity": 0.3543307086614173,
                    "duration": 0.11601824999999977
                },
                {
                    "name": "C2",
                    "midi": 36,
                    "time": 25.059941999999968,
                    "velocity": 0.3464566929133858,
                    "duration": 0.23203649999999953
                },
                {
                    "name": "D#3",
                    "midi": 51,
                    "time": 25.059941999999968,
                    "velocity": 0.4094488188976378,
                    "duration": 0.23203649999999953
                },
                {
                    "name": "D3",
                    "midi": 50,
                    "time": 25.524014999999967,
                    "velocity": 0.4015748031496063,
                    "duration": 1.3922190000000008
                },
                {
                    "name": "F#3",
                    "midi": 54,
                    "time": 25.524014999999967,
                    "velocity": 0.47244094488188976,
                    "duration": 1.3922190000000008
                },
                {
                    "name": "F#2",
                    "midi": 42,
                    "time": 25.524014999999967,
                    "velocity": 0.4015748031496063,
                    "duration": 1.3922190000000008
                },
                {
                    "name": "G2",
                    "midi": 43,
                    "time": 26.916233999999967,
                    "velocity": 0.3937007874015748,
                    "duration": 0.23203649999999953
                },
                {
                    "name": "G3",
                    "midi": 55,
                    "time": 27.148270499999967,
                    "velocity": 0.3543307086614173,
                    "duration": 0.11601824999999977
                },
                {
                    "name": "D#2",
                    "midi": 39,
                    "time": 27.380306999999966,
                    "velocity": 0.3543307086614173,
                    "duration": 0.23203649999999953
                },
                {
                    "name": "D#3",
                    "midi": 51,
                    "time": 27.612343499999966,
                    "velocity": 0.3543307086614173,
                    "duration": 0.23203649999999953
                },
                {
                    "name": "C2",
                    "midi": 36,
                    "time": 27.844379999999965,
                    "velocity": 0.3937007874015748,
                    "duration": 0.23203649999999953
                },
                {
                    "name": "C3",
                    "midi": 48,
                    "time": 28.076416499999965,
                    "velocity": 0.3543307086614173,
                    "duration": 0.23203649999999953
                },
                {
                    "name": "D2",
                    "midi": 38,
                    "time": 28.308452999999965,
                    "velocity": 0.3543307086614173,
                    "duration": 0.23203649999999953
                },
                {
                    "name": "D3",
                    "midi": 50,
                    "time": 28.540489499999964,
                    "velocity": 0.3543307086614173,
                    "duration": 0.23203649999999953
                },
                {
                    "name": "G2",
                    "midi": 43,
                    "time": 28.772525999999964,
                    "velocity": 0.3937007874015748,
                    "duration": 0.23203649999999953
                },
                {
                    "name": "G1",
                    "midi": 31,
                    "time": 28.772525999999964,
                    "velocity": 0.33070866141732286,
                    "duration": 0.23203649999999953
                },
                {
                    "name": "G3",
                    "midi": 55,
                    "time": 29.236598999999963,
                    "velocity": 0.6141732283464567,
                    "duration": 1.3922190000000008
                },
                {
                    "name": "G4",
                    "midi": 67,
                    "time": 29.236598999999963,
                    "velocity": 0.7401574803149606,
                    "duration": 1.3922190000000008
                },
                {
                    "name": "G3",
                    "midi": 55,
                    "time": 30.628817999999963,
                    "velocity": 0.33070866141732286,
                    "duration": 0.23203649999999953
                },
                {
                    "name": "G4",
                    "midi": 67,
                    "time": 30.860854499999963,
                    "velocity": 0.2440944881889764,
                    "duration": 0.11601824999999977
                },
                {
                    "name": "F4",
                    "midi": 65,
                    "time": 31.092890999999963,
                    "velocity": 0.2440944881889764,
                    "duration": 0.11601824999999977
                },
                {
                    "name": "D4",
                    "midi": 62,
                    "time": 31.092890999999963,
                    "velocity": 0.2047244094488189,
                    "duration": 0.11601824999999977
                },
                {
                    "name": "G4",
                    "midi": 67,
                    "time": 31.324927499999962,
                    "velocity": 0.25196850393700787,
                    "duration": 0.11601824999999977
                },
                {
                    "name": "G3",
                    "midi": 55,
                    "time": 31.55696399999996,
                    "velocity": 0.3464566929133858,
                    "duration": 0.23203649999999953
                },
                {
                    "name": "G4",
                    "midi": 67,
                    "time": 31.78900049999996,
                    "velocity": 0.2440944881889764,
                    "duration": 0.2320365000000031
                },
                {
                    "name": "D#4",
                    "midi": 63,
                    "time": 32.021036999999964,
                    "velocity": 0.2755905511811024,
                    "duration": 0.23203649999999953
                },
                {
                    "name": "C4",
                    "midi": 60,
                    "time": 32.021036999999964,
                    "velocity": 0.2283464566929134,
                    "duration": 0.23203649999999953
                },
                {
                    "name": "G4",
                    "midi": 67,
                    "time": 32.253073499999964,
                    "velocity": 0.25196850393700787,
                    "duration": 0.23203649999999953
                },
                {
                    "name": "G3",
                    "midi": 55,
                    "time": 32.48510999999996,
                    "velocity": 0.33070866141732286,
                    "duration": 0.23203649999999953
                },
                {
                    "name": "G4",
                    "midi": 67,
                    "time": 32.71714649999996,
                    "velocity": 0.2440944881889764,
                    "duration": 0.11601825000000332
                },
                {
                    "name": "F4",
                    "midi": 65,
                    "time": 32.94918299999997,
                    "velocity": 0.2440944881889764,
                    "duration": 0.11601825000000332
                },
                {
                    "name": "D4",
                    "midi": 62,
                    "time": 32.94918299999997,
                    "velocity": 0.2047244094488189,
                    "duration": 0.11601825000000332
                },
                {
                    "name": "G4",
                    "midi": 67,
                    "time": 33.181219499999976,
                    "velocity": 0.2283464566929134,
                    "duration": 0.11601825000000332
                },
                {
                    "name": "G3",
                    "midi": 55,
                    "time": 33.41325599999998,
                    "velocity": 0.3464566929133858,
                    "duration": 0.23203649999999953
                },
                {
                    "name": "G4",
                    "midi": 67,
                    "time": 33.64529249999998,
                    "velocity": 0.25196850393700787,
                    "duration": 0.11601825000000332
                },
                {
                    "name": "F#3",
                    "midi": 54,
                    "time": 33.87732899999999,
                    "velocity": 0.2283464566929134,
                    "duration": 0.11601825000000332
                },
                {
                    "name": "D#4",
                    "midi": 63,
                    "time": 33.87732899999999,
                    "velocity": 0.2755905511811024,
                    "duration": 0.11601825000000332
                },
                {
                    "name": "C4",
                    "midi": 60,
                    "time": 33.87732899999999,
                    "velocity": 0.2283464566929134,
                    "duration": 0.11601825000000332
                },
                {
                    "name": "F#4",
                    "midi": 66,
                    "time": 34.109365499999996,
                    "velocity": 0.2755905511811024,
                    "duration": 0.23203649999999953
                },
                {
                    "name": "F3",
                    "midi": 53,
                    "time": 34.341401999999995,
                    "velocity": 0.33070866141732286,
                    "duration": 0.23203649999999953
                },
                {
                    "name": "F4",
                    "midi": 65,
                    "time": 34.573438499999995,
                    "velocity": 0.2755905511811024,
                    "duration": 0.11601825000000332
                },
                {
                    "name": "D4",
                    "midi": 62,
                    "time": 34.805475,
                    "velocity": 0.2755905511811024,
                    "duration": 0.11601825000000332
                },
                {
                    "name": "F4",
                    "midi": 65,
                    "time": 35.03751150000001,
                    "velocity": 0.28346456692913385,
                    "duration": 0.11601825000000332
                },
                {
                    "name": "G3",
                    "midi": 55,
                    "time": 35.269548000000015,
                    "velocity": 0.33070866141732286,
                    "duration": 0.23203649999999953
                },
                {
                    "name": "E4",
                    "midi": 64,
                    "time": 35.501584500000014,
                    "velocity": 0.28346456692913385,
                    "duration": 0.11601825000000332
                },
                {
                    "name": "C4",
                    "midi": 60,
                    "time": 35.73362100000002,
                    "velocity": 0.28346456692913385,
                    "duration": 0.11601825000000332
                },
                {
                    "name": "E4",
                    "midi": 64,
                    "time": 35.96565750000003,
                    "velocity": 0.28346456692913385,
                    "duration": 0.11601825000000332
                },
                {
                    "name": "D4",
                    "midi": 62,
                    "time": 36.197694000000034,
                    "velocity": 0.33070866141732286,
                    "duration": 0.23203649999999953
                },
                {
                    "name": "F3",
                    "midi": 53,
                    "time": 36.197694000000034,
                    "velocity": 0.2755905511811024,
                    "duration": 0.23203649999999953
                },
                {
                    "name": "F4",
                    "midi": 65,
                    "time": 36.42973050000003,
                    "velocity": 0.25984251968503935,
                    "duration": 0.23203649999999953
                },
                {
                    "name": "D#4",
                    "midi": 63,
                    "time": 36.66176700000003,
                    "velocity": 0.2755905511811024,
                    "duration": 0.11601824999999621
                },
                {
                    "name": "F3",
                    "midi": 53,
                    "time": 36.66176700000003,
                    "velocity": 0.2283464566929134,
                    "duration": 0.11601824999999621
                },
                {
                    "name": "F4",
                    "midi": 65,
                    "time": 36.89380350000003,
                    "velocity": 0.2677165354330709,
                    "duration": 0.11601825000000332
                },
                {
                    "name": "A#3",
                    "midi": 58,
                    "time": 37.12584000000004,
                    "velocity": 0.33070866141732286,
                    "duration": 0.11601825000000332
                },
                {
                    "name": "D4",
                    "midi": 62,
                    "time": 37.12584000000004,
                    "velocity": 0.33070866141732286,
                    "duration": 0.11601825000000332
                },
                {
                    "name": "A3",
                    "midi": 57,
                    "time": 37.357876500000046,
                    "velocity": 0.2992125984251969,
                    "duration": 0.11601825000000332
                },
                {
                    "name": "G3",
                    "midi": 55,
                    "time": 37.58991300000005,
                    "velocity": 0.29133858267716534,
                    "duration": 0.11601825000000332
                },
                {
                    "name": "F3",
                    "midi": 53,
                    "time": 37.82194950000006,
                    "velocity": 0.28346456692913385,
                    "duration": 0.11601825000000332
                },
                {
                    "name": "D#3",
                    "midi": 51,
                    "time": 38.053986000000066,
                    "velocity": 0.33070866141732286,
                    "duration": 0.11601825000000332
                },
                {
                    "name": "A#3",
                    "midi": 58,
                    "time": 38.28602250000007,
                    "velocity": 0.28346456692913385,
                    "duration": 0.11601825000000332
                },
                {
                    "name": "G3",
                    "midi": 55,
                    "time": 38.28602250000007,
                    "velocity": 0.28346456692913385,
                    "duration": 0.11601825000000332
                },
                {
                    "name": "C3",
                    "midi": 48,
                    "time": 38.51805900000008,
                    "velocity": 0.28346456692913385,
                    "duration": 0.11601825000000332
                },
                {
                    "name": "G3",
                    "midi": 55,
                    "time": 38.750095500000086,
                    "velocity": 0.28346456692913385,
                    "duration": 0.11601825000000332
                },
                {
                    "name": "C4",
                    "midi": 60,
                    "time": 38.750095500000086,
                    "velocity": 0.28346456692913385,
                    "duration": 0.11601825000000332
                },
                {
                    "name": "F3",
                    "midi": 53,
                    "time": 38.98213200000009,
                    "velocity": 0.33070866141732286,
                    "duration": 0.11601825000000332
                },
                {
                    "name": "C4",
                    "midi": 60,
                    "time": 39.2141685000001,
                    "velocity": 0.2755905511811024,
                    "duration": 0.11601825000000332
                },
                {
                    "name": "A3",
                    "midi": 57,
                    "time": 39.2141685000001,
                    "velocity": 0.2755905511811024,
                    "duration": 0.11601825000000332
                },
                {
                    "name": "D#3",
                    "midi": 51,
                    "time": 39.446205000000106,
                    "velocity": 0.28346456692913385,
                    "duration": 0.11601825000000332
                },
                {
                    "name": "A3",
                    "midi": 57,
                    "time": 39.67824150000011,
                    "velocity": 0.28346456692913385,
                    "duration": 0.11601825000000332
                },
                {
                    "name": "C4",
                    "midi": 60,
                    "time": 39.67824150000011,
                    "velocity": 0.28346456692913385,
                    "duration": 0.11601825000000332
                },
                {
                    "name": "D3",
                    "midi": 50,
                    "time": 39.91027800000012,
                    "velocity": 0.30708661417322836,
                    "duration": 0.23203649999999953
                },
                {
                    "name": "A#3",
                    "midi": 58,
                    "time": 40.14231450000012,
                    "velocity": 0.2677165354330709,
                    "duration": 0.23203649999999953
                },
                {
                    "name": "F3",
                    "midi": 53,
                    "time": 40.14231450000012,
                    "velocity": 0.2283464566929134,
                    "duration": 0.23203649999999953
                },
                {
                    "name": "A#2",
                    "midi": 46,
                    "time": 40.37435100000012,
                    "velocity": 0.2677165354330709,
                    "duration": 0.23203649999999953
                },
                {
                    "name": "F3",
                    "midi": 53,
                    "time": 40.60638750000012,
                    "velocity": 0.2283464566929134,
                    "duration": 0.23203649999999953
                },
                {
                    "name": "A#3",
                    "midi": 58,
                    "time": 40.60638750000012,
                    "velocity": 0.2677165354330709,
                    "duration": 0.23203649999999953
                },
                {
                    "name": "D#3",
                    "midi": 51,
                    "time": 40.83842400000012,
                    "velocity": 0.31496062992125984,
                    "duration": 0.23203649999999953
                },
                {
                    "name": "A#3",
                    "midi": 58,
                    "time": 41.07046050000012,
                    "velocity": 0.2677165354330709,
                    "duration": 0.23203649999999953
                },
                {
                    "name": "G3",
                    "midi": 55,
                    "time": 41.07046050000012,
                    "velocity": 0.2283464566929134,
                    "duration": 0.23203649999999953
                },
                {
                    "name": "D3",
                    "midi": 50,
                    "time": 41.302497000000116,
                    "velocity": 0.2677165354330709,
                    "duration": 0.23203650000000664
                },
                {
                    "name": "A#3",
                    "midi": 58,
                    "time": 41.53453350000012,
                    "velocity": 0.2283464566929134,
                    "duration": 0.23203649999999953
                },
                {
                    "name": "G3",
                    "midi": 55,
                    "time": 41.53453350000012,
                    "velocity": 0.2283464566929134,
                    "duration": 0.23203649999999953
                },
                {
                    "name": "C3",
                    "midi": 48,
                    "time": 41.76657000000012,
                    "velocity": 0.25984251968503935,
                    "duration": 0.23203649999999953
                },
                {
                    "name": "C4",
                    "midi": 60,
                    "time": 41.99860650000012,
                    "velocity": 0.2283464566929134,
                    "duration": 0.23203649999999953
                },
                {
                    "name": "G#3",
                    "midi": 56,
                    "time": 41.99860650000012,
                    "velocity": 0.2283464566929134,
                    "duration": 0.23203649999999953
                },
                {
                    "name": "D#3",
                    "midi": 51,
                    "time": 42.23064300000012,
                    "velocity": 0.2283464566929134,
                    "duration": 0.23203649999999953
                },
                {
                    "name": "C4",
                    "midi": 60,
                    "time": 42.46267950000012,
                    "velocity": 0.2283464566929134,
                    "duration": 0.23203649999999953
                },
                {
                    "name": "G#3",
                    "midi": 56,
                    "time": 42.46267950000012,
                    "velocity": 0.2283464566929134,
                    "duration": 0.23203649999999953
                },
                {
                    "name": "C3",
                    "midi": 48,
                    "time": 42.69471600000012,
                    "velocity": 0.25984251968503935,
                    "duration": 0.23203650000000664
                },
                {
                    "name": "C4",
                    "midi": 60,
                    "time": 42.92675250000013,
                    "velocity": 0.2204724409448819,
                    "duration": 0.23203649999999953
                },
                {
                    "name": "G#3",
                    "midi": 56,
                    "time": 42.92675250000013,
                    "velocity": 0.2204724409448819,
                    "duration": 0.23203649999999953
                },
                {
                    "name": "D#3",
                    "midi": 51,
                    "time": 43.15878900000013,
                    "velocity": 0.2283464566929134,
                    "duration": 0.23203649999999953
                },
                {
                    "name": "G#3",
                    "midi": 56,
                    "time": 43.390825500000126,
                    "velocity": 0.2283464566929134,
                    "duration": 0.23203649999999953
                },
                {
                    "name": "C4",
                    "midi": 60,
                    "time": 43.390825500000126,
                    "velocity": 0.2283464566929134,
                    "duration": 0.23203649999999953
                },
                {
                    "name": "C#3",
                    "midi": 49,
                    "time": 43.622862000000126,
                    "velocity": 0.25984251968503935,
                    "duration": 0.23203650000000664
                },
                {
                    "name": "G3",
                    "midi": 55,
                    "time": 43.85489850000013,
                    "velocity": 0.2283464566929134,
                    "duration": 0.23203649999999953
                },
                {
                    "name": "A#3",
                    "midi": 58,
                    "time": 43.85489850000013,
                    "velocity": 0.2283464566929134,
                    "duration": 0.23203649999999953
                },
                {
                    "name": "D#3",
                    "midi": 51,
                    "time": 44.08693500000013,
                    "velocity": 0.2283464566929134,
                    "duration": 0.23203649999999953
                },
                {
                    "name": "A#3",
                    "midi": 58,
                    "time": 44.31897150000013,
                    "velocity": 0.2283464566929134,
                    "duration": 0.23203649999999953
                },
                {
                    "name": "G3",
                    "midi": 55,
                    "time": 44.31897150000013,
                    "velocity": 0.2283464566929134,
                    "duration": 0.23203649999999953
                },
                {
                    "name": "C#3",
                    "midi": 49,
                    "time": 44.55100800000013,
                    "velocity": 0.25984251968503935,
                    "duration": 0.23203649999999953
                },
                {
                    "name": "A#3",
                    "midi": 58,
                    "time": 44.78304450000013,
                    "velocity": 0.2204724409448819,
                    "duration": 0.23203649999999953
                },
                {
                    "name": "G3",
                    "midi": 55,
                    "time": 44.78304450000013,
                    "velocity": 0.2204724409448819,
                    "duration": 0.23203649999999953
                },
                {
                    "name": "D#3",
                    "midi": 51,
                    "time": 45.01508100000013,
                    "velocity": 0.2283464566929134,
                    "duration": 0.11601825000000332
                },
                {
                    "name": "G3",
                    "midi": 55,
                    "time": 45.24711750000014,
                    "velocity": 0.2283464566929134,
                    "duration": 0.11601825000000332
                },
                {
                    "name": "A#3",
                    "midi": 58,
                    "time": 45.24711750000014,
                    "velocity": 0.2283464566929134,
                    "duration": 0.11601825000000332
                },
                {
                    "name": "C3",
                    "midi": 48,
                    "time": 45.47915400000014,
                    "velocity": 0.2440944881889764,
                    "duration": 0.11601825000000332
                },
                {
                    "name": "C4",
                    "midi": 60,
                    "time": 45.71119050000015,
                    "velocity": 0.2125984251968504,
                    "duration": 0.11601825000000332
                },
                {
                    "name": "G#3",
                    "midi": 56,
                    "time": 45.71119050000015,
                    "velocity": 0.18110236220472442,
                    "duration": 0.11601825000000332
                },
                {
                    "name": "D#3",
                    "midi": 51,
                    "time": 45.94322700000016,
                    "velocity": 0.2125984251968504,
                    "duration": 0.11601825000000332
                },
                {
                    "name": "C4",
                    "midi": 60,
                    "time": 46.17526350000016,
                    "velocity": 0.2125984251968504,
                    "duration": 0.11601825000000332
                },
                {
                    "name": "G#3",
                    "midi": 56,
                    "time": 46.17526350000016,
                    "velocity": 0.18110236220472442,
                    "duration": 0.11601825000000332
                },
                {
                    "name": "C3",
                    "midi": 48,
                    "time": 46.40730000000017,
                    "velocity": 0.25196850393700787,
                    "duration": 0.11601825000000332
                },
                {
                    "name": "G#3",
                    "midi": 56,
                    "time": 46.63933650000017,
                    "velocity": 0.18110236220472442,
                    "duration": 0.11601825000000332
                },
                {
                    "name": "C4",
                    "midi": 60,
                    "time": 46.63933650000017,
                    "velocity": 0.2125984251968504,
                    "duration": 0.11601825000000332
                },
                {
                    "name": "D#3",
                    "midi": 51,
                    "time": 46.871373000000176,
                    "velocity": 0.25196850393700787,
                    "duration": 0.11601825000000332
                },
                {
                    "name": "G#3",
                    "midi": 56,
                    "time": 47.10340950000018,
                    "velocity": 0.18110236220472442,
                    "duration": 0.11601825000000332
                },
                {
                    "name": "C4",
                    "midi": 60,
                    "time": 47.10340950000018,
                    "velocity": 0.2125984251968504,
                    "duration": 0.11601825000000332
                },
                {
                    "name": "C#3",
                    "midi": 49,
                    "time": 47.33544600000019,
                    "velocity": 0.25196850393700787,
                    "duration": 0.23203649999999953
                },
                {
                    "name": "G3",
                    "midi": 55,
                    "time": 47.56748250000019,
                    "velocity": 0.2283464566929134,
                    "duration": 0.11601825000000332
                },
                {
                    "name": "A#3",
                    "midi": 58,
                    "time": 47.56748250000019,
                    "velocity": 0.2283464566929134,
                    "duration": 0.11601825000000332
                },
                {
                    "name": "D#3",
                    "midi": 51,
                    "time": 47.799519000000195,
                    "velocity": 0.25196850393700787,
                    "duration": 0.23203650000000664
                },
                {
                    "name": "A#3",
                    "midi": 58,
                    "time": 48.0315555000002,
                    "velocity": 0.2283464566929134,
                    "duration": 0.23203649999999953
                },
                {
                    "name": "G3",
                    "midi": 55,
                    "time": 48.0315555000002,
                    "velocity": 0.2283464566929134,
                    "duration": 0.23203649999999953
                },
                {
                    "name": "C#3",
                    "midi": 49,
                    "time": 48.2635920000002,
                    "velocity": 0.2677165354330709,
                    "duration": 0.23203649999999953
                },
                {
                    "name": "A#3",
                    "midi": 58,
                    "time": 48.4956285000002,
                    "velocity": 0.2283464566929134,
                    "duration": 0.11601824999999621
                },
                {
                    "name": "G3",
                    "midi": 55,
                    "time": 48.4956285000002,
                    "velocity": 0.2283464566929134,
                    "duration": 0.11601824999999621
                },
                {
                    "name": "D#3",
                    "midi": 51,
                    "time": 48.7276650000002,
                    "velocity": 0.2440944881889764,
                    "duration": 0.11601825000000332
                },
                {
                    "name": "A#3",
                    "midi": 58,
                    "time": 48.95970150000021,
                    "velocity": 0.2677165354330709,
                    "duration": 0.11601825000000332
                },
                {
                    "name": "G3",
                    "midi": 55,
                    "time": 48.95970150000021,
                    "velocity": 0.2677165354330709,
                    "duration": 0.11601825000000332
                },
                {
                    "name": "C3",
                    "midi": 48,
                    "time": 49.191738000000214,
                    "velocity": 0.29133858267716534,
                    "duration": 0.23203649999999953
                },
                {
                    "name": "G#3",
                    "midi": 56,
                    "time": 49.42377450000021,
                    "velocity": 0.2125984251968504,
                    "duration": 0.23203649999999953
                },
                {
                    "name": "C4",
                    "midi": 60,
                    "time": 49.42377450000021,
                    "velocity": 0.25196850393700787,
                    "duration": 0.23203649999999953
                },
                {
                    "name": "D#3",
                    "midi": 51,
                    "time": 49.65581100000021,
                    "velocity": 0.25196850393700787,
                    "duration": 0.23203649999999953
                },
                {
                    "name": "G#3",
                    "midi": 56,
                    "time": 49.88784750000021,
                    "velocity": 0.2125984251968504,
                    "duration": 0.23203649999999953
                },
                {
                    "name": "C4",
                    "midi": 60,
                    "time": 49.88784750000021,
                    "velocity": 0.25196850393700787,
                    "duration": 0.23203649999999953
                },
                {
                    "name": "C3",
                    "midi": 48,
                    "time": 50.11988400000021,
                    "velocity": 0.29133858267716534,
                    "duration": 0.23203649999999953
                },
                {
                    "name": "C4",
                    "midi": 60,
                    "time": 50.35192050000021,
                    "velocity": 0.25196850393700787,
                    "duration": 0.23203649999999953
                },
                {
                    "name": "G#3",
                    "midi": 56,
                    "time": 50.35192050000021,
                    "velocity": 0.2125984251968504,
                    "duration": 0.23203649999999953
                },
                {
                    "name": "D#3",
                    "midi": 51,
                    "time": 50.58395700000021,
                    "velocity": 0.25196850393700787,
                    "duration": 0.23203649999999953
                },
                {
                    "name": "C4",
                    "midi": 60,
                    "time": 50.81599350000021,
                    "velocity": 0.25196850393700787,
                    "duration": 0.23203649999999953
                },
                {
                    "name": "G#3",
                    "midi": 56,
                    "time": 50.81599350000021,
                    "velocity": 0.2125984251968504,
                    "duration": 0.23203649999999953
                },
                {
                    "name": "C#3",
                    "midi": 49,
                    "time": 51.04803000000021,
                    "velocity": 0.29133858267716534,
                    "duration": 0.23203650000000664
                },
                {
                    "name": "A#3",
                    "midi": 58,
                    "time": 51.28006650000022,
                    "velocity": 0.25196850393700787,
                    "duration": 0.23203649999999953
                },
                {
                    "name": "G3",
                    "midi": 55,
                    "time": 51.28006650000022,
                    "velocity": 0.2125984251968504,
                    "duration": 0.23203649999999953
                },
                {
                    "name": "E3",
                    "midi": 52,
                    "time": 51.51210300000022,
                    "velocity": 0.25196850393700787,
                    "duration": 0.23203649999999953
                },
                {
                    "name": "G3",
                    "midi": 55,
                    "time": 51.744139500000216,
                    "velocity": 0.2125984251968504,
                    "duration": 0.23203649999999953
                },
                {
                    "name": "A#3",
                    "midi": 58,
                    "time": 51.744139500000216,
                    "velocity": 0.25196850393700787,
                    "duration": 0.23203649999999953
                },
                {
                    "name": "C#3",
                    "midi": 49,
                    "time": 51.976176000000216,
                    "velocity": 0.29133858267716534,
                    "duration": 0.23203649999999953
                },
                {
                    "name": "A#3",
                    "midi": 58,
                    "time": 52.208212500000215,
                    "velocity": 0.25196850393700787,
                    "duration": 0.23203649999999953
                },
                {
                    "name": "G3",
                    "midi": 55,
                    "time": 52.208212500000215,
                    "velocity": 0.2125984251968504,
                    "duration": 0.23203649999999953
                },
                {
                    "name": "E3",
                    "midi": 52,
                    "time": 52.440249000000215,
                    "velocity": 0.28346456692913385,
                    "duration": 0.23203649999999953
                },
                {
                    "name": "A#3",
                    "midi": 58,
                    "time": 52.672285500000214,
                    "velocity": 0.30708661417322836,
                    "duration": 0.23203649999999953
                },
                {
                    "name": "G3",
                    "midi": 55,
                    "time": 52.672285500000214,
                    "velocity": 0.25196850393700787,
                    "duration": 0.23203649999999953
                },
                {
                    "name": "D3",
                    "midi": 50,
                    "time": 52.904322000000214,
                    "velocity": 0.3464566929133858,
                    "duration": 0.23203649999999953
                },
                {
                    "name": "A#3",
                    "midi": 58,
                    "time": 53.13635850000021,
                    "velocity": 0.2440944881889764,
                    "duration": 0.23203649999999953
                },
                {
                    "name": "D4",
                    "midi": 62,
                    "time": 53.13635850000021,
                    "velocity": 0.2992125984251969,
                    "duration": 0.23203649999999953
                },
                {
                    "name": "F3",
                    "midi": 53,
                    "time": 53.36839500000021,
                    "velocity": 0.2992125984251969,
                    "duration": 0.23203649999999953
                },
                {
                    "name": "A#3",
                    "midi": 58,
                    "time": 53.60043150000021,
                    "velocity": 0.2440944881889764,
                    "duration": 0.23203649999999953
                },
                {
                    "name": "D4",
                    "midi": 62,
                    "time": 53.60043150000021,
                    "velocity": 0.2992125984251969,
                    "duration": 0.23203649999999953
                },
                {
                    "name": "D3",
                    "midi": 50,
                    "time": 53.83246800000021,
                    "velocity": 0.3779527559055118,
                    "duration": 0.23203649999999953
                },
                {
                    "name": "D4",
                    "midi": 62,
                    "time": 54.06450450000021,
                    "velocity": 0.29133858267716534,
                    "duration": 0.23203649999999953
                },
                {
                    "name": "A#3",
                    "midi": 58,
                    "time": 54.06450450000021,
                    "velocity": 0.2440944881889764,
                    "duration": 0.23203649999999953
                },
                {
                    "name": "F3",
                    "midi": 53,
                    "time": 54.29654100000021,
                    "velocity": 0.29133858267716534,
                    "duration": 0.23203649999999953
                },
                {
                    "name": "D4",
                    "midi": 62,
                    "time": 54.52857750000021,
                    "velocity": 0.29133858267716534,
                    "duration": 0.23203649999999953
                },
                {
                    "name": "A#3",
                    "midi": 58,
                    "time": 54.52857750000021,
                    "velocity": 0.2440944881889764,
                    "duration": 0.23203649999999953
                },
                {
                    "name": "D#3",
                    "midi": 51,
                    "time": 54.76061400000021,
                    "velocity": 0.3937007874015748,
                    "duration": 0.23203649999999953
                },
                {
                    "name": "C4",
                    "midi": 60,
                    "time": 54.99265050000021,
                    "velocity": 0.2677165354330709,
                    "duration": 0.23203649999999953
                },
                {
                    "name": "D#4",
                    "midi": 63,
                    "time": 54.99265050000021,
                    "velocity": 0.31496062992125984,
                    "duration": 0.23203649999999953
                },
                {
                    "name": "G3",
                    "midi": 55,
                    "time": 55.22468700000021,
                    "velocity": 0.29133858267716534,
                    "duration": 0.23203649999999953
                },
                {
                    "name": "C4",
                    "midi": 60,
                    "time": 55.45672350000021,
                    "velocity": 0.2440944881889764,
                    "duration": 0.23203649999999953
                },
                {
                    "name": "D#4",
                    "midi": 63,
                    "time": 55.45672350000021,
                    "velocity": 0.29133858267716534,
                    "duration": 0.23203649999999953
                },
                {
                    "name": "F3",
                    "midi": 53,
                    "time": 55.68876000000021,
                    "velocity": 0.3464566929133858,
                    "duration": 0.23203649999999953
                },
                {
                    "name": "D4",
                    "midi": 62,
                    "time": 55.92079650000021,
                    "velocity": 0.2677165354330709,
                    "duration": 0.23203649999999953
                },
                {
                    "name": "A#3",
                    "midi": 58,
                    "time": 55.92079650000021,
                    "velocity": 0.2204724409448819,
                    "duration": 0.23203649999999953
                },
                {
                    "name": "F3",
                    "midi": 53,
                    "time": 56.15283300000021,
                    "velocity": 0.2677165354330709,
                    "duration": 0.23203649999999953
                },
                {
                    "name": "A3",
                    "midi": 57,
                    "time": 56.38486950000021,
                    "velocity": 0.2204724409448819,
                    "duration": 0.23203649999999953
                },
                {
                    "name": "C4",
                    "midi": 60,
                    "time": 56.38486950000021,
                    "velocity": 0.2677165354330709,
                    "duration": 0.23203649999999953
                },
                {
                    "name": "A#2",
                    "midi": 46,
                    "time": 56.616906000000206,
                    "velocity": 0.2992125984251969,
                    "duration": 0.23203649999999953
                },
                {
                    "name": "D4",
                    "midi": 62,
                    "time": 56.848942500000206,
                    "velocity": 0.23622047244094488,
                    "duration": 0.23203649999999953
                },
                {
                    "name": "A#3",
                    "midi": 58,
                    "time": 56.848942500000206,
                    "velocity": 0.1968503937007874,
                    "duration": 0.23203649999999953
                },
                {
                    "name": "D3",
                    "midi": 50,
                    "time": 57.080979000000205,
                    "velocity": 0.23622047244094488,
                    "duration": 0.23203649999999953
                },
                {
                    "name": "A#3",
                    "midi": 58,
                    "time": 57.313015500000205,
                    "velocity": 0.1968503937007874,
                    "duration": 0.23203649999999953
                },
                {
                    "name": "D4",
                    "midi": 62,
                    "time": 57.313015500000205,
                    "velocity": 0.23622047244094488,
                    "duration": 0.23203649999999953
                },
                {
                    "name": "F3",
                    "midi": 53,
                    "time": 57.545052000000204,
                    "velocity": 0.28346456692913385,
                    "duration": 0.23203649999999953
                },
                {
                    "name": "D4",
                    "midi": 62,
                    "time": 57.777088500000204,
                    "velocity": 0.23622047244094488,
                    "duration": 0.23203649999999953
                },
                {
                    "name": "A#3",
                    "midi": 58,
                    "time": 57.777088500000204,
                    "velocity": 0.1968503937007874,
                    "duration": 0.23203649999999953
                },
                {
                    "name": "F#3",
                    "midi": 54,
                    "time": 58.0091250000002,
                    "velocity": 0.23622047244094488,
                    "duration": 0.23203649999999953
                },
                {
                    "name": "C4",
                    "midi": 60,
                    "time": 58.2411615000002,
                    "velocity": 0.2047244094488189,
                    "duration": 0.23203649999999953
                },
                {
                    "name": "D4",
                    "midi": 62,
                    "time": 58.2411615000002,
                    "velocity": 0.2440944881889764,
                    "duration": 0.23203649999999953
                },
                {
                    "name": "D4",
                    "midi": 62,
                    "time": 58.4731980000002,
                    "velocity": 0.2677165354330709,
                    "duration": 0.23203649999999953
                },
                {
                    "name": "G3",
                    "midi": 55,
                    "time": 58.4731980000002,
                    "velocity": 0.2283464566929134,
                    "duration": 0.23203649999999953
                },
                {
                    "name": "B3",
                    "midi": 59,
                    "time": 58.4731980000002,
                    "velocity": 0.2283464566929134,
                    "duration": 0.23203649999999953
                },
                {
                    "name": "G3",
                    "midi": 55,
                    "time": 58.9372710000002,
                    "velocity": 0.6141732283464567,
                    "duration": 1.3922189999999972
                },
                {
                    "name": "G4",
                    "midi": 67,
                    "time": 58.9372710000002,
                    "velocity": 0.7401574803149606,
                    "duration": 1.3922189999999972
                },
                {
                    "name": "G3",
                    "midi": 55,
                    "time": 60.3294900000002,
                    "velocity": 0.33070866141732286,
                    "duration": 0.23203649999999953
                },
                {
                    "name": "G4",
                    "midi": 67,
                    "time": 60.5615265000002,
                    "velocity": 0.2440944881889764,
                    "duration": 0.11601825000000332
                },
                {
                    "name": "F4",
                    "midi": 65,
                    "time": 60.793563000000205,
                    "velocity": 0.2440944881889764,
                    "duration": 0.11601825000000332
                },
                {
                    "name": "D4",
                    "midi": 62,
                    "time": 60.793563000000205,
                    "velocity": 0.2047244094488189,
                    "duration": 0.11601825000000332
                },
                {
                    "name": "G4",
                    "midi": 67,
                    "time": 61.02559950000021,
                    "velocity": 0.25196850393700787,
                    "duration": 0.11601825000000332
                },
                {
                    "name": "G3",
                    "midi": 55,
                    "time": 61.25763600000022,
                    "velocity": 0.3464566929133858,
                    "duration": 0.23203649999999953
                },
                {
                    "name": "G4",
                    "midi": 67,
                    "time": 61.48967250000022,
                    "velocity": 0.2440944881889764,
                    "duration": 0.23203649999999953
                },
                {
                    "name": "D#4",
                    "midi": 63,
                    "time": 61.72170900000022,
                    "velocity": 0.2755905511811024,
                    "duration": 0.23203649999999953
                },
                {
                    "name": "C4",
                    "midi": 60,
                    "time": 61.72170900000022,
                    "velocity": 0.2283464566929134,
                    "duration": 0.23203649999999953
                },
                {
                    "name": "G4",
                    "midi": 67,
                    "time": 61.95374550000022,
                    "velocity": 0.25196850393700787,
                    "duration": 0.23203649999999953
                },
                {
                    "name": "G3",
                    "midi": 55,
                    "time": 62.185782000000216,
                    "velocity": 0.33070866141732286,
                    "duration": 0.23203649999999953
                },
                {
                    "name": "G4",
                    "midi": 67,
                    "time": 62.417818500000216,
                    "velocity": 0.2440944881889764,
                    "duration": 0.11601825000000332
                },
                {
                    "name": "F4",
                    "midi": 65,
                    "time": 62.64985500000022,
                    "velocity": 0.2440944881889764,
                    "duration": 0.11601825000000332
                },
                {
                    "name": "D4",
                    "midi": 62,
                    "time": 62.64985500000022,
                    "velocity": 0.2047244094488189,
                    "duration": 0.11601825000000332
                },
                {
                    "name": "G4",
                    "midi": 67,
                    "time": 62.88189150000023,
                    "velocity": 0.2283464566929134,
                    "duration": 0.11601825000000332
                },
                {
                    "name": "G3",
                    "midi": 55,
                    "time": 63.113928000000236,
                    "velocity": 0.3464566929133858,
                    "duration": 0.23203649999999953
                },
                {
                    "name": "G4",
                    "midi": 67,
                    "time": 63.345964500000235,
                    "velocity": 0.25196850393700787,
                    "duration": 0.11601825000000332
                },
                {
                    "name": "F#3",
                    "midi": 54,
                    "time": 63.57800100000024,
                    "velocity": 0.2283464566929134,
                    "duration": 0.11601825000000332
                },
                {
                    "name": "D#4",
                    "midi": 63,
                    "time": 63.57800100000024,
                    "velocity": 0.2755905511811024,
                    "duration": 0.11601825000000332
                },
                {
                    "name": "C4",
                    "midi": 60,
                    "time": 63.57800100000024,
                    "velocity": 0.2283464566929134,
                    "duration": 0.11601825000000332
                },
                {
                    "name": "F#4",
                    "midi": 66,
                    "time": 63.81003750000025,
                    "velocity": 0.2755905511811024,
                    "duration": 0.23203650000000664
                },
                {
                    "name": "F3",
                    "midi": 53,
                    "time": 64.04207400000026,
                    "velocity": 0.33070866141732286,
                    "duration": 0.23203650000000664
                },
                {
                    "name": "F4",
                    "midi": 65,
                    "time": 64.27411050000026,
                    "velocity": 0.2755905511811024,
                    "duration": 0.11601824999999621
                },
                {
                    "name": "D4",
                    "midi": 62,
                    "time": 64.50614700000025,
                    "velocity": 0.2755905511811024,
                    "duration": 0.11601824999999621
                },
                {
                    "name": "F4",
                    "midi": 65,
                    "time": 64.73818350000025,
                    "velocity": 0.28346456692913385,
                    "duration": 0.11601824999999621
                },
                {
                    "name": "G3",
                    "midi": 55,
                    "time": 64.97022000000024,
                    "velocity": 0.33070866141732286,
                    "duration": 0.23203650000000664
                },
                {
                    "name": "E4",
                    "midi": 64,
                    "time": 65.20225650000025,
                    "velocity": 0.28346456692913385,
                    "duration": 0.11601824999999621
                },
                {
                    "name": "C4",
                    "midi": 60,
                    "time": 65.43429300000024,
                    "velocity": 0.28346456692913385,
                    "duration": 0.11601824999999621
                },
                {
                    "name": "E4",
                    "midi": 64,
                    "time": 65.66632950000023,
                    "velocity": 0.28346456692913385,
                    "duration": 0.11601824999999621
                },
                {
                    "name": "F3",
                    "midi": 53,
                    "time": 65.89836600000022,
                    "velocity": 0.2755905511811024,
                    "duration": 0.23203650000000664
                },
                {
                    "name": "D4",
                    "midi": 62,
                    "time": 65.89836600000022,
                    "velocity": 0.33070866141732286,
                    "duration": 0.23203650000000664
                },
                {
                    "name": "F4",
                    "midi": 65,
                    "time": 66.13040250000023,
                    "velocity": 0.25984251968503935,
                    "duration": 0.23203650000000664
                },
                {
                    "name": "F3",
                    "midi": 53,
                    "time": 66.36243900000024,
                    "velocity": 0.2283464566929134,
                    "duration": 0.11601824999999621
                },
                {
                    "name": "A3",
                    "midi": 57,
                    "time": 66.36243900000024,
                    "velocity": 0.2755905511811024,
                    "duration": 0.11601824999999621
                },
                {
                    "name": "D#4",
                    "midi": 63,
                    "time": 66.59447550000023,
                    "velocity": 0.2677165354330709,
                    "duration": 0.11601824999999621
                },
                {
                    "name": "A#3",
                    "midi": 58,
                    "time": 66.82651200000022,
                    "velocity": 0.33070866141732286,
                    "duration": 0.23203650000000664
                },
                {
                    "name": "D4",
                    "midi": 62,
                    "time": 66.82651200000022,
                    "velocity": 0.33070866141732286,
                    "duration": 0.23203650000000664
                },
                {
                    "name": "F4",
                    "midi": 65,
                    "time": 67.05854850000023,
                    "velocity": 0.2992125984251969,
                    "duration": 0.23203650000000664
                },
                {
                    "name": "D4",
                    "midi": 62,
                    "time": 67.29058500000023,
                    "velocity": 0.2992125984251969,
                    "duration": 0.23203650000000664
                },
                {
                    "name": "A#3",
                    "midi": 58,
                    "time": 67.52262150000024,
                    "velocity": 0.2992125984251969,
                    "duration": 0.23203650000000664
                },
                {
                    "name": "G3",
                    "midi": 55,
                    "time": 67.75465800000025,
                    "velocity": 0.33858267716535434,
                    "duration": 0.23203650000000664
                },
                {
                    "name": "E4",
                    "midi": 64,
                    "time": 67.98669450000025,
                    "velocity": 0.29133858267716534,
                    "duration": 0.11601824999999621
                },
                {
                    "name": "A#3",
                    "midi": 58,
                    "time": 68.21873100000025,
                    "velocity": 0.30708661417322836,
                    "duration": 0.11601824999999621
                },
                {
                    "name": "E4",
                    "midi": 64,
                    "time": 68.45076750000024,
                    "velocity": 0.33070866141732286,
                    "duration": 0.11601824999999621
                },
                {
                    "name": "F3",
                    "midi": 53,
                    "time": 68.68280400000023,
                    "velocity": 0.2755905511811024,
                    "duration": 0.23203650000000664
                },
                {
                    "name": "F4",
                    "midi": 65,
                    "time": 68.91484050000024,
                    "velocity": 0.25984251968503935,
                    "duration": 0.23203650000000664
                },
                {
                    "name": "A3",
                    "midi": 57,
                    "time": 69.14687700000025,
                    "velocity": 0.2755905511811024,
                    "duration": 0.11601824999999621
                },
                {
                    "name": "F4",
                    "midi": 65,
                    "time": 69.37891350000024,
                    "velocity": 0.2677165354330709,
                    "duration": 0.11601824999999621
                },
                {
                    "name": "G3",
                    "midi": 55,
                    "time": 69.61095000000023,
                    "velocity": 0.33858267716535434,
                    "duration": 0.23203650000000664
                },
                {
                    "name": "E4",
                    "midi": 64,
                    "time": 69.84298650000024,
                    "velocity": 0.2755905511811024,
                    "duration": 0.11601824999999621
                },
                {
                    "name": "A#3",
                    "midi": 58,
                    "time": 70.07502300000023,
                    "velocity": 0.2755905511811024,
                    "duration": 0.11601824999999621
                },
                {
                    "name": "E4",
                    "midi": 64,
                    "time": 70.30705950000022,
                    "velocity": 0.28346456692913385,
                    "duration": 0.11601824999999621
                },
                {
                    "name": "F3",
                    "midi": 53,
                    "time": 70.53909600000021,
                    "velocity": 0.2755905511811024,
                    "duration": 0.23203650000000664
                },
                {
                    "name": "F4",
                    "midi": 65,
                    "time": 70.77113250000022,
                    "velocity": 0.25984251968503935,
                    "duration": 0.23203650000000664
                },
                {
                    "name": "A3",
                    "midi": 57,
                    "time": 71.00316900000023,
                    "velocity": 0.2755905511811024,
                    "duration": 0.11601824999999621
                },
                {
                    "name": "F4",
                    "midi": 65,
                    "time": 71.23520550000022,
                    "velocity": 0.2677165354330709,
                    "duration": 0.11601824999999621
                },
                {
                    "name": "D3",
                    "midi": 50,
                    "time": 71.46724200000021,
                    "velocity": 0.2755905511811024,
                    "duration": 0.23203650000000664
                },
                {
                    "name": "B3",
                    "midi": 59,
                    "time": 71.69927850000022,
                    "velocity": 0.2283464566929134,
                    "duration": 0.11601824999999621
                },
                {
                    "name": "F3",
                    "midi": 53,
                    "time": 71.93131500000021,
                    "velocity": 0.2283464566929134,
                    "duration": 0.11601824999999621
                },
                {
                    "name": "B3",
                    "midi": 59,
                    "time": 72.1633515000002,
                    "velocity": 0.23622047244094488,
                    "duration": 0.11601824999999621
                },
                {
                    "name": "C3",
                    "midi": 48,
                    "time": 72.3953880000002,
                    "velocity": 0.2283464566929134,
                    "duration": 0.23203650000000664
                },
                {
                    "name": "C4",
                    "midi": 60,
                    "time": 72.6274245000002,
                    "velocity": 0.2204724409448819,
                    "duration": 0.23203650000000664
                },
                {
                    "name": "E3",
                    "midi": 52,
                    "time": 72.85946100000021,
                    "velocity": 0.2283464566929134,
                    "duration": 0.11601824999999621
                },
                {
                    "name": "C4",
                    "midi": 60,
                    "time": 73.0914975000002,
                    "velocity": 0.2283464566929134,
                    "duration": 0.11601824999999621
                },
                {
                    "name": "D3",
                    "midi": 50,
                    "time": 73.3235340000002,
                    "velocity": 0.2755905511811024,
                    "duration": 0.23203650000000664
                },
                {
                    "name": "B3",
                    "midi": 59,
                    "time": 73.5555705000002,
                    "velocity": 0.2283464566929134,
                    "duration": 0.11601824999999621
                },
                {
                    "name": "F3",
                    "midi": 53,
                    "time": 73.7876070000002,
                    "velocity": 0.2283464566929134,
                    "duration": 0.11601824999999621
                },
                {
                    "name": "B3",
                    "midi": 59,
                    "time": 74.01964350000019,
                    "velocity": 0.23622047244094488,
                    "duration": 0.11601824999999621
                },
                {
                    "name": "E3",
                    "midi": 52,
                    "time": 74.25168000000018,
                    "velocity": 0.2283464566929134,
                    "duration": 0.46407299999999907
                },
                {
                    "name": "C3",
                    "midi": 48,
                    "time": 74.25168000000018,
                    "velocity": 0.2283464566929134,
                    "duration": 0.46407299999999907
                },
                {
                    "name": "C4",
                    "midi": 60,
                    "time": 74.25168000000018,
                    "velocity": 0.2283464566929134,
                    "duration": 0.46407299999999907
                },
                {
                    "name": "D4",
                    "midi": 62,
                    "time": 76.10797200000019,
                    "velocity": 0.41732283464566927,
                    "duration": 0.11601824999999621
                },
                {
                    "name": "C4",
                    "midi": 60,
                    "time": 76.22399025000018,
                    "velocity": 0.3464566929133858,
                    "duration": 0.11601824999999621
                },
                {
                    "name": "B3",
                    "midi": 59,
                    "time": 76.34000850000018,
                    "velocity": 0.3543307086614173,
                    "duration": 0.11601824999999621
                },
                {
                    "name": "C4",
                    "midi": 60,
                    "time": 76.45602675000018,
                    "velocity": 0.3543307086614173,
                    "duration": 0.11601824999999621
                },
                {
                    "name": "G3",
                    "midi": 55,
                    "time": 76.57204500000017,
                    "velocity": 0.3858267716535433,
                    "duration": 0.11601824999999621
                },
                {
                    "name": "E3",
                    "midi": 52,
                    "time": 76.80408150000017,
                    "velocity": 0.36220472440944884,
                    "duration": 0.11601824999999621
                },
                {
                    "name": "C3",
                    "midi": 48,
                    "time": 77.03611800000016,
                    "velocity": 0.36220472440944884,
                    "duration": 0.11601824999999621
                },
                {
                    "name": "G2",
                    "midi": 43,
                    "time": 77.26815450000015,
                    "velocity": 0.30708661417322836,
                    "duration": 0.11601824999999621
                },
                {
                    "name": "E2",
                    "midi": 40,
                    "time": 77.50019100000014,
                    "velocity": 0.33858267716535434,
                    "duration": 0.11601824999999621
                },
                {
                    "name": "D2",
                    "midi": 38,
                    "time": 77.73222750000014,
                    "velocity": 0.3700787401574803,
                    "duration": 0.11601824999999621
                },
                {
                    "name": "C2",
                    "midi": 36,
                    "time": 77.96426400000013,
                    "velocity": 0.3937007874015748,
                    "duration": 0.11601824999999621
                },
                {
                    "name": "A#1",
                    "midi": 34,
                    "time": 78.19630050000012,
                    "velocity": 0.36220472440944884,
                    "duration": 0.11601824999999621
                },
                {
                    "name": "A1",
                    "midi": 33,
                    "time": 78.42833700000011,
                    "velocity": 0.33858267716535434,
                    "duration": 0.11601824999999621
                },
                {
                    "name": "G1",
                    "midi": 31,
                    "time": 78.6603735000001,
                    "velocity": 0.30708661417322836,
                    "duration": 0.11601824999999621
                },
                {
                    "name": "F1",
                    "midi": 29,
                    "time": 79.1244465000001,
                    "velocity": 0.25984251968503935,
                    "duration": 0.11601824999999621
                },
                {
                    "name": "F2",
                    "midi": 41,
                    "time": 79.5885195000001,
                    "velocity": 0.25984251968503935,
                    "duration": 0.11601824999999621
                },
                {
                    "name": "A2",
                    "midi": 45,
                    "time": 80.05259250000009,
                    "velocity": 0.25984251968503935,
                    "duration": 0.11601824999999621
                },
                {
                    "name": "A#2",
                    "midi": 46,
                    "time": 80.51666550000009,
                    "velocity": 0.25984251968503935,
                    "duration": 0.11601824999999621
                },
                {
                    "name": "D3",
                    "midi": 50,
                    "time": 80.98073850000009,
                    "velocity": 0.25984251968503935,
                    "duration": 0.23203650000000664
                },
                {
                    "name": "F3",
                    "midi": 53,
                    "time": 81.44481150000009,
                    "velocity": 0.25984251968503935,
                    "duration": 0.23203650000000664
                },
                {
                    "name": "A3",
                    "midi": 57,
                    "time": 81.90888450000008,
                    "velocity": 0.25984251968503935,
                    "duration": 0.23203650000000664
                },
                {
                    "name": "C2",
                    "midi": 36,
                    "time": 82.3729575000001,
                    "velocity": 0.25984251968503935,
                    "duration": 0.23203650000000664
                },
                {
                    "name": "D2",
                    "midi": 38,
                    "time": 82.8370305000001,
                    "velocity": 0.25984251968503935,
                    "duration": 0.23203650000000664
                },
                {
                    "name": "F2",
                    "midi": 41,
                    "time": 83.30110350000011,
                    "velocity": 0.25984251968503935,
                    "duration": 0.23203650000000664
                },
                {
                    "name": "A2",
                    "midi": 45,
                    "time": 83.76517650000011,
                    "velocity": 0.25984251968503935,
                    "duration": 0.23203650000000664
                },
                {
                    "name": "C#3",
                    "midi": 49,
                    "time": 84.22924950000012,
                    "velocity": 0.25984251968503935,
                    "duration": 0.23203650000000664
                },
                {
                    "name": "D3",
                    "midi": 50,
                    "time": 84.69332250000014,
                    "velocity": 0.25984251968503935,
                    "duration": 0.11601824999999621
                },
                {
                    "name": "E3",
                    "midi": 52,
                    "time": 84.92535900000013,
                    "velocity": 0.25984251968503935,
                    "duration": 0.11601824999999621
                },
                {
                    "name": "F3",
                    "midi": 53,
                    "time": 85.15739550000013,
                    "velocity": 0.25984251968503935,
                    "duration": 0.11601824999999621
                },
                {
                    "name": "G3",
                    "midi": 55,
                    "time": 85.38943200000013,
                    "velocity": 0.25984251968503935,
                    "duration": 0.23203649999999243
                },
                {
                    "name": "C4",
                    "midi": 60,
                    "time": 85.50545025000012,
                    "velocity": 0.2755905511811024,
                    "duration": 0.11601824999999621
                },
                {
                    "name": "G3",
                    "midi": 55,
                    "time": 85.62146850000012,
                    "velocity": 0.2755905511811024,
                    "duration": 0.11601824999999621
                },
                {
                    "name": "C4",
                    "midi": 60,
                    "time": 85.73748675000012,
                    "velocity": 0.2755905511811024,
                    "duration": 0.11601824999999621
                },
                {
                    "name": "G2",
                    "midi": 43,
                    "time": 85.85350500000011,
                    "velocity": 0.25984251968503935,
                    "duration": 0.23203649999999243
                },
                {
                    "name": "B3",
                    "midi": 59,
                    "time": 85.96952325000011,
                    "velocity": 0.25984251968503935,
                    "duration": 0.11601824999999621
                },
                {
                    "name": "F3",
                    "midi": 53,
                    "time": 86.0855415000001,
                    "velocity": 0.25984251968503935,
                    "duration": 0.11601824999999621
                },
                {
                    "name": "B3",
                    "midi": 59,
                    "time": 86.2015597500001,
                    "velocity": 0.25984251968503935,
                    "duration": 0.11601824999999621
                },
                {
                    "name": "E3",
                    "midi": 52,
                    "time": 86.3175780000001,
                    "velocity": 0.25984251968503935,
                    "duration": 0.11601824999999621
                },
                {
                    "name": "C2",
                    "midi": 36,
                    "time": 86.3175780000001,
                    "velocity": 0.25984251968503935,
                    "duration": 0.11601824999999621
                },
                {
                    "name": "C3",
                    "midi": 48,
                    "time": 86.3175780000001,
                    "velocity": 0.25984251968503935,
                    "duration": 0.11601824999999621
                },
                {
                    "name": "C4",
                    "midi": 60,
                    "time": 86.3175780000001,
                    "velocity": 0.36220472440944884,
                    "duration": 0.11601824999999621
                },
                {
                    "name": "G3",
                    "midi": 55,
                    "time": 86.54961450000009,
                    "velocity": 0.30708661417322836,
                    "duration": 0.11601824999999621
                },
                {
                    "name": "E3",
                    "midi": 52,
                    "time": 86.78165100000008,
                    "velocity": 0.33858267716535434,
                    "duration": 0.11601824999999621
                },
                {
                    "name": "D3",
                    "midi": 50,
                    "time": 87.01368750000007,
                    "velocity": 0.3700787401574803,
                    "duration": 0.11601824999999621
                },
                {
                    "name": "C3",
                    "midi": 48,
                    "time": 87.24572400000007,
                    "velocity": 0.3937007874015748,
                    "duration": 0.11601824999999621
                },
                {
                    "name": "A#2",
                    "midi": 46,
                    "time": 87.47776050000006,
                    "velocity": 0.36220472440944884,
                    "duration": 0.11601824999999621
                },
                {
                    "name": "A2",
                    "midi": 45,
                    "time": 87.70979700000005,
                    "velocity": 0.33858267716535434,
                    "duration": 0.11601824999999621
                },
                {
                    "name": "G2",
                    "midi": 43,
                    "time": 87.94183350000004,
                    "velocity": 0.30708661417322836,
                    "duration": 0.11601824999999621
                },
                {
                    "name": "F1",
                    "midi": 29,
                    "time": 88.40590650000004,
                    "velocity": 0.25984251968503935,
                    "duration": 0.11601824999999621
                },
                {
                    "name": "F2",
                    "midi": 41,
                    "time": 88.86997950000003,
                    "velocity": 0.25984251968503935,
                    "duration": 0.11601824999999621
                },
                {
                    "name": "A2",
                    "midi": 45,
                    "time": 89.33405250000001,
                    "velocity": 0.25984251968503935,
                    "duration": 0.11601824999999621
                },
                {
                    "name": "A#2",
                    "midi": 46,
                    "time": 89.7981255,
                    "velocity": 0.25984251968503935,
                    "duration": 0.11601824999999621
                },
                {
                    "name": "D3",
                    "midi": 50,
                    "time": 90.2621985,
                    "velocity": 0.25984251968503935,
                    "duration": 0.23203650000000664
                },
                {
                    "name": "F3",
                    "midi": 53,
                    "time": 90.7262715,
                    "velocity": 0.25984251968503935,
                    "duration": 0.23203650000000664
                },
                {
                    "name": "A3",
                    "midi": 57,
                    "time": 91.19034450000001,
                    "velocity": 0.25984251968503935,
                    "duration": 0.23203650000000664
                },
                {
                    "name": "C2",
                    "midi": 36,
                    "time": 91.65441750000002,
                    "velocity": 0.25984251968503935,
                    "duration": 0.23203650000000664
                },
                {
                    "name": "D2",
                    "midi": 38,
                    "time": 92.11849050000002,
                    "velocity": 0.25984251968503935,
                    "duration": 0.23203650000000664
                },
                {
                    "name": "F2",
                    "midi": 41,
                    "time": 92.58256350000002,
                    "velocity": 0.25984251968503935,
                    "duration": 0.23203650000000664
                },
                {
                    "name": "A2",
                    "midi": 45,
                    "time": 93.04663650000002,
                    "velocity": 0.25984251968503935,
                    "duration": 0.23203650000000664
                },
                {
                    "name": "C#3",
                    "midi": 49,
                    "time": 93.51070950000003,
                    "velocity": 0.25984251968503935,
                    "duration": 0.23203650000000664
                },
                {
                    "name": "D3",
                    "midi": 50,
                    "time": 93.97478250000005,
                    "velocity": 0.25984251968503935,
                    "duration": 0.11601824999999621
                },
                {
                    "name": "E3",
                    "midi": 52,
                    "time": 94.20681900000004,
                    "velocity": 0.25984251968503935,
                    "duration": 0.11601824999999621
                },
                {
                    "name": "F#3",
                    "midi": 54,
                    "time": 94.43885550000005,
                    "velocity": 0.25984251968503935,
                    "duration": 0.11601824999999621
                },
                {
                    "name": "G2",
                    "midi": 43,
                    "time": 94.67089200000004,
                    "velocity": 0.25984251968503935,
                    "duration": 0.23203649999999243
                },
                {
                    "name": "A2",
                    "midi": 45,
                    "time": 95.13496500000004,
                    "velocity": 0.25984251968503935,
                    "duration": 0.23203649999999243
                },
                {
                    "name": "D3",
                    "midi": 50,
                    "time": 95.83107450000004,
                    "velocity": 0.25984251968503935,
                    "duration": 0.23203650000000664
                },
                {
                    "name": "G2",
                    "midi": 43,
                    "time": 96.29514750000006,
                    "velocity": 0.25984251968503935,
                    "duration": 0.23203650000000664
                },
                {
                    "name": "D2",
                    "midi": 38,
                    "time": 96.75922050000005,
                    "velocity": 0.25984251968503935,
                    "duration": 0.23203650000000664
                },
                {
                    "name": "D2",
                    "midi": 38,
                    "time": 97.22329350000005,
                    "velocity": 0.28346456692913385,
                    "duration": 0.23203650000000664
                },
                {
                    "name": "G1",
                    "midi": 31,
                    "time": 97.68736650000005,
                    "velocity": 0.28346456692913385,
                    "duration": 0.23203650000000664
                },
                {
                    "name": "G1",
                    "midi": 31,
                    "time": 98.15143950000007,
                    "velocity": 0.2677165354330709,
                    "duration": 0.23203650000000664
                },
                {
                    "name": "A1",
                    "midi": 33,
                    "time": 98.61551250000007,
                    "velocity": 0.25984251968503935,
                    "duration": 0.23203650000000664
                },
                {
                    "name": "A1",
                    "midi": 33,
                    "time": 99.07958550000006,
                    "velocity": 0.25984251968503935,
                    "duration": 0.23203650000000664
                },
                {
                    "name": "D2",
                    "midi": 38,
                    "time": 99.54365850000008,
                    "velocity": 0.25984251968503935,
                    "duration": 0.23203650000000664
                },
                {
                    "name": "D3",
                    "midi": 50,
                    "time": 100.00773150000009,
                    "velocity": 0.25984251968503935,
                    "duration": 0.23203650000000664
                },
                {
                    "name": "D3",
                    "midi": 50,
                    "time": 100.47180450000009,
                    "velocity": 0.25984251968503935,
                    "duration": 0.23203650000000664
                },
                {
                    "name": "D3",
                    "midi": 50,
                    "time": 100.9358775000001,
                    "velocity": 0.28346456692913385,
                    "duration": 0.23203650000000664
                },
                {
                    "name": "G2",
                    "midi": 43,
                    "time": 101.3999505000001,
                    "velocity": 0.28346456692913385,
                    "duration": 0.23203650000000664
                },
                {
                    "name": "G2",
                    "midi": 43,
                    "time": 101.86402350000012,
                    "velocity": 0.2677165354330709,
                    "duration": 0.23203650000000664
                },
                {
                    "name": "A2",
                    "midi": 45,
                    "time": 102.32809650000011,
                    "velocity": 0.25984251968503935,
                    "duration": 0.23203650000000664
                },
                {
                    "name": "A2",
                    "midi": 45,
                    "time": 102.79216950000011,
                    "velocity": 0.25984251968503935,
                    "duration": 0.23203650000000664
                },
                {
                    "name": "D3",
                    "midi": 50,
                    "time": 103.02420600000012,
                    "velocity": 0.2283464566929134,
                    "duration": 2.3203649999999953
                },
                {
                    "name": "F#3",
                    "midi": 54,
                    "time": 103.48827900000012,
                    "velocity": 0.2283464566929134,
                    "duration": 0.46407299999999907
                },
                {
                    "name": "A3",
                    "midi": 57,
                    "time": 103.95235200000012,
                    "velocity": 0.2283464566929134,
                    "duration": 0.46407299999999907
                },
                {
                    "name": "G3",
                    "midi": 55,
                    "time": 104.41642500000012,
                    "velocity": 0.25196850393700787,
                    "duration": 0.46407299999999907
                },
                {
                    "name": "F#3",
                    "midi": 54,
                    "time": 104.88049800000012,
                    "velocity": 0.25196850393700787,
                    "duration": 0.46407299999999907
                },
                {
                    "name": "G2",
                    "midi": 43,
                    "time": 105.34457100000012,
                    "velocity": 0.23622047244094488,
                    "duration": 0.4640730000000133
                },
                {
                    "name": "D3",
                    "midi": 50,
                    "time": 105.34457100000012,
                    "velocity": 0.23622047244094488,
                    "duration": 0.4640730000000133
                },
                {
                    "name": "C#3",
                    "midi": 49,
                    "time": 105.80864400000013,
                    "velocity": 0.2283464566929134,
                    "duration": 0.46407299999999907
                },
                {
                    "name": "A2",
                    "midi": 45,
                    "time": 105.80864400000013,
                    "velocity": 0.2283464566929134,
                    "duration": 0.9281459999999981
                },
                {
                    "name": "E3",
                    "midi": 52,
                    "time": 106.27271700000013,
                    "velocity": 0.2283464566929134,
                    "duration": 0.46407299999999907
                },
                {
                    "name": "D3",
                    "midi": 50,
                    "time": 106.73679000000013,
                    "velocity": 0.2283464566929134,
                    "duration": 2.3203649999999953
                },
                {
                    "name": "F#3",
                    "midi": 54,
                    "time": 107.20086300000013,
                    "velocity": 0.2283464566929134,
                    "duration": 0.46407299999999907
                },
                {
                    "name": "A3",
                    "midi": 57,
                    "time": 107.66493600000013,
                    "velocity": 0.2283464566929134,
                    "duration": 0.23203649999999243
                },
                {
                    "name": "A#3",
                    "midi": 58,
                    "time": 107.89697250000012,
                    "velocity": 0.2047244094488189,
                    "duration": 0.23203650000000664
                },
                {
                    "name": "A3",
                    "midi": 57,
                    "time": 108.12900900000012,
                    "velocity": 0.2283464566929134,
                    "duration": 0.23203649999999243
                },
                {
                    "name": "G3",
                    "midi": 55,
                    "time": 108.36104550000012,
                    "velocity": 0.2125984251968504,
                    "duration": 0.23203650000000664
                },
                {
                    "name": "F#3",
                    "midi": 54,
                    "time": 108.59308200000012,
                    "velocity": 0.25196850393700787,
                    "duration": 0.46407299999999907
                },
                {
                    "name": "G2",
                    "midi": 43,
                    "time": 109.05715500000012,
                    "velocity": 0.23622047244094488,
                    "duration": 0.4640730000000133
                },
                {
                    "name": "D3",
                    "midi": 50,
                    "time": 109.05715500000012,
                    "velocity": 0.23622047244094488,
                    "duration": 0.4640730000000133
                },
                {
                    "name": "C#3",
                    "midi": 49,
                    "time": 109.52122800000014,
                    "velocity": 0.2283464566929134,
                    "duration": 0.46407299999999907
                },
                {
                    "name": "A2",
                    "midi": 45,
                    "time": 109.52122800000014,
                    "velocity": 0.2283464566929134,
                    "duration": 0.9281459999999981
                },
                {
                    "name": "E3",
                    "midi": 52,
                    "time": 109.98530100000013,
                    "velocity": 0.2283464566929134,
                    "duration": 0.46407299999999907
                },
                {
                    "name": "D3",
                    "midi": 50,
                    "time": 110.44937400000013,
                    "velocity": 0.25196850393700787,
                    "duration": 0.9281460000000124
                },
                {
                    "name": "G2",
                    "midi": 43,
                    "time": 110.91344700000013,
                    "velocity": 0.2204724409448819,
                    "duration": 0.4640730000000133
                },
                {
                    "name": "C#3",
                    "midi": 49,
                    "time": 111.37752000000015,
                    "velocity": 0.2047244094488189,
                    "duration": 0.46407299999999907
                },
                {
                    "name": "A2",
                    "midi": 45,
                    "time": 111.37752000000015,
                    "velocity": 0.2047244094488189,
                    "duration": 0.9281459999999981
                },
                {
                    "name": "E3",
                    "midi": 52,
                    "time": 111.84159300000015,
                    "velocity": 0.2047244094488189,
                    "duration": 0.46407299999999907
                },
                {
                    "name": "D2",
                    "midi": 38,
                    "time": 112.30566600000014,
                    "velocity": 0.2047244094488189,
                    "duration": 0.46407299999999907
                },
                {
                    "name": "F2",
                    "midi": 41,
                    "time": 112.76973900000014,
                    "velocity": 0.2047244094488189,
                    "duration": 0.46407299999999907
                },
                {
                    "name": "A2",
                    "midi": 45,
                    "time": 113.23381200000014,
                    "velocity": 0.2047244094488189,
                    "duration": 0.46407299999999907
                },
                {
                    "name": "C3",
                    "midi": 48,
                    "time": 113.69788500000014,
                    "velocity": 0.2047244094488189,
                    "duration": 0.46407299999999907
                },
                {
                    "name": "C2",
                    "midi": 36,
                    "time": 114.16195800000014,
                    "velocity": 0.2047244094488189,
                    "duration": 0.46407299999999907
                },
                {
                    "name": "D#2",
                    "midi": 39,
                    "time": 114.62603100000014,
                    "velocity": 0.2047244094488189,
                    "duration": 0.46407299999999907
                },
                {
                    "name": "G2",
                    "midi": 43,
                    "time": 115.09010400000014,
                    "velocity": 0.2047244094488189,
                    "duration": 0.46407299999999907
                },
                {
                    "name": "A#2",
                    "midi": 46,
                    "time": 115.55417700000014,
                    "velocity": 0.2047244094488189,
                    "duration": 0.46407299999999907
                },
                {
                    "name": "A#1",
                    "midi": 34,
                    "time": 116.01825000000014,
                    "velocity": 0.2283464566929134,
                    "duration": 0.46407299999999907
                },
                {
                    "name": "D2",
                    "midi": 38,
                    "time": 116.48232300000014,
                    "velocity": 0.23622047244094488,
                    "duration": 0.46407299999999907
                },
                {
                    "name": "F2",
                    "midi": 41,
                    "time": 116.94639600000014,
                    "velocity": 0.2440944881889764,
                    "duration": 0.46407299999999907
                },
                {
                    "name": "A2",
                    "midi": 45,
                    "time": 117.41046900000013,
                    "velocity": 0.25196850393700787,
                    "duration": 0.46407299999999907
                },
                {
                    "name": "A1",
                    "midi": 33,
                    "time": 117.87454200000013,
                    "velocity": 0.2283464566929134,
                    "duration": 0.46407299999999907
                },
                {
                    "name": "A#1",
                    "midi": 34,
                    "time": 118.33861500000013,
                    "velocity": 0.25196850393700787,
                    "duration": 0.46407299999999907
                },
                {
                    "name": "A1",
                    "midi": 33,
                    "time": 118.80268800000013,
                    "velocity": 0.28346456692913385,
                    "duration": 0.46407299999999907
                },
                {
                    "name": "G1",
                    "midi": 31,
                    "time": 119.26676100000013,
                    "velocity": 0.25196850393700787,
                    "duration": 0.46407299999999907
                },
                {
                    "name": "F1",
                    "midi": 29,
                    "time": 119.96287050000012,
                    "velocity": 0.25984251968503935,
                    "duration": 0.11601824999999621
                },
                {
                    "name": "F2",
                    "midi": 41,
                    "time": 120.42694350000012,
                    "velocity": 0.25984251968503935,
                    "duration": 0.11601824999999621
                },
                {
                    "name": "A2",
                    "midi": 45,
                    "time": 120.8910165000001,
                    "velocity": 0.25984251968503935,
                    "duration": 0.11601824999999621
                },
                {
                    "name": "A#2",
                    "midi": 46,
                    "time": 121.35508950000009,
                    "velocity": 0.25984251968503935,
                    "duration": 0.11601824999999621
                },
                {
                    "name": "D3",
                    "midi": 50,
                    "time": 121.81916250000009,
                    "velocity": 0.25984251968503935,
                    "duration": 0.23203650000000664
                },
                {
                    "name": "F3",
                    "midi": 53,
                    "time": 122.2832355000001,
                    "velocity": 0.25984251968503935,
                    "duration": 0.23203650000000664
                },
                {
                    "name": "A3",
                    "midi": 57,
                    "time": 122.7473085000001,
                    "velocity": 0.25984251968503935,
                    "duration": 0.23203650000000664
                },
                {
                    "name": "C2",
                    "midi": 36,
                    "time": 123.21138150000012,
                    "velocity": 0.25984251968503935,
                    "duration": 0.23203650000000664
                },
                {
                    "name": "D2",
                    "midi": 38,
                    "time": 123.67545450000013,
                    "velocity": 0.25984251968503935,
                    "duration": 0.23203650000000664
                },
                {
                    "name": "F2",
                    "midi": 41,
                    "time": 124.13952750000014,
                    "velocity": 0.25984251968503935,
                    "duration": 0.23203650000000664
                },
                {
                    "name": "A2",
                    "midi": 45,
                    "time": 124.60360050000014,
                    "velocity": 0.25984251968503935,
                    "duration": 0.23203650000000664
                },
                {
                    "name": "C#3",
                    "midi": 49,
                    "time": 125.06767350000015,
                    "velocity": 0.25984251968503935,
                    "duration": 0.23203650000000664
                },
                {
                    "name": "D3",
                    "midi": 50,
                    "time": 125.53174650000017,
                    "velocity": 0.25984251968503935,
                    "duration": 0.11601824999999621
                },
                {
                    "name": "E3",
                    "midi": 52,
                    "time": 125.76378300000016,
                    "velocity": 0.25984251968503935,
                    "duration": 0.11601824999999621
                },
                {
                    "name": "F3",
                    "midi": 53,
                    "time": 125.99581950000017,
                    "velocity": 0.25984251968503935,
                    "duration": 0.11601824999999621
                },
                {
                    "name": "A#2",
                    "midi": 46,
                    "time": 126.22785600000016,
                    "velocity": 0.25984251968503935,
                    "duration": 0.23203649999999243
                },
                {
                    "name": "C3",
                    "midi": 48,
                    "time": 126.69192900000016,
                    "velocity": 0.25984251968503935,
                    "duration": 0.23203649999999243
                },
                {
                    "name": "F3",
                    "midi": 53,
                    "time": 127.38803850000016,
                    "velocity": 0.25984251968503935,
                    "duration": 0.23203650000000664
                },
                {
                    "name": "A#2",
                    "midi": 46,
                    "time": 127.85211150000018,
                    "velocity": 0.25984251968503935,
                    "duration": 0.23203649999999243
                },
                {
                    "name": "F2",
                    "midi": 41,
                    "time": 128.3161845000002,
                    "velocity": 0.25984251968503935,
                    "duration": 0.23203649999999243
                },
                {
                    "name": "F2",
                    "midi": 41,
                    "time": 128.7802575000002,
                    "velocity": 0.28346456692913385,
                    "duration": 0.23203649999999243
                },
                {
                    "name": "A#1",
                    "midi": 34,
                    "time": 129.2443305000002,
                    "velocity": 0.28346456692913385,
                    "duration": 0.23203649999999243
                },
                {
                    "name": "A#1",
                    "midi": 34,
                    "time": 129.7084035000002,
                    "velocity": 0.2677165354330709,
                    "duration": 0.23203649999999243
                },
                {
                    "name": "C2",
                    "midi": 36,
                    "time": 130.17247650000022,
                    "velocity": 0.25984251968503935,
                    "duration": 0.23203649999999243
                },
                {
                    "name": "C2",
                    "midi": 36,
                    "time": 130.63654950000023,
                    "velocity": 0.25984251968503935,
                    "duration": 0.23203649999999243
                },
                {
                    "name": "F2",
                    "midi": 41,
                    "time": 131.1006225000002,
                    "velocity": 0.25984251968503935,
                    "duration": 0.23203649999999243
                },
                {
                    "name": "F3",
                    "midi": 53,
                    "time": 131.56469550000023,
                    "velocity": 0.25984251968503935,
                    "duration": 0.23203649999999243
                },
                {
                    "name": "F3",
                    "midi": 53,
                    "time": 132.02876850000024,
                    "velocity": 0.25984251968503935,
                    "duration": 0.23203649999999243
                },
                {
                    "name": "F3",
                    "midi": 53,
                    "time": 132.49284150000025,
                    "velocity": 0.28346456692913385,
                    "duration": 0.23203649999999243
                },
                {
                    "name": "A#2",
                    "midi": 46,
                    "time": 132.95691450000024,
                    "velocity": 0.28346456692913385,
                    "duration": 0.23203649999999243
                },
                {
                    "name": "A#2",
                    "midi": 46,
                    "time": 133.42098750000025,
                    "velocity": 0.25196850393700787,
                    "duration": 0.23203649999999243
                },
                {
                    "name": "C3",
                    "midi": 48,
                    "time": 133.88506050000026,
                    "velocity": 0.25984251968503935,
                    "duration": 0.23203649999999243
                },
                {
                    "name": "C3",
                    "midi": 48,
                    "time": 134.34913350000028,
                    "velocity": 0.25984251968503935,
                    "duration": 0.23203649999999243
                },
                {
                    "name": "F3",
                    "midi": 53,
                    "time": 134.58117000000027,
                    "velocity": 0.2283464566929134,
                    "duration": 2.3203650000000096
                },
                {
                    "name": "A3",
                    "midi": 57,
                    "time": 135.04524300000026,
                    "velocity": 0.2283464566929134,
                    "duration": 0.46407299999998486
                },
                {
                    "name": "C4",
                    "midi": 60,
                    "time": 135.50931600000024,
                    "velocity": 0.2283464566929134,
                    "duration": 0.4640730000000133
                },
                {
                    "name": "A#3",
                    "midi": 58,
                    "time": 135.97338900000025,
                    "velocity": 0.25196850393700787,
                    "duration": 0.4640730000000133
                },
                {
                    "name": "A3",
                    "midi": 57,
                    "time": 136.43746200000027,
                    "velocity": 0.25196850393700787,
                    "duration": 0.4640730000000133
                },
                {
                    "name": "A#2",
                    "midi": 46,
                    "time": 136.90153500000028,
                    "velocity": 0.23622047244094488,
                    "duration": 0.4640730000000133
                },
                {
                    "name": "F3",
                    "midi": 53,
                    "time": 136.90153500000028,
                    "velocity": 0.23622047244094488,
                    "duration": 0.4640730000000133
                },
                {
                    "name": "E3",
                    "midi": 52,
                    "time": 137.3656080000003,
                    "velocity": 0.2283464566929134,
                    "duration": 0.4640730000000133
                },
                {
                    "name": "C3",
                    "midi": 48,
                    "time": 137.3656080000003,
                    "velocity": 0.2283464566929134,
                    "duration": 0.9281460000000266
                },
                {
                    "name": "G3",
                    "midi": 55,
                    "time": 137.8296810000003,
                    "velocity": 0.2283464566929134,
                    "duration": 0.4640730000000133
                },
                {
                    "name": "F3",
                    "midi": 53,
                    "time": 138.29375400000032,
                    "velocity": 0.2283464566929134,
                    "duration": 2.320364999999981
                },
                {
                    "name": "A3",
                    "midi": 57,
                    "time": 138.7578270000003,
                    "velocity": 0.2283464566929134,
                    "duration": 0.46407299999998486
                },
                {
                    "name": "C4",
                    "midi": 60,
                    "time": 139.2219000000003,
                    "velocity": 0.2283464566929134,
                    "duration": 0.23203650000002085
                },
                {
                    "name": "C#4",
                    "midi": 61,
                    "time": 139.4539365000003,
                    "velocity": 0.2047244094488189,
                    "duration": 0.23203649999999243
                },
                {
                    "name": "C4",
                    "midi": 60,
                    "time": 139.6859730000003,
                    "velocity": 0.2283464566929134,
                    "duration": 0.23203649999999243
                },
                {
                    "name": "A#3",
                    "midi": 58,
                    "time": 139.9180095000003,
                    "velocity": 0.2125984251968504,
                    "duration": 0.23203649999999243
                },
                {
                    "name": "A3",
                    "midi": 57,
                    "time": 140.1500460000003,
                    "velocity": 0.25196850393700787,
                    "duration": 0.4640730000000133
                },
                {
                    "name": "A#2",
                    "midi": 46,
                    "time": 140.6141190000003,
                    "velocity": 0.23622047244094488,
                    "duration": 0.46407299999998486
                },
                {
                    "name": "F3",
                    "midi": 53,
                    "time": 140.6141190000003,
                    "velocity": 0.23622047244094488,
                    "duration": 0.46407299999998486
                },
                {
                    "name": "E3",
                    "midi": 52,
                    "time": 141.07819200000029,
                    "velocity": 0.2283464566929134,
                    "duration": 0.4640730000000133
                },
                {
                    "name": "C3",
                    "midi": 48,
                    "time": 141.07819200000029,
                    "velocity": 0.2283464566929134,
                    "duration": 0.9281460000000266
                },
                {
                    "name": "G3",
                    "midi": 55,
                    "time": 141.5422650000003,
                    "velocity": 0.2283464566929134,
                    "duration": 0.4640730000000133
                },
                {
                    "name": "F2",
                    "midi": 41,
                    "time": 143.8626300000003,
                    "velocity": 0.5984251968503937,
                    "duration": 0.8121277500000019
                },
                {
                    "name": "C3",
                    "midi": 48,
                    "time": 143.8626300000003,
                    "velocity": 0.5984251968503937,
                    "duration": 0.8121277500000019
                },
                {
                    "name": "F3",
                    "midi": 53,
                    "time": 143.8626300000003,
                    "velocity": 0.7244094488188977,
                    "duration": 0.8121277500000019
                },
                {
                    "name": "F2",
                    "midi": 41,
                    "time": 144.6747577500003,
                    "velocity": 0.5196850393700787,
                    "duration": 0.1102173374999893
                },
                {
                    "name": "C3",
                    "midi": 48,
                    "time": 144.6747577500003,
                    "velocity": 0.5196850393700787,
                    "duration": 0.1102173374999893
                },
                {
                    "name": "F3",
                    "midi": 53,
                    "time": 144.6747577500003,
                    "velocity": 0.6062992125984252,
                    "duration": 0.1102173374999893
                },
                {
                    "name": "F2",
                    "midi": 41,
                    "time": 144.7907760000003,
                    "velocity": 0.5511811023622047,
                    "duration": 0.34805474999998864
                },
                {
                    "name": "F3",
                    "midi": 53,
                    "time": 144.7907760000003,
                    "velocity": 0.6614173228346457,
                    "duration": 0.34805474999998864
                },
                {
                    "name": "F2",
                    "midi": 41,
                    "time": 145.1388307500003,
                    "velocity": 0.5275590551181102,
                    "duration": 0.1102173374999893
                },
                {
                    "name": "F3",
                    "midi": 53,
                    "time": 145.1388307500003,
                    "velocity": 0.6299212598425197,
                    "duration": 0.1102173374999893
                },
                {
                    "name": "G#2",
                    "midi": 44,
                    "time": 145.2548490000003,
                    "velocity": 0.5511811023622047,
                    "duration": 0.34805474999998864
                },
                {
                    "name": "G#3",
                    "midi": 56,
                    "time": 145.2548490000003,
                    "velocity": 0.6614173228346457,
                    "duration": 0.34805474999998864
                },
                {
                    "name": "G#2",
                    "midi": 44,
                    "time": 145.60290375000028,
                    "velocity": 0.5196850393700787,
                    "duration": 0.1102173374999893
                },
                {
                    "name": "G#3",
                    "midi": 56,
                    "time": 145.60290375000028,
                    "velocity": 0.6062992125984252,
                    "duration": 0.1102173374999893
                },
                {
                    "name": "F1",
                    "midi": 29,
                    "time": 145.71892200000028,
                    "velocity": 0.5511811023622047,
                    "duration": 0.34805475000001707
                },
                {
                    "name": "F2",
                    "midi": 41,
                    "time": 145.71892200000028,
                    "velocity": 0.6614173228346457,
                    "duration": 0.34805475000001707
                },
                {
                    "name": "F1",
                    "midi": 29,
                    "time": 146.0669767500003,
                    "velocity": 0.5196850393700787,
                    "duration": 0.1102173374999893
                },
                {
                    "name": "F2",
                    "midi": 41,
                    "time": 146.0669767500003,
                    "velocity": 0.6062992125984252,
                    "duration": 0.1102173374999893
                },
                {
                    "name": "G#1",
                    "midi": 32,
                    "time": 146.1829950000003,
                    "velocity": 0.5196850393700787,
                    "duration": 0.34805474999998864
                },
                {
                    "name": "G#2",
                    "midi": 44,
                    "time": 146.1829950000003,
                    "velocity": 0.6220472440944882,
                    "duration": 0.34805474999998864
                },
                {
                    "name": "G#1",
                    "midi": 32,
                    "time": 146.53104975000028,
                    "velocity": 0.48031496062992124,
                    "duration": 0.1102173374999893
                },
                {
                    "name": "G#2",
                    "midi": 44,
                    "time": 146.53104975000028,
                    "velocity": 0.5748031496062992,
                    "duration": 0.1102173374999893
                },
                {
                    "name": "C2",
                    "midi": 36,
                    "time": 146.64706800000027,
                    "velocity": 0.5196850393700787,
                    "duration": 0.34805474999998864
                },
                {
                    "name": "C3",
                    "midi": 48,
                    "time": 146.64706800000027,
                    "velocity": 0.6220472440944882,
                    "duration": 0.34805474999998864
                },
                {
                    "name": "C2",
                    "midi": 36,
                    "time": 146.99512275000026,
                    "velocity": 0.48031496062992124,
                    "duration": 0.1102173374999893
                },
                {
                    "name": "C3",
                    "midi": 48,
                    "time": 146.99512275000026,
                    "velocity": 0.5748031496062992,
                    "duration": 0.1102173374999893
                },
                {
                    "name": "F2",
                    "midi": 41,
                    "time": 147.11114100000026,
                    "velocity": 0.5196850393700787,
                    "duration": 0.34805474999998864
                },
                {
                    "name": "F3",
                    "midi": 53,
                    "time": 147.11114100000026,
                    "velocity": 0.6220472440944882,
                    "duration": 0.34805474999998864
                },
                {
                    "name": "F2",
                    "midi": 41,
                    "time": 147.45919575000025,
                    "velocity": 0.4645669291338583,
                    "duration": 0.11601824999999621
                },
                {
                    "name": "F3",
                    "midi": 53,
                    "time": 147.45919575000025,
                    "velocity": 0.5590551181102362,
                    "duration": 0.11601824999999621
                },
                {
                    "name": "A#2",
                    "midi": 46,
                    "time": 147.57521400000024,
                    "velocity": 0.5511811023622047,
                    "duration": 0.11601824999999621
                },
                {
                    "name": "C#3",
                    "midi": 49,
                    "time": 147.57521400000024,
                    "velocity": 0.5511811023622047,
                    "duration": 0.11601824999999621
                },
                {
                    "name": "F#3",
                    "midi": 54,
                    "time": 147.57521400000024,
                    "velocity": 0.6614173228346457,
                    "duration": 0.11601824999999621
                },
                {
                    "name": "F#3",
                    "midi": 54,
                    "time": 149.66354250000023,
                    "velocity": 0.49606299212598426,
                    "duration": 0.13535462499999085
                },
                {
                    "name": "A#3",
                    "midi": 58,
                    "time": 149.77956075000023,
                    "velocity": 0.5118110236220472,
                    "duration": 0.13535462499999085
                },
                {
                    "name": "C#4",
                    "midi": 61,
                    "time": 149.89557900000023,
                    "velocity": 0.5354330708661418,
                    "duration": 0.13535462499999085
                },
                {
                    "name": "B3",
                    "midi": 59,
                    "time": 150.01159725000022,
                    "velocity": 0.5196850393700787,
                    "duration": 0.13535462499999085
                },
                {
                    "name": "A#3",
                    "midi": 58,
                    "time": 150.12761550000022,
                    "velocity": 0.5039370078740157,
                    "duration": 0.13535462499999085
                },
                {
                    "name": "G#3",
                    "midi": 56,
                    "time": 150.2436337500002,
                    "velocity": 0.49606299212598426,
                    "duration": 0.13535462499999085
                },
                {
                    "name": "F#3",
                    "midi": 54,
                    "time": 150.3596520000002,
                    "velocity": 0.48031496062992124,
                    "duration": 0.13535462499999085
                },
                {
                    "name": "F3",
                    "midi": 53,
                    "time": 150.4756702500002,
                    "velocity": 0.48031496062992124,
                    "duration": 0.13535462499999085
                },
                {
                    "name": "D#3",
                    "midi": 51,
                    "time": 150.5916885000002,
                    "velocity": 0.49606299212598426,
                    "duration": 0.13535462499999085
                },
                {
                    "name": "C#3",
                    "midi": 49,
                    "time": 150.7077067500002,
                    "velocity": 0.5039370078740157,
                    "duration": 0.13535462499999085
                },
                {
                    "name": "B2",
                    "midi": 47,
                    "time": 150.8237250000002,
                    "velocity": 0.5039370078740157,
                    "duration": 0.13535462499999085
                },
                {
                    "name": "A#2",
                    "midi": 46,
                    "time": 150.9397432500002,
                    "velocity": 0.5118110236220472,
                    "duration": 0.13535462499999085
                },
                {
                    "name": "G#2",
                    "midi": 44,
                    "time": 151.0557615000002,
                    "velocity": 0.5196850393700787,
                    "duration": 0.13535462499999085
                },
                {
                    "name": "F#2",
                    "midi": 42,
                    "time": 151.17177975000018,
                    "velocity": 0.5196850393700787,
                    "duration": 0.11601824999999621
                },
                {
                    "name": "A#1",
                    "midi": 34,
                    "time": 151.28779800000018,
                    "velocity": 0.48031496062992124,
                    "duration": 0.23203649999999243
                },
                {
                    "name": "A#2",
                    "midi": 46,
                    "time": 151.28779800000018,
                    "velocity": 0.5748031496062992,
                    "duration": 0.23203649999999243
                },
                {
                    "name": "A#1",
                    "midi": 34,
                    "time": 151.75187100000016,
                    "velocity": 0.5118110236220472,
                    "duration": 0.23203649999999243
                },
                {
                    "name": "A#2",
                    "midi": 46,
                    "time": 151.75187100000016,
                    "velocity": 0.6062992125984252,
                    "duration": 0.23203649999999243
                },
                {
                    "name": "A#1",
                    "midi": 34,
                    "time": 152.21594400000015,
                    "velocity": 0.5039370078740157,
                    "duration": 0.23203649999999243
                },
                {
                    "name": "A#2",
                    "midi": 46,
                    "time": 152.21594400000015,
                    "velocity": 0.5984251968503937,
                    "duration": 0.23203649999999243
                },
                {
                    "name": "A#1",
                    "midi": 34,
                    "time": 152.44798050000014,
                    "velocity": 0.4094488188976378,
                    "duration": 0.11601824999999621
                },
                {
                    "name": "A#2",
                    "midi": 46,
                    "time": 152.44798050000014,
                    "velocity": 0.49606299212598426,
                    "duration": 0.11601824999999621
                },
                {
                    "name": "A#1",
                    "midi": 34,
                    "time": 152.68001700000013,
                    "velocity": 0.44881889763779526,
                    "duration": 0.11601824999999621
                },
                {
                    "name": "A#2",
                    "midi": 46,
                    "time": 152.68001700000013,
                    "velocity": 0.5275590551181102,
                    "duration": 0.11601824999999621
                },
                {
                    "name": "A#1",
                    "midi": 34,
                    "time": 152.91205350000013,
                    "velocity": 0.47244094488188976,
                    "duration": 0.11601824999999621
                },
                {
                    "name": "A#2",
                    "midi": 46,
                    "time": 152.91205350000013,
                    "velocity": 0.5669291338582677,
                    "duration": 0.11601824999999621
                },
                {
                    "name": "C2",
                    "midi": 36,
                    "time": 153.14409000000012,
                    "velocity": 0.48031496062992124,
                    "duration": 0.23203649999999243
                },
                {
                    "name": "C3",
                    "midi": 48,
                    "time": 153.14409000000012,
                    "velocity": 0.5748031496062992,
                    "duration": 0.23203649999999243
                },
                {
                    "name": "C2",
                    "midi": 36,
                    "time": 153.6081630000001,
                    "velocity": 0.5118110236220472,
                    "duration": 0.23203649999999243
                },
                {
                    "name": "C3",
                    "midi": 48,
                    "time": 153.6081630000001,
                    "velocity": 0.6062992125984252,
                    "duration": 0.23203649999999243
                },
                {
                    "name": "C2",
                    "midi": 36,
                    "time": 154.0722360000001,
                    "velocity": 0.5039370078740157,
                    "duration": 0.23203649999999243
                },
                {
                    "name": "C3",
                    "midi": 48,
                    "time": 154.0722360000001,
                    "velocity": 0.5984251968503937,
                    "duration": 0.23203649999999243
                },
                {
                    "name": "C2",
                    "midi": 36,
                    "time": 154.30427250000008,
                    "velocity": 0.4094488188976378,
                    "duration": 0.11601824999999621
                },
                {
                    "name": "C3",
                    "midi": 48,
                    "time": 154.30427250000008,
                    "velocity": 0.49606299212598426,
                    "duration": 0.11601824999999621
                },
                {
                    "name": "C2",
                    "midi": 36,
                    "time": 154.53630900000007,
                    "velocity": 0.44881889763779526,
                    "duration": 0.11601824999999621
                },
                {
                    "name": "C3",
                    "midi": 48,
                    "time": 154.53630900000007,
                    "velocity": 0.5275590551181102,
                    "duration": 0.11601824999999621
                },
                {
                    "name": "C2",
                    "midi": 36,
                    "time": 154.76834550000007,
                    "velocity": 0.47244094488188976,
                    "duration": 0.11601824999999621
                },
                {
                    "name": "C3",
                    "midi": 48,
                    "time": 154.76834550000007,
                    "velocity": 0.5669291338582677,
                    "duration": 0.11601824999999621
                },
                {
                    "name": "F2",
                    "midi": 41,
                    "time": 155.00038200000006,
                    "velocity": 0.5275590551181102,
                    "duration": 0.11601825000002464
                },
                {
                    "name": "G#2",
                    "midi": 44,
                    "time": 155.11640025000008,
                    "velocity": 0.44881889763779526,
                    "duration": 0.11601824999999621
                },
                {
                    "name": "C3",
                    "midi": 48,
                    "time": 155.23241850000008,
                    "velocity": 0.44881889763779526,
                    "duration": 0.11601824999999621
                },
                {
                    "name": "F3",
                    "midi": 53,
                    "time": 155.34843675000008,
                    "velocity": 0.44881889763779526,
                    "duration": 0.11601824999999621
                },
                {
                    "name": "F2",
                    "midi": 41,
                    "time": 155.46445500000007,
                    "velocity": 0.5275590551181102,
                    "duration": 0.11601824999999621
                },
                {
                    "name": "G#2",
                    "midi": 44,
                    "time": 155.58047325000007,
                    "velocity": 0.44881889763779526,
                    "duration": 0.11601824999999621
                },
                {
                    "name": "C3",
                    "midi": 48,
                    "time": 155.69649150000006,
                    "velocity": 0.44881889763779526,
                    "duration": 0.11601824999999621
                },
                {
                    "name": "F3",
                    "midi": 53,
                    "time": 155.81250975000006,
                    "velocity": 0.44881889763779526,
                    "duration": 0.11601824999999621
                },
                {
                    "name": "F2",
                    "midi": 41,
                    "time": 155.92852800000006,
                    "velocity": 0.5275590551181102,
                    "duration": 0.11601825000002464
                },
                {
                    "name": "G#2",
                    "midi": 44,
                    "time": 156.04454625000008,
                    "velocity": 0.4409448818897638,
                    "duration": 0.11601824999999621
                },
                {
                    "name": "C3",
                    "midi": 48,
                    "time": 156.16056450000008,
                    "velocity": 0.44881889763779526,
                    "duration": 0.11601824999999621
                },
                {
                    "name": "F3",
                    "midi": 53,
                    "time": 156.27658275000007,
                    "velocity": 0.44881889763779526,
                    "duration": 0.11601824999999621
                },
                {
                    "name": "F2",
                    "midi": 41,
                    "time": 156.39260100000007,
                    "velocity": 0.5275590551181102,
                    "duration": 0.11601824999999621
                },
                {
                    "name": "G#2",
                    "midi": 44,
                    "time": 156.50861925000007,
                    "velocity": 0.4645669291338583,
                    "duration": 0.11601824999999621
                },
                {
                    "name": "C3",
                    "midi": 48,
                    "time": 156.62463750000006,
                    "velocity": 0.4645669291338583,
                    "duration": 0.11601824999999621
                },
                {
                    "name": "F3",
                    "midi": 53,
                    "time": 156.74065575000006,
                    "velocity": 0.47244094488188976,
                    "duration": 0.11601824999999621
                },
                {
                    "name": "F2",
                    "midi": 41,
                    "time": 156.85667400000006,
                    "velocity": 0.5275590551181102,
                    "duration": 0.11601824999999621
                },
                {
                    "name": "G#2",
                    "midi": 44,
                    "time": 156.97269225000005,
                    "velocity": 0.4566929133858268,
                    "duration": 0.11601824999999621
                },
                {
                    "name": "C#3",
                    "midi": 49,
                    "time": 157.08871050000005,
                    "velocity": 0.4566929133858268,
                    "duration": 0.11601824999999621
                },
                {
                    "name": "F3",
                    "midi": 53,
                    "time": 157.20472875000004,
                    "velocity": 0.4566929133858268,
                    "duration": 0.11601824999999621
                },
                {
                    "name": "F2",
                    "midi": 41,
                    "time": 157.32074700000004,
                    "velocity": 0.5275590551181102,
                    "duration": 0.11601824999999621
                },
                {
                    "name": "G#2",
                    "midi": 44,
                    "time": 157.43676525000004,
                    "velocity": 0.47244094488188976,
                    "duration": 0.11601824999999621
                },
                {
                    "name": "C#3",
                    "midi": 49,
                    "time": 157.55278350000003,
                    "velocity": 0.47244094488188976,
                    "duration": 0.11601824999999621
                },
                {
                    "name": "F3",
                    "midi": 53,
                    "time": 157.66880175000003,
                    "velocity": 0.47244094488188976,
                    "duration": 0.11601824999999621
                },
                {
                    "name": "F2",
                    "midi": 41,
                    "time": 157.78482000000002,
                    "velocity": 0.5275590551181102,
                    "duration": 0.11601824999996779
                },
                {
                    "name": "C3",
                    "midi": 48,
                    "time": 157.90083825,
                    "velocity": 0.4566929133858268,
                    "duration": 0.11601824999999621
                },
                {
                    "name": "D#3",
                    "midi": 51,
                    "time": 158.0168565,
                    "velocity": 0.4566929133858268,
                    "duration": 0.11601824999999621
                },
                {
                    "name": "F3",
                    "midi": 53,
                    "time": 158.13287474999998,
                    "velocity": 0.4566929133858268,
                    "duration": 0.11601824999999621
                },
                {
                    "name": "F2",
                    "midi": 41,
                    "time": 158.24889299999998,
                    "velocity": 0.5275590551181102,
                    "duration": 0.11601824999999621
                },
                {
                    "name": "C3",
                    "midi": 48,
                    "time": 158.36491124999998,
                    "velocity": 0.44881889763779526,
                    "duration": 0.11601824999999621
                },
                {
                    "name": "D#3",
                    "midi": 51,
                    "time": 158.48092949999997,
                    "velocity": 0.44881889763779526,
                    "duration": 0.11601824999999621
                },
                {
                    "name": "F3",
                    "midi": 53,
                    "time": 158.59694774999997,
                    "velocity": 0.44881889763779526,
                    "duration": 0.11601824999999621
                },
                {
                    "name": "F2",
                    "midi": 41,
                    "time": 158.71296599999997,
                    "velocity": 0.5275590551181102,
                    "duration": 0.11601824999999621
                },
                {
                    "name": "A#2",
                    "midi": 46,
                    "time": 158.82898424999996,
                    "velocity": 0.44881889763779526,
                    "duration": 0.11601824999999621
                },
                {
                    "name": "C#3",
                    "midi": 49,
                    "time": 158.94500249999996,
                    "velocity": 0.44881889763779526,
                    "duration": 0.11601824999999621
                },
                {
                    "name": "F3",
                    "midi": 53,
                    "time": 159.06102074999995,
                    "velocity": 0.44881889763779526,
                    "duration": 0.11601824999999621
                },
                {
                    "name": "F2",
                    "midi": 41,
                    "time": 159.17703899999995,
                    "velocity": 0.5275590551181102,
                    "duration": 0.11601824999999621
                },
                {
                    "name": "A#2",
                    "midi": 46,
                    "time": 159.29305724999995,
                    "velocity": 0.4330708661417323,
                    "duration": 0.11601824999999621
                },
                {
                    "name": "C#3",
                    "midi": 49,
                    "time": 159.40907549999994,
                    "velocity": 0.4330708661417323,
                    "duration": 0.11601824999999621
                },
                {
                    "name": "F3",
                    "midi": 53,
                    "time": 159.52509374999994,
                    "velocity": 0.4251968503937008,
                    "duration": 0.11601824999999621
                },
                {
                    "name": "F2",
                    "midi": 41,
                    "time": 159.64111199999994,
                    "velocity": 0.49606299212598426,
                    "duration": 0.11601825000002464
                },
                {
                    "name": "A#2",
                    "midi": 46,
                    "time": 159.75713024999996,
                    "velocity": 0.41732283464566927,
                    "duration": 0.11601824999999621
                },
                {
                    "name": "C#3",
                    "midi": 49,
                    "time": 159.87314849999996,
                    "velocity": 0.4251968503937008,
                    "duration": 0.11601824999999621
                },
                {
                    "name": "F3",
                    "midi": 53,
                    "time": 159.98916674999995,
                    "velocity": 0.4251968503937008,
                    "duration": 0.11601824999999621
                },
                {
                    "name": "F2",
                    "midi": 41,
                    "time": 160.10518499999995,
                    "velocity": 0.49606299212598426,
                    "duration": 0.11601824999999621
                },
                {
                    "name": "A#2",
                    "midi": 46,
                    "time": 160.22120324999995,
                    "velocity": 0.4409448818897638,
                    "duration": 0.11601824999999621
                },
                {
                    "name": "C#3",
                    "midi": 49,
                    "time": 160.33722149999994,
                    "velocity": 0.4409448818897638,
                    "duration": 0.11601824999999621
                },
                {
                    "name": "F3",
                    "midi": 53,
                    "time": 160.45323974999994,
                    "velocity": 0.44881889763779526,
                    "duration": 0.11601824999999621
                },
                {
                    "name": "F#2",
                    "midi": 42,
                    "time": 160.56925799999993,
                    "velocity": 0.49606299212598426,
                    "duration": 0.11601824999999621
                },
                {
                    "name": "A#2",
                    "midi": 46,
                    "time": 160.68527624999993,
                    "velocity": 0.4330708661417323,
                    "duration": 0.11601824999999621
                },
                {
                    "name": "C#3",
                    "midi": 49,
                    "time": 160.80129449999993,
                    "velocity": 0.4330708661417323,
                    "duration": 0.11601824999999621
                },
                {
                    "name": "F#3",
                    "midi": 54,
                    "time": 160.91731274999992,
                    "velocity": 0.4330708661417323,
                    "duration": 0.11601824999999621
                },
                {
                    "name": "F#2",
                    "midi": 42,
                    "time": 161.03333099999992,
                    "velocity": 0.49606299212598426,
                    "duration": 0.11601825000002464
                },
                {
                    "name": "A#2",
                    "midi": 46,
                    "time": 161.14934924999994,
                    "velocity": 0.44881889763779526,
                    "duration": 0.11601824999999621
                },
                {
                    "name": "C#3",
                    "midi": 49,
                    "time": 161.26536749999994,
                    "velocity": 0.44881889763779526,
                    "duration": 0.11601824999999621
                },
                {
                    "name": "F#3",
                    "midi": 54,
                    "time": 161.38138574999994,
                    "velocity": 0.44881889763779526,
                    "duration": 0.11601824999999621
                },
                {
                    "name": "G2",
                    "midi": 43,
                    "time": 161.49740399999993,
                    "velocity": 0.49606299212598426,
                    "duration": 0.11601824999999621
                },
                {
                    "name": "A#2",
                    "midi": 46,
                    "time": 161.61342224999993,
                    "velocity": 0.4330708661417323,
                    "duration": 0.11601824999999621
                },
                {
                    "name": "C3",
                    "midi": 48,
                    "time": 161.72944049999992,
                    "velocity": 0.4330708661417323,
                    "duration": 0.11601824999999621
                },
                {
                    "name": "G3",
                    "midi": 55,
                    "time": 161.84545874999992,
                    "velocity": 0.4330708661417323,
                    "duration": 0.11601824999999621
                },
                {
                    "name": "G2",
                    "midi": 43,
                    "time": 161.96147699999992,
                    "velocity": 0.49606299212598426,
                    "duration": 0.11601824999999621
                },
                {
                    "name": "A#2",
                    "midi": 46,
                    "time": 162.0774952499999,
                    "velocity": 0.4251968503937008,
                    "duration": 0.11601824999999621
                },
                {
                    "name": "C3",
                    "midi": 48,
                    "time": 162.1935134999999,
                    "velocity": 0.4251968503937008,
                    "duration": 0.11601824999999621
                },
                {
                    "name": "G3",
                    "midi": 55,
                    "time": 162.3095317499999,
                    "velocity": 0.4251968503937008,
                    "duration": 0.11601824999999621
                },
                {
                    "name": "G#2",
                    "midi": 44,
                    "time": 162.4255499999999,
                    "velocity": 0.49606299212598426,
                    "duration": 0.11601824999999621
                },
                {
                    "name": "C3",
                    "midi": 48,
                    "time": 162.5415682499999,
                    "velocity": 0.4251968503937008,
                    "duration": 0.11601824999999621
                },
                {
                    "name": "F3",
                    "midi": 53,
                    "time": 162.6575864999999,
                    "velocity": 0.4251968503937008,
                    "duration": 0.11601824999999621
                },
                {
                    "name": "G#3",
                    "midi": 56,
                    "time": 162.7736047499999,
                    "velocity": 0.4251968503937008,
                    "duration": 0.11601824999999621
                },
                {
                    "name": "G#2",
                    "midi": 44,
                    "time": 162.8896229999999,
                    "velocity": 0.49606299212598426,
                    "duration": 0.11601824999999621
                },
                {
                    "name": "C3",
                    "midi": 48,
                    "time": 163.00564124999988,
                    "velocity": 0.4251968503937008,
                    "duration": 0.11601824999999621
                },
                {
                    "name": "F3",
                    "midi": 53,
                    "time": 163.12165949999988,
                    "velocity": 0.4251968503937008,
                    "duration": 0.11601824999999621
                },
                {
                    "name": "G#3",
                    "midi": 56,
                    "time": 163.23767774999988,
                    "velocity": 0.4251968503937008,
                    "duration": 0.11601824999999621
                },
                {
                    "name": "G#2",
                    "midi": 44,
                    "time": 163.35369599999987,
                    "velocity": 0.49606299212598426,
                    "duration": 0.11601824999999621
                },
                {
                    "name": "C3",
                    "midi": 48,
                    "time": 163.46971424999987,
                    "velocity": 0.41732283464566927,
                    "duration": 0.11601824999999621
                },
                {
                    "name": "F3",
                    "midi": 53,
                    "time": 163.58573249999986,
                    "velocity": 0.4251968503937008,
                    "duration": 0.11601824999999621
                },
                {
                    "name": "G#3",
                    "midi": 56,
                    "time": 163.70175074999986,
                    "velocity": 0.4251968503937008,
                    "duration": 0.11601824999999621
                },
                {
                    "name": "G#2",
                    "midi": 44,
                    "time": 163.81776899999986,
                    "velocity": 0.49606299212598426,
                    "duration": 0.11601824999999621
                },
                {
                    "name": "C3",
                    "midi": 48,
                    "time": 163.93378724999985,
                    "velocity": 0.4409448818897638,
                    "duration": 0.11601824999999621
                },
                {
                    "name": "F3",
                    "midi": 53,
                    "time": 164.04980549999985,
                    "velocity": 0.4409448818897638,
                    "duration": 0.11601824999999621
                },
                {
                    "name": "G#3",
                    "midi": 56,
                    "time": 164.16582374999984,
                    "velocity": 0.44881889763779526,
                    "duration": 0.11601824999999621
                },
                {
                    "name": "G#2",
                    "midi": 44,
                    "time": 164.28184199999984,
                    "velocity": 0.49606299212598426,
                    "duration": 0.11601824999999621
                },
                {
                    "name": "C#3",
                    "midi": 49,
                    "time": 164.39786024999984,
                    "velocity": 0.4330708661417323,
                    "duration": 0.11601824999999621
                },
                {
                    "name": "F3",
                    "midi": 53,
                    "time": 164.51387849999983,
                    "velocity": 0.4330708661417323,
                    "duration": 0.11601824999999621
                },
                {
                    "name": "G#3",
                    "midi": 56,
                    "time": 164.62989674999983,
                    "velocity": 0.4330708661417323,
                    "duration": 0.11601824999999621
                },
                {
                    "name": "G#2",
                    "midi": 44,
                    "time": 164.74591499999983,
                    "velocity": 0.49606299212598426,
                    "duration": 0.11601824999999621
                },
                {
                    "name": "C#3",
                    "midi": 49,
                    "time": 164.86193324999982,
                    "velocity": 0.44881889763779526,
                    "duration": 0.11601824999999621
                },
                {
                    "name": "F3",
                    "midi": 53,
                    "time": 164.97795149999982,
                    "velocity": 0.44881889763779526,
                    "duration": 0.11601824999999621
                },
                {
                    "name": "G#3",
                    "midi": 56,
                    "time": 165.09396974999981,
                    "velocity": 0.44881889763779526,
                    "duration": 0.11601824999999621
                },
                {
                    "name": "G#2",
                    "midi": 44,
                    "time": 165.2099879999998,
                    "velocity": 0.49606299212598426,
                    "duration": 0.11601824999999621
                },
                {
                    "name": "D#3",
                    "midi": 51,
                    "time": 165.3260062499998,
                    "velocity": 0.4330708661417323,
                    "duration": 0.11601824999999621
                },
                {
                    "name": "F#3",
                    "midi": 54,
                    "time": 165.4420244999998,
                    "velocity": 0.4330708661417323,
                    "duration": 0.11601824999999621
                },
                {
                    "name": "G#3",
                    "midi": 56,
                    "time": 165.5580427499998,
                    "velocity": 0.4330708661417323,
                    "duration": 0.11601824999999621
                },
                {
                    "name": "G#2",
                    "midi": 44,
                    "time": 165.6740609999998,
                    "velocity": 0.49606299212598426,
                    "duration": 0.11601824999999621
                },
                {
                    "name": "D#3",
                    "midi": 51,
                    "time": 165.7900792499998,
                    "velocity": 0.4251968503937008,
                    "duration": 0.11601824999999621
                },
                {
                    "name": "F#3",
                    "midi": 54,
                    "time": 165.9060974999998,
                    "velocity": 0.4251968503937008,
                    "duration": 0.11601824999999621
                },
                {
                    "name": "G#3",
                    "midi": 56,
                    "time": 166.02211574999978,
                    "velocity": 0.4251968503937008,
                    "duration": 0.11601824999999621
                },
                {
                    "name": "G#2",
                    "midi": 44,
                    "time": 166.13813399999978,
                    "velocity": 0.5275590551181102,
                    "duration": 0.11601824999999621
                },
                {
                    "name": "C#3",
                    "midi": 49,
                    "time": 166.25415224999978,
                    "velocity": 0.44881889763779526,
                    "duration": 0.11601824999999621
                },
                {
                    "name": "F3",
                    "midi": 53,
                    "time": 166.37017049999977,
                    "velocity": 0.44881889763779526,
                    "duration": 0.11601824999999621
                },
                {
                    "name": "G#3",
                    "midi": 56,
                    "time": 166.48618874999977,
                    "velocity": 0.44881889763779526,
                    "duration": 0.11601824999999621
                },
                {
                    "name": "G#2",
                    "midi": 44,
                    "time": 166.60220699999977,
                    "velocity": 0.5275590551181102,
                    "duration": 0.11601824999999621
                },
                {
                    "name": "C#3",
                    "midi": 49,
                    "time": 166.71822524999976,
                    "velocity": 0.4330708661417323,
                    "duration": 0.11601824999999621
                },
                {
                    "name": "F3",
                    "midi": 53,
                    "time": 166.83424349999976,
                    "velocity": 0.4330708661417323,
                    "duration": 0.11601824999999621
                },
                {
                    "name": "G#3",
                    "midi": 56,
                    "time": 166.95026174999975,
                    "velocity": 0.4015748031496063,
                    "duration": 0.11601824999999621
                },
                {
                    "name": "A2",
                    "midi": 45,
                    "time": 167.06627999999975,
                    "velocity": 0.4645669291338583,
                    "duration": 0.11601824999999621
                },
                {
                    "name": "C#3",
                    "midi": 49,
                    "time": 167.18229824999975,
                    "velocity": 0.3937007874015748,
                    "duration": 0.11601824999999621
                },
                {
                    "name": "F3",
                    "midi": 53,
                    "time": 167.29831649999974,
                    "velocity": 0.4015748031496063,
                    "duration": 0.11601824999999621
                },
                {
                    "name": "A3",
                    "midi": 57,
                    "time": 167.41433474999974,
                    "velocity": 0.4015748031496063,
                    "duration": 0.11601824999999621
                },
                {
                    "name": "A#2",
                    "midi": 46,
                    "time": 167.53035299999974,
                    "velocity": 0.4645669291338583,
                    "duration": 0.11601824999999621
                },
                {
                    "name": "C#3",
                    "midi": 49,
                    "time": 167.64637124999973,
                    "velocity": 0.41732283464566927,
                    "duration": 0.11601824999999621
                },
                {
                    "name": "F3",
                    "midi": 53,
                    "time": 167.76238949999973,
                    "velocity": 0.41732283464566927,
                    "duration": 0.11601824999999621
                },
                {
                    "name": "A#3",
                    "midi": 58,
                    "time": 167.87840774999972,
                    "velocity": 0.4251968503937008,
                    "duration": 0.11601824999999621
                },
                {
                    "name": "C3",
                    "midi": 48,
                    "time": 167.99442599999972,
                    "velocity": 0.4645669291338583,
                    "duration": 0.11601824999999621
                },
                {
                    "name": "F3",
                    "midi": 53,
                    "time": 168.11044424999972,
                    "velocity": 0.4094488188976378,
                    "duration": 0.11601824999999621
                },
                {
                    "name": "G#3",
                    "midi": 56,
                    "time": 168.2264624999997,
                    "velocity": 0.4094488188976378,
                    "duration": 0.11601824999999621
                },
                {
                    "name": "C4",
                    "midi": 60,
                    "time": 168.3424807499997,
                    "velocity": 0.4094488188976378,
                    "duration": 0.11601824999999621
                },
                {
                    "name": "C#3",
                    "midi": 49,
                    "time": 168.4584989999997,
                    "velocity": 0.4645669291338583,
                    "duration": 0.11601825000002464
                },
                {
                    "name": "F3",
                    "midi": 53,
                    "time": 168.57451724999973,
                    "velocity": 0.4251968503937008,
                    "duration": 0.11601824999999621
                },
                {
                    "name": "G#3",
                    "midi": 56,
                    "time": 168.69053549999973,
                    "velocity": 0.4251968503937008,
                    "duration": 0.11601824999999621
                },
                {
                    "name": "C#4",
                    "midi": 61,
                    "time": 168.80655374999972,
                    "velocity": 0.4251968503937008,
                    "duration": 0.11601824999999621
                },
                {
                    "name": "C3",
                    "midi": 48,
                    "time": 168.92257199999972,
                    "velocity": 0.4645669291338583,
                    "duration": 0.11601824999999621
                },
                {
                    "name": "F3",
                    "midi": 53,
                    "time": 169.03859024999971,
                    "velocity": 0.4094488188976378,
                    "duration": 0.11601824999999621
                },
                {
                    "name": "G#3",
                    "midi": 56,
                    "time": 169.1546084999997,
                    "velocity": 0.4094488188976378,
                    "duration": 0.11601824999999621
                },
                {
                    "name": "C4",
                    "midi": 60,
                    "time": 169.2706267499997,
                    "velocity": 0.4094488188976378,
                    "duration": 0.11601824999999621
                },
                {
                    "name": "C3",
                    "midi": 48,
                    "time": 169.3866449999997,
                    "velocity": 0.4645669291338583,
                    "duration": 0.11601824999999621
                },
                {
                    "name": "F3",
                    "midi": 53,
                    "time": 169.5026632499997,
                    "velocity": 0.4015748031496063,
                    "duration": 0.11601824999999621
                },
                {
                    "name": "G#3",
                    "midi": 56,
                    "time": 169.6186814999997,
                    "velocity": 0.4015748031496063,
                    "duration": 0.11601824999999621
                },
                {
                    "name": "C4",
                    "midi": 60,
                    "time": 169.7346997499997,
                    "velocity": 0.4015748031496063,
                    "duration": 0.11601824999999621
                },
                {
                    "name": "C3",
                    "midi": 48,
                    "time": 169.8507179999997,
                    "velocity": 0.4409448818897638,
                    "duration": 0.11601824999999621
                },
                {
                    "name": "F3",
                    "midi": 53,
                    "time": 169.96673624999968,
                    "velocity": 0.3858267716535433,
                    "duration": 0.11601824999999621
                },
                {
                    "name": "G3",
                    "midi": 55,
                    "time": 170.08275449999968,
                    "velocity": 0.3779527559055118,
                    "duration": 0.11601824999999621
                },
                {
                    "name": "C4",
                    "midi": 60,
                    "time": 170.19877274999968,
                    "velocity": 0.3700787401574803,
                    "duration": 0.11601824999999621
                },
                {
                    "name": "C3",
                    "midi": 48,
                    "time": 170.31479099999967,
                    "velocity": 0.4015748031496063,
                    "duration": 0.11601824999999621
                },
                {
                    "name": "E3",
                    "midi": 52,
                    "time": 170.43080924999967,
                    "velocity": 0.3464566929133858,
                    "duration": 0.11601824999999621
                },
                {
                    "name": "G3",
                    "midi": 55,
                    "time": 170.54682749999967,
                    "velocity": 0.33858267716535434,
                    "duration": 0.11601824999999621
                },
                {
                    "name": "C4",
                    "midi": 60,
                    "time": 170.66284574999966,
                    "velocity": 0.33070866141732286,
                    "duration": 0.11601824999999621
                },
                {
                    "name": "F2",
                    "midi": 41,
                    "time": 170.77886399999966,
                    "velocity": 0.33070866141732286,
                    "duration": 0.15469099999998548
                },
                {
                    "name": "A3",
                    "midi": 57,
                    "time": 170.93355499999964,
                    "velocity": 0.33070866141732286,
                    "duration": 0.1546910000000139
                },
                {
                    "name": "C4",
                    "midi": 60,
                    "time": 171.08824599999966,
                    "velocity": 0.2677165354330709,
                    "duration": 0.1546910000000139
                },
                {
                    "name": "F3",
                    "midi": 53,
                    "time": 171.24293699999967,
                    "velocity": 0.2677165354330709,
                    "duration": 0.1546910000000139
                },
                {
                    "name": "A3",
                    "midi": 57,
                    "time": 171.39762799999968,
                    "velocity": 0.23622047244094488,
                    "duration": 0.1546910000000139
                },
                {
                    "name": "C4",
                    "midi": 60,
                    "time": 171.5523189999997,
                    "velocity": 0.23622047244094488,
                    "duration": 0.1546910000000139
                },
                {
                    "name": "F3",
                    "midi": 53,
                    "time": 171.7070099999997,
                    "velocity": 0.2677165354330709,
                    "duration": 0.15469099999998548
                },
                {
                    "name": "A3",
                    "midi": 57,
                    "time": 171.8617009999997,
                    "velocity": 0.2283464566929134,
                    "duration": 0.1546910000000139
                },
                {
                    "name": "C4",
                    "midi": 60,
                    "time": 172.0163919999997,
                    "velocity": 0.2283464566929134,
                    "duration": 0.1546910000000139
                },
                {
                    "name": "F3",
                    "midi": 53,
                    "time": 172.17108299999973,
                    "velocity": 0.2677165354330709,
                    "duration": 0.1546910000000139
                },
                {
                    "name": "A3",
                    "midi": 57,
                    "time": 172.32577399999974,
                    "velocity": 0.23622047244094488,
                    "duration": 0.1546910000000139
                },
                {
                    "name": "C4",
                    "midi": 60,
                    "time": 172.48046499999975,
                    "velocity": 0.23622047244094488,
                    "duration": 0.1546910000000139
                },
                {
                    "name": "F3",
                    "midi": 53,
                    "time": 172.63515599999977,
                    "velocity": 0.2677165354330709,
                    "duration": 0.1546910000000139
                },
                {
                    "name": "A3",
                    "midi": 57,
                    "time": 172.78984699999978,
                    "velocity": 0.23622047244094488,
                    "duration": 0.1546910000000139
                },
                {
                    "name": "C4",
                    "midi": 60,
                    "time": 172.9445379999998,
                    "velocity": 0.23622047244094488,
                    "duration": 0.1546910000000139
                },
                {
                    "name": "D#3",
                    "midi": 51,
                    "time": 173.0992289999998,
                    "velocity": 0.2677165354330709,
                    "duration": 0.1546910000000139
                },
                {
                    "name": "A3",
                    "midi": 57,
                    "time": 173.25391999999982,
                    "velocity": 0.23622047244094488,
                    "duration": 0.1546910000000139
                },
                {
                    "name": "C4",
                    "midi": 60,
                    "time": 173.40861099999984,
                    "velocity": 0.23622047244094488,
                    "duration": 0.1546910000000139
                },
                {
                    "name": "D3",
                    "midi": 50,
                    "time": 173.56330199999985,
                    "velocity": 0.2677165354330709,
                    "duration": 0.1546910000000139
                },
                {
                    "name": "A#3",
                    "midi": 58,
                    "time": 173.71799299999986,
                    "velocity": 0.2283464566929134,
                    "duration": 0.1546910000000139
                },
                {
                    "name": "C4",
                    "midi": 60,
                    "time": 173.87268399999988,
                    "velocity": 0.2283464566929134,
                    "duration": 0.1546910000000139
                },
                {
                    "name": "E3",
                    "midi": 52,
                    "time": 174.0273749999999,
                    "velocity": 0.2677165354330709,
                    "duration": 0.15469099999998548
                },
                {
                    "name": "A#3",
                    "midi": 58,
                    "time": 174.18206599999988,
                    "velocity": 0.23622047244094488,
                    "duration": 0.1546910000000139
                },
                {
                    "name": "C4",
                    "midi": 60,
                    "time": 174.3367569999999,
                    "velocity": 0.23622047244094488,
                    "duration": 0.1546910000000139
                },
                {
                    "name": "F3",
                    "midi": 53,
                    "time": 174.4914479999999,
                    "velocity": 0.2677165354330709,
                    "duration": 0.1546910000000139
                },
                {
                    "name": "A3",
                    "midi": 57,
                    "time": 174.64613899999992,
                    "velocity": 0.2440944881889764,
                    "duration": 0.1546910000000139
                },
                {
                    "name": "C4",
                    "midi": 60,
                    "time": 174.80082999999993,
                    "velocity": 0.2440944881889764,
                    "duration": 0.1546910000000139
                },
                {
                    "name": "F3",
                    "midi": 53,
                    "time": 174.95552099999995,
                    "velocity": 0.2677165354330709,
                    "duration": 0.15469099999998548
                },
                {
                    "name": "A3",
                    "midi": 57,
                    "time": 175.11021199999993,
                    "velocity": 0.23622047244094488,
                    "duration": 0.1546910000000139
                },
                {
                    "name": "C4",
                    "midi": 60,
                    "time": 175.26490299999995,
                    "velocity": 0.23622047244094488,
                    "duration": 0.1546910000000139
                },
                {
                    "name": "F3",
                    "midi": 53,
                    "time": 175.41959399999996,
                    "velocity": 0.2677165354330709,
                    "duration": 0.15469099999998548
                },
                {
                    "name": "A3",
                    "midi": 57,
                    "time": 175.57428499999995,
                    "velocity": 0.2283464566929134,
                    "duration": 0.1546910000000139
                },
                {
                    "name": "C4",
                    "midi": 60,
                    "time": 175.72897599999996,
                    "velocity": 0.2283464566929134,
                    "duration": 0.1546910000000139
                },
                {
                    "name": "E3",
                    "midi": 52,
                    "time": 175.88366699999997,
                    "velocity": 0.2677165354330709,
                    "duration": 0.1546910000000139
                },
                {
                    "name": "G3",
                    "midi": 55,
                    "time": 176.038358,
                    "velocity": 0.23622047244094488,
                    "duration": 0.1546910000000139
                },
                {
                    "name": "C4",
                    "midi": 60,
                    "time": 176.193049,
                    "velocity": 0.23622047244094488,
                    "duration": 0.1546910000000139
                },
                {
                    "name": "D3",
                    "midi": 50,
                    "time": 176.34774000000002,
                    "velocity": 0.2677165354330709,
                    "duration": 0.1546910000000139
                },
                {
                    "name": "F3",
                    "midi": 53,
                    "time": 176.50243100000003,
                    "velocity": 0.23622047244094488,
                    "duration": 0.1546910000000139
                },
                {
                    "name": "A3",
                    "midi": 57,
                    "time": 176.65712200000004,
                    "velocity": 0.23622047244094488,
                    "duration": 0.1546910000000139
                },
                {
                    "name": "D3",
                    "midi": 50,
                    "time": 176.81181300000006,
                    "velocity": 0.2677165354330709,
                    "duration": 0.1546910000000139
                },
                {
                    "name": "F3",
                    "midi": 53,
                    "time": 176.96650400000007,
                    "velocity": 0.23622047244094488,
                    "duration": 0.1546910000000139
                },
                {
                    "name": "B3",
                    "midi": 59,
                    "time": 177.12119500000009,
                    "velocity": 0.23622047244094488,
                    "duration": 0.1546910000000139
                },
                {
                    "name": "C3",
                    "midi": 48,
                    "time": 177.2758860000001,
                    "velocity": 0.2677165354330709,
                    "duration": 0.1546910000000139
                },
                {
                    "name": "F3",
                    "midi": 53,
                    "time": 177.4305770000001,
                    "velocity": 0.2283464566929134,
                    "duration": 0.1546910000000139
                },
                {
                    "name": "C4",
                    "midi": 60,
                    "time": 177.58526800000013,
                    "velocity": 0.2283464566929134,
                    "duration": 0.1546910000000139
                },
                {
                    "name": "C3",
                    "midi": 48,
                    "time": 177.73995900000014,
                    "velocity": 0.2677165354330709,
                    "duration": 0.15469099999998548
                },
                {
                    "name": "E3",
                    "midi": 52,
                    "time": 177.89465000000013,
                    "velocity": 0.23622047244094488,
                    "duration": 0.1546910000000139
                },
                {
                    "name": "C4",
                    "midi": 60,
                    "time": 178.04934100000014,
                    "velocity": 0.23622047244094488,
                    "duration": 0.1546910000000139
                },
                {
                    "name": "F2",
                    "midi": 41,
                    "time": 178.20403200000015,
                    "velocity": 0.2677165354330709,
                    "duration": 0.1546910000000139
                },
                {
                    "name": "A3",
                    "midi": 57,
                    "time": 178.35872300000017,
                    "velocity": 0.2440944881889764,
                    "duration": 0.1546910000000139
                },
                {
                    "name": "C4",
                    "midi": 60,
                    "time": 178.51341400000018,
                    "velocity": 0.2440944881889764,
                    "duration": 0.1546910000000139
                },
                {
                    "name": "F3",
                    "midi": 53,
                    "time": 178.6681050000002,
                    "velocity": 0.2677165354330709,
                    "duration": 0.15469099999998548
                },
                {
                    "name": "A3",
                    "midi": 57,
                    "time": 178.82279600000018,
                    "velocity": 0.23622047244094488,
                    "duration": 0.1546910000000139
                },
                {
                    "name": "C4",
                    "midi": 60,
                    "time": 178.9774870000002,
                    "velocity": 0.23622047244094488,
                    "duration": 0.1546910000000139
                },
                {
                    "name": "F3",
                    "midi": 53,
                    "time": 179.1321780000002,
                    "velocity": 0.2677165354330709,
                    "duration": 0.15469099999998548
                },
                {
                    "name": "A3",
                    "midi": 57,
                    "time": 179.2868690000002,
                    "velocity": 0.2283464566929134,
                    "duration": 0.1546910000000139
                },
                {
                    "name": "C4",
                    "midi": 60,
                    "time": 179.4415600000002,
                    "velocity": 0.2283464566929134,
                    "duration": 0.1546910000000139
                },
                {
                    "name": "F3",
                    "midi": 53,
                    "time": 179.59625100000022,
                    "velocity": 0.2677165354330709,
                    "duration": 0.1546910000000139
                },
                {
                    "name": "A3",
                    "midi": 57,
                    "time": 179.75094200000024,
                    "velocity": 0.23622047244094488,
                    "duration": 0.1546910000000139
                },
                {
                    "name": "C4",
                    "midi": 60,
                    "time": 179.90563300000025,
                    "velocity": 0.23622047244094488,
                    "duration": 0.1546910000000139
                },
                {
                    "name": "F3",
                    "midi": 53,
                    "time": 180.06032400000026,
                    "velocity": 0.2677165354330709,
                    "duration": 0.1546910000000139
                },
                {
                    "name": "A3",
                    "midi": 57,
                    "time": 180.21501500000028,
                    "velocity": 0.23622047244094488,
                    "duration": 0.1546910000000139
                },
                {
                    "name": "C4",
                    "midi": 60,
                    "time": 180.3697060000003,
                    "velocity": 0.23622047244094488,
                    "duration": 0.1546910000000139
                },
                {
                    "name": "D#3",
                    "midi": 51,
                    "time": 180.5243970000003,
                    "velocity": 0.2677165354330709,
                    "duration": 0.1546910000000139
                },
                {
                    "name": "A3",
                    "midi": 57,
                    "time": 180.67908800000032,
                    "velocity": 0.23622047244094488,
                    "duration": 0.1546910000000139
                },
                {
                    "name": "C4",
                    "midi": 60,
                    "time": 180.83377900000033,
                    "velocity": 0.23622047244094488,
                    "duration": 0.1546910000000139
                },
                {
                    "name": "D3",
                    "midi": 50,
                    "time": 180.98847000000035,
                    "velocity": 0.2677165354330709,
                    "duration": 0.1546910000000139
                },
                {
                    "name": "A#3",
                    "midi": 58,
                    "time": 181.14316100000036,
                    "velocity": 0.2283464566929134,
                    "duration": 0.1546910000000139
                },
                {
                    "name": "C4",
                    "midi": 60,
                    "time": 181.29785200000038,
                    "velocity": 0.2283464566929134,
                    "duration": 0.1546910000000139
                },
                {
                    "name": "E3",
                    "midi": 52,
                    "time": 181.4525430000004,
                    "velocity": 0.2677165354330709,
                    "duration": 0.1546910000000139
                },
                {
                    "name": "A#3",
                    "midi": 58,
                    "time": 181.6072340000004,
                    "velocity": 0.23622047244094488,
                    "duration": 0.1546910000000139
                },
                {
                    "name": "C4",
                    "midi": 60,
                    "time": 181.76192500000042,
                    "velocity": 0.23622047244094488,
                    "duration": 0.1546910000000139
                },
                {
                    "name": "F3",
                    "midi": 53,
                    "time": 181.91661600000043,
                    "velocity": 0.2677165354330709,
                    "duration": 0.1546910000000139
                },
                {
                    "name": "A3",
                    "midi": 57,
                    "time": 182.07130700000044,
                    "velocity": 0.2440944881889764,
                    "duration": 0.1546910000000139
                },
                {
                    "name": "C4",
                    "midi": 60,
                    "time": 182.22599800000046,
                    "velocity": 0.2440944881889764,
                    "duration": 0.1546910000000139
                },
                {
                    "name": "F3",
                    "midi": 53,
                    "time": 182.38068900000047,
                    "velocity": 0.2677165354330709,
                    "duration": 0.1546910000000139
                },
                {
                    "name": "A3",
                    "midi": 57,
                    "time": 182.5353800000005,
                    "velocity": 0.23622047244094488,
                    "duration": 0.1546910000000139
                },
                {
                    "name": "C4",
                    "midi": 60,
                    "time": 182.6900710000005,
                    "velocity": 0.23622047244094488,
                    "duration": 0.1546910000000139
                },
                {
                    "name": "F3",
                    "midi": 53,
                    "time": 182.84476200000051,
                    "velocity": 0.2677165354330709,
                    "duration": 0.15469099999998548
                },
                {
                    "name": "A3",
                    "midi": 57,
                    "time": 182.9994530000005,
                    "velocity": 0.2283464566929134,
                    "duration": 0.1546910000000139
                },
                {
                    "name": "C4",
                    "midi": 60,
                    "time": 183.1541440000005,
                    "velocity": 0.2283464566929134,
                    "duration": 0.1546910000000139
                },
                {
                    "name": "E3",
                    "midi": 52,
                    "time": 183.30883500000053,
                    "velocity": 0.2677165354330709,
                    "duration": 0.1546910000000139
                },
                {
                    "name": "G3",
                    "midi": 55,
                    "time": 183.46352600000054,
                    "velocity": 0.23622047244094488,
                    "duration": 0.1546910000000139
                },
                {
                    "name": "C4",
                    "midi": 60,
                    "time": 183.61821700000056,
                    "velocity": 0.23622047244094488,
                    "duration": 0.1546910000000139
                },
                {
                    "name": "D3",
                    "midi": 50,
                    "time": 183.77290800000057,
                    "velocity": 0.2677165354330709,
                    "duration": 0.1546910000000139
                },
                {
                    "name": "F3",
                    "midi": 53,
                    "time": 183.92759900000058,
                    "velocity": 0.23622047244094488,
                    "duration": 0.1546910000000139
                },
                {
                    "name": "A3",
                    "midi": 57,
                    "time": 184.0822900000006,
                    "velocity": 0.23622047244094488,
                    "duration": 0.1546910000000139
                },
                {
                    "name": "D3",
                    "midi": 50,
                    "time": 184.2369810000006,
                    "velocity": 0.2677165354330709,
                    "duration": 0.1546910000000139
                },
                {
                    "name": "F3",
                    "midi": 53,
                    "time": 184.39167200000063,
                    "velocity": 0.23622047244094488,
                    "duration": 0.1546910000000139
                },
                {
                    "name": "B3",
                    "midi": 59,
                    "time": 184.54636300000064,
                    "velocity": 0.23622047244094488,
                    "duration": 0.1546910000000139
                },
                {
                    "name": "C3",
                    "midi": 48,
                    "time": 184.70105400000065,
                    "velocity": 0.2677165354330709,
                    "duration": 0.1546910000000139
                },
                {
                    "name": "F3",
                    "midi": 53,
                    "time": 184.85574500000067,
                    "velocity": 0.2283464566929134,
                    "duration": 0.1546910000000139
                },
                {
                    "name": "C4",
                    "midi": 60,
                    "time": 185.01043600000068,
                    "velocity": 0.2283464566929134,
                    "duration": 0.1546910000000139
                },
                {
                    "name": "C3",
                    "midi": 48,
                    "time": 185.1651270000007,
                    "velocity": 0.2677165354330709,
                    "duration": 0.1546910000000139
                },
                {
                    "name": "E3",
                    "midi": 52,
                    "time": 185.3198180000007,
                    "velocity": 0.23622047244094488,
                    "duration": 0.1546910000000139
                },
                {
                    "name": "C4",
                    "midi": 60,
                    "time": 185.47450900000072,
                    "velocity": 0.23622047244094488,
                    "duration": 0.1546910000000139
                },
                {
                    "name": "F2",
                    "midi": 41,
                    "time": 185.62920000000074,
                    "velocity": 0.2677165354330709,
                    "duration": 0.1546910000000139
                },
                {
                    "name": "A3",
                    "midi": 57,
                    "time": 185.78389100000075,
                    "velocity": 0.2440944881889764,
                    "duration": 0.1546910000000139
                },
                {
                    "name": "C4",
                    "midi": 60,
                    "time": 185.93858200000076,
                    "velocity": 0.2440944881889764,
                    "duration": 0.1546910000000139
                },
                {
                    "name": "F3",
                    "midi": 53,
                    "time": 186.09327300000078,
                    "velocity": 0.2677165354330709,
                    "duration": 0.1546910000000139
                },
                {
                    "name": "A3",
                    "midi": 57,
                    "time": 186.2479640000008,
                    "velocity": 0.23622047244094488,
                    "duration": 0.1546910000000139
                },
                {
                    "name": "C4",
                    "midi": 60,
                    "time": 186.4026550000008,
                    "velocity": 0.23622047244094488,
                    "duration": 0.1546910000000139
                },
                {
                    "name": "F3",
                    "midi": 53,
                    "time": 186.55734600000082,
                    "velocity": 0.2677165354330709,
                    "duration": 0.15469099999998548
                },
                {
                    "name": "A3",
                    "midi": 57,
                    "time": 186.7120370000008,
                    "velocity": 0.2283464566929134,
                    "duration": 0.1546910000000139
                },
                {
                    "name": "C4",
                    "midi": 60,
                    "time": 186.86672800000082,
                    "velocity": 0.2283464566929134,
                    "duration": 0.1546910000000139
                },
                {
                    "name": "F#3",
                    "midi": 54,
                    "time": 187.02141900000083,
                    "velocity": 0.2677165354330709,
                    "duration": 0.1546910000000139
                },
                {
                    "name": "A3",
                    "midi": 57,
                    "time": 187.17611000000085,
                    "velocity": 0.23622047244094488,
                    "duration": 0.1546910000000139
                },
                {
                    "name": "C4",
                    "midi": 60,
                    "time": 187.33080100000086,
                    "velocity": 0.23622047244094488,
                    "duration": 0.1546910000000139
                },
                {
                    "name": "F3",
                    "midi": 53,
                    "time": 187.48549200000087,
                    "velocity": 0.2677165354330709,
                    "duration": 0.1546910000000139
                },
                {
                    "name": "A3",
                    "midi": 57,
                    "time": 187.6401830000009,
                    "velocity": 0.23622047244094488,
                    "duration": 0.1546910000000139
                },
                {
                    "name": "C4",
                    "midi": 60,
                    "time": 187.7948740000009,
                    "velocity": 0.23622047244094488,
                    "duration": 0.1546910000000139
                },
                {
                    "name": "F#3",
                    "midi": 54,
                    "time": 187.94956500000092,
                    "velocity": 0.2677165354330709,
                    "duration": 0.1546910000000139
                },
                {
                    "name": "A3",
                    "midi": 57,
                    "time": 188.10425600000093,
                    "velocity": 0.23622047244094488,
                    "duration": 0.1546910000000139
                },
                {
                    "name": "C4",
                    "midi": 60,
                    "time": 188.25894700000094,
                    "velocity": 0.23622047244094488,
                    "duration": 0.1546910000000139
                },
                {
                    "name": "F3",
                    "midi": 53,
                    "time": 188.41363800000096,
                    "velocity": 0.2677165354330709,
                    "duration": 0.15469099999998548
                },
                {
                    "name": "A3",
                    "midi": 57,
                    "time": 188.56832900000094,
                    "velocity": 0.2283464566929134,
                    "duration": 0.1546910000000139
                },
                {
                    "name": "C4",
                    "midi": 60,
                    "time": 188.72302000000096,
                    "velocity": 0.2283464566929134,
                    "duration": 0.1546910000000139
                },
                {
                    "name": "D#3",
                    "midi": 51,
                    "time": 188.87771100000097,
                    "velocity": 0.2677165354330709,
                    "duration": 0.15469099999998548
                },
                {
                    "name": "G3",
                    "midi": 55,
                    "time": 189.03240200000096,
                    "velocity": 0.23622047244094488,
                    "duration": 0.1546910000000139
                },
                {
                    "name": "C#4",
                    "midi": 61,
                    "time": 189.18709300000097,
                    "velocity": 0.23622047244094488,
                    "duration": 0.1546910000000139
                },
                {
                    "name": "D3",
                    "midi": 50,
                    "time": 189.34178400000098,
                    "velocity": 0.2677165354330709,
                    "duration": 0.1546910000000139
                },
                {
                    "name": "F#3",
                    "midi": 54,
                    "time": 189.496475000001,
                    "velocity": 0.2204724409448819,
                    "duration": 0.1546910000000139
                },
                {
                    "name": "D4",
                    "midi": 62,
                    "time": 189.651166000001,
                    "velocity": 0.2204724409448819,
                    "duration": 0.1546910000000139
                },
                {
                    "name": "D3",
                    "midi": 50,
                    "time": 189.80585700000103,
                    "velocity": 0.25984251968503935,
                    "duration": 0.1546910000000139
                },
                {
                    "name": "G3",
                    "midi": 55,
                    "time": 189.96054800000104,
                    "velocity": 0.2204724409448819,
                    "duration": 0.1546910000000139
                },
                {
                    "name": "A#3",
                    "midi": 58,
                    "time": 190.11523900000105,
                    "velocity": 0.2204724409448819,
                    "duration": 0.1546910000000139
                },
                {
                    "name": "D3",
                    "midi": 50,
                    "time": 190.26993000000107,
                    "velocity": 0.2440944881889764,
                    "duration": 0.15469099999998548
                },
                {
                    "name": "F#3",
                    "midi": 54,
                    "time": 190.42462100000105,
                    "velocity": 0.2047244094488189,
                    "duration": 0.1546910000000139
                },
                {
                    "name": "A3",
                    "midi": 57,
                    "time": 190.57931200000107,
                    "velocity": 0.2047244094488189,
                    "duration": 0.1546910000000139
                },
                {
                    "name": "D3",
                    "midi": 50,
                    "time": 190.73400300000108,
                    "velocity": 0.23622047244094488,
                    "duration": 0.1546910000000139
                },
                {
                    "name": "G3",
                    "midi": 55,
                    "time": 190.8886940000011,
                    "velocity": 0.2047244094488189,
                    "duration": 0.1546910000000139
                },
                {
                    "name": "A#3",
                    "midi": 58,
                    "time": 191.0433850000011,
                    "velocity": 0.2047244094488189,
                    "duration": 0.1546910000000139
                },
                {
                    "name": "D3",
                    "midi": 50,
                    "time": 191.19807600000112,
                    "velocity": 0.2283464566929134,
                    "duration": 0.1546910000000139
                },
                {
                    "name": "F#3",
                    "midi": 54,
                    "time": 191.35276700000114,
                    "velocity": 0.2125984251968504,
                    "duration": 0.1546910000000139
                },
                {
                    "name": "A3",
                    "midi": 57,
                    "time": 191.50745800000115,
                    "velocity": 0.2204724409448819,
                    "duration": 0.1546910000000139
                },
                {
                    "name": "D3",
                    "midi": 50,
                    "time": 191.66214900000116,
                    "velocity": 0.2677165354330709,
                    "duration": 0.1546910000000139
                },
                {
                    "name": "G3",
                    "midi": 55,
                    "time": 191.81684000000118,
                    "velocity": 0.23622047244094488,
                    "duration": 0.1546910000000139
                },
                {
                    "name": "A#3",
                    "midi": 58,
                    "time": 191.9715310000012,
                    "velocity": 0.23622047244094488,
                    "duration": 0.15469099999998548
                },
                {
                    "name": "D3",
                    "midi": 50,
                    "time": 192.12622200000118,
                    "velocity": 0.2677165354330709,
                    "duration": 0.1546910000000139
                },
                {
                    "name": "F#3",
                    "midi": 54,
                    "time": 192.2809130000012,
                    "velocity": 0.2440944881889764,
                    "duration": 0.1546910000000139
                },
                {
                    "name": "A3",
                    "midi": 57,
                    "time": 192.4356040000012,
                    "velocity": 0.2440944881889764,
                    "duration": 0.1546910000000139
                },
                {
                    "name": "C3",
                    "midi": 48,
                    "time": 192.59029500000122,
                    "velocity": 0.2677165354330709,
                    "duration": 0.15469099999998548
                },
                {
                    "name": "F#3",
                    "midi": 54,
                    "time": 192.7449860000012,
                    "velocity": 0.2440944881889764,
                    "duration": 0.1546910000000139
                },
                {
                    "name": "A3",
                    "midi": 57,
                    "time": 192.89967700000122,
                    "velocity": 0.2440944881889764,
                    "duration": 0.1546910000000139
                },
                {
                    "name": "A#2",
                    "midi": 46,
                    "time": 193.05436800000123,
                    "velocity": 0.2677165354330709,
                    "duration": 0.07734550000000695
                },
                {
                    "name": "F3",
                    "midi": 53,
                    "time": 193.05436800000123,
                    "velocity": 0.2677165354330709,
                    "duration": 0.07734550000000695
                },
                {
                    "name": "A#3",
                    "midi": 58,
                    "time": 193.05436800000123,
                    "velocity": 0.2677165354330709,
                    "duration": 0.07734550000000695
                },
                {
                    "name": "D4",
                    "midi": 62,
                    "time": 193.20905900000125,
                    "velocity": 0.23622047244094488,
                    "duration": 0.1546910000000139
                },
                {
                    "name": "F4",
                    "midi": 65,
                    "time": 193.36375000000126,
                    "velocity": 0.23622047244094488,
                    "duration": 0.1546910000000139
                },
                {
                    "name": "A#3",
                    "midi": 58,
                    "time": 193.51844100000127,
                    "velocity": 0.2677165354330709,
                    "duration": 0.15469099999998548
                },
                {
                    "name": "D4",
                    "midi": 62,
                    "time": 193.67313200000126,
                    "velocity": 0.23622047244094488,
                    "duration": 0.1546910000000139
                },
                {
                    "name": "F4",
                    "midi": 65,
                    "time": 193.82782300000127,
                    "velocity": 0.23622047244094488,
                    "duration": 0.1546910000000139
                },
                {
                    "name": "A#3",
                    "midi": 58,
                    "time": 193.9825140000013,
                    "velocity": 0.2677165354330709,
                    "duration": 0.1546910000000139
                },
                {
                    "name": "D4",
                    "midi": 62,
                    "time": 194.1372050000013,
                    "velocity": 0.2283464566929134,
                    "duration": 0.1546910000000139
                },
                {
                    "name": "F4",
                    "midi": 65,
                    "time": 194.29189600000132,
                    "velocity": 0.2283464566929134,
                    "duration": 0.1546910000000139
                },
                {
                    "name": "B3",
                    "midi": 59,
                    "time": 194.44658700000133,
                    "velocity": 0.2677165354330709,
                    "duration": 0.1546910000000139
                },
                {
                    "name": "D4",
                    "midi": 62,
                    "time": 194.60127800000134,
                    "velocity": 0.23622047244094488,
                    "duration": 0.1546910000000139
                },
                {
                    "name": "F4",
                    "midi": 65,
                    "time": 194.75596900000136,
                    "velocity": 0.23622047244094488,
                    "duration": 0.1546910000000139
                },
                {
                    "name": "A#3",
                    "midi": 58,
                    "time": 194.91066000000137,
                    "velocity": 0.2677165354330709,
                    "duration": 0.1546910000000139
                },
                {
                    "name": "D4",
                    "midi": 62,
                    "time": 195.06535100000139,
                    "velocity": 0.23622047244094488,
                    "duration": 0.1546910000000139
                },
                {
                    "name": "F4",
                    "midi": 65,
                    "time": 195.2200420000014,
                    "velocity": 0.23622047244094488,
                    "duration": 0.1546910000000139
                },
                {
                    "name": "B3",
                    "midi": 59,
                    "time": 195.3747330000014,
                    "velocity": 0.2677165354330709,
                    "duration": 0.1546910000000139
                },
                {
                    "name": "D4",
                    "midi": 62,
                    "time": 195.52942400000143,
                    "velocity": 0.23622047244094488,
                    "duration": 0.1546910000000139
                },
                {
                    "name": "F4",
                    "midi": 65,
                    "time": 195.68411500000144,
                    "velocity": 0.23622047244094488,
                    "duration": 0.1546910000000139
                },
                {
                    "name": "A#3",
                    "midi": 58,
                    "time": 195.83880600000145,
                    "velocity": 0.2677165354330709,
                    "duration": 0.1546910000000139
                },
                {
                    "name": "D4",
                    "midi": 62,
                    "time": 195.99349700000147,
                    "velocity": 0.2283464566929134,
                    "duration": 0.1546910000000139
                },
                {
                    "name": "F4",
                    "midi": 65,
                    "time": 196.14818800000148,
                    "velocity": 0.2283464566929134,
                    "duration": 0.1546910000000139
                },
                {
                    "name": "G#3",
                    "midi": 56,
                    "time": 196.3028790000015,
                    "velocity": 0.2677165354330709,
                    "duration": 0.15469099999998548
                },
                {
                    "name": "C4",
                    "midi": 60,
                    "time": 196.45757000000148,
                    "velocity": 0.23622047244094488,
                    "duration": 0.1546910000000139
                },
                {
                    "name": "F#4",
                    "midi": 66,
                    "time": 196.6122610000015,
                    "velocity": 0.23622047244094488,
                    "duration": 0.1546910000000139
                },
                {
                    "name": "G3",
                    "midi": 55,
                    "time": 196.7669520000015,
                    "velocity": 0.2677165354330709,
                    "duration": 0.1546910000000139
                },
                {
                    "name": "B3",
                    "midi": 59,
                    "time": 196.92164300000152,
                    "velocity": 0.2204724409448819,
                    "duration": 0.1546910000000139
                },
                {
                    "name": "G4",
                    "midi": 67,
                    "time": 197.07633400000154,
                    "velocity": 0.2204724409448819,
                    "duration": 0.1546910000000139
                },
                {
                    "name": "G3",
                    "midi": 55,
                    "time": 197.23102500000155,
                    "velocity": 0.25984251968503935,
                    "duration": 0.1546910000000139
                },
                {
                    "name": "C4",
                    "midi": 60,
                    "time": 197.38571600000157,
                    "velocity": 0.2204724409448819,
                    "duration": 0.1546910000000139
                },
                {
                    "name": "D#4",
                    "midi": 63,
                    "time": 197.54040700000158,
                    "velocity": 0.2204724409448819,
                    "duration": 0.1546910000000139
                },
                {
                    "name": "G3",
                    "midi": 55,
                    "time": 197.6950980000016,
                    "velocity": 0.2440944881889764,
                    "duration": 0.1546910000000139
                },
                {
                    "name": "B3",
                    "midi": 59,
                    "time": 197.8497890000016,
                    "velocity": 0.2047244094488189,
                    "duration": 0.1546910000000139
                },
                {
                    "name": "D4",
                    "midi": 62,
                    "time": 198.00448000000162,
                    "velocity": 0.2047244094488189,
                    "duration": 0.1546910000000139
                },
                {
                    "name": "G3",
                    "midi": 55,
                    "time": 198.15917100000163,
                    "velocity": 0.23622047244094488,
                    "duration": 0.15469099999998548
                },
                {
                    "name": "C4",
                    "midi": 60,
                    "time": 198.31386200000162,
                    "velocity": 0.2047244094488189,
                    "duration": 0.1546910000000139
                },
                {
                    "name": "D#4",
                    "midi": 63,
                    "time": 198.46855300000163,
                    "velocity": 0.2047244094488189,
                    "duration": 0.1546910000000139
                },
                {
                    "name": "G3",
                    "midi": 55,
                    "time": 198.62324400000165,
                    "velocity": 0.2283464566929134,
                    "duration": 0.15469099999998548
                },
                {
                    "name": "B3",
                    "midi": 59,
                    "time": 198.77793500000163,
                    "velocity": 0.2125984251968504,
                    "duration": 0.1546910000000139
                },
                {
                    "name": "D4",
                    "midi": 62,
                    "time": 198.93262600000165,
                    "velocity": 0.2204724409448819,
                    "duration": 0.1546910000000139
                },
                {
                    "name": "G3",
                    "midi": 55,
                    "time": 199.08731700000166,
                    "velocity": 0.2677165354330709,
                    "duration": 0.15469099999998548
                },
                {
                    "name": "C4",
                    "midi": 60,
                    "time": 199.24200800000165,
                    "velocity": 0.23622047244094488,
                    "duration": 0.1546910000000139
                },
                {
                    "name": "D#4",
                    "midi": 63,
                    "time": 199.39669900000166,
                    "velocity": 0.23622047244094488,
                    "duration": 0.15469099999998548
                },
                {
                    "name": "G3",
                    "midi": 55,
                    "time": 199.55139000000165,
                    "velocity": 0.2677165354330709,
                    "duration": 0.1546910000000139
                },
                {
                    "name": "B3",
                    "midi": 59,
                    "time": 199.70608100000166,
                    "velocity": 0.2440944881889764,
                    "duration": 0.1546910000000139
                },
                {
                    "name": "D4",
                    "midi": 62,
                    "time": 199.86077200000167,
                    "velocity": 0.2440944881889764,
                    "duration": 0.1546910000000139
                },
                {
                    "name": "G3",
                    "midi": 55,
                    "time": 200.0154630000017,
                    "velocity": 0.2677165354330709,
                    "duration": 0.15469099999998548
                },
                {
                    "name": "C4",
                    "midi": 60,
                    "time": 200.17015400000167,
                    "velocity": 0.2440944881889764,
                    "duration": 0.1546910000000139
                },
                {
                    "name": "D#4",
                    "midi": 63,
                    "time": 200.3248450000017,
                    "velocity": 0.2440944881889764,
                    "duration": 0.1546910000000139
                },
                {
                    "name": "G3",
                    "midi": 55,
                    "time": 200.4795360000017,
                    "velocity": 0.2677165354330709,
                    "duration": 0.1546910000000139
                },
                {
                    "name": "B3",
                    "midi": 59,
                    "time": 200.63422700000172,
                    "velocity": 0.23622047244094488,
                    "duration": 0.1546910000000139
                },
                {
                    "name": "D4",
                    "midi": 62,
                    "time": 200.78891800000173,
                    "velocity": 0.23622047244094488,
                    "duration": 0.1546910000000139
                },
                {
                    "name": "G3",
                    "midi": 55,
                    "time": 200.94360900000174,
                    "velocity": 0.2677165354330709,
                    "duration": 0.15469099999998548
                },
                {
                    "name": "C4",
                    "midi": 60,
                    "time": 201.09830000000173,
                    "velocity": 0.23622047244094488,
                    "duration": 0.1546910000000139
                },
                {
                    "name": "D#4",
                    "midi": 63,
                    "time": 201.25299100000174,
                    "velocity": 0.23622047244094488,
                    "duration": 0.15469099999998548
                },
                {
                    "name": "G3",
                    "midi": 55,
                    "time": 201.40768200000173,
                    "velocity": 0.2677165354330709,
                    "duration": 0.1546910000000139
                },
                {
                    "name": "B3",
                    "midi": 59,
                    "time": 201.56237300000174,
                    "velocity": 0.2440944881889764,
                    "duration": 0.1546910000000139
                },
                {
                    "name": "D4",
                    "midi": 62,
                    "time": 201.71706400000176,
                    "velocity": 0.2440944881889764,
                    "duration": 0.1546910000000139
                },
                {
                    "name": "G3",
                    "midi": 55,
                    "time": 201.87175500000177,
                    "velocity": 0.2677165354330709,
                    "duration": 0.15469099999998548
                },
                {
                    "name": "C4",
                    "midi": 60,
                    "time": 202.02644600000176,
                    "velocity": 0.2440944881889764,
                    "duration": 0.1546910000000139
                },
                {
                    "name": "D#4",
                    "midi": 63,
                    "time": 202.18113700000177,
                    "velocity": 0.2440944881889764,
                    "duration": 0.1546910000000139
                },
                {
                    "name": "G3",
                    "midi": 55,
                    "time": 202.33582800000178,
                    "velocity": 0.2677165354330709,
                    "duration": 0.1546910000000139
                },
                {
                    "name": "B3",
                    "midi": 59,
                    "time": 202.4905190000018,
                    "velocity": 0.23622047244094488,
                    "duration": 0.1546910000000139
                },
                {
                    "name": "D4",
                    "midi": 62,
                    "time": 202.6452100000018,
                    "velocity": 0.23622047244094488,
                    "duration": 0.1546910000000139
                },
                {
                    "name": "G3",
                    "midi": 55,
                    "time": 202.79990100000182,
                    "velocity": 0.2677165354330709,
                    "duration": 0.15469099999998548
                },
                {
                    "name": "C4",
                    "midi": 60,
                    "time": 202.9545920000018,
                    "velocity": 0.23622047244094488,
                    "duration": 0.1546910000000139
                },
                {
                    "name": "D#4",
                    "midi": 63,
                    "time": 203.10928300000182,
                    "velocity": 0.23622047244094488,
                    "duration": 0.15469099999998548
                },
                {
                    "name": "G3",
                    "midi": 55,
                    "time": 203.2639740000018,
                    "velocity": 0.2677165354330709,
                    "duration": 0.1546910000000139
                },
                {
                    "name": "B3",
                    "midi": 59,
                    "time": 203.41866500000182,
                    "velocity": 0.2440944881889764,
                    "duration": 0.1546910000000139
                },
                {
                    "name": "D4",
                    "midi": 62,
                    "time": 203.57335600000184,
                    "velocity": 0.2440944881889764,
                    "duration": 0.1546910000000139
                },
                {
                    "name": "G3",
                    "midi": 55,
                    "time": 203.72804700000185,
                    "velocity": 0.2677165354330709,
                    "duration": 0.15469099999998548
                },
                {
                    "name": "C4",
                    "midi": 60,
                    "time": 203.88273800000184,
                    "velocity": 0.2440944881889764,
                    "duration": 0.1546910000000139
                },
                {
                    "name": "D#4",
                    "midi": 63,
                    "time": 204.03742900000185,
                    "velocity": 0.2440944881889764,
                    "duration": 0.1546910000000139
                },
                {
                    "name": "G3",
                    "midi": 55,
                    "time": 204.19212000000186,
                    "velocity": 0.2677165354330709,
                    "duration": 0.1546910000000139
                },
                {
                    "name": "B3",
                    "midi": 59,
                    "time": 204.34681100000188,
                    "velocity": 0.23622047244094488,
                    "duration": 0.1546910000000139
                },
                {
                    "name": "D4",
                    "midi": 62,
                    "time": 204.5015020000019,
                    "velocity": 0.23622047244094488,
                    "duration": 0.1546910000000139
                },
                {
                    "name": "G3",
                    "midi": 55,
                    "time": 204.6561930000019,
                    "velocity": 0.2677165354330709,
                    "duration": 0.15469099999998548
                },
                {
                    "name": "C4",
                    "midi": 60,
                    "time": 204.8108840000019,
                    "velocity": 0.23622047244094488,
                    "duration": 0.1546910000000139
                },
                {
                    "name": "D#4",
                    "midi": 63,
                    "time": 204.9655750000019,
                    "velocity": 0.23622047244094488,
                    "duration": 0.15469099999998548
                },
                {
                    "name": "G3",
                    "midi": 55,
                    "time": 205.1202660000019,
                    "velocity": 0.2677165354330709,
                    "duration": 0.1546910000000139
                },
                {
                    "name": "B3",
                    "midi": 59,
                    "time": 205.2749570000019,
                    "velocity": 0.2440944881889764,
                    "duration": 0.1546910000000139
                },
                {
                    "name": "D4",
                    "midi": 62,
                    "time": 205.42964800000192,
                    "velocity": 0.2440944881889764,
                    "duration": 0.1546910000000139
                },
                {
                    "name": "G3",
                    "midi": 55,
                    "time": 205.58433900000193,
                    "velocity": 0.2677165354330709,
                    "duration": 0.15469099999998548
                },
                {
                    "name": "C4",
                    "midi": 60,
                    "time": 205.73903000000192,
                    "velocity": 0.2440944881889764,
                    "duration": 0.1546910000000139
                },
                {
                    "name": "D#4",
                    "midi": 63,
                    "time": 205.89372100000193,
                    "velocity": 0.2440944881889764,
                    "duration": 0.1546910000000139
                },
                {
                    "name": "G3",
                    "midi": 55,
                    "time": 206.04841200000195,
                    "velocity": 0.2677165354330709,
                    "duration": 0.1546910000000139
                },
                {
                    "name": "B3",
                    "midi": 59,
                    "time": 206.20310300000196,
                    "velocity": 0.2440944881889764,
                    "duration": 0.1546910000000139
                },
                {
                    "name": "D4",
                    "midi": 62,
                    "time": 206.35779400000197,
                    "velocity": 0.2440944881889764,
                    "duration": 0.1546910000000139
                },
                {
                    "name": "G3",
                    "midi": 55,
                    "time": 206.512485000002,
                    "velocity": 0.2677165354330709,
                    "duration": 0.15469099999998548
                },
                {
                    "name": "C4",
                    "midi": 60,
                    "time": 206.66717600000197,
                    "velocity": 0.2440944881889764,
                    "duration": 0.1546910000000139
                },
                {
                    "name": "D#4",
                    "midi": 63,
                    "time": 206.821867000002,
                    "velocity": 0.2440944881889764,
                    "duration": 0.1546910000000139
                },
                {
                    "name": "D4",
                    "midi": 62,
                    "time": 206.976558000002,
                    "velocity": 0.2677165354330709,
                    "duration": 0.23203649999999243
                },
                {
                    "name": "B3",
                    "midi": 59,
                    "time": 206.976558000002,
                    "velocity": 0.2677165354330709,
                    "duration": 0.23203649999999243
                },
                {
                    "name": "G3",
                    "midi": 55,
                    "time": 206.976558000002,
                    "velocity": 0.2677165354330709,
                    "duration": 0.23203649999999243
                },
                {
                    "name": "G4",
                    "midi": 67,
                    "time": 207.44063100000199,
                    "velocity": 0.7401574803149606,
                    "duration": 1.3922190000000114
                },
                {
                    "name": "G3",
                    "midi": 55,
                    "time": 207.44063100000199,
                    "velocity": 0.6141732283464567,
                    "duration": 1.3922190000000114
                },
                {
                    "name": "G3",
                    "midi": 55,
                    "time": 208.832850000002,
                    "velocity": 0.33070866141732286,
                    "duration": 0.23203649999999243
                },
                {
                    "name": "G4",
                    "midi": 67,
                    "time": 209.064886500002,
                    "velocity": 0.2440944881889764,
                    "duration": 0.11601824999999621
                },
                {
                    "name": "F4",
                    "midi": 65,
                    "time": 209.29692300000198,
                    "velocity": 0.2440944881889764,
                    "duration": 0.11601824999999621
                },
                {
                    "name": "D4",
                    "midi": 62,
                    "time": 209.29692300000198,
                    "velocity": 0.2047244094488189,
                    "duration": 0.11601824999999621
                },
                {
                    "name": "G4",
                    "midi": 67,
                    "time": 209.52895950000197,
                    "velocity": 0.25196850393700787,
                    "duration": 0.11601824999999621
                },
                {
                    "name": "G3",
                    "midi": 55,
                    "time": 209.76099600000197,
                    "velocity": 0.3464566929133858,
                    "duration": 0.23203649999999243
                },
                {
                    "name": "G4",
                    "midi": 67,
                    "time": 209.99303250000196,
                    "velocity": 0.2204724409448819,
                    "duration": 0.11601824999999621
                },
                {
                    "name": "C4",
                    "midi": 60,
                    "time": 210.22506900000195,
                    "velocity": 0.2283464566929134,
                    "duration": 0.11601824999999621
                },
                {
                    "name": "D#4",
                    "midi": 63,
                    "time": 210.22506900000195,
                    "velocity": 0.2755905511811024,
                    "duration": 0.11601824999999621
                },
                {
                    "name": "G4",
                    "midi": 67,
                    "time": 210.45710550000194,
                    "velocity": 0.25196850393700787,
                    "duration": 0.11601824999999621
                },
                {
                    "name": "G3",
                    "midi": 55,
                    "time": 210.68914200000194,
                    "velocity": 0.33070866141732286,
                    "duration": 0.23203649999999243
                },
                {
                    "name": "G4",
                    "midi": 67,
                    "time": 210.92117850000193,
                    "velocity": 0.2440944881889764,
                    "duration": 0.11601824999999621
                },
                {
                    "name": "F4",
                    "midi": 65,
                    "time": 211.15321500000192,
                    "velocity": 0.2440944881889764,
                    "duration": 0.11601824999999621
                },
                {
                    "name": "D4",
                    "midi": 62,
                    "time": 211.15321500000192,
                    "velocity": 0.2047244094488189,
                    "duration": 0.11601824999999621
                },
                {
                    "name": "G4",
                    "midi": 67,
                    "time": 211.3852515000019,
                    "velocity": 0.2283464566929134,
                    "duration": 0.11601824999999621
                },
                {
                    "name": "G3",
                    "midi": 55,
                    "time": 211.6172880000019,
                    "velocity": 0.3464566929133858,
                    "duration": 0.23203649999999243
                },
                {
                    "name": "G4",
                    "midi": 67,
                    "time": 211.8493245000019,
                    "velocity": 0.25196850393700787,
                    "duration": 0.11601824999999621
                },
                {
                    "name": "F#3",
                    "midi": 54,
                    "time": 212.0813610000019,
                    "velocity": 0.2283464566929134,
                    "duration": 0.11601824999999621
                },
                {
                    "name": "C4",
                    "midi": 60,
                    "time": 212.0813610000019,
                    "velocity": 0.2283464566929134,
                    "duration": 0.11601824999999621
                },
                {
                    "name": "D#4",
                    "midi": 63,
                    "time": 212.0813610000019,
                    "velocity": 0.2755905511811024,
                    "duration": 0.11601824999999621
                },
                {
                    "name": "F#4",
                    "midi": 66,
                    "time": 212.31339750000188,
                    "velocity": 0.2755905511811024,
                    "duration": 0.11601824999999621
                },
                {
                    "name": "F3",
                    "midi": 53,
                    "time": 212.54543400000188,
                    "velocity": 0.33070866141732286,
                    "duration": 0.23203649999999243
                },
                {
                    "name": "F4",
                    "midi": 65,
                    "time": 212.77747050000187,
                    "velocity": 0.2755905511811024,
                    "duration": 0.11601824999999621
                },
                {
                    "name": "D4",
                    "midi": 62,
                    "time": 213.00950700000186,
                    "velocity": 0.2755905511811024,
                    "duration": 0.11601824999999621
                },
                {
                    "name": "F4",
                    "midi": 65,
                    "time": 213.24154350000185,
                    "velocity": 0.28346456692913385,
                    "duration": 0.11601824999999621
                },
                {
                    "name": "G3",
                    "midi": 55,
                    "time": 213.47358000000185,
                    "velocity": 0.33070866141732286,
                    "duration": 0.23203649999999243
                },
                {
                    "name": "E4",
                    "midi": 64,
                    "time": 213.70561650000184,
                    "velocity": 0.28346456692913385,
                    "duration": 0.11601824999999621
                },
                {
                    "name": "C4",
                    "midi": 60,
                    "time": 213.93765300000183,
                    "velocity": 0.28346456692913385,
                    "duration": 0.11601824999999621
                },
                {
                    "name": "E4",
                    "midi": 64,
                    "time": 214.16968950000182,
                    "velocity": 0.28346456692913385,
                    "duration": 0.11601824999999621
                },
                {
                    "name": "D4",
                    "midi": 62,
                    "time": 214.40172600000182,
                    "velocity": 0.33070866141732286,
                    "duration": 0.23203649999999243
                },
                {
                    "name": "F3",
                    "midi": 53,
                    "time": 214.40172600000182,
                    "velocity": 0.2755905511811024,
                    "duration": 0.23203649999999243
                },
                {
                    "name": "F4",
                    "midi": 65,
                    "time": 214.6337625000018,
                    "velocity": 0.25984251968503935,
                    "duration": 0.23203649999999243
                },
                {
                    "name": "D#4",
                    "midi": 63,
                    "time": 214.8657990000018,
                    "velocity": 0.2755905511811024,
                    "duration": 0.11601824999999621
                },
                {
                    "name": "F3",
                    "midi": 53,
                    "time": 214.8657990000018,
                    "velocity": 0.2283464566929134,
                    "duration": 0.11601824999999621
                },
                {
                    "name": "F4",
                    "midi": 65,
                    "time": 215.0978355000018,
                    "velocity": 0.2677165354330709,
                    "duration": 0.11601824999999621
                },
                {
                    "name": "D4",
                    "midi": 62,
                    "time": 215.32987200000179,
                    "velocity": 0.33070866141732286,
                    "duration": 0.23203649999999243
                },
                {
                    "name": "A#3",
                    "midi": 58,
                    "time": 215.32987200000179,
                    "velocity": 0.33070866141732286,
                    "duration": 0.23203649999999243
                },
                {
                    "name": "G4",
                    "midi": 67,
                    "time": 215.79394500000177,
                    "velocity": 0.7401574803149606,
                    "duration": 1.3922190000000114
                },
                {
                    "name": "G3",
                    "midi": 55,
                    "time": 215.79394500000177,
                    "velocity": 0.6141732283464567,
                    "duration": 1.3922190000000114
                },
                {
                    "name": "G3",
                    "midi": 55,
                    "time": 217.18616400000178,
                    "velocity": 0.33070866141732286,
                    "duration": 0.23203649999999243
                },
                {
                    "name": "G4",
                    "midi": 67,
                    "time": 217.41820050000177,
                    "velocity": 0.2440944881889764,
                    "duration": 0.11601824999999621
                },
                {
                    "name": "F4",
                    "midi": 65,
                    "time": 217.65023700000177,
                    "velocity": 0.2440944881889764,
                    "duration": 0.11601824999999621
                },
                {
                    "name": "D4",
                    "midi": 62,
                    "time": 217.65023700000177,
                    "velocity": 0.2047244094488189,
                    "duration": 0.11601824999999621
                },
                {
                    "name": "G4",
                    "midi": 67,
                    "time": 217.88227350000176,
                    "velocity": 0.25196850393700787,
                    "duration": 0.11601824999999621
                },
                {
                    "name": "G3",
                    "midi": 55,
                    "time": 218.11431000000175,
                    "velocity": 0.3464566929133858,
                    "duration": 0.23203649999999243
                },
                {
                    "name": "G4",
                    "midi": 67,
                    "time": 218.34634650000174,
                    "velocity": 0.2440944881889764,
                    "duration": 0.11601824999999621
                },
                {
                    "name": "C4",
                    "midi": 60,
                    "time": 218.57838300000174,
                    "velocity": 0.2283464566929134,
                    "duration": 0.11601824999999621
                },
                {
                    "name": "D#4",
                    "midi": 63,
                    "time": 218.57838300000174,
                    "velocity": 0.2755905511811024,
                    "duration": 0.11601824999999621
                },
                {
                    "name": "G4",
                    "midi": 67,
                    "time": 218.81041950000173,
                    "velocity": 0.25196850393700787,
                    "duration": 0.11601824999999621
                },
                {
                    "name": "G3",
                    "midi": 55,
                    "time": 219.04245600000172,
                    "velocity": 0.33070866141732286,
                    "duration": 0.23203649999999243
                },
                {
                    "name": "G4",
                    "midi": 67,
                    "time": 219.2744925000017,
                    "velocity": 0.2440944881889764,
                    "duration": 0.11601824999999621
                },
                {
                    "name": "F4",
                    "midi": 65,
                    "time": 219.5065290000017,
                    "velocity": 0.2440944881889764,
                    "duration": 0.11601824999999621
                },
                {
                    "name": "D4",
                    "midi": 62,
                    "time": 219.5065290000017,
                    "velocity": 0.2047244094488189,
                    "duration": 0.11601824999999621
                },
                {
                    "name": "G4",
                    "midi": 67,
                    "time": 219.7385655000017,
                    "velocity": 0.2283464566929134,
                    "duration": 0.11601824999999621
                },
                {
                    "name": "G3",
                    "midi": 55,
                    "time": 219.9706020000017,
                    "velocity": 0.3464566929133858,
                    "duration": 0.23203649999999243
                },
                {
                    "name": "G4",
                    "midi": 67,
                    "time": 220.20263850000168,
                    "velocity": 0.25196850393700787,
                    "duration": 0.11601824999999621
                },
                {
                    "name": "F#3",
                    "midi": 54,
                    "time": 220.43467500000168,
                    "velocity": 0.2283464566929134,
                    "duration": 0.11601824999999621
                },
                {
                    "name": "C4",
                    "midi": 60,
                    "time": 220.43467500000168,
                    "velocity": 0.2283464566929134,
                    "duration": 0.11601824999999621
                },
                {
                    "name": "D#4",
                    "midi": 63,
                    "time": 220.43467500000168,
                    "velocity": 0.2755905511811024,
                    "duration": 0.11601824999999621
                },
                {
                    "name": "F#4",
                    "midi": 66,
                    "time": 220.66671150000167,
                    "velocity": 0.2755905511811024,
                    "duration": 0.11601824999999621
                },
                {
                    "name": "F3",
                    "midi": 53,
                    "time": 220.89874800000166,
                    "velocity": 0.33070866141732286,
                    "duration": 0.23203649999999243
                },
                {
                    "name": "F4",
                    "midi": 65,
                    "time": 221.13078450000165,
                    "velocity": 0.2755905511811024,
                    "duration": 0.11601824999999621
                },
                {
                    "name": "D4",
                    "midi": 62,
                    "time": 221.36282100000165,
                    "velocity": 0.2755905511811024,
                    "duration": 0.11601824999999621
                },
                {
                    "name": "F4",
                    "midi": 65,
                    "time": 221.59485750000164,
                    "velocity": 0.28346456692913385,
                    "duration": 0.11601824999999621
                },
                {
                    "name": "G3",
                    "midi": 55,
                    "time": 221.82689400000163,
                    "velocity": 0.33070866141732286,
                    "duration": 0.23203649999999243
                },
                {
                    "name": "E4",
                    "midi": 64,
                    "time": 222.05893050000162,
                    "velocity": 0.28346456692913385,
                    "duration": 0.11601824999999621
                },
                {
                    "name": "C4",
                    "midi": 60,
                    "time": 222.29096700000161,
                    "velocity": 0.28346456692913385,
                    "duration": 0.11601824999999621
                },
                {
                    "name": "E4",
                    "midi": 64,
                    "time": 222.5230035000016,
                    "velocity": 0.28346456692913385,
                    "duration": 0.11601824999999621
                },
                {
                    "name": "D4",
                    "midi": 62,
                    "time": 222.7550400000016,
                    "velocity": 0.33070866141732286,
                    "duration": 0.23203649999999243
                },
                {
                    "name": "F3",
                    "midi": 53,
                    "time": 222.7550400000016,
                    "velocity": 0.2755905511811024,
                    "duration": 0.23203649999999243
                },
                {
                    "name": "F4",
                    "midi": 65,
                    "time": 222.9870765000016,
                    "velocity": 0.25984251968503935,
                    "duration": 0.23203649999999243
                },
                {
                    "name": "D#4",
                    "midi": 63,
                    "time": 223.21911300000158,
                    "velocity": 0.2755905511811024,
                    "duration": 0.11601824999999621
                },
                {
                    "name": "F3",
                    "midi": 53,
                    "time": 223.21911300000158,
                    "velocity": 0.2283464566929134,
                    "duration": 0.11601824999999621
                },
                {
                    "name": "F4",
                    "midi": 65,
                    "time": 223.45114950000158,
                    "velocity": 0.2677165354330709,
                    "duration": 0.11601824999999621
                },
                {
                    "name": "D4",
                    "midi": 62,
                    "time": 223.68318600000157,
                    "velocity": 0.33070866141732286,
                    "duration": 0.11601824999999621
                },
                {
                    "name": "A#3",
                    "midi": 58,
                    "time": 223.68318600000157,
                    "velocity": 0.33070866141732286,
                    "duration": 0.11601824999999621
                },
                {
                    "name": "A3",
                    "midi": 57,
                    "time": 223.91522250000156,
                    "velocity": 0.2992125984251969,
                    "duration": 0.11601824999999621
                },
                {
                    "name": "G3",
                    "midi": 55,
                    "time": 224.14725900000155,
                    "velocity": 0.29133858267716534,
                    "duration": 0.11601824999999621
                },
                {
                    "name": "F3",
                    "midi": 53,
                    "time": 224.37929550000155,
                    "velocity": 0.28346456692913385,
                    "duration": 0.11601824999999621
                },
                {
                    "name": "D#3",
                    "midi": 51,
                    "time": 224.61133200000154,
                    "velocity": 0.33070866141732286,
                    "duration": 0.11601824999999621
                },
                {
                    "name": "A#3",
                    "midi": 58,
                    "time": 224.84336850000153,
                    "velocity": 0.28346456692913385,
                    "duration": 0.11601824999999621
                },
                {
                    "name": "G3",
                    "midi": 55,
                    "time": 224.84336850000153,
                    "velocity": 0.28346456692913385,
                    "duration": 0.11601824999999621
                },
                {
                    "name": "C3",
                    "midi": 48,
                    "time": 225.07540500000152,
                    "velocity": 0.28346456692913385,
                    "duration": 0.11601824999999621
                },
                {
                    "name": "C4",
                    "midi": 60,
                    "time": 225.30744150000152,
                    "velocity": 0.28346456692913385,
                    "duration": 0.11601824999999621
                },
                {
                    "name": "G3",
                    "midi": 55,
                    "time": 225.30744150000152,
                    "velocity": 0.28346456692913385,
                    "duration": 0.11601824999999621
                },
                {
                    "name": "F3",
                    "midi": 53,
                    "time": 225.5394780000015,
                    "velocity": 0.33070866141732286,
                    "duration": 0.11601824999999621
                },
                {
                    "name": "A3",
                    "midi": 57,
                    "time": 225.7715145000015,
                    "velocity": 0.2755905511811024,
                    "duration": 0.11601824999999621
                },
                {
                    "name": "C4",
                    "midi": 60,
                    "time": 225.7715145000015,
                    "velocity": 0.2755905511811024,
                    "duration": 0.11601824999999621
                },
                {
                    "name": "D#3",
                    "midi": 51,
                    "time": 226.0035510000015,
                    "velocity": 0.28346456692913385,
                    "duration": 0.11601824999999621
                },
                {
                    "name": "C4",
                    "midi": 60,
                    "time": 226.2355875000015,
                    "velocity": 0.28346456692913385,
                    "duration": 0.11601824999999621
                },
                {
                    "name": "A3",
                    "midi": 57,
                    "time": 226.2355875000015,
                    "velocity": 0.28346456692913385,
                    "duration": 0.11601824999999621
                },
                {
                    "name": "D3",
                    "midi": 50,
                    "time": 226.46762400000148,
                    "velocity": 0.30708661417322836,
                    "duration": 0.23203649999999243
                },
                {
                    "name": "A#3",
                    "midi": 58,
                    "time": 226.69966050000147,
                    "velocity": 0.2677165354330709,
                    "duration": 0.23203649999999243
                },
                {
                    "name": "F3",
                    "midi": 53,
                    "time": 226.69966050000147,
                    "velocity": 0.2283464566929134,
                    "duration": 0.23203649999999243
                },
                {
                    "name": "A#2",
                    "midi": 46,
                    "time": 226.93169700000146,
                    "velocity": 0.2677165354330709,
                    "duration": 0.23203649999999243
                },
                {
                    "name": "A#3",
                    "midi": 58,
                    "time": 227.16373350000146,
                    "velocity": 0.2677165354330709,
                    "duration": 0.23203649999999243
                },
                {
                    "name": "F3",
                    "midi": 53,
                    "time": 227.16373350000146,
                    "velocity": 0.2283464566929134,
                    "duration": 0.23203649999999243
                },
                {
                    "name": "D#3",
                    "midi": 51,
                    "time": 227.39577000000145,
                    "velocity": 0.31496062992125984,
                    "duration": 0.23203649999999243
                },
                {
                    "name": "A#3",
                    "midi": 58,
                    "time": 227.62780650000144,
                    "velocity": 0.2677165354330709,
                    "duration": 0.23203649999999243
                },
                {
                    "name": "G3",
                    "midi": 55,
                    "time": 227.62780650000144,
                    "velocity": 0.2283464566929134,
                    "duration": 0.23203649999999243
                },
                {
                    "name": "D3",
                    "midi": 50,
                    "time": 227.85984300000143,
                    "velocity": 0.2677165354330709,
                    "duration": 0.23203649999999243
                },
                {
                    "name": "A#3",
                    "midi": 58,
                    "time": 228.09187950000143,
                    "velocity": 0.2677165354330709,
                    "duration": 0.23203649999999243
                },
                {
                    "name": "G3",
                    "midi": 55,
                    "time": 228.09187950000143,
                    "velocity": 0.2283464566929134,
                    "duration": 0.23203649999999243
                },
                {
                    "name": "C3",
                    "midi": 48,
                    "time": 228.32391600000142,
                    "velocity": 0.33070866141732286,
                    "duration": 0.23203649999999243
                },
                {
                    "name": "C4",
                    "midi": 60,
                    "time": 228.5559525000014,
                    "velocity": 0.28346456692913385,
                    "duration": 0.23203649999999243
                },
                {
                    "name": "G3",
                    "midi": 55,
                    "time": 228.5559525000014,
                    "velocity": 0.23622047244094488,
                    "duration": 0.23203649999999243
                },
                {
                    "name": "A2",
                    "midi": 45,
                    "time": 228.7879890000014,
                    "velocity": 0.28346456692913385,
                    "duration": 0.23203649999999243
                },
                {
                    "name": "A3",
                    "midi": 57,
                    "time": 229.0200255000014,
                    "velocity": 0.28346456692913385,
                    "duration": 0.23203649999999243
                },
                {
                    "name": "D#3",
                    "midi": 51,
                    "time": 229.0200255000014,
                    "velocity": 0.23622047244094488,
                    "duration": 0.23203649999999243
                },
                {
                    "name": "D3",
                    "midi": 50,
                    "time": 229.2520620000014,
                    "velocity": 0.33070866141732286,
                    "duration": 0.23203649999999243
                },
                {
                    "name": "F#3",
                    "midi": 54,
                    "time": 229.48409850000138,
                    "velocity": 0.2283464566929134,
                    "duration": 0.23203649999999243
                },
                {
                    "name": "A3",
                    "midi": 57,
                    "time": 229.48409850000138,
                    "velocity": 0.2755905511811024,
                    "duration": 0.23203649999999243
                },
                {
                    "name": "F#2",
                    "midi": 42,
                    "time": 229.71613500000137,
                    "velocity": 0.33070866141732286,
                    "duration": 0.17402737500000853
                },
                {
                    "name": "D3",
                    "midi": 50,
                    "time": 229.9481715000014,
                    "velocity": 0.23622047244094488,
                    "duration": 0.17402737500000853
                },
                {
                    "name": "F#3",
                    "midi": 54,
                    "time": 229.9481715000014,
                    "velocity": 0.28346456692913385,
                    "duration": 0.17402737500000853
                },
                {
                    "name": "G2",
                    "midi": 43,
                    "time": 230.18020800000141,
                    "velocity": 0.3700787401574803,
                    "duration": 0.11601824999999621
                },
                {
                    "name": "G3",
                    "midi": 55,
                    "time": 230.4122445000014,
                    "velocity": 0.30708661417322836,
                    "duration": 0.11601824999999621
                },
                {
                    "name": "D#2",
                    "midi": 39,
                    "time": 230.6442810000014,
                    "velocity": 0.3858267716535433,
                    "duration": 0.11601824999999621
                },
                {
                    "name": "D#3",
                    "midi": 51,
                    "time": 230.8763175000014,
                    "velocity": 0.3464566929133858,
                    "duration": 0.11601824999999621
                },
                {
                    "name": "C2",
                    "midi": 36,
                    "time": 231.10835400000138,
                    "velocity": 0.4015748031496063,
                    "duration": 0.11601824999999621
                },
                {
                    "name": "C3",
                    "midi": 48,
                    "time": 231.34039050000138,
                    "velocity": 0.36220472440944884,
                    "duration": 0.11601824999999621
                },
                {
                    "name": "D2",
                    "midi": 38,
                    "time": 231.57242700000137,
                    "velocity": 0.4251968503937008,
                    "duration": 0.11601824999999621
                },
                {
                    "name": "D3",
                    "midi": 50,
                    "time": 231.80446350000136,
                    "velocity": 0.3543307086614173,
                    "duration": 0.11601824999999621
                },
                {
                    "name": "D#2",
                    "midi": 39,
                    "time": 232.03650000000135,
                    "velocity": 0.3464566929133858,
                    "duration": 0.23203649999999243
                },
                {
                    "name": "D#3",
                    "midi": 51,
                    "time": 232.03650000000135,
                    "velocity": 0.4094488188976378,
                    "duration": 0.23203649999999243
                },
                {
                    "name": "F#2",
                    "midi": 42,
                    "time": 232.50057300000134,
                    "velocity": 0.4015748031496063,
                    "duration": 1.392218999999983
                },
                {
                    "name": "D3",
                    "midi": 50,
                    "time": 232.50057300000134,
                    "velocity": 0.4015748031496063,
                    "duration": 1.392218999999983
                },
                {
                    "name": "F#3",
                    "midi": 54,
                    "time": 232.50057300000134,
                    "velocity": 0.47244094488188976,
                    "duration": 1.392218999999983
                },
                {
                    "name": "G2",
                    "midi": 43,
                    "time": 233.89279200000132,
                    "velocity": 0.3937007874015748,
                    "duration": 0.23203650000002085
                },
                {
                    "name": "G3",
                    "midi": 55,
                    "time": 234.12482850000134,
                    "velocity": 0.3543307086614173,
                    "duration": 0.23203649999999243
                },
                {
                    "name": "D#2",
                    "midi": 39,
                    "time": 234.35686500000133,
                    "velocity": 0.3543307086614173,
                    "duration": 0.23203649999999243
                },
                {
                    "name": "D#3",
                    "midi": 51,
                    "time": 234.58890150000133,
                    "velocity": 0.3543307086614173,
                    "duration": 0.23203649999999243
                },
                {
                    "name": "C2",
                    "midi": 36,
                    "time": 234.82093800000132,
                    "velocity": 0.4409448818897638,
                    "duration": 0.23203650000002085
                },
                {
                    "name": "C3",
                    "midi": 48,
                    "time": 235.05297450000134,
                    "velocity": 0.3858267716535433,
                    "duration": 0.23203649999999243
                },
                {
                    "name": "D2",
                    "midi": 38,
                    "time": 235.28501100000133,
                    "velocity": 0.3858267716535433,
                    "duration": 0.23203650000002085
                },
                {
                    "name": "D3",
                    "midi": 50,
                    "time": 235.51704750000135,
                    "velocity": 0.3858267716535433,
                    "duration": 0.23203649999999243
                },
                {
                    "name": "G1",
                    "midi": 31,
                    "time": 235.74908400000135,
                    "velocity": 0.4094488188976378,
                    "duration": 0.23203650000002085
                },
                {
                    "name": "G2",
                    "midi": 43,
                    "time": 235.98112050000137,
                    "velocity": 0.4330708661417323,
                    "duration": 0.23203649999999243
                },
                {
                    "name": "D3",
                    "midi": 50,
                    "time": 236.21315700000136,
                    "velocity": 0.4330708661417323,
                    "duration": 0.46407299999998486
                },
                {
                    "name": "D4",
                    "midi": 62,
                    "time": 236.21315700000136,
                    "velocity": 0.5196850393700787,
                    "duration": 0.46407299999998486
                },
                {
                    "name": "D#3",
                    "midi": 51,
                    "time": 236.67723000000134,
                    "velocity": 0.4251968503937008,
                    "duration": 0.46407299999998486
                },
                {
                    "name": "D#4",
                    "midi": 63,
                    "time": 236.67723000000134,
                    "velocity": 0.5118110236220472,
                    "duration": 0.46407299999998486
                },
                {
                    "name": "C#3",
                    "midi": 49,
                    "time": 237.14130300000133,
                    "velocity": 0.3779527559055118,
                    "duration": 0.4640730000000133
                },
                {
                    "name": "C#4",
                    "midi": 61,
                    "time": 237.14130300000133,
                    "velocity": 0.44881889763779526,
                    "duration": 0.4640730000000133
                },
                {
                    "name": "D3",
                    "midi": 50,
                    "time": 237.60537600000134,
                    "velocity": 0.3779527559055118,
                    "duration": 0.46407299999998486
                },
                {
                    "name": "D4",
                    "midi": 62,
                    "time": 237.60537600000134,
                    "velocity": 0.44881889763779526,
                    "duration": 0.46407299999998486
                },
                {
                    "name": "B2",
                    "midi": 47,
                    "time": 238.06944900000133,
                    "velocity": 0.48031496062992124,
                    "duration": 0.1546910000000139
                },
                {
                    "name": "B3",
                    "midi": 59,
                    "time": 238.22414000000134,
                    "velocity": 0.4094488188976378,
                    "duration": 0.1546910000000139
                },
                {
                    "name": "B2",
                    "midi": 47,
                    "time": 238.37883100000136,
                    "velocity": 0.4094488188976378,
                    "duration": 0.1546910000000139
                },
                {
                    "name": "C3",
                    "midi": 48,
                    "time": 238.53352200000137,
                    "velocity": 0.49606299212598426,
                    "duration": 0.1546910000000139
                },
                {
                    "name": "C4",
                    "midi": 60,
                    "time": 238.68821300000138,
                    "velocity": 0.4330708661417323,
                    "duration": 0.15469099999998548
                },
                {
                    "name": "C3",
                    "midi": 48,
                    "time": 238.84290400000137,
                    "velocity": 0.4251968503937008,
                    "duration": 0.1546910000000139
                },
                {
                    "name": "A2",
                    "midi": 45,
                    "time": 238.99759500000138,
                    "velocity": 0.4645669291338583,
                    "duration": 0.1546910000000139
                },
                {
                    "name": "A3",
                    "midi": 57,
                    "time": 239.1522860000014,
                    "velocity": 0.4094488188976378,
                    "duration": 0.1546910000000139
                },
                {
                    "name": "A2",
                    "midi": 45,
                    "time": 239.3069770000014,
                    "velocity": 0.4094488188976378,
                    "duration": 0.1546910000000139
                },
                {
                    "name": "A#2",
                    "midi": 46,
                    "time": 239.46166800000142,
                    "velocity": 0.44881889763779526,
                    "duration": 0.1546910000000139
                },
                {
                    "name": "A#3",
                    "midi": 58,
                    "time": 239.61635900000144,
                    "velocity": 0.4094488188976378,
                    "duration": 0.1546910000000139
                },
                {
                    "name": "A#2",
                    "midi": 46,
                    "time": 239.77105000000145,
                    "velocity": 0.4094488188976378,
                    "duration": 0.1546910000000139
                },
                {
                    "name": "A#2",
                    "midi": 46,
                    "time": 240.15777750000146,
                    "velocity": 0.4645669291338583,
                    "duration": 0.11601824999999621
                },
                {
                    "name": "A#3",
                    "midi": 58,
                    "time": 240.15777750000146,
                    "velocity": 0.5669291338582677,
                    "duration": 0.11601824999999621
                },
                {
                    "name": "A2",
                    "midi": 45,
                    "time": 240.38981400000145,
                    "velocity": 0.5275590551181102,
                    "duration": 0.23203650000002085
                },
                {
                    "name": "A3",
                    "midi": 57,
                    "time": 240.38981400000145,
                    "velocity": 0.6220472440944882,
                    "duration": 0.23203650000002085
                },
                {
                    "name": "G2",
                    "midi": 43,
                    "time": 240.62185050000147,
                    "velocity": 0.4251968503937008,
                    "duration": 0.11601824999999621
                },
                {
                    "name": "G3",
                    "midi": 55,
                    "time": 240.62185050000147,
                    "velocity": 0.5118110236220472,
                    "duration": 0.11601824999999621
                },
                {
                    "name": "G2",
                    "midi": 43,
                    "time": 240.85388700000146,
                    "velocity": 0.4645669291338583,
                    "duration": 0.11601824999999621
                },
                {
                    "name": "G3",
                    "midi": 55,
                    "time": 240.85388700000146,
                    "velocity": 0.5590551181102362,
                    "duration": 0.11601824999999621
                },
                {
                    "name": "G2",
                    "midi": 43,
                    "time": 241.08592350000146,
                    "velocity": 0.41732283464566927,
                    "duration": 0.11601824999999621
                },
                {
                    "name": "G3",
                    "midi": 55,
                    "time": 241.08592350000146,
                    "velocity": 0.5039370078740157,
                    "duration": 0.11601824999999621
                },
                {
                    "name": "G2",
                    "midi": 43,
                    "time": 241.31796000000145,
                    "velocity": 0.5196850393700787,
                    "duration": 0.23203649999999243
                },
                {
                    "name": "G3",
                    "midi": 55,
                    "time": 241.31796000000145,
                    "velocity": 0.6141732283464567,
                    "duration": 0.23203649999999243
                },
                {
                    "name": "F#2",
                    "midi": 42,
                    "time": 241.54999650000144,
                    "velocity": 0.4645669291338583,
                    "duration": 0.11601825000002464
                },
                {
                    "name": "F#3",
                    "midi": 54,
                    "time": 241.54999650000144,
                    "velocity": 0.5669291338582677,
                    "duration": 0.11601825000002464
                },
                {
                    "name": "F2",
                    "midi": 41,
                    "time": 242.01406950000145,
                    "velocity": 0.4645669291338583,
                    "duration": 0.11601824999999621
                },
                {
                    "name": "F3",
                    "midi": 53,
                    "time": 242.01406950000145,
                    "velocity": 0.5669291338582677,
                    "duration": 0.11601824999999621
                },
                {
                    "name": "F2",
                    "midi": 41,
                    "time": 242.24610600000145,
                    "velocity": 0.5275590551181102,
                    "duration": 0.23203649999999243
                },
                {
                    "name": "F3",
                    "midi": 53,
                    "time": 242.24610600000145,
                    "velocity": 0.6220472440944882,
                    "duration": 0.23203649999999243
                },
                {
                    "name": "E2",
                    "midi": 40,
                    "time": 242.47814250000144,
                    "velocity": 0.4015748031496063,
                    "duration": 0.11601824999999621
                },
                {
                    "name": "E3",
                    "midi": 52,
                    "time": 242.47814250000144,
                    "velocity": 0.47244094488188976,
                    "duration": 0.11601824999999621
                },
                {
                    "name": "D#2",
                    "midi": 39,
                    "time": 242.71017900000143,
                    "velocity": 0.4409448818897638,
                    "duration": 0.11601824999999621
                },
                {
                    "name": "D#3",
                    "midi": 51,
                    "time": 242.71017900000143,
                    "velocity": 0.5275590551181102,
                    "duration": 0.11601824999999621
                },
                {
                    "name": "D#2",
                    "midi": 39,
                    "time": 242.94221550000142,
                    "velocity": 0.3937007874015748,
                    "duration": 0.11601824999999621
                },
                {
                    "name": "D#3",
                    "midi": 51,
                    "time": 242.94221550000142,
                    "velocity": 0.4645669291338583,
                    "duration": 0.11601824999999621
                },
                {
                    "name": "D#2",
                    "midi": 39,
                    "time": 243.17425200000142,
                    "velocity": 0.5196850393700787,
                    "duration": 0.23203650000002085
                },
                {
                    "name": "D#3",
                    "midi": 51,
                    "time": 243.17425200000142,
                    "velocity": 0.6141732283464567,
                    "duration": 0.23203650000002085
                },
                {
                    "name": "D2",
                    "midi": 38,
                    "time": 243.40628850000144,
                    "velocity": 0.4645669291338583,
                    "duration": 0.11601824999999621
                },
                {
                    "name": "D3",
                    "midi": 50,
                    "time": 243.40628850000144,
                    "velocity": 0.5669291338582677,
                    "duration": 0.11601824999999621
                },
                {
                    "name": "D#2",
                    "midi": 39,
                    "time": 243.63832500000143,
                    "velocity": 0.6141732283464567,
                    "duration": 0.23203649999999243
                },
                {
                    "name": "D#3",
                    "midi": 51,
                    "time": 243.87036150000142,
                    "velocity": 0.5511811023622047,
                    "duration": 0.23203649999999243
                },
                {
                    "name": "D2",
                    "midi": 38,
                    "time": 244.10239800000141,
                    "velocity": 0.6141732283464567,
                    "duration": 0.23203649999999243
                },
                {
                    "name": "D3",
                    "midi": 50,
                    "time": 244.3344345000014,
                    "velocity": 0.5590551181102362,
                    "duration": 0.23203649999999243
                },
                {
                    "name": "C#2",
                    "midi": 37,
                    "time": 244.5664710000014,
                    "velocity": 0.6141732283464567,
                    "duration": 0.23203650000002085
                },
                {
                    "name": "C#3",
                    "midi": 49,
                    "time": 244.79850750000142,
                    "velocity": 0.5354330708661418,
                    "duration": 0.23203649999999243
                },
                {
                    "name": "D2",
                    "midi": 38,
                    "time": 245.0305440000014,
                    "velocity": 0.6141732283464567,
                    "duration": 0.15469099999998548
                },
                {
                    "name": "F#2",
                    "midi": 42,
                    "time": 245.1852350000014,
                    "velocity": 0.5433070866141733,
                    "duration": 0.1546910000000139
                },
                {
                    "name": "A2",
                    "midi": 45,
                    "time": 245.3399260000014,
                    "velocity": 0.5433070866141733,
                    "duration": 0.1546910000000139
                },
                {
                    "name": "D3",
                    "midi": 50,
                    "time": 245.49461700000143,
                    "velocity": 0.5984251968503937,
                    "duration": 0.1546910000000139
                },
                {
                    "name": "F#3",
                    "midi": 54,
                    "time": 245.64930800000144,
                    "velocity": 0.5275590551181102,
                    "duration": 0.1546910000000139
                },
                {
                    "name": "A3",
                    "midi": 57,
                    "time": 245.80399900000145,
                    "velocity": 0.5275590551181102,
                    "duration": 0.1546910000000139
                },
                {
                    "name": "D3",
                    "midi": 50,
                    "time": 245.95869000000147,
                    "velocity": 0.5748031496062992,
                    "duration": 0.1546910000000139
                },
                {
                    "name": "G3",
                    "midi": 55,
                    "time": 246.11338100000148,
                    "velocity": 0.48031496062992124,
                    "duration": 0.1546910000000139
                },
                {
                    "name": "A#3",
                    "midi": 58,
                    "time": 246.2680720000015,
                    "velocity": 0.48031496062992124,
                    "duration": 0.1546910000000139
                },
                {
                    "name": "A3",
                    "midi": 57,
                    "time": 246.4227630000015,
                    "velocity": 0.5275590551181102,
                    "duration": 0.1546910000000139
                },
                {
                    "name": "A#3",
                    "midi": 58,
                    "time": 246.57745400000152,
                    "velocity": 0.4330708661417323,
                    "duration": 0.1546910000000139
                },
                {
                    "name": "G3",
                    "midi": 55,
                    "time": 246.73214500000154,
                    "velocity": 0.4330708661417323,
                    "duration": 0.1546910000000139
                },
                {
                    "name": "D3",
                    "midi": 50,
                    "time": 246.88683600000155,
                    "velocity": 0.5039370078740157,
                    "duration": 0.15469099999998548
                },
                {
                    "name": "F#3",
                    "midi": 54,
                    "time": 247.04152700000154,
                    "velocity": 0.4409448818897638,
                    "duration": 0.1546910000000139
                },
                {
                    "name": "A3",
                    "midi": 57,
                    "time": 247.19621800000155,
                    "velocity": 0.4409448818897638,
                    "duration": 0.1546910000000139
                },
                {
                    "name": "G#3",
                    "midi": 56,
                    "time": 247.35090900000156,
                    "velocity": 0.3700787401574803,
                    "duration": 0.1546910000000139
                },
                {
                    "name": "A3",
                    "midi": 57,
                    "time": 247.50560000000158,
                    "velocity": 0.28346456692913385,
                    "duration": 0.1546910000000139
                },
                {
                    "name": "F#3",
                    "midi": 54,
                    "time": 247.6602910000016,
                    "velocity": 0.28346456692913385,
                    "duration": 0.1546910000000139
                },
                {
                    "name": "D3",
                    "midi": 50,
                    "time": 247.8149820000016,
                    "velocity": 0.33070866141732286,
                    "duration": 0.1546910000000139
                },
                {
                    "name": "F3",
                    "midi": 53,
                    "time": 247.96967300000162,
                    "velocity": 0.25984251968503935,
                    "duration": 0.1546910000000139
                },
                {
                    "name": "G#3",
                    "midi": 56,
                    "time": 248.12436400000163,
                    "velocity": 0.25984251968503935,
                    "duration": 0.15469099999998548
                },
                {
                    "name": "G3",
                    "midi": 55,
                    "time": 248.27905500000162,
                    "velocity": 0.33858267716535434,
                    "duration": 0.1546910000000139
                },
                {
                    "name": "G#3",
                    "midi": 56,
                    "time": 248.43374600000163,
                    "velocity": 0.2755905511811024,
                    "duration": 0.1546910000000139
                },
                {
                    "name": "F3",
                    "midi": 53,
                    "time": 248.58843700000165,
                    "velocity": 0.2755905511811024,
                    "duration": 0.1546910000000139
                },
                {
                    "name": "C3",
                    "midi": 48,
                    "time": 248.74312800000166,
                    "velocity": 0.33858267716535434,
                    "duration": 0.1546910000000139
                },
                {
                    "name": "F3",
                    "midi": 53,
                    "time": 248.89781900000168,
                    "velocity": 0.28346456692913385,
                    "duration": 0.1546910000000139
                },
                {
                    "name": "G#3",
                    "midi": 56,
                    "time": 249.0525100000017,
                    "velocity": 0.28346456692913385,
                    "duration": 0.1546910000000139
                },
                {
                    "name": "C3",
                    "midi": 48,
                    "time": 249.2072010000017,
                    "velocity": 0.5984251968503937,
                    "duration": 0.1546910000000139
                },
                {
                    "name": "E3",
                    "midi": 52,
                    "time": 249.36189200000172,
                    "velocity": 0.5275590551181102,
                    "duration": 0.1546910000000139
                },
                {
                    "name": "G3",
                    "midi": 55,
                    "time": 249.51658300000173,
                    "velocity": 0.5275590551181102,
                    "duration": 0.1546910000000139
                },
                {
                    "name": "C3",
                    "midi": 48,
                    "time": 249.67127400000174,
                    "velocity": 0.5748031496062992,
                    "duration": 0.15469099999998548
                },
                {
                    "name": "F3",
                    "midi": 53,
                    "time": 249.82596500000173,
                    "velocity": 0.48031496062992124,
                    "duration": 0.1546910000000139
                },
                {
                    "name": "G#3",
                    "midi": 56,
                    "time": 249.98065600000174,
                    "velocity": 0.48031496062992124,
                    "duration": 0.1546910000000139
                },
                {
                    "name": "G3",
                    "midi": 55,
                    "time": 250.13534700000176,
                    "velocity": 0.5275590551181102,
                    "duration": 0.15469099999998548
                },
                {
                    "name": "G#3",
                    "midi": 56,
                    "time": 250.29003800000174,
                    "velocity": 0.4330708661417323,
                    "duration": 0.1546910000000139
                },
                {
                    "name": "F3",
                    "midi": 53,
                    "time": 250.44472900000176,
                    "velocity": 0.4330708661417323,
                    "duration": 0.1546910000000139
                },
                {
                    "name": "C3",
                    "midi": 48,
                    "time": 250.59942000000177,
                    "velocity": 0.5039370078740157,
                    "duration": 0.15469099999998548
                },
                {
                    "name": "E3",
                    "midi": 52,
                    "time": 250.75411100000176,
                    "velocity": 0.4409448818897638,
                    "duration": 0.1546910000000139
                },
                {
                    "name": "G3",
                    "midi": 55,
                    "time": 250.90880200000177,
                    "velocity": 0.4409448818897638,
                    "duration": 0.1546910000000139
                },
                {
                    "name": "F#3",
                    "midi": 54,
                    "time": 251.06349300000178,
                    "velocity": 0.3700787401574803,
                    "duration": 0.1546910000000139
                },
                {
                    "name": "G3",
                    "midi": 55,
                    "time": 251.2181840000018,
                    "velocity": 0.28346456692913385,
                    "duration": 0.1546910000000139
                },
                {
                    "name": "E3",
                    "midi": 52,
                    "time": 251.3728750000018,
                    "velocity": 0.28346456692913385,
                    "duration": 0.1546910000000139
                },
                {
                    "name": "C3",
                    "midi": 48,
                    "time": 251.52756600000183,
                    "velocity": 0.33070866141732286,
                    "duration": 0.15469099999998548
                },
                {
                    "name": "D#3",
                    "midi": 51,
                    "time": 251.6822570000018,
                    "velocity": 0.25984251968503935,
                    "duration": 0.1546910000000139
                },
                {
                    "name": "F#3",
                    "midi": 54,
                    "time": 251.83694800000183,
                    "velocity": 0.25984251968503935,
                    "duration": 0.1546910000000139
                },
                {
                    "name": "F3",
                    "midi": 53,
                    "time": 251.99163900000184,
                    "velocity": 0.33858267716535434,
                    "duration": 0.1546910000000139
                },
                {
                    "name": "F#3",
                    "midi": 54,
                    "time": 252.14633000000185,
                    "velocity": 0.2755905511811024,
                    "duration": 0.1546910000000139
                },
                {
                    "name": "D#3",
                    "midi": 51,
                    "time": 252.30102100000187,
                    "velocity": 0.2755905511811024,
                    "duration": 0.1546910000000139
                },
                {
                    "name": "A#2",
                    "midi": 46,
                    "time": 252.45571200000188,
                    "velocity": 0.33858267716535434,
                    "duration": 0.1546910000000139
                },
                {
                    "name": "D#3",
                    "midi": 51,
                    "time": 252.6104030000019,
                    "velocity": 0.28346456692913385,
                    "duration": 0.15469099999998548
                },
                {
                    "name": "F#3",
                    "midi": 54,
                    "time": 252.76509400000188,
                    "velocity": 0.28346456692913385,
                    "duration": 0.1546910000000139
                },
                {
                    "name": "A#2",
                    "midi": 46,
                    "time": 252.9255859125019,
                    "velocity": 0.4015748031496063,
                    "duration": 0.1546910000000139
                },
                {
                    "name": "D3",
                    "midi": 50,
                    "time": 253.07350918125192,
                    "velocity": 0.3464566929133858,
                    "duration": 0.15469099999998548
                },
                {
                    "name": "F3",
                    "midi": 53,
                    "time": 253.2301338187519,
                    "velocity": 0.3464566929133858,
                    "duration": 0.15469099999998548
                },
                {
                    "name": "C4",
                    "midi": 60,
                    "time": 253.3838580000019,
                    "velocity": 0.47244094488188976,
                    "duration": 0.46407299999998486
                },
                {
                    "name": "A3",
                    "midi": 57,
                    "time": 253.8479310000019,
                    "velocity": 0.3937007874015748,
                    "duration": 0.4640730000000133
                },
                {
                    "name": "A#3",
                    "midi": 58,
                    "time": 254.3120040000019,
                    "velocity": 0.4645669291338583,
                    "duration": 0.6961094999999773
                },
                {
                    "name": "D4",
                    "midi": 62,
                    "time": 255.00811350000188,
                    "velocity": 0.3543307086614173,
                    "duration": 0.11601824999999621
                },
                {
                    "name": "A#3",
                    "midi": 58,
                    "time": 255.24015000000188,
                    "velocity": 0.4015748031496063,
                    "duration": 0.9281459999999981
                },
                {
                    "name": "F4",
                    "midi": 65,
                    "time": 255.24015000000188,
                    "velocity": 0.41732283464566927,
                    "duration": 0.23203649999999243
                },
                {
                    "name": "D#4",
                    "midi": 63,
                    "time": 255.47218650000187,
                    "velocity": 0.36220472440944884,
                    "duration": 0.11601824999999621
                },
                {
                    "name": "D#4",
                    "midi": 63,
                    "time": 255.70422300000186,
                    "velocity": 0.36220472440944884,
                    "duration": 0.11601824999999621
                },
                {
                    "name": "D#4",
                    "midi": 63,
                    "time": 255.93625950000185,
                    "velocity": 0.36220472440944884,
                    "duration": 0.11601824999999621
                },
                {
                    "name": "A#3",
                    "midi": 58,
                    "time": 256.1682960000019,
                    "velocity": 0.4015748031496063,
                    "duration": 0.46407299999998486
                },
                {
                    "name": "D#4",
                    "midi": 63,
                    "time": 256.1682960000019,
                    "velocity": 0.41732283464566927,
                    "duration": 0.23203649999999243
                },
                {
                    "name": "D4",
                    "midi": 62,
                    "time": 256.40033250000187,
                    "velocity": 0.36220472440944884,
                    "duration": 0.11601824999996779
                },
                {
                    "name": "A#3",
                    "midi": 58,
                    "time": 256.86440550000185,
                    "velocity": 0.41732283464566927,
                    "duration": 0.23203649999999243
                },
                {
                    "name": "C4",
                    "midi": 60,
                    "time": 257.09644200000184,
                    "velocity": 0.4645669291338583,
                    "duration": 0.23203649999999243
                },
                {
                    "name": "D4",
                    "midi": 62,
                    "time": 257.32847850000184,
                    "velocity": 0.3937007874015748,
                    "duration": 0.23203649999999243
                },
                {
                    "name": "G3",
                    "midi": 55,
                    "time": 257.5605150000018,
                    "velocity": 0.4330708661417323,
                    "duration": 0.23203649999999243
                },
                {
                    "name": "A3",
                    "midi": 57,
                    "time": 257.7925515000018,
                    "velocity": 0.3937007874015748,
                    "duration": 0.23203649999999243
                },
                {
                    "name": "A#3",
                    "midi": 58,
                    "time": 258.0245880000018,
                    "velocity": 0.4645669291338583,
                    "duration": 0.6961095000000341
                },
                {
                    "name": "D4",
                    "midi": 62,
                    "time": 258.72069750000185,
                    "velocity": 0.3543307086614173,
                    "duration": 0.11601825000002464
                },
                {
                    "name": "A#3",
                    "midi": 58,
                    "time": 258.9527340000019,
                    "velocity": 0.41732283464566927,
                    "duration": 0.9281460000001402
                },
                {
                    "name": "F4",
                    "midi": 65,
                    "time": 258.9527340000019,
                    "velocity": 0.41732283464566927,
                    "duration": 0.23203649999999243
                },
                {
                    "name": "D#4",
                    "midi": 63,
                    "time": 259.1847705000019,
                    "velocity": 0.36220472440944884,
                    "duration": 0.11601825000002464
                },
                {
                    "name": "D#4",
                    "midi": 63,
                    "time": 259.41680700000194,
                    "velocity": 0.36220472440944884,
                    "duration": 0.11601825000002464
                },
                {
                    "name": "D#4",
                    "midi": 63,
                    "time": 259.648843500002,
                    "velocity": 0.36220472440944884,
                    "duration": 0.11601825000002464
                },
                {
                    "name": "A#3",
                    "midi": 58,
                    "time": 259.88088000000204,
                    "velocity": 0.41732283464566927,
                    "duration": 0.4640730000000417
                },
                {
                    "name": "D#4",
                    "midi": 63,
                    "time": 259.88088000000204,
                    "velocity": 0.41732283464566927,
                    "duration": 0.23203649999999243
                },
                {
                    "name": "D4",
                    "midi": 62,
                    "time": 260.11291650000203,
                    "velocity": 0.36220472440944884,
                    "duration": 0.11601825000002464
                },
                {
                    "name": "A#2",
                    "midi": 46,
                    "time": 260.57698950000207,
                    "velocity": 0.44881889763779526,
                    "duration": 0.23203649999999243
                },
                {
                    "name": "A#3",
                    "midi": 58,
                    "time": 260.57698950000207,
                    "velocity": 0.5354330708661418,
                    "duration": 0.23203649999999243
                },
                {
                    "name": "B2",
                    "midi": 47,
                    "time": 260.80902600000206,
                    "velocity": 0.5118110236220472,
                    "duration": 0.46407299999998486
                },
                {
                    "name": "B3",
                    "midi": 59,
                    "time": 260.80902600000206,
                    "velocity": 0.6062992125984252,
                    "duration": 0.46407299999998486
                },
                {
                    "name": "G#2",
                    "midi": 44,
                    "time": 261.27309900000205,
                    "velocity": 0.4645669291338583,
                    "duration": 0.46407299999998486
                },
                {
                    "name": "G#3",
                    "midi": 56,
                    "time": 261.27309900000205,
                    "velocity": 0.5590551181102362,
                    "duration": 0.46407299999998486
                },
                {
                    "name": "A#2",
                    "midi": 46,
                    "time": 261.73717200000203,
                    "velocity": 0.5118110236220472,
                    "duration": 0.4640730000000417
                },
                {
                    "name": "A#3",
                    "midi": 58,
                    "time": 261.73717200000203,
                    "velocity": 0.6062992125984252,
                    "duration": 0.4640730000000417
                },
                {
                    "name": "D#3",
                    "midi": 51,
                    "time": 262.43328150000207,
                    "velocity": 0.4330708661417323,
                    "duration": 0.11601825000002464
                },
                {
                    "name": "D#4",
                    "midi": 63,
                    "time": 262.43328150000207,
                    "velocity": 0.5196850393700787,
                    "duration": 0.11601825000002464
                },
                {
                    "name": "C#3",
                    "midi": 49,
                    "time": 262.6653180000021,
                    "velocity": 0.5196850393700787,
                    "duration": 0.23203649999999243
                },
                {
                    "name": "C#4",
                    "midi": 61,
                    "time": 262.6653180000021,
                    "velocity": 0.6141732283464567,
                    "duration": 0.23203649999999243
                },
                {
                    "name": "B2",
                    "midi": 47,
                    "time": 262.8973545000021,
                    "velocity": 0.4251968503937008,
                    "duration": 0.11601825000002464
                },
                {
                    "name": "B3",
                    "midi": 59,
                    "time": 262.8973545000021,
                    "velocity": 0.5118110236220472,
                    "duration": 0.11601825000002464
                },
                {
                    "name": "B2",
                    "midi": 47,
                    "time": 263.12939100000216,
                    "velocity": 0.4251968503937008,
                    "duration": 0.11601824999996779
                },
                {
                    "name": "B3",
                    "midi": 59,
                    "time": 263.12939100000216,
                    "velocity": 0.5118110236220472,
                    "duration": 0.11601824999996779
                },
                {
                    "name": "B2",
                    "midi": 47,
                    "time": 263.36142750000215,
                    "velocity": 0.41732283464566927,
                    "duration": 0.11601825000002464
                },
                {
                    "name": "B3",
                    "midi": 59,
                    "time": 263.36142750000215,
                    "velocity": 0.5039370078740157,
                    "duration": 0.11601825000002464
                },
                {
                    "name": "B2",
                    "midi": 47,
                    "time": 263.5934640000022,
                    "velocity": 0.5039370078740157,
                    "duration": 0.23203649999999243
                },
                {
                    "name": "B3",
                    "midi": 59,
                    "time": 263.5934640000022,
                    "velocity": 0.5984251968503937,
                    "duration": 0.23203649999999243
                },
                {
                    "name": "A#2",
                    "midi": 46,
                    "time": 263.8255005000022,
                    "velocity": 0.4251968503937008,
                    "duration": 0.11601825000002464
                },
                {
                    "name": "A#3",
                    "midi": 58,
                    "time": 263.8255005000022,
                    "velocity": 0.5118110236220472,
                    "duration": 0.11601825000002464
                },
                {
                    "name": "C#3",
                    "midi": 49,
                    "time": 264.05753700000224,
                    "velocity": 0.5354330708661418,
                    "duration": 0.15469099999995706
                },
                {
                    "name": "F#3",
                    "midi": 54,
                    "time": 264.2122280000022,
                    "velocity": 0.48031496062992124,
                    "duration": 0.1546910000000139
                },
                {
                    "name": "A#3",
                    "midi": 58,
                    "time": 264.3669190000022,
                    "velocity": 0.48031496062992124,
                    "duration": 0.1546910000000139
                },
                {
                    "name": "B2",
                    "midi": 47,
                    "time": 264.5216100000022,
                    "velocity": 0.5118110236220472,
                    "duration": 0.46407299999998486
                },
                {
                    "name": "B3",
                    "midi": 59,
                    "time": 264.5216100000022,
                    "velocity": 0.6062992125984252,
                    "duration": 0.46407299999998486
                },
                {
                    "name": "G#2",
                    "midi": 44,
                    "time": 264.9856830000022,
                    "velocity": 0.4645669291338583,
                    "duration": 0.46407299999998486
                },
                {
                    "name": "G#3",
                    "midi": 56,
                    "time": 264.9856830000022,
                    "velocity": 0.5590551181102362,
                    "duration": 0.46407299999998486
                },
                {
                    "name": "A#2",
                    "midi": 46,
                    "time": 265.4497560000022,
                    "velocity": 0.5118110236220472,
                    "duration": 0.4640730000000417
                },
                {
                    "name": "A#3",
                    "midi": 58,
                    "time": 265.4497560000022,
                    "velocity": 0.6062992125984252,
                    "duration": 0.4640730000000417
                },
                {
                    "name": "D#3",
                    "midi": 51,
                    "time": 266.14586550000223,
                    "velocity": 0.4330708661417323,
                    "duration": 0.11601825000002464
                },
                {
                    "name": "D#4",
                    "midi": 63,
                    "time": 266.14586550000223,
                    "velocity": 0.5196850393700787,
                    "duration": 0.11601825000002464
                },
                {
                    "name": "C#3",
                    "midi": 49,
                    "time": 266.3779020000023,
                    "velocity": 0.5196850393700787,
                    "duration": 0.23203649999999243
                },
                {
                    "name": "C#4",
                    "midi": 61,
                    "time": 266.3779020000023,
                    "velocity": 0.6141732283464567,
                    "duration": 0.23203649999999243
                },
                {
                    "name": "B2",
                    "midi": 47,
                    "time": 266.6099385000023,
                    "velocity": 0.4251968503937008,
                    "duration": 0.11601825000002464
                },
                {
                    "name": "B3",
                    "midi": 59,
                    "time": 266.6099385000023,
                    "velocity": 0.5118110236220472,
                    "duration": 0.11601825000002464
                },
                {
                    "name": "B2",
                    "midi": 47,
                    "time": 266.8419750000023,
                    "velocity": 0.4251968503937008,
                    "duration": 0.11601824999996779
                },
                {
                    "name": "B3",
                    "midi": 59,
                    "time": 266.8419750000023,
                    "velocity": 0.5118110236220472,
                    "duration": 0.11601824999996779
                },
                {
                    "name": "B2",
                    "midi": 47,
                    "time": 267.0740115000023,
                    "velocity": 0.41732283464566927,
                    "duration": 0.11601825000002464
                },
                {
                    "name": "B3",
                    "midi": 59,
                    "time": 267.0740115000023,
                    "velocity": 0.5039370078740157,
                    "duration": 0.11601825000002464
                },
                {
                    "name": "B2",
                    "midi": 47,
                    "time": 267.30604800000236,
                    "velocity": 0.5196850393700787,
                    "duration": 0.23203649999999243
                },
                {
                    "name": "B3",
                    "midi": 59,
                    "time": 267.30604800000236,
                    "velocity": 0.6141732283464567,
                    "duration": 0.23203649999999243
                },
                {
                    "name": "A#2",
                    "midi": 46,
                    "time": 267.53808450000236,
                    "velocity": 0.4251968503937008,
                    "duration": 0.11601825000002464
                },
                {
                    "name": "A#3",
                    "midi": 58,
                    "time": 267.53808450000236,
                    "velocity": 0.5118110236220472,
                    "duration": 0.11601825000002464
                },
                {
                    "name": "A#2",
                    "midi": 46,
                    "time": 267.7701210000024,
                    "velocity": 0.4251968503937008,
                    "duration": 0.11601825000002464
                },
                {
                    "name": "A#3",
                    "midi": 58,
                    "time": 267.7701210000024,
                    "velocity": 0.5118110236220472,
                    "duration": 0.11601825000002464
                },
                {
                    "name": "A#2",
                    "midi": 46,
                    "time": 268.00215750000245,
                    "velocity": 0.41732283464566927,
                    "duration": 0.11601825000002464
                },
                {
                    "name": "A#3",
                    "midi": 58,
                    "time": 268.00215750000245,
                    "velocity": 0.5039370078740157,
                    "duration": 0.11601825000002464
                },
                {
                    "name": "A#2",
                    "midi": 46,
                    "time": 268.2341940000025,
                    "velocity": 0.5196850393700787,
                    "duration": 0.23203649999999243
                },
                {
                    "name": "A#3",
                    "midi": 58,
                    "time": 268.2341940000025,
                    "velocity": 0.6141732283464567,
                    "duration": 0.23203649999999243
                },
                {
                    "name": "G#2",
                    "midi": 44,
                    "time": 268.4662305000025,
                    "velocity": 0.4251968503937008,
                    "duration": 0.11601825000002464
                },
                {
                    "name": "G#3",
                    "midi": 56,
                    "time": 268.4662305000025,
                    "velocity": 0.5118110236220472,
                    "duration": 0.11601825000002464
                },
                {
                    "name": "G#2",
                    "midi": 44,
                    "time": 268.6982670000025,
                    "velocity": 0.4251968503937008,
                    "duration": 0.11601824999996779
                },
                {
                    "name": "G#3",
                    "midi": 56,
                    "time": 268.6982670000025,
                    "velocity": 0.5118110236220472,
                    "duration": 0.11601824999996779
                },
                {
                    "name": "G#2",
                    "midi": 44,
                    "time": 268.9303035000025,
                    "velocity": 0.41732283464566927,
                    "duration": 0.11601825000002464
                },
                {
                    "name": "G#3",
                    "midi": 56,
                    "time": 268.9303035000025,
                    "velocity": 0.5039370078740157,
                    "duration": 0.11601825000002464
                },
                {
                    "name": "G#2",
                    "midi": 44,
                    "time": 269.16234000000253,
                    "velocity": 0.5196850393700787,
                    "duration": 0.23203649999999243
                },
                {
                    "name": "G#3",
                    "midi": 56,
                    "time": 269.16234000000253,
                    "velocity": 0.6141732283464567,
                    "duration": 0.23203649999999243
                },
                {
                    "name": "F#2",
                    "midi": 42,
                    "time": 269.3943765000025,
                    "velocity": 0.4251968503937008,
                    "duration": 0.11601825000002464
                },
                {
                    "name": "F#3",
                    "midi": 54,
                    "time": 269.3943765000025,
                    "velocity": 0.5118110236220472,
                    "duration": 0.11601825000002464
                },
                {
                    "name": "F#2",
                    "midi": 42,
                    "time": 269.6264130000026,
                    "velocity": 0.4251968503937008,
                    "duration": 0.11601824999996779
                },
                {
                    "name": "F#3",
                    "midi": 54,
                    "time": 269.6264130000026,
                    "velocity": 0.5118110236220472,
                    "duration": 0.11601824999996779
                },
                {
                    "name": "F#2",
                    "midi": 42,
                    "time": 269.85844950000256,
                    "velocity": 0.41732283464566927,
                    "duration": 0.11601825000002464
                },
                {
                    "name": "F#3",
                    "midi": 54,
                    "time": 269.85844950000256,
                    "velocity": 0.5039370078740157,
                    "duration": 0.11601825000002464
                },
                {
                    "name": "B1",
                    "midi": 35,
                    "time": 270.0904860000026,
                    "velocity": 0.6929133858267716,
                    "duration": 0.9281460000000266
                },
                {
                    "name": "B2",
                    "midi": 47,
                    "time": 270.0904860000026,
                    "velocity": 0.8110236220472441,
                    "duration": 0.9281460000000266
                },
                {
                    "name": "B1",
                    "midi": 35,
                    "time": 271.01863200000264,
                    "velocity": 0.5905511811023622,
                    "duration": 0.23203649999999243
                },
                {
                    "name": "B2",
                    "midi": 47,
                    "time": 271.01863200000264,
                    "velocity": 0.7007874015748031,
                    "duration": 0.23203649999999243
                },
                {
                    "name": "A#1",
                    "midi": 34,
                    "time": 271.25066850000263,
                    "velocity": 0.5039370078740157,
                    "duration": 0.11601825000002464
                },
                {
                    "name": "A#2",
                    "midi": 46,
                    "time": 271.25066850000263,
                    "velocity": 0.5905511811023622,
                    "duration": 0.11601825000002464
                },
                {
                    "name": "A#1",
                    "midi": 34,
                    "time": 271.4827050000027,
                    "velocity": 0.5039370078740157,
                    "duration": 0.11601825000002464
                },
                {
                    "name": "A#2",
                    "midi": 46,
                    "time": 271.4827050000027,
                    "velocity": 0.5905511811023622,
                    "duration": 0.11601825000002464
                },
                {
                    "name": "A#1",
                    "midi": 34,
                    "time": 271.71474150000273,
                    "velocity": 0.5039370078740157,
                    "duration": 0.11601825000002464
                },
                {
                    "name": "A#2",
                    "midi": 46,
                    "time": 271.71474150000273,
                    "velocity": 0.5905511811023622,
                    "duration": 0.11601825000002464
                },
                {
                    "name": "B1",
                    "midi": 35,
                    "time": 271.9467780000028,
                    "velocity": 0.6929133858267716,
                    "duration": 0.9281460000000266
                },
                {
                    "name": "B2",
                    "midi": 47,
                    "time": 271.9467780000028,
                    "velocity": 0.8110236220472441,
                    "duration": 0.9281460000000266
                },
                {
                    "name": "B1",
                    "midi": 35,
                    "time": 272.8749240000028,
                    "velocity": 0.5905511811023622,
                    "duration": 0.23203649999999243
                },
                {
                    "name": "B2",
                    "midi": 47,
                    "time": 272.8749240000028,
                    "velocity": 0.7007874015748031,
                    "duration": 0.23203649999999243
                },
                {
                    "name": "A#1",
                    "midi": 34,
                    "time": 273.1069605000028,
                    "velocity": 0.5039370078740157,
                    "duration": 0.11601825000002464
                },
                {
                    "name": "A#2",
                    "midi": 46,
                    "time": 273.1069605000028,
                    "velocity": 0.5905511811023622,
                    "duration": 0.11601825000002464
                },
                {
                    "name": "A#1",
                    "midi": 34,
                    "time": 273.33899700000285,
                    "velocity": 0.5039370078740157,
                    "duration": 0.11601825000002464
                },
                {
                    "name": "A#2",
                    "midi": 46,
                    "time": 273.33899700000285,
                    "velocity": 0.5905511811023622,
                    "duration": 0.11601825000002464
                },
                {
                    "name": "A#1",
                    "midi": 34,
                    "time": 273.5710335000029,
                    "velocity": 0.5039370078740157,
                    "duration": 0.11601825000002464
                },
                {
                    "name": "A#2",
                    "midi": 46,
                    "time": 273.5710335000029,
                    "velocity": 0.5905511811023622,
                    "duration": 0.11601825000002464
                },
                {
                    "name": "B2",
                    "midi": 47,
                    "time": 273.80307000000295,
                    "velocity": 0.8110236220472441,
                    "duration": 0.9281460000000266
                },
                {
                    "name": "B1",
                    "midi": 35,
                    "time": 273.80307000000295,
                    "velocity": 0.6929133858267716,
                    "duration": 0.9281460000000266
                },
                {
                    "name": "A#2",
                    "midi": 46,
                    "time": 274.731216000003,
                    "velocity": 0.7007874015748031,
                    "duration": 0.46407299999998486
                },
                {
                    "name": "A#1",
                    "midi": 34,
                    "time": 274.731216000003,
                    "velocity": 0.5905511811023622,
                    "duration": 0.46407299999998486
                },
                {
                    "name": "A2",
                    "midi": 45,
                    "time": 275.19528900000296,
                    "velocity": 0.5905511811023622,
                    "duration": 0.46407299999998486
                },
                {
                    "name": "A1",
                    "midi": 33,
                    "time": 275.19528900000296,
                    "velocity": 0.5039370078740157,
                    "duration": 0.46407299999998486
                },
                {
                    "name": "A#1",
                    "midi": 34,
                    "time": 275.65936200000294,
                    "velocity": 0.6929133858267716,
                    "duration": 0.9281460000000266
                },
                {
                    "name": "A#2",
                    "midi": 46,
                    "time": 275.65936200000294,
                    "velocity": 0.8110236220472441,
                    "duration": 0.9281460000000266
                },
                {
                    "name": "A#1",
                    "midi": 34,
                    "time": 276.58750800000297,
                    "velocity": 0.5669291338582677,
                    "duration": 0.23203649999999243
                },
                {
                    "name": "A#2",
                    "midi": 46,
                    "time": 276.58750800000297,
                    "velocity": 0.6771653543307087,
                    "duration": 0.23203649999999243
                },
                {
                    "name": "A1",
                    "midi": 33,
                    "time": 276.81954450000296,
                    "velocity": 0.47244094488188976,
                    "duration": 0.11601825000002464
                },
                {
                    "name": "A2",
                    "midi": 45,
                    "time": 276.81954450000296,
                    "velocity": 0.5669291338582677,
                    "duration": 0.11601825000002464
                },
                {
                    "name": "A1",
                    "midi": 33,
                    "time": 277.051581000003,
                    "velocity": 0.4645669291338583,
                    "duration": 0.11601824999996779
                },
                {
                    "name": "A2",
                    "midi": 45,
                    "time": 277.051581000003,
                    "velocity": 0.5590551181102362,
                    "duration": 0.11601824999996779
                },
                {
                    "name": "A1",
                    "midi": 33,
                    "time": 277.283617500003,
                    "velocity": 0.4645669291338583,
                    "duration": 0.11601825000002464
                },
                {
                    "name": "A2",
                    "midi": 45,
                    "time": 277.283617500003,
                    "velocity": 0.5511811023622047,
                    "duration": 0.11601825000002464
                },
                {
                    "name": "A#1",
                    "midi": 34,
                    "time": 277.51565400000305,
                    "velocity": 0.6377952755905512,
                    "duration": 0.9281460000000266
                },
                {
                    "name": "A#2",
                    "midi": 46,
                    "time": 277.51565400000305,
                    "velocity": 0.7559055118110236,
                    "duration": 0.9281460000000266
                },
                {
                    "name": "A#1",
                    "midi": 34,
                    "time": 278.4438000000031,
                    "velocity": 0.5275590551181102,
                    "duration": 0.23203649999999243
                },
                {
                    "name": "A#2",
                    "midi": 46,
                    "time": 278.4438000000031,
                    "velocity": 0.6141732283464567,
                    "duration": 0.23203649999999243
                },
                {
                    "name": "A1",
                    "midi": 33,
                    "time": 278.6758365000031,
                    "velocity": 0.4330708661417323,
                    "duration": 0.11601825000002464
                },
                {
                    "name": "A2",
                    "midi": 45,
                    "time": 278.6758365000031,
                    "velocity": 0.5196850393700787,
                    "duration": 0.11601825000002464
                },
                {
                    "name": "A1",
                    "midi": 33,
                    "time": 278.9078730000031,
                    "velocity": 0.4330708661417323,
                    "duration": 0.11601824999996779
                },
                {
                    "name": "A2",
                    "midi": 45,
                    "time": 278.9078730000031,
                    "velocity": 0.5118110236220472,
                    "duration": 0.11601824999996779
                },
                {
                    "name": "A1",
                    "midi": 33,
                    "time": 279.1399095000031,
                    "velocity": 0.4251968503937008,
                    "duration": 0.11601825000002464
                },
                {
                    "name": "A2",
                    "midi": 45,
                    "time": 279.1399095000031,
                    "velocity": 0.5039370078740157,
                    "duration": 0.11601825000002464
                },
                {
                    "name": "A#1",
                    "midi": 34,
                    "time": 279.37194600000316,
                    "velocity": 0.5826771653543307,
                    "duration": 0.9281460000000266
                },
                {
                    "name": "A#2",
                    "midi": 46,
                    "time": 279.37194600000316,
                    "velocity": 0.6929133858267716,
                    "duration": 0.9281460000000266
                },
                {
                    "name": "A#1",
                    "midi": 34,
                    "time": 280.3000920000032,
                    "velocity": 0.48031496062992124,
                    "duration": 0.23203649999999243
                },
                {
                    "name": "A#2",
                    "midi": 46,
                    "time": 280.3000920000032,
                    "velocity": 0.5669291338582677,
                    "duration": 0.23203649999999243
                },
                {
                    "name": "A1",
                    "midi": 33,
                    "time": 280.5321285000032,
                    "velocity": 0.4015748031496063,
                    "duration": 0.11601825000002464
                },
                {
                    "name": "A2",
                    "midi": 45,
                    "time": 280.5321285000032,
                    "velocity": 0.47244094488188976,
                    "duration": 0.11601825000002464
                },
                {
                    "name": "A1",
                    "midi": 33,
                    "time": 280.76416500000323,
                    "velocity": 0.3937007874015748,
                    "duration": 0.11601825000002464
                },
                {
                    "name": "A2",
                    "midi": 45,
                    "time": 280.76416500000323,
                    "velocity": 0.4645669291338583,
                    "duration": 0.11601825000002464
                },
                {
                    "name": "A1",
                    "midi": 33,
                    "time": 280.9962015000033,
                    "velocity": 0.3937007874015748,
                    "duration": 0.11601825000002464
                },
                {
                    "name": "A2",
                    "midi": 45,
                    "time": 280.9962015000033,
                    "velocity": 0.4566929133858268,
                    "duration": 0.11601825000002464
                },
                {
                    "name": "A#2",
                    "midi": 46,
                    "time": 281.22823800000333,
                    "velocity": 0.6299212598425197,
                    "duration": 0.6961095000000341
                },
                {
                    "name": "A#1",
                    "midi": 34,
                    "time": 281.22823800000333,
                    "velocity": 0.5354330708661418,
                    "duration": 0.6961095000000341
                },
                {
                    "name": "A#1",
                    "midi": 34,
                    "time": 281.92434750000336,
                    "velocity": 0.5196850393700787,
                    "duration": 0.23203649999999243
                },
                {
                    "name": "A#2",
                    "midi": 46,
                    "time": 281.92434750000336,
                    "velocity": 0.6062992125984252,
                    "duration": 0.23203649999999243
                },
                {
                    "name": "A2",
                    "midi": 45,
                    "time": 282.15638400000336,
                    "velocity": 0.5118110236220472,
                    "duration": 0.46407299999998486
                },
                {
                    "name": "A1",
                    "midi": 33,
                    "time": 282.15638400000336,
                    "velocity": 0.4330708661417323,
                    "duration": 0.46407299999998486
                },
                {
                    "name": "G#2",
                    "midi": 44,
                    "time": 282.62045700000334,
                    "velocity": 0.41732283464566927,
                    "duration": 0.4640730000000417
                },
                {
                    "name": "G#1",
                    "midi": 32,
                    "time": 282.62045700000334,
                    "velocity": 0.3543307086614173,
                    "duration": 0.4640730000000417
                },
                {
                    "name": "A2",
                    "midi": 45,
                    "time": 283.0845300000034,
                    "velocity": 0.5354330708661418,
                    "duration": 0.6961095000000341
                },
                {
                    "name": "A1",
                    "midi": 33,
                    "time": 283.0845300000034,
                    "velocity": 0.44881889763779526,
                    "duration": 0.6961095000000341
                },
                {
                    "name": "A1",
                    "midi": 33,
                    "time": 283.7806395000034,
                    "velocity": 0.4409448818897638,
                    "duration": 0.23203649999999243
                },
                {
                    "name": "A2",
                    "midi": 45,
                    "time": 283.7806395000034,
                    "velocity": 0.4409448818897638,
                    "duration": 0.23203649999999243
                },
                {
                    "name": "G2",
                    "midi": 43,
                    "time": 284.0126760000034,
                    "velocity": 0.4566929133858268,
                    "duration": 0.46407299999998486
                },
                {
                    "name": "G1",
                    "midi": 31,
                    "time": 284.0126760000034,
                    "velocity": 0.3858267716535433,
                    "duration": 0.46407299999998486
                },
                {
                    "name": "F#2",
                    "midi": 42,
                    "time": 284.4767490000034,
                    "velocity": 0.3858267716535433,
                    "duration": 0.46407299999998486
                },
                {
                    "name": "F#1",
                    "midi": 30,
                    "time": 284.4767490000034,
                    "velocity": 0.31496062992125984,
                    "duration": 0.46407299999998486
                },
                {
                    "name": "G1",
                    "midi": 31,
                    "time": 284.9408220000034,
                    "velocity": 0.44881889763779526,
                    "duration": 0.9281460000000266
                },
                {
                    "name": "G2",
                    "midi": 43,
                    "time": 284.9408220000034,
                    "velocity": 0.5354330708661418,
                    "duration": 0.9281460000000266
                },
                {
                    "name": "G1",
                    "midi": 31,
                    "time": 285.8689680000034,
                    "velocity": 0.3858267716535433,
                    "duration": 0.23203649999999243
                },
                {
                    "name": "G2",
                    "midi": 43,
                    "time": 285.8689680000034,
                    "velocity": 0.4566929133858268,
                    "duration": 0.23203649999999243
                },
                {
                    "name": "G#1",
                    "midi": 32,
                    "time": 286.1010045000034,
                    "velocity": 0.31496062992125984,
                    "duration": 0.11601825000002464
                },
                {
                    "name": "G#2",
                    "midi": 44,
                    "time": 286.1010045000034,
                    "velocity": 0.3858267716535433,
                    "duration": 0.11601825000002464
                },
                {
                    "name": "G#1",
                    "midi": 32,
                    "time": 286.33304100000345,
                    "velocity": 0.31496062992125984,
                    "duration": 0.11601825000002464
                },
                {
                    "name": "G#2",
                    "midi": 44,
                    "time": 286.33304100000345,
                    "velocity": 0.3858267716535433,
                    "duration": 0.11601825000002464
                },
                {
                    "name": "G#1",
                    "midi": 32,
                    "time": 286.5650775000035,
                    "velocity": 0.31496062992125984,
                    "duration": 0.11601825000002464
                },
                {
                    "name": "G#2",
                    "midi": 44,
                    "time": 286.5650775000035,
                    "velocity": 0.3858267716535433,
                    "duration": 0.11601825000002464
                },
                {
                    "name": "G1",
                    "midi": 31,
                    "time": 286.79711400000355,
                    "velocity": 0.44881889763779526,
                    "duration": 0.9281460000000266
                },
                {
                    "name": "G2",
                    "midi": 43,
                    "time": 286.79711400000355,
                    "velocity": 0.5354330708661418,
                    "duration": 0.9281460000000266
                },
                {
                    "name": "G1",
                    "midi": 31,
                    "time": 287.7252600000036,
                    "velocity": 0.2992125984251969,
                    "duration": 0.23203649999999243
                },
                {
                    "name": "G2",
                    "midi": 43,
                    "time": 287.7252600000036,
                    "velocity": 0.36220472440944884,
                    "duration": 0.23203649999999243
                },
                {
                    "name": "G#1",
                    "midi": 32,
                    "time": 287.95729650000357,
                    "velocity": 0.25196850393700787,
                    "duration": 0.11601825000002464
                },
                {
                    "name": "G#2",
                    "midi": 44,
                    "time": 287.95729650000357,
                    "velocity": 0.2992125984251969,
                    "duration": 0.11601825000002464
                },
                {
                    "name": "G#1",
                    "midi": 32,
                    "time": 288.1893330000036,
                    "velocity": 0.25196850393700787,
                    "duration": 0.11601824999996779
                },
                {
                    "name": "G#2",
                    "midi": 44,
                    "time": 288.1893330000036,
                    "velocity": 0.2992125984251969,
                    "duration": 0.11601824999996779
                },
                {
                    "name": "G#1",
                    "midi": 32,
                    "time": 288.4213695000036,
                    "velocity": 0.25196850393700787,
                    "duration": 0.11601825000002464
                },
                {
                    "name": "G#2",
                    "midi": 44,
                    "time": 288.4213695000036,
                    "velocity": 0.2992125984251969,
                    "duration": 0.11601825000002464
                },
                {
                    "name": "G1",
                    "midi": 31,
                    "time": 288.65340600000366,
                    "velocity": 0.2992125984251969,
                    "duration": 0.23203649999999243
                },
                {
                    "name": "G2",
                    "midi": 43,
                    "time": 288.65340600000366,
                    "velocity": 0.36220472440944884,
                    "duration": 0.23203649999999243
                },
                {
                    "name": "G3",
                    "midi": 55,
                    "time": 289.11747900000364,
                    "velocity": 0.6141732283464567,
                    "duration": 1.3922190000000114
                },
                {
                    "name": "G4",
                    "midi": 67,
                    "time": 289.11747900000364,
                    "velocity": 0.7401574803149606,
                    "duration": 1.3922190000000114
                },
                {
                    "name": "G3",
                    "midi": 55,
                    "time": 290.50969800000365,
                    "velocity": 0.33070866141732286,
                    "duration": 0.23203649999999243
                },
                {
                    "name": "G4",
                    "midi": 67,
                    "time": 290.74173450000364,
                    "velocity": 0.2440944881889764,
                    "duration": 0.11601825000002464
                },
                {
                    "name": "F4",
                    "midi": 65,
                    "time": 290.9737710000037,
                    "velocity": 0.2440944881889764,
                    "duration": 0.11601825000002464
                },
                {
                    "name": "D4",
                    "midi": 62,
                    "time": 290.9737710000037,
                    "velocity": 0.2047244094488189,
                    "duration": 0.11601825000002464
                },
                {
                    "name": "G4",
                    "midi": 67,
                    "time": 291.20580750000374,
                    "velocity": 0.25196850393700787,
                    "duration": 0.11601825000002464
                },
                {
                    "name": "G3",
                    "midi": 55,
                    "time": 291.4378440000038,
                    "velocity": 0.3464566929133858,
                    "duration": 0.23203649999999243
                },
                {
                    "name": "G4",
                    "midi": 67,
                    "time": 291.6698805000038,
                    "velocity": 0.2440944881889764,
                    "duration": 0.23203649999999243
                },
                {
                    "name": "C4",
                    "midi": 60,
                    "time": 291.9019170000038,
                    "velocity": 0.2283464566929134,
                    "duration": 0.23203649999999243
                },
                {
                    "name": "D#4",
                    "midi": 63,
                    "time": 291.9019170000038,
                    "velocity": 0.2755905511811024,
                    "duration": 0.23203649999999243
                },
                {
                    "name": "G4",
                    "midi": 67,
                    "time": 292.13395350000377,
                    "velocity": 0.25196850393700787,
                    "duration": 0.23203649999999243
                },
                {
                    "name": "G3",
                    "midi": 55,
                    "time": 292.36599000000376,
                    "velocity": 0.33070866141732286,
                    "duration": 0.23203649999999243
                },
                {
                    "name": "G4",
                    "midi": 67,
                    "time": 292.59802650000375,
                    "velocity": 0.2440944881889764,
                    "duration": 0.11601825000002464
                },
                {
                    "name": "F4",
                    "midi": 65,
                    "time": 292.8300630000038,
                    "velocity": 0.2440944881889764,
                    "duration": 0.11601825000002464
                },
                {
                    "name": "D4",
                    "midi": 62,
                    "time": 292.8300630000038,
                    "velocity": 0.2047244094488189,
                    "duration": 0.11601825000002464
                },
                {
                    "name": "G4",
                    "midi": 67,
                    "time": 293.06209950000385,
                    "velocity": 0.2283464566929134,
                    "duration": 0.11601825000002464
                },
                {
                    "name": "G3",
                    "midi": 55,
                    "time": 293.2941360000039,
                    "velocity": 0.3464566929133858,
                    "duration": 0.23203649999999243
                },
                {
                    "name": "G4",
                    "midi": 67,
                    "time": 293.5261725000039,
                    "velocity": 0.25196850393700787,
                    "duration": 0.11601825000002464
                },
                {
                    "name": "F#3",
                    "midi": 54,
                    "time": 293.75820900000394,
                    "velocity": 0.2283464566929134,
                    "duration": 0.11601825000002464
                },
                {
                    "name": "C4",
                    "midi": 60,
                    "time": 293.75820900000394,
                    "velocity": 0.2283464566929134,
                    "duration": 0.11601825000002464
                },
                {
                    "name": "D#4",
                    "midi": 63,
                    "time": 293.75820900000394,
                    "velocity": 0.2755905511811024,
                    "duration": 0.11601825000002464
                },
                {
                    "name": "F#4",
                    "midi": 66,
                    "time": 293.990245500004,
                    "velocity": 0.2755905511811024,
                    "duration": 0.23203649999999243
                },
                {
                    "name": "F3",
                    "midi": 53,
                    "time": 294.222282000004,
                    "velocity": 0.33070866141732286,
                    "duration": 0.23203649999999243
                },
                {
                    "name": "F4",
                    "midi": 65,
                    "time": 294.454318500004,
                    "velocity": 0.2755905511811024,
                    "duration": 0.11601825000002464
                },
                {
                    "name": "D4",
                    "midi": 62,
                    "time": 294.686355000004,
                    "velocity": 0.2755905511811024,
                    "duration": 0.11601825000002464
                },
                {
                    "name": "F4",
                    "midi": 65,
                    "time": 294.9183915000041,
                    "velocity": 0.28346456692913385,
                    "duration": 0.11601825000002464
                },
                {
                    "name": "G3",
                    "midi": 55,
                    "time": 295.1504280000041,
                    "velocity": 0.33070866141732286,
                    "duration": 0.23203649999999243
                },
                {
                    "name": "E4",
                    "midi": 64,
                    "time": 295.3824645000041,
                    "velocity": 0.28346456692913385,
                    "duration": 0.11601825000002464
                },
                {
                    "name": "C4",
                    "midi": 60,
                    "time": 295.61450100000417,
                    "velocity": 0.28346456692913385,
                    "duration": 0.11601825000002464
                },
                {
                    "name": "E4",
                    "midi": 64,
                    "time": 295.8465375000042,
                    "velocity": 0.28346456692913385,
                    "duration": 0.11601825000002464
                },
                {
                    "name": "D4",
                    "midi": 62,
                    "time": 296.07857400000427,
                    "velocity": 0.33070866141732286,
                    "duration": 0.23203649999999243
                },
                {
                    "name": "F3",
                    "midi": 53,
                    "time": 296.07857400000427,
                    "velocity": 0.2755905511811024,
                    "duration": 0.23203649999999243
                },
                {
                    "name": "F4",
                    "midi": 65,
                    "time": 296.31061050000426,
                    "velocity": 0.25984251968503935,
                    "duration": 0.23203649999999243
                },
                {
                    "name": "D#4",
                    "midi": 63,
                    "time": 296.54264700000425,
                    "velocity": 0.2755905511811024,
                    "duration": 0.11601825000002464
                },
                {
                    "name": "F3",
                    "midi": 53,
                    "time": 296.54264700000425,
                    "velocity": 0.2283464566929134,
                    "duration": 0.11601825000002464
                },
                {
                    "name": "F4",
                    "midi": 65,
                    "time": 296.7746835000043,
                    "velocity": 0.2677165354330709,
                    "duration": 0.11601825000002464
                },
                {
                    "name": "D4",
                    "midi": 62,
                    "time": 297.00672000000435,
                    "velocity": 0.33070866141732286,
                    "duration": 0.11601825000002464
                },
                {
                    "name": "A#3",
                    "midi": 58,
                    "time": 297.00672000000435,
                    "velocity": 0.33070866141732286,
                    "duration": 0.11601825000002464
                },
                {
                    "name": "A3",
                    "midi": 57,
                    "time": 297.2387565000044,
                    "velocity": 0.2992125984251969,
                    "duration": 0.11601825000002464
                },
                {
                    "name": "G3",
                    "midi": 55,
                    "time": 297.47079300000445,
                    "velocity": 0.29133858267716534,
                    "duration": 0.11601825000002464
                },
                {
                    "name": "F3",
                    "midi": 53,
                    "time": 297.7028295000045,
                    "velocity": 0.28346456692913385,
                    "duration": 0.11601825000002464
                },
                {
                    "name": "D#3",
                    "midi": 51,
                    "time": 297.93486600000455,
                    "velocity": 0.33070866141732286,
                    "duration": 0.11601825000002464
                },
                {
                    "name": "A#3",
                    "midi": 58,
                    "time": 298.1669025000046,
                    "velocity": 0.28346456692913385,
                    "duration": 0.11601825000002464
                },
                {
                    "name": "G3",
                    "midi": 55,
                    "time": 298.1669025000046,
                    "velocity": 0.28346456692913385,
                    "duration": 0.11601825000002464
                },
                {
                    "name": "C3",
                    "midi": 48,
                    "time": 298.39893900000465,
                    "velocity": 0.28346456692913385,
                    "duration": 0.11601825000002464
                },
                {
                    "name": "C4",
                    "midi": 60,
                    "time": 298.6309755000047,
                    "velocity": 0.28346456692913385,
                    "duration": 0.11601825000002464
                },
                {
                    "name": "G3",
                    "midi": 55,
                    "time": 298.6309755000047,
                    "velocity": 0.28346456692913385,
                    "duration": 0.11601825000002464
                },
                {
                    "name": "F3",
                    "midi": 53,
                    "time": 298.86301200000474,
                    "velocity": 0.33070866141732286,
                    "duration": 0.11601825000002464
                },
                {
                    "name": "A3",
                    "midi": 57,
                    "time": 299.0950485000048,
                    "velocity": 0.2755905511811024,
                    "duration": 0.11601825000002464
                },
                {
                    "name": "C4",
                    "midi": 60,
                    "time": 299.0950485000048,
                    "velocity": 0.2755905511811024,
                    "duration": 0.11601825000002464
                },
                {
                    "name": "D#3",
                    "midi": 51,
                    "time": 299.32708500000484,
                    "velocity": 0.28346456692913385,
                    "duration": 0.11601825000002464
                },
                {
                    "name": "C4",
                    "midi": 60,
                    "time": 299.5591215000049,
                    "velocity": 0.28346456692913385,
                    "duration": 0.11601825000002464
                },
                {
                    "name": "A3",
                    "midi": 57,
                    "time": 299.5591215000049,
                    "velocity": 0.28346456692913385,
                    "duration": 0.11601825000002464
                },
                {
                    "name": "D3",
                    "midi": 50,
                    "time": 299.79115800000494,
                    "velocity": 0.30708661417322836,
                    "duration": 0.11601824999996779
                },
                {
                    "name": "A#3",
                    "midi": 58,
                    "time": 300.02319450000493,
                    "velocity": 0.2677165354330709,
                    "duration": 0.11601825000002464
                },
                {
                    "name": "F3",
                    "midi": 53,
                    "time": 300.02319450000493,
                    "velocity": 0.2283464566929134,
                    "duration": 0.11601825000002464
                },
                {
                    "name": "A#2",
                    "midi": 46,
                    "time": 300.255231000005,
                    "velocity": 0.2677165354330709,
                    "duration": 0.11601825000002464
                },
                {
                    "name": "A#3",
                    "midi": 58,
                    "time": 300.48726750000503,
                    "velocity": 0.2677165354330709,
                    "duration": 0.11601825000002464
                },
                {
                    "name": "F3",
                    "midi": 53,
                    "time": 300.48726750000503,
                    "velocity": 0.2283464566929134,
                    "duration": 0.11601825000002464
                },
                {
                    "name": "D#3",
                    "midi": 51,
                    "time": 300.7193040000051,
                    "velocity": 0.31496062992125984,
                    "duration": 0.11601825000002464
                },
                {
                    "name": "A#3",
                    "midi": 58,
                    "time": 300.9513405000051,
                    "velocity": 0.2677165354330709,
                    "duration": 0.11601825000002464
                },
                {
                    "name": "G3",
                    "midi": 55,
                    "time": 300.9513405000051,
                    "velocity": 0.2283464566929134,
                    "duration": 0.11601825000002464
                },
                {
                    "name": "D3",
                    "midi": 50,
                    "time": 301.18337700000507,
                    "velocity": 0.2677165354330709,
                    "duration": 0.11601825000002464
                },
                {
                    "name": "A#3",
                    "midi": 58,
                    "time": 301.4154135000051,
                    "velocity": 0.2283464566929134,
                    "duration": 0.11601825000002464
                },
                {
                    "name": "G3",
                    "midi": 55,
                    "time": 301.4154135000051,
                    "velocity": 0.2283464566929134,
                    "duration": 0.11601825000002464
                },
                {
                    "name": "C3",
                    "midi": 48,
                    "time": 301.64745000000516,
                    "velocity": 0.25984251968503935,
                    "duration": 0.11601825000002464
                },
                {
                    "name": "C4",
                    "midi": 60,
                    "time": 301.8794865000052,
                    "velocity": 0.2283464566929134,
                    "duration": 0.11601825000002464
                },
                {
                    "name": "G#3",
                    "midi": 56,
                    "time": 301.8794865000052,
                    "velocity": 0.2283464566929134,
                    "duration": 0.11601825000002464
                },
                {
                    "name": "D#3",
                    "midi": 51,
                    "time": 302.11152300000526,
                    "velocity": 0.2283464566929134,
                    "duration": 0.11601825000002464
                },
                {
                    "name": "C4",
                    "midi": 60,
                    "time": 302.3435595000053,
                    "velocity": 0.2283464566929134,
                    "duration": 0.11601825000002464
                },
                {
                    "name": "G#3",
                    "midi": 56,
                    "time": 302.3435595000053,
                    "velocity": 0.2283464566929134,
                    "duration": 0.11601825000002464
                },
                {
                    "name": "C3",
                    "midi": 48,
                    "time": 302.57559600000536,
                    "velocity": 0.25984251968503935,
                    "duration": 0.11601824999996779
                },
                {
                    "name": "G#3",
                    "midi": 56,
                    "time": 302.80763250000535,
                    "velocity": 0.2204724409448819,
                    "duration": 0.11601825000002464
                },
                {
                    "name": "C4",
                    "midi": 60,
                    "time": 302.80763250000535,
                    "velocity": 0.2204724409448819,
                    "duration": 0.11601825000002464
                },
                {
                    "name": "D#3",
                    "midi": 51,
                    "time": 303.0396690000054,
                    "velocity": 0.2283464566929134,
                    "duration": 0.11601825000002464
                },
                {
                    "name": "C4",
                    "midi": 60,
                    "time": 303.27170550000545,
                    "velocity": 0.2283464566929134,
                    "duration": 0.11601825000002464
                },
                {
                    "name": "G#3",
                    "midi": 56,
                    "time": 303.27170550000545,
                    "velocity": 0.2283464566929134,
                    "duration": 0.11601825000002464
                },
                {
                    "name": "C#3",
                    "midi": 49,
                    "time": 303.5037420000055,
                    "velocity": 0.25984251968503935,
                    "duration": 0.23203649999999243
                },
                {
                    "name": "G3",
                    "midi": 55,
                    "time": 303.7357785000055,
                    "velocity": 0.2283464566929134,
                    "duration": 0.23203649999999243
                },
                {
                    "name": "A#3",
                    "midi": 58,
                    "time": 303.7357785000055,
                    "velocity": 0.2283464566929134,
                    "duration": 0.23203649999999243
                },
                {
                    "name": "D#3",
                    "midi": 51,
                    "time": 303.9678150000055,
                    "velocity": 0.2283464566929134,
                    "duration": 0.23203649999999243
                },
                {
                    "name": "A#3",
                    "midi": 58,
                    "time": 304.1998515000055,
                    "velocity": 0.2283464566929134,
                    "duration": 0.23203649999999243
                },
                {
                    "name": "G3",
                    "midi": 55,
                    "time": 304.1998515000055,
                    "velocity": 0.2283464566929134,
                    "duration": 0.23203649999999243
                },
                {
                    "name": "C#3",
                    "midi": 49,
                    "time": 304.4318880000055,
                    "velocity": 0.25984251968503935,
                    "duration": 0.23203649999999243
                },
                {
                    "name": "G3",
                    "midi": 55,
                    "time": 304.66392450000546,
                    "velocity": 0.2204724409448819,
                    "duration": 0.23203649999999243
                },
                {
                    "name": "A#3",
                    "midi": 58,
                    "time": 304.66392450000546,
                    "velocity": 0.2204724409448819,
                    "duration": 0.23203649999999243
                },
                {
                    "name": "D#3",
                    "midi": 51,
                    "time": 304.89596100000546,
                    "velocity": 0.2283464566929134,
                    "duration": 0.1740273749999801
                },
                {
                    "name": "A#3",
                    "midi": 58,
                    "time": 305.12799750000545,
                    "velocity": 0.2283464566929134,
                    "duration": 0.1740273749999801
                },
                {
                    "name": "G3",
                    "midi": 55,
                    "time": 305.12799750000545,
                    "velocity": 0.2283464566929134,
                    "duration": 0.1740273749999801
                },
                {
                    "name": "C3",
                    "midi": 48,
                    "time": 305.36003400000544,
                    "velocity": 0.2440944881889764,
                    "duration": 0.23203649999999243
                },
                {
                    "name": "G#3",
                    "midi": 56,
                    "time": 305.59207050000543,
                    "velocity": 0.18110236220472442,
                    "duration": 0.23203649999999243
                },
                {
                    "name": "C4",
                    "midi": 60,
                    "time": 305.59207050000543,
                    "velocity": 0.2125984251968504,
                    "duration": 0.23203649999999243
                },
                {
                    "name": "D#3",
                    "midi": 51,
                    "time": 305.8241070000054,
                    "velocity": 0.2125984251968504,
                    "duration": 0.23203649999999243
                },
                {
                    "name": "C4",
                    "midi": 60,
                    "time": 306.0561435000054,
                    "velocity": 0.2125984251968504,
                    "duration": 0.23203649999999243
                },
                {
                    "name": "G#3",
                    "midi": 56,
                    "time": 306.0561435000054,
                    "velocity": 0.18110236220472442,
                    "duration": 0.23203649999999243
                },
                {
                    "name": "C3",
                    "midi": 48,
                    "time": 306.2881800000054,
                    "velocity": 0.25196850393700787,
                    "duration": 0.23203649999999243
                },
                {
                    "name": "C4",
                    "midi": 60,
                    "time": 306.5202165000054,
                    "velocity": 0.2125984251968504,
                    "duration": 0.23203649999999243
                },
                {
                    "name": "G#3",
                    "midi": 56,
                    "time": 306.5202165000054,
                    "velocity": 0.18110236220472442,
                    "duration": 0.23203649999999243
                },
                {
                    "name": "D#3",
                    "midi": 51,
                    "time": 306.7522530000054,
                    "velocity": 0.25196850393700787,
                    "duration": 0.11601825000002464
                },
                {
                    "name": "G#3",
                    "midi": 56,
                    "time": 306.98428950000545,
                    "velocity": 0.18110236220472442,
                    "duration": 0.11601825000002464
                },
                {
                    "name": "C4",
                    "midi": 60,
                    "time": 306.98428950000545,
                    "velocity": 0.2125984251968504,
                    "duration": 0.11601825000002464
                },
                {
                    "name": "C#3",
                    "midi": 49,
                    "time": 307.2163260000055,
                    "velocity": 0.25196850393700787,
                    "duration": 0.23203649999999243
                },
                {
                    "name": "A#3",
                    "midi": 58,
                    "time": 307.4483625000055,
                    "velocity": 0.2283464566929134,
                    "duration": 0.11601825000002464
                },
                {
                    "name": "G3",
                    "midi": 55,
                    "time": 307.4483625000055,
                    "velocity": 0.2283464566929134,
                    "duration": 0.11601825000002464
                },
                {
                    "name": "D#3",
                    "midi": 51,
                    "time": 307.68039900000554,
                    "velocity": 0.25196850393700787,
                    "duration": 0.23203649999999243
                },
                {
                    "name": "A#3",
                    "midi": 58,
                    "time": 307.91243550000553,
                    "velocity": 0.2283464566929134,
                    "duration": 0.23203649999999243
                },
                {
                    "name": "G3",
                    "midi": 55,
                    "time": 307.91243550000553,
                    "velocity": 0.2283464566929134,
                    "duration": 0.23203649999999243
                },
                {
                    "name": "C#3",
                    "midi": 49,
                    "time": 308.1444720000055,
                    "velocity": 0.2677165354330709,
                    "duration": 0.23203649999999243
                },
                {
                    "name": "A#3",
                    "midi": 58,
                    "time": 308.3765085000055,
                    "velocity": 0.2283464566929134,
                    "duration": 0.11601824999996779
                },
                {
                    "name": "G3",
                    "midi": 55,
                    "time": 308.3765085000055,
                    "velocity": 0.2283464566929134,
                    "duration": 0.11601824999996779
                },
                {
                    "name": "D#3",
                    "midi": 51,
                    "time": 308.6085450000055,
                    "velocity": 0.2440944881889764,
                    "duration": 0.11601825000002464
                },
                {
                    "name": "A#3",
                    "midi": 58,
                    "time": 308.84058150000556,
                    "velocity": 0.2677165354330709,
                    "duration": 0.11601825000002464
                },
                {
                    "name": "G3",
                    "midi": 55,
                    "time": 308.84058150000556,
                    "velocity": 0.2677165354330709,
                    "duration": 0.11601825000002464
                },
                {
                    "name": "C3",
                    "midi": 48,
                    "time": 309.0726180000056,
                    "velocity": 0.29133858267716534,
                    "duration": 0.23203649999999243
                },
                {
                    "name": "G#3",
                    "midi": 56,
                    "time": 309.3046545000056,
                    "velocity": 0.2125984251968504,
                    "duration": 0.23203649999999243
                },
                {
                    "name": "C4",
                    "midi": 60,
                    "time": 309.3046545000056,
                    "velocity": 0.25196850393700787,
                    "duration": 0.23203649999999243
                },
                {
                    "name": "D#3",
                    "midi": 51,
                    "time": 309.5366910000056,
                    "velocity": 0.25196850393700787,
                    "duration": 0.23203649999999243
                },
                {
                    "name": "G#3",
                    "midi": 56,
                    "time": 309.7687275000056,
                    "velocity": 0.2125984251968504,
                    "duration": 0.23203649999999243
                },
                {
                    "name": "C4",
                    "midi": 60,
                    "time": 309.7687275000056,
                    "velocity": 0.25196850393700787,
                    "duration": 0.23203649999999243
                },
                {
                    "name": "C3",
                    "midi": 48,
                    "time": 310.0007640000056,
                    "velocity": 0.29133858267716534,
                    "duration": 0.23203649999999243
                },
                {
                    "name": "C4",
                    "midi": 60,
                    "time": 310.23280050000557,
                    "velocity": 0.25196850393700787,
                    "duration": 0.23203649999999243
                },
                {
                    "name": "G#3",
                    "midi": 56,
                    "time": 310.23280050000557,
                    "velocity": 0.2125984251968504,
                    "duration": 0.23203649999999243
                },
                {
                    "name": "D#3",
                    "midi": 51,
                    "time": 310.46483700000556,
                    "velocity": 0.25196850393700787,
                    "duration": 0.23203649999999243
                },
                {
                    "name": "C4",
                    "midi": 60,
                    "time": 310.69687350000555,
                    "velocity": 0.25196850393700787,
                    "duration": 0.23203649999999243
                },
                {
                    "name": "G#3",
                    "midi": 56,
                    "time": 310.69687350000555,
                    "velocity": 0.2125984251968504,
                    "duration": 0.23203649999999243
                },
                {
                    "name": "C#3",
                    "midi": 49,
                    "time": 310.92891000000554,
                    "velocity": 0.29133858267716534,
                    "duration": 0.23203649999999243
                },
                {
                    "name": "A#3",
                    "midi": 58,
                    "time": 311.16094650000554,
                    "velocity": 0.25196850393700787,
                    "duration": 0.23203649999999243
                },
                {
                    "name": "G3",
                    "midi": 55,
                    "time": 311.16094650000554,
                    "velocity": 0.2125984251968504,
                    "duration": 0.23203649999999243
                },
                {
                    "name": "E3",
                    "midi": 52,
                    "time": 311.39298300000553,
                    "velocity": 0.25196850393700787,
                    "duration": 0.23203649999999243
                },
                {
                    "name": "A#3",
                    "midi": 58,
                    "time": 311.6250195000055,
                    "velocity": 0.25196850393700787,
                    "duration": 0.23203649999999243
                },
                {
                    "name": "G3",
                    "midi": 55,
                    "time": 311.6250195000055,
                    "velocity": 0.2125984251968504,
                    "duration": 0.23203649999999243
                },
                {
                    "name": "C#3",
                    "midi": 49,
                    "time": 311.8570560000055,
                    "velocity": 0.29133858267716534,
                    "duration": 0.23203649999999243
                },
                {
                    "name": "A#3",
                    "midi": 58,
                    "time": 312.0890925000055,
                    "velocity": 0.25196850393700787,
                    "duration": 0.23203649999999243
                },
                {
                    "name": "G3",
                    "midi": 55,
                    "time": 312.0890925000055,
                    "velocity": 0.2125984251968504,
                    "duration": 0.23203649999999243
                },
                {
                    "name": "E3",
                    "midi": 52,
                    "time": 312.3211290000055,
                    "velocity": 0.28346456692913385,
                    "duration": 0.23203649999999243
                },
                {
                    "name": "A#3",
                    "midi": 58,
                    "time": 312.5531655000055,
                    "velocity": 0.30708661417322836,
                    "duration": 0.23203649999999243
                },
                {
                    "name": "G3",
                    "midi": 55,
                    "time": 312.5531655000055,
                    "velocity": 0.25196850393700787,
                    "duration": 0.23203649999999243
                },
                {
                    "name": "D3",
                    "midi": 50,
                    "time": 312.7852020000055,
                    "velocity": 0.3464566929133858,
                    "duration": 0.23203649999999243
                },
                {
                    "name": "D4",
                    "midi": 62,
                    "time": 313.0172385000055,
                    "velocity": 0.2992125984251969,
                    "duration": 0.23203649999999243
                },
                {
                    "name": "A#3",
                    "midi": 58,
                    "time": 313.0172385000055,
                    "velocity": 0.2440944881889764,
                    "duration": 0.23203649999999243
                },
                {
                    "name": "F3",
                    "midi": 53,
                    "time": 313.24927500000547,
                    "velocity": 0.2992125984251969,
                    "duration": 0.23203649999999243
                },
                {
                    "name": "D4",
                    "midi": 62,
                    "time": 313.48131150000546,
                    "velocity": 0.2992125984251969,
                    "duration": 0.23203649999999243
                },
                {
                    "name": "A#3",
                    "midi": 58,
                    "time": 313.48131150000546,
                    "velocity": 0.2440944881889764,
                    "duration": 0.23203649999999243
                },
                {
                    "name": "D3",
                    "midi": 50,
                    "time": 313.71334800000545,
                    "velocity": 0.3779527559055118,
                    "duration": 0.23203649999999243
                },
                {
                    "name": "D4",
                    "midi": 62,
                    "time": 313.94538450000545,
                    "velocity": 0.29133858267716534,
                    "duration": 0.23203649999999243
                },
                {
                    "name": "A#3",
                    "midi": 58,
                    "time": 313.94538450000545,
                    "velocity": 0.2440944881889764,
                    "duration": 0.23203649999999243
                },
                {
                    "name": "F3",
                    "midi": 53,
                    "time": 314.17742100000544,
                    "velocity": 0.29133858267716534,
                    "duration": 0.23203649999999243
                },
                {
                    "name": "D4",
                    "midi": 62,
                    "time": 314.40945750000543,
                    "velocity": 0.29133858267716534,
                    "duration": 0.23203649999999243
                },
                {
                    "name": "A#3",
                    "midi": 58,
                    "time": 314.40945750000543,
                    "velocity": 0.2440944881889764,
                    "duration": 0.23203649999999243
                },
                {
                    "name": "D#3",
                    "midi": 51,
                    "time": 314.6414940000054,
                    "velocity": 0.3937007874015748,
                    "duration": 0.23203649999999243
                },
                {
                    "name": "D#4",
                    "midi": 63,
                    "time": 314.8735305000054,
                    "velocity": 0.31496062992125984,
                    "duration": 0.23203649999999243
                },
                {
                    "name": "C4",
                    "midi": 60,
                    "time": 314.8735305000054,
                    "velocity": 0.2677165354330709,
                    "duration": 0.23203649999999243
                },
                {
                    "name": "G3",
                    "midi": 55,
                    "time": 315.1055670000054,
                    "velocity": 0.29133858267716534,
                    "duration": 0.23203649999999243
                },
                {
                    "name": "D#4",
                    "midi": 63,
                    "time": 315.3376035000054,
                    "velocity": 0.29133858267716534,
                    "duration": 0.23203649999999243
                },
                {
                    "name": "C4",
                    "midi": 60,
                    "time": 315.3376035000054,
                    "velocity": 0.2440944881889764,
                    "duration": 0.23203649999999243
                },
                {
                    "name": "F3",
                    "midi": 53,
                    "time": 315.5696400000054,
                    "velocity": 0.3464566929133858,
                    "duration": 0.23203649999999243
                },
                {
                    "name": "D4",
                    "midi": 62,
                    "time": 315.8016765000054,
                    "velocity": 0.2677165354330709,
                    "duration": 0.23203649999999243
                },
                {
                    "name": "A#3",
                    "midi": 58,
                    "time": 315.8016765000054,
                    "velocity": 0.2204724409448819,
                    "duration": 0.23203649999999243
                },
                {
                    "name": "F3",
                    "midi": 53,
                    "time": 316.0337130000054,
                    "velocity": 0.2677165354330709,
                    "duration": 0.23203649999999243
                },
                {
                    "name": "D#4",
                    "midi": 63,
                    "time": 316.26574950000537,
                    "velocity": 0.2677165354330709,
                    "duration": 0.23203649999999243
                },
                {
                    "name": "A3",
                    "midi": 57,
                    "time": 316.26574950000537,
                    "velocity": 0.2204724409448819,
                    "duration": 0.23203649999999243
                },
                {
                    "name": "A#2",
                    "midi": 46,
                    "time": 316.49778600000536,
                    "velocity": 0.2992125984251969,
                    "duration": 0.23203649999999243
                },
                {
                    "name": "D4",
                    "midi": 62,
                    "time": 316.72982250000535,
                    "velocity": 0.23622047244094488,
                    "duration": 0.23203649999999243
                },
                {
                    "name": "A#3",
                    "midi": 58,
                    "time": 316.72982250000535,
                    "velocity": 0.1968503937007874,
                    "duration": 0.23203649999999243
                },
                {
                    "name": "D3",
                    "midi": 50,
                    "time": 316.96185900000535,
                    "velocity": 0.23622047244094488,
                    "duration": 0.23203649999999243
                },
                {
                    "name": "D4",
                    "midi": 62,
                    "time": 317.19389550000534,
                    "velocity": 0.23622047244094488,
                    "duration": 0.23203649999999243
                },
                {
                    "name": "A#3",
                    "midi": 58,
                    "time": 317.19389550000534,
                    "velocity": 0.1968503937007874,
                    "duration": 0.23203649999999243
                },
                {
                    "name": "F3",
                    "midi": 53,
                    "time": 317.42593200000533,
                    "velocity": 0.28346456692913385,
                    "duration": 0.23203649999999243
                },
                {
                    "name": "D4",
                    "midi": 62,
                    "time": 317.6579685000053,
                    "velocity": 0.23622047244094488,
                    "duration": 0.23203649999999243
                },
                {
                    "name": "A#3",
                    "midi": 58,
                    "time": 317.6579685000053,
                    "velocity": 0.1968503937007874,
                    "duration": 0.23203649999999243
                },
                {
                    "name": "F#3",
                    "midi": 54,
                    "time": 317.8900050000053,
                    "velocity": 0.23622047244094488,
                    "duration": 0.23203649999999243
                },
                {
                    "name": "D4",
                    "midi": 62,
                    "time": 318.1220415000053,
                    "velocity": 0.2440944881889764,
                    "duration": 0.23203649999999243
                },
                {
                    "name": "C4",
                    "midi": 60,
                    "time": 318.1220415000053,
                    "velocity": 0.2047244094488189,
                    "duration": 0.23203649999999243
                },
                {
                    "name": "D4",
                    "midi": 62,
                    "time": 318.3540780000053,
                    "velocity": 0.2677165354330709,
                    "duration": 0.23203649999999243
                },
                {
                    "name": "B3",
                    "midi": 59,
                    "time": 318.3540780000053,
                    "velocity": 0.2283464566929134,
                    "duration": 0.23203649999999243
                },
                {
                    "name": "G3",
                    "midi": 55,
                    "time": 318.3540780000053,
                    "velocity": 0.2283464566929134,
                    "duration": 0.23203649999999243
                },
                {
                    "name": "G3",
                    "midi": 55,
                    "time": 318.8181510000053,
                    "velocity": 0.6141732283464567,
                    "duration": 1.3922190000000114
                },
                {
                    "name": "G4",
                    "midi": 67,
                    "time": 318.8181510000053,
                    "velocity": 0.7401574803149606,
                    "duration": 1.3922190000000114
                },
                {
                    "name": "G3",
                    "midi": 55,
                    "time": 320.2103700000053,
                    "velocity": 0.33070866141732286,
                    "duration": 0.23203649999999243
                },
                {
                    "name": "G4",
                    "midi": 67,
                    "time": 320.4424065000053,
                    "velocity": 0.2440944881889764,
                    "duration": 0.11601825000002464
                },
                {
                    "name": "F4",
                    "midi": 65,
                    "time": 320.67444300000534,
                    "velocity": 0.2440944881889764,
                    "duration": 0.11601825000002464
                },
                {
                    "name": "D4",
                    "midi": 62,
                    "time": 320.67444300000534,
                    "velocity": 0.2047244094488189,
                    "duration": 0.11601825000002464
                },
                {
                    "name": "G4",
                    "midi": 67,
                    "time": 320.9064795000054,
                    "velocity": 0.25196850393700787,
                    "duration": 0.11601825000002464
                },
                {
                    "name": "G3",
                    "midi": 55,
                    "time": 321.13851600000544,
                    "velocity": 0.3464566929133858,
                    "duration": 0.23203649999999243
                },
                {
                    "name": "G4",
                    "midi": 67,
                    "time": 321.37055250000543,
                    "velocity": 0.2440944881889764,
                    "duration": 0.23203649999999243
                },
                {
                    "name": "C4",
                    "midi": 60,
                    "time": 321.6025890000054,
                    "velocity": 0.2283464566929134,
                    "duration": 0.23203649999999243
                },
                {
                    "name": "D#4",
                    "midi": 63,
                    "time": 321.6025890000054,
                    "velocity": 0.2755905511811024,
                    "duration": 0.23203649999999243
                },
                {
                    "name": "G4",
                    "midi": 67,
                    "time": 321.8346255000054,
                    "velocity": 0.25196850393700787,
                    "duration": 0.23203649999999243
                },
                {
                    "name": "G3",
                    "midi": 55,
                    "time": 322.0666620000054,
                    "velocity": 0.33070866141732286,
                    "duration": 0.23203649999999243
                },
                {
                    "name": "G4",
                    "midi": 67,
                    "time": 322.2986985000054,
                    "velocity": 0.2440944881889764,
                    "duration": 0.11601825000002464
                },
                {
                    "name": "F4",
                    "midi": 65,
                    "time": 322.53073500000545,
                    "velocity": 0.2440944881889764,
                    "duration": 0.11601825000002464
                },
                {
                    "name": "D4",
                    "midi": 62,
                    "time": 322.53073500000545,
                    "velocity": 0.2047244094488189,
                    "duration": 0.11601825000002464
                },
                {
                    "name": "G4",
                    "midi": 67,
                    "time": 322.7627715000055,
                    "velocity": 0.2283464566929134,
                    "duration": 0.11601825000002464
                },
                {
                    "name": "G3",
                    "midi": 55,
                    "time": 322.99480800000555,
                    "velocity": 0.3464566929133858,
                    "duration": 0.23203649999999243
                },
                {
                    "name": "G4",
                    "midi": 67,
                    "time": 323.22684450000554,
                    "velocity": 0.25196850393700787,
                    "duration": 0.11601825000002464
                },
                {
                    "name": "F#3",
                    "midi": 54,
                    "time": 323.4588810000056,
                    "velocity": 0.2283464566929134,
                    "duration": 0.11601825000002464
                },
                {
                    "name": "C4",
                    "midi": 60,
                    "time": 323.4588810000056,
                    "velocity": 0.2283464566929134,
                    "duration": 0.11601825000002464
                },
                {
                    "name": "D#4",
                    "midi": 63,
                    "time": 323.4588810000056,
                    "velocity": 0.2755905511811024,
                    "duration": 0.11601825000002464
                },
                {
                    "name": "F#4",
                    "midi": 66,
                    "time": 323.69091750000564,
                    "velocity": 0.2755905511811024,
                    "duration": 0.23203649999999243
                },
                {
                    "name": "F3",
                    "midi": 53,
                    "time": 323.92295400000563,
                    "velocity": 0.33070866141732286,
                    "duration": 0.23203649999999243
                },
                {
                    "name": "F4",
                    "midi": 65,
                    "time": 324.1549905000056,
                    "velocity": 0.2755905511811024,
                    "duration": 0.11601825000002464
                },
                {
                    "name": "D4",
                    "midi": 62,
                    "time": 324.3870270000057,
                    "velocity": 0.2755905511811024,
                    "duration": 0.11601825000002464
                },
                {
                    "name": "F4",
                    "midi": 65,
                    "time": 324.6190635000057,
                    "velocity": 0.28346456692913385,
                    "duration": 0.11601825000002464
                },
                {
                    "name": "G3",
                    "midi": 55,
                    "time": 324.8511000000058,
                    "velocity": 0.33070866141732286,
                    "duration": 0.23203649999999243
                },
                {
                    "name": "E4",
                    "midi": 64,
                    "time": 325.08313650000576,
                    "velocity": 0.28346456692913385,
                    "duration": 0.11601825000002464
                },
                {
                    "name": "C4",
                    "midi": 60,
                    "time": 325.3151730000058,
                    "velocity": 0.28346456692913385,
                    "duration": 0.11601825000002464
                },
                {
                    "name": "E4",
                    "midi": 64,
                    "time": 325.54720950000586,
                    "velocity": 0.28346456692913385,
                    "duration": 0.11601825000002464
                },
                {
                    "name": "D4",
                    "midi": 62,
                    "time": 325.7792460000059,
                    "velocity": 0.33070866141732286,
                    "duration": 0.23203649999999243
                },
                {
                    "name": "F3",
                    "midi": 53,
                    "time": 325.7792460000059,
                    "velocity": 0.2755905511811024,
                    "duration": 0.23203649999999243
                },
                {
                    "name": "F4",
                    "midi": 65,
                    "time": 326.0112825000059,
                    "velocity": 0.25984251968503935,
                    "duration": 0.23203649999999243
                },
                {
                    "name": "A3",
                    "midi": 57,
                    "time": 326.2433190000059,
                    "velocity": 0.2755905511811024,
                    "duration": 0.11601825000002464
                },
                {
                    "name": "F3",
                    "midi": 53,
                    "time": 326.2433190000059,
                    "velocity": 0.2283464566929134,
                    "duration": 0.11601825000002464
                },
                {
                    "name": "D#4",
                    "midi": 63,
                    "time": 326.47535550000595,
                    "velocity": 0.2677165354330709,
                    "duration": 0.11601825000002464
                },
                {
                    "name": "D4",
                    "midi": 62,
                    "time": 326.707392000006,
                    "velocity": 0.33070866141732286,
                    "duration": 0.23203649999999243
                },
                {
                    "name": "A#3",
                    "midi": 58,
                    "time": 326.707392000006,
                    "velocity": 0.33070866141732286,
                    "duration": 0.23203649999999243
                },
                {
                    "name": "F4",
                    "midi": 65,
                    "time": 326.939428500006,
                    "velocity": 0.2992125984251969,
                    "duration": 0.23203649999999243
                },
                {
                    "name": "D4",
                    "midi": 62,
                    "time": 327.171465000006,
                    "velocity": 0.2992125984251969,
                    "duration": 0.23203649999999243
                },
                {
                    "name": "A#3",
                    "midi": 58,
                    "time": 327.403501500006,
                    "velocity": 0.2992125984251969,
                    "duration": 0.23203649999999243
                },
                {
                    "name": "G3",
                    "midi": 55,
                    "time": 327.63553800000597,
                    "velocity": 0.33858267716535434,
                    "duration": 0.23203649999999243
                },
                {
                    "name": "E4",
                    "midi": 64,
                    "time": 327.86757450000596,
                    "velocity": 0.29133858267716534,
                    "duration": 0.11601825000002464
                },
                {
                    "name": "A#3",
                    "midi": 58,
                    "time": 328.099611000006,
                    "velocity": 0.30708661417322836,
                    "duration": 0.23203649999999243
                },
                {
                    "name": "E4",
                    "midi": 64,
                    "time": 328.331647500006,
                    "velocity": 0.33070866141732286,
                    "duration": 0.23203649999999243
                },
                {
                    "name": "F3",
                    "midi": 53,
                    "time": 328.563684000006,
                    "velocity": 0.2755905511811024,
                    "duration": 0.23203649999999243
                },
                {
                    "name": "F4",
                    "midi": 65,
                    "time": 328.795720500006,
                    "velocity": 0.25984251968503935,
                    "duration": 0.23203649999999243
                },
                {
                    "name": "A3",
                    "midi": 57,
                    "time": 329.027757000006,
                    "velocity": 0.2755905511811024,
                    "duration": 0.11601825000002464
                },
                {
                    "name": "F4",
                    "midi": 65,
                    "time": 329.259793500006,
                    "velocity": 0.2677165354330709,
                    "duration": 0.11601825000002464
                },
                {
                    "name": "G3",
                    "midi": 55,
                    "time": 329.4918300000061,
                    "velocity": 0.33858267716535434,
                    "duration": 0.23203649999999243
                },
                {
                    "name": "E4",
                    "midi": 64,
                    "time": 329.72386650000607,
                    "velocity": 0.2755905511811024,
                    "duration": 0.11601825000002464
                },
                {
                    "name": "A#3",
                    "midi": 58,
                    "time": 329.9559030000061,
                    "velocity": 0.2755905511811024,
                    "duration": 0.23203649999999243
                },
                {
                    "name": "E4",
                    "midi": 64,
                    "time": 330.1879395000061,
                    "velocity": 0.28346456692913385,
                    "duration": 0.23203649999999243
                },
                {
                    "name": "F3",
                    "midi": 53,
                    "time": 330.4199760000061,
                    "velocity": 0.2283464566929134,
                    "duration": 0.4640730000000417
                },
                {
                    "name": "A3",
                    "midi": 57,
                    "time": 330.4199760000061,
                    "velocity": 0.2283464566929134,
                    "duration": 0.4640730000000417
                },
                {
                    "name": "F4",
                    "midi": 65,
                    "time": 330.4199760000061,
                    "velocity": 0.2755905511811024,
                    "duration": 0.4640730000000417
                },
                {
                    "name": "C4",
                    "midi": 60,
                    "time": 331.5801585000061,
                    "velocity": 0.30708661417322836,
                    "duration": 0.11601825000002464
                },
                {
                    "name": "A3",
                    "midi": 57,
                    "time": 331.81219500000617,
                    "velocity": 0.33858267716535434,
                    "duration": 0.11601825000002464
                },
                {
                    "name": "G3",
                    "midi": 55,
                    "time": 332.0442315000062,
                    "velocity": 0.3700787401574803,
                    "duration": 0.11601825000002464
                },
                {
                    "name": "F3",
                    "midi": 53,
                    "time": 332.27626800000627,
                    "velocity": 0.3937007874015748,
                    "duration": 0.11601825000002464
                },
                {
                    "name": "D#3",
                    "midi": 51,
                    "time": 332.5083045000063,
                    "velocity": 0.36220472440944884,
                    "duration": 0.11601825000002464
                },
                {
                    "name": "D3",
                    "midi": 50,
                    "time": 332.74034100000637,
                    "velocity": 0.33858267716535434,
                    "duration": 0.11601825000002464
                },
                {
                    "name": "C3",
                    "midi": 48,
                    "time": 332.9723775000064,
                    "velocity": 0.30708661417322836,
                    "duration": 0.11601825000002464
                },
                {
                    "name": "A#1",
                    "midi": 34,
                    "time": 333.43645050000646,
                    "velocity": 0.25984251968503935,
                    "duration": 0.11601825000002464
                },
                {
                    "name": "A#2",
                    "midi": 46,
                    "time": 333.9005235000065,
                    "velocity": 0.25984251968503935,
                    "duration": 0.11601825000002464
                },
                {
                    "name": "D3",
                    "midi": 50,
                    "time": 334.3645965000066,
                    "velocity": 0.25984251968503935,
                    "duration": 0.11601825000002464
                },
                {
                    "name": "D#3",
                    "midi": 51,
                    "time": 334.82866950000664,
                    "velocity": 0.25984251968503935,
                    "duration": 0.11601825000002464
                },
                {
                    "name": "G3",
                    "midi": 55,
                    "time": 335.2927425000067,
                    "velocity": 0.25984251968503935,
                    "duration": 0.23203649999999243
                },
                {
                    "name": "A#3",
                    "midi": 58,
                    "time": 335.75681550000667,
                    "velocity": 0.25984251968503935,
                    "duration": 0.23203649999999243
                },
                {
                    "name": "D4",
                    "midi": 62,
                    "time": 336.22088850000665,
                    "velocity": 0.25984251968503935,
                    "duration": 0.23203649999999243
                },
                {
                    "name": "F2",
                    "midi": 41,
                    "time": 336.68496150000664,
                    "velocity": 0.25984251968503935,
                    "duration": 0.23203649999999243
                },
                {
                    "name": "G2",
                    "midi": 43,
                    "time": 337.1490345000066,
                    "velocity": 0.25984251968503935,
                    "duration": 0.23203649999999243
                },
                {
                    "name": "A#2",
                    "midi": 46,
                    "time": 337.6131075000066,
                    "velocity": 0.25984251968503935,
                    "duration": 0.23203649999999243
                },
                {
                    "name": "D3",
                    "midi": 50,
                    "time": 338.0771805000066,
                    "velocity": 0.25984251968503935,
                    "duration": 0.23203649999999243
                },
                {
                    "name": "F#3",
                    "midi": 54,
                    "time": 338.5412535000066,
                    "velocity": 0.25984251968503935,
                    "duration": 0.23203649999999243
                },
                {
                    "name": "G3",
                    "midi": 55,
                    "time": 339.00532650000656,
                    "velocity": 0.25984251968503935,
                    "duration": 0.11601825000002464
                },
                {
                    "name": "A3",
                    "midi": 57,
                    "time": 339.2373630000066,
                    "velocity": 0.25984251968503935,
                    "duration": 0.11601825000002464
                },
                {
                    "name": "A#3",
                    "midi": 58,
                    "time": 339.4693995000066,
                    "velocity": 0.25984251968503935,
                    "duration": 0.11601825000002464
                },
                {
                    "name": "C4",
                    "midi": 60,
                    "time": 339.70143600000665,
                    "velocity": 0.25984251968503935,
                    "duration": 0.23203650000004927
                },
                {
                    "name": "F4",
                    "midi": 65,
                    "time": 339.8174542500067,
                    "velocity": 0.2755905511811024,
                    "duration": 0.11601825000002464
                },
                {
                    "name": "C4",
                    "midi": 60,
                    "time": 339.9334725000067,
                    "velocity": 0.2755905511811024,
                    "duration": 0.11601825000002464
                },
                {
                    "name": "F4",
                    "midi": 65,
                    "time": 340.0494907500067,
                    "velocity": 0.2755905511811024,
                    "duration": 0.11601825000002464
                },
                {
                    "name": "C3",
                    "midi": 48,
                    "time": 340.16550900000675,
                    "velocity": 0.25984251968503935,
                    "duration": 0.23203650000004927
                },
                {
                    "name": "E4",
                    "midi": 64,
                    "time": 340.2815272500068,
                    "velocity": 0.25984251968503935,
                    "duration": 0.11601825000002464
                },
                {
                    "name": "A#3",
                    "midi": 58,
                    "time": 340.3975455000068,
                    "velocity": 0.25984251968503935,
                    "duration": 0.11601825000002464
                },
                {
                    "name": "E4",
                    "midi": 64,
                    "time": 340.5135637500068,
                    "velocity": 0.25984251968503935,
                    "duration": 0.11601825000002464
                },
                {
                    "name": "A3",
                    "midi": 57,
                    "time": 340.62958200000685,
                    "velocity": 0.25984251968503935,
                    "duration": 0.11601825000002464
                },
                {
                    "name": "F2",
                    "midi": 41,
                    "time": 340.62958200000685,
                    "velocity": 0.25984251968503935,
                    "duration": 0.11601825000002464
                },
                {
                    "name": "F3",
                    "midi": 53,
                    "time": 340.62958200000685,
                    "velocity": 0.25984251968503935,
                    "duration": 0.11601825000002464
                },
                {
                    "name": "F4",
                    "midi": 65,
                    "time": 340.62958200000685,
                    "velocity": 0.36220472440944884,
                    "duration": 0.11601825000002464
                },
                {
                    "name": "C4",
                    "midi": 60,
                    "time": 340.8616185000069,
                    "velocity": 0.30708661417322836,
                    "duration": 0.11601825000002464
                },
                {
                    "name": "A3",
                    "midi": 57,
                    "time": 341.09365500000695,
                    "velocity": 0.33858267716535434,
                    "duration": 0.11601825000002464
                },
                {
                    "name": "G3",
                    "midi": 55,
                    "time": 341.325691500007,
                    "velocity": 0.3700787401574803,
                    "duration": 0.11601825000002464
                },
                {
                    "name": "F3",
                    "midi": 53,
                    "time": 341.55772800000705,
                    "velocity": 0.3937007874015748,
                    "duration": 0.11601825000002464
                },
                {
                    "name": "D#3",
                    "midi": 51,
                    "time": 341.7897645000071,
                    "velocity": 0.36220472440944884,
                    "duration": 0.11601825000002464
                },
                {
                    "name": "D3",
                    "midi": 50,
                    "time": 342.02180100000714,
                    "velocity": 0.33858267716535434,
                    "duration": 0.11601825000002464
                },
                {
                    "name": "C3",
                    "midi": 48,
                    "time": 342.2538375000072,
                    "velocity": 0.30708661417322836,
                    "duration": 0.11601825000002464
                },
                {
                    "name": "A#1",
                    "midi": 34,
                    "time": 342.71791050000724,
                    "velocity": 0.25984251968503935,
                    "duration": 0.23203649999999243
                },
                {
                    "name": "A#2",
                    "midi": 46,
                    "time": 343.1819835000072,
                    "velocity": 0.25984251968503935,
                    "duration": 0.23203649999999243
                },
                {
                    "name": "D3",
                    "midi": 50,
                    "time": 343.64605650000726,
                    "velocity": 0.25984251968503935,
                    "duration": 0.23203649999999243
                },
                {
                    "name": "D#3",
                    "midi": 51,
                    "time": 344.11012950000725,
                    "velocity": 0.25984251968503935,
                    "duration": 0.23203649999999243
                },
                {
                    "name": "G3",
                    "midi": 55,
                    "time": 344.57420250000723,
                    "velocity": 0.25984251968503935,
                    "duration": 0.23203649999999243
                },
                {
                    "name": "A#3",
                    "midi": 58,
                    "time": 345.0382755000072,
                    "velocity": 0.25984251968503935,
                    "duration": 0.23203649999999243
                },
                {
                    "name": "D4",
                    "midi": 62,
                    "time": 345.5023485000072,
                    "velocity": 0.25984251968503935,
                    "duration": 0.23203649999999243
                },
                {
                    "name": "F2",
                    "midi": 41,
                    "time": 345.96642150000724,
                    "velocity": 0.25984251968503935,
                    "duration": 0.23203649999999243
                },
                {
                    "name": "G2",
                    "midi": 43,
                    "time": 346.4304945000072,
                    "velocity": 0.25984251968503935,
                    "duration": 0.23203649999999243
                },
                {
                    "name": "A#2",
                    "midi": 46,
                    "time": 346.8945675000072,
                    "velocity": 0.25984251968503935,
                    "duration": 0.23203649999999243
                },
                {
                    "name": "D3",
                    "midi": 50,
                    "time": 347.3586405000072,
                    "velocity": 0.25984251968503935,
                    "duration": 0.23203649999999243
                },
                {
                    "name": "F#3",
                    "midi": 54,
                    "time": 347.8227135000072,
                    "velocity": 0.25984251968503935,
                    "duration": 0.23203649999999243
                },
                {
                    "name": "G3",
                    "midi": 55,
                    "time": 348.28678650000717,
                    "velocity": 0.25984251968503935,
                    "duration": 0.11601825000002464
                },
                {
                    "name": "A3",
                    "midi": 57,
                    "time": 348.5188230000072,
                    "velocity": 0.25984251968503935,
                    "duration": 0.11601825000002464
                },
                {
                    "name": "B3",
                    "midi": 59,
                    "time": 348.7508595000072,
                    "velocity": 0.25984251968503935,
                    "duration": 0.11601825000002464
                },
                {
                    "name": "C3",
                    "midi": 48,
                    "time": 348.98289600000726,
                    "velocity": 0.25984251968503935,
                    "duration": 0.23203649999999243
                },
                {
                    "name": "D3",
                    "midi": 50,
                    "time": 349.44696900000724,
                    "velocity": 0.25984251968503935,
                    "duration": 0.23203649999993559
                },
                {
                    "name": "G3",
                    "midi": 55,
                    "time": 350.14307850000716,
                    "velocity": 0.25984251968503935,
                    "duration": 0.23203649999999243
                },
                {
                    "name": "C3",
                    "midi": 48,
                    "time": 350.60715150000715,
                    "velocity": 0.25984251968503935,
                    "duration": 0.23203649999999243
                },
                {
                    "name": "G2",
                    "midi": 43,
                    "time": 351.07122450000713,
                    "velocity": 0.25984251968503935,
                    "duration": 0.23203649999999243
                },
                {
                    "name": "G2",
                    "midi": 43,
                    "time": 351.5352975000072,
                    "velocity": 0.28346456692913385,
                    "duration": 0.23203649999999243
                },
                {
                    "name": "C2",
                    "midi": 36,
                    "time": 351.99937050000716,
                    "velocity": 0.28346456692913385,
                    "duration": 0.23203649999999243
                },
                {
                    "name": "C2",
                    "midi": 36,
                    "time": 352.46344350000714,
                    "velocity": 0.2677165354330709,
                    "duration": 0.23203649999999243
                },
                {
                    "name": "D2",
                    "midi": 38,
                    "time": 352.92751650000713,
                    "velocity": 0.25984251968503935,
                    "duration": 0.23203649999999243
                },
                {
                    "name": "D2",
                    "midi": 38,
                    "time": 353.3915895000071,
                    "velocity": 0.25984251968503935,
                    "duration": 0.23203649999999243
                },
                {
                    "name": "G2",
                    "midi": 43,
                    "time": 353.8556625000071,
                    "velocity": 0.25984251968503935,
                    "duration": 0.23203649999999243
                },
                {
                    "name": "G3",
                    "midi": 55,
                    "time": 354.3197355000071,
                    "velocity": 0.25984251968503935,
                    "duration": 0.23203649999999243
                },
                {
                    "name": "G3",
                    "midi": 55,
                    "time": 354.78380850000707,
                    "velocity": 0.25984251968503935,
                    "duration": 0.23203649999999243
                },
                {
                    "name": "G3",
                    "midi": 55,
                    "time": 355.24788150000705,
                    "velocity": 0.28346456692913385,
                    "duration": 0.23203649999999243
                },
                {
                    "name": "C3",
                    "midi": 48,
                    "time": 355.71195450000704,
                    "velocity": 0.28346456692913385,
                    "duration": 0.23203649999999243
                },
                {
                    "name": "C3",
                    "midi": 48,
                    "time": 356.176027500007,
                    "velocity": 0.2677165354330709,
                    "duration": 0.23203649999999243
                },
                {
                    "name": "D3",
                    "midi": 50,
                    "time": 356.640100500007,
                    "velocity": 0.25984251968503935,
                    "duration": 0.23203649999999243
                },
                {
                    "name": "D3",
                    "midi": 50,
                    "time": 357.10417350000705,
                    "velocity": 0.25984251968503935,
                    "duration": 0.23203649999999243
                },
                {
                    "name": "G3",
                    "midi": 55,
                    "time": 357.33621000000704,
                    "velocity": 0.2283464566929134,
                    "duration": 2.320365000000038
                },
                {
                    "name": "B3",
                    "midi": 59,
                    "time": 357.8002830000071,
                    "velocity": 0.2283464566929134,
                    "duration": 0.4640730000000417
                },
                {
                    "name": "D4",
                    "midi": 62,
                    "time": 358.2643560000071,
                    "velocity": 0.2283464566929134,
                    "duration": 0.46407299999998486
                },
                {
                    "name": "C4",
                    "midi": 60,
                    "time": 358.7284290000071,
                    "velocity": 0.25196850393700787,
                    "duration": 0.46407299999998486
                },
                {
                    "name": "B3",
                    "midi": 59,
                    "time": 359.1925020000071,
                    "velocity": 0.25196850393700787,
                    "duration": 0.46407299999998486
                },
                {
                    "name": "C3",
                    "midi": 48,
                    "time": 359.6565750000071,
                    "velocity": 0.23622047244094488,
                    "duration": 0.46407299999998486
                },
                {
                    "name": "G3",
                    "midi": 55,
                    "time": 359.6565750000071,
                    "velocity": 0.23622047244094488,
                    "duration": 0.46407299999998486
                },
                {
                    "name": "F#3",
                    "midi": 54,
                    "time": 360.12064800000707,
                    "velocity": 0.2283464566929134,
                    "duration": 0.46407299999998486
                },
                {
                    "name": "D3",
                    "midi": 50,
                    "time": 360.12064800000707,
                    "velocity": 0.2283464566929134,
                    "duration": 0.9281459999999697
                },
                {
                    "name": "A3",
                    "midi": 57,
                    "time": 360.58472100000705,
                    "velocity": 0.2283464566929134,
                    "duration": 0.46407299999998486
                },
                {
                    "name": "G3",
                    "midi": 55,
                    "time": 361.04879400000704,
                    "velocity": 0.2283464566929134,
                    "duration": 2.320364999999981
                },
                {
                    "name": "B3",
                    "midi": 59,
                    "time": 361.5128670000071,
                    "velocity": 0.2283464566929134,
                    "duration": 0.46407299999998486
                },
                {
                    "name": "D4",
                    "midi": 62,
                    "time": 361.97694000000706,
                    "velocity": 0.2283464566929134,
                    "duration": 0.23203649999999243
                },
                {
                    "name": "D#4",
                    "midi": 63,
                    "time": 362.20897650000705,
                    "velocity": 0.2047244094488189,
                    "duration": 0.23203649999999243
                },
                {
                    "name": "D4",
                    "midi": 62,
                    "time": 362.44101300000705,
                    "velocity": 0.2283464566929134,
                    "duration": 0.23203649999999243
                },
                {
                    "name": "C4",
                    "midi": 60,
                    "time": 362.67304950000704,
                    "velocity": 0.2125984251968504,
                    "duration": 0.23203649999999243
                },
                {
                    "name": "B3",
                    "midi": 59,
                    "time": 362.90508600000703,
                    "velocity": 0.25196850393700787,
                    "duration": 0.46407299999998486
                },
                {
                    "name": "C3",
                    "midi": 48,
                    "time": 363.369159000007,
                    "velocity": 0.23622047244094488,
                    "duration": 0.46407299999998486
                },
                {
                    "name": "G3",
                    "midi": 55,
                    "time": 363.369159000007,
                    "velocity": 0.23622047244094488,
                    "duration": 0.46407299999998486
                },
                {
                    "name": "F#3",
                    "midi": 54,
                    "time": 363.833232000007,
                    "velocity": 0.2283464566929134,
                    "duration": 0.46407299999998486
                },
                {
                    "name": "D3",
                    "midi": 50,
                    "time": 363.833232000007,
                    "velocity": 0.2283464566929134,
                    "duration": 0.9281459999999697
                },
                {
                    "name": "A3",
                    "midi": 57,
                    "time": 364.297305000007,
                    "velocity": 0.2283464566929134,
                    "duration": 0.46407299999998486
                },
                {
                    "name": "G3",
                    "midi": 55,
                    "time": 364.76137800000697,
                    "velocity": 0.25196850393700787,
                    "duration": 0.9281459999999697
                },
                {
                    "name": "C3",
                    "midi": 48,
                    "time": 365.22545100000696,
                    "velocity": 0.2204724409448819,
                    "duration": 0.46407299999998486
                },
                {
                    "name": "F#3",
                    "midi": 54,
                    "time": 365.68952400000694,
                    "velocity": 0.2047244094488189,
                    "duration": 0.46407299999998486
                },
                {
                    "name": "D3",
                    "midi": 50,
                    "time": 365.68952400000694,
                    "velocity": 0.2047244094488189,
                    "duration": 0.9281459999999697
                },
                {
                    "name": "A3",
                    "midi": 57,
                    "time": 366.1535970000069,
                    "velocity": 0.2047244094488189,
                    "duration": 0.46407299999998486
                },
                {
                    "name": "G2",
                    "midi": 43,
                    "time": 366.6176700000069,
                    "velocity": 0.2047244094488189,
                    "duration": 0.4640730000000417
                },
                {
                    "name": "A#2",
                    "midi": 46,
                    "time": 367.08174300000695,
                    "velocity": 0.2047244094488189,
                    "duration": 0.4640730000000417
                },
                {
                    "name": "D3",
                    "midi": 50,
                    "time": 367.545816000007,
                    "velocity": 0.2047244094488189,
                    "duration": 0.46407299999998486
                },
                {
                    "name": "F3",
                    "midi": 53,
                    "time": 368.009889000007,
                    "velocity": 0.2047244094488189,
                    "duration": 0.4640730000000417
                },
                {
                    "name": "F2",
                    "midi": 41,
                    "time": 368.473962000007,
                    "velocity": 0.2047244094488189,
                    "duration": 0.46407299999998486
                },
                {
                    "name": "G#2",
                    "midi": 44,
                    "time": 368.938035000007,
                    "velocity": 0.2047244094488189,
                    "duration": 0.46407299999998486
                },
                {
                    "name": "C3",
                    "midi": 48,
                    "time": 369.402108000007,
                    "velocity": 0.2047244094488189,
                    "duration": 0.46407299999998486
                },
                {
                    "name": "D#3",
                    "midi": 51,
                    "time": 369.866181000007,
                    "velocity": 0.2047244094488189,
                    "duration": 0.46407299999998486
                },
                {
                    "name": "D#2",
                    "midi": 39,
                    "time": 370.33025400000696,
                    "velocity": 0.2283464566929134,
                    "duration": 0.46407299999998486
                },
                {
                    "name": "G2",
                    "midi": 43,
                    "time": 370.79432700000694,
                    "velocity": 0.23622047244094488,
                    "duration": 0.46407299999998486
                },
                {
                    "name": "A#2",
                    "midi": 46,
                    "time": 371.25840000000693,
                    "velocity": 0.2440944881889764,
                    "duration": 0.46407299999998486
                },
                {
                    "name": "D3",
                    "midi": 50,
                    "time": 371.7224730000069,
                    "velocity": 0.25196850393700787,
                    "duration": 0.46407299999998486
                },
                {
                    "name": "F2",
                    "midi": 41,
                    "time": 372.1865460000069,
                    "velocity": 0.2283464566929134,
                    "duration": 0.46407299999998486
                },
                {
                    "name": "D#2",
                    "midi": 39,
                    "time": 372.6506190000069,
                    "velocity": 0.25196850393700787,
                    "duration": 0.46407299999998486
                },
                {
                    "name": "D2",
                    "midi": 38,
                    "time": 373.11469200000687,
                    "velocity": 0.28346456692913385,
                    "duration": 0.46407299999998486
                },
                {
                    "name": "C2",
                    "midi": 36,
                    "time": 373.57876500000685,
                    "velocity": 0.25196850393700787,
                    "duration": 0.46407299999998486
                },
                {
                    "name": "A#1",
                    "midi": 34,
                    "time": 374.27487450000683,
                    "velocity": 0.25984251968503935,
                    "duration": 0.23203649999999243
                },
                {
                    "name": "A#2",
                    "midi": 46,
                    "time": 374.7389475000068,
                    "velocity": 0.25984251968503935,
                    "duration": 0.23203649999999243
                },
                {
                    "name": "D3",
                    "midi": 50,
                    "time": 375.2030205000068,
                    "velocity": 0.25984251968503935,
                    "duration": 0.23203649999999243
                },
                {
                    "name": "D#3",
                    "midi": 51,
                    "time": 375.66709350000684,
                    "velocity": 0.25984251968503935,
                    "duration": 0.23203649999999243
                },
                {
                    "name": "G3",
                    "midi": 55,
                    "time": 376.1311665000068,
                    "velocity": 0.25984251968503935,
                    "duration": 0.23203649999999243
                },
                {
                    "name": "A#3",
                    "midi": 58,
                    "time": 376.5952395000068,
                    "velocity": 0.25984251968503935,
                    "duration": 0.23203649999999243
                },
                {
                    "name": "D4",
                    "midi": 62,
                    "time": 377.0593125000068,
                    "velocity": 0.25984251968503935,
                    "duration": 0.23203649999999243
                },
                {
                    "name": "F2",
                    "midi": 41,
                    "time": 377.5233855000068,
                    "velocity": 0.25984251968503935,
                    "duration": 0.23203649999999243
                },
                {
                    "name": "G2",
                    "midi": 43,
                    "time": 377.98745850000677,
                    "velocity": 0.25984251968503935,
                    "duration": 0.23203649999999243
                },
                {
                    "name": "A#2",
                    "midi": 46,
                    "time": 378.45153150000675,
                    "velocity": 0.25984251968503935,
                    "duration": 0.23203649999999243
                },
                {
                    "name": "D3",
                    "midi": 50,
                    "time": 378.91560450000674,
                    "velocity": 0.25984251968503935,
                    "duration": 0.23203649999999243
                },
                {
                    "name": "F#3",
                    "midi": 54,
                    "time": 379.3796775000067,
                    "velocity": 0.25984251968503935,
                    "duration": 0.23203649999999243
                },
                {
                    "name": "G3",
                    "midi": 55,
                    "time": 379.8437505000067,
                    "velocity": 0.25984251968503935,
                    "duration": 0.11601825000002464
                },
                {
                    "name": "A3",
                    "midi": 57,
                    "time": 380.07578700000676,
                    "velocity": 0.25984251968503935,
                    "duration": 0.11601825000002464
                },
                {
                    "name": "A#3",
                    "midi": 58,
                    "time": 380.30782350000675,
                    "velocity": 0.25984251968503935,
                    "duration": 0.11601825000002464
                },
                {
                    "name": "D#3",
                    "midi": 51,
                    "time": 380.5398600000068,
                    "velocity": 0.25984251968503935,
                    "duration": 0.23203649999999243
                },
                {
                    "name": "F3",
                    "midi": 53,
                    "time": 381.0039330000068,
                    "velocity": 0.25984251968503935,
                    "duration": 0.23203649999999243
                },
                {
                    "name": "A#3",
                    "midi": 58,
                    "time": 381.70004250000676,
                    "velocity": 0.25984251968503935,
                    "duration": 0.23203649999999243
                },
                {
                    "name": "D#3",
                    "midi": 51,
                    "time": 382.16411550000674,
                    "velocity": 0.25984251968503935,
                    "duration": 0.23203649999999243
                },
                {
                    "name": "A#2",
                    "midi": 46,
                    "time": 382.62818850000673,
                    "velocity": 0.25984251968503935,
                    "duration": 0.23203649999999243
                },
                {
                    "name": "A#2",
                    "midi": 46,
                    "time": 383.0922615000067,
                    "velocity": 0.28346456692913385,
                    "duration": 0.23203649999999243
                },
                {
                    "name": "D#2",
                    "midi": 39,
                    "time": 383.5563345000067,
                    "velocity": 0.28346456692913385,
                    "duration": 0.23203649999999243
                },
                {
                    "name": "D#2",
                    "midi": 39,
                    "time": 384.0204075000067,
                    "velocity": 0.2677165354330709,
                    "duration": 0.23203649999999243
                },
                {
                    "name": "F2",
                    "midi": 41,
                    "time": 384.48448050000667,
                    "velocity": 0.25984251968503935,
                    "duration": 0.23203649999999243
                },
                {
                    "name": "F2",
                    "midi": 41,
                    "time": 384.94855350000665,
                    "velocity": 0.25984251968503935,
                    "duration": 0.23203649999999243
                },
                {
                    "name": "A#2",
                    "midi": 46,
                    "time": 385.41262650000664,
                    "velocity": 0.25984251968503935,
                    "duration": 0.23203649999999243
                },
                {
                    "name": "A#3",
                    "midi": 58,
                    "time": 385.8766995000066,
                    "velocity": 0.25984251968503935,
                    "duration": 0.23203649999999243
                },
                {
                    "name": "A#3",
                    "midi": 58,
                    "time": 386.3407725000066,
                    "velocity": 0.25984251968503935,
                    "duration": 0.23203649999999243
                },
                {
                    "name": "A#3",
                    "midi": 58,
                    "time": 386.8048455000066,
                    "velocity": 0.28346456692913385,
                    "duration": 0.23203649999999243
                },
                {
                    "name": "D#3",
                    "midi": 51,
                    "time": 387.2689185000066,
                    "velocity": 0.28346456692913385,
                    "duration": 0.23203649999999243
                },
                {
                    "name": "D#3",
                    "midi": 51,
                    "time": 387.73299150000656,
                    "velocity": 0.25196850393700787,
                    "duration": 0.23203649999999243
                },
                {
                    "name": "F3",
                    "midi": 53,
                    "time": 388.19706450000655,
                    "velocity": 0.25984251968503935,
                    "duration": 0.23203649999999243
                },
                {
                    "name": "F3",
                    "midi": 53,
                    "time": 388.66113750000653,
                    "velocity": 0.25984251968503935,
                    "duration": 0.23203649999999243
                },
                {
                    "name": "A#3",
                    "midi": 58,
                    "time": 388.8931740000065,
                    "velocity": 0.2283464566929134,
                    "duration": 2.320364999999981
                },
                {
                    "name": "D4",
                    "midi": 62,
                    "time": 389.3572470000065,
                    "velocity": 0.2283464566929134,
                    "duration": 0.46407299999998486
                },
                {
                    "name": "F4",
                    "midi": 65,
                    "time": 389.8213200000065,
                    "velocity": 0.2283464566929134,
                    "duration": 0.46407299999998486
                },
                {
                    "name": "D#4",
                    "midi": 63,
                    "time": 390.2853930000065,
                    "velocity": 0.25196850393700787,
                    "duration": 0.46407299999998486
                },
                {
                    "name": "D4",
                    "midi": 62,
                    "time": 390.74946600000646,
                    "velocity": 0.25196850393700787,
                    "duration": 0.4640730000000417
                },
                {
                    "name": "D#3",
                    "midi": 51,
                    "time": 391.2135390000065,
                    "velocity": 0.23622047244094488,
                    "duration": 0.4640730000000417
                },
                {
                    "name": "A#3",
                    "midi": 58,
                    "time": 391.2135390000065,
                    "velocity": 0.23622047244094488,
                    "duration": 0.4640730000000417
                },
                {
                    "name": "A3",
                    "midi": 57,
                    "time": 391.67761200000655,
                    "velocity": 0.2283464566929134,
                    "duration": 0.46407299999998486
                },
                {
                    "name": "F3",
                    "midi": 53,
                    "time": 391.67761200000655,
                    "velocity": 0.2283464566929134,
                    "duration": 0.9281459999999697
                },
                {
                    "name": "C4",
                    "midi": 60,
                    "time": 392.14168500000653,
                    "velocity": 0.2283464566929134,
                    "duration": 0.46407299999998486
                },
                {
                    "name": "A#3",
                    "midi": 58,
                    "time": 392.6057580000065,
                    "velocity": 0.2283464566929134,
                    "duration": 2.320365000000038
                },
                {
                    "name": "D4",
                    "midi": 62,
                    "time": 393.0698310000065,
                    "velocity": 0.2283464566929134,
                    "duration": 0.4640730000000417
                },
                {
                    "name": "F4",
                    "midi": 65,
                    "time": 393.53390400000654,
                    "velocity": 0.2283464566929134,
                    "duration": 0.23203649999999243
                },
                {
                    "name": "F#4",
                    "midi": 66,
                    "time": 393.76594050000654,
                    "velocity": 0.2047244094488189,
                    "duration": 0.23203649999999243
                },
                {
                    "name": "F4",
                    "midi": 65,
                    "time": 393.99797700000653,
                    "velocity": 0.2283464566929134,
                    "duration": 0.23203650000004927
                },
                {
                    "name": "D#4",
                    "midi": 63,
                    "time": 394.2300135000066,
                    "velocity": 0.2125984251968504,
                    "duration": 0.23203649999999243
                },
                {
                    "name": "D4",
                    "midi": 62,
                    "time": 394.46205000000657,
                    "velocity": 0.25196850393700787,
                    "duration": 0.46407299999998486
                },
                {
                    "name": "D#3",
                    "midi": 51,
                    "time": 394.92612300000656,
                    "velocity": 0.23622047244094488,
                    "duration": 0.46407299999998486
                },
                {
                    "name": "A#3",
                    "midi": 58,
                    "time": 394.92612300000656,
                    "velocity": 0.23622047244094488,
                    "duration": 0.46407299999998486
                },
                {
                    "name": "A3",
                    "midi": 57,
                    "time": 395.39019600000654,
                    "velocity": 0.2283464566929134,
                    "duration": 0.46407299999998486
                },
                {
                    "name": "F3",
                    "midi": 53,
                    "time": 395.39019600000654,
                    "velocity": 0.2283464566929134,
                    "duration": 0.9281459999999697
                },
                {
                    "name": "C4",
                    "midi": 60,
                    "time": 395.8542690000065,
                    "velocity": 0.2283464566929134,
                    "duration": 0.46407299999998486
                },
                {
                    "name": "A#2",
                    "midi": 46,
                    "time": 398.1746340000065,
                    "velocity": 0.5984251968503937,
                    "duration": 0.8121277500000019
                },
                {
                    "name": "F3",
                    "midi": 53,
                    "time": 398.1746340000065,
                    "velocity": 0.5984251968503937,
                    "duration": 0.8121277500000019
                },
                {
                    "name": "A#3",
                    "midi": 58,
                    "time": 398.1746340000065,
                    "velocity": 0.7244094488188977,
                    "duration": 0.8121277500000019
                },
                {
                    "name": "A#2",
                    "midi": 46,
                    "time": 398.9867617500065,
                    "velocity": 0.5196850393700787,
                    "duration": 0.1102173374999893
                },
                {
                    "name": "F3",
                    "midi": 53,
                    "time": 398.9867617500065,
                    "velocity": 0.5196850393700787,
                    "duration": 0.1102173374999893
                },
                {
                    "name": "A#3",
                    "midi": 58,
                    "time": 398.9867617500065,
                    "velocity": 0.6062992125984252,
                    "duration": 0.1102173374999893
                },
                {
                    "name": "A#2",
                    "midi": 46,
                    "time": 399.1027800000065,
                    "velocity": 0.5511811023622047,
                    "duration": 0.34805475000001707
                },
                {
                    "name": "A#3",
                    "midi": 58,
                    "time": 399.1027800000065,
                    "velocity": 0.6614173228346457,
                    "duration": 0.34805475000001707
                },
                {
                    "name": "A#2",
                    "midi": 46,
                    "time": 399.4508347500065,
                    "velocity": 0.5275590551181102,
                    "duration": 0.1102173374999893
                },
                {
                    "name": "A#3",
                    "midi": 58,
                    "time": 399.4508347500065,
                    "velocity": 0.6299212598425197,
                    "duration": 0.1102173374999893
                },
                {
                    "name": "C#3",
                    "midi": 49,
                    "time": 399.56685300000646,
                    "velocity": 0.5511811023622047,
                    "duration": 0.34805475000001707
                },
                {
                    "name": "C#4",
                    "midi": 61,
                    "time": 399.56685300000646,
                    "velocity": 0.6614173228346457,
                    "duration": 0.34805475000001707
                },
                {
                    "name": "C#3",
                    "midi": 49,
                    "time": 399.9149077500065,
                    "velocity": 0.5196850393700787,
                    "duration": 0.1102173374999893
                },
                {
                    "name": "C#4",
                    "midi": 61,
                    "time": 399.9149077500065,
                    "velocity": 0.6062992125984252,
                    "duration": 0.1102173374999893
                },
                {
                    "name": "A#1",
                    "midi": 34,
                    "time": 400.03092600000645,
                    "velocity": 0.5511811023622047,
                    "duration": 0.34805475000001707
                },
                {
                    "name": "A#2",
                    "midi": 46,
                    "time": 400.03092600000645,
                    "velocity": 0.6614173228346457,
                    "duration": 0.34805475000001707
                },
                {
                    "name": "A#1",
                    "midi": 34,
                    "time": 400.37898075000646,
                    "velocity": 0.5196850393700787,
                    "duration": 0.1102173374999893
                },
                {
                    "name": "A#2",
                    "midi": 46,
                    "time": 400.37898075000646,
                    "velocity": 0.6062992125984252,
                    "duration": 0.1102173374999893
                },
                {
                    "name": "C#2",
                    "midi": 37,
                    "time": 400.49499900000643,
                    "velocity": 0.5196850393700787,
                    "duration": 0.34805475000001707
                },
                {
                    "name": "C#3",
                    "midi": 49,
                    "time": 400.49499900000643,
                    "velocity": 0.6220472440944882,
                    "duration": 0.34805475000001707
                },
                {
                    "name": "C#2",
                    "midi": 37,
                    "time": 400.84305375000645,
                    "velocity": 0.48031496062992124,
                    "duration": 0.1102173374999893
                },
                {
                    "name": "C#3",
                    "midi": 49,
                    "time": 400.84305375000645,
                    "velocity": 0.5748031496062992,
                    "duration": 0.1102173374999893
                },
                {
                    "name": "F2",
                    "midi": 41,
                    "time": 400.9590720000064,
                    "velocity": 0.5196850393700787,
                    "duration": 0.34805475000001707
                },
                {
                    "name": "F3",
                    "midi": 53,
                    "time": 400.9590720000064,
                    "velocity": 0.6220472440944882,
                    "duration": 0.34805475000001707
                },
                {
                    "name": "F2",
                    "midi": 41,
                    "time": 401.30712675000643,
                    "velocity": 0.48031496062992124,
                    "duration": 0.1102173374999893
                },
                {
                    "name": "F3",
                    "midi": 53,
                    "time": 401.30712675000643,
                    "velocity": 0.5748031496062992,
                    "duration": 0.1102173374999893
                },
                {
                    "name": "A#2",
                    "midi": 46,
                    "time": 401.4231450000064,
                    "velocity": 0.5196850393700787,
                    "duration": 0.34805475000001707
                },
                {
                    "name": "A#3",
                    "midi": 58,
                    "time": 401.4231450000064,
                    "velocity": 0.6220472440944882,
                    "duration": 0.34805475000001707
                },
                {
                    "name": "A#2",
                    "midi": 46,
                    "time": 401.7711997500064,
                    "velocity": 0.4645669291338583,
                    "duration": 0.11601825000002464
                },
                {
                    "name": "A#3",
                    "midi": 58,
                    "time": 401.7711997500064,
                    "velocity": 0.5590551181102362,
                    "duration": 0.11601825000002464
                },
                {
                    "name": "D#2",
                    "midi": 39,
                    "time": 401.88721800000644,
                    "velocity": 0.5511811023622047,
                    "duration": 0.11601825000002464
                },
                {
                    "name": "D#3",
                    "midi": 51,
                    "time": 401.88721800000644,
                    "velocity": 0.6614173228346457,
                    "duration": 0.11601825000002464
                },
                {
                    "name": "B3",
                    "midi": 59,
                    "time": 403.9755465000065,
                    "velocity": 0.49606299212598426,
                    "duration": 0.1353546250000477
                },
                {
                    "name": "D#4",
                    "midi": 63,
                    "time": 404.0915647500065,
                    "velocity": 0.5118110236220472,
                    "duration": 0.1353546250000477
                },
                {
                    "name": "F#4",
                    "midi": 66,
                    "time": 404.20758300000654,
                    "velocity": 0.5354330708661418,
                    "duration": 0.1353546250000477
                },
                {
                    "name": "E4",
                    "midi": 64,
                    "time": 404.32360125000656,
                    "velocity": 0.5196850393700787,
                    "duration": 0.1353546250000477
                },
                {
                    "name": "D#4",
                    "midi": 63,
                    "time": 404.4396195000066,
                    "velocity": 0.5039370078740157,
                    "duration": 0.1353546250000477
                },
                {
                    "name": "C#4",
                    "midi": 61,
                    "time": 404.5556377500066,
                    "velocity": 0.49606299212598426,
                    "duration": 0.1353546250000477
                },
                {
                    "name": "B3",
                    "midi": 59,
                    "time": 404.67165600000664,
                    "velocity": 0.48031496062992124,
                    "duration": 0.1353546250000477
                },
                {
                    "name": "A#3",
                    "midi": 58,
                    "time": 404.78767425000666,
                    "velocity": 0.48031496062992124,
                    "duration": 0.1353546250000477
                },
                {
                    "name": "G#3",
                    "midi": 56,
                    "time": 404.9036925000067,
                    "velocity": 0.49606299212598426,
                    "duration": 0.1353546250000477
                },
                {
                    "name": "F#3",
                    "midi": 54,
                    "time": 405.0197107500067,
                    "velocity": 0.5039370078740157,
                    "duration": 0.1353546250000477
                },
                {
                    "name": "E3",
                    "midi": 52,
                    "time": 405.13572900000673,
                    "velocity": 0.5039370078740157,
                    "duration": 0.1353546250000477
                },
                {
                    "name": "D#3",
                    "midi": 51,
                    "time": 405.25174725000676,
                    "velocity": 0.5118110236220472,
                    "duration": 0.1353546250000477
                },
                {
                    "name": "C#3",
                    "midi": 49,
                    "time": 405.3677655000068,
                    "velocity": 0.5196850393700787,
                    "duration": 0.1353546250000477
                },
                {
                    "name": "B2",
                    "midi": 47,
                    "time": 405.4837837500068,
                    "velocity": 0.5196850393700787,
                    "duration": 0.11601825000002464
                },
                {
                    "name": "D#2",
                    "midi": 39,
                    "time": 405.59980200000683,
                    "velocity": 0.48031496062992124,
                    "duration": 0.23203649999999243
                },
                {
                    "name": "D#3",
                    "midi": 51,
                    "time": 405.59980200000683,
                    "velocity": 0.5748031496062992,
                    "duration": 0.23203649999999243
                },
                {
                    "name": "D#2",
                    "midi": 39,
                    "time": 406.0638750000068,
                    "velocity": 0.5118110236220472,
                    "duration": 0.23203649999999243
                },
                {
                    "name": "D#3",
                    "midi": 51,
                    "time": 406.0638750000068,
                    "velocity": 0.6062992125984252,
                    "duration": 0.23203649999999243
                },
                {
                    "name": "D#2",
                    "midi": 39,
                    "time": 406.5279480000068,
                    "velocity": 0.5039370078740157,
                    "duration": 0.2204346749999786
                },
                {
                    "name": "D#3",
                    "midi": 51,
                    "time": 406.5279480000068,
                    "velocity": 0.5984251968503937,
                    "duration": 0.2204346749999786
                },
                {
                    "name": "D#2",
                    "midi": 39,
                    "time": 406.7599845000068,
                    "velocity": 0.4094488188976378,
                    "duration": 0.11601824999996779
                },
                {
                    "name": "D#3",
                    "midi": 51,
                    "time": 406.7599845000068,
                    "velocity": 0.49606299212598426,
                    "duration": 0.11601824999996779
                },
                {
                    "name": "D#2",
                    "midi": 39,
                    "time": 406.9920210000068,
                    "velocity": 0.44881889763779526,
                    "duration": 0.11601825000002464
                },
                {
                    "name": "D#3",
                    "midi": 51,
                    "time": 406.9920210000068,
                    "velocity": 0.5275590551181102,
                    "duration": 0.11601825000002464
                },
                {
                    "name": "D#2",
                    "midi": 39,
                    "time": 407.22405750000684,
                    "velocity": 0.47244094488188976,
                    "duration": 0.11601825000002464
                },
                {
                    "name": "D#3",
                    "midi": 51,
                    "time": 407.22405750000684,
                    "velocity": 0.5669291338582677,
                    "duration": 0.11601825000002464
                },
                {
                    "name": "F2",
                    "midi": 41,
                    "time": 407.4560940000069,
                    "velocity": 0.48031496062992124,
                    "duration": 0.23203649999999243
                },
                {
                    "name": "F3",
                    "midi": 53,
                    "time": 407.4560940000069,
                    "velocity": 0.5748031496062992,
                    "duration": 0.23203649999999243
                },
                {
                    "name": "F2",
                    "midi": 41,
                    "time": 407.92016700000687,
                    "velocity": 0.5118110236220472,
                    "duration": 0.23203649999999243
                },
                {
                    "name": "F3",
                    "midi": 53,
                    "time": 407.92016700000687,
                    "velocity": 0.6062992125984252,
                    "duration": 0.23203649999999243
                },
                {
                    "name": "F2",
                    "midi": 41,
                    "time": 408.38424000000686,
                    "velocity": 0.5039370078740157,
                    "duration": 0.2204346749999786
                },
                {
                    "name": "F3",
                    "midi": 53,
                    "time": 408.38424000000686,
                    "velocity": 0.5984251968503937,
                    "duration": 0.2204346749999786
                },
                {
                    "name": "F2",
                    "midi": 41,
                    "time": 408.61627650000685,
                    "velocity": 0.4094488188976378,
                    "duration": 0.11601824999996779
                },
                {
                    "name": "F3",
                    "midi": 53,
                    "time": 408.61627650000685,
                    "velocity": 0.49606299212598426,
                    "duration": 0.11601824999996779
                },
                {
                    "name": "F2",
                    "midi": 41,
                    "time": 408.84831300000684,
                    "velocity": 0.44881889763779526,
                    "duration": 0.11601825000002464
                },
                {
                    "name": "F3",
                    "midi": 53,
                    "time": 408.84831300000684,
                    "velocity": 0.5275590551181102,
                    "duration": 0.11601825000002464
                },
                {
                    "name": "F2",
                    "midi": 41,
                    "time": 409.0803495000069,
                    "velocity": 0.47244094488188976,
                    "duration": 0.11601825000002464
                },
                {
                    "name": "F3",
                    "midi": 53,
                    "time": 409.0803495000069,
                    "velocity": 0.5669291338582677,
                    "duration": 0.11601825000002464
                },
                {
                    "name": "A#2",
                    "midi": 46,
                    "time": 409.31238600000694,
                    "velocity": 0.5275590551181102,
                    "duration": 0.11601825000002464
                },
                {
                    "name": "C#3",
                    "midi": 49,
                    "time": 409.42840425000696,
                    "velocity": 0.44881889763779526,
                    "duration": 0.11601825000002464
                },
                {
                    "name": "F3",
                    "midi": 53,
                    "time": 409.544422500007,
                    "velocity": 0.44881889763779526,
                    "duration": 0.11601825000002464
                },
                {
                    "name": "A#3",
                    "midi": 58,
                    "time": 409.660440750007,
                    "velocity": 0.44881889763779526,
                    "duration": 0.11601825000002464
                },
                {
                    "name": "A#2",
                    "midi": 46,
                    "time": 409.77645900000704,
                    "velocity": 0.5275590551181102,
                    "duration": 0.11601825000002464
                },
                {
                    "name": "C#3",
                    "midi": 49,
                    "time": 409.89247725000706,
                    "velocity": 0.44881889763779526,
                    "duration": 0.11601825000002464
                },
                {
                    "name": "F3",
                    "midi": 53,
                    "time": 410.0084955000071,
                    "velocity": 0.44881889763779526,
                    "duration": 0.11601825000002464
                },
                {
                    "name": "A#3",
                    "midi": 58,
                    "time": 410.1245137500071,
                    "velocity": 0.44881889763779526,
                    "duration": 0.11601825000002464
                },
                {
                    "name": "A#2",
                    "midi": 46,
                    "time": 410.24053200000714,
                    "velocity": 0.5275590551181102,
                    "duration": 0.11601825000002464
                },
                {
                    "name": "C#3",
                    "midi": 49,
                    "time": 410.35655025000716,
                    "velocity": 0.4409448818897638,
                    "duration": 0.11601825000002464
                },
                {
                    "name": "F3",
                    "midi": 53,
                    "time": 410.4725685000072,
                    "velocity": 0.44881889763779526,
                    "duration": 0.11601825000002464
                },
                {
                    "name": "A#3",
                    "midi": 58,
                    "time": 410.5885867500072,
                    "velocity": 0.44881889763779526,
                    "duration": 0.11601825000002464
                },
                {
                    "name": "A#2",
                    "midi": 46,
                    "time": 410.70460500000723,
                    "velocity": 0.5275590551181102,
                    "duration": 0.11601825000002464
                },
                {
                    "name": "C#3",
                    "midi": 49,
                    "time": 410.82062325000726,
                    "velocity": 0.4645669291338583,
                    "duration": 0.11601825000002464
                },
                {
                    "name": "F3",
                    "midi": 53,
                    "time": 410.9366415000073,
                    "velocity": 0.4645669291338583,
                    "duration": 0.11601825000002464
                },
                {
                    "name": "A#3",
                    "midi": 58,
                    "time": 411.0526597500073,
                    "velocity": 0.47244094488188976,
                    "duration": 0.11601825000002464
                },
                {
                    "name": "A#2",
                    "midi": 46,
                    "time": 411.16867800000733,
                    "velocity": 0.5275590551181102,
                    "duration": 0.11601824999996779
                },
                {
                    "name": "C#3",
                    "midi": 49,
                    "time": 411.2846962500073,
                    "velocity": 0.4566929133858268,
                    "duration": 0.11601825000002464
                },
                {
                    "name": "F#3",
                    "midi": 54,
                    "time": 411.4007145000073,
                    "velocity": 0.4566929133858268,
                    "duration": 0.11601825000002464
                },
                {
                    "name": "A#3",
                    "midi": 58,
                    "time": 411.51673275000735,
                    "velocity": 0.4566929133858268,
                    "duration": 0.11601825000002464
                },
                {
                    "name": "A#2",
                    "midi": 46,
                    "time": 411.6327510000074,
                    "velocity": 0.5275590551181102,
                    "duration": 0.11601824999996779
                },
                {
                    "name": "C#3",
                    "midi": 49,
                    "time": 411.74876925000734,
                    "velocity": 0.47244094488188976,
                    "duration": 0.11601825000002464
                },
                {
                    "name": "F#3",
                    "midi": 54,
                    "time": 411.86478750000737,
                    "velocity": 0.47244094488188976,
                    "duration": 0.11601825000002464
                },
                {
                    "name": "A#3",
                    "midi": 58,
                    "time": 411.9808057500074,
                    "velocity": 0.47244094488188976,
                    "duration": 0.11601825000002464
                },
                {
                    "name": "A#2",
                    "midi": 46,
                    "time": 412.0968240000074,
                    "velocity": 0.5275590551181102,
                    "duration": 0.11601825000002464
                },
                {
                    "name": "F3",
                    "midi": 53,
                    "time": 412.21284225000744,
                    "velocity": 0.4566929133858268,
                    "duration": 0.11601825000002464
                },
                {
                    "name": "G#3",
                    "midi": 56,
                    "time": 412.32886050000747,
                    "velocity": 0.4566929133858268,
                    "duration": 0.11601825000002464
                },
                {
                    "name": "A#3",
                    "midi": 58,
                    "time": 412.4448787500075,
                    "velocity": 0.4566929133858268,
                    "duration": 0.11601825000002464
                },
                {
                    "name": "A#2",
                    "midi": 46,
                    "time": 412.5608970000075,
                    "velocity": 0.5275590551181102,
                    "duration": 0.11601824999996779
                },
                {
                    "name": "F3",
                    "midi": 53,
                    "time": 412.6769152500075,
                    "velocity": 0.44881889763779526,
                    "duration": 0.11601825000002464
                },
                {
                    "name": "G#3",
                    "midi": 56,
                    "time": 412.7929335000075,
                    "velocity": 0.44881889763779526,
                    "duration": 0.11601825000002464
                },
                {
                    "name": "A#3",
                    "midi": 58,
                    "time": 412.90895175000753,
                    "velocity": 0.44881889763779526,
                    "duration": 0.11601825000002464
                },
                {
                    "name": "A#2",
                    "midi": 46,
                    "time": 413.02497000000756,
                    "velocity": 0.5275590551181102,
                    "duration": 0.11601825000002464
                },
                {
                    "name": "D#3",
                    "midi": 51,
                    "time": 413.1409882500076,
                    "velocity": 0.44881889763779526,
                    "duration": 0.11601825000002464
                },
                {
                    "name": "F#3",
                    "midi": 54,
                    "time": 413.2570065000076,
                    "velocity": 0.44881889763779526,
                    "duration": 0.11601825000002464
                },
                {
                    "name": "A#3",
                    "midi": 58,
                    "time": 413.37302475000763,
                    "velocity": 0.44881889763779526,
                    "duration": 0.11601825000002464
                },
                {
                    "name": "A#2",
                    "midi": 46,
                    "time": 413.48904300000765,
                    "velocity": 0.5275590551181102,
                    "duration": 0.11601825000002464
                },
                {
                    "name": "D#3",
                    "midi": 51,
                    "time": 413.6050612500077,
                    "velocity": 0.4330708661417323,
                    "duration": 0.11601825000002464
                },
                {
                    "name": "F#3",
                    "midi": 54,
                    "time": 413.7210795000077,
                    "velocity": 0.4330708661417323,
                    "duration": 0.11601825000002464
                },
                {
                    "name": "A#3",
                    "midi": 58,
                    "time": 413.83709775000773,
                    "velocity": 0.4251968503937008,
                    "duration": 0.11601825000002464
                },
                {
                    "name": "A#2",
                    "midi": 46,
                    "time": 413.95311600000775,
                    "velocity": 0.49606299212598426,
                    "duration": 0.11601825000002464
                },
                {
                    "name": "D#3",
                    "midi": 51,
                    "time": 414.0691342500078,
                    "velocity": 0.41732283464566927,
                    "duration": 0.11601825000002464
                },
                {
                    "name": "F#3",
                    "midi": 54,
                    "time": 414.1851525000078,
                    "velocity": 0.4251968503937008,
                    "duration": 0.11601825000002464
                },
                {
                    "name": "A#3",
                    "midi": 58,
                    "time": 414.3011707500078,
                    "velocity": 0.4251968503937008,
                    "duration": 0.11601825000002464
                },
                {
                    "name": "A#2",
                    "midi": 46,
                    "time": 414.41718900000785,
                    "velocity": 0.49606299212598426,
                    "duration": 0.11601825000002464
                },
                {
                    "name": "D#3",
                    "midi": 51,
                    "time": 414.5332072500079,
                    "velocity": 0.4409448818897638,
                    "duration": 0.11601825000002464
                },
                {
                    "name": "F#3",
                    "midi": 54,
                    "time": 414.6492255000079,
                    "velocity": 0.4409448818897638,
                    "duration": 0.11601825000002464
                },
                {
                    "name": "A#3",
                    "midi": 58,
                    "time": 414.7652437500079,
                    "velocity": 0.44881889763779526,
                    "duration": 0.11601825000002464
                },
                {
                    "name": "B2",
                    "midi": 47,
                    "time": 414.88126200000795,
                    "velocity": 0.49606299212598426,
                    "duration": 0.11601824999996779
                },
                {
                    "name": "D#3",
                    "midi": 51,
                    "time": 414.9972802500079,
                    "velocity": 0.4330708661417323,
                    "duration": 0.11601825000002464
                },
                {
                    "name": "F#3",
                    "midi": 54,
                    "time": 415.11329850000794,
                    "velocity": 0.4330708661417323,
                    "duration": 0.11601825000002464
                },
                {
                    "name": "B3",
                    "midi": 59,
                    "time": 415.22931675000797,
                    "velocity": 0.4330708661417323,
                    "duration": 0.11601825000002464
                },
                {
                    "name": "B2",
                    "midi": 47,
                    "time": 415.345335000008,
                    "velocity": 0.49606299212598426,
                    "duration": 0.11601824999996779
                },
                {
                    "name": "D#3",
                    "midi": 51,
                    "time": 415.46135325000796,
                    "velocity": 0.44881889763779526,
                    "duration": 0.11601825000002464
                },
                {
                    "name": "F#3",
                    "midi": 54,
                    "time": 415.577371500008,
                    "velocity": 0.44881889763779526,
                    "duration": 0.11601825000002464
                },
                {
                    "name": "B3",
                    "midi": 59,
                    "time": 415.693389750008,
                    "velocity": 0.44881889763779526,
                    "duration": 0.11601825000002464
                },
                {
                    "name": "C3",
                    "midi": 48,
                    "time": 415.80940800000803,
                    "velocity": 0.49606299212598426,
                    "duration": 0.11601825000002464
                },
                {
                    "name": "D#3",
                    "midi": 51,
                    "time": 415.92542625000806,
                    "velocity": 0.4330708661417323,
                    "duration": 0.11601825000002464
                },
                {
                    "name": "F3",
                    "midi": 53,
                    "time": 416.0414445000081,
                    "velocity": 0.4330708661417323,
                    "duration": 0.11601825000002464
                },
                {
                    "name": "C4",
                    "midi": 60,
                    "time": 416.1574627500081,
                    "velocity": 0.4330708661417323,
                    "duration": 0.11601825000002464
                },
                {
                    "name": "C3",
                    "midi": 48,
                    "time": 416.27348100000813,
                    "velocity": 0.49606299212598426,
                    "duration": 0.11601825000002464
                },
                {
                    "name": "D#3",
                    "midi": 51,
                    "time": 416.38949925000816,
                    "velocity": 0.4251968503937008,
                    "duration": 0.11601825000002464
                },
                {
                    "name": "F3",
                    "midi": 53,
                    "time": 416.5055175000082,
                    "velocity": 0.4251968503937008,
                    "duration": 0.11601825000002464
                },
                {
                    "name": "C4",
                    "midi": 60,
                    "time": 416.6215357500082,
                    "velocity": 0.4251968503937008,
                    "duration": 0.11601825000002464
                },
                {
                    "name": "C#3",
                    "midi": 49,
                    "time": 416.73755400000823,
                    "velocity": 0.49606299212598426,
                    "duration": 0.11601825000002464
                },
                {
                    "name": "F3",
                    "midi": 53,
                    "time": 416.85357225000826,
                    "velocity": 0.4251968503937008,
                    "duration": 0.11601825000002464
                },
                {
                    "name": "A#3",
                    "midi": 58,
                    "time": 416.9695905000083,
                    "velocity": 0.4251968503937008,
                    "duration": 0.11601825000002464
                },
                {
                    "name": "C#4",
                    "midi": 61,
                    "time": 417.0856087500083,
                    "velocity": 0.4251968503937008,
                    "duration": 0.11601825000002464
                },
                {
                    "name": "C#3",
                    "midi": 49,
                    "time": 417.20162700000833,
                    "velocity": 0.49606299212598426,
                    "duration": 0.11601825000002464
                },
                {
                    "name": "F3",
                    "midi": 53,
                    "time": 417.31764525000835,
                    "velocity": 0.4251968503937008,
                    "duration": 0.11601825000002464
                },
                {
                    "name": "A#3",
                    "midi": 58,
                    "time": 417.4336635000084,
                    "velocity": 0.4251968503937008,
                    "duration": 0.11601825000002464
                },
                {
                    "name": "C#4",
                    "midi": 61,
                    "time": 417.5496817500084,
                    "velocity": 0.4251968503937008,
                    "duration": 0.11601825000002464
                },
                {
                    "name": "C#3",
                    "midi": 49,
                    "time": 417.6657000000084,
                    "velocity": 0.49606299212598426,
                    "duration": 0.11601824999996779
                },
                {
                    "name": "F3",
                    "midi": 53,
                    "time": 417.7817182500084,
                    "velocity": 0.41732283464566927,
                    "duration": 0.11601825000002464
                },
                {
                    "name": "A#3",
                    "midi": 58,
                    "time": 417.8977365000084,
                    "velocity": 0.4251968503937008,
                    "duration": 0.11601825000002464
                },
                {
                    "name": "C#4",
                    "midi": 61,
                    "time": 418.01375475000845,
                    "velocity": 0.4251968503937008,
                    "duration": 0.11601825000002464
                },
                {
                    "name": "C#3",
                    "midi": 49,
                    "time": 418.12977300000847,
                    "velocity": 0.49606299212598426,
                    "duration": 0.11601825000002464
                },
                {
                    "name": "F3",
                    "midi": 53,
                    "time": 418.2457912500085,
                    "velocity": 0.4409448818897638,
                    "duration": 0.11601825000002464
                },
                {
                    "name": "A#3",
                    "midi": 58,
                    "time": 418.3618095000085,
                    "velocity": 0.4409448818897638,
                    "duration": 0.11601825000002464
                },
                {
                    "name": "C#4",
                    "midi": 61,
                    "time": 418.47782775000854,
                    "velocity": 0.44881889763779526,
                    "duration": 0.11601825000002464
                },
                {
                    "name": "C#3",
                    "midi": 49,
                    "time": 418.59384600000857,
                    "velocity": 0.49606299212598426,
                    "duration": 0.11601824999996779
                },
                {
                    "name": "F#3",
                    "midi": 54,
                    "time": 418.70986425000854,
                    "velocity": 0.4330708661417323,
                    "duration": 0.11601825000002464
                },
                {
                    "name": "A#3",
                    "midi": 58,
                    "time": 418.82588250000856,
                    "velocity": 0.4330708661417323,
                    "duration": 0.11601825000002464
                },
                {
                    "name": "C#4",
                    "midi": 61,
                    "time": 418.9419007500086,
                    "velocity": 0.4330708661417323,
                    "duration": 0.11601825000002464
                },
                {
                    "name": "C#3",
                    "midi": 49,
                    "time": 419.0579190000086,
                    "velocity": 0.49606299212598426,
                    "duration": 0.11601824999996779
                },
                {
                    "name": "F#3",
                    "midi": 54,
                    "time": 419.1739372500086,
                    "velocity": 0.44881889763779526,
                    "duration": 0.11601825000002464
                },
                {
                    "name": "A#3",
                    "midi": 58,
                    "time": 419.2899555000086,
                    "velocity": 0.44881889763779526,
                    "duration": 0.11601825000002464
                },
                {
                    "name": "C#4",
                    "midi": 61,
                    "time": 419.4059737500086,
                    "velocity": 0.44881889763779526,
                    "duration": 0.11601825000002464
                },
                {
                    "name": "C#3",
                    "midi": 49,
                    "time": 419.52199200000865,
                    "velocity": 0.49606299212598426,
                    "duration": 0.11601824999996779
                },
                {
                    "name": "G#3",
                    "midi": 56,
                    "time": 419.6380102500086,
                    "velocity": 0.4330708661417323,
                    "duration": 0.11601825000002464
                },
                {
                    "name": "B3",
                    "midi": 59,
                    "time": 419.75402850000864,
                    "velocity": 0.4330708661417323,
                    "duration": 0.11601825000002464
                },
                {
                    "name": "C#4",
                    "midi": 61,
                    "time": 419.87004675000867,
                    "velocity": 0.4330708661417323,
                    "duration": 0.11601825000002464
                },
                {
                    "name": "C#3",
                    "midi": 49,
                    "time": 419.9860650000087,
                    "velocity": 0.49606299212598426,
                    "duration": 0.11601824999996779
                },
                {
                    "name": "G#3",
                    "midi": 56,
                    "time": 420.10208325000866,
                    "velocity": 0.4251968503937008,
                    "duration": 0.11601825000002464
                },
                {
                    "name": "B3",
                    "midi": 59,
                    "time": 420.2181015000087,
                    "velocity": 0.4251968503937008,
                    "duration": 0.11601825000002464
                },
                {
                    "name": "C#4",
                    "midi": 61,
                    "time": 420.3341197500087,
                    "velocity": 0.4251968503937008,
                    "duration": 0.11601825000002464
                },
                {
                    "name": "C#3",
                    "midi": 49,
                    "time": 420.45013800000874,
                    "velocity": 0.5275590551181102,
                    "duration": 0.11601824999996779
                },
                {
                    "name": "F#3",
                    "midi": 54,
                    "time": 420.5661562500087,
                    "velocity": 0.44881889763779526,
                    "duration": 0.11601825000002464
                },
                {
                    "name": "A#3",
                    "midi": 58,
                    "time": 420.6821745000087,
                    "velocity": 0.44881889763779526,
                    "duration": 0.11601825000002464
                },
                {
                    "name": "C#4",
                    "midi": 61,
                    "time": 420.79819275000875,
                    "velocity": 0.44881889763779526,
                    "duration": 0.11601825000002464
                },
                {
                    "name": "C#3",
                    "midi": 49,
                    "time": 420.9142110000088,
                    "velocity": 0.5275590551181102,
                    "duration": 0.11601825000002464
                },
                {
                    "name": "F#3",
                    "midi": 54,
                    "time": 421.0302292500088,
                    "velocity": 0.4330708661417323,
                    "duration": 0.11601825000002464
                },
                {
                    "name": "A#3",
                    "midi": 58,
                    "time": 421.1462475000088,
                    "velocity": 0.4330708661417323,
                    "duration": 0.11601825000002464
                },
                {
                    "name": "C#4",
                    "midi": 61,
                    "time": 421.26226575000885,
                    "velocity": 0.4015748031496063,
                    "duration": 0.11601825000002464
                },
                {
                    "name": "D3",
                    "midi": 50,
                    "time": 421.3782840000089,
                    "velocity": 0.4645669291338583,
                    "duration": 0.11601825000002464
                },
                {
                    "name": "F#3",
                    "midi": 54,
                    "time": 421.4943022500089,
                    "velocity": 0.3937007874015748,
                    "duration": 0.11601825000002464
                },
                {
                    "name": "A#3",
                    "midi": 58,
                    "time": 421.6103205000089,
                    "velocity": 0.4015748031496063,
                    "duration": 0.11601825000002464
                },
                {
                    "name": "D4",
                    "midi": 62,
                    "time": 421.72633875000895,
                    "velocity": 0.4015748031496063,
                    "duration": 0.11601825000002464
                },
                {
                    "name": "D#3",
                    "midi": 51,
                    "time": 421.842357000009,
                    "velocity": 0.4645669291338583,
                    "duration": 0.11601825000002464
                },
                {
                    "name": "F#3",
                    "midi": 54,
                    "time": 421.958375250009,
                    "velocity": 0.41732283464566927,
                    "duration": 0.11601825000002464
                },
                {
                    "name": "A#3",
                    "midi": 58,
                    "time": 422.074393500009,
                    "velocity": 0.41732283464566927,
                    "duration": 0.11601825000002464
                },
                {
                    "name": "D#4",
                    "midi": 63,
                    "time": 422.19041175000905,
                    "velocity": 0.4251968503937008,
                    "duration": 0.11601825000002464
                },
                {
                    "name": "F3",
                    "midi": 53,
                    "time": 422.3064300000091,
                    "velocity": 0.4645669291338583,
                    "duration": 0.11601824999996779
                },
                {
                    "name": "A#3",
                    "midi": 58,
                    "time": 422.42244825000904,
                    "velocity": 0.4094488188976378,
                    "duration": 0.11601825000002464
                },
                {
                    "name": "C#4",
                    "midi": 61,
                    "time": 422.53846650000906,
                    "velocity": 0.4094488188976378,
                    "duration": 0.11601825000002464
                },
                {
                    "name": "F4",
                    "midi": 65,
                    "time": 422.6544847500091,
                    "velocity": 0.4094488188976378,
                    "duration": 0.11601825000002464
                },
                {
                    "name": "F#3",
                    "midi": 54,
                    "time": 422.7705030000091,
                    "velocity": 0.4645669291338583,
                    "duration": 0.11601824999996779
                },
                {
                    "name": "A#3",
                    "midi": 58,
                    "time": 422.8865212500091,
                    "velocity": 0.4251968503937008,
                    "duration": 0.11601825000002464
                },
                {
                    "name": "C#4",
                    "midi": 61,
                    "time": 423.0025395000091,
                    "velocity": 0.4251968503937008,
                    "duration": 0.11601825000002464
                },
                {
                    "name": "F#4",
                    "midi": 66,
                    "time": 423.11855775000913,
                    "velocity": 0.4251968503937008,
                    "duration": 0.11601825000002464
                },
                {
                    "name": "F3",
                    "midi": 53,
                    "time": 423.23457600000916,
                    "velocity": 0.4645669291338583,
                    "duration": 0.11601824999996779
                },
                {
                    "name": "A#3",
                    "midi": 58,
                    "time": 423.3505942500091,
                    "velocity": 0.4094488188976378,
                    "duration": 0.11601825000002464
                },
                {
                    "name": "C#4",
                    "midi": 61,
                    "time": 423.46661250000915,
                    "velocity": 0.4094488188976378,
                    "duration": 0.11601825000002464
                },
                {
                    "name": "F4",
                    "midi": 65,
                    "time": 423.5826307500092,
                    "velocity": 0.4094488188976378,
                    "duration": 0.11601825000002464
                },
                {
                    "name": "F3",
                    "midi": 53,
                    "time": 423.6986490000092,
                    "velocity": 0.4645669291338583,
                    "duration": 0.11601825000002464
                },
                {
                    "name": "A#3",
                    "midi": 58,
                    "time": 423.8146672500092,
                    "velocity": 0.4015748031496063,
                    "duration": 0.11601825000002464
                },
                {
                    "name": "C#4",
                    "midi": 61,
                    "time": 423.93068550000925,
                    "velocity": 0.4015748031496063,
                    "duration": 0.11601825000002464
                },
                {
                    "name": "F4",
                    "midi": 65,
                    "time": 424.04670375000927,
                    "velocity": 0.4015748031496063,
                    "duration": 0.11601825000002464
                },
                {
                    "name": "F3",
                    "midi": 53,
                    "time": 424.1627220000093,
                    "velocity": 0.4409448818897638,
                    "duration": 0.11601824999996779
                },
                {
                    "name": "A#3",
                    "midi": 58,
                    "time": 424.27874025000926,
                    "velocity": 0.3858267716535433,
                    "duration": 0.11601825000002464
                },
                {
                    "name": "C4",
                    "midi": 60,
                    "time": 424.3947585000093,
                    "velocity": 0.3779527559055118,
                    "duration": 0.11601825000002464
                },
                {
                    "name": "F4",
                    "midi": 65,
                    "time": 424.5107767500093,
                    "velocity": 0.3700787401574803,
                    "duration": 0.11601825000002464
                },
                {
                    "name": "F3",
                    "midi": 53,
                    "time": 424.62679500000934,
                    "velocity": 0.4015748031496063,
                    "duration": 0.11601825000002464
                },
                {
                    "name": "A3",
                    "midi": 57,
                    "time": 424.74281325000936,
                    "velocity": 0.3464566929133858,
                    "duration": 0.11601825000002464
                },
                {
                    "name": "C4",
                    "midi": 60,
                    "time": 424.8588315000094,
                    "velocity": 0.33858267716535434,
                    "duration": 0.11601825000002464
                },
                {
                    "name": "F4",
                    "midi": 65,
                    "time": 424.9748497500094,
                    "velocity": 0.33070866141732286,
                    "duration": 0.11601825000002464
                },
                {
                    "name": "A#2",
                    "midi": 46,
                    "time": 425.09086800000944,
                    "velocity": 0.33070866141732286,
                    "duration": 0.07734549999997853
                },
                {
                    "name": "D4",
                    "midi": 62,
                    "time": 425.2455590000094,
                    "velocity": 0.33070866141732286,
                    "duration": 0.1546910000000139
                },
                {
                    "name": "F4",
                    "midi": 65,
                    "time": 425.4002500000094,
                    "velocity": 0.2677165354330709,
                    "duration": 0.1546910000000139
                },
                {
                    "name": "A#3",
                    "midi": 58,
                    "time": 425.5549410000094,
                    "velocity": 0.2677165354330709,
                    "duration": 0.1546910000000139
                },
                {
                    "name": "D4",
                    "midi": 62,
                    "time": 425.70963200000944,
                    "velocity": 0.23622047244094488,
                    "duration": 0.1546910000000139
                },
                {
                    "name": "F4",
                    "midi": 65,
                    "time": 425.86432300000945,
                    "velocity": 0.23622047244094488,
                    "duration": 0.1546910000000139
                },
                {
                    "name": "A#3",
                    "midi": 58,
                    "time": 426.01901400000946,
                    "velocity": 0.2677165354330709,
                    "duration": 0.15469099999995706
                },
                {
                    "name": "D4",
                    "midi": 62,
                    "time": 426.1737050000094,
                    "velocity": 0.2283464566929134,
                    "duration": 0.1546910000000139
                },
                {
                    "name": "F4",
                    "midi": 65,
                    "time": 426.32839600000943,
                    "velocity": 0.2283464566929134,
                    "duration": 0.1546910000000139
                },
                {
                    "name": "A#3",
                    "midi": 58,
                    "time": 426.48308700000945,
                    "velocity": 0.2677165354330709,
                    "duration": 0.1546910000000139
                },
                {
                    "name": "D4",
                    "midi": 62,
                    "time": 426.63777800000946,
                    "velocity": 0.23622047244094488,
                    "duration": 0.1546910000000139
                },
                {
                    "name": "F4",
                    "midi": 65,
                    "time": 426.7924690000095,
                    "velocity": 0.23622047244094488,
                    "duration": 0.1546910000000139
                },
                {
                    "name": "A#3",
                    "midi": 58,
                    "time": 426.9471600000095,
                    "velocity": 0.2677165354330709,
                    "duration": 0.1546910000000139
                },
                {
                    "name": "D4",
                    "midi": 62,
                    "time": 427.1018510000095,
                    "velocity": 0.23622047244094488,
                    "duration": 0.1546910000000139
                },
                {
                    "name": "F4",
                    "midi": 65,
                    "time": 427.2565420000095,
                    "velocity": 0.23622047244094488,
                    "duration": 0.1546910000000139
                },
                {
                    "name": "G#3",
                    "midi": 56,
                    "time": 427.41123300000953,
                    "velocity": 0.2677165354330709,
                    "duration": 0.1546910000000139
                },
                {
                    "name": "D4",
                    "midi": 62,
                    "time": 427.56592400000955,
                    "velocity": 0.23622047244094488,
                    "duration": 0.1546910000000139
                },
                {
                    "name": "F4",
                    "midi": 65,
                    "time": 427.72061500000956,
                    "velocity": 0.23622047244094488,
                    "duration": 0.1546910000000139
                },
                {
                    "name": "G3",
                    "midi": 55,
                    "time": 427.8753060000096,
                    "velocity": 0.2677165354330709,
                    "duration": 0.1546910000000139
                },
                {
                    "name": "D#4",
                    "midi": 63,
                    "time": 428.0299970000096,
                    "velocity": 0.2283464566929134,
                    "duration": 0.1546910000000139
                },
                {
                    "name": "F4",
                    "midi": 65,
                    "time": 428.1846880000096,
                    "velocity": 0.2283464566929134,
                    "duration": 0.1546910000000139
                },
                {
                    "name": "A3",
                    "midi": 57,
                    "time": 428.3393790000096,
                    "velocity": 0.2677165354330709,
                    "duration": 0.1546910000000139
                },
                {
                    "name": "D#4",
                    "midi": 63,
                    "time": 428.49407000000963,
                    "velocity": 0.23622047244094488,
                    "duration": 0.1546910000000139
                },
                {
                    "name": "F4",
                    "midi": 65,
                    "time": 428.64876100000964,
                    "velocity": 0.23622047244094488,
                    "duration": 0.1546910000000139
                },
                {
                    "name": "A#3",
                    "midi": 58,
                    "time": 428.80345200000966,
                    "velocity": 0.2677165354330709,
                    "duration": 0.1546910000000139
                },
                {
                    "name": "D4",
                    "midi": 62,
                    "time": 428.95814300000967,
                    "velocity": 0.2440944881889764,
                    "duration": 0.1546910000000139
                },
                {
                    "name": "F4",
                    "midi": 65,
                    "time": 429.1128340000097,
                    "velocity": 0.2440944881889764,
                    "duration": 0.1546910000000139
                },
                {
                    "name": "A#3",
                    "midi": 58,
                    "time": 429.2675250000097,
                    "velocity": 0.2677165354330709,
                    "duration": 0.15469099999995706
                },
                {
                    "name": "D4",
                    "midi": 62,
                    "time": 429.42221600000966,
                    "velocity": 0.23622047244094488,
                    "duration": 0.1546910000000139
                },
                {
                    "name": "F4",
                    "midi": 65,
                    "time": 429.57690700000967,
                    "velocity": 0.23622047244094488,
                    "duration": 0.1546910000000139
                },
                {
                    "name": "A#3",
                    "midi": 58,
                    "time": 429.7315980000097,
                    "velocity": 0.2677165354330709,
                    "duration": 0.1546910000000139
                },
                {
                    "name": "D4",
                    "midi": 62,
                    "time": 429.8862890000097,
                    "velocity": 0.2283464566929134,
                    "duration": 0.1546910000000139
                },
                {
                    "name": "F4",
                    "midi": 65,
                    "time": 430.0409800000097,
                    "velocity": 0.2283464566929134,
                    "duration": 0.1546910000000139
                },
                {
                    "name": "A3",
                    "midi": 57,
                    "time": 430.1956710000097,
                    "velocity": 0.2677165354330709,
                    "duration": 0.15469100000007074
                },
                {
                    "name": "C4",
                    "midi": 60,
                    "time": 430.3503620000098,
                    "velocity": 0.23622047244094488,
                    "duration": 0.1546910000000139
                },
                {
                    "name": "F4",
                    "midi": 65,
                    "time": 430.5050530000098,
                    "velocity": 0.23622047244094488,
                    "duration": 0.1546910000000139
                },
                {
                    "name": "G3",
                    "midi": 55,
                    "time": 430.6597440000098,
                    "velocity": 0.2677165354330709,
                    "duration": 0.15469100000007074
                },
                {
                    "name": "A#3",
                    "midi": 58,
                    "time": 430.8144350000099,
                    "velocity": 0.23622047244094488,
                    "duration": 0.1546910000000139
                },
                {
                    "name": "D4",
                    "midi": 62,
                    "time": 430.9691260000099,
                    "velocity": 0.23622047244094488,
                    "duration": 0.1546910000000139
                },
                {
                    "name": "G3",
                    "midi": 55,
                    "time": 431.1238170000099,
                    "velocity": 0.2677165354330709,
                    "duration": 0.1546910000000139
                },
                {
                    "name": "A#3",
                    "midi": 58,
                    "time": 431.27850800000994,
                    "velocity": 0.23622047244094488,
                    "duration": 0.1546910000000139
                },
                {
                    "name": "E4",
                    "midi": 64,
                    "time": 431.43319900000995,
                    "velocity": 0.23622047244094488,
                    "duration": 0.1546910000000139
                },
                {
                    "name": "F3",
                    "midi": 53,
                    "time": 431.58789000000996,
                    "velocity": 0.2677165354330709,
                    "duration": 0.1546910000000139
                },
                {
                    "name": "A#3",
                    "midi": 58,
                    "time": 431.74258100001,
                    "velocity": 0.2283464566929134,
                    "duration": 0.1546910000000139
                },
                {
                    "name": "F4",
                    "midi": 65,
                    "time": 431.89727200001,
                    "velocity": 0.2283464566929134,
                    "duration": 0.1546910000000139
                },
                {
                    "name": "F3",
                    "midi": 53,
                    "time": 432.05196300001,
                    "velocity": 0.2677165354330709,
                    "duration": 0.1546910000000139
                },
                {
                    "name": "A3",
                    "midi": 57,
                    "time": 432.20665400001,
                    "velocity": 0.23622047244094488,
                    "duration": 0.1546910000000139
                },
                {
                    "name": "F4",
                    "midi": 65,
                    "time": 432.36134500001003,
                    "velocity": 0.23622047244094488,
                    "duration": 0.1546910000000139
                },
                {
                    "name": "A#2",
                    "midi": 46,
                    "time": 432.51603600001005,
                    "velocity": 0.2677165354330709,
                    "duration": 0.07734549999997853
                },
                {
                    "name": "D4",
                    "midi": 62,
                    "time": 432.67072700001,
                    "velocity": 0.2440944881889764,
                    "duration": 0.1546910000000139
                },
                {
                    "name": "F4",
                    "midi": 65,
                    "time": 432.82541800001,
                    "velocity": 0.2440944881889764,
                    "duration": 0.1546910000000139
                },
                {
                    "name": "A#3",
                    "midi": 58,
                    "time": 432.98010900001003,
                    "velocity": 0.2677165354330709,
                    "duration": 0.1546910000000139
                },
                {
                    "name": "D4",
                    "midi": 62,
                    "time": 433.13480000001005,
                    "velocity": 0.23622047244094488,
                    "duration": 0.1546910000000139
                },
                {
                    "name": "F4",
                    "midi": 65,
                    "time": 433.28949100001006,
                    "velocity": 0.23622047244094488,
                    "duration": 0.1546910000000139
                },
                {
                    "name": "A#3",
                    "midi": 58,
                    "time": 433.4441820000101,
                    "velocity": 0.2677165354330709,
                    "duration": 0.1546910000000139
                },
                {
                    "name": "D4",
                    "midi": 62,
                    "time": 433.5988730000101,
                    "velocity": 0.2283464566929134,
                    "duration": 0.1546910000000139
                },
                {
                    "name": "F4",
                    "midi": 65,
                    "time": 433.7535640000101,
                    "velocity": 0.2283464566929134,
                    "duration": 0.1546910000000139
                },
                {
                    "name": "A#3",
                    "midi": 58,
                    "time": 433.9082550000101,
                    "velocity": 0.2677165354330709,
                    "duration": 0.1546910000000139
                },
                {
                    "name": "D4",
                    "midi": 62,
                    "time": 434.06294600001013,
                    "velocity": 0.23622047244094488,
                    "duration": 0.1546910000000139
                },
                {
                    "name": "F4",
                    "midi": 65,
                    "time": 434.21763700001014,
                    "velocity": 0.23622047244094488,
                    "duration": 0.1546910000000139
                },
                {
                    "name": "A#3",
                    "midi": 58,
                    "time": 434.37232800001016,
                    "velocity": 0.2677165354330709,
                    "duration": 0.15469100000007074
                },
                {
                    "name": "D4",
                    "midi": 62,
                    "time": 434.5270190000102,
                    "velocity": 0.23622047244094488,
                    "duration": 0.1546910000000139
                },
                {
                    "name": "F4",
                    "midi": 65,
                    "time": 434.68171000001024,
                    "velocity": 0.23622047244094488,
                    "duration": 0.1546910000000139
                },
                {
                    "name": "G#3",
                    "midi": 56,
                    "time": 434.83640100001026,
                    "velocity": 0.2677165354330709,
                    "duration": 0.15469099999995706
                },
                {
                    "name": "D4",
                    "midi": 62,
                    "time": 434.9910920000102,
                    "velocity": 0.23622047244094488,
                    "duration": 0.1546910000000139
                },
                {
                    "name": "F4",
                    "midi": 65,
                    "time": 435.1457830000102,
                    "velocity": 0.23622047244094488,
                    "duration": 0.1546910000000139
                },
                {
                    "name": "G3",
                    "midi": 55,
                    "time": 435.30047400001024,
                    "velocity": 0.2677165354330709,
                    "duration": 0.15469099999995706
                },
                {
                    "name": "D#4",
                    "midi": 63,
                    "time": 435.4551650000102,
                    "velocity": 0.2283464566929134,
                    "duration": 0.1546910000000139
                },
                {
                    "name": "F4",
                    "midi": 65,
                    "time": 435.6098560000102,
                    "velocity": 0.2283464566929134,
                    "duration": 0.1546910000000139
                },
                {
                    "name": "A3",
                    "midi": 57,
                    "time": 435.7645470000102,
                    "velocity": 0.2677165354330709,
                    "duration": 0.15469100000007074
                },
                {
                    "name": "D#4",
                    "midi": 63,
                    "time": 435.9192380000103,
                    "velocity": 0.23622047244094488,
                    "duration": 0.1546910000000139
                },
                {
                    "name": "F4",
                    "midi": 65,
                    "time": 436.0739290000103,
                    "velocity": 0.23622047244094488,
                    "duration": 0.1546910000000139
                },
                {
                    "name": "A#3",
                    "midi": 58,
                    "time": 436.2286200000103,
                    "velocity": 0.2677165354330709,
                    "duration": 0.15469099999995706
                },
                {
                    "name": "D4",
                    "midi": 62,
                    "time": 436.3833110000103,
                    "velocity": 0.2440944881889764,
                    "duration": 0.1546910000000139
                },
                {
                    "name": "F4",
                    "midi": 65,
                    "time": 436.5380020000103,
                    "velocity": 0.2440944881889764,
                    "duration": 0.1546910000000139
                },
                {
                    "name": "A#3",
                    "midi": 58,
                    "time": 436.6926930000103,
                    "velocity": 0.2677165354330709,
                    "duration": 0.15469099999995706
                },
                {
                    "name": "D4",
                    "midi": 62,
                    "time": 436.84738400001027,
                    "velocity": 0.23622047244094488,
                    "duration": 0.1546910000000139
                },
                {
                    "name": "F4",
                    "midi": 65,
                    "time": 437.0020750000103,
                    "velocity": 0.23622047244094488,
                    "duration": 0.1546910000000139
                },
                {
                    "name": "A#3",
                    "midi": 58,
                    "time": 437.1567660000103,
                    "velocity": 0.2677165354330709,
                    "duration": 0.1546910000000139
                },
                {
                    "name": "D4",
                    "midi": 62,
                    "time": 437.3114570000103,
                    "velocity": 0.2283464566929134,
                    "duration": 0.1546910000000139
                },
                {
                    "name": "F4",
                    "midi": 65,
                    "time": 437.4661480000103,
                    "velocity": 0.2283464566929134,
                    "duration": 0.1546910000000139
                },
                {
                    "name": "A3",
                    "midi": 57,
                    "time": 437.62083900001033,
                    "velocity": 0.2677165354330709,
                    "duration": 0.1546910000000139
                },
                {
                    "name": "C4",
                    "midi": 60,
                    "time": 437.77553000001035,
                    "velocity": 0.23622047244094488,
                    "duration": 0.1546910000000139
                },
                {
                    "name": "F4",
                    "midi": 65,
                    "time": 437.93022100001036,
                    "velocity": 0.23622047244094488,
                    "duration": 0.1546910000000139
                },
                {
                    "name": "G3",
                    "midi": 55,
                    "time": 438.0849120000104,
                    "velocity": 0.2677165354330709,
                    "duration": 0.1546910000000139
                },
                {
                    "name": "A#3",
                    "midi": 58,
                    "time": 438.2396030000104,
                    "velocity": 0.23622047244094488,
                    "duration": 0.1546910000000139
                },
                {
                    "name": "D4",
                    "midi": 62,
                    "time": 438.3942940000104,
                    "velocity": 0.23622047244094488,
                    "duration": 0.1546910000000139
                },
                {
                    "name": "G3",
                    "midi": 55,
                    "time": 438.5489850000104,
                    "velocity": 0.2677165354330709,
                    "duration": 0.1546910000000139
                },
                {
                    "name": "A#3",
                    "midi": 58,
                    "time": 438.70367600001043,
                    "velocity": 0.23622047244094488,
                    "duration": 0.1546910000000139
                },
                {
                    "name": "E4",
                    "midi": 64,
                    "time": 438.85836700001045,
                    "velocity": 0.23622047244094488,
                    "duration": 0.1546910000000139
                },
                {
                    "name": "F3",
                    "midi": 53,
                    "time": 439.01305800001046,
                    "velocity": 0.2677165354330709,
                    "duration": 0.1546910000000139
                },
                {
                    "name": "A#3",
                    "midi": 58,
                    "time": 439.1677490000105,
                    "velocity": 0.2283464566929134,
                    "duration": 0.1546910000000139
                },
                {
                    "name": "F4",
                    "midi": 65,
                    "time": 439.3224400000105,
                    "velocity": 0.2283464566929134,
                    "duration": 0.1546910000000139
                },
                {
                    "name": "F3",
                    "midi": 53,
                    "time": 439.4771310000105,
                    "velocity": 0.2677165354330709,
                    "duration": 0.1546910000000139
                },
                {
                    "name": "A3",
                    "midi": 57,
                    "time": 439.6318220000105,
                    "velocity": 0.23622047244094488,
                    "duration": 0.1546910000000139
                },
                {
                    "name": "F4",
                    "midi": 65,
                    "time": 439.78651300001053,
                    "velocity": 0.23622047244094488,
                    "duration": 0.1546910000000139
                },
                {
                    "name": "A#2",
                    "midi": 46,
                    "time": 439.94120400001054,
                    "velocity": 0.2677165354330709,
                    "duration": 0.07734549999997853
                },
                {
                    "name": "D4",
                    "midi": 62,
                    "time": 440.0958950000105,
                    "velocity": 0.2440944881889764,
                    "duration": 0.1546910000000139
                },
                {
                    "name": "F4",
                    "midi": 65,
                    "time": 440.2505860000105,
                    "velocity": 0.2440944881889764,
                    "duration": 0.1546910000000139
                },
                {
                    "name": "A#3",
                    "midi": 58,
                    "time": 440.4052770000105,
                    "velocity": 0.2677165354330709,
                    "duration": 0.15469099999995706
                },
                {
                    "name": "D4",
                    "midi": 62,
                    "time": 440.5599680000105,
                    "velocity": 0.23622047244094488,
                    "duration": 0.1546910000000139
                },
                {
                    "name": "F4",
                    "midi": 65,
                    "time": 440.7146590000105,
                    "velocity": 0.23622047244094488,
                    "duration": 0.1546910000000139
                },
                {
                    "name": "A#3",
                    "midi": 58,
                    "time": 440.8693500000105,
                    "velocity": 0.2677165354330709,
                    "duration": 0.1546910000000139
                },
                {
                    "name": "D4",
                    "midi": 62,
                    "time": 441.0240410000105,
                    "velocity": 0.2283464566929134,
                    "duration": 0.1546910000000139
                },
                {
                    "name": "F4",
                    "midi": 65,
                    "time": 441.17873200001054,
                    "velocity": 0.2283464566929134,
                    "duration": 0.1546910000000139
                },
                {
                    "name": "B3",
                    "midi": 59,
                    "time": 441.33342300001055,
                    "velocity": 0.2677165354330709,
                    "duration": 0.15469099999995706
                },
                {
                    "name": "D4",
                    "midi": 62,
                    "time": 441.4881140000105,
                    "velocity": 0.23622047244094488,
                    "duration": 0.1546910000000139
                },
                {
                    "name": "F4",
                    "midi": 65,
                    "time": 441.6428050000105,
                    "velocity": 0.23622047244094488,
                    "duration": 0.1546910000000139
                },
                {
                    "name": "A#3",
                    "midi": 58,
                    "time": 441.79749600001054,
                    "velocity": 0.2677165354330709,
                    "duration": 0.1546910000000139
                },
                {
                    "name": "D4",
                    "midi": 62,
                    "time": 441.95218700001055,
                    "velocity": 0.23622047244094488,
                    "duration": 0.1546910000000139
                },
                {
                    "name": "F4",
                    "midi": 65,
                    "time": 442.10687800001057,
                    "velocity": 0.23622047244094488,
                    "duration": 0.1546910000000139
                },
                {
                    "name": "B3",
                    "midi": 59,
                    "time": 442.2615690000106,
                    "velocity": 0.2677165354330709,
                    "duration": 0.15469099999995706
                },
                {
                    "name": "D4",
                    "midi": 62,
                    "time": 442.41626000001054,
                    "velocity": 0.23622047244094488,
                    "duration": 0.1546910000000139
                },
                {
                    "name": "F4",
                    "midi": 65,
                    "time": 442.57095100001055,
                    "velocity": 0.23622047244094488,
                    "duration": 0.1546910000000139
                },
                {
                    "name": "A#3",
                    "midi": 58,
                    "time": 442.72564200001057,
                    "velocity": 0.2677165354330709,
                    "duration": 0.1546910000000139
                },
                {
                    "name": "D4",
                    "midi": 62,
                    "time": 442.8803330000106,
                    "velocity": 0.2283464566929134,
                    "duration": 0.1546910000000139
                },
                {
                    "name": "F4",
                    "midi": 65,
                    "time": 443.0350240000106,
                    "velocity": 0.2283464566929134,
                    "duration": 0.1546910000000139
                },
                {
                    "name": "G#3",
                    "midi": 56,
                    "time": 443.1897150000106,
                    "velocity": 0.2677165354330709,
                    "duration": 0.1546910000000139
                },
                {
                    "name": "C4",
                    "midi": 60,
                    "time": 443.3444060000106,
                    "velocity": 0.23622047244094488,
                    "duration": 0.1546910000000139
                },
                {
                    "name": "F#4",
                    "midi": 66,
                    "time": 443.49909700001064,
                    "velocity": 0.23622047244094488,
                    "duration": 0.1546910000000139
                },
                {
                    "name": "G3",
                    "midi": 55,
                    "time": 443.65378800001065,
                    "velocity": 0.2677165354330709,
                    "duration": 0.1546910000000139
                },
                {
                    "name": "B3",
                    "midi": 59,
                    "time": 443.80847900001066,
                    "velocity": 0.2204724409448819,
                    "duration": 0.1546910000000139
                },
                {
                    "name": "G4",
                    "midi": 67,
                    "time": 443.9631700000107,
                    "velocity": 0.2204724409448819,
                    "duration": 0.1546910000000139
                },
                {
                    "name": "G3",
                    "midi": 55,
                    "time": 444.1178610000107,
                    "velocity": 0.25984251968503935,
                    "duration": 0.1546910000000139
                },
                {
                    "name": "C4",
                    "midi": 60,
                    "time": 444.2725520000107,
                    "velocity": 0.2204724409448819,
                    "duration": 0.1546910000000139
                },
                {
                    "name": "D#4",
                    "midi": 63,
                    "time": 444.4272430000107,
                    "velocity": 0.2204724409448819,
                    "duration": 0.1546910000000139
                },
                {
                    "name": "G3",
                    "midi": 55,
                    "time": 444.58193400001073,
                    "velocity": 0.2440944881889764,
                    "duration": 0.1546910000000139
                },
                {
                    "name": "B3",
                    "midi": 59,
                    "time": 444.73662500001075,
                    "velocity": 0.2047244094488189,
                    "duration": 0.1546910000000139
                },
                {
                    "name": "D4",
                    "midi": 62,
                    "time": 444.89131600001076,
                    "velocity": 0.2047244094488189,
                    "duration": 0.1546910000000139
                },
                {
                    "name": "G3",
                    "midi": 55,
                    "time": 445.0460070000108,
                    "velocity": 0.23622047244094488,
                    "duration": 0.1546910000000139
                },
                {
                    "name": "C4",
                    "midi": 60,
                    "time": 445.2006980000108,
                    "velocity": 0.2047244094488189,
                    "duration": 0.1546910000000139
                },
                {
                    "name": "D#4",
                    "midi": 63,
                    "time": 445.3553890000108,
                    "velocity": 0.2047244094488189,
                    "duration": 0.1546910000000139
                },
                {
                    "name": "G3",
                    "midi": 55,
                    "time": 445.5100800000108,
                    "velocity": 0.2283464566929134,
                    "duration": 0.1546910000000139
                },
                {
                    "name": "B3",
                    "midi": 59,
                    "time": 445.66477100001083,
                    "velocity": 0.2125984251968504,
                    "duration": 0.1546910000000139
                },
                {
                    "name": "D4",
                    "midi": 62,
                    "time": 445.81946200001084,
                    "velocity": 0.2204724409448819,
                    "duration": 0.1546910000000139
                },
                {
                    "name": "G3",
                    "midi": 55,
                    "time": 445.97415300001086,
                    "velocity": 0.2677165354330709,
                    "duration": 0.15469100000007074
                },
                {
                    "name": "C4",
                    "midi": 60,
                    "time": 446.12884400001093,
                    "velocity": 0.23622047244094488,
                    "duration": 0.1546910000000139
                },
                {
                    "name": "D#4",
                    "midi": 63,
                    "time": 446.28353500001094,
                    "velocity": 0.23622047244094488,
                    "duration": 0.1546910000000139
                },
                {
                    "name": "G3",
                    "midi": 55,
                    "time": 446.43822600001096,
                    "velocity": 0.2677165354330709,
                    "duration": 0.1546910000000139
                },
                {
                    "name": "B3",
                    "midi": 59,
                    "time": 446.59291700001097,
                    "velocity": 0.2440944881889764,
                    "duration": 0.1546910000000139
                },
                {
                    "name": "D4",
                    "midi": 62,
                    "time": 446.747608000011,
                    "velocity": 0.2440944881889764,
                    "duration": 0.1546910000000139
                },
                {
                    "name": "G3",
                    "midi": 55,
                    "time": 446.902299000011,
                    "velocity": 0.2677165354330709,
                    "duration": 0.1546910000000139
                },
                {
                    "name": "C4",
                    "midi": 60,
                    "time": 447.056990000011,
                    "velocity": 0.2440944881889764,
                    "duration": 0.1546910000000139
                },
                {
                    "name": "D#4",
                    "midi": 63,
                    "time": 447.211681000011,
                    "velocity": 0.2440944881889764,
                    "duration": 0.1546910000000139
                },
                {
                    "name": "G3",
                    "midi": 55,
                    "time": 447.36637200001104,
                    "velocity": 0.2677165354330709,
                    "duration": 0.1546910000000139
                },
                {
                    "name": "B3",
                    "midi": 59,
                    "time": 447.52106300001105,
                    "velocity": 0.23622047244094488,
                    "duration": 0.1546910000000139
                },
                {
                    "name": "D4",
                    "midi": 62,
                    "time": 447.67575400001107,
                    "velocity": 0.23622047244094488,
                    "duration": 0.1546910000000139
                },
                {
                    "name": "G3",
                    "midi": 55,
                    "time": 447.8304450000111,
                    "velocity": 0.2677165354330709,
                    "duration": 0.1546910000000139
                },
                {
                    "name": "C4",
                    "midi": 60,
                    "time": 447.9851360000111,
                    "velocity": 0.23622047244094488,
                    "duration": 0.1546910000000139
                },
                {
                    "name": "D#4",
                    "midi": 63,
                    "time": 448.1398270000111,
                    "velocity": 0.23622047244094488,
                    "duration": 0.1546910000000139
                },
                {
                    "name": "G3",
                    "midi": 55,
                    "time": 448.2945180000111,
                    "velocity": 0.2677165354330709,
                    "duration": 0.1546910000000139
                },
                {
                    "name": "B3",
                    "midi": 59,
                    "time": 448.44920900001114,
                    "velocity": 0.2440944881889764,
                    "duration": 0.1546910000000139
                },
                {
                    "name": "D4",
                    "midi": 62,
                    "time": 448.60390000001115,
                    "velocity": 0.2440944881889764,
                    "duration": 0.1546910000000139
                },
                {
                    "name": "G3",
                    "midi": 55,
                    "time": 448.75859100001117,
                    "velocity": 0.2677165354330709,
                    "duration": 0.1546910000000139
                },
                {
                    "name": "C4",
                    "midi": 60,
                    "time": 448.9132820000112,
                    "velocity": 0.2440944881889764,
                    "duration": 0.1546910000000139
                },
                {
                    "name": "D#4",
                    "midi": 63,
                    "time": 449.0679730000112,
                    "velocity": 0.2440944881889764,
                    "duration": 0.1546910000000139
                },
                {
                    "name": "G3",
                    "midi": 55,
                    "time": 449.2226640000112,
                    "velocity": 0.2677165354330709,
                    "duration": 0.1546910000000139
                },
                {
                    "name": "B3",
                    "midi": 59,
                    "time": 449.3773550000112,
                    "velocity": 0.23622047244094488,
                    "duration": 0.1546910000000139
                },
                {
                    "name": "D4",
                    "midi": 62,
                    "time": 449.53204600001123,
                    "velocity": 0.23622047244094488,
                    "duration": 0.1546910000000139
                },
                {
                    "name": "G3",
                    "midi": 55,
                    "time": 449.68673700001125,
                    "velocity": 0.2677165354330709,
                    "duration": 0.1546910000000139
                },
                {
                    "name": "C4",
                    "midi": 60,
                    "time": 449.84142800001126,
                    "velocity": 0.23622047244094488,
                    "duration": 0.1546910000000139
                },
                {
                    "name": "D#4",
                    "midi": 63,
                    "time": 449.9961190000113,
                    "velocity": 0.23622047244094488,
                    "duration": 0.1546910000000139
                },
                {
                    "name": "G3",
                    "midi": 55,
                    "time": 450.1508100000113,
                    "velocity": 0.2677165354330709,
                    "duration": 0.1546910000000139
                },
                {
                    "name": "B3",
                    "midi": 59,
                    "time": 450.3055010000113,
                    "velocity": 0.2440944881889764,
                    "duration": 0.1546910000000139
                },
                {
                    "name": "D4",
                    "midi": 62,
                    "time": 450.4601920000113,
                    "velocity": 0.2440944881889764,
                    "duration": 0.1546910000000139
                },
                {
                    "name": "G3",
                    "midi": 55,
                    "time": 450.61488300001133,
                    "velocity": 0.2677165354330709,
                    "duration": 0.1546910000000139
                },
                {
                    "name": "C4",
                    "midi": 60,
                    "time": 450.76957400001135,
                    "velocity": 0.2440944881889764,
                    "duration": 0.1546910000000139
                },
                {
                    "name": "D#4",
                    "midi": 63,
                    "time": 450.92426500001136,
                    "velocity": 0.2440944881889764,
                    "duration": 0.1546910000000139
                },
                {
                    "name": "G3",
                    "midi": 55,
                    "time": 451.0789560000114,
                    "velocity": 0.2677165354330709,
                    "duration": 0.1546910000000139
                },
                {
                    "name": "B3",
                    "midi": 59,
                    "time": 451.2336470000114,
                    "velocity": 0.23622047244094488,
                    "duration": 0.1546910000000139
                },
                {
                    "name": "D4",
                    "midi": 62,
                    "time": 451.3883380000114,
                    "velocity": 0.23622047244094488,
                    "duration": 0.1546910000000139
                },
                {
                    "name": "G3",
                    "midi": 55,
                    "time": 451.5430290000114,
                    "velocity": 0.2677165354330709,
                    "duration": 0.1546910000000139
                },
                {
                    "name": "C4",
                    "midi": 60,
                    "time": 451.69772000001143,
                    "velocity": 0.23622047244094488,
                    "duration": 0.1546910000000139
                },
                {
                    "name": "D#4",
                    "midi": 63,
                    "time": 451.85241100001144,
                    "velocity": 0.23622047244094488,
                    "duration": 0.1546910000000139
                },
                {
                    "name": "G3",
                    "midi": 55,
                    "time": 452.00710200001146,
                    "velocity": 0.2677165354330709,
                    "duration": 0.1546910000000139
                },
                {
                    "name": "B3",
                    "midi": 59,
                    "time": 452.16179300001147,
                    "velocity": 0.2440944881889764,
                    "duration": 0.1546910000000139
                },
                {
                    "name": "D4",
                    "midi": 62,
                    "time": 452.3164840000115,
                    "velocity": 0.2440944881889764,
                    "duration": 0.1546910000000139
                },
                {
                    "name": "G3",
                    "midi": 55,
                    "time": 452.4711750000115,
                    "velocity": 0.2677165354330709,
                    "duration": 0.1546910000000139
                },
                {
                    "name": "C4",
                    "midi": 60,
                    "time": 452.6258660000115,
                    "velocity": 0.2440944881889764,
                    "duration": 0.1546910000000139
                },
                {
                    "name": "D#4",
                    "midi": 63,
                    "time": 452.7805570000115,
                    "velocity": 0.2440944881889764,
                    "duration": 0.1546910000000139
                },
                {
                    "name": "G3",
                    "midi": 55,
                    "time": 452.93524800001154,
                    "velocity": 0.2677165354330709,
                    "duration": 0.1546910000000139
                },
                {
                    "name": "B3",
                    "midi": 59,
                    "time": 453.08993900001155,
                    "velocity": 0.2440944881889764,
                    "duration": 0.1546910000000139
                },
                {
                    "name": "D4",
                    "midi": 62,
                    "time": 453.24463000001157,
                    "velocity": 0.2440944881889764,
                    "duration": 0.1546910000000139
                },
                {
                    "name": "G3",
                    "midi": 55,
                    "time": 453.3993210000116,
                    "velocity": 0.2677165354330709,
                    "duration": 0.1546910000000139
                },
                {
                    "name": "C4",
                    "midi": 60,
                    "time": 453.5540120000116,
                    "velocity": 0.2440944881889764,
                    "duration": 0.1546910000000139
                },
                {
                    "name": "D#4",
                    "midi": 63,
                    "time": 453.7087030000116,
                    "velocity": 0.2440944881889764,
                    "duration": 0.1546910000000139
                },
                {
                    "name": "D4",
                    "midi": 62,
                    "time": 453.8633940000116,
                    "velocity": 0.2677165354330709,
                    "duration": 0.23203649999999243
                },
                {
                    "name": "B3",
                    "midi": 59,
                    "time": 453.8633940000116,
                    "velocity": 0.2677165354330709,
                    "duration": 0.23203649999999243
                },
                {
                    "name": "G3",
                    "midi": 55,
                    "time": 453.8633940000116,
                    "velocity": 0.2677165354330709,
                    "duration": 0.23203649999999243
                },
                {
                    "name": "G4",
                    "midi": 67,
                    "time": 454.3274670000116,
                    "velocity": 0.7401574803149606,
                    "duration": 1.3922190000000114
                },
                {
                    "name": "G3",
                    "midi": 55,
                    "time": 454.3274670000116,
                    "velocity": 0.6141732283464567,
                    "duration": 1.3922190000000114
                },
                {
                    "name": "G3",
                    "midi": 55,
                    "time": 455.7196860000116,
                    "velocity": 0.29133858267716534,
                    "duration": 0.23203649999999243
                },
                {
                    "name": "G4",
                    "midi": 67,
                    "time": 455.9517225000116,
                    "velocity": 0.2204724409448819,
                    "duration": 0.11601825000002464
                },
                {
                    "name": "F4",
                    "midi": 65,
                    "time": 456.18375900001166,
                    "velocity": 0.2204724409448819,
                    "duration": 0.11601825000002464
                },
                {
                    "name": "D4",
                    "midi": 62,
                    "time": 456.18375900001166,
                    "velocity": 0.18110236220472442,
                    "duration": 0.11601825000002464
                },
                {
                    "name": "G4",
                    "midi": 67,
                    "time": 456.4157955000117,
                    "velocity": 0.2204724409448819,
                    "duration": 0.11601825000002464
                },
                {
                    "name": "G3",
                    "midi": 55,
                    "time": 456.64783200001176,
                    "velocity": 0.2992125984251969,
                    "duration": 0.23203649999999243
                },
                {
                    "name": "G4",
                    "midi": 67,
                    "time": 456.87986850001175,
                    "velocity": 0.1968503937007874,
                    "duration": 0.11601825000002464
                },
                {
                    "name": "C4",
                    "midi": 60,
                    "time": 457.1119050000118,
                    "velocity": 0.2047244094488189,
                    "duration": 0.11601825000002464
                },
                {
                    "name": "D#4",
                    "midi": 63,
                    "time": 457.1119050000118,
                    "velocity": 0.2440944881889764,
                    "duration": 0.11601825000002464
                },
                {
                    "name": "G4",
                    "midi": 67,
                    "time": 457.34394150001185,
                    "velocity": 0.2204724409448819,
                    "duration": 0.23203649999999243
                },
                {
                    "name": "G3",
                    "midi": 55,
                    "time": 457.57597800001184,
                    "velocity": 0.29133858267716534,
                    "duration": 0.23203649999999243
                },
                {
                    "name": "G4",
                    "midi": 67,
                    "time": 457.80801450001184,
                    "velocity": 0.2204724409448819,
                    "duration": 0.11601825000002464
                },
                {
                    "name": "F4",
                    "midi": 65,
                    "time": 458.0400510000119,
                    "velocity": 0.2204724409448819,
                    "duration": 0.11601825000002464
                },
                {
                    "name": "D4",
                    "midi": 62,
                    "time": 458.0400510000119,
                    "velocity": 0.18110236220472442,
                    "duration": 0.11601825000002464
                },
                {
                    "name": "G4",
                    "midi": 67,
                    "time": 458.27208750001193,
                    "velocity": 0.2047244094488189,
                    "duration": 0.11601825000002464
                },
                {
                    "name": "G3",
                    "midi": 55,
                    "time": 458.504124000012,
                    "velocity": 0.2992125984251969,
                    "duration": 0.23203649999999243
                },
                {
                    "name": "G4",
                    "midi": 67,
                    "time": 458.736160500012,
                    "velocity": 0.2204724409448819,
                    "duration": 0.11601825000002464
                },
                {
                    "name": "C4",
                    "midi": 60,
                    "time": 458.968197000012,
                    "velocity": 0.2047244094488189,
                    "duration": 0.11601825000002464
                },
                {
                    "name": "D#4",
                    "midi": 63,
                    "time": 458.968197000012,
                    "velocity": 0.2440944881889764,
                    "duration": 0.11601825000002464
                },
                {
                    "name": "G4",
                    "midi": 67,
                    "time": 459.2002335000121,
                    "velocity": 0.2440944881889764,
                    "duration": 0.11601825000002464
                },
                {
                    "name": "F#4",
                    "midi": 66,
                    "time": 459.4322700000121,
                    "velocity": 0.5275590551181102,
                    "duration": 1.8562919999999963
                },
                {
                    "name": "F#3",
                    "midi": 54,
                    "time": 459.4322700000121,
                    "velocity": 0.4330708661417323,
                    "duration": 1.8562919999999963
                },
                {
                    "name": "F#3",
                    "midi": 54,
                    "time": 461.2885620000121,
                    "velocity": 0.29133858267716534,
                    "duration": 0.23203649999999243
                },
                {
                    "name": "F#4",
                    "midi": 66,
                    "time": 461.5205985000121,
                    "velocity": 0.2125984251968504,
                    "duration": 0.11601825000002464
                },
                {
                    "name": "D#4",
                    "midi": 63,
                    "time": 461.75263500001216,
                    "velocity": 0.2125984251968504,
                    "duration": 0.11601825000002464
                },
                {
                    "name": "G#3",
                    "midi": 56,
                    "time": 461.75263500001216,
                    "velocity": 0.1732283464566929,
                    "duration": 0.11601825000002464
                },
                {
                    "name": "F#4",
                    "midi": 66,
                    "time": 461.9846715000122,
                    "velocity": 0.2204724409448819,
                    "duration": 0.11601825000002464
                },
                {
                    "name": "F#3",
                    "midi": 54,
                    "time": 462.21670800001226,
                    "velocity": 0.29133858267716534,
                    "duration": 0.23203649999999243
                },
                {
                    "name": "F#4",
                    "midi": 66,
                    "time": 462.44874450001225,
                    "velocity": 0.1889763779527559,
                    "duration": 0.11601825000002464
                },
                {
                    "name": "A3",
                    "midi": 57,
                    "time": 462.6807810000123,
                    "velocity": 0.1889763779527559,
                    "duration": 0.11601825000002464
                },
                {
                    "name": "D#4",
                    "midi": 63,
                    "time": 462.6807810000123,
                    "velocity": 0.2283464566929134,
                    "duration": 0.11601825000002464
                },
                {
                    "name": "F#4",
                    "midi": 66,
                    "time": 462.91281750001235,
                    "velocity": 0.2125984251968504,
                    "duration": 0.23203649999999243
                },
                {
                    "name": "F#3",
                    "midi": 54,
                    "time": 463.14485400001234,
                    "velocity": 0.2755905511811024,
                    "duration": 0.23203649999999243
                },
                {
                    "name": "F#4",
                    "midi": 66,
                    "time": 463.37689050001234,
                    "velocity": 0.2047244094488189,
                    "duration": 0.11601825000002464
                },
                {
                    "name": "D#4",
                    "midi": 63,
                    "time": 463.6089270000124,
                    "velocity": 0.1968503937007874,
                    "duration": 0.11601825000002464
                },
                {
                    "name": "G#3",
                    "midi": 56,
                    "time": 463.6089270000124,
                    "velocity": 0.16535433070866143,
                    "duration": 0.11601825000002464
                },
                {
                    "name": "F#4",
                    "midi": 66,
                    "time": 463.84096350001244,
                    "velocity": 0.1889763779527559,
                    "duration": 0.11601825000002464
                },
                {
                    "name": "F#3",
                    "midi": 54,
                    "time": 464.0730000000125,
                    "velocity": 0.28346456692913385,
                    "duration": 0.23203649999999243
                },
                {
                    "name": "F#4",
                    "midi": 66,
                    "time": 464.3050365000125,
                    "velocity": 0.2047244094488189,
                    "duration": 0.11601825000002464
                },
                {
                    "name": "A3",
                    "midi": 57,
                    "time": 464.5370730000125,
                    "velocity": 0.18110236220472442,
                    "duration": 0.11601825000002464
                },
                {
                    "name": "D#4",
                    "midi": 63,
                    "time": 464.5370730000125,
                    "velocity": 0.2204724409448819,
                    "duration": 0.11601825000002464
                },
                {
                    "name": "F#4",
                    "midi": 66,
                    "time": 464.7691095000126,
                    "velocity": 0.2204724409448819,
                    "duration": 0.11601825000002464
                },
                {
                    "name": "F4",
                    "midi": 65,
                    "time": 465.0011460000126,
                    "velocity": 0.4645669291338583,
                    "duration": 1.8562919999999963
                },
                {
                    "name": "F3",
                    "midi": 53,
                    "time": 465.0011460000126,
                    "velocity": 0.3937007874015748,
                    "duration": 1.8562919999999963
                },
                {
                    "name": "F3",
                    "midi": 53,
                    "time": 466.8574380000126,
                    "velocity": 0.2755905511811024,
                    "duration": 0.23203649999999243
                },
                {
                    "name": "F4",
                    "midi": 65,
                    "time": 467.0894745000126,
                    "velocity": 0.2283464566929134,
                    "duration": 0.11601825000002464
                },
                {
                    "name": "D4",
                    "midi": 62,
                    "time": 467.32151100001266,
                    "velocity": 0.2283464566929134,
                    "duration": 0.11601825000002464
                },
                {
                    "name": "G#3",
                    "midi": 56,
                    "time": 467.32151100001266,
                    "velocity": 0.1889763779527559,
                    "duration": 0.11601825000002464
                },
                {
                    "name": "F4",
                    "midi": 65,
                    "time": 467.5535475000127,
                    "velocity": 0.23622047244094488,
                    "duration": 0.11601825000002464
                },
                {
                    "name": "F3",
                    "midi": 53,
                    "time": 467.78558400001276,
                    "velocity": 0.28346456692913385,
                    "duration": 0.23203649999999243
                },
                {
                    "name": "F4",
                    "midi": 65,
                    "time": 468.01762050001275,
                    "velocity": 0.18110236220472442,
                    "duration": 0.11601825000002464
                },
                {
                    "name": "A3",
                    "midi": 57,
                    "time": 468.2496570000128,
                    "velocity": 0.1889763779527559,
                    "duration": 0.11601825000002464
                },
                {
                    "name": "D#4",
                    "midi": 63,
                    "time": 468.2496570000128,
                    "velocity": 0.2283464566929134,
                    "duration": 0.11601825000002464
                },
                {
                    "name": "F4",
                    "midi": 65,
                    "time": 468.48169350001285,
                    "velocity": 0.2125984251968504,
                    "duration": 0.23203649999999243
                },
                {
                    "name": "F3",
                    "midi": 53,
                    "time": 468.71373000001284,
                    "velocity": 0.2755905511811024,
                    "duration": 0.23203649999999243
                },
                {
                    "name": "F4",
                    "midi": 65,
                    "time": 468.94576650001284,
                    "velocity": 0.2283464566929134,
                    "duration": 0.11601825000002464
                },
                {
                    "name": "D4",
                    "midi": 62,
                    "time": 469.1778030000129,
                    "velocity": 0.2283464566929134,
                    "duration": 0.11601825000002464
                },
                {
                    "name": "G#3",
                    "midi": 56,
                    "time": 469.1778030000129,
                    "velocity": 0.1889763779527559,
                    "duration": 0.11601825000002464
                },
                {
                    "name": "F4",
                    "midi": 65,
                    "time": 469.40983950001294,
                    "velocity": 0.2204724409448819,
                    "duration": 0.11601825000002464
                },
                {
                    "name": "F3",
                    "midi": 53,
                    "time": 469.641876000013,
                    "velocity": 0.28346456692913385,
                    "duration": 0.23203649999999243
                },
                {
                    "name": "F4",
                    "midi": 65,
                    "time": 469.873912500013,
                    "velocity": 0.2125984251968504,
                    "duration": 0.11601825000002464
                },
                {
                    "name": "A3",
                    "midi": 57,
                    "time": 470.105949000013,
                    "velocity": 0.2283464566929134,
                    "duration": 0.23203649999999243
                },
                {
                    "name": "D#4",
                    "midi": 63,
                    "time": 470.105949000013,
                    "velocity": 0.2755905511811024,
                    "duration": 0.23203649999999243
                },
                {
                    "name": "F4",
                    "midi": 65,
                    "time": 470.337985500013,
                    "velocity": 0.2755905511811024,
                    "duration": 0.23203649999999243
                },
                {
                    "name": "F3",
                    "midi": 53,
                    "time": 470.570022000013,
                    "velocity": 0.3464566929133858,
                    "duration": 0.23203649999999243
                },
                {
                    "name": "F4",
                    "midi": 65,
                    "time": 470.802058500013,
                    "velocity": 0.25984251968503935,
                    "duration": 0.23203649999999243
                },
                {
                    "name": "D4",
                    "midi": 62,
                    "time": 471.034095000013,
                    "velocity": 0.2755905511811024,
                    "duration": 0.23203649999999243
                },
                {
                    "name": "A#3",
                    "midi": 58,
                    "time": 471.034095000013,
                    "velocity": 0.2755905511811024,
                    "duration": 0.23203649999999243
                },
                {
                    "name": "F4",
                    "midi": 65,
                    "time": 471.266131500013,
                    "velocity": 0.25984251968503935,
                    "duration": 0.23203649999999243
                },
                {
                    "name": "F3",
                    "midi": 53,
                    "time": 471.498168000013,
                    "velocity": 0.29133858267716534,
                    "duration": 0.23203649999999243
                },
                {
                    "name": "F4",
                    "midi": 65,
                    "time": 471.730204500013,
                    "velocity": 0.25984251968503935,
                    "duration": 0.11601825000002464
                },
                {
                    "name": "A3",
                    "midi": 57,
                    "time": 471.962241000013,
                    "velocity": 0.2283464566929134,
                    "duration": 0.23203649999999243
                },
                {
                    "name": "D#4",
                    "midi": 63,
                    "time": 471.962241000013,
                    "velocity": 0.2755905511811024,
                    "duration": 0.23203649999999243
                },
                {
                    "name": "F4",
                    "midi": 65,
                    "time": 472.194277500013,
                    "velocity": 0.2755905511811024,
                    "duration": 0.23203649999999243
                },
                {
                    "name": "F3",
                    "midi": 53,
                    "time": 472.426314000013,
                    "velocity": 0.3464566929133858,
                    "duration": 0.23203649999999243
                },
                {
                    "name": "F4",
                    "midi": 65,
                    "time": 472.658350500013,
                    "velocity": 0.25984251968503935,
                    "duration": 0.23203649999999243
                },
                {
                    "name": "D4",
                    "midi": 62,
                    "time": 472.890387000013,
                    "velocity": 0.2755905511811024,
                    "duration": 0.23203649999999243
                },
                {
                    "name": "A#3",
                    "midi": 58,
                    "time": 472.890387000013,
                    "velocity": 0.2755905511811024,
                    "duration": 0.23203649999999243
                },
                {
                    "name": "F4",
                    "midi": 65,
                    "time": 473.122423500013,
                    "velocity": 0.25984251968503935,
                    "duration": 0.23203649999999243
                },
                {
                    "name": "F3",
                    "midi": 53,
                    "time": 473.354460000013,
                    "velocity": 0.29133858267716534,
                    "duration": 0.23203649999999243
                },
                {
                    "name": "F4",
                    "midi": 65,
                    "time": 473.58649650001297,
                    "velocity": 0.25984251968503935,
                    "duration": 0.23203649999999243
                },
                {
                    "name": "D#4",
                    "midi": 63,
                    "time": 473.81853300001296,
                    "velocity": 0.25984251968503935,
                    "duration": 0.23203650000004927
                },
                {
                    "name": "A3",
                    "midi": 57,
                    "time": 473.81853300001296,
                    "velocity": 0.25984251968503935,
                    "duration": 0.23203650000004927
                },
                {
                    "name": "F4",
                    "midi": 65,
                    "time": 474.050569500013,
                    "velocity": 0.25984251968503935,
                    "duration": 0.23203649999999243
                },
                {
                    "name": "F#4",
                    "midi": 66,
                    "time": 474.978715500013,
                    "velocity": 0.5590551181102362,
                    "duration": 0.23203649999999243
                },
                {
                    "name": "F#3",
                    "midi": 54,
                    "time": 474.978715500013,
                    "velocity": 0.4645669291338583,
                    "duration": 0.23203649999999243
                },
                {
                    "name": "G3",
                    "midi": 55,
                    "time": 475.210752000013,
                    "velocity": 0.5039370078740157,
                    "duration": 0.4640730000000417
                },
                {
                    "name": "G4",
                    "midi": 67,
                    "time": 475.210752000013,
                    "velocity": 0.5984251968503937,
                    "duration": 0.4640730000000417
                },
                {
                    "name": "D3",
                    "midi": 50,
                    "time": 475.674825000013,
                    "velocity": 0.4330708661417323,
                    "duration": 0.46407299999998486
                },
                {
                    "name": "D4",
                    "midi": 62,
                    "time": 475.674825000013,
                    "velocity": 0.5196850393700787,
                    "duration": 0.46407299999998486
                },
                {
                    "name": "D#3",
                    "midi": 51,
                    "time": 476.138898000013,
                    "velocity": 0.5118110236220472,
                    "duration": 0.46407299999998486
                },
                {
                    "name": "D#4",
                    "midi": 63,
                    "time": 476.138898000013,
                    "velocity": 0.6062992125984252,
                    "duration": 0.46407299999998486
                },
                {
                    "name": "A2",
                    "midi": 45,
                    "time": 476.602971000013,
                    "velocity": 0.4330708661417323,
                    "duration": 0.11601825000002464
                },
                {
                    "name": "A3",
                    "midi": 57,
                    "time": 476.602971000013,
                    "velocity": 0.5275590551181102,
                    "duration": 0.11601825000002464
                },
                {
                    "name": "A2",
                    "midi": 45,
                    "time": 476.83500750001303,
                    "velocity": 0.4330708661417323,
                    "duration": 0.11601825000002464
                },
                {
                    "name": "A3",
                    "midi": 57,
                    "time": 476.83500750001303,
                    "velocity": 0.5275590551181102,
                    "duration": 0.11601825000002464
                },
                {
                    "name": "A#2",
                    "midi": 46,
                    "time": 477.0670440000131,
                    "velocity": 0.5039370078740157,
                    "duration": 0.46407299999998486
                },
                {
                    "name": "A#3",
                    "midi": 58,
                    "time": 477.0670440000131,
                    "velocity": 0.5984251968503937,
                    "duration": 0.46407299999998486
                },
                {
                    "name": "F#2",
                    "midi": 42,
                    "time": 477.53111700001307,
                    "velocity": 0.4330708661417323,
                    "duration": 0.46407299999998486
                },
                {
                    "name": "F#3",
                    "midi": 54,
                    "time": 477.53111700001307,
                    "velocity": 0.5275590551181102,
                    "duration": 0.46407299999998486
                },
                {
                    "name": "G2",
                    "midi": 43,
                    "time": 477.99519000001305,
                    "velocity": 0.5039370078740157,
                    "duration": 0.46407299999998486
                },
                {
                    "name": "G3",
                    "midi": 55,
                    "time": 477.99519000001305,
                    "velocity": 0.5984251968503937,
                    "duration": 0.46407299999998486
                },
                {
                    "name": "D2",
                    "midi": 38,
                    "time": 478.45926300001304,
                    "velocity": 0.4330708661417323,
                    "duration": 0.11601825000002464
                },
                {
                    "name": "D3",
                    "midi": 50,
                    "time": 478.45926300001304,
                    "velocity": 0.5275590551181102,
                    "duration": 0.11601825000002464
                },
                {
                    "name": "D2",
                    "midi": 38,
                    "time": 478.6912995000131,
                    "velocity": 0.4330708661417323,
                    "duration": 0.11601825000002464
                },
                {
                    "name": "D3",
                    "midi": 50,
                    "time": 478.6912995000131,
                    "velocity": 0.5275590551181102,
                    "duration": 0.11601825000002464
                },
                {
                    "name": "D#2",
                    "midi": 39,
                    "time": 478.92333600001314,
                    "velocity": 0.5039370078740157,
                    "duration": 0.46407299999998486
                },
                {
                    "name": "D#3",
                    "midi": 51,
                    "time": 478.92333600001314,
                    "velocity": 0.5984251968503937,
                    "duration": 0.46407299999998486
                },
                {
                    "name": "C3",
                    "midi": 48,
                    "time": 479.3874090000131,
                    "velocity": 0.5275590551181102,
                    "duration": 0.11601825000002464
                },
                {
                    "name": "D3",
                    "midi": 50,
                    "time": 479.61944550001317,
                    "velocity": 0.5275590551181102,
                    "duration": 0.11601825000002464
                },
                {
                    "name": "D#2",
                    "midi": 39,
                    "time": 479.8514820000132,
                    "velocity": 0.5039370078740157,
                    "duration": 0.46407299999998486
                },
                {
                    "name": "D#3",
                    "midi": 51,
                    "time": 479.8514820000132,
                    "velocity": 0.5984251968503937,
                    "duration": 0.46407299999998486
                },
                {
                    "name": "C3",
                    "midi": 48,
                    "time": 480.3155550000132,
                    "velocity": 0.5275590551181102,
                    "duration": 0.11601825000002464
                },
                {
                    "name": "D3",
                    "midi": 50,
                    "time": 480.54759150001325,
                    "velocity": 0.5275590551181102,
                    "duration": 0.11601825000002464
                },
                {
                    "name": "D#2",
                    "midi": 39,
                    "time": 480.7796280000133,
                    "velocity": 0.5039370078740157,
                    "duration": 0.46407299999998486
                },
                {
                    "name": "D#3",
                    "midi": 51,
                    "time": 480.7796280000133,
                    "velocity": 0.5984251968503937,
                    "duration": 0.46407299999998486
                },
                {
                    "name": "C3",
                    "midi": 48,
                    "time": 481.2437010000133,
                    "velocity": 0.5275590551181102,
                    "duration": 0.11601825000002464
                },
                {
                    "name": "D3",
                    "midi": 50,
                    "time": 481.47573750001334,
                    "velocity": 0.5275590551181102,
                    "duration": 0.11601825000002464
                },
                {
                    "name": "D#2",
                    "midi": 39,
                    "time": 481.7077740000134,
                    "velocity": 0.5039370078740157,
                    "duration": 0.23203649999999243
                },
                {
                    "name": "D#3",
                    "midi": 51,
                    "time": 481.7077740000134,
                    "velocity": 0.5984251968503937,
                    "duration": 0.23203649999999243
                },
                {
                    "name": "D#3",
                    "midi": 51,
                    "time": 481.9398105000134,
                    "velocity": 0.5275590551181102,
                    "duration": 0.11601825000002464
                },
                {
                    "name": "C3",
                    "midi": 48,
                    "time": 482.17184700001343,
                    "velocity": 0.5275590551181102,
                    "duration": 0.11601825000002464
                },
                {
                    "name": "D3",
                    "midi": 50,
                    "time": 482.4038835000135,
                    "velocity": 0.5275590551181102,
                    "duration": 0.11601825000002464
                },
                {
                    "name": "D#3",
                    "midi": 51,
                    "time": 482.6359200000135,
                    "velocity": 0.5511811023622047,
                    "duration": 0.4640730000000417
                },
                {
                    "name": "G3",
                    "midi": 55,
                    "time": 482.6359200000135,
                    "velocity": 0.5511811023622047,
                    "duration": 0.4640730000000417
                },
                {
                    "name": "A#3",
                    "midi": 58,
                    "time": 482.6359200000135,
                    "velocity": 0.5511811023622047,
                    "duration": 0.4640730000000417
                },
                {
                    "name": "D#4",
                    "midi": 63,
                    "time": 482.6359200000135,
                    "velocity": 0.6456692913385826,
                    "duration": 0.4640730000000417
                },
                {
                    "name": "F2",
                    "midi": 41,
                    "time": 484.4922120000135,
                    "velocity": 0.5511811023622047,
                    "duration": 0.46407299999998486
                },
                {
                    "name": "C3",
                    "midi": 48,
                    "time": 484.4922120000135,
                    "velocity": 0.5511811023622047,
                    "duration": 0.46407299999998486
                },
                {
                    "name": "F3",
                    "midi": 53,
                    "time": 484.4922120000135,
                    "velocity": 0.6456692913385826,
                    "duration": 0.46407299999998486
                },
                {
                    "name": "A#1",
                    "midi": 34,
                    "time": 486.3485040000135,
                    "velocity": 0.6456692913385826,
                    "duration": 0.1546910000000139
                },
                {
                    "name": "F2",
                    "midi": 41,
                    "time": 486.50319500001353,
                    "velocity": 0.4094488188976378,
                    "duration": 0.1546910000000139
                },
                {
                    "name": "A#2",
                    "midi": 46,
                    "time": 486.65788600001355,
                    "velocity": 0.4094488188976378,
                    "duration": 0.1546910000000139
                },
                {
                    "name": "A#1",
                    "midi": 34,
                    "time": 486.81257700001356,
                    "velocity": 0.3858267716535433,
                    "duration": 0.1546910000000139
                },
                {
                    "name": "F2",
                    "midi": 41,
                    "time": 486.9672680000136,
                    "velocity": 0.3543307086614173,
                    "duration": 0.1546910000000139
                },
                {
                    "name": "A#2",
                    "midi": 46,
                    "time": 487.1219590000136,
                    "velocity": 0.3543307086614173,
                    "duration": 0.1546910000000139
                },
                {
                    "name": "A#1",
                    "midi": 34,
                    "time": 487.2766500000136,
                    "velocity": 0.3937007874015748,
                    "duration": 0.1546910000000139
                },
                {
                    "name": "F2",
                    "midi": 41,
                    "time": 487.4313410000136,
                    "velocity": 0.3543307086614173,
                    "duration": 0.1546910000000139
                },
                {
                    "name": "A#2",
                    "midi": 46,
                    "time": 487.58603200001363,
                    "velocity": 0.3543307086614173,
                    "duration": 0.1546910000000139
                },
                {
                    "name": "A#1",
                    "midi": 34,
                    "time": 487.74072300001365,
                    "velocity": 0.3858267716535433,
                    "duration": 0.15469099999995706
                },
                {
                    "name": "F2",
                    "midi": 41,
                    "time": 487.8954140000136,
                    "velocity": 0.3543307086614173,
                    "duration": 0.1546910000000139
                },
                {
                    "name": "A#2",
                    "midi": 46,
                    "time": 488.0501050000136,
                    "velocity": 0.3543307086614173,
                    "duration": 0.1546910000000139
                },
                {
                    "name": "A#1",
                    "midi": 34,
                    "time": 488.20479600001363,
                    "velocity": 0.3858267716535433,
                    "duration": 0.1546910000000139
                },
                {
                    "name": "F2",
                    "midi": 41,
                    "time": 488.35948700001364,
                    "velocity": 0.3543307086614173,
                    "duration": 0.1546910000000139
                },
                {
                    "name": "A#2",
                    "midi": 46,
                    "time": 488.51417800001366,
                    "velocity": 0.3543307086614173,
                    "duration": 0.1546910000000139
                },
                {
                    "name": "A#1",
                    "midi": 34,
                    "time": 488.6688690000137,
                    "velocity": 0.3779527559055118,
                    "duration": 0.1546910000000139
                },
                {
                    "name": "F2",
                    "midi": 41,
                    "time": 488.8235600000137,
                    "velocity": 0.3543307086614173,
                    "duration": 0.1546910000000139
                },
                {
                    "name": "A#2",
                    "midi": 46,
                    "time": 488.9782510000137,
                    "velocity": 0.3543307086614173,
                    "duration": 0.1546910000000139
                },
                {
                    "name": "A#1",
                    "midi": 34,
                    "time": 489.1329420000137,
                    "velocity": 0.3858267716535433,
                    "duration": 0.1546910000000139
                },
                {
                    "name": "F2",
                    "midi": 41,
                    "time": 489.2876330000137,
                    "velocity": 0.3543307086614173,
                    "duration": 0.1546910000000139
                },
                {
                    "name": "A#2",
                    "midi": 46,
                    "time": 489.44232400001374,
                    "velocity": 0.3543307086614173,
                    "duration": 0.1546910000000139
                },
                {
                    "name": "A#1",
                    "midi": 34,
                    "time": 489.59701500001376,
                    "velocity": 0.3858267716535433,
                    "duration": 0.1546910000000139
                },
                {
                    "name": "F2",
                    "midi": 41,
                    "time": 489.75170600001377,
                    "velocity": 0.3543307086614173,
                    "duration": 0.1546910000000139
                },
                {
                    "name": "A#2",
                    "midi": 46,
                    "time": 489.9063970000138,
                    "velocity": 0.3543307086614173,
                    "duration": 0.1546910000000139
                },
                {
                    "name": "A#1",
                    "midi": 34,
                    "time": 490.0610880000138,
                    "velocity": 0.3779527559055118,
                    "duration": 0.1546910000000139
                },
                {
                    "name": "F2",
                    "midi": 41,
                    "time": 490.2157790000138,
                    "velocity": 0.3543307086614173,
                    "duration": 0.1546910000000139
                },
                {
                    "name": "A#2",
                    "midi": 46,
                    "time": 490.3704700000138,
                    "velocity": 0.3543307086614173,
                    "duration": 0.1546910000000139
                },
                {
                    "name": "A#1",
                    "midi": 34,
                    "time": 490.52516100001384,
                    "velocity": 0.3937007874015748,
                    "duration": 0.15469099999995706
                },
                {
                    "name": "F2",
                    "midi": 41,
                    "time": 490.6798520000138,
                    "velocity": 0.3543307086614173,
                    "duration": 0.1546910000000139
                },
                {
                    "name": "A#2",
                    "midi": 46,
                    "time": 490.8345430000138,
                    "velocity": 0.3543307086614173,
                    "duration": 0.1546910000000139
                },
                {
                    "name": "A#1",
                    "midi": 34,
                    "time": 490.9892340000138,
                    "velocity": 0.3858267716535433,
                    "duration": 0.15469099999995706
                },
                {
                    "name": "F2",
                    "midi": 41,
                    "time": 491.1439250000138,
                    "velocity": 0.3543307086614173,
                    "duration": 0.1546910000000139
                },
                {
                    "name": "A#2",
                    "midi": 46,
                    "time": 491.2986160000138,
                    "velocity": 0.3543307086614173,
                    "duration": 0.1546910000000139
                },
                {
                    "name": "A#1",
                    "midi": 34,
                    "time": 491.4533070000138,
                    "velocity": 0.3937007874015748,
                    "duration": 0.15469099999995706
                },
                {
                    "name": "F2",
                    "midi": 41,
                    "time": 491.60799800001377,
                    "velocity": 0.36220472440944884,
                    "duration": 0.1546910000000139
                },
                {
                    "name": "A#2",
                    "midi": 46,
                    "time": 491.7626890000138,
                    "velocity": 0.36220472440944884,
                    "duration": 0.1546910000000139
                },
                {
                    "name": "A#1",
                    "midi": 34,
                    "time": 491.9173800000138,
                    "velocity": 0.3937007874015748,
                    "duration": 0.15469099999995706
                },
                {
                    "name": "F2",
                    "midi": 41,
                    "time": 492.07207100001375,
                    "velocity": 0.3700787401574803,
                    "duration": 0.1546910000000139
                },
                {
                    "name": "A#2",
                    "midi": 46,
                    "time": 492.22676200001376,
                    "velocity": 0.3700787401574803,
                    "duration": 0.1546910000000139
                },
                {
                    "name": "A#1",
                    "midi": 34,
                    "time": 492.3814530000138,
                    "velocity": 0.41732283464566927,
                    "duration": 0.15469099999995706
                },
                {
                    "name": "F2",
                    "midi": 41,
                    "time": 492.53614400001373,
                    "velocity": 0.3779527559055118,
                    "duration": 0.1546910000000139
                },
                {
                    "name": "A#2",
                    "midi": 46,
                    "time": 492.69083500001375,
                    "velocity": 0.3779527559055118,
                    "duration": 0.1546910000000139
                },
                {
                    "name": "A#1",
                    "midi": 34,
                    "time": 492.84552600001376,
                    "velocity": 0.4094488188976378,
                    "duration": 0.15469099999995706
                },
                {
                    "name": "F2",
                    "midi": 41,
                    "time": 493.0002170000137,
                    "velocity": 0.3858267716535433,
                    "duration": 0.1546910000000139
                },
                {
                    "name": "A#2",
                    "midi": 46,
                    "time": 493.15490800001373,
                    "velocity": 0.3858267716535433,
                    "duration": 0.1546910000000139
                },
                {
                    "name": "A#1",
                    "midi": 34,
                    "time": 493.30959900001375,
                    "velocity": 0.4330708661417323,
                    "duration": 0.15469099999995706
                },
                {
                    "name": "F2",
                    "midi": 41,
                    "time": 493.4642900000137,
                    "velocity": 0.3937007874015748,
                    "duration": 0.1546910000000139
                },
                {
                    "name": "A#2",
                    "midi": 46,
                    "time": 493.6189810000137,
                    "velocity": 0.3937007874015748,
                    "duration": 0.1546910000000139
                },
                {
                    "name": "A#1",
                    "midi": 34,
                    "time": 493.77367200001373,
                    "velocity": 0.4330708661417323,
                    "duration": 0.15469099999995706
                },
                {
                    "name": "F2",
                    "midi": 41,
                    "time": 493.9283630000137,
                    "velocity": 0.4015748031496063,
                    "duration": 0.1546910000000139
                },
                {
                    "name": "A#2",
                    "midi": 46,
                    "time": 494.0830540000137,
                    "velocity": 0.4015748031496063,
                    "duration": 0.1546910000000139
                },
                {
                    "name": "A#1",
                    "midi": 34,
                    "time": 494.2377450000137,
                    "velocity": 0.44881889763779526,
                    "duration": 0.15469099999995706
                },
                {
                    "name": "F2",
                    "midi": 41,
                    "time": 494.3924360000137,
                    "velocity": 0.4094488188976378,
                    "duration": 0.1546910000000139
                },
                {
                    "name": "A#2",
                    "midi": 46,
                    "time": 494.5471270000137,
                    "velocity": 0.4094488188976378,
                    "duration": 0.1546910000000139
                },
                {
                    "name": "A#1",
                    "midi": 34,
                    "time": 494.7018180000137,
                    "velocity": 0.4330708661417323,
                    "duration": 0.15469099999995706
                },
                {
                    "name": "F2",
                    "midi": 41,
                    "time": 494.85650900001366,
                    "velocity": 0.4015748031496063,
                    "duration": 0.1546910000000139
                },
                {
                    "name": "A#2",
                    "midi": 46,
                    "time": 495.0112000000137,
                    "velocity": 0.4015748031496063,
                    "duration": 0.1546910000000139
                },
                {
                    "name": "A#1",
                    "midi": 34,
                    "time": 495.1658910000137,
                    "velocity": 0.4566929133858268,
                    "duration": 0.15469099999995706
                },
                {
                    "name": "F2",
                    "midi": 41,
                    "time": 495.32058200001364,
                    "velocity": 0.4251968503937008,
                    "duration": 0.1546910000000139
                },
                {
                    "name": "A#2",
                    "midi": 46,
                    "time": 495.47527300001366,
                    "velocity": 0.4251968503937008,
                    "duration": 0.1546910000000139
                },
                {
                    "name": "A#1",
                    "midi": 34,
                    "time": 495.6299640000137,
                    "velocity": 0.5039370078740157,
                    "duration": 0.15469099999995706
                },
                {
                    "name": "F2",
                    "midi": 41,
                    "time": 495.78465500001363,
                    "velocity": 0.4409448818897638,
                    "duration": 0.1546910000000139
                },
                {
                    "name": "A#2",
                    "midi": 46,
                    "time": 495.93934600001364,
                    "velocity": 0.4409448818897638,
                    "duration": 0.1546910000000139
                },
                {
                    "name": "A#1",
                    "midi": 34,
                    "time": 496.09403700001366,
                    "velocity": 0.5433070866141733,
                    "duration": 0.15469099999995706
                },
                {
                    "name": "F2",
                    "midi": 41,
                    "time": 496.2487280000136,
                    "velocity": 0.47244094488188976,
                    "duration": 0.1546910000000139
                },
                {
                    "name": "A#2",
                    "midi": 46,
                    "time": 496.4034190000136,
                    "velocity": 0.47244094488188976,
                    "duration": 0.1546910000000139
                },
                {
                    "name": "A#1",
                    "midi": 34,
                    "time": 496.55811000001364,
                    "velocity": 0.5826771653543307,
                    "duration": 0.15469099999995706
                },
                {
                    "name": "F2",
                    "midi": 41,
                    "time": 496.7128010000136,
                    "velocity": 0.5118110236220472,
                    "duration": 0.1546910000000139
                },
                {
                    "name": "A#2",
                    "midi": 46,
                    "time": 496.8674920000136,
                    "velocity": 0.5196850393700787,
                    "duration": 0.1546910000000139
                },
                {
                    "name": "A#1",
                    "midi": 34,
                    "time": 497.0221830000136,
                    "velocity": 0.5905511811023622,
                    "duration": 0.15469099999995706
                },
                {
                    "name": "F2",
                    "midi": 41,
                    "time": 497.1768740000136,
                    "velocity": 0.5196850393700787,
                    "duration": 0.1546910000000139
                },
                {
                    "name": "A#2",
                    "midi": 46,
                    "time": 497.3315650000136,
                    "velocity": 0.5196850393700787,
                    "duration": 0.1546910000000139
                },
                {
                    "name": "A#1",
                    "midi": 34,
                    "time": 497.4862560000136,
                    "velocity": 0.6692913385826772,
                    "duration": 0.46407299999998486
                },
                {
                    "name": "A#2",
                    "midi": 46,
                    "time": 498.41440200001364,
                    "velocity": 0.5196850393700787,
                    "duration": 0.46407299999998486
                },
                {
                    "name": "D3",
                    "midi": 50,
                    "time": 498.41440200001364,
                    "velocity": 0.5196850393700787,
                    "duration": 0.46407299999998486
                },
                {
                    "name": "F3",
                    "midi": 53,
                    "time": 498.41440200001364,
                    "velocity": 0.5196850393700787,
                    "duration": 0.46407299999998486
                },
                {
                    "name": "A#3",
                    "midi": 58,
                    "time": 498.41440200001364,
                    "velocity": 0.6062992125984252,
                    "duration": 0.46407299999998486
                },
                {
                    "name": "A#1",
                    "midi": 34,
                    "time": 499.34254800001366,
                    "velocity": 0.5511811023622047,
                    "duration": 0.4640730000000417
                },
                {
                    "name": "A#2",
                    "midi": 46,
                    "time": 499.34254800001366,
                    "velocity": 0.6377952755905512,
                    "duration": 0.4640730000000417
                }
            ],
            "controlChanges": {
                "7": [
                    {
                        "number": 7,
                        "time": 0,
                        "value": 0.7874015748031497
                    }
                ],
                "10": [
                    {
                        "number": 10,
                        "time": 0,
                        "value": 0.5039370078740157
                    }
                ],
                "64": [
                    {
                        "number": 64,
                        "time": 0,
                        "value": 0
                    },
                    {
                        "number": 64,
                        "time": 7.465774387499998,
                        "value": 1
                    },
                    {
                        "number": 64,
                        "time": 7.923079656249999,
                        "value": 0
                    },
                    {
                        "number": 64,
                        "time": 15.819088387499987,
                        "value": 1
                    },
                    {
                        "number": 64,
                        "time": 16.276393656249986,
                        "value": 0
                    },
                    {
                        "number": 64,
                        "time": 19.504601462499977,
                        "value": 1
                    },
                    {
                        "number": 64,
                        "time": 19.968674462499976,
                        "value": 0
                    },
                    {
                        "number": 64,
                        "time": 20.017015399999977,
                        "value": 1
                    },
                    {
                        "number": 64,
                        "time": 20.419211999999977,
                        "value": 0
                    },
                    {
                        "number": 64,
                        "time": 20.562301174999977,
                        "value": 1
                    },
                    {
                        "number": 64,
                        "time": 20.869749537499978,
                        "value": 0
                    },
                    {
                        "number": 64,
                        "time": 21.360893462499973,
                        "value": 1
                    },
                    {
                        "number": 64,
                        "time": 22.28903946249997,
                        "value": 0
                    },
                    {
                        "number": 64,
                        "time": 22.322878118749973,
                        "value": 1
                    },
                    {
                        "number": 64,
                        "time": 22.554914618749972,
                        "value": 0
                    },
                    {
                        "number": 64,
                        "time": 25.564621387499965,
                        "value": 1
                    },
                    {
                        "number": 64,
                        "time": 26.253963156249966,
                        "value": 0
                    },
                    {
                        "number": 64,
                        "time": 26.963608118749967,
                        "value": 1
                    },
                    {
                        "number": 64,
                        "time": 27.175341424999967,
                        "value": 0
                    },
                    {
                        "number": 64,
                        "time": 27.980701443749965,
                        "value": 1
                    },
                    {
                        "number": 64,
                        "time": 28.322955281249964,
                        "value": 0
                    },
                    {
                        "number": 64,
                        "time": 28.486347649999963,
                        "value": 1
                    },
                    {
                        "number": 64,
                        "time": 28.772525999999964,
                        "value": 0
                    },
                    {
                        "number": 64,
                        "time": 36.23830038750003,
                        "value": 1
                    },
                    {
                        "number": 64,
                        "time": 36.68303701250003,
                        "value": 0
                    },
                    {
                        "number": 64,
                        "time": 39.92381346250012,
                        "value": 1
                    },
                    {
                        "number": 64,
                        "time": 40.38788646250012,
                        "value": 0
                    },
                    {
                        "number": 64,
                        "time": 40.43622740000012,
                        "value": 1
                    },
                    {
                        "number": 64,
                        "time": 40.83842400000012,
                        "value": 0
                    },
                    {
                        "number": 64,
                        "time": 40.98151317500012,
                        "value": 1
                    },
                    {
                        "number": 64,
                        "time": 41.31119836875012,
                        "value": 0
                    },
                    {
                        "number": 64,
                        "time": 41.85551732500012,
                        "value": 1
                    },
                    {
                        "number": 64,
                        "time": 42.69471600000012,
                        "value": 0
                    },
                    {
                        "number": 64,
                        "time": 42.804933337500124,
                        "value": 1
                    },
                    {
                        "number": 64,
                        "time": 43.622862000000126,
                        "value": 0
                    },
                    {
                        "number": 64,
                        "time": 43.73307933750013,
                        "value": 1
                    },
                    {
                        "number": 64,
                        "time": 44.10917183125013,
                        "value": 0
                    },
                    {
                        "number": 64,
                        "time": 44.19715233750013,
                        "value": 1
                    },
                    {
                        "number": 64,
                        "time": 44.55100800000013,
                        "value": 0
                    },
                    {
                        "number": 64,
                        "time": 44.60031575625013,
                        "value": 1
                    },
                    {
                        "number": 64,
                        "time": 45.02088191250013,
                        "value": 0
                    },
                    {
                        "number": 64,
                        "time": 46.55038917500017,
                        "value": 1
                    },
                    {
                        "number": 64,
                        "time": 46.857837537500174,
                        "value": 0
                    },
                    {
                        "number": 64,
                        "time": 47.33544600000019,
                        "value": 1
                    },
                    {
                        "number": 64,
                        "time": 47.8082203687502,
                        "value": 0
                    },
                    {
                        "number": 64,
                        "time": 47.8826654125002,
                        "value": 1
                    },
                    {
                        "number": 64,
                        "time": 48.2635920000002,
                        "value": 0
                    },
                    {
                        "number": 64,
                        "time": 48.3660747875002,
                        "value": 1
                    },
                    {
                        "number": 64,
                        "time": 48.5642726312502,
                        "value": 0
                    },
                    {
                        "number": 64,
                        "time": 49.191738000000214,
                        "value": 1
                    },
                    {
                        "number": 64,
                        "time": 50.11988400000021,
                        "value": 0
                    },
                    {
                        "number": 64,
                        "time": 50.252338168750214,
                        "value": 1
                    },
                    {
                        "number": 64,
                        "time": 51.04803000000021,
                        "value": 0
                    },
                    {
                        "number": 64,
                        "time": 51.16984916250021,
                        "value": 1
                    },
                    {
                        "number": 64,
                        "time": 51.522738006250215,
                        "value": 0
                    },
                    {
                        "number": 64,
                        "time": 51.611685331250214,
                        "value": 1
                    },
                    {
                        "number": 64,
                        "time": 52.904322000000214,
                        "value": 0
                    },
                    {
                        "number": 64,
                        "time": 53.000037056250214,
                        "value": 1
                    },
                    {
                        "number": 64,
                        "time": 53.393532287500214,
                        "value": 0
                    },
                    {
                        "number": 64,
                        "time": 53.50471644375021,
                        "value": 1
                    },
                    {
                        "number": 64,
                        "time": 53.83246800000021,
                        "value": 0
                    },
                    {
                        "number": 64,
                        "time": 53.941718518750214,
                        "value": 1
                    },
                    {
                        "number": 64,
                        "time": 54.76061400000021,
                        "value": 0
                    },
                    {
                        "number": 64,
                        "time": 54.88339998125021,
                        "value": 1
                    },
                    {
                        "number": 64,
                        "time": 55.245957012500206,
                        "value": 0
                    },
                    {
                        "number": 64,
                        "time": 55.347472981250206,
                        "value": 1
                    },
                    {
                        "number": 64,
                        "time": 55.68876000000021,
                        "value": 0
                    },
                    {
                        "number": 64,
                        "time": 55.79801051875021,
                        "value": 1
                    },
                    {
                        "number": 64,
                        "time": 56.193439387500206,
                        "value": 0
                    },
                    {
                        "number": 64,
                        "time": 56.275618981250204,
                        "value": 1
                    },
                    {
                        "number": 64,
                        "time": 56.616906000000206,
                        "value": 0
                    },
                    {
                        "number": 64,
                        "time": 56.664280118750206,
                        "value": 1
                    },
                    {
                        "number": 64,
                        "time": 57.087746731250206,
                        "value": 0
                    },
                    {
                        "number": 64,
                        "time": 57.16605905000021,
                        "value": 1
                    },
                    {
                        "number": 64,
                        "time": 58.029428193750206,
                        "value": 0
                    },
                    {
                        "number": 64,
                        "time": 58.063266850000204,
                        "value": 1
                    },
                    {
                        "number": 64,
                        "time": 58.4731980000002,
                        "value": 0
                    },
                    {
                        "number": 64,
                        "time": 65.93897238750023,
                        "value": 1
                    },
                    {
                        "number": 64,
                        "time": 66.38660946875024,
                        "value": 0
                    },
                    {
                        "number": 64,
                        "time": 68.72341038750024,
                        "value": 1
                    },
                    {
                        "number": 64,
                        "time": 69.18071565625024,
                        "value": 0
                    },
                    {
                        "number": 64,
                        "time": 70.57970238750022,
                        "value": 1
                    },
                    {
                        "number": 64,
                        "time": 71.03700765625022,
                        "value": 0
                    },
                    {
                        "number": 64,
                        "time": 72.4359943875002,
                        "value": 1
                    },
                    {
                        "number": 64,
                        "time": 72.8932996562502,
                        "value": 0
                    },
                    {
                        "number": 64,
                        "time": 74.29228638750018,
                        "value": 1
                    },
                    {
                        "number": 64,
                        "time": 74.74959165625017,
                        "value": 0
                    },
                    {
                        "number": 64,
                        "time": 75.22043238750018,
                        "value": 1
                    },
                    {
                        "number": 64,
                        "time": 75.67773765625019,
                        "value": 0
                    },
                    {
                        "number": 64,
                        "time": 78.8924100000001,
                        "value": 1
                    },
                    {
                        "number": 64,
                        "time": 79.3651843687501,
                        "value": 0
                    },
                    {
                        "number": 64,
                        "time": 79.4589657875001,
                        "value": 1
                    },
                    {
                        "number": 64,
                        "time": 79.8205560000001,
                        "value": 0
                    },
                    {
                        "number": 64,
                        "time": 79.86502966250009,
                        "value": 1
                    },
                    {
                        "number": 64,
                        "time": 80.31266674375009,
                        "value": 0
                    },
                    {
                        "number": 64,
                        "time": 80.36197450000009,
                        "value": 1
                    },
                    {
                        "number": 64,
                        "time": 80.74870200000008,
                        "value": 0
                    },
                    {
                        "number": 64,
                        "time": 80.81057840000008,
                        "value": 1
                    },
                    {
                        "number": 64,
                        "time": 81.2127750000001,
                        "value": 0
                    },
                    {
                        "number": 64,
                        "time": 81.28141913125009,
                        "value": 1
                    },
                    {
                        "number": 64,
                        "time": 81.67684800000009,
                        "value": 0
                    },
                    {
                        "number": 64,
                        "time": 81.74355849375009,
                        "value": 1
                    },
                    {
                        "number": 64,
                        "time": 82.1689587437501,
                        "value": 0
                    },
                    {
                        "number": 64,
                        "time": 82.2182665000001,
                        "value": 1
                    },
                    {
                        "number": 64,
                        "time": 82.6049940000001,
                        "value": 0
                    },
                    {
                        "number": 64,
                        "time": 82.6591358500001,
                        "value": 1
                    },
                    {
                        "number": 64,
                        "time": 83.09613792500011,
                        "value": 0
                    },
                    {
                        "number": 64,
                        "time": 83.17154978750011,
                        "value": 1
                    },
                    {
                        "number": 64,
                        "time": 83.53314000000012,
                        "value": 0
                    },
                    {
                        "number": 64,
                        "time": 83.58824866875011,
                        "value": 1
                    },
                    {
                        "number": 64,
                        "time": 84.01364891875012,
                        "value": 0
                    },
                    {
                        "number": 64,
                        "time": 84.10259624375013,
                        "value": 1
                    },
                    {
                        "number": 64,
                        "time": 84.46128600000013,
                        "value": 0
                    },
                    {
                        "number": 64,
                        "time": 84.52219558125013,
                        "value": 1
                    },
                    {
                        "number": 64,
                        "time": 84.94469537500012,
                        "value": 0
                    },
                    {
                        "number": 64,
                        "time": 85.04717816250013,
                        "value": 1
                    },
                    {
                        "number": 64,
                        "time": 85.38943200000013,
                        "value": 0
                    },
                    {
                        "number": 64,
                        "time": 85.45614249375012,
                        "value": 1
                    },
                    {
                        "number": 64,
                        "time": 85.8728413750001,
                        "value": 0
                    },
                    {
                        "number": 64,
                        "time": 85.9414855062501,
                        "value": 1
                    },
                    {
                        "number": 64,
                        "time": 86.3175780000001,
                        "value": 0
                    },
                    {
                        "number": 64,
                        "time": 88.17387000000004,
                        "value": 1
                    },
                    {
                        "number": 64,
                        "time": 88.63794300000004,
                        "value": 0
                    },
                    {
                        "number": 64,
                        "time": 88.70658713125003,
                        "value": 1
                    },
                    {
                        "number": 64,
                        "time": 89.10201600000002,
                        "value": 0
                    },
                    {
                        "number": 64,
                        "time": 89.14648966250002,
                        "value": 1
                    },
                    {
                        "number": 64,
                        "time": 89.58832583125,
                        "value": 0
                    },
                    {
                        "number": 64,
                        "time": 89.6434345,
                        "value": 1
                    },
                    {
                        "number": 64,
                        "time": 90.03016199999999,
                        "value": 0
                    },
                    {
                        "number": 64,
                        "time": 90.09203839999999,
                        "value": 1
                    },
                    {
                        "number": 64,
                        "time": 90.494235,
                        "value": 0
                    },
                    {
                        "number": 64,
                        "time": 90.56287913125,
                        "value": 1
                    },
                    {
                        "number": 64,
                        "time": 90.96120845625,
                        "value": 0
                    },
                    {
                        "number": 64,
                        "time": 91.02501849375001,
                        "value": 1
                    },
                    {
                        "number": 64,
                        "time": 91.44848510625002,
                        "value": 0
                    },
                    {
                        "number": 64,
                        "time": 91.49972650000002,
                        "value": 1
                    },
                    {
                        "number": 64,
                        "time": 91.88645400000003,
                        "value": 0
                    },
                    {
                        "number": 64,
                        "time": 91.94059585000002,
                        "value": 1
                    },
                    {
                        "number": 64,
                        "time": 92.37083019375002,
                        "value": 0
                    },
                    {
                        "number": 64,
                        "time": 92.45300978750002,
                        "value": 1
                    },
                    {
                        "number": 64,
                        "time": 92.81460000000003,
                        "value": 0
                    },
                    {
                        "number": 64,
                        "time": 92.88131049375002,
                        "value": 1
                    },
                    {
                        "number": 64,
                        "time": 93.29510891875003,
                        "value": 0
                    },
                    {
                        "number": 64,
                        "time": 93.38405624375004,
                        "value": 1
                    },
                    {
                        "number": 64,
                        "time": 93.74274600000004,
                        "value": 0
                    },
                    {
                        "number": 64,
                        "time": 93.80365558125004,
                        "value": 1
                    },
                    {
                        "number": 64,
                        "time": 94.22615537500003,
                        "value": 0
                    },
                    {
                        "number": 64,
                        "time": 94.32863816250004,
                        "value": 1
                    },
                    {
                        "number": 64,
                        "time": 94.67089200000004,
                        "value": 0
                    },
                    {
                        "number": 64,
                        "time": 94.73760249375003,
                        "value": 1
                    },
                    {
                        "number": 64,
                        "time": 95.15430137500003,
                        "value": 0
                    },
                    {
                        "number": 64,
                        "time": 95.22294550625003,
                        "value": 1
                    },
                    {
                        "number": 64,
                        "time": 95.59903800000004,
                        "value": 0
                    },
                    {
                        "number": 64,
                        "time": 95.64834575625004,
                        "value": 1
                    },
                    {
                        "number": 64,
                        "time": 96.08921510625005,
                        "value": 0
                    },
                    {
                        "number": 64,
                        "time": 96.14625741250005,
                        "value": 1
                    },
                    {
                        "number": 64,
                        "time": 96.52718400000006,
                        "value": 0
                    },
                    {
                        "number": 64,
                        "time": 96.58132585000006,
                        "value": 1
                    },
                    {
                        "number": 64,
                        "time": 97.01446065000006,
                        "value": 0
                    },
                    {
                        "number": 64,
                        "time": 97.09373978750006,
                        "value": 1
                    },
                    {
                        "number": 64,
                        "time": 97.45533000000006,
                        "value": 0
                    },
                    {
                        "number": 64,
                        "time": 97.51043866875006,
                        "value": 1
                    },
                    {
                        "number": 64,
                        "time": 97.93583891875006,
                        "value": 0
                    },
                    {
                        "number": 64,
                        "time": 98.01318441875007,
                        "value": 1
                    },
                    {
                        "number": 64,
                        "time": 98.38347600000007,
                        "value": 0
                    },
                    {
                        "number": 64,
                        "time": 98.45018649375007,
                        "value": 1
                    },
                    {
                        "number": 64,
                        "time": 98.86978583125007,
                        "value": 0
                    },
                    {
                        "number": 64,
                        "time": 98.95293224375007,
                        "value": 1
                    },
                    {
                        "number": 64,
                        "time": 99.31162200000007,
                        "value": 0
                    },
                    {
                        "number": 64,
                        "time": 99.33772610625007,
                        "value": 0
                    },
                    {
                        "number": 64,
                        "time": 99.36092975625007,
                        "value": 1
                    },
                    {
                        "number": 64,
                        "time": 99.79696501250008,
                        "value": 0
                    },
                    {
                        "number": 64,
                        "time": 99.85884141250008,
                        "value": 1
                    },
                    {
                        "number": 64,
                        "time": 100.2397680000001,
                        "value": 0
                    },
                    {
                        "number": 64,
                        "time": 100.29390985000009,
                        "value": 1
                    },
                    {
                        "number": 64,
                        "time": 100.7173764625001,
                        "value": 0
                    },
                    {
                        "number": 64,
                        "time": 100.8063237875001,
                        "value": 1
                    },
                    {
                        "number": 64,
                        "time": 101.16791400000011,
                        "value": 0
                    },
                    {
                        "number": 64,
                        "time": 101.2346244937501,
                        "value": 1
                    },
                    {
                        "number": 64,
                        "time": 101.64842291875011,
                        "value": 0
                    },
                    {
                        "number": 64,
                        "time": 101.72576841875012,
                        "value": 1
                    },
                    {
                        "number": 64,
                        "time": 102.09606000000012,
                        "value": 0
                    },
                    {
                        "number": 64,
                        "time": 102.16277049375012,
                        "value": 1
                    },
                    {
                        "number": 64,
                        "time": 102.58236983125012,
                        "value": 0
                    },
                    {
                        "number": 64,
                        "time": 102.66551624375012,
                        "value": 1
                    },
                    {
                        "number": 64,
                        "time": 103.02420600000012,
                        "value": 0
                    },
                    {
                        "number": 64,
                        "time": 103.05031010625012,
                        "value": 0
                    },
                    {
                        "number": 64,
                        "time": 103.07351375625012,
                        "value": 1
                    },
                    {
                        "number": 64,
                        "time": 103.51438310625012,
                        "value": 0
                    },
                    {
                        "number": 64,
                        "time": 103.57142541250012,
                        "value": 1
                    },
                    {
                        "number": 64,
                        "time": 103.95235200000012,
                        "value": 0
                    },
                    {
                        "number": 64,
                        "time": 104.00649385000011,
                        "value": 1
                    },
                    {
                        "number": 64,
                        "time": 104.43962865000012,
                        "value": 0
                    },
                    {
                        "number": 64,
                        "time": 104.51890778750011,
                        "value": 1
                    },
                    {
                        "number": 64,
                        "time": 104.88049800000012,
                        "value": 0
                    },
                    {
                        "number": 64,
                        "time": 104.91917075000012,
                        "value": 1
                    },
                    {
                        "number": 64,
                        "time": 105.36100691875012,
                        "value": 0
                    },
                    {
                        "number": 64,
                        "time": 105.43835241875013,
                        "value": 1
                    },
                    {
                        "number": 64,
                        "time": 105.80864400000013,
                        "value": 0
                    },
                    {
                        "number": 64,
                        "time": 105.87535449375012,
                        "value": 1
                    },
                    {
                        "number": 64,
                        "time": 106.29495383125013,
                        "value": 0
                    },
                    {
                        "number": 64,
                        "time": 106.37810024375013,
                        "value": 1
                    },
                    {
                        "number": 64,
                        "time": 106.73679000000013,
                        "value": 0
                    },
                    {
                        "number": 64,
                        "time": 106.76289410625013,
                        "value": 0
                    },
                    {
                        "number": 64,
                        "time": 106.78609775625013,
                        "value": 1
                    },
                    {
                        "number": 64,
                        "time": 107.22309983125012,
                        "value": 0
                    },
                    {
                        "number": 64,
                        "time": 107.28400941250013,
                        "value": 1
                    },
                    {
                        "number": 64,
                        "time": 107.66493600000013,
                        "value": 0
                    },
                    {
                        "number": 64,
                        "time": 107.71907785000012,
                        "value": 1
                    },
                    {
                        "number": 64,
                        "time": 108.15221265000012,
                        "value": 0
                    },
                    {
                        "number": 64,
                        "time": 108.23149178750012,
                        "value": 1
                    },
                    {
                        "number": 64,
                        "time": 108.59308200000012,
                        "value": 0
                    },
                    {
                        "number": 64,
                        "time": 108.63175475000013,
                        "value": 1
                    },
                    {
                        "number": 64,
                        "time": 109.07359091875013,
                        "value": 0
                    },
                    {
                        "number": 64,
                        "time": 109.15093641875013,
                        "value": 1
                    },
                    {
                        "number": 64,
                        "time": 109.52122800000014,
                        "value": 0
                    },
                    {
                        "number": 64,
                        "time": 109.58793849375013,
                        "value": 1
                    },
                    {
                        "number": 64,
                        "time": 110.00753783125013,
                        "value": 0
                    },
                    {
                        "number": 64,
                        "time": 110.09068424375013,
                        "value": 1
                    },
                    {
                        "number": 64,
                        "time": 110.44937400000013,
                        "value": 0
                    },
                    {
                        "number": 64,
                        "time": 110.51608449375013,
                        "value": 1
                    },
                    {
                        "number": 64,
                        "time": 110.92988291875014,
                        "value": 0
                    },
                    {
                        "number": 64,
                        "time": 111.00722841875015,
                        "value": 1
                    },
                    {
                        "number": 64,
                        "time": 111.37752000000015,
                        "value": 0
                    },
                    {
                        "number": 64,
                        "time": 111.44423049375014,
                        "value": 1
                    },
                    {
                        "number": 64,
                        "time": 111.86382983125014,
                        "value": 0
                    },
                    {
                        "number": 64,
                        "time": 111.94697624375014,
                        "value": 1
                    },
                    {
                        "number": 64,
                        "time": 112.30566600000014,
                        "value": 0
                    },
                    {
                        "number": 64,
                        "time": 112.37237649375014,
                        "value": 1
                    },
                    {
                        "number": 64,
                        "time": 112.79197583125014,
                        "value": 0
                    },
                    {
                        "number": 64,
                        "time": 112.87512224375014,
                        "value": 1
                    },
                    {
                        "number": 64,
                        "time": 113.23381200000014,
                        "value": 0
                    },
                    {
                        "number": 64,
                        "time": 113.30052249375014,
                        "value": 1
                    },
                    {
                        "number": 64,
                        "time": 113.72012183125014,
                        "value": 0
                    },
                    {
                        "number": 64,
                        "time": 113.80326824375014,
                        "value": 1
                    },
                    {
                        "number": 64,
                        "time": 114.16195800000014,
                        "value": 0
                    },
                    {
                        "number": 64,
                        "time": 114.22866849375013,
                        "value": 1
                    },
                    {
                        "number": 64,
                        "time": 114.64826783125014,
                        "value": 0
                    },
                    {
                        "number": 64,
                        "time": 114.73141424375014,
                        "value": 1
                    },
                    {
                        "number": 64,
                        "time": 115.09010400000014,
                        "value": 0
                    },
                    {
                        "number": 64,
                        "time": 115.15681449375013,
                        "value": 1
                    },
                    {
                        "number": 64,
                        "time": 115.57641383125014,
                        "value": 0
                    },
                    {
                        "number": 64,
                        "time": 115.65956024375014,
                        "value": 1
                    },
                    {
                        "number": 64,
                        "time": 116.01825000000014,
                        "value": 0
                    },
                    {
                        "number": 64,
                        "time": 116.08496049375013,
                        "value": 1
                    },
                    {
                        "number": 64,
                        "time": 116.50455983125013,
                        "value": 0
                    },
                    {
                        "number": 64,
                        "time": 116.58770624375013,
                        "value": 1
                    },
                    {
                        "number": 64,
                        "time": 116.94639600000014,
                        "value": 0
                    },
                    {
                        "number": 64,
                        "time": 117.01310649375013,
                        "value": 1
                    },
                    {
                        "number": 64,
                        "time": 117.43270583125013,
                        "value": 0
                    },
                    {
                        "number": 64,
                        "time": 117.51585224375013,
                        "value": 1
                    },
                    {
                        "number": 64,
                        "time": 117.87454200000013,
                        "value": 0
                    },
                    {
                        "number": 64,
                        "time": 117.94125249375013,
                        "value": 1
                    },
                    {
                        "number": 64,
                        "time": 118.36085183125013,
                        "value": 0
                    },
                    {
                        "number": 64,
                        "time": 118.44399824375013,
                        "value": 1
                    },
                    {
                        "number": 64,
                        "time": 118.80268800000013,
                        "value": 0
                    },
                    {
                        "number": 64,
                        "time": 118.86939849375013,
                        "value": 1
                    },
                    {
                        "number": 64,
                        "time": 119.28899783125013,
                        "value": 0
                    },
                    {
                        "number": 64,
                        "time": 119.37214424375013,
                        "value": 1
                    },
                    {
                        "number": 64,
                        "time": 119.73083400000013,
                        "value": 0
                    },
                    {
                        "number": 64,
                        "time": 119.79947813125013,
                        "value": 1
                    },
                    {
                        "number": 64,
                        "time": 120.21617701250011,
                        "value": 0
                    },
                    {
                        "number": 64,
                        "time": 120.29062205625011,
                        "value": 1
                    },
                    {
                        "number": 64,
                        "time": 120.65898000000011,
                        "value": 0
                    },
                    {
                        "number": 64,
                        "time": 120.70345366250011,
                        "value": 1
                    },
                    {
                        "number": 64,
                        "time": 121.1336880062501,
                        "value": 0
                    },
                    {
                        "number": 64,
                        "time": 121.17816166875009,
                        "value": 1
                    },
                    {
                        "number": 64,
                        "time": 121.58712600000008,
                        "value": 0
                    },
                    {
                        "number": 64,
                        "time": 121.64900240000009,
                        "value": 1
                    },
                    {
                        "number": 64,
                        "time": 122.0511990000001,
                        "value": 0
                    },
                    {
                        "number": 64,
                        "time": 122.0985731187501,
                        "value": 1
                    },
                    {
                        "number": 64,
                        "time": 122.51527200000011,
                        "value": 0
                    },
                    {
                        "number": 64,
                        "time": 122.5819824937501,
                        "value": 1
                    },
                    {
                        "number": 64,
                        "time": 123.00641592500011,
                        "value": 0
                    },
                    {
                        "number": 64,
                        "time": 123.05669050000012,
                        "value": 1
                    },
                    {
                        "number": 64,
                        "time": 123.44341800000012,
                        "value": 0
                    },
                    {
                        "number": 64,
                        "time": 123.51882986250013,
                        "value": 1
                    },
                    {
                        "number": 64,
                        "time": 123.92489373750014,
                        "value": 0
                    },
                    {
                        "number": 64,
                        "time": 124.00997378750014,
                        "value": 1
                    },
                    {
                        "number": 64,
                        "time": 124.37156400000015,
                        "value": 0
                    },
                    {
                        "number": 64,
                        "time": 124.43827449375014,
                        "value": 1
                    },
                    {
                        "number": 64,
                        "time": 124.85207291875015,
                        "value": 0
                    },
                    {
                        "number": 64,
                        "time": 124.94102024375016,
                        "value": 1
                    },
                    {
                        "number": 64,
                        "time": 125.29971000000016,
                        "value": 0
                    },
                    {
                        "number": 64,
                        "time": 125.36061958125016,
                        "value": 1
                    },
                    {
                        "number": 64,
                        "time": 125.78311937500015,
                        "value": 0
                    },
                    {
                        "number": 64,
                        "time": 125.88560216250016,
                        "value": 1
                    },
                    {
                        "number": 64,
                        "time": 126.22785600000016,
                        "value": 0
                    },
                    {
                        "number": 64,
                        "time": 126.29456649375015,
                        "value": 1
                    },
                    {
                        "number": 64,
                        "time": 126.71126537500015,
                        "value": 0
                    },
                    {
                        "number": 64,
                        "time": 126.77990950625015,
                        "value": 1
                    },
                    {
                        "number": 64,
                        "time": 127.15600200000016,
                        "value": 0
                    },
                    {
                        "number": 64,
                        "time": 127.24494932500016,
                        "value": 1
                    },
                    {
                        "number": 64,
                        "time": 127.63844455625016,
                        "value": 0
                    },
                    {
                        "number": 64,
                        "time": 127.70322141250017,
                        "value": 1
                    },
                    {
                        "number": 64,
                        "time": 128.08414800000017,
                        "value": 0
                    },
                    {
                        "number": 64,
                        "time": 128.13828985000018,
                        "value": 1
                    },
                    {
                        "number": 64,
                        "time": 128.57142465000018,
                        "value": 0
                    },
                    {
                        "number": 64,
                        "time": 128.6507037875002,
                        "value": 1
                    },
                    {
                        "number": 64,
                        "time": 129.0122940000002,
                        "value": 0
                    },
                    {
                        "number": 64,
                        "time": 129.0877058625002,
                        "value": 1
                    },
                    {
                        "number": 64,
                        "time": 129.4928029187502,
                        "value": 0
                    },
                    {
                        "number": 64,
                        "time": 129.5701484187502,
                        "value": 1
                    },
                    {
                        "number": 64,
                        "time": 129.9404400000002,
                        "value": 0
                    },
                    {
                        "number": 64,
                        "time": 130.0071504937502,
                        "value": 1
                    },
                    {
                        "number": 64,
                        "time": 130.42674983125022,
                        "value": 0
                    },
                    {
                        "number": 64,
                        "time": 130.50989624375023,
                        "value": 1
                    },
                    {
                        "number": 64,
                        "time": 130.86858600000022,
                        "value": 0
                    },
                    {
                        "number": 64,
                        "time": 130.8946901062502,
                        "value": 0
                    },
                    {
                        "number": 64,
                        "time": 130.9575333250002,
                        "value": 1
                    },
                    {
                        "number": 64,
                        "time": 131.3510285562502,
                        "value": 0
                    },
                    {
                        "number": 64,
                        "time": 131.41580541250022,
                        "value": 1
                    },
                    {
                        "number": 64,
                        "time": 131.79673200000022,
                        "value": 0
                    },
                    {
                        "number": 64,
                        "time": 131.85087385000023,
                        "value": 1
                    },
                    {
                        "number": 64,
                        "time": 132.28400865000023,
                        "value": 0
                    },
                    {
                        "number": 64,
                        "time": 132.36328778750024,
                        "value": 1
                    },
                    {
                        "number": 64,
                        "time": 132.72487800000025,
                        "value": 0
                    },
                    {
                        "number": 64,
                        "time": 132.76355075000023,
                        "value": 1
                    },
                    {
                        "number": 64,
                        "time": 133.20538691875024,
                        "value": 0
                    },
                    {
                        "number": 64,
                        "time": 133.28273241875024,
                        "value": 1
                    },
                    {
                        "number": 64,
                        "time": 133.65302400000024,
                        "value": 0
                    },
                    {
                        "number": 64,
                        "time": 133.71973449375025,
                        "value": 1
                    },
                    {
                        "number": 64,
                        "time": 134.13933383125027,
                        "value": 0
                    },
                    {
                        "number": 64,
                        "time": 134.22248024375028,
                        "value": 1
                    },
                    {
                        "number": 64,
                        "time": 134.58117000000027,
                        "value": 0
                    },
                    {
                        "number": 64,
                        "time": 134.60727410625026,
                        "value": 0
                    },
                    {
                        "number": 64,
                        "time": 134.64304640000026,
                        "value": 1
                    },
                    {
                        "number": 64,
                        "time": 135.06941346875024,
                        "value": 0
                    },
                    {
                        "number": 64,
                        "time": 135.12838941250024,
                        "value": 1
                    },
                    {
                        "number": 64,
                        "time": 135.50931600000024,
                        "value": 0
                    },
                    {
                        "number": 64,
                        "time": 135.56345785000025,
                        "value": 1
                    },
                    {
                        "number": 64,
                        "time": 135.99659265000025,
                        "value": 0
                    },
                    {
                        "number": 64,
                        "time": 136.07587178750026,
                        "value": 1
                    },
                    {
                        "number": 64,
                        "time": 136.43746200000027,
                        "value": 0
                    },
                    {
                        "number": 64,
                        "time": 136.51287386250027,
                        "value": 1
                    },
                    {
                        "number": 64,
                        "time": 136.91603728125028,
                        "value": 0
                    },
                    {
                        "number": 64,
                        "time": 136.97694686250028,
                        "value": 1
                    },
                    {
                        "number": 64,
                        "time": 137.3656080000003,
                        "value": 0
                    },
                    {
                        "number": 64,
                        "time": 137.4323184937503,
                        "value": 1
                    },
                    {
                        "number": 64,
                        "time": 137.85191783125032,
                        "value": 0
                    },
                    {
                        "number": 64,
                        "time": 137.93506424375033,
                        "value": 1
                    },
                    {
                        "number": 64,
                        "time": 138.29375400000032,
                        "value": 0
                    },
                    {
                        "number": 64,
                        "time": 138.3198581062503,
                        "value": 0
                    },
                    {
                        "number": 64,
                        "time": 138.3691658625003,
                        "value": 1
                    },
                    {
                        "number": 64,
                        "time": 138.7858647437503,
                        "value": 0
                    },
                    {
                        "number": 64,
                        "time": 138.8409734125003,
                        "value": 1
                    },
                    {
                        "number": 64,
                        "time": 139.2219000000003,
                        "value": 0
                    },
                    {
                        "number": 64,
                        "time": 139.2760418500003,
                        "value": 1
                    },
                    {
                        "number": 64,
                        "time": 139.7043425562503,
                        "value": 0
                    },
                    {
                        "number": 64,
                        "time": 139.7681525937503,
                        "value": 1
                    },
                    {
                        "number": 64,
                        "time": 140.1500460000003,
                        "value": 0
                    },
                    {
                        "number": 64,
                        "time": 140.2254578625003,
                        "value": 1
                    },
                    {
                        "number": 64,
                        "time": 140.6276544625003,
                        "value": 0
                    },
                    {
                        "number": 64,
                        "time": 140.6962985937503,
                        "value": 1
                    },
                    {
                        "number": 64,
                        "time": 141.07819200000029,
                        "value": 0
                    },
                    {
                        "number": 64,
                        "time": 141.1449024937503,
                        "value": 1
                    },
                    {
                        "number": 64,
                        "time": 141.5645018312503,
                        "value": 0
                    },
                    {
                        "number": 64,
                        "time": 141.64764824375033,
                        "value": 1
                    },
                    {
                        "number": 64,
                        "time": 142.0063380000003,
                        "value": 0
                    },
                    {
                        "number": 64,
                        "time": 143.9245064000003,
                        "value": 1
                    },
                    {
                        "number": 64,
                        "time": 144.7975437312503,
                        "value": 0
                    },
                    {
                        "number": 64,
                        "time": 144.8594201312503,
                        "value": 1
                    },
                    {
                        "number": 64,
                        "time": 145.71892200000028,
                        "value": 0
                    },
                    {
                        "number": 64,
                        "time": 145.7875661312503,
                        "value": 1
                    },
                    {
                        "number": 64,
                        "time": 146.66060346250026,
                        "value": 0
                    },
                    {
                        "number": 64,
                        "time": 146.74955078750025,
                        "value": 1
                    },
                    {
                        "number": 64,
                        "time": 147.57521400000024,
                        "value": 0
                    },
                    {
                        "number": 64,
                        "time": 151.38738033125017,
                        "value": 1
                    },
                    {
                        "number": 64,
                        "time": 152.50308916875014,
                        "value": 0
                    },
                    {
                        "number": 64,
                        "time": 153.08898133125012,
                        "value": 0
                    },
                    {
                        "number": 64,
                        "time": 153.14409000000012,
                        "value": 1
                    },
                    {
                        "number": 64,
                        "time": 154.35938116875008,
                        "value": 0
                    },
                    {
                        "number": 64,
                        "time": 155.03325383750007,
                        "value": 1
                    },
                    {
                        "number": 64,
                        "time": 155.96139983750007,
                        "value": 0
                    },
                    {
                        "number": 64,
                        "time": 156.01167441250007,
                        "value": 1
                    },
                    {
                        "number": 64,
                        "time": 156.85667400000006,
                        "value": 0
                    },
                    {
                        "number": 64,
                        "time": 156.92918540625004,
                        "value": 1
                    },
                    {
                        "number": 64,
                        "time": 157.32848155000005,
                        "value": 0
                    },
                    {
                        "number": 64,
                        "time": 157.39809250000005,
                        "value": 1
                    },
                    {
                        "number": 64,
                        "time": 157.82349275,
                        "value": 0
                    },
                    {
                        "number": 64,
                        "time": 157.8873027875,
                        "value": 1
                    },
                    {
                        "number": 64,
                        "time": 158.26242846249997,
                        "value": 0
                    },
                    {
                        "number": 64,
                        "time": 158.33784032499997,
                        "value": 1
                    },
                    {
                        "number": 64,
                        "time": 158.72360100624996,
                        "value": 0
                    },
                    {
                        "number": 64,
                        "time": 158.79611241249995,
                        "value": 1
                    },
                    {
                        "number": 64,
                        "time": 159.67398383749995,
                        "value": 0
                    },
                    {
                        "number": 64,
                        "time": 159.72425841249995,
                        "value": 1
                    },
                    {
                        "number": 64,
                        "time": 160.56925799999993,
                        "value": 0
                    },
                    {
                        "number": 64,
                        "time": 160.64660349999994,
                        "value": 1
                    },
                    {
                        "number": 64,
                        "time": 161.03913191249993,
                        "value": 0
                    },
                    {
                        "number": 64,
                        "time": 161.11647741249993,
                        "value": 1
                    },
                    {
                        "number": 64,
                        "time": 161.53607674999992,
                        "value": 0
                    },
                    {
                        "number": 64,
                        "time": 161.64049317499993,
                        "value": 1
                    },
                    {
                        "number": 64,
                        "time": 161.9827470124999,
                        "value": 0
                    },
                    {
                        "number": 64,
                        "time": 162.0774952499999,
                        "value": 1
                    },
                    {
                        "number": 64,
                        "time": 162.4361850062499,
                        "value": 0
                    },
                    {
                        "number": 64,
                        "time": 162.5028954999999,
                        "value": 1
                    },
                    {
                        "number": 64,
                        "time": 163.35369599999987,
                        "value": 0
                    },
                    {
                        "number": 64,
                        "time": 163.39816966249987,
                        "value": 1
                    },
                    {
                        "number": 64,
                        "time": 164.28184199999984,
                        "value": 0
                    },
                    {
                        "number": 64,
                        "time": 164.33695066874984,
                        "value": 1
                    },
                    {
                        "number": 64,
                        "time": 164.75171591249983,
                        "value": 0
                    },
                    {
                        "number": 64,
                        "time": 164.81262549374983,
                        "value": 1
                    },
                    {
                        "number": 64,
                        "time": 165.22642391874982,
                        "value": 0
                    },
                    {
                        "number": 64,
                        "time": 165.2544616624998,
                        "value": 1
                    },
                    {
                        "number": 64,
                        "time": 165.6953310124998,
                        "value": 0
                    },
                    {
                        "number": 64,
                        "time": 165.73593739999978,
                        "value": 1
                    },
                    {
                        "number": 64,
                        "time": 166.13813399999978,
                        "value": 0
                    },
                    {
                        "number": 64,
                        "time": 166.19324266874978,
                        "value": 1
                    },
                    {
                        "number": 64,
                        "time": 167.06627999999975,
                        "value": 0
                    },
                    {
                        "number": 64,
                        "time": 167.12718958124975,
                        "value": 1
                    },
                    {
                        "number": 64,
                        "time": 167.99442599999972,
                        "value": 0
                    },
                    {
                        "number": 64,
                        "time": 168.04953466874971,
                        "value": 1
                    },
                    {
                        "number": 64,
                        "time": 168.4642999124997,
                        "value": 0
                    },
                    {
                        "number": 64,
                        "time": 168.53101040624972,
                        "value": 1
                    },
                    {
                        "number": 64,
                        "time": 168.92257199999972,
                        "value": 0
                    },
                    {
                        "number": 64,
                        "time": 168.9776806687497,
                        "value": 1
                    },
                    {
                        "number": 64,
                        "time": 169.4272513874997,
                        "value": 0
                    },
                    {
                        "number": 64,
                        "time": 169.4804264187497,
                        "value": 1
                    },
                    {
                        "number": 64,
                        "time": 169.8507179999997,
                        "value": 0
                    },
                    {
                        "number": 64,
                        "time": 169.90582666874968,
                        "value": 1
                    },
                    {
                        "number": 64,
                        "time": 170.33606101249967,
                        "value": 0
                    },
                    {
                        "number": 64,
                        "time": 170.37666739999966,
                        "value": 1
                    },
                    {
                        "number": 64,
                        "time": 170.77209626874966,
                        "value": 0
                    },
                    {
                        "number": 64,
                        "time": 170.86781132499965,
                        "value": 1
                    },
                    {
                        "number": 64,
                        "time": 171.7476163874997,
                        "value": 0
                    },
                    {
                        "number": 64,
                        "time": 171.8094927874997,
                        "value": 1
                    },
                    {
                        "number": 64,
                        "time": 172.70380013124978,
                        "value": 0
                    },
                    {
                        "number": 64,
                        "time": 172.77147744374977,
                        "value": 1
                    },
                    {
                        "number": 64,
                        "time": 173.1224326499998,
                        "value": 0
                    },
                    {
                        "number": 64,
                        "time": 173.2084795187498,
                        "value": 1
                    },
                    {
                        "number": 64,
                        "time": 173.56330199999985,
                        "value": 0
                    },
                    {
                        "number": 64,
                        "time": 173.64064749999986,
                        "value": 1
                    },
                    {
                        "number": 64,
                        "time": 174.05347910624988,
                        "value": 0
                    },
                    {
                        "number": 64,
                        "time": 174.12695733124988,
                        "value": 1
                    },
                    {
                        "number": 64,
                        "time": 174.51175119374992,
                        "value": 0
                    },
                    {
                        "number": 64,
                        "time": 174.56009213124992,
                        "value": 1
                    },
                    {
                        "number": 64,
                        "time": 174.98549238124994,
                        "value": 0
                    },
                    {
                        "number": 64,
                        "time": 175.05800378749993,
                        "value": 1
                    },
                    {
                        "number": 64,
                        "time": 175.46020038749995,
                        "value": 0
                    },
                    {
                        "number": 64,
                        "time": 175.52207678749994,
                        "value": 1
                    },
                    {
                        "number": 64,
                        "time": 175.88946791249998,
                        "value": 0
                    },
                    {
                        "number": 64,
                        "time": 175.9668134125,
                        "value": 1
                    },
                    {
                        "number": 64,
                        "time": 176.34774000000002,
                        "value": 0
                    },
                    {
                        "number": 64,
                        "time": 176.44152141875003,
                        "value": 1
                    },
                    {
                        "number": 64,
                        "time": 176.83501665000006,
                        "value": 0
                    },
                    {
                        "number": 64,
                        "time": 176.92106351875006,
                        "value": 1
                    },
                    {
                        "number": 64,
                        "time": 177.2758860000001,
                        "value": 0
                    },
                    {
                        "number": 64,
                        "time": 177.3425964937501,
                        "value": 1
                    },
                    {
                        "number": 64,
                        "time": 177.75059400625014,
                        "value": 0
                    },
                    {
                        "number": 64,
                        "time": 177.82890632500013,
                        "value": 1
                    },
                    {
                        "number": 64,
                        "time": 178.22433519375016,
                        "value": 0
                    },
                    {
                        "number": 64,
                        "time": 178.27267613125017,
                        "value": 1
                    },
                    {
                        "number": 64,
                        "time": 178.68164046250018,
                        "value": 0
                    },
                    {
                        "number": 64,
                        "time": 178.77058778750018,
                        "value": 1
                    },
                    {
                        "number": 64,
                        "time": 179.1727843875002,
                        "value": 0
                    },
                    {
                        "number": 64,
                        "time": 179.2346607875002,
                        "value": 1
                    },
                    {
                        "number": 64,
                        "time": 180.12896813125028,
                        "value": 0
                    },
                    {
                        "number": 64,
                        "time": 180.19664544375027,
                        "value": 1
                    },
                    {
                        "number": 64,
                        "time": 180.5476006500003,
                        "value": 0
                    },
                    {
                        "number": 64,
                        "time": 180.6336475187503,
                        "value": 1
                    },
                    {
                        "number": 64,
                        "time": 180.98847000000035,
                        "value": 0
                    },
                    {
                        "number": 64,
                        "time": 181.06581550000035,
                        "value": 1
                    },
                    {
                        "number": 64,
                        "time": 181.4631780062504,
                        "value": 0
                    },
                    {
                        "number": 64,
                        "time": 181.5298885000004,
                        "value": 1
                    },
                    {
                        "number": 64,
                        "time": 181.93691919375044,
                        "value": 0
                    },
                    {
                        "number": 64,
                        "time": 181.98526013125044,
                        "value": 1
                    },
                    {
                        "number": 64,
                        "time": 182.39519128125048,
                        "value": 0
                    },
                    {
                        "number": 64,
                        "time": 182.45610086250048,
                        "value": 1
                    },
                    {
                        "number": 64,
                        "time": 182.8853683875005,
                        "value": 0
                    },
                    {
                        "number": 64,
                        "time": 182.9472447875005,
                        "value": 1
                    },
                    {
                        "number": 64,
                        "time": 183.32527091875053,
                        "value": 0
                    },
                    {
                        "number": 64,
                        "time": 183.38618050000053,
                        "value": 1
                    },
                    {
                        "number": 64,
                        "time": 183.84155213125058,
                        "value": 0
                    },
                    {
                        "number": 64,
                        "time": 183.90922944375058,
                        "value": 1
                    },
                    {
                        "number": 64,
                        "time": 184.2601846500006,
                        "value": 0
                    },
                    {
                        "number": 64,
                        "time": 184.3462315187506,
                        "value": 1
                    },
                    {
                        "number": 64,
                        "time": 184.70105400000065,
                        "value": 0
                    },
                    {
                        "number": 64,
                        "time": 184.77839950000066,
                        "value": 1
                    },
                    {
                        "number": 64,
                        "time": 185.1757620062507,
                        "value": 0
                    },
                    {
                        "number": 64,
                        "time": 185.2424725000007,
                        "value": 1
                    },
                    {
                        "number": 64,
                        "time": 185.64950319375075,
                        "value": 0
                    },
                    {
                        "number": 64,
                        "time": 185.69784413125075,
                        "value": 1
                    },
                    {
                        "number": 64,
                        "time": 186.10777528125078,
                        "value": 0
                    },
                    {
                        "number": 64,
                        "time": 186.16868486250078,
                        "value": 1
                    },
                    {
                        "number": 64,
                        "time": 186.5979523875008,
                        "value": 0
                    },
                    {
                        "number": 64,
                        "time": 186.6598287875008,
                        "value": 1
                    },
                    {
                        "number": 64,
                        "time": 187.02721991250084,
                        "value": 0
                    },
                    {
                        "number": 64,
                        "time": 187.09876450000084,
                        "value": 1
                    },
                    {
                        "number": 64,
                        "time": 187.55413613125089,
                        "value": 0
                    },
                    {
                        "number": 64,
                        "time": 187.62181344375088,
                        "value": 1
                    },
                    {
                        "number": 64,
                        "time": 187.9689013750009,
                        "value": 0
                    },
                    {
                        "number": 64,
                        "time": 188.05881551875092,
                        "value": 1
                    },
                    {
                        "number": 64,
                        "time": 188.41363800000096,
                        "value": 0
                    },
                    {
                        "number": 64,
                        "time": 188.48614940625095,
                        "value": 1
                    },
                    {
                        "number": 64,
                        "time": 188.88834600625097,
                        "value": 0
                    },
                    {
                        "number": 64,
                        "time": 188.92218466250097,
                        "value": 1
                    },
                    {
                        "number": 64,
                        "time": 189.34178400000098,
                        "value": 0
                    },
                    {
                        "number": 64,
                        "time": 189.424930412501,
                        "value": 1
                    },
                    {
                        "number": 64,
                        "time": 189.81649200625102,
                        "value": 0
                    },
                    {
                        "number": 64,
                        "time": 189.88320250000103,
                        "value": 1
                    },
                    {
                        "number": 64,
                        "time": 190.26993000000107,
                        "value": 0
                    },
                    {
                        "number": 64,
                        "time": 190.34244140625106,
                        "value": 1
                    },
                    {
                        "number": 64,
                        "time": 190.74463800625108,
                        "value": 0
                    },
                    {
                        "number": 64,
                        "time": 190.8277844187511,
                        "value": 1
                    },
                    {
                        "number": 64,
                        "time": 191.19807600000112,
                        "value": 0
                    },
                    {
                        "number": 64,
                        "time": 191.27542150000113,
                        "value": 1
                    },
                    {
                        "number": 64,
                        "time": 191.67278400625116,
                        "value": 0
                    },
                    {
                        "number": 64,
                        "time": 191.73949450000117,
                        "value": 1
                    },
                    {
                        "number": 64,
                        "time": 192.0769142437512,
                        "value": 0
                    },
                    {
                        "number": 64,
                        "time": 192.12622200000118,
                        "value": 1
                    },
                    {
                        "number": 64,
                        "time": 192.61059819375123,
                        "value": 0
                    },
                    {
                        "number": 64,
                        "time": 192.70631325000122,
                        "value": 1
                    },
                    {
                        "number": 64,
                        "time": 193.05436800000123,
                        "value": 0
                    },
                    {
                        "number": 64,
                        "time": 193.10850985000124,
                        "value": 1
                    },
                    {
                        "number": 64,
                        "time": 193.53294328125128,
                        "value": 0
                    },
                    {
                        "number": 64,
                        "time": 193.60738832500127,
                        "value": 1
                    },
                    {
                        "number": 64,
                        "time": 193.9883149125013,
                        "value": 0
                    },
                    {
                        "number": 64,
                        "time": 194.0849967875013,
                        "value": 1
                    },
                    {
                        "number": 64,
                        "time": 194.45238791250134,
                        "value": 0
                    },
                    {
                        "number": 64,
                        "time": 194.53553432500135,
                        "value": 1
                    },
                    {
                        "number": 64,
                        "time": 194.97930413125138,
                        "value": 0
                    },
                    {
                        "number": 64,
                        "time": 195.04698144375138,
                        "value": 1
                    },
                    {
                        "number": 64,
                        "time": 195.38053391250142,
                        "value": 0
                    },
                    {
                        "number": 64,
                        "time": 195.43564258125141,
                        "value": 1
                    },
                    {
                        "number": 64,
                        "time": 195.83880600000145,
                        "value": 0
                    },
                    {
                        "number": 64,
                        "time": 195.92195241250147,
                        "value": 1
                    },
                    {
                        "number": 64,
                        "time": 196.3135140062515,
                        "value": 0
                    },
                    {
                        "number": 64,
                        "time": 196.38602541250148,
                        "value": 1
                    },
                    {
                        "number": 64,
                        "time": 196.7669520000015,
                        "value": 0
                    },
                    {
                        "number": 64,
                        "time": 196.84429750000152,
                        "value": 1
                    },
                    {
                        "number": 64,
                        "time": 197.24166000625155,
                        "value": 0
                    },
                    {
                        "number": 64,
                        "time": 197.30837050000156,
                        "value": 1
                    },
                    {
                        "number": 64,
                        "time": 197.6950980000016,
                        "value": 0
                    },
                    {
                        "number": 64,
                        "time": 197.7724435000016,
                        "value": 1
                    },
                    {
                        "number": 64,
                        "time": 198.16980600625163,
                        "value": 0
                    },
                    {
                        "number": 64,
                        "time": 198.24811832500163,
                        "value": 1
                    },
                    {
                        "number": 64,
                        "time": 198.62324400000165,
                        "value": 0
                    },
                    {
                        "number": 64,
                        "time": 198.71219132500164,
                        "value": 1
                    },
                    {
                        "number": 64,
                        "time": 199.09795200625166,
                        "value": 0
                    },
                    {
                        "number": 64,
                        "time": 199.17626432500165,
                        "value": 1
                    },
                    {
                        "number": 64,
                        "time": 199.50208224375166,
                        "value": 0
                    },
                    {
                        "number": 64,
                        "time": 199.55139000000165,
                        "value": 1
                    },
                    {
                        "number": 64,
                        "time": 200.0357661937517,
                        "value": 0
                    },
                    {
                        "number": 64,
                        "time": 200.13148125000168,
                        "value": 1
                    },
                    {
                        "number": 64,
                        "time": 200.4795360000017,
                        "value": 0
                    },
                    {
                        "number": 64,
                        "time": 200.5336778500017,
                        "value": 1
                    },
                    {
                        "number": 64,
                        "time": 200.95424400625174,
                        "value": 0
                    },
                    {
                        "number": 64,
                        "time": 200.98808266250174,
                        "value": 1
                    },
                    {
                        "number": 64,
                        "time": 201.35837424375174,
                        "value": 0
                    },
                    {
                        "number": 64,
                        "time": 201.40768200000173,
                        "value": 1
                    },
                    {
                        "number": 64,
                        "time": 201.89205819375178,
                        "value": 0
                    },
                    {
                        "number": 64,
                        "time": 201.98777325000177,
                        "value": 1
                    },
                    {
                        "number": 64,
                        "time": 202.33582800000178,
                        "value": 0
                    },
                    {
                        "number": 64,
                        "time": 202.3899698500018,
                        "value": 1
                    },
                    {
                        "number": 64,
                        "time": 202.81053600625182,
                        "value": 0
                    },
                    {
                        "number": 64,
                        "time": 202.89948333125182,
                        "value": 1
                    },
                    {
                        "number": 64,
                        "time": 203.21466624375182,
                        "value": 0
                    },
                    {
                        "number": 64,
                        "time": 203.2639740000018,
                        "value": 1
                    },
                    {
                        "number": 64,
                        "time": 203.74835019375186,
                        "value": 0
                    },
                    {
                        "number": 64,
                        "time": 203.84406525000185,
                        "value": 1
                    },
                    {
                        "number": 64,
                        "time": 204.19212000000186,
                        "value": 0
                    },
                    {
                        "number": 64,
                        "time": 204.24626185000187,
                        "value": 1
                    },
                    {
                        "number": 64,
                        "time": 204.6668280062519,
                        "value": 0
                    },
                    {
                        "number": 64,
                        "time": 204.7451403250019,
                        "value": 1
                    },
                    {
                        "number": 64,
                        "time": 205.0709582437519,
                        "value": 0
                    },
                    {
                        "number": 64,
                        "time": 205.1202660000019,
                        "value": 1
                    },
                    {
                        "number": 64,
                        "time": 205.60464219375194,
                        "value": 0
                    },
                    {
                        "number": 64,
                        "time": 205.70035725000193,
                        "value": 1
                    },
                    {
                        "number": 64,
                        "time": 206.05421291250195,
                        "value": 0
                    },
                    {
                        "number": 64,
                        "time": 206.12575750000195,
                        "value": 1
                    },
                    {
                        "number": 64,
                        "time": 206.56179275625198,
                        "value": 0
                    },
                    {
                        "number": 64,
                        "time": 206.62850325000198,
                        "value": 1
                    },
                    {
                        "number": 64,
                        "time": 206.976558000002,
                        "value": 0
                    },
                    {
                        "number": 64,
                        "time": 214.4423323875018,
                        "value": 1
                    },
                    {
                        "number": 64,
                        "time": 214.8996376562518,
                        "value": 0
                    },
                    {
                        "number": 64,
                        "time": 222.7956463875016,
                        "value": 1
                    },
                    {
                        "number": 64,
                        "time": 223.25295165625158,
                        "value": 0
                    },
                    {
                        "number": 64,
                        "time": 226.48115946250147,
                        "value": 1
                    },
                    {
                        "number": 64,
                        "time": 226.94523246250145,
                        "value": 0
                    },
                    {
                        "number": 64,
                        "time": 227.02741205625145,
                        "value": 1
                    },
                    {
                        "number": 64,
                        "time": 227.39577000000145,
                        "value": 0
                    },
                    {
                        "number": 64,
                        "time": 227.53885917500145,
                        "value": 1
                    },
                    {
                        "number": 64,
                        "time": 227.87047800625143,
                        "value": 0
                    },
                    {
                        "number": 64,
                        "time": 228.3374514625014,
                        "value": 1
                    },
                    {
                        "number": 64,
                        "time": 229.26559746250138,
                        "value": 0
                    },
                    {
                        "number": 64,
                        "time": 229.29943611875137,
                        "value": 1
                    },
                    {
                        "number": 64,
                        "time": 229.71613500000137,
                        "value": 0
                    },
                    {
                        "number": 64,
                        "time": 232.54117938750133,
                        "value": 1
                    },
                    {
                        "number": 64,
                        "time": 233.46932538750133,
                        "value": 0
                    },
                    {
                        "number": 64,
                        "time": 233.94016611875134,
                        "value": 1
                    },
                    {
                        "number": 64,
                        "time": 234.15866715625134,
                        "value": 0
                    },
                    {
                        "number": 64,
                        "time": 234.87507985000133,
                        "value": 1
                    },
                    {
                        "number": 64,
                        "time": 235.29951328125134,
                        "value": 0
                    },
                    {
                        "number": 64,
                        "time": 235.46290565000135,
                        "value": 1
                    },
                    {
                        "number": 64,
                        "time": 235.74908400000135,
                        "value": 0
                    },
                    {
                        "number": 64,
                        "time": 235.81772813125136,
                        "value": 1
                    },
                    {
                        "number": 64,
                        "time": 236.22862610000135,
                        "value": 0
                    },
                    {
                        "number": 64,
                        "time": 236.68399773125134,
                        "value": 1
                    },
                    {
                        "number": 64,
                        "time": 236.94987288750133,
                        "value": 0
                    },
                    {
                        "number": 64,
                        "time": 237.66628558125134,
                        "value": 1
                    },
                    {
                        "number": 64,
                        "time": 237.92539300625134,
                        "value": 0
                    },
                    {
                        "number": 64,
                        "time": 238.07524991250133,
                        "value": 1
                    },
                    {
                        "number": 64,
                        "time": 238.53352200000137,
                        "value": 0
                    },
                    {
                        "number": 64,
                        "time": 238.60023249375138,
                        "value": 1
                    },
                    {
                        "number": 64,
                        "time": 238.78779533125137,
                        "value": 0
                    },
                    {
                        "number": 64,
                        "time": 239.53031213125143,
                        "value": 1
                    },
                    {
                        "number": 64,
                        "time": 239.72077542500145,
                        "value": 0
                    },
                    {
                        "number": 64,
                        "time": 240.02145605625145,
                        "value": 1
                    },
                    {
                        "number": 64,
                        "time": 240.38981400000145,
                        "value": 0
                    },
                    {
                        "number": 64,
                        "time": 240.45845813125146,
                        "value": 1
                    },
                    {
                        "number": 64,
                        "time": 240.69726236250148,
                        "value": 0
                    },
                    {
                        "number": 64,
                        "time": 241.37306866875144,
                        "value": 1
                    },
                    {
                        "number": 64,
                        "time": 241.58286833750145,
                        "value": 0
                    },
                    {
                        "number": 64,
                        "time": 242.30701558125145,
                        "value": 1
                    },
                    {
                        "number": 64,
                        "time": 242.53325116875143,
                        "value": 0
                    },
                    {
                        "number": 64,
                        "time": 243.24289613125143,
                        "value": 1
                    },
                    {
                        "number": 64,
                        "time": 243.64702636875143,
                        "value": 0
                    },
                    {
                        "number": 64,
                        "time": 243.68086502500142,
                        "value": 1
                    },
                    {
                        "number": 64,
                        "time": 244.11496664375142,
                        "value": 0
                    },
                    {
                        "number": 64,
                        "time": 244.1575066687514,
                        "value": 1
                    },
                    {
                        "number": 64,
                        "time": 244.5867741937514,
                        "value": 0
                    },
                    {
                        "number": 64,
                        "time": 244.66411969375142,
                        "value": 1
                    },
                    {
                        "number": 64,
                        "time": 245.0305440000014,
                        "value": 0
                    },
                    {
                        "number": 64,
                        "time": 245.0856526687514,
                        "value": 1
                    },
                    {
                        "number": 64,
                        "time": 245.95869000000147,
                        "value": 0
                    },
                    {
                        "number": 64,
                        "time": 246.01669912500148,
                        "value": 1
                    },
                    {
                        "number": 64,
                        "time": 246.43919891875152,
                        "value": 0
                    },
                    {
                        "number": 64,
                        "time": 246.49817486250151,
                        "value": 1
                    },
                    {
                        "number": 64,
                        "time": 246.88683600000155,
                        "value": 0
                    },
                    {
                        "number": 64,
                        "time": 246.92550875000154,
                        "value": 1
                    },
                    {
                        "number": 64,
                        "time": 247.35670991250157,
                        "value": 0
                    },
                    {
                        "number": 64,
                        "time": 247.41761949375157,
                        "value": 1
                    },
                    {
                        "number": 64,
                        "time": 247.8149820000016,
                        "value": 0
                    },
                    {
                        "number": 64,
                        "time": 247.89812841250162,
                        "value": 1
                    },
                    {
                        "number": 64,
                        "time": 248.22974724375163,
                        "value": 0
                    },
                    {
                        "number": 64,
                        "time": 248.77599983750167,
                        "value": 1
                    },
                    {
                        "number": 64,
                        "time": 249.0525100000017,
                        "value": 0
                    },
                    {
                        "number": 64,
                        "time": 249.2845465000017,
                        "value": 1
                    },
                    {
                        "number": 64,
                        "time": 249.67127400000174,
                        "value": 0
                    },
                    {
                        "number": 64,
                        "time": 249.72638266875174,
                        "value": 1
                    },
                    {
                        "number": 64,
                        "time": 250.15661701250175,
                        "value": 0
                    },
                    {
                        "number": 64,
                        "time": 250.21849341250174,
                        "value": 1
                    },
                    {
                        "number": 64,
                        "time": 250.59942000000177,
                        "value": 0
                    },
                    {
                        "number": 64,
                        "time": 250.68836732500176,
                        "value": 1
                    },
                    {
                        "number": 64,
                        "time": 251.0692939125018,
                        "value": 0
                    },
                    {
                        "number": 64,
                        "time": 251.1302034937518,
                        "value": 1
                    },
                    {
                        "number": 64,
                        "time": 251.52756600000183,
                        "value": 0
                    },
                    {
                        "number": 64,
                        "time": 251.57203966250182,
                        "value": 1
                    },
                    {
                        "number": 64,
                        "time": 251.82051208125182,
                        "value": 0
                    },
                    {
                        "number": 64,
                        "time": 252.4885838375019,
                        "value": 1
                    },
                    {
                        "number": 64,
                        "time": 252.7264212500019,
                        "value": 0
                    },
                    {
                        "number": 64,
                        "time": 252.9584577500019,
                        "value": 1
                    },
                    {
                        "number": 64,
                        "time": 253.3838580000019,
                        "value": 0
                    },
                    {
                        "number": 64,
                        "time": 253.4863407875019,
                        "value": 1
                    },
                    {
                        "number": 64,
                        "time": 254.3120040000019,
                        "value": 0
                    },
                    {
                        "number": 64,
                        "time": 254.3738804000019,
                        "value": 1
                    },
                    {
                        "number": 64,
                        "time": 255.24015000000188,
                        "value": 0
                    },
                    {
                        "number": 64,
                        "time": 255.32909732500187,
                        "value": 1
                    },
                    {
                        "number": 64,
                        "time": 255.61527567500187,
                        "value": 0
                    },
                    {
                        "number": 64,
                        "time": 256.2224378500019,
                        "value": 1
                    },
                    {
                        "number": 64,
                        "time": 256.46897663125185,
                        "value": 0
                    },
                    {
                        "number": 64,
                        "time": 256.67104175000185,
                        "value": 1
                    },
                    {
                        "number": 64,
                        "time": 257.09644200000184,
                        "value": 0
                    },
                    {
                        "number": 64,
                        "time": 257.20569251875185,
                        "value": 1
                    },
                    {
                        "number": 64,
                        "time": 258.0245880000018,
                        "value": 0
                    },
                    {
                        "number": 64,
                        "time": 258.1203030562518,
                        "value": 1
                    },
                    {
                        "number": 64,
                        "time": 258.9527340000019,
                        "value": 0
                    },
                    {
                        "number": 64,
                        "time": 259.0416813250019,
                        "value": 1
                    },
                    {
                        "number": 64,
                        "time": 259.3346274062519,
                        "value": 0
                    },
                    {
                        "number": 64,
                        "time": 259.93502185000204,
                        "value": 1
                    },
                    {
                        "number": 64,
                        "time": 260.146755156252,
                        "value": 0
                    },
                    {
                        "number": 64,
                        "time": 260.38362575000207,
                        "value": 1
                    },
                    {
                        "number": 64,
                        "time": 260.80902600000206,
                        "value": 0
                    },
                    {
                        "number": 64,
                        "time": 260.86510148750205,
                        "value": 1
                    },
                    {
                        "number": 64,
                        "time": 261.27019854375203,
                        "value": 0
                    },
                    {
                        "number": 64,
                        "time": 261.35817905000204,
                        "value": 1
                    },
                    {
                        "number": 64,
                        "time": 261.73717200000203,
                        "value": 0
                    },
                    {
                        "number": 64,
                        "time": 261.79904840000205,
                        "value": 1
                    },
                    {
                        "number": 64,
                        "time": 262.6653180000021,
                        "value": 0
                    },
                    {
                        "number": 64,
                        "time": 262.7542653250021,
                        "value": 1
                    },
                    {
                        "number": 64,
                        "time": 263.12939100000216,
                        "value": 0
                    },
                    {
                        "number": 64,
                        "time": 263.20190240625215,
                        "value": 1
                    },
                    {
                        "number": 64,
                        "time": 263.5934640000022,
                        "value": 0
                    },
                    {
                        "number": 64,
                        "time": 263.6476058500022,
                        "value": 1
                    },
                    {
                        "number": 64,
                        "time": 264.0720392812522,
                        "value": 0
                    },
                    {
                        "number": 64,
                        "time": 264.1735552500022,
                        "value": 1
                    },
                    {
                        "number": 64,
                        "time": 264.4887381625022,
                        "value": 0
                    },
                    {
                        "number": 64,
                        "time": 264.5776854875022,
                        "value": 1
                    },
                    {
                        "number": 64,
                        "time": 264.9827825437522,
                        "value": 0
                    },
                    {
                        "number": 64,
                        "time": 265.0359575750022,
                        "value": 1
                    },
                    {
                        "number": 64,
                        "time": 265.4497560000022,
                        "value": 0
                    },
                    {
                        "number": 64,
                        "time": 265.5116324000022,
                        "value": 1
                    },
                    {
                        "number": 64,
                        "time": 266.3779020000023,
                        "value": 0
                    },
                    {
                        "number": 64,
                        "time": 266.4668493250023,
                        "value": 1
                    },
                    {
                        "number": 64,
                        "time": 266.85357682500234,
                        "value": 0
                    },
                    {
                        "number": 64,
                        "time": 266.9309223250023,
                        "value": 1
                    },
                    {
                        "number": 64,
                        "time": 267.36695758125234,
                        "value": 0
                    },
                    {
                        "number": 64,
                        "time": 267.43366807500234,
                        "value": 1
                    },
                    {
                        "number": 64,
                        "time": 267.7701210000024,
                        "value": 0
                    },
                    {
                        "number": 64,
                        "time": 267.8368314937524,
                        "value": 1
                    },
                    {
                        "number": 64,
                        "time": 268.2728667500025,
                        "value": 0
                    },
                    {
                        "number": 64,
                        "time": 268.3231413250025,
                        "value": 1
                    },
                    {
                        "number": 64,
                        "time": 268.6924660875025,
                        "value": 0
                    },
                    {
                        "number": 64,
                        "time": 268.7533756687525,
                        "value": 1
                    },
                    {
                        "number": 64,
                        "time": 269.1807095562525,
                        "value": 0
                    },
                    {
                        "number": 64,
                        "time": 269.2512873250025,
                        "value": 1
                    },
                    {
                        "number": 64,
                        "time": 269.64864983125256,
                        "value": 0
                    },
                    {
                        "number": 64,
                        "time": 269.74243125000254,
                        "value": 1
                    },
                    {
                        "number": 64,
                        "time": 270.0904860000026,
                        "value": 0
                    },
                    {
                        "number": 64,
                        "time": 270.1571964937526,
                        "value": 1
                    },
                    {
                        "number": 64,
                        "time": 271.01863200000264,
                        "value": 0
                    },
                    {
                        "number": 64,
                        "time": 271.07277385000265,
                        "value": 1
                    },
                    {
                        "number": 64,
                        "time": 271.5030081937527,
                        "value": 0
                    },
                    {
                        "number": 64,
                        "time": 271.5648845937527,
                        "value": 1
                    },
                    {
                        "number": 64,
                        "time": 271.9467780000028,
                        "value": 0
                    },
                    {
                        "number": 64,
                        "time": 272.0134884937528,
                        "value": 1
                    },
                    {
                        "number": 64,
                        "time": 272.8749240000028,
                        "value": 0
                    },
                    {
                        "number": 64,
                        "time": 272.9638713250028,
                        "value": 1
                    },
                    {
                        "number": 64,
                        "time": 273.34576473125287,
                        "value": 0
                    },
                    {
                        "number": 64,
                        "time": 273.4279443250029,
                        "value": 1
                    },
                    {
                        "number": 64,
                        "time": 273.80307000000295,
                        "value": 0
                    },
                    {
                        "number": 64,
                        "time": 273.80307000000295,
                        "value": 0
                    },
                    {
                        "number": 64,
                        "time": 273.86978049375296,
                        "value": 1
                    },
                    {
                        "number": 64,
                        "time": 274.731216000003,
                        "value": 0
                    },
                    {
                        "number": 64,
                        "time": 274.785357850003,
                        "value": 1
                    },
                    {
                        "number": 64,
                        "time": 275.21172491875296,
                        "value": 0
                    },
                    {
                        "number": 64,
                        "time": 275.28907041875294,
                        "value": 1
                    },
                    {
                        "number": 64,
                        "time": 275.65936200000294,
                        "value": 0
                    },
                    {
                        "number": 64,
                        "time": 275.72607249375295,
                        "value": 1
                    },
                    {
                        "number": 64,
                        "time": 276.58750800000297,
                        "value": 0
                    },
                    {
                        "number": 64,
                        "time": 276.717061712503,
                        "value": 1
                    },
                    {
                        "number": 64,
                        "time": 277.065116462503,
                        "value": 0
                    },
                    {
                        "number": 64,
                        "time": 277.133760593753,
                        "value": 1
                    },
                    {
                        "number": 64,
                        "time": 277.51565400000305,
                        "value": 0
                    },
                    {
                        "number": 64,
                        "time": 277.58236449375306,
                        "value": 1
                    },
                    {
                        "number": 64,
                        "time": 278.4438000000031,
                        "value": 0
                    },
                    {
                        "number": 64,
                        "time": 278.5395150562531,
                        "value": 1
                    },
                    {
                        "number": 64,
                        "time": 278.92817619375313,
                        "value": 0
                    },
                    {
                        "number": 64,
                        "time": 278.9968203250031,
                        "value": 1
                    },
                    {
                        "number": 64,
                        "time": 279.37194600000316,
                        "value": 0
                    },
                    {
                        "number": 64,
                        "time": 279.4386564937532,
                        "value": 1
                    },
                    {
                        "number": 64,
                        "time": 280.3000920000032,
                        "value": 0
                    },
                    {
                        "number": 64,
                        "time": 280.40257478750317,
                        "value": 1
                    },
                    {
                        "number": 64,
                        "time": 280.78446819375324,
                        "value": 0
                    },
                    {
                        "number": 64,
                        "time": 280.88018325000326,
                        "value": 1
                    },
                    {
                        "number": 64,
                        "time": 281.22823800000333,
                        "value": 0
                    },
                    {
                        "number": 64,
                        "time": 281.22823800000333,
                        "value": 0
                    },
                    {
                        "number": 64,
                        "time": 281.29494849375334,
                        "value": 1
                    },
                    {
                        "number": 64,
                        "time": 282.15638400000336,
                        "value": 0
                    },
                    {
                        "number": 64,
                        "time": 282.21052585000336,
                        "value": 1
                    },
                    {
                        "number": 64,
                        "time": 282.64076019375335,
                        "value": 0
                    },
                    {
                        "number": 64,
                        "time": 282.7229397875034,
                        "value": 1
                    },
                    {
                        "number": 64,
                        "time": 283.0845300000034,
                        "value": 0
                    },
                    {
                        "number": 64,
                        "time": 283.0845300000034,
                        "value": 0
                    },
                    {
                        "number": 64,
                        "time": 283.1512404937534,
                        "value": 1
                    },
                    {
                        "number": 64,
                        "time": 284.0126760000034,
                        "value": 0
                    },
                    {
                        "number": 64,
                        "time": 284.0668178500034,
                        "value": 1
                    },
                    {
                        "number": 64,
                        "time": 284.4970521937534,
                        "value": 0
                    },
                    {
                        "number": 64,
                        "time": 284.5859995187534,
                        "value": 1
                    },
                    {
                        "number": 64,
                        "time": 284.9408220000034,
                        "value": 0
                    },
                    {
                        "number": 64,
                        "time": 285.0075324937534,
                        "value": 1
                    },
                    {
                        "number": 64,
                        "time": 285.8689680000034,
                        "value": 0
                    },
                    {
                        "number": 64,
                        "time": 285.9231098500034,
                        "value": 1
                    },
                    {
                        "number": 64,
                        "time": 286.34464282500346,
                        "value": 0
                    },
                    {
                        "number": 64,
                        "time": 286.39975149375346,
                        "value": 1
                    },
                    {
                        "number": 64,
                        "time": 286.79711400000355,
                        "value": 0
                    },
                    {
                        "number": 64,
                        "time": 286.86382449375355,
                        "value": 1
                    },
                    {
                        "number": 64,
                        "time": 287.7252600000036,
                        "value": 0
                    },
                    {
                        "number": 64,
                        "time": 287.7794018500036,
                        "value": 1
                    },
                    {
                        "number": 64,
                        "time": 288.2057689187536,
                        "value": 0
                    },
                    {
                        "number": 64,
                        "time": 288.2831144187536,
                        "value": 1
                    },
                    {
                        "number": 64,
                        "time": 288.65340600000366,
                        "value": 0
                    },
                    {
                        "number": 64,
                        "time": 296.1191803875043,
                        "value": 1
                    },
                    {
                        "number": 64,
                        "time": 296.57648565625425,
                        "value": 0
                    },
                    {
                        "number": 64,
                        "time": 299.80469346250493,
                        "value": 1
                    },
                    {
                        "number": 64,
                        "time": 300.26876646250497,
                        "value": 0
                    },
                    {
                        "number": 64,
                        "time": 300.350946056255,
                        "value": 1
                    },
                    {
                        "number": 64,
                        "time": 300.7193040000051,
                        "value": 0
                    },
                    {
                        "number": 64,
                        "time": 300.8623931750051,
                        "value": 1
                    },
                    {
                        "number": 64,
                        "time": 301.1698415375051,
                        "value": 0
                    },
                    {
                        "number": 64,
                        "time": 301.64745000000516,
                        "value": 1
                    },
                    {
                        "number": 64,
                        "time": 302.57559600000536,
                        "value": 0
                    },
                    {
                        "number": 64,
                        "time": 302.68581333750535,
                        "value": 1
                    },
                    {
                        "number": 64,
                        "time": 303.5037420000055,
                        "value": 0
                    },
                    {
                        "number": 64,
                        "time": 303.6139593375055,
                        "value": 1
                    },
                    {
                        "number": 64,
                        "time": 303.99005183125547,
                        "value": 0
                    },
                    {
                        "number": 64,
                        "time": 304.0780323375055,
                        "value": 1
                    },
                    {
                        "number": 64,
                        "time": 304.4318880000055,
                        "value": 0
                    },
                    {
                        "number": 64,
                        "time": 304.4811957562555,
                        "value": 1
                    },
                    {
                        "number": 64,
                        "time": 304.90176191250544,
                        "value": 0
                    },
                    {
                        "number": 64,
                        "time": 306.4312691750054,
                        "value": 1
                    },
                    {
                        "number": 64,
                        "time": 306.7387175375054,
                        "value": 0
                    },
                    {
                        "number": 64,
                        "time": 307.2163260000055,
                        "value": 1
                    },
                    {
                        "number": 64,
                        "time": 307.6852330937555,
                        "value": 0
                    },
                    {
                        "number": 64,
                        "time": 307.74710949375554,
                        "value": 1
                    },
                    {
                        "number": 64,
                        "time": 308.1444720000055,
                        "value": 0
                    },
                    {
                        "number": 64,
                        "time": 308.24018705625554,
                        "value": 1
                    },
                    {
                        "number": 64,
                        "time": 308.4451526312555,
                        "value": 0
                    },
                    {
                        "number": 64,
                        "time": 309.0726180000056,
                        "value": 1
                    },
                    {
                        "number": 64,
                        "time": 310.0007640000056,
                        "value": 0
                    },
                    {
                        "number": 64,
                        "time": 310.13321816875555,
                        "value": 1
                    },
                    {
                        "number": 64,
                        "time": 310.92891000000554,
                        "value": 0
                    },
                    {
                        "number": 64,
                        "time": 311.07296599375553,
                        "value": 1
                    },
                    {
                        "number": 64,
                        "time": 311.40361800625556,
                        "value": 0
                    },
                    {
                        "number": 64,
                        "time": 311.49256533125555,
                        "value": 1
                    },
                    {
                        "number": 64,
                        "time": 312.7852020000055,
                        "value": 0
                    },
                    {
                        "number": 64,
                        "time": 312.8809170562555,
                        "value": 1
                    },
                    {
                        "number": 64,
                        "time": 313.27151183125545,
                        "value": 0
                    },
                    {
                        "number": 64,
                        "time": 313.38559644375545,
                        "value": 1
                    },
                    {
                        "number": 64,
                        "time": 313.71334800000545,
                        "value": 0
                    },
                    {
                        "number": 64,
                        "time": 313.82259851875546,
                        "value": 1
                    },
                    {
                        "number": 64,
                        "time": 314.6414940000054,
                        "value": 0
                    },
                    {
                        "number": 64,
                        "time": 314.7642799812554,
                        "value": 1
                    },
                    {
                        "number": 64,
                        "time": 315.1268370125054,
                        "value": 0
                    },
                    {
                        "number": 64,
                        "time": 315.2283529812554,
                        "value": 1
                    },
                    {
                        "number": 64,
                        "time": 315.5696400000054,
                        "value": 0
                    },
                    {
                        "number": 64,
                        "time": 315.6788905187554,
                        "value": 1
                    },
                    {
                        "number": 64,
                        "time": 316.0549830125054,
                        "value": 0
                    },
                    {
                        "number": 64,
                        "time": 316.15649898125537,
                        "value": 1
                    },
                    {
                        "number": 64,
                        "time": 316.49778600000536,
                        "value": 0
                    },
                    {
                        "number": 64,
                        "time": 316.54516011875535,
                        "value": 1
                    },
                    {
                        "number": 64,
                        "time": 316.97926173750534,
                        "value": 0
                    },
                    {
                        "number": 64,
                        "time": 317.02373540000536,
                        "value": 1
                    },
                    {
                        "number": 64,
                        "time": 317.9103081937553,
                        "value": 0
                    },
                    {
                        "number": 64,
                        "time": 317.9441468500053,
                        "value": 1
                    },
                    {
                        "number": 64,
                        "time": 318.3540780000053,
                        "value": 0
                    },
                    {
                        "number": 64,
                        "time": 325.81985238750593,
                        "value": 1
                    },
                    {
                        "number": 64,
                        "time": 326.2771576562559,
                        "value": 0
                    },
                    {
                        "number": 64,
                        "time": 328.604290387506,
                        "value": 1
                    },
                    {
                        "number": 64,
                        "time": 329.061595656256,
                        "value": 0
                    },
                    {
                        "number": 64,
                        "time": 330.4605823875061,
                        "value": 1
                    },
                    {
                        "number": 64,
                        "time": 330.91788765625614,
                        "value": 0
                    },
                    {
                        "number": 64,
                        "time": 333.20441400000647,
                        "value": 1
                    },
                    {
                        "number": 64,
                        "time": 334.13256000000655,
                        "value": 0
                    },
                    {
                        "number": 64,
                        "time": 334.1770336625066,
                        "value": 1
                    },
                    {
                        "number": 64,
                        "time": 334.62177028750665,
                        "value": 0
                    },
                    {
                        "number": 64,
                        "time": 334.6739785000066,
                        "value": 1
                    },
                    {
                        "number": 64,
                        "time": 335.0607060000067,
                        "value": 0
                    },
                    {
                        "number": 64,
                        "time": 335.1225824000067,
                        "value": 1
                    },
                    {
                        "number": 64,
                        "time": 335.5247790000067,
                        "value": 0
                    },
                    {
                        "number": 64,
                        "time": 335.57215311875666,
                        "value": 1
                    },
                    {
                        "number": 64,
                        "time": 335.98885200000666,
                        "value": 0
                    },
                    {
                        "number": 64,
                        "time": 336.05556249375667,
                        "value": 1
                    },
                    {
                        "number": 64,
                        "time": 336.47419501250664,
                        "value": 0
                    },
                    {
                        "number": 64,
                        "time": 336.5302705000066,
                        "value": 1
                    },
                    {
                        "number": 64,
                        "time": 336.91699800000663,
                        "value": 0
                    },
                    {
                        "number": 64,
                        "time": 336.97113985000664,
                        "value": 1
                    },
                    {
                        "number": 64,
                        "time": 337.4081419250066,
                        "value": 0
                    },
                    {
                        "number": 64,
                        "time": 337.4835537875066,
                        "value": 1
                    },
                    {
                        "number": 64,
                        "time": 337.8451440000066,
                        "value": 0
                    },
                    {
                        "number": 64,
                        "time": 337.9176554062566,
                        "value": 1
                    },
                    {
                        "number": 64,
                        "time": 338.3256529187566,
                        "value": 0
                    },
                    {
                        "number": 64,
                        "time": 338.4146002437566,
                        "value": 1
                    },
                    {
                        "number": 64,
                        "time": 338.77329000000657,
                        "value": 0
                    },
                    {
                        "number": 64,
                        "time": 338.83419958125654,
                        "value": 1
                    },
                    {
                        "number": 64,
                        "time": 339.25669937500663,
                        "value": 0
                    },
                    {
                        "number": 64,
                        "time": 339.3591821625066,
                        "value": 1
                    },
                    {
                        "number": 64,
                        "time": 339.70143600000665,
                        "value": 0
                    },
                    {
                        "number": 64,
                        "time": 339.76814649375666,
                        "value": 1
                    },
                    {
                        "number": 64,
                        "time": 340.20418175000674,
                        "value": 0
                    },
                    {
                        "number": 64,
                        "time": 340.25348950625676,
                        "value": 1
                    },
                    {
                        "number": 64,
                        "time": 340.62958200000685,
                        "value": 0
                    },
                    {
                        "number": 64,
                        "time": 342.48587400000724,
                        "value": 1
                    },
                    {
                        "number": 64,
                        "time": 343.4140200000072,
                        "value": 0
                    },
                    {
                        "number": 64,
                        "time": 343.45849366250724,
                        "value": 1
                    },
                    {
                        "number": 64,
                        "time": 343.89936301250725,
                        "value": 0
                    },
                    {
                        "number": 64,
                        "time": 343.95543850000723,
                        "value": 1
                    },
                    {
                        "number": 64,
                        "time": 344.34216600000724,
                        "value": 0
                    },
                    {
                        "number": 64,
                        "time": 344.40404240000726,
                        "value": 1
                    },
                    {
                        "number": 64,
                        "time": 344.8062390000072,
                        "value": 0
                    },
                    {
                        "number": 64,
                        "time": 344.8536131187572,
                        "value": 1
                    },
                    {
                        "number": 64,
                        "time": 345.2703120000072,
                        "value": 0
                    },
                    {
                        "number": 64,
                        "time": 345.3370224937572,
                        "value": 1
                    },
                    {
                        "number": 64,
                        "time": 345.7546881937572,
                        "value": 0
                    },
                    {
                        "number": 64,
                        "time": 345.81173050000723,
                        "value": 1
                    },
                    {
                        "number": 64,
                        "time": 346.19845800000724,
                        "value": 0
                    },
                    {
                        "number": 64,
                        "time": 346.25259985000724,
                        "value": 1
                    },
                    {
                        "number": 64,
                        "time": 346.68283419375723,
                        "value": 0
                    },
                    {
                        "number": 64,
                        "time": 346.7311751312572,
                        "value": 1
                    },
                    {
                        "number": 64,
                        "time": 347.1266040000072,
                        "value": 0
                    },
                    {
                        "number": 64,
                        "time": 347.1652767500072,
                        "value": 1
                    },
                    {
                        "number": 64,
                        "time": 347.6071129187572,
                        "value": 0
                    },
                    {
                        "number": 64,
                        "time": 347.6960602437572,
                        "value": 1
                    },
                    {
                        "number": 64,
                        "time": 348.0547500000072,
                        "value": 0
                    },
                    {
                        "number": 64,
                        "time": 348.11565958125715,
                        "value": 1
                    },
                    {
                        "number": 64,
                        "time": 348.53815937500724,
                        "value": 0
                    },
                    {
                        "number": 64,
                        "time": 348.6406421625072,
                        "value": 1
                    },
                    {
                        "number": 64,
                        "time": 348.98289600000726,
                        "value": 0
                    },
                    {
                        "number": 64,
                        "time": 349.04960649375727,
                        "value": 1
                    },
                    {
                        "number": 64,
                        "time": 349.4527699125072,
                        "value": 0
                    },
                    {
                        "number": 64,
                        "time": 349.4962767562572,
                        "value": 1
                    },
                    {
                        "number": 64,
                        "time": 349.91104200000717,
                        "value": 0
                    },
                    {
                        "number": 64,
                        "time": 349.9603497562572,
                        "value": 1
                    },
                    {
                        "number": 64,
                        "time": 350.3983186500072,
                        "value": 0
                    },
                    {
                        "number": 64,
                        "time": 350.45826141250717,
                        "value": 1
                    },
                    {
                        "number": 64,
                        "time": 350.83918800000714,
                        "value": 0
                    },
                    {
                        "number": 64,
                        "time": 350.89332985000715,
                        "value": 1
                    },
                    {
                        "number": 64,
                        "time": 351.32646465000715,
                        "value": 0
                    },
                    {
                        "number": 64,
                        "time": 351.40574378750716,
                        "value": 1
                    },
                    {
                        "number": 64,
                        "time": 351.76733400000717,
                        "value": 0
                    },
                    {
                        "number": 64,
                        "time": 351.80600675000716,
                        "value": 1
                    },
                    {
                        "number": 64,
                        "time": 352.24784291875716,
                        "value": 0
                    },
                    {
                        "number": 64,
                        "time": 352.32518841875714,
                        "value": 1
                    },
                    {
                        "number": 64,
                        "time": 352.69548000000714,
                        "value": 0
                    },
                    {
                        "number": 64,
                        "time": 352.76219049375715,
                        "value": 1
                    },
                    {
                        "number": 64,
                        "time": 353.1817898312571,
                        "value": 0
                    },
                    {
                        "number": 64,
                        "time": 353.2649362437571,
                        "value": 1
                    },
                    {
                        "number": 64,
                        "time": 353.6236260000071,
                        "value": 0
                    },
                    {
                        "number": 64,
                        "time": 353.6497301062571,
                        "value": 0
                    },
                    {
                        "number": 64,
                        "time": 353.6990378625071,
                        "value": 1
                    },
                    {
                        "number": 64,
                        "time": 354.1089690125071,
                        "value": 0
                    },
                    {
                        "number": 64,
                        "time": 354.1708454125071,
                        "value": 1
                    },
                    {
                        "number": 64,
                        "time": 354.5517720000071,
                        "value": 0
                    },
                    {
                        "number": 64,
                        "time": 354.6059138500071,
                        "value": 1
                    },
                    {
                        "number": 64,
                        "time": 355.02938046250705,
                        "value": 0
                    },
                    {
                        "number": 64,
                        "time": 355.07675458125703,
                        "value": 1
                    },
                    {
                        "number": 64,
                        "time": 355.47991800000705,
                        "value": 0
                    },
                    {
                        "number": 64,
                        "time": 355.53502666875704,
                        "value": 1
                    },
                    {
                        "number": 64,
                        "time": 355.96042691875704,
                        "value": 0
                    },
                    {
                        "number": 64,
                        "time": 356.037772418757,
                        "value": 1
                    },
                    {
                        "number": 64,
                        "time": 356.408064000007,
                        "value": 0
                    },
                    {
                        "number": 64,
                        "time": 356.474774493757,
                        "value": 1
                    },
                    {
                        "number": 64,
                        "time": 356.900174743757,
                        "value": 0
                    },
                    {
                        "number": 64,
                        "time": 356.93304658125703,
                        "value": 1
                    },
                    {
                        "number": 64,
                        "time": 357.33621000000704,
                        "value": 0
                    },
                    {
                        "number": 64,
                        "time": 357.36231410625703,
                        "value": 0
                    },
                    {
                        "number": 64,
                        "time": 357.38551775625706,
                        "value": 1
                    },
                    {
                        "number": 64,
                        "time": 357.8215530125071,
                        "value": 0
                    },
                    {
                        "number": 64,
                        "time": 357.8834294125071,
                        "value": 1
                    },
                    {
                        "number": 64,
                        "time": 358.2643560000071,
                        "value": 0
                    },
                    {
                        "number": 64,
                        "time": 358.31849785000713,
                        "value": 1
                    },
                    {
                        "number": 64,
                        "time": 358.7419644625071,
                        "value": 0
                    },
                    {
                        "number": 64,
                        "time": 358.8106085937571,
                        "value": 1
                    },
                    {
                        "number": 64,
                        "time": 359.1925020000071,
                        "value": 0
                    },
                    {
                        "number": 64,
                        "time": 359.2311747500071,
                        "value": 1
                    },
                    {
                        "number": 64,
                        "time": 359.6730109187571,
                        "value": 0
                    },
                    {
                        "number": 64,
                        "time": 359.7116836687571,
                        "value": 1
                    },
                    {
                        "number": 64,
                        "time": 360.12064800000707,
                        "value": 0
                    },
                    {
                        "number": 64,
                        "time": 360.19315940625705,
                        "value": 1
                    },
                    {
                        "number": 64,
                        "time": 360.60695783125703,
                        "value": 0
                    },
                    {
                        "number": 64,
                        "time": 360.69010424375705,
                        "value": 1
                    },
                    {
                        "number": 64,
                        "time": 361.04879400000704,
                        "value": 0
                    },
                    {
                        "number": 64,
                        "time": 361.074898106257,
                        "value": 0
                    },
                    {
                        "number": 64,
                        "time": 361.09810175625705,
                        "value": 1
                    },
                    {
                        "number": 64,
                        "time": 361.53123655625706,
                        "value": 0
                    },
                    {
                        "number": 64,
                        "time": 361.59601341250703,
                        "value": 1
                    },
                    {
                        "number": 64,
                        "time": 361.97694000000706,
                        "value": 0
                    },
                    {
                        "number": 64,
                        "time": 362.03108185000707,
                        "value": 1
                    },
                    {
                        "number": 64,
                        "time": 362.45454846250703,
                        "value": 0
                    },
                    {
                        "number": 64,
                        "time": 362.53672805625706,
                        "value": 1
                    },
                    {
                        "number": 64,
                        "time": 362.90508600000703,
                        "value": 0
                    },
                    {
                        "number": 64,
                        "time": 362.943758750007,
                        "value": 1
                    },
                    {
                        "number": 64,
                        "time": 363.385594918757,
                        "value": 0
                    },
                    {
                        "number": 64,
                        "time": 363.458106325007,
                        "value": 1
                    },
                    {
                        "number": 64,
                        "time": 363.833232000007,
                        "value": 0
                    },
                    {
                        "number": 64,
                        "time": 363.899942493757,
                        "value": 1
                    },
                    {
                        "number": 64,
                        "time": 364.318575012507,
                        "value": 0
                    },
                    {
                        "number": 64,
                        "time": 364.39108641875697,
                        "value": 1
                    },
                    {
                        "number": 64,
                        "time": 364.76137800000697,
                        "value": 0
                    },
                    {
                        "number": 64,
                        "time": 364.83388940625696,
                        "value": 1
                    },
                    {
                        "number": 64,
                        "time": 365.24188691875696,
                        "value": 0
                    },
                    {
                        "number": 64,
                        "time": 365.31923241875694,
                        "value": 1
                    },
                    {
                        "number": 64,
                        "time": 365.68952400000694,
                        "value": 0
                    },
                    {
                        "number": 64,
                        "time": 365.75623449375695,
                        "value": 1
                    },
                    {
                        "number": 64,
                        "time": 366.1758338312569,
                        "value": 0
                    },
                    {
                        "number": 64,
                        "time": 366.2473784187569,
                        "value": 1
                    },
                    {
                        "number": 64,
                        "time": 366.6176700000069,
                        "value": 0
                    },
                    {
                        "number": 64,
                        "time": 366.69984959375694,
                        "value": 1
                    },
                    {
                        "number": 64,
                        "time": 367.088510731257,
                        "value": 0
                    },
                    {
                        "number": 64,
                        "time": 367.163922593757,
                        "value": 1
                    },
                    {
                        "number": 64,
                        "time": 367.545816000007,
                        "value": 0
                    },
                    {
                        "number": 64,
                        "time": 367.614460131257,
                        "value": 1
                    },
                    {
                        "number": 64,
                        "time": 368.030192193757,
                        "value": 0
                    },
                    {
                        "number": 64,
                        "time": 368.112371787507,
                        "value": 1
                    },
                    {
                        "number": 64,
                        "time": 368.473962000007,
                        "value": 0
                    },
                    {
                        "number": 64,
                        "time": 368.512634750007,
                        "value": 1
                    },
                    {
                        "number": 64,
                        "time": 368.954470918757,
                        "value": 0
                    },
                    {
                        "number": 64,
                        "time": 368.993143668757,
                        "value": 1
                    },
                    {
                        "number": 64,
                        "time": 369.402108000007,
                        "value": 0
                    },
                    {
                        "number": 64,
                        "time": 369.468818493757,
                        "value": 1
                    },
                    {
                        "number": 64,
                        "time": 369.872948731257,
                        "value": 0
                    },
                    {
                        "number": 64,
                        "time": 369.941592862507,
                        "value": 1
                    },
                    {
                        "number": 64,
                        "time": 370.33025400000696,
                        "value": 0
                    },
                    {
                        "number": 64,
                        "time": 370.39696449375697,
                        "value": 1
                    },
                    {
                        "number": 64,
                        "time": 370.80786246250693,
                        "value": 0
                    },
                    {
                        "number": 64,
                        "time": 370.8968097875069,
                        "value": 1
                    },
                    {
                        "number": 64,
                        "time": 371.25840000000693,
                        "value": 0
                    },
                    {
                        "number": 64,
                        "time": 371.32511049375694,
                        "value": 1
                    },
                    {
                        "number": 64,
                        "time": 371.7447098312569,
                        "value": 0
                    },
                    {
                        "number": 64,
                        "time": 371.8278562437569,
                        "value": 1
                    },
                    {
                        "number": 64,
                        "time": 372.1865460000069,
                        "value": 0
                    },
                    {
                        "number": 64,
                        "time": 372.2532564937569,
                        "value": 1
                    },
                    {
                        "number": 64,
                        "time": 372.6718890125069,
                        "value": 0
                    },
                    {
                        "number": 64,
                        "time": 372.7260308625069,
                        "value": 1
                    },
                    {
                        "number": 64,
                        "time": 373.11469200000687,
                        "value": 0
                    },
                    {
                        "number": 64,
                        "time": 373.1814024937569,
                        "value": 1
                    },
                    {
                        "number": 64,
                        "time": 373.59906819375686,
                        "value": 0
                    },
                    {
                        "number": 64,
                        "time": 373.72958872500686,
                        "value": 1
                    },
                    {
                        "number": 64,
                        "time": 374.04283800000684,
                        "value": 0
                    },
                    {
                        "number": 64,
                        "time": 374.13855305625685,
                        "value": 1
                    },
                    {
                        "number": 64,
                        "time": 374.9709840000068,
                        "value": 0
                    },
                    {
                        "number": 64,
                        "time": 375.0396281312568,
                        "value": 1
                    },
                    {
                        "number": 64,
                        "time": 375.4553601937568,
                        "value": 0
                    },
                    {
                        "number": 64,
                        "time": 375.51240250000683,
                        "value": 1
                    },
                    {
                        "number": 64,
                        "time": 375.89913000000683,
                        "value": 0
                    },
                    {
                        "number": 64,
                        "time": 375.96100640000685,
                        "value": 1
                    },
                    {
                        "number": 64,
                        "time": 376.3632030000068,
                        "value": 0
                    },
                    {
                        "number": 64,
                        "time": 376.4105771187568,
                        "value": 1
                    },
                    {
                        "number": 64,
                        "time": 376.8272760000068,
                        "value": 0
                    },
                    {
                        "number": 64,
                        "time": 376.8939864937568,
                        "value": 1
                    },
                    {
                        "number": 64,
                        "time": 377.3126190125068,
                        "value": 0
                    },
                    {
                        "number": 64,
                        "time": 377.36869450000677,
                        "value": 1
                    },
                    {
                        "number": 64,
                        "time": 377.7554220000068,
                        "value": 0
                    },
                    {
                        "number": 64,
                        "time": 377.8095638500068,
                        "value": 1
                    },
                    {
                        "number": 64,
                        "time": 378.24173183125674,
                        "value": 0
                    },
                    {
                        "number": 64,
                        "time": 378.32874551875676,
                        "value": 1
                    },
                    {
                        "number": 64,
                        "time": 378.68356800000674,
                        "value": 0
                    },
                    {
                        "number": 64,
                        "time": 378.72224075000673,
                        "value": 1
                    },
                    {
                        "number": 64,
                        "time": 379.16407691875673,
                        "value": 0
                    },
                    {
                        "number": 64,
                        "time": 379.2530242437567,
                        "value": 1
                    },
                    {
                        "number": 64,
                        "time": 379.6117140000067,
                        "value": 0
                    },
                    {
                        "number": 64,
                        "time": 379.6726235812567,
                        "value": 1
                    },
                    {
                        "number": 64,
                        "time": 380.0951233750068,
                        "value": 0
                    },
                    {
                        "number": 64,
                        "time": 380.19760616250676,
                        "value": 1
                    },
                    {
                        "number": 64,
                        "time": 380.5398600000068,
                        "value": 0
                    },
                    {
                        "number": 64,
                        "time": 380.6065704937568,
                        "value": 1
                    },
                    {
                        "number": 64,
                        "time": 381.0039330000068,
                        "value": 0
                    },
                    {
                        "number": 64,
                        "time": 381.07257713125676,
                        "value": 1
                    },
                    {
                        "number": 64,
                        "time": 381.46800600000677,
                        "value": 0
                    },
                    {
                        "number": 64,
                        "time": 381.5173137562568,
                        "value": 1
                    },
                    {
                        "number": 64,
                        "time": 381.96011674375677,
                        "value": 0
                    },
                    {
                        "number": 64,
                        "time": 382.01522541250677,
                        "value": 1
                    },
                    {
                        "number": 64,
                        "time": 382.39615200000674,
                        "value": 0
                    },
                    {
                        "number": 64,
                        "time": 382.45029385000674,
                        "value": 1
                    },
                    {
                        "number": 64,
                        "time": 382.8785945562567,
                        "value": 0
                    },
                    {
                        "number": 64,
                        "time": 382.9714091562567,
                        "value": 1
                    },
                    {
                        "number": 64,
                        "time": 383.3242980000067,
                        "value": 0
                    },
                    {
                        "number": 64,
                        "time": 383.3852075812567,
                        "value": 1
                    },
                    {
                        "number": 64,
                        "time": 383.7883710000067,
                        "value": 0
                    },
                    {
                        "number": 64,
                        "time": 383.8270437500067,
                        "value": 1
                    },
                    {
                        "number": 64,
                        "time": 384.2524440000067,
                        "value": 0
                    },
                    {
                        "number": 64,
                        "time": 384.3191544937567,
                        "value": 1
                    },
                    {
                        "number": 64,
                        "time": 384.73875383125664,
                        "value": 0
                    },
                    {
                        "number": 64,
                        "time": 384.82190024375666,
                        "value": 1
                    },
                    {
                        "number": 64,
                        "time": 385.18059000000665,
                        "value": 0
                    },
                    {
                        "number": 64,
                        "time": 385.20669410625663,
                        "value": 0
                    },
                    {
                        "number": 64,
                        "time": 385.22989775625666,
                        "value": 1
                    },
                    {
                        "number": 64,
                        "time": 385.6707671062566,
                        "value": 0
                    },
                    {
                        "number": 64,
                        "time": 385.7336103250066,
                        "value": 1
                    },
                    {
                        "number": 64,
                        "time": 386.1087360000066,
                        "value": 0
                    },
                    {
                        "number": 64,
                        "time": 386.1628778500066,
                        "value": 1
                    },
                    {
                        "number": 64,
                        "time": 386.5863444625066,
                        "value": 0
                    },
                    {
                        "number": 64,
                        "time": 386.6443535875066,
                        "value": 1
                    },
                    {
                        "number": 64,
                        "time": 387.0368820000066,
                        "value": 0
                    },
                    {
                        "number": 64,
                        "time": 387.0755547500066,
                        "value": 1
                    },
                    {
                        "number": 64,
                        "time": 387.5173909187566,
                        "value": 0
                    },
                    {
                        "number": 64,
                        "time": 387.59473641875655,
                        "value": 1
                    },
                    {
                        "number": 64,
                        "time": 387.96502800000655,
                        "value": 0
                    },
                    {
                        "number": 64,
                        "time": 388.03173849375656,
                        "value": 1
                    },
                    {
                        "number": 64,
                        "time": 388.4474705562565,
                        "value": 0
                    },
                    {
                        "number": 64,
                        "time": 388.4977451312565,
                        "value": 1
                    },
                    {
                        "number": 64,
                        "time": 388.8931740000065,
                        "value": 0
                    },
                    {
                        "number": 64,
                        "time": 388.9192781062565,
                        "value": 0
                    },
                    {
                        "number": 64,
                        "time": 388.9753535937565,
                        "value": 1
                    },
                    {
                        "number": 64,
                        "time": 389.3707824625065,
                        "value": 0
                    },
                    {
                        "number": 64,
                        "time": 389.5003361750065,
                        "value": 1
                    },
                    {
                        "number": 64,
                        "time": 389.8213200000065,
                        "value": 0
                    },
                    {
                        "number": 64,
                        "time": 389.8754618500065,
                        "value": 1
                    },
                    {
                        "number": 64,
                        "time": 390.2853930000065,
                        "value": 0
                    },
                    {
                        "number": 64,
                        "time": 390.35403713125646,
                        "value": 1
                    },
                    {
                        "number": 64,
                        "time": 390.74946600000646,
                        "value": 0
                    },
                    {
                        "number": 64,
                        "time": 390.8316455937565,
                        "value": 1
                    },
                    {
                        "number": 64,
                        "time": 391.2203067312565,
                        "value": 0
                    },
                    {
                        "number": 64,
                        "time": 391.30248632500656,
                        "value": 1
                    },
                    {
                        "number": 64,
                        "time": 391.67761200000655,
                        "value": 0
                    },
                    {
                        "number": 64,
                        "time": 391.74432249375656,
                        "value": 1
                    },
                    {
                        "number": 64,
                        "time": 392.1513531875065,
                        "value": 0
                    },
                    {
                        "number": 64,
                        "time": 392.25093551875653,
                        "value": 1
                    },
                    {
                        "number": 64,
                        "time": 392.6057580000065,
                        "value": 0
                    },
                    {
                        "number": 64,
                        "time": 392.6318621062565,
                        "value": 0
                    },
                    {
                        "number": 64,
                        "time": 392.6947053250065,
                        "value": 1
                    },
                    {
                        "number": 64,
                        "time": 393.0853001000065,
                        "value": 0
                    },
                    {
                        "number": 64,
                        "time": 393.1858492500065,
                        "value": 1
                    },
                    {
                        "number": 64,
                        "time": 393.53390400000654,
                        "value": 0
                    },
                    {
                        "number": 64,
                        "time": 393.6025481312565,
                        "value": 1
                    },
                    {
                        "number": 64,
                        "time": 394.02118065000656,
                        "value": 0
                    },
                    {
                        "number": 64,
                        "time": 394.10045978750657,
                        "value": 1
                    },
                    {
                        "number": 64,
                        "time": 394.46205000000657,
                        "value": 0
                    },
                    {
                        "number": 64,
                        "time": 394.5374618625066,
                        "value": 1
                    },
                    {
                        "number": 64,
                        "time": 394.92708981875654,
                        "value": 0
                    },
                    {
                        "number": 64,
                        "time": 394.99476713125654,
                        "value": 1
                    },
                    {
                        "number": 64,
                        "time": 395.39019600000654,
                        "value": 0
                    },
                    {
                        "number": 64,
                        "time": 395.45690649375655,
                        "value": 1
                    },
                    {
                        "number": 64,
                        "time": 395.8765058312565,
                        "value": 0
                    },
                    {
                        "number": 64,
                        "time": 395.9596522437565,
                        "value": 1
                    },
                    {
                        "number": 64,
                        "time": 396.3183420000065,
                        "value": 0
                    },
                    {
                        "number": 64,
                        "time": 398.2365104000065,
                        "value": 1
                    },
                    {
                        "number": 64,
                        "time": 399.1095477312565,
                        "value": 0
                    },
                    {
                        "number": 64,
                        "time": 399.1714241312565,
                        "value": 1
                    },
                    {
                        "number": 64,
                        "time": 400.03092600000645,
                        "value": 0
                    },
                    {
                        "number": 64,
                        "time": 400.15371198125644,
                        "value": 1
                    },
                    {
                        "number": 64,
                        "time": 400.9726074625064,
                        "value": 0
                    },
                    {
                        "number": 64,
                        "time": 401.0480193250064,
                        "value": 1
                    },
                    {
                        "number": 64,
                        "time": 401.88721800000644,
                        "value": 0
                    },
                    {
                        "number": 64,
                        "time": 405.69938433125685,
                        "value": 1
                    },
                    {
                        "number": 64,
                        "time": 406.8150931687568,
                        "value": 0
                    },
                    {
                        "number": 64,
                        "time": 407.4560940000069,
                        "value": 0
                    },
                    {
                        "number": 64,
                        "time": 407.63398865000687,
                        "value": 1
                    },
                    {
                        "number": 64,
                        "time": 408.67138516875684,
                        "value": 0
                    },
                    {
                        "number": 64,
                        "time": 409.34525783750695,
                        "value": 1
                    },
                    {
                        "number": 64,
                        "time": 410.27340383750715,
                        "value": 0
                    },
                    {
                        "number": 64,
                        "time": 410.32367841250715,
                        "value": 1
                    },
                    {
                        "number": 64,
                        "time": 411.16867800000733,
                        "value": 0
                    },
                    {
                        "number": 64,
                        "time": 411.2411894062573,
                        "value": 1
                    },
                    {
                        "number": 64,
                        "time": 411.63855191250735,
                        "value": 0
                    },
                    {
                        "number": 64,
                        "time": 411.6994614937573,
                        "value": 1
                    },
                    {
                        "number": 64,
                        "time": 412.0968240000074,
                        "value": 0
                    },
                    {
                        "number": 64,
                        "time": 412.1635344937574,
                        "value": 1
                    },
                    {
                        "number": 64,
                        "time": 412.5821670125075,
                        "value": 0
                    },
                    {
                        "number": 64,
                        "time": 412.6546784187575,
                        "value": 1
                    },
                    {
                        "number": 64,
                        "time": 413.0356050062576,
                        "value": 0
                    },
                    {
                        "number": 64,
                        "time": 413.1023155000076,
                        "value": 1
                    },
                    {
                        "number": 64,
                        "time": 413.96665146250774,
                        "value": 0
                    },
                    {
                        "number": 64,
                        "time": 414.03626241250777,
                        "value": 1
                    },
                    {
                        "number": 64,
                        "time": 414.88126200000795,
                        "value": 0
                    },
                    {
                        "number": 64,
                        "time": 414.91993475000794,
                        "value": 1
                    },
                    {
                        "number": 64,
                        "time": 415.35113591250797,
                        "value": 0
                    },
                    {
                        "number": 64,
                        "time": 415.40624458125797,
                        "value": 1
                    },
                    {
                        "number": 64,
                        "time": 415.82874437500806,
                        "value": 0
                    },
                    {
                        "number": 64,
                        "time": 415.91189078750807,
                        "value": 1
                    },
                    {
                        "number": 64,
                        "time": 416.29475101250813,
                        "value": 0
                    },
                    {
                        "number": 64,
                        "time": 416.33535740000815,
                        "value": 1
                    },
                    {
                        "number": 64,
                        "time": 416.74818900625826,
                        "value": 0
                    },
                    {
                        "number": 64,
                        "time": 416.80426449375824,
                        "value": 1
                    },
                    {
                        "number": 64,
                        "time": 417.6792354625084,
                        "value": 0
                    },
                    {
                        "number": 64,
                        "time": 417.7266095812584,
                        "value": 1
                    },
                    {
                        "number": 64,
                        "time": 418.59384600000857,
                        "value": 0
                    },
                    {
                        "number": 64,
                        "time": 418.65475558125854,
                        "value": 1
                    },
                    {
                        "number": 64,
                        "time": 419.0637199125086,
                        "value": 0
                    },
                    {
                        "number": 64,
                        "time": 419.12462949375856,
                        "value": 1
                    },
                    {
                        "number": 64,
                        "time": 419.56066475000864,
                        "value": 0
                    },
                    {
                        "number": 64,
                        "time": 419.61093932500864,
                        "value": 1
                    },
                    {
                        "number": 64,
                        "time": 420.0083018312587,
                        "value": 0
                    },
                    {
                        "number": 64,
                        "time": 420.0798464187587,
                        "value": 1
                    },
                    {
                        "number": 64,
                        "time": 420.45013800000874,
                        "value": 0
                    },
                    {
                        "number": 64,
                        "time": 420.50524666875873,
                        "value": 1
                    },
                    {
                        "number": 64,
                        "time": 421.3898858250089,
                        "value": 0
                    },
                    {
                        "number": 64,
                        "time": 421.4556295000089,
                        "value": 1
                    },
                    {
                        "number": 64,
                        "time": 422.3064300000091,
                        "value": 0
                    },
                    {
                        "number": 64,
                        "time": 422.34510275000906,
                        "value": 1
                    },
                    {
                        "number": 64,
                        "time": 422.7763039125091,
                        "value": 0
                    },
                    {
                        "number": 64,
                        "time": 422.8314125812591,
                        "value": 1
                    },
                    {
                        "number": 64,
                        "time": 423.27324875000915,
                        "value": 0
                    },
                    {
                        "number": 64,
                        "time": 423.32352332500915,
                        "value": 1
                    },
                    {
                        "number": 64,
                        "time": 423.7199190125092,
                        "value": 0
                    },
                    {
                        "number": 64,
                        "time": 423.7605254000092,
                        "value": 1
                    },
                    {
                        "number": 64,
                        "time": 424.1627220000093,
                        "value": 0
                    },
                    {
                        "number": 64,
                        "time": 424.2178306687593,
                        "value": 1
                    },
                    {
                        "number": 64,
                        "time": 424.64806501250933,
                        "value": 0
                    },
                    {
                        "number": 64,
                        "time": 424.68867140000935,
                        "value": 1
                    },
                    {
                        "number": 64,
                        "time": 425.0841002687594,
                        "value": 0
                    },
                    {
                        "number": 64,
                        "time": 425.12470665625943,
                        "value": 1
                    },
                    {
                        "number": 64,
                        "time": 425.5481732687594,
                        "value": 0
                    },
                    {
                        "number": 64,
                        "time": 425.60908285000943,
                        "value": 1
                    },
                    {
                        "number": 64,
                        "time": 426.01901400000946,
                        "value": 0
                    },
                    {
                        "number": 64,
                        "time": 426.06638811875945,
                        "value": 1
                    },
                    {
                        "number": 64,
                        "time": 426.9693968312595,
                        "value": 0
                    },
                    {
                        "number": 64,
                        "time": 427.0138704937595,
                        "value": 1
                    },
                    {
                        "number": 64,
                        "time": 427.42766891875954,
                        "value": 0
                    },
                    {
                        "number": 64,
                        "time": 427.47794349375954,
                        "value": 1
                    },
                    {
                        "number": 64,
                        "time": 427.8753060000096,
                        "value": 0
                    },
                    {
                        "number": 64,
                        "time": 427.9507178625096,
                        "value": 1
                    },
                    {
                        "number": 64,
                        "time": 428.35001400625964,
                        "value": 0
                    },
                    {
                        "number": 64,
                        "time": 428.4147908625096,
                        "value": 1
                    },
                    {
                        "number": 64,
                        "time": 428.82375519375967,
                        "value": 0
                    },
                    {
                        "number": 64,
                        "time": 428.89239932500965,
                        "value": 1
                    },
                    {
                        "number": 64,
                        "time": 429.2820272812597,
                        "value": 0
                    },
                    {
                        "number": 64,
                        "time": 429.34293686250965,
                        "value": 1
                    },
                    {
                        "number": 64,
                        "time": 429.7722043875097,
                        "value": 0
                    },
                    {
                        "number": 64,
                        "time": 429.8340807875097,
                        "value": 1
                    },
                    {
                        "number": 64,
                        "time": 430.20243873125975,
                        "value": 0
                    },
                    {
                        "number": 64,
                        "time": 430.2846183250098,
                        "value": 1
                    },
                    {
                        "number": 64,
                        "time": 430.67037900625985,
                        "value": 0
                    },
                    {
                        "number": 64,
                        "time": 430.7148526687599,
                        "value": 1
                    },
                    {
                        "number": 64,
                        "time": 431.1402529187599,
                        "value": 0
                    },
                    {
                        "number": 64,
                        "time": 431.16829066250995,
                        "value": 1
                    },
                    {
                        "number": 64,
                        "time": 431.58789000000996,
                        "value": 0
                    },
                    {
                        "number": 64,
                        "time": 431.62076183751,
                        "value": 1
                    },
                    {
                        "number": 64,
                        "time": 432.06259800626003,
                        "value": 0
                    },
                    {
                        "number": 64,
                        "time": 432.09643666251003,
                        "value": 1
                    },
                    {
                        "number": 64,
                        "time": 432.53633919376006,
                        "value": 0
                    },
                    {
                        "number": 64,
                        "time": 432.58468013126003,
                        "value": 1
                    },
                    {
                        "number": 64,
                        "time": 432.99364446251,
                        "value": 0
                    },
                    {
                        "number": 64,
                        "time": 433.03425085001004,
                        "value": 1
                    },
                    {
                        "number": 64,
                        "time": 433.4441820000101,
                        "value": 0
                    },
                    {
                        "number": 64,
                        "time": 433.5263615937601,
                        "value": 1
                    },
                    {
                        "number": 64,
                        "time": 434.4003657437602,
                        "value": 0
                    },
                    {
                        "number": 64,
                        "time": 434.4110007500102,
                        "value": 1
                    },
                    {
                        "number": 64,
                        "time": 434.84220191251023,
                        "value": 0
                    },
                    {
                        "number": 64,
                        "time": 434.9195474125102,
                        "value": 1
                    },
                    {
                        "number": 64,
                        "time": 435.30047400001024,
                        "value": 0
                    },
                    {
                        "number": 64,
                        "time": 435.3691181312602,
                        "value": 1
                    },
                    {
                        "number": 64,
                        "time": 435.77518200626025,
                        "value": 0
                    },
                    {
                        "number": 64,
                        "time": 435.8534943250103,
                        "value": 1
                    },
                    {
                        "number": 64,
                        "time": 436.24892319376033,
                        "value": 0
                    },
                    {
                        "number": 64,
                        "time": 436.2972641312603,
                        "value": 1
                    },
                    {
                        "number": 64,
                        "time": 436.7071952812603,
                        "value": 0
                    },
                    {
                        "number": 64,
                        "time": 436.76810486251026,
                        "value": 1
                    },
                    {
                        "number": 64,
                        "time": 437.1567660000103,
                        "value": 0
                    },
                    {
                        "number": 64,
                        "time": 437.2147751250103,
                        "value": 1
                    },
                    {
                        "number": 64,
                        "time": 437.63727491876034,
                        "value": 0
                    },
                    {
                        "number": 64,
                        "time": 437.71655405626035,
                        "value": 1
                    },
                    {
                        "number": 64,
                        "time": 438.0849120000104,
                        "value": 0
                    },
                    {
                        "number": 64,
                        "time": 438.15742340626036,
                        "value": 1
                    },
                    {
                        "number": 64,
                        "time": 438.57218865001045,
                        "value": 0
                    },
                    {
                        "number": 64,
                        "time": 438.6582355187604,
                        "value": 1
                    },
                    {
                        "number": 64,
                        "time": 439.01305800001046,
                        "value": 0
                    },
                    {
                        "number": 64,
                        "time": 439.0952375937605,
                        "value": 1
                    },
                    {
                        "number": 64,
                        "time": 439.48776600626053,
                        "value": 0
                    },
                    {
                        "number": 64,
                        "time": 439.5728460562605,
                        "value": 1
                    },
                    {
                        "number": 64,
                        "time": 439.96150719376055,
                        "value": 0
                    },
                    {
                        "number": 64,
                        "time": 440.0098481312605,
                        "value": 1
                    },
                    {
                        "number": 64,
                        "time": 440.4197792812605,
                        "value": 0
                    },
                    {
                        "number": 64,
                        "time": 440.4806888625105,
                        "value": 1
                    },
                    {
                        "number": 64,
                        "time": 440.90995638751053,
                        "value": 0
                    },
                    {
                        "number": 64,
                        "time": 440.97183278751055,
                        "value": 1
                    },
                    {
                        "number": 64,
                        "time": 441.33922391251053,
                        "value": 0
                    },
                    {
                        "number": 64,
                        "time": 441.41076850001053,
                        "value": 1
                    },
                    {
                        "number": 64,
                        "time": 441.79749600001054,
                        "value": 0
                    },
                    {
                        "number": 64,
                        "time": 441.86420649376055,
                        "value": 1
                    },
                    {
                        "number": 64,
                        "time": 442.26736991251056,
                        "value": 0
                    },
                    {
                        "number": 64,
                        "time": 442.30604266251055,
                        "value": 1
                    },
                    {
                        "number": 64,
                        "time": 442.72564200001057,
                        "value": 0
                    },
                    {
                        "number": 64,
                        "time": 442.7585138375106,
                        "value": 1
                    },
                    {
                        "number": 64,
                        "time": 443.20035000626063,
                        "value": 0
                    },
                    {
                        "number": 64,
                        "time": 443.23418866251063,
                        "value": 1
                    },
                    {
                        "number": 64,
                        "time": 443.65378800001065,
                        "value": 0
                    },
                    {
                        "number": 64,
                        "time": 443.73693441251066,
                        "value": 1
                    },
                    {
                        "number": 64,
                        "time": 444.1284960062607,
                        "value": 0
                    },
                    {
                        "number": 64,
                        "time": 444.1952065000107,
                        "value": 1
                    },
                    {
                        "number": 64,
                        "time": 444.58193400001073,
                        "value": 0
                    },
                    {
                        "number": 64,
                        "time": 444.64864449376074,
                        "value": 1
                    },
                    {
                        "number": 64,
                        "time": 445.0566420062608,
                        "value": 0
                    },
                    {
                        "number": 64,
                        "time": 445.1397884187608,
                        "value": 1
                    },
                    {
                        "number": 64,
                        "time": 445.5187813687608,
                        "value": 0
                    },
                    {
                        "number": 64,
                        "time": 445.5767904937608,
                        "value": 1
                    },
                    {
                        "number": 64,
                        "time": 445.9847880062609,
                        "value": 0
                    },
                    {
                        "number": 64,
                        "time": 446.0631003250109,
                        "value": 1
                    },
                    {
                        "number": 64,
                        "time": 446.38891824376094,
                        "value": 0
                    },
                    {
                        "number": 64,
                        "time": 446.43822600001096,
                        "value": 1
                    },
                    {
                        "number": 64,
                        "time": 446.922602193761,
                        "value": 0
                    },
                    {
                        "number": 64,
                        "time": 447.018317250011,
                        "value": 1
                    },
                    {
                        "number": 64,
                        "time": 447.36637200001104,
                        "value": 0
                    },
                    {
                        "number": 64,
                        "time": 447.42051385001105,
                        "value": 1
                    },
                    {
                        "number": 64,
                        "time": 447.8410800062611,
                        "value": 0
                    },
                    {
                        "number": 64,
                        "time": 447.8749186625111,
                        "value": 1
                    },
                    {
                        "number": 64,
                        "time": 448.2452102437611,
                        "value": 0
                    },
                    {
                        "number": 64,
                        "time": 448.2945180000111,
                        "value": 1
                    },
                    {
                        "number": 64,
                        "time": 448.7788941937612,
                        "value": 0
                    },
                    {
                        "number": 64,
                        "time": 448.8746092500112,
                        "value": 1
                    },
                    {
                        "number": 64,
                        "time": 449.2226640000112,
                        "value": 0
                    },
                    {
                        "number": 64,
                        "time": 449.2768058500112,
                        "value": 1
                    },
                    {
                        "number": 64,
                        "time": 449.6973720062613,
                        "value": 0
                    },
                    {
                        "number": 64,
                        "time": 449.7312106625113,
                        "value": 1
                    },
                    {
                        "number": 64,
                        "time": 450.1015022437613,
                        "value": 0
                    },
                    {
                        "number": 64,
                        "time": 450.1508100000113,
                        "value": 1
                    },
                    {
                        "number": 64,
                        "time": 450.63131891876134,
                        "value": 0
                    },
                    {
                        "number": 64,
                        "time": 450.73090125001136,
                        "value": 1
                    },
                    {
                        "number": 64,
                        "time": 451.0789560000114,
                        "value": 0
                    },
                    {
                        "number": 64,
                        "time": 451.1330978500114,
                        "value": 1
                    },
                    {
                        "number": 64,
                        "time": 451.55366400626144,
                        "value": 0
                    },
                    {
                        "number": 64,
                        "time": 451.62037450001145,
                        "value": 1
                    },
                    {
                        "number": 64,
                        "time": 451.95779424376144,
                        "value": 0
                    },
                    {
                        "number": 64,
                        "time": 452.00710200001146,
                        "value": 1
                    },
                    {
                        "number": 64,
                        "time": 452.4789095500115,
                        "value": 0
                    },
                    {
                        "number": 64,
                        "time": 452.5871932500115,
                        "value": 1
                    },
                    {
                        "number": 64,
                        "time": 452.93524800001154,
                        "value": 1
                    },
                    {
                        "number": 64,
                        "time": 453.4196241937616,
                        "value": 0
                    },
                    {
                        "number": 64,
                        "time": 453.5153392500116,
                        "value": 1
                    },
                    {
                        "number": 64,
                        "time": 453.8633940000116,
                        "value": 0
                    },
                    {
                        "number": 64,
                        "time": 470.105949000013,
                        "value": 1
                    },
                    {
                        "number": 64,
                        "time": 470.570022000013,
                        "value": 0
                    },
                    {
                        "number": 64,
                        "time": 470.679272518763,
                        "value": 1
                    },
                    {
                        "number": 64,
                        "time": 471.498168000013,
                        "value": 0
                    },
                    {
                        "number": 64,
                        "time": 471.552309850013,
                        "value": 1
                    },
                    {
                        "number": 64,
                        "time": 471.839455018763,
                        "value": 0
                    },
                    {
                        "number": 64,
                        "time": 471.962241000013,
                        "value": 1
                    },
                    {
                        "number": 64,
                        "time": 472.426314000013,
                        "value": 0
                    },
                    {
                        "number": 64,
                        "time": 472.535564518763,
                        "value": 1
                    },
                    {
                        "number": 64,
                        "time": 473.354460000013,
                        "value": 0
                    },
                    {
                        "number": 64,
                        "time": 473.454042331263,
                        "value": 1
                    },
                    {
                        "number": 64,
                        "time": 473.825300731263,
                        "value": 0
                    },
                    {
                        "number": 64,
                        "time": 473.929717156263,
                        "value": 1
                    },
                    {
                        "number": 64,
                        "time": 474.282606000013,
                        "value": 0
                    },
                    {
                        "number": 64,
                        "time": 475.292931593763,
                        "value": 1
                    },
                    {
                        "number": 64,
                        "time": 475.716398206263,
                        "value": 0
                    },
                    {
                        "number": 64,
                        "time": 476.193039850013,
                        "value": 1
                    },
                    {
                        "number": 64,
                        "time": 476.636809656263,
                        "value": 0
                    },
                    {
                        "number": 64,
                        "time": 477.13568813126307,
                        "value": 1
                    },
                    {
                        "number": 64,
                        "time": 477.5514201937631,
                        "value": 0
                    },
                    {
                        "number": 64,
                        "time": 478.06383413126304,
                        "value": 1
                    },
                    {
                        "number": 64,
                        "time": 478.50083620626305,
                        "value": 0
                    },
                    {
                        "number": 64,
                        "time": 478.9919801312631,
                        "value": 1
                    },
                    {
                        "number": 64,
                        "time": 479.44928540001314,
                        "value": 0
                    },
                    {
                        "number": 64,
                        "time": 479.9201261312632,
                        "value": 1
                    },
                    {
                        "number": 64,
                        "time": 480.3774314000132,
                        "value": 0
                    },
                    {
                        "number": 64,
                        "time": 480.8482721312633,
                        "value": 1
                    },
                    {
                        "number": 64,
                        "time": 481.3055774000133,
                        "value": 0
                    },
                    {
                        "number": 64,
                        "time": 481.77641813126337,
                        "value": 1
                    },
                    {
                        "number": 64,
                        "time": 482.23372340001345,
                        "value": 0
                    },
                    {
                        "number": 64,
                        "time": 482.79061100001354,
                        "value": 1
                    },
                    {
                        "number": 64,
                        "time": 483.17733850001355,
                        "value": 0
                    },
                    {
                        "number": 64,
                        "time": 484.4922120000135,
                        "value": 1
                    },
                    {
                        "number": 64,
                        "time": 485.1109760000135,
                        "value": 0
                    },
                    {
                        "number": 64,
                        "time": 486.3485040000135,
                        "value": 1
                    },
                    {
                        "number": 64,
                        "time": 486.8328801937636,
                        "value": 0
                    },
                    {
                        "number": 64,
                        "time": 486.8947565937636,
                        "value": 1
                    },
                    {
                        "number": 64,
                        "time": 487.2766500000136,
                        "value": 0
                    },
                    {
                        "number": 64,
                        "time": 487.3307918500136,
                        "value": 1
                    },
                    {
                        "number": 64,
                        "time": 487.75425846251363,
                        "value": 0
                    },
                    {
                        "number": 64,
                        "time": 487.8567412500136,
                        "value": 1
                    },
                    {
                        "number": 64,
                        "time": 488.20479600001363,
                        "value": 0
                    },
                    {
                        "number": 64,
                        "time": 488.25893785001364,
                        "value": 1
                    },
                    {
                        "number": 64,
                        "time": 488.6843381000137,
                        "value": 0
                    },
                    {
                        "number": 64,
                        "time": 488.7781195187637,
                        "value": 1
                    },
                    {
                        "number": 64,
                        "time": 489.1464774625137,
                        "value": 0
                    },
                    {
                        "number": 64,
                        "time": 489.2044865875137,
                        "value": 1
                    },
                    {
                        "number": 64,
                        "time": 489.6163513750138,
                        "value": 0
                    },
                    {
                        "number": 64,
                        "time": 489.6743605000138,
                        "value": 1
                    },
                    {
                        "number": 64,
                        "time": 490.0765571000138,
                        "value": 0
                    },
                    {
                        "number": 64,
                        "time": 490.1568030562638,
                        "value": 1
                    },
                    {
                        "number": 64,
                        "time": 490.55899965626384,
                        "value": 0
                    },
                    {
                        "number": 64,
                        "time": 490.6073405937638,
                        "value": 1
                    },
                    {
                        "number": 64,
                        "time": 491.0163049250138,
                        "value": 0
                    },
                    {
                        "number": 64,
                        "time": 491.0578781312638,
                        "value": 1
                    },
                    {
                        "number": 64,
                        "time": 491.4678092812638,
                        "value": 0
                    },
                    {
                        "number": 64,
                        "time": 491.52871886251376,
                        "value": 1
                    },
                    {
                        "number": 64,
                        "time": 491.94445092501377,
                        "value": 0
                    },
                    {
                        "number": 64,
                        "time": 491.9860241312638,
                        "value": 1
                    },
                    {
                        "number": 64,
                        "time": 492.40852392501375,
                        "value": 0
                    },
                    {
                        "number": 64,
                        "time": 492.4568648625137,
                        "value": 1
                    },
                    {
                        "number": 64,
                        "time": 492.87259692501374,
                        "value": 0
                    },
                    {
                        "number": 64,
                        "time": 492.91417013126375,
                        "value": 1
                    },
                    {
                        "number": 64,
                        "time": 493.3366699250137,
                        "value": 0
                    },
                    {
                        "number": 64,
                        "time": 493.3850108625137,
                        "value": 1
                    },
                    {
                        "number": 64,
                        "time": 493.77367200001373,
                        "value": 0
                    },
                    {
                        "number": 64,
                        "time": 493.8007429250137,
                        "value": 0
                    },
                    {
                        "number": 64,
                        "time": 493.8423161312637,
                        "value": 1
                    },
                    {
                        "number": 64,
                        "time": 494.2590150125137,
                        "value": 0
                    },
                    {
                        "number": 64,
                        "time": 494.3402277875137,
                        "value": 1
                    },
                    {
                        "number": 64,
                        "time": 494.7018180000137,
                        "value": 0
                    },
                    {
                        "number": 64,
                        "time": 494.7018180000137,
                        "value": 0
                    },
                    {
                        "number": 64,
                        "time": 494.7288889250137,
                        "value": 0
                    },
                    {
                        "number": 64,
                        "time": 494.7704621312637,
                        "value": 1
                    },
                    {
                        "number": 64,
                        "time": 495.18039328126366,
                        "value": 0
                    },
                    {
                        "number": 64,
                        "time": 495.31574790626365,
                        "value": 1
                    },
                    {
                        "number": 64,
                        "time": 495.6299640000137,
                        "value": 0
                    },
                    {
                        "number": 64,
                        "time": 495.65703492501365,
                        "value": 0
                    },
                    {
                        "number": 64,
                        "time": 495.69860813126365,
                        "value": 1
                    },
                    {
                        "number": 64,
                        "time": 496.10853928126363,
                        "value": 0
                    },
                    {
                        "number": 64,
                        "time": 496.2438939062636,
                        "value": 1
                    },
                    {
                        "number": 64,
                        "time": 496.55811000001364,
                        "value": 0
                    },
                    {
                        "number": 64,
                        "time": 496.5851809250136,
                        "value": 0
                    },
                    {
                        "number": 64,
                        "time": 496.6267541312636,
                        "value": 1
                    },
                    {
                        "number": 64,
                        "time": 497.0366852812636,
                        "value": 0
                    },
                    {
                        "number": 64,
                        "time": 497.1720399062636,
                        "value": 1
                    },
                    {
                        "number": 64,
                        "time": 497.4862560000136,
                        "value": 0
                    },
                    {
                        "number": 64,
                        "time": 497.6670511062636,
                        "value": 1
                    },
                    {
                        "number": 64,
                        "time": 498.2597110000136,
                        "value": 0
                    },
                    {
                        "number": 64,
                        "time": 498.4917475000136,
                        "value": 1
                    },
                    {
                        "number": 64,
                        "time": 499.03316600001364,
                        "value": 0
                    },
                    {
                        "number": 64,
                        "time": 499.4459976062637,
                        "value": 1
                    },
                    {
                        "number": 64,
                        "time": 499.8839665000137,
                        "value": 0
                    }
                ]
            },
            "id": 2,
            "name": "Piano left",
            "instrumentNumber": 1,
            "instrument": "bright acoustic piano",
            "instrumentFamily": "piano",
            "channelNumber": 0,
            "isPercussion": false
        },
        {
            "startTime": 0,
            "duration": 0,
            "length": 0,
            "notes": [],
            "controlChanges": {},
            "id": 3,
            "name": "Schubert Sonate D960  4. Satz"
        },
        {
            "startTime": 0,
            "duration": 0,
            "length": 0,
            "notes": [],
            "controlChanges": {},
            "id": 4,
            "name": "Copyright  2002 by Bernd Krger"
        },
        {
            "startTime": 0,
            "duration": 0,
            "length": 0,
            "notes": [],
            "controlChanges": {},
            "id": 5,
            "name": "http://www.piano-midi.de"
        },
        {
            "startTime": 0,
            "duration": 0,
            "length": 0,
            "notes": [],
            "controlChanges": {},
            "id": 6,
            "name": "Edition: 2014-03-25"
        },
        {
            "startTime": 0,
            "duration": 0,
            "length": 0,
            "notes": [],
            "controlChanges": {},
            "id": 7,
            "name": "Spur 7"
        },
        {
            "startTime": 0,
            "duration": 0,
            "length": 0,
            "notes": [],
            "controlChanges": {},
            "id": 8,
            "name": "Spur 8"
        },
        {
            "startTime": 0,
            "duration": 0,
            "length": 0,
            "notes": [],
            "controlChanges": {},
            "id": 9,
            "name": "Spur 9"
        }
    ]
}