{
    "header": {
        "PPQ": 480,
        "timeSignature": [
            3,
            4
        ],
        "bpm": 110.66006886744952,
        "name": "Nr. 1 in C-Dur"
    },
    "startTime": 0,
    "duration": 248.87025900000012,
    "tracks": [
        {
            "startTime": 0,
            "duration": 0,
            "length": 0,
            "notes": [],
            "controlChanges": {},
            "id": 0,
            "name": "Nr. 1 in C-Dur"
        },
        {
            "startTime": 0.0011295854166666667,
            "duration": 248.87025899999986,
            "length": 1447,
            "notes": [
                {
                    "name": "G4",
                    "midi": 67,
                    "time": 0.0011295854166666667,
                    "velocity": 0.47244094488188976,
                    "duration": 0.47442587500000005
                },
                {
                    "name": "A4",
                    "midi": 69,
                    "time": 0.47442587500000005,
                    "velocity": 0.3937007874015748,
                    "duration": 0.06777512499999999
                },
                {
                    "name": "G4",
                    "midi": 67,
                    "time": 0.542201,
                    "velocity": 0.47244094488188976,
                    "duration": 0.18073366666666668
                },
                {
                    "name": "E4",
                    "midi": 64,
                    "time": 0.7229346666666667,
                    "velocity": 0.44881889763779526,
                    "duration": 0.18073366666666668
                },
                {
                    "name": "C4",
                    "midi": 60,
                    "time": 0.9036683333333334,
                    "velocity": 0.41732283464566927,
                    "duration": 0.18073366666666668
                },
                {
                    "name": "G4",
                    "midi": 67,
                    "time": 1.084402,
                    "velocity": 0.47244094488188976,
                    "duration": 0.40665075000000006
                },
                {
                    "name": "E5",
                    "midi": 76,
                    "time": 1.4910527500000001,
                    "velocity": 0.4409448818897638,
                    "duration": 0.1355502500000001
                },
                {
                    "name": "E5",
                    "midi": 76,
                    "time": 1.6266030000000002,
                    "velocity": 0.47244094488188976,
                    "duration": 1.0844019999999999
                },
                {
                    "name": "C5",
                    "midi": 72,
                    "time": 2.711005,
                    "velocity": 0.3464566929133858,
                    "duration": 0.2711005000000002
                },
                {
                    "name": "G4",
                    "midi": 67,
                    "time": 3.2532060000000005,
                    "velocity": 0.4645669291338583,
                    "duration": 0.4744258750000001
                },
                {
                    "name": "F4",
                    "midi": 65,
                    "time": 3.7276318750000006,
                    "velocity": 0.3937007874015748,
                    "duration": 0.06777512499999983
                },
                {
                    "name": "E4",
                    "midi": 64,
                    "time": 3.7954070000000004,
                    "velocity": 0.47244094488188976,
                    "duration": 0.1807336666666668
                },
                {
                    "name": "C4",
                    "midi": 60,
                    "time": 3.976140666666667,
                    "velocity": 0.4409448818897638,
                    "duration": 0.18073366666666635
                },
                {
                    "name": "G3",
                    "midi": 55,
                    "time": 4.156874333333334,
                    "velocity": 0.4094488188976378,
                    "duration": 0.1807336666666668
                },
                {
                    "name": "C4",
                    "midi": 60,
                    "time": 4.337608,
                    "velocity": 0.47244094488188976,
                    "duration": 0.1807336666666668
                },
                {
                    "name": "E4",
                    "midi": 64,
                    "time": 4.518341666666667,
                    "velocity": 0.44881889763779526,
                    "duration": 0.1807336666666668
                },
                {
                    "name": "G4",
                    "midi": 67,
                    "time": 4.699075333333334,
                    "velocity": 0.4251968503937008,
                    "duration": 0.1807336666666668
                },
                {
                    "name": "G3",
                    "midi": 55,
                    "time": 4.879809000000001,
                    "velocity": 0.4409448818897638,
                    "duration": 0.13555024999999965
                },
                {
                    "name": "E4",
                    "midi": 64,
                    "time": 4.879809000000001,
                    "velocity": 0.4409448818897638,
                    "duration": 0.13555024999999965
                },
                {
                    "name": "G4",
                    "midi": 67,
                    "time": 4.879809000000001,
                    "velocity": 0.4409448818897638,
                    "duration": 0.13555024999999965
                },
                {
                    "name": "F4",
                    "midi": 65,
                    "time": 5.1509095,
                    "velocity": 0.41732283464566927,
                    "duration": 0.13555024999999965
                },
                {
                    "name": "D4",
                    "midi": 62,
                    "time": 5.1509095,
                    "velocity": 0.41732283464566927,
                    "duration": 0.13555024999999965
                },
                {
                    "name": "G3",
                    "midi": 55,
                    "time": 5.1509095,
                    "velocity": 0.41732283464566927,
                    "duration": 0.13555024999999965
                },
                {
                    "name": "G3",
                    "midi": 55,
                    "time": 5.422009999999999,
                    "velocity": 0.4409448818897638,
                    "duration": 0.10166268750000018
                },
                {
                    "name": "C4",
                    "midi": 60,
                    "time": 5.422009999999999,
                    "velocity": 0.4409448818897638,
                    "duration": 0.10166268750000018
                },
                {
                    "name": "E4",
                    "midi": 64,
                    "time": 5.422009999999999,
                    "velocity": 0.4409448818897638,
                    "duration": 0.10166268750000018
                },
                {
                    "name": "B3",
                    "midi": 59,
                    "time": 5.6931104999999995,
                    "velocity": 0.3937007874015748,
                    "duration": 0.10166268750000018
                },
                {
                    "name": "G3",
                    "midi": 55,
                    "time": 5.6931104999999995,
                    "velocity": 0.3937007874015748,
                    "duration": 0.10166268750000018
                },
                {
                    "name": "D4",
                    "midi": 62,
                    "time": 5.6931104999999995,
                    "velocity": 0.3937007874015748,
                    "duration": 0.10166268750000018
                },
                {
                    "name": "G3",
                    "midi": 55,
                    "time": 5.964211,
                    "velocity": 0.4409448818897638,
                    "duration": 0.10166268750000018
                },
                {
                    "name": "E4",
                    "midi": 64,
                    "time": 5.964211,
                    "velocity": 0.4409448818897638,
                    "duration": 0.10166268750000018
                },
                {
                    "name": "C4",
                    "midi": 60,
                    "time": 5.964211,
                    "velocity": 0.4409448818897638,
                    "duration": 0.10166268750000018
                },
                {
                    "name": "G3",
                    "midi": 55,
                    "time": 6.506412,
                    "velocity": 0.3228346456692913,
                    "duration": 0.13555024999999965
                },
                {
                    "name": "D#4",
                    "midi": 63,
                    "time": 6.506412,
                    "velocity": 0.3228346456692913,
                    "duration": 0.13555024999999965
                },
                {
                    "name": "G4",
                    "midi": 67,
                    "time": 6.506412,
                    "velocity": 0.3228346456692913,
                    "duration": 0.13555024999999965
                },
                {
                    "name": "F4",
                    "midi": 65,
                    "time": 6.777512499999999,
                    "velocity": 0.29133858267716534,
                    "duration": 0.13555024999999965
                },
                {
                    "name": "G3",
                    "midi": 55,
                    "time": 6.777512499999999,
                    "velocity": 0.29133858267716534,
                    "duration": 0.13555024999999965
                },
                {
                    "name": "D4",
                    "midi": 62,
                    "time": 6.777512499999999,
                    "velocity": 0.29133858267716534,
                    "duration": 0.13555024999999965
                },
                {
                    "name": "G3",
                    "midi": 55,
                    "time": 7.048612999999999,
                    "velocity": 0.3228346456692913,
                    "duration": 0.10166268750000018
                },
                {
                    "name": "C4",
                    "midi": 60,
                    "time": 7.048612999999999,
                    "velocity": 0.3228346456692913,
                    "duration": 0.10166268750000018
                },
                {
                    "name": "D#4",
                    "midi": 63,
                    "time": 7.048612999999999,
                    "velocity": 0.3228346456692913,
                    "duration": 0.10166268750000018
                },
                {
                    "name": "D4",
                    "midi": 62,
                    "time": 7.319713499999999,
                    "velocity": 0.2992125984251969,
                    "duration": 0.10166268750000018
                },
                {
                    "name": "G3",
                    "midi": 55,
                    "time": 7.319713499999999,
                    "velocity": 0.2992125984251969,
                    "duration": 0.10166268750000018
                },
                {
                    "name": "B3",
                    "midi": 59,
                    "time": 7.319713499999999,
                    "velocity": 0.2992125984251969,
                    "duration": 0.10166268750000018
                },
                {
                    "name": "G3",
                    "midi": 55,
                    "time": 7.590813999999999,
                    "velocity": 0.33858267716535434,
                    "duration": 0.10166268750000018
                },
                {
                    "name": "C4",
                    "midi": 60,
                    "time": 7.590813999999999,
                    "velocity": 0.33858267716535434,
                    "duration": 0.10166268750000018
                },
                {
                    "name": "D#4",
                    "midi": 63,
                    "time": 7.590813999999999,
                    "velocity": 0.33858267716535434,
                    "duration": 0.10166268750000018
                },
                {
                    "name": "F4",
                    "midi": 65,
                    "time": 7.861914499999999,
                    "velocity": 0.2992125984251969,
                    "duration": 0.10166268750000018
                },
                {
                    "name": "A#3",
                    "midi": 58,
                    "time": 7.861914499999999,
                    "velocity": 0.2992125984251969,
                    "duration": 0.10166268750000018
                },
                {
                    "name": "D4",
                    "midi": 62,
                    "time": 7.861914499999999,
                    "velocity": 0.2992125984251969,
                    "duration": 0.10166268750000018
                },
                {
                    "name": "A#3",
                    "midi": 58,
                    "time": 8.133015,
                    "velocity": 0.41732283464566927,
                    "duration": 0.2711004999999993
                },
                {
                    "name": "D4",
                    "midi": 62,
                    "time": 8.133015,
                    "velocity": 0.41732283464566927,
                    "duration": 0.2711004999999993
                },
                {
                    "name": "F4",
                    "midi": 65,
                    "time": 8.133015,
                    "velocity": 0.41732283464566927,
                    "duration": 0.2711004999999993
                },
                {
                    "name": "D#4",
                    "midi": 63,
                    "time": 8.4041155,
                    "velocity": 0.3858267716535433,
                    "duration": 0.20332537500000036
                },
                {
                    "name": "A#3",
                    "midi": 58,
                    "time": 8.4041155,
                    "velocity": 0.3858267716535433,
                    "duration": 0.20332537500000036
                },
                {
                    "name": "G4",
                    "midi": 67,
                    "time": 8.4041155,
                    "velocity": 0.3858267716535433,
                    "duration": 0.20332537500000036
                },
                {
                    "name": "A#3",
                    "midi": 58,
                    "time": 8.675216,
                    "velocity": 0.4566929133858268,
                    "duration": 0.2711004999999993
                },
                {
                    "name": "G4",
                    "midi": 67,
                    "time": 8.675216,
                    "velocity": 0.4566929133858268,
                    "duration": 0.2711004999999993
                },
                {
                    "name": "D#4",
                    "midi": 63,
                    "time": 8.675216,
                    "velocity": 0.4566929133858268,
                    "duration": 0.2711004999999993
                },
                {
                    "name": "D4",
                    "midi": 62,
                    "time": 8.9463165,
                    "velocity": 0.41732283464566927,
                    "duration": 0.20332537500000036
                },
                {
                    "name": "F#4",
                    "midi": 66,
                    "time": 8.9463165,
                    "velocity": 0.41732283464566927,
                    "duration": 0.20332537500000036
                },
                {
                    "name": "A4",
                    "midi": 69,
                    "time": 8.9463165,
                    "velocity": 0.41732283464566927,
                    "duration": 0.20332537500000036
                },
                {
                    "name": "A4",
                    "midi": 69,
                    "time": 9.217417000000001,
                    "velocity": 0.49606299212598426,
                    "duration": 0.2711004999999993
                },
                {
                    "name": "F#4",
                    "midi": 66,
                    "time": 9.217417000000001,
                    "velocity": 0.49606299212598426,
                    "duration": 0.2711004999999993
                },
                {
                    "name": "D4",
                    "midi": 62,
                    "time": 9.217417000000001,
                    "velocity": 0.49606299212598426,
                    "duration": 0.2711004999999993
                },
                {
                    "name": "D4",
                    "midi": 62,
                    "time": 9.4885175,
                    "velocity": 0.4566929133858268,
                    "duration": 0.20332537500000036
                },
                {
                    "name": "G4",
                    "midi": 67,
                    "time": 9.4885175,
                    "velocity": 0.4566929133858268,
                    "duration": 0.20332537500000036
                },
                {
                    "name": "A#4",
                    "midi": 70,
                    "time": 9.4885175,
                    "velocity": 0.4566929133858268,
                    "duration": 0.20332537500000036
                },
                {
                    "name": "A#4",
                    "midi": 70,
                    "time": 9.759618000000001,
                    "velocity": 0.5354330708661418,
                    "duration": 0.2711004999999993
                },
                {
                    "name": "D4",
                    "midi": 62,
                    "time": 9.759618000000001,
                    "velocity": 0.5354330708661418,
                    "duration": 0.2711004999999993
                },
                {
                    "name": "G4",
                    "midi": 67,
                    "time": 9.759618000000001,
                    "velocity": 0.5354330708661418,
                    "duration": 0.2711004999999993
                },
                {
                    "name": "D4",
                    "midi": 62,
                    "time": 10.0307185,
                    "velocity": 0.5196850393700787,
                    "duration": 0.2711004999999993
                },
                {
                    "name": "G4",
                    "midi": 67,
                    "time": 10.0307185,
                    "velocity": 0.5196850393700787,
                    "duration": 0.2711004999999993
                },
                {
                    "name": "B4",
                    "midi": 71,
                    "time": 10.0307185,
                    "velocity": 0.5196850393700787,
                    "duration": 0.2711004999999993
                },
                {
                    "name": "G4",
                    "midi": 67,
                    "time": 10.301819,
                    "velocity": 0.5590551181102362,
                    "duration": 0.8133014999999997
                },
                {
                    "name": "D4",
                    "midi": 62,
                    "time": 10.301819,
                    "velocity": 0.5590551181102362,
                    "duration": 0.8133014999999997
                },
                {
                    "name": "B4",
                    "midi": 71,
                    "time": 10.301819,
                    "velocity": 0.5590551181102362,
                    "duration": 0.8133014999999997
                },
                {
                    "name": "F4",
                    "midi": 65,
                    "time": 11.1151205,
                    "velocity": 0.4251968503937008,
                    "duration": 0.2711004999999993
                },
                {
                    "name": "F5",
                    "midi": 77,
                    "time": 11.1151205,
                    "velocity": 0.4251968503937008,
                    "duration": 0.2711004999999993
                },
                {
                    "name": "B4",
                    "midi": 71,
                    "time": 11.1151205,
                    "velocity": 0.4251968503937008,
                    "duration": 0.2711004999999993
                },
                {
                    "name": "E4",
                    "midi": 64,
                    "time": 11.386220999999999,
                    "velocity": 0.4251968503937008,
                    "duration": 1.6266029999999994
                },
                {
                    "name": "C5",
                    "midi": 72,
                    "time": 11.386220999999999,
                    "velocity": 0.4251968503937008,
                    "duration": 1.6266029999999994
                },
                {
                    "name": "E5",
                    "midi": 76,
                    "time": 11.386220999999999,
                    "velocity": 0.4251968503937008,
                    "duration": 1.6266029999999994
                },
                {
                    "name": "G4",
                    "midi": 67,
                    "time": 13.012823999999998,
                    "velocity": 0.47244094488188976,
                    "duration": 0.47442587499999966
                },
                {
                    "name": "A4",
                    "midi": 69,
                    "time": 13.487249874999998,
                    "velocity": 0.3937007874015748,
                    "duration": 0.06777512500000071
                },
                {
                    "name": "G4",
                    "midi": 67,
                    "time": 13.555024999999999,
                    "velocity": 0.47244094488188976,
                    "duration": 0.1807336666666668
                },
                {
                    "name": "E4",
                    "midi": 64,
                    "time": 13.735758666666666,
                    "velocity": 0.44881889763779526,
                    "duration": 0.1807336666666668
                },
                {
                    "name": "C4",
                    "midi": 60,
                    "time": 13.916492333333332,
                    "velocity": 0.41732283464566927,
                    "duration": 0.1807336666666668
                },
                {
                    "name": "G4",
                    "midi": 67,
                    "time": 14.097226,
                    "velocity": 0.47244094488188976,
                    "duration": 0.4066507500000007
                },
                {
                    "name": "E5",
                    "midi": 76,
                    "time": 14.50387675,
                    "velocity": 0.4409448818897638,
                    "duration": 0.13555024999999965
                },
                {
                    "name": "E5",
                    "midi": 76,
                    "time": 14.639427,
                    "velocity": 0.47244094488188976,
                    "duration": 1.0844020000000008
                },
                {
                    "name": "C5",
                    "midi": 72,
                    "time": 15.723829,
                    "velocity": 0.3464566929133858,
                    "duration": 0.2711004999999993
                },
                {
                    "name": "G4",
                    "midi": 67,
                    "time": 16.26603,
                    "velocity": 0.4645669291338583,
                    "duration": 0.47442587500000144
                },
                {
                    "name": "F4",
                    "midi": 65,
                    "time": 16.740455875000002,
                    "velocity": 0.3937007874015748,
                    "duration": 0.06777512500000071
                },
                {
                    "name": "E4",
                    "midi": 64,
                    "time": 16.808231000000003,
                    "velocity": 0.47244094488188976,
                    "duration": 0.18073366666666502
                },
                {
                    "name": "C4",
                    "midi": 60,
                    "time": 16.988964666666668,
                    "velocity": 0.4409448818897638,
                    "duration": 0.18073366666666502
                },
                {
                    "name": "G3",
                    "midi": 55,
                    "time": 17.169698333333333,
                    "velocity": 0.4094488188976378,
                    "duration": 0.18073366666666502
                },
                {
                    "name": "C4",
                    "midi": 60,
                    "time": 17.350431999999998,
                    "velocity": 0.47244094488188976,
                    "duration": 0.18073366666666502
                },
                {
                    "name": "E4",
                    "midi": 64,
                    "time": 17.531165666666663,
                    "velocity": 0.44881889763779526,
                    "duration": 0.18073366666666502
                },
                {
                    "name": "G4",
                    "midi": 67,
                    "time": 17.711899333333328,
                    "velocity": 0.44881889763779526,
                    "duration": 0.18073366666666502
                },
                {
                    "name": "G3",
                    "midi": 55,
                    "time": 17.892632999999993,
                    "velocity": 0.4409448818897638,
                    "duration": 0.13555025000000143
                },
                {
                    "name": "E4",
                    "midi": 64,
                    "time": 17.892632999999993,
                    "velocity": 0.4409448818897638,
                    "duration": 0.13555025000000143
                },
                {
                    "name": "G4",
                    "midi": 67,
                    "time": 17.892632999999993,
                    "velocity": 0.4409448818897638,
                    "duration": 0.13555025000000143
                },
                {
                    "name": "G3",
                    "midi": 55,
                    "time": 18.163733499999996,
                    "velocity": 0.41732283464566927,
                    "duration": 0.13555025000000143
                },
                {
                    "name": "D4",
                    "midi": 62,
                    "time": 18.163733499999996,
                    "velocity": 0.41732283464566927,
                    "duration": 0.13555025000000143
                },
                {
                    "name": "F4",
                    "midi": 65,
                    "time": 18.163733499999996,
                    "velocity": 0.41732283464566927,
                    "duration": 0.13555025000000143
                },
                {
                    "name": "G3",
                    "midi": 55,
                    "time": 18.434834,
                    "velocity": 0.4409448818897638,
                    "duration": 0.1016626874999993
                },
                {
                    "name": "C4",
                    "midi": 60,
                    "time": 18.434834,
                    "velocity": 0.4409448818897638,
                    "duration": 0.1016626874999993
                },
                {
                    "name": "E4",
                    "midi": 64,
                    "time": 18.434834,
                    "velocity": 0.4409448818897638,
                    "duration": 0.1016626874999993
                },
                {
                    "name": "G3",
                    "midi": 55,
                    "time": 18.705934499999998,
                    "velocity": 0.3937007874015748,
                    "duration": 0.1016626874999993
                },
                {
                    "name": "B3",
                    "midi": 59,
                    "time": 18.705934499999998,
                    "velocity": 0.3937007874015748,
                    "duration": 0.1016626874999993
                },
                {
                    "name": "D4",
                    "midi": 62,
                    "time": 18.705934499999998,
                    "velocity": 0.3937007874015748,
                    "duration": 0.1016626874999993
                },
                {
                    "name": "G3",
                    "midi": 55,
                    "time": 18.977034999999997,
                    "velocity": 0.4409448818897638,
                    "duration": 0.1016626874999993
                },
                {
                    "name": "C4",
                    "midi": 60,
                    "time": 18.977034999999997,
                    "velocity": 0.4409448818897638,
                    "duration": 0.1016626874999993
                },
                {
                    "name": "E4",
                    "midi": 64,
                    "time": 18.977034999999997,
                    "velocity": 0.4409448818897638,
                    "duration": 0.1016626874999993
                },
                {
                    "name": "G3",
                    "midi": 55,
                    "time": 19.519235999999996,
                    "velocity": 0.3228346456692913,
                    "duration": 0.13555025000000143
                },
                {
                    "name": "D#4",
                    "midi": 63,
                    "time": 19.519235999999996,
                    "velocity": 0.3228346456692913,
                    "duration": 0.13555025000000143
                },
                {
                    "name": "G4",
                    "midi": 67,
                    "time": 19.519235999999996,
                    "velocity": 0.3228346456692913,
                    "duration": 0.13555025000000143
                },
                {
                    "name": "G3",
                    "midi": 55,
                    "time": 19.7903365,
                    "velocity": 0.29133858267716534,
                    "duration": 0.13555025000000143
                },
                {
                    "name": "D4",
                    "midi": 62,
                    "time": 19.7903365,
                    "velocity": 0.29133858267716534,
                    "duration": 0.13555025000000143
                },
                {
                    "name": "F4",
                    "midi": 65,
                    "time": 19.7903365,
                    "velocity": 0.29133858267716534,
                    "duration": 0.13555025000000143
                },
                {
                    "name": "G3",
                    "midi": 55,
                    "time": 20.061437,
                    "velocity": 0.3228346456692913,
                    "duration": 0.1016626874999993
                },
                {
                    "name": "C4",
                    "midi": 60,
                    "time": 20.061437,
                    "velocity": 0.3228346456692913,
                    "duration": 0.1016626874999993
                },
                {
                    "name": "D#4",
                    "midi": 63,
                    "time": 20.061437,
                    "velocity": 0.3228346456692913,
                    "duration": 0.1016626874999993
                },
                {
                    "name": "G3",
                    "midi": 55,
                    "time": 20.3325375,
                    "velocity": 0.2992125984251969,
                    "duration": 0.1016626874999993
                },
                {
                    "name": "B3",
                    "midi": 59,
                    "time": 20.3325375,
                    "velocity": 0.2992125984251969,
                    "duration": 0.1016626874999993
                },
                {
                    "name": "D4",
                    "midi": 62,
                    "time": 20.3325375,
                    "velocity": 0.2992125984251969,
                    "duration": 0.1016626874999993
                },
                {
                    "name": "G3",
                    "midi": 55,
                    "time": 20.603638,
                    "velocity": 0.3543307086614173,
                    "duration": 0.1016626874999993
                },
                {
                    "name": "C4",
                    "midi": 60,
                    "time": 20.603638,
                    "velocity": 0.3543307086614173,
                    "duration": 0.1016626874999993
                },
                {
                    "name": "D#4",
                    "midi": 63,
                    "time": 20.603638,
                    "velocity": 0.3543307086614173,
                    "duration": 0.1016626874999993
                },
                {
                    "name": "A#3",
                    "midi": 58,
                    "time": 20.8747385,
                    "velocity": 0.3228346456692913,
                    "duration": 0.13555025000000143
                },
                {
                    "name": "D4",
                    "midi": 62,
                    "time": 20.8747385,
                    "velocity": 0.3228346456692913,
                    "duration": 0.13555025000000143
                },
                {
                    "name": "F4",
                    "midi": 65,
                    "time": 20.8747385,
                    "velocity": 0.3228346456692913,
                    "duration": 0.13555025000000143
                },
                {
                    "name": "A#3",
                    "midi": 58,
                    "time": 21.145839000000002,
                    "velocity": 0.4015748031496063,
                    "duration": 0.2711004999999993
                },
                {
                    "name": "D4",
                    "midi": 62,
                    "time": 21.145839000000002,
                    "velocity": 0.4015748031496063,
                    "duration": 0.2711004999999993
                },
                {
                    "name": "F4",
                    "midi": 65,
                    "time": 21.145839000000002,
                    "velocity": 0.4015748031496063,
                    "duration": 0.2711004999999993
                },
                {
                    "name": "A#3",
                    "midi": 58,
                    "time": 21.4169395,
                    "velocity": 0.3779527559055118,
                    "duration": 0.2033253749999986
                },
                {
                    "name": "D#4",
                    "midi": 63,
                    "time": 21.4169395,
                    "velocity": 0.3779527559055118,
                    "duration": 0.2033253749999986
                },
                {
                    "name": "G4",
                    "midi": 67,
                    "time": 21.4169395,
                    "velocity": 0.3779527559055118,
                    "duration": 0.2033253749999986
                },
                {
                    "name": "A#3",
                    "midi": 58,
                    "time": 21.68804,
                    "velocity": 0.44881889763779526,
                    "duration": 0.2711004999999993
                },
                {
                    "name": "D#4",
                    "midi": 63,
                    "time": 21.68804,
                    "velocity": 0.44881889763779526,
                    "duration": 0.2711004999999993
                },
                {
                    "name": "G4",
                    "midi": 67,
                    "time": 21.68804,
                    "velocity": 0.44881889763779526,
                    "duration": 0.2711004999999993
                },
                {
                    "name": "D4",
                    "midi": 62,
                    "time": 21.9591405,
                    "velocity": 0.4251968503937008,
                    "duration": 0.2033253749999986
                },
                {
                    "name": "F#4",
                    "midi": 66,
                    "time": 21.9591405,
                    "velocity": 0.4251968503937008,
                    "duration": 0.2033253749999986
                },
                {
                    "name": "A4",
                    "midi": 69,
                    "time": 21.9591405,
                    "velocity": 0.4251968503937008,
                    "duration": 0.2033253749999986
                },
                {
                    "name": "D4",
                    "midi": 62,
                    "time": 22.230241,
                    "velocity": 0.5039370078740157,
                    "duration": 0.2711004999999993
                },
                {
                    "name": "F#4",
                    "midi": 66,
                    "time": 22.230241,
                    "velocity": 0.5039370078740157,
                    "duration": 0.2711004999999993
                },
                {
                    "name": "A4",
                    "midi": 69,
                    "time": 22.230241,
                    "velocity": 0.5039370078740157,
                    "duration": 0.2711004999999993
                },
                {
                    "name": "D4",
                    "midi": 62,
                    "time": 22.5013415,
                    "velocity": 0.44881889763779526,
                    "duration": 0.2033253749999986
                },
                {
                    "name": "G4",
                    "midi": 67,
                    "time": 22.5013415,
                    "velocity": 0.44881889763779526,
                    "duration": 0.2033253749999986
                },
                {
                    "name": "A#4",
                    "midi": 70,
                    "time": 22.5013415,
                    "velocity": 0.44881889763779526,
                    "duration": 0.2033253749999986
                },
                {
                    "name": "D4",
                    "midi": 62,
                    "time": 22.772441999999998,
                    "velocity": 0.5196850393700787,
                    "duration": 0.2711004999999993
                },
                {
                    "name": "G4",
                    "midi": 67,
                    "time": 22.772441999999998,
                    "velocity": 0.5196850393700787,
                    "duration": 0.2711004999999993
                },
                {
                    "name": "A#4",
                    "midi": 70,
                    "time": 22.772441999999998,
                    "velocity": 0.5196850393700787,
                    "duration": 0.2711004999999993
                },
                {
                    "name": "D4",
                    "midi": 62,
                    "time": 23.043542499999997,
                    "velocity": 0.5196850393700787,
                    "duration": 0.2711004999999993
                },
                {
                    "name": "G4",
                    "midi": 67,
                    "time": 23.043542499999997,
                    "velocity": 0.5196850393700787,
                    "duration": 0.2711004999999993
                },
                {
                    "name": "B4",
                    "midi": 71,
                    "time": 23.043542499999997,
                    "velocity": 0.5196850393700787,
                    "duration": 0.2711004999999993
                },
                {
                    "name": "D4",
                    "midi": 62,
                    "time": 23.314642999999997,
                    "velocity": 0.5433070866141733,
                    "duration": 0.8133015000000015
                },
                {
                    "name": "G4",
                    "midi": 67,
                    "time": 23.314642999999997,
                    "velocity": 0.5433070866141733,
                    "duration": 0.8133015000000015
                },
                {
                    "name": "B4",
                    "midi": 71,
                    "time": 23.314642999999997,
                    "velocity": 0.5433070866141733,
                    "duration": 0.8133015000000015
                },
                {
                    "name": "F4",
                    "midi": 65,
                    "time": 24.127944499999998,
                    "velocity": 0.4251968503937008,
                    "duration": 0.2711004999999993
                },
                {
                    "name": "B4",
                    "midi": 71,
                    "time": 24.127944499999998,
                    "velocity": 0.4251968503937008,
                    "duration": 0.2711004999999993
                },
                {
                    "name": "F5",
                    "midi": 77,
                    "time": 24.127944499999998,
                    "velocity": 0.4251968503937008,
                    "duration": 0.2711004999999993
                },
                {
                    "name": "E4",
                    "midi": 64,
                    "time": 24.399044999999997,
                    "velocity": 0.4251968503937008,
                    "duration": 1.6266029999999994
                },
                {
                    "name": "C5",
                    "midi": 72,
                    "time": 24.399044999999997,
                    "velocity": 0.4251968503937008,
                    "duration": 1.6266029999999994
                },
                {
                    "name": "E5",
                    "midi": 76,
                    "time": 24.399044999999997,
                    "velocity": 0.4251968503937008,
                    "duration": 1.6266029999999994
                },
                {
                    "name": "E5",
                    "midi": 76,
                    "time": 26.025647999999997,
                    "velocity": 0.4251968503937008,
                    "duration": 0.47442587500000144
                },
                {
                    "name": "F5",
                    "midi": 77,
                    "time": 26.500073875,
                    "velocity": 0.3464566929133858,
                    "duration": 0.06777512500000071
                },
                {
                    "name": "E5",
                    "midi": 76,
                    "time": 26.567849,
                    "velocity": 0.4251968503937008,
                    "duration": 0.18073366666666502
                },
                {
                    "name": "C5",
                    "midi": 72,
                    "time": 26.748582666666664,
                    "velocity": 0.3937007874015748,
                    "duration": 0.18073366666666502
                },
                {
                    "name": "A4",
                    "midi": 69,
                    "time": 26.92931633333333,
                    "velocity": 0.3700787401574803,
                    "duration": 0.11295854166666786
                },
                {
                    "name": "D5",
                    "midi": 74,
                    "time": 27.042274874999997,
                    "velocity": 0.3464566929133858,
                    "duration": 0.06777512500000071
                },
                {
                    "name": "C5",
                    "midi": 72,
                    "time": 27.110049999999998,
                    "velocity": 0.4251968503937008,
                    "duration": 0.18073366666666502
                },
                {
                    "name": "A4",
                    "midi": 69,
                    "time": 27.290783666666663,
                    "velocity": 0.4015748031496063,
                    "duration": 0.18073366666666502
                },
                {
                    "name": "E4",
                    "midi": 64,
                    "time": 27.471517333333328,
                    "velocity": 0.3700787401574803,
                    "duration": 0.18073366666666502
                },
                {
                    "name": "E4",
                    "midi": 64,
                    "time": 27.652250999999993,
                    "velocity": 0.4251968503937008,
                    "duration": 0.5422009999999986
                },
                {
                    "name": "A4",
                    "midi": 69,
                    "time": 27.652250999999993,
                    "velocity": 0.4251968503937008,
                    "duration": 0.2711004999999993
                },
                {
                    "name": "C5",
                    "midi": 72,
                    "time": 27.652250999999993,
                    "velocity": 0.4251968503937008,
                    "duration": 0.2711004999999993
                },
                {
                    "name": "G#4",
                    "midi": 68,
                    "time": 27.923351499999992,
                    "velocity": 0.33858267716535434,
                    "duration": 0.2711004999999993
                },
                {
                    "name": "B4",
                    "midi": 71,
                    "time": 27.923351499999992,
                    "velocity": 0.4015748031496063,
                    "duration": 0.2711004999999993
                },
                {
                    "name": "G#4",
                    "midi": 68,
                    "time": 28.19445199999999,
                    "velocity": 0.3543307086614173,
                    "duration": 0.2711004999999993
                },
                {
                    "name": "E4",
                    "midi": 64,
                    "time": 28.19445199999999,
                    "velocity": 0.3543307086614173,
                    "duration": 0.2711004999999993
                },
                {
                    "name": "B4",
                    "midi": 71,
                    "time": 28.19445199999999,
                    "velocity": 0.4251968503937008,
                    "duration": 0.2711004999999993
                },
                {
                    "name": "F#4",
                    "midi": 66,
                    "time": 28.46555249999999,
                    "velocity": 0.33858267716535434,
                    "duration": 0.2711004999999993
                },
                {
                    "name": "E4",
                    "midi": 64,
                    "time": 28.46555249999999,
                    "velocity": 0.33858267716535434,
                    "duration": 0.2711004999999993
                },
                {
                    "name": "A4",
                    "midi": 69,
                    "time": 28.46555249999999,
                    "velocity": 0.4015748031496063,
                    "duration": 0.2711004999999993
                },
                {
                    "name": "E4",
                    "midi": 64,
                    "time": 28.73665299999999,
                    "velocity": 0.3543307086614173,
                    "duration": 0.5422009999999986
                },
                {
                    "name": "G#4",
                    "midi": 68,
                    "time": 28.73665299999999,
                    "velocity": 0.3543307086614173,
                    "duration": 0.5422009999999986
                },
                {
                    "name": "B4",
                    "midi": 71,
                    "time": 28.73665299999999,
                    "velocity": 0.4251968503937008,
                    "duration": 0.5422009999999986
                },
                {
                    "name": "E4",
                    "midi": 64,
                    "time": 29.27885399999999,
                    "velocity": 0.3543307086614173,
                    "duration": 0.5422009999999986
                },
                {
                    "name": "G4",
                    "midi": 67,
                    "time": 29.27885399999999,
                    "velocity": 0.3543307086614173,
                    "duration": 0.5422009999999986
                },
                {
                    "name": "C5",
                    "midi": 72,
                    "time": 29.27885399999999,
                    "velocity": 0.4251968503937008,
                    "duration": 0.2711004999999993
                },
                {
                    "name": "B4",
                    "midi": 71,
                    "time": 29.549954499999988,
                    "velocity": 0.4015748031496063,
                    "duration": 0.2711004999999993
                },
                {
                    "name": "E4",
                    "midi": 64,
                    "time": 29.821054999999987,
                    "velocity": 0.3543307086614173,
                    "duration": 0.2711004999999993
                },
                {
                    "name": "G4",
                    "midi": 67,
                    "time": 29.821054999999987,
                    "velocity": 0.3543307086614173,
                    "duration": 0.2711004999999993
                },
                {
                    "name": "B4",
                    "midi": 71,
                    "time": 29.821054999999987,
                    "velocity": 0.4251968503937008,
                    "duration": 0.2711004999999993
                },
                {
                    "name": "E4",
                    "midi": 64,
                    "time": 30.092155499999986,
                    "velocity": 0.3464566929133858,
                    "duration": 0.2711004999999993
                },
                {
                    "name": "G4",
                    "midi": 67,
                    "time": 30.092155499999986,
                    "velocity": 0.3464566929133858,
                    "duration": 0.2711004999999993
                },
                {
                    "name": "C5",
                    "midi": 72,
                    "time": 30.092155499999986,
                    "velocity": 0.4094488188976378,
                    "duration": 0.2711004999999993
                },
                {
                    "name": "G4",
                    "midi": 67,
                    "time": 30.363255999999986,
                    "velocity": 0.3543307086614173,
                    "duration": 0.5422009999999986
                },
                {
                    "name": "B4",
                    "midi": 71,
                    "time": 30.363255999999986,
                    "velocity": 0.4251968503937008,
                    "duration": 0.2711004999999993
                },
                {
                    "name": "F5",
                    "midi": 77,
                    "time": 30.634356499999985,
                    "velocity": 0.41732283464566927,
                    "duration": 0.2711004999999993
                },
                {
                    "name": "E5",
                    "midi": 76,
                    "time": 30.905456999999984,
                    "velocity": 0.4251968503937008,
                    "duration": 0.47442587500000144
                },
                {
                    "name": "D5",
                    "midi": 74,
                    "time": 31.379882874999986,
                    "velocity": 0.33858267716535434,
                    "duration": 0.06777512500000071
                },
                {
                    "name": "C5",
                    "midi": 72,
                    "time": 31.447657999999986,
                    "velocity": 0.41732283464566927,
                    "duration": 0.18073366666666502
                },
                {
                    "name": "B4",
                    "midi": 71,
                    "time": 31.62839166666665,
                    "velocity": 0.4015748031496063,
                    "duration": 0.18073366666666502
                },
                {
                    "name": "A4",
                    "midi": 69,
                    "time": 31.809125333333316,
                    "velocity": 0.4094488188976378,
                    "duration": 0.18073366666666502
                },
                {
                    "name": "B4",
                    "midi": 71,
                    "time": 31.98985899999998,
                    "velocity": 0.4330708661417323,
                    "duration": 0.5422009999999986
                },
                {
                    "name": "B4",
                    "midi": 71,
                    "time": 32.53205999999998,
                    "velocity": 0.5354330708661418,
                    "duration": 0.47442587500000144
                },
                {
                    "name": "C5",
                    "midi": 72,
                    "time": 33.00648587499998,
                    "velocity": 0.4566929133858268,
                    "duration": 0.06777512499999716
                },
                {
                    "name": "B4",
                    "midi": 71,
                    "time": 33.07426099999998,
                    "velocity": 0.5354330708661418,
                    "duration": 0.18073366666666857
                },
                {
                    "name": "G4",
                    "midi": 67,
                    "time": 33.25499466666665,
                    "velocity": 0.5196850393700787,
                    "duration": 0.18073366666666857
                },
                {
                    "name": "E4",
                    "midi": 64,
                    "time": 33.435728333333316,
                    "velocity": 0.5039370078740157,
                    "duration": 0.13555025000000143
                },
                {
                    "name": "G5",
                    "midi": 79,
                    "time": 33.616461999999984,
                    "velocity": 0.6456692913385826,
                    "duration": 0.27110050000000285
                },
                {
                    "name": "E5",
                    "midi": 76,
                    "time": 33.88756249999999,
                    "velocity": 0.5669291338582677,
                    "duration": 0.10166268750000285
                },
                {
                    "name": "B4",
                    "midi": 71,
                    "time": 34.15866299999999,
                    "velocity": 0.5511811023622047,
                    "duration": 0.47442587500000144
                },
                {
                    "name": "C5",
                    "midi": 72,
                    "time": 34.63308887499999,
                    "velocity": 0.47244094488188976,
                    "duration": 0.06777512499999716
                },
                {
                    "name": "B4",
                    "midi": 71,
                    "time": 34.70086399999999,
                    "velocity": 0.5590551181102362,
                    "duration": 0.18073366666666857
                },
                {
                    "name": "G4",
                    "midi": 67,
                    "time": 34.88159766666666,
                    "velocity": 0.5433070866141733,
                    "duration": 0.18073366666666857
                },
                {
                    "name": "E4",
                    "midi": 64,
                    "time": 35.062331333333326,
                    "velocity": 0.5196850393700787,
                    "duration": 0.13555025000000143
                },
                {
                    "name": "G5",
                    "midi": 79,
                    "time": 35.243064999999994,
                    "velocity": 0.6692913385826772,
                    "duration": 0.27110050000000285
                },
                {
                    "name": "E5",
                    "midi": 76,
                    "time": 35.5141655,
                    "velocity": 0.5826771653543307,
                    "duration": 0.10166268750000285
                },
                {
                    "name": "B5",
                    "midi": 83,
                    "time": 35.785266,
                    "velocity": 0.7086614173228346,
                    "duration": 0.27110050000000285
                },
                {
                    "name": "D#5",
                    "midi": 75,
                    "time": 35.785266,
                    "velocity": 0.7086614173228346,
                    "duration": 0.27110050000000285
                },
                {
                    "name": "F#5",
                    "midi": 78,
                    "time": 35.785266,
                    "velocity": 0.7086614173228346,
                    "duration": 0.27110050000000285
                },
                {
                    "name": "B4",
                    "midi": 71,
                    "time": 36.0563665,
                    "velocity": 0.6850393700787402,
                    "duration": 0.10166268750000285
                },
                {
                    "name": "A5",
                    "midi": 81,
                    "time": 36.25969187500001,
                    "velocity": 0.5511811023622047,
                    "duration": 0.06777512499999716
                },
                {
                    "name": "G5",
                    "midi": 79,
                    "time": 36.327467000000006,
                    "velocity": 0.6850393700787402,
                    "duration": 0.18073366666666857
                },
                {
                    "name": "F#5",
                    "midi": 78,
                    "time": 36.508200666666674,
                    "velocity": 0.6535433070866141,
                    "duration": 0.18073366666666857
                },
                {
                    "name": "E5",
                    "midi": 76,
                    "time": 36.68893433333334,
                    "velocity": 0.6141732283464567,
                    "duration": 0.18073366666666857
                },
                {
                    "name": "B5",
                    "midi": 83,
                    "time": 36.86966800000001,
                    "velocity": 0.7322834645669292,
                    "duration": 0.27110050000000285
                },
                {
                    "name": "D#5",
                    "midi": 75,
                    "time": 36.86966800000001,
                    "velocity": 0.7322834645669292,
                    "duration": 0.27110050000000285
                },
                {
                    "name": "F#5",
                    "midi": 78,
                    "time": 36.86966800000001,
                    "velocity": 0.7322834645669292,
                    "duration": 0.27110050000000285
                },
                {
                    "name": "B4",
                    "midi": 71,
                    "time": 37.140768500000014,
                    "velocity": 0.6771653543307087,
                    "duration": 0.10166268750000285
                },
                {
                    "name": "A5",
                    "midi": 81,
                    "time": 37.34409387500002,
                    "velocity": 0.5826771653543307,
                    "duration": 0.06777512499999716
                },
                {
                    "name": "G5",
                    "midi": 79,
                    "time": 37.41186900000002,
                    "velocity": 0.7007874015748031,
                    "duration": 0.18073366666666857
                },
                {
                    "name": "F#5",
                    "midi": 78,
                    "time": 37.592602666666686,
                    "velocity": 0.6692913385826772,
                    "duration": 0.18073366666666857
                },
                {
                    "name": "E5",
                    "midi": 76,
                    "time": 37.773336333333354,
                    "velocity": 0.6456692913385826,
                    "duration": 0.18073366666666857
                },
                {
                    "name": "B5",
                    "midi": 83,
                    "time": 37.95407000000002,
                    "velocity": 0.7480314960629921,
                    "duration": 0.27110050000000285
                },
                {
                    "name": "D#5",
                    "midi": 75,
                    "time": 37.95407000000002,
                    "velocity": 0.7480314960629921,
                    "duration": 0.27110050000000285
                },
                {
                    "name": "F#5",
                    "midi": 78,
                    "time": 37.95407000000002,
                    "velocity": 0.7480314960629921,
                    "duration": 0.27110050000000285
                },
                {
                    "name": "B4",
                    "midi": 71,
                    "time": 38.225170500000026,
                    "velocity": 0.7007874015748031,
                    "duration": 0.10166268750000285
                },
                {
                    "name": "B6",
                    "midi": 95,
                    "time": 38.49627100000003,
                    "velocity": 0.9212598425196851,
                    "duration": 0.27110050000000285
                },
                {
                    "name": "B5",
                    "midi": 83,
                    "time": 38.76737150000003,
                    "velocity": 0.7322834645669292,
                    "duration": 0.10166268750000285
                },
                {
                    "name": "G5",
                    "midi": 79,
                    "time": 40.66507500000004,
                    "velocity": 0.3543307086614173,
                    "duration": 0.27110050000000285
                },
                {
                    "name": "E5",
                    "midi": 76,
                    "time": 40.93617550000004,
                    "velocity": 0.23622047244094488,
                    "duration": 0.13555025000000143
                },
                {
                    "name": "G5",
                    "midi": 79,
                    "time": 41.20727600000004,
                    "velocity": 0.33858267716535434,
                    "duration": 0.27110050000000285
                },
                {
                    "name": "E5",
                    "midi": 76,
                    "time": 41.478376500000046,
                    "velocity": 0.2440944881889764,
                    "duration": 0.13555025000000143
                },
                {
                    "name": "G5",
                    "midi": 79,
                    "time": 41.74947700000005,
                    "velocity": 0.33070866141732286,
                    "duration": 0.27110050000000285
                },
                {
                    "name": "E5",
                    "midi": 76,
                    "time": 42.02057750000005,
                    "velocity": 0.2440944881889764,
                    "duration": 0.13555025000000143
                },
                {
                    "name": "G5",
                    "midi": 79,
                    "time": 42.291678000000054,
                    "velocity": 0.3228346456692913,
                    "duration": 0.27110050000000285
                },
                {
                    "name": "E5",
                    "midi": 76,
                    "time": 42.56277850000006,
                    "velocity": 0.2283464566929134,
                    "duration": 0.13555025000000143
                },
                {
                    "name": "G5",
                    "midi": 79,
                    "time": 42.83387900000006,
                    "velocity": 0.2992125984251969,
                    "duration": 0.27110050000000285
                },
                {
                    "name": "E5",
                    "midi": 76,
                    "time": 43.10497950000006,
                    "velocity": 0.2125984251968504,
                    "duration": 0.13555025000000143
                },
                {
                    "name": "G5",
                    "midi": 79,
                    "time": 43.376080000000066,
                    "velocity": 0.29133858267716534,
                    "duration": 0.27110050000000285
                },
                {
                    "name": "E5",
                    "midi": 76,
                    "time": 43.64718050000007,
                    "velocity": 0.2047244094488189,
                    "duration": 0.13555025000000143
                },
                {
                    "name": "G5",
                    "midi": 79,
                    "time": 43.91828100000007,
                    "velocity": 0.28346456692913385,
                    "duration": 0.27110050000000285
                },
                {
                    "name": "E5",
                    "midi": 76,
                    "time": 43.91828100000007,
                    "velocity": 0.28346456692913385,
                    "duration": 0.27110050000000285
                },
                {
                    "name": "G4",
                    "midi": 67,
                    "time": 44.189381500000074,
                    "velocity": 0.2125984251968504,
                    "duration": 0.13555025000000143
                },
                {
                    "name": "E5",
                    "midi": 76,
                    "time": 44.46048200000008,
                    "velocity": 0.28346456692913385,
                    "duration": 0.27110050000000285
                },
                {
                    "name": "G5",
                    "midi": 79,
                    "time": 44.46048200000008,
                    "velocity": 0.28346456692913385,
                    "duration": 0.27110050000000285
                },
                {
                    "name": "G4",
                    "midi": 67,
                    "time": 44.73158250000008,
                    "velocity": 0.2125984251968504,
                    "duration": 0.13555025000000143
                },
                {
                    "name": "E5",
                    "midi": 76,
                    "time": 45.00268300000008,
                    "velocity": 0.28346456692913385,
                    "duration": 0.27110050000000285
                },
                {
                    "name": "G5",
                    "midi": 79,
                    "time": 45.00268300000008,
                    "velocity": 0.28346456692913385,
                    "duration": 0.27110050000000285
                },
                {
                    "name": "G4",
                    "midi": 67,
                    "time": 45.273783500000086,
                    "velocity": 0.2125984251968504,
                    "duration": 0.13555025000000143
                },
                {
                    "name": "E5",
                    "midi": 76,
                    "time": 45.54488400000009,
                    "velocity": 0.2992125984251969,
                    "duration": 0.27110050000000285
                },
                {
                    "name": "G5",
                    "midi": 79,
                    "time": 45.54488400000009,
                    "velocity": 0.2992125984251969,
                    "duration": 0.27110050000000285
                },
                {
                    "name": "G4",
                    "midi": 67,
                    "time": 45.81598450000009,
                    "velocity": 0.2283464566929134,
                    "duration": 0.13555025000000143
                },
                {
                    "name": "E5",
                    "midi": 76,
                    "time": 46.087085000000094,
                    "velocity": 0.2992125984251969,
                    "duration": 0.27110050000000285
                },
                {
                    "name": "G5",
                    "midi": 79,
                    "time": 46.087085000000094,
                    "velocity": 0.2992125984251969,
                    "duration": 0.27110050000000285
                },
                {
                    "name": "G4",
                    "midi": 67,
                    "time": 46.3581855000001,
                    "velocity": 0.2125984251968504,
                    "duration": 0.13555025000000143
                },
                {
                    "name": "E5",
                    "midi": 76,
                    "time": 46.6292860000001,
                    "velocity": 0.2677165354330709,
                    "duration": 0.27110050000000285
                },
                {
                    "name": "G5",
                    "midi": 79,
                    "time": 46.6292860000001,
                    "velocity": 0.2677165354330709,
                    "duration": 0.27110050000000285
                },
                {
                    "name": "G4",
                    "midi": 67,
                    "time": 46.9003865000001,
                    "velocity": 0.2047244094488189,
                    "duration": 0.13555025000000143
                },
                {
                    "name": "G4",
                    "midi": 67,
                    "time": 47.171487000000106,
                    "velocity": 0.4015748031496063,
                    "duration": 0.47442587500000144
                },
                {
                    "name": "A4",
                    "midi": 69,
                    "time": 47.64591287500011,
                    "velocity": 0.3779527559055118,
                    "duration": 0.06777512499999716
                },
                {
                    "name": "G4",
                    "midi": 67,
                    "time": 47.713688000000104,
                    "velocity": 0.44881889763779526,
                    "duration": 0.18073366666666857
                },
                {
                    "name": "E4",
                    "midi": 64,
                    "time": 47.89442166666677,
                    "velocity": 0.41732283464566927,
                    "duration": 0.18073366666666857
                },
                {
                    "name": "C4",
                    "midi": 60,
                    "time": 48.07515533333344,
                    "velocity": 0.36220472440944884,
                    "duration": 0.18073366666666857
                },
                {
                    "name": "G4",
                    "midi": 67,
                    "time": 48.25588900000011,
                    "velocity": 0.44881889763779526,
                    "duration": 0.4066507499999972
                },
                {
                    "name": "E5",
                    "midi": 76,
                    "time": 48.66253975000011,
                    "velocity": 0.4094488188976378,
                    "duration": 0.13555025000000143
                },
                {
                    "name": "E5",
                    "midi": 76,
                    "time": 48.79809000000011,
                    "velocity": 0.44881889763779526,
                    "duration": 1.0844019999999972
                },
                {
                    "name": "C5",
                    "midi": 72,
                    "time": 49.882492000000106,
                    "velocity": 0.2755905511811024,
                    "duration": 0.27110050000000285
                },
                {
                    "name": "G5",
                    "midi": 79,
                    "time": 50.42469300000011,
                    "velocity": 0.5669291338582677,
                    "duration": 0.47442587500000144
                },
                {
                    "name": "F5",
                    "midi": 77,
                    "time": 50.89911887500011,
                    "velocity": 0.4409448818897638,
                    "duration": 0.06777512499999716
                },
                {
                    "name": "E5",
                    "midi": 76,
                    "time": 50.96689400000011,
                    "velocity": 0.5354330708661418,
                    "duration": 0.18073366666666857
                },
                {
                    "name": "C5",
                    "midi": 72,
                    "time": 51.14762766666678,
                    "velocity": 0.49606299212598426,
                    "duration": 0.18073366666666857
                },
                {
                    "name": "G4",
                    "midi": 67,
                    "time": 51.32836133333345,
                    "velocity": 0.4645669291338583,
                    "duration": 0.18073366666666857
                },
                {
                    "name": "C5",
                    "midi": 72,
                    "time": 51.509095000000116,
                    "velocity": 0.5433070866141733,
                    "duration": 0.18073366666666857
                },
                {
                    "name": "E5",
                    "midi": 76,
                    "time": 51.689828666666784,
                    "velocity": 0.5118110236220472,
                    "duration": 0.18073366666666857
                },
                {
                    "name": "G5",
                    "midi": 79,
                    "time": 51.87056233333345,
                    "velocity": 0.48031496062992124,
                    "duration": 0.18073366666666857
                },
                {
                    "name": "G4",
                    "midi": 67,
                    "time": 52.05129600000012,
                    "velocity": 0.5511811023622047,
                    "duration": 0.13555025000000143
                },
                {
                    "name": "E5",
                    "midi": 76,
                    "time": 52.05129600000012,
                    "velocity": 0.5511811023622047,
                    "duration": 0.13555025000000143
                },
                {
                    "name": "G5",
                    "midi": 79,
                    "time": 52.05129600000012,
                    "velocity": 0.5511811023622047,
                    "duration": 0.13555025000000143
                },
                {
                    "name": "G4",
                    "midi": 67,
                    "time": 52.322396500000124,
                    "velocity": 0.5196850393700787,
                    "duration": 0.13555025000000143
                },
                {
                    "name": "D5",
                    "midi": 74,
                    "time": 52.322396500000124,
                    "velocity": 0.5196850393700787,
                    "duration": 0.13555025000000143
                },
                {
                    "name": "F5",
                    "midi": 77,
                    "time": 52.322396500000124,
                    "velocity": 0.5196850393700787,
                    "duration": 0.13555025000000143
                },
                {
                    "name": "G4",
                    "midi": 67,
                    "time": 52.59349700000013,
                    "velocity": 0.5511811023622047,
                    "duration": 0.10166268750000285
                },
                {
                    "name": "C5",
                    "midi": 72,
                    "time": 52.59349700000013,
                    "velocity": 0.5511811023622047,
                    "duration": 0.10166268750000285
                },
                {
                    "name": "E5",
                    "midi": 76,
                    "time": 52.59349700000013,
                    "velocity": 0.5511811023622047,
                    "duration": 0.10166268750000285
                },
                {
                    "name": "G4",
                    "midi": 67,
                    "time": 52.86459750000013,
                    "velocity": 0.49606299212598426,
                    "duration": 0.10166268750000285
                },
                {
                    "name": "B4",
                    "midi": 71,
                    "time": 52.86459750000013,
                    "velocity": 0.49606299212598426,
                    "duration": 0.10166268750000285
                },
                {
                    "name": "D5",
                    "midi": 74,
                    "time": 52.86459750000013,
                    "velocity": 0.49606299212598426,
                    "duration": 0.10166268750000285
                },
                {
                    "name": "G4",
                    "midi": 67,
                    "time": 53.13569800000013,
                    "velocity": 0.5511811023622047,
                    "duration": 0.10166268750000285
                },
                {
                    "name": "C5",
                    "midi": 72,
                    "time": 53.13569800000013,
                    "velocity": 0.5511811023622047,
                    "duration": 0.10166268750000285
                },
                {
                    "name": "E5",
                    "midi": 76,
                    "time": 53.13569800000013,
                    "velocity": 0.5511811023622047,
                    "duration": 0.10166268750000285
                },
                {
                    "name": "G4",
                    "midi": 67,
                    "time": 53.67789900000014,
                    "velocity": 0.3543307086614173,
                    "duration": 0.27110050000000285
                },
                {
                    "name": "A4",
                    "midi": 69,
                    "time": 53.94899950000014,
                    "velocity": 0.3228346456692913,
                    "duration": 0.13555025000000143
                },
                {
                    "name": "B4",
                    "midi": 71,
                    "time": 54.08454975000014,
                    "velocity": 0.3228346456692913,
                    "duration": 0.13555025000000143
                },
                {
                    "name": "C5",
                    "midi": 72,
                    "time": 54.220100000000144,
                    "velocity": 0.3543307086614173,
                    "duration": 0.10166268750000285
                },
                {
                    "name": "G4",
                    "midi": 67,
                    "time": 54.49120050000015,
                    "velocity": 0.30708661417322836,
                    "duration": 0.10166268750000285
                },
                {
                    "name": "C5",
                    "midi": 72,
                    "time": 54.76230100000015,
                    "velocity": 0.3779527559055118,
                    "duration": 0.10166268750000285
                },
                {
                    "name": "A#4",
                    "midi": 70,
                    "time": 55.03340150000015,
                    "velocity": 0.5275590551181102,
                    "duration": 0.13555025000000143
                },
                {
                    "name": "A#5",
                    "midi": 82,
                    "time": 55.03340150000015,
                    "velocity": 0.5275590551181102,
                    "duration": 0.13555025000000143
                },
                {
                    "name": "A#4",
                    "midi": 70,
                    "time": 55.304502000000156,
                    "velocity": 0.5354330708661418,
                    "duration": 0.13555025000000143
                },
                {
                    "name": "A#5",
                    "midi": 82,
                    "time": 55.304502000000156,
                    "velocity": 0.5354330708661418,
                    "duration": 0.13555025000000143
                },
                {
                    "name": "D#6",
                    "midi": 87,
                    "time": 55.57560250000016,
                    "velocity": 0.5748031496062992,
                    "duration": 0.13555025000000143
                },
                {
                    "name": "D#5",
                    "midi": 75,
                    "time": 55.57560250000016,
                    "velocity": 0.5748031496062992,
                    "duration": 0.13555025000000143
                },
                {
                    "name": "D#6",
                    "midi": 87,
                    "time": 55.84670300000016,
                    "velocity": 0.6141732283464567,
                    "duration": 0.13555025000000143
                },
                {
                    "name": "D#5",
                    "midi": 75,
                    "time": 55.84670300000016,
                    "velocity": 0.6141732283464567,
                    "duration": 0.13555025000000143
                },
                {
                    "name": "D6",
                    "midi": 86,
                    "time": 56.117803500000164,
                    "velocity": 0.5826771653543307,
                    "duration": 0.13555025000000143
                },
                {
                    "name": "D5",
                    "midi": 74,
                    "time": 56.117803500000164,
                    "velocity": 0.5826771653543307,
                    "duration": 0.13555025000000143
                },
                {
                    "name": "D5",
                    "midi": 74,
                    "time": 56.38890400000017,
                    "velocity": 0.6377952755905512,
                    "duration": 0.13555025000000143
                },
                {
                    "name": "D6",
                    "midi": 86,
                    "time": 56.38890400000017,
                    "velocity": 0.6377952755905512,
                    "duration": 0.13555025000000143
                },
                {
                    "name": "G6",
                    "midi": 91,
                    "time": 56.66000450000017,
                    "velocity": 0.6220472440944882,
                    "duration": 0.13555025000000143
                },
                {
                    "name": "G5",
                    "midi": 79,
                    "time": 56.66000450000017,
                    "velocity": 0.6220472440944882,
                    "duration": 0.13555025000000143
                },
                {
                    "name": "G5",
                    "midi": 79,
                    "time": 56.93110500000017,
                    "velocity": 0.6535433070866141,
                    "duration": 0.13555025000000143
                },
                {
                    "name": "G6",
                    "midi": 91,
                    "time": 56.93110500000017,
                    "velocity": 0.6535433070866141,
                    "duration": 0.13555025000000143
                },
                {
                    "name": "F6",
                    "midi": 89,
                    "time": 57.202205500000176,
                    "velocity": 0.5511811023622047,
                    "duration": 0.13555025000000143
                },
                {
                    "name": "F5",
                    "midi": 77,
                    "time": 57.202205500000176,
                    "velocity": 0.5511811023622047,
                    "duration": 0.13555025000000143
                },
                {
                    "name": "F6",
                    "midi": 89,
                    "time": 57.47330600000018,
                    "velocity": 0.5196850393700787,
                    "duration": 0.8133015000000015
                },
                {
                    "name": "F5",
                    "midi": 77,
                    "time": 57.47330600000018,
                    "velocity": 0.5196850393700787,
                    "duration": 0.8133015000000015
                },
                {
                    "name": "B4",
                    "midi": 71,
                    "time": 58.28660750000018,
                    "velocity": 0.3937007874015748,
                    "duration": 0.27110050000000285
                },
                {
                    "name": "B5",
                    "midi": 83,
                    "time": 58.28660750000018,
                    "velocity": 0.3937007874015748,
                    "duration": 0.27110050000000285
                },
                {
                    "name": "C6",
                    "midi": 84,
                    "time": 58.55770800000018,
                    "velocity": 0.3543307086614173,
                    "duration": 1.626603000000003
                },
                {
                    "name": "C5",
                    "midi": 72,
                    "time": 58.55770800000018,
                    "velocity": 0.3543307086614173,
                    "duration": 1.626603000000003
                },
                {
                    "name": "E5",
                    "midi": 76,
                    "time": 60.184311000000186,
                    "velocity": 0.4251968503937008,
                    "duration": 0.47442587500000144
                },
                {
                    "name": "F5",
                    "midi": 77,
                    "time": 60.65873687500019,
                    "velocity": 0.3464566929133858,
                    "duration": 0.06777512499999716
                },
                {
                    "name": "E5",
                    "midi": 76,
                    "time": 60.726512000000184,
                    "velocity": 0.4251968503937008,
                    "duration": 0.18073366666666857
                },
                {
                    "name": "C5",
                    "midi": 72,
                    "time": 60.90724566666685,
                    "velocity": 0.3937007874015748,
                    "duration": 0.18073366666666857
                },
                {
                    "name": "A4",
                    "midi": 69,
                    "time": 61.08797933333352,
                    "velocity": 0.3700787401574803,
                    "duration": 0.1129585416666643
                },
                {
                    "name": "D5",
                    "midi": 74,
                    "time": 61.200937875000186,
                    "velocity": 0.3464566929133858,
                    "duration": 0.06777512499999716
                },
                {
                    "name": "C5",
                    "midi": 72,
                    "time": 61.26871300000018,
                    "velocity": 0.4251968503937008,
                    "duration": 0.18073366666666857
                },
                {
                    "name": "A4",
                    "midi": 69,
                    "time": 61.44944666666685,
                    "velocity": 0.4015748031496063,
                    "duration": 0.18073366666666857
                },
                {
                    "name": "E4",
                    "midi": 64,
                    "time": 61.63018033333352,
                    "velocity": 0.3700787401574803,
                    "duration": 0.18073366666666857
                },
                {
                    "name": "E4",
                    "midi": 64,
                    "time": 61.81091400000019,
                    "velocity": 0.3543307086614173,
                    "duration": 0.5422010000000057
                },
                {
                    "name": "A4",
                    "midi": 69,
                    "time": 61.81091400000019,
                    "velocity": 0.3543307086614173,
                    "duration": 0.27110050000000285
                },
                {
                    "name": "C5",
                    "midi": 72,
                    "time": 61.81091400000019,
                    "velocity": 0.4251968503937008,
                    "duration": 0.27110050000000285
                },
                {
                    "name": "G#4",
                    "midi": 68,
                    "time": 62.08201450000019,
                    "velocity": 0.33858267716535434,
                    "duration": 0.27110050000000285
                },
                {
                    "name": "B4",
                    "midi": 71,
                    "time": 62.08201450000019,
                    "velocity": 0.4015748031496063,
                    "duration": 0.27110050000000285
                },
                {
                    "name": "G#4",
                    "midi": 68,
                    "time": 62.353115000000194,
                    "velocity": 0.3543307086614173,
                    "duration": 0.27110050000000285
                },
                {
                    "name": "E4",
                    "midi": 64,
                    "time": 62.353115000000194,
                    "velocity": 0.3543307086614173,
                    "duration": 0.27110050000000285
                },
                {
                    "name": "B4",
                    "midi": 71,
                    "time": 62.353115000000194,
                    "velocity": 0.4251968503937008,
                    "duration": 0.27110050000000285
                },
                {
                    "name": "F#4",
                    "midi": 66,
                    "time": 62.6242155000002,
                    "velocity": 0.33858267716535434,
                    "duration": 0.27110050000000285
                },
                {
                    "name": "E4",
                    "midi": 64,
                    "time": 62.6242155000002,
                    "velocity": 0.33858267716535434,
                    "duration": 0.27110050000000285
                },
                {
                    "name": "A4",
                    "midi": 69,
                    "time": 62.6242155000002,
                    "velocity": 0.4015748031496063,
                    "duration": 0.27110050000000285
                },
                {
                    "name": "E4",
                    "midi": 64,
                    "time": 62.8953160000002,
                    "velocity": 0.3543307086614173,
                    "duration": 0.5422009999999986
                },
                {
                    "name": "G#4",
                    "midi": 68,
                    "time": 62.8953160000002,
                    "velocity": 0.3543307086614173,
                    "duration": 0.5422009999999986
                },
                {
                    "name": "B4",
                    "midi": 71,
                    "time": 62.8953160000002,
                    "velocity": 0.4251968503937008,
                    "duration": 0.5422009999999986
                },
                {
                    "name": "E4",
                    "midi": 64,
                    "time": 63.4375170000002,
                    "velocity": 0.3543307086614173,
                    "duration": 0.5422010000000057
                },
                {
                    "name": "G4",
                    "midi": 67,
                    "time": 63.4375170000002,
                    "velocity": 0.3543307086614173,
                    "duration": 0.5422010000000057
                },
                {
                    "name": "C5",
                    "midi": 72,
                    "time": 63.4375170000002,
                    "velocity": 0.4251968503937008,
                    "duration": 0.27110050000000285
                },
                {
                    "name": "B4",
                    "midi": 71,
                    "time": 63.7086175000002,
                    "velocity": 0.4015748031496063,
                    "duration": 0.27110050000000285
                },
                {
                    "name": "E4",
                    "midi": 64,
                    "time": 63.979718000000204,
                    "velocity": 0.3543307086614173,
                    "duration": 0.27110050000000285
                },
                {
                    "name": "G4",
                    "midi": 67,
                    "time": 63.979718000000204,
                    "velocity": 0.3543307086614173,
                    "duration": 0.27110050000000285
                },
                {
                    "name": "B4",
                    "midi": 71,
                    "time": 63.979718000000204,
                    "velocity": 0.4251968503937008,
                    "duration": 0.27110050000000285
                },
                {
                    "name": "E4",
                    "midi": 64,
                    "time": 64.25081850000021,
                    "velocity": 0.3464566929133858,
                    "duration": 0.27110050000000285
                },
                {
                    "name": "G4",
                    "midi": 67,
                    "time": 64.25081850000021,
                    "velocity": 0.3464566929133858,
                    "duration": 0.27110050000000285
                },
                {
                    "name": "C5",
                    "midi": 72,
                    "time": 64.25081850000021,
                    "velocity": 0.4094488188976378,
                    "duration": 0.27110050000000285
                },
                {
                    "name": "G4",
                    "midi": 67,
                    "time": 64.52191900000021,
                    "velocity": 0.3543307086614173,
                    "duration": 0.5422010000000057
                },
                {
                    "name": "B4",
                    "midi": 71,
                    "time": 64.52191900000021,
                    "velocity": 0.4251968503937008,
                    "duration": 0.27110050000000285
                },
                {
                    "name": "F5",
                    "midi": 77,
                    "time": 64.79301950000021,
                    "velocity": 0.41732283464566927,
                    "duration": 0.27110050000000285
                },
                {
                    "name": "E5",
                    "midi": 76,
                    "time": 65.06412000000022,
                    "velocity": 0.4251968503937008,
                    "duration": 0.47442587499999433
                },
                {
                    "name": "D5",
                    "midi": 74,
                    "time": 65.53854587500021,
                    "velocity": 0.33858267716535434,
                    "duration": 0.06777512499999716
                },
                {
                    "name": "C5",
                    "midi": 72,
                    "time": 65.60632100000021,
                    "velocity": 0.41732283464566927,
                    "duration": 0.18073366666666857
                },
                {
                    "name": "B4",
                    "midi": 71,
                    "time": 65.78705466666688,
                    "velocity": 0.4015748031496063,
                    "duration": 0.18073366666666857
                },
                {
                    "name": "A4",
                    "midi": 69,
                    "time": 65.96778833333354,
                    "velocity": 0.4094488188976378,
                    "duration": 0.18073366666666857
                },
                {
                    "name": "B4",
                    "midi": 71,
                    "time": 66.14852200000021,
                    "velocity": 0.4330708661417323,
                    "duration": 0.5422010000000057
                },
                {
                    "name": "B4",
                    "midi": 71,
                    "time": 66.69072300000022,
                    "velocity": 0.5354330708661418,
                    "duration": 0.47442587499999433
                },
                {
                    "name": "C5",
                    "midi": 72,
                    "time": 67.16514887500021,
                    "velocity": 0.4566929133858268,
                    "duration": 0.06777512499999716
                },
                {
                    "name": "B4",
                    "midi": 71,
                    "time": 67.23292400000021,
                    "velocity": 0.5354330708661418,
                    "duration": 0.18073366666666857
                },
                {
                    "name": "G4",
                    "midi": 67,
                    "time": 67.41365766666688,
                    "velocity": 0.5196850393700787,
                    "duration": 0.18073366666666857
                },
                {
                    "name": "E4",
                    "midi": 64,
                    "time": 67.59439133333355,
                    "velocity": 0.5039370078740157,
                    "duration": 0.13555024999999432
                },
                {
                    "name": "G5",
                    "midi": 79,
                    "time": 67.7751250000002,
                    "velocity": 0.6456692913385826,
                    "duration": 0.27110050000000285
                },
                {
                    "name": "E5",
                    "midi": 76,
                    "time": 68.0462255000002,
                    "velocity": 0.5669291338582677,
                    "duration": 0.10166268749999574
                },
                {
                    "name": "B4",
                    "midi": 71,
                    "time": 68.31732600000021,
                    "velocity": 0.5511811023622047,
                    "duration": 0.47442587499999433
                },
                {
                    "name": "C5",
                    "midi": 72,
                    "time": 68.7917518750002,
                    "velocity": 0.4409448818897638,
                    "duration": 0.06777512499999716
                },
                {
                    "name": "B4",
                    "midi": 71,
                    "time": 68.8595270000002,
                    "velocity": 0.5590551181102362,
                    "duration": 0.18073366666666857
                },
                {
                    "name": "G4",
                    "midi": 67,
                    "time": 69.04026066666687,
                    "velocity": 0.5433070866141733,
                    "duration": 0.18073366666666857
                },
                {
                    "name": "E4",
                    "midi": 64,
                    "time": 69.22099433333354,
                    "velocity": 0.5196850393700787,
                    "duration": 0.13555024999999432
                },
                {
                    "name": "G5",
                    "midi": 79,
                    "time": 69.40172800000019,
                    "velocity": 0.6692913385826772,
                    "duration": 0.27110050000000285
                },
                {
                    "name": "E5",
                    "midi": 76,
                    "time": 69.6728285000002,
                    "velocity": 0.5826771653543307,
                    "duration": 0.10166268749999574
                },
                {
                    "name": "B5",
                    "midi": 83,
                    "time": 69.9439290000002,
                    "velocity": 0.7086614173228346,
                    "duration": 0.27110050000000285
                },
                {
                    "name": "D#5",
                    "midi": 75,
                    "time": 69.9439290000002,
                    "velocity": 0.7086614173228346,
                    "duration": 0.27110050000000285
                },
                {
                    "name": "F#5",
                    "midi": 78,
                    "time": 69.9439290000002,
                    "velocity": 0.7086614173228346,
                    "duration": 0.27110050000000285
                },
                {
                    "name": "B4",
                    "midi": 71,
                    "time": 70.2150295000002,
                    "velocity": 0.6850393700787402,
                    "duration": 0.10166268749999574
                },
                {
                    "name": "A5",
                    "midi": 81,
                    "time": 70.41835487500019,
                    "velocity": 0.5590551181102362,
                    "duration": 0.06777512499999716
                },
                {
                    "name": "G5",
                    "midi": 79,
                    "time": 70.48613000000019,
                    "velocity": 0.6850393700787402,
                    "duration": 0.18073366666666857
                },
                {
                    "name": "F#5",
                    "midi": 78,
                    "time": 70.66686366666686,
                    "velocity": 0.6535433070866141,
                    "duration": 0.18073366666666857
                },
                {
                    "name": "E5",
                    "midi": 76,
                    "time": 70.84759733333352,
                    "velocity": 0.6141732283464567,
                    "duration": 0.18073366666666857
                },
                {
                    "name": "B5",
                    "midi": 83,
                    "time": 71.0283310000002,
                    "velocity": 0.7322834645669292,
                    "duration": 0.27110050000000285
                },
                {
                    "name": "D#5",
                    "midi": 75,
                    "time": 71.0283310000002,
                    "velocity": 0.7322834645669292,
                    "duration": 0.27110050000000285
                },
                {
                    "name": "F#5",
                    "midi": 78,
                    "time": 71.0283310000002,
                    "velocity": 0.7322834645669292,
                    "duration": 0.27110050000000285
                },
                {
                    "name": "B4",
                    "midi": 71,
                    "time": 71.2994315000002,
                    "velocity": 0.6771653543307087,
                    "duration": 0.10166268749999574
                },
                {
                    "name": "A5",
                    "midi": 81,
                    "time": 71.50275687500019,
                    "velocity": 0.5826771653543307,
                    "duration": 0.06777512499999716
                },
                {
                    "name": "G5",
                    "midi": 79,
                    "time": 71.57053200000018,
                    "velocity": 0.7007874015748031,
                    "duration": 0.18073366666666857
                },
                {
                    "name": "F#5",
                    "midi": 78,
                    "time": 71.75126566666685,
                    "velocity": 0.6692913385826772,
                    "duration": 0.18073366666666857
                },
                {
                    "name": "E5",
                    "midi": 76,
                    "time": 71.93199933333352,
                    "velocity": 0.6456692913385826,
                    "duration": 0.18073366666666857
                },
                {
                    "name": "B5",
                    "midi": 83,
                    "time": 72.11273300000019,
                    "velocity": 0.7480314960629921,
                    "duration": 0.27110050000000285
                },
                {
                    "name": "D#5",
                    "midi": 75,
                    "time": 72.11273300000019,
                    "velocity": 0.7480314960629921,
                    "duration": 0.27110050000000285
                },
                {
                    "name": "F#5",
                    "midi": 78,
                    "time": 72.11273300000019,
                    "velocity": 0.7480314960629921,
                    "duration": 0.27110050000000285
                },
                {
                    "name": "B4",
                    "midi": 71,
                    "time": 72.3838335000002,
                    "velocity": 0.7007874015748031,
                    "duration": 0.10166268749999574
                },
                {
                    "name": "B6",
                    "midi": 95,
                    "time": 72.6549340000002,
                    "velocity": 0.8976377952755905,
                    "duration": 0.27110050000000285
                },
                {
                    "name": "B5",
                    "midi": 83,
                    "time": 72.9260345000002,
                    "velocity": 0.7322834645669292,
                    "duration": 0.10166268749999574
                },
                {
                    "name": "G5",
                    "midi": 79,
                    "time": 74.82373800000019,
                    "velocity": 0.3543307086614173,
                    "duration": 0.27110050000000285
                },
                {
                    "name": "E5",
                    "midi": 76,
                    "time": 75.0948385000002,
                    "velocity": 0.23622047244094488,
                    "duration": 0.13555024999999432
                },
                {
                    "name": "G5",
                    "midi": 79,
                    "time": 75.36593900000018,
                    "velocity": 0.33858267716535434,
                    "duration": 0.27110050000000285
                },
                {
                    "name": "E5",
                    "midi": 76,
                    "time": 75.63703950000018,
                    "velocity": 0.2440944881889764,
                    "duration": 0.13555024999999432
                },
                {
                    "name": "G5",
                    "midi": 79,
                    "time": 75.90814000000017,
                    "velocity": 0.33070866141732286,
                    "duration": 0.27110050000000285
                },
                {
                    "name": "E5",
                    "midi": 76,
                    "time": 76.17924050000018,
                    "velocity": 0.2440944881889764,
                    "duration": 0.13555024999999432
                },
                {
                    "name": "G5",
                    "midi": 79,
                    "time": 76.45034100000017,
                    "velocity": 0.3228346456692913,
                    "duration": 0.27110050000000285
                },
                {
                    "name": "E5",
                    "midi": 76,
                    "time": 76.72144150000017,
                    "velocity": 0.2283464566929134,
                    "duration": 0.13555024999999432
                },
                {
                    "name": "G5",
                    "midi": 79,
                    "time": 76.99254200000016,
                    "velocity": 0.2992125984251969,
                    "duration": 0.27110050000000285
                },
                {
                    "name": "E5",
                    "midi": 76,
                    "time": 77.26364250000016,
                    "velocity": 0.2125984251968504,
                    "duration": 0.13555024999999432
                },
                {
                    "name": "G5",
                    "midi": 79,
                    "time": 77.53474300000015,
                    "velocity": 0.29133858267716534,
                    "duration": 0.27110050000000285
                },
                {
                    "name": "E5",
                    "midi": 76,
                    "time": 77.80584350000015,
                    "velocity": 0.2047244094488189,
                    "duration": 0.13555024999999432
                },
                {
                    "name": "G5",
                    "midi": 79,
                    "time": 78.07694400000014,
                    "velocity": 0.28346456692913385,
                    "duration": 0.27110050000000285
                },
                {
                    "name": "E5",
                    "midi": 76,
                    "time": 78.07694400000014,
                    "velocity": 0.28346456692913385,
                    "duration": 0.27110050000000285
                },
                {
                    "name": "G4",
                    "midi": 67,
                    "time": 78.34804450000014,
                    "velocity": 0.2125984251968504,
                    "duration": 0.13555024999999432
                },
                {
                    "name": "E5",
                    "midi": 76,
                    "time": 78.61914500000013,
                    "velocity": 0.28346456692913385,
                    "duration": 0.27110050000000285
                },
                {
                    "name": "G5",
                    "midi": 79,
                    "time": 78.61914500000013,
                    "velocity": 0.28346456692913385,
                    "duration": 0.27110050000000285
                },
                {
                    "name": "G4",
                    "midi": 67,
                    "time": 78.89024550000013,
                    "velocity": 0.2125984251968504,
                    "duration": 0.13555024999999432
                },
                {
                    "name": "E5",
                    "midi": 76,
                    "time": 79.16134600000012,
                    "velocity": 0.28346456692913385,
                    "duration": 0.27110050000000285
                },
                {
                    "name": "G5",
                    "midi": 79,
                    "time": 79.16134600000012,
                    "velocity": 0.28346456692913385,
                    "duration": 0.27110050000000285
                },
                {
                    "name": "G4",
                    "midi": 67,
                    "time": 79.43244650000013,
                    "velocity": 0.2125984251968504,
                    "duration": 0.13555024999999432
                },
                {
                    "name": "E5",
                    "midi": 76,
                    "time": 79.70354700000011,
                    "velocity": 0.2992125984251969,
                    "duration": 0.27110050000000285
                },
                {
                    "name": "G5",
                    "midi": 79,
                    "time": 79.70354700000011,
                    "velocity": 0.2992125984251969,
                    "duration": 0.27110050000000285
                },
                {
                    "name": "G4",
                    "midi": 67,
                    "time": 79.97464750000012,
                    "velocity": 0.2283464566929134,
                    "duration": 0.13555024999999432
                },
                {
                    "name": "E5",
                    "midi": 76,
                    "time": 80.2457480000001,
                    "velocity": 0.2992125984251969,
                    "duration": 0.27110050000000285
                },
                {
                    "name": "G5",
                    "midi": 79,
                    "time": 80.2457480000001,
                    "velocity": 0.2992125984251969,
                    "duration": 0.27110050000000285
                },
                {
                    "name": "G4",
                    "midi": 67,
                    "time": 80.51684850000011,
                    "velocity": 0.2125984251968504,
                    "duration": 0.13555024999999432
                },
                {
                    "name": "E5",
                    "midi": 76,
                    "time": 80.7879490000001,
                    "velocity": 0.2677165354330709,
                    "duration": 0.27110050000000285
                },
                {
                    "name": "G5",
                    "midi": 79,
                    "time": 80.7879490000001,
                    "velocity": 0.2677165354330709,
                    "duration": 0.27110050000000285
                },
                {
                    "name": "G4",
                    "midi": 67,
                    "time": 81.0590495000001,
                    "velocity": 0.2047244094488189,
                    "duration": 0.13555024999999432
                },
                {
                    "name": "G4",
                    "midi": 67,
                    "time": 81.33015000000009,
                    "velocity": 0.4015748031496063,
                    "duration": 0.47442587499999433
                },
                {
                    "name": "A4",
                    "midi": 69,
                    "time": 81.80457587500008,
                    "velocity": 0.3779527559055118,
                    "duration": 0.06777512499999716
                },
                {
                    "name": "G4",
                    "midi": 67,
                    "time": 81.87235100000008,
                    "velocity": 0.44881889763779526,
                    "duration": 0.18073366666666857
                },
                {
                    "name": "E4",
                    "midi": 64,
                    "time": 82.05308466666675,
                    "velocity": 0.41732283464566927,
                    "duration": 0.18073366666666857
                },
                {
                    "name": "C4",
                    "midi": 60,
                    "time": 82.23381833333342,
                    "velocity": 0.36220472440944884,
                    "duration": 0.18073366666666857
                },
                {
                    "name": "G4",
                    "midi": 67,
                    "time": 82.41455200000009,
                    "velocity": 0.44881889763779526,
                    "duration": 0.4066507499999972
                },
                {
                    "name": "E5",
                    "midi": 76,
                    "time": 82.82120275000008,
                    "velocity": 0.4094488188976378,
                    "duration": 0.13555024999999432
                },
                {
                    "name": "E5",
                    "midi": 76,
                    "time": 82.95675300000008,
                    "velocity": 0.44881889763779526,
                    "duration": 1.0844019999999972
                },
                {
                    "name": "C5",
                    "midi": 72,
                    "time": 84.04115500000007,
                    "velocity": 0.2755905511811024,
                    "duration": 0.27110050000000285
                },
                {
                    "name": "G5",
                    "midi": 79,
                    "time": 84.58335600000008,
                    "velocity": 0.5669291338582677,
                    "duration": 0.47442587499999433
                },
                {
                    "name": "F5",
                    "midi": 77,
                    "time": 85.05778187500007,
                    "velocity": 0.4409448818897638,
                    "duration": 0.06777512499999716
                },
                {
                    "name": "E5",
                    "midi": 76,
                    "time": 85.12555700000007,
                    "velocity": 0.5354330708661418,
                    "duration": 0.18073366666666857
                },
                {
                    "name": "C5",
                    "midi": 72,
                    "time": 85.30629066666674,
                    "velocity": 0.49606299212598426,
                    "duration": 0.18073366666666857
                },
                {
                    "name": "G4",
                    "midi": 67,
                    "time": 85.48702433333341,
                    "velocity": 0.4645669291338583,
                    "duration": 0.18073366666666857
                },
                {
                    "name": "C5",
                    "midi": 72,
                    "time": 85.66775800000008,
                    "velocity": 0.5433070866141733,
                    "duration": 0.18073366666666857
                },
                {
                    "name": "E5",
                    "midi": 76,
                    "time": 85.84849166666675,
                    "velocity": 0.5118110236220472,
                    "duration": 0.18073366666666857
                },
                {
                    "name": "G5",
                    "midi": 79,
                    "time": 86.02922533333341,
                    "velocity": 0.48031496062992124,
                    "duration": 0.18073366666666857
                },
                {
                    "name": "G4",
                    "midi": 67,
                    "time": 86.20995900000008,
                    "velocity": 0.5511811023622047,
                    "duration": 0.13555024999999432
                },
                {
                    "name": "E5",
                    "midi": 76,
                    "time": 86.20995900000008,
                    "velocity": 0.5511811023622047,
                    "duration": 0.13555024999999432
                },
                {
                    "name": "G5",
                    "midi": 79,
                    "time": 86.20995900000008,
                    "velocity": 0.5511811023622047,
                    "duration": 0.13555024999999432
                },
                {
                    "name": "G4",
                    "midi": 67,
                    "time": 86.48105950000007,
                    "velocity": 0.5196850393700787,
                    "duration": 0.13555024999999432
                },
                {
                    "name": "D5",
                    "midi": 74,
                    "time": 86.48105950000007,
                    "velocity": 0.5196850393700787,
                    "duration": 0.13555024999999432
                },
                {
                    "name": "F5",
                    "midi": 77,
                    "time": 86.48105950000007,
                    "velocity": 0.5196850393700787,
                    "duration": 0.13555024999999432
                },
                {
                    "name": "G4",
                    "midi": 67,
                    "time": 86.75216000000006,
                    "velocity": 0.5511811023622047,
                    "duration": 0.10166268749999574
                },
                {
                    "name": "C5",
                    "midi": 72,
                    "time": 86.75216000000006,
                    "velocity": 0.5511811023622047,
                    "duration": 0.10166268749999574
                },
                {
                    "name": "E5",
                    "midi": 76,
                    "time": 86.75216000000006,
                    "velocity": 0.5511811023622047,
                    "duration": 0.10166268749999574
                },
                {
                    "name": "G4",
                    "midi": 67,
                    "time": 87.02326050000005,
                    "velocity": 0.49606299212598426,
                    "duration": 0.10166268749999574
                },
                {
                    "name": "B4",
                    "midi": 71,
                    "time": 87.02326050000005,
                    "velocity": 0.49606299212598426,
                    "duration": 0.10166268749999574
                },
                {
                    "name": "D5",
                    "midi": 74,
                    "time": 87.02326050000005,
                    "velocity": 0.49606299212598426,
                    "duration": 0.10166268749999574
                },
                {
                    "name": "G4",
                    "midi": 67,
                    "time": 87.29436100000004,
                    "velocity": 0.5511811023622047,
                    "duration": 0.10166268749999574
                },
                {
                    "name": "C5",
                    "midi": 72,
                    "time": 87.29436100000004,
                    "velocity": 0.5511811023622047,
                    "duration": 0.10166268749999574
                },
                {
                    "name": "E5",
                    "midi": 76,
                    "time": 87.29436100000004,
                    "velocity": 0.5511811023622047,
                    "duration": 0.10166268749999574
                },
                {
                    "name": "G4",
                    "midi": 67,
                    "time": 87.83656200000003,
                    "velocity": 0.3543307086614173,
                    "duration": 0.27110050000000285
                },
                {
                    "name": "A4",
                    "midi": 69,
                    "time": 88.10766250000003,
                    "velocity": 0.3228346456692913,
                    "duration": 0.13555024999999432
                },
                {
                    "name": "B4",
                    "midi": 71,
                    "time": 88.24321275000003,
                    "velocity": 0.3228346456692913,
                    "duration": 0.13555024999999432
                },
                {
                    "name": "C5",
                    "midi": 72,
                    "time": 88.37876300000002,
                    "velocity": 0.3543307086614173,
                    "duration": 0.10166268749999574
                },
                {
                    "name": "G4",
                    "midi": 67,
                    "time": 88.64986350000001,
                    "velocity": 0.30708661417322836,
                    "duration": 0.10166268749999574
                },
                {
                    "name": "C5",
                    "midi": 72,
                    "time": 88.920964,
                    "velocity": 0.3779527559055118,
                    "duration": 0.10166268749999574
                },
                {
                    "name": "A#4",
                    "midi": 70,
                    "time": 89.19206449999999,
                    "velocity": 0.5039370078740157,
                    "duration": 0.13555024999999432
                },
                {
                    "name": "A#5",
                    "midi": 82,
                    "time": 89.19206449999999,
                    "velocity": 0.5039370078740157,
                    "duration": 0.13555024999999432
                },
                {
                    "name": "A#4",
                    "midi": 70,
                    "time": 89.46316499999998,
                    "velocity": 0.5196850393700787,
                    "duration": 0.13555024999999432
                },
                {
                    "name": "A#5",
                    "midi": 82,
                    "time": 89.46316499999998,
                    "velocity": 0.5196850393700787,
                    "duration": 0.13555024999999432
                },
                {
                    "name": "D#6",
                    "midi": 87,
                    "time": 89.73426549999996,
                    "velocity": 0.5590551181102362,
                    "duration": 0.13555024999999432
                },
                {
                    "name": "D#5",
                    "midi": 75,
                    "time": 89.73426549999996,
                    "velocity": 0.5590551181102362,
                    "duration": 0.13555024999999432
                },
                {
                    "name": "D#6",
                    "midi": 87,
                    "time": 90.00536599999995,
                    "velocity": 0.5826771653543307,
                    "duration": 0.13555024999999432
                },
                {
                    "name": "D#5",
                    "midi": 75,
                    "time": 90.00536599999995,
                    "velocity": 0.5826771653543307,
                    "duration": 0.13555024999999432
                },
                {
                    "name": "D6",
                    "midi": 86,
                    "time": 90.27646649999994,
                    "velocity": 0.5511811023622047,
                    "duration": 0.13555024999999432
                },
                {
                    "name": "D5",
                    "midi": 74,
                    "time": 90.27646649999994,
                    "velocity": 0.5511811023622047,
                    "duration": 0.13555024999999432
                },
                {
                    "name": "D5",
                    "midi": 74,
                    "time": 90.54756699999993,
                    "velocity": 0.6220472440944882,
                    "duration": 0.13555024999999432
                },
                {
                    "name": "D6",
                    "midi": 86,
                    "time": 90.54756699999993,
                    "velocity": 0.6220472440944882,
                    "duration": 0.13555024999999432
                },
                {
                    "name": "G6",
                    "midi": 91,
                    "time": 90.81866749999992,
                    "velocity": 0.6377952755905512,
                    "duration": 0.13555024999999432
                },
                {
                    "name": "G5",
                    "midi": 79,
                    "time": 90.81866749999992,
                    "velocity": 0.6377952755905512,
                    "duration": 0.13555024999999432
                },
                {
                    "name": "G5",
                    "midi": 79,
                    "time": 91.0897679999999,
                    "velocity": 0.6692913385826772,
                    "duration": 0.13555024999999432
                },
                {
                    "name": "G6",
                    "midi": 91,
                    "time": 91.0897679999999,
                    "velocity": 0.6692913385826772,
                    "duration": 0.13555024999999432
                },
                {
                    "name": "F6",
                    "midi": 89,
                    "time": 91.3608684999999,
                    "velocity": 0.5511811023622047,
                    "duration": 0.13555024999999432
                },
                {
                    "name": "F5",
                    "midi": 77,
                    "time": 91.3608684999999,
                    "velocity": 0.5511811023622047,
                    "duration": 0.13555024999999432
                },
                {
                    "name": "F6",
                    "midi": 89,
                    "time": 91.63196899999988,
                    "velocity": 0.5196850393700787,
                    "duration": 0.8133014999999943
                },
                {
                    "name": "F5",
                    "midi": 77,
                    "time": 91.63196899999988,
                    "velocity": 0.5196850393700787,
                    "duration": 0.8133014999999943
                },
                {
                    "name": "B4",
                    "midi": 71,
                    "time": 92.44527049999988,
                    "velocity": 0.3937007874015748,
                    "duration": 0.27110050000000285
                },
                {
                    "name": "B5",
                    "midi": 83,
                    "time": 92.44527049999988,
                    "velocity": 0.3937007874015748,
                    "duration": 0.27110050000000285
                },
                {
                    "name": "C6",
                    "midi": 84,
                    "time": 92.71637099999988,
                    "velocity": 0.3543307086614173,
                    "duration": 1.5927154375000043
                },
                {
                    "name": "C5",
                    "midi": 72,
                    "time": 92.71637099999988,
                    "velocity": 0.3543307086614173,
                    "duration": 1.5927154375000043
                },
                {
                    "name": "G4",
                    "midi": 67,
                    "time": 94.34297399999988,
                    "velocity": 0.3937007874015748,
                    "duration": 0.18073366666666857
                },
                {
                    "name": "D4",
                    "midi": 62,
                    "time": 94.52370766666655,
                    "velocity": 0.31496062992125984,
                    "duration": 0.18073366666666857
                },
                {
                    "name": "B3",
                    "midi": 59,
                    "time": 94.70444133333322,
                    "velocity": 0.2677165354330709,
                    "duration": 0.18073366666666857
                },
                {
                    "name": "G4",
                    "midi": 67,
                    "time": 94.88517499999989,
                    "velocity": 0.3700787401574803,
                    "duration": 0.18073366666666857
                },
                {
                    "name": "D4",
                    "midi": 62,
                    "time": 95.06590866666656,
                    "velocity": 0.29133858267716534,
                    "duration": 0.18073366666666857
                },
                {
                    "name": "B3",
                    "midi": 59,
                    "time": 95.24664233333323,
                    "velocity": 0.25196850393700787,
                    "duration": 0.18073366666666857
                },
                {
                    "name": "F#4",
                    "midi": 66,
                    "time": 95.4273759999999,
                    "velocity": 0.3700787401574803,
                    "duration": 0.18073366666666857
                },
                {
                    "name": "D4",
                    "midi": 62,
                    "time": 95.60810966666656,
                    "velocity": 0.2992125984251969,
                    "duration": 0.18073366666666857
                },
                {
                    "name": "A3",
                    "midi": 57,
                    "time": 95.78884333333323,
                    "velocity": 0.25984251968503935,
                    "duration": 0.18073366666666857
                },
                {
                    "name": "A4",
                    "midi": 69,
                    "time": 95.9695769999999,
                    "velocity": 0.3937007874015748,
                    "duration": 0.18073366666666857
                },
                {
                    "name": "D4",
                    "midi": 62,
                    "time": 96.15031066666657,
                    "velocity": 0.3228346456692913,
                    "duration": 0.18073366666666857
                },
                {
                    "name": "C4",
                    "midi": 60,
                    "time": 96.33104433333324,
                    "velocity": 0.25984251968503935,
                    "duration": 0.18073366666666857
                },
                {
                    "name": "A4",
                    "midi": 69,
                    "time": 96.51177799999991,
                    "velocity": 0.3779527559055118,
                    "duration": 0.18073366666666857
                },
                {
                    "name": "D4",
                    "midi": 62,
                    "time": 96.69251166666658,
                    "velocity": 0.2992125984251969,
                    "duration": 0.18073366666666857
                },
                {
                    "name": "C4",
                    "midi": 60,
                    "time": 96.87324533333324,
                    "velocity": 0.23622047244094488,
                    "duration": 0.18073366666666857
                },
                {
                    "name": "G4",
                    "midi": 67,
                    "time": 97.05397899999991,
                    "velocity": 0.3779527559055118,
                    "duration": 0.18073366666666857
                },
                {
                    "name": "D4",
                    "midi": 62,
                    "time": 97.23471266666658,
                    "velocity": 0.2992125984251969,
                    "duration": 0.18073366666666857
                },
                {
                    "name": "B3",
                    "midi": 59,
                    "time": 97.41544633333325,
                    "velocity": 0.2440944881889764,
                    "duration": 0.18073366666666857
                },
                {
                    "name": "G4",
                    "midi": 67,
                    "time": 97.59617999999992,
                    "velocity": 0.3700787401574803,
                    "duration": 0.18073366666666857
                },
                {
                    "name": "D4",
                    "midi": 62,
                    "time": 97.77691366666659,
                    "velocity": 0.2992125984251969,
                    "duration": 0.18073366666666857
                },
                {
                    "name": "B3",
                    "midi": 59,
                    "time": 97.95764733333326,
                    "velocity": 0.2440944881889764,
                    "duration": 0.18073366666666857
                },
                {
                    "name": "D4",
                    "midi": 62,
                    "time": 98.13838099999992,
                    "velocity": 0.3700787401574803,
                    "duration": 0.27110050000000285
                },
                {
                    "name": "F#4",
                    "midi": 66,
                    "time": 98.13838099999992,
                    "velocity": 0.3700787401574803,
                    "duration": 0.27110050000000285
                },
                {
                    "name": "A4",
                    "midi": 69,
                    "time": 98.13838099999992,
                    "velocity": 0.4409448818897638,
                    "duration": 0.27110050000000285
                },
                {
                    "name": "D4",
                    "midi": 62,
                    "time": 98.40948149999993,
                    "velocity": 0.4015748031496063,
                    "duration": 0.27110050000000285
                },
                {
                    "name": "G4",
                    "midi": 67,
                    "time": 98.40948149999993,
                    "velocity": 0.4015748031496063,
                    "duration": 0.27110050000000285
                },
                {
                    "name": "B4",
                    "midi": 71,
                    "time": 98.40948149999993,
                    "velocity": 0.48031496062992124,
                    "duration": 0.27110050000000285
                },
                {
                    "name": "D4",
                    "midi": 62,
                    "time": 98.68058199999993,
                    "velocity": 0.4330708661417323,
                    "duration": 0.4066507499999972
                },
                {
                    "name": "A4",
                    "midi": 69,
                    "time": 98.68058199999993,
                    "velocity": 0.4330708661417323,
                    "duration": 0.4066507499999972
                },
                {
                    "name": "C5",
                    "midi": 72,
                    "time": 98.68058199999993,
                    "velocity": 0.5039370078740157,
                    "duration": 0.4066507499999972
                },
                {
                    "name": "D4",
                    "midi": 62,
                    "time": 99.08723274999993,
                    "velocity": 0.3858267716535433,
                    "duration": 0.13555024999999432
                },
                {
                    "name": "G4",
                    "midi": 67,
                    "time": 99.08723274999993,
                    "velocity": 0.3858267716535433,
                    "duration": 0.13555024999999432
                },
                {
                    "name": "B4",
                    "midi": 71,
                    "time": 99.08723274999993,
                    "velocity": 0.4645669291338583,
                    "duration": 0.13555024999999432
                },
                {
                    "name": "D4",
                    "midi": 62,
                    "time": 99.22278299999992,
                    "velocity": 0.3543307086614173,
                    "duration": 0.5422010000000057
                },
                {
                    "name": "G4",
                    "midi": 67,
                    "time": 99.22278299999992,
                    "velocity": 0.3543307086614173,
                    "duration": 0.5422010000000057
                },
                {
                    "name": "B4",
                    "midi": 71,
                    "time": 99.22278299999992,
                    "velocity": 0.41732283464566927,
                    "duration": 0.5422010000000057
                },
                {
                    "name": "D4",
                    "midi": 62,
                    "time": 99.76498399999993,
                    "velocity": 0.2440944881889764,
                    "duration": 0.27110050000000285
                },
                {
                    "name": "F#4",
                    "midi": 66,
                    "time": 99.76498399999993,
                    "velocity": 0.2440944881889764,
                    "duration": 0.27110050000000285
                },
                {
                    "name": "A4",
                    "midi": 69,
                    "time": 99.76498399999993,
                    "velocity": 0.29133858267716534,
                    "duration": 0.27110050000000285
                },
                {
                    "name": "D4",
                    "midi": 62,
                    "time": 100.03608449999993,
                    "velocity": 0.2283464566929134,
                    "duration": 0.27110050000000285
                },
                {
                    "name": "E4",
                    "midi": 64,
                    "time": 100.03608449999993,
                    "velocity": 0.2283464566929134,
                    "duration": 0.27110050000000285
                },
                {
                    "name": "G4",
                    "midi": 67,
                    "time": 100.03608449999993,
                    "velocity": 0.2755905511811024,
                    "duration": 0.27110050000000285
                },
                {
                    "name": "D4",
                    "midi": 62,
                    "time": 100.30718499999993,
                    "velocity": 0.2440944881889764,
                    "duration": 0.5422010000000057
                },
                {
                    "name": "F#4",
                    "midi": 66,
                    "time": 100.30718499999993,
                    "velocity": 0.2440944881889764,
                    "duration": 0.5422010000000057
                },
                {
                    "name": "A4",
                    "midi": 69,
                    "time": 100.30718499999993,
                    "velocity": 0.29133858267716534,
                    "duration": 0.5422010000000057
                },
                {
                    "name": "D5",
                    "midi": 74,
                    "time": 100.84938599999994,
                    "velocity": 0.41732283464566927,
                    "duration": 1.6266030000000171
                },
                {
                    "name": "G4",
                    "midi": 67,
                    "time": 100.84938599999994,
                    "velocity": 0.3937007874015748,
                    "duration": 0.18073366666666857
                },
                {
                    "name": "D4",
                    "midi": 62,
                    "time": 101.03011966666661,
                    "velocity": 0.31496062992125984,
                    "duration": 0.18073366666666857
                },
                {
                    "name": "B4",
                    "midi": 71,
                    "time": 101.21085333333328,
                    "velocity": 0.2677165354330709,
                    "duration": 0.18073366666666857
                },
                {
                    "name": "G4",
                    "midi": 67,
                    "time": 101.39158699999994,
                    "velocity": 0.3700787401574803,
                    "duration": 0.18073366666666857
                },
                {
                    "name": "D4",
                    "midi": 62,
                    "time": 101.57232066666661,
                    "velocity": 0.29133858267716534,
                    "duration": 0.18073366666666857
                },
                {
                    "name": "B4",
                    "midi": 71,
                    "time": 101.75305433333328,
                    "velocity": 0.25196850393700787,
                    "duration": 0.18073366666666857
                },
                {
                    "name": "F#4",
                    "midi": 66,
                    "time": 101.93378799999995,
                    "velocity": 0.3700787401574803,
                    "duration": 0.18073366666666857
                },
                {
                    "name": "D4",
                    "midi": 62,
                    "time": 102.11452166666662,
                    "velocity": 0.2992125984251969,
                    "duration": 0.18073366666666857
                },
                {
                    "name": "A4",
                    "midi": 69,
                    "time": 102.29525533333329,
                    "velocity": 0.25984251968503935,
                    "duration": 0.18073366666666857
                },
                {
                    "name": "D5",
                    "midi": 74,
                    "time": 102.47598899999996,
                    "velocity": 0.41732283464566927,
                    "duration": 1.6266030000000171
                },
                {
                    "name": "A4",
                    "midi": 69,
                    "time": 102.47598899999996,
                    "velocity": 0.3937007874015748,
                    "duration": 0.18073366666666857
                },
                {
                    "name": "D4",
                    "midi": 62,
                    "time": 102.65672266666662,
                    "velocity": 0.3228346456692913,
                    "duration": 0.18073366666666857
                },
                {
                    "name": "C5",
                    "midi": 72,
                    "time": 102.8374563333333,
                    "velocity": 0.25984251968503935,
                    "duration": 0.18073366666666857
                },
                {
                    "name": "A4",
                    "midi": 69,
                    "time": 103.01818999999996,
                    "velocity": 0.3779527559055118,
                    "duration": 0.18073366666666857
                },
                {
                    "name": "D4",
                    "midi": 62,
                    "time": 103.19892366666663,
                    "velocity": 0.2992125984251969,
                    "duration": 0.18073366666666857
                },
                {
                    "name": "C5",
                    "midi": 72,
                    "time": 103.3796573333333,
                    "velocity": 0.23622047244094488,
                    "duration": 0.18073366666666857
                },
                {
                    "name": "G4",
                    "midi": 67,
                    "time": 103.56039099999997,
                    "velocity": 0.3779527559055118,
                    "duration": 0.18073366666666857
                },
                {
                    "name": "D4",
                    "midi": 62,
                    "time": 103.74112466666664,
                    "velocity": 0.2992125984251969,
                    "duration": 0.18073366666666857
                },
                {
                    "name": "B4",
                    "midi": 71,
                    "time": 103.9218583333333,
                    "velocity": 0.2440944881889764,
                    "duration": 0.18073366666666857
                },
                {
                    "name": "D4",
                    "midi": 62,
                    "time": 104.10259199999997,
                    "velocity": 0.5511811023622047,
                    "duration": 0.27110050000000285
                },
                {
                    "name": "D5",
                    "midi": 74,
                    "time": 104.37369249999998,
                    "velocity": 0.5354330708661418,
                    "duration": 0.27110050000000285
                },
                {
                    "name": "E4",
                    "midi": 64,
                    "time": 104.64479299999998,
                    "velocity": 0.4409448818897638,
                    "duration": 0.27110050000000285
                },
                {
                    "name": "E5",
                    "midi": 76,
                    "time": 104.64479299999998,
                    "velocity": 0.5196850393700787,
                    "duration": 0.27110050000000285
                },
                {
                    "name": "F#4",
                    "midi": 66,
                    "time": 104.91589349999998,
                    "velocity": 0.48031496062992124,
                    "duration": 0.27110050000000285
                },
                {
                    "name": "F#5",
                    "midi": 78,
                    "time": 104.91589349999998,
                    "velocity": 0.5669291338582677,
                    "duration": 0.27110050000000285
                },
                {
                    "name": "G4",
                    "midi": 67,
                    "time": 105.18699399999998,
                    "velocity": 0.5433070866141733,
                    "duration": 0.4066507499999972
                },
                {
                    "name": "G5",
                    "midi": 79,
                    "time": 105.18699399999998,
                    "velocity": 0.6456692913385826,
                    "duration": 0.4066507499999972
                },
                {
                    "name": "D4",
                    "midi": 62,
                    "time": 105.59364474999998,
                    "velocity": 0.36220472440944884,
                    "duration": 0.13555024999999432
                },
                {
                    "name": "G4",
                    "midi": 67,
                    "time": 105.59364474999998,
                    "velocity": 0.36220472440944884,
                    "duration": 0.13555024999999432
                },
                {
                    "name": "B4",
                    "midi": 71,
                    "time": 105.59364474999998,
                    "velocity": 0.4330708661417323,
                    "duration": 0.13555024999999432
                },
                {
                    "name": "D4",
                    "midi": 62,
                    "time": 105.72919499999998,
                    "velocity": 0.4015748031496063,
                    "duration": 0.5422010000000057
                },
                {
                    "name": "B4",
                    "midi": 71,
                    "time": 105.72919499999998,
                    "velocity": 0.4015748031496063,
                    "duration": 0.5422010000000057
                },
                {
                    "name": "D5",
                    "midi": 74,
                    "time": 105.72919499999998,
                    "velocity": 0.48031496062992124,
                    "duration": 0.5422010000000057
                },
                {
                    "name": "D4",
                    "midi": 62,
                    "time": 106.27139599999998,
                    "velocity": 0.33070866141732286,
                    "duration": 0.4066507499999972
                },
                {
                    "name": "F#4",
                    "midi": 66,
                    "time": 106.27139599999998,
                    "velocity": 0.33070866141732286,
                    "duration": 0.4066507499999972
                },
                {
                    "name": "C5",
                    "midi": 72,
                    "time": 106.27139599999998,
                    "velocity": 0.3937007874015748,
                    "duration": 0.4066507499999972
                },
                {
                    "name": "D4",
                    "midi": 62,
                    "time": 106.67804674999998,
                    "velocity": 0.29133858267716534,
                    "duration": 0.13555024999999432
                },
                {
                    "name": "G4",
                    "midi": 67,
                    "time": 106.67804674999998,
                    "velocity": 0.29133858267716534,
                    "duration": 0.13555024999999432
                },
                {
                    "name": "B4",
                    "midi": 71,
                    "time": 106.67804674999998,
                    "velocity": 0.3464566929133858,
                    "duration": 0.13555024999999432
                },
                {
                    "name": "D4",
                    "midi": 62,
                    "time": 106.81359699999997,
                    "velocity": 0.2677165354330709,
                    "duration": 0.5422010000000057
                },
                {
                    "name": "G4",
                    "midi": 67,
                    "time": 106.81359699999997,
                    "velocity": 0.2677165354330709,
                    "duration": 0.5422010000000057
                },
                {
                    "name": "B4",
                    "midi": 71,
                    "time": 106.81359699999997,
                    "velocity": 0.3228346456692913,
                    "duration": 0.5422010000000057
                },
                {
                    "name": "G4",
                    "midi": 67,
                    "time": 107.35579799999998,
                    "velocity": 0.3937007874015748,
                    "duration": 0.18073366666666857
                },
                {
                    "name": "D4",
                    "midi": 62,
                    "time": 107.53653166666665,
                    "velocity": 0.31496062992125984,
                    "duration": 0.18073366666666857
                },
                {
                    "name": "B3",
                    "midi": 59,
                    "time": 107.71726533333332,
                    "velocity": 0.2677165354330709,
                    "duration": 0.18073366666666857
                },
                {
                    "name": "G4",
                    "midi": 67,
                    "time": 107.89799899999998,
                    "velocity": 0.3700787401574803,
                    "duration": 0.18073366666666857
                },
                {
                    "name": "D4",
                    "midi": 62,
                    "time": 108.07873266666665,
                    "velocity": 0.29133858267716534,
                    "duration": 0.18073366666666857
                },
                {
                    "name": "B3",
                    "midi": 59,
                    "time": 108.25946633333332,
                    "velocity": 0.25196850393700787,
                    "duration": 0.18073366666666857
                },
                {
                    "name": "F#4",
                    "midi": 66,
                    "time": 108.44019999999999,
                    "velocity": 0.3700787401574803,
                    "duration": 0.18073366666666857
                },
                {
                    "name": "D4",
                    "midi": 62,
                    "time": 108.62093366666666,
                    "velocity": 0.2992125984251969,
                    "duration": 0.18073366666666857
                },
                {
                    "name": "A3",
                    "midi": 57,
                    "time": 108.80166733333333,
                    "velocity": 0.25984251968503935,
                    "duration": 0.18073366666666857
                },
                {
                    "name": "A4",
                    "midi": 69,
                    "time": 108.982401,
                    "velocity": 0.3937007874015748,
                    "duration": 0.18073366666666857
                },
                {
                    "name": "D4",
                    "midi": 62,
                    "time": 109.16313466666666,
                    "velocity": 0.3228346456692913,
                    "duration": 0.18073366666666857
                },
                {
                    "name": "C4",
                    "midi": 60,
                    "time": 109.34386833333333,
                    "velocity": 0.25984251968503935,
                    "duration": 0.18073366666666857
                },
                {
                    "name": "A4",
                    "midi": 69,
                    "time": 109.524602,
                    "velocity": 0.3779527559055118,
                    "duration": 0.18073366666666857
                },
                {
                    "name": "D4",
                    "midi": 62,
                    "time": 109.70533566666667,
                    "velocity": 0.2992125984251969,
                    "duration": 0.18073366666666857
                },
                {
                    "name": "C4",
                    "midi": 60,
                    "time": 109.88606933333334,
                    "velocity": 0.23622047244094488,
                    "duration": 0.18073366666666857
                },
                {
                    "name": "G4",
                    "midi": 67,
                    "time": 110.06680300000001,
                    "velocity": 0.3779527559055118,
                    "duration": 0.18073366666666857
                },
                {
                    "name": "D4",
                    "midi": 62,
                    "time": 110.24753666666668,
                    "velocity": 0.2992125984251969,
                    "duration": 0.18073366666666857
                },
                {
                    "name": "B3",
                    "midi": 59,
                    "time": 110.42827033333334,
                    "velocity": 0.2440944881889764,
                    "duration": 0.18073366666666857
                },
                {
                    "name": "G4",
                    "midi": 67,
                    "time": 110.60900400000001,
                    "velocity": 0.3700787401574803,
                    "duration": 0.18073366666666857
                },
                {
                    "name": "D4",
                    "midi": 62,
                    "time": 110.78973766666668,
                    "velocity": 0.2992125984251969,
                    "duration": 0.18073366666666857
                },
                {
                    "name": "B3",
                    "midi": 59,
                    "time": 110.97047133333335,
                    "velocity": 0.2440944881889764,
                    "duration": 0.18073366666666857
                },
                {
                    "name": "D4",
                    "midi": 62,
                    "time": 111.15120500000002,
                    "velocity": 0.3858267716535433,
                    "duration": 0.27110050000000285
                },
                {
                    "name": "F#4",
                    "midi": 66,
                    "time": 111.15120500000002,
                    "velocity": 0.3858267716535433,
                    "duration": 0.27110050000000285
                },
                {
                    "name": "A4",
                    "midi": 69,
                    "time": 111.15120500000002,
                    "velocity": 0.4645669291338583,
                    "duration": 0.27110050000000285
                },
                {
                    "name": "D4",
                    "midi": 62,
                    "time": 111.42230550000002,
                    "velocity": 0.4015748031496063,
                    "duration": 0.27110050000000285
                },
                {
                    "name": "G4",
                    "midi": 67,
                    "time": 111.42230550000002,
                    "velocity": 0.4015748031496063,
                    "duration": 0.27110050000000285
                },
                {
                    "name": "B4",
                    "midi": 71,
                    "time": 111.42230550000002,
                    "velocity": 0.48031496062992124,
                    "duration": 0.27110050000000285
                },
                {
                    "name": "D4",
                    "midi": 62,
                    "time": 111.69340600000002,
                    "velocity": 0.41732283464566927,
                    "duration": 0.4066507499999972
                },
                {
                    "name": "A4",
                    "midi": 69,
                    "time": 111.69340600000002,
                    "velocity": 0.41732283464566927,
                    "duration": 0.4066507499999972
                },
                {
                    "name": "C5",
                    "midi": 72,
                    "time": 111.69340600000002,
                    "velocity": 0.49606299212598426,
                    "duration": 0.4066507499999972
                },
                {
                    "name": "D4",
                    "midi": 62,
                    "time": 112.10005675000002,
                    "velocity": 0.3858267716535433,
                    "duration": 0.13555024999999432
                },
                {
                    "name": "G4",
                    "midi": 67,
                    "time": 112.10005675000002,
                    "velocity": 0.3858267716535433,
                    "duration": 0.13555024999999432
                },
                {
                    "name": "B4",
                    "midi": 71,
                    "time": 112.10005675000002,
                    "velocity": 0.4645669291338583,
                    "duration": 0.13555024999999432
                },
                {
                    "name": "D4",
                    "midi": 62,
                    "time": 112.23560700000002,
                    "velocity": 0.3543307086614173,
                    "duration": 0.5422010000000057
                },
                {
                    "name": "G4",
                    "midi": 67,
                    "time": 112.23560700000002,
                    "velocity": 0.3543307086614173,
                    "duration": 0.5422010000000057
                },
                {
                    "name": "B4",
                    "midi": 71,
                    "time": 112.23560700000002,
                    "velocity": 0.41732283464566927,
                    "duration": 0.5422010000000057
                },
                {
                    "name": "D4",
                    "midi": 62,
                    "time": 112.77780800000002,
                    "velocity": 0.2440944881889764,
                    "duration": 0.27110050000000285
                },
                {
                    "name": "F#4",
                    "midi": 66,
                    "time": 112.77780800000002,
                    "velocity": 0.2440944881889764,
                    "duration": 0.27110050000000285
                },
                {
                    "name": "A4",
                    "midi": 69,
                    "time": 112.77780800000002,
                    "velocity": 0.29133858267716534,
                    "duration": 0.27110050000000285
                },
                {
                    "name": "D4",
                    "midi": 62,
                    "time": 113.04890850000002,
                    "velocity": 0.2283464566929134,
                    "duration": 0.27110050000000285
                },
                {
                    "name": "E4",
                    "midi": 64,
                    "time": 113.04890850000002,
                    "velocity": 0.2283464566929134,
                    "duration": 0.27110050000000285
                },
                {
                    "name": "G4",
                    "midi": 67,
                    "time": 113.04890850000002,
                    "velocity": 0.2283464566929134,
                    "duration": 0.27110050000000285
                },
                {
                    "name": "D4",
                    "midi": 62,
                    "time": 113.32000900000003,
                    "velocity": 0.2440944881889764,
                    "duration": 0.5422010000000057
                },
                {
                    "name": "F#4",
                    "midi": 66,
                    "time": 113.32000900000003,
                    "velocity": 0.2440944881889764,
                    "duration": 0.5422010000000057
                },
                {
                    "name": "A4",
                    "midi": 69,
                    "time": 113.32000900000003,
                    "velocity": 0.29133858267716534,
                    "duration": 0.5422010000000057
                },
                {
                    "name": "D5",
                    "midi": 74,
                    "time": 113.86221000000003,
                    "velocity": 0.41732283464566927,
                    "duration": 1.6266030000000171
                },
                {
                    "name": "G4",
                    "midi": 67,
                    "time": 113.86221000000003,
                    "velocity": 0.3937007874015748,
                    "duration": 0.18073366666666857
                },
                {
                    "name": "D4",
                    "midi": 62,
                    "time": 114.0429436666667,
                    "velocity": 0.31496062992125984,
                    "duration": 0.18073366666666857
                },
                {
                    "name": "B4",
                    "midi": 71,
                    "time": 114.22367733333337,
                    "velocity": 0.2677165354330709,
                    "duration": 0.18073366666666857
                },
                {
                    "name": "G4",
                    "midi": 67,
                    "time": 114.40441100000004,
                    "velocity": 0.3700787401574803,
                    "duration": 0.18073366666666857
                },
                {
                    "name": "D4",
                    "midi": 62,
                    "time": 114.58514466666671,
                    "velocity": 0.29133858267716534,
                    "duration": 0.18073366666666857
                },
                {
                    "name": "B4",
                    "midi": 71,
                    "time": 114.76587833333338,
                    "velocity": 0.25196850393700787,
                    "duration": 0.18073366666666857
                },
                {
                    "name": "F#4",
                    "midi": 66,
                    "time": 114.94661200000004,
                    "velocity": 0.3700787401574803,
                    "duration": 0.18073366666666857
                },
                {
                    "name": "D4",
                    "midi": 62,
                    "time": 115.12734566666671,
                    "velocity": 0.2992125984251969,
                    "duration": 0.18073366666666857
                },
                {
                    "name": "A4",
                    "midi": 69,
                    "time": 115.30807933333338,
                    "velocity": 0.25984251968503935,
                    "duration": 0.18073366666666857
                },
                {
                    "name": "D5",
                    "midi": 74,
                    "time": 115.48881300000005,
                    "velocity": 0.41732283464566927,
                    "duration": 1.6266030000000171
                },
                {
                    "name": "A4",
                    "midi": 69,
                    "time": 115.48881300000005,
                    "velocity": 0.3937007874015748,
                    "duration": 0.18073366666666857
                },
                {
                    "name": "D4",
                    "midi": 62,
                    "time": 115.66954666666672,
                    "velocity": 0.3228346456692913,
                    "duration": 0.18073366666666857
                },
                {
                    "name": "C5",
                    "midi": 72,
                    "time": 115.85028033333339,
                    "velocity": 0.25984251968503935,
                    "duration": 0.18073366666666857
                },
                {
                    "name": "A4",
                    "midi": 69,
                    "time": 116.03101400000006,
                    "velocity": 0.3779527559055118,
                    "duration": 0.18073366666666857
                },
                {
                    "name": "D4",
                    "midi": 62,
                    "time": 116.21174766666672,
                    "velocity": 0.2992125984251969,
                    "duration": 0.18073366666666857
                },
                {
                    "name": "C5",
                    "midi": 72,
                    "time": 116.3924813333334,
                    "velocity": 0.23622047244094488,
                    "duration": 0.18073366666666857
                },
                {
                    "name": "G4",
                    "midi": 67,
                    "time": 116.57321500000006,
                    "velocity": 0.3779527559055118,
                    "duration": 0.18073366666666857
                },
                {
                    "name": "D4",
                    "midi": 62,
                    "time": 116.75394866666673,
                    "velocity": 0.2992125984251969,
                    "duration": 0.18073366666666857
                },
                {
                    "name": "B4",
                    "midi": 71,
                    "time": 116.9346823333334,
                    "velocity": 0.2440944881889764,
                    "duration": 0.18073366666666857
                },
                {
                    "name": "D4",
                    "midi": 62,
                    "time": 117.11541600000007,
                    "velocity": 0.5511811023622047,
                    "duration": 0.27110050000000285
                },
                {
                    "name": "D5",
                    "midi": 74,
                    "time": 117.38651650000007,
                    "velocity": 0.5354330708661418,
                    "duration": 0.27110050000000285
                },
                {
                    "name": "E4",
                    "midi": 64,
                    "time": 117.65761700000007,
                    "velocity": 0.4409448818897638,
                    "duration": 0.27110050000000285
                },
                {
                    "name": "E5",
                    "midi": 76,
                    "time": 117.65761700000007,
                    "velocity": 0.5196850393700787,
                    "duration": 0.27110050000000285
                },
                {
                    "name": "F#4",
                    "midi": 66,
                    "time": 117.92871750000008,
                    "velocity": 0.48031496062992124,
                    "duration": 0.27110050000000285
                },
                {
                    "name": "F#5",
                    "midi": 78,
                    "time": 117.92871750000008,
                    "velocity": 0.5669291338582677,
                    "duration": 0.27110050000000285
                },
                {
                    "name": "G4",
                    "midi": 67,
                    "time": 118.19981800000008,
                    "velocity": 0.5354330708661418,
                    "duration": 0.4066507499999972
                },
                {
                    "name": "G5",
                    "midi": 79,
                    "time": 118.19981800000008,
                    "velocity": 0.6377952755905512,
                    "duration": 0.4066507499999972
                },
                {
                    "name": "D4",
                    "midi": 62,
                    "time": 118.60646875000008,
                    "velocity": 0.36220472440944884,
                    "duration": 0.13555024999999432
                },
                {
                    "name": "G4",
                    "midi": 67,
                    "time": 118.60646875000008,
                    "velocity": 0.36220472440944884,
                    "duration": 0.13555024999999432
                },
                {
                    "name": "B4",
                    "midi": 71,
                    "time": 118.60646875000008,
                    "velocity": 0.4330708661417323,
                    "duration": 0.13555024999999432
                },
                {
                    "name": "D4",
                    "midi": 62,
                    "time": 118.74201900000007,
                    "velocity": 0.4015748031496063,
                    "duration": 0.5422010000000057
                },
                {
                    "name": "B4",
                    "midi": 71,
                    "time": 118.74201900000007,
                    "velocity": 0.4015748031496063,
                    "duration": 0.5422010000000057
                },
                {
                    "name": "D5",
                    "midi": 74,
                    "time": 118.74201900000007,
                    "velocity": 0.48031496062992124,
                    "duration": 0.5422010000000057
                },
                {
                    "name": "D4",
                    "midi": 62,
                    "time": 119.28422000000008,
                    "velocity": 0.33070866141732286,
                    "duration": 0.4066507499999972
                },
                {
                    "name": "F#4",
                    "midi": 66,
                    "time": 119.28422000000008,
                    "velocity": 0.33070866141732286,
                    "duration": 0.4066507499999972
                },
                {
                    "name": "C5",
                    "midi": 72,
                    "time": 119.28422000000008,
                    "velocity": 0.3937007874015748,
                    "duration": 0.4066507499999972
                },
                {
                    "name": "D4",
                    "midi": 62,
                    "time": 119.69087075000007,
                    "velocity": 0.29133858267716534,
                    "duration": 0.13555024999999432
                },
                {
                    "name": "G4",
                    "midi": 67,
                    "time": 119.69087075000007,
                    "velocity": 0.29133858267716534,
                    "duration": 0.13555024999999432
                },
                {
                    "name": "B4",
                    "midi": 71,
                    "time": 119.69087075000007,
                    "velocity": 0.3464566929133858,
                    "duration": 0.13555024999999432
                },
                {
                    "name": "D4",
                    "midi": 62,
                    "time": 119.82642100000007,
                    "velocity": 0.2677165354330709,
                    "duration": 0.53090514583333
                },
                {
                    "name": "G4",
                    "midi": 67,
                    "time": 119.82642100000007,
                    "velocity": 0.2677165354330709,
                    "duration": 0.53090514583333
                },
                {
                    "name": "B4",
                    "midi": 71,
                    "time": 119.82642100000007,
                    "velocity": 0.3228346456692913,
                    "duration": 0.53090514583333
                },
                {
                    "name": "A3",
                    "midi": 57,
                    "time": 120.36862200000006,
                    "velocity": 0.29133858267716534,
                    "duration": 0.5422010000000057
                },
                {
                    "name": "F#4",
                    "midi": 66,
                    "time": 120.36862200000006,
                    "velocity": 0.29133858267716534,
                    "duration": 0.5422010000000057
                },
                {
                    "name": "A4",
                    "midi": 69,
                    "time": 120.36862200000006,
                    "velocity": 0.3464566929133858,
                    "duration": 0.5422010000000057
                },
                {
                    "name": "A3",
                    "midi": 57,
                    "time": 120.91082300000006,
                    "velocity": 0.25196850393700787,
                    "duration": 0.4066507499999972
                },
                {
                    "name": "E4",
                    "midi": 64,
                    "time": 120.91082300000006,
                    "velocity": 0.25196850393700787,
                    "duration": 0.4066507499999972
                },
                {
                    "name": "G4",
                    "midi": 67,
                    "time": 120.91082300000006,
                    "velocity": 0.2992125984251969,
                    "duration": 0.4066507499999972
                },
                {
                    "name": "A3",
                    "midi": 57,
                    "time": 121.31747375000006,
                    "velocity": 0.23622047244094488,
                    "duration": 0.13555024999999432
                },
                {
                    "name": "D4",
                    "midi": 62,
                    "time": 121.31747375000006,
                    "velocity": 0.23622047244094488,
                    "duration": 0.13555024999999432
                },
                {
                    "name": "F#4",
                    "midi": 66,
                    "time": 121.31747375000006,
                    "velocity": 0.28346456692913385,
                    "duration": 0.13555024999999432
                },
                {
                    "name": "A3",
                    "midi": 57,
                    "time": 121.45302400000006,
                    "velocity": 0.25196850393700787,
                    "duration": 0.5422010000000057
                },
                {
                    "name": "D4",
                    "midi": 62,
                    "time": 121.45302400000006,
                    "velocity": 0.25196850393700787,
                    "duration": 0.5422010000000057
                },
                {
                    "name": "F#4",
                    "midi": 66,
                    "time": 121.45302400000006,
                    "velocity": 0.2992125984251969,
                    "duration": 0.5422010000000057
                },
                {
                    "name": "F#4",
                    "midi": 66,
                    "time": 121.99522500000006,
                    "velocity": 0.29133858267716534,
                    "duration": 0.4066507499999972
                },
                {
                    "name": "D5",
                    "midi": 74,
                    "time": 121.99522500000006,
                    "velocity": 0.3464566929133858,
                    "duration": 0.4066507499999972
                },
                {
                    "name": "G4",
                    "midi": 67,
                    "time": 122.40187575000006,
                    "velocity": 0.2755905511811024,
                    "duration": 0.13555024999999432
                },
                {
                    "name": "E5",
                    "midi": 76,
                    "time": 122.40187575000006,
                    "velocity": 0.3228346456692913,
                    "duration": 0.13555024999999432
                },
                {
                    "name": "F#4",
                    "midi": 66,
                    "time": 122.53742600000005,
                    "velocity": 0.31496062992125984,
                    "duration": 0.5422010000000057
                },
                {
                    "name": "D5",
                    "midi": 74,
                    "time": 122.53742600000005,
                    "velocity": 0.3779527559055118,
                    "duration": 0.5422010000000057
                },
                {
                    "name": "A4",
                    "midi": 69,
                    "time": 123.07962700000006,
                    "velocity": 0.29133858267716534,
                    "duration": 0.27110050000000285
                },
                {
                    "name": "E5",
                    "midi": 76,
                    "time": 123.07962700000006,
                    "velocity": 0.3464566929133858,
                    "duration": 0.27110050000000285
                },
                {
                    "name": "A3",
                    "midi": 57,
                    "time": 123.62182800000006,
                    "velocity": 0.3700787401574803,
                    "duration": 0.5422010000000057
                },
                {
                    "name": "G4",
                    "midi": 67,
                    "time": 123.62182800000006,
                    "velocity": 0.3700787401574803,
                    "duration": 0.5422010000000057
                },
                {
                    "name": "B4",
                    "midi": 71,
                    "time": 123.62182800000006,
                    "velocity": 0.4409448818897638,
                    "duration": 0.5422010000000057
                },
                {
                    "name": "A3",
                    "midi": 57,
                    "time": 124.16402900000007,
                    "velocity": 0.31496062992125984,
                    "duration": 0.4066507499999972
                },
                {
                    "name": "F#4",
                    "midi": 66,
                    "time": 124.16402900000007,
                    "velocity": 0.31496062992125984,
                    "duration": 0.4066507499999972
                },
                {
                    "name": "A4",
                    "midi": 69,
                    "time": 124.16402900000007,
                    "velocity": 0.3779527559055118,
                    "duration": 0.4066507499999972
                },
                {
                    "name": "A3",
                    "midi": 57,
                    "time": 124.57067975000007,
                    "velocity": 0.25196850393700787,
                    "duration": 0.13555024999999432
                },
                {
                    "name": "E4",
                    "midi": 64,
                    "time": 124.57067975000007,
                    "velocity": 0.25196850393700787,
                    "duration": 0.13555024999999432
                },
                {
                    "name": "G4",
                    "midi": 67,
                    "time": 124.57067975000007,
                    "velocity": 0.2992125984251969,
                    "duration": 0.13555024999999432
                },
                {
                    "name": "A3",
                    "midi": 57,
                    "time": 124.70623000000006,
                    "velocity": 0.2755905511811024,
                    "duration": 0.5422010000000057
                },
                {
                    "name": "E4",
                    "midi": 64,
                    "time": 124.70623000000006,
                    "velocity": 0.2755905511811024,
                    "duration": 0.5422010000000057
                },
                {
                    "name": "G4",
                    "midi": 67,
                    "time": 124.70623000000006,
                    "velocity": 0.33070866141732286,
                    "duration": 0.5422010000000057
                },
                {
                    "name": "A4",
                    "midi": 69,
                    "time": 125.24843100000007,
                    "velocity": 0.33070866141732286,
                    "duration": 0.4066507499999972
                },
                {
                    "name": "E5",
                    "midi": 76,
                    "time": 125.24843100000007,
                    "velocity": 0.3937007874015748,
                    "duration": 0.4066507499999972
                },
                {
                    "name": "D5",
                    "midi": 74,
                    "time": 125.65508175000006,
                    "velocity": 0.30708661417322836,
                    "duration": 0.13555024999999432
                },
                {
                    "name": "F#5",
                    "midi": 78,
                    "time": 125.65508175000006,
                    "velocity": 0.3700787401574803,
                    "duration": 0.13555024999999432
                },
                {
                    "name": "A4",
                    "midi": 69,
                    "time": 125.79063200000006,
                    "velocity": 0.3464566929133858,
                    "duration": 0.5422010000000057
                },
                {
                    "name": "E5",
                    "midi": 76,
                    "time": 125.79063200000006,
                    "velocity": 0.4094488188976378,
                    "duration": 0.5422010000000057
                },
                {
                    "name": "D5",
                    "midi": 74,
                    "time": 126.33283300000006,
                    "velocity": 0.3228346456692913,
                    "duration": 0.27110050000000285
                },
                {
                    "name": "F#5",
                    "midi": 78,
                    "time": 126.33283300000006,
                    "velocity": 0.3858267716535433,
                    "duration": 0.27110050000000285
                },
                {
                    "name": "F#4",
                    "midi": 66,
                    "time": 126.87503400000007,
                    "velocity": 0.4409448818897638,
                    "duration": 0.5422010000000057
                },
                {
                    "name": "D5",
                    "midi": 74,
                    "time": 126.87503400000007,
                    "velocity": 0.5275590551181102,
                    "duration": 0.5422010000000057
                },
                {
                    "name": "A4",
                    "midi": 69,
                    "time": 127.41723500000008,
                    "velocity": 0.2992125984251969,
                    "duration": 0.27110050000000285
                },
                {
                    "name": "C#5",
                    "midi": 73,
                    "time": 127.41723500000008,
                    "velocity": 0.3543307086614173,
                    "duration": 0.27110050000000285
                },
                {
                    "name": "G4",
                    "midi": 67,
                    "time": 127.68833550000008,
                    "velocity": 0.2992125984251969,
                    "duration": 0.27110050000000285
                },
                {
                    "name": "B4",
                    "midi": 71,
                    "time": 127.68833550000008,
                    "velocity": 0.3543307086614173,
                    "duration": 0.27110050000000285
                },
                {
                    "name": "A3",
                    "midi": 57,
                    "time": 127.95943600000008,
                    "velocity": 0.3779527559055118,
                    "duration": 0.5422009999999915
                },
                {
                    "name": "F#4",
                    "midi": 66,
                    "time": 127.95943600000008,
                    "velocity": 0.3779527559055118,
                    "duration": 0.5422009999999915
                },
                {
                    "name": "A4",
                    "midi": 69,
                    "time": 127.95943600000008,
                    "velocity": 0.44881889763779526,
                    "duration": 0.5422009999999915
                },
                {
                    "name": "A3",
                    "midi": 57,
                    "time": 128.50163700000007,
                    "velocity": 0.2992125984251969,
                    "duration": 0.27110049999998864
                },
                {
                    "name": "E4",
                    "midi": 64,
                    "time": 128.50163700000007,
                    "velocity": 0.2992125984251969,
                    "duration": 0.27110049999998864
                },
                {
                    "name": "G4",
                    "midi": 67,
                    "time": 128.50163700000007,
                    "velocity": 0.3543307086614173,
                    "duration": 0.27110049999998864
                },
                {
                    "name": "A3",
                    "midi": 57,
                    "time": 128.77273750000006,
                    "velocity": 0.2992125984251969,
                    "duration": 0.27110049999998864
                },
                {
                    "name": "D4",
                    "midi": 62,
                    "time": 128.77273750000006,
                    "velocity": 0.2992125984251969,
                    "duration": 0.27110049999998864
                },
                {
                    "name": "F#4",
                    "midi": 66,
                    "time": 128.77273750000006,
                    "velocity": 0.3543307086614173,
                    "duration": 0.27110049999998864
                },
                {
                    "name": "A3",
                    "midi": 57,
                    "time": 129.04383800000005,
                    "velocity": 0.3858267716535433,
                    "duration": 0.5422010000000057
                },
                {
                    "name": "G4",
                    "midi": 67,
                    "time": 129.04383800000005,
                    "velocity": 0.3858267716535433,
                    "duration": 0.5422010000000057
                },
                {
                    "name": "B4",
                    "midi": 71,
                    "time": 129.04383800000005,
                    "velocity": 0.4566929133858268,
                    "duration": 0.5422010000000057
                },
                {
                    "name": "A3",
                    "midi": 57,
                    "time": 129.58603900000006,
                    "velocity": 0.33070866141732286,
                    "duration": 0.27110049999998864
                },
                {
                    "name": "F#4",
                    "midi": 66,
                    "time": 129.58603900000006,
                    "velocity": 0.33070866141732286,
                    "duration": 0.27110049999998864
                },
                {
                    "name": "A4",
                    "midi": 69,
                    "time": 129.58603900000006,
                    "velocity": 0.3937007874015748,
                    "duration": 0.27110049999998864
                },
                {
                    "name": "A3",
                    "midi": 57,
                    "time": 129.85713950000005,
                    "velocity": 0.3228346456692913,
                    "duration": 0.27110049999998864
                },
                {
                    "name": "E4",
                    "midi": 64,
                    "time": 129.85713950000005,
                    "velocity": 0.3228346456692913,
                    "duration": 0.27110049999998864
                },
                {
                    "name": "G4",
                    "midi": 67,
                    "time": 129.85713950000005,
                    "velocity": 0.3858267716535433,
                    "duration": 0.27110049999998864
                },
                {
                    "name": "D4",
                    "midi": 62,
                    "time": 130.12824000000003,
                    "velocity": 0.3464566929133858,
                    "duration": 0.27110049999998864
                },
                {
                    "name": "F#4",
                    "midi": 66,
                    "time": 130.12824000000003,
                    "velocity": 0.4094488188976378,
                    "duration": 0.27110049999998864
                },
                {
                    "name": "A3",
                    "midi": 57,
                    "time": 130.39934050000002,
                    "velocity": 0.31496062992125984,
                    "duration": 0.27110049999998864
                },
                {
                    "name": "E4",
                    "midi": 64,
                    "time": 130.39934050000002,
                    "velocity": 0.3779527559055118,
                    "duration": 0.27110049999998864
                },
                {
                    "name": "F#3",
                    "midi": 54,
                    "time": 130.670441,
                    "velocity": 0.3543307086614173,
                    "duration": 1.0844020000000114
                },
                {
                    "name": "D4",
                    "midi": 62,
                    "time": 130.670441,
                    "velocity": 0.41732283464566927,
                    "duration": 1.0844020000000114
                },
                {
                    "name": "A3",
                    "midi": 57,
                    "time": 131.75484300000002,
                    "velocity": 0.33070866141732286,
                    "duration": 0.5422010000000057
                },
                {
                    "name": "F#4",
                    "midi": 66,
                    "time": 131.75484300000002,
                    "velocity": 0.33070866141732286,
                    "duration": 0.5422010000000057
                },
                {
                    "name": "A4",
                    "midi": 69,
                    "time": 131.75484300000002,
                    "velocity": 0.3937007874015748,
                    "duration": 0.5422010000000057
                },
                {
                    "name": "A3",
                    "midi": 57,
                    "time": 132.29704400000003,
                    "velocity": 0.30708661417322836,
                    "duration": 0.4066507500000114
                },
                {
                    "name": "E4",
                    "midi": 64,
                    "time": 132.29704400000003,
                    "velocity": 0.30708661417322836,
                    "duration": 0.4066507500000114
                },
                {
                    "name": "G4",
                    "midi": 67,
                    "time": 132.29704400000003,
                    "velocity": 0.3700787401574803,
                    "duration": 0.4066507500000114
                },
                {
                    "name": "A3",
                    "midi": 57,
                    "time": 132.70369475000004,
                    "velocity": 0.30708661417322836,
                    "duration": 0.13555024999999432
                },
                {
                    "name": "D4",
                    "midi": 62,
                    "time": 132.70369475000004,
                    "velocity": 0.30708661417322836,
                    "duration": 0.13555024999999432
                },
                {
                    "name": "F#4",
                    "midi": 66,
                    "time": 132.70369475000004,
                    "velocity": 0.36220472440944884,
                    "duration": 0.13555024999999432
                },
                {
                    "name": "A3",
                    "midi": 57,
                    "time": 132.83924500000003,
                    "velocity": 0.31496062992125984,
                    "duration": 0.5422010000000057
                },
                {
                    "name": "D4",
                    "midi": 62,
                    "time": 132.83924500000003,
                    "velocity": 0.31496062992125984,
                    "duration": 0.5422010000000057
                },
                {
                    "name": "F#4",
                    "midi": 66,
                    "time": 132.83924500000003,
                    "velocity": 0.3779527559055118,
                    "duration": 0.5422010000000057
                },
                {
                    "name": "A3",
                    "midi": 57,
                    "time": 133.38144600000004,
                    "velocity": 0.3779527559055118,
                    "duration": 0.5422010000000057
                },
                {
                    "name": "F#4",
                    "midi": 66,
                    "time": 133.38144600000004,
                    "velocity": 0.3779527559055118,
                    "duration": 0.5422010000000057
                },
                {
                    "name": "A4",
                    "midi": 69,
                    "time": 133.38144600000004,
                    "velocity": 0.44881889763779526,
                    "duration": 0.5422010000000057
                },
                {
                    "name": "A3",
                    "midi": 57,
                    "time": 133.92364700000005,
                    "velocity": 0.3543307086614173,
                    "duration": 0.4066507500000114
                },
                {
                    "name": "E4",
                    "midi": 64,
                    "time": 133.92364700000005,
                    "velocity": 0.3543307086614173,
                    "duration": 0.4066507500000114
                },
                {
                    "name": "G4",
                    "midi": 67,
                    "time": 133.92364700000005,
                    "velocity": 0.4251968503937008,
                    "duration": 0.4066507500000114
                },
                {
                    "name": "A3",
                    "midi": 57,
                    "time": 134.33029775000006,
                    "velocity": 0.3543307086614173,
                    "duration": 0.13555024999999432
                },
                {
                    "name": "D4",
                    "midi": 62,
                    "time": 134.33029775000006,
                    "velocity": 0.3543307086614173,
                    "duration": 0.13555024999999432
                },
                {
                    "name": "F#4",
                    "midi": 66,
                    "time": 134.33029775000006,
                    "velocity": 0.3543307086614173,
                    "duration": 0.13555024999999432
                },
                {
                    "name": "A3",
                    "midi": 57,
                    "time": 134.46584800000005,
                    "velocity": 0.3700787401574803,
                    "duration": 0.5422010000000057
                },
                {
                    "name": "D4",
                    "midi": 62,
                    "time": 134.46584800000005,
                    "velocity": 0.3700787401574803,
                    "duration": 0.5422010000000057
                },
                {
                    "name": "F#4",
                    "midi": 66,
                    "time": 134.46584800000005,
                    "velocity": 0.4409448818897638,
                    "duration": 0.5422010000000057
                },
                {
                    "name": "C5",
                    "midi": 72,
                    "time": 135.00804900000006,
                    "velocity": 0.5511811023622047,
                    "duration": 0.5422010000000057
                },
                {
                    "name": "D4",
                    "midi": 62,
                    "time": 135.00804900000006,
                    "velocity": 0.4645669291338583,
                    "duration": 0.5422010000000057
                },
                {
                    "name": "F#4",
                    "midi": 66,
                    "time": 135.00804900000006,
                    "velocity": 0.4645669291338583,
                    "duration": 0.5422010000000057
                },
                {
                    "name": "G4",
                    "midi": 67,
                    "time": 135.55025000000006,
                    "velocity": 0.4251968503937008,
                    "duration": 0.4066507500000114
                },
                {
                    "name": "D4",
                    "midi": 62,
                    "time": 135.55025000000006,
                    "velocity": 0.4251968503937008,
                    "duration": 0.4066507500000114
                },
                {
                    "name": "B4",
                    "midi": 71,
                    "time": 135.55025000000006,
                    "velocity": 0.5039370078740157,
                    "duration": 0.4066507500000114
                },
                {
                    "name": "A4",
                    "midi": 69,
                    "time": 135.95690075000007,
                    "velocity": 0.4645669291338583,
                    "duration": 0.13555024999999432
                },
                {
                    "name": "D4",
                    "midi": 62,
                    "time": 135.95690075000007,
                    "velocity": 0.3937007874015748,
                    "duration": 0.13555024999999432
                },
                {
                    "name": "F#4",
                    "midi": 66,
                    "time": 135.95690075000007,
                    "velocity": 0.3937007874015748,
                    "duration": 0.13555024999999432
                },
                {
                    "name": "A4",
                    "midi": 69,
                    "time": 136.09245100000007,
                    "velocity": 0.48031496062992124,
                    "duration": 0.5422010000000057
                },
                {
                    "name": "D4",
                    "midi": 62,
                    "time": 136.09245100000007,
                    "velocity": 0.4015748031496063,
                    "duration": 0.5422010000000057
                },
                {
                    "name": "F#4",
                    "midi": 66,
                    "time": 136.09245100000007,
                    "velocity": 0.4015748031496063,
                    "duration": 0.5422010000000057
                },
                {
                    "name": "D4",
                    "midi": 62,
                    "time": 136.63465200000007,
                    "velocity": 0.4881889763779528,
                    "duration": 0.5422010000000057
                },
                {
                    "name": "C5",
                    "midi": 72,
                    "time": 136.63465200000007,
                    "velocity": 0.4881889763779528,
                    "duration": 0.5422010000000057
                },
                {
                    "name": "E5",
                    "midi": 76,
                    "time": 136.63465200000007,
                    "velocity": 0.5826771653543307,
                    "duration": 0.5422010000000057
                },
                {
                    "name": "D4",
                    "midi": 62,
                    "time": 137.17685300000008,
                    "velocity": 0.4645669291338583,
                    "duration": 0.4066507500000114
                },
                {
                    "name": "B4",
                    "midi": 71,
                    "time": 137.17685300000008,
                    "velocity": 0.4645669291338583,
                    "duration": 0.4066507500000114
                },
                {
                    "name": "D5",
                    "midi": 74,
                    "time": 137.17685300000008,
                    "velocity": 0.5511811023622047,
                    "duration": 0.4066507500000114
                },
                {
                    "name": "D4",
                    "midi": 62,
                    "time": 137.5835037500001,
                    "velocity": 0.4409448818897638,
                    "duration": 0.13555024999999432
                },
                {
                    "name": "A4",
                    "midi": 69,
                    "time": 137.5835037500001,
                    "velocity": 0.4409448818897638,
                    "duration": 0.13555024999999432
                },
                {
                    "name": "C5",
                    "midi": 72,
                    "time": 137.5835037500001,
                    "velocity": 0.5275590551181102,
                    "duration": 0.13555024999999432
                },
                {
                    "name": "D4",
                    "midi": 62,
                    "time": 137.71905400000009,
                    "velocity": 0.4645669291338583,
                    "duration": 0.5422010000000057
                },
                {
                    "name": "C5",
                    "midi": 72,
                    "time": 137.71905400000009,
                    "velocity": 0.5511811023622047,
                    "duration": 0.5422010000000057
                },
                {
                    "name": "A4",
                    "midi": 69,
                    "time": 137.71905400000009,
                    "velocity": 0.4645669291338583,
                    "duration": 0.5422010000000057
                },
                {
                    "name": "A3",
                    "midi": 57,
                    "time": 138.2612550000001,
                    "velocity": 0.3464566929133858,
                    "duration": 0.5422010000000057
                },
                {
                    "name": "D4",
                    "midi": 62,
                    "time": 138.2612550000001,
                    "velocity": 0.3464566929133858,
                    "duration": 0.5422010000000057
                },
                {
                    "name": "C5",
                    "midi": 72,
                    "time": 138.2612550000001,
                    "velocity": 0.4094488188976378,
                    "duration": 0.5422010000000057
                },
                {
                    "name": "B3",
                    "midi": 59,
                    "time": 138.8034560000001,
                    "velocity": 0.30708661417322836,
                    "duration": 0.4066507500000114
                },
                {
                    "name": "D4",
                    "midi": 62,
                    "time": 138.8034560000001,
                    "velocity": 0.30708661417322836,
                    "duration": 0.4066507500000114
                },
                {
                    "name": "B4",
                    "midi": 71,
                    "time": 138.8034560000001,
                    "velocity": 0.36220472440944884,
                    "duration": 0.4066507500000114
                },
                {
                    "name": "C4",
                    "midi": 60,
                    "time": 139.2101067500001,
                    "velocity": 0.2755905511811024,
                    "duration": 0.13555024999999432
                },
                {
                    "name": "D4",
                    "midi": 62,
                    "time": 139.2101067500001,
                    "velocity": 0.2755905511811024,
                    "duration": 0.13555024999999432
                },
                {
                    "name": "A4",
                    "midi": 69,
                    "time": 139.2101067500001,
                    "velocity": 0.33070866141732286,
                    "duration": 0.13555024999999432
                },
                {
                    "name": "C4",
                    "midi": 60,
                    "time": 139.3456570000001,
                    "velocity": 0.2755905511811024,
                    "duration": 2.1688039999999944
                },
                {
                    "name": "D4",
                    "midi": 62,
                    "time": 139.3456570000001,
                    "velocity": 0.2755905511811024,
                    "duration": 2.1688039999999944
                },
                {
                    "name": "A4",
                    "midi": 69,
                    "time": 139.3456570000001,
                    "velocity": 0.33070866141732286,
                    "duration": 2.1688039999999944
                },
                {
                    "name": "G4",
                    "midi": 67,
                    "time": 141.5144610000001,
                    "velocity": 0.3937007874015748,
                    "duration": 0.18073366666666857
                },
                {
                    "name": "D4",
                    "midi": 62,
                    "time": 141.69519466666677,
                    "velocity": 0.31496062992125984,
                    "duration": 0.18073366666666857
                },
                {
                    "name": "A#3",
                    "midi": 58,
                    "time": 141.87592833333343,
                    "velocity": 0.2677165354330709,
                    "duration": 0.18073366666666857
                },
                {
                    "name": "G4",
                    "midi": 67,
                    "time": 142.0566620000001,
                    "velocity": 0.3700787401574803,
                    "duration": 0.18073366666666857
                },
                {
                    "name": "D4",
                    "midi": 62,
                    "time": 142.23739566666677,
                    "velocity": 0.29133858267716534,
                    "duration": 0.18073366666666857
                },
                {
                    "name": "A#3",
                    "midi": 58,
                    "time": 142.41812933333344,
                    "velocity": 0.25196850393700787,
                    "duration": 0.18073366666666857
                },
                {
                    "name": "F#4",
                    "midi": 66,
                    "time": 142.5988630000001,
                    "velocity": 0.3700787401574803,
                    "duration": 0.18073366666666857
                },
                {
                    "name": "D4",
                    "midi": 62,
                    "time": 142.77959666666678,
                    "velocity": 0.2992125984251969,
                    "duration": 0.18073366666666857
                },
                {
                    "name": "A3",
                    "midi": 57,
                    "time": 142.96033033333345,
                    "velocity": 0.25984251968503935,
                    "duration": 0.18073366666666857
                },
                {
                    "name": "A4",
                    "midi": 69,
                    "time": 143.1410640000001,
                    "velocity": 0.3937007874015748,
                    "duration": 0.18073366666666857
                },
                {
                    "name": "D4",
                    "midi": 62,
                    "time": 143.32179766666678,
                    "velocity": 0.3228346456692913,
                    "duration": 0.18073366666666857
                },
                {
                    "name": "C4",
                    "midi": 60,
                    "time": 143.50253133333345,
                    "velocity": 0.25984251968503935,
                    "duration": 0.18073366666666857
                },
                {
                    "name": "A4",
                    "midi": 69,
                    "time": 143.68326500000012,
                    "velocity": 0.3779527559055118,
                    "duration": 0.18073366666666857
                },
                {
                    "name": "D4",
                    "midi": 62,
                    "time": 143.8639986666668,
                    "velocity": 0.2992125984251969,
                    "duration": 0.18073366666666857
                },
                {
                    "name": "C4",
                    "midi": 60,
                    "time": 144.04473233333346,
                    "velocity": 0.23622047244094488,
                    "duration": 0.18073366666666857
                },
                {
                    "name": "G4",
                    "midi": 67,
                    "time": 144.22546600000013,
                    "velocity": 0.3779527559055118,
                    "duration": 0.18073366666666857
                },
                {
                    "name": "D4",
                    "midi": 62,
                    "time": 144.4061996666668,
                    "velocity": 0.2992125984251969,
                    "duration": 0.18073366666666857
                },
                {
                    "name": "A#3",
                    "midi": 58,
                    "time": 144.58693333333346,
                    "velocity": 0.2440944881889764,
                    "duration": 0.18073366666666857
                },
                {
                    "name": "G4",
                    "midi": 67,
                    "time": 144.76766700000013,
                    "velocity": 0.3700787401574803,
                    "duration": 0.18073366666666857
                },
                {
                    "name": "D4",
                    "midi": 62,
                    "time": 144.9484006666668,
                    "velocity": 0.2992125984251969,
                    "duration": 0.18073366666666857
                },
                {
                    "name": "A#3",
                    "midi": 58,
                    "time": 145.12913433333347,
                    "velocity": 0.2440944881889764,
                    "duration": 0.18073366666666857
                },
                {
                    "name": "D4",
                    "midi": 62,
                    "time": 145.30986800000014,
                    "velocity": 0.3543307086614173,
                    "duration": 0.27110049999998864
                },
                {
                    "name": "F#4",
                    "midi": 66,
                    "time": 145.30986800000014,
                    "velocity": 0.3543307086614173,
                    "duration": 0.27110049999998864
                },
                {
                    "name": "A4",
                    "midi": 69,
                    "time": 145.30986800000014,
                    "velocity": 0.41732283464566927,
                    "duration": 0.27110049999998864
                },
                {
                    "name": "D4",
                    "midi": 62,
                    "time": 145.58096850000013,
                    "velocity": 0.3700787401574803,
                    "duration": 0.27110049999998864
                },
                {
                    "name": "G4",
                    "midi": 67,
                    "time": 145.58096850000013,
                    "velocity": 0.3700787401574803,
                    "duration": 0.27110049999998864
                },
                {
                    "name": "A#4",
                    "midi": 70,
                    "time": 145.58096850000013,
                    "velocity": 0.4409448818897638,
                    "duration": 0.27110049999998864
                },
                {
                    "name": "D4",
                    "midi": 62,
                    "time": 145.8520690000001,
                    "velocity": 0.3858267716535433,
                    "duration": 0.4066507500000114
                },
                {
                    "name": "A4",
                    "midi": 69,
                    "time": 145.8520690000001,
                    "velocity": 0.3858267716535433,
                    "duration": 0.4066507500000114
                },
                {
                    "name": "C5",
                    "midi": 72,
                    "time": 145.8520690000001,
                    "velocity": 0.4566929133858268,
                    "duration": 0.4066507500000114
                },
                {
                    "name": "D4",
                    "midi": 62,
                    "time": 146.25871975000013,
                    "velocity": 0.3543307086614173,
                    "duration": 0.13555024999999432
                },
                {
                    "name": "G4",
                    "midi": 67,
                    "time": 146.25871975000013,
                    "velocity": 0.3543307086614173,
                    "duration": 0.13555024999999432
                },
                {
                    "name": "A#4",
                    "midi": 70,
                    "time": 146.25871975000013,
                    "velocity": 0.4251968503937008,
                    "duration": 0.13555024999999432
                },
                {
                    "name": "D4",
                    "midi": 62,
                    "time": 146.39427000000012,
                    "velocity": 0.3543307086614173,
                    "duration": 0.5422010000000057
                },
                {
                    "name": "G4",
                    "midi": 67,
                    "time": 146.39427000000012,
                    "velocity": 0.3543307086614173,
                    "duration": 0.5422010000000057
                },
                {
                    "name": "A#4",
                    "midi": 70,
                    "time": 146.39427000000012,
                    "velocity": 0.41732283464566927,
                    "duration": 0.5422010000000057
                },
                {
                    "name": "D4",
                    "midi": 62,
                    "time": 146.93647100000013,
                    "velocity": 0.2440944881889764,
                    "duration": 0.27110049999998864
                },
                {
                    "name": "F#4",
                    "midi": 66,
                    "time": 146.93647100000013,
                    "velocity": 0.2440944881889764,
                    "duration": 0.27110049999998864
                },
                {
                    "name": "A4",
                    "midi": 69,
                    "time": 146.93647100000013,
                    "velocity": 0.29133858267716534,
                    "duration": 0.27110049999998864
                },
                {
                    "name": "D4",
                    "midi": 62,
                    "time": 147.2075715000001,
                    "velocity": 0.2283464566929134,
                    "duration": 0.27110049999998864
                },
                {
                    "name": "E4",
                    "midi": 64,
                    "time": 147.2075715000001,
                    "velocity": 0.2283464566929134,
                    "duration": 0.27110049999998864
                },
                {
                    "name": "G4",
                    "midi": 67,
                    "time": 147.2075715000001,
                    "velocity": 0.2755905511811024,
                    "duration": 0.27110049999998864
                },
                {
                    "name": "D4",
                    "midi": 62,
                    "time": 147.4786720000001,
                    "velocity": 0.2440944881889764,
                    "duration": 0.5422010000000057
                },
                {
                    "name": "F#4",
                    "midi": 66,
                    "time": 147.4786720000001,
                    "velocity": 0.2440944881889764,
                    "duration": 0.5422010000000057
                },
                {
                    "name": "A4",
                    "midi": 69,
                    "time": 147.4786720000001,
                    "velocity": 0.29133858267716534,
                    "duration": 0.5422010000000057
                },
                {
                    "name": "D5",
                    "midi": 74,
                    "time": 148.0208730000001,
                    "velocity": 0.41732283464566927,
                    "duration": 1.6266030000000171
                },
                {
                    "name": "G4",
                    "midi": 67,
                    "time": 148.0208730000001,
                    "velocity": 0.3937007874015748,
                    "duration": 0.18073366666666857
                },
                {
                    "name": "D4",
                    "midi": 62,
                    "time": 148.20160666666678,
                    "velocity": 0.31496062992125984,
                    "duration": 0.18073366666666857
                },
                {
                    "name": "B4",
                    "midi": 71,
                    "time": 148.38234033333345,
                    "velocity": 0.2677165354330709,
                    "duration": 0.18073366666666857
                },
                {
                    "name": "G4",
                    "midi": 67,
                    "time": 148.5630740000001,
                    "velocity": 0.3700787401574803,
                    "duration": 0.18073366666666857
                },
                {
                    "name": "D4",
                    "midi": 62,
                    "time": 148.74380766666678,
                    "velocity": 0.29133858267716534,
                    "duration": 0.18073366666666857
                },
                {
                    "name": "B4",
                    "midi": 71,
                    "time": 148.92454133333345,
                    "velocity": 0.25196850393700787,
                    "duration": 0.18073366666666857
                },
                {
                    "name": "F#4",
                    "midi": 66,
                    "time": 149.10527500000012,
                    "velocity": 0.3700787401574803,
                    "duration": 0.18073366666666857
                },
                {
                    "name": "D4",
                    "midi": 62,
                    "time": 149.2860086666668,
                    "velocity": 0.2992125984251969,
                    "duration": 0.18073366666666857
                },
                {
                    "name": "A4",
                    "midi": 69,
                    "time": 149.46674233333346,
                    "velocity": 0.25984251968503935,
                    "duration": 0.18073366666666857
                },
                {
                    "name": "D5",
                    "midi": 74,
                    "time": 149.64747600000013,
                    "velocity": 0.41732283464566927,
                    "duration": 1.6266030000000171
                },
                {
                    "name": "A4",
                    "midi": 69,
                    "time": 149.64747600000013,
                    "velocity": 0.3937007874015748,
                    "duration": 0.18073366666666857
                },
                {
                    "name": "D4",
                    "midi": 62,
                    "time": 149.8282096666668,
                    "velocity": 0.3228346456692913,
                    "duration": 0.18073366666666857
                },
                {
                    "name": "C5",
                    "midi": 72,
                    "time": 150.00894333333346,
                    "velocity": 0.25984251968503935,
                    "duration": 0.18073366666666857
                },
                {
                    "name": "A4",
                    "midi": 69,
                    "time": 150.18967700000013,
                    "velocity": 0.3779527559055118,
                    "duration": 0.18073366666666857
                },
                {
                    "name": "D4",
                    "midi": 62,
                    "time": 150.3704106666668,
                    "velocity": 0.2992125984251969,
                    "duration": 0.18073366666666857
                },
                {
                    "name": "C5",
                    "midi": 72,
                    "time": 150.55114433333347,
                    "velocity": 0.23622047244094488,
                    "duration": 0.18073366666666857
                },
                {
                    "name": "G4",
                    "midi": 67,
                    "time": 150.73187800000014,
                    "velocity": 0.3779527559055118,
                    "duration": 0.18073366666666857
                },
                {
                    "name": "D4",
                    "midi": 62,
                    "time": 150.9126116666668,
                    "velocity": 0.2992125984251969,
                    "duration": 0.18073366666666857
                },
                {
                    "name": "B4",
                    "midi": 71,
                    "time": 151.09334533333347,
                    "velocity": 0.2440944881889764,
                    "duration": 0.18073366666666857
                },
                {
                    "name": "D4",
                    "midi": 62,
                    "time": 151.27407900000014,
                    "velocity": 0.5511811023622047,
                    "duration": 0.27110049999998864
                },
                {
                    "name": "D5",
                    "midi": 74,
                    "time": 151.54517950000013,
                    "velocity": 0.5354330708661418,
                    "duration": 0.27110049999998864
                },
                {
                    "name": "E4",
                    "midi": 64,
                    "time": 151.81628000000012,
                    "velocity": 0.4409448818897638,
                    "duration": 0.27110049999998864
                },
                {
                    "name": "E5",
                    "midi": 76,
                    "time": 151.81628000000012,
                    "velocity": 0.5196850393700787,
                    "duration": 0.27110049999998864
                },
                {
                    "name": "F#4",
                    "midi": 66,
                    "time": 152.0873805000001,
                    "velocity": 0.4881889763779528,
                    "duration": 0.27110049999998864
                },
                {
                    "name": "F#5",
                    "midi": 78,
                    "time": 152.0873805000001,
                    "velocity": 0.5826771653543307,
                    "duration": 0.27110049999998864
                },
                {
                    "name": "G4",
                    "midi": 67,
                    "time": 152.3584810000001,
                    "velocity": 0.5511811023622047,
                    "duration": 0.4066507500000114
                },
                {
                    "name": "G5",
                    "midi": 79,
                    "time": 152.3584810000001,
                    "velocity": 0.6535433070866141,
                    "duration": 0.4066507500000114
                },
                {
                    "name": "D4",
                    "midi": 62,
                    "time": 152.7651317500001,
                    "velocity": 0.36220472440944884,
                    "duration": 0.13555024999999432
                },
                {
                    "name": "G4",
                    "midi": 67,
                    "time": 152.7651317500001,
                    "velocity": 0.36220472440944884,
                    "duration": 0.13555024999999432
                },
                {
                    "name": "B4",
                    "midi": 71,
                    "time": 152.7651317500001,
                    "velocity": 0.4330708661417323,
                    "duration": 0.13555024999999432
                },
                {
                    "name": "D4",
                    "midi": 62,
                    "time": 152.9006820000001,
                    "velocity": 0.4015748031496063,
                    "duration": 0.5422010000000057
                },
                {
                    "name": "B4",
                    "midi": 71,
                    "time": 152.9006820000001,
                    "velocity": 0.4015748031496063,
                    "duration": 0.5422010000000057
                },
                {
                    "name": "D5",
                    "midi": 74,
                    "time": 152.9006820000001,
                    "velocity": 0.48031496062992124,
                    "duration": 0.5422010000000057
                },
                {
                    "name": "D4",
                    "midi": 62,
                    "time": 153.4428830000001,
                    "velocity": 0.33070866141732286,
                    "duration": 0.4066507500000114
                },
                {
                    "name": "F#4",
                    "midi": 66,
                    "time": 153.4428830000001,
                    "velocity": 0.33070866141732286,
                    "duration": 0.4066507500000114
                },
                {
                    "name": "C5",
                    "midi": 72,
                    "time": 153.4428830000001,
                    "velocity": 0.3937007874015748,
                    "duration": 0.4066507500000114
                },
                {
                    "name": "D4",
                    "midi": 62,
                    "time": 153.84953375000012,
                    "velocity": 0.29133858267716534,
                    "duration": 0.13555024999999432
                },
                {
                    "name": "G4",
                    "midi": 67,
                    "time": 153.84953375000012,
                    "velocity": 0.29133858267716534,
                    "duration": 0.13555024999999432
                },
                {
                    "name": "B4",
                    "midi": 71,
                    "time": 153.84953375000012,
                    "velocity": 0.3464566929133858,
                    "duration": 0.13555024999999432
                },
                {
                    "name": "D4",
                    "midi": 62,
                    "time": 153.9850840000001,
                    "velocity": 0.2677165354330709,
                    "duration": 0.5422010000000057
                },
                {
                    "name": "G4",
                    "midi": 67,
                    "time": 153.9850840000001,
                    "velocity": 0.2677165354330709,
                    "duration": 0.5422010000000057
                },
                {
                    "name": "B4",
                    "midi": 71,
                    "time": 153.9850840000001,
                    "velocity": 0.3228346456692913,
                    "duration": 0.5422010000000057
                },
                {
                    "name": "A3",
                    "midi": 57,
                    "time": 154.52728500000012,
                    "velocity": 0.29133858267716534,
                    "duration": 0.5422010000000057
                },
                {
                    "name": "F#4",
                    "midi": 66,
                    "time": 154.52728500000012,
                    "velocity": 0.29133858267716534,
                    "duration": 0.5422010000000057
                },
                {
                    "name": "A4",
                    "midi": 69,
                    "time": 154.52728500000012,
                    "velocity": 0.3464566929133858,
                    "duration": 0.5422010000000057
                },
                {
                    "name": "A3",
                    "midi": 57,
                    "time": 155.06948600000013,
                    "velocity": 0.25196850393700787,
                    "duration": 0.4066507500000114
                },
                {
                    "name": "E4",
                    "midi": 64,
                    "time": 155.06948600000013,
                    "velocity": 0.25196850393700787,
                    "duration": 0.4066507500000114
                },
                {
                    "name": "G4",
                    "midi": 67,
                    "time": 155.06948600000013,
                    "velocity": 0.2992125984251969,
                    "duration": 0.4066507500000114
                },
                {
                    "name": "A3",
                    "midi": 57,
                    "time": 155.47613675000014,
                    "velocity": 0.23622047244094488,
                    "duration": 0.13555024999999432
                },
                {
                    "name": "D4",
                    "midi": 62,
                    "time": 155.47613675000014,
                    "velocity": 0.23622047244094488,
                    "duration": 0.13555024999999432
                },
                {
                    "name": "F#4",
                    "midi": 66,
                    "time": 155.47613675000014,
                    "velocity": 0.28346456692913385,
                    "duration": 0.13555024999999432
                },
                {
                    "name": "A3",
                    "midi": 57,
                    "time": 155.61168700000013,
                    "velocity": 0.25196850393700787,
                    "duration": 0.5422010000000057
                },
                {
                    "name": "D4",
                    "midi": 62,
                    "time": 155.61168700000013,
                    "velocity": 0.25196850393700787,
                    "duration": 0.5422010000000057
                },
                {
                    "name": "F#4",
                    "midi": 66,
                    "time": 155.61168700000013,
                    "velocity": 0.2992125984251969,
                    "duration": 0.5422010000000057
                },
                {
                    "name": "F#4",
                    "midi": 66,
                    "time": 156.15388800000014,
                    "velocity": 0.29133858267716534,
                    "duration": 0.4066507500000114
                },
                {
                    "name": "D5",
                    "midi": 74,
                    "time": 156.15388800000014,
                    "velocity": 0.3464566929133858,
                    "duration": 0.4066507500000114
                },
                {
                    "name": "G4",
                    "midi": 67,
                    "time": 156.56053875000015,
                    "velocity": 0.2755905511811024,
                    "duration": 0.13555024999999432
                },
                {
                    "name": "E5",
                    "midi": 76,
                    "time": 156.56053875000015,
                    "velocity": 0.3228346456692913,
                    "duration": 0.13555024999999432
                },
                {
                    "name": "F#4",
                    "midi": 66,
                    "time": 156.69608900000014,
                    "velocity": 0.31496062992125984,
                    "duration": 0.5422010000000057
                },
                {
                    "name": "D5",
                    "midi": 74,
                    "time": 156.69608900000014,
                    "velocity": 0.3779527559055118,
                    "duration": 0.5422010000000057
                },
                {
                    "name": "A4",
                    "midi": 69,
                    "time": 157.23829000000015,
                    "velocity": 0.29133858267716534,
                    "duration": 0.27110049999998864
                },
                {
                    "name": "E5",
                    "midi": 76,
                    "time": 157.23829000000015,
                    "velocity": 0.3464566929133858,
                    "duration": 0.27110049999998864
                },
                {
                    "name": "A3",
                    "midi": 57,
                    "time": 157.78049100000013,
                    "velocity": 0.36220472440944884,
                    "duration": 0.5422010000000057
                },
                {
                    "name": "G4",
                    "midi": 67,
                    "time": 157.78049100000013,
                    "velocity": 0.36220472440944884,
                    "duration": 0.5422010000000057
                },
                {
                    "name": "B4",
                    "midi": 71,
                    "time": 157.78049100000013,
                    "velocity": 0.4330708661417323,
                    "duration": 0.5422010000000057
                },
                {
                    "name": "A3",
                    "midi": 57,
                    "time": 158.32269200000013,
                    "velocity": 0.30708661417322836,
                    "duration": 0.4066507500000114
                },
                {
                    "name": "F#4",
                    "midi": 66,
                    "time": 158.32269200000013,
                    "velocity": 0.30708661417322836,
                    "duration": 0.4066507500000114
                },
                {
                    "name": "A4",
                    "midi": 69,
                    "time": 158.32269200000013,
                    "velocity": 0.3700787401574803,
                    "duration": 0.4066507500000114
                },
                {
                    "name": "A3",
                    "midi": 57,
                    "time": 158.72934275000014,
                    "velocity": 0.25196850393700787,
                    "duration": 0.13555024999999432
                },
                {
                    "name": "E4",
                    "midi": 64,
                    "time": 158.72934275000014,
                    "velocity": 0.25196850393700787,
                    "duration": 0.13555024999999432
                },
                {
                    "name": "G4",
                    "midi": 67,
                    "time": 158.72934275000014,
                    "velocity": 0.2992125984251969,
                    "duration": 0.13555024999999432
                },
                {
                    "name": "A3",
                    "midi": 57,
                    "time": 158.86489300000014,
                    "velocity": 0.2755905511811024,
                    "duration": 0.5422010000000057
                },
                {
                    "name": "E4",
                    "midi": 64,
                    "time": 158.86489300000014,
                    "velocity": 0.2755905511811024,
                    "duration": 0.5422010000000057
                },
                {
                    "name": "G4",
                    "midi": 67,
                    "time": 158.86489300000014,
                    "velocity": 0.33070866141732286,
                    "duration": 0.5422010000000057
                },
                {
                    "name": "A4",
                    "midi": 69,
                    "time": 159.40709400000014,
                    "velocity": 0.33070866141732286,
                    "duration": 0.4066507500000114
                },
                {
                    "name": "E5",
                    "midi": 76,
                    "time": 159.40709400000014,
                    "velocity": 0.3937007874015748,
                    "duration": 0.4066507500000114
                },
                {
                    "name": "D5",
                    "midi": 74,
                    "time": 159.81374475000015,
                    "velocity": 0.30708661417322836,
                    "duration": 0.13555024999999432
                },
                {
                    "name": "F#5",
                    "midi": 78,
                    "time": 159.81374475000015,
                    "velocity": 0.3700787401574803,
                    "duration": 0.13555024999999432
                },
                {
                    "name": "A4",
                    "midi": 69,
                    "time": 159.94929500000015,
                    "velocity": 0.3464566929133858,
                    "duration": 0.5422010000000057
                },
                {
                    "name": "E5",
                    "midi": 76,
                    "time": 159.94929500000015,
                    "velocity": 0.4094488188976378,
                    "duration": 0.5422010000000057
                },
                {
                    "name": "D5",
                    "midi": 74,
                    "time": 160.49149600000015,
                    "velocity": 0.3228346456692913,
                    "duration": 0.27110049999998864
                },
                {
                    "name": "F#5",
                    "midi": 78,
                    "time": 160.49149600000015,
                    "velocity": 0.3858267716535433,
                    "duration": 0.27110049999998864
                },
                {
                    "name": "F#4",
                    "midi": 66,
                    "time": 161.03369700000013,
                    "velocity": 0.4015748031496063,
                    "duration": 0.5422010000000057
                },
                {
                    "name": "D5",
                    "midi": 74,
                    "time": 161.03369700000013,
                    "velocity": 0.48031496062992124,
                    "duration": 0.5422010000000057
                },
                {
                    "name": "A4",
                    "midi": 69,
                    "time": 161.57589800000014,
                    "velocity": 0.2992125984251969,
                    "duration": 0.27110049999998864
                },
                {
                    "name": "C#5",
                    "midi": 73,
                    "time": 161.57589800000014,
                    "velocity": 0.3543307086614173,
                    "duration": 0.27110049999998864
                },
                {
                    "name": "G4",
                    "midi": 67,
                    "time": 161.84699850000013,
                    "velocity": 0.2992125984251969,
                    "duration": 0.27110049999998864
                },
                {
                    "name": "B4",
                    "midi": 71,
                    "time": 161.84699850000013,
                    "velocity": 0.3543307086614173,
                    "duration": 0.27110049999998864
                },
                {
                    "name": "A3",
                    "midi": 57,
                    "time": 162.11809900000011,
                    "velocity": 0.3779527559055118,
                    "duration": 0.5422010000000057
                },
                {
                    "name": "F#4",
                    "midi": 66,
                    "time": 162.11809900000011,
                    "velocity": 0.3779527559055118,
                    "duration": 0.5422010000000057
                },
                {
                    "name": "A4",
                    "midi": 69,
                    "time": 162.11809900000011,
                    "velocity": 0.44881889763779526,
                    "duration": 0.5422010000000057
                },
                {
                    "name": "A3",
                    "midi": 57,
                    "time": 162.66030000000012,
                    "velocity": 0.2992125984251969,
                    "duration": 0.27110049999998864
                },
                {
                    "name": "E4",
                    "midi": 64,
                    "time": 162.66030000000012,
                    "velocity": 0.2992125984251969,
                    "duration": 0.27110049999998864
                },
                {
                    "name": "G4",
                    "midi": 67,
                    "time": 162.66030000000012,
                    "velocity": 0.3543307086614173,
                    "duration": 0.27110049999998864
                },
                {
                    "name": "A3",
                    "midi": 57,
                    "time": 162.9314005000001,
                    "velocity": 0.2992125984251969,
                    "duration": 0.27110049999998864
                },
                {
                    "name": "D4",
                    "midi": 62,
                    "time": 162.9314005000001,
                    "velocity": 0.2992125984251969,
                    "duration": 0.27110049999998864
                },
                {
                    "name": "F#4",
                    "midi": 66,
                    "time": 162.9314005000001,
                    "velocity": 0.2992125984251969,
                    "duration": 0.27110049999998864
                },
                {
                    "name": "A3",
                    "midi": 57,
                    "time": 163.2025010000001,
                    "velocity": 0.3858267716535433,
                    "duration": 0.5422010000000057
                },
                {
                    "name": "G4",
                    "midi": 67,
                    "time": 163.2025010000001,
                    "velocity": 0.3858267716535433,
                    "duration": 0.5422010000000057
                },
                {
                    "name": "B4",
                    "midi": 71,
                    "time": 163.2025010000001,
                    "velocity": 0.4566929133858268,
                    "duration": 0.5422010000000057
                },
                {
                    "name": "A3",
                    "midi": 57,
                    "time": 163.7447020000001,
                    "velocity": 0.33070866141732286,
                    "duration": 0.27110049999998864
                },
                {
                    "name": "F#4",
                    "midi": 66,
                    "time": 163.7447020000001,
                    "velocity": 0.33070866141732286,
                    "duration": 0.27110049999998864
                },
                {
                    "name": "A4",
                    "midi": 69,
                    "time": 163.7447020000001,
                    "velocity": 0.3937007874015748,
                    "duration": 0.27110049999998864
                },
                {
                    "name": "A3",
                    "midi": 57,
                    "time": 164.0158025000001,
                    "velocity": 0.3228346456692913,
                    "duration": 0.27110049999998864
                },
                {
                    "name": "E4",
                    "midi": 64,
                    "time": 164.0158025000001,
                    "velocity": 0.3228346456692913,
                    "duration": 0.27110049999998864
                },
                {
                    "name": "G4",
                    "midi": 67,
                    "time": 164.0158025000001,
                    "velocity": 0.3858267716535433,
                    "duration": 0.27110049999998864
                },
                {
                    "name": "D4",
                    "midi": 62,
                    "time": 164.28690300000008,
                    "velocity": 0.3464566929133858,
                    "duration": 0.27110049999998864
                },
                {
                    "name": "F#4",
                    "midi": 66,
                    "time": 164.28690300000008,
                    "velocity": 0.4094488188976378,
                    "duration": 0.27110049999998864
                },
                {
                    "name": "A3",
                    "midi": 57,
                    "time": 164.55800350000007,
                    "velocity": 0.31496062992125984,
                    "duration": 0.27110049999998864
                },
                {
                    "name": "E4",
                    "midi": 64,
                    "time": 164.55800350000007,
                    "velocity": 0.3779527559055118,
                    "duration": 0.27110049999998864
                },
                {
                    "name": "F#3",
                    "midi": 54,
                    "time": 164.82910400000006,
                    "velocity": 0.3543307086614173,
                    "duration": 1.0844020000000114
                },
                {
                    "name": "D4",
                    "midi": 62,
                    "time": 164.82910400000006,
                    "velocity": 0.41732283464566927,
                    "duration": 1.0844020000000114
                },
                {
                    "name": "A3",
                    "midi": 57,
                    "time": 165.91350600000007,
                    "velocity": 0.3464566929133858,
                    "duration": 0.5422010000000057
                },
                {
                    "name": "F#4",
                    "midi": 66,
                    "time": 165.91350600000007,
                    "velocity": 0.3464566929133858,
                    "duration": 0.5422010000000057
                },
                {
                    "name": "A4",
                    "midi": 69,
                    "time": 165.91350600000007,
                    "velocity": 0.4094488188976378,
                    "duration": 0.5422010000000057
                },
                {
                    "name": "A3",
                    "midi": 57,
                    "time": 166.45570700000007,
                    "velocity": 0.3228346456692913,
                    "duration": 0.4066507500000114
                },
                {
                    "name": "E4",
                    "midi": 64,
                    "time": 166.45570700000007,
                    "velocity": 0.3228346456692913,
                    "duration": 0.4066507500000114
                },
                {
                    "name": "G4",
                    "midi": 67,
                    "time": 166.45570700000007,
                    "velocity": 0.3858267716535433,
                    "duration": 0.4066507500000114
                },
                {
                    "name": "A3",
                    "midi": 57,
                    "time": 166.8623577500001,
                    "velocity": 0.30708661417322836,
                    "duration": 0.13555024999999432
                },
                {
                    "name": "D4",
                    "midi": 62,
                    "time": 166.8623577500001,
                    "velocity": 0.30708661417322836,
                    "duration": 0.13555024999999432
                },
                {
                    "name": "F#4",
                    "midi": 66,
                    "time": 166.8623577500001,
                    "velocity": 0.36220472440944884,
                    "duration": 0.13555024999999432
                },
                {
                    "name": "A3",
                    "midi": 57,
                    "time": 166.99790800000008,
                    "velocity": 0.31496062992125984,
                    "duration": 0.5422010000000057
                },
                {
                    "name": "D4",
                    "midi": 62,
                    "time": 166.99790800000008,
                    "velocity": 0.31496062992125984,
                    "duration": 0.5422010000000057
                },
                {
                    "name": "F#4",
                    "midi": 66,
                    "time": 166.99790800000008,
                    "velocity": 0.3779527559055118,
                    "duration": 0.5422010000000057
                },
                {
                    "name": "A3",
                    "midi": 57,
                    "time": 167.5401090000001,
                    "velocity": 0.3779527559055118,
                    "duration": 0.5422010000000057
                },
                {
                    "name": "F#4",
                    "midi": 66,
                    "time": 167.5401090000001,
                    "velocity": 0.44881889763779526,
                    "duration": 0.5422010000000057
                },
                {
                    "name": "A4",
                    "midi": 69,
                    "time": 167.5401090000001,
                    "velocity": 0.44881889763779526,
                    "duration": 0.5422010000000057
                },
                {
                    "name": "A3",
                    "midi": 57,
                    "time": 168.0823100000001,
                    "velocity": 0.3543307086614173,
                    "duration": 0.4066507500000114
                },
                {
                    "name": "E4",
                    "midi": 64,
                    "time": 168.0823100000001,
                    "velocity": 0.3543307086614173,
                    "duration": 0.4066507500000114
                },
                {
                    "name": "G4",
                    "midi": 67,
                    "time": 168.0823100000001,
                    "velocity": 0.4251968503937008,
                    "duration": 0.4066507500000114
                },
                {
                    "name": "A3",
                    "midi": 57,
                    "time": 168.4889607500001,
                    "velocity": 0.3543307086614173,
                    "duration": 0.13555024999999432
                },
                {
                    "name": "D4",
                    "midi": 62,
                    "time": 168.4889607500001,
                    "velocity": 0.3543307086614173,
                    "duration": 0.13555024999999432
                },
                {
                    "name": "F#4",
                    "midi": 66,
                    "time": 168.4889607500001,
                    "velocity": 0.41732283464566927,
                    "duration": 0.13555024999999432
                },
                {
                    "name": "A3",
                    "midi": 57,
                    "time": 168.6245110000001,
                    "velocity": 0.3700787401574803,
                    "duration": 0.5422010000000057
                },
                {
                    "name": "D4",
                    "midi": 62,
                    "time": 168.6245110000001,
                    "velocity": 0.3700787401574803,
                    "duration": 0.5422010000000057
                },
                {
                    "name": "F#4",
                    "midi": 66,
                    "time": 168.6245110000001,
                    "velocity": 0.4409448818897638,
                    "duration": 0.5422010000000057
                },
                {
                    "name": "C5",
                    "midi": 72,
                    "time": 169.1667120000001,
                    "velocity": 0.5511811023622047,
                    "duration": 0.5422010000000057
                },
                {
                    "name": "D4",
                    "midi": 62,
                    "time": 169.1667120000001,
                    "velocity": 0.4645669291338583,
                    "duration": 0.5422010000000057
                },
                {
                    "name": "F#4",
                    "midi": 66,
                    "time": 169.1667120000001,
                    "velocity": 0.4645669291338583,
                    "duration": 0.5422010000000057
                },
                {
                    "name": "G4",
                    "midi": 67,
                    "time": 169.7089130000001,
                    "velocity": 0.5196850393700787,
                    "duration": 0.4066507500000114
                },
                {
                    "name": "D4",
                    "midi": 62,
                    "time": 169.7089130000001,
                    "velocity": 0.4409448818897638,
                    "duration": 0.4066507500000114
                },
                {
                    "name": "B4",
                    "midi": 71,
                    "time": 169.7089130000001,
                    "velocity": 0.5196850393700787,
                    "duration": 0.4066507500000114
                },
                {
                    "name": "A4",
                    "midi": 69,
                    "time": 170.11556375000012,
                    "velocity": 0.4645669291338583,
                    "duration": 0.13555024999999432
                },
                {
                    "name": "D4",
                    "midi": 62,
                    "time": 170.11556375000012,
                    "velocity": 0.3937007874015748,
                    "duration": 0.13555024999999432
                },
                {
                    "name": "F#4",
                    "midi": 66,
                    "time": 170.11556375000012,
                    "velocity": 0.3937007874015748,
                    "duration": 0.13555024999999432
                },
                {
                    "name": "A4",
                    "midi": 69,
                    "time": 170.25111400000011,
                    "velocity": 0.48031496062992124,
                    "duration": 0.5422010000000057
                },
                {
                    "name": "D4",
                    "midi": 62,
                    "time": 170.25111400000011,
                    "velocity": 0.4015748031496063,
                    "duration": 0.5422010000000057
                },
                {
                    "name": "F#4",
                    "midi": 66,
                    "time": 170.25111400000011,
                    "velocity": 0.4015748031496063,
                    "duration": 0.5422010000000057
                },
                {
                    "name": "D4",
                    "midi": 62,
                    "time": 170.79331500000012,
                    "velocity": 0.48031496062992124,
                    "duration": 0.5422010000000057
                },
                {
                    "name": "C5",
                    "midi": 72,
                    "time": 170.79331500000012,
                    "velocity": 0.48031496062992124,
                    "duration": 0.5422010000000057
                },
                {
                    "name": "E5",
                    "midi": 76,
                    "time": 170.79331500000012,
                    "velocity": 0.5669291338582677,
                    "duration": 0.5422010000000057
                },
                {
                    "name": "D4",
                    "midi": 62,
                    "time": 171.33551600000013,
                    "velocity": 0.4645669291338583,
                    "duration": 0.4066507500000114
                },
                {
                    "name": "B4",
                    "midi": 71,
                    "time": 171.33551600000013,
                    "velocity": 0.4645669291338583,
                    "duration": 0.4066507500000114
                },
                {
                    "name": "D5",
                    "midi": 74,
                    "time": 171.33551600000013,
                    "velocity": 0.5511811023622047,
                    "duration": 0.4066507500000114
                },
                {
                    "name": "D4",
                    "midi": 62,
                    "time": 171.74216675000014,
                    "velocity": 0.4409448818897638,
                    "duration": 0.13555024999999432
                },
                {
                    "name": "A4",
                    "midi": 69,
                    "time": 171.74216675000014,
                    "velocity": 0.4409448818897638,
                    "duration": 0.13555024999999432
                },
                {
                    "name": "C5",
                    "midi": 72,
                    "time": 171.74216675000014,
                    "velocity": 0.5275590551181102,
                    "duration": 0.13555024999999432
                },
                {
                    "name": "D4",
                    "midi": 62,
                    "time": 171.87771700000013,
                    "velocity": 0.4645669291338583,
                    "duration": 0.5422010000000057
                },
                {
                    "name": "C5",
                    "midi": 72,
                    "time": 171.87771700000013,
                    "velocity": 0.5511811023622047,
                    "duration": 0.5422010000000057
                },
                {
                    "name": "A4",
                    "midi": 69,
                    "time": 171.87771700000013,
                    "velocity": 0.4645669291338583,
                    "duration": 0.5422010000000057
                },
                {
                    "name": "A3",
                    "midi": 57,
                    "time": 172.41991800000014,
                    "velocity": 0.3464566929133858,
                    "duration": 0.5422010000000057
                },
                {
                    "name": "D4",
                    "midi": 62,
                    "time": 172.41991800000014,
                    "velocity": 0.3464566929133858,
                    "duration": 0.5422010000000057
                },
                {
                    "name": "C5",
                    "midi": 72,
                    "time": 172.41991800000014,
                    "velocity": 0.4094488188976378,
                    "duration": 0.5422010000000057
                },
                {
                    "name": "B3",
                    "midi": 59,
                    "time": 172.96211900000014,
                    "velocity": 0.30708661417322836,
                    "duration": 0.4066507500000114
                },
                {
                    "name": "D4",
                    "midi": 62,
                    "time": 172.96211900000014,
                    "velocity": 0.30708661417322836,
                    "duration": 0.4066507500000114
                },
                {
                    "name": "B4",
                    "midi": 71,
                    "time": 172.96211900000014,
                    "velocity": 0.36220472440944884,
                    "duration": 0.4066507500000114
                },
                {
                    "name": "C4",
                    "midi": 60,
                    "time": 173.36876975000015,
                    "velocity": 0.2755905511811024,
                    "duration": 0.13555024999999432
                },
                {
                    "name": "D4",
                    "midi": 62,
                    "time": 173.36876975000015,
                    "velocity": 0.2755905511811024,
                    "duration": 0.13555024999999432
                },
                {
                    "name": "A4",
                    "midi": 69,
                    "time": 173.36876975000015,
                    "velocity": 0.33070866141732286,
                    "duration": 0.13555024999999432
                },
                {
                    "name": "C4",
                    "midi": 60,
                    "time": 173.50432000000015,
                    "velocity": 0.2755905511811024,
                    "duration": 2.1688039999999944
                },
                {
                    "name": "D4",
                    "midi": 62,
                    "time": 173.50432000000015,
                    "velocity": 0.2755905511811024,
                    "duration": 2.1688039999999944
                },
                {
                    "name": "A4",
                    "midi": 69,
                    "time": 173.50432000000015,
                    "velocity": 0.33070866141732286,
                    "duration": 2.1688039999999944
                },
                {
                    "name": "G4",
                    "midi": 67,
                    "time": 175.67312400000014,
                    "velocity": 0.3937007874015748,
                    "duration": 0.18073366666666857
                },
                {
                    "name": "D4",
                    "midi": 62,
                    "time": 175.8538576666668,
                    "velocity": 0.31496062992125984,
                    "duration": 0.18073366666666857
                },
                {
                    "name": "A#3",
                    "midi": 58,
                    "time": 176.03459133333348,
                    "velocity": 0.2677165354330709,
                    "duration": 0.18073366666666857
                },
                {
                    "name": "G4",
                    "midi": 67,
                    "time": 176.21532500000015,
                    "velocity": 0.3700787401574803,
                    "duration": 0.18073366666666857
                },
                {
                    "name": "D4",
                    "midi": 62,
                    "time": 176.39605866666682,
                    "velocity": 0.29133858267716534,
                    "duration": 0.18073366666666857
                },
                {
                    "name": "A#3",
                    "midi": 58,
                    "time": 176.5767923333335,
                    "velocity": 0.25196850393700787,
                    "duration": 0.18073366666666857
                },
                {
                    "name": "F#4",
                    "midi": 66,
                    "time": 176.75752600000015,
                    "velocity": 0.3700787401574803,
                    "duration": 0.18073366666666857
                },
                {
                    "name": "D4",
                    "midi": 62,
                    "time": 176.93825966666682,
                    "velocity": 0.2992125984251969,
                    "duration": 0.18073366666666857
                },
                {
                    "name": "A3",
                    "midi": 57,
                    "time": 177.1189933333335,
                    "velocity": 0.25984251968503935,
                    "duration": 0.18073366666666857
                },
                {
                    "name": "A4",
                    "midi": 69,
                    "time": 177.29972700000016,
                    "velocity": 0.3937007874015748,
                    "duration": 0.18073366666666857
                },
                {
                    "name": "D4",
                    "midi": 62,
                    "time": 177.48046066666683,
                    "velocity": 0.3228346456692913,
                    "duration": 0.18073366666666857
                },
                {
                    "name": "C4",
                    "midi": 60,
                    "time": 177.6611943333335,
                    "velocity": 0.25984251968503935,
                    "duration": 0.18073366666666857
                },
                {
                    "name": "A4",
                    "midi": 69,
                    "time": 177.84192800000017,
                    "velocity": 0.3779527559055118,
                    "duration": 0.18073366666666857
                },
                {
                    "name": "D4",
                    "midi": 62,
                    "time": 178.02266166666683,
                    "velocity": 0.2992125984251969,
                    "duration": 0.18073366666666857
                },
                {
                    "name": "C4",
                    "midi": 60,
                    "time": 178.2033953333335,
                    "velocity": 0.23622047244094488,
                    "duration": 0.18073366666666857
                },
                {
                    "name": "G4",
                    "midi": 67,
                    "time": 178.38412900000017,
                    "velocity": 0.3779527559055118,
                    "duration": 0.18073366666666857
                },
                {
                    "name": "D4",
                    "midi": 62,
                    "time": 178.56486266666684,
                    "velocity": 0.2992125984251969,
                    "duration": 0.18073366666666857
                },
                {
                    "name": "A#3",
                    "midi": 58,
                    "time": 178.7455963333335,
                    "velocity": 0.2440944881889764,
                    "duration": 0.18073366666666857
                },
                {
                    "name": "G4",
                    "midi": 67,
                    "time": 178.92633000000018,
                    "velocity": 0.3700787401574803,
                    "duration": 0.18073366666666857
                },
                {
                    "name": "D4",
                    "midi": 62,
                    "time": 179.10706366666685,
                    "velocity": 0.2992125984251969,
                    "duration": 0.18073366666666857
                },
                {
                    "name": "A#3",
                    "midi": 58,
                    "time": 179.28779733333351,
                    "velocity": 0.2440944881889764,
                    "duration": 0.18073366666666857
                },
                {
                    "name": "D4",
                    "midi": 62,
                    "time": 179.46853100000018,
                    "velocity": 0.3543307086614173,
                    "duration": 0.27110049999998864
                },
                {
                    "name": "F#4",
                    "midi": 66,
                    "time": 179.46853100000018,
                    "velocity": 0.3543307086614173,
                    "duration": 0.27110049999998864
                },
                {
                    "name": "A4",
                    "midi": 69,
                    "time": 179.46853100000018,
                    "velocity": 0.41732283464566927,
                    "duration": 0.27110049999998864
                },
                {
                    "name": "D4",
                    "midi": 62,
                    "time": 179.73963150000017,
                    "velocity": 0.36220472440944884,
                    "duration": 0.27110049999998864
                },
                {
                    "name": "G4",
                    "midi": 67,
                    "time": 179.73963150000017,
                    "velocity": 0.36220472440944884,
                    "duration": 0.27110049999998864
                },
                {
                    "name": "A#4",
                    "midi": 70,
                    "time": 179.73963150000017,
                    "velocity": 0.4330708661417323,
                    "duration": 0.27110049999998864
                },
                {
                    "name": "D4",
                    "midi": 62,
                    "time": 180.01073200000016,
                    "velocity": 0.3937007874015748,
                    "duration": 0.4066507500000114
                },
                {
                    "name": "A4",
                    "midi": 69,
                    "time": 180.01073200000016,
                    "velocity": 0.4645669291338583,
                    "duration": 0.4066507500000114
                },
                {
                    "name": "C5",
                    "midi": 72,
                    "time": 180.01073200000016,
                    "velocity": 0.4645669291338583,
                    "duration": 0.4066507500000114
                },
                {
                    "name": "D4",
                    "midi": 62,
                    "time": 180.41738275000017,
                    "velocity": 0.3543307086614173,
                    "duration": 0.13555024999999432
                },
                {
                    "name": "G4",
                    "midi": 67,
                    "time": 180.41738275000017,
                    "velocity": 0.3543307086614173,
                    "duration": 0.13555024999999432
                },
                {
                    "name": "A#4",
                    "midi": 70,
                    "time": 180.41738275000017,
                    "velocity": 0.4251968503937008,
                    "duration": 0.13555024999999432
                },
                {
                    "name": "D4",
                    "midi": 62,
                    "time": 180.55293300000017,
                    "velocity": 0.3543307086614173,
                    "duration": 0.5422010000000057
                },
                {
                    "name": "G4",
                    "midi": 67,
                    "time": 180.55293300000017,
                    "velocity": 0.3543307086614173,
                    "duration": 0.5422010000000057
                },
                {
                    "name": "A#4",
                    "midi": 70,
                    "time": 180.55293300000017,
                    "velocity": 0.41732283464566927,
                    "duration": 0.5422010000000057
                },
                {
                    "name": "D4",
                    "midi": 62,
                    "time": 181.09513400000017,
                    "velocity": 0.2440944881889764,
                    "duration": 0.27110049999998864
                },
                {
                    "name": "F#4",
                    "midi": 66,
                    "time": 181.09513400000017,
                    "velocity": 0.2440944881889764,
                    "duration": 0.27110049999998864
                },
                {
                    "name": "A4",
                    "midi": 69,
                    "time": 181.09513400000017,
                    "velocity": 0.29133858267716534,
                    "duration": 0.27110049999998864
                },
                {
                    "name": "D4",
                    "midi": 62,
                    "time": 181.36623450000016,
                    "velocity": 0.2283464566929134,
                    "duration": 0.27110049999998864
                },
                {
                    "name": "E4",
                    "midi": 64,
                    "time": 181.36623450000016,
                    "velocity": 0.2283464566929134,
                    "duration": 0.27110049999998864
                },
                {
                    "name": "G4",
                    "midi": 67,
                    "time": 181.36623450000016,
                    "velocity": 0.2755905511811024,
                    "duration": 0.27110049999998864
                },
                {
                    "name": "D4",
                    "midi": 62,
                    "time": 181.63733500000015,
                    "velocity": 0.2440944881889764,
                    "duration": 0.5422010000000057
                },
                {
                    "name": "F#4",
                    "midi": 66,
                    "time": 181.63733500000015,
                    "velocity": 0.2440944881889764,
                    "duration": 0.5422010000000057
                },
                {
                    "name": "A4",
                    "midi": 69,
                    "time": 181.63733500000015,
                    "velocity": 0.29133858267716534,
                    "duration": 0.5422010000000057
                },
                {
                    "name": "D5",
                    "midi": 74,
                    "time": 182.17953600000016,
                    "velocity": 0.41732283464566927,
                    "duration": 1.6266030000000171
                },
                {
                    "name": "G4",
                    "midi": 67,
                    "time": 182.17953600000016,
                    "velocity": 0.3937007874015748,
                    "duration": 0.18073366666666857
                },
                {
                    "name": "D4",
                    "midi": 62,
                    "time": 182.36026966666682,
                    "velocity": 0.31496062992125984,
                    "duration": 0.18073366666666857
                },
                {
                    "name": "B4",
                    "midi": 71,
                    "time": 182.5410033333335,
                    "velocity": 0.2677165354330709,
                    "duration": 0.18073366666666857
                },
                {
                    "name": "G4",
                    "midi": 67,
                    "time": 182.72173700000016,
                    "velocity": 0.3700787401574803,
                    "duration": 0.18073366666666857
                },
                {
                    "name": "D4",
                    "midi": 62,
                    "time": 182.90247066666683,
                    "velocity": 0.29133858267716534,
                    "duration": 0.18073366666666857
                },
                {
                    "name": "B4",
                    "midi": 71,
                    "time": 183.0832043333335,
                    "velocity": 0.25196850393700787,
                    "duration": 0.18073366666666857
                },
                {
                    "name": "F#4",
                    "midi": 66,
                    "time": 183.26393800000017,
                    "velocity": 0.3700787401574803,
                    "duration": 0.18073366666666857
                },
                {
                    "name": "D4",
                    "midi": 62,
                    "time": 183.44467166666684,
                    "velocity": 0.2992125984251969,
                    "duration": 0.18073366666666857
                },
                {
                    "name": "A4",
                    "midi": 69,
                    "time": 183.6254053333335,
                    "velocity": 0.25984251968503935,
                    "duration": 0.18073366666666857
                },
                {
                    "name": "D5",
                    "midi": 74,
                    "time": 183.80613900000017,
                    "velocity": 0.41732283464566927,
                    "duration": 1.6266030000000171
                },
                {
                    "name": "A4",
                    "midi": 69,
                    "time": 183.80613900000017,
                    "velocity": 0.3937007874015748,
                    "duration": 0.18073366666666857
                },
                {
                    "name": "D4",
                    "midi": 62,
                    "time": 183.98687266666684,
                    "velocity": 0.3228346456692913,
                    "duration": 0.18073366666666857
                },
                {
                    "name": "C5",
                    "midi": 72,
                    "time": 184.1676063333335,
                    "velocity": 0.25984251968503935,
                    "duration": 0.18073366666666857
                },
                {
                    "name": "A4",
                    "midi": 69,
                    "time": 184.34834000000018,
                    "velocity": 0.3779527559055118,
                    "duration": 0.18073366666666857
                },
                {
                    "name": "D4",
                    "midi": 62,
                    "time": 184.52907366666685,
                    "velocity": 0.2992125984251969,
                    "duration": 0.18073366666666857
                },
                {
                    "name": "C5",
                    "midi": 72,
                    "time": 184.70980733333352,
                    "velocity": 0.23622047244094488,
                    "duration": 0.18073366666666857
                },
                {
                    "name": "G4",
                    "midi": 67,
                    "time": 184.89054100000018,
                    "velocity": 0.3779527559055118,
                    "duration": 0.18073366666666857
                },
                {
                    "name": "D4",
                    "midi": 62,
                    "time": 185.07127466666685,
                    "velocity": 0.2992125984251969,
                    "duration": 0.18073366666666857
                },
                {
                    "name": "B4",
                    "midi": 71,
                    "time": 185.25200833333352,
                    "velocity": 0.2440944881889764,
                    "duration": 0.18073366666666857
                },
                {
                    "name": "D4",
                    "midi": 62,
                    "time": 185.4327420000002,
                    "velocity": 0.5511811023622047,
                    "duration": 0.27110049999998864
                },
                {
                    "name": "D5",
                    "midi": 74,
                    "time": 185.70384250000018,
                    "velocity": 0.5354330708661418,
                    "duration": 0.27110049999998864
                },
                {
                    "name": "E4",
                    "midi": 64,
                    "time": 185.97494300000017,
                    "velocity": 0.4409448818897638,
                    "duration": 0.27110049999998864
                },
                {
                    "name": "E5",
                    "midi": 76,
                    "time": 185.97494300000017,
                    "velocity": 0.5196850393700787,
                    "duration": 0.27110049999998864
                },
                {
                    "name": "F#4",
                    "midi": 66,
                    "time": 186.24604350000016,
                    "velocity": 0.4881889763779528,
                    "duration": 0.27110049999998864
                },
                {
                    "name": "F#5",
                    "midi": 78,
                    "time": 186.24604350000016,
                    "velocity": 0.5748031496062992,
                    "duration": 0.27110049999998864
                },
                {
                    "name": "G4",
                    "midi": 67,
                    "time": 186.51714400000014,
                    "velocity": 0.5433070866141733,
                    "duration": 0.4066507500000114
                },
                {
                    "name": "G5",
                    "midi": 79,
                    "time": 186.51714400000014,
                    "velocity": 0.6456692913385826,
                    "duration": 0.4066507500000114
                },
                {
                    "name": "D4",
                    "midi": 62,
                    "time": 186.92379475000016,
                    "velocity": 0.36220472440944884,
                    "duration": 0.13555024999999432
                },
                {
                    "name": "G4",
                    "midi": 67,
                    "time": 186.92379475000016,
                    "velocity": 0.36220472440944884,
                    "duration": 0.13555024999999432
                },
                {
                    "name": "B4",
                    "midi": 71,
                    "time": 186.92379475000016,
                    "velocity": 0.4330708661417323,
                    "duration": 0.13555024999999432
                },
                {
                    "name": "B4",
                    "midi": 71,
                    "time": 187.05934500000015,
                    "velocity": 0.48031496062992124,
                    "duration": 0.5422010000000057
                },
                {
                    "name": "D5",
                    "midi": 74,
                    "time": 187.05934500000015,
                    "velocity": 0.48031496062992124,
                    "duration": 0.5422010000000057
                },
                {
                    "name": "D4",
                    "midi": 62,
                    "time": 187.60154600000016,
                    "velocity": 0.33070866141732286,
                    "duration": 0.4066507500000114
                },
                {
                    "name": "F#4",
                    "midi": 66,
                    "time": 187.60154600000016,
                    "velocity": 0.33070866141732286,
                    "duration": 0.4066507500000114
                },
                {
                    "name": "C5",
                    "midi": 72,
                    "time": 187.60154600000016,
                    "velocity": 0.3937007874015748,
                    "duration": 0.4066507500000114
                },
                {
                    "name": "D4",
                    "midi": 62,
                    "time": 188.00819675000017,
                    "velocity": 0.29133858267716534,
                    "duration": 0.13555024999999432
                },
                {
                    "name": "G4",
                    "midi": 67,
                    "time": 188.00819675000017,
                    "velocity": 0.29133858267716534,
                    "duration": 0.13555024999999432
                },
                {
                    "name": "B4",
                    "midi": 71,
                    "time": 188.00819675000017,
                    "velocity": 0.3464566929133858,
                    "duration": 0.13555024999999432
                },
                {
                    "name": "D4",
                    "midi": 62,
                    "time": 188.14374700000016,
                    "velocity": 0.2677165354330709,
                    "duration": 0.5422010000000057
                },
                {
                    "name": "G4",
                    "midi": 67,
                    "time": 188.14374700000016,
                    "velocity": 0.2677165354330709,
                    "duration": 0.5422010000000057
                },
                {
                    "name": "B4",
                    "midi": 71,
                    "time": 188.14374700000016,
                    "velocity": 0.3228346456692913,
                    "duration": 0.5422010000000057
                },
                {
                    "name": "E4",
                    "midi": 64,
                    "time": 188.68594800000017,
                    "velocity": 0.31496062992125984,
                    "duration": 0.5422010000000057
                },
                {
                    "name": "G4",
                    "midi": 67,
                    "time": 188.68594800000017,
                    "velocity": 0.31496062992125984,
                    "duration": 0.5422010000000057
                },
                {
                    "name": "C5",
                    "midi": 72,
                    "time": 188.68594800000017,
                    "velocity": 0.31496062992125984,
                    "duration": 0.5422010000000057
                },
                {
                    "name": "D4",
                    "midi": 62,
                    "time": 189.22814900000017,
                    "velocity": 0.2992125984251969,
                    "duration": 0.4066507500000114
                },
                {
                    "name": "G4",
                    "midi": 67,
                    "time": 189.22814900000017,
                    "velocity": 0.2992125984251969,
                    "duration": 0.4066507500000114
                },
                {
                    "name": "B4",
                    "midi": 71,
                    "time": 189.22814900000017,
                    "velocity": 0.2992125984251969,
                    "duration": 0.4066507500000114
                },
                {
                    "name": "C4",
                    "midi": 60,
                    "time": 189.63479975000018,
                    "velocity": 0.28346456692913385,
                    "duration": 0.13555024999999432
                },
                {
                    "name": "G4",
                    "midi": 67,
                    "time": 189.63479975000018,
                    "velocity": 0.28346456692913385,
                    "duration": 0.13555024999999432
                },
                {
                    "name": "A4",
                    "midi": 69,
                    "time": 189.63479975000018,
                    "velocity": 0.28346456692913385,
                    "duration": 0.13555024999999432
                },
                {
                    "name": "C4",
                    "midi": 60,
                    "time": 189.77035000000018,
                    "velocity": 0.2992125984251969,
                    "duration": 0.5422010000000057
                },
                {
                    "name": "G4",
                    "midi": 67,
                    "time": 189.77035000000018,
                    "velocity": 0.2992125984251969,
                    "duration": 0.5422010000000057
                },
                {
                    "name": "A4",
                    "midi": 69,
                    "time": 189.77035000000018,
                    "velocity": 0.2992125984251969,
                    "duration": 0.5422010000000057
                },
                {
                    "name": "D4",
                    "midi": 62,
                    "time": 190.31255100000018,
                    "velocity": 0.31496062992125984,
                    "duration": 0.5422010000000057
                },
                {
                    "name": "B4",
                    "midi": 71,
                    "time": 190.31255100000018,
                    "velocity": 0.31496062992125984,
                    "duration": 0.5422010000000057
                },
                {
                    "name": "C4",
                    "midi": 60,
                    "time": 190.8547520000002,
                    "velocity": 0.2992125984251969,
                    "duration": 0.4066507500000114
                },
                {
                    "name": "D4",
                    "midi": 62,
                    "time": 190.8547520000002,
                    "velocity": 0.2992125984251969,
                    "duration": 0.4066507500000114
                },
                {
                    "name": "A4",
                    "midi": 69,
                    "time": 190.8547520000002,
                    "velocity": 0.2992125984251969,
                    "duration": 0.4066507500000114
                },
                {
                    "name": "B3",
                    "midi": 59,
                    "time": 191.2614027500002,
                    "velocity": 0.28346456692913385,
                    "duration": 0.13555024999999432
                },
                {
                    "name": "D4",
                    "midi": 62,
                    "time": 191.2614027500002,
                    "velocity": 0.28346456692913385,
                    "duration": 0.13555024999999432
                },
                {
                    "name": "G4",
                    "midi": 67,
                    "time": 191.2614027500002,
                    "velocity": 0.28346456692913385,
                    "duration": 0.13555024999999432
                },
                {
                    "name": "B3",
                    "midi": 59,
                    "time": 191.3969530000002,
                    "velocity": 0.2992125984251969,
                    "duration": 0.5422010000000057
                },
                {
                    "name": "D4",
                    "midi": 62,
                    "time": 191.3969530000002,
                    "velocity": 0.2992125984251969,
                    "duration": 0.5422010000000057
                },
                {
                    "name": "G4",
                    "midi": 67,
                    "time": 191.3969530000002,
                    "velocity": 0.2992125984251969,
                    "duration": 0.5422010000000057
                },
                {
                    "name": "C4",
                    "midi": 60,
                    "time": 191.9391540000002,
                    "velocity": 0.31496062992125984,
                    "duration": 0.5422010000000057
                },
                {
                    "name": "D4",
                    "midi": 62,
                    "time": 191.9391540000002,
                    "velocity": 0.31496062992125984,
                    "duration": 0.5422010000000057
                },
                {
                    "name": "A4",
                    "midi": 69,
                    "time": 191.9391540000002,
                    "velocity": 0.31496062992125984,
                    "duration": 0.5422010000000057
                },
                {
                    "name": "B3",
                    "midi": 59,
                    "time": 192.4813550000002,
                    "velocity": 0.2992125984251969,
                    "duration": 0.4066507500000114
                },
                {
                    "name": "D4",
                    "midi": 62,
                    "time": 192.4813550000002,
                    "velocity": 0.2992125984251969,
                    "duration": 0.4066507500000114
                },
                {
                    "name": "G4",
                    "midi": 67,
                    "time": 192.4813550000002,
                    "velocity": 0.2992125984251969,
                    "duration": 0.4066507500000114
                },
                {
                    "name": "A3",
                    "midi": 57,
                    "time": 192.88800575000022,
                    "velocity": 0.28346456692913385,
                    "duration": 0.13555024999999432
                },
                {
                    "name": "C4",
                    "midi": 60,
                    "time": 192.88800575000022,
                    "velocity": 0.28346456692913385,
                    "duration": 0.13555024999999432
                },
                {
                    "name": "F#4",
                    "midi": 66,
                    "time": 192.88800575000022,
                    "velocity": 0.28346456692913385,
                    "duration": 0.13555024999999432
                },
                {
                    "name": "A3",
                    "midi": 57,
                    "time": 193.0235560000002,
                    "velocity": 0.2992125984251969,
                    "duration": 0.5422010000000057
                },
                {
                    "name": "C4",
                    "midi": 60,
                    "time": 193.0235560000002,
                    "velocity": 0.2992125984251969,
                    "duration": 0.5422010000000057
                },
                {
                    "name": "F#4",
                    "midi": 66,
                    "time": 193.0235560000002,
                    "velocity": 0.2992125984251969,
                    "duration": 0.5422010000000057
                },
                {
                    "name": "B3",
                    "midi": 59,
                    "time": 193.56575700000022,
                    "velocity": 0.31496062992125984,
                    "duration": 0.5422010000000057
                },
                {
                    "name": "G4",
                    "midi": 67,
                    "time": 193.56575700000022,
                    "velocity": 0.31496062992125984,
                    "duration": 0.5422010000000057
                },
                {
                    "name": "A3",
                    "midi": 57,
                    "time": 194.10795800000022,
                    "velocity": 0.2992125984251969,
                    "duration": 0.4066507500000114
                },
                {
                    "name": "D4",
                    "midi": 62,
                    "time": 194.10795800000022,
                    "velocity": 0.2992125984251969,
                    "duration": 0.4066507500000114
                },
                {
                    "name": "G3",
                    "midi": 55,
                    "time": 194.51460875000024,
                    "velocity": 0.28346456692913385,
                    "duration": 0.13555024999999432
                },
                {
                    "name": "B3",
                    "midi": 59,
                    "time": 194.51460875000024,
                    "velocity": 0.28346456692913385,
                    "duration": 0.13555024999999432
                },
                {
                    "name": "G3",
                    "midi": 55,
                    "time": 194.65015900000023,
                    "velocity": 0.2992125984251969,
                    "duration": 0.5422010000000057
                },
                {
                    "name": "B3",
                    "midi": 59,
                    "time": 194.65015900000023,
                    "velocity": 0.2992125984251969,
                    "duration": 0.5422010000000057
                },
                {
                    "name": "G3",
                    "midi": 55,
                    "time": 195.19236000000024,
                    "velocity": 0.2992125984251969,
                    "duration": 0.5422010000000057
                },
                {
                    "name": "D4",
                    "midi": 62,
                    "time": 195.19236000000024,
                    "velocity": 0.2992125984251969,
                    "duration": 0.5422010000000057
                },
                {
                    "name": "F4",
                    "midi": 65,
                    "time": 195.19236000000024,
                    "velocity": 0.2992125984251969,
                    "duration": 0.5422010000000057
                },
                {
                    "name": "G3",
                    "midi": 55,
                    "time": 195.73456100000024,
                    "velocity": 0.28346456692913385,
                    "duration": 0.4066507500000114
                },
                {
                    "name": "C4",
                    "midi": 60,
                    "time": 195.73456100000024,
                    "velocity": 0.28346456692913385,
                    "duration": 0.4066507500000114
                },
                {
                    "name": "E4",
                    "midi": 64,
                    "time": 195.73456100000024,
                    "velocity": 0.28346456692913385,
                    "duration": 0.4066507500000114
                },
                {
                    "name": "G3",
                    "midi": 55,
                    "time": 196.14121175000025,
                    "velocity": 0.2677165354330709,
                    "duration": 0.13555024999999432
                },
                {
                    "name": "B3",
                    "midi": 59,
                    "time": 196.14121175000025,
                    "velocity": 0.2677165354330709,
                    "duration": 0.13555024999999432
                },
                {
                    "name": "D4",
                    "midi": 62,
                    "time": 196.14121175000025,
                    "velocity": 0.2677165354330709,
                    "duration": 0.13555024999999432
                },
                {
                    "name": "G3",
                    "midi": 55,
                    "time": 196.27676200000025,
                    "velocity": 0.28346456692913385,
                    "duration": 0.5422010000000057
                },
                {
                    "name": "B3",
                    "midi": 59,
                    "time": 196.27676200000025,
                    "velocity": 0.28346456692913385,
                    "duration": 0.5422010000000057
                },
                {
                    "name": "D4",
                    "midi": 62,
                    "time": 196.27676200000025,
                    "velocity": 0.28346456692913385,
                    "duration": 0.5422010000000057
                },
                {
                    "name": "B3",
                    "midi": 59,
                    "time": 196.81896300000025,
                    "velocity": 0.2992125984251969,
                    "duration": 0.5422010000000057
                },
                {
                    "name": "A4",
                    "midi": 69,
                    "time": 196.81896300000025,
                    "velocity": 0.2992125984251969,
                    "duration": 0.5422010000000057
                },
                {
                    "name": "F4",
                    "midi": 65,
                    "time": 196.81896300000025,
                    "velocity": 0.2992125984251969,
                    "duration": 0.5422010000000057
                },
                {
                    "name": "B3",
                    "midi": 59,
                    "time": 197.36116400000026,
                    "velocity": 0.2677165354330709,
                    "duration": 0.4066507500000114
                },
                {
                    "name": "G4",
                    "midi": 67,
                    "time": 197.36116400000026,
                    "velocity": 0.2677165354330709,
                    "duration": 0.4066507500000114
                },
                {
                    "name": "E4",
                    "midi": 64,
                    "time": 197.36116400000026,
                    "velocity": 0.2677165354330709,
                    "duration": 0.4066507500000114
                },
                {
                    "name": "D4",
                    "midi": 62,
                    "time": 197.76781475000027,
                    "velocity": 0.2440944881889764,
                    "duration": 0.13555024999999432
                },
                {
                    "name": "B3",
                    "midi": 59,
                    "time": 197.76781475000027,
                    "velocity": 0.2440944881889764,
                    "duration": 0.13555024999999432
                },
                {
                    "name": "F4",
                    "midi": 65,
                    "time": 197.76781475000027,
                    "velocity": 0.2440944881889764,
                    "duration": 0.13555024999999432
                },
                {
                    "name": "F4",
                    "midi": 65,
                    "time": 197.90336500000026,
                    "velocity": 0.25196850393700787,
                    "duration": 0.5422010000000057
                },
                {
                    "name": "B3",
                    "midi": 59,
                    "time": 197.90336500000026,
                    "velocity": 0.25196850393700787,
                    "duration": 0.5422010000000057
                },
                {
                    "name": "D4",
                    "midi": 62,
                    "time": 197.90336500000026,
                    "velocity": 0.25196850393700787,
                    "duration": 0.5422010000000057
                },
                {
                    "name": "A4",
                    "midi": 69,
                    "time": 198.44556600000027,
                    "velocity": 0.28346456692913385,
                    "duration": 0.8133014999999943
                },
                {
                    "name": "B3",
                    "midi": 59,
                    "time": 198.44556600000027,
                    "velocity": 0.28346456692913385,
                    "duration": 1.6266029999999603
                },
                {
                    "name": "F4",
                    "midi": 65,
                    "time": 198.44556600000027,
                    "velocity": 0.28346456692913385,
                    "duration": 1.6266029999999603
                },
                {
                    "name": "G#4",
                    "midi": 68,
                    "time": 199.25886750000026,
                    "velocity": 0.28346456692913385,
                    "duration": 0.27110049999998864
                },
                {
                    "name": "G4",
                    "midi": 67,
                    "time": 199.52996800000025,
                    "velocity": 0.28346456692913385,
                    "duration": 0.27110049999998864
                },
                {
                    "name": "A4",
                    "midi": 69,
                    "time": 199.80106850000024,
                    "velocity": 0.28346456692913385,
                    "duration": 0.27110049999998864
                },
                {
                    "name": "A4",
                    "midi": 69,
                    "time": 200.07216900000023,
                    "velocity": 0.28346456692913385,
                    "duration": 0.5422010000000057
                },
                {
                    "name": "B3",
                    "midi": 59,
                    "time": 200.07216900000023,
                    "velocity": 0.28346456692913385,
                    "duration": 1.6266030000000171
                },
                {
                    "name": "F4",
                    "midi": 65,
                    "time": 200.07216900000023,
                    "velocity": 0.28346456692913385,
                    "duration": 1.6266030000000171
                },
                {
                    "name": "G4",
                    "midi": 67,
                    "time": 200.61437000000024,
                    "velocity": 0.28346456692913385,
                    "duration": 1.0844020000000114
                },
                {
                    "name": "G4",
                    "midi": 67,
                    "time": 201.6999015854169,
                    "velocity": 0.47244094488188976,
                    "duration": 0.47442587500000855
                },
                {
                    "name": "A4",
                    "midi": 69,
                    "time": 202.17319787500026,
                    "velocity": 0.3937007874015748,
                    "duration": 0.06777512499999716
                },
                {
                    "name": "G4",
                    "midi": 67,
                    "time": 202.24097300000025,
                    "velocity": 0.47244094488188976,
                    "duration": 0.18073366666666857
                },
                {
                    "name": "E4",
                    "midi": 64,
                    "time": 202.42170666666692,
                    "velocity": 0.44881889763779526,
                    "duration": 0.18073366666666857
                },
                {
                    "name": "C4",
                    "midi": 60,
                    "time": 202.6024403333336,
                    "velocity": 0.41732283464566927,
                    "duration": 0.18073366666666857
                },
                {
                    "name": "G4",
                    "midi": 67,
                    "time": 202.78317400000026,
                    "velocity": 0.47244094488188976,
                    "duration": 0.4066507500000114
                },
                {
                    "name": "E5",
                    "midi": 76,
                    "time": 203.18982475000027,
                    "velocity": 0.4409448818897638,
                    "duration": 0.13555024999999432
                },
                {
                    "name": "E5",
                    "midi": 76,
                    "time": 203.32537500000026,
                    "velocity": 0.47244094488188976,
                    "duration": 1.0844020000000114
                },
                {
                    "name": "C5",
                    "midi": 72,
                    "time": 204.40977700000028,
                    "velocity": 0.3464566929133858,
                    "duration": 0.27110049999998864
                },
                {
                    "name": "G4",
                    "midi": 67,
                    "time": 204.95197800000025,
                    "velocity": 0.4645669291338583,
                    "duration": 0.47442587500000855
                },
                {
                    "name": "F4",
                    "midi": 65,
                    "time": 205.42640387500026,
                    "velocity": 0.3937007874015748,
                    "duration": 0.06777512499999716
                },
                {
                    "name": "E4",
                    "midi": 64,
                    "time": 205.49417900000026,
                    "velocity": 0.47244094488188976,
                    "duration": 0.18073366666666857
                },
                {
                    "name": "C4",
                    "midi": 60,
                    "time": 205.67491266666693,
                    "velocity": 0.4409448818897638,
                    "duration": 0.18073366666666857
                },
                {
                    "name": "G3",
                    "midi": 55,
                    "time": 205.8556463333336,
                    "velocity": 0.4094488188976378,
                    "duration": 0.18073366666666857
                },
                {
                    "name": "C4",
                    "midi": 60,
                    "time": 206.03638000000026,
                    "velocity": 0.47244094488188976,
                    "duration": 0.18073366666666857
                },
                {
                    "name": "E4",
                    "midi": 64,
                    "time": 206.21711366666693,
                    "velocity": 0.44881889763779526,
                    "duration": 0.18073366666666857
                },
                {
                    "name": "G4",
                    "midi": 67,
                    "time": 206.3978473333336,
                    "velocity": 0.4251968503937008,
                    "duration": 0.18073366666666857
                },
                {
                    "name": "G3",
                    "midi": 55,
                    "time": 206.57858100000027,
                    "velocity": 0.4409448818897638,
                    "duration": 0.13555024999999432
                },
                {
                    "name": "E4",
                    "midi": 64,
                    "time": 206.57858100000027,
                    "velocity": 0.4409448818897638,
                    "duration": 0.13555024999999432
                },
                {
                    "name": "G4",
                    "midi": 67,
                    "time": 206.57858100000027,
                    "velocity": 0.4409448818897638,
                    "duration": 0.13555024999999432
                },
                {
                    "name": "G3",
                    "midi": 55,
                    "time": 206.84968150000026,
                    "velocity": 0.41732283464566927,
                    "duration": 0.13555024999999432
                },
                {
                    "name": "D4",
                    "midi": 62,
                    "time": 206.84968150000026,
                    "velocity": 0.41732283464566927,
                    "duration": 0.13555024999999432
                },
                {
                    "name": "F4",
                    "midi": 65,
                    "time": 206.84968150000026,
                    "velocity": 0.41732283464566927,
                    "duration": 0.13555024999999432
                },
                {
                    "name": "G3",
                    "midi": 55,
                    "time": 207.12078200000025,
                    "velocity": 0.4409448818897638,
                    "duration": 0.10166268750000995
                },
                {
                    "name": "C4",
                    "midi": 60,
                    "time": 207.12078200000025,
                    "velocity": 0.4409448818897638,
                    "duration": 0.10166268750000995
                },
                {
                    "name": "E4",
                    "midi": 64,
                    "time": 207.12078200000025,
                    "velocity": 0.4409448818897638,
                    "duration": 0.10166268750000995
                },
                {
                    "name": "G3",
                    "midi": 55,
                    "time": 207.39188250000026,
                    "velocity": 0.3937007874015748,
                    "duration": 0.10166268750000995
                },
                {
                    "name": "B3",
                    "midi": 59,
                    "time": 207.39188250000026,
                    "velocity": 0.3937007874015748,
                    "duration": 0.10166268750000995
                },
                {
                    "name": "D4",
                    "midi": 62,
                    "time": 207.39188250000026,
                    "velocity": 0.3937007874015748,
                    "duration": 0.10166268750000995
                },
                {
                    "name": "G3",
                    "midi": 55,
                    "time": 207.66298300000028,
                    "velocity": 0.4409448818897638,
                    "duration": 0.13555024999999432
                },
                {
                    "name": "C4",
                    "midi": 60,
                    "time": 207.66298300000028,
                    "velocity": 0.4409448818897638,
                    "duration": 0.13555024999999432
                },
                {
                    "name": "E4",
                    "midi": 64,
                    "time": 207.66298300000028,
                    "velocity": 0.4409448818897638,
                    "duration": 0.13555024999999432
                },
                {
                    "name": "G3",
                    "midi": 55,
                    "time": 208.2051840000003,
                    "velocity": 0.3228346456692913,
                    "duration": 0.13555024999999432
                },
                {
                    "name": "D#4",
                    "midi": 63,
                    "time": 208.2051840000003,
                    "velocity": 0.3228346456692913,
                    "duration": 0.13555024999999432
                },
                {
                    "name": "G4",
                    "midi": 67,
                    "time": 208.2051840000003,
                    "velocity": 0.3228346456692913,
                    "duration": 0.13555024999999432
                },
                {
                    "name": "G3",
                    "midi": 55,
                    "time": 208.47628450000028,
                    "velocity": 0.29133858267716534,
                    "duration": 0.13555024999999432
                },
                {
                    "name": "D4",
                    "midi": 62,
                    "time": 208.47628450000028,
                    "velocity": 0.29133858267716534,
                    "duration": 0.13555024999999432
                },
                {
                    "name": "F4",
                    "midi": 65,
                    "time": 208.47628450000028,
                    "velocity": 0.29133858267716534,
                    "duration": 0.13555024999999432
                },
                {
                    "name": "G3",
                    "midi": 55,
                    "time": 208.74738500000026,
                    "velocity": 0.3228346456692913,
                    "duration": 0.10166268750000995
                },
                {
                    "name": "C4",
                    "midi": 60,
                    "time": 208.74738500000026,
                    "velocity": 0.3228346456692913,
                    "duration": 0.10166268750000995
                },
                {
                    "name": "D#4",
                    "midi": 63,
                    "time": 208.74738500000026,
                    "velocity": 0.3228346456692913,
                    "duration": 0.10166268750000995
                },
                {
                    "name": "G3",
                    "midi": 55,
                    "time": 209.01848550000028,
                    "velocity": 0.2992125984251969,
                    "duration": 0.10166268750000995
                },
                {
                    "name": "B3",
                    "midi": 59,
                    "time": 209.01848550000028,
                    "velocity": 0.2992125984251969,
                    "duration": 0.10166268750000995
                },
                {
                    "name": "D4",
                    "midi": 62,
                    "time": 209.01848550000028,
                    "velocity": 0.2992125984251969,
                    "duration": 0.10166268750000995
                },
                {
                    "name": "G3",
                    "midi": 55,
                    "time": 209.2895860000003,
                    "velocity": 0.3228346456692913,
                    "duration": 0.10166268750000995
                },
                {
                    "name": "C4",
                    "midi": 60,
                    "time": 209.2895860000003,
                    "velocity": 0.3228346456692913,
                    "duration": 0.10166268750000995
                },
                {
                    "name": "D#4",
                    "midi": 63,
                    "time": 209.2895860000003,
                    "velocity": 0.3228346456692913,
                    "duration": 0.10166268750000995
                },
                {
                    "name": "A#3",
                    "midi": 58,
                    "time": 209.56068650000032,
                    "velocity": 0.2992125984251969,
                    "duration": 0.10166268750000995
                },
                {
                    "name": "D4",
                    "midi": 62,
                    "time": 209.56068650000032,
                    "velocity": 0.2992125984251969,
                    "duration": 0.10166268750000995
                },
                {
                    "name": "F4",
                    "midi": 65,
                    "time": 209.56068650000032,
                    "velocity": 0.2992125984251969,
                    "duration": 0.10166268750000995
                },
                {
                    "name": "A#3",
                    "midi": 58,
                    "time": 209.83178700000033,
                    "velocity": 0.3937007874015748,
                    "duration": 0.27110049999998864
                },
                {
                    "name": "D4",
                    "midi": 62,
                    "time": 209.83178700000033,
                    "velocity": 0.3937007874015748,
                    "duration": 0.27110049999998864
                },
                {
                    "name": "F4",
                    "midi": 65,
                    "time": 209.83178700000033,
                    "velocity": 0.3937007874015748,
                    "duration": 0.27110049999998864
                },
                {
                    "name": "A#3",
                    "midi": 58,
                    "time": 210.10288750000032,
                    "velocity": 0.3779527559055118,
                    "duration": 0.20332537499999148
                },
                {
                    "name": "D#4",
                    "midi": 63,
                    "time": 210.10288750000032,
                    "velocity": 0.3779527559055118,
                    "duration": 0.20332537499999148
                },
                {
                    "name": "G4",
                    "midi": 67,
                    "time": 210.10288750000032,
                    "velocity": 0.3779527559055118,
                    "duration": 0.20332537499999148
                },
                {
                    "name": "A#3",
                    "midi": 58,
                    "time": 210.3739880000003,
                    "velocity": 0.4094488188976378,
                    "duration": 0.27110049999998864
                },
                {
                    "name": "D#4",
                    "midi": 63,
                    "time": 210.3739880000003,
                    "velocity": 0.4094488188976378,
                    "duration": 0.27110049999998864
                },
                {
                    "name": "G4",
                    "midi": 67,
                    "time": 210.3739880000003,
                    "velocity": 0.4094488188976378,
                    "duration": 0.27110049999998864
                },
                {
                    "name": "D4",
                    "midi": 62,
                    "time": 210.6450885000003,
                    "velocity": 0.4251968503937008,
                    "duration": 0.20332537499999148
                },
                {
                    "name": "F#4",
                    "midi": 66,
                    "time": 210.6450885000003,
                    "velocity": 0.4251968503937008,
                    "duration": 0.20332537499999148
                },
                {
                    "name": "A4",
                    "midi": 69,
                    "time": 210.6450885000003,
                    "velocity": 0.4251968503937008,
                    "duration": 0.20332537499999148
                },
                {
                    "name": "D4",
                    "midi": 62,
                    "time": 210.9161890000003,
                    "velocity": 0.47244094488188976,
                    "duration": 0.27110049999998864
                },
                {
                    "name": "F#4",
                    "midi": 66,
                    "time": 210.9161890000003,
                    "velocity": 0.47244094488188976,
                    "duration": 0.27110049999998864
                },
                {
                    "name": "A4",
                    "midi": 69,
                    "time": 210.9161890000003,
                    "velocity": 0.47244094488188976,
                    "duration": 0.27110049999998864
                },
                {
                    "name": "D4",
                    "midi": 62,
                    "time": 211.18728950000028,
                    "velocity": 0.44881889763779526,
                    "duration": 0.20332537499999148
                },
                {
                    "name": "G4",
                    "midi": 67,
                    "time": 211.18728950000028,
                    "velocity": 0.44881889763779526,
                    "duration": 0.20332537499999148
                },
                {
                    "name": "A#4",
                    "midi": 70,
                    "time": 211.18728950000028,
                    "velocity": 0.44881889763779526,
                    "duration": 0.20332537499999148
                },
                {
                    "name": "D4",
                    "midi": 62,
                    "time": 211.45839000000026,
                    "velocity": 0.5196850393700787,
                    "duration": 0.27110049999998864
                },
                {
                    "name": "G4",
                    "midi": 67,
                    "time": 211.45839000000026,
                    "velocity": 0.5196850393700787,
                    "duration": 0.27110049999998864
                },
                {
                    "name": "A#4",
                    "midi": 70,
                    "time": 211.45839000000026,
                    "velocity": 0.5196850393700787,
                    "duration": 0.27110049999998864
                },
                {
                    "name": "D4",
                    "midi": 62,
                    "time": 211.72949050000025,
                    "velocity": 0.5039370078740157,
                    "duration": 0.27110049999998864
                },
                {
                    "name": "G4",
                    "midi": 67,
                    "time": 211.72949050000025,
                    "velocity": 0.5039370078740157,
                    "duration": 0.27110049999998864
                },
                {
                    "name": "B4",
                    "midi": 71,
                    "time": 211.72949050000025,
                    "velocity": 0.5039370078740157,
                    "duration": 0.27110049999998864
                },
                {
                    "name": "D4",
                    "midi": 62,
                    "time": 212.00059100000024,
                    "velocity": 0.5511811023622047,
                    "duration": 0.8133014999999943
                },
                {
                    "name": "G4",
                    "midi": 67,
                    "time": 212.00059100000024,
                    "velocity": 0.5511811023622047,
                    "duration": 0.8133014999999943
                },
                {
                    "name": "B4",
                    "midi": 71,
                    "time": 212.00059100000024,
                    "velocity": 0.5511811023622047,
                    "duration": 0.8133014999999943
                },
                {
                    "name": "F4",
                    "midi": 65,
                    "time": 212.81389250000024,
                    "velocity": 0.4251968503937008,
                    "duration": 0.27110049999998864
                },
                {
                    "name": "B4",
                    "midi": 71,
                    "time": 212.81389250000024,
                    "velocity": 0.4251968503937008,
                    "duration": 0.27110049999998864
                },
                {
                    "name": "F5",
                    "midi": 77,
                    "time": 212.81389250000024,
                    "velocity": 0.4251968503937008,
                    "duration": 0.27110049999998864
                },
                {
                    "name": "E4",
                    "midi": 64,
                    "time": 213.08499300000022,
                    "velocity": 0.4251968503937008,
                    "duration": 1.6266029999999887
                },
                {
                    "name": "C5",
                    "midi": 72,
                    "time": 213.08499300000022,
                    "velocity": 0.4251968503937008,
                    "duration": 1.6266029999999887
                },
                {
                    "name": "E5",
                    "midi": 76,
                    "time": 213.08499300000022,
                    "velocity": 0.4251968503937008,
                    "duration": 1.6266029999999887
                },
                {
                    "name": "E5",
                    "midi": 76,
                    "time": 214.7115960000002,
                    "velocity": 0.4251968503937008,
                    "duration": 0.47442587500000855
                },
                {
                    "name": "F5",
                    "midi": 77,
                    "time": 215.18602187500022,
                    "velocity": 0.3464566929133858,
                    "duration": 0.06777512499999716
                },
                {
                    "name": "E5",
                    "midi": 76,
                    "time": 215.25379700000022,
                    "velocity": 0.4251968503937008,
                    "duration": 0.18073366666666857
                },
                {
                    "name": "C5",
                    "midi": 72,
                    "time": 215.4345306666669,
                    "velocity": 0.3937007874015748,
                    "duration": 0.18073366666666857
                },
                {
                    "name": "A4",
                    "midi": 69,
                    "time": 215.61526433333356,
                    "velocity": 0.3700787401574803,
                    "duration": 0.11295854166667141
                },
                {
                    "name": "D5",
                    "midi": 74,
                    "time": 215.72822287500023,
                    "velocity": 0.3464566929133858,
                    "duration": 0.06777512499999716
                },
                {
                    "name": "C5",
                    "midi": 72,
                    "time": 215.79599800000022,
                    "velocity": 0.4251968503937008,
                    "duration": 0.18073366666666857
                },
                {
                    "name": "A4",
                    "midi": 69,
                    "time": 215.9767316666669,
                    "velocity": 0.4015748031496063,
                    "duration": 0.18073366666666857
                },
                {
                    "name": "E4",
                    "midi": 64,
                    "time": 216.15746533333356,
                    "velocity": 0.3700787401574803,
                    "duration": 0.18073366666666857
                },
                {
                    "name": "E4",
                    "midi": 64,
                    "time": 216.33819900000023,
                    "velocity": 0.3543307086614173,
                    "duration": 0.5422009999999773
                },
                {
                    "name": "A4",
                    "midi": 69,
                    "time": 216.33819900000023,
                    "velocity": 0.3543307086614173,
                    "duration": 0.27110049999998864
                },
                {
                    "name": "C5",
                    "midi": 72,
                    "time": 216.33819900000023,
                    "velocity": 0.4251968503937008,
                    "duration": 0.27110049999998864
                },
                {
                    "name": "G#4",
                    "midi": 68,
                    "time": 216.60929950000022,
                    "velocity": 0.33858267716535434,
                    "duration": 0.27110049999998864
                },
                {
                    "name": "B4",
                    "midi": 71,
                    "time": 216.60929950000022,
                    "velocity": 0.4015748031496063,
                    "duration": 0.27110049999998864
                },
                {
                    "name": "G#4",
                    "midi": 68,
                    "time": 216.8804000000002,
                    "velocity": 0.4251968503937008,
                    "duration": 0.27110049999998864
                },
                {
                    "name": "E4",
                    "midi": 64,
                    "time": 216.8804000000002,
                    "velocity": 0.3543307086614173,
                    "duration": 0.27110049999998864
                },
                {
                    "name": "B4",
                    "midi": 71,
                    "time": 216.8804000000002,
                    "velocity": 0.4251968503937008,
                    "duration": 0.27110049999998864
                },
                {
                    "name": "F#4",
                    "midi": 66,
                    "time": 217.1515005000002,
                    "velocity": 0.33858267716535434,
                    "duration": 0.27110049999998864
                },
                {
                    "name": "E4",
                    "midi": 64,
                    "time": 217.1515005000002,
                    "velocity": 0.33858267716535434,
                    "duration": 0.27110049999998864
                },
                {
                    "name": "A4",
                    "midi": 69,
                    "time": 217.1515005000002,
                    "velocity": 0.4015748031496063,
                    "duration": 0.27110049999998864
                },
                {
                    "name": "E4",
                    "midi": 64,
                    "time": 217.42260100000018,
                    "velocity": 0.3543307086614173,
                    "duration": 0.5422010000000057
                },
                {
                    "name": "G#4",
                    "midi": 68,
                    "time": 217.42260100000018,
                    "velocity": 0.3543307086614173,
                    "duration": 0.5422010000000057
                },
                {
                    "name": "B4",
                    "midi": 71,
                    "time": 217.42260100000018,
                    "velocity": 0.4251968503937008,
                    "duration": 0.5422010000000057
                },
                {
                    "name": "E4",
                    "midi": 64,
                    "time": 217.9648020000002,
                    "velocity": 0.3543307086614173,
                    "duration": 0.5422009999999773
                },
                {
                    "name": "G4",
                    "midi": 67,
                    "time": 217.9648020000002,
                    "velocity": 0.3543307086614173,
                    "duration": 0.5422009999999773
                },
                {
                    "name": "C5",
                    "midi": 72,
                    "time": 217.9648020000002,
                    "velocity": 0.4251968503937008,
                    "duration": 0.27110049999998864
                },
                {
                    "name": "B4",
                    "midi": 71,
                    "time": 218.23590250000018,
                    "velocity": 0.4015748031496063,
                    "duration": 0.27110049999998864
                },
                {
                    "name": "E4",
                    "midi": 64,
                    "time": 218.50700300000017,
                    "velocity": 0.3543307086614173,
                    "duration": 0.27110049999998864
                },
                {
                    "name": "G4",
                    "midi": 67,
                    "time": 218.50700300000017,
                    "velocity": 0.3543307086614173,
                    "duration": 0.27110049999998864
                },
                {
                    "name": "B4",
                    "midi": 71,
                    "time": 218.50700300000017,
                    "velocity": 0.4251968503937008,
                    "duration": 0.27110049999998864
                },
                {
                    "name": "E4",
                    "midi": 64,
                    "time": 218.77810350000016,
                    "velocity": 0.3464566929133858,
                    "duration": 0.27110049999998864
                },
                {
                    "name": "G4",
                    "midi": 67,
                    "time": 218.77810350000016,
                    "velocity": 0.3464566929133858,
                    "duration": 0.27110049999998864
                },
                {
                    "name": "C5",
                    "midi": 72,
                    "time": 218.77810350000016,
                    "velocity": 0.4094488188976378,
                    "duration": 0.27110049999998864
                },
                {
                    "name": "G4",
                    "midi": 67,
                    "time": 219.04920400000015,
                    "velocity": 0.3543307086614173,
                    "duration": 0.5422009999999773
                },
                {
                    "name": "B4",
                    "midi": 71,
                    "time": 219.04920400000015,
                    "velocity": 0.4251968503937008,
                    "duration": 0.27110049999998864
                },
                {
                    "name": "F5",
                    "midi": 77,
                    "time": 219.32030450000013,
                    "velocity": 0.41732283464566927,
                    "duration": 0.27110049999998864
                },
                {
                    "name": "E5",
                    "midi": 76,
                    "time": 219.59140500000012,
                    "velocity": 0.4251968503937008,
                    "duration": 0.47442587500000855
                },
                {
                    "name": "D5",
                    "midi": 74,
                    "time": 220.06583087500013,
                    "velocity": 0.33858267716535434,
                    "duration": 0.06777512499999716
                },
                {
                    "name": "C5",
                    "midi": 72,
                    "time": 220.13360600000013,
                    "velocity": 0.41732283464566927,
                    "duration": 0.18073366666666857
                },
                {
                    "name": "B4",
                    "midi": 71,
                    "time": 220.3143396666668,
                    "velocity": 0.4015748031496063,
                    "duration": 0.18073366666666857
                },
                {
                    "name": "A4",
                    "midi": 69,
                    "time": 220.49507333333347,
                    "velocity": 0.4094488188976378,
                    "duration": 0.18073366666666857
                },
                {
                    "name": "B4",
                    "midi": 71,
                    "time": 220.67580700000013,
                    "velocity": 0.4330708661417323,
                    "duration": 0.5422010000000057
                },
                {
                    "name": "B4",
                    "midi": 71,
                    "time": 221.21800800000014,
                    "velocity": 0.5354330708661418,
                    "duration": 0.47442587500000855
                },
                {
                    "name": "C5",
                    "midi": 72,
                    "time": 221.69243387500015,
                    "velocity": 0.4566929133858268,
                    "duration": 0.06777512499999716
                },
                {
                    "name": "B4",
                    "midi": 71,
                    "time": 221.76020900000015,
                    "velocity": 0.5354330708661418,
                    "duration": 0.18073366666666857
                },
                {
                    "name": "G4",
                    "midi": 67,
                    "time": 221.9409426666668,
                    "velocity": 0.5196850393700787,
                    "duration": 0.18073366666666857
                },
                {
                    "name": "E4",
                    "midi": 64,
                    "time": 222.12167633333348,
                    "velocity": 0.5039370078740157,
                    "duration": 0.13555024999999432
                },
                {
                    "name": "G5",
                    "midi": 79,
                    "time": 222.30241000000015,
                    "velocity": 0.6456692913385826,
                    "duration": 0.27110049999998864
                },
                {
                    "name": "E5",
                    "midi": 76,
                    "time": 222.57351050000014,
                    "velocity": 0.5669291338582677,
                    "duration": 0.10166268750000995
                },
                {
                    "name": "B4",
                    "midi": 71,
                    "time": 222.84461100000016,
                    "velocity": 0.5511811023622047,
                    "duration": 0.47442587500000855
                },
                {
                    "name": "C5",
                    "midi": 72,
                    "time": 223.31903687500017,
                    "velocity": 0.47244094488188976,
                    "duration": 0.06777512499999716
                },
                {
                    "name": "B4",
                    "midi": 71,
                    "time": 223.38681200000016,
                    "velocity": 0.5590551181102362,
                    "duration": 0.18073366666666857
                },
                {
                    "name": "G4",
                    "midi": 67,
                    "time": 223.56754566666683,
                    "velocity": 0.5433070866141733,
                    "duration": 0.18073366666666857
                },
                {
                    "name": "E4",
                    "midi": 64,
                    "time": 223.7482793333335,
                    "velocity": 0.5196850393700787,
                    "duration": 0.13555024999999432
                },
                {
                    "name": "G5",
                    "midi": 79,
                    "time": 223.92901300000017,
                    "velocity": 0.6692913385826772,
                    "duration": 0.27110049999998864
                },
                {
                    "name": "E5",
                    "midi": 76,
                    "time": 224.20011350000016,
                    "velocity": 0.5826771653543307,
                    "duration": 0.10166268750000995
                },
                {
                    "name": "B5",
                    "midi": 83,
                    "time": 224.47121400000017,
                    "velocity": 0.7086614173228346,
                    "duration": 0.27110049999998864
                },
                {
                    "name": "D#5",
                    "midi": 75,
                    "time": 224.47121400000017,
                    "velocity": 0.7086614173228346,
                    "duration": 0.27110049999998864
                },
                {
                    "name": "F#5",
                    "midi": 78,
                    "time": 224.47121400000017,
                    "velocity": 0.7086614173228346,
                    "duration": 0.27110049999998864
                },
                {
                    "name": "B4",
                    "midi": 71,
                    "time": 224.74231450000016,
                    "velocity": 0.6850393700787402,
                    "duration": 0.10166268750000995
                },
                {
                    "name": "A5",
                    "midi": 81,
                    "time": 224.94563987500018,
                    "velocity": 0.5511811023622047,
                    "duration": 0.06777512499999716
                },
                {
                    "name": "G5",
                    "midi": 79,
                    "time": 225.01341500000018,
                    "velocity": 0.6850393700787402,
                    "duration": 0.18073366666666857
                },
                {
                    "name": "F#5",
                    "midi": 78,
                    "time": 225.19414866666685,
                    "velocity": 0.6535433070866141,
                    "duration": 0.18073366666666857
                },
                {
                    "name": "E5",
                    "midi": 76,
                    "time": 225.37488233333352,
                    "velocity": 0.6141732283464567,
                    "duration": 0.18073366666666857
                },
                {
                    "name": "B5",
                    "midi": 83,
                    "time": 225.55561600000019,
                    "velocity": 0.7322834645669292,
                    "duration": 0.27110049999998864
                },
                {
                    "name": "D#5",
                    "midi": 75,
                    "time": 225.55561600000019,
                    "velocity": 0.7322834645669292,
                    "duration": 0.27110049999998864
                },
                {
                    "name": "F#5",
                    "midi": 78,
                    "time": 225.55561600000019,
                    "velocity": 0.7322834645669292,
                    "duration": 0.27110049999998864
                },
                {
                    "name": "B4",
                    "midi": 71,
                    "time": 225.82671650000017,
                    "velocity": 0.6771653543307087,
                    "duration": 0.10166268750000995
                },
                {
                    "name": "A5",
                    "midi": 81,
                    "time": 226.0300418750002,
                    "velocity": 0.5669291338582677,
                    "duration": 0.06777512499999716
                },
                {
                    "name": "G5",
                    "midi": 79,
                    "time": 226.0978170000002,
                    "velocity": 0.7007874015748031,
                    "duration": 0.18073366666666857
                },
                {
                    "name": "F#5",
                    "midi": 78,
                    "time": 226.27855066666686,
                    "velocity": 0.6692913385826772,
                    "duration": 0.18073366666666857
                },
                {
                    "name": "E5",
                    "midi": 76,
                    "time": 226.45928433333353,
                    "velocity": 0.6456692913385826,
                    "duration": 0.18073366666666857
                },
                {
                    "name": "B5",
                    "midi": 83,
                    "time": 226.6400180000002,
                    "velocity": 0.7480314960629921,
                    "duration": 0.27110049999998864
                },
                {
                    "name": "D#5",
                    "midi": 75,
                    "time": 226.6400180000002,
                    "velocity": 0.7480314960629921,
                    "duration": 0.27110049999998864
                },
                {
                    "name": "F#5",
                    "midi": 78,
                    "time": 226.6400180000002,
                    "velocity": 0.7480314960629921,
                    "duration": 0.27110049999998864
                },
                {
                    "name": "B4",
                    "midi": 71,
                    "time": 226.91111850000019,
                    "velocity": 0.7007874015748031,
                    "duration": 0.10166268750000995
                },
                {
                    "name": "B6",
                    "midi": 95,
                    "time": 227.1822190000002,
                    "velocity": 0.905511811023622,
                    "duration": 0.27110049999998864
                },
                {
                    "name": "B5",
                    "midi": 83,
                    "time": 227.4533195000002,
                    "velocity": 0.7322834645669292,
                    "duration": 0.10166268750000995
                },
                {
                    "name": "G5",
                    "midi": 79,
                    "time": 229.3510230000002,
                    "velocity": 0.3543307086614173,
                    "duration": 0.27110049999998864
                },
                {
                    "name": "E5",
                    "midi": 76,
                    "time": 229.62212350000019,
                    "velocity": 0.23622047244094488,
                    "duration": 0.13555024999999432
                },
                {
                    "name": "G5",
                    "midi": 79,
                    "time": 229.89322400000017,
                    "velocity": 0.33858267716535434,
                    "duration": 0.27110049999998864
                },
                {
                    "name": "E5",
                    "midi": 76,
                    "time": 230.16432450000016,
                    "velocity": 0.2440944881889764,
                    "duration": 0.13555024999999432
                },
                {
                    "name": "G5",
                    "midi": 79,
                    "time": 230.43542500000015,
                    "velocity": 0.33070866141732286,
                    "duration": 0.27110049999998864
                },
                {
                    "name": "E5",
                    "midi": 76,
                    "time": 230.70652550000014,
                    "velocity": 0.2440944881889764,
                    "duration": 0.13555024999999432
                },
                {
                    "name": "G5",
                    "midi": 79,
                    "time": 230.97762600000013,
                    "velocity": 0.3228346456692913,
                    "duration": 0.27110049999998864
                },
                {
                    "name": "E5",
                    "midi": 76,
                    "time": 231.24872650000012,
                    "velocity": 0.2283464566929134,
                    "duration": 0.13555024999999432
                },
                {
                    "name": "G5",
                    "midi": 79,
                    "time": 231.5198270000001,
                    "velocity": 0.2992125984251969,
                    "duration": 0.27110049999998864
                },
                {
                    "name": "E5",
                    "midi": 76,
                    "time": 231.7909275000001,
                    "velocity": 0.2125984251968504,
                    "duration": 0.13555024999999432
                },
                {
                    "name": "G5",
                    "midi": 79,
                    "time": 232.06202800000008,
                    "velocity": 0.29133858267716534,
                    "duration": 0.27110049999998864
                },
                {
                    "name": "E5",
                    "midi": 76,
                    "time": 232.33312850000007,
                    "velocity": 0.2047244094488189,
                    "duration": 0.13555024999999432
                },
                {
                    "name": "G5",
                    "midi": 79,
                    "time": 232.60422900000006,
                    "velocity": 0.28346456692913385,
                    "duration": 0.27110049999998864
                },
                {
                    "name": "E5",
                    "midi": 76,
                    "time": 232.60422900000006,
                    "velocity": 0.28346456692913385,
                    "duration": 0.27110049999998864
                },
                {
                    "name": "G4",
                    "midi": 67,
                    "time": 232.87532950000005,
                    "velocity": 0.2125984251968504,
                    "duration": 0.13555024999999432
                },
                {
                    "name": "E5",
                    "midi": 76,
                    "time": 233.14643000000004,
                    "velocity": 0.28346456692913385,
                    "duration": 0.27110049999998864
                },
                {
                    "name": "G5",
                    "midi": 79,
                    "time": 233.14643000000004,
                    "velocity": 0.28346456692913385,
                    "duration": 0.27110049999998864
                },
                {
                    "name": "G4",
                    "midi": 67,
                    "time": 233.41753050000003,
                    "velocity": 0.2125984251968504,
                    "duration": 0.13555024999999432
                },
                {
                    "name": "E5",
                    "midi": 76,
                    "time": 233.68863100000002,
                    "velocity": 0.28346456692913385,
                    "duration": 0.27110049999998864
                },
                {
                    "name": "G5",
                    "midi": 79,
                    "time": 233.68863100000002,
                    "velocity": 0.28346456692913385,
                    "duration": 0.27110049999998864
                },
                {
                    "name": "G4",
                    "midi": 67,
                    "time": 233.9597315,
                    "velocity": 0.2125984251968504,
                    "duration": 0.13555024999999432
                },
                {
                    "name": "E5",
                    "midi": 76,
                    "time": 234.230832,
                    "velocity": 0.2992125984251969,
                    "duration": 0.27110049999998864
                },
                {
                    "name": "G5",
                    "midi": 79,
                    "time": 234.230832,
                    "velocity": 0.2992125984251969,
                    "duration": 0.27110049999998864
                },
                {
                    "name": "G4",
                    "midi": 67,
                    "time": 234.50193249999998,
                    "velocity": 0.2283464566929134,
                    "duration": 0.13555024999999432
                },
                {
                    "name": "E5",
                    "midi": 76,
                    "time": 234.77303299999997,
                    "velocity": 0.2992125984251969,
                    "duration": 0.27110049999998864
                },
                {
                    "name": "G5",
                    "midi": 79,
                    "time": 234.77303299999997,
                    "velocity": 0.2992125984251969,
                    "duration": 0.27110049999998864
                },
                {
                    "name": "G4",
                    "midi": 67,
                    "time": 235.04413349999996,
                    "velocity": 0.2125984251968504,
                    "duration": 0.13555024999999432
                },
                {
                    "name": "E5",
                    "midi": 76,
                    "time": 235.31523399999995,
                    "velocity": 0.2677165354330709,
                    "duration": 0.27110049999998864
                },
                {
                    "name": "G5",
                    "midi": 79,
                    "time": 235.31523399999995,
                    "velocity": 0.2677165354330709,
                    "duration": 0.27110049999998864
                },
                {
                    "name": "G4",
                    "midi": 67,
                    "time": 235.58633449999994,
                    "velocity": 0.2047244094488189,
                    "duration": 0.13555024999999432
                },
                {
                    "name": "G4",
                    "midi": 67,
                    "time": 235.85743499999992,
                    "velocity": 0.3700787401574803,
                    "duration": 0.47442587500000855
                },
                {
                    "name": "A4",
                    "midi": 69,
                    "time": 236.33186087499993,
                    "velocity": 0.3464566929133858,
                    "duration": 0.06777512499999716
                },
                {
                    "name": "G4",
                    "midi": 67,
                    "time": 236.39963599999993,
                    "velocity": 0.4094488188976378,
                    "duration": 0.18073366666666857
                },
                {
                    "name": "E4",
                    "midi": 64,
                    "time": 236.5803696666666,
                    "velocity": 0.3858267716535433,
                    "duration": 0.18073366666666857
                },
                {
                    "name": "C4",
                    "midi": 60,
                    "time": 236.76110333333327,
                    "velocity": 0.33070866141732286,
                    "duration": 0.18073366666666857
                },
                {
                    "name": "G4",
                    "midi": 67,
                    "time": 236.94183699999994,
                    "velocity": 0.4094488188976378,
                    "duration": 0.4066507500000114
                },
                {
                    "name": "E5",
                    "midi": 76,
                    "time": 237.34848774999995,
                    "velocity": 0.3779527559055118,
                    "duration": 0.13555024999999432
                },
                {
                    "name": "E5",
                    "midi": 76,
                    "time": 237.48403799999994,
                    "velocity": 0.4094488188976378,
                    "duration": 1.0844020000000114
                },
                {
                    "name": "C5",
                    "midi": 72,
                    "time": 238.56843999999995,
                    "velocity": 0.2755905511811024,
                    "duration": 0.27110049999998864
                },
                {
                    "name": "G5",
                    "midi": 79,
                    "time": 239.11064099999993,
                    "velocity": 0.5511811023622047,
                    "duration": 0.47442587500000855
                },
                {
                    "name": "F5",
                    "midi": 77,
                    "time": 239.58506687499994,
                    "velocity": 0.4015748031496063,
                    "duration": 0.06777512499999716
                },
                {
                    "name": "E5",
                    "midi": 76,
                    "time": 239.65284199999994,
                    "velocity": 0.48031496062992124,
                    "duration": 0.18073366666666857
                },
                {
                    "name": "C5",
                    "midi": 72,
                    "time": 239.8335756666666,
                    "velocity": 0.44881889763779526,
                    "duration": 0.18073366666666857
                },
                {
                    "name": "G4",
                    "midi": 67,
                    "time": 240.01430933333327,
                    "velocity": 0.4330708661417323,
                    "duration": 0.18073366666666857
                },
                {
                    "name": "C5",
                    "midi": 72,
                    "time": 240.19504299999994,
                    "velocity": 0.49606299212598426,
                    "duration": 0.18073366666666857
                },
                {
                    "name": "E5",
                    "midi": 76,
                    "time": 240.3757766666666,
                    "velocity": 0.4645669291338583,
                    "duration": 0.18073366666666857
                },
                {
                    "name": "G5",
                    "midi": 79,
                    "time": 240.55651033333328,
                    "velocity": 0.4409448818897638,
                    "duration": 0.18073366666666857
                },
                {
                    "name": "G4",
                    "midi": 67,
                    "time": 240.73724399999995,
                    "velocity": 0.5511811023622047,
                    "duration": 0.13555024999999432
                },
                {
                    "name": "E5",
                    "midi": 76,
                    "time": 240.73724399999995,
                    "velocity": 0.5511811023622047,
                    "duration": 0.13555024999999432
                },
                {
                    "name": "G5",
                    "midi": 79,
                    "time": 240.73724399999995,
                    "velocity": 0.5511811023622047,
                    "duration": 0.13555024999999432
                },
                {
                    "name": "G4",
                    "midi": 67,
                    "time": 241.00834449999994,
                    "velocity": 0.5196850393700787,
                    "duration": 0.13555024999999432
                },
                {
                    "name": "D5",
                    "midi": 74,
                    "time": 241.00834449999994,
                    "velocity": 0.5196850393700787,
                    "duration": 0.13555024999999432
                },
                {
                    "name": "F5",
                    "midi": 77,
                    "time": 241.00834449999994,
                    "velocity": 0.5196850393700787,
                    "duration": 0.13555024999999432
                },
                {
                    "name": "G4",
                    "midi": 67,
                    "time": 241.27944499999992,
                    "velocity": 0.5511811023622047,
                    "duration": 0.10166268750000995
                },
                {
                    "name": "C5",
                    "midi": 72,
                    "time": 241.27944499999992,
                    "velocity": 0.5511811023622047,
                    "duration": 0.10166268750000995
                },
                {
                    "name": "E5",
                    "midi": 76,
                    "time": 241.27944499999992,
                    "velocity": 0.5511811023622047,
                    "duration": 0.10166268750000995
                },
                {
                    "name": "G4",
                    "midi": 67,
                    "time": 241.55054549999994,
                    "velocity": 0.49606299212598426,
                    "duration": 0.10166268750000995
                },
                {
                    "name": "B4",
                    "midi": 71,
                    "time": 241.55054549999994,
                    "velocity": 0.49606299212598426,
                    "duration": 0.10166268750000995
                },
                {
                    "name": "D5",
                    "midi": 74,
                    "time": 241.55054549999994,
                    "velocity": 0.49606299212598426,
                    "duration": 0.10166268750000995
                },
                {
                    "name": "G4",
                    "midi": 67,
                    "time": 241.82164599999996,
                    "velocity": 0.5511811023622047,
                    "duration": 0.13555024999999432
                },
                {
                    "name": "C5",
                    "midi": 72,
                    "time": 241.82164599999996,
                    "velocity": 0.5511811023622047,
                    "duration": 0.13555024999999432
                },
                {
                    "name": "E5",
                    "midi": 76,
                    "time": 241.82164599999996,
                    "velocity": 0.5511811023622047,
                    "duration": 0.13555024999999432
                },
                {
                    "name": "G4",
                    "midi": 67,
                    "time": 242.36384699999996,
                    "velocity": 0.3543307086614173,
                    "duration": 0.27110049999998864
                },
                {
                    "name": "A4",
                    "midi": 69,
                    "time": 242.63494749999995,
                    "velocity": 0.3228346456692913,
                    "duration": 0.13555024999999432
                },
                {
                    "name": "B4",
                    "midi": 71,
                    "time": 242.77049774999995,
                    "velocity": 0.3228346456692913,
                    "duration": 0.13555024999999432
                },
                {
                    "name": "C5",
                    "midi": 72,
                    "time": 242.90604799999994,
                    "velocity": 0.3543307086614173,
                    "duration": 0.10166268750000995
                },
                {
                    "name": "G4",
                    "midi": 67,
                    "time": 243.17714849999996,
                    "velocity": 0.30708661417322836,
                    "duration": 0.10166268750000995
                },
                {
                    "name": "C5",
                    "midi": 72,
                    "time": 243.44824899999998,
                    "velocity": 0.3779527559055118,
                    "duration": 0.10166268750000995
                },
                {
                    "name": "A#4",
                    "midi": 70,
                    "time": 243.7193495,
                    "velocity": 0.5118110236220472,
                    "duration": 0.13555024999999432
                },
                {
                    "name": "A#5",
                    "midi": 82,
                    "time": 243.7193495,
                    "velocity": 0.5118110236220472,
                    "duration": 0.13555024999999432
                },
                {
                    "name": "A#4",
                    "midi": 70,
                    "time": 243.99044999999998,
                    "velocity": 0.5275590551181102,
                    "duration": 0.13555024999999432
                },
                {
                    "name": "A#5",
                    "midi": 82,
                    "time": 243.99044999999998,
                    "velocity": 0.5275590551181102,
                    "duration": 0.13555024999999432
                },
                {
                    "name": "D#6",
                    "midi": 87,
                    "time": 244.26155049999997,
                    "velocity": 0.5511811023622047,
                    "duration": 0.13555024999999432
                },
                {
                    "name": "D#5",
                    "midi": 75,
                    "time": 244.26155049999997,
                    "velocity": 0.5511811023622047,
                    "duration": 0.13555024999999432
                },
                {
                    "name": "D#6",
                    "midi": 87,
                    "time": 244.53265099999996,
                    "velocity": 0.5748031496062992,
                    "duration": 0.13555024999999432
                },
                {
                    "name": "D#5",
                    "midi": 75,
                    "time": 244.53265099999996,
                    "velocity": 0.5748031496062992,
                    "duration": 0.13555024999999432
                },
                {
                    "name": "D6",
                    "midi": 86,
                    "time": 244.80375149999995,
                    "velocity": 0.5590551181102362,
                    "duration": 0.13555024999999432
                },
                {
                    "name": "D5",
                    "midi": 74,
                    "time": 244.80375149999995,
                    "velocity": 0.5590551181102362,
                    "duration": 0.13555024999999432
                },
                {
                    "name": "D5",
                    "midi": 74,
                    "time": 245.07485199999994,
                    "velocity": 0.6141732283464567,
                    "duration": 0.13555024999999432
                },
                {
                    "name": "D6",
                    "midi": 86,
                    "time": 245.07485199999994,
                    "velocity": 0.6141732283464567,
                    "duration": 0.13555024999999432
                },
                {
                    "name": "G6",
                    "midi": 91,
                    "time": 245.34595249999992,
                    "velocity": 0.6062992125984252,
                    "duration": 0.13555024999999432
                },
                {
                    "name": "G5",
                    "midi": 79,
                    "time": 245.34595249999992,
                    "velocity": 0.6062992125984252,
                    "duration": 0.13555024999999432
                },
                {
                    "name": "G5",
                    "midi": 79,
                    "time": 245.6170529999999,
                    "velocity": 0.6614173228346457,
                    "duration": 0.13555024999999432
                },
                {
                    "name": "G6",
                    "midi": 91,
                    "time": 245.6170529999999,
                    "velocity": 0.6614173228346457,
                    "duration": 0.13555024999999432
                },
                {
                    "name": "F6",
                    "midi": 89,
                    "time": 245.8881534999999,
                    "velocity": 0.5511811023622047,
                    "duration": 0.13555024999999432
                },
                {
                    "name": "F5",
                    "midi": 77,
                    "time": 245.8881534999999,
                    "velocity": 0.5511811023622047,
                    "duration": 0.13555024999999432
                },
                {
                    "name": "F6",
                    "midi": 89,
                    "time": 246.1592539999999,
                    "velocity": 0.5196850393700787,
                    "duration": 0.8133014999999943
                },
                {
                    "name": "F5",
                    "midi": 77,
                    "time": 246.1592539999999,
                    "velocity": 0.5196850393700787,
                    "duration": 0.8133014999999943
                },
                {
                    "name": "B4",
                    "midi": 71,
                    "time": 246.97255549999988,
                    "velocity": 0.3779527559055118,
                    "duration": 0.27110049999998864
                },
                {
                    "name": "B5",
                    "midi": 83,
                    "time": 246.97255549999988,
                    "velocity": 0.3779527559055118,
                    "duration": 0.27110049999998864
                },
                {
                    "name": "C6",
                    "midi": 84,
                    "time": 247.24365599999987,
                    "velocity": 0.3543307086614173,
                    "duration": 1.6266029999999887
                },
                {
                    "name": "C5",
                    "midi": 72,
                    "time": 247.24365599999987,
                    "velocity": 0.3543307086614173,
                    "duration": 1.6266029999999887
                }
            ],
            "controlChanges": {
                "7": [
                    {
                        "number": 7,
                        "time": 0,
                        "value": 0.7874015748031497
                    }
                ],
                "10": [
                    {
                        "number": 10,
                        "time": 0,
                        "value": 0.5039370078740157
                    }
                ],
                "91": [
                    {
                        "number": 91,
                        "time": 0,
                        "value": 1
                    },
                    {
                        "number": 91,
                        "time": 13.012823999999998,
                        "value": 1
                    },
                    {
                        "number": 91,
                        "time": 201.69877200000025,
                        "value": 1
                    }
                ]
            },
            "id": 1,
            "name": "Piano right",
            "instrumentNumber": 0,
            "instrument": "acoustic grand piano",
            "instrumentFamily": "piano",
            "channelNumber": 0,
            "isPercussion": false
        },
        {
            "startTime": 0.0011295854166666667,
            "duration": 248.87025900000012,
            "length": 1200,
            "notes": [
                {
                    "name": "G3",
                    "midi": 55,
                    "time": 0.0011295854166666667,
                    "velocity": 0.4251968503937008,
                    "duration": 0.47442587500000005
                },
                {
                    "name": "A3",
                    "midi": 57,
                    "time": 0.47442587500000005,
                    "velocity": 0.3464566929133858,
                    "duration": 0.06777512499999999
                },
                {
                    "name": "G3",
                    "midi": 55,
                    "time": 0.542201,
                    "velocity": 0.4251968503937008,
                    "duration": 0.18073366666666668
                },
                {
                    "name": "E3",
                    "midi": 52,
                    "time": 0.7229346666666667,
                    "velocity": 0.3937007874015748,
                    "duration": 0.18073366666666668
                },
                {
                    "name": "C3",
                    "midi": 48,
                    "time": 0.9036683333333334,
                    "velocity": 0.3700787401574803,
                    "duration": 0.18073366666666668
                },
                {
                    "name": "G3",
                    "midi": 55,
                    "time": 1.084402,
                    "velocity": 0.4251968503937008,
                    "duration": 0.40665075000000006
                },
                {
                    "name": "E4",
                    "midi": 64,
                    "time": 1.4910527500000001,
                    "velocity": 0.4015748031496063,
                    "duration": 0.1355502500000001
                },
                {
                    "name": "E4",
                    "midi": 64,
                    "time": 1.6266030000000002,
                    "velocity": 0.4251968503937008,
                    "duration": 1.0844019999999999
                },
                {
                    "name": "C4",
                    "midi": 60,
                    "time": 2.711005,
                    "velocity": 0.31496062992125984,
                    "duration": 0.2711005000000002
                },
                {
                    "name": "G2",
                    "midi": 43,
                    "time": 4.879809,
                    "velocity": 0.4015748031496063,
                    "duration": 0.13555024999999965
                },
                {
                    "name": "A2",
                    "midi": 45,
                    "time": 5.150909499999999,
                    "velocity": 0.36220472440944884,
                    "duration": 0.13555024999999965
                },
                {
                    "name": "B2",
                    "midi": 47,
                    "time": 5.286459749999999,
                    "velocity": 0.36220472440944884,
                    "duration": 0.13555024999999965
                },
                {
                    "name": "C3",
                    "midi": 48,
                    "time": 5.422009999999998,
                    "velocity": 0.4015748031496063,
                    "duration": 0.10166268750000018
                },
                {
                    "name": "G2",
                    "midi": 43,
                    "time": 5.693110499999999,
                    "velocity": 0.3543307086614173,
                    "duration": 0.10166268750000018
                },
                {
                    "name": "C3",
                    "midi": 48,
                    "time": 5.964210999999999,
                    "velocity": 0.4015748031496063,
                    "duration": 0.10166268750000018
                },
                {
                    "name": "G2",
                    "midi": 43,
                    "time": 6.506411999999999,
                    "velocity": 0.28346456692913385,
                    "duration": 0.2711005000000002
                },
                {
                    "name": "A2",
                    "midi": 45,
                    "time": 6.777512499999999,
                    "velocity": 0.2677165354330709,
                    "duration": 0.13555024999999965
                },
                {
                    "name": "B2",
                    "midi": 47,
                    "time": 6.913062749999999,
                    "velocity": 0.2755905511811024,
                    "duration": 0.13555024999999965
                },
                {
                    "name": "C3",
                    "midi": 48,
                    "time": 7.048612999999999,
                    "velocity": 0.28346456692913385,
                    "duration": 0.10166268750000018
                },
                {
                    "name": "G2",
                    "midi": 43,
                    "time": 7.319713499999999,
                    "velocity": 0.25984251968503935,
                    "duration": 0.10166268750000018
                },
                {
                    "name": "C3",
                    "midi": 48,
                    "time": 7.590813999999999,
                    "velocity": 0.28346456692913385,
                    "duration": 0.10166268750000018
                },
                {
                    "name": "A#2",
                    "midi": 46,
                    "time": 7.861914499999999,
                    "velocity": 0.25984251968503935,
                    "duration": 0.10166268750000018
                },
                {
                    "name": "A#2",
                    "midi": 46,
                    "time": 8.133015,
                    "velocity": 0.3858267716535433,
                    "duration": 0.2711004999999993
                },
                {
                    "name": "D#3",
                    "midi": 51,
                    "time": 8.4041155,
                    "velocity": 0.33858267716535434,
                    "duration": 0.20332537500000214
                },
                {
                    "name": "D#3",
                    "midi": 51,
                    "time": 8.675216000000002,
                    "velocity": 0.3937007874015748,
                    "duration": 0.2711005000000011
                },
                {
                    "name": "D3",
                    "midi": 50,
                    "time": 8.946316500000004,
                    "velocity": 0.3700787401574803,
                    "duration": 0.20332537500000214
                },
                {
                    "name": "D3",
                    "midi": 50,
                    "time": 9.217417000000006,
                    "velocity": 0.4409448818897638,
                    "duration": 0.2711005000000011
                },
                {
                    "name": "G3",
                    "midi": 55,
                    "time": 9.488517500000007,
                    "velocity": 0.4251968503937008,
                    "duration": 0.20332537500000214
                },
                {
                    "name": "G3",
                    "midi": 55,
                    "time": 9.75961800000001,
                    "velocity": 0.4645669291338583,
                    "duration": 0.2711004999999993
                },
                {
                    "name": "G2",
                    "midi": 43,
                    "time": 10.03071850000001,
                    "velocity": 0.44881889763779526,
                    "duration": 0.2711004999999993
                },
                {
                    "name": "G3",
                    "midi": 55,
                    "time": 10.03071850000001,
                    "velocity": 0.44881889763779526,
                    "duration": 0.2711004999999993
                },
                {
                    "name": "F3",
                    "midi": 53,
                    "time": 10.03071850000001,
                    "velocity": 0.44881889763779526,
                    "duration": 0.2711004999999993
                },
                {
                    "name": "F3",
                    "midi": 53,
                    "time": 10.301819000000009,
                    "velocity": 0.48031496062992124,
                    "duration": 0.8133015000000015
                },
                {
                    "name": "G2",
                    "midi": 43,
                    "time": 10.301819000000009,
                    "velocity": 0.48031496062992124,
                    "duration": 0.8133015000000015
                },
                {
                    "name": "G3",
                    "midi": 55,
                    "time": 10.301819000000009,
                    "velocity": 0.48031496062992124,
                    "duration": 0.8133015000000015
                },
                {
                    "name": "D3",
                    "midi": 50,
                    "time": 11.11512050000001,
                    "velocity": 0.3779527559055118,
                    "duration": 0.2711004999999993
                },
                {
                    "name": "G2",
                    "midi": 43,
                    "time": 11.11512050000001,
                    "velocity": 0.3779527559055118,
                    "duration": 0.2711004999999993
                },
                {
                    "name": "G3",
                    "midi": 55,
                    "time": 11.11512050000001,
                    "velocity": 0.3779527559055118,
                    "duration": 0.2711004999999993
                },
                {
                    "name": "G3",
                    "midi": 55,
                    "time": 11.38622100000001,
                    "velocity": 0.3779527559055118,
                    "duration": 1.6266029999999994
                },
                {
                    "name": "C3",
                    "midi": 48,
                    "time": 11.38622100000001,
                    "velocity": 0.3779527559055118,
                    "duration": 1.6266029999999994
                },
                {
                    "name": "G3",
                    "midi": 55,
                    "time": 13.012824000000009,
                    "velocity": 0.4251968503937008,
                    "duration": 0.47442587499999966
                },
                {
                    "name": "A3",
                    "midi": 57,
                    "time": 13.487249875000009,
                    "velocity": 0.3464566929133858,
                    "duration": 0.06777512500000071
                },
                {
                    "name": "G3",
                    "midi": 55,
                    "time": 13.55502500000001,
                    "velocity": 0.4251968503937008,
                    "duration": 0.1807336666666668
                },
                {
                    "name": "E3",
                    "midi": 52,
                    "time": 13.735758666666676,
                    "velocity": 0.3937007874015748,
                    "duration": 0.1807336666666668
                },
                {
                    "name": "C3",
                    "midi": 48,
                    "time": 13.916492333333343,
                    "velocity": 0.3700787401574803,
                    "duration": 0.1807336666666668
                },
                {
                    "name": "G3",
                    "midi": 55,
                    "time": 14.09722600000001,
                    "velocity": 0.4251968503937008,
                    "duration": 0.4066507500000007
                },
                {
                    "name": "E4",
                    "midi": 64,
                    "time": 14.50387675000001,
                    "velocity": 0.4015748031496063,
                    "duration": 0.13555024999999965
                },
                {
                    "name": "E4",
                    "midi": 64,
                    "time": 14.63942700000001,
                    "velocity": 0.4251968503937008,
                    "duration": 1.0844020000000008
                },
                {
                    "name": "C4",
                    "midi": 60,
                    "time": 15.723829000000011,
                    "velocity": 0.31496062992125984,
                    "duration": 0.2711004999999993
                },
                {
                    "name": "G2",
                    "midi": 43,
                    "time": 17.89263300000001,
                    "velocity": 0.4015748031496063,
                    "duration": 0.13555025000000143
                },
                {
                    "name": "A2",
                    "midi": 45,
                    "time": 18.163733500000014,
                    "velocity": 0.36220472440944884,
                    "duration": 0.13555025000000143
                },
                {
                    "name": "B2",
                    "midi": 47,
                    "time": 18.299283750000015,
                    "velocity": 0.36220472440944884,
                    "duration": 0.13555025000000143
                },
                {
                    "name": "C3",
                    "midi": 48,
                    "time": 18.434834000000016,
                    "velocity": 0.4015748031496063,
                    "duration": 0.1016626874999993
                },
                {
                    "name": "G2",
                    "midi": 43,
                    "time": 18.705934500000016,
                    "velocity": 0.3543307086614173,
                    "duration": 0.1016626874999993
                },
                {
                    "name": "C3",
                    "midi": 48,
                    "time": 18.977035000000015,
                    "velocity": 0.4015748031496063,
                    "duration": 0.1016626874999993
                },
                {
                    "name": "G2",
                    "midi": 43,
                    "time": 19.519236000000014,
                    "velocity": 0.28346456692913385,
                    "duration": 0.2711004999999993
                },
                {
                    "name": "A2",
                    "midi": 45,
                    "time": 19.790336500000013,
                    "velocity": 0.2677165354330709,
                    "duration": 0.13555025000000143
                },
                {
                    "name": "B2",
                    "midi": 47,
                    "time": 19.925886750000014,
                    "velocity": 0.2755905511811024,
                    "duration": 0.13555025000000143
                },
                {
                    "name": "C3",
                    "midi": 48,
                    "time": 20.061437000000016,
                    "velocity": 0.28346456692913385,
                    "duration": 0.1016626874999993
                },
                {
                    "name": "G2",
                    "midi": 43,
                    "time": 20.332537500000015,
                    "velocity": 0.25984251968503935,
                    "duration": 0.1016626874999993
                },
                {
                    "name": "C3",
                    "midi": 48,
                    "time": 20.603638000000014,
                    "velocity": 0.2992125984251969,
                    "duration": 0.1016626874999993
                },
                {
                    "name": "A#2",
                    "midi": 46,
                    "time": 20.874738500000014,
                    "velocity": 0.28346456692913385,
                    "duration": 0.13555025000000143
                },
                {
                    "name": "A#2",
                    "midi": 46,
                    "time": 21.145839000000016,
                    "velocity": 0.3700787401574803,
                    "duration": 0.2711004999999993
                },
                {
                    "name": "D#3",
                    "midi": 51,
                    "time": 21.416939500000016,
                    "velocity": 0.33858267716535434,
                    "duration": 0.20332537500000214
                },
                {
                    "name": "D#3",
                    "midi": 51,
                    "time": 21.68804000000002,
                    "velocity": 0.3937007874015748,
                    "duration": 0.2711004999999993
                },
                {
                    "name": "D3",
                    "midi": 50,
                    "time": 21.959140500000018,
                    "velocity": 0.3779527559055118,
                    "duration": 0.20332537500000214
                },
                {
                    "name": "D3",
                    "midi": 50,
                    "time": 22.23024100000002,
                    "velocity": 0.4409448818897638,
                    "duration": 0.2711004999999993
                },
                {
                    "name": "G3",
                    "midi": 55,
                    "time": 22.50134150000002,
                    "velocity": 0.4094488188976378,
                    "duration": 0.20332537500000214
                },
                {
                    "name": "G3",
                    "midi": 55,
                    "time": 22.772442000000023,
                    "velocity": 0.4645669291338583,
                    "duration": 0.2711004999999993
                },
                {
                    "name": "G2",
                    "midi": 43,
                    "time": 23.043542500000022,
                    "velocity": 0.4409448818897638,
                    "duration": 0.2711004999999993
                },
                {
                    "name": "F3",
                    "midi": 53,
                    "time": 23.043542500000022,
                    "velocity": 0.4409448818897638,
                    "duration": 0.2711004999999993
                },
                {
                    "name": "G3",
                    "midi": 55,
                    "time": 23.043542500000022,
                    "velocity": 0.4409448818897638,
                    "duration": 0.2711004999999993
                },
                {
                    "name": "G2",
                    "midi": 43,
                    "time": 23.31464300000002,
                    "velocity": 0.49606299212598426,
                    "duration": 0.8133015000000015
                },
                {
                    "name": "F3",
                    "midi": 53,
                    "time": 23.31464300000002,
                    "velocity": 0.49606299212598426,
                    "duration": 0.8133015000000015
                },
                {
                    "name": "G3",
                    "midi": 55,
                    "time": 23.31464300000002,
                    "velocity": 0.49606299212598426,
                    "duration": 0.8133015000000015
                },
                {
                    "name": "G2",
                    "midi": 43,
                    "time": 24.127944500000023,
                    "velocity": 0.3779527559055118,
                    "duration": 0.2711004999999993
                },
                {
                    "name": "D3",
                    "midi": 50,
                    "time": 24.127944500000023,
                    "velocity": 0.3779527559055118,
                    "duration": 0.2711004999999993
                },
                {
                    "name": "G3",
                    "midi": 55,
                    "time": 24.127944500000023,
                    "velocity": 0.3779527559055118,
                    "duration": 0.2711004999999993
                },
                {
                    "name": "C3",
                    "midi": 48,
                    "time": 24.399045000000022,
                    "velocity": 0.3779527559055118,
                    "duration": 1.6266029999999994
                },
                {
                    "name": "G3",
                    "midi": 55,
                    "time": 24.399045000000022,
                    "velocity": 0.3779527559055118,
                    "duration": 1.6266029999999994
                },
                {
                    "name": "E3",
                    "midi": 52,
                    "time": 27.65225100000002,
                    "velocity": 0.4094488188976378,
                    "duration": 0.47442587500000144
                },
                {
                    "name": "F3",
                    "midi": 53,
                    "time": 28.126676875000022,
                    "velocity": 0.3464566929133858,
                    "duration": 0.06777512500000071
                },
                {
                    "name": "E3",
                    "midi": 52,
                    "time": 28.194452000000023,
                    "velocity": 0.4566929133858268,
                    "duration": 0.18073366666666857
                },
                {
                    "name": "B2",
                    "midi": 47,
                    "time": 28.37518566666669,
                    "velocity": 0.44881889763779526,
                    "duration": 0.18073366666666502
                },
                {
                    "name": "E2",
                    "midi": 40,
                    "time": 28.555919333333357,
                    "velocity": 0.4251968503937008,
                    "duration": 0.18073366666666502
                },
                {
                    "name": "E3",
                    "midi": 52,
                    "time": 28.73665300000002,
                    "velocity": 0.4645669291338583,
                    "duration": 0.5422009999999986
                },
                {
                    "name": "E3",
                    "midi": 52,
                    "time": 29.27885400000002,
                    "velocity": 0.4094488188976378,
                    "duration": 0.47442587500000144
                },
                {
                    "name": "F3",
                    "midi": 53,
                    "time": 29.753279875000022,
                    "velocity": 0.3464566929133858,
                    "duration": 0.06777512500000071
                },
                {
                    "name": "E3",
                    "midi": 52,
                    "time": 29.821055000000023,
                    "velocity": 0.4645669291338583,
                    "duration": 0.18073366666666857
                },
                {
                    "name": "G3",
                    "midi": 55,
                    "time": 30.00178866666669,
                    "velocity": 0.4330708661417323,
                    "duration": 0.18073366666666502
                },
                {
                    "name": "C4",
                    "midi": 60,
                    "time": 30.182522333333356,
                    "velocity": 0.41732283464566927,
                    "duration": 0.18073366666666502
                },
                {
                    "name": "F4",
                    "midi": 65,
                    "time": 30.36325600000002,
                    "velocity": 0.41732283464566927,
                    "duration": 0.5422009999999986
                },
                {
                    "name": "D4",
                    "midi": 62,
                    "time": 30.36325600000002,
                    "velocity": 0.3543307086614173,
                    "duration": 0.5422009999999986
                },
                {
                    "name": "E4",
                    "midi": 64,
                    "time": 30.90545700000002,
                    "velocity": 0.4094488188976378,
                    "duration": 0.5422010000000022
                },
                {
                    "name": "C4",
                    "midi": 60,
                    "time": 30.90545700000002,
                    "velocity": 0.3464566929133858,
                    "duration": 0.5422010000000022
                },
                {
                    "name": "F#4",
                    "midi": 66,
                    "time": 31.447658000000022,
                    "velocity": 0.4330708661417323,
                    "duration": 0.2711004999999993
                },
                {
                    "name": "D4",
                    "midi": 62,
                    "time": 31.447658000000022,
                    "velocity": 0.36220472440944884,
                    "duration": 0.2711004999999993
                },
                {
                    "name": "F#4",
                    "midi": 66,
                    "time": 31.71875850000002,
                    "velocity": 0.41732283464566927,
                    "duration": 0.2711004999999993
                },
                {
                    "name": "D4",
                    "midi": 62,
                    "time": 31.71875850000002,
                    "velocity": 0.3543307086614173,
                    "duration": 0.2711004999999993
                },
                {
                    "name": "D4",
                    "midi": 62,
                    "time": 31.98985900000002,
                    "velocity": 0.3700787401574803,
                    "duration": 0.5422010000000022
                },
                {
                    "name": "G3",
                    "midi": 55,
                    "time": 31.98985900000002,
                    "velocity": 0.3700787401574803,
                    "duration": 0.5422010000000022
                },
                {
                    "name": "G4",
                    "midi": 67,
                    "time": 31.98985900000002,
                    "velocity": 0.4409448818897638,
                    "duration": 0.5422010000000022
                },
                {
                    "name": "B3",
                    "midi": 59,
                    "time": 32.53206000000002,
                    "velocity": 0.48031496062992124,
                    "duration": 0.47442587500000144
                },
                {
                    "name": "C4",
                    "midi": 60,
                    "time": 33.006485875000024,
                    "velocity": 0.4015748031496063,
                    "duration": 0.06777512499999716
                },
                {
                    "name": "B3",
                    "midi": 59,
                    "time": 33.07426100000002,
                    "velocity": 0.48031496062992124,
                    "duration": 0.18073366666666857
                },
                {
                    "name": "G3",
                    "midi": 55,
                    "time": 33.25499466666669,
                    "velocity": 0.4645669291338583,
                    "duration": 0.18073366666666857
                },
                {
                    "name": "E3",
                    "midi": 52,
                    "time": 33.43572833333336,
                    "velocity": 0.4409448818897638,
                    "duration": 0.13555025000000143
                },
                {
                    "name": "G4",
                    "midi": 67,
                    "time": 33.61646200000003,
                    "velocity": 0.5826771653543307,
                    "duration": 0.27110050000000285
                },
                {
                    "name": "E4",
                    "midi": 64,
                    "time": 33.88756250000003,
                    "velocity": 0.5039370078740157,
                    "duration": 0.10166268750000285
                },
                {
                    "name": "B3",
                    "midi": 59,
                    "time": 34.15866300000003,
                    "velocity": 0.4881889763779528,
                    "duration": 0.47442587500000144
                },
                {
                    "name": "C4",
                    "midi": 60,
                    "time": 34.633088875000034,
                    "velocity": 0.41732283464566927,
                    "duration": 0.06777512499999716
                },
                {
                    "name": "B3",
                    "midi": 59,
                    "time": 34.70086400000003,
                    "velocity": 0.5039370078740157,
                    "duration": 0.18073366666666857
                },
                {
                    "name": "G3",
                    "midi": 55,
                    "time": 34.8815976666667,
                    "velocity": 0.48031496062992124,
                    "duration": 0.18073366666666857
                },
                {
                    "name": "E3",
                    "midi": 52,
                    "time": 35.06233133333337,
                    "velocity": 0.44881889763779526,
                    "duration": 0.13555024999999432
                },
                {
                    "name": "G4",
                    "midi": 67,
                    "time": 35.24306500000003,
                    "velocity": 0.5984251968503937,
                    "duration": 0.27110049999999575
                },
                {
                    "name": "E4",
                    "midi": 64,
                    "time": 35.514165500000026,
                    "velocity": 0.5196850393700787,
                    "duration": 0.10166268750000285
                },
                {
                    "name": "B2",
                    "midi": 47,
                    "time": 35.78526600000003,
                    "velocity": 0.6062992125984252,
                    "duration": 0.27110049999999575
                },
                {
                    "name": "B3",
                    "midi": 59,
                    "time": 36.056366500000024,
                    "velocity": 0.5669291338582677,
                    "duration": 0.10166268749999574
                },
                {
                    "name": "D#4",
                    "midi": 63,
                    "time": 36.25969187500002,
                    "velocity": 0.44881889763779526,
                    "duration": 0.06777512499999716
                },
                {
                    "name": "E4",
                    "midi": 64,
                    "time": 36.32746700000002,
                    "velocity": 0.5748031496062992,
                    "duration": 0.18073366666666857
                },
                {
                    "name": "F#4",
                    "midi": 66,
                    "time": 36.50820066666669,
                    "velocity": 0.5275590551181102,
                    "duration": 0.18073366666666857
                },
                {
                    "name": "G4",
                    "midi": 67,
                    "time": 36.68893433333336,
                    "velocity": 0.6141732283464567,
                    "duration": 0.18073366666666857
                },
                {
                    "name": "B2",
                    "midi": 47,
                    "time": 36.869668000000026,
                    "velocity": 0.6220472440944882,
                    "duration": 0.27110050000000285
                },
                {
                    "name": "B3",
                    "midi": 59,
                    "time": 37.14076850000003,
                    "velocity": 0.5748031496062992,
                    "duration": 0.10166268750000285
                },
                {
                    "name": "D#4",
                    "midi": 63,
                    "time": 37.344093875000034,
                    "velocity": 0.44881889763779526,
                    "duration": 0.06777512499999716
                },
                {
                    "name": "E4",
                    "midi": 64,
                    "time": 37.41186900000003,
                    "velocity": 0.5905511811023622,
                    "duration": 0.18073366666666857
                },
                {
                    "name": "F#4",
                    "midi": 66,
                    "time": 37.5926026666667,
                    "velocity": 0.5354330708661418,
                    "duration": 0.18073366666666857
                },
                {
                    "name": "G4",
                    "midi": 67,
                    "time": 37.77333633333337,
                    "velocity": 0.5196850393700787,
                    "duration": 0.18073366666666857
                },
                {
                    "name": "B2",
                    "midi": 47,
                    "time": 37.95407000000004,
                    "velocity": 0.6299212598425197,
                    "duration": 0.27110050000000285
                },
                {
                    "name": "B3",
                    "midi": 59,
                    "time": 38.22517050000004,
                    "velocity": 0.5905511811023622,
                    "duration": 0.10166268750000285
                },
                {
                    "name": "B1",
                    "midi": 35,
                    "time": 38.49627100000004,
                    "velocity": 0.6377952755905512,
                    "duration": 0.27110050000000285
                },
                {
                    "name": "B2",
                    "midi": 47,
                    "time": 38.767371500000046,
                    "velocity": 0.5511811023622047,
                    "duration": 0.10166268750000285
                },
                {
                    "name": "E4",
                    "midi": 64,
                    "time": 40.665075000000044,
                    "velocity": 0.28346456692913385,
                    "duration": 0.27110050000000285
                },
                {
                    "name": "G4",
                    "midi": 67,
                    "time": 40.93617550000005,
                    "velocity": 0.1968503937007874,
                    "duration": 0.13555025000000143
                },
                {
                    "name": "E4",
                    "midi": 64,
                    "time": 41.20727600000004,
                    "velocity": 0.2677165354330709,
                    "duration": 0.27110050000000285
                },
                {
                    "name": "G4",
                    "midi": 67,
                    "time": 41.478376500000046,
                    "velocity": 0.1968503937007874,
                    "duration": 0.13555025000000143
                },
                {
                    "name": "E4",
                    "midi": 64,
                    "time": 41.74947700000004,
                    "velocity": 0.25984251968503935,
                    "duration": 0.27110050000000285
                },
                {
                    "name": "G4",
                    "midi": 67,
                    "time": 42.020577500000044,
                    "velocity": 0.2047244094488189,
                    "duration": 0.13555025000000143
                },
                {
                    "name": "E4",
                    "midi": 64,
                    "time": 42.29167800000005,
                    "velocity": 0.25984251968503935,
                    "duration": 0.27110050000000285
                },
                {
                    "name": "G4",
                    "midi": 67,
                    "time": 42.56277850000005,
                    "velocity": 0.1889763779527559,
                    "duration": 0.13555025000000143
                },
                {
                    "name": "E4",
                    "midi": 64,
                    "time": 42.833879000000046,
                    "velocity": 0.2440944881889764,
                    "duration": 0.27110050000000285
                },
                {
                    "name": "G4",
                    "midi": 67,
                    "time": 43.10497950000005,
                    "velocity": 0.18110236220472442,
                    "duration": 0.13555025000000143
                },
                {
                    "name": "E4",
                    "midi": 64,
                    "time": 43.37608000000005,
                    "velocity": 0.23622047244094488,
                    "duration": 0.27110050000000285
                },
                {
                    "name": "G4",
                    "midi": 67,
                    "time": 43.647180500000054,
                    "velocity": 0.16535433070866143,
                    "duration": 0.13555025000000143
                },
                {
                    "name": "G3",
                    "midi": 55,
                    "time": 43.91828100000006,
                    "velocity": 0.3779527559055118,
                    "duration": 0.47442587500000144
                },
                {
                    "name": "A3",
                    "midi": 57,
                    "time": 44.39270687500006,
                    "velocity": 0.31496062992125984,
                    "duration": 0.06777512499999716
                },
                {
                    "name": "G3",
                    "midi": 55,
                    "time": 44.460482000000056,
                    "velocity": 0.3779527559055118,
                    "duration": 0.18073366666666146
                },
                {
                    "name": "E3",
                    "midi": 52,
                    "time": 44.64121566666672,
                    "velocity": 0.3543307086614173,
                    "duration": 0.18073366666666857
                },
                {
                    "name": "C3",
                    "midi": 48,
                    "time": 44.821949333333386,
                    "velocity": 0.30708661417322836,
                    "duration": 0.18073366666666857
                },
                {
                    "name": "G3",
                    "midi": 55,
                    "time": 45.002683000000054,
                    "velocity": 0.3779527559055118,
                    "duration": 0.4066507500000043
                },
                {
                    "name": "E4",
                    "midi": 64,
                    "time": 45.40933375000006,
                    "velocity": 0.3543307086614173,
                    "duration": 0.13555025000000143
                },
                {
                    "name": "E4",
                    "midi": 64,
                    "time": 45.54488400000006,
                    "velocity": 0.3779527559055118,
                    "duration": 1.0844020000000043
                },
                {
                    "name": "C4",
                    "midi": 60,
                    "time": 46.629286000000064,
                    "velocity": 0.28346456692913385,
                    "duration": 0.27110050000000285
                },
                {
                    "name": "G3",
                    "midi": 55,
                    "time": 48.79809000000007,
                    "velocity": 0.3779527559055118,
                    "duration": 0.47442587500000144
                },
                {
                    "name": "A3",
                    "midi": 57,
                    "time": 49.272515875000074,
                    "velocity": 0.31496062992125984,
                    "duration": 0.06777512499999716
                },
                {
                    "name": "G3",
                    "midi": 55,
                    "time": 49.34029100000007,
                    "velocity": 0.3779527559055118,
                    "duration": 0.18073366666666146
                },
                {
                    "name": "E3",
                    "midi": 52,
                    "time": 49.52102466666673,
                    "velocity": 0.3543307086614173,
                    "duration": 0.18073366666666857
                },
                {
                    "name": "C3",
                    "midi": 48,
                    "time": 49.7017583333334,
                    "velocity": 0.3228346456692913,
                    "duration": 0.18073366666666857
                },
                {
                    "name": "G3",
                    "midi": 55,
                    "time": 49.88249200000007,
                    "velocity": 0.3779527559055118,
                    "duration": 0.4066507499999972
                },
                {
                    "name": "E4",
                    "midi": 64,
                    "time": 50.28914275000007,
                    "velocity": 0.3543307086614173,
                    "duration": 0.13555025000000143
                },
                {
                    "name": "E4",
                    "midi": 64,
                    "time": 50.42469300000007,
                    "velocity": 0.3779527559055118,
                    "duration": 1.0844020000000043
                },
                {
                    "name": "C4",
                    "midi": 60,
                    "time": 51.50909500000007,
                    "velocity": 0.2992125984251969,
                    "duration": 0.27110049999999575
                },
                {
                    "name": "G2",
                    "midi": 43,
                    "time": 52.05129600000007,
                    "velocity": 0.48031496062992124,
                    "duration": 0.13555025000000143
                },
                {
                    "name": "A2",
                    "midi": 45,
                    "time": 52.322396500000075,
                    "velocity": 0.4330708661417323,
                    "duration": 0.13555025000000143
                },
                {
                    "name": "B2",
                    "midi": 47,
                    "time": 52.457946750000076,
                    "velocity": 0.4330708661417323,
                    "duration": 0.13555025000000143
                },
                {
                    "name": "C3",
                    "midi": 48,
                    "time": 52.59349700000008,
                    "velocity": 0.48031496062992124,
                    "duration": 0.10166268750000285
                },
                {
                    "name": "G2",
                    "midi": 43,
                    "time": 52.86459750000008,
                    "velocity": 0.41732283464566927,
                    "duration": 0.10166268750000285
                },
                {
                    "name": "C3",
                    "midi": 48,
                    "time": 53.13569800000008,
                    "velocity": 0.48031496062992124,
                    "duration": 0.10166268750000285
                },
                {
                    "name": "D#3",
                    "midi": 51,
                    "time": 53.67789900000009,
                    "velocity": 0.2992125984251969,
                    "duration": 0.13555025000000143
                },
                {
                    "name": "G3",
                    "midi": 55,
                    "time": 53.67789900000009,
                    "velocity": 0.2992125984251969,
                    "duration": 0.13555025000000143
                },
                {
                    "name": "D3",
                    "midi": 50,
                    "time": 53.94899950000009,
                    "velocity": 0.2755905511811024,
                    "duration": 0.13555025000000143
                },
                {
                    "name": "F3",
                    "midi": 53,
                    "time": 53.94899950000009,
                    "velocity": 0.2755905511811024,
                    "duration": 0.13555025000000143
                },
                {
                    "name": "G3",
                    "midi": 55,
                    "time": 53.94899950000009,
                    "velocity": 0.2755905511811024,
                    "duration": 0.13555025000000143
                },
                {
                    "name": "C3",
                    "midi": 48,
                    "time": 54.220100000000095,
                    "velocity": 0.2992125984251969,
                    "duration": 0.10166268750000285
                },
                {
                    "name": "D#3",
                    "midi": 51,
                    "time": 54.220100000000095,
                    "velocity": 0.2992125984251969,
                    "duration": 0.10166268750000285
                },
                {
                    "name": "G3",
                    "midi": 55,
                    "time": 54.220100000000095,
                    "velocity": 0.2992125984251969,
                    "duration": 0.10166268750000285
                },
                {
                    "name": "B2",
                    "midi": 47,
                    "time": 54.4912005000001,
                    "velocity": 0.2755905511811024,
                    "duration": 0.10166268750000285
                },
                {
                    "name": "D3",
                    "midi": 50,
                    "time": 54.4912005000001,
                    "velocity": 0.2755905511811024,
                    "duration": 0.10166268750000285
                },
                {
                    "name": "G3",
                    "midi": 55,
                    "time": 54.4912005000001,
                    "velocity": 0.2755905511811024,
                    "duration": 0.10166268750000285
                },
                {
                    "name": "C3",
                    "midi": 48,
                    "time": 54.7623010000001,
                    "velocity": 0.33070866141732286,
                    "duration": 0.10166268750000285
                },
                {
                    "name": "D#3",
                    "midi": 51,
                    "time": 54.7623010000001,
                    "velocity": 0.33070866141732286,
                    "duration": 0.10166268750000285
                },
                {
                    "name": "G3",
                    "midi": 55,
                    "time": 54.7623010000001,
                    "velocity": 0.33070866141732286,
                    "duration": 0.10166268750000285
                },
                {
                    "name": "D3",
                    "midi": 50,
                    "time": 55.0334015000001,
                    "velocity": 0.4015748031496063,
                    "duration": 0.13555025000000143
                },
                {
                    "name": "F3",
                    "midi": 53,
                    "time": 55.0334015000001,
                    "velocity": 0.4015748031496063,
                    "duration": 0.13555025000000143
                },
                {
                    "name": "A#3",
                    "midi": 58,
                    "time": 55.0334015000001,
                    "velocity": 0.4015748031496063,
                    "duration": 0.13555025000000143
                },
                {
                    "name": "F3",
                    "midi": 53,
                    "time": 55.304502000000106,
                    "velocity": 0.4330708661417323,
                    "duration": 0.13555025000000143
                },
                {
                    "name": "G#3",
                    "midi": 56,
                    "time": 55.304502000000106,
                    "velocity": 0.4330708661417323,
                    "duration": 0.13555025000000143
                },
                {
                    "name": "A#3",
                    "midi": 58,
                    "time": 55.304502000000106,
                    "velocity": 0.4330708661417323,
                    "duration": 0.13555025000000143
                },
                {
                    "name": "D#3",
                    "midi": 51,
                    "time": 55.57560250000011,
                    "velocity": 0.3937007874015748,
                    "duration": 0.13555025000000143
                },
                {
                    "name": "G3",
                    "midi": 55,
                    "time": 55.57560250000011,
                    "velocity": 0.3937007874015748,
                    "duration": 0.13555025000000143
                },
                {
                    "name": "A#3",
                    "midi": 58,
                    "time": 55.57560250000011,
                    "velocity": 0.3937007874015748,
                    "duration": 0.13555025000000143
                },
                {
                    "name": "D#3",
                    "midi": 51,
                    "time": 55.84670300000011,
                    "velocity": 0.4330708661417323,
                    "duration": 0.13555025000000143
                },
                {
                    "name": "G3",
                    "midi": 55,
                    "time": 55.84670300000011,
                    "velocity": 0.4330708661417323,
                    "duration": 0.13555025000000143
                },
                {
                    "name": "A#3",
                    "midi": 58,
                    "time": 55.84670300000011,
                    "velocity": 0.4330708661417323,
                    "duration": 0.13555025000000143
                },
                {
                    "name": "F#3",
                    "midi": 54,
                    "time": 56.117803500000115,
                    "velocity": 0.4015748031496063,
                    "duration": 0.13555025000000143
                },
                {
                    "name": "A3",
                    "midi": 57,
                    "time": 56.117803500000115,
                    "velocity": 0.4015748031496063,
                    "duration": 0.13555025000000143
                },
                {
                    "name": "D4",
                    "midi": 62,
                    "time": 56.117803500000115,
                    "velocity": 0.4015748031496063,
                    "duration": 0.13555025000000143
                },
                {
                    "name": "A3",
                    "midi": 57,
                    "time": 56.38890400000012,
                    "velocity": 0.5039370078740157,
                    "duration": 0.13555025000000143
                },
                {
                    "name": "C4",
                    "midi": 60,
                    "time": 56.38890400000012,
                    "velocity": 0.5039370078740157,
                    "duration": 0.13555025000000143
                },
                {
                    "name": "D4",
                    "midi": 62,
                    "time": 56.38890400000012,
                    "velocity": 0.5039370078740157,
                    "duration": 0.13555025000000143
                },
                {
                    "name": "G3",
                    "midi": 55,
                    "time": 56.66000450000012,
                    "velocity": 0.47244094488188976,
                    "duration": 0.13555025000000143
                },
                {
                    "name": "A#3",
                    "midi": 58,
                    "time": 56.66000450000012,
                    "velocity": 0.47244094488188976,
                    "duration": 0.13555025000000143
                },
                {
                    "name": "D4",
                    "midi": 62,
                    "time": 56.66000450000012,
                    "velocity": 0.47244094488188976,
                    "duration": 0.13555025000000143
                },
                {
                    "name": "G3",
                    "midi": 55,
                    "time": 56.93110500000012,
                    "velocity": 0.5118110236220472,
                    "duration": 0.13555025000000143
                },
                {
                    "name": "A#3",
                    "midi": 58,
                    "time": 56.93110500000012,
                    "velocity": 0.5118110236220472,
                    "duration": 0.13555025000000143
                },
                {
                    "name": "D4",
                    "midi": 62,
                    "time": 56.93110500000012,
                    "velocity": 0.5118110236220472,
                    "duration": 0.13555025000000143
                },
                {
                    "name": "G2",
                    "midi": 43,
                    "time": 57.202205500000126,
                    "velocity": 0.3858267716535433,
                    "duration": 0.13555025000000143
                },
                {
                    "name": "D3",
                    "midi": 50,
                    "time": 57.202205500000126,
                    "velocity": 0.3858267716535433,
                    "duration": 0.13555025000000143
                },
                {
                    "name": "B3",
                    "midi": 59,
                    "time": 57.202205500000126,
                    "velocity": 0.3858267716535433,
                    "duration": 0.13555025000000143
                },
                {
                    "name": "G2",
                    "midi": 43,
                    "time": 57.47330600000013,
                    "velocity": 0.3700787401574803,
                    "duration": 0.8133015000000015
                },
                {
                    "name": "D3",
                    "midi": 50,
                    "time": 57.47330600000013,
                    "velocity": 0.3700787401574803,
                    "duration": 0.8133015000000015
                },
                {
                    "name": "B3",
                    "midi": 59,
                    "time": 57.47330600000013,
                    "velocity": 0.3700787401574803,
                    "duration": 0.8133015000000015
                },
                {
                    "name": "F4",
                    "midi": 65,
                    "time": 58.28660750000013,
                    "velocity": 0.29133858267716534,
                    "duration": 0.27110050000000285
                },
                {
                    "name": "G4",
                    "midi": 67,
                    "time": 58.28660750000013,
                    "velocity": 0.29133858267716534,
                    "duration": 0.27110050000000285
                },
                {
                    "name": "G3",
                    "midi": 55,
                    "time": 58.28660750000013,
                    "velocity": 0.29133858267716534,
                    "duration": 0.27110050000000285
                },
                {
                    "name": "G4",
                    "midi": 67,
                    "time": 58.55770800000013,
                    "velocity": 0.2755905511811024,
                    "duration": 1.6266029999999958
                },
                {
                    "name": "E4",
                    "midi": 64,
                    "time": 58.55770800000013,
                    "velocity": 0.2755905511811024,
                    "duration": 1.6266029999999958
                },
                {
                    "name": "C4",
                    "midi": 60,
                    "time": 58.55770800000013,
                    "velocity": 0.2755905511811024,
                    "duration": 1.6266029999999958
                },
                {
                    "name": "E3",
                    "midi": 52,
                    "time": 61.81091400000013,
                    "velocity": 0.4094488188976378,
                    "duration": 0.47442587499999433
                },
                {
                    "name": "F3",
                    "midi": 53,
                    "time": 62.285339875000126,
                    "velocity": 0.3464566929133858,
                    "duration": 0.06777512499999716
                },
                {
                    "name": "E3",
                    "midi": 52,
                    "time": 62.35311500000012,
                    "velocity": 0.4566929133858268,
                    "duration": 0.18073366666666857
                },
                {
                    "name": "B2",
                    "midi": 47,
                    "time": 62.53384866666679,
                    "velocity": 0.44881889763779526,
                    "duration": 0.18073366666666857
                },
                {
                    "name": "E2",
                    "midi": 40,
                    "time": 62.71458233333346,
                    "velocity": 0.4251968503937008,
                    "duration": 0.18073366666666857
                },
                {
                    "name": "E3",
                    "midi": 52,
                    "time": 62.89531600000013,
                    "velocity": 0.4645669291338583,
                    "duration": 0.5422009999999986
                },
                {
                    "name": "E3",
                    "midi": 52,
                    "time": 63.43751700000013,
                    "velocity": 0.4094488188976378,
                    "duration": 0.47442587500000144
                },
                {
                    "name": "F3",
                    "midi": 53,
                    "time": 63.91194287500013,
                    "velocity": 0.3464566929133858,
                    "duration": 0.06777512499999716
                },
                {
                    "name": "E3",
                    "midi": 52,
                    "time": 63.979718000000126,
                    "velocity": 0.4645669291338583,
                    "duration": 0.18073366666666146
                },
                {
                    "name": "G3",
                    "midi": 55,
                    "time": 64.16045166666679,
                    "velocity": 0.4330708661417323,
                    "duration": 0.18073366666666857
                },
                {
                    "name": "C4",
                    "midi": 60,
                    "time": 64.34118533333346,
                    "velocity": 0.41732283464566927,
                    "duration": 0.18073366666666857
                },
                {
                    "name": "F4",
                    "midi": 65,
                    "time": 64.52191900000012,
                    "velocity": 0.41732283464566927,
                    "duration": 0.5422009999999915
                },
                {
                    "name": "D4",
                    "midi": 62,
                    "time": 64.52191900000012,
                    "velocity": 0.3543307086614173,
                    "duration": 0.5422009999999915
                },
                {
                    "name": "E4",
                    "midi": 64,
                    "time": 65.06412000000012,
                    "velocity": 0.4094488188976378,
                    "duration": 0.5422010000000057
                },
                {
                    "name": "C4",
                    "midi": 60,
                    "time": 65.06412000000012,
                    "velocity": 0.3464566929133858,
                    "duration": 0.5422010000000057
                },
                {
                    "name": "F#4",
                    "midi": 66,
                    "time": 65.60632100000012,
                    "velocity": 0.4330708661417323,
                    "duration": 0.27110049999998864
                },
                {
                    "name": "D4",
                    "midi": 62,
                    "time": 65.60632100000012,
                    "velocity": 0.36220472440944884,
                    "duration": 0.27110049999998864
                },
                {
                    "name": "F#4",
                    "midi": 66,
                    "time": 65.87742150000011,
                    "velocity": 0.41732283464566927,
                    "duration": 0.27110050000000285
                },
                {
                    "name": "D4",
                    "midi": 62,
                    "time": 65.87742150000011,
                    "velocity": 0.3543307086614173,
                    "duration": 0.27110050000000285
                },
                {
                    "name": "D4",
                    "midi": 62,
                    "time": 66.14852200000011,
                    "velocity": 0.3700787401574803,
                    "duration": 0.5422010000000057
                },
                {
                    "name": "G3",
                    "midi": 55,
                    "time": 66.14852200000011,
                    "velocity": 0.3700787401574803,
                    "duration": 0.5422010000000057
                },
                {
                    "name": "G4",
                    "midi": 67,
                    "time": 66.14852200000011,
                    "velocity": 0.4409448818897638,
                    "duration": 0.5422010000000057
                },
                {
                    "name": "B3",
                    "midi": 59,
                    "time": 66.69072300000012,
                    "velocity": 0.48031496062992124,
                    "duration": 0.47442587500000855
                },
                {
                    "name": "C4",
                    "midi": 60,
                    "time": 67.16514887500013,
                    "velocity": 0.4015748031496063,
                    "duration": 0.06777512499999716
                },
                {
                    "name": "B3",
                    "midi": 59,
                    "time": 67.23292400000012,
                    "velocity": 0.48031496062992124,
                    "duration": 0.18073366666666857
                },
                {
                    "name": "G3",
                    "midi": 55,
                    "time": 67.4136576666668,
                    "velocity": 0.4645669291338583,
                    "duration": 0.18073366666666857
                },
                {
                    "name": "E3",
                    "midi": 52,
                    "time": 67.59439133333346,
                    "velocity": 0.4409448818897638,
                    "duration": 0.13555024999999432
                },
                {
                    "name": "G4",
                    "midi": 67,
                    "time": 67.77512500000012,
                    "velocity": 0.5984251968503937,
                    "duration": 0.27110050000000285
                },
                {
                    "name": "E4",
                    "midi": 64,
                    "time": 68.04622550000012,
                    "velocity": 0.5039370078740157,
                    "duration": 0.10166268749999574
                },
                {
                    "name": "B3",
                    "midi": 59,
                    "time": 68.31732600000012,
                    "velocity": 0.4881889763779528,
                    "duration": 0.47442587499999433
                },
                {
                    "name": "C4",
                    "midi": 60,
                    "time": 68.79175187500012,
                    "velocity": 0.41732283464566927,
                    "duration": 0.06777512499999716
                },
                {
                    "name": "B3",
                    "midi": 59,
                    "time": 68.85952700000011,
                    "velocity": 0.5039370078740157,
                    "duration": 0.18073366666666857
                },
                {
                    "name": "G3",
                    "midi": 55,
                    "time": 69.04026066666678,
                    "velocity": 0.48031496062992124,
                    "duration": 0.18073366666666857
                },
                {
                    "name": "E3",
                    "midi": 52,
                    "time": 69.22099433333345,
                    "velocity": 0.44881889763779526,
                    "duration": 0.13555025000000853
                },
                {
                    "name": "G4",
                    "midi": 67,
                    "time": 69.40172800000012,
                    "velocity": 0.5984251968503937,
                    "duration": 0.27110050000000285
                },
                {
                    "name": "E4",
                    "midi": 64,
                    "time": 69.67282850000012,
                    "velocity": 0.5196850393700787,
                    "duration": 0.10166268749999574
                },
                {
                    "name": "B2",
                    "midi": 47,
                    "time": 69.94392900000011,
                    "velocity": 0.6062992125984252,
                    "duration": 0.27110050000000285
                },
                {
                    "name": "B3",
                    "midi": 59,
                    "time": 70.21502950000011,
                    "velocity": 0.5669291338582677,
                    "duration": 0.10166268750000995
                },
                {
                    "name": "D#4",
                    "midi": 63,
                    "time": 70.41835487500012,
                    "velocity": 0.4566929133858268,
                    "duration": 0.06777512499999716
                },
                {
                    "name": "E4",
                    "midi": 64,
                    "time": 70.48613000000012,
                    "velocity": 0.5748031496062992,
                    "duration": 0.18073366666666857
                },
                {
                    "name": "F#4",
                    "midi": 66,
                    "time": 70.66686366666679,
                    "velocity": 0.5275590551181102,
                    "duration": 0.18073366666666857
                },
                {
                    "name": "G4",
                    "midi": 67,
                    "time": 70.84759733333345,
                    "velocity": 0.6141732283464567,
                    "duration": 0.18073366666666857
                },
                {
                    "name": "B2",
                    "midi": 47,
                    "time": 71.02833100000012,
                    "velocity": 0.6220472440944882,
                    "duration": 0.27110050000000285
                },
                {
                    "name": "B3",
                    "midi": 59,
                    "time": 71.29943150000013,
                    "velocity": 0.5748031496062992,
                    "duration": 0.10166268749999574
                },
                {
                    "name": "D#4",
                    "midi": 63,
                    "time": 71.50275687500012,
                    "velocity": 0.4566929133858268,
                    "duration": 0.06777512499999716
                },
                {
                    "name": "E4",
                    "midi": 64,
                    "time": 71.57053200000011,
                    "velocity": 0.5905511811023622,
                    "duration": 0.18073366666666857
                },
                {
                    "name": "F#4",
                    "midi": 66,
                    "time": 71.75126566666678,
                    "velocity": 0.5354330708661418,
                    "duration": 0.18073366666666857
                },
                {
                    "name": "G4",
                    "midi": 67,
                    "time": 71.93199933333345,
                    "velocity": 0.5196850393700787,
                    "duration": 0.18073366666666857
                },
                {
                    "name": "B2",
                    "midi": 47,
                    "time": 72.11273300000012,
                    "velocity": 0.6299212598425197,
                    "duration": 0.27110049999998864
                },
                {
                    "name": "B3",
                    "midi": 59,
                    "time": 72.38383350000011,
                    "velocity": 0.5905511811023622,
                    "duration": 0.10166268749999574
                },
                {
                    "name": "B1",
                    "midi": 35,
                    "time": 72.65493400000011,
                    "velocity": 0.6377952755905512,
                    "duration": 0.27110049999998864
                },
                {
                    "name": "B2",
                    "midi": 47,
                    "time": 72.9260345000001,
                    "velocity": 0.5511811023622047,
                    "duration": 0.10166268749999574
                },
                {
                    "name": "E4",
                    "midi": 64,
                    "time": 74.8237380000001,
                    "velocity": 0.28346456692913385,
                    "duration": 0.27110050000000285
                },
                {
                    "name": "G4",
                    "midi": 67,
                    "time": 75.09483850000011,
                    "velocity": 0.1968503937007874,
                    "duration": 0.13555024999999432
                },
                {
                    "name": "E4",
                    "midi": 64,
                    "time": 75.36593900000011,
                    "velocity": 0.2677165354330709,
                    "duration": 0.27110049999998864
                },
                {
                    "name": "G4",
                    "midi": 67,
                    "time": 75.6370395000001,
                    "velocity": 0.1968503937007874,
                    "duration": 0.13555025000000853
                },
                {
                    "name": "E4",
                    "midi": 64,
                    "time": 75.90814000000012,
                    "velocity": 0.25984251968503935,
                    "duration": 0.27110050000000285
                },
                {
                    "name": "G4",
                    "midi": 67,
                    "time": 76.17924050000012,
                    "velocity": 0.2047244094488189,
                    "duration": 0.13555024999999432
                },
                {
                    "name": "E4",
                    "midi": 64,
                    "time": 76.45034100000012,
                    "velocity": 0.25984251968503935,
                    "duration": 0.27110050000000285
                },
                {
                    "name": "G4",
                    "midi": 67,
                    "time": 76.72144150000013,
                    "velocity": 0.1889763779527559,
                    "duration": 0.13555024999999432
                },
                {
                    "name": "E4",
                    "midi": 64,
                    "time": 76.99254200000013,
                    "velocity": 0.2440944881889764,
                    "duration": 0.27110049999998864
                },
                {
                    "name": "G4",
                    "midi": 67,
                    "time": 77.26364250000012,
                    "velocity": 0.18110236220472442,
                    "duration": 0.13555024999999432
                },
                {
                    "name": "E4",
                    "midi": 64,
                    "time": 77.5347430000001,
                    "velocity": 0.23622047244094488,
                    "duration": 0.27110050000000285
                },
                {
                    "name": "G4",
                    "midi": 67,
                    "time": 77.80584350000011,
                    "velocity": 0.16535433070866143,
                    "duration": 0.13555024999999432
                },
                {
                    "name": "G3",
                    "midi": 55,
                    "time": 78.0769440000001,
                    "velocity": 0.3779527559055118,
                    "duration": 0.47442587500000855
                },
                {
                    "name": "A3",
                    "midi": 57,
                    "time": 78.5513698750001,
                    "velocity": 0.31496062992125984,
                    "duration": 0.06777512499999716
                },
                {
                    "name": "G3",
                    "midi": 55,
                    "time": 78.6191450000001,
                    "velocity": 0.3779527559055118,
                    "duration": 0.18073366666666857
                },
                {
                    "name": "E3",
                    "midi": 52,
                    "time": 78.79987866666677,
                    "velocity": 0.3543307086614173,
                    "duration": 0.18073366666666857
                },
                {
                    "name": "C3",
                    "midi": 48,
                    "time": 78.98061233333344,
                    "velocity": 0.30708661417322836,
                    "duration": 0.18073366666666857
                },
                {
                    "name": "G3",
                    "midi": 55,
                    "time": 79.16134600000011,
                    "velocity": 0.3779527559055118,
                    "duration": 0.40665074999998296
                },
                {
                    "name": "E4",
                    "midi": 64,
                    "time": 79.56799675000009,
                    "velocity": 0.3543307086614173,
                    "duration": 0.13555024999999432
                },
                {
                    "name": "E4",
                    "midi": 64,
                    "time": 79.70354700000009,
                    "velocity": 0.3779527559055118,
                    "duration": 1.0844019999999972
                },
                {
                    "name": "C4",
                    "midi": 60,
                    "time": 80.78794900000008,
                    "velocity": 0.28346456692913385,
                    "duration": 0.27110050000000285
                },
                {
                    "name": "G3",
                    "midi": 55,
                    "time": 82.95675300000008,
                    "velocity": 0.3779527559055118,
                    "duration": 0.47442587499999433
                },
                {
                    "name": "A3",
                    "midi": 57,
                    "time": 83.43117887500007,
                    "velocity": 0.31496062992125984,
                    "duration": 0.06777512499999716
                },
                {
                    "name": "G3",
                    "midi": 55,
                    "time": 83.49895400000007,
                    "velocity": 0.3779527559055118,
                    "duration": 0.18073366666665436
                },
                {
                    "name": "E3",
                    "midi": 52,
                    "time": 83.67968766666672,
                    "velocity": 0.3543307086614173,
                    "duration": 0.18073366666666857
                },
                {
                    "name": "C3",
                    "midi": 48,
                    "time": 83.86042133333339,
                    "velocity": 0.3228346456692913,
                    "duration": 0.18073366666666857
                },
                {
                    "name": "G3",
                    "midi": 55,
                    "time": 84.04115500000006,
                    "velocity": 0.3779527559055118,
                    "duration": 0.4066507499999972
                },
                {
                    "name": "E4",
                    "midi": 64,
                    "time": 84.44780575000006,
                    "velocity": 0.3543307086614173,
                    "duration": 0.13555024999999432
                },
                {
                    "name": "E4",
                    "midi": 64,
                    "time": 84.58335600000005,
                    "velocity": 0.3779527559055118,
                    "duration": 1.0844019999999972
                },
                {
                    "name": "C4",
                    "midi": 60,
                    "time": 85.66775800000005,
                    "velocity": 0.2992125984251969,
                    "duration": 0.27110049999998864
                },
                {
                    "name": "G2",
                    "midi": 43,
                    "time": 86.20995900000004,
                    "velocity": 0.48031496062992124,
                    "duration": 0.13555024999999432
                },
                {
                    "name": "A2",
                    "midi": 45,
                    "time": 86.48105950000003,
                    "velocity": 0.4330708661417323,
                    "duration": 0.13555024999999432
                },
                {
                    "name": "B2",
                    "midi": 47,
                    "time": 86.61660975000002,
                    "velocity": 0.4330708661417323,
                    "duration": 0.13555024999999432
                },
                {
                    "name": "C3",
                    "midi": 48,
                    "time": 86.75216000000002,
                    "velocity": 0.48031496062992124,
                    "duration": 0.10166268749999574
                },
                {
                    "name": "G2",
                    "midi": 43,
                    "time": 87.02326050000002,
                    "velocity": 0.41732283464566927,
                    "duration": 0.10166268749999574
                },
                {
                    "name": "C3",
                    "midi": 48,
                    "time": 87.29436100000001,
                    "velocity": 0.48031496062992124,
                    "duration": 0.10166268749999574
                },
                {
                    "name": "D#3",
                    "midi": 51,
                    "time": 87.836562,
                    "velocity": 0.2992125984251969,
                    "duration": 0.13555024999999432
                },
                {
                    "name": "G3",
                    "midi": 55,
                    "time": 87.836562,
                    "velocity": 0.2992125984251969,
                    "duration": 0.13555024999999432
                },
                {
                    "name": "D3",
                    "midi": 50,
                    "time": 88.10766249999999,
                    "velocity": 0.2755905511811024,
                    "duration": 0.13555024999999432
                },
                {
                    "name": "F3",
                    "midi": 53,
                    "time": 88.10766249999999,
                    "velocity": 0.2755905511811024,
                    "duration": 0.13555024999999432
                },
                {
                    "name": "G3",
                    "midi": 55,
                    "time": 88.10766249999999,
                    "velocity": 0.2755905511811024,
                    "duration": 0.13555024999999432
                },
                {
                    "name": "C3",
                    "midi": 48,
                    "time": 88.37876299999998,
                    "velocity": 0.2992125984251969,
                    "duration": 0.10166268749999574
                },
                {
                    "name": "D#3",
                    "midi": 51,
                    "time": 88.37876299999998,
                    "velocity": 0.2992125984251969,
                    "duration": 0.10166268749999574
                },
                {
                    "name": "G3",
                    "midi": 55,
                    "time": 88.37876299999998,
                    "velocity": 0.2992125984251969,
                    "duration": 0.10166268749999574
                },
                {
                    "name": "B2",
                    "midi": 47,
                    "time": 88.64986349999998,
                    "velocity": 0.2755905511811024,
                    "duration": 0.10166268749999574
                },
                {
                    "name": "D3",
                    "midi": 50,
                    "time": 88.64986349999998,
                    "velocity": 0.2755905511811024,
                    "duration": 0.10166268749999574
                },
                {
                    "name": "G3",
                    "midi": 55,
                    "time": 88.64986349999998,
                    "velocity": 0.2755905511811024,
                    "duration": 0.10166268749999574
                },
                {
                    "name": "C3",
                    "midi": 48,
                    "time": 88.92096399999997,
                    "velocity": 0.33070866141732286,
                    "duration": 0.10166268749999574
                },
                {
                    "name": "D#3",
                    "midi": 51,
                    "time": 88.92096399999997,
                    "velocity": 0.33070866141732286,
                    "duration": 0.10166268749999574
                },
                {
                    "name": "G3",
                    "midi": 55,
                    "time": 88.92096399999997,
                    "velocity": 0.33070866141732286,
                    "duration": 0.10166268749999574
                },
                {
                    "name": "D3",
                    "midi": 50,
                    "time": 89.19206449999996,
                    "velocity": 0.3858267716535433,
                    "duration": 0.13555024999999432
                },
                {
                    "name": "F3",
                    "midi": 53,
                    "time": 89.19206449999996,
                    "velocity": 0.3858267716535433,
                    "duration": 0.13555024999999432
                },
                {
                    "name": "A#3",
                    "midi": 58,
                    "time": 89.19206449999996,
                    "velocity": 0.3858267716535433,
                    "duration": 0.13555024999999432
                },
                {
                    "name": "F3",
                    "midi": 53,
                    "time": 89.46316499999995,
                    "velocity": 0.4094488188976378,
                    "duration": 0.13555024999999432
                },
                {
                    "name": "G#3",
                    "midi": 56,
                    "time": 89.46316499999995,
                    "velocity": 0.4094488188976378,
                    "duration": 0.13555024999999432
                },
                {
                    "name": "A#3",
                    "midi": 58,
                    "time": 89.46316499999995,
                    "velocity": 0.4094488188976378,
                    "duration": 0.13555024999999432
                },
                {
                    "name": "D#3",
                    "midi": 51,
                    "time": 89.73426549999994,
                    "velocity": 0.4094488188976378,
                    "duration": 0.13555024999999432
                },
                {
                    "name": "G3",
                    "midi": 55,
                    "time": 89.73426549999994,
                    "velocity": 0.4094488188976378,
                    "duration": 0.13555024999999432
                },
                {
                    "name": "A#3",
                    "midi": 58,
                    "time": 89.73426549999994,
                    "velocity": 0.4094488188976378,
                    "duration": 0.13555024999999432
                },
                {
                    "name": "D#3",
                    "midi": 51,
                    "time": 90.00536599999992,
                    "velocity": 0.4409448818897638,
                    "duration": 0.13555024999999432
                },
                {
                    "name": "G3",
                    "midi": 55,
                    "time": 90.00536599999992,
                    "velocity": 0.4409448818897638,
                    "duration": 0.13555024999999432
                },
                {
                    "name": "A#3",
                    "midi": 58,
                    "time": 90.00536599999992,
                    "velocity": 0.4409448818897638,
                    "duration": 0.13555024999999432
                },
                {
                    "name": "F#3",
                    "midi": 54,
                    "time": 90.27646649999991,
                    "velocity": 0.4251968503937008,
                    "duration": 0.13555024999999432
                },
                {
                    "name": "A3",
                    "midi": 57,
                    "time": 90.27646649999991,
                    "velocity": 0.4251968503937008,
                    "duration": 0.13555024999999432
                },
                {
                    "name": "D4",
                    "midi": 62,
                    "time": 90.27646649999991,
                    "velocity": 0.4251968503937008,
                    "duration": 0.13555024999999432
                },
                {
                    "name": "A3",
                    "midi": 57,
                    "time": 90.5475669999999,
                    "velocity": 0.4645669291338583,
                    "duration": 0.13555024999999432
                },
                {
                    "name": "C4",
                    "midi": 60,
                    "time": 90.5475669999999,
                    "velocity": 0.4645669291338583,
                    "duration": 0.13555024999999432
                },
                {
                    "name": "D4",
                    "midi": 62,
                    "time": 90.5475669999999,
                    "velocity": 0.4645669291338583,
                    "duration": 0.13555024999999432
                },
                {
                    "name": "G3",
                    "midi": 55,
                    "time": 90.81866749999989,
                    "velocity": 0.4409448818897638,
                    "duration": 0.13555024999999432
                },
                {
                    "name": "A#3",
                    "midi": 58,
                    "time": 90.81866749999989,
                    "velocity": 0.4409448818897638,
                    "duration": 0.13555024999999432
                },
                {
                    "name": "D4",
                    "midi": 62,
                    "time": 90.81866749999989,
                    "velocity": 0.4409448818897638,
                    "duration": 0.13555024999999432
                },
                {
                    "name": "G3",
                    "midi": 55,
                    "time": 91.08976799999988,
                    "velocity": 0.5039370078740157,
                    "duration": 0.13555024999999432
                },
                {
                    "name": "A#3",
                    "midi": 58,
                    "time": 91.08976799999988,
                    "velocity": 0.5039370078740157,
                    "duration": 0.13555024999999432
                },
                {
                    "name": "D4",
                    "midi": 62,
                    "time": 91.08976799999988,
                    "velocity": 0.5039370078740157,
                    "duration": 0.13555024999999432
                },
                {
                    "name": "G2",
                    "midi": 43,
                    "time": 91.36086849999987,
                    "velocity": 0.3858267716535433,
                    "duration": 0.13555024999999432
                },
                {
                    "name": "D3",
                    "midi": 50,
                    "time": 91.36086849999987,
                    "velocity": 0.3858267716535433,
                    "duration": 0.13555024999999432
                },
                {
                    "name": "B3",
                    "midi": 59,
                    "time": 91.36086849999987,
                    "velocity": 0.3858267716535433,
                    "duration": 0.13555024999999432
                },
                {
                    "name": "G2",
                    "midi": 43,
                    "time": 91.63196899999986,
                    "velocity": 0.3700787401574803,
                    "duration": 0.8133014999999943
                },
                {
                    "name": "D3",
                    "midi": 50,
                    "time": 91.63196899999986,
                    "velocity": 0.3700787401574803,
                    "duration": 0.8133014999999943
                },
                {
                    "name": "B3",
                    "midi": 59,
                    "time": 91.63196899999986,
                    "velocity": 0.3700787401574803,
                    "duration": 0.8133014999999943
                },
                {
                    "name": "F4",
                    "midi": 65,
                    "time": 92.44527049999985,
                    "velocity": 0.29133858267716534,
                    "duration": 0.27110050000000285
                },
                {
                    "name": "G4",
                    "midi": 67,
                    "time": 92.44527049999985,
                    "velocity": 0.29133858267716534,
                    "duration": 0.27110050000000285
                },
                {
                    "name": "G3",
                    "midi": 55,
                    "time": 92.44527049999985,
                    "velocity": 0.29133858267716534,
                    "duration": 0.27110050000000285
                },
                {
                    "name": "G4",
                    "midi": 67,
                    "time": 92.71637099999985,
                    "velocity": 0.2755905511811024,
                    "duration": 1.5927154375000043
                },
                {
                    "name": "E4",
                    "midi": 64,
                    "time": 92.71637099999985,
                    "velocity": 0.2755905511811024,
                    "duration": 1.5927154375000043
                },
                {
                    "name": "C4",
                    "midi": 60,
                    "time": 92.71637099999985,
                    "velocity": 0.2755905511811024,
                    "duration": 1.5927154375000043
                },
                {
                    "name": "B2",
                    "midi": 47,
                    "time": 94.34297399999986,
                    "velocity": 0.3543307086614173,
                    "duration": 0.18073366666665436
                },
                {
                    "name": "G2",
                    "midi": 43,
                    "time": 94.34297399999986,
                    "velocity": 0.2440944881889764,
                    "duration": 1.626603000000003
                },
                {
                    "name": "D3",
                    "midi": 50,
                    "time": 94.52370766666651,
                    "velocity": 0.28346456692913385,
                    "duration": 0.18073366666666857
                },
                {
                    "name": "G3",
                    "midi": 55,
                    "time": 94.70444133333318,
                    "velocity": 0.2440944881889764,
                    "duration": 0.18073366666666857
                },
                {
                    "name": "B2",
                    "midi": 47,
                    "time": 94.88517499999985,
                    "velocity": 0.33070866141732286,
                    "duration": 0.18073366666666857
                },
                {
                    "name": "D3",
                    "midi": 50,
                    "time": 95.06590866666652,
                    "velocity": 0.25984251968503935,
                    "duration": 0.18073366666666857
                },
                {
                    "name": "G3",
                    "midi": 55,
                    "time": 95.24664233333318,
                    "velocity": 0.2125984251968504,
                    "duration": 0.18073366666666857
                },
                {
                    "name": "A2",
                    "midi": 45,
                    "time": 95.42737599999985,
                    "velocity": 0.3228346456692913,
                    "duration": 0.18073366666666857
                },
                {
                    "name": "D3",
                    "midi": 50,
                    "time": 95.60810966666652,
                    "velocity": 0.25984251968503935,
                    "duration": 0.18073366666666857
                },
                {
                    "name": "F#3",
                    "midi": 54,
                    "time": 95.78884333333319,
                    "velocity": 0.2125984251968504,
                    "duration": 0.18073366666666857
                },
                {
                    "name": "C3",
                    "midi": 48,
                    "time": 95.96957699999986,
                    "velocity": 0.3543307086614173,
                    "duration": 0.18073366666666857
                },
                {
                    "name": "G2",
                    "midi": 43,
                    "time": 95.96957699999986,
                    "velocity": 0.2440944881889764,
                    "duration": 1.6266030000000171
                },
                {
                    "name": "D3",
                    "midi": 50,
                    "time": 96.15031066666653,
                    "velocity": 0.28346456692913385,
                    "duration": 0.18073366666666857
                },
                {
                    "name": "A3",
                    "midi": 57,
                    "time": 96.3310443333332,
                    "velocity": 0.2283464566929134,
                    "duration": 0.18073366666666857
                },
                {
                    "name": "C3",
                    "midi": 48,
                    "time": 96.51177799999986,
                    "velocity": 0.33858267716535434,
                    "duration": 0.18073366666666857
                },
                {
                    "name": "D3",
                    "midi": 50,
                    "time": 96.69251166666653,
                    "velocity": 0.25984251968503935,
                    "duration": 0.18073366666666857
                },
                {
                    "name": "A3",
                    "midi": 57,
                    "time": 96.8732453333332,
                    "velocity": 0.2204724409448819,
                    "duration": 0.18073366666666857
                },
                {
                    "name": "B2",
                    "midi": 47,
                    "time": 97.05397899999987,
                    "velocity": 0.33858267716535434,
                    "duration": 0.18073366666666857
                },
                {
                    "name": "D3",
                    "midi": 50,
                    "time": 97.23471266666654,
                    "velocity": 0.25984251968503935,
                    "duration": 0.18073366666666857
                },
                {
                    "name": "G3",
                    "midi": 55,
                    "time": 97.41544633333321,
                    "velocity": 0.2204724409448819,
                    "duration": 0.18073366666666857
                },
                {
                    "name": "B2",
                    "midi": 47,
                    "time": 97.59617999999988,
                    "velocity": 0.33070866141732286,
                    "duration": 0.18073366666666857
                },
                {
                    "name": "D3",
                    "midi": 50,
                    "time": 97.77691366666654,
                    "velocity": 0.25984251968503935,
                    "duration": 0.18073366666666857
                },
                {
                    "name": "G3",
                    "midi": 55,
                    "time": 97.95764733333321,
                    "velocity": 0.2204724409448819,
                    "duration": 0.18073366666666857
                },
                {
                    "name": "D3",
                    "midi": 50,
                    "time": 98.13838099999988,
                    "velocity": 0.33070866141732286,
                    "duration": 0.27110050000000285
                },
                {
                    "name": "F#3",
                    "midi": 54,
                    "time": 98.13838099999988,
                    "velocity": 0.33070866141732286,
                    "duration": 0.27110050000000285
                },
                {
                    "name": "A3",
                    "midi": 57,
                    "time": 98.13838099999988,
                    "velocity": 0.3937007874015748,
                    "duration": 0.27110050000000285
                },
                {
                    "name": "D3",
                    "midi": 50,
                    "time": 98.40948149999988,
                    "velocity": 0.3543307086614173,
                    "duration": 0.27110050000000285
                },
                {
                    "name": "G3",
                    "midi": 55,
                    "time": 98.40948149999988,
                    "velocity": 0.3543307086614173,
                    "duration": 0.27110050000000285
                },
                {
                    "name": "B3",
                    "midi": 59,
                    "time": 98.40948149999988,
                    "velocity": 0.41732283464566927,
                    "duration": 0.27110050000000285
                },
                {
                    "name": "D3",
                    "midi": 50,
                    "time": 98.68058199999989,
                    "velocity": 0.3779527559055118,
                    "duration": 0.4066507500000114
                },
                {
                    "name": "A3",
                    "midi": 57,
                    "time": 98.68058199999989,
                    "velocity": 0.3779527559055118,
                    "duration": 0.4066507500000114
                },
                {
                    "name": "C4",
                    "midi": 60,
                    "time": 98.68058199999989,
                    "velocity": 0.44881889763779526,
                    "duration": 0.4066507500000114
                },
                {
                    "name": "D3",
                    "midi": 50,
                    "time": 99.0872327499999,
                    "velocity": 0.33070866141732286,
                    "duration": 0.13555024999999432
                },
                {
                    "name": "G3",
                    "midi": 55,
                    "time": 99.0872327499999,
                    "velocity": 0.33070866141732286,
                    "duration": 0.13555024999999432
                },
                {
                    "name": "B3",
                    "midi": 59,
                    "time": 99.0872327499999,
                    "velocity": 0.4015748031496063,
                    "duration": 0.13555024999999432
                },
                {
                    "name": "D3",
                    "midi": 50,
                    "time": 99.2227829999999,
                    "velocity": 0.2992125984251969,
                    "duration": 0.5422010000000057
                },
                {
                    "name": "G3",
                    "midi": 55,
                    "time": 99.2227829999999,
                    "velocity": 0.2992125984251969,
                    "duration": 0.5422010000000057
                },
                {
                    "name": "B3",
                    "midi": 59,
                    "time": 99.2227829999999,
                    "velocity": 0.3543307086614173,
                    "duration": 0.5422010000000057
                },
                {
                    "name": "D3",
                    "midi": 50,
                    "time": 99.7649839999999,
                    "velocity": 0.2125984251968504,
                    "duration": 0.27110049999998864
                },
                {
                    "name": "F#3",
                    "midi": 54,
                    "time": 99.7649839999999,
                    "velocity": 0.2125984251968504,
                    "duration": 0.27110049999998864
                },
                {
                    "name": "A3",
                    "midi": 57,
                    "time": 99.7649839999999,
                    "velocity": 0.25196850393700787,
                    "duration": 0.27110049999998864
                },
                {
                    "name": "D3",
                    "midi": 50,
                    "time": 100.03608449999989,
                    "velocity": 0.2047244094488189,
                    "duration": 0.27110050000000285
                },
                {
                    "name": "E3",
                    "midi": 52,
                    "time": 100.03608449999989,
                    "velocity": 0.2047244094488189,
                    "duration": 0.27110050000000285
                },
                {
                    "name": "G3",
                    "midi": 55,
                    "time": 100.03608449999989,
                    "velocity": 0.2440944881889764,
                    "duration": 0.27110050000000285
                },
                {
                    "name": "D3",
                    "midi": 50,
                    "time": 100.30718499999989,
                    "velocity": 0.2204724409448819,
                    "duration": 0.5422010000000057
                },
                {
                    "name": "F#3",
                    "midi": 54,
                    "time": 100.30718499999989,
                    "velocity": 0.2204724409448819,
                    "duration": 0.5422010000000057
                },
                {
                    "name": "A3",
                    "midi": 57,
                    "time": 100.30718499999989,
                    "velocity": 0.25984251968503935,
                    "duration": 0.5422010000000057
                },
                {
                    "name": "B2",
                    "midi": 47,
                    "time": 100.8493859999999,
                    "velocity": 0.3543307086614173,
                    "duration": 0.18073366666665436
                },
                {
                    "name": "G2",
                    "midi": 43,
                    "time": 100.8493859999999,
                    "velocity": 0.2440944881889764,
                    "duration": 1.626603000000003
                },
                {
                    "name": "D3",
                    "midi": 50,
                    "time": 101.03011966666655,
                    "velocity": 0.28346456692913385,
                    "duration": 0.18073366666666857
                },
                {
                    "name": "G3",
                    "midi": 55,
                    "time": 101.21085333333322,
                    "velocity": 0.2440944881889764,
                    "duration": 0.18073366666666857
                },
                {
                    "name": "B2",
                    "midi": 47,
                    "time": 101.39158699999989,
                    "velocity": 0.33070866141732286,
                    "duration": 0.18073366666666857
                },
                {
                    "name": "D3",
                    "midi": 50,
                    "time": 101.57232066666656,
                    "velocity": 0.25984251968503935,
                    "duration": 0.18073366666666857
                },
                {
                    "name": "G3",
                    "midi": 55,
                    "time": 101.75305433333322,
                    "velocity": 0.2125984251968504,
                    "duration": 0.18073366666666857
                },
                {
                    "name": "A2",
                    "midi": 45,
                    "time": 101.9337879999999,
                    "velocity": 0.3228346456692913,
                    "duration": 0.18073366666666857
                },
                {
                    "name": "D3",
                    "midi": 50,
                    "time": 102.11452166666656,
                    "velocity": 0.25984251968503935,
                    "duration": 0.18073366666666857
                },
                {
                    "name": "F#3",
                    "midi": 54,
                    "time": 102.29525533333323,
                    "velocity": 0.2125984251968504,
                    "duration": 0.18073366666666857
                },
                {
                    "name": "C3",
                    "midi": 48,
                    "time": 102.4759889999999,
                    "velocity": 0.3543307086614173,
                    "duration": 0.18073366666666857
                },
                {
                    "name": "G2",
                    "midi": 43,
                    "time": 102.4759889999999,
                    "velocity": 0.2440944881889764,
                    "duration": 1.6266030000000171
                },
                {
                    "name": "D3",
                    "midi": 50,
                    "time": 102.65672266666657,
                    "velocity": 0.28346456692913385,
                    "duration": 0.18073366666666857
                },
                {
                    "name": "A3",
                    "midi": 57,
                    "time": 102.83745633333324,
                    "velocity": 0.2283464566929134,
                    "duration": 0.18073366666666857
                },
                {
                    "name": "C3",
                    "midi": 48,
                    "time": 103.0181899999999,
                    "velocity": 0.33858267716535434,
                    "duration": 0.18073366666666857
                },
                {
                    "name": "D3",
                    "midi": 50,
                    "time": 103.19892366666657,
                    "velocity": 0.25984251968503935,
                    "duration": 0.18073366666666857
                },
                {
                    "name": "A3",
                    "midi": 57,
                    "time": 103.37965733333324,
                    "velocity": 0.2204724409448819,
                    "duration": 0.18073366666666857
                },
                {
                    "name": "B2",
                    "midi": 47,
                    "time": 103.56039099999991,
                    "velocity": 0.33858267716535434,
                    "duration": 0.18073366666666857
                },
                {
                    "name": "D3",
                    "midi": 50,
                    "time": 103.74112466666658,
                    "velocity": 0.25984251968503935,
                    "duration": 0.18073366666666857
                },
                {
                    "name": "G3",
                    "midi": 55,
                    "time": 103.92185833333325,
                    "velocity": 0.2204724409448819,
                    "duration": 0.18073366666666857
                },
                {
                    "name": "D3",
                    "midi": 50,
                    "time": 104.10259199999992,
                    "velocity": 0.36220472440944884,
                    "duration": 0.5422010000000057
                },
                {
                    "name": "B2",
                    "midi": 47,
                    "time": 104.10259199999992,
                    "velocity": 0.30708661417322836,
                    "duration": 0.5422010000000057
                },
                {
                    "name": "G2",
                    "midi": 43,
                    "time": 104.10259199999992,
                    "velocity": 0.30708661417322836,
                    "duration": 0.5422010000000057
                },
                {
                    "name": "G2",
                    "midi": 43,
                    "time": 104.64479299999992,
                    "velocity": 0.36220472440944884,
                    "duration": 0.27110050000000285
                },
                {
                    "name": "C3",
                    "midi": 48,
                    "time": 104.64479299999992,
                    "velocity": 0.36220472440944884,
                    "duration": 0.27110050000000285
                },
                {
                    "name": "E3",
                    "midi": 52,
                    "time": 104.64479299999992,
                    "velocity": 0.4330708661417323,
                    "duration": 0.27110050000000285
                },
                {
                    "name": "G2",
                    "midi": 43,
                    "time": 104.91589349999992,
                    "velocity": 0.3858267716535433,
                    "duration": 0.27110050000000285
                },
                {
                    "name": "A2",
                    "midi": 45,
                    "time": 104.91589349999992,
                    "velocity": 0.3858267716535433,
                    "duration": 0.27110050000000285
                },
                {
                    "name": "F#3",
                    "midi": 54,
                    "time": 104.91589349999992,
                    "velocity": 0.4566929133858268,
                    "duration": 0.27110050000000285
                },
                {
                    "name": "G2",
                    "midi": 43,
                    "time": 105.18699399999993,
                    "velocity": 0.44881889763779526,
                    "duration": 0.4066507500000114
                },
                {
                    "name": "G3",
                    "midi": 55,
                    "time": 105.18699399999993,
                    "velocity": 0.5354330708661418,
                    "duration": 0.4066507500000114
                },
                {
                    "name": "B2",
                    "midi": 47,
                    "time": 105.18699399999993,
                    "velocity": 0.44881889763779526,
                    "duration": 0.4066507500000114
                },
                {
                    "name": "D3",
                    "midi": 50,
                    "time": 105.59364474999994,
                    "velocity": 0.3228346456692913,
                    "duration": 0.13555024999999432
                },
                {
                    "name": "G3",
                    "midi": 55,
                    "time": 105.59364474999994,
                    "velocity": 0.3228346456692913,
                    "duration": 0.13555024999999432
                },
                {
                    "name": "B3",
                    "midi": 59,
                    "time": 105.59364474999994,
                    "velocity": 0.3858267716535433,
                    "duration": 0.13555024999999432
                },
                {
                    "name": "D3",
                    "midi": 50,
                    "time": 105.72919499999993,
                    "velocity": 0.3543307086614173,
                    "duration": 0.5422010000000057
                },
                {
                    "name": "D4",
                    "midi": 62,
                    "time": 105.72919499999993,
                    "velocity": 0.4251968503937008,
                    "duration": 0.5422010000000057
                },
                {
                    "name": "B3",
                    "midi": 59,
                    "time": 105.72919499999993,
                    "velocity": 0.3543307086614173,
                    "duration": 0.5422010000000057
                },
                {
                    "name": "D3",
                    "midi": 50,
                    "time": 106.27139599999994,
                    "velocity": 0.30708661417322836,
                    "duration": 0.4066507499999972
                },
                {
                    "name": "A3",
                    "midi": 57,
                    "time": 106.27139599999994,
                    "velocity": 0.30708661417322836,
                    "duration": 0.4066507499999972
                },
                {
                    "name": "C4",
                    "midi": 60,
                    "time": 106.27139599999994,
                    "velocity": 0.36220472440944884,
                    "duration": 0.4066507499999972
                },
                {
                    "name": "G3",
                    "midi": 55,
                    "time": 106.67804674999994,
                    "velocity": 0.2440944881889764,
                    "duration": 0.13555024999999432
                },
                {
                    "name": "B3",
                    "midi": 59,
                    "time": 106.67804674999994,
                    "velocity": 0.29133858267716534,
                    "duration": 0.13555024999999432
                },
                {
                    "name": "G3",
                    "midi": 55,
                    "time": 106.81359699999993,
                    "velocity": 0.2204724409448819,
                    "duration": 0.5422009999999915
                },
                {
                    "name": "B3",
                    "midi": 59,
                    "time": 106.81359699999993,
                    "velocity": 0.2677165354330709,
                    "duration": 0.5422009999999915
                },
                {
                    "name": "B2",
                    "midi": 47,
                    "time": 107.35579799999992,
                    "velocity": 0.3543307086614173,
                    "duration": 0.18073366666665436
                },
                {
                    "name": "G2",
                    "midi": 43,
                    "time": 107.35579799999992,
                    "velocity": 0.2440944881889764,
                    "duration": 1.6266029999999887
                },
                {
                    "name": "D3",
                    "midi": 50,
                    "time": 107.53653166666658,
                    "velocity": 0.28346456692913385,
                    "duration": 0.18073366666666857
                },
                {
                    "name": "G3",
                    "midi": 55,
                    "time": 107.71726533333324,
                    "velocity": 0.2440944881889764,
                    "duration": 0.18073366666666857
                },
                {
                    "name": "B2",
                    "midi": 47,
                    "time": 107.89799899999991,
                    "velocity": 0.33070866141732286,
                    "duration": 0.18073366666666857
                },
                {
                    "name": "D3",
                    "midi": 50,
                    "time": 108.07873266666658,
                    "velocity": 0.25984251968503935,
                    "duration": 0.18073366666666857
                },
                {
                    "name": "G3",
                    "midi": 55,
                    "time": 108.25946633333325,
                    "velocity": 0.2125984251968504,
                    "duration": 0.18073366666666857
                },
                {
                    "name": "A2",
                    "midi": 45,
                    "time": 108.44019999999992,
                    "velocity": 0.3228346456692913,
                    "duration": 0.18073366666665436
                },
                {
                    "name": "D3",
                    "midi": 50,
                    "time": 108.62093366666657,
                    "velocity": 0.25984251968503935,
                    "duration": 0.18073366666666857
                },
                {
                    "name": "F#3",
                    "midi": 54,
                    "time": 108.80166733333324,
                    "velocity": 0.2125984251968504,
                    "duration": 0.18073366666666857
                },
                {
                    "name": "C3",
                    "midi": 48,
                    "time": 108.98240099999991,
                    "velocity": 0.3543307086614173,
                    "duration": 0.18073366666666857
                },
                {
                    "name": "G2",
                    "midi": 43,
                    "time": 108.98240099999991,
                    "velocity": 0.2440944881889764,
                    "duration": 1.6266030000000171
                },
                {
                    "name": "D3",
                    "midi": 50,
                    "time": 109.16313466666658,
                    "velocity": 0.28346456692913385,
                    "duration": 0.18073366666666857
                },
                {
                    "name": "A3",
                    "midi": 57,
                    "time": 109.34386833333325,
                    "velocity": 0.2283464566929134,
                    "duration": 0.18073366666666857
                },
                {
                    "name": "C3",
                    "midi": 48,
                    "time": 109.52460199999992,
                    "velocity": 0.33858267716535434,
                    "duration": 0.18073366666666857
                },
                {
                    "name": "D3",
                    "midi": 50,
                    "time": 109.70533566666658,
                    "velocity": 0.25984251968503935,
                    "duration": 0.18073366666666857
                },
                {
                    "name": "A3",
                    "midi": 57,
                    "time": 109.88606933333325,
                    "velocity": 0.2204724409448819,
                    "duration": 0.18073366666666857
                },
                {
                    "name": "B2",
                    "midi": 47,
                    "time": 110.06680299999992,
                    "velocity": 0.33858267716535434,
                    "duration": 0.18073366666666857
                },
                {
                    "name": "D3",
                    "midi": 50,
                    "time": 110.24753666666659,
                    "velocity": 0.25984251968503935,
                    "duration": 0.18073366666666857
                },
                {
                    "name": "G3",
                    "midi": 55,
                    "time": 110.42827033333326,
                    "velocity": 0.2204724409448819,
                    "duration": 0.18073366666666857
                },
                {
                    "name": "B2",
                    "midi": 47,
                    "time": 110.60900399999993,
                    "velocity": 0.33070866141732286,
                    "duration": 0.18073366666666857
                },
                {
                    "name": "D3",
                    "midi": 50,
                    "time": 110.7897376666666,
                    "velocity": 0.25984251968503935,
                    "duration": 0.18073366666666857
                },
                {
                    "name": "G3",
                    "midi": 55,
                    "time": 110.97047133333326,
                    "velocity": 0.2204724409448819,
                    "duration": 0.18073366666666857
                },
                {
                    "name": "D3",
                    "midi": 50,
                    "time": 111.15120499999993,
                    "velocity": 0.33070866141732286,
                    "duration": 0.27110050000000285
                },
                {
                    "name": "F#3",
                    "midi": 54,
                    "time": 111.15120499999993,
                    "velocity": 0.33070866141732286,
                    "duration": 0.27110050000000285
                },
                {
                    "name": "A3",
                    "midi": 57,
                    "time": 111.15120499999993,
                    "velocity": 0.3937007874015748,
                    "duration": 0.27110050000000285
                },
                {
                    "name": "D3",
                    "midi": 50,
                    "time": 111.42230549999994,
                    "velocity": 0.3543307086614173,
                    "duration": 0.27110050000000285
                },
                {
                    "name": "G3",
                    "midi": 55,
                    "time": 111.42230549999994,
                    "velocity": 0.3543307086614173,
                    "duration": 0.27110050000000285
                },
                {
                    "name": "B3",
                    "midi": 59,
                    "time": 111.42230549999994,
                    "velocity": 0.41732283464566927,
                    "duration": 0.27110050000000285
                },
                {
                    "name": "D3",
                    "midi": 50,
                    "time": 111.69340599999994,
                    "velocity": 0.3779527559055118,
                    "duration": 0.4066507499999972
                },
                {
                    "name": "A3",
                    "midi": 57,
                    "time": 111.69340599999994,
                    "velocity": 0.44881889763779526,
                    "duration": 0.4066507499999972
                },
                {
                    "name": "C4",
                    "midi": 60,
                    "time": 111.69340599999994,
                    "velocity": 0.44881889763779526,
                    "duration": 0.4066507499999972
                },
                {
                    "name": "D3",
                    "midi": 50,
                    "time": 112.10005674999994,
                    "velocity": 0.33070866141732286,
                    "duration": 0.13555024999999432
                },
                {
                    "name": "G3",
                    "midi": 55,
                    "time": 112.10005674999994,
                    "velocity": 0.33070866141732286,
                    "duration": 0.13555024999999432
                },
                {
                    "name": "B3",
                    "midi": 59,
                    "time": 112.10005674999994,
                    "velocity": 0.4015748031496063,
                    "duration": 0.13555024999999432
                },
                {
                    "name": "D3",
                    "midi": 50,
                    "time": 112.23560699999993,
                    "velocity": 0.2992125984251969,
                    "duration": 0.5422009999999915
                },
                {
                    "name": "G3",
                    "midi": 55,
                    "time": 112.23560699999993,
                    "velocity": 0.2992125984251969,
                    "duration": 0.5422009999999915
                },
                {
                    "name": "B3",
                    "midi": 59,
                    "time": 112.23560699999993,
                    "velocity": 0.3543307086614173,
                    "duration": 0.5422009999999915
                },
                {
                    "name": "D3",
                    "midi": 50,
                    "time": 112.77780799999992,
                    "velocity": 0.2125984251968504,
                    "duration": 0.27110050000000285
                },
                {
                    "name": "F#3",
                    "midi": 54,
                    "time": 112.77780799999992,
                    "velocity": 0.2125984251968504,
                    "duration": 0.27110050000000285
                },
                {
                    "name": "A3",
                    "midi": 57,
                    "time": 112.77780799999992,
                    "velocity": 0.25196850393700787,
                    "duration": 0.27110050000000285
                },
                {
                    "name": "D3",
                    "midi": 50,
                    "time": 113.04890849999992,
                    "velocity": 0.2047244094488189,
                    "duration": 0.27110050000000285
                },
                {
                    "name": "E3",
                    "midi": 52,
                    "time": 113.04890849999992,
                    "velocity": 0.2047244094488189,
                    "duration": 0.27110050000000285
                },
                {
                    "name": "G3",
                    "midi": 55,
                    "time": 113.04890849999992,
                    "velocity": 0.2440944881889764,
                    "duration": 0.27110050000000285
                },
                {
                    "name": "D3",
                    "midi": 50,
                    "time": 113.32000899999993,
                    "velocity": 0.2204724409448819,
                    "duration": 0.5422010000000057
                },
                {
                    "name": "F#3",
                    "midi": 54,
                    "time": 113.32000899999993,
                    "velocity": 0.2204724409448819,
                    "duration": 0.5422010000000057
                },
                {
                    "name": "A3",
                    "midi": 57,
                    "time": 113.32000899999993,
                    "velocity": 0.25984251968503935,
                    "duration": 0.5422010000000057
                },
                {
                    "name": "B2",
                    "midi": 47,
                    "time": 113.86220999999993,
                    "velocity": 0.3543307086614173,
                    "duration": 0.18073366666665436
                },
                {
                    "name": "G2",
                    "midi": 43,
                    "time": 113.86220999999993,
                    "velocity": 0.2440944881889764,
                    "duration": 1.6266029999999887
                },
                {
                    "name": "D3",
                    "midi": 50,
                    "time": 114.04294366666659,
                    "velocity": 0.28346456692913385,
                    "duration": 0.18073366666666857
                },
                {
                    "name": "G3",
                    "midi": 55,
                    "time": 114.22367733333326,
                    "velocity": 0.2440944881889764,
                    "duration": 0.18073366666666857
                },
                {
                    "name": "B2",
                    "midi": 47,
                    "time": 114.40441099999993,
                    "velocity": 0.33070866141732286,
                    "duration": 0.18073366666666857
                },
                {
                    "name": "D3",
                    "midi": 50,
                    "time": 114.5851446666666,
                    "velocity": 0.25984251968503935,
                    "duration": 0.18073366666666857
                },
                {
                    "name": "G3",
                    "midi": 55,
                    "time": 114.76587833333326,
                    "velocity": 0.2125984251968504,
                    "duration": 0.18073366666666857
                },
                {
                    "name": "A2",
                    "midi": 45,
                    "time": 114.94661199999993,
                    "velocity": 0.3228346456692913,
                    "duration": 0.18073366666665436
                },
                {
                    "name": "D3",
                    "midi": 50,
                    "time": 115.12734566666659,
                    "velocity": 0.25984251968503935,
                    "duration": 0.18073366666666857
                },
                {
                    "name": "F#3",
                    "midi": 54,
                    "time": 115.30807933333325,
                    "velocity": 0.2125984251968504,
                    "duration": 0.18073366666666857
                },
                {
                    "name": "C3",
                    "midi": 48,
                    "time": 115.48881299999992,
                    "velocity": 0.3543307086614173,
                    "duration": 0.18073366666666857
                },
                {
                    "name": "G2",
                    "midi": 43,
                    "time": 115.48881299999992,
                    "velocity": 0.2440944881889764,
                    "duration": 1.6266030000000171
                },
                {
                    "name": "D3",
                    "midi": 50,
                    "time": 115.66954666666659,
                    "velocity": 0.28346456692913385,
                    "duration": 0.18073366666666857
                },
                {
                    "name": "A3",
                    "midi": 57,
                    "time": 115.85028033333326,
                    "velocity": 0.2283464566929134,
                    "duration": 0.18073366666666857
                },
                {
                    "name": "C3",
                    "midi": 48,
                    "time": 116.03101399999993,
                    "velocity": 0.33858267716535434,
                    "duration": 0.18073366666666857
                },
                {
                    "name": "D3",
                    "midi": 50,
                    "time": 116.2117476666666,
                    "velocity": 0.25984251968503935,
                    "duration": 0.18073366666666857
                },
                {
                    "name": "A3",
                    "midi": 57,
                    "time": 116.39248133333327,
                    "velocity": 0.2204724409448819,
                    "duration": 0.18073366666666857
                },
                {
                    "name": "B2",
                    "midi": 47,
                    "time": 116.57321499999993,
                    "velocity": 0.33858267716535434,
                    "duration": 0.18073366666666857
                },
                {
                    "name": "D3",
                    "midi": 50,
                    "time": 116.7539486666666,
                    "velocity": 0.25984251968503935,
                    "duration": 0.18073366666666857
                },
                {
                    "name": "G3",
                    "midi": 55,
                    "time": 116.93468233333327,
                    "velocity": 0.2204724409448819,
                    "duration": 0.18073366666666857
                },
                {
                    "name": "D3",
                    "midi": 50,
                    "time": 117.11541599999994,
                    "velocity": 0.36220472440944884,
                    "duration": 0.5422010000000057
                },
                {
                    "name": "B2",
                    "midi": 47,
                    "time": 117.11541599999994,
                    "velocity": 0.30708661417322836,
                    "duration": 0.5422010000000057
                },
                {
                    "name": "G2",
                    "midi": 43,
                    "time": 117.11541599999994,
                    "velocity": 0.30708661417322836,
                    "duration": 0.5422010000000057
                },
                {
                    "name": "G2",
                    "midi": 43,
                    "time": 117.65761699999995,
                    "velocity": 0.36220472440944884,
                    "duration": 0.27110050000000285
                },
                {
                    "name": "C3",
                    "midi": 48,
                    "time": 117.65761699999995,
                    "velocity": 0.36220472440944884,
                    "duration": 0.27110050000000285
                },
                {
                    "name": "E3",
                    "midi": 52,
                    "time": 117.65761699999995,
                    "velocity": 0.4330708661417323,
                    "duration": 0.27110050000000285
                },
                {
                    "name": "G2",
                    "midi": 43,
                    "time": 117.92871749999995,
                    "velocity": 0.3858267716535433,
                    "duration": 0.27110050000000285
                },
                {
                    "name": "A2",
                    "midi": 45,
                    "time": 117.92871749999995,
                    "velocity": 0.3858267716535433,
                    "duration": 0.27110050000000285
                },
                {
                    "name": "F#3",
                    "midi": 54,
                    "time": 117.92871749999995,
                    "velocity": 0.4566929133858268,
                    "duration": 0.27110050000000285
                },
                {
                    "name": "G2",
                    "midi": 43,
                    "time": 118.19981799999995,
                    "velocity": 0.44881889763779526,
                    "duration": 0.4066507500000114
                },
                {
                    "name": "G3",
                    "midi": 55,
                    "time": 118.19981799999995,
                    "velocity": 0.5354330708661418,
                    "duration": 0.4066507500000114
                },
                {
                    "name": "B2",
                    "midi": 47,
                    "time": 118.19981799999995,
                    "velocity": 0.44881889763779526,
                    "duration": 0.4066507500000114
                },
                {
                    "name": "D3",
                    "midi": 50,
                    "time": 118.60646874999996,
                    "velocity": 0.3228346456692913,
                    "duration": 0.13555024999999432
                },
                {
                    "name": "G3",
                    "midi": 55,
                    "time": 118.60646874999996,
                    "velocity": 0.3228346456692913,
                    "duration": 0.13555024999999432
                },
                {
                    "name": "B3",
                    "midi": 59,
                    "time": 118.60646874999996,
                    "velocity": 0.3858267716535433,
                    "duration": 0.13555024999999432
                },
                {
                    "name": "D3",
                    "midi": 50,
                    "time": 118.74201899999996,
                    "velocity": 0.3543307086614173,
                    "duration": 0.5422009999999915
                },
                {
                    "name": "D4",
                    "midi": 62,
                    "time": 118.74201899999996,
                    "velocity": 0.4251968503937008,
                    "duration": 0.5422009999999915
                },
                {
                    "name": "B3",
                    "midi": 59,
                    "time": 118.74201899999996,
                    "velocity": 0.3543307086614173,
                    "duration": 0.5422009999999915
                },
                {
                    "name": "D3",
                    "midi": 50,
                    "time": 119.28421999999995,
                    "velocity": 0.30708661417322836,
                    "duration": 0.4066507499999972
                },
                {
                    "name": "A3",
                    "midi": 57,
                    "time": 119.28421999999995,
                    "velocity": 0.30708661417322836,
                    "duration": 0.4066507499999972
                },
                {
                    "name": "C4",
                    "midi": 60,
                    "time": 119.28421999999995,
                    "velocity": 0.36220472440944884,
                    "duration": 0.4066507499999972
                },
                {
                    "name": "G3",
                    "midi": 55,
                    "time": 119.69087074999995,
                    "velocity": 0.2440944881889764,
                    "duration": 0.13555024999999432
                },
                {
                    "name": "B3",
                    "midi": 59,
                    "time": 119.69087074999995,
                    "velocity": 0.29133858267716534,
                    "duration": 0.13555024999999432
                },
                {
                    "name": "G3",
                    "midi": 55,
                    "time": 119.82642099999994,
                    "velocity": 0.2204724409448819,
                    "duration": 0.53090514583333
                },
                {
                    "name": "B3",
                    "midi": 59,
                    "time": 119.82642099999994,
                    "velocity": 0.2677165354330709,
                    "duration": 0.53090514583333
                },
                {
                    "name": "D2",
                    "midi": 38,
                    "time": 120.36862199999993,
                    "velocity": 0.23622047244094488,
                    "duration": 0.18073366666665436
                },
                {
                    "name": "A2",
                    "midi": 45,
                    "time": 120.54935566666659,
                    "velocity": 0.2047244094488189,
                    "duration": 0.18073366666666857
                },
                {
                    "name": "D2",
                    "midi": 38,
                    "time": 120.73008933333325,
                    "velocity": 0.2125984251968504,
                    "duration": 0.18073366666666857
                },
                {
                    "name": "A1",
                    "midi": 33,
                    "time": 120.91082299999992,
                    "velocity": 0.23622047244094488,
                    "duration": 0.18073366666665436
                },
                {
                    "name": "D2",
                    "midi": 38,
                    "time": 121.09155666666658,
                    "velocity": 0.2047244094488189,
                    "duration": 0.18073366666666857
                },
                {
                    "name": "A1",
                    "midi": 33,
                    "time": 121.27229033333325,
                    "velocity": 0.2047244094488189,
                    "duration": 0.18073366666666857
                },
                {
                    "name": "D2",
                    "midi": 38,
                    "time": 121.45302399999991,
                    "velocity": 0.23622047244094488,
                    "duration": 0.18073366666666857
                },
                {
                    "name": "A2",
                    "midi": 45,
                    "time": 121.63375766666658,
                    "velocity": 0.2047244094488189,
                    "duration": 0.18073366666666857
                },
                {
                    "name": "D2",
                    "midi": 38,
                    "time": 121.81449133333325,
                    "velocity": 0.2047244094488189,
                    "duration": 0.18073366666666857
                },
                {
                    "name": "A1",
                    "midi": 33,
                    "time": 121.99522499999992,
                    "velocity": 0.25196850393700787,
                    "duration": 0.18073366666666857
                },
                {
                    "name": "D2",
                    "midi": 38,
                    "time": 122.17595866666659,
                    "velocity": 0.2125984251968504,
                    "duration": 0.18073366666666857
                },
                {
                    "name": "A1",
                    "midi": 33,
                    "time": 122.35669233333326,
                    "velocity": 0.2125984251968504,
                    "duration": 0.18073366666666857
                },
                {
                    "name": "D2",
                    "midi": 38,
                    "time": 122.53742599999993,
                    "velocity": 0.25984251968503935,
                    "duration": 0.18073366666666857
                },
                {
                    "name": "A2",
                    "midi": 45,
                    "time": 122.7181596666666,
                    "velocity": 0.2283464566929134,
                    "duration": 0.18073366666666857
                },
                {
                    "name": "D2",
                    "midi": 38,
                    "time": 122.89889333333326,
                    "velocity": 0.2283464566929134,
                    "duration": 0.18073366666666857
                },
                {
                    "name": "A1",
                    "midi": 33,
                    "time": 123.07962699999993,
                    "velocity": 0.2677165354330709,
                    "duration": 0.18073366666666857
                },
                {
                    "name": "C#2",
                    "midi": 37,
                    "time": 123.2603606666666,
                    "velocity": 0.2283464566929134,
                    "duration": 0.18073366666666857
                },
                {
                    "name": "A1",
                    "midi": 33,
                    "time": 123.44109433333327,
                    "velocity": 0.2283464566929134,
                    "duration": 0.18073366666666857
                },
                {
                    "name": "C#2",
                    "midi": 37,
                    "time": 123.62182799999994,
                    "velocity": 0.23622047244094488,
                    "duration": 0.18073366666666857
                },
                {
                    "name": "A2",
                    "midi": 45,
                    "time": 123.8025616666666,
                    "velocity": 0.2125984251968504,
                    "duration": 0.18073366666666857
                },
                {
                    "name": "C#2",
                    "midi": 37,
                    "time": 123.98329533333327,
                    "velocity": 0.2125984251968504,
                    "duration": 0.18073366666666857
                },
                {
                    "name": "A1",
                    "midi": 33,
                    "time": 124.16402899999994,
                    "velocity": 0.23622047244094488,
                    "duration": 0.18073366666666857
                },
                {
                    "name": "C#2",
                    "midi": 37,
                    "time": 124.34476266666661,
                    "velocity": 0.2125984251968504,
                    "duration": 0.18073366666666857
                },
                {
                    "name": "A1",
                    "midi": 33,
                    "time": 124.52549633333328,
                    "velocity": 0.2125984251968504,
                    "duration": 0.18073366666666857
                },
                {
                    "name": "C#2",
                    "midi": 37,
                    "time": 124.70622999999995,
                    "velocity": 0.25984251968503935,
                    "duration": 0.18073366666666857
                },
                {
                    "name": "A2",
                    "midi": 45,
                    "time": 124.88696366666662,
                    "velocity": 0.2283464566929134,
                    "duration": 0.18073366666666857
                },
                {
                    "name": "C#2",
                    "midi": 37,
                    "time": 125.06769733333329,
                    "velocity": 0.2283464566929134,
                    "duration": 0.18073366666666857
                },
                {
                    "name": "A1",
                    "midi": 33,
                    "time": 125.24843099999995,
                    "velocity": 0.2677165354330709,
                    "duration": 0.18073366666666857
                },
                {
                    "name": "C#2",
                    "midi": 37,
                    "time": 125.42916466666662,
                    "velocity": 0.23622047244094488,
                    "duration": 0.18073366666666857
                },
                {
                    "name": "A1",
                    "midi": 33,
                    "time": 125.60989833333329,
                    "velocity": 0.23622047244094488,
                    "duration": 0.18073366666666857
                },
                {
                    "name": "C#2",
                    "midi": 37,
                    "time": 125.79063199999996,
                    "velocity": 0.2755905511811024,
                    "duration": 0.18073366666666857
                },
                {
                    "name": "A2",
                    "midi": 45,
                    "time": 125.97136566666663,
                    "velocity": 0.23622047244094488,
                    "duration": 0.18073366666666857
                },
                {
                    "name": "C#2",
                    "midi": 37,
                    "time": 126.1520993333333,
                    "velocity": 0.23622047244094488,
                    "duration": 0.18073366666666857
                },
                {
                    "name": "A1",
                    "midi": 33,
                    "time": 126.33283299999997,
                    "velocity": 0.2755905511811024,
                    "duration": 0.18073366666666857
                },
                {
                    "name": "D2",
                    "midi": 38,
                    "time": 126.51356666666663,
                    "velocity": 0.23622047244094488,
                    "duration": 0.18073366666666857
                },
                {
                    "name": "A1",
                    "midi": 33,
                    "time": 126.6943003333333,
                    "velocity": 0.23622047244094488,
                    "duration": 0.18073366666666857
                },
                {
                    "name": "D2",
                    "midi": 38,
                    "time": 126.87503399999997,
                    "velocity": 0.2677165354330709,
                    "duration": 0.18073366666665436
                },
                {
                    "name": "A2",
                    "midi": 45,
                    "time": 127.05576766666663,
                    "velocity": 0.2283464566929134,
                    "duration": 0.18073366666666857
                },
                {
                    "name": "D2",
                    "midi": 38,
                    "time": 127.2365013333333,
                    "velocity": 0.2440944881889764,
                    "duration": 0.18073366666666857
                },
                {
                    "name": "A1",
                    "midi": 33,
                    "time": 127.41723499999996,
                    "velocity": 0.2677165354330709,
                    "duration": 0.18073366666666857
                },
                {
                    "name": "D2",
                    "midi": 38,
                    "time": 127.59796866666663,
                    "velocity": 0.2283464566929134,
                    "duration": 0.18073366666666857
                },
                {
                    "name": "A1",
                    "midi": 33,
                    "time": 127.7787023333333,
                    "velocity": 0.2283464566929134,
                    "duration": 0.18073366666666857
                },
                {
                    "name": "D2",
                    "midi": 38,
                    "time": 127.95943599999997,
                    "velocity": 0.30708661417322836,
                    "duration": 0.18073366666665436
                },
                {
                    "name": "A2",
                    "midi": 45,
                    "time": 128.14016966666662,
                    "velocity": 0.2677165354330709,
                    "duration": 0.18073366666666857
                },
                {
                    "name": "D2",
                    "midi": 38,
                    "time": 128.3209033333333,
                    "velocity": 0.2677165354330709,
                    "duration": 0.18073366666666857
                },
                {
                    "name": "A1",
                    "midi": 33,
                    "time": 128.50163699999996,
                    "velocity": 0.28346456692913385,
                    "duration": 0.18073366666666857
                },
                {
                    "name": "D2",
                    "midi": 38,
                    "time": 128.68237066666663,
                    "velocity": 0.2440944881889764,
                    "duration": 0.18073366666666857
                },
                {
                    "name": "A1",
                    "midi": 33,
                    "time": 128.8631043333333,
                    "velocity": 0.2440944881889764,
                    "duration": 0.18073366666666857
                },
                {
                    "name": "C#2",
                    "midi": 37,
                    "time": 129.04383799999997,
                    "velocity": 0.29133858267716534,
                    "duration": 0.18073366666666857
                },
                {
                    "name": "A2",
                    "midi": 45,
                    "time": 129.22457166666663,
                    "velocity": 0.25984251968503935,
                    "duration": 0.18073366666666857
                },
                {
                    "name": "C#2",
                    "midi": 37,
                    "time": 129.4053053333333,
                    "velocity": 0.25984251968503935,
                    "duration": 0.18073366666666857
                },
                {
                    "name": "A1",
                    "midi": 33,
                    "time": 129.58603899999997,
                    "velocity": 0.2755905511811024,
                    "duration": 0.18073366666666857
                },
                {
                    "name": "C#2",
                    "midi": 37,
                    "time": 129.76677266666664,
                    "velocity": 0.2440944881889764,
                    "duration": 0.18073366666666857
                },
                {
                    "name": "A1",
                    "midi": 33,
                    "time": 129.9475063333333,
                    "velocity": 0.23622047244094488,
                    "duration": 0.18073366666666857
                },
                {
                    "name": "D2",
                    "midi": 38,
                    "time": 130.12823999999998,
                    "velocity": 0.28346456692913385,
                    "duration": 0.18073366666666857
                },
                {
                    "name": "A2",
                    "midi": 45,
                    "time": 130.30897366666665,
                    "velocity": 0.2283464566929134,
                    "duration": 0.18073366666666857
                },
                {
                    "name": "D2",
                    "midi": 38,
                    "time": 130.4897073333333,
                    "velocity": 0.2440944881889764,
                    "duration": 0.18073366666666857
                },
                {
                    "name": "A1",
                    "midi": 33,
                    "time": 130.67044099999998,
                    "velocity": 0.29133858267716534,
                    "duration": 0.18073366666666857
                },
                {
                    "name": "D2",
                    "midi": 38,
                    "time": 130.85117466666665,
                    "velocity": 0.23622047244094488,
                    "duration": 0.18073366666666857
                },
                {
                    "name": "A1",
                    "midi": 33,
                    "time": 131.03190833333332,
                    "velocity": 0.23622047244094488,
                    "duration": 0.18073366666666857
                },
                {
                    "name": "D2",
                    "midi": 38,
                    "time": 131.212642,
                    "velocity": 0.28346456692913385,
                    "duration": 0.18073366666666857
                },
                {
                    "name": "A2",
                    "midi": 45,
                    "time": 131.39337566666666,
                    "velocity": 0.25196850393700787,
                    "duration": 0.18073366666666857
                },
                {
                    "name": "D2",
                    "midi": 38,
                    "time": 131.57410933333333,
                    "velocity": 0.25196850393700787,
                    "duration": 0.18073366666666857
                },
                {
                    "name": "A1",
                    "midi": 33,
                    "time": 131.754843,
                    "velocity": 0.33070866141732286,
                    "duration": 0.18073366666666857
                },
                {
                    "name": "D2",
                    "midi": 38,
                    "time": 131.93557666666666,
                    "velocity": 0.30708661417322836,
                    "duration": 0.18073366666666857
                },
                {
                    "name": "A1",
                    "midi": 33,
                    "time": 132.11631033333333,
                    "velocity": 0.30708661417322836,
                    "duration": 0.18073366666666857
                },
                {
                    "name": "B1",
                    "midi": 35,
                    "time": 132.297044,
                    "velocity": 0.33858267716535434,
                    "duration": 0.18073366666666857
                },
                {
                    "name": "D2",
                    "midi": 38,
                    "time": 132.47777766666667,
                    "velocity": 0.30708661417322836,
                    "duration": 0.18073366666666857
                },
                {
                    "name": "C2",
                    "midi": 36,
                    "time": 132.65851133333334,
                    "velocity": 0.31496062992125984,
                    "duration": 0.17734491041667866
                },
                {
                    "name": "C2",
                    "midi": 36,
                    "time": 132.839245,
                    "velocity": 0.36220472440944884,
                    "duration": 0.18073366666664015
                },
                {
                    "name": "D2",
                    "midi": 38,
                    "time": 133.01997866666665,
                    "velocity": 0.33070866141732286,
                    "duration": 0.18073366666666857
                },
                {
                    "name": "C2",
                    "midi": 36,
                    "time": 133.2007123333333,
                    "velocity": 0.33070866141732286,
                    "duration": 0.18073366666666857
                },
                {
                    "name": "A1",
                    "midi": 33,
                    "time": 133.38144599999998,
                    "velocity": 0.3779527559055118,
                    "duration": 0.18073366666664015
                },
                {
                    "name": "D2",
                    "midi": 38,
                    "time": 133.56217966666662,
                    "velocity": 0.33858267716535434,
                    "duration": 0.18073366666666857
                },
                {
                    "name": "A1",
                    "midi": 33,
                    "time": 133.7429133333333,
                    "velocity": 0.33858267716535434,
                    "duration": 0.18073366666666857
                },
                {
                    "name": "B1",
                    "midi": 35,
                    "time": 133.92364699999996,
                    "velocity": 0.3858267716535433,
                    "duration": 0.18073366666666857
                },
                {
                    "name": "D2",
                    "midi": 38,
                    "time": 134.10438066666663,
                    "velocity": 0.3464566929133858,
                    "duration": 0.18073366666666857
                },
                {
                    "name": "C2",
                    "midi": 36,
                    "time": 134.2851143333333,
                    "velocity": 0.3464566929133858,
                    "duration": 0.18073366666666857
                },
                {
                    "name": "C2",
                    "midi": 36,
                    "time": 134.46584799999997,
                    "velocity": 0.4251968503937008,
                    "duration": 0.18073366666664015
                },
                {
                    "name": "D2",
                    "midi": 38,
                    "time": 134.6465816666666,
                    "velocity": 0.3464566929133858,
                    "duration": 0.18073366666666857
                },
                {
                    "name": "C2",
                    "midi": 36,
                    "time": 134.82731533333327,
                    "velocity": 0.36220472440944884,
                    "duration": 0.18073366666666857
                },
                {
                    "name": "A1",
                    "midi": 33,
                    "time": 135.00804899999994,
                    "velocity": 0.44881889763779526,
                    "duration": 0.18073366666664015
                },
                {
                    "name": "D2",
                    "midi": 38,
                    "time": 135.18878266666658,
                    "velocity": 0.4015748031496063,
                    "duration": 0.18073366666666857
                },
                {
                    "name": "A1",
                    "midi": 33,
                    "time": 135.36951633333325,
                    "velocity": 0.4015748031496063,
                    "duration": 0.18073366666666857
                },
                {
                    "name": "B1",
                    "midi": 35,
                    "time": 135.55024999999992,
                    "velocity": 0.5039370078740157,
                    "duration": 0.18073366666666857
                },
                {
                    "name": "D2",
                    "midi": 38,
                    "time": 135.7309836666666,
                    "velocity": 0.4251968503937008,
                    "duration": 0.18073366666666857
                },
                {
                    "name": "C2",
                    "midi": 36,
                    "time": 135.91171733333326,
                    "velocity": 0.4251968503937008,
                    "duration": 0.17734491041667866
                },
                {
                    "name": "C2",
                    "midi": 36,
                    "time": 136.09245099999993,
                    "velocity": 0.5590551181102362,
                    "duration": 0.18073366666666857
                },
                {
                    "name": "D2",
                    "midi": 38,
                    "time": 136.2731846666666,
                    "velocity": 0.4330708661417323,
                    "duration": 0.18073366666666857
                },
                {
                    "name": "C2",
                    "midi": 36,
                    "time": 136.45391833333326,
                    "velocity": 0.4330708661417323,
                    "duration": 0.18073366666666857
                },
                {
                    "name": "D2",
                    "midi": 38,
                    "time": 136.63465199999993,
                    "velocity": 0.5669291338582677,
                    "duration": 0.18073366666664015
                },
                {
                    "name": "D3",
                    "midi": 50,
                    "time": 136.81538566666657,
                    "velocity": 0.4881889763779528,
                    "duration": 0.18073366666666857
                },
                {
                    "name": "D2",
                    "midi": 38,
                    "time": 136.99611933333324,
                    "velocity": 0.4881889763779528,
                    "duration": 0.18073366666666857
                },
                {
                    "name": "E2",
                    "midi": 40,
                    "time": 137.1768529999999,
                    "velocity": 0.5433070866141733,
                    "duration": 0.18073366666666857
                },
                {
                    "name": "D3",
                    "midi": 50,
                    "time": 137.35758666666658,
                    "velocity": 0.44881889763779526,
                    "duration": 0.18073366666666857
                },
                {
                    "name": "F#2",
                    "midi": 42,
                    "time": 137.53832033333325,
                    "velocity": 0.47244094488188976,
                    "duration": 0.18073366666666857
                },
                {
                    "name": "F#2",
                    "midi": 42,
                    "time": 137.71905399999991,
                    "velocity": 0.5196850393700787,
                    "duration": 0.18073366666666857
                },
                {
                    "name": "D3",
                    "midi": 50,
                    "time": 137.89978766666658,
                    "velocity": 0.47244094488188976,
                    "duration": 0.18073366666666857
                },
                {
                    "name": "F#2",
                    "midi": 42,
                    "time": 138.08052133333325,
                    "velocity": 0.47244094488188976,
                    "duration": 0.18073366666666857
                },
                {
                    "name": "F#2",
                    "midi": 42,
                    "time": 138.26125499999992,
                    "velocity": 0.33858267716535434,
                    "duration": 0.18073366666666857
                },
                {
                    "name": "D3",
                    "midi": 50,
                    "time": 138.4419886666666,
                    "velocity": 0.28346456692913385,
                    "duration": 0.18073366666666857
                },
                {
                    "name": "F#2",
                    "midi": 42,
                    "time": 138.62272233333326,
                    "velocity": 0.29133858267716534,
                    "duration": 0.18073366666666857
                },
                {
                    "name": "D3",
                    "midi": 50,
                    "time": 138.80345599999993,
                    "velocity": 0.29133858267716534,
                    "duration": 0.18073366666666857
                },
                {
                    "name": "F#2",
                    "midi": 42,
                    "time": 138.9841896666666,
                    "velocity": 0.25984251968503935,
                    "duration": 0.18073366666666857
                },
                {
                    "name": "D3",
                    "midi": 50,
                    "time": 139.16492333333326,
                    "velocity": 0.25984251968503935,
                    "duration": 0.18073366666666857
                },
                {
                    "name": "F#2",
                    "midi": 42,
                    "time": 139.34565699999993,
                    "velocity": 0.29133858267716534,
                    "duration": 0.18073366666666857
                },
                {
                    "name": "D3",
                    "midi": 50,
                    "time": 139.5263906666666,
                    "velocity": 0.2440944881889764,
                    "duration": 0.18073366666666857
                },
                {
                    "name": "F#2",
                    "midi": 42,
                    "time": 139.70712433333327,
                    "velocity": 0.2440944881889764,
                    "duration": 0.18073366666666857
                },
                {
                    "name": "D3",
                    "midi": 50,
                    "time": 139.88785799999994,
                    "velocity": 0.2755905511811024,
                    "duration": 0.18073366666666857
                },
                {
                    "name": "F#2",
                    "midi": 42,
                    "time": 140.0685916666666,
                    "velocity": 0.23622047244094488,
                    "duration": 0.18073366666666857
                },
                {
                    "name": "D3",
                    "midi": 50,
                    "time": 140.24932533333327,
                    "velocity": 0.23622047244094488,
                    "duration": 0.18073366666666857
                },
                {
                    "name": "F#2",
                    "midi": 42,
                    "time": 140.43005899999994,
                    "velocity": 0.2755905511811024,
                    "duration": 0.18073366666666857
                },
                {
                    "name": "D3",
                    "midi": 50,
                    "time": 140.6107926666666,
                    "velocity": 0.23622047244094488,
                    "duration": 0.18073366666666857
                },
                {
                    "name": "F#2",
                    "midi": 42,
                    "time": 140.79152633333328,
                    "velocity": 0.23622047244094488,
                    "duration": 0.18073366666666857
                },
                {
                    "name": "D3",
                    "midi": 50,
                    "time": 140.97225999999995,
                    "velocity": 0.2755905511811024,
                    "duration": 0.18073366666666857
                },
                {
                    "name": "F#2",
                    "midi": 42,
                    "time": 141.15299366666662,
                    "velocity": 0.2283464566929134,
                    "duration": 0.18073366666666857
                },
                {
                    "name": "D3",
                    "midi": 50,
                    "time": 141.3337273333333,
                    "velocity": 0.2283464566929134,
                    "duration": 0.18073366666666857
                },
                {
                    "name": "A#2",
                    "midi": 46,
                    "time": 141.51446099999995,
                    "velocity": 0.3543307086614173,
                    "duration": 0.18073366666666857
                },
                {
                    "name": "G2",
                    "midi": 43,
                    "time": 141.51446099999995,
                    "velocity": 0.2440944881889764,
                    "duration": 1.6266029999999887
                },
                {
                    "name": "D3",
                    "midi": 50,
                    "time": 141.69519466666662,
                    "velocity": 0.28346456692913385,
                    "duration": 0.18073366666666857
                },
                {
                    "name": "G3",
                    "midi": 55,
                    "time": 141.8759283333333,
                    "velocity": 0.2440944881889764,
                    "duration": 0.18073366666666857
                },
                {
                    "name": "A#2",
                    "midi": 46,
                    "time": 142.05666199999996,
                    "velocity": 0.33070866141732286,
                    "duration": 0.18073366666666857
                },
                {
                    "name": "D3",
                    "midi": 50,
                    "time": 142.23739566666663,
                    "velocity": 0.25984251968503935,
                    "duration": 0.18073366666666857
                },
                {
                    "name": "G3",
                    "midi": 55,
                    "time": 142.4181293333333,
                    "velocity": 0.2125984251968504,
                    "duration": 0.18073366666666857
                },
                {
                    "name": "A2",
                    "midi": 45,
                    "time": 142.59886299999997,
                    "velocity": 0.3228346456692913,
                    "duration": 0.18073366666664015
                },
                {
                    "name": "D3",
                    "midi": 50,
                    "time": 142.7795966666666,
                    "velocity": 0.25984251968503935,
                    "duration": 0.18073366666666857
                },
                {
                    "name": "F#3",
                    "midi": 54,
                    "time": 142.96033033333327,
                    "velocity": 0.2125984251968504,
                    "duration": 0.18073366666666857
                },
                {
                    "name": "C3",
                    "midi": 48,
                    "time": 143.14106399999994,
                    "velocity": 0.3543307086614173,
                    "duration": 0.18073366666666857
                },
                {
                    "name": "G2",
                    "midi": 43,
                    "time": 143.14106399999994,
                    "velocity": 0.2440944881889764,
                    "duration": 1.6266030000000455
                },
                {
                    "name": "D3",
                    "midi": 50,
                    "time": 143.3217976666666,
                    "velocity": 0.28346456692913385,
                    "duration": 0.18073366666666857
                },
                {
                    "name": "A3",
                    "midi": 57,
                    "time": 143.50253133333328,
                    "velocity": 0.2283464566929134,
                    "duration": 0.18073366666666857
                },
                {
                    "name": "C3",
                    "midi": 48,
                    "time": 143.68326499999995,
                    "velocity": 0.33858267716535434,
                    "duration": 0.18073366666666857
                },
                {
                    "name": "D3",
                    "midi": 50,
                    "time": 143.86399866666662,
                    "velocity": 0.25984251968503935,
                    "duration": 0.18073366666666857
                },
                {
                    "name": "A3",
                    "midi": 57,
                    "time": 144.0447323333333,
                    "velocity": 0.2204724409448819,
                    "duration": 0.18073366666666857
                },
                {
                    "name": "A#2",
                    "midi": 46,
                    "time": 144.22546599999995,
                    "velocity": 0.33858267716535434,
                    "duration": 0.180733666666697
                },
                {
                    "name": "D3",
                    "midi": 50,
                    "time": 144.40619966666665,
                    "velocity": 0.25984251968503935,
                    "duration": 0.18073366666666857
                },
                {
                    "name": "G3",
                    "midi": 55,
                    "time": 144.58693333333332,
                    "velocity": 0.2204724409448819,
                    "duration": 0.18073366666666857
                },
                {
                    "name": "A#2",
                    "midi": 46,
                    "time": 144.767667,
                    "velocity": 0.33070866141732286,
                    "duration": 0.18073366666666857
                },
                {
                    "name": "D3",
                    "midi": 50,
                    "time": 144.94840066666666,
                    "velocity": 0.25984251968503935,
                    "duration": 0.18073366666666857
                },
                {
                    "name": "G3",
                    "midi": 55,
                    "time": 145.12913433333333,
                    "velocity": 0.2204724409448819,
                    "duration": 0.18073366666666857
                },
                {
                    "name": "D3",
                    "midi": 50,
                    "time": 145.309868,
                    "velocity": 0.30708661417322836,
                    "duration": 0.27110050000001706
                },
                {
                    "name": "F#3",
                    "midi": 54,
                    "time": 145.309868,
                    "velocity": 0.30708661417322836,
                    "duration": 0.27110050000001706
                },
                {
                    "name": "A3",
                    "midi": 57,
                    "time": 145.309868,
                    "velocity": 0.30708661417322836,
                    "duration": 0.27110050000001706
                },
                {
                    "name": "D3",
                    "midi": 50,
                    "time": 145.5809685,
                    "velocity": 0.3228346456692913,
                    "duration": 0.27110049999998864
                },
                {
                    "name": "G3",
                    "midi": 55,
                    "time": 145.5809685,
                    "velocity": 0.3228346456692913,
                    "duration": 0.27110049999998864
                },
                {
                    "name": "A#3",
                    "midi": 58,
                    "time": 145.5809685,
                    "velocity": 0.3858267716535433,
                    "duration": 0.27110049999998864
                },
                {
                    "name": "D3",
                    "midi": 50,
                    "time": 145.852069,
                    "velocity": 0.3464566929133858,
                    "duration": 0.4066507500000114
                },
                {
                    "name": "A3",
                    "midi": 57,
                    "time": 145.852069,
                    "velocity": 0.3464566929133858,
                    "duration": 0.4066507500000114
                },
                {
                    "name": "C4",
                    "midi": 60,
                    "time": 145.852069,
                    "velocity": 0.4094488188976378,
                    "duration": 0.4066507500000114
                },
                {
                    "name": "D3",
                    "midi": 50,
                    "time": 146.25871975,
                    "velocity": 0.30708661417322836,
                    "duration": 0.13555024999999432
                },
                {
                    "name": "G3",
                    "midi": 55,
                    "time": 146.25871975,
                    "velocity": 0.30708661417322836,
                    "duration": 0.13555024999999432
                },
                {
                    "name": "A#3",
                    "midi": 58,
                    "time": 146.25871975,
                    "velocity": 0.3700787401574803,
                    "duration": 0.13555024999999432
                },
                {
                    "name": "D3",
                    "midi": 50,
                    "time": 146.39427,
                    "velocity": 0.2992125984251969,
                    "duration": 0.5422009999999773
                },
                {
                    "name": "G3",
                    "midi": 55,
                    "time": 146.39427,
                    "velocity": 0.2992125984251969,
                    "duration": 0.5422009999999773
                },
                {
                    "name": "A#3",
                    "midi": 58,
                    "time": 146.39427,
                    "velocity": 0.3543307086614173,
                    "duration": 0.5422009999999773
                },
                {
                    "name": "D3",
                    "midi": 50,
                    "time": 146.93647099999998,
                    "velocity": 0.2125984251968504,
                    "duration": 0.27110050000001706
                },
                {
                    "name": "F#3",
                    "midi": 54,
                    "time": 146.93647099999998,
                    "velocity": 0.2125984251968504,
                    "duration": 0.27110050000001706
                },
                {
                    "name": "A3",
                    "midi": 57,
                    "time": 146.93647099999998,
                    "velocity": 0.25196850393700787,
                    "duration": 0.27110050000001706
                },
                {
                    "name": "D3",
                    "midi": 50,
                    "time": 147.2075715,
                    "velocity": 0.2047244094488189,
                    "duration": 0.27110049999998864
                },
                {
                    "name": "E3",
                    "midi": 52,
                    "time": 147.2075715,
                    "velocity": 0.2047244094488189,
                    "duration": 0.27110049999998864
                },
                {
                    "name": "G3",
                    "midi": 55,
                    "time": 147.2075715,
                    "velocity": 0.2440944881889764,
                    "duration": 0.27110049999998864
                },
                {
                    "name": "D3",
                    "midi": 50,
                    "time": 147.478672,
                    "velocity": 0.2204724409448819,
                    "duration": 0.5422009999999773
                },
                {
                    "name": "F#3",
                    "midi": 54,
                    "time": 147.478672,
                    "velocity": 0.2204724409448819,
                    "duration": 0.5422009999999773
                },
                {
                    "name": "A3",
                    "midi": 57,
                    "time": 147.478672,
                    "velocity": 0.25984251968503935,
                    "duration": 0.5422009999999773
                },
                {
                    "name": "B2",
                    "midi": 47,
                    "time": 148.02087299999997,
                    "velocity": 0.3543307086614173,
                    "duration": 0.18073366666664015
                },
                {
                    "name": "G2",
                    "midi": 43,
                    "time": 148.02087299999997,
                    "velocity": 0.2440944881889764,
                    "duration": 1.6266029999999887
                },
                {
                    "name": "D3",
                    "midi": 50,
                    "time": 148.2016066666666,
                    "velocity": 0.28346456692913385,
                    "duration": 0.18073366666666857
                },
                {
                    "name": "G3",
                    "midi": 55,
                    "time": 148.38234033333327,
                    "velocity": 0.2440944881889764,
                    "duration": 0.18073366666666857
                },
                {
                    "name": "B2",
                    "midi": 47,
                    "time": 148.56307399999994,
                    "velocity": 0.33070866141732286,
                    "duration": 0.18073366666666857
                },
                {
                    "name": "D3",
                    "midi": 50,
                    "time": 148.7438076666666,
                    "velocity": 0.25984251968503935,
                    "duration": 0.18073366666666857
                },
                {
                    "name": "G3",
                    "midi": 55,
                    "time": 148.92454133333328,
                    "velocity": 0.2125984251968504,
                    "duration": 0.18073366666666857
                },
                {
                    "name": "A2",
                    "midi": 45,
                    "time": 149.10527499999995,
                    "velocity": 0.3228346456692913,
                    "duration": 0.18073366666666857
                },
                {
                    "name": "D3",
                    "midi": 50,
                    "time": 149.28600866666662,
                    "velocity": 0.25984251968503935,
                    "duration": 0.18073366666666857
                },
                {
                    "name": "F#3",
                    "midi": 54,
                    "time": 149.4667423333333,
                    "velocity": 0.2125984251968504,
                    "duration": 0.18073366666666857
                },
                {
                    "name": "C3",
                    "midi": 48,
                    "time": 149.64747599999995,
                    "velocity": 0.3543307086614173,
                    "duration": 0.18073366666666857
                },
                {
                    "name": "G2",
                    "midi": 43,
                    "time": 149.64747599999995,
                    "velocity": 0.2440944881889764,
                    "duration": 1.6266030000000171
                },
                {
                    "name": "D3",
                    "midi": 50,
                    "time": 149.82820966666662,
                    "velocity": 0.28346456692913385,
                    "duration": 0.18073366666666857
                },
                {
                    "name": "A3",
                    "midi": 57,
                    "time": 150.0089433333333,
                    "velocity": 0.2283464566929134,
                    "duration": 0.18073366666666857
                },
                {
                    "name": "C3",
                    "midi": 48,
                    "time": 150.18967699999996,
                    "velocity": 0.33858267716535434,
                    "duration": 0.18073366666666857
                },
                {
                    "name": "D3",
                    "midi": 50,
                    "time": 150.37041066666663,
                    "velocity": 0.25984251968503935,
                    "duration": 0.18073366666666857
                },
                {
                    "name": "A3",
                    "midi": 57,
                    "time": 150.5511443333333,
                    "velocity": 0.2204724409448819,
                    "duration": 0.18073366666666857
                },
                {
                    "name": "B2",
                    "midi": 47,
                    "time": 150.73187799999997,
                    "velocity": 0.33858267716535434,
                    "duration": 0.18073366666666857
                },
                {
                    "name": "D3",
                    "midi": 50,
                    "time": 150.91261166666663,
                    "velocity": 0.25984251968503935,
                    "duration": 0.18073366666666857
                },
                {
                    "name": "G3",
                    "midi": 55,
                    "time": 151.0933453333333,
                    "velocity": 0.2204724409448819,
                    "duration": 0.18073366666666857
                },
                {
                    "name": "D3",
                    "midi": 50,
                    "time": 151.27407899999997,
                    "velocity": 0.36220472440944884,
                    "duration": 0.5422009999999773
                },
                {
                    "name": "B2",
                    "midi": 47,
                    "time": 151.27407899999997,
                    "velocity": 0.30708661417322836,
                    "duration": 0.5422009999999773
                },
                {
                    "name": "G2",
                    "midi": 43,
                    "time": 151.27407899999997,
                    "velocity": 0.30708661417322836,
                    "duration": 0.5422009999999773
                },
                {
                    "name": "G2",
                    "midi": 43,
                    "time": 151.81627999999995,
                    "velocity": 0.36220472440944884,
                    "duration": 0.27110049999998864
                },
                {
                    "name": "C3",
                    "midi": 48,
                    "time": 151.81627999999995,
                    "velocity": 0.36220472440944884,
                    "duration": 0.27110049999998864
                },
                {
                    "name": "E3",
                    "midi": 52,
                    "time": 151.81627999999995,
                    "velocity": 0.4330708661417323,
                    "duration": 0.27110049999998864
                },
                {
                    "name": "G2",
                    "midi": 43,
                    "time": 152.08738049999994,
                    "velocity": 0.3858267716535433,
                    "duration": 0.27110049999998864
                },
                {
                    "name": "A2",
                    "midi": 45,
                    "time": 152.08738049999994,
                    "velocity": 0.3858267716535433,
                    "duration": 0.27110049999998864
                },
                {
                    "name": "F#3",
                    "midi": 54,
                    "time": 152.08738049999994,
                    "velocity": 0.4566929133858268,
                    "duration": 0.27110049999998864
                },
                {
                    "name": "G2",
                    "midi": 43,
                    "time": 152.35848099999993,
                    "velocity": 0.44881889763779526,
                    "duration": 0.4066507500000114
                },
                {
                    "name": "G3",
                    "midi": 55,
                    "time": 152.35848099999993,
                    "velocity": 0.5354330708661418,
                    "duration": 0.4066507500000114
                },
                {
                    "name": "B2",
                    "midi": 47,
                    "time": 152.35848099999993,
                    "velocity": 0.44881889763779526,
                    "duration": 0.4066507500000114
                },
                {
                    "name": "D3",
                    "midi": 50,
                    "time": 152.76513174999994,
                    "velocity": 0.3228346456692913,
                    "duration": 0.13555024999999432
                },
                {
                    "name": "G3",
                    "midi": 55,
                    "time": 152.76513174999994,
                    "velocity": 0.3228346456692913,
                    "duration": 0.13555024999999432
                },
                {
                    "name": "B3",
                    "midi": 59,
                    "time": 152.76513174999994,
                    "velocity": 0.3858267716535433,
                    "duration": 0.13555024999999432
                },
                {
                    "name": "D3",
                    "midi": 50,
                    "time": 152.90068199999993,
                    "velocity": 0.3543307086614173,
                    "duration": 0.5422010000000057
                },
                {
                    "name": "B3",
                    "midi": 59,
                    "time": 152.90068199999993,
                    "velocity": 0.3543307086614173,
                    "duration": 0.5422010000000057
                },
                {
                    "name": "D3",
                    "midi": 50,
                    "time": 153.44288299999994,
                    "velocity": 0.30708661417322836,
                    "duration": 0.4066507500000114
                },
                {
                    "name": "A3",
                    "midi": 57,
                    "time": 153.44288299999994,
                    "velocity": 0.30708661417322836,
                    "duration": 0.4066507500000114
                },
                {
                    "name": "C4",
                    "midi": 60,
                    "time": 153.44288299999994,
                    "velocity": 0.36220472440944884,
                    "duration": 0.4066507500000114
                },
                {
                    "name": "G3",
                    "midi": 55,
                    "time": 153.84953374999995,
                    "velocity": 0.2440944881889764,
                    "duration": 0.13555024999999432
                },
                {
                    "name": "B3",
                    "midi": 59,
                    "time": 153.84953374999995,
                    "velocity": 0.29133858267716534,
                    "duration": 0.13555024999999432
                },
                {
                    "name": "G3",
                    "midi": 55,
                    "time": 153.98508399999994,
                    "velocity": 0.2204724409448819,
                    "duration": 0.5422010000000057
                },
                {
                    "name": "B3",
                    "midi": 59,
                    "time": 153.98508399999994,
                    "velocity": 0.2677165354330709,
                    "duration": 0.5422010000000057
                },
                {
                    "name": "D2",
                    "midi": 38,
                    "time": 154.52728499999995,
                    "velocity": 0.23622047244094488,
                    "duration": 0.18073366666664015
                },
                {
                    "name": "A2",
                    "midi": 45,
                    "time": 154.7080186666666,
                    "velocity": 0.2047244094488189,
                    "duration": 0.18073366666666857
                },
                {
                    "name": "D2",
                    "midi": 38,
                    "time": 154.88875233333326,
                    "velocity": 0.2125984251968504,
                    "duration": 0.18073366666666857
                },
                {
                    "name": "A1",
                    "midi": 33,
                    "time": 155.06948599999993,
                    "velocity": 0.23622047244094488,
                    "duration": 0.18073366666666857
                },
                {
                    "name": "D2",
                    "midi": 38,
                    "time": 155.2502196666666,
                    "velocity": 0.2047244094488189,
                    "duration": 0.18073366666666857
                },
                {
                    "name": "A1",
                    "midi": 33,
                    "time": 155.43095333333326,
                    "velocity": 0.2047244094488189,
                    "duration": 0.18073366666666857
                },
                {
                    "name": "D2",
                    "midi": 38,
                    "time": 155.61168699999993,
                    "velocity": 0.23622047244094488,
                    "duration": 0.18073366666666857
                },
                {
                    "name": "A2",
                    "midi": 45,
                    "time": 155.7924206666666,
                    "velocity": 0.2047244094488189,
                    "duration": 0.18073366666666857
                },
                {
                    "name": "D2",
                    "midi": 38,
                    "time": 155.97315433333327,
                    "velocity": 0.2047244094488189,
                    "duration": 0.18073366666666857
                },
                {
                    "name": "A1",
                    "midi": 33,
                    "time": 156.15388799999994,
                    "velocity": 0.25196850393700787,
                    "duration": 0.18073366666666857
                },
                {
                    "name": "D2",
                    "midi": 38,
                    "time": 156.3346216666666,
                    "velocity": 0.2125984251968504,
                    "duration": 0.18073366666666857
                },
                {
                    "name": "A1",
                    "midi": 33,
                    "time": 156.51535533333328,
                    "velocity": 0.2125984251968504,
                    "duration": 0.18073366666666857
                },
                {
                    "name": "D2",
                    "midi": 38,
                    "time": 156.69608899999994,
                    "velocity": 0.25984251968503935,
                    "duration": 0.18073366666666857
                },
                {
                    "name": "A2",
                    "midi": 45,
                    "time": 156.8768226666666,
                    "velocity": 0.2283464566929134,
                    "duration": 0.18073366666666857
                },
                {
                    "name": "D2",
                    "midi": 38,
                    "time": 157.05755633333328,
                    "velocity": 0.2283464566929134,
                    "duration": 0.18073366666666857
                },
                {
                    "name": "A1",
                    "midi": 33,
                    "time": 157.23828999999995,
                    "velocity": 0.2677165354330709,
                    "duration": 0.18073366666664015
                },
                {
                    "name": "C#2",
                    "midi": 37,
                    "time": 157.4190236666666,
                    "velocity": 0.2283464566929134,
                    "duration": 0.18073366666666857
                },
                {
                    "name": "A1",
                    "midi": 33,
                    "time": 157.59975733333326,
                    "velocity": 0.2283464566929134,
                    "duration": 0.18073366666666857
                },
                {
                    "name": "C#2",
                    "midi": 37,
                    "time": 157.78049099999993,
                    "velocity": 0.23622047244094488,
                    "duration": 0.18073366666666857
                },
                {
                    "name": "A2",
                    "midi": 45,
                    "time": 157.9612246666666,
                    "velocity": 0.2125984251968504,
                    "duration": 0.18073366666666857
                },
                {
                    "name": "C#2",
                    "midi": 37,
                    "time": 158.14195833333326,
                    "velocity": 0.2125984251968504,
                    "duration": 0.18073366666666857
                },
                {
                    "name": "A1",
                    "midi": 33,
                    "time": 158.32269199999993,
                    "velocity": 0.23622047244094488,
                    "duration": 0.18073366666666857
                },
                {
                    "name": "C#2",
                    "midi": 37,
                    "time": 158.5034256666666,
                    "velocity": 0.2125984251968504,
                    "duration": 0.18073366666666857
                },
                {
                    "name": "A1",
                    "midi": 33,
                    "time": 158.68415933333327,
                    "velocity": 0.2125984251968504,
                    "duration": 0.18073366666666857
                },
                {
                    "name": "C#2",
                    "midi": 37,
                    "time": 158.86489299999994,
                    "velocity": 0.25984251968503935,
                    "duration": 0.18073366666666857
                },
                {
                    "name": "A2",
                    "midi": 45,
                    "time": 159.0456266666666,
                    "velocity": 0.2283464566929134,
                    "duration": 0.18073366666666857
                },
                {
                    "name": "C#2",
                    "midi": 37,
                    "time": 159.22636033333328,
                    "velocity": 0.2283464566929134,
                    "duration": 0.18073366666666857
                },
                {
                    "name": "A1",
                    "midi": 33,
                    "time": 159.40709399999994,
                    "velocity": 0.2677165354330709,
                    "duration": 0.18073366666666857
                },
                {
                    "name": "C#2",
                    "midi": 37,
                    "time": 159.5878276666666,
                    "velocity": 0.23622047244094488,
                    "duration": 0.18073366666666857
                },
                {
                    "name": "A1",
                    "midi": 33,
                    "time": 159.76856133333328,
                    "velocity": 0.23622047244094488,
                    "duration": 0.18073366666666857
                },
                {
                    "name": "C#2",
                    "midi": 37,
                    "time": 159.94929499999995,
                    "velocity": 0.2755905511811024,
                    "duration": 0.18073366666666857
                },
                {
                    "name": "A2",
                    "midi": 45,
                    "time": 160.13002866666662,
                    "velocity": 0.23622047244094488,
                    "duration": 0.18073366666666857
                },
                {
                    "name": "C#2",
                    "midi": 37,
                    "time": 160.3107623333333,
                    "velocity": 0.23622047244094488,
                    "duration": 0.18073366666666857
                },
                {
                    "name": "A1",
                    "midi": 33,
                    "time": 160.49149599999996,
                    "velocity": 0.2755905511811024,
                    "duration": 0.180733666666697
                },
                {
                    "name": "D2",
                    "midi": 38,
                    "time": 160.67222966666665,
                    "velocity": 0.23622047244094488,
                    "duration": 0.18073366666666857
                },
                {
                    "name": "A1",
                    "midi": 33,
                    "time": 160.85296333333332,
                    "velocity": 0.23622047244094488,
                    "duration": 0.18073366666666857
                },
                {
                    "name": "D2",
                    "midi": 38,
                    "time": 161.033697,
                    "velocity": 0.2677165354330709,
                    "duration": 0.18073366666666857
                },
                {
                    "name": "A2",
                    "midi": 45,
                    "time": 161.21443066666666,
                    "velocity": 0.2283464566929134,
                    "duration": 0.18073366666666857
                },
                {
                    "name": "D2",
                    "midi": 38,
                    "time": 161.39516433333333,
                    "velocity": 0.2440944881889764,
                    "duration": 0.18073366666666857
                },
                {
                    "name": "A1",
                    "midi": 33,
                    "time": 161.575898,
                    "velocity": 0.2677165354330709,
                    "duration": 0.18073366666664015
                },
                {
                    "name": "D2",
                    "midi": 38,
                    "time": 161.75663166666664,
                    "velocity": 0.2283464566929134,
                    "duration": 0.18073366666666857
                },
                {
                    "name": "A1",
                    "midi": 33,
                    "time": 161.9373653333333,
                    "velocity": 0.2283464566929134,
                    "duration": 0.18073366666666857
                },
                {
                    "name": "D2",
                    "midi": 38,
                    "time": 162.11809899999997,
                    "velocity": 0.30708661417322836,
                    "duration": 0.18073366666666857
                },
                {
                    "name": "A2",
                    "midi": 45,
                    "time": 162.29883266666664,
                    "velocity": 0.2677165354330709,
                    "duration": 0.18073366666666857
                },
                {
                    "name": "D2",
                    "midi": 38,
                    "time": 162.4795663333333,
                    "velocity": 0.2677165354330709,
                    "duration": 0.18073366666666857
                },
                {
                    "name": "A1",
                    "midi": 33,
                    "time": 162.66029999999998,
                    "velocity": 0.28346456692913385,
                    "duration": 0.18073366666666857
                },
                {
                    "name": "D2",
                    "midi": 38,
                    "time": 162.84103366666665,
                    "velocity": 0.2440944881889764,
                    "duration": 0.18073366666666857
                },
                {
                    "name": "A1",
                    "midi": 33,
                    "time": 163.02176733333332,
                    "velocity": 0.2440944881889764,
                    "duration": 0.18073366666666857
                },
                {
                    "name": "C#2",
                    "midi": 37,
                    "time": 163.20250099999998,
                    "velocity": 0.29133858267716534,
                    "duration": 0.18073366666666857
                },
                {
                    "name": "A2",
                    "midi": 45,
                    "time": 163.38323466666665,
                    "velocity": 0.25984251968503935,
                    "duration": 0.18073366666666857
                },
                {
                    "name": "C#2",
                    "midi": 37,
                    "time": 163.56396833333332,
                    "velocity": 0.25984251968503935,
                    "duration": 0.18073366666666857
                },
                {
                    "name": "A1",
                    "midi": 33,
                    "time": 163.744702,
                    "velocity": 0.2755905511811024,
                    "duration": 0.180733666666697
                },
                {
                    "name": "C#2",
                    "midi": 37,
                    "time": 163.9254356666667,
                    "velocity": 0.2440944881889764,
                    "duration": 0.18073366666666857
                },
                {
                    "name": "A1",
                    "midi": 33,
                    "time": 164.10616933333336,
                    "velocity": 0.23622047244094488,
                    "duration": 0.18073366666666857
                },
                {
                    "name": "D2",
                    "midi": 38,
                    "time": 164.28690300000002,
                    "velocity": 0.28346456692913385,
                    "duration": 0.18073366666666857
                },
                {
                    "name": "A2",
                    "midi": 45,
                    "time": 164.4676366666667,
                    "velocity": 0.2283464566929134,
                    "duration": 0.18073366666666857
                },
                {
                    "name": "D2",
                    "midi": 38,
                    "time": 164.64837033333336,
                    "velocity": 0.2440944881889764,
                    "duration": 0.18073366666666857
                },
                {
                    "name": "A1",
                    "midi": 33,
                    "time": 164.82910400000003,
                    "velocity": 0.29133858267716534,
                    "duration": 0.18073366666666857
                },
                {
                    "name": "D2",
                    "midi": 38,
                    "time": 165.0098376666667,
                    "velocity": 0.23622047244094488,
                    "duration": 0.18073366666666857
                },
                {
                    "name": "A1",
                    "midi": 33,
                    "time": 165.19057133333337,
                    "velocity": 0.23622047244094488,
                    "duration": 0.18073366666666857
                },
                {
                    "name": "D2",
                    "midi": 38,
                    "time": 165.37130500000004,
                    "velocity": 0.28346456692913385,
                    "duration": 0.18073366666666857
                },
                {
                    "name": "A2",
                    "midi": 45,
                    "time": 165.5520386666667,
                    "velocity": 0.25196850393700787,
                    "duration": 0.18073366666666857
                },
                {
                    "name": "D2",
                    "midi": 38,
                    "time": 165.73277233333337,
                    "velocity": 0.25196850393700787,
                    "duration": 0.18073366666666857
                },
                {
                    "name": "A1",
                    "midi": 33,
                    "time": 165.91350600000004,
                    "velocity": 0.33070866141732286,
                    "duration": 0.18073366666666857
                },
                {
                    "name": "D2",
                    "midi": 38,
                    "time": 166.0942396666667,
                    "velocity": 0.30708661417322836,
                    "duration": 0.18073366666666857
                },
                {
                    "name": "A1",
                    "midi": 33,
                    "time": 166.27497333333338,
                    "velocity": 0.30708661417322836,
                    "duration": 0.18073366666666857
                },
                {
                    "name": "B1",
                    "midi": 35,
                    "time": 166.45570700000005,
                    "velocity": 0.33858267716535434,
                    "duration": 0.18073366666666857
                },
                {
                    "name": "D2",
                    "midi": 38,
                    "time": 166.63644066666672,
                    "velocity": 0.30708661417322836,
                    "duration": 0.18073366666666857
                },
                {
                    "name": "C2",
                    "midi": 36,
                    "time": 166.81717433333338,
                    "velocity": 0.31496062992125984,
                    "duration": 0.18073366666666857
                },
                {
                    "name": "C2",
                    "midi": 36,
                    "time": 166.99790800000005,
                    "velocity": 0.36220472440944884,
                    "duration": 0.18073366666666857
                },
                {
                    "name": "D2",
                    "midi": 38,
                    "time": 167.17864166666672,
                    "velocity": 0.33070866141732286,
                    "duration": 0.18073366666666857
                },
                {
                    "name": "C2",
                    "midi": 36,
                    "time": 167.3593753333334,
                    "velocity": 0.33070866141732286,
                    "duration": 0.18073366666666857
                },
                {
                    "name": "A1",
                    "midi": 33,
                    "time": 167.54010900000006,
                    "velocity": 0.3779527559055118,
                    "duration": 0.18073366666666857
                },
                {
                    "name": "D2",
                    "midi": 38,
                    "time": 167.72084266666673,
                    "velocity": 0.33858267716535434,
                    "duration": 0.18073366666666857
                },
                {
                    "name": "A1",
                    "midi": 33,
                    "time": 167.9015763333334,
                    "velocity": 0.33858267716535434,
                    "duration": 0.18073366666666857
                },
                {
                    "name": "B1",
                    "midi": 35,
                    "time": 168.08231000000006,
                    "velocity": 0.3858267716535433,
                    "duration": 0.180733666666697
                },
                {
                    "name": "D2",
                    "midi": 38,
                    "time": 168.26304366666676,
                    "velocity": 0.3464566929133858,
                    "duration": 0.18073366666666857
                },
                {
                    "name": "C2",
                    "midi": 36,
                    "time": 168.44377733333343,
                    "velocity": 0.3464566929133858,
                    "duration": 0.18073366666666857
                },
                {
                    "name": "C2",
                    "midi": 36,
                    "time": 168.6245110000001,
                    "velocity": 0.4251968503937008,
                    "duration": 0.18073366666666857
                },
                {
                    "name": "D2",
                    "midi": 38,
                    "time": 168.80524466666677,
                    "velocity": 0.3464566929133858,
                    "duration": 0.18073366666666857
                },
                {
                    "name": "C2",
                    "midi": 36,
                    "time": 168.98597833333343,
                    "velocity": 0.36220472440944884,
                    "duration": 0.18073366666666857
                },
                {
                    "name": "A1",
                    "midi": 33,
                    "time": 169.1667120000001,
                    "velocity": 0.44881889763779526,
                    "duration": 0.18073366666666857
                },
                {
                    "name": "D2",
                    "midi": 38,
                    "time": 169.34744566666677,
                    "velocity": 0.4015748031496063,
                    "duration": 0.18073366666666857
                },
                {
                    "name": "A1",
                    "midi": 33,
                    "time": 169.52817933333344,
                    "velocity": 0.4015748031496063,
                    "duration": 0.18073366666666857
                },
                {
                    "name": "B1",
                    "midi": 35,
                    "time": 169.7089130000001,
                    "velocity": 0.5039370078740157,
                    "duration": 0.18073366666666857
                },
                {
                    "name": "D2",
                    "midi": 38,
                    "time": 169.88964666666678,
                    "velocity": 0.4251968503937008,
                    "duration": 0.18073366666666857
                },
                {
                    "name": "C2",
                    "midi": 36,
                    "time": 170.07038033333345,
                    "velocity": 0.4251968503937008,
                    "duration": 0.18073366666666857
                },
                {
                    "name": "C2",
                    "midi": 36,
                    "time": 170.25111400000011,
                    "velocity": 0.5590551181102362,
                    "duration": 0.18073366666666857
                },
                {
                    "name": "D2",
                    "midi": 38,
                    "time": 170.43184766666678,
                    "velocity": 0.4330708661417323,
                    "duration": 0.18073366666666857
                },
                {
                    "name": "C2",
                    "midi": 36,
                    "time": 170.61258133333345,
                    "velocity": 0.4330708661417323,
                    "duration": 0.18073366666666857
                },
                {
                    "name": "D2",
                    "midi": 38,
                    "time": 170.79331500000012,
                    "velocity": 0.5669291338582677,
                    "duration": 0.18073366666666857
                },
                {
                    "name": "D3",
                    "midi": 50,
                    "time": 170.9740486666668,
                    "velocity": 0.4881889763779528,
                    "duration": 0.18073366666666857
                },
                {
                    "name": "D2",
                    "midi": 38,
                    "time": 171.15478233333346,
                    "velocity": 0.4881889763779528,
                    "duration": 0.18073366666666857
                },
                {
                    "name": "E2",
                    "midi": 40,
                    "time": 171.33551600000013,
                    "velocity": 0.5433070866141733,
                    "duration": 0.18073366666664015
                },
                {
                    "name": "D3",
                    "midi": 50,
                    "time": 171.51624966666677,
                    "velocity": 0.44881889763779526,
                    "duration": 0.18073366666666857
                },
                {
                    "name": "F#2",
                    "midi": 42,
                    "time": 171.69698333333343,
                    "velocity": 0.47244094488188976,
                    "duration": 0.18073366666666857
                },
                {
                    "name": "F#2",
                    "midi": 42,
                    "time": 171.8777170000001,
                    "velocity": 0.5196850393700787,
                    "duration": 0.18073366666666857
                },
                {
                    "name": "D3",
                    "midi": 50,
                    "time": 172.05845066666677,
                    "velocity": 0.47244094488188976,
                    "duration": 0.18073366666666857
                },
                {
                    "name": "F#2",
                    "midi": 42,
                    "time": 172.23918433333344,
                    "velocity": 0.47244094488188976,
                    "duration": 0.17395615416666033
                },
                {
                    "name": "F#2",
                    "midi": 42,
                    "time": 172.4199180000001,
                    "velocity": 0.33858267716535434,
                    "duration": 0.18073366666664015
                },
                {
                    "name": "D3",
                    "midi": 50,
                    "time": 172.60065166666675,
                    "velocity": 0.28346456692913385,
                    "duration": 0.18073366666666857
                },
                {
                    "name": "F#2",
                    "midi": 42,
                    "time": 172.78138533333342,
                    "velocity": 0.29133858267716534,
                    "duration": 0.18073366666666857
                },
                {
                    "name": "D3",
                    "midi": 50,
                    "time": 172.9621190000001,
                    "velocity": 0.29133858267716534,
                    "duration": 0.18073366666666857
                },
                {
                    "name": "F#2",
                    "midi": 42,
                    "time": 173.14285266666676,
                    "velocity": 0.25984251968503935,
                    "duration": 0.18073366666666857
                },
                {
                    "name": "D3",
                    "midi": 50,
                    "time": 173.32358633333342,
                    "velocity": 0.25984251968503935,
                    "duration": 0.18073366666666857
                },
                {
                    "name": "F#2",
                    "midi": 42,
                    "time": 173.5043200000001,
                    "velocity": 0.29133858267716534,
                    "duration": 0.18073366666666857
                },
                {
                    "name": "D3",
                    "midi": 50,
                    "time": 173.68505366666676,
                    "velocity": 0.2440944881889764,
                    "duration": 0.18073366666666857
                },
                {
                    "name": "F#2",
                    "midi": 42,
                    "time": 173.86578733333343,
                    "velocity": 0.2440944881889764,
                    "duration": 0.18073366666666857
                },
                {
                    "name": "D3",
                    "midi": 50,
                    "time": 174.0465210000001,
                    "velocity": 0.2755905511811024,
                    "duration": 0.18073366666666857
                },
                {
                    "name": "F#2",
                    "midi": 42,
                    "time": 174.22725466666677,
                    "velocity": 0.23622047244094488,
                    "duration": 0.18073366666666857
                },
                {
                    "name": "D3",
                    "midi": 50,
                    "time": 174.40798833333344,
                    "velocity": 0.23622047244094488,
                    "duration": 0.18073366666666857
                },
                {
                    "name": "F#2",
                    "midi": 42,
                    "time": 174.5887220000001,
                    "velocity": 0.2755905511811024,
                    "duration": 0.18073366666666857
                },
                {
                    "name": "D3",
                    "midi": 50,
                    "time": 174.76945566666677,
                    "velocity": 0.23622047244094488,
                    "duration": 0.18073366666666857
                },
                {
                    "name": "F#2",
                    "midi": 42,
                    "time": 174.95018933333344,
                    "velocity": 0.23622047244094488,
                    "duration": 0.18073366666666857
                },
                {
                    "name": "D3",
                    "midi": 50,
                    "time": 175.1309230000001,
                    "velocity": 0.2755905511811024,
                    "duration": 0.18073366666666857
                },
                {
                    "name": "F#2",
                    "midi": 42,
                    "time": 175.31165666666678,
                    "velocity": 0.2283464566929134,
                    "duration": 0.18073366666666857
                },
                {
                    "name": "D3",
                    "midi": 50,
                    "time": 175.49239033333345,
                    "velocity": 0.2283464566929134,
                    "duration": 0.18073366666666857
                },
                {
                    "name": "A#2",
                    "midi": 46,
                    "time": 175.67312400000012,
                    "velocity": 0.3543307086614173,
                    "duration": 0.18073366666666857
                },
                {
                    "name": "G2",
                    "midi": 43,
                    "time": 175.67312400000012,
                    "velocity": 0.2440944881889764,
                    "duration": 1.6266029999999887
                },
                {
                    "name": "D3",
                    "midi": 50,
                    "time": 175.85385766666678,
                    "velocity": 0.28346456692913385,
                    "duration": 0.18073366666666857
                },
                {
                    "name": "G3",
                    "midi": 55,
                    "time": 176.03459133333345,
                    "velocity": 0.2440944881889764,
                    "duration": 0.18073366666666857
                },
                {
                    "name": "A#2",
                    "midi": 46,
                    "time": 176.21532500000012,
                    "velocity": 0.33070866141732286,
                    "duration": 0.18073366666666857
                },
                {
                    "name": "D3",
                    "midi": 50,
                    "time": 176.3960586666668,
                    "velocity": 0.25984251968503935,
                    "duration": 0.18073366666666857
                },
                {
                    "name": "G3",
                    "midi": 55,
                    "time": 176.57679233333346,
                    "velocity": 0.2125984251968504,
                    "duration": 0.18073366666666857
                },
                {
                    "name": "A2",
                    "midi": 45,
                    "time": 176.75752600000013,
                    "velocity": 0.3228346456692913,
                    "duration": 0.18073366666664015
                },
                {
                    "name": "D3",
                    "midi": 50,
                    "time": 176.93825966666677,
                    "velocity": 0.25984251968503935,
                    "duration": 0.18073366666666857
                },
                {
                    "name": "F#3",
                    "midi": 54,
                    "time": 177.11899333333344,
                    "velocity": 0.2125984251968504,
                    "duration": 0.18073366666666857
                },
                {
                    "name": "C3",
                    "midi": 48,
                    "time": 177.2997270000001,
                    "velocity": 0.3543307086614173,
                    "duration": 0.18073366666666857
                },
                {
                    "name": "G2",
                    "midi": 43,
                    "time": 177.2997270000001,
                    "velocity": 0.2440944881889764,
                    "duration": 1.6266030000000171
                },
                {
                    "name": "D3",
                    "midi": 50,
                    "time": 177.48046066666677,
                    "velocity": 0.28346456692913385,
                    "duration": 0.18073366666666857
                },
                {
                    "name": "A3",
                    "midi": 57,
                    "time": 177.66119433333344,
                    "velocity": 0.2283464566929134,
                    "duration": 0.18073366666666857
                },
                {
                    "name": "C3",
                    "midi": 48,
                    "time": 177.8419280000001,
                    "velocity": 0.33858267716535434,
                    "duration": 0.18073366666666857
                },
                {
                    "name": "D3",
                    "midi": 50,
                    "time": 178.02266166666678,
                    "velocity": 0.25984251968503935,
                    "duration": 0.18073366666666857
                },
                {
                    "name": "A3",
                    "midi": 57,
                    "time": 178.20339533333345,
                    "velocity": 0.2204724409448819,
                    "duration": 0.18073366666666857
                },
                {
                    "name": "A#2",
                    "midi": 46,
                    "time": 178.38412900000012,
                    "velocity": 0.33858267716535434,
                    "duration": 0.18073366666666857
                },
                {
                    "name": "D3",
                    "midi": 50,
                    "time": 178.56486266666678,
                    "velocity": 0.25984251968503935,
                    "duration": 0.18073366666666857
                },
                {
                    "name": "G3",
                    "midi": 55,
                    "time": 178.74559633333345,
                    "velocity": 0.2204724409448819,
                    "duration": 0.18073366666666857
                },
                {
                    "name": "A#2",
                    "midi": 46,
                    "time": 178.92633000000012,
                    "velocity": 0.33070866141732286,
                    "duration": 0.18073366666666857
                },
                {
                    "name": "D3",
                    "midi": 50,
                    "time": 179.1070636666668,
                    "velocity": 0.25984251968503935,
                    "duration": 0.18073366666666857
                },
                {
                    "name": "G3",
                    "midi": 55,
                    "time": 179.28779733333346,
                    "velocity": 0.2204724409448819,
                    "duration": 0.18073366666666857
                },
                {
                    "name": "D3",
                    "midi": 50,
                    "time": 179.46853100000013,
                    "velocity": 0.30708661417322836,
                    "duration": 0.27110049999998864
                },
                {
                    "name": "F#3",
                    "midi": 54,
                    "time": 179.46853100000013,
                    "velocity": 0.30708661417322836,
                    "duration": 0.27110049999998864
                },
                {
                    "name": "A3",
                    "midi": 57,
                    "time": 179.46853100000013,
                    "velocity": 0.36220472440944884,
                    "duration": 0.27110049999998864
                },
                {
                    "name": "D3",
                    "midi": 50,
                    "time": 179.73963150000012,
                    "velocity": 0.3228346456692913,
                    "duration": 0.27110049999998864
                },
                {
                    "name": "G3",
                    "midi": 55,
                    "time": 179.73963150000012,
                    "velocity": 0.3228346456692913,
                    "duration": 0.27110049999998864
                },
                {
                    "name": "A#3",
                    "midi": 58,
                    "time": 179.73963150000012,
                    "velocity": 0.3858267716535433,
                    "duration": 0.27110049999998864
                },
                {
                    "name": "D3",
                    "midi": 50,
                    "time": 180.0107320000001,
                    "velocity": 0.3464566929133858,
                    "duration": 0.4066507500000114
                },
                {
                    "name": "A3",
                    "midi": 57,
                    "time": 180.0107320000001,
                    "velocity": 0.3464566929133858,
                    "duration": 0.4066507500000114
                },
                {
                    "name": "C4",
                    "midi": 60,
                    "time": 180.0107320000001,
                    "velocity": 0.4094488188976378,
                    "duration": 0.4066507500000114
                },
                {
                    "name": "D3",
                    "midi": 50,
                    "time": 180.41738275000012,
                    "velocity": 0.30708661417322836,
                    "duration": 0.13555024999999432
                },
                {
                    "name": "G3",
                    "midi": 55,
                    "time": 180.41738275000012,
                    "velocity": 0.30708661417322836,
                    "duration": 0.13555024999999432
                },
                {
                    "name": "A#3",
                    "midi": 58,
                    "time": 180.41738275000012,
                    "velocity": 0.3700787401574803,
                    "duration": 0.13555024999999432
                },
                {
                    "name": "D3",
                    "midi": 50,
                    "time": 180.5529330000001,
                    "velocity": 0.2992125984251969,
                    "duration": 0.5422010000000057
                },
                {
                    "name": "G3",
                    "midi": 55,
                    "time": 180.5529330000001,
                    "velocity": 0.2992125984251969,
                    "duration": 0.5422010000000057
                },
                {
                    "name": "A#3",
                    "midi": 58,
                    "time": 180.5529330000001,
                    "velocity": 0.3543307086614173,
                    "duration": 0.5422010000000057
                },
                {
                    "name": "D3",
                    "midi": 50,
                    "time": 181.09513400000012,
                    "velocity": 0.2125984251968504,
                    "duration": 0.27110049999998864
                },
                {
                    "name": "F#3",
                    "midi": 54,
                    "time": 181.09513400000012,
                    "velocity": 0.2125984251968504,
                    "duration": 0.27110049999998864
                },
                {
                    "name": "A3",
                    "midi": 57,
                    "time": 181.09513400000012,
                    "velocity": 0.25196850393700787,
                    "duration": 0.27110049999998864
                },
                {
                    "name": "D3",
                    "midi": 50,
                    "time": 181.3662345000001,
                    "velocity": 0.2047244094488189,
                    "duration": 0.27110049999998864
                },
                {
                    "name": "E3",
                    "midi": 52,
                    "time": 181.3662345000001,
                    "velocity": 0.2047244094488189,
                    "duration": 0.27110049999998864
                },
                {
                    "name": "G3",
                    "midi": 55,
                    "time": 181.3662345000001,
                    "velocity": 0.2047244094488189,
                    "duration": 0.27110049999998864
                },
                {
                    "name": "D3",
                    "midi": 50,
                    "time": 181.6373350000001,
                    "velocity": 0.2204724409448819,
                    "duration": 0.5422009999999773
                },
                {
                    "name": "F#3",
                    "midi": 54,
                    "time": 181.6373350000001,
                    "velocity": 0.2204724409448819,
                    "duration": 0.5422009999999773
                },
                {
                    "name": "A3",
                    "midi": 57,
                    "time": 181.6373350000001,
                    "velocity": 0.25984251968503935,
                    "duration": 0.5422009999999773
                },
                {
                    "name": "B2",
                    "midi": 47,
                    "time": 182.17953600000007,
                    "velocity": 0.3543307086614173,
                    "duration": 0.18073366666666857
                },
                {
                    "name": "G2",
                    "midi": 43,
                    "time": 182.17953600000007,
                    "velocity": 0.2440944881889764,
                    "duration": 1.6266030000000455
                },
                {
                    "name": "D3",
                    "midi": 50,
                    "time": 182.36026966666674,
                    "velocity": 0.28346456692913385,
                    "duration": 0.18073366666666857
                },
                {
                    "name": "G3",
                    "midi": 55,
                    "time": 182.5410033333334,
                    "velocity": 0.2440944881889764,
                    "duration": 0.18073366666666857
                },
                {
                    "name": "B2",
                    "midi": 47,
                    "time": 182.72173700000008,
                    "velocity": 0.33070866141732286,
                    "duration": 0.18073366666666857
                },
                {
                    "name": "D3",
                    "midi": 50,
                    "time": 182.90247066666674,
                    "velocity": 0.25984251968503935,
                    "duration": 0.18073366666666857
                },
                {
                    "name": "G3",
                    "midi": 55,
                    "time": 183.0832043333334,
                    "velocity": 0.2125984251968504,
                    "duration": 0.18073366666666857
                },
                {
                    "name": "A2",
                    "midi": 45,
                    "time": 183.26393800000008,
                    "velocity": 0.3228346456692913,
                    "duration": 0.180733666666697
                },
                {
                    "name": "D3",
                    "midi": 50,
                    "time": 183.44467166666678,
                    "velocity": 0.25984251968503935,
                    "duration": 0.18073366666666857
                },
                {
                    "name": "F#3",
                    "midi": 54,
                    "time": 183.62540533333345,
                    "velocity": 0.2125984251968504,
                    "duration": 0.18073366666666857
                },
                {
                    "name": "C3",
                    "midi": 48,
                    "time": 183.80613900000012,
                    "velocity": 0.3543307086614173,
                    "duration": 0.180733666666697
                },
                {
                    "name": "G2",
                    "midi": 43,
                    "time": 183.80613900000012,
                    "velocity": 0.2440944881889764,
                    "duration": 1.6266030000000171
                },
                {
                    "name": "D3",
                    "midi": 50,
                    "time": 183.9868726666668,
                    "velocity": 0.28346456692913385,
                    "duration": 0.18073366666666857
                },
                {
                    "name": "A3",
                    "midi": 57,
                    "time": 184.16760633333348,
                    "velocity": 0.2283464566929134,
                    "duration": 0.18073366666666857
                },
                {
                    "name": "C3",
                    "midi": 48,
                    "time": 184.34834000000015,
                    "velocity": 0.33858267716535434,
                    "duration": 0.18073366666666857
                },
                {
                    "name": "D3",
                    "midi": 50,
                    "time": 184.52907366666682,
                    "velocity": 0.25984251968503935,
                    "duration": 0.18073366666666857
                },
                {
                    "name": "A3",
                    "midi": 57,
                    "time": 184.7098073333335,
                    "velocity": 0.2204724409448819,
                    "duration": 0.18073366666666857
                },
                {
                    "name": "B2",
                    "midi": 47,
                    "time": 184.89054100000016,
                    "velocity": 0.33858267716535434,
                    "duration": 0.18073366666664015
                },
                {
                    "name": "D3",
                    "midi": 50,
                    "time": 185.0712746666668,
                    "velocity": 0.25984251968503935,
                    "duration": 0.18073366666666857
                },
                {
                    "name": "G3",
                    "midi": 55,
                    "time": 185.25200833333346,
                    "velocity": 0.2204724409448819,
                    "duration": 0.18073366666666857
                },
                {
                    "name": "D3",
                    "midi": 50,
                    "time": 185.43274200000013,
                    "velocity": 0.36220472440944884,
                    "duration": 0.5422010000000057
                },
                {
                    "name": "B2",
                    "midi": 47,
                    "time": 185.43274200000013,
                    "velocity": 0.30708661417322836,
                    "duration": 0.5422010000000057
                },
                {
                    "name": "G2",
                    "midi": 43,
                    "time": 185.43274200000013,
                    "velocity": 0.30708661417322836,
                    "duration": 0.5422010000000057
                },
                {
                    "name": "G2",
                    "midi": 43,
                    "time": 185.97494300000014,
                    "velocity": 0.36220472440944884,
                    "duration": 0.27110050000001706
                },
                {
                    "name": "C3",
                    "midi": 48,
                    "time": 185.97494300000014,
                    "velocity": 0.36220472440944884,
                    "duration": 0.27110050000001706
                },
                {
                    "name": "E3",
                    "midi": 52,
                    "time": 185.97494300000014,
                    "velocity": 0.4330708661417323,
                    "duration": 0.27110050000001706
                },
                {
                    "name": "G2",
                    "midi": 43,
                    "time": 186.24604350000016,
                    "velocity": 0.3858267716535433,
                    "duration": 0.27110049999998864
                },
                {
                    "name": "A2",
                    "midi": 45,
                    "time": 186.24604350000016,
                    "velocity": 0.3858267716535433,
                    "duration": 0.27110049999998864
                },
                {
                    "name": "F#3",
                    "midi": 54,
                    "time": 186.24604350000016,
                    "velocity": 0.4566929133858268,
                    "duration": 0.27110049999998864
                },
                {
                    "name": "G2",
                    "midi": 43,
                    "time": 186.51714400000014,
                    "velocity": 0.44881889763779526,
                    "duration": 0.4066507500000114
                },
                {
                    "name": "G3",
                    "midi": 55,
                    "time": 186.51714400000014,
                    "velocity": 0.5354330708661418,
                    "duration": 0.4066507500000114
                },
                {
                    "name": "B2",
                    "midi": 47,
                    "time": 186.51714400000014,
                    "velocity": 0.44881889763779526,
                    "duration": 0.4066507500000114
                },
                {
                    "name": "D3",
                    "midi": 50,
                    "time": 186.92379475000016,
                    "velocity": 0.3228346456692913,
                    "duration": 0.13555024999999432
                },
                {
                    "name": "G3",
                    "midi": 55,
                    "time": 186.92379475000016,
                    "velocity": 0.3228346456692913,
                    "duration": 0.13555024999999432
                },
                {
                    "name": "B3",
                    "midi": 59,
                    "time": 186.92379475000016,
                    "velocity": 0.3858267716535433,
                    "duration": 0.13555024999999432
                },
                {
                    "name": "D3",
                    "midi": 50,
                    "time": 187.05934500000015,
                    "velocity": 0.3543307086614173,
                    "duration": 0.5422010000000057
                },
                {
                    "name": "D4",
                    "midi": 62,
                    "time": 187.05934500000015,
                    "velocity": 0.4251968503937008,
                    "duration": 0.5422010000000057
                },
                {
                    "name": "B3",
                    "midi": 59,
                    "time": 187.05934500000015,
                    "velocity": 0.3543307086614173,
                    "duration": 0.5422010000000057
                },
                {
                    "name": "D3",
                    "midi": 50,
                    "time": 187.60154600000016,
                    "velocity": 0.30708661417322836,
                    "duration": 0.4066507500000114
                },
                {
                    "name": "A3",
                    "midi": 57,
                    "time": 187.60154600000016,
                    "velocity": 0.30708661417322836,
                    "duration": 0.4066507500000114
                },
                {
                    "name": "C4",
                    "midi": 60,
                    "time": 187.60154600000016,
                    "velocity": 0.36220472440944884,
                    "duration": 0.4066507500000114
                },
                {
                    "name": "G3",
                    "midi": 55,
                    "time": 188.00819675000017,
                    "velocity": 0.2440944881889764,
                    "duration": 0.13555024999999432
                },
                {
                    "name": "B3",
                    "midi": 59,
                    "time": 188.00819675000017,
                    "velocity": 0.29133858267716534,
                    "duration": 0.13555024999999432
                },
                {
                    "name": "G3",
                    "midi": 55,
                    "time": 188.14374700000016,
                    "velocity": 0.2204724409448819,
                    "duration": 0.5422009999999773
                },
                {
                    "name": "B3",
                    "midi": 59,
                    "time": 188.14374700000016,
                    "velocity": 0.2677165354330709,
                    "duration": 0.5422009999999773
                },
                {
                    "name": "G2",
                    "midi": 43,
                    "time": 188.68594800000014,
                    "velocity": 0.23622047244094488,
                    "duration": 0.18073366666666857
                },
                {
                    "name": "G3",
                    "midi": 55,
                    "time": 188.8666816666668,
                    "velocity": 0.2047244094488189,
                    "duration": 0.18073366666666857
                },
                {
                    "name": "G2",
                    "midi": 43,
                    "time": 189.04741533333348,
                    "velocity": 0.2125984251968504,
                    "duration": 0.18073366666666857
                },
                {
                    "name": "G3",
                    "midi": 55,
                    "time": 189.22814900000014,
                    "velocity": 0.23622047244094488,
                    "duration": 0.18073366666664015
                },
                {
                    "name": "G2",
                    "midi": 43,
                    "time": 189.40888266666678,
                    "velocity": 0.2047244094488189,
                    "duration": 0.18073366666666857
                },
                {
                    "name": "G3",
                    "midi": 55,
                    "time": 189.58961633333345,
                    "velocity": 0.2047244094488189,
                    "duration": 0.18073366666666857
                },
                {
                    "name": "G2",
                    "midi": 43,
                    "time": 189.77035000000012,
                    "velocity": 0.23622047244094488,
                    "duration": 0.18073366666664015
                },
                {
                    "name": "G3",
                    "midi": 55,
                    "time": 189.95108366666676,
                    "velocity": 0.2047244094488189,
                    "duration": 0.18073366666666857
                },
                {
                    "name": "G2",
                    "midi": 43,
                    "time": 190.13181733333343,
                    "velocity": 0.2047244094488189,
                    "duration": 0.17734491041667866
                },
                {
                    "name": "G2",
                    "midi": 43,
                    "time": 190.3125510000001,
                    "velocity": 0.23622047244094488,
                    "duration": 0.18073366666664015
                },
                {
                    "name": "G3",
                    "midi": 55,
                    "time": 190.49328466666674,
                    "velocity": 0.2047244094488189,
                    "duration": 0.18073366666666857
                },
                {
                    "name": "G2",
                    "midi": 43,
                    "time": 190.6740183333334,
                    "velocity": 0.2125984251968504,
                    "duration": 0.18073366666666857
                },
                {
                    "name": "G3",
                    "midi": 55,
                    "time": 190.85475200000008,
                    "velocity": 0.23622047244094488,
                    "duration": 0.18073366666664015
                },
                {
                    "name": "G2",
                    "midi": 43,
                    "time": 191.03548566666672,
                    "velocity": 0.2047244094488189,
                    "duration": 0.18073366666666857
                },
                {
                    "name": "G3",
                    "midi": 55,
                    "time": 191.21621933333338,
                    "velocity": 0.2047244094488189,
                    "duration": 0.18073366666666857
                },
                {
                    "name": "G2",
                    "midi": 43,
                    "time": 191.39695300000005,
                    "velocity": 0.23622047244094488,
                    "duration": 0.18073366666666857
                },
                {
                    "name": "G3",
                    "midi": 55,
                    "time": 191.57768666666672,
                    "velocity": 0.2047244094488189,
                    "duration": 0.18073366666666857
                },
                {
                    "name": "G2",
                    "midi": 43,
                    "time": 191.7584203333334,
                    "velocity": 0.2047244094488189,
                    "duration": 0.18073366666666857
                },
                {
                    "name": "G1",
                    "midi": 31,
                    "time": 191.93915400000006,
                    "velocity": 0.23622047244094488,
                    "duration": 0.18073366666664015
                },
                {
                    "name": "G2",
                    "midi": 43,
                    "time": 192.1198876666667,
                    "velocity": 0.2047244094488189,
                    "duration": 0.18073366666666857
                },
                {
                    "name": "G1",
                    "midi": 31,
                    "time": 192.30062133333337,
                    "velocity": 0.2125984251968504,
                    "duration": 0.18073366666666857
                },
                {
                    "name": "G2",
                    "midi": 43,
                    "time": 192.48135500000004,
                    "velocity": 0.23622047244094488,
                    "duration": 0.18073366666666857
                },
                {
                    "name": "G1",
                    "midi": 31,
                    "time": 192.6620886666667,
                    "velocity": 0.2047244094488189,
                    "duration": 0.18073366666666857
                },
                {
                    "name": "G2",
                    "midi": 43,
                    "time": 192.84282233333337,
                    "velocity": 0.2047244094488189,
                    "duration": 0.18073366666666857
                },
                {
                    "name": "G1",
                    "midi": 31,
                    "time": 193.02355600000004,
                    "velocity": 0.23622047244094488,
                    "duration": 0.18073366666666857
                },
                {
                    "name": "G2",
                    "midi": 43,
                    "time": 193.2042896666667,
                    "velocity": 0.2047244094488189,
                    "duration": 0.18073366666666857
                },
                {
                    "name": "G1",
                    "midi": 31,
                    "time": 193.38502333333338,
                    "velocity": 0.2047244094488189,
                    "duration": 0.17734491041667866
                },
                {
                    "name": "G1",
                    "midi": 31,
                    "time": 193.56575700000005,
                    "velocity": 0.23622047244094488,
                    "duration": 0.18073366666666857
                },
                {
                    "name": "G2",
                    "midi": 43,
                    "time": 193.74649066666672,
                    "velocity": 0.2047244094488189,
                    "duration": 0.18073366666666857
                },
                {
                    "name": "G1",
                    "midi": 31,
                    "time": 193.92722433333338,
                    "velocity": 0.2125984251968504,
                    "duration": 0.18073366666666857
                },
                {
                    "name": "G2",
                    "midi": 43,
                    "time": 194.10795800000005,
                    "velocity": 0.23622047244094488,
                    "duration": 0.18073366666666857
                },
                {
                    "name": "G1",
                    "midi": 31,
                    "time": 194.28869166666672,
                    "velocity": 0.2047244094488189,
                    "duration": 0.18073366666666857
                },
                {
                    "name": "G2",
                    "midi": 43,
                    "time": 194.4694253333334,
                    "velocity": 0.2047244094488189,
                    "duration": 0.18073366666666857
                },
                {
                    "name": "G1",
                    "midi": 31,
                    "time": 194.65015900000006,
                    "velocity": 0.23622047244094488,
                    "duration": 0.180733666666697
                },
                {
                    "name": "G2",
                    "midi": 43,
                    "time": 194.83089266666676,
                    "velocity": 0.2047244094488189,
                    "duration": 0.18073366666666857
                },
                {
                    "name": "G1",
                    "midi": 31,
                    "time": 195.01162633333342,
                    "velocity": 0.2047244094488189,
                    "duration": 0.17734491041667866
                },
                {
                    "name": "G1",
                    "midi": 31,
                    "time": 195.1923600000001,
                    "velocity": 0.2204724409448819,
                    "duration": 0.18073366666666857
                },
                {
                    "name": "G2",
                    "midi": 43,
                    "time": 195.37309366666676,
                    "velocity": 0.1889763779527559,
                    "duration": 0.18073366666666857
                },
                {
                    "name": "G1",
                    "midi": 31,
                    "time": 195.55382733333343,
                    "velocity": 0.1968503937007874,
                    "duration": 0.18073366666666857
                },
                {
                    "name": "G2",
                    "midi": 43,
                    "time": 195.7345610000001,
                    "velocity": 0.2204724409448819,
                    "duration": 0.18073366666666857
                },
                {
                    "name": "G1",
                    "midi": 31,
                    "time": 195.91529466666677,
                    "velocity": 0.1889763779527559,
                    "duration": 0.18073366666666857
                },
                {
                    "name": "G2",
                    "midi": 43,
                    "time": 196.09602833333344,
                    "velocity": 0.1889763779527559,
                    "duration": 0.18073366666666857
                },
                {
                    "name": "G1",
                    "midi": 31,
                    "time": 196.2767620000001,
                    "velocity": 0.2204724409448819,
                    "duration": 0.18073366666666857
                },
                {
                    "name": "G2",
                    "midi": 43,
                    "time": 196.45749566666677,
                    "velocity": 0.1889763779527559,
                    "duration": 0.18073366666666857
                },
                {
                    "name": "G1",
                    "midi": 31,
                    "time": 196.63822933333344,
                    "velocity": 0.1889763779527559,
                    "duration": 0.17734491041667866
                },
                {
                    "name": "G1",
                    "midi": 31,
                    "time": 196.8189630000001,
                    "velocity": 0.2204724409448819,
                    "duration": 0.18073366666666857
                },
                {
                    "name": "G2",
                    "midi": 43,
                    "time": 196.99969666666678,
                    "velocity": 0.1889763779527559,
                    "duration": 0.18073366666666857
                },
                {
                    "name": "G1",
                    "midi": 31,
                    "time": 197.18043033333345,
                    "velocity": 0.1889763779527559,
                    "duration": 0.18073366666666857
                },
                {
                    "name": "G2",
                    "midi": 43,
                    "time": 197.36116400000012,
                    "velocity": 0.2125984251968504,
                    "duration": 0.180733666666697
                },
                {
                    "name": "G1",
                    "midi": 31,
                    "time": 197.5418976666668,
                    "velocity": 0.18110236220472442,
                    "duration": 0.18073366666666857
                },
                {
                    "name": "G2",
                    "midi": 43,
                    "time": 197.72263133333348,
                    "velocity": 0.1732283464566929,
                    "duration": 0.18073366666666857
                },
                {
                    "name": "G1",
                    "midi": 31,
                    "time": 197.90336500000015,
                    "velocity": 0.1968503937007874,
                    "duration": 0.18073366666666857
                },
                {
                    "name": "G2",
                    "midi": 43,
                    "time": 198.08409866666682,
                    "velocity": 0.16535433070866143,
                    "duration": 0.18073366666666857
                },
                {
                    "name": "G1",
                    "midi": 31,
                    "time": 198.2648323333335,
                    "velocity": 0.16535433070866143,
                    "duration": 0.17734491041667866
                },
                {
                    "name": "G1",
                    "midi": 31,
                    "time": 198.44556600000016,
                    "velocity": 0.2125984251968504,
                    "duration": 0.18073366666666857
                },
                {
                    "name": "G2",
                    "midi": 43,
                    "time": 198.62629966666682,
                    "velocity": 0.18110236220472442,
                    "duration": 0.18073366666666857
                },
                {
                    "name": "G1",
                    "midi": 31,
                    "time": 198.8070333333335,
                    "velocity": 0.1889763779527559,
                    "duration": 0.18073366666666857
                },
                {
                    "name": "G2",
                    "midi": 43,
                    "time": 198.98776700000016,
                    "velocity": 0.2125984251968504,
                    "duration": 0.18073366666666857
                },
                {
                    "name": "G1",
                    "midi": 31,
                    "time": 199.16850066666683,
                    "velocity": 0.18110236220472442,
                    "duration": 0.18073366666666857
                },
                {
                    "name": "G2",
                    "midi": 43,
                    "time": 199.3492343333335,
                    "velocity": 0.18110236220472442,
                    "duration": 0.18073366666666857
                },
                {
                    "name": "G1",
                    "midi": 31,
                    "time": 199.52996800000017,
                    "velocity": 0.2125984251968504,
                    "duration": 0.180733666666697
                },
                {
                    "name": "G2",
                    "midi": 43,
                    "time": 199.71070166666686,
                    "velocity": 0.18110236220472442,
                    "duration": 0.18073366666666857
                },
                {
                    "name": "G1",
                    "midi": 31,
                    "time": 199.89143533333353,
                    "velocity": 0.18110236220472442,
                    "duration": 0.18073366666666857
                },
                {
                    "name": "G2",
                    "midi": 43,
                    "time": 200.0721690000002,
                    "velocity": 0.18110236220472442,
                    "duration": 1.6266029999999887
                },
                {
                    "name": "D3",
                    "midi": 50,
                    "time": 200.0721690000002,
                    "velocity": 0.18110236220472442,
                    "duration": 1.6266029999999887
                },
                {
                    "name": "G3",
                    "midi": 55,
                    "time": 201.69990158541685,
                    "velocity": 0.4251968503937008,
                    "duration": 0.4744258749999801
                },
                {
                    "name": "A3",
                    "midi": 57,
                    "time": 202.17319787500017,
                    "velocity": 0.3464566929133858,
                    "duration": 0.06777512499999716
                },
                {
                    "name": "G3",
                    "midi": 55,
                    "time": 202.24097300000017,
                    "velocity": 0.4251968503937008,
                    "duration": 0.18073366666666857
                },
                {
                    "name": "E3",
                    "midi": 52,
                    "time": 202.42170666666684,
                    "velocity": 0.3937007874015748,
                    "duration": 0.18073366666666857
                },
                {
                    "name": "C3",
                    "midi": 48,
                    "time": 202.6024403333335,
                    "velocity": 0.3700787401574803,
                    "duration": 0.18073366666666857
                },
                {
                    "name": "G3",
                    "midi": 55,
                    "time": 202.78317400000017,
                    "velocity": 0.4251968503937008,
                    "duration": 0.4066507500000114
                },
                {
                    "name": "E4",
                    "midi": 64,
                    "time": 203.18982475000018,
                    "velocity": 0.4015748031496063,
                    "duration": 0.13555024999999432
                },
                {
                    "name": "E4",
                    "midi": 64,
                    "time": 203.32537500000018,
                    "velocity": 0.4251968503937008,
                    "duration": 1.0844020000000114
                },
                {
                    "name": "C4",
                    "midi": 60,
                    "time": 204.4097770000002,
                    "velocity": 0.31496062992125984,
                    "duration": 0.27110050000001706
                },
                {
                    "name": "G2",
                    "midi": 43,
                    "time": 206.5785810000002,
                    "velocity": 0.4015748031496063,
                    "duration": 0.13555024999999432
                },
                {
                    "name": "A2",
                    "midi": 45,
                    "time": 206.8496815000002,
                    "velocity": 0.36220472440944884,
                    "duration": 0.13555024999999432
                },
                {
                    "name": "B2",
                    "midi": 47,
                    "time": 206.9852317500002,
                    "velocity": 0.36220472440944884,
                    "duration": 0.13555024999999432
                },
                {
                    "name": "C3",
                    "midi": 48,
                    "time": 207.1207820000002,
                    "velocity": 0.4015748031496063,
                    "duration": 0.10166268750000995
                },
                {
                    "name": "G2",
                    "midi": 43,
                    "time": 207.3918825000002,
                    "velocity": 0.3543307086614173,
                    "duration": 0.10166268750000995
                },
                {
                    "name": "C3",
                    "midi": 48,
                    "time": 207.66298300000022,
                    "velocity": 0.4015748031496063,
                    "duration": 0.13555024999999432
                },
                {
                    "name": "G2",
                    "midi": 43,
                    "time": 208.20518400000023,
                    "velocity": 0.28346456692913385,
                    "duration": 0.27110049999998864
                },
                {
                    "name": "A2",
                    "midi": 45,
                    "time": 208.47628450000022,
                    "velocity": 0.2677165354330709,
                    "duration": 0.13555024999999432
                },
                {
                    "name": "B2",
                    "midi": 47,
                    "time": 208.6118347500002,
                    "velocity": 0.2755905511811024,
                    "duration": 0.13555024999999432
                },
                {
                    "name": "C3",
                    "midi": 48,
                    "time": 208.7473850000002,
                    "velocity": 0.28346456692913385,
                    "duration": 0.13555024999999432
                },
                {
                    "name": "G2",
                    "midi": 43,
                    "time": 209.0184855000002,
                    "velocity": 0.25984251968503935,
                    "duration": 0.10166268750000995
                },
                {
                    "name": "C3",
                    "midi": 48,
                    "time": 209.2895860000002,
                    "velocity": 0.28346456692913385,
                    "duration": 0.10166268750000995
                },
                {
                    "name": "A#2",
                    "midi": 46,
                    "time": 209.56068650000023,
                    "velocity": 0.25984251968503935,
                    "duration": 0.10166268750000995
                },
                {
                    "name": "A#2",
                    "midi": 46,
                    "time": 209.83178700000025,
                    "velocity": 0.36220472440944884,
                    "duration": 0.27110049999998864
                },
                {
                    "name": "D#3",
                    "midi": 51,
                    "time": 210.10288750000024,
                    "velocity": 0.33858267716535434,
                    "duration": 0.20332537499999148
                },
                {
                    "name": "D#3",
                    "midi": 51,
                    "time": 210.37398800000022,
                    "velocity": 0.3779527559055118,
                    "duration": 0.27110049999998864
                },
                {
                    "name": "D3",
                    "midi": 50,
                    "time": 210.6450885000002,
                    "velocity": 0.36220472440944884,
                    "duration": 0.20332537499999148
                },
                {
                    "name": "D3",
                    "midi": 50,
                    "time": 210.9161890000002,
                    "velocity": 0.4251968503937008,
                    "duration": 0.27110049999998864
                },
                {
                    "name": "G3",
                    "midi": 55,
                    "time": 211.1872895000002,
                    "velocity": 0.4015748031496063,
                    "duration": 0.20332537499999148
                },
                {
                    "name": "G3",
                    "midi": 55,
                    "time": 211.45839000000018,
                    "velocity": 0.4645669291338583,
                    "duration": 0.27110049999998864
                },
                {
                    "name": "G2",
                    "midi": 43,
                    "time": 211.72949050000017,
                    "velocity": 0.4330708661417323,
                    "duration": 0.27110050000001706
                },
                {
                    "name": "F3",
                    "midi": 53,
                    "time": 211.72949050000017,
                    "velocity": 0.4330708661417323,
                    "duration": 0.27110050000001706
                },
                {
                    "name": "G3",
                    "midi": 55,
                    "time": 211.72949050000017,
                    "velocity": 0.4330708661417323,
                    "duration": 0.27110050000001706
                },
                {
                    "name": "G2",
                    "midi": 43,
                    "time": 212.00059100000018,
                    "velocity": 0.48031496062992124,
                    "duration": 0.8133015000000228
                },
                {
                    "name": "F3",
                    "midi": 53,
                    "time": 212.00059100000018,
                    "velocity": 0.48031496062992124,
                    "duration": 0.8133015000000228
                },
                {
                    "name": "G3",
                    "midi": 55,
                    "time": 212.00059100000018,
                    "velocity": 0.48031496062992124,
                    "duration": 0.8133015000000228
                },
                {
                    "name": "G2",
                    "midi": 43,
                    "time": 212.8138925000002,
                    "velocity": 0.3779527559055118,
                    "duration": 0.27110049999998864
                },
                {
                    "name": "D3",
                    "midi": 50,
                    "time": 212.8138925000002,
                    "velocity": 0.3779527559055118,
                    "duration": 0.27110049999998864
                },
                {
                    "name": "G3",
                    "midi": 55,
                    "time": 212.8138925000002,
                    "velocity": 0.3779527559055118,
                    "duration": 0.27110049999998864
                },
                {
                    "name": "C3",
                    "midi": 48,
                    "time": 213.0849930000002,
                    "velocity": 0.3779527559055118,
                    "duration": 1.6266030000000171
                },
                {
                    "name": "G3",
                    "midi": 55,
                    "time": 213.0849930000002,
                    "velocity": 0.3779527559055118,
                    "duration": 1.6266030000000171
                },
                {
                    "name": "E3",
                    "midi": 52,
                    "time": 216.33819900000023,
                    "velocity": 0.4094488188976378,
                    "duration": 0.47442587500000855
                },
                {
                    "name": "F3",
                    "midi": 53,
                    "time": 216.81262487500024,
                    "velocity": 0.3464566929133858,
                    "duration": 0.06777512499999716
                },
                {
                    "name": "E3",
                    "midi": 52,
                    "time": 216.88040000000024,
                    "velocity": 0.4566929133858268,
                    "duration": 0.18073366666666857
                },
                {
                    "name": "B2",
                    "midi": 47,
                    "time": 217.0611336666669,
                    "velocity": 0.44881889763779526,
                    "duration": 0.18073366666666857
                },
                {
                    "name": "E2",
                    "midi": 40,
                    "time": 217.24186733333357,
                    "velocity": 0.4251968503937008,
                    "duration": 0.18073366666666857
                },
                {
                    "name": "E3",
                    "midi": 52,
                    "time": 217.42260100000024,
                    "velocity": 0.4645669291338583,
                    "duration": 0.5422010000000057
                },
                {
                    "name": "E3",
                    "midi": 52,
                    "time": 217.96480200000025,
                    "velocity": 0.4094488188976378,
                    "duration": 0.4744258749999801
                },
                {
                    "name": "F3",
                    "midi": 53,
                    "time": 218.43922787500023,
                    "velocity": 0.3464566929133858,
                    "duration": 0.06777512499999716
                },
                {
                    "name": "E3",
                    "midi": 52,
                    "time": 218.50700300000022,
                    "velocity": 0.4645669291338583,
                    "duration": 0.18073366666666857
                },
                {
                    "name": "G3",
                    "midi": 55,
                    "time": 218.6877366666669,
                    "velocity": 0.4330708661417323,
                    "duration": 0.18073366666666857
                },
                {
                    "name": "C4",
                    "midi": 60,
                    "time": 218.86847033333356,
                    "velocity": 0.41732283464566927,
                    "duration": 0.18073366666666857
                },
                {
                    "name": "F4",
                    "midi": 65,
                    "time": 219.04920400000023,
                    "velocity": 0.41732283464566927,
                    "duration": 0.5422010000000057
                },
                {
                    "name": "D4",
                    "midi": 62,
                    "time": 219.04920400000023,
                    "velocity": 0.3543307086614173,
                    "duration": 0.5422010000000057
                },
                {
                    "name": "E4",
                    "midi": 64,
                    "time": 219.59140500000024,
                    "velocity": 0.4094488188976378,
                    "duration": 0.5422010000000057
                },
                {
                    "name": "C4",
                    "midi": 60,
                    "time": 219.59140500000024,
                    "velocity": 0.3464566929133858,
                    "duration": 0.5422010000000057
                },
                {
                    "name": "F#4",
                    "midi": 66,
                    "time": 220.13360600000024,
                    "velocity": 0.4330708661417323,
                    "duration": 0.27110050000001706
                },
                {
                    "name": "D4",
                    "midi": 62,
                    "time": 220.13360600000024,
                    "velocity": 0.36220472440944884,
                    "duration": 0.27110050000001706
                },
                {
                    "name": "F#4",
                    "midi": 66,
                    "time": 220.40470650000026,
                    "velocity": 0.41732283464566927,
                    "duration": 0.27110049999998864
                },
                {
                    "name": "D4",
                    "midi": 62,
                    "time": 220.40470650000026,
                    "velocity": 0.3543307086614173,
                    "duration": 0.27110049999998864
                },
                {
                    "name": "D4",
                    "midi": 62,
                    "time": 220.67580700000025,
                    "velocity": 0.3700787401574803,
                    "duration": 0.5422010000000057
                },
                {
                    "name": "G3",
                    "midi": 55,
                    "time": 220.67580700000025,
                    "velocity": 0.3700787401574803,
                    "duration": 0.5422010000000057
                },
                {
                    "name": "G4",
                    "midi": 67,
                    "time": 220.67580700000025,
                    "velocity": 0.4409448818897638,
                    "duration": 0.5422010000000057
                },
                {
                    "name": "B3",
                    "midi": 59,
                    "time": 221.21800800000025,
                    "velocity": 0.48031496062992124,
                    "duration": 0.47442587500000855
                },
                {
                    "name": "C4",
                    "midi": 60,
                    "time": 221.69243387500026,
                    "velocity": 0.4015748031496063,
                    "duration": 0.06777512499999716
                },
                {
                    "name": "B3",
                    "midi": 59,
                    "time": 221.76020900000026,
                    "velocity": 0.48031496062992124,
                    "duration": 0.18073366666666857
                },
                {
                    "name": "G3",
                    "midi": 55,
                    "time": 221.94094266666693,
                    "velocity": 0.4645669291338583,
                    "duration": 0.18073366666666857
                },
                {
                    "name": "E3",
                    "midi": 52,
                    "time": 222.1216763333336,
                    "velocity": 0.4409448818897638,
                    "duration": 0.13555025000002274
                },
                {
                    "name": "G4",
                    "midi": 67,
                    "time": 222.3024100000003,
                    "velocity": 0.5984251968503937,
                    "duration": 0.27110049999998864
                },
                {
                    "name": "E4",
                    "midi": 64,
                    "time": 222.57351050000028,
                    "velocity": 0.5039370078740157,
                    "duration": 0.10166268750000995
                },
                {
                    "name": "B3",
                    "midi": 59,
                    "time": 222.8446110000003,
                    "velocity": 0.4881889763779528,
                    "duration": 0.4744258749999801
                },
                {
                    "name": "C4",
                    "midi": 60,
                    "time": 223.31903687500028,
                    "velocity": 0.41732283464566927,
                    "duration": 0.06777512499999716
                },
                {
                    "name": "B3",
                    "midi": 59,
                    "time": 223.38681200000028,
                    "velocity": 0.5039370078740157,
                    "duration": 0.18073366666666857
                },
                {
                    "name": "G3",
                    "midi": 55,
                    "time": 223.56754566666694,
                    "velocity": 0.48031496062992124,
                    "duration": 0.18073366666666857
                },
                {
                    "name": "E3",
                    "midi": 52,
                    "time": 223.7482793333336,
                    "velocity": 0.44881889763779526,
                    "duration": 0.13555024999999432
                },
                {
                    "name": "G4",
                    "midi": 67,
                    "time": 223.92901300000028,
                    "velocity": 0.5984251968503937,
                    "duration": 0.27110049999998864
                },
                {
                    "name": "E4",
                    "midi": 64,
                    "time": 224.20011350000027,
                    "velocity": 0.5196850393700787,
                    "duration": 0.10166268750000995
                },
                {
                    "name": "B2",
                    "midi": 47,
                    "time": 224.4712140000003,
                    "velocity": 0.6062992125984252,
                    "duration": 0.27110049999998864
                },
                {
                    "name": "B3",
                    "midi": 59,
                    "time": 224.74231450000028,
                    "velocity": 0.5669291338582677,
                    "duration": 0.10166268750000995
                },
                {
                    "name": "D#4",
                    "midi": 63,
                    "time": 224.9456398750003,
                    "velocity": 0.4330708661417323,
                    "duration": 0.06777512499999716
                },
                {
                    "name": "E4",
                    "midi": 64,
                    "time": 225.0134150000003,
                    "velocity": 0.5748031496062992,
                    "duration": 0.18073366666666857
                },
                {
                    "name": "F#4",
                    "midi": 66,
                    "time": 225.19414866666696,
                    "velocity": 0.5275590551181102,
                    "duration": 0.18073366666666857
                },
                {
                    "name": "G4",
                    "midi": 67,
                    "time": 225.37488233333363,
                    "velocity": 0.6141732283464567,
                    "duration": 0.18073366666666857
                },
                {
                    "name": "B2",
                    "midi": 47,
                    "time": 225.5556160000003,
                    "velocity": 0.6220472440944882,
                    "duration": 0.27110049999998864
                },
                {
                    "name": "B3",
                    "midi": 59,
                    "time": 225.8267165000003,
                    "velocity": 0.5748031496062992,
                    "duration": 0.10166268749998153
                },
                {
                    "name": "D#4",
                    "midi": 63,
                    "time": 226.03004187500028,
                    "velocity": 0.4566929133858268,
                    "duration": 0.06777512499999716
                },
                {
                    "name": "E4",
                    "midi": 64,
                    "time": 226.09781700000028,
                    "velocity": 0.5905511811023622,
                    "duration": 0.18073366666666857
                },
                {
                    "name": "F#4",
                    "midi": 66,
                    "time": 226.27855066666694,
                    "velocity": 0.5354330708661418,
                    "duration": 0.18073366666666857
                },
                {
                    "name": "G4",
                    "midi": 67,
                    "time": 226.4592843333336,
                    "velocity": 0.5196850393700787,
                    "duration": 0.18073366666666857
                },
                {
                    "name": "B2",
                    "midi": 47,
                    "time": 226.64001800000028,
                    "velocity": 0.6299212598425197,
                    "duration": 0.27110050000001706
                },
                {
                    "name": "B3",
                    "midi": 59,
                    "time": 226.9111185000003,
                    "velocity": 0.5905511811023622,
                    "duration": 0.10166268750000995
                },
                {
                    "name": "B1",
                    "midi": 35,
                    "time": 227.1822190000003,
                    "velocity": 0.6377952755905512,
                    "duration": 0.27110050000001706
                },
                {
                    "name": "B2",
                    "midi": 47,
                    "time": 227.4533195000003,
                    "velocity": 0.5511811023622047,
                    "duration": 0.10166268750000995
                },
                {
                    "name": "E4",
                    "midi": 64,
                    "time": 229.3510230000003,
                    "velocity": 0.28346456692913385,
                    "duration": 0.27110049999998864
                },
                {
                    "name": "G4",
                    "midi": 67,
                    "time": 229.6221235000003,
                    "velocity": 0.1968503937007874,
                    "duration": 0.13555024999999432
                },
                {
                    "name": "E4",
                    "midi": 64,
                    "time": 229.8932240000003,
                    "velocity": 0.2677165354330709,
                    "duration": 0.27110050000001706
                },
                {
                    "name": "G4",
                    "midi": 67,
                    "time": 230.1643245000003,
                    "velocity": 0.1968503937007874,
                    "duration": 0.13555024999999432
                },
                {
                    "name": "E4",
                    "midi": 64,
                    "time": 230.4354250000003,
                    "velocity": 0.25984251968503935,
                    "duration": 0.27110049999998864
                },
                {
                    "name": "G4",
                    "midi": 67,
                    "time": 230.70652550000028,
                    "velocity": 0.2047244094488189,
                    "duration": 0.13555024999999432
                },
                {
                    "name": "E4",
                    "midi": 64,
                    "time": 230.97762600000027,
                    "velocity": 0.25984251968503935,
                    "duration": 0.27110049999998864
                },
                {
                    "name": "G4",
                    "midi": 67,
                    "time": 231.24872650000026,
                    "velocity": 0.1889763779527559,
                    "duration": 0.13555024999999432
                },
                {
                    "name": "E4",
                    "midi": 64,
                    "time": 231.51982700000025,
                    "velocity": 0.2440944881889764,
                    "duration": 0.27110050000001706
                },
                {
                    "name": "G4",
                    "midi": 67,
                    "time": 231.79092750000027,
                    "velocity": 0.18110236220472442,
                    "duration": 0.13555024999999432
                },
                {
                    "name": "E4",
                    "midi": 64,
                    "time": 232.06202800000025,
                    "velocity": 0.23622047244094488,
                    "duration": 0.27110049999998864
                },
                {
                    "name": "G4",
                    "midi": 67,
                    "time": 232.33312850000024,
                    "velocity": 0.16535433070866143,
                    "duration": 0.13555024999999432
                },
                {
                    "name": "G3",
                    "midi": 55,
                    "time": 232.60422900000023,
                    "velocity": 0.3779527559055118,
                    "duration": 0.4744258749999801
                },
                {
                    "name": "A3",
                    "midi": 57,
                    "time": 233.0786548750002,
                    "velocity": 0.31496062992125984,
                    "duration": 0.06777512499999716
                },
                {
                    "name": "G3",
                    "midi": 55,
                    "time": 233.1464300000002,
                    "velocity": 0.3779527559055118,
                    "duration": 0.180733666666697
                },
                {
                    "name": "E3",
                    "midi": 52,
                    "time": 233.3271636666669,
                    "velocity": 0.3543307086614173,
                    "duration": 0.18073366666666857
                },
                {
                    "name": "C3",
                    "midi": 48,
                    "time": 233.50789733333357,
                    "velocity": 0.30708661417322836,
                    "duration": 0.18073366666666857
                },
                {
                    "name": "G3",
                    "midi": 55,
                    "time": 233.68863100000024,
                    "velocity": 0.3779527559055118,
                    "duration": 0.40665074999998296
                },
                {
                    "name": "E4",
                    "midi": 64,
                    "time": 234.09528175000023,
                    "velocity": 0.3543307086614173,
                    "duration": 0.13555024999999432
                },
                {
                    "name": "E4",
                    "midi": 64,
                    "time": 234.23083200000022,
                    "velocity": 0.3779527559055118,
                    "duration": 1.084401999999983
                },
                {
                    "name": "C4",
                    "midi": 60,
                    "time": 235.3152340000002,
                    "velocity": 0.28346456692913385,
                    "duration": 0.27110049999998864
                },
                {
                    "name": "G3",
                    "midi": 55,
                    "time": 237.4840380000002,
                    "velocity": 0.3779527559055118,
                    "duration": 0.4744258749999801
                },
                {
                    "name": "A3",
                    "midi": 57,
                    "time": 237.95846387500018,
                    "velocity": 0.31496062992125984,
                    "duration": 0.06777512499999716
                },
                {
                    "name": "G3",
                    "midi": 55,
                    "time": 238.02623900000017,
                    "velocity": 0.3779527559055118,
                    "duration": 0.18073366666666857
                },
                {
                    "name": "E3",
                    "midi": 52,
                    "time": 238.20697266666684,
                    "velocity": 0.3543307086614173,
                    "duration": 0.18073366666666857
                },
                {
                    "name": "C3",
                    "midi": 48,
                    "time": 238.3877063333335,
                    "velocity": 0.3228346456692913,
                    "duration": 0.18073366666666857
                },
                {
                    "name": "G3",
                    "midi": 55,
                    "time": 238.56844000000018,
                    "velocity": 0.3779527559055118,
                    "duration": 0.4066507500000114
                },
                {
                    "name": "E4",
                    "midi": 64,
                    "time": 238.9750907500002,
                    "velocity": 0.3543307086614173,
                    "duration": 0.13555024999999432
                },
                {
                    "name": "E4",
                    "midi": 64,
                    "time": 239.1106410000002,
                    "velocity": 0.3779527559055118,
                    "duration": 1.0844020000000114
                },
                {
                    "name": "C4",
                    "midi": 60,
                    "time": 240.1950430000002,
                    "velocity": 0.2992125984251969,
                    "duration": 0.27110050000001706
                },
                {
                    "name": "G2",
                    "midi": 43,
                    "time": 240.7372440000002,
                    "velocity": 0.48031496062992124,
                    "duration": 0.13555024999999432
                },
                {
                    "name": "A2",
                    "midi": 45,
                    "time": 241.0083445000002,
                    "velocity": 0.4330708661417323,
                    "duration": 0.13555024999999432
                },
                {
                    "name": "B2",
                    "midi": 47,
                    "time": 241.1438947500002,
                    "velocity": 0.4330708661417323,
                    "duration": 0.13555024999999432
                },
                {
                    "name": "C3",
                    "midi": 48,
                    "time": 241.27944500000018,
                    "velocity": 0.48031496062992124,
                    "duration": 0.10166268750000995
                },
                {
                    "name": "G2",
                    "midi": 43,
                    "time": 241.5505455000002,
                    "velocity": 0.41732283464566927,
                    "duration": 0.10166268750000995
                },
                {
                    "name": "C3",
                    "midi": 48,
                    "time": 241.82164600000021,
                    "velocity": 0.48031496062992124,
                    "duration": 0.13555024999999432
                },
                {
                    "name": "D#3",
                    "midi": 51,
                    "time": 242.36384700000022,
                    "velocity": 0.2992125984251969,
                    "duration": 0.13555024999999432
                },
                {
                    "name": "G3",
                    "midi": 55,
                    "time": 242.36384700000022,
                    "velocity": 0.2992125984251969,
                    "duration": 0.13555024999999432
                },
                {
                    "name": "D3",
                    "midi": 50,
                    "time": 242.6349475000002,
                    "velocity": 0.2755905511811024,
                    "duration": 0.13555024999999432
                },
                {
                    "name": "F3",
                    "midi": 53,
                    "time": 242.6349475000002,
                    "velocity": 0.2755905511811024,
                    "duration": 0.13555024999999432
                },
                {
                    "name": "G3",
                    "midi": 55,
                    "time": 242.6349475000002,
                    "velocity": 0.2755905511811024,
                    "duration": 0.13555024999999432
                },
                {
                    "name": "C3",
                    "midi": 48,
                    "time": 242.9060480000002,
                    "velocity": 0.2992125984251969,
                    "duration": 0.10166268750000995
                },
                {
                    "name": "D#3",
                    "midi": 51,
                    "time": 242.9060480000002,
                    "velocity": 0.2992125984251969,
                    "duration": 0.10166268750000995
                },
                {
                    "name": "G3",
                    "midi": 55,
                    "time": 242.9060480000002,
                    "velocity": 0.2992125984251969,
                    "duration": 0.10166268750000995
                },
                {
                    "name": "B2",
                    "midi": 47,
                    "time": 243.17714850000021,
                    "velocity": 0.2755905511811024,
                    "duration": 0.10166268750000995
                },
                {
                    "name": "D3",
                    "midi": 50,
                    "time": 243.17714850000021,
                    "velocity": 0.2755905511811024,
                    "duration": 0.10166268750000995
                },
                {
                    "name": "G3",
                    "midi": 55,
                    "time": 243.17714850000021,
                    "velocity": 0.2755905511811024,
                    "duration": 0.10166268750000995
                },
                {
                    "name": "C3",
                    "midi": 48,
                    "time": 243.44824900000023,
                    "velocity": 0.33070866141732286,
                    "duration": 0.10166268750000995
                },
                {
                    "name": "D#3",
                    "midi": 51,
                    "time": 243.44824900000023,
                    "velocity": 0.33070866141732286,
                    "duration": 0.10166268750000995
                },
                {
                    "name": "G3",
                    "midi": 55,
                    "time": 243.44824900000023,
                    "velocity": 0.33070866141732286,
                    "duration": 0.10166268750000995
                },
                {
                    "name": "D3",
                    "midi": 50,
                    "time": 243.71934950000025,
                    "velocity": 0.3858267716535433,
                    "duration": 0.13555024999999432
                },
                {
                    "name": "F3",
                    "midi": 53,
                    "time": 243.71934950000025,
                    "velocity": 0.3858267716535433,
                    "duration": 0.13555024999999432
                },
                {
                    "name": "A#3",
                    "midi": 58,
                    "time": 243.71934950000025,
                    "velocity": 0.3858267716535433,
                    "duration": 0.13555024999999432
                },
                {
                    "name": "F3",
                    "midi": 53,
                    "time": 243.99045000000024,
                    "velocity": 0.4094488188976378,
                    "duration": 0.13555024999999432
                },
                {
                    "name": "G#3",
                    "midi": 56,
                    "time": 243.99045000000024,
                    "velocity": 0.4094488188976378,
                    "duration": 0.13555024999999432
                },
                {
                    "name": "A#3",
                    "midi": 58,
                    "time": 243.99045000000024,
                    "velocity": 0.4094488188976378,
                    "duration": 0.13555024999999432
                },
                {
                    "name": "D#3",
                    "midi": 51,
                    "time": 244.26155050000023,
                    "velocity": 0.3858267716535433,
                    "duration": 0.13555024999999432
                },
                {
                    "name": "G3",
                    "midi": 55,
                    "time": 244.26155050000023,
                    "velocity": 0.3858267716535433,
                    "duration": 0.13555024999999432
                },
                {
                    "name": "A#3",
                    "midi": 58,
                    "time": 244.26155050000023,
                    "velocity": 0.3858267716535433,
                    "duration": 0.13555024999999432
                },
                {
                    "name": "D#3",
                    "midi": 51,
                    "time": 244.53265100000021,
                    "velocity": 0.41732283464566927,
                    "duration": 0.13555024999999432
                },
                {
                    "name": "G3",
                    "midi": 55,
                    "time": 244.53265100000021,
                    "velocity": 0.41732283464566927,
                    "duration": 0.13555024999999432
                },
                {
                    "name": "A#3",
                    "midi": 58,
                    "time": 244.53265100000021,
                    "velocity": 0.41732283464566927,
                    "duration": 0.13555024999999432
                },
                {
                    "name": "F#3",
                    "midi": 54,
                    "time": 244.8037515000002,
                    "velocity": 0.4015748031496063,
                    "duration": 0.13555024999999432
                },
                {
                    "name": "A3",
                    "midi": 57,
                    "time": 244.8037515000002,
                    "velocity": 0.4015748031496063,
                    "duration": 0.13555024999999432
                },
                {
                    "name": "D4",
                    "midi": 62,
                    "time": 244.8037515000002,
                    "velocity": 0.4015748031496063,
                    "duration": 0.13555024999999432
                },
                {
                    "name": "A3",
                    "midi": 57,
                    "time": 245.0748520000002,
                    "velocity": 0.44881889763779526,
                    "duration": 0.13555024999999432
                },
                {
                    "name": "C4",
                    "midi": 60,
                    "time": 245.0748520000002,
                    "velocity": 0.44881889763779526,
                    "duration": 0.13555024999999432
                },
                {
                    "name": "D4",
                    "midi": 62,
                    "time": 245.0748520000002,
                    "velocity": 0.44881889763779526,
                    "duration": 0.13555024999999432
                },
                {
                    "name": "G3",
                    "midi": 55,
                    "time": 245.34595250000018,
                    "velocity": 0.4330708661417323,
                    "duration": 0.13555024999999432
                },
                {
                    "name": "A#3",
                    "midi": 58,
                    "time": 245.34595250000018,
                    "velocity": 0.4330708661417323,
                    "duration": 0.13555024999999432
                },
                {
                    "name": "D4",
                    "midi": 62,
                    "time": 245.34595250000018,
                    "velocity": 0.4330708661417323,
                    "duration": 0.13555024999999432
                },
                {
                    "name": "G3",
                    "midi": 55,
                    "time": 245.61705300000017,
                    "velocity": 0.4881889763779528,
                    "duration": 0.13555024999999432
                },
                {
                    "name": "A#3",
                    "midi": 58,
                    "time": 245.61705300000017,
                    "velocity": 0.4881889763779528,
                    "duration": 0.13555024999999432
                },
                {
                    "name": "D4",
                    "midi": 62,
                    "time": 245.61705300000017,
                    "velocity": 0.4881889763779528,
                    "duration": 0.13555024999999432
                },
                {
                    "name": "G2",
                    "midi": 43,
                    "time": 245.88815350000016,
                    "velocity": 0.3858267716535433,
                    "duration": 0.13555024999999432
                },
                {
                    "name": "D3",
                    "midi": 50,
                    "time": 245.88815350000016,
                    "velocity": 0.3858267716535433,
                    "duration": 0.13555024999999432
                },
                {
                    "name": "B3",
                    "midi": 59,
                    "time": 245.88815350000016,
                    "velocity": 0.3858267716535433,
                    "duration": 0.13555024999999432
                },
                {
                    "name": "G2",
                    "midi": 43,
                    "time": 246.15925400000015,
                    "velocity": 0.3700787401574803,
                    "duration": 0.8133014999999943
                },
                {
                    "name": "D3",
                    "midi": 50,
                    "time": 246.15925400000015,
                    "velocity": 0.3700787401574803,
                    "duration": 0.8133014999999943
                },
                {
                    "name": "B3",
                    "midi": 59,
                    "time": 246.15925400000015,
                    "velocity": 0.3700787401574803,
                    "duration": 0.8133014999999943
                },
                {
                    "name": "F4",
                    "midi": 65,
                    "time": 246.97255550000014,
                    "velocity": 0.29133858267716534,
                    "duration": 0.27110049999998864
                },
                {
                    "name": "G4",
                    "midi": 67,
                    "time": 246.97255550000014,
                    "velocity": 0.29133858267716534,
                    "duration": 0.27110049999998864
                },
                {
                    "name": "G3",
                    "midi": 55,
                    "time": 246.97255550000014,
                    "velocity": 0.29133858267716534,
                    "duration": 0.27110049999998864
                },
                {
                    "name": "G4",
                    "midi": 67,
                    "time": 247.24365600000013,
                    "velocity": 0.2755905511811024,
                    "duration": 1.6266029999999887
                },
                {
                    "name": "E4",
                    "midi": 64,
                    "time": 247.24365600000013,
                    "velocity": 0.2755905511811024,
                    "duration": 1.6266029999999887
                },
                {
                    "name": "C4",
                    "midi": 60,
                    "time": 247.24365600000013,
                    "velocity": 0.2755905511811024,
                    "duration": 1.6266029999999887
                }
            ],
            "controlChanges": {
                "7": [
                    {
                        "number": 7,
                        "time": 0,
                        "value": 0.7874015748031497
                    }
                ],
                "10": [
                    {
                        "number": 10,
                        "time": 0,
                        "value": 0.5039370078740157
                    }
                ],
                "64": [
                    {
                        "number": 64,
                        "time": 0,
                        "value": 1
                    },
                    {
                        "number": 64,
                        "time": 0.5489785125000001,
                        "value": 0
                    },
                    {
                        "number": 64,
                        "time": 0.5986802708333334,
                        "value": 1
                    },
                    {
                        "number": 64,
                        "time": 1.0968274395833335,
                        "value": 0
                    },
                    {
                        "number": 64,
                        "time": 1.1679913208333335,
                        "value": 1
                    },
                    {
                        "number": 64,
                        "time": 1.6266030000000002,
                        "value": 0
                    },
                    {
                        "number": 64,
                        "time": 1.8660751083333336,
                        "value": 1
                    },
                    {
                        "number": 64,
                        "time": 2.7742617833333334,
                        "value": 0
                    },
                    {
                        "number": 64,
                        "time": 3.2769272937500005,
                        "value": 1
                    },
                    {
                        "number": 64,
                        "time": 3.8055732687500003,
                        "value": 0
                    },
                    {
                        "number": 64,
                        "time": 3.8597933687500006,
                        "value": 1
                    },
                    {
                        "number": 64,
                        "time": 4.353422195833334,
                        "value": 0
                    },
                    {
                        "number": 64,
                        "time": 4.389568929166667,
                        "value": 1
                    },
                    {
                        "number": 64,
                        "time": 4.879809,
                        "value": 0
                    },
                    {
                        "number": 64,
                        "time": 8.133015,
                        "value": 1
                    },
                    {
                        "number": 64,
                        "time": 8.42783679375,
                        "value": 0
                    },
                    {
                        "number": 64,
                        "time": 8.452687672916667,
                        "value": 1
                    },
                    {
                        "number": 64,
                        "time": 8.508037358333334,
                        "value": 0
                    },
                    {
                        "number": 64,
                        "time": 8.701196464583337,
                        "value": 1
                    },
                    {
                        "number": 64,
                        "time": 8.95761235416667,
                        "value": 0
                    },
                    {
                        "number": 64,
                        "time": 9.014091625000004,
                        "value": 1
                    },
                    {
                        "number": 64,
                        "time": 9.061534212500005,
                        "value": 0
                    },
                    {
                        "number": 64,
                        "time": 9.217417000000006,
                        "value": 1
                    },
                    {
                        "number": 64,
                        "time": 9.485128743750007,
                        "value": 0
                    },
                    {
                        "number": 64,
                        "time": 9.544996770833341,
                        "value": 1
                    },
                    {
                        "number": 64,
                        "time": 9.644400287500009,
                        "value": 0
                    },
                    {
                        "number": 64,
                        "time": 9.75961800000001,
                        "value": 1
                    },
                    {
                        "number": 64,
                        "time": 10.048791866666676,
                        "value": 0
                    },
                    {
                        "number": 64,
                        "time": 10.173046262500009,
                        "value": 1
                    },
                    {
                        "number": 64,
                        "time": 10.316503610416676,
                        "value": 0
                    },
                    {
                        "number": 64,
                        "time": 10.57291950000001,
                        "value": 1
                    },
                    {
                        "number": 64,
                        "time": 11.397516854166676,
                        "value": 0
                    },
                    {
                        "number": 64,
                        "time": 11.838055166666676,
                        "value": 1
                    },
                    {
                        "number": 64,
                        "time": 13.012824000000009,
                        "value": 0
                    },
                    {
                        "number": 64,
                        "time": 13.093024564583342,
                        "value": 1
                    },
                    {
                        "number": 64,
                        "time": 13.562932097916676,
                        "value": 0
                    },
                    {
                        "number": 64,
                        "time": 13.61941136875001,
                        "value": 1
                    },
                    {
                        "number": 64,
                        "time": 14.108521854166677,
                        "value": 0
                    },
                    {
                        "number": 64,
                        "time": 14.180815320833343,
                        "value": 1
                    },
                    {
                        "number": 64,
                        "time": 14.641686170833344,
                        "value": 0
                    },
                    {
                        "number": 64,
                        "time": 14.894713304166677,
                        "value": 1
                    },
                    {
                        "number": 64,
                        "time": 15.723829000000011,
                        "value": 0
                    },
                    {
                        "number": 64,
                        "time": 16.33041636875001,
                        "value": 1
                    },
                    {
                        "number": 64,
                        "time": 16.81952685416668,
                        "value": 0
                    },
                    {
                        "number": 64,
                        "time": 16.87261736875001,
                        "value": 1
                    },
                    {
                        "number": 64,
                        "time": 17.366246195833345,
                        "value": 0
                    },
                    {
                        "number": 64,
                        "time": 17.426114222916677,
                        "value": 1
                    },
                    {
                        "number": 64,
                        "time": 17.91635429375001,
                        "value": 0
                    },
                    {
                        "number": 64,
                        "time": 21.15826443958335,
                        "value": 1
                    },
                    {
                        "number": 64,
                        "time": 21.424846597916684,
                        "value": 0
                    },
                    {
                        "number": 64,
                        "time": 21.460993331250016,
                        "value": 1
                    },
                    {
                        "number": 64,
                        "time": 21.528768456250017,
                        "value": 0
                    },
                    {
                        "number": 64,
                        "time": 21.71176129375002,
                        "value": 1
                    },
                    {
                        "number": 64,
                        "time": 21.96591801250002,
                        "value": 0
                    },
                    {
                        "number": 64,
                        "time": 22.011101429166686,
                        "value": 1
                    },
                    {
                        "number": 64,
                        "time": 22.082265310416687,
                        "value": 0
                    },
                    {
                        "number": 64,
                        "time": 22.242666439583353,
                        "value": 1
                    },
                    {
                        "number": 64,
                        "time": 22.50811901250002,
                        "value": 0
                    },
                    {
                        "number": 64,
                        "time": 22.55330242916669,
                        "value": 1
                    },
                    {
                        "number": 64,
                        "time": 22.64141009166669,
                        "value": 0
                    },
                    {
                        "number": 64,
                        "time": 22.85490173541669,
                        "value": 1
                    },
                    {
                        "number": 64,
                        "time": 23.059356695833355,
                        "value": 0
                    },
                    {
                        "number": 64,
                        "time": 23.18587026250002,
                        "value": 1
                    },
                    {
                        "number": 64,
                        "time": 23.33610512291669,
                        "value": 0
                    },
                    {
                        "number": 64,
                        "time": 23.534912156250023,
                        "value": 1
                    },
                    {
                        "number": 64,
                        "time": 24.460042612500022,
                        "value": 0
                    },
                    {
                        "number": 64,
                        "time": 24.821509945833355,
                        "value": 1
                    },
                    {
                        "number": 64,
                        "time": 26.02564800000002,
                        "value": 0
                    },
                    {
                        "number": 64,
                        "time": 26.101330222916687,
                        "value": 1
                    },
                    {
                        "number": 64,
                        "time": 26.57575609791669,
                        "value": 0
                    },
                    {
                        "number": 64,
                        "time": 26.63562412500002,
                        "value": 1
                    },
                    {
                        "number": 64,
                        "time": 27.11682751250002,
                        "value": 0
                    },
                    {
                        "number": 64,
                        "time": 27.17782512500002,
                        "value": 1
                    },
                    {
                        "number": 64,
                        "time": 27.65225100000002,
                        "value": 0
                    },
                    {
                        "number": 64,
                        "time": 27.71663736875002,
                        "value": 1
                    },
                    {
                        "number": 64,
                        "time": 28.203488683333358,
                        "value": 0
                    },
                    {
                        "number": 64,
                        "time": 28.282559662500024,
                        "value": 1
                    },
                    {
                        "number": 64,
                        "time": 28.751337610416687,
                        "value": 0
                    },
                    {
                        "number": 64,
                        "time": 29.35114746666669,
                        "value": 1
                    },
                    {
                        "number": 64,
                        "time": 29.824443756250023,
                        "value": 0
                    },
                    {
                        "number": 64,
                        "time": 29.91706976041669,
                        "value": 1
                    },
                    {
                        "number": 64,
                        "time": 30.381329366666687,
                        "value": 0
                    },
                    {
                        "number": 64,
                        "time": 30.438938222916686,
                        "value": 1
                    },
                    {
                        "number": 64,
                        "time": 30.90545700000002,
                        "value": 0
                    },
                    {
                        "number": 64,
                        "time": 30.99356466250002,
                        "value": 1
                    },
                    {
                        "number": 64,
                        "time": 31.456694683333357,
                        "value": 0
                    },
                    {
                        "number": 64,
                        "time": 31.556098200000022,
                        "value": 1
                    },
                    {
                        "number": 64,
                        "time": 32.00567319583335,
                        "value": 0
                    },
                    {
                        "number": 64,
                        "time": 32.56029963541669,
                        "value": 1
                    },
                    {
                        "number": 64,
                        "time": 33.07990892708335,
                        "value": 0
                    },
                    {
                        "number": 64,
                        "time": 33.134129027083354,
                        "value": 1
                    },
                    {
                        "number": 64,
                        "time": 33.54077977708336,
                        "value": 0
                    },
                    {
                        "number": 64,
                        "time": 33.668422929166695,
                        "value": 1
                    },
                    {
                        "number": 64,
                        "time": 33.9632447229167,
                        "value": 0
                    },
                    {
                        "number": 64,
                        "time": 34.26258485833337,
                        "value": 1
                    },
                    {
                        "number": 64,
                        "time": 34.70764151250003,
                        "value": 0
                    },
                    {
                        "number": 64,
                        "time": 34.76525036875003,
                        "value": 1
                    },
                    {
                        "number": 64,
                        "time": 35.0917005541667,
                        "value": 0
                    },
                    {
                        "number": 64,
                        "time": 35.31084012500003,
                        "value": 1
                    },
                    {
                        "number": 64,
                        "time": 35.578551868750026,
                        "value": 0
                    },
                    {
                        "number": 64,
                        "time": 35.79543226875003,
                        "value": 1
                    },
                    {
                        "number": 64,
                        "time": 36.150122089583355,
                        "value": 0
                    },
                    {
                        "number": 64,
                        "time": 36.88887095208336,
                        "value": 1
                    },
                    {
                        "number": 64,
                        "time": 37.220969064583365,
                        "value": 0
                    },
                    {
                        "number": 64,
                        "time": 37.98005046458337,
                        "value": 1
                    },
                    {
                        "number": 64,
                        "time": 38.386701214583375,
                        "value": 0
                    },
                    {
                        "number": 64,
                        "time": 38.54145441666671,
                        "value": 1
                    },
                    {
                        "number": 64,
                        "time": 38.896144237500046,
                        "value": 0
                    },
                    {
                        "number": 64,
                        "time": 40.688796293750045,
                        "value": 1
                    },
                    {
                        "number": 64,
                        "time": 41.07963284791671,
                        "value": 0
                    },
                    {
                        "number": 64,
                        "time": 41.22309019583338,
                        "value": 1
                    },
                    {
                        "number": 64,
                        "time": 41.55857706458338,
                        "value": 0
                    },
                    {
                        "number": 64,
                        "time": 41.74156990208338,
                        "value": 1
                    },
                    {
                        "number": 64,
                        "time": 42.18775614166671,
                        "value": 0
                    },
                    {
                        "number": 64,
                        "time": 42.29167800000005,
                        "value": 1
                    },
                    {
                        "number": 64,
                        "time": 42.706235847916716,
                        "value": 0
                    },
                    {
                        "number": 64,
                        "time": 42.84969319583338,
                        "value": 1
                    },
                    {
                        "number": 64,
                        "time": 43.26425104375005,
                        "value": 0
                    },
                    {
                        "number": 64,
                        "time": 43.39980129375005,
                        "value": 1
                    },
                    {
                        "number": 64,
                        "time": 43.83017333750006,
                        "value": 0
                    },
                    {
                        "number": 64,
                        "time": 43.94990939166672,
                        "value": 1
                    },
                    {
                        "number": 64,
                        "time": 44.47516661041672,
                        "value": 0
                    },
                    {
                        "number": 64,
                        "time": 44.50905417291672,
                        "value": 1
                    },
                    {
                        "number": 64,
                        "time": 45.015108439583386,
                        "value": 0
                    },
                    {
                        "number": 64,
                        "time": 45.07836522291672,
                        "value": 1
                    },
                    {
                        "number": 64,
                        "time": 45.54488400000006,
                        "value": 0
                    },
                    {
                        "number": 64,
                        "time": 45.76854191250006,
                        "value": 1
                    },
                    {
                        "number": 64,
                        "time": 46.9805870645834,
                        "value": 0
                    },
                    {
                        "number": 64,
                        "time": 47.2550763208334,
                        "value": 1
                    },
                    {
                        "number": 64,
                        "time": 47.72498385416674,
                        "value": 0
                    },
                    {
                        "number": 64,
                        "time": 47.770167270833404,
                        "value": 1
                    },
                    {
                        "number": 64,
                        "time": 48.27396236666674,
                        "value": 0
                    },
                    {
                        "number": 64,
                        "time": 48.3360895645834,
                        "value": 1
                    },
                    {
                        "number": 64,
                        "time": 48.810515439583405,
                        "value": 0
                    },
                    {
                        "number": 64,
                        "time": 48.85005092916674,
                        "value": 1
                    },
                    {
                        "number": 64,
                        "time": 49.348198097916736,
                        "value": 0
                    },
                    {
                        "number": 64,
                        "time": 49.41597322291673,
                        "value": 1
                    },
                    {
                        "number": 64,
                        "time": 49.890399097916735,
                        "value": 0
                    },
                    {
                        "number": 64,
                        "time": 49.9423600270834,
                        "value": 1
                    },
                    {
                        "number": 64,
                        "time": 50.42469300000007,
                        "value": 0
                    },
                    {
                        "number": 64,
                        "time": 50.481172270833405,
                        "value": 1
                    },
                    {
                        "number": 64,
                        "time": 50.97706026875007,
                        "value": 0
                    },
                    {
                        "number": 64,
                        "time": 51.0233732708334,
                        "value": 1
                    },
                    {
                        "number": 64,
                        "time": 51.51700209791674,
                        "value": 0
                    },
                    {
                        "number": 64,
                        "time": 51.57687012500007,
                        "value": 1
                    },
                    {
                        "number": 64,
                        "time": 52.05129600000007,
                        "value": 0
                    },
                    {
                        "number": 64,
                        "time": 57.47330600000013,
                        "value": 1
                    },
                    {
                        "number": 64,
                        "time": 58.56109675625013,
                        "value": 0
                    },
                    {
                        "number": 64,
                        "time": 58.88980611250013,
                        "value": 1
                    },
                    {
                        "number": 64,
                        "time": 60.18431100000013,
                        "value": 0
                    },
                    {
                        "number": 64,
                        "time": 60.2362719291668,
                        "value": 1
                    },
                    {
                        "number": 64,
                        "time": 60.7344190979168,
                        "value": 0
                    },
                    {
                        "number": 64,
                        "time": 60.78299127083346,
                        "value": 1
                    },
                    {
                        "number": 64,
                        "time": 61.27774968333346,
                        "value": 0
                    },
                    {
                        "number": 64,
                        "time": 61.33648812500013,
                        "value": 1
                    },
                    {
                        "number": 64,
                        "time": 61.818821097916796,
                        "value": 0
                    },
                    {
                        "number": 64,
                        "time": 61.91935420000013,
                        "value": 1
                    },
                    {
                        "number": 64,
                        "time": 62.36102209791679,
                        "value": 0
                    },
                    {
                        "number": 64,
                        "time": 62.400557587500124,
                        "value": 1
                    },
                    {
                        "number": 64,
                        "time": 62.90322309791679,
                        "value": 0
                    },
                    {
                        "number": 64,
                        "time": 62.991330760416794,
                        "value": 1
                    },
                    {
                        "number": 64,
                        "time": 63.43751700000013,
                        "value": 0
                    },
                    {
                        "number": 64,
                        "time": 63.541438858333464,
                        "value": 1
                    },
                    {
                        "number": 64,
                        "time": 63.98536592708346,
                        "value": 0
                    },
                    {
                        "number": 64,
                        "time": 64.05991856458346,
                        "value": 1
                    },
                    {
                        "number": 64,
                        "time": 64.53773319583345,
                        "value": 0
                    },
                    {
                        "number": 64,
                        "time": 64.63374795625012,
                        "value": 1
                    },
                    {
                        "number": 64,
                        "time": 65.06412000000012,
                        "value": 0
                    },
                    {
                        "number": 64,
                        "time": 65.19628149375012,
                        "value": 1
                    },
                    {
                        "number": 64,
                        "time": 65.61761685416678,
                        "value": 0
                    },
                    {
                        "number": 64,
                        "time": 65.68200322291678,
                        "value": 1
                    },
                    {
                        "number": 64,
                        "time": 66.16207702500012,
                        "value": 0
                    },
                    {
                        "number": 64,
                        "time": 66.72235139166679,
                        "value": 1
                    },
                    {
                        "number": 64,
                        "time": 67.07365245625013,
                        "value": 0
                    },
                    {
                        "number": 64,
                        "time": 67.24534943958346,
                        "value": 1
                    },
                    {
                        "number": 64,
                        "time": 67.64409309166679,
                        "value": 0
                    },
                    {
                        "number": 64,
                        "time": 67.80675339166679,
                        "value": 1
                    },
                    {
                        "number": 64,
                        "time": 68.13433316250011,
                        "value": 0
                    },
                    {
                        "number": 64,
                        "time": 68.33765853750012,
                        "value": 1
                    },
                    {
                        "number": 64,
                        "time": 68.86291575625012,
                        "value": 0
                    },
                    {
                        "number": 64,
                        "time": 68.92391336875012,
                        "value": 1
                    },
                    {
                        "number": 64,
                        "time": 69.25375231041679,
                        "value": 0
                    },
                    {
                        "number": 64,
                        "time": 69.42206053750012,
                        "value": 1
                    },
                    {
                        "number": 64,
                        "time": 69.80837875000012,
                        "value": 0
                    },
                    {
                        "number": 64,
                        "time": 69.94392900000011,
                        "value": 1
                    },
                    {
                        "number": 64,
                        "time": 70.30878508958345,
                        "value": 0
                    },
                    {
                        "number": 64,
                        "time": 71.04753395208346,
                        "value": 1
                    },
                    {
                        "number": 64,
                        "time": 71.37963206458346,
                        "value": 0
                    },
                    {
                        "number": 64,
                        "time": 72.13871346458345,
                        "value": 1
                    },
                    {
                        "number": 64,
                        "time": 72.54536421458344,
                        "value": 0
                    },
                    {
                        "number": 64,
                        "time": 72.70011741666677,
                        "value": 1
                    },
                    {
                        "number": 64,
                        "time": 73.0548072375001,
                        "value": 0
                    },
                    {
                        "number": 64,
                        "time": 74.8474592937501,
                        "value": 1
                    },
                    {
                        "number": 64,
                        "time": 75.23829584791677,
                        "value": 0
                    },
                    {
                        "number": 64,
                        "time": 75.38175319583344,
                        "value": 1
                    },
                    {
                        "number": 64,
                        "time": 75.71724006458344,
                        "value": 0
                    },
                    {
                        "number": 64,
                        "time": 75.90023290208345,
                        "value": 1
                    },
                    {
                        "number": 64,
                        "time": 76.34641914166679,
                        "value": 0
                    },
                    {
                        "number": 64,
                        "time": 76.45034100000012,
                        "value": 1
                    },
                    {
                        "number": 64,
                        "time": 76.86489884791679,
                        "value": 0
                    },
                    {
                        "number": 64,
                        "time": 77.00835619583346,
                        "value": 1
                    },
                    {
                        "number": 64,
                        "time": 77.42291404375011,
                        "value": 0
                    },
                    {
                        "number": 64,
                        "time": 77.5584642937501,
                        "value": 1
                    },
                    {
                        "number": 64,
                        "time": 77.9888363375001,
                        "value": 0
                    },
                    {
                        "number": 64,
                        "time": 78.10857239166677,
                        "value": 1
                    },
                    {
                        "number": 64,
                        "time": 78.63044085416676,
                        "value": 0
                    },
                    {
                        "number": 64,
                        "time": 78.66771717291677,
                        "value": 1
                    },
                    {
                        "number": 64,
                        "time": 79.17264185416677,
                        "value": 0
                    },
                    {
                        "number": 64,
                        "time": 79.21782527083343,
                        "value": 1
                    },
                    {
                        "number": 64,
                        "time": 79.70693575625009,
                        "value": 0
                    },
                    {
                        "number": 64,
                        "time": 79.83119015208342,
                        "value": 1
                    },
                    {
                        "number": 64,
                        "time": 81.13925006458342,
                        "value": 0
                    },
                    {
                        "number": 64,
                        "time": 81.36629673333343,
                        "value": 1
                    },
                    {
                        "number": 64,
                        "time": 81.88364685416676,
                        "value": 0
                    },
                    {
                        "number": 64,
                        "time": 81.93673736875009,
                        "value": 1
                    },
                    {
                        "number": 64,
                        "time": 82.42923661041675,
                        "value": 0
                    },
                    {
                        "number": 64,
                        "time": 82.47893836875008,
                        "value": 1
                    },
                    {
                        "number": 64,
                        "time": 82.95675300000008,
                        "value": 0
                    },
                    {
                        "number": 64,
                        "time": 83.02113936875007,
                        "value": 1
                    },
                    {
                        "number": 64,
                        "time": 83.51024985416673,
                        "value": 0
                    },
                    {
                        "number": 64,
                        "time": 83.56334036875006,
                        "value": 1
                    },
                    {
                        "number": 64,
                        "time": 84.05132126875006,
                        "value": 0
                    },
                    {
                        "number": 64,
                        "time": 84.11344846666672,
                        "value": 1
                    },
                    {
                        "number": 64,
                        "time": 84.58787434166672,
                        "value": 0
                    },
                    {
                        "number": 64,
                        "time": 84.63192817291672,
                        "value": 1
                    },
                    {
                        "number": 64,
                        "time": 85.13685285416672,
                        "value": 0
                    },
                    {
                        "number": 64,
                        "time": 85.18994336875005,
                        "value": 1
                    },
                    {
                        "number": 64,
                        "time": 85.67905385416671,
                        "value": 0
                    },
                    {
                        "number": 64,
                        "time": 85.72762602708337,
                        "value": 1
                    },
                    {
                        "number": 64,
                        "time": 86.20995900000004,
                        "value": 0
                    },
                    {
                        "number": 64,
                        "time": 91.63874651249985,
                        "value": 1
                    },
                    {
                        "number": 64,
                        "time": 92.71637099999985,
                        "value": 0
                    },
                    {
                        "number": 64,
                        "time": 93.10833713958318,
                        "value": 1
                    },
                    {
                        "number": 64,
                        "time": 94.34297399999986,
                        "value": 0
                    },
                    {
                        "number": 64,
                        "time": 94.45480295624985,
                        "value": 1
                    },
                    {
                        "number": 64,
                        "time": 95.44431978124986,
                        "value": 0
                    },
                    {
                        "number": 64,
                        "time": 95.61149842291653,
                        "value": 1
                    },
                    {
                        "number": 64,
                        "time": 95.97409534166653,
                        "value": 0
                    },
                    {
                        "number": 64,
                        "time": 96.11303434791652,
                        "value": 1
                    },
                    {
                        "number": 64,
                        "time": 97.06188609791654,
                        "value": 0
                    },
                    {
                        "number": 64,
                        "time": 97.18162215208321,
                        "value": 1
                    },
                    {
                        "number": 64,
                        "time": 98.14967685416654,
                        "value": 0
                    },
                    {
                        "number": 64,
                        "time": 98.25811705416655,
                        "value": 1
                    },
                    {
                        "number": 64,
                        "time": 98.68848909791656,
                        "value": 0
                    },
                    {
                        "number": 64,
                        "time": 98.86470442291656,
                        "value": 1
                    },
                    {
                        "number": 64,
                        "time": 99.23181968333323,
                        "value": 0
                    },
                    {
                        "number": 64,
                        "time": 99.4227196187499,
                        "value": 1
                    },
                    {
                        "number": 64,
                        "time": 99.77627985416656,
                        "value": 0
                    },
                    {
                        "number": 64,
                        "time": 99.95023600833322,
                        "value": 1
                    },
                    {
                        "number": 64,
                        "time": 100.31283292708322,
                        "value": 0
                    },
                    {
                        "number": 64,
                        "time": 100.49243700833323,
                        "value": 1
                    },
                    {
                        "number": 64,
                        "time": 100.8493859999999,
                        "value": 0
                    },
                    {
                        "number": 64,
                        "time": 100.98493624999989,
                        "value": 1
                    },
                    {
                        "number": 64,
                        "time": 101.9473430249999,
                        "value": 0
                    },
                    {
                        "number": 64,
                        "time": 102.0930595437499,
                        "value": 1
                    },
                    {
                        "number": 64,
                        "time": 102.48050734166657,
                        "value": 0
                    },
                    {
                        "number": 64,
                        "time": 102.59572505416656,
                        "value": 1
                    },
                    {
                        "number": 64,
                        "time": 103.56829809791658,
                        "value": 0
                    },
                    {
                        "number": 64,
                        "time": 103.71175544583325,
                        "value": 1
                    },
                    {
                        "number": 64,
                        "time": 104.10259199999992,
                        "value": 0
                    },
                    {
                        "number": 64,
                        "time": 104.20651385833325,
                        "value": 1
                    },
                    {
                        "number": 64,
                        "time": 104.66286636666659,
                        "value": 0
                    },
                    {
                        "number": 64,
                        "time": 104.79615744583326,
                        "value": 1
                    },
                    {
                        "number": 64,
                        "time": 105.1949010979166,
                        "value": 0
                    },
                    {
                        "number": 64,
                        "time": 105.29882295624994,
                        "value": 1
                    },
                    {
                        "number": 64,
                        "time": 105.73484292708326,
                        "value": 0
                    },
                    {
                        "number": 64,
                        "time": 105.8726523479166,
                        "value": 1
                    },
                    {
                        "number": 64,
                        "time": 106.28156226874994,
                        "value": 0
                    },
                    {
                        "number": 64,
                        "time": 106.40694624999993,
                        "value": 1
                    },
                    {
                        "number": 64,
                        "time": 106.82376326874993,
                        "value": 0
                    },
                    {
                        "number": 64,
                        "time": 106.97286854374993,
                        "value": 1
                    },
                    {
                        "number": 64,
                        "time": 107.36144592708325,
                        "value": 0
                    },
                    {
                        "number": 64,
                        "time": 107.46762695624992,
                        "value": 1
                    },
                    {
                        "number": 64,
                        "time": 108.45601419583325,
                        "value": 0
                    },
                    {
                        "number": 64,
                        "time": 108.57575024999991,
                        "value": 1
                    },
                    {
                        "number": 64,
                        "time": 108.98804892708324,
                        "value": 0
                    },
                    {
                        "number": 64,
                        "time": 109.13376544583325,
                        "value": 1
                    },
                    {
                        "number": 64,
                        "time": 110.0747100979166,
                        "value": 0
                    },
                    {
                        "number": 64,
                        "time": 110.18653905416659,
                        "value": 1
                    },
                    {
                        "number": 64,
                        "time": 111.1591120979166,
                        "value": 0
                    },
                    {
                        "number": 64,
                        "time": 111.27884815208327,
                        "value": 1
                    },
                    {
                        "number": 64,
                        "time": 111.69905392708327,
                        "value": 0
                    },
                    {
                        "number": 64,
                        "time": 111.82895624999993,
                        "value": 1
                    },
                    {
                        "number": 64,
                        "time": 112.23786617083326,
                        "value": 0
                    },
                    {
                        "number": 64,
                        "time": 112.39261937291658,
                        "value": 1
                    },
                    {
                        "number": 64,
                        "time": 112.78345592708325,
                        "value": 0
                    },
                    {
                        "number": 64,
                        "time": 112.93482037291659,
                        "value": 1
                    },
                    {
                        "number": 64,
                        "time": 113.33243443958327,
                        "value": 0
                    },
                    {
                        "number": 64,
                        "time": 113.49170598333326,
                        "value": 1
                    },
                    {
                        "number": 64,
                        "time": 113.86446917083326,
                        "value": 0
                    },
                    {
                        "number": 64,
                        "time": 113.98985315208326,
                        "value": 1
                    },
                    {
                        "number": 64,
                        "time": 114.9612966104166,
                        "value": 0
                    },
                    {
                        "number": 64,
                        "time": 115.10588354374993,
                        "value": 1
                    },
                    {
                        "number": 64,
                        "time": 115.49333134166659,
                        "value": 0
                    },
                    {
                        "number": 64,
                        "time": 115.66502832499992,
                        "value": 1
                    },
                    {
                        "number": 64,
                        "time": 116.5878996104166,
                        "value": 0
                    },
                    {
                        "number": 64,
                        "time": 116.67713685833327,
                        "value": 1
                    },
                    {
                        "number": 64,
                        "time": 117.11541599999994,
                        "value": 0
                    },
                    {
                        "number": 64,
                        "time": 117.21933785833328,
                        "value": 1
                    },
                    {
                        "number": 64,
                        "time": 117.67230161041661,
                        "value": 0
                    },
                    {
                        "number": 64,
                        "time": 117.78526015208328,
                        "value": 1
                    },
                    {
                        "number": 64,
                        "time": 118.20772509791662,
                        "value": 0
                    },
                    {
                        "number": 64,
                        "time": 118.31164695624996,
                        "value": 1
                    },
                    {
                        "number": 64,
                        "time": 118.74879651249995,
                        "value": 0
                    },
                    {
                        "number": 64,
                        "time": 118.85384795624995,
                        "value": 1
                    },
                    {
                        "number": 64,
                        "time": 119.30003419583328,
                        "value": 0
                    },
                    {
                        "number": 64,
                        "time": 119.45139864166661,
                        "value": 1
                    },
                    {
                        "number": 64,
                        "time": 119.83319851249993,
                        "value": 0
                    },
                    {
                        "number": 64,
                        "time": 119.93824995624993,
                        "value": 1
                    },
                    {
                        "number": 64,
                        "time": 120.36862199999993,
                        "value": 0
                    },
                    {
                        "number": 64,
                        "time": 120.48045095624992,
                        "value": 1
                    },
                    {
                        "number": 64,
                        "time": 120.92663719583325,
                        "value": 0
                    },
                    {
                        "number": 64,
                        "time": 121.02265195624992,
                        "value": 1
                    },
                    {
                        "number": 64,
                        "time": 121.46883819583324,
                        "value": 0
                    },
                    {
                        "number": 64,
                        "time": 121.57276005416658,
                        "value": 1
                    },
                    {
                        "number": 64,
                        "time": 121.99522499999992,
                        "value": 0
                    },
                    {
                        "number": 64,
                        "time": 122.07316639374991,
                        "value": 1
                    },
                    {
                        "number": 64,
                        "time": 122.54985143958326,
                        "value": 0
                    },
                    {
                        "number": 64,
                        "time": 122.64699578541659,
                        "value": 1
                    },
                    {
                        "number": 64,
                        "time": 123.08640451249993,
                        "value": 0
                    },
                    {
                        "number": 64,
                        "time": 123.1891967854166,
                        "value": 1
                    },
                    {
                        "number": 64,
                        "time": 123.62182799999994,
                        "value": 0
                    },
                    {
                        "number": 64,
                        "time": 123.69976939374993,
                        "value": 1
                    },
                    {
                        "number": 64,
                        "time": 124.17645443958328,
                        "value": 0
                    },
                    {
                        "number": 64,
                        "time": 124.28037629791662,
                        "value": 1
                    },
                    {
                        "number": 64,
                        "time": 124.72091461041661,
                        "value": 0
                    },
                    {
                        "number": 64,
                        "time": 124.82935481041662,
                        "value": 1
                    },
                    {
                        "number": 64,
                        "time": 125.24843099999995,
                        "value": 0
                    },
                    {
                        "number": 64,
                        "time": 125.33879783333329,
                        "value": 1
                    },
                    {
                        "number": 64,
                        "time": 125.8030574395833,
                        "value": 0
                    },
                    {
                        "number": 64,
                        "time": 125.8945538583333,
                        "value": 1
                    },
                    {
                        "number": 64,
                        "time": 126.3384809270833,
                        "value": 0
                    },
                    {
                        "number": 64,
                        "time": 126.4231998333333,
                        "value": 1
                    },
                    {
                        "number": 64,
                        "time": 126.87503399999997,
                        "value": 0
                    },
                    {
                        "number": 64,
                        "time": 127.01058424999997,
                        "value": 1
                    },
                    {
                        "number": 64,
                        "time": 127.42514209791663,
                        "value": 0
                    },
                    {
                        "number": 64,
                        "time": 127.5448781520833,
                        "value": 1
                    },
                    {
                        "number": 64,
                        "time": 127.9752501958333,
                        "value": 0
                    },
                    {
                        "number": 64,
                        "time": 128.07917205416663,
                        "value": 1
                    },
                    {
                        "number": 64,
                        "time": 128.50841451249997,
                        "value": 0
                    },
                    {
                        "number": 64,
                        "time": 128.61798429791662,
                        "value": 1
                    },
                    {
                        "number": 64,
                        "time": 129.0562634395833,
                        "value": 0
                    },
                    {
                        "number": 64,
                        "time": 129.16696281041663,
                        "value": 1
                    },
                    {
                        "number": 64,
                        "time": 129.59168692708332,
                        "value": 0
                    },
                    {
                        "number": 64,
                        "time": 129.67640583333332,
                        "value": 1
                    },
                    {
                        "number": 64,
                        "time": 130.13275834166663,
                        "value": 0
                    },
                    {
                        "number": 64,
                        "time": 130.22425476041664,
                        "value": 1
                    },
                    {
                        "number": 64,
                        "time": 130.68851436666665,
                        "value": 0
                    },
                    {
                        "number": 64,
                        "time": 130.82180544583332,
                        "value": 1
                    },
                    {
                        "number": 64,
                        "time": 131.75597258541666,
                        "value": 0
                    },
                    {
                        "number": 64,
                        "time": 131.89039325,
                        "value": 1
                    },
                    {
                        "number": 64,
                        "time": 132.30495109791667,
                        "value": 0
                    },
                    {
                        "number": 64,
                        "time": 132.40887295625,
                        "value": 1
                    },
                    {
                        "number": 64,
                        "time": 132.85167043958333,
                        "value": 0
                    },
                    {
                        "number": 64,
                        "time": 132.95107395624999,
                        "value": 1
                    },
                    {
                        "number": 64,
                        "time": 133.38483475624997,
                        "value": 0
                    },
                    {
                        "number": 64,
                        "time": 133.49327495624996,
                        "value": 1
                    },
                    {
                        "number": 64,
                        "time": 133.9428499520833,
                        "value": 0
                    },
                    {
                        "number": 64,
                        "time": 134.05919724999995,
                        "value": 1
                    },
                    {
                        "number": 64,
                        "time": 134.47940302499995,
                        "value": 0
                    },
                    {
                        "number": 64,
                        "time": 134.58558405416662,
                        "value": 1
                    },
                    {
                        "number": 64,
                        "time": 135.0125673416666,
                        "value": 0
                    },
                    {
                        "number": 64,
                        "time": 135.1277850541666,
                        "value": 1
                    },
                    {
                        "number": 64,
                        "time": 135.56606419583326,
                        "value": 0
                    },
                    {
                        "number": 64,
                        "time": 135.65417185833326,
                        "value": 1
                    },
                    {
                        "number": 64,
                        "time": 136.1003580979166,
                        "value": 0
                    },
                    {
                        "number": 64,
                        "time": 136.2121870541666,
                        "value": 1
                    },
                    {
                        "number": 64,
                        "time": 136.63917034166658,
                        "value": 0
                    },
                    {
                        "number": 64,
                        "time": 136.7464809562499,
                        "value": 1
                    },
                    {
                        "number": 64,
                        "time": 137.18476009791658,
                        "value": 0
                    },
                    {
                        "number": 64,
                        "time": 137.32031034791657,
                        "value": 1
                    },
                    {
                        "number": 64,
                        "time": 137.7269610979166,
                        "value": 0
                    },
                    {
                        "number": 64,
                        "time": 137.83088295624992,
                        "value": 1
                    },
                    {
                        "number": 64,
                        "time": 138.26125499999992,
                        "value": 0
                    },
                    {
                        "number": 64,
                        "time": 138.4114898604166,
                        "value": 1
                    },
                    {
                        "number": 64,
                        "time": 138.80684475624992,
                        "value": 0
                    },
                    {
                        "number": 64,
                        "time": 138.91754412708326,
                        "value": 1
                    },
                    {
                        "number": 64,
                        "time": 139.35921202499992,
                        "value": 0
                    },
                    {
                        "number": 64,
                        "time": 139.4891143479166,
                        "value": 1
                    },
                    {
                        "number": 64,
                        "time": 141.51446099999995,
                        "value": 0
                    },
                    {
                        "number": 64,
                        "time": 141.63080829791662,
                        "value": 1
                    },
                    {
                        "number": 64,
                        "time": 142.61241802499995,
                        "value": 0
                    },
                    {
                        "number": 64,
                        "time": 142.70843278541662,
                        "value": 1
                    },
                    {
                        "number": 64,
                        "time": 143.14784151249995,
                        "value": 0
                    },
                    {
                        "number": 64,
                        "time": 143.23820834583327,
                        "value": 1
                    },
                    {
                        "number": 64,
                        "time": 144.2412801958333,
                        "value": 0
                    },
                    {
                        "number": 64,
                        "time": 144.3226103458333,
                        "value": 1
                    },
                    {
                        "number": 64,
                        "time": 145.31551592708334,
                        "value": 0
                    },
                    {
                        "number": 64,
                        "time": 145.41378985833333,
                        "value": 1
                    },
                    {
                        "number": 64,
                        "time": 145.85771692708335,
                        "value": 0
                    },
                    {
                        "number": 64,
                        "time": 145.93001039375002,
                        "value": 1
                    },
                    {
                        "number": 64,
                        "time": 146.39765875625,
                        "value": 0
                    },
                    {
                        "number": 64,
                        "time": 146.5230427375,
                        "value": 1
                    },
                    {
                        "number": 64,
                        "time": 146.94437809791665,
                        "value": 0
                    },
                    {
                        "number": 64,
                        "time": 147.09348337291667,
                        "value": 1
                    },
                    {
                        "number": 64,
                        "time": 147.49222702499998,
                        "value": 0
                    },
                    {
                        "number": 64,
                        "time": 147.6639240083333,
                        "value": 1
                    },
                    {
                        "number": 64,
                        "time": 148.02426175624996,
                        "value": 0
                    },
                    {
                        "number": 64,
                        "time": 148.14060905416662,
                        "value": 1
                    },
                    {
                        "number": 64,
                        "time": 149.11318209791662,
                        "value": 0
                    },
                    {
                        "number": 64,
                        "time": 149.2566394458333,
                        "value": 1
                    },
                    {
                        "number": 64,
                        "time": 149.65425351249996,
                        "value": 0
                    },
                    {
                        "number": 64,
                        "time": 149.75930495624996,
                        "value": 1
                    },
                    {
                        "number": 64,
                        "time": 150.73978509791664,
                        "value": 0
                    },
                    {
                        "number": 64,
                        "time": 150.84370695624997,
                        "value": 1
                    },
                    {
                        "number": 64,
                        "time": 151.2763381708333,
                        "value": 0
                    },
                    {
                        "number": 64,
                        "time": 151.38590795624995,
                        "value": 1
                    },
                    {
                        "number": 64,
                        "time": 151.82983502499994,
                        "value": 0
                    },
                    {
                        "number": 64,
                        "time": 151.91229476041661,
                        "value": 1
                    },
                    {
                        "number": 64,
                        "time": 152.36412892708327,
                        "value": 0
                    },
                    {
                        "number": 64,
                        "time": 152.46240285833326,
                        "value": 1
                    },
                    {
                        "number": 64,
                        "time": 152.90520034166659,
                        "value": 0
                    },
                    {
                        "number": 64,
                        "time": 153.03623224999993,
                        "value": 1
                    },
                    {
                        "number": 64,
                        "time": 153.4507900979166,
                        "value": 0
                    },
                    {
                        "number": 64,
                        "time": 153.55471195624995,
                        "value": 1
                    },
                    {
                        "number": 64,
                        "time": 153.99525026874994,
                        "value": 0
                    },
                    {
                        "number": 64,
                        "time": 154.12063424999994,
                        "value": 1
                    },
                    {
                        "number": 64,
                        "time": 154.5318033416666,
                        "value": 0
                    },
                    {
                        "number": 64,
                        "time": 154.63911395624993,
                        "value": 1
                    },
                    {
                        "number": 64,
                        "time": 155.07626351249993,
                        "value": 0
                    },
                    {
                        "number": 64,
                        "time": 155.1655007604166,
                        "value": 1
                    },
                    {
                        "number": 64,
                        "time": 155.6195940979166,
                        "value": 0
                    },
                    {
                        "number": 64,
                        "time": 155.71560885833327,
                        "value": 1
                    },
                    {
                        "number": 64,
                        "time": 156.15727675624993,
                        "value": 0
                    },
                    {
                        "number": 64,
                        "time": 156.25780985833327,
                        "value": 1
                    },
                    {
                        "number": 64,
                        "time": 156.7017369270833,
                        "value": 0
                    },
                    {
                        "number": 64,
                        "time": 156.7864558333333,
                        "value": 1
                    },
                    {
                        "number": 64,
                        "time": 157.24167875624994,
                        "value": 0
                    },
                    {
                        "number": 64,
                        "time": 157.32865683333327,
                        "value": 1
                    },
                    {
                        "number": 64,
                        "time": 157.78049099999993,
                        "value": 0
                    },
                    {
                        "number": 64,
                        "time": 157.8968382979166,
                        "value": 1
                    },
                    {
                        "number": 64,
                        "time": 158.3305990979166,
                        "value": 0
                    },
                    {
                        "number": 64,
                        "time": 158.41983634583326,
                        "value": 1
                    },
                    {
                        "number": 64,
                        "time": 158.87957761041662,
                        "value": 0
                    },
                    {
                        "number": 64,
                        "time": 158.97446278541662,
                        "value": 1
                    },
                    {
                        "number": 64,
                        "time": 159.41048275624993,
                        "value": 0
                    },
                    {
                        "number": 64,
                        "time": 159.5302188104166,
                        "value": 1
                    },
                    {
                        "number": 64,
                        "time": 159.96172043958327,
                        "value": 0
                    },
                    {
                        "number": 64,
                        "time": 160.0532168583333,
                        "value": 1
                    },
                    {
                        "number": 64,
                        "time": 160.5073101958333,
                        "value": 0
                    },
                    {
                        "number": 64,
                        "time": 160.60784329791665,
                        "value": 1
                    },
                    {
                        "number": 64,
                        "time": 161.03708575624998,
                        "value": 0
                    },
                    {
                        "number": 64,
                        "time": 161.17715434791666,
                        "value": 1
                    },
                    {
                        "number": 64,
                        "time": 161.58945302499998,
                        "value": 0
                    },
                    {
                        "number": 64,
                        "time": 161.68772695624997,
                        "value": 1
                    },
                    {
                        "number": 64,
                        "time": 162.12939485416663,
                        "value": 0
                    },
                    {
                        "number": 64,
                        "time": 162.2457421520833,
                        "value": 1
                    },
                    {
                        "number": 64,
                        "time": 162.6670775125,
                        "value": 0
                    },
                    {
                        "number": 64,
                        "time": 162.76422185833331,
                        "value": 1
                    },
                    {
                        "number": 64,
                        "time": 163.2149264395833,
                        "value": 0
                    },
                    {
                        "number": 64,
                        "time": 163.32562581041665,
                        "value": 1
                    },
                    {
                        "number": 64,
                        "time": 163.75938661041667,
                        "value": 0
                    },
                    {
                        "number": 64,
                        "time": 163.84184634583335,
                        "value": 1
                    },
                    {
                        "number": 64,
                        "time": 164.29142134166668,
                        "value": 0
                    },
                    {
                        "number": 64,
                        "time": 164.42245325000002,
                        "value": 1
                    },
                    {
                        "number": 64,
                        "time": 164.8437886104167,
                        "value": 0
                    },
                    {
                        "number": 64,
                        "time": 164.9962826416667,
                        "value": 1
                    },
                    {
                        "number": 64,
                        "time": 165.91350600000004,
                        "value": 0
                    },
                    {
                        "number": 64,
                        "time": 166.0095207604167,
                        "value": 1
                    },
                    {
                        "number": 64,
                        "time": 166.47265078125005,
                        "value": 0
                    },
                    {
                        "number": 64,
                        "time": 166.56753595625005,
                        "value": 1
                    },
                    {
                        "number": 64,
                        "time": 167.01259261041673,
                        "value": 0
                    },
                    {
                        "number": 64,
                        "time": 167.10973695625006,
                        "value": 1
                    },
                    {
                        "number": 64,
                        "time": 167.5457569270834,
                        "value": 0
                    },
                    {
                        "number": 64,
                        "time": 167.65984505416674,
                        "value": 1
                    },
                    {
                        "number": 64,
                        "time": 168.09021709791674,
                        "value": 0
                    },
                    {
                        "number": 64,
                        "time": 168.20995315208341,
                        "value": 1
                    },
                    {
                        "number": 64,
                        "time": 168.64032519583344,
                        "value": 0
                    },
                    {
                        "number": 64,
                        "time": 168.72052576041676,
                        "value": 1
                    },
                    {
                        "number": 64,
                        "time": 169.1667120000001,
                        "value": 0
                    },
                    {
                        "number": 64,
                        "time": 169.29435515208343,
                        "value": 1
                    },
                    {
                        "number": 64,
                        "time": 169.71569051250012,
                        "value": 0
                    },
                    {
                        "number": 64,
                        "time": 169.81283485833345,
                        "value": 1
                    },
                    {
                        "number": 64,
                        "time": 170.2590210979168,
                        "value": 0
                    },
                    {
                        "number": 64,
                        "time": 170.36294295625012,
                        "value": 1
                    },
                    {
                        "number": 64,
                        "time": 170.8012220979168,
                        "value": 0
                    },
                    {
                        "number": 64,
                        "time": 170.92886525000011,
                        "value": 1
                    },
                    {
                        "number": 64,
                        "time": 171.34907102500011,
                        "value": 0
                    },
                    {
                        "number": 64,
                        "time": 171.4473449562501,
                        "value": 1
                    },
                    {
                        "number": 64,
                        "time": 171.88336492708345,
                        "value": 0
                    },
                    {
                        "number": 64,
                        "time": 171.97373176041677,
                        "value": 1
                    },
                    {
                        "number": 64,
                        "time": 172.4233067562501,
                        "value": 0
                    },
                    {
                        "number": 64,
                        "time": 172.5419132250001,
                        "value": 1
                    },
                    {
                        "number": 64,
                        "time": 172.97002609791676,
                        "value": 0
                    },
                    {
                        "number": 64,
                        "time": 173.05474500416676,
                        "value": 1
                    },
                    {
                        "number": 64,
                        "time": 173.51787502500008,
                        "value": 0
                    },
                    {
                        "number": 64,
                        "time": 173.59016849166676,
                        "value": 1
                    },
                    {
                        "number": 64,
                        "time": 175.67312400000012,
                        "value": 0
                    },
                    {
                        "number": 64,
                        "time": 175.77704585833345,
                        "value": 1
                    },
                    {
                        "number": 64,
                        "time": 176.77108102500011,
                        "value": 0
                    },
                    {
                        "number": 64,
                        "time": 176.84789283333345,
                        "value": 1
                    },
                    {
                        "number": 64,
                        "time": 177.30763409791678,
                        "value": 0
                    },
                    {
                        "number": 64,
                        "time": 177.39687134583343,
                        "value": 1
                    },
                    {
                        "number": 64,
                        "time": 178.39994319583346,
                        "value": 0
                    },
                    {
                        "number": 64,
                        "time": 178.48805085833345,
                        "value": 1
                    },
                    {
                        "number": 64,
                        "time": 179.48095643958345,
                        "value": 0
                    },
                    {
                        "number": 64,
                        "time": 179.5329173687501,
                        "value": 1
                    },
                    {
                        "number": 64,
                        "time": 180.01637992708345,
                        "value": 0
                    },
                    {
                        "number": 64,
                        "time": 180.10109883333345,
                        "value": 1
                    },
                    {
                        "number": 64,
                        "time": 180.55971051250012,
                        "value": 0
                    },
                    {
                        "number": 64,
                        "time": 180.68170573750012,
                        "value": 1
                    },
                    {
                        "number": 64,
                        "time": 181.10191151250012,
                        "value": 0
                    },
                    {
                        "number": 64,
                        "time": 181.23859134791678,
                        "value": 1
                    },
                    {
                        "number": 64,
                        "time": 181.6475012687501,
                        "value": 0
                    },
                    {
                        "number": 64,
                        "time": 181.79434737291675,
                        "value": 1
                    },
                    {
                        "number": 64,
                        "time": 182.17953600000007,
                        "value": 0
                    },
                    {
                        "number": 64,
                        "time": 182.29927205416675,
                        "value": 1
                    },
                    {
                        "number": 64,
                        "time": 183.2808817812501,
                        "value": 0
                    },
                    {
                        "number": 64,
                        "time": 183.39158115208343,
                        "value": 1
                    },
                    {
                        "number": 64,
                        "time": 183.81178692708346,
                        "value": 0
                    },
                    {
                        "number": 64,
                        "time": 183.94168925000014,
                        "value": 1
                    },
                    {
                        "number": 64,
                        "time": 184.90409602500014,
                        "value": 0
                    },
                    {
                        "number": 64,
                        "time": 185.0102770541668,
                        "value": 1
                    },
                    {
                        "number": 64,
                        "time": 185.4406490979168,
                        "value": 0
                    },
                    {
                        "number": 64,
                        "time": 185.5287567604168,
                        "value": 1
                    },
                    {
                        "number": 64,
                        "time": 185.98510926875014,
                        "value": 0
                    },
                    {
                        "number": 64,
                        "time": 186.08677195625015,
                        "value": 1
                    },
                    {
                        "number": 64,
                        "time": 186.52505109791682,
                        "value": 0
                    },
                    {
                        "number": 64,
                        "time": 186.63688005416682,
                        "value": 1
                    },
                    {
                        "number": 64,
                        "time": 187.06612251250016,
                        "value": 0
                    },
                    {
                        "number": 64,
                        "time": 187.1395455645835,
                        "value": 1
                    },
                    {
                        "number": 64,
                        "time": 187.61171226875015,
                        "value": 0
                    },
                    {
                        "number": 64,
                        "time": 187.71337495625016,
                        "value": 1
                    },
                    {
                        "number": 64,
                        "time": 188.1561724395835,
                        "value": 0
                    },
                    {
                        "number": 64,
                        "time": 188.22394756458348,
                        "value": 1
                    },
                    {
                        "number": 64,
                        "time": 188.68594800000014,
                        "value": 0
                    },
                    {
                        "number": 64,
                        "time": 188.7717964916668,
                        "value": 1
                    },
                    {
                        "number": 64,
                        "time": 189.2326673416668,
                        "value": 0
                    },
                    {
                        "number": 64,
                        "time": 189.34223712708345,
                        "value": 1
                    },
                    {
                        "number": 64,
                        "time": 189.7839050250001,
                        "value": 0
                    },
                    {
                        "number": 64,
                        "time": 189.8923452250001,
                        "value": 1
                    },
                    {
                        "number": 64,
                        "time": 190.31706934166675,
                        "value": 0
                    },
                    {
                        "number": 64,
                        "time": 190.4164728583334,
                        "value": 1
                    },
                    {
                        "number": 64,
                        "time": 190.86830702500006,
                        "value": 0
                    },
                    {
                        "number": 64,
                        "time": 190.97448805416673,
                        "value": 1
                    },
                    {
                        "number": 64,
                        "time": 191.40486009791672,
                        "value": 0
                    },
                    {
                        "number": 64,
                        "time": 191.50878195625006,
                        "value": 1
                    },
                    {
                        "number": 64,
                        "time": 191.9436723416667,
                        "value": 0
                    },
                    {
                        "number": 64,
                        "time": 192.05098295625004,
                        "value": 1
                    },
                    {
                        "number": 64,
                        "time": 192.50055795208337,
                        "value": 0
                    },
                    {
                        "number": 64,
                        "time": 192.58527685833337,
                        "value": 1
                    },
                    {
                        "number": 64,
                        "time": 193.03937019583338,
                        "value": 0
                    },
                    {
                        "number": 64,
                        "time": 193.12747785833338,
                        "value": 1
                    },
                    {
                        "number": 64,
                        "time": 193.5702753416667,
                        "value": 0
                    },
                    {
                        "number": 64,
                        "time": 193.70130725000004,
                        "value": 1
                    },
                    {
                        "number": 64,
                        "time": 194.12151302500004,
                        "value": 0
                    },
                    {
                        "number": 64,
                        "time": 194.20397276041672,
                        "value": 1
                    },
                    {
                        "number": 64,
                        "time": 194.65806609791673,
                        "value": 0
                    },
                    {
                        "number": 64,
                        "time": 194.7778021520834,
                        "value": 1
                    },
                    {
                        "number": 64,
                        "time": 195.19574875625008,
                        "value": 0
                    },
                    {
                        "number": 64,
                        "time": 195.28837476041676,
                        "value": 1
                    },
                    {
                        "number": 64,
                        "time": 195.74359768333343,
                        "value": 0
                    },
                    {
                        "number": 64,
                        "time": 195.83848285833344,
                        "value": 1
                    },
                    {
                        "number": 64,
                        "time": 196.29144661041678,
                        "value": 0
                    },
                    {
                        "number": 64,
                        "time": 196.39649805416678,
                        "value": 1
                    },
                    {
                        "number": 64,
                        "time": 196.82348134166676,
                        "value": 0
                    },
                    {
                        "number": 64,
                        "time": 196.91497776041678,
                        "value": 1
                    },
                    {
                        "number": 64,
                        "time": 197.37697819583346,
                        "value": 0
                    },
                    {
                        "number": 64,
                        "time": 197.48880715208347,
                        "value": 1
                    },
                    {
                        "number": 64,
                        "time": 197.91127209791682,
                        "value": 0
                    },
                    {
                        "number": 64,
                        "time": 198.01519395625016,
                        "value": 1
                    },
                    {
                        "number": 64,
                        "time": 198.44895475625015,
                        "value": 0
                    },
                    {
                        "number": 64,
                        "time": 198.5494878583335,
                        "value": 1
                    },
                    {
                        "number": 64,
                        "time": 199.5457821958335,
                        "value": 0
                    },
                    {
                        "number": 64,
                        "time": 199.65761115208352,
                        "value": 1
                    },
                    {
                        "number": 64,
                        "time": 200.0721690000002,
                        "value": 0
                    },
                    {
                        "number": 64,
                        "time": 200.52400316666686,
                        "value": 1
                    },
                    {
                        "number": 64,
                        "time": 201.6987720000002,
                        "value": 0
                    },
                    {
                        "number": 64,
                        "time": 201.78687966250018,
                        "value": 1
                    },
                    {
                        "number": 64,
                        "time": 202.25113926875017,
                        "value": 0
                    },
                    {
                        "number": 64,
                        "time": 202.2771197333335,
                        "value": 1
                    },
                    {
                        "number": 64,
                        "time": 202.79446985416683,
                        "value": 0
                    },
                    {
                        "number": 64,
                        "time": 202.85094912500017,
                        "value": 1
                    },
                    {
                        "number": 64,
                        "time": 203.3321525125002,
                        "value": 0
                    },
                    {
                        "number": 64,
                        "time": 203.6122896958335,
                        "value": 1
                    },
                    {
                        "number": 64,
                        "time": 204.42559119583353,
                        "value": 0
                    },
                    {
                        "number": 64,
                        "time": 204.98360639166688,
                        "value": 1
                    },
                    {
                        "number": 64,
                        "time": 205.50773402500022,
                        "value": 0
                    },
                    {
                        "number": 64,
                        "time": 205.5585653687502,
                        "value": 1
                    },
                    {
                        "number": 64,
                        "time": 206.0510646104169,
                        "value": 0
                    },
                    {
                        "number": 64,
                        "time": 206.11658056458356,
                        "value": 1
                    },
                    {
                        "number": 64,
                        "time": 206.5785810000002,
                        "value": 0
                    },
                    {
                        "number": 64,
                        "time": 209.83178700000025,
                        "value": 1
                    },
                    {
                        "number": 64,
                        "time": 210.1141833541669,
                        "value": 0
                    },
                    {
                        "number": 64,
                        "time": 210.1514596729169,
                        "value": 1
                    },
                    {
                        "number": 64,
                        "time": 210.19325433333356,
                        "value": 0
                    },
                    {
                        "number": 64,
                        "time": 210.3615625604169,
                        "value": 1
                    },
                    {
                        "number": 64,
                        "time": 210.65412518333355,
                        "value": 0
                    },
                    {
                        "number": 64,
                        "time": 210.67671689166687,
                        "value": 1
                    },
                    {
                        "number": 64,
                        "time": 210.71738196666686,
                        "value": 0
                    },
                    {
                        "number": 64,
                        "time": 210.9161890000002,
                        "value": 1
                    },
                    {
                        "number": 64,
                        "time": 211.1974557687502,
                        "value": 0
                    },
                    {
                        "number": 64,
                        "time": 211.21552913541686,
                        "value": 1
                    },
                    {
                        "number": 64,
                        "time": 211.2674900645835,
                        "value": 0
                    },
                    {
                        "number": 64,
                        "time": 211.45839000000018,
                        "value": 1
                    },
                    {
                        "number": 64,
                        "time": 211.74756386666684,
                        "value": 0
                    },
                    {
                        "number": 64,
                        "time": 211.81985733333352,
                        "value": 1
                    },
                    {
                        "number": 64,
                        "time": 212.01527561041686,
                        "value": 0
                    },
                    {
                        "number": 64,
                        "time": 212.2208601562502,
                        "value": 1
                    },
                    {
                        "number": 64,
                        "time": 213.09967761041688,
                        "value": 0
                    },
                    {
                        "number": 64,
                        "time": 213.44646033333353,
                        "value": 1
                    },
                    {
                        "number": 64,
                        "time": 214.7115960000002,
                        "value": 0
                    },
                    {
                        "number": 64,
                        "time": 214.78727822291688,
                        "value": 1
                    },
                    {
                        "number": 64,
                        "time": 215.2617040979169,
                        "value": 0
                    },
                    {
                        "number": 64,
                        "time": 215.33738632083356,
                        "value": 1
                    },
                    {
                        "number": 64,
                        "time": 215.8039050979169,
                        "value": 0
                    },
                    {
                        "number": 64,
                        "time": 215.86038436875023,
                        "value": 1
                    },
                    {
                        "number": 64,
                        "time": 216.3461060979169,
                        "value": 0
                    },
                    {
                        "number": 64,
                        "time": 216.4104924666669,
                        "value": 1
                    },
                    {
                        "number": 64,
                        "time": 216.8916958541669,
                        "value": 0
                    },
                    {
                        "number": 64,
                        "time": 216.96060056458356,
                        "value": 1
                    },
                    {
                        "number": 64,
                        "time": 217.4305080979169,
                        "value": 0
                    },
                    {
                        "number": 64,
                        "time": 217.9693203416669,
                        "value": 1
                    },
                    {
                        "number": 64,
                        "time": 218.5182988541669,
                        "value": 0
                    },
                    {
                        "number": 64,
                        "time": 218.56348227083356,
                        "value": 1
                    },
                    {
                        "number": 64,
                        "time": 219.0571110979169,
                        "value": 0
                    },
                    {
                        "number": 64,
                        "time": 219.1214974666669,
                        "value": 1
                    },
                    {
                        "number": 64,
                        "time": 219.61512629375022,
                        "value": 0
                    },
                    {
                        "number": 64,
                        "time": 219.6874197604169,
                        "value": 1
                    },
                    {
                        "number": 64,
                        "time": 220.1415130979169,
                        "value": 0
                    },
                    {
                        "number": 64,
                        "time": 220.19799236875025,
                        "value": 1
                    },
                    {
                        "number": 64,
                        "time": 220.69613953750024,
                        "value": 0
                    },
                    {
                        "number": 64,
                        "time": 221.22591509791692,
                        "value": 1
                    },
                    {
                        "number": 64,
                        "time": 221.64499128750026,
                        "value": 0
                    },
                    {
                        "number": 64,
                        "time": 221.7760231958336,
                        "value": 1
                    },
                    {
                        "number": 64,
                        "time": 222.2030064833336,
                        "value": 0
                    },
                    {
                        "number": 64,
                        "time": 222.33064963541696,
                        "value": 1
                    },
                    {
                        "number": 64,
                        "time": 222.69324655416696,
                        "value": 0
                    },
                    {
                        "number": 64,
                        "time": 222.86833229375029,
                        "value": 1
                    },
                    {
                        "number": 64,
                        "time": 223.27950138541695,
                        "value": 0
                    },
                    {
                        "number": 64,
                        "time": 223.38681200000028,
                        "value": 1
                    },
                    {
                        "number": 64,
                        "time": 223.79798109166694,
                        "value": 0
                    },
                    {
                        "number": 64,
                        "time": 223.96064139166694,
                        "value": 1
                    },
                    {
                        "number": 64,
                        "time": 224.34808918958362,
                        "value": 0
                    },
                    {
                        "number": 64,
                        "time": 224.4836394395836,
                        "value": 1
                    },
                    {
                        "number": 64,
                        "time": 224.83607008958361,
                        "value": 0
                    },
                    {
                        "number": 64,
                        "time": 225.57481895208363,
                        "value": 1
                    },
                    {
                        "number": 64,
                        "time": 225.9069170645836,
                        "value": 0
                    },
                    {
                        "number": 64,
                        "time": 226.66599846458362,
                        "value": 1
                    },
                    {
                        "number": 64,
                        "time": 227.07264921458363,
                        "value": 0
                    },
                    {
                        "number": 64,
                        "time": 227.22740241666696,
                        "value": 1
                    },
                    {
                        "number": 64,
                        "time": 227.58209223750032,
                        "value": 0
                    },
                    {
                        "number": 64,
                        "time": 229.3747442937503,
                        "value": 1
                    },
                    {
                        "number": 64,
                        "time": 229.76558084791697,
                        "value": 0
                    },
                    {
                        "number": 64,
                        "time": 229.90903819583363,
                        "value": 1
                    },
                    {
                        "number": 64,
                        "time": 230.24452506458363,
                        "value": 0
                    },
                    {
                        "number": 64,
                        "time": 230.42751790208362,
                        "value": 1
                    },
                    {
                        "number": 64,
                        "time": 230.87370414166693,
                        "value": 0
                    },
                    {
                        "number": 64,
                        "time": 230.97762600000027,
                        "value": 1
                    },
                    {
                        "number": 64,
                        "time": 231.39218384791693,
                        "value": 0
                    },
                    {
                        "number": 64,
                        "time": 231.5356411958336,
                        "value": 1
                    },
                    {
                        "number": 64,
                        "time": 231.95019904375025,
                        "value": 0
                    },
                    {
                        "number": 64,
                        "time": 232.08574929375024,
                        "value": 1
                    },
                    {
                        "number": 64,
                        "time": 232.51612133750024,
                        "value": 0
                    },
                    {
                        "number": 64,
                        "time": 232.6358573916669,
                        "value": 1
                    },
                    {
                        "number": 64,
                        "time": 233.15207792708355,
                        "value": 0
                    },
                    {
                        "number": 64,
                        "time": 233.20629802708356,
                        "value": 1
                    },
                    {
                        "number": 64,
                        "time": 233.6999268541669,
                        "value": 0
                    },
                    {
                        "number": 64,
                        "time": 233.77673866250024,
                        "value": 1
                    },
                    {
                        "number": 64,
                        "time": 234.2342207562502,
                        "value": 0
                    },
                    {
                        "number": 64,
                        "time": 234.3901035437502,
                        "value": 1
                    },
                    {
                        "number": 64,
                        "time": 235.6665350645835,
                        "value": 0
                    },
                    {
                        "number": 64,
                        "time": 235.9218213687502,
                        "value": 1
                    },
                    {
                        "number": 64,
                        "time": 236.40980226875018,
                        "value": 0
                    },
                    {
                        "number": 64,
                        "time": 236.4640223687502,
                        "value": 1
                    },
                    {
                        "number": 64,
                        "time": 236.95087368333353,
                        "value": 0
                    },
                    {
                        "number": 64,
                        "time": 237.01751922291686,
                        "value": 1
                    },
                    {
                        "number": 64,
                        "time": 237.49759302500019,
                        "value": 0
                    },
                    {
                        "number": 64,
                        "time": 237.53599892916685,
                        "value": 1
                    },
                    {
                        "number": 64,
                        "time": 238.0352756833335,
                        "value": 0
                    },
                    {
                        "number": 64,
                        "time": 238.09062536875018,
                        "value": 1
                    },
                    {
                        "number": 64,
                        "time": 238.58651336666685,
                        "value": 0
                    },
                    {
                        "number": 64,
                        "time": 238.65202932083352,
                        "value": 1
                    },
                    {
                        "number": 64,
                        "time": 239.13097353750018,
                        "value": 0
                    },
                    {
                        "number": 64,
                        "time": 239.18632322291685,
                        "value": 1
                    },
                    {
                        "number": 64,
                        "time": 239.6630082687502,
                        "value": 0
                    },
                    {
                        "number": 64,
                        "time": 239.72852422291686,
                        "value": 1
                    },
                    {
                        "number": 64,
                        "time": 240.2018205125002,
                        "value": 0
                    },
                    {
                        "number": 64,
                        "time": 240.24700392916688,
                        "value": 1
                    },
                    {
                        "number": 64,
                        "time": 240.7372440000002,
                        "value": 0
                    },
                    {
                        "number": 64,
                        "time": 246.15925400000015,
                        "value": 1
                    },
                    {
                        "number": 64,
                        "time": 247.24817434166678,
                        "value": 0
                    },
                    {
                        "number": 64,
                        "time": 247.63562213958346,
                        "value": 1
                    },
                    {
                        "number": 64,
                        "time": 248.87025900000012,
                        "value": 0
                    }
                ],
                "91": [
                    {
                        "number": 91,
                        "time": 0,
                        "value": 1
                    },
                    {
                        "number": 91,
                        "time": 201.6987720000002,
                        "value": 1
                    }
                ]
            },
            "id": 2,
            "name": "Piano left",
            "instrumentNumber": 0,
            "instrument": "acoustic grand piano",
            "instrumentFamily": "piano",
            "channelNumber": 0,
            "isPercussion": false
        },
        {
            "startTime": 0,
            "duration": 0,
            "length": 0,
            "notes": [],
            "controlChanges": {},
            "id": 3,
            "name": "Schubert: Moment Musicau No.1 in C, Op. 94 - D 780"
        },
        {
            "startTime": 0,
            "duration": 0,
            "length": 0,
            "notes": [],
            "controlChanges": {},
            "id": 4,
            "name": "Copyright  1999 by Bernd Krueger"
        },
        {
            "startTime": 0,
            "duration": 0,
            "length": 0,
            "notes": [],
            "controlChanges": {},
            "id": 5,
            "name": "http://www.piano-midi.de"
        },
        {
            "startTime": 0,
            "duration": 0,
            "length": 0,
            "notes": [],
            "controlChanges": {},
            "id": 6,
            "name": "Edition: 2014-03-16"
        }
    ]
}