{
    "header": {
        "PPQ": 120,
        "timeSignature": [
            4,
            4
        ],
        "bpm": 120,
        "name": "untitled"
    },
    "startTime": 0,
    "duration": 125.86250000000027,
    "tracks": [
        {
            "startTime": 0,
            "duration": 0,
            "length": 0,
            "notes": [],
            "controlChanges": {},
            "id": 0,
            "name": "untitled"
        },
        {
            "startTime": 1.1791666666666667,
            "duration": 125.86250000000027,
            "length": 2322,
            "notes": [
                {
                    "name": "G#2",
                    "midi": 44,
                    "time": 1.1791666666666667,
                    "velocity": 0.47244094488188976,
                    "duration": 1.6500000000000004
                },
                {
                    "name": "D#3",
                    "midi": 51,
                    "time": 1.2041666666666666,
                    "velocity": 0.47244094488188976,
                    "duration": 0.5208333333333335
                },
                {
                    "name": "G#3",
                    "midi": 56,
                    "time": 1.35,
                    "velocity": 0.47244094488188976,
                    "duration": 0.42500000000000004
                },
                {
                    "name": "C4",
                    "midi": 60,
                    "time": 1.5,
                    "velocity": 0.47244094488188976,
                    "duration": 0.32916666666666683
                },
                {
                    "name": "D#4",
                    "midi": 63,
                    "time": 1.6875,
                    "velocity": 0.47244094488188976,
                    "duration": 0.03750000000000009
                },
                {
                    "name": "D#4",
                    "midi": 63,
                    "time": 1.7791666666666668,
                    "velocity": 0.47244094488188976,
                    "duration": 0.3333333333333335
                },
                {
                    "name": "C4",
                    "midi": 60,
                    "time": 1.929166666666667,
                    "velocity": 0.47244094488188976,
                    "duration": 0.32916666666666683
                },
                {
                    "name": "G#3",
                    "midi": 56,
                    "time": 2.0708333333333337,
                    "velocity": 0.47244094488188976,
                    "duration": 0.3291666666666666
                },
                {
                    "name": "D#3",
                    "midi": 51,
                    "time": 2.216666666666667,
                    "velocity": 0.47244094488188976,
                    "duration": 0.06666666666666687
                },
                {
                    "name": "D#3",
                    "midi": 51,
                    "time": 2.3625000000000003,
                    "velocity": 0.47244094488188976,
                    "duration": 0.17500000000000027
                },
                {
                    "name": "G#3",
                    "midi": 56,
                    "time": 2.5000000000000004,
                    "velocity": 0.47244094488188976,
                    "duration": 0.1875
                },
                {
                    "name": "D#3",
                    "midi": 51,
                    "time": 2.645833333333334,
                    "velocity": 0.47244094488188976,
                    "duration": 0.22916666666666652
                },
                {
                    "name": "G3",
                    "midi": 55,
                    "time": 2.791666666666667,
                    "velocity": 0.47244094488188976,
                    "duration": 0.17500000000000027
                },
                {
                    "name": "C4",
                    "midi": 60,
                    "time": 2.929166666666667,
                    "velocity": 0.47244094488188976,
                    "duration": 0.18750000000000044
                },
                {
                    "name": "G#2",
                    "midi": 44,
                    "time": 2.929166666666667,
                    "velocity": 0.47244094488188976,
                    "duration": 1.0375000000000005
                },
                {
                    "name": "D#3",
                    "midi": 51,
                    "time": 2.929166666666667,
                    "velocity": 0.47244094488188976,
                    "duration": 0.475000000000001
                },
                {
                    "name": "G#3",
                    "midi": 56,
                    "time": 3.0791666666666675,
                    "velocity": 0.47244094488188976,
                    "duration": 0.36666666666666714
                },
                {
                    "name": "D#4",
                    "midi": 63,
                    "time": 3.0791666666666675,
                    "velocity": 0.47244094488188976,
                    "duration": 0.22500000000000053
                },
                {
                    "name": "C4",
                    "midi": 60,
                    "time": 3.2166666666666677,
                    "velocity": 0.47244094488188976,
                    "duration": 0.3291666666666666
                },
                {
                    "name": "G#4",
                    "midi": 68,
                    "time": 3.2208333333333345,
                    "velocity": 0.47244094488188976,
                    "duration": 0.32499999999999973
                },
                {
                    "name": "D#4",
                    "midi": 63,
                    "time": 3.4125000000000014,
                    "velocity": 0.47244094488188976,
                    "duration": 0.033333333333333215
                },
                {
                    "name": "C5",
                    "midi": 72,
                    "time": 3.4125000000000014,
                    "velocity": 0.47244094488188976,
                    "duration": 0.033333333333333215
                },
                {
                    "name": "D#4",
                    "midi": 63,
                    "time": 3.5041666666666678,
                    "velocity": 0.47244094488188976,
                    "duration": 0.18333333333333313
                },
                {
                    "name": "C5",
                    "midi": 72,
                    "time": 3.5041666666666678,
                    "velocity": 0.47244094488188976,
                    "duration": 0.32499999999999973
                },
                {
                    "name": "C4",
                    "midi": 60,
                    "time": 3.650000000000001,
                    "velocity": 0.47244094488188976,
                    "duration": 0.1791666666666667
                },
                {
                    "name": "G#4",
                    "midi": 68,
                    "time": 3.6541666666666677,
                    "velocity": 0.47244094488188976,
                    "duration": 0.2749999999999999
                },
                {
                    "name": "G#3",
                    "midi": 56,
                    "time": 3.7916666666666674,
                    "velocity": 0.47244094488188976,
                    "duration": 0.17500000000000027
                },
                {
                    "name": "D#4",
                    "midi": 63,
                    "time": 3.7916666666666674,
                    "velocity": 0.47244094488188976,
                    "duration": 0.17916666666666714
                },
                {
                    "name": "D#3",
                    "midi": 51,
                    "time": 3.9291666666666676,
                    "velocity": 0.47244094488188976,
                    "duration": 0.06250000000000044
                },
                {
                    "name": "C4",
                    "midi": 60,
                    "time": 3.9291666666666676,
                    "velocity": 0.47244094488188976,
                    "duration": 0.06250000000000044
                },
                {
                    "name": "G#2",
                    "midi": 44,
                    "time": 4.075000000000001,
                    "velocity": 0.47244094488188976,
                    "duration": 0.47499999999999964
                },
                {
                    "name": "D#3",
                    "midi": 51,
                    "time": 4.0791666666666675,
                    "velocity": 0.47244094488188976,
                    "duration": 0.18333333333333357
                },
                {
                    "name": "C4",
                    "midi": 60,
                    "time": 4.0791666666666675,
                    "velocity": 0.47244094488188976,
                    "duration": 0.27500000000000036
                },
                {
                    "name": "G#3",
                    "midi": 56,
                    "time": 4.216666666666668,
                    "velocity": 0.47244094488188976,
                    "duration": 0.1875
                },
                {
                    "name": "D#4",
                    "midi": 63,
                    "time": 4.216666666666668,
                    "velocity": 0.47244094488188976,
                    "duration": 0.1875
                },
                {
                    "name": "A#3",
                    "midi": 58,
                    "time": 4.362500000000002,
                    "velocity": 0.47244094488188976,
                    "duration": 0.2791666666666659
                },
                {
                    "name": "D#3",
                    "midi": 51,
                    "time": 4.366666666666668,
                    "velocity": 0.47244094488188976,
                    "duration": 0.22499999999999964
                },
                {
                    "name": "G3",
                    "midi": 55,
                    "time": 4.504166666666667,
                    "velocity": 0.47244094488188976,
                    "duration": 0.1875000000000009
                },
                {
                    "name": "D#4",
                    "midi": 63,
                    "time": 4.504166666666667,
                    "velocity": 0.47244094488188976,
                    "duration": 0.1875000000000009
                },
                {
                    "name": "C4",
                    "midi": 60,
                    "time": 4.650000000000001,
                    "velocity": 0.47244094488188976,
                    "duration": 0.1875
                },
                {
                    "name": "G#2",
                    "midi": 44,
                    "time": 4.650000000000001,
                    "velocity": 0.47244094488188976,
                    "duration": 1.0500000000000007
                },
                {
                    "name": "D#3",
                    "midi": 51,
                    "time": 4.650000000000001,
                    "velocity": 0.47244094488188976,
                    "duration": 0.47500000000000053
                },
                {
                    "name": "G#3",
                    "midi": 56,
                    "time": 4.800000000000002,
                    "velocity": 0.47244094488188976,
                    "duration": 0.3750000000000009
                },
                {
                    "name": "D#4",
                    "midi": 63,
                    "time": 4.800000000000002,
                    "velocity": 0.47244094488188976,
                    "duration": 0.22916666666666696
                },
                {
                    "name": "C4",
                    "midi": 60,
                    "time": 4.941666666666668,
                    "velocity": 0.47244094488188976,
                    "duration": 0.32500000000000107
                },
                {
                    "name": "G#4",
                    "midi": 68,
                    "time": 4.941666666666668,
                    "velocity": 0.47244094488188976,
                    "duration": 0.3333333333333348
                },
                {
                    "name": "D#4",
                    "midi": 63,
                    "time": 5.1333333333333355,
                    "velocity": 0.47244094488188976,
                    "duration": 0.04166666666666696
                },
                {
                    "name": "C5",
                    "midi": 72,
                    "time": 5.1333333333333355,
                    "velocity": 0.47244094488188976,
                    "duration": 0.04166666666666696
                },
                {
                    "name": "D#4",
                    "midi": 63,
                    "time": 5.225000000000002,
                    "velocity": 0.47244094488188976,
                    "duration": 0.1875
                },
                {
                    "name": "C5",
                    "midi": 72,
                    "time": 5.225000000000002,
                    "velocity": 0.47244094488188976,
                    "duration": 0.33749999999999947
                },
                {
                    "name": "C4",
                    "midi": 60,
                    "time": 5.375000000000003,
                    "velocity": 0.47244094488188976,
                    "duration": 0.18333333333333268
                },
                {
                    "name": "G#4",
                    "midi": 68,
                    "time": 5.375000000000003,
                    "velocity": 0.47244094488188976,
                    "duration": 0.2791666666666659
                },
                {
                    "name": "G#3",
                    "midi": 56,
                    "time": 5.516666666666669,
                    "velocity": 0.47244094488188976,
                    "duration": 0.18333333333333268
                },
                {
                    "name": "D#4",
                    "midi": 63,
                    "time": 5.520833333333336,
                    "velocity": 0.47244094488188976,
                    "duration": 0.17916666666666625
                },
                {
                    "name": "D#3",
                    "midi": 51,
                    "time": 5.666666666666669,
                    "velocity": 0.47244094488188976,
                    "duration": 0.033333333333333215
                },
                {
                    "name": "C4",
                    "midi": 60,
                    "time": 5.666666666666669,
                    "velocity": 0.47244094488188976,
                    "duration": 0.033333333333333215
                },
                {
                    "name": "C4",
                    "midi": 60,
                    "time": 5.812500000000003,
                    "velocity": 0.47244094488188976,
                    "duration": 0.27499999999999947
                },
                {
                    "name": "G#2",
                    "midi": 44,
                    "time": 5.812500000000003,
                    "velocity": 0.47244094488188976,
                    "duration": 0.4624999999999986
                },
                {
                    "name": "D#3",
                    "midi": 51,
                    "time": 5.812500000000003,
                    "velocity": 0.47244094488188976,
                    "duration": 0.17499999999999982
                },
                {
                    "name": "G#3",
                    "midi": 56,
                    "time": 5.945833333333336,
                    "velocity": 0.47244094488188976,
                    "duration": 0.1874999999999991
                },
                {
                    "name": "D#4",
                    "midi": 63,
                    "time": 5.950000000000003,
                    "velocity": 0.47244094488188976,
                    "duration": 0.1874999999999991
                },
                {
                    "name": "D#3",
                    "midi": 51,
                    "time": 6.091666666666669,
                    "velocity": 0.47244094488188976,
                    "duration": 0.27499999999999947
                },
                {
                    "name": "A#3",
                    "midi": 58,
                    "time": 6.091666666666669,
                    "velocity": 0.47244094488188976,
                    "duration": 0.27499999999999947
                },
                {
                    "name": "G3",
                    "midi": 55,
                    "time": 6.237500000000002,
                    "velocity": 0.47244094488188976,
                    "duration": 0.17499999999999982
                },
                {
                    "name": "D#4",
                    "midi": 63,
                    "time": 6.237500000000002,
                    "velocity": 0.47244094488188976,
                    "duration": 0.17916666666666625
                },
                {
                    "name": "C5",
                    "midi": 72,
                    "time": 6.375000000000002,
                    "velocity": 0.6692913385826772,
                    "duration": 0.1874999999999991
                },
                {
                    "name": "G#2",
                    "midi": 44,
                    "time": 6.379166666666668,
                    "velocity": 0.47244094488188976,
                    "duration": 1.0458333333333307
                },
                {
                    "name": "C4",
                    "midi": 60,
                    "time": 6.379166666666668,
                    "velocity": 0.47244094488188976,
                    "duration": 0.037499999999999645
                },
                {
                    "name": "D#3",
                    "midi": 51,
                    "time": 6.529166666666668,
                    "velocity": 0.47244094488188976,
                    "duration": 0.4249999999999998
                },
                {
                    "name": "C4",
                    "midi": 60,
                    "time": 6.529166666666668,
                    "velocity": 0.47244094488188976,
                    "duration": 0.3291666666666666
                },
                {
                    "name": "G#3",
                    "midi": 56,
                    "time": 6.666666666666668,
                    "velocity": 0.47244094488188976,
                    "duration": 0.33749999999999947
                },
                {
                    "name": "D#4",
                    "midi": 63,
                    "time": 6.670833333333334,
                    "velocity": 0.47244094488188976,
                    "duration": 0.13750000000000018
                },
                {
                    "name": "C5",
                    "midi": 72,
                    "time": 6.670833333333334,
                    "velocity": 0.6692913385826772,
                    "duration": 0.13333333333333375
                },
                {
                    "name": "D#4",
                    "midi": 63,
                    "time": 6.8916666666666675,
                    "velocity": 0.47244094488188976,
                    "duration": 0.11249999999999982
                },
                {
                    "name": "C5",
                    "midi": 72,
                    "time": 6.8916666666666675,
                    "velocity": 0.6692913385826772,
                    "duration": 0.11249999999999982
                },
                {
                    "name": "C4",
                    "midi": 60,
                    "time": 6.958333333333334,
                    "velocity": 0.47244094488188976,
                    "duration": 0.3291666666666657
                },
                {
                    "name": "G#4",
                    "midi": 68,
                    "time": 6.958333333333334,
                    "velocity": 0.47244094488188976,
                    "duration": 0.3291666666666657
                },
                {
                    "name": "D#5",
                    "midi": 75,
                    "time": 6.987500000000001,
                    "velocity": 0.6692913385826772,
                    "duration": 0.44166666666666465
                },
                {
                    "name": "G#3",
                    "midi": 56,
                    "time": 7.104166666666667,
                    "velocity": 0.47244094488188976,
                    "duration": 0.037499999999999645
                },
                {
                    "name": "D#4",
                    "midi": 63,
                    "time": 7.104166666666667,
                    "velocity": 0.47244094488188976,
                    "duration": 0.037499999999999645
                },
                {
                    "name": "G#3",
                    "midi": 56,
                    "time": 7.241666666666666,
                    "velocity": 0.47244094488188976,
                    "duration": 0.18333333333333268
                },
                {
                    "name": "D#4",
                    "midi": 63,
                    "time": 7.25,
                    "velocity": 0.47244094488188976,
                    "duration": 0.17916666666666536
                },
                {
                    "name": "G#4",
                    "midi": 68,
                    "time": 7.387499999999999,
                    "velocity": 0.6692913385826772,
                    "duration": 0.041666666666666075
                },
                {
                    "name": "D#3",
                    "midi": 51,
                    "time": 7.387499999999999,
                    "velocity": 0.47244094488188976,
                    "duration": 0.037499999999999645
                },
                {
                    "name": "C4",
                    "midi": 60,
                    "time": 7.387499999999999,
                    "velocity": 0.47244094488188976,
                    "duration": 0.037499999999999645
                },
                {
                    "name": "C4",
                    "midi": 60,
                    "time": 7.533333333333331,
                    "velocity": 0.47244094488188976,
                    "duration": 0.2833333333333332
                },
                {
                    "name": "G#4",
                    "midi": 68,
                    "time": 7.537499999999998,
                    "velocity": 0.6692913385826772,
                    "duration": 0.3249999999999993
                },
                {
                    "name": "G#2",
                    "midi": 44,
                    "time": 7.537499999999998,
                    "velocity": 0.47244094488188976,
                    "duration": 0.466666666666665
                },
                {
                    "name": "D#3",
                    "midi": 51,
                    "time": 7.537499999999998,
                    "velocity": 0.47244094488188976,
                    "duration": 0.18333333333333357
                },
                {
                    "name": "G#3",
                    "midi": 56,
                    "time": 7.674999999999998,
                    "velocity": 0.47244094488188976,
                    "duration": 0.1874999999999991
                },
                {
                    "name": "D#4",
                    "midi": 63,
                    "time": 7.6791666666666645,
                    "velocity": 0.47244094488188976,
                    "duration": 0.18333333333333268
                },
                {
                    "name": "A#3",
                    "midi": 58,
                    "time": 7.820833333333331,
                    "velocity": 0.47244094488188976,
                    "duration": 0.279166666666665
                },
                {
                    "name": "D#3",
                    "midi": 51,
                    "time": 7.8249999999999975,
                    "velocity": 0.47244094488188976,
                    "duration": 0.22916666666666607
                },
                {
                    "name": "A#4",
                    "midi": 70,
                    "time": 7.8249999999999975,
                    "velocity": 0.6692913385826772,
                    "duration": 0.3249999999999975
                },
                {
                    "name": "G3",
                    "midi": 55,
                    "time": 7.962499999999997,
                    "velocity": 0.47244094488188976,
                    "duration": 0.1833333333333318
                },
                {
                    "name": "D#4",
                    "midi": 63,
                    "time": 7.962499999999997,
                    "velocity": 0.47244094488188976,
                    "duration": 0.1833333333333318
                },
                {
                    "name": "G#2",
                    "midi": 44,
                    "time": 8.104166666666663,
                    "velocity": 0.47244094488188976,
                    "duration": 1.0458333333333272
                },
                {
                    "name": "D#3",
                    "midi": 51,
                    "time": 8.104166666666663,
                    "velocity": 0.47244094488188976,
                    "duration": 0.48333333333333073
                },
                {
                    "name": "C4",
                    "midi": 60,
                    "time": 8.104166666666663,
                    "velocity": 0.47244094488188976,
                    "duration": 0.19166666666666465
                },
                {
                    "name": "C5",
                    "midi": 72,
                    "time": 8.104166666666663,
                    "velocity": 0.6692913385826772,
                    "duration": 0.3833333333333311
                },
                {
                    "name": "D#4",
                    "midi": 63,
                    "time": 8.254166666666661,
                    "velocity": 0.47244094488188976,
                    "duration": 0.2333333333333325
                },
                {
                    "name": "G#3",
                    "midi": 56,
                    "time": 8.258333333333328,
                    "velocity": 0.47244094488188976,
                    "duration": 0.3708333333333318
                },
                {
                    "name": "C4",
                    "midi": 60,
                    "time": 8.399999999999993,
                    "velocity": 0.47244094488188976,
                    "duration": 0.3249999999999993
                },
                {
                    "name": "G#4",
                    "midi": 68,
                    "time": 8.399999999999993,
                    "velocity": 0.47244094488188976,
                    "duration": 0.22916666666666607
                },
                {
                    "name": "D#4",
                    "midi": 63,
                    "time": 8.587499999999993,
                    "velocity": 0.47244094488188976,
                    "duration": 0.041666666666666075
                },
                {
                    "name": "C5",
                    "midi": 72,
                    "time": 8.587499999999993,
                    "velocity": 0.47244094488188976,
                    "duration": 0.041666666666666075
                },
                {
                    "name": "D#4",
                    "midi": 63,
                    "time": 8.683333333333326,
                    "velocity": 0.47244094488188976,
                    "duration": 0.1833333333333318
                },
                {
                    "name": "C5",
                    "midi": 72,
                    "time": 8.683333333333326,
                    "velocity": 0.47244094488188976,
                    "duration": 0.32916666666666394
                },
                {
                    "name": "G#4",
                    "midi": 68,
                    "time": 8.687499999999993,
                    "velocity": 0.47244094488188976,
                    "duration": 0.037499999999999645
                },
                {
                    "name": "C4",
                    "midi": 60,
                    "time": 8.829166666666659,
                    "velocity": 0.47244094488188976,
                    "duration": 0.1833333333333318
                },
                {
                    "name": "G#4",
                    "midi": 68,
                    "time": 8.829166666666659,
                    "velocity": 0.47244094488188976,
                    "duration": 0.27083333333333215
                },
                {
                    "name": "G#3",
                    "midi": 56,
                    "time": 8.970833333333324,
                    "velocity": 0.47244094488188976,
                    "duration": 0.1708333333333325
                },
                {
                    "name": "D#4",
                    "midi": 63,
                    "time": 8.970833333333324,
                    "velocity": 0.47244094488188976,
                    "duration": 0.17916666666666536
                },
                {
                    "name": "D#3",
                    "midi": 51,
                    "time": 9.11249999999999,
                    "velocity": 0.47244094488188976,
                    "duration": 0.037499999999999645
                },
                {
                    "name": "C4",
                    "midi": 60,
                    "time": 9.11249999999999,
                    "velocity": 0.47244094488188976,
                    "duration": 0.037499999999999645
                },
                {
                    "name": "G#2",
                    "midi": 44,
                    "time": 9.24999999999999,
                    "velocity": 0.47244094488188976,
                    "duration": 0.4749999999999961
                },
                {
                    "name": "D#3",
                    "midi": 51,
                    "time": 9.24999999999999,
                    "velocity": 0.47244094488188976,
                    "duration": 0.1833333333333318
                },
                {
                    "name": "C4",
                    "midi": 60,
                    "time": 9.24999999999999,
                    "velocity": 0.47244094488188976,
                    "duration": 0.1833333333333318
                },
                {
                    "name": "G#4",
                    "midi": 68,
                    "time": 9.24999999999999,
                    "velocity": 0.6692913385826772,
                    "duration": 0.1833333333333318
                },
                {
                    "name": "G#3",
                    "midi": 56,
                    "time": 9.387499999999989,
                    "velocity": 0.47244094488188976,
                    "duration": 0.18749999999999822
                },
                {
                    "name": "D#4",
                    "midi": 63,
                    "time": 9.387499999999989,
                    "velocity": 0.47244094488188976,
                    "duration": 0.18749999999999822
                },
                {
                    "name": "G#4",
                    "midi": 68,
                    "time": 9.541666666666654,
                    "velocity": 0.6692913385826772,
                    "duration": 0.033333333333333215
                },
                {
                    "name": "D#3",
                    "midi": 51,
                    "time": 9.541666666666654,
                    "velocity": 0.47244094488188976,
                    "duration": 0.279166666666665
                },
                {
                    "name": "C4",
                    "midi": 60,
                    "time": 9.541666666666654,
                    "velocity": 0.47244094488188976,
                    "duration": 0.033333333333333215
                },
                {
                    "name": "C4",
                    "midi": 60,
                    "time": 9.68333333333332,
                    "velocity": 0.47244094488188976,
                    "duration": 0.18333333333333357
                },
                {
                    "name": "G#4",
                    "midi": 68,
                    "time": 9.687499999999986,
                    "velocity": 0.6692913385826772,
                    "duration": 0.17916666666666714
                },
                {
                    "name": "G#3",
                    "midi": 56,
                    "time": 9.824999999999985,
                    "velocity": 0.47244094488188976,
                    "duration": 0.4666666666666668
                },
                {
                    "name": "F4",
                    "midi": 65,
                    "time": 9.824999999999985,
                    "velocity": 0.6692913385826772,
                    "duration": 0.17916666666666714
                },
                {
                    "name": "C#3",
                    "midi": 49,
                    "time": 9.829166666666652,
                    "velocity": 0.47244094488188976,
                    "duration": 1.61666666666666
                },
                {
                    "name": "F5",
                    "midi": 77,
                    "time": 9.849999999999985,
                    "velocity": 0.6692913385826772,
                    "duration": 0.34999999999999964
                },
                {
                    "name": "C#4",
                    "midi": 61,
                    "time": 9.966666666666653,
                    "velocity": 0.47244094488188976,
                    "duration": 0.3749999999999982
                },
                {
                    "name": "G#4",
                    "midi": 68,
                    "time": 9.966666666666653,
                    "velocity": 0.47244094488188976,
                    "duration": 0.22916666666666607
                },
                {
                    "name": "F4",
                    "midi": 65,
                    "time": 10.104166666666652,
                    "velocity": 0.47244094488188976,
                    "duration": 0.33333333333333215
                },
                {
                    "name": "C#5",
                    "midi": 73,
                    "time": 10.104166666666652,
                    "velocity": 0.47244094488188976,
                    "duration": 0.33333333333333215
                },
                {
                    "name": "F5",
                    "midi": 77,
                    "time": 10.299999999999985,
                    "velocity": 0.6692913385826772,
                    "duration": 0.045833333333332504
                },
                {
                    "name": "G#4",
                    "midi": 68,
                    "time": 10.304166666666651,
                    "velocity": 0.6692913385826772,
                    "duration": 0.041666666666666075
                },
                {
                    "name": "F5",
                    "midi": 77,
                    "time": 10.395833333333318,
                    "velocity": 0.6692913385826772,
                    "duration": 0.32916666666666394
                },
                {
                    "name": "G#4",
                    "midi": 68,
                    "time": 10.399999999999984,
                    "velocity": 0.6692913385826772,
                    "duration": 0.1833333333333318
                },
                {
                    "name": "G#3",
                    "midi": 56,
                    "time": 10.537499999999984,
                    "velocity": 0.47244094488188976,
                    "duration": 0.1833333333333318
                },
                {
                    "name": "F4",
                    "midi": 65,
                    "time": 10.54166666666665,
                    "velocity": 0.47244094488188976,
                    "duration": 0.1833333333333318
                },
                {
                    "name": "G4",
                    "midi": 67,
                    "time": 10.687499999999982,
                    "velocity": 0.6692913385826772,
                    "duration": 0.17916666666666536
                },
                {
                    "name": "D#5",
                    "midi": 75,
                    "time": 10.687499999999982,
                    "velocity": 0.6692913385826772,
                    "duration": 0.32916666666666394
                },
                {
                    "name": "G#3",
                    "midi": 56,
                    "time": 10.829166666666648,
                    "velocity": 0.47244094488188976,
                    "duration": 0.18749999999999822
                },
                {
                    "name": "F4",
                    "midi": 65,
                    "time": 10.829166666666648,
                    "velocity": 0.47244094488188976,
                    "duration": 0.037499999999999645
                },
                {
                    "name": "F4",
                    "midi": 65,
                    "time": 10.97499999999998,
                    "velocity": 0.6692913385826772,
                    "duration": 0.041666666666666075
                },
                {
                    "name": "C#5",
                    "midi": 73,
                    "time": 10.97499999999998,
                    "velocity": 0.6692913385826772,
                    "duration": 0.3249999999999993
                },
                {
                    "name": "G#3",
                    "midi": 56,
                    "time": 11.116666666666646,
                    "velocity": 0.47244094488188976,
                    "duration": 0.18333333333333357
                },
                {
                    "name": "F4",
                    "midi": 65,
                    "time": 11.116666666666646,
                    "velocity": 0.47244094488188976,
                    "duration": 0.1875
                },
                {
                    "name": "D#4",
                    "midi": 63,
                    "time": 11.266666666666646,
                    "velocity": 0.47244094488188976,
                    "duration": 0.17916666666666536
                },
                {
                    "name": "C5",
                    "midi": 72,
                    "time": 11.266666666666646,
                    "velocity": 0.6692913385826772,
                    "duration": 0.3249999999999975
                },
                {
                    "name": "G#3",
                    "midi": 56,
                    "time": 11.408333333333312,
                    "velocity": 0.47244094488188976,
                    "duration": 0.037499999999999645
                },
                {
                    "name": "F4",
                    "midi": 65,
                    "time": 11.408333333333312,
                    "velocity": 0.47244094488188976,
                    "duration": 0.1833333333333318
                },
                {
                    "name": "G#3",
                    "midi": 56,
                    "time": 11.549999999999978,
                    "velocity": 0.47244094488188976,
                    "duration": 0.4666666666666668
                },
                {
                    "name": "A#4",
                    "midi": 70,
                    "time": 11.549999999999978,
                    "velocity": 0.6692913385826772,
                    "duration": 1.049999999999999
                },
                {
                    "name": "C#3",
                    "midi": 49,
                    "time": 11.554166666666644,
                    "velocity": 0.47244094488188976,
                    "duration": 1.0458333333333325
                },
                {
                    "name": "C#4",
                    "midi": 61,
                    "time": 11.69583333333331,
                    "velocity": 0.47244094488188976,
                    "duration": 0.375
                },
                {
                    "name": "E4",
                    "midi": 64,
                    "time": 11.837499999999977,
                    "velocity": 0.47244094488188976,
                    "duration": 0.3249999999999993
                },
                {
                    "name": "G#4",
                    "midi": 68,
                    "time": 12.029166666666644,
                    "velocity": 0.47244094488188976,
                    "duration": 0.041666666666666075
                },
                {
                    "name": "G#4",
                    "midi": 68,
                    "time": 12.124999999999977,
                    "velocity": 0.47244094488188976,
                    "duration": 0.37916666666666643
                },
                {
                    "name": "E4",
                    "midi": 64,
                    "time": 12.266666666666643,
                    "velocity": 0.47244094488188976,
                    "duration": 0.3333333333333339
                },
                {
                    "name": "C#4",
                    "midi": 61,
                    "time": 12.416666666666643,
                    "velocity": 0.47244094488188976,
                    "duration": 0.27500000000000036
                },
                {
                    "name": "G#3",
                    "midi": 56,
                    "time": 12.554166666666644,
                    "velocity": 0.47244094488188976,
                    "duration": 0.1833333333333318
                },
                {
                    "name": "G3",
                    "midi": 55,
                    "time": 12.699999999999976,
                    "velocity": 0.47244094488188976,
                    "duration": 0.279166666666665
                },
                {
                    "name": "A#4",
                    "midi": 70,
                    "time": 12.699999999999976,
                    "velocity": 0.6692913385826772,
                    "duration": 0.32916666666666394
                },
                {
                    "name": "C#3",
                    "midi": 49,
                    "time": 12.699999999999976,
                    "velocity": 0.47244094488188976,
                    "duration": 0.5749999999999975
                },
                {
                    "name": "D#4",
                    "midi": 63,
                    "time": 12.699999999999976,
                    "velocity": 0.47244094488188976,
                    "duration": 0.18749999999999822
                },
                {
                    "name": "A#3",
                    "midi": 58,
                    "time": 12.841666666666642,
                    "velocity": 0.47244094488188976,
                    "duration": 0.1833333333333318
                },
                {
                    "name": "D#4",
                    "midi": 63,
                    "time": 12.987499999999974,
                    "velocity": 0.47244094488188976,
                    "duration": 0.041666666666666075
                },
                {
                    "name": "G4",
                    "midi": 67,
                    "time": 12.987499999999974,
                    "velocity": 0.6692913385826772,
                    "duration": 0.1875
                },
                {
                    "name": "D#4",
                    "midi": 63,
                    "time": 13.133333333333308,
                    "velocity": 0.47244094488188976,
                    "duration": 0.041666666666666075
                },
                {
                    "name": "D#4",
                    "midi": 63,
                    "time": 13.27916666666664,
                    "velocity": 0.47244094488188976,
                    "duration": 0.17916666666666536
                },
                {
                    "name": "G#4",
                    "midi": 68,
                    "time": 13.27916666666664,
                    "velocity": 0.6692913385826772,
                    "duration": 0.3249999999999975
                },
                {
                    "name": "C3",
                    "midi": 48,
                    "time": 13.27916666666664,
                    "velocity": 0.47244094488188976,
                    "duration": 0.47499999999999787
                },
                {
                    "name": "G#3",
                    "midi": 56,
                    "time": 13.27916666666664,
                    "velocity": 0.47244094488188976,
                    "duration": 0.17916666666666536
                },
                {
                    "name": "C4",
                    "midi": 60,
                    "time": 13.27916666666664,
                    "velocity": 0.47244094488188976,
                    "duration": 0.037499999999999645
                },
                {
                    "name": "D#3",
                    "midi": 51,
                    "time": 13.420833333333306,
                    "velocity": 0.47244094488188976,
                    "duration": 0.37916666666666465
                },
                {
                    "name": "C4",
                    "midi": 60,
                    "time": 13.420833333333306,
                    "velocity": 0.47244094488188976,
                    "duration": 0.2333333333333325
                },
                {
                    "name": "G#3",
                    "midi": 56,
                    "time": 13.566666666666638,
                    "velocity": 0.47244094488188976,
                    "duration": 0.3291666666666657
                },
                {
                    "name": "D#4",
                    "midi": 63,
                    "time": 13.566666666666638,
                    "velocity": 0.47244094488188976,
                    "duration": 0.3291666666666657
                },
                {
                    "name": "C4",
                    "midi": 60,
                    "time": 13.76249999999997,
                    "velocity": 0.47244094488188976,
                    "duration": 0.037499999999999645
                },
                {
                    "name": "G#4",
                    "midi": 68,
                    "time": 13.766666666666637,
                    "velocity": 0.47244094488188976,
                    "duration": 0.033333333333333215
                },
                {
                    "name": "C4",
                    "midi": 60,
                    "time": 13.858333333333304,
                    "velocity": 0.47244094488188976,
                    "duration": 0.1833333333333318
                },
                {
                    "name": "G#4",
                    "midi": 68,
                    "time": 13.858333333333304,
                    "velocity": 0.47244094488188976,
                    "duration": 0.1833333333333318
                },
                {
                    "name": "G#3",
                    "midi": 56,
                    "time": 13.99999999999997,
                    "velocity": 0.47244094488188976,
                    "duration": 0.1833333333333318
                },
                {
                    "name": "D#4",
                    "midi": 63,
                    "time": 14.004166666666636,
                    "velocity": 0.47244094488188976,
                    "duration": 0.279166666666665
                },
                {
                    "name": "D#3",
                    "midi": 51,
                    "time": 14.145833333333302,
                    "velocity": 0.47244094488188976,
                    "duration": 0.2291666666666643
                },
                {
                    "name": "C4",
                    "midi": 60,
                    "time": 14.145833333333302,
                    "velocity": 0.47244094488188976,
                    "duration": 0.1833333333333318
                },
                {
                    "name": "G#4",
                    "midi": 68,
                    "time": 14.149999999999968,
                    "velocity": 0.6692913385826772,
                    "duration": 0.3249999999999975
                },
                {
                    "name": "C3",
                    "midi": 48,
                    "time": 14.291666666666634,
                    "velocity": 0.47244094488188976,
                    "duration": 0.1833333333333318
                },
                {
                    "name": "G#3",
                    "midi": 56,
                    "time": 14.291666666666634,
                    "velocity": 0.47244094488188976,
                    "duration": 0.13333333333333286
                },
                {
                    "name": "A#2",
                    "midi": 46,
                    "time": 14.4333333333333,
                    "velocity": 0.47244094488188976,
                    "duration": 0.47083333333333144
                },
                {
                    "name": "D#4",
                    "midi": 63,
                    "time": 14.4333333333333,
                    "velocity": 0.47244094488188976,
                    "duration": 0.1833333333333318
                },
                {
                    "name": "G4",
                    "midi": 67,
                    "time": 14.4333333333333,
                    "velocity": 0.6692913385826772,
                    "duration": 0.1833333333333318
                },
                {
                    "name": "C#5",
                    "midi": 73,
                    "time": 14.4333333333333,
                    "velocity": 0.6692913385826772,
                    "duration": 0.3208333333333311
                },
                {
                    "name": "C#4",
                    "midi": 61,
                    "time": 14.579166666666632,
                    "velocity": 0.47244094488188976,
                    "duration": 0.037499999999999645
                },
                {
                    "name": "D#3",
                    "midi": 51,
                    "time": 14.579166666666632,
                    "velocity": 0.47244094488188976,
                    "duration": 0.17916666666666536
                },
                {
                    "name": "G3",
                    "midi": 55,
                    "time": 14.579166666666632,
                    "velocity": 0.47244094488188976,
                    "duration": 0.17916666666666536
                },
                {
                    "name": "C#4",
                    "midi": 61,
                    "time": 14.716666666666631,
                    "velocity": 0.47244094488188976,
                    "duration": 0.08750000000000036
                },
                {
                    "name": "D#4",
                    "midi": 63,
                    "time": 14.716666666666631,
                    "velocity": 0.47244094488188976,
                    "duration": 0.08750000000000036
                },
                {
                    "name": "G4",
                    "midi": 67,
                    "time": 14.716666666666631,
                    "velocity": 0.47244094488188976,
                    "duration": 0.09166666666666679
                },
                {
                    "name": "C#5",
                    "midi": 73,
                    "time": 14.862499999999965,
                    "velocity": 0.6692913385826772,
                    "duration": 0.037499999999999645
                },
                {
                    "name": "C#5",
                    "midi": 73,
                    "time": 15.004166666666631,
                    "velocity": 0.6692913385826772,
                    "duration": 0.6124999999999972
                },
                {
                    "name": "G#2",
                    "midi": 44,
                    "time": 15.008333333333297,
                    "velocity": 0.47244094488188976,
                    "duration": 0.4166666666666661
                },
                {
                    "name": "C#4",
                    "midi": 61,
                    "time": 15.149999999999965,
                    "velocity": 0.47244094488188976,
                    "duration": 0.1833333333333318
                },
                {
                    "name": "D#3",
                    "midi": 51,
                    "time": 15.154166666666631,
                    "velocity": 0.47244094488188976,
                    "duration": 0.3208333333333311
                },
                {
                    "name": "G3",
                    "midi": 55,
                    "time": 15.29166666666663,
                    "velocity": 0.47244094488188976,
                    "duration": 0.2333333333333325
                },
                {
                    "name": "D#4",
                    "midi": 63,
                    "time": 15.29166666666663,
                    "velocity": 0.47244094488188976,
                    "duration": 0.1833333333333318
                },
                {
                    "name": "C#4",
                    "midi": 61,
                    "time": 15.437499999999963,
                    "velocity": 0.47244094488188976,
                    "duration": 0.13333333333333286
                },
                {
                    "name": "G4",
                    "midi": 67,
                    "time": 15.437499999999963,
                    "velocity": 0.47244094488188976,
                    "duration": 0.1833333333333318
                },
                {
                    "name": "G#3",
                    "midi": 56,
                    "time": 15.579166666666628,
                    "velocity": 0.47244094488188976,
                    "duration": 0.3249999999999975
                },
                {
                    "name": "C5",
                    "midi": 72,
                    "time": 15.579166666666628,
                    "velocity": 0.6692913385826772,
                    "duration": 0.18749999999999822
                },
                {
                    "name": "D#4",
                    "midi": 63,
                    "time": 15.720833333333294,
                    "velocity": 0.47244094488188976,
                    "duration": 0.045833333333332504
                },
                {
                    "name": "G#4",
                    "midi": 68,
                    "time": 15.720833333333294,
                    "velocity": 0.47244094488188976,
                    "duration": 0.045833333333332504
                },
                {
                    "name": "C5",
                    "midi": 72,
                    "time": 15.866666666666626,
                    "velocity": 0.6692913385826772,
                    "duration": 0.3250000000000046
                },
                {
                    "name": "C4",
                    "midi": 60,
                    "time": 15.866666666666626,
                    "velocity": 0.47244094488188976,
                    "duration": 0.041666666666666075
                },
                {
                    "name": "D#4",
                    "midi": 63,
                    "time": 15.866666666666626,
                    "velocity": 0.47244094488188976,
                    "duration": 0.18333333333333535
                },
                {
                    "name": "G#4",
                    "midi": 68,
                    "time": 15.870833333333293,
                    "velocity": 0.6692913385826772,
                    "duration": 0.17916666666666892
                },
                {
                    "name": "G#3",
                    "midi": 56,
                    "time": 16.008333333333294,
                    "velocity": 0.47244094488188976,
                    "duration": 0.1791666666666707
                },
                {
                    "name": "C4",
                    "midi": 60,
                    "time": 16.008333333333294,
                    "velocity": 0.47244094488188976,
                    "duration": 0.04166666666666785
                },
                {
                    "name": "D#5",
                    "midi": 75,
                    "time": 16.149999999999963,
                    "velocity": 0.6692913385826772,
                    "duration": 0.4750000000000085
                },
                {
                    "name": "C4",
                    "midi": 60,
                    "time": 16.149999999999963,
                    "velocity": 0.47244094488188976,
                    "duration": 0.28333333333333854
                },
                {
                    "name": "G#4",
                    "midi": 68,
                    "time": 16.149999999999963,
                    "velocity": 0.6692913385826772,
                    "duration": 0.18750000000000355
                },
                {
                    "name": "F#3",
                    "midi": 54,
                    "time": 16.15416666666663,
                    "velocity": 0.47244094488188976,
                    "duration": 0.5708333333333435
                },
                {
                    "name": "D#4",
                    "midi": 63,
                    "time": 16.299999999999965,
                    "velocity": 0.47244094488188976,
                    "duration": 0.17500000000000426
                },
                {
                    "name": "G#4",
                    "midi": 68,
                    "time": 16.441666666666634,
                    "velocity": 0.47244094488188976,
                    "duration": 0.03750000000000142
                },
                {
                    "name": "G#4",
                    "midi": 68,
                    "time": 16.58749999999997,
                    "velocity": 0.6692913385826772,
                    "duration": 0.04166666666666785
                },
                {
                    "name": "F3",
                    "midi": 53,
                    "time": 16.72916666666664,
                    "velocity": 0.47244094488188976,
                    "duration": 0.4208333333333343
                },
                {
                    "name": "C#4",
                    "midi": 61,
                    "time": 16.72916666666664,
                    "velocity": 0.47244094488188976,
                    "duration": 0.18333333333333357
                },
                {
                    "name": "F4",
                    "midi": 65,
                    "time": 16.72916666666664,
                    "velocity": 0.47244094488188976,
                    "duration": 0.04583333333333073
                },
                {
                    "name": "G#4",
                    "midi": 68,
                    "time": 16.758333333333304,
                    "velocity": 0.6692913385826772,
                    "duration": 0.15416666666666856
                },
                {
                    "name": "C#5",
                    "midi": 73,
                    "time": 16.77499999999997,
                    "velocity": 0.6692913385826772,
                    "duration": 0.32500000000000284
                },
                {
                    "name": "G#3",
                    "midi": 56,
                    "time": 16.870833333333305,
                    "velocity": 0.47244094488188976,
                    "duration": 0.32500000000000284
                },
                {
                    "name": "F4",
                    "midi": 65,
                    "time": 16.870833333333305,
                    "velocity": 0.47244094488188976,
                    "duration": 0.23333333333333428
                },
                {
                    "name": "C#4",
                    "midi": 61,
                    "time": 17.01666666666664,
                    "velocity": 0.47244094488188976,
                    "duration": 0.23333333333333428
                },
                {
                    "name": "G#4",
                    "midi": 68,
                    "time": 17.020833333333307,
                    "velocity": 0.47244094488188976,
                    "duration": 0.22916666666666785
                },
                {
                    "name": "F4",
                    "midi": 65,
                    "time": 17.208333333333307,
                    "velocity": 0.47244094488188976,
                    "duration": 0.04166666666666785
                },
                {
                    "name": "C#5",
                    "midi": 73,
                    "time": 17.208333333333307,
                    "velocity": 0.47244094488188976,
                    "duration": 0.04166666666666785
                },
                {
                    "name": "C#5",
                    "midi": 73,
                    "time": 17.299999999999976,
                    "velocity": 0.47244094488188976,
                    "duration": 0.17916666666666714
                },
                {
                    "name": "F4",
                    "midi": 65,
                    "time": 17.304166666666642,
                    "velocity": 0.47244094488188976,
                    "duration": 0.17916666666666714
                },
                {
                    "name": "C#4",
                    "midi": 61,
                    "time": 17.44166666666664,
                    "velocity": 0.47244094488188976,
                    "duration": 0.18333333333333712
                },
                {
                    "name": "G#4",
                    "midi": 68,
                    "time": 17.44166666666664,
                    "velocity": 0.47244094488188976,
                    "duration": 0.283333333333335
                },
                {
                    "name": "G#3",
                    "midi": 56,
                    "time": 17.591666666666644,
                    "velocity": 0.47244094488188976,
                    "duration": 0.18333333333333357
                },
                {
                    "name": "F4",
                    "midi": 65,
                    "time": 17.591666666666644,
                    "velocity": 0.6692913385826772,
                    "duration": 0.22916666666666785
                },
                {
                    "name": "C#5",
                    "midi": 73,
                    "time": 17.637499999999978,
                    "velocity": 0.6692913385826772,
                    "duration": 0.22916666666666785
                },
                {
                    "name": "F3",
                    "midi": 53,
                    "time": 17.737499999999976,
                    "velocity": 0.47244094488188976,
                    "duration": 0.1791666666666707
                },
                {
                    "name": "C#4",
                    "midi": 61,
                    "time": 17.737499999999976,
                    "velocity": 0.47244094488188976,
                    "duration": 0.13750000000000284
                },
                {
                    "name": "C5",
                    "midi": 72,
                    "time": 17.87499999999998,
                    "velocity": 0.6692913385826772,
                    "duration": 0.1875
                },
                {
                    "name": "D#3",
                    "midi": 51,
                    "time": 17.879166666666645,
                    "velocity": 0.47244094488188976,
                    "duration": 0.470833333333335
                },
                {
                    "name": "G#4",
                    "midi": 68,
                    "time": 17.879166666666645,
                    "velocity": 0.6692913385826772,
                    "duration": 0.1875
                },
                {
                    "name": "F#5",
                    "midi": 78,
                    "time": 17.929166666666646,
                    "velocity": 0.6692913385826772,
                    "duration": 0.2708333333333357
                },
                {
                    "name": "G#3",
                    "midi": 56,
                    "time": 18.024999999999977,
                    "velocity": 0.47244094488188976,
                    "duration": 0.1791666666666707
                },
                {
                    "name": "F#4",
                    "midi": 66,
                    "time": 18.024999999999977,
                    "velocity": 0.47244094488188976,
                    "duration": 0.04166666666666785
                },
                {
                    "name": "C4",
                    "midi": 60,
                    "time": 18.029166666666644,
                    "velocity": 0.47244094488188976,
                    "duration": 0.17500000000000426
                },
                {
                    "name": "C5",
                    "midi": 72,
                    "time": 18.166666666666647,
                    "velocity": 0.47244094488188976,
                    "duration": 0.09166666666666501
                },
                {
                    "name": "F#4",
                    "midi": 66,
                    "time": 18.166666666666647,
                    "velocity": 0.47244094488188976,
                    "duration": 0.09166666666666501
                },
                {
                    "name": "G#4",
                    "midi": 68,
                    "time": 18.166666666666647,
                    "velocity": 0.47244094488188976,
                    "duration": 0.09166666666666501
                },
                {
                    "name": "F#5",
                    "midi": 78,
                    "time": 18.31249999999998,
                    "velocity": 0.6692913385826772,
                    "duration": 0.03750000000000142
                },
                {
                    "name": "F#5",
                    "midi": 78,
                    "time": 18.44999999999998,
                    "velocity": 0.6692913385826772,
                    "duration": 0.6208333333333336
                },
                {
                    "name": "C#3",
                    "midi": 49,
                    "time": 18.454166666666648,
                    "velocity": 0.47244094488188976,
                    "duration": 0.4250000000000007
                },
                {
                    "name": "G#3",
                    "midi": 56,
                    "time": 18.591666666666647,
                    "velocity": 0.47244094488188976,
                    "duration": 0.32916666666666927
                },
                {
                    "name": "F#4",
                    "midi": 66,
                    "time": 18.59999999999998,
                    "velocity": 0.47244094488188976,
                    "duration": 0.17916666666666714
                },
                {
                    "name": "C4",
                    "midi": 60,
                    "time": 18.741666666666646,
                    "velocity": 0.47244094488188976,
                    "duration": 0.283333333333335
                },
                {
                    "name": "G#4",
                    "midi": 68,
                    "time": 18.741666666666646,
                    "velocity": 0.47244094488188976,
                    "duration": 0.18333333333333712
                },
                {
                    "name": "F#4",
                    "midi": 66,
                    "time": 18.88749999999998,
                    "velocity": 0.47244094488188976,
                    "duration": 0.1875
                },
                {
                    "name": "C5",
                    "midi": 72,
                    "time": 18.88749999999998,
                    "velocity": 0.47244094488188976,
                    "duration": 0.1875
                },
                {
                    "name": "C#4",
                    "midi": 61,
                    "time": 19.029166666666647,
                    "velocity": 0.47244094488188976,
                    "duration": 0.3333333333333357
                },
                {
                    "name": "C#5",
                    "midi": 73,
                    "time": 19.029166666666647,
                    "velocity": 0.47244094488188976,
                    "duration": 0.3333333333333357
                },
                {
                    "name": "F4",
                    "midi": 65,
                    "time": 19.03749999999998,
                    "velocity": 0.6692913385826772,
                    "duration": 0.32500000000000284
                },
                {
                    "name": "G#4",
                    "midi": 68,
                    "time": 19.03749999999998,
                    "velocity": 0.6692913385826772,
                    "duration": 0.32500000000000284
                },
                {
                    "name": "F5",
                    "midi": 77,
                    "time": 19.079166666666648,
                    "velocity": 0.6692913385826772,
                    "duration": 0.2875000000000014
                },
                {
                    "name": "A3",
                    "midi": 57,
                    "time": 19.32499999999998,
                    "velocity": 0.47244094488188976,
                    "duration": 0.31666666666667
                },
                {
                    "name": "D#5",
                    "midi": 75,
                    "time": 19.32499999999998,
                    "velocity": 0.6692913385826772,
                    "duration": 0.32500000000000284
                },
                {
                    "name": "C#3",
                    "midi": 49,
                    "time": 19.329166666666648,
                    "velocity": 0.47244094488188976,
                    "duration": 0.4625000000000057
                },
                {
                    "name": "F#4",
                    "midi": 66,
                    "time": 19.46666666666665,
                    "velocity": 0.47244094488188976,
                    "duration": 0.18333333333333357
                },
                {
                    "name": "A#3",
                    "midi": 58,
                    "time": 19.60416666666665,
                    "velocity": 0.47244094488188976,
                    "duration": 0.3291666666666728
                },
                {
                    "name": "C#5",
                    "midi": 73,
                    "time": 19.60416666666665,
                    "velocity": 0.6692913385826772,
                    "duration": 0.3291666666666728
                },
                {
                    "name": "F4",
                    "midi": 65,
                    "time": 19.754166666666652,
                    "velocity": 0.47244094488188976,
                    "duration": 0.1791666666666707
                },
                {
                    "name": "C5",
                    "midi": 72,
                    "time": 19.89583333333332,
                    "velocity": 0.6692913385826772,
                    "duration": 0.32916666666666927
                },
                {
                    "name": "C#3",
                    "midi": 49,
                    "time": 19.89583333333332,
                    "velocity": 0.47244094488188976,
                    "duration": 0.18333333333333712
                },
                {
                    "name": "C4",
                    "midi": 60,
                    "time": 19.89583333333332,
                    "velocity": 0.47244094488188976,
                    "duration": 0.27500000000000213
                },
                {
                    "name": "D#4",
                    "midi": 63,
                    "time": 20.03749999999999,
                    "velocity": 0.47244094488188976,
                    "duration": 0.1875
                },
                {
                    "name": "C#3",
                    "midi": 49,
                    "time": 20.183333333333323,
                    "velocity": 0.47244094488188976,
                    "duration": 1.7166666666666792
                },
                {
                    "name": "A#4",
                    "midi": 70,
                    "time": 20.183333333333323,
                    "velocity": 0.6692913385826772,
                    "duration": 0.7624999999999993
                },
                {
                    "name": "C#4",
                    "midi": 61,
                    "time": 20.32499999999999,
                    "velocity": 0.47244094488188976,
                    "duration": 0.3291666666666657
                },
                {
                    "name": "E4",
                    "midi": 64,
                    "time": 20.47083333333332,
                    "velocity": 0.47244094488188976,
                    "duration": 0.23333333333333428
                },
                {
                    "name": "G4",
                    "midi": 67,
                    "time": 20.67083333333332,
                    "velocity": 0.47244094488188976,
                    "duration": 0.03333333333333499
                },
                {
                    "name": "G4",
                    "midi": 67,
                    "time": 20.76249999999999,
                    "velocity": 0.47244094488188976,
                    "duration": 0.32500000000000284
                },
                {
                    "name": "E4",
                    "midi": 64,
                    "time": 20.904166666666654,
                    "velocity": 0.47244094488188976,
                    "duration": 0.3250000000000064
                },
                {
                    "name": "C#4",
                    "midi": 61,
                    "time": 21.04999999999999,
                    "velocity": 0.47244094488188976,
                    "duration": 0.2750000000000057
                },
                {
                    "name": "A#4",
                    "midi": 70,
                    "time": 21.04999999999999,
                    "velocity": 0.6692913385826772,
                    "duration": 0.3250000000000064
                },
                {
                    "name": "A#3",
                    "midi": 58,
                    "time": 21.19166666666666,
                    "velocity": 0.47244094488188976,
                    "duration": 0.17500000000000426
                },
                {
                    "name": "G3",
                    "midi": 55,
                    "time": 21.33333333333333,
                    "velocity": 0.47244094488188976,
                    "duration": 0.27500000000000213
                },
                {
                    "name": "C5",
                    "midi": 72,
                    "time": 21.33333333333333,
                    "velocity": 0.6692913385826772,
                    "duration": 0.3208333333333364
                },
                {
                    "name": "A#3",
                    "midi": 58,
                    "time": 21.474999999999998,
                    "velocity": 0.47244094488188976,
                    "duration": 0.27916666666666856
                },
                {
                    "name": "E4",
                    "midi": 64,
                    "time": 21.612499999999997,
                    "velocity": 0.6692913385826772,
                    "duration": 0.19166666666666998
                },
                {
                    "name": "C#5",
                    "midi": 73,
                    "time": 21.616666666666664,
                    "velocity": 0.6692913385826772,
                    "duration": 0.33333333333333925
                },
                {
                    "name": "G4",
                    "midi": 67,
                    "time": 21.766666666666666,
                    "velocity": 0.47244094488188976,
                    "duration": 0.1333333333333364
                },
                {
                    "name": "D#5",
                    "midi": 75,
                    "time": 21.9125,
                    "velocity": 0.6692913385826772,
                    "duration": 0.3249999999999993
                },
                {
                    "name": "C3",
                    "midi": 48,
                    "time": 21.9125,
                    "velocity": 0.47244094488188976,
                    "duration": 1.1791666666666671
                },
                {
                    "name": "G#3",
                    "midi": 56,
                    "time": 21.9125,
                    "velocity": 0.47244094488188976,
                    "duration": 0.4166666666666643
                },
                {
                    "name": "C4",
                    "midi": 60,
                    "time": 22.054166666666667,
                    "velocity": 0.47244094488188976,
                    "duration": 0.37083333333333357
                },
                {
                    "name": "D#4",
                    "midi": 63,
                    "time": 22.195833333333333,
                    "velocity": 0.47244094488188976,
                    "duration": 0.3291666666666657
                },
                {
                    "name": "G#4",
                    "midi": 68,
                    "time": 22.195833333333333,
                    "velocity": 0.6692913385826772,
                    "duration": 0.1875
                },
                {
                    "name": "F#4",
                    "midi": 66,
                    "time": 22.391666666666666,
                    "velocity": 0.47244094488188976,
                    "duration": 0.03333333333333499
                },
                {
                    "name": "F#4",
                    "midi": 66,
                    "time": 22.483333333333334,
                    "velocity": 0.6692913385826772,
                    "duration": 0.3249999999999993
                },
                {
                    "name": "G#4",
                    "midi": 68,
                    "time": 22.5125,
                    "velocity": 0.6692913385826772,
                    "duration": 0.8750000000000036
                },
                {
                    "name": "D#4",
                    "midi": 63,
                    "time": 22.629166666666666,
                    "velocity": 0.47244094488188976,
                    "duration": 0.32500000000000284
                },
                {
                    "name": "C4",
                    "midi": 60,
                    "time": 22.770833333333332,
                    "velocity": 0.47244094488188976,
                    "duration": 0.2291666666666714
                },
                {
                    "name": "G#3",
                    "midi": 56,
                    "time": 22.9125,
                    "velocity": 0.47244094488188976,
                    "duration": 0.17916666666666714
                },
                {
                    "name": "C#3",
                    "midi": 49,
                    "time": 23.054166666666667,
                    "velocity": 0.47244094488188976,
                    "duration": 0.3333333333333357
                },
                {
                    "name": "F4",
                    "midi": 65,
                    "time": 23.054166666666667,
                    "velocity": 0.47244094488188976,
                    "duration": 0.283333333333335
                },
                {
                    "name": "G#3",
                    "midi": 56,
                    "time": 23.200000000000003,
                    "velocity": 0.47244094488188976,
                    "duration": 0.1875
                },
                {
                    "name": "C#4",
                    "midi": 61,
                    "time": 23.200000000000003,
                    "velocity": 0.47244094488188976,
                    "duration": 0.18333333333333357
                },
                {
                    "name": "E4",
                    "midi": 64,
                    "time": 23.34166666666667,
                    "velocity": 0.6692913385826772,
                    "duration": 0.27500000000000213
                },
                {
                    "name": "C#5",
                    "midi": 73,
                    "time": 23.34166666666667,
                    "velocity": 0.6692913385826772,
                    "duration": 0.32500000000000284
                },
                {
                    "name": "A#2",
                    "midi": 46,
                    "time": 23.35,
                    "velocity": 0.47244094488188976,
                    "duration": 0.27500000000000213
                },
                {
                    "name": "C#4",
                    "midi": 61,
                    "time": 23.483333333333338,
                    "velocity": 0.47244094488188976,
                    "duration": 0.13333333333333286
                },
                {
                    "name": "G#4",
                    "midi": 68,
                    "time": 23.487500000000004,
                    "velocity": 0.47244094488188976,
                    "duration": 0.1374999999999993
                },
                {
                    "name": "G#3",
                    "midi": 56,
                    "time": 23.62916666666667,
                    "velocity": 0.47244094488188976,
                    "duration": 0.37500000000000355
                },
                {
                    "name": "D#3",
                    "midi": 51,
                    "time": 23.62916666666667,
                    "velocity": 0.47244094488188976,
                    "duration": 0.5583333333333407
                },
                {
                    "name": "C5",
                    "midi": 72,
                    "time": 23.62916666666667,
                    "velocity": 0.6692913385826772,
                    "duration": 0.18333333333333712
                },
                {
                    "name": "C4",
                    "midi": 60,
                    "time": 23.775000000000006,
                    "velocity": 0.47244094488188976,
                    "duration": 0.32916666666666927
                },
                {
                    "name": "D#4",
                    "midi": 63,
                    "time": 23.916666666666675,
                    "velocity": 0.47244094488188976,
                    "duration": 0.22916666666666785
                },
                {
                    "name": "C5",
                    "midi": 72,
                    "time": 23.916666666666675,
                    "velocity": 0.6692913385826772,
                    "duration": 0.18333333333333357
                },
                {
                    "name": "G#4",
                    "midi": 68,
                    "time": 24.062500000000007,
                    "velocity": 0.47244094488188976,
                    "duration": 0.17500000000000426
                },
                {
                    "name": "D#2",
                    "midi": 39,
                    "time": 24.195833333333344,
                    "velocity": 0.47244094488188976,
                    "duration": 1.1458333333333464
                },
                {
                    "name": "C5",
                    "midi": 72,
                    "time": 24.195833333333344,
                    "velocity": 0.6692913385826772,
                    "duration": 0.18333333333333712
                },
                {
                    "name": "G#3",
                    "midi": 56,
                    "time": 24.337500000000013,
                    "velocity": 0.47244094488188976,
                    "duration": 0.37916666666667
                },
                {
                    "name": "A#4",
                    "midi": 70,
                    "time": 24.34166666666668,
                    "velocity": 0.6692913385826772,
                    "duration": 0.7666666666666728
                },
                {
                    "name": "C#4",
                    "midi": 61,
                    "time": 24.48333333333335,
                    "velocity": 0.47244094488188976,
                    "duration": 0.3333333333333357
                },
                {
                    "name": "D#4",
                    "midi": 63,
                    "time": 24.675000000000015,
                    "velocity": 0.47244094488188976,
                    "duration": 0.04166666666666785
                },
                {
                    "name": "D#4",
                    "midi": 63,
                    "time": 24.779166666666683,
                    "velocity": 0.47244094488188976,
                    "duration": 0.32916666666666927
                },
                {
                    "name": "C#4",
                    "midi": 61,
                    "time": 24.920833333333352,
                    "velocity": 0.47244094488188976,
                    "duration": 0.283333333333335
                },
                {
                    "name": "G3",
                    "midi": 55,
                    "time": 25.066666666666684,
                    "velocity": 0.47244094488188976,
                    "duration": 0.18333333333333712
                },
                {
                    "name": "C5",
                    "midi": 72,
                    "time": 25.066666666666684,
                    "velocity": 0.6692913385826772,
                    "duration": 0.3250000000000064
                },
                {
                    "name": "D#3",
                    "midi": 51,
                    "time": 25.21250000000002,
                    "velocity": 0.47244094488188976,
                    "duration": 0.08750000000000213
                },
                {
                    "name": "G#2",
                    "midi": 44,
                    "time": 25.350000000000023,
                    "velocity": 0.47244094488188976,
                    "duration": 1.0500000000000043
                },
                {
                    "name": "D#3",
                    "midi": 51,
                    "time": 25.350000000000023,
                    "velocity": 0.47244094488188976,
                    "duration": 0.42083333333333073
                },
                {
                    "name": "G#4",
                    "midi": 68,
                    "time": 25.35416666666669,
                    "velocity": 0.6692913385826772,
                    "duration": 1.6166666666666707
                },
                {
                    "name": "G#3",
                    "midi": 56,
                    "time": 25.487500000000022,
                    "velocity": 0.47244094488188976,
                    "duration": 0.37916666666666643
                },
                {
                    "name": "C4",
                    "midi": 60,
                    "time": 25.63750000000002,
                    "velocity": 0.47244094488188976,
                    "duration": 0.32916666666666927
                },
                {
                    "name": "D#4",
                    "midi": 63,
                    "time": 25.829166666666687,
                    "velocity": 0.47244094488188976,
                    "duration": 0.04166666666666785
                },
                {
                    "name": "D#4",
                    "midi": 63,
                    "time": 25.925000000000022,
                    "velocity": 0.47244094488188976,
                    "duration": 0.32916666666666927
                },
                {
                    "name": "C4",
                    "midi": 60,
                    "time": 26.070833333333358,
                    "velocity": 0.47244094488188976,
                    "duration": 0.27916666666666856
                },
                {
                    "name": "G#3",
                    "midi": 56,
                    "time": 26.212500000000023,
                    "velocity": 0.47244094488188976,
                    "duration": 0.18750000000000355
                },
                {
                    "name": "D#3",
                    "midi": 51,
                    "time": 26.362500000000026,
                    "velocity": 0.47244094488188976,
                    "duration": 0.03750000000000142
                },
                {
                    "name": "G#2",
                    "midi": 44,
                    "time": 26.50416666666669,
                    "velocity": 0.47244094488188976,
                    "duration": 0.4250000000000007
                },
                {
                    "name": "D#3",
                    "midi": 51,
                    "time": 26.508333333333358,
                    "velocity": 0.47244094488188976,
                    "duration": 0.32083333333333286
                },
                {
                    "name": "G#3",
                    "midi": 56,
                    "time": 26.645833333333357,
                    "velocity": 0.47244094488188976,
                    "duration": 0.27916666666666856
                },
                {
                    "name": "C4",
                    "midi": 60,
                    "time": 26.795833333333356,
                    "velocity": 0.47244094488188976,
                    "duration": 0.17500000000000426
                },
                {
                    "name": "D#4",
                    "midi": 63,
                    "time": 26.929166666666692,
                    "velocity": 0.47244094488188976,
                    "duration": 0.04166666666666785
                },
                {
                    "name": "G#2",
                    "midi": 44,
                    "time": 27.029166666666693,
                    "velocity": 0.47244094488188976,
                    "duration": 0.5708333333333364
                },
                {
                    "name": "D#3",
                    "midi": 51,
                    "time": 27.054166666666692,
                    "velocity": 0.47244094488188976,
                    "duration": 0.5958333333333385
                },
                {
                    "name": "G#3",
                    "midi": 56,
                    "time": 27.075000000000024,
                    "velocity": 0.6692913385826772,
                    "duration": 0.5666666666666735
                },
                {
                    "name": "D#4",
                    "midi": 63,
                    "time": 27.07916666666669,
                    "velocity": 0.47244094488188976,
                    "duration": 0.32500000000000284
                },
                {
                    "name": "C5",
                    "midi": 72,
                    "time": 27.07916666666669,
                    "velocity": 0.6692913385826772,
                    "duration": 0.18333333333333357
                },
                {
                    "name": "C4",
                    "midi": 60,
                    "time": 27.10416666666669,
                    "velocity": 0.47244094488188976,
                    "duration": 0.158333333333335
                },
                {
                    "name": "D#5",
                    "midi": 75,
                    "time": 27.21666666666669,
                    "velocity": 0.47244094488188976,
                    "duration": 0.23750000000000426
                },
                {
                    "name": "G#4",
                    "midi": 68,
                    "time": 27.225000000000023,
                    "velocity": 0.47244094488188976,
                    "duration": 0.3750000000000071
                },
                {
                    "name": "G#5",
                    "midi": 80,
                    "time": 27.362500000000026,
                    "velocity": 0.6692913385826772,
                    "duration": 0.3291666666666728
                },
                {
                    "name": "C4",
                    "midi": 60,
                    "time": 27.362500000000026,
                    "velocity": 0.47244094488188976,
                    "duration": 0.04166666666666785
                },
                {
                    "name": "C5",
                    "midi": 72,
                    "time": 27.362500000000026,
                    "velocity": 0.6692913385826772,
                    "duration": 0.3291666666666728
                },
                {
                    "name": "C4",
                    "midi": 60,
                    "time": 27.50833333333336,
                    "velocity": 0.47244094488188976,
                    "duration": 0.18333333333333712
                },
                {
                    "name": "D#5",
                    "midi": 75,
                    "time": 27.56250000000003,
                    "velocity": 0.47244094488188976,
                    "duration": 0.03750000000000142
                },
                {
                    "name": "C6",
                    "midi": 84,
                    "time": 27.56250000000003,
                    "velocity": 0.47244094488188976,
                    "duration": 0.03333333333333499
                },
                {
                    "name": "C6",
                    "midi": 84,
                    "time": 27.654166666666697,
                    "velocity": 0.6692913385826772,
                    "duration": 0.3250000000000064
                },
                {
                    "name": "D#4",
                    "midi": 63,
                    "time": 27.654166666666697,
                    "velocity": 0.47244094488188976,
                    "duration": 0.3291666666666728
                },
                {
                    "name": "D#5",
                    "midi": 75,
                    "time": 27.654166666666697,
                    "velocity": 0.6692913385826772,
                    "duration": 0.18750000000000355
                },
                {
                    "name": "C5",
                    "midi": 72,
                    "time": 27.8041666666667,
                    "velocity": 0.47244094488188976,
                    "duration": 0.1791666666666707
                },
                {
                    "name": "G#5",
                    "midi": 80,
                    "time": 27.8041666666667,
                    "velocity": 0.47244094488188976,
                    "duration": 0.2750000000000057
                },
                {
                    "name": "G#4",
                    "midi": 68,
                    "time": 27.941666666666702,
                    "velocity": 0.47244094488188976,
                    "duration": 0.18750000000000355
                },
                {
                    "name": "D#5",
                    "midi": 75,
                    "time": 27.94583333333337,
                    "velocity": 0.47244094488188976,
                    "duration": 0.18333333333333712
                },
                {
                    "name": "G#3",
                    "midi": 56,
                    "time": 28.087500000000038,
                    "velocity": 0.47244094488188976,
                    "duration": 0.08750000000000213
                },
                {
                    "name": "C5",
                    "midi": 72,
                    "time": 28.091666666666704,
                    "velocity": 0.6692913385826772,
                    "duration": 0.03750000000000142
                },
                {
                    "name": "G#2",
                    "midi": 44,
                    "time": 28.22500000000004,
                    "velocity": 0.47244094488188976,
                    "duration": 0.33333333333333215
                },
                {
                    "name": "D#3",
                    "midi": 51,
                    "time": 28.229166666666707,
                    "velocity": 0.47244094488188976,
                    "duration": 0.3291666666666657
                },
                {
                    "name": "D#4",
                    "midi": 63,
                    "time": 28.229166666666707,
                    "velocity": 0.47244094488188976,
                    "duration": 0.18333333333333357
                },
                {
                    "name": "C5",
                    "midi": 72,
                    "time": 28.229166666666707,
                    "velocity": 0.47244094488188976,
                    "duration": 0.18333333333333357
                },
                {
                    "name": "G#3",
                    "midi": 56,
                    "time": 28.25000000000004,
                    "velocity": 0.47244094488188976,
                    "duration": 0.30833333333333357
                },
                {
                    "name": "G#4",
                    "midi": 68,
                    "time": 28.370833333333373,
                    "velocity": 0.47244094488188976,
                    "duration": 0.1875
                },
                {
                    "name": "D#5",
                    "midi": 75,
                    "time": 28.370833333333373,
                    "velocity": 0.47244094488188976,
                    "duration": 0.1875
                },
                {
                    "name": "G3",
                    "midi": 55,
                    "time": 28.520833333333375,
                    "velocity": 0.47244094488188976,
                    "duration": 0.32499999999999574
                },
                {
                    "name": "A#4",
                    "midi": 70,
                    "time": 28.520833333333375,
                    "velocity": 0.6692913385826772,
                    "duration": 0.32499999999999574
                },
                {
                    "name": "A#3",
                    "midi": 58,
                    "time": 28.53750000000004,
                    "velocity": 0.47244094488188976,
                    "duration": 0.25833333333333286
                },
                {
                    "name": "G4",
                    "midi": 67,
                    "time": 28.66250000000004,
                    "velocity": 0.47244094488188976,
                    "duration": 0.18333333333333002
                },
                {
                    "name": "D#5",
                    "midi": 75,
                    "time": 28.66250000000004,
                    "velocity": 0.47244094488188976,
                    "duration": 0.18333333333333002
                },
                {
                    "name": "G#2",
                    "midi": 44,
                    "time": 28.758333333333375,
                    "velocity": 0.47244094488188976,
                    "duration": 0.5625
                },
                {
                    "name": "D#3",
                    "midi": 51,
                    "time": 28.783333333333374,
                    "velocity": 0.47244094488188976,
                    "duration": 0.5375000000000014
                },
                {
                    "name": "G#3",
                    "midi": 56,
                    "time": 28.804166666666706,
                    "velocity": 0.47244094488188976,
                    "duration": 0.56666666666667
                },
                {
                    "name": "D#4",
                    "midi": 63,
                    "time": 28.808333333333373,
                    "velocity": 0.47244094488188976,
                    "duration": 0.470833333333335
                },
                {
                    "name": "C5",
                    "midi": 72,
                    "time": 28.808333333333373,
                    "velocity": 0.47244094488188976,
                    "duration": 0.1750000000000007
                },
                {
                    "name": "C4",
                    "midi": 60,
                    "time": 28.829166666666705,
                    "velocity": 0.47244094488188976,
                    "duration": 0.5458333333333378
                },
                {
                    "name": "D#5",
                    "midi": 75,
                    "time": 28.945833333333372,
                    "velocity": 0.47244094488188976,
                    "duration": 0.23333333333333428
                },
                {
                    "name": "G#4",
                    "midi": 68,
                    "time": 28.95000000000004,
                    "velocity": 0.47244094488188976,
                    "duration": 0.37500000000000355
                },
                {
                    "name": "G#5",
                    "midi": 80,
                    "time": 29.091666666666708,
                    "velocity": 0.47244094488188976,
                    "duration": 0.32500000000000284
                },
                {
                    "name": "C5",
                    "midi": 72,
                    "time": 29.095833333333374,
                    "velocity": 0.47244094488188976,
                    "duration": 0.3208333333333364
                },
                {
                    "name": "D#5",
                    "midi": 75,
                    "time": 29.283333333333374,
                    "velocity": 0.47244094488188976,
                    "duration": 0.04166666666666785
                },
                {
                    "name": "C6",
                    "midi": 84,
                    "time": 29.283333333333374,
                    "velocity": 0.47244094488188976,
                    "duration": 0.03750000000000142
                },
                {
                    "name": "D#5",
                    "midi": 75,
                    "time": 29.37916666666671,
                    "velocity": 0.47244094488188976,
                    "duration": 0.18750000000000355
                },
                {
                    "name": "C6",
                    "midi": 84,
                    "time": 29.37916666666671,
                    "velocity": 0.47244094488188976,
                    "duration": 0.32083333333333997
                },
                {
                    "name": "C5",
                    "midi": 72,
                    "time": 29.525000000000045,
                    "velocity": 0.47244094488188976,
                    "duration": 0.17500000000000426
                },
                {
                    "name": "G#5",
                    "midi": 80,
                    "time": 29.525000000000045,
                    "velocity": 0.47244094488188976,
                    "duration": 0.22500000000000142
                },
                {
                    "name": "G#4",
                    "midi": 68,
                    "time": 29.662500000000048,
                    "velocity": 0.47244094488188976,
                    "duration": 0.17916666666666714
                },
                {
                    "name": "D#5",
                    "midi": 75,
                    "time": 29.662500000000048,
                    "velocity": 0.47244094488188976,
                    "duration": 0.17916666666666714
                },
                {
                    "name": "D#4",
                    "midi": 63,
                    "time": 29.80833333333338,
                    "velocity": 0.47244094488188976,
                    "duration": 0.03333333333333499
                },
                {
                    "name": "C5",
                    "midi": 72,
                    "time": 29.80833333333338,
                    "velocity": 0.47244094488188976,
                    "duration": 0.03333333333333499
                },
                {
                    "name": "C5",
                    "midi": 72,
                    "time": 29.95000000000005,
                    "velocity": 0.6692913385826772,
                    "duration": 0.17916666666666714
                },
                {
                    "name": "G#3",
                    "midi": 56,
                    "time": 29.95000000000005,
                    "velocity": 0.47244094488188976,
                    "duration": 0.17916666666666714
                },
                {
                    "name": "G#4",
                    "midi": 68,
                    "time": 30.091666666666715,
                    "velocity": 0.47244094488188976,
                    "duration": 0.04166666666666785
                },
                {
                    "name": "D#5",
                    "midi": 75,
                    "time": 30.091666666666715,
                    "velocity": 0.47244094488188976,
                    "duration": 0.03750000000000142
                },
                {
                    "name": "G#3",
                    "midi": 56,
                    "time": 30.229166666666718,
                    "velocity": 0.47244094488188976,
                    "duration": 0.04583333333333428
                },
                {
                    "name": "D#5",
                    "midi": 75,
                    "time": 30.23750000000005,
                    "velocity": 0.6692913385826772,
                    "duration": 0.1791666666666707
                },
                {
                    "name": "G#4",
                    "midi": 68,
                    "time": 30.241666666666717,
                    "velocity": 0.6692913385826772,
                    "duration": 0.17500000000000426
                },
                {
                    "name": "G#3",
                    "midi": 56,
                    "time": 30.375000000000053,
                    "velocity": 0.47244094488188976,
                    "duration": 0.04166666666666785
                },
                {
                    "name": "C5",
                    "midi": 72,
                    "time": 30.37916666666672,
                    "velocity": 0.6692913385826772,
                    "duration": 0.18333333333333357
                },
                {
                    "name": "G#5",
                    "midi": 80,
                    "time": 30.37916666666672,
                    "velocity": 0.6692913385826772,
                    "duration": 0.1875
                },
                {
                    "name": "C#3",
                    "midi": 49,
                    "time": 30.475000000000055,
                    "velocity": 0.47244094488188976,
                    "duration": 0.56666666666667
                },
                {
                    "name": "G#3",
                    "midi": 56,
                    "time": 30.500000000000053,
                    "velocity": 0.47244094488188976,
                    "duration": 0.5875000000000057
                },
                {
                    "name": "F5",
                    "midi": 77,
                    "time": 30.52916666666672,
                    "velocity": 0.6692913385826772,
                    "duration": 0.17500000000000426
                },
                {
                    "name": "F4",
                    "midi": 65,
                    "time": 30.52916666666672,
                    "velocity": 0.6692913385826772,
                    "duration": 0.8958333333333464
                },
                {
                    "name": "G#4",
                    "midi": 68,
                    "time": 30.52916666666672,
                    "velocity": 0.6692913385826772,
                    "duration": 0.47083333333333854
                },
                {
                    "name": "C#5",
                    "midi": 73,
                    "time": 30.66666666666672,
                    "velocity": 0.47244094488188976,
                    "duration": 0.37500000000000355
                },
                {
                    "name": "G#5",
                    "midi": 80,
                    "time": 30.670833333333388,
                    "velocity": 0.47244094488188976,
                    "duration": 0.23333333333333428
                },
                {
                    "name": "F5",
                    "midi": 77,
                    "time": 30.812500000000057,
                    "velocity": 0.47244094488188976,
                    "duration": 0.3208333333333364
                },
                {
                    "name": "C#6",
                    "midi": 85,
                    "time": 30.812500000000057,
                    "velocity": 0.47244094488188976,
                    "duration": 0.3208333333333364
                },
                {
                    "name": "G#5",
                    "midi": 80,
                    "time": 31.000000000000057,
                    "velocity": 0.47244094488188976,
                    "duration": 0.04166666666666785
                },
                {
                    "name": "F6",
                    "midi": 89,
                    "time": 31.000000000000057,
                    "velocity": 0.47244094488188976,
                    "duration": 0.04166666666666785
                },
                {
                    "name": "G#5",
                    "midi": 80,
                    "time": 31.095833333333392,
                    "velocity": 0.47244094488188976,
                    "duration": 0.18333333333333712
                },
                {
                    "name": "F6",
                    "midi": 89,
                    "time": 31.095833333333392,
                    "velocity": 0.47244094488188976,
                    "duration": 0.18333333333333712
                },
                {
                    "name": "F5",
                    "midi": 77,
                    "time": 31.241666666666728,
                    "velocity": 0.47244094488188976,
                    "duration": 0.1333333333333364
                },
                {
                    "name": "C#6",
                    "midi": 85,
                    "time": 31.241666666666728,
                    "velocity": 0.47244094488188976,
                    "duration": 0.1333333333333364
                },
                {
                    "name": "G4",
                    "midi": 67,
                    "time": 31.387500000000063,
                    "velocity": 0.6692913385826772,
                    "duration": 0.32500000000000284
                },
                {
                    "name": "D#5",
                    "midi": 75,
                    "time": 31.387500000000063,
                    "velocity": 0.6692913385826772,
                    "duration": 0.32916666666666927
                },
                {
                    "name": "D#4",
                    "midi": 63,
                    "time": 31.529166666666733,
                    "velocity": 0.47244094488188976,
                    "duration": 0.1875
                },
                {
                    "name": "G#4",
                    "midi": 68,
                    "time": 31.529166666666733,
                    "velocity": 0.47244094488188976,
                    "duration": 0.1875
                },
                {
                    "name": "F4",
                    "midi": 65,
                    "time": 31.675000000000065,
                    "velocity": 0.6692913385826772,
                    "duration": 0.33333333333333925
                },
                {
                    "name": "C#5",
                    "midi": 73,
                    "time": 31.675000000000065,
                    "velocity": 0.6692913385826772,
                    "duration": 0.32916666666666927
                },
                {
                    "name": "C#4",
                    "midi": 61,
                    "time": 31.816666666666734,
                    "velocity": 0.47244094488188976,
                    "duration": 0.1875
                },
                {
                    "name": "G#4",
                    "midi": 68,
                    "time": 31.816666666666734,
                    "velocity": 0.47244094488188976,
                    "duration": 0.19166666666666998
                },
                {
                    "name": "D#4",
                    "midi": 63,
                    "time": 31.966666666666733,
                    "velocity": 0.6692913385826772,
                    "duration": 0.2750000000000057
                },
                {
                    "name": "C5",
                    "midi": 72,
                    "time": 31.966666666666733,
                    "velocity": 0.6692913385826772,
                    "duration": 0.32500000000000995
                },
                {
                    "name": "C4",
                    "midi": 60,
                    "time": 32.104166666666735,
                    "velocity": 0.47244094488188976,
                    "duration": 0.1875000000000071
                },
                {
                    "name": "G#4",
                    "midi": 68,
                    "time": 32.104166666666735,
                    "velocity": 0.47244094488188976,
                    "duration": 0.1875000000000071
                },
                {
                    "name": "G#3",
                    "midi": 56,
                    "time": 32.225000000000065,
                    "velocity": 0.6692913385826772,
                    "duration": 0.5500000000000114
                },
                {
                    "name": "C#3",
                    "midi": 49,
                    "time": 32.229166666666735,
                    "velocity": 0.6692913385826772,
                    "duration": 0.63750000000001
                },
                {
                    "name": "A#3",
                    "midi": 58,
                    "time": 32.25000000000007,
                    "velocity": 0.6692913385826772,
                    "duration": 0.5250000000000057
                },
                {
                    "name": "E4",
                    "midi": 64,
                    "time": 32.25000000000007,
                    "velocity": 0.6692913385826772,
                    "duration": 0.4750000000000014
                },
                {
                    "name": "A#4",
                    "midi": 70,
                    "time": 32.25416666666674,
                    "velocity": 0.6692913385826772,
                    "duration": 0.18333333333333002
                },
                {
                    "name": "G#4",
                    "midi": 68,
                    "time": 32.39583333333341,
                    "velocity": 0.47244094488188976,
                    "duration": 0.37916666666667
                },
                {
                    "name": "E5",
                    "midi": 76,
                    "time": 32.39583333333341,
                    "velocity": 0.47244094488188976,
                    "duration": 0.23333333333333428
                },
                {
                    "name": "G#5",
                    "midi": 80,
                    "time": 32.53750000000007,
                    "velocity": 0.47244094488188976,
                    "duration": 0.3291666666666728
                },
                {
                    "name": "A#4",
                    "midi": 70,
                    "time": 32.54166666666674,
                    "velocity": 0.47244094488188976,
                    "duration": 0.3291666666666728
                },
                {
                    "name": "E5",
                    "midi": 76,
                    "time": 32.72916666666674,
                    "velocity": 0.47244094488188976,
                    "duration": 0.04583333333333428
                },
                {
                    "name": "A#5",
                    "midi": 82,
                    "time": 32.72916666666674,
                    "velocity": 0.47244094488188976,
                    "duration": 0.04583333333333428
                },
                {
                    "name": "E5",
                    "midi": 76,
                    "time": 32.829166666666744,
                    "velocity": 0.47244094488188976,
                    "duration": 0.1875
                },
                {
                    "name": "A#5",
                    "midi": 82,
                    "time": 32.829166666666744,
                    "velocity": 0.47244094488188976,
                    "duration": 0.3291666666666657
                },
                {
                    "name": "A#4",
                    "midi": 70,
                    "time": 32.97500000000008,
                    "velocity": 0.47244094488188976,
                    "duration": 0.18333333333333002
                },
                {
                    "name": "G#5",
                    "midi": 80,
                    "time": 32.97500000000008,
                    "velocity": 0.47244094488188976,
                    "duration": 0.27916666666666146
                },
                {
                    "name": "E5",
                    "midi": 76,
                    "time": 33.112500000000075,
                    "velocity": 0.47244094488188976,
                    "duration": 0.1875000000000071
                },
                {
                    "name": "G#4",
                    "midi": 68,
                    "time": 33.116666666666745,
                    "velocity": 0.47244094488188976,
                    "duration": 0.18333333333333712
                },
                {
                    "name": "E4",
                    "midi": 64,
                    "time": 33.25833333333341,
                    "velocity": 0.47244094488188976,
                    "duration": 0.13333333333333997
                },
                {
                    "name": "A#4",
                    "midi": 70,
                    "time": 33.26250000000008,
                    "velocity": 0.47244094488188976,
                    "duration": 0.13333333333333997
                },
                {
                    "name": "C#3",
                    "midi": 49,
                    "time": 33.35416666666675,
                    "velocity": 0.47244094488188976,
                    "duration": 0.37916666666667
                },
                {
                    "name": "G3",
                    "midi": 55,
                    "time": 33.37916666666675,
                    "velocity": 0.47244094488188976,
                    "duration": 0.2083333333333428
                },
                {
                    "name": "A#3",
                    "midi": 58,
                    "time": 33.40000000000009,
                    "velocity": 0.47244094488188976,
                    "duration": 0.3333333333333286
                },
                {
                    "name": "D#4",
                    "midi": 63,
                    "time": 33.55000000000009,
                    "velocity": 0.47244094488188976,
                    "duration": 0.18333333333333002
                },
                {
                    "name": "A#4",
                    "midi": 70,
                    "time": 33.55000000000009,
                    "velocity": 0.47244094488188976,
                    "duration": 0.1875
                },
                {
                    "name": "D#5",
                    "midi": 75,
                    "time": 33.691666666666755,
                    "velocity": 0.6692913385826772,
                    "duration": 0.1875
                },
                {
                    "name": "G3",
                    "midi": 55,
                    "time": 33.691666666666755,
                    "velocity": 0.47244094488188976,
                    "duration": 0.1875
                },
                {
                    "name": "G4",
                    "midi": 67,
                    "time": 33.691666666666755,
                    "velocity": 0.6692913385826772,
                    "duration": 0.1875
                },
                {
                    "name": "G5",
                    "midi": 79,
                    "time": 33.83750000000009,
                    "velocity": 0.6692913385826772,
                    "duration": 0.13749999999999574
                },
                {
                    "name": "D#3",
                    "midi": 51,
                    "time": 33.83750000000009,
                    "velocity": 0.47244094488188976,
                    "duration": 0.09166666666666146
                },
                {
                    "name": "A#4",
                    "midi": 70,
                    "time": 33.83750000000009,
                    "velocity": 0.6692913385826772,
                    "duration": 0.14166666666666572
                },
                {
                    "name": "C3",
                    "midi": 48,
                    "time": 33.962500000000084,
                    "velocity": 0.47244094488188976,
                    "duration": 0.5916666666666686
                },
                {
                    "name": "D#3",
                    "midi": 51,
                    "time": 33.98333333333343,
                    "velocity": 0.47244094488188976,
                    "duration": 0.5708333333333258
                },
                {
                    "name": "C4",
                    "midi": 60,
                    "time": 33.98333333333343,
                    "velocity": 0.47244094488188976,
                    "duration": 0.4208333333333343
                },
                {
                    "name": "G#4",
                    "midi": 68,
                    "time": 33.98333333333343,
                    "velocity": 0.47244094488188976,
                    "duration": 0.1875
                },
                {
                    "name": "G#3",
                    "midi": 56,
                    "time": 34.008333333333425,
                    "velocity": 0.47244094488188976,
                    "duration": 0.7333333333333343
                },
                {
                    "name": "D#4",
                    "midi": 63,
                    "time": 34.12916666666676,
                    "velocity": 0.47244094488188976,
                    "duration": 0.3749999999999929
                },
                {
                    "name": "C5",
                    "midi": 72,
                    "time": 34.12916666666676,
                    "velocity": 0.47244094488188976,
                    "duration": 0.23333333333333428
                },
                {
                    "name": "D#5",
                    "midi": 75,
                    "time": 34.27500000000009,
                    "velocity": 0.47244094488188976,
                    "duration": 0.3291666666666657
                },
                {
                    "name": "G#4",
                    "midi": 68,
                    "time": 34.27916666666676,
                    "velocity": 0.47244094488188976,
                    "duration": 0.32499999999999574
                },
                {
                    "name": "C5",
                    "midi": 72,
                    "time": 34.46250000000009,
                    "velocity": 0.47244094488188976,
                    "duration": 0.0416666666666643
                },
                {
                    "name": "G#5",
                    "midi": 80,
                    "time": 34.46250000000009,
                    "velocity": 0.47244094488188976,
                    "duration": 0.0416666666666643
                },
                {
                    "name": "C5",
                    "midi": 72,
                    "time": 34.55833333333342,
                    "velocity": 0.47244094488188976,
                    "duration": 0.19166666666666998
                },
                {
                    "name": "G#5",
                    "midi": 80,
                    "time": 34.56250000000009,
                    "velocity": 0.47244094488188976,
                    "duration": 0.32500000000000284
                },
                {
                    "name": "D#5",
                    "midi": 75,
                    "time": 34.70416666666676,
                    "velocity": 0.47244094488188976,
                    "duration": 0.27916666666667567
                },
                {
                    "name": "G#4",
                    "midi": 68,
                    "time": 34.70416666666676,
                    "velocity": 0.47244094488188976,
                    "duration": 0.1875000000000071
                },
                {
                    "name": "G#3",
                    "midi": 56,
                    "time": 34.850000000000094,
                    "velocity": 0.47244094488188976,
                    "duration": 0.22916666666668561
                },
                {
                    "name": "C5",
                    "midi": 72,
                    "time": 34.850000000000094,
                    "velocity": 0.6692913385826772,
                    "duration": 0.17916666666668135
                },
                {
                    "name": "C4",
                    "midi": 60,
                    "time": 34.987500000000104,
                    "velocity": 0.47244094488188976,
                    "duration": 0.13750000000000995
                },
                {
                    "name": "G#4",
                    "midi": 68,
                    "time": 34.991666666666774,
                    "velocity": 0.47244094488188976,
                    "duration": 0.13333333333333997
                },
                {
                    "name": "A#2",
                    "midi": 46,
                    "time": 35.06666666666678,
                    "velocity": 0.47244094488188976,
                    "duration": 0.5458333333333485
                },
                {
                    "name": "D#3",
                    "midi": 51,
                    "time": 35.08750000000011,
                    "velocity": 0.47244094488188976,
                    "duration": 0.5250000000000128
                },
                {
                    "name": "G3",
                    "midi": 55,
                    "time": 35.10833333333345,
                    "velocity": 0.47244094488188976,
                    "duration": 0.5041666666666771
                },
                {
                    "name": "C#4",
                    "midi": 61,
                    "time": 35.13750000000012,
                    "velocity": 0.47244094488188976,
                    "duration": 0.32500000000000284
                },
                {
                    "name": "D#4",
                    "midi": 63,
                    "time": 35.27916666666679,
                    "velocity": 0.47244094488188976,
                    "duration": 0.28333333333333144
                },
                {
                    "name": "C#5",
                    "midi": 73,
                    "time": 35.27916666666679,
                    "velocity": 0.47244094488188976,
                    "duration": 0.18333333333333002
                },
                {
                    "name": "G4",
                    "midi": 67,
                    "time": 35.42916666666679,
                    "velocity": 0.47244094488188976,
                    "duration": 0.18333333333333712
                },
                {
                    "name": "D#5",
                    "midi": 75,
                    "time": 35.42916666666679,
                    "velocity": 0.47244094488188976,
                    "duration": 0.18333333333333712
                },
                {
                    "name": "C#5",
                    "midi": 73,
                    "time": 35.56666666666679,
                    "velocity": 0.6692913385826772,
                    "duration": 0.04583333333333428
                },
                {
                    "name": "C#4",
                    "midi": 61,
                    "time": 35.56666666666679,
                    "velocity": 0.47244094488188976,
                    "duration": 0.08749999999999858
                },
                {
                    "name": "G5",
                    "midi": 79,
                    "time": 35.56666666666679,
                    "velocity": 0.6692913385826772,
                    "duration": 0.13750000000000284
                },
                {
                    "name": "G#2",
                    "midi": 44,
                    "time": 35.637500000000124,
                    "velocity": 0.47244094488188976,
                    "duration": 0.49166666666667425
                },
                {
                    "name": "D#3",
                    "midi": 51,
                    "time": 35.66666666666679,
                    "velocity": 0.47244094488188976,
                    "duration": 0.9375000000000142
                },
                {
                    "name": "G3",
                    "midi": 55,
                    "time": 35.68750000000013,
                    "velocity": 0.47244094488188976,
                    "duration": 0.5875000000000057
                },
                {
                    "name": "C#4",
                    "midi": 61,
                    "time": 35.708333333333464,
                    "velocity": 0.47244094488188976,
                    "duration": 0.6125000000000114
                },
                {
                    "name": "C#5",
                    "midi": 73,
                    "time": 35.7791666666668,
                    "velocity": 0.47244094488188976,
                    "duration": 0.03750000000000142
                },
                {
                    "name": "G4",
                    "midi": 67,
                    "time": 35.85000000000013,
                    "velocity": 0.47244094488188976,
                    "duration": 0.27916666666666856
                },
                {
                    "name": "D#5",
                    "midi": 75,
                    "time": 35.85000000000013,
                    "velocity": 0.47244094488188976,
                    "duration": 0.17916666666666714
                },
                {
                    "name": "G5",
                    "midi": 79,
                    "time": 35.991666666666795,
                    "velocity": 0.47244094488188976,
                    "duration": 0.23333333333333428
                },
                {
                    "name": "A#4",
                    "midi": 70,
                    "time": 36.00000000000013,
                    "velocity": 0.47244094488188976,
                    "duration": 0.17916666666666714
                },
                {
                    "name": "D#5",
                    "midi": 75,
                    "time": 36.13750000000013,
                    "velocity": 0.47244094488188976,
                    "duration": 0.0416666666666643
                },
                {
                    "name": "C#6",
                    "midi": 85,
                    "time": 36.13750000000013,
                    "velocity": 0.47244094488188976,
                    "duration": 0.17916666666667425
                },
                {
                    "name": "G#2",
                    "midi": 44,
                    "time": 36.21250000000013,
                    "velocity": 0.47244094488188976,
                    "duration": 0.39166666666667993
                },
                {
                    "name": "G#3",
                    "midi": 56,
                    "time": 36.2541666666668,
                    "velocity": 0.47244094488188976,
                    "duration": 0.34583333333333854
                },
                {
                    "name": "C6",
                    "midi": 84,
                    "time": 36.275000000000134,
                    "velocity": 0.6692913385826772,
                    "duration": 0.1875000000000071
                },
                {
                    "name": "D#5",
                    "midi": 75,
                    "time": 36.279166666666804,
                    "velocity": 0.6692913385826772,
                    "duration": 0.17500000000000426
                },
                {
                    "name": "C4",
                    "midi": 60,
                    "time": 36.279166666666804,
                    "velocity": 0.47244094488188976,
                    "duration": 0.18333333333333712
                },
                {
                    "name": "C5",
                    "midi": 72,
                    "time": 36.279166666666804,
                    "velocity": 0.6692913385826772,
                    "duration": 0.041666666666671404
                },
                {
                    "name": "C5",
                    "midi": 72,
                    "time": 36.416666666666806,
                    "velocity": 0.47244094488188976,
                    "duration": 0.04583333333333428
                },
                {
                    "name": "G#5",
                    "midi": 80,
                    "time": 36.42500000000014,
                    "velocity": 0.47244094488188976,
                    "duration": 0.03750000000000142
                },
                {
                    "name": "G#5",
                    "midi": 80,
                    "time": 36.566666666666805,
                    "velocity": 0.6692913385826772,
                    "duration": 0.18333333333333002
                },
                {
                    "name": "C4",
                    "midi": 60,
                    "time": 36.566666666666805,
                    "velocity": 0.47244094488188976,
                    "duration": 0.18333333333333002
                },
                {
                    "name": "C5",
                    "midi": 72,
                    "time": 36.566666666666805,
                    "velocity": 0.6692913385826772,
                    "duration": 0.18333333333333002
                },
                {
                    "name": "G#4",
                    "midi": 68,
                    "time": 36.70833333333347,
                    "velocity": 0.47244094488188976,
                    "duration": 0.0416666666666643
                },
                {
                    "name": "D#5",
                    "midi": 75,
                    "time": 36.70833333333347,
                    "velocity": 0.47244094488188976,
                    "duration": 0.0416666666666643
                },
                {
                    "name": "C4",
                    "midi": 60,
                    "time": 36.8541666666668,
                    "velocity": 0.47244094488188976,
                    "duration": 0.32500000000000284
                },
                {
                    "name": "G#4",
                    "midi": 68,
                    "time": 36.8541666666668,
                    "velocity": 0.47244094488188976,
                    "duration": 0.18333333333333712
                },
                {
                    "name": "D#5",
                    "midi": 75,
                    "time": 36.8541666666668,
                    "velocity": 0.47244094488188976,
                    "duration": 0.13750000000000284
                },
                {
                    "name": "F#3",
                    "midi": 54,
                    "time": 36.8541666666668,
                    "velocity": 0.47244094488188976,
                    "duration": 0.32500000000000284
                },
                {
                    "name": "G#3",
                    "midi": 56,
                    "time": 36.8541666666668,
                    "velocity": 0.47244094488188976,
                    "duration": 0.32500000000000284
                },
                {
                    "name": "D#4",
                    "midi": 63,
                    "time": 37.000000000000135,
                    "velocity": 0.47244094488188976,
                    "duration": 0.03750000000000142
                },
                {
                    "name": "C5",
                    "midi": 72,
                    "time": 37.000000000000135,
                    "velocity": 0.47244094488188976,
                    "duration": 0.03750000000000142
                },
                {
                    "name": "D#4",
                    "midi": 63,
                    "time": 37.13750000000014,
                    "velocity": 0.47244094488188976,
                    "duration": 0.1875
                },
                {
                    "name": "C5",
                    "midi": 72,
                    "time": 37.13750000000014,
                    "velocity": 0.47244094488188976,
                    "duration": 0.1875
                },
                {
                    "name": "G#3",
                    "midi": 56,
                    "time": 37.283333333333466,
                    "velocity": 0.47244094488188976,
                    "duration": 0.0833333333333357
                },
                {
                    "name": "G#4",
                    "midi": 68,
                    "time": 37.287500000000136,
                    "velocity": 0.6692913385826772,
                    "duration": 0.12916666666666288
                },
                {
                    "name": "F3",
                    "midi": 53,
                    "time": 37.42500000000013,
                    "velocity": 0.47244094488188976,
                    "duration": 0.5666666666666629
                },
                {
                    "name": "G#3",
                    "midi": 56,
                    "time": 37.42500000000013,
                    "velocity": 0.47244094488188976,
                    "duration": 0.5666666666666629
                },
                {
                    "name": "F4",
                    "midi": 65,
                    "time": 37.42500000000013,
                    "velocity": 0.47244094488188976,
                    "duration": 0.46666666666666856
                },
                {
                    "name": "C#5",
                    "midi": 73,
                    "time": 37.42500000000013,
                    "velocity": 0.47244094488188976,
                    "duration": 0.1875
                },
                {
                    "name": "C#4",
                    "midi": 61,
                    "time": 37.45000000000013,
                    "velocity": 0.47244094488188976,
                    "duration": 0.7291666666666643
                },
                {
                    "name": "G#4",
                    "midi": 68,
                    "time": 37.57500000000013,
                    "velocity": 0.47244094488188976,
                    "duration": 0.36666666666666714
                },
                {
                    "name": "F5",
                    "midi": 77,
                    "time": 37.57500000000013,
                    "velocity": 0.47244094488188976,
                    "duration": 0.22500000000000142
                },
                {
                    "name": "C#5",
                    "midi": 73,
                    "time": 37.712500000000134,
                    "velocity": 0.47244094488188976,
                    "duration": 0.3291666666666586
                },
                {
                    "name": "G#5",
                    "midi": 80,
                    "time": 37.712500000000134,
                    "velocity": 0.47244094488188976,
                    "duration": 0.3291666666666586
                },
                {
                    "name": "C#6",
                    "midi": 85,
                    "time": 37.900000000000134,
                    "velocity": 0.47244094488188976,
                    "duration": 0.0416666666666643
                },
                {
                    "name": "F5",
                    "midi": 77,
                    "time": 37.900000000000134,
                    "velocity": 0.47244094488188976,
                    "duration": 0.0416666666666643
                },
                {
                    "name": "F5",
                    "midi": 77,
                    "time": 38.00000000000013,
                    "velocity": 0.47244094488188976,
                    "duration": 0.1875
                },
                {
                    "name": "C#6",
                    "midi": 85,
                    "time": 38.00000000000013,
                    "velocity": 0.47244094488188976,
                    "duration": 0.3291666666666657
                },
                {
                    "name": "C#5",
                    "midi": 73,
                    "time": 38.141666666666794,
                    "velocity": 0.47244094488188976,
                    "duration": 0.1875
                },
                {
                    "name": "G#5",
                    "midi": 80,
                    "time": 38.141666666666794,
                    "velocity": 0.47244094488188976,
                    "duration": 0.28333333333333144
                },
                {
                    "name": "F5",
                    "midi": 77,
                    "time": 38.29166666666679,
                    "velocity": 0.6692913385826772,
                    "duration": 0.18333333333333712
                },
                {
                    "name": "C#4",
                    "midi": 61,
                    "time": 38.29166666666679,
                    "velocity": 0.47244094488188976,
                    "duration": 0.2750000000000057
                },
                {
                    "name": "G#4",
                    "midi": 68,
                    "time": 38.29166666666679,
                    "velocity": 0.6692913385826772,
                    "duration": 0.18333333333333712
                },
                {
                    "name": "F4",
                    "midi": 65,
                    "time": 38.429166666666795,
                    "velocity": 0.47244094488188976,
                    "duration": 0.09583333333333144
                },
                {
                    "name": "C#5",
                    "midi": 73,
                    "time": 38.429166666666795,
                    "velocity": 0.47244094488188976,
                    "duration": 0.13750000000000284
                },
                {
                    "name": "D#3",
                    "midi": 51,
                    "time": 38.50833333333346,
                    "velocity": 0.47244094488188976,
                    "duration": 0.5333333333333528
                },
                {
                    "name": "G#3",
                    "midi": 56,
                    "time": 38.5291666666668,
                    "velocity": 0.47244094488188976,
                    "duration": 0.512500000000017
                },
                {
                    "name": "C4",
                    "midi": 60,
                    "time": 38.554166666666795,
                    "velocity": 0.47244094488188976,
                    "duration": 0.4875000000000185
                },
                {
                    "name": "F#4",
                    "midi": 66,
                    "time": 38.5791666666668,
                    "velocity": 0.6692913385826772,
                    "duration": 0.32500000000000995
                },
                {
                    "name": "F#5",
                    "midi": 78,
                    "time": 38.716666666666804,
                    "velocity": 0.47244094488188976,
                    "duration": 0.18333333333333712
                },
                {
                    "name": "G#4",
                    "midi": 68,
                    "time": 38.716666666666804,
                    "velocity": 0.47244094488188976,
                    "duration": 0.28333333333333854
                },
                {
                    "name": "C5",
                    "midi": 72,
                    "time": 38.86250000000014,
                    "velocity": 0.47244094488188976,
                    "duration": 0.17916666666667425
                },
                {
                    "name": "G#5",
                    "midi": 80,
                    "time": 38.86250000000014,
                    "velocity": 0.47244094488188976,
                    "duration": 0.17916666666667425
                },
                {
                    "name": "F#5",
                    "midi": 78,
                    "time": 39.00000000000014,
                    "velocity": 0.47244094488188976,
                    "duration": 0.13750000000000284
                },
                {
                    "name": "C6",
                    "midi": 84,
                    "time": 39.00416666666681,
                    "velocity": 0.6692913385826772,
                    "duration": 0.13333333333333286
                },
                {
                    "name": "F#4",
                    "midi": 66,
                    "time": 39.02916666666681,
                    "velocity": 0.6692913385826772,
                    "duration": 0.0625
                },
                {
                    "name": "C#3",
                    "midi": 49,
                    "time": 39.10416666666681,
                    "velocity": 0.47244094488188976,
                    "duration": 0.5249999999999986
                },
                {
                    "name": "G#3",
                    "midi": 56,
                    "time": 39.12083333333348,
                    "velocity": 0.47244094488188976,
                    "duration": 0.5041666666666629
                },
                {
                    "name": "C4",
                    "midi": 60,
                    "time": 39.141666666666815,
                    "velocity": 0.47244094488188976,
                    "duration": 0.5333333333333314
                },
                {
                    "name": "F#4",
                    "midi": 66,
                    "time": 39.16666666666681,
                    "velocity": 0.6692913385826772,
                    "duration": 0.6083333333333485
                },
                {
                    "name": "C5",
                    "midi": 72,
                    "time": 39.295833333333476,
                    "velocity": 0.47244094488188976,
                    "duration": 0.27916666666666146
                },
                {
                    "name": "G#5",
                    "midi": 80,
                    "time": 39.295833333333476,
                    "velocity": 0.47244094488188976,
                    "duration": 0.18333333333333002
                },
                {
                    "name": "C6",
                    "midi": 84,
                    "time": 39.43750000000014,
                    "velocity": 0.47244094488188976,
                    "duration": 0.1875
                },
                {
                    "name": "D#5",
                    "midi": 75,
                    "time": 39.43750000000014,
                    "velocity": 0.47244094488188976,
                    "duration": 0.1875
                },
                {
                    "name": "G#5",
                    "midi": 80,
                    "time": 39.58750000000014,
                    "velocity": 0.47244094488188976,
                    "duration": 0.03750000000000142
                },
                {
                    "name": "F#6",
                    "midi": 90,
                    "time": 39.58750000000014,
                    "velocity": 0.47244094488188976,
                    "duration": 0.18333333333335133
                },
                {
                    "name": "C#3",
                    "midi": 49,
                    "time": 39.68333333333348,
                    "velocity": 0.47244094488188976,
                    "duration": 0.22916666666668561
                },
                {
                    "name": "G#3",
                    "midi": 56,
                    "time": 39.704166666666815,
                    "velocity": 0.47244094488188976,
                    "duration": 0.3541666666666856
                },
                {
                    "name": "F6",
                    "midi": 89,
                    "time": 39.72500000000015,
                    "velocity": 0.47244094488188976,
                    "duration": 0.18333333333334423
                },
                {
                    "name": "C#4",
                    "midi": 61,
                    "time": 39.72916666666682,
                    "velocity": 0.47244094488188976,
                    "duration": 0.32916666666667993
                },
                {
                    "name": "G#5",
                    "midi": 80,
                    "time": 39.72916666666682,
                    "velocity": 0.6692913385826772,
                    "duration": 0.17916666666667425
                },
                {
                    "name": "F4",
                    "midi": 65,
                    "time": 39.75833333333349,
                    "velocity": 0.6692913385826772,
                    "duration": 0.30000000000001137
                },
                {
                    "name": "F5",
                    "midi": 77,
                    "time": 39.87083333333349,
                    "velocity": 0.47244094488188976,
                    "duration": 0.1875000000000071
                },
                {
                    "name": "C#6",
                    "midi": 85,
                    "time": 39.87083333333349,
                    "velocity": 0.47244094488188976,
                    "duration": 0.18333333333333712
                },
                {
                    "name": "A5",
                    "midi": 81,
                    "time": 40.01666666666683,
                    "velocity": 0.47244094488188976,
                    "duration": 0.18333333333333712
                },
                {
                    "name": "F#6",
                    "midi": 90,
                    "time": 40.01666666666683,
                    "velocity": 0.47244094488188976,
                    "duration": 0.18333333333333712
                },
                {
                    "name": "D#5",
                    "midi": 75,
                    "time": 40.01666666666683,
                    "velocity": 0.47244094488188976,
                    "duration": 0.3291666666666728
                },
                {
                    "name": "C#3",
                    "midi": 49,
                    "time": 40.02500000000016,
                    "velocity": 0.47244094488188976,
                    "duration": 0.4625000000000057
                },
                {
                    "name": "D#4",
                    "midi": 63,
                    "time": 40.06666666666683,
                    "velocity": 0.47244094488188976,
                    "duration": 0.27916666666666856
                },
                {
                    "name": "F#5",
                    "midi": 78,
                    "time": 40.1583333333335,
                    "velocity": 0.47244094488188976,
                    "duration": 0.18333333333333002
                },
                {
                    "name": "C6",
                    "midi": 84,
                    "time": 40.1583333333335,
                    "velocity": 0.47244094488188976,
                    "duration": 0.1875
                },
                {
                    "name": "C#4",
                    "midi": 61,
                    "time": 40.30416666666683,
                    "velocity": 0.47244094488188976,
                    "duration": 0.32500000000001705
                },
                {
                    "name": "C#5",
                    "midi": 73,
                    "time": 40.30416666666683,
                    "velocity": 0.6692913385826772,
                    "duration": 0.32083333333334707
                },
                {
                    "name": "A#5",
                    "midi": 82,
                    "time": 40.30416666666683,
                    "velocity": 0.6692913385826772,
                    "duration": 0.18333333333333712
                },
                {
                    "name": "F6",
                    "midi": 89,
                    "time": 40.30416666666683,
                    "velocity": 0.6692913385826772,
                    "duration": 0.17500000000000426
                },
                {
                    "name": "F5",
                    "midi": 77,
                    "time": 40.44166666666683,
                    "velocity": 0.47244094488188976,
                    "duration": 0.1875000000000142
                },
                {
                    "name": "C#6",
                    "midi": 85,
                    "time": 40.44166666666683,
                    "velocity": 0.47244094488188976,
                    "duration": 0.18333333333334423
                },
                {
                    "name": "C6",
                    "midi": 84,
                    "time": 40.58750000000017,
                    "velocity": 0.47244094488188976,
                    "duration": 0.1875000000000142
                },
                {
                    "name": "A6",
                    "midi": 93,
                    "time": 40.58750000000017,
                    "velocity": 0.47244094488188976,
                    "duration": 0.1875000000000142
                },
                {
                    "name": "C#3",
                    "midi": 49,
                    "time": 40.59166666666684,
                    "velocity": 0.47244094488188976,
                    "duration": 0.1875000000000142
                },
                {
                    "name": "C5",
                    "midi": 72,
                    "time": 40.59166666666684,
                    "velocity": 0.6692913385826772,
                    "duration": 0.2750000000000128
                },
                {
                    "name": "C4",
                    "midi": 60,
                    "time": 40.612500000000175,
                    "velocity": 0.47244094488188976,
                    "duration": 0.26250000000000995
                },
                {
                    "name": "A5",
                    "midi": 81,
                    "time": 40.72916666666685,
                    "velocity": 0.47244094488188976,
                    "duration": 0.13750000000000284
                },
                {
                    "name": "D#6",
                    "midi": 87,
                    "time": 40.73333333333352,
                    "velocity": 0.47244094488188976,
                    "duration": 0.13333333333333286
                },
                {
                    "name": "G3",
                    "midi": 55,
                    "time": 40.879166666666855,
                    "velocity": 0.47244094488188976,
                    "duration": 0.8458333333333314
                },
                {
                    "name": "A#4",
                    "midi": 70,
                    "time": 40.879166666666855,
                    "velocity": 0.47244094488188976,
                    "duration": 0.8500000000000014
                },
                {
                    "name": "E6",
                    "midi": 88,
                    "time": 40.879166666666855,
                    "velocity": 0.47244094488188976,
                    "duration": 0.32500000000000284
                },
                {
                    "name": "A#6",
                    "midi": 94,
                    "time": 40.879166666666855,
                    "velocity": 0.47244094488188976,
                    "duration": 0.47083333333333854
                },
                {
                    "name": "C#3",
                    "midi": 49,
                    "time": 40.883333333333525,
                    "velocity": 0.47244094488188976,
                    "duration": 0.8458333333333314
                },
                {
                    "name": "A#3",
                    "midi": 58,
                    "time": 40.90000000000019,
                    "velocity": 0.47244094488188976,
                    "duration": 0.8249999999999957
                },
                {
                    "name": "A#5",
                    "midi": 82,
                    "time": 41.166666666666856,
                    "velocity": 0.47244094488188976,
                    "duration": 0.23333333333333428
                },
                {
                    "name": "G6",
                    "midi": 91,
                    "time": 41.166666666666856,
                    "velocity": 0.47244094488188976,
                    "duration": 0.2749999999999986
                },
                {
                    "name": "E6",
                    "midi": 88,
                    "time": 41.31250000000019,
                    "velocity": 0.47244094488188976,
                    "duration": 0.2291666666666643
                },
                {
                    "name": "G5",
                    "midi": 79,
                    "time": 41.31666666666686,
                    "velocity": 0.47244094488188976,
                    "duration": 0.22499999999999432
                },
                {
                    "name": "E5",
                    "midi": 76,
                    "time": 41.504166666666855,
                    "velocity": 0.47244094488188976,
                    "duration": 0.03750000000000142
                },
                {
                    "name": "A#5",
                    "midi": 82,
                    "time": 41.504166666666855,
                    "velocity": 0.47244094488188976,
                    "duration": 0.03750000000000142
                },
                {
                    "name": "A#5",
                    "midi": 82,
                    "time": 41.59166666666685,
                    "velocity": 0.47244094488188976,
                    "duration": 0.1875
                },
                {
                    "name": "E5",
                    "midi": 76,
                    "time": 41.600000000000186,
                    "velocity": 0.47244094488188976,
                    "duration": 0.17916666666666714
                },
                {
                    "name": "G5",
                    "midi": 79,
                    "time": 41.73750000000019,
                    "velocity": 0.47244094488188976,
                    "duration": 0.17916666666666714
                },
                {
                    "name": "E6",
                    "midi": 88,
                    "time": 41.73750000000019,
                    "velocity": 0.47244094488188976,
                    "duration": 0.17916666666666714
                },
                {
                    "name": "A#3",
                    "midi": 58,
                    "time": 41.87083333333352,
                    "velocity": 0.47244094488188976,
                    "duration": 0.3333333333333428
                },
                {
                    "name": "E5",
                    "midi": 76,
                    "time": 41.87500000000019,
                    "velocity": 0.6692913385826772,
                    "duration": 0.1875
                },
                {
                    "name": "A#5",
                    "midi": 82,
                    "time": 41.87500000000019,
                    "velocity": 0.6692913385826772,
                    "duration": 0.1875
                },
                {
                    "name": "A#4",
                    "midi": 70,
                    "time": 42.02500000000019,
                    "velocity": 0.47244094488188976,
                    "duration": 0.18333333333334423
                },
                {
                    "name": "G5",
                    "midi": 79,
                    "time": 42.02500000000019,
                    "velocity": 0.47244094488188976,
                    "duration": 0.18333333333334423
                },
                {
                    "name": "C#3",
                    "midi": 49,
                    "time": 42.14583333333353,
                    "velocity": 0.47244094488188976,
                    "duration": 0.5875000000000128
                },
                {
                    "name": "G3",
                    "midi": 55,
                    "time": 42.16666666666686,
                    "velocity": 0.47244094488188976,
                    "duration": 0.5666666666666771
                },
                {
                    "name": "G4",
                    "midi": 67,
                    "time": 42.16666666666686,
                    "velocity": 0.47244094488188976,
                    "duration": 0.18333333333333712
                },
                {
                    "name": "C5",
                    "midi": 72,
                    "time": 42.16666666666686,
                    "velocity": 0.47244094488188976,
                    "duration": 0.3333333333333357
                },
                {
                    "name": "E5",
                    "midi": 76,
                    "time": 42.16666666666686,
                    "velocity": 0.47244094488188976,
                    "duration": 0.18333333333333712
                },
                {
                    "name": "C4",
                    "midi": 60,
                    "time": 42.19166666666686,
                    "velocity": 0.47244094488188976,
                    "duration": 0.3083333333333371
                },
                {
                    "name": "A#4",
                    "midi": 70,
                    "time": 42.3125000000002,
                    "velocity": 0.47244094488188976,
                    "duration": 0.1875
                },
                {
                    "name": "G5",
                    "midi": 79,
                    "time": 42.3125000000002,
                    "velocity": 0.47244094488188976,
                    "duration": 0.1875
                },
                {
                    "name": "E5",
                    "midi": 76,
                    "time": 42.454166666666865,
                    "velocity": 0.6692913385826772,
                    "duration": 0.1875000000000071
                },
                {
                    "name": "C#4",
                    "midi": 61,
                    "time": 42.454166666666865,
                    "velocity": 0.47244094488188976,
                    "duration": 0.3333333333333499
                },
                {
                    "name": "C#5",
                    "midi": 73,
                    "time": 42.454166666666865,
                    "velocity": 0.6692913385826772,
                    "duration": 0.32916666666667993
                },
                {
                    "name": "G4",
                    "midi": 67,
                    "time": 42.458333333333535,
                    "velocity": 0.6692913385826772,
                    "duration": 0.17916666666666714
                },
                {
                    "name": "E4",
                    "midi": 64,
                    "time": 42.59583333333353,
                    "velocity": 0.47244094488188976,
                    "duration": 0.13750000000000995
                },
                {
                    "name": "A#4",
                    "midi": 70,
                    "time": 42.6000000000002,
                    "velocity": 0.47244094488188976,
                    "duration": 0.13333333333333997
                },
                {
                    "name": "D#6",
                    "midi": 87,
                    "time": 42.73750000000021,
                    "velocity": 0.47244094488188976,
                    "duration": 0.46666666666667567
                },
                {
                    "name": "F#5",
                    "midi": 78,
                    "time": 42.74166666666688,
                    "velocity": 0.47244094488188976,
                    "duration": 0.32500000000000284
                },
                {
                    "name": "C3",
                    "midi": 48,
                    "time": 42.74166666666688,
                    "velocity": 0.47244094488188976,
                    "duration": 1.2833333333333599
                },
                {
                    "name": "D#5",
                    "midi": 75,
                    "time": 42.74166666666688,
                    "velocity": 0.47244094488188976,
                    "duration": 0.18333333333333712
                },
                {
                    "name": "D#4",
                    "midi": 63,
                    "time": 42.791666666666885,
                    "velocity": 0.47244094488188976,
                    "duration": 0.4166666666666714
                },
                {
                    "name": "D#5",
                    "midi": 75,
                    "time": 43.02916666666688,
                    "velocity": 0.47244094488188976,
                    "duration": 0.2291666666666714
                },
                {
                    "name": "G#5",
                    "midi": 80,
                    "time": 43.02916666666688,
                    "velocity": 0.47244094488188976,
                    "duration": 0.2750000000000057
                },
                {
                    "name": "F#5",
                    "midi": 78,
                    "time": 43.166666666666885,
                    "velocity": 0.6692913385826772,
                    "duration": 0.3333333333333357
                },
                {
                    "name": "G#3",
                    "midi": 56,
                    "time": 43.170833333333555,
                    "velocity": 0.47244094488188976,
                    "duration": 0.17916666666666714
                },
                {
                    "name": "G#4",
                    "midi": 68,
                    "time": 43.170833333333555,
                    "velocity": 0.6692913385826772,
                    "duration": 0.3291666666666657
                },
                {
                    "name": "F#4",
                    "midi": 66,
                    "time": 43.362500000000225,
                    "velocity": 0.47244094488188976,
                    "duration": 0.0416666666666643
                },
                {
                    "name": "D#5",
                    "midi": 75,
                    "time": 43.362500000000225,
                    "velocity": 0.47244094488188976,
                    "duration": 0.0416666666666643
                },
                {
                    "name": "G#3",
                    "midi": 56,
                    "time": 43.454166666666886,
                    "velocity": 0.47244094488188976,
                    "duration": 0.47083333333334565
                },
                {
                    "name": "F#4",
                    "midi": 66,
                    "time": 43.46250000000022,
                    "velocity": 0.6692913385826772,
                    "duration": 0.18333333333334423
                },
                {
                    "name": "D#5",
                    "midi": 75,
                    "time": 43.46250000000022,
                    "velocity": 0.6692913385826772,
                    "duration": 0.17916666666667425
                },
                {
                    "name": "F#5",
                    "midi": 78,
                    "time": 43.60000000000022,
                    "velocity": 0.47244094488188976,
                    "duration": 0.18333333333333712
                },
                {
                    "name": "G#4",
                    "midi": 68,
                    "time": 43.60416666666689,
                    "velocity": 0.47244094488188976,
                    "duration": 0.18333333333333712
                },
                {
                    "name": "F#4",
                    "midi": 66,
                    "time": 43.741666666666895,
                    "velocity": 0.47244094488188976,
                    "duration": 0.18333333333333712
                },
                {
                    "name": "D#5",
                    "midi": 75,
                    "time": 43.75000000000023,
                    "velocity": 0.47244094488188976,
                    "duration": 0.17500000000000426
                },
                {
                    "name": "D#4",
                    "midi": 63,
                    "time": 43.88750000000023,
                    "velocity": 0.47244094488188976,
                    "duration": 0.08333333333334281
                },
                {
                    "name": "G#4",
                    "midi": 68,
                    "time": 43.88750000000023,
                    "velocity": 0.47244094488188976,
                    "duration": 0.041666666666671404
                },
                {
                    "name": "C#3",
                    "midi": 49,
                    "time": 44.02916666666691,
                    "velocity": 0.6692913385826772,
                    "duration": 0.3333333333333357
                },
                {
                    "name": "G#4",
                    "midi": 68,
                    "time": 44.02916666666691,
                    "velocity": 0.6692913385826772,
                    "duration": 0.3333333333333357
                },
                {
                    "name": "F4",
                    "midi": 65,
                    "time": 44.175000000000246,
                    "velocity": 0.47244094488188976,
                    "duration": 0.1875
                },
                {
                    "name": "G#3",
                    "midi": 56,
                    "time": 44.175000000000246,
                    "velocity": 0.47244094488188976,
                    "duration": 0.17916666666666714
                },
                {
                    "name": "C#4",
                    "midi": 61,
                    "time": 44.175000000000246,
                    "velocity": 0.47244094488188976,
                    "duration": 0.17916666666666714
                },
                {
                    "name": "C#5",
                    "midi": 73,
                    "time": 44.31666666666691,
                    "velocity": 0.6692913385826772,
                    "duration": 0.32500000000000284
                },
                {
                    "name": "A#2",
                    "midi": 46,
                    "time": 44.325000000000244,
                    "velocity": 0.6692913385826772,
                    "duration": 0.32083333333333997
                },
                {
                    "name": "E4",
                    "midi": 64,
                    "time": 44.454166666666914,
                    "velocity": 0.47244094488188976,
                    "duration": 0.19166666666666998
                },
                {
                    "name": "C#4",
                    "midi": 61,
                    "time": 44.46250000000025,
                    "velocity": 0.47244094488188976,
                    "duration": 0.17916666666666714
                },
                {
                    "name": "G#4",
                    "midi": 68,
                    "time": 44.46250000000025,
                    "velocity": 0.47244094488188976,
                    "duration": 0.17916666666666714
                },
                {
                    "name": "G#3",
                    "midi": 56,
                    "time": 44.575000000000244,
                    "velocity": 0.47244094488188976,
                    "duration": 0.5000000000000071
                },
                {
                    "name": "D#4",
                    "midi": 63,
                    "time": 44.575000000000244,
                    "velocity": 0.47244094488188976,
                    "duration": 0.4000000000000057
                },
                {
                    "name": "D#3",
                    "midi": 51,
                    "time": 44.579166666666914,
                    "velocity": 0.6692913385826772,
                    "duration": 0.4958333333333371
                },
                {
                    "name": "C4",
                    "midi": 60,
                    "time": 44.60416666666691,
                    "velocity": 0.6692913385826772,
                    "duration": 0.18333333333333712
                },
                {
                    "name": "C5",
                    "midi": 72,
                    "time": 44.60416666666691,
                    "velocity": 0.6692913385826772,
                    "duration": 0.18333333333333712
                },
                {
                    "name": "D#5",
                    "midi": 75,
                    "time": 44.741666666666916,
                    "velocity": 0.47244094488188976,
                    "duration": 0.1875
                },
                {
                    "name": "G#4",
                    "midi": 68,
                    "time": 44.75000000000025,
                    "velocity": 0.47244094488188976,
                    "duration": 0.27916666666666856
                },
                {
                    "name": "G#5",
                    "midi": 80,
                    "time": 44.891666666666914,
                    "velocity": 0.6692913385826772,
                    "duration": 0.18333333333333712
                },
                {
                    "name": "C4",
                    "midi": 60,
                    "time": 44.891666666666914,
                    "velocity": 0.47244094488188976,
                    "duration": 0.23333333333333428
                },
                {
                    "name": "C5",
                    "midi": 72,
                    "time": 44.891666666666914,
                    "velocity": 0.6692913385826772,
                    "duration": 0.18333333333333712
                },
                {
                    "name": "D#5",
                    "midi": 75,
                    "time": 45.03333333333359,
                    "velocity": 0.47244094488188976,
                    "duration": 0.13749999999999574
                },
                {
                    "name": "C6",
                    "midi": 84,
                    "time": 45.03333333333359,
                    "velocity": 0.47244094488188976,
                    "duration": 0.13749999999999574
                },
                {
                    "name": "D#2",
                    "midi": 39,
                    "time": 45.179166666666916,
                    "velocity": 0.47244094488188976,
                    "duration": 0.6208333333333371
                },
                {
                    "name": "G#4",
                    "midi": 68,
                    "time": 45.179166666666916,
                    "velocity": 0.6692913385826772,
                    "duration": 0.38333333333333286
                },
                {
                    "name": "F5",
                    "midi": 77,
                    "time": 45.179166666666916,
                    "velocity": 0.6692913385826772,
                    "duration": 0.1875
                },
                {
                    "name": "C4",
                    "midi": 60,
                    "time": 45.20000000000025,
                    "velocity": 0.47244094488188976,
                    "duration": 0.30833333333333
                },
                {
                    "name": "C#5",
                    "midi": 73,
                    "time": 45.32083333333358,
                    "velocity": 0.47244094488188976,
                    "duration": 0.27916666666666856
                },
                {
                    "name": "G#5",
                    "midi": 80,
                    "time": 45.32500000000025,
                    "velocity": 0.47244094488188976,
                    "duration": 0.18333333333333002
                },
                {
                    "name": "A#3",
                    "midi": 58,
                    "time": 45.46250000000025,
                    "velocity": 0.47244094488188976,
                    "duration": 0.6166666666666742
                },
                {
                    "name": "F5",
                    "midi": 77,
                    "time": 45.46666666666692,
                    "velocity": 0.6692913385826772,
                    "duration": 0.1875
                },
                {
                    "name": "C#6",
                    "midi": 85,
                    "time": 45.46666666666692,
                    "velocity": 0.6692913385826772,
                    "duration": 0.1875
                },
                {
                    "name": "G#5",
                    "midi": 80,
                    "time": 45.61250000000025,
                    "velocity": 0.47244094488188976,
                    "duration": 0.13749999999999574
                },
                {
                    "name": "F6",
                    "midi": 89,
                    "time": 45.61250000000025,
                    "velocity": 0.47244094488188976,
                    "duration": 0.13749999999999574
                },
                {
                    "name": "G4",
                    "midi": 67,
                    "time": 45.75833333333358,
                    "velocity": 0.47244094488188976,
                    "duration": 0.3708333333333371
                },
                {
                    "name": "D#5",
                    "midi": 75,
                    "time": 45.75833333333358,
                    "velocity": 0.47244094488188976,
                    "duration": 0.3291666666666728
                },
                {
                    "name": "C#5",
                    "midi": 73,
                    "time": 45.895833333333584,
                    "velocity": 0.47244094488188976,
                    "duration": 0.2749999999999986
                },
                {
                    "name": "G5",
                    "midi": 79,
                    "time": 45.900000000000254,
                    "velocity": 0.47244094488188976,
                    "duration": 0.0416666666666643
                },
                {
                    "name": "C4",
                    "midi": 60,
                    "time": 46.04166666666692,
                    "velocity": 0.47244094488188976,
                    "duration": 0.3333333333333428
                },
                {
                    "name": "D#6",
                    "midi": 87,
                    "time": 46.04166666666692,
                    "velocity": 0.6692913385826772,
                    "duration": 0.17916666666666714
                },
                {
                    "name": "G5",
                    "midi": 79,
                    "time": 46.05000000000025,
                    "velocity": 0.6692913385826772,
                    "duration": 0.17083333333333428
                },
                {
                    "name": "C#6",
                    "midi": 85,
                    "time": 46.183333333333586,
                    "velocity": 0.47244094488188976,
                    "duration": 0.14166666666667282
                },
                {
                    "name": "G6",
                    "midi": 91,
                    "time": 46.183333333333586,
                    "velocity": 0.47244094488188976,
                    "duration": 0.14166666666667282
                },
                {
                    "name": "G#2",
                    "midi": 44,
                    "time": 46.28750000000026,
                    "velocity": 0.47244094488188976,
                    "duration": 1
                },
                {
                    "name": "D#3",
                    "midi": 51,
                    "time": 46.312500000000256,
                    "velocity": 0.6692913385826772,
                    "duration": 0.9750000000000014
                },
                {
                    "name": "G#3",
                    "midi": 56,
                    "time": 46.33333333333359,
                    "velocity": 0.47244094488188976,
                    "duration": 0.9541666666666657
                },
                {
                    "name": "C5",
                    "midi": 72,
                    "time": 46.33750000000026,
                    "velocity": 0.6692913385826772,
                    "duration": 0.46666666666666856
                },
                {
                    "name": "G#5",
                    "midi": 80,
                    "time": 46.33750000000026,
                    "velocity": 0.6692913385826772,
                    "duration": 0.17916666666666714
                },
                {
                    "name": "D#5",
                    "midi": 75,
                    "time": 46.475000000000264,
                    "velocity": 0.47244094488188976,
                    "duration": 0.37916666666667
                },
                {
                    "name": "C6",
                    "midi": 84,
                    "time": 46.475000000000264,
                    "velocity": 0.47244094488188976,
                    "duration": 0.23333333333333428
                },
                {
                    "name": "D#6",
                    "midi": 87,
                    "time": 46.62083333333359,
                    "velocity": 0.47244094488188976,
                    "duration": 0.32500000000000284
                },
                {
                    "name": "G#5",
                    "midi": 80,
                    "time": 46.62500000000026,
                    "velocity": 0.47244094488188976,
                    "duration": 0.32083333333333286
                },
                {
                    "name": "C6",
                    "midi": 84,
                    "time": 46.81666666666693,
                    "velocity": 0.47244094488188976,
                    "duration": 0.03750000000000142
                },
                {
                    "name": "G#6",
                    "midi": 92,
                    "time": 46.81666666666693,
                    "velocity": 0.47244094488188976,
                    "duration": 0.03750000000000142
                },
                {
                    "name": "C6",
                    "midi": 84,
                    "time": 46.912500000000264,
                    "velocity": 0.47244094488188976,
                    "duration": 0.18333333333333002
                },
                {
                    "name": "G#6",
                    "midi": 92,
                    "time": 46.912500000000264,
                    "velocity": 0.47244094488188976,
                    "duration": 0.32499999999999574
                },
                {
                    "name": "D#6",
                    "midi": 87,
                    "time": 47.05000000000026,
                    "velocity": 0.47244094488188976,
                    "duration": 0.3291666666666657
                },
                {
                    "name": "G#5",
                    "midi": 80,
                    "time": 47.05416666666693,
                    "velocity": 0.47244094488188976,
                    "duration": 0.18333333333333002
                },
                {
                    "name": "D#5",
                    "midi": 75,
                    "time": 47.20000000000026,
                    "velocity": 0.47244094488188976,
                    "duration": 0.17916666666666714
                },
                {
                    "name": "C6",
                    "midi": 84,
                    "time": 47.20000000000026,
                    "velocity": 0.47244094488188976,
                    "duration": 0.32500000000000995
                },
                {
                    "name": "C5",
                    "midi": 72,
                    "time": 47.341666666666924,
                    "velocity": 0.47244094488188976,
                    "duration": 0.18333333333334423
                },
                {
                    "name": "G#5",
                    "midi": 80,
                    "time": 47.341666666666924,
                    "velocity": 0.47244094488188976,
                    "duration": 0.18333333333334423
                },
                {
                    "name": "D#5",
                    "midi": 75,
                    "time": 47.4833333333336,
                    "velocity": 0.47244094488188976,
                    "duration": 0.18333333333333712
                },
                {
                    "name": "G#4",
                    "midi": 68,
                    "time": 47.48750000000027,
                    "velocity": 0.47244094488188976,
                    "duration": 0.375
                },
                {
                    "name": "C5",
                    "midi": 72,
                    "time": 47.62916666666693,
                    "velocity": 0.47244094488188976,
                    "duration": 0.32500000000000284
                },
                {
                    "name": "G#5",
                    "midi": 80,
                    "time": 47.62916666666693,
                    "velocity": 0.47244094488188976,
                    "duration": 0.1875
                },
                {
                    "name": "D#5",
                    "midi": 75,
                    "time": 47.7708333333336,
                    "velocity": 0.47244094488188976,
                    "duration": 0.27916666666666856
                },
                {
                    "name": "C6",
                    "midi": 84,
                    "time": 47.7708333333336,
                    "velocity": 0.47244094488188976,
                    "duration": 0.27916666666666856
                },
                {
                    "name": "D#6",
                    "midi": 87,
                    "time": 47.912500000000264,
                    "velocity": 0.47244094488188976,
                    "duration": 0.1875000000000071
                },
                {
                    "name": "G#5",
                    "midi": 80,
                    "time": 47.916666666666934,
                    "velocity": 0.47244094488188976,
                    "duration": 0.1875000000000071
                },
                {
                    "name": "D#4",
                    "midi": 63,
                    "time": 48.06250000000027,
                    "velocity": 0.47244094488188976,
                    "duration": 0.42500000000000426
                },
                {
                    "name": "C5",
                    "midi": 72,
                    "time": 48.06250000000027,
                    "velocity": 0.47244094488188976,
                    "duration": 0.1875000000000071
                },
                {
                    "name": "D#5",
                    "midi": 75,
                    "time": 48.20416666666694,
                    "velocity": 0.47244094488188976,
                    "duration": 0.23333333333333428
                },
                {
                    "name": "G#4",
                    "midi": 68,
                    "time": 48.20416666666694,
                    "velocity": 0.47244094488188976,
                    "duration": 0.38333333333333286
                },
                {
                    "name": "C5",
                    "midi": 72,
                    "time": 48.35416666666694,
                    "velocity": 0.47244094488188976,
                    "duration": 0.32083333333333286
                },
                {
                    "name": "G#5",
                    "midi": 80,
                    "time": 48.35416666666694,
                    "velocity": 0.47244094488188976,
                    "duration": 0.32083333333333286
                },
                {
                    "name": "C6",
                    "midi": 84,
                    "time": 48.54166666666694,
                    "velocity": 0.47244094488188976,
                    "duration": 0.03750000000000142
                },
                {
                    "name": "D#5",
                    "midi": 75,
                    "time": 48.54166666666694,
                    "velocity": 0.47244094488188976,
                    "duration": 0.03750000000000142
                },
                {
                    "name": "D#5",
                    "midi": 75,
                    "time": 48.63750000000027,
                    "velocity": 0.47244094488188976,
                    "duration": 0.18333333333333712
                },
                {
                    "name": "C6",
                    "midi": 84,
                    "time": 48.63750000000027,
                    "velocity": 0.47244094488188976,
                    "duration": 0.37916666666667
                },
                {
                    "name": "C5",
                    "midi": 72,
                    "time": 48.78333333333361,
                    "velocity": 0.47244094488188976,
                    "duration": 0.17916666666666714
                },
                {
                    "name": "G#5",
                    "midi": 80,
                    "time": 48.78333333333361,
                    "velocity": 0.47244094488188976,
                    "duration": 0.3291666666666657
                },
                {
                    "name": "G#4",
                    "midi": 68,
                    "time": 48.925000000000274,
                    "velocity": 0.47244094488188976,
                    "duration": 0.1875
                },
                {
                    "name": "D#5",
                    "midi": 75,
                    "time": 48.925000000000274,
                    "velocity": 0.47244094488188976,
                    "duration": 0.3291666666666657
                },
                {
                    "name": "D#4",
                    "midi": 63,
                    "time": 49.07083333333361,
                    "velocity": 0.47244094488188976,
                    "duration": 0.1875
                },
                {
                    "name": "C5",
                    "midi": 72,
                    "time": 49.07083333333361,
                    "velocity": 0.47244094488188976,
                    "duration": 0.18333333333333002
                },
                {
                    "name": "C4",
                    "midi": 60,
                    "time": 49.212500000000276,
                    "velocity": 0.47244094488188976,
                    "duration": 0.37916666666667
                },
                {
                    "name": "G#4",
                    "midi": 68,
                    "time": 49.212500000000276,
                    "velocity": 0.47244094488188976,
                    "duration": 0.1875000000000071
                },
                {
                    "name": "C5",
                    "midi": 72,
                    "time": 49.35833333333361,
                    "velocity": 0.47244094488188976,
                    "duration": 0.18333333333333712
                },
                {
                    "name": "D#4",
                    "midi": 63,
                    "time": 49.36250000000028,
                    "velocity": 0.47244094488188976,
                    "duration": 0.32083333333333286
                },
                {
                    "name": "G#4",
                    "midi": 68,
                    "time": 49.50416666666695,
                    "velocity": 0.47244094488188976,
                    "duration": 0.27916666666666856
                },
                {
                    "name": "D#5",
                    "midi": 75,
                    "time": 49.50416666666695,
                    "velocity": 0.47244094488188976,
                    "duration": 0.27916666666666856
                },
                {
                    "name": "G#5",
                    "midi": 80,
                    "time": 49.64166666666694,
                    "velocity": 0.47244094488188976,
                    "duration": 0.1875000000000142
                },
                {
                    "name": "C5",
                    "midi": 72,
                    "time": 49.64583333333361,
                    "velocity": 0.47244094488188976,
                    "duration": 0.18333333333334423
                },
                {
                    "name": "G#3",
                    "midi": 56,
                    "time": 49.787500000000286,
                    "velocity": 0.47244094488188976,
                    "duration": 0.4750000000000085
                },
                {
                    "name": "D#4",
                    "midi": 63,
                    "time": 49.791666666666956,
                    "velocity": 0.47244094488188976,
                    "duration": 0.17916666666667425
                },
                {
                    "name": "C4",
                    "midi": 60,
                    "time": 49.92916666666696,
                    "velocity": 0.47244094488188976,
                    "duration": 0.37916666666667
                },
                {
                    "name": "G#4",
                    "midi": 68,
                    "time": 49.93333333333363,
                    "velocity": 0.47244094488188976,
                    "duration": 0.22500000000000142
                },
                {
                    "name": "D#4",
                    "midi": 63,
                    "time": 50.075000000000294,
                    "velocity": 0.47244094488188976,
                    "duration": 0.3291666666666657
                },
                {
                    "name": "C5",
                    "midi": 72,
                    "time": 50.075000000000294,
                    "velocity": 0.47244094488188976,
                    "duration": 0.3291666666666657
                },
                {
                    "name": "G#4",
                    "midi": 68,
                    "time": 50.266666666666964,
                    "velocity": 0.47244094488188976,
                    "duration": 0.0416666666666643
                },
                {
                    "name": "D#5",
                    "midi": 75,
                    "time": 50.266666666666964,
                    "velocity": 0.47244094488188976,
                    "duration": 0.0416666666666643
                },
                {
                    "name": "G#4",
                    "midi": 68,
                    "time": 50.362500000000296,
                    "velocity": 0.47244094488188976,
                    "duration": 0.1875
                },
                {
                    "name": "D#5",
                    "midi": 75,
                    "time": 50.362500000000296,
                    "velocity": 0.47244094488188976,
                    "duration": 0.375
                },
                {
                    "name": "D#4",
                    "midi": 63,
                    "time": 50.50416666666696,
                    "velocity": 0.47244094488188976,
                    "duration": 0.1875
                },
                {
                    "name": "C5",
                    "midi": 72,
                    "time": 50.50416666666696,
                    "velocity": 0.47244094488188976,
                    "duration": 0.3291666666666728
                },
                {
                    "name": "C4",
                    "midi": 60,
                    "time": 50.6500000000003,
                    "velocity": 0.47244094488188976,
                    "duration": 0.18333333333333712
                },
                {
                    "name": "G#4",
                    "midi": 68,
                    "time": 50.6500000000003,
                    "velocity": 0.47244094488188976,
                    "duration": 0.3291666666666728
                },
                {
                    "name": "G#3",
                    "midi": 56,
                    "time": 50.79166666666696,
                    "velocity": 0.47244094488188976,
                    "duration": 0.18333333333333712
                },
                {
                    "name": "D#4",
                    "midi": 63,
                    "time": 50.79166666666696,
                    "velocity": 0.47244094488188976,
                    "duration": 0.1875000000000071
                },
                {
                    "name": "D#3",
                    "midi": 51,
                    "time": 50.9375000000003,
                    "velocity": 0.47244094488188976,
                    "duration": 0.42500000000000426
                },
                {
                    "name": "C4",
                    "midi": 60,
                    "time": 50.9375000000003,
                    "velocity": 0.47244094488188976,
                    "duration": 0.18333333333333712
                },
                {
                    "name": "G#3",
                    "midi": 56,
                    "time": 51.07916666666697,
                    "velocity": 0.47244094488188976,
                    "duration": 0.32500000000000284
                },
                {
                    "name": "D#4",
                    "midi": 63,
                    "time": 51.07916666666697,
                    "velocity": 0.47244094488188976,
                    "duration": 0.18333333333333002
                },
                {
                    "name": "C4",
                    "midi": 60,
                    "time": 51.2250000000003,
                    "velocity": 0.47244094488188976,
                    "duration": 0.17916666666667425
                },
                {
                    "name": "G#4",
                    "midi": 68,
                    "time": 51.2250000000003,
                    "velocity": 0.47244094488188976,
                    "duration": 0.27916666666667567
                },
                {
                    "name": "D#4",
                    "midi": 63,
                    "time": 51.36666666666697,
                    "velocity": 0.47244094488188976,
                    "duration": 0.18333333333333712
                },
                {
                    "name": "C5",
                    "midi": 72,
                    "time": 51.36666666666697,
                    "velocity": 0.47244094488188976,
                    "duration": 0.18333333333333712
                },
                {
                    "name": "D#3",
                    "midi": 51,
                    "time": 51.51250000000031,
                    "velocity": 0.47244094488188976,
                    "duration": 0.42499999999999716
                },
                {
                    "name": "C4",
                    "midi": 60,
                    "time": 51.51250000000031,
                    "velocity": 0.47244094488188976,
                    "duration": 0.17916666666666714
                },
                {
                    "name": "G#3",
                    "midi": 56,
                    "time": 51.654166666666974,
                    "velocity": 0.47244094488188976,
                    "duration": 0.3291666666666657
                },
                {
                    "name": "D#4",
                    "midi": 63,
                    "time": 51.654166666666974,
                    "velocity": 0.47244094488188976,
                    "duration": 0.1875
                },
                {
                    "name": "C4",
                    "midi": 60,
                    "time": 51.80000000000031,
                    "velocity": 0.47244094488188976,
                    "duration": 0.1875
                },
                {
                    "name": "G#4",
                    "midi": 68,
                    "time": 51.80000000000031,
                    "velocity": 0.47244094488188976,
                    "duration": 0.27916666666666856
                },
                {
                    "name": "D#4",
                    "midi": 63,
                    "time": 51.95000000000031,
                    "velocity": 0.47244094488188976,
                    "duration": 0.17916666666667425
                },
                {
                    "name": "C5",
                    "midi": 72,
                    "time": 51.95000000000031,
                    "velocity": 0.47244094488188976,
                    "duration": 0.17500000000000426
                },
                {
                    "name": "D#3",
                    "midi": 51,
                    "time": 52.08750000000031,
                    "velocity": 0.47244094488188976,
                    "duration": 0.42500000000000426
                },
                {
                    "name": "C4",
                    "midi": 60,
                    "time": 52.08750000000031,
                    "velocity": 0.47244094488188976,
                    "duration": 0.18333333333333712
                },
                {
                    "name": "G#3",
                    "midi": 56,
                    "time": 52.225000000000314,
                    "velocity": 0.47244094488188976,
                    "duration": 0.3291666666666728
                },
                {
                    "name": "D#4",
                    "midi": 63,
                    "time": 52.229166666666984,
                    "velocity": 0.47244094488188976,
                    "duration": 0.1875
                },
                {
                    "name": "C4",
                    "midi": 60,
                    "time": 52.37083333333365,
                    "velocity": 0.47244094488188976,
                    "duration": 0.18333333333333712
                },
                {
                    "name": "G#4",
                    "midi": 68,
                    "time": 52.37500000000032,
                    "velocity": 0.47244094488188976,
                    "duration": 0.27916666666666856
                },
                {
                    "name": "D#4",
                    "midi": 63,
                    "time": 52.516666666666985,
                    "velocity": 0.47244094488188976,
                    "duration": 0.1875000000000071
                },
                {
                    "name": "C5",
                    "midi": 72,
                    "time": 52.516666666666985,
                    "velocity": 0.47244094488188976,
                    "duration": 0.18333333333333712
                },
                {
                    "name": "D#3",
                    "midi": 51,
                    "time": 52.66250000000032,
                    "velocity": 0.47244094488188976,
                    "duration": 0.42500000000000426
                },
                {
                    "name": "C4",
                    "midi": 60,
                    "time": 52.66250000000032,
                    "velocity": 0.47244094488188976,
                    "duration": 0.17916666666667425
                },
                {
                    "name": "G#3",
                    "midi": 56,
                    "time": 52.800000000000324,
                    "velocity": 0.47244094488188976,
                    "duration": 0.3291666666666728
                },
                {
                    "name": "D#4",
                    "midi": 63,
                    "time": 52.804166666666994,
                    "velocity": 0.47244094488188976,
                    "duration": 0.18333333333333002
                },
                {
                    "name": "C4",
                    "midi": 60,
                    "time": 52.94583333333366,
                    "velocity": 0.47244094488188976,
                    "duration": 0.23333333333333428
                },
                {
                    "name": "G#4",
                    "midi": 68,
                    "time": 52.94583333333366,
                    "velocity": 0.47244094488188976,
                    "duration": 0.28333333333333144
                },
                {
                    "name": "D#4",
                    "midi": 63,
                    "time": 53.091666666666995,
                    "velocity": 0.47244094488188976,
                    "duration": 0.1874999999999929
                },
                {
                    "name": "C5",
                    "midi": 72,
                    "time": 53.091666666666995,
                    "velocity": 0.47244094488188976,
                    "duration": 0.1874999999999929
                },
                {
                    "name": "G#1",
                    "midi": 32,
                    "time": 53.237500000000324,
                    "velocity": 0.47244094488188976,
                    "duration": 0.8541666666666643
                },
                {
                    "name": "G#2",
                    "midi": 44,
                    "time": 53.237500000000324,
                    "velocity": 0.47244094488188976,
                    "duration": 0.8499999999999943
                },
                {
                    "name": "G#3",
                    "midi": 56,
                    "time": 53.80833333333366,
                    "velocity": 0.47244094488188976,
                    "duration": 0.27916666666666146
                },
                {
                    "name": "D#4",
                    "midi": 63,
                    "time": 53.858333333333654,
                    "velocity": 0.47244094488188976,
                    "duration": 0.23333333333333428
                },
                {
                    "name": "G#4",
                    "midi": 68,
                    "time": 53.88333333333365,
                    "velocity": 0.47244094488188976,
                    "duration": 0.2083333333333357
                },
                {
                    "name": "C5",
                    "midi": 72,
                    "time": 53.90833333333365,
                    "velocity": 0.47244094488188976,
                    "duration": 0.17916666666666714
                },
                {
                    "name": "D#5",
                    "midi": 75,
                    "time": 53.92916666666699,
                    "velocity": 0.47244094488188976,
                    "duration": 0.15833333333333144
                },
                {
                    "name": "G#5",
                    "midi": 80,
                    "time": 53.954166666666985,
                    "velocity": 0.47244094488188976,
                    "duration": 0.13333333333333286
                },
                {
                    "name": "C6",
                    "midi": 84,
                    "time": 53.979166666666984,
                    "velocity": 0.47244094488188976,
                    "duration": 0.10833333333333428
                },
                {
                    "name": "G#6",
                    "midi": 92,
                    "time": 54.02500000000032,
                    "velocity": 0.47244094488188976,
                    "duration": 0.11250000000000426
                },
                {
                    "name": "E3",
                    "midi": 52,
                    "time": 54.96666666666699,
                    "velocity": 0.47244094488188976,
                    "duration": 1.1875000000000213
                },
                {
                    "name": "G#3",
                    "midi": 56,
                    "time": 54.96666666666699,
                    "velocity": 0.47244094488188976,
                    "duration": 0.08749999999999858
                },
                {
                    "name": "B3",
                    "midi": 59,
                    "time": 54.96666666666699,
                    "velocity": 0.47244094488188976,
                    "duration": 0.08749999999999858
                },
                {
                    "name": "E4",
                    "midi": 64,
                    "time": 54.96666666666699,
                    "velocity": 0.6692913385826772,
                    "duration": 0.08749999999999858
                },
                {
                    "name": "E2",
                    "midi": 40,
                    "time": 54.96666666666699,
                    "velocity": 0.47244094488188976,
                    "duration": 1.6208333333333584
                },
                {
                    "name": "G#4",
                    "midi": 68,
                    "time": 54.99166666666699,
                    "velocity": 0.6692913385826772,
                    "duration": 1.1666666666666927
                },
                {
                    "name": "E4",
                    "midi": 64,
                    "time": 55.15833333333365,
                    "velocity": 0.47244094488188976,
                    "duration": 0.09166666666666856
                },
                {
                    "name": "G#3",
                    "midi": 56,
                    "time": 55.15833333333365,
                    "velocity": 0.47244094488188976,
                    "duration": 0.0833333333333357
                },
                {
                    "name": "B3",
                    "midi": 59,
                    "time": 55.15833333333365,
                    "velocity": 0.47244094488188976,
                    "duration": 0.09166666666666856
                },
                {
                    "name": "G#3",
                    "midi": 56,
                    "time": 55.34583333333365,
                    "velocity": 0.47244094488188976,
                    "duration": 0.09166666666667567
                },
                {
                    "name": "E4",
                    "midi": 64,
                    "time": 55.34583333333365,
                    "velocity": 0.47244094488188976,
                    "duration": 0.09166666666667567
                },
                {
                    "name": "B3",
                    "midi": 59,
                    "time": 55.35000000000032,
                    "velocity": 0.47244094488188976,
                    "duration": 0.0833333333333357
                },
                {
                    "name": "G#3",
                    "midi": 56,
                    "time": 55.53750000000033,
                    "velocity": 0.47244094488188976,
                    "duration": 0.08750000000000568
                },
                {
                    "name": "E4",
                    "midi": 64,
                    "time": 55.53750000000033,
                    "velocity": 0.47244094488188976,
                    "duration": 0.09166666666667567
                },
                {
                    "name": "B3",
                    "midi": 59,
                    "time": 55.541666666667,
                    "velocity": 0.47244094488188976,
                    "duration": 0.08750000000000568
                },
                {
                    "name": "G#3",
                    "midi": 56,
                    "time": 55.729166666667005,
                    "velocity": 0.47244094488188976,
                    "duration": 0.09166666666666856
                },
                {
                    "name": "E4",
                    "midi": 64,
                    "time": 55.729166666667005,
                    "velocity": 0.47244094488188976,
                    "duration": 0.09583333333333854
                },
                {
                    "name": "B3",
                    "midi": 59,
                    "time": 55.733333333333675,
                    "velocity": 0.47244094488188976,
                    "duration": 0.08749999999999858
                },
                {
                    "name": "E4",
                    "midi": 64,
                    "time": 55.925000000000345,
                    "velocity": 0.47244094488188976,
                    "duration": 0.08749999999999858
                },
                {
                    "name": "G#3",
                    "midi": 56,
                    "time": 55.925000000000345,
                    "velocity": 0.47244094488188976,
                    "duration": 0.08749999999999858
                },
                {
                    "name": "B3",
                    "midi": 59,
                    "time": 55.925000000000345,
                    "velocity": 0.47244094488188976,
                    "duration": 0.08749999999999858
                },
                {
                    "name": "E4",
                    "midi": 64,
                    "time": 56.11666666666701,
                    "velocity": 0.6692913385826772,
                    "duration": 0.08750000000000568
                },
                {
                    "name": "F#4",
                    "midi": 66,
                    "time": 56.11666666666701,
                    "velocity": 0.6692913385826772,
                    "duration": 0.32500000000000995
                },
                {
                    "name": "D3",
                    "midi": 50,
                    "time": 56.11666666666701,
                    "velocity": 0.47244094488188976,
                    "duration": 0.6083333333333414
                },
                {
                    "name": "G#3",
                    "midi": 56,
                    "time": 56.11666666666701,
                    "velocity": 0.47244094488188976,
                    "duration": 0.08750000000000568
                },
                {
                    "name": "B3",
                    "midi": 59,
                    "time": 56.11666666666701,
                    "velocity": 0.47244094488188976,
                    "duration": 0.08750000000000568
                },
                {
                    "name": "G#3",
                    "midi": 56,
                    "time": 56.304166666667015,
                    "velocity": 0.47244094488188976,
                    "duration": 0.08749999999999858
                },
                {
                    "name": "E4",
                    "midi": 64,
                    "time": 56.304166666667015,
                    "velocity": 0.47244094488188976,
                    "duration": 0.08749999999999858
                },
                {
                    "name": "B3",
                    "midi": 59,
                    "time": 56.31250000000035,
                    "velocity": 0.47244094488188976,
                    "duration": 0.07916666666666572
                },
                {
                    "name": "G#4",
                    "midi": 68,
                    "time": 56.40416666666702,
                    "velocity": 0.6692913385826772,
                    "duration": 0.32083333333333286
                },
                {
                    "name": "E4",
                    "midi": 64,
                    "time": 56.50000000000035,
                    "velocity": 0.47244094488188976,
                    "duration": 0.13333333333333286
                },
                {
                    "name": "G#3",
                    "midi": 56,
                    "time": 56.50000000000035,
                    "velocity": 0.47244094488188976,
                    "duration": 0.13333333333333286
                },
                {
                    "name": "B3",
                    "midi": 59,
                    "time": 56.50000000000035,
                    "velocity": 0.47244094488188976,
                    "duration": 0.13333333333333286
                },
                {
                    "name": "E2",
                    "midi": 40,
                    "time": 56.68750000000035,
                    "velocity": 0.47244094488188976,
                    "duration": 1.6125000000000398
                },
                {
                    "name": "C#3",
                    "midi": 49,
                    "time": 56.68750000000035,
                    "velocity": 0.47244094488188976,
                    "duration": 1.1875000000000355
                },
                {
                    "name": "A3",
                    "midi": 57,
                    "time": 56.68750000000035,
                    "velocity": 0.47244094488188976,
                    "duration": 0.08750000000000568
                },
                {
                    "name": "E4",
                    "midi": 64,
                    "time": 56.68750000000035,
                    "velocity": 0.47244094488188976,
                    "duration": 0.08750000000000568
                },
                {
                    "name": "A4",
                    "midi": 69,
                    "time": 56.72916666666702,
                    "velocity": 0.6692913385826772,
                    "duration": 1.1416666666666941
                },
                {
                    "name": "A3",
                    "midi": 57,
                    "time": 56.875000000000355,
                    "velocity": 0.47244094488188976,
                    "duration": 0.08749999999999858
                },
                {
                    "name": "E4",
                    "midi": 64,
                    "time": 56.875000000000355,
                    "velocity": 0.47244094488188976,
                    "duration": 0.08749999999999858
                },
                {
                    "name": "E4",
                    "midi": 64,
                    "time": 57.062500000000355,
                    "velocity": 0.47244094488188976,
                    "duration": 0.08750000000000568
                },
                {
                    "name": "A3",
                    "midi": 57,
                    "time": 57.066666666667025,
                    "velocity": 0.47244094488188976,
                    "duration": 0.08750000000000568
                },
                {
                    "name": "E4",
                    "midi": 64,
                    "time": 57.258333333333695,
                    "velocity": 0.47244094488188976,
                    "duration": 0.09166666666666856
                },
                {
                    "name": "A3",
                    "midi": 57,
                    "time": 57.262500000000365,
                    "velocity": 0.47244094488188976,
                    "duration": 0.08749999999999858
                },
                {
                    "name": "E4",
                    "midi": 64,
                    "time": 57.450000000000365,
                    "velocity": 0.47244094488188976,
                    "duration": 0.08750000000000568
                },
                {
                    "name": "A3",
                    "midi": 57,
                    "time": 57.454166666667035,
                    "velocity": 0.47244094488188976,
                    "duration": 0.08750000000000568
                },
                {
                    "name": "A3",
                    "midi": 57,
                    "time": 57.64166666666704,
                    "velocity": 0.47244094488188976,
                    "duration": 0.1875
                },
                {
                    "name": "E4",
                    "midi": 64,
                    "time": 57.64166666666704,
                    "velocity": 0.47244094488188976,
                    "duration": 0.08749999999999858
                },
                {
                    "name": "E4",
                    "midi": 64,
                    "time": 57.83333333333371,
                    "velocity": 0.6692913385826772,
                    "duration": 0.08750000000000568
                },
                {
                    "name": "G#4",
                    "midi": 68,
                    "time": 57.83750000000038,
                    "velocity": 0.6692913385826772,
                    "duration": 0.6083333333333343
                },
                {
                    "name": "B2",
                    "midi": 47,
                    "time": 57.83750000000038,
                    "velocity": 0.47244094488188976,
                    "duration": 0.6083333333333343
                },
                {
                    "name": "B3",
                    "midi": 59,
                    "time": 57.83750000000038,
                    "velocity": 0.47244094488188976,
                    "duration": 0.07916666666666572
                },
                {
                    "name": "B3",
                    "midi": 59,
                    "time": 58.02083333333372,
                    "velocity": 0.47244094488188976,
                    "duration": 0.0833333333333357
                },
                {
                    "name": "E4",
                    "midi": 64,
                    "time": 58.02083333333372,
                    "velocity": 0.47244094488188976,
                    "duration": 0.0833333333333357
                },
                {
                    "name": "B3",
                    "midi": 59,
                    "time": 58.21250000000039,
                    "velocity": 0.47244094488188976,
                    "duration": 0.18333333333333002
                },
                {
                    "name": "E4",
                    "midi": 64,
                    "time": 58.21250000000039,
                    "velocity": 0.47244094488188976,
                    "duration": 0.08749999999999858
                },
                {
                    "name": "E4",
                    "midi": 64,
                    "time": 58.40416666666705,
                    "velocity": 0.6692913385826772,
                    "duration": 0.08749999999999858
                },
                {
                    "name": "F#4",
                    "midi": 66,
                    "time": 58.40416666666705,
                    "velocity": 0.6692913385826772,
                    "duration": 1.4791666666666856
                },
                {
                    "name": "E2",
                    "midi": 40,
                    "time": 58.40416666666705,
                    "velocity": 0.47244094488188976,
                    "duration": 1.6250000000000213
                },
                {
                    "name": "A2",
                    "midi": 45,
                    "time": 58.40416666666705,
                    "velocity": 0.47244094488188976,
                    "duration": 1.1875000000000142
                },
                {
                    "name": "C#4",
                    "midi": 61,
                    "time": 58.40416666666705,
                    "velocity": 0.47244094488188976,
                    "duration": 0.08749999999999858
                },
                {
                    "name": "E4",
                    "midi": 64,
                    "time": 58.59583333333372,
                    "velocity": 0.47244094488188976,
                    "duration": 0.09166666666666856
                },
                {
                    "name": "C#4",
                    "midi": 61,
                    "time": 58.60000000000039,
                    "velocity": 0.47244094488188976,
                    "duration": 0.08749999999999858
                },
                {
                    "name": "C#4",
                    "midi": 61,
                    "time": 58.78750000000039,
                    "velocity": 0.47244094488188976,
                    "duration": 0.09166666666666856
                },
                {
                    "name": "E4",
                    "midi": 64,
                    "time": 58.78750000000039,
                    "velocity": 0.47244094488188976,
                    "duration": 0.09166666666666856
                },
                {
                    "name": "C#4",
                    "midi": 61,
                    "time": 58.97916666666706,
                    "velocity": 0.47244094488188976,
                    "duration": 0.08749999999999858
                },
                {
                    "name": "E4",
                    "midi": 64,
                    "time": 58.97916666666706,
                    "velocity": 0.47244094488188976,
                    "duration": 0.08749999999999858
                },
                {
                    "name": "C#4",
                    "midi": 61,
                    "time": 59.170833333333725,
                    "velocity": 0.47244094488188976,
                    "duration": 0.0833333333333357
                },
                {
                    "name": "E4",
                    "midi": 64,
                    "time": 59.170833333333725,
                    "velocity": 0.47244094488188976,
                    "duration": 0.0833333333333357
                },
                {
                    "name": "C#4",
                    "midi": 61,
                    "time": 59.362500000000395,
                    "velocity": 0.47244094488188976,
                    "duration": 0.17916666666666714
                },
                {
                    "name": "E4",
                    "midi": 64,
                    "time": 59.362500000000395,
                    "velocity": 0.47244094488188976,
                    "duration": 0.17916666666666714
                },
                {
                    "name": "B3",
                    "midi": 59,
                    "time": 59.554166666667065,
                    "velocity": 0.47244094488188976,
                    "duration": 0.0833333333333357
                },
                {
                    "name": "D#4",
                    "midi": 63,
                    "time": 59.554166666667065,
                    "velocity": 0.47244094488188976,
                    "duration": 0.08750000000000568
                },
                {
                    "name": "B2",
                    "midi": 47,
                    "time": 59.554166666667065,
                    "velocity": 0.47244094488188976,
                    "duration": 0.5208333333333428
                },
                {
                    "name": "A3",
                    "midi": 57,
                    "time": 59.554166666667065,
                    "velocity": 0.47244094488188976,
                    "duration": 0.08750000000000568
                },
                {
                    "name": "B3",
                    "midi": 59,
                    "time": 59.74166666666707,
                    "velocity": 0.47244094488188976,
                    "duration": 0.08749999999999858
                },
                {
                    "name": "D#4",
                    "midi": 63,
                    "time": 59.74166666666707,
                    "velocity": 0.47244094488188976,
                    "duration": 0.09583333333333144
                },
                {
                    "name": "A3",
                    "midi": 57,
                    "time": 59.750000000000405,
                    "velocity": 0.47244094488188976,
                    "duration": 0.08749999999999858
                },
                {
                    "name": "G#4",
                    "midi": 68,
                    "time": 59.841666666667074,
                    "velocity": 0.6692913385826772,
                    "duration": 0.32500000000000284
                },
                {
                    "name": "D#4",
                    "midi": 63,
                    "time": 59.937500000000405,
                    "velocity": 0.47244094488188976,
                    "duration": 0.13750000000000284
                },
                {
                    "name": "A3",
                    "midi": 57,
                    "time": 59.937500000000405,
                    "velocity": 0.47244094488188976,
                    "duration": 0.13750000000000284
                },
                {
                    "name": "B3",
                    "midi": 59,
                    "time": 59.937500000000405,
                    "velocity": 0.47244094488188976,
                    "duration": 0.13750000000000284
                },
                {
                    "name": "B3",
                    "midi": 59,
                    "time": 60.125000000000405,
                    "velocity": 0.47244094488188976,
                    "duration": 0.09166666666666856
                },
                {
                    "name": "G#3",
                    "midi": 56,
                    "time": 60.129166666667075,
                    "velocity": 0.6692913385826772,
                    "duration": 0.08749999999999858
                },
                {
                    "name": "E2",
                    "midi": 40,
                    "time": 60.129166666667075,
                    "velocity": 0.47244094488188976,
                    "duration": 0.5708333333333329
                },
                {
                    "name": "B2",
                    "midi": 47,
                    "time": 60.129166666667075,
                    "velocity": 0.47244094488188976,
                    "duration": 0.5708333333333329
                },
                {
                    "name": "E3",
                    "midi": 52,
                    "time": 60.129166666667075,
                    "velocity": 0.47244094488188976,
                    "duration": 0.4750000000000014
                },
                {
                    "name": "E4",
                    "midi": 64,
                    "time": 60.15000000000041,
                    "velocity": 0.6692913385826772,
                    "duration": 0.6000000000000014
                },
                {
                    "name": "G#3",
                    "midi": 56,
                    "time": 60.316666666667075,
                    "velocity": 0.47244094488188976,
                    "duration": 0.09583333333333144
                },
                {
                    "name": "B3",
                    "midi": 59,
                    "time": 60.32500000000041,
                    "velocity": 0.47244094488188976,
                    "duration": 0.08749999999999858
                },
                {
                    "name": "G#3",
                    "midi": 56,
                    "time": 60.51666666666707,
                    "velocity": 0.47244094488188976,
                    "duration": 0.0833333333333357
                },
                {
                    "name": "B3",
                    "midi": 59,
                    "time": 60.51666666666707,
                    "velocity": 0.47244094488188976,
                    "duration": 0.08750000000000568
                },
                {
                    "name": "E3",
                    "midi": 52,
                    "time": 60.70416666666708,
                    "velocity": 0.47244094488188976,
                    "duration": 0.09166666666666856
                },
                {
                    "name": "G#3",
                    "midi": 56,
                    "time": 60.70416666666708,
                    "velocity": 0.47244094488188976,
                    "duration": 0.09166666666666856
                },
                {
                    "name": "B3",
                    "midi": 59,
                    "time": 60.729166666667076,
                    "velocity": 0.47244094488188976,
                    "duration": 0.8333333333333499
                },
                {
                    "name": "E3",
                    "midi": 52,
                    "time": 60.89583333333375,
                    "velocity": 0.47244094488188976,
                    "duration": 0.08750000000000568
                },
                {
                    "name": "G#3",
                    "midi": 56,
                    "time": 60.89583333333375,
                    "velocity": 0.47244094488188976,
                    "duration": 0.0833333333333357
                },
                {
                    "name": "E3",
                    "midi": 52,
                    "time": 61.09166666666709,
                    "velocity": 0.47244094488188976,
                    "duration": 0.0833333333333357
                },
                {
                    "name": "G#3",
                    "midi": 56,
                    "time": 61.09166666666709,
                    "velocity": 0.47244094488188976,
                    "duration": 0.0833333333333357
                },
                {
                    "name": "B1",
                    "midi": 35,
                    "time": 61.28750000000043,
                    "velocity": 0.47244094488188976,
                    "duration": 0.5624999999999929
                },
                {
                    "name": "B2",
                    "midi": 47,
                    "time": 61.28750000000043,
                    "velocity": 0.47244094488188976,
                    "duration": 0.4749999999999943
                },
                {
                    "name": "E3",
                    "midi": 52,
                    "time": 61.28750000000043,
                    "velocity": 0.47244094488188976,
                    "duration": 0.08749999999999858
                },
                {
                    "name": "G#3",
                    "midi": 56,
                    "time": 61.28750000000043,
                    "velocity": 0.47244094488188976,
                    "duration": 0.08749999999999858
                },
                {
                    "name": "E3",
                    "midi": 52,
                    "time": 61.47500000000043,
                    "velocity": 0.47244094488188976,
                    "duration": 0.18333333333333002
                },
                {
                    "name": "G#3",
                    "midi": 56,
                    "time": 61.47500000000043,
                    "velocity": 0.47244094488188976,
                    "duration": 0.08749999999999858
                },
                {
                    "name": "G#3",
                    "midi": 56,
                    "time": 61.66666666666709,
                    "velocity": 0.47244094488188976,
                    "duration": 0.08749999999999858
                },
                {
                    "name": "B3",
                    "midi": 59,
                    "time": 61.66666666666709,
                    "velocity": 0.47244094488188976,
                    "duration": 0.13749999999999574
                },
                {
                    "name": "G#3",
                    "midi": 56,
                    "time": 61.85416666666709,
                    "velocity": 0.47244094488188976,
                    "duration": 0.09166666666666856
                },
                {
                    "name": "E4",
                    "midi": 64,
                    "time": 61.85416666666709,
                    "velocity": 0.6692913385826772,
                    "duration": 0.09583333333333854
                },
                {
                    "name": "E2",
                    "midi": 40,
                    "time": 61.85416666666709,
                    "velocity": 0.47244094488188976,
                    "duration": 0.6166666666666814
                },
                {
                    "name": "B2",
                    "midi": 47,
                    "time": 61.86250000000042,
                    "velocity": 0.47244094488188976,
                    "duration": 0.6083333333333485
                },
                {
                    "name": "B3",
                    "midi": 59,
                    "time": 61.86250000000042,
                    "velocity": 0.47244094488188976,
                    "duration": 0.0833333333333357
                },
                {
                    "name": "G#4",
                    "midi": 68,
                    "time": 61.87916666666709,
                    "velocity": 0.6692913385826772,
                    "duration": 1.1666666666666856
                },
                {
                    "name": "E4",
                    "midi": 64,
                    "time": 62.05000000000043,
                    "velocity": 0.47244094488188976,
                    "duration": 0.08749999999999858
                },
                {
                    "name": "G#3",
                    "midi": 56,
                    "time": 62.05000000000043,
                    "velocity": 0.47244094488188976,
                    "duration": 0.08749999999999858
                },
                {
                    "name": "B3",
                    "midi": 59,
                    "time": 62.05000000000043,
                    "velocity": 0.47244094488188976,
                    "duration": 0.09166666666666856
                },
                {
                    "name": "G#3",
                    "midi": 56,
                    "time": 62.23333333333377,
                    "velocity": 0.47244094488188976,
                    "duration": 0.09166666666666856
                },
                {
                    "name": "B3",
                    "midi": 59,
                    "time": 62.23750000000044,
                    "velocity": 0.47244094488188976,
                    "duration": 0.09166666666666856
                },
                {
                    "name": "E4",
                    "midi": 64,
                    "time": 62.23750000000044,
                    "velocity": 0.47244094488188976,
                    "duration": 0.18333333333333712
                },
                {
                    "name": "B3",
                    "midi": 59,
                    "time": 62.42916666666711,
                    "velocity": 0.47244094488188976,
                    "duration": 0.08749999999999858
                },
                {
                    "name": "D2",
                    "midi": 38,
                    "time": 62.42916666666711,
                    "velocity": 0.47244094488188976,
                    "duration": 0.6166666666666671
                },
                {
                    "name": "G#3",
                    "midi": 56,
                    "time": 62.42916666666711,
                    "velocity": 0.47244094488188976,
                    "duration": 0.08749999999999858
                },
                {
                    "name": "F#3",
                    "midi": 54,
                    "time": 62.479166666667105,
                    "velocity": 0.47244094488188976,
                    "duration": 0.56666666666667
                },
                {
                    "name": "G#3",
                    "midi": 56,
                    "time": 62.62500000000044,
                    "velocity": 0.47244094488188976,
                    "duration": 0.08749999999999858
                },
                {
                    "name": "B3",
                    "midi": 59,
                    "time": 62.62500000000044,
                    "velocity": 0.47244094488188976,
                    "duration": 0.08749999999999858
                },
                {
                    "name": "G#3",
                    "midi": 56,
                    "time": 62.8166666666671,
                    "velocity": 0.47244094488188976,
                    "duration": 0.08749999999999858
                },
                {
                    "name": "B3",
                    "midi": 59,
                    "time": 62.8166666666671,
                    "velocity": 0.47244094488188976,
                    "duration": 0.08749999999999858
                },
                {
                    "name": "G#3",
                    "midi": 56,
                    "time": 63.0041666666671,
                    "velocity": 0.47244094488188976,
                    "duration": 0.08750000000000568
                },
                {
                    "name": "B3",
                    "midi": 59,
                    "time": 63.0041666666671,
                    "velocity": 0.47244094488188976,
                    "duration": 0.08750000000000568
                },
                {
                    "name": "F#4",
                    "midi": 66,
                    "time": 63.00833333333377,
                    "velocity": 0.6692913385826772,
                    "duration": 0.3291666666666728
                },
                {
                    "name": "C#2",
                    "midi": 37,
                    "time": 63.00833333333377,
                    "velocity": 0.47244094488188976,
                    "duration": 0.6083333333333414
                },
                {
                    "name": "C#4",
                    "midi": 61,
                    "time": 63.00833333333377,
                    "velocity": 0.47244094488188976,
                    "duration": 0.0833333333333357
                },
                {
                    "name": "F3",
                    "midi": 53,
                    "time": 63.050000000000445,
                    "velocity": 0.47244094488188976,
                    "duration": 0.56666666666667
                },
                {
                    "name": "G#3",
                    "midi": 56,
                    "time": 63.19166666666711,
                    "velocity": 0.47244094488188976,
                    "duration": 0.09166666666666856
                },
                {
                    "name": "B3",
                    "midi": 59,
                    "time": 63.20000000000044,
                    "velocity": 0.47244094488188976,
                    "duration": 0.0833333333333357
                },
                {
                    "name": "C#4",
                    "midi": 61,
                    "time": 63.20000000000044,
                    "velocity": 0.47244094488188976,
                    "duration": 0.0833333333333357
                },
                {
                    "name": "G#4",
                    "midi": 68,
                    "time": 63.300000000000445,
                    "velocity": 0.6692913385826772,
                    "duration": 0.22500000000000142
                },
                {
                    "name": "G#3",
                    "midi": 56,
                    "time": 63.38750000000044,
                    "velocity": 0.47244094488188976,
                    "duration": 0.13750000000000284
                },
                {
                    "name": "B3",
                    "midi": 59,
                    "time": 63.38750000000044,
                    "velocity": 0.47244094488188976,
                    "duration": 0.13750000000000284
                },
                {
                    "name": "C#4",
                    "midi": 61,
                    "time": 63.39166666666711,
                    "velocity": 0.47244094488188976,
                    "duration": 0.125
                },
                {
                    "name": "F#3",
                    "midi": 54,
                    "time": 63.57500000000044,
                    "velocity": 0.47244094488188976,
                    "duration": 0.3291666666666728
                },
                {
                    "name": "A3",
                    "midi": 57,
                    "time": 63.57500000000044,
                    "velocity": 0.47244094488188976,
                    "duration": 0.09166666666667567
                },
                {
                    "name": "G#4",
                    "midi": 68,
                    "time": 63.57916666666711,
                    "velocity": 0.6692913385826772,
                    "duration": 0.08750000000000568
                },
                {
                    "name": "F#2",
                    "midi": 42,
                    "time": 63.57916666666711,
                    "velocity": 0.47244094488188976,
                    "duration": 1.1916666666666842
                },
                {
                    "name": "C#4",
                    "midi": 61,
                    "time": 63.57916666666711,
                    "velocity": 0.47244094488188976,
                    "duration": 0.0833333333333357
                },
                {
                    "name": "A4",
                    "midi": 69,
                    "time": 63.60000000000045,
                    "velocity": 0.6692913385826772,
                    "duration": 1.1666666666666856
                },
                {
                    "name": "G#4",
                    "midi": 68,
                    "time": 63.77083333333378,
                    "velocity": 0.47244094488188976,
                    "duration": 0.08749999999999858
                },
                {
                    "name": "A3",
                    "midi": 57,
                    "time": 63.77083333333378,
                    "velocity": 0.47244094488188976,
                    "duration": 0.08749999999999858
                },
                {
                    "name": "C#4",
                    "midi": 61,
                    "time": 63.77083333333378,
                    "velocity": 0.47244094488188976,
                    "duration": 0.08749999999999858
                },
                {
                    "name": "C#3",
                    "midi": 49,
                    "time": 63.91666666666712,
                    "velocity": 0.47244094488188976,
                    "duration": 0.27916666666666146
                },
                {
                    "name": "G#4",
                    "midi": 68,
                    "time": 63.96250000000045,
                    "velocity": 0.47244094488188976,
                    "duration": 0.17916666666666714
                },
                {
                    "name": "A3",
                    "midi": 57,
                    "time": 63.96250000000045,
                    "velocity": 0.47244094488188976,
                    "duration": 0.08749999999999858
                },
                {
                    "name": "C#4",
                    "midi": 61,
                    "time": 63.96250000000045,
                    "velocity": 0.47244094488188976,
                    "duration": 0.08749999999999858
                },
                {
                    "name": "F#4",
                    "midi": 66,
                    "time": 64.15416666666712,
                    "velocity": 0.47244094488188976,
                    "duration": 0.0833333333333286
                },
                {
                    "name": "A3",
                    "midi": 57,
                    "time": 64.15416666666712,
                    "velocity": 0.47244094488188976,
                    "duration": 0.0833333333333286
                },
                {
                    "name": "C#4",
                    "midi": 61,
                    "time": 64.15416666666712,
                    "velocity": 0.47244094488188976,
                    "duration": 0.0833333333333286
                },
                {
                    "name": "D3",
                    "midi": 50,
                    "time": 64.15833333333379,
                    "velocity": 0.47244094488188976,
                    "duration": 0.32500000000001705
                },
                {
                    "name": "F#4",
                    "midi": 66,
                    "time": 64.34583333333379,
                    "velocity": 0.47244094488188976,
                    "duration": 0.08750000000000568
                },
                {
                    "name": "A3",
                    "midi": 57,
                    "time": 64.34583333333379,
                    "velocity": 0.47244094488188976,
                    "duration": 0.08750000000000568
                },
                {
                    "name": "C#4",
                    "midi": 61,
                    "time": 64.34583333333379,
                    "velocity": 0.47244094488188976,
                    "duration": 0.08750000000000568
                },
                {
                    "name": "D#3",
                    "midi": 51,
                    "time": 64.44166666666713,
                    "velocity": 0.47244094488188976,
                    "duration": 0.3291666666666657
                },
                {
                    "name": "F#4",
                    "midi": 66,
                    "time": 64.54166666666714,
                    "velocity": 0.47244094488188976,
                    "duration": 0.17916666666666003
                },
                {
                    "name": "A3",
                    "midi": 57,
                    "time": 64.54166666666714,
                    "velocity": 0.47244094488188976,
                    "duration": 0.17916666666666003
                },
                {
                    "name": "C#4",
                    "midi": 61,
                    "time": 64.54166666666714,
                    "velocity": 0.47244094488188976,
                    "duration": 0.17916666666666003
                },
                {
                    "name": "E4",
                    "midi": 64,
                    "time": 64.72916666666714,
                    "velocity": 0.6692913385826772,
                    "duration": 0.08749999999999147
                },
                {
                    "name": "G#4",
                    "midi": 68,
                    "time": 64.72916666666714,
                    "velocity": 0.6692913385826772,
                    "duration": 0.612499999999983
                },
                {
                    "name": "G#2",
                    "midi": 44,
                    "time": 64.72916666666714,
                    "velocity": 0.47244094488188976,
                    "duration": 0.612499999999983
                },
                {
                    "name": "E3",
                    "midi": 52,
                    "time": 64.72916666666714,
                    "velocity": 0.47244094488188976,
                    "duration": 0.46666666666665435
                },
                {
                    "name": "B3",
                    "midi": 59,
                    "time": 64.72916666666714,
                    "velocity": 0.47244094488188976,
                    "duration": 0.08749999999999147
                },
                {
                    "name": "E4",
                    "midi": 64,
                    "time": 64.91250000000046,
                    "velocity": 0.47244094488188976,
                    "duration": 0.09583333333333144
                },
                {
                    "name": "B3",
                    "midi": 59,
                    "time": 64.91666666666713,
                    "velocity": 0.47244094488188976,
                    "duration": 0.09166666666666856
                },
                {
                    "name": "B3",
                    "midi": 59,
                    "time": 65.10416666666713,
                    "velocity": 0.47244094488188976,
                    "duration": 0.19166666666666288
                },
                {
                    "name": "E4",
                    "midi": 64,
                    "time": 65.10416666666713,
                    "velocity": 0.47244094488188976,
                    "duration": 0.09166666666666856
                },
                {
                    "name": "E4",
                    "midi": 64,
                    "time": 65.30000000000045,
                    "velocity": 0.6692913385826772,
                    "duration": 0.09166666666666856
                },
                {
                    "name": "F#4",
                    "midi": 66,
                    "time": 65.30000000000045,
                    "velocity": 0.6692913385826772,
                    "duration": 0.8083333333333371
                },
                {
                    "name": "A2",
                    "midi": 45,
                    "time": 65.30000000000045,
                    "velocity": 0.47244094488188976,
                    "duration": 1.1916666666666629
                },
                {
                    "name": "E3",
                    "midi": 52,
                    "time": 65.30000000000045,
                    "velocity": 0.47244094488188976,
                    "duration": 1.0499999999999972
                },
                {
                    "name": "C#4",
                    "midi": 61,
                    "time": 65.30000000000045,
                    "velocity": 0.47244094488188976,
                    "duration": 0.09166666666666856
                },
                {
                    "name": "C#4",
                    "midi": 61,
                    "time": 65.49166666666711,
                    "velocity": 0.47244094488188976,
                    "duration": 0.09583333333333144
                },
                {
                    "name": "E4",
                    "midi": 64,
                    "time": 65.49166666666711,
                    "velocity": 0.47244094488188976,
                    "duration": 0.09583333333333144
                },
                {
                    "name": "C#4",
                    "midi": 61,
                    "time": 65.68333333333378,
                    "velocity": 0.47244094488188976,
                    "duration": 0.09166666666666856
                },
                {
                    "name": "E4",
                    "midi": 64,
                    "time": 65.68333333333378,
                    "velocity": 0.47244094488188976,
                    "duration": 0.09166666666666856
                },
                {
                    "name": "C#4",
                    "midi": 61,
                    "time": 65.87916666666712,
                    "velocity": 0.47244094488188976,
                    "duration": 0.0833333333333286
                },
                {
                    "name": "E4",
                    "midi": 64,
                    "time": 65.87916666666712,
                    "velocity": 0.47244094488188976,
                    "duration": 0.0833333333333286
                },
                {
                    "name": "C#4",
                    "midi": 61,
                    "time": 66.06666666666712,
                    "velocity": 0.47244094488188976,
                    "duration": 0.08750000000000568
                },
                {
                    "name": "E4",
                    "midi": 64,
                    "time": 66.06666666666712,
                    "velocity": 0.47244094488188976,
                    "duration": 0.08750000000000568
                },
                {
                    "name": "F#4",
                    "midi": 66,
                    "time": 66.21250000000046,
                    "velocity": 0.6692913385826772,
                    "duration": 0.041666666666671404
                },
                {
                    "name": "E4",
                    "midi": 64,
                    "time": 66.2583333333338,
                    "velocity": 0.6692913385826772,
                    "duration": 0.09166666666665435
                },
                {
                    "name": "C#4",
                    "midi": 61,
                    "time": 66.26250000000046,
                    "velocity": 0.47244094488188976,
                    "duration": 0.0833333333333286
                },
                {
                    "name": "G#4",
                    "midi": 68,
                    "time": 66.26250000000046,
                    "velocity": 0.6692913385826772,
                    "duration": 0.08749999999999147
                },
                {
                    "name": "F#4",
                    "midi": 66,
                    "time": 66.30833333333379,
                    "velocity": 0.6692913385826772,
                    "duration": 0.04166666666665719
                },
                {
                    "name": "F4",
                    "midi": 65,
                    "time": 66.35833333333379,
                    "velocity": 0.6692913385826772,
                    "duration": 0.0833333333333286
                },
                {
                    "name": "F#4",
                    "midi": 66,
                    "time": 66.40416666666712,
                    "velocity": 0.6692913385826772,
                    "duration": 0.08749999999999147
                },
                {
                    "name": "E4",
                    "midi": 64,
                    "time": 66.45416666666712,
                    "velocity": 0.6692913385826772,
                    "duration": 0.09166666666665435
                },
                {
                    "name": "G#4",
                    "midi": 68,
                    "time": 66.45416666666712,
                    "velocity": 0.6692913385826772,
                    "duration": 0.4749999999999801
                },
                {
                    "name": "A#2",
                    "midi": 46,
                    "time": 66.45416666666712,
                    "velocity": 0.47244094488188976,
                    "duration": 0.5749999999999744
                },
                {
                    "name": "E3",
                    "midi": 52,
                    "time": 66.45416666666712,
                    "velocity": 0.47244094488188976,
                    "duration": 0.4749999999999801
                },
                {
                    "name": "C#4",
                    "midi": 61,
                    "time": 66.45416666666712,
                    "velocity": 0.47244094488188976,
                    "duration": 0.08749999999999147
                },
                {
                    "name": "C#4",
                    "midi": 61,
                    "time": 66.64583333333377,
                    "velocity": 0.47244094488188976,
                    "duration": 0.08750000000000568
                },
                {
                    "name": "E4",
                    "midi": 64,
                    "time": 66.64583333333377,
                    "velocity": 0.47244094488188976,
                    "duration": 0.08750000000000568
                },
                {
                    "name": "C#4",
                    "midi": 61,
                    "time": 66.84166666666711,
                    "velocity": 0.47244094488188976,
                    "duration": 0.13333333333332575
                },
                {
                    "name": "G#3",
                    "midi": 56,
                    "time": 66.8916666666671,
                    "velocity": 0.47244094488188976,
                    "duration": 0.0833333333333286
                },
                {
                    "name": "E4",
                    "midi": 64,
                    "time": 66.91250000000043,
                    "velocity": 0.6692913385826772,
                    "duration": 0.0625
                },
                {
                    "name": "G#3",
                    "midi": 56,
                    "time": 67.0291666666671,
                    "velocity": 0.47244094488188976,
                    "duration": 0.5666666666666487
                },
                {
                    "name": "E4",
                    "midi": 64,
                    "time": 67.0291666666671,
                    "velocity": 0.47244094488188976,
                    "duration": 0.09166666666665435
                },
                {
                    "name": "B3",
                    "midi": 59,
                    "time": 67.03333333333376,
                    "velocity": 0.47244094488188976,
                    "duration": 0.08749999999999147
                },
                {
                    "name": "B2",
                    "midi": 47,
                    "time": 67.03333333333376,
                    "velocity": 0.47244094488188976,
                    "duration": 0.4708333333333172
                },
                {
                    "name": "E3",
                    "midi": 52,
                    "time": 67.03333333333376,
                    "velocity": 0.47244094488188976,
                    "duration": 0.5624999999999858
                },
                {
                    "name": "G#4",
                    "midi": 68,
                    "time": 67.08333333333375,
                    "velocity": 0.6692913385826772,
                    "duration": 0.5666666666666629
                },
                {
                    "name": "E4",
                    "midi": 64,
                    "time": 67.22083333333374,
                    "velocity": 0.47244094488188976,
                    "duration": 0.09583333333333144
                },
                {
                    "name": "B3",
                    "midi": 59,
                    "time": 67.2250000000004,
                    "velocity": 0.47244094488188976,
                    "duration": 0.09166666666666856
                },
                {
                    "name": "B3",
                    "midi": 59,
                    "time": 67.41666666666707,
                    "velocity": 0.47244094488188976,
                    "duration": 0.08750000000000568
                },
                {
                    "name": "E4",
                    "midi": 64,
                    "time": 67.41666666666707,
                    "velocity": 0.47244094488188976,
                    "duration": 0.08750000000000568
                },
                {
                    "name": "F#3",
                    "midi": 54,
                    "time": 67.60833333333375,
                    "velocity": 0.47244094488188976,
                    "duration": 0.47083333333334565
                },
                {
                    "name": "B3",
                    "midi": 59,
                    "time": 67.60833333333375,
                    "velocity": 0.47244094488188976,
                    "duration": 0.08333333333334281
                },
                {
                    "name": "D#4",
                    "midi": 63,
                    "time": 67.60833333333375,
                    "velocity": 0.47244094488188976,
                    "duration": 0.08333333333334281
                },
                {
                    "name": "F#4",
                    "midi": 66,
                    "time": 67.60833333333375,
                    "velocity": 0.6692913385826772,
                    "duration": 0.23333333333333428
                },
                {
                    "name": "B2",
                    "midi": 47,
                    "time": 67.60833333333375,
                    "velocity": 0.47244094488188976,
                    "duration": 0.5708333333333542
                },
                {
                    "name": "D#3",
                    "midi": 51,
                    "time": 67.60833333333375,
                    "velocity": 0.47244094488188976,
                    "duration": 0.47083333333334565
                },
                {
                    "name": "B3",
                    "midi": 59,
                    "time": 67.80000000000042,
                    "velocity": 0.47244094488188976,
                    "duration": 0.08749999999999147
                },
                {
                    "name": "D#4",
                    "midi": 63,
                    "time": 67.80416666666709,
                    "velocity": 0.47244094488188976,
                    "duration": 0.0833333333333286
                },
                {
                    "name": "B3",
                    "midi": 59,
                    "time": 67.99166666666709,
                    "velocity": 0.47244094488188976,
                    "duration": 0.09583333333334565
                },
                {
                    "name": "D#4",
                    "midi": 63,
                    "time": 67.99166666666709,
                    "velocity": 0.47244094488188976,
                    "duration": 0.1875000000000142
                },
                {
                    "name": "B3",
                    "midi": 59,
                    "time": 68.18750000000044,
                    "velocity": 0.47244094488188976,
                    "duration": 0.09166666666666856
                },
                {
                    "name": "A2",
                    "midi": 45,
                    "time": 68.18750000000044,
                    "velocity": 0.47244094488188976,
                    "duration": 0.09166666666666856
                },
                {
                    "name": "F#3",
                    "midi": 54,
                    "time": 68.18750000000044,
                    "velocity": 0.47244094488188976,
                    "duration": 0.09166666666666856
                },
                {
                    "name": "D#3",
                    "midi": 51,
                    "time": 68.18750000000044,
                    "velocity": 0.47244094488188976,
                    "duration": 0.09166666666666856
                },
                {
                    "name": "F#4",
                    "midi": 66,
                    "time": 68.18750000000044,
                    "velocity": 0.6692913385826772,
                    "duration": 0.17916666666667425
                },
                {
                    "name": "B3",
                    "midi": 59,
                    "time": 68.37500000000045,
                    "velocity": 0.47244094488188976,
                    "duration": 0.08749999999999147
                },
                {
                    "name": "F#3",
                    "midi": 54,
                    "time": 68.37916666666712,
                    "velocity": 0.47244094488188976,
                    "duration": 0.0833333333333286
                },
                {
                    "name": "A2",
                    "midi": 45,
                    "time": 68.37916666666712,
                    "velocity": 0.47244094488188976,
                    "duration": 0.0833333333333286
                },
                {
                    "name": "D#3",
                    "midi": 51,
                    "time": 68.37916666666712,
                    "velocity": 0.47244094488188976,
                    "duration": 0.0833333333333286
                },
                {
                    "name": "D#4",
                    "midi": 63,
                    "time": 68.40000000000045,
                    "velocity": 0.47244094488188976,
                    "duration": 0.16249999999999432
                },
                {
                    "name": "A2",
                    "midi": 45,
                    "time": 68.5666666666671,
                    "velocity": 0.47244094488188976,
                    "duration": 0.1875
                },
                {
                    "name": "D#3",
                    "midi": 51,
                    "time": 68.5666666666671,
                    "velocity": 0.47244094488188976,
                    "duration": 0.1875
                },
                {
                    "name": "F#3",
                    "midi": 54,
                    "time": 68.5666666666671,
                    "velocity": 0.47244094488188976,
                    "duration": 0.1875
                },
                {
                    "name": "B3",
                    "midi": 59,
                    "time": 68.59166666666711,
                    "velocity": 0.47244094488188976,
                    "duration": 0.11249999999999716
                },
                {
                    "name": "G#3",
                    "midi": 56,
                    "time": 68.7541666666671,
                    "velocity": 0.47244094488188976,
                    "duration": 0.09583333333333144
                },
                {
                    "name": "B3",
                    "midi": 59,
                    "time": 68.7541666666671,
                    "velocity": 0.47244094488188976,
                    "duration": 0.09583333333333144
                },
                {
                    "name": "E3",
                    "midi": 52,
                    "time": 68.7541666666671,
                    "velocity": 0.47244094488188976,
                    "duration": 0.09583333333333144
                },
                {
                    "name": "G#2",
                    "midi": 44,
                    "time": 68.76250000000044,
                    "velocity": 0.47244094488188976,
                    "duration": 0.08749999999999147
                },
                {
                    "name": "E4",
                    "midi": 64,
                    "time": 68.78333333333377,
                    "velocity": 0.6692913385826772,
                    "duration": 0.7333333333333201
                },
                {
                    "name": "G#3",
                    "midi": 56,
                    "time": 68.94583333333377,
                    "velocity": 0.47244094488188976,
                    "duration": 0.08750000000000568
                },
                {
                    "name": "B3",
                    "midi": 59,
                    "time": 68.94583333333377,
                    "velocity": 0.47244094488188976,
                    "duration": 0.08750000000000568
                },
                {
                    "name": "G#2",
                    "midi": 44,
                    "time": 68.94583333333377,
                    "velocity": 0.47244094488188976,
                    "duration": 0.08750000000000568
                },
                {
                    "name": "B2",
                    "midi": 47,
                    "time": 68.94583333333377,
                    "velocity": 0.47244094488188976,
                    "duration": 0.08750000000000568
                },
                {
                    "name": "E3",
                    "midi": 52,
                    "time": 68.94583333333377,
                    "velocity": 0.47244094488188976,
                    "duration": 0.08750000000000568
                },
                {
                    "name": "E3",
                    "midi": 52,
                    "time": 69.13333333333377,
                    "velocity": 0.47244094488188976,
                    "duration": 0.09166666666666856
                },
                {
                    "name": "G#3",
                    "midi": 56,
                    "time": 69.13333333333377,
                    "velocity": 0.47244094488188976,
                    "duration": 0.09166666666666856
                },
                {
                    "name": "B3",
                    "midi": 59,
                    "time": 69.13750000000043,
                    "velocity": 0.47244094488188976,
                    "duration": 0.08750000000000568
                },
                {
                    "name": "G#2",
                    "midi": 44,
                    "time": 69.13750000000043,
                    "velocity": 0.47244094488188976,
                    "duration": 0.08750000000000568
                },
                {
                    "name": "B2",
                    "midi": 47,
                    "time": 69.13750000000043,
                    "velocity": 0.47244094488188976,
                    "duration": 0.08750000000000568
                },
                {
                    "name": "G#3",
                    "midi": 56,
                    "time": 69.33333333333377,
                    "velocity": 0.47244094488188976,
                    "duration": 0.0833333333333286
                },
                {
                    "name": "B3",
                    "midi": 59,
                    "time": 69.33333333333377,
                    "velocity": 0.47244094488188976,
                    "duration": 0.0833333333333286
                },
                {
                    "name": "G#2",
                    "midi": 44,
                    "time": 69.33333333333377,
                    "velocity": 0.47244094488188976,
                    "duration": 0.0833333333333286
                },
                {
                    "name": "B2",
                    "midi": 47,
                    "time": 69.33333333333377,
                    "velocity": 0.47244094488188976,
                    "duration": 0.0833333333333286
                },
                {
                    "name": "E3",
                    "midi": 52,
                    "time": 69.33333333333377,
                    "velocity": 0.47244094488188976,
                    "duration": 0.0833333333333286
                },
                {
                    "name": "G#3",
                    "midi": 56,
                    "time": 69.52500000000043,
                    "velocity": 0.47244094488188976,
                    "duration": 0.08749999999999147
                },
                {
                    "name": "G#2",
                    "midi": 44,
                    "time": 69.5291666666671,
                    "velocity": 0.47244094488188976,
                    "duration": 0.08749999999999147
                },
                {
                    "name": "B2",
                    "midi": 47,
                    "time": 69.5291666666671,
                    "velocity": 0.47244094488188976,
                    "duration": 0.08749999999999147
                },
                {
                    "name": "E3",
                    "midi": 52,
                    "time": 69.5291666666671,
                    "velocity": 0.47244094488188976,
                    "duration": 0.08749999999999147
                },
                {
                    "name": "B3",
                    "midi": 59,
                    "time": 69.5291666666671,
                    "velocity": 0.47244094488188976,
                    "duration": 0.08749999999999147
                },
                {
                    "name": "E4",
                    "midi": 64,
                    "time": 69.62083333333375,
                    "velocity": 0.6692913385826772,
                    "duration": 0.32083333333333997
                },
                {
                    "name": "G#3",
                    "midi": 56,
                    "time": 69.71250000000042,
                    "velocity": 0.47244094488188976,
                    "duration": 0.1875000000000142
                },
                {
                    "name": "B3",
                    "midi": 59,
                    "time": 69.71250000000042,
                    "velocity": 0.47244094488188976,
                    "duration": 0.09166666666666856
                },
                {
                    "name": "G#2",
                    "midi": 44,
                    "time": 69.71250000000042,
                    "velocity": 0.47244094488188976,
                    "duration": 0.1875000000000142
                },
                {
                    "name": "B2",
                    "midi": 47,
                    "time": 69.71250000000042,
                    "velocity": 0.47244094488188976,
                    "duration": 0.09166666666666856
                },
                {
                    "name": "E3",
                    "midi": 52,
                    "time": 69.71250000000042,
                    "velocity": 0.47244094488188976,
                    "duration": 0.1875000000000142
                },
                {
                    "name": "A3",
                    "midi": 57,
                    "time": 69.9041666666671,
                    "velocity": 0.47244094488188976,
                    "duration": 0.09583333333333144
                },
                {
                    "name": "B3",
                    "midi": 59,
                    "time": 69.9041666666671,
                    "velocity": 0.47244094488188976,
                    "duration": 0.09583333333333144
                },
                {
                    "name": "D#4",
                    "midi": 63,
                    "time": 69.9041666666671,
                    "velocity": 0.47244094488188976,
                    "duration": 0.09583333333333144
                },
                {
                    "name": "A4",
                    "midi": 69,
                    "time": 69.9041666666671,
                    "velocity": 0.6692913385826772,
                    "duration": 0.32500000000000284
                },
                {
                    "name": "F#2",
                    "midi": 42,
                    "time": 69.90833333333376,
                    "velocity": 0.47244094488188976,
                    "duration": 0.09166666666666856
                },
                {
                    "name": "B2",
                    "midi": 47,
                    "time": 69.90833333333376,
                    "velocity": 0.47244094488188976,
                    "duration": 0.09166666666666856
                },
                {
                    "name": "B3",
                    "midi": 59,
                    "time": 70.0916666666671,
                    "velocity": 0.47244094488188976,
                    "duration": 0.09166666666666856
                },
                {
                    "name": "F#2",
                    "midi": 42,
                    "time": 70.10000000000043,
                    "velocity": 0.47244094488188976,
                    "duration": 0.08749999999999147
                },
                {
                    "name": "B2",
                    "midi": 47,
                    "time": 70.10000000000043,
                    "velocity": 0.47244094488188976,
                    "duration": 0.08749999999999147
                },
                {
                    "name": "A3",
                    "midi": 57,
                    "time": 70.10000000000043,
                    "velocity": 0.47244094488188976,
                    "duration": 0.08749999999999147
                },
                {
                    "name": "D#4",
                    "midi": 63,
                    "time": 70.10000000000043,
                    "velocity": 0.47244094488188976,
                    "duration": 0.0833333333333286
                },
                {
                    "name": "B3",
                    "midi": 59,
                    "time": 70.28750000000043,
                    "velocity": 0.47244094488188976,
                    "duration": 0.08750000000000568
                },
                {
                    "name": "F#2",
                    "midi": 42,
                    "time": 70.28750000000043,
                    "velocity": 0.47244094488188976,
                    "duration": 0.18333333333333712
                },
                {
                    "name": "B2",
                    "midi": 47,
                    "time": 70.28750000000043,
                    "velocity": 0.47244094488188976,
                    "duration": 0.08750000000000568
                },
                {
                    "name": "A3",
                    "midi": 57,
                    "time": 70.28750000000043,
                    "velocity": 0.47244094488188976,
                    "duration": 0.08750000000000568
                },
                {
                    "name": "D#4",
                    "midi": 63,
                    "time": 70.28750000000043,
                    "velocity": 0.47244094488188976,
                    "duration": 0.13333333333333997
                },
                {
                    "name": "A4",
                    "midi": 69,
                    "time": 70.31250000000044,
                    "velocity": 0.6692913385826772,
                    "duration": 0.10833333333333428
                },
                {
                    "name": "B2",
                    "midi": 47,
                    "time": 70.47500000000043,
                    "velocity": 0.47244094488188976,
                    "duration": 0.09166666666666856
                },
                {
                    "name": "A3",
                    "midi": 57,
                    "time": 70.47500000000043,
                    "velocity": 0.47244094488188976,
                    "duration": 0.13750000000000284
                },
                {
                    "name": "B3",
                    "midi": 59,
                    "time": 70.47500000000043,
                    "velocity": 0.47244094488188976,
                    "duration": 0.09166666666666856
                },
                {
                    "name": "E4",
                    "midi": 64,
                    "time": 70.47500000000043,
                    "velocity": 0.47244094488188976,
                    "duration": 0.09166666666666856
                },
                {
                    "name": "E2",
                    "midi": 40,
                    "time": 70.47500000000043,
                    "velocity": 0.47244094488188976,
                    "duration": 0.09166666666666856
                },
                {
                    "name": "A4",
                    "midi": 69,
                    "time": 70.50000000000044,
                    "velocity": 0.6692913385826772,
                    "duration": 0.5874999999999915
                },
                {
                    "name": "B3",
                    "midi": 59,
                    "time": 70.67083333333377,
                    "velocity": 0.47244094488188976,
                    "duration": 0.0833333333333286
                },
                {
                    "name": "E4",
                    "midi": 64,
                    "time": 70.67083333333377,
                    "velocity": 0.47244094488188976,
                    "duration": 0.0833333333333286
                },
                {
                    "name": "E2",
                    "midi": 40,
                    "time": 70.67083333333377,
                    "velocity": 0.47244094488188976,
                    "duration": 0.0833333333333286
                },
                {
                    "name": "B2",
                    "midi": 47,
                    "time": 70.67083333333377,
                    "velocity": 0.47244094488188976,
                    "duration": 0.0833333333333286
                },
                {
                    "name": "A3",
                    "midi": 57,
                    "time": 70.67083333333377,
                    "velocity": 0.47244094488188976,
                    "duration": 0.13333333333332575
                },
                {
                    "name": "E2",
                    "midi": 40,
                    "time": 70.86250000000044,
                    "velocity": 0.47244094488188976,
                    "duration": 0.0833333333333286
                },
                {
                    "name": "A3",
                    "midi": 57,
                    "time": 70.86250000000044,
                    "velocity": 0.47244094488188976,
                    "duration": 0.0833333333333286
                },
                {
                    "name": "B3",
                    "midi": 59,
                    "time": 70.86250000000044,
                    "velocity": 0.47244094488188976,
                    "duration": 0.0833333333333286
                },
                {
                    "name": "E4",
                    "midi": 64,
                    "time": 70.86250000000044,
                    "velocity": 0.47244094488188976,
                    "duration": 0.0833333333333286
                },
                {
                    "name": "B2",
                    "midi": 47,
                    "time": 70.86250000000044,
                    "velocity": 0.47244094488188976,
                    "duration": 0.0833333333333286
                },
                {
                    "name": "E2",
                    "midi": 40,
                    "time": 71.05000000000044,
                    "velocity": 0.47244094488188976,
                    "duration": 0.08749999999999147
                },
                {
                    "name": "E3",
                    "midi": 52,
                    "time": 71.05000000000044,
                    "velocity": 0.47244094488188976,
                    "duration": 0.08749999999999147
                },
                {
                    "name": "G#3",
                    "midi": 56,
                    "time": 71.05000000000044,
                    "velocity": 0.47244094488188976,
                    "duration": 0.08749999999999147
                },
                {
                    "name": "E4",
                    "midi": 64,
                    "time": 71.05000000000044,
                    "velocity": 0.6692913385826772,
                    "duration": 0.08749999999999147
                },
                {
                    "name": "G#4",
                    "midi": 68,
                    "time": 71.0541666666671,
                    "velocity": 0.6692913385826772,
                    "duration": 0.1833333333333229
                },
                {
                    "name": "B2",
                    "midi": 47,
                    "time": 71.0541666666671,
                    "velocity": 0.47244094488188976,
                    "duration": 0.08749999999999147
                },
                {
                    "name": "B3",
                    "midi": 59,
                    "time": 71.0541666666671,
                    "velocity": 0.47244094488188976,
                    "duration": 0.0833333333333286
                },
                {
                    "name": "E2",
                    "midi": 40,
                    "time": 71.23750000000042,
                    "velocity": 0.47244094488188976,
                    "duration": 0.09166666666666856
                },
                {
                    "name": "G#3",
                    "midi": 56,
                    "time": 71.23750000000042,
                    "velocity": 0.47244094488188976,
                    "duration": 0.09166666666666856
                },
                {
                    "name": "B3",
                    "midi": 59,
                    "time": 71.23750000000042,
                    "velocity": 0.47244094488188976,
                    "duration": 0.09166666666666856
                },
                {
                    "name": "E4",
                    "midi": 64,
                    "time": 71.23750000000042,
                    "velocity": 0.47244094488188976,
                    "duration": 0.09166666666666856
                },
                {
                    "name": "B2",
                    "midi": 47,
                    "time": 71.24166666666709,
                    "velocity": 0.47244094488188976,
                    "duration": 0.08750000000000568
                },
                {
                    "name": "E3",
                    "midi": 52,
                    "time": 71.24166666666709,
                    "velocity": 0.47244094488188976,
                    "duration": 0.08750000000000568
                },
                {
                    "name": "G#4",
                    "midi": 68,
                    "time": 71.3416666666671,
                    "velocity": 0.6692913385826772,
                    "duration": 0.32500000000001705
                },
                {
                    "name": "E4",
                    "midi": 64,
                    "time": 71.4291666666671,
                    "velocity": 0.47244094488188976,
                    "duration": 0.09583333333334565
                },
                {
                    "name": "G#3",
                    "midi": 56,
                    "time": 71.4291666666671,
                    "velocity": 0.47244094488188976,
                    "duration": 0.18333333333335133
                },
                {
                    "name": "B3",
                    "midi": 59,
                    "time": 71.4291666666671,
                    "velocity": 0.47244094488188976,
                    "duration": 0.09583333333334565
                },
                {
                    "name": "E3",
                    "midi": 52,
                    "time": 71.43750000000044,
                    "velocity": 0.47244094488188976,
                    "duration": 0.17916666666667425
                },
                {
                    "name": "E2",
                    "midi": 40,
                    "time": 71.43750000000044,
                    "velocity": 0.47244094488188976,
                    "duration": 0.17916666666667425
                },
                {
                    "name": "B2",
                    "midi": 47,
                    "time": 71.43750000000044,
                    "velocity": 0.47244094488188976,
                    "duration": 0.08750000000000568
                },
                {
                    "name": "E4",
                    "midi": 64,
                    "time": 71.62500000000045,
                    "velocity": 0.6692913385826772,
                    "duration": 0.0833333333333286
                },
                {
                    "name": "B4",
                    "midi": 71,
                    "time": 71.62500000000045,
                    "velocity": 0.6692913385826772,
                    "duration": 0.1833333333333229
                },
                {
                    "name": "D2",
                    "midi": 38,
                    "time": 71.62500000000045,
                    "velocity": 0.47244094488188976,
                    "duration": 0.0833333333333286
                },
                {
                    "name": "B2",
                    "midi": 47,
                    "time": 71.62500000000045,
                    "velocity": 0.47244094488188976,
                    "duration": 0.0833333333333286
                },
                {
                    "name": "B3",
                    "midi": 59,
                    "time": 71.62500000000045,
                    "velocity": 0.47244094488188976,
                    "duration": 0.0833333333333286
                },
                {
                    "name": "D3",
                    "midi": 50,
                    "time": 71.62916666666712,
                    "velocity": 0.47244094488188976,
                    "duration": 0.07916666666666572
                },
                {
                    "name": "B3",
                    "midi": 59,
                    "time": 71.81250000000044,
                    "velocity": 0.47244094488188976,
                    "duration": 0.08749999999999147
                },
                {
                    "name": "E4",
                    "midi": 64,
                    "time": 71.81250000000044,
                    "velocity": 0.6692913385826772,
                    "duration": 0.08749999999999147
                },
                {
                    "name": "D2",
                    "midi": 38,
                    "time": 71.81250000000044,
                    "velocity": 0.47244094488188976,
                    "duration": 0.08749999999999147
                },
                {
                    "name": "B2",
                    "midi": 47,
                    "time": 71.81250000000044,
                    "velocity": 0.47244094488188976,
                    "duration": 0.09166666666665435
                },
                {
                    "name": "D3",
                    "midi": 50,
                    "time": 71.81250000000044,
                    "velocity": 0.47244094488188976,
                    "duration": 0.08749999999999147
                },
                {
                    "name": "G#4",
                    "midi": 68,
                    "time": 71.8166666666671,
                    "velocity": 0.6692913385826772,
                    "duration": 0.1833333333333229
                },
                {
                    "name": "G#3",
                    "midi": 56,
                    "time": 72.00416666666709,
                    "velocity": 0.47244094488188976,
                    "duration": 0.1875
                },
                {
                    "name": "B3",
                    "midi": 59,
                    "time": 72.00416666666709,
                    "velocity": 0.47244094488188976,
                    "duration": 0.1875
                },
                {
                    "name": "D2",
                    "midi": 38,
                    "time": 72.00416666666709,
                    "velocity": 0.47244094488188976,
                    "duration": 0.1875
                },
                {
                    "name": "B2",
                    "midi": 47,
                    "time": 72.00416666666709,
                    "velocity": 0.47244094488188976,
                    "duration": 0.1875
                },
                {
                    "name": "D3",
                    "midi": 50,
                    "time": 72.00416666666709,
                    "velocity": 0.47244094488188976,
                    "duration": 0.1875
                },
                {
                    "name": "E4",
                    "midi": 64,
                    "time": 72.0291666666671,
                    "velocity": 0.6692913385826772,
                    "duration": 0.11666666666666003
                },
                {
                    "name": "E2",
                    "midi": 40,
                    "time": 72.19583333333375,
                    "velocity": 0.47244094488188976,
                    "duration": 0.09166666666666856
                },
                {
                    "name": "C#4",
                    "midi": 61,
                    "time": 72.19583333333375,
                    "velocity": 0.47244094488188976,
                    "duration": 0.09166666666666856
                },
                {
                    "name": "E4",
                    "midi": 64,
                    "time": 72.19583333333375,
                    "velocity": 0.6692913385826772,
                    "duration": 0.09166666666666856
                },
                {
                    "name": "A4",
                    "midi": 69,
                    "time": 72.19583333333375,
                    "velocity": 0.6692913385826772,
                    "duration": 0.7666666666666231
                },
                {
                    "name": "A3",
                    "midi": 57,
                    "time": 72.20000000000041,
                    "velocity": 0.47244094488188976,
                    "duration": 0.13750000000000284
                },
                {
                    "name": "C#2",
                    "midi": 37,
                    "time": 72.20000000000041,
                    "velocity": 0.47244094488188976,
                    "duration": 0.08750000000000568
                },
                {
                    "name": "C#3",
                    "midi": 49,
                    "time": 72.20000000000041,
                    "velocity": 0.47244094488188976,
                    "duration": 0.08750000000000568
                },
                {
                    "name": "C#4",
                    "midi": 61,
                    "time": 72.38750000000041,
                    "velocity": 0.47244094488188976,
                    "duration": 0.08749999999999147
                },
                {
                    "name": "E4",
                    "midi": 64,
                    "time": 72.38750000000041,
                    "velocity": 0.47244094488188976,
                    "duration": 0.08749999999999147
                },
                {
                    "name": "C#2",
                    "midi": 37,
                    "time": 72.38750000000041,
                    "velocity": 0.47244094488188976,
                    "duration": 0.08749999999999147
                },
                {
                    "name": "E2",
                    "midi": 40,
                    "time": 72.38750000000041,
                    "velocity": 0.47244094488188976,
                    "duration": 0.08749999999999147
                },
                {
                    "name": "A3",
                    "midi": 57,
                    "time": 72.38750000000041,
                    "velocity": 0.47244094488188976,
                    "duration": 0.1416666666666515
                },
                {
                    "name": "C#3",
                    "midi": 49,
                    "time": 72.39166666666708,
                    "velocity": 0.47244094488188976,
                    "duration": 0.0833333333333286
                },
                {
                    "name": "E2",
                    "midi": 40,
                    "time": 72.57916666666706,
                    "velocity": 0.47244094488188976,
                    "duration": 0.08750000000000568
                },
                {
                    "name": "A3",
                    "midi": 57,
                    "time": 72.57916666666706,
                    "velocity": 0.47244094488188976,
                    "duration": 0.14166666666666572
                },
                {
                    "name": "C#4",
                    "midi": 61,
                    "time": 72.57916666666706,
                    "velocity": 0.47244094488188976,
                    "duration": 0.08750000000000568
                },
                {
                    "name": "E4",
                    "midi": 64,
                    "time": 72.57916666666706,
                    "velocity": 0.47244094488188976,
                    "duration": 0.09166666666666856
                },
                {
                    "name": "C#2",
                    "midi": 37,
                    "time": 72.5875000000004,
                    "velocity": 0.47244094488188976,
                    "duration": 0.0833333333333286
                },
                {
                    "name": "C#3",
                    "midi": 49,
                    "time": 72.5875000000004,
                    "velocity": 0.47244094488188976,
                    "duration": 0.0833333333333286
                },
                {
                    "name": "C#4",
                    "midi": 61,
                    "time": 72.77500000000039,
                    "velocity": 0.47244094488188976,
                    "duration": 0.08749999999999147
                },
                {
                    "name": "E4",
                    "midi": 64,
                    "time": 72.77500000000039,
                    "velocity": 0.47244094488188976,
                    "duration": 0.08749999999999147
                },
                {
                    "name": "C#2",
                    "midi": 37,
                    "time": 72.77500000000039,
                    "velocity": 0.47244094488188976,
                    "duration": 0.08749999999999147
                },
                {
                    "name": "E2",
                    "midi": 40,
                    "time": 72.77500000000039,
                    "velocity": 0.47244094488188976,
                    "duration": 0.08749999999999147
                },
                {
                    "name": "A3",
                    "midi": 57,
                    "time": 72.77500000000039,
                    "velocity": 0.47244094488188976,
                    "duration": 0.08749999999999147
                },
                {
                    "name": "C#3",
                    "midi": 49,
                    "time": 72.77916666666705,
                    "velocity": 0.47244094488188976,
                    "duration": 0.0833333333333286
                },
                {
                    "name": "E2",
                    "midi": 40,
                    "time": 72.96666666666704,
                    "velocity": 0.47244094488188976,
                    "duration": 0.08750000000000568
                },
                {
                    "name": "A3",
                    "midi": 57,
                    "time": 72.96666666666704,
                    "velocity": 0.47244094488188976,
                    "duration": 0.08750000000000568
                },
                {
                    "name": "C#4",
                    "midi": 61,
                    "time": 72.96666666666704,
                    "velocity": 0.47244094488188976,
                    "duration": 0.08750000000000568
                },
                {
                    "name": "E4",
                    "midi": 64,
                    "time": 72.96666666666704,
                    "velocity": 0.47244094488188976,
                    "duration": 0.08750000000000568
                },
                {
                    "name": "C#2",
                    "midi": 37,
                    "time": 72.96666666666704,
                    "velocity": 0.47244094488188976,
                    "duration": 0.08750000000000568
                },
                {
                    "name": "C#3",
                    "midi": 49,
                    "time": 72.96666666666704,
                    "velocity": 0.47244094488188976,
                    "duration": 0.08750000000000568
                },
                {
                    "name": "A4",
                    "midi": 69,
                    "time": 73.06250000000038,
                    "velocity": 0.6692913385826772,
                    "duration": 0.32499999999998863
                },
                {
                    "name": "E4",
                    "midi": 64,
                    "time": 73.15416666666705,
                    "velocity": 0.47244094488188976,
                    "duration": 0.08749999999999147
                },
                {
                    "name": "E2",
                    "midi": 40,
                    "time": 73.15416666666705,
                    "velocity": 0.47244094488188976,
                    "duration": 0.08749999999999147
                },
                {
                    "name": "A3",
                    "midi": 57,
                    "time": 73.15416666666705,
                    "velocity": 0.47244094488188976,
                    "duration": 0.23333333333332007
                },
                {
                    "name": "C#4",
                    "midi": 61,
                    "time": 73.15833333333372,
                    "velocity": 0.47244094488188976,
                    "duration": 0.1833333333333229
                },
                {
                    "name": "C#2",
                    "midi": 37,
                    "time": 73.15833333333372,
                    "velocity": 0.47244094488188976,
                    "duration": 0.1833333333333229
                },
                {
                    "name": "C#3",
                    "midi": 49,
                    "time": 73.15833333333372,
                    "velocity": 0.47244094488188976,
                    "duration": 0.1833333333333229
                },
                {
                    "name": "B1",
                    "midi": 35,
                    "time": 73.3458333333337,
                    "velocity": 0.47244094488188976,
                    "duration": 0.09166666666666856
                },
                {
                    "name": "E2",
                    "midi": 40,
                    "time": 73.3458333333337,
                    "velocity": 0.47244094488188976,
                    "duration": 0.09166666666666856
                },
                {
                    "name": "D4",
                    "midi": 62,
                    "time": 73.3458333333337,
                    "velocity": 0.47244094488188976,
                    "duration": 0.14166666666666572
                },
                {
                    "name": "E4",
                    "midi": 64,
                    "time": 73.3458333333337,
                    "velocity": 0.6692913385826772,
                    "duration": 0.09166666666666856
                },
                {
                    "name": "B2",
                    "midi": 47,
                    "time": 73.35000000000036,
                    "velocity": 0.47244094488188976,
                    "duration": 0.08750000000000568
                },
                {
                    "name": "G#4",
                    "midi": 68,
                    "time": 73.35000000000036,
                    "velocity": 0.6692913385826772,
                    "duration": 0.08750000000000568
                },
                {
                    "name": "D5",
                    "midi": 74,
                    "time": 73.37500000000037,
                    "velocity": 0.6692913385826772,
                    "duration": 0.30416666666666003
                },
                {
                    "name": "B1",
                    "midi": 35,
                    "time": 73.53750000000036,
                    "velocity": 0.47244094488188976,
                    "duration": 0.09166666666666856
                },
                {
                    "name": "E4",
                    "midi": 64,
                    "time": 73.54166666666703,
                    "velocity": 0.47244094488188976,
                    "duration": 0.09166666666666856
                },
                {
                    "name": "G#4",
                    "midi": 68,
                    "time": 73.54166666666703,
                    "velocity": 0.47244094488188976,
                    "duration": 0.09166666666666856
                },
                {
                    "name": "E2",
                    "midi": 40,
                    "time": 73.54166666666703,
                    "velocity": 0.47244094488188976,
                    "duration": 0.09166666666666856
                },
                {
                    "name": "B2",
                    "midi": 47,
                    "time": 73.54166666666703,
                    "velocity": 0.47244094488188976,
                    "duration": 0.09166666666666856
                },
                {
                    "name": "D4",
                    "midi": 62,
                    "time": 73.54166666666703,
                    "velocity": 0.47244094488188976,
                    "duration": 0.09166666666666856
                },
                {
                    "name": "D4",
                    "midi": 62,
                    "time": 73.72916666666703,
                    "velocity": 0.47244094488188976,
                    "duration": 0.09583333333333144
                },
                {
                    "name": "E4",
                    "midi": 64,
                    "time": 73.72916666666703,
                    "velocity": 0.47244094488188976,
                    "duration": 0.09583333333333144
                },
                {
                    "name": "B1",
                    "midi": 35,
                    "time": 73.72916666666703,
                    "velocity": 0.47244094488188976,
                    "duration": 0.1875
                },
                {
                    "name": "E2",
                    "midi": 40,
                    "time": 73.72916666666703,
                    "velocity": 0.47244094488188976,
                    "duration": 0.09583333333333144
                },
                {
                    "name": "B2",
                    "midi": 47,
                    "time": 73.72916666666703,
                    "velocity": 0.47244094488188976,
                    "duration": 0.1875
                },
                {
                    "name": "G#4",
                    "midi": 68,
                    "time": 73.73750000000037,
                    "velocity": 0.47244094488188976,
                    "duration": 0.13749999999998863
                },
                {
                    "name": "D5",
                    "midi": 74,
                    "time": 73.78750000000036,
                    "velocity": 0.6692913385826772,
                    "duration": 0.08749999999999147
                },
                {
                    "name": "A2",
                    "midi": 45,
                    "time": 73.92500000000037,
                    "velocity": 0.47244094488188976,
                    "duration": 0.08749999999999147
                },
                {
                    "name": "D4",
                    "midi": 62,
                    "time": 73.92500000000037,
                    "velocity": 0.47244094488188976,
                    "duration": 0.08749999999999147
                },
                {
                    "name": "E4",
                    "midi": 64,
                    "time": 73.92500000000037,
                    "velocity": 0.47244094488188976,
                    "duration": 0.08749999999999147
                },
                {
                    "name": "A4",
                    "midi": 69,
                    "time": 73.92500000000037,
                    "velocity": 0.47244094488188976,
                    "duration": 0.08749999999999147
                },
                {
                    "name": "E2",
                    "midi": 40,
                    "time": 73.92500000000037,
                    "velocity": 0.47244094488188976,
                    "duration": 0.08749999999999147
                },
                {
                    "name": "A1",
                    "midi": 33,
                    "time": 73.92916666666703,
                    "velocity": 0.47244094488188976,
                    "duration": 0.0833333333333286
                },
                {
                    "name": "D5",
                    "midi": 74,
                    "time": 73.95000000000036,
                    "velocity": 0.6692913385826772,
                    "duration": 0.587499999999963
                },
                {
                    "name": "E4",
                    "midi": 64,
                    "time": 74.11250000000035,
                    "velocity": 0.47244094488188976,
                    "duration": 0.08749999999999147
                },
                {
                    "name": "D4",
                    "midi": 62,
                    "time": 74.11666666666702,
                    "velocity": 0.47244094488188976,
                    "duration": 0.13333333333332575
                },
                {
                    "name": "A4",
                    "midi": 69,
                    "time": 74.11666666666702,
                    "velocity": 0.47244094488188976,
                    "duration": 0.0833333333333286
                },
                {
                    "name": "A1",
                    "midi": 33,
                    "time": 74.11666666666702,
                    "velocity": 0.47244094488188976,
                    "duration": 0.0833333333333286
                },
                {
                    "name": "E2",
                    "midi": 40,
                    "time": 74.11666666666702,
                    "velocity": 0.47244094488188976,
                    "duration": 0.0833333333333286
                },
                {
                    "name": "A2",
                    "midi": 45,
                    "time": 74.11666666666702,
                    "velocity": 0.47244094488188976,
                    "duration": 0.0833333333333286
                },
                {
                    "name": "A2",
                    "midi": 45,
                    "time": 74.304166666667,
                    "velocity": 0.47244094488188976,
                    "duration": 0.0833333333333286
                },
                {
                    "name": "D4",
                    "midi": 62,
                    "time": 74.304166666667,
                    "velocity": 0.47244094488188976,
                    "duration": 0.13749999999998863
                },
                {
                    "name": "E4",
                    "midi": 64,
                    "time": 74.304166666667,
                    "velocity": 0.47244094488188976,
                    "duration": 0.0833333333333286
                },
                {
                    "name": "A4",
                    "midi": 69,
                    "time": 74.304166666667,
                    "velocity": 0.47244094488188976,
                    "duration": 0.0833333333333286
                },
                {
                    "name": "A1",
                    "midi": 33,
                    "time": 74.304166666667,
                    "velocity": 0.47244094488188976,
                    "duration": 0.0833333333333286
                },
                {
                    "name": "E2",
                    "midi": 40,
                    "time": 74.304166666667,
                    "velocity": 0.47244094488188976,
                    "duration": 0.0833333333333286
                },
                {
                    "name": "E2",
                    "midi": 40,
                    "time": 74.49166666666699,
                    "velocity": 0.47244094488188976,
                    "duration": 0.09166666666666856
                },
                {
                    "name": "A2",
                    "midi": 45,
                    "time": 74.49166666666699,
                    "velocity": 0.47244094488188976,
                    "duration": 0.09166666666666856
                },
                {
                    "name": "C#4",
                    "midi": 61,
                    "time": 74.49166666666699,
                    "velocity": 0.47244094488188976,
                    "duration": 0.09166666666666856
                },
                {
                    "name": "E4",
                    "midi": 64,
                    "time": 74.49166666666699,
                    "velocity": 0.6692913385826772,
                    "duration": 0.09166666666666856
                },
                {
                    "name": "A4",
                    "midi": 69,
                    "time": 74.49166666666699,
                    "velocity": 0.6692913385826772,
                    "duration": 0.09166666666666856
                },
                {
                    "name": "C#5",
                    "midi": 73,
                    "time": 74.49166666666699,
                    "velocity": 0.6692913385826772,
                    "duration": 0.1875
                },
                {
                    "name": "A1",
                    "midi": 33,
                    "time": 74.49166666666699,
                    "velocity": 0.47244094488188976,
                    "duration": 0.09166666666666856
                },
                {
                    "name": "A2",
                    "midi": 45,
                    "time": 74.68750000000033,
                    "velocity": 0.47244094488188976,
                    "duration": 0.09166666666666856
                },
                {
                    "name": "C#4",
                    "midi": 61,
                    "time": 74.68750000000033,
                    "velocity": 0.47244094488188976,
                    "duration": 0.13750000000000284
                },
                {
                    "name": "E4",
                    "midi": 64,
                    "time": 74.68750000000033,
                    "velocity": 0.47244094488188976,
                    "duration": 0.09166666666666856
                },
                {
                    "name": "A4",
                    "midi": 69,
                    "time": 74.68750000000033,
                    "velocity": 0.47244094488188976,
                    "duration": 0.09166666666666856
                },
                {
                    "name": "A1",
                    "midi": 33,
                    "time": 74.68750000000033,
                    "velocity": 0.47244094488188976,
                    "duration": 0.09166666666666856
                },
                {
                    "name": "E2",
                    "midi": 40,
                    "time": 74.68750000000033,
                    "velocity": 0.47244094488188976,
                    "duration": 0.09166666666666856
                },
                {
                    "name": "C#5",
                    "midi": 73,
                    "time": 74.78750000000034,
                    "velocity": 0.6692913385826772,
                    "duration": 0.17916666666666003
                },
                {
                    "name": "A2",
                    "midi": 45,
                    "time": 74.87916666666699,
                    "velocity": 0.47244094488188976,
                    "duration": 0.08750000000000568
                },
                {
                    "name": "C#4",
                    "midi": 61,
                    "time": 74.87916666666699,
                    "velocity": 0.47244094488188976,
                    "duration": 0.08750000000000568
                },
                {
                    "name": "E4",
                    "midi": 64,
                    "time": 74.87916666666699,
                    "velocity": 0.47244094488188976,
                    "duration": 0.09583333333334565
                },
                {
                    "name": "A4",
                    "midi": 69,
                    "time": 74.87916666666699,
                    "velocity": 0.47244094488188976,
                    "duration": 0.13750000000001705
                },
                {
                    "name": "A1",
                    "midi": 33,
                    "time": 74.87916666666699,
                    "velocity": 0.47244094488188976,
                    "duration": 0.09583333333334565
                },
                {
                    "name": "E2",
                    "midi": 40,
                    "time": 74.87916666666699,
                    "velocity": 0.47244094488188976,
                    "duration": 0.09583333333334565
                },
                {
                    "name": "C#4",
                    "midi": 61,
                    "time": 75.07500000000034,
                    "velocity": 0.47244094488188976,
                    "duration": 0.1875000000000142
                },
                {
                    "name": "E4",
                    "midi": 64,
                    "time": 75.07500000000034,
                    "velocity": 0.6692913385826772,
                    "duration": 0.08333333333334281
                },
                {
                    "name": "G#4",
                    "midi": 68,
                    "time": 75.07500000000034,
                    "velocity": 0.6692913385826772,
                    "duration": 0.08750000000000568
                },
                {
                    "name": "C#5",
                    "midi": 73,
                    "time": 75.07500000000034,
                    "velocity": 0.6692913385826772,
                    "duration": 0.17916666666667425
                },
                {
                    "name": "A2",
                    "midi": 45,
                    "time": 75.07500000000034,
                    "velocity": 0.47244094488188976,
                    "duration": 0.1875000000000142
                },
                {
                    "name": "E3",
                    "midi": 52,
                    "time": 75.07500000000034,
                    "velocity": 0.47244094488188976,
                    "duration": 0.08333333333334281
                },
                {
                    "name": "E4",
                    "midi": 64,
                    "time": 75.26250000000036,
                    "velocity": 0.47244094488188976,
                    "duration": 0.09166666666666856
                },
                {
                    "name": "E3",
                    "midi": 52,
                    "time": 75.26250000000036,
                    "velocity": 0.47244094488188976,
                    "duration": 0.1833333333333229
                },
                {
                    "name": "A3",
                    "midi": 57,
                    "time": 75.26250000000036,
                    "velocity": 0.47244094488188976,
                    "duration": 0.09166666666666856
                },
                {
                    "name": "G#4",
                    "midi": 68,
                    "time": 75.26666666666702,
                    "velocity": 0.47244094488188976,
                    "duration": 0.08750000000000568
                },
                {
                    "name": "C#4",
                    "midi": 61,
                    "time": 75.35833333333369,
                    "velocity": 0.47244094488188976,
                    "duration": 0.1833333333333229
                },
                {
                    "name": "C#5",
                    "midi": 73,
                    "time": 75.35833333333369,
                    "velocity": 0.6692913385826772,
                    "duration": 0.1833333333333229
                },
                {
                    "name": "E4",
                    "midi": 64,
                    "time": 75.45000000000034,
                    "velocity": 0.47244094488188976,
                    "duration": 0.09166666666666856
                },
                {
                    "name": "A3",
                    "midi": 57,
                    "time": 75.454166666667,
                    "velocity": 0.47244094488188976,
                    "duration": 0.08750000000000568
                },
                {
                    "name": "G#4",
                    "midi": 68,
                    "time": 75.454166666667,
                    "velocity": 0.47244094488188976,
                    "duration": 0.08750000000000568
                },
                {
                    "name": "A#3",
                    "midi": 58,
                    "time": 75.641666666667,
                    "velocity": 0.47244094488188976,
                    "duration": 0.5291666666666686
                },
                {
                    "name": "C#5",
                    "midi": 73,
                    "time": 75.65000000000035,
                    "velocity": 0.6692913385826772,
                    "duration": 0.7541666666666771
                },
                {
                    "name": "D#2",
                    "midi": 39,
                    "time": 75.65000000000035,
                    "velocity": 0.47244094488188976,
                    "duration": 0.9000000000000057
                },
                {
                    "name": "C#4",
                    "midi": 61,
                    "time": 75.71666666666701,
                    "velocity": 0.47244094488188976,
                    "duration": 0.16250000000000853
                },
                {
                    "name": "D#4",
                    "midi": 63,
                    "time": 75.79166666666701,
                    "velocity": 0.47244094488188976,
                    "duration": 0.18333333333333712
                },
                {
                    "name": "G4",
                    "midi": 67,
                    "time": 75.86666666666702,
                    "velocity": 0.47244094488188976,
                    "duration": 0.05833333333333712
                },
                {
                    "name": "A#4",
                    "midi": 70,
                    "time": 75.93750000000036,
                    "velocity": 0.47244094488188976,
                    "duration": 0.1874999999999858
                },
                {
                    "name": "G4",
                    "midi": 67,
                    "time": 76.01250000000034,
                    "velocity": 0.47244094488188976,
                    "duration": 0.15833333333333144
                },
                {
                    "name": "D#4",
                    "midi": 63,
                    "time": 76.079166666667,
                    "velocity": 0.47244094488188976,
                    "duration": 0.09166666666666856
                },
                {
                    "name": "C#4",
                    "midi": 61,
                    "time": 76.15416666666701,
                    "velocity": 0.47244094488188976,
                    "duration": 0.0625
                },
                {
                    "name": "D#5",
                    "midi": 75,
                    "time": 76.15416666666701,
                    "velocity": 0.47244094488188976,
                    "duration": 0.3500000000000085
                },
                {
                    "name": "G5",
                    "midi": 79,
                    "time": 76.17500000000034,
                    "velocity": 0.47244094488188976,
                    "duration": 0.32916666666667993
                },
                {
                    "name": "A#5",
                    "midi": 82,
                    "time": 76.204166666667,
                    "velocity": 0.47244094488188976,
                    "duration": 0.30000000000001137
                },
                {
                    "name": "C#6",
                    "midi": 85,
                    "time": 76.22500000000035,
                    "velocity": 0.47244094488188976,
                    "duration": 0.27916666666666856
                },
                {
                    "name": "C#4",
                    "midi": 61,
                    "time": 76.29583333333369,
                    "velocity": 0.47244094488188976,
                    "duration": 0.15833333333333144
                },
                {
                    "name": "D#4",
                    "midi": 63,
                    "time": 76.36666666666703,
                    "velocity": 0.47244094488188976,
                    "duration": 0.1833333333333229
                },
                {
                    "name": "G4",
                    "midi": 67,
                    "time": 76.44166666666702,
                    "velocity": 0.47244094488188976,
                    "duration": 0.0625
                },
                {
                    "name": "A#4",
                    "midi": 70,
                    "time": 76.51250000000036,
                    "velocity": 0.6692913385826772,
                    "duration": 0.1875
                },
                {
                    "name": "C#5",
                    "midi": 73,
                    "time": 76.53333333333369,
                    "velocity": 0.6692913385826772,
                    "duration": 0.30416666666667425
                },
                {
                    "name": "G4",
                    "midi": 67,
                    "time": 76.57916666666702,
                    "velocity": 0.47244094488188976,
                    "duration": 0.16250000000000853
                },
                {
                    "name": "D#4",
                    "midi": 63,
                    "time": 76.65416666666702,
                    "velocity": 0.47244094488188976,
                    "duration": 0.08750000000000568
                },
                {
                    "name": "C#4",
                    "midi": 61,
                    "time": 76.72500000000036,
                    "velocity": 0.47244094488188976,
                    "duration": 0.06666666666666288
                },
                {
                    "name": "D#5",
                    "midi": 75,
                    "time": 76.80000000000037,
                    "velocity": 0.6692913385826772,
                    "duration": 0.32500000000000284
                },
                {
                    "name": "C#4",
                    "midi": 61,
                    "time": 76.87083333333369,
                    "velocity": 0.47244094488188976,
                    "duration": 0.15833333333333144
                },
                {
                    "name": "D#4",
                    "midi": 63,
                    "time": 76.93750000000036,
                    "velocity": 0.47244094488188976,
                    "duration": 0.1875000000000142
                },
                {
                    "name": "G4",
                    "midi": 67,
                    "time": 77.01250000000036,
                    "velocity": 0.47244094488188976,
                    "duration": 0.0625
                },
                {
                    "name": "A#4",
                    "midi": 70,
                    "time": 77.0833333333337,
                    "velocity": 0.6692913385826772,
                    "duration": 0.17916666666668846
                },
                {
                    "name": "G4",
                    "midi": 67,
                    "time": 77.15000000000038,
                    "velocity": 0.47244094488188976,
                    "duration": 0.16250000000000853
                },
                {
                    "name": "D#4",
                    "midi": 63,
                    "time": 77.22083333333372,
                    "velocity": 0.47244094488188976,
                    "duration": 0.09166666666666856
                },
                {
                    "name": "C#4",
                    "midi": 61,
                    "time": 77.29583333333372,
                    "velocity": 0.47244094488188976,
                    "duration": 0.05833333333333712
                },
                {
                    "name": "D#2",
                    "midi": 39,
                    "time": 77.36666666666706,
                    "velocity": 0.47244094488188976,
                    "duration": 0.895833333333357
                },
                {
                    "name": "A#4",
                    "midi": 70,
                    "time": 77.36666666666706,
                    "velocity": 0.6692913385826772,
                    "duration": 0.13750000000000284
                },
                {
                    "name": "C5",
                    "midi": 72,
                    "time": 77.39166666666706,
                    "velocity": 0.6692913385826772,
                    "duration": 1.01666666666668
                },
                {
                    "name": "C4",
                    "midi": 60,
                    "time": 77.4375000000004,
                    "velocity": 0.47244094488188976,
                    "duration": 0.2083333333333428
                },
                {
                    "name": "D#4",
                    "midi": 63,
                    "time": 77.5125000000004,
                    "velocity": 0.47244094488188976,
                    "duration": 0.13333333333333997
                },
                {
                    "name": "A#4",
                    "midi": 70,
                    "time": 77.5875000000004,
                    "velocity": 0.47244094488188976,
                    "duration": 0.49166666666667425
                },
                {
                    "name": "D#4",
                    "midi": 63,
                    "time": 77.75416666666707,
                    "velocity": 0.47244094488188976,
                    "duration": 0.13333333333332575
                },
                {
                    "name": "C4",
                    "midi": 60,
                    "time": 77.8500000000004,
                    "velocity": 0.47244094488188976,
                    "duration": 0.07916666666666572
                },
                {
                    "name": "D#5",
                    "midi": 75,
                    "time": 77.87083333333374,
                    "velocity": 0.47244094488188976,
                    "duration": 0.34583333333334565
                },
                {
                    "name": "A#5",
                    "midi": 82,
                    "time": 77.89166666666706,
                    "velocity": 0.47244094488188976,
                    "duration": 0.32500000000001705
                },
                {
                    "name": "C6",
                    "midi": 84,
                    "time": 77.91666666666707,
                    "velocity": 0.47244094488188976,
                    "duration": 0.30000000000001137
                },
                {
                    "name": "C4",
                    "midi": 60,
                    "time": 78.01666666666708,
                    "velocity": 0.47244094488188976,
                    "duration": 0.20000000000000284
                },
                {
                    "name": "D#4",
                    "midi": 63,
                    "time": 78.08333333333374,
                    "velocity": 0.47244094488188976,
                    "duration": 0.13333333333333997
                },
                {
                    "name": "A#4",
                    "midi": 70,
                    "time": 78.15416666666708,
                    "velocity": 0.47244094488188976,
                    "duration": 0.3541666666666572
                },
                {
                    "name": "D#4",
                    "midi": 63,
                    "time": 78.32500000000041,
                    "velocity": 0.47244094488188976,
                    "duration": 0.12916666666666288
                },
                {
                    "name": "C4",
                    "midi": 60,
                    "time": 78.4125000000004,
                    "velocity": 0.47244094488188976,
                    "duration": 0.09166666666666856
                },
                {
                    "name": "G#4",
                    "midi": 68,
                    "time": 78.5125000000004,
                    "velocity": 0.6692913385826772,
                    "duration": 0.13750000000000284
                },
                {
                    "name": "C5",
                    "midi": 72,
                    "time": 78.5375000000004,
                    "velocity": 0.6692913385826772,
                    "duration": 0.45000000000000284
                },
                {
                    "name": "C4",
                    "midi": 60,
                    "time": 78.58333333333374,
                    "velocity": 0.47244094488188976,
                    "duration": 0.15833333333334565
                },
                {
                    "name": "D#4",
                    "midi": 63,
                    "time": 78.65833333333374,
                    "velocity": 0.47244094488188976,
                    "duration": 0.13333333333333997
                },
                {
                    "name": "G#4",
                    "midi": 68,
                    "time": 78.72916666666708,
                    "velocity": 0.47244094488188976,
                    "duration": 0.25833333333332575
                },
                {
                    "name": "D#4",
                    "midi": 63,
                    "time": 78.90416666666708,
                    "velocity": 0.47244094488188976,
                    "duration": 0.13333333333332575
                },
                {
                    "name": "C4",
                    "midi": 60,
                    "time": 79.00000000000041,
                    "velocity": 0.47244094488188976,
                    "duration": 0.0833333333333286
                },
                {
                    "name": "F3",
                    "midi": 53,
                    "time": 79.09166666666708,
                    "velocity": 0.47244094488188976,
                    "duration": 0.5166666666666657
                },
                {
                    "name": "C5",
                    "midi": 72,
                    "time": 79.09583333333374,
                    "velocity": 0.6692913385826772,
                    "duration": 0.32083333333333997
                },
                {
                    "name": "D#2",
                    "midi": 39,
                    "time": 79.09583333333374,
                    "velocity": 0.47244094488188976,
                    "duration": 0.8916666666666941
                },
                {
                    "name": "D3",
                    "midi": 50,
                    "time": 79.09583333333374,
                    "velocity": 0.47244094488188976,
                    "duration": 0.5166666666666657
                },
                {
                    "name": "G#3",
                    "midi": 56,
                    "time": 79.1625000000004,
                    "velocity": 0.47244094488188976,
                    "duration": 0.16250000000000853
                },
                {
                    "name": "A#3",
                    "midi": 58,
                    "time": 79.23333333333375,
                    "velocity": 0.47244094488188976,
                    "duration": 0.18333333333333712
                },
                {
                    "name": "D4",
                    "midi": 62,
                    "time": 79.30833333333375,
                    "velocity": 0.47244094488188976,
                    "duration": 0.0625
                },
                {
                    "name": "F4",
                    "midi": 65,
                    "time": 79.37916666666709,
                    "velocity": 0.6692913385826772,
                    "duration": 0.23333333333332007
                },
                {
                    "name": "D4",
                    "midi": 62,
                    "time": 79.45000000000041,
                    "velocity": 0.47244094488188976,
                    "duration": 0.16249999999999432
                },
                {
                    "name": "A#3",
                    "midi": 58,
                    "time": 79.52500000000042,
                    "velocity": 0.47244094488188976,
                    "duration": 0.0833333333333286
                },
                {
                    "name": "G#3",
                    "midi": 56,
                    "time": 79.59166666666708,
                    "velocity": 0.47244094488188976,
                    "duration": 0.07083333333333997
                },
                {
                    "name": "D5",
                    "midi": 74,
                    "time": 79.59583333333374,
                    "velocity": 0.47244094488188976,
                    "duration": 0.2583333333333542
                },
                {
                    "name": "F5",
                    "midi": 77,
                    "time": 79.62083333333375,
                    "velocity": 0.47244094488188976,
                    "duration": 0.2333333333333485
                },
                {
                    "name": "G#5",
                    "midi": 80,
                    "time": 79.65000000000042,
                    "velocity": 0.47244094488188976,
                    "duration": 0.3375000000000199
                },
                {
                    "name": "C6",
                    "midi": 84,
                    "time": 79.67083333333376,
                    "velocity": 0.6692913385826772,
                    "duration": 0.3166666666666771
                },
                {
                    "name": "F4",
                    "midi": 65,
                    "time": 79.69166666666709,
                    "velocity": 0.6692913385826772,
                    "duration": 0.16250000000000853
                },
                {
                    "name": "G#3",
                    "midi": 56,
                    "time": 79.73750000000042,
                    "velocity": 0.47244094488188976,
                    "duration": 0.15833333333334565
                },
                {
                    "name": "A#3",
                    "midi": 58,
                    "time": 79.80833333333376,
                    "velocity": 0.47244094488188976,
                    "duration": 0.17916666666667425
                },
                {
                    "name": "D4",
                    "midi": 62,
                    "time": 79.8791666666671,
                    "velocity": 0.47244094488188976,
                    "duration": 0.06666666666666288
                },
                {
                    "name": "D5",
                    "midi": 74,
                    "time": 79.95000000000043,
                    "velocity": 0.47244094488188976,
                    "duration": 0.14166666666666572
                },
                {
                    "name": "F5",
                    "midi": 77,
                    "time": 79.95000000000043,
                    "velocity": 0.47244094488188976,
                    "duration": 0.14166666666666572
                },
                {
                    "name": "F4",
                    "midi": 65,
                    "time": 79.9791666666671,
                    "velocity": 0.6692913385826772,
                    "duration": 0.3083333333333371
                },
                {
                    "name": "D4",
                    "midi": 62,
                    "time": 80.02500000000043,
                    "velocity": 0.47244094488188976,
                    "duration": 0.15833333333333144
                },
                {
                    "name": "A#3",
                    "midi": 58,
                    "time": 80.0916666666671,
                    "velocity": 0.47244094488188976,
                    "duration": 0.09166666666666856
                },
                {
                    "name": "G#3",
                    "midi": 56,
                    "time": 80.1666666666671,
                    "velocity": 0.47244094488188976,
                    "duration": 0.0625
                },
                {
                    "name": "G4",
                    "midi": 67,
                    "time": 80.2416666666671,
                    "velocity": 0.6692913385826772,
                    "duration": 0.3333333333333286
                },
                {
                    "name": "G#3",
                    "midi": 56,
                    "time": 80.33750000000043,
                    "velocity": 0.47244094488188976,
                    "duration": 0.13750000000000284
                },
                {
                    "name": "A#3",
                    "midi": 58,
                    "time": 80.3791666666671,
                    "velocity": 0.47244094488188976,
                    "duration": 0.19166666666666288
                },
                {
                    "name": "D4",
                    "midi": 62,
                    "time": 80.4541666666671,
                    "velocity": 0.47244094488188976,
                    "duration": 0.07083333333332575
                },
                {
                    "name": "F4",
                    "midi": 65,
                    "time": 80.5291666666671,
                    "velocity": 0.6692913385826772,
                    "duration": 0.18333333333335133
                },
                {
                    "name": "G#4",
                    "midi": 68,
                    "time": 80.5541666666671,
                    "velocity": 0.6692913385826772,
                    "duration": 0.30833333333335133
                },
                {
                    "name": "D4",
                    "midi": 62,
                    "time": 80.60000000000043,
                    "velocity": 0.47244094488188976,
                    "duration": 0.16666666666668561
                },
                {
                    "name": "A#3",
                    "midi": 58,
                    "time": 80.67083333333377,
                    "velocity": 0.47244094488188976,
                    "duration": 0.09583333333334565
                },
                {
                    "name": "G#3",
                    "midi": 56,
                    "time": 80.74166666666711,
                    "velocity": 0.47244094488188976,
                    "duration": 0.07083333333333997
                },
                {
                    "name": "D#2",
                    "midi": 39,
                    "time": 80.82500000000046,
                    "velocity": 0.47244094488188976,
                    "duration": 0.31666666666664867
                },
                {
                    "name": "A#4",
                    "midi": 70,
                    "time": 80.82500000000046,
                    "velocity": 0.6692913385826772,
                    "duration": 0.5124999999999744
                },
                {
                    "name": "A#2",
                    "midi": 46,
                    "time": 80.89166666666712,
                    "velocity": 0.47244094488188976,
                    "duration": 0.16249999999999432
                },
                {
                    "name": "G3",
                    "midi": 55,
                    "time": 80.89166666666712,
                    "velocity": 0.47244094488188976,
                    "duration": 0.11249999999999716
                },
                {
                    "name": "A#3",
                    "midi": 58,
                    "time": 80.96250000000046,
                    "velocity": 0.47244094488188976,
                    "duration": 0.17916666666664582
                },
                {
                    "name": "C#3",
                    "midi": 49,
                    "time": 80.96666666666712,
                    "velocity": 0.47244094488188976,
                    "duration": 0.17499999999998295
                },
                {
                    "name": "D#3",
                    "midi": 51,
                    "time": 81.03750000000045,
                    "velocity": 0.47244094488188976,
                    "duration": 0.0625
                },
                {
                    "name": "C#4",
                    "midi": 61,
                    "time": 81.03750000000045,
                    "velocity": 0.47244094488188976,
                    "duration": 0.0625
                },
                {
                    "name": "G3",
                    "midi": 55,
                    "time": 81.10416666666711,
                    "velocity": 0.47244094488188976,
                    "duration": 0.13333333333332575
                },
                {
                    "name": "D#4",
                    "midi": 63,
                    "time": 81.10416666666711,
                    "velocity": 0.47244094488188976,
                    "duration": 0.1833333333333229
                },
                {
                    "name": "D#3",
                    "midi": 51,
                    "time": 81.1791666666671,
                    "velocity": 0.47244094488188976,
                    "duration": 0.15833333333333144
                },
                {
                    "name": "C#4",
                    "midi": 61,
                    "time": 81.1791666666671,
                    "velocity": 0.47244094488188976,
                    "duration": 0.15833333333333144
                },
                {
                    "name": "A#3",
                    "midi": 58,
                    "time": 81.2416666666671,
                    "velocity": 0.47244094488188976,
                    "duration": 0.1458333333333286
                },
                {
                    "name": "C#3",
                    "midi": 49,
                    "time": 81.25000000000044,
                    "velocity": 0.47244094488188976,
                    "duration": 0.13749999999998863
                },
                {
                    "name": "A#2",
                    "midi": 46,
                    "time": 81.32083333333377,
                    "velocity": 0.47244094488188976,
                    "duration": 0.11249999999999716
                },
                {
                    "name": "G3",
                    "midi": 55,
                    "time": 81.32083333333377,
                    "velocity": 0.47244094488188976,
                    "duration": 0.10833333333333428
                },
                {
                    "name": "D#2",
                    "midi": 39,
                    "time": 81.38750000000043,
                    "velocity": 0.47244094488188976,
                    "duration": 0.6291666666666771
                },
                {
                    "name": "A#3",
                    "midi": 58,
                    "time": 81.46250000000043,
                    "velocity": 0.47244094488188976,
                    "duration": 0.1666666666666572
                },
                {
                    "name": "G4",
                    "midi": 67,
                    "time": 81.4666666666671,
                    "velocity": 0.47244094488188976,
                    "duration": 0.11249999999999716
                },
                {
                    "name": "C#4",
                    "midi": 61,
                    "time": 81.53750000000043,
                    "velocity": 0.47244094488188976,
                    "duration": 0.17916666666666003
                },
                {
                    "name": "A#4",
                    "midi": 70,
                    "time": 81.5416666666671,
                    "velocity": 0.47244094488188976,
                    "duration": 0.18333333333333712
                },
                {
                    "name": "C#5",
                    "midi": 73,
                    "time": 81.60833333333376,
                    "velocity": 0.47244094488188976,
                    "duration": 0.06666666666666288
                },
                {
                    "name": "D#4",
                    "midi": 63,
                    "time": 81.61250000000042,
                    "velocity": 0.47244094488188976,
                    "duration": 0.0625
                },
                {
                    "name": "G4",
                    "midi": 67,
                    "time": 81.68333333333376,
                    "velocity": 0.47244094488188976,
                    "duration": 0.14166666666666572
                },
                {
                    "name": "D#5",
                    "midi": 75,
                    "time": 81.68333333333376,
                    "velocity": 0.47244094488188976,
                    "duration": 0.19166666666666288
                },
                {
                    "name": "D#4",
                    "midi": 63,
                    "time": 81.75833333333377,
                    "velocity": 0.47244094488188976,
                    "duration": 0.16249999999999432
                },
                {
                    "name": "C#5",
                    "midi": 73,
                    "time": 81.75833333333377,
                    "velocity": 0.47244094488188976,
                    "duration": 0.16249999999999432
                },
                {
                    "name": "C#4",
                    "midi": 61,
                    "time": 81.82916666666709,
                    "velocity": 0.47244094488188976,
                    "duration": 0.13750000000000284
                },
                {
                    "name": "A#4",
                    "midi": 70,
                    "time": 81.82916666666709,
                    "velocity": 0.47244094488188976,
                    "duration": 0.13750000000000284
                },
                {
                    "name": "A#3",
                    "midi": 58,
                    "time": 81.90000000000043,
                    "velocity": 0.47244094488188976,
                    "duration": 0.11666666666667425
                },
                {
                    "name": "G4",
                    "midi": 67,
                    "time": 81.9041666666671,
                    "velocity": 0.47244094488188976,
                    "duration": 0.11250000000001137
                },
                {
                    "name": "D#3",
                    "midi": 51,
                    "time": 81.97500000000043,
                    "velocity": 0.47244094488188976,
                    "duration": 0.9041666666666259
                },
                {
                    "name": "A#4",
                    "midi": 70,
                    "time": 82.05000000000044,
                    "velocity": 0.47244094488188976,
                    "duration": 0.1624999999999801
                },
                {
                    "name": "G5",
                    "midi": 79,
                    "time": 82.05000000000044,
                    "velocity": 0.47244094488188976,
                    "duration": 0.10833333333332007
                },
                {
                    "name": "C#5",
                    "midi": 73,
                    "time": 82.1166666666671,
                    "velocity": 0.47244094488188976,
                    "duration": 0.18749999999997158
                },
                {
                    "name": "A#5",
                    "midi": 82,
                    "time": 82.12083333333376,
                    "velocity": 0.47244094488188976,
                    "duration": 0.13749999999998863
                },
                {
                    "name": "C#6",
                    "midi": 85,
                    "time": 82.18750000000043,
                    "velocity": 0.47244094488188976,
                    "duration": 0.11666666666664582
                },
                {
                    "name": "D#5",
                    "midi": 75,
                    "time": 82.19166666666709,
                    "velocity": 0.47244094488188976,
                    "duration": 0.15833333333331723
                },
                {
                    "name": "D#6",
                    "midi": 87,
                    "time": 82.26250000000041,
                    "velocity": 0.47244094488188976,
                    "duration": 0.13333333333332575
                },
                {
                    "name": "G5",
                    "midi": 79,
                    "time": 82.26666666666708,
                    "velocity": 0.47244094488188976,
                    "duration": 0.17916666666666003
                },
                {
                    "name": "A#5",
                    "midi": 82,
                    "time": 82.33333333333374,
                    "velocity": 0.47244094488188976,
                    "duration": 0.1666666666666572
                },
                {
                    "name": "G6",
                    "midi": 91,
                    "time": 82.3375000000004,
                    "velocity": 0.47244094488188976,
                    "duration": 0.16249999999999432
                },
                {
                    "name": "C#6",
                    "midi": 85,
                    "time": 82.40416666666708,
                    "velocity": 0.47244094488188976,
                    "duration": 0.1874999999999858
                },
                {
                    "name": "A#6",
                    "midi": 94,
                    "time": 82.40833333333374,
                    "velocity": 0.47244094488188976,
                    "duration": 0.1833333333333229
                },
                {
                    "name": "D#6",
                    "midi": 87,
                    "time": 82.47916666666707,
                    "velocity": 0.47244094488188976,
                    "duration": 0.05833333333332291
                },
                {
                    "name": "C#7",
                    "midi": 97,
                    "time": 82.47916666666707,
                    "velocity": 0.47244094488188976,
                    "duration": 0.06249999999998579
                },
                {
                    "name": "G6",
                    "midi": 91,
                    "time": 82.5500000000004,
                    "velocity": 0.47244094488188976,
                    "duration": 0.13750000000000284
                },
                {
                    "name": "D#7",
                    "midi": 99,
                    "time": 82.5500000000004,
                    "velocity": 0.47244094488188976,
                    "duration": 0.27916666666666856
                },
                {
                    "name": "D#6",
                    "midi": 87,
                    "time": 82.62083333333374,
                    "velocity": 0.47244094488188976,
                    "duration": 0.10833333333333428
                },
                {
                    "name": "C#7",
                    "midi": 97,
                    "time": 82.62083333333374,
                    "velocity": 0.47244094488188976,
                    "duration": 0.30416666666666003
                },
                {
                    "name": "C#6",
                    "midi": 85,
                    "time": 82.6875000000004,
                    "velocity": 0.47244094488188976,
                    "duration": 0.14166666666666572
                },
                {
                    "name": "A#6",
                    "midi": 94,
                    "time": 82.6875000000004,
                    "velocity": 0.47244094488188976,
                    "duration": 0.28333333333333144
                },
                {
                    "name": "A#5",
                    "midi": 82,
                    "time": 82.76666666666706,
                    "velocity": 0.47244094488188976,
                    "duration": 0.11249999999999716
                },
                {
                    "name": "G6",
                    "midi": 91,
                    "time": 82.76666666666706,
                    "velocity": 0.47244094488188976,
                    "duration": 0.25833333333333997
                },
                {
                    "name": "D#6",
                    "midi": 87,
                    "time": 82.8375000000004,
                    "velocity": 0.47244094488188976,
                    "duration": 0.18333333333333712
                },
                {
                    "name": "G5",
                    "midi": 79,
                    "time": 82.84166666666707,
                    "velocity": 0.47244094488188976,
                    "duration": 0.12916666666666288
                },
                {
                    "name": "C#6",
                    "midi": 85,
                    "time": 82.90833333333373,
                    "velocity": 0.47244094488188976,
                    "duration": 0.2083333333333428
                },
                {
                    "name": "D#5",
                    "midi": 75,
                    "time": 82.91250000000039,
                    "velocity": 0.47244094488188976,
                    "duration": 0.2083333333333428
                },
                {
                    "name": "C#5",
                    "midi": 73,
                    "time": 82.97916666666707,
                    "velocity": 0.47244094488188976,
                    "duration": 0.1833333333333229
                },
                {
                    "name": "A#5",
                    "midi": 82,
                    "time": 82.97916666666707,
                    "velocity": 0.47244094488188976,
                    "duration": 0.1833333333333229
                },
                {
                    "name": "A#4",
                    "midi": 70,
                    "time": 83.05416666666707,
                    "velocity": 0.47244094488188976,
                    "duration": 0.20833333333331439
                },
                {
                    "name": "G5",
                    "midi": 79,
                    "time": 83.05416666666707,
                    "velocity": 0.47244094488188976,
                    "duration": 0.20833333333331439
                },
                {
                    "name": "D#6",
                    "midi": 87,
                    "time": 83.1250000000004,
                    "velocity": 0.47244094488188976,
                    "duration": 0.3291666666666657
                },
                {
                    "name": "G4",
                    "midi": 67,
                    "time": 83.12916666666706,
                    "velocity": 0.47244094488188976,
                    "duration": 0.18333333333333712
                },
                {
                    "name": "D#5",
                    "midi": 75,
                    "time": 83.20000000000039,
                    "velocity": 0.47244094488188976,
                    "duration": 0.11250000000001137
                },
                {
                    "name": "C#6",
                    "midi": 85,
                    "time": 83.20000000000039,
                    "velocity": 0.47244094488188976,
                    "duration": 0.30000000000001137
                },
                {
                    "name": "C#5",
                    "midi": 73,
                    "time": 83.27083333333373,
                    "velocity": 0.47244094488188976,
                    "duration": 0.13750000000000284
                },
                {
                    "name": "A#5",
                    "midi": 82,
                    "time": 83.27083333333373,
                    "velocity": 0.47244094488188976,
                    "duration": 0.28333333333333144
                },
                {
                    "name": "A#4",
                    "midi": 70,
                    "time": 83.34166666666707,
                    "velocity": 0.47244094488188976,
                    "duration": 0.11249999999999716
                },
                {
                    "name": "G5",
                    "midi": 79,
                    "time": 83.34166666666707,
                    "velocity": 0.47244094488188976,
                    "duration": 0.25833333333331154
                },
                {
                    "name": "G4",
                    "midi": 67,
                    "time": 83.41250000000039,
                    "velocity": 0.47244094488188976,
                    "duration": 0.14166666666666572
                },
                {
                    "name": "D#5",
                    "midi": 75,
                    "time": 83.41250000000039,
                    "velocity": 0.47244094488188976,
                    "duration": 0.1874999999999858
                },
                {
                    "name": "D#4",
                    "midi": 63,
                    "time": 83.4875000000004,
                    "velocity": 0.47244094488188976,
                    "duration": 0.2041666666666515
                },
                {
                    "name": "C#5",
                    "midi": 73,
                    "time": 83.4875000000004,
                    "velocity": 0.47244094488188976,
                    "duration": 0.2041666666666515
                },
                {
                    "name": "C#4",
                    "midi": 61,
                    "time": 83.55833333333372,
                    "velocity": 0.47244094488188976,
                    "duration": 0.1833333333333229
                },
                {
                    "name": "A#4",
                    "midi": 70,
                    "time": 83.56250000000038,
                    "velocity": 0.47244094488188976,
                    "duration": 0.17916666666666003
                },
                {
                    "name": "A#3",
                    "midi": 58,
                    "time": 83.62916666666705,
                    "velocity": 0.47244094488188976,
                    "duration": 0.20416666666666572
                },
                {
                    "name": "G4",
                    "midi": 67,
                    "time": 83.63333333333371,
                    "velocity": 0.47244094488188976,
                    "duration": 0.20416666666666572
                },
                {
                    "name": "G3",
                    "midi": 55,
                    "time": 83.70000000000039,
                    "velocity": 0.47244094488188976,
                    "duration": 0.17499999999998295
                },
                {
                    "name": "D#5",
                    "midi": 75,
                    "time": 83.70416666666705,
                    "velocity": 0.47244094488188976,
                    "duration": 0.32083333333331154
                },
                {
                    "name": "D#4",
                    "midi": 63,
                    "time": 83.77083333333371,
                    "velocity": 0.47244094488188976,
                    "duration": 0.10833333333332007
                },
                {
                    "name": "C#5",
                    "midi": 73,
                    "time": 83.77083333333371,
                    "velocity": 0.47244094488188976,
                    "duration": 0.29583333333332007
                },
                {
                    "name": "C#4",
                    "midi": 61,
                    "time": 83.84166666666704,
                    "velocity": 0.47244094488188976,
                    "duration": 0.13333333333332575
                },
                {
                    "name": "A#4",
                    "midi": 70,
                    "time": 83.8458333333337,
                    "velocity": 0.47244094488188976,
                    "duration": 0.2291666666666714
                },
                {
                    "name": "A#3",
                    "midi": 58,
                    "time": 83.91250000000036,
                    "velocity": 0.47244094488188976,
                    "duration": 0.11249999999999716
                },
                {
                    "name": "G4",
                    "midi": 67,
                    "time": 83.91666666666703,
                    "velocity": 0.47244094488188976,
                    "duration": 0.20416666666667993
                },
                {
                    "name": "G3",
                    "midi": 55,
                    "time": 83.9833333333337,
                    "velocity": 0.47244094488188976,
                    "duration": 0.13750000000000284
                },
                {
                    "name": "D#4",
                    "midi": 63,
                    "time": 83.98750000000037,
                    "velocity": 0.47244094488188976,
                    "duration": 0.17916666666666003
                },
                {
                    "name": "D#3",
                    "midi": 51,
                    "time": 84.05416666666703,
                    "velocity": 0.47244094488188976,
                    "duration": 0.16249999999999432
                },
                {
                    "name": "C#4",
                    "midi": 61,
                    "time": 84.05833333333369,
                    "velocity": 0.47244094488188976,
                    "duration": 0.15833333333333144
                },
                {
                    "name": "A#3",
                    "midi": 58,
                    "time": 84.12500000000037,
                    "velocity": 0.47244094488188976,
                    "duration": 0.09166666666665435
                },
                {
                    "name": "C#3",
                    "midi": 49,
                    "time": 84.12916666666703,
                    "velocity": 0.47244094488188976,
                    "duration": 0.13749999999998863
                },
                {
                    "name": "A#2",
                    "midi": 46,
                    "time": 84.20416666666702,
                    "velocity": 0.47244094488188976,
                    "duration": 0.10833333333333428
                },
                {
                    "name": "G3",
                    "midi": 55,
                    "time": 84.20416666666702,
                    "velocity": 0.47244094488188976,
                    "duration": 0.05833333333333712
                },
                {
                    "name": "C4",
                    "midi": 60,
                    "time": 84.27500000000036,
                    "velocity": 0.6692913385826772,
                    "duration": 0.12916666666666288
                },
                {
                    "name": "C5",
                    "midi": 72,
                    "time": 84.27500000000036,
                    "velocity": 0.6692913385826772,
                    "duration": 0.12916666666666288
                },
                {
                    "name": "G#1",
                    "midi": 32,
                    "time": 84.27500000000036,
                    "velocity": 0.6692913385826772,
                    "duration": 0.6041666666666714
                },
                {
                    "name": "D#2",
                    "midi": 39,
                    "time": 84.27500000000036,
                    "velocity": 0.6692913385826772,
                    "duration": 0.6083333333333343
                },
                {
                    "name": "G#2",
                    "midi": 44,
                    "time": 84.27500000000036,
                    "velocity": 0.6692913385826772,
                    "duration": 0.6041666666666714
                },
                {
                    "name": "D#4",
                    "midi": 63,
                    "time": 84.34166666666702,
                    "velocity": 0.47244094488188976,
                    "duration": 0.3958333333333428
                },
                {
                    "name": "G#4",
                    "midi": 68,
                    "time": 84.41250000000036,
                    "velocity": 0.47244094488188976,
                    "duration": 0.375
                },
                {
                    "name": "C5",
                    "midi": 72,
                    "time": 84.4833333333337,
                    "velocity": 0.47244094488188976,
                    "duration": 0.20416666666666572
                },
                {
                    "name": "C4",
                    "midi": 60,
                    "time": 84.5583333333337,
                    "velocity": 0.6692913385826772,
                    "duration": 0.03333333333333144
                },
                {
                    "name": "D#3",
                    "midi": 51,
                    "time": 84.5583333333337,
                    "velocity": 0.6692913385826772,
                    "duration": 0.03333333333333144
                },
                {
                    "name": "G#3",
                    "midi": 56,
                    "time": 84.5583333333337,
                    "velocity": 0.6692913385826772,
                    "duration": 0.03333333333333144
                },
                {
                    "name": "D#5",
                    "midi": 75,
                    "time": 84.65000000000038,
                    "velocity": 0.47244094488188976,
                    "duration": 0.09166666666665435
                },
                {
                    "name": "C4",
                    "midi": 60,
                    "time": 84.69583333333371,
                    "velocity": 0.47244094488188976,
                    "duration": 0.04166666666665719
                },
                {
                    "name": "D#3",
                    "midi": 51,
                    "time": 84.69583333333371,
                    "velocity": 0.47244094488188976,
                    "duration": 0.38333333333332575
                },
                {
                    "name": "G#3",
                    "midi": 56,
                    "time": 84.69583333333371,
                    "velocity": 0.47244094488188976,
                    "duration": 0.04166666666665719
                },
                {
                    "name": "G#5",
                    "midi": 80,
                    "time": 84.70000000000037,
                    "velocity": 0.6692913385826772,
                    "duration": 0.13749999999998863
                },
                {
                    "name": "C6",
                    "midi": 84,
                    "time": 84.76666666666704,
                    "velocity": 0.6692913385826772,
                    "duration": 0.2083333333333286
                },
                {
                    "name": "D#4",
                    "midi": 63,
                    "time": 84.84166666666702,
                    "velocity": 0.6692913385826772,
                    "duration": 0.6166666666666742
                },
                {
                    "name": "G#3",
                    "midi": 56,
                    "time": 84.84166666666702,
                    "velocity": 0.6692913385826772,
                    "duration": 0.32500000000001705
                },
                {
                    "name": "C4",
                    "midi": 60,
                    "time": 84.84166666666702,
                    "velocity": 0.6692913385826772,
                    "duration": 0.6125000000000114
                },
                {
                    "name": "D#5",
                    "midi": 75,
                    "time": 84.86666666666703,
                    "velocity": 0.6692913385826772,
                    "duration": 0.44583333333333997
                },
                {
                    "name": "D#6",
                    "midi": 87,
                    "time": 84.91250000000036,
                    "velocity": 0.47244094488188976,
                    "duration": 0.16250000000000853
                },
                {
                    "name": "G#6",
                    "midi": 92,
                    "time": 84.98750000000037,
                    "velocity": 0.47244094488188976,
                    "duration": 0.13750000000000284
                },
                {
                    "name": "C7",
                    "midi": 96,
                    "time": 85.0583333333337,
                    "velocity": 0.47244094488188976,
                    "duration": 0.3958333333333286
                },
                {
                    "name": "G#6",
                    "midi": 92,
                    "time": 85.20000000000037,
                    "velocity": 0.47244094488188976,
                    "duration": 0.30416666666666003
                },
                {
                    "name": "G#3",
                    "midi": 56,
                    "time": 85.27083333333371,
                    "velocity": 0.47244094488188976,
                    "duration": 0.037499999999994316
                },
                {
                    "name": "D#6",
                    "midi": 87,
                    "time": 85.27083333333371,
                    "velocity": 0.6692913385826772,
                    "duration": 0.27916666666665435
                },
                {
                    "name": "G#4",
                    "midi": 68,
                    "time": 85.27500000000038,
                    "velocity": 0.6692913385826772,
                    "duration": 0.08749999999999147
                },
                {
                    "name": "G#2",
                    "midi": 44,
                    "time": 85.27500000000038,
                    "velocity": 0.47244094488188976,
                    "duration": 0.037499999999994316
                },
                {
                    "name": "D#3",
                    "midi": 51,
                    "time": 85.27500000000038,
                    "velocity": 0.47244094488188976,
                    "duration": 0.037499999999994316
                },
                {
                    "name": "C6",
                    "midi": 84,
                    "time": 85.34166666666704,
                    "velocity": 0.47244094488188976,
                    "duration": 0.25833333333332575
                },
                {
                    "name": "G#3",
                    "midi": 56,
                    "time": 85.41250000000036,
                    "velocity": 0.6692913385826772,
                    "duration": 0.3291666666666657
                },
                {
                    "name": "G#2",
                    "midi": 44,
                    "time": 85.41250000000036,
                    "velocity": 0.6692913385826772,
                    "duration": 0.3291666666666657
                },
                {
                    "name": "D#3",
                    "midi": 51,
                    "time": 85.41250000000036,
                    "velocity": 0.6692913385826772,
                    "duration": 0.1875
                },
                {
                    "name": "G#5",
                    "midi": 80,
                    "time": 85.41666666666703,
                    "velocity": 0.6692913385826772,
                    "duration": 0.23333333333333428
                },
                {
                    "name": "G#4",
                    "midi": 68,
                    "time": 85.44166666666703,
                    "velocity": 0.6692913385826772,
                    "duration": 0.10833333333333428
                },
                {
                    "name": "D#5",
                    "midi": 75,
                    "time": 85.4833333333337,
                    "velocity": 0.47244094488188976,
                    "duration": 0.1666666666666572
                },
                {
                    "name": "C5",
                    "midi": 72,
                    "time": 85.56250000000037,
                    "velocity": 0.47244094488188976,
                    "duration": 0.13333333333332575
                },
                {
                    "name": "G#4",
                    "midi": 68,
                    "time": 85.61250000000037,
                    "velocity": 0.47244094488188976,
                    "duration": 0.13750000000000284
                },
                {
                    "name": "A#3",
                    "midi": 58,
                    "time": 85.70416666666704,
                    "velocity": 0.6692913385826772,
                    "duration": 0.13750000000000284
                },
                {
                    "name": "A#4",
                    "midi": 70,
                    "time": 85.70416666666704,
                    "velocity": 0.6692913385826772,
                    "duration": 0.28333333333334565
                },
                {
                    "name": "D#3",
                    "midi": 51,
                    "time": 85.70416666666704,
                    "velocity": 0.6692913385826772,
                    "duration": 0.23333333333333428
                },
                {
                    "name": "G3",
                    "midi": 55,
                    "time": 85.70416666666704,
                    "velocity": 0.6692913385826772,
                    "duration": 0.2750000000000057
                },
                {
                    "name": "G4",
                    "midi": 67,
                    "time": 85.77916666666704,
                    "velocity": 0.47244094488188976,
                    "duration": 0.15833333333333144
                },
                {
                    "name": "D#4",
                    "midi": 63,
                    "time": 85.85000000000038,
                    "velocity": 0.47244094488188976,
                    "duration": 0.13750000000000284
                },
                {
                    "name": "A#3",
                    "midi": 58,
                    "time": 85.91666666666704,
                    "velocity": 0.47244094488188976,
                    "duration": 0.11250000000001137
                },
                {
                    "name": "C4",
                    "midi": 60,
                    "time": 85.98750000000038,
                    "velocity": 0.47244094488188976,
                    "duration": 0.4250000000000398
                },
                {
                    "name": "C5",
                    "midi": 72,
                    "time": 85.98750000000038,
                    "velocity": 0.6692913385826772,
                    "duration": 0.13750000000001705
                },
                {
                    "name": "G#1",
                    "midi": 32,
                    "time": 85.98750000000038,
                    "velocity": 0.47244094488188976,
                    "duration": 0.5750000000000455
                },
                {
                    "name": "D#2",
                    "midi": 39,
                    "time": 85.98750000000038,
                    "velocity": 0.47244094488188976,
                    "duration": 0.5750000000000455
                },
                {
                    "name": "G#2",
                    "midi": 44,
                    "time": 85.98750000000038,
                    "velocity": 0.47244094488188976,
                    "duration": 0.5750000000000455
                },
                {
                    "name": "D#4",
                    "midi": 63,
                    "time": 86.0625000000004,
                    "velocity": 0.47244094488188976,
                    "duration": 0.35000000000002274
                },
                {
                    "name": "G#4",
                    "midi": 68,
                    "time": 86.13333333333374,
                    "velocity": 0.47244094488188976,
                    "duration": 0.2791666666666828
                },
                {
                    "name": "C5",
                    "midi": 72,
                    "time": 86.20416666666708,
                    "velocity": 0.47244094488188976,
                    "duration": 0.2083333333333428
                },
                {
                    "name": "D#5",
                    "midi": 75,
                    "time": 86.35416666666708,
                    "velocity": 0.47244094488188976,
                    "duration": 0.30000000000001137
                },
                {
                    "name": "G#5",
                    "midi": 80,
                    "time": 86.42500000000042,
                    "velocity": 0.47244094488188976,
                    "duration": 0.13750000000000284
                },
                {
                    "name": "C5",
                    "midi": 72,
                    "time": 86.49166666666709,
                    "velocity": 0.47244094488188976,
                    "duration": 0.4041666666666828
                },
                {
                    "name": "C6",
                    "midi": 84,
                    "time": 86.49166666666709,
                    "velocity": 0.47244094488188976,
                    "duration": 0.2083333333333428
                },
                {
                    "name": "C4",
                    "midi": 60,
                    "time": 86.49166666666709,
                    "velocity": 0.47244094488188976,
                    "duration": 0.4041666666666828
                },
                {
                    "name": "D#4",
                    "midi": 63,
                    "time": 86.49166666666709,
                    "velocity": 0.47244094488188976,
                    "duration": 0.1666666666666714
                },
                {
                    "name": "G#4",
                    "midi": 68,
                    "time": 86.49166666666709,
                    "velocity": 0.47244094488188976,
                    "duration": 0.1666666666666714
                },
                {
                    "name": "D#6",
                    "midi": 87,
                    "time": 86.63333333333377,
                    "velocity": 0.47244094488188976,
                    "duration": 0.15833333333334565
                },
                {
                    "name": "G#6",
                    "midi": 92,
                    "time": 86.70833333333377,
                    "velocity": 0.47244094488188976,
                    "duration": 0.13750000000000284
                },
                {
                    "name": "C7",
                    "midi": 96,
                    "time": 86.77916666666711,
                    "velocity": 0.47244094488188976,
                    "duration": 0.25833333333332575
                },
                {
                    "name": "G#6",
                    "midi": 92,
                    "time": 86.92500000000044,
                    "velocity": 0.47244094488188976,
                    "duration": 0.16249999999999432
                },
                {
                    "name": "D#6",
                    "midi": 87,
                    "time": 87.00000000000044,
                    "velocity": 0.47244094488188976,
                    "duration": 0.17916666666666003
                },
                {
                    "name": "C6",
                    "midi": 84,
                    "time": 87.07083333333377,
                    "velocity": 0.47244094488188976,
                    "duration": 0.30416666666666003
                },
                {
                    "name": "G#2",
                    "midi": 44,
                    "time": 87.14166666666709,
                    "velocity": 0.47244094488188976,
                    "duration": 0.27916666666666856
                },
                {
                    "name": "D#3",
                    "midi": 51,
                    "time": 87.14166666666709,
                    "velocity": 0.47244094488188976,
                    "duration": 0.18333333333333712
                },
                {
                    "name": "G#3",
                    "midi": 56,
                    "time": 87.14166666666709,
                    "velocity": 0.47244094488188976,
                    "duration": 0.18333333333333712
                },
                {
                    "name": "G#4",
                    "midi": 68,
                    "time": 87.1666666666671,
                    "velocity": 0.6692913385826772,
                    "duration": 0.15833333333333144
                },
                {
                    "name": "G#5",
                    "midi": 80,
                    "time": 87.23750000000044,
                    "velocity": 0.47244094488188976,
                    "duration": 0.22916666666664298
                },
                {
                    "name": "D#5",
                    "midi": 75,
                    "time": 87.28750000000043,
                    "velocity": 0.47244094488188976,
                    "duration": 0.22916666666664298
                },
                {
                    "name": "C5",
                    "midi": 72,
                    "time": 87.35833333333376,
                    "velocity": 0.47244094488188976,
                    "duration": 0.25416666666664867
                },
                {
                    "name": "D#3",
                    "midi": 51,
                    "time": 87.42500000000042,
                    "velocity": 0.6692913385826772,
                    "duration": 0.23749999999998295
                },
                {
                    "name": "G#3",
                    "midi": 56,
                    "time": 87.42500000000042,
                    "velocity": 0.6692913385826772,
                    "duration": 0.13749999999998863
                },
                {
                    "name": "C3",
                    "midi": 48,
                    "time": 87.42916666666709,
                    "velocity": 0.6692913385826772,
                    "duration": 0.23333333333332007
                },
                {
                    "name": "G#4",
                    "midi": 68,
                    "time": 87.42916666666709,
                    "velocity": 0.6692913385826772,
                    "duration": 0.13749999999998863
                },
                {
                    "name": "D#4",
                    "midi": 63,
                    "time": 87.50000000000041,
                    "velocity": 0.47244094488188976,
                    "duration": 0.11249999999999716
                },
                {
                    "name": "C4",
                    "midi": 60,
                    "time": 87.56666666666707,
                    "velocity": 0.47244094488188976,
                    "duration": 0.09583333333333144
                },
                {
                    "name": "G#3",
                    "midi": 56,
                    "time": 87.64166666666708,
                    "velocity": 0.47244094488188976,
                    "duration": 0.0625
                },
                {
                    "name": "G#4",
                    "midi": 68,
                    "time": 87.64166666666708,
                    "velocity": 0.6692913385826772,
                    "duration": 0.0625
                },
                {
                    "name": "F5",
                    "midi": 77,
                    "time": 87.71250000000042,
                    "velocity": 0.6692913385826772,
                    "duration": 0.13749999999998863
                },
                {
                    "name": "C#2",
                    "midi": 37,
                    "time": 87.71666666666708,
                    "velocity": 0.6692913385826772,
                    "duration": 0.5208333333333428
                },
                {
                    "name": "G#2",
                    "midi": 44,
                    "time": 87.71666666666708,
                    "velocity": 0.6692913385826772,
                    "duration": 0.5208333333333428
                },
                {
                    "name": "C#3",
                    "midi": 49,
                    "time": 87.71666666666708,
                    "velocity": 0.6692913385826772,
                    "duration": 0.5750000000000028
                },
                {
                    "name": "F4",
                    "midi": 65,
                    "time": 87.71666666666708,
                    "velocity": 0.6692913385826772,
                    "duration": 0.42499999999999716
                },
                {
                    "name": "G#4",
                    "midi": 68,
                    "time": 87.7875000000004,
                    "velocity": 0.47244094488188976,
                    "duration": 0.3541666666666714
                },
                {
                    "name": "C#5",
                    "midi": 73,
                    "time": 87.85833333333375,
                    "velocity": 0.47244094488188976,
                    "duration": 0.27916666666666856
                },
                {
                    "name": "F5",
                    "midi": 77,
                    "time": 87.92916666666709,
                    "velocity": 0.47244094488188976,
                    "duration": 0.21249999999999147
                },
                {
                    "name": "G#5",
                    "midi": 80,
                    "time": 88.07500000000041,
                    "velocity": 0.47244094488188976,
                    "duration": 0.21250000000000568
                },
                {
                    "name": "C#6",
                    "midi": 85,
                    "time": 88.15000000000042,
                    "velocity": 0.47244094488188976,
                    "duration": 0.17916666666666003
                },
                {
                    "name": "F4",
                    "midi": 65,
                    "time": 88.22083333333376,
                    "velocity": 0.47244094488188976,
                    "duration": 0.16666666666664298
                },
                {
                    "name": "C#5",
                    "midi": 73,
                    "time": 88.22083333333376,
                    "velocity": 0.47244094488188976,
                    "duration": 0.1624999999999801
                },
                {
                    "name": "F5",
                    "midi": 77,
                    "time": 88.22083333333376,
                    "velocity": 0.47244094488188976,
                    "duration": 0.1624999999999801
                },
                {
                    "name": "F6",
                    "midi": 89,
                    "time": 88.22083333333376,
                    "velocity": 0.47244094488188976,
                    "duration": 0.20833333333331439
                },
                {
                    "name": "G#4",
                    "midi": 68,
                    "time": 88.22500000000042,
                    "velocity": 0.47244094488188976,
                    "duration": 0.15833333333331723
                },
                {
                    "name": "G#6",
                    "midi": 92,
                    "time": 88.36666666666707,
                    "velocity": 0.47244094488188976,
                    "duration": 0.11249999999999716
                },
                {
                    "name": "C#7",
                    "midi": 97,
                    "time": 88.44166666666707,
                    "velocity": 0.47244094488188976,
                    "duration": 0.09166666666666856
                },
                {
                    "name": "F7",
                    "midi": 101,
                    "time": 88.51666666666708,
                    "velocity": 0.47244094488188976,
                    "duration": 0.10833333333332007
                },
                {
                    "name": "G3",
                    "midi": 55,
                    "time": 88.5875000000004,
                    "velocity": 0.6692913385826772,
                    "duration": 0.2750000000000057
                },
                {
                    "name": "G#3",
                    "midi": 56,
                    "time": 88.5875000000004,
                    "velocity": 0.6692913385826772,
                    "duration": 0.17916666666666003
                },
                {
                    "name": "D#4",
                    "midi": 63,
                    "time": 88.5875000000004,
                    "velocity": 0.6692913385826772,
                    "duration": 0.2750000000000057
                },
                {
                    "name": "D#7",
                    "midi": 99,
                    "time": 88.5875000000004,
                    "velocity": 0.6692913385826772,
                    "duration": 0.17916666666666003
                },
                {
                    "name": "G#6",
                    "midi": 92,
                    "time": 88.67916666666706,
                    "velocity": 0.47244094488188976,
                    "duration": 0.13750000000001705
                },
                {
                    "name": "D#6",
                    "midi": 87,
                    "time": 88.7750000000004,
                    "velocity": 0.47244094488188976,
                    "duration": 0.13750000000000284
                },
                {
                    "name": "F3",
                    "midi": 53,
                    "time": 88.87500000000041,
                    "velocity": 0.6692913385826772,
                    "duration": 0.27499999999997726
                },
                {
                    "name": "G#3",
                    "midi": 56,
                    "time": 88.87500000000041,
                    "velocity": 0.6692913385826772,
                    "duration": 0.1833333333333087
                },
                {
                    "name": "C#4",
                    "midi": 61,
                    "time": 88.87500000000041,
                    "velocity": 0.6692913385826772,
                    "duration": 0.27499999999997726
                },
                {
                    "name": "C#6",
                    "midi": 85,
                    "time": 88.87500000000041,
                    "velocity": 0.6692913385826772,
                    "duration": 0.12916666666664867
                },
                {
                    "name": "G#5",
                    "midi": 80,
                    "time": 88.96666666666707,
                    "velocity": 0.47244094488188976,
                    "duration": 0.13749999999998863
                },
                {
                    "name": "C#5",
                    "midi": 73,
                    "time": 89.06250000000038,
                    "velocity": 0.47244094488188976,
                    "duration": 0.13333333333333997
                },
                {
                    "name": "D#3",
                    "midi": 51,
                    "time": 89.16250000000039,
                    "velocity": 0.6692913385826772,
                    "duration": 0.2750000000000057
                },
                {
                    "name": "G#3",
                    "midi": 56,
                    "time": 89.16250000000039,
                    "velocity": 0.6692913385826772,
                    "duration": 0.17500000000001137
                },
                {
                    "name": "C4",
                    "midi": 60,
                    "time": 89.16250000000039,
                    "velocity": 0.6692913385826772,
                    "duration": 0.07916666666666572
                },
                {
                    "name": "C5",
                    "midi": 72,
                    "time": 89.16250000000039,
                    "velocity": 0.6692913385826772,
                    "duration": 0.13333333333333997
                },
                {
                    "name": "G#4",
                    "midi": 68,
                    "time": 89.25416666666706,
                    "velocity": 0.47244094488188976,
                    "duration": 0.1291666666666771
                },
                {
                    "name": "C4",
                    "midi": 60,
                    "time": 89.3500000000004,
                    "velocity": 0.47244094488188976,
                    "duration": 0.12499999999998579
                },
                {
                    "name": "A#3",
                    "midi": 58,
                    "time": 89.4375000000004,
                    "velocity": 0.6692913385826772,
                    "duration": 0.9124999999999943
                },
                {
                    "name": "A#4",
                    "midi": 70,
                    "time": 89.44166666666706,
                    "velocity": 0.6692913385826772,
                    "duration": 0.13749999999998863
                },
                {
                    "name": "E3",
                    "midi": 52,
                    "time": 89.44166666666706,
                    "velocity": 0.6692913385826772,
                    "duration": 0.9083333333333314
                },
                {
                    "name": "G#3",
                    "midi": 56,
                    "time": 89.44166666666706,
                    "velocity": 0.6692913385826772,
                    "duration": 0.9083333333333314
                },
                {
                    "name": "C#3",
                    "midi": 49,
                    "time": 89.44583333333372,
                    "velocity": 0.6692913385826772,
                    "duration": 0.9041666666666686
                },
                {
                    "name": "E4",
                    "midi": 64,
                    "time": 89.51250000000039,
                    "velocity": 0.47244094488188976,
                    "duration": 0.25833333333333997
                },
                {
                    "name": "G#4",
                    "midi": 68,
                    "time": 89.58750000000039,
                    "velocity": 0.47244094488188976,
                    "duration": 0.23749999999999716
                },
                {
                    "name": "A#4",
                    "midi": 70,
                    "time": 89.65833333333373,
                    "velocity": 0.47244094488188976,
                    "duration": 0.21666666666665435
                },
                {
                    "name": "E5",
                    "midi": 76,
                    "time": 89.80416666666706,
                    "velocity": 0.47244094488188976,
                    "duration": 0.21249999999999147
                },
                {
                    "name": "G#5",
                    "midi": 80,
                    "time": 89.87500000000038,
                    "velocity": 0.47244094488188976,
                    "duration": 0.1875
                },
                {
                    "name": "C#4",
                    "midi": 61,
                    "time": 89.95000000000039,
                    "velocity": 0.47244094488188976,
                    "duration": 0.15833333333333144
                },
                {
                    "name": "E4",
                    "midi": 64,
                    "time": 89.95000000000039,
                    "velocity": 0.47244094488188976,
                    "duration": 0.15833333333333144
                },
                {
                    "name": "A#4",
                    "midi": 70,
                    "time": 89.95000000000039,
                    "velocity": 0.47244094488188976,
                    "duration": 0.15833333333333144
                },
                {
                    "name": "A#5",
                    "midi": 82,
                    "time": 89.95000000000039,
                    "velocity": 0.47244094488188976,
                    "duration": 0.20416666666666572
                },
                {
                    "name": "G#4",
                    "midi": 68,
                    "time": 89.95416666666705,
                    "velocity": 0.47244094488188976,
                    "duration": 0.15416666666666856
                },
                {
                    "name": "E6",
                    "midi": 88,
                    "time": 90.09166666666705,
                    "velocity": 0.47244094488188976,
                    "duration": 0.16250000000000853
                },
                {
                    "name": "G#6",
                    "midi": 92,
                    "time": 90.16250000000039,
                    "velocity": 0.47244094488188976,
                    "duration": 0.13333333333333997
                },
                {
                    "name": "A#6",
                    "midi": 94,
                    "time": 90.22916666666706,
                    "velocity": 0.47244094488188976,
                    "duration": 0.25
                },
                {
                    "name": "G#6",
                    "midi": 92,
                    "time": 90.3750000000004,
                    "velocity": 0.47244094488188976,
                    "duration": 0.15416666666665435
                },
                {
                    "name": "E6",
                    "midi": 88,
                    "time": 90.44166666666706,
                    "velocity": 0.47244094488188976,
                    "duration": 0.08749999999999147
                },
                {
                    "name": "A#5",
                    "midi": 82,
                    "time": 90.51666666666705,
                    "velocity": 0.6692913385826772,
                    "duration": 0.34166666666666856
                },
                {
                    "name": "C#3",
                    "midi": 49,
                    "time": 90.52083333333371,
                    "velocity": 0.47244094488188976,
                    "duration": 0.48750000000001137
                },
                {
                    "name": "G3",
                    "midi": 55,
                    "time": 90.54166666666706,
                    "velocity": 0.47244094488188976,
                    "duration": 0.46666666666666856
                },
                {
                    "name": "A#3",
                    "midi": 58,
                    "time": 90.55833333333372,
                    "velocity": 0.6692913385826772,
                    "duration": 0.34583333333333144
                },
                {
                    "name": "D#4",
                    "midi": 63,
                    "time": 90.58750000000039,
                    "velocity": 0.6692913385826772,
                    "duration": 0.2708333333333286
                },
                {
                    "name": "A#4",
                    "midi": 70,
                    "time": 90.58750000000039,
                    "velocity": 0.6692913385826772,
                    "duration": 0.13333333333332575
                },
                {
                    "name": "G5",
                    "midi": 79,
                    "time": 90.65416666666705,
                    "velocity": 0.47244094488188976,
                    "duration": 0.44999999999998863
                },
                {
                    "name": "D#5",
                    "midi": 75,
                    "time": 90.72083333333372,
                    "velocity": 0.47244094488188976,
                    "duration": 0.18333333333333712
                },
                {
                    "name": "A#4",
                    "midi": 70,
                    "time": 90.79166666666706,
                    "velocity": 0.47244094488188976,
                    "duration": 0.16249999999999432
                },
                {
                    "name": "G4",
                    "midi": 67,
                    "time": 90.87083333333372,
                    "velocity": 0.6692913385826772,
                    "duration": 0.23333333333332007
                },
                {
                    "name": "D#4",
                    "midi": 63,
                    "time": 90.94166666666705,
                    "velocity": 0.47244094488188976,
                    "duration": 0.06666666666667709
                },
                {
                    "name": "A#3",
                    "midi": 58,
                    "time": 91.01250000000039,
                    "velocity": 0.47244094488188976,
                    "duration": 0.09166666666665435
                },
                {
                    "name": "G3",
                    "midi": 55,
                    "time": 91.06250000000038,
                    "velocity": 0.47244094488188976,
                    "duration": 0.09166666666666856
                },
                {
                    "name": "D#5",
                    "midi": 75,
                    "time": 91.08333333333371,
                    "velocity": 0.6692913385826772,
                    "duration": 0.07083333333333997
                },
                {
                    "name": "D#4",
                    "midi": 63,
                    "time": 91.08750000000038,
                    "velocity": 0.6692913385826772,
                    "duration": 0.041666666666671404
                },
                {
                    "name": "C3",
                    "midi": 48,
                    "time": 91.13750000000039,
                    "velocity": 0.47244094488188976,
                    "duration": 0.8750000000000284
                },
                {
                    "name": "G#5",
                    "midi": 80,
                    "time": 91.15833333333372,
                    "velocity": 0.6692913385826772,
                    "duration": 0.47083333333335986
                },
                {
                    "name": "G#3",
                    "midi": 56,
                    "time": 91.15833333333372,
                    "velocity": 0.47244094488188976,
                    "duration": 0.8541666666666998
                },
                {
                    "name": "G#4",
                    "midi": 68,
                    "time": 91.15833333333372,
                    "velocity": 0.6692913385826772,
                    "duration": 0.13750000000000284
                },
                {
                    "name": "D#4",
                    "midi": 63,
                    "time": 91.18333333333372,
                    "velocity": 0.47244094488188976,
                    "duration": 0.2541666666666771
                },
                {
                    "name": "D#5",
                    "midi": 75,
                    "time": 91.23333333333372,
                    "velocity": 0.47244094488188976,
                    "duration": 0.30416666666668846
                },
                {
                    "name": "C5",
                    "midi": 72,
                    "time": 91.30416666666706,
                    "velocity": 0.47244094488188976,
                    "duration": 0.2791666666666828
                },
                {
                    "name": "G#4",
                    "midi": 68,
                    "time": 91.3750000000004,
                    "velocity": 0.47244094488188976,
                    "duration": 0.11250000000001137
                },
                {
                    "name": "C4",
                    "midi": 60,
                    "time": 91.44583333333374,
                    "velocity": 0.47244094488188976,
                    "duration": 0.5666666666666771
                },
                {
                    "name": "D#4",
                    "midi": 63,
                    "time": 91.51666666666708,
                    "velocity": 0.47244094488188976,
                    "duration": 0.4958333333333371
                },
                {
                    "name": "G#4",
                    "midi": 68,
                    "time": 91.59166666666708,
                    "velocity": 0.47244094488188976,
                    "duration": 0.4208333333333343
                },
                {
                    "name": "D#5",
                    "midi": 75,
                    "time": 91.66666666666707,
                    "velocity": 0.47244094488188976,
                    "duration": 0.34583333333334565
                },
                {
                    "name": "G#5",
                    "midi": 80,
                    "time": 91.73333333333373,
                    "velocity": 0.47244094488188976,
                    "duration": 0.2791666666666828
                },
                {
                    "name": "C6",
                    "midi": 84,
                    "time": 91.8000000000004,
                    "velocity": 0.47244094488188976,
                    "duration": 0.20416666666667993
                },
                {
                    "name": "D#6",
                    "midi": 87,
                    "time": 91.8750000000004,
                    "velocity": 0.47244094488188976,
                    "duration": 0.1291666666666771
                },
                {
                    "name": "G#6",
                    "midi": 92,
                    "time": 91.94583333333374,
                    "velocity": 0.47244094488188976,
                    "duration": 0.06666666666667709
                },
                {
                    "name": "D#4",
                    "midi": 63,
                    "time": 92.13750000000041,
                    "velocity": 0.6692913385826772,
                    "duration": 0.16250000000000853
                },
                {
                    "name": "C2",
                    "midi": 36,
                    "time": 92.13750000000041,
                    "velocity": 0.6692913385826772,
                    "duration": 0.16250000000000853
                },
                {
                    "name": "C3",
                    "midi": 48,
                    "time": 92.13750000000041,
                    "velocity": 0.6692913385826772,
                    "duration": 0.16250000000000853
                },
                {
                    "name": "G#3",
                    "midi": 56,
                    "time": 92.16250000000042,
                    "velocity": 0.6692913385826772,
                    "duration": 0.13333333333333997
                },
                {
                    "name": "G#4",
                    "midi": 68,
                    "time": 92.16250000000042,
                    "velocity": 0.6692913385826772,
                    "duration": 0.13750000000000284
                },
                {
                    "name": "A#1",
                    "midi": 34,
                    "time": 92.28333333333376,
                    "velocity": 0.47244094488188976,
                    "duration": 0.44583333333332575
                },
                {
                    "name": "A#2",
                    "midi": 46,
                    "time": 92.28750000000042,
                    "velocity": 0.6692913385826772,
                    "duration": 0.15833333333333144
                },
                {
                    "name": "C#5",
                    "midi": 73,
                    "time": 92.30416666666709,
                    "velocity": 0.6692913385826772,
                    "duration": 0.13750000000000284
                },
                {
                    "name": "C#4",
                    "midi": 61,
                    "time": 92.31250000000043,
                    "velocity": 0.6692913385826772,
                    "duration": 0.17916666666666003
                },
                {
                    "name": "D#4",
                    "midi": 63,
                    "time": 92.37916666666709,
                    "velocity": 0.47244094488188976,
                    "duration": 0.16249999999999432
                },
                {
                    "name": "G4",
                    "midi": 67,
                    "time": 92.45000000000041,
                    "velocity": 0.47244094488188976,
                    "duration": 0.18333333333333712
                },
                {
                    "name": "C#5",
                    "midi": 73,
                    "time": 92.52500000000042,
                    "velocity": 0.47244094488188976,
                    "duration": 0.2541666666666771
                },
                {
                    "name": "A#2",
                    "midi": 46,
                    "time": 92.52916666666708,
                    "velocity": 0.47244094488188976,
                    "duration": 0.2500000000000142
                },
                {
                    "name": "D#3",
                    "midi": 51,
                    "time": 92.54583333333375,
                    "velocity": 0.47244094488188976,
                    "duration": 0.2333333333333485
                },
                {
                    "name": "G3",
                    "midi": 55,
                    "time": 92.57083333333375,
                    "velocity": 0.6692913385826772,
                    "duration": 0.2083333333333428
                },
                {
                    "name": "C#4",
                    "midi": 61,
                    "time": 92.59583333333376,
                    "velocity": 0.6692913385826772,
                    "duration": 0.18333333333333712
                },
                {
                    "name": "D#5",
                    "midi": 75,
                    "time": 92.66666666666708,
                    "velocity": 0.47244094488188976,
                    "duration": 0.16250000000000853
                },
                {
                    "name": "G5",
                    "midi": 79,
                    "time": 92.73750000000042,
                    "velocity": 0.47244094488188976,
                    "duration": 0.09166666666666856
                },
                {
                    "name": "G#2",
                    "midi": 44,
                    "time": 92.80833333333376,
                    "velocity": 0.47244094488188976,
                    "duration": 0.5000000000000284
                },
                {
                    "name": "C#6",
                    "midi": 85,
                    "time": 92.80833333333376,
                    "velocity": 0.47244094488188976,
                    "duration": 0.06666666666667709
                },
                {
                    "name": "D#3",
                    "midi": 51,
                    "time": 92.83750000000043,
                    "velocity": 0.47244094488188976,
                    "duration": 0.5166666666666941
                },
                {
                    "name": "G3",
                    "midi": 55,
                    "time": 92.86250000000044,
                    "velocity": 0.6692913385826772,
                    "duration": 0.5375000000000227
                },
                {
                    "name": "C#4",
                    "midi": 61,
                    "time": 92.88333333333378,
                    "velocity": 0.6692913385826772,
                    "duration": 0.5625000000000142
                },
                {
                    "name": "C#5",
                    "midi": 73,
                    "time": 92.88333333333378,
                    "velocity": 0.6692913385826772,
                    "duration": 0.6083333333333343
                },
                {
                    "name": "D#5",
                    "midi": 75,
                    "time": 92.9541666666671,
                    "velocity": 0.47244094488188976,
                    "duration": 0.4000000000000199
                },
                {
                    "name": "G5",
                    "midi": 79,
                    "time": 93.02916666666711,
                    "velocity": 0.47244094488188976,
                    "duration": 0.32500000000001705
                },
                {
                    "name": "A#5",
                    "midi": 82,
                    "time": 93.10000000000045,
                    "velocity": 0.47244094488188976,
                    "duration": 0.30000000000001137
                },
                {
                    "name": "C#6",
                    "midi": 85,
                    "time": 93.17083333333379,
                    "velocity": 0.47244094488188976,
                    "duration": 0.2291666666666714
                },
                {
                    "name": "D#6",
                    "midi": 87,
                    "time": 93.23750000000045,
                    "velocity": 0.47244094488188976,
                    "duration": 0.20416666666667993
                },
                {
                    "name": "G6",
                    "midi": 91,
                    "time": 93.31666666666713,
                    "velocity": 0.47244094488188976,
                    "duration": 0.12916666666666288
                },
                {
                    "name": "G#2",
                    "midi": 44,
                    "time": 93.38750000000046,
                    "velocity": 0.47244094488188976,
                    "duration": 0.2041666666666515
                },
                {
                    "name": "C#7",
                    "midi": 97,
                    "time": 93.38750000000046,
                    "velocity": 0.47244094488188976,
                    "duration": 0.10416666666665719
                },
                {
                    "name": "D#3",
                    "midi": 51,
                    "time": 93.41250000000046,
                    "velocity": 0.47244094488188976,
                    "duration": 0.17916666666664582
                },
                {
                    "name": "G#3",
                    "midi": 56,
                    "time": 93.42916666666713,
                    "velocity": 0.47244094488188976,
                    "duration": 0.15833333333331723
                },
                {
                    "name": "C7",
                    "midi": 96,
                    "time": 93.45000000000046,
                    "velocity": 0.6692913385826772,
                    "duration": 0.09166666666665435
                },
                {
                    "name": "C4",
                    "midi": 60,
                    "time": 93.45416666666712,
                    "velocity": 0.6692913385826772,
                    "duration": 0.13749999999998863
                },
                {
                    "name": "C6",
                    "midi": 84,
                    "time": 93.45416666666712,
                    "velocity": 0.6692913385826772,
                    "duration": 0.08749999999999147
                },
                {
                    "name": "C5",
                    "midi": 72,
                    "time": 93.88750000000044,
                    "velocity": 0.6692913385826772,
                    "duration": 0.0625
                },
                {
                    "name": "C6",
                    "midi": 84,
                    "time": 93.88750000000044,
                    "velocity": 0.6692913385826772,
                    "duration": 0.0625
                },
                {
                    "name": "D#3",
                    "midi": 51,
                    "time": 93.93750000000044,
                    "velocity": 0.47244094488188976,
                    "duration": 0.5208333333333428
                },
                {
                    "name": "A3",
                    "midi": 57,
                    "time": 93.95833333333378,
                    "velocity": 0.47244094488188976,
                    "duration": 0.5
                },
                {
                    "name": "C4",
                    "midi": 60,
                    "time": 93.97916666666711,
                    "velocity": 0.47244094488188976,
                    "duration": 0.3833333333333542
                },
                {
                    "name": "F4",
                    "midi": 65,
                    "time": 94.01250000000044,
                    "velocity": 0.6692913385826772,
                    "duration": 0.30416666666668846
                },
                {
                    "name": "C6",
                    "midi": 84,
                    "time": 94.02916666666711,
                    "velocity": 0.6692913385826772,
                    "duration": 0.32916666666669414
                },
                {
                    "name": "C5",
                    "midi": 72,
                    "time": 94.03750000000045,
                    "velocity": 0.6692913385826772,
                    "duration": 0.1291666666666771
                },
                {
                    "name": "A5",
                    "midi": 81,
                    "time": 94.09583333333379,
                    "velocity": 0.47244094488188976,
                    "duration": 0.4541666666666657
                },
                {
                    "name": "F5",
                    "midi": 77,
                    "time": 94.17500000000047,
                    "velocity": 0.47244094488188976,
                    "duration": 0.23749999999999716
                },
                {
                    "name": "C5",
                    "midi": 72,
                    "time": 94.25000000000047,
                    "velocity": 0.47244094488188976,
                    "duration": 0.2041666666666515
                },
                {
                    "name": "A4",
                    "midi": 69,
                    "time": 94.32500000000047,
                    "velocity": 0.6692913385826772,
                    "duration": 0.17916666666664582
                },
                {
                    "name": "F4",
                    "midi": 65,
                    "time": 94.3958333333338,
                    "velocity": 0.47244094488188976,
                    "duration": 0.06249999999998579
                },
                {
                    "name": "C4",
                    "midi": 60,
                    "time": 94.46666666666712,
                    "velocity": 0.47244094488188976,
                    "duration": 0.08749999999999147
                },
                {
                    "name": "F5",
                    "midi": 77,
                    "time": 94.53750000000045,
                    "velocity": 0.6692913385826772,
                    "duration": 0.06666666666666288
                },
                {
                    "name": "A3",
                    "midi": 57,
                    "time": 94.53750000000045,
                    "velocity": 0.47244094488188976,
                    "duration": 0.06666666666666288
                },
                {
                    "name": "F4",
                    "midi": 65,
                    "time": 94.53750000000045,
                    "velocity": 0.6692913385826772,
                    "duration": 0.06666666666666288
                },
                {
                    "name": "C#3",
                    "midi": 49,
                    "time": 94.59166666666711,
                    "velocity": 0.47244094488188976,
                    "duration": 0.8750000000000142
                },
                {
                    "name": "A#3",
                    "midi": 58,
                    "time": 94.60833333333377,
                    "velocity": 0.47244094488188976,
                    "duration": 0.8583333333333485
                },
                {
                    "name": "A#5",
                    "midi": 82,
                    "time": 94.60833333333377,
                    "velocity": 0.6692913385826772,
                    "duration": 0.47083333333333144
                },
                {
                    "name": "A#4",
                    "midi": 70,
                    "time": 94.61250000000044,
                    "velocity": 0.6692913385826772,
                    "duration": 0.13750000000000284
                },
                {
                    "name": "F4",
                    "midi": 65,
                    "time": 94.65833333333377,
                    "velocity": 0.47244094488188976,
                    "duration": 0.23333333333333428
                },
                {
                    "name": "F5",
                    "midi": 77,
                    "time": 94.7041666666671,
                    "velocity": 0.47244094488188976,
                    "duration": 0.3333333333333286
                },
                {
                    "name": "C#5",
                    "midi": 73,
                    "time": 94.7541666666671,
                    "velocity": 0.47244094488188976,
                    "duration": 0.32500000000000284
                },
                {
                    "name": "A#4",
                    "midi": 70,
                    "time": 94.85000000000043,
                    "velocity": 0.47244094488188976,
                    "duration": 0.08750000000000568
                },
                {
                    "name": "C#4",
                    "midi": 61,
                    "time": 94.89583333333377,
                    "velocity": 0.47244094488188976,
                    "duration": 0.5708333333333542
                },
                {
                    "name": "F4",
                    "midi": 65,
                    "time": 94.97083333333377,
                    "velocity": 0.47244094488188976,
                    "duration": 0.49583333333335133
                },
                {
                    "name": "A#4",
                    "midi": 70,
                    "time": 95.04583333333377,
                    "velocity": 0.47244094488188976,
                    "duration": 0.4208333333333485
                },
                {
                    "name": "F5",
                    "midi": 77,
                    "time": 95.12083333333378,
                    "velocity": 0.47244094488188976,
                    "duration": 0.34583333333334565
                },
                {
                    "name": "A#5",
                    "midi": 82,
                    "time": 95.18750000000044,
                    "velocity": 0.47244094488188976,
                    "duration": 0.2791666666666828
                },
                {
                    "name": "C#6",
                    "midi": 85,
                    "time": 95.25833333333378,
                    "velocity": 0.47244094488188976,
                    "duration": 0.2083333333333428
                },
                {
                    "name": "F6",
                    "midi": 89,
                    "time": 95.32916666666712,
                    "velocity": 0.47244094488188976,
                    "duration": 0.13750000000000284
                },
                {
                    "name": "A#6",
                    "midi": 94,
                    "time": 95.40416666666712,
                    "velocity": 0.47244094488188976,
                    "duration": 0.0625
                },
                {
                    "name": "A#3",
                    "midi": 58,
                    "time": 95.61666666666713,
                    "velocity": 0.6692913385826772,
                    "duration": 0.13750000000000284
                },
                {
                    "name": "C#2",
                    "midi": 37,
                    "time": 95.62083333333379,
                    "velocity": 0.6692913385826772,
                    "duration": 0.14166666666667993
                },
                {
                    "name": "C#3",
                    "midi": 49,
                    "time": 95.62083333333379,
                    "velocity": 0.6692913385826772,
                    "duration": 0.14166666666667993
                },
                {
                    "name": "F4",
                    "midi": 65,
                    "time": 95.62083333333379,
                    "velocity": 0.6692913385826772,
                    "duration": 0.14166666666667993
                },
                {
                    "name": "A#4",
                    "midi": 70,
                    "time": 95.62083333333379,
                    "velocity": 0.6692913385826772,
                    "duration": 0.14166666666667993
                },
                {
                    "name": "C3",
                    "midi": 48,
                    "time": 95.74166666666713,
                    "velocity": 0.6692913385826772,
                    "duration": 0.15833333333334565
                },
                {
                    "name": "C2",
                    "midi": 36,
                    "time": 95.74166666666713,
                    "velocity": 0.6692913385826772,
                    "duration": 0.4458333333333542
                },
                {
                    "name": "D#4",
                    "midi": 63,
                    "time": 95.76666666666713,
                    "velocity": 0.6692913385826772,
                    "duration": 0.2333333333333485
                },
                {
                    "name": "D#5",
                    "midi": 75,
                    "time": 95.76666666666713,
                    "velocity": 0.6692913385826772,
                    "duration": 0.18333333333335133
                },
                {
                    "name": "F4",
                    "midi": 65,
                    "time": 95.84166666666714,
                    "velocity": 0.47244094488188976,
                    "duration": 0.34583333333334565
                },
                {
                    "name": "A4",
                    "midi": 69,
                    "time": 95.90833333333381,
                    "velocity": 0.47244094488188976,
                    "duration": 0.2750000000000057
                },
                {
                    "name": "C5",
                    "midi": 72,
                    "time": 95.97500000000049,
                    "velocity": 0.47244094488188976,
                    "duration": 0.25833333333332575
                },
                {
                    "name": "C3",
                    "midi": 48,
                    "time": 95.97916666666715,
                    "velocity": 0.47244094488188976,
                    "duration": 0.2541666666666629
                },
                {
                    "name": "F3",
                    "midi": 53,
                    "time": 96.00416666666715,
                    "velocity": 0.47244094488188976,
                    "duration": 0.2291666666666714
                },
                {
                    "name": "A3",
                    "midi": 57,
                    "time": 96.02916666666715,
                    "velocity": 0.6692913385826772,
                    "duration": 0.20416666666666572
                },
                {
                    "name": "D#4",
                    "midi": 63,
                    "time": 96.05000000000048,
                    "velocity": 0.6692913385826772,
                    "duration": 0.2291666666666714
                },
                {
                    "name": "D#5",
                    "midi": 75,
                    "time": 96.05000000000048,
                    "velocity": 0.6692913385826772,
                    "duration": 0.18333333333333712
                },
                {
                    "name": "F5",
                    "midi": 77,
                    "time": 96.12500000000048,
                    "velocity": 0.47244094488188976,
                    "duration": 0.15833333333333144
                },
                {
                    "name": "A5",
                    "midi": 81,
                    "time": 96.19166666666715,
                    "velocity": 0.47244094488188976,
                    "duration": 0.08750000000000568
                },
                {
                    "name": "D#6",
                    "midi": 87,
                    "time": 96.26666666666715,
                    "velocity": 0.47244094488188976,
                    "duration": 0.06250000000001421
                },
                {
                    "name": "A#2",
                    "midi": 46,
                    "time": 96.27083333333381,
                    "velocity": 0.47244094488188976,
                    "duration": 0.4916666666667169
                },
                {
                    "name": "F3",
                    "midi": 53,
                    "time": 96.29166666666715,
                    "velocity": 0.47244094488188976,
                    "duration": 0.47083333333337407
                },
                {
                    "name": "A3",
                    "midi": 57,
                    "time": 96.31666666666716,
                    "velocity": 0.6692913385826772,
                    "duration": 0.5375000000000227
                },
                {
                    "name": "D#4",
                    "midi": 63,
                    "time": 96.3375000000005,
                    "velocity": 0.6692913385826772,
                    "duration": 0.6125000000000114
                },
                {
                    "name": "D#5",
                    "midi": 75,
                    "time": 96.3375000000005,
                    "velocity": 0.6692913385826772,
                    "duration": 0.6125000000000114
                },
                {
                    "name": "F5",
                    "midi": 77,
                    "time": 96.40833333333384,
                    "velocity": 0.47244094488188976,
                    "duration": 0.3541666666666856
                },
                {
                    "name": "A5",
                    "midi": 81,
                    "time": 96.47916666666718,
                    "velocity": 0.47244094488188976,
                    "duration": 0.32083333333333997
                },
                {
                    "name": "C6",
                    "midi": 84,
                    "time": 96.55416666666719,
                    "velocity": 0.47244094488188976,
                    "duration": 0.25
                },
                {
                    "name": "D#6",
                    "midi": 87,
                    "time": 96.62083333333385,
                    "velocity": 0.47244094488188976,
                    "duration": 0.2291666666666714
                },
                {
                    "name": "F6",
                    "midi": 89,
                    "time": 96.69166666666719,
                    "velocity": 0.47244094488188976,
                    "duration": 0.15833333333333144
                },
                {
                    "name": "A6",
                    "midi": 93,
                    "time": 96.76666666666719,
                    "velocity": 0.47244094488188976,
                    "duration": 0.13333333333332575
                },
                {
                    "name": "A#2",
                    "midi": 46,
                    "time": 96.81666666666719,
                    "velocity": 0.47244094488188976,
                    "duration": 0.18333333333333712
                },
                {
                    "name": "D#7",
                    "midi": 99,
                    "time": 96.83750000000052,
                    "velocity": 0.47244094488188976,
                    "duration": 0.11249999999999716
                },
                {
                    "name": "F3",
                    "midi": 53,
                    "time": 96.86250000000052,
                    "velocity": 0.47244094488188976,
                    "duration": 0.12916666666666288
                },
                {
                    "name": "A#3",
                    "midi": 58,
                    "time": 96.88333333333385,
                    "velocity": 0.47244094488188976,
                    "duration": 0.11666666666667425
                },
                {
                    "name": "C#6",
                    "midi": 85,
                    "time": 96.90416666666718,
                    "velocity": 0.47244094488188976,
                    "duration": 0.08750000000000568
                },
                {
                    "name": "A#6",
                    "midi": 94,
                    "time": 96.90416666666718,
                    "velocity": 0.47244094488188976,
                    "duration": 0.08750000000000568
                },
                {
                    "name": "C#4",
                    "midi": 61,
                    "time": 96.91250000000052,
                    "velocity": 0.6692913385826772,
                    "duration": 0.13750000000000284
                },
                {
                    "name": "C#7",
                    "midi": 97,
                    "time": 96.91250000000052,
                    "velocity": 0.6692913385826772,
                    "duration": 0.07916666666666572
                },
                {
                    "name": "C#5",
                    "midi": 73,
                    "time": 96.93333333333385,
                    "velocity": 0.6692913385826772,
                    "duration": 0.11666666666667425
                },
                {
                    "name": "A2",
                    "midi": 45,
                    "time": 97.15000000000052,
                    "velocity": 0.47244094488188976,
                    "duration": 0.32500000000001705
                },
                {
                    "name": "F3",
                    "midi": 53,
                    "time": 97.17500000000052,
                    "velocity": 0.47244094488188976,
                    "duration": 0.20416666666666572
                },
                {
                    "name": "C4",
                    "midi": 60,
                    "time": 97.20000000000053,
                    "velocity": 0.6692913385826772,
                    "duration": 0.2750000000000057
                },
                {
                    "name": "F4",
                    "midi": 65,
                    "time": 97.20000000000053,
                    "velocity": 0.6692913385826772,
                    "duration": 0.17916666666666003
                },
                {
                    "name": "C5",
                    "midi": 72,
                    "time": 97.20000000000053,
                    "velocity": 0.6692913385826772,
                    "duration": 0.2750000000000057
                },
                {
                    "name": "F5",
                    "midi": 77,
                    "time": 97.20000000000053,
                    "velocity": 0.6692913385826772,
                    "duration": 0.2750000000000057
                },
                {
                    "name": "A#2",
                    "midi": 46,
                    "time": 97.43750000000053,
                    "velocity": 0.47244094488188976,
                    "duration": 0.3333333333333286
                },
                {
                    "name": "F3",
                    "midi": 53,
                    "time": 97.46250000000053,
                    "velocity": 0.6692913385826772,
                    "duration": 0.30416666666666003
                },
                {
                    "name": "C#5",
                    "midi": 73,
                    "time": 97.4791666666672,
                    "velocity": 0.6692913385826772,
                    "duration": 0.2874999999999943
                },
                {
                    "name": "A#4",
                    "midi": 70,
                    "time": 97.48333333333386,
                    "velocity": 0.6692913385826772,
                    "duration": 0.1875
                },
                {
                    "name": "C#4",
                    "midi": 61,
                    "time": 97.48333333333386,
                    "velocity": 0.6692913385826772,
                    "duration": 0.18333333333333712
                },
                {
                    "name": "F4",
                    "midi": 65,
                    "time": 97.48333333333386,
                    "velocity": 0.6692913385826772,
                    "duration": 0.2874999999999943
                },
                {
                    "name": "A#3",
                    "midi": 58,
                    "time": 97.77083333333385,
                    "velocity": 0.6692913385826772,
                    "duration": 0.28333333333333144
                },
                {
                    "name": "E4",
                    "midi": 64,
                    "time": 97.77500000000052,
                    "velocity": 0.6692913385826772,
                    "duration": 0.28333333333333144
                },
                {
                    "name": "A#4",
                    "midi": 70,
                    "time": 97.77500000000052,
                    "velocity": 0.6692913385826772,
                    "duration": 0.28333333333333144
                },
                {
                    "name": "C#3",
                    "midi": 49,
                    "time": 97.77500000000052,
                    "velocity": 0.6692913385826772,
                    "duration": 0.28333333333333144
                },
                {
                    "name": "E3",
                    "midi": 52,
                    "time": 97.77500000000052,
                    "velocity": 0.6692913385826772,
                    "duration": 0.28333333333333144
                },
                {
                    "name": "C#4",
                    "midi": 61,
                    "time": 97.77500000000052,
                    "velocity": 0.6692913385826772,
                    "duration": 0.28333333333333144
                },
                {
                    "name": "D#4",
                    "midi": 63,
                    "time": 98.06250000000051,
                    "velocity": 0.6692913385826772,
                    "duration": 0.27916666666665435
                },
                {
                    "name": "G#4",
                    "midi": 68,
                    "time": 98.06250000000051,
                    "velocity": 0.6692913385826772,
                    "duration": 0.17916666666666003
                },
                {
                    "name": "D#3",
                    "midi": 51,
                    "time": 98.06250000000051,
                    "velocity": 0.6692913385826772,
                    "duration": 0.17916666666666003
                },
                {
                    "name": "G#3",
                    "midi": 56,
                    "time": 98.06250000000051,
                    "velocity": 0.6692913385826772,
                    "duration": 0.2749999999999915
                },
                {
                    "name": "C4",
                    "midi": 60,
                    "time": 98.06250000000051,
                    "velocity": 0.6692913385826772,
                    "duration": 0.27916666666665435
                },
                {
                    "name": "F4",
                    "midi": 65,
                    "time": 98.34583333333383,
                    "velocity": 0.6692913385826772,
                    "duration": 0.1833333333333229
                },
                {
                    "name": "D#3",
                    "midi": 51,
                    "time": 98.35000000000049,
                    "velocity": 0.6692913385826772,
                    "duration": 0.17916666666666003
                },
                {
                    "name": "B3",
                    "midi": 59,
                    "time": 98.35000000000049,
                    "velocity": 0.6692913385826772,
                    "duration": 0.17916666666666003
                },
                {
                    "name": "D4",
                    "midi": 62,
                    "time": 98.35000000000049,
                    "velocity": 0.6692913385826772,
                    "duration": 0.17916666666666003
                },
                {
                    "name": "G#4",
                    "midi": 68,
                    "time": 98.35000000000049,
                    "velocity": 0.6692913385826772,
                    "duration": 0.17916666666666003
                },
                {
                    "name": "D#2",
                    "midi": 39,
                    "time": 98.63750000000049,
                    "velocity": 0.47244094488188976,
                    "duration": 0.6125000000000114
                },
                {
                    "name": "G#3",
                    "midi": 56,
                    "time": 98.91666666666715,
                    "velocity": 0.6692913385826772,
                    "duration": 0.4791666666666714
                },
                {
                    "name": "A#3",
                    "midi": 58,
                    "time": 98.91666666666715,
                    "velocity": 0.6692913385826772,
                    "duration": 0.4791666666666714
                },
                {
                    "name": "C#4",
                    "midi": 61,
                    "time": 98.91666666666715,
                    "velocity": 0.6692913385826772,
                    "duration": 0.4791666666666714
                },
                {
                    "name": "F4",
                    "midi": 65,
                    "time": 98.91666666666715,
                    "velocity": 0.6692913385826772,
                    "duration": 0.5750000000000028
                },
                {
                    "name": "C#5",
                    "midi": 73,
                    "time": 98.91666666666715,
                    "velocity": 0.6692913385826772,
                    "duration": 0.57083333333334
                },
                {
                    "name": "F5",
                    "midi": 77,
                    "time": 98.91666666666715,
                    "velocity": 0.6692913385826772,
                    "duration": 0.5750000000000028
                },
                {
                    "name": "D#3",
                    "midi": 51,
                    "time": 98.91666666666715,
                    "velocity": 0.6692913385826772,
                    "duration": 0.4791666666666714
                },
                {
                    "name": "G#4",
                    "midi": 68,
                    "time": 98.9250000000005,
                    "velocity": 0.6692913385826772,
                    "duration": 0.5666666666666629
                },
                {
                    "name": "A#3",
                    "midi": 58,
                    "time": 99.49166666666716,
                    "velocity": 0.6692913385826772,
                    "duration": 0.28333333333334565
                },
                {
                    "name": "G3",
                    "midi": 55,
                    "time": 99.5000000000005,
                    "velocity": 0.6692913385826772,
                    "duration": 0.2750000000000057
                },
                {
                    "name": "C#4",
                    "midi": 61,
                    "time": 99.5000000000005,
                    "velocity": 0.6692913385826772,
                    "duration": 0.27916666666666856
                },
                {
                    "name": "D#4",
                    "midi": 63,
                    "time": 99.5000000000005,
                    "velocity": 0.6692913385826772,
                    "duration": 0.27916666666666856
                },
                {
                    "name": "G4",
                    "midi": 67,
                    "time": 99.5000000000005,
                    "velocity": 0.6692913385826772,
                    "duration": 0.27916666666666856
                },
                {
                    "name": "A#4",
                    "midi": 70,
                    "time": 99.5000000000005,
                    "velocity": 0.6692913385826772,
                    "duration": 0.27916666666666856
                },
                {
                    "name": "D#5",
                    "midi": 75,
                    "time": 99.5000000000005,
                    "velocity": 0.6692913385826772,
                    "duration": 0.1875
                },
                {
                    "name": "D#3",
                    "midi": 51,
                    "time": 99.5000000000005,
                    "velocity": 0.6692913385826772,
                    "duration": 0.27916666666666856
                },
                {
                    "name": "D#5",
                    "midi": 75,
                    "time": 99.7875000000005,
                    "velocity": 0.6692913385826772,
                    "duration": 0.1833333333333229
                },
                {
                    "name": "C6",
                    "midi": 84,
                    "time": 99.7875000000005,
                    "velocity": 0.6692913385826772,
                    "duration": 0.17916666666666003
                },
                {
                    "name": "G#1",
                    "midi": 32,
                    "time": 99.7875000000005,
                    "velocity": 0.6692913385826772,
                    "duration": 0.6124999999999687
                },
                {
                    "name": "G#2",
                    "midi": 44,
                    "time": 99.7875000000005,
                    "velocity": 0.6692913385826772,
                    "duration": 0.6124999999999687
                },
                {
                    "name": "C5",
                    "midi": 72,
                    "time": 99.7875000000005,
                    "velocity": 0.6692913385826772,
                    "duration": 0.17916666666666003
                },
                {
                    "name": "G#5",
                    "midi": 80,
                    "time": 99.79166666666717,
                    "velocity": 0.6692913385826772,
                    "duration": 0.17499999999999716
                },
                {
                    "name": "D#3",
                    "midi": 51,
                    "time": 99.97500000000049,
                    "velocity": 0.47244094488188976,
                    "duration": 0.08750000000000568
                },
                {
                    "name": "G#3",
                    "midi": 56,
                    "time": 99.97500000000049,
                    "velocity": 0.47244094488188976,
                    "duration": 0.08750000000000568
                },
                {
                    "name": "C4",
                    "midi": 60,
                    "time": 99.97500000000049,
                    "velocity": 0.47244094488188976,
                    "duration": 0.08750000000000568
                },
                {
                    "name": "D#4",
                    "midi": 63,
                    "time": 99.97500000000049,
                    "velocity": 0.47244094488188976,
                    "duration": 0.08750000000000568
                },
                {
                    "name": "C5",
                    "midi": 72,
                    "time": 100.06666666666716,
                    "velocity": 0.6692913385826772,
                    "duration": 0.04583333333333428
                },
                {
                    "name": "C6",
                    "midi": 84,
                    "time": 100.0750000000005,
                    "velocity": 0.6692913385826772,
                    "duration": 0.037499999999994316
                },
                {
                    "name": "D#5",
                    "midi": 75,
                    "time": 100.0750000000005,
                    "velocity": 0.6692913385826772,
                    "duration": 0.037499999999994316
                },
                {
                    "name": "G#5",
                    "midi": 80,
                    "time": 100.0750000000005,
                    "velocity": 0.6692913385826772,
                    "duration": 0.037499999999994316
                },
                {
                    "name": "G#3",
                    "midi": 56,
                    "time": 100.16250000000049,
                    "velocity": 0.47244094488188976,
                    "duration": 0.08749999999999147
                },
                {
                    "name": "C4",
                    "midi": 60,
                    "time": 100.16250000000049,
                    "velocity": 0.47244094488188976,
                    "duration": 0.08749999999999147
                },
                {
                    "name": "D#3",
                    "midi": 51,
                    "time": 100.16666666666715,
                    "velocity": 0.47244094488188976,
                    "duration": 0.08749999999999147
                },
                {
                    "name": "D#4",
                    "midi": 63,
                    "time": 100.16666666666715,
                    "velocity": 0.47244094488188976,
                    "duration": 0.08749999999999147
                },
                {
                    "name": "C5",
                    "midi": 72,
                    "time": 100.21250000000049,
                    "velocity": 0.6692913385826772,
                    "duration": 0.13749999999998863
                },
                {
                    "name": "D#5",
                    "midi": 75,
                    "time": 100.21250000000049,
                    "velocity": 0.6692913385826772,
                    "duration": 0.09166666666665435
                },
                {
                    "name": "G#5",
                    "midi": 80,
                    "time": 100.21250000000049,
                    "velocity": 0.6692913385826772,
                    "duration": 0.09166666666665435
                },
                {
                    "name": "C6",
                    "midi": 84,
                    "time": 100.21250000000049,
                    "velocity": 0.6692913385826772,
                    "duration": 0.09166666666665435
                },
                {
                    "name": "G#3",
                    "midi": 56,
                    "time": 100.35416666666714,
                    "velocity": 0.47244094488188976,
                    "duration": 0.09166666666666856
                },
                {
                    "name": "D#6",
                    "midi": 87,
                    "time": 100.35416666666714,
                    "velocity": 0.6692913385826772,
                    "duration": 0.48333333333332007
                },
                {
                    "name": "D#4",
                    "midi": 63,
                    "time": 100.36250000000048,
                    "velocity": 0.47244094488188976,
                    "duration": 0.0833333333333286
                },
                {
                    "name": "D#5",
                    "midi": 75,
                    "time": 100.36250000000048,
                    "velocity": 0.6692913385826772,
                    "duration": 0.3291666666666515
                },
                {
                    "name": "G#5",
                    "midi": 80,
                    "time": 100.36250000000048,
                    "velocity": 0.6692913385826772,
                    "duration": 0.3291666666666515
                },
                {
                    "name": "C6",
                    "midi": 84,
                    "time": 100.36250000000048,
                    "velocity": 0.6692913385826772,
                    "duration": 0.4749999999999801
                },
                {
                    "name": "D#3",
                    "midi": 51,
                    "time": 100.36250000000048,
                    "velocity": 0.47244094488188976,
                    "duration": 0.0833333333333286
                },
                {
                    "name": "C4",
                    "midi": 60,
                    "time": 100.36250000000048,
                    "velocity": 0.47244094488188976,
                    "duration": 0.0833333333333286
                },
                {
                    "name": "G#3",
                    "midi": 56,
                    "time": 100.55416666666714,
                    "velocity": 0.47244094488188976,
                    "duration": 0.08749999999999147
                },
                {
                    "name": "D#4",
                    "midi": 63,
                    "time": 100.55416666666714,
                    "velocity": 0.47244094488188976,
                    "duration": 0.08749999999999147
                },
                {
                    "name": "D#3",
                    "midi": 51,
                    "time": 100.5583333333338,
                    "velocity": 0.47244094488188976,
                    "duration": 0.0833333333333286
                },
                {
                    "name": "C4",
                    "midi": 60,
                    "time": 100.5583333333338,
                    "velocity": 0.47244094488188976,
                    "duration": 0.0833333333333286
                },
                {
                    "name": "G#3",
                    "midi": 56,
                    "time": 100.74166666666713,
                    "velocity": 0.47244094488188976,
                    "duration": 0.09583333333333144
                },
                {
                    "name": "C4",
                    "midi": 60,
                    "time": 100.74166666666713,
                    "velocity": 0.47244094488188976,
                    "duration": 0.09583333333333144
                },
                {
                    "name": "D#3",
                    "midi": 51,
                    "time": 100.75000000000047,
                    "velocity": 0.47244094488188976,
                    "duration": 0.09166666666665435
                },
                {
                    "name": "D#4",
                    "midi": 63,
                    "time": 100.75000000000047,
                    "velocity": 0.47244094488188976,
                    "duration": 0.09166666666665435
                },
                {
                    "name": "G#4",
                    "midi": 68,
                    "time": 100.80000000000047,
                    "velocity": 0.6692913385826772,
                    "duration": 0.04166666666665719
                },
                {
                    "name": "C5",
                    "midi": 72,
                    "time": 100.80000000000047,
                    "velocity": 0.6692913385826772,
                    "duration": 0.037499999999994316
                },
                {
                    "name": "D#5",
                    "midi": 75,
                    "time": 100.80000000000047,
                    "velocity": 0.6692913385826772,
                    "duration": 0.04166666666665719
                },
                {
                    "name": "G#5",
                    "midi": 80,
                    "time": 100.80000000000047,
                    "velocity": 0.6692913385826772,
                    "duration": 0.04166666666665719
                },
                {
                    "name": "G#3",
                    "midi": 56,
                    "time": 100.93333333333379,
                    "velocity": 0.47244094488188976,
                    "duration": 0.09166666666665435
                },
                {
                    "name": "C5",
                    "midi": 72,
                    "time": 100.93750000000045,
                    "velocity": 0.6692913385826772,
                    "duration": 0.27916666666665435
                },
                {
                    "name": "D#5",
                    "midi": 75,
                    "time": 100.93750000000045,
                    "velocity": 0.6692913385826772,
                    "duration": 0.1874999999999858
                },
                {
                    "name": "D#3",
                    "midi": 51,
                    "time": 100.93750000000045,
                    "velocity": 0.47244094488188976,
                    "duration": 0.08749999999999147
                },
                {
                    "name": "D#4",
                    "midi": 63,
                    "time": 100.93750000000045,
                    "velocity": 0.47244094488188976,
                    "duration": 0.09166666666665435
                },
                {
                    "name": "G#4",
                    "midi": 68,
                    "time": 100.93750000000045,
                    "velocity": 0.6692913385826772,
                    "duration": 0.27916666666665435
                },
                {
                    "name": "C4",
                    "midi": 60,
                    "time": 100.94166666666712,
                    "velocity": 0.47244094488188976,
                    "duration": 0.0833333333333286
                },
                {
                    "name": "G#5",
                    "midi": 80,
                    "time": 100.94166666666712,
                    "velocity": 0.6692913385826772,
                    "duration": 0.2749999999999915
                },
                {
                    "name": "D#3",
                    "midi": 51,
                    "time": 101.1291666666671,
                    "velocity": 0.47244094488188976,
                    "duration": 0.08750000000000568
                },
                {
                    "name": "G#3",
                    "midi": 56,
                    "time": 101.1291666666671,
                    "velocity": 0.47244094488188976,
                    "duration": 0.1875000000000142
                },
                {
                    "name": "C4",
                    "midi": 60,
                    "time": 101.1291666666671,
                    "velocity": 0.47244094488188976,
                    "duration": 0.1875000000000142
                },
                {
                    "name": "D#4",
                    "midi": 63,
                    "time": 101.1291666666671,
                    "velocity": 0.47244094488188976,
                    "duration": 0.08750000000000568
                },
                {
                    "name": "A#4",
                    "midi": 70,
                    "time": 101.22500000000045,
                    "velocity": 0.6692913385826772,
                    "duration": 0.2875000000000085
                },
                {
                    "name": "D#5",
                    "midi": 75,
                    "time": 101.22500000000045,
                    "velocity": 0.6692913385826772,
                    "duration": 0.1875
                },
                {
                    "name": "G5",
                    "midi": 79,
                    "time": 101.22500000000045,
                    "velocity": 0.6692913385826772,
                    "duration": 0.27916666666666856
                },
                {
                    "name": "A#5",
                    "midi": 82,
                    "time": 101.22500000000045,
                    "velocity": 0.6692913385826772,
                    "duration": 0.27916666666666856
                },
                {
                    "name": "D#3",
                    "midi": 51,
                    "time": 101.31666666666712,
                    "velocity": 0.47244094488188976,
                    "duration": 0.09583333333333144
                },
                {
                    "name": "A#3",
                    "midi": 58,
                    "time": 101.31666666666712,
                    "velocity": 0.47244094488188976,
                    "duration": 0.09166666666666856
                },
                {
                    "name": "G3",
                    "midi": 55,
                    "time": 101.32500000000046,
                    "velocity": 0.47244094488188976,
                    "duration": 0.0833333333333286
                },
                {
                    "name": "D#4",
                    "midi": 63,
                    "time": 101.32500000000046,
                    "velocity": 0.47244094488188976,
                    "duration": 0.0833333333333286
                },
                {
                    "name": "G#2",
                    "midi": 44,
                    "time": 101.51250000000046,
                    "velocity": 0.6692913385826772,
                    "duration": 0.6208333333333371
                },
                {
                    "name": "G#5",
                    "midi": 80,
                    "time": 101.51250000000046,
                    "velocity": 0.6692913385826772,
                    "duration": 0.6166666666666742
                },
                {
                    "name": "C6",
                    "midi": 84,
                    "time": 101.51250000000046,
                    "velocity": 0.6692913385826772,
                    "duration": 0.6208333333333371
                },
                {
                    "name": "G#1",
                    "midi": 32,
                    "time": 101.51250000000046,
                    "velocity": 0.6692913385826772,
                    "duration": 0.6208333333333371
                },
                {
                    "name": "C5",
                    "midi": 72,
                    "time": 101.51250000000046,
                    "velocity": 0.6692913385826772,
                    "duration": 0.08750000000000568
                },
                {
                    "name": "D#5",
                    "midi": 75,
                    "time": 101.51250000000046,
                    "velocity": 0.6692913385826772,
                    "duration": 0.6208333333333371
                },
                {
                    "name": "G#3",
                    "midi": 56,
                    "time": 101.70000000000046,
                    "velocity": 0.47244094488188976,
                    "duration": 0.09166666666666856
                },
                {
                    "name": "G#4",
                    "midi": 68,
                    "time": 101.70416666666712,
                    "velocity": 0.47244094488188976,
                    "duration": 0.08750000000000568
                },
                {
                    "name": "C5",
                    "midi": 72,
                    "time": 101.70416666666712,
                    "velocity": 0.47244094488188976,
                    "duration": 0.08750000000000568
                },
                {
                    "name": "D#3",
                    "midi": 51,
                    "time": 101.70416666666712,
                    "velocity": 0.47244094488188976,
                    "duration": 0.08750000000000568
                },
                {
                    "name": "C4",
                    "midi": 60,
                    "time": 101.70416666666712,
                    "velocity": 0.47244094488188976,
                    "duration": 0.08750000000000568
                },
                {
                    "name": "D#4",
                    "midi": 63,
                    "time": 101.70416666666712,
                    "velocity": 0.47244094488188976,
                    "duration": 0.08750000000000568
                },
                {
                    "name": "G#3",
                    "midi": 56,
                    "time": 101.89166666666712,
                    "velocity": 0.47244094488188976,
                    "duration": 0.08750000000000568
                },
                {
                    "name": "G#4",
                    "midi": 68,
                    "time": 101.90000000000046,
                    "velocity": 0.47244094488188976,
                    "duration": 0.08750000000000568
                },
                {
                    "name": "C5",
                    "midi": 72,
                    "time": 101.90000000000046,
                    "velocity": 0.47244094488188976,
                    "duration": 0.08750000000000568
                },
                {
                    "name": "D#3",
                    "midi": 51,
                    "time": 101.90000000000046,
                    "velocity": 0.47244094488188976,
                    "duration": 0.08750000000000568
                },
                {
                    "name": "C4",
                    "midi": 60,
                    "time": 101.90000000000046,
                    "velocity": 0.47244094488188976,
                    "duration": 0.08750000000000568
                },
                {
                    "name": "D#4",
                    "midi": 63,
                    "time": 101.90000000000046,
                    "velocity": 0.47244094488188976,
                    "duration": 0.08750000000000568
                },
                {
                    "name": "C4",
                    "midi": 60,
                    "time": 102.09166666666714,
                    "velocity": 0.47244094488188976,
                    "duration": 0.08749999999999147
                },
                {
                    "name": "D#4",
                    "midi": 63,
                    "time": 102.09166666666714,
                    "velocity": 0.47244094488188976,
                    "duration": 0.08749999999999147
                },
                {
                    "name": "G#4",
                    "midi": 68,
                    "time": 102.09166666666714,
                    "velocity": 0.47244094488188976,
                    "duration": 0.08749999999999147
                },
                {
                    "name": "C5",
                    "midi": 72,
                    "time": 102.09166666666714,
                    "velocity": 0.47244094488188976,
                    "duration": 0.08749999999999147
                },
                {
                    "name": "D#3",
                    "midi": 51,
                    "time": 102.09166666666714,
                    "velocity": 0.47244094488188976,
                    "duration": 0.08749999999999147
                },
                {
                    "name": "G#3",
                    "midi": 56,
                    "time": 102.09166666666714,
                    "velocity": 0.47244094488188976,
                    "duration": 0.08749999999999147
                },
                {
                    "name": "D#3",
                    "midi": 51,
                    "time": 102.27916666666712,
                    "velocity": 0.47244094488188976,
                    "duration": 0.09166666666666856
                },
                {
                    "name": "G#3",
                    "midi": 56,
                    "time": 102.27916666666712,
                    "velocity": 0.47244094488188976,
                    "duration": 0.08750000000000568
                },
                {
                    "name": "C4",
                    "midi": 60,
                    "time": 102.28750000000046,
                    "velocity": 0.47244094488188976,
                    "duration": 0.0833333333333286
                },
                {
                    "name": "D#4",
                    "midi": 63,
                    "time": 102.28750000000046,
                    "velocity": 0.47244094488188976,
                    "duration": 0.0833333333333286
                },
                {
                    "name": "G#4",
                    "midi": 68,
                    "time": 102.28750000000046,
                    "velocity": 0.47244094488188976,
                    "duration": 0.0833333333333286
                },
                {
                    "name": "C5",
                    "midi": 72,
                    "time": 102.28750000000046,
                    "velocity": 0.47244094488188976,
                    "duration": 0.0833333333333286
                },
                {
                    "name": "G#3",
                    "midi": 56,
                    "time": 102.46666666666712,
                    "velocity": 0.47244094488188976,
                    "duration": 0.09583333333333144
                },
                {
                    "name": "G#4",
                    "midi": 68,
                    "time": 102.47083333333379,
                    "velocity": 0.47244094488188976,
                    "duration": 0.09166666666666856
                },
                {
                    "name": "C5",
                    "midi": 72,
                    "time": 102.47083333333379,
                    "velocity": 0.47244094488188976,
                    "duration": 0.09166666666666856
                },
                {
                    "name": "D#3",
                    "midi": 51,
                    "time": 102.47083333333379,
                    "velocity": 0.47244094488188976,
                    "duration": 0.09166666666666856
                },
                {
                    "name": "C4",
                    "midi": 60,
                    "time": 102.47083333333379,
                    "velocity": 0.47244094488188976,
                    "duration": 0.09166666666666856
                },
                {
                    "name": "D#4",
                    "midi": 63,
                    "time": 102.47083333333379,
                    "velocity": 0.47244094488188976,
                    "duration": 0.09166666666666856
                },
                {
                    "name": "D#4",
                    "midi": 63,
                    "time": 102.66250000000045,
                    "velocity": 0.47244094488188976,
                    "duration": 0.09166666666666856
                },
                {
                    "name": "C5",
                    "midi": 72,
                    "time": 102.66250000000045,
                    "velocity": 0.6692913385826772,
                    "duration": 0.1875
                },
                {
                    "name": "D#3",
                    "midi": 51,
                    "time": 102.66250000000045,
                    "velocity": 0.47244094488188976,
                    "duration": 0.09166666666666856
                },
                {
                    "name": "G#3",
                    "midi": 56,
                    "time": 102.66250000000045,
                    "velocity": 0.47244094488188976,
                    "duration": 0.09166666666666856
                },
                {
                    "name": "C4",
                    "midi": 60,
                    "time": 102.66250000000045,
                    "velocity": 0.47244094488188976,
                    "duration": 0.09166666666666856
                },
                {
                    "name": "G#5",
                    "midi": 80,
                    "time": 102.66666666666711,
                    "velocity": 0.6692913385826772,
                    "duration": 0.18333333333333712
                },
                {
                    "name": "G#4",
                    "midi": 68,
                    "time": 102.66666666666711,
                    "velocity": 0.6692913385826772,
                    "duration": 0.18333333333333712
                },
                {
                    "name": "D#5",
                    "midi": 75,
                    "time": 102.66666666666711,
                    "velocity": 0.6692913385826772,
                    "duration": 0.18333333333333712
                },
                {
                    "name": "D#3",
                    "midi": 51,
                    "time": 102.85000000000045,
                    "velocity": 0.47244094488188976,
                    "duration": 0.09166666666666856
                },
                {
                    "name": "G#3",
                    "midi": 56,
                    "time": 102.85000000000045,
                    "velocity": 0.47244094488188976,
                    "duration": 0.09166666666666856
                },
                {
                    "name": "C4",
                    "midi": 60,
                    "time": 102.85000000000045,
                    "velocity": 0.47244094488188976,
                    "duration": 0.09166666666666856
                },
                {
                    "name": "D#4",
                    "midi": 63,
                    "time": 102.85000000000045,
                    "velocity": 0.47244094488188976,
                    "duration": 0.09166666666666856
                },
                {
                    "name": "G#5",
                    "midi": 80,
                    "time": 102.94583333333378,
                    "velocity": 0.6692913385826772,
                    "duration": 0.04166666666665719
                },
                {
                    "name": "C5",
                    "midi": 72,
                    "time": 102.94583333333378,
                    "velocity": 0.6692913385826772,
                    "duration": 0.04166666666665719
                },
                {
                    "name": "D#5",
                    "midi": 75,
                    "time": 102.94583333333378,
                    "velocity": 0.6692913385826772,
                    "duration": 0.04166666666665719
                },
                {
                    "name": "G#4",
                    "midi": 68,
                    "time": 102.95000000000044,
                    "velocity": 0.6692913385826772,
                    "duration": 0.037499999999994316
                },
                {
                    "name": "D#3",
                    "midi": 51,
                    "time": 103.0416666666671,
                    "velocity": 0.47244094488188976,
                    "duration": 0.08749999999999147
                },
                {
                    "name": "G#3",
                    "midi": 56,
                    "time": 103.0416666666671,
                    "velocity": 0.47244094488188976,
                    "duration": 0.08749999999999147
                },
                {
                    "name": "C4",
                    "midi": 60,
                    "time": 103.04583333333376,
                    "velocity": 0.47244094488188976,
                    "duration": 0.0833333333333286
                },
                {
                    "name": "D#4",
                    "midi": 63,
                    "time": 103.04583333333376,
                    "velocity": 0.47244094488188976,
                    "duration": 0.0833333333333286
                },
                {
                    "name": "C5",
                    "midi": 72,
                    "time": 103.0916666666671,
                    "velocity": 0.6692913385826772,
                    "duration": 0.13333333333332575
                },
                {
                    "name": "D#5",
                    "midi": 75,
                    "time": 103.0916666666671,
                    "velocity": 0.6692913385826772,
                    "duration": 0.13333333333332575
                },
                {
                    "name": "G#4",
                    "midi": 68,
                    "time": 103.09583333333376,
                    "velocity": 0.6692913385826772,
                    "duration": 0.12916666666666288
                },
                {
                    "name": "G#5",
                    "midi": 80,
                    "time": 103.09583333333376,
                    "velocity": 0.6692913385826772,
                    "duration": 0.03333333333333144
                },
                {
                    "name": "F5",
                    "midi": 77,
                    "time": 103.23750000000042,
                    "velocity": 0.6692913385826772,
                    "duration": 0.8541666666666714
                },
                {
                    "name": "G#5",
                    "midi": 80,
                    "time": 103.23750000000042,
                    "velocity": 0.6692913385826772,
                    "duration": 0.7541666666666629
                },
                {
                    "name": "C#6",
                    "midi": 85,
                    "time": 103.23750000000042,
                    "velocity": 0.6692913385826772,
                    "duration": 0.8541666666666714
                },
                {
                    "name": "F6",
                    "midi": 89,
                    "time": 103.23750000000042,
                    "velocity": 0.6692913385826772,
                    "duration": 0.8541666666666714
                },
                {
                    "name": "C#2",
                    "midi": 37,
                    "time": 103.23750000000042,
                    "velocity": 0.6692913385826772,
                    "duration": 0.61666666666666
                },
                {
                    "name": "C#3",
                    "midi": 49,
                    "time": 103.23750000000042,
                    "velocity": 0.6692913385826772,
                    "duration": 0.6124999999999972
                },
                {
                    "name": "G#3",
                    "midi": 56,
                    "time": 103.42083333333376,
                    "velocity": 0.47244094488188976,
                    "duration": 0.09166666666666856
                },
                {
                    "name": "C#4",
                    "midi": 61,
                    "time": 103.42500000000042,
                    "velocity": 0.47244094488188976,
                    "duration": 0.09166666666666856
                },
                {
                    "name": "F4",
                    "midi": 65,
                    "time": 103.42500000000042,
                    "velocity": 0.47244094488188976,
                    "duration": 0.09166666666666856
                },
                {
                    "name": "G#3",
                    "midi": 56,
                    "time": 103.61250000000042,
                    "velocity": 0.47244094488188976,
                    "duration": 0.09166666666666856
                },
                {
                    "name": "C#4",
                    "midi": 61,
                    "time": 103.61666666666709,
                    "velocity": 0.47244094488188976,
                    "duration": 0.08750000000000568
                },
                {
                    "name": "F4",
                    "midi": 65,
                    "time": 103.61666666666709,
                    "velocity": 0.47244094488188976,
                    "duration": 0.08750000000000568
                },
                {
                    "name": "F4",
                    "midi": 65,
                    "time": 103.81250000000043,
                    "velocity": 0.47244094488188976,
                    "duration": 0.08749999999999147
                },
                {
                    "name": "G#3",
                    "midi": 56,
                    "time": 103.81250000000043,
                    "velocity": 0.47244094488188976,
                    "duration": 0.08749999999999147
                },
                {
                    "name": "C#4",
                    "midi": 61,
                    "time": 103.81250000000043,
                    "velocity": 0.47244094488188976,
                    "duration": 0.0833333333333286
                },
                {
                    "name": "F4",
                    "midi": 65,
                    "time": 104.00416666666709,
                    "velocity": 0.47244094488188976,
                    "duration": 0.17916666666667425
                },
                {
                    "name": "G#3",
                    "midi": 56,
                    "time": 104.00416666666709,
                    "velocity": 0.47244094488188976,
                    "duration": 0.08750000000000568
                },
                {
                    "name": "C#4",
                    "midi": 61,
                    "time": 104.00416666666709,
                    "velocity": 0.47244094488188976,
                    "duration": 0.17916666666667425
                },
                {
                    "name": "D#6",
                    "midi": 87,
                    "time": 104.09583333333376,
                    "velocity": 0.6692913385826772,
                    "duration": 0.27916666666666856
                },
                {
                    "name": "D#5",
                    "midi": 75,
                    "time": 104.09583333333376,
                    "velocity": 0.6692913385826772,
                    "duration": 0.27916666666666856
                },
                {
                    "name": "G#5",
                    "midi": 80,
                    "time": 104.09583333333376,
                    "velocity": 0.6692913385826772,
                    "duration": 0.18333333333333712
                },
                {
                    "name": "G#3",
                    "midi": 56,
                    "time": 104.18750000000043,
                    "velocity": 0.47244094488188976,
                    "duration": 0.09166666666666856
                },
                {
                    "name": "G3",
                    "midi": 55,
                    "time": 104.19166666666709,
                    "velocity": 0.47244094488188976,
                    "duration": 0.18333333333333712
                },
                {
                    "name": "D#4",
                    "midi": 63,
                    "time": 104.19166666666709,
                    "velocity": 0.47244094488188976,
                    "duration": 0.18333333333333712
                },
                {
                    "name": "G#5",
                    "midi": 80,
                    "time": 104.37916666666709,
                    "velocity": 0.6692913385826772,
                    "duration": 0.1874999999999858
                },
                {
                    "name": "C#6",
                    "midi": 85,
                    "time": 104.37916666666709,
                    "velocity": 0.6692913385826772,
                    "duration": 0.2833333333333172
                },
                {
                    "name": "F3",
                    "midi": 53,
                    "time": 104.37916666666709,
                    "velocity": 0.47244094488188976,
                    "duration": 0.08749999999999147
                },
                {
                    "name": "G#3",
                    "midi": 56,
                    "time": 104.37916666666709,
                    "velocity": 0.47244094488188976,
                    "duration": 0.08749999999999147
                },
                {
                    "name": "C#5",
                    "midi": 73,
                    "time": 104.37916666666709,
                    "velocity": 0.6692913385826772,
                    "duration": 0.2833333333333172
                },
                {
                    "name": "C#4",
                    "midi": 61,
                    "time": 104.38333333333375,
                    "velocity": 0.47244094488188976,
                    "duration": 0.0833333333333286
                },
                {
                    "name": "G#3",
                    "midi": 56,
                    "time": 104.57083333333374,
                    "velocity": 0.47244094488188976,
                    "duration": 0.09583333333333144
                },
                {
                    "name": "F3",
                    "midi": 53,
                    "time": 104.5750000000004,
                    "velocity": 0.47244094488188976,
                    "duration": 0.18333333333333712
                },
                {
                    "name": "C#4",
                    "midi": 61,
                    "time": 104.5750000000004,
                    "velocity": 0.47244094488188976,
                    "duration": 0.18333333333333712
                },
                {
                    "name": "C6",
                    "midi": 84,
                    "time": 104.67083333333373,
                    "velocity": 0.6692913385826772,
                    "duration": 0.2791666666666828
                },
                {
                    "name": "C5",
                    "midi": 72,
                    "time": 104.67083333333373,
                    "velocity": 0.6692913385826772,
                    "duration": 0.2791666666666828
                },
                {
                    "name": "G#5",
                    "midi": 80,
                    "time": 104.67083333333373,
                    "velocity": 0.6692913385826772,
                    "duration": 0.18333333333335133
                },
                {
                    "name": "C4",
                    "midi": 60,
                    "time": 104.76666666666708,
                    "velocity": 0.47244094488188976,
                    "duration": 0.13750000000000284
                },
                {
                    "name": "D#3",
                    "midi": 51,
                    "time": 104.76666666666708,
                    "velocity": 0.47244094488188976,
                    "duration": 0.13333333333333997
                },
                {
                    "name": "G#3",
                    "midi": 56,
                    "time": 104.76666666666708,
                    "velocity": 0.47244094488188976,
                    "duration": 0.13333333333333997
                },
                {
                    "name": "A#4",
                    "midi": 70,
                    "time": 104.95833333333375,
                    "velocity": 0.6692913385826772,
                    "duration": 0.09166666666666856
                },
                {
                    "name": "E5",
                    "midi": 76,
                    "time": 104.95833333333375,
                    "velocity": 0.6692913385826772,
                    "duration": 0.8458333333332888
                },
                {
                    "name": "G#5",
                    "midi": 80,
                    "time": 104.95833333333375,
                    "velocity": 0.6692913385826772,
                    "duration": 0.8458333333332888
                },
                {
                    "name": "A#5",
                    "midi": 82,
                    "time": 104.95833333333375,
                    "velocity": 0.6692913385826772,
                    "duration": 0.8458333333332888
                },
                {
                    "name": "C#2",
                    "midi": 37,
                    "time": 104.95833333333375,
                    "velocity": 0.6692913385826772,
                    "duration": 0.6166666666666316
                },
                {
                    "name": "C#3",
                    "midi": 49,
                    "time": 104.95833333333375,
                    "velocity": 0.6692913385826772,
                    "duration": 0.6166666666666316
                },
                {
                    "name": "C#4",
                    "midi": 61,
                    "time": 105.15000000000042,
                    "velocity": 0.47244094488188976,
                    "duration": 0.0833333333333286
                },
                {
                    "name": "E4",
                    "midi": 64,
                    "time": 105.15000000000042,
                    "velocity": 0.47244094488188976,
                    "duration": 0.0833333333333286
                },
                {
                    "name": "E3",
                    "midi": 52,
                    "time": 105.15000000000042,
                    "velocity": 0.47244094488188976,
                    "duration": 0.0833333333333286
                },
                {
                    "name": "G#3",
                    "midi": 56,
                    "time": 105.15000000000042,
                    "velocity": 0.47244094488188976,
                    "duration": 0.0833333333333286
                },
                {
                    "name": "A#3",
                    "midi": 58,
                    "time": 105.15000000000042,
                    "velocity": 0.47244094488188976,
                    "duration": 0.0833333333333286
                },
                {
                    "name": "G#4",
                    "midi": 68,
                    "time": 105.15416666666708,
                    "velocity": 0.47244094488188976,
                    "duration": 0.07916666666666572
                },
                {
                    "name": "A#4",
                    "midi": 70,
                    "time": 105.15416666666708,
                    "velocity": 0.47244094488188976,
                    "duration": 0.0833333333333286
                },
                {
                    "name": "A#3",
                    "midi": 58,
                    "time": 105.3375000000004,
                    "velocity": 0.47244094488188976,
                    "duration": 0.09166666666665435
                },
                {
                    "name": "C#4",
                    "midi": 61,
                    "time": 105.34166666666707,
                    "velocity": 0.47244094488188976,
                    "duration": 0.0833333333333286
                },
                {
                    "name": "E4",
                    "midi": 64,
                    "time": 105.34166666666707,
                    "velocity": 0.47244094488188976,
                    "duration": 0.08749999999999147
                },
                {
                    "name": "G#4",
                    "midi": 68,
                    "time": 105.34166666666707,
                    "velocity": 0.47244094488188976,
                    "duration": 0.08749999999999147
                },
                {
                    "name": "A#4",
                    "midi": 70,
                    "time": 105.34166666666707,
                    "velocity": 0.47244094488188976,
                    "duration": 0.08749999999999147
                },
                {
                    "name": "E3",
                    "midi": 52,
                    "time": 105.34166666666707,
                    "velocity": 0.47244094488188976,
                    "duration": 0.08749999999999147
                },
                {
                    "name": "G#3",
                    "midi": 56,
                    "time": 105.34166666666707,
                    "velocity": 0.47244094488188976,
                    "duration": 0.0833333333333286
                },
                {
                    "name": "E3",
                    "midi": 52,
                    "time": 105.52916666666705,
                    "velocity": 0.47244094488188976,
                    "duration": 0.0833333333333286
                },
                {
                    "name": "G#3",
                    "midi": 56,
                    "time": 105.52916666666705,
                    "velocity": 0.47244094488188976,
                    "duration": 0.0833333333333286
                },
                {
                    "name": "A#3",
                    "midi": 58,
                    "time": 105.52916666666705,
                    "velocity": 0.47244094488188976,
                    "duration": 0.0833333333333286
                },
                {
                    "name": "E4",
                    "midi": 64,
                    "time": 105.52916666666705,
                    "velocity": 0.47244094488188976,
                    "duration": 0.08749999999999147
                },
                {
                    "name": "A#4",
                    "midi": 70,
                    "time": 105.53750000000039,
                    "velocity": 0.47244094488188976,
                    "duration": 0.07916666666665151
                },
                {
                    "name": "C#4",
                    "midi": 61,
                    "time": 105.53750000000039,
                    "velocity": 0.47244094488188976,
                    "duration": 0.07499999999998863
                },
                {
                    "name": "G#4",
                    "midi": 68,
                    "time": 105.53750000000039,
                    "velocity": 0.47244094488188976,
                    "duration": 0.07499999999998863
                },
                {
                    "name": "C#4",
                    "midi": 61,
                    "time": 105.71250000000038,
                    "velocity": 0.47244094488188976,
                    "duration": 0.09166666666666856
                },
                {
                    "name": "E4",
                    "midi": 64,
                    "time": 105.71250000000038,
                    "velocity": 0.47244094488188976,
                    "duration": 0.09166666666666856
                },
                {
                    "name": "E3",
                    "midi": 52,
                    "time": 105.71250000000038,
                    "velocity": 0.47244094488188976,
                    "duration": 0.09166666666666856
                },
                {
                    "name": "G#3",
                    "midi": 56,
                    "time": 105.71250000000038,
                    "velocity": 0.47244094488188976,
                    "duration": 0.09166666666666856
                },
                {
                    "name": "A#3",
                    "midi": 58,
                    "time": 105.71250000000038,
                    "velocity": 0.47244094488188976,
                    "duration": 0.09166666666666856
                },
                {
                    "name": "G#4",
                    "midi": 68,
                    "time": 105.71666666666704,
                    "velocity": 0.47244094488188976,
                    "duration": 0.09583333333334565
                },
                {
                    "name": "A#4",
                    "midi": 70,
                    "time": 105.71666666666704,
                    "velocity": 0.47244094488188976,
                    "duration": 0.09583333333334565
                },
                {
                    "name": "C#4",
                    "midi": 61,
                    "time": 105.90833333333372,
                    "velocity": 0.47244094488188976,
                    "duration": 0.1916666666666771
                },
                {
                    "name": "E4",
                    "midi": 64,
                    "time": 105.90833333333372,
                    "velocity": 0.47244094488188976,
                    "duration": 0.1916666666666771
                },
                {
                    "name": "E3",
                    "midi": 52,
                    "time": 105.90833333333372,
                    "velocity": 0.47244094488188976,
                    "duration": 0.1916666666666771
                },
                {
                    "name": "G#3",
                    "midi": 56,
                    "time": 105.90833333333372,
                    "velocity": 0.47244094488188976,
                    "duration": 0.18333333333333712
                },
                {
                    "name": "A#3",
                    "midi": 58,
                    "time": 105.90833333333372,
                    "velocity": 0.47244094488188976,
                    "duration": 0.09166666666666856
                },
                {
                    "name": "G#4",
                    "midi": 68,
                    "time": 105.91250000000038,
                    "velocity": 0.47244094488188976,
                    "duration": 0.1875000000000142
                },
                {
                    "name": "A#4",
                    "midi": 70,
                    "time": 105.91250000000038,
                    "velocity": 0.47244094488188976,
                    "duration": 0.09166666666666856
                },
                {
                    "name": "A#3",
                    "midi": 58,
                    "time": 106.10000000000039,
                    "velocity": 0.47244094488188976,
                    "duration": 0.08750000000000568
                },
                {
                    "name": "G3",
                    "midi": 55,
                    "time": 106.10416666666706,
                    "velocity": 0.47244094488188976,
                    "duration": 0.08333333333334281
                },
                {
                    "name": "A#4",
                    "midi": 70,
                    "time": 106.10416666666706,
                    "velocity": 0.6692913385826772,
                    "duration": 0.27916666666666856
                },
                {
                    "name": "D#5",
                    "midi": 75,
                    "time": 106.10416666666706,
                    "velocity": 0.6692913385826772,
                    "duration": 0.27916666666666856
                },
                {
                    "name": "A#5",
                    "midi": 82,
                    "time": 106.10416666666706,
                    "velocity": 0.6692913385826772,
                    "duration": 0.27916666666666856
                },
                {
                    "name": "C#3",
                    "midi": 49,
                    "time": 106.10416666666706,
                    "velocity": 0.47244094488188976,
                    "duration": 0.08750000000000568
                },
                {
                    "name": "D#3",
                    "midi": 51,
                    "time": 106.10416666666706,
                    "velocity": 0.47244094488188976,
                    "duration": 0.08750000000000568
                },
                {
                    "name": "A#3",
                    "midi": 58,
                    "time": 106.29166666666706,
                    "velocity": 0.47244094488188976,
                    "duration": 0.08750000000000568
                },
                {
                    "name": "D#3",
                    "midi": 51,
                    "time": 106.29166666666706,
                    "velocity": 0.47244094488188976,
                    "duration": 0.09166666666666856
                },
                {
                    "name": "G3",
                    "midi": 55,
                    "time": 106.29166666666706,
                    "velocity": 0.47244094488188976,
                    "duration": 0.08750000000000568
                },
                {
                    "name": "C#3",
                    "midi": 49,
                    "time": 106.3000000000004,
                    "velocity": 0.47244094488188976,
                    "duration": 0.0833333333333286
                },
                {
                    "name": "G4",
                    "midi": 67,
                    "time": 106.39166666666706,
                    "velocity": 0.6692913385826772,
                    "duration": 0.13333333333332575
                },
                {
                    "name": "G5",
                    "midi": 79,
                    "time": 106.39166666666706,
                    "velocity": 0.6692913385826772,
                    "duration": 0.13333333333332575
                },
                {
                    "name": "A#3",
                    "midi": 58,
                    "time": 106.47916666666706,
                    "velocity": 0.47244094488188976,
                    "duration": 0.14166666666666572
                },
                {
                    "name": "G3",
                    "midi": 55,
                    "time": 106.48333333333372,
                    "velocity": 0.47244094488188976,
                    "duration": 0.13750000000000284
                },
                {
                    "name": "C#3",
                    "midi": 49,
                    "time": 106.48333333333372,
                    "velocity": 0.47244094488188976,
                    "duration": 0.14166666666666572
                },
                {
                    "name": "D#3",
                    "midi": 51,
                    "time": 106.48333333333372,
                    "velocity": 0.47244094488188976,
                    "duration": 0.13750000000000284
                },
                {
                    "name": "D#4",
                    "midi": 63,
                    "time": 106.52916666666705,
                    "velocity": 0.6692913385826772,
                    "duration": 0.13750000000000284
                },
                {
                    "name": "D#5",
                    "midi": 75,
                    "time": 106.52916666666705,
                    "velocity": 0.6692913385826772,
                    "duration": 0.09583333333333144
                },
                {
                    "name": "D#5",
                    "midi": 75,
                    "time": 106.67916666666706,
                    "velocity": 0.6692913385826772,
                    "duration": 0.6624999999999943
                },
                {
                    "name": "G#5",
                    "midi": 80,
                    "time": 106.67916666666706,
                    "velocity": 0.6692913385826772,
                    "duration": 0.6624999999999943
                },
                {
                    "name": "C2",
                    "midi": 36,
                    "time": 106.67916666666706,
                    "velocity": 0.6692913385826772,
                    "duration": 0.6124999999999972
                },
                {
                    "name": "C3",
                    "midi": 48,
                    "time": 106.67916666666706,
                    "velocity": 0.6692913385826772,
                    "duration": 0.0833333333333286
                },
                {
                    "name": "G#4",
                    "midi": 68,
                    "time": 106.67916666666706,
                    "velocity": 0.6692913385826772,
                    "duration": 0.0833333333333286
                },
                {
                    "name": "C4",
                    "midi": 60,
                    "time": 106.86250000000038,
                    "velocity": 0.47244094488188976,
                    "duration": 0.08750000000000568
                },
                {
                    "name": "D#4",
                    "midi": 63,
                    "time": 106.86250000000038,
                    "velocity": 0.47244094488188976,
                    "duration": 0.08750000000000568
                },
                {
                    "name": "C3",
                    "midi": 48,
                    "time": 106.86250000000038,
                    "velocity": 0.47244094488188976,
                    "duration": 0.08750000000000568
                },
                {
                    "name": "D#3",
                    "midi": 51,
                    "time": 106.86250000000038,
                    "velocity": 0.47244094488188976,
                    "duration": 0.08750000000000568
                },
                {
                    "name": "G#3",
                    "midi": 56,
                    "time": 106.86250000000038,
                    "velocity": 0.47244094488188976,
                    "duration": 0.08750000000000568
                },
                {
                    "name": "G#4",
                    "midi": 68,
                    "time": 106.87083333333372,
                    "velocity": 0.47244094488188976,
                    "duration": 0.07916666666666572
                },
                {
                    "name": "G#3",
                    "midi": 56,
                    "time": 107.05416666666706,
                    "velocity": 0.47244094488188976,
                    "duration": 0.08749999999999147
                },
                {
                    "name": "D#4",
                    "midi": 63,
                    "time": 107.05833333333372,
                    "velocity": 0.47244094488188976,
                    "duration": 0.09166666666666856
                },
                {
                    "name": "G#4",
                    "midi": 68,
                    "time": 107.05833333333372,
                    "velocity": 0.47244094488188976,
                    "duration": 0.09166666666666856
                },
                {
                    "name": "C3",
                    "midi": 48,
                    "time": 107.05833333333372,
                    "velocity": 0.47244094488188976,
                    "duration": 0.0833333333333286
                },
                {
                    "name": "D#3",
                    "midi": 51,
                    "time": 107.05833333333372,
                    "velocity": 0.47244094488188976,
                    "duration": 0.0833333333333286
                },
                {
                    "name": "C4",
                    "midi": 60,
                    "time": 107.05833333333372,
                    "velocity": 0.47244094488188976,
                    "duration": 0.0833333333333286
                },
                {
                    "name": "G#3",
                    "midi": 56,
                    "time": 107.25416666666706,
                    "velocity": 0.47244094488188976,
                    "duration": 0.08749999999999147
                },
                {
                    "name": "C4",
                    "midi": 60,
                    "time": 107.25416666666706,
                    "velocity": 0.47244094488188976,
                    "duration": 0.08749999999999147
                },
                {
                    "name": "D#4",
                    "midi": 63,
                    "time": 107.25416666666706,
                    "velocity": 0.47244094488188976,
                    "duration": 0.08749999999999147
                },
                {
                    "name": "G#4",
                    "midi": 68,
                    "time": 107.25416666666706,
                    "velocity": 0.47244094488188976,
                    "duration": 0.08749999999999147
                },
                {
                    "name": "C3",
                    "midi": 48,
                    "time": 107.25416666666706,
                    "velocity": 0.47244094488188976,
                    "duration": 0.08749999999999147
                },
                {
                    "name": "D#3",
                    "midi": 51,
                    "time": 107.25416666666706,
                    "velocity": 0.47244094488188976,
                    "duration": 0.08749999999999147
                },
                {
                    "name": "G#3",
                    "midi": 56,
                    "time": 107.44166666666705,
                    "velocity": 0.47244094488188976,
                    "duration": 0.09583333333333144
                },
                {
                    "name": "D#4",
                    "midi": 63,
                    "time": 107.44583333333371,
                    "velocity": 0.47244094488188976,
                    "duration": 0.13750000000000284
                },
                {
                    "name": "G#4",
                    "midi": 68,
                    "time": 107.44583333333371,
                    "velocity": 0.47244094488188976,
                    "duration": 0.09166666666666856
                },
                {
                    "name": "C3",
                    "midi": 48,
                    "time": 107.44583333333371,
                    "velocity": 0.47244094488188976,
                    "duration": 0.09166666666666856
                },
                {
                    "name": "D#3",
                    "midi": 51,
                    "time": 107.44583333333371,
                    "velocity": 0.47244094488188976,
                    "duration": 0.09166666666666856
                },
                {
                    "name": "C4",
                    "midi": 60,
                    "time": 107.44583333333371,
                    "velocity": 0.47244094488188976,
                    "duration": 0.13750000000000284
                },
                {
                    "name": "G#3",
                    "midi": 56,
                    "time": 107.63333333333371,
                    "velocity": 0.47244094488188976,
                    "duration": 0.13750000000000284
                },
                {
                    "name": "G#4",
                    "midi": 68,
                    "time": 107.63750000000037,
                    "velocity": 0.6692913385826772,
                    "duration": 0.1875
                },
                {
                    "name": "C5",
                    "midi": 72,
                    "time": 107.63750000000037,
                    "velocity": 0.6692913385826772,
                    "duration": 0.1875
                },
                {
                    "name": "D#5",
                    "midi": 75,
                    "time": 107.63750000000037,
                    "velocity": 0.6692913385826772,
                    "duration": 0.08750000000000568
                },
                {
                    "name": "G#5",
                    "midi": 80,
                    "time": 107.63750000000037,
                    "velocity": 0.6692913385826772,
                    "duration": 0.1875
                },
                {
                    "name": "C3",
                    "midi": 48,
                    "time": 107.63750000000037,
                    "velocity": 0.47244094488188976,
                    "duration": 0.13750000000000284
                },
                {
                    "name": "D#3",
                    "midi": 51,
                    "time": 107.63750000000037,
                    "velocity": 0.47244094488188976,
                    "duration": 0.13750000000000284
                },
                {
                    "name": "A#1",
                    "midi": 34,
                    "time": 107.82916666666704,
                    "velocity": 0.6692913385826772,
                    "duration": 0.42500000000001137
                },
                {
                    "name": "A#2",
                    "midi": 46,
                    "time": 107.82916666666704,
                    "velocity": 0.6692913385826772,
                    "duration": 0.42500000000001137
                },
                {
                    "name": "C#5",
                    "midi": 73,
                    "time": 107.82916666666704,
                    "velocity": 0.6692913385826772,
                    "duration": 0.3291666666666657
                },
                {
                    "name": "D#5",
                    "midi": 75,
                    "time": 107.82916666666704,
                    "velocity": 0.6692913385826772,
                    "duration": 0.47083333333334565
                },
                {
                    "name": "G5",
                    "midi": 79,
                    "time": 107.82916666666704,
                    "velocity": 0.6692913385826772,
                    "duration": 0.47083333333334565
                },
                {
                    "name": "C#6",
                    "midi": 85,
                    "time": 107.82916666666704,
                    "velocity": 0.6692913385826772,
                    "duration": 0.32500000000000284
                },
                {
                    "name": "C#4",
                    "midi": 61,
                    "time": 108.01666666666704,
                    "velocity": 0.47244094488188976,
                    "duration": 0.08750000000000568
                },
                {
                    "name": "D#3",
                    "midi": 51,
                    "time": 108.02500000000038,
                    "velocity": 0.47244094488188976,
                    "duration": 0.07916666666666572
                },
                {
                    "name": "G3",
                    "midi": 55,
                    "time": 108.02500000000038,
                    "velocity": 0.47244094488188976,
                    "duration": 0.07916666666666572
                },
                {
                    "name": "C#4",
                    "midi": 61,
                    "time": 108.21250000000038,
                    "velocity": 0.47244094488188976,
                    "duration": 0.13750000000000284
                },
                {
                    "name": "D#3",
                    "midi": 51,
                    "time": 108.21250000000038,
                    "velocity": 0.47244094488188976,
                    "duration": 0.13750000000000284
                },
                {
                    "name": "G3",
                    "midi": 55,
                    "time": 108.21250000000038,
                    "velocity": 0.47244094488188976,
                    "duration": 0.13750000000000284
                },
                {
                    "name": "C#5",
                    "midi": 73,
                    "time": 108.25833333333371,
                    "velocity": 0.6692913385826772,
                    "duration": 0.09166666666666856
                },
                {
                    "name": "C#6",
                    "midi": 85,
                    "time": 108.25833333333371,
                    "velocity": 0.6692913385826772,
                    "duration": 0.09166666666666856
                },
                {
                    "name": "C#5",
                    "midi": 73,
                    "time": 108.40000000000038,
                    "velocity": 0.6692913385826772,
                    "duration": 0.61666666666666
                },
                {
                    "name": "C#6",
                    "midi": 85,
                    "time": 108.40000000000038,
                    "velocity": 0.6692913385826772,
                    "duration": 0.61666666666666
                },
                {
                    "name": "G#1",
                    "midi": 32,
                    "time": 108.40416666666704,
                    "velocity": 0.6692913385826772,
                    "duration": 0.42500000000001137
                },
                {
                    "name": "G#2",
                    "midi": 44,
                    "time": 108.40416666666704,
                    "velocity": 0.6692913385826772,
                    "duration": 0.42500000000001137
                },
                {
                    "name": "D#5",
                    "midi": 75,
                    "time": 108.40416666666704,
                    "velocity": 0.6692913385826772,
                    "duration": 0.4750000000000085
                },
                {
                    "name": "G#5",
                    "midi": 80,
                    "time": 108.40416666666704,
                    "velocity": 0.6692913385826772,
                    "duration": 0.4750000000000085
                },
                {
                    "name": "C#4",
                    "midi": 61,
                    "time": 108.60000000000038,
                    "velocity": 0.47244094488188976,
                    "duration": 0.08750000000000568
                },
                {
                    "name": "D#3",
                    "midi": 51,
                    "time": 108.60000000000038,
                    "velocity": 0.47244094488188976,
                    "duration": 0.08750000000000568
                },
                {
                    "name": "G#3",
                    "midi": 56,
                    "time": 108.60000000000038,
                    "velocity": 0.47244094488188976,
                    "duration": 0.08750000000000568
                },
                {
                    "name": "C#4",
                    "midi": 61,
                    "time": 108.78750000000038,
                    "velocity": 0.47244094488188976,
                    "duration": 0.09166666666666856
                },
                {
                    "name": "D#3",
                    "midi": 51,
                    "time": 108.78750000000038,
                    "velocity": 0.47244094488188976,
                    "duration": 0.09166666666666856
                },
                {
                    "name": "G#3",
                    "midi": 56,
                    "time": 108.78750000000038,
                    "velocity": 0.47244094488188976,
                    "duration": 0.09166666666666856
                },
                {
                    "name": "G#3",
                    "midi": 56,
                    "time": 108.97500000000038,
                    "velocity": 0.6692913385826772,
                    "duration": 0.09166666666665435
                },
                {
                    "name": "G#5",
                    "midi": 80,
                    "time": 108.97916666666704,
                    "velocity": 0.6692913385826772,
                    "duration": 0.1874999999999858
                },
                {
                    "name": "C6",
                    "midi": 84,
                    "time": 108.97916666666704,
                    "velocity": 0.6692913385826772,
                    "duration": 0.1833333333333229
                },
                {
                    "name": "G#2",
                    "midi": 44,
                    "time": 108.97916666666704,
                    "velocity": 0.6692913385826772,
                    "duration": 0.42083333333332007
                },
                {
                    "name": "C5",
                    "midi": 72,
                    "time": 108.97916666666704,
                    "velocity": 0.6692913385826772,
                    "duration": 0.1874999999999858
                },
                {
                    "name": "D#5",
                    "midi": 75,
                    "time": 108.97916666666704,
                    "velocity": 0.6692913385826772,
                    "duration": 0.1874999999999858
                },
                {
                    "name": "G#3",
                    "midi": 56,
                    "time": 109.16666666666703,
                    "velocity": 0.47244094488188976,
                    "duration": 0.09583333333334565
                },
                {
                    "name": "C4",
                    "midi": 60,
                    "time": 109.16666666666703,
                    "velocity": 0.47244094488188976,
                    "duration": 0.09583333333334565
                },
                {
                    "name": "D#3",
                    "midi": 51,
                    "time": 109.17500000000037,
                    "velocity": 0.47244094488188976,
                    "duration": 0.08750000000000568
                },
                {
                    "name": "C6",
                    "midi": 84,
                    "time": 109.26666666666704,
                    "velocity": 0.6692913385826772,
                    "duration": 0.1833333333333229
                },
                {
                    "name": "G#5",
                    "midi": 80,
                    "time": 109.26666666666704,
                    "velocity": 0.6692913385826772,
                    "duration": 0.2833333333333172
                },
                {
                    "name": "C5",
                    "midi": 72,
                    "time": 109.26666666666704,
                    "velocity": 0.6692913385826772,
                    "duration": 0.1833333333333229
                },
                {
                    "name": "D#5",
                    "midi": 75,
                    "time": 109.26666666666704,
                    "velocity": 0.6692913385826772,
                    "duration": 0.2833333333333172
                },
                {
                    "name": "G#3",
                    "midi": 56,
                    "time": 109.3583333333337,
                    "velocity": 0.47244094488188976,
                    "duration": 0.09166666666665435
                },
                {
                    "name": "D#3",
                    "midi": 51,
                    "time": 109.36250000000037,
                    "velocity": 0.47244094488188976,
                    "duration": 0.09166666666665435
                },
                {
                    "name": "C4",
                    "midi": 60,
                    "time": 109.36250000000037,
                    "velocity": 0.47244094488188976,
                    "duration": 0.08749999999999147
                },
                {
                    "name": "A5",
                    "midi": 81,
                    "time": 109.55000000000035,
                    "velocity": 0.6692913385826772,
                    "duration": 0.4708333333333172
                },
                {
                    "name": "F5",
                    "midi": 77,
                    "time": 109.55416666666702,
                    "velocity": 0.6692913385826772,
                    "duration": 0.32500000000000284
                },
                {
                    "name": "C6",
                    "midi": 84,
                    "time": 109.55416666666702,
                    "velocity": 0.6692913385826772,
                    "duration": 0.46666666666665435
                },
                {
                    "name": "D#2",
                    "midi": 39,
                    "time": 109.55416666666702,
                    "velocity": 0.6692913385826772,
                    "duration": 0.4208333333333343
                },
                {
                    "name": "D#3",
                    "midi": 51,
                    "time": 109.55416666666702,
                    "velocity": 0.6692913385826772,
                    "duration": 0.08750000000000568
                },
                {
                    "name": "C5",
                    "midi": 72,
                    "time": 109.55416666666702,
                    "velocity": 0.6692913385826772,
                    "duration": 0.4708333333333172
                },
                {
                    "name": "C4",
                    "midi": 60,
                    "time": 109.73750000000035,
                    "velocity": 0.47244094488188976,
                    "duration": 0.08749999999999147
                },
                {
                    "name": "D#3",
                    "midi": 51,
                    "time": 109.73750000000035,
                    "velocity": 0.47244094488188976,
                    "duration": 0.09583333333333144
                },
                {
                    "name": "F3",
                    "midi": 53,
                    "time": 109.73750000000035,
                    "velocity": 0.47244094488188976,
                    "duration": 0.08749999999999147
                },
                {
                    "name": "A3",
                    "midi": 57,
                    "time": 109.74166666666702,
                    "velocity": 0.47244094488188976,
                    "duration": 0.09166666666666856
                },
                {
                    "name": "D#3",
                    "midi": 51,
                    "time": 109.93750000000036,
                    "velocity": 0.47244094488188976,
                    "duration": 0.08749999999997726
                },
                {
                    "name": "F3",
                    "midi": 53,
                    "time": 109.93750000000036,
                    "velocity": 0.47244094488188976,
                    "duration": 0.08749999999997726
                },
                {
                    "name": "A3",
                    "midi": 57,
                    "time": 109.93750000000036,
                    "velocity": 0.47244094488188976,
                    "duration": 0.08749999999997726
                },
                {
                    "name": "C4",
                    "midi": 60,
                    "time": 109.93750000000036,
                    "velocity": 0.47244094488188976,
                    "duration": 0.08333333333331439
                },
                {
                    "name": "F4",
                    "midi": 65,
                    "time": 109.97916666666701,
                    "velocity": 0.6692913385826772,
                    "duration": 0.1416666666666515
                },
                {
                    "name": "F5",
                    "midi": 77,
                    "time": 109.98333333333368,
                    "velocity": 0.6692913385826772,
                    "duration": 0.04166666666665719
                },
                {
                    "name": "A#5",
                    "midi": 82,
                    "time": 110.129166666667,
                    "velocity": 0.6692913385826772,
                    "duration": 0.6624999999999801
                },
                {
                    "name": "A#4",
                    "midi": 70,
                    "time": 110.129166666667,
                    "velocity": 0.6692913385826772,
                    "duration": 0.08749999999999147
                },
                {
                    "name": "F5",
                    "midi": 77,
                    "time": 110.129166666667,
                    "velocity": 0.6692913385826772,
                    "duration": 0.6624999999999801
                },
                {
                    "name": "C#2",
                    "midi": 37,
                    "time": 110.13333333333367,
                    "velocity": 0.6692913385826772,
                    "duration": 0.42083333333332007
                },
                {
                    "name": "C#3",
                    "midi": 49,
                    "time": 110.13333333333367,
                    "velocity": 0.6692913385826772,
                    "duration": 0.0833333333333286
                },
                {
                    "name": "F4",
                    "midi": 65,
                    "time": 110.31666666666699,
                    "velocity": 0.47244094488188976,
                    "duration": 0.09166666666666856
                },
                {
                    "name": "A#4",
                    "midi": 70,
                    "time": 110.31666666666699,
                    "velocity": 0.47244094488188976,
                    "duration": 0.09166666666666856
                },
                {
                    "name": "F3",
                    "midi": 53,
                    "time": 110.31666666666699,
                    "velocity": 0.47244094488188976,
                    "duration": 0.08750000000000568
                },
                {
                    "name": "A#3",
                    "midi": 58,
                    "time": 110.31666666666699,
                    "velocity": 0.47244094488188976,
                    "duration": 0.08750000000000568
                },
                {
                    "name": "C#4",
                    "midi": 61,
                    "time": 110.31666666666699,
                    "velocity": 0.47244094488188976,
                    "duration": 0.09166666666666856
                },
                {
                    "name": "C#3",
                    "midi": 49,
                    "time": 110.32500000000033,
                    "velocity": 0.47244094488188976,
                    "duration": 0.0833333333333286
                },
                {
                    "name": "F3",
                    "midi": 53,
                    "time": 110.50833333333365,
                    "velocity": 0.47244094488188976,
                    "duration": 0.09166666666666856
                },
                {
                    "name": "A#3",
                    "midi": 58,
                    "time": 110.50833333333365,
                    "velocity": 0.47244094488188976,
                    "duration": 0.09166666666666856
                },
                {
                    "name": "C#3",
                    "midi": 49,
                    "time": 110.51250000000032,
                    "velocity": 0.47244094488188976,
                    "duration": 0.09166666666666856
                },
                {
                    "name": "C#4",
                    "midi": 61,
                    "time": 110.51250000000032,
                    "velocity": 0.47244094488188976,
                    "duration": 0.08750000000000568
                },
                {
                    "name": "F4",
                    "midi": 65,
                    "time": 110.51250000000032,
                    "velocity": 0.47244094488188976,
                    "duration": 0.09166666666666856
                },
                {
                    "name": "A#4",
                    "midi": 70,
                    "time": 110.51250000000032,
                    "velocity": 0.47244094488188976,
                    "duration": 0.09166666666666856
                },
                {
                    "name": "A#3",
                    "midi": 58,
                    "time": 110.69583333333365,
                    "velocity": 0.47244094488188976,
                    "duration": 0.09583333333333144
                },
                {
                    "name": "F3",
                    "midi": 53,
                    "time": 110.70000000000032,
                    "velocity": 0.47244094488188976,
                    "duration": 0.09166666666666856
                },
                {
                    "name": "C#4",
                    "midi": 61,
                    "time": 110.70000000000032,
                    "velocity": 0.47244094488188976,
                    "duration": 0.09166666666666856
                },
                {
                    "name": "F4",
                    "midi": 65,
                    "time": 110.70000000000032,
                    "velocity": 0.47244094488188976,
                    "duration": 0.09166666666666856
                },
                {
                    "name": "A#4",
                    "midi": 70,
                    "time": 110.70000000000032,
                    "velocity": 0.47244094488188976,
                    "duration": 0.09166666666666856
                },
                {
                    "name": "C#3",
                    "midi": 49,
                    "time": 110.70416666666698,
                    "velocity": 0.47244094488188976,
                    "duration": 0.08750000000000568
                },
                {
                    "name": "A#3",
                    "midi": 58,
                    "time": 110.89166666666698,
                    "velocity": 0.47244094488188976,
                    "duration": 0.08750000000000568
                },
                {
                    "name": "F4",
                    "midi": 65,
                    "time": 110.89166666666698,
                    "velocity": 0.47244094488188976,
                    "duration": 0.09166666666666856
                },
                {
                    "name": "A#4",
                    "midi": 70,
                    "time": 110.89166666666698,
                    "velocity": 0.47244094488188976,
                    "duration": 0.09166666666666856
                },
                {
                    "name": "C#3",
                    "midi": 49,
                    "time": 110.89166666666698,
                    "velocity": 0.47244094488188976,
                    "duration": 0.09166666666666856
                },
                {
                    "name": "F3",
                    "midi": 53,
                    "time": 110.89166666666698,
                    "velocity": 0.47244094488188976,
                    "duration": 0.08750000000000568
                },
                {
                    "name": "C#4",
                    "midi": 61,
                    "time": 110.89166666666698,
                    "velocity": 0.47244094488188976,
                    "duration": 0.08750000000000568
                },
                {
                    "name": "A#5",
                    "midi": 82,
                    "time": 111.07500000000032,
                    "velocity": 0.6692913385826772,
                    "duration": 0.19166666666666288
                },
                {
                    "name": "A#3",
                    "midi": 58,
                    "time": 111.07916666666698,
                    "velocity": 0.47244094488188976,
                    "duration": 0.09166666666666856
                },
                {
                    "name": "A#4",
                    "midi": 70,
                    "time": 111.07916666666698,
                    "velocity": 0.6692913385826772,
                    "duration": 0.1875
                },
                {
                    "name": "C#5",
                    "midi": 73,
                    "time": 111.07916666666698,
                    "velocity": 0.6692913385826772,
                    "duration": 0.18333333333333712
                },
                {
                    "name": "F5",
                    "midi": 77,
                    "time": 111.07916666666698,
                    "velocity": 0.6692913385826772,
                    "duration": 0.13750000000000284
                },
                {
                    "name": "C#3",
                    "midi": 49,
                    "time": 111.07916666666698,
                    "velocity": 0.47244094488188976,
                    "duration": 0.09166666666666856
                },
                {
                    "name": "F3",
                    "midi": 53,
                    "time": 111.07916666666698,
                    "velocity": 0.47244094488188976,
                    "duration": 0.09166666666666856
                },
                {
                    "name": "A5",
                    "midi": 81,
                    "time": 111.26666666666698,
                    "velocity": 0.6692913385826772,
                    "duration": 0.4749999999999943
                },
                {
                    "name": "D#6",
                    "midi": 87,
                    "time": 111.26666666666698,
                    "velocity": 0.6692913385826772,
                    "duration": 0.3333333333333286
                },
                {
                    "name": "D#5",
                    "midi": 75,
                    "time": 111.27083333333364,
                    "velocity": 0.6692913385826772,
                    "duration": 0.3333333333333286
                },
                {
                    "name": "F5",
                    "midi": 77,
                    "time": 111.27083333333364,
                    "velocity": 0.6692913385826772,
                    "duration": 0.4791666666666714
                },
                {
                    "name": "C2",
                    "midi": 36,
                    "time": 111.2750000000003,
                    "velocity": 0.6692913385826772,
                    "duration": 0.42499999999999716
                },
                {
                    "name": "C3",
                    "midi": 48,
                    "time": 111.2750000000003,
                    "velocity": 0.6692913385826772,
                    "duration": 0.42499999999999716
                },
                {
                    "name": "F3",
                    "midi": 53,
                    "time": 111.46666666666698,
                    "velocity": 0.47244094488188976,
                    "duration": 0.0833333333333286
                },
                {
                    "name": "D#4",
                    "midi": 63,
                    "time": 111.46666666666698,
                    "velocity": 0.47244094488188976,
                    "duration": 0.08749999999999147
                },
                {
                    "name": "A3",
                    "midi": 57,
                    "time": 111.47083333333364,
                    "velocity": 0.47244094488188976,
                    "duration": 0.0833333333333286
                },
                {
                    "name": "D#4",
                    "midi": 63,
                    "time": 111.6625000000003,
                    "velocity": 0.47244094488188976,
                    "duration": 0.08750000000000568
                },
                {
                    "name": "F3",
                    "midi": 53,
                    "time": 111.6625000000003,
                    "velocity": 0.47244094488188976,
                    "duration": 0.07916666666666572
                },
                {
                    "name": "A3",
                    "midi": 57,
                    "time": 111.6625000000003,
                    "velocity": 0.47244094488188976,
                    "duration": 0.08750000000000568
                },
                {
                    "name": "D#6",
                    "midi": 87,
                    "time": 111.7000000000003,
                    "velocity": 0.6692913385826772,
                    "duration": 0.09166666666668277
                },
                {
                    "name": "D#5",
                    "midi": 75,
                    "time": 111.70833333333364,
                    "velocity": 0.6692913385826772,
                    "duration": 0.041666666666671404
                },
                {
                    "name": "A5",
                    "midi": 81,
                    "time": 111.84583333333364,
                    "velocity": 0.6692913385826772,
                    "duration": 0.6083333333332774
                },
                {
                    "name": "D#6",
                    "midi": 87,
                    "time": 111.84583333333364,
                    "velocity": 0.6692913385826772,
                    "duration": 0.6083333333332774
                },
                {
                    "name": "A#1",
                    "midi": 34,
                    "time": 111.8500000000003,
                    "velocity": 0.6692913385826772,
                    "duration": 0.42083333333330586
                },
                {
                    "name": "A#2",
                    "midi": 46,
                    "time": 111.8500000000003,
                    "velocity": 0.6692913385826772,
                    "duration": 0.42083333333330586
                },
                {
                    "name": "D#5",
                    "midi": 75,
                    "time": 111.8500000000003,
                    "velocity": 0.6692913385826772,
                    "duration": 0.6083333333332774
                },
                {
                    "name": "F5",
                    "midi": 77,
                    "time": 111.8500000000003,
                    "velocity": 0.6692913385826772,
                    "duration": 0.470833333333303
                },
                {
                    "name": "D#4",
                    "midi": 63,
                    "time": 112.0375000000003,
                    "velocity": 0.47244094488188976,
                    "duration": 0.09166666666665435
                },
                {
                    "name": "F3",
                    "midi": 53,
                    "time": 112.0375000000003,
                    "velocity": 0.47244094488188976,
                    "duration": 0.08749999999999147
                },
                {
                    "name": "A3",
                    "midi": 57,
                    "time": 112.0375000000003,
                    "velocity": 0.47244094488188976,
                    "duration": 0.09166666666665435
                },
                {
                    "name": "C4",
                    "midi": 60,
                    "time": 112.04166666666697,
                    "velocity": 0.47244094488188976,
                    "duration": 0.08749999999999147
                },
                {
                    "name": "D#4",
                    "midi": 63,
                    "time": 112.22916666666696,
                    "velocity": 0.47244094488188976,
                    "duration": 0.1833333333333087
                },
                {
                    "name": "F3",
                    "midi": 53,
                    "time": 112.22916666666696,
                    "velocity": 0.47244094488188976,
                    "duration": 0.09166666666665435
                },
                {
                    "name": "C4",
                    "midi": 60,
                    "time": 112.22916666666696,
                    "velocity": 0.47244094488188976,
                    "duration": 0.1833333333333087
                },
                {
                    "name": "A3",
                    "midi": 57,
                    "time": 112.23333333333362,
                    "velocity": 0.47244094488188976,
                    "duration": 0.17916666666664582
                },
                {
                    "name": "F3",
                    "midi": 53,
                    "time": 112.37083333333361,
                    "velocity": 0.47244094488188976,
                    "duration": 0.22916666666664298
                },
                {
                    "name": "A#2",
                    "midi": 46,
                    "time": 112.37500000000027,
                    "velocity": 0.47244094488188976,
                    "duration": 0.22916666666664298
                },
                {
                    "name": "A#3",
                    "midi": 58,
                    "time": 112.41666666666693,
                    "velocity": 0.6692913385826772,
                    "duration": 0.27916666666664014
                },
                {
                    "name": "C#5",
                    "midi": 73,
                    "time": 112.41666666666693,
                    "velocity": 0.6692913385826772,
                    "duration": 0.1833333333333229
                },
                {
                    "name": "A#5",
                    "midi": 82,
                    "time": 112.41666666666693,
                    "velocity": 0.6692913385826772,
                    "duration": 0.283333333333303
                },
                {
                    "name": "C#6",
                    "midi": 85,
                    "time": 112.41666666666693,
                    "velocity": 0.6692913385826772,
                    "duration": 0.27916666666664014
                },
                {
                    "name": "C#4",
                    "midi": 61,
                    "time": 112.42083333333359,
                    "velocity": 0.6692913385826772,
                    "duration": 0.27499999999997726
                },
                {
                    "name": "F5",
                    "midi": 77,
                    "time": 112.42083333333359,
                    "velocity": 0.6692913385826772,
                    "duration": 0.1833333333333229
                },
                {
                    "name": "A2",
                    "midi": 45,
                    "time": 112.65833333333357,
                    "velocity": 0.47244094488188976,
                    "duration": 0.27916666666665435
                },
                {
                    "name": "F4",
                    "midi": 65,
                    "time": 112.7041666666669,
                    "velocity": 0.6692913385826772,
                    "duration": 0.27916666666666856
                },
                {
                    "name": "F5",
                    "midi": 77,
                    "time": 112.7041666666669,
                    "velocity": 0.6692913385826772,
                    "duration": 0.1875
                },
                {
                    "name": "C6",
                    "midi": 84,
                    "time": 112.7041666666669,
                    "velocity": 0.6692913385826772,
                    "duration": 0.27916666666666856
                },
                {
                    "name": "F6",
                    "midi": 89,
                    "time": 112.7041666666669,
                    "velocity": 0.6692913385826772,
                    "duration": 0.2750000000000057
                },
                {
                    "name": "A3",
                    "midi": 57,
                    "time": 112.7041666666669,
                    "velocity": 0.47244094488188976,
                    "duration": 0.27916666666666856
                },
                {
                    "name": "C4",
                    "midi": 60,
                    "time": 112.7041666666669,
                    "velocity": 0.47244094488188976,
                    "duration": 0.27916666666666856
                },
                {
                    "name": "A#2",
                    "midi": 46,
                    "time": 112.94583333333357,
                    "velocity": 0.47244094488188976,
                    "duration": 0.2833333333333172
                },
                {
                    "name": "C#6",
                    "midi": 85,
                    "time": 112.9916666666669,
                    "velocity": 0.6692913385826772,
                    "duration": 0.2833333333333172
                },
                {
                    "name": "A#3",
                    "midi": 58,
                    "time": 112.9916666666669,
                    "velocity": 0.6692913385826772,
                    "duration": 0.23333333333332007
                },
                {
                    "name": "C#5",
                    "midi": 73,
                    "time": 112.9916666666669,
                    "velocity": 0.6692913385826772,
                    "duration": 0.17916666666666003
                },
                {
                    "name": "A#5",
                    "midi": 82,
                    "time": 112.9916666666669,
                    "velocity": 0.6692913385826772,
                    "duration": 0.1833333333333229
                },
                {
                    "name": "C#4",
                    "midi": 61,
                    "time": 112.9916666666669,
                    "velocity": 0.6692913385826772,
                    "duration": 0.2833333333333172
                },
                {
                    "name": "F5",
                    "midi": 77,
                    "time": 112.9916666666669,
                    "velocity": 0.6692913385826772,
                    "duration": 0.2833333333333172
                },
                {
                    "name": "C#2",
                    "midi": 37,
                    "time": 113.23333333333355,
                    "velocity": 0.47244094488188976,
                    "duration": 0.28333333333334565
                },
                {
                    "name": "E3",
                    "midi": 52,
                    "time": 113.28333333333356,
                    "velocity": 0.6692913385826772,
                    "duration": 0.28333333333333144
                },
                {
                    "name": "A#3",
                    "midi": 58,
                    "time": 113.28333333333356,
                    "velocity": 0.6692913385826772,
                    "duration": 0.28333333333333144
                },
                {
                    "name": "A#4",
                    "midi": 70,
                    "time": 113.28333333333356,
                    "velocity": 0.6692913385826772,
                    "duration": 0.28333333333333144
                },
                {
                    "name": "C#5",
                    "midi": 73,
                    "time": 113.28333333333356,
                    "velocity": 0.6692913385826772,
                    "duration": 0.27916666666666856
                },
                {
                    "name": "E5",
                    "midi": 76,
                    "time": 113.28333333333356,
                    "velocity": 0.6692913385826772,
                    "duration": 0.28333333333333144
                },
                {
                    "name": "A#5",
                    "midi": 82,
                    "time": 113.28333333333356,
                    "velocity": 0.6692913385826772,
                    "duration": 0.28333333333333144
                },
                {
                    "name": "C#3",
                    "midi": 49,
                    "time": 113.28333333333356,
                    "velocity": 0.6692913385826772,
                    "duration": 0.28333333333333144
                },
                {
                    "name": "D#2",
                    "midi": 39,
                    "time": 113.5291666666669,
                    "velocity": 0.47244094488188976,
                    "duration": 0.2291666666666714
                },
                {
                    "name": "G#3",
                    "midi": 56,
                    "time": 113.57500000000023,
                    "velocity": 0.6692913385826772,
                    "duration": 0.2291666666666714
                },
                {
                    "name": "C4",
                    "midi": 60,
                    "time": 113.57500000000023,
                    "velocity": 0.6692913385826772,
                    "duration": 0.2750000000000057
                },
                {
                    "name": "G#4",
                    "midi": 68,
                    "time": 113.57500000000023,
                    "velocity": 0.6692913385826772,
                    "duration": 0.18333333333333712
                },
                {
                    "name": "C5",
                    "midi": 72,
                    "time": 113.57500000000023,
                    "velocity": 0.6692913385826772,
                    "duration": 0.2750000000000057
                },
                {
                    "name": "D#5",
                    "midi": 75,
                    "time": 113.57500000000023,
                    "velocity": 0.6692913385826772,
                    "duration": 0.2750000000000057
                },
                {
                    "name": "G#5",
                    "midi": 80,
                    "time": 113.57500000000023,
                    "velocity": 0.6692913385826772,
                    "duration": 0.18333333333333712
                },
                {
                    "name": "D#3",
                    "midi": 51,
                    "time": 113.57500000000023,
                    "velocity": 0.6692913385826772,
                    "duration": 0.2291666666666714
                },
                {
                    "name": "D#2",
                    "midi": 39,
                    "time": 113.8166666666669,
                    "velocity": 0.47244094488188976,
                    "duration": 0.23333333333333428
                },
                {
                    "name": "G#3",
                    "midi": 56,
                    "time": 113.8541666666669,
                    "velocity": 0.6692913385826772,
                    "duration": 0.23750000000001137
                },
                {
                    "name": "B3",
                    "midi": 59,
                    "time": 113.86250000000024,
                    "velocity": 0.6692913385826772,
                    "duration": 0.2291666666666714
                },
                {
                    "name": "D4",
                    "midi": 62,
                    "time": 113.86250000000024,
                    "velocity": 0.6692913385826772,
                    "duration": 0.2291666666666714
                },
                {
                    "name": "G#4",
                    "midi": 68,
                    "time": 113.86250000000024,
                    "velocity": 0.6692913385826772,
                    "duration": 0.2291666666666714
                },
                {
                    "name": "B4",
                    "midi": 71,
                    "time": 113.86250000000024,
                    "velocity": 0.6692913385826772,
                    "duration": 0.2291666666666714
                },
                {
                    "name": "F5",
                    "midi": 77,
                    "time": 113.86250000000024,
                    "velocity": 0.6692913385826772,
                    "duration": 0.2291666666666714
                },
                {
                    "name": "G#5",
                    "midi": 80,
                    "time": 113.86250000000024,
                    "velocity": 0.6692913385826772,
                    "duration": 0.2291666666666714
                },
                {
                    "name": "D#3",
                    "midi": 51,
                    "time": 113.86250000000024,
                    "velocity": 0.6692913385826772,
                    "duration": 0.2291666666666714
                },
                {
                    "name": "D#1",
                    "midi": 27,
                    "time": 114.15000000000025,
                    "velocity": 0.47244094488188976,
                    "duration": 0.6166666666666742
                },
                {
                    "name": "D#2",
                    "midi": 39,
                    "time": 114.15416666666691,
                    "velocity": 0.47244094488188976,
                    "duration": 0.6125000000000114
                },
                {
                    "name": "D#3",
                    "midi": 51,
                    "time": 114.36666666666692,
                    "velocity": 0.47244094488188976,
                    "duration": 0.4958333333333371
                },
                {
                    "name": "A#3",
                    "midi": 58,
                    "time": 114.39166666666692,
                    "velocity": 0.47244094488188976,
                    "duration": 0.47083333333333144
                },
                {
                    "name": "C#4",
                    "midi": 61,
                    "time": 114.41250000000025,
                    "velocity": 0.47244094488188976,
                    "duration": 0.4958333333333371
                },
                {
                    "name": "F6",
                    "midi": 89,
                    "time": 114.43750000000026,
                    "velocity": 0.6692913385826772,
                    "duration": 0.5625
                },
                {
                    "name": "G#5",
                    "midi": 80,
                    "time": 114.43750000000026,
                    "velocity": 0.6692913385826772,
                    "duration": 0.5666666666666629
                },
                {
                    "name": "C#6",
                    "midi": 85,
                    "time": 114.43750000000026,
                    "velocity": 0.6692913385826772,
                    "duration": 0.5625
                },
                {
                    "name": "F4",
                    "midi": 65,
                    "time": 114.44166666666692,
                    "velocity": 0.6692913385826772,
                    "duration": 0.46666666666666856
                },
                {
                    "name": "F5",
                    "midi": 77,
                    "time": 114.44166666666692,
                    "velocity": 0.6692913385826772,
                    "duration": 0.5625
                },
                {
                    "name": "D#3",
                    "midi": 51,
                    "time": 114.96250000000026,
                    "velocity": 0.47244094488188976,
                    "duration": 0.2291666666666572
                },
                {
                    "name": "A#3",
                    "midi": 58,
                    "time": 114.96250000000026,
                    "velocity": 0.47244094488188976,
                    "duration": 0.3291666666666515
                },
                {
                    "name": "A#5",
                    "midi": 82,
                    "time": 115.01250000000026,
                    "velocity": 0.6692913385826772,
                    "duration": 0.27916666666665435
                },
                {
                    "name": "D#6",
                    "midi": 87,
                    "time": 115.01250000000026,
                    "velocity": 0.6692913385826772,
                    "duration": 0.27916666666665435
                },
                {
                    "name": "C#4",
                    "midi": 61,
                    "time": 115.01250000000026,
                    "velocity": 0.6692913385826772,
                    "duration": 0.2833333333333172
                },
                {
                    "name": "G4",
                    "midi": 67,
                    "time": 115.01250000000026,
                    "velocity": 0.6692913385826772,
                    "duration": 0.27916666666665435
                },
                {
                    "name": "D#5",
                    "midi": 75,
                    "time": 115.01250000000026,
                    "velocity": 0.6692913385826772,
                    "duration": 0.17916666666666003
                },
                {
                    "name": "G5",
                    "midi": 79,
                    "time": 115.01666666666692,
                    "velocity": 0.6692913385826772,
                    "duration": 0.2749999999999915
                },
                {
                    "name": "G#4",
                    "midi": 68,
                    "time": 115.30000000000024,
                    "velocity": 0.6692913385826772,
                    "duration": 1.0500000000000256
                },
                {
                    "name": "C5",
                    "midi": 72,
                    "time": 115.30000000000024,
                    "velocity": 0.6692913385826772,
                    "duration": 1.0500000000000256
                },
                {
                    "name": "D#5",
                    "midi": 75,
                    "time": 115.30000000000024,
                    "velocity": 0.6692913385826772,
                    "duration": 1.0500000000000256
                },
                {
                    "name": "G#5",
                    "midi": 80,
                    "time": 115.30000000000024,
                    "velocity": 0.6692913385826772,
                    "duration": 1.0500000000000256
                },
                {
                    "name": "G#2",
                    "midi": 44,
                    "time": 115.30000000000024,
                    "velocity": 0.6692913385826772,
                    "duration": 1.137500000000017
                },
                {
                    "name": "D#3",
                    "midi": 51,
                    "time": 115.30000000000024,
                    "velocity": 0.6692913385826772,
                    "duration": 0.4791666666666714
                },
                {
                    "name": "G#3",
                    "midi": 56,
                    "time": 115.45000000000024,
                    "velocity": 0.47244094488188976,
                    "duration": 0.375
                },
                {
                    "name": "C4",
                    "midi": 60,
                    "time": 115.58750000000025,
                    "velocity": 0.47244094488188976,
                    "duration": 0.3291666666666657
                },
                {
                    "name": "D#4",
                    "midi": 63,
                    "time": 115.80833333333358,
                    "velocity": 0.47244094488188976,
                    "duration": 0.4000000000000057
                },
                {
                    "name": "C4",
                    "midi": 60,
                    "time": 116.02500000000025,
                    "velocity": 0.47244094488188976,
                    "duration": 0.2750000000000057
                },
                {
                    "name": "G#3",
                    "midi": 56,
                    "time": 116.16666666666691,
                    "velocity": 0.47244094488188976,
                    "duration": 0.18333333333335133
                },
                {
                    "name": "D#3",
                    "midi": 51,
                    "time": 116.3083333333336,
                    "velocity": 0.47244094488188976,
                    "duration": 0.09166666666666856
                },
                {
                    "name": "G2",
                    "midi": 43,
                    "time": 116.45416666666692,
                    "velocity": 0.47244094488188976,
                    "duration": 0.5750000000000028
                },
                {
                    "name": "D#3",
                    "midi": 51,
                    "time": 116.47500000000025,
                    "velocity": 0.47244094488188976,
                    "duration": 0.40416666666666856
                },
                {
                    "name": "G#3",
                    "midi": 56,
                    "time": 116.59166666666691,
                    "velocity": 0.47244094488188976,
                    "duration": 0.3833333333333542
                },
                {
                    "name": "C4",
                    "midi": 60,
                    "time": 116.74166666666692,
                    "velocity": 0.47244094488188976,
                    "duration": 0.28333333333334565
                },
                {
                    "name": "D#4",
                    "midi": 63,
                    "time": 116.88750000000026,
                    "velocity": 0.47244094488188976,
                    "duration": 0.1875
                },
                {
                    "name": "F2",
                    "midi": 41,
                    "time": 117.03333333333359,
                    "velocity": 0.47244094488188976,
                    "duration": 0.5625000000000142
                },
                {
                    "name": "G#4",
                    "midi": 68,
                    "time": 117.05416666666692,
                    "velocity": 0.6692913385826772,
                    "duration": 0.5916666666666828
                },
                {
                    "name": "D3",
                    "midi": 50,
                    "time": 117.06250000000026,
                    "velocity": 0.47244094488188976,
                    "duration": 0.4416666666666771
                },
                {
                    "name": "G#3",
                    "midi": 56,
                    "time": 117.17083333333359,
                    "velocity": 0.47244094488188976,
                    "duration": 0.3333333333333428
                },
                {
                    "name": "B3",
                    "midi": 59,
                    "time": 117.31250000000026,
                    "velocity": 0.47244094488188976,
                    "duration": 0.23750000000001137
                },
                {
                    "name": "D4",
                    "midi": 62,
                    "time": 117.46250000000026,
                    "velocity": 0.47244094488188976,
                    "duration": 0.17916666666667425
                },
                {
                    "name": "E2",
                    "midi": 40,
                    "time": 117.60000000000026,
                    "velocity": 0.47244094488188976,
                    "duration": 0.5625
                },
                {
                    "name": "G4",
                    "midi": 67,
                    "time": 117.60000000000026,
                    "velocity": 0.6692913385826772,
                    "duration": 0.32500000000000284
                },
                {
                    "name": "C#3",
                    "midi": 49,
                    "time": 117.62916666666693,
                    "velocity": 0.47244094488188976,
                    "duration": 0.4333333333333371
                },
                {
                    "name": "G3",
                    "midi": 55,
                    "time": 117.74166666666693,
                    "velocity": 0.47244094488188976,
                    "duration": 0.32083333333333997
                },
                {
                    "name": "A#3",
                    "midi": 58,
                    "time": 117.87916666666693,
                    "velocity": 0.47244094488188976,
                    "duration": 0.23333333333333428
                },
                {
                    "name": "G#4",
                    "midi": 68,
                    "time": 117.87916666666693,
                    "velocity": 0.6692913385826772,
                    "duration": 0.3333333333333428
                },
                {
                    "name": "C#4",
                    "midi": 61,
                    "time": 118.02916666666694,
                    "velocity": 0.47244094488188976,
                    "duration": 0.18333333333333712
                },
                {
                    "name": "D#2",
                    "midi": 39,
                    "time": 118.1708333333336,
                    "velocity": 0.47244094488188976,
                    "duration": 0.5666666666666629
                },
                {
                    "name": "C5",
                    "midi": 72,
                    "time": 118.1708333333336,
                    "velocity": 0.6692913385826772,
                    "duration": 0.47083333333333144
                },
                {
                    "name": "C#3",
                    "midi": 49,
                    "time": 118.20000000000027,
                    "velocity": 0.47244094488188976,
                    "duration": 0.3958333333333428
                },
                {
                    "name": "G3",
                    "midi": 55,
                    "time": 118.31666666666695,
                    "velocity": 0.47244094488188976,
                    "duration": 0.32499999999998863
                },
                {
                    "name": "C#4",
                    "midi": 61,
                    "time": 118.46250000000028,
                    "velocity": 0.47244094488188976,
                    "duration": 0.2291666666666572
                },
                {
                    "name": "D#4",
                    "midi": 63,
                    "time": 118.60000000000028,
                    "velocity": 0.47244094488188976,
                    "duration": 0.1833333333333229
                },
                {
                    "name": "A#4",
                    "midi": 70,
                    "time": 118.60416666666694,
                    "velocity": 0.6692913385826772,
                    "duration": 0.1833333333333229
                },
                {
                    "name": "G#2",
                    "midi": 44,
                    "time": 118.75000000000027,
                    "velocity": 0.47244094488188976,
                    "duration": 1.13333333333334
                },
                {
                    "name": "G#4",
                    "midi": 68,
                    "time": 118.75000000000027,
                    "velocity": 0.6692913385826772,
                    "duration": 1.5708333333333542
                },
                {
                    "name": "D#3",
                    "midi": 51,
                    "time": 118.7708333333336,
                    "velocity": 0.47244094488188976,
                    "duration": 0.4416666666666771
                },
                {
                    "name": "G#3",
                    "midi": 56,
                    "time": 118.88750000000027,
                    "velocity": 0.47244094488188976,
                    "duration": 0.36666666666667425
                },
                {
                    "name": "C4",
                    "midi": 60,
                    "time": 119.02916666666694,
                    "velocity": 0.47244094488188976,
                    "duration": 0.32500000000000284
                },
                {
                    "name": "D#4",
                    "midi": 63,
                    "time": 119.24166666666694,
                    "velocity": 0.47244094488188976,
                    "duration": 0.44583333333333997
                },
                {
                    "name": "C4",
                    "midi": 60,
                    "time": 119.45833333333361,
                    "velocity": 0.47244094488188976,
                    "duration": 0.27916666666666856
                },
                {
                    "name": "G#3",
                    "midi": 56,
                    "time": 119.60000000000028,
                    "velocity": 0.47244094488188976,
                    "duration": 0.18333333333333712
                },
                {
                    "name": "C3",
                    "midi": 48,
                    "time": 119.75000000000028,
                    "velocity": 0.47244094488188976,
                    "duration": 0.08749999999999147
                },
                {
                    "name": "G2",
                    "midi": 43,
                    "time": 119.89166666666695,
                    "velocity": 0.47244094488188976,
                    "duration": 0.5708333333333258
                },
                {
                    "name": "C3",
                    "midi": 48,
                    "time": 119.91666666666696,
                    "velocity": 0.47244094488188976,
                    "duration": 0.4000000000000057
                },
                {
                    "name": "G#3",
                    "midi": 56,
                    "time": 120.03750000000029,
                    "velocity": 0.47244094488188976,
                    "duration": 0.32499999999998863
                },
                {
                    "name": "C4",
                    "midi": 60,
                    "time": 120.18333333333362,
                    "velocity": 0.47244094488188976,
                    "duration": 0.22499999999999432
                },
                {
                    "name": "D#4",
                    "midi": 63,
                    "time": 120.32500000000029,
                    "velocity": 0.47244094488188976,
                    "duration": 0.17916666666664582
                },
                {
                    "name": "F2",
                    "midi": 41,
                    "time": 120.46250000000028,
                    "velocity": 0.47244094488188976,
                    "duration": 0.5749999999999886
                },
                {
                    "name": "G#4",
                    "midi": 68,
                    "time": 120.46666666666694,
                    "velocity": 0.6692913385826772,
                    "duration": 0.6208333333333371
                },
                {
                    "name": "B2",
                    "midi": 47,
                    "time": 120.49166666666693,
                    "velocity": 0.47244094488188976,
                    "duration": 0.5458333333333343
                },
                {
                    "name": "G#3",
                    "midi": 56,
                    "time": 120.61250000000027,
                    "velocity": 0.47244094488188976,
                    "duration": 0.3291666666666657
                },
                {
                    "name": "B3",
                    "midi": 59,
                    "time": 120.75416666666693,
                    "velocity": 0.47244094488188976,
                    "duration": 0.23749999999999716
                },
                {
                    "name": "D4",
                    "midi": 62,
                    "time": 120.90000000000026,
                    "velocity": 0.47244094488188976,
                    "duration": 0.1875000000000142
                },
                {
                    "name": "E2",
                    "midi": 40,
                    "time": 121.0458333333336,
                    "velocity": 0.47244094488188976,
                    "duration": 0.5666666666666487
                },
                {
                    "name": "G4",
                    "midi": 67,
                    "time": 121.0458333333336,
                    "velocity": 0.6692913385826772,
                    "duration": 0.3291666666666657
                },
                {
                    "name": "A#2",
                    "midi": 46,
                    "time": 121.07500000000027,
                    "velocity": 0.47244094488188976,
                    "duration": 0.44583333333331154
                },
                {
                    "name": "G#3",
                    "midi": 56,
                    "time": 121.18750000000027,
                    "velocity": 0.47244094488188976,
                    "duration": 0.3291666666666515
                },
                {
                    "name": "A#3",
                    "midi": 58,
                    "time": 121.3333333333336,
                    "velocity": 0.47244094488188976,
                    "duration": 0.23333333333332007
                },
                {
                    "name": "G#4",
                    "midi": 68,
                    "time": 121.3333333333336,
                    "velocity": 0.6692913385826772,
                    "duration": 0.3291666666666515
                },
                {
                    "name": "C#4",
                    "midi": 61,
                    "time": 121.47500000000026,
                    "velocity": 0.47244094488188976,
                    "duration": 0.1874999999999858
                },
                {
                    "name": "G#2",
                    "midi": 44,
                    "time": 121.47916666666693,
                    "velocity": 0.47244094488188976,
                    "duration": 0.1833333333333229
                },
                {
                    "name": "C5",
                    "midi": 72,
                    "time": 121.62500000000026,
                    "velocity": 0.6692913385826772,
                    "duration": 0.46249999999997726
                },
                {
                    "name": "D#2",
                    "midi": 39,
                    "time": 121.62500000000026,
                    "velocity": 0.47244094488188976,
                    "duration": 0.5583333333333087
                },
                {
                    "name": "G2",
                    "midi": 43,
                    "time": 121.62500000000026,
                    "velocity": 0.47244094488188976,
                    "duration": 0.31666666666664867
                },
                {
                    "name": "G3",
                    "midi": 55,
                    "time": 121.74166666666692,
                    "velocity": 0.47244094488188976,
                    "duration": 0.3458333333333172
                },
                {
                    "name": "C#4",
                    "midi": 61,
                    "time": 121.90416666666691,
                    "velocity": 0.47244094488188976,
                    "duration": 0.2291666666666572
                },
                {
                    "name": "D#4",
                    "midi": 63,
                    "time": 122.05000000000024,
                    "velocity": 0.47244094488188976,
                    "duration": 0.18333333333333712
                },
                {
                    "name": "A#4",
                    "midi": 70,
                    "time": 122.05000000000024,
                    "velocity": 0.6692913385826772,
                    "duration": 0.18333333333333712
                },
                {
                    "name": "G#2",
                    "midi": 44,
                    "time": 122.1916666666669,
                    "velocity": 0.47244094488188976,
                    "duration": 1.6208333333333371
                },
                {
                    "name": "G#4",
                    "midi": 68,
                    "time": 122.1916666666669,
                    "velocity": 0.6692913385826772,
                    "duration": 1.0416666666666714
                },
                {
                    "name": "D#3",
                    "midi": 51,
                    "time": 122.21666666666691,
                    "velocity": 0.47244094488188976,
                    "duration": 0.45000000000000284
                },
                {
                    "name": "G#3",
                    "midi": 56,
                    "time": 122.33750000000025,
                    "velocity": 0.47244094488188976,
                    "duration": 0.375
                },
                {
                    "name": "C4",
                    "midi": 60,
                    "time": 122.47916666666691,
                    "velocity": 0.47244094488188976,
                    "duration": 0.3333333333333286
                },
                {
                    "name": "D#4",
                    "midi": 63,
                    "time": 122.62500000000024,
                    "velocity": 0.47244094488188976,
                    "duration": 0.0625
                },
                {
                    "name": "D#4",
                    "midi": 63,
                    "time": 122.77500000000025,
                    "velocity": 0.47244094488188976,
                    "duration": 0.4583333333333286
                },
                {
                    "name": "C4",
                    "midi": 60,
                    "time": 122.91250000000024,
                    "velocity": 0.47244094488188976,
                    "duration": 0.4166666666666714
                },
                {
                    "name": "G#3",
                    "midi": 56,
                    "time": 123.0541666666669,
                    "velocity": 0.47244094488188976,
                    "duration": 0.32500000000000284
                },
                {
                    "name": "D#3",
                    "midi": 51,
                    "time": 123.1916666666669,
                    "velocity": 0.47244094488188976,
                    "duration": 0.3333333333333286
                },
                {
                    "name": "G#4",
                    "midi": 68,
                    "time": 123.34166666666691,
                    "velocity": 0.47244094488188976,
                    "duration": 0.42499999999999716
                },
                {
                    "name": "C4",
                    "midi": 60,
                    "time": 123.4791666666669,
                    "velocity": 0.47244094488188976,
                    "duration": 0.38333333333333997
                },
                {
                    "name": "G#3",
                    "midi": 56,
                    "time": 123.6291666666669,
                    "velocity": 0.47244094488188976,
                    "duration": 0.32500000000000284
                },
                {
                    "name": "D#3",
                    "midi": 51,
                    "time": 123.77500000000025,
                    "velocity": 0.47244094488188976,
                    "duration": 0.32500000000000284
                },
                {
                    "name": "G#4",
                    "midi": 68,
                    "time": 123.91250000000024,
                    "velocity": 0.47244094488188976,
                    "duration": 0.42500000000001137
                },
                {
                    "name": "C5",
                    "midi": 72,
                    "time": 123.91250000000024,
                    "velocity": 0.47244094488188976,
                    "duration": 0.42500000000001137
                },
                {
                    "name": "C4",
                    "midi": 60,
                    "time": 124.05833333333358,
                    "velocity": 0.47244094488188976,
                    "duration": 0.4208333333333343
                },
                {
                    "name": "G#3",
                    "midi": 56,
                    "time": 124.20000000000024,
                    "velocity": 0.47244094488188976,
                    "duration": 0.32916666666667993
                },
                {
                    "name": "D#4",
                    "midi": 63,
                    "time": 124.20416666666691,
                    "velocity": 0.47244094488188976,
                    "duration": 0.32500000000001705
                },
                {
                    "name": "D#3",
                    "midi": 51,
                    "time": 124.35000000000025,
                    "velocity": 0.47244094488188976,
                    "duration": 0.2708333333333428
                },
                {
                    "name": "G#4",
                    "midi": 68,
                    "time": 124.48750000000025,
                    "velocity": 0.47244094488188976,
                    "duration": 0.47083333333333144
                },
                {
                    "name": "D#5",
                    "midi": 75,
                    "time": 124.48750000000025,
                    "velocity": 0.47244094488188976,
                    "duration": 0.46666666666666856
                },
                {
                    "name": "C4",
                    "midi": 60,
                    "time": 124.62916666666693,
                    "velocity": 0.47244094488188976,
                    "duration": 0.4749999999999943
                },
                {
                    "name": "G#3",
                    "midi": 56,
                    "time": 124.77500000000026,
                    "velocity": 0.47244094488188976,
                    "duration": 0.5625
                },
                {
                    "name": "D#4",
                    "midi": 63,
                    "time": 124.77500000000026,
                    "velocity": 0.47244094488188976,
                    "duration": 0.4166666666666714
                },
                {
                    "name": "D#3",
                    "midi": 51,
                    "time": 124.91666666666693,
                    "velocity": 0.47244094488188976,
                    "duration": 0.47083333333333144
                },
                {
                    "name": "G#1",
                    "midi": 32,
                    "time": 125.06250000000026,
                    "velocity": 0.47244094488188976,
                    "duration": 0.8000000000000114
                },
                {
                    "name": "G#2",
                    "midi": 44,
                    "time": 125.06250000000026,
                    "velocity": 0.47244094488188976,
                    "duration": 0.8000000000000114
                },
                {
                    "name": "C4",
                    "midi": 60,
                    "time": 125.67916666666693,
                    "velocity": 0.47244094488188976,
                    "duration": 0.18333333333333712
                },
                {
                    "name": "D#4",
                    "midi": 63,
                    "time": 125.67916666666693,
                    "velocity": 0.47244094488188976,
                    "duration": 0.18333333333333712
                },
                {
                    "name": "G#4",
                    "midi": 68,
                    "time": 125.67916666666693,
                    "velocity": 0.47244094488188976,
                    "duration": 0.18333333333333712
                },
                {
                    "name": "C5",
                    "midi": 72,
                    "time": 125.67916666666693,
                    "velocity": 0.47244094488188976,
                    "duration": 0.18333333333333712
                },
                {
                    "name": "G#5",
                    "midi": 80,
                    "time": 125.67916666666693,
                    "velocity": 0.47244094488188976,
                    "duration": 0.18333333333333712
                },
                {
                    "name": "C6",
                    "midi": 84,
                    "time": 125.67916666666693,
                    "velocity": 0.47244094488188976,
                    "duration": 0.18333333333333712
                },
                {
                    "name": "D#6",
                    "midi": 87,
                    "time": 125.67916666666693,
                    "velocity": 0.47244094488188976,
                    "duration": 0.17499999999999716
                },
                {
                    "name": "G#6",
                    "midi": 92,
                    "time": 125.67916666666693,
                    "velocity": 0.47244094488188976,
                    "duration": 0.18333333333333712
                }
            ],
            "controlChanges": {
                "64": [
                    {
                        "number": 64,
                        "time": 1.2541666666666667,
                        "value": 1
                    },
                    {
                        "number": 64,
                        "time": 2.254166666666667,
                        "value": 0
                    },
                    {
                        "number": 64,
                        "time": 3.0041666666666673,
                        "value": 1
                    },
                    {
                        "number": 64,
                        "time": 3.991666666666668,
                        "value": 0
                    },
                    {
                        "number": 64,
                        "time": 4.725000000000001,
                        "value": 1
                    },
                    {
                        "number": 64,
                        "time": 5.725000000000002,
                        "value": 0
                    },
                    {
                        "number": 64,
                        "time": 6.4541666666666675,
                        "value": 1
                    },
                    {
                        "number": 64,
                        "time": 7.449999999999998,
                        "value": 0
                    },
                    {
                        "number": 64,
                        "time": 8.179166666666662,
                        "value": 1
                    },
                    {
                        "number": 64,
                        "time": 9.17499999999999,
                        "value": 0
                    },
                    {
                        "number": 64,
                        "time": 9.899999999999986,
                        "value": 1
                    },
                    {
                        "number": 64,
                        "time": 10.654166666666649,
                        "value": 0
                    },
                    {
                        "number": 64,
                        "time": 11.624999999999977,
                        "value": 1
                    },
                    {
                        "number": 64,
                        "time": 12.554166666666644,
                        "value": 0
                    },
                    {
                        "number": 64,
                        "time": 12.774999999999975,
                        "value": 1
                    },
                    {
                        "number": 64,
                        "time": 13.07916666666664,
                        "value": 0
                    },
                    {
                        "number": 64,
                        "time": 13.30416666666664,
                        "value": 1
                    },
                    {
                        "number": 64,
                        "time": 14.283333333333301,
                        "value": 0
                    },
                    {
                        "number": 64,
                        "time": 14.508333333333299,
                        "value": 1
                    },
                    {
                        "number": 64,
                        "time": 14.783333333333298,
                        "value": 0
                    },
                    {
                        "number": 64,
                        "time": 15.008333333333297,
                        "value": 1
                    },
                    {
                        "number": 64,
                        "time": 15.42916666666663,
                        "value": 0
                    },
                    {
                        "number": 64,
                        "time": 15.654166666666628,
                        "value": 1
                    },
                    {
                        "number": 64,
                        "time": 15.99999999999996,
                        "value": 0
                    },
                    {
                        "number": 64,
                        "time": 16.229166666666632,
                        "value": 1
                    },
                    {
                        "number": 64,
                        "time": 16.529166666666637,
                        "value": 0
                    },
                    {
                        "number": 64,
                        "time": 16.758333333333304,
                        "value": 1
                    },
                    {
                        "number": 64,
                        "time": 17.724999999999977,
                        "value": 0
                    },
                    {
                        "number": 64,
                        "time": 17.954166666666644,
                        "value": 1
                    },
                    {
                        "number": 64,
                        "time": 18.229166666666647,
                        "value": 0
                    },
                    {
                        "number": 64,
                        "time": 18.44999999999998,
                        "value": 1
                    },
                    {
                        "number": 64,
                        "time": 18.999999999999982,
                        "value": 0
                    },
                    {
                        "number": 64,
                        "time": 20.254166666666656,
                        "value": 1
                    },
                    {
                        "number": 64,
                        "time": 21.154166666666658,
                        "value": 0
                    },
                    {
                        "number": 64,
                        "time": 21.979166666666668,
                        "value": 1
                    },
                    {
                        "number": 64,
                        "time": 23.025000000000002,
                        "value": 0
                    },
                    {
                        "number": 64,
                        "time": 23.987500000000008,
                        "value": 1
                    },
                    {
                        "number": 64,
                        "time": 24.18750000000001,
                        "value": 0
                    },
                    {
                        "number": 64,
                        "time": 25.420833333333356,
                        "value": 1
                    },
                    {
                        "number": 64,
                        "time": 26.42083333333336,
                        "value": 0
                    },
                    {
                        "number": 64,
                        "time": 27.075000000000024,
                        "value": 1
                    },
                    {
                        "number": 64,
                        "time": 28.129166666666706,
                        "value": 0
                    },
                    {
                        "number": 64,
                        "time": 28.879166666666706,
                        "value": 1
                    },
                    {
                        "number": 64,
                        "time": 29.725000000000048,
                        "value": 0
                    },
                    {
                        "number": 64,
                        "time": 29.95000000000005,
                        "value": 1
                    },
                    {
                        "number": 64,
                        "time": 30.370833333333387,
                        "value": 0
                    },
                    {
                        "number": 64,
                        "time": 30.600000000000055,
                        "value": 1
                    },
                    {
                        "number": 64,
                        "time": 31.375000000000064,
                        "value": 0
                    },
                    {
                        "number": 64,
                        "time": 32.325000000000074,
                        "value": 1
                    },
                    {
                        "number": 64,
                        "time": 33.204166666666744,
                        "value": 0
                    },
                    {
                        "number": 64,
                        "time": 33.42916666666676,
                        "value": 1
                    },
                    {
                        "number": 64,
                        "time": 33.82916666666676,
                        "value": 0
                    },
                    {
                        "number": 64,
                        "time": 34.06250000000009,
                        "value": 1
                    },
                    {
                        "number": 64,
                        "time": 34.983333333333434,
                        "value": 0
                    },
                    {
                        "number": 64,
                        "time": 35.21250000000012,
                        "value": 1
                    },
                    {
                        "number": 64,
                        "time": 35.51666666666679,
                        "value": 0
                    },
                    {
                        "number": 64,
                        "time": 35.7291666666668,
                        "value": 1
                    },
                    {
                        "number": 64,
                        "time": 36.1291666666668,
                        "value": 0
                    },
                    {
                        "number": 64,
                        "time": 36.354166666666806,
                        "value": 1
                    },
                    {
                        "number": 64,
                        "time": 36.65000000000014,
                        "value": 0
                    },
                    {
                        "number": 64,
                        "time": 36.86250000000013,
                        "value": 1
                    },
                    {
                        "number": 64,
                        "time": 37.2291666666668,
                        "value": 0
                    },
                    {
                        "number": 64,
                        "time": 37.45000000000013,
                        "value": 1
                    },
                    {
                        "number": 64,
                        "time": 38.429166666666795,
                        "value": 0
                    },
                    {
                        "number": 64,
                        "time": 38.654166666666804,
                        "value": 1
                    },
                    {
                        "number": 64,
                        "time": 38.950000000000145,
                        "value": 0
                    },
                    {
                        "number": 64,
                        "time": 39.175000000000146,
                        "value": 1
                    },
                    {
                        "number": 64,
                        "time": 39.700000000000145,
                        "value": 0
                    },
                    {
                        "number": 64,
                        "time": 40.90833333333352,
                        "value": 1
                    },
                    {
                        "number": 64,
                        "time": 42.137500000000195,
                        "value": 0
                    },
                    {
                        "number": 64,
                        "time": 42.82083333333355,
                        "value": 1
                    },
                    {
                        "number": 64,
                        "time": 43.95000000000024,
                        "value": 0
                    },
                    {
                        "number": 64,
                        "time": 44.67083333333358,
                        "value": 1
                    },
                    {
                        "number": 64,
                        "time": 45.12500000000025,
                        "value": 0
                    },
                    {
                        "number": 64,
                        "time": 45.77916666666692,
                        "value": 1
                    },
                    {
                        "number": 64,
                        "time": 46.17083333333358,
                        "value": 0
                    },
                    {
                        "number": 64,
                        "time": 46.40416666666693,
                        "value": 1
                    },
                    {
                        "number": 64,
                        "time": 47.45416666666693,
                        "value": 0
                    },
                    {
                        "number": 64,
                        "time": 48.13750000000027,
                        "value": 1
                    },
                    {
                        "number": 64,
                        "time": 49.18333333333361,
                        "value": 0
                    },
                    {
                        "number": 64,
                        "time": 49.86250000000029,
                        "value": 1
                    },
                    {
                        "number": 64,
                        "time": 50.8125000000003,
                        "value": 0
                    },
                    {
                        "number": 64,
                        "time": 51.03333333333364,
                        "value": 1
                    },
                    {
                        "number": 64,
                        "time": 54.08750000000032,
                        "value": 0
                    },
                    {
                        "number": 64,
                        "time": 54.96666666666699,
                        "value": 1
                    },
                    {
                        "number": 64,
                        "time": 56.03750000000034,
                        "value": 0
                    },
                    {
                        "number": 64,
                        "time": 56.779166666667024,
                        "value": 1
                    },
                    {
                        "number": 64,
                        "time": 57.75416666666704,
                        "value": 0
                    },
                    {
                        "number": 64,
                        "time": 57.92916666666705,
                        "value": 1
                    },
                    {
                        "number": 64,
                        "time": 58.32500000000039,
                        "value": 0
                    },
                    {
                        "number": 64,
                        "time": 58.504166666667054,
                        "value": 1
                    },
                    {
                        "number": 64,
                        "time": 59.54166666666706,
                        "value": 0
                    },
                    {
                        "number": 64,
                        "time": 60.225000000000406,
                        "value": 1
                    },
                    {
                        "number": 64,
                        "time": 61.20416666666709,
                        "value": 0
                    },
                    {
                        "number": 64,
                        "time": 65.37916666666712,
                        "value": 1
                    },
                    {
                        "number": 64,
                        "time": 66.18333333333379,
                        "value": 0
                    },
                    {
                        "number": 64,
                        "time": 66.52916666666711,
                        "value": 1
                    },
                    {
                        "number": 64,
                        "time": 66.8291666666671,
                        "value": 0
                    },
                    {
                        "number": 64,
                        "time": 67.06250000000043,
                        "value": 1
                    },
                    {
                        "number": 64,
                        "time": 67.45833333333374,
                        "value": 0
                    },
                    {
                        "number": 64,
                        "time": 67.68333333333375,
                        "value": 1
                    },
                    {
                        "number": 64,
                        "time": 68.10833333333376,
                        "value": 0
                    },
                    {
                        "number": 64,
                        "time": 68.78750000000043,
                        "value": 1
                    },
                    {
                        "number": 64,
                        "time": 69.82916666666709,
                        "value": 0
                    },
                    {
                        "number": 64,
                        "time": 72.22500000000042,
                        "value": 1
                    },
                    {
                        "number": 64,
                        "time": 73.34166666666704,
                        "value": 0
                    },
                    {
                        "number": 64,
                        "time": 75.10000000000035,
                        "value": 1
                    },
                    {
                        "number": 64,
                        "time": 75.42500000000035,
                        "value": 0
                    },
                    {
                        "number": 64,
                        "time": 75.65000000000035,
                        "value": 1
                    },
                    {
                        "number": 64,
                        "time": 76.79166666666703,
                        "value": 0
                    },
                    {
                        "number": 64,
                        "time": 77.39583333333373,
                        "value": 1
                    },
                    {
                        "number": 64,
                        "time": 78.31250000000041,
                        "value": 0
                    },
                    {
                        "number": 64,
                        "time": 78.5375000000004,
                        "value": 1
                    },
                    {
                        "number": 64,
                        "time": 78.89166666666708,
                        "value": 0
                    },
                    {
                        "number": 64,
                        "time": 79.11666666666707,
                        "value": 1
                    },
                    {
                        "number": 64,
                        "time": 79.66250000000042,
                        "value": 0
                    },
                    {
                        "number": 64,
                        "time": 81.4666666666671,
                        "value": 1
                    },
                    {
                        "number": 64,
                        "time": 84.1208333333337,
                        "value": 0
                    },
                    {
                        "number": 64,
                        "time": 84.35000000000036,
                        "value": 1
                    },
                    {
                        "number": 64,
                        "time": 85.67500000000037,
                        "value": 0
                    },
                    {
                        "number": 64,
                        "time": 86.03750000000039,
                        "value": 1
                    },
                    {
                        "number": 64,
                        "time": 87.54166666666708,
                        "value": 0
                    },
                    {
                        "number": 64,
                        "time": 87.76666666666708,
                        "value": 1
                    },
                    {
                        "number": 64,
                        "time": 88.50833333333374,
                        "value": 0
                    },
                    {
                        "number": 64,
                        "time": 89.51666666666705,
                        "value": 1
                    },
                    {
                        "number": 64,
                        "time": 90.3750000000004,
                        "value": 0
                    },
                    {
                        "number": 64,
                        "time": 90.58750000000039,
                        "value": 1
                    },
                    {
                        "number": 64,
                        "time": 90.96250000000039,
                        "value": 0
                    },
                    {
                        "number": 64,
                        "time": 91.18750000000038,
                        "value": 1
                    },
                    {
                        "number": 64,
                        "time": 92.13333333333375,
                        "value": 0
                    },
                    {
                        "number": 64,
                        "time": 92.35833333333376,
                        "value": 1
                    },
                    {
                        "number": 64,
                        "time": 92.71250000000042,
                        "value": 0
                    },
                    {
                        "number": 64,
                        "time": 92.93750000000044,
                        "value": 1
                    },
                    {
                        "number": 64,
                        "time": 93.45000000000046,
                        "value": 0
                    },
                    {
                        "number": 64,
                        "time": 94.03750000000045,
                        "value": 1
                    },
                    {
                        "number": 64,
                        "time": 94.41666666666713,
                        "value": 0
                    },
                    {
                        "number": 64,
                        "time": 94.63750000000044,
                        "value": 1
                    },
                    {
                        "number": 64,
                        "time": 95.46666666666712,
                        "value": 0
                    },
                    {
                        "number": 64,
                        "time": 95.81666666666713,
                        "value": 1
                    },
                    {
                        "number": 64,
                        "time": 96.13750000000049,
                        "value": 0
                    },
                    {
                        "number": 64,
                        "time": 96.36666666666717,
                        "value": 1
                    },
                    {
                        "number": 64,
                        "time": 96.87916666666719,
                        "value": 0
                    },
                    {
                        "number": 64,
                        "time": 98.63750000000049,
                        "value": 1
                    },
                    {
                        "number": 64,
                        "time": 99.41666666666715,
                        "value": 0
                    },
                    {
                        "number": 64,
                        "time": 99.8125000000005,
                        "value": 1
                    },
                    {
                        "number": 64,
                        "time": 101.05000000000044,
                        "value": 0
                    },
                    {
                        "number": 64,
                        "time": 101.53750000000046,
                        "value": 1
                    },
                    {
                        "number": 64,
                        "time": 102.77500000000045,
                        "value": 0
                    },
                    {
                        "number": 64,
                        "time": 103.26250000000043,
                        "value": 1
                    },
                    {
                        "number": 64,
                        "time": 104.0916666666671,
                        "value": 0
                    },
                    {
                        "number": 64,
                        "time": 104.97916666666708,
                        "value": 1
                    },
                    {
                        "number": 64,
                        "time": 105.90416666666705,
                        "value": 0
                    },
                    {
                        "number": 64,
                        "time": 106.12916666666706,
                        "value": 1
                    },
                    {
                        "number": 64,
                        "time": 106.47500000000039,
                        "value": 0
                    },
                    {
                        "number": 64,
                        "time": 106.70000000000039,
                        "value": 1
                    },
                    {
                        "number": 64,
                        "time": 107.65416666666704,
                        "value": 0
                    },
                    {
                        "number": 64,
                        "time": 107.87916666666703,
                        "value": 1
                    },
                    {
                        "number": 64,
                        "time": 108.20416666666704,
                        "value": 0
                    },
                    {
                        "number": 64,
                        "time": 108.42916666666704,
                        "value": 1
                    },
                    {
                        "number": 64,
                        "time": 108.82916666666705,
                        "value": 0
                    },
                    {
                        "number": 64,
                        "time": 109.05416666666703,
                        "value": 1
                    },
                    {
                        "number": 64,
                        "time": 109.3583333333337,
                        "value": 0
                    },
                    {
                        "number": 64,
                        "time": 109.57916666666702,
                        "value": 1
                    },
                    {
                        "number": 64,
                        "time": 109.92500000000035,
                        "value": 0
                    },
                    {
                        "number": 64,
                        "time": 110.154166666667,
                        "value": 1
                    },
                    {
                        "number": 64,
                        "time": 111.07500000000032,
                        "value": 0
                    },
                    {
                        "number": 64,
                        "time": 111.30000000000031,
                        "value": 1
                    },
                    {
                        "number": 64,
                        "time": 111.6500000000003,
                        "value": 0
                    },
                    {
                        "number": 64,
                        "time": 111.87500000000031,
                        "value": 1
                    },
                    {
                        "number": 64,
                        "time": 112.41250000000026,
                        "value": 0
                    },
                    {
                        "number": 64,
                        "time": 114.15416666666691,
                        "value": 1
                    },
                    {
                        "number": 64,
                        "time": 114.9333333333336,
                        "value": 0
                    },
                    {
                        "number": 64,
                        "time": 115.32916666666691,
                        "value": 1
                    },
                    {
                        "number": 64,
                        "time": 116.25416666666692,
                        "value": 0
                    },
                    {
                        "number": 64,
                        "time": 116.47916666666691,
                        "value": 1
                    },
                    {
                        "number": 64,
                        "time": 116.87916666666692,
                        "value": 0
                    },
                    {
                        "number": 64,
                        "time": 117.10416666666693,
                        "value": 1
                    },
                    {
                        "number": 64,
                        "time": 117.5958333333336,
                        "value": 0
                    },
                    {
                        "number": 64,
                        "time": 118.81666666666693,
                        "value": 1
                    },
                    {
                        "number": 64,
                        "time": 119.68750000000028,
                        "value": 0
                    },
                    {
                        "number": 64,
                        "time": 119.91666666666696,
                        "value": 1
                    },
                    {
                        "number": 64,
                        "time": 120.27083333333363,
                        "value": 0
                    },
                    {
                        "number": 64,
                        "time": 120.48750000000027,
                        "value": 1
                    },
                    {
                        "number": 64,
                        "time": 121.03750000000026,
                        "value": 0
                    },
                    {
                        "number": 64,
                        "time": 122.26666666666691,
                        "value": 1
                    },
                    {
                        "number": 64,
                        "time": 125.86250000000027,
                        "value": 0
                    }
                ]
            },
            "id": 1,
            "name": "Dedication In A Flat (Widmung) Op. 2 No. 1",
            "instrumentNumber": 0,
            "instrument": "acoustic grand piano",
            "instrumentFamily": "piano",
            "channelNumber": 0,
            "isPercussion": false
        },
        {
            "startTime": 0,
            "duration": 0,
            "length": 0,
            "notes": [],
            "controlChanges": {},
            "id": 2,
            "name": "c/b Schumann"
        },
        {
            "startTime": 0,
            "duration": 0,
            "length": 0,
            "notes": [],
            "controlChanges": {},
            "id": 3,
            "name": "p/b "
        },
        {
            "startTime": 0,
            "duration": 0,
            "length": 0,
            "notes": [],
            "controlChanges": {},
            "id": 4,
            "name": "Meloto # 45185"
        },
        {
            "startTime": 0,
            "duration": 0,
            "length": 0,
            "notes": [],
            "controlChanges": {},
            "id": 5,
            "name": "Scan of a player piano roll"
        },
        {
            "startTime": 0,
            "duration": 0,
            "length": 0,
            "notes": [],
            "controlChanges": {},
            "id": 6
        }
    ]
}