{
    "header": {
        "PPQ": 480,
        "timeSignature": [
            6,
            8
        ],
        "bpm": 160,
        "name": "Abegg-Variationen"
    },
    "startTime": 0,
    "duration": 307.03125000000017,
    "tracks": [
        {
            "startTime": 0,
            "duration": 0,
            "length": 0,
            "notes": [],
            "controlChanges": {},
            "id": 0,
            "name": "Abegg-Variationen"
        },
        {
            "startTime": 0.75,
            "duration": 307.03124999999983,
            "length": 3346,
            "notes": [
                {
                    "name": "A5",
                    "midi": 81,
                    "time": 0.75,
                    "velocity": 0.4409448818897638,
                    "duration": 0.375
                },
                {
                    "name": "A4",
                    "midi": 69,
                    "time": 0.75,
                    "velocity": 0.3543307086614173,
                    "duration": 0.375
                },
                {
                    "name": "A#4",
                    "midi": 70,
                    "time": 1.125,
                    "velocity": 0.3779527559055118,
                    "duration": 0.375
                },
                {
                    "name": "A#5",
                    "midi": 82,
                    "time": 1.125,
                    "velocity": 0.4645669291338583,
                    "duration": 0.375
                },
                {
                    "name": "E5",
                    "midi": 76,
                    "time": 1.5,
                    "velocity": 0.4015748031496063,
                    "duration": 0.375
                },
                {
                    "name": "E6",
                    "midi": 88,
                    "time": 1.5,
                    "velocity": 0.49606299212598426,
                    "duration": 0.375
                },
                {
                    "name": "G5",
                    "midi": 79,
                    "time": 1.875,
                    "velocity": 0.4251968503937008,
                    "duration": 0.375
                },
                {
                    "name": "G6",
                    "midi": 91,
                    "time": 1.875,
                    "velocity": 0.5275590551181102,
                    "duration": 0.375
                },
                {
                    "name": "G6",
                    "midi": 91,
                    "time": 2.25,
                    "velocity": 0.5433070866141733,
                    "duration": 0.75
                },
                {
                    "name": "G5",
                    "midi": 79,
                    "time": 2.25,
                    "velocity": 0.4409448818897638,
                    "duration": 0.75
                },
                {
                    "name": "G#4",
                    "midi": 68,
                    "time": 3,
                    "velocity": 0.4015748031496063,
                    "duration": 0.375
                },
                {
                    "name": "G#5",
                    "midi": 80,
                    "time": 3,
                    "velocity": 0.49606299212598426,
                    "duration": 0.375
                },
                {
                    "name": "A5",
                    "midi": 81,
                    "time": 3.375,
                    "velocity": 0.5433070866141733,
                    "duration": 0.375
                },
                {
                    "name": "A4",
                    "midi": 69,
                    "time": 3.375,
                    "velocity": 0.4409448818897638,
                    "duration": 0.375
                },
                {
                    "name": "C5",
                    "midi": 72,
                    "time": 3.75,
                    "velocity": 0.4015748031496063,
                    "duration": 0.375
                },
                {
                    "name": "C6",
                    "midi": 84,
                    "time": 3.75,
                    "velocity": 0.49606299212598426,
                    "duration": 0.375
                },
                {
                    "name": "F6",
                    "midi": 89,
                    "time": 4.125,
                    "velocity": 0.5354330708661418,
                    "duration": 0.375
                },
                {
                    "name": "F5",
                    "midi": 77,
                    "time": 4.125,
                    "velocity": 0.4330708661417323,
                    "duration": 0.375
                },
                {
                    "name": "F5",
                    "midi": 77,
                    "time": 4.5,
                    "velocity": 0.4330708661417323,
                    "duration": 0.75
                },
                {
                    "name": "F6",
                    "midi": 89,
                    "time": 4.5,
                    "velocity": 0.5354330708661418,
                    "duration": 0.75
                },
                {
                    "name": "F#5",
                    "midi": 78,
                    "time": 5.25,
                    "velocity": 0.4409448818897638,
                    "duration": 0.375
                },
                {
                    "name": "F#4",
                    "midi": 66,
                    "time": 5.25,
                    "velocity": 0.3543307086614173,
                    "duration": 0.375
                },
                {
                    "name": "G4",
                    "midi": 67,
                    "time": 5.625,
                    "velocity": 0.3779527559055118,
                    "duration": 0.375
                },
                {
                    "name": "G5",
                    "midi": 79,
                    "time": 5.625,
                    "velocity": 0.4645669291338583,
                    "duration": 0.375
                },
                {
                    "name": "A#4",
                    "midi": 70,
                    "time": 6,
                    "velocity": 0.4015748031496063,
                    "duration": 0.375
                },
                {
                    "name": "A#5",
                    "midi": 82,
                    "time": 6,
                    "velocity": 0.49606299212598426,
                    "duration": 0.375
                },
                {
                    "name": "D5",
                    "midi": 74,
                    "time": 6.375,
                    "velocity": 0.4251968503937008,
                    "duration": 0.375
                },
                {
                    "name": "D6",
                    "midi": 86,
                    "time": 6.375,
                    "velocity": 0.5275590551181102,
                    "duration": 0.375
                },
                {
                    "name": "D6",
                    "midi": 86,
                    "time": 6.75,
                    "velocity": 0.5433070866141733,
                    "duration": 0.75
                },
                {
                    "name": "D5",
                    "midi": 74,
                    "time": 6.75,
                    "velocity": 0.4409448818897638,
                    "duration": 0.75
                },
                {
                    "name": "E4",
                    "midi": 64,
                    "time": 7.5,
                    "velocity": 0.4015748031496063,
                    "duration": 0.375
                },
                {
                    "name": "E5",
                    "midi": 76,
                    "time": 7.5,
                    "velocity": 0.49606299212598426,
                    "duration": 0.375
                },
                {
                    "name": "F5",
                    "midi": 77,
                    "time": 7.875,
                    "velocity": 0.5433070866141733,
                    "duration": 0.375
                },
                {
                    "name": "F4",
                    "midi": 65,
                    "time": 7.875,
                    "velocity": 0.4409448818897638,
                    "duration": 0.375
                },
                {
                    "name": "A4",
                    "midi": 69,
                    "time": 8.25,
                    "velocity": 0.3700787401574803,
                    "duration": 0.375
                },
                {
                    "name": "A5",
                    "midi": 81,
                    "time": 8.25,
                    "velocity": 0.4566929133858268,
                    "duration": 0.375
                },
                {
                    "name": "C6",
                    "midi": 84,
                    "time": 8.625,
                    "velocity": 0.4566929133858268,
                    "duration": 0.375
                },
                {
                    "name": "C5",
                    "midi": 72,
                    "time": 8.625,
                    "velocity": 0.3700787401574803,
                    "duration": 0.375
                },
                {
                    "name": "C5",
                    "midi": 72,
                    "time": 9,
                    "velocity": 0.3464566929133858,
                    "duration": 0.75
                },
                {
                    "name": "C6",
                    "midi": 84,
                    "time": 9,
                    "velocity": 0.4251968503937008,
                    "duration": 0.75
                },
                {
                    "name": "A4",
                    "midi": 69,
                    "time": 9.703125,
                    "velocity": 0.2992125984251969,
                    "duration": 0.375
                },
                {
                    "name": "A5",
                    "midi": 81,
                    "time": 9.75,
                    "velocity": 0.3543307086614173,
                    "duration": 0.375
                },
                {
                    "name": "A#4",
                    "midi": 70,
                    "time": 10.078125,
                    "velocity": 0.31496062992125984,
                    "duration": 0.375
                },
                {
                    "name": "A#5",
                    "midi": 82,
                    "time": 10.125,
                    "velocity": 0.3779527559055118,
                    "duration": 0.375
                },
                {
                    "name": "E5",
                    "midi": 76,
                    "time": 10.453125,
                    "velocity": 0.33858267716535434,
                    "duration": 0.375
                },
                {
                    "name": "E6",
                    "midi": 88,
                    "time": 10.5,
                    "velocity": 0.4015748031496063,
                    "duration": 0.375
                },
                {
                    "name": "G5",
                    "midi": 79,
                    "time": 10.828125,
                    "velocity": 0.3543307086614173,
                    "duration": 0.375
                },
                {
                    "name": "G6",
                    "midi": 91,
                    "time": 10.875,
                    "velocity": 0.4251968503937008,
                    "duration": 0.375
                },
                {
                    "name": "G5",
                    "midi": 79,
                    "time": 11.203125,
                    "velocity": 0.3700787401574803,
                    "duration": 0.796875
                },
                {
                    "name": "G6",
                    "midi": 91,
                    "time": 11.25,
                    "velocity": 0.4409448818897638,
                    "duration": 0.75
                },
                {
                    "name": "G#4",
                    "midi": 68,
                    "time": 12,
                    "velocity": 0.33858267716535434,
                    "duration": 0.375
                },
                {
                    "name": "G#5",
                    "midi": 80,
                    "time": 12,
                    "velocity": 0.4015748031496063,
                    "duration": 0.375
                },
                {
                    "name": "A5",
                    "midi": 81,
                    "time": 12.375,
                    "velocity": 0.41732283464566927,
                    "duration": 0.375
                },
                {
                    "name": "A4",
                    "midi": 69,
                    "time": 12.375,
                    "velocity": 0.3464566929133858,
                    "duration": 0.375
                },
                {
                    "name": "C5",
                    "midi": 72,
                    "time": 12.75,
                    "velocity": 0.33858267716535434,
                    "duration": 0.375
                },
                {
                    "name": "C6",
                    "midi": 84,
                    "time": 12.75,
                    "velocity": 0.4015748031496063,
                    "duration": 0.375
                },
                {
                    "name": "F6",
                    "midi": 89,
                    "time": 13.125,
                    "velocity": 0.4330708661417323,
                    "duration": 0.375
                },
                {
                    "name": "F5",
                    "midi": 77,
                    "time": 13.125,
                    "velocity": 0.36220472440944884,
                    "duration": 0.375
                },
                {
                    "name": "F5",
                    "midi": 77,
                    "time": 13.5,
                    "velocity": 0.36220472440944884,
                    "duration": 0.75
                },
                {
                    "name": "F6",
                    "midi": 89,
                    "time": 13.5,
                    "velocity": 0.4330708661417323,
                    "duration": 0.75
                },
                {
                    "name": "F#5",
                    "midi": 78,
                    "time": 14.25,
                    "velocity": 0.3543307086614173,
                    "duration": 0.375
                },
                {
                    "name": "F#4",
                    "midi": 66,
                    "time": 14.25,
                    "velocity": 0.2992125984251969,
                    "duration": 0.375
                },
                {
                    "name": "G4",
                    "midi": 67,
                    "time": 14.625,
                    "velocity": 0.31496062992125984,
                    "duration": 0.375
                },
                {
                    "name": "G5",
                    "midi": 79,
                    "time": 14.625,
                    "velocity": 0.3779527559055118,
                    "duration": 0.375
                },
                {
                    "name": "A#4",
                    "midi": 70,
                    "time": 15,
                    "velocity": 0.33858267716535434,
                    "duration": 0.375
                },
                {
                    "name": "A#5",
                    "midi": 82,
                    "time": 15,
                    "velocity": 0.4015748031496063,
                    "duration": 0.375
                },
                {
                    "name": "D5",
                    "midi": 74,
                    "time": 15.375,
                    "velocity": 0.3543307086614173,
                    "duration": 0.375
                },
                {
                    "name": "D6",
                    "midi": 86,
                    "time": 15.375,
                    "velocity": 0.4251968503937008,
                    "duration": 0.375
                },
                {
                    "name": "D6",
                    "midi": 86,
                    "time": 15.75,
                    "velocity": 0.4409448818897638,
                    "duration": 0.75
                },
                {
                    "name": "D5",
                    "midi": 74,
                    "time": 15.75,
                    "velocity": 0.3700787401574803,
                    "duration": 0.75
                },
                {
                    "name": "E4",
                    "midi": 64,
                    "time": 16.5,
                    "velocity": 0.33858267716535434,
                    "duration": 0.375
                },
                {
                    "name": "E5",
                    "midi": 76,
                    "time": 16.5,
                    "velocity": 0.4015748031496063,
                    "duration": 0.375
                },
                {
                    "name": "F5",
                    "midi": 77,
                    "time": 16.875,
                    "velocity": 0.4409448818897638,
                    "duration": 0.375
                },
                {
                    "name": "F4",
                    "midi": 65,
                    "time": 16.875,
                    "velocity": 0.3700787401574803,
                    "duration": 0.375
                },
                {
                    "name": "A4",
                    "midi": 69,
                    "time": 17.25,
                    "velocity": 0.30708661417322836,
                    "duration": 0.375
                },
                {
                    "name": "A5",
                    "midi": 81,
                    "time": 17.25,
                    "velocity": 0.3700787401574803,
                    "duration": 0.375
                },
                {
                    "name": "C6",
                    "midi": 84,
                    "time": 17.625,
                    "velocity": 0.3700787401574803,
                    "duration": 0.375
                },
                {
                    "name": "C5",
                    "midi": 72,
                    "time": 17.625,
                    "velocity": 0.30708661417322836,
                    "duration": 0.375
                },
                {
                    "name": "C5",
                    "midi": 72,
                    "time": 18,
                    "velocity": 0.29133858267716534,
                    "duration": 0.75
                },
                {
                    "name": "C6",
                    "midi": 84,
                    "time": 18,
                    "velocity": 0.3464566929133858,
                    "duration": 0.75
                },
                {
                    "name": "G5",
                    "midi": 79,
                    "time": 18.75,
                    "velocity": 0.41732283464566927,
                    "duration": 0.375
                },
                {
                    "name": "G6",
                    "midi": 91,
                    "time": 18.75,
                    "velocity": 0.5196850393700787,
                    "duration": 0.375
                },
                {
                    "name": "G6",
                    "midi": 91,
                    "time": 19.125,
                    "velocity": 0.5669291338582677,
                    "duration": 0.375
                },
                {
                    "name": "G5",
                    "midi": 79,
                    "time": 19.125,
                    "velocity": 0.4566929133858268,
                    "duration": 0.375
                },
                {
                    "name": "E5",
                    "midi": 76,
                    "time": 19.5,
                    "velocity": 0.41732283464566927,
                    "duration": 0.375
                },
                {
                    "name": "E6",
                    "midi": 88,
                    "time": 19.5,
                    "velocity": 0.5196850393700787,
                    "duration": 0.375
                },
                {
                    "name": "A#5",
                    "midi": 82,
                    "time": 19.875,
                    "velocity": 0.5354330708661418,
                    "duration": 0.375
                },
                {
                    "name": "A#4",
                    "midi": 70,
                    "time": 19.875,
                    "velocity": 0.4330708661417323,
                    "duration": 0.375
                },
                {
                    "name": "A4",
                    "midi": 69,
                    "time": 20.25,
                    "velocity": 0.4330708661417323,
                    "duration": 0.75
                },
                {
                    "name": "A5",
                    "midi": 81,
                    "time": 20.25,
                    "velocity": 0.5433070866141733,
                    "duration": 0.75
                },
                {
                    "name": "A5",
                    "midi": 81,
                    "time": 21,
                    "velocity": 0.4330708661417323,
                    "duration": 0.375
                },
                {
                    "name": "A6",
                    "midi": 93,
                    "time": 21,
                    "velocity": 0.5433070866141733,
                    "duration": 0.375
                },
                {
                    "name": "A6",
                    "midi": 93,
                    "time": 21.375,
                    "velocity": 0.5905511811023622,
                    "duration": 0.375
                },
                {
                    "name": "A5",
                    "midi": 81,
                    "time": 21.375,
                    "velocity": 0.47244094488188976,
                    "duration": 0.375
                },
                {
                    "name": "F5",
                    "midi": 77,
                    "time": 21.75,
                    "velocity": 0.4330708661417323,
                    "duration": 0.375
                },
                {
                    "name": "F6",
                    "midi": 89,
                    "time": 21.75,
                    "velocity": 0.5433070866141733,
                    "duration": 0.375
                },
                {
                    "name": "D6",
                    "midi": 86,
                    "time": 22.125,
                    "velocity": 0.5826771653543307,
                    "duration": 0.375
                },
                {
                    "name": "D5",
                    "midi": 74,
                    "time": 22.125,
                    "velocity": 0.4645669291338583,
                    "duration": 0.375
                },
                {
                    "name": "C5",
                    "midi": 72,
                    "time": 22.5,
                    "velocity": 0.44881889763779526,
                    "duration": 0.75
                },
                {
                    "name": "C6",
                    "midi": 84,
                    "time": 22.5,
                    "velocity": 0.5669291338582677,
                    "duration": 0.75
                },
                {
                    "name": "C6",
                    "midi": 84,
                    "time": 23.25,
                    "velocity": 0.44881889763779526,
                    "duration": 0.375
                },
                {
                    "name": "C7",
                    "midi": 96,
                    "time": 23.25,
                    "velocity": 0.5669291338582677,
                    "duration": 0.375
                },
                {
                    "name": "C7",
                    "midi": 96,
                    "time": 23.625,
                    "velocity": 0.6220472440944882,
                    "duration": 0.375
                },
                {
                    "name": "C6",
                    "midi": 84,
                    "time": 23.625,
                    "velocity": 0.5039370078740157,
                    "duration": 0.375
                },
                {
                    "name": "A5",
                    "midi": 81,
                    "time": 24,
                    "velocity": 0.47244094488188976,
                    "duration": 0.375
                },
                {
                    "name": "A6",
                    "midi": 93,
                    "time": 24,
                    "velocity": 0.5905511811023622,
                    "duration": 0.375
                },
                {
                    "name": "F6",
                    "midi": 89,
                    "time": 24.375,
                    "velocity": 0.6062992125984252,
                    "duration": 0.375
                },
                {
                    "name": "F5",
                    "midi": 77,
                    "time": 24.375,
                    "velocity": 0.49606299212598426,
                    "duration": 0.375
                },
                {
                    "name": "D5",
                    "midi": 74,
                    "time": 24.75,
                    "velocity": 0.5275590551181102,
                    "duration": 0.75
                },
                {
                    "name": "D6",
                    "midi": 86,
                    "time": 24.75,
                    "velocity": 0.6535433070866141,
                    "duration": 0.75
                },
                {
                    "name": "D6",
                    "midi": 86,
                    "time": 25.5,
                    "velocity": 0.4330708661417323,
                    "duration": 0.375
                },
                {
                    "name": "D7",
                    "midi": 98,
                    "time": 25.5,
                    "velocity": 0.5354330708661418,
                    "duration": 0.375
                },
                {
                    "name": "D7",
                    "midi": 98,
                    "time": 25.875,
                    "velocity": 0.5748031496062992,
                    "duration": 0.375
                },
                {
                    "name": "D6",
                    "midi": 86,
                    "time": 25.875,
                    "velocity": 0.4645669291338583,
                    "duration": 0.375
                },
                {
                    "name": "A#5",
                    "midi": 82,
                    "time": 26.25,
                    "velocity": 0.4094488188976378,
                    "duration": 0.375
                },
                {
                    "name": "A#6",
                    "midi": 94,
                    "time": 26.25,
                    "velocity": 0.5118110236220472,
                    "duration": 0.375
                },
                {
                    "name": "G6",
                    "midi": 91,
                    "time": 26.625,
                    "velocity": 0.5433070866141733,
                    "duration": 0.375
                },
                {
                    "name": "G5",
                    "midi": 79,
                    "time": 26.625,
                    "velocity": 0.4330708661417323,
                    "duration": 0.375
                },
                {
                    "name": "F5",
                    "midi": 77,
                    "time": 27,
                    "velocity": 0.4094488188976378,
                    "duration": 0.75
                },
                {
                    "name": "F6",
                    "midi": 89,
                    "time": 27,
                    "velocity": 0.5118110236220472,
                    "duration": 0.75
                },
                {
                    "name": "G5",
                    "midi": 79,
                    "time": 27.703125,
                    "velocity": 0.3464566929133858,
                    "duration": 0.375
                },
                {
                    "name": "G6",
                    "midi": 91,
                    "time": 27.75,
                    "velocity": 0.3858267716535433,
                    "duration": 0.375
                },
                {
                    "name": "G5",
                    "midi": 79,
                    "time": 28.078125,
                    "velocity": 0.33858267716535434,
                    "duration": 0.375
                },
                {
                    "name": "G6",
                    "midi": 91,
                    "time": 28.125,
                    "velocity": 0.4251968503937008,
                    "duration": 0.375
                },
                {
                    "name": "E5",
                    "midi": 76,
                    "time": 28.453125,
                    "velocity": 0.30708661417322836,
                    "duration": 0.375
                },
                {
                    "name": "E6",
                    "midi": 88,
                    "time": 28.5,
                    "velocity": 0.3858267716535433,
                    "duration": 0.375
                },
                {
                    "name": "A#4",
                    "midi": 70,
                    "time": 28.828125,
                    "velocity": 0.33858267716535434,
                    "duration": 0.375
                },
                {
                    "name": "A#5",
                    "midi": 82,
                    "time": 28.875,
                    "velocity": 0.41732283464566927,
                    "duration": 0.375
                },
                {
                    "name": "A4",
                    "midi": 69,
                    "time": 29.203125,
                    "velocity": 0.33858267716535434,
                    "duration": 0.796875
                },
                {
                    "name": "A5",
                    "midi": 81,
                    "time": 29.25,
                    "velocity": 0.41732283464566927,
                    "duration": 0.75
                },
                {
                    "name": "A5",
                    "midi": 81,
                    "time": 30,
                    "velocity": 0.3464566929133858,
                    "duration": 0.375
                },
                {
                    "name": "A6",
                    "midi": 93,
                    "time": 30,
                    "velocity": 0.4330708661417323,
                    "duration": 0.375
                },
                {
                    "name": "A6",
                    "midi": 93,
                    "time": 30.375,
                    "velocity": 0.47244094488188976,
                    "duration": 0.375
                },
                {
                    "name": "A5",
                    "midi": 81,
                    "time": 30.375,
                    "velocity": 0.3779527559055118,
                    "duration": 0.375
                },
                {
                    "name": "F5",
                    "midi": 77,
                    "time": 30.75,
                    "velocity": 0.3543307086614173,
                    "duration": 0.375
                },
                {
                    "name": "F6",
                    "midi": 89,
                    "time": 30.75,
                    "velocity": 0.4409448818897638,
                    "duration": 0.375
                },
                {
                    "name": "D6",
                    "midi": 86,
                    "time": 31.125,
                    "velocity": 0.48031496062992124,
                    "duration": 0.375
                },
                {
                    "name": "D5",
                    "midi": 74,
                    "time": 31.125,
                    "velocity": 0.3937007874015748,
                    "duration": 0.375
                },
                {
                    "name": "C5",
                    "midi": 72,
                    "time": 31.5,
                    "velocity": 0.3937007874015748,
                    "duration": 0.75
                },
                {
                    "name": "C6",
                    "midi": 84,
                    "time": 31.5,
                    "velocity": 0.4881889763779528,
                    "duration": 0.75
                },
                {
                    "name": "C6",
                    "midi": 84,
                    "time": 32.25,
                    "velocity": 0.3937007874015748,
                    "duration": 0.375
                },
                {
                    "name": "C7",
                    "midi": 96,
                    "time": 32.25,
                    "velocity": 0.4881889763779528,
                    "duration": 0.375
                },
                {
                    "name": "C7",
                    "midi": 96,
                    "time": 32.625,
                    "velocity": 0.5433070866141733,
                    "duration": 0.375
                },
                {
                    "name": "C6",
                    "midi": 84,
                    "time": 32.625,
                    "velocity": 0.4409448818897638,
                    "duration": 0.375
                },
                {
                    "name": "A5",
                    "midi": 81,
                    "time": 33,
                    "velocity": 0.4094488188976378,
                    "duration": 0.375
                },
                {
                    "name": "A6",
                    "midi": 93,
                    "time": 33,
                    "velocity": 0.5196850393700787,
                    "duration": 0.375
                },
                {
                    "name": "F6",
                    "midi": 89,
                    "time": 33.375,
                    "velocity": 0.5275590551181102,
                    "duration": 0.375
                },
                {
                    "name": "F5",
                    "midi": 77,
                    "time": 33.375,
                    "velocity": 0.4330708661417323,
                    "duration": 0.375
                },
                {
                    "name": "D5",
                    "midi": 74,
                    "time": 33.75,
                    "velocity": 0.47244094488188976,
                    "duration": 0.75
                },
                {
                    "name": "D6",
                    "midi": 86,
                    "time": 33.75,
                    "velocity": 0.5826771653543307,
                    "duration": 0.75
                },
                {
                    "name": "D6",
                    "midi": 86,
                    "time": 34.5,
                    "velocity": 0.3779527559055118,
                    "duration": 0.375
                },
                {
                    "name": "D7",
                    "midi": 98,
                    "time": 34.5,
                    "velocity": 0.47244094488188976,
                    "duration": 0.375
                },
                {
                    "name": "D7",
                    "midi": 98,
                    "time": 34.875,
                    "velocity": 0.5039370078740157,
                    "duration": 0.375
                },
                {
                    "name": "D6",
                    "midi": 86,
                    "time": 34.875,
                    "velocity": 0.4094488188976378,
                    "duration": 0.375
                },
                {
                    "name": "A#5",
                    "midi": 82,
                    "time": 35.25,
                    "velocity": 0.33858267716535434,
                    "duration": 0.375
                },
                {
                    "name": "A#6",
                    "midi": 94,
                    "time": 35.25,
                    "velocity": 0.4251968503937008,
                    "duration": 0.375
                },
                {
                    "name": "G6",
                    "midi": 91,
                    "time": 35.625,
                    "velocity": 0.4251968503937008,
                    "duration": 0.375
                },
                {
                    "name": "G5",
                    "midi": 79,
                    "time": 35.625,
                    "velocity": 0.33858267716535434,
                    "duration": 0.375
                },
                {
                    "name": "F5",
                    "midi": 77,
                    "time": 36,
                    "velocity": 0.31496062992125984,
                    "duration": 0.375
                },
                {
                    "name": "F6",
                    "midi": 89,
                    "time": 36,
                    "velocity": 0.3937007874015748,
                    "duration": 0.375
                },
                {
                    "name": "A3",
                    "midi": 57,
                    "time": 36.421875,
                    "velocity": 0.2204724409448819,
                    "duration": 0.328125
                },
                {
                    "name": "C4",
                    "midi": 60,
                    "time": 36.4453125,
                    "velocity": 0.2204724409448819,
                    "duration": 0.28125
                },
                {
                    "name": "F4",
                    "midi": 65,
                    "time": 36.46875,
                    "velocity": 0.2677165354330709,
                    "duration": 0.28125
                },
                {
                    "name": "A3",
                    "midi": 57,
                    "time": 38.0625,
                    "velocity": 0.5433070866141733,
                    "duration": 0.1875
                },
                {
                    "name": "D#3",
                    "midi": 51,
                    "time": 38.0625,
                    "velocity": 0.4566929133858268,
                    "duration": 0.1875
                },
                {
                    "name": "C3",
                    "midi": 48,
                    "time": 38.0625,
                    "velocity": 0.4566929133858268,
                    "duration": 0.1875
                },
                {
                    "name": "C3",
                    "midi": 48,
                    "time": 38.25,
                    "velocity": 0.5039370078740157,
                    "duration": 0.1875
                },
                {
                    "name": "E3",
                    "midi": 52,
                    "time": 38.25,
                    "velocity": 0.5039370078740157,
                    "duration": 0.1875
                },
                {
                    "name": "A#3",
                    "midi": 58,
                    "time": 38.25,
                    "velocity": 0.5905511811023622,
                    "duration": 0.1875
                },
                {
                    "name": "C4",
                    "midi": 60,
                    "time": 38.4375,
                    "velocity": 0.4645669291338583,
                    "duration": 0.1875
                },
                {
                    "name": "A4",
                    "midi": 69,
                    "time": 38.4375,
                    "velocity": 0.5590551181102362,
                    "duration": 0.1875
                },
                {
                    "name": "D#4",
                    "midi": 63,
                    "time": 38.4375,
                    "velocity": 0.4645669291338583,
                    "duration": 0.1875
                },
                {
                    "name": "E4",
                    "midi": 64,
                    "time": 38.625,
                    "velocity": 0.5039370078740157,
                    "duration": 0.1875
                },
                {
                    "name": "C4",
                    "midi": 60,
                    "time": 38.625,
                    "velocity": 0.5039370078740157,
                    "duration": 0.1875
                },
                {
                    "name": "A#4",
                    "midi": 70,
                    "time": 38.625,
                    "velocity": 0.5984251968503937,
                    "duration": 0.1875
                },
                {
                    "name": "D#5",
                    "midi": 75,
                    "time": 38.8125,
                    "velocity": 0.47244094488188976,
                    "duration": 0.1875
                },
                {
                    "name": "C5",
                    "midi": 72,
                    "time": 38.8125,
                    "velocity": 0.47244094488188976,
                    "duration": 0.1875
                },
                {
                    "name": "A5",
                    "midi": 81,
                    "time": 38.8125,
                    "velocity": 0.5669291338582677,
                    "duration": 0.1875
                },
                {
                    "name": "E5",
                    "midi": 76,
                    "time": 39,
                    "velocity": 0.5118110236220472,
                    "duration": 0.1875
                },
                {
                    "name": "A#5",
                    "midi": 82,
                    "time": 39,
                    "velocity": 0.6062992125984252,
                    "duration": 0.1875
                },
                {
                    "name": "C5",
                    "midi": 72,
                    "time": 39,
                    "velocity": 0.5118110236220472,
                    "duration": 0.1875
                },
                {
                    "name": "A6",
                    "midi": 93,
                    "time": 39.1875,
                    "velocity": 0.5826771653543307,
                    "duration": 0.1875
                },
                {
                    "name": "C6",
                    "midi": 84,
                    "time": 39.1875,
                    "velocity": 0.49606299212598426,
                    "duration": 0.1875
                },
                {
                    "name": "D#6",
                    "midi": 87,
                    "time": 39.1875,
                    "velocity": 0.49606299212598426,
                    "duration": 0.1875
                },
                {
                    "name": "C6",
                    "midi": 84,
                    "time": 39.375,
                    "velocity": 0.5196850393700787,
                    "duration": 0.09375
                },
                {
                    "name": "A#6",
                    "midi": 94,
                    "time": 39.46875,
                    "velocity": 0.5748031496062992,
                    "duration": 0.09375
                },
                {
                    "name": "G6",
                    "midi": 91,
                    "time": 39.5625,
                    "velocity": 0.5039370078740157,
                    "duration": 0.09375
                },
                {
                    "name": "C7",
                    "midi": 96,
                    "time": 39.5625,
                    "velocity": 0.5905511811023622,
                    "duration": 0.1875
                },
                {
                    "name": "E6",
                    "midi": 88,
                    "time": 39.65625,
                    "velocity": 0.5748031496062992,
                    "duration": 0.09375
                },
                {
                    "name": "C6",
                    "midi": 84,
                    "time": 39.75,
                    "velocity": 0.5905511811023622,
                    "duration": 0.09375
                },
                {
                    "name": "A#5",
                    "midi": 82,
                    "time": 39.84375,
                    "velocity": 0.5826771653543307,
                    "duration": 0.09375
                },
                {
                    "name": "G5",
                    "midi": 79,
                    "time": 39.9375,
                    "velocity": 0.5669291338582677,
                    "duration": 0.09375
                },
                {
                    "name": "E5",
                    "midi": 76,
                    "time": 40.03125,
                    "velocity": 0.5590551181102362,
                    "duration": 0.09375
                },
                {
                    "name": "C5",
                    "midi": 72,
                    "time": 40.125,
                    "velocity": 0.5433070866141733,
                    "duration": 0.1875
                },
                {
                    "name": "D3",
                    "midi": 50,
                    "time": 40.3125,
                    "velocity": 0.4566929133858268,
                    "duration": 0.1875
                },
                {
                    "name": "F3",
                    "midi": 53,
                    "time": 40.3125,
                    "velocity": 0.4566929133858268,
                    "duration": 0.1875
                },
                {
                    "name": "B3",
                    "midi": 59,
                    "time": 40.3125,
                    "velocity": 0.5433070866141733,
                    "duration": 0.1875
                },
                {
                    "name": "C3",
                    "midi": 48,
                    "time": 40.5,
                    "velocity": 0.5039370078740157,
                    "duration": 0.1875
                },
                {
                    "name": "C4",
                    "midi": 60,
                    "time": 40.5,
                    "velocity": 0.5905511811023622,
                    "duration": 0.1875
                },
                {
                    "name": "F3",
                    "midi": 53,
                    "time": 40.5,
                    "velocity": 0.5039370078740157,
                    "duration": 0.1875
                },
                {
                    "name": "F4",
                    "midi": 65,
                    "time": 40.6875,
                    "velocity": 0.4645669291338583,
                    "duration": 0.1875
                },
                {
                    "name": "D4",
                    "midi": 62,
                    "time": 40.6875,
                    "velocity": 0.4645669291338583,
                    "duration": 0.1875
                },
                {
                    "name": "B4",
                    "midi": 71,
                    "time": 40.6875,
                    "velocity": 0.5590551181102362,
                    "duration": 0.1875
                },
                {
                    "name": "F4",
                    "midi": 65,
                    "time": 40.875,
                    "velocity": 0.5039370078740157,
                    "duration": 0.1875
                },
                {
                    "name": "C4",
                    "midi": 60,
                    "time": 40.875,
                    "velocity": 0.5039370078740157,
                    "duration": 0.1875
                },
                {
                    "name": "C5",
                    "midi": 72,
                    "time": 40.875,
                    "velocity": 0.5984251968503937,
                    "duration": 0.1875
                },
                {
                    "name": "F5",
                    "midi": 77,
                    "time": 41.0625,
                    "velocity": 0.47244094488188976,
                    "duration": 0.1875
                },
                {
                    "name": "B5",
                    "midi": 83,
                    "time": 41.0625,
                    "velocity": 0.5669291338582677,
                    "duration": 0.1875
                },
                {
                    "name": "D5",
                    "midi": 74,
                    "time": 41.0625,
                    "velocity": 0.47244094488188976,
                    "duration": 0.1875
                },
                {
                    "name": "C6",
                    "midi": 84,
                    "time": 41.25,
                    "velocity": 0.6062992125984252,
                    "duration": 0.1875
                },
                {
                    "name": "C5",
                    "midi": 72,
                    "time": 41.25,
                    "velocity": 0.5118110236220472,
                    "duration": 0.1875
                },
                {
                    "name": "F5",
                    "midi": 77,
                    "time": 41.25,
                    "velocity": 0.5118110236220472,
                    "duration": 0.1875
                },
                {
                    "name": "B6",
                    "midi": 95,
                    "time": 41.4375,
                    "velocity": 0.5826771653543307,
                    "duration": 0.1875
                },
                {
                    "name": "D6",
                    "midi": 86,
                    "time": 41.4375,
                    "velocity": 0.49606299212598426,
                    "duration": 0.1875
                },
                {
                    "name": "F6",
                    "midi": 89,
                    "time": 41.4375,
                    "velocity": 0.49606299212598426,
                    "duration": 0.1875
                },
                {
                    "name": "C6",
                    "midi": 84,
                    "time": 41.625,
                    "velocity": 0.5196850393700787,
                    "duration": 0.09375
                },
                {
                    "name": "F7",
                    "midi": 101,
                    "time": 41.71875,
                    "velocity": 0.6062992125984252,
                    "duration": 0.09375
                },
                {
                    "name": "C7",
                    "midi": 96,
                    "time": 41.8125,
                    "velocity": 0.5905511811023622,
                    "duration": 0.1875
                },
                {
                    "name": "A6",
                    "midi": 93,
                    "time": 41.90625,
                    "velocity": 0.5748031496062992,
                    "duration": 0.09375
                },
                {
                    "name": "F6",
                    "midi": 89,
                    "time": 42,
                    "velocity": 0.5984251968503937,
                    "duration": 0.09375
                },
                {
                    "name": "C6",
                    "midi": 84,
                    "time": 42.09375,
                    "velocity": 0.5748031496062992,
                    "duration": 0.09375
                },
                {
                    "name": "A5",
                    "midi": 81,
                    "time": 42.1875,
                    "velocity": 0.5590551181102362,
                    "duration": 0.09375
                },
                {
                    "name": "F5",
                    "midi": 77,
                    "time": 42.28125,
                    "velocity": 0.5433070866141733,
                    "duration": 0.09375
                },
                {
                    "name": "F#5",
                    "midi": 78,
                    "time": 42.375,
                    "velocity": 0.5275590551181102,
                    "duration": 0.09375
                },
                {
                    "name": "A5",
                    "midi": 81,
                    "time": 42.46875,
                    "velocity": 0.49606299212598426,
                    "duration": 0.28125
                },
                {
                    "name": "C6",
                    "midi": 84,
                    "time": 42.5625,
                    "velocity": 0.44881889763779526,
                    "duration": 0.09375
                },
                {
                    "name": "D#6",
                    "midi": 87,
                    "time": 42.65625,
                    "velocity": 0.4251968503937008,
                    "duration": 0.1875
                },
                {
                    "name": "G5",
                    "midi": 79,
                    "time": 42.75,
                    "velocity": 0.4409448818897638,
                    "duration": 0.46875
                },
                {
                    "name": "D6",
                    "midi": 86,
                    "time": 42.84375,
                    "velocity": 0.3779527559055118,
                    "duration": 0.09375
                },
                {
                    "name": "C#6",
                    "midi": 85,
                    "time": 42.9375,
                    "velocity": 0.3779527559055118,
                    "duration": 0.09375
                },
                {
                    "name": "D6",
                    "midi": 86,
                    "time": 43.03125,
                    "velocity": 0.3779527559055118,
                    "duration": 0.09375
                },
                {
                    "name": "G6",
                    "midi": 91,
                    "time": 43.125,
                    "velocity": 0.4251968503937008,
                    "duration": 0.171875
                },
                {
                    "name": "G#5",
                    "midi": 80,
                    "time": 43.21875,
                    "velocity": 0.3700787401574803,
                    "duration": 0.109375
                },
                {
                    "name": "G6",
                    "midi": 91,
                    "time": 43.3125,
                    "velocity": 0.4251968503937008,
                    "duration": 0.171875
                },
                {
                    "name": "A5",
                    "midi": 81,
                    "time": 43.3125,
                    "velocity": 0.3700787401574803,
                    "duration": 0.109375
                },
                {
                    "name": "A#5",
                    "midi": 82,
                    "time": 43.40625,
                    "velocity": 0.3700787401574803,
                    "duration": 0.109375
                },
                {
                    "name": "B5",
                    "midi": 83,
                    "time": 43.5,
                    "velocity": 0.3700787401574803,
                    "duration": 0.109375
                },
                {
                    "name": "G6",
                    "midi": 91,
                    "time": 43.5,
                    "velocity": 0.4251968503937008,
                    "duration": 0.171875
                },
                {
                    "name": "C6",
                    "midi": 84,
                    "time": 43.59375,
                    "velocity": 0.3779527559055118,
                    "duration": 0.109375
                },
                {
                    "name": "C#6",
                    "midi": 85,
                    "time": 43.6875,
                    "velocity": 0.3858267716535433,
                    "duration": 0.109375
                },
                {
                    "name": "G6",
                    "midi": 91,
                    "time": 43.6875,
                    "velocity": 0.4409448818897638,
                    "duration": 0.171875
                },
                {
                    "name": "D6",
                    "midi": 86,
                    "time": 43.78125,
                    "velocity": 0.3937007874015748,
                    "duration": 0.109375
                },
                {
                    "name": "F6",
                    "midi": 89,
                    "time": 43.875,
                    "velocity": 0.3858267716535433,
                    "duration": 0.109375
                },
                {
                    "name": "G6",
                    "midi": 91,
                    "time": 43.875,
                    "velocity": 0.4409448818897638,
                    "duration": 0.171875
                },
                {
                    "name": "E6",
                    "midi": 88,
                    "time": 43.96875,
                    "velocity": 0.3858267716535433,
                    "duration": 0.109375
                },
                {
                    "name": "G6",
                    "midi": 91,
                    "time": 44.0625,
                    "velocity": 0.4409448818897638,
                    "duration": 0.171875
                },
                {
                    "name": "D#6",
                    "midi": 87,
                    "time": 44.0625,
                    "velocity": 0.3937007874015748,
                    "duration": 0.109375
                },
                {
                    "name": "E6",
                    "midi": 88,
                    "time": 44.15625,
                    "velocity": 0.3858267716535433,
                    "duration": 0.109375
                },
                {
                    "name": "C6",
                    "midi": 84,
                    "time": 44.25,
                    "velocity": 0.3937007874015748,
                    "duration": 0.109375
                },
                {
                    "name": "C7",
                    "midi": 96,
                    "time": 44.25,
                    "velocity": 0.4409448818897638,
                    "duration": 0.171875
                },
                {
                    "name": "C#6",
                    "midi": 85,
                    "time": 44.34375,
                    "velocity": 0.4015748031496063,
                    "duration": 0.109375
                },
                {
                    "name": "C7",
                    "midi": 96,
                    "time": 44.4375,
                    "velocity": 0.4409448818897638,
                    "duration": 0.171875
                },
                {
                    "name": "D6",
                    "midi": 86,
                    "time": 44.4375,
                    "velocity": 0.3937007874015748,
                    "duration": 0.109375
                },
                {
                    "name": "D#6",
                    "midi": 87,
                    "time": 44.53125,
                    "velocity": 0.4015748031496063,
                    "duration": 0.109375
                },
                {
                    "name": "C7",
                    "midi": 96,
                    "time": 44.625,
                    "velocity": 0.4566929133858268,
                    "duration": 0.171875
                },
                {
                    "name": "E6",
                    "midi": 88,
                    "time": 44.625,
                    "velocity": 0.4015748031496063,
                    "duration": 0.109375
                },
                {
                    "name": "F6",
                    "midi": 89,
                    "time": 44.71875,
                    "velocity": 0.41732283464566927,
                    "duration": 0.109375
                },
                {
                    "name": "F#6",
                    "midi": 90,
                    "time": 44.8125,
                    "velocity": 0.41732283464566927,
                    "duration": 0.109375
                },
                {
                    "name": "C7",
                    "midi": 96,
                    "time": 44.8125,
                    "velocity": 0.47244094488188976,
                    "duration": 0.171875
                },
                {
                    "name": "G6",
                    "midi": 91,
                    "time": 44.90625,
                    "velocity": 0.4330708661417323,
                    "duration": 0.109375
                },
                {
                    "name": "A#6",
                    "midi": 94,
                    "time": 45,
                    "velocity": 0.4251968503937008,
                    "duration": 0.109375
                },
                {
                    "name": "C7",
                    "midi": 96,
                    "time": 45,
                    "velocity": 0.48031496062992124,
                    "duration": 0.171875
                },
                {
                    "name": "A6",
                    "midi": 93,
                    "time": 45.09375,
                    "velocity": 0.4409448818897638,
                    "duration": 0.109375
                },
                {
                    "name": "G#6",
                    "midi": 92,
                    "time": 45.1875,
                    "velocity": 0.4409448818897638,
                    "duration": 0.109375
                },
                {
                    "name": "C7",
                    "midi": 96,
                    "time": 45.1875,
                    "velocity": 0.5118110236220472,
                    "duration": 0.171875
                },
                {
                    "name": "A6",
                    "midi": 93,
                    "time": 45.28125,
                    "velocity": 0.44881889763779526,
                    "duration": 0.109375
                },
                {
                    "name": "F7",
                    "midi": 101,
                    "time": 45.375,
                    "velocity": 0.5118110236220472,
                    "duration": 0.171875
                },
                {
                    "name": "F6",
                    "midi": 89,
                    "time": 45.375,
                    "velocity": 0.4409448818897638,
                    "duration": 0.109375
                },
                {
                    "name": "F#6",
                    "midi": 90,
                    "time": 45.46875,
                    "velocity": 0.4409448818897638,
                    "duration": 0.109375
                },
                {
                    "name": "G6",
                    "midi": 91,
                    "time": 45.5625,
                    "velocity": 0.44881889763779526,
                    "duration": 0.109375
                },
                {
                    "name": "F7",
                    "midi": 101,
                    "time": 45.5625,
                    "velocity": 0.5275590551181102,
                    "duration": 0.171875
                },
                {
                    "name": "G#6",
                    "midi": 92,
                    "time": 45.65625,
                    "velocity": 0.44881889763779526,
                    "duration": 0.109375
                },
                {
                    "name": "F7",
                    "midi": 101,
                    "time": 45.75,
                    "velocity": 0.5275590551181102,
                    "duration": 0.171875
                },
                {
                    "name": "A6",
                    "midi": 93,
                    "time": 45.75,
                    "velocity": 0.44881889763779526,
                    "duration": 0.109375
                },
                {
                    "name": "A#6",
                    "midi": 94,
                    "time": 45.84375,
                    "velocity": 0.4566929133858268,
                    "duration": 0.109375
                },
                {
                    "name": "F7",
                    "midi": 101,
                    "time": 45.9375,
                    "velocity": 0.5433070866141733,
                    "duration": 0.171875
                },
                {
                    "name": "B6",
                    "midi": 95,
                    "time": 45.9375,
                    "velocity": 0.4645669291338583,
                    "duration": 0.109375
                },
                {
                    "name": "D7",
                    "midi": 98,
                    "time": 46.03125,
                    "velocity": 0.47244094488188976,
                    "duration": 0.109375
                },
                {
                    "name": "E7",
                    "midi": 100,
                    "time": 46.125,
                    "velocity": 0.5433070866141733,
                    "duration": 0.1875
                },
                {
                    "name": "C7",
                    "midi": 96,
                    "time": 46.125,
                    "velocity": 0.5433070866141733,
                    "duration": 0.1875
                },
                {
                    "name": "C5",
                    "midi": 72,
                    "time": 46.3125,
                    "velocity": 0.3700787401574803,
                    "duration": 0.09375
                },
                {
                    "name": "E5",
                    "midi": 76,
                    "time": 46.40625,
                    "velocity": 0.4094488188976378,
                    "duration": 0.09375
                },
                {
                    "name": "G5",
                    "midi": 79,
                    "time": 46.5,
                    "velocity": 0.4409448818897638,
                    "duration": 0.09375
                },
                {
                    "name": "C6",
                    "midi": 84,
                    "time": 46.59375,
                    "velocity": 0.4251968503937008,
                    "duration": 0.09375
                },
                {
                    "name": "E6",
                    "midi": 88,
                    "time": 46.6875,
                    "velocity": 0.4094488188976378,
                    "duration": 0.09375
                },
                {
                    "name": "G6",
                    "midi": 91,
                    "time": 46.78125,
                    "velocity": 0.3937007874015748,
                    "duration": 0.09375
                },
                {
                    "name": "F#6",
                    "midi": 90,
                    "time": 46.875,
                    "velocity": 0.4094488188976378,
                    "duration": 0.09375
                },
                {
                    "name": "D#7",
                    "midi": 99,
                    "time": 46.96875,
                    "velocity": 0.4330708661417323,
                    "duration": 0.09375
                },
                {
                    "name": "D#6",
                    "midi": 87,
                    "time": 47.0625,
                    "velocity": 0.3543307086614173,
                    "duration": 0.09375
                },
                {
                    "name": "C7",
                    "midi": 96,
                    "time": 47.15625,
                    "velocity": 0.4094488188976378,
                    "duration": 0.09375
                },
                {
                    "name": "G6",
                    "midi": 91,
                    "time": 47.25,
                    "velocity": 0.3543307086614173,
                    "duration": 0.09375
                },
                {
                    "name": "E7",
                    "midi": 100,
                    "time": 47.34375,
                    "velocity": 0.30708661417322836,
                    "duration": 0.09375
                },
                {
                    "name": "E6",
                    "midi": 88,
                    "time": 47.4375,
                    "velocity": 0.31496062992125984,
                    "duration": 0.0703125
                },
                {
                    "name": "E6",
                    "midi": 88,
                    "time": 47.53125,
                    "velocity": 0.31496062992125984,
                    "duration": 0.0703125
                },
                {
                    "name": "C7",
                    "midi": 96,
                    "time": 47.625,
                    "velocity": 0.3779527559055118,
                    "duration": 0.09375
                },
                {
                    "name": "C6",
                    "midi": 84,
                    "time": 47.71875,
                    "velocity": 0.3228346456692913,
                    "duration": 0.0703125
                },
                {
                    "name": "C6",
                    "midi": 84,
                    "time": 47.8125,
                    "velocity": 0.3228346456692913,
                    "duration": 0.09375
                },
                {
                    "name": "G6",
                    "midi": 91,
                    "time": 47.90625,
                    "velocity": 0.33070866141732286,
                    "duration": 0.0703125
                },
                {
                    "name": "G5",
                    "midi": 79,
                    "time": 48,
                    "velocity": 0.4015748031496063,
                    "duration": 0.0703125
                },
                {
                    "name": "G5",
                    "midi": 79,
                    "time": 48.09375,
                    "velocity": 0.33858267716535434,
                    "duration": 0.09375
                },
                {
                    "name": "E6",
                    "midi": 88,
                    "time": 48.1875,
                    "velocity": 0.3543307086614173,
                    "duration": 0.09375
                },
                {
                    "name": "E5",
                    "midi": 76,
                    "time": 48.28125,
                    "velocity": 0.3543307086614173,
                    "duration": 0.0703125
                },
                {
                    "name": "E5",
                    "midi": 76,
                    "time": 48.375,
                    "velocity": 0.4251968503937008,
                    "duration": 0.09375
                },
                {
                    "name": "C6",
                    "midi": 84,
                    "time": 48.46875,
                    "velocity": 0.3779527559055118,
                    "duration": 0.09375
                },
                {
                    "name": "C5",
                    "midi": 72,
                    "time": 48.5625,
                    "velocity": 0.3779527559055118,
                    "duration": 0.0703125
                },
                {
                    "name": "C5",
                    "midi": 72,
                    "time": 48.65625,
                    "velocity": 0.3779527559055118,
                    "duration": 0.0703125
                },
                {
                    "name": "G5",
                    "midi": 79,
                    "time": 48.75,
                    "velocity": 0.4409448818897638,
                    "duration": 0.09375
                },
                {
                    "name": "G4",
                    "midi": 67,
                    "time": 48.84375,
                    "velocity": 0.3779527559055118,
                    "duration": 0.0703125
                },
                {
                    "name": "G4",
                    "midi": 67,
                    "time": 48.9375,
                    "velocity": 0.3779527559055118,
                    "duration": 0.09375
                },
                {
                    "name": "G5",
                    "midi": 79,
                    "time": 49.03125,
                    "velocity": 0.3779527559055118,
                    "duration": 0.0703125
                },
                {
                    "name": "E4",
                    "midi": 64,
                    "time": 49.125,
                    "velocity": 0.4409448818897638,
                    "duration": 0.0703125
                },
                {
                    "name": "E4",
                    "midi": 64,
                    "time": 49.21875,
                    "velocity": 0.3858267716535433,
                    "duration": 0.09375
                },
                {
                    "name": "C5",
                    "midi": 72,
                    "time": 49.3125,
                    "velocity": 0.3858267716535433,
                    "duration": 0.09375
                },
                {
                    "name": "C4",
                    "midi": 60,
                    "time": 49.40625,
                    "velocity": 0.3937007874015748,
                    "duration": 0.09375
                },
                {
                    "name": "F4",
                    "midi": 65,
                    "time": 49.5,
                    "velocity": 0.5039370078740157,
                    "duration": 0.09375
                },
                {
                    "name": "C5",
                    "midi": 72,
                    "time": 49.59375,
                    "velocity": 0.4015748031496063,
                    "duration": 0.09375
                },
                {
                    "name": "C4",
                    "midi": 60,
                    "time": 49.6875,
                    "velocity": 0.4015748031496063,
                    "duration": 0.09375
                },
                {
                    "name": "A4",
                    "midi": 69,
                    "time": 49.78125,
                    "velocity": 0.4094488188976378,
                    "duration": 0.09375
                },
                {
                    "name": "F5",
                    "midi": 77,
                    "time": 49.875,
                    "velocity": 0.49606299212598426,
                    "duration": 0.09375
                },
                {
                    "name": "F4",
                    "midi": 65,
                    "time": 49.96875,
                    "velocity": 0.41732283464566927,
                    "duration": 0.09375
                },
                {
                    "name": "C5",
                    "midi": 72,
                    "time": 50.0625,
                    "velocity": 0.41732283464566927,
                    "duration": 0.09375
                },
                {
                    "name": "A5",
                    "midi": 81,
                    "time": 50.15625,
                    "velocity": 0.4251968503937008,
                    "duration": 0.09375
                },
                {
                    "name": "A4",
                    "midi": 69,
                    "time": 50.25,
                    "velocity": 0.5196850393700787,
                    "duration": 0.09375
                },
                {
                    "name": "F5",
                    "midi": 77,
                    "time": 50.34375,
                    "velocity": 0.4330708661417323,
                    "duration": 0.09375
                },
                {
                    "name": "C6",
                    "midi": 84,
                    "time": 50.4375,
                    "velocity": 0.44881889763779526,
                    "duration": 0.09375
                },
                {
                    "name": "C5",
                    "midi": 72,
                    "time": 50.53125,
                    "velocity": 0.44881889763779526,
                    "duration": 0.09375
                },
                {
                    "name": "C6",
                    "midi": 84,
                    "time": 50.625,
                    "velocity": 0.5433070866141733,
                    "duration": 0.09375
                },
                {
                    "name": "F6",
                    "midi": 89,
                    "time": 50.71875,
                    "velocity": 0.4645669291338583,
                    "duration": 0.09375
                },
                {
                    "name": "F5",
                    "midi": 77,
                    "time": 50.8125,
                    "velocity": 0.47244094488188976,
                    "duration": 0.09375
                },
                {
                    "name": "C6",
                    "midi": 84,
                    "time": 50.90625,
                    "velocity": 0.5039370078740157,
                    "duration": 0.09375
                },
                {
                    "name": "A6",
                    "midi": 93,
                    "time": 51,
                    "velocity": 0.5905511811023622,
                    "duration": 0.09375
                },
                {
                    "name": "A5",
                    "midi": 81,
                    "time": 51.09375,
                    "velocity": 0.5275590551181102,
                    "duration": 0.09375
                },
                {
                    "name": "F6",
                    "midi": 89,
                    "time": 51.1875,
                    "velocity": 0.5354330708661418,
                    "duration": 0.09375
                },
                {
                    "name": "C7",
                    "midi": 96,
                    "time": 51.28125,
                    "velocity": 0.5354330708661418,
                    "duration": 0.09375
                },
                {
                    "name": "C6",
                    "midi": 84,
                    "time": 51.375,
                    "velocity": 0.6141732283464567,
                    "duration": 0.09375
                },
                {
                    "name": "A6",
                    "midi": 93,
                    "time": 51.46875,
                    "velocity": 0.5669291338582677,
                    "duration": 0.09375
                },
                {
                    "name": "F7",
                    "midi": 101,
                    "time": 51.5625,
                    "velocity": 0.5748031496062992,
                    "duration": 0.09375
                },
                {
                    "name": "F6",
                    "midi": 89,
                    "time": 51.65625,
                    "velocity": 0.5826771653543307,
                    "duration": 0.09375
                },
                {
                    "name": "G#6",
                    "midi": 92,
                    "time": 51.75,
                    "velocity": 0.5984251968503937,
                    "duration": 0.09375
                },
                {
                    "name": "F7",
                    "midi": 101,
                    "time": 51.84375,
                    "velocity": 0.6299212598425197,
                    "duration": 0.09375
                },
                {
                    "name": "E7",
                    "midi": 100,
                    "time": 51.9375,
                    "velocity": 0.6220472440944882,
                    "duration": 0.09375
                },
                {
                    "name": "D#7",
                    "midi": 99,
                    "time": 52.03125,
                    "velocity": 0.5984251968503937,
                    "duration": 0.09375
                },
                {
                    "name": "D7",
                    "midi": 98,
                    "time": 52.125,
                    "velocity": 0.5905511811023622,
                    "duration": 0.09375
                },
                {
                    "name": "F7",
                    "midi": 101,
                    "time": 52.125,
                    "velocity": 0.5511811023622047,
                    "duration": 0.375
                },
                {
                    "name": "C#7",
                    "midi": 97,
                    "time": 52.21875,
                    "velocity": 0.5669291338582677,
                    "duration": 0.09375
                },
                {
                    "name": "C7",
                    "midi": 96,
                    "time": 52.3125,
                    "velocity": 0.5669291338582677,
                    "duration": 0.09375
                },
                {
                    "name": "B6",
                    "midi": 95,
                    "time": 52.40625,
                    "velocity": 0.5511811023622047,
                    "duration": 0.09375
                },
                {
                    "name": "G#6",
                    "midi": 92,
                    "time": 52.5,
                    "velocity": 0.4881889763779528,
                    "duration": 0.09375
                },
                {
                    "name": "D7",
                    "midi": 98,
                    "time": 52.5,
                    "velocity": 0.5826771653543307,
                    "duration": 0.1875
                },
                {
                    "name": "D6",
                    "midi": 86,
                    "time": 52.59375,
                    "velocity": 0.5511811023622047,
                    "duration": 0.09375
                },
                {
                    "name": "G6",
                    "midi": 91,
                    "time": 52.6875,
                    "velocity": 0.44881889763779526,
                    "duration": 0.09375
                },
                {
                    "name": "B6",
                    "midi": 95,
                    "time": 52.6875,
                    "velocity": 0.5433070866141733,
                    "duration": 0.1875
                },
                {
                    "name": "F6",
                    "midi": 89,
                    "time": 52.78125,
                    "velocity": 0.5275590551181102,
                    "duration": 0.09375
                },
                {
                    "name": "C7",
                    "midi": 96,
                    "time": 52.875,
                    "velocity": 0.5826771653543307,
                    "duration": 0.375
                },
                {
                    "name": "E6",
                    "midi": 88,
                    "time": 52.875,
                    "velocity": 0.49606299212598426,
                    "duration": 0.09375
                },
                {
                    "name": "A#6",
                    "midi": 94,
                    "time": 52.96875,
                    "velocity": 0.5039370078740157,
                    "duration": 0.09375
                },
                {
                    "name": "A6",
                    "midi": 93,
                    "time": 53.0625,
                    "velocity": 0.49606299212598426,
                    "duration": 0.09375
                },
                {
                    "name": "G#6",
                    "midi": 92,
                    "time": 53.15625,
                    "velocity": 0.48031496062992124,
                    "duration": 0.09375
                },
                {
                    "name": "G6",
                    "midi": 91,
                    "time": 53.25,
                    "velocity": 0.4409448818897638,
                    "duration": 0.09375
                },
                {
                    "name": "C7",
                    "midi": 96,
                    "time": 53.25,
                    "velocity": 0.5275590551181102,
                    "duration": 0.375
                },
                {
                    "name": "F#6",
                    "midi": 90,
                    "time": 53.34375,
                    "velocity": 0.4251968503937008,
                    "duration": 0.09375
                },
                {
                    "name": "F6",
                    "midi": 89,
                    "time": 53.4375,
                    "velocity": 0.41732283464566927,
                    "duration": 0.09375
                },
                {
                    "name": "E6",
                    "midi": 88,
                    "time": 53.53125,
                    "velocity": 0.41732283464566927,
                    "duration": 0.09375
                },
                {
                    "name": "C#6",
                    "midi": 85,
                    "time": 53.625,
                    "velocity": 0.3779527559055118,
                    "duration": 0.09375
                },
                {
                    "name": "G6",
                    "midi": 91,
                    "time": 53.625,
                    "velocity": 0.4409448818897638,
                    "duration": 0.1875
                },
                {
                    "name": "G5",
                    "midi": 79,
                    "time": 53.71875,
                    "velocity": 0.36220472440944884,
                    "duration": 0.09375
                },
                {
                    "name": "E6",
                    "midi": 88,
                    "time": 53.8125,
                    "velocity": 0.4015748031496063,
                    "duration": 0.1875
                },
                {
                    "name": "C6",
                    "midi": 84,
                    "time": 53.8125,
                    "velocity": 0.33858267716535434,
                    "duration": 0.09375
                },
                {
                    "name": "A#5",
                    "midi": 82,
                    "time": 53.90625,
                    "velocity": 0.33858267716535434,
                    "duration": 0.09375
                },
                {
                    "name": "C6",
                    "midi": 84,
                    "time": 54,
                    "velocity": 0.33858267716535434,
                    "duration": 0.09375
                },
                {
                    "name": "F6",
                    "midi": 89,
                    "time": 54.09375,
                    "velocity": 0.2992125984251969,
                    "duration": 0.09375
                },
                {
                    "name": "A6",
                    "midi": 93,
                    "time": 54.09375,
                    "velocity": 0.3700787401574803,
                    "duration": 0.1875
                },
                {
                    "name": "A5",
                    "midi": 81,
                    "time": 54.1875,
                    "velocity": 0.33858267716535434,
                    "duration": 0.09375
                },
                {
                    "name": "F#5",
                    "midi": 78,
                    "time": 54.28125,
                    "velocity": 0.33858267716535434,
                    "duration": 0.09375
                },
                {
                    "name": "F5",
                    "midi": 77,
                    "time": 54.375,
                    "velocity": 0.33858267716535434,
                    "duration": 0.09375
                },
                {
                    "name": "D6",
                    "midi": 86,
                    "time": 54.46875,
                    "velocity": 0.2992125984251969,
                    "duration": 0.09375
                },
                {
                    "name": "F6",
                    "midi": 89,
                    "time": 54.46875,
                    "velocity": 0.3700787401574803,
                    "duration": 0.1875
                },
                {
                    "name": "F5",
                    "midi": 77,
                    "time": 54.5625,
                    "velocity": 0.3464566929133858,
                    "duration": 0.09375
                },
                {
                    "name": "C#5",
                    "midi": 73,
                    "time": 54.65625,
                    "velocity": 0.3464566929133858,
                    "duration": 0.09375
                },
                {
                    "name": "C5",
                    "midi": 72,
                    "time": 54.75,
                    "velocity": 0.3464566929133858,
                    "duration": 0.09375
                },
                {
                    "name": "C6",
                    "midi": 84,
                    "time": 54.84375,
                    "velocity": 0.3779527559055118,
                    "duration": 0.1875
                },
                {
                    "name": "A5",
                    "midi": 81,
                    "time": 54.84375,
                    "velocity": 0.31496062992125984,
                    "duration": 0.09375
                },
                {
                    "name": "C5",
                    "midi": 72,
                    "time": 54.9375,
                    "velocity": 0.3464566929133858,
                    "duration": 0.09375
                },
                {
                    "name": "A#4",
                    "midi": 70,
                    "time": 55.03125,
                    "velocity": 0.3464566929133858,
                    "duration": 0.09375
                },
                {
                    "name": "A4",
                    "midi": 69,
                    "time": 55.125,
                    "velocity": 0.3464566929133858,
                    "duration": 0.09375
                },
                {
                    "name": "F5",
                    "midi": 77,
                    "time": 55.21875,
                    "velocity": 0.31496062992125984,
                    "duration": 0.09375
                },
                {
                    "name": "A5",
                    "midi": 81,
                    "time": 55.21875,
                    "velocity": 0.3779527559055118,
                    "duration": 0.1875
                },
                {
                    "name": "A4",
                    "midi": 69,
                    "time": 55.3125,
                    "velocity": 0.3464566929133858,
                    "duration": 0.09375
                },
                {
                    "name": "F4",
                    "midi": 65,
                    "time": 55.40625,
                    "velocity": 0.3464566929133858,
                    "duration": 0.09375
                },
                {
                    "name": "A3",
                    "midi": 57,
                    "time": 55.5703125,
                    "velocity": 0.28346456692913385,
                    "duration": 0.3046875
                },
                {
                    "name": "C4",
                    "midi": 60,
                    "time": 55.59375,
                    "velocity": 0.31496062992125984,
                    "duration": 0.28125
                },
                {
                    "name": "A6",
                    "midi": 93,
                    "time": 56.0625,
                    "velocity": 0.5118110236220472,
                    "duration": 0.09375
                },
                {
                    "name": "C7",
                    "midi": 96,
                    "time": 56.0625,
                    "velocity": 0.6062992125984252,
                    "duration": 0.1875
                },
                {
                    "name": "C6",
                    "midi": 84,
                    "time": 56.15625,
                    "velocity": 0.4645669291338583,
                    "duration": 0.09375
                },
                {
                    "name": "F#6",
                    "midi": 90,
                    "time": 56.15625,
                    "velocity": 0.5590551181102362,
                    "duration": 0.09375
                },
                {
                    "name": "G6",
                    "midi": 91,
                    "time": 56.25,
                    "velocity": 0.5905511811023622,
                    "duration": 0.1875
                },
                {
                    "name": "C6",
                    "midi": 84,
                    "time": 56.34375,
                    "velocity": 0.5354330708661418,
                    "duration": 0.09375
                },
                {
                    "name": "A5",
                    "midi": 81,
                    "time": 56.4375,
                    "velocity": 0.49606299212598426,
                    "duration": 0.09375
                },
                {
                    "name": "C6",
                    "midi": 84,
                    "time": 56.4375,
                    "velocity": 0.5826771653543307,
                    "duration": 0.1875
                },
                {
                    "name": "C5",
                    "midi": 72,
                    "time": 56.53125,
                    "velocity": 0.4251968503937008,
                    "duration": 0.09375
                },
                {
                    "name": "F#5",
                    "midi": 78,
                    "time": 56.53125,
                    "velocity": 0.5118110236220472,
                    "duration": 0.09375
                },
                {
                    "name": "G5",
                    "midi": 79,
                    "time": 56.625,
                    "velocity": 0.5590551181102362,
                    "duration": 0.1875
                },
                {
                    "name": "C5",
                    "midi": 72,
                    "time": 56.71875,
                    "velocity": 0.49606299212598426,
                    "duration": 0.09375
                },
                {
                    "name": "A4",
                    "midi": 69,
                    "time": 56.8125,
                    "velocity": 0.4566929133858268,
                    "duration": 0.09375
                },
                {
                    "name": "C5",
                    "midi": 72,
                    "time": 56.8125,
                    "velocity": 0.5433070866141733,
                    "duration": 0.1875
                },
                {
                    "name": "C4",
                    "midi": 60,
                    "time": 56.90625,
                    "velocity": 0.4015748031496063,
                    "duration": 0.09375
                },
                {
                    "name": "F#4",
                    "midi": 66,
                    "time": 56.90625,
                    "velocity": 0.47244094488188976,
                    "duration": 0.09375
                },
                {
                    "name": "G4",
                    "midi": 67,
                    "time": 57,
                    "velocity": 0.5039370078740157,
                    "duration": 0.1875
                },
                {
                    "name": "F4",
                    "midi": 65,
                    "time": 57.09375,
                    "velocity": 0.49606299212598426,
                    "duration": 0.09375
                },
                {
                    "name": "G4",
                    "midi": 67,
                    "time": 57.1875,
                    "velocity": 0.5590551181102362,
                    "duration": 0.1875
                },
                {
                    "name": "E4",
                    "midi": 64,
                    "time": 57.1875,
                    "velocity": 0.4645669291338583,
                    "duration": 0.09375
                },
                {
                    "name": "D4",
                    "midi": 62,
                    "time": 57.28125,
                    "velocity": 0.5118110236220472,
                    "duration": 0.09375
                },
                {
                    "name": "A4",
                    "midi": 69,
                    "time": 57.375,
                    "velocity": 0.5433070866141733,
                    "duration": 0.1875
                },
                {
                    "name": "C#4",
                    "midi": 61,
                    "time": 57.375,
                    "velocity": 0.4566929133858268,
                    "duration": 0.09375
                },
                {
                    "name": "A#3",
                    "midi": 58,
                    "time": 57.46875,
                    "velocity": 0.4566929133858268,
                    "duration": 0.09375
                },
                {
                    "name": "E4",
                    "midi": 64,
                    "time": 57.5625,
                    "velocity": 0.4566929133858268,
                    "duration": 0.9375
                },
                {
                    "name": "G4",
                    "midi": 67,
                    "time": 57.75,
                    "velocity": 0.49606299212598426,
                    "duration": 0.1875
                },
                {
                    "name": "A#4",
                    "midi": 70,
                    "time": 57.9375,
                    "velocity": 0.5354330708661418,
                    "duration": 0.1875
                },
                {
                    "name": "A4",
                    "midi": 69,
                    "time": 58.125,
                    "velocity": 0.44881889763779526,
                    "duration": 0.1875
                },
                {
                    "name": "C#5",
                    "midi": 73,
                    "time": 58.125,
                    "velocity": 0.5511811023622047,
                    "duration": 0.375
                },
                {
                    "name": "G4",
                    "midi": 67,
                    "time": 58.3125,
                    "velocity": 0.5433070866141733,
                    "duration": 0.1875
                },
                {
                    "name": "D5",
                    "midi": 74,
                    "time": 58.5,
                    "velocity": 0.5196850393700787,
                    "duration": 0.1875
                },
                {
                    "name": "F4",
                    "midi": 65,
                    "time": 58.5,
                    "velocity": 0.49606299212598426,
                    "duration": 0.1875
                },
                {
                    "name": "C#6",
                    "midi": 85,
                    "time": 58.6875,
                    "velocity": 0.5118110236220472,
                    "duration": 0.09375
                },
                {
                    "name": "A6",
                    "midi": 93,
                    "time": 58.6875,
                    "velocity": 0.6062992125984252,
                    "duration": 0.1875
                },
                {
                    "name": "G5",
                    "midi": 79,
                    "time": 58.78125,
                    "velocity": 0.4645669291338583,
                    "duration": 0.09375
                },
                {
                    "name": "E6",
                    "midi": 88,
                    "time": 58.78125,
                    "velocity": 0.5590551181102362,
                    "duration": 0.09375
                },
                {
                    "name": "D6",
                    "midi": 86,
                    "time": 58.875,
                    "velocity": 0.5118110236220472,
                    "duration": 0.09375
                },
                {
                    "name": "F6",
                    "midi": 89,
                    "time": 58.875,
                    "velocity": 0.5905511811023622,
                    "duration": 0.1875
                },
                {
                    "name": "F5",
                    "midi": 77,
                    "time": 58.96875,
                    "velocity": 0.5354330708661418,
                    "duration": 0.09375
                },
                {
                    "name": "C5",
                    "midi": 72,
                    "time": 59.0625,
                    "velocity": 0.49606299212598426,
                    "duration": 0.09375
                },
                {
                    "name": "A5",
                    "midi": 81,
                    "time": 59.0625,
                    "velocity": 0.5826771653543307,
                    "duration": 0.1875
                },
                {
                    "name": "G4",
                    "midi": 67,
                    "time": 59.15625,
                    "velocity": 0.4251968503937008,
                    "duration": 0.09375
                },
                {
                    "name": "E5",
                    "midi": 76,
                    "time": 59.15625,
                    "velocity": 0.5118110236220472,
                    "duration": 0.09375
                },
                {
                    "name": "D5",
                    "midi": 74,
                    "time": 59.25,
                    "velocity": 0.5118110236220472,
                    "duration": 0.09375
                },
                {
                    "name": "F5",
                    "midi": 77,
                    "time": 59.25,
                    "velocity": 0.5590551181102362,
                    "duration": 0.1875
                },
                {
                    "name": "E4",
                    "midi": 64,
                    "time": 59.34375,
                    "velocity": 0.49606299212598426,
                    "duration": 0.09375
                },
                {
                    "name": "F4",
                    "midi": 65,
                    "time": 59.4375,
                    "velocity": 0.4566929133858268,
                    "duration": 0.09375
                },
                {
                    "name": "B4",
                    "midi": 71,
                    "time": 59.4375,
                    "velocity": 0.5433070866141733,
                    "duration": 0.1875
                },
                {
                    "name": "G4",
                    "midi": 67,
                    "time": 59.53125,
                    "velocity": 0.47244094488188976,
                    "duration": 0.09375
                },
                {
                    "name": "G#4",
                    "midi": 68,
                    "time": 59.625,
                    "velocity": 0.49606299212598426,
                    "duration": 0.09375
                },
                {
                    "name": "C5",
                    "midi": 72,
                    "time": 59.625,
                    "velocity": 0.5354330708661418,
                    "duration": 0.375
                },
                {
                    "name": "F4",
                    "midi": 65,
                    "time": 59.71875,
                    "velocity": 0.49606299212598426,
                    "duration": 0.09375
                },
                {
                    "name": "E4",
                    "midi": 64,
                    "time": 59.8125,
                    "velocity": 0.4566929133858268,
                    "duration": 0.09375
                },
                {
                    "name": "G4",
                    "midi": 67,
                    "time": 59.90625,
                    "velocity": 0.49606299212598426,
                    "duration": 0.09375
                },
                {
                    "name": "A#4",
                    "midi": 70,
                    "time": 60,
                    "velocity": 0.4330708661417323,
                    "duration": 0.09375
                },
                {
                    "name": "C#5",
                    "midi": 73,
                    "time": 60.09375,
                    "velocity": 0.41732283464566927,
                    "duration": 0.09375
                },
                {
                    "name": "E5",
                    "midi": 76,
                    "time": 60.1875,
                    "velocity": 0.4094488188976378,
                    "duration": 0.09375
                },
                {
                    "name": "G5",
                    "midi": 79,
                    "time": 60.28125,
                    "velocity": 0.4094488188976378,
                    "duration": 0.09375
                },
                {
                    "name": "A#5",
                    "midi": 82,
                    "time": 60.375,
                    "velocity": 0.3858267716535433,
                    "duration": 0.09375
                },
                {
                    "name": "C6",
                    "midi": 84,
                    "time": 60.46875,
                    "velocity": 0.4015748031496063,
                    "duration": 0.375
                },
                {
                    "name": "E6",
                    "midi": 88,
                    "time": 60.5625,
                    "velocity": 0.4015748031496063,
                    "duration": 0.28125
                },
                {
                    "name": "G6",
                    "midi": 91,
                    "time": 60.65625,
                    "velocity": 0.4094488188976378,
                    "duration": 0.1875
                },
                {
                    "name": "C7",
                    "midi": 96,
                    "time": 60.75,
                    "velocity": 0.4251968503937008,
                    "duration": 0.1875
                },
                {
                    "name": "C6",
                    "midi": 84,
                    "time": 60.84375,
                    "velocity": 0.3779527559055118,
                    "duration": 0.1875
                },
                {
                    "name": "C7",
                    "midi": 96,
                    "time": 60.9375,
                    "velocity": 0.41732283464566927,
                    "duration": 0.1875
                },
                {
                    "name": "F6",
                    "midi": 89,
                    "time": 61.03125,
                    "velocity": 0.3858267716535433,
                    "duration": 0.09375
                },
                {
                    "name": "B5",
                    "midi": 83,
                    "time": 61.125,
                    "velocity": 0.4409448818897638,
                    "duration": 0.1875
                },
                {
                    "name": "B6",
                    "midi": 95,
                    "time": 61.125,
                    "velocity": 0.4409448818897638,
                    "duration": 0.09375
                },
                {
                    "name": "G#6",
                    "midi": 92,
                    "time": 61.21875,
                    "velocity": 0.4015748031496063,
                    "duration": 0.09375
                },
                {
                    "name": "D6",
                    "midi": 86,
                    "time": 61.3125,
                    "velocity": 0.4094488188976378,
                    "duration": 0.1875
                },
                {
                    "name": "G6",
                    "midi": 91,
                    "time": 61.3125,
                    "velocity": 0.4094488188976378,
                    "duration": 0.09375
                },
                {
                    "name": "F6",
                    "midi": 89,
                    "time": 61.40625,
                    "velocity": 0.4251968503937008,
                    "duration": 0.09375
                },
                {
                    "name": "A6",
                    "midi": 93,
                    "time": 61.4765625,
                    "velocity": 0.36220472440944884,
                    "duration": 0.0234375
                },
                {
                    "name": "G6",
                    "midi": 91,
                    "time": 61.5,
                    "velocity": 0.4251968503937008,
                    "duration": 0.1875
                },
                {
                    "name": "E6",
                    "midi": 88,
                    "time": 61.5,
                    "velocity": 0.36220472440944884,
                    "duration": 0.140625
                },
                {
                    "name": "C#6",
                    "midi": 85,
                    "time": 61.640625,
                    "velocity": 0.4094488188976378,
                    "duration": 0.046875
                },
                {
                    "name": "F6",
                    "midi": 89,
                    "time": 61.6640625,
                    "velocity": 0.3543307086614173,
                    "duration": 0.0234375
                },
                {
                    "name": "E6",
                    "midi": 88,
                    "time": 61.6875,
                    "velocity": 0.4409448818897638,
                    "duration": 0.1875
                },
                {
                    "name": "C6",
                    "midi": 84,
                    "time": 61.6875,
                    "velocity": 0.3700787401574803,
                    "duration": 0.140625
                },
                {
                    "name": "A#5",
                    "midi": 82,
                    "time": 61.828125,
                    "velocity": 0.4094488188976378,
                    "duration": 0.046875
                },
                {
                    "name": "D6",
                    "midi": 86,
                    "time": 61.8515625,
                    "velocity": 0.3543307086614173,
                    "duration": 0.0234375
                },
                {
                    "name": "C6",
                    "midi": 84,
                    "time": 61.875,
                    "velocity": 0.4251968503937008,
                    "duration": 0.1875
                },
                {
                    "name": "A5",
                    "midi": 81,
                    "time": 61.875,
                    "velocity": 0.36220472440944884,
                    "duration": 0.140625
                },
                {
                    "name": "F#5",
                    "midi": 78,
                    "time": 62.015625,
                    "velocity": 0.4094488188976378,
                    "duration": 0.046875
                },
                {
                    "name": "A#5",
                    "midi": 82,
                    "time": 62.0390625,
                    "velocity": 0.3858267716535433,
                    "duration": 0.0234375
                },
                {
                    "name": "A5",
                    "midi": 81,
                    "time": 62.0625,
                    "velocity": 0.4251968503937008,
                    "duration": 0.1875
                },
                {
                    "name": "F5",
                    "midi": 77,
                    "time": 62.0625,
                    "velocity": 0.3700787401574803,
                    "duration": 0.140625
                },
                {
                    "name": "D#5",
                    "midi": 75,
                    "time": 62.203125,
                    "velocity": 0.4094488188976378,
                    "duration": 0.046875
                },
                {
                    "name": "A#5",
                    "midi": 82,
                    "time": 62.25,
                    "velocity": 0.5275590551181102,
                    "duration": 0.28125
                },
                {
                    "name": "D5",
                    "midi": 74,
                    "time": 62.25,
                    "velocity": 0.5275590551181102,
                    "duration": 0.09375
                },
                {
                    "name": "G5",
                    "midi": 79,
                    "time": 62.34375,
                    "velocity": 0.48031496062992124,
                    "duration": 0.09375
                },
                {
                    "name": "A#5",
                    "midi": 82,
                    "time": 62.4375,
                    "velocity": 0.5039370078740157,
                    "duration": 0.1875
                },
                {
                    "name": "C#6",
                    "midi": 85,
                    "time": 62.53125,
                    "velocity": 0.5196850393700787,
                    "duration": 0.09375
                },
                {
                    "name": "D6",
                    "midi": 86,
                    "time": 62.625,
                    "velocity": 0.5354330708661418,
                    "duration": 0.09375
                },
                {
                    "name": "G6",
                    "midi": 91,
                    "time": 62.71875,
                    "velocity": 0.5511811023622047,
                    "duration": 0.09375
                },
                {
                    "name": "A#6",
                    "midi": 94,
                    "time": 62.8125,
                    "velocity": 0.5669291338582677,
                    "duration": 0.09375
                },
                {
                    "name": "C#7",
                    "midi": 97,
                    "time": 62.90625,
                    "velocity": 0.5826771653543307,
                    "duration": 0.09375
                },
                {
                    "name": "D7",
                    "midi": 98,
                    "time": 63,
                    "velocity": 0.5984251968503937,
                    "duration": 0.28125
                },
                {
                    "name": "E6",
                    "midi": 88,
                    "time": 63.09375,
                    "velocity": 0.4251968503937008,
                    "duration": 0.28125
                },
                {
                    "name": "F#6",
                    "midi": 90,
                    "time": 63.09375,
                    "velocity": 0.5354330708661418,
                    "duration": 0.09375
                },
                {
                    "name": "G6",
                    "midi": 91,
                    "time": 63.1875,
                    "velocity": 0.49606299212598426,
                    "duration": 0.09375
                },
                {
                    "name": "C7",
                    "midi": 96,
                    "time": 63.28125,
                    "velocity": 0.47244094488188976,
                    "duration": 0.09375
                },
                {
                    "name": "A6",
                    "midi": 93,
                    "time": 63.375,
                    "velocity": 0.5984251968503937,
                    "duration": 0.28125
                },
                {
                    "name": "C6",
                    "midi": 84,
                    "time": 63.46875,
                    "velocity": 0.4094488188976378,
                    "duration": 0.28125
                },
                {
                    "name": "D#6",
                    "midi": 87,
                    "time": 63.46875,
                    "velocity": 0.5118110236220472,
                    "duration": 0.09375
                },
                {
                    "name": "E6",
                    "midi": 88,
                    "time": 63.5625,
                    "velocity": 0.47244094488188976,
                    "duration": 0.09375
                },
                {
                    "name": "G6",
                    "midi": 91,
                    "time": 63.65625,
                    "velocity": 0.4645669291338583,
                    "duration": 0.09375
                },
                {
                    "name": "F6",
                    "midi": 89,
                    "time": 63.75,
                    "velocity": 0.5905511811023622,
                    "duration": 0.28125
                },
                {
                    "name": "A#5",
                    "midi": 82,
                    "time": 63.84375,
                    "velocity": 0.4094488188976378,
                    "duration": 0.28125
                },
                {
                    "name": "C#6",
                    "midi": 85,
                    "time": 63.84375,
                    "velocity": 0.47244094488188976,
                    "duration": 0.09375
                },
                {
                    "name": "C6",
                    "midi": 84,
                    "time": 63.9375,
                    "velocity": 0.4409448818897638,
                    "duration": 0.09375
                },
                {
                    "name": "E6",
                    "midi": 88,
                    "time": 64.03125,
                    "velocity": 0.4409448818897638,
                    "duration": 0.09375
                },
                {
                    "name": "F6",
                    "midi": 89,
                    "time": 64.125,
                    "velocity": 0.5748031496062992,
                    "duration": 0.09375
                },
                {
                    "name": "C6",
                    "midi": 84,
                    "time": 64.21875,
                    "velocity": 0.49606299212598426,
                    "duration": 0.09375
                },
                {
                    "name": "A5",
                    "midi": 81,
                    "time": 64.3125,
                    "velocity": 0.5196850393700787,
                    "duration": 0.09375
                },
                {
                    "name": "A6",
                    "midi": 93,
                    "time": 64.40625,
                    "velocity": 0.47244094488188976,
                    "duration": 0.09375
                },
                {
                    "name": "A3",
                    "midi": 57,
                    "time": 64.5703125,
                    "velocity": 0.3858267716535433,
                    "duration": 0.3046875
                },
                {
                    "name": "C4",
                    "midi": 60,
                    "time": 64.59375,
                    "velocity": 0.3858267716535433,
                    "duration": 0.28125
                },
                {
                    "name": "F4",
                    "midi": 65,
                    "time": 64.6171875,
                    "velocity": 0.4566929133858268,
                    "duration": 0.2578125
                },
                {
                    "name": "A6",
                    "midi": 93,
                    "time": 65.0625,
                    "velocity": 0.5118110236220472,
                    "duration": 0.09375
                },
                {
                    "name": "C7",
                    "midi": 96,
                    "time": 65.0625,
                    "velocity": 0.6062992125984252,
                    "duration": 0.1875
                },
                {
                    "name": "C6",
                    "midi": 84,
                    "time": 65.15625,
                    "velocity": 0.4645669291338583,
                    "duration": 0.09375
                },
                {
                    "name": "F#6",
                    "midi": 90,
                    "time": 65.15625,
                    "velocity": 0.5590551181102362,
                    "duration": 0.09375
                },
                {
                    "name": "G6",
                    "midi": 91,
                    "time": 65.25,
                    "velocity": 0.5905511811023622,
                    "duration": 0.1875
                },
                {
                    "name": "C6",
                    "midi": 84,
                    "time": 65.34375,
                    "velocity": 0.5354330708661418,
                    "duration": 0.09375
                },
                {
                    "name": "A5",
                    "midi": 81,
                    "time": 65.4375,
                    "velocity": 0.49606299212598426,
                    "duration": 0.09375
                },
                {
                    "name": "C6",
                    "midi": 84,
                    "time": 65.4375,
                    "velocity": 0.5826771653543307,
                    "duration": 0.1875
                },
                {
                    "name": "C5",
                    "midi": 72,
                    "time": 65.53125,
                    "velocity": 0.4251968503937008,
                    "duration": 0.09375
                },
                {
                    "name": "F#5",
                    "midi": 78,
                    "time": 65.53125,
                    "velocity": 0.5118110236220472,
                    "duration": 0.09375
                },
                {
                    "name": "G5",
                    "midi": 79,
                    "time": 65.625,
                    "velocity": 0.5590551181102362,
                    "duration": 0.1875
                },
                {
                    "name": "C5",
                    "midi": 72,
                    "time": 65.71875,
                    "velocity": 0.49606299212598426,
                    "duration": 0.09375
                },
                {
                    "name": "A4",
                    "midi": 69,
                    "time": 65.8125,
                    "velocity": 0.4566929133858268,
                    "duration": 0.09375
                },
                {
                    "name": "C5",
                    "midi": 72,
                    "time": 65.8125,
                    "velocity": 0.5433070866141733,
                    "duration": 0.1875
                },
                {
                    "name": "C4",
                    "midi": 60,
                    "time": 65.90625,
                    "velocity": 0.4015748031496063,
                    "duration": 0.09375
                },
                {
                    "name": "F#4",
                    "midi": 66,
                    "time": 65.90625,
                    "velocity": 0.47244094488188976,
                    "duration": 0.09375
                },
                {
                    "name": "G4",
                    "midi": 67,
                    "time": 66,
                    "velocity": 0.5118110236220472,
                    "duration": 0.1875
                },
                {
                    "name": "F4",
                    "midi": 65,
                    "time": 66.09375,
                    "velocity": 0.49606299212598426,
                    "duration": 0.09375
                },
                {
                    "name": "G4",
                    "midi": 67,
                    "time": 66.1875,
                    "velocity": 0.5590551181102362,
                    "duration": 0.1875
                },
                {
                    "name": "E4",
                    "midi": 64,
                    "time": 66.1875,
                    "velocity": 0.4645669291338583,
                    "duration": 0.09375
                },
                {
                    "name": "D4",
                    "midi": 62,
                    "time": 66.28125,
                    "velocity": 0.5118110236220472,
                    "duration": 0.09375
                },
                {
                    "name": "A4",
                    "midi": 69,
                    "time": 66.375,
                    "velocity": 0.5433070866141733,
                    "duration": 0.1875
                },
                {
                    "name": "C#4",
                    "midi": 61,
                    "time": 66.375,
                    "velocity": 0.4566929133858268,
                    "duration": 0.09375
                },
                {
                    "name": "A#3",
                    "midi": 58,
                    "time": 66.46875,
                    "velocity": 0.4566929133858268,
                    "duration": 0.09375
                },
                {
                    "name": "E4",
                    "midi": 64,
                    "time": 66.5625,
                    "velocity": 0.4566929133858268,
                    "duration": 0.9375
                },
                {
                    "name": "G4",
                    "midi": 67,
                    "time": 66.75,
                    "velocity": 0.49606299212598426,
                    "duration": 0.1875
                },
                {
                    "name": "A#4",
                    "midi": 70,
                    "time": 66.9375,
                    "velocity": 0.5354330708661418,
                    "duration": 0.1875
                },
                {
                    "name": "A4",
                    "midi": 69,
                    "time": 67.125,
                    "velocity": 0.4566929133858268,
                    "duration": 0.1875
                },
                {
                    "name": "C#5",
                    "midi": 73,
                    "time": 67.125,
                    "velocity": 0.5511811023622047,
                    "duration": 0.375
                },
                {
                    "name": "G4",
                    "midi": 67,
                    "time": 67.3125,
                    "velocity": 0.5433070866141733,
                    "duration": 0.1875
                },
                {
                    "name": "D5",
                    "midi": 74,
                    "time": 67.5,
                    "velocity": 0.5196850393700787,
                    "duration": 0.1875
                },
                {
                    "name": "F4",
                    "midi": 65,
                    "time": 67.5,
                    "velocity": 0.49606299212598426,
                    "duration": 0.1875
                },
                {
                    "name": "C#6",
                    "midi": 85,
                    "time": 67.6875,
                    "velocity": 0.5118110236220472,
                    "duration": 0.09375
                },
                {
                    "name": "A6",
                    "midi": 93,
                    "time": 67.6875,
                    "velocity": 0.6062992125984252,
                    "duration": 0.1875
                },
                {
                    "name": "G5",
                    "midi": 79,
                    "time": 67.78125,
                    "velocity": 0.4645669291338583,
                    "duration": 0.09375
                },
                {
                    "name": "E6",
                    "midi": 88,
                    "time": 67.78125,
                    "velocity": 0.5590551181102362,
                    "duration": 0.09375
                },
                {
                    "name": "D6",
                    "midi": 86,
                    "time": 67.875,
                    "velocity": 0.5118110236220472,
                    "duration": 0.09375
                },
                {
                    "name": "F6",
                    "midi": 89,
                    "time": 67.875,
                    "velocity": 0.5905511811023622,
                    "duration": 0.1875
                },
                {
                    "name": "F5",
                    "midi": 77,
                    "time": 67.96875,
                    "velocity": 0.5354330708661418,
                    "duration": 0.09375
                },
                {
                    "name": "C5",
                    "midi": 72,
                    "time": 68.0625,
                    "velocity": 0.49606299212598426,
                    "duration": 0.09375
                },
                {
                    "name": "A5",
                    "midi": 81,
                    "time": 68.0625,
                    "velocity": 0.5826771653543307,
                    "duration": 0.1875
                },
                {
                    "name": "G4",
                    "midi": 67,
                    "time": 68.15625,
                    "velocity": 0.4251968503937008,
                    "duration": 0.09375
                },
                {
                    "name": "E5",
                    "midi": 76,
                    "time": 68.15625,
                    "velocity": 0.5118110236220472,
                    "duration": 0.09375
                },
                {
                    "name": "D5",
                    "midi": 74,
                    "time": 68.25,
                    "velocity": 0.5118110236220472,
                    "duration": 0.09375
                },
                {
                    "name": "F5",
                    "midi": 77,
                    "time": 68.25,
                    "velocity": 0.5590551181102362,
                    "duration": 0.1875
                },
                {
                    "name": "E4",
                    "midi": 64,
                    "time": 68.34375,
                    "velocity": 0.49606299212598426,
                    "duration": 0.09375
                },
                {
                    "name": "F4",
                    "midi": 65,
                    "time": 68.4375,
                    "velocity": 0.4566929133858268,
                    "duration": 0.09375
                },
                {
                    "name": "B4",
                    "midi": 71,
                    "time": 68.4375,
                    "velocity": 0.5433070866141733,
                    "duration": 0.1875
                },
                {
                    "name": "G4",
                    "midi": 67,
                    "time": 68.53125,
                    "velocity": 0.47244094488188976,
                    "duration": 0.09375
                },
                {
                    "name": "G#4",
                    "midi": 68,
                    "time": 68.625,
                    "velocity": 0.49606299212598426,
                    "duration": 0.09375
                },
                {
                    "name": "C5",
                    "midi": 72,
                    "time": 68.625,
                    "velocity": 0.5354330708661418,
                    "duration": 0.375
                },
                {
                    "name": "F4",
                    "midi": 65,
                    "time": 68.71875,
                    "velocity": 0.49606299212598426,
                    "duration": 0.09375
                },
                {
                    "name": "E4",
                    "midi": 64,
                    "time": 68.8125,
                    "velocity": 0.4645669291338583,
                    "duration": 0.09375
                },
                {
                    "name": "G4",
                    "midi": 67,
                    "time": 68.90625,
                    "velocity": 0.5118110236220472,
                    "duration": 0.09375
                },
                {
                    "name": "A#4",
                    "midi": 70,
                    "time": 69,
                    "velocity": 0.4409448818897638,
                    "duration": 0.09375
                },
                {
                    "name": "C#5",
                    "midi": 73,
                    "time": 69.09375,
                    "velocity": 0.4251968503937008,
                    "duration": 0.09375
                },
                {
                    "name": "E5",
                    "midi": 76,
                    "time": 69.1875,
                    "velocity": 0.41732283464566927,
                    "duration": 0.09375
                },
                {
                    "name": "G5",
                    "midi": 79,
                    "time": 69.28125,
                    "velocity": 0.4094488188976378,
                    "duration": 0.09375
                },
                {
                    "name": "A#5",
                    "midi": 82,
                    "time": 69.375,
                    "velocity": 0.3937007874015748,
                    "duration": 0.09375
                },
                {
                    "name": "C6",
                    "midi": 84,
                    "time": 69.46875,
                    "velocity": 0.4094488188976378,
                    "duration": 0.375
                },
                {
                    "name": "E6",
                    "midi": 88,
                    "time": 69.5625,
                    "velocity": 0.4094488188976378,
                    "duration": 0.28125
                },
                {
                    "name": "G6",
                    "midi": 91,
                    "time": 69.65625,
                    "velocity": 0.41732283464566927,
                    "duration": 0.1875
                },
                {
                    "name": "C7",
                    "midi": 96,
                    "time": 69.75,
                    "velocity": 0.4330708661417323,
                    "duration": 0.1875
                },
                {
                    "name": "C6",
                    "midi": 84,
                    "time": 69.84375,
                    "velocity": 0.3858267716535433,
                    "duration": 0.1875
                },
                {
                    "name": "C7",
                    "midi": 96,
                    "time": 69.9375,
                    "velocity": 0.41732283464566927,
                    "duration": 0.1875
                },
                {
                    "name": "F6",
                    "midi": 89,
                    "time": 70.03125,
                    "velocity": 0.3858267716535433,
                    "duration": 0.09375
                },
                {
                    "name": "B5",
                    "midi": 83,
                    "time": 70.125,
                    "velocity": 0.4409448818897638,
                    "duration": 0.1875
                },
                {
                    "name": "B6",
                    "midi": 95,
                    "time": 70.125,
                    "velocity": 0.4409448818897638,
                    "duration": 0.09375
                },
                {
                    "name": "G#6",
                    "midi": 92,
                    "time": 70.21875,
                    "velocity": 0.4015748031496063,
                    "duration": 0.09375
                },
                {
                    "name": "D6",
                    "midi": 86,
                    "time": 70.3125,
                    "velocity": 0.4094488188976378,
                    "duration": 0.1875
                },
                {
                    "name": "G6",
                    "midi": 91,
                    "time": 70.3125,
                    "velocity": 0.4094488188976378,
                    "duration": 0.09375
                },
                {
                    "name": "F6",
                    "midi": 89,
                    "time": 70.40625,
                    "velocity": 0.4251968503937008,
                    "duration": 0.09375
                },
                {
                    "name": "A6",
                    "midi": 93,
                    "time": 70.4765625,
                    "velocity": 0.36220472440944884,
                    "duration": 0.0234375
                },
                {
                    "name": "G6",
                    "midi": 91,
                    "time": 70.5,
                    "velocity": 0.4251968503937008,
                    "duration": 0.1875
                },
                {
                    "name": "E6",
                    "midi": 88,
                    "time": 70.5,
                    "velocity": 0.36220472440944884,
                    "duration": 0.140625
                },
                {
                    "name": "C#6",
                    "midi": 85,
                    "time": 70.640625,
                    "velocity": 0.4094488188976378,
                    "duration": 0.046875
                },
                {
                    "name": "F6",
                    "midi": 89,
                    "time": 70.6640625,
                    "velocity": 0.3543307086614173,
                    "duration": 0.0234375
                },
                {
                    "name": "E6",
                    "midi": 88,
                    "time": 70.6875,
                    "velocity": 0.4409448818897638,
                    "duration": 0.1875
                },
                {
                    "name": "C6",
                    "midi": 84,
                    "time": 70.6875,
                    "velocity": 0.3700787401574803,
                    "duration": 0.140625
                },
                {
                    "name": "A#5",
                    "midi": 82,
                    "time": 70.828125,
                    "velocity": 0.4094488188976378,
                    "duration": 0.046875
                },
                {
                    "name": "D6",
                    "midi": 86,
                    "time": 70.8515625,
                    "velocity": 0.3543307086614173,
                    "duration": 0.0234375
                },
                {
                    "name": "C6",
                    "midi": 84,
                    "time": 70.875,
                    "velocity": 0.4251968503937008,
                    "duration": 0.1875
                },
                {
                    "name": "A5",
                    "midi": 81,
                    "time": 70.875,
                    "velocity": 0.36220472440944884,
                    "duration": 0.140625
                },
                {
                    "name": "F#5",
                    "midi": 78,
                    "time": 71.015625,
                    "velocity": 0.4094488188976378,
                    "duration": 0.046875
                },
                {
                    "name": "A#5",
                    "midi": 82,
                    "time": 71.0390625,
                    "velocity": 0.3858267716535433,
                    "duration": 0.0234375
                },
                {
                    "name": "A5",
                    "midi": 81,
                    "time": 71.0625,
                    "velocity": 0.4251968503937008,
                    "duration": 0.1875
                },
                {
                    "name": "F5",
                    "midi": 77,
                    "time": 71.0625,
                    "velocity": 0.3700787401574803,
                    "duration": 0.140625
                },
                {
                    "name": "D#5",
                    "midi": 75,
                    "time": 71.203125,
                    "velocity": 0.4094488188976378,
                    "duration": 0.046875
                },
                {
                    "name": "A#5",
                    "midi": 82,
                    "time": 71.25,
                    "velocity": 0.47244094488188976,
                    "duration": 0.28125
                },
                {
                    "name": "D5",
                    "midi": 74,
                    "time": 71.25,
                    "velocity": 0.47244094488188976,
                    "duration": 0.09375
                },
                {
                    "name": "G5",
                    "midi": 79,
                    "time": 71.34375,
                    "velocity": 0.4566929133858268,
                    "duration": 0.09375
                },
                {
                    "name": "A#5",
                    "midi": 82,
                    "time": 71.4375,
                    "velocity": 0.48031496062992124,
                    "duration": 0.1875
                },
                {
                    "name": "C#6",
                    "midi": 85,
                    "time": 71.53125,
                    "velocity": 0.5039370078740157,
                    "duration": 0.09375
                },
                {
                    "name": "D6",
                    "midi": 86,
                    "time": 71.625,
                    "velocity": 0.5354330708661418,
                    "duration": 0.09375
                },
                {
                    "name": "G6",
                    "midi": 91,
                    "time": 71.71875,
                    "velocity": 0.5511811023622047,
                    "duration": 0.09375
                },
                {
                    "name": "A#6",
                    "midi": 94,
                    "time": 71.8125,
                    "velocity": 0.5669291338582677,
                    "duration": 0.09375
                },
                {
                    "name": "C#7",
                    "midi": 97,
                    "time": 71.90625,
                    "velocity": 0.5826771653543307,
                    "duration": 0.09375
                },
                {
                    "name": "D7",
                    "midi": 98,
                    "time": 72,
                    "velocity": 0.5905511811023622,
                    "duration": 0.28125
                },
                {
                    "name": "E6",
                    "midi": 88,
                    "time": 72.09375,
                    "velocity": 0.4251968503937008,
                    "duration": 0.28125
                },
                {
                    "name": "F#6",
                    "midi": 90,
                    "time": 72.09375,
                    "velocity": 0.5354330708661418,
                    "duration": 0.09375
                },
                {
                    "name": "G6",
                    "midi": 91,
                    "time": 72.1875,
                    "velocity": 0.4881889763779528,
                    "duration": 0.09375
                },
                {
                    "name": "C7",
                    "midi": 96,
                    "time": 72.28125,
                    "velocity": 0.4881889763779528,
                    "duration": 0.09375
                },
                {
                    "name": "A6",
                    "midi": 93,
                    "time": 72.375,
                    "velocity": 0.5984251968503937,
                    "duration": 0.28125
                },
                {
                    "name": "C6",
                    "midi": 84,
                    "time": 72.46875,
                    "velocity": 0.4094488188976378,
                    "duration": 0.28125
                },
                {
                    "name": "D#6",
                    "midi": 87,
                    "time": 72.46875,
                    "velocity": 0.5118110236220472,
                    "duration": 0.09375
                },
                {
                    "name": "E6",
                    "midi": 88,
                    "time": 72.5625,
                    "velocity": 0.48031496062992124,
                    "duration": 0.09375
                },
                {
                    "name": "G6",
                    "midi": 91,
                    "time": 72.65625,
                    "velocity": 0.4881889763779528,
                    "duration": 0.09375
                },
                {
                    "name": "F6",
                    "midi": 89,
                    "time": 72.75,
                    "velocity": 0.5905511811023622,
                    "duration": 0.28125
                },
                {
                    "name": "A#5",
                    "midi": 82,
                    "time": 72.84375,
                    "velocity": 0.4094488188976378,
                    "duration": 0.28125
                },
                {
                    "name": "C#6",
                    "midi": 85,
                    "time": 72.84375,
                    "velocity": 0.47244094488188976,
                    "duration": 0.09375
                },
                {
                    "name": "C6",
                    "midi": 84,
                    "time": 72.9375,
                    "velocity": 0.4566929133858268,
                    "duration": 0.09375
                },
                {
                    "name": "E6",
                    "midi": 88,
                    "time": 73.03125,
                    "velocity": 0.4645669291338583,
                    "duration": 0.09375
                },
                {
                    "name": "F6",
                    "midi": 89,
                    "time": 73.125,
                    "velocity": 0.5748031496062992,
                    "duration": 0.09375
                },
                {
                    "name": "C6",
                    "midi": 84,
                    "time": 73.21875,
                    "velocity": 0.49606299212598426,
                    "duration": 0.09375
                },
                {
                    "name": "A5",
                    "midi": 81,
                    "time": 73.3125,
                    "velocity": 0.5196850393700787,
                    "duration": 0.09375
                },
                {
                    "name": "A6",
                    "midi": 93,
                    "time": 73.40625,
                    "velocity": 0.47244094488188976,
                    "duration": 0.09375
                },
                {
                    "name": "A3",
                    "midi": 57,
                    "time": 73.5703125,
                    "velocity": 0.3858267716535433,
                    "duration": 0.3046875
                },
                {
                    "name": "C4",
                    "midi": 60,
                    "time": 73.59375,
                    "velocity": 0.3858267716535433,
                    "duration": 0.28125
                },
                {
                    "name": "F4",
                    "midi": 65,
                    "time": 73.6171875,
                    "velocity": 0.4566929133858268,
                    "duration": 0.2578125
                },
                {
                    "name": "A4",
                    "midi": 69,
                    "time": 75,
                    "velocity": 0.3779527559055118,
                    "duration": 0.390625
                },
                {
                    "name": "C4",
                    "midi": 60,
                    "time": 75.09375,
                    "velocity": 0.25196850393700787,
                    "duration": 0.16953125000000568
                },
                {
                    "name": "D#4",
                    "midi": 63,
                    "time": 75.09375,
                    "velocity": 0.2992125984251969,
                    "duration": 0.16953125000000568
                },
                {
                    "name": "D#4",
                    "midi": 63,
                    "time": 75.28125,
                    "velocity": 0.2992125984251969,
                    "duration": 0.09375
                },
                {
                    "name": "C4",
                    "midi": 60,
                    "time": 75.28125,
                    "velocity": 0.25196850393700787,
                    "duration": 0.09375
                },
                {
                    "name": "A#4",
                    "midi": 70,
                    "time": 75.375,
                    "velocity": 0.3858267716535433,
                    "duration": 0.390625
                },
                {
                    "name": "E4",
                    "midi": 64,
                    "time": 75.46875,
                    "velocity": 0.3228346456692913,
                    "duration": 0.16953125000000568
                },
                {
                    "name": "C4",
                    "midi": 60,
                    "time": 75.46875,
                    "velocity": 0.2677165354330709,
                    "duration": 0.16953125000000568
                },
                {
                    "name": "E4",
                    "midi": 64,
                    "time": 75.65625,
                    "velocity": 0.3228346456692913,
                    "duration": 0.09375
                },
                {
                    "name": "C4",
                    "midi": 60,
                    "time": 75.65625,
                    "velocity": 0.2677165354330709,
                    "duration": 0.09375
                },
                {
                    "name": "B4",
                    "midi": 71,
                    "time": 75.75,
                    "velocity": 0.4251968503937008,
                    "duration": 0.390625
                },
                {
                    "name": "D4",
                    "midi": 62,
                    "time": 75.84375,
                    "velocity": 0.28346456692913385,
                    "duration": 0.16953125000000568
                },
                {
                    "name": "F4",
                    "midi": 65,
                    "time": 75.84375,
                    "velocity": 0.33858267716535434,
                    "duration": 0.16953125000000568
                },
                {
                    "name": "F4",
                    "midi": 65,
                    "time": 76.03125,
                    "velocity": 0.3464566929133858,
                    "duration": 0.09375
                },
                {
                    "name": "D4",
                    "midi": 62,
                    "time": 76.03125,
                    "velocity": 0.29133858267716534,
                    "duration": 0.09375
                },
                {
                    "name": "C5",
                    "midi": 72,
                    "time": 76.125,
                    "velocity": 0.47244094488188976,
                    "duration": 0.390625
                },
                {
                    "name": "C4",
                    "midi": 60,
                    "time": 76.21875,
                    "velocity": 0.2992125984251969,
                    "duration": 0.16953125000000568
                },
                {
                    "name": "F4",
                    "midi": 65,
                    "time": 76.21875,
                    "velocity": 0.36220472440944884,
                    "duration": 0.16953125000000568
                },
                {
                    "name": "F4",
                    "midi": 65,
                    "time": 76.40625,
                    "velocity": 0.3700787401574803,
                    "duration": 0.09375
                },
                {
                    "name": "C4",
                    "midi": 60,
                    "time": 76.40625,
                    "velocity": 0.30708661417322836,
                    "duration": 0.09375
                },
                {
                    "name": "C#5",
                    "midi": 73,
                    "time": 76.5,
                    "velocity": 0.5118110236220472,
                    "duration": 0.390625
                },
                {
                    "name": "G4",
                    "midi": 67,
                    "time": 76.59375,
                    "velocity": 0.3779527559055118,
                    "duration": 0.16953125000000568
                },
                {
                    "name": "E4",
                    "midi": 64,
                    "time": 76.59375,
                    "velocity": 0.31496062992125984,
                    "duration": 0.16953125000000568
                },
                {
                    "name": "G4",
                    "midi": 67,
                    "time": 76.78125,
                    "velocity": 0.3858267716535433,
                    "duration": 0.09375
                },
                {
                    "name": "E4",
                    "midi": 64,
                    "time": 76.78125,
                    "velocity": 0.3228346456692913,
                    "duration": 0.09375
                },
                {
                    "name": "D5",
                    "midi": 74,
                    "time": 76.875,
                    "velocity": 0.5354330708661418,
                    "duration": 0.390625
                },
                {
                    "name": "F4",
                    "midi": 65,
                    "time": 76.96875,
                    "velocity": 0.33858267716535434,
                    "duration": 0.16953125000000568
                },
                {
                    "name": "G#4",
                    "midi": 68,
                    "time": 76.96875,
                    "velocity": 0.4015748031496063,
                    "duration": 0.16953125000000568
                },
                {
                    "name": "G#4",
                    "midi": 68,
                    "time": 77.15625,
                    "velocity": 0.4094488188976378,
                    "duration": 0.09375
                },
                {
                    "name": "F4",
                    "midi": 65,
                    "time": 77.15625,
                    "velocity": 0.33858267716535434,
                    "duration": 0.09375
                },
                {
                    "name": "C5",
                    "midi": 72,
                    "time": 77.25,
                    "velocity": 0.5354330708661418,
                    "duration": 0.375
                },
                {
                    "name": "E4",
                    "midi": 64,
                    "time": 77.34375,
                    "velocity": 0.3464566929133858,
                    "duration": 0.16953125000000568
                },
                {
                    "name": "G4",
                    "midi": 67,
                    "time": 77.34375,
                    "velocity": 0.41732283464566927,
                    "duration": 0.16953125000000568
                },
                {
                    "name": "G4",
                    "midi": 67,
                    "time": 77.53125,
                    "velocity": 0.41732283464566927,
                    "duration": 0.09375
                },
                {
                    "name": "E4",
                    "midi": 64,
                    "time": 77.53125,
                    "velocity": 0.3543307086614173,
                    "duration": 0.09375
                },
                {
                    "name": "C5",
                    "midi": 72,
                    "time": 77.625,
                    "velocity": 0.5748031496062992,
                    "duration": 0.375
                },
                {
                    "name": "F4",
                    "midi": 65,
                    "time": 77.71875,
                    "velocity": 0.36220472440944884,
                    "duration": 0.17812499999999432
                },
                {
                    "name": "A4",
                    "midi": 69,
                    "time": 77.71875,
                    "velocity": 0.4330708661417323,
                    "duration": 0.17812499999999432
                },
                {
                    "name": "F4",
                    "midi": 65,
                    "time": 77.90625,
                    "velocity": 0.36220472440944884,
                    "duration": 0.09375
                },
                {
                    "name": "A4",
                    "midi": 69,
                    "time": 77.90625,
                    "velocity": 0.4330708661417323,
                    "duration": 0.09375
                },
                {
                    "name": "D5",
                    "midi": 74,
                    "time": 78,
                    "velocity": 0.6062992125984252,
                    "duration": 0.390625
                },
                {
                    "name": "A4",
                    "midi": 69,
                    "time": 78.09375,
                    "velocity": 0.4330708661417323,
                    "duration": 0.17812499999999432
                },
                {
                    "name": "D4",
                    "midi": 62,
                    "time": 78.09375,
                    "velocity": 0.3700787401574803,
                    "duration": 0.17812499999999432
                },
                {
                    "name": "D4",
                    "midi": 62,
                    "time": 78.28125,
                    "velocity": 0.3700787401574803,
                    "duration": 0.09375
                },
                {
                    "name": "A4",
                    "midi": 69,
                    "time": 78.28125,
                    "velocity": 0.4330708661417323,
                    "duration": 0.09375
                },
                {
                    "name": "A#4",
                    "midi": 70,
                    "time": 78.375,
                    "velocity": 0.5748031496062992,
                    "duration": 0.390625
                },
                {
                    "name": "G4",
                    "midi": 67,
                    "time": 78.46875,
                    "velocity": 0.41732283464566927,
                    "duration": 0.17812499999999432
                },
                {
                    "name": "D4",
                    "midi": 62,
                    "time": 78.46875,
                    "velocity": 0.3543307086614173,
                    "duration": 0.17812499999999432
                },
                {
                    "name": "G4",
                    "midi": 67,
                    "time": 78.65625,
                    "velocity": 0.3937007874015748,
                    "duration": 0.09375
                },
                {
                    "name": "D4",
                    "midi": 62,
                    "time": 78.65625,
                    "velocity": 0.33070866141732286,
                    "duration": 0.09375
                },
                {
                    "name": "C5",
                    "midi": 72,
                    "time": 78.75,
                    "velocity": 0.5433070866141733,
                    "duration": 0.390625
                },
                {
                    "name": "C4",
                    "midi": 60,
                    "time": 78.84375,
                    "velocity": 0.3464566929133858,
                    "duration": 0.17812499999999432
                },
                {
                    "name": "G4",
                    "midi": 67,
                    "time": 78.84375,
                    "velocity": 0.41732283464566927,
                    "duration": 0.17812499999999432
                },
                {
                    "name": "C4",
                    "midi": 60,
                    "time": 79.03125,
                    "velocity": 0.3464566929133858,
                    "duration": 0.09375
                },
                {
                    "name": "G4",
                    "midi": 67,
                    "time": 79.03125,
                    "velocity": 0.41732283464566927,
                    "duration": 0.09375
                },
                {
                    "name": "A4",
                    "midi": 69,
                    "time": 79.125,
                    "velocity": 0.5511811023622047,
                    "duration": 0.390625
                },
                {
                    "name": "F4",
                    "midi": 65,
                    "time": 79.21875,
                    "velocity": 0.3858267716535433,
                    "duration": 0.17812499999999432
                },
                {
                    "name": "C4",
                    "midi": 60,
                    "time": 79.21875,
                    "velocity": 0.3228346456692913,
                    "duration": 0.17812499999999432
                },
                {
                    "name": "C4",
                    "midi": 60,
                    "time": 79.40625,
                    "velocity": 0.3228346456692913,
                    "duration": 0.09375
                },
                {
                    "name": "F4",
                    "midi": 65,
                    "time": 79.40625,
                    "velocity": 0.3858267716535433,
                    "duration": 0.09375
                },
                {
                    "name": "G4",
                    "midi": 67,
                    "time": 79.5,
                    "velocity": 0.5118110236220472,
                    "duration": 0.390625
                },
                {
                    "name": "C#4",
                    "midi": 61,
                    "time": 79.59375,
                    "velocity": 0.3858267716535433,
                    "duration": 0.17812499999999432
                },
                {
                    "name": "A3",
                    "midi": 57,
                    "time": 79.59375,
                    "velocity": 0.3228346456692913,
                    "duration": 0.17812499999999432
                },
                {
                    "name": "A3",
                    "midi": 57,
                    "time": 79.78125,
                    "velocity": 0.3228346456692913,
                    "duration": 0.09375
                },
                {
                    "name": "C#4",
                    "midi": 61,
                    "time": 79.78125,
                    "velocity": 0.3858267716535433,
                    "duration": 0.09375
                },
                {
                    "name": "F4",
                    "midi": 65,
                    "time": 79.875,
                    "velocity": 0.48031496062992124,
                    "duration": 0.390625
                },
                {
                    "name": "A3",
                    "midi": 57,
                    "time": 79.96875,
                    "velocity": 0.31496062992125984,
                    "duration": 0.17812499999999432
                },
                {
                    "name": "D4",
                    "midi": 62,
                    "time": 79.96875,
                    "velocity": 0.3779527559055118,
                    "duration": 0.17812499999999432
                },
                {
                    "name": "D4",
                    "midi": 62,
                    "time": 80.15625,
                    "velocity": 0.3779527559055118,
                    "duration": 0.09375
                },
                {
                    "name": "A3",
                    "midi": 57,
                    "time": 80.15625,
                    "velocity": 0.31496062992125984,
                    "duration": 0.09375
                },
                {
                    "name": "D#4",
                    "midi": 63,
                    "time": 80.25,
                    "velocity": 0.4645669291338583,
                    "duration": 0.390625
                },
                {
                    "name": "A3",
                    "midi": 57,
                    "time": 80.34375,
                    "velocity": 0.36220472440944884,
                    "duration": 0.17812499999999432
                },
                {
                    "name": "F3",
                    "midi": 53,
                    "time": 80.34375,
                    "velocity": 0.30708661417322836,
                    "duration": 0.17812499999999432
                },
                {
                    "name": "F3",
                    "midi": 53,
                    "time": 80.53125,
                    "velocity": 0.30708661417322836,
                    "duration": 0.09375
                },
                {
                    "name": "A3",
                    "midi": 57,
                    "time": 80.53125,
                    "velocity": 0.36220472440944884,
                    "duration": 0.09375
                },
                {
                    "name": "D4",
                    "midi": 62,
                    "time": 80.625,
                    "velocity": 0.44881889763779526,
                    "duration": 0.390625
                },
                {
                    "name": "F3",
                    "midi": 53,
                    "time": 80.71875,
                    "velocity": 0.2992125984251969,
                    "duration": 0.17812499999999432
                },
                {
                    "name": "A#3",
                    "midi": 58,
                    "time": 80.71875,
                    "velocity": 0.3543307086614173,
                    "duration": 0.17812499999999432
                },
                {
                    "name": "F3",
                    "midi": 53,
                    "time": 80.90625,
                    "velocity": 0.2992125984251969,
                    "duration": 0.09375
                },
                {
                    "name": "A#3",
                    "midi": 58,
                    "time": 80.90625,
                    "velocity": 0.3543307086614173,
                    "duration": 0.09375
                },
                {
                    "name": "C4",
                    "midi": 60,
                    "time": 81,
                    "velocity": 0.4409448818897638,
                    "duration": 0.390625
                },
                {
                    "name": "D3",
                    "midi": 50,
                    "time": 81.09375,
                    "velocity": 0.28346456692913385,
                    "duration": 0.17812499999999432
                },
                {
                    "name": "F#3",
                    "midi": 54,
                    "time": 81.09375,
                    "velocity": 0.33858267716535434,
                    "duration": 0.17812499999999432
                },
                {
                    "name": "F#3",
                    "midi": 54,
                    "time": 81.28125,
                    "velocity": 0.33070866141732286,
                    "duration": 0.09375
                },
                {
                    "name": "D3",
                    "midi": 50,
                    "time": 81.28125,
                    "velocity": 0.2755905511811024,
                    "duration": 0.09375
                },
                {
                    "name": "A#3",
                    "midi": 58,
                    "time": 81.375,
                    "velocity": 0.4251968503937008,
                    "duration": 0.390625
                },
                {
                    "name": "G3",
                    "midi": 55,
                    "time": 81.46875,
                    "velocity": 0.33070866141732286,
                    "duration": 0.17812499999999432
                },
                {
                    "name": "D3",
                    "midi": 50,
                    "time": 81.46875,
                    "velocity": 0.2755905511811024,
                    "duration": 0.17812499999999432
                },
                {
                    "name": "D3",
                    "midi": 50,
                    "time": 81.65625,
                    "velocity": 0.2677165354330709,
                    "duration": 0.09375
                },
                {
                    "name": "G3",
                    "midi": 55,
                    "time": 81.65625,
                    "velocity": 0.3228346456692913,
                    "duration": 0.09375
                },
                {
                    "name": "B3",
                    "midi": 59,
                    "time": 81.75,
                    "velocity": 0.3858267716535433,
                    "duration": 0.390625
                },
                {
                    "name": "D3",
                    "midi": 50,
                    "time": 81.84375,
                    "velocity": 0.25196850393700787,
                    "duration": 0.17812499999999432
                },
                {
                    "name": "G#3",
                    "midi": 56,
                    "time": 81.84375,
                    "velocity": 0.2992125984251969,
                    "duration": 0.17812499999999432
                },
                {
                    "name": "D3",
                    "midi": 50,
                    "time": 82.03125,
                    "velocity": 0.25196850393700787,
                    "duration": 0.09375
                },
                {
                    "name": "G#3",
                    "midi": 56,
                    "time": 82.03125,
                    "velocity": 0.2992125984251969,
                    "duration": 0.09375
                },
                {
                    "name": "A#3",
                    "midi": 58,
                    "time": 82.125,
                    "velocity": 0.3228346456692913,
                    "duration": 0.375
                },
                {
                    "name": "C4",
                    "midi": 60,
                    "time": 82.125,
                    "velocity": 0.3858267716535433,
                    "duration": 0.375
                },
                {
                    "name": "C3",
                    "midi": 48,
                    "time": 82.21875,
                    "velocity": 0.23622047244094488,
                    "duration": 0.17812499999999432
                },
                {
                    "name": "G3",
                    "midi": 55,
                    "time": 82.21875,
                    "velocity": 0.28346456692913385,
                    "duration": 0.17812499999999432
                },
                {
                    "name": "G3",
                    "midi": 55,
                    "time": 82.40625,
                    "velocity": 0.28346456692913385,
                    "duration": 0.08906249999999716
                },
                {
                    "name": "C3",
                    "midi": 48,
                    "time": 82.40625,
                    "velocity": 0.23622047244094488,
                    "duration": 0.08906249999999716
                },
                {
                    "name": "A#3",
                    "midi": 58,
                    "time": 82.5,
                    "velocity": 0.31496062992125984,
                    "duration": 0.375
                },
                {
                    "name": "C4",
                    "midi": 60,
                    "time": 82.5,
                    "velocity": 0.3779527559055118,
                    "duration": 0.375
                },
                {
                    "name": "F#3",
                    "midi": 54,
                    "time": 82.59375,
                    "velocity": 0.29133858267716534,
                    "duration": 0.17812499999999432
                },
                {
                    "name": "C3",
                    "midi": 48,
                    "time": 82.59375,
                    "velocity": 0.2440944881889764,
                    "duration": 0.17812499999999432
                },
                {
                    "name": "C3",
                    "midi": 48,
                    "time": 82.78125,
                    "velocity": 0.2440944881889764,
                    "duration": 0.09375
                },
                {
                    "name": "F#3",
                    "midi": 54,
                    "time": 82.78125,
                    "velocity": 0.29133858267716534,
                    "duration": 0.09375
                },
                {
                    "name": "C4",
                    "midi": 60,
                    "time": 82.875,
                    "velocity": 0.3700787401574803,
                    "duration": 0.375
                },
                {
                    "name": "A#3",
                    "midi": 58,
                    "time": 82.875,
                    "velocity": 0.30708661417322836,
                    "duration": 0.375
                },
                {
                    "name": "C3",
                    "midi": 48,
                    "time": 82.96875,
                    "velocity": 0.23622047244094488,
                    "duration": 0.17812499999999432
                },
                {
                    "name": "G3",
                    "midi": 55,
                    "time": 82.96875,
                    "velocity": 0.2755905511811024,
                    "duration": 0.17812499999999432
                },
                {
                    "name": "G3",
                    "midi": 55,
                    "time": 83.15625,
                    "velocity": 0.2755905511811024,
                    "duration": 0.09375
                },
                {
                    "name": "C3",
                    "midi": 48,
                    "time": 83.15625,
                    "velocity": 0.23622047244094488,
                    "duration": 0.09375
                },
                {
                    "name": "C4",
                    "midi": 60,
                    "time": 83.25,
                    "velocity": 0.33858267716535434,
                    "duration": 0.375
                },
                {
                    "name": "A3",
                    "midi": 57,
                    "time": 83.34375,
                    "velocity": 0.2440944881889764,
                    "duration": 0.17812499999999432
                },
                {
                    "name": "F3",
                    "midi": 53,
                    "time": 83.34375,
                    "velocity": 0.2047244094488189,
                    "duration": 0.17812499999999432
                },
                {
                    "name": "A3",
                    "midi": 57,
                    "time": 83.53125,
                    "velocity": 0.23622047244094488,
                    "duration": 0.09375
                },
                {
                    "name": "F3",
                    "midi": 53,
                    "time": 83.53125,
                    "velocity": 0.1968503937007874,
                    "duration": 0.09375
                },
                {
                    "name": "F4",
                    "midi": 65,
                    "time": 83.625,
                    "velocity": 0.33858267716535434,
                    "duration": 0.375
                },
                {
                    "name": "A3",
                    "midi": 57,
                    "time": 83.71875,
                    "velocity": 0.1968503937007874,
                    "duration": 0.17812499999999432
                },
                {
                    "name": "C4",
                    "midi": 60,
                    "time": 83.71875,
                    "velocity": 0.23622047244094488,
                    "duration": 0.17812499999999432
                },
                {
                    "name": "C4",
                    "midi": 60,
                    "time": 83.90625,
                    "velocity": 0.23622047244094488,
                    "duration": 0.09375
                },
                {
                    "name": "A3",
                    "midi": 57,
                    "time": 83.90625,
                    "velocity": 0.1968503937007874,
                    "duration": 0.09375
                },
                {
                    "name": "A4",
                    "midi": 69,
                    "time": 84,
                    "velocity": 0.3543307086614173,
                    "duration": 0.390625
                },
                {
                    "name": "C4",
                    "midi": 60,
                    "time": 84.09375,
                    "velocity": 0.2204724409448819,
                    "duration": 0.17812499999999432
                },
                {
                    "name": "D#4",
                    "midi": 63,
                    "time": 84.09375,
                    "velocity": 0.2677165354330709,
                    "duration": 0.17812499999999432
                },
                {
                    "name": "C4",
                    "midi": 60,
                    "time": 84.28125,
                    "velocity": 0.25196850393700787,
                    "duration": 0.09375
                },
                {
                    "name": "D#4",
                    "midi": 63,
                    "time": 84.28125,
                    "velocity": 0.2992125984251969,
                    "duration": 0.09375
                },
                {
                    "name": "A#4",
                    "midi": 70,
                    "time": 84.375,
                    "velocity": 0.3858267716535433,
                    "duration": 0.390625
                },
                {
                    "name": "C4",
                    "midi": 60,
                    "time": 84.46875,
                    "velocity": 0.2677165354330709,
                    "duration": 0.17812499999999432
                },
                {
                    "name": "E4",
                    "midi": 64,
                    "time": 84.46875,
                    "velocity": 0.3228346456692913,
                    "duration": 0.17812499999999432
                },
                {
                    "name": "C4",
                    "midi": 60,
                    "time": 84.65625,
                    "velocity": 0.2677165354330709,
                    "duration": 0.09375
                },
                {
                    "name": "E4",
                    "midi": 64,
                    "time": 84.65625,
                    "velocity": 0.3228346456692913,
                    "duration": 0.09375
                },
                {
                    "name": "B4",
                    "midi": 71,
                    "time": 84.75,
                    "velocity": 0.4251968503937008,
                    "duration": 0.390625
                },
                {
                    "name": "D4",
                    "midi": 62,
                    "time": 84.84375,
                    "velocity": 0.28346456692913385,
                    "duration": 0.17812499999999432
                },
                {
                    "name": "F4",
                    "midi": 65,
                    "time": 84.84375,
                    "velocity": 0.33858267716535434,
                    "duration": 0.17812499999999432
                },
                {
                    "name": "D4",
                    "midi": 62,
                    "time": 85.03125,
                    "velocity": 0.29133858267716534,
                    "duration": 0.09375
                },
                {
                    "name": "F4",
                    "midi": 65,
                    "time": 85.03125,
                    "velocity": 0.3464566929133858,
                    "duration": 0.09375
                },
                {
                    "name": "C5",
                    "midi": 72,
                    "time": 85.125,
                    "velocity": 0.47244094488188976,
                    "duration": 0.390625
                },
                {
                    "name": "C4",
                    "midi": 60,
                    "time": 85.21875,
                    "velocity": 0.2992125984251969,
                    "duration": 0.17812499999999432
                },
                {
                    "name": "F4",
                    "midi": 65,
                    "time": 85.21875,
                    "velocity": 0.36220472440944884,
                    "duration": 0.17812499999999432
                },
                {
                    "name": "C4",
                    "midi": 60,
                    "time": 85.40625,
                    "velocity": 0.30708661417322836,
                    "duration": 0.09375
                },
                {
                    "name": "F4",
                    "midi": 65,
                    "time": 85.40625,
                    "velocity": 0.3700787401574803,
                    "duration": 0.09375
                },
                {
                    "name": "C#5",
                    "midi": 73,
                    "time": 85.5,
                    "velocity": 0.5118110236220472,
                    "duration": 0.390625
                },
                {
                    "name": "E4",
                    "midi": 64,
                    "time": 85.59375,
                    "velocity": 0.31496062992125984,
                    "duration": 0.17812499999999432
                },
                {
                    "name": "G4",
                    "midi": 67,
                    "time": 85.59375,
                    "velocity": 0.3779527559055118,
                    "duration": 0.17812499999999432
                },
                {
                    "name": "E4",
                    "midi": 64,
                    "time": 85.78125,
                    "velocity": 0.3228346456692913,
                    "duration": 0.09375
                },
                {
                    "name": "G4",
                    "midi": 67,
                    "time": 85.78125,
                    "velocity": 0.3858267716535433,
                    "duration": 0.09375
                },
                {
                    "name": "D5",
                    "midi": 74,
                    "time": 85.875,
                    "velocity": 0.5354330708661418,
                    "duration": 0.390625
                },
                {
                    "name": "F4",
                    "midi": 65,
                    "time": 85.96875,
                    "velocity": 0.33858267716535434,
                    "duration": 0.17812499999999432
                },
                {
                    "name": "G#4",
                    "midi": 68,
                    "time": 85.96875,
                    "velocity": 0.4015748031496063,
                    "duration": 0.17812499999999432
                },
                {
                    "name": "F4",
                    "midi": 65,
                    "time": 86.15625,
                    "velocity": 0.33858267716535434,
                    "duration": 0.09375
                },
                {
                    "name": "G#4",
                    "midi": 68,
                    "time": 86.15625,
                    "velocity": 0.4094488188976378,
                    "duration": 0.09375
                },
                {
                    "name": "C5",
                    "midi": 72,
                    "time": 86.25,
                    "velocity": 0.5354330708661418,
                    "duration": 0.375
                },
                {
                    "name": "E4",
                    "midi": 64,
                    "time": 86.34375,
                    "velocity": 0.3464566929133858,
                    "duration": 0.17812499999999432
                },
                {
                    "name": "G4",
                    "midi": 67,
                    "time": 86.34375,
                    "velocity": 0.41732283464566927,
                    "duration": 0.17812499999999432
                },
                {
                    "name": "E4",
                    "midi": 64,
                    "time": 86.53125,
                    "velocity": 0.3543307086614173,
                    "duration": 0.09375
                },
                {
                    "name": "G4",
                    "midi": 67,
                    "time": 86.53125,
                    "velocity": 0.41732283464566927,
                    "duration": 0.09375
                },
                {
                    "name": "C5",
                    "midi": 72,
                    "time": 86.625,
                    "velocity": 0.5748031496062992,
                    "duration": 0.375
                },
                {
                    "name": "F4",
                    "midi": 65,
                    "time": 86.71875,
                    "velocity": 0.36220472440944884,
                    "duration": 0.17812499999999432
                },
                {
                    "name": "A4",
                    "midi": 69,
                    "time": 86.71875,
                    "velocity": 0.4330708661417323,
                    "duration": 0.17812499999999432
                },
                {
                    "name": "F4",
                    "midi": 65,
                    "time": 86.90625,
                    "velocity": 0.36220472440944884,
                    "duration": 0.09375
                },
                {
                    "name": "A4",
                    "midi": 69,
                    "time": 86.90625,
                    "velocity": 0.4330708661417323,
                    "duration": 0.09375
                },
                {
                    "name": "D5",
                    "midi": 74,
                    "time": 87,
                    "velocity": 0.6062992125984252,
                    "duration": 0.390625
                },
                {
                    "name": "D4",
                    "midi": 62,
                    "time": 87.09375,
                    "velocity": 0.3700787401574803,
                    "duration": 0.17812499999999432
                },
                {
                    "name": "A4",
                    "midi": 69,
                    "time": 87.09375,
                    "velocity": 0.4330708661417323,
                    "duration": 0.17812499999999432
                },
                {
                    "name": "D4",
                    "midi": 62,
                    "time": 87.28125,
                    "velocity": 0.3700787401574803,
                    "duration": 0.09375
                },
                {
                    "name": "A4",
                    "midi": 69,
                    "time": 87.28125,
                    "velocity": 0.4330708661417323,
                    "duration": 0.09375
                },
                {
                    "name": "A#4",
                    "midi": 70,
                    "time": 87.375,
                    "velocity": 0.5748031496062992,
                    "duration": 0.390625
                },
                {
                    "name": "D4",
                    "midi": 62,
                    "time": 87.46875,
                    "velocity": 0.3543307086614173,
                    "duration": 0.17812499999999432
                },
                {
                    "name": "G4",
                    "midi": 67,
                    "time": 87.46875,
                    "velocity": 0.41732283464566927,
                    "duration": 0.17812499999999432
                },
                {
                    "name": "D4",
                    "midi": 62,
                    "time": 87.65625,
                    "velocity": 0.33070866141732286,
                    "duration": 0.09375
                },
                {
                    "name": "G4",
                    "midi": 67,
                    "time": 87.65625,
                    "velocity": 0.3937007874015748,
                    "duration": 0.09375
                },
                {
                    "name": "C5",
                    "midi": 72,
                    "time": 87.75,
                    "velocity": 0.5433070866141733,
                    "duration": 0.390625
                },
                {
                    "name": "C4",
                    "midi": 60,
                    "time": 87.84375,
                    "velocity": 0.3464566929133858,
                    "duration": 0.17812499999999432
                },
                {
                    "name": "G4",
                    "midi": 67,
                    "time": 87.84375,
                    "velocity": 0.41732283464566927,
                    "duration": 0.17812499999999432
                },
                {
                    "name": "C4",
                    "midi": 60,
                    "time": 88.03125,
                    "velocity": 0.3464566929133858,
                    "duration": 0.09375
                },
                {
                    "name": "G4",
                    "midi": 67,
                    "time": 88.03125,
                    "velocity": 0.41732283464566927,
                    "duration": 0.09375
                },
                {
                    "name": "A4",
                    "midi": 69,
                    "time": 88.125,
                    "velocity": 0.5511811023622047,
                    "duration": 0.390625
                },
                {
                    "name": "C4",
                    "midi": 60,
                    "time": 88.21875,
                    "velocity": 0.3228346456692913,
                    "duration": 0.17812499999999432
                },
                {
                    "name": "F4",
                    "midi": 65,
                    "time": 88.21875,
                    "velocity": 0.3858267716535433,
                    "duration": 0.17812499999999432
                },
                {
                    "name": "C4",
                    "midi": 60,
                    "time": 88.40625,
                    "velocity": 0.3228346456692913,
                    "duration": 0.09375
                },
                {
                    "name": "F4",
                    "midi": 65,
                    "time": 88.40625,
                    "velocity": 0.3858267716535433,
                    "duration": 0.09375
                },
                {
                    "name": "G4",
                    "midi": 67,
                    "time": 88.5,
                    "velocity": 0.5118110236220472,
                    "duration": 0.390625
                },
                {
                    "name": "A3",
                    "midi": 57,
                    "time": 88.59375,
                    "velocity": 0.3228346456692913,
                    "duration": 0.17812499999999432
                },
                {
                    "name": "C#4",
                    "midi": 61,
                    "time": 88.59375,
                    "velocity": 0.3858267716535433,
                    "duration": 0.17812499999999432
                },
                {
                    "name": "A3",
                    "midi": 57,
                    "time": 88.78125,
                    "velocity": 0.3228346456692913,
                    "duration": 0.09375
                },
                {
                    "name": "C#4",
                    "midi": 61,
                    "time": 88.78125,
                    "velocity": 0.3858267716535433,
                    "duration": 0.09375
                },
                {
                    "name": "F4",
                    "midi": 65,
                    "time": 88.875,
                    "velocity": 0.48031496062992124,
                    "duration": 0.390625
                },
                {
                    "name": "A3",
                    "midi": 57,
                    "time": 88.96875,
                    "velocity": 0.31496062992125984,
                    "duration": 0.17812499999999432
                },
                {
                    "name": "D4",
                    "midi": 62,
                    "time": 88.96875,
                    "velocity": 0.3779527559055118,
                    "duration": 0.17812499999999432
                },
                {
                    "name": "A3",
                    "midi": 57,
                    "time": 89.15625,
                    "velocity": 0.31496062992125984,
                    "duration": 0.09375
                },
                {
                    "name": "D4",
                    "midi": 62,
                    "time": 89.15625,
                    "velocity": 0.3779527559055118,
                    "duration": 0.09375
                },
                {
                    "name": "D#4",
                    "midi": 63,
                    "time": 89.25,
                    "velocity": 0.4645669291338583,
                    "duration": 0.390625
                },
                {
                    "name": "F3",
                    "midi": 53,
                    "time": 89.34375,
                    "velocity": 0.30708661417322836,
                    "duration": 0.17812499999999432
                },
                {
                    "name": "A3",
                    "midi": 57,
                    "time": 89.34375,
                    "velocity": 0.36220472440944884,
                    "duration": 0.17812499999999432
                },
                {
                    "name": "F3",
                    "midi": 53,
                    "time": 89.53125,
                    "velocity": 0.30708661417322836,
                    "duration": 0.09375
                },
                {
                    "name": "A3",
                    "midi": 57,
                    "time": 89.53125,
                    "velocity": 0.36220472440944884,
                    "duration": 0.09375
                },
                {
                    "name": "D4",
                    "midi": 62,
                    "time": 89.625,
                    "velocity": 0.44881889763779526,
                    "duration": 0.390625
                },
                {
                    "name": "F3",
                    "midi": 53,
                    "time": 89.71875,
                    "velocity": 0.2992125984251969,
                    "duration": 0.17812499999999432
                },
                {
                    "name": "A#3",
                    "midi": 58,
                    "time": 89.71875,
                    "velocity": 0.3543307086614173,
                    "duration": 0.17812499999999432
                },
                {
                    "name": "F3",
                    "midi": 53,
                    "time": 89.90625,
                    "velocity": 0.2992125984251969,
                    "duration": 0.09375
                },
                {
                    "name": "A#3",
                    "midi": 58,
                    "time": 89.90625,
                    "velocity": 0.3543307086614173,
                    "duration": 0.09375
                },
                {
                    "name": "C4",
                    "midi": 60,
                    "time": 90,
                    "velocity": 0.4409448818897638,
                    "duration": 0.390625
                },
                {
                    "name": "D3",
                    "midi": 50,
                    "time": 90.09375,
                    "velocity": 0.28346456692913385,
                    "duration": 0.17812499999999432
                },
                {
                    "name": "F#3",
                    "midi": 54,
                    "time": 90.09375,
                    "velocity": 0.33858267716535434,
                    "duration": 0.17812499999999432
                },
                {
                    "name": "D3",
                    "midi": 50,
                    "time": 90.28125,
                    "velocity": 0.2755905511811024,
                    "duration": 0.09375
                },
                {
                    "name": "F#3",
                    "midi": 54,
                    "time": 90.28125,
                    "velocity": 0.33070866141732286,
                    "duration": 0.09375
                },
                {
                    "name": "A#3",
                    "midi": 58,
                    "time": 90.375,
                    "velocity": 0.4251968503937008,
                    "duration": 0.390625
                },
                {
                    "name": "D3",
                    "midi": 50,
                    "time": 90.46875,
                    "velocity": 0.2755905511811024,
                    "duration": 0.17812499999999432
                },
                {
                    "name": "G3",
                    "midi": 55,
                    "time": 90.46875,
                    "velocity": 0.33070866141732286,
                    "duration": 0.17812499999999432
                },
                {
                    "name": "D3",
                    "midi": 50,
                    "time": 90.65625,
                    "velocity": 0.2677165354330709,
                    "duration": 0.09375
                },
                {
                    "name": "G3",
                    "midi": 55,
                    "time": 90.65625,
                    "velocity": 0.3228346456692913,
                    "duration": 0.09375
                },
                {
                    "name": "B3",
                    "midi": 59,
                    "time": 90.75,
                    "velocity": 0.3858267716535433,
                    "duration": 0.390625
                },
                {
                    "name": "D3",
                    "midi": 50,
                    "time": 90.84375,
                    "velocity": 0.25196850393700787,
                    "duration": 0.17812499999999432
                },
                {
                    "name": "G#3",
                    "midi": 56,
                    "time": 90.84375,
                    "velocity": 0.2992125984251969,
                    "duration": 0.17812499999999432
                },
                {
                    "name": "D3",
                    "midi": 50,
                    "time": 91.03125,
                    "velocity": 0.25196850393700787,
                    "duration": 0.09375
                },
                {
                    "name": "G#3",
                    "midi": 56,
                    "time": 91.03125,
                    "velocity": 0.2992125984251969,
                    "duration": 0.09375
                },
                {
                    "name": "C4",
                    "midi": 60,
                    "time": 91.125,
                    "velocity": 0.3858267716535433,
                    "duration": 0.375
                },
                {
                    "name": "A#3",
                    "midi": 58,
                    "time": 91.125,
                    "velocity": 0.3228346456692913,
                    "duration": 0.375
                },
                {
                    "name": "C3",
                    "midi": 48,
                    "time": 91.21875,
                    "velocity": 0.23622047244094488,
                    "duration": 0.17812499999999432
                },
                {
                    "name": "G3",
                    "midi": 55,
                    "time": 91.21875,
                    "velocity": 0.28346456692913385,
                    "duration": 0.17812499999999432
                },
                {
                    "name": "C3",
                    "midi": 48,
                    "time": 91.40625,
                    "velocity": 0.23622047244094488,
                    "duration": 0.09375
                },
                {
                    "name": "G3",
                    "midi": 55,
                    "time": 91.40625,
                    "velocity": 0.28346456692913385,
                    "duration": 0.09375
                },
                {
                    "name": "C4",
                    "midi": 60,
                    "time": 91.5,
                    "velocity": 0.3779527559055118,
                    "duration": 0.375
                },
                {
                    "name": "A#3",
                    "midi": 58,
                    "time": 91.5,
                    "velocity": 0.31496062992125984,
                    "duration": 0.375
                },
                {
                    "name": "C3",
                    "midi": 48,
                    "time": 91.59375,
                    "velocity": 0.2440944881889764,
                    "duration": 0.17812499999999432
                },
                {
                    "name": "F#3",
                    "midi": 54,
                    "time": 91.59375,
                    "velocity": 0.29133858267716534,
                    "duration": 0.17812499999999432
                },
                {
                    "name": "C3",
                    "midi": 48,
                    "time": 91.78125,
                    "velocity": 0.2440944881889764,
                    "duration": 0.09375
                },
                {
                    "name": "F#3",
                    "midi": 54,
                    "time": 91.78125,
                    "velocity": 0.29133858267716534,
                    "duration": 0.09375
                },
                {
                    "name": "C4",
                    "midi": 60,
                    "time": 91.875,
                    "velocity": 0.3700787401574803,
                    "duration": 0.375
                },
                {
                    "name": "A#3",
                    "midi": 58,
                    "time": 91.875,
                    "velocity": 0.30708661417322836,
                    "duration": 0.375
                },
                {
                    "name": "C3",
                    "midi": 48,
                    "time": 91.96875,
                    "velocity": 0.23622047244094488,
                    "duration": 0.17812499999999432
                },
                {
                    "name": "G3",
                    "midi": 55,
                    "time": 91.96875,
                    "velocity": 0.2755905511811024,
                    "duration": 0.17812499999999432
                },
                {
                    "name": "C3",
                    "midi": 48,
                    "time": 92.15625,
                    "velocity": 0.23622047244094488,
                    "duration": 0.09375
                },
                {
                    "name": "G3",
                    "midi": 55,
                    "time": 92.15625,
                    "velocity": 0.2755905511811024,
                    "duration": 0.09375
                },
                {
                    "name": "A3",
                    "midi": 57,
                    "time": 92.25,
                    "velocity": 0.28346456692913385,
                    "duration": 0.375
                },
                {
                    "name": "C4",
                    "midi": 60,
                    "time": 92.25,
                    "velocity": 0.33858267716535434,
                    "duration": 0.375
                },
                {
                    "name": "C3",
                    "midi": 48,
                    "time": 92.34375,
                    "velocity": 0.2047244094488189,
                    "duration": 0.17812499999999432
                },
                {
                    "name": "F3",
                    "midi": 53,
                    "time": 92.34375,
                    "velocity": 0.2440944881889764,
                    "duration": 0.17812499999999432
                },
                {
                    "name": "C3",
                    "midi": 48,
                    "time": 92.53125,
                    "velocity": 0.1968503937007874,
                    "duration": 0.09375
                },
                {
                    "name": "F3",
                    "midi": 53,
                    "time": 92.53125,
                    "velocity": 0.23622047244094488,
                    "duration": 0.09375
                },
                {
                    "name": "A3",
                    "midi": 57,
                    "time": 92.625,
                    "velocity": 0.28346456692913385,
                    "duration": 0.375
                },
                {
                    "name": "C4",
                    "midi": 60,
                    "time": 92.625,
                    "velocity": 0.33858267716535434,
                    "duration": 0.375
                },
                {
                    "name": "C3",
                    "midi": 48,
                    "time": 92.71875,
                    "velocity": 0.1968503937007874,
                    "duration": 0.17812499999999432
                },
                {
                    "name": "F3",
                    "midi": 53,
                    "time": 92.71875,
                    "velocity": 0.23622047244094488,
                    "duration": 0.17812499999999432
                },
                {
                    "name": "C3",
                    "midi": 48,
                    "time": 92.90625,
                    "velocity": 0.1968503937007874,
                    "duration": 0.09375
                },
                {
                    "name": "F3",
                    "midi": 53,
                    "time": 92.90625,
                    "velocity": 0.23622047244094488,
                    "duration": 0.09375
                },
                {
                    "name": "F4",
                    "midi": 65,
                    "time": 93,
                    "velocity": 0.3779527559055118,
                    "duration": 0.390625
                },
                {
                    "name": "A3",
                    "midi": 57,
                    "time": 93.09375,
                    "velocity": 0.23622047244094488,
                    "duration": 0.17812499999999432
                },
                {
                    "name": "C4",
                    "midi": 60,
                    "time": 93.09375,
                    "velocity": 0.28346456692913385,
                    "duration": 0.17812499999999432
                },
                {
                    "name": "A3",
                    "midi": 57,
                    "time": 93.28125,
                    "velocity": 0.25196850393700787,
                    "duration": 0.09375
                },
                {
                    "name": "C4",
                    "midi": 60,
                    "time": 93.28125,
                    "velocity": 0.2992125984251969,
                    "duration": 0.09375
                },
                {
                    "name": "E4",
                    "midi": 64,
                    "time": 93.375,
                    "velocity": 0.3858267716535433,
                    "duration": 0.390625
                },
                {
                    "name": "G3",
                    "midi": 55,
                    "time": 93.46875,
                    "velocity": 0.2677165354330709,
                    "duration": 0.17812499999999432
                },
                {
                    "name": "A#3",
                    "midi": 58,
                    "time": 93.46875,
                    "velocity": 0.3228346456692913,
                    "duration": 0.17812499999999432
                },
                {
                    "name": "G3",
                    "midi": 55,
                    "time": 93.65625,
                    "velocity": 0.2677165354330709,
                    "duration": 0.09375
                },
                {
                    "name": "A#3",
                    "midi": 58,
                    "time": 93.65625,
                    "velocity": 0.3228346456692913,
                    "duration": 0.09375
                },
                {
                    "name": "D4",
                    "midi": 62,
                    "time": 93.75,
                    "velocity": 0.4251968503937008,
                    "duration": 0.390625
                },
                {
                    "name": "F3",
                    "midi": 53,
                    "time": 93.84375,
                    "velocity": 0.28346456692913385,
                    "duration": 0.17812499999999432
                },
                {
                    "name": "B3",
                    "midi": 59,
                    "time": 93.84375,
                    "velocity": 0.33858267716535434,
                    "duration": 0.17812499999999432
                },
                {
                    "name": "F3",
                    "midi": 53,
                    "time": 94.03125,
                    "velocity": 0.29133858267716534,
                    "duration": 0.09375
                },
                {
                    "name": "B3",
                    "midi": 59,
                    "time": 94.03125,
                    "velocity": 0.3464566929133858,
                    "duration": 0.09375
                },
                {
                    "name": "C#4",
                    "midi": 61,
                    "time": 94.125,
                    "velocity": 0.47244094488188976,
                    "duration": 0.390625
                },
                {
                    "name": "E3",
                    "midi": 52,
                    "time": 94.21875,
                    "velocity": 0.2992125984251969,
                    "duration": 0.17812499999999432
                },
                {
                    "name": "A3",
                    "midi": 57,
                    "time": 94.21875,
                    "velocity": 0.36220472440944884,
                    "duration": 0.17812499999999432
                },
                {
                    "name": "E3",
                    "midi": 52,
                    "time": 94.40625,
                    "velocity": 0.30708661417322836,
                    "duration": 0.09375
                },
                {
                    "name": "A3",
                    "midi": 57,
                    "time": 94.40625,
                    "velocity": 0.3700787401574803,
                    "duration": 0.09375
                },
                {
                    "name": "D4",
                    "midi": 62,
                    "time": 94.5,
                    "velocity": 0.5118110236220472,
                    "duration": 0.390625
                },
                {
                    "name": "F3",
                    "midi": 53,
                    "time": 94.59375,
                    "velocity": 0.31496062992125984,
                    "duration": 0.17812499999999432
                },
                {
                    "name": "G#3",
                    "midi": 56,
                    "time": 94.59375,
                    "velocity": 0.3779527559055118,
                    "duration": 0.17812499999999432
                },
                {
                    "name": "F3",
                    "midi": 53,
                    "time": 94.78125,
                    "velocity": 0.3228346456692913,
                    "duration": 0.09375
                },
                {
                    "name": "G#3",
                    "midi": 56,
                    "time": 94.78125,
                    "velocity": 0.3858267716535433,
                    "duration": 0.09375
                },
                {
                    "name": "D#4",
                    "midi": 63,
                    "time": 94.875,
                    "velocity": 0.5354330708661418,
                    "duration": 0.390625
                },
                {
                    "name": "F#3",
                    "midi": 54,
                    "time": 94.96875,
                    "velocity": 0.33858267716535434,
                    "duration": 0.17812499999999432
                },
                {
                    "name": "A3",
                    "midi": 57,
                    "time": 94.96875,
                    "velocity": 0.4015748031496063,
                    "duration": 0.17812499999999432
                },
                {
                    "name": "F#3",
                    "midi": 54,
                    "time": 95.15625,
                    "velocity": 0.33858267716535434,
                    "duration": 0.09375
                },
                {
                    "name": "A3",
                    "midi": 57,
                    "time": 95.15625,
                    "velocity": 0.4094488188976378,
                    "duration": 0.09375
                },
                {
                    "name": "E4",
                    "midi": 64,
                    "time": 95.25,
                    "velocity": 0.5354330708661418,
                    "duration": 0.390625
                },
                {
                    "name": "G3",
                    "midi": 55,
                    "time": 95.34375,
                    "velocity": 0.3464566929133858,
                    "duration": 0.17812499999999432
                },
                {
                    "name": "A3",
                    "midi": 57,
                    "time": 95.34375,
                    "velocity": 0.41732283464566927,
                    "duration": 0.17812499999999432
                },
                {
                    "name": "G3",
                    "midi": 55,
                    "time": 95.53125,
                    "velocity": 0.3543307086614173,
                    "duration": 0.09375
                },
                {
                    "name": "A3",
                    "midi": 57,
                    "time": 95.53125,
                    "velocity": 0.41732283464566927,
                    "duration": 0.09375
                },
                {
                    "name": "F4",
                    "midi": 65,
                    "time": 95.625,
                    "velocity": 0.5748031496062992,
                    "duration": 0.375
                },
                {
                    "name": "F3",
                    "midi": 53,
                    "time": 95.71875,
                    "velocity": 0.36220472440944884,
                    "duration": 0.17812499999999432
                },
                {
                    "name": "A3",
                    "midi": 57,
                    "time": 95.71875,
                    "velocity": 0.4330708661417323,
                    "duration": 0.17812499999999432
                },
                {
                    "name": "F3",
                    "midi": 53,
                    "time": 95.90625,
                    "velocity": 0.36220472440944884,
                    "duration": 0.09375
                },
                {
                    "name": "A3",
                    "midi": 57,
                    "time": 95.90625,
                    "velocity": 0.4330708661417323,
                    "duration": 0.09375
                },
                {
                    "name": "C#4",
                    "midi": 61,
                    "time": 96,
                    "velocity": 0.6062992125984252,
                    "duration": 0.390625
                },
                {
                    "name": "G3",
                    "midi": 55,
                    "time": 96.09375,
                    "velocity": 0.3700787401574803,
                    "duration": 0.17812499999999432
                },
                {
                    "name": "A#3",
                    "midi": 58,
                    "time": 96.09375,
                    "velocity": 0.4330708661417323,
                    "duration": 0.17812499999999432
                },
                {
                    "name": "G3",
                    "midi": 55,
                    "time": 96.28125,
                    "velocity": 0.3700787401574803,
                    "duration": 0.09375
                },
                {
                    "name": "A#3",
                    "midi": 58,
                    "time": 96.28125,
                    "velocity": 0.4330708661417323,
                    "duration": 0.09375
                },
                {
                    "name": "D4",
                    "midi": 62,
                    "time": 96.375,
                    "velocity": 0.5748031496062992,
                    "duration": 0.390625
                },
                {
                    "name": "F3",
                    "midi": 53,
                    "time": 96.46875,
                    "velocity": 0.3543307086614173,
                    "duration": 0.17812499999999432
                },
                {
                    "name": "A3",
                    "midi": 57,
                    "time": 96.46875,
                    "velocity": 0.41732283464566927,
                    "duration": 0.17812499999999432
                },
                {
                    "name": "F3",
                    "midi": 53,
                    "time": 96.65625,
                    "velocity": 0.33070866141732286,
                    "duration": 0.09375
                },
                {
                    "name": "A3",
                    "midi": 57,
                    "time": 96.65625,
                    "velocity": 0.3937007874015748,
                    "duration": 0.09375
                },
                {
                    "name": "C4",
                    "midi": 60,
                    "time": 96.75,
                    "velocity": 0.5433070866141733,
                    "duration": 0.390625
                },
                {
                    "name": "D3",
                    "midi": 50,
                    "time": 96.84375,
                    "velocity": 0.3464566929133858,
                    "duration": 0.17812499999999432
                },
                {
                    "name": "A3",
                    "midi": 57,
                    "time": 96.84375,
                    "velocity": 0.41732283464566927,
                    "duration": 0.17812499999999432
                },
                {
                    "name": "D3",
                    "midi": 50,
                    "time": 97.03125,
                    "velocity": 0.3464566929133858,
                    "duration": 0.09375
                },
                {
                    "name": "A3",
                    "midi": 57,
                    "time": 97.03125,
                    "velocity": 0.41732283464566927,
                    "duration": 0.09375
                },
                {
                    "name": "A#3",
                    "midi": 58,
                    "time": 97.125,
                    "velocity": 0.5511811023622047,
                    "duration": 0.375
                },
                {
                    "name": "D3",
                    "midi": 50,
                    "time": 97.21875,
                    "velocity": 0.3228346456692913,
                    "duration": 0.17812499999999432
                },
                {
                    "name": "G3",
                    "midi": 55,
                    "time": 97.21875,
                    "velocity": 0.3858267716535433,
                    "duration": 0.17812499999999432
                },
                {
                    "name": "D3",
                    "midi": 50,
                    "time": 97.40625,
                    "velocity": 0.3228346456692913,
                    "duration": 0.09375
                },
                {
                    "name": "G3",
                    "midi": 55,
                    "time": 97.40625,
                    "velocity": 0.3858267716535433,
                    "duration": 0.09375
                },
                {
                    "name": "B3",
                    "midi": 59,
                    "time": 97.5,
                    "velocity": 0.5118110236220472,
                    "duration": 0.390625
                },
                {
                    "name": "D3",
                    "midi": 50,
                    "time": 97.59375,
                    "velocity": 0.3228346456692913,
                    "duration": 0.17812499999999432
                },
                {
                    "name": "F3",
                    "midi": 53,
                    "time": 97.59375,
                    "velocity": 0.3858267716535433,
                    "duration": 0.17812499999999432
                },
                {
                    "name": "D3",
                    "midi": 50,
                    "time": 97.78125,
                    "velocity": 0.3228346456692913,
                    "duration": 0.09375
                },
                {
                    "name": "F3",
                    "midi": 53,
                    "time": 97.78125,
                    "velocity": 0.3858267716535433,
                    "duration": 0.09375
                },
                {
                    "name": "C4",
                    "midi": 60,
                    "time": 97.875,
                    "velocity": 0.48031496062992124,
                    "duration": 0.390625
                },
                {
                    "name": "C3",
                    "midi": 48,
                    "time": 97.96875,
                    "velocity": 0.31496062992125984,
                    "duration": 0.17812499999999432
                },
                {
                    "name": "F3",
                    "midi": 53,
                    "time": 97.96875,
                    "velocity": 0.3779527559055118,
                    "duration": 0.17812499999999432
                },
                {
                    "name": "C3",
                    "midi": 48,
                    "time": 98.15625,
                    "velocity": 0.31496062992125984,
                    "duration": 0.09375
                },
                {
                    "name": "F3",
                    "midi": 53,
                    "time": 98.15625,
                    "velocity": 0.3779527559055118,
                    "duration": 0.09375
                },
                {
                    "name": "B3",
                    "midi": 59,
                    "time": 98.25,
                    "velocity": 0.4645669291338583,
                    "duration": 0.390625
                },
                {
                    "name": "D3",
                    "midi": 50,
                    "time": 98.34375,
                    "velocity": 0.30708661417322836,
                    "duration": 0.17812499999999432
                },
                {
                    "name": "F3",
                    "midi": 53,
                    "time": 98.34375,
                    "velocity": 0.36220472440944884,
                    "duration": 0.17812499999999432
                },
                {
                    "name": "D3",
                    "midi": 50,
                    "time": 98.53125,
                    "velocity": 0.30708661417322836,
                    "duration": 0.09375
                },
                {
                    "name": "F3",
                    "midi": 53,
                    "time": 98.53125,
                    "velocity": 0.36220472440944884,
                    "duration": 0.09375
                },
                {
                    "name": "C4",
                    "midi": 60,
                    "time": 98.625,
                    "velocity": 0.44881889763779526,
                    "duration": 0.390625
                },
                {
                    "name": "C3",
                    "midi": 48,
                    "time": 98.71875,
                    "velocity": 0.2992125984251969,
                    "duration": 0.17812499999999432
                },
                {
                    "name": "F3",
                    "midi": 53,
                    "time": 98.71875,
                    "velocity": 0.3543307086614173,
                    "duration": 0.17812499999999432
                },
                {
                    "name": "C3",
                    "midi": 48,
                    "time": 98.90625,
                    "velocity": 0.2992125984251969,
                    "duration": 0.09375
                },
                {
                    "name": "F3",
                    "midi": 53,
                    "time": 98.90625,
                    "velocity": 0.3543307086614173,
                    "duration": 0.09375
                },
                {
                    "name": "B3",
                    "midi": 59,
                    "time": 99,
                    "velocity": 0.4409448818897638,
                    "duration": 0.390625
                },
                {
                    "name": "D3",
                    "midi": 50,
                    "time": 99.09375,
                    "velocity": 0.28346456692913385,
                    "duration": 0.17812499999999432
                },
                {
                    "name": "F3",
                    "midi": 53,
                    "time": 99.09375,
                    "velocity": 0.33858267716535434,
                    "duration": 0.17812499999999432
                },
                {
                    "name": "D3",
                    "midi": 50,
                    "time": 99.28125,
                    "velocity": 0.2755905511811024,
                    "duration": 0.09375
                },
                {
                    "name": "F3",
                    "midi": 53,
                    "time": 99.28125,
                    "velocity": 0.33070866141732286,
                    "duration": 0.09375
                },
                {
                    "name": "C4",
                    "midi": 60,
                    "time": 99.375,
                    "velocity": 0.4251968503937008,
                    "duration": 0.390625
                },
                {
                    "name": "D3",
                    "midi": 50,
                    "time": 99.46875,
                    "velocity": 0.2755905511811024,
                    "duration": 0.17812499999999432
                },
                {
                    "name": "F3",
                    "midi": 53,
                    "time": 99.46875,
                    "velocity": 0.33070866141732286,
                    "duration": 0.17812499999999432
                },
                {
                    "name": "D3",
                    "midi": 50,
                    "time": 99.65625,
                    "velocity": 0.2677165354330709,
                    "duration": 0.09375
                },
                {
                    "name": "F3",
                    "midi": 53,
                    "time": 99.65625,
                    "velocity": 0.3228346456692913,
                    "duration": 0.09375
                },
                {
                    "name": "B3",
                    "midi": 59,
                    "time": 99.75,
                    "velocity": 0.3858267716535433,
                    "duration": 0.375
                },
                {
                    "name": "D3",
                    "midi": 50,
                    "time": 99.84375,
                    "velocity": 0.25196850393700787,
                    "duration": 0.17812499999999432
                },
                {
                    "name": "F3",
                    "midi": 53,
                    "time": 99.84375,
                    "velocity": 0.2992125984251969,
                    "duration": 0.17812499999999432
                },
                {
                    "name": "D3",
                    "midi": 50,
                    "time": 100.03125,
                    "velocity": 0.25196850393700787,
                    "duration": 0.09375
                },
                {
                    "name": "F3",
                    "midi": 53,
                    "time": 100.03125,
                    "velocity": 0.2992125984251969,
                    "duration": 0.09375
                },
                {
                    "name": "C4",
                    "midi": 60,
                    "time": 100.125,
                    "velocity": 0.3858267716535433,
                    "duration": 0.375
                },
                {
                    "name": "A#3",
                    "midi": 58,
                    "time": 100.125,
                    "velocity": 0.3228346456692913,
                    "duration": 0.375
                },
                {
                    "name": "C3",
                    "midi": 48,
                    "time": 100.21875,
                    "velocity": 0.23622047244094488,
                    "duration": 0.17812499999999432
                },
                {
                    "name": "G3",
                    "midi": 55,
                    "time": 100.21875,
                    "velocity": 0.28346456692913385,
                    "duration": 0.17812499999999432
                },
                {
                    "name": "C3",
                    "midi": 48,
                    "time": 100.40625,
                    "velocity": 0.23622047244094488,
                    "duration": 0.09375
                },
                {
                    "name": "G3",
                    "midi": 55,
                    "time": 100.40625,
                    "velocity": 0.28346456692913385,
                    "duration": 0.09375
                },
                {
                    "name": "C4",
                    "midi": 60,
                    "time": 100.5,
                    "velocity": 0.3779527559055118,
                    "duration": 0.375
                },
                {
                    "name": "A#3",
                    "midi": 58,
                    "time": 100.5,
                    "velocity": 0.31496062992125984,
                    "duration": 0.375
                },
                {
                    "name": "C3",
                    "midi": 48,
                    "time": 100.59375,
                    "velocity": 0.2440944881889764,
                    "duration": 0.17812499999999432
                },
                {
                    "name": "F#3",
                    "midi": 54,
                    "time": 100.59375,
                    "velocity": 0.29133858267716534,
                    "duration": 0.17812499999999432
                },
                {
                    "name": "C3",
                    "midi": 48,
                    "time": 100.78125,
                    "velocity": 0.2440944881889764,
                    "duration": 0.09375
                },
                {
                    "name": "F#3",
                    "midi": 54,
                    "time": 100.78125,
                    "velocity": 0.29133858267716534,
                    "duration": 0.09375
                },
                {
                    "name": "C4",
                    "midi": 60,
                    "time": 100.875,
                    "velocity": 0.3700787401574803,
                    "duration": 0.375
                },
                {
                    "name": "A#3",
                    "midi": 58,
                    "time": 100.875,
                    "velocity": 0.30708661417322836,
                    "duration": 0.375
                },
                {
                    "name": "C3",
                    "midi": 48,
                    "time": 100.96875,
                    "velocity": 0.23622047244094488,
                    "duration": 0.17812499999999432
                },
                {
                    "name": "G3",
                    "midi": 55,
                    "time": 100.96875,
                    "velocity": 0.2755905511811024,
                    "duration": 0.17812499999999432
                },
                {
                    "name": "C3",
                    "midi": 48,
                    "time": 101.15625,
                    "velocity": 0.23622047244094488,
                    "duration": 0.09375
                },
                {
                    "name": "G3",
                    "midi": 55,
                    "time": 101.15625,
                    "velocity": 0.2755905511811024,
                    "duration": 0.09375
                },
                {
                    "name": "A3",
                    "midi": 57,
                    "time": 101.25,
                    "velocity": 0.28346456692913385,
                    "duration": 0.375
                },
                {
                    "name": "C4",
                    "midi": 60,
                    "time": 101.25,
                    "velocity": 0.33858267716535434,
                    "duration": 0.375
                },
                {
                    "name": "C3",
                    "midi": 48,
                    "time": 101.34375,
                    "velocity": 0.2047244094488189,
                    "duration": 0.17812499999999432
                },
                {
                    "name": "F3",
                    "midi": 53,
                    "time": 101.34375,
                    "velocity": 0.2440944881889764,
                    "duration": 0.17812499999999432
                },
                {
                    "name": "C3",
                    "midi": 48,
                    "time": 101.53125,
                    "velocity": 0.1968503937007874,
                    "duration": 0.09375
                },
                {
                    "name": "F3",
                    "midi": 53,
                    "time": 101.53125,
                    "velocity": 0.23622047244094488,
                    "duration": 0.09375
                },
                {
                    "name": "A3",
                    "midi": 57,
                    "time": 101.625,
                    "velocity": 0.28346456692913385,
                    "duration": 0.375
                },
                {
                    "name": "C4",
                    "midi": 60,
                    "time": 101.625,
                    "velocity": 0.33858267716535434,
                    "duration": 0.375
                },
                {
                    "name": "C3",
                    "midi": 48,
                    "time": 101.71875,
                    "velocity": 0.1968503937007874,
                    "duration": 0.17812499999999432
                },
                {
                    "name": "F3",
                    "midi": 53,
                    "time": 101.71875,
                    "velocity": 0.23622047244094488,
                    "duration": 0.17812499999999432
                },
                {
                    "name": "C3",
                    "midi": 48,
                    "time": 101.90625,
                    "velocity": 0.1968503937007874,
                    "duration": 0.09375
                },
                {
                    "name": "F3",
                    "midi": 53,
                    "time": 101.90625,
                    "velocity": 0.23622047244094488,
                    "duration": 0.09375
                },
                {
                    "name": "F4",
                    "midi": 65,
                    "time": 102,
                    "velocity": 0.3779527559055118,
                    "duration": 0.390625
                },
                {
                    "name": "A3",
                    "midi": 57,
                    "time": 102.09375,
                    "velocity": 0.23622047244094488,
                    "duration": 0.17812499999999432
                },
                {
                    "name": "C4",
                    "midi": 60,
                    "time": 102.09375,
                    "velocity": 0.28346456692913385,
                    "duration": 0.17812499999999432
                },
                {
                    "name": "A3",
                    "midi": 57,
                    "time": 102.28125,
                    "velocity": 0.25196850393700787,
                    "duration": 0.09375
                },
                {
                    "name": "C4",
                    "midi": 60,
                    "time": 102.28125,
                    "velocity": 0.2992125984251969,
                    "duration": 0.09375
                },
                {
                    "name": "E4",
                    "midi": 64,
                    "time": 102.375,
                    "velocity": 0.3858267716535433,
                    "duration": 0.390625
                },
                {
                    "name": "G3",
                    "midi": 55,
                    "time": 102.46875,
                    "velocity": 0.2677165354330709,
                    "duration": 0.17812499999999432
                },
                {
                    "name": "A#3",
                    "midi": 58,
                    "time": 102.46875,
                    "velocity": 0.3228346456692913,
                    "duration": 0.17812499999999432
                },
                {
                    "name": "G3",
                    "midi": 55,
                    "time": 102.65625,
                    "velocity": 0.2677165354330709,
                    "duration": 0.09375
                },
                {
                    "name": "A#3",
                    "midi": 58,
                    "time": 102.65625,
                    "velocity": 0.3228346456692913,
                    "duration": 0.09375
                },
                {
                    "name": "D4",
                    "midi": 62,
                    "time": 102.75,
                    "velocity": 0.4251968503937008,
                    "duration": 0.390625
                },
                {
                    "name": "F3",
                    "midi": 53,
                    "time": 102.84375,
                    "velocity": 0.28346456692913385,
                    "duration": 0.17812499999999432
                },
                {
                    "name": "B3",
                    "midi": 59,
                    "time": 102.84375,
                    "velocity": 0.33858267716535434,
                    "duration": 0.17812499999999432
                },
                {
                    "name": "F3",
                    "midi": 53,
                    "time": 103.03125,
                    "velocity": 0.29133858267716534,
                    "duration": 0.09375
                },
                {
                    "name": "B3",
                    "midi": 59,
                    "time": 103.03125,
                    "velocity": 0.3464566929133858,
                    "duration": 0.09375
                },
                {
                    "name": "C#4",
                    "midi": 61,
                    "time": 103.125,
                    "velocity": 0.47244094488188976,
                    "duration": 0.390625
                },
                {
                    "name": "E3",
                    "midi": 52,
                    "time": 103.21875,
                    "velocity": 0.2992125984251969,
                    "duration": 0.17812499999999432
                },
                {
                    "name": "A3",
                    "midi": 57,
                    "time": 103.21875,
                    "velocity": 0.36220472440944884,
                    "duration": 0.17812499999999432
                },
                {
                    "name": "E3",
                    "midi": 52,
                    "time": 103.40625,
                    "velocity": 0.30708661417322836,
                    "duration": 0.09375
                },
                {
                    "name": "A3",
                    "midi": 57,
                    "time": 103.40625,
                    "velocity": 0.3700787401574803,
                    "duration": 0.09375
                },
                {
                    "name": "D4",
                    "midi": 62,
                    "time": 103.5,
                    "velocity": 0.5118110236220472,
                    "duration": 0.390625
                },
                {
                    "name": "F3",
                    "midi": 53,
                    "time": 103.59375,
                    "velocity": 0.31496062992125984,
                    "duration": 0.17812499999999432
                },
                {
                    "name": "G#3",
                    "midi": 56,
                    "time": 103.59375,
                    "velocity": 0.3779527559055118,
                    "duration": 0.17812499999999432
                },
                {
                    "name": "F3",
                    "midi": 53,
                    "time": 103.78125,
                    "velocity": 0.3228346456692913,
                    "duration": 0.09375
                },
                {
                    "name": "G#3",
                    "midi": 56,
                    "time": 103.78125,
                    "velocity": 0.3858267716535433,
                    "duration": 0.09375
                },
                {
                    "name": "D#4",
                    "midi": 63,
                    "time": 103.875,
                    "velocity": 0.5354330708661418,
                    "duration": 0.390625
                },
                {
                    "name": "F#3",
                    "midi": 54,
                    "time": 103.96875,
                    "velocity": 0.33858267716535434,
                    "duration": 0.17812499999999432
                },
                {
                    "name": "A3",
                    "midi": 57,
                    "time": 103.96875,
                    "velocity": 0.4015748031496063,
                    "duration": 0.17812499999999432
                },
                {
                    "name": "F#3",
                    "midi": 54,
                    "time": 104.15625,
                    "velocity": 0.33858267716535434,
                    "duration": 0.09375
                },
                {
                    "name": "A3",
                    "midi": 57,
                    "time": 104.15625,
                    "velocity": 0.4094488188976378,
                    "duration": 0.09375
                },
                {
                    "name": "E4",
                    "midi": 64,
                    "time": 104.25,
                    "velocity": 0.5354330708661418,
                    "duration": 0.390625
                },
                {
                    "name": "G3",
                    "midi": 55,
                    "time": 104.34375,
                    "velocity": 0.3464566929133858,
                    "duration": 0.17812499999999432
                },
                {
                    "name": "A3",
                    "midi": 57,
                    "time": 104.34375,
                    "velocity": 0.41732283464566927,
                    "duration": 0.17812499999999432
                },
                {
                    "name": "G3",
                    "midi": 55,
                    "time": 104.53125,
                    "velocity": 0.3543307086614173,
                    "duration": 0.09375
                },
                {
                    "name": "A3",
                    "midi": 57,
                    "time": 104.53125,
                    "velocity": 0.41732283464566927,
                    "duration": 0.09375
                },
                {
                    "name": "F4",
                    "midi": 65,
                    "time": 104.625,
                    "velocity": 0.5748031496062992,
                    "duration": 0.375
                },
                {
                    "name": "F3",
                    "midi": 53,
                    "time": 104.71875,
                    "velocity": 0.36220472440944884,
                    "duration": 0.17812499999999432
                },
                {
                    "name": "A3",
                    "midi": 57,
                    "time": 104.71875,
                    "velocity": 0.4330708661417323,
                    "duration": 0.17812499999999432
                },
                {
                    "name": "F3",
                    "midi": 53,
                    "time": 104.90625,
                    "velocity": 0.36220472440944884,
                    "duration": 0.09375
                },
                {
                    "name": "A3",
                    "midi": 57,
                    "time": 104.90625,
                    "velocity": 0.4330708661417323,
                    "duration": 0.09375
                },
                {
                    "name": "C#4",
                    "midi": 61,
                    "time": 105,
                    "velocity": 0.6062992125984252,
                    "duration": 0.390625
                },
                {
                    "name": "G3",
                    "midi": 55,
                    "time": 105.09375,
                    "velocity": 0.3700787401574803,
                    "duration": 0.17812499999999432
                },
                {
                    "name": "A#3",
                    "midi": 58,
                    "time": 105.09375,
                    "velocity": 0.4330708661417323,
                    "duration": 0.17812499999999432
                },
                {
                    "name": "G3",
                    "midi": 55,
                    "time": 105.28125,
                    "velocity": 0.3700787401574803,
                    "duration": 0.09375
                },
                {
                    "name": "A#3",
                    "midi": 58,
                    "time": 105.28125,
                    "velocity": 0.4330708661417323,
                    "duration": 0.09375
                },
                {
                    "name": "D4",
                    "midi": 62,
                    "time": 105.375,
                    "velocity": 0.5748031496062992,
                    "duration": 0.390625
                },
                {
                    "name": "F3",
                    "midi": 53,
                    "time": 105.46875,
                    "velocity": 0.3543307086614173,
                    "duration": 0.17812499999999432
                },
                {
                    "name": "A3",
                    "midi": 57,
                    "time": 105.46875,
                    "velocity": 0.41732283464566927,
                    "duration": 0.17812499999999432
                },
                {
                    "name": "F3",
                    "midi": 53,
                    "time": 105.65625,
                    "velocity": 0.33070866141732286,
                    "duration": 0.09375
                },
                {
                    "name": "A3",
                    "midi": 57,
                    "time": 105.65625,
                    "velocity": 0.3937007874015748,
                    "duration": 0.09375
                },
                {
                    "name": "C4",
                    "midi": 60,
                    "time": 105.75,
                    "velocity": 0.5433070866141733,
                    "duration": 0.375
                },
                {
                    "name": "D3",
                    "midi": 50,
                    "time": 105.84375,
                    "velocity": 0.3464566929133858,
                    "duration": 0.17812499999999432
                },
                {
                    "name": "A3",
                    "midi": 57,
                    "time": 105.84375,
                    "velocity": 0.41732283464566927,
                    "duration": 0.17812499999999432
                },
                {
                    "name": "D3",
                    "midi": 50,
                    "time": 106.03125,
                    "velocity": 0.3464566929133858,
                    "duration": 0.09375
                },
                {
                    "name": "A3",
                    "midi": 57,
                    "time": 106.03125,
                    "velocity": 0.41732283464566927,
                    "duration": 0.09375
                },
                {
                    "name": "A#3",
                    "midi": 58,
                    "time": 106.125,
                    "velocity": 0.5511811023622047,
                    "duration": 0.375
                },
                {
                    "name": "D3",
                    "midi": 50,
                    "time": 106.21875,
                    "velocity": 0.3228346456692913,
                    "duration": 0.17812499999999432
                },
                {
                    "name": "G3",
                    "midi": 55,
                    "time": 106.21875,
                    "velocity": 0.3858267716535433,
                    "duration": 0.17812499999999432
                },
                {
                    "name": "D3",
                    "midi": 50,
                    "time": 106.40625,
                    "velocity": 0.3228346456692913,
                    "duration": 0.09375
                },
                {
                    "name": "G3",
                    "midi": 55,
                    "time": 106.40625,
                    "velocity": 0.3858267716535433,
                    "duration": 0.09375
                },
                {
                    "name": "B3",
                    "midi": 59,
                    "time": 106.5,
                    "velocity": 0.5118110236220472,
                    "duration": 0.390625
                },
                {
                    "name": "D3",
                    "midi": 50,
                    "time": 106.59375,
                    "velocity": 0.3228346456692913,
                    "duration": 0.17812499999999432
                },
                {
                    "name": "F3",
                    "midi": 53,
                    "time": 106.59375,
                    "velocity": 0.3858267716535433,
                    "duration": 0.17812499999999432
                },
                {
                    "name": "D3",
                    "midi": 50,
                    "time": 106.78125,
                    "velocity": 0.3228346456692913,
                    "duration": 0.09375
                },
                {
                    "name": "F3",
                    "midi": 53,
                    "time": 106.78125,
                    "velocity": 0.3858267716535433,
                    "duration": 0.09375
                },
                {
                    "name": "C4",
                    "midi": 60,
                    "time": 106.875,
                    "velocity": 0.48031496062992124,
                    "duration": 0.390625
                },
                {
                    "name": "C3",
                    "midi": 48,
                    "time": 106.96875,
                    "velocity": 0.31496062992125984,
                    "duration": 0.17812499999999432
                },
                {
                    "name": "F3",
                    "midi": 53,
                    "time": 106.96875,
                    "velocity": 0.3779527559055118,
                    "duration": 0.17812499999999432
                },
                {
                    "name": "C3",
                    "midi": 48,
                    "time": 107.15625,
                    "velocity": 0.31496062992125984,
                    "duration": 0.09375
                },
                {
                    "name": "F3",
                    "midi": 53,
                    "time": 107.15625,
                    "velocity": 0.3779527559055118,
                    "duration": 0.09375
                },
                {
                    "name": "B3",
                    "midi": 59,
                    "time": 107.25,
                    "velocity": 0.4645669291338583,
                    "duration": 0.390625
                },
                {
                    "name": "D3",
                    "midi": 50,
                    "time": 107.34375,
                    "velocity": 0.30708661417322836,
                    "duration": 0.17812499999999432
                },
                {
                    "name": "F3",
                    "midi": 53,
                    "time": 107.34375,
                    "velocity": 0.36220472440944884,
                    "duration": 0.17812499999999432
                },
                {
                    "name": "D3",
                    "midi": 50,
                    "time": 107.53125,
                    "velocity": 0.30708661417322836,
                    "duration": 0.09375
                },
                {
                    "name": "F3",
                    "midi": 53,
                    "time": 107.53125,
                    "velocity": 0.36220472440944884,
                    "duration": 0.09375
                },
                {
                    "name": "C4",
                    "midi": 60,
                    "time": 107.625,
                    "velocity": 0.44881889763779526,
                    "duration": 0.390625
                },
                {
                    "name": "C3",
                    "midi": 48,
                    "time": 107.71875,
                    "velocity": 0.2992125984251969,
                    "duration": 0.17812499999999432
                },
                {
                    "name": "F3",
                    "midi": 53,
                    "time": 107.71875,
                    "velocity": 0.3543307086614173,
                    "duration": 0.17812499999999432
                },
                {
                    "name": "C3",
                    "midi": 48,
                    "time": 107.90625,
                    "velocity": 0.2992125984251969,
                    "duration": 0.09375
                },
                {
                    "name": "F3",
                    "midi": 53,
                    "time": 107.90625,
                    "velocity": 0.3543307086614173,
                    "duration": 0.09375
                },
                {
                    "name": "B3",
                    "midi": 59,
                    "time": 108,
                    "velocity": 0.4409448818897638,
                    "duration": 0.390625
                },
                {
                    "name": "D3",
                    "midi": 50,
                    "time": 108.09375,
                    "velocity": 0.28346456692913385,
                    "duration": 0.17812499999999432
                },
                {
                    "name": "F3",
                    "midi": 53,
                    "time": 108.09375,
                    "velocity": 0.33858267716535434,
                    "duration": 0.17812499999999432
                },
                {
                    "name": "D3",
                    "midi": 50,
                    "time": 108.28125,
                    "velocity": 0.2755905511811024,
                    "duration": 0.09375
                },
                {
                    "name": "F3",
                    "midi": 53,
                    "time": 108.28125,
                    "velocity": 0.33070866141732286,
                    "duration": 0.09375
                },
                {
                    "name": "C4",
                    "midi": 60,
                    "time": 108.375,
                    "velocity": 0.4251968503937008,
                    "duration": 0.390625
                },
                {
                    "name": "D3",
                    "midi": 50,
                    "time": 108.46875,
                    "velocity": 0.2755905511811024,
                    "duration": 0.17812499999999432
                },
                {
                    "name": "F3",
                    "midi": 53,
                    "time": 108.46875,
                    "velocity": 0.33070866141732286,
                    "duration": 0.17812499999999432
                },
                {
                    "name": "D3",
                    "midi": 50,
                    "time": 108.65625,
                    "velocity": 0.2677165354330709,
                    "duration": 0.09375
                },
                {
                    "name": "F3",
                    "midi": 53,
                    "time": 108.65625,
                    "velocity": 0.3228346456692913,
                    "duration": 0.09375
                },
                {
                    "name": "B3",
                    "midi": 59,
                    "time": 108.75,
                    "velocity": 0.3858267716535433,
                    "duration": 0.375
                },
                {
                    "name": "D3",
                    "midi": 50,
                    "time": 108.84375,
                    "velocity": 0.25196850393700787,
                    "duration": 0.17812499999999432
                },
                {
                    "name": "F3",
                    "midi": 53,
                    "time": 108.84375,
                    "velocity": 0.2992125984251969,
                    "duration": 0.17812499999999432
                },
                {
                    "name": "D3",
                    "midi": 50,
                    "time": 109.03125,
                    "velocity": 0.25196850393700787,
                    "duration": 0.09375
                },
                {
                    "name": "F3",
                    "midi": 53,
                    "time": 109.03125,
                    "velocity": 0.2992125984251969,
                    "duration": 0.09375
                },
                {
                    "name": "C4",
                    "midi": 60,
                    "time": 109.125,
                    "velocity": 0.3858267716535433,
                    "duration": 0.375
                },
                {
                    "name": "A#3",
                    "midi": 58,
                    "time": 109.125,
                    "velocity": 0.3228346456692913,
                    "duration": 0.375
                },
                {
                    "name": "C3",
                    "midi": 48,
                    "time": 109.21875,
                    "velocity": 0.2283464566929134,
                    "duration": 0.17812499999999432
                },
                {
                    "name": "G3",
                    "midi": 55,
                    "time": 109.21875,
                    "velocity": 0.2755905511811024,
                    "duration": 0.17812499999999432
                },
                {
                    "name": "C3",
                    "midi": 48,
                    "time": 109.40625,
                    "velocity": 0.2283464566929134,
                    "duration": 0.09375
                },
                {
                    "name": "G3",
                    "midi": 55,
                    "time": 109.40625,
                    "velocity": 0.2677165354330709,
                    "duration": 0.09375
                },
                {
                    "name": "C4",
                    "midi": 60,
                    "time": 109.5,
                    "velocity": 0.3543307086614173,
                    "duration": 0.375
                },
                {
                    "name": "A#3",
                    "midi": 58,
                    "time": 109.5,
                    "velocity": 0.29133858267716534,
                    "duration": 0.375
                },
                {
                    "name": "C3",
                    "midi": 48,
                    "time": 109.59375,
                    "velocity": 0.2283464566929134,
                    "duration": 0.17812499999999432
                },
                {
                    "name": "F#3",
                    "midi": 54,
                    "time": 109.59375,
                    "velocity": 0.2677165354330709,
                    "duration": 0.17812499999999432
                },
                {
                    "name": "C3",
                    "midi": 48,
                    "time": 109.78125,
                    "velocity": 0.2204724409448819,
                    "duration": 0.09375
                },
                {
                    "name": "F#3",
                    "midi": 54,
                    "time": 109.78125,
                    "velocity": 0.25984251968503935,
                    "duration": 0.09375
                },
                {
                    "name": "C4",
                    "midi": 60,
                    "time": 109.875,
                    "velocity": 0.33070866141732286,
                    "duration": 0.375
                },
                {
                    "name": "A#3",
                    "midi": 58,
                    "time": 109.875,
                    "velocity": 0.2677165354330709,
                    "duration": 0.375
                },
                {
                    "name": "C3",
                    "midi": 48,
                    "time": 109.96875,
                    "velocity": 0.2047244094488189,
                    "duration": 0.17812499999999432
                },
                {
                    "name": "G3",
                    "midi": 55,
                    "time": 109.96875,
                    "velocity": 0.2440944881889764,
                    "duration": 0.17812499999999432
                },
                {
                    "name": "C3",
                    "midi": 48,
                    "time": 110.15625,
                    "velocity": 0.1968503937007874,
                    "duration": 0.09375
                },
                {
                    "name": "G3",
                    "midi": 55,
                    "time": 110.15625,
                    "velocity": 0.2440944881889764,
                    "duration": 0.09375
                },
                {
                    "name": "A3",
                    "midi": 57,
                    "time": 110.25,
                    "velocity": 0.2440944881889764,
                    "duration": 0.375
                },
                {
                    "name": "C4",
                    "midi": 60,
                    "time": 110.25,
                    "velocity": 0.28346456692913385,
                    "duration": 0.375
                },
                {
                    "name": "C3",
                    "midi": 48,
                    "time": 110.34375,
                    "velocity": 0.16535433070866143,
                    "duration": 0.17812499999999432
                },
                {
                    "name": "F3",
                    "midi": 53,
                    "time": 110.34375,
                    "velocity": 0.2047244094488189,
                    "duration": 0.17812499999999432
                },
                {
                    "name": "C3",
                    "midi": 48,
                    "time": 110.53125,
                    "velocity": 0.16535433070866143,
                    "duration": 0.09375
                },
                {
                    "name": "F3",
                    "midi": 53,
                    "time": 110.53125,
                    "velocity": 0.1968503937007874,
                    "duration": 0.09375
                },
                {
                    "name": "A3",
                    "midi": 57,
                    "time": 110.625,
                    "velocity": 0.1968503937007874,
                    "duration": 0.375
                },
                {
                    "name": "C4",
                    "midi": 60,
                    "time": 110.625,
                    "velocity": 0.23622047244094488,
                    "duration": 0.375
                },
                {
                    "name": "C3",
                    "midi": 48,
                    "time": 110.71875,
                    "velocity": 0.14173228346456693,
                    "duration": 0.17812499999999432
                },
                {
                    "name": "F3",
                    "midi": 53,
                    "time": 110.71875,
                    "velocity": 0.18110236220472442,
                    "duration": 0.17812499999999432
                },
                {
                    "name": "C3",
                    "midi": 48,
                    "time": 110.90625,
                    "velocity": 0.11811023622047244,
                    "duration": 0.09375
                },
                {
                    "name": "F3",
                    "midi": 53,
                    "time": 110.90625,
                    "velocity": 0.16535433070866143,
                    "duration": 0.09375
                },
                {
                    "name": "F#4",
                    "midi": 66,
                    "time": 112.125,
                    "velocity": 0.3464566929133858,
                    "duration": 0.078125
                },
                {
                    "name": "G4",
                    "midi": 67,
                    "time": 112.1875,
                    "velocity": 0.3543307086614173,
                    "duration": 0.078125
                },
                {
                    "name": "A4",
                    "midi": 69,
                    "time": 112.25,
                    "velocity": 0.36220472440944884,
                    "duration": 0.078125
                },
                {
                    "name": "A#4",
                    "midi": 70,
                    "time": 112.3125,
                    "velocity": 0.36220472440944884,
                    "duration": 0.078125
                },
                {
                    "name": "C5",
                    "midi": 72,
                    "time": 112.375,
                    "velocity": 0.3700787401574803,
                    "duration": 0.078125
                },
                {
                    "name": "D5",
                    "midi": 74,
                    "time": 112.4375,
                    "velocity": 0.3779527559055118,
                    "duration": 0.078125
                },
                {
                    "name": "E5",
                    "midi": 76,
                    "time": 112.5,
                    "velocity": 0.3858267716535433,
                    "duration": 0.078125
                },
                {
                    "name": "G5",
                    "midi": 79,
                    "time": 112.5625,
                    "velocity": 0.3700787401574803,
                    "duration": 0.0625
                },
                {
                    "name": "C5",
                    "midi": 72,
                    "time": 112.625,
                    "velocity": 0.3700787401574803,
                    "duration": 0.078125
                },
                {
                    "name": "C#5",
                    "midi": 73,
                    "time": 112.6875,
                    "velocity": 0.4015748031496063,
                    "duration": 0.078125
                },
                {
                    "name": "A#5",
                    "midi": 82,
                    "time": 112.75,
                    "velocity": 0.3700787401574803,
                    "duration": 0.0625
                },
                {
                    "name": "A4",
                    "midi": 69,
                    "time": 112.8125,
                    "velocity": 0.3779527559055118,
                    "duration": 0.078125
                },
                {
                    "name": "A#4",
                    "midi": 70,
                    "time": 112.875,
                    "velocity": 0.4015748031496063,
                    "duration": 0.078125
                },
                {
                    "name": "G5",
                    "midi": 79,
                    "time": 112.9375,
                    "velocity": 0.3543307086614173,
                    "duration": 0.0625
                },
                {
                    "name": "F#4",
                    "midi": 66,
                    "time": 113,
                    "velocity": 0.3543307086614173,
                    "duration": 0.078125
                },
                {
                    "name": "G4",
                    "midi": 67,
                    "time": 113.0625,
                    "velocity": 0.4015748031496063,
                    "duration": 0.078125
                },
                {
                    "name": "A4",
                    "midi": 69,
                    "time": 113.125,
                    "velocity": 0.36220472440944884,
                    "duration": 0.078125
                },
                {
                    "name": "A#4",
                    "midi": 70,
                    "time": 113.1875,
                    "velocity": 0.36220472440944884,
                    "duration": 0.078125
                },
                {
                    "name": "C5",
                    "midi": 72,
                    "time": 113.25,
                    "velocity": 0.4015748031496063,
                    "duration": 0.078125
                },
                {
                    "name": "D5",
                    "midi": 74,
                    "time": 113.3125,
                    "velocity": 0.4015748031496063,
                    "duration": 0.078125
                },
                {
                    "name": "E5",
                    "midi": 76,
                    "time": 113.375,
                    "velocity": 0.41732283464566927,
                    "duration": 0.078125
                },
                {
                    "name": "F5",
                    "midi": 77,
                    "time": 113.4375,
                    "velocity": 0.4251968503937008,
                    "duration": 0.078125
                },
                {
                    "name": "G5",
                    "midi": 79,
                    "time": 113.5,
                    "velocity": 0.4330708661417323,
                    "duration": 0.078125
                },
                {
                    "name": "A5",
                    "midi": 81,
                    "time": 113.5625,
                    "velocity": 0.4330708661417323,
                    "duration": 0.078125
                },
                {
                    "name": "C6",
                    "midi": 84,
                    "time": 113.625,
                    "velocity": 0.4409448818897638,
                    "duration": 0.328125
                },
                {
                    "name": "E5",
                    "midi": 76,
                    "time": 113.6875,
                    "velocity": 0.41732283464566927,
                    "duration": 0.078125
                },
                {
                    "name": "G5",
                    "midi": 79,
                    "time": 113.75,
                    "velocity": 0.41732283464566927,
                    "duration": 0.078125
                },
                {
                    "name": "A#5",
                    "midi": 82,
                    "time": 113.8125,
                    "velocity": 0.4251968503937008,
                    "duration": 0.078125
                },
                {
                    "name": "C6",
                    "midi": 84,
                    "time": 113.875,
                    "velocity": 0.4330708661417323,
                    "duration": 0.125
                },
                {
                    "name": "D6",
                    "midi": 86,
                    "time": 113.9375,
                    "velocity": 0.4409448818897638,
                    "duration": 0.078125
                },
                {
                    "name": "D#6",
                    "midi": 87,
                    "time": 114,
                    "velocity": 0.44881889763779526,
                    "duration": 0.078125
                },
                {
                    "name": "E6",
                    "midi": 88,
                    "time": 114.0625,
                    "velocity": 0.4566929133858268,
                    "duration": 0.078125
                },
                {
                    "name": "F6",
                    "midi": 89,
                    "time": 114.125,
                    "velocity": 0.4645669291338583,
                    "duration": 0.078125
                },
                {
                    "name": "F#6",
                    "midi": 90,
                    "time": 114.1875,
                    "velocity": 0.47244094488188976,
                    "duration": 0.078125
                },
                {
                    "name": "G6",
                    "midi": 91,
                    "time": 114.25,
                    "velocity": 0.48031496062992124,
                    "duration": 0.078125
                },
                {
                    "name": "A6",
                    "midi": 93,
                    "time": 114.3125,
                    "velocity": 0.4881889763779528,
                    "duration": 0.078125
                },
                {
                    "name": "A#6",
                    "midi": 94,
                    "time": 114.375,
                    "velocity": 0.49606299212598426,
                    "duration": 0.078125
                },
                {
                    "name": "B6",
                    "midi": 95,
                    "time": 114.4375,
                    "velocity": 0.5039370078740157,
                    "duration": 0.078125
                },
                {
                    "name": "C7",
                    "midi": 96,
                    "time": 114.5,
                    "velocity": 0.5118110236220472,
                    "duration": 0.078125
                },
                {
                    "name": "C#7",
                    "midi": 97,
                    "time": 114.5625,
                    "velocity": 0.5196850393700787,
                    "duration": 0.078125
                },
                {
                    "name": "D7",
                    "midi": 98,
                    "time": 114.625,
                    "velocity": 0.5275590551181102,
                    "duration": 0.078125
                },
                {
                    "name": "E7",
                    "midi": 100,
                    "time": 114.6875,
                    "velocity": 0.5354330708661418,
                    "duration": 0.078125
                },
                {
                    "name": "F7",
                    "midi": 101,
                    "time": 114.75,
                    "velocity": 0.5826771653543307,
                    "duration": 0.078125
                },
                {
                    "name": "C7",
                    "midi": 96,
                    "time": 114.8125,
                    "velocity": 0.5433070866141733,
                    "duration": 0.078125
                },
                {
                    "name": "A6",
                    "midi": 93,
                    "time": 114.875,
                    "velocity": 0.5354330708661418,
                    "duration": 0.0625
                },
                {
                    "name": "G#6",
                    "midi": 92,
                    "time": 114.9375,
                    "velocity": 0.5669291338582677,
                    "duration": 0.1875
                },
                {
                    "name": "D7",
                    "midi": 98,
                    "time": 115,
                    "velocity": 0.5196850393700787,
                    "duration": 0.078125
                },
                {
                    "name": "B6",
                    "midi": 95,
                    "time": 115.0625,
                    "velocity": 0.5196850393700787,
                    "duration": 0.0625
                },
                {
                    "name": "C7",
                    "midi": 96,
                    "time": 115.125,
                    "velocity": 0.5826771653543307,
                    "duration": 0.078125
                },
                {
                    "name": "A6",
                    "midi": 93,
                    "time": 115.1875,
                    "velocity": 0.5196850393700787,
                    "duration": 0.078125
                },
                {
                    "name": "F6",
                    "midi": 89,
                    "time": 115.25,
                    "velocity": 0.5196850393700787,
                    "duration": 0.0625
                },
                {
                    "name": "D6",
                    "midi": 86,
                    "time": 115.3125,
                    "velocity": 0.5590551181102362,
                    "duration": 0.1875
                },
                {
                    "name": "G#6",
                    "midi": 92,
                    "time": 115.375,
                    "velocity": 0.5196850393700787,
                    "duration": 0.078125
                },
                {
                    "name": "F6",
                    "midi": 89,
                    "time": 115.4375,
                    "velocity": 0.5196850393700787,
                    "duration": 0.0625
                },
                {
                    "name": "A6",
                    "midi": 93,
                    "time": 115.5,
                    "velocity": 0.5511811023622047,
                    "duration": 0.078125
                },
                {
                    "name": "F6",
                    "midi": 89,
                    "time": 115.5625,
                    "velocity": 0.5196850393700787,
                    "duration": 0.078125
                },
                {
                    "name": "C6",
                    "midi": 84,
                    "time": 115.625,
                    "velocity": 0.5196850393700787,
                    "duration": 0.0625
                },
                {
                    "name": "G#6",
                    "midi": 92,
                    "time": 115.6875,
                    "velocity": 0.5590551181102362,
                    "duration": 0.078125
                },
                {
                    "name": "D6",
                    "midi": 86,
                    "time": 115.75,
                    "velocity": 0.5196850393700787,
                    "duration": 0.078125
                },
                {
                    "name": "B5",
                    "midi": 83,
                    "time": 115.8125,
                    "velocity": 0.5196850393700787,
                    "duration": 0.0625
                },
                {
                    "name": "C6",
                    "midi": 84,
                    "time": 115.875,
                    "velocity": 0.5590551181102362,
                    "duration": 0.0625
                },
                {
                    "name": "A5",
                    "midi": 81,
                    "time": 115.9375,
                    "velocity": 0.47244094488188976,
                    "duration": 0.0625
                },
                {
                    "name": "F5",
                    "midi": 77,
                    "time": 116,
                    "velocity": 0.47244094488188976,
                    "duration": 0.0625
                },
                {
                    "name": "E5",
                    "midi": 76,
                    "time": 116.0625,
                    "velocity": 0.4251968503937008,
                    "duration": 0.09375
                },
                {
                    "name": "C6",
                    "midi": 84,
                    "time": 116.0625,
                    "velocity": 0.5039370078740157,
                    "duration": 0.0625
                },
                {
                    "name": "A5",
                    "midi": 81,
                    "time": 116.125,
                    "velocity": 0.36220472440944884,
                    "duration": 0.0625
                },
                {
                    "name": "C6",
                    "midi": 84,
                    "time": 116.125,
                    "velocity": 0.4330708661417323,
                    "duration": 0.0625
                },
                {
                    "name": "C5",
                    "midi": 72,
                    "time": 116.1875,
                    "velocity": 0.4330708661417323,
                    "duration": 0.0625
                },
                {
                    "name": "B4",
                    "midi": 71,
                    "time": 116.25,
                    "velocity": 0.3937007874015748,
                    "duration": 0.09375
                },
                {
                    "name": "A5",
                    "midi": 81,
                    "time": 116.25,
                    "velocity": 0.4645669291338583,
                    "duration": 0.0625
                },
                {
                    "name": "C5",
                    "midi": 72,
                    "time": 116.3125,
                    "velocity": 0.3543307086614173,
                    "duration": 0.0625
                },
                {
                    "name": "F5",
                    "midi": 77,
                    "time": 116.3125,
                    "velocity": 0.41732283464566927,
                    "duration": 0.0625
                },
                {
                    "name": "A4",
                    "midi": 69,
                    "time": 116.375,
                    "velocity": 0.4094488188976378,
                    "duration": 0.0625
                },
                {
                    "name": "G#4",
                    "midi": 68,
                    "time": 116.4375,
                    "velocity": 0.3937007874015748,
                    "duration": 0.09375
                },
                {
                    "name": "F5",
                    "midi": 77,
                    "time": 116.4375,
                    "velocity": 0.4645669291338583,
                    "duration": 0.0625
                },
                {
                    "name": "C5",
                    "midi": 72,
                    "time": 116.5,
                    "velocity": 0.3937007874015748,
                    "duration": 0.0625
                },
                {
                    "name": "A4",
                    "midi": 69,
                    "time": 116.5,
                    "velocity": 0.33070866141732286,
                    "duration": 0.0625
                },
                {
                    "name": "F4",
                    "midi": 65,
                    "time": 116.5625,
                    "velocity": 0.3937007874015748,
                    "duration": 0.0625
                },
                {
                    "name": "C5",
                    "midi": 72,
                    "time": 116.625,
                    "velocity": 0.4251968503937008,
                    "duration": 0.0625
                },
                {
                    "name": "E4",
                    "midi": 64,
                    "time": 116.625,
                    "velocity": 0.3543307086614173,
                    "duration": 0.09375
                },
                {
                    "name": "F4",
                    "midi": 65,
                    "time": 116.6875,
                    "velocity": 0.30708661417322836,
                    "duration": 0.0625
                },
                {
                    "name": "A4",
                    "midi": 69,
                    "time": 116.6875,
                    "velocity": 0.3700787401574803,
                    "duration": 0.0625
                },
                {
                    "name": "C4",
                    "midi": 60,
                    "time": 116.75,
                    "velocity": 0.36220472440944884,
                    "duration": 0.0625
                },
                {
                    "name": "B3",
                    "midi": 59,
                    "time": 116.8125,
                    "velocity": 0.33070866141732286,
                    "duration": 0.09375
                },
                {
                    "name": "A4",
                    "midi": 69,
                    "time": 116.8125,
                    "velocity": 0.3937007874015748,
                    "duration": 0.0625
                },
                {
                    "name": "C4",
                    "midi": 60,
                    "time": 116.875,
                    "velocity": 0.29133858267716534,
                    "duration": 0.0625
                },
                {
                    "name": "F4",
                    "midi": 65,
                    "time": 116.875,
                    "velocity": 0.3464566929133858,
                    "duration": 0.0625
                },
                {
                    "name": "A3",
                    "midi": 57,
                    "time": 116.9375,
                    "velocity": 0.3543307086614173,
                    "duration": 0.0625
                },
                {
                    "name": "G4",
                    "midi": 67,
                    "time": 117,
                    "velocity": 0.44881889763779526,
                    "duration": 0.0625
                },
                {
                    "name": "D4",
                    "midi": 62,
                    "time": 117.0625,
                    "velocity": 0.4015748031496063,
                    "duration": 0.078125
                },
                {
                    "name": "D#4",
                    "midi": 63,
                    "time": 117.125,
                    "velocity": 0.4015748031496063,
                    "duration": 0.078125
                },
                {
                    "name": "E4",
                    "midi": 64,
                    "time": 117.1875,
                    "velocity": 0.4094488188976378,
                    "duration": 0.078125
                },
                {
                    "name": "F4",
                    "midi": 65,
                    "time": 117.25,
                    "velocity": 0.4094488188976378,
                    "duration": 0.078125
                },
                {
                    "name": "F#4",
                    "midi": 66,
                    "time": 117.3125,
                    "velocity": 0.41732283464566927,
                    "duration": 0.078125
                },
                {
                    "name": "G4",
                    "midi": 67,
                    "time": 117.375,
                    "velocity": 0.41732283464566927,
                    "duration": 0.078125
                },
                {
                    "name": "G#4",
                    "midi": 68,
                    "time": 117.4375,
                    "velocity": 0.4251968503937008,
                    "duration": 0.078125
                },
                {
                    "name": "A4",
                    "midi": 69,
                    "time": 117.5,
                    "velocity": 0.4251968503937008,
                    "duration": 0.078125
                },
                {
                    "name": "A#4",
                    "midi": 70,
                    "time": 117.5625,
                    "velocity": 0.4330708661417323,
                    "duration": 0.078125
                },
                {
                    "name": "B4",
                    "midi": 71,
                    "time": 117.625,
                    "velocity": 0.4330708661417323,
                    "duration": 0.078125
                },
                {
                    "name": "C5",
                    "midi": 72,
                    "time": 117.6875,
                    "velocity": 0.4409448818897638,
                    "duration": 0.078125
                },
                {
                    "name": "C#5",
                    "midi": 73,
                    "time": 117.75,
                    "velocity": 0.4409448818897638,
                    "duration": 0.078125
                },
                {
                    "name": "D5",
                    "midi": 74,
                    "time": 117.8125,
                    "velocity": 0.44881889763779526,
                    "duration": 0.078125
                },
                {
                    "name": "D#5",
                    "midi": 75,
                    "time": 117.875,
                    "velocity": 0.44881889763779526,
                    "duration": 0.078125
                },
                {
                    "name": "E5",
                    "midi": 76,
                    "time": 117.9375,
                    "velocity": 0.4566929133858268,
                    "duration": 0.078125
                },
                {
                    "name": "F5",
                    "midi": 77,
                    "time": 118,
                    "velocity": 0.4566929133858268,
                    "duration": 0.078125
                },
                {
                    "name": "F#5",
                    "midi": 78,
                    "time": 118.0625,
                    "velocity": 0.4645669291338583,
                    "duration": 0.078125
                },
                {
                    "name": "G5",
                    "midi": 79,
                    "time": 118.125,
                    "velocity": 0.4645669291338583,
                    "duration": 0.0625
                },
                {
                    "name": "C5",
                    "midi": 72,
                    "time": 118.1875,
                    "velocity": 0.48031496062992124,
                    "duration": 0.078125
                },
                {
                    "name": "C#5",
                    "midi": 73,
                    "time": 118.25,
                    "velocity": 0.48031496062992124,
                    "duration": 0.078125
                },
                {
                    "name": "D5",
                    "midi": 74,
                    "time": 118.3125,
                    "velocity": 0.4881889763779528,
                    "duration": 0.078125
                },
                {
                    "name": "D#5",
                    "midi": 75,
                    "time": 118.375,
                    "velocity": 0.49606299212598426,
                    "duration": 0.078125
                },
                {
                    "name": "E5",
                    "midi": 76,
                    "time": 118.4375,
                    "velocity": 0.49606299212598426,
                    "duration": 0.078125
                },
                {
                    "name": "F5",
                    "midi": 77,
                    "time": 118.5,
                    "velocity": 0.5039370078740157,
                    "duration": 0.078125
                },
                {
                    "name": "F#5",
                    "midi": 78,
                    "time": 118.5625,
                    "velocity": 0.5118110236220472,
                    "duration": 0.078125
                },
                {
                    "name": "G5",
                    "midi": 79,
                    "time": 118.625,
                    "velocity": 0.5118110236220472,
                    "duration": 0.078125
                },
                {
                    "name": "G#5",
                    "midi": 80,
                    "time": 118.6875,
                    "velocity": 0.5196850393700787,
                    "duration": 0.078125
                },
                {
                    "name": "A5",
                    "midi": 81,
                    "time": 118.75,
                    "velocity": 0.5275590551181102,
                    "duration": 0.078125
                },
                {
                    "name": "A#5",
                    "midi": 82,
                    "time": 118.8125,
                    "velocity": 0.5275590551181102,
                    "duration": 0.078125
                },
                {
                    "name": "B5",
                    "midi": 83,
                    "time": 118.875,
                    "velocity": 0.5275590551181102,
                    "duration": 0.078125
                },
                {
                    "name": "C6",
                    "midi": 84,
                    "time": 118.9375,
                    "velocity": 0.5354330708661418,
                    "duration": 0.078125
                },
                {
                    "name": "C#6",
                    "midi": 85,
                    "time": 119,
                    "velocity": 0.5433070866141733,
                    "duration": 0.078125
                },
                {
                    "name": "D6",
                    "midi": 86,
                    "time": 119.0625,
                    "velocity": 0.5590551181102362,
                    "duration": 0.078125
                },
                {
                    "name": "D#6",
                    "midi": 87,
                    "time": 119.125,
                    "velocity": 0.5669291338582677,
                    "duration": 0.078125
                },
                {
                    "name": "E6",
                    "midi": 88,
                    "time": 119.1875,
                    "velocity": 0.5748031496062992,
                    "duration": 0.078125
                },
                {
                    "name": "F6",
                    "midi": 89,
                    "time": 119.25,
                    "velocity": 0.5905511811023622,
                    "duration": 0.0625
                },
                {
                    "name": "C6",
                    "midi": 84,
                    "time": 119.3125,
                    "velocity": 0.5511811023622047,
                    "duration": 0.0625
                },
                {
                    "name": "A5",
                    "midi": 81,
                    "time": 119.375,
                    "velocity": 0.5511811023622047,
                    "duration": 0.0625
                },
                {
                    "name": "G#5",
                    "midi": 80,
                    "time": 119.4375,
                    "velocity": 0.5826771653543307,
                    "duration": 0.0625
                },
                {
                    "name": "C#6",
                    "midi": 85,
                    "time": 119.5,
                    "velocity": 0.5511811023622047,
                    "duration": 0.0625
                },
                {
                    "name": "F6",
                    "midi": 89,
                    "time": 119.5625,
                    "velocity": 0.5511811023622047,
                    "duration": 0.0625
                },
                {
                    "name": "F7",
                    "midi": 101,
                    "time": 119.625,
                    "velocity": 0.6062992125984252,
                    "duration": 0.0625
                },
                {
                    "name": "B6",
                    "midi": 95,
                    "time": 119.6875,
                    "velocity": 0.5669291338582677,
                    "duration": 0.0625
                },
                {
                    "name": "G#6",
                    "midi": 92,
                    "time": 119.75,
                    "velocity": 0.5669291338582677,
                    "duration": 0.0625
                },
                {
                    "name": "F6",
                    "midi": 89,
                    "time": 119.8125,
                    "velocity": 0.5590551181102362,
                    "duration": 0.0625
                },
                {
                    "name": "D6",
                    "midi": 86,
                    "time": 119.875,
                    "velocity": 0.5511811023622047,
                    "duration": 0.0625
                },
                {
                    "name": "B5",
                    "midi": 83,
                    "time": 119.9375,
                    "velocity": 0.5433070866141733,
                    "duration": 0.0625
                },
                {
                    "name": "G#5",
                    "midi": 80,
                    "time": 120,
                    "velocity": 0.5433070866141733,
                    "duration": 0.0625
                },
                {
                    "name": "F5",
                    "midi": 77,
                    "time": 120.0625,
                    "velocity": 0.5354330708661418,
                    "duration": 0.0625
                },
                {
                    "name": "D5",
                    "midi": 74,
                    "time": 120.125,
                    "velocity": 0.5275590551181102,
                    "duration": 0.0625
                },
                {
                    "name": "B4",
                    "midi": 71,
                    "time": 120.1875,
                    "velocity": 0.5196850393700787,
                    "duration": 0.0625
                },
                {
                    "name": "G#4",
                    "midi": 68,
                    "time": 120.25,
                    "velocity": 0.5196850393700787,
                    "duration": 0.0625
                },
                {
                    "name": "F4",
                    "midi": 65,
                    "time": 120.3125,
                    "velocity": 0.5118110236220472,
                    "duration": 0.0625
                },
                {
                    "name": "C5",
                    "midi": 72,
                    "time": 120.375,
                    "velocity": 0.5196850393700787,
                    "duration": 0.0625
                },
                {
                    "name": "G4",
                    "midi": 67,
                    "time": 120.4375,
                    "velocity": 0.47244094488188976,
                    "duration": 0.078125
                },
                {
                    "name": "G#4",
                    "midi": 68,
                    "time": 120.5,
                    "velocity": 0.47244094488188976,
                    "duration": 0.078125
                },
                {
                    "name": "A4",
                    "midi": 69,
                    "time": 120.5625,
                    "velocity": 0.5118110236220472,
                    "duration": 0.078125
                },
                {
                    "name": "A#4",
                    "midi": 70,
                    "time": 120.625,
                    "velocity": 0.47244094488188976,
                    "duration": 0.078125
                },
                {
                    "name": "B4",
                    "midi": 71,
                    "time": 120.6875,
                    "velocity": 0.47244094488188976,
                    "duration": 0.078125
                },
                {
                    "name": "C5",
                    "midi": 72,
                    "time": 120.75,
                    "velocity": 0.4881889763779528,
                    "duration": 0.078125
                },
                {
                    "name": "C#5",
                    "midi": 73,
                    "time": 120.8125,
                    "velocity": 0.48031496062992124,
                    "duration": 0.078125
                },
                {
                    "name": "D5",
                    "midi": 74,
                    "time": 120.875,
                    "velocity": 0.47244094488188976,
                    "duration": 0.078125
                },
                {
                    "name": "D#5",
                    "midi": 75,
                    "time": 120.9375,
                    "velocity": 0.4645669291338583,
                    "duration": 0.078125
                },
                {
                    "name": "E5",
                    "midi": 76,
                    "time": 121,
                    "velocity": 0.4566929133858268,
                    "duration": 0.078125
                },
                {
                    "name": "F5",
                    "midi": 77,
                    "time": 121.0625,
                    "velocity": 0.44881889763779526,
                    "duration": 0.0625
                },
                {
                    "name": "F#5",
                    "midi": 78,
                    "time": 121.125,
                    "velocity": 0.4330708661417323,
                    "duration": 0.0625
                },
                {
                    "name": "C6",
                    "midi": 84,
                    "time": 121.125,
                    "velocity": 0.4409448818897638,
                    "duration": 0.3125
                },
                {
                    "name": "G5",
                    "midi": 79,
                    "time": 121.1875,
                    "velocity": 0.4251968503937008,
                    "duration": 0.0625
                },
                {
                    "name": "A5",
                    "midi": 81,
                    "time": 121.25,
                    "velocity": 0.41732283464566927,
                    "duration": 0.0625
                },
                {
                    "name": "A#5",
                    "midi": 82,
                    "time": 121.3125,
                    "velocity": 0.4094488188976378,
                    "duration": 0.0625
                },
                {
                    "name": "C6",
                    "midi": 84,
                    "time": 121.375,
                    "velocity": 0.4015748031496063,
                    "duration": 0.125
                },
                {
                    "name": "D6",
                    "midi": 86,
                    "time": 121.4375,
                    "velocity": 0.3937007874015748,
                    "duration": 0.0625
                },
                {
                    "name": "C6",
                    "midi": 84,
                    "time": 121.5,
                    "velocity": 0.3937007874015748,
                    "duration": 0.1875
                },
                {
                    "name": "E6",
                    "midi": 88,
                    "time": 121.5,
                    "velocity": 0.3937007874015748,
                    "duration": 0.0625
                },
                {
                    "name": "G6",
                    "midi": 91,
                    "time": 121.5625,
                    "velocity": 0.4094488188976378,
                    "duration": 0.0625
                },
                {
                    "name": "C6",
                    "midi": 84,
                    "time": 121.625,
                    "velocity": 0.4094488188976378,
                    "duration": 0.0625
                },
                {
                    "name": "C#6",
                    "midi": 85,
                    "time": 121.6875,
                    "velocity": 0.3779527559055118,
                    "duration": 0.0625
                },
                {
                    "name": "A#6",
                    "midi": 94,
                    "time": 121.75,
                    "velocity": 0.3228346456692913,
                    "duration": 0.0625
                },
                {
                    "name": "A5",
                    "midi": 81,
                    "time": 121.8125,
                    "velocity": 0.33070866141732286,
                    "duration": 0.0625
                },
                {
                    "name": "A#5",
                    "midi": 82,
                    "time": 121.875,
                    "velocity": 0.3700787401574803,
                    "duration": 0.0625
                },
                {
                    "name": "G6",
                    "midi": 91,
                    "time": 121.9375,
                    "velocity": 0.33070866141732286,
                    "duration": 0.0625
                },
                {
                    "name": "F#5",
                    "midi": 78,
                    "time": 122,
                    "velocity": 0.33070866141732286,
                    "duration": 0.0625
                },
                {
                    "name": "G5",
                    "midi": 79,
                    "time": 122.0625,
                    "velocity": 0.3700787401574803,
                    "duration": 0.0625
                },
                {
                    "name": "A5",
                    "midi": 81,
                    "time": 122.125,
                    "velocity": 0.33070866141732286,
                    "duration": 0.0625
                },
                {
                    "name": "A#5",
                    "midi": 82,
                    "time": 122.1875,
                    "velocity": 0.33070866141732286,
                    "duration": 0.0625
                },
                {
                    "name": "C6",
                    "midi": 84,
                    "time": 122.25,
                    "velocity": 0.3700787401574803,
                    "duration": 0.0625
                },
                {
                    "name": "D6",
                    "midi": 86,
                    "time": 122.3125,
                    "velocity": 0.33070866141732286,
                    "duration": 0.0625
                },
                {
                    "name": "E6",
                    "midi": 88,
                    "time": 122.375,
                    "velocity": 0.33070866141732286,
                    "duration": 0.0625
                },
                {
                    "name": "F6",
                    "midi": 89,
                    "time": 122.4375,
                    "velocity": 0.3543307086614173,
                    "duration": 0.0625
                },
                {
                    "name": "G6",
                    "midi": 91,
                    "time": 122.5,
                    "velocity": 0.33070866141732286,
                    "duration": 0.0625
                },
                {
                    "name": "A6",
                    "midi": 93,
                    "time": 122.5625,
                    "velocity": 0.33070866141732286,
                    "duration": 0.0625
                },
                {
                    "name": "C7",
                    "midi": 96,
                    "time": 122.625,
                    "velocity": 0.4015748031496063,
                    "duration": 0.0625
                },
                {
                    "name": "A#6",
                    "midi": 94,
                    "time": 122.6875,
                    "velocity": 0.33070866141732286,
                    "duration": 0.0625
                },
                {
                    "name": "G6",
                    "midi": 91,
                    "time": 122.75,
                    "velocity": 0.33070866141732286,
                    "duration": 0.0625
                },
                {
                    "name": "E6",
                    "midi": 88,
                    "time": 122.8125,
                    "velocity": 0.3779527559055118,
                    "duration": 0.0625
                },
                {
                    "name": "C6",
                    "midi": 84,
                    "time": 122.875,
                    "velocity": 0.3779527559055118,
                    "duration": 0.0625
                },
                {
                    "name": "D6",
                    "midi": 86,
                    "time": 122.9375,
                    "velocity": 0.3858267716535433,
                    "duration": 0.0625
                },
                {
                    "name": "D#6",
                    "midi": 87,
                    "time": 123,
                    "velocity": 0.3858267716535433,
                    "duration": 0.0625
                },
                {
                    "name": "E6",
                    "midi": 88,
                    "time": 123.0625,
                    "velocity": 0.3937007874015748,
                    "duration": 0.0625
                },
                {
                    "name": "F6",
                    "midi": 89,
                    "time": 123.125,
                    "velocity": 0.4094488188976378,
                    "duration": 0.0625
                },
                {
                    "name": "F#6",
                    "midi": 90,
                    "time": 123.1875,
                    "velocity": 0.4251968503937008,
                    "duration": 0.0625
                },
                {
                    "name": "G6",
                    "midi": 91,
                    "time": 123.25,
                    "velocity": 0.4330708661417323,
                    "duration": 0.0625
                },
                {
                    "name": "A6",
                    "midi": 93,
                    "time": 123.3125,
                    "velocity": 0.44881889763779526,
                    "duration": 0.0625
                },
                {
                    "name": "A#6",
                    "midi": 94,
                    "time": 123.375,
                    "velocity": 0.4645669291338583,
                    "duration": 0.0625
                },
                {
                    "name": "B6",
                    "midi": 95,
                    "time": 123.4375,
                    "velocity": 0.47244094488188976,
                    "duration": 0.0625
                },
                {
                    "name": "C7",
                    "midi": 96,
                    "time": 123.5,
                    "velocity": 0.4881889763779528,
                    "duration": 0.0625
                },
                {
                    "name": "C#7",
                    "midi": 97,
                    "time": 123.5625,
                    "velocity": 0.5039370078740157,
                    "duration": 0.0625
                },
                {
                    "name": "D7",
                    "midi": 98,
                    "time": 123.625,
                    "velocity": 0.5118110236220472,
                    "duration": 0.0625
                },
                {
                    "name": "E7",
                    "midi": 100,
                    "time": 123.6875,
                    "velocity": 0.5275590551181102,
                    "duration": 0.0625
                },
                {
                    "name": "F7",
                    "midi": 101,
                    "time": 123.75,
                    "velocity": 0.5433070866141733,
                    "duration": 0.0625
                },
                {
                    "name": "C7",
                    "midi": 96,
                    "time": 123.8125,
                    "velocity": 0.44881889763779526,
                    "duration": 0.0625
                },
                {
                    "name": "A6",
                    "midi": 93,
                    "time": 123.875,
                    "velocity": 0.4566929133858268,
                    "duration": 0.0625
                },
                {
                    "name": "G#6",
                    "midi": 92,
                    "time": 123.9375,
                    "velocity": 0.5118110236220472,
                    "duration": 0.0625
                },
                {
                    "name": "B6",
                    "midi": 95,
                    "time": 124,
                    "velocity": 0.4330708661417323,
                    "duration": 0.0625
                },
                {
                    "name": "D7",
                    "midi": 98,
                    "time": 124.0625,
                    "velocity": 0.4330708661417323,
                    "duration": 0.0625
                },
                {
                    "name": "C7",
                    "midi": 96,
                    "time": 124.125,
                    "velocity": 0.48031496062992124,
                    "duration": 0.0625
                },
                {
                    "name": "A6",
                    "midi": 93,
                    "time": 124.1875,
                    "velocity": 0.4330708661417323,
                    "duration": 0.0625
                },
                {
                    "name": "F6",
                    "midi": 89,
                    "time": 124.25,
                    "velocity": 0.4330708661417323,
                    "duration": 0.0625
                },
                {
                    "name": "A#6",
                    "midi": 94,
                    "time": 124.3125,
                    "velocity": 0.4566929133858268,
                    "duration": 0.1875
                },
                {
                    "name": "E7",
                    "midi": 100,
                    "time": 124.375,
                    "velocity": 0.41732283464566927,
                    "duration": 0.0625
                },
                {
                    "name": "E6",
                    "midi": 88,
                    "time": 124.4375,
                    "velocity": 0.41732283464566927,
                    "duration": 0.0625
                },
                {
                    "name": "A6",
                    "midi": 93,
                    "time": 124.5,
                    "velocity": 0.44881889763779526,
                    "duration": 0.1875
                },
                {
                    "name": "D7",
                    "midi": 98,
                    "time": 124.5625,
                    "velocity": 0.4094488188976378,
                    "duration": 0.0625
                },
                {
                    "name": "D6",
                    "midi": 86,
                    "time": 124.625,
                    "velocity": 0.4094488188976378,
                    "duration": 0.0625
                },
                {
                    "name": "G6",
                    "midi": 91,
                    "time": 124.6875,
                    "velocity": 0.4409448818897638,
                    "duration": 0.1875
                },
                {
                    "name": "C7",
                    "midi": 96,
                    "time": 124.75,
                    "velocity": 0.4015748031496063,
                    "duration": 0.0625
                },
                {
                    "name": "C6",
                    "midi": 84,
                    "time": 124.8125,
                    "velocity": 0.4015748031496063,
                    "duration": 0.0625
                },
                {
                    "name": "F6",
                    "midi": 89,
                    "time": 124.875,
                    "velocity": 0.4251968503937008,
                    "duration": 0.1875
                },
                {
                    "name": "A#6",
                    "midi": 94,
                    "time": 124.9375,
                    "velocity": 0.3858267716535433,
                    "duration": 0.0625
                },
                {
                    "name": "A#5",
                    "midi": 82,
                    "time": 125,
                    "velocity": 0.3858267716535433,
                    "duration": 0.0625
                },
                {
                    "name": "E6",
                    "midi": 88,
                    "time": 125.0625,
                    "velocity": 0.41732283464566927,
                    "duration": 0.1875
                },
                {
                    "name": "A6",
                    "midi": 93,
                    "time": 125.125,
                    "velocity": 0.3858267716535433,
                    "duration": 0.0625
                },
                {
                    "name": "A5",
                    "midi": 81,
                    "time": 125.1875,
                    "velocity": 0.3858267716535433,
                    "duration": 0.0625
                },
                {
                    "name": "D6",
                    "midi": 86,
                    "time": 125.25,
                    "velocity": 0.4094488188976378,
                    "duration": 0.1875
                },
                {
                    "name": "G6",
                    "midi": 91,
                    "time": 125.3125,
                    "velocity": 0.3779527559055118,
                    "duration": 0.0625
                },
                {
                    "name": "G5",
                    "midi": 79,
                    "time": 125.375,
                    "velocity": 0.3779527559055118,
                    "duration": 0.0625
                },
                {
                    "name": "C6",
                    "midi": 84,
                    "time": 125.4375,
                    "velocity": 0.3937007874015748,
                    "duration": 0.1875
                },
                {
                    "name": "F6",
                    "midi": 89,
                    "time": 125.5,
                    "velocity": 0.36220472440944884,
                    "duration": 0.0625
                },
                {
                    "name": "F5",
                    "midi": 77,
                    "time": 125.5625,
                    "velocity": 0.36220472440944884,
                    "duration": 0.0625
                },
                {
                    "name": "B5",
                    "midi": 83,
                    "time": 125.625,
                    "velocity": 0.3858267716535433,
                    "duration": 0.1875
                },
                {
                    "name": "F6",
                    "midi": 89,
                    "time": 125.6875,
                    "velocity": 0.3543307086614173,
                    "duration": 0.0625
                },
                {
                    "name": "F5",
                    "midi": 77,
                    "time": 125.75,
                    "velocity": 0.3543307086614173,
                    "duration": 0.0625
                },
                {
                    "name": "C6",
                    "midi": 84,
                    "time": 125.8125,
                    "velocity": 0.3779527559055118,
                    "duration": 0.1875
                },
                {
                    "name": "F6",
                    "midi": 89,
                    "time": 125.875,
                    "velocity": 0.3464566929133858,
                    "duration": 0.0625
                },
                {
                    "name": "F5",
                    "midi": 77,
                    "time": 125.9375,
                    "velocity": 0.3464566929133858,
                    "duration": 0.0625
                },
                {
                    "name": "D6",
                    "midi": 86,
                    "time": 126,
                    "velocity": 0.4094488188976378,
                    "duration": 0.0625
                },
                {
                    "name": "G5",
                    "midi": 79,
                    "time": 126.0625,
                    "velocity": 0.3464566929133858,
                    "duration": 0.078125
                },
                {
                    "name": "G#5",
                    "midi": 80,
                    "time": 126.125,
                    "velocity": 0.3543307086614173,
                    "duration": 0.078125
                },
                {
                    "name": "A5",
                    "midi": 81,
                    "time": 126.1875,
                    "velocity": 0.3543307086614173,
                    "duration": 0.078125
                },
                {
                    "name": "A#5",
                    "midi": 82,
                    "time": 126.25,
                    "velocity": 0.36220472440944884,
                    "duration": 0.078125
                },
                {
                    "name": "B5",
                    "midi": 83,
                    "time": 126.3125,
                    "velocity": 0.3700787401574803,
                    "duration": 0.078125
                },
                {
                    "name": "C6",
                    "midi": 84,
                    "time": 126.375,
                    "velocity": 0.3779527559055118,
                    "duration": 0.078125
                },
                {
                    "name": "C#6",
                    "midi": 85,
                    "time": 126.4375,
                    "velocity": 0.3858267716535433,
                    "duration": 0.078125
                },
                {
                    "name": "D6",
                    "midi": 86,
                    "time": 126.5,
                    "velocity": 0.3937007874015748,
                    "duration": 0.078125
                },
                {
                    "name": "D#6",
                    "midi": 87,
                    "time": 126.5625,
                    "velocity": 0.4015748031496063,
                    "duration": 0.078125
                },
                {
                    "name": "E6",
                    "midi": 88,
                    "time": 126.625,
                    "velocity": 0.4015748031496063,
                    "duration": 0.078125
                },
                {
                    "name": "F6",
                    "midi": 89,
                    "time": 126.6875,
                    "velocity": 0.4094488188976378,
                    "duration": 0.078125
                },
                {
                    "name": "F#6",
                    "midi": 90,
                    "time": 126.75,
                    "velocity": 0.4251968503937008,
                    "duration": 0.078125
                },
                {
                    "name": "G6",
                    "midi": 91,
                    "time": 126.8125,
                    "velocity": 0.4330708661417323,
                    "duration": 0.078125
                },
                {
                    "name": "G#6",
                    "midi": 92,
                    "time": 126.875,
                    "velocity": 0.4409448818897638,
                    "duration": 0.078125
                },
                {
                    "name": "A6",
                    "midi": 93,
                    "time": 126.9375,
                    "velocity": 0.44881889763779526,
                    "duration": 0.078125
                },
                {
                    "name": "A#6",
                    "midi": 94,
                    "time": 127,
                    "velocity": 0.4566929133858268,
                    "duration": 0.078125
                },
                {
                    "name": "B6",
                    "midi": 95,
                    "time": 127.0625,
                    "velocity": 0.4566929133858268,
                    "duration": 0.078125
                },
                {
                    "name": "C7",
                    "midi": 96,
                    "time": 127.125,
                    "velocity": 0.4645669291338583,
                    "duration": 0.0625
                },
                {
                    "name": "C6",
                    "midi": 84,
                    "time": 127.1875,
                    "velocity": 0.47244094488188976,
                    "duration": 0.078125
                },
                {
                    "name": "C#6",
                    "midi": 85,
                    "time": 127.25,
                    "velocity": 0.48031496062992124,
                    "duration": 0.078125
                },
                {
                    "name": "D6",
                    "midi": 86,
                    "time": 127.3125,
                    "velocity": 0.4881889763779528,
                    "duration": 0.078125
                },
                {
                    "name": "D#6",
                    "midi": 87,
                    "time": 127.375,
                    "velocity": 0.49606299212598426,
                    "duration": 0.078125
                },
                {
                    "name": "E6",
                    "midi": 88,
                    "time": 127.4375,
                    "velocity": 0.5039370078740157,
                    "duration": 0.078125
                },
                {
                    "name": "F6",
                    "midi": 89,
                    "time": 127.5,
                    "velocity": 0.5039370078740157,
                    "duration": 0.078125
                },
                {
                    "name": "F#6",
                    "midi": 90,
                    "time": 127.5625,
                    "velocity": 0.5039370078740157,
                    "duration": 0.078125
                },
                {
                    "name": "G6",
                    "midi": 91,
                    "time": 127.625,
                    "velocity": 0.5118110236220472,
                    "duration": 0.078125
                },
                {
                    "name": "G#6",
                    "midi": 92,
                    "time": 127.6875,
                    "velocity": 0.5196850393700787,
                    "duration": 0.078125
                },
                {
                    "name": "A6",
                    "midi": 93,
                    "time": 127.75,
                    "velocity": 0.5275590551181102,
                    "duration": 0.078125
                },
                {
                    "name": "A#6",
                    "midi": 94,
                    "time": 127.8125,
                    "velocity": 0.5354330708661418,
                    "duration": 0.078125
                },
                {
                    "name": "B6",
                    "midi": 95,
                    "time": 127.875,
                    "velocity": 0.5433070866141733,
                    "duration": 0.0625
                },
                {
                    "name": "C7",
                    "midi": 96,
                    "time": 127.9375,
                    "velocity": 0.5511811023622047,
                    "duration": 0.0625
                },
                {
                    "name": "C#7",
                    "midi": 97,
                    "time": 128,
                    "velocity": 0.5590551181102362,
                    "duration": 0.0625
                },
                {
                    "name": "D7",
                    "midi": 98,
                    "time": 128.0625,
                    "velocity": 0.5669291338582677,
                    "duration": 0.0625
                },
                {
                    "name": "D#7",
                    "midi": 99,
                    "time": 128.125,
                    "velocity": 0.5669291338582677,
                    "duration": 0.0625
                },
                {
                    "name": "E7",
                    "midi": 100,
                    "time": 128.1875,
                    "velocity": 0.5748031496062992,
                    "duration": 0.0625
                },
                {
                    "name": "F7",
                    "midi": 101,
                    "time": 128.25,
                    "velocity": 0.6220472440944882,
                    "duration": 0.0625
                },
                {
                    "name": "C7",
                    "midi": 96,
                    "time": 128.3125,
                    "velocity": 0.5590551181102362,
                    "duration": 0.0625
                },
                {
                    "name": "A6",
                    "midi": 93,
                    "time": 128.375,
                    "velocity": 0.5590551181102362,
                    "duration": 0.0625
                },
                {
                    "name": "F6",
                    "midi": 89,
                    "time": 128.4375,
                    "velocity": 0.6062992125984252,
                    "duration": 0.05937499999998863
                },
                {
                    "name": "F6",
                    "midi": 89,
                    "time": 128.5,
                    "velocity": 0.5433070866141733,
                    "duration": 0.0625
                },
                {
                    "name": "C6",
                    "midi": 84,
                    "time": 128.5625,
                    "velocity": 0.5433070866141733,
                    "duration": 0.0625
                },
                {
                    "name": "C7",
                    "midi": 96,
                    "time": 128.625,
                    "velocity": 0.6062992125984252,
                    "duration": 0.0625
                },
                {
                    "name": "A6",
                    "midi": 93,
                    "time": 128.6875,
                    "velocity": 0.5590551181102362,
                    "duration": 0.0625
                },
                {
                    "name": "F6",
                    "midi": 89,
                    "time": 128.75,
                    "velocity": 0.5590551181102362,
                    "duration": 0.0625
                },
                {
                    "name": "C6",
                    "midi": 84,
                    "time": 128.8125,
                    "velocity": 0.5984251968503937,
                    "duration": 0.05937499999998863
                },
                {
                    "name": "C6",
                    "midi": 84,
                    "time": 128.875,
                    "velocity": 0.5433070866141733,
                    "duration": 0.0625
                },
                {
                    "name": "A5",
                    "midi": 81,
                    "time": 128.9375,
                    "velocity": 0.5511811023622047,
                    "duration": 0.0625
                },
                {
                    "name": "A6",
                    "midi": 93,
                    "time": 129,
                    "velocity": 0.5826771653543307,
                    "duration": 0.0625
                },
                {
                    "name": "F6",
                    "midi": 89,
                    "time": 129.0625,
                    "velocity": 0.5511811023622047,
                    "duration": 0.0625
                },
                {
                    "name": "C6",
                    "midi": 84,
                    "time": 129.125,
                    "velocity": 0.5511811023622047,
                    "duration": 0.0625
                },
                {
                    "name": "A5",
                    "midi": 81,
                    "time": 129.1875,
                    "velocity": 0.5826771653543307,
                    "duration": 0.05937499999998863
                },
                {
                    "name": "A5",
                    "midi": 81,
                    "time": 129.25,
                    "velocity": 0.5433070866141733,
                    "duration": 0.0625
                },
                {
                    "name": "F5",
                    "midi": 77,
                    "time": 129.3125,
                    "velocity": 0.5511811023622047,
                    "duration": 0.05937499999998863
                },
                {
                    "name": "F6",
                    "midi": 89,
                    "time": 129.375,
                    "velocity": 0.5826771653543307,
                    "duration": 0.1875
                },
                {
                    "name": "A3",
                    "midi": 57,
                    "time": 129.5625,
                    "velocity": 0.5669291338582677,
                    "duration": 0.0625
                },
                {
                    "name": "C4",
                    "midi": 60,
                    "time": 129.625,
                    "velocity": 0.5275590551181102,
                    "duration": 0.0625
                },
                {
                    "name": "F4",
                    "midi": 65,
                    "time": 129.6875,
                    "velocity": 0.5354330708661418,
                    "duration": 0.0625
                },
                {
                    "name": "A4",
                    "midi": 69,
                    "time": 129.9375,
                    "velocity": 0.5905511811023622,
                    "duration": 0.0625
                },
                {
                    "name": "C5",
                    "midi": 72,
                    "time": 130,
                    "velocity": 0.5590551181102362,
                    "duration": 0.0625
                },
                {
                    "name": "F5",
                    "midi": 77,
                    "time": 130.0625,
                    "velocity": 0.5511811023622047,
                    "duration": 0.0625
                },
                {
                    "name": "A5",
                    "midi": 81,
                    "time": 130.125,
                    "velocity": 0.5826771653543307,
                    "duration": 0.0625
                },
                {
                    "name": "C6",
                    "midi": 84,
                    "time": 130.1875,
                    "velocity": 0.5669291338582677,
                    "duration": 0.0625
                },
                {
                    "name": "F6",
                    "midi": 89,
                    "time": 130.25,
                    "velocity": 0.5669291338582677,
                    "duration": 0.0625
                },
                {
                    "name": "A6",
                    "midi": 93,
                    "time": 130.3125,
                    "velocity": 0.4251968503937008,
                    "duration": 0.078125
                },
                {
                    "name": "G6",
                    "midi": 91,
                    "time": 130.375,
                    "velocity": 0.41732283464566927,
                    "duration": 0.078125
                },
                {
                    "name": "F6",
                    "midi": 89,
                    "time": 130.4375,
                    "velocity": 0.4094488188976378,
                    "duration": 0.078125
                },
                {
                    "name": "E6",
                    "midi": 88,
                    "time": 130.5,
                    "velocity": 0.3858267716535433,
                    "duration": 0.078125
                },
                {
                    "name": "F6",
                    "midi": 89,
                    "time": 130.5625,
                    "velocity": 0.3700787401574803,
                    "duration": 0.078125
                },
                {
                    "name": "G6",
                    "midi": 91,
                    "time": 130.625,
                    "velocity": 0.3700787401574803,
                    "duration": 0.0625
                },
                {
                    "name": "G5",
                    "midi": 79,
                    "time": 130.6875,
                    "velocity": 0.4015748031496063,
                    "duration": 0.078125
                },
                {
                    "name": "A#5",
                    "midi": 82,
                    "time": 130.75,
                    "velocity": 0.3700787401574803,
                    "duration": 0.078125
                },
                {
                    "name": "C6",
                    "midi": 84,
                    "time": 130.8125,
                    "velocity": 0.3779527559055118,
                    "duration": 0.078125
                },
                {
                    "name": "C#6",
                    "midi": 85,
                    "time": 130.875,
                    "velocity": 0.4330708661417323,
                    "duration": 0.078125
                },
                {
                    "name": "E6",
                    "midi": 88,
                    "time": 130.9375,
                    "velocity": 0.3543307086614173,
                    "duration": 0.078125
                },
                {
                    "name": "G6",
                    "midi": 91,
                    "time": 131,
                    "velocity": 0.3543307086614173,
                    "duration": 0.0625
                },
                {
                    "name": "G5",
                    "midi": 79,
                    "time": 131.0625,
                    "velocity": 0.4015748031496063,
                    "duration": 0.078125
                },
                {
                    "name": "A#5",
                    "midi": 82,
                    "time": 131.125,
                    "velocity": 0.36220472440944884,
                    "duration": 0.078125
                },
                {
                    "name": "C6",
                    "midi": 84,
                    "time": 131.1875,
                    "velocity": 0.36220472440944884,
                    "duration": 0.078125
                },
                {
                    "name": "C#6",
                    "midi": 85,
                    "time": 131.25,
                    "velocity": 0.4409448818897638,
                    "duration": 0.078125
                },
                {
                    "name": "E6",
                    "midi": 88,
                    "time": 131.3125,
                    "velocity": 0.3937007874015748,
                    "duration": 0.078125
                },
                {
                    "name": "G6",
                    "midi": 91,
                    "time": 131.375,
                    "velocity": 0.3937007874015748,
                    "duration": 0.0625
                },
                {
                    "name": "G5",
                    "midi": 79,
                    "time": 131.4375,
                    "velocity": 0.4251968503937008,
                    "duration": 0.078125
                },
                {
                    "name": "A#5",
                    "midi": 82,
                    "time": 131.5,
                    "velocity": 0.3937007874015748,
                    "duration": 0.078125
                },
                {
                    "name": "F6",
                    "midi": 89,
                    "time": 131.5625,
                    "velocity": 0.3937007874015748,
                    "duration": 0.078125
                },
                {
                    "name": "E6",
                    "midi": 88,
                    "time": 131.625,
                    "velocity": 0.3858267716535433,
                    "duration": 0.078125
                },
                {
                    "name": "D#6",
                    "midi": 87,
                    "time": 131.6875,
                    "velocity": 0.3700787401574803,
                    "duration": 0.078125
                },
                {
                    "name": "E6",
                    "midi": 88,
                    "time": 131.75,
                    "velocity": 0.3700787401574803,
                    "duration": 0.078125
                },
                {
                    "name": "E7",
                    "midi": 100,
                    "time": 131.8125,
                    "velocity": 0.3779527559055118,
                    "duration": 0.078125
                },
                {
                    "name": "C#7",
                    "midi": 97,
                    "time": 131.875,
                    "velocity": 0.3464566929133858,
                    "duration": 0.078125
                },
                {
                    "name": "G6",
                    "midi": 91,
                    "time": 131.9375,
                    "velocity": 0.3464566929133858,
                    "duration": 0.0625
                },
                {
                    "name": "E6",
                    "midi": 88,
                    "time": 132,
                    "velocity": 0.3937007874015748,
                    "duration": 0.078125
                },
                {
                    "name": "C#6",
                    "midi": 85,
                    "time": 132.0625,
                    "velocity": 0.31496062992125984,
                    "duration": 0.078125
                },
                {
                    "name": "E6",
                    "midi": 88,
                    "time": 132.125,
                    "velocity": 0.31496062992125984,
                    "duration": 0.078125
                },
                {
                    "name": "E5",
                    "midi": 76,
                    "time": 132.1875,
                    "velocity": 0.3543307086614173,
                    "duration": 0.078125
                },
                {
                    "name": "C#5",
                    "midi": 73,
                    "time": 132.25,
                    "velocity": 0.31496062992125984,
                    "duration": 0.078125
                },
                {
                    "name": "E5",
                    "midi": 76,
                    "time": 132.3125,
                    "velocity": 0.31496062992125984,
                    "duration": 0.0625
                },
                {
                    "name": "E4",
                    "midi": 64,
                    "time": 132.375,
                    "velocity": 0.3779527559055118,
                    "duration": 0.0625
                },
                {
                    "name": "C#4",
                    "midi": 61,
                    "time": 132.4375,
                    "velocity": 0.33070866141732286,
                    "duration": 0.0625
                },
                {
                    "name": "E4",
                    "midi": 64,
                    "time": 132.5,
                    "velocity": 0.33070866141732286,
                    "duration": 0.0625
                },
                {
                    "name": "A3",
                    "midi": 57,
                    "time": 132.5625,
                    "velocity": 0.3464566929133858,
                    "duration": 0.078125
                },
                {
                    "name": "B3",
                    "midi": 59,
                    "time": 132.625,
                    "velocity": 0.3228346456692913,
                    "duration": 0.078125
                },
                {
                    "name": "C#4",
                    "midi": 61,
                    "time": 132.6875,
                    "velocity": 0.31496062992125984,
                    "duration": 0.078125
                },
                {
                    "name": "D4",
                    "midi": 62,
                    "time": 132.75,
                    "velocity": 0.3228346456692913,
                    "duration": 0.078125
                },
                {
                    "name": "A4",
                    "midi": 69,
                    "time": 132.8125,
                    "velocity": 0.30708661417322836,
                    "duration": 0.078125
                },
                {
                    "name": "F#4",
                    "midi": 66,
                    "time": 132.875,
                    "velocity": 0.30708661417322836,
                    "duration": 0.0625
                },
                {
                    "name": "A3",
                    "midi": 57,
                    "time": 132.9375,
                    "velocity": 0.33858267716535434,
                    "duration": 0.078125
                },
                {
                    "name": "C4",
                    "midi": 60,
                    "time": 133,
                    "velocity": 0.30708661417322836,
                    "duration": 0.078125
                },
                {
                    "name": "D#4",
                    "midi": 63,
                    "time": 133.0625,
                    "velocity": 0.31496062992125984,
                    "duration": 0.078125
                },
                {
                    "name": "D4",
                    "midi": 62,
                    "time": 133.125,
                    "velocity": 0.36220472440944884,
                    "duration": 0.078125
                },
                {
                    "name": "A4",
                    "midi": 69,
                    "time": 133.1875,
                    "velocity": 0.2992125984251969,
                    "duration": 0.078125
                },
                {
                    "name": "F#4",
                    "midi": 66,
                    "time": 133.25,
                    "velocity": 0.2992125984251969,
                    "duration": 0.0625
                },
                {
                    "name": "A3",
                    "midi": 57,
                    "time": 133.3125,
                    "velocity": 0.33858267716535434,
                    "duration": 0.078125
                },
                {
                    "name": "C4",
                    "midi": 60,
                    "time": 133.375,
                    "velocity": 0.30708661417322836,
                    "duration": 0.078125
                },
                {
                    "name": "D#4",
                    "midi": 63,
                    "time": 133.4375,
                    "velocity": 0.30708661417322836,
                    "duration": 0.078125
                },
                {
                    "name": "D4",
                    "midi": 62,
                    "time": 133.5,
                    "velocity": 0.3700787401574803,
                    "duration": 0.078125
                },
                {
                    "name": "A4",
                    "midi": 69,
                    "time": 133.5625,
                    "velocity": 0.33070866141732286,
                    "duration": 0.078125
                },
                {
                    "name": "F#4",
                    "midi": 66,
                    "time": 133.625,
                    "velocity": 0.33070866141732286,
                    "duration": 0.0625
                },
                {
                    "name": "A3",
                    "midi": 57,
                    "time": 133.6875,
                    "velocity": 0.3543307086614173,
                    "duration": 0.078125
                },
                {
                    "name": "C4",
                    "midi": 60,
                    "time": 133.75,
                    "velocity": 0.33070866141732286,
                    "duration": 0.078125
                },
                {
                    "name": "D#4",
                    "midi": 63,
                    "time": 133.8125,
                    "velocity": 0.33070866141732286,
                    "duration": 0.078125
                },
                {
                    "name": "D4",
                    "midi": 62,
                    "time": 133.875,
                    "velocity": 0.36220472440944884,
                    "duration": 0.0625
                },
                {
                    "name": "F4",
                    "midi": 65,
                    "time": 133.9375,
                    "velocity": 0.3700787401574803,
                    "duration": 0.0625
                },
                {
                    "name": "G#4",
                    "midi": 68,
                    "time": 134,
                    "velocity": 0.3858267716535433,
                    "duration": 0.0625
                },
                {
                    "name": "B4",
                    "midi": 71,
                    "time": 134.0625,
                    "velocity": 0.3937007874015748,
                    "duration": 0.0625
                },
                {
                    "name": "D5",
                    "midi": 74,
                    "time": 134.125,
                    "velocity": 0.4015748031496063,
                    "duration": 0.0625
                },
                {
                    "name": "F5",
                    "midi": 77,
                    "time": 134.1875,
                    "velocity": 0.41732283464566927,
                    "duration": 0.0625
                },
                {
                    "name": "G#5",
                    "midi": 80,
                    "time": 134.25,
                    "velocity": 0.4251968503937008,
                    "duration": 0.0625
                },
                {
                    "name": "F5",
                    "midi": 77,
                    "time": 134.3125,
                    "velocity": 0.4330708661417323,
                    "duration": 0.0625
                },
                {
                    "name": "G#5",
                    "midi": 80,
                    "time": 134.375,
                    "velocity": 0.44881889763779526,
                    "duration": 0.0625
                },
                {
                    "name": "B5",
                    "midi": 83,
                    "time": 134.4375,
                    "velocity": 0.4566929133858268,
                    "duration": 0.0625
                },
                {
                    "name": "D6",
                    "midi": 86,
                    "time": 134.5,
                    "velocity": 0.4645669291338583,
                    "duration": 0.0625
                },
                {
                    "name": "F6",
                    "midi": 89,
                    "time": 134.5625,
                    "velocity": 0.48031496062992124,
                    "duration": 0.0625
                },
                {
                    "name": "G#6",
                    "midi": 92,
                    "time": 134.625,
                    "velocity": 0.4881889763779528,
                    "duration": 0.0625
                },
                {
                    "name": "C#6",
                    "midi": 85,
                    "time": 134.6875,
                    "velocity": 0.49606299212598426,
                    "duration": 0.0625
                },
                {
                    "name": "D6",
                    "midi": 86,
                    "time": 134.75,
                    "velocity": 0.5118110236220472,
                    "duration": 0.0625
                },
                {
                    "name": "F6",
                    "midi": 89,
                    "time": 134.8125,
                    "velocity": 0.5196850393700787,
                    "duration": 0.0625
                },
                {
                    "name": "G#6",
                    "midi": 92,
                    "time": 134.875,
                    "velocity": 0.5275590551181102,
                    "duration": 0.0625
                },
                {
                    "name": "B6",
                    "midi": 95,
                    "time": 134.9375,
                    "velocity": 0.5669291338582677,
                    "duration": 0.0625
                },
                {
                    "name": "D7",
                    "midi": 98,
                    "time": 134.9765625,
                    "velocity": 0.5118110236220472,
                    "duration": 0.0234375
                },
                {
                    "name": "F7",
                    "midi": 101,
                    "time": 135,
                    "velocity": 0.5826771653543307,
                    "duration": 0.0625
                },
                {
                    "name": "E7",
                    "midi": 100,
                    "time": 135.0625,
                    "velocity": 0.5669291338582677,
                    "duration": 0.0625
                },
                {
                    "name": "D7",
                    "midi": 98,
                    "time": 135.125,
                    "velocity": 0.5511811023622047,
                    "duration": 0.0625
                },
                {
                    "name": "C7",
                    "midi": 96,
                    "time": 135.1875,
                    "velocity": 0.5354330708661418,
                    "duration": 0.0625
                },
                {
                    "name": "A#6",
                    "midi": 94,
                    "time": 135.25,
                    "velocity": 0.5039370078740157,
                    "duration": 0.0625
                },
                {
                    "name": "D7",
                    "midi": 98,
                    "time": 135.3125,
                    "velocity": 0.5118110236220472,
                    "duration": 0.0625
                },
                {
                    "name": "G6",
                    "midi": 91,
                    "time": 135.375,
                    "velocity": 0.5196850393700787,
                    "duration": 0.0625
                },
                {
                    "name": "E6",
                    "midi": 88,
                    "time": 135.4375,
                    "velocity": 0.48031496062992124,
                    "duration": 0.0625
                },
                {
                    "name": "C7",
                    "midi": 96,
                    "time": 135.5,
                    "velocity": 0.48031496062992124,
                    "duration": 0.0625
                },
                {
                    "name": "C6",
                    "midi": 84,
                    "time": 135.5625,
                    "velocity": 0.5118110236220472,
                    "duration": 0.0625
                },
                {
                    "name": "A#5",
                    "midi": 82,
                    "time": 135.625,
                    "velocity": 0.47244094488188976,
                    "duration": 0.0625
                },
                {
                    "name": "D6",
                    "midi": 86,
                    "time": 135.6875,
                    "velocity": 0.47244094488188976,
                    "duration": 0.0625
                },
                {
                    "name": "G5",
                    "midi": 79,
                    "time": 135.75,
                    "velocity": 0.44881889763779526,
                    "duration": 0.0625
                },
                {
                    "name": "E5",
                    "midi": 76,
                    "time": 135.8125,
                    "velocity": 0.4015748031496063,
                    "duration": 0.0625
                },
                {
                    "name": "C6",
                    "midi": 84,
                    "time": 135.875,
                    "velocity": 0.4015748031496063,
                    "duration": 0.0625
                },
                {
                    "name": "C5",
                    "midi": 72,
                    "time": 135.9375,
                    "velocity": 0.4330708661417323,
                    "duration": 0.0625
                },
                {
                    "name": "D5",
                    "midi": 74,
                    "time": 136,
                    "velocity": 0.3858267716535433,
                    "duration": 0.0625
                },
                {
                    "name": "E5",
                    "midi": 76,
                    "time": 136.0625,
                    "velocity": 0.3858267716535433,
                    "duration": 0.0625
                },
                {
                    "name": "F5",
                    "midi": 77,
                    "time": 136.125,
                    "velocity": 0.4094488188976378,
                    "duration": 0.0625
                },
                {
                    "name": "A5",
                    "midi": 81,
                    "time": 136.1875,
                    "velocity": 0.3779527559055118,
                    "duration": 0.0625
                },
                {
                    "name": "A#5",
                    "midi": 82,
                    "time": 136.25,
                    "velocity": 0.3779527559055118,
                    "duration": 0.0625
                },
                {
                    "name": "C6",
                    "midi": 84,
                    "time": 136.3125,
                    "velocity": 0.4094488188976378,
                    "duration": 0.0625
                },
                {
                    "name": "F6",
                    "midi": 89,
                    "time": 136.375,
                    "velocity": 0.3779527559055118,
                    "duration": 0.0625
                },
                {
                    "name": "A6",
                    "midi": 93,
                    "time": 136.4375,
                    "velocity": 0.3779527559055118,
                    "duration": 0.0625
                },
                {
                    "name": "C7",
                    "midi": 96,
                    "time": 136.5,
                    "velocity": 0.4645669291338583,
                    "duration": 0.0625
                },
                {
                    "name": "A#6",
                    "midi": 94,
                    "time": 136.5625,
                    "velocity": 0.41732283464566927,
                    "duration": 0.0625
                },
                {
                    "name": "A6",
                    "midi": 93,
                    "time": 136.625,
                    "velocity": 0.41732283464566927,
                    "duration": 0.0390625
                },
                {
                    "name": "A#6",
                    "midi": 94,
                    "time": 136.6640625,
                    "velocity": 0.41732283464566927,
                    "duration": 0.0234375
                },
                {
                    "name": "A6",
                    "midi": 93,
                    "time": 136.6875,
                    "velocity": 0.4566929133858268,
                    "duration": 0.0625
                },
                {
                    "name": "G6",
                    "midi": 91,
                    "time": 136.75,
                    "velocity": 0.41732283464566927,
                    "duration": 0.0625
                },
                {
                    "name": "F6",
                    "midi": 89,
                    "time": 136.8125,
                    "velocity": 0.41732283464566927,
                    "duration": 0.0390625
                },
                {
                    "name": "G6",
                    "midi": 91,
                    "time": 136.8515625,
                    "velocity": 0.4566929133858268,
                    "duration": 0.0234375
                },
                {
                    "name": "F6",
                    "midi": 89,
                    "time": 136.875,
                    "velocity": 0.47244094488188976,
                    "duration": 0.0625
                },
                {
                    "name": "E6",
                    "midi": 88,
                    "time": 136.9375,
                    "velocity": 0.41732283464566927,
                    "duration": 0.0625
                },
                {
                    "name": "D6",
                    "midi": 86,
                    "time": 137,
                    "velocity": 0.41732283464566927,
                    "duration": 0.0390625
                },
                {
                    "name": "E6",
                    "midi": 88,
                    "time": 137.0390625,
                    "velocity": 0.4566929133858268,
                    "duration": 0.0234375
                },
                {
                    "name": "D6",
                    "midi": 86,
                    "time": 137.0625,
                    "velocity": 0.4645669291338583,
                    "duration": 0.0625
                },
                {
                    "name": "C6",
                    "midi": 84,
                    "time": 137.125,
                    "velocity": 0.4094488188976378,
                    "duration": 0.0625
                },
                {
                    "name": "B5",
                    "midi": 83,
                    "time": 137.1875,
                    "velocity": 0.4094488188976378,
                    "duration": 0.0390625
                },
                {
                    "name": "C6",
                    "midi": 84,
                    "time": 137.2265625,
                    "velocity": 0.41732283464566927,
                    "duration": 0.0234375
                },
                {
                    "name": "A6",
                    "midi": 93,
                    "time": 137.25,
                    "velocity": 0.44881889763779526,
                    "duration": 0.09375
                },
                {
                    "name": "F6",
                    "midi": 89,
                    "time": 137.375,
                    "velocity": 0.4409448818897638,
                    "duration": 0.0625
                },
                {
                    "name": "C6",
                    "midi": 84,
                    "time": 137.4375,
                    "velocity": 0.4409448818897638,
                    "duration": 0.0625
                },
                {
                    "name": "A5",
                    "midi": 81,
                    "time": 137.5,
                    "velocity": 0.4409448818897638,
                    "duration": 0.0625
                },
                {
                    "name": "F5",
                    "midi": 77,
                    "time": 137.5625,
                    "velocity": 0.4330708661417323,
                    "duration": 0.0625
                },
                {
                    "name": "C5",
                    "midi": 72,
                    "time": 137.625,
                    "velocity": 0.4330708661417323,
                    "duration": 0.0625
                },
                {
                    "name": "C6",
                    "midi": 84,
                    "time": 137.6875,
                    "velocity": 0.4251968503937008,
                    "duration": 0.0625
                },
                {
                    "name": "A5",
                    "midi": 81,
                    "time": 137.75,
                    "velocity": 0.4251968503937008,
                    "duration": 0.0625
                },
                {
                    "name": "F5",
                    "midi": 77,
                    "time": 137.8125,
                    "velocity": 0.41732283464566927,
                    "duration": 0.0625
                },
                {
                    "name": "C5",
                    "midi": 72,
                    "time": 137.875,
                    "velocity": 0.41732283464566927,
                    "duration": 0.0625
                },
                {
                    "name": "A4",
                    "midi": 69,
                    "time": 137.9375,
                    "velocity": 0.41732283464566927,
                    "duration": 0.0625
                },
                {
                    "name": "C5",
                    "midi": 72,
                    "time": 138,
                    "velocity": 0.4094488188976378,
                    "duration": 0.0625
                },
                {
                    "name": "G4",
                    "midi": 67,
                    "time": 138.0625,
                    "velocity": 0.4094488188976378,
                    "duration": 0.0625
                },
                {
                    "name": "E4",
                    "midi": 64,
                    "time": 138.125,
                    "velocity": 0.4015748031496063,
                    "duration": 0.0625
                },
                {
                    "name": "C4",
                    "midi": 60,
                    "time": 138.1875,
                    "velocity": 0.4015748031496063,
                    "duration": 0.0625
                },
                {
                    "name": "A#3",
                    "midi": 58,
                    "time": 138.25,
                    "velocity": 0.3937007874015748,
                    "duration": 0.0625
                },
                {
                    "name": "G3",
                    "midi": 55,
                    "time": 138.3125,
                    "velocity": 0.3937007874015748,
                    "duration": 0.0625
                },
                {
                    "name": "F3",
                    "midi": 53,
                    "time": 138.375,
                    "velocity": 0.3937007874015748,
                    "duration": 0.05937499999998863
                },
                {
                    "name": "F3",
                    "midi": 53,
                    "time": 138.4375,
                    "velocity": 0.4015748031496063,
                    "duration": 0.0625
                },
                {
                    "name": "A3",
                    "midi": 57,
                    "time": 138.5,
                    "velocity": 0.4094488188976378,
                    "duration": 0.0625
                },
                {
                    "name": "F4",
                    "midi": 65,
                    "time": 138.5625,
                    "velocity": 0.41732283464566927,
                    "duration": 0.05937499999998863
                },
                {
                    "name": "F4",
                    "midi": 65,
                    "time": 138.625,
                    "velocity": 0.4330708661417323,
                    "duration": 0.0625
                },
                {
                    "name": "A4",
                    "midi": 69,
                    "time": 138.6875,
                    "velocity": 0.4409448818897638,
                    "duration": 0.0625
                },
                {
                    "name": "F5",
                    "midi": 77,
                    "time": 138.75,
                    "velocity": 0.44881889763779526,
                    "duration": 0.05937499999998863
                },
                {
                    "name": "F5",
                    "midi": 77,
                    "time": 138.8125,
                    "velocity": 0.4566929133858268,
                    "duration": 0.0625
                },
                {
                    "name": "A5",
                    "midi": 81,
                    "time": 138.875,
                    "velocity": 0.47244094488188976,
                    "duration": 0.0625
                },
                {
                    "name": "F6",
                    "midi": 89,
                    "time": 138.9375,
                    "velocity": 0.48031496062992124,
                    "duration": 0.05937499999998863
                },
                {
                    "name": "F6",
                    "midi": 89,
                    "time": 139,
                    "velocity": 0.4881889763779528,
                    "duration": 0.0625
                },
                {
                    "name": "A6",
                    "midi": 93,
                    "time": 139.0625,
                    "velocity": 0.49606299212598426,
                    "duration": 0.0625
                },
                {
                    "name": "F7",
                    "midi": 101,
                    "time": 139.125,
                    "velocity": 0.5590551181102362,
                    "duration": 0.1875
                },
                {
                    "name": "A6",
                    "midi": 93,
                    "time": 139.3125,
                    "velocity": 0.4251968503937008,
                    "duration": 0.078125
                },
                {
                    "name": "G6",
                    "midi": 91,
                    "time": 139.375,
                    "velocity": 0.41732283464566927,
                    "duration": 0.078125
                },
                {
                    "name": "F6",
                    "midi": 89,
                    "time": 139.4375,
                    "velocity": 0.4094488188976378,
                    "duration": 0.078125
                },
                {
                    "name": "E6",
                    "midi": 88,
                    "time": 139.5,
                    "velocity": 0.3858267716535433,
                    "duration": 0.078125
                },
                {
                    "name": "F6",
                    "midi": 89,
                    "time": 139.5625,
                    "velocity": 0.3700787401574803,
                    "duration": 0.078125
                },
                {
                    "name": "G6",
                    "midi": 91,
                    "time": 139.625,
                    "velocity": 0.3700787401574803,
                    "duration": 0.0625
                },
                {
                    "name": "G5",
                    "midi": 79,
                    "time": 139.6875,
                    "velocity": 0.4015748031496063,
                    "duration": 0.078125
                },
                {
                    "name": "A#5",
                    "midi": 82,
                    "time": 139.75,
                    "velocity": 0.3700787401574803,
                    "duration": 0.078125
                },
                {
                    "name": "C6",
                    "midi": 84,
                    "time": 139.8125,
                    "velocity": 0.3779527559055118,
                    "duration": 0.078125
                },
                {
                    "name": "C#6",
                    "midi": 85,
                    "time": 139.875,
                    "velocity": 0.4330708661417323,
                    "duration": 0.078125
                },
                {
                    "name": "E6",
                    "midi": 88,
                    "time": 139.9375,
                    "velocity": 0.3543307086614173,
                    "duration": 0.078125
                },
                {
                    "name": "G6",
                    "midi": 91,
                    "time": 140,
                    "velocity": 0.3543307086614173,
                    "duration": 0.0625
                },
                {
                    "name": "G5",
                    "midi": 79,
                    "time": 140.0625,
                    "velocity": 0.4015748031496063,
                    "duration": 0.078125
                },
                {
                    "name": "A#5",
                    "midi": 82,
                    "time": 140.125,
                    "velocity": 0.36220472440944884,
                    "duration": 0.078125
                },
                {
                    "name": "C6",
                    "midi": 84,
                    "time": 140.1875,
                    "velocity": 0.36220472440944884,
                    "duration": 0.078125
                },
                {
                    "name": "C#6",
                    "midi": 85,
                    "time": 140.25,
                    "velocity": 0.4409448818897638,
                    "duration": 0.078125
                },
                {
                    "name": "E6",
                    "midi": 88,
                    "time": 140.3125,
                    "velocity": 0.3937007874015748,
                    "duration": 0.078125
                },
                {
                    "name": "G6",
                    "midi": 91,
                    "time": 140.375,
                    "velocity": 0.3937007874015748,
                    "duration": 0.0625
                },
                {
                    "name": "G5",
                    "midi": 79,
                    "time": 140.4375,
                    "velocity": 0.4251968503937008,
                    "duration": 0.078125
                },
                {
                    "name": "A#5",
                    "midi": 82,
                    "time": 140.5,
                    "velocity": 0.3937007874015748,
                    "duration": 0.078125
                },
                {
                    "name": "F6",
                    "midi": 89,
                    "time": 140.5625,
                    "velocity": 0.3937007874015748,
                    "duration": 0.078125
                },
                {
                    "name": "E6",
                    "midi": 88,
                    "time": 140.625,
                    "velocity": 0.3858267716535433,
                    "duration": 0.078125
                },
                {
                    "name": "D#6",
                    "midi": 87,
                    "time": 140.6875,
                    "velocity": 0.3700787401574803,
                    "duration": 0.078125
                },
                {
                    "name": "E6",
                    "midi": 88,
                    "time": 140.75,
                    "velocity": 0.3700787401574803,
                    "duration": 0.078125
                },
                {
                    "name": "E7",
                    "midi": 100,
                    "time": 140.8125,
                    "velocity": 0.3779527559055118,
                    "duration": 0.078125
                },
                {
                    "name": "C#7",
                    "midi": 97,
                    "time": 140.875,
                    "velocity": 0.3464566929133858,
                    "duration": 0.078125
                },
                {
                    "name": "G6",
                    "midi": 91,
                    "time": 140.9375,
                    "velocity": 0.3464566929133858,
                    "duration": 0.0625
                },
                {
                    "name": "E6",
                    "midi": 88,
                    "time": 141,
                    "velocity": 0.3937007874015748,
                    "duration": 0.078125
                },
                {
                    "name": "C#6",
                    "midi": 85,
                    "time": 141.0625,
                    "velocity": 0.31496062992125984,
                    "duration": 0.078125
                },
                {
                    "name": "E6",
                    "midi": 88,
                    "time": 141.125,
                    "velocity": 0.31496062992125984,
                    "duration": 0.078125
                },
                {
                    "name": "E5",
                    "midi": 76,
                    "time": 141.1875,
                    "velocity": 0.3543307086614173,
                    "duration": 0.078125
                },
                {
                    "name": "C#5",
                    "midi": 73,
                    "time": 141.25,
                    "velocity": 0.31496062992125984,
                    "duration": 0.078125
                },
                {
                    "name": "E5",
                    "midi": 76,
                    "time": 141.3125,
                    "velocity": 0.31496062992125984,
                    "duration": 0.0625
                },
                {
                    "name": "E4",
                    "midi": 64,
                    "time": 141.375,
                    "velocity": 0.3779527559055118,
                    "duration": 0.0625
                },
                {
                    "name": "C#4",
                    "midi": 61,
                    "time": 141.4375,
                    "velocity": 0.33070866141732286,
                    "duration": 0.0625
                },
                {
                    "name": "E4",
                    "midi": 64,
                    "time": 141.5,
                    "velocity": 0.33070866141732286,
                    "duration": 0.0625
                },
                {
                    "name": "A3",
                    "midi": 57,
                    "time": 141.5625,
                    "velocity": 0.3464566929133858,
                    "duration": 0.078125
                },
                {
                    "name": "B3",
                    "midi": 59,
                    "time": 141.625,
                    "velocity": 0.3228346456692913,
                    "duration": 0.078125
                },
                {
                    "name": "C#4",
                    "midi": 61,
                    "time": 141.6875,
                    "velocity": 0.31496062992125984,
                    "duration": 0.078125
                },
                {
                    "name": "D4",
                    "midi": 62,
                    "time": 141.75,
                    "velocity": 0.3228346456692913,
                    "duration": 0.078125
                },
                {
                    "name": "A4",
                    "midi": 69,
                    "time": 141.8125,
                    "velocity": 0.30708661417322836,
                    "duration": 0.078125
                },
                {
                    "name": "F#4",
                    "midi": 66,
                    "time": 141.875,
                    "velocity": 0.30708661417322836,
                    "duration": 0.0625
                },
                {
                    "name": "A3",
                    "midi": 57,
                    "time": 141.9375,
                    "velocity": 0.33858267716535434,
                    "duration": 0.078125
                },
                {
                    "name": "C4",
                    "midi": 60,
                    "time": 142,
                    "velocity": 0.30708661417322836,
                    "duration": 0.078125
                },
                {
                    "name": "D#4",
                    "midi": 63,
                    "time": 142.0625,
                    "velocity": 0.31496062992125984,
                    "duration": 0.078125
                },
                {
                    "name": "D4",
                    "midi": 62,
                    "time": 142.125,
                    "velocity": 0.36220472440944884,
                    "duration": 0.078125
                },
                {
                    "name": "A4",
                    "midi": 69,
                    "time": 142.1875,
                    "velocity": 0.2992125984251969,
                    "duration": 0.078125
                },
                {
                    "name": "F#4",
                    "midi": 66,
                    "time": 142.25,
                    "velocity": 0.2992125984251969,
                    "duration": 0.0625
                },
                {
                    "name": "A3",
                    "midi": 57,
                    "time": 142.3125,
                    "velocity": 0.33858267716535434,
                    "duration": 0.078125
                },
                {
                    "name": "C4",
                    "midi": 60,
                    "time": 142.375,
                    "velocity": 0.30708661417322836,
                    "duration": 0.078125
                },
                {
                    "name": "D#4",
                    "midi": 63,
                    "time": 142.4375,
                    "velocity": 0.30708661417322836,
                    "duration": 0.078125
                },
                {
                    "name": "D4",
                    "midi": 62,
                    "time": 142.5,
                    "velocity": 0.3700787401574803,
                    "duration": 0.078125
                },
                {
                    "name": "A4",
                    "midi": 69,
                    "time": 142.5625,
                    "velocity": 0.33070866141732286,
                    "duration": 0.078125
                },
                {
                    "name": "F#4",
                    "midi": 66,
                    "time": 142.625,
                    "velocity": 0.33070866141732286,
                    "duration": 0.0625
                },
                {
                    "name": "A3",
                    "midi": 57,
                    "time": 142.6875,
                    "velocity": 0.3543307086614173,
                    "duration": 0.078125
                },
                {
                    "name": "C4",
                    "midi": 60,
                    "time": 142.75,
                    "velocity": 0.33070866141732286,
                    "duration": 0.078125
                },
                {
                    "name": "D#4",
                    "midi": 63,
                    "time": 142.8125,
                    "velocity": 0.33070866141732286,
                    "duration": 0.078125
                },
                {
                    "name": "D4",
                    "midi": 62,
                    "time": 142.875,
                    "velocity": 0.36220472440944884,
                    "duration": 0.0625
                },
                {
                    "name": "F4",
                    "midi": 65,
                    "time": 142.9375,
                    "velocity": 0.3700787401574803,
                    "duration": 0.0625
                },
                {
                    "name": "G#4",
                    "midi": 68,
                    "time": 143,
                    "velocity": 0.3858267716535433,
                    "duration": 0.0625
                },
                {
                    "name": "B4",
                    "midi": 71,
                    "time": 143.0625,
                    "velocity": 0.3937007874015748,
                    "duration": 0.0625
                },
                {
                    "name": "D5",
                    "midi": 74,
                    "time": 143.125,
                    "velocity": 0.4015748031496063,
                    "duration": 0.0625
                },
                {
                    "name": "F5",
                    "midi": 77,
                    "time": 143.1875,
                    "velocity": 0.41732283464566927,
                    "duration": 0.0625
                },
                {
                    "name": "G#5",
                    "midi": 80,
                    "time": 143.25,
                    "velocity": 0.4251968503937008,
                    "duration": 0.0625
                },
                {
                    "name": "F5",
                    "midi": 77,
                    "time": 143.3125,
                    "velocity": 0.4330708661417323,
                    "duration": 0.0625
                },
                {
                    "name": "G#5",
                    "midi": 80,
                    "time": 143.375,
                    "velocity": 0.44881889763779526,
                    "duration": 0.0625
                },
                {
                    "name": "B5",
                    "midi": 83,
                    "time": 143.4375,
                    "velocity": 0.4566929133858268,
                    "duration": 0.0625
                },
                {
                    "name": "D6",
                    "midi": 86,
                    "time": 143.5,
                    "velocity": 0.4645669291338583,
                    "duration": 0.0625
                },
                {
                    "name": "F6",
                    "midi": 89,
                    "time": 143.5625,
                    "velocity": 0.48031496062992124,
                    "duration": 0.0625
                },
                {
                    "name": "G#6",
                    "midi": 92,
                    "time": 143.625,
                    "velocity": 0.4881889763779528,
                    "duration": 0.0625
                },
                {
                    "name": "C#6",
                    "midi": 85,
                    "time": 143.6875,
                    "velocity": 0.49606299212598426,
                    "duration": 0.0625
                },
                {
                    "name": "D6",
                    "midi": 86,
                    "time": 143.75,
                    "velocity": 0.5118110236220472,
                    "duration": 0.0625
                },
                {
                    "name": "F6",
                    "midi": 89,
                    "time": 143.8125,
                    "velocity": 0.5196850393700787,
                    "duration": 0.0625
                },
                {
                    "name": "G#6",
                    "midi": 92,
                    "time": 143.875,
                    "velocity": 0.5275590551181102,
                    "duration": 0.0625
                },
                {
                    "name": "B6",
                    "midi": 95,
                    "time": 143.9375,
                    "velocity": 0.5669291338582677,
                    "duration": 0.0625
                },
                {
                    "name": "D7",
                    "midi": 98,
                    "time": 143.9765625,
                    "velocity": 0.5118110236220472,
                    "duration": 0.0234375
                },
                {
                    "name": "F7",
                    "midi": 101,
                    "time": 144,
                    "velocity": 0.5826771653543307,
                    "duration": 0.0625
                },
                {
                    "name": "E7",
                    "midi": 100,
                    "time": 144.0625,
                    "velocity": 0.5669291338582677,
                    "duration": 0.0625
                },
                {
                    "name": "D7",
                    "midi": 98,
                    "time": 144.125,
                    "velocity": 0.5511811023622047,
                    "duration": 0.0625
                },
                {
                    "name": "C7",
                    "midi": 96,
                    "time": 144.1875,
                    "velocity": 0.5354330708661418,
                    "duration": 0.0625
                },
                {
                    "name": "A#6",
                    "midi": 94,
                    "time": 144.25,
                    "velocity": 0.5039370078740157,
                    "duration": 0.0625
                },
                {
                    "name": "D7",
                    "midi": 98,
                    "time": 144.3125,
                    "velocity": 0.5118110236220472,
                    "duration": 0.0625
                },
                {
                    "name": "G6",
                    "midi": 91,
                    "time": 144.375,
                    "velocity": 0.5196850393700787,
                    "duration": 0.0625
                },
                {
                    "name": "E6",
                    "midi": 88,
                    "time": 144.4375,
                    "velocity": 0.48031496062992124,
                    "duration": 0.0625
                },
                {
                    "name": "C7",
                    "midi": 96,
                    "time": 144.5,
                    "velocity": 0.48031496062992124,
                    "duration": 0.0625
                },
                {
                    "name": "C6",
                    "midi": 84,
                    "time": 144.5625,
                    "velocity": 0.5118110236220472,
                    "duration": 0.0625
                },
                {
                    "name": "A#5",
                    "midi": 82,
                    "time": 144.625,
                    "velocity": 0.47244094488188976,
                    "duration": 0.0625
                },
                {
                    "name": "D6",
                    "midi": 86,
                    "time": 144.6875,
                    "velocity": 0.47244094488188976,
                    "duration": 0.0625
                },
                {
                    "name": "G5",
                    "midi": 79,
                    "time": 144.75,
                    "velocity": 0.44881889763779526,
                    "duration": 0.0625
                },
                {
                    "name": "E5",
                    "midi": 76,
                    "time": 144.8125,
                    "velocity": 0.4015748031496063,
                    "duration": 0.0625
                },
                {
                    "name": "C6",
                    "midi": 84,
                    "time": 144.875,
                    "velocity": 0.4015748031496063,
                    "duration": 0.0625
                },
                {
                    "name": "C5",
                    "midi": 72,
                    "time": 144.9375,
                    "velocity": 0.4330708661417323,
                    "duration": 0.0625
                },
                {
                    "name": "D5",
                    "midi": 74,
                    "time": 145,
                    "velocity": 0.3858267716535433,
                    "duration": 0.0625
                },
                {
                    "name": "E5",
                    "midi": 76,
                    "time": 145.0625,
                    "velocity": 0.3858267716535433,
                    "duration": 0.0625
                },
                {
                    "name": "F5",
                    "midi": 77,
                    "time": 145.125,
                    "velocity": 0.4094488188976378,
                    "duration": 0.0625
                },
                {
                    "name": "A5",
                    "midi": 81,
                    "time": 145.1875,
                    "velocity": 0.3779527559055118,
                    "duration": 0.0625
                },
                {
                    "name": "A#5",
                    "midi": 82,
                    "time": 145.25,
                    "velocity": 0.3779527559055118,
                    "duration": 0.0625
                },
                {
                    "name": "C6",
                    "midi": 84,
                    "time": 145.3125,
                    "velocity": 0.4094488188976378,
                    "duration": 0.0625
                },
                {
                    "name": "F6",
                    "midi": 89,
                    "time": 145.375,
                    "velocity": 0.3779527559055118,
                    "duration": 0.0625
                },
                {
                    "name": "A6",
                    "midi": 93,
                    "time": 145.4375,
                    "velocity": 0.3779527559055118,
                    "duration": 0.0625
                },
                {
                    "name": "C7",
                    "midi": 96,
                    "time": 145.5,
                    "velocity": 0.4645669291338583,
                    "duration": 0.0625
                },
                {
                    "name": "A#6",
                    "midi": 94,
                    "time": 145.5625,
                    "velocity": 0.41732283464566927,
                    "duration": 0.0625
                },
                {
                    "name": "A6",
                    "midi": 93,
                    "time": 145.625,
                    "velocity": 0.41732283464566927,
                    "duration": 0.0390625
                },
                {
                    "name": "A#6",
                    "midi": 94,
                    "time": 145.6640625,
                    "velocity": 0.41732283464566927,
                    "duration": 0.0234375
                },
                {
                    "name": "A6",
                    "midi": 93,
                    "time": 145.6875,
                    "velocity": 0.4566929133858268,
                    "duration": 0.0625
                },
                {
                    "name": "G6",
                    "midi": 91,
                    "time": 145.75,
                    "velocity": 0.41732283464566927,
                    "duration": 0.0625
                },
                {
                    "name": "F6",
                    "midi": 89,
                    "time": 145.8125,
                    "velocity": 0.41732283464566927,
                    "duration": 0.0390625
                },
                {
                    "name": "G6",
                    "midi": 91,
                    "time": 145.8515625,
                    "velocity": 0.4566929133858268,
                    "duration": 0.0234375
                },
                {
                    "name": "F6",
                    "midi": 89,
                    "time": 145.875,
                    "velocity": 0.47244094488188976,
                    "duration": 0.0625
                },
                {
                    "name": "E6",
                    "midi": 88,
                    "time": 145.9375,
                    "velocity": 0.41732283464566927,
                    "duration": 0.0625
                },
                {
                    "name": "D6",
                    "midi": 86,
                    "time": 146,
                    "velocity": 0.41732283464566927,
                    "duration": 0.0390625
                },
                {
                    "name": "E6",
                    "midi": 88,
                    "time": 146.0390625,
                    "velocity": 0.4566929133858268,
                    "duration": 0.0234375
                },
                {
                    "name": "D6",
                    "midi": 86,
                    "time": 146.0625,
                    "velocity": 0.4645669291338583,
                    "duration": 0.0625
                },
                {
                    "name": "C6",
                    "midi": 84,
                    "time": 146.125,
                    "velocity": 0.4094488188976378,
                    "duration": 0.0625
                },
                {
                    "name": "B5",
                    "midi": 83,
                    "time": 146.1875,
                    "velocity": 0.4094488188976378,
                    "duration": 0.0390625
                },
                {
                    "name": "C6",
                    "midi": 84,
                    "time": 146.2265625,
                    "velocity": 0.41732283464566927,
                    "duration": 0.0234375
                },
                {
                    "name": "A6",
                    "midi": 93,
                    "time": 146.25,
                    "velocity": 0.44881889763779526,
                    "duration": 0.09375
                },
                {
                    "name": "F6",
                    "midi": 89,
                    "time": 146.375,
                    "velocity": 0.4409448818897638,
                    "duration": 0.0625
                },
                {
                    "name": "C6",
                    "midi": 84,
                    "time": 146.4375,
                    "velocity": 0.4409448818897638,
                    "duration": 0.0625
                },
                {
                    "name": "A5",
                    "midi": 81,
                    "time": 146.5,
                    "velocity": 0.4409448818897638,
                    "duration": 0.0625
                },
                {
                    "name": "F5",
                    "midi": 77,
                    "time": 146.5625,
                    "velocity": 0.4330708661417323,
                    "duration": 0.0625
                },
                {
                    "name": "C5",
                    "midi": 72,
                    "time": 146.625,
                    "velocity": 0.4330708661417323,
                    "duration": 0.0625
                },
                {
                    "name": "C6",
                    "midi": 84,
                    "time": 146.6875,
                    "velocity": 0.4251968503937008,
                    "duration": 0.0625
                },
                {
                    "name": "A5",
                    "midi": 81,
                    "time": 146.75,
                    "velocity": 0.4251968503937008,
                    "duration": 0.0625
                },
                {
                    "name": "F5",
                    "midi": 77,
                    "time": 146.8125,
                    "velocity": 0.41732283464566927,
                    "duration": 0.0625
                },
                {
                    "name": "C5",
                    "midi": 72,
                    "time": 146.875,
                    "velocity": 0.41732283464566927,
                    "duration": 0.0625
                },
                {
                    "name": "A4",
                    "midi": 69,
                    "time": 146.9375,
                    "velocity": 0.41732283464566927,
                    "duration": 0.0625
                },
                {
                    "name": "C5",
                    "midi": 72,
                    "time": 147,
                    "velocity": 0.4094488188976378,
                    "duration": 0.0625
                },
                {
                    "name": "G4",
                    "midi": 67,
                    "time": 147.0625,
                    "velocity": 0.4094488188976378,
                    "duration": 0.0625
                },
                {
                    "name": "E4",
                    "midi": 64,
                    "time": 147.125,
                    "velocity": 0.4015748031496063,
                    "duration": 0.0625
                },
                {
                    "name": "C4",
                    "midi": 60,
                    "time": 147.1875,
                    "velocity": 0.4015748031496063,
                    "duration": 0.0625
                },
                {
                    "name": "A#3",
                    "midi": 58,
                    "time": 147.25,
                    "velocity": 0.3937007874015748,
                    "duration": 0.0625
                },
                {
                    "name": "G3",
                    "midi": 55,
                    "time": 147.3125,
                    "velocity": 0.3937007874015748,
                    "duration": 0.0625
                },
                {
                    "name": "F3",
                    "midi": 53,
                    "time": 147.375,
                    "velocity": 0.3937007874015748,
                    "duration": 0.0625
                },
                {
                    "name": "A3",
                    "midi": 57,
                    "time": 147.4375,
                    "velocity": 0.4015748031496063,
                    "duration": 0.0625
                },
                {
                    "name": "C4",
                    "midi": 60,
                    "time": 147.5,
                    "velocity": 0.4094488188976378,
                    "duration": 0.0625
                },
                {
                    "name": "F4",
                    "midi": 65,
                    "time": 147.5625,
                    "velocity": 0.4094488188976378,
                    "duration": 0.046875
                },
                {
                    "name": "A4",
                    "midi": 69,
                    "time": 147.609375,
                    "velocity": 0.4094488188976378,
                    "duration": 0.046875
                },
                {
                    "name": "C5",
                    "midi": 72,
                    "time": 147.65625,
                    "velocity": 0.41732283464566927,
                    "duration": 0.046875
                },
                {
                    "name": "F5",
                    "midi": 77,
                    "time": 147.703125,
                    "velocity": 0.41732283464566927,
                    "duration": 0.046875
                },
                {
                    "name": "F5",
                    "midi": 77,
                    "time": 147.84375,
                    "velocity": 0.41732283464566927,
                    "duration": 0.09375
                },
                {
                    "name": "A5",
                    "midi": 81,
                    "time": 147.8671875,
                    "velocity": 0.4409448818897638,
                    "duration": 0.0703125
                },
                {
                    "name": "C6",
                    "midi": 84,
                    "time": 147.890625,
                    "velocity": 0.47244094488188976,
                    "duration": 0.046875
                },
                {
                    "name": "F6",
                    "midi": 89,
                    "time": 147.9140625,
                    "velocity": 0.49606299212598426,
                    "duration": 0.0234375
                },
                {
                    "name": "D6",
                    "midi": 86,
                    "time": 149.625,
                    "velocity": 0.3937007874015748,
                    "duration": 0.5625
                },
                {
                    "name": "D5",
                    "midi": 74,
                    "time": 149.625,
                    "velocity": 0.33070866141732286,
                    "duration": 0.5625
                },
                {
                    "name": "D#6",
                    "midi": 87,
                    "time": 150.1875,
                    "velocity": 0.41732283464566927,
                    "duration": 0.5625
                },
                {
                    "name": "D#5",
                    "midi": 75,
                    "time": 150.1875,
                    "velocity": 0.3543307086614173,
                    "duration": 0.5625
                },
                {
                    "name": "G#6",
                    "midi": 92,
                    "time": 150.75,
                    "velocity": 0.4566929133858268,
                    "duration": 0.5625
                },
                {
                    "name": "G#5",
                    "midi": 80,
                    "time": 150.75,
                    "velocity": 0.3858267716535433,
                    "duration": 0.5625
                },
                {
                    "name": "C7",
                    "midi": 96,
                    "time": 151.3125,
                    "velocity": 0.49606299212598426,
                    "duration": 0.5625
                },
                {
                    "name": "C6",
                    "midi": 84,
                    "time": 151.3125,
                    "velocity": 0.4094488188976378,
                    "duration": 0.5625
                },
                {
                    "name": "F6",
                    "midi": 89,
                    "time": 151.875,
                    "velocity": 0.47244094488188976,
                    "duration": 1.125
                },
                {
                    "name": "F7",
                    "midi": 101,
                    "time": 151.875,
                    "velocity": 0.5511811023622047,
                    "duration": 1.125
                },
                {
                    "name": "D#7",
                    "midi": 99,
                    "time": 153,
                    "velocity": 0.47244094488188976,
                    "duration": 0.5625
                },
                {
                    "name": "D#6",
                    "midi": 87,
                    "time": 153,
                    "velocity": 0.3937007874015748,
                    "duration": 0.5625
                },
                {
                    "name": "C#7",
                    "midi": 97,
                    "time": 153.5625,
                    "velocity": 0.4330708661417323,
                    "duration": 0.375
                },
                {
                    "name": "C#6",
                    "midi": 85,
                    "time": 153.5625,
                    "velocity": 0.3700787401574803,
                    "duration": 0.375
                },
                {
                    "name": "C#6",
                    "midi": 85,
                    "time": 153.9375,
                    "velocity": 0.3700787401574803,
                    "duration": 0.09375
                },
                {
                    "name": "F6",
                    "midi": 89,
                    "time": 154.03125,
                    "velocity": 0.3543307086614173,
                    "duration": 0.1875
                },
                {
                    "name": "C6",
                    "midi": 84,
                    "time": 154.03125,
                    "velocity": 0.25984251968503935,
                    "duration": 0.09375
                },
                {
                    "name": "B5",
                    "midi": 83,
                    "time": 154.125,
                    "velocity": 0.25984251968503935,
                    "duration": 0.09375
                },
                {
                    "name": "F6",
                    "midi": 89,
                    "time": 154.21875,
                    "velocity": 0.3543307086614173,
                    "duration": 0.1875
                },
                {
                    "name": "A#5",
                    "midi": 82,
                    "time": 154.21875,
                    "velocity": 0.25196850393700787,
                    "duration": 0.09375
                },
                {
                    "name": "A5",
                    "midi": 81,
                    "time": 154.3125,
                    "velocity": 0.25196850393700787,
                    "duration": 0.09375
                },
                {
                    "name": "F6",
                    "midi": 89,
                    "time": 154.40625,
                    "velocity": 0.3464566929133858,
                    "duration": 0.1875
                },
                {
                    "name": "G#5",
                    "midi": 80,
                    "time": 154.40625,
                    "velocity": 0.25196850393700787,
                    "duration": 0.09375
                },
                {
                    "name": "G5",
                    "midi": 79,
                    "time": 154.5,
                    "velocity": 0.25196850393700787,
                    "duration": 0.09375
                },
                {
                    "name": "A#5",
                    "midi": 82,
                    "time": 154.59375,
                    "velocity": 0.3464566929133858,
                    "duration": 0.1875
                },
                {
                    "name": "F#5",
                    "midi": 78,
                    "time": 154.59375,
                    "velocity": 0.25196850393700787,
                    "duration": 0.09375
                },
                {
                    "name": "F5",
                    "midi": 77,
                    "time": 154.6875,
                    "velocity": 0.2440944881889764,
                    "duration": 0.09375
                },
                {
                    "name": "A#5",
                    "midi": 82,
                    "time": 154.78125,
                    "velocity": 0.33858267716535434,
                    "duration": 0.1875
                },
                {
                    "name": "E5",
                    "midi": 76,
                    "time": 154.78125,
                    "velocity": 0.2440944881889764,
                    "duration": 0.09375
                },
                {
                    "name": "D#5",
                    "midi": 75,
                    "time": 154.875,
                    "velocity": 0.23622047244094488,
                    "duration": 0.09375
                },
                {
                    "name": "A#5",
                    "midi": 82,
                    "time": 154.96875,
                    "velocity": 0.33070866141732286,
                    "duration": 0.1875
                },
                {
                    "name": "D5",
                    "midi": 74,
                    "time": 154.96875,
                    "velocity": 0.23622047244094488,
                    "duration": 0.09375
                },
                {
                    "name": "C#5",
                    "midi": 73,
                    "time": 155.0625,
                    "velocity": 0.23622047244094488,
                    "duration": 0.09375
                },
                {
                    "name": "A#5",
                    "midi": 82,
                    "time": 155.15625,
                    "velocity": 0.3228346456692913,
                    "duration": 0.1875
                },
                {
                    "name": "C5",
                    "midi": 72,
                    "time": 155.15625,
                    "velocity": 0.2283464566929134,
                    "duration": 0.09375
                },
                {
                    "name": "C5",
                    "midi": 72,
                    "time": 155.25,
                    "velocity": 0.29133858267716534,
                    "duration": 0.046875
                },
                {
                    "name": "A#4",
                    "midi": 70,
                    "time": 155.296875,
                    "velocity": 0.25196850393700787,
                    "duration": 0.046875
                },
                {
                    "name": "C5",
                    "midi": 72,
                    "time": 155.34375,
                    "velocity": 0.29133858267716534,
                    "duration": 0.046875
                },
                {
                    "name": "A#4",
                    "midi": 70,
                    "time": 155.390625,
                    "velocity": 0.25196850393700787,
                    "duration": 0.046875
                },
                {
                    "name": "C5",
                    "midi": 72,
                    "time": 155.4375,
                    "velocity": 0.29133858267716534,
                    "duration": 0.046875
                },
                {
                    "name": "A#4",
                    "midi": 70,
                    "time": 155.484375,
                    "velocity": 0.25196850393700787,
                    "duration": 0.046875
                },
                {
                    "name": "C5",
                    "midi": 72,
                    "time": 155.53125,
                    "velocity": 0.29133858267716534,
                    "duration": 0.046875
                },
                {
                    "name": "A#4",
                    "midi": 70,
                    "time": 155.578125,
                    "velocity": 0.2440944881889764,
                    "duration": 0.046875
                },
                {
                    "name": "C5",
                    "midi": 72,
                    "time": 155.625,
                    "velocity": 0.29133858267716534,
                    "duration": 0.046875
                },
                {
                    "name": "A#4",
                    "midi": 70,
                    "time": 155.671875,
                    "velocity": 0.25196850393700787,
                    "duration": 0.046875
                },
                {
                    "name": "C5",
                    "midi": 72,
                    "time": 155.71875,
                    "velocity": 0.29133858267716534,
                    "duration": 0.046875
                },
                {
                    "name": "A#4",
                    "midi": 70,
                    "time": 155.765625,
                    "velocity": 0.25196850393700787,
                    "duration": 0.046875
                },
                {
                    "name": "C5",
                    "midi": 72,
                    "time": 155.8125,
                    "velocity": 0.29133858267716534,
                    "duration": 0.046875
                },
                {
                    "name": "A#4",
                    "midi": 70,
                    "time": 155.859375,
                    "velocity": 0.25984251968503935,
                    "duration": 0.046875
                },
                {
                    "name": "C5",
                    "midi": 72,
                    "time": 155.90625,
                    "velocity": 0.29133858267716534,
                    "duration": 0.046875
                },
                {
                    "name": "A#4",
                    "midi": 70,
                    "time": 155.953125,
                    "velocity": 0.25984251968503935,
                    "duration": 0.046875
                },
                {
                    "name": "C5",
                    "midi": 72,
                    "time": 156,
                    "velocity": 0.29133858267716534,
                    "duration": 0.046875
                },
                {
                    "name": "A#4",
                    "midi": 70,
                    "time": 156.046875,
                    "velocity": 0.2440944881889764,
                    "duration": 0.046875
                },
                {
                    "name": "C5",
                    "midi": 72,
                    "time": 156.09375,
                    "velocity": 0.29133858267716534,
                    "duration": 0.046875
                },
                {
                    "name": "A#4",
                    "midi": 70,
                    "time": 156.140625,
                    "velocity": 0.2440944881889764,
                    "duration": 0.046875
                },
                {
                    "name": "C5",
                    "midi": 72,
                    "time": 156.1875,
                    "velocity": 0.29133858267716534,
                    "duration": 0.046875
                },
                {
                    "name": "A#4",
                    "midi": 70,
                    "time": 156.234375,
                    "velocity": 0.25196850393700787,
                    "duration": 0.046875
                },
                {
                    "name": "C5",
                    "midi": 72,
                    "time": 156.28125,
                    "velocity": 0.29133858267716534,
                    "duration": 0.046875
                },
                {
                    "name": "A#4",
                    "midi": 70,
                    "time": 156.328125,
                    "velocity": 0.25196850393700787,
                    "duration": 0.046875
                },
                {
                    "name": "C5",
                    "midi": 72,
                    "time": 156.375,
                    "velocity": 0.29133858267716534,
                    "duration": 0.046875
                },
                {
                    "name": "D#5",
                    "midi": 75,
                    "time": 156.375,
                    "velocity": 0.3937007874015748,
                    "duration": 0.5625
                },
                {
                    "name": "A#4",
                    "midi": 70,
                    "time": 156.421875,
                    "velocity": 0.2440944881889764,
                    "duration": 0.046875
                },
                {
                    "name": "C5",
                    "midi": 72,
                    "time": 156.46875,
                    "velocity": 0.28346456692913385,
                    "duration": 0.046875
                },
                {
                    "name": "A#4",
                    "midi": 70,
                    "time": 156.515625,
                    "velocity": 0.2125984251968504,
                    "duration": 0.046875
                },
                {
                    "name": "C5",
                    "midi": 72,
                    "time": 156.5625,
                    "velocity": 0.2677165354330709,
                    "duration": 0.046875
                },
                {
                    "name": "A#4",
                    "midi": 70,
                    "time": 156.609375,
                    "velocity": 0.2204724409448819,
                    "duration": 0.046875
                },
                {
                    "name": "C5",
                    "midi": 72,
                    "time": 156.65625,
                    "velocity": 0.25196850393700787,
                    "duration": 0.046875
                },
                {
                    "name": "A#4",
                    "midi": 70,
                    "time": 156.703125,
                    "velocity": 0.2125984251968504,
                    "duration": 0.046875
                },
                {
                    "name": "C5",
                    "midi": 72,
                    "time": 156.75,
                    "velocity": 0.2440944881889764,
                    "duration": 0.046875
                },
                {
                    "name": "A#4",
                    "midi": 70,
                    "time": 156.796875,
                    "velocity": 0.2047244094488189,
                    "duration": 0.046875
                },
                {
                    "name": "C5",
                    "midi": 72,
                    "time": 156.84375,
                    "velocity": 0.2283464566929134,
                    "duration": 0.046875
                },
                {
                    "name": "A#4",
                    "midi": 70,
                    "time": 156.890625,
                    "velocity": 0.18110236220472442,
                    "duration": 0.046875
                },
                {
                    "name": "D5",
                    "midi": 74,
                    "time": 156.9375,
                    "velocity": 0.4015748031496063,
                    "duration": 0.5625
                },
                {
                    "name": "B4",
                    "midi": 71,
                    "time": 156.9375,
                    "velocity": 0.2283464566929134,
                    "duration": 0.046875
                },
                {
                    "name": "A#4",
                    "midi": 70,
                    "time": 156.984375,
                    "velocity": 0.2047244094488189,
                    "duration": 0.046875
                },
                {
                    "name": "B4",
                    "midi": 71,
                    "time": 157.03125,
                    "velocity": 0.23622047244094488,
                    "duration": 0.046875
                },
                {
                    "name": "A#4",
                    "midi": 70,
                    "time": 157.078125,
                    "velocity": 0.2125984251968504,
                    "duration": 0.046875
                },
                {
                    "name": "B4",
                    "midi": 71,
                    "time": 157.125,
                    "velocity": 0.2440944881889764,
                    "duration": 0.046875
                },
                {
                    "name": "A#4",
                    "midi": 70,
                    "time": 157.171875,
                    "velocity": 0.2125984251968504,
                    "duration": 0.046875
                },
                {
                    "name": "B4",
                    "midi": 71,
                    "time": 157.21875,
                    "velocity": 0.25196850393700787,
                    "duration": 0.046875
                },
                {
                    "name": "A#4",
                    "midi": 70,
                    "time": 157.265625,
                    "velocity": 0.2125984251968504,
                    "duration": 0.046875
                },
                {
                    "name": "B4",
                    "midi": 71,
                    "time": 157.3125,
                    "velocity": 0.25984251968503935,
                    "duration": 0.046875
                },
                {
                    "name": "A#4",
                    "midi": 70,
                    "time": 157.359375,
                    "velocity": 0.2204724409448819,
                    "duration": 0.046875
                },
                {
                    "name": "B4",
                    "midi": 71,
                    "time": 157.40625,
                    "velocity": 0.2677165354330709,
                    "duration": 0.046875
                },
                {
                    "name": "A#4",
                    "midi": 70,
                    "time": 157.453125,
                    "velocity": 0.2283464566929134,
                    "duration": 0.046875
                },
                {
                    "name": "F5",
                    "midi": 77,
                    "time": 157.5,
                    "velocity": 0.4409448818897638,
                    "duration": 0.5625
                },
                {
                    "name": "B4",
                    "midi": 71,
                    "time": 157.5,
                    "velocity": 0.2755905511811024,
                    "duration": 0.046875
                },
                {
                    "name": "A#4",
                    "midi": 70,
                    "time": 157.546875,
                    "velocity": 0.2440944881889764,
                    "duration": 0.046875
                },
                {
                    "name": "B4",
                    "midi": 71,
                    "time": 157.59375,
                    "velocity": 0.28346456692913385,
                    "duration": 0.046875
                },
                {
                    "name": "A#4",
                    "midi": 70,
                    "time": 157.640625,
                    "velocity": 0.25196850393700787,
                    "duration": 0.046875
                },
                {
                    "name": "B4",
                    "midi": 71,
                    "time": 157.6875,
                    "velocity": 0.28346456692913385,
                    "duration": 0.046875
                },
                {
                    "name": "A#4",
                    "midi": 70,
                    "time": 157.734375,
                    "velocity": 0.2440944881889764,
                    "duration": 0.046875
                },
                {
                    "name": "B4",
                    "midi": 71,
                    "time": 157.78125,
                    "velocity": 0.29133858267716534,
                    "duration": 0.046875
                },
                {
                    "name": "A#4",
                    "midi": 70,
                    "time": 157.828125,
                    "velocity": 0.2440944881889764,
                    "duration": 0.046875
                },
                {
                    "name": "B4",
                    "midi": 71,
                    "time": 157.875,
                    "velocity": 0.29133858267716534,
                    "duration": 0.046875
                },
                {
                    "name": "A#4",
                    "midi": 70,
                    "time": 157.921875,
                    "velocity": 0.25196850393700787,
                    "duration": 0.046875
                },
                {
                    "name": "B4",
                    "midi": 71,
                    "time": 157.96875,
                    "velocity": 0.29133858267716534,
                    "duration": 0.046875
                },
                {
                    "name": "A#4",
                    "midi": 70,
                    "time": 158.015625,
                    "velocity": 0.25196850393700787,
                    "duration": 0.046875
                },
                {
                    "name": "B4",
                    "midi": 71,
                    "time": 158.0625,
                    "velocity": 0.29133858267716534,
                    "duration": 0.046875
                },
                {
                    "name": "G#5",
                    "midi": 80,
                    "time": 158.0625,
                    "velocity": 0.4645669291338583,
                    "duration": 0.5625
                },
                {
                    "name": "A#4",
                    "midi": 70,
                    "time": 158.109375,
                    "velocity": 0.25196850393700787,
                    "duration": 0.046875
                },
                {
                    "name": "B4",
                    "midi": 71,
                    "time": 158.15625,
                    "velocity": 0.29133858267716534,
                    "duration": 0.046875
                },
                {
                    "name": "A#4",
                    "midi": 70,
                    "time": 158.203125,
                    "velocity": 0.25984251968503935,
                    "duration": 0.046875
                },
                {
                    "name": "B4",
                    "midi": 71,
                    "time": 158.25,
                    "velocity": 0.29133858267716534,
                    "duration": 0.046875
                },
                {
                    "name": "A#4",
                    "midi": 70,
                    "time": 158.296875,
                    "velocity": 0.25196850393700787,
                    "duration": 0.046875
                },
                {
                    "name": "B4",
                    "midi": 71,
                    "time": 158.34375,
                    "velocity": 0.29133858267716534,
                    "duration": 0.046875
                },
                {
                    "name": "A#4",
                    "midi": 70,
                    "time": 158.390625,
                    "velocity": 0.25196850393700787,
                    "duration": 0.046875
                },
                {
                    "name": "B4",
                    "midi": 71,
                    "time": 158.4375,
                    "velocity": 0.29133858267716534,
                    "duration": 0.046875
                },
                {
                    "name": "A#4",
                    "midi": 70,
                    "time": 158.484375,
                    "velocity": 0.25196850393700787,
                    "duration": 0.046875
                },
                {
                    "name": "B4",
                    "midi": 71,
                    "time": 158.53125,
                    "velocity": 0.29133858267716534,
                    "duration": 0.046875
                },
                {
                    "name": "A#4",
                    "midi": 70,
                    "time": 158.578125,
                    "velocity": 0.2440944881889764,
                    "duration": 0.046875
                },
                {
                    "name": "G#5",
                    "midi": 80,
                    "time": 158.625,
                    "velocity": 0.48031496062992124,
                    "duration": 1.125
                },
                {
                    "name": "B4",
                    "midi": 71,
                    "time": 158.625,
                    "velocity": 0.29133858267716534,
                    "duration": 0.046875
                },
                {
                    "name": "A#4",
                    "midi": 70,
                    "time": 158.671875,
                    "velocity": 0.2440944881889764,
                    "duration": 0.046875
                },
                {
                    "name": "B4",
                    "midi": 71,
                    "time": 158.71875,
                    "velocity": 0.28346456692913385,
                    "duration": 0.046875
                },
                {
                    "name": "A#4",
                    "midi": 70,
                    "time": 158.765625,
                    "velocity": 0.2440944881889764,
                    "duration": 0.046875
                },
                {
                    "name": "B4",
                    "midi": 71,
                    "time": 158.8125,
                    "velocity": 0.28346456692913385,
                    "duration": 0.046875
                },
                {
                    "name": "A#4",
                    "midi": 70,
                    "time": 158.859375,
                    "velocity": 0.23622047244094488,
                    "duration": 0.046875
                },
                {
                    "name": "B4",
                    "midi": 71,
                    "time": 158.90625,
                    "velocity": 0.28346456692913385,
                    "duration": 0.046875
                },
                {
                    "name": "A#4",
                    "midi": 70,
                    "time": 158.953125,
                    "velocity": 0.2283464566929134,
                    "duration": 0.046875
                },
                {
                    "name": "B4",
                    "midi": 71,
                    "time": 159,
                    "velocity": 0.2755905511811024,
                    "duration": 0.046875
                },
                {
                    "name": "A#4",
                    "midi": 70,
                    "time": 159.046875,
                    "velocity": 0.2283464566929134,
                    "duration": 0.046875
                },
                {
                    "name": "B4",
                    "midi": 71,
                    "time": 159.09375,
                    "velocity": 0.2755905511811024,
                    "duration": 0.046875
                },
                {
                    "name": "A#4",
                    "midi": 70,
                    "time": 159.140625,
                    "velocity": 0.2283464566929134,
                    "duration": 0.046875
                },
                {
                    "name": "B4",
                    "midi": 71,
                    "time": 159.1875,
                    "velocity": 0.2677165354330709,
                    "duration": 0.046875
                },
                {
                    "name": "A#4",
                    "midi": 70,
                    "time": 159.234375,
                    "velocity": 0.2283464566929134,
                    "duration": 0.046875
                },
                {
                    "name": "B4",
                    "midi": 71,
                    "time": 159.28125,
                    "velocity": 0.25984251968503935,
                    "duration": 0.046875
                },
                {
                    "name": "A#4",
                    "midi": 70,
                    "time": 159.328125,
                    "velocity": 0.2283464566929134,
                    "duration": 0.046875
                },
                {
                    "name": "B4",
                    "midi": 71,
                    "time": 159.375,
                    "velocity": 0.25984251968503935,
                    "duration": 0.046875
                },
                {
                    "name": "A#4",
                    "midi": 70,
                    "time": 159.421875,
                    "velocity": 0.2125984251968504,
                    "duration": 0.046875
                },
                {
                    "name": "B4",
                    "midi": 71,
                    "time": 159.46875,
                    "velocity": 0.25196850393700787,
                    "duration": 0.046875
                },
                {
                    "name": "A#4",
                    "midi": 70,
                    "time": 159.515625,
                    "velocity": 0.2125984251968504,
                    "duration": 0.046875
                },
                {
                    "name": "B4",
                    "midi": 71,
                    "time": 159.5625,
                    "velocity": 0.25196850393700787,
                    "duration": 0.046875
                },
                {
                    "name": "A#4",
                    "midi": 70,
                    "time": 159.609375,
                    "velocity": 0.2125984251968504,
                    "duration": 0.046875
                },
                {
                    "name": "B4",
                    "midi": 71,
                    "time": 159.65625,
                    "velocity": 0.2440944881889764,
                    "duration": 0.046875
                },
                {
                    "name": "A#4",
                    "midi": 70,
                    "time": 159.703125,
                    "velocity": 0.2125984251968504,
                    "duration": 0.046875
                },
                {
                    "name": "D5",
                    "midi": 74,
                    "time": 159.75,
                    "velocity": 0.3937007874015748,
                    "duration": 0.5625
                },
                {
                    "name": "B4",
                    "midi": 71,
                    "time": 159.75,
                    "velocity": 0.23622047244094488,
                    "duration": 0.046875
                },
                {
                    "name": "A#4",
                    "midi": 70,
                    "time": 159.796875,
                    "velocity": 0.2047244094488189,
                    "duration": 0.046875
                },
                {
                    "name": "B4",
                    "midi": 71,
                    "time": 159.84375,
                    "velocity": 0.23622047244094488,
                    "duration": 0.046875
                },
                {
                    "name": "A#4",
                    "midi": 70,
                    "time": 159.890625,
                    "velocity": 0.2047244094488189,
                    "duration": 0.046875
                },
                {
                    "name": "B4",
                    "midi": 71,
                    "time": 159.9375,
                    "velocity": 0.1732283464566929,
                    "duration": 0.046875
                },
                {
                    "name": "A#4",
                    "midi": 70,
                    "time": 159.984375,
                    "velocity": 0.1889763779527559,
                    "duration": 0.046875
                },
                {
                    "name": "B4",
                    "midi": 71,
                    "time": 160.03125,
                    "velocity": 0.2125984251968504,
                    "duration": 0.046875
                },
                {
                    "name": "A#4",
                    "midi": 70,
                    "time": 160.078125,
                    "velocity": 0.1889763779527559,
                    "duration": 0.046875
                },
                {
                    "name": "B4",
                    "midi": 71,
                    "time": 160.125,
                    "velocity": 0.2125984251968504,
                    "duration": 0.046875
                },
                {
                    "name": "A#4",
                    "midi": 70,
                    "time": 160.171875,
                    "velocity": 0.1889763779527559,
                    "duration": 0.046875
                },
                {
                    "name": "B4",
                    "midi": 71,
                    "time": 160.21875,
                    "velocity": 0.2125984251968504,
                    "duration": 0.046875
                },
                {
                    "name": "A#4",
                    "midi": 70,
                    "time": 160.265625,
                    "velocity": 0.18110236220472442,
                    "duration": 0.046875
                },
                {
                    "name": "D#5",
                    "midi": 75,
                    "time": 160.3125,
                    "velocity": 0.4015748031496063,
                    "duration": 0.5625
                },
                {
                    "name": "C5",
                    "midi": 72,
                    "time": 160.3125,
                    "velocity": 0.2283464566929134,
                    "duration": 0.046875
                },
                {
                    "name": "A#4",
                    "midi": 70,
                    "time": 160.359375,
                    "velocity": 0.2047244094488189,
                    "duration": 0.046875
                },
                {
                    "name": "C5",
                    "midi": 72,
                    "time": 160.40625,
                    "velocity": 0.23622047244094488,
                    "duration": 0.046875
                },
                {
                    "name": "A#4",
                    "midi": 70,
                    "time": 160.453125,
                    "velocity": 0.2047244094488189,
                    "duration": 0.046875
                },
                {
                    "name": "C5",
                    "midi": 72,
                    "time": 160.5,
                    "velocity": 0.23622047244094488,
                    "duration": 0.046875
                },
                {
                    "name": "A#4",
                    "midi": 70,
                    "time": 160.546875,
                    "velocity": 0.2125984251968504,
                    "duration": 0.046875
                },
                {
                    "name": "C5",
                    "midi": 72,
                    "time": 160.59375,
                    "velocity": 0.2440944881889764,
                    "duration": 0.046875
                },
                {
                    "name": "A#4",
                    "midi": 70,
                    "time": 160.640625,
                    "velocity": 0.2047244094488189,
                    "duration": 0.046875
                },
                {
                    "name": "C5",
                    "midi": 72,
                    "time": 160.6875,
                    "velocity": 0.25196850393700787,
                    "duration": 0.046875
                },
                {
                    "name": "A#4",
                    "midi": 70,
                    "time": 160.734375,
                    "velocity": 0.2125984251968504,
                    "duration": 0.046875
                },
                {
                    "name": "C5",
                    "midi": 72,
                    "time": 160.78125,
                    "velocity": 0.25196850393700787,
                    "duration": 0.046875
                },
                {
                    "name": "A#4",
                    "midi": 70,
                    "time": 160.828125,
                    "velocity": 0.2204724409448819,
                    "duration": 0.046875
                },
                {
                    "name": "G5",
                    "midi": 79,
                    "time": 160.875,
                    "velocity": 0.4409448818897638,
                    "duration": 0.5625
                },
                {
                    "name": "C5",
                    "midi": 72,
                    "time": 160.875,
                    "velocity": 0.25984251968503935,
                    "duration": 0.046875
                },
                {
                    "name": "A#4",
                    "midi": 70,
                    "time": 160.921875,
                    "velocity": 0.2283464566929134,
                    "duration": 0.046875
                },
                {
                    "name": "C5",
                    "midi": 72,
                    "time": 160.96875,
                    "velocity": 0.2677165354330709,
                    "duration": 0.046875
                },
                {
                    "name": "A#4",
                    "midi": 70,
                    "time": 161.015625,
                    "velocity": 0.23622047244094488,
                    "duration": 0.046875
                },
                {
                    "name": "C5",
                    "midi": 72,
                    "time": 161.0625,
                    "velocity": 0.2755905511811024,
                    "duration": 0.046875
                },
                {
                    "name": "A#4",
                    "midi": 70,
                    "time": 161.109375,
                    "velocity": 0.2204724409448819,
                    "duration": 0.046875
                },
                {
                    "name": "C5",
                    "midi": 72,
                    "time": 161.15625,
                    "velocity": 0.2755905511811024,
                    "duration": 0.046875
                },
                {
                    "name": "A#4",
                    "midi": 70,
                    "time": 161.203125,
                    "velocity": 0.2283464566929134,
                    "duration": 0.046875
                },
                {
                    "name": "C5",
                    "midi": 72,
                    "time": 161.25,
                    "velocity": 0.28346456692913385,
                    "duration": 0.046875
                },
                {
                    "name": "A#4",
                    "midi": 70,
                    "time": 161.296875,
                    "velocity": 0.23622047244094488,
                    "duration": 0.046875
                },
                {
                    "name": "C5",
                    "midi": 72,
                    "time": 161.34375,
                    "velocity": 0.28346456692913385,
                    "duration": 0.046875
                },
                {
                    "name": "A#4",
                    "midi": 70,
                    "time": 161.390625,
                    "velocity": 0.2440944881889764,
                    "duration": 0.046875
                },
                {
                    "name": "C5",
                    "midi": 72,
                    "time": 161.4375,
                    "velocity": 0.28346456692913385,
                    "duration": 0.046875
                },
                {
                    "name": "A#5",
                    "midi": 82,
                    "time": 161.4375,
                    "velocity": 0.4645669291338583,
                    "duration": 0.5625
                },
                {
                    "name": "A#4",
                    "midi": 70,
                    "time": 161.484375,
                    "velocity": 0.25196850393700787,
                    "duration": 0.046875
                },
                {
                    "name": "C5",
                    "midi": 72,
                    "time": 161.53125,
                    "velocity": 0.29133858267716534,
                    "duration": 0.046875
                },
                {
                    "name": "A#4",
                    "midi": 70,
                    "time": 161.578125,
                    "velocity": 0.25196850393700787,
                    "duration": 0.046875
                },
                {
                    "name": "C5",
                    "midi": 72,
                    "time": 161.625,
                    "velocity": 0.29133858267716534,
                    "duration": 0.046875
                },
                {
                    "name": "A#4",
                    "midi": 70,
                    "time": 161.671875,
                    "velocity": 0.25196850393700787,
                    "duration": 0.046875
                },
                {
                    "name": "C5",
                    "midi": 72,
                    "time": 161.71875,
                    "velocity": 0.29133858267716534,
                    "duration": 0.046875
                },
                {
                    "name": "A#4",
                    "midi": 70,
                    "time": 161.765625,
                    "velocity": 0.25196850393700787,
                    "duration": 0.046875
                },
                {
                    "name": "C5",
                    "midi": 72,
                    "time": 161.8125,
                    "velocity": 0.29133858267716534,
                    "duration": 0.046875
                },
                {
                    "name": "A#4",
                    "midi": 70,
                    "time": 161.859375,
                    "velocity": 0.25196850393700787,
                    "duration": 0.046875
                },
                {
                    "name": "C5",
                    "midi": 72,
                    "time": 161.90625,
                    "velocity": 0.29133858267716534,
                    "duration": 0.046875
                },
                {
                    "name": "A#4",
                    "midi": 70,
                    "time": 161.953125,
                    "velocity": 0.2440944881889764,
                    "duration": 0.046875
                },
                {
                    "name": "A#4",
                    "midi": 70,
                    "time": 162,
                    "velocity": 0.4330708661417323,
                    "duration": 0.46875
                },
                {
                    "name": "A#5",
                    "midi": 82,
                    "time": 162,
                    "velocity": 0.48031496062992124,
                    "duration": 0.46875
                },
                {
                    "name": "A4",
                    "midi": 69,
                    "time": 162.46875,
                    "velocity": 0.33858267716535434,
                    "duration": 0.046875
                },
                {
                    "name": "A#4",
                    "midi": 70,
                    "time": 162.515625,
                    "velocity": 0.36220472440944884,
                    "duration": 0.046875
                },
                {
                    "name": "B4",
                    "midi": 71,
                    "time": 162.5625,
                    "velocity": 0.3779527559055118,
                    "duration": 0.056250000000005684
                },
                {
                    "name": "C5",
                    "midi": 72,
                    "time": 162.61875,
                    "velocity": 0.3858267716535433,
                    "duration": 0.053124999999994316
                },
                {
                    "name": "C#5",
                    "midi": 73,
                    "time": 162.671875,
                    "velocity": 0.3937007874015748,
                    "duration": 0.053124999999994316
                },
                {
                    "name": "D5",
                    "midi": 74,
                    "time": 162.725,
                    "velocity": 0.3937007874015748,
                    "duration": 0.053124999999994316
                },
                {
                    "name": "D#5",
                    "midi": 75,
                    "time": 162.778125,
                    "velocity": 0.4015748031496063,
                    "duration": 0.053124999999994316
                },
                {
                    "name": "E5",
                    "midi": 76,
                    "time": 162.83124999999998,
                    "velocity": 0.4094488188976378,
                    "duration": 0.053124999999994316
                },
                {
                    "name": "F5",
                    "midi": 77,
                    "time": 162.88437499999998,
                    "velocity": 0.41732283464566927,
                    "duration": 0.053124999999994316
                },
                {
                    "name": "F#5",
                    "midi": 78,
                    "time": 162.93749999999997,
                    "velocity": 0.41732283464566927,
                    "duration": 0.046875
                },
                {
                    "name": "G5",
                    "midi": 79,
                    "time": 162.98437499999997,
                    "velocity": 0.4251968503937008,
                    "duration": 0.046875
                },
                {
                    "name": "G#5",
                    "midi": 80,
                    "time": 163.03124999999997,
                    "velocity": 0.4330708661417323,
                    "duration": 0.046875
                },
                {
                    "name": "A5",
                    "midi": 81,
                    "time": 163.07812499999997,
                    "velocity": 0.4330708661417323,
                    "duration": 0.046875
                },
                {
                    "name": "A#5",
                    "midi": 82,
                    "time": 163.12499999999997,
                    "velocity": 0.4409448818897638,
                    "duration": 0.07499999999998863
                },
                {
                    "name": "B5",
                    "midi": 83,
                    "time": 163.19999999999996,
                    "velocity": 0.44881889763779526,
                    "duration": 0.07499999999998863
                },
                {
                    "name": "C6",
                    "midi": 84,
                    "time": 163.27499999999995,
                    "velocity": 0.4566929133858268,
                    "duration": 0.07499999999998863
                },
                {
                    "name": "C#6",
                    "midi": 85,
                    "time": 163.34999999999994,
                    "velocity": 0.4645669291338583,
                    "duration": 0.07499999999998863
                },
                {
                    "name": "D6",
                    "midi": 86,
                    "time": 163.42499999999993,
                    "velocity": 0.47244094488188976,
                    "duration": 0.07499999999998863
                },
                {
                    "name": "D#6",
                    "midi": 87,
                    "time": 163.49999999999991,
                    "velocity": 0.48031496062992124,
                    "duration": 0.037499999999994316
                },
                {
                    "name": "D#6",
                    "midi": 87,
                    "time": 163.5374999999999,
                    "velocity": 0.48031496062992124,
                    "duration": 0.037499999999994316
                },
                {
                    "name": "D#6",
                    "midi": 87,
                    "time": 163.5749999999999,
                    "velocity": 0.4881889763779528,
                    "duration": 0.037499999999994316
                },
                {
                    "name": "D#6",
                    "midi": 87,
                    "time": 163.6124999999999,
                    "velocity": 0.4881889763779528,
                    "duration": 0.037499999999994316
                },
                {
                    "name": "D#6",
                    "midi": 87,
                    "time": 163.6531249999999,
                    "velocity": 0.4881889763779528,
                    "duration": 0.03750000000002274
                },
                {
                    "name": "D#6",
                    "midi": 87,
                    "time": 163.68749999999991,
                    "velocity": 0.4881889763779528,
                    "duration": 0.046875
                },
                {
                    "name": "G6",
                    "midi": 91,
                    "time": 163.78124999999991,
                    "velocity": 0.44881889763779526,
                    "duration": 0.046875
                },
                {
                    "name": "F6",
                    "midi": 89,
                    "time": 163.87499999999991,
                    "velocity": 0.44881889763779526,
                    "duration": 0.046875
                },
                {
                    "name": "D#6",
                    "midi": 87,
                    "time": 163.96874999999991,
                    "velocity": 0.44881889763779526,
                    "duration": 0.046875
                },
                {
                    "name": "D6",
                    "midi": 86,
                    "time": 164.06249999999991,
                    "velocity": 0.4409448818897638,
                    "duration": 0.046875
                },
                {
                    "name": "C6",
                    "midi": 84,
                    "time": 164.15624999999991,
                    "velocity": 0.44881889763779526,
                    "duration": 0.046875
                },
                {
                    "name": "A#5",
                    "midi": 82,
                    "time": 164.24999999999991,
                    "velocity": 0.4881889763779528,
                    "duration": 0.09375
                },
                {
                    "name": "A5",
                    "midi": 81,
                    "time": 164.34374999999991,
                    "velocity": 0.4251968503937008,
                    "duration": 0.09375
                },
                {
                    "name": "C6",
                    "midi": 84,
                    "time": 164.43749999999991,
                    "velocity": 0.44881889763779526,
                    "duration": 0.09375
                },
                {
                    "name": "A#5",
                    "midi": 82,
                    "time": 164.53124999999991,
                    "velocity": 0.4409448818897638,
                    "duration": 0.09375
                },
                {
                    "name": "G#5",
                    "midi": 80,
                    "time": 164.62499999999991,
                    "velocity": 0.4330708661417323,
                    "duration": 0.09375
                },
                {
                    "name": "G5",
                    "midi": 79,
                    "time": 164.71874999999991,
                    "velocity": 0.4251968503937008,
                    "duration": 0.09375
                },
                {
                    "name": "E5",
                    "midi": 76,
                    "time": 164.81249999999991,
                    "velocity": 0.3937007874015748,
                    "duration": 0.046875
                },
                {
                    "name": "F5",
                    "midi": 77,
                    "time": 164.85937499999991,
                    "velocity": 0.3937007874015748,
                    "duration": 0.046875
                },
                {
                    "name": "E5",
                    "midi": 76,
                    "time": 164.90624999999991,
                    "velocity": 0.3937007874015748,
                    "duration": 0.046875
                },
                {
                    "name": "F5",
                    "midi": 77,
                    "time": 164.95312499999991,
                    "velocity": 0.3937007874015748,
                    "duration": 0.046875
                },
                {
                    "name": "E5",
                    "midi": 76,
                    "time": 164.99999999999991,
                    "velocity": 0.3937007874015748,
                    "duration": 0.046875
                },
                {
                    "name": "F5",
                    "midi": 77,
                    "time": 165.04687499999991,
                    "velocity": 0.3937007874015748,
                    "duration": 0.046875
                },
                {
                    "name": "E5",
                    "midi": 76,
                    "time": 165.09374999999991,
                    "velocity": 0.3937007874015748,
                    "duration": 0.046875
                },
                {
                    "name": "F5",
                    "midi": 77,
                    "time": 165.14062499999991,
                    "velocity": 0.4094488188976378,
                    "duration": 0.046875
                },
                {
                    "name": "G#5",
                    "midi": 80,
                    "time": 165.18749999999991,
                    "velocity": 0.4409448818897638,
                    "duration": 0.140625
                },
                {
                    "name": "G5",
                    "midi": 79,
                    "time": 165.32812499999991,
                    "velocity": 0.4094488188976378,
                    "duration": 0.046875
                },
                {
                    "name": "A#4",
                    "midi": 70,
                    "time": 165.37499999999991,
                    "velocity": 0.41732283464566927,
                    "duration": 1.125
                },
                {
                    "name": "C5",
                    "midi": 72,
                    "time": 165.74999999999991,
                    "velocity": 0.3858267716535433,
                    "duration": 0.09375
                },
                {
                    "name": "D5",
                    "midi": 74,
                    "time": 165.84374999999991,
                    "velocity": 0.3937007874015748,
                    "duration": 0.09375
                },
                {
                    "name": "D#5",
                    "midi": 75,
                    "time": 165.93749999999991,
                    "velocity": 0.41732283464566927,
                    "duration": 0.1875
                },
                {
                    "name": "A4",
                    "midi": 69,
                    "time": 166.45312499999991,
                    "velocity": 0.3464566929133858,
                    "duration": 0.046875
                },
                {
                    "name": "C#5",
                    "midi": 73,
                    "time": 166.49999999999991,
                    "velocity": 0.4330708661417323,
                    "duration": 0.375
                },
                {
                    "name": "A4",
                    "midi": 69,
                    "time": 166.49999999999991,
                    "velocity": 0.41732283464566927,
                    "duration": 1.125
                },
                {
                    "name": "C5",
                    "midi": 72,
                    "time": 166.87499999999991,
                    "velocity": 0.41732283464566927,
                    "duration": 0.75
                },
                {
                    "name": "F5",
                    "midi": 77,
                    "time": 167.06249999999991,
                    "velocity": 0.4409448818897638,
                    "duration": 1.125
                },
                {
                    "name": "A#4",
                    "midi": 70,
                    "time": 167.62499999999991,
                    "velocity": 0.41732283464566927,
                    "duration": 0.5625
                },
                {
                    "name": "A2",
                    "midi": 45,
                    "time": 168.18749999999991,
                    "velocity": 0.36220472440944884,
                    "duration": 0.046875
                },
                {
                    "name": "C3",
                    "midi": 48,
                    "time": 168.23437499999991,
                    "velocity": 0.3700787401574803,
                    "duration": 0.046875
                },
                {
                    "name": "D#3",
                    "midi": 51,
                    "time": 168.28124999999991,
                    "velocity": 0.3700787401574803,
                    "duration": 0.046875
                },
                {
                    "name": "F3",
                    "midi": 53,
                    "time": 168.32812499999991,
                    "velocity": 0.3779527559055118,
                    "duration": 0.046875
                },
                {
                    "name": "F#3",
                    "midi": 54,
                    "time": 168.37499999999991,
                    "velocity": 0.3858267716535433,
                    "duration": 0.046875
                },
                {
                    "name": "A3",
                    "midi": 57,
                    "time": 168.42187499999991,
                    "velocity": 0.3937007874015748,
                    "duration": 0.046875
                },
                {
                    "name": "C4",
                    "midi": 60,
                    "time": 168.46874999999991,
                    "velocity": 0.3937007874015748,
                    "duration": 0.046875
                },
                {
                    "name": "D#4",
                    "midi": 63,
                    "time": 168.51562499999991,
                    "velocity": 0.4015748031496063,
                    "duration": 0.044531250000005684
                },
                {
                    "name": "F4",
                    "midi": 65,
                    "time": 168.56249999999991,
                    "velocity": 0.4094488188976378,
                    "duration": 0.037499999999994316
                },
                {
                    "name": "F#4",
                    "midi": 66,
                    "time": 168.5999999999999,
                    "velocity": 0.4094488188976378,
                    "duration": 0.037499999999994316
                },
                {
                    "name": "A4",
                    "midi": 69,
                    "time": 168.6374999999999,
                    "velocity": 0.41732283464566927,
                    "duration": 0.037499999999994316
                },
                {
                    "name": "C5",
                    "midi": 72,
                    "time": 168.6749999999999,
                    "velocity": 0.4251968503937008,
                    "duration": 0.037499999999994316
                },
                {
                    "name": "F#5",
                    "midi": 78,
                    "time": 168.7124999999999,
                    "velocity": 0.4251968503937008,
                    "duration": 0.037499999999994316
                },
                {
                    "name": "F5",
                    "midi": 77,
                    "time": 168.7499999999999,
                    "velocity": 0.44881889763779526,
                    "duration": 0.375
                },
                {
                    "name": "E5",
                    "midi": 76,
                    "time": 169.1249999999999,
                    "velocity": 0.4094488188976378,
                    "duration": 0.03125
                },
                {
                    "name": "F5",
                    "midi": 77,
                    "time": 169.1562499999999,
                    "velocity": 0.3700787401574803,
                    "duration": 0.03125
                },
                {
                    "name": "E5",
                    "midi": 76,
                    "time": 169.1874999999999,
                    "velocity": 0.4015748031496063,
                    "duration": 0.03125
                },
                {
                    "name": "F5",
                    "midi": 77,
                    "time": 169.2187499999999,
                    "velocity": 0.3700787401574803,
                    "duration": 0.03125
                },
                {
                    "name": "E5",
                    "midi": 76,
                    "time": 169.2499999999999,
                    "velocity": 0.4015748031496063,
                    "duration": 0.03125
                },
                {
                    "name": "F5",
                    "midi": 77,
                    "time": 169.2812499999999,
                    "velocity": 0.36220472440944884,
                    "duration": 0.03125
                },
                {
                    "name": "A#5",
                    "midi": 82,
                    "time": 169.3124999999999,
                    "velocity": 0.41732283464566927,
                    "duration": 0.375
                },
                {
                    "name": "A#5",
                    "midi": 82,
                    "time": 169.6874999999999,
                    "velocity": 0.41732283464566927,
                    "duration": 0.09375
                },
                {
                    "name": "B5",
                    "midi": 83,
                    "time": 169.7812499999999,
                    "velocity": 0.4409448818897638,
                    "duration": 0.09375
                },
                {
                    "name": "C6",
                    "midi": 84,
                    "time": 169.8749999999999,
                    "velocity": 0.4330708661417323,
                    "duration": 0.046875
                },
                {
                    "name": "B5",
                    "midi": 83,
                    "time": 169.9218749999999,
                    "velocity": 0.4330708661417323,
                    "duration": 0.046875
                },
                {
                    "name": "C6",
                    "midi": 84,
                    "time": 169.9687499999999,
                    "velocity": 0.4409448818897638,
                    "duration": 0.046875
                },
                {
                    "name": "B5",
                    "midi": 83,
                    "time": 170.0156249999999,
                    "velocity": 0.44881889763779526,
                    "duration": 0.046875
                },
                {
                    "name": "C6",
                    "midi": 84,
                    "time": 170.0624999999999,
                    "velocity": 0.4566929133858268,
                    "duration": 0.046875
                },
                {
                    "name": "B5",
                    "midi": 83,
                    "time": 170.1093749999999,
                    "velocity": 0.4645669291338583,
                    "duration": 0.046875
                },
                {
                    "name": "C6",
                    "midi": 84,
                    "time": 170.1562499999999,
                    "velocity": 0.47244094488188976,
                    "duration": 0.046875
                },
                {
                    "name": "B5",
                    "midi": 83,
                    "time": 170.2031249999999,
                    "velocity": 0.47244094488188976,
                    "duration": 0.046875
                },
                {
                    "name": "C6",
                    "midi": 84,
                    "time": 170.2499999999999,
                    "velocity": 0.4881889763779528,
                    "duration": 0.056250000000005684
                },
                {
                    "name": "B5",
                    "midi": 83,
                    "time": 170.3062499999999,
                    "velocity": 0.49606299212598426,
                    "duration": 0.056250000000005684
                },
                {
                    "name": "A#5",
                    "midi": 82,
                    "time": 170.3624999999999,
                    "velocity": 0.5039370078740157,
                    "duration": 0.037499999999994316
                },
                {
                    "name": "B5",
                    "midi": 83,
                    "time": 170.3999999999999,
                    "velocity": 0.5196850393700787,
                    "duration": 0.037499999999994316
                },
                {
                    "name": "C6",
                    "midi": 84,
                    "time": 170.4374999999999,
                    "velocity": 0.5511811023622047,
                    "duration": 0.65625
                },
                {
                    "name": "G5",
                    "midi": 79,
                    "time": 171.0937499999999,
                    "velocity": 0.5039370078740157,
                    "duration": 0.09375
                },
                {
                    "name": "E5",
                    "midi": 76,
                    "time": 171.1874999999999,
                    "velocity": 0.4881889763779528,
                    "duration": 0.09375
                },
                {
                    "name": "C5",
                    "midi": 72,
                    "time": 171.2812499999999,
                    "velocity": 0.48031496062992124,
                    "duration": 0.09375
                },
                {
                    "name": "G4",
                    "midi": 67,
                    "time": 171.3749999999999,
                    "velocity": 0.47244094488188976,
                    "duration": 0.09375
                },
                {
                    "name": "E4",
                    "midi": 64,
                    "time": 171.4687499999999,
                    "velocity": 0.4645669291338583,
                    "duration": 0.09375
                },
                {
                    "name": "G#4",
                    "midi": 68,
                    "time": 171.5624999999999,
                    "velocity": 0.4566929133858268,
                    "duration": 0.09375
                },
                {
                    "name": "F4",
                    "midi": 65,
                    "time": 171.6562499999999,
                    "velocity": 0.4409448818897638,
                    "duration": 0.09375
                },
                {
                    "name": "C#4",
                    "midi": 61,
                    "time": 171.7499999999999,
                    "velocity": 0.4409448818897638,
                    "duration": 0.09375
                },
                {
                    "name": "B3",
                    "midi": 59,
                    "time": 171.8437499999999,
                    "velocity": 0.4330708661417323,
                    "duration": 0.09375
                },
                {
                    "name": "G#3",
                    "midi": 56,
                    "time": 171.9374999999999,
                    "velocity": 0.4251968503937008,
                    "duration": 0.09375
                },
                {
                    "name": "F3",
                    "midi": 53,
                    "time": 172.0312499999999,
                    "velocity": 0.4094488188976378,
                    "duration": 0.09375
                },
                {
                    "name": "E3",
                    "midi": 52,
                    "time": 172.1249999999999,
                    "velocity": 0.4330708661417323,
                    "duration": 0.09375
                },
                {
                    "name": "G3",
                    "midi": 55,
                    "time": 172.2187499999999,
                    "velocity": 0.4094488188976378,
                    "duration": 0.09375
                },
                {
                    "name": "C4",
                    "midi": 60,
                    "time": 172.3124999999999,
                    "velocity": 0.4094488188976378,
                    "duration": 0.09375
                },
                {
                    "name": "E4",
                    "midi": 64,
                    "time": 172.4062499999999,
                    "velocity": 0.4094488188976378,
                    "duration": 0.09375
                },
                {
                    "name": "F#3",
                    "midi": 54,
                    "time": 172.4999999999999,
                    "velocity": 0.3858267716535433,
                    "duration": 0.09375
                },
                {
                    "name": "D#4",
                    "midi": 63,
                    "time": 172.5937499999999,
                    "velocity": 0.3858267716535433,
                    "duration": 0.09375
                },
                {
                    "name": "F3",
                    "midi": 53,
                    "time": 172.6874999999999,
                    "velocity": 0.4330708661417323,
                    "duration": 0.09375
                },
                {
                    "name": "G#3",
                    "midi": 56,
                    "time": 172.7812499999999,
                    "velocity": 0.4094488188976378,
                    "duration": 0.09375
                },
                {
                    "name": "C#4",
                    "midi": 61,
                    "time": 172.8749999999999,
                    "velocity": 0.4094488188976378,
                    "duration": 0.09375
                },
                {
                    "name": "F4",
                    "midi": 65,
                    "time": 172.9687499999999,
                    "velocity": 0.4094488188976378,
                    "duration": 0.09375
                },
                {
                    "name": "G#3",
                    "midi": 56,
                    "time": 173.0624999999999,
                    "velocity": 0.3858267716535433,
                    "duration": 0.09375
                },
                {
                    "name": "G#4",
                    "midi": 68,
                    "time": 173.1562499999999,
                    "velocity": 0.3858267716535433,
                    "duration": 0.09375
                },
                {
                    "name": "B3",
                    "midi": 59,
                    "time": 173.2499999999999,
                    "velocity": 0.44881889763779526,
                    "duration": 0.09375
                },
                {
                    "name": "D4",
                    "midi": 62,
                    "time": 173.3437499999999,
                    "velocity": 0.41732283464566927,
                    "duration": 0.09375
                },
                {
                    "name": "F4",
                    "midi": 65,
                    "time": 173.4374999999999,
                    "velocity": 0.41732283464566927,
                    "duration": 0.09375
                },
                {
                    "name": "B4",
                    "midi": 71,
                    "time": 173.5312499999999,
                    "velocity": 0.41732283464566927,
                    "duration": 0.09375
                },
                {
                    "name": "F4",
                    "midi": 65,
                    "time": 173.6249999999999,
                    "velocity": 0.3779527559055118,
                    "duration": 0.09375
                },
                {
                    "name": "F5",
                    "midi": 77,
                    "time": 173.7187499999999,
                    "velocity": 0.3858267716535433,
                    "duration": 0.09375
                },
                {
                    "name": "E4",
                    "midi": 64,
                    "time": 173.8124999999999,
                    "velocity": 0.4566929133858268,
                    "duration": 0.09375
                },
                {
                    "name": "G4",
                    "midi": 67,
                    "time": 173.9062499999999,
                    "velocity": 0.41732283464566927,
                    "duration": 0.09375
                },
                {
                    "name": "C5",
                    "midi": 72,
                    "time": 173.9999999999999,
                    "velocity": 0.41732283464566927,
                    "duration": 0.09375
                },
                {
                    "name": "E5",
                    "midi": 76,
                    "time": 174.0937499999999,
                    "velocity": 0.4251968503937008,
                    "duration": 0.09375
                },
                {
                    "name": "F#4",
                    "midi": 66,
                    "time": 174.1874999999999,
                    "velocity": 0.4094488188976378,
                    "duration": 0.09375
                },
                {
                    "name": "D#5",
                    "midi": 75,
                    "time": 174.2812499999999,
                    "velocity": 0.4094488188976378,
                    "duration": 0.09375
                },
                {
                    "name": "F4",
                    "midi": 65,
                    "time": 174.3749999999999,
                    "velocity": 0.47244094488188976,
                    "duration": 0.09375
                },
                {
                    "name": "G#4",
                    "midi": 68,
                    "time": 174.4687499999999,
                    "velocity": 0.44881889763779526,
                    "duration": 0.09375
                },
                {
                    "name": "C#5",
                    "midi": 73,
                    "time": 174.5624999999999,
                    "velocity": 0.44881889763779526,
                    "duration": 0.09375
                },
                {
                    "name": "F5",
                    "midi": 77,
                    "time": 174.6562499999999,
                    "velocity": 0.4566929133858268,
                    "duration": 0.09375
                },
                {
                    "name": "G#4",
                    "midi": 68,
                    "time": 174.7499999999999,
                    "velocity": 0.4330708661417323,
                    "duration": 0.09375
                },
                {
                    "name": "G#5",
                    "midi": 80,
                    "time": 174.8437499999999,
                    "velocity": 0.4330708661417323,
                    "duration": 0.09375
                },
                {
                    "name": "B4",
                    "midi": 71,
                    "time": 174.9374999999999,
                    "velocity": 0.5275590551181102,
                    "duration": 0.09375
                },
                {
                    "name": "D5",
                    "midi": 74,
                    "time": 175.0312499999999,
                    "velocity": 0.47244094488188976,
                    "duration": 0.09375
                },
                {
                    "name": "F5",
                    "midi": 77,
                    "time": 175.1249999999999,
                    "velocity": 0.47244094488188976,
                    "duration": 0.09375
                },
                {
                    "name": "B5",
                    "midi": 83,
                    "time": 175.2187499999999,
                    "velocity": 0.4881889763779528,
                    "duration": 0.09375
                },
                {
                    "name": "F5",
                    "midi": 77,
                    "time": 175.3124999999999,
                    "velocity": 0.4566929133858268,
                    "duration": 0.09375
                },
                {
                    "name": "F6",
                    "midi": 89,
                    "time": 175.4062499999999,
                    "velocity": 0.4566929133858268,
                    "duration": 0.09375
                },
                {
                    "name": "E5",
                    "midi": 76,
                    "time": 175.4999999999999,
                    "velocity": 0.5275590551181102,
                    "duration": 0.09375
                },
                {
                    "name": "G5",
                    "midi": 79,
                    "time": 175.5937499999999,
                    "velocity": 0.5039370078740157,
                    "duration": 0.09375
                },
                {
                    "name": "C6",
                    "midi": 84,
                    "time": 175.6874999999999,
                    "velocity": 0.5118110236220472,
                    "duration": 0.09375
                },
                {
                    "name": "E6",
                    "midi": 88,
                    "time": 175.7812499999999,
                    "velocity": 0.5196850393700787,
                    "duration": 0.09375
                },
                {
                    "name": "F#5",
                    "midi": 78,
                    "time": 175.8749999999999,
                    "velocity": 0.49606299212598426,
                    "duration": 0.09375
                },
                {
                    "name": "D#6",
                    "midi": 87,
                    "time": 175.9687499999999,
                    "velocity": 0.49606299212598426,
                    "duration": 0.09375
                },
                {
                    "name": "F5",
                    "midi": 77,
                    "time": 176.0624999999999,
                    "velocity": 0.5590551181102362,
                    "duration": 0.09375
                },
                {
                    "name": "G#5",
                    "midi": 80,
                    "time": 176.1562499999999,
                    "velocity": 0.5354330708661418,
                    "duration": 0.09375
                },
                {
                    "name": "C#6",
                    "midi": 85,
                    "time": 176.2499999999999,
                    "velocity": 0.5511811023622047,
                    "duration": 0.09375
                },
                {
                    "name": "F6",
                    "midi": 89,
                    "time": 176.3437499999999,
                    "velocity": 0.5511811023622047,
                    "duration": 0.09375
                },
                {
                    "name": "G#5",
                    "midi": 80,
                    "time": 176.4374999999999,
                    "velocity": 0.5196850393700787,
                    "duration": 0.09375
                },
                {
                    "name": "G#6",
                    "midi": 92,
                    "time": 176.5312499999999,
                    "velocity": 0.5196850393700787,
                    "duration": 0.09375
                },
                {
                    "name": "B5",
                    "midi": 83,
                    "time": 176.6249999999999,
                    "velocity": 0.6062992125984252,
                    "duration": 0.09375
                },
                {
                    "name": "D6",
                    "midi": 86,
                    "time": 176.7187499999999,
                    "velocity": 0.5748031496062992,
                    "duration": 0.09375
                },
                {
                    "name": "F6",
                    "midi": 89,
                    "time": 176.8124999999999,
                    "velocity": 0.5826771653543307,
                    "duration": 0.09375
                },
                {
                    "name": "B6",
                    "midi": 95,
                    "time": 176.9062499999999,
                    "velocity": 0.5826771653543307,
                    "duration": 0.09375
                },
                {
                    "name": "F6",
                    "midi": 89,
                    "time": 176.9999999999999,
                    "velocity": 0.5354330708661418,
                    "duration": 0.09375
                },
                {
                    "name": "F7",
                    "midi": 101,
                    "time": 177.0937499999999,
                    "velocity": 0.5433070866141733,
                    "duration": 0.09375
                },
                {
                    "name": "E6",
                    "midi": 88,
                    "time": 177.1874999999999,
                    "velocity": 0.5590551181102362,
                    "duration": 0.09375
                },
                {
                    "name": "E7",
                    "midi": 100,
                    "time": 177.2812499999999,
                    "velocity": 0.5669291338582677,
                    "duration": 0.09375
                },
                {
                    "name": "B6",
                    "midi": 95,
                    "time": 177.3749999999999,
                    "velocity": 0.6220472440944882,
                    "duration": 0.09375
                },
                {
                    "name": "E7",
                    "midi": 100,
                    "time": 177.4687499999999,
                    "velocity": 0.5748031496062992,
                    "duration": 0.09375
                },
                {
                    "name": "C7",
                    "midi": 96,
                    "time": 177.5624999999999,
                    "velocity": 0.5511811023622047,
                    "duration": 0.09375
                },
                {
                    "name": "G6",
                    "midi": 91,
                    "time": 177.6562499999999,
                    "velocity": 0.5511811023622047,
                    "duration": 0.09375
                },
                {
                    "name": "E6",
                    "midi": 88,
                    "time": 177.7499999999999,
                    "velocity": 0.5748031496062992,
                    "duration": 0.09375
                },
                {
                    "name": "C7",
                    "midi": 96,
                    "time": 177.8437499999999,
                    "velocity": 0.5748031496062992,
                    "duration": 0.09375
                },
                {
                    "name": "F#6",
                    "midi": 90,
                    "time": 177.9374999999999,
                    "velocity": 0.6220472440944882,
                    "duration": 0.09375
                },
                {
                    "name": "C7",
                    "midi": 96,
                    "time": 178.0312499999999,
                    "velocity": 0.5748031496062992,
                    "duration": 0.09375
                },
                {
                    "name": "G6",
                    "midi": 91,
                    "time": 178.1249999999999,
                    "velocity": 0.5748031496062992,
                    "duration": 0.09375
                },
                {
                    "name": "E6",
                    "midi": 88,
                    "time": 178.2187499999999,
                    "velocity": 0.5590551181102362,
                    "duration": 0.09375
                },
                {
                    "name": "C6",
                    "midi": 84,
                    "time": 178.3124999999999,
                    "velocity": 0.5748031496062992,
                    "duration": 0.09375
                },
                {
                    "name": "G6",
                    "midi": 91,
                    "time": 178.4062499999999,
                    "velocity": 0.5748031496062992,
                    "duration": 0.09375
                },
                {
                    "name": "D#6",
                    "midi": 87,
                    "time": 178.4999999999999,
                    "velocity": 0.6141732283464567,
                    "duration": 0.09375
                },
                {
                    "name": "G6",
                    "midi": 91,
                    "time": 178.5937499999999,
                    "velocity": 0.5748031496062992,
                    "duration": 0.09375
                },
                {
                    "name": "E6",
                    "midi": 88,
                    "time": 178.6874999999999,
                    "velocity": 0.5590551181102362,
                    "duration": 0.09375
                },
                {
                    "name": "C6",
                    "midi": 84,
                    "time": 178.7812499999999,
                    "velocity": 0.5669291338582677,
                    "duration": 0.09375
                },
                {
                    "name": "G5",
                    "midi": 79,
                    "time": 178.8749999999999,
                    "velocity": 0.5748031496062992,
                    "duration": 0.09375
                },
                {
                    "name": "E6",
                    "midi": 88,
                    "time": 178.9687499999999,
                    "velocity": 0.5748031496062992,
                    "duration": 0.09375
                },
                {
                    "name": "B5",
                    "midi": 83,
                    "time": 179.0624999999999,
                    "velocity": 0.6062992125984252,
                    "duration": 0.09375
                },
                {
                    "name": "E6",
                    "midi": 88,
                    "time": 179.1562499999999,
                    "velocity": 0.5748031496062992,
                    "duration": 0.09375
                },
                {
                    "name": "C6",
                    "midi": 84,
                    "time": 179.2499999999999,
                    "velocity": 0.5511811023622047,
                    "duration": 0.09375
                },
                {
                    "name": "G5",
                    "midi": 79,
                    "time": 179.3437499999999,
                    "velocity": 0.5511811023622047,
                    "duration": 0.09375
                },
                {
                    "name": "E5",
                    "midi": 76,
                    "time": 179.4374999999999,
                    "velocity": 0.5748031496062992,
                    "duration": 0.09375
                },
                {
                    "name": "C6",
                    "midi": 84,
                    "time": 179.5312499999999,
                    "velocity": 0.5748031496062992,
                    "duration": 0.09375
                },
                {
                    "name": "F#5",
                    "midi": 78,
                    "time": 179.6249999999999,
                    "velocity": 0.6141732283464567,
                    "duration": 0.09375
                },
                {
                    "name": "C6",
                    "midi": 84,
                    "time": 179.7187499999999,
                    "velocity": 0.5748031496062992,
                    "duration": 0.09375
                },
                {
                    "name": "G5",
                    "midi": 79,
                    "time": 179.8124999999999,
                    "velocity": 0.5590551181102362,
                    "duration": 0.09375
                },
                {
                    "name": "E5",
                    "midi": 76,
                    "time": 179.9062499999999,
                    "velocity": 0.5590551181102362,
                    "duration": 0.09375
                },
                {
                    "name": "C5",
                    "midi": 72,
                    "time": 179.9999999999999,
                    "velocity": 0.5590551181102362,
                    "duration": 0.09375
                },
                {
                    "name": "G5",
                    "midi": 79,
                    "time": 180.0937499999999,
                    "velocity": 0.5511811023622047,
                    "duration": 0.09375
                },
                {
                    "name": "D#5",
                    "midi": 75,
                    "time": 180.1874999999999,
                    "velocity": 0.5748031496062992,
                    "duration": 0.09375
                },
                {
                    "name": "G5",
                    "midi": 79,
                    "time": 180.2812499999999,
                    "velocity": 0.5354330708661418,
                    "duration": 0.09375
                },
                {
                    "name": "E5",
                    "midi": 76,
                    "time": 180.3749999999999,
                    "velocity": 0.5118110236220472,
                    "duration": 0.09375
                },
                {
                    "name": "C5",
                    "midi": 72,
                    "time": 180.4687499999999,
                    "velocity": 0.5118110236220472,
                    "duration": 0.09375
                },
                {
                    "name": "G4",
                    "midi": 67,
                    "time": 180.5624999999999,
                    "velocity": 0.5196850393700787,
                    "duration": 0.09375
                },
                {
                    "name": "E5",
                    "midi": 76,
                    "time": 180.6562499999999,
                    "velocity": 0.48031496062992124,
                    "duration": 0.09375
                },
                {
                    "name": "B4",
                    "midi": 71,
                    "time": 180.7499999999999,
                    "velocity": 0.5275590551181102,
                    "duration": 0.09375
                },
                {
                    "name": "E5",
                    "midi": 76,
                    "time": 180.8437499999999,
                    "velocity": 0.4645669291338583,
                    "duration": 0.09375
                },
                {
                    "name": "C5",
                    "midi": 72,
                    "time": 180.9374999999999,
                    "velocity": 0.4645669291338583,
                    "duration": 0.09375
                },
                {
                    "name": "A#4",
                    "midi": 70,
                    "time": 181.0312499999999,
                    "velocity": 0.44881889763779526,
                    "duration": 0.09375
                },
                {
                    "name": "G4",
                    "midi": 67,
                    "time": 181.1249999999999,
                    "velocity": 0.4409448818897638,
                    "duration": 0.09375
                },
                {
                    "name": "E4",
                    "midi": 64,
                    "time": 181.2187499999999,
                    "velocity": 0.4330708661417323,
                    "duration": 0.09375
                },
                {
                    "name": "C4",
                    "midi": 60,
                    "time": 181.3124999999999,
                    "velocity": 0.4330708661417323,
                    "duration": 0.09375
                },
                {
                    "name": "A#3",
                    "midi": 58,
                    "time": 181.4062499999999,
                    "velocity": 0.4251968503937008,
                    "duration": 0.09375
                },
                {
                    "name": "G3",
                    "midi": 55,
                    "time": 181.4999999999999,
                    "velocity": 0.41732283464566927,
                    "duration": 0.09375
                },
                {
                    "name": "E3",
                    "midi": 52,
                    "time": 181.5937499999999,
                    "velocity": 0.4094488188976378,
                    "duration": 0.09375
                },
                {
                    "name": "A4",
                    "midi": 69,
                    "time": 182.4374999999999,
                    "velocity": 0.48031496062992124,
                    "duration": 0.09375
                },
                {
                    "name": "A#4",
                    "midi": 70,
                    "time": 182.5312499999999,
                    "velocity": 0.4409448818897638,
                    "duration": 0.1875
                },
                {
                    "name": "C5",
                    "midi": 72,
                    "time": 182.6249999999999,
                    "velocity": 0.4409448818897638,
                    "duration": 0.09375
                },
                {
                    "name": "E5",
                    "midi": 76,
                    "time": 182.7187499999999,
                    "velocity": 0.4409448818897638,
                    "duration": 0.09375
                },
                {
                    "name": "A5",
                    "midi": 81,
                    "time": 182.8124999999999,
                    "velocity": 0.5039370078740157,
                    "duration": 0.09375
                },
                {
                    "name": "A#5",
                    "midi": 82,
                    "time": 182.9062499999999,
                    "velocity": 0.4330708661417323,
                    "duration": 0.1875
                },
                {
                    "name": "C6",
                    "midi": 84,
                    "time": 182.9999999999999,
                    "velocity": 0.4330708661417323,
                    "duration": 0.09375
                },
                {
                    "name": "E6",
                    "midi": 88,
                    "time": 183.0937499999999,
                    "velocity": 0.4409448818897638,
                    "duration": 0.09375
                },
                {
                    "name": "A6",
                    "midi": 93,
                    "time": 183.1874999999999,
                    "velocity": 0.5039370078740157,
                    "duration": 0.07499999999998863
                },
                {
                    "name": "G6",
                    "midi": 91,
                    "time": 183.26249999999987,
                    "velocity": 0.4566929133858268,
                    "duration": 0.07499999999998863
                },
                {
                    "name": "F#6",
                    "midi": 90,
                    "time": 183.33749999999986,
                    "velocity": 0.4645669291338583,
                    "duration": 0.07499999999998863
                },
                {
                    "name": "G6",
                    "midi": 91,
                    "time": 183.41249999999985,
                    "velocity": 0.4645669291338583,
                    "duration": 0.07499999999998863
                },
                {
                    "name": "A6",
                    "midi": 93,
                    "time": 183.48749999999984,
                    "velocity": 0.5118110236220472,
                    "duration": 0.07499999999998863
                },
                {
                    "name": "G6",
                    "midi": 91,
                    "time": 183.56249999999983,
                    "velocity": 0.3464566929133858,
                    "duration": 0.046875
                },
                {
                    "name": "A6",
                    "midi": 93,
                    "time": 183.60937499999983,
                    "velocity": 0.2992125984251969,
                    "duration": 0.046875
                },
                {
                    "name": "G6",
                    "midi": 91,
                    "time": 183.65624999999983,
                    "velocity": 0.33070866141732286,
                    "duration": 0.046875
                },
                {
                    "name": "A6",
                    "midi": 93,
                    "time": 183.70312499999983,
                    "velocity": 0.29133858267716534,
                    "duration": 0.046875
                },
                {
                    "name": "G6",
                    "midi": 91,
                    "time": 183.74999999999983,
                    "velocity": 0.33858267716535434,
                    "duration": 0.046875
                },
                {
                    "name": "A6",
                    "midi": 93,
                    "time": 183.79687499999983,
                    "velocity": 0.29133858267716534,
                    "duration": 0.046875
                },
                {
                    "name": "G6",
                    "midi": 91,
                    "time": 183.84374999999983,
                    "velocity": 0.33858267716535434,
                    "duration": 0.046875
                },
                {
                    "name": "A6",
                    "midi": 93,
                    "time": 183.89062499999983,
                    "velocity": 0.2992125984251969,
                    "duration": 0.046875
                },
                {
                    "name": "G6",
                    "midi": 91,
                    "time": 183.93749999999983,
                    "velocity": 0.3464566929133858,
                    "duration": 0.046875
                },
                {
                    "name": "A6",
                    "midi": 93,
                    "time": 183.98437499999983,
                    "velocity": 0.31496062992125984,
                    "duration": 0.046875
                },
                {
                    "name": "G6",
                    "midi": 91,
                    "time": 184.03124999999983,
                    "velocity": 0.3464566929133858,
                    "duration": 0.046875
                },
                {
                    "name": "A6",
                    "midi": 93,
                    "time": 184.07812499999983,
                    "velocity": 0.31496062992125984,
                    "duration": 0.046875
                },
                {
                    "name": "G6",
                    "midi": 91,
                    "time": 184.12499999999983,
                    "velocity": 0.3543307086614173,
                    "duration": 0.046875
                },
                {
                    "name": "A6",
                    "midi": 93,
                    "time": 184.17187499999983,
                    "velocity": 0.3228346456692913,
                    "duration": 0.046875
                },
                {
                    "name": "G6",
                    "midi": 91,
                    "time": 184.21874999999983,
                    "velocity": 0.36220472440944884,
                    "duration": 0.046875
                },
                {
                    "name": "A6",
                    "midi": 93,
                    "time": 184.26562499999983,
                    "velocity": 0.33858267716535434,
                    "duration": 0.046875
                },
                {
                    "name": "G6",
                    "midi": 91,
                    "time": 184.31249999999983,
                    "velocity": 0.3779527559055118,
                    "duration": 0.046875
                },
                {
                    "name": "A6",
                    "midi": 93,
                    "time": 184.35937499999983,
                    "velocity": 0.33858267716535434,
                    "duration": 0.046875
                },
                {
                    "name": "G6",
                    "midi": 91,
                    "time": 184.40624999999983,
                    "velocity": 0.3779527559055118,
                    "duration": 0.046875
                },
                {
                    "name": "A6",
                    "midi": 93,
                    "time": 184.45312499999983,
                    "velocity": 0.3464566929133858,
                    "duration": 0.046875
                },
                {
                    "name": "G6",
                    "midi": 91,
                    "time": 184.49999999999983,
                    "velocity": 0.3937007874015748,
                    "duration": 0.046875
                },
                {
                    "name": "A6",
                    "midi": 93,
                    "time": 184.54687499999983,
                    "velocity": 0.3464566929133858,
                    "duration": 0.046875
                },
                {
                    "name": "G6",
                    "midi": 91,
                    "time": 184.59374999999983,
                    "velocity": 0.4015748031496063,
                    "duration": 0.046875
                },
                {
                    "name": "A6",
                    "midi": 93,
                    "time": 184.64062499999983,
                    "velocity": 0.3464566929133858,
                    "duration": 0.046875
                },
                {
                    "name": "G6",
                    "midi": 91,
                    "time": 184.68749999999983,
                    "velocity": 0.4015748031496063,
                    "duration": 0.046875
                },
                {
                    "name": "A6",
                    "midi": 93,
                    "time": 184.73437499999983,
                    "velocity": 0.3543307086614173,
                    "duration": 0.046875
                },
                {
                    "name": "G6",
                    "midi": 91,
                    "time": 184.78124999999983,
                    "velocity": 0.3937007874015748,
                    "duration": 0.046875
                },
                {
                    "name": "A6",
                    "midi": 93,
                    "time": 184.82812499999983,
                    "velocity": 0.3543307086614173,
                    "duration": 0.046875
                },
                {
                    "name": "G6",
                    "midi": 91,
                    "time": 184.87499999999983,
                    "velocity": 0.3937007874015748,
                    "duration": 0.046875
                },
                {
                    "name": "A6",
                    "midi": 93,
                    "time": 184.92187499999983,
                    "velocity": 0.33858267716535434,
                    "duration": 0.046875
                },
                {
                    "name": "G6",
                    "midi": 91,
                    "time": 184.96874999999983,
                    "velocity": 0.3858267716535433,
                    "duration": 0.046875
                },
                {
                    "name": "A6",
                    "midi": 93,
                    "time": 185.01562499999983,
                    "velocity": 0.33858267716535434,
                    "duration": 0.046875
                },
                {
                    "name": "G6",
                    "midi": 91,
                    "time": 185.06249999999983,
                    "velocity": 0.3779527559055118,
                    "duration": 0.046875
                },
                {
                    "name": "A6",
                    "midi": 93,
                    "time": 185.10937499999983,
                    "velocity": 0.33858267716535434,
                    "duration": 0.046875
                },
                {
                    "name": "G6",
                    "midi": 91,
                    "time": 185.15624999999983,
                    "velocity": 0.3700787401574803,
                    "duration": 0.046875
                },
                {
                    "name": "A6",
                    "midi": 93,
                    "time": 185.20312499999983,
                    "velocity": 0.2992125984251969,
                    "duration": 0.046875
                },
                {
                    "name": "G6",
                    "midi": 91,
                    "time": 185.24999999999983,
                    "velocity": 0.3464566929133858,
                    "duration": 0.046875
                },
                {
                    "name": "A6",
                    "midi": 93,
                    "time": 185.29687499999983,
                    "velocity": 0.28346456692913385,
                    "duration": 0.046875
                },
                {
                    "name": "G6",
                    "midi": 91,
                    "time": 185.34374999999983,
                    "velocity": 0.36220472440944884,
                    "duration": 0.046875
                },
                {
                    "name": "A6",
                    "midi": 93,
                    "time": 185.39062499999983,
                    "velocity": 0.29133858267716534,
                    "duration": 0.046875
                },
                {
                    "name": "G6",
                    "midi": 91,
                    "time": 185.43749999999983,
                    "velocity": 0.3543307086614173,
                    "duration": 0.0625
                },
                {
                    "name": "A6",
                    "midi": 93,
                    "time": 185.49999999999983,
                    "velocity": 0.31496062992125984,
                    "duration": 0.0625
                },
                {
                    "name": "G6",
                    "midi": 91,
                    "time": 185.56249999999983,
                    "velocity": 0.2992125984251969,
                    "duration": 0.0625
                },
                {
                    "name": "F#6",
                    "midi": 90,
                    "time": 185.62499999999983,
                    "velocity": 0.3464566929133858,
                    "duration": 0.0625
                },
                {
                    "name": "G6",
                    "midi": 91,
                    "time": 185.68749999999983,
                    "velocity": 0.36220472440944884,
                    "duration": 0.0625
                },
                {
                    "name": "A6",
                    "midi": 93,
                    "time": 185.74999999999983,
                    "velocity": 0.36220472440944884,
                    "duration": 0.0625
                },
                {
                    "name": "G6",
                    "midi": 91,
                    "time": 185.81249999999983,
                    "velocity": 0.4094488188976378,
                    "duration": 0.375
                },
                {
                    "name": "D#4",
                    "midi": 63,
                    "time": 187.12499999999983,
                    "velocity": 0.29133858267716534,
                    "duration": 0.37109375
                },
                {
                    "name": "A4",
                    "midi": 69,
                    "time": 187.12499999999983,
                    "velocity": 0.3543307086614173,
                    "duration": 0.37109375
                },
                {
                    "name": "D#4",
                    "midi": 63,
                    "time": 187.49999999999983,
                    "velocity": 0.28346456692913385,
                    "duration": 0.18593749999999432
                },
                {
                    "name": "A4",
                    "midi": 69,
                    "time": 187.49999999999983,
                    "velocity": 0.3464566929133858,
                    "duration": 0.18593749999999432
                },
                {
                    "name": "E4",
                    "midi": 64,
                    "time": 187.68749999999983,
                    "velocity": 0.3228346456692913,
                    "duration": 0.37109375
                },
                {
                    "name": "A#4",
                    "midi": 70,
                    "time": 187.68749999999983,
                    "velocity": 0.3937007874015748,
                    "duration": 0.37109375
                },
                {
                    "name": "E4",
                    "midi": 64,
                    "time": 188.06249999999983,
                    "velocity": 0.31496062992125984,
                    "duration": 0.18593749999999432
                },
                {
                    "name": "A#4",
                    "midi": 70,
                    "time": 188.06249999999983,
                    "velocity": 0.3779527559055118,
                    "duration": 0.18593749999999432
                },
                {
                    "name": "F4",
                    "midi": 65,
                    "time": 188.24999999999983,
                    "velocity": 0.3464566929133858,
                    "duration": 0.37109375
                },
                {
                    "name": "B4",
                    "midi": 71,
                    "time": 188.24999999999983,
                    "velocity": 0.41732283464566927,
                    "duration": 0.37109375
                },
                {
                    "name": "F4",
                    "midi": 65,
                    "time": 188.62499999999983,
                    "velocity": 0.33858267716535434,
                    "duration": 0.18593749999999432
                },
                {
                    "name": "B4",
                    "midi": 71,
                    "time": 188.62499999999983,
                    "velocity": 0.4015748031496063,
                    "duration": 0.18593749999999432
                },
                {
                    "name": "F4",
                    "midi": 65,
                    "time": 188.81249999999983,
                    "velocity": 0.3700787401574803,
                    "duration": 0.37109375
                },
                {
                    "name": "C5",
                    "midi": 72,
                    "time": 188.81249999999983,
                    "velocity": 0.4409448818897638,
                    "duration": 0.37109375
                },
                {
                    "name": "F4",
                    "midi": 65,
                    "time": 189.18749999999983,
                    "velocity": 0.3779527559055118,
                    "duration": 0.18593749999999432
                },
                {
                    "name": "A4",
                    "midi": 69,
                    "time": 189.37499999999983,
                    "velocity": 0.41732283464566927,
                    "duration": 0.37109375
                },
                {
                    "name": "D5",
                    "midi": 74,
                    "time": 189.37499999999983,
                    "velocity": 0.49606299212598426,
                    "duration": 0.37109375
                },
                {
                    "name": "A4",
                    "midi": 69,
                    "time": 189.74999999999983,
                    "velocity": 0.4015748031496063,
                    "duration": 0.18593749999999432
                },
                {
                    "name": "C5",
                    "midi": 72,
                    "time": 189.74999999999983,
                    "velocity": 0.48031496062992124,
                    "duration": 0.18593749999999432
                },
                {
                    "name": "G4",
                    "midi": 67,
                    "time": 189.93749999999983,
                    "velocity": 0.3937007874015748,
                    "duration": 0.37109375
                },
                {
                    "name": "A#4",
                    "midi": 70,
                    "time": 189.93749999999983,
                    "velocity": 0.47244094488188976,
                    "duration": 0.37109375
                },
                {
                    "name": "G#4",
                    "midi": 68,
                    "time": 190.31249999999983,
                    "velocity": 0.33070866141732286,
                    "duration": 0.18593749999999432
                },
                {
                    "name": "B4",
                    "midi": 71,
                    "time": 190.31249999999983,
                    "velocity": 0.3937007874015748,
                    "duration": 0.18593749999999432
                },
                {
                    "name": "G4",
                    "midi": 67,
                    "time": 190.49999999999983,
                    "velocity": 0.3543307086614173,
                    "duration": 0.37109375
                },
                {
                    "name": "C5",
                    "midi": 72,
                    "time": 190.49999999999983,
                    "velocity": 0.4251968503937008,
                    "duration": 0.37109375
                },
                {
                    "name": "E4",
                    "midi": 64,
                    "time": 190.87499999999983,
                    "velocity": 0.31496062992125984,
                    "duration": 0.18593749999999432
                },
                {
                    "name": "A#4",
                    "midi": 70,
                    "time": 190.87499999999983,
                    "velocity": 0.3779527559055118,
                    "duration": 0.18593749999999432
                },
                {
                    "name": "F4",
                    "midi": 65,
                    "time": 191.06249999999983,
                    "velocity": 0.30708661417322836,
                    "duration": 0.375
                },
                {
                    "name": "A4",
                    "midi": 69,
                    "time": 191.06249999999983,
                    "velocity": 0.36220472440944884,
                    "duration": 0.375
                },
                {
                    "name": "D#7",
                    "midi": 99,
                    "time": 191.62499999999983,
                    "velocity": 0.2992125984251969,
                    "duration": 0.09375
                },
                {
                    "name": "D7",
                    "midi": 98,
                    "time": 191.71874999999983,
                    "velocity": 0.28346456692913385,
                    "duration": 0.09375
                },
                {
                    "name": "F7",
                    "midi": 101,
                    "time": 191.81249999999983,
                    "velocity": 0.31496062992125984,
                    "duration": 0.09375
                },
                {
                    "name": "D#7",
                    "midi": 99,
                    "time": 191.90624999999983,
                    "velocity": 0.29133858267716534,
                    "duration": 0.09375
                },
                {
                    "name": "D7",
                    "midi": 98,
                    "time": 191.99999999999983,
                    "velocity": 0.29133858267716534,
                    "duration": 0.09375
                },
                {
                    "name": "C7",
                    "midi": 96,
                    "time": 192.09374999999983,
                    "velocity": 0.29133858267716534,
                    "duration": 0.09375
                },
                {
                    "name": "A#6",
                    "midi": 94,
                    "time": 192.18749999999983,
                    "velocity": 0.31496062992125984,
                    "duration": 0.09375
                },
                {
                    "name": "A6",
                    "midi": 93,
                    "time": 192.28124999999983,
                    "velocity": 0.29133858267716534,
                    "duration": 0.09375
                },
                {
                    "name": "C7",
                    "midi": 96,
                    "time": 192.37499999999983,
                    "velocity": 0.3228346456692913,
                    "duration": 0.09375
                },
                {
                    "name": "A#6",
                    "midi": 94,
                    "time": 192.46874999999983,
                    "velocity": 0.2992125984251969,
                    "duration": 0.09375
                },
                {
                    "name": "A6",
                    "midi": 93,
                    "time": 192.56249999999983,
                    "velocity": 0.30708661417322836,
                    "duration": 0.09375
                },
                {
                    "name": "G6",
                    "midi": 91,
                    "time": 192.65624999999983,
                    "velocity": 0.30708661417322836,
                    "duration": 0.09375
                },
                {
                    "name": "F6",
                    "midi": 89,
                    "time": 192.74999999999983,
                    "velocity": 0.33070866141732286,
                    "duration": 0.09375
                },
                {
                    "name": "E6",
                    "midi": 88,
                    "time": 192.84374999999983,
                    "velocity": 0.30708661417322836,
                    "duration": 0.09375
                },
                {
                    "name": "G6",
                    "midi": 91,
                    "time": 192.93749999999983,
                    "velocity": 0.3464566929133858,
                    "duration": 0.09375
                },
                {
                    "name": "F6",
                    "midi": 89,
                    "time": 193.03124999999983,
                    "velocity": 0.3228346456692913,
                    "duration": 0.09375
                },
                {
                    "name": "E6",
                    "midi": 88,
                    "time": 193.12499999999983,
                    "velocity": 0.3228346456692913,
                    "duration": 0.09375
                },
                {
                    "name": "D6",
                    "midi": 86,
                    "time": 193.21874999999983,
                    "velocity": 0.3228346456692913,
                    "duration": 0.09375
                },
                {
                    "name": "C6",
                    "midi": 84,
                    "time": 193.31249999999983,
                    "velocity": 0.33858267716535434,
                    "duration": 0.09375
                },
                {
                    "name": "B5",
                    "midi": 83,
                    "time": 193.40624999999983,
                    "velocity": 0.3228346456692913,
                    "duration": 0.09375
                },
                {
                    "name": "D6",
                    "midi": 86,
                    "time": 193.49999999999983,
                    "velocity": 0.3700787401574803,
                    "duration": 0.09375
                },
                {
                    "name": "C6",
                    "midi": 84,
                    "time": 193.59374999999983,
                    "velocity": 0.3464566929133858,
                    "duration": 0.09375
                },
                {
                    "name": "A#5",
                    "midi": 82,
                    "time": 193.68749999999983,
                    "velocity": 0.3464566929133858,
                    "duration": 0.09375
                },
                {
                    "name": "A5",
                    "midi": 81,
                    "time": 193.78124999999983,
                    "velocity": 0.3464566929133858,
                    "duration": 0.09375
                },
                {
                    "name": "D6",
                    "midi": 86,
                    "time": 193.87499999999983,
                    "velocity": 0.3700787401574803,
                    "duration": 0.09375
                },
                {
                    "name": "C#6",
                    "midi": 85,
                    "time": 193.96874999999983,
                    "velocity": 0.3543307086614173,
                    "duration": 0.09375
                },
                {
                    "name": "D#6",
                    "midi": 87,
                    "time": 194.06249999999983,
                    "velocity": 0.4015748031496063,
                    "duration": 0.09375
                },
                {
                    "name": "D6",
                    "midi": 86,
                    "time": 194.15624999999983,
                    "velocity": 0.36220472440944884,
                    "duration": 0.09375
                },
                {
                    "name": "C6",
                    "midi": 84,
                    "time": 194.24999999999983,
                    "velocity": 0.36220472440944884,
                    "duration": 0.09375
                },
                {
                    "name": "A5",
                    "midi": 81,
                    "time": 194.34374999999983,
                    "velocity": 0.3700787401574803,
                    "duration": 0.09375
                },
                {
                    "name": "A#5",
                    "midi": 82,
                    "time": 194.43749999999983,
                    "velocity": 0.4015748031496063,
                    "duration": 0.09375
                },
                {
                    "name": "A5",
                    "midi": 81,
                    "time": 194.53124999999983,
                    "velocity": 0.3700787401574803,
                    "duration": 0.09375
                },
                {
                    "name": "C6",
                    "midi": 84,
                    "time": 194.62499999999983,
                    "velocity": 0.4094488188976378,
                    "duration": 0.09375
                },
                {
                    "name": "A#5",
                    "midi": 82,
                    "time": 194.71874999999983,
                    "velocity": 0.3779527559055118,
                    "duration": 0.09375
                },
                {
                    "name": "G5",
                    "midi": 79,
                    "time": 194.81249999999983,
                    "velocity": 0.3779527559055118,
                    "duration": 0.09375
                },
                {
                    "name": "D5",
                    "midi": 74,
                    "time": 194.90624999999983,
                    "velocity": 0.3779527559055118,
                    "duration": 0.09375
                },
                {
                    "name": "C5",
                    "midi": 72,
                    "time": 194.99999999999983,
                    "velocity": 0.41732283464566927,
                    "duration": 0.09375
                },
                {
                    "name": "B4",
                    "midi": 71,
                    "time": 195.09374999999983,
                    "velocity": 0.3858267716535433,
                    "duration": 0.09375
                },
                {
                    "name": "D5",
                    "midi": 74,
                    "time": 195.18749999999983,
                    "velocity": 0.4251968503937008,
                    "duration": 0.09375
                },
                {
                    "name": "C5",
                    "midi": 72,
                    "time": 195.28124999999983,
                    "velocity": 0.3858267716535433,
                    "duration": 0.09375
                },
                {
                    "name": "A#4",
                    "midi": 70,
                    "time": 195.37499999999983,
                    "velocity": 0.3858267716535433,
                    "duration": 0.09375
                },
                {
                    "name": "G4",
                    "midi": 67,
                    "time": 195.46874999999983,
                    "velocity": 0.3858267716535433,
                    "duration": 0.09375
                },
                {
                    "name": "A4",
                    "midi": 69,
                    "time": 195.56249999999983,
                    "velocity": 0.4094488188976378,
                    "duration": 0.09375
                },
                {
                    "name": "G#4",
                    "midi": 68,
                    "time": 195.65624999999983,
                    "velocity": 0.3858267716535433,
                    "duration": 0.09375
                },
                {
                    "name": "A4",
                    "midi": 69,
                    "time": 195.74999999999983,
                    "velocity": 0.4409448818897638,
                    "duration": 0.09375
                },
                {
                    "name": "A#4",
                    "midi": 70,
                    "time": 195.84374999999983,
                    "velocity": 0.3937007874015748,
                    "duration": 0.09375
                },
                {
                    "name": "F4",
                    "midi": 65,
                    "time": 195.93749999999983,
                    "velocity": 0.4015748031496063,
                    "duration": 0.09375
                },
                {
                    "name": "A4",
                    "midi": 69,
                    "time": 196.03124999999983,
                    "velocity": 0.4015748031496063,
                    "duration": 0.09375
                },
                {
                    "name": "D#4",
                    "midi": 63,
                    "time": 196.12499999999983,
                    "velocity": 0.47244094488188976,
                    "duration": 0.375
                },
                {
                    "name": "A4",
                    "midi": 69,
                    "time": 196.21874999999983,
                    "velocity": 0.4409448818897638,
                    "duration": 0.09375
                },
                {
                    "name": "G#4",
                    "midi": 68,
                    "time": 196.31249999999983,
                    "velocity": 0.4409448818897638,
                    "duration": 0.09375
                },
                {
                    "name": "A4",
                    "midi": 69,
                    "time": 196.40624999999983,
                    "velocity": 0.4409448818897638,
                    "duration": 0.09375
                },
                {
                    "name": "A#4",
                    "midi": 70,
                    "time": 196.49999999999983,
                    "velocity": 0.41732283464566927,
                    "duration": 0.09375
                },
                {
                    "name": "A4",
                    "midi": 69,
                    "time": 196.59374999999983,
                    "velocity": 0.41732283464566927,
                    "duration": 0.09375
                },
                {
                    "name": "E4",
                    "midi": 64,
                    "time": 196.68749999999983,
                    "velocity": 0.47244094488188976,
                    "duration": 0.375
                },
                {
                    "name": "A#4",
                    "midi": 70,
                    "time": 196.78124999999983,
                    "velocity": 0.44881889763779526,
                    "duration": 0.09375
                },
                {
                    "name": "A4",
                    "midi": 69,
                    "time": 196.87499999999983,
                    "velocity": 0.44881889763779526,
                    "duration": 0.09375
                },
                {
                    "name": "A#4",
                    "midi": 70,
                    "time": 196.96874999999983,
                    "velocity": 0.44881889763779526,
                    "duration": 0.09375
                },
                {
                    "name": "C5",
                    "midi": 72,
                    "time": 197.06249999999983,
                    "velocity": 0.4330708661417323,
                    "duration": 0.09375
                },
                {
                    "name": "A#4",
                    "midi": 70,
                    "time": 197.15624999999983,
                    "velocity": 0.4330708661417323,
                    "duration": 0.09375
                },
                {
                    "name": "F4",
                    "midi": 65,
                    "time": 197.24999999999983,
                    "velocity": 0.49606299212598426,
                    "duration": 0.375
                },
                {
                    "name": "B4",
                    "midi": 71,
                    "time": 197.34374999999983,
                    "velocity": 0.4566929133858268,
                    "duration": 0.09375
                },
                {
                    "name": "A#4",
                    "midi": 70,
                    "time": 197.43749999999983,
                    "velocity": 0.4566929133858268,
                    "duration": 0.09375
                },
                {
                    "name": "B4",
                    "midi": 71,
                    "time": 197.53124999999983,
                    "velocity": 0.4566929133858268,
                    "duration": 0.09375
                },
                {
                    "name": "C5",
                    "midi": 72,
                    "time": 197.62499999999983,
                    "velocity": 0.4409448818897638,
                    "duration": 0.09375
                },
                {
                    "name": "B4",
                    "midi": 71,
                    "time": 197.71874999999983,
                    "velocity": 0.4409448818897638,
                    "duration": 0.09375
                },
                {
                    "name": "F4",
                    "midi": 65,
                    "time": 197.81249999999983,
                    "velocity": 0.5118110236220472,
                    "duration": 0.375
                },
                {
                    "name": "C5",
                    "midi": 72,
                    "time": 197.90624999999983,
                    "velocity": 0.4645669291338583,
                    "duration": 0.09375
                },
                {
                    "name": "B4",
                    "midi": 71,
                    "time": 197.99999999999983,
                    "velocity": 0.4645669291338583,
                    "duration": 0.09375
                },
                {
                    "name": "C5",
                    "midi": 72,
                    "time": 198.09374999999983,
                    "velocity": 0.4645669291338583,
                    "duration": 0.09375
                },
                {
                    "name": "D5",
                    "midi": 74,
                    "time": 198.18749999999983,
                    "velocity": 0.4409448818897638,
                    "duration": 0.09375
                },
                {
                    "name": "C5",
                    "midi": 72,
                    "time": 198.28124999999983,
                    "velocity": 0.4409448818897638,
                    "duration": 0.09375
                },
                {
                    "name": "A4",
                    "midi": 69,
                    "time": 198.37499999999983,
                    "velocity": 0.5118110236220472,
                    "duration": 0.375
                },
                {
                    "name": "D5",
                    "midi": 74,
                    "time": 198.46874999999983,
                    "velocity": 0.47244094488188976,
                    "duration": 0.09375
                },
                {
                    "name": "C#5",
                    "midi": 73,
                    "time": 198.56249999999983,
                    "velocity": 0.47244094488188976,
                    "duration": 0.09375
                },
                {
                    "name": "D5",
                    "midi": 74,
                    "time": 198.65624999999983,
                    "velocity": 0.47244094488188976,
                    "duration": 0.09375
                },
                {
                    "name": "E5",
                    "midi": 76,
                    "time": 198.74999999999983,
                    "velocity": 0.4566929133858268,
                    "duration": 0.09375
                },
                {
                    "name": "D5",
                    "midi": 74,
                    "time": 198.84374999999983,
                    "velocity": 0.4566929133858268,
                    "duration": 0.09375
                },
                {
                    "name": "D5",
                    "midi": 74,
                    "time": 198.93749999999983,
                    "velocity": 0.5196850393700787,
                    "duration": 0.375
                },
                {
                    "name": "G5",
                    "midi": 79,
                    "time": 199.03124999999983,
                    "velocity": 0.48031496062992124,
                    "duration": 0.09375
                },
                {
                    "name": "F#5",
                    "midi": 78,
                    "time": 199.12499999999983,
                    "velocity": 0.48031496062992124,
                    "duration": 0.09375
                },
                {
                    "name": "G5",
                    "midi": 79,
                    "time": 199.21874999999983,
                    "velocity": 0.48031496062992124,
                    "duration": 0.09375
                },
                {
                    "name": "A5",
                    "midi": 81,
                    "time": 199.31249999999983,
                    "velocity": 0.4645669291338583,
                    "duration": 0.09375
                },
                {
                    "name": "G5",
                    "midi": 79,
                    "time": 199.40624999999983,
                    "velocity": 0.47244094488188976,
                    "duration": 0.09375
                },
                {
                    "name": "G5",
                    "midi": 79,
                    "time": 199.49999999999983,
                    "velocity": 0.5433070866141733,
                    "duration": 0.375
                },
                {
                    "name": "C6",
                    "midi": 84,
                    "time": 199.59374999999983,
                    "velocity": 0.49606299212598426,
                    "duration": 0.09375
                },
                {
                    "name": "B5",
                    "midi": 83,
                    "time": 199.68749999999983,
                    "velocity": 0.49606299212598426,
                    "duration": 0.09375
                },
                {
                    "name": "C6",
                    "midi": 84,
                    "time": 199.78124999999983,
                    "velocity": 0.49606299212598426,
                    "duration": 0.09375
                },
                {
                    "name": "D6",
                    "midi": 86,
                    "time": 199.87499999999983,
                    "velocity": 0.48031496062992124,
                    "duration": 0.09375
                },
                {
                    "name": "C6",
                    "midi": 84,
                    "time": 199.96874999999983,
                    "velocity": 0.48031496062992124,
                    "duration": 0.09375
                },
                {
                    "name": "C6",
                    "midi": 84,
                    "time": 200.06249999999983,
                    "velocity": 0.5511811023622047,
                    "duration": 0.375
                },
                {
                    "name": "F6",
                    "midi": 89,
                    "time": 200.15624999999983,
                    "velocity": 0.49606299212598426,
                    "duration": 0.09375
                },
                {
                    "name": "E6",
                    "midi": 88,
                    "time": 200.24999999999983,
                    "velocity": 0.49606299212598426,
                    "duration": 0.09375
                },
                {
                    "name": "F6",
                    "midi": 89,
                    "time": 200.34374999999983,
                    "velocity": 0.4645669291338583,
                    "duration": 0.09375
                },
                {
                    "name": "G6",
                    "midi": 91,
                    "time": 200.43749999999983,
                    "velocity": 0.48031496062992124,
                    "duration": 0.09375
                },
                {
                    "name": "F6",
                    "midi": 89,
                    "time": 200.53124999999983,
                    "velocity": 0.48031496062992124,
                    "duration": 0.09375
                },
                {
                    "name": "D6",
                    "midi": 86,
                    "time": 200.62499999999983,
                    "velocity": 0.5118110236220472,
                    "duration": 0.09375
                },
                {
                    "name": "C#6",
                    "midi": 85,
                    "time": 200.71874999999983,
                    "velocity": 0.47244094488188976,
                    "duration": 0.09375
                },
                {
                    "name": "E6",
                    "midi": 88,
                    "time": 200.81249999999983,
                    "velocity": 0.5196850393700787,
                    "duration": 0.09375
                },
                {
                    "name": "D6",
                    "midi": 86,
                    "time": 200.90624999999983,
                    "velocity": 0.49606299212598426,
                    "duration": 0.09375
                },
                {
                    "name": "G5",
                    "midi": 79,
                    "time": 200.99999999999983,
                    "velocity": 0.5669291338582677,
                    "duration": 0.1875
                },
                {
                    "name": "E6",
                    "midi": 88,
                    "time": 201.18749999999983,
                    "velocity": 0.5905511811023622,
                    "duration": 0.375
                },
                {
                    "name": "A6",
                    "midi": 93,
                    "time": 201.28124999999983,
                    "velocity": 0.5354330708661418,
                    "duration": 0.09375
                },
                {
                    "name": "G#6",
                    "midi": 92,
                    "time": 201.37499999999983,
                    "velocity": 0.5433070866141733,
                    "duration": 0.09375
                },
                {
                    "name": "A6",
                    "midi": 93,
                    "time": 201.46874999999983,
                    "velocity": 0.49606299212598426,
                    "duration": 0.09375
                },
                {
                    "name": "A#6",
                    "midi": 94,
                    "time": 201.56249999999983,
                    "velocity": 0.5039370078740157,
                    "duration": 0.09375
                },
                {
                    "name": "A6",
                    "midi": 93,
                    "time": 201.65624999999983,
                    "velocity": 0.5039370078740157,
                    "duration": 0.09375
                },
                {
                    "name": "F6",
                    "midi": 89,
                    "time": 201.74999999999983,
                    "velocity": 0.5590551181102362,
                    "duration": 0.09375
                },
                {
                    "name": "E6",
                    "midi": 88,
                    "time": 201.84374999999983,
                    "velocity": 0.5039370078740157,
                    "duration": 0.09375
                },
                {
                    "name": "G6",
                    "midi": 91,
                    "time": 201.93749999999983,
                    "velocity": 0.5669291338582677,
                    "duration": 0.09375
                },
                {
                    "name": "F6",
                    "midi": 89,
                    "time": 202.03124999999983,
                    "velocity": 0.5196850393700787,
                    "duration": 0.09375
                },
                {
                    "name": "D6",
                    "midi": 86,
                    "time": 202.12499999999983,
                    "velocity": 0.6062992125984252,
                    "duration": 0.1875
                },
                {
                    "name": "G6",
                    "midi": 91,
                    "time": 202.31249999999983,
                    "velocity": 0.6220472440944882,
                    "duration": 0.375
                },
                {
                    "name": "C7",
                    "midi": 96,
                    "time": 202.40624999999983,
                    "velocity": 0.5590551181102362,
                    "duration": 0.09375
                },
                {
                    "name": "B6",
                    "midi": 95,
                    "time": 202.49999999999983,
                    "velocity": 0.5748031496062992,
                    "duration": 0.09375
                },
                {
                    "name": "C7",
                    "midi": 96,
                    "time": 202.59374999999983,
                    "velocity": 0.5275590551181102,
                    "duration": 0.09375
                },
                {
                    "name": "D7",
                    "midi": 98,
                    "time": 202.68749999999983,
                    "velocity": 0.5275590551181102,
                    "duration": 0.09375
                },
                {
                    "name": "C7",
                    "midi": 96,
                    "time": 202.78124999999983,
                    "velocity": 0.5433070866141733,
                    "duration": 0.09375
                },
                {
                    "name": "A6",
                    "midi": 93,
                    "time": 202.87499999999983,
                    "velocity": 0.5826771653543307,
                    "duration": 0.09375
                },
                {
                    "name": "G#6",
                    "midi": 92,
                    "time": 202.96874999999983,
                    "velocity": 0.5354330708661418,
                    "duration": 0.09375
                },
                {
                    "name": "A#6",
                    "midi": 94,
                    "time": 203.06249999999983,
                    "velocity": 0.5905511811023622,
                    "duration": 0.09375
                },
                {
                    "name": "A6",
                    "midi": 93,
                    "time": 203.15624999999983,
                    "velocity": 0.5354330708661418,
                    "duration": 0.09375
                },
                {
                    "name": "F6",
                    "midi": 89,
                    "time": 203.24999999999983,
                    "velocity": 0.6062992125984252,
                    "duration": 0.1875
                },
                {
                    "name": "A6",
                    "midi": 93,
                    "time": 203.43749999999983,
                    "velocity": 0.6535433070866141,
                    "duration": 0.375
                },
                {
                    "name": "D7",
                    "midi": 98,
                    "time": 203.53124999999983,
                    "velocity": 0.5984251968503937,
                    "duration": 0.09375
                },
                {
                    "name": "C#7",
                    "midi": 97,
                    "time": 203.62499999999983,
                    "velocity": 0.5984251968503937,
                    "duration": 0.09375
                },
                {
                    "name": "D7",
                    "midi": 98,
                    "time": 203.71874999999983,
                    "velocity": 0.5511811023622047,
                    "duration": 0.09375
                },
                {
                    "name": "D#7",
                    "midi": 99,
                    "time": 203.81249999999983,
                    "velocity": 0.5511811023622047,
                    "duration": 0.09375
                },
                {
                    "name": "D7",
                    "midi": 98,
                    "time": 203.90624999999983,
                    "velocity": 0.5511811023622047,
                    "duration": 0.09375
                },
                {
                    "name": "A#6",
                    "midi": 94,
                    "time": 203.99999999999983,
                    "velocity": 0.5984251968503937,
                    "duration": 0.09375
                },
                {
                    "name": "A6",
                    "midi": 93,
                    "time": 204.09374999999983,
                    "velocity": 0.5433070866141733,
                    "duration": 0.09375
                },
                {
                    "name": "C7",
                    "midi": 96,
                    "time": 204.18749999999983,
                    "velocity": 0.5984251968503937,
                    "duration": 0.09375
                },
                {
                    "name": "A#6",
                    "midi": 94,
                    "time": 204.28124999999983,
                    "velocity": 0.5433070866141733,
                    "duration": 0.09375
                },
                {
                    "name": "G6",
                    "midi": 91,
                    "time": 204.37499999999983,
                    "velocity": 0.6299212598425197,
                    "duration": 0.1875
                },
                {
                    "name": "A#6",
                    "midi": 94,
                    "time": 204.56249999999983,
                    "velocity": 0.3937007874015748,
                    "duration": 0.09375
                },
                {
                    "name": "E7",
                    "midi": 100,
                    "time": 204.65624999999983,
                    "velocity": 0.3543307086614173,
                    "duration": 0.09375
                },
                {
                    "name": "G6",
                    "midi": 91,
                    "time": 204.74999999999983,
                    "velocity": 0.3543307086614173,
                    "duration": 0.09375
                },
                {
                    "name": "A#6",
                    "midi": 94,
                    "time": 204.84374999999983,
                    "velocity": 0.33070866141732286,
                    "duration": 0.0234375
                },
                {
                    "name": "C7",
                    "midi": 96,
                    "time": 204.86718749999983,
                    "velocity": 0.33070866141732286,
                    "duration": 0.0234375
                },
                {
                    "name": "A#6",
                    "midi": 94,
                    "time": 204.89062499999983,
                    "velocity": 0.3543307086614173,
                    "duration": 0.046875
                },
                {
                    "name": "A6",
                    "midi": 93,
                    "time": 204.93749999999983,
                    "velocity": 0.3779527559055118,
                    "duration": 0.09375
                },
                {
                    "name": "G6",
                    "midi": 91,
                    "time": 205.03124999999983,
                    "velocity": 0.3543307086614173,
                    "duration": 0.09375
                },
                {
                    "name": "F#6",
                    "midi": 90,
                    "time": 205.12499999999983,
                    "velocity": 0.3937007874015748,
                    "duration": 0.09375
                },
                {
                    "name": "C7",
                    "midi": 96,
                    "time": 205.21874999999983,
                    "velocity": 0.3543307086614173,
                    "duration": 0.09375
                },
                {
                    "name": "C6",
                    "midi": 84,
                    "time": 205.31249999999983,
                    "velocity": 0.3543307086614173,
                    "duration": 0.09375
                },
                {
                    "name": "D#6",
                    "midi": 87,
                    "time": 205.40624999999983,
                    "velocity": 0.31496062992125984,
                    "duration": 0.0234375
                },
                {
                    "name": "F6",
                    "midi": 89,
                    "time": 205.42968749999983,
                    "velocity": 0.31496062992125984,
                    "duration": 0.0234375
                },
                {
                    "name": "D#6",
                    "midi": 87,
                    "time": 205.45312499999983,
                    "velocity": 0.3543307086614173,
                    "duration": 0.046875
                },
                {
                    "name": "D6",
                    "midi": 86,
                    "time": 205.49999999999983,
                    "velocity": 0.3543307086614173,
                    "duration": 0.09375
                },
                {
                    "name": "C6",
                    "midi": 84,
                    "time": 205.59374999999983,
                    "velocity": 0.3543307086614173,
                    "duration": 0.09375
                },
                {
                    "name": "B5",
                    "midi": 83,
                    "time": 205.68749999999983,
                    "velocity": 0.3858267716535433,
                    "duration": 0.09375
                },
                {
                    "name": "F6",
                    "midi": 89,
                    "time": 205.78124999999983,
                    "velocity": 0.3543307086614173,
                    "duration": 0.09375
                },
                {
                    "name": "F5",
                    "midi": 77,
                    "time": 205.87499999999983,
                    "velocity": 0.3543307086614173,
                    "duration": 0.09375
                },
                {
                    "name": "G#5",
                    "midi": 80,
                    "time": 205.96874999999983,
                    "velocity": 0.30708661417322836,
                    "duration": 0.0234375
                },
                {
                    "name": "A#5",
                    "midi": 82,
                    "time": 205.99218749999983,
                    "velocity": 0.30708661417322836,
                    "duration": 0.0234375
                },
                {
                    "name": "G#5",
                    "midi": 80,
                    "time": 206.01562499999983,
                    "velocity": 0.33070866141732286,
                    "duration": 0.046875
                },
                {
                    "name": "G5",
                    "midi": 79,
                    "time": 206.06249999999983,
                    "velocity": 0.3858267716535433,
                    "duration": 0.09375
                },
                {
                    "name": "F5",
                    "midi": 77,
                    "time": 206.15624999999983,
                    "velocity": 0.3543307086614173,
                    "duration": 0.09375
                },
                {
                    "name": "E5",
                    "midi": 76,
                    "time": 206.24999999999983,
                    "velocity": 0.4015748031496063,
                    "duration": 0.09375
                },
                {
                    "name": "A#5",
                    "midi": 82,
                    "time": 206.34374999999983,
                    "velocity": 0.3543307086614173,
                    "duration": 0.09375
                },
                {
                    "name": "D5",
                    "midi": 74,
                    "time": 206.43749999999983,
                    "velocity": 0.3543307086614173,
                    "duration": 0.09375
                },
                {
                    "name": "C#5",
                    "midi": 73,
                    "time": 206.53124999999983,
                    "velocity": 0.30708661417322836,
                    "duration": 0.0234375
                },
                {
                    "name": "D#5",
                    "midi": 75,
                    "time": 206.55468749999983,
                    "velocity": 0.30708661417322836,
                    "duration": 0.0234375
                },
                {
                    "name": "C#5",
                    "midi": 73,
                    "time": 206.57812499999983,
                    "velocity": 0.33858267716535434,
                    "duration": 0.046875
                },
                {
                    "name": "C5",
                    "midi": 72,
                    "time": 206.62499999999983,
                    "velocity": 0.3543307086614173,
                    "duration": 0.09375
                },
                {
                    "name": "A#4",
                    "midi": 70,
                    "time": 206.71874999999983,
                    "velocity": 0.3543307086614173,
                    "duration": 0.1875
                },
                {
                    "name": "A4",
                    "midi": 69,
                    "time": 206.90624999999983,
                    "velocity": 0.3228346456692913,
                    "duration": 0.09375
                },
                {
                    "name": "C5",
                    "midi": 72,
                    "time": 206.99999999999983,
                    "velocity": 0.33858267716535434,
                    "duration": 0.09375
                },
                {
                    "name": "E5",
                    "midi": 76,
                    "time": 207.09374999999983,
                    "velocity": 0.3543307086614173,
                    "duration": 0.09375
                },
                {
                    "name": "F5",
                    "midi": 77,
                    "time": 207.18749999999983,
                    "velocity": 0.3700787401574803,
                    "duration": 0.09375
                },
                {
                    "name": "A5",
                    "midi": 81,
                    "time": 207.28124999999983,
                    "velocity": 0.3858267716535433,
                    "duration": 0.09375
                },
                {
                    "name": "C6",
                    "midi": 84,
                    "time": 207.37499999999983,
                    "velocity": 0.4015748031496063,
                    "duration": 0.09375
                },
                {
                    "name": "E6",
                    "midi": 88,
                    "time": 207.46874999999983,
                    "velocity": 0.4094488188976378,
                    "duration": 0.09375
                },
                {
                    "name": "F6",
                    "midi": 89,
                    "time": 207.56249999999983,
                    "velocity": 0.4251968503937008,
                    "duration": 0.09375
                },
                {
                    "name": "A6",
                    "midi": 93,
                    "time": 207.65624999999983,
                    "velocity": 0.4409448818897638,
                    "duration": 0.09375
                },
                {
                    "name": "C7",
                    "midi": 96,
                    "time": 207.74999999999983,
                    "velocity": 0.4566929133858268,
                    "duration": 0.09375
                },
                {
                    "name": "E7",
                    "midi": 100,
                    "time": 207.84374999999983,
                    "velocity": 0.47244094488188976,
                    "duration": 0.09375
                },
                {
                    "name": "F7",
                    "midi": 101,
                    "time": 207.93749999999983,
                    "velocity": 0.47244094488188976,
                    "duration": 0.09375
                },
                {
                    "name": "E7",
                    "midi": 100,
                    "time": 208.03124999999983,
                    "velocity": 0.47244094488188976,
                    "duration": 0.09375
                },
                {
                    "name": "D#7",
                    "midi": 99,
                    "time": 208.12499999999983,
                    "velocity": 0.4645669291338583,
                    "duration": 0.09375
                },
                {
                    "name": "D7",
                    "midi": 98,
                    "time": 208.21874999999983,
                    "velocity": 0.4645669291338583,
                    "duration": 0.09375
                },
                {
                    "name": "C#7",
                    "midi": 97,
                    "time": 208.31249999999983,
                    "velocity": 0.4566929133858268,
                    "duration": 0.09375
                },
                {
                    "name": "C7",
                    "midi": 96,
                    "time": 208.40624999999983,
                    "velocity": 0.4566929133858268,
                    "duration": 0.09375
                },
                {
                    "name": "B6",
                    "midi": 95,
                    "time": 208.49999999999983,
                    "velocity": 0.44881889763779526,
                    "duration": 0.09375
                },
                {
                    "name": "A#6",
                    "midi": 94,
                    "time": 208.59374999999983,
                    "velocity": 0.44881889763779526,
                    "duration": 0.09375
                },
                {
                    "name": "A6",
                    "midi": 93,
                    "time": 208.68749999999983,
                    "velocity": 0.4409448818897638,
                    "duration": 0.09375
                },
                {
                    "name": "G#6",
                    "midi": 92,
                    "time": 208.78124999999983,
                    "velocity": 0.4330708661417323,
                    "duration": 0.09375
                },
                {
                    "name": "G6",
                    "midi": 91,
                    "time": 208.87499999999983,
                    "velocity": 0.4330708661417323,
                    "duration": 0.09375
                },
                {
                    "name": "F#6",
                    "midi": 90,
                    "time": 208.96874999999983,
                    "velocity": 0.4251968503937008,
                    "duration": 0.09375
                },
                {
                    "name": "F6",
                    "midi": 89,
                    "time": 209.06249999999983,
                    "velocity": 0.4094488188976378,
                    "duration": 0.09375
                },
                {
                    "name": "A6",
                    "midi": 93,
                    "time": 209.15624999999983,
                    "velocity": 0.4015748031496063,
                    "duration": 0.09375
                },
                {
                    "name": "G#6",
                    "midi": 92,
                    "time": 209.24999999999983,
                    "velocity": 0.3937007874015748,
                    "duration": 0.09375
                },
                {
                    "name": "G6",
                    "midi": 91,
                    "time": 209.34374999999983,
                    "velocity": 0.3858267716535433,
                    "duration": 0.09375
                },
                {
                    "name": "F#6",
                    "midi": 90,
                    "time": 209.43749999999983,
                    "velocity": 0.3779527559055118,
                    "duration": 0.09375
                },
                {
                    "name": "F6",
                    "midi": 89,
                    "time": 209.53124999999983,
                    "velocity": 0.3700787401574803,
                    "duration": 0.09375
                },
                {
                    "name": "E6",
                    "midi": 88,
                    "time": 209.62499999999983,
                    "velocity": 0.36220472440944884,
                    "duration": 0.09375
                },
                {
                    "name": "D#6",
                    "midi": 87,
                    "time": 209.71874999999983,
                    "velocity": 0.36220472440944884,
                    "duration": 0.09375
                },
                {
                    "name": "D6",
                    "midi": 86,
                    "time": 209.81249999999983,
                    "velocity": 0.3543307086614173,
                    "duration": 0.09375
                },
                {
                    "name": "C#6",
                    "midi": 85,
                    "time": 209.90624999999983,
                    "velocity": 0.3464566929133858,
                    "duration": 0.09375
                },
                {
                    "name": "C6",
                    "midi": 84,
                    "time": 209.99999999999983,
                    "velocity": 0.33858267716535434,
                    "duration": 0.09375
                },
                {
                    "name": "B5",
                    "midi": 83,
                    "time": 210.09374999999983,
                    "velocity": 0.33070866141732286,
                    "duration": 0.09375
                },
                {
                    "name": "A#5",
                    "midi": 82,
                    "time": 210.18749999999983,
                    "velocity": 0.36220472440944884,
                    "duration": 0.09375
                },
                {
                    "name": "E6",
                    "midi": 88,
                    "time": 210.28124999999983,
                    "velocity": 0.31496062992125984,
                    "duration": 0.09375
                },
                {
                    "name": "D#6",
                    "midi": 87,
                    "time": 210.37499999999983,
                    "velocity": 0.30708661417322836,
                    "duration": 0.09375
                },
                {
                    "name": "D6",
                    "midi": 86,
                    "time": 210.46874999999983,
                    "velocity": 0.30708661417322836,
                    "duration": 0.09375
                },
                {
                    "name": "C#6",
                    "midi": 85,
                    "time": 210.56249999999983,
                    "velocity": 0.30708661417322836,
                    "duration": 0.09375
                },
                {
                    "name": "C6",
                    "midi": 84,
                    "time": 210.65624999999983,
                    "velocity": 0.2992125984251969,
                    "duration": 0.09375
                },
                {
                    "name": "B5",
                    "midi": 83,
                    "time": 210.74999999999983,
                    "velocity": 0.2992125984251969,
                    "duration": 0.09375
                },
                {
                    "name": "A#5",
                    "midi": 82,
                    "time": 210.84374999999983,
                    "velocity": 0.29133858267716534,
                    "duration": 0.09375
                },
                {
                    "name": "A5",
                    "midi": 81,
                    "time": 210.93749999999983,
                    "velocity": 0.29133858267716534,
                    "duration": 0.09375
                },
                {
                    "name": "G#5",
                    "midi": 80,
                    "time": 211.03124999999983,
                    "velocity": 0.29133858267716534,
                    "duration": 0.09375
                },
                {
                    "name": "G5",
                    "midi": 79,
                    "time": 211.12499999999983,
                    "velocity": 0.28346456692913385,
                    "duration": 0.09375
                },
                {
                    "name": "F#5",
                    "midi": 78,
                    "time": 211.21874999999983,
                    "velocity": 0.28346456692913385,
                    "duration": 0.09375
                },
                {
                    "name": "F5",
                    "midi": 77,
                    "time": 211.31249999999983,
                    "velocity": 0.3543307086614173,
                    "duration": 0.09375
                },
                {
                    "name": "A4",
                    "midi": 69,
                    "time": 212.24999999999983,
                    "velocity": 0.3700787401574803,
                    "duration": 0.1875
                },
                {
                    "name": "A5",
                    "midi": 81,
                    "time": 212.34374999999983,
                    "velocity": 0.3464566929133858,
                    "duration": 0.09375
                },
                {
                    "name": "A#4",
                    "midi": 70,
                    "time": 212.43749999999983,
                    "velocity": 0.3858267716535433,
                    "duration": 0.1875
                },
                {
                    "name": "A#5",
                    "midi": 82,
                    "time": 212.53124999999983,
                    "velocity": 0.3543307086614173,
                    "duration": 0.09375
                },
                {
                    "name": "B4",
                    "midi": 71,
                    "time": 212.62499999999983,
                    "velocity": 0.4015748031496063,
                    "duration": 0.1875
                },
                {
                    "name": "B5",
                    "midi": 83,
                    "time": 212.71874999999983,
                    "velocity": 0.3779527559055118,
                    "duration": 0.09375
                },
                {
                    "name": "C5",
                    "midi": 72,
                    "time": 212.81249999999983,
                    "velocity": 0.4251968503937008,
                    "duration": 0.1875
                },
                {
                    "name": "C6",
                    "midi": 84,
                    "time": 212.90624999999983,
                    "velocity": 0.3937007874015748,
                    "duration": 0.09375
                },
                {
                    "name": "D5",
                    "midi": 74,
                    "time": 212.99999999999983,
                    "velocity": 0.4409448818897638,
                    "duration": 0.1875
                },
                {
                    "name": "D6",
                    "midi": 86,
                    "time": 213.09374999999983,
                    "velocity": 0.4015748031496063,
                    "duration": 0.09375
                },
                {
                    "name": "E5",
                    "midi": 76,
                    "time": 213.18749999999983,
                    "velocity": 0.4566929133858268,
                    "duration": 0.1875
                },
                {
                    "name": "E6",
                    "midi": 88,
                    "time": 213.28124999999983,
                    "velocity": 0.4251968503937008,
                    "duration": 0.09375
                },
                {
                    "name": "F5",
                    "midi": 77,
                    "time": 213.37499999999983,
                    "velocity": 0.47244094488188976,
                    "duration": 0.1875
                },
                {
                    "name": "F6",
                    "midi": 89,
                    "time": 213.46874999999983,
                    "velocity": 0.4409448818897638,
                    "duration": 0.046875
                },
                {
                    "name": "G5",
                    "midi": 79,
                    "time": 213.51562499999983,
                    "velocity": 0.44881889763779526,
                    "duration": 0.046875
                },
                {
                    "name": "G6",
                    "midi": 91,
                    "time": 213.56249999999983,
                    "velocity": 0.49606299212598426,
                    "duration": 0.1875
                },
                {
                    "name": "A4",
                    "midi": 69,
                    "time": 214.12499999999983,
                    "velocity": 0.4251968503937008,
                    "duration": 0.1875
                },
                {
                    "name": "A5",
                    "midi": 81,
                    "time": 214.21874999999983,
                    "velocity": 0.3858267716535433,
                    "duration": 0.09375
                },
                {
                    "name": "A#4",
                    "midi": 70,
                    "time": 214.31249999999983,
                    "velocity": 0.4330708661417323,
                    "duration": 0.1875
                },
                {
                    "name": "A#5",
                    "midi": 82,
                    "time": 214.40624999999983,
                    "velocity": 0.4015748031496063,
                    "duration": 0.09375
                },
                {
                    "name": "B4",
                    "midi": 71,
                    "time": 214.49999999999983,
                    "velocity": 0.44881889763779526,
                    "duration": 0.1875
                },
                {
                    "name": "B5",
                    "midi": 83,
                    "time": 214.59374999999983,
                    "velocity": 0.4094488188976378,
                    "duration": 0.09375
                },
                {
                    "name": "C5",
                    "midi": 72,
                    "time": 214.68749999999983,
                    "velocity": 0.4566929133858268,
                    "duration": 0.1875
                },
                {
                    "name": "C6",
                    "midi": 84,
                    "time": 214.78124999999983,
                    "velocity": 0.4094488188976378,
                    "duration": 0.09375
                },
                {
                    "name": "D5",
                    "midi": 74,
                    "time": 214.87499999999983,
                    "velocity": 0.47244094488188976,
                    "duration": 0.1875
                },
                {
                    "name": "D6",
                    "midi": 86,
                    "time": 214.96874999999983,
                    "velocity": 0.41732283464566927,
                    "duration": 0.09375
                },
                {
                    "name": "E5",
                    "midi": 76,
                    "time": 215.06249999999983,
                    "velocity": 0.4881889763779528,
                    "duration": 0.1875
                },
                {
                    "name": "E6",
                    "midi": 88,
                    "time": 215.15624999999983,
                    "velocity": 0.4330708661417323,
                    "duration": 0.09375
                },
                {
                    "name": "F5",
                    "midi": 77,
                    "time": 215.24999999999983,
                    "velocity": 0.49606299212598426,
                    "duration": 0.1875
                },
                {
                    "name": "F6",
                    "midi": 89,
                    "time": 215.34374999999983,
                    "velocity": 0.4330708661417323,
                    "duration": 0.09375
                },
                {
                    "name": "G5",
                    "midi": 79,
                    "time": 215.43749999999983,
                    "velocity": 0.5118110236220472,
                    "duration": 0.1875
                },
                {
                    "name": "G6",
                    "midi": 91,
                    "time": 215.53124999999983,
                    "velocity": 0.4409448818897638,
                    "duration": 0.09375
                },
                {
                    "name": "G#5",
                    "midi": 80,
                    "time": 215.62499999999983,
                    "velocity": 0.5196850393700787,
                    "duration": 0.1875
                },
                {
                    "name": "G#6",
                    "midi": 92,
                    "time": 215.71874999999983,
                    "velocity": 0.4251968503937008,
                    "duration": 0.046875
                },
                {
                    "name": "A5",
                    "midi": 81,
                    "time": 215.76562499999983,
                    "velocity": 0.4251968503937008,
                    "duration": 0.046875
                },
                {
                    "name": "A6",
                    "midi": 93,
                    "time": 215.81249999999983,
                    "velocity": 0.5354330708661418,
                    "duration": 0.09375
                },
                {
                    "name": "A5",
                    "midi": 81,
                    "time": 216.37499999999983,
                    "velocity": 0.5196850393700787,
                    "duration": 0.1875
                },
                {
                    "name": "A6",
                    "midi": 93,
                    "time": 216.46874999999983,
                    "velocity": 0.49606299212598426,
                    "duration": 0.09375
                },
                {
                    "name": "B5",
                    "midi": 83,
                    "time": 216.56249999999983,
                    "velocity": 0.5354330708661418,
                    "duration": 0.1875
                },
                {
                    "name": "B6",
                    "midi": 95,
                    "time": 216.65624999999983,
                    "velocity": 0.5196850393700787,
                    "duration": 0.09375
                },
                {
                    "name": "C#6",
                    "midi": 85,
                    "time": 216.74999999999983,
                    "velocity": 0.5590551181102362,
                    "duration": 0.1875
                },
                {
                    "name": "C#7",
                    "midi": 97,
                    "time": 216.84374999999983,
                    "velocity": 0.5433070866141733,
                    "duration": 0.046875
                },
                {
                    "name": "D6",
                    "midi": 86,
                    "time": 216.89062499999983,
                    "velocity": 0.5433070866141733,
                    "duration": 0.375
                },
                {
                    "name": "D7",
                    "midi": 98,
                    "time": 216.93749999999983,
                    "velocity": 0.5826771653543307,
                    "duration": 0.328125
                },
                {
                    "name": "E6",
                    "midi": 88,
                    "time": 217.26562499999983,
                    "velocity": 0.5590551181102362,
                    "duration": 0.1875
                },
                {
                    "name": "E7",
                    "midi": 100,
                    "time": 217.31249999999983,
                    "velocity": 0.5984251968503937,
                    "duration": 0.140625
                },
                {
                    "name": "F6",
                    "midi": 89,
                    "time": 217.45312499999983,
                    "velocity": 0.5590551181102362,
                    "duration": 0.5625
                },
                {
                    "name": "F7",
                    "midi": 101,
                    "time": 217.49999999999983,
                    "velocity": 0.5984251968503937,
                    "duration": 0.515625
                },
                {
                    "name": "D6",
                    "midi": 86,
                    "time": 218.01562499999983,
                    "velocity": 0.5511811023622047,
                    "duration": 0.375
                },
                {
                    "name": "D7",
                    "midi": 98,
                    "time": 218.06249999999983,
                    "velocity": 0.6062992125984252,
                    "duration": 0.328125
                },
                {
                    "name": "E6",
                    "midi": 88,
                    "time": 218.39062499999983,
                    "velocity": 0.5748031496062992,
                    "duration": 0.1875
                },
                {
                    "name": "E7",
                    "midi": 100,
                    "time": 218.43749999999983,
                    "velocity": 0.6141732283464567,
                    "duration": 0.140625
                },
                {
                    "name": "F6",
                    "midi": 89,
                    "time": 218.57812499999983,
                    "velocity": 0.5590551181102362,
                    "duration": 0.625
                },
                {
                    "name": "F7",
                    "midi": 101,
                    "time": 218.62499999999983,
                    "velocity": 0.5984251968503937,
                    "duration": 0.5625
                },
                {
                    "name": "D6",
                    "midi": 86,
                    "time": 219.18749999999983,
                    "velocity": 0.6535433070866141,
                    "duration": 0.09375
                },
                {
                    "name": "D7",
                    "midi": 98,
                    "time": 219.28124999999983,
                    "velocity": 0.5984251968503937,
                    "duration": 0.09375
                },
                {
                    "name": "F6",
                    "midi": 89,
                    "time": 219.37499999999983,
                    "velocity": 0.5984251968503937,
                    "duration": 0.09375
                },
                {
                    "name": "A#6",
                    "midi": 94,
                    "time": 219.46874999999983,
                    "velocity": 0.5984251968503937,
                    "duration": 0.09375
                },
                {
                    "name": "G#6",
                    "midi": 92,
                    "time": 219.56249999999983,
                    "velocity": 0.5984251968503937,
                    "duration": 0.09375
                },
                {
                    "name": "F6",
                    "midi": 89,
                    "time": 219.65624999999983,
                    "velocity": 0.5984251968503937,
                    "duration": 0.09375
                },
                {
                    "name": "D6",
                    "midi": 86,
                    "time": 219.74999999999983,
                    "velocity": 0.6614173228346457,
                    "duration": 0.09375
                },
                {
                    "name": "A#5",
                    "midi": 82,
                    "time": 219.84374999999983,
                    "velocity": 0.6535433070866141,
                    "duration": 0.09375
                },
                {
                    "name": "G#5",
                    "midi": 80,
                    "time": 219.93749999999983,
                    "velocity": 0.6377952755905512,
                    "duration": 0.09375
                },
                {
                    "name": "F5",
                    "midi": 77,
                    "time": 220.03124999999983,
                    "velocity": 0.6299212598425197,
                    "duration": 0.09375
                },
                {
                    "name": "D5",
                    "midi": 74,
                    "time": 220.12499999999983,
                    "velocity": 0.6220472440944882,
                    "duration": 0.09375
                },
                {
                    "name": "A#4",
                    "midi": 70,
                    "time": 220.21874999999983,
                    "velocity": 0.6062992125984252,
                    "duration": 0.09375
                },
                {
                    "name": "G#4",
                    "midi": 68,
                    "time": 220.31249999999983,
                    "velocity": 0.5984251968503937,
                    "duration": 0.09375
                },
                {
                    "name": "G#4",
                    "midi": 68,
                    "time": 220.87499999999983,
                    "velocity": 0.5905511811023622,
                    "duration": 0.5625
                },
                {
                    "name": "D4",
                    "midi": 62,
                    "time": 220.87499999999983,
                    "velocity": 0.4881889763779528,
                    "duration": 0.5625
                },
                {
                    "name": "E4",
                    "midi": 64,
                    "time": 220.87499999999983,
                    "velocity": 0.4881889763779528,
                    "duration": 0.5625
                },
                {
                    "name": "C#4",
                    "midi": 61,
                    "time": 221.43749999999983,
                    "velocity": 0.5118110236220472,
                    "duration": 0.109375
                },
                {
                    "name": "A4",
                    "midi": 69,
                    "time": 221.43749999999983,
                    "velocity": 0.5118110236220472,
                    "duration": 0.109375
                },
                {
                    "name": "D4",
                    "midi": 62,
                    "time": 221.53124999999983,
                    "velocity": 0.5196850393700787,
                    "duration": 0.109375
                },
                {
                    "name": "E4",
                    "midi": 64,
                    "time": 221.62499999999983,
                    "velocity": 0.5196850393700787,
                    "duration": 0.109375
                },
                {
                    "name": "F#4",
                    "midi": 66,
                    "time": 221.71874999999983,
                    "velocity": 0.5275590551181102,
                    "duration": 0.109375
                },
                {
                    "name": "G#4",
                    "midi": 68,
                    "time": 221.81249999999983,
                    "velocity": 0.5354330708661418,
                    "duration": 0.109375
                },
                {
                    "name": "A4",
                    "midi": 69,
                    "time": 221.90624999999983,
                    "velocity": 0.5433070866141733,
                    "duration": 0.109375
                },
                {
                    "name": "B4",
                    "midi": 71,
                    "time": 221.99999999999983,
                    "velocity": 0.5511811023622047,
                    "duration": 0.109375
                },
                {
                    "name": "C#5",
                    "midi": 73,
                    "time": 222.09374999999983,
                    "velocity": 0.5590551181102362,
                    "duration": 0.109375
                },
                {
                    "name": "D5",
                    "midi": 74,
                    "time": 222.18749999999983,
                    "velocity": 0.5669291338582677,
                    "duration": 0.109375
                },
                {
                    "name": "E5",
                    "midi": 76,
                    "time": 222.28124999999983,
                    "velocity": 0.5748031496062992,
                    "duration": 0.109375
                },
                {
                    "name": "F#5",
                    "midi": 78,
                    "time": 222.37499999999983,
                    "velocity": 0.5826771653543307,
                    "duration": 0.109375
                },
                {
                    "name": "G#5",
                    "midi": 80,
                    "time": 222.46874999999983,
                    "velocity": 0.5826771653543307,
                    "duration": 0.109375
                },
                {
                    "name": "A5",
                    "midi": 81,
                    "time": 222.56249999999983,
                    "velocity": 0.5905511811023622,
                    "duration": 0.109375
                },
                {
                    "name": "B5",
                    "midi": 83,
                    "time": 222.65624999999983,
                    "velocity": 0.5984251968503937,
                    "duration": 0.109375
                },
                {
                    "name": "C#6",
                    "midi": 85,
                    "time": 222.74999999999983,
                    "velocity": 0.6062992125984252,
                    "duration": 0.109375
                },
                {
                    "name": "D6",
                    "midi": 86,
                    "time": 222.84374999999983,
                    "velocity": 0.6141732283464567,
                    "duration": 0.109375
                },
                {
                    "name": "E6",
                    "midi": 88,
                    "time": 222.93749999999983,
                    "velocity": 0.6220472440944882,
                    "duration": 0.109375
                },
                {
                    "name": "F#6",
                    "midi": 90,
                    "time": 223.03124999999983,
                    "velocity": 0.6299212598425197,
                    "duration": 0.109375
                },
                {
                    "name": "G#6",
                    "midi": 92,
                    "time": 223.12499999999983,
                    "velocity": 0.6377952755905512,
                    "duration": 0.109375
                },
                {
                    "name": "A6",
                    "midi": 93,
                    "time": 223.21874999999983,
                    "velocity": 0.6377952755905512,
                    "duration": 0.109375
                },
                {
                    "name": "B6",
                    "midi": 95,
                    "time": 223.31249999999983,
                    "velocity": 0.6456692913385826,
                    "duration": 0.109375
                },
                {
                    "name": "C#7",
                    "midi": 97,
                    "time": 223.40624999999983,
                    "velocity": 0.6535433070866141,
                    "duration": 0.109375
                },
                {
                    "name": "D7",
                    "midi": 98,
                    "time": 223.49999999999983,
                    "velocity": 0.6614173228346457,
                    "duration": 0.109375
                },
                {
                    "name": "D#7",
                    "midi": 99,
                    "time": 223.59374999999983,
                    "velocity": 0.6692913385826772,
                    "duration": 0.109375
                },
                {
                    "name": "E7",
                    "midi": 100,
                    "time": 223.68749999999983,
                    "velocity": 0.7165354330708661,
                    "duration": 0.09375
                },
                {
                    "name": "C#7",
                    "midi": 97,
                    "time": 223.78124999999983,
                    "velocity": 0.6456692913385826,
                    "duration": 0.09375
                },
                {
                    "name": "A6",
                    "midi": 93,
                    "time": 223.87499999999983,
                    "velocity": 0.6456692913385826,
                    "duration": 0.09375
                },
                {
                    "name": "E6",
                    "midi": 88,
                    "time": 223.96874999999983,
                    "velocity": 0.6692913385826772,
                    "duration": 0.09375
                },
                {
                    "name": "D6",
                    "midi": 86,
                    "time": 224.06249999999983,
                    "velocity": 0.6377952755905512,
                    "duration": 0.09375
                },
                {
                    "name": "G#6",
                    "midi": 92,
                    "time": 224.15624999999983,
                    "velocity": 0.6456692913385826,
                    "duration": 0.09375
                },
                {
                    "name": "A6",
                    "midi": 93,
                    "time": 224.24999999999983,
                    "velocity": 0.7086614173228346,
                    "duration": 0.09375
                },
                {
                    "name": "E6",
                    "midi": 88,
                    "time": 224.34374999999983,
                    "velocity": 0.6692913385826772,
                    "duration": 0.09375
                },
                {
                    "name": "C#6",
                    "midi": 85,
                    "time": 224.43749999999983,
                    "velocity": 0.6377952755905512,
                    "duration": 0.09375
                },
                {
                    "name": "A5",
                    "midi": 81,
                    "time": 224.53124999999983,
                    "velocity": 0.6377952755905512,
                    "duration": 0.09375
                },
                {
                    "name": "G#5",
                    "midi": 80,
                    "time": 224.62499999999983,
                    "velocity": 0.6062992125984252,
                    "duration": 0.09375
                },
                {
                    "name": "D6",
                    "midi": 86,
                    "time": 224.71874999999983,
                    "velocity": 0.6062992125984252,
                    "duration": 0.09375
                },
                {
                    "name": "E6",
                    "midi": 88,
                    "time": 224.81249999999983,
                    "velocity": 0.6535433070866141,
                    "duration": 0.09375
                },
                {
                    "name": "C#6",
                    "midi": 85,
                    "time": 224.90624999999983,
                    "velocity": 0.5984251968503937,
                    "duration": 0.09375
                },
                {
                    "name": "A5",
                    "midi": 81,
                    "time": 224.99999999999983,
                    "velocity": 0.5984251968503937,
                    "duration": 0.09375
                },
                {
                    "name": "E5",
                    "midi": 76,
                    "time": 225.09374999999983,
                    "velocity": 0.5984251968503937,
                    "duration": 0.09375
                },
                {
                    "name": "D5",
                    "midi": 74,
                    "time": 225.18749999999983,
                    "velocity": 0.5669291338582677,
                    "duration": 0.09375
                },
                {
                    "name": "G#5",
                    "midi": 80,
                    "time": 225.28124999999983,
                    "velocity": 0.5748031496062992,
                    "duration": 0.09375
                },
                {
                    "name": "A5",
                    "midi": 81,
                    "time": 225.37499999999983,
                    "velocity": 0.6456692913385826,
                    "duration": 0.09375
                },
                {
                    "name": "E5",
                    "midi": 76,
                    "time": 225.46874999999983,
                    "velocity": 0.5984251968503937,
                    "duration": 0.09375
                },
                {
                    "name": "C#5",
                    "midi": 73,
                    "time": 225.56249999999983,
                    "velocity": 0.5984251968503937,
                    "duration": 0.09375
                },
                {
                    "name": "A4",
                    "midi": 69,
                    "time": 225.65624999999983,
                    "velocity": 0.5984251968503937,
                    "duration": 0.09375
                },
                {
                    "name": "G#4",
                    "midi": 68,
                    "time": 225.74999999999983,
                    "velocity": 0.5669291338582677,
                    "duration": 0.09375
                },
                {
                    "name": "D5",
                    "midi": 74,
                    "time": 225.84374999999983,
                    "velocity": 0.5669291338582677,
                    "duration": 0.09375
                },
                {
                    "name": "E5",
                    "midi": 76,
                    "time": 225.93749999999983,
                    "velocity": 0.5511811023622047,
                    "duration": 0.09375
                },
                {
                    "name": "C#5",
                    "midi": 73,
                    "time": 226.03124999999983,
                    "velocity": 0.49606299212598426,
                    "duration": 0.09375
                },
                {
                    "name": "A4",
                    "midi": 69,
                    "time": 226.12499999999983,
                    "velocity": 0.49606299212598426,
                    "duration": 0.09375
                },
                {
                    "name": "E4",
                    "midi": 64,
                    "time": 226.21874999999983,
                    "velocity": 0.4881889763779528,
                    "duration": 0.09375
                },
                {
                    "name": "D4",
                    "midi": 62,
                    "time": 226.31249999999983,
                    "velocity": 0.44881889763779526,
                    "duration": 0.09375
                },
                {
                    "name": "G#4",
                    "midi": 68,
                    "time": 226.40624999999983,
                    "velocity": 0.44881889763779526,
                    "duration": 0.09375
                },
                {
                    "name": "A4",
                    "midi": 69,
                    "time": 226.49999999999983,
                    "velocity": 0.49606299212598426,
                    "duration": 0.09375
                },
                {
                    "name": "E4",
                    "midi": 64,
                    "time": 226.59374999999983,
                    "velocity": 0.44881889763779526,
                    "duration": 0.09375
                },
                {
                    "name": "C#4",
                    "midi": 61,
                    "time": 226.68749999999983,
                    "velocity": 0.4330708661417323,
                    "duration": 0.09375
                },
                {
                    "name": "A3",
                    "midi": 57,
                    "time": 226.78124999999983,
                    "velocity": 0.41732283464566927,
                    "duration": 0.09375
                },
                {
                    "name": "G#3",
                    "midi": 56,
                    "time": 226.87499999999983,
                    "velocity": 0.3779527559055118,
                    "duration": 0.09375
                },
                {
                    "name": "D4",
                    "midi": 62,
                    "time": 226.96874999999983,
                    "velocity": 0.36220472440944884,
                    "duration": 0.09375
                },
                {
                    "name": "E4",
                    "midi": 64,
                    "time": 227.06249999999983,
                    "velocity": 0.3779527559055118,
                    "duration": 0.109375
                },
                {
                    "name": "C#4",
                    "midi": 61,
                    "time": 227.15624999999983,
                    "velocity": 0.4015748031496063,
                    "duration": 0.109375
                },
                {
                    "name": "A3",
                    "midi": 57,
                    "time": 227.24999999999983,
                    "velocity": 0.4251968503937008,
                    "duration": 0.109375
                },
                {
                    "name": "E3",
                    "midi": 52,
                    "time": 227.34374999999983,
                    "velocity": 0.4015748031496063,
                    "duration": 0.109375
                },
                {
                    "name": "G#3",
                    "midi": 56,
                    "time": 227.43749999999983,
                    "velocity": 0.3779527559055118,
                    "duration": 0.109375
                },
                {
                    "name": "D4",
                    "midi": 62,
                    "time": 227.53124999999983,
                    "velocity": 0.3779527559055118,
                    "duration": 0.109375
                },
                {
                    "name": "E4",
                    "midi": 64,
                    "time": 227.62499999999983,
                    "velocity": 0.3779527559055118,
                    "duration": 0.109375
                },
                {
                    "name": "C#4",
                    "midi": 61,
                    "time": 227.71874999999983,
                    "velocity": 0.4015748031496063,
                    "duration": 0.109375
                },
                {
                    "name": "A3",
                    "midi": 57,
                    "time": 227.81249999999983,
                    "velocity": 0.4251968503937008,
                    "duration": 0.109375
                },
                {
                    "name": "E3",
                    "midi": 52,
                    "time": 227.90624999999983,
                    "velocity": 0.4015748031496063,
                    "duration": 0.109375
                },
                {
                    "name": "G#3",
                    "midi": 56,
                    "time": 227.99999999999983,
                    "velocity": 0.3779527559055118,
                    "duration": 0.109375
                },
                {
                    "name": "D4",
                    "midi": 62,
                    "time": 228.09374999999983,
                    "velocity": 0.3700787401574803,
                    "duration": 0.109375
                },
                {
                    "name": "E4",
                    "midi": 64,
                    "time": 228.18749999999983,
                    "velocity": 0.28346456692913385,
                    "duration": 0.109375
                },
                {
                    "name": "C#4",
                    "midi": 61,
                    "time": 228.28124999999983,
                    "velocity": 0.2992125984251969,
                    "duration": 0.109375
                },
                {
                    "name": "A3",
                    "midi": 57,
                    "time": 228.37499999999983,
                    "velocity": 0.31496062992125984,
                    "duration": 0.109375
                },
                {
                    "name": "E3",
                    "midi": 52,
                    "time": 228.46874999999983,
                    "velocity": 0.2992125984251969,
                    "duration": 0.109375
                },
                {
                    "name": "G#3",
                    "midi": 56,
                    "time": 228.56249999999983,
                    "velocity": 0.2755905511811024,
                    "duration": 0.109375
                },
                {
                    "name": "D4",
                    "midi": 62,
                    "time": 228.65624999999983,
                    "velocity": 0.2755905511811024,
                    "duration": 0.109375
                },
                {
                    "name": "E4",
                    "midi": 64,
                    "time": 228.74999999999983,
                    "velocity": 0.28346456692913385,
                    "duration": 0.109375
                },
                {
                    "name": "C#4",
                    "midi": 61,
                    "time": 228.84374999999983,
                    "velocity": 0.2992125984251969,
                    "duration": 0.109375
                },
                {
                    "name": "A3",
                    "midi": 57,
                    "time": 228.93749999999983,
                    "velocity": 0.31496062992125984,
                    "duration": 0.109375
                },
                {
                    "name": "E3",
                    "midi": 52,
                    "time": 229.03124999999983,
                    "velocity": 0.2992125984251969,
                    "duration": 0.109375
                },
                {
                    "name": "G#3",
                    "midi": 56,
                    "time": 229.12499999999983,
                    "velocity": 0.2755905511811024,
                    "duration": 0.109375
                },
                {
                    "name": "D4",
                    "midi": 62,
                    "time": 229.21874999999983,
                    "velocity": 0.2755905511811024,
                    "duration": 0.109375
                },
                {
                    "name": "A3",
                    "midi": 57,
                    "time": 229.31249999999983,
                    "velocity": 0.28346456692913385,
                    "duration": 0.109375
                },
                {
                    "name": "E4",
                    "midi": 64,
                    "time": 229.31249999999983,
                    "velocity": 0.28346456692913385,
                    "duration": 0.109375
                },
                {
                    "name": "A#3",
                    "midi": 58,
                    "time": 229.40624999999983,
                    "velocity": 0.28346456692913385,
                    "duration": 0.109375
                },
                {
                    "name": "B3",
                    "midi": 59,
                    "time": 229.49999999999983,
                    "velocity": 0.28346456692913385,
                    "duration": 0.109375
                },
                {
                    "name": "C4",
                    "midi": 60,
                    "time": 229.59374999999983,
                    "velocity": 0.2755905511811024,
                    "duration": 0.109375
                },
                {
                    "name": "C#4",
                    "midi": 61,
                    "time": 229.68749999999983,
                    "velocity": 0.2755905511811024,
                    "duration": 0.109375
                },
                {
                    "name": "D4",
                    "midi": 62,
                    "time": 229.78124999999983,
                    "velocity": 0.2755905511811024,
                    "duration": 0.109375
                },
                {
                    "name": "D#4",
                    "midi": 63,
                    "time": 229.87499999999983,
                    "velocity": 0.2755905511811024,
                    "duration": 0.109375
                },
                {
                    "name": "E4",
                    "midi": 64,
                    "time": 229.96874999999983,
                    "velocity": 0.2677165354330709,
                    "duration": 0.109375
                },
                {
                    "name": "F4",
                    "midi": 65,
                    "time": 230.06249999999983,
                    "velocity": 0.2677165354330709,
                    "duration": 0.109375
                },
                {
                    "name": "F#4",
                    "midi": 66,
                    "time": 230.15624999999983,
                    "velocity": 0.2677165354330709,
                    "duration": 0.109375
                },
                {
                    "name": "G4",
                    "midi": 67,
                    "time": 230.24999999999983,
                    "velocity": 0.25984251968503935,
                    "duration": 0.109375
                },
                {
                    "name": "G#4",
                    "midi": 68,
                    "time": 230.34374999999983,
                    "velocity": 0.25984251968503935,
                    "duration": 0.109375
                },
                {
                    "name": "A4",
                    "midi": 69,
                    "time": 230.43749999999983,
                    "velocity": 0.25984251968503935,
                    "duration": 0.109375
                },
                {
                    "name": "G#4",
                    "midi": 68,
                    "time": 230.53124999999983,
                    "velocity": 0.2283464566929134,
                    "duration": 0.109375
                },
                {
                    "name": "A4",
                    "midi": 69,
                    "time": 230.62499999999983,
                    "velocity": 0.25984251968503935,
                    "duration": 0.109375
                },
                {
                    "name": "G#4",
                    "midi": 68,
                    "time": 230.71874999999983,
                    "velocity": 0.23622047244094488,
                    "duration": 0.109375
                },
                {
                    "name": "A4",
                    "midi": 69,
                    "time": 230.81249999999983,
                    "velocity": 0.25984251968503935,
                    "duration": 0.109375
                },
                {
                    "name": "G#4",
                    "midi": 68,
                    "time": 230.90624999999983,
                    "velocity": 0.2283464566929134,
                    "duration": 0.109375
                },
                {
                    "name": "A4",
                    "midi": 69,
                    "time": 230.99999999999983,
                    "velocity": 0.25984251968503935,
                    "duration": 0.109375
                },
                {
                    "name": "G#4",
                    "midi": 68,
                    "time": 231.09374999999983,
                    "velocity": 0.23622047244094488,
                    "duration": 0.109375
                },
                {
                    "name": "A4",
                    "midi": 69,
                    "time": 231.18749999999983,
                    "velocity": 0.25984251968503935,
                    "duration": 0.109375
                },
                {
                    "name": "G#4",
                    "midi": 68,
                    "time": 231.28124999999983,
                    "velocity": 0.23622047244094488,
                    "duration": 0.109375
                },
                {
                    "name": "A4",
                    "midi": 69,
                    "time": 231.37499999999983,
                    "velocity": 0.25984251968503935,
                    "duration": 0.109375
                },
                {
                    "name": "G#4",
                    "midi": 68,
                    "time": 231.46874999999983,
                    "velocity": 0.2283464566929134,
                    "duration": 0.109375
                },
                {
                    "name": "A4",
                    "midi": 69,
                    "time": 231.56249999999983,
                    "velocity": 0.25984251968503935,
                    "duration": 0.109375
                },
                {
                    "name": "G#4",
                    "midi": 68,
                    "time": 231.65624999999983,
                    "velocity": 0.2283464566929134,
                    "duration": 0.109375
                },
                {
                    "name": "A4",
                    "midi": 69,
                    "time": 231.74999999999983,
                    "velocity": 0.25984251968503935,
                    "duration": 0.109375
                },
                {
                    "name": "G#4",
                    "midi": 68,
                    "time": 231.84374999999983,
                    "velocity": 0.23622047244094488,
                    "duration": 0.109375
                },
                {
                    "name": "A4",
                    "midi": 69,
                    "time": 231.93749999999983,
                    "velocity": 0.25984251968503935,
                    "duration": 0.109375
                },
                {
                    "name": "G#4",
                    "midi": 68,
                    "time": 232.03124999999983,
                    "velocity": 0.23622047244094488,
                    "duration": 0.046875
                },
                {
                    "name": "A#4",
                    "midi": 70,
                    "time": 232.07812499999983,
                    "velocity": 0.30708661417322836,
                    "duration": 0.046875
                },
                {
                    "name": "A4",
                    "midi": 69,
                    "time": 232.12499999999983,
                    "velocity": 0.3228346456692913,
                    "duration": 0.09375
                },
                {
                    "name": "E4",
                    "midi": 64,
                    "time": 232.21874999999983,
                    "velocity": 0.2677165354330709,
                    "duration": 0.09375
                },
                {
                    "name": "G#4",
                    "midi": 68,
                    "time": 232.31249999999983,
                    "velocity": 0.33070866141732286,
                    "duration": 0.09375
                },
                {
                    "name": "E4",
                    "midi": 64,
                    "time": 232.40624999999983,
                    "velocity": 0.2677165354330709,
                    "duration": 0.09375
                },
                {
                    "name": "A4",
                    "midi": 69,
                    "time": 232.49999999999983,
                    "velocity": 0.33070866141732286,
                    "duration": 0.09375
                },
                {
                    "name": "E4",
                    "midi": 64,
                    "time": 232.59374999999983,
                    "velocity": 0.28346456692913385,
                    "duration": 0.046875
                },
                {
                    "name": "C5",
                    "midi": 72,
                    "time": 232.64062499999983,
                    "velocity": 0.2992125984251969,
                    "duration": 0.046875
                },
                {
                    "name": "A#4",
                    "midi": 70,
                    "time": 232.68749999999983,
                    "velocity": 0.3464566929133858,
                    "duration": 0.09375
                },
                {
                    "name": "E4",
                    "midi": 64,
                    "time": 232.78124999999983,
                    "velocity": 0.2992125984251969,
                    "duration": 0.09375
                },
                {
                    "name": "A4",
                    "midi": 69,
                    "time": 232.87499999999983,
                    "velocity": 0.3700787401574803,
                    "duration": 0.09375
                },
                {
                    "name": "E4",
                    "midi": 64,
                    "time": 232.96874999999983,
                    "velocity": 0.2992125984251969,
                    "duration": 0.09375
                },
                {
                    "name": "A#4",
                    "midi": 70,
                    "time": 233.06249999999983,
                    "velocity": 0.3779527559055118,
                    "duration": 0.09375
                },
                {
                    "name": "E4",
                    "midi": 64,
                    "time": 233.15624999999983,
                    "velocity": 0.31496062992125984,
                    "duration": 0.09375
                },
                {
                    "name": "B4",
                    "midi": 71,
                    "time": 233.24999999999983,
                    "velocity": 0.3937007874015748,
                    "duration": 0.09375
                },
                {
                    "name": "F4",
                    "midi": 65,
                    "time": 233.34374999999983,
                    "velocity": 0.3228346456692913,
                    "duration": 0.09375
                },
                {
                    "name": "F5",
                    "midi": 77,
                    "time": 233.43749999999983,
                    "velocity": 0.4015748031496063,
                    "duration": 1.125
                },
                {
                    "name": "F4",
                    "midi": 65,
                    "time": 233.53124999999983,
                    "velocity": 0.3228346456692913,
                    "duration": 0.09375
                },
                {
                    "name": "B4",
                    "midi": 71,
                    "time": 233.62499999999983,
                    "velocity": 0.3700787401574803,
                    "duration": 0.09375
                },
                {
                    "name": "F4",
                    "midi": 65,
                    "time": 233.71874999999983,
                    "velocity": 0.30708661417322836,
                    "duration": 0.046875
                },
                {
                    "name": "D5",
                    "midi": 74,
                    "time": 233.76562499999983,
                    "velocity": 0.3228346456692913,
                    "duration": 0.046875
                },
                {
                    "name": "C5",
                    "midi": 72,
                    "time": 233.81249999999983,
                    "velocity": 0.3937007874015748,
                    "duration": 0.09375
                },
                {
                    "name": "F4",
                    "midi": 65,
                    "time": 233.90624999999983,
                    "velocity": 0.33070866141732286,
                    "duration": 0.09375
                },
                {
                    "name": "B4",
                    "midi": 71,
                    "time": 233.99999999999983,
                    "velocity": 0.3858267716535433,
                    "duration": 0.09375
                },
                {
                    "name": "F4",
                    "midi": 65,
                    "time": 234.09374999999983,
                    "velocity": 0.3228346456692913,
                    "duration": 0.09375
                },
                {
                    "name": "C5",
                    "midi": 72,
                    "time": 234.18749999999983,
                    "velocity": 0.3858267716535433,
                    "duration": 0.09375
                },
                {
                    "name": "F4",
                    "midi": 65,
                    "time": 234.28124999999983,
                    "velocity": 0.3464566929133858,
                    "duration": 0.09375
                },
                {
                    "name": "C5",
                    "midi": 72,
                    "time": 234.37499999999983,
                    "velocity": 0.4015748031496063,
                    "duration": 0.09375
                },
                {
                    "name": "A4",
                    "midi": 69,
                    "time": 234.46874999999983,
                    "velocity": 0.3464566929133858,
                    "duration": 0.09375
                },
                {
                    "name": "A5",
                    "midi": 81,
                    "time": 234.56249999999983,
                    "velocity": 0.4409448818897638,
                    "duration": 0.5625
                },
                {
                    "name": "D#5",
                    "midi": 75,
                    "time": 234.56249999999983,
                    "velocity": 0.3700787401574803,
                    "duration": 0.09375
                },
                {
                    "name": "F4",
                    "midi": 65,
                    "time": 234.65624999999983,
                    "velocity": 0.3700787401574803,
                    "duration": 0.09375
                },
                {
                    "name": "D5",
                    "midi": 74,
                    "time": 234.74999999999983,
                    "velocity": 0.4094488188976378,
                    "duration": 0.09375
                },
                {
                    "name": "F4",
                    "midi": 65,
                    "time": 234.84374999999983,
                    "velocity": 0.3543307086614173,
                    "duration": 0.09375
                },
                {
                    "name": "D5",
                    "midi": 74,
                    "time": 234.93749999999983,
                    "velocity": 0.41732283464566927,
                    "duration": 0.09375
                },
                {
                    "name": "G4",
                    "midi": 67,
                    "time": 235.03124999999983,
                    "velocity": 0.3543307086614173,
                    "duration": 0.09375
                },
                {
                    "name": "G5",
                    "midi": 79,
                    "time": 235.12499999999983,
                    "velocity": 0.4566929133858268,
                    "duration": 0.5625
                },
                {
                    "name": "A#4",
                    "midi": 70,
                    "time": 235.12499999999983,
                    "velocity": 0.41732283464566927,
                    "duration": 0.09375
                },
                {
                    "name": "G4",
                    "midi": 67,
                    "time": 235.21874999999983,
                    "velocity": 0.3543307086614173,
                    "duration": 0.09375
                },
                {
                    "name": "A#4",
                    "midi": 70,
                    "time": 235.31249999999983,
                    "velocity": 0.4015748031496063,
                    "duration": 0.09375
                },
                {
                    "name": "G4",
                    "midi": 67,
                    "time": 235.40624999999983,
                    "velocity": 0.3543307086614173,
                    "duration": 0.09375
                },
                {
                    "name": "A#4",
                    "midi": 70,
                    "time": 235.49999999999983,
                    "velocity": 0.4015748031496063,
                    "duration": 0.09375
                },
                {
                    "name": "G4",
                    "midi": 67,
                    "time": 235.59374999999983,
                    "velocity": 0.3543307086614173,
                    "duration": 0.09375
                },
                {
                    "name": "G5",
                    "midi": 79,
                    "time": 235.68749999999983,
                    "velocity": 0.4566929133858268,
                    "duration": 0.5625
                },
                {
                    "name": "C#5",
                    "midi": 73,
                    "time": 235.68749999999983,
                    "velocity": 0.33070866141732286,
                    "duration": 0.09375
                },
                {
                    "name": "G4",
                    "midi": 67,
                    "time": 235.78124999999983,
                    "velocity": 0.3543307086614173,
                    "duration": 0.09375
                },
                {
                    "name": "C5",
                    "midi": 72,
                    "time": 235.87499999999983,
                    "velocity": 0.4015748031496063,
                    "duration": 0.09375
                },
                {
                    "name": "G4",
                    "midi": 67,
                    "time": 235.96874999999983,
                    "velocity": 0.3543307086614173,
                    "duration": 0.09375
                },
                {
                    "name": "C5",
                    "midi": 72,
                    "time": 236.06249999999983,
                    "velocity": 0.4015748031496063,
                    "duration": 0.09375
                },
                {
                    "name": "F4",
                    "midi": 65,
                    "time": 236.15624999999983,
                    "velocity": 0.3543307086614173,
                    "duration": 0.09375
                },
                {
                    "name": "F5",
                    "midi": 77,
                    "time": 236.24999999999983,
                    "velocity": 0.4566929133858268,
                    "duration": 0.375
                },
                {
                    "name": "A4",
                    "midi": 69,
                    "time": 236.24999999999983,
                    "velocity": 0.3543307086614173,
                    "duration": 0.09375
                },
                {
                    "name": "F4",
                    "midi": 65,
                    "time": 236.34374999999983,
                    "velocity": 0.3543307086614173,
                    "duration": 0.09375
                },
                {
                    "name": "A4",
                    "midi": 69,
                    "time": 236.43749999999983,
                    "velocity": 0.3543307086614173,
                    "duration": 0.09375
                },
                {
                    "name": "F4",
                    "midi": 65,
                    "time": 236.53124999999983,
                    "velocity": 0.3543307086614173,
                    "duration": 0.09375
                },
                {
                    "name": "E4",
                    "midi": 64,
                    "time": 236.62499999999983,
                    "velocity": 0.4330708661417323,
                    "duration": 0.375
                },
                {
                    "name": "C4",
                    "midi": 60,
                    "time": 236.71874999999983,
                    "velocity": 0.33070866141732286,
                    "duration": 0.09375
                },
                {
                    "name": "C5",
                    "midi": 72,
                    "time": 236.81249999999983,
                    "velocity": 0.33858267716535434,
                    "duration": 0.09375
                },
                {
                    "name": "C4",
                    "midi": 60,
                    "time": 236.90624999999983,
                    "velocity": 0.33858267716535434,
                    "duration": 0.09375
                },
                {
                    "name": "F4",
                    "midi": 65,
                    "time": 236.99999999999983,
                    "velocity": 0.4015748031496063,
                    "duration": 0.1875
                },
                {
                    "name": "C4",
                    "midi": 60,
                    "time": 237.09374999999983,
                    "velocity": 0.3464566929133858,
                    "duration": 0.09375
                },
                {
                    "name": "F#4",
                    "midi": 66,
                    "time": 237.18749999999983,
                    "velocity": 0.44881889763779526,
                    "duration": 0.375
                },
                {
                    "name": "D4",
                    "midi": 62,
                    "time": 237.28124999999983,
                    "velocity": 0.3543307086614173,
                    "duration": 0.09375
                },
                {
                    "name": "D5",
                    "midi": 74,
                    "time": 237.37499999999983,
                    "velocity": 0.3543307086614173,
                    "duration": 0.09375
                },
                {
                    "name": "D4",
                    "midi": 62,
                    "time": 237.46874999999983,
                    "velocity": 0.3543307086614173,
                    "duration": 0.09375
                },
                {
                    "name": "G4",
                    "midi": 67,
                    "time": 237.56249999999983,
                    "velocity": 0.4251968503937008,
                    "duration": 0.1875
                },
                {
                    "name": "D4",
                    "midi": 62,
                    "time": 237.65624999999983,
                    "velocity": 0.3543307086614173,
                    "duration": 0.09375
                },
                {
                    "name": "G#4",
                    "midi": 68,
                    "time": 237.74999999999983,
                    "velocity": 0.4645669291338583,
                    "duration": 0.375
                },
                {
                    "name": "E4",
                    "midi": 64,
                    "time": 237.84374999999983,
                    "velocity": 0.36220472440944884,
                    "duration": 0.09375
                },
                {
                    "name": "E5",
                    "midi": 76,
                    "time": 237.93749999999983,
                    "velocity": 0.3700787401574803,
                    "duration": 0.09375
                },
                {
                    "name": "E4",
                    "midi": 64,
                    "time": 238.03124999999983,
                    "velocity": 0.3700787401574803,
                    "duration": 0.09375
                },
                {
                    "name": "A4",
                    "midi": 69,
                    "time": 238.12499999999983,
                    "velocity": 0.4409448818897638,
                    "duration": 0.1875
                },
                {
                    "name": "E4",
                    "midi": 64,
                    "time": 238.21874999999983,
                    "velocity": 0.3779527559055118,
                    "duration": 0.09375
                },
                {
                    "name": "A4",
                    "midi": 69,
                    "time": 238.31249999999983,
                    "velocity": 0.4881889763779528,
                    "duration": 0.375
                },
                {
                    "name": "F4",
                    "midi": 65,
                    "time": 238.40624999999983,
                    "velocity": 0.3779527559055118,
                    "duration": 0.09375
                },
                {
                    "name": "F5",
                    "midi": 77,
                    "time": 238.49999999999983,
                    "velocity": 0.3858267716535433,
                    "duration": 0.09375
                },
                {
                    "name": "F4",
                    "midi": 65,
                    "time": 238.59374999999983,
                    "velocity": 0.3858267716535433,
                    "duration": 0.09375
                },
                {
                    "name": "A#4",
                    "midi": 70,
                    "time": 238.68749999999983,
                    "velocity": 0.4566929133858268,
                    "duration": 0.1875
                },
                {
                    "name": "F4",
                    "midi": 65,
                    "time": 238.78124999999983,
                    "velocity": 0.3858267716535433,
                    "duration": 0.09375
                },
                {
                    "name": "B4",
                    "midi": 71,
                    "time": 238.87499999999983,
                    "velocity": 0.5039370078740157,
                    "duration": 0.375
                },
                {
                    "name": "G4",
                    "midi": 67,
                    "time": 238.96874999999983,
                    "velocity": 0.3937007874015748,
                    "duration": 0.09375
                },
                {
                    "name": "G5",
                    "midi": 79,
                    "time": 239.06249999999983,
                    "velocity": 0.3937007874015748,
                    "duration": 0.375
                },
                {
                    "name": "G4",
                    "midi": 67,
                    "time": 239.15624999999983,
                    "velocity": 0.4015748031496063,
                    "duration": 0.09375
                },
                {
                    "name": "C5",
                    "midi": 72,
                    "time": 239.24999999999983,
                    "velocity": 0.47244094488188976,
                    "duration": 0.1875
                },
                {
                    "name": "G4",
                    "midi": 67,
                    "time": 239.34374999999983,
                    "velocity": 0.3858267716535433,
                    "duration": 0.09375
                },
                {
                    "name": "A5",
                    "midi": 81,
                    "time": 239.43749999999983,
                    "velocity": 0.5275590551181102,
                    "duration": 0.375
                },
                {
                    "name": "A4",
                    "midi": 69,
                    "time": 239.53124999999983,
                    "velocity": 0.44881889763779526,
                    "duration": 0.09375
                },
                {
                    "name": "C5",
                    "midi": 72,
                    "time": 239.62499999999983,
                    "velocity": 0.44881889763779526,
                    "duration": 0.09375
                },
                {
                    "name": "A4",
                    "midi": 69,
                    "time": 239.71874999999983,
                    "velocity": 0.44881889763779526,
                    "duration": 0.09375
                },
                {
                    "name": "B4",
                    "midi": 71,
                    "time": 239.81249999999983,
                    "velocity": 0.41732283464566927,
                    "duration": 0.1875
                },
                {
                    "name": "G#4",
                    "midi": 68,
                    "time": 239.90624999999983,
                    "velocity": 0.36220472440944884,
                    "duration": 0.09375
                },
                {
                    "name": "A#4",
                    "midi": 70,
                    "time": 239.99999999999983,
                    "velocity": 0.41732283464566927,
                    "duration": 0.1875
                },
                {
                    "name": "G4",
                    "midi": 67,
                    "time": 240.09374999999983,
                    "velocity": 0.36220472440944884,
                    "duration": 0.09375
                },
                {
                    "name": "E5",
                    "midi": 76,
                    "time": 240.18749999999983,
                    "velocity": 0.41732283464566927,
                    "duration": 0.1875
                },
                {
                    "name": "G4",
                    "midi": 67,
                    "time": 240.28124999999983,
                    "velocity": 0.3543307086614173,
                    "duration": 0.09375
                },
                {
                    "name": "G5",
                    "midi": 79,
                    "time": 240.37499999999983,
                    "velocity": 0.41732283464566927,
                    "duration": 0.1875
                },
                {
                    "name": "G4",
                    "midi": 67,
                    "time": 240.46874999999983,
                    "velocity": 0.36220472440944884,
                    "duration": 0.09375
                },
                {
                    "name": "A5",
                    "midi": 81,
                    "time": 240.56249999999983,
                    "velocity": 0.41732283464566927,
                    "duration": 0.375
                },
                {
                    "name": "A4",
                    "midi": 69,
                    "time": 240.65624999999983,
                    "velocity": 0.3543307086614173,
                    "duration": 0.09375
                },
                {
                    "name": "C5",
                    "midi": 72,
                    "time": 240.74999999999983,
                    "velocity": 0.3779527559055118,
                    "duration": 0.09375
                },
                {
                    "name": "A4",
                    "midi": 69,
                    "time": 240.84374999999983,
                    "velocity": 0.3464566929133858,
                    "duration": 0.09375
                },
                {
                    "name": "B4",
                    "midi": 71,
                    "time": 240.93749999999983,
                    "velocity": 0.36220472440944884,
                    "duration": 0.1875
                },
                {
                    "name": "G#4",
                    "midi": 68,
                    "time": 241.03124999999983,
                    "velocity": 0.28346456692913385,
                    "duration": 0.09375
                },
                {
                    "name": "A#4",
                    "midi": 70,
                    "time": 241.12499999999983,
                    "velocity": 0.33070866141732286,
                    "duration": 0.1875
                },
                {
                    "name": "G4",
                    "midi": 67,
                    "time": 241.21874999999983,
                    "velocity": 0.29133858267716534,
                    "duration": 0.09375
                },
                {
                    "name": "E5",
                    "midi": 76,
                    "time": 241.31249999999983,
                    "velocity": 0.33070866141732286,
                    "duration": 0.1875
                },
                {
                    "name": "G4",
                    "midi": 67,
                    "time": 241.40624999999983,
                    "velocity": 0.28346456692913385,
                    "duration": 0.09375
                },
                {
                    "name": "G5",
                    "midi": 79,
                    "time": 241.49999999999983,
                    "velocity": 0.33858267716535434,
                    "duration": 0.1875
                },
                {
                    "name": "G4",
                    "midi": 67,
                    "time": 241.59374999999983,
                    "velocity": 0.29133858267716534,
                    "duration": 0.09375
                },
                {
                    "name": "A5",
                    "midi": 81,
                    "time": 241.68749999999983,
                    "velocity": 0.33858267716535434,
                    "duration": 0.375
                },
                {
                    "name": "A4",
                    "midi": 69,
                    "time": 241.78124999999983,
                    "velocity": 0.29133858267716534,
                    "duration": 0.09375
                },
                {
                    "name": "G#4",
                    "midi": 68,
                    "time": 241.87499999999983,
                    "velocity": 0.3228346456692913,
                    "duration": 0.09375
                },
                {
                    "name": "A4",
                    "midi": 69,
                    "time": 241.96874999999983,
                    "velocity": 0.28346456692913385,
                    "duration": 0.09375
                },
                {
                    "name": "A5",
                    "midi": 81,
                    "time": 242.06249999999983,
                    "velocity": 0.3700787401574803,
                    "duration": 0.1875
                },
                {
                    "name": "A4",
                    "midi": 69,
                    "time": 242.15624999999983,
                    "velocity": 0.29133858267716534,
                    "duration": 0.09375
                },
                {
                    "name": "F5",
                    "midi": 77,
                    "time": 242.24999999999983,
                    "velocity": 0.3937007874015748,
                    "duration": 0.1875
                },
                {
                    "name": "A4",
                    "midi": 69,
                    "time": 242.34374999999983,
                    "velocity": 0.2992125984251969,
                    "duration": 0.09375
                },
                {
                    "name": "C5",
                    "midi": 72,
                    "time": 242.43749999999983,
                    "velocity": 0.3700787401574803,
                    "duration": 0.1875
                },
                {
                    "name": "A4",
                    "midi": 69,
                    "time": 242.53124999999983,
                    "velocity": 0.2992125984251969,
                    "duration": 0.09375
                },
                {
                    "name": "A5",
                    "midi": 81,
                    "time": 242.62499999999983,
                    "velocity": 0.3700787401574803,
                    "duration": 0.1875
                },
                {
                    "name": "A4",
                    "midi": 69,
                    "time": 242.71874999999983,
                    "velocity": 0.2992125984251969,
                    "duration": 0.09375
                },
                {
                    "name": "E5",
                    "midi": 76,
                    "time": 242.81249999999983,
                    "velocity": 0.4094488188976378,
                    "duration": 0.1875
                },
                {
                    "name": "A4",
                    "midi": 69,
                    "time": 242.90624999999983,
                    "velocity": 0.2992125984251969,
                    "duration": 0.09375
                },
                {
                    "name": "C5",
                    "midi": 72,
                    "time": 242.99999999999983,
                    "velocity": 0.3779527559055118,
                    "duration": 0.1875
                },
                {
                    "name": "A4",
                    "midi": 69,
                    "time": 243.09374999999983,
                    "velocity": 0.2992125984251969,
                    "duration": 0.09375
                },
                {
                    "name": "A5",
                    "midi": 81,
                    "time": 243.18749999999983,
                    "velocity": 0.3858267716535433,
                    "duration": 0.1875
                },
                {
                    "name": "A4",
                    "midi": 69,
                    "time": 243.28124999999983,
                    "velocity": 0.31496062992125984,
                    "duration": 0.09375
                },
                {
                    "name": "F5",
                    "midi": 77,
                    "time": 243.37499999999983,
                    "velocity": 0.4251968503937008,
                    "duration": 0.1875
                },
                {
                    "name": "A4",
                    "midi": 69,
                    "time": 243.46874999999983,
                    "velocity": 0.3228346456692913,
                    "duration": 0.09375
                },
                {
                    "name": "C5",
                    "midi": 72,
                    "time": 243.56249999999983,
                    "velocity": 0.41732283464566927,
                    "duration": 0.1875
                },
                {
                    "name": "A4",
                    "midi": 69,
                    "time": 243.65624999999983,
                    "velocity": 0.33070866141732286,
                    "duration": 0.09375
                },
                {
                    "name": "A5",
                    "midi": 81,
                    "time": 243.74999999999983,
                    "velocity": 0.47244094488188976,
                    "duration": 0.1875
                },
                {
                    "name": "A4",
                    "midi": 69,
                    "time": 243.84374999999983,
                    "velocity": 0.3464566929133858,
                    "duration": 0.09375
                },
                {
                    "name": "C5",
                    "midi": 72,
                    "time": 243.93749999999983,
                    "velocity": 0.4409448818897638,
                    "duration": 0.1875
                },
                {
                    "name": "A4",
                    "midi": 69,
                    "time": 244.03124999999983,
                    "velocity": 0.3543307086614173,
                    "duration": 0.09375
                },
                {
                    "name": "A5",
                    "midi": 81,
                    "time": 244.12499999999983,
                    "velocity": 0.49606299212598426,
                    "duration": 0.1875
                },
                {
                    "name": "A4",
                    "midi": 69,
                    "time": 244.21874999999983,
                    "velocity": 0.3543307086614173,
                    "duration": 0.09375
                },
                {
                    "name": "C#5",
                    "midi": 73,
                    "time": 244.31249999999983,
                    "velocity": 0.4645669291338583,
                    "duration": 0.1875
                },
                {
                    "name": "A4",
                    "midi": 69,
                    "time": 244.40624999999983,
                    "velocity": 0.36220472440944884,
                    "duration": 0.09375
                },
                {
                    "name": "A5",
                    "midi": 81,
                    "time": 244.49999999999983,
                    "velocity": 0.5511811023622047,
                    "duration": 0.1875
                },
                {
                    "name": "A4",
                    "midi": 69,
                    "time": 244.59374999999983,
                    "velocity": 0.3858267716535433,
                    "duration": 0.09375
                },
                {
                    "name": "D5",
                    "midi": 74,
                    "time": 244.68749999999983,
                    "velocity": 0.4645669291338583,
                    "duration": 0.1875
                },
                {
                    "name": "A4",
                    "midi": 69,
                    "time": 244.78124999999983,
                    "velocity": 0.3858267716535433,
                    "duration": 0.09375
                },
                {
                    "name": "A5",
                    "midi": 81,
                    "time": 244.87499999999983,
                    "velocity": 0.5590551181102362,
                    "duration": 0.1875
                },
                {
                    "name": "A4",
                    "midi": 69,
                    "time": 244.96874999999983,
                    "velocity": 0.3937007874015748,
                    "duration": 0.09375
                },
                {
                    "name": "D#5",
                    "midi": 75,
                    "time": 245.06249999999983,
                    "velocity": 0.5196850393700787,
                    "duration": 0.1875
                },
                {
                    "name": "A4",
                    "midi": 69,
                    "time": 245.15624999999983,
                    "velocity": 0.4094488188976378,
                    "duration": 0.09375
                },
                {
                    "name": "A#5",
                    "midi": 82,
                    "time": 245.24999999999983,
                    "velocity": 0.5826771653543307,
                    "duration": 0.1875
                },
                {
                    "name": "A#4",
                    "midi": 70,
                    "time": 245.34374999999983,
                    "velocity": 0.4251968503937008,
                    "duration": 0.09375
                },
                {
                    "name": "D#5",
                    "midi": 75,
                    "time": 245.43749999999983,
                    "velocity": 0.5354330708661418,
                    "duration": 0.1875
                },
                {
                    "name": "A#4",
                    "midi": 70,
                    "time": 245.53124999999983,
                    "velocity": 0.4330708661417323,
                    "duration": 0.09375
                },
                {
                    "name": "B5",
                    "midi": 83,
                    "time": 245.62499999999983,
                    "velocity": 0.6299212598425197,
                    "duration": 0.1875
                },
                {
                    "name": "B4",
                    "midi": 71,
                    "time": 245.71874999999983,
                    "velocity": 0.44881889763779526,
                    "duration": 0.09375
                },
                {
                    "name": "D#5",
                    "midi": 75,
                    "time": 245.81249999999983,
                    "velocity": 0.5669291338582677,
                    "duration": 0.1875
                },
                {
                    "name": "B4",
                    "midi": 71,
                    "time": 245.90624999999983,
                    "velocity": 0.4566929133858268,
                    "duration": 0.09375
                },
                {
                    "name": "C6",
                    "midi": 84,
                    "time": 245.99999999999983,
                    "velocity": 0.6614173228346457,
                    "duration": 0.1875
                },
                {
                    "name": "C5",
                    "midi": 72,
                    "time": 246.09374999999983,
                    "velocity": 0.4645669291338583,
                    "duration": 0.09375
                },
                {
                    "name": "C#5",
                    "midi": 73,
                    "time": 246.18749999999983,
                    "velocity": 0.5748031496062992,
                    "duration": 0.1875
                },
                {
                    "name": "C#6",
                    "midi": 85,
                    "time": 246.18749999999983,
                    "velocity": 0.6771653543307087,
                    "duration": 0.1875
                },
                {
                    "name": "B3",
                    "midi": 59,
                    "time": 246.37499999999983,
                    "velocity": 0.5118110236220472,
                    "duration": 0.09375
                },
                {
                    "name": "C#4",
                    "midi": 61,
                    "time": 246.46874999999983,
                    "velocity": 0.5433070866141733,
                    "duration": 0.09375
                },
                {
                    "name": "F4",
                    "midi": 65,
                    "time": 246.56249999999983,
                    "velocity": 0.5748031496062992,
                    "duration": 0.09375
                },
                {
                    "name": "G#4",
                    "midi": 68,
                    "time": 246.65624999999983,
                    "velocity": 0.6062992125984252,
                    "duration": 0.09375
                },
                {
                    "name": "B4",
                    "midi": 71,
                    "time": 246.74999999999983,
                    "velocity": 0.6771653543307087,
                    "duration": 0.09375
                },
                {
                    "name": "B5",
                    "midi": 83,
                    "time": 246.84374999999983,
                    "velocity": 0.6377952755905512,
                    "duration": 0.09375
                },
                {
                    "name": "B4",
                    "midi": 71,
                    "time": 246.93749999999983,
                    "velocity": 0.6062992125984252,
                    "duration": 0.09375
                },
                {
                    "name": "C#5",
                    "midi": 73,
                    "time": 247.03124999999983,
                    "velocity": 0.6141732283464567,
                    "duration": 0.09375
                },
                {
                    "name": "F5",
                    "midi": 77,
                    "time": 247.12499999999983,
                    "velocity": 0.6220472440944882,
                    "duration": 0.09375
                },
                {
                    "name": "G#5",
                    "midi": 80,
                    "time": 247.21874999999983,
                    "velocity": 0.6377952755905512,
                    "duration": 0.09375
                },
                {
                    "name": "B5",
                    "midi": 83,
                    "time": 247.31249999999983,
                    "velocity": 0.6929133858267716,
                    "duration": 0.09375
                },
                {
                    "name": "B6",
                    "midi": 95,
                    "time": 247.40624999999983,
                    "velocity": 0.6692913385826772,
                    "duration": 0.09375
                },
                {
                    "name": "G#6",
                    "midi": 92,
                    "time": 247.49999999999983,
                    "velocity": 0.6377952755905512,
                    "duration": 0.09375
                },
                {
                    "name": "F6",
                    "midi": 89,
                    "time": 247.59374999999983,
                    "velocity": 0.6299212598425197,
                    "duration": 0.09375
                },
                {
                    "name": "C#6",
                    "midi": 85,
                    "time": 247.68749999999983,
                    "velocity": 0.6220472440944882,
                    "duration": 0.09375
                },
                {
                    "name": "B5",
                    "midi": 83,
                    "time": 247.78124999999983,
                    "velocity": 0.6141732283464567,
                    "duration": 0.09375
                },
                {
                    "name": "G#5",
                    "midi": 80,
                    "time": 247.87499999999983,
                    "velocity": 0.5984251968503937,
                    "duration": 0.09375
                },
                {
                    "name": "F5",
                    "midi": 77,
                    "time": 247.96874999999983,
                    "velocity": 0.5905511811023622,
                    "duration": 0.09375
                },
                {
                    "name": "C#5",
                    "midi": 73,
                    "time": 248.06249999999983,
                    "velocity": 0.5826771653543307,
                    "duration": 0.09375
                },
                {
                    "name": "B4",
                    "midi": 71,
                    "time": 248.15624999999983,
                    "velocity": 0.5748031496062992,
                    "duration": 0.09375
                },
                {
                    "name": "G#4",
                    "midi": 68,
                    "time": 248.24999999999983,
                    "velocity": 0.5669291338582677,
                    "duration": 0.09375
                },
                {
                    "name": "F4",
                    "midi": 65,
                    "time": 248.34374999999983,
                    "velocity": 0.5590551181102362,
                    "duration": 0.09375
                },
                {
                    "name": "A#4",
                    "midi": 70,
                    "time": 248.43749999999983,
                    "velocity": 0.5275590551181102,
                    "duration": 0.109375
                },
                {
                    "name": "E4",
                    "midi": 64,
                    "time": 248.53124999999983,
                    "velocity": 0.48031496062992124,
                    "duration": 0.109375
                },
                {
                    "name": "D#4",
                    "midi": 63,
                    "time": 248.62499999999983,
                    "velocity": 0.4881889763779528,
                    "duration": 0.109375
                },
                {
                    "name": "A4",
                    "midi": 69,
                    "time": 248.71874999999983,
                    "velocity": 0.4881889763779528,
                    "duration": 0.109375
                },
                {
                    "name": "G#4",
                    "midi": 68,
                    "time": 248.81249999999983,
                    "velocity": 0.5039370078740157,
                    "duration": 0.109375
                },
                {
                    "name": "D4",
                    "midi": 62,
                    "time": 248.90624999999983,
                    "velocity": 0.49606299212598426,
                    "duration": 0.109375
                },
                {
                    "name": "C#4",
                    "midi": 61,
                    "time": 248.99999999999983,
                    "velocity": 0.5511811023622047,
                    "duration": 0.109375
                },
                {
                    "name": "G4",
                    "midi": 67,
                    "time": 249.09374999999983,
                    "velocity": 0.49606299212598426,
                    "duration": 0.109375
                },
                {
                    "name": "F#4",
                    "midi": 66,
                    "time": 249.18749999999983,
                    "velocity": 0.49606299212598426,
                    "duration": 0.109375
                },
                {
                    "name": "C4",
                    "midi": 60,
                    "time": 249.28124999999983,
                    "velocity": 0.49606299212598426,
                    "duration": 0.109375
                },
                {
                    "name": "B3",
                    "midi": 59,
                    "time": 249.37499999999983,
                    "velocity": 0.49606299212598426,
                    "duration": 0.109375
                },
                {
                    "name": "F4",
                    "midi": 65,
                    "time": 249.46874999999983,
                    "velocity": 0.49606299212598426,
                    "duration": 0.109375
                },
                {
                    "name": "E4",
                    "midi": 64,
                    "time": 249.56249999999983,
                    "velocity": 0.5196850393700787,
                    "duration": 0.109375
                },
                {
                    "name": "A#3",
                    "midi": 58,
                    "time": 249.65624999999983,
                    "velocity": 0.4409448818897638,
                    "duration": 0.109375
                },
                {
                    "name": "G3",
                    "midi": 55,
                    "time": 249.74999999999983,
                    "velocity": 0.4566929133858268,
                    "duration": 0.109375
                },
                {
                    "name": "D#4",
                    "midi": 63,
                    "time": 249.84374999999983,
                    "velocity": 0.47244094488188976,
                    "duration": 0.109375
                },
                {
                    "name": "D4",
                    "midi": 62,
                    "time": 249.93749999999983,
                    "velocity": 0.4881889763779528,
                    "duration": 0.109375
                },
                {
                    "name": "G3",
                    "midi": 55,
                    "time": 250.03124999999983,
                    "velocity": 0.5039370078740157,
                    "duration": 0.109375
                },
                {
                    "name": "A#3",
                    "midi": 58,
                    "time": 250.12499999999983,
                    "velocity": 0.5511811023622047,
                    "duration": 0.109375
                },
                {
                    "name": "C#4",
                    "midi": 61,
                    "time": 250.21874999999983,
                    "velocity": 0.5039370078740157,
                    "duration": 0.109375
                },
                {
                    "name": "C4",
                    "midi": 60,
                    "time": 250.31249999999983,
                    "velocity": 0.5196850393700787,
                    "duration": 0.109375
                },
                {
                    "name": "G3",
                    "midi": 55,
                    "time": 250.40624999999983,
                    "velocity": 0.5275590551181102,
                    "duration": 0.109375
                },
                {
                    "name": "A3",
                    "midi": 57,
                    "time": 250.49999999999983,
                    "velocity": 0.5433070866141733,
                    "duration": 0.109375
                },
                {
                    "name": "C4",
                    "midi": 60,
                    "time": 250.59374999999983,
                    "velocity": 0.5511811023622047,
                    "duration": 0.09375
                },
                {
                    "name": "D4",
                    "midi": 62,
                    "time": 250.68749999999983,
                    "velocity": 0.5511811023622047,
                    "duration": 0.109375
                },
                {
                    "name": "G#3",
                    "midi": 56,
                    "time": 250.78124999999983,
                    "velocity": 0.5039370078740157,
                    "duration": 0.109375
                },
                {
                    "name": "G3",
                    "midi": 55,
                    "time": 250.87499999999983,
                    "velocity": 0.5039370078740157,
                    "duration": 0.109375
                },
                {
                    "name": "C#4",
                    "midi": 61,
                    "time": 250.96874999999983,
                    "velocity": 0.5039370078740157,
                    "duration": 0.109375
                },
                {
                    "name": "C4",
                    "midi": 60,
                    "time": 251.06249999999983,
                    "velocity": 0.49606299212598426,
                    "duration": 0.109375
                },
                {
                    "name": "F#3",
                    "midi": 54,
                    "time": 251.15624999999983,
                    "velocity": 0.49606299212598426,
                    "duration": 0.109375
                },
                {
                    "name": "F3",
                    "midi": 53,
                    "time": 251.24999999999983,
                    "velocity": 0.5511811023622047,
                    "duration": 0.109375
                },
                {
                    "name": "B3",
                    "midi": 59,
                    "time": 251.34374999999983,
                    "velocity": 0.47244094488188976,
                    "duration": 0.109375
                },
                {
                    "name": "A#3",
                    "midi": 58,
                    "time": 251.43749999999983,
                    "velocity": 0.47244094488188976,
                    "duration": 0.109375
                },
                {
                    "name": "E3",
                    "midi": 52,
                    "time": 251.53124999999983,
                    "velocity": 0.44881889763779526,
                    "duration": 0.109375
                },
                {
                    "name": "D#3",
                    "midi": 51,
                    "time": 251.62499999999983,
                    "velocity": 0.4330708661417323,
                    "duration": 0.109375
                },
                {
                    "name": "A3",
                    "midi": 57,
                    "time": 251.71874999999983,
                    "velocity": 0.41732283464566927,
                    "duration": 0.109375
                },
                {
                    "name": "G#3",
                    "midi": 56,
                    "time": 251.81249999999983,
                    "velocity": 0.4881889763779528,
                    "duration": 0.109375
                },
                {
                    "name": "D3",
                    "midi": 50,
                    "time": 251.90624999999983,
                    "velocity": 0.4409448818897638,
                    "duration": 0.109375
                },
                {
                    "name": "B2",
                    "midi": 47,
                    "time": 251.99999999999983,
                    "velocity": 0.4251968503937008,
                    "duration": 0.109375
                },
                {
                    "name": "G#3",
                    "midi": 56,
                    "time": 252.09374999999983,
                    "velocity": 0.41732283464566927,
                    "duration": 0.109375
                },
                {
                    "name": "E3",
                    "midi": 52,
                    "time": 252.18749999999983,
                    "velocity": 0.4015748031496063,
                    "duration": 0.109375
                },
                {
                    "name": "B2",
                    "midi": 47,
                    "time": 252.28124999999983,
                    "velocity": 0.3937007874015748,
                    "duration": 0.109375
                },
                {
                    "name": "G#3",
                    "midi": 56,
                    "time": 252.37499999999983,
                    "velocity": 0.44881889763779526,
                    "duration": 0.109375
                },
                {
                    "name": "F3",
                    "midi": 53,
                    "time": 252.46874999999983,
                    "velocity": 0.4330708661417323,
                    "duration": 0.109375
                },
                {
                    "name": "C3",
                    "midi": 48,
                    "time": 252.56249999999983,
                    "velocity": 0.4251968503937008,
                    "duration": 0.109375
                },
                {
                    "name": "G#3",
                    "midi": 56,
                    "time": 252.65624999999983,
                    "velocity": 0.4094488188976378,
                    "duration": 0.109375
                },
                {
                    "name": "F3",
                    "midi": 53,
                    "time": 252.74999999999983,
                    "velocity": 0.4015748031496063,
                    "duration": 0.109375
                },
                {
                    "name": "D#3",
                    "midi": 51,
                    "time": 252.84374999999983,
                    "velocity": 0.3858267716535433,
                    "duration": 0.09375
                },
                {
                    "name": "A3",
                    "midi": 57,
                    "time": 252.93749999999983,
                    "velocity": 0.4015748031496063,
                    "duration": 0.109375
                },
                {
                    "name": "C3",
                    "midi": 48,
                    "time": 253.03124999999983,
                    "velocity": 0.33070866141732286,
                    "duration": 0.109375
                },
                {
                    "name": "D#3",
                    "midi": 51,
                    "time": 253.12499999999983,
                    "velocity": 0.33070866141732286,
                    "duration": 0.109375
                },
                {
                    "name": "F#3",
                    "midi": 54,
                    "time": 253.21874999999983,
                    "velocity": 0.33070866141732286,
                    "duration": 0.109375
                },
                {
                    "name": "G3",
                    "midi": 55,
                    "time": 253.31249999999983,
                    "velocity": 0.33070866141732286,
                    "duration": 0.109375
                },
                {
                    "name": "D3",
                    "midi": 50,
                    "time": 253.40624999999983,
                    "velocity": 0.33070866141732286,
                    "duration": 0.109375
                },
                {
                    "name": "C#3",
                    "midi": 49,
                    "time": 253.49999999999983,
                    "velocity": 0.4015748031496063,
                    "duration": 0.109375
                },
                {
                    "name": "E3",
                    "midi": 52,
                    "time": 253.59374999999983,
                    "velocity": 0.3228346456692913,
                    "duration": 0.109375
                },
                {
                    "name": "F3",
                    "midi": 53,
                    "time": 253.68749999999983,
                    "velocity": 0.3228346456692913,
                    "duration": 0.109375
                },
                {
                    "name": "C3",
                    "midi": 48,
                    "time": 253.78124999999983,
                    "velocity": 0.3228346456692913,
                    "duration": 0.109375
                },
                {
                    "name": "F3",
                    "midi": 53,
                    "time": 253.87499999999983,
                    "velocity": 0.3228346456692913,
                    "duration": 0.109375
                },
                {
                    "name": "C4",
                    "midi": 60,
                    "time": 253.96874999999983,
                    "velocity": 0.3228346456692913,
                    "duration": 0.109375
                },
                {
                    "name": "A#3",
                    "midi": 58,
                    "time": 254.06249999999983,
                    "velocity": 0.3937007874015748,
                    "duration": 0.109375
                },
                {
                    "name": "E3",
                    "midi": 52,
                    "time": 254.15624999999983,
                    "velocity": 0.31496062992125984,
                    "duration": 0.109375
                },
                {
                    "name": "G#3",
                    "midi": 56,
                    "time": 254.24999999999983,
                    "velocity": 0.3228346456692913,
                    "duration": 0.109375
                },
                {
                    "name": "B3",
                    "midi": 59,
                    "time": 254.34374999999983,
                    "velocity": 0.3228346456692913,
                    "duration": 0.109375
                },
                {
                    "name": "C4",
                    "midi": 60,
                    "time": 254.43749999999983,
                    "velocity": 0.3228346456692913,
                    "duration": 0.109375
                },
                {
                    "name": "G3",
                    "midi": 55,
                    "time": 254.53124999999983,
                    "velocity": 0.3228346456692913,
                    "duration": 0.109375
                },
                {
                    "name": "A#3",
                    "midi": 58,
                    "time": 254.62499999999983,
                    "velocity": 0.4094488188976378,
                    "duration": 0.109375
                },
                {
                    "name": "C#4",
                    "midi": 61,
                    "time": 254.71874999999983,
                    "velocity": 0.33070866141732286,
                    "duration": 0.109375
                },
                {
                    "name": "D4",
                    "midi": 62,
                    "time": 254.81249999999983,
                    "velocity": 0.3228346456692913,
                    "duration": 0.109375
                },
                {
                    "name": "G3",
                    "midi": 55,
                    "time": 254.90624999999983,
                    "velocity": 0.3228346456692913,
                    "duration": 0.109375
                },
                {
                    "name": "A#3",
                    "midi": 58,
                    "time": 254.99999999999983,
                    "velocity": 0.3228346456692913,
                    "duration": 0.109375
                },
                {
                    "name": "F4",
                    "midi": 65,
                    "time": 255.09374999999983,
                    "velocity": 0.3228346456692913,
                    "duration": 0.109375
                },
                {
                    "name": "E4",
                    "midi": 64,
                    "time": 255.18749999999983,
                    "velocity": 0.3937007874015748,
                    "duration": 0.109375
                },
                {
                    "name": "G3",
                    "midi": 55,
                    "time": 255.28124999999983,
                    "velocity": 0.33070866141732286,
                    "duration": 0.109375
                },
                {
                    "name": "D#4",
                    "midi": 63,
                    "time": 255.37499999999983,
                    "velocity": 0.33070866141732286,
                    "duration": 0.109375
                },
                {
                    "name": "F#4",
                    "midi": 66,
                    "time": 255.46874999999983,
                    "velocity": 0.33070866141732286,
                    "duration": 0.109375
                },
                {
                    "name": "G4",
                    "midi": 67,
                    "time": 255.56249999999983,
                    "velocity": 0.33070866141732286,
                    "duration": 0.109375
                },
                {
                    "name": "D4",
                    "midi": 62,
                    "time": 255.65624999999983,
                    "velocity": 0.33858267716535434,
                    "duration": 0.109375
                },
                {
                    "name": "C#4",
                    "midi": 61,
                    "time": 255.74999999999983,
                    "velocity": 0.4094488188976378,
                    "duration": 0.109375
                },
                {
                    "name": "E4",
                    "midi": 64,
                    "time": 255.84374999999983,
                    "velocity": 0.33070866141732286,
                    "duration": 0.109375
                },
                {
                    "name": "F4",
                    "midi": 65,
                    "time": 255.93749999999983,
                    "velocity": 0.33858267716535434,
                    "duration": 0.109375
                },
                {
                    "name": "C4",
                    "midi": 60,
                    "time": 256.03124999999983,
                    "velocity": 0.33858267716535434,
                    "duration": 0.109375
                },
                {
                    "name": "F4",
                    "midi": 65,
                    "time": 256.12499999999983,
                    "velocity": 0.33858267716535434,
                    "duration": 0.109375
                },
                {
                    "name": "C5",
                    "midi": 72,
                    "time": 256.21874999999983,
                    "velocity": 0.33858267716535434,
                    "duration": 0.109375
                },
                {
                    "name": "A#4",
                    "midi": 70,
                    "time": 256.31249999999983,
                    "velocity": 0.41732283464566927,
                    "duration": 0.109375
                },
                {
                    "name": "E4",
                    "midi": 64,
                    "time": 256.40624999999983,
                    "velocity": 0.33858267716535434,
                    "duration": 0.109375
                },
                {
                    "name": "G#4",
                    "midi": 68,
                    "time": 256.49999999999983,
                    "velocity": 0.3464566929133858,
                    "duration": 0.109375
                },
                {
                    "name": "B4",
                    "midi": 71,
                    "time": 256.59374999999983,
                    "velocity": 0.3464566929133858,
                    "duration": 0.109375
                },
                {
                    "name": "C5",
                    "midi": 72,
                    "time": 256.68749999999983,
                    "velocity": 0.3464566929133858,
                    "duration": 0.109375
                },
                {
                    "name": "G4",
                    "midi": 67,
                    "time": 256.78124999999983,
                    "velocity": 0.3543307086614173,
                    "duration": 0.109375
                },
                {
                    "name": "A#4",
                    "midi": 70,
                    "time": 256.87499999999983,
                    "velocity": 0.44881889763779526,
                    "duration": 0.109375
                },
                {
                    "name": "C#5",
                    "midi": 73,
                    "time": 256.96874999999983,
                    "velocity": 0.3858267716535433,
                    "duration": 0.109375
                },
                {
                    "name": "D5",
                    "midi": 74,
                    "time": 257.06249999999983,
                    "velocity": 0.3543307086614173,
                    "duration": 0.109375
                },
                {
                    "name": "G4",
                    "midi": 67,
                    "time": 257.15624999999983,
                    "velocity": 0.36220472440944884,
                    "duration": 0.109375
                },
                {
                    "name": "A#4",
                    "midi": 70,
                    "time": 257.24999999999983,
                    "velocity": 0.36220472440944884,
                    "duration": 0.109375
                },
                {
                    "name": "F5",
                    "midi": 77,
                    "time": 257.34374999999983,
                    "velocity": 0.36220472440944884,
                    "duration": 0.109375
                },
                {
                    "name": "D#5",
                    "midi": 75,
                    "time": 257.43749999999983,
                    "velocity": 0.44881889763779526,
                    "duration": 0.109375
                },
                {
                    "name": "E5",
                    "midi": 76,
                    "time": 257.53124999999983,
                    "velocity": 0.4330708661417323,
                    "duration": 0.09375
                },
                {
                    "name": "G4",
                    "midi": 67,
                    "time": 257.62499999999983,
                    "velocity": 0.4409448818897638,
                    "duration": 0.09375
                },
                {
                    "name": "A4",
                    "midi": 69,
                    "time": 257.71874999999983,
                    "velocity": 0.44881889763779526,
                    "duration": 0.09375
                },
                {
                    "name": "A#4",
                    "midi": 70,
                    "time": 257.81249999999983,
                    "velocity": 0.4566929133858268,
                    "duration": 0.09375
                },
                {
                    "name": "C5",
                    "midi": 72,
                    "time": 257.90624999999983,
                    "velocity": 0.4645669291338583,
                    "duration": 0.09375
                },
                {
                    "name": "C#5",
                    "midi": 73,
                    "time": 257.99999999999983,
                    "velocity": 0.47244094488188976,
                    "duration": 0.09375
                },
                {
                    "name": "E5",
                    "midi": 76,
                    "time": 258.09374999999983,
                    "velocity": 0.48031496062992124,
                    "duration": 0.09375
                },
                {
                    "name": "G5",
                    "midi": 79,
                    "time": 258.18749999999983,
                    "velocity": 0.4881889763779528,
                    "duration": 0.09375
                },
                {
                    "name": "A5",
                    "midi": 81,
                    "time": 258.28124999999983,
                    "velocity": 0.49606299212598426,
                    "duration": 0.09375
                },
                {
                    "name": "A#5",
                    "midi": 82,
                    "time": 258.37499999999983,
                    "velocity": 0.5039370078740157,
                    "duration": 0.09375
                },
                {
                    "name": "C6",
                    "midi": 84,
                    "time": 258.46874999999983,
                    "velocity": 0.5118110236220472,
                    "duration": 0.09375
                },
                {
                    "name": "C#6",
                    "midi": 85,
                    "time": 258.56249999999983,
                    "velocity": 0.5354330708661418,
                    "duration": 0.109375
                },
                {
                    "name": "G6",
                    "midi": 91,
                    "time": 258.65624999999983,
                    "velocity": 0.5275590551181102,
                    "duration": 0.09375
                },
                {
                    "name": "E6",
                    "midi": 88,
                    "time": 258.74999999999983,
                    "velocity": 0.5196850393700787,
                    "duration": 0.09375
                },
                {
                    "name": "C#6",
                    "midi": 85,
                    "time": 258.84374999999983,
                    "velocity": 0.5118110236220472,
                    "duration": 0.09375
                },
                {
                    "name": "A#5",
                    "midi": 82,
                    "time": 258.93749999999983,
                    "velocity": 0.5039370078740157,
                    "duration": 0.09375
                },
                {
                    "name": "G5",
                    "midi": 79,
                    "time": 259.03124999999983,
                    "velocity": 0.49606299212598426,
                    "duration": 0.09375
                },
                {
                    "name": "E5",
                    "midi": 76,
                    "time": 259.12499999999983,
                    "velocity": 0.4881889763779528,
                    "duration": 0.109375
                },
                {
                    "name": "C#5",
                    "midi": 73,
                    "time": 259.21874999999983,
                    "velocity": 0.48031496062992124,
                    "duration": 0.09375
                },
                {
                    "name": "A#4",
                    "midi": 70,
                    "time": 259.31249999999983,
                    "velocity": 0.47244094488188976,
                    "duration": 0.09375
                },
                {
                    "name": "G4",
                    "midi": 67,
                    "time": 259.40624999999983,
                    "velocity": 0.4645669291338583,
                    "duration": 0.09375
                },
                {
                    "name": "E4",
                    "midi": 64,
                    "time": 259.49999999999983,
                    "velocity": 0.4566929133858268,
                    "duration": 0.09375
                },
                {
                    "name": "C#4",
                    "midi": 61,
                    "time": 259.59374999999983,
                    "velocity": 0.44881889763779526,
                    "duration": 0.09375
                },
                {
                    "name": "D4",
                    "midi": 62,
                    "time": 259.68749999999983,
                    "velocity": 0.4409448818897638,
                    "duration": 0.109375
                },
                {
                    "name": "D5",
                    "midi": 74,
                    "time": 259.78124999999983,
                    "velocity": 0.4330708661417323,
                    "duration": 0.09375
                },
                {
                    "name": "D4",
                    "midi": 62,
                    "time": 259.87499999999983,
                    "velocity": 0.44881889763779526,
                    "duration": 0.09375
                },
                {
                    "name": "E4",
                    "midi": 64,
                    "time": 259.96874999999983,
                    "velocity": 0.4645669291338583,
                    "duration": 0.09375
                },
                {
                    "name": "F4",
                    "midi": 65,
                    "time": 260.06249999999983,
                    "velocity": 0.47244094488188976,
                    "duration": 0.09375
                },
                {
                    "name": "G4",
                    "midi": 67,
                    "time": 260.15624999999983,
                    "velocity": 0.4881889763779528,
                    "duration": 0.09375
                },
                {
                    "name": "G#4",
                    "midi": 68,
                    "time": 260.24999999999983,
                    "velocity": 0.49606299212598426,
                    "duration": 0.109375
                },
                {
                    "name": "B4",
                    "midi": 71,
                    "time": 260.34374999999983,
                    "velocity": 0.5118110236220472,
                    "duration": 0.09375
                },
                {
                    "name": "D5",
                    "midi": 74,
                    "time": 260.43749999999983,
                    "velocity": 0.5196850393700787,
                    "duration": 0.09375
                },
                {
                    "name": "E5",
                    "midi": 76,
                    "time": 260.53124999999983,
                    "velocity": 0.5354330708661418,
                    "duration": 0.09375
                },
                {
                    "name": "F5",
                    "midi": 77,
                    "time": 260.62499999999983,
                    "velocity": 0.5433070866141733,
                    "duration": 0.09375
                },
                {
                    "name": "G5",
                    "midi": 79,
                    "time": 260.71874999999983,
                    "velocity": 0.5590551181102362,
                    "duration": 0.09375
                },
                {
                    "name": "G#5",
                    "midi": 80,
                    "time": 260.81249999999983,
                    "velocity": 0.5669291338582677,
                    "duration": 0.109375
                },
                {
                    "name": "D6",
                    "midi": 86,
                    "time": 260.90624999999983,
                    "velocity": 0.5275590551181102,
                    "duration": 0.09375
                },
                {
                    "name": "B5",
                    "midi": 83,
                    "time": 260.99999999999983,
                    "velocity": 0.5354330708661418,
                    "duration": 0.09375
                },
                {
                    "name": "G#5",
                    "midi": 80,
                    "time": 261.09374999999983,
                    "velocity": 0.5275590551181102,
                    "duration": 0.09375
                },
                {
                    "name": "F5",
                    "midi": 77,
                    "time": 261.18749999999983,
                    "velocity": 0.5196850393700787,
                    "duration": 0.09375
                },
                {
                    "name": "D5",
                    "midi": 74,
                    "time": 261.28124999999983,
                    "velocity": 0.5196850393700787,
                    "duration": 0.09375
                },
                {
                    "name": "B4",
                    "midi": 71,
                    "time": 261.37499999999983,
                    "velocity": 0.5118110236220472,
                    "duration": 0.109375
                },
                {
                    "name": "G#4",
                    "midi": 68,
                    "time": 261.46874999999983,
                    "velocity": 0.5039370078740157,
                    "duration": 0.09375
                },
                {
                    "name": "F4",
                    "midi": 65,
                    "time": 261.56249999999983,
                    "velocity": 0.49606299212598426,
                    "duration": 0.09375
                },
                {
                    "name": "D4",
                    "midi": 62,
                    "time": 261.65624999999983,
                    "velocity": 0.4881889763779528,
                    "duration": 0.09375
                },
                {
                    "name": "B3",
                    "midi": 59,
                    "time": 261.74999999999983,
                    "velocity": 0.48031496062992124,
                    "duration": 0.09375
                },
                {
                    "name": "G#3",
                    "midi": 56,
                    "time": 261.84374999999983,
                    "velocity": 0.47244094488188976,
                    "duration": 0.09375
                },
                {
                    "name": "A3",
                    "midi": 57,
                    "time": 261.93749999999983,
                    "velocity": 0.5354330708661418,
                    "duration": 0.09375
                },
                {
                    "name": "A4",
                    "midi": 69,
                    "time": 262.03124999999983,
                    "velocity": 0.4645669291338583,
                    "duration": 0.09375
                },
                {
                    "name": "C#4",
                    "midi": 61,
                    "time": 262.12499999999983,
                    "velocity": 0.4645669291338583,
                    "duration": 0.09375
                },
                {
                    "name": "G4",
                    "midi": 67,
                    "time": 262.21874999999983,
                    "velocity": 0.4645669291338583,
                    "duration": 0.09375
                },
                {
                    "name": "F4",
                    "midi": 65,
                    "time": 262.31249999999983,
                    "velocity": 0.4645669291338583,
                    "duration": 0.09375
                },
                {
                    "name": "D4",
                    "midi": 62,
                    "time": 262.40624999999983,
                    "velocity": 0.4645669291338583,
                    "duration": 0.09375
                },
                {
                    "name": "E4",
                    "midi": 64,
                    "time": 262.49999999999983,
                    "velocity": 0.5275590551181102,
                    "duration": 0.09375
                },
                {
                    "name": "A#4",
                    "midi": 70,
                    "time": 262.59374999999983,
                    "velocity": 0.44881889763779526,
                    "duration": 0.09375
                },
                {
                    "name": "A4",
                    "midi": 69,
                    "time": 262.68749999999983,
                    "velocity": 0.44881889763779526,
                    "duration": 0.09375
                },
                {
                    "name": "F4",
                    "midi": 65,
                    "time": 262.78124999999983,
                    "velocity": 0.44881889763779526,
                    "duration": 0.09375
                },
                {
                    "name": "G#4",
                    "midi": 68,
                    "time": 262.87499999999983,
                    "velocity": 0.44881889763779526,
                    "duration": 0.09375
                },
                {
                    "name": "D5",
                    "midi": 74,
                    "time": 262.96874999999983,
                    "velocity": 0.4409448818897638,
                    "duration": 0.09375
                },
                {
                    "name": "C5",
                    "midi": 72,
                    "time": 263.06249999999983,
                    "velocity": 0.5196850393700787,
                    "duration": 0.09375
                },
                {
                    "name": "A4",
                    "midi": 69,
                    "time": 263.15624999999983,
                    "velocity": 0.44881889763779526,
                    "duration": 0.09375
                },
                {
                    "name": "B4",
                    "midi": 71,
                    "time": 263.24999999999983,
                    "velocity": 0.44881889763779526,
                    "duration": 0.09375
                },
                {
                    "name": "F5",
                    "midi": 77,
                    "time": 263.34374999999983,
                    "velocity": 0.44881889763779526,
                    "duration": 0.09375
                },
                {
                    "name": "E5",
                    "midi": 76,
                    "time": 263.43749999999983,
                    "velocity": 0.4409448818897638,
                    "duration": 0.09375
                },
                {
                    "name": "C5",
                    "midi": 72,
                    "time": 263.53124999999983,
                    "velocity": 0.4330708661417323,
                    "duration": 0.09375
                },
                {
                    "name": "C#5",
                    "midi": 73,
                    "time": 263.62499999999983,
                    "velocity": 0.5118110236220472,
                    "duration": 0.09375
                },
                {
                    "name": "G5",
                    "midi": 79,
                    "time": 263.71874999999983,
                    "velocity": 0.4409448818897638,
                    "duration": 0.09375
                },
                {
                    "name": "F5",
                    "midi": 77,
                    "time": 263.81249999999983,
                    "velocity": 0.4409448818897638,
                    "duration": 0.09375
                },
                {
                    "name": "D5",
                    "midi": 74,
                    "time": 263.90624999999983,
                    "velocity": 0.4409448818897638,
                    "duration": 0.09375
                },
                {
                    "name": "E5",
                    "midi": 76,
                    "time": 263.99999999999983,
                    "velocity": 0.4409448818897638,
                    "duration": 0.09375
                },
                {
                    "name": "A#5",
                    "midi": 82,
                    "time": 264.09374999999983,
                    "velocity": 0.4409448818897638,
                    "duration": 0.09375
                },
                {
                    "name": "A5",
                    "midi": 81,
                    "time": 264.18749999999983,
                    "velocity": 0.5433070866141733,
                    "duration": 0.09375
                },
                {
                    "name": "F5",
                    "midi": 77,
                    "time": 264.28124999999983,
                    "velocity": 0.44881889763779526,
                    "duration": 0.09375
                },
                {
                    "name": "C#5",
                    "midi": 73,
                    "time": 264.37499999999983,
                    "velocity": 0.44881889763779526,
                    "duration": 0.09375
                },
                {
                    "name": "A5",
                    "midi": 81,
                    "time": 264.46874999999983,
                    "velocity": 0.4566929133858268,
                    "duration": 0.09375
                },
                {
                    "name": "F5",
                    "midi": 77,
                    "time": 264.56249999999983,
                    "velocity": 0.4566929133858268,
                    "duration": 0.09375
                },
                {
                    "name": "D5",
                    "midi": 74,
                    "time": 264.65624999999983,
                    "velocity": 0.47244094488188976,
                    "duration": 0.09375
                },
                {
                    "name": "E5",
                    "midi": 76,
                    "time": 264.74999999999983,
                    "velocity": 0.5590551181102362,
                    "duration": 0.09375
                },
                {
                    "name": "C6",
                    "midi": 84,
                    "time": 264.84374999999983,
                    "velocity": 0.47244094488188976,
                    "duration": 0.09375
                },
                {
                    "name": "A5",
                    "midi": 81,
                    "time": 264.93749999999983,
                    "velocity": 0.48031496062992124,
                    "duration": 0.09375
                },
                {
                    "name": "F5",
                    "midi": 77,
                    "time": 265.03124999999983,
                    "velocity": 0.47244094488188976,
                    "duration": 0.09375
                },
                {
                    "name": "G#5",
                    "midi": 80,
                    "time": 265.12499999999983,
                    "velocity": 0.48031496062992124,
                    "duration": 0.09375
                },
                {
                    "name": "E6",
                    "midi": 88,
                    "time": 265.21874999999983,
                    "velocity": 0.48031496062992124,
                    "duration": 0.09375
                },
                {
                    "name": "C6",
                    "midi": 84,
                    "time": 265.31249999999983,
                    "velocity": 0.5984251968503937,
                    "duration": 0.09375
                },
                {
                    "name": "A5",
                    "midi": 81,
                    "time": 265.40624999999983,
                    "velocity": 0.5196850393700787,
                    "duration": 0.09375
                },
                {
                    "name": "B5",
                    "midi": 83,
                    "time": 265.49999999999983,
                    "velocity": 0.5275590551181102,
                    "duration": 0.09375
                },
                {
                    "name": "G6",
                    "midi": 91,
                    "time": 265.59374999999983,
                    "velocity": 0.5275590551181102,
                    "duration": 0.09375
                },
                {
                    "name": "E6",
                    "midi": 88,
                    "time": 265.68749999999983,
                    "velocity": 0.5354330708661418,
                    "duration": 0.09375
                },
                {
                    "name": "C6",
                    "midi": 84,
                    "time": 265.78124999999983,
                    "velocity": 0.5354330708661418,
                    "duration": 0.09375
                },
                {
                    "name": "C#6",
                    "midi": 85,
                    "time": 265.87499999999983,
                    "velocity": 0.6456692913385826,
                    "duration": 0.09375
                },
                {
                    "name": "A6",
                    "midi": 93,
                    "time": 265.96874999999983,
                    "velocity": 0.5275590551181102,
                    "duration": 0.09375
                },
                {
                    "name": "F6",
                    "midi": 89,
                    "time": 266.06249999999983,
                    "velocity": 0.5354330708661418,
                    "duration": 0.09375
                },
                {
                    "name": "D6",
                    "midi": 86,
                    "time": 266.15624999999983,
                    "velocity": 0.5433070866141733,
                    "duration": 0.09375
                },
                {
                    "name": "E6",
                    "midi": 88,
                    "time": 266.24999999999983,
                    "velocity": 0.5433070866141733,
                    "duration": 0.09375
                },
                {
                    "name": "C7",
                    "midi": 96,
                    "time": 266.34374999999983,
                    "velocity": 0.5511811023622047,
                    "duration": 0.09375
                },
                {
                    "name": "A6",
                    "midi": 93,
                    "time": 266.43749999999983,
                    "velocity": 0.6456692913385826,
                    "duration": 0.09375
                },
                {
                    "name": "F6",
                    "midi": 89,
                    "time": 266.53124999999983,
                    "velocity": 0.5511811023622047,
                    "duration": 0.09375
                },
                {
                    "name": "B6",
                    "midi": 95,
                    "time": 266.62499999999983,
                    "velocity": 0.5511811023622047,
                    "duration": 0.09375
                },
                {
                    "name": "F7",
                    "midi": 101,
                    "time": 266.71874999999983,
                    "velocity": 0.5590551181102362,
                    "duration": 0.09375
                },
                {
                    "name": "C7",
                    "midi": 96,
                    "time": 266.81249999999983,
                    "velocity": 0.6141732283464567,
                    "duration": 0.09375
                },
                {
                    "name": "F6",
                    "midi": 89,
                    "time": 266.90624999999983,
                    "velocity": 0.5590551181102362,
                    "duration": 0.09375
                },
                {
                    "name": "B6",
                    "midi": 95,
                    "time": 266.99999999999983,
                    "velocity": 0.6299212598425197,
                    "duration": 0.09375
                },
                {
                    "name": "F7",
                    "midi": 101,
                    "time": 267.09374999999983,
                    "velocity": 0.5590551181102362,
                    "duration": 0.09375
                },
                {
                    "name": "C7",
                    "midi": 96,
                    "time": 267.18749999999983,
                    "velocity": 0.6299212598425197,
                    "duration": 0.09375
                },
                {
                    "name": "F6",
                    "midi": 89,
                    "time": 267.28124999999983,
                    "velocity": 0.5669291338582677,
                    "duration": 0.09375
                },
                {
                    "name": "B6",
                    "midi": 95,
                    "time": 267.37499999999983,
                    "velocity": 0.6220472440944882,
                    "duration": 0.09375
                },
                {
                    "name": "F7",
                    "midi": 101,
                    "time": 267.46874999999983,
                    "velocity": 0.5669291338582677,
                    "duration": 0.09375
                },
                {
                    "name": "C7",
                    "midi": 96,
                    "time": 267.56249999999983,
                    "velocity": 0.6141732283464567,
                    "duration": 0.09375
                },
                {
                    "name": "F6",
                    "midi": 89,
                    "time": 267.65624999999983,
                    "velocity": 0.5669291338582677,
                    "duration": 0.09375
                },
                {
                    "name": "B6",
                    "midi": 95,
                    "time": 267.74999999999983,
                    "velocity": 0.6141732283464567,
                    "duration": 0.09375
                },
                {
                    "name": "F7",
                    "midi": 101,
                    "time": 267.84374999999983,
                    "velocity": 0.5669291338582677,
                    "duration": 0.09375
                },
                {
                    "name": "C7",
                    "midi": 96,
                    "time": 267.93749999999983,
                    "velocity": 0.6062992125984252,
                    "duration": 0.09375
                },
                {
                    "name": "F6",
                    "midi": 89,
                    "time": 268.03124999999983,
                    "velocity": 0.5590551181102362,
                    "duration": 0.09375
                },
                {
                    "name": "B6",
                    "midi": 95,
                    "time": 268.12499999999983,
                    "velocity": 0.6141732283464567,
                    "duration": 0.09375
                },
                {
                    "name": "F7",
                    "midi": 101,
                    "time": 268.21874999999983,
                    "velocity": 0.5511811023622047,
                    "duration": 0.09375
                },
                {
                    "name": "C7",
                    "midi": 96,
                    "time": 268.31249999999983,
                    "velocity": 0.6220472440944882,
                    "duration": 0.09375
                },
                {
                    "name": "F6",
                    "midi": 89,
                    "time": 268.40624999999983,
                    "velocity": 0.5511811023622047,
                    "duration": 0.09375
                },
                {
                    "name": "B6",
                    "midi": 95,
                    "time": 268.49999999999983,
                    "velocity": 0.6141732283464567,
                    "duration": 0.09375
                },
                {
                    "name": "F7",
                    "midi": 101,
                    "time": 268.59374999999983,
                    "velocity": 0.5354330708661418,
                    "duration": 0.09375
                },
                {
                    "name": "C7",
                    "midi": 96,
                    "time": 268.68749999999983,
                    "velocity": 0.6141732283464567,
                    "duration": 0.09375
                },
                {
                    "name": "F6",
                    "midi": 89,
                    "time": 268.68749999999983,
                    "velocity": 0.6141732283464567,
                    "duration": 0.09375
                },
                {
                    "name": "D#4",
                    "midi": 63,
                    "time": 269.24999999999983,
                    "velocity": 0.4409448818897638,
                    "duration": 0.5625
                },
                {
                    "name": "F#4",
                    "midi": 66,
                    "time": 269.24999999999983,
                    "velocity": 0.4409448818897638,
                    "duration": 0.5625
                },
                {
                    "name": "C5",
                    "midi": 72,
                    "time": 269.24999999999983,
                    "velocity": 0.5196850393700787,
                    "duration": 0.5625
                },
                {
                    "name": "G4",
                    "midi": 67,
                    "time": 269.81249999999983,
                    "velocity": 0.4409448818897638,
                    "duration": 1.125
                },
                {
                    "name": "E4",
                    "midi": 64,
                    "time": 269.81249999999983,
                    "velocity": 0.4409448818897638,
                    "duration": 0.5625
                },
                {
                    "name": "C5",
                    "midi": 72,
                    "time": 269.81249999999983,
                    "velocity": 0.5354330708661418,
                    "duration": 2.0625
                },
                {
                    "name": "E4",
                    "midi": 64,
                    "time": 270.37499999999983,
                    "velocity": 0.48031496062992124,
                    "duration": 0.5625
                },
                {
                    "name": "G4",
                    "midi": 67,
                    "time": 270.93749999999983,
                    "velocity": 0.48031496062992124,
                    "duration": 0.5625
                },
                {
                    "name": "G4",
                    "midi": 67,
                    "time": 271.49999999999983,
                    "velocity": 0.47244094488188976,
                    "duration": 0.75
                },
                {
                    "name": "D#4",
                    "midi": 63,
                    "time": 272.62499999999983,
                    "velocity": 0.33070866141732286,
                    "duration": 0.37109375
                },
                {
                    "name": "A4",
                    "midi": 69,
                    "time": 272.62499999999983,
                    "velocity": 0.3937007874015748,
                    "duration": 0.37109375
                },
                {
                    "name": "D#4",
                    "midi": 63,
                    "time": 272.99999999999983,
                    "velocity": 0.31496062992125984,
                    "duration": 0.18593750000002274
                },
                {
                    "name": "A4",
                    "midi": 69,
                    "time": 272.99999999999983,
                    "velocity": 0.3779527559055118,
                    "duration": 0.18593750000002274
                },
                {
                    "name": "E4",
                    "midi": 64,
                    "time": 273.18749999999983,
                    "velocity": 0.3543307086614173,
                    "duration": 0.37109375
                },
                {
                    "name": "A#4",
                    "midi": 70,
                    "time": 273.18749999999983,
                    "velocity": 0.4251968503937008,
                    "duration": 0.37109375
                },
                {
                    "name": "E4",
                    "midi": 64,
                    "time": 273.56249999999983,
                    "velocity": 0.33858267716535434,
                    "duration": 0.18593750000002274
                },
                {
                    "name": "A#4",
                    "midi": 70,
                    "time": 273.56249999999983,
                    "velocity": 0.4094488188976378,
                    "duration": 0.18593750000002274
                },
                {
                    "name": "F4",
                    "midi": 65,
                    "time": 273.74999999999983,
                    "velocity": 0.3700787401574803,
                    "duration": 0.37109375
                },
                {
                    "name": "B4",
                    "midi": 71,
                    "time": 273.74999999999983,
                    "velocity": 0.4409448818897638,
                    "duration": 0.37109375
                },
                {
                    "name": "F4",
                    "midi": 65,
                    "time": 274.12499999999983,
                    "velocity": 0.3543307086614173,
                    "duration": 0.18593750000002274
                },
                {
                    "name": "F5",
                    "midi": 77,
                    "time": 274.12499999999983,
                    "velocity": 0.4251968503937008,
                    "duration": 0.18593750000002274
                },
                {
                    "name": "F4",
                    "midi": 65,
                    "time": 274.31249999999983,
                    "velocity": 0.3858267716535433,
                    "duration": 0.37109375
                },
                {
                    "name": "C5",
                    "midi": 72,
                    "time": 274.31249999999983,
                    "velocity": 0.4566929133858268,
                    "duration": 0.37109375
                },
                {
                    "name": "F4",
                    "midi": 65,
                    "time": 274.68749999999983,
                    "velocity": 0.3858267716535433,
                    "duration": 0.18593750000002274
                },
                {
                    "name": "A4",
                    "midi": 69,
                    "time": 274.87499999999983,
                    "velocity": 0.41732283464566927,
                    "duration": 0.37109375
                },
                {
                    "name": "D5",
                    "midi": 74,
                    "time": 274.87499999999983,
                    "velocity": 0.49606299212598426,
                    "duration": 0.37109375
                },
                {
                    "name": "A4",
                    "midi": 69,
                    "time": 275.24999999999983,
                    "velocity": 0.4015748031496063,
                    "duration": 0.18593750000002274
                },
                {
                    "name": "D5",
                    "midi": 74,
                    "time": 275.24999999999983,
                    "velocity": 0.48031496062992124,
                    "duration": 0.18593750000002274
                },
                {
                    "name": "A#4",
                    "midi": 70,
                    "time": 275.43749999999983,
                    "velocity": 0.3937007874015748,
                    "duration": 0.28125
                },
                {
                    "name": "D5",
                    "midi": 74,
                    "time": 275.43749999999983,
                    "velocity": 0.47244094488188976,
                    "duration": 0.28125
                },
                {
                    "name": "A#4",
                    "midi": 70,
                    "time": 275.7749999999998,
                    "velocity": 0.3464566929133858,
                    "duration": 0.13125000000002274
                },
                {
                    "name": "D5",
                    "midi": 74,
                    "time": 275.7937499999998,
                    "velocity": 0.4094488188976378,
                    "duration": 0.11250000000001137
                },
                {
                    "name": "A#5",
                    "midi": 82,
                    "time": 275.81249999999983,
                    "velocity": 0.4566929133858268,
                    "duration": 0.09375
                },
                {
                    "name": "A4",
                    "midi": 69,
                    "time": 275.9624999999998,
                    "velocity": 0.31496062992125984,
                    "duration": 0.31875000000002274
                },
                {
                    "name": "C5",
                    "midi": 72,
                    "time": 275.9812499999998,
                    "velocity": 0.3858267716535433,
                    "duration": 0.30000000000001137
                },
                {
                    "name": "A5",
                    "midi": 81,
                    "time": 275.99999999999983,
                    "velocity": 0.4409448818897638,
                    "duration": 0.28125
                },
                {
                    "name": "A#4",
                    "midi": 70,
                    "time": 276.3374999999998,
                    "velocity": 0.30708661417322836,
                    "duration": 0.13125000000002274
                },
                {
                    "name": "C5",
                    "midi": 72,
                    "time": 276.3562499999998,
                    "velocity": 0.36220472440944884,
                    "duration": 0.11250000000001137
                },
                {
                    "name": "G5",
                    "midi": 79,
                    "time": 276.37499999999983,
                    "velocity": 0.4094488188976378,
                    "duration": 0.09375
                },
                {
                    "name": "A4",
                    "midi": 69,
                    "time": 276.5249999999998,
                    "velocity": 0.2677165354330709,
                    "duration": 0.41250000000002274
                },
                {
                    "name": "C5",
                    "midi": 72,
                    "time": 276.5437499999998,
                    "velocity": 0.30708661417322836,
                    "duration": 0.39375000000001137
                },
                {
                    "name": "F5",
                    "midi": 77,
                    "time": 276.56249999999983,
                    "velocity": 0.3937007874015748,
                    "duration": 0.375
                },
                {
                    "name": "D#7",
                    "midi": 99,
                    "time": 277.12499999999983,
                    "velocity": 0.31496062992125984,
                    "duration": 0.09375
                },
                {
                    "name": "D7",
                    "midi": 98,
                    "time": 277.21874999999983,
                    "velocity": 0.30708661417322836,
                    "duration": 0.09375
                },
                {
                    "name": "F7",
                    "midi": 101,
                    "time": 277.31249999999983,
                    "velocity": 0.33070866141732286,
                    "duration": 0.09375
                },
                {
                    "name": "D#7",
                    "midi": 99,
                    "time": 277.40624999999983,
                    "velocity": 0.30708661417322836,
                    "duration": 0.09375
                },
                {
                    "name": "D7",
                    "midi": 98,
                    "time": 277.49999999999983,
                    "velocity": 0.30708661417322836,
                    "duration": 0.09375
                },
                {
                    "name": "C7",
                    "midi": 96,
                    "time": 277.59374999999983,
                    "velocity": 0.30708661417322836,
                    "duration": 0.09375
                },
                {
                    "name": "A#6",
                    "midi": 94,
                    "time": 277.68749999999983,
                    "velocity": 0.3228346456692913,
                    "duration": 0.09375
                },
                {
                    "name": "A6",
                    "midi": 93,
                    "time": 277.78124999999983,
                    "velocity": 0.30708661417322836,
                    "duration": 0.09375
                },
                {
                    "name": "C7",
                    "midi": 96,
                    "time": 277.87499999999983,
                    "velocity": 0.33858267716535434,
                    "duration": 0.09375
                },
                {
                    "name": "A#6",
                    "midi": 94,
                    "time": 277.96874999999983,
                    "velocity": 0.30708661417322836,
                    "duration": 0.09375
                },
                {
                    "name": "A6",
                    "midi": 93,
                    "time": 278.06249999999983,
                    "velocity": 0.30708661417322836,
                    "duration": 0.09375
                },
                {
                    "name": "G6",
                    "midi": 91,
                    "time": 278.15624999999983,
                    "velocity": 0.30708661417322836,
                    "duration": 0.09375
                },
                {
                    "name": "F6",
                    "midi": 89,
                    "time": 278.24999999999983,
                    "velocity": 0.33070866141732286,
                    "duration": 0.09375
                },
                {
                    "name": "E6",
                    "midi": 88,
                    "time": 278.34374999999983,
                    "velocity": 0.30708661417322836,
                    "duration": 0.09375
                },
                {
                    "name": "G6",
                    "midi": 91,
                    "time": 278.43749999999983,
                    "velocity": 0.3464566929133858,
                    "duration": 0.09375
                },
                {
                    "name": "F6",
                    "midi": 89,
                    "time": 278.53124999999983,
                    "velocity": 0.31496062992125984,
                    "duration": 0.09375
                },
                {
                    "name": "E6",
                    "midi": 88,
                    "time": 278.62499999999983,
                    "velocity": 0.31496062992125984,
                    "duration": 0.09375
                },
                {
                    "name": "D6",
                    "midi": 86,
                    "time": 278.71874999999983,
                    "velocity": 0.31496062992125984,
                    "duration": 0.09375
                },
                {
                    "name": "C6",
                    "midi": 84,
                    "time": 278.81249999999983,
                    "velocity": 0.33070866141732286,
                    "duration": 0.09375
                },
                {
                    "name": "B5",
                    "midi": 83,
                    "time": 278.90624999999983,
                    "velocity": 0.31496062992125984,
                    "duration": 0.09375
                },
                {
                    "name": "D6",
                    "midi": 86,
                    "time": 278.99999999999983,
                    "velocity": 0.3543307086614173,
                    "duration": 0.09375
                },
                {
                    "name": "C6",
                    "midi": 84,
                    "time": 279.09374999999983,
                    "velocity": 0.3228346456692913,
                    "duration": 0.09375
                },
                {
                    "name": "A#5",
                    "midi": 82,
                    "time": 279.18749999999983,
                    "velocity": 0.3228346456692913,
                    "duration": 0.09375
                },
                {
                    "name": "A5",
                    "midi": 81,
                    "time": 279.28124999999983,
                    "velocity": 0.33070866141732286,
                    "duration": 0.09375
                },
                {
                    "name": "D6",
                    "midi": 86,
                    "time": 279.37499999999983,
                    "velocity": 0.3464566929133858,
                    "duration": 0.09375
                },
                {
                    "name": "C#6",
                    "midi": 85,
                    "time": 279.46874999999983,
                    "velocity": 0.33070866141732286,
                    "duration": 0.09375
                },
                {
                    "name": "D#6",
                    "midi": 87,
                    "time": 279.56249999999983,
                    "velocity": 0.3700787401574803,
                    "duration": 0.09375
                },
                {
                    "name": "D6",
                    "midi": 86,
                    "time": 279.65624999999983,
                    "velocity": 0.33858267716535434,
                    "duration": 0.09375
                },
                {
                    "name": "C6",
                    "midi": 84,
                    "time": 279.74999999999983,
                    "velocity": 0.33858267716535434,
                    "duration": 0.09375
                },
                {
                    "name": "A5",
                    "midi": 81,
                    "time": 279.84374999999983,
                    "velocity": 0.33858267716535434,
                    "duration": 0.09375
                },
                {
                    "name": "A#5",
                    "midi": 82,
                    "time": 279.93749999999983,
                    "velocity": 0.3700787401574803,
                    "duration": 0.09375
                },
                {
                    "name": "A5",
                    "midi": 81,
                    "time": 280.03124999999983,
                    "velocity": 0.33858267716535434,
                    "duration": 0.09375
                },
                {
                    "name": "C6",
                    "midi": 84,
                    "time": 280.12499999999983,
                    "velocity": 0.3779527559055118,
                    "duration": 0.09375
                },
                {
                    "name": "A#5",
                    "midi": 82,
                    "time": 280.21874999999983,
                    "velocity": 0.3464566929133858,
                    "duration": 0.09375
                },
                {
                    "name": "G5",
                    "midi": 79,
                    "time": 280.31249999999983,
                    "velocity": 0.3464566929133858,
                    "duration": 0.09375
                },
                {
                    "name": "D5",
                    "midi": 74,
                    "time": 280.40624999999983,
                    "velocity": 0.3464566929133858,
                    "duration": 0.09375
                },
                {
                    "name": "C5",
                    "midi": 72,
                    "time": 280.49999999999983,
                    "velocity": 0.3779527559055118,
                    "duration": 0.09375
                },
                {
                    "name": "B4",
                    "midi": 71,
                    "time": 280.59374999999983,
                    "velocity": 0.3543307086614173,
                    "duration": 0.09375
                },
                {
                    "name": "D5",
                    "midi": 74,
                    "time": 280.68749999999983,
                    "velocity": 0.3937007874015748,
                    "duration": 0.09375
                },
                {
                    "name": "C5",
                    "midi": 72,
                    "time": 280.78124999999983,
                    "velocity": 0.3543307086614173,
                    "duration": 0.09375
                },
                {
                    "name": "A#4",
                    "midi": 70,
                    "time": 280.87499999999983,
                    "velocity": 0.3543307086614173,
                    "duration": 0.09375
                },
                {
                    "name": "G4",
                    "midi": 67,
                    "time": 280.96874999999983,
                    "velocity": 0.3543307086614173,
                    "duration": 0.09375
                },
                {
                    "name": "A4",
                    "midi": 69,
                    "time": 281.06249999999983,
                    "velocity": 0.3779527559055118,
                    "duration": 0.09375
                },
                {
                    "name": "G#4",
                    "midi": 68,
                    "time": 281.15624999999983,
                    "velocity": 0.3543307086614173,
                    "duration": 0.09375
                },
                {
                    "name": "A#4",
                    "midi": 70,
                    "time": 281.24999999999983,
                    "velocity": 0.4015748031496063,
                    "duration": 0.09375
                },
                {
                    "name": "A4",
                    "midi": 69,
                    "time": 281.34374999999983,
                    "velocity": 0.3543307086614173,
                    "duration": 0.09375
                },
                {
                    "name": "F4",
                    "midi": 65,
                    "time": 281.43749999999983,
                    "velocity": 0.3700787401574803,
                    "duration": 0.09375
                },
                {
                    "name": "A4",
                    "midi": 69,
                    "time": 281.53124999999983,
                    "velocity": 0.3700787401574803,
                    "duration": 0.09375
                },
                {
                    "name": "D#4",
                    "midi": 63,
                    "time": 281.62499999999983,
                    "velocity": 0.4330708661417323,
                    "duration": 0.375
                },
                {
                    "name": "A4",
                    "midi": 69,
                    "time": 281.71874999999983,
                    "velocity": 0.4015748031496063,
                    "duration": 0.09375
                },
                {
                    "name": "G#4",
                    "midi": 68,
                    "time": 281.81249999999983,
                    "velocity": 0.4015748031496063,
                    "duration": 0.09375
                },
                {
                    "name": "A4",
                    "midi": 69,
                    "time": 281.90624999999983,
                    "velocity": 0.4015748031496063,
                    "duration": 0.09375
                },
                {
                    "name": "D#4",
                    "midi": 63,
                    "time": 281.99999999999983,
                    "velocity": 0.4094488188976378,
                    "duration": 0.1875
                },
                {
                    "name": "A#4",
                    "midi": 70,
                    "time": 281.99999999999983,
                    "velocity": 0.3779527559055118,
                    "duration": 0.09375
                },
                {
                    "name": "A4",
                    "midi": 69,
                    "time": 282.09374999999983,
                    "velocity": 0.3779527559055118,
                    "duration": 0.09375
                },
                {
                    "name": "E4",
                    "midi": 64,
                    "time": 282.18749999999983,
                    "velocity": 0.4409448818897638,
                    "duration": 0.375
                },
                {
                    "name": "A#4",
                    "midi": 70,
                    "time": 282.28124999999983,
                    "velocity": 0.41732283464566927,
                    "duration": 0.09375
                },
                {
                    "name": "A4",
                    "midi": 69,
                    "time": 282.37499999999983,
                    "velocity": 0.41732283464566927,
                    "duration": 0.09375
                },
                {
                    "name": "A#4",
                    "midi": 70,
                    "time": 282.46874999999983,
                    "velocity": 0.41732283464566927,
                    "duration": 0.09375
                },
                {
                    "name": "E4",
                    "midi": 64,
                    "time": 282.56249999999983,
                    "velocity": 0.41732283464566927,
                    "duration": 0.1875
                },
                {
                    "name": "C5",
                    "midi": 72,
                    "time": 282.56249999999983,
                    "velocity": 0.4015748031496063,
                    "duration": 0.09375
                },
                {
                    "name": "A#4",
                    "midi": 70,
                    "time": 282.65624999999983,
                    "velocity": 0.4015748031496063,
                    "duration": 0.09375
                },
                {
                    "name": "F4",
                    "midi": 65,
                    "time": 282.74999999999983,
                    "velocity": 0.4566929133858268,
                    "duration": 0.375
                },
                {
                    "name": "B4",
                    "midi": 71,
                    "time": 282.84374999999983,
                    "velocity": 0.4251968503937008,
                    "duration": 0.09375
                },
                {
                    "name": "A#4",
                    "midi": 70,
                    "time": 282.93749999999983,
                    "velocity": 0.4251968503937008,
                    "duration": 0.09375
                },
                {
                    "name": "B4",
                    "midi": 71,
                    "time": 283.03124999999983,
                    "velocity": 0.4251968503937008,
                    "duration": 0.09375
                },
                {
                    "name": "F4",
                    "midi": 65,
                    "time": 283.12499999999983,
                    "velocity": 0.4409448818897638,
                    "duration": 0.1875
                },
                {
                    "name": "C5",
                    "midi": 72,
                    "time": 283.12499999999983,
                    "velocity": 0.41732283464566927,
                    "duration": 0.09375
                },
                {
                    "name": "B4",
                    "midi": 71,
                    "time": 283.21874999999983,
                    "velocity": 0.41732283464566927,
                    "duration": 0.09375
                },
                {
                    "name": "F4",
                    "midi": 65,
                    "time": 283.31249999999983,
                    "velocity": 0.48031496062992124,
                    "duration": 0.375
                },
                {
                    "name": "C5",
                    "midi": 72,
                    "time": 283.40624999999983,
                    "velocity": 0.4330708661417323,
                    "duration": 0.09375
                },
                {
                    "name": "B4",
                    "midi": 71,
                    "time": 283.49999999999983,
                    "velocity": 0.4330708661417323,
                    "duration": 0.09375
                },
                {
                    "name": "C5",
                    "midi": 72,
                    "time": 283.59374999999983,
                    "velocity": 0.4409448818897638,
                    "duration": 0.09375
                },
                {
                    "name": "D5",
                    "midi": 74,
                    "time": 283.68749999999983,
                    "velocity": 0.41732283464566927,
                    "duration": 0.09375
                },
                {
                    "name": "C5",
                    "midi": 72,
                    "time": 283.78124999999983,
                    "velocity": 0.41732283464566927,
                    "duration": 0.09375
                },
                {
                    "name": "A4",
                    "midi": 69,
                    "time": 283.87499999999983,
                    "velocity": 0.4881889763779528,
                    "duration": 0.375
                },
                {
                    "name": "D5",
                    "midi": 74,
                    "time": 283.96874999999983,
                    "velocity": 0.44881889763779526,
                    "duration": 0.09375
                },
                {
                    "name": "C#5",
                    "midi": 73,
                    "time": 284.06249999999983,
                    "velocity": 0.44881889763779526,
                    "duration": 0.09375
                },
                {
                    "name": "D5",
                    "midi": 74,
                    "time": 284.15624999999983,
                    "velocity": 0.44881889763779526,
                    "duration": 0.09375
                },
                {
                    "name": "A4",
                    "midi": 69,
                    "time": 284.24999999999983,
                    "velocity": 0.4645669291338583,
                    "duration": 0.1875
                },
                {
                    "name": "E5",
                    "midi": 76,
                    "time": 284.24999999999983,
                    "velocity": 0.4409448818897638,
                    "duration": 0.09375
                },
                {
                    "name": "D5",
                    "midi": 74,
                    "time": 284.34374999999983,
                    "velocity": 0.4409448818897638,
                    "duration": 0.09375
                },
                {
                    "name": "D5",
                    "midi": 74,
                    "time": 284.43749999999983,
                    "velocity": 0.49606299212598426,
                    "duration": 0.375
                },
                {
                    "name": "G5",
                    "midi": 79,
                    "time": 284.53124999999983,
                    "velocity": 0.4566929133858268,
                    "duration": 0.09375
                },
                {
                    "name": "F#5",
                    "midi": 78,
                    "time": 284.62499999999983,
                    "velocity": 0.4566929133858268,
                    "duration": 0.09375
                },
                {
                    "name": "G5",
                    "midi": 79,
                    "time": 284.71874999999983,
                    "velocity": 0.4566929133858268,
                    "duration": 0.09375
                },
                {
                    "name": "D5",
                    "midi": 74,
                    "time": 284.81249999999983,
                    "velocity": 0.47244094488188976,
                    "duration": 0.1875
                },
                {
                    "name": "A5",
                    "midi": 81,
                    "time": 284.81249999999983,
                    "velocity": 0.44881889763779526,
                    "duration": 0.09375
                },
                {
                    "name": "G5",
                    "midi": 79,
                    "time": 284.90624999999983,
                    "velocity": 0.4566929133858268,
                    "duration": 0.09375
                },
                {
                    "name": "G5",
                    "midi": 79,
                    "time": 284.99999999999983,
                    "velocity": 0.5275590551181102,
                    "duration": 0.375
                },
                {
                    "name": "C6",
                    "midi": 84,
                    "time": 285.09374999999983,
                    "velocity": 0.48031496062992124,
                    "duration": 0.09375
                },
                {
                    "name": "B5",
                    "midi": 83,
                    "time": 285.18749999999983,
                    "velocity": 0.48031496062992124,
                    "duration": 0.09375
                },
                {
                    "name": "C6",
                    "midi": 84,
                    "time": 285.28124999999983,
                    "velocity": 0.48031496062992124,
                    "duration": 0.09375
                },
                {
                    "name": "G5",
                    "midi": 79,
                    "time": 285.37499999999983,
                    "velocity": 0.5275590551181102,
                    "duration": 0.1875
                },
                {
                    "name": "D6",
                    "midi": 86,
                    "time": 285.37499999999983,
                    "velocity": 0.4645669291338583,
                    "duration": 0.09375
                },
                {
                    "name": "C6",
                    "midi": 84,
                    "time": 285.46874999999983,
                    "velocity": 0.4645669291338583,
                    "duration": 0.09375
                },
                {
                    "name": "C6",
                    "midi": 84,
                    "time": 285.56249999999983,
                    "velocity": 0.5433070866141733,
                    "duration": 0.375
                },
                {
                    "name": "F6",
                    "midi": 89,
                    "time": 285.65624999999983,
                    "velocity": 0.48031496062992124,
                    "duration": 0.09375
                },
                {
                    "name": "E6",
                    "midi": 88,
                    "time": 285.74999999999983,
                    "velocity": 0.49606299212598426,
                    "duration": 0.09375
                },
                {
                    "name": "F6",
                    "midi": 89,
                    "time": 285.84374999999983,
                    "velocity": 0.4645669291338583,
                    "duration": 0.09375
                },
                {
                    "name": "C6",
                    "midi": 84,
                    "time": 285.93749999999983,
                    "velocity": 0.5196850393700787,
                    "duration": 0.1875
                },
                {
                    "name": "G6",
                    "midi": 91,
                    "time": 285.93749999999983,
                    "velocity": 0.48031496062992124,
                    "duration": 0.09375
                },
                {
                    "name": "F6",
                    "midi": 89,
                    "time": 286.03124999999983,
                    "velocity": 0.48031496062992124,
                    "duration": 0.09375
                },
                {
                    "name": "D6",
                    "midi": 86,
                    "time": 286.12499999999983,
                    "velocity": 0.5118110236220472,
                    "duration": 0.09375
                },
                {
                    "name": "C#6",
                    "midi": 85,
                    "time": 286.21874999999983,
                    "velocity": 0.47244094488188976,
                    "duration": 0.09375
                },
                {
                    "name": "E6",
                    "midi": 88,
                    "time": 286.31249999999983,
                    "velocity": 0.5196850393700787,
                    "duration": 0.09375
                },
                {
                    "name": "D6",
                    "midi": 86,
                    "time": 286.40624999999983,
                    "velocity": 0.49606299212598426,
                    "duration": 0.09375
                },
                {
                    "name": "G5",
                    "midi": 79,
                    "time": 286.49999999999983,
                    "velocity": 0.5669291338582677,
                    "duration": 0.1875
                },
                {
                    "name": "E6",
                    "midi": 88,
                    "time": 286.68749999999983,
                    "velocity": 0.5905511811023622,
                    "duration": 0.375
                },
                {
                    "name": "A6",
                    "midi": 93,
                    "time": 286.78124999999983,
                    "velocity": 0.5354330708661418,
                    "duration": 0.09375
                },
                {
                    "name": "G#6",
                    "midi": 92,
                    "time": 286.87499999999983,
                    "velocity": 0.5433070866141733,
                    "duration": 0.09375
                },
                {
                    "name": "A6",
                    "midi": 93,
                    "time": 286.96874999999983,
                    "velocity": 0.49606299212598426,
                    "duration": 0.09375
                },
                {
                    "name": "E6",
                    "midi": 88,
                    "time": 287.06249999999983,
                    "velocity": 0.5669291338582677,
                    "duration": 0.1875
                },
                {
                    "name": "A#6",
                    "midi": 94,
                    "time": 287.06249999999983,
                    "velocity": 0.5039370078740157,
                    "duration": 0.09375
                },
                {
                    "name": "A6",
                    "midi": 93,
                    "time": 287.15624999999983,
                    "velocity": 0.5118110236220472,
                    "duration": 0.09375
                },
                {
                    "name": "F6",
                    "midi": 89,
                    "time": 287.24999999999983,
                    "velocity": 0.5669291338582677,
                    "duration": 0.09375
                },
                {
                    "name": "E6",
                    "midi": 88,
                    "time": 287.34374999999983,
                    "velocity": 0.5118110236220472,
                    "duration": 0.09375
                },
                {
                    "name": "G6",
                    "midi": 91,
                    "time": 287.43749999999983,
                    "velocity": 0.5748031496062992,
                    "duration": 0.09375
                },
                {
                    "name": "F6",
                    "midi": 89,
                    "time": 287.53124999999983,
                    "velocity": 0.5275590551181102,
                    "duration": 0.09375
                },
                {
                    "name": "D6",
                    "midi": 86,
                    "time": 287.62499999999983,
                    "velocity": 0.5905511811023622,
                    "duration": 0.1875
                },
                {
                    "name": "G6",
                    "midi": 91,
                    "time": 287.81249999999983,
                    "velocity": 0.6692913385826772,
                    "duration": 0.375
                },
                {
                    "name": "C7",
                    "midi": 96,
                    "time": 287.90624999999983,
                    "velocity": 0.5984251968503937,
                    "duration": 0.09375
                },
                {
                    "name": "B6",
                    "midi": 95,
                    "time": 287.99999999999983,
                    "velocity": 0.6141732283464567,
                    "duration": 0.09375
                },
                {
                    "name": "C7",
                    "midi": 96,
                    "time": 288.09374999999983,
                    "velocity": 0.5669291338582677,
                    "duration": 0.09375
                },
                {
                    "name": "G6",
                    "midi": 91,
                    "time": 288.18749999999983,
                    "velocity": 0.6377952755905512,
                    "duration": 0.1875
                },
                {
                    "name": "D7",
                    "midi": 98,
                    "time": 288.18749999999983,
                    "velocity": 0.5669291338582677,
                    "duration": 0.09375
                },
                {
                    "name": "C7",
                    "midi": 96,
                    "time": 288.28124999999983,
                    "velocity": 0.5826771653543307,
                    "duration": 0.09375
                },
                {
                    "name": "A6",
                    "midi": 93,
                    "time": 288.37499999999983,
                    "velocity": 0.6220472440944882,
                    "duration": 0.09375
                },
                {
                    "name": "G#6",
                    "midi": 92,
                    "time": 288.46874999999983,
                    "velocity": 0.5748031496062992,
                    "duration": 0.09375
                },
                {
                    "name": "A#6",
                    "midi": 94,
                    "time": 288.56249999999983,
                    "velocity": 0.6299212598425197,
                    "duration": 0.09375
                },
                {
                    "name": "A6",
                    "midi": 93,
                    "time": 288.65624999999983,
                    "velocity": 0.5748031496062992,
                    "duration": 0.09375
                },
                {
                    "name": "F6",
                    "midi": 89,
                    "time": 288.74999999999983,
                    "velocity": 0.6456692913385826,
                    "duration": 0.1875
                },
                {
                    "name": "G6",
                    "midi": 91,
                    "time": 288.93749999999983,
                    "velocity": 0.3779527559055118,
                    "duration": 0.09375
                },
                {
                    "name": "F#6",
                    "midi": 90,
                    "time": 289.03124999999983,
                    "velocity": 0.33070866141732286,
                    "duration": 0.09375
                },
                {
                    "name": "A6",
                    "midi": 93,
                    "time": 289.12499999999983,
                    "velocity": 0.3779527559055118,
                    "duration": 0.09375
                },
                {
                    "name": "G6",
                    "midi": 91,
                    "time": 289.21874999999983,
                    "velocity": 0.33070866141732286,
                    "duration": 0.09375
                },
                {
                    "name": "D6",
                    "midi": 86,
                    "time": 289.31249999999983,
                    "velocity": 0.33858267716535434,
                    "duration": 0.1875
                },
                {
                    "name": "G6",
                    "midi": 91,
                    "time": 289.49999999999983,
                    "velocity": 0.3779527559055118,
                    "duration": 0.09375
                },
                {
                    "name": "F#6",
                    "midi": 90,
                    "time": 289.59374999999983,
                    "velocity": 0.33070866141732286,
                    "duration": 0.09375
                },
                {
                    "name": "A6",
                    "midi": 93,
                    "time": 289.68749999999983,
                    "velocity": 0.3779527559055118,
                    "duration": 0.09375
                },
                {
                    "name": "G6",
                    "midi": 91,
                    "time": 289.78124999999983,
                    "velocity": 0.33070866141732286,
                    "duration": 0.09375
                },
                {
                    "name": "C#6",
                    "midi": 85,
                    "time": 289.87499999999983,
                    "velocity": 0.33858267716535434,
                    "duration": 0.1875
                },
                {
                    "name": "G6",
                    "midi": 91,
                    "time": 290.06249999999983,
                    "velocity": 0.3779527559055118,
                    "duration": 0.09375
                },
                {
                    "name": "F#6",
                    "midi": 90,
                    "time": 290.15624999999983,
                    "velocity": 0.33070866141732286,
                    "duration": 0.09375
                },
                {
                    "name": "A6",
                    "midi": 93,
                    "time": 290.24999999999983,
                    "velocity": 0.3779527559055118,
                    "duration": 0.09375
                },
                {
                    "name": "G6",
                    "midi": 91,
                    "time": 290.34374999999983,
                    "velocity": 0.33070866141732286,
                    "duration": 0.09375
                },
                {
                    "name": "C6",
                    "midi": 84,
                    "time": 290.43749999999983,
                    "velocity": 0.33858267716535434,
                    "duration": 0.1875
                },
                {
                    "name": "F6",
                    "midi": 89,
                    "time": 290.62499999999983,
                    "velocity": 0.3779527559055118,
                    "duration": 0.375
                },
                {
                    "name": "F7",
                    "midi": 101,
                    "time": 290.99999999999983,
                    "velocity": 0.33858267716535434,
                    "duration": 0.1875
                },
                {
                    "name": "F#6",
                    "midi": 90,
                    "time": 291.18749999999983,
                    "velocity": 0.3779527559055118,
                    "duration": 0.09375
                },
                {
                    "name": "A6",
                    "midi": 93,
                    "time": 291.28124999999983,
                    "velocity": 0.33070866141732286,
                    "duration": 0.09375
                },
                {
                    "name": "G6",
                    "midi": 91,
                    "time": 291.37499999999983,
                    "velocity": 0.3779527559055118,
                    "duration": 0.09375
                },
                {
                    "name": "D6",
                    "midi": 86,
                    "time": 291.46874999999983,
                    "velocity": 0.33070866141732286,
                    "duration": 0.09375
                },
                {
                    "name": "D7",
                    "midi": 98,
                    "time": 291.56249999999983,
                    "velocity": 0.3937007874015748,
                    "duration": 0.09375
                },
                {
                    "name": "F#6",
                    "midi": 90,
                    "time": 291.74999999999983,
                    "velocity": 0.3779527559055118,
                    "duration": 0.09375
                },
                {
                    "name": "A6",
                    "midi": 93,
                    "time": 291.84374999999983,
                    "velocity": 0.33070866141732286,
                    "duration": 0.09375
                },
                {
                    "name": "G6",
                    "midi": 91,
                    "time": 291.93749999999983,
                    "velocity": 0.3779527559055118,
                    "duration": 0.09375
                },
                {
                    "name": "C#6",
                    "midi": 85,
                    "time": 292.03124999999983,
                    "velocity": 0.33070866141732286,
                    "duration": 0.09375
                },
                {
                    "name": "C#7",
                    "midi": 97,
                    "time": 292.12499999999983,
                    "velocity": 0.3858267716535433,
                    "duration": 0.09375
                },
                {
                    "name": "F#6",
                    "midi": 90,
                    "time": 292.31249999999983,
                    "velocity": 0.3779527559055118,
                    "duration": 0.09375
                },
                {
                    "name": "A6",
                    "midi": 93,
                    "time": 292.40624999999983,
                    "velocity": 0.33070866141732286,
                    "duration": 0.09375
                },
                {
                    "name": "G6",
                    "midi": 91,
                    "time": 292.49999999999983,
                    "velocity": 0.3779527559055118,
                    "duration": 0.09375
                },
                {
                    "name": "C6",
                    "midi": 84,
                    "time": 292.59374999999983,
                    "velocity": 0.33070866141732286,
                    "duration": 0.09375
                },
                {
                    "name": "C7",
                    "midi": 96,
                    "time": 292.68749999999983,
                    "velocity": 0.3858267716535433,
                    "duration": 0.09375
                },
                {
                    "name": "G#6",
                    "midi": 92,
                    "time": 292.87499999999983,
                    "velocity": 0.3779527559055118,
                    "duration": 0.09375
                },
                {
                    "name": "A#6",
                    "midi": 94,
                    "time": 292.96874999999983,
                    "velocity": 0.33070866141732286,
                    "duration": 0.09375
                },
                {
                    "name": "A6",
                    "midi": 93,
                    "time": 293.06249999999983,
                    "velocity": 0.3779527559055118,
                    "duration": 0.09375
                },
                {
                    "name": "F6",
                    "midi": 89,
                    "time": 293.15624999999983,
                    "velocity": 0.33070866141732286,
                    "duration": 0.09375
                },
                {
                    "name": "F7",
                    "midi": 101,
                    "time": 293.24999999999983,
                    "velocity": 0.3937007874015748,
                    "duration": 0.1875
                },
                {
                    "name": "D7",
                    "midi": 98,
                    "time": 293.43749999999983,
                    "velocity": 0.47244094488188976,
                    "duration": 0.09375
                },
                {
                    "name": "C#7",
                    "midi": 97,
                    "time": 293.53124999999983,
                    "velocity": 0.4330708661417323,
                    "duration": 0.09375
                },
                {
                    "name": "E7",
                    "midi": 100,
                    "time": 293.62499999999983,
                    "velocity": 0.4330708661417323,
                    "duration": 0.09375
                },
                {
                    "name": "D7",
                    "midi": 98,
                    "time": 293.71874999999983,
                    "velocity": 0.4330708661417323,
                    "duration": 0.09375
                },
                {
                    "name": "B6",
                    "midi": 95,
                    "time": 293.81249999999983,
                    "velocity": 0.44881889763779526,
                    "duration": 0.09375
                },
                {
                    "name": "G6",
                    "midi": 91,
                    "time": 293.90624999999983,
                    "velocity": 0.41732283464566927,
                    "duration": 0.09375
                },
                {
                    "name": "C#7",
                    "midi": 97,
                    "time": 293.99999999999983,
                    "velocity": 0.47244094488188976,
                    "duration": 0.09375
                },
                {
                    "name": "C7",
                    "midi": 96,
                    "time": 294.09374999999983,
                    "velocity": 0.4330708661417323,
                    "duration": 0.09375
                },
                {
                    "name": "D#7",
                    "midi": 99,
                    "time": 294.18749999999983,
                    "velocity": 0.4330708661417323,
                    "duration": 0.09375
                },
                {
                    "name": "C#7",
                    "midi": 97,
                    "time": 294.28124999999983,
                    "velocity": 0.4330708661417323,
                    "duration": 0.09375
                },
                {
                    "name": "A#6",
                    "midi": 94,
                    "time": 294.37499999999983,
                    "velocity": 0.44881889763779526,
                    "duration": 0.09375
                },
                {
                    "name": "G6",
                    "midi": 91,
                    "time": 294.46874999999983,
                    "velocity": 0.4251968503937008,
                    "duration": 0.09375
                },
                {
                    "name": "A#6",
                    "midi": 94,
                    "time": 294.56249999999983,
                    "velocity": 0.48031496062992124,
                    "duration": 0.09375
                },
                {
                    "name": "A6",
                    "midi": 93,
                    "time": 294.65624999999983,
                    "velocity": 0.4330708661417323,
                    "duration": 0.09375
                },
                {
                    "name": "C7",
                    "midi": 96,
                    "time": 294.74999999999983,
                    "velocity": 0.4330708661417323,
                    "duration": 0.09375
                },
                {
                    "name": "A#6",
                    "midi": 94,
                    "time": 294.84374999999983,
                    "velocity": 0.4330708661417323,
                    "duration": 0.09375
                },
                {
                    "name": "G6",
                    "midi": 91,
                    "time": 294.93749999999983,
                    "velocity": 0.4566929133858268,
                    "duration": 0.09375
                },
                {
                    "name": "E6",
                    "midi": 88,
                    "time": 295.03124999999983,
                    "velocity": 0.4330708661417323,
                    "duration": 0.09375
                },
                {
                    "name": "A6",
                    "midi": 93,
                    "time": 295.12499999999983,
                    "velocity": 0.47244094488188976,
                    "duration": 0.09375
                },
                {
                    "name": "G#6",
                    "midi": 92,
                    "time": 295.21874999999983,
                    "velocity": 0.4330708661417323,
                    "duration": 0.09375
                },
                {
                    "name": "A#6",
                    "midi": 94,
                    "time": 295.31249999999983,
                    "velocity": 0.4330708661417323,
                    "duration": 0.09375
                },
                {
                    "name": "A6",
                    "midi": 93,
                    "time": 295.40624999999983,
                    "velocity": 0.4330708661417323,
                    "duration": 0.09375
                },
                {
                    "name": "F6",
                    "midi": 89,
                    "time": 295.49999999999983,
                    "velocity": 0.4409448818897638,
                    "duration": 0.09375
                },
                {
                    "name": "C6",
                    "midi": 84,
                    "time": 295.59374999999983,
                    "velocity": 0.4330708661417323,
                    "duration": 0.09375
                },
                {
                    "name": "D6",
                    "midi": 86,
                    "time": 295.68749999999983,
                    "velocity": 0.47244094488188976,
                    "duration": 0.09375
                },
                {
                    "name": "C#6",
                    "midi": 85,
                    "time": 295.78124999999983,
                    "velocity": 0.4330708661417323,
                    "duration": 0.09375
                },
                {
                    "name": "E6",
                    "midi": 88,
                    "time": 295.87499999999983,
                    "velocity": 0.4251968503937008,
                    "duration": 0.09375
                },
                {
                    "name": "D6",
                    "midi": 86,
                    "time": 295.96874999999983,
                    "velocity": 0.41732283464566927,
                    "duration": 0.09375
                },
                {
                    "name": "B5",
                    "midi": 83,
                    "time": 296.06249999999983,
                    "velocity": 0.4330708661417323,
                    "duration": 0.09375
                },
                {
                    "name": "G5",
                    "midi": 79,
                    "time": 296.15624999999983,
                    "velocity": 0.3937007874015748,
                    "duration": 0.09375
                },
                {
                    "name": "C#6",
                    "midi": 85,
                    "time": 296.24999999999983,
                    "velocity": 0.44881889763779526,
                    "duration": 0.09375
                },
                {
                    "name": "C6",
                    "midi": 84,
                    "time": 296.34374999999983,
                    "velocity": 0.4094488188976378,
                    "duration": 0.09375
                },
                {
                    "name": "D#6",
                    "midi": 87,
                    "time": 296.43749999999983,
                    "velocity": 0.4015748031496063,
                    "duration": 0.09375
                },
                {
                    "name": "C#6",
                    "midi": 85,
                    "time": 296.53124999999983,
                    "velocity": 0.4015748031496063,
                    "duration": 0.09375
                },
                {
                    "name": "A#5",
                    "midi": 82,
                    "time": 296.62499999999983,
                    "velocity": 0.4094488188976378,
                    "duration": 0.09375
                },
                {
                    "name": "G5",
                    "midi": 79,
                    "time": 296.71874999999983,
                    "velocity": 0.3858267716535433,
                    "duration": 0.09375
                },
                {
                    "name": "A#5",
                    "midi": 82,
                    "time": 296.81249999999983,
                    "velocity": 0.4251968503937008,
                    "duration": 0.09375
                },
                {
                    "name": "A5",
                    "midi": 81,
                    "time": 296.90624999999983,
                    "velocity": 0.3858267716535433,
                    "duration": 0.09375
                },
                {
                    "name": "C6",
                    "midi": 84,
                    "time": 296.99999999999983,
                    "velocity": 0.3779527559055118,
                    "duration": 0.09375
                },
                {
                    "name": "A#5",
                    "midi": 82,
                    "time": 297.09374999999983,
                    "velocity": 0.3779527559055118,
                    "duration": 0.09375
                },
                {
                    "name": "G5",
                    "midi": 79,
                    "time": 297.18749999999983,
                    "velocity": 0.3937007874015748,
                    "duration": 0.09375
                },
                {
                    "name": "E5",
                    "midi": 76,
                    "time": 297.28124999999983,
                    "velocity": 0.3700787401574803,
                    "duration": 0.09375
                },
                {
                    "name": "A5",
                    "midi": 81,
                    "time": 297.37499999999983,
                    "velocity": 0.4015748031496063,
                    "duration": 0.09375
                },
                {
                    "name": "G#5",
                    "midi": 80,
                    "time": 297.46874999999983,
                    "velocity": 0.36220472440944884,
                    "duration": 0.09375
                },
                {
                    "name": "A#5",
                    "midi": 82,
                    "time": 297.56249999999983,
                    "velocity": 0.36220472440944884,
                    "duration": 0.09375
                },
                {
                    "name": "A5",
                    "midi": 81,
                    "time": 297.65624999999983,
                    "velocity": 0.3543307086614173,
                    "duration": 0.09375
                },
                {
                    "name": "F5",
                    "midi": 77,
                    "time": 297.74999999999983,
                    "velocity": 0.3543307086614173,
                    "duration": 0.09375
                },
                {
                    "name": "C5",
                    "midi": 72,
                    "time": 297.84374999999983,
                    "velocity": 0.3464566929133858,
                    "duration": 0.09375
                },
                {
                    "name": "D5",
                    "midi": 74,
                    "time": 297.93749999999983,
                    "velocity": 0.3779527559055118,
                    "duration": 0.09375
                },
                {
                    "name": "C#5",
                    "midi": 73,
                    "time": 298.03124999999983,
                    "velocity": 0.3464566929133858,
                    "duration": 0.09375
                },
                {
                    "name": "E5",
                    "midi": 76,
                    "time": 298.12499999999983,
                    "velocity": 0.3464566929133858,
                    "duration": 0.09375
                },
                {
                    "name": "D5",
                    "midi": 74,
                    "time": 298.21874999999983,
                    "velocity": 0.3464566929133858,
                    "duration": 0.09375
                },
                {
                    "name": "B4",
                    "midi": 71,
                    "time": 298.31249999999983,
                    "velocity": 0.3543307086614173,
                    "duration": 0.09375
                },
                {
                    "name": "G4",
                    "midi": 67,
                    "time": 298.40624999999983,
                    "velocity": 0.33070866141732286,
                    "duration": 0.09375
                },
                {
                    "name": "C#5",
                    "midi": 73,
                    "time": 298.49999999999983,
                    "velocity": 0.3779527559055118,
                    "duration": 0.09375
                },
                {
                    "name": "C5",
                    "midi": 72,
                    "time": 298.59374999999983,
                    "velocity": 0.3464566929133858,
                    "duration": 0.09375
                },
                {
                    "name": "D#5",
                    "midi": 75,
                    "time": 298.68749999999983,
                    "velocity": 0.3464566929133858,
                    "duration": 0.09375
                },
                {
                    "name": "C#5",
                    "midi": 73,
                    "time": 298.78124999999983,
                    "velocity": 0.3464566929133858,
                    "duration": 0.09375
                },
                {
                    "name": "A#4",
                    "midi": 70,
                    "time": 298.87499999999983,
                    "velocity": 0.3543307086614173,
                    "duration": 0.09375
                },
                {
                    "name": "G4",
                    "midi": 67,
                    "time": 298.96874999999983,
                    "velocity": 0.33858267716535434,
                    "duration": 0.09375
                },
                {
                    "name": "A#4",
                    "midi": 70,
                    "time": 299.06249999999983,
                    "velocity": 0.3779527559055118,
                    "duration": 0.09375
                },
                {
                    "name": "A4",
                    "midi": 69,
                    "time": 299.15624999999983,
                    "velocity": 0.3464566929133858,
                    "duration": 0.09375
                },
                {
                    "name": "C5",
                    "midi": 72,
                    "time": 299.24999999999983,
                    "velocity": 0.3464566929133858,
                    "duration": 0.09375
                },
                {
                    "name": "A#4",
                    "midi": 70,
                    "time": 299.34374999999983,
                    "velocity": 0.3464566929133858,
                    "duration": 0.09375
                },
                {
                    "name": "G4",
                    "midi": 67,
                    "time": 299.43749999999983,
                    "velocity": 0.36220472440944884,
                    "duration": 0.09375
                },
                {
                    "name": "E4",
                    "midi": 64,
                    "time": 299.53124999999983,
                    "velocity": 0.3464566929133858,
                    "duration": 0.09375
                },
                {
                    "name": "A4",
                    "midi": 69,
                    "time": 299.62499999999983,
                    "velocity": 0.3779527559055118,
                    "duration": 0.09375
                },
                {
                    "name": "G#4",
                    "midi": 68,
                    "time": 299.71874999999983,
                    "velocity": 0.3464566929133858,
                    "duration": 0.09375
                },
                {
                    "name": "A#4",
                    "midi": 70,
                    "time": 299.81249999999983,
                    "velocity": 0.3464566929133858,
                    "duration": 0.09375
                },
                {
                    "name": "A4",
                    "midi": 69,
                    "time": 299.90624999999983,
                    "velocity": 0.3464566929133858,
                    "duration": 0.09375
                },
                {
                    "name": "F4",
                    "midi": 65,
                    "time": 299.99999999999983,
                    "velocity": 0.3464566929133858,
                    "duration": 0.09375
                },
                {
                    "name": "C4",
                    "midi": 60,
                    "time": 300.09374999999983,
                    "velocity": 0.3464566929133858,
                    "duration": 0.09375
                },
                {
                    "name": "D4",
                    "midi": 62,
                    "time": 300.18749999999983,
                    "velocity": 0.31496062992125984,
                    "duration": 0.109375
                },
                {
                    "name": "C#4",
                    "midi": 61,
                    "time": 300.28124999999983,
                    "velocity": 0.29133858267716534,
                    "duration": 0.109375
                },
                {
                    "name": "E4",
                    "midi": 64,
                    "time": 300.37499999999983,
                    "velocity": 0.29133858267716534,
                    "duration": 0.109375
                },
                {
                    "name": "D4",
                    "midi": 62,
                    "time": 300.46874999999983,
                    "velocity": 0.28346456692913385,
                    "duration": 0.109375
                },
                {
                    "name": "B3",
                    "midi": 59,
                    "time": 300.56249999999983,
                    "velocity": 0.29133858267716534,
                    "duration": 0.109375
                },
                {
                    "name": "G3",
                    "midi": 55,
                    "time": 300.65624999999983,
                    "velocity": 0.2677165354330709,
                    "duration": 0.109375
                },
                {
                    "name": "C#4",
                    "midi": 61,
                    "time": 300.74999999999983,
                    "velocity": 0.30708661417322836,
                    "duration": 0.109375
                },
                {
                    "name": "C4",
                    "midi": 60,
                    "time": 300.84374999999983,
                    "velocity": 0.28346456692913385,
                    "duration": 0.109375
                },
                {
                    "name": "D#4",
                    "midi": 63,
                    "time": 300.93749999999983,
                    "velocity": 0.2755905511811024,
                    "duration": 0.109375
                },
                {
                    "name": "C#4",
                    "midi": 61,
                    "time": 301.03124999999983,
                    "velocity": 0.2755905511811024,
                    "duration": 0.109375
                },
                {
                    "name": "A#3",
                    "midi": 58,
                    "time": 301.12499999999983,
                    "velocity": 0.28346456692913385,
                    "duration": 0.109375
                },
                {
                    "name": "G3",
                    "midi": 55,
                    "time": 301.21874999999983,
                    "velocity": 0.2677165354330709,
                    "duration": 0.109375
                },
                {
                    "name": "A#3",
                    "midi": 58,
                    "time": 301.31249999999983,
                    "velocity": 0.2992125984251969,
                    "duration": 0.109375
                },
                {
                    "name": "A3",
                    "midi": 57,
                    "time": 301.40624999999983,
                    "velocity": 0.2755905511811024,
                    "duration": 0.109375
                },
                {
                    "name": "C4",
                    "midi": 60,
                    "time": 301.49999999999983,
                    "velocity": 0.2755905511811024,
                    "duration": 0.109375
                },
                {
                    "name": "A#3",
                    "midi": 58,
                    "time": 301.59374999999983,
                    "velocity": 0.2677165354330709,
                    "duration": 0.109375
                },
                {
                    "name": "G3",
                    "midi": 55,
                    "time": 301.68749999999983,
                    "velocity": 0.28346456692913385,
                    "duration": 0.109375
                },
                {
                    "name": "E3",
                    "midi": 52,
                    "time": 301.78124999999983,
                    "velocity": 0.2677165354330709,
                    "duration": 0.109375
                },
                {
                    "name": "G3",
                    "midi": 55,
                    "time": 301.87499999999983,
                    "velocity": 0.29133858267716534,
                    "duration": 0.109375
                },
                {
                    "name": "F#3",
                    "midi": 54,
                    "time": 301.96874999999983,
                    "velocity": 0.2677165354330709,
                    "duration": 0.109375
                },
                {
                    "name": "A3",
                    "midi": 57,
                    "time": 302.06249999999983,
                    "velocity": 0.2677165354330709,
                    "duration": 0.109375
                },
                {
                    "name": "G3",
                    "midi": 55,
                    "time": 302.15624999999983,
                    "velocity": 0.2677165354330709,
                    "duration": 0.109375
                },
                {
                    "name": "E3",
                    "midi": 52,
                    "time": 302.24999999999983,
                    "velocity": 0.25984251968503935,
                    "duration": 0.109375
                },
                {
                    "name": "C3",
                    "midi": 48,
                    "time": 302.34374999999983,
                    "velocity": 0.25984251968503935,
                    "duration": 0.09375
                },
                {
                    "name": "F3",
                    "midi": 53,
                    "time": 302.43749999999983,
                    "velocity": 0.28346456692913385,
                    "duration": 0.109375
                },
                {
                    "name": "E3",
                    "midi": 52,
                    "time": 302.53124999999983,
                    "velocity": 0.25984251968503935,
                    "duration": 0.109375
                },
                {
                    "name": "F3",
                    "midi": 53,
                    "time": 302.62499999999983,
                    "velocity": 0.25984251968503935,
                    "duration": 0.109375
                },
                {
                    "name": "C3",
                    "midi": 48,
                    "time": 302.71874999999983,
                    "velocity": 0.25196850393700787,
                    "duration": 0.109375
                },
                {
                    "name": "A2",
                    "midi": 45,
                    "time": 302.81249999999983,
                    "velocity": 0.2677165354330709,
                    "duration": 0.109375
                },
                {
                    "name": "C3",
                    "midi": 48,
                    "time": 302.90624999999983,
                    "velocity": 0.25196850393700787,
                    "duration": 0.109375
                },
                {
                    "name": "E3",
                    "midi": 52,
                    "time": 302.99999999999983,
                    "velocity": 0.2755905511811024,
                    "duration": 0.109375
                },
                {
                    "name": "D#3",
                    "midi": 51,
                    "time": 303.09374999999983,
                    "velocity": 0.25196850393700787,
                    "duration": 0.109375
                },
                {
                    "name": "E3",
                    "midi": 52,
                    "time": 303.18749999999983,
                    "velocity": 0.25196850393700787,
                    "duration": 0.109375
                },
                {
                    "name": "A#2",
                    "midi": 46,
                    "time": 303.28124999999983,
                    "velocity": 0.25196850393700787,
                    "duration": 0.109375
                },
                {
                    "name": "G2",
                    "midi": 43,
                    "time": 303.37499999999983,
                    "velocity": 0.2440944881889764,
                    "duration": 0.109375
                },
                {
                    "name": "A#2",
                    "midi": 46,
                    "time": 303.46874999999983,
                    "velocity": 0.2440944881889764,
                    "duration": 0.109375
                },
                {
                    "name": "F3",
                    "midi": 53,
                    "time": 303.56249999999983,
                    "velocity": 0.2677165354330709,
                    "duration": 0.109375
                },
                {
                    "name": "E3",
                    "midi": 52,
                    "time": 303.65624999999983,
                    "velocity": 0.2440944881889764,
                    "duration": 0.109375
                },
                {
                    "name": "F3",
                    "midi": 53,
                    "time": 303.74999999999983,
                    "velocity": 0.2440944881889764,
                    "duration": 0.109375
                },
                {
                    "name": "C3",
                    "midi": 48,
                    "time": 303.84374999999983,
                    "velocity": 0.2440944881889764,
                    "duration": 0.109375
                },
                {
                    "name": "A2",
                    "midi": 45,
                    "time": 303.93749999999983,
                    "velocity": 0.25984251968503935,
                    "duration": 0.109375
                },
                {
                    "name": "C3",
                    "midi": 48,
                    "time": 304.03124999999983,
                    "velocity": 0.2440944881889764,
                    "duration": 0.109375
                },
                {
                    "name": "E3",
                    "midi": 52,
                    "time": 304.12499999999983,
                    "velocity": 0.2677165354330709,
                    "duration": 0.109375
                },
                {
                    "name": "D#3",
                    "midi": 51,
                    "time": 304.21874999999983,
                    "velocity": 0.2440944881889764,
                    "duration": 0.109375
                },
                {
                    "name": "E3",
                    "midi": 52,
                    "time": 304.31249999999983,
                    "velocity": 0.2440944881889764,
                    "duration": 0.109375
                },
                {
                    "name": "A#2",
                    "midi": 46,
                    "time": 304.40624999999983,
                    "velocity": 0.2440944881889764,
                    "duration": 0.109375
                },
                {
                    "name": "G2",
                    "midi": 43,
                    "time": 304.49999999999983,
                    "velocity": 0.2440944881889764,
                    "duration": 0.109375
                },
                {
                    "name": "A#2",
                    "midi": 46,
                    "time": 304.59374999999983,
                    "velocity": 0.2440944881889764,
                    "duration": 0.109375
                },
                {
                    "name": "F3",
                    "midi": 53,
                    "time": 304.68749999999983,
                    "velocity": 0.2677165354330709,
                    "duration": 0.109375
                },
                {
                    "name": "E3",
                    "midi": 52,
                    "time": 304.78124999999983,
                    "velocity": 0.2440944881889764,
                    "duration": 0.109375
                },
                {
                    "name": "F3",
                    "midi": 53,
                    "time": 304.87499999999983,
                    "velocity": 0.2440944881889764,
                    "duration": 0.109375
                },
                {
                    "name": "C3",
                    "midi": 48,
                    "time": 304.96874999999983,
                    "velocity": 0.2440944881889764,
                    "duration": 0.109375
                },
                {
                    "name": "A2",
                    "midi": 45,
                    "time": 305.06249999999983,
                    "velocity": 0.25984251968503935,
                    "duration": 0.109375
                },
                {
                    "name": "C3",
                    "midi": 48,
                    "time": 305.15624999999983,
                    "velocity": 0.2440944881889764,
                    "duration": 0.109375
                },
                {
                    "name": "E3",
                    "midi": 52,
                    "time": 305.24999999999983,
                    "velocity": 0.2677165354330709,
                    "duration": 0.109375
                },
                {
                    "name": "D#3",
                    "midi": 51,
                    "time": 305.34374999999983,
                    "velocity": 0.2440944881889764,
                    "duration": 0.109375
                },
                {
                    "name": "E3",
                    "midi": 52,
                    "time": 305.43749999999983,
                    "velocity": 0.2440944881889764,
                    "duration": 0.109375
                },
                {
                    "name": "A#2",
                    "midi": 46,
                    "time": 305.53124999999983,
                    "velocity": 0.2440944881889764,
                    "duration": 0.109375
                },
                {
                    "name": "G2",
                    "midi": 43,
                    "time": 305.62499999999983,
                    "velocity": 0.2440944881889764,
                    "duration": 0.109375
                },
                {
                    "name": "A#2",
                    "midi": 46,
                    "time": 305.71874999999983,
                    "velocity": 0.2440944881889764,
                    "duration": 0.09375
                },
                {
                    "name": "F3",
                    "midi": 53,
                    "time": 305.81249999999983,
                    "velocity": 0.2440944881889764,
                    "duration": 0.1875
                },
                {
                    "name": "A2",
                    "midi": 45,
                    "time": 305.81249999999983,
                    "velocity": 0.2047244094488189,
                    "duration": 0.1875
                },
                {
                    "name": "E4",
                    "midi": 64,
                    "time": 306.37499999999983,
                    "velocity": 0.2047244094488189,
                    "duration": 0.09375
                },
                {
                    "name": "C5",
                    "midi": 72,
                    "time": 306.37499999999983,
                    "velocity": 0.2440944881889764,
                    "duration": 0.09375
                },
                {
                    "name": "A3",
                    "midi": 57,
                    "time": 306.93749999999983,
                    "velocity": 0.2047244094488189,
                    "duration": 0.09375
                },
                {
                    "name": "F4",
                    "midi": 65,
                    "time": 306.93749999999983,
                    "velocity": 0.2440944881889764,
                    "duration": 0.09375
                }
            ],
            "controlChanges": {
                "7": [
                    {
                        "number": 7,
                        "time": 0,
                        "value": 0.7874015748031497
                    }
                ],
                "10": [
                    {
                        "number": 10,
                        "time": 0,
                        "value": 0.5039370078740157
                    }
                ],
                "91": [
                    {
                        "number": 91,
                        "time": 0,
                        "value": 1
                    },
                    {
                        "number": 91,
                        "time": 37.125,
                        "value": 1
                    },
                    {
                        "number": 91,
                        "time": 74.25,
                        "value": 1
                    },
                    {
                        "number": 91,
                        "time": 111.375,
                        "value": 1
                    },
                    {
                        "number": 91,
                        "time": 186.18984374999982,
                        "value": 1
                    },
                    {
                        "number": 91,
                        "time": 186.56249999999983,
                        "value": 1
                    }
                ]
            },
            "id": 1,
            "name": "Piano right",
            "instrumentNumber": 0,
            "instrument": "acoustic grand piano",
            "instrumentFamily": "piano",
            "channelNumber": 0,
            "isPercussion": false
        },
        {
            "startTime": 1.125,
            "duration": 307.03125000000017,
            "length": 2271,
            "notes": [
                {
                    "name": "C3",
                    "midi": 48,
                    "time": 1.125,
                    "velocity": 0.3543307086614173,
                    "duration": 0.1781250000000001
                },
                {
                    "name": "E4",
                    "midi": 64,
                    "time": 1.3125,
                    "velocity": 0.2755905511811024,
                    "duration": 0.1781250000000001
                },
                {
                    "name": "C4",
                    "midi": 60,
                    "time": 1.3125,
                    "velocity": 0.2283464566929134,
                    "duration": 0.1781250000000001
                },
                {
                    "name": "A#3",
                    "midi": 58,
                    "time": 1.3125,
                    "velocity": 0.2283464566929134,
                    "duration": 0.1781250000000001
                },
                {
                    "name": "A#3",
                    "midi": 58,
                    "time": 1.5,
                    "velocity": 0.23622047244094488,
                    "duration": 0.1781250000000001
                },
                {
                    "name": "C4",
                    "midi": 60,
                    "time": 1.5,
                    "velocity": 0.23622047244094488,
                    "duration": 0.1781250000000001
                },
                {
                    "name": "E4",
                    "midi": 64,
                    "time": 1.5,
                    "velocity": 0.28346456692913385,
                    "duration": 0.1781250000000001
                },
                {
                    "name": "A#3",
                    "midi": 58,
                    "time": 1.6875,
                    "velocity": 0.23622047244094488,
                    "duration": 0.1781250000000001
                },
                {
                    "name": "C4",
                    "midi": 60,
                    "time": 1.6875,
                    "velocity": 0.23622047244094488,
                    "duration": 0.1781250000000001
                },
                {
                    "name": "E4",
                    "midi": 64,
                    "time": 1.6875,
                    "velocity": 0.28346456692913385,
                    "duration": 0.1781250000000001
                },
                {
                    "name": "A#3",
                    "midi": 58,
                    "time": 1.875,
                    "velocity": 0.25196850393700787,
                    "duration": 0.1781250000000001
                },
                {
                    "name": "C4",
                    "midi": 60,
                    "time": 1.875,
                    "velocity": 0.25196850393700787,
                    "duration": 0.1781250000000001
                },
                {
                    "name": "E4",
                    "midi": 64,
                    "time": 1.875,
                    "velocity": 0.2992125984251969,
                    "duration": 0.1781250000000001
                },
                {
                    "name": "A#3",
                    "midi": 58,
                    "time": 2.0625,
                    "velocity": 0.25984251968503935,
                    "duration": 0.1781250000000001
                },
                {
                    "name": "C4",
                    "midi": 60,
                    "time": 2.0625,
                    "velocity": 0.25984251968503935,
                    "duration": 0.1781250000000001
                },
                {
                    "name": "E4",
                    "midi": 64,
                    "time": 2.0625,
                    "velocity": 0.30708661417322836,
                    "duration": 0.1781250000000001
                },
                {
                    "name": "C3",
                    "midi": 48,
                    "time": 2.25,
                    "velocity": 0.3937007874015748,
                    "duration": 0.1781250000000001
                },
                {
                    "name": "E4",
                    "midi": 64,
                    "time": 2.4375,
                    "velocity": 0.2755905511811024,
                    "duration": 0.1781250000000001
                },
                {
                    "name": "C4",
                    "midi": 60,
                    "time": 2.4375,
                    "velocity": 0.2283464566929134,
                    "duration": 0.1781250000000001
                },
                {
                    "name": "A#3",
                    "midi": 58,
                    "time": 2.4375,
                    "velocity": 0.2283464566929134,
                    "duration": 0.1781250000000001
                },
                {
                    "name": "E4",
                    "midi": 64,
                    "time": 2.625,
                    "velocity": 0.28346456692913385,
                    "duration": 0.1781250000000001
                },
                {
                    "name": "C4",
                    "midi": 60,
                    "time": 2.625,
                    "velocity": 0.23622047244094488,
                    "duration": 0.1781250000000001
                },
                {
                    "name": "A#3",
                    "midi": 58,
                    "time": 2.625,
                    "velocity": 0.23622047244094488,
                    "duration": 0.1781250000000001
                },
                {
                    "name": "E4",
                    "midi": 64,
                    "time": 2.8125,
                    "velocity": 0.29133858267716534,
                    "duration": 0.1781250000000001
                },
                {
                    "name": "C4",
                    "midi": 60,
                    "time": 2.8125,
                    "velocity": 0.2440944881889764,
                    "duration": 0.1781250000000001
                },
                {
                    "name": "A#3",
                    "midi": 58,
                    "time": 2.8125,
                    "velocity": 0.2440944881889764,
                    "duration": 0.1781250000000001
                },
                {
                    "name": "E4",
                    "midi": 64,
                    "time": 3,
                    "velocity": 0.2992125984251969,
                    "duration": 0.17812499999999964
                },
                {
                    "name": "C4",
                    "midi": 60,
                    "time": 3,
                    "velocity": 0.25196850393700787,
                    "duration": 0.17812499999999964
                },
                {
                    "name": "A#3",
                    "midi": 58,
                    "time": 3,
                    "velocity": 0.25196850393700787,
                    "duration": 0.17812499999999964
                },
                {
                    "name": "E4",
                    "midi": 64,
                    "time": 3.1874999999999996,
                    "velocity": 0.30708661417322836,
                    "duration": 0.1781250000000001
                },
                {
                    "name": "C4",
                    "midi": 60,
                    "time": 3.1874999999999996,
                    "velocity": 0.25984251968503935,
                    "duration": 0.1781250000000001
                },
                {
                    "name": "A#3",
                    "midi": 58,
                    "time": 3.1874999999999996,
                    "velocity": 0.25984251968503935,
                    "duration": 0.1781250000000001
                },
                {
                    "name": "F3",
                    "midi": 53,
                    "time": 3.3749999999999996,
                    "velocity": 0.3937007874015748,
                    "duration": 0.1781250000000001
                },
                {
                    "name": "F4",
                    "midi": 65,
                    "time": 3.5624999999999996,
                    "velocity": 0.2755905511811024,
                    "duration": 0.1781250000000001
                },
                {
                    "name": "C4",
                    "midi": 60,
                    "time": 3.5624999999999996,
                    "velocity": 0.2283464566929134,
                    "duration": 0.1781250000000001
                },
                {
                    "name": "A3",
                    "midi": 57,
                    "time": 3.5624999999999996,
                    "velocity": 0.2283464566929134,
                    "duration": 0.1781250000000001
                },
                {
                    "name": "A3",
                    "midi": 57,
                    "time": 3.7499999999999996,
                    "velocity": 0.23622047244094488,
                    "duration": 0.1781250000000001
                },
                {
                    "name": "C4",
                    "midi": 60,
                    "time": 3.7499999999999996,
                    "velocity": 0.23622047244094488,
                    "duration": 0.1781250000000001
                },
                {
                    "name": "F4",
                    "midi": 65,
                    "time": 3.7499999999999996,
                    "velocity": 0.28346456692913385,
                    "duration": 0.1781250000000001
                },
                {
                    "name": "A3",
                    "midi": 57,
                    "time": 3.9374999999999996,
                    "velocity": 0.2440944881889764,
                    "duration": 0.1781250000000001
                },
                {
                    "name": "C4",
                    "midi": 60,
                    "time": 3.9374999999999996,
                    "velocity": 0.2440944881889764,
                    "duration": 0.1781250000000001
                },
                {
                    "name": "F4",
                    "midi": 65,
                    "time": 3.9374999999999996,
                    "velocity": 0.29133858267716534,
                    "duration": 0.1781250000000001
                },
                {
                    "name": "A3",
                    "midi": 57,
                    "time": 4.125,
                    "velocity": 0.25196850393700787,
                    "duration": 0.17812499999999964
                },
                {
                    "name": "C4",
                    "midi": 60,
                    "time": 4.125,
                    "velocity": 0.25196850393700787,
                    "duration": 0.17812499999999964
                },
                {
                    "name": "F4",
                    "midi": 65,
                    "time": 4.125,
                    "velocity": 0.2992125984251969,
                    "duration": 0.17812499999999964
                },
                {
                    "name": "A3",
                    "midi": 57,
                    "time": 4.3125,
                    "velocity": 0.25984251968503935,
                    "duration": 0.17812499999999964
                },
                {
                    "name": "C4",
                    "midi": 60,
                    "time": 4.3125,
                    "velocity": 0.25984251968503935,
                    "duration": 0.17812499999999964
                },
                {
                    "name": "F4",
                    "midi": 65,
                    "time": 4.3125,
                    "velocity": 0.30708661417322836,
                    "duration": 0.17812499999999964
                },
                {
                    "name": "A2",
                    "midi": 45,
                    "time": 4.5,
                    "velocity": 0.3937007874015748,
                    "duration": 0.17812500000000053
                },
                {
                    "name": "F4",
                    "midi": 65,
                    "time": 4.687500000000001,
                    "velocity": 0.3228346456692913,
                    "duration": 0.17812499999999964
                },
                {
                    "name": "C4",
                    "midi": 60,
                    "time": 4.687500000000001,
                    "velocity": 0.2677165354330709,
                    "duration": 0.17812499999999964
                },
                {
                    "name": "A3",
                    "midi": 57,
                    "time": 4.687500000000001,
                    "velocity": 0.2677165354330709,
                    "duration": 0.17812499999999964
                },
                {
                    "name": "F4",
                    "midi": 65,
                    "time": 4.875000000000001,
                    "velocity": 0.3228346456692913,
                    "duration": 0.17812499999999964
                },
                {
                    "name": "C4",
                    "midi": 60,
                    "time": 4.875000000000001,
                    "velocity": 0.2677165354330709,
                    "duration": 0.17812499999999964
                },
                {
                    "name": "A3",
                    "midi": 57,
                    "time": 4.875000000000001,
                    "velocity": 0.2677165354330709,
                    "duration": 0.17812499999999964
                },
                {
                    "name": "F4",
                    "midi": 65,
                    "time": 5.062500000000001,
                    "velocity": 0.33070866141732286,
                    "duration": 0.17812499999999964
                },
                {
                    "name": "C4",
                    "midi": 60,
                    "time": 5.062500000000001,
                    "velocity": 0.2755905511811024,
                    "duration": 0.17812499999999964
                },
                {
                    "name": "A3",
                    "midi": 57,
                    "time": 5.062500000000001,
                    "velocity": 0.2755905511811024,
                    "duration": 0.17812499999999964
                },
                {
                    "name": "A3",
                    "midi": 57,
                    "time": 5.250000000000001,
                    "velocity": 0.2755905511811024,
                    "duration": 0.17812499999999964
                },
                {
                    "name": "C4",
                    "midi": 60,
                    "time": 5.250000000000001,
                    "velocity": 0.2755905511811024,
                    "duration": 0.17812499999999964
                },
                {
                    "name": "D#4",
                    "midi": 63,
                    "time": 5.250000000000001,
                    "velocity": 0.33070866141732286,
                    "duration": 0.17812499999999964
                },
                {
                    "name": "A3",
                    "midi": 57,
                    "time": 5.437500000000001,
                    "velocity": 0.2755905511811024,
                    "duration": 0.17812499999999964
                },
                {
                    "name": "C4",
                    "midi": 60,
                    "time": 5.437500000000001,
                    "velocity": 0.2755905511811024,
                    "duration": 0.17812499999999964
                },
                {
                    "name": "D#4",
                    "midi": 63,
                    "time": 5.437500000000001,
                    "velocity": 0.33070866141732286,
                    "duration": 0.17812499999999964
                },
                {
                    "name": "A#2",
                    "midi": 46,
                    "time": 5.625000000000001,
                    "velocity": 0.3543307086614173,
                    "duration": 0.17812499999999964
                },
                {
                    "name": "D4",
                    "midi": 62,
                    "time": 5.812500000000001,
                    "velocity": 0.2755905511811024,
                    "duration": 0.17812499999999964
                },
                {
                    "name": "A#3",
                    "midi": 58,
                    "time": 5.812500000000001,
                    "velocity": 0.2283464566929134,
                    "duration": 0.17812499999999964
                },
                {
                    "name": "G3",
                    "midi": 55,
                    "time": 5.812500000000001,
                    "velocity": 0.2283464566929134,
                    "duration": 0.17812499999999964
                },
                {
                    "name": "G3",
                    "midi": 55,
                    "time": 6.000000000000001,
                    "velocity": 0.23622047244094488,
                    "duration": 0.17812499999999964
                },
                {
                    "name": "A#3",
                    "midi": 58,
                    "time": 6.000000000000001,
                    "velocity": 0.23622047244094488,
                    "duration": 0.17812499999999964
                },
                {
                    "name": "D4",
                    "midi": 62,
                    "time": 6.000000000000001,
                    "velocity": 0.28346456692913385,
                    "duration": 0.17812499999999964
                },
                {
                    "name": "G3",
                    "midi": 55,
                    "time": 6.187500000000001,
                    "velocity": 0.23622047244094488,
                    "duration": 0.17812499999999964
                },
                {
                    "name": "A#3",
                    "midi": 58,
                    "time": 6.187500000000001,
                    "velocity": 0.23622047244094488,
                    "duration": 0.17812499999999964
                },
                {
                    "name": "D4",
                    "midi": 62,
                    "time": 6.187500000000001,
                    "velocity": 0.28346456692913385,
                    "duration": 0.17812499999999964
                },
                {
                    "name": "G3",
                    "midi": 55,
                    "time": 6.375000000000001,
                    "velocity": 0.25196850393700787,
                    "duration": 0.17812499999999964
                },
                {
                    "name": "A#3",
                    "midi": 58,
                    "time": 6.375000000000001,
                    "velocity": 0.25196850393700787,
                    "duration": 0.17812499999999964
                },
                {
                    "name": "D4",
                    "midi": 62,
                    "time": 6.375000000000001,
                    "velocity": 0.2992125984251969,
                    "duration": 0.17812499999999964
                },
                {
                    "name": "G3",
                    "midi": 55,
                    "time": 6.562500000000001,
                    "velocity": 0.25984251968503935,
                    "duration": 0.17812499999999964
                },
                {
                    "name": "A#3",
                    "midi": 58,
                    "time": 6.562500000000001,
                    "velocity": 0.25984251968503935,
                    "duration": 0.17812499999999964
                },
                {
                    "name": "D4",
                    "midi": 62,
                    "time": 6.562500000000001,
                    "velocity": 0.30708661417322836,
                    "duration": 0.17812499999999964
                },
                {
                    "name": "C3",
                    "midi": 48,
                    "time": 6.750000000000001,
                    "velocity": 0.3937007874015748,
                    "duration": 0.17812500000000053
                },
                {
                    "name": "C4",
                    "midi": 60,
                    "time": 6.937500000000002,
                    "velocity": 0.2755905511811024,
                    "duration": 0.17812499999999964
                },
                {
                    "name": "A#3",
                    "midi": 58,
                    "time": 6.937500000000002,
                    "velocity": 0.2283464566929134,
                    "duration": 0.17812499999999964
                },
                {
                    "name": "G3",
                    "midi": 55,
                    "time": 6.937500000000002,
                    "velocity": 0.2283464566929134,
                    "duration": 0.17812499999999964
                },
                {
                    "name": "C4",
                    "midi": 60,
                    "time": 7.125000000000002,
                    "velocity": 0.28346456692913385,
                    "duration": 0.17812499999999964
                },
                {
                    "name": "A#3",
                    "midi": 58,
                    "time": 7.125000000000002,
                    "velocity": 0.23622047244094488,
                    "duration": 0.17812499999999964
                },
                {
                    "name": "G3",
                    "midi": 55,
                    "time": 7.125000000000002,
                    "velocity": 0.23622047244094488,
                    "duration": 0.17812499999999964
                },
                {
                    "name": "C4",
                    "midi": 60,
                    "time": 7.312500000000002,
                    "velocity": 0.29133858267716534,
                    "duration": 0.17812499999999964
                },
                {
                    "name": "A#3",
                    "midi": 58,
                    "time": 7.312500000000002,
                    "velocity": 0.2440944881889764,
                    "duration": 0.17812499999999964
                },
                {
                    "name": "G3",
                    "midi": 55,
                    "time": 7.312500000000002,
                    "velocity": 0.2440944881889764,
                    "duration": 0.17812499999999964
                },
                {
                    "name": "C4",
                    "midi": 60,
                    "time": 7.500000000000002,
                    "velocity": 0.2992125984251969,
                    "duration": 0.17812499999999964
                },
                {
                    "name": "A#3",
                    "midi": 58,
                    "time": 7.500000000000002,
                    "velocity": 0.25196850393700787,
                    "duration": 0.17812499999999964
                },
                {
                    "name": "G3",
                    "midi": 55,
                    "time": 7.500000000000002,
                    "velocity": 0.25196850393700787,
                    "duration": 0.17812499999999964
                },
                {
                    "name": "C4",
                    "midi": 60,
                    "time": 7.687500000000002,
                    "velocity": 0.30708661417322836,
                    "duration": 0.17812499999999964
                },
                {
                    "name": "A#3",
                    "midi": 58,
                    "time": 7.687500000000002,
                    "velocity": 0.25984251968503935,
                    "duration": 0.17812499999999964
                },
                {
                    "name": "G3",
                    "midi": 55,
                    "time": 7.687500000000002,
                    "velocity": 0.25984251968503935,
                    "duration": 0.17812499999999964
                },
                {
                    "name": "F3",
                    "midi": 53,
                    "time": 7.875000000000002,
                    "velocity": 0.3937007874015748,
                    "duration": 0.17812499999999964
                },
                {
                    "name": "A3",
                    "midi": 57,
                    "time": 8.062500000000002,
                    "velocity": 0.25984251968503935,
                    "duration": 0.17812499999999964
                },
                {
                    "name": "F3",
                    "midi": 53,
                    "time": 8.062500000000002,
                    "velocity": 0.2204724409448819,
                    "duration": 0.17812499999999964
                },
                {
                    "name": "F3",
                    "midi": 53,
                    "time": 8.250000000000002,
                    "velocity": 0.2204724409448819,
                    "duration": 0.17812499999999964
                },
                {
                    "name": "A3",
                    "midi": 57,
                    "time": 8.250000000000002,
                    "velocity": 0.25984251968503935,
                    "duration": 0.17812499999999964
                },
                {
                    "name": "F3",
                    "midi": 53,
                    "time": 8.437500000000002,
                    "velocity": 0.2204724409448819,
                    "duration": 0.17812499999999964
                },
                {
                    "name": "A3",
                    "midi": 57,
                    "time": 8.437500000000002,
                    "velocity": 0.25984251968503935,
                    "duration": 0.17812499999999964
                },
                {
                    "name": "F3",
                    "midi": 53,
                    "time": 8.625000000000002,
                    "velocity": 0.2204724409448819,
                    "duration": 0.17812499999999964
                },
                {
                    "name": "A3",
                    "midi": 57,
                    "time": 8.625000000000002,
                    "velocity": 0.25984251968503935,
                    "duration": 0.17812499999999964
                },
                {
                    "name": "F3",
                    "midi": 53,
                    "time": 8.812500000000002,
                    "velocity": 0.2125984251968504,
                    "duration": 0.17812499999999964
                },
                {
                    "name": "A3",
                    "midi": 57,
                    "time": 8.812500000000002,
                    "velocity": 0.25196850393700787,
                    "duration": 0.17812499999999964
                },
                {
                    "name": "F3",
                    "midi": 53,
                    "time": 9.000000000000002,
                    "velocity": 0.31496062992125984,
                    "duration": 0.17812499999999964
                },
                {
                    "name": "F4",
                    "midi": 65,
                    "time": 9.187500000000002,
                    "velocity": 0.25196850393700787,
                    "duration": 0.17812499999999964
                },
                {
                    "name": "C4",
                    "midi": 60,
                    "time": 9.187500000000002,
                    "velocity": 0.2125984251968504,
                    "duration": 0.17812499999999964
                },
                {
                    "name": "A3",
                    "midi": 57,
                    "time": 9.187500000000002,
                    "velocity": 0.2125984251968504,
                    "duration": 0.17812499999999964
                },
                {
                    "name": "F4",
                    "midi": 65,
                    "time": 9.375000000000002,
                    "velocity": 0.25196850393700787,
                    "duration": 0.17812499999999964
                },
                {
                    "name": "C4",
                    "midi": 60,
                    "time": 9.375000000000002,
                    "velocity": 0.2125984251968504,
                    "duration": 0.17812499999999964
                },
                {
                    "name": "A3",
                    "midi": 57,
                    "time": 9.375000000000002,
                    "velocity": 0.2125984251968504,
                    "duration": 0.17812499999999964
                },
                {
                    "name": "F4",
                    "midi": 65,
                    "time": 9.562500000000002,
                    "velocity": 0.25984251968503935,
                    "duration": 0.17812499999999964
                },
                {
                    "name": "C4",
                    "midi": 60,
                    "time": 9.562500000000002,
                    "velocity": 0.2204724409448819,
                    "duration": 0.17812499999999964
                },
                {
                    "name": "A3",
                    "midi": 57,
                    "time": 9.562500000000002,
                    "velocity": 0.2204724409448819,
                    "duration": 0.17812499999999964
                },
                {
                    "name": "A3",
                    "midi": 57,
                    "time": 9.750000000000002,
                    "velocity": 0.2204724409448819,
                    "duration": 0.17812499999999964
                },
                {
                    "name": "C4",
                    "midi": 60,
                    "time": 9.750000000000002,
                    "velocity": 0.2204724409448819,
                    "duration": 0.17812499999999964
                },
                {
                    "name": "F4",
                    "midi": 65,
                    "time": 9.750000000000002,
                    "velocity": 0.25984251968503935,
                    "duration": 0.17812499999999964
                },
                {
                    "name": "A3",
                    "midi": 57,
                    "time": 9.937500000000002,
                    "velocity": 0.2204724409448819,
                    "duration": 0.17812499999999964
                },
                {
                    "name": "C4",
                    "midi": 60,
                    "time": 9.937500000000002,
                    "velocity": 0.2204724409448819,
                    "duration": 0.17812499999999964
                },
                {
                    "name": "F4",
                    "midi": 65,
                    "time": 9.937500000000002,
                    "velocity": 0.25984251968503935,
                    "duration": 0.17812499999999964
                },
                {
                    "name": "C4",
                    "midi": 60,
                    "time": 10.125000000000002,
                    "velocity": 0.2992125984251969,
                    "duration": 0.17812500000000142
                },
                {
                    "name": "C3",
                    "midi": 48,
                    "time": 10.125000000000002,
                    "velocity": 0.2283464566929134,
                    "duration": 0.17812500000000142
                },
                {
                    "name": "E4",
                    "midi": 64,
                    "time": 10.312500000000004,
                    "velocity": 0.2283464566929134,
                    "duration": 0.17812499999999964
                },
                {
                    "name": "A#3",
                    "midi": 58,
                    "time": 10.312500000000004,
                    "velocity": 0.1889763779527559,
                    "duration": 0.17812499999999964
                },
                {
                    "name": "A#3",
                    "midi": 58,
                    "time": 10.500000000000004,
                    "velocity": 0.1968503937007874,
                    "duration": 0.17812499999999964
                },
                {
                    "name": "E4",
                    "midi": 64,
                    "time": 10.500000000000004,
                    "velocity": 0.23622047244094488,
                    "duration": 0.17812499999999964
                },
                {
                    "name": "A#3",
                    "midi": 58,
                    "time": 10.687500000000004,
                    "velocity": 0.1968503937007874,
                    "duration": 0.17812499999999964
                },
                {
                    "name": "E4",
                    "midi": 64,
                    "time": 10.687500000000004,
                    "velocity": 0.23622047244094488,
                    "duration": 0.17812499999999964
                },
                {
                    "name": "A#3",
                    "midi": 58,
                    "time": 10.875000000000004,
                    "velocity": 0.2125984251968504,
                    "duration": 0.17812499999999964
                },
                {
                    "name": "E4",
                    "midi": 64,
                    "time": 10.875000000000004,
                    "velocity": 0.25196850393700787,
                    "duration": 0.17812499999999964
                },
                {
                    "name": "A#3",
                    "midi": 58,
                    "time": 11.062500000000004,
                    "velocity": 0.2204724409448819,
                    "duration": 0.17812499999999964
                },
                {
                    "name": "E4",
                    "midi": 64,
                    "time": 11.062500000000004,
                    "velocity": 0.25984251968503935,
                    "duration": 0.17812499999999964
                },
                {
                    "name": "C4",
                    "midi": 60,
                    "time": 11.250000000000004,
                    "velocity": 0.33070866141732286,
                    "duration": 0.17812500000000142
                },
                {
                    "name": "C3",
                    "midi": 48,
                    "time": 11.250000000000004,
                    "velocity": 0.25196850393700787,
                    "duration": 0.17812500000000142
                },
                {
                    "name": "E4",
                    "midi": 64,
                    "time": 11.437500000000005,
                    "velocity": 0.2283464566929134,
                    "duration": 0.17812499999999964
                },
                {
                    "name": "A#3",
                    "midi": 58,
                    "time": 11.437500000000005,
                    "velocity": 0.1889763779527559,
                    "duration": 0.17812499999999964
                },
                {
                    "name": "E4",
                    "midi": 64,
                    "time": 11.625000000000005,
                    "velocity": 0.23622047244094488,
                    "duration": 0.17812499999999964
                },
                {
                    "name": "A#3",
                    "midi": 58,
                    "time": 11.625000000000005,
                    "velocity": 0.1968503937007874,
                    "duration": 0.17812499999999964
                },
                {
                    "name": "E4",
                    "midi": 64,
                    "time": 11.812500000000005,
                    "velocity": 0.2440944881889764,
                    "duration": 0.17812499999999964
                },
                {
                    "name": "A#3",
                    "midi": 58,
                    "time": 11.812500000000005,
                    "velocity": 0.2047244094488189,
                    "duration": 0.17812499999999964
                },
                {
                    "name": "E4",
                    "midi": 64,
                    "time": 12.000000000000005,
                    "velocity": 0.25196850393700787,
                    "duration": 0.17812500000000142
                },
                {
                    "name": "A#3",
                    "midi": 58,
                    "time": 12.000000000000005,
                    "velocity": 0.2125984251968504,
                    "duration": 0.17812500000000142
                },
                {
                    "name": "E4",
                    "midi": 64,
                    "time": 12.187500000000007,
                    "velocity": 0.25984251968503935,
                    "duration": 0.17812499999999964
                },
                {
                    "name": "A#3",
                    "midi": 58,
                    "time": 12.187500000000007,
                    "velocity": 0.2204724409448819,
                    "duration": 0.17812499999999964
                },
                {
                    "name": "F4",
                    "midi": 65,
                    "time": 12.375000000000007,
                    "velocity": 0.29133858267716534,
                    "duration": 0.17812499999999964
                },
                {
                    "name": "F3",
                    "midi": 53,
                    "time": 12.375000000000007,
                    "velocity": 0.23622047244094488,
                    "duration": 0.17812499999999964
                },
                {
                    "name": "C4",
                    "midi": 60,
                    "time": 12.562500000000007,
                    "velocity": 0.2283464566929134,
                    "duration": 0.17812499999999964
                },
                {
                    "name": "A3",
                    "midi": 57,
                    "time": 12.562500000000007,
                    "velocity": 0.1889763779527559,
                    "duration": 0.17812499999999964
                },
                {
                    "name": "A3",
                    "midi": 57,
                    "time": 12.750000000000007,
                    "velocity": 0.1968503937007874,
                    "duration": 0.17812499999999964
                },
                {
                    "name": "C4",
                    "midi": 60,
                    "time": 12.750000000000007,
                    "velocity": 0.23622047244094488,
                    "duration": 0.17812499999999964
                },
                {
                    "name": "A3",
                    "midi": 57,
                    "time": 12.937500000000007,
                    "velocity": 0.2047244094488189,
                    "duration": 0.17812499999999964
                },
                {
                    "name": "C4",
                    "midi": 60,
                    "time": 12.937500000000007,
                    "velocity": 0.2440944881889764,
                    "duration": 0.17812499999999964
                },
                {
                    "name": "A3",
                    "midi": 57,
                    "time": 13.125000000000007,
                    "velocity": 0.2125984251968504,
                    "duration": 0.17812499999999964
                },
                {
                    "name": "C4",
                    "midi": 60,
                    "time": 13.125000000000007,
                    "velocity": 0.25196850393700787,
                    "duration": 0.17812499999999964
                },
                {
                    "name": "A3",
                    "midi": 57,
                    "time": 13.312500000000007,
                    "velocity": 0.2204724409448819,
                    "duration": 0.17812499999999964
                },
                {
                    "name": "C4",
                    "midi": 60,
                    "time": 13.312500000000007,
                    "velocity": 0.25984251968503935,
                    "duration": 0.17812499999999964
                },
                {
                    "name": "A3",
                    "midi": 57,
                    "time": 13.500000000000007,
                    "velocity": 0.33070866141732286,
                    "duration": 0.17812499999999964
                },
                {
                    "name": "A2",
                    "midi": 45,
                    "time": 13.500000000000007,
                    "velocity": 0.2755905511811024,
                    "duration": 0.17812499999999964
                },
                {
                    "name": "C4",
                    "midi": 60,
                    "time": 13.687500000000007,
                    "velocity": 0.2677165354330709,
                    "duration": 0.17812499999999964
                },
                {
                    "name": "F3",
                    "midi": 53,
                    "time": 13.687500000000007,
                    "velocity": 0.2204724409448819,
                    "duration": 0.17812499999999964
                },
                {
                    "name": "C4",
                    "midi": 60,
                    "time": 13.875000000000007,
                    "velocity": 0.2677165354330709,
                    "duration": 0.17812499999999964
                },
                {
                    "name": "F3",
                    "midi": 53,
                    "time": 13.875000000000007,
                    "velocity": 0.2204724409448819,
                    "duration": 0.17812499999999964
                },
                {
                    "name": "C4",
                    "midi": 60,
                    "time": 14.062500000000007,
                    "velocity": 0.2755905511811024,
                    "duration": 0.17812499999999964
                },
                {
                    "name": "F3",
                    "midi": 53,
                    "time": 14.062500000000007,
                    "velocity": 0.2283464566929134,
                    "duration": 0.17812499999999964
                },
                {
                    "name": "D#3",
                    "midi": 51,
                    "time": 14.250000000000007,
                    "velocity": 0.2283464566929134,
                    "duration": 0.17812499999999964
                },
                {
                    "name": "C4",
                    "midi": 60,
                    "time": 14.250000000000007,
                    "velocity": 0.2755905511811024,
                    "duration": 0.17812499999999964
                },
                {
                    "name": "D#3",
                    "midi": 51,
                    "time": 14.437500000000007,
                    "velocity": 0.2283464566929134,
                    "duration": 0.17812499999999964
                },
                {
                    "name": "C4",
                    "midi": 60,
                    "time": 14.437500000000007,
                    "velocity": 0.2755905511811024,
                    "duration": 0.17812499999999964
                },
                {
                    "name": "A#3",
                    "midi": 58,
                    "time": 14.625000000000007,
                    "velocity": 0.2992125984251969,
                    "duration": 0.17812499999999964
                },
                {
                    "name": "A#2",
                    "midi": 46,
                    "time": 14.625000000000007,
                    "velocity": 0.25196850393700787,
                    "duration": 0.17812499999999964
                },
                {
                    "name": "D4",
                    "midi": 62,
                    "time": 14.812500000000007,
                    "velocity": 0.2283464566929134,
                    "duration": 0.17812499999999964
                },
                {
                    "name": "G3",
                    "midi": 55,
                    "time": 14.812500000000007,
                    "velocity": 0.1889763779527559,
                    "duration": 0.17812499999999964
                },
                {
                    "name": "D3",
                    "midi": 50,
                    "time": 14.812500000000007,
                    "velocity": 0.1889763779527559,
                    "duration": 0.17812499999999964
                },
                {
                    "name": "D3",
                    "midi": 50,
                    "time": 15.000000000000007,
                    "velocity": 0.1968503937007874,
                    "duration": 0.17812499999999964
                },
                {
                    "name": "G3",
                    "midi": 55,
                    "time": 15.000000000000007,
                    "velocity": 0.1968503937007874,
                    "duration": 0.17812499999999964
                },
                {
                    "name": "D4",
                    "midi": 62,
                    "time": 15.000000000000007,
                    "velocity": 0.23622047244094488,
                    "duration": 0.17812499999999964
                },
                {
                    "name": "D3",
                    "midi": 50,
                    "time": 15.187500000000007,
                    "velocity": 0.1968503937007874,
                    "duration": 0.17812499999999964
                },
                {
                    "name": "G3",
                    "midi": 55,
                    "time": 15.187500000000007,
                    "velocity": 0.1968503937007874,
                    "duration": 0.17812499999999964
                },
                {
                    "name": "D4",
                    "midi": 62,
                    "time": 15.187500000000007,
                    "velocity": 0.23622047244094488,
                    "duration": 0.17812499999999964
                },
                {
                    "name": "D3",
                    "midi": 50,
                    "time": 15.375000000000007,
                    "velocity": 0.2125984251968504,
                    "duration": 0.17812499999999964
                },
                {
                    "name": "G3",
                    "midi": 55,
                    "time": 15.375000000000007,
                    "velocity": 0.2125984251968504,
                    "duration": 0.17812499999999964
                },
                {
                    "name": "D4",
                    "midi": 62,
                    "time": 15.375000000000007,
                    "velocity": 0.25196850393700787,
                    "duration": 0.17812499999999964
                },
                {
                    "name": "D3",
                    "midi": 50,
                    "time": 15.562500000000007,
                    "velocity": 0.2204724409448819,
                    "duration": 0.17812499999999964
                },
                {
                    "name": "G3",
                    "midi": 55,
                    "time": 15.562500000000007,
                    "velocity": 0.2204724409448819,
                    "duration": 0.17812499999999964
                },
                {
                    "name": "D4",
                    "midi": 62,
                    "time": 15.562500000000007,
                    "velocity": 0.25984251968503935,
                    "duration": 0.17812499999999964
                },
                {
                    "name": "C4",
                    "midi": 60,
                    "time": 15.750000000000007,
                    "velocity": 0.33070866141732286,
                    "duration": 0.17812499999999964
                },
                {
                    "name": "C3",
                    "midi": 48,
                    "time": 15.750000000000007,
                    "velocity": 0.2755905511811024,
                    "duration": 0.17812499999999964
                },
                {
                    "name": "E4",
                    "midi": 64,
                    "time": 15.937500000000007,
                    "velocity": 0.2283464566929134,
                    "duration": 0.17812500000000142
                },
                {
                    "name": "A#3",
                    "midi": 58,
                    "time": 15.937500000000007,
                    "velocity": 0.1889763779527559,
                    "duration": 0.17812500000000142
                },
                {
                    "name": "G3",
                    "midi": 55,
                    "time": 15.937500000000007,
                    "velocity": 0.1889763779527559,
                    "duration": 0.17812500000000142
                },
                {
                    "name": "E4",
                    "midi": 64,
                    "time": 16.125000000000007,
                    "velocity": 0.23622047244094488,
                    "duration": 0.17812500000000142
                },
                {
                    "name": "A#3",
                    "midi": 58,
                    "time": 16.125000000000007,
                    "velocity": 0.1968503937007874,
                    "duration": 0.17812500000000142
                },
                {
                    "name": "G3",
                    "midi": 55,
                    "time": 16.125000000000007,
                    "velocity": 0.1968503937007874,
                    "duration": 0.17812500000000142
                },
                {
                    "name": "E4",
                    "midi": 64,
                    "time": 16.312500000000007,
                    "velocity": 0.2440944881889764,
                    "duration": 0.17812500000000142
                },
                {
                    "name": "A#3",
                    "midi": 58,
                    "time": 16.312500000000007,
                    "velocity": 0.2047244094488189,
                    "duration": 0.17812500000000142
                },
                {
                    "name": "G3",
                    "midi": 55,
                    "time": 16.312500000000007,
                    "velocity": 0.2047244094488189,
                    "duration": 0.17812500000000142
                },
                {
                    "name": "C4",
                    "midi": 60,
                    "time": 16.500000000000007,
                    "velocity": 0.25196850393700787,
                    "duration": 0.17812500000000142
                },
                {
                    "name": "A#3",
                    "midi": 58,
                    "time": 16.500000000000007,
                    "velocity": 0.2125984251968504,
                    "duration": 0.17812500000000142
                },
                {
                    "name": "G3",
                    "midi": 55,
                    "time": 16.500000000000007,
                    "velocity": 0.2125984251968504,
                    "duration": 0.17812500000000142
                },
                {
                    "name": "C4",
                    "midi": 60,
                    "time": 16.687500000000007,
                    "velocity": 0.25984251968503935,
                    "duration": 0.17812500000000142
                },
                {
                    "name": "A#3",
                    "midi": 58,
                    "time": 16.687500000000007,
                    "velocity": 0.2204724409448819,
                    "duration": 0.17812500000000142
                },
                {
                    "name": "G3",
                    "midi": 55,
                    "time": 16.687500000000007,
                    "velocity": 0.2204724409448819,
                    "duration": 0.17812500000000142
                },
                {
                    "name": "F2",
                    "midi": 41,
                    "time": 16.875000000000007,
                    "velocity": 0.29133858267716534,
                    "duration": 0.17812499999999787
                },
                {
                    "name": "F3",
                    "midi": 53,
                    "time": 16.875000000000007,
                    "velocity": 0.33070866141732286,
                    "duration": 0.17812499999999787
                },
                {
                    "name": "C3",
                    "midi": 48,
                    "time": 17.062500000000004,
                    "velocity": 0.18110236220472442,
                    "duration": 0.17812500000000142
                },
                {
                    "name": "C4",
                    "midi": 60,
                    "time": 17.062500000000004,
                    "velocity": 0.2204724409448819,
                    "duration": 0.17812500000000142
                },
                {
                    "name": "A3",
                    "midi": 57,
                    "time": 17.062500000000004,
                    "velocity": 0.18110236220472442,
                    "duration": 0.17812500000000142
                },
                {
                    "name": "C3",
                    "midi": 48,
                    "time": 17.250000000000004,
                    "velocity": 0.18110236220472442,
                    "duration": 0.17812500000000142
                },
                {
                    "name": "A3",
                    "midi": 57,
                    "time": 17.250000000000004,
                    "velocity": 0.18110236220472442,
                    "duration": 0.17812500000000142
                },
                {
                    "name": "C4",
                    "midi": 60,
                    "time": 17.250000000000004,
                    "velocity": 0.2204724409448819,
                    "duration": 0.17812500000000142
                },
                {
                    "name": "C3",
                    "midi": 48,
                    "time": 17.437500000000004,
                    "velocity": 0.18110236220472442,
                    "duration": 0.17812500000000142
                },
                {
                    "name": "A3",
                    "midi": 57,
                    "time": 17.437500000000004,
                    "velocity": 0.18110236220472442,
                    "duration": 0.17812500000000142
                },
                {
                    "name": "C4",
                    "midi": 60,
                    "time": 17.437500000000004,
                    "velocity": 0.2204724409448819,
                    "duration": 0.17812500000000142
                },
                {
                    "name": "C3",
                    "midi": 48,
                    "time": 17.625000000000004,
                    "velocity": 0.18110236220472442,
                    "duration": 0.17812500000000142
                },
                {
                    "name": "A3",
                    "midi": 57,
                    "time": 17.625000000000004,
                    "velocity": 0.18110236220472442,
                    "duration": 0.17812500000000142
                },
                {
                    "name": "C4",
                    "midi": 60,
                    "time": 17.625000000000004,
                    "velocity": 0.2204724409448819,
                    "duration": 0.17812500000000142
                },
                {
                    "name": "C3",
                    "midi": 48,
                    "time": 17.812500000000004,
                    "velocity": 0.1732283464566929,
                    "duration": 0.17812500000000142
                },
                {
                    "name": "A3",
                    "midi": 57,
                    "time": 17.812500000000004,
                    "velocity": 0.1732283464566929,
                    "duration": 0.17812500000000142
                },
                {
                    "name": "C4",
                    "midi": 60,
                    "time": 17.812500000000004,
                    "velocity": 0.2125984251968504,
                    "duration": 0.17812500000000142
                },
                {
                    "name": "F2",
                    "midi": 41,
                    "time": 18.000000000000004,
                    "velocity": 0.2047244094488189,
                    "duration": 0.17812499999999787
                },
                {
                    "name": "F3",
                    "midi": 53,
                    "time": 18.000000000000004,
                    "velocity": 0.2677165354330709,
                    "duration": 0.17812499999999787
                },
                {
                    "name": "F4",
                    "midi": 65,
                    "time": 18.1875,
                    "velocity": 0.2125984251968504,
                    "duration": 0.17812500000000142
                },
                {
                    "name": "C4",
                    "midi": 60,
                    "time": 18.1875,
                    "velocity": 0.1732283464566929,
                    "duration": 0.17812500000000142
                },
                {
                    "name": "A3",
                    "midi": 57,
                    "time": 18.1875,
                    "velocity": 0.1732283464566929,
                    "duration": 0.17812500000000142
                },
                {
                    "name": "F4",
                    "midi": 65,
                    "time": 18.375,
                    "velocity": 0.2125984251968504,
                    "duration": 0.17812500000000142
                },
                {
                    "name": "C4",
                    "midi": 60,
                    "time": 18.375,
                    "velocity": 0.1732283464566929,
                    "duration": 0.17812500000000142
                },
                {
                    "name": "A3",
                    "midi": 57,
                    "time": 18.375,
                    "velocity": 0.1732283464566929,
                    "duration": 0.17812500000000142
                },
                {
                    "name": "F4",
                    "midi": 65,
                    "time": 18.5625,
                    "velocity": 0.2204724409448819,
                    "duration": 0.17812500000000142
                },
                {
                    "name": "C4",
                    "midi": 60,
                    "time": 18.5625,
                    "velocity": 0.18110236220472442,
                    "duration": 0.17812500000000142
                },
                {
                    "name": "A3",
                    "midi": 57,
                    "time": 18.5625,
                    "velocity": 0.18110236220472442,
                    "duration": 0.17812500000000142
                },
                {
                    "name": "F4",
                    "midi": 65,
                    "time": 18.75,
                    "velocity": 0.2992125984251969,
                    "duration": 0.17812500000000142
                },
                {
                    "name": "B3",
                    "midi": 59,
                    "time": 18.75,
                    "velocity": 0.25196850393700787,
                    "duration": 0.17812500000000142
                },
                {
                    "name": "G3",
                    "midi": 55,
                    "time": 18.75,
                    "velocity": 0.25196850393700787,
                    "duration": 0.17812500000000142
                },
                {
                    "name": "F4",
                    "midi": 65,
                    "time": 18.9375,
                    "velocity": 0.30708661417322836,
                    "duration": 0.17812500000000142
                },
                {
                    "name": "B3",
                    "midi": 59,
                    "time": 18.9375,
                    "velocity": 0.25984251968503935,
                    "duration": 0.17812500000000142
                },
                {
                    "name": "G3",
                    "midi": 55,
                    "time": 18.9375,
                    "velocity": 0.25984251968503935,
                    "duration": 0.17812500000000142
                },
                {
                    "name": "C3",
                    "midi": 48,
                    "time": 19.125,
                    "velocity": 0.3937007874015748,
                    "duration": 0.17812499999999787
                },
                {
                    "name": "E4",
                    "midi": 64,
                    "time": 19.312499999999996,
                    "velocity": 0.2992125984251969,
                    "duration": 0.17812500000000142
                },
                {
                    "name": "C4",
                    "midi": 60,
                    "time": 19.312499999999996,
                    "velocity": 0.2440944881889764,
                    "duration": 0.17812500000000142
                },
                {
                    "name": "G3",
                    "midi": 55,
                    "time": 19.312499999999996,
                    "velocity": 0.2440944881889764,
                    "duration": 0.17812500000000142
                },
                {
                    "name": "G3",
                    "midi": 55,
                    "time": 19.499999999999996,
                    "velocity": 0.25984251968503935,
                    "duration": 0.17812500000000142
                },
                {
                    "name": "C4",
                    "midi": 60,
                    "time": 19.499999999999996,
                    "velocity": 0.25984251968503935,
                    "duration": 0.17812500000000142
                },
                {
                    "name": "E4",
                    "midi": 64,
                    "time": 19.499999999999996,
                    "velocity": 0.30708661417322836,
                    "duration": 0.17812500000000142
                },
                {
                    "name": "G3",
                    "midi": 55,
                    "time": 19.687499999999996,
                    "velocity": 0.2677165354330709,
                    "duration": 0.17812500000000142
                },
                {
                    "name": "C4",
                    "midi": 60,
                    "time": 19.687499999999996,
                    "velocity": 0.2677165354330709,
                    "duration": 0.17812500000000142
                },
                {
                    "name": "E4",
                    "midi": 64,
                    "time": 19.687499999999996,
                    "velocity": 0.31496062992125984,
                    "duration": 0.17812500000000142
                },
                {
                    "name": "G3",
                    "midi": 55,
                    "time": 19.874999999999996,
                    "velocity": 0.2755905511811024,
                    "duration": 0.17812500000000142
                },
                {
                    "name": "C4",
                    "midi": 60,
                    "time": 19.874999999999996,
                    "velocity": 0.2755905511811024,
                    "duration": 0.17812500000000142
                },
                {
                    "name": "E4",
                    "midi": 64,
                    "time": 19.874999999999996,
                    "velocity": 0.3228346456692913,
                    "duration": 0.17812500000000142
                },
                {
                    "name": "G3",
                    "midi": 55,
                    "time": 20.062499999999996,
                    "velocity": 0.28346456692913385,
                    "duration": 0.17812500000000142
                },
                {
                    "name": "C4",
                    "midi": 60,
                    "time": 20.062499999999996,
                    "velocity": 0.28346456692913385,
                    "duration": 0.17812500000000142
                },
                {
                    "name": "E4",
                    "midi": 64,
                    "time": 20.062499999999996,
                    "velocity": 0.33070866141732286,
                    "duration": 0.17812500000000142
                },
                {
                    "name": "C#3",
                    "midi": 49,
                    "time": 20.249999999999996,
                    "velocity": 0.4330708661417323,
                    "duration": 0.17812499999999787
                },
                {
                    "name": "G4",
                    "midi": 67,
                    "time": 20.437499999999993,
                    "velocity": 0.3543307086614173,
                    "duration": 0.17812500000000142
                },
                {
                    "name": "E4",
                    "midi": 64,
                    "time": 20.437499999999993,
                    "velocity": 0.29133858267716534,
                    "duration": 0.17812500000000142
                },
                {
                    "name": "A3",
                    "midi": 57,
                    "time": 20.437499999999993,
                    "velocity": 0.29133858267716534,
                    "duration": 0.17812500000000142
                },
                {
                    "name": "G4",
                    "midi": 67,
                    "time": 20.624999999999993,
                    "velocity": 0.3543307086614173,
                    "duration": 0.17812500000000142
                },
                {
                    "name": "E4",
                    "midi": 64,
                    "time": 20.624999999999993,
                    "velocity": 0.29133858267716534,
                    "duration": 0.17812500000000142
                },
                {
                    "name": "A3",
                    "midi": 57,
                    "time": 20.624999999999993,
                    "velocity": 0.29133858267716534,
                    "duration": 0.17812500000000142
                },
                {
                    "name": "G4",
                    "midi": 67,
                    "time": 20.812499999999993,
                    "velocity": 0.36220472440944884,
                    "duration": 0.17812500000000142
                },
                {
                    "name": "E4",
                    "midi": 64,
                    "time": 20.812499999999993,
                    "velocity": 0.2992125984251969,
                    "duration": 0.17812500000000142
                },
                {
                    "name": "A3",
                    "midi": 57,
                    "time": 20.812499999999993,
                    "velocity": 0.2992125984251969,
                    "duration": 0.17812500000000142
                },
                {
                    "name": "G4",
                    "midi": 67,
                    "time": 20.999999999999993,
                    "velocity": 0.3228346456692913,
                    "duration": 0.17812500000000142
                },
                {
                    "name": "E4",
                    "midi": 64,
                    "time": 20.999999999999993,
                    "velocity": 0.2755905511811024,
                    "duration": 0.17812500000000142
                },
                {
                    "name": "A3",
                    "midi": 57,
                    "time": 20.999999999999993,
                    "velocity": 0.2755905511811024,
                    "duration": 0.17812500000000142
                },
                {
                    "name": "G4",
                    "midi": 67,
                    "time": 21.187499999999993,
                    "velocity": 0.33070866141732286,
                    "duration": 0.17812500000000142
                },
                {
                    "name": "E4",
                    "midi": 64,
                    "time": 21.187499999999993,
                    "velocity": 0.28346456692913385,
                    "duration": 0.17812500000000142
                },
                {
                    "name": "A3",
                    "midi": 57,
                    "time": 21.187499999999993,
                    "velocity": 0.28346456692913385,
                    "duration": 0.17812500000000142
                },
                {
                    "name": "D3",
                    "midi": 50,
                    "time": 21.374999999999993,
                    "velocity": 0.4330708661417323,
                    "duration": 0.17812499999999787
                },
                {
                    "name": "F4",
                    "midi": 65,
                    "time": 21.56249999999999,
                    "velocity": 0.3228346456692913,
                    "duration": 0.17812500000000142
                },
                {
                    "name": "D4",
                    "midi": 62,
                    "time": 21.56249999999999,
                    "velocity": 0.2677165354330709,
                    "duration": 0.17812500000000142
                },
                {
                    "name": "A3",
                    "midi": 57,
                    "time": 21.56249999999999,
                    "velocity": 0.2677165354330709,
                    "duration": 0.17812500000000142
                },
                {
                    "name": "A3",
                    "midi": 57,
                    "time": 21.74999999999999,
                    "velocity": 0.28346456692913385,
                    "duration": 0.17812500000000142
                },
                {
                    "name": "D4",
                    "midi": 62,
                    "time": 21.74999999999999,
                    "velocity": 0.28346456692913385,
                    "duration": 0.17812500000000142
                },
                {
                    "name": "F4",
                    "midi": 65,
                    "time": 21.74999999999999,
                    "velocity": 0.33070866141732286,
                    "duration": 0.17812500000000142
                },
                {
                    "name": "A3",
                    "midi": 57,
                    "time": 21.93749999999999,
                    "velocity": 0.29133858267716534,
                    "duration": 0.17812500000000142
                },
                {
                    "name": "D4",
                    "midi": 62,
                    "time": 21.93749999999999,
                    "velocity": 0.29133858267716534,
                    "duration": 0.17812500000000142
                },
                {
                    "name": "F4",
                    "midi": 65,
                    "time": 21.93749999999999,
                    "velocity": 0.3464566929133858,
                    "duration": 0.17812500000000142
                },
                {
                    "name": "A3",
                    "midi": 57,
                    "time": 22.12499999999999,
                    "velocity": 0.2992125984251969,
                    "duration": 0.17812500000000142
                },
                {
                    "name": "D4",
                    "midi": 62,
                    "time": 22.12499999999999,
                    "velocity": 0.2992125984251969,
                    "duration": 0.17812500000000142
                },
                {
                    "name": "F4",
                    "midi": 65,
                    "time": 22.12499999999999,
                    "velocity": 0.3543307086614173,
                    "duration": 0.17812500000000142
                },
                {
                    "name": "A3",
                    "midi": 57,
                    "time": 22.31249999999999,
                    "velocity": 0.30708661417322836,
                    "duration": 0.17812500000000142
                },
                {
                    "name": "D4",
                    "midi": 62,
                    "time": 22.31249999999999,
                    "velocity": 0.30708661417322836,
                    "duration": 0.17812500000000142
                },
                {
                    "name": "F4",
                    "midi": 65,
                    "time": 22.31249999999999,
                    "velocity": 0.36220472440944884,
                    "duration": 0.17812500000000142
                },
                {
                    "name": "E3",
                    "midi": 52,
                    "time": 22.49999999999999,
                    "velocity": 0.4330708661417323,
                    "duration": 0.17812500000000142
                },
                {
                    "name": "G4",
                    "midi": 67,
                    "time": 22.68749999999999,
                    "velocity": 0.3858267716535433,
                    "duration": 0.17812500000000142
                },
                {
                    "name": "C4",
                    "midi": 60,
                    "time": 22.68749999999999,
                    "velocity": 0.31496062992125984,
                    "duration": 0.17812500000000142
                },
                {
                    "name": "A#3",
                    "midi": 58,
                    "time": 22.68749999999999,
                    "velocity": 0.31496062992125984,
                    "duration": 0.17812500000000142
                },
                {
                    "name": "G4",
                    "midi": 67,
                    "time": 22.87499999999999,
                    "velocity": 0.3858267716535433,
                    "duration": 0.17812500000000142
                },
                {
                    "name": "C4",
                    "midi": 60,
                    "time": 22.87499999999999,
                    "velocity": 0.31496062992125984,
                    "duration": 0.17812500000000142
                },
                {
                    "name": "A#3",
                    "midi": 58,
                    "time": 22.87499999999999,
                    "velocity": 0.31496062992125984,
                    "duration": 0.17812500000000142
                },
                {
                    "name": "G4",
                    "midi": 67,
                    "time": 23.06249999999999,
                    "velocity": 0.4015748031496063,
                    "duration": 0.17812500000000142
                },
                {
                    "name": "C4",
                    "midi": 60,
                    "time": 23.06249999999999,
                    "velocity": 0.33070866141732286,
                    "duration": 0.17812500000000142
                },
                {
                    "name": "A#3",
                    "midi": 58,
                    "time": 23.06249999999999,
                    "velocity": 0.33070866141732286,
                    "duration": 0.17812500000000142
                },
                {
                    "name": "G4",
                    "midi": 67,
                    "time": 23.24999999999999,
                    "velocity": 0.36220472440944884,
                    "duration": 0.17812500000000142
                },
                {
                    "name": "C4",
                    "midi": 60,
                    "time": 23.24999999999999,
                    "velocity": 0.30708661417322836,
                    "duration": 0.17812500000000142
                },
                {
                    "name": "A#3",
                    "midi": 58,
                    "time": 23.24999999999999,
                    "velocity": 0.30708661417322836,
                    "duration": 0.17812500000000142
                },
                {
                    "name": "G4",
                    "midi": 67,
                    "time": 23.43749999999999,
                    "velocity": 0.3858267716535433,
                    "duration": 0.17812500000000142
                },
                {
                    "name": "C4",
                    "midi": 60,
                    "time": 23.43749999999999,
                    "velocity": 0.31496062992125984,
                    "duration": 0.17812500000000142
                },
                {
                    "name": "A#3",
                    "midi": 58,
                    "time": 23.43749999999999,
                    "velocity": 0.31496062992125984,
                    "duration": 0.17812500000000142
                },
                {
                    "name": "F3",
                    "midi": 53,
                    "time": 23.62499999999999,
                    "velocity": 0.4566929133858268,
                    "duration": 0.17812499999999787
                },
                {
                    "name": "F4",
                    "midi": 65,
                    "time": 23.812499999999986,
                    "velocity": 0.3464566929133858,
                    "duration": 0.17812500000000142
                },
                {
                    "name": "C4",
                    "midi": 60,
                    "time": 23.812499999999986,
                    "velocity": 0.29133858267716534,
                    "duration": 0.17812500000000142
                },
                {
                    "name": "A3",
                    "midi": 57,
                    "time": 23.812499999999986,
                    "velocity": 0.29133858267716534,
                    "duration": 0.17812500000000142
                },
                {
                    "name": "A3",
                    "midi": 57,
                    "time": 23.999999999999986,
                    "velocity": 0.30708661417322836,
                    "duration": 0.17812500000000142
                },
                {
                    "name": "C4",
                    "midi": 60,
                    "time": 23.999999999999986,
                    "velocity": 0.30708661417322836,
                    "duration": 0.17812500000000142
                },
                {
                    "name": "F4",
                    "midi": 65,
                    "time": 23.999999999999986,
                    "velocity": 0.36220472440944884,
                    "duration": 0.17812500000000142
                },
                {
                    "name": "A3",
                    "midi": 57,
                    "time": 24.187499999999986,
                    "velocity": 0.31496062992125984,
                    "duration": 0.17812500000000142
                },
                {
                    "name": "C4",
                    "midi": 60,
                    "time": 24.187499999999986,
                    "velocity": 0.31496062992125984,
                    "duration": 0.17812500000000142
                },
                {
                    "name": "F4",
                    "midi": 65,
                    "time": 24.187499999999986,
                    "velocity": 0.3858267716535433,
                    "duration": 0.17812500000000142
                },
                {
                    "name": "A3",
                    "midi": 57,
                    "time": 24.374999999999986,
                    "velocity": 0.3228346456692913,
                    "duration": 0.17812500000000142
                },
                {
                    "name": "C4",
                    "midi": 60,
                    "time": 24.374999999999986,
                    "velocity": 0.3228346456692913,
                    "duration": 0.17812500000000142
                },
                {
                    "name": "F4",
                    "midi": 65,
                    "time": 24.374999999999986,
                    "velocity": 0.3937007874015748,
                    "duration": 0.17812500000000142
                },
                {
                    "name": "A3",
                    "midi": 57,
                    "time": 24.562499999999986,
                    "velocity": 0.3464566929133858,
                    "duration": 0.17812500000000142
                },
                {
                    "name": "C4",
                    "midi": 60,
                    "time": 24.562499999999986,
                    "velocity": 0.3464566929133858,
                    "duration": 0.17812500000000142
                },
                {
                    "name": "F4",
                    "midi": 65,
                    "time": 24.562499999999986,
                    "velocity": 0.4094488188976378,
                    "duration": 0.17812500000000142
                },
                {
                    "name": "B2",
                    "midi": 47,
                    "time": 24.749999999999986,
                    "velocity": 0.4881889763779528,
                    "duration": 0.17812499999999787
                },
                {
                    "name": "F4",
                    "midi": 65,
                    "time": 24.937499999999982,
                    "velocity": 0.4015748031496063,
                    "duration": 0.17812500000000142
                },
                {
                    "name": "D4",
                    "midi": 62,
                    "time": 24.937499999999982,
                    "velocity": 0.33070866141732286,
                    "duration": 0.17812500000000142
                },
                {
                    "name": "G3",
                    "midi": 55,
                    "time": 24.937499999999982,
                    "velocity": 0.33070866141732286,
                    "duration": 0.17812500000000142
                },
                {
                    "name": "F4",
                    "midi": 65,
                    "time": 25.124999999999982,
                    "velocity": 0.4015748031496063,
                    "duration": 0.17812500000000142
                },
                {
                    "name": "D4",
                    "midi": 62,
                    "time": 25.124999999999982,
                    "velocity": 0.33070866141732286,
                    "duration": 0.17812500000000142
                },
                {
                    "name": "G3",
                    "midi": 55,
                    "time": 25.124999999999982,
                    "velocity": 0.33070866141732286,
                    "duration": 0.17812500000000142
                },
                {
                    "name": "F4",
                    "midi": 65,
                    "time": 25.312499999999982,
                    "velocity": 0.4094488188976378,
                    "duration": 0.17812500000000142
                },
                {
                    "name": "D4",
                    "midi": 62,
                    "time": 25.312499999999982,
                    "velocity": 0.3464566929133858,
                    "duration": 0.17812500000000142
                },
                {
                    "name": "G3",
                    "midi": 55,
                    "time": 25.312499999999982,
                    "velocity": 0.3464566929133858,
                    "duration": 0.17812500000000142
                },
                {
                    "name": "F4",
                    "midi": 65,
                    "time": 25.499999999999982,
                    "velocity": 0.3543307086614173,
                    "duration": 0.17812500000000142
                },
                {
                    "name": "D4",
                    "midi": 62,
                    "time": 25.499999999999982,
                    "velocity": 0.2992125984251969,
                    "duration": 0.17812500000000142
                },
                {
                    "name": "G3",
                    "midi": 55,
                    "time": 25.499999999999982,
                    "velocity": 0.2992125984251969,
                    "duration": 0.17812500000000142
                },
                {
                    "name": "F4",
                    "midi": 65,
                    "time": 25.687499999999982,
                    "velocity": 0.30708661417322836,
                    "duration": 0.17812500000000142
                },
                {
                    "name": "D4",
                    "midi": 62,
                    "time": 25.687499999999982,
                    "velocity": 0.25984251968503935,
                    "duration": 0.17812500000000142
                },
                {
                    "name": "G3",
                    "midi": 55,
                    "time": 25.687499999999982,
                    "velocity": 0.25984251968503935,
                    "duration": 0.17812500000000142
                },
                {
                    "name": "C3",
                    "midi": 48,
                    "time": 25.874999999999982,
                    "velocity": 0.3543307086614173,
                    "duration": 0.17812500000000142
                },
                {
                    "name": "D4",
                    "midi": 62,
                    "time": 26.062499999999982,
                    "velocity": 0.2755905511811024,
                    "duration": 0.17812500000000142
                },
                {
                    "name": "A#3",
                    "midi": 58,
                    "time": 26.062499999999982,
                    "velocity": 0.2283464566929134,
                    "duration": 0.17812500000000142
                },
                {
                    "name": "A#3",
                    "midi": 58,
                    "time": 26.249999999999982,
                    "velocity": 0.2283464566929134,
                    "duration": 0.17812500000000142
                },
                {
                    "name": "D4",
                    "midi": 62,
                    "time": 26.249999999999982,
                    "velocity": 0.2755905511811024,
                    "duration": 0.17812500000000142
                },
                {
                    "name": "A#3",
                    "midi": 58,
                    "time": 26.437499999999982,
                    "velocity": 0.23622047244094488,
                    "duration": 0.17812500000000142
                },
                {
                    "name": "D4",
                    "midi": 62,
                    "time": 26.437499999999982,
                    "velocity": 0.28346456692913385,
                    "duration": 0.17812500000000142
                },
                {
                    "name": "A#3",
                    "midi": 58,
                    "time": 26.624999999999982,
                    "velocity": 0.23622047244094488,
                    "duration": 0.17812500000000142
                },
                {
                    "name": "E4",
                    "midi": 64,
                    "time": 26.624999999999982,
                    "velocity": 0.29133858267716534,
                    "duration": 0.17812500000000142
                },
                {
                    "name": "A#3",
                    "midi": 58,
                    "time": 26.812499999999982,
                    "velocity": 0.2440944881889764,
                    "duration": 0.17812500000000142
                },
                {
                    "name": "E4",
                    "midi": 64,
                    "time": 26.812499999999982,
                    "velocity": 0.29133858267716534,
                    "duration": 0.17812500000000142
                },
                {
                    "name": "F2",
                    "midi": 41,
                    "time": 26.999999999999982,
                    "velocity": 0.3700787401574803,
                    "duration": 0.17812500000000142
                },
                {
                    "name": "F4",
                    "midi": 65,
                    "time": 27.187499999999982,
                    "velocity": 0.2677165354330709,
                    "duration": 0.17812500000000142
                },
                {
                    "name": "C4",
                    "midi": 60,
                    "time": 27.187499999999982,
                    "velocity": 0.2204724409448819,
                    "duration": 0.17812500000000142
                },
                {
                    "name": "A3",
                    "midi": 57,
                    "time": 27.187499999999982,
                    "velocity": 0.2204724409448819,
                    "duration": 0.17812500000000142
                },
                {
                    "name": "F4",
                    "midi": 65,
                    "time": 27.374999999999982,
                    "velocity": 0.2677165354330709,
                    "duration": 0.17812500000000142
                },
                {
                    "name": "C4",
                    "midi": 60,
                    "time": 27.374999999999982,
                    "velocity": 0.2204724409448819,
                    "duration": 0.17812500000000142
                },
                {
                    "name": "A3",
                    "midi": 57,
                    "time": 27.374999999999982,
                    "velocity": 0.2204724409448819,
                    "duration": 0.17812500000000142
                },
                {
                    "name": "F4",
                    "midi": 65,
                    "time": 27.562499999999982,
                    "velocity": 0.2755905511811024,
                    "duration": 0.17812500000000142
                },
                {
                    "name": "C4",
                    "midi": 60,
                    "time": 27.562499999999982,
                    "velocity": 0.2283464566929134,
                    "duration": 0.17812500000000142
                },
                {
                    "name": "A3",
                    "midi": 57,
                    "time": 27.562499999999982,
                    "velocity": 0.2283464566929134,
                    "duration": 0.17812500000000142
                },
                {
                    "name": "F4",
                    "midi": 65,
                    "time": 27.749999999999982,
                    "velocity": 0.2125984251968504,
                    "duration": 0.17812500000000142
                },
                {
                    "name": "B3",
                    "midi": 59,
                    "time": 27.749999999999982,
                    "velocity": 0.1732283464566929,
                    "duration": 0.17812500000000142
                },
                {
                    "name": "G3",
                    "midi": 55,
                    "time": 27.749999999999982,
                    "velocity": 0.1732283464566929,
                    "duration": 0.17812500000000142
                },
                {
                    "name": "F4",
                    "midi": 65,
                    "time": 27.937499999999982,
                    "velocity": 0.2125984251968504,
                    "duration": 0.17812500000000142
                },
                {
                    "name": "B3",
                    "midi": 59,
                    "time": 27.937499999999982,
                    "velocity": 0.18110236220472442,
                    "duration": 0.17812500000000142
                },
                {
                    "name": "G3",
                    "midi": 55,
                    "time": 27.937499999999982,
                    "velocity": 0.18110236220472442,
                    "duration": 0.17812500000000142
                },
                {
                    "name": "C3",
                    "midi": 48,
                    "time": 28.124999999999982,
                    "velocity": 0.2440944881889764,
                    "duration": 0.17812499999999787
                },
                {
                    "name": "C4",
                    "midi": 60,
                    "time": 28.124999999999982,
                    "velocity": 0.28346456692913385,
                    "duration": 0.17812499999999787
                },
                {
                    "name": "E4",
                    "midi": 64,
                    "time": 28.31249999999998,
                    "velocity": 0.1968503937007874,
                    "duration": 0.17812500000000142
                },
                {
                    "name": "G3",
                    "midi": 55,
                    "time": 28.31249999999998,
                    "velocity": 0.15748031496062992,
                    "duration": 0.17812500000000142
                },
                {
                    "name": "G3",
                    "midi": 55,
                    "time": 28.49999999999998,
                    "velocity": 0.16535433070866143,
                    "duration": 0.17812500000000142
                },
                {
                    "name": "E4",
                    "midi": 64,
                    "time": 28.49999999999998,
                    "velocity": 0.1968503937007874,
                    "duration": 0.17812500000000142
                },
                {
                    "name": "G3",
                    "midi": 55,
                    "time": 28.68749999999998,
                    "velocity": 0.16535433070866143,
                    "duration": 0.17812500000000142
                },
                {
                    "name": "E4",
                    "midi": 64,
                    "time": 28.68749999999998,
                    "velocity": 0.2047244094488189,
                    "duration": 0.17812500000000142
                },
                {
                    "name": "G3",
                    "midi": 55,
                    "time": 28.87499999999998,
                    "velocity": 0.1732283464566929,
                    "duration": 0.17812500000000142
                },
                {
                    "name": "E4",
                    "midi": 64,
                    "time": 28.87499999999998,
                    "velocity": 0.2125984251968504,
                    "duration": 0.17812500000000142
                },
                {
                    "name": "G3",
                    "midi": 55,
                    "time": 29.06249999999998,
                    "velocity": 0.18110236220472442,
                    "duration": 0.17812500000000142
                },
                {
                    "name": "E4",
                    "midi": 64,
                    "time": 29.06249999999998,
                    "velocity": 0.2125984251968504,
                    "duration": 0.17812500000000142
                },
                {
                    "name": "C#4",
                    "midi": 61,
                    "time": 29.24999999999998,
                    "velocity": 0.28346456692913385,
                    "duration": 0.17812500000000142
                },
                {
                    "name": "C#3",
                    "midi": 49,
                    "time": 29.24999999999998,
                    "velocity": 0.2440944881889764,
                    "duration": 0.17812500000000142
                },
                {
                    "name": "G4",
                    "midi": 67,
                    "time": 29.43749999999998,
                    "velocity": 0.2283464566929134,
                    "duration": 0.17812500000000142
                },
                {
                    "name": "E4",
                    "midi": 64,
                    "time": 29.43749999999998,
                    "velocity": 0.1889763779527559,
                    "duration": 0.17812500000000142
                },
                {
                    "name": "A3",
                    "midi": 57,
                    "time": 29.43749999999998,
                    "velocity": 0.1889763779527559,
                    "duration": 0.17812500000000142
                },
                {
                    "name": "G4",
                    "midi": 67,
                    "time": 29.62499999999998,
                    "velocity": 0.23622047244094488,
                    "duration": 0.17812500000000142
                },
                {
                    "name": "E4",
                    "midi": 64,
                    "time": 29.62499999999998,
                    "velocity": 0.1968503937007874,
                    "duration": 0.17812500000000142
                },
                {
                    "name": "A3",
                    "midi": 57,
                    "time": 29.62499999999998,
                    "velocity": 0.1968503937007874,
                    "duration": 0.17812500000000142
                },
                {
                    "name": "G4",
                    "midi": 67,
                    "time": 29.81249999999998,
                    "velocity": 0.25196850393700787,
                    "duration": 0.17812500000000142
                },
                {
                    "name": "E4",
                    "midi": 64,
                    "time": 29.81249999999998,
                    "velocity": 0.2125984251968504,
                    "duration": 0.17812500000000142
                },
                {
                    "name": "A3",
                    "midi": 57,
                    "time": 29.81249999999998,
                    "velocity": 0.2125984251968504,
                    "duration": 0.17812500000000142
                },
                {
                    "name": "G4",
                    "midi": 67,
                    "time": 29.99999999999998,
                    "velocity": 0.23622047244094488,
                    "duration": 0.17812500000000142
                },
                {
                    "name": "E4",
                    "midi": 64,
                    "time": 29.99999999999998,
                    "velocity": 0.1968503937007874,
                    "duration": 0.17812500000000142
                },
                {
                    "name": "A3",
                    "midi": 57,
                    "time": 29.99999999999998,
                    "velocity": 0.1968503937007874,
                    "duration": 0.17812500000000142
                },
                {
                    "name": "G4",
                    "midi": 67,
                    "time": 30.18749999999998,
                    "velocity": 0.2440944881889764,
                    "duration": 0.17812500000000142
                },
                {
                    "name": "E4",
                    "midi": 64,
                    "time": 30.18749999999998,
                    "velocity": 0.2047244094488189,
                    "duration": 0.17812500000000142
                },
                {
                    "name": "A3",
                    "midi": 57,
                    "time": 30.18749999999998,
                    "velocity": 0.2047244094488189,
                    "duration": 0.17812500000000142
                },
                {
                    "name": "D4",
                    "midi": 62,
                    "time": 30.37499999999998,
                    "velocity": 0.31496062992125984,
                    "duration": 0.17812499999999787
                },
                {
                    "name": "D3",
                    "midi": 50,
                    "time": 30.37499999999998,
                    "velocity": 0.25984251968503935,
                    "duration": 0.17812499999999787
                },
                {
                    "name": "F4",
                    "midi": 65,
                    "time": 30.562499999999975,
                    "velocity": 0.2204724409448819,
                    "duration": 0.17812500000000142
                },
                {
                    "name": "A3",
                    "midi": 57,
                    "time": 30.562499999999975,
                    "velocity": 0.18110236220472442,
                    "duration": 0.17812500000000142
                },
                {
                    "name": "A3",
                    "midi": 57,
                    "time": 30.749999999999975,
                    "velocity": 0.1889763779527559,
                    "duration": 0.17812500000000142
                },
                {
                    "name": "F4",
                    "midi": 65,
                    "time": 30.749999999999975,
                    "velocity": 0.2204724409448819,
                    "duration": 0.17812500000000142
                },
                {
                    "name": "A3",
                    "midi": 57,
                    "time": 30.937499999999975,
                    "velocity": 0.1889763779527559,
                    "duration": 0.17812500000000142
                },
                {
                    "name": "F4",
                    "midi": 65,
                    "time": 30.937499999999975,
                    "velocity": 0.23622047244094488,
                    "duration": 0.17812500000000142
                },
                {
                    "name": "A3",
                    "midi": 57,
                    "time": 31.124999999999975,
                    "velocity": 0.2047244094488189,
                    "duration": 0.17812500000000142
                },
                {
                    "name": "F4",
                    "midi": 65,
                    "time": 31.124999999999975,
                    "velocity": 0.2440944881889764,
                    "duration": 0.17812500000000142
                },
                {
                    "name": "A3",
                    "midi": 57,
                    "time": 31.312499999999975,
                    "velocity": 0.2125984251968504,
                    "duration": 0.17812500000000142
                },
                {
                    "name": "F4",
                    "midi": 65,
                    "time": 31.312499999999975,
                    "velocity": 0.25196850393700787,
                    "duration": 0.17812500000000142
                },
                {
                    "name": "E4",
                    "midi": 64,
                    "time": 31.499999999999975,
                    "velocity": 0.33070866141732286,
                    "duration": 0.17812500000000142
                },
                {
                    "name": "E3",
                    "midi": 52,
                    "time": 31.499999999999975,
                    "velocity": 0.2992125984251969,
                    "duration": 0.17812500000000142
                },
                {
                    "name": "G4",
                    "midi": 67,
                    "time": 31.687499999999975,
                    "velocity": 0.2677165354330709,
                    "duration": 0.17812500000000142
                },
                {
                    "name": "C4",
                    "midi": 60,
                    "time": 31.687499999999975,
                    "velocity": 0.2204724409448819,
                    "duration": 0.17812500000000142
                },
                {
                    "name": "A#3",
                    "midi": 58,
                    "time": 31.687499999999975,
                    "velocity": 0.2204724409448819,
                    "duration": 0.17812500000000142
                },
                {
                    "name": "G4",
                    "midi": 67,
                    "time": 31.874999999999975,
                    "velocity": 0.2677165354330709,
                    "duration": 0.17812499999999787
                },
                {
                    "name": "C4",
                    "midi": 60,
                    "time": 31.874999999999975,
                    "velocity": 0.2283464566929134,
                    "duration": 0.17812499999999787
                },
                {
                    "name": "A#3",
                    "midi": 58,
                    "time": 31.874999999999975,
                    "velocity": 0.2283464566929134,
                    "duration": 0.17812499999999787
                },
                {
                    "name": "G4",
                    "midi": 67,
                    "time": 32.06249999999997,
                    "velocity": 0.29133858267716534,
                    "duration": 0.17812500000000142
                },
                {
                    "name": "C4",
                    "midi": 60,
                    "time": 32.06249999999997,
                    "velocity": 0.23622047244094488,
                    "duration": 0.17812500000000142
                },
                {
                    "name": "A#3",
                    "midi": 58,
                    "time": 32.06249999999997,
                    "velocity": 0.23622047244094488,
                    "duration": 0.17812500000000142
                },
                {
                    "name": "G4",
                    "midi": 67,
                    "time": 32.24999999999997,
                    "velocity": 0.2677165354330709,
                    "duration": 0.17812500000000142
                },
                {
                    "name": "C4",
                    "midi": 60,
                    "time": 32.24999999999997,
                    "velocity": 0.2204724409448819,
                    "duration": 0.17812500000000142
                },
                {
                    "name": "A#3",
                    "midi": 58,
                    "time": 32.24999999999997,
                    "velocity": 0.2204724409448819,
                    "duration": 0.17812500000000142
                },
                {
                    "name": "G4",
                    "midi": 67,
                    "time": 32.43749999999997,
                    "velocity": 0.2755905511811024,
                    "duration": 0.17812500000000142
                },
                {
                    "name": "C4",
                    "midi": 60,
                    "time": 32.43749999999997,
                    "velocity": 0.2283464566929134,
                    "duration": 0.17812500000000142
                },
                {
                    "name": "A#3",
                    "midi": 58,
                    "time": 32.43749999999997,
                    "velocity": 0.2283464566929134,
                    "duration": 0.17812500000000142
                },
                {
                    "name": "F4",
                    "midi": 65,
                    "time": 32.62499999999997,
                    "velocity": 0.36220472440944884,
                    "duration": 0.17812500000000142
                },
                {
                    "name": "F3",
                    "midi": 53,
                    "time": 32.62499999999997,
                    "velocity": 0.3228346456692913,
                    "duration": 0.17812500000000142
                },
                {
                    "name": "A4",
                    "midi": 69,
                    "time": 32.81249999999997,
                    "velocity": 0.29133858267716534,
                    "duration": 0.17812500000000142
                },
                {
                    "name": "C4",
                    "midi": 60,
                    "time": 32.81249999999997,
                    "velocity": 0.23622047244094488,
                    "duration": 0.17812500000000142
                },
                {
                    "name": "C4",
                    "midi": 60,
                    "time": 32.99999999999997,
                    "velocity": 0.25984251968503935,
                    "duration": 0.17812500000000142
                },
                {
                    "name": "A4",
                    "midi": 69,
                    "time": 32.99999999999997,
                    "velocity": 0.31496062992125984,
                    "duration": 0.17812500000000142
                },
                {
                    "name": "C4",
                    "midi": 60,
                    "time": 33.18749999999997,
                    "velocity": 0.2677165354330709,
                    "duration": 0.17812500000000142
                },
                {
                    "name": "A4",
                    "midi": 69,
                    "time": 33.18749999999997,
                    "velocity": 0.3228346456692913,
                    "duration": 0.17812500000000142
                },
                {
                    "name": "C4",
                    "midi": 60,
                    "time": 33.37499999999997,
                    "velocity": 0.28346456692913385,
                    "duration": 0.17812500000000142
                },
                {
                    "name": "A4",
                    "midi": 69,
                    "time": 33.37499999999997,
                    "velocity": 0.33070866141732286,
                    "duration": 0.17812500000000142
                },
                {
                    "name": "C4",
                    "midi": 60,
                    "time": 33.56249999999997,
                    "velocity": 0.29133858267716534,
                    "duration": 0.17812500000000142
                },
                {
                    "name": "A4",
                    "midi": 69,
                    "time": 33.56249999999997,
                    "velocity": 0.3543307086614173,
                    "duration": 0.17812500000000142
                },
                {
                    "name": "B3",
                    "midi": 59,
                    "time": 33.74999999999997,
                    "velocity": 0.41732283464566927,
                    "duration": 0.17812500000000142
                },
                {
                    "name": "B2",
                    "midi": 47,
                    "time": 33.74999999999997,
                    "velocity": 0.3543307086614173,
                    "duration": 0.17812500000000142
                },
                {
                    "name": "F4",
                    "midi": 65,
                    "time": 33.93749999999997,
                    "velocity": 0.3228346456692913,
                    "duration": 0.17812500000000142
                },
                {
                    "name": "G#3",
                    "midi": 56,
                    "time": 33.93749999999997,
                    "velocity": 0.2677165354330709,
                    "duration": 0.17812500000000142
                },
                {
                    "name": "F4",
                    "midi": 65,
                    "time": 34.12499999999997,
                    "velocity": 0.3228346456692913,
                    "duration": 0.17812500000000142
                },
                {
                    "name": "G#3",
                    "midi": 56,
                    "time": 34.12499999999997,
                    "velocity": 0.2677165354330709,
                    "duration": 0.17812500000000142
                },
                {
                    "name": "F4",
                    "midi": 65,
                    "time": 34.31249999999997,
                    "velocity": 0.33070866141732286,
                    "duration": 0.17812500000000142
                },
                {
                    "name": "G#3",
                    "midi": 56,
                    "time": 34.31249999999997,
                    "velocity": 0.28346456692913385,
                    "duration": 0.17812500000000142
                },
                {
                    "name": "F4",
                    "midi": 65,
                    "time": 34.49999999999997,
                    "velocity": 0.25196850393700787,
                    "duration": 0.17812499999999432
                },
                {
                    "name": "G#3",
                    "midi": 56,
                    "time": 34.49999999999997,
                    "velocity": 0.2204724409448819,
                    "duration": 0.17812499999999432
                },
                {
                    "name": "F4",
                    "midi": 65,
                    "time": 34.687499999999964,
                    "velocity": 0.25984251968503935,
                    "duration": 0.17812500000000142
                },
                {
                    "name": "G#3",
                    "midi": 56,
                    "time": 34.687499999999964,
                    "velocity": 0.2204724409448819,
                    "duration": 0.17812500000000142
                },
                {
                    "name": "C4",
                    "midi": 60,
                    "time": 34.874999999999964,
                    "velocity": 0.33858267716535434,
                    "duration": 0.17812500000000142
                },
                {
                    "name": "C3",
                    "midi": 48,
                    "time": 34.874999999999964,
                    "velocity": 0.29133858267716534,
                    "duration": 0.17812500000000142
                },
                {
                    "name": "D4",
                    "midi": 62,
                    "time": 35.062499999999964,
                    "velocity": 0.2204724409448819,
                    "duration": 0.17812500000000142
                },
                {
                    "name": "A#3",
                    "midi": 58,
                    "time": 35.062499999999964,
                    "velocity": 0.18110236220472442,
                    "duration": 0.17812500000000142
                },
                {
                    "name": "A#3",
                    "midi": 58,
                    "time": 35.249999999999964,
                    "velocity": 0.1732283464566929,
                    "duration": 0.17812500000000142
                },
                {
                    "name": "D4",
                    "midi": 62,
                    "time": 35.249999999999964,
                    "velocity": 0.2125984251968504,
                    "duration": 0.17812500000000142
                },
                {
                    "name": "A#3",
                    "midi": 58,
                    "time": 35.437499999999964,
                    "velocity": 0.18110236220472442,
                    "duration": 0.17812500000000142
                },
                {
                    "name": "D4",
                    "midi": 62,
                    "time": 35.437499999999964,
                    "velocity": 0.2125984251968504,
                    "duration": 0.17812500000000142
                },
                {
                    "name": "A#3",
                    "midi": 58,
                    "time": 35.624999999999964,
                    "velocity": 0.1732283464566929,
                    "duration": 0.17812500000000142
                },
                {
                    "name": "E4",
                    "midi": 64,
                    "time": 35.624999999999964,
                    "velocity": 0.2125984251968504,
                    "duration": 0.17812500000000142
                },
                {
                    "name": "A#3",
                    "midi": 58,
                    "time": 35.812499999999964,
                    "velocity": 0.1732283464566929,
                    "duration": 0.17812500000000142
                },
                {
                    "name": "E4",
                    "midi": 64,
                    "time": 35.812499999999964,
                    "velocity": 0.2125984251968504,
                    "duration": 0.17812500000000142
                },
                {
                    "name": "A3",
                    "midi": 57,
                    "time": 35.999999999999964,
                    "velocity": 0.2204724409448819,
                    "duration": 0.375
                },
                {
                    "name": "F4",
                    "midi": 65,
                    "time": 35.999999999999964,
                    "velocity": 0.2677165354330709,
                    "duration": 0.375
                },
                {
                    "name": "F2",
                    "midi": 41,
                    "time": 36.374999999999964,
                    "velocity": 0.13385826771653545,
                    "duration": 0.375
                },
                {
                    "name": "C3",
                    "midi": 48,
                    "time": 36.398437499999964,
                    "velocity": 0.15748031496062992,
                    "duration": 0.3515625
                },
                {
                    "name": "F#1",
                    "midi": 30,
                    "time": 38.062499999999964,
                    "velocity": 0.3858267716535433,
                    "duration": 0.1875
                },
                {
                    "name": "F#2",
                    "midi": 42,
                    "time": 38.062499999999964,
                    "velocity": 0.4566929133858268,
                    "duration": 0.1875
                },
                {
                    "name": "G1",
                    "midi": 31,
                    "time": 38.249999999999964,
                    "velocity": 0.41732283464566927,
                    "duration": 0.1875
                },
                {
                    "name": "G2",
                    "midi": 43,
                    "time": 38.249999999999964,
                    "velocity": 0.5039370078740157,
                    "duration": 0.1875
                },
                {
                    "name": "F#2",
                    "midi": 42,
                    "time": 38.437499999999964,
                    "velocity": 0.3937007874015748,
                    "duration": 0.1875
                },
                {
                    "name": "F#3",
                    "midi": 54,
                    "time": 38.437499999999964,
                    "velocity": 0.4645669291338583,
                    "duration": 0.1875
                },
                {
                    "name": "G2",
                    "midi": 43,
                    "time": 38.624999999999964,
                    "velocity": 0.41732283464566927,
                    "duration": 0.1875
                },
                {
                    "name": "G3",
                    "midi": 55,
                    "time": 38.624999999999964,
                    "velocity": 0.5039370078740157,
                    "duration": 0.1875
                },
                {
                    "name": "F#3",
                    "midi": 54,
                    "time": 38.812499999999964,
                    "velocity": 0.4015748031496063,
                    "duration": 0.1875
                },
                {
                    "name": "F#4",
                    "midi": 66,
                    "time": 38.812499999999964,
                    "velocity": 0.47244094488188976,
                    "duration": 0.1875
                },
                {
                    "name": "G3",
                    "midi": 55,
                    "time": 38.999999999999964,
                    "velocity": 0.44881889763779526,
                    "duration": 0.1875
                },
                {
                    "name": "G4",
                    "midi": 67,
                    "time": 38.999999999999964,
                    "velocity": 0.5275590551181102,
                    "duration": 0.1875
                },
                {
                    "name": "F#4",
                    "midi": 66,
                    "time": 39.187499999999964,
                    "velocity": 0.4094488188976378,
                    "duration": 0.1875
                },
                {
                    "name": "F#5",
                    "midi": 78,
                    "time": 39.187499999999964,
                    "velocity": 0.49606299212598426,
                    "duration": 0.1875
                },
                {
                    "name": "G4",
                    "midi": 67,
                    "time": 39.374999999999964,
                    "velocity": 0.47244094488188976,
                    "duration": 0.1875
                },
                {
                    "name": "G5",
                    "midi": 79,
                    "time": 39.374999999999964,
                    "velocity": 0.5669291338582677,
                    "duration": 0.1875
                },
                {
                    "name": "A#5",
                    "midi": 82,
                    "time": 39.562499999999964,
                    "velocity": 0.5118110236220472,
                    "duration": 0.09375
                },
                {
                    "name": "G5",
                    "midi": 79,
                    "time": 39.656249999999964,
                    "velocity": 0.4566929133858268,
                    "duration": 0.09375
                },
                {
                    "name": "E5",
                    "midi": 76,
                    "time": 39.749999999999964,
                    "velocity": 0.4645669291338583,
                    "duration": 0.09375
                },
                {
                    "name": "C5",
                    "midi": 72,
                    "time": 39.843749999999964,
                    "velocity": 0.44881889763779526,
                    "duration": 0.09375
                },
                {
                    "name": "A#4",
                    "midi": 70,
                    "time": 39.937499999999964,
                    "velocity": 0.4409448818897638,
                    "duration": 0.09375
                },
                {
                    "name": "G4",
                    "midi": 67,
                    "time": 40.031249999999964,
                    "velocity": 0.4251968503937008,
                    "duration": 0.09375
                },
                {
                    "name": "E4",
                    "midi": 64,
                    "time": 40.124999999999964,
                    "velocity": 0.4094488188976378,
                    "duration": 0.1875
                },
                {
                    "name": "G#1",
                    "midi": 32,
                    "time": 40.312499999999964,
                    "velocity": 0.3858267716535433,
                    "duration": 0.1875
                },
                {
                    "name": "G#2",
                    "midi": 44,
                    "time": 40.312499999999964,
                    "velocity": 0.4566929133858268,
                    "duration": 0.1875
                },
                {
                    "name": "A1",
                    "midi": 33,
                    "time": 40.499999999999964,
                    "velocity": 0.41732283464566927,
                    "duration": 0.1875
                },
                {
                    "name": "A2",
                    "midi": 45,
                    "time": 40.499999999999964,
                    "velocity": 0.5039370078740157,
                    "duration": 0.1875
                },
                {
                    "name": "G#2",
                    "midi": 44,
                    "time": 40.687499999999964,
                    "velocity": 0.3937007874015748,
                    "duration": 0.1875
                },
                {
                    "name": "G#3",
                    "midi": 56,
                    "time": 40.687499999999964,
                    "velocity": 0.4645669291338583,
                    "duration": 0.1875
                },
                {
                    "name": "A2",
                    "midi": 45,
                    "time": 40.874999999999964,
                    "velocity": 0.41732283464566927,
                    "duration": 0.1875
                },
                {
                    "name": "A3",
                    "midi": 57,
                    "time": 40.874999999999964,
                    "velocity": 0.5039370078740157,
                    "duration": 0.1875
                },
                {
                    "name": "G#3",
                    "midi": 56,
                    "time": 41.062499999999964,
                    "velocity": 0.4015748031496063,
                    "duration": 0.1875
                },
                {
                    "name": "G#4",
                    "midi": 68,
                    "time": 41.062499999999964,
                    "velocity": 0.47244094488188976,
                    "duration": 0.1875
                },
                {
                    "name": "A3",
                    "midi": 57,
                    "time": 41.249999999999964,
                    "velocity": 0.44881889763779526,
                    "duration": 0.1875
                },
                {
                    "name": "A4",
                    "midi": 69,
                    "time": 41.249999999999964,
                    "velocity": 0.5275590551181102,
                    "duration": 0.1875
                },
                {
                    "name": "G#4",
                    "midi": 68,
                    "time": 41.437499999999964,
                    "velocity": 0.4094488188976378,
                    "duration": 0.1875
                },
                {
                    "name": "G#5",
                    "midi": 80,
                    "time": 41.437499999999964,
                    "velocity": 0.49606299212598426,
                    "duration": 0.1875
                },
                {
                    "name": "A4",
                    "midi": 69,
                    "time": 41.624999999999964,
                    "velocity": 0.47244094488188976,
                    "duration": 0.1875
                },
                {
                    "name": "A5",
                    "midi": 81,
                    "time": 41.624999999999964,
                    "velocity": 0.5669291338582677,
                    "duration": 0.1875
                },
                {
                    "name": "C4",
                    "midi": 60,
                    "time": 42.374999999999964,
                    "velocity": 0.3700787401574803,
                    "duration": 0.375
                },
                {
                    "name": "D#4",
                    "midi": 63,
                    "time": 42.374999999999964,
                    "velocity": 0.3700787401574803,
                    "duration": 0.375
                },
                {
                    "name": "A4",
                    "midi": 69,
                    "time": 42.374999999999964,
                    "velocity": 0.3700787401574803,
                    "duration": 0.375
                },
                {
                    "name": "A#2",
                    "midi": 46,
                    "time": 42.749999999999964,
                    "velocity": 0.3700787401574803,
                    "duration": 0.1875
                },
                {
                    "name": "G3",
                    "midi": 55,
                    "time": 42.937499999999964,
                    "velocity": 0.29133858267716534,
                    "duration": 0.5625
                },
                {
                    "name": "D4",
                    "midi": 62,
                    "time": 43.124999999999964,
                    "velocity": 0.29133858267716534,
                    "duration": 0.1875
                },
                {
                    "name": "A#3",
                    "midi": 58,
                    "time": 43.124999999999964,
                    "velocity": 0.29133858267716534,
                    "duration": 0.375
                },
                {
                    "name": "G4",
                    "midi": 67,
                    "time": 43.312499999999964,
                    "velocity": 0.29133858267716534,
                    "duration": 0.1875
                },
                {
                    "name": "G2",
                    "midi": 43,
                    "time": 43.499999999999964,
                    "velocity": 0.31496062992125984,
                    "duration": 0.09375
                },
                {
                    "name": "F4",
                    "midi": 65,
                    "time": 43.687499999999964,
                    "velocity": 0.29133858267716534,
                    "duration": 0.1875
                },
                {
                    "name": "B3",
                    "midi": 59,
                    "time": 43.687499999999964,
                    "velocity": 0.29133858267716534,
                    "duration": 0.1875
                },
                {
                    "name": "C3",
                    "midi": 48,
                    "time": 43.874999999999964,
                    "velocity": 0.3700787401574803,
                    "duration": 0.09375
                },
                {
                    "name": "C4",
                    "midi": 60,
                    "time": 44.062499999999964,
                    "velocity": 0.3937007874015748,
                    "duration": 0.5625
                },
                {
                    "name": "G4",
                    "midi": 67,
                    "time": 44.249999999999964,
                    "velocity": 0.3543307086614173,
                    "duration": 0.1875
                },
                {
                    "name": "E4",
                    "midi": 64,
                    "time": 44.249999999999964,
                    "velocity": 0.3543307086614173,
                    "duration": 0.1875
                },
                {
                    "name": "C5",
                    "midi": 72,
                    "time": 44.437499999999964,
                    "velocity": 0.31496062992125984,
                    "duration": 0.1875
                },
                {
                    "name": "A#3",
                    "midi": 58,
                    "time": 44.624999999999964,
                    "velocity": 0.36220472440944884,
                    "duration": 0.09375
                },
                {
                    "name": "C5",
                    "midi": 72,
                    "time": 44.812499999999964,
                    "velocity": 0.33070866141732286,
                    "duration": 0.1875
                },
                {
                    "name": "G4",
                    "midi": 67,
                    "time": 44.812499999999964,
                    "velocity": 0.33070866141732286,
                    "duration": 0.1875
                },
                {
                    "name": "A3",
                    "midi": 57,
                    "time": 44.999999999999964,
                    "velocity": 0.3543307086614173,
                    "duration": 0.09375
                },
                {
                    "name": "C4",
                    "midi": 60,
                    "time": 45.187499999999964,
                    "velocity": 0.3858267716535433,
                    "duration": 0.5625
                },
                {
                    "name": "A4",
                    "midi": 69,
                    "time": 45.374999999999964,
                    "velocity": 0.3700787401574803,
                    "duration": 0.1875
                },
                {
                    "name": "F4",
                    "midi": 65,
                    "time": 45.374999999999964,
                    "velocity": 0.3700787401574803,
                    "duration": 0.1875
                },
                {
                    "name": "C5",
                    "midi": 72,
                    "time": 45.562499999999964,
                    "velocity": 0.31496062992125984,
                    "duration": 0.1875
                },
                {
                    "name": "F3",
                    "midi": 53,
                    "time": 45.749999999999964,
                    "velocity": 0.3779527559055118,
                    "duration": 0.09375
                },
                {
                    "name": "F4",
                    "midi": 65,
                    "time": 45.937499999999964,
                    "velocity": 0.3228346456692913,
                    "duration": 0.1875
                },
                {
                    "name": "A3",
                    "midi": 57,
                    "time": 45.937499999999964,
                    "velocity": 0.3228346456692913,
                    "duration": 0.1875
                },
                {
                    "name": "C3",
                    "midi": 48,
                    "time": 46.124999999999964,
                    "velocity": 0.3779527559055118,
                    "duration": 0.375
                },
                {
                    "name": "E3",
                    "midi": 52,
                    "time": 46.312499999999964,
                    "velocity": 0.28346456692913385,
                    "duration": 0.09375
                },
                {
                    "name": "G3",
                    "midi": 55,
                    "time": 46.406249999999964,
                    "velocity": 0.30708661417322836,
                    "duration": 0.09375
                },
                {
                    "name": "E4",
                    "midi": 64,
                    "time": 46.499999999999964,
                    "velocity": 0.3543307086614173,
                    "duration": 0.09375
                },
                {
                    "name": "A3",
                    "midi": 57,
                    "time": 46.874999999999964,
                    "velocity": 0.33070866141732286,
                    "duration": 0.375
                },
                {
                    "name": "F#3",
                    "midi": 54,
                    "time": 46.874999999999964,
                    "velocity": 0.2755905511811024,
                    "duration": 0.375
                },
                {
                    "name": "C3",
                    "midi": 48,
                    "time": 46.874999999999964,
                    "velocity": 0.2755905511811024,
                    "duration": 0.375
                },
                {
                    "name": "C3",
                    "midi": 48,
                    "time": 47.249999999999964,
                    "velocity": 0.25196850393700787,
                    "duration": 0.75
                },
                {
                    "name": "A#3",
                    "midi": 58,
                    "time": 47.249999999999964,
                    "velocity": 0.30708661417322836,
                    "duration": 0.375
                },
                {
                    "name": "G3",
                    "midi": 55,
                    "time": 47.249999999999964,
                    "velocity": 0.25196850393700787,
                    "duration": 0.375
                },
                {
                    "name": "E4",
                    "midi": 64,
                    "time": 47.624999999999964,
                    "velocity": 0.31496062992125984,
                    "duration": 0.375
                },
                {
                    "name": "C4",
                    "midi": 60,
                    "time": 47.624999999999964,
                    "velocity": 0.25984251968503935,
                    "duration": 0.375
                },
                {
                    "name": "A#3",
                    "midi": 58,
                    "time": 47.624999999999964,
                    "velocity": 0.25984251968503935,
                    "duration": 0.375
                },
                {
                    "name": "G4",
                    "midi": 67,
                    "time": 47.999999999999964,
                    "velocity": 0.33858267716535434,
                    "duration": 0.375
                },
                {
                    "name": "C4",
                    "midi": 60,
                    "time": 47.999999999999964,
                    "velocity": 0.28346456692913385,
                    "duration": 0.375
                },
                {
                    "name": "A#3",
                    "midi": 58,
                    "time": 47.999999999999964,
                    "velocity": 0.28346456692913385,
                    "duration": 0.375
                },
                {
                    "name": "G4",
                    "midi": 67,
                    "time": 48.374999999999964,
                    "velocity": 0.36220472440944884,
                    "duration": 0.75
                },
                {
                    "name": "C4",
                    "midi": 60,
                    "time": 48.374999999999964,
                    "velocity": 0.30708661417322836,
                    "duration": 0.75
                },
                {
                    "name": "A#3",
                    "midi": 58,
                    "time": 48.374999999999964,
                    "velocity": 0.30708661417322836,
                    "duration": 0.75
                },
                {
                    "name": "G#3",
                    "midi": 56,
                    "time": 49.124999999999964,
                    "velocity": 0.3464566929133858,
                    "duration": 0.28125
                },
                {
                    "name": "F2",
                    "midi": 41,
                    "time": 49.406249999999964,
                    "velocity": 0.2677165354330709,
                    "duration": 0.46875
                },
                {
                    "name": "C3",
                    "midi": 48,
                    "time": 49.453124999999964,
                    "velocity": 0.2992125984251969,
                    "duration": 0.421875
                },
                {
                    "name": "A3",
                    "midi": 57,
                    "time": 49.499999999999964,
                    "velocity": 0.4015748031496063,
                    "duration": 0.375
                },
                {
                    "name": "C4",
                    "midi": 60,
                    "time": 49.874999999999964,
                    "velocity": 0.4094488188976378,
                    "duration": 0.375
                },
                {
                    "name": "A3",
                    "midi": 57,
                    "time": 49.874999999999964,
                    "velocity": 0.33858267716535434,
                    "duration": 0.375
                },
                {
                    "name": "F4",
                    "midi": 65,
                    "time": 50.249999999999964,
                    "velocity": 0.4330708661417323,
                    "duration": 0.375
                },
                {
                    "name": "A3",
                    "midi": 57,
                    "time": 50.249999999999964,
                    "velocity": 0.36220472440944884,
                    "duration": 0.375
                },
                {
                    "name": "F4",
                    "midi": 65,
                    "time": 50.624999999999964,
                    "velocity": 0.4645669291338583,
                    "duration": 0.75
                },
                {
                    "name": "A3",
                    "midi": 57,
                    "time": 50.624999999999964,
                    "velocity": 0.3858267716535433,
                    "duration": 0.75
                },
                {
                    "name": "B2",
                    "midi": 47,
                    "time": 51.749999999999964,
                    "velocity": 0.49606299212598426,
                    "duration": 0.1875
                },
                {
                    "name": "D4",
                    "midi": 62,
                    "time": 51.937499999999964,
                    "velocity": 0.4015748031496063,
                    "duration": 0.9375
                },
                {
                    "name": "F4",
                    "midi": 65,
                    "time": 52.124999999999964,
                    "velocity": 0.41732283464566927,
                    "duration": 0.75
                },
                {
                    "name": "G#4",
                    "midi": 68,
                    "time": 52.312499999999964,
                    "velocity": 0.4409448818897638,
                    "duration": 0.1875
                },
                {
                    "name": "B4",
                    "midi": 71,
                    "time": 52.499999999999964,
                    "velocity": 0.4566929133858268,
                    "duration": 0.375
                },
                {
                    "name": "G4",
                    "midi": 67,
                    "time": 52.687499999999964,
                    "velocity": 0.4409448818897638,
                    "duration": 0.1875
                },
                {
                    "name": "C3",
                    "midi": 48,
                    "time": 52.874999999999964,
                    "velocity": 0.49606299212598426,
                    "duration": 0.1875
                },
                {
                    "name": "G3",
                    "midi": 55,
                    "time": 53.062499999999964,
                    "velocity": 0.36220472440944884,
                    "duration": 0.9375
                },
                {
                    "name": "A#3",
                    "midi": 58,
                    "time": 53.249999999999964,
                    "velocity": 0.3779527559055118,
                    "duration": 0.75
                },
                {
                    "name": "C#4",
                    "midi": 61,
                    "time": 53.437499999999964,
                    "velocity": 0.3937007874015748,
                    "duration": 0.1875
                },
                {
                    "name": "E4",
                    "midi": 64,
                    "time": 53.624999999999964,
                    "velocity": 0.4094488188976378,
                    "duration": 0.375
                },
                {
                    "name": "C4",
                    "midi": 60,
                    "time": 53.812499999999964,
                    "velocity": 0.3858267716535433,
                    "duration": 0.1875
                },
                {
                    "name": "F2",
                    "midi": 41,
                    "time": 53.999999999999964,
                    "velocity": 0.33858267716535434,
                    "duration": 0.1875
                },
                {
                    "name": "D#4",
                    "midi": 63,
                    "time": 54.187499999999964,
                    "velocity": 0.2755905511811024,
                    "duration": 0.1875
                },
                {
                    "name": "C5",
                    "midi": 72,
                    "time": 54.187499999999964,
                    "velocity": 0.33858267716535434,
                    "duration": 0.1875
                },
                {
                    "name": "D4",
                    "midi": 62,
                    "time": 54.374999999999964,
                    "velocity": 0.25196850393700787,
                    "duration": 0.1875
                },
                {
                    "name": "A#4",
                    "midi": 70,
                    "time": 54.374999999999964,
                    "velocity": 0.2992125984251969,
                    "duration": 0.1875
                },
                {
                    "name": "C#4",
                    "midi": 61,
                    "time": 54.562499999999964,
                    "velocity": 0.29133858267716534,
                    "duration": 0.375
                },
                {
                    "name": "F4",
                    "midi": 65,
                    "time": 54.562499999999964,
                    "velocity": 0.3464566929133858,
                    "duration": 0.375
                },
                {
                    "name": "A#3",
                    "midi": 58,
                    "time": 54.562499999999964,
                    "velocity": 0.29133858267716534,
                    "duration": 0.1875
                },
                {
                    "name": "C4",
                    "midi": 60,
                    "time": 54.749999999999964,
                    "velocity": 0.3464566929133858,
                    "duration": 0.5625
                },
                {
                    "name": "A3",
                    "midi": 57,
                    "time": 54.749999999999964,
                    "velocity": 0.29133858267716534,
                    "duration": 0.1875
                },
                {
                    "name": "E4",
                    "midi": 64,
                    "time": 54.937499999999964,
                    "velocity": 0.2992125984251969,
                    "duration": 0.1875
                },
                {
                    "name": "G3",
                    "midi": 55,
                    "time": 54.937499999999964,
                    "velocity": 0.25196850393700787,
                    "duration": 0.1875
                },
                {
                    "name": "F3",
                    "midi": 53,
                    "time": 55.124999999999964,
                    "velocity": 0.2992125984251969,
                    "duration": 0.1875
                },
                {
                    "name": "F4",
                    "midi": 65,
                    "time": 55.124999999999964,
                    "velocity": 0.2992125984251969,
                    "duration": 0.1875
                },
                {
                    "name": "F2",
                    "midi": 41,
                    "time": 55.499999999999964,
                    "velocity": 0.2125984251968504,
                    "duration": 0.375
                },
                {
                    "name": "C3",
                    "midi": 48,
                    "time": 55.523437499999964,
                    "velocity": 0.2204724409448819,
                    "duration": 0.3515625
                },
                {
                    "name": "F3",
                    "midi": 53,
                    "time": 55.546874999999964,
                    "velocity": 0.2283464566929134,
                    "duration": 0.328125
                },
                {
                    "name": "D#6",
                    "midi": 87,
                    "time": 56.062499999999964,
                    "velocity": 0.5669291338582677,
                    "duration": 0.1875
                },
                {
                    "name": "E6",
                    "midi": 88,
                    "time": 56.249999999999964,
                    "velocity": 0.6062992125984252,
                    "duration": 0.1875
                },
                {
                    "name": "D#5",
                    "midi": 75,
                    "time": 56.437499999999964,
                    "velocity": 0.5590551181102362,
                    "duration": 0.1875
                },
                {
                    "name": "E5",
                    "midi": 76,
                    "time": 56.624999999999964,
                    "velocity": 0.5984251968503937,
                    "duration": 0.1875
                },
                {
                    "name": "D#4",
                    "midi": 63,
                    "time": 56.812499999999964,
                    "velocity": 0.5196850393700787,
                    "duration": 0.1875
                },
                {
                    "name": "E4",
                    "midi": 64,
                    "time": 56.999999999999964,
                    "velocity": 0.5669291338582677,
                    "duration": 0.1875
                },
                {
                    "name": "A#1",
                    "midi": 34,
                    "time": 57.187499999999964,
                    "velocity": 0.4330708661417323,
                    "duration": 0.1874999999999929
                },
                {
                    "name": "A#2",
                    "midi": 46,
                    "time": 57.187499999999964,
                    "velocity": 0.5275590551181102,
                    "duration": 0.1874999999999929
                },
                {
                    "name": "A1",
                    "midi": 33,
                    "time": 57.37499999999996,
                    "velocity": 0.5039370078740157,
                    "duration": 0.1875
                },
                {
                    "name": "A2",
                    "midi": 45,
                    "time": 57.37499999999996,
                    "velocity": 0.5984251968503937,
                    "duration": 0.1875
                },
                {
                    "name": "A3",
                    "midi": 57,
                    "time": 57.56249999999996,
                    "velocity": 0.4251968503937008,
                    "duration": 0.09375
                },
                {
                    "name": "E3",
                    "midi": 52,
                    "time": 57.65624999999996,
                    "velocity": 0.3700787401574803,
                    "duration": 0.09375
                },
                {
                    "name": "C#3",
                    "midi": 49,
                    "time": 57.74999999999996,
                    "velocity": 0.4094488188976378,
                    "duration": 0.09375
                },
                {
                    "name": "A#2",
                    "midi": 46,
                    "time": 57.84374999999996,
                    "velocity": 0.4015748031496063,
                    "duration": 0.09375
                },
                {
                    "name": "A2",
                    "midi": 45,
                    "time": 57.93749999999996,
                    "velocity": 0.3858267716535433,
                    "duration": 0.09375
                },
                {
                    "name": "G2",
                    "midi": 43,
                    "time": 58.03124999999996,
                    "velocity": 0.3779527559055118,
                    "duration": 0.09375
                },
                {
                    "name": "E2",
                    "midi": 40,
                    "time": 58.12499999999996,
                    "velocity": 0.3700787401574803,
                    "duration": 0.09375
                },
                {
                    "name": "C#2",
                    "midi": 37,
                    "time": 58.21874999999996,
                    "velocity": 0.3937007874015748,
                    "duration": 0.09375
                },
                {
                    "name": "A#1",
                    "midi": 34,
                    "time": 58.31249999999996,
                    "velocity": 0.41732283464566927,
                    "duration": 0.09375
                },
                {
                    "name": "A1",
                    "midi": 33,
                    "time": 58.40624999999996,
                    "velocity": 0.4330708661417323,
                    "duration": 0.09375
                },
                {
                    "name": "D2",
                    "midi": 38,
                    "time": 58.49999999999996,
                    "velocity": 0.4566929133858268,
                    "duration": 0.09375
                },
                {
                    "name": "F2",
                    "midi": 41,
                    "time": 58.59374999999996,
                    "velocity": 0.4566929133858268,
                    "duration": 0.09375
                },
                {
                    "name": "A2",
                    "midi": 45,
                    "time": 58.68749999999996,
                    "velocity": 0.4645669291338583,
                    "duration": 0.09375
                },
                {
                    "name": "C#3",
                    "midi": 49,
                    "time": 58.78124999999996,
                    "velocity": 0.47244094488188976,
                    "duration": 0.09375
                },
                {
                    "name": "D3",
                    "midi": 50,
                    "time": 58.87499999999996,
                    "velocity": 0.47244094488188976,
                    "duration": 0.09375
                },
                {
                    "name": "F3",
                    "midi": 53,
                    "time": 58.96874999999996,
                    "velocity": 0.48031496062992124,
                    "duration": 0.09375
                },
                {
                    "name": "A3",
                    "midi": 57,
                    "time": 59.06249999999996,
                    "velocity": 0.4881889763779528,
                    "duration": 0.09375
                },
                {
                    "name": "C#4",
                    "midi": 61,
                    "time": 59.15624999999996,
                    "velocity": 0.49606299212598426,
                    "duration": 0.09375
                },
                {
                    "name": "D4",
                    "midi": 62,
                    "time": 59.24999999999996,
                    "velocity": 0.49606299212598426,
                    "duration": 0.09375
                },
                {
                    "name": "C#2",
                    "midi": 37,
                    "time": 59.43749999999996,
                    "velocity": 0.4330708661417323,
                    "duration": 0.1875
                },
                {
                    "name": "C#3",
                    "midi": 49,
                    "time": 59.43749999999996,
                    "velocity": 0.5275590551181102,
                    "duration": 0.1875
                },
                {
                    "name": "C2",
                    "midi": 36,
                    "time": 59.62499999999996,
                    "velocity": 0.5039370078740157,
                    "duration": 0.1874999999999929
                },
                {
                    "name": "C3",
                    "midi": 48,
                    "time": 59.62499999999996,
                    "velocity": 0.5984251968503937,
                    "duration": 0.1874999999999929
                },
                {
                    "name": "G3",
                    "midi": 55,
                    "time": 59.81249999999995,
                    "velocity": 0.44881889763779526,
                    "duration": 0.9375
                },
                {
                    "name": "A#3",
                    "midi": 58,
                    "time": 59.99999999999995,
                    "velocity": 0.48031496062992124,
                    "duration": 0.1875
                },
                {
                    "name": "C#4",
                    "midi": 61,
                    "time": 60.18749999999995,
                    "velocity": 0.5039370078740157,
                    "duration": 0.1875
                },
                {
                    "name": "C4",
                    "midi": 60,
                    "time": 60.37499999999995,
                    "velocity": 0.44881889763779526,
                    "duration": 0.1875
                },
                {
                    "name": "E4",
                    "midi": 64,
                    "time": 60.37499999999995,
                    "velocity": 0.5354330708661418,
                    "duration": 0.5625
                },
                {
                    "name": "A#3",
                    "midi": 58,
                    "time": 60.56249999999995,
                    "velocity": 0.49606299212598426,
                    "duration": 0.1875
                },
                {
                    "name": "C4",
                    "midi": 60,
                    "time": 60.74999999999995,
                    "velocity": 0.4645669291338583,
                    "duration": 0.1875
                },
                {
                    "name": "A3",
                    "midi": 57,
                    "time": 60.74999999999995,
                    "velocity": 0.4645669291338583,
                    "duration": 0.1875
                },
                {
                    "name": "C4",
                    "midi": 60,
                    "time": 60.93749999999995,
                    "velocity": 0.33070866141732286,
                    "duration": 0.375
                },
                {
                    "name": "F4",
                    "midi": 65,
                    "time": 60.93749999999995,
                    "velocity": 0.3937007874015748,
                    "duration": 0.375
                },
                {
                    "name": "G3",
                    "midi": 55,
                    "time": 61.12499999999995,
                    "velocity": 0.4251968503937008,
                    "duration": 0.375
                },
                {
                    "name": "F4",
                    "midi": 65,
                    "time": 61.31249999999995,
                    "velocity": 0.3858267716535433,
                    "duration": 0.1875
                },
                {
                    "name": "B3",
                    "midi": 59,
                    "time": 61.31249999999995,
                    "velocity": 0.33070866141732286,
                    "duration": 0.1875
                },
                {
                    "name": "C4",
                    "midi": 60,
                    "time": 61.49999999999995,
                    "velocity": 0.3543307086614173,
                    "duration": 0.1875
                },
                {
                    "name": "C3",
                    "midi": 48,
                    "time": 61.49999999999995,
                    "velocity": 0.29133858267716534,
                    "duration": 0.375
                },
                {
                    "name": "A#3",
                    "midi": 58,
                    "time": 61.68749999999995,
                    "velocity": 0.29133858267716534,
                    "duration": 0.1875
                },
                {
                    "name": "G3",
                    "midi": 55,
                    "time": 61.68749999999995,
                    "velocity": 0.29133858267716534,
                    "duration": 0.1875
                },
                {
                    "name": "E4",
                    "midi": 64,
                    "time": 61.68749999999995,
                    "velocity": 0.3464566929133858,
                    "duration": 0.1875
                },
                {
                    "name": "F4",
                    "midi": 65,
                    "time": 61.87499999999995,
                    "velocity": 0.3543307086614173,
                    "duration": 0.1875
                },
                {
                    "name": "F3",
                    "midi": 53,
                    "time": 61.87499999999995,
                    "velocity": 0.29133858267716534,
                    "duration": 0.375
                },
                {
                    "name": "D#4",
                    "midi": 63,
                    "time": 62.06249999999995,
                    "velocity": 0.25984251968503935,
                    "duration": 0.1875
                },
                {
                    "name": "C4",
                    "midi": 60,
                    "time": 62.06249999999995,
                    "velocity": 0.25984251968503935,
                    "duration": 0.1875
                },
                {
                    "name": "A4",
                    "midi": 69,
                    "time": 62.06249999999995,
                    "velocity": 0.31496062992125984,
                    "duration": 0.1875
                },
                {
                    "name": "A#3",
                    "midi": 58,
                    "time": 62.24999999999995,
                    "velocity": 0.5275590551181102,
                    "duration": 0.75
                },
                {
                    "name": "G4",
                    "midi": 67,
                    "time": 62.43749999999995,
                    "velocity": 0.4015748031496063,
                    "duration": 0.5625
                },
                {
                    "name": "F4",
                    "midi": 65,
                    "time": 62.43749999999995,
                    "velocity": 0.33858267716535434,
                    "duration": 0.5625
                },
                {
                    "name": "D4",
                    "midi": 62,
                    "time": 62.43749999999995,
                    "velocity": 0.33858267716535434,
                    "duration": 0.5625
                },
                {
                    "name": "C3",
                    "midi": 48,
                    "time": 62.99999999999995,
                    "velocity": 0.4015748031496063,
                    "duration": 0.1875
                },
                {
                    "name": "C4",
                    "midi": 60,
                    "time": 62.99999999999995,
                    "velocity": 0.47244094488188976,
                    "duration": 0.1875
                },
                {
                    "name": "E4",
                    "midi": 64,
                    "time": 63.18749999999995,
                    "velocity": 0.5354330708661418,
                    "duration": 0.375
                },
                {
                    "name": "C4",
                    "midi": 60,
                    "time": 63.18749999999995,
                    "velocity": 0.44881889763779526,
                    "duration": 0.375
                },
                {
                    "name": "A#3",
                    "midi": 58,
                    "time": 63.18749999999995,
                    "velocity": 0.44881889763779526,
                    "duration": 0.375
                },
                {
                    "name": "G3",
                    "midi": 55,
                    "time": 63.18749999999995,
                    "velocity": 0.44881889763779526,
                    "duration": 0.375
                },
                {
                    "name": "A#4",
                    "midi": 70,
                    "time": 63.56249999999995,
                    "velocity": 0.5354330708661418,
                    "duration": 0.375
                },
                {
                    "name": "G4",
                    "midi": 67,
                    "time": 63.56249999999995,
                    "velocity": 0.44881889763779526,
                    "duration": 0.375
                },
                {
                    "name": "C4",
                    "midi": 60,
                    "time": 63.56249999999995,
                    "velocity": 0.44881889763779526,
                    "duration": 0.375
                },
                {
                    "name": "E3",
                    "midi": 52,
                    "time": 63.93749999999995,
                    "velocity": 0.4409448818897638,
                    "duration": 0.1874999999999929
                },
                {
                    "name": "A#3",
                    "midi": 58,
                    "time": 63.93749999999995,
                    "velocity": 0.5275590551181102,
                    "duration": 0.1874999999999929
                },
                {
                    "name": "A3",
                    "midi": 57,
                    "time": 64.12499999999994,
                    "velocity": 0.3700787401574803,
                    "duration": 0.1875
                },
                {
                    "name": "C4",
                    "midi": 60,
                    "time": 64.12499999999994,
                    "velocity": 0.4409448818897638,
                    "duration": 0.1875
                },
                {
                    "name": "F2",
                    "midi": 41,
                    "time": 64.49999999999994,
                    "velocity": 0.3700787401574803,
                    "duration": 0.375
                },
                {
                    "name": "C3",
                    "midi": 48,
                    "time": 64.52343749999994,
                    "velocity": 0.3700787401574803,
                    "duration": 0.3515625
                },
                {
                    "name": "F3",
                    "midi": 53,
                    "time": 64.54687499999994,
                    "velocity": 0.4409448818897638,
                    "duration": 0.328125
                },
                {
                    "name": "D#6",
                    "midi": 87,
                    "time": 65.06249999999994,
                    "velocity": 0.5669291338582677,
                    "duration": 0.1875
                },
                {
                    "name": "E6",
                    "midi": 88,
                    "time": 65.24999999999994,
                    "velocity": 0.6062992125984252,
                    "duration": 0.1875000000000142
                },
                {
                    "name": "D#5",
                    "midi": 75,
                    "time": 65.43749999999996,
                    "velocity": 0.5590551181102362,
                    "duration": 0.1875
                },
                {
                    "name": "E5",
                    "midi": 76,
                    "time": 65.62499999999996,
                    "velocity": 0.5984251968503937,
                    "duration": 0.1875
                },
                {
                    "name": "D#4",
                    "midi": 63,
                    "time": 65.81249999999996,
                    "velocity": 0.5196850393700787,
                    "duration": 0.1875
                },
                {
                    "name": "E4",
                    "midi": 64,
                    "time": 65.99999999999996,
                    "velocity": 0.5669291338582677,
                    "duration": 0.1875
                },
                {
                    "name": "A#1",
                    "midi": 34,
                    "time": 66.18749999999996,
                    "velocity": 0.4330708661417323,
                    "duration": 0.1875
                },
                {
                    "name": "A#2",
                    "midi": 46,
                    "time": 66.18749999999996,
                    "velocity": 0.5275590551181102,
                    "duration": 0.1875
                },
                {
                    "name": "A1",
                    "midi": 33,
                    "time": 66.37499999999996,
                    "velocity": 0.5039370078740157,
                    "duration": 0.1875
                },
                {
                    "name": "A2",
                    "midi": 45,
                    "time": 66.37499999999996,
                    "velocity": 0.5984251968503937,
                    "duration": 0.1875
                },
                {
                    "name": "A3",
                    "midi": 57,
                    "time": 66.56249999999996,
                    "velocity": 0.4251968503937008,
                    "duration": 0.09375000000001421
                },
                {
                    "name": "E3",
                    "midi": 52,
                    "time": 66.65624999999997,
                    "velocity": 0.3700787401574803,
                    "duration": 0.09375
                },
                {
                    "name": "C#3",
                    "midi": 49,
                    "time": 66.74999999999997,
                    "velocity": 0.4094488188976378,
                    "duration": 0.09375
                },
                {
                    "name": "A#2",
                    "midi": 46,
                    "time": 66.84374999999997,
                    "velocity": 0.4015748031496063,
                    "duration": 0.09375
                },
                {
                    "name": "A2",
                    "midi": 45,
                    "time": 66.93749999999997,
                    "velocity": 0.3858267716535433,
                    "duration": 0.09375
                },
                {
                    "name": "G2",
                    "midi": 43,
                    "time": 67.03124999999997,
                    "velocity": 0.3779527559055118,
                    "duration": 0.09375
                },
                {
                    "name": "E2",
                    "midi": 40,
                    "time": 67.12499999999997,
                    "velocity": 0.3700787401574803,
                    "duration": 0.09375
                },
                {
                    "name": "C#2",
                    "midi": 37,
                    "time": 67.21874999999997,
                    "velocity": 0.3858267716535433,
                    "duration": 0.09375
                },
                {
                    "name": "A#1",
                    "midi": 34,
                    "time": 67.31249999999997,
                    "velocity": 0.4015748031496063,
                    "duration": 0.09375
                },
                {
                    "name": "A1",
                    "midi": 33,
                    "time": 67.40624999999997,
                    "velocity": 0.41732283464566927,
                    "duration": 0.09375
                },
                {
                    "name": "D2",
                    "midi": 38,
                    "time": 67.49999999999997,
                    "velocity": 0.4330708661417323,
                    "duration": 0.09375
                },
                {
                    "name": "F2",
                    "midi": 41,
                    "time": 67.59374999999997,
                    "velocity": 0.4330708661417323,
                    "duration": 0.09375
                },
                {
                    "name": "A2",
                    "midi": 45,
                    "time": 67.68749999999997,
                    "velocity": 0.4409448818897638,
                    "duration": 0.09375
                },
                {
                    "name": "C#3",
                    "midi": 49,
                    "time": 67.78124999999997,
                    "velocity": 0.44881889763779526,
                    "duration": 0.09375
                },
                {
                    "name": "D3",
                    "midi": 50,
                    "time": 67.87499999999997,
                    "velocity": 0.44881889763779526,
                    "duration": 0.09375
                },
                {
                    "name": "F3",
                    "midi": 53,
                    "time": 67.96874999999997,
                    "velocity": 0.4566929133858268,
                    "duration": 0.09375
                },
                {
                    "name": "A3",
                    "midi": 57,
                    "time": 68.06249999999997,
                    "velocity": 0.4645669291338583,
                    "duration": 0.09375
                },
                {
                    "name": "C#4",
                    "midi": 61,
                    "time": 68.15624999999997,
                    "velocity": 0.47244094488188976,
                    "duration": 0.09375
                },
                {
                    "name": "D4",
                    "midi": 62,
                    "time": 68.24999999999997,
                    "velocity": 0.47244094488188976,
                    "duration": 0.09375
                },
                {
                    "name": "C#2",
                    "midi": 37,
                    "time": 68.43749999999997,
                    "velocity": 0.4330708661417323,
                    "duration": 0.1875000000000142
                },
                {
                    "name": "C#3",
                    "midi": 49,
                    "time": 68.43749999999997,
                    "velocity": 0.5275590551181102,
                    "duration": 0.1875000000000142
                },
                {
                    "name": "C2",
                    "midi": 36,
                    "time": 68.62499999999999,
                    "velocity": 0.5039370078740157,
                    "duration": 0.1875
                },
                {
                    "name": "C3",
                    "midi": 48,
                    "time": 68.62499999999999,
                    "velocity": 0.5984251968503937,
                    "duration": 0.1875
                },
                {
                    "name": "G3",
                    "midi": 55,
                    "time": 68.81249999999999,
                    "velocity": 0.4566929133858268,
                    "duration": 0.9375
                },
                {
                    "name": "A#3",
                    "midi": 58,
                    "time": 68.99999999999999,
                    "velocity": 0.4881889763779528,
                    "duration": 0.1875
                },
                {
                    "name": "C#4",
                    "midi": 61,
                    "time": 69.18749999999999,
                    "velocity": 0.5118110236220472,
                    "duration": 0.1875
                },
                {
                    "name": "C4",
                    "midi": 60,
                    "time": 69.37499999999999,
                    "velocity": 0.44881889763779526,
                    "duration": 0.1875
                },
                {
                    "name": "E4",
                    "midi": 64,
                    "time": 69.37499999999999,
                    "velocity": 0.5433070866141733,
                    "duration": 0.5625
                },
                {
                    "name": "A#3",
                    "midi": 58,
                    "time": 69.56249999999999,
                    "velocity": 0.5039370078740157,
                    "duration": 0.1875
                },
                {
                    "name": "C4",
                    "midi": 60,
                    "time": 69.74999999999999,
                    "velocity": 0.47244094488188976,
                    "duration": 0.1875
                },
                {
                    "name": "A3",
                    "midi": 57,
                    "time": 69.74999999999999,
                    "velocity": 0.47244094488188976,
                    "duration": 0.1875
                },
                {
                    "name": "C4",
                    "midi": 60,
                    "time": 69.93749999999999,
                    "velocity": 0.33070866141732286,
                    "duration": 0.3749999999999716
                },
                {
                    "name": "F4",
                    "midi": 65,
                    "time": 69.93749999999999,
                    "velocity": 0.3937007874015748,
                    "duration": 0.3749999999999716
                },
                {
                    "name": "G3",
                    "midi": 55,
                    "time": 70.12499999999997,
                    "velocity": 0.4251968503937008,
                    "duration": 0.3749999999999858
                },
                {
                    "name": "F4",
                    "midi": 65,
                    "time": 70.31249999999996,
                    "velocity": 0.3858267716535433,
                    "duration": 0.1875
                },
                {
                    "name": "B3",
                    "midi": 59,
                    "time": 70.31249999999996,
                    "velocity": 0.33070866141732286,
                    "duration": 0.1875
                },
                {
                    "name": "C4",
                    "midi": 60,
                    "time": 70.49999999999996,
                    "velocity": 0.3543307086614173,
                    "duration": 0.1875
                },
                {
                    "name": "C3",
                    "midi": 48,
                    "time": 70.49999999999996,
                    "velocity": 0.29133858267716534,
                    "duration": 0.375
                },
                {
                    "name": "A#3",
                    "midi": 58,
                    "time": 70.68749999999996,
                    "velocity": 0.29133858267716534,
                    "duration": 0.1875
                },
                {
                    "name": "G3",
                    "midi": 55,
                    "time": 70.68749999999996,
                    "velocity": 0.29133858267716534,
                    "duration": 0.1875
                },
                {
                    "name": "E4",
                    "midi": 64,
                    "time": 70.68749999999996,
                    "velocity": 0.3464566929133858,
                    "duration": 0.1875
                },
                {
                    "name": "F4",
                    "midi": 65,
                    "time": 70.87499999999996,
                    "velocity": 0.3543307086614173,
                    "duration": 0.1875
                },
                {
                    "name": "F3",
                    "midi": 53,
                    "time": 70.87499999999996,
                    "velocity": 0.29133858267716534,
                    "duration": 0.375
                },
                {
                    "name": "D#4",
                    "midi": 63,
                    "time": 71.06249999999996,
                    "velocity": 0.25984251968503935,
                    "duration": 0.1875
                },
                {
                    "name": "C4",
                    "midi": 60,
                    "time": 71.06249999999996,
                    "velocity": 0.25984251968503935,
                    "duration": 0.1875
                },
                {
                    "name": "A4",
                    "midi": 69,
                    "time": 71.06249999999996,
                    "velocity": 0.31496062992125984,
                    "duration": 0.1875
                },
                {
                    "name": "A#3",
                    "midi": 58,
                    "time": 71.24999999999996,
                    "velocity": 0.47244094488188976,
                    "duration": 0.75
                },
                {
                    "name": "G4",
                    "midi": 67,
                    "time": 71.43749999999996,
                    "velocity": 0.4015748031496063,
                    "duration": 0.5625
                },
                {
                    "name": "F4",
                    "midi": 65,
                    "time": 71.43749999999996,
                    "velocity": 0.33858267716535434,
                    "duration": 0.5625
                },
                {
                    "name": "D4",
                    "midi": 62,
                    "time": 71.43749999999996,
                    "velocity": 0.33858267716535434,
                    "duration": 0.5625
                },
                {
                    "name": "C3",
                    "midi": 48,
                    "time": 71.99999999999996,
                    "velocity": 0.4015748031496063,
                    "duration": 0.1875
                },
                {
                    "name": "C4",
                    "midi": 60,
                    "time": 71.99999999999996,
                    "velocity": 0.47244094488188976,
                    "duration": 0.1875
                },
                {
                    "name": "E4",
                    "midi": 64,
                    "time": 72.18749999999996,
                    "velocity": 0.5354330708661418,
                    "duration": 0.375
                },
                {
                    "name": "C4",
                    "midi": 60,
                    "time": 72.18749999999996,
                    "velocity": 0.44881889763779526,
                    "duration": 0.375
                },
                {
                    "name": "A#3",
                    "midi": 58,
                    "time": 72.18749999999996,
                    "velocity": 0.44881889763779526,
                    "duration": 0.375
                },
                {
                    "name": "G3",
                    "midi": 55,
                    "time": 72.18749999999996,
                    "velocity": 0.44881889763779526,
                    "duration": 0.375
                },
                {
                    "name": "A#4",
                    "midi": 70,
                    "time": 72.56249999999996,
                    "velocity": 0.5354330708661418,
                    "duration": 0.375
                },
                {
                    "name": "G4",
                    "midi": 67,
                    "time": 72.56249999999996,
                    "velocity": 0.44881889763779526,
                    "duration": 0.375
                },
                {
                    "name": "C4",
                    "midi": 60,
                    "time": 72.56249999999996,
                    "velocity": 0.44881889763779526,
                    "duration": 0.375
                },
                {
                    "name": "E3",
                    "midi": 52,
                    "time": 72.93749999999996,
                    "velocity": 0.4409448818897638,
                    "duration": 0.1875
                },
                {
                    "name": "A#3",
                    "midi": 58,
                    "time": 72.93749999999996,
                    "velocity": 0.5275590551181102,
                    "duration": 0.1875
                },
                {
                    "name": "A3",
                    "midi": 57,
                    "time": 73.12499999999996,
                    "velocity": 0.3700787401574803,
                    "duration": 0.1875
                },
                {
                    "name": "C4",
                    "midi": 60,
                    "time": 73.12499999999996,
                    "velocity": 0.4409448818897638,
                    "duration": 0.1875
                },
                {
                    "name": "F2",
                    "midi": 41,
                    "time": 73.49999999999996,
                    "velocity": 0.3700787401574803,
                    "duration": 0.375
                },
                {
                    "name": "C3",
                    "midi": 48,
                    "time": 73.52343749999996,
                    "velocity": 0.3700787401574803,
                    "duration": 0.3515625
                },
                {
                    "name": "F3",
                    "midi": 53,
                    "time": 73.54687499999996,
                    "velocity": 0.4409448818897638,
                    "duration": 0.328125
                },
                {
                    "name": "F#3",
                    "midi": 54,
                    "time": 75.18749999999996,
                    "velocity": 0.3464566929133858,
                    "duration": 0.375
                },
                {
                    "name": "G3",
                    "midi": 55,
                    "time": 75.56249999999996,
                    "velocity": 0.36220472440944884,
                    "duration": 0.375
                },
                {
                    "name": "G#3",
                    "midi": 56,
                    "time": 75.93749999999996,
                    "velocity": 0.3858267716535433,
                    "duration": 0.375
                },
                {
                    "name": "A3",
                    "midi": 57,
                    "time": 76.31249999999996,
                    "velocity": 0.4015748031496063,
                    "duration": 0.375
                },
                {
                    "name": "A#3",
                    "midi": 58,
                    "time": 76.68749999999996,
                    "velocity": 0.41732283464566927,
                    "duration": 0.375
                },
                {
                    "name": "B3",
                    "midi": 59,
                    "time": 77.06249999999996,
                    "velocity": 0.4330708661417323,
                    "duration": 0.375
                },
                {
                    "name": "C4",
                    "midi": 60,
                    "time": 77.43749999999996,
                    "velocity": 0.4566929133858268,
                    "duration": 0.375
                },
                {
                    "name": "F3",
                    "midi": 53,
                    "time": 77.81249999999996,
                    "velocity": 0.48031496062992124,
                    "duration": 0.375
                },
                {
                    "name": "F#3",
                    "midi": 54,
                    "time": 78.18749999999996,
                    "velocity": 0.49606299212598426,
                    "duration": 0.375
                },
                {
                    "name": "G3",
                    "midi": 55,
                    "time": 78.56249999999996,
                    "velocity": 0.47244094488188976,
                    "duration": 0.375
                },
                {
                    "name": "E3",
                    "midi": 52,
                    "time": 78.93749999999996,
                    "velocity": 0.4566929133858268,
                    "duration": 0.375
                },
                {
                    "name": "F3",
                    "midi": 53,
                    "time": 79.31249999999996,
                    "velocity": 0.4251968503937008,
                    "duration": 0.375
                },
                {
                    "name": "E3",
                    "midi": 52,
                    "time": 79.68749999999996,
                    "velocity": 0.4015748031496063,
                    "duration": 0.375
                },
                {
                    "name": "D3",
                    "midi": 50,
                    "time": 80.06249999999996,
                    "velocity": 0.3858267716535433,
                    "duration": 0.375
                },
                {
                    "name": "C3",
                    "midi": 48,
                    "time": 80.43749999999996,
                    "velocity": 0.3858267716535433,
                    "duration": 0.375
                },
                {
                    "name": "A#2",
                    "midi": 46,
                    "time": 80.81249999999996,
                    "velocity": 0.3779527559055118,
                    "duration": 0.375
                },
                {
                    "name": "A2",
                    "midi": 45,
                    "time": 81.18749999999996,
                    "velocity": 0.3700787401574803,
                    "duration": 0.375
                },
                {
                    "name": "G2",
                    "midi": 43,
                    "time": 81.56249999999996,
                    "velocity": 0.36220472440944884,
                    "duration": 0.375
                },
                {
                    "name": "F2",
                    "midi": 41,
                    "time": 81.93749999999996,
                    "velocity": 0.3543307086614173,
                    "duration": 0.375
                },
                {
                    "name": "E2",
                    "midi": 40,
                    "time": 82.31249999999996,
                    "velocity": 0.3228346456692913,
                    "duration": 0.375
                },
                {
                    "name": "D#2",
                    "midi": 39,
                    "time": 82.68749999999996,
                    "velocity": 0.31496062992125984,
                    "duration": 0.375
                },
                {
                    "name": "E2",
                    "midi": 40,
                    "time": 83.06249999999996,
                    "velocity": 0.2755905511811024,
                    "duration": 0.375
                },
                {
                    "name": "F2",
                    "midi": 41,
                    "time": 83.43749999999996,
                    "velocity": 0.2755905511811024,
                    "duration": 0.375
                },
                {
                    "name": "C2",
                    "midi": 36,
                    "time": 83.81249999999996,
                    "velocity": 0.2755905511811024,
                    "duration": 0.1875
                },
                {
                    "name": "F#5",
                    "midi": 78,
                    "time": 84.18749999999996,
                    "velocity": 0.3779527559055118,
                    "duration": 0.375
                },
                {
                    "name": "G5",
                    "midi": 79,
                    "time": 84.56249999999996,
                    "velocity": 0.3858267716535433,
                    "duration": 0.375
                },
                {
                    "name": "G#5",
                    "midi": 80,
                    "time": 84.93749999999996,
                    "velocity": 0.41732283464566927,
                    "duration": 0.375
                },
                {
                    "name": "A5",
                    "midi": 81,
                    "time": 85.31249999999996,
                    "velocity": 0.4409448818897638,
                    "duration": 0.375
                },
                {
                    "name": "A#5",
                    "midi": 82,
                    "time": 85.68749999999996,
                    "velocity": 0.4566929133858268,
                    "duration": 0.375
                },
                {
                    "name": "B5",
                    "midi": 83,
                    "time": 86.06249999999996,
                    "velocity": 0.47244094488188976,
                    "duration": 0.375
                },
                {
                    "name": "C6",
                    "midi": 84,
                    "time": 86.43749999999996,
                    "velocity": 0.49606299212598426,
                    "duration": 0.375
                },
                {
                    "name": "F5",
                    "midi": 77,
                    "time": 86.81249999999996,
                    "velocity": 0.5196850393700787,
                    "duration": 0.375
                },
                {
                    "name": "F#5",
                    "midi": 78,
                    "time": 87.18749999999996,
                    "velocity": 0.5433070866141733,
                    "duration": 0.375
                },
                {
                    "name": "G5",
                    "midi": 79,
                    "time": 87.56249999999996,
                    "velocity": 0.5196850393700787,
                    "duration": 0.375
                },
                {
                    "name": "E5",
                    "midi": 76,
                    "time": 87.93749999999996,
                    "velocity": 0.49606299212598426,
                    "duration": 0.375
                },
                {
                    "name": "F5",
                    "midi": 77,
                    "time": 88.31249999999996,
                    "velocity": 0.4645669291338583,
                    "duration": 0.375
                },
                {
                    "name": "E5",
                    "midi": 76,
                    "time": 88.68749999999996,
                    "velocity": 0.4409448818897638,
                    "duration": 0.375
                },
                {
                    "name": "D5",
                    "midi": 74,
                    "time": 89.06249999999996,
                    "velocity": 0.4251968503937008,
                    "duration": 0.375
                },
                {
                    "name": "C5",
                    "midi": 72,
                    "time": 89.43749999999996,
                    "velocity": 0.41732283464566927,
                    "duration": 0.375
                },
                {
                    "name": "A#4",
                    "midi": 70,
                    "time": 89.81249999999996,
                    "velocity": 0.4094488188976378,
                    "duration": 0.375
                },
                {
                    "name": "A4",
                    "midi": 69,
                    "time": 90.18749999999996,
                    "velocity": 0.4015748031496063,
                    "duration": 0.375
                },
                {
                    "name": "G4",
                    "midi": 67,
                    "time": 90.56249999999996,
                    "velocity": 0.3937007874015748,
                    "duration": 0.375
                },
                {
                    "name": "F4",
                    "midi": 65,
                    "time": 90.93749999999996,
                    "velocity": 0.3858267716535433,
                    "duration": 0.375
                },
                {
                    "name": "E4",
                    "midi": 64,
                    "time": 91.31249999999996,
                    "velocity": 0.3543307086614173,
                    "duration": 0.375
                },
                {
                    "name": "D#4",
                    "midi": 63,
                    "time": 91.68749999999996,
                    "velocity": 0.3464566929133858,
                    "duration": 0.375
                },
                {
                    "name": "E4",
                    "midi": 64,
                    "time": 92.06249999999996,
                    "velocity": 0.2992125984251969,
                    "duration": 0.375
                },
                {
                    "name": "F4",
                    "midi": 65,
                    "time": 92.43749999999996,
                    "velocity": 0.2992125984251969,
                    "duration": 0.375
                },
                {
                    "name": "C5",
                    "midi": 72,
                    "time": 92.81249999999996,
                    "velocity": 0.2992125984251969,
                    "duration": 0.1875
                },
                {
                    "name": "F1",
                    "midi": 29,
                    "time": 93.18749999999996,
                    "velocity": 0.2755905511811024,
                    "duration": 0.375
                },
                {
                    "name": "F2",
                    "midi": 41,
                    "time": 93.18749999999996,
                    "velocity": 0.3464566929133858,
                    "duration": 0.375
                },
                {
                    "name": "G1",
                    "midi": 31,
                    "time": 93.56249999999996,
                    "velocity": 0.28346456692913385,
                    "duration": 0.375
                },
                {
                    "name": "G2",
                    "midi": 43,
                    "time": 93.56249999999996,
                    "velocity": 0.36220472440944884,
                    "duration": 0.375
                },
                {
                    "name": "G#1",
                    "midi": 32,
                    "time": 93.93749999999996,
                    "velocity": 0.30708661417322836,
                    "duration": 0.375
                },
                {
                    "name": "G#2",
                    "midi": 44,
                    "time": 93.93749999999996,
                    "velocity": 0.3858267716535433,
                    "duration": 0.375
                },
                {
                    "name": "A1",
                    "midi": 33,
                    "time": 94.31249999999996,
                    "velocity": 0.31496062992125984,
                    "duration": 0.375
                },
                {
                    "name": "A2",
                    "midi": 45,
                    "time": 94.31249999999996,
                    "velocity": 0.4015748031496063,
                    "duration": 0.375
                },
                {
                    "name": "B1",
                    "midi": 35,
                    "time": 94.68749999999996,
                    "velocity": 0.33070866141732286,
                    "duration": 0.375
                },
                {
                    "name": "B2",
                    "midi": 47,
                    "time": 94.68749999999996,
                    "velocity": 0.41732283464566927,
                    "duration": 0.375
                },
                {
                    "name": "C2",
                    "midi": 36,
                    "time": 95.06249999999996,
                    "velocity": 0.3464566929133858,
                    "duration": 0.375
                },
                {
                    "name": "C3",
                    "midi": 48,
                    "time": 95.06249999999996,
                    "velocity": 0.4330708661417323,
                    "duration": 0.375
                },
                {
                    "name": "C#2",
                    "midi": 37,
                    "time": 95.43749999999996,
                    "velocity": 0.36220472440944884,
                    "duration": 0.375
                },
                {
                    "name": "C#3",
                    "midi": 49,
                    "time": 95.43749999999996,
                    "velocity": 0.4566929133858268,
                    "duration": 0.375
                },
                {
                    "name": "D2",
                    "midi": 38,
                    "time": 95.81249999999996,
                    "velocity": 0.3779527559055118,
                    "duration": 0.375
                },
                {
                    "name": "D3",
                    "midi": 50,
                    "time": 95.81249999999996,
                    "velocity": 0.48031496062992124,
                    "duration": 0.375
                },
                {
                    "name": "E4",
                    "midi": 64,
                    "time": 96.18749999999996,
                    "velocity": 0.5433070866141733,
                    "duration": 0.375
                },
                {
                    "name": "F4",
                    "midi": 65,
                    "time": 96.56249999999996,
                    "velocity": 0.5196850393700787,
                    "duration": 0.375
                },
                {
                    "name": "F#4",
                    "midi": 66,
                    "time": 96.93749999999996,
                    "velocity": 0.49606299212598426,
                    "duration": 0.375
                },
                {
                    "name": "G4",
                    "midi": 67,
                    "time": 97.31249999999996,
                    "velocity": 0.4645669291338583,
                    "duration": 0.375
                },
                {
                    "name": "G#4",
                    "midi": 68,
                    "time": 97.68749999999996,
                    "velocity": 0.4409448818897638,
                    "duration": 0.375
                },
                {
                    "name": "A4",
                    "midi": 69,
                    "time": 98.06249999999996,
                    "velocity": 0.4251968503937008,
                    "duration": 0.375
                },
                {
                    "name": "G#4",
                    "midi": 68,
                    "time": 98.43749999999996,
                    "velocity": 0.41732283464566927,
                    "duration": 0.375
                },
                {
                    "name": "A4",
                    "midi": 69,
                    "time": 98.81249999999996,
                    "velocity": 0.4094488188976378,
                    "duration": 0.375
                },
                {
                    "name": "G4",
                    "midi": 67,
                    "time": 99.18749999999996,
                    "velocity": 0.4015748031496063,
                    "duration": 0.375
                },
                {
                    "name": "G#4",
                    "midi": 68,
                    "time": 99.56249999999996,
                    "velocity": 0.3937007874015748,
                    "duration": 0.375
                },
                {
                    "name": "G4",
                    "midi": 67,
                    "time": 99.93749999999996,
                    "velocity": 0.3858267716535433,
                    "duration": 0.375
                },
                {
                    "name": "E4",
                    "midi": 64,
                    "time": 100.31249999999996,
                    "velocity": 0.3543307086614173,
                    "duration": 0.375
                },
                {
                    "name": "D#4",
                    "midi": 63,
                    "time": 100.68749999999996,
                    "velocity": 0.3464566929133858,
                    "duration": 0.375
                },
                {
                    "name": "E4",
                    "midi": 64,
                    "time": 101.06249999999996,
                    "velocity": 0.2992125984251969,
                    "duration": 0.375
                },
                {
                    "name": "F4",
                    "midi": 65,
                    "time": 101.43749999999996,
                    "velocity": 0.2992125984251969,
                    "duration": 0.375
                },
                {
                    "name": "C5",
                    "midi": 72,
                    "time": 101.81249999999996,
                    "velocity": 0.2992125984251969,
                    "duration": 0.1875
                },
                {
                    "name": "F1",
                    "midi": 29,
                    "time": 102.18749999999996,
                    "velocity": 0.2755905511811024,
                    "duration": 0.375
                },
                {
                    "name": "F2",
                    "midi": 41,
                    "time": 102.18749999999996,
                    "velocity": 0.3464566929133858,
                    "duration": 0.375
                },
                {
                    "name": "G1",
                    "midi": 31,
                    "time": 102.56249999999996,
                    "velocity": 0.28346456692913385,
                    "duration": 0.375
                },
                {
                    "name": "G2",
                    "midi": 43,
                    "time": 102.56249999999996,
                    "velocity": 0.36220472440944884,
                    "duration": 0.375
                },
                {
                    "name": "G#1",
                    "midi": 32,
                    "time": 102.93749999999996,
                    "velocity": 0.30708661417322836,
                    "duration": 0.375
                },
                {
                    "name": "G#2",
                    "midi": 44,
                    "time": 102.93749999999996,
                    "velocity": 0.3858267716535433,
                    "duration": 0.375
                },
                {
                    "name": "A1",
                    "midi": 33,
                    "time": 103.31249999999996,
                    "velocity": 0.31496062992125984,
                    "duration": 0.375
                },
                {
                    "name": "A2",
                    "midi": 45,
                    "time": 103.31249999999996,
                    "velocity": 0.4015748031496063,
                    "duration": 0.375
                },
                {
                    "name": "B1",
                    "midi": 35,
                    "time": 103.68749999999996,
                    "velocity": 0.33070866141732286,
                    "duration": 0.375
                },
                {
                    "name": "B2",
                    "midi": 47,
                    "time": 103.68749999999996,
                    "velocity": 0.41732283464566927,
                    "duration": 0.375
                },
                {
                    "name": "C2",
                    "midi": 36,
                    "time": 104.06249999999996,
                    "velocity": 0.3464566929133858,
                    "duration": 0.375
                },
                {
                    "name": "C3",
                    "midi": 48,
                    "time": 104.06249999999996,
                    "velocity": 0.4330708661417323,
                    "duration": 0.375
                },
                {
                    "name": "C#2",
                    "midi": 37,
                    "time": 104.43749999999996,
                    "velocity": 0.36220472440944884,
                    "duration": 0.375
                },
                {
                    "name": "C#3",
                    "midi": 49,
                    "time": 104.43749999999996,
                    "velocity": 0.4566929133858268,
                    "duration": 0.375
                },
                {
                    "name": "D2",
                    "midi": 38,
                    "time": 104.81249999999996,
                    "velocity": 0.3779527559055118,
                    "duration": 0.375
                },
                {
                    "name": "D3",
                    "midi": 50,
                    "time": 104.81249999999996,
                    "velocity": 0.48031496062992124,
                    "duration": 0.375
                },
                {
                    "name": "E4",
                    "midi": 64,
                    "time": 105.18749999999996,
                    "velocity": 0.5433070866141733,
                    "duration": 0.375
                },
                {
                    "name": "F4",
                    "midi": 65,
                    "time": 105.56249999999996,
                    "velocity": 0.5196850393700787,
                    "duration": 0.375
                },
                {
                    "name": "F#4",
                    "midi": 66,
                    "time": 105.93749999999996,
                    "velocity": 0.49606299212598426,
                    "duration": 0.375
                },
                {
                    "name": "G4",
                    "midi": 67,
                    "time": 106.31249999999996,
                    "velocity": 0.4645669291338583,
                    "duration": 0.375
                },
                {
                    "name": "G#4",
                    "midi": 68,
                    "time": 106.68749999999996,
                    "velocity": 0.4409448818897638,
                    "duration": 0.375
                },
                {
                    "name": "A4",
                    "midi": 69,
                    "time": 107.06249999999996,
                    "velocity": 0.4251968503937008,
                    "duration": 0.375
                },
                {
                    "name": "G#4",
                    "midi": 68,
                    "time": 107.43749999999996,
                    "velocity": 0.41732283464566927,
                    "duration": 0.375
                },
                {
                    "name": "A4",
                    "midi": 69,
                    "time": 107.81249999999996,
                    "velocity": 0.4094488188976378,
                    "duration": 0.375
                },
                {
                    "name": "G4",
                    "midi": 67,
                    "time": 108.18749999999996,
                    "velocity": 0.4015748031496063,
                    "duration": 0.375
                },
                {
                    "name": "G#4",
                    "midi": 68,
                    "time": 108.56249999999996,
                    "velocity": 0.3937007874015748,
                    "duration": 0.375
                },
                {
                    "name": "G4",
                    "midi": 67,
                    "time": 108.93749999999996,
                    "velocity": 0.3858267716535433,
                    "duration": 0.375
                },
                {
                    "name": "E4",
                    "midi": 64,
                    "time": 109.31249999999996,
                    "velocity": 0.3464566929133858,
                    "duration": 0.375
                },
                {
                    "name": "D#4",
                    "midi": 63,
                    "time": 109.68749999999996,
                    "velocity": 0.31496062992125984,
                    "duration": 0.375
                },
                {
                    "name": "E4",
                    "midi": 64,
                    "time": 110.06249999999996,
                    "velocity": 0.25984251968503935,
                    "duration": 0.375
                },
                {
                    "name": "F4",
                    "midi": 65,
                    "time": 110.43749999999996,
                    "velocity": 0.25196850393700787,
                    "duration": 0.375
                },
                {
                    "name": "C5",
                    "midi": 72,
                    "time": 110.81249999999996,
                    "velocity": 0.25196850393700787,
                    "duration": 0.1875
                },
                {
                    "name": "C2",
                    "midi": 36,
                    "time": 112.49999999999996,
                    "velocity": 0.3937007874015748,
                    "duration": 0.09375
                },
                {
                    "name": "E4",
                    "midi": 64,
                    "time": 112.68749999999996,
                    "velocity": 0.3228346456692913,
                    "duration": 0.09375
                },
                {
                    "name": "C4",
                    "midi": 60,
                    "time": 112.68749999999996,
                    "velocity": 0.3228346456692913,
                    "duration": 0.09375
                },
                {
                    "name": "E2",
                    "midi": 40,
                    "time": 112.87499999999996,
                    "velocity": 0.4015748031496063,
                    "duration": 0.09375
                },
                {
                    "name": "E4",
                    "midi": 64,
                    "time": 113.06249999999996,
                    "velocity": 0.3228346456692913,
                    "duration": 0.09375
                },
                {
                    "name": "C4",
                    "midi": 60,
                    "time": 113.06249999999996,
                    "velocity": 0.3228346456692913,
                    "duration": 0.09375
                },
                {
                    "name": "G2",
                    "midi": 43,
                    "time": 113.24999999999996,
                    "velocity": 0.41732283464566927,
                    "duration": 0.09375
                },
                {
                    "name": "E4",
                    "midi": 64,
                    "time": 113.43749999999996,
                    "velocity": 0.3464566929133858,
                    "duration": 0.09375
                },
                {
                    "name": "C4",
                    "midi": 60,
                    "time": 113.43749999999996,
                    "velocity": 0.3464566929133858,
                    "duration": 0.09375
                },
                {
                    "name": "C3",
                    "midi": 48,
                    "time": 113.62499999999996,
                    "velocity": 0.4251968503937008,
                    "duration": 0.09375
                },
                {
                    "name": "E4",
                    "midi": 64,
                    "time": 113.81249999999996,
                    "velocity": 0.3464566929133858,
                    "duration": 0.09375
                },
                {
                    "name": "C4",
                    "midi": 60,
                    "time": 113.81249999999996,
                    "velocity": 0.3464566929133858,
                    "duration": 0.09375
                },
                {
                    "name": "E3",
                    "midi": 52,
                    "time": 113.99999999999996,
                    "velocity": 0.4409448818897638,
                    "duration": 0.09375
                },
                {
                    "name": "E4",
                    "midi": 64,
                    "time": 114.18749999999996,
                    "velocity": 0.3543307086614173,
                    "duration": 0.09375
                },
                {
                    "name": "C4",
                    "midi": 60,
                    "time": 114.18749999999996,
                    "velocity": 0.3543307086614173,
                    "duration": 0.09375
                },
                {
                    "name": "G3",
                    "midi": 55,
                    "time": 114.37499999999996,
                    "velocity": 0.4566929133858268,
                    "duration": 0.09375
                },
                {
                    "name": "E4",
                    "midi": 64,
                    "time": 114.56249999999996,
                    "velocity": 0.3858267716535433,
                    "duration": 0.09375
                },
                {
                    "name": "C4",
                    "midi": 60,
                    "time": 114.56249999999996,
                    "velocity": 0.3858267716535433,
                    "duration": 0.09375
                },
                {
                    "name": "F2",
                    "midi": 41,
                    "time": 114.74999999999996,
                    "velocity": 0.4566929133858268,
                    "duration": 0.1875
                },
                {
                    "name": "D4",
                    "midi": 62,
                    "time": 114.93749999999996,
                    "velocity": 0.4881889763779528,
                    "duration": 0.1875
                },
                {
                    "name": "A#3",
                    "midi": 58,
                    "time": 114.93749999999996,
                    "velocity": 0.4881889763779528,
                    "duration": 0.1875
                },
                {
                    "name": "F3",
                    "midi": 53,
                    "time": 114.93749999999996,
                    "velocity": 0.4881889763779528,
                    "duration": 0.375
                },
                {
                    "name": "C4",
                    "midi": 60,
                    "time": 115.12499999999996,
                    "velocity": 0.4409448818897638,
                    "duration": 0.1875
                },
                {
                    "name": "A3",
                    "midi": 57,
                    "time": 115.12499999999996,
                    "velocity": 0.4409448818897638,
                    "duration": 0.1875
                },
                {
                    "name": "F4",
                    "midi": 65,
                    "time": 115.31249999999996,
                    "velocity": 0.48031496062992124,
                    "duration": 0.1875
                },
                {
                    "name": "B3",
                    "midi": 59,
                    "time": 115.31249999999996,
                    "velocity": 0.48031496062992124,
                    "duration": 0.1875
                },
                {
                    "name": "G#4",
                    "midi": 68,
                    "time": 115.31249999999996,
                    "velocity": 0.48031496062992124,
                    "duration": 0.1875
                },
                {
                    "name": "C4",
                    "midi": 60,
                    "time": 115.49999999999996,
                    "velocity": 0.4251968503937008,
                    "duration": 0.1875
                },
                {
                    "name": "A4",
                    "midi": 69,
                    "time": 115.49999999999996,
                    "velocity": 0.4251968503937008,
                    "duration": 0.1875
                },
                {
                    "name": "F4",
                    "midi": 65,
                    "time": 115.68749999999996,
                    "velocity": 0.4881889763779528,
                    "duration": 0.375
                },
                {
                    "name": "B4",
                    "midi": 71,
                    "time": 115.68749999999996,
                    "velocity": 0.4881889763779528,
                    "duration": 0.1875
                },
                {
                    "name": "D5",
                    "midi": 74,
                    "time": 115.68749999999996,
                    "velocity": 0.4881889763779528,
                    "duration": 0.1875
                },
                {
                    "name": "A4",
                    "midi": 69,
                    "time": 115.87499999999996,
                    "velocity": 0.4330708661417323,
                    "duration": 0.1875
                },
                {
                    "name": "C5",
                    "midi": 72,
                    "time": 115.87499999999996,
                    "velocity": 0.4330708661417323,
                    "duration": 0.1875
                },
                {
                    "name": "B2",
                    "midi": 47,
                    "time": 116.99999999999996,
                    "velocity": 0.4251968503937008,
                    "duration": 0.375
                },
                {
                    "name": "B3",
                    "midi": 59,
                    "time": 117.18749999999996,
                    "velocity": 0.3228346456692913,
                    "duration": 0.09375
                },
                {
                    "name": "G3",
                    "midi": 55,
                    "time": 117.18749999999996,
                    "velocity": 0.2677165354330709,
                    "duration": 0.09375
                },
                {
                    "name": "D3",
                    "midi": 50,
                    "time": 117.37499999999996,
                    "velocity": 0.4330708661417323,
                    "duration": 0.375
                },
                {
                    "name": "B3",
                    "midi": 59,
                    "time": 117.56249999999996,
                    "velocity": 0.2755905511811024,
                    "duration": 0.09375
                },
                {
                    "name": "D4",
                    "midi": 62,
                    "time": 117.56249999999996,
                    "velocity": 0.33070866141732286,
                    "duration": 0.09375
                },
                {
                    "name": "G3",
                    "midi": 55,
                    "time": 117.74999999999996,
                    "velocity": 0.4409448818897638,
                    "duration": 0.375
                },
                {
                    "name": "D4",
                    "midi": 62,
                    "time": 117.93749999999996,
                    "velocity": 0.3464566929133858,
                    "duration": 0.09375
                },
                {
                    "name": "B3",
                    "midi": 59,
                    "time": 117.93749999999996,
                    "velocity": 0.29133858267716534,
                    "duration": 0.09375
                },
                {
                    "name": "C3",
                    "midi": 48,
                    "time": 118.12499999999996,
                    "velocity": 0.4409448818897638,
                    "duration": 0.375
                },
                {
                    "name": "C4",
                    "midi": 60,
                    "time": 118.31249999999996,
                    "velocity": 0.3543307086614173,
                    "duration": 0.1875
                },
                {
                    "name": "A#3",
                    "midi": 58,
                    "time": 118.31249999999996,
                    "velocity": 0.2992125984251969,
                    "duration": 0.1875
                },
                {
                    "name": "E3",
                    "midi": 52,
                    "time": 118.49999999999996,
                    "velocity": 0.4566929133858268,
                    "duration": 0.375
                },
                {
                    "name": "C4",
                    "midi": 60,
                    "time": 118.68749999999996,
                    "velocity": 0.3700787401574803,
                    "duration": 0.1875
                },
                {
                    "name": "A#3",
                    "midi": 58,
                    "time": 118.68749999999996,
                    "velocity": 0.30708661417322836,
                    "duration": 0.1875
                },
                {
                    "name": "G3",
                    "midi": 55,
                    "time": 118.87499999999996,
                    "velocity": 0.48031496062992124,
                    "duration": 0.375
                },
                {
                    "name": "C4",
                    "midi": 60,
                    "time": 119.06249999999996,
                    "velocity": 0.4015748031496063,
                    "duration": 0.1875
                },
                {
                    "name": "A#3",
                    "midi": 58,
                    "time": 119.06249999999996,
                    "velocity": 0.33858267716535434,
                    "duration": 0.1875
                },
                {
                    "name": "F3",
                    "midi": 53,
                    "time": 119.24999999999996,
                    "velocity": 0.33858267716535434,
                    "duration": 0.09375
                },
                {
                    "name": "C4",
                    "midi": 60,
                    "time": 119.24999999999996,
                    "velocity": 0.4409448818897638,
                    "duration": 0.09375
                },
                {
                    "name": "A3",
                    "midi": 57,
                    "time": 119.24999999999996,
                    "velocity": 0.33858267716535434,
                    "duration": 0.09375
                },
                {
                    "name": "F3",
                    "midi": 53,
                    "time": 119.43749999999996,
                    "velocity": 0.33858267716535434,
                    "duration": 0.09375
                },
                {
                    "name": "G#3",
                    "midi": 56,
                    "time": 119.43749999999996,
                    "velocity": 0.33858267716535434,
                    "duration": 0.09375
                },
                {
                    "name": "C#4",
                    "midi": 61,
                    "time": 119.43749999999996,
                    "velocity": 0.4409448818897638,
                    "duration": 0.09375
                },
                {
                    "name": "G#3",
                    "midi": 56,
                    "time": 119.62499999999996,
                    "velocity": 0.36220472440944884,
                    "duration": 0.5625
                },
                {
                    "name": "D4",
                    "midi": 62,
                    "time": 119.62499999999996,
                    "velocity": 0.47244094488188976,
                    "duration": 0.75
                },
                {
                    "name": "B3",
                    "midi": 59,
                    "time": 119.62499999999996,
                    "velocity": 0.36220472440944884,
                    "duration": 0.75
                },
                {
                    "name": "F3",
                    "midi": 53,
                    "time": 119.62499999999996,
                    "velocity": 0.36220472440944884,
                    "duration": 0.75
                },
                {
                    "name": "G3",
                    "midi": 55,
                    "time": 120.18749999999996,
                    "velocity": 0.3858267716535433,
                    "duration": 0.5625
                },
                {
                    "name": "E3",
                    "midi": 52,
                    "time": 120.37499999999996,
                    "velocity": 0.3543307086614173,
                    "duration": 0.375
                },
                {
                    "name": "C4",
                    "midi": 60,
                    "time": 120.37499999999996,
                    "velocity": 0.41732283464566927,
                    "duration": 0.375
                },
                {
                    "name": "A3",
                    "midi": 57,
                    "time": 121.12499999999996,
                    "velocity": 0.41732283464566927,
                    "duration": 0.375
                },
                {
                    "name": "D#5",
                    "midi": 75,
                    "time": 121.31249999999996,
                    "velocity": 0.2992125984251969,
                    "duration": 0.1875
                },
                {
                    "name": "C5",
                    "midi": 72,
                    "time": 121.31249999999996,
                    "velocity": 0.25196850393700787,
                    "duration": 0.1875
                },
                {
                    "name": "F#4",
                    "midi": 66,
                    "time": 121.31249999999996,
                    "velocity": 0.25196850393700787,
                    "duration": 0.1875
                },
                {
                    "name": "A#3",
                    "midi": 58,
                    "time": 121.49999999999996,
                    "velocity": 0.4409448818897638,
                    "duration": 0.375
                },
                {
                    "name": "E5",
                    "midi": 76,
                    "time": 121.68749999999996,
                    "velocity": 0.3228346456692913,
                    "duration": 0.1875
                },
                {
                    "name": "C5",
                    "midi": 72,
                    "time": 121.68749999999996,
                    "velocity": 0.2677165354330709,
                    "duration": 0.1875
                },
                {
                    "name": "G4",
                    "midi": 67,
                    "time": 121.68749999999996,
                    "velocity": 0.2677165354330709,
                    "duration": 0.1875
                },
                {
                    "name": "E4",
                    "midi": 64,
                    "time": 121.87499999999996,
                    "velocity": 0.44881889763779526,
                    "duration": 0.375
                },
                {
                    "name": "A#4",
                    "midi": 70,
                    "time": 122.06249999999996,
                    "velocity": 0.2677165354330709,
                    "duration": 0.1875
                },
                {
                    "name": "C5",
                    "midi": 72,
                    "time": 122.06249999999996,
                    "velocity": 0.2677165354330709,
                    "duration": 0.1875
                },
                {
                    "name": "E5",
                    "midi": 76,
                    "time": 122.06249999999996,
                    "velocity": 0.3228346456692913,
                    "duration": 0.1875
                },
                {
                    "name": "G4",
                    "midi": 67,
                    "time": 122.24999999999996,
                    "velocity": 0.47244094488188976,
                    "duration": 0.375
                },
                {
                    "name": "A#4",
                    "midi": 70,
                    "time": 122.43749999999996,
                    "velocity": 0.2677165354330709,
                    "duration": 0.375
                },
                {
                    "name": "C5",
                    "midi": 72,
                    "time": 122.43749999999996,
                    "velocity": 0.2677165354330709,
                    "duration": 0.375
                },
                {
                    "name": "E5",
                    "midi": 76,
                    "time": 122.43749999999996,
                    "velocity": 0.3228346456692913,
                    "duration": 0.375
                },
                {
                    "name": "G4",
                    "midi": 67,
                    "time": 122.62499999999996,
                    "velocity": 0.47244094488188976,
                    "duration": 0.75
                },
                {
                    "name": "C5",
                    "midi": 72,
                    "time": 122.81249999999996,
                    "velocity": 0.31496062992125984,
                    "duration": 0.17812499999999432
                },
                {
                    "name": "E5",
                    "midi": 76,
                    "time": 122.81249999999996,
                    "velocity": 0.3779527559055118,
                    "duration": 0.17812499999999432
                },
                {
                    "name": "C5",
                    "midi": 72,
                    "time": 122.99999999999996,
                    "velocity": 0.31496062992125984,
                    "duration": 0.17812499999999432
                },
                {
                    "name": "E5",
                    "midi": 76,
                    "time": 122.99999999999996,
                    "velocity": 0.3779527559055118,
                    "duration": 0.17812499999999432
                },
                {
                    "name": "C5",
                    "midi": 72,
                    "time": 123.18749999999996,
                    "velocity": 0.31496062992125984,
                    "duration": 0.17812499999999432
                },
                {
                    "name": "E5",
                    "midi": 76,
                    "time": 123.18749999999996,
                    "velocity": 0.3779527559055118,
                    "duration": 0.17812499999999432
                },
                {
                    "name": "A#4",
                    "midi": 70,
                    "time": 123.37499999999996,
                    "velocity": 0.44881889763779526,
                    "duration": 0.375
                },
                {
                    "name": "C5",
                    "midi": 72,
                    "time": 123.56249999999996,
                    "velocity": 0.31496062992125984,
                    "duration": 0.375
                },
                {
                    "name": "E5",
                    "midi": 76,
                    "time": 123.56249999999996,
                    "velocity": 0.3779527559055118,
                    "duration": 0.1875
                },
                {
                    "name": "A4",
                    "midi": 69,
                    "time": 123.74999999999996,
                    "velocity": 0.31496062992125984,
                    "duration": 0.1875
                },
                {
                    "name": "F5",
                    "midi": 77,
                    "time": 123.74999999999996,
                    "velocity": 0.3779527559055118,
                    "duration": 0.1875
                },
                {
                    "name": "G#4",
                    "midi": 68,
                    "time": 123.93749999999996,
                    "velocity": 0.31496062992125984,
                    "duration": 0.3749999999999858
                },
                {
                    "name": "F4",
                    "midi": 65,
                    "time": 123.93749999999996,
                    "velocity": 0.31496062992125984,
                    "duration": 0.3749999999999858
                },
                {
                    "name": "B4",
                    "midi": 71,
                    "time": 123.93749999999996,
                    "velocity": 0.3779527559055118,
                    "duration": 0.1875
                },
                {
                    "name": "D5",
                    "midi": 74,
                    "time": 123.93749999999996,
                    "velocity": 0.44881889763779526,
                    "duration": 0.1875
                },
                {
                    "name": "A4",
                    "midi": 69,
                    "time": 124.12499999999996,
                    "velocity": 0.3228346456692913,
                    "duration": 0.1874999999999858
                },
                {
                    "name": "C5",
                    "midi": 72,
                    "time": 124.12499999999996,
                    "velocity": 0.3858267716535433,
                    "duration": 0.1874999999999858
                },
                {
                    "name": "E6",
                    "midi": 88,
                    "time": 124.31249999999994,
                    "velocity": 0.4015748031496063,
                    "duration": 0.046875
                },
                {
                    "name": "G5",
                    "midi": 79,
                    "time": 124.31249999999994,
                    "velocity": 0.33858267716535434,
                    "duration": 0.046875
                },
                {
                    "name": "D6",
                    "midi": 86,
                    "time": 124.49999999999994,
                    "velocity": 0.4645669291338583,
                    "duration": 0.046875
                },
                {
                    "name": "F5",
                    "midi": 77,
                    "time": 124.49999999999994,
                    "velocity": 0.3937007874015748,
                    "duration": 0.046875
                },
                {
                    "name": "C6",
                    "midi": 84,
                    "time": 124.68749999999994,
                    "velocity": 0.4566929133858268,
                    "duration": 0.046875
                },
                {
                    "name": "E5",
                    "midi": 76,
                    "time": 124.68749999999994,
                    "velocity": 0.3858267716535433,
                    "duration": 0.046875
                },
                {
                    "name": "A#5",
                    "midi": 82,
                    "time": 124.87499999999994,
                    "velocity": 0.44881889763779526,
                    "duration": 0.046875
                },
                {
                    "name": "D5",
                    "midi": 74,
                    "time": 124.87499999999994,
                    "velocity": 0.3779527559055118,
                    "duration": 0.046875
                },
                {
                    "name": "A5",
                    "midi": 81,
                    "time": 125.06249999999994,
                    "velocity": 0.4330708661417323,
                    "duration": 0.046875
                },
                {
                    "name": "C5",
                    "midi": 72,
                    "time": 125.06249999999994,
                    "velocity": 0.36220472440944884,
                    "duration": 0.046875
                },
                {
                    "name": "G5",
                    "midi": 79,
                    "time": 125.24999999999994,
                    "velocity": 0.4251968503937008,
                    "duration": 0.046875
                },
                {
                    "name": "A#4",
                    "midi": 70,
                    "time": 125.24999999999994,
                    "velocity": 0.3543307086614173,
                    "duration": 0.046875
                },
                {
                    "name": "F5",
                    "midi": 77,
                    "time": 125.43749999999994,
                    "velocity": 0.41732283464566927,
                    "duration": 0.046875
                },
                {
                    "name": "A4",
                    "midi": 69,
                    "time": 125.43749999999994,
                    "velocity": 0.3543307086614173,
                    "duration": 0.046875
                },
                {
                    "name": "D5",
                    "midi": 74,
                    "time": 125.62499999999994,
                    "velocity": 0.4015748031496063,
                    "duration": 0.046875
                },
                {
                    "name": "G#4",
                    "midi": 68,
                    "time": 125.62499999999994,
                    "velocity": 0.33858267716535434,
                    "duration": 0.046875
                },
                {
                    "name": "A4",
                    "midi": 69,
                    "time": 125.81249999999994,
                    "velocity": 0.33070866141732286,
                    "duration": 0.046875
                },
                {
                    "name": "C5",
                    "midi": 72,
                    "time": 125.81249999999994,
                    "velocity": 0.3937007874015748,
                    "duration": 0.046875
                },
                {
                    "name": "G4",
                    "midi": 67,
                    "time": 125.99999999999994,
                    "velocity": 0.33070866141732286,
                    "duration": 0.1875
                },
                {
                    "name": "B4",
                    "midi": 71,
                    "time": 125.99999999999994,
                    "velocity": 0.3937007874015748,
                    "duration": 0.1875
                },
                {
                    "name": "D4",
                    "midi": 62,
                    "time": 126.18749999999994,
                    "velocity": 0.33858267716535434,
                    "duration": 0.09375
                },
                {
                    "name": "D5",
                    "midi": 74,
                    "time": 126.18749999999994,
                    "velocity": 0.4015748031496063,
                    "duration": 0.09375
                },
                {
                    "name": "B3",
                    "midi": 59,
                    "time": 126.37499999999994,
                    "velocity": 0.3464566929133858,
                    "duration": 0.09375
                },
                {
                    "name": "B4",
                    "midi": 71,
                    "time": 126.37499999999994,
                    "velocity": 0.4094488188976378,
                    "duration": 0.09375
                },
                {
                    "name": "G3",
                    "midi": 55,
                    "time": 126.56249999999994,
                    "velocity": 0.3543307086614173,
                    "duration": 0.09375
                },
                {
                    "name": "G4",
                    "midi": 67,
                    "time": 126.56249999999994,
                    "velocity": 0.41732283464566927,
                    "duration": 0.09375
                },
                {
                    "name": "F4",
                    "midi": 65,
                    "time": 126.74999999999994,
                    "velocity": 0.4251968503937008,
                    "duration": 0.09375
                },
                {
                    "name": "F3",
                    "midi": 53,
                    "time": 126.74999999999994,
                    "velocity": 0.3543307086614173,
                    "duration": 0.09375
                },
                {
                    "name": "D4",
                    "midi": 62,
                    "time": 126.93749999999994,
                    "velocity": 0.44881889763779526,
                    "duration": 0.09375
                },
                {
                    "name": "D3",
                    "midi": 50,
                    "time": 126.93749999999994,
                    "velocity": 0.3700787401574803,
                    "duration": 0.09375
                },
                {
                    "name": "C3",
                    "midi": 48,
                    "time": 127.12499999999994,
                    "velocity": 0.3779527559055118,
                    "duration": 0.09375
                },
                {
                    "name": "C4",
                    "midi": 60,
                    "time": 127.12499999999994,
                    "velocity": 0.4566929133858268,
                    "duration": 0.09375
                },
                {
                    "name": "G2",
                    "midi": 43,
                    "time": 127.31249999999994,
                    "velocity": 0.3937007874015748,
                    "duration": 0.09375
                },
                {
                    "name": "G3",
                    "midi": 55,
                    "time": 127.31249999999994,
                    "velocity": 0.4645669291338583,
                    "duration": 0.09375
                },
                {
                    "name": "E2",
                    "midi": 40,
                    "time": 127.49999999999994,
                    "velocity": 0.4094488188976378,
                    "duration": 0.09375
                },
                {
                    "name": "E3",
                    "midi": 52,
                    "time": 127.49999999999994,
                    "velocity": 0.4881889763779528,
                    "duration": 0.09375
                },
                {
                    "name": "C2",
                    "midi": 36,
                    "time": 127.68749999999994,
                    "velocity": 0.4251968503937008,
                    "duration": 0.09375
                },
                {
                    "name": "C3",
                    "midi": 48,
                    "time": 127.68749999999994,
                    "velocity": 0.5039370078740157,
                    "duration": 0.09375
                },
                {
                    "name": "A#1",
                    "midi": 34,
                    "time": 127.87499999999994,
                    "velocity": 0.44881889763779526,
                    "duration": 0.09375
                },
                {
                    "name": "A#2",
                    "midi": 46,
                    "time": 127.87499999999994,
                    "velocity": 0.5275590551181102,
                    "duration": 0.09375
                },
                {
                    "name": "G1",
                    "midi": 31,
                    "time": 128.06249999999994,
                    "velocity": 0.4645669291338583,
                    "duration": 0.09375
                },
                {
                    "name": "G2",
                    "midi": 43,
                    "time": 128.06249999999994,
                    "velocity": 0.5511811023622047,
                    "duration": 0.09375
                },
                {
                    "name": "F1",
                    "midi": 29,
                    "time": 128.24999999999994,
                    "velocity": 0.4566929133858268,
                    "duration": 0.1875
                },
                {
                    "name": "F2",
                    "midi": 41,
                    "time": 128.24999999999994,
                    "velocity": 0.5826771653543307,
                    "duration": 0.1875
                },
                {
                    "name": "C3",
                    "midi": 48,
                    "time": 128.43749999999994,
                    "velocity": 0.4330708661417323,
                    "duration": 0.1875
                },
                {
                    "name": "F3",
                    "midi": 53,
                    "time": 128.43749999999994,
                    "velocity": 0.4330708661417323,
                    "duration": 0.1875
                },
                {
                    "name": "A3",
                    "midi": 57,
                    "time": 128.43749999999994,
                    "velocity": 0.5118110236220472,
                    "duration": 0.1875
                },
                {
                    "name": "A1",
                    "midi": 33,
                    "time": 128.62499999999994,
                    "velocity": 0.4566929133858268,
                    "duration": 0.1875
                },
                {
                    "name": "A2",
                    "midi": 45,
                    "time": 128.62499999999994,
                    "velocity": 0.5748031496062992,
                    "duration": 0.1875
                },
                {
                    "name": "C3",
                    "midi": 48,
                    "time": 128.81249999999994,
                    "velocity": 0.4251968503937008,
                    "duration": 0.1875
                },
                {
                    "name": "F3",
                    "midi": 53,
                    "time": 128.81249999999994,
                    "velocity": 0.4251968503937008,
                    "duration": 0.1875
                },
                {
                    "name": "A3",
                    "midi": 57,
                    "time": 128.81249999999994,
                    "velocity": 0.5039370078740157,
                    "duration": 0.1875
                },
                {
                    "name": "C2",
                    "midi": 36,
                    "time": 128.99999999999994,
                    "velocity": 0.47244094488188976,
                    "duration": 0.1875
                },
                {
                    "name": "C3",
                    "midi": 48,
                    "time": 128.99999999999994,
                    "velocity": 0.5905511811023622,
                    "duration": 0.1875
                },
                {
                    "name": "C3",
                    "midi": 48,
                    "time": 129.18749999999994,
                    "velocity": 0.4251968503937008,
                    "duration": 0.1875
                },
                {
                    "name": "F3",
                    "midi": 53,
                    "time": 129.18749999999994,
                    "velocity": 0.4251968503937008,
                    "duration": 0.1875
                },
                {
                    "name": "A3",
                    "midi": 57,
                    "time": 129.18749999999994,
                    "velocity": 0.5039370078740157,
                    "duration": 0.1875
                },
                {
                    "name": "F2",
                    "midi": 41,
                    "time": 129.37499999999994,
                    "velocity": 0.47244094488188976,
                    "duration": 0.1875
                },
                {
                    "name": "F3",
                    "midi": 53,
                    "time": 129.37499999999994,
                    "velocity": 0.5826771653543307,
                    "duration": 0.1875
                },
                {
                    "name": "A3",
                    "midi": 57,
                    "time": 129.74999999999994,
                    "velocity": 0.5669291338582677,
                    "duration": 0.0625
                },
                {
                    "name": "C4",
                    "midi": 60,
                    "time": 129.81249999999994,
                    "velocity": 0.5354330708661418,
                    "duration": 0.0625
                },
                {
                    "name": "F4",
                    "midi": 65,
                    "time": 129.87499999999994,
                    "velocity": 0.5354330708661418,
                    "duration": 0.0625
                },
                {
                    "name": "C3",
                    "midi": 48,
                    "time": 130.49999999999994,
                    "velocity": 0.3937007874015748,
                    "duration": 0.09375
                },
                {
                    "name": "E4",
                    "midi": 64,
                    "time": 130.68749999999994,
                    "velocity": 0.3228346456692913,
                    "duration": 0.09375
                },
                {
                    "name": "C4",
                    "midi": 60,
                    "time": 130.68749999999994,
                    "velocity": 0.3228346456692913,
                    "duration": 0.09375
                },
                {
                    "name": "G3",
                    "midi": 55,
                    "time": 130.87499999999994,
                    "velocity": 0.4015748031496063,
                    "duration": 0.09375
                },
                {
                    "name": "E4",
                    "midi": 64,
                    "time": 131.06249999999994,
                    "velocity": 0.3228346456692913,
                    "duration": 0.09375
                },
                {
                    "name": "C4",
                    "midi": 60,
                    "time": 131.06249999999994,
                    "velocity": 0.3228346456692913,
                    "duration": 0.09375
                },
                {
                    "name": "E3",
                    "midi": 52,
                    "time": 131.24999999999994,
                    "velocity": 0.41732283464566927,
                    "duration": 0.09375
                },
                {
                    "name": "E4",
                    "midi": 64,
                    "time": 131.43749999999994,
                    "velocity": 0.3464566929133858,
                    "duration": 0.09375
                },
                {
                    "name": "C4",
                    "midi": 60,
                    "time": 131.43749999999994,
                    "velocity": 0.3464566929133858,
                    "duration": 0.09375
                },
                {
                    "name": "A2",
                    "midi": 45,
                    "time": 131.62499999999994,
                    "velocity": 0.3937007874015748,
                    "duration": 0.09375
                },
                {
                    "name": "C#4",
                    "midi": 61,
                    "time": 131.81249999999994,
                    "velocity": 0.2992125984251969,
                    "duration": 0.09375
                },
                {
                    "name": "A3",
                    "midi": 57,
                    "time": 131.81249999999994,
                    "velocity": 0.2992125984251969,
                    "duration": 0.09375
                },
                {
                    "name": "E3",
                    "midi": 52,
                    "time": 131.99999999999994,
                    "velocity": 0.36220472440944884,
                    "duration": 0.09375
                },
                {
                    "name": "C#4",
                    "midi": 61,
                    "time": 132.18749999999994,
                    "velocity": 0.28346456692913385,
                    "duration": 0.09375
                },
                {
                    "name": "A3",
                    "midi": 57,
                    "time": 132.18749999999994,
                    "velocity": 0.28346456692913385,
                    "duration": 0.09375
                },
                {
                    "name": "A2",
                    "midi": 45,
                    "time": 132.37499999999994,
                    "velocity": 0.3543307086614173,
                    "duration": 0.09375
                },
                {
                    "name": "E3",
                    "midi": 52,
                    "time": 132.56249999999994,
                    "velocity": 0.28346456692913385,
                    "duration": 0.09375
                },
                {
                    "name": "C#3",
                    "midi": 49,
                    "time": 132.56249999999994,
                    "velocity": 0.28346456692913385,
                    "duration": 0.09375
                },
                {
                    "name": "D2",
                    "midi": 38,
                    "time": 132.74999999999994,
                    "velocity": 0.33070866141732286,
                    "duration": 0.09375
                },
                {
                    "name": "F#3",
                    "midi": 54,
                    "time": 132.93749999999994,
                    "velocity": 0.2677165354330709,
                    "duration": 0.09375
                },
                {
                    "name": "D3",
                    "midi": 50,
                    "time": 132.93749999999994,
                    "velocity": 0.2677165354330709,
                    "duration": 0.09375
                },
                {
                    "name": "A2",
                    "midi": 45,
                    "time": 133.12499999999994,
                    "velocity": 0.33858267716535434,
                    "duration": 0.09375
                },
                {
                    "name": "F#3",
                    "midi": 54,
                    "time": 133.31249999999994,
                    "velocity": 0.2677165354330709,
                    "duration": 0.09375
                },
                {
                    "name": "D3",
                    "midi": 50,
                    "time": 133.31249999999994,
                    "velocity": 0.2677165354330709,
                    "duration": 0.09375
                },
                {
                    "name": "D2",
                    "midi": 38,
                    "time": 133.49999999999994,
                    "velocity": 0.3543307086614173,
                    "duration": 0.09375
                },
                {
                    "name": "F#3",
                    "midi": 54,
                    "time": 133.68749999999994,
                    "velocity": 0.29133858267716534,
                    "duration": 0.09375
                },
                {
                    "name": "D3",
                    "midi": 50,
                    "time": 133.68749999999994,
                    "velocity": 0.29133858267716534,
                    "duration": 0.09375
                },
                {
                    "name": "G2",
                    "midi": 43,
                    "time": 133.87499999999994,
                    "velocity": 0.3937007874015748,
                    "duration": 0.09375
                },
                {
                    "name": "A#3",
                    "midi": 58,
                    "time": 134.06249999999994,
                    "velocity": 0.31496062992125984,
                    "duration": 0.1875
                },
                {
                    "name": "G3",
                    "midi": 55,
                    "time": 134.06249999999994,
                    "velocity": 0.31496062992125984,
                    "duration": 0.1875
                },
                {
                    "name": "D3",
                    "midi": 50,
                    "time": 134.24999999999994,
                    "velocity": 0.4094488188976378,
                    "duration": 0.09375
                },
                {
                    "name": "A#3",
                    "midi": 58,
                    "time": 134.43749999999994,
                    "velocity": 0.3543307086614173,
                    "duration": 0.1875
                },
                {
                    "name": "G3",
                    "midi": 55,
                    "time": 134.43749999999994,
                    "velocity": 0.3543307086614173,
                    "duration": 0.1875
                },
                {
                    "name": "G2",
                    "midi": 43,
                    "time": 134.62499999999994,
                    "velocity": 0.4645669291338583,
                    "duration": 0.09375
                },
                {
                    "name": "A#3",
                    "midi": 58,
                    "time": 134.81249999999994,
                    "velocity": 0.3937007874015748,
                    "duration": 0.1875
                },
                {
                    "name": "G3",
                    "midi": 55,
                    "time": 134.81249999999994,
                    "velocity": 0.3937007874015748,
                    "duration": 0.1875
                },
                {
                    "name": "C3",
                    "midi": 48,
                    "time": 134.99999999999994,
                    "velocity": 0.5196850393700787,
                    "duration": 0.375
                },
                {
                    "name": "G3",
                    "midi": 55,
                    "time": 135.18749999999994,
                    "velocity": 0.4409448818897638,
                    "duration": 0.1875
                },
                {
                    "name": "C4",
                    "midi": 60,
                    "time": 135.37499999999994,
                    "velocity": 0.5118110236220472,
                    "duration": 0.375
                },
                {
                    "name": "E4",
                    "midi": 64,
                    "time": 135.37499999999994,
                    "velocity": 0.5118110236220472,
                    "duration": 0.1875
                },
                {
                    "name": "G3",
                    "midi": 55,
                    "time": 135.56249999999994,
                    "velocity": 0.4015748031496063,
                    "duration": 0.1875
                },
                {
                    "name": "E4",
                    "midi": 64,
                    "time": 135.74999999999994,
                    "velocity": 0.4251968503937008,
                    "duration": 0.1875
                },
                {
                    "name": "A#3",
                    "midi": 58,
                    "time": 135.74999999999994,
                    "velocity": 0.4251968503937008,
                    "duration": 0.375
                },
                {
                    "name": "G3",
                    "midi": 55,
                    "time": 135.93749999999994,
                    "velocity": 0.3700787401574803,
                    "duration": 0.1875
                },
                {
                    "name": "A2",
                    "midi": 45,
                    "time": 136.12499999999994,
                    "velocity": 0.4251968503937008,
                    "duration": 0.09375
                },
                {
                    "name": "F4",
                    "midi": 65,
                    "time": 136.31249999999994,
                    "velocity": 0.3700787401574803,
                    "duration": 0.1875
                },
                {
                    "name": "C4",
                    "midi": 60,
                    "time": 136.31249999999994,
                    "velocity": 0.3700787401574803,
                    "duration": 0.1875
                },
                {
                    "name": "A3",
                    "midi": 57,
                    "time": 136.49999999999994,
                    "velocity": 0.4251968503937008,
                    "duration": 0.09375
                },
                {
                    "name": "F4",
                    "midi": 65,
                    "time": 136.68749999999994,
                    "velocity": 0.3779527559055118,
                    "duration": 0.1875
                },
                {
                    "name": "C4",
                    "midi": 60,
                    "time": 136.68749999999994,
                    "velocity": 0.3779527559055118,
                    "duration": 0.1875
                },
                {
                    "name": "B2",
                    "midi": 47,
                    "time": 136.87499999999994,
                    "velocity": 0.4251968503937008,
                    "duration": 0.09375
                },
                {
                    "name": "F4",
                    "midi": 65,
                    "time": 137.06249999999994,
                    "velocity": 0.3700787401574803,
                    "duration": 0.1875
                },
                {
                    "name": "D4",
                    "midi": 62,
                    "time": 137.06249999999994,
                    "velocity": 0.3700787401574803,
                    "duration": 0.1875
                },
                {
                    "name": "G3",
                    "midi": 55,
                    "time": 137.06249999999994,
                    "velocity": 0.3700787401574803,
                    "duration": 0.1875
                },
                {
                    "name": "C3",
                    "midi": 48,
                    "time": 137.24999999999994,
                    "velocity": 0.4251968503937008,
                    "duration": 0.09375
                },
                {
                    "name": "F4",
                    "midi": 65,
                    "time": 137.43749999999994,
                    "velocity": 0.3700787401574803,
                    "duration": 0.1875
                },
                {
                    "name": "C4",
                    "midi": 60,
                    "time": 137.43749999999994,
                    "velocity": 0.3700787401574803,
                    "duration": 0.1875
                },
                {
                    "name": "A3",
                    "midi": 57,
                    "time": 137.43749999999994,
                    "velocity": 0.3700787401574803,
                    "duration": 0.1875
                },
                {
                    "name": "C2",
                    "midi": 36,
                    "time": 137.99999999999994,
                    "velocity": 0.4251968503937008,
                    "duration": 0.09375
                },
                {
                    "name": "E3",
                    "midi": 52,
                    "time": 138.18749999999994,
                    "velocity": 0.3700787401574803,
                    "duration": 0.1875
                },
                {
                    "name": "G3",
                    "midi": 55,
                    "time": 138.18749999999994,
                    "velocity": 0.3700787401574803,
                    "duration": 0.1875
                },
                {
                    "name": "F2",
                    "midi": 41,
                    "time": 138.37499999999994,
                    "velocity": 0.4251968503937008,
                    "duration": 0.75
                },
                {
                    "name": "C3",
                    "midi": 48,
                    "time": 138.56249999999994,
                    "velocity": 0.3779527559055118,
                    "duration": 0.09375
                },
                {
                    "name": "C4",
                    "midi": 60,
                    "time": 138.74999999999994,
                    "velocity": 0.3937007874015748,
                    "duration": 0.09375
                },
                {
                    "name": "C5",
                    "midi": 72,
                    "time": 138.93749999999994,
                    "velocity": 0.4094488188976378,
                    "duration": 0.09375
                },
                {
                    "name": "A5",
                    "midi": 81,
                    "time": 139.12499999999994,
                    "velocity": 0.4645669291338583,
                    "duration": 0.0625
                },
                {
                    "name": "C6",
                    "midi": 84,
                    "time": 139.18749999999994,
                    "velocity": 0.4881889763779528,
                    "duration": 0.0625
                },
                {
                    "name": "F6",
                    "midi": 89,
                    "time": 139.24999999999994,
                    "velocity": 0.5118110236220472,
                    "duration": 0.0625
                },
                {
                    "name": "C3",
                    "midi": 48,
                    "time": 139.49999999999994,
                    "velocity": 0.3937007874015748,
                    "duration": 0.09375
                },
                {
                    "name": "E4",
                    "midi": 64,
                    "time": 139.68749999999994,
                    "velocity": 0.3228346456692913,
                    "duration": 0.09375
                },
                {
                    "name": "C4",
                    "midi": 60,
                    "time": 139.68749999999994,
                    "velocity": 0.3228346456692913,
                    "duration": 0.09375
                },
                {
                    "name": "G3",
                    "midi": 55,
                    "time": 139.87499999999994,
                    "velocity": 0.4015748031496063,
                    "duration": 0.09375
                },
                {
                    "name": "E4",
                    "midi": 64,
                    "time": 140.06249999999994,
                    "velocity": 0.3228346456692913,
                    "duration": 0.09375
                },
                {
                    "name": "C4",
                    "midi": 60,
                    "time": 140.06249999999994,
                    "velocity": 0.3228346456692913,
                    "duration": 0.09375
                },
                {
                    "name": "E3",
                    "midi": 52,
                    "time": 140.24999999999994,
                    "velocity": 0.41732283464566927,
                    "duration": 0.09375
                },
                {
                    "name": "E4",
                    "midi": 64,
                    "time": 140.43749999999994,
                    "velocity": 0.3464566929133858,
                    "duration": 0.09375
                },
                {
                    "name": "C4",
                    "midi": 60,
                    "time": 140.43749999999994,
                    "velocity": 0.3464566929133858,
                    "duration": 0.09375
                },
                {
                    "name": "A2",
                    "midi": 45,
                    "time": 140.62499999999994,
                    "velocity": 0.3937007874015748,
                    "duration": 0.09375
                },
                {
                    "name": "C#4",
                    "midi": 61,
                    "time": 140.81249999999994,
                    "velocity": 0.2992125984251969,
                    "duration": 0.09375
                },
                {
                    "name": "A3",
                    "midi": 57,
                    "time": 140.81249999999994,
                    "velocity": 0.2992125984251969,
                    "duration": 0.09375
                },
                {
                    "name": "E3",
                    "midi": 52,
                    "time": 140.99999999999994,
                    "velocity": 0.36220472440944884,
                    "duration": 0.09375
                },
                {
                    "name": "C#4",
                    "midi": 61,
                    "time": 141.18749999999994,
                    "velocity": 0.28346456692913385,
                    "duration": 0.09375
                },
                {
                    "name": "A3",
                    "midi": 57,
                    "time": 141.18749999999994,
                    "velocity": 0.28346456692913385,
                    "duration": 0.09375
                },
                {
                    "name": "A2",
                    "midi": 45,
                    "time": 141.37499999999994,
                    "velocity": 0.3543307086614173,
                    "duration": 0.09375
                },
                {
                    "name": "E3",
                    "midi": 52,
                    "time": 141.56249999999994,
                    "velocity": 0.28346456692913385,
                    "duration": 0.09375
                },
                {
                    "name": "C#3",
                    "midi": 49,
                    "time": 141.56249999999994,
                    "velocity": 0.28346456692913385,
                    "duration": 0.09375
                },
                {
                    "name": "D2",
                    "midi": 38,
                    "time": 141.74999999999994,
                    "velocity": 0.33070866141732286,
                    "duration": 0.09375
                },
                {
                    "name": "F#3",
                    "midi": 54,
                    "time": 141.93749999999994,
                    "velocity": 0.2677165354330709,
                    "duration": 0.09375
                },
                {
                    "name": "D3",
                    "midi": 50,
                    "time": 141.93749999999994,
                    "velocity": 0.2677165354330709,
                    "duration": 0.09375
                },
                {
                    "name": "A2",
                    "midi": 45,
                    "time": 142.12499999999994,
                    "velocity": 0.33858267716535434,
                    "duration": 0.09375
                },
                {
                    "name": "F#3",
                    "midi": 54,
                    "time": 142.31249999999994,
                    "velocity": 0.2677165354330709,
                    "duration": 0.09375
                },
                {
                    "name": "D3",
                    "midi": 50,
                    "time": 142.31249999999994,
                    "velocity": 0.2677165354330709,
                    "duration": 0.09375
                },
                {
                    "name": "D2",
                    "midi": 38,
                    "time": 142.49999999999994,
                    "velocity": 0.3543307086614173,
                    "duration": 0.09375
                },
                {
                    "name": "F#3",
                    "midi": 54,
                    "time": 142.68749999999994,
                    "velocity": 0.29133858267716534,
                    "duration": 0.09375
                },
                {
                    "name": "D3",
                    "midi": 50,
                    "time": 142.68749999999994,
                    "velocity": 0.29133858267716534,
                    "duration": 0.09375
                },
                {
                    "name": "G2",
                    "midi": 43,
                    "time": 142.87499999999994,
                    "velocity": 0.3937007874015748,
                    "duration": 0.09375
                },
                {
                    "name": "A#3",
                    "midi": 58,
                    "time": 143.06249999999994,
                    "velocity": 0.31496062992125984,
                    "duration": 0.1875
                },
                {
                    "name": "G3",
                    "midi": 55,
                    "time": 143.06249999999994,
                    "velocity": 0.31496062992125984,
                    "duration": 0.1875
                },
                {
                    "name": "D3",
                    "midi": 50,
                    "time": 143.24999999999994,
                    "velocity": 0.4094488188976378,
                    "duration": 0.09375
                },
                {
                    "name": "A#3",
                    "midi": 58,
                    "time": 143.43749999999994,
                    "velocity": 0.3543307086614173,
                    "duration": 0.1875
                },
                {
                    "name": "G3",
                    "midi": 55,
                    "time": 143.43749999999994,
                    "velocity": 0.3543307086614173,
                    "duration": 0.1875
                },
                {
                    "name": "G2",
                    "midi": 43,
                    "time": 143.62499999999994,
                    "velocity": 0.4645669291338583,
                    "duration": 0.09375
                },
                {
                    "name": "A#3",
                    "midi": 58,
                    "time": 143.81249999999994,
                    "velocity": 0.3937007874015748,
                    "duration": 0.1875
                },
                {
                    "name": "G3",
                    "midi": 55,
                    "time": 143.81249999999994,
                    "velocity": 0.3937007874015748,
                    "duration": 0.1875
                },
                {
                    "name": "C3",
                    "midi": 48,
                    "time": 143.99999999999994,
                    "velocity": 0.5196850393700787,
                    "duration": 0.375
                },
                {
                    "name": "G3",
                    "midi": 55,
                    "time": 144.18749999999994,
                    "velocity": 0.4409448818897638,
                    "duration": 0.1875
                },
                {
                    "name": "C4",
                    "midi": 60,
                    "time": 144.37499999999994,
                    "velocity": 0.5118110236220472,
                    "duration": 0.375
                },
                {
                    "name": "E4",
                    "midi": 64,
                    "time": 144.37499999999994,
                    "velocity": 0.5118110236220472,
                    "duration": 0.1875
                },
                {
                    "name": "G3",
                    "midi": 55,
                    "time": 144.56249999999994,
                    "velocity": 0.4015748031496063,
                    "duration": 0.1875
                },
                {
                    "name": "E4",
                    "midi": 64,
                    "time": 144.74999999999994,
                    "velocity": 0.4251968503937008,
                    "duration": 0.1875
                },
                {
                    "name": "A#3",
                    "midi": 58,
                    "time": 144.74999999999994,
                    "velocity": 0.4251968503937008,
                    "duration": 0.375
                },
                {
                    "name": "G3",
                    "midi": 55,
                    "time": 144.93749999999994,
                    "velocity": 0.3700787401574803,
                    "duration": 0.1875
                },
                {
                    "name": "A2",
                    "midi": 45,
                    "time": 145.12499999999994,
                    "velocity": 0.4251968503937008,
                    "duration": 0.09375
                },
                {
                    "name": "F4",
                    "midi": 65,
                    "time": 145.31249999999994,
                    "velocity": 0.3700787401574803,
                    "duration": 0.1875
                },
                {
                    "name": "C4",
                    "midi": 60,
                    "time": 145.31249999999994,
                    "velocity": 0.3700787401574803,
                    "duration": 0.1875
                },
                {
                    "name": "A3",
                    "midi": 57,
                    "time": 145.49999999999994,
                    "velocity": 0.4251968503937008,
                    "duration": 0.09375
                },
                {
                    "name": "F4",
                    "midi": 65,
                    "time": 145.68749999999994,
                    "velocity": 0.3779527559055118,
                    "duration": 0.1875
                },
                {
                    "name": "C4",
                    "midi": 60,
                    "time": 145.68749999999994,
                    "velocity": 0.3779527559055118,
                    "duration": 0.1875
                },
                {
                    "name": "B2",
                    "midi": 47,
                    "time": 145.87499999999994,
                    "velocity": 0.4251968503937008,
                    "duration": 0.09375
                },
                {
                    "name": "F4",
                    "midi": 65,
                    "time": 146.06249999999994,
                    "velocity": 0.3700787401574803,
                    "duration": 0.1875
                },
                {
                    "name": "D4",
                    "midi": 62,
                    "time": 146.06249999999994,
                    "velocity": 0.3700787401574803,
                    "duration": 0.1875
                },
                {
                    "name": "G3",
                    "midi": 55,
                    "time": 146.06249999999994,
                    "velocity": 0.3700787401574803,
                    "duration": 0.1875
                },
                {
                    "name": "C3",
                    "midi": 48,
                    "time": 146.24999999999994,
                    "velocity": 0.4251968503937008,
                    "duration": 0.09375
                },
                {
                    "name": "F4",
                    "midi": 65,
                    "time": 146.43749999999994,
                    "velocity": 0.3700787401574803,
                    "duration": 0.1875
                },
                {
                    "name": "C4",
                    "midi": 60,
                    "time": 146.43749999999994,
                    "velocity": 0.3700787401574803,
                    "duration": 0.1875
                },
                {
                    "name": "A3",
                    "midi": 57,
                    "time": 146.43749999999994,
                    "velocity": 0.3700787401574803,
                    "duration": 0.1875
                },
                {
                    "name": "C2",
                    "midi": 36,
                    "time": 146.99999999999994,
                    "velocity": 0.4251968503937008,
                    "duration": 0.09375
                },
                {
                    "name": "E3",
                    "midi": 52,
                    "time": 147.18749999999994,
                    "velocity": 0.3700787401574803,
                    "duration": 0.1875
                },
                {
                    "name": "G3",
                    "midi": 55,
                    "time": 147.18749999999994,
                    "velocity": 0.3700787401574803,
                    "duration": 0.1875
                },
                {
                    "name": "F2",
                    "midi": 41,
                    "time": 147.37499999999994,
                    "velocity": 0.4251968503937008,
                    "duration": 0.1875
                },
                {
                    "name": "F3",
                    "midi": 53,
                    "time": 147.74999999999994,
                    "velocity": 0.3228346456692913,
                    "duration": 0.1875
                },
                {
                    "name": "A3",
                    "midi": 57,
                    "time": 147.77343749999994,
                    "velocity": 0.3543307086614173,
                    "duration": 0.1640625
                },
                {
                    "name": "C4",
                    "midi": 60,
                    "time": 147.79687499999994,
                    "velocity": 0.3858267716535433,
                    "duration": 0.140625
                },
                {
                    "name": "F4",
                    "midi": 65,
                    "time": 147.82031249999994,
                    "velocity": 0.41732283464566927,
                    "duration": 0.1171875
                },
                {
                    "name": "G#2",
                    "midi": 44,
                    "time": 150.18749999999994,
                    "velocity": 0.28346456692913385,
                    "duration": 0.375
                },
                {
                    "name": "D#4",
                    "midi": 63,
                    "time": 150.56249999999994,
                    "velocity": 0.25196850393700787,
                    "duration": 0.18593749999999432
                },
                {
                    "name": "C4",
                    "midi": 60,
                    "time": 150.56249999999994,
                    "velocity": 0.2125984251968504,
                    "duration": 0.18593749999999432
                },
                {
                    "name": "D#3",
                    "midi": 51,
                    "time": 150.56249999999994,
                    "velocity": 0.2125984251968504,
                    "duration": 0.18593749999999432
                },
                {
                    "name": "D#4",
                    "midi": 63,
                    "time": 150.74999999999994,
                    "velocity": 0.2992125984251969,
                    "duration": 0.37109375
                },
                {
                    "name": "C4",
                    "midi": 60,
                    "time": 150.74999999999994,
                    "velocity": 0.2440944881889764,
                    "duration": 0.37109375
                },
                {
                    "name": "G#3",
                    "midi": 56,
                    "time": 150.74999999999994,
                    "velocity": 0.2440944881889764,
                    "duration": 0.37109375
                },
                {
                    "name": "D#4",
                    "midi": 63,
                    "time": 151.12499999999994,
                    "velocity": 0.2755905511811024,
                    "duration": 0.18593749999999432
                },
                {
                    "name": "C4",
                    "midi": 60,
                    "time": 151.12499999999994,
                    "velocity": 0.2283464566929134,
                    "duration": 0.18593749999999432
                },
                {
                    "name": "D#3",
                    "midi": 51,
                    "time": 151.12499999999994,
                    "velocity": 0.2283464566929134,
                    "duration": 0.18593749999999432
                },
                {
                    "name": "G#3",
                    "midi": 56,
                    "time": 151.31249999999994,
                    "velocity": 0.25984251968503935,
                    "duration": 0.37109375
                },
                {
                    "name": "C4",
                    "midi": 60,
                    "time": 151.31249999999994,
                    "velocity": 0.25984251968503935,
                    "duration": 0.37109375
                },
                {
                    "name": "D#4",
                    "midi": 63,
                    "time": 151.31249999999994,
                    "velocity": 0.31496062992125984,
                    "duration": 0.37109375
                },
                {
                    "name": "D#3",
                    "midi": 51,
                    "time": 151.68749999999994,
                    "velocity": 0.23622047244094488,
                    "duration": 0.18593749999999432
                },
                {
                    "name": "C4",
                    "midi": 60,
                    "time": 151.68749999999994,
                    "velocity": 0.23622047244094488,
                    "duration": 0.18593749999999432
                },
                {
                    "name": "D#4",
                    "midi": 63,
                    "time": 151.68749999999994,
                    "velocity": 0.28346456692913385,
                    "duration": 0.18593749999999432
                },
                {
                    "name": "F2",
                    "midi": 41,
                    "time": 151.87499999999994,
                    "velocity": 0.3937007874015748,
                    "duration": 0.375
                },
                {
                    "name": "F4",
                    "midi": 65,
                    "time": 152.24999999999994,
                    "velocity": 0.33858267716535434,
                    "duration": 0.18593749999999432
                },
                {
                    "name": "D#4",
                    "midi": 63,
                    "time": 152.24999999999994,
                    "velocity": 0.28346456692913385,
                    "duration": 0.18593749999999432
                },
                {
                    "name": "F3",
                    "midi": 53,
                    "time": 152.24999999999994,
                    "velocity": 0.28346456692913385,
                    "duration": 0.18593749999999432
                },
                {
                    "name": "F4",
                    "midi": 65,
                    "time": 152.43749999999994,
                    "velocity": 0.33858267716535434,
                    "duration": 0.37109375
                },
                {
                    "name": "D#4",
                    "midi": 63,
                    "time": 152.43749999999994,
                    "velocity": 0.28346456692913385,
                    "duration": 0.37109375
                },
                {
                    "name": "A3",
                    "midi": 57,
                    "time": 152.43749999999994,
                    "velocity": 0.28346456692913385,
                    "duration": 0.37109375
                },
                {
                    "name": "F4",
                    "midi": 65,
                    "time": 152.81249999999994,
                    "velocity": 0.31496062992125984,
                    "duration": 0.18593749999999432
                },
                {
                    "name": "D#4",
                    "midi": 63,
                    "time": 152.81249999999994,
                    "velocity": 0.25984251968503935,
                    "duration": 0.18593749999999432
                },
                {
                    "name": "F3",
                    "midi": 53,
                    "time": 152.81249999999994,
                    "velocity": 0.25984251968503935,
                    "duration": 0.18593749999999432
                },
                {
                    "name": "F4",
                    "midi": 65,
                    "time": 152.99999999999994,
                    "velocity": 0.30708661417322836,
                    "duration": 0.37109375
                },
                {
                    "name": "D#4",
                    "midi": 63,
                    "time": 152.99999999999994,
                    "velocity": 0.25984251968503935,
                    "duration": 0.37109375
                },
                {
                    "name": "A3",
                    "midi": 57,
                    "time": 152.99999999999994,
                    "velocity": 0.25984251968503935,
                    "duration": 0.37109375
                },
                {
                    "name": "F4",
                    "midi": 65,
                    "time": 153.37499999999994,
                    "velocity": 0.2677165354330709,
                    "duration": 0.18593749999999432
                },
                {
                    "name": "D#4",
                    "midi": 63,
                    "time": 153.37499999999994,
                    "velocity": 0.2283464566929134,
                    "duration": 0.18593749999999432
                },
                {
                    "name": "F3",
                    "midi": 53,
                    "time": 153.37499999999994,
                    "velocity": 0.2283464566929134,
                    "duration": 0.18593749999999432
                },
                {
                    "name": "A#2",
                    "midi": 46,
                    "time": 153.56249999999994,
                    "velocity": 0.2677165354330709,
                    "duration": 0.3750000000000284
                },
                {
                    "name": "F4",
                    "midi": 65,
                    "time": 153.93749999999997,
                    "velocity": 0.2440944881889764,
                    "duration": 0.18593749999999432
                },
                {
                    "name": "C#4",
                    "midi": 61,
                    "time": 153.93749999999997,
                    "velocity": 0.2047244094488189,
                    "duration": 0.18593749999999432
                },
                {
                    "name": "F3",
                    "midi": 53,
                    "time": 153.93749999999997,
                    "velocity": 0.2047244094488189,
                    "duration": 0.18593749999999432
                },
                {
                    "name": "A#3",
                    "midi": 58,
                    "time": 154.12499999999997,
                    "velocity": 0.2047244094488189,
                    "duration": 0.37109375
                },
                {
                    "name": "C#4",
                    "midi": 61,
                    "time": 154.12499999999997,
                    "velocity": 0.2047244094488189,
                    "duration": 0.37109375
                },
                {
                    "name": "F4",
                    "midi": 65,
                    "time": 154.12499999999997,
                    "velocity": 0.2440944881889764,
                    "duration": 0.37109375
                },
                {
                    "name": "F3",
                    "midi": 53,
                    "time": 154.49999999999997,
                    "velocity": 0.1968503937007874,
                    "duration": 0.18593749999999432
                },
                {
                    "name": "C#4",
                    "midi": 61,
                    "time": 154.49999999999997,
                    "velocity": 0.1968503937007874,
                    "duration": 0.18593749999999432
                },
                {
                    "name": "F4",
                    "midi": 65,
                    "time": 154.49999999999997,
                    "velocity": 0.23622047244094488,
                    "duration": 0.18593749999999432
                },
                {
                    "name": "A#3",
                    "midi": 58,
                    "time": 154.68749999999997,
                    "velocity": 0.1968503937007874,
                    "duration": 0.37109375
                },
                {
                    "name": "C#4",
                    "midi": 61,
                    "time": 154.68749999999997,
                    "velocity": 0.1968503937007874,
                    "duration": 0.37109375
                },
                {
                    "name": "F4",
                    "midi": 65,
                    "time": 154.68749999999997,
                    "velocity": 0.23622047244094488,
                    "duration": 0.37109375
                },
                {
                    "name": "F3",
                    "midi": 53,
                    "time": 155.06249999999997,
                    "velocity": 0.2047244094488189,
                    "duration": 0.18593749999999432
                },
                {
                    "name": "C#4",
                    "midi": 61,
                    "time": 155.06249999999997,
                    "velocity": 0.2047244094488189,
                    "duration": 0.18593749999999432
                },
                {
                    "name": "F4",
                    "midi": 65,
                    "time": 155.06249999999997,
                    "velocity": 0.2440944881889764,
                    "duration": 0.18593749999999432
                },
                {
                    "name": "D#3",
                    "midi": 51,
                    "time": 155.24999999999997,
                    "velocity": 0.2755905511811024,
                    "duration": 1.6875
                },
                {
                    "name": "A#3",
                    "midi": 58,
                    "time": 155.62499999999997,
                    "velocity": 0.1968503937007874,
                    "duration": 0.18593749999999432
                },
                {
                    "name": "G4",
                    "midi": 67,
                    "time": 155.62499999999997,
                    "velocity": 0.23622047244094488,
                    "duration": 0.18593749999999432
                },
                {
                    "name": "D#4",
                    "midi": 63,
                    "time": 155.81249999999997,
                    "velocity": 0.2755905511811024,
                    "duration": 0.37109375
                },
                {
                    "name": "C4",
                    "midi": 60,
                    "time": 155.81249999999997,
                    "velocity": 0.2283464566929134,
                    "duration": 0.37109375
                },
                {
                    "name": "G4",
                    "midi": 67,
                    "time": 156.18749999999997,
                    "velocity": 0.2440944881889764,
                    "duration": 0.18593749999999432
                },
                {
                    "name": "A#3",
                    "midi": 58,
                    "time": 156.18749999999997,
                    "velocity": 0.2047244094488189,
                    "duration": 0.18593749999999432
                },
                {
                    "name": "G4",
                    "midi": 67,
                    "time": 156.37499999999997,
                    "velocity": 0.2755905511811024,
                    "duration": 0.37109375
                },
                {
                    "name": "D#4",
                    "midi": 63,
                    "time": 156.37499999999997,
                    "velocity": 0.2283464566929134,
                    "duration": 0.37109375
                },
                {
                    "name": "G4",
                    "midi": 67,
                    "time": 156.74999999999997,
                    "velocity": 0.2440944881889764,
                    "duration": 0.18593749999999432
                },
                {
                    "name": "A#3",
                    "midi": 58,
                    "time": 156.74999999999997,
                    "velocity": 0.2047244094488189,
                    "duration": 0.18593749999999432
                },
                {
                    "name": "F3",
                    "midi": 53,
                    "time": 156.93749999999997,
                    "velocity": 0.2755905511811024,
                    "duration": 1.6875000000000284
                },
                {
                    "name": "G#4",
                    "midi": 68,
                    "time": 157.3125,
                    "velocity": 0.23622047244094488,
                    "duration": 0.18593749999999432
                },
                {
                    "name": "A#3",
                    "midi": 58,
                    "time": 157.3125,
                    "velocity": 0.1968503937007874,
                    "duration": 0.18593749999999432
                },
                {
                    "name": "G#4",
                    "midi": 68,
                    "time": 157.5,
                    "velocity": 0.2755905511811024,
                    "duration": 0.37109375
                },
                {
                    "name": "D4",
                    "midi": 62,
                    "time": 157.5,
                    "velocity": 0.2283464566929134,
                    "duration": 0.37109375
                },
                {
                    "name": "G#4",
                    "midi": 68,
                    "time": 157.875,
                    "velocity": 0.2440944881889764,
                    "duration": 0.18593749999999432
                },
                {
                    "name": "A#3",
                    "midi": 58,
                    "time": 157.875,
                    "velocity": 0.2047244094488189,
                    "duration": 0.18593749999999432
                },
                {
                    "name": "D4",
                    "midi": 62,
                    "time": 158.0625,
                    "velocity": 0.2283464566929134,
                    "duration": 0.37109375
                },
                {
                    "name": "G#4",
                    "midi": 68,
                    "time": 158.0625,
                    "velocity": 0.2755905511811024,
                    "duration": 0.37109375
                },
                {
                    "name": "A#3",
                    "midi": 58,
                    "time": 158.4375,
                    "velocity": 0.2047244094488189,
                    "duration": 0.18593749999999432
                },
                {
                    "name": "G#4",
                    "midi": 68,
                    "time": 158.4375,
                    "velocity": 0.2440944881889764,
                    "duration": 0.18593749999999432
                },
                {
                    "name": "D3",
                    "midi": 50,
                    "time": 158.625,
                    "velocity": 0.2755905511811024,
                    "duration": 0.5625
                },
                {
                    "name": "A#3",
                    "midi": 58,
                    "time": 159,
                    "velocity": 0.2047244094488189,
                    "duration": 0.1875
                },
                {
                    "name": "D4",
                    "midi": 62,
                    "time": 159,
                    "velocity": 0.2440944881889764,
                    "duration": 0.1875
                },
                {
                    "name": "F3",
                    "midi": 53,
                    "time": 159.1875,
                    "velocity": 0.2755905511811024,
                    "duration": 0.5625
                },
                {
                    "name": "A#3",
                    "midi": 58,
                    "time": 159.5625,
                    "velocity": 0.2047244094488189,
                    "duration": 0.1875
                },
                {
                    "name": "D4",
                    "midi": 62,
                    "time": 159.5625,
                    "velocity": 0.2440944881889764,
                    "duration": 0.1875
                },
                {
                    "name": "G#3",
                    "midi": 56,
                    "time": 159.75,
                    "velocity": 0.2755905511811024,
                    "duration": 0.5625
                },
                {
                    "name": "D4",
                    "midi": 62,
                    "time": 160.125,
                    "velocity": 0.2047244094488189,
                    "duration": 0.1875
                },
                {
                    "name": "F4",
                    "midi": 65,
                    "time": 160.125,
                    "velocity": 0.2440944881889764,
                    "duration": 0.1875
                },
                {
                    "name": "A#3",
                    "midi": 58,
                    "time": 160.125,
                    "velocity": 0.2047244094488189,
                    "duration": 0.1875
                },
                {
                    "name": "G3",
                    "midi": 55,
                    "time": 160.3125,
                    "velocity": 0.2755905511811024,
                    "duration": 1.6875
                },
                {
                    "name": "G4",
                    "midi": 67,
                    "time": 160.6875,
                    "velocity": 0.23622047244094488,
                    "duration": 0.18593749999999432
                },
                {
                    "name": "A#3",
                    "midi": 58,
                    "time": 160.6875,
                    "velocity": 0.1968503937007874,
                    "duration": 0.18593749999999432
                },
                {
                    "name": "G4",
                    "midi": 67,
                    "time": 160.875,
                    "velocity": 0.2755905511811024,
                    "duration": 0.37109375
                },
                {
                    "name": "D#4",
                    "midi": 63,
                    "time": 160.875,
                    "velocity": 0.2283464566929134,
                    "duration": 0.37109375
                },
                {
                    "name": "G4",
                    "midi": 67,
                    "time": 161.25,
                    "velocity": 0.2440944881889764,
                    "duration": 0.18593749999999432
                },
                {
                    "name": "A#3",
                    "midi": 58,
                    "time": 161.25,
                    "velocity": 0.2047244094488189,
                    "duration": 0.18593749999999432
                },
                {
                    "name": "D#4",
                    "midi": 63,
                    "time": 161.4375,
                    "velocity": 0.2283464566929134,
                    "duration": 0.37109375
                },
                {
                    "name": "G4",
                    "midi": 67,
                    "time": 161.4375,
                    "velocity": 0.2755905511811024,
                    "duration": 0.37109375
                },
                {
                    "name": "A#3",
                    "midi": 58,
                    "time": 161.8125,
                    "velocity": 0.2047244094488189,
                    "duration": 0.18593749999999432
                },
                {
                    "name": "G4",
                    "midi": 67,
                    "time": 161.8125,
                    "velocity": 0.2440944881889764,
                    "duration": 0.18593749999999432
                },
                {
                    "name": "D#3",
                    "midi": 51,
                    "time": 162,
                    "velocity": 0.2755905511811024,
                    "duration": 0.5625
                },
                {
                    "name": "D#4",
                    "midi": 63,
                    "time": 162.375,
                    "velocity": 0.2125984251968504,
                    "duration": 0.1875
                },
                {
                    "name": "G4",
                    "midi": 67,
                    "time": 162.375,
                    "velocity": 0.25196850393700787,
                    "duration": 0.1875
                },
                {
                    "name": "G3",
                    "midi": 55,
                    "time": 162.5625,
                    "velocity": 0.29133858267716534,
                    "duration": 0.5625
                },
                {
                    "name": "D#4",
                    "midi": 63,
                    "time": 162.9375,
                    "velocity": 0.2204724409448819,
                    "duration": 0.1875
                },
                {
                    "name": "G4",
                    "midi": 67,
                    "time": 162.9375,
                    "velocity": 0.2677165354330709,
                    "duration": 0.1875
                },
                {
                    "name": "A3",
                    "midi": 57,
                    "time": 163.125,
                    "velocity": 0.30708661417322836,
                    "duration": 0.5625
                },
                {
                    "name": "D#4",
                    "midi": 63,
                    "time": 163.5,
                    "velocity": 0.23622047244094488,
                    "duration": 0.1875
                },
                {
                    "name": "F#4",
                    "midi": 66,
                    "time": 163.5,
                    "velocity": 0.23622047244094488,
                    "duration": 0.1875
                },
                {
                    "name": "A#3",
                    "midi": 58,
                    "time": 163.6875,
                    "velocity": 0.2440944881889764,
                    "duration": 1.4999999999999716
                },
                {
                    "name": "A#4",
                    "midi": 70,
                    "time": 163.6875,
                    "velocity": 0.29133858267716534,
                    "duration": 1.4999999999999716
                },
                {
                    "name": "D#4",
                    "midi": 63,
                    "time": 164.06249999999997,
                    "velocity": 0.2283464566929134,
                    "duration": 0.18593749999999432
                },
                {
                    "name": "G4",
                    "midi": 67,
                    "time": 164.06249999999997,
                    "velocity": 0.2755905511811024,
                    "duration": 0.18593749999999432
                },
                {
                    "name": "D#4",
                    "midi": 63,
                    "time": 164.24999999999997,
                    "velocity": 0.2283464566929134,
                    "duration": 0.37109375
                },
                {
                    "name": "G4",
                    "midi": 67,
                    "time": 164.24999999999997,
                    "velocity": 0.2755905511811024,
                    "duration": 0.37109375
                },
                {
                    "name": "D#4",
                    "midi": 63,
                    "time": 164.62499999999997,
                    "velocity": 0.2283464566929134,
                    "duration": 0.18593749999999432
                },
                {
                    "name": "G4",
                    "midi": 67,
                    "time": 164.62499999999997,
                    "velocity": 0.2755905511811024,
                    "duration": 0.18593749999999432
                },
                {
                    "name": "D#4",
                    "midi": 63,
                    "time": 164.81249999999997,
                    "velocity": 0.25984251968503935,
                    "duration": 0.375
                },
                {
                    "name": "G#4",
                    "midi": 68,
                    "time": 164.81249999999997,
                    "velocity": 0.30708661417322836,
                    "duration": 0.375
                },
                {
                    "name": "D4",
                    "midi": 62,
                    "time": 165.18749999999997,
                    "velocity": 0.2283464566929134,
                    "duration": 0.1875
                },
                {
                    "name": "G#4",
                    "midi": 68,
                    "time": 165.18749999999997,
                    "velocity": 0.2755905511811024,
                    "duration": 0.1875
                },
                {
                    "name": "D#4",
                    "midi": 63,
                    "time": 165.37499999999997,
                    "velocity": 0.25196850393700787,
                    "duration": 0.37109375
                },
                {
                    "name": "F4",
                    "midi": 65,
                    "time": 165.37499999999997,
                    "velocity": 0.25196850393700787,
                    "duration": 0.37109375
                },
                {
                    "name": "G#4",
                    "midi": 68,
                    "time": 165.37499999999997,
                    "velocity": 0.2992125984251969,
                    "duration": 0.37109375
                },
                {
                    "name": "D#4",
                    "midi": 63,
                    "time": 165.74999999999997,
                    "velocity": 0.2283464566929134,
                    "duration": 0.18593749999999432
                },
                {
                    "name": "F4",
                    "midi": 65,
                    "time": 165.74999999999997,
                    "velocity": 0.2283464566929134,
                    "duration": 0.18593749999999432
                },
                {
                    "name": "G#4",
                    "midi": 68,
                    "time": 165.74999999999997,
                    "velocity": 0.2755905511811024,
                    "duration": 0.18593749999999432
                },
                {
                    "name": "D#4",
                    "midi": 63,
                    "time": 165.93749999999997,
                    "velocity": 0.23622047244094488,
                    "duration": 0.37109375
                },
                {
                    "name": "G4",
                    "midi": 67,
                    "time": 165.93749999999997,
                    "velocity": 0.28346456692913385,
                    "duration": 0.37109375
                },
                {
                    "name": "D#4",
                    "midi": 63,
                    "time": 166.31249999999997,
                    "velocity": 0.28346456692913385,
                    "duration": 0.09375
                },
                {
                    "name": "G4",
                    "midi": 67,
                    "time": 166.31249999999997,
                    "velocity": 0.28346456692913385,
                    "duration": 0.09375
                },
                {
                    "name": "D#3",
                    "midi": 51,
                    "time": 166.40624999999997,
                    "velocity": 0.30708661417322836,
                    "duration": 0.046875
                },
                {
                    "name": "F#3",
                    "midi": 54,
                    "time": 166.45312499999997,
                    "velocity": 0.3464566929133858,
                    "duration": 0.046875
                },
                {
                    "name": "F#4",
                    "midi": 66,
                    "time": 166.49999999999997,
                    "velocity": 0.3937007874015748,
                    "duration": 0.37109375
                },
                {
                    "name": "D#4",
                    "midi": 63,
                    "time": 166.87499999999997,
                    "velocity": 0.28346456692913385,
                    "duration": 0.09375
                },
                {
                    "name": "F#4",
                    "midi": 66,
                    "time": 166.87499999999997,
                    "velocity": 0.28346456692913385,
                    "duration": 0.09375
                },
                {
                    "name": "C#3",
                    "midi": 49,
                    "time": 166.96874999999997,
                    "velocity": 0.2755905511811024,
                    "duration": 0.046875
                },
                {
                    "name": "F3",
                    "midi": 53,
                    "time": 167.01562499999997,
                    "velocity": 0.29133858267716534,
                    "duration": 0.046875
                },
                {
                    "name": "F4",
                    "midi": 65,
                    "time": 167.06249999999997,
                    "velocity": 0.3543307086614173,
                    "duration": 0.37109375
                },
                {
                    "name": "C#4",
                    "midi": 61,
                    "time": 167.43749999999997,
                    "velocity": 0.28346456692913385,
                    "duration": 0.18593749999999432
                },
                {
                    "name": "F4",
                    "midi": 65,
                    "time": 167.43749999999997,
                    "velocity": 0.28346456692913385,
                    "duration": 0.18593749999999432
                },
                {
                    "name": "C#4",
                    "midi": 61,
                    "time": 167.62499999999997,
                    "velocity": 0.30708661417322836,
                    "duration": 0.37109375
                },
                {
                    "name": "F4",
                    "midi": 65,
                    "time": 167.62499999999997,
                    "velocity": 0.30708661417322836,
                    "duration": 0.37109375
                },
                {
                    "name": "C#4",
                    "midi": 61,
                    "time": 167.99999999999997,
                    "velocity": 0.28346456692913385,
                    "duration": 0.18593749999999432
                },
                {
                    "name": "F4",
                    "midi": 65,
                    "time": 167.99999999999997,
                    "velocity": 0.28346456692913385,
                    "duration": 0.18593749999999432
                },
                {
                    "name": "C4",
                    "midi": 60,
                    "time": 168.18749999999997,
                    "velocity": 0.30708661417322836,
                    "duration": 0.375
                },
                {
                    "name": "D#4",
                    "midi": 63,
                    "time": 168.18749999999997,
                    "velocity": 0.30708661417322836,
                    "duration": 0.3265624999999943
                },
                {
                    "name": "F4",
                    "midi": 65,
                    "time": 168.18749999999997,
                    "velocity": 0.30708661417322836,
                    "duration": 0.375
                },
                {
                    "name": "C4",
                    "midi": 60,
                    "time": 168.56249999999997,
                    "velocity": 0.28346456692913385,
                    "duration": 0.1875
                },
                {
                    "name": "D#4",
                    "midi": 63,
                    "time": 168.56249999999997,
                    "velocity": 0.28346456692913385,
                    "duration": 0.1875
                },
                {
                    "name": "C#4",
                    "midi": 61,
                    "time": 168.74999999999997,
                    "velocity": 0.30708661417322836,
                    "duration": 0.37109375
                },
                {
                    "name": "F4",
                    "midi": 65,
                    "time": 168.74999999999997,
                    "velocity": 0.30708661417322836,
                    "duration": 0.37109375
                },
                {
                    "name": "C#4",
                    "midi": 61,
                    "time": 169.12499999999997,
                    "velocity": 0.28346456692913385,
                    "duration": 0.18593749999999432
                },
                {
                    "name": "F4",
                    "midi": 65,
                    "time": 169.12499999999997,
                    "velocity": 0.28346456692913385,
                    "duration": 0.18593749999999432
                },
                {
                    "name": "C#4",
                    "midi": 61,
                    "time": 169.31249999999997,
                    "velocity": 0.28346456692913385,
                    "duration": 0.37109375
                },
                {
                    "name": "F4",
                    "midi": 65,
                    "time": 169.31249999999997,
                    "velocity": 0.28346456692913385,
                    "duration": 0.37109375
                },
                {
                    "name": "C#4",
                    "midi": 61,
                    "time": 169.68749999999997,
                    "velocity": 0.30708661417322836,
                    "duration": 0.18593749999999432
                },
                {
                    "name": "F4",
                    "midi": 65,
                    "time": 169.68749999999997,
                    "velocity": 0.30708661417322836,
                    "duration": 0.18593749999999432
                },
                {
                    "name": "C#4",
                    "midi": 61,
                    "time": 169.87499999999997,
                    "velocity": 0.31496062992125984,
                    "duration": 0.37109375
                },
                {
                    "name": "F4",
                    "midi": 65,
                    "time": 169.87499999999997,
                    "velocity": 0.31496062992125984,
                    "duration": 0.37109375
                },
                {
                    "name": "G4",
                    "midi": 67,
                    "time": 169.87499999999997,
                    "velocity": 0.31496062992125984,
                    "duration": 0.37109375
                },
                {
                    "name": "C#4",
                    "midi": 61,
                    "time": 170.24999999999997,
                    "velocity": 0.3543307086614173,
                    "duration": 0.18593749999999432
                },
                {
                    "name": "F4",
                    "midi": 65,
                    "time": 170.24999999999997,
                    "velocity": 0.3543307086614173,
                    "duration": 0.18593749999999432
                },
                {
                    "name": "G4",
                    "midi": 67,
                    "time": 170.24999999999997,
                    "velocity": 0.3543307086614173,
                    "duration": 0.18593749999999432
                },
                {
                    "name": "C4",
                    "midi": 60,
                    "time": 170.43749999999997,
                    "velocity": 0.3858267716535433,
                    "duration": 0.37109375
                },
                {
                    "name": "E4",
                    "midi": 64,
                    "time": 170.43749999999997,
                    "velocity": 0.3858267716535433,
                    "duration": 0.37109375
                },
                {
                    "name": "G4",
                    "midi": 67,
                    "time": 170.43749999999997,
                    "velocity": 0.3858267716535433,
                    "duration": 0.37109375
                },
                {
                    "name": "C4",
                    "midi": 60,
                    "time": 170.81249999999997,
                    "velocity": 0.30708661417322836,
                    "duration": 0.18593749999999432
                },
                {
                    "name": "E4",
                    "midi": 64,
                    "time": 170.81249999999997,
                    "velocity": 0.30708661417322836,
                    "duration": 0.18593749999999432
                },
                {
                    "name": "G4",
                    "midi": 67,
                    "time": 170.81249999999997,
                    "velocity": 0.30708661417322836,
                    "duration": 0.18593749999999432
                },
                {
                    "name": "C4",
                    "midi": 60,
                    "time": 170.99999999999997,
                    "velocity": 0.33070866141732286,
                    "duration": 0.37109375
                },
                {
                    "name": "E4",
                    "midi": 64,
                    "time": 170.99999999999997,
                    "velocity": 0.33070866141732286,
                    "duration": 0.37109375
                },
                {
                    "name": "G4",
                    "midi": 67,
                    "time": 170.99999999999997,
                    "velocity": 0.33070866141732286,
                    "duration": 0.37109375
                },
                {
                    "name": "C4",
                    "midi": 60,
                    "time": 171.37499999999997,
                    "velocity": 0.29133858267716534,
                    "duration": 0.18593749999999432
                },
                {
                    "name": "E4",
                    "midi": 64,
                    "time": 171.37499999999997,
                    "velocity": 0.29133858267716534,
                    "duration": 0.09218749999999432
                },
                {
                    "name": "C3",
                    "midi": 48,
                    "time": 171.56249999999997,
                    "velocity": 0.33070866141732286,
                    "duration": 0.1875
                },
                {
                    "name": "F3",
                    "midi": 53,
                    "time": 171.56249999999997,
                    "velocity": 0.33070866141732286,
                    "duration": 0.1875
                },
                {
                    "name": "B2",
                    "midi": 47,
                    "time": 172.03124999999997,
                    "velocity": 0.3228346456692913,
                    "duration": 0.09375
                },
                {
                    "name": "C3",
                    "midi": 48,
                    "time": 172.12499999999997,
                    "velocity": 0.36220472440944884,
                    "duration": 0.1875
                },
                {
                    "name": "C2",
                    "midi": 36,
                    "time": 172.31249999999997,
                    "velocity": 0.3228346456692913,
                    "duration": 0.09375
                },
                {
                    "name": "G#2",
                    "midi": 44,
                    "time": 172.49999999999997,
                    "velocity": 0.3228346456692913,
                    "duration": 0.1875
                },
                {
                    "name": "C#3",
                    "midi": 49,
                    "time": 172.68749999999997,
                    "velocity": 0.3700787401574803,
                    "duration": 0.1875
                },
                {
                    "name": "C#2",
                    "midi": 37,
                    "time": 172.87499999999997,
                    "velocity": 0.3228346456692913,
                    "duration": 0.09375
                },
                {
                    "name": "F3",
                    "midi": 53,
                    "time": 173.06249999999997,
                    "velocity": 0.3228346456692913,
                    "duration": 0.1875
                },
                {
                    "name": "G3",
                    "midi": 55,
                    "time": 173.24999999999997,
                    "velocity": 0.3700787401574803,
                    "duration": 0.1875
                },
                {
                    "name": "G2",
                    "midi": 43,
                    "time": 173.43749999999997,
                    "velocity": 0.3228346456692913,
                    "duration": 0.09375
                },
                {
                    "name": "B3",
                    "midi": 59,
                    "time": 173.62499999999997,
                    "velocity": 0.3228346456692913,
                    "duration": 0.1875
                },
                {
                    "name": "C4",
                    "midi": 60,
                    "time": 173.81249999999997,
                    "velocity": 0.3700787401574803,
                    "duration": 0.1875
                },
                {
                    "name": "C3",
                    "midi": 48,
                    "time": 173.99999999999997,
                    "velocity": 0.33070866141732286,
                    "duration": 0.09375
                },
                {
                    "name": "G#3",
                    "midi": 56,
                    "time": 174.18749999999997,
                    "velocity": 0.33858267716535434,
                    "duration": 0.1875
                },
                {
                    "name": "C#4",
                    "midi": 61,
                    "time": 174.37499999999997,
                    "velocity": 0.3937007874015748,
                    "duration": 0.1875
                },
                {
                    "name": "C#3",
                    "midi": 49,
                    "time": 174.56249999999997,
                    "velocity": 0.3464566929133858,
                    "duration": 0.09375
                },
                {
                    "name": "F4",
                    "midi": 65,
                    "time": 174.74999999999997,
                    "velocity": 0.36220472440944884,
                    "duration": 0.1875
                },
                {
                    "name": "G4",
                    "midi": 67,
                    "time": 174.93749999999997,
                    "velocity": 0.4251968503937008,
                    "duration": 0.1875
                },
                {
                    "name": "G3",
                    "midi": 55,
                    "time": 175.12499999999997,
                    "velocity": 0.3779527559055118,
                    "duration": 0.09375
                },
                {
                    "name": "B4",
                    "midi": 71,
                    "time": 175.31249999999997,
                    "velocity": 0.3858267716535433,
                    "duration": 0.1875
                },
                {
                    "name": "C5",
                    "midi": 72,
                    "time": 175.49999999999997,
                    "velocity": 0.4409448818897638,
                    "duration": 0.1875
                },
                {
                    "name": "C4",
                    "midi": 60,
                    "time": 175.68749999999997,
                    "velocity": 0.4015748031496063,
                    "duration": 0.09375
                },
                {
                    "name": "G#4",
                    "midi": 68,
                    "time": 175.87499999999997,
                    "velocity": 0.4094488188976378,
                    "duration": 0.1875
                },
                {
                    "name": "C#5",
                    "midi": 73,
                    "time": 176.06249999999997,
                    "velocity": 0.47244094488188976,
                    "duration": 0.1875
                },
                {
                    "name": "C#4",
                    "midi": 61,
                    "time": 176.24999999999997,
                    "velocity": 0.4330708661417323,
                    "duration": 0.09375
                },
                {
                    "name": "F5",
                    "midi": 77,
                    "time": 176.43749999999997,
                    "velocity": 0.4409448818897638,
                    "duration": 0.1875
                },
                {
                    "name": "G5",
                    "midi": 79,
                    "time": 176.62499999999997,
                    "velocity": 0.5039370078740157,
                    "duration": 0.1875
                },
                {
                    "name": "G4",
                    "midi": 67,
                    "time": 176.81249999999997,
                    "velocity": 0.44881889763779526,
                    "duration": 0.09375
                },
                {
                    "name": "B5",
                    "midi": 83,
                    "time": 176.99999999999997,
                    "velocity": 0.4566929133858268,
                    "duration": 0.1875
                },
                {
                    "name": "C6",
                    "midi": 84,
                    "time": 177.18749999999997,
                    "velocity": 0.48031496062992124,
                    "duration": 0.09375
                },
                {
                    "name": "C4",
                    "midi": 60,
                    "time": 177.67968749999997,
                    "velocity": 0.49606299212598426,
                    "duration": 0.4453125
                },
                {
                    "name": "G4",
                    "midi": 67,
                    "time": 177.70312499999997,
                    "velocity": 0.5196850393700787,
                    "duration": 0.421875
                },
                {
                    "name": "A#4",
                    "midi": 70,
                    "time": 177.72656249999997,
                    "velocity": 0.5354330708661418,
                    "duration": 0.3984375
                },
                {
                    "name": "E5",
                    "midi": 76,
                    "time": 177.74999999999997,
                    "velocity": 0.5590551181102362,
                    "duration": 0.375
                },
                {
                    "name": "C2",
                    "midi": 36,
                    "time": 181.68749999999997,
                    "velocity": 0.4566929133858268,
                    "duration": 0.09375
                },
                {
                    "name": "A#2",
                    "midi": 46,
                    "time": 181.78124999999997,
                    "velocity": 0.4251968503937008,
                    "duration": 0.09375
                },
                {
                    "name": "C3",
                    "midi": 48,
                    "time": 181.87499999999997,
                    "velocity": 0.4330708661417323,
                    "duration": 0.09375
                },
                {
                    "name": "E3",
                    "midi": 52,
                    "time": 181.96874999999997,
                    "velocity": 0.4330708661417323,
                    "duration": 0.09375
                },
                {
                    "name": "A3",
                    "midi": 57,
                    "time": 182.06249999999997,
                    "velocity": 0.4566929133858268,
                    "duration": 0.09375
                },
                {
                    "name": "A#3",
                    "midi": 58,
                    "time": 182.15624999999997,
                    "velocity": 0.4330708661417323,
                    "duration": 0.1875
                },
                {
                    "name": "C4",
                    "midi": 60,
                    "time": 182.24999999999997,
                    "velocity": 0.4330708661417323,
                    "duration": 0.09375
                },
                {
                    "name": "E4",
                    "midi": 64,
                    "time": 182.34374999999997,
                    "velocity": 0.4330708661417323,
                    "duration": 0.09375
                },
                {
                    "name": "C3",
                    "midi": 48,
                    "time": 183.56249999999997,
                    "velocity": 0.3937007874015748,
                    "duration": 0.1875
                },
                {
                    "name": "A#3",
                    "midi": 58,
                    "time": 183.93749999999997,
                    "velocity": 0.3543307086614173,
                    "duration": 0.1875
                },
                {
                    "name": "E4",
                    "midi": 64,
                    "time": 184.31249999999997,
                    "velocity": 0.3700787401574803,
                    "duration": 0.1875
                },
                {
                    "name": "A#4",
                    "midi": 70,
                    "time": 184.68749999999997,
                    "velocity": 0.4015748031496063,
                    "duration": 0.1875
                },
                {
                    "name": "E5",
                    "midi": 76,
                    "time": 185.06249999999997,
                    "velocity": 0.36220472440944884,
                    "duration": 0.1875
                },
                {
                    "name": "A#5",
                    "midi": 82,
                    "time": 185.43749999999997,
                    "velocity": 0.33858267716535434,
                    "duration": 0.1875
                },
                {
                    "name": "E6",
                    "midi": 88,
                    "time": 185.81249999999997,
                    "velocity": 0.3228346456692913,
                    "duration": 0.375
                },
                {
                    "name": "C3",
                    "midi": 48,
                    "time": 187.12499999999997,
                    "velocity": 0.23622047244094488,
                    "duration": 0.37109375
                },
                {
                    "name": "F#3",
                    "midi": 54,
                    "time": 187.12499999999997,
                    "velocity": 0.23622047244094488,
                    "duration": 0.37109375
                },
                {
                    "name": "C4",
                    "midi": 60,
                    "time": 187.12499999999997,
                    "velocity": 0.28346456692913385,
                    "duration": 0.37109375
                },
                {
                    "name": "C3",
                    "midi": 48,
                    "time": 187.49999999999997,
                    "velocity": 0.2125984251968504,
                    "duration": 0.18593749999999432
                },
                {
                    "name": "F#3",
                    "midi": 54,
                    "time": 187.49999999999997,
                    "velocity": 0.2125984251968504,
                    "duration": 0.18593749999999432
                },
                {
                    "name": "C4",
                    "midi": 60,
                    "time": 187.49999999999997,
                    "velocity": 0.25984251968503935,
                    "duration": 0.18593749999999432
                },
                {
                    "name": "C3",
                    "midi": 48,
                    "time": 187.68749999999997,
                    "velocity": 0.2440944881889764,
                    "duration": 0.37109375
                },
                {
                    "name": "G3",
                    "midi": 55,
                    "time": 187.68749999999997,
                    "velocity": 0.2440944881889764,
                    "duration": 0.37109375
                },
                {
                    "name": "C4",
                    "midi": 60,
                    "time": 187.68749999999997,
                    "velocity": 0.29133858267716534,
                    "duration": 0.37109375
                },
                {
                    "name": "C3",
                    "midi": 48,
                    "time": 188.06249999999997,
                    "velocity": 0.2283464566929134,
                    "duration": 0.18593749999999432
                },
                {
                    "name": "G3",
                    "midi": 55,
                    "time": 188.06249999999997,
                    "velocity": 0.2283464566929134,
                    "duration": 0.18593749999999432
                },
                {
                    "name": "C4",
                    "midi": 60,
                    "time": 188.06249999999997,
                    "velocity": 0.2677165354330709,
                    "duration": 0.18593749999999432
                },
                {
                    "name": "C3",
                    "midi": 48,
                    "time": 188.24999999999997,
                    "velocity": 0.28346456692913385,
                    "duration": 0.37109375
                },
                {
                    "name": "G#3",
                    "midi": 56,
                    "time": 188.24999999999997,
                    "velocity": 0.28346456692913385,
                    "duration": 0.37109375
                },
                {
                    "name": "D4",
                    "midi": 62,
                    "time": 188.24999999999997,
                    "velocity": 0.33858267716535434,
                    "duration": 0.37109375
                },
                {
                    "name": "C3",
                    "midi": 48,
                    "time": 188.62499999999997,
                    "velocity": 0.2677165354330709,
                    "duration": 0.18593749999999432
                },
                {
                    "name": "G#3",
                    "midi": 56,
                    "time": 188.62499999999997,
                    "velocity": 0.2677165354330709,
                    "duration": 0.18593749999999432
                },
                {
                    "name": "D4",
                    "midi": 62,
                    "time": 188.62499999999997,
                    "velocity": 0.31496062992125984,
                    "duration": 0.18593749999999432
                },
                {
                    "name": "C3",
                    "midi": 48,
                    "time": 188.81249999999997,
                    "velocity": 0.30708661417322836,
                    "duration": 0.37109375
                },
                {
                    "name": "A3",
                    "midi": 57,
                    "time": 188.81249999999997,
                    "velocity": 0.30708661417322836,
                    "duration": 0.37109375
                },
                {
                    "name": "C4",
                    "midi": 60,
                    "time": 188.81249999999997,
                    "velocity": 0.3700787401574803,
                    "duration": 0.37109375
                },
                {
                    "name": "C3",
                    "midi": 48,
                    "time": 189.18749999999997,
                    "velocity": 0.2992125984251969,
                    "duration": 0.18593749999999432
                },
                {
                    "name": "A3",
                    "midi": 57,
                    "time": 189.18749999999997,
                    "velocity": 0.2992125984251969,
                    "duration": 0.18593749999999432
                },
                {
                    "name": "C4",
                    "midi": 60,
                    "time": 189.18749999999997,
                    "velocity": 0.3543307086614173,
                    "duration": 0.18593749999999432
                },
                {
                    "name": "C3",
                    "midi": 48,
                    "time": 189.37499999999997,
                    "velocity": 0.3543307086614173,
                    "duration": 0.37109375
                },
                {
                    "name": "F#3",
                    "midi": 54,
                    "time": 189.37499999999997,
                    "velocity": 0.3543307086614173,
                    "duration": 0.37109375
                },
                {
                    "name": "D4",
                    "midi": 62,
                    "time": 189.37499999999997,
                    "velocity": 0.41732283464566927,
                    "duration": 0.37109375
                },
                {
                    "name": "C3",
                    "midi": 48,
                    "time": 189.74999999999997,
                    "velocity": 0.31496062992125984,
                    "duration": 0.18593749999999432
                },
                {
                    "name": "F#3",
                    "midi": 54,
                    "time": 189.74999999999997,
                    "velocity": 0.31496062992125984,
                    "duration": 0.18593749999999432
                },
                {
                    "name": "D4",
                    "midi": 62,
                    "time": 189.74999999999997,
                    "velocity": 0.3779527559055118,
                    "duration": 0.18593749999999432
                },
                {
                    "name": "C3",
                    "midi": 48,
                    "time": 189.93749999999997,
                    "velocity": 0.3228346456692913,
                    "duration": 0.37109375
                },
                {
                    "name": "G3",
                    "midi": 55,
                    "time": 189.93749999999997,
                    "velocity": 0.3228346456692913,
                    "duration": 0.37109375
                },
                {
                    "name": "D4",
                    "midi": 62,
                    "time": 189.93749999999997,
                    "velocity": 0.3858267716535433,
                    "duration": 0.37109375
                },
                {
                    "name": "C3",
                    "midi": 48,
                    "time": 190.31249999999997,
                    "velocity": 0.23622047244094488,
                    "duration": 0.18593749999999432
                },
                {
                    "name": "F3",
                    "midi": 53,
                    "time": 190.31249999999997,
                    "velocity": 0.23622047244094488,
                    "duration": 0.18593749999999432
                },
                {
                    "name": "D4",
                    "midi": 62,
                    "time": 190.31249999999997,
                    "velocity": 0.28346456692913385,
                    "duration": 0.18593749999999432
                },
                {
                    "name": "C3",
                    "midi": 48,
                    "time": 190.49999999999997,
                    "velocity": 0.2677165354330709,
                    "duration": 0.3710937500000284
                },
                {
                    "name": "E3",
                    "midi": 52,
                    "time": 190.49999999999997,
                    "velocity": 0.2677165354330709,
                    "duration": 0.3710937500000284
                },
                {
                    "name": "C4",
                    "midi": 60,
                    "time": 190.49999999999997,
                    "velocity": 0.31496062992125984,
                    "duration": 0.3710937500000284
                },
                {
                    "name": "C3",
                    "midi": 48,
                    "time": 190.875,
                    "velocity": 0.2440944881889764,
                    "duration": 0.18593749999999432
                },
                {
                    "name": "G3",
                    "midi": 55,
                    "time": 190.875,
                    "velocity": 0.2440944881889764,
                    "duration": 0.18593749999999432
                },
                {
                    "name": "C4",
                    "midi": 60,
                    "time": 190.875,
                    "velocity": 0.29133858267716534,
                    "duration": 0.18593749999999432
                },
                {
                    "name": "C3",
                    "midi": 48,
                    "time": 191.0625,
                    "velocity": 0.23622047244094488,
                    "duration": 0.375
                },
                {
                    "name": "F3",
                    "midi": 53,
                    "time": 191.0625,
                    "velocity": 0.23622047244094488,
                    "duration": 0.375
                },
                {
                    "name": "C4",
                    "midi": 60,
                    "time": 191.0625,
                    "velocity": 0.28346456692913385,
                    "duration": 0.375
                },
                {
                    "name": "C3",
                    "midi": 48,
                    "time": 191.4375,
                    "velocity": 0.25984251968503935,
                    "duration": 0.1875
                },
                {
                    "name": "C3",
                    "midi": 48,
                    "time": 191.625,
                    "velocity": 0.25196850393700787,
                    "duration": 0.37109375
                },
                {
                    "name": "F#3",
                    "midi": 54,
                    "time": 191.625,
                    "velocity": 0.2992125984251969,
                    "duration": 0.37109375
                },
                {
                    "name": "A3",
                    "midi": 57,
                    "time": 191.625,
                    "velocity": 0.2992125984251969,
                    "duration": 0.37109375
                },
                {
                    "name": "C3",
                    "midi": 48,
                    "time": 192,
                    "velocity": 0.2125984251968504,
                    "duration": 0.18593749999999432
                },
                {
                    "name": "F#3",
                    "midi": 54,
                    "time": 192,
                    "velocity": 0.25196850393700787,
                    "duration": 0.18593749999999432
                },
                {
                    "name": "A3",
                    "midi": 57,
                    "time": 192,
                    "velocity": 0.30708661417322836,
                    "duration": 0.18593749999999432
                },
                {
                    "name": "C3",
                    "midi": 48,
                    "time": 192.1875,
                    "velocity": 0.28346456692913385,
                    "duration": 0.3710937499999716
                },
                {
                    "name": "G3",
                    "midi": 55,
                    "time": 192.1875,
                    "velocity": 0.28346456692913385,
                    "duration": 0.3710937499999716
                },
                {
                    "name": "A#3",
                    "midi": 58,
                    "time": 192.1875,
                    "velocity": 0.3464566929133858,
                    "duration": 0.3710937499999716
                },
                {
                    "name": "C3",
                    "midi": 48,
                    "time": 192.56249999999997,
                    "velocity": 0.2677165354330709,
                    "duration": 0.18593749999999432
                },
                {
                    "name": "G3",
                    "midi": 55,
                    "time": 192.56249999999997,
                    "velocity": 0.2677165354330709,
                    "duration": 0.18593749999999432
                },
                {
                    "name": "A#3",
                    "midi": 58,
                    "time": 192.56249999999997,
                    "velocity": 0.33070866141732286,
                    "duration": 0.18593749999999432
                },
                {
                    "name": "C3",
                    "midi": 48,
                    "time": 192.74999999999997,
                    "velocity": 0.2992125984251969,
                    "duration": 0.3710937500000284
                },
                {
                    "name": "G#3",
                    "midi": 56,
                    "time": 192.74999999999997,
                    "velocity": 0.3543307086614173,
                    "duration": 0.3710937500000284
                },
                {
                    "name": "B3",
                    "midi": 59,
                    "time": 192.74999999999997,
                    "velocity": 0.3543307086614173,
                    "duration": 0.3710937500000284
                },
                {
                    "name": "C3",
                    "midi": 48,
                    "time": 193.125,
                    "velocity": 0.28346456692913385,
                    "duration": 0.18593749999999432
                },
                {
                    "name": "G#3",
                    "midi": 56,
                    "time": 193.125,
                    "velocity": 0.33858267716535434,
                    "duration": 0.18593749999999432
                },
                {
                    "name": "B3",
                    "midi": 59,
                    "time": 193.125,
                    "velocity": 0.33858267716535434,
                    "duration": 0.18593749999999432
                },
                {
                    "name": "C3",
                    "midi": 48,
                    "time": 193.3125,
                    "velocity": 0.29133858267716534,
                    "duration": 0.3710937500000284
                },
                {
                    "name": "A3",
                    "midi": 57,
                    "time": 193.3125,
                    "velocity": 0.29133858267716534,
                    "duration": 0.5570312500000227
                },
                {
                    "name": "C4",
                    "midi": 60,
                    "time": 193.3125,
                    "velocity": 0.36220472440944884,
                    "duration": 0.5570312500000227
                },
                {
                    "name": "C3",
                    "midi": 48,
                    "time": 193.68750000000003,
                    "velocity": 0.3543307086614173,
                    "duration": 0.18593749999999432
                },
                {
                    "name": "C3",
                    "midi": 48,
                    "time": 193.87500000000003,
                    "velocity": 0.3543307086614173,
                    "duration": 0.3710937499999716
                },
                {
                    "name": "F#3",
                    "midi": 54,
                    "time": 193.87500000000003,
                    "velocity": 0.3543307086614173,
                    "duration": 0.3710937499999716
                },
                {
                    "name": "D4",
                    "midi": 62,
                    "time": 193.87500000000003,
                    "velocity": 0.4330708661417323,
                    "duration": 0.3710937499999716
                },
                {
                    "name": "C3",
                    "midi": 48,
                    "time": 194.25,
                    "velocity": 0.33858267716535434,
                    "duration": 0.18593749999999432
                },
                {
                    "name": "A3",
                    "midi": 57,
                    "time": 194.25,
                    "velocity": 0.33858267716535434,
                    "duration": 0.18593749999999432
                },
                {
                    "name": "D4",
                    "midi": 62,
                    "time": 194.25,
                    "velocity": 0.4015748031496063,
                    "duration": 0.18593749999999432
                },
                {
                    "name": "C3",
                    "midi": 48,
                    "time": 194.4375,
                    "velocity": 0.36220472440944884,
                    "duration": 0.3710937499999716
                },
                {
                    "name": "G3",
                    "midi": 55,
                    "time": 194.4375,
                    "velocity": 0.36220472440944884,
                    "duration": 0.3710937499999716
                },
                {
                    "name": "D4",
                    "midi": 62,
                    "time": 194.4375,
                    "velocity": 0.4330708661417323,
                    "duration": 0.3710937499999716
                },
                {
                    "name": "C3",
                    "midi": 48,
                    "time": 194.81249999999997,
                    "velocity": 0.33858267716535434,
                    "duration": 0.18593749999999432
                },
                {
                    "name": "F3",
                    "midi": 53,
                    "time": 194.81249999999997,
                    "velocity": 0.33858267716535434,
                    "duration": 0.18593749999999432
                },
                {
                    "name": "D4",
                    "midi": 62,
                    "time": 194.81249999999997,
                    "velocity": 0.4015748031496063,
                    "duration": 0.18593749999999432
                },
                {
                    "name": "C3",
                    "midi": 48,
                    "time": 194.99999999999997,
                    "velocity": 0.3700787401574803,
                    "duration": 0.37109375
                },
                {
                    "name": "E3",
                    "midi": 52,
                    "time": 194.99999999999997,
                    "velocity": 0.3700787401574803,
                    "duration": 0.37109375
                },
                {
                    "name": "C4",
                    "midi": 60,
                    "time": 194.99999999999997,
                    "velocity": 0.44881889763779526,
                    "duration": 0.37109375
                },
                {
                    "name": "C3",
                    "midi": 48,
                    "time": 195.37499999999997,
                    "velocity": 0.36220472440944884,
                    "duration": 0.18593749999999432
                },
                {
                    "name": "G3",
                    "midi": 55,
                    "time": 195.37499999999997,
                    "velocity": 0.36220472440944884,
                    "duration": 0.18593749999999432
                },
                {
                    "name": "C4",
                    "midi": 60,
                    "time": 195.37499999999997,
                    "velocity": 0.4251968503937008,
                    "duration": 0.18593749999999432
                },
                {
                    "name": "C3",
                    "midi": 48,
                    "time": 195.56249999999997,
                    "velocity": 0.3858267716535433,
                    "duration": 0.37109375
                },
                {
                    "name": "F3",
                    "midi": 53,
                    "time": 195.56249999999997,
                    "velocity": 0.3858267716535433,
                    "duration": 0.37109375
                },
                {
                    "name": "C4",
                    "midi": 60,
                    "time": 195.56249999999997,
                    "velocity": 0.44881889763779526,
                    "duration": 0.37109375
                },
                {
                    "name": "C3",
                    "midi": 48,
                    "time": 195.93749999999997,
                    "velocity": 0.36220472440944884,
                    "duration": 0.18593749999999432
                },
                {
                    "name": "C3",
                    "midi": 48,
                    "time": 196.12499999999997,
                    "velocity": 0.36220472440944884,
                    "duration": 0.37109375
                },
                {
                    "name": "F#3",
                    "midi": 54,
                    "time": 196.12499999999997,
                    "velocity": 0.3858267716535433,
                    "duration": 0.37109375
                },
                {
                    "name": "A3",
                    "midi": 57,
                    "time": 196.12499999999997,
                    "velocity": 0.4330708661417323,
                    "duration": 0.37109375
                },
                {
                    "name": "C3",
                    "midi": 48,
                    "time": 196.49999999999997,
                    "velocity": 0.30708661417322836,
                    "duration": 0.18593749999999432
                },
                {
                    "name": "F#3",
                    "midi": 54,
                    "time": 196.49999999999997,
                    "velocity": 0.36220472440944884,
                    "duration": 0.18593749999999432
                },
                {
                    "name": "A3",
                    "midi": 57,
                    "time": 196.49999999999997,
                    "velocity": 0.4330708661417323,
                    "duration": 0.18593749999999432
                },
                {
                    "name": "C3",
                    "midi": 48,
                    "time": 196.68749999999997,
                    "velocity": 0.4094488188976378,
                    "duration": 0.37109375
                },
                {
                    "name": "G3",
                    "midi": 55,
                    "time": 196.68749999999997,
                    "velocity": 0.4094488188976378,
                    "duration": 0.37109375
                },
                {
                    "name": "A#3",
                    "midi": 58,
                    "time": 196.68749999999997,
                    "velocity": 0.4881889763779528,
                    "duration": 0.37109375
                },
                {
                    "name": "C3",
                    "midi": 48,
                    "time": 197.06249999999997,
                    "velocity": 0.3779527559055118,
                    "duration": 0.18593749999999432
                },
                {
                    "name": "G3",
                    "midi": 55,
                    "time": 197.06249999999997,
                    "velocity": 0.3779527559055118,
                    "duration": 0.18593749999999432
                },
                {
                    "name": "A#3",
                    "midi": 58,
                    "time": 197.06249999999997,
                    "velocity": 0.44881889763779526,
                    "duration": 0.18593749999999432
                },
                {
                    "name": "C3",
                    "midi": 48,
                    "time": 197.24999999999997,
                    "velocity": 0.4015748031496063,
                    "duration": 0.37109375
                },
                {
                    "name": "G#3",
                    "midi": 56,
                    "time": 197.24999999999997,
                    "velocity": 0.4015748031496063,
                    "duration": 0.37109375
                },
                {
                    "name": "B3",
                    "midi": 59,
                    "time": 197.24999999999997,
                    "velocity": 0.48031496062992124,
                    "duration": 0.37109375
                },
                {
                    "name": "C3",
                    "midi": 48,
                    "time": 197.62499999999997,
                    "velocity": 0.3779527559055118,
                    "duration": 0.18593749999999432
                },
                {
                    "name": "G#3",
                    "midi": 56,
                    "time": 197.62499999999997,
                    "velocity": 0.44881889763779526,
                    "duration": 0.18593749999999432
                },
                {
                    "name": "B3",
                    "midi": 59,
                    "time": 197.62499999999997,
                    "velocity": 0.44881889763779526,
                    "duration": 0.18593749999999432
                },
                {
                    "name": "C3",
                    "midi": 48,
                    "time": 197.81249999999997,
                    "velocity": 0.3937007874015748,
                    "duration": 0.37109375
                },
                {
                    "name": "A3",
                    "midi": 57,
                    "time": 197.81249999999997,
                    "velocity": 0.3937007874015748,
                    "duration": 0.5570312499999943
                },
                {
                    "name": "C4",
                    "midi": 60,
                    "time": 197.81249999999997,
                    "velocity": 0.47244094488188976,
                    "duration": 0.5570312499999943
                },
                {
                    "name": "C3",
                    "midi": 48,
                    "time": 198.18749999999997,
                    "velocity": 0.44881889763779526,
                    "duration": 0.18593749999999432
                },
                {
                    "name": "C3",
                    "midi": 48,
                    "time": 198.37499999999997,
                    "velocity": 0.4409448818897638,
                    "duration": 0.3710937499999716
                },
                {
                    "name": "F#3",
                    "midi": 54,
                    "time": 198.37499999999997,
                    "velocity": 0.4409448818897638,
                    "duration": 0.3710937499999716
                },
                {
                    "name": "D4",
                    "midi": 62,
                    "time": 198.37499999999997,
                    "velocity": 0.5118110236220472,
                    "duration": 0.3710937499999716
                },
                {
                    "name": "C3",
                    "midi": 48,
                    "time": 198.74999999999994,
                    "velocity": 0.41732283464566927,
                    "duration": 0.18593749999999432
                },
                {
                    "name": "A3",
                    "midi": 57,
                    "time": 198.74999999999994,
                    "velocity": 0.41732283464566927,
                    "duration": 0.18593749999999432
                },
                {
                    "name": "D4",
                    "midi": 62,
                    "time": 198.74999999999994,
                    "velocity": 0.49606299212598426,
                    "duration": 0.18593749999999432
                },
                {
                    "name": "A#2",
                    "midi": 46,
                    "time": 198.93749999999994,
                    "velocity": 0.5275590551181102,
                    "duration": 0.1875
                },
                {
                    "name": "D4",
                    "midi": 62,
                    "time": 199.12499999999994,
                    "velocity": 0.4566929133858268,
                    "duration": 0.1875
                },
                {
                    "name": "G4",
                    "midi": 67,
                    "time": 199.31249999999994,
                    "velocity": 0.4645669291338583,
                    "duration": 0.1875
                },
                {
                    "name": "A#3",
                    "midi": 58,
                    "time": 199.49999999999994,
                    "velocity": 0.5354330708661418,
                    "duration": 0.5625
                },
                {
                    "name": "C4",
                    "midi": 60,
                    "time": 199.68749999999994,
                    "velocity": 0.4566929133858268,
                    "duration": 0.1875
                },
                {
                    "name": "E4",
                    "midi": 64,
                    "time": 199.87499999999994,
                    "velocity": 0.47244094488188976,
                    "duration": 0.1875
                },
                {
                    "name": "A3",
                    "midi": 57,
                    "time": 200.06249999999994,
                    "velocity": 0.5433070866141733,
                    "duration": 0.5625
                },
                {
                    "name": "C4",
                    "midi": 60,
                    "time": 200.24999999999994,
                    "velocity": 0.4645669291338583,
                    "duration": 0.1875
                },
                {
                    "name": "F4",
                    "midi": 65,
                    "time": 200.43749999999994,
                    "velocity": 0.48031496062992124,
                    "duration": 0.1875
                },
                {
                    "name": "A#3",
                    "midi": 58,
                    "time": 200.62499999999994,
                    "velocity": 0.5590551181102362,
                    "duration": 0.5625000000000284
                },
                {
                    "name": "D4",
                    "midi": 62,
                    "time": 200.81249999999997,
                    "velocity": 0.4881889763779528,
                    "duration": 0.1875
                },
                {
                    "name": "G4",
                    "midi": 67,
                    "time": 200.99999999999997,
                    "velocity": 0.49606299212598426,
                    "duration": 0.1875
                },
                {
                    "name": "C4",
                    "midi": 60,
                    "time": 201.18749999999997,
                    "velocity": 0.5826771653543307,
                    "duration": 0.5625
                },
                {
                    "name": "E4",
                    "midi": 64,
                    "time": 201.37499999999997,
                    "velocity": 0.5118110236220472,
                    "duration": 0.1875
                },
                {
                    "name": "A4",
                    "midi": 69,
                    "time": 201.56249999999997,
                    "velocity": 0.5196850393700787,
                    "duration": 0.1875
                },
                {
                    "name": "D4",
                    "midi": 62,
                    "time": 201.74999999999997,
                    "velocity": 0.6062992125984252,
                    "duration": 0.5625
                },
                {
                    "name": "F4",
                    "midi": 65,
                    "time": 201.93749999999997,
                    "velocity": 0.5275590551181102,
                    "duration": 0.1875
                },
                {
                    "name": "A#4",
                    "midi": 70,
                    "time": 202.12499999999997,
                    "velocity": 0.5354330708661418,
                    "duration": 0.1875
                },
                {
                    "name": "E4",
                    "midi": 64,
                    "time": 202.31249999999997,
                    "velocity": 0.6141732283464567,
                    "duration": 0.5625000000000284
                },
                {
                    "name": "G4",
                    "midi": 67,
                    "time": 202.5,
                    "velocity": 0.5354330708661418,
                    "duration": 0.1875
                },
                {
                    "name": "C5",
                    "midi": 72,
                    "time": 202.6875,
                    "velocity": 0.5433070866141733,
                    "duration": 0.1875
                },
                {
                    "name": "F4",
                    "midi": 65,
                    "time": 202.875,
                    "velocity": 0.6377952755905512,
                    "duration": 0.5625
                },
                {
                    "name": "A4",
                    "midi": 69,
                    "time": 203.0625,
                    "velocity": 0.5354330708661418,
                    "duration": 0.1875
                },
                {
                    "name": "C5",
                    "midi": 72,
                    "time": 203.25,
                    "velocity": 0.5354330708661418,
                    "duration": 0.1875
                },
                {
                    "name": "F#4",
                    "midi": 66,
                    "time": 203.4375,
                    "velocity": 0.6456692913385826,
                    "duration": 0.5625000000000284
                },
                {
                    "name": "A4",
                    "midi": 69,
                    "time": 203.62500000000003,
                    "velocity": 0.5590551181102362,
                    "duration": 0.1875
                },
                {
                    "name": "D5",
                    "midi": 74,
                    "time": 203.81250000000003,
                    "velocity": 0.5590551181102362,
                    "duration": 0.1875
                },
                {
                    "name": "G4",
                    "midi": 67,
                    "time": 204.00000000000003,
                    "velocity": 0.6456692913385826,
                    "duration": 0.5625
                },
                {
                    "name": "A#4",
                    "midi": 70,
                    "time": 204.18750000000003,
                    "velocity": 0.5590551181102362,
                    "duration": 0.1875
                },
                {
                    "name": "D5",
                    "midi": 74,
                    "time": 204.37500000000003,
                    "velocity": 0.5590551181102362,
                    "duration": 0.1875
                },
                {
                    "name": "C#4",
                    "midi": 61,
                    "time": 204.56250000000003,
                    "velocity": 0.3779527559055118,
                    "duration": 0.1875
                },
                {
                    "name": "A#4",
                    "midi": 70,
                    "time": 204.75000000000003,
                    "velocity": 0.33070866141732286,
                    "duration": 0.375
                },
                {
                    "name": "E5",
                    "midi": 76,
                    "time": 204.93750000000003,
                    "velocity": 0.33858267716535434,
                    "duration": 0.1875
                },
                {
                    "name": "D4",
                    "midi": 62,
                    "time": 205.12500000000003,
                    "velocity": 0.3700787401574803,
                    "duration": 0.1875
                },
                {
                    "name": "A4",
                    "midi": 69,
                    "time": 205.31250000000003,
                    "velocity": 0.33858267716535434,
                    "duration": 0.375
                },
                {
                    "name": "F#5",
                    "midi": 78,
                    "time": 205.50000000000003,
                    "velocity": 0.33858267716535434,
                    "duration": 0.1875
                },
                {
                    "name": "G3",
                    "midi": 55,
                    "time": 205.68750000000003,
                    "velocity": 0.3700787401574803,
                    "duration": 0.1875
                },
                {
                    "name": "D4",
                    "midi": 62,
                    "time": 205.87500000000003,
                    "velocity": 0.33070866141732286,
                    "duration": 0.375
                },
                {
                    "name": "B4",
                    "midi": 71,
                    "time": 206.06250000000003,
                    "velocity": 0.33858267716535434,
                    "duration": 0.1875
                },
                {
                    "name": "C3",
                    "midi": 48,
                    "time": 206.25000000000003,
                    "velocity": 0.36220472440944884,
                    "duration": 0.1875
                },
                {
                    "name": "G3",
                    "midi": 55,
                    "time": 206.43750000000003,
                    "velocity": 0.3543307086614173,
                    "duration": 0.375
                },
                {
                    "name": "E4",
                    "midi": 64,
                    "time": 206.62500000000003,
                    "velocity": 0.36220472440944884,
                    "duration": 0.1875
                },
                {
                    "name": "F3",
                    "midi": 53,
                    "time": 206.81250000000003,
                    "velocity": 0.3937007874015748,
                    "duration": 0.9375
                },
                {
                    "name": "A3",
                    "midi": 57,
                    "time": 207.00000000000003,
                    "velocity": 0.33858267716535434,
                    "duration": 0.75
                },
                {
                    "name": "C4",
                    "midi": 60,
                    "time": 207.18750000000003,
                    "velocity": 0.36220472440944884,
                    "duration": 0.1875
                },
                {
                    "name": "A4",
                    "midi": 69,
                    "time": 207.37500000000003,
                    "velocity": 0.3937007874015748,
                    "duration": 0.375
                },
                {
                    "name": "B2",
                    "midi": 47,
                    "time": 207.93750000000003,
                    "velocity": 0.4330708661417323,
                    "duration": 0.1875
                },
                {
                    "name": "G#3",
                    "midi": 56,
                    "time": 208.12500000000003,
                    "velocity": 0.3937007874015748,
                    "duration": 0.75
                },
                {
                    "name": "D4",
                    "midi": 62,
                    "time": 208.31250000000003,
                    "velocity": 0.3937007874015748,
                    "duration": 0.5625
                },
                {
                    "name": "F4",
                    "midi": 65,
                    "time": 208.50000000000003,
                    "velocity": 0.41732283464566927,
                    "duration": 0.375
                },
                {
                    "name": "C3",
                    "midi": 48,
                    "time": 209.06250000000003,
                    "velocity": 0.3700787401574803,
                    "duration": 0.1875
                },
                {
                    "name": "A3",
                    "midi": 57,
                    "time": 209.25000000000003,
                    "velocity": 0.33070866141732286,
                    "duration": 0.75
                },
                {
                    "name": "C4",
                    "midi": 60,
                    "time": 209.43750000000003,
                    "velocity": 0.33070866141732286,
                    "duration": 0.5625
                },
                {
                    "name": "F4",
                    "midi": 65,
                    "time": 209.62500000000003,
                    "velocity": 0.3543307086614173,
                    "duration": 0.375
                },
                {
                    "name": "C2",
                    "midi": 36,
                    "time": 210.18750000000003,
                    "velocity": 0.31496062992125984,
                    "duration": 0.140625
                },
                {
                    "name": "G3",
                    "midi": 55,
                    "time": 210.37500000000003,
                    "velocity": 0.28346456692913385,
                    "duration": 0.75
                },
                {
                    "name": "A#3",
                    "midi": 58,
                    "time": 210.56250000000003,
                    "velocity": 0.28346456692913385,
                    "duration": 0.5625
                },
                {
                    "name": "E4",
                    "midi": 64,
                    "time": 210.75000000000003,
                    "velocity": 0.31496062992125984,
                    "duration": 0.375
                },
                {
                    "name": "F2",
                    "midi": 41,
                    "time": 211.31250000000003,
                    "velocity": 0.2992125984251969,
                    "duration": 0.14062499999997158
                },
                {
                    "name": "F3",
                    "midi": 53,
                    "time": 211.5,
                    "velocity": 0.25196850393700787,
                    "duration": 0.1875
                },
                {
                    "name": "A3",
                    "midi": 57,
                    "time": 211.6875,
                    "velocity": 0.25196850393700787,
                    "duration": 0.1875
                },
                {
                    "name": "F4",
                    "midi": 65,
                    "time": 211.875,
                    "velocity": 0.29133858267716534,
                    "duration": 0.1875
                },
                {
                    "name": "A3",
                    "midi": 57,
                    "time": 212.0625,
                    "velocity": 0.28346456692913385,
                    "duration": 0.1875
                },
                {
                    "name": "C4",
                    "midi": 60,
                    "time": 212.25,
                    "velocity": 0.28346456692913385,
                    "duration": 0.18749999999997158
                },
                {
                    "name": "F3",
                    "midi": 53,
                    "time": 212.43749999999997,
                    "velocity": 0.36220472440944884,
                    "duration": 1.125
                },
                {
                    "name": "G3",
                    "midi": 55,
                    "time": 212.62499999999997,
                    "velocity": 0.2992125984251969,
                    "duration": 0.1875
                },
                {
                    "name": "C4",
                    "midi": 60,
                    "time": 212.81249999999997,
                    "velocity": 0.31496062992125984,
                    "duration": 0.1875
                },
                {
                    "name": "E4",
                    "midi": 64,
                    "time": 212.99999999999997,
                    "velocity": 0.33070866141732286,
                    "duration": 0.1875
                },
                {
                    "name": "G3",
                    "midi": 55,
                    "time": 213.18749999999997,
                    "velocity": 0.3464566929133858,
                    "duration": 0.1875
                },
                {
                    "name": "C4",
                    "midi": 60,
                    "time": 213.37499999999997,
                    "velocity": 0.3700787401574803,
                    "duration": 0.1875
                },
                {
                    "name": "F3",
                    "midi": 53,
                    "time": 213.56249999999997,
                    "velocity": 0.36220472440944884,
                    "duration": 1.1250000000000284
                },
                {
                    "name": "A#3",
                    "midi": 58,
                    "time": 213.75,
                    "velocity": 0.33070866141732286,
                    "duration": 0.1875
                },
                {
                    "name": "C4",
                    "midi": 60,
                    "time": 213.9375,
                    "velocity": 0.33070866141732286,
                    "duration": 0.1875
                },
                {
                    "name": "E4",
                    "midi": 64,
                    "time": 214.125,
                    "velocity": 0.3543307086614173,
                    "duration": 0.1875
                },
                {
                    "name": "A#3",
                    "midi": 58,
                    "time": 214.3125,
                    "velocity": 0.36220472440944884,
                    "duration": 0.1875
                },
                {
                    "name": "C4",
                    "midi": 60,
                    "time": 214.5,
                    "velocity": 0.3700787401574803,
                    "duration": 0.1875
                },
                {
                    "name": "F3",
                    "midi": 53,
                    "time": 214.6875,
                    "velocity": 0.41732283464566927,
                    "duration": 1.125
                },
                {
                    "name": "A3",
                    "midi": 57,
                    "time": 214.875,
                    "velocity": 0.3779527559055118,
                    "duration": 0.1875
                },
                {
                    "name": "C4",
                    "midi": 60,
                    "time": 215.0625,
                    "velocity": 0.3779527559055118,
                    "duration": 0.1875
                },
                {
                    "name": "F4",
                    "midi": 65,
                    "time": 215.25,
                    "velocity": 0.3858267716535433,
                    "duration": 0.1875
                },
                {
                    "name": "A3",
                    "midi": 57,
                    "time": 215.4375,
                    "velocity": 0.3937007874015748,
                    "duration": 0.1875
                },
                {
                    "name": "C4",
                    "midi": 60,
                    "time": 215.625,
                    "velocity": 0.3937007874015748,
                    "duration": 0.1875
                },
                {
                    "name": "E3",
                    "midi": 52,
                    "time": 215.8125,
                    "velocity": 0.4330708661417323,
                    "duration": 0.1875
                },
                {
                    "name": "A3",
                    "midi": 57,
                    "time": 216,
                    "velocity": 0.4015748031496063,
                    "duration": 0.5625
                },
                {
                    "name": "C#4",
                    "midi": 61,
                    "time": 216.1875,
                    "velocity": 0.4015748031496063,
                    "duration": 0.1875
                },
                {
                    "name": "G4",
                    "midi": 67,
                    "time": 216.375,
                    "velocity": 0.4251968503937008,
                    "duration": 0.1875
                },
                {
                    "name": "A3",
                    "midi": 57,
                    "time": 216.5625,
                    "velocity": 0.3937007874015748,
                    "duration": 0.375
                },
                {
                    "name": "C#4",
                    "midi": 61,
                    "time": 216.75,
                    "velocity": 0.4015748031496063,
                    "duration": 0.1875
                },
                {
                    "name": "D3",
                    "midi": 50,
                    "time": 216.9375,
                    "velocity": 0.4330708661417323,
                    "duration": 0.1875
                },
                {
                    "name": "A3",
                    "midi": 57,
                    "time": 217.125,
                    "velocity": 0.5118110236220472,
                    "duration": 0.5625
                },
                {
                    "name": "D4",
                    "midi": 62,
                    "time": 217.3125,
                    "velocity": 0.41732283464566927,
                    "duration": 0.1875
                },
                {
                    "name": "F4",
                    "midi": 65,
                    "time": 217.5,
                    "velocity": 0.4566929133858268,
                    "duration": 0.1875
                },
                {
                    "name": "A3",
                    "midi": 57,
                    "time": 217.6875,
                    "velocity": 0.5275590551181102,
                    "duration": 0.375
                },
                {
                    "name": "D4",
                    "midi": 62,
                    "time": 217.875,
                    "velocity": 0.41732283464566927,
                    "duration": 0.1875
                },
                {
                    "name": "C3",
                    "midi": 48,
                    "time": 218.0625,
                    "velocity": 0.4566929133858268,
                    "duration": 0.1875
                },
                {
                    "name": "A3",
                    "midi": 57,
                    "time": 218.25,
                    "velocity": 0.5196850393700787,
                    "duration": 0.5625
                },
                {
                    "name": "D4",
                    "midi": 62,
                    "time": 218.4375,
                    "velocity": 0.41732283464566927,
                    "duration": 0.1875
                },
                {
                    "name": "F4",
                    "midi": 65,
                    "time": 218.625,
                    "velocity": 0.4566929133858268,
                    "duration": 0.1875
                },
                {
                    "name": "A3",
                    "midi": 57,
                    "time": 218.8125,
                    "velocity": 0.5590551181102362,
                    "duration": 0.375
                },
                {
                    "name": "D4",
                    "midi": 62,
                    "time": 219,
                    "velocity": 0.48031496062992124,
                    "duration": 0.1875
                },
                {
                    "name": "A#2",
                    "midi": 46,
                    "time": 219.1875,
                    "velocity": 0.5984251968503937,
                    "duration": 0.09375
                },
                {
                    "name": "F4",
                    "midi": 65,
                    "time": 219.75,
                    "velocity": 0.5984251968503937,
                    "duration": 0.65625
                },
                {
                    "name": "A#3",
                    "midi": 58,
                    "time": 219.75,
                    "velocity": 0.5039370078740157,
                    "duration": 0.65625
                },
                {
                    "name": "G#3",
                    "midi": 56,
                    "time": 219.75,
                    "velocity": 0.5039370078740157,
                    "duration": 0.65625
                },
                {
                    "name": "F3",
                    "midi": 53,
                    "time": 219.75,
                    "velocity": 0.5039370078740157,
                    "duration": 0.65625
                },
                {
                    "name": "F4",
                    "midi": 65,
                    "time": 220.40625,
                    "velocity": 0.5511811023622047,
                    "duration": 0.09375
                },
                {
                    "name": "D4",
                    "midi": 62,
                    "time": 220.5,
                    "velocity": 0.5433070866141733,
                    "duration": 0.09375
                },
                {
                    "name": "A#3",
                    "midi": 58,
                    "time": 220.59375,
                    "velocity": 0.5354330708661418,
                    "duration": 0.09375
                },
                {
                    "name": "G#3",
                    "midi": 56,
                    "time": 220.6875,
                    "velocity": 0.5275590551181102,
                    "duration": 0.09375
                },
                {
                    "name": "F3",
                    "midi": 53,
                    "time": 220.78125,
                    "velocity": 0.5196850393700787,
                    "duration": 0.09375
                },
                {
                    "name": "D3",
                    "midi": 50,
                    "time": 220.875,
                    "velocity": 0.5118110236220472,
                    "duration": 0.09375
                },
                {
                    "name": "A#2",
                    "midi": 46,
                    "time": 220.96875,
                    "velocity": 0.5039370078740157,
                    "duration": 0.09375
                },
                {
                    "name": "G#2",
                    "midi": 44,
                    "time": 221.0625,
                    "velocity": 0.49606299212598426,
                    "duration": 0.09375
                },
                {
                    "name": "F2",
                    "midi": 41,
                    "time": 221.15625,
                    "velocity": 0.4881889763779528,
                    "duration": 0.09375
                },
                {
                    "name": "D2",
                    "midi": 38,
                    "time": 221.25,
                    "velocity": 0.48031496062992124,
                    "duration": 0.09375
                },
                {
                    "name": "A#1",
                    "midi": 34,
                    "time": 221.34375,
                    "velocity": 0.47244094488188976,
                    "duration": 0.09375
                },
                {
                    "name": "A1",
                    "midi": 33,
                    "time": 221.4375,
                    "velocity": 0.4094488188976378,
                    "duration": 0.109375
                },
                {
                    "name": "B1",
                    "midi": 35,
                    "time": 221.53125,
                    "velocity": 0.41732283464566927,
                    "duration": 0.109375
                },
                {
                    "name": "C#2",
                    "midi": 37,
                    "time": 221.625,
                    "velocity": 0.4251968503937008,
                    "duration": 0.109375
                },
                {
                    "name": "D2",
                    "midi": 38,
                    "time": 221.71875,
                    "velocity": 0.4330708661417323,
                    "duration": 0.109375
                },
                {
                    "name": "E2",
                    "midi": 40,
                    "time": 221.8125,
                    "velocity": 0.4409448818897638,
                    "duration": 0.109375
                },
                {
                    "name": "F#2",
                    "midi": 42,
                    "time": 221.90625,
                    "velocity": 0.44881889763779526,
                    "duration": 0.109375
                },
                {
                    "name": "G#2",
                    "midi": 44,
                    "time": 222,
                    "velocity": 0.4566929133858268,
                    "duration": 0.109375
                },
                {
                    "name": "A2",
                    "midi": 45,
                    "time": 222.09375,
                    "velocity": 0.4645669291338583,
                    "duration": 0.109375
                },
                {
                    "name": "B2",
                    "midi": 47,
                    "time": 222.1875,
                    "velocity": 0.47244094488188976,
                    "duration": 0.109375
                },
                {
                    "name": "C#3",
                    "midi": 49,
                    "time": 222.28125,
                    "velocity": 0.48031496062992124,
                    "duration": 0.109375
                },
                {
                    "name": "D3",
                    "midi": 50,
                    "time": 222.375,
                    "velocity": 0.4881889763779528,
                    "duration": 0.109375
                },
                {
                    "name": "E3",
                    "midi": 52,
                    "time": 222.46875,
                    "velocity": 0.49606299212598426,
                    "duration": 0.109375
                },
                {
                    "name": "F#3",
                    "midi": 54,
                    "time": 222.5625,
                    "velocity": 0.5039370078740157,
                    "duration": 0.109375
                },
                {
                    "name": "G#3",
                    "midi": 56,
                    "time": 222.65625,
                    "velocity": 0.5118110236220472,
                    "duration": 0.109375
                },
                {
                    "name": "A3",
                    "midi": 57,
                    "time": 222.75,
                    "velocity": 0.5196850393700787,
                    "duration": 0.109375
                },
                {
                    "name": "B3",
                    "midi": 59,
                    "time": 222.84375,
                    "velocity": 0.5275590551181102,
                    "duration": 0.109375
                },
                {
                    "name": "C#4",
                    "midi": 61,
                    "time": 222.9375,
                    "velocity": 0.5433070866141733,
                    "duration": 0.109375
                },
                {
                    "name": "D4",
                    "midi": 62,
                    "time": 223.03125,
                    "velocity": 0.5511811023622047,
                    "duration": 0.109375
                },
                {
                    "name": "E4",
                    "midi": 64,
                    "time": 223.125,
                    "velocity": 0.5590551181102362,
                    "duration": 0.109375
                },
                {
                    "name": "F#4",
                    "midi": 66,
                    "time": 223.21875,
                    "velocity": 0.5669291338582677,
                    "duration": 0.109375
                },
                {
                    "name": "G#4",
                    "midi": 68,
                    "time": 223.3125,
                    "velocity": 0.5748031496062992,
                    "duration": 0.109375
                },
                {
                    "name": "A4",
                    "midi": 69,
                    "time": 223.40625,
                    "velocity": 0.5826771653543307,
                    "duration": 0.109375
                },
                {
                    "name": "B4",
                    "midi": 71,
                    "time": 223.5,
                    "velocity": 0.5905511811023622,
                    "duration": 0.109375
                },
                {
                    "name": "C5",
                    "midi": 72,
                    "time": 223.59375,
                    "velocity": 0.5984251968503937,
                    "duration": 0.109375
                },
                {
                    "name": "C#5",
                    "midi": 73,
                    "time": 223.6875,
                    "velocity": 0.6220472440944882,
                    "duration": 0.09375
                },
                {
                    "name": "E5",
                    "midi": 76,
                    "time": 223.78125,
                    "velocity": 0.5511811023622047,
                    "duration": 0.09375
                },
                {
                    "name": "A5",
                    "midi": 81,
                    "time": 223.875,
                    "velocity": 0.5354330708661418,
                    "duration": 0.09375
                },
                {
                    "name": "C#6",
                    "midi": 85,
                    "time": 223.96875,
                    "velocity": 0.5748031496062992,
                    "duration": 0.09375
                },
                {
                    "name": "B5",
                    "midi": 83,
                    "time": 224.0625,
                    "velocity": 0.5511811023622047,
                    "duration": 0.09375
                },
                {
                    "name": "E5",
                    "midi": 76,
                    "time": 224.15625,
                    "velocity": 0.5511811023622047,
                    "duration": 0.09375
                },
                {
                    "name": "C#5",
                    "midi": 73,
                    "time": 224.25,
                    "velocity": 0.6062992125984252,
                    "duration": 0.09375
                },
                {
                    "name": "A4",
                    "midi": 69,
                    "time": 224.34375,
                    "velocity": 0.5748031496062992,
                    "duration": 0.09375
                },
                {
                    "name": "E4",
                    "midi": 64,
                    "time": 224.4375,
                    "velocity": 0.5590551181102362,
                    "duration": 0.09375
                },
                {
                    "name": "C#4",
                    "midi": 61,
                    "time": 224.53125,
                    "velocity": 0.5590551181102362,
                    "duration": 0.09375
                },
                {
                    "name": "E4",
                    "midi": 64,
                    "time": 224.625,
                    "velocity": 0.5196850393700787,
                    "duration": 0.09375
                },
                {
                    "name": "B4",
                    "midi": 71,
                    "time": 224.71875,
                    "velocity": 0.5196850393700787,
                    "duration": 0.09375
                },
                {
                    "name": "C#4",
                    "midi": 61,
                    "time": 224.8125,
                    "velocity": 0.5590551181102362,
                    "duration": 0.09375
                },
                {
                    "name": "E4",
                    "midi": 64,
                    "time": 224.90625,
                    "velocity": 0.5118110236220472,
                    "duration": 0.09375
                },
                {
                    "name": "A4",
                    "midi": 69,
                    "time": 225,
                    "velocity": 0.5118110236220472,
                    "duration": 0.09375
                },
                {
                    "name": "C#5",
                    "midi": 73,
                    "time": 225.09375,
                    "velocity": 0.5118110236220472,
                    "duration": 0.09375
                },
                {
                    "name": "B4",
                    "midi": 71,
                    "time": 225.1875,
                    "velocity": 0.49606299212598426,
                    "duration": 0.09375
                },
                {
                    "name": "E4",
                    "midi": 64,
                    "time": 225.28125,
                    "velocity": 0.49606299212598426,
                    "duration": 0.09375
                },
                {
                    "name": "C#4",
                    "midi": 61,
                    "time": 225.375,
                    "velocity": 0.5590551181102362,
                    "duration": 0.09375
                },
                {
                    "name": "A3",
                    "midi": 57,
                    "time": 225.46875,
                    "velocity": 0.5118110236220472,
                    "duration": 0.09375
                },
                {
                    "name": "E3",
                    "midi": 52,
                    "time": 225.5625,
                    "velocity": 0.5118110236220472,
                    "duration": 0.09375
                },
                {
                    "name": "C#3",
                    "midi": 49,
                    "time": 225.65625,
                    "velocity": 0.5118110236220472,
                    "duration": 0.09375
                },
                {
                    "name": "E3",
                    "midi": 52,
                    "time": 225.75,
                    "velocity": 0.49606299212598426,
                    "duration": 0.09375
                },
                {
                    "name": "B3",
                    "midi": 59,
                    "time": 225.84375,
                    "velocity": 0.49606299212598426,
                    "duration": 0.09375
                },
                {
                    "name": "C#3",
                    "midi": 49,
                    "time": 225.9375,
                    "velocity": 0.47244094488188976,
                    "duration": 0.09375
                },
                {
                    "name": "E3",
                    "midi": 52,
                    "time": 226.03125,
                    "velocity": 0.4251968503937008,
                    "duration": 0.09375
                },
                {
                    "name": "A3",
                    "midi": 57,
                    "time": 226.125,
                    "velocity": 0.41732283464566927,
                    "duration": 0.09375
                },
                {
                    "name": "C#4",
                    "midi": 61,
                    "time": 226.21875,
                    "velocity": 0.41732283464566927,
                    "duration": 0.09375
                },
                {
                    "name": "B3",
                    "midi": 59,
                    "time": 226.3125,
                    "velocity": 0.3937007874015748,
                    "duration": 0.09375
                },
                {
                    "name": "E3",
                    "midi": 52,
                    "time": 226.40625,
                    "velocity": 0.3858267716535433,
                    "duration": 0.09375
                },
                {
                    "name": "C#3",
                    "midi": 49,
                    "time": 226.5,
                    "velocity": 0.4409448818897638,
                    "duration": 0.09375
                },
                {
                    "name": "A2",
                    "midi": 45,
                    "time": 226.59375,
                    "velocity": 0.3858267716535433,
                    "duration": 0.09375
                },
                {
                    "name": "E2",
                    "midi": 40,
                    "time": 226.6875,
                    "velocity": 0.36220472440944884,
                    "duration": 0.09375
                },
                {
                    "name": "C#2",
                    "midi": 37,
                    "time": 226.78125,
                    "velocity": 0.3543307086614173,
                    "duration": 0.09375
                },
                {
                    "name": "E2",
                    "midi": 40,
                    "time": 226.875,
                    "velocity": 0.33070866141732286,
                    "duration": 0.09375
                },
                {
                    "name": "B2",
                    "midi": 47,
                    "time": 226.96875,
                    "velocity": 0.3228346456692913,
                    "duration": 0.09375
                },
                {
                    "name": "A1",
                    "midi": 33,
                    "time": 227.0625,
                    "velocity": 0.3228346456692913,
                    "duration": 0.109375
                },
                {
                    "name": "E2",
                    "midi": 40,
                    "time": 227.15625,
                    "velocity": 0.3543307086614173,
                    "duration": 0.109375
                },
                {
                    "name": "C3",
                    "midi": 48,
                    "time": 227.25,
                    "velocity": 0.3779527559055118,
                    "duration": 0.109375
                },
                {
                    "name": "C#3",
                    "midi": 49,
                    "time": 227.34375,
                    "velocity": 0.3543307086614173,
                    "duration": 0.109375
                },
                {
                    "name": "B2",
                    "midi": 47,
                    "time": 227.4375,
                    "velocity": 0.31496062992125984,
                    "duration": 0.109375
                },
                {
                    "name": "E2",
                    "midi": 40,
                    "time": 227.53125,
                    "velocity": 0.31496062992125984,
                    "duration": 0.109375
                },
                {
                    "name": "A1",
                    "midi": 33,
                    "time": 227.625,
                    "velocity": 0.3228346456692913,
                    "duration": 0.109375
                },
                {
                    "name": "E2",
                    "midi": 40,
                    "time": 227.71875,
                    "velocity": 0.3543307086614173,
                    "duration": 0.109375
                },
                {
                    "name": "C3",
                    "midi": 48,
                    "time": 227.8125,
                    "velocity": 0.3779527559055118,
                    "duration": 0.109375
                },
                {
                    "name": "C#3",
                    "midi": 49,
                    "time": 227.90625,
                    "velocity": 0.3543307086614173,
                    "duration": 0.109375
                },
                {
                    "name": "B2",
                    "midi": 47,
                    "time": 228,
                    "velocity": 0.31496062992125984,
                    "duration": 0.109375
                },
                {
                    "name": "E2",
                    "midi": 40,
                    "time": 228.09375,
                    "velocity": 0.3228346456692913,
                    "duration": 0.109375
                },
                {
                    "name": "A1",
                    "midi": 33,
                    "time": 228.1875,
                    "velocity": 0.2440944881889764,
                    "duration": 0.109375
                },
                {
                    "name": "E2",
                    "midi": 40,
                    "time": 228.28125,
                    "velocity": 0.25984251968503935,
                    "duration": 0.109375
                },
                {
                    "name": "C3",
                    "midi": 48,
                    "time": 228.375,
                    "velocity": 0.28346456692913385,
                    "duration": 0.109375
                },
                {
                    "name": "C#3",
                    "midi": 49,
                    "time": 228.46875,
                    "velocity": 0.2677165354330709,
                    "duration": 0.109375
                },
                {
                    "name": "B2",
                    "midi": 47,
                    "time": 228.5625,
                    "velocity": 0.2283464566929134,
                    "duration": 0.109375
                },
                {
                    "name": "E2",
                    "midi": 40,
                    "time": 228.65625,
                    "velocity": 0.23622047244094488,
                    "duration": 0.109375
                },
                {
                    "name": "A1",
                    "midi": 33,
                    "time": 228.75,
                    "velocity": 0.2440944881889764,
                    "duration": 0.109375
                },
                {
                    "name": "E2",
                    "midi": 40,
                    "time": 228.84375,
                    "velocity": 0.25984251968503935,
                    "duration": 0.109375
                },
                {
                    "name": "C3",
                    "midi": 48,
                    "time": 228.9375,
                    "velocity": 0.28346456692913385,
                    "duration": 0.109375
                },
                {
                    "name": "C#3",
                    "midi": 49,
                    "time": 229.03125,
                    "velocity": 0.2677165354330709,
                    "duration": 0.109375
                },
                {
                    "name": "B2",
                    "midi": 47,
                    "time": 229.125,
                    "velocity": 0.2125984251968504,
                    "duration": 0.109375
                },
                {
                    "name": "E2",
                    "midi": 40,
                    "time": 229.21875,
                    "velocity": 0.2125984251968504,
                    "duration": 0.109375
                },
                {
                    "name": "A1",
                    "midi": 33,
                    "time": 229.3125,
                    "velocity": 0.2440944881889764,
                    "duration": 0.1875
                },
                {
                    "name": "C3",
                    "midi": 48,
                    "time": 232.125,
                    "velocity": 0.2677165354330709,
                    "duration": 0.09375
                },
                {
                    "name": "C4",
                    "midi": 60,
                    "time": 232.21875,
                    "velocity": 0.2283464566929134,
                    "duration": 0.09375
                },
                {
                    "name": "F#3",
                    "midi": 54,
                    "time": 232.3125,
                    "velocity": 0.2677165354330709,
                    "duration": 0.09375
                },
                {
                    "name": "C4",
                    "midi": 60,
                    "time": 232.40625,
                    "velocity": 0.23622047244094488,
                    "duration": 0.09375
                },
                {
                    "name": "F#3",
                    "midi": 54,
                    "time": 232.5,
                    "velocity": 0.2677165354330709,
                    "duration": 0.09375
                },
                {
                    "name": "C4",
                    "midi": 60,
                    "time": 232.59375,
                    "velocity": 0.23622047244094488,
                    "duration": 0.09375
                },
                {
                    "name": "C3",
                    "midi": 48,
                    "time": 232.6875,
                    "velocity": 0.2992125984251969,
                    "duration": 0.09375
                },
                {
                    "name": "C4",
                    "midi": 60,
                    "time": 232.78125,
                    "velocity": 0.2440944881889764,
                    "duration": 0.09375
                },
                {
                    "name": "G3",
                    "midi": 55,
                    "time": 232.875,
                    "velocity": 0.31496062992125984,
                    "duration": 0.09375
                },
                {
                    "name": "C4",
                    "midi": 60,
                    "time": 232.96875,
                    "velocity": 0.25196850393700787,
                    "duration": 0.09375
                },
                {
                    "name": "G3",
                    "midi": 55,
                    "time": 233.0625,
                    "velocity": 0.33070866141732286,
                    "duration": 0.09375
                },
                {
                    "name": "C4",
                    "midi": 60,
                    "time": 233.15625,
                    "velocity": 0.2440944881889764,
                    "duration": 0.09375
                },
                {
                    "name": "C3",
                    "midi": 48,
                    "time": 233.25,
                    "velocity": 0.33858267716535434,
                    "duration": 0.09375
                },
                {
                    "name": "D4",
                    "midi": 62,
                    "time": 233.34375,
                    "velocity": 0.25196850393700787,
                    "duration": 0.09375
                },
                {
                    "name": "G#3",
                    "midi": 56,
                    "time": 233.4375,
                    "velocity": 0.3779527559055118,
                    "duration": 0.09375
                },
                {
                    "name": "D4",
                    "midi": 62,
                    "time": 233.53125,
                    "velocity": 0.30708661417322836,
                    "duration": 0.09375
                },
                {
                    "name": "G#3",
                    "midi": 56,
                    "time": 233.625,
                    "velocity": 0.3543307086614173,
                    "duration": 0.09375
                },
                {
                    "name": "D4",
                    "midi": 62,
                    "time": 233.71875,
                    "velocity": 0.25984251968503935,
                    "duration": 0.09375
                },
                {
                    "name": "C3",
                    "midi": 48,
                    "time": 233.8125,
                    "velocity": 0.3464566929133858,
                    "duration": 0.09375000000002842
                },
                {
                    "name": "C4",
                    "midi": 60,
                    "time": 233.90625000000003,
                    "velocity": 0.2677165354330709,
                    "duration": 0.09375
                },
                {
                    "name": "A3",
                    "midi": 57,
                    "time": 234.00000000000003,
                    "velocity": 0.36220472440944884,
                    "duration": 0.09375
                },
                {
                    "name": "C4",
                    "midi": 60,
                    "time": 234.09375000000003,
                    "velocity": 0.2755905511811024,
                    "duration": 0.09375
                },
                {
                    "name": "G3",
                    "midi": 55,
                    "time": 234.18750000000003,
                    "velocity": 0.3700787401574803,
                    "duration": 0.09375
                },
                {
                    "name": "C4",
                    "midi": 60,
                    "time": 234.28125000000003,
                    "velocity": 0.28346456692913385,
                    "duration": 0.09375
                },
                {
                    "name": "C3",
                    "midi": 48,
                    "time": 234.37500000000003,
                    "velocity": 0.3779527559055118,
                    "duration": 0.09375
                },
                {
                    "name": "D4",
                    "midi": 62,
                    "time": 234.46875000000003,
                    "velocity": 0.29133858267716534,
                    "duration": 0.09375
                },
                {
                    "name": "F#3",
                    "midi": 54,
                    "time": 234.56250000000003,
                    "velocity": 0.3858267716535433,
                    "duration": 0.09375
                },
                {
                    "name": "D4",
                    "midi": 62,
                    "time": 234.65625000000003,
                    "velocity": 0.30708661417322836,
                    "duration": 0.09375
                },
                {
                    "name": "A3",
                    "midi": 57,
                    "time": 234.75000000000003,
                    "velocity": 0.3779527559055118,
                    "duration": 0.09375
                },
                {
                    "name": "D4",
                    "midi": 62,
                    "time": 234.84375000000003,
                    "velocity": 0.2992125984251969,
                    "duration": 0.09375
                },
                {
                    "name": "C3",
                    "midi": 48,
                    "time": 234.93750000000003,
                    "velocity": 0.3858267716535433,
                    "duration": 0.09375
                },
                {
                    "name": "D4",
                    "midi": 62,
                    "time": 235.03125000000003,
                    "velocity": 0.31496062992125984,
                    "duration": 0.09375
                },
                {
                    "name": "G3",
                    "midi": 55,
                    "time": 235.12500000000003,
                    "velocity": 0.3700787401574803,
                    "duration": 0.09375000000002842
                },
                {
                    "name": "D4",
                    "midi": 62,
                    "time": 235.21875000000006,
                    "velocity": 0.31496062992125984,
                    "duration": 0.09375
                },
                {
                    "name": "F3",
                    "midi": 53,
                    "time": 235.31250000000006,
                    "velocity": 0.4015748031496063,
                    "duration": 0.09375
                },
                {
                    "name": "D4",
                    "midi": 62,
                    "time": 235.40625000000006,
                    "velocity": 0.2992125984251969,
                    "duration": 0.09375
                },
                {
                    "name": "C3",
                    "midi": 48,
                    "time": 235.50000000000006,
                    "velocity": 0.3858267716535433,
                    "duration": 0.09375000000002842
                },
                {
                    "name": "C4",
                    "midi": 60,
                    "time": 235.59375000000009,
                    "velocity": 0.2992125984251969,
                    "duration": 0.09375
                },
                {
                    "name": "E3",
                    "midi": 52,
                    "time": 235.68750000000009,
                    "velocity": 0.3700787401574803,
                    "duration": 0.09374999999997158
                },
                {
                    "name": "C4",
                    "midi": 60,
                    "time": 235.78125000000006,
                    "velocity": 0.2992125984251969,
                    "duration": 0.09375
                },
                {
                    "name": "G3",
                    "midi": 55,
                    "time": 235.87500000000006,
                    "velocity": 0.3700787401574803,
                    "duration": 0.09375
                },
                {
                    "name": "C4",
                    "midi": 60,
                    "time": 235.96875000000006,
                    "velocity": 0.2992125984251969,
                    "duration": 0.09375
                },
                {
                    "name": "C3",
                    "midi": 48,
                    "time": 236.06250000000006,
                    "velocity": 0.3779527559055118,
                    "duration": 0.09375
                },
                {
                    "name": "C4",
                    "midi": 60,
                    "time": 236.15625000000006,
                    "velocity": 0.2992125984251969,
                    "duration": 0.09375
                },
                {
                    "name": "F3",
                    "midi": 53,
                    "time": 236.25000000000006,
                    "velocity": 0.3700787401574803,
                    "duration": 0.09375
                },
                {
                    "name": "C4",
                    "midi": 60,
                    "time": 236.34375000000006,
                    "velocity": 0.29133858267716534,
                    "duration": 0.09375
                },
                {
                    "name": "C3",
                    "midi": 48,
                    "time": 236.43750000000006,
                    "velocity": 0.36220472440944884,
                    "duration": 0.09375
                },
                {
                    "name": "C4",
                    "midi": 60,
                    "time": 236.53125000000006,
                    "velocity": 0.29133858267716534,
                    "duration": 0.09375
                },
                {
                    "name": "E3",
                    "midi": 52,
                    "time": 236.62500000000006,
                    "velocity": 0.36220472440944884,
                    "duration": 0.375
                },
                {
                    "name": "A3",
                    "midi": 57,
                    "time": 236.71875000000006,
                    "velocity": 0.28346456692913385,
                    "duration": 0.09375
                },
                {
                    "name": "A2",
                    "midi": 45,
                    "time": 236.81250000000006,
                    "velocity": 0.29133858267716534,
                    "duration": 0.09375
                },
                {
                    "name": "A3",
                    "midi": 57,
                    "time": 236.90625000000006,
                    "velocity": 0.29133858267716534,
                    "duration": 0.09375
                },
                {
                    "name": "F3",
                    "midi": 53,
                    "time": 237.00000000000006,
                    "velocity": 0.33858267716535434,
                    "duration": 0.1875
                },
                {
                    "name": "A3",
                    "midi": 57,
                    "time": 237.09375000000006,
                    "velocity": 0.2992125984251969,
                    "duration": 0.09375
                },
                {
                    "name": "F#3",
                    "midi": 54,
                    "time": 237.18750000000006,
                    "velocity": 0.3779527559055118,
                    "duration": 0.375
                },
                {
                    "name": "A#3",
                    "midi": 58,
                    "time": 237.28125000000006,
                    "velocity": 0.2992125984251969,
                    "duration": 0.09375
                },
                {
                    "name": "A#2",
                    "midi": 46,
                    "time": 237.37500000000006,
                    "velocity": 0.30708661417322836,
                    "duration": 0.09375
                },
                {
                    "name": "A#3",
                    "midi": 58,
                    "time": 237.46875000000006,
                    "velocity": 0.30708661417322836,
                    "duration": 0.09375
                },
                {
                    "name": "G3",
                    "midi": 55,
                    "time": 237.56250000000006,
                    "velocity": 0.3543307086614173,
                    "duration": 0.1875
                },
                {
                    "name": "A#3",
                    "midi": 58,
                    "time": 237.65625000000006,
                    "velocity": 0.2992125984251969,
                    "duration": 0.09375
                },
                {
                    "name": "G#3",
                    "midi": 56,
                    "time": 237.75000000000006,
                    "velocity": 0.3937007874015748,
                    "duration": 0.375
                },
                {
                    "name": "C4",
                    "midi": 60,
                    "time": 237.84375000000006,
                    "velocity": 0.29133858267716534,
                    "duration": 0.09375
                },
                {
                    "name": "C3",
                    "midi": 48,
                    "time": 237.93750000000006,
                    "velocity": 0.2992125984251969,
                    "duration": 0.09375
                },
                {
                    "name": "C4",
                    "midi": 60,
                    "time": 238.03125000000006,
                    "velocity": 0.2992125984251969,
                    "duration": 0.09375
                },
                {
                    "name": "A3",
                    "midi": 57,
                    "time": 238.12500000000006,
                    "velocity": 0.3700787401574803,
                    "duration": 0.1875
                },
                {
                    "name": "C4",
                    "midi": 60,
                    "time": 238.21875000000006,
                    "velocity": 0.31496062992125984,
                    "duration": 0.09375
                },
                {
                    "name": "A3",
                    "midi": 57,
                    "time": 238.31250000000006,
                    "velocity": 0.4094488188976378,
                    "duration": 0.375
                },
                {
                    "name": "D4",
                    "midi": 62,
                    "time": 238.40625000000006,
                    "velocity": 0.3228346456692913,
                    "duration": 0.09375
                },
                {
                    "name": "D3",
                    "midi": 50,
                    "time": 238.50000000000006,
                    "velocity": 0.3228346456692913,
                    "duration": 0.09375
                },
                {
                    "name": "D4",
                    "midi": 62,
                    "time": 238.59375000000006,
                    "velocity": 0.3228346456692913,
                    "duration": 0.09375
                },
                {
                    "name": "A#3",
                    "midi": 58,
                    "time": 238.68750000000006,
                    "velocity": 0.3858267716535433,
                    "duration": 0.1875
                },
                {
                    "name": "D4",
                    "midi": 62,
                    "time": 238.78125000000006,
                    "velocity": 0.33070866141732286,
                    "duration": 0.09375
                },
                {
                    "name": "B3",
                    "midi": 59,
                    "time": 238.87500000000006,
                    "velocity": 0.4251968503937008,
                    "duration": 0.375
                },
                {
                    "name": "E4",
                    "midi": 64,
                    "time": 238.96875000000006,
                    "velocity": 0.33858267716535434,
                    "duration": 0.09375
                },
                {
                    "name": "E3",
                    "midi": 52,
                    "time": 239.06250000000006,
                    "velocity": 0.3464566929133858,
                    "duration": 0.09375
                },
                {
                    "name": "E4",
                    "midi": 64,
                    "time": 239.15625000000006,
                    "velocity": 0.3464566929133858,
                    "duration": 0.09375
                },
                {
                    "name": "C4",
                    "midi": 60,
                    "time": 239.25000000000006,
                    "velocity": 0.4015748031496063,
                    "duration": 0.1875
                },
                {
                    "name": "E4",
                    "midi": 64,
                    "time": 239.34375000000006,
                    "velocity": 0.33070866141732286,
                    "duration": 0.09375
                },
                {
                    "name": "F3",
                    "midi": 53,
                    "time": 239.43750000000006,
                    "velocity": 0.4330708661417323,
                    "duration": 0.375
                },
                {
                    "name": "F4",
                    "midi": 65,
                    "time": 239.53125000000006,
                    "velocity": 0.3543307086614173,
                    "duration": 0.09375
                },
                {
                    "name": "C4",
                    "midi": 60,
                    "time": 239.62500000000006,
                    "velocity": 0.3543307086614173,
                    "duration": 0.09375
                },
                {
                    "name": "F4",
                    "midi": 65,
                    "time": 239.71875000000006,
                    "velocity": 0.36220472440944884,
                    "duration": 0.09375
                },
                {
                    "name": "D4",
                    "midi": 62,
                    "time": 239.81250000000006,
                    "velocity": 0.31496062992125984,
                    "duration": 0.1875
                },
                {
                    "name": "F4",
                    "midi": 65,
                    "time": 239.90625000000006,
                    "velocity": 0.29133858267716534,
                    "duration": 0.09375
                },
                {
                    "name": "C#4",
                    "midi": 61,
                    "time": 240.00000000000006,
                    "velocity": 0.33858267716535434,
                    "duration": 0.1875
                },
                {
                    "name": "E4",
                    "midi": 64,
                    "time": 240.09375000000006,
                    "velocity": 0.2440944881889764,
                    "duration": 0.09375
                },
                {
                    "name": "C4",
                    "midi": 60,
                    "time": 240.18750000000006,
                    "velocity": 0.33858267716535434,
                    "duration": 0.1875
                },
                {
                    "name": "E4",
                    "midi": 64,
                    "time": 240.28125000000006,
                    "velocity": 0.25196850393700787,
                    "duration": 0.09375
                },
                {
                    "name": "A#3",
                    "midi": 58,
                    "time": 240.37500000000006,
                    "velocity": 0.33070866141732286,
                    "duration": 0.1875
                },
                {
                    "name": "E4",
                    "midi": 64,
                    "time": 240.46875000000006,
                    "velocity": 0.2440944881889764,
                    "duration": 0.09375
                },
                {
                    "name": "F3",
                    "midi": 53,
                    "time": 240.56250000000006,
                    "velocity": 0.33858267716535434,
                    "duration": 0.09375
                },
                {
                    "name": "A3",
                    "midi": 57,
                    "time": 240.56250000000006,
                    "velocity": 0.33858267716535434,
                    "duration": 0.375
                },
                {
                    "name": "F4",
                    "midi": 65,
                    "time": 240.65625000000006,
                    "velocity": 0.23622047244094488,
                    "duration": 0.09375
                },
                {
                    "name": "C4",
                    "midi": 60,
                    "time": 240.75000000000006,
                    "velocity": 0.25984251968503935,
                    "duration": 0.09375
                },
                {
                    "name": "F4",
                    "midi": 65,
                    "time": 240.84375000000006,
                    "velocity": 0.2283464566929134,
                    "duration": 0.09375
                },
                {
                    "name": "D4",
                    "midi": 62,
                    "time": 240.93750000000006,
                    "velocity": 0.25196850393700787,
                    "duration": 0.1875
                },
                {
                    "name": "F4",
                    "midi": 65,
                    "time": 241.03125000000006,
                    "velocity": 0.2283464566929134,
                    "duration": 0.09375
                },
                {
                    "name": "C#4",
                    "midi": 61,
                    "time": 241.12500000000006,
                    "velocity": 0.2677165354330709,
                    "duration": 0.1875
                },
                {
                    "name": "E4",
                    "midi": 64,
                    "time": 241.21875000000006,
                    "velocity": 0.1968503937007874,
                    "duration": 0.09375
                },
                {
                    "name": "C4",
                    "midi": 60,
                    "time": 241.31250000000006,
                    "velocity": 0.2677165354330709,
                    "duration": 0.1875
                },
                {
                    "name": "E4",
                    "midi": 64,
                    "time": 241.40625000000006,
                    "velocity": 0.1968503937007874,
                    "duration": 0.09375
                },
                {
                    "name": "A#3",
                    "midi": 58,
                    "time": 241.50000000000006,
                    "velocity": 0.2677165354330709,
                    "duration": 0.1875
                },
                {
                    "name": "E4",
                    "midi": 64,
                    "time": 241.59375000000006,
                    "velocity": 0.1968503937007874,
                    "duration": 0.09375
                },
                {
                    "name": "F3",
                    "midi": 53,
                    "time": 241.68750000000006,
                    "velocity": 0.2677165354330709,
                    "duration": 0.09375
                },
                {
                    "name": "A3",
                    "midi": 57,
                    "time": 241.68750000000006,
                    "velocity": 0.2677165354330709,
                    "duration": 0.1875
                },
                {
                    "name": "F4",
                    "midi": 65,
                    "time": 241.78125000000006,
                    "velocity": 0.2047244094488189,
                    "duration": 0.09375
                },
                {
                    "name": "E4",
                    "midi": 64,
                    "time": 241.87500000000006,
                    "velocity": 0.2047244094488189,
                    "duration": 0.09375
                },
                {
                    "name": "F4",
                    "midi": 65,
                    "time": 241.96875000000006,
                    "velocity": 0.2047244094488189,
                    "duration": 0.09375
                },
                {
                    "name": "F3",
                    "midi": 53,
                    "time": 242.06250000000006,
                    "velocity": 0.30708661417322836,
                    "duration": 0.1875
                },
                {
                    "name": "F4",
                    "midi": 65,
                    "time": 242.15625000000006,
                    "velocity": 0.2125984251968504,
                    "duration": 0.09375
                },
                {
                    "name": "A3",
                    "midi": 57,
                    "time": 242.25000000000006,
                    "velocity": 0.3543307086614173,
                    "duration": 0.1875
                },
                {
                    "name": "F4",
                    "midi": 65,
                    "time": 242.34375000000006,
                    "velocity": 0.2125984251968504,
                    "duration": 0.09375
                },
                {
                    "name": "C4",
                    "midi": 60,
                    "time": 242.43750000000006,
                    "velocity": 0.2992125984251969,
                    "duration": 0.1875
                },
                {
                    "name": "F4",
                    "midi": 65,
                    "time": 242.53125000000006,
                    "velocity": 0.2125984251968504,
                    "duration": 0.09375
                },
                {
                    "name": "C3",
                    "midi": 48,
                    "time": 242.62500000000006,
                    "velocity": 0.30708661417322836,
                    "duration": 0.1875
                },
                {
                    "name": "F4",
                    "midi": 65,
                    "time": 242.71875000000006,
                    "velocity": 0.2125984251968504,
                    "duration": 0.09375
                },
                {
                    "name": "A3",
                    "midi": 57,
                    "time": 242.81250000000006,
                    "velocity": 0.36220472440944884,
                    "duration": 0.1875
                },
                {
                    "name": "E4",
                    "midi": 64,
                    "time": 242.90625000000006,
                    "velocity": 0.2204724409448819,
                    "duration": 0.09375
                },
                {
                    "name": "C4",
                    "midi": 60,
                    "time": 243.00000000000006,
                    "velocity": 0.31496062992125984,
                    "duration": 0.1875
                },
                {
                    "name": "E4",
                    "midi": 64,
                    "time": 243.09375000000006,
                    "velocity": 0.2204724409448819,
                    "duration": 0.09375
                },
                {
                    "name": "D#3",
                    "midi": 51,
                    "time": 243.18750000000006,
                    "velocity": 0.33070866141732286,
                    "duration": 0.1875
                },
                {
                    "name": "D#4",
                    "midi": 63,
                    "time": 243.28125000000006,
                    "velocity": 0.2283464566929134,
                    "duration": 0.09375
                },
                {
                    "name": "A3",
                    "midi": 57,
                    "time": 243.37500000000006,
                    "velocity": 0.3858267716535433,
                    "duration": 0.1875
                },
                {
                    "name": "D#4",
                    "midi": 63,
                    "time": 243.46875000000006,
                    "velocity": 0.2283464566929134,
                    "duration": 0.09375
                },
                {
                    "name": "C4",
                    "midi": 60,
                    "time": 243.56250000000006,
                    "velocity": 0.3464566929133858,
                    "duration": 0.1875
                },
                {
                    "name": "D#4",
                    "midi": 63,
                    "time": 243.65625000000006,
                    "velocity": 0.2440944881889764,
                    "duration": 0.09375
                },
                {
                    "name": "D3",
                    "midi": 50,
                    "time": 243.75000000000006,
                    "velocity": 0.4330708661417323,
                    "duration": 0.1875
                },
                {
                    "name": "D4",
                    "midi": 62,
                    "time": 243.84375000000006,
                    "velocity": 0.2440944881889764,
                    "duration": 0.09375
                },
                {
                    "name": "F#3",
                    "midi": 54,
                    "time": 243.93750000000006,
                    "velocity": 0.3779527559055118,
                    "duration": 0.1875
                },
                {
                    "name": "D4",
                    "midi": 62,
                    "time": 244.03125000000006,
                    "velocity": 0.2440944881889764,
                    "duration": 0.09375
                },
                {
                    "name": "C#3",
                    "midi": 49,
                    "time": 244.12500000000006,
                    "velocity": 0.4330708661417323,
                    "duration": 0.1875
                },
                {
                    "name": "C#4",
                    "midi": 61,
                    "time": 244.21875000000006,
                    "velocity": 0.25984251968503935,
                    "duration": 0.09375
                },
                {
                    "name": "F#3",
                    "midi": 54,
                    "time": 244.31250000000006,
                    "velocity": 0.3779527559055118,
                    "duration": 0.1875
                },
                {
                    "name": "C#4",
                    "midi": 61,
                    "time": 244.40625000000006,
                    "velocity": 0.2677165354330709,
                    "duration": 0.09375
                },
                {
                    "name": "C3",
                    "midi": 48,
                    "time": 244.50000000000006,
                    "velocity": 0.4645669291338583,
                    "duration": 0.18749999999997158
                },
                {
                    "name": "C4",
                    "midi": 60,
                    "time": 244.59375000000003,
                    "velocity": 0.2755905511811024,
                    "duration": 0.09375
                },
                {
                    "name": "F#3",
                    "midi": 54,
                    "time": 244.68750000000003,
                    "velocity": 0.4015748031496063,
                    "duration": 0.1875
                },
                {
                    "name": "C4",
                    "midi": 60,
                    "time": 244.78125000000003,
                    "velocity": 0.2755905511811024,
                    "duration": 0.09375
                },
                {
                    "name": "B2",
                    "midi": 47,
                    "time": 244.87500000000003,
                    "velocity": 0.5039370078740157,
                    "duration": 0.1875
                },
                {
                    "name": "B3",
                    "midi": 59,
                    "time": 244.96875000000003,
                    "velocity": 0.29133858267716534,
                    "duration": 0.09375
                },
                {
                    "name": "F#3",
                    "midi": 54,
                    "time": 245.06250000000003,
                    "velocity": 0.41732283464566927,
                    "duration": 0.1875
                },
                {
                    "name": "B3",
                    "midi": 59,
                    "time": 245.15625000000003,
                    "velocity": 0.29133858267716534,
                    "duration": 0.09375
                },
                {
                    "name": "A#2",
                    "midi": 46,
                    "time": 245.25000000000003,
                    "velocity": 0.5433070866141733,
                    "duration": 0.18750000000002842
                },
                {
                    "name": "A#3",
                    "midi": 58,
                    "time": 245.34375000000006,
                    "velocity": 0.30708661417322836,
                    "duration": 0.09375
                },
                {
                    "name": "F#3",
                    "midi": 54,
                    "time": 245.43750000000006,
                    "velocity": 0.4330708661417323,
                    "duration": 0.1875
                },
                {
                    "name": "A#3",
                    "midi": 58,
                    "time": 245.53125000000006,
                    "velocity": 0.30708661417322836,
                    "duration": 0.09375
                },
                {
                    "name": "A2",
                    "midi": 45,
                    "time": 245.62500000000006,
                    "velocity": 0.5511811023622047,
                    "duration": 0.1875
                },
                {
                    "name": "A3",
                    "midi": 57,
                    "time": 245.71875000000006,
                    "velocity": 0.31496062992125984,
                    "duration": 0.09375
                },
                {
                    "name": "F#3",
                    "midi": 54,
                    "time": 245.81250000000006,
                    "velocity": 0.44881889763779526,
                    "duration": 0.1875
                },
                {
                    "name": "A3",
                    "midi": 57,
                    "time": 245.90625000000006,
                    "velocity": 0.33070866141732286,
                    "duration": 0.09375
                },
                {
                    "name": "G#2",
                    "midi": 44,
                    "time": 246.00000000000006,
                    "velocity": 0.5669291338582677,
                    "duration": 0.1875
                },
                {
                    "name": "G#3",
                    "midi": 56,
                    "time": 246.09375000000006,
                    "velocity": 0.33858267716535434,
                    "duration": 0.09375
                },
                {
                    "name": "C#2",
                    "midi": 37,
                    "time": 246.18750000000006,
                    "velocity": 0.48031496062992124,
                    "duration": 0.1875
                },
                {
                    "name": "C#3",
                    "midi": 49,
                    "time": 246.18750000000006,
                    "velocity": 0.5748031496062992,
                    "duration": 0.1875
                },
                {
                    "name": "F3",
                    "midi": 53,
                    "time": 247.12500000000006,
                    "velocity": 0.4566929133858268,
                    "duration": 0.1875
                },
                {
                    "name": "C#4",
                    "midi": 61,
                    "time": 247.12500000000006,
                    "velocity": 0.5433070866141733,
                    "duration": 0.1875
                },
                {
                    "name": "G#3",
                    "midi": 56,
                    "time": 247.31250000000006,
                    "velocity": 0.48031496062992124,
                    "duration": 0.1875
                },
                {
                    "name": "F4",
                    "midi": 65,
                    "time": 247.31250000000006,
                    "velocity": 0.5669291338582677,
                    "duration": 0.1875
                },
                {
                    "name": "C#4",
                    "midi": 61,
                    "time": 247.50000000000006,
                    "velocity": 0.4409448818897638,
                    "duration": 0.1875
                },
                {
                    "name": "G#4",
                    "midi": 68,
                    "time": 247.50000000000006,
                    "velocity": 0.5275590551181102,
                    "duration": 0.1875
                },
                {
                    "name": "F4",
                    "midi": 65,
                    "time": 247.68750000000006,
                    "velocity": 0.4409448818897638,
                    "duration": 0.1875
                },
                {
                    "name": "C#5",
                    "midi": 73,
                    "time": 247.68750000000006,
                    "velocity": 0.5275590551181102,
                    "duration": 0.1875
                },
                {
                    "name": "F4",
                    "midi": 65,
                    "time": 247.87500000000006,
                    "velocity": 0.48031496062992124,
                    "duration": 0.1875
                },
                {
                    "name": "C#5",
                    "midi": 73,
                    "time": 247.87500000000006,
                    "velocity": 0.5669291338582677,
                    "duration": 0.1875
                },
                {
                    "name": "F#2",
                    "midi": 42,
                    "time": 248.43750000000006,
                    "velocity": 0.48031496062992124,
                    "duration": 0.375
                },
                {
                    "name": "F#3",
                    "midi": 54,
                    "time": 248.43750000000006,
                    "velocity": 0.48031496062992124,
                    "duration": 0.1875
                },
                {
                    "name": "B2",
                    "midi": 47,
                    "time": 248.62500000000006,
                    "velocity": 0.4330708661417323,
                    "duration": 0.1875
                },
                {
                    "name": "E2",
                    "midi": 40,
                    "time": 248.81250000000006,
                    "velocity": 0.48031496062992124,
                    "duration": 0.375
                },
                {
                    "name": "E3",
                    "midi": 52,
                    "time": 248.81250000000006,
                    "velocity": 0.48031496062992124,
                    "duration": 0.1875
                },
                {
                    "name": "A2",
                    "midi": 45,
                    "time": 249.00000000000006,
                    "velocity": 0.4251968503937008,
                    "duration": 0.1875
                },
                {
                    "name": "D2",
                    "midi": 38,
                    "time": 249.18750000000006,
                    "velocity": 0.48031496062992124,
                    "duration": 0.375
                },
                {
                    "name": "D3",
                    "midi": 50,
                    "time": 249.18750000000006,
                    "velocity": 0.48031496062992124,
                    "duration": 0.1875
                },
                {
                    "name": "G2",
                    "midi": 43,
                    "time": 249.37500000000006,
                    "velocity": 0.4251968503937008,
                    "duration": 0.1875
                },
                {
                    "name": "C2",
                    "midi": 36,
                    "time": 249.56250000000006,
                    "velocity": 0.4409448818897638,
                    "duration": 0.1875
                },
                {
                    "name": "C3",
                    "midi": 48,
                    "time": 249.56250000000006,
                    "velocity": 0.4409448818897638,
                    "duration": 0.1875
                },
                {
                    "name": "C#2",
                    "midi": 37,
                    "time": 249.75000000000006,
                    "velocity": 0.4566929133858268,
                    "duration": 0.1875
                },
                {
                    "name": "C#3",
                    "midi": 49,
                    "time": 249.75000000000006,
                    "velocity": 0.4566929133858268,
                    "duration": 0.1875
                },
                {
                    "name": "D2",
                    "midi": 38,
                    "time": 249.93750000000006,
                    "velocity": 0.4645669291338583,
                    "duration": 0.1875
                },
                {
                    "name": "D3",
                    "midi": 50,
                    "time": 249.93750000000006,
                    "velocity": 0.4645669291338583,
                    "duration": 0.1875
                },
                {
                    "name": "D#2",
                    "midi": 39,
                    "time": 250.12500000000006,
                    "velocity": 0.48031496062992124,
                    "duration": 0.1875
                },
                {
                    "name": "D#3",
                    "midi": 51,
                    "time": 250.12500000000006,
                    "velocity": 0.48031496062992124,
                    "duration": 0.1875
                },
                {
                    "name": "E2",
                    "midi": 40,
                    "time": 250.31250000000006,
                    "velocity": 0.49606299212598426,
                    "duration": 0.1875
                },
                {
                    "name": "E3",
                    "midi": 52,
                    "time": 250.31250000000006,
                    "velocity": 0.49606299212598426,
                    "duration": 0.1875
                },
                {
                    "name": "F2",
                    "midi": 41,
                    "time": 250.50000000000006,
                    "velocity": 0.5118110236220472,
                    "duration": 0.1875
                },
                {
                    "name": "D#3",
                    "midi": 51,
                    "time": 250.50000000000006,
                    "velocity": 0.5118110236220472,
                    "duration": 0.1875
                },
                {
                    "name": "A#2",
                    "midi": 46,
                    "time": 250.68750000000006,
                    "velocity": 0.49606299212598426,
                    "duration": 0.1875
                },
                {
                    "name": "D3",
                    "midi": 50,
                    "time": 250.68750000000006,
                    "velocity": 0.49606299212598426,
                    "duration": 0.1875
                },
                {
                    "name": "D#2",
                    "midi": 39,
                    "time": 250.87500000000006,
                    "velocity": 0.4251968503937008,
                    "duration": 0.09375
                },
                {
                    "name": "G#2",
                    "midi": 44,
                    "time": 251.06250000000006,
                    "velocity": 0.4251968503937008,
                    "duration": 0.09375
                },
                {
                    "name": "C#3",
                    "midi": 49,
                    "time": 251.25000000000006,
                    "velocity": 0.47244094488188976,
                    "duration": 0.09375
                },
                {
                    "name": "F#3",
                    "midi": 54,
                    "time": 251.43750000000006,
                    "velocity": 0.4094488188976378,
                    "duration": 0.09375
                },
                {
                    "name": "B3",
                    "midi": 59,
                    "time": 251.62500000000006,
                    "velocity": 0.4094488188976378,
                    "duration": 0.09375
                },
                {
                    "name": "E4",
                    "midi": 64,
                    "time": 251.81250000000006,
                    "velocity": 0.4566929133858268,
                    "duration": 0.09375
                },
                {
                    "name": "D#4",
                    "midi": 63,
                    "time": 252.00000000000006,
                    "velocity": 0.3937007874015748,
                    "duration": 0.09375
                },
                {
                    "name": "D4",
                    "midi": 62,
                    "time": 252.18750000000006,
                    "velocity": 0.3937007874015748,
                    "duration": 0.09375
                },
                {
                    "name": "C#4",
                    "midi": 61,
                    "time": 252.37500000000006,
                    "velocity": 0.44881889763779526,
                    "duration": 0.09375
                },
                {
                    "name": "C4",
                    "midi": 60,
                    "time": 252.56250000000006,
                    "velocity": 0.3858267716535433,
                    "duration": 0.09375
                },
                {
                    "name": "B3",
                    "midi": 59,
                    "time": 252.75000000000006,
                    "velocity": 0.3858267716535433,
                    "duration": 0.09375
                },
                {
                    "name": "C4",
                    "midi": 60,
                    "time": 252.93750000000006,
                    "velocity": 0.3858267716535433,
                    "duration": 0.1875
                },
                {
                    "name": "C5",
                    "midi": 72,
                    "time": 253.12500000000006,
                    "velocity": 0.36220472440944884,
                    "duration": 0.203125
                },
                {
                    "name": "B4",
                    "midi": 71,
                    "time": 253.31250000000006,
                    "velocity": 0.3700787401574803,
                    "duration": 0.203125
                },
                {
                    "name": "A#4",
                    "midi": 70,
                    "time": 253.50000000000006,
                    "velocity": 0.3700787401574803,
                    "duration": 0.203125
                },
                {
                    "name": "A4",
                    "midi": 69,
                    "time": 253.68750000000006,
                    "velocity": 0.3700787401574803,
                    "duration": 0.203125
                },
                {
                    "name": "G#4",
                    "midi": 68,
                    "time": 253.87500000000006,
                    "velocity": 0.3779527559055118,
                    "duration": 0.203125
                },
                {
                    "name": "G4",
                    "midi": 67,
                    "time": 254.06250000000006,
                    "velocity": 0.3858267716535433,
                    "duration": 0.203125
                },
                {
                    "name": "F4",
                    "midi": 65,
                    "time": 254.25000000000006,
                    "velocity": 0.3543307086614173,
                    "duration": 0.203125
                },
                {
                    "name": "E4",
                    "midi": 64,
                    "time": 254.43750000000006,
                    "velocity": 0.3543307086614173,
                    "duration": 0.203125
                },
                {
                    "name": "D#4",
                    "midi": 63,
                    "time": 254.62500000000006,
                    "velocity": 0.3543307086614173,
                    "duration": 0.203125
                },
                {
                    "name": "D4",
                    "midi": 62,
                    "time": 254.81250000000006,
                    "velocity": 0.3543307086614173,
                    "duration": 0.203125
                },
                {
                    "name": "C#4",
                    "midi": 61,
                    "time": 255.00000000000006,
                    "velocity": 0.3543307086614173,
                    "duration": 0.203125
                },
                {
                    "name": "C4",
                    "midi": 60,
                    "time": 255.18750000000006,
                    "velocity": 0.4015748031496063,
                    "duration": 0.171875
                },
                {
                    "name": "C4",
                    "midi": 60,
                    "time": 255.37500000000006,
                    "velocity": 0.3858267716535433,
                    "duration": 0.203125
                },
                {
                    "name": "B3",
                    "midi": 59,
                    "time": 255.56250000000006,
                    "velocity": 0.3937007874015748,
                    "duration": 0.203125
                },
                {
                    "name": "A#3",
                    "midi": 58,
                    "time": 255.75000000000006,
                    "velocity": 0.4251968503937008,
                    "duration": 0.203125
                },
                {
                    "name": "A3",
                    "midi": 57,
                    "time": 255.93750000000006,
                    "velocity": 0.4094488188976378,
                    "duration": 0.203125
                },
                {
                    "name": "G#3",
                    "midi": 56,
                    "time": 256.12500000000006,
                    "velocity": 0.41732283464566927,
                    "duration": 0.203125
                },
                {
                    "name": "G3",
                    "midi": 55,
                    "time": 256.31250000000006,
                    "velocity": 0.44881889763779526,
                    "duration": 0.203125
                },
                {
                    "name": "F3",
                    "midi": 53,
                    "time": 256.50000000000006,
                    "velocity": 0.41732283464566927,
                    "duration": 0.203125
                },
                {
                    "name": "E3",
                    "midi": 52,
                    "time": 256.68750000000006,
                    "velocity": 0.4251968503937008,
                    "duration": 0.203125
                },
                {
                    "name": "D#3",
                    "midi": 51,
                    "time": 256.87500000000006,
                    "velocity": 0.4330708661417323,
                    "duration": 0.203125
                },
                {
                    "name": "D3",
                    "midi": 50,
                    "time": 257.06250000000006,
                    "velocity": 0.4566929133858268,
                    "duration": 0.203125
                },
                {
                    "name": "C#3",
                    "midi": 49,
                    "time": 257.25000000000006,
                    "velocity": 0.47244094488188976,
                    "duration": 0.203125
                },
                {
                    "name": "C3",
                    "midi": 48,
                    "time": 257.43750000000006,
                    "velocity": 0.4881889763779528,
                    "duration": 0.09375
                },
                {
                    "name": "A#3",
                    "midi": 58,
                    "time": 257.62500000000006,
                    "velocity": 0.44881889763779526,
                    "duration": 0.375
                },
                {
                    "name": "C4",
                    "midi": 60,
                    "time": 257.62500000000006,
                    "velocity": 0.5354330708661418,
                    "duration": 0.1875
                },
                {
                    "name": "E4",
                    "midi": 64,
                    "time": 257.81250000000006,
                    "velocity": 0.49606299212598426,
                    "duration": 0.1875
                },
                {
                    "name": "A#2",
                    "midi": 46,
                    "time": 258.00000000000006,
                    "velocity": 0.47244094488188976,
                    "duration": 0.09375
                },
                {
                    "name": "G3",
                    "midi": 55,
                    "time": 258.18750000000006,
                    "velocity": 0.4409448818897638,
                    "duration": 0.375
                },
                {
                    "name": "A#3",
                    "midi": 58,
                    "time": 258.18750000000006,
                    "velocity": 0.5275590551181102,
                    "duration": 0.1875
                },
                {
                    "name": "E4",
                    "midi": 64,
                    "time": 258.37500000000006,
                    "velocity": 0.4881889763779528,
                    "duration": 0.1875
                },
                {
                    "name": "A2",
                    "midi": 45,
                    "time": 258.56250000000006,
                    "velocity": 0.47244094488188976,
                    "duration": 0.09375
                },
                {
                    "name": "E3",
                    "midi": 52,
                    "time": 258.75000000000006,
                    "velocity": 0.4330708661417323,
                    "duration": 0.375
                },
                {
                    "name": "G3",
                    "midi": 55,
                    "time": 258.75000000000006,
                    "velocity": 0.5118110236220472,
                    "duration": 0.1875
                },
                {
                    "name": "E4",
                    "midi": 64,
                    "time": 258.93750000000006,
                    "velocity": 0.48031496062992124,
                    "duration": 0.1875
                },
                {
                    "name": "A2",
                    "midi": 45,
                    "time": 259.12500000000006,
                    "velocity": 0.4409448818897638,
                    "duration": 0.09375
                },
                {
                    "name": "C#3",
                    "midi": 49,
                    "time": 259.31250000000006,
                    "velocity": 0.4015748031496063,
                    "duration": 0.375
                },
                {
                    "name": "E3",
                    "midi": 52,
                    "time": 259.31250000000006,
                    "velocity": 0.48031496062992124,
                    "duration": 0.1875
                },
                {
                    "name": "A3",
                    "midi": 57,
                    "time": 259.50000000000006,
                    "velocity": 0.41732283464566927,
                    "duration": 0.1875
                },
                {
                    "name": "D3",
                    "midi": 50,
                    "time": 259.68750000000006,
                    "velocity": 0.4566929133858268,
                    "duration": 0.09375
                },
                {
                    "name": "F3",
                    "midi": 53,
                    "time": 259.87500000000006,
                    "velocity": 0.4409448818897638,
                    "duration": 0.375
                },
                {
                    "name": "A3",
                    "midi": 57,
                    "time": 259.87500000000006,
                    "velocity": 0.5196850393700787,
                    "duration": 0.1875
                },
                {
                    "name": "D4",
                    "midi": 62,
                    "time": 260.06250000000006,
                    "velocity": 0.48031496062992124,
                    "duration": 0.1875
                },
                {
                    "name": "C3",
                    "midi": 48,
                    "time": 260.25000000000006,
                    "velocity": 0.4566929133858268,
                    "duration": 0.09375
                },
                {
                    "name": "F3",
                    "midi": 53,
                    "time": 260.43750000000006,
                    "velocity": 0.4409448818897638,
                    "duration": 0.375
                },
                {
                    "name": "G#3",
                    "midi": 56,
                    "time": 260.43750000000006,
                    "velocity": 0.5275590551181102,
                    "duration": 0.1875
                },
                {
                    "name": "D4",
                    "midi": 62,
                    "time": 260.62500000000006,
                    "velocity": 0.48031496062992124,
                    "duration": 0.1875
                },
                {
                    "name": "B2",
                    "midi": 47,
                    "time": 260.81250000000006,
                    "velocity": 0.4409448818897638,
                    "duration": 0.09375
                },
                {
                    "name": "D3",
                    "midi": 50,
                    "time": 261.00000000000006,
                    "velocity": 0.4409448818897638,
                    "duration": 0.375
                },
                {
                    "name": "F3",
                    "midi": 53,
                    "time": 261.00000000000006,
                    "velocity": 0.5196850393700787,
                    "duration": 0.1875
                },
                {
                    "name": "D4",
                    "midi": 62,
                    "time": 261.18750000000006,
                    "velocity": 0.4645669291338583,
                    "duration": 0.1875
                },
                {
                    "name": "E2",
                    "midi": 40,
                    "time": 261.37500000000006,
                    "velocity": 0.4409448818897638,
                    "duration": 0.09375
                },
                {
                    "name": "G#2",
                    "midi": 44,
                    "time": 261.56250000000006,
                    "velocity": 0.4251968503937008,
                    "duration": 0.375
                },
                {
                    "name": "B2",
                    "midi": 47,
                    "time": 261.56250000000006,
                    "velocity": 0.5039370078740157,
                    "duration": 0.1875
                },
                {
                    "name": "E3",
                    "midi": 52,
                    "time": 261.75000000000006,
                    "velocity": 0.44881889763779526,
                    "duration": 0.1875
                },
                {
                    "name": "A2",
                    "midi": 45,
                    "time": 261.93750000000006,
                    "velocity": 0.5354330708661418,
                    "duration": 0.1875
                },
                {
                    "name": "A2",
                    "midi": 45,
                    "time": 262.12500000000006,
                    "velocity": 0.4881889763779528,
                    "duration": 0.1875
                },
                {
                    "name": "E3",
                    "midi": 52,
                    "time": 262.12500000000006,
                    "velocity": 0.5748031496062992,
                    "duration": 0.1875
                },
                {
                    "name": "D3",
                    "midi": 50,
                    "time": 262.31250000000006,
                    "velocity": 0.44881889763779526,
                    "duration": 0.1875
                },
                {
                    "name": "F3",
                    "midi": 53,
                    "time": 262.31250000000006,
                    "velocity": 0.5354330708661418,
                    "duration": 0.1875
                },
                {
                    "name": "C3",
                    "midi": 48,
                    "time": 262.50000000000006,
                    "velocity": 0.48031496062992124,
                    "duration": 0.1875
                },
                {
                    "name": "G3",
                    "midi": 55,
                    "time": 262.50000000000006,
                    "velocity": 0.5669291338582677,
                    "duration": 0.1875
                },
                {
                    "name": "F3",
                    "midi": 53,
                    "time": 262.68750000000006,
                    "velocity": 0.4409448818897638,
                    "duration": 0.1875
                },
                {
                    "name": "A3",
                    "midi": 57,
                    "time": 262.68750000000006,
                    "velocity": 0.5275590551181102,
                    "duration": 0.1875
                },
                {
                    "name": "E3",
                    "midi": 52,
                    "time": 262.87500000000006,
                    "velocity": 0.48031496062992124,
                    "duration": 0.1875
                },
                {
                    "name": "B3",
                    "midi": 59,
                    "time": 262.87500000000006,
                    "velocity": 0.5669291338582677,
                    "duration": 0.1875
                },
                {
                    "name": "C4",
                    "midi": 60,
                    "time": 263.06250000000006,
                    "velocity": 0.5275590551181102,
                    "duration": 0.1875
                },
                {
                    "name": "A3",
                    "midi": 57,
                    "time": 263.06250000000006,
                    "velocity": 0.4409448818897638,
                    "duration": 0.1875
                },
                {
                    "name": "G3",
                    "midi": 55,
                    "time": 263.25000000000006,
                    "velocity": 0.49606299212598426,
                    "duration": 0.1875
                },
                {
                    "name": "D4",
                    "midi": 62,
                    "time": 263.25000000000006,
                    "velocity": 0.5905511811023622,
                    "duration": 0.1875
                },
                {
                    "name": "E4",
                    "midi": 64,
                    "time": 263.43750000000006,
                    "velocity": 0.5433070866141733,
                    "duration": 0.18750000000005684
                },
                {
                    "name": "C4",
                    "midi": 60,
                    "time": 263.43750000000006,
                    "velocity": 0.4566929133858268,
                    "duration": 0.18750000000005684
                },
                {
                    "name": "E4",
                    "midi": 64,
                    "time": 263.6250000000001,
                    "velocity": 0.5905511811023622,
                    "duration": 0.1875
                },
                {
                    "name": "A3",
                    "midi": 57,
                    "time": 263.6250000000001,
                    "velocity": 0.49606299212598426,
                    "duration": 0.1875
                },
                {
                    "name": "F4",
                    "midi": 65,
                    "time": 263.8125000000001,
                    "velocity": 0.5511811023622047,
                    "duration": 0.1875
                },
                {
                    "name": "D4",
                    "midi": 62,
                    "time": 263.8125000000001,
                    "velocity": 0.4645669291338583,
                    "duration": 0.1875
                },
                {
                    "name": "C4",
                    "midi": 60,
                    "time": 264.0000000000001,
                    "velocity": 0.49606299212598426,
                    "duration": 0.18749999999994316
                },
                {
                    "name": "G4",
                    "midi": 67,
                    "time": 264.0000000000001,
                    "velocity": 0.5905511811023622,
                    "duration": 0.18749999999994316
                },
                {
                    "name": "A4",
                    "midi": 69,
                    "time": 264.18750000000006,
                    "velocity": 0.5433070866141733,
                    "duration": 0.1875
                },
                {
                    "name": "F4",
                    "midi": 65,
                    "time": 264.18750000000006,
                    "velocity": 0.4566929133858268,
                    "duration": 0.1875
                },
                {
                    "name": "A3",
                    "midi": 57,
                    "time": 264.37500000000006,
                    "velocity": 0.4251968503937008,
                    "duration": 0.09375000000005684
                },
                {
                    "name": "E4",
                    "midi": 64,
                    "time": 264.4687500000001,
                    "velocity": 0.4330708661417323,
                    "duration": 0.09375
                },
                {
                    "name": "D4",
                    "midi": 62,
                    "time": 264.5625000000001,
                    "velocity": 0.4409448818897638,
                    "duration": 0.09375
                },
                {
                    "name": "F4",
                    "midi": 65,
                    "time": 264.6562500000001,
                    "velocity": 0.4566929133858268,
                    "duration": 0.09375
                },
                {
                    "name": "C4",
                    "midi": 60,
                    "time": 264.7500000000001,
                    "velocity": 0.5511811023622047,
                    "duration": 0.09375
                },
                {
                    "name": "G4",
                    "midi": 67,
                    "time": 264.8437500000001,
                    "velocity": 0.4566929133858268,
                    "duration": 0.09375
                },
                {
                    "name": "F4",
                    "midi": 65,
                    "time": 264.9375000000001,
                    "velocity": 0.4645669291338583,
                    "duration": 0.09375
                },
                {
                    "name": "A4",
                    "midi": 69,
                    "time": 265.0312500000001,
                    "velocity": 0.4645669291338583,
                    "duration": 0.09375
                },
                {
                    "name": "E4",
                    "midi": 64,
                    "time": 265.1250000000001,
                    "velocity": 0.48031496062992124,
                    "duration": 0.09375
                },
                {
                    "name": "B4",
                    "midi": 71,
                    "time": 265.2187500000001,
                    "velocity": 0.48031496062992124,
                    "duration": 0.09375
                },
                {
                    "name": "A4",
                    "midi": 69,
                    "time": 265.3125000000001,
                    "velocity": 0.5905511811023622,
                    "duration": 0.09374999999994316
                },
                {
                    "name": "C5",
                    "midi": 72,
                    "time": 265.40625000000006,
                    "velocity": 0.49606299212598426,
                    "duration": 0.09375
                },
                {
                    "name": "G4",
                    "midi": 67,
                    "time": 265.50000000000006,
                    "velocity": 0.48031496062992124,
                    "duration": 0.09375
                },
                {
                    "name": "D5",
                    "midi": 74,
                    "time": 265.59375000000006,
                    "velocity": 0.49606299212598426,
                    "duration": 0.09375
                },
                {
                    "name": "C5",
                    "midi": 72,
                    "time": 265.68750000000006,
                    "velocity": 0.5039370078740157,
                    "duration": 0.09375
                },
                {
                    "name": "E5",
                    "midi": 76,
                    "time": 265.78125000000006,
                    "velocity": 0.5118110236220472,
                    "duration": 0.09375
                },
                {
                    "name": "A4",
                    "midi": 69,
                    "time": 265.87500000000006,
                    "velocity": 0.6299212598425197,
                    "duration": 0.09375
                },
                {
                    "name": "E5",
                    "midi": 76,
                    "time": 265.96875000000006,
                    "velocity": 0.5196850393700787,
                    "duration": 0.09375
                },
                {
                    "name": "D5",
                    "midi": 74,
                    "time": 266.06250000000006,
                    "velocity": 0.5196850393700787,
                    "duration": 0.09375
                },
                {
                    "name": "F5",
                    "midi": 77,
                    "time": 266.15625000000006,
                    "velocity": 0.5354330708661418,
                    "duration": 0.09375
                },
                {
                    "name": "C5",
                    "midi": 72,
                    "time": 266.25000000000006,
                    "velocity": 0.5354330708661418,
                    "duration": 0.09375
                },
                {
                    "name": "G5",
                    "midi": 79,
                    "time": 266.34375000000006,
                    "velocity": 0.5354330708661418,
                    "duration": 0.09375
                },
                {
                    "name": "A5",
                    "midi": 81,
                    "time": 266.43750000000006,
                    "velocity": 0.5669291338582677,
                    "duration": 0.09375
                },
                {
                    "name": "F5",
                    "midi": 77,
                    "time": 266.43750000000006,
                    "velocity": 0.5196850393700787,
                    "duration": 0.09375
                },
                {
                    "name": "C#5",
                    "midi": 73,
                    "time": 266.62500000000006,
                    "velocity": 0.41732283464566927,
                    "duration": 0.1875
                },
                {
                    "name": "G#5",
                    "midi": 80,
                    "time": 266.62500000000006,
                    "velocity": 0.49606299212598426,
                    "duration": 0.1875
                },
                {
                    "name": "A5",
                    "midi": 81,
                    "time": 266.81250000000006,
                    "velocity": 0.5196850393700787,
                    "duration": 0.1875
                },
                {
                    "name": "C5",
                    "midi": 72,
                    "time": 266.81250000000006,
                    "velocity": 0.4409448818897638,
                    "duration": 0.1875
                },
                {
                    "name": "C#5",
                    "midi": 73,
                    "time": 267.00000000000006,
                    "velocity": 0.4409448818897638,
                    "duration": 0.18750000000005684
                },
                {
                    "name": "G#5",
                    "midi": 80,
                    "time": 267.00000000000006,
                    "velocity": 0.5196850393700787,
                    "duration": 0.18750000000005684
                },
                {
                    "name": "A5",
                    "midi": 81,
                    "time": 267.1875000000001,
                    "velocity": 0.5196850393700787,
                    "duration": 0.1875
                },
                {
                    "name": "C5",
                    "midi": 72,
                    "time": 267.1875000000001,
                    "velocity": 0.4409448818897638,
                    "duration": 0.1875
                },
                {
                    "name": "C#5",
                    "midi": 73,
                    "time": 267.3750000000001,
                    "velocity": 0.4409448818897638,
                    "duration": 0.1875
                },
                {
                    "name": "G#5",
                    "midi": 80,
                    "time": 267.3750000000001,
                    "velocity": 0.5196850393700787,
                    "duration": 0.1875
                },
                {
                    "name": "C5",
                    "midi": 72,
                    "time": 267.5625000000001,
                    "velocity": 0.4409448818897638,
                    "duration": 0.18750000000005684
                },
                {
                    "name": "A5",
                    "midi": 81,
                    "time": 267.5625000000001,
                    "velocity": 0.5196850393700787,
                    "duration": 0.18750000000005684
                },
                {
                    "name": "C#5",
                    "midi": 73,
                    "time": 267.75000000000017,
                    "velocity": 0.4409448818897638,
                    "duration": 0.1875
                },
                {
                    "name": "G#5",
                    "midi": 80,
                    "time": 267.75000000000017,
                    "velocity": 0.5196850393700787,
                    "duration": 0.1875
                },
                {
                    "name": "C5",
                    "midi": 72,
                    "time": 267.93750000000017,
                    "velocity": 0.4409448818897638,
                    "duration": 0.1875
                },
                {
                    "name": "A5",
                    "midi": 81,
                    "time": 267.93750000000017,
                    "velocity": 0.5196850393700787,
                    "duration": 0.1875
                },
                {
                    "name": "C#5",
                    "midi": 73,
                    "time": 268.12500000000017,
                    "velocity": 0.4409448818897638,
                    "duration": 0.1875
                },
                {
                    "name": "G#5",
                    "midi": 80,
                    "time": 268.12500000000017,
                    "velocity": 0.5196850393700787,
                    "duration": 0.1875
                },
                {
                    "name": "C5",
                    "midi": 72,
                    "time": 268.31250000000017,
                    "velocity": 0.4409448818897638,
                    "duration": 0.1875
                },
                {
                    "name": "A5",
                    "midi": 81,
                    "time": 268.31250000000017,
                    "velocity": 0.5196850393700787,
                    "duration": 0.1875
                },
                {
                    "name": "C#5",
                    "midi": 73,
                    "time": 268.50000000000017,
                    "velocity": 0.4409448818897638,
                    "duration": 0.1875
                },
                {
                    "name": "G#5",
                    "midi": 80,
                    "time": 268.50000000000017,
                    "velocity": 0.5196850393700787,
                    "duration": 0.1875
                },
                {
                    "name": "C5",
                    "midi": 72,
                    "time": 268.68750000000017,
                    "velocity": 0.4330708661417323,
                    "duration": 0.09375
                },
                {
                    "name": "A5",
                    "midi": 81,
                    "time": 268.68750000000017,
                    "velocity": 0.5039370078740157,
                    "duration": 0.09375
                },
                {
                    "name": "C3",
                    "midi": 48,
                    "time": 269.25000000000017,
                    "velocity": 0.4645669291338583,
                    "duration": 0.5625
                },
                {
                    "name": "A3",
                    "midi": 57,
                    "time": 269.25000000000017,
                    "velocity": 0.5511811023622047,
                    "duration": 0.5625
                },
                {
                    "name": "C3",
                    "midi": 48,
                    "time": 269.81250000000017,
                    "velocity": 0.4645669291338583,
                    "duration": 2.0625
                },
                {
                    "name": "A#3",
                    "midi": 58,
                    "time": 269.81250000000017,
                    "velocity": 0.6062992125984252,
                    "duration": 2.0625
                },
                {
                    "name": "C3",
                    "midi": 48,
                    "time": 272.62500000000017,
                    "velocity": 0.2677165354330709,
                    "duration": 0.37109375
                },
                {
                    "name": "F#3",
                    "midi": 54,
                    "time": 272.62500000000017,
                    "velocity": 0.2677165354330709,
                    "duration": 0.37109375
                },
                {
                    "name": "C4",
                    "midi": 60,
                    "time": 272.62500000000017,
                    "velocity": 0.31496062992125984,
                    "duration": 0.37109375
                },
                {
                    "name": "C3",
                    "midi": 48,
                    "time": 273.00000000000017,
                    "velocity": 0.23622047244094488,
                    "duration": 0.18593750000002274
                },
                {
                    "name": "F#3",
                    "midi": 54,
                    "time": 273.00000000000017,
                    "velocity": 0.23622047244094488,
                    "duration": 0.18593750000002274
                },
                {
                    "name": "C4",
                    "midi": 60,
                    "time": 273.00000000000017,
                    "velocity": 0.28346456692913385,
                    "duration": 0.18593750000002274
                },
                {
                    "name": "C3",
                    "midi": 48,
                    "time": 273.18750000000017,
                    "velocity": 0.2677165354330709,
                    "duration": 0.37109374999994316
                },
                {
                    "name": "G3",
                    "midi": 55,
                    "time": 273.18750000000017,
                    "velocity": 0.2677165354330709,
                    "duration": 0.37109374999994316
                },
                {
                    "name": "C4",
                    "midi": 60,
                    "time": 273.18750000000017,
                    "velocity": 0.31496062992125984,
                    "duration": 0.37109374999994316
                },
                {
                    "name": "C3",
                    "midi": 48,
                    "time": 273.5625000000001,
                    "velocity": 0.2440944881889764,
                    "duration": 0.18593750000002274
                },
                {
                    "name": "G3",
                    "midi": 55,
                    "time": 273.5625000000001,
                    "velocity": 0.2440944881889764,
                    "duration": 0.18593750000002274
                },
                {
                    "name": "C4",
                    "midi": 60,
                    "time": 273.5625000000001,
                    "velocity": 0.29133858267716534,
                    "duration": 0.18593750000002274
                },
                {
                    "name": "C3",
                    "midi": 48,
                    "time": 273.7500000000001,
                    "velocity": 0.2992125984251969,
                    "duration": 0.37109375
                },
                {
                    "name": "G#3",
                    "midi": 56,
                    "time": 273.7500000000001,
                    "velocity": 0.2992125984251969,
                    "duration": 0.37109375
                },
                {
                    "name": "D4",
                    "midi": 62,
                    "time": 273.7500000000001,
                    "velocity": 0.36220472440944884,
                    "duration": 0.37109375
                },
                {
                    "name": "C3",
                    "midi": 48,
                    "time": 274.1250000000001,
                    "velocity": 0.28346456692913385,
                    "duration": 0.18593750000002274
                },
                {
                    "name": "G#3",
                    "midi": 56,
                    "time": 274.1250000000001,
                    "velocity": 0.28346456692913385,
                    "duration": 0.18593750000002274
                },
                {
                    "name": "D4",
                    "midi": 62,
                    "time": 274.1250000000001,
                    "velocity": 0.33070866141732286,
                    "duration": 0.18593750000002274
                },
                {
                    "name": "C3",
                    "midi": 48,
                    "time": 274.3125000000001,
                    "velocity": 0.3228346456692913,
                    "duration": 0.37109375000005684
                },
                {
                    "name": "A3",
                    "midi": 57,
                    "time": 274.3125000000001,
                    "velocity": 0.3228346456692913,
                    "duration": 0.37109375000005684
                },
                {
                    "name": "C4",
                    "midi": 60,
                    "time": 274.3125000000001,
                    "velocity": 0.3858267716535433,
                    "duration": 0.37109375000005684
                },
                {
                    "name": "C3",
                    "midi": 48,
                    "time": 274.68750000000017,
                    "velocity": 0.30708661417322836,
                    "duration": 0.18593750000002274
                },
                {
                    "name": "A3",
                    "midi": 57,
                    "time": 274.68750000000017,
                    "velocity": 0.30708661417322836,
                    "duration": 0.18593750000002274
                },
                {
                    "name": "C4",
                    "midi": 60,
                    "time": 274.68750000000017,
                    "velocity": 0.36220472440944884,
                    "duration": 0.18593750000002274
                },
                {
                    "name": "C3",
                    "midi": 48,
                    "time": 274.87500000000017,
                    "velocity": 0.3543307086614173,
                    "duration": 0.37109375
                },
                {
                    "name": "F#3",
                    "midi": 54,
                    "time": 274.87500000000017,
                    "velocity": 0.3543307086614173,
                    "duration": 0.37109375
                },
                {
                    "name": "D4",
                    "midi": 62,
                    "time": 274.87500000000017,
                    "velocity": 0.41732283464566927,
                    "duration": 0.37109375
                },
                {
                    "name": "C3",
                    "midi": 48,
                    "time": 275.25000000000017,
                    "velocity": 0.31496062992125984,
                    "duration": 0.18593750000002274
                },
                {
                    "name": "F#3",
                    "midi": 54,
                    "time": 275.25000000000017,
                    "velocity": 0.31496062992125984,
                    "duration": 0.18593750000002274
                },
                {
                    "name": "D4",
                    "midi": 62,
                    "time": 275.25000000000017,
                    "velocity": 0.3779527559055118,
                    "duration": 0.18593750000002274
                },
                {
                    "name": "C3",
                    "midi": 48,
                    "time": 275.43750000000017,
                    "velocity": 0.3228346456692913,
                    "duration": 0.28125
                },
                {
                    "name": "G3",
                    "midi": 55,
                    "time": 275.43750000000017,
                    "velocity": 0.3228346456692913,
                    "duration": 0.28125
                },
                {
                    "name": "D4",
                    "midi": 62,
                    "time": 275.43750000000017,
                    "velocity": 0.3858267716535433,
                    "duration": 0.28125
                },
                {
                    "name": "C3",
                    "midi": 48,
                    "time": 275.71875000000017,
                    "velocity": 0.1968503937007874,
                    "duration": 0.1875
                },
                {
                    "name": "G3",
                    "midi": 55,
                    "time": 275.7375000000002,
                    "velocity": 0.25196850393700787,
                    "duration": 0.16874999999998863
                },
                {
                    "name": "D4",
                    "midi": 62,
                    "time": 275.7562500000002,
                    "velocity": 0.25984251968503935,
                    "duration": 0.14999999999997726
                },
                {
                    "name": "C3",
                    "midi": 48,
                    "time": 275.90625000000017,
                    "velocity": 0.23622047244094488,
                    "duration": 0.375
                },
                {
                    "name": "F#3",
                    "midi": 54,
                    "time": 275.9250000000002,
                    "velocity": 0.23622047244094488,
                    "duration": 0.35624999999998863
                },
                {
                    "name": "D#4",
                    "midi": 63,
                    "time": 275.9437500000002,
                    "velocity": 0.29133858267716534,
                    "duration": 0.33749999999997726
                },
                {
                    "name": "C3",
                    "midi": 48,
                    "time": 276.28125000000017,
                    "velocity": 0.2204724409448819,
                    "duration": 0.1875
                },
                {
                    "name": "G3",
                    "midi": 55,
                    "time": 276.3000000000002,
                    "velocity": 0.2204724409448819,
                    "duration": 0.16874999999998863
                },
                {
                    "name": "E4",
                    "midi": 64,
                    "time": 276.3187500000002,
                    "velocity": 0.2677165354330709,
                    "duration": 0.14999999999997726
                },
                {
                    "name": "C3",
                    "midi": 48,
                    "time": 276.46875000000017,
                    "velocity": 0.2125984251968504,
                    "duration": 0.46875
                },
                {
                    "name": "A3",
                    "midi": 57,
                    "time": 276.4875000000002,
                    "velocity": 0.2125984251968504,
                    "duration": 0.44999999999998863
                },
                {
                    "name": "F4",
                    "midi": 65,
                    "time": 276.5062500000002,
                    "velocity": 0.25984251968503935,
                    "duration": 0.43124999999997726
                },
                {
                    "name": "C3",
                    "midi": 48,
                    "time": 276.93750000000017,
                    "velocity": 0.2440944881889764,
                    "duration": 0.140625
                },
                {
                    "name": "C3",
                    "midi": 48,
                    "time": 277.07812500000017,
                    "velocity": 0.2677165354330709,
                    "duration": 0.421875
                },
                {
                    "name": "F#3",
                    "midi": 54,
                    "time": 277.10156250000017,
                    "velocity": 0.31496062992125984,
                    "duration": 0.3984375
                },
                {
                    "name": "D#4",
                    "midi": 63,
                    "time": 277.12500000000017,
                    "velocity": 0.31496062992125984,
                    "duration": 0.375
                },
                {
                    "name": "C3",
                    "midi": 48,
                    "time": 277.50000000000017,
                    "velocity": 0.31496062992125984,
                    "duration": 0.140625
                },
                {
                    "name": "C3",
                    "midi": 48,
                    "time": 277.64062500000017,
                    "velocity": 0.2992125984251969,
                    "duration": 0.421875
                },
                {
                    "name": "G3",
                    "midi": 55,
                    "time": 277.66406250000017,
                    "velocity": 0.2992125984251969,
                    "duration": 0.3984375
                },
                {
                    "name": "D4",
                    "midi": 62,
                    "time": 277.68750000000017,
                    "velocity": 0.3543307086614173,
                    "duration": 0.375
                },
                {
                    "name": "C3",
                    "midi": 48,
                    "time": 278.06250000000017,
                    "velocity": 0.33070866141732286,
                    "duration": 0.140625
                },
                {
                    "name": "C3",
                    "midi": 48,
                    "time": 278.20312500000017,
                    "velocity": 0.29133858267716534,
                    "duration": 0.421875
                },
                {
                    "name": "G#3",
                    "midi": 56,
                    "time": 278.22656250000017,
                    "velocity": 0.3543307086614173,
                    "duration": 0.3984375
                },
                {
                    "name": "F4",
                    "midi": 65,
                    "time": 278.25000000000017,
                    "velocity": 0.3543307086614173,
                    "duration": 0.375
                },
                {
                    "name": "C3",
                    "midi": 48,
                    "time": 278.62500000000017,
                    "velocity": 0.33070866141732286,
                    "duration": 0.140625
                },
                {
                    "name": "C3",
                    "midi": 48,
                    "time": 278.76562500000017,
                    "velocity": 0.29133858267716534,
                    "duration": 0.421875
                },
                {
                    "name": "A3",
                    "midi": 57,
                    "time": 278.78906250000017,
                    "velocity": 0.29133858267716534,
                    "duration": 0.3984375
                },
                {
                    "name": "C4",
                    "midi": 60,
                    "time": 278.81250000000017,
                    "velocity": 0.3543307086614173,
                    "duration": 0.375
                },
                {
                    "name": "C3",
                    "midi": 48,
                    "time": 279.18750000000017,
                    "velocity": 0.33070866141732286,
                    "duration": 0.140625
                },
                {
                    "name": "C3",
                    "midi": 48,
                    "time": 279.32812500000017,
                    "velocity": 0.33070866141732286,
                    "duration": 0.421875
                },
                {
                    "name": "F#3",
                    "midi": 54,
                    "time": 279.35156250000017,
                    "velocity": 0.33070866141732286,
                    "duration": 0.3984375
                },
                {
                    "name": "D4",
                    "midi": 62,
                    "time": 279.37500000000017,
                    "velocity": 0.4015748031496063,
                    "duration": 0.375
                },
                {
                    "name": "C3",
                    "midi": 48,
                    "time": 279.75000000000017,
                    "velocity": 0.3700787401574803,
                    "duration": 0.140625
                },
                {
                    "name": "C3",
                    "midi": 48,
                    "time": 279.89062500000017,
                    "velocity": 0.33070866141732286,
                    "duration": 0.421875
                },
                {
                    "name": "G3",
                    "midi": 55,
                    "time": 279.91406250000017,
                    "velocity": 0.33070866141732286,
                    "duration": 0.3984375
                },
                {
                    "name": "D4",
                    "midi": 62,
                    "time": 279.93750000000017,
                    "velocity": 0.4015748031496063,
                    "duration": 0.375
                },
                {
                    "name": "C3",
                    "midi": 48,
                    "time": 280.31250000000017,
                    "velocity": 0.3700787401574803,
                    "duration": 0.140625
                },
                {
                    "name": "C3",
                    "midi": 48,
                    "time": 280.45312500000017,
                    "velocity": 0.33858267716535434,
                    "duration": 0.421875
                },
                {
                    "name": "E3",
                    "midi": 52,
                    "time": 280.47656250000017,
                    "velocity": 0.33858267716535434,
                    "duration": 0.3984375
                },
                {
                    "name": "C4",
                    "midi": 60,
                    "time": 280.50000000000017,
                    "velocity": 0.4094488188976378,
                    "duration": 0.375
                },
                {
                    "name": "C3",
                    "midi": 48,
                    "time": 280.87500000000017,
                    "velocity": 0.3937007874015748,
                    "duration": 0.140625
                },
                {
                    "name": "C3",
                    "midi": 48,
                    "time": 281.01562500000017,
                    "velocity": 0.3543307086614173,
                    "duration": 0.421875
                },
                {
                    "name": "F3",
                    "midi": 53,
                    "time": 281.03906250000017,
                    "velocity": 0.3543307086614173,
                    "duration": 0.3984375
                },
                {
                    "name": "C4",
                    "midi": 60,
                    "time": 281.06250000000017,
                    "velocity": 0.41732283464566927,
                    "duration": 0.375
                },
                {
                    "name": "C3",
                    "midi": 48,
                    "time": 281.43750000000017,
                    "velocity": 0.4015748031496063,
                    "duration": 0.1875
                },
                {
                    "name": "C3",
                    "midi": 48,
                    "time": 281.62500000000017,
                    "velocity": 0.3228346456692913,
                    "duration": 0.37109375
                },
                {
                    "name": "F#3",
                    "midi": 54,
                    "time": 281.62500000000017,
                    "velocity": 0.3464566929133858,
                    "duration": 0.37109375
                },
                {
                    "name": "C4",
                    "midi": 60,
                    "time": 281.62500000000017,
                    "velocity": 0.4015748031496063,
                    "duration": 0.37109375
                },
                {
                    "name": "C3",
                    "midi": 48,
                    "time": 282.00000000000017,
                    "velocity": 0.2755905511811024,
                    "duration": 0.18593750000002274
                },
                {
                    "name": "F#3",
                    "midi": 54,
                    "time": 282.00000000000017,
                    "velocity": 0.3228346456692913,
                    "duration": 0.18593750000002274
                },
                {
                    "name": "C4",
                    "midi": 60,
                    "time": 282.00000000000017,
                    "velocity": 0.4015748031496063,
                    "duration": 0.18593750000002274
                },
                {
                    "name": "C3",
                    "midi": 48,
                    "time": 282.18750000000017,
                    "velocity": 0.3700787401574803,
                    "duration": 0.37109374999994316
                },
                {
                    "name": "G3",
                    "midi": 55,
                    "time": 282.18750000000017,
                    "velocity": 0.3700787401574803,
                    "duration": 0.37109374999994316
                },
                {
                    "name": "C4",
                    "midi": 60,
                    "time": 282.18750000000017,
                    "velocity": 0.4566929133858268,
                    "duration": 0.37109374999994316
                },
                {
                    "name": "C3",
                    "midi": 48,
                    "time": 282.5625000000001,
                    "velocity": 0.3464566929133858,
                    "duration": 0.18593750000002274
                },
                {
                    "name": "G3",
                    "midi": 55,
                    "time": 282.5625000000001,
                    "velocity": 0.3464566929133858,
                    "duration": 0.18593750000002274
                },
                {
                    "name": "C4",
                    "midi": 60,
                    "time": 282.5625000000001,
                    "velocity": 0.41732283464566927,
                    "duration": 0.18593750000002274
                },
                {
                    "name": "C3",
                    "midi": 48,
                    "time": 282.7500000000001,
                    "velocity": 0.36220472440944884,
                    "duration": 0.37109375
                },
                {
                    "name": "G#3",
                    "midi": 56,
                    "time": 282.7500000000001,
                    "velocity": 0.36220472440944884,
                    "duration": 0.37109375
                },
                {
                    "name": "D4",
                    "midi": 62,
                    "time": 282.7500000000001,
                    "velocity": 0.44881889763779526,
                    "duration": 0.37109375
                },
                {
                    "name": "C3",
                    "midi": 48,
                    "time": 283.1250000000001,
                    "velocity": 0.3464566929133858,
                    "duration": 0.18593750000002274
                },
                {
                    "name": "G#3",
                    "midi": 56,
                    "time": 283.1250000000001,
                    "velocity": 0.4251968503937008,
                    "duration": 0.18593750000002274
                },
                {
                    "name": "D4",
                    "midi": 62,
                    "time": 283.1250000000001,
                    "velocity": 0.4251968503937008,
                    "duration": 0.18593750000002274
                },
                {
                    "name": "C3",
                    "midi": 48,
                    "time": 283.3125000000001,
                    "velocity": 0.36220472440944884,
                    "duration": 0.375
                },
                {
                    "name": "A3",
                    "midi": 57,
                    "time": 283.3125000000001,
                    "velocity": 0.36220472440944884,
                    "duration": 0.5625
                },
                {
                    "name": "C4",
                    "midi": 60,
                    "time": 283.3125000000001,
                    "velocity": 0.4409448818897638,
                    "duration": 0.5625
                },
                {
                    "name": "C3",
                    "midi": 48,
                    "time": 283.6875000000001,
                    "velocity": 0.4251968503937008,
                    "duration": 0.1875
                },
                {
                    "name": "C3",
                    "midi": 48,
                    "time": 283.8750000000001,
                    "velocity": 0.41732283464566927,
                    "duration": 0.375
                },
                {
                    "name": "F#3",
                    "midi": 54,
                    "time": 283.8750000000001,
                    "velocity": 0.41732283464566927,
                    "duration": 0.375
                },
                {
                    "name": "D4",
                    "midi": 62,
                    "time": 283.8750000000001,
                    "velocity": 0.4881889763779528,
                    "duration": 0.375
                },
                {
                    "name": "C3",
                    "midi": 48,
                    "time": 284.2500000000001,
                    "velocity": 0.4015748031496063,
                    "duration": 0.1875
                },
                {
                    "name": "F#3",
                    "midi": 54,
                    "time": 284.2500000000001,
                    "velocity": 0.4015748031496063,
                    "duration": 0.1875
                },
                {
                    "name": "D4",
                    "midi": 62,
                    "time": 284.2500000000001,
                    "velocity": 0.47244094488188976,
                    "duration": 0.1875
                },
                {
                    "name": "A#2",
                    "midi": 46,
                    "time": 284.4375000000001,
                    "velocity": 0.5039370078740157,
                    "duration": 0.1875
                },
                {
                    "name": "D4",
                    "midi": 62,
                    "time": 284.6250000000001,
                    "velocity": 0.4409448818897638,
                    "duration": 0.1875
                },
                {
                    "name": "G4",
                    "midi": 67,
                    "time": 284.8125000000001,
                    "velocity": 0.44881889763779526,
                    "duration": 0.1875
                },
                {
                    "name": "A#3",
                    "midi": 58,
                    "time": 285.0000000000001,
                    "velocity": 0.5196850393700787,
                    "duration": 0.5625
                },
                {
                    "name": "C4",
                    "midi": 60,
                    "time": 285.1875000000001,
                    "velocity": 0.4409448818897638,
                    "duration": 0.1875
                },
                {
                    "name": "E4",
                    "midi": 64,
                    "time": 285.3750000000001,
                    "velocity": 0.4566929133858268,
                    "duration": 0.1875
                },
                {
                    "name": "A3",
                    "midi": 57,
                    "time": 285.5625000000001,
                    "velocity": 0.5275590551181102,
                    "duration": 0.5624999999999432
                },
                {
                    "name": "C4",
                    "midi": 60,
                    "time": 285.75000000000006,
                    "velocity": 0.4645669291338583,
                    "duration": 0.1875
                },
                {
                    "name": "F4",
                    "midi": 65,
                    "time": 285.93750000000006,
                    "velocity": 0.48031496062992124,
                    "duration": 0.1875
                },
                {
                    "name": "A#3",
                    "midi": 58,
                    "time": 286.12500000000006,
                    "velocity": 0.5511811023622047,
                    "duration": 0.5625
                },
                {
                    "name": "D4",
                    "midi": 62,
                    "time": 286.31250000000006,
                    "velocity": 0.4881889763779528,
                    "duration": 0.1875
                },
                {
                    "name": "G4",
                    "midi": 67,
                    "time": 286.50000000000006,
                    "velocity": 0.49606299212598426,
                    "duration": 0.1875
                },
                {
                    "name": "C4",
                    "midi": 60,
                    "time": 286.68750000000006,
                    "velocity": 0.5826771653543307,
                    "duration": 0.5625000000000568
                },
                {
                    "name": "E4",
                    "midi": 64,
                    "time": 286.8750000000001,
                    "velocity": 0.5118110236220472,
                    "duration": 0.1875
                },
                {
                    "name": "A4",
                    "midi": 69,
                    "time": 287.0625000000001,
                    "velocity": 0.5196850393700787,
                    "duration": 0.1875
                },
                {
                    "name": "D4",
                    "midi": 62,
                    "time": 287.2500000000001,
                    "velocity": 0.5905511811023622,
                    "duration": 0.5624999999999432
                },
                {
                    "name": "F4",
                    "midi": 65,
                    "time": 287.43750000000006,
                    "velocity": 0.5354330708661418,
                    "duration": 0.1875
                },
                {
                    "name": "A#4",
                    "midi": 70,
                    "time": 287.62500000000006,
                    "velocity": 0.5433070866141733,
                    "duration": 0.1875
                },
                {
                    "name": "E4",
                    "midi": 64,
                    "time": 287.81250000000006,
                    "velocity": 0.6614173228346457,
                    "duration": 0.5625
                },
                {
                    "name": "G4",
                    "midi": 67,
                    "time": 288.00000000000006,
                    "velocity": 0.5748031496062992,
                    "duration": 0.1875
                },
                {
                    "name": "C5",
                    "midi": 72,
                    "time": 288.18750000000006,
                    "velocity": 0.5826771653543307,
                    "duration": 0.1875
                },
                {
                    "name": "F4",
                    "midi": 65,
                    "time": 288.37500000000006,
                    "velocity": 0.6456692913385826,
                    "duration": 0.5625
                },
                {
                    "name": "A4",
                    "midi": 69,
                    "time": 288.56250000000006,
                    "velocity": 0.5748031496062992,
                    "duration": 0.1875
                },
                {
                    "name": "C5",
                    "midi": 72,
                    "time": 288.75000000000006,
                    "velocity": 0.5748031496062992,
                    "duration": 0.1875
                },
                {
                    "name": "F3",
                    "midi": 53,
                    "time": 288.93750000000006,
                    "velocity": 0.31496062992125984,
                    "duration": 0.5625
                },
                {
                    "name": "B3",
                    "midi": 59,
                    "time": 289.12500000000006,
                    "velocity": 0.23622047244094488,
                    "duration": 0.17812500000002274
                },
                {
                    "name": "D4",
                    "midi": 62,
                    "time": 289.12500000000006,
                    "velocity": 0.23622047244094488,
                    "duration": 0.17812500000002274
                },
                {
                    "name": "G4",
                    "midi": 67,
                    "time": 289.12500000000006,
                    "velocity": 0.28346456692913385,
                    "duration": 0.17812500000002274
                },
                {
                    "name": "B3",
                    "midi": 59,
                    "time": 289.31250000000006,
                    "velocity": 0.23622047244094488,
                    "duration": 0.17812500000002274
                },
                {
                    "name": "D4",
                    "midi": 62,
                    "time": 289.31250000000006,
                    "velocity": 0.23622047244094488,
                    "duration": 0.17812500000002274
                },
                {
                    "name": "G4",
                    "midi": 67,
                    "time": 289.31250000000006,
                    "velocity": 0.28346456692913385,
                    "duration": 0.17812500000002274
                },
                {
                    "name": "F3",
                    "midi": 53,
                    "time": 289.50000000000006,
                    "velocity": 0.31496062992125984,
                    "duration": 0.5625
                },
                {
                    "name": "A#3",
                    "midi": 58,
                    "time": 289.68750000000006,
                    "velocity": 0.23622047244094488,
                    "duration": 0.17812500000002274
                },
                {
                    "name": "C#4",
                    "midi": 61,
                    "time": 289.68750000000006,
                    "velocity": 0.23622047244094488,
                    "duration": 0.17812500000002274
                },
                {
                    "name": "G4",
                    "midi": 67,
                    "time": 289.68750000000006,
                    "velocity": 0.28346456692913385,
                    "duration": 0.17812500000002274
                },
                {
                    "name": "A#3",
                    "midi": 58,
                    "time": 289.87500000000006,
                    "velocity": 0.23622047244094488,
                    "duration": 0.17812500000002274
                },
                {
                    "name": "C#4",
                    "midi": 61,
                    "time": 289.87500000000006,
                    "velocity": 0.23622047244094488,
                    "duration": 0.17812500000002274
                },
                {
                    "name": "G4",
                    "midi": 67,
                    "time": 289.87500000000006,
                    "velocity": 0.28346456692913385,
                    "duration": 0.17812500000002274
                },
                {
                    "name": "F3",
                    "midi": 53,
                    "time": 290.06250000000006,
                    "velocity": 0.31496062992125984,
                    "duration": 0.5625
                },
                {
                    "name": "A#3",
                    "midi": 58,
                    "time": 290.25000000000006,
                    "velocity": 0.23622047244094488,
                    "duration": 0.17812500000002274
                },
                {
                    "name": "C4",
                    "midi": 60,
                    "time": 290.25000000000006,
                    "velocity": 0.23622047244094488,
                    "duration": 0.17812500000002274
                },
                {
                    "name": "E4",
                    "midi": 64,
                    "time": 290.25000000000006,
                    "velocity": 0.28346456692913385,
                    "duration": 0.17812500000002274
                },
                {
                    "name": "A#3",
                    "midi": 58,
                    "time": 290.43750000000006,
                    "velocity": 0.23622047244094488,
                    "duration": 0.17812500000002274
                },
                {
                    "name": "C4",
                    "midi": 60,
                    "time": 290.43750000000006,
                    "velocity": 0.23622047244094488,
                    "duration": 0.17812500000002274
                },
                {
                    "name": "E4",
                    "midi": 64,
                    "time": 290.43750000000006,
                    "velocity": 0.28346456692913385,
                    "duration": 0.17812500000002274
                },
                {
                    "name": "F3",
                    "midi": 53,
                    "time": 290.62500000000006,
                    "velocity": 0.31496062992125984,
                    "duration": 0.5625
                },
                {
                    "name": "A3",
                    "midi": 57,
                    "time": 290.81250000000006,
                    "velocity": 0.23622047244094488,
                    "duration": 0.17812500000002274
                },
                {
                    "name": "C4",
                    "midi": 60,
                    "time": 290.81250000000006,
                    "velocity": 0.23622047244094488,
                    "duration": 0.17812500000002274
                },
                {
                    "name": "F4",
                    "midi": 65,
                    "time": 290.81250000000006,
                    "velocity": 0.28346456692913385,
                    "duration": 0.17812500000002274
                },
                {
                    "name": "A3",
                    "midi": 57,
                    "time": 291.00000000000006,
                    "velocity": 0.23622047244094488,
                    "duration": 0.17812500000002274
                },
                {
                    "name": "C4",
                    "midi": 60,
                    "time": 291.00000000000006,
                    "velocity": 0.23622047244094488,
                    "duration": 0.17812500000002274
                },
                {
                    "name": "F4",
                    "midi": 65,
                    "time": 291.00000000000006,
                    "velocity": 0.28346456692913385,
                    "duration": 0.17812500000002274
                },
                {
                    "name": "F3",
                    "midi": 53,
                    "time": 291.18750000000006,
                    "velocity": 0.31496062992125984,
                    "duration": 0.5625
                },
                {
                    "name": "B3",
                    "midi": 59,
                    "time": 291.37500000000006,
                    "velocity": 0.23622047244094488,
                    "duration": 0.17812500000002274
                },
                {
                    "name": "D4",
                    "midi": 62,
                    "time": 291.37500000000006,
                    "velocity": 0.23622047244094488,
                    "duration": 0.17812500000002274
                },
                {
                    "name": "G4",
                    "midi": 67,
                    "time": 291.37500000000006,
                    "velocity": 0.28346456692913385,
                    "duration": 0.17812500000002274
                },
                {
                    "name": "B3",
                    "midi": 59,
                    "time": 291.56250000000006,
                    "velocity": 0.23622047244094488,
                    "duration": 0.17812500000002274
                },
                {
                    "name": "D4",
                    "midi": 62,
                    "time": 291.56250000000006,
                    "velocity": 0.23622047244094488,
                    "duration": 0.17812500000002274
                },
                {
                    "name": "G4",
                    "midi": 67,
                    "time": 291.56250000000006,
                    "velocity": 0.28346456692913385,
                    "duration": 0.17812500000002274
                },
                {
                    "name": "F3",
                    "midi": 53,
                    "time": 291.75000000000006,
                    "velocity": 0.31496062992125984,
                    "duration": 0.5625
                },
                {
                    "name": "A#3",
                    "midi": 58,
                    "time": 291.93750000000006,
                    "velocity": 0.23622047244094488,
                    "duration": 0.17812500000002274
                },
                {
                    "name": "C#4",
                    "midi": 61,
                    "time": 291.93750000000006,
                    "velocity": 0.23622047244094488,
                    "duration": 0.17812500000002274
                },
                {
                    "name": "G4",
                    "midi": 67,
                    "time": 291.93750000000006,
                    "velocity": 0.28346456692913385,
                    "duration": 0.17812500000002274
                },
                {
                    "name": "A#3",
                    "midi": 58,
                    "time": 292.12500000000006,
                    "velocity": 0.23622047244094488,
                    "duration": 0.17812500000002274
                },
                {
                    "name": "C#4",
                    "midi": 61,
                    "time": 292.12500000000006,
                    "velocity": 0.23622047244094488,
                    "duration": 0.17812500000002274
                },
                {
                    "name": "G4",
                    "midi": 67,
                    "time": 292.12500000000006,
                    "velocity": 0.28346456692913385,
                    "duration": 0.17812500000002274
                },
                {
                    "name": "F3",
                    "midi": 53,
                    "time": 292.31250000000006,
                    "velocity": 0.31496062992125984,
                    "duration": 0.5625
                },
                {
                    "name": "A#3",
                    "midi": 58,
                    "time": 292.50000000000006,
                    "velocity": 0.23622047244094488,
                    "duration": 0.17812500000002274
                },
                {
                    "name": "C4",
                    "midi": 60,
                    "time": 292.50000000000006,
                    "velocity": 0.23622047244094488,
                    "duration": 0.17812500000002274
                },
                {
                    "name": "E4",
                    "midi": 64,
                    "time": 292.50000000000006,
                    "velocity": 0.28346456692913385,
                    "duration": 0.17812500000002274
                },
                {
                    "name": "A#3",
                    "midi": 58,
                    "time": 292.68750000000006,
                    "velocity": 0.23622047244094488,
                    "duration": 0.17812500000002274
                },
                {
                    "name": "C4",
                    "midi": 60,
                    "time": 292.68750000000006,
                    "velocity": 0.23622047244094488,
                    "duration": 0.17812500000002274
                },
                {
                    "name": "E4",
                    "midi": 64,
                    "time": 292.68750000000006,
                    "velocity": 0.28346456692913385,
                    "duration": 0.17812500000002274
                },
                {
                    "name": "F3",
                    "midi": 53,
                    "time": 292.87500000000006,
                    "velocity": 0.31496062992125984,
                    "duration": 0.5625
                },
                {
                    "name": "A3",
                    "midi": 57,
                    "time": 293.06250000000006,
                    "velocity": 0.23622047244094488,
                    "duration": 0.17812500000002274
                },
                {
                    "name": "C4",
                    "midi": 60,
                    "time": 293.06250000000006,
                    "velocity": 0.23622047244094488,
                    "duration": 0.17812500000002274
                },
                {
                    "name": "F4",
                    "midi": 65,
                    "time": 293.06250000000006,
                    "velocity": 0.28346456692913385,
                    "duration": 0.17812500000002274
                },
                {
                    "name": "A3",
                    "midi": 57,
                    "time": 293.25000000000006,
                    "velocity": 0.23622047244094488,
                    "duration": 0.17812500000002274
                },
                {
                    "name": "C4",
                    "midi": 60,
                    "time": 293.25000000000006,
                    "velocity": 0.23622047244094488,
                    "duration": 0.17812500000002274
                },
                {
                    "name": "F4",
                    "midi": 65,
                    "time": 293.25000000000006,
                    "velocity": 0.28346456692913385,
                    "duration": 0.17812500000002274
                },
                {
                    "name": "F3",
                    "midi": 53,
                    "time": 293.43750000000006,
                    "velocity": 0.3543307086614173,
                    "duration": 0.5625
                },
                {
                    "name": "D4",
                    "midi": 62,
                    "time": 293.62500000000006,
                    "velocity": 0.31496062992125984,
                    "duration": 0.1875
                },
                {
                    "name": "B3",
                    "midi": 59,
                    "time": 293.62500000000006,
                    "velocity": 0.31496062992125984,
                    "duration": 0.375
                },
                {
                    "name": "G4",
                    "midi": 67,
                    "time": 293.81250000000006,
                    "velocity": 0.31496062992125984,
                    "duration": 0.1875
                },
                {
                    "name": "F3",
                    "midi": 53,
                    "time": 294.00000000000006,
                    "velocity": 0.3700787401574803,
                    "duration": 0.5625
                },
                {
                    "name": "C#4",
                    "midi": 61,
                    "time": 294.18750000000006,
                    "velocity": 0.31496062992125984,
                    "duration": 0.1875
                },
                {
                    "name": "A#3",
                    "midi": 58,
                    "time": 294.18750000000006,
                    "velocity": 0.31496062992125984,
                    "duration": 0.375
                },
                {
                    "name": "G4",
                    "midi": 67,
                    "time": 294.37500000000006,
                    "velocity": 0.31496062992125984,
                    "duration": 0.1875
                },
                {
                    "name": "F3",
                    "midi": 53,
                    "time": 294.56250000000006,
                    "velocity": 0.36220472440944884,
                    "duration": 0.5625
                },
                {
                    "name": "C4",
                    "midi": 60,
                    "time": 294.75000000000006,
                    "velocity": 0.31496062992125984,
                    "duration": 0.1875
                },
                {
                    "name": "A#3",
                    "midi": 58,
                    "time": 294.75000000000006,
                    "velocity": 0.31496062992125984,
                    "duration": 0.375
                },
                {
                    "name": "E4",
                    "midi": 64,
                    "time": 294.93750000000006,
                    "velocity": 0.31496062992125984,
                    "duration": 0.1875
                },
                {
                    "name": "F3",
                    "midi": 53,
                    "time": 295.12500000000006,
                    "velocity": 0.3700787401574803,
                    "duration": 0.5625
                },
                {
                    "name": "C4",
                    "midi": 60,
                    "time": 295.31250000000006,
                    "velocity": 0.31496062992125984,
                    "duration": 0.1875
                },
                {
                    "name": "A3",
                    "midi": 57,
                    "time": 295.31250000000006,
                    "velocity": 0.31496062992125984,
                    "duration": 0.375
                },
                {
                    "name": "F4",
                    "midi": 65,
                    "time": 295.50000000000006,
                    "velocity": 0.31496062992125984,
                    "duration": 0.1875
                },
                {
                    "name": "F3",
                    "midi": 53,
                    "time": 295.68750000000006,
                    "velocity": 0.3543307086614173,
                    "duration": 0.5625
                },
                {
                    "name": "D4",
                    "midi": 62,
                    "time": 295.87500000000006,
                    "velocity": 0.30708661417322836,
                    "duration": 0.1875
                },
                {
                    "name": "B3",
                    "midi": 59,
                    "time": 295.87500000000006,
                    "velocity": 0.30708661417322836,
                    "duration": 0.375
                },
                {
                    "name": "G4",
                    "midi": 67,
                    "time": 296.06250000000006,
                    "velocity": 0.2992125984251969,
                    "duration": 0.1875
                },
                {
                    "name": "F3",
                    "midi": 53,
                    "time": 296.25000000000006,
                    "velocity": 0.3464566929133858,
                    "duration": 0.5625
                },
                {
                    "name": "C#4",
                    "midi": 61,
                    "time": 296.43750000000006,
                    "velocity": 0.29133858267716534,
                    "duration": 0.1875
                },
                {
                    "name": "A#3",
                    "midi": 58,
                    "time": 296.43750000000006,
                    "velocity": 0.29133858267716534,
                    "duration": 0.375
                },
                {
                    "name": "G4",
                    "midi": 67,
                    "time": 296.62500000000006,
                    "velocity": 0.28346456692913385,
                    "duration": 0.1875
                },
                {
                    "name": "F3",
                    "midi": 53,
                    "time": 296.81250000000006,
                    "velocity": 0.3228346456692913,
                    "duration": 0.5625000000000568
                },
                {
                    "name": "C4",
                    "midi": 60,
                    "time": 297.0000000000001,
                    "velocity": 0.2755905511811024,
                    "duration": 0.1875
                },
                {
                    "name": "A#3",
                    "midi": 58,
                    "time": 297.0000000000001,
                    "velocity": 0.2755905511811024,
                    "duration": 0.375
                },
                {
                    "name": "E4",
                    "midi": 64,
                    "time": 297.1875000000001,
                    "velocity": 0.2677165354330709,
                    "duration": 0.1875
                },
                {
                    "name": "F3",
                    "midi": 53,
                    "time": 297.3750000000001,
                    "velocity": 0.30708661417322836,
                    "duration": 0.5625
                },
                {
                    "name": "C4",
                    "midi": 60,
                    "time": 297.5625000000001,
                    "velocity": 0.25984251968503935,
                    "duration": 0.1875
                },
                {
                    "name": "A3",
                    "midi": 57,
                    "time": 297.5625000000001,
                    "velocity": 0.25984251968503935,
                    "duration": 0.375
                },
                {
                    "name": "F4",
                    "midi": 65,
                    "time": 297.7500000000001,
                    "velocity": 0.25196850393700787,
                    "duration": 0.1875
                },
                {
                    "name": "F2",
                    "midi": 41,
                    "time": 297.9375000000001,
                    "velocity": 0.28346456692913385,
                    "duration": 0.5625000000000568
                },
                {
                    "name": "D3",
                    "midi": 50,
                    "time": 298.12500000000017,
                    "velocity": 0.25196850393700787,
                    "duration": 0.1875
                },
                {
                    "name": "B2",
                    "midi": 47,
                    "time": 298.12500000000017,
                    "velocity": 0.25196850393700787,
                    "duration": 0.375
                },
                {
                    "name": "G3",
                    "midi": 55,
                    "time": 298.31250000000017,
                    "velocity": 0.25196850393700787,
                    "duration": 0.1875
                },
                {
                    "name": "F2",
                    "midi": 41,
                    "time": 298.50000000000017,
                    "velocity": 0.29133858267716534,
                    "duration": 0.5625
                },
                {
                    "name": "C#3",
                    "midi": 49,
                    "time": 298.68750000000017,
                    "velocity": 0.25196850393700787,
                    "duration": 0.1875
                },
                {
                    "name": "A#2",
                    "midi": 46,
                    "time": 298.68750000000017,
                    "velocity": 0.25196850393700787,
                    "duration": 0.375
                },
                {
                    "name": "G3",
                    "midi": 55,
                    "time": 298.87500000000017,
                    "velocity": 0.25196850393700787,
                    "duration": 0.1875
                },
                {
                    "name": "F2",
                    "midi": 41,
                    "time": 299.06250000000017,
                    "velocity": 0.28346456692913385,
                    "duration": 0.5625
                },
                {
                    "name": "C3",
                    "midi": 48,
                    "time": 299.25000000000017,
                    "velocity": 0.25196850393700787,
                    "duration": 0.1875
                },
                {
                    "name": "A#2",
                    "midi": 46,
                    "time": 299.25000000000017,
                    "velocity": 0.25196850393700787,
                    "duration": 0.375
                },
                {
                    "name": "E3",
                    "midi": 52,
                    "time": 299.43750000000017,
                    "velocity": 0.25196850393700787,
                    "duration": 0.1875
                },
                {
                    "name": "F2",
                    "midi": 41,
                    "time": 299.62500000000017,
                    "velocity": 0.29133858267716534,
                    "duration": 0.5625
                },
                {
                    "name": "C3",
                    "midi": 48,
                    "time": 299.81250000000017,
                    "velocity": 0.25196850393700787,
                    "duration": 0.1875
                },
                {
                    "name": "A2",
                    "midi": 45,
                    "time": 299.81250000000017,
                    "velocity": 0.25196850393700787,
                    "duration": 0.375
                },
                {
                    "name": "F3",
                    "midi": 53,
                    "time": 300.00000000000017,
                    "velocity": 0.25196850393700787,
                    "duration": 0.1875
                },
                {
                    "name": "F1",
                    "midi": 29,
                    "time": 300.18750000000017,
                    "velocity": 0.23622047244094488,
                    "duration": 0.5625
                },
                {
                    "name": "D2",
                    "midi": 38,
                    "time": 300.37500000000017,
                    "velocity": 0.2125984251968504,
                    "duration": 0.1875
                },
                {
                    "name": "G2",
                    "midi": 43,
                    "time": 300.56250000000017,
                    "velocity": 0.2047244094488189,
                    "duration": 0.1875
                },
                {
                    "name": "F1",
                    "midi": 29,
                    "time": 300.75000000000017,
                    "velocity": 0.23622047244094488,
                    "duration": 0.5625
                },
                {
                    "name": "C#2",
                    "midi": 37,
                    "time": 300.93750000000017,
                    "velocity": 0.2047244094488189,
                    "duration": 0.1875
                },
                {
                    "name": "G2",
                    "midi": 43,
                    "time": 301.12500000000017,
                    "velocity": 0.1968503937007874,
                    "duration": 0.1875
                },
                {
                    "name": "F1",
                    "midi": 29,
                    "time": 301.31250000000017,
                    "velocity": 0.2204724409448819,
                    "duration": 0.5625
                },
                {
                    "name": "C2",
                    "midi": 36,
                    "time": 301.50000000000017,
                    "velocity": 0.1968503937007874,
                    "duration": 0.1875
                },
                {
                    "name": "E2",
                    "midi": 40,
                    "time": 301.68750000000017,
                    "velocity": 0.1968503937007874,
                    "duration": 0.1875
                },
                {
                    "name": "F1",
                    "midi": 29,
                    "time": 301.87500000000017,
                    "velocity": 0.2204724409448819,
                    "duration": 0.5625
                },
                {
                    "name": "C2",
                    "midi": 36,
                    "time": 302.06250000000017,
                    "velocity": 0.23622047244094488,
                    "duration": 0.375
                },
                {
                    "name": "F1",
                    "midi": 29,
                    "time": 302.43750000000017,
                    "velocity": 0.2125984251968504,
                    "duration": 0.5625
                },
                {
                    "name": "C2",
                    "midi": 36,
                    "time": 302.62500000000017,
                    "velocity": 0.2283464566929134,
                    "duration": 0.375
                },
                {
                    "name": "F1",
                    "midi": 29,
                    "time": 303.00000000000017,
                    "velocity": 0.2125984251968504,
                    "duration": 0.5625
                },
                {
                    "name": "C#2",
                    "midi": 37,
                    "time": 303.18750000000017,
                    "velocity": 0.2283464566929134,
                    "duration": 0.375
                },
                {
                    "name": "F1",
                    "midi": 29,
                    "time": 303.56250000000017,
                    "velocity": 0.1968503937007874,
                    "duration": 0.5625
                },
                {
                    "name": "C2",
                    "midi": 36,
                    "time": 303.75000000000017,
                    "velocity": 0.2125984251968504,
                    "duration": 0.375
                },
                {
                    "name": "F1",
                    "midi": 29,
                    "time": 304.12500000000017,
                    "velocity": 0.2047244094488189,
                    "duration": 0.5625
                },
                {
                    "name": "C#2",
                    "midi": 37,
                    "time": 304.31250000000017,
                    "velocity": 0.2204724409448819,
                    "duration": 0.375
                },
                {
                    "name": "F1",
                    "midi": 29,
                    "time": 304.68750000000017,
                    "velocity": 0.1968503937007874,
                    "duration": 0.5625
                },
                {
                    "name": "C2",
                    "midi": 36,
                    "time": 304.87500000000017,
                    "velocity": 0.2283464566929134,
                    "duration": 0.375
                },
                {
                    "name": "F1",
                    "midi": 29,
                    "time": 305.25000000000017,
                    "velocity": 0.2047244094488189,
                    "duration": 0.75
                },
                {
                    "name": "C#2",
                    "midi": 37,
                    "time": 305.43750000000017,
                    "velocity": 0.2204724409448819,
                    "duration": 0.375
                },
                {
                    "name": "C2",
                    "midi": 36,
                    "time": 305.81250000000017,
                    "velocity": 0.1889763779527559,
                    "duration": 0.1875
                },
                {
                    "name": "C3",
                    "midi": 48,
                    "time": 306.37500000000017,
                    "velocity": 0.1732283464566929,
                    "duration": 0.09375
                },
                {
                    "name": "A#3",
                    "midi": 58,
                    "time": 306.37500000000017,
                    "velocity": 0.2047244094488189,
                    "duration": 0.09375
                },
                {
                    "name": "F2",
                    "midi": 41,
                    "time": 306.93750000000017,
                    "velocity": 0.1732283464566929,
                    "duration": 0.09375
                },
                {
                    "name": "C3",
                    "midi": 48,
                    "time": 306.93750000000017,
                    "velocity": 0.2047244094488189,
                    "duration": 0.09375
                }
            ],
            "controlChanges": {
                "7": [
                    {
                        "number": 7,
                        "time": 0,
                        "value": 0.7874015748031497
                    }
                ],
                "10": [
                    {
                        "number": 10,
                        "time": 0,
                        "value": 0.5039370078740157
                    }
                ],
                "64": [
                    {
                        "number": 64,
                        "time": 1.125,
                        "value": 1
                    },
                    {
                        "number": 64,
                        "time": 2.25390625,
                        "value": 0
                    },
                    {
                        "number": 64,
                        "time": 2.3484375,
                        "value": 1
                    },
                    {
                        "number": 64,
                        "time": 3.0078125,
                        "value": 0
                    },
                    {
                        "number": 64,
                        "time": 3.0890625,
                        "value": 1
                    },
                    {
                        "number": 64,
                        "time": 3.3773437499999996,
                        "value": 0
                    },
                    {
                        "number": 64,
                        "time": 3.4851562499999997,
                        "value": 1
                    },
                    {
                        "number": 64,
                        "time": 4.5,
                        "value": 0
                    },
                    {
                        "number": 64,
                        "time": 4.59921875,
                        "value": 1
                    },
                    {
                        "number": 64,
                        "time": 5.257812500000001,
                        "value": 0
                    },
                    {
                        "number": 64,
                        "time": 5.312500000000001,
                        "value": 1
                    },
                    {
                        "number": 64,
                        "time": 5.632812500000001,
                        "value": 0
                    },
                    {
                        "number": 64,
                        "time": 5.6937500000000005,
                        "value": 1
                    },
                    {
                        "number": 64,
                        "time": 6.750000000000001,
                        "value": 0
                    },
                    {
                        "number": 64,
                        "time": 6.848437500000001,
                        "value": 1
                    },
                    {
                        "number": 64,
                        "time": 7.507031250000002,
                        "value": 0
                    },
                    {
                        "number": 64,
                        "time": 7.589062500000002,
                        "value": 1
                    },
                    {
                        "number": 64,
                        "time": 7.878906250000002,
                        "value": 0
                    },
                    {
                        "number": 64,
                        "time": 7.985156250000002,
                        "value": 1
                    },
                    {
                        "number": 64,
                        "time": 9.005468750000002,
                        "value": 0
                    },
                    {
                        "number": 64,
                        "time": 9.099218750000002,
                        "value": 1
                    },
                    {
                        "number": 64,
                        "time": 10.132031250000002,
                        "value": 0
                    },
                    {
                        "number": 64,
                        "time": 10.223437500000003,
                        "value": 1
                    },
                    {
                        "number": 64,
                        "time": 11.255468750000004,
                        "value": 0
                    },
                    {
                        "number": 64,
                        "time": 11.348437500000005,
                        "value": 1
                    },
                    {
                        "number": 64,
                        "time": 12.007812500000005,
                        "value": 0
                    },
                    {
                        "number": 64,
                        "time": 12.089062500000006,
                        "value": 1
                    },
                    {
                        "number": 64,
                        "time": 12.381250000000007,
                        "value": 0
                    },
                    {
                        "number": 64,
                        "time": 12.485156250000006,
                        "value": 1
                    },
                    {
                        "number": 64,
                        "time": 13.500000000000007,
                        "value": 0
                    },
                    {
                        "number": 64,
                        "time": 13.599218750000007,
                        "value": 1
                    },
                    {
                        "number": 64,
                        "time": 14.258593750000006,
                        "value": 0
                    },
                    {
                        "number": 64,
                        "time": 14.321093750000006,
                        "value": 1
                    },
                    {
                        "number": 64,
                        "time": 14.632812500000007,
                        "value": 0
                    },
                    {
                        "number": 64,
                        "time": 14.693750000000007,
                        "value": 1
                    },
                    {
                        "number": 64,
                        "time": 15.750000000000007,
                        "value": 0
                    },
                    {
                        "number": 64,
                        "time": 15.848437500000006,
                        "value": 1
                    },
                    {
                        "number": 64,
                        "time": 16.508593750000006,
                        "value": 0
                    },
                    {
                        "number": 64,
                        "time": 16.589062500000008,
                        "value": 1
                    },
                    {
                        "number": 64,
                        "time": 16.882812500000007,
                        "value": 0
                    },
                    {
                        "number": 64,
                        "time": 16.985156250000006,
                        "value": 1
                    },
                    {
                        "number": 64,
                        "time": 18.008593750000003,
                        "value": 0
                    },
                    {
                        "number": 64,
                        "time": 18.099218750000002,
                        "value": 1
                    },
                    {
                        "number": 64,
                        "time": 18.7578125,
                        "value": 0
                    },
                    {
                        "number": 64,
                        "time": 18.8390625,
                        "value": 1
                    },
                    {
                        "number": 64,
                        "time": 19.125,
                        "value": 0
                    },
                    {
                        "number": 64,
                        "time": 19.23515625,
                        "value": 1
                    },
                    {
                        "number": 64,
                        "time": 20.257812499999996,
                        "value": 0
                    },
                    {
                        "number": 64,
                        "time": 20.349218749999995,
                        "value": 1
                    },
                    {
                        "number": 64,
                        "time": 21.007812499999993,
                        "value": 0
                    },
                    {
                        "number": 64,
                        "time": 21.089062499999994,
                        "value": 1
                    },
                    {
                        "number": 64,
                        "time": 21.382031249999994,
                        "value": 0
                    },
                    {
                        "number": 64,
                        "time": 21.485156249999992,
                        "value": 1
                    },
                    {
                        "number": 64,
                        "time": 22.50234374999999,
                        "value": 0
                    },
                    {
                        "number": 64,
                        "time": 22.59921874999999,
                        "value": 1
                    },
                    {
                        "number": 64,
                        "time": 23.26015624999999,
                        "value": 0
                    },
                    {
                        "number": 64,
                        "time": 23.33906249999999,
                        "value": 1
                    },
                    {
                        "number": 64,
                        "time": 23.630468749999988,
                        "value": 0
                    },
                    {
                        "number": 64,
                        "time": 23.73515624999999,
                        "value": 1
                    },
                    {
                        "number": 64,
                        "time": 24.753906249999986,
                        "value": 0
                    },
                    {
                        "number": 64,
                        "time": 24.849218749999984,
                        "value": 1
                    },
                    {
                        "number": 64,
                        "time": 25.50859374999998,
                        "value": 0
                    },
                    {
                        "number": 64,
                        "time": 25.589062499999983,
                        "value": 1
                    },
                    {
                        "number": 64,
                        "time": 25.877343749999984,
                        "value": 0
                    },
                    {
                        "number": 64,
                        "time": 25.985156249999985,
                        "value": 1
                    },
                    {
                        "number": 64,
                        "time": 27.006249999999984,
                        "value": 0
                    },
                    {
                        "number": 64,
                        "time": 27.099218749999984,
                        "value": 1
                    },
                    {
                        "number": 64,
                        "time": 27.757812499999982,
                        "value": 0
                    },
                    {
                        "number": 64,
                        "time": 27.839062499999983,
                        "value": 1
                    },
                    {
                        "number": 64,
                        "time": 28.132031249999983,
                        "value": 0
                    },
                    {
                        "number": 64,
                        "time": 28.23515624999998,
                        "value": 1
                    },
                    {
                        "number": 64,
                        "time": 29.25624999999998,
                        "value": 0
                    },
                    {
                        "number": 64,
                        "time": 29.34921874999998,
                        "value": 1
                    },
                    {
                        "number": 64,
                        "time": 30.00781249999998,
                        "value": 0
                    },
                    {
                        "number": 64,
                        "time": 30.08906249999998,
                        "value": 1
                    },
                    {
                        "number": 64,
                        "time": 30.37499999999998,
                        "value": 0
                    },
                    {
                        "number": 64,
                        "time": 30.485156249999978,
                        "value": 1
                    },
                    {
                        "number": 64,
                        "time": 31.507031249999976,
                        "value": 0
                    },
                    {
                        "number": 64,
                        "time": 31.599218749999977,
                        "value": 1
                    },
                    {
                        "number": 64,
                        "time": 32.258593749999974,
                        "value": 0
                    },
                    {
                        "number": 64,
                        "time": 32.339062499999976,
                        "value": 1
                    },
                    {
                        "number": 64,
                        "time": 32.62499999999997,
                        "value": 0
                    },
                    {
                        "number": 64,
                        "time": 32.735156249999974,
                        "value": 1
                    },
                    {
                        "number": 64,
                        "time": 33.75624999999997,
                        "value": 0
                    },
                    {
                        "number": 64,
                        "time": 33.84921874999997,
                        "value": 1
                    },
                    {
                        "number": 64,
                        "time": 34.50781249999997,
                        "value": 0
                    },
                    {
                        "number": 64,
                        "time": 34.58906249999997,
                        "value": 1
                    },
                    {
                        "number": 64,
                        "time": 34.874999999999964,
                        "value": 0
                    },
                    {
                        "number": 64,
                        "time": 34.98515624999997,
                        "value": 1
                    },
                    {
                        "number": 64,
                        "time": 36.00546874999996,
                        "value": 0
                    },
                    {
                        "number": 64,
                        "time": 36.09921874999996,
                        "value": 1
                    },
                    {
                        "number": 64,
                        "time": 36.628906249999964,
                        "value": 0
                    },
                    {
                        "number": 64,
                        "time": 39.44687499999996,
                        "value": 1
                    },
                    {
                        "number": 64,
                        "time": 40.19687499999996,
                        "value": 0
                    },
                    {
                        "number": 64,
                        "time": 41.718749999999964,
                        "value": 1
                    },
                    {
                        "number": 64,
                        "time": 42.392968749999966,
                        "value": 0
                    },
                    {
                        "number": 64,
                        "time": 46.32109374999997,
                        "value": 1
                    },
                    {
                        "number": 64,
                        "time": 46.877343749999966,
                        "value": 0
                    },
                    {
                        "number": 64,
                        "time": 47.29999999999996,
                        "value": 1
                    },
                    {
                        "number": 64,
                        "time": 47.632812499999964,
                        "value": 0
                    },
                    {
                        "number": 64,
                        "time": 47.69687499999996,
                        "value": 1
                    },
                    {
                        "number": 64,
                        "time": 48.007812499999964,
                        "value": 0
                    },
                    {
                        "number": 64,
                        "time": 48.060937499999966,
                        "value": 1
                    },
                    {
                        "number": 64,
                        "time": 48.38046874999996,
                        "value": 0
                    },
                    {
                        "number": 64,
                        "time": 48.402343749999964,
                        "value": 1
                    },
                    {
                        "number": 64,
                        "time": 49.13203124999996,
                        "value": 0
                    },
                    {
                        "number": 64,
                        "time": 49.15781249999996,
                        "value": 1
                    },
                    {
                        "number": 64,
                        "time": 49.507812499999964,
                        "value": 0
                    },
                    {
                        "number": 64,
                        "time": 49.558593749999964,
                        "value": 1
                    },
                    {
                        "number": 64,
                        "time": 51.749999999999964,
                        "value": 0
                    },
                    {
                        "number": 64,
                        "time": 51.82109374999997,
                        "value": 1
                    },
                    {
                        "number": 64,
                        "time": 52.507812499999964,
                        "value": 0
                    },
                    {
                        "number": 64,
                        "time": 52.562499999999964,
                        "value": 1
                    },
                    {
                        "number": 64,
                        "time": 52.87968749999997,
                        "value": 0
                    },
                    {
                        "number": 64,
                        "time": 52.924218749999966,
                        "value": 1
                    },
                    {
                        "number": 64,
                        "time": 53.632812499999964,
                        "value": 0
                    },
                    {
                        "number": 64,
                        "time": 53.65156249999996,
                        "value": 1
                    },
                    {
                        "number": 64,
                        "time": 54.00703124999996,
                        "value": 0
                    },
                    {
                        "number": 64,
                        "time": 54.062499999999964,
                        "value": 1
                    },
                    {
                        "number": 64,
                        "time": 54.382812499999964,
                        "value": 0
                    },
                    {
                        "number": 64,
                        "time": 54.43281249999996,
                        "value": 1
                    },
                    {
                        "number": 64,
                        "time": 54.75703124999996,
                        "value": 0
                    },
                    {
                        "number": 64,
                        "time": 54.781249999999964,
                        "value": 1
                    },
                    {
                        "number": 64,
                        "time": 55.12812499999996,
                        "value": 0
                    },
                    {
                        "number": 64,
                        "time": 55.171874999999964,
                        "value": 1
                    },
                    {
                        "number": 64,
                        "time": 55.50703124999996,
                        "value": 0
                    },
                    {
                        "number": 64,
                        "time": 55.566406249999964,
                        "value": 1
                    },
                    {
                        "number": 64,
                        "time": 55.882812499999964,
                        "value": 0
                    },
                    {
                        "number": 64,
                        "time": 56.089843749999964,
                        "value": 1
                    },
                    {
                        "number": 64,
                        "time": 56.25468749999997,
                        "value": 0
                    },
                    {
                        "number": 64,
                        "time": 56.299218749999966,
                        "value": 1
                    },
                    {
                        "number": 64,
                        "time": 56.445312499999964,
                        "value": 0
                    },
                    {
                        "number": 64,
                        "time": 56.48203124999996,
                        "value": 1
                    },
                    {
                        "number": 64,
                        "time": 56.62968749999997,
                        "value": 0
                    },
                    {
                        "number": 64,
                        "time": 56.683593749999964,
                        "value": 1
                    },
                    {
                        "number": 64,
                        "time": 56.820312499999964,
                        "value": 0
                    },
                    {
                        "number": 64,
                        "time": 56.86640624999996,
                        "value": 1
                    },
                    {
                        "number": 64,
                        "time": 57.007812499999964,
                        "value": 0
                    },
                    {
                        "number": 64,
                        "time": 57.04453124999996,
                        "value": 1
                    },
                    {
                        "number": 64,
                        "time": 57.20078124999996,
                        "value": 0
                    },
                    {
                        "number": 64,
                        "time": 57.22734374999996,
                        "value": 1
                    },
                    {
                        "number": 64,
                        "time": 57.38124999999996,
                        "value": 0
                    },
                    {
                        "number": 64,
                        "time": 57.43749999999996,
                        "value": 1
                    },
                    {
                        "number": 64,
                        "time": 57.56718749999996,
                        "value": 0
                    },
                    {
                        "number": 64,
                        "time": 57.61171874999996,
                        "value": 1
                    },
                    {
                        "number": 64,
                        "time": 58.13281249999996,
                        "value": 0
                    },
                    {
                        "number": 64,
                        "time": 58.196874999999956,
                        "value": 1
                    },
                    {
                        "number": 64,
                        "time": 58.49999999999996,
                        "value": 0
                    },
                    {
                        "number": 64,
                        "time": 58.72734374999996,
                        "value": 1
                    },
                    {
                        "number": 64,
                        "time": 58.88281249999996,
                        "value": 0
                    },
                    {
                        "number": 64,
                        "time": 58.92421874999996,
                        "value": 1
                    },
                    {
                        "number": 64,
                        "time": 59.07031249999996,
                        "value": 0
                    },
                    {
                        "number": 64,
                        "time": 59.103124999999956,
                        "value": 1
                    },
                    {
                        "number": 64,
                        "time": 59.25781249999996,
                        "value": 0
                    },
                    {
                        "number": 64,
                        "time": 59.307812499999955,
                        "value": 1
                    },
                    {
                        "number": 64,
                        "time": 59.44609374999996,
                        "value": 0
                    },
                    {
                        "number": 64,
                        "time": 59.48671874999996,
                        "value": 1
                    },
                    {
                        "number": 64,
                        "time": 59.632031249999955,
                        "value": 0
                    },
                    {
                        "number": 64,
                        "time": 59.66484374999995,
                        "value": 1
                    },
                    {
                        "number": 64,
                        "time": 60.00781249999995,
                        "value": 0
                    },
                    {
                        "number": 64,
                        "time": 60.09374999999995,
                        "value": 1
                    },
                    {
                        "number": 64,
                        "time": 60.38281249999995,
                        "value": 0
                    },
                    {
                        "number": 64,
                        "time": 60.43281249999995,
                        "value": 1
                    },
                    {
                        "number": 64,
                        "time": 60.75781249999995,
                        "value": 0
                    },
                    {
                        "number": 64,
                        "time": 60.77890624999995,
                        "value": 1
                    },
                    {
                        "number": 64,
                        "time": 60.93984374999995,
                        "value": 0
                    },
                    {
                        "number": 64,
                        "time": 60.95781249999995,
                        "value": 1
                    },
                    {
                        "number": 64,
                        "time": 61.12734374999995,
                        "value": 0
                    },
                    {
                        "number": 64,
                        "time": 61.18046874999995,
                        "value": 1
                    },
                    {
                        "number": 64,
                        "time": 61.32031249999995,
                        "value": 0
                    },
                    {
                        "number": 64,
                        "time": 61.34374999999995,
                        "value": 1
                    },
                    {
                        "number": 64,
                        "time": 61.50468749999995,
                        "value": 0
                    },
                    {
                        "number": 64,
                        "time": 62.31015624999995,
                        "value": 1
                    },
                    {
                        "number": 64,
                        "time": 62.63281249999995,
                        "value": 0
                    },
                    {
                        "number": 64,
                        "time": 62.67421874999995,
                        "value": 1
                    },
                    {
                        "number": 64,
                        "time": 63.00390624999995,
                        "value": 0
                    },
                    {
                        "number": 64,
                        "time": 63.04921874999995,
                        "value": 1
                    },
                    {
                        "number": 64,
                        "time": 63.19218749999995,
                        "value": 0
                    },
                    {
                        "number": 64,
                        "time": 63.21874999999995,
                        "value": 1
                    },
                    {
                        "number": 64,
                        "time": 63.38281249999995,
                        "value": 0
                    },
                    {
                        "number": 64,
                        "time": 63.43749999999995,
                        "value": 1
                    },
                    {
                        "number": 64,
                        "time": 63.57031249999995,
                        "value": 0
                    },
                    {
                        "number": 64,
                        "time": 63.61171874999995,
                        "value": 1
                    },
                    {
                        "number": 64,
                        "time": 63.75781249999995,
                        "value": 0
                    },
                    {
                        "number": 64,
                        "time": 63.81249999999995,
                        "value": 1
                    },
                    {
                        "number": 64,
                        "time": 63.94531249999995,
                        "value": 0
                    },
                    {
                        "number": 64,
                        "time": 63.96406249999995,
                        "value": 1
                    },
                    {
                        "number": 64,
                        "time": 64.13046874999995,
                        "value": 0
                    },
                    {
                        "number": 64,
                        "time": 64.15703124999995,
                        "value": 1
                    },
                    {
                        "number": 64,
                        "time": 64.50546874999995,
                        "value": 0
                    },
                    {
                        "number": 64,
                        "time": 64.53671874999995,
                        "value": 1
                    },
                    {
                        "number": 64,
                        "time": 64.71406249999994,
                        "value": 0
                    },
                    {
                        "number": 64,
                        "time": 65.08984374999994,
                        "value": 1
                    },
                    {
                        "number": 64,
                        "time": 65.25468749999995,
                        "value": 0
                    },
                    {
                        "number": 64,
                        "time": 65.29921874999995,
                        "value": 1
                    },
                    {
                        "number": 64,
                        "time": 65.44531249999996,
                        "value": 0
                    },
                    {
                        "number": 64,
                        "time": 65.48203124999996,
                        "value": 1
                    },
                    {
                        "number": 64,
                        "time": 65.63281249999996,
                        "value": 0
                    },
                    {
                        "number": 64,
                        "time": 65.64296874999995,
                        "value": 1
                    },
                    {
                        "number": 64,
                        "time": 65.82031249999996,
                        "value": 0
                    },
                    {
                        "number": 64,
                        "time": 65.83906249999995,
                        "value": 1
                    },
                    {
                        "number": 64,
                        "time": 66.00781249999996,
                        "value": 0
                    },
                    {
                        "number": 64,
                        "time": 66.04453124999996,
                        "value": 1
                    },
                    {
                        "number": 64,
                        "time": 66.20078124999996,
                        "value": 0
                    },
                    {
                        "number": 64,
                        "time": 66.22734374999996,
                        "value": 1
                    },
                    {
                        "number": 64,
                        "time": 66.38124999999995,
                        "value": 0
                    },
                    {
                        "number": 64,
                        "time": 66.43749999999996,
                        "value": 1
                    },
                    {
                        "number": 64,
                        "time": 66.56718749999996,
                        "value": 0
                    },
                    {
                        "number": 64,
                        "time": 66.61171874999997,
                        "value": 1
                    },
                    {
                        "number": 64,
                        "time": 67.13281249999997,
                        "value": 0
                    },
                    {
                        "number": 64,
                        "time": 67.16093749999997,
                        "value": 1
                    },
                    {
                        "number": 64,
                        "time": 67.49999999999997,
                        "value": 0
                    },
                    {
                        "number": 64,
                        "time": 67.72734374999997,
                        "value": 1
                    },
                    {
                        "number": 64,
                        "time": 67.88281249999997,
                        "value": 0
                    },
                    {
                        "number": 64,
                        "time": 67.91093749999997,
                        "value": 1
                    },
                    {
                        "number": 64,
                        "time": 68.07031249999997,
                        "value": 0
                    },
                    {
                        "number": 64,
                        "time": 68.08515624999997,
                        "value": 1
                    },
                    {
                        "number": 64,
                        "time": 68.25781249999997,
                        "value": 0
                    },
                    {
                        "number": 64,
                        "time": 68.30781249999997,
                        "value": 1
                    },
                    {
                        "number": 64,
                        "time": 68.44609374999997,
                        "value": 0
                    },
                    {
                        "number": 64,
                        "time": 68.48671874999998,
                        "value": 1
                    },
                    {
                        "number": 64,
                        "time": 68.63203124999998,
                        "value": 0
                    },
                    {
                        "number": 64,
                        "time": 68.66484374999999,
                        "value": 1
                    },
                    {
                        "number": 64,
                        "time": 69.00781249999999,
                        "value": 0
                    },
                    {
                        "number": 64,
                        "time": 69.09374999999999,
                        "value": 1
                    },
                    {
                        "number": 64,
                        "time": 69.38281249999999,
                        "value": 0
                    },
                    {
                        "number": 64,
                        "time": 69.43281249999998,
                        "value": 1
                    },
                    {
                        "number": 64,
                        "time": 69.75781249999999,
                        "value": 0
                    },
                    {
                        "number": 64,
                        "time": 69.77890624999999,
                        "value": 1
                    },
                    {
                        "number": 64,
                        "time": 69.93984374999998,
                        "value": 0
                    },
                    {
                        "number": 64,
                        "time": 69.95781249999997,
                        "value": 1
                    },
                    {
                        "number": 64,
                        "time": 70.12734374999997,
                        "value": 0
                    },
                    {
                        "number": 64,
                        "time": 70.18046874999996,
                        "value": 1
                    },
                    {
                        "number": 64,
                        "time": 70.32031249999996,
                        "value": 0
                    },
                    {
                        "number": 64,
                        "time": 70.34374999999996,
                        "value": 1
                    },
                    {
                        "number": 64,
                        "time": 70.50468749999996,
                        "value": 0
                    },
                    {
                        "number": 64,
                        "time": 71.31015624999996,
                        "value": 1
                    },
                    {
                        "number": 64,
                        "time": 71.63281249999996,
                        "value": 0
                    },
                    {
                        "number": 64,
                        "time": 71.67421874999995,
                        "value": 1
                    },
                    {
                        "number": 64,
                        "time": 72.00390624999996,
                        "value": 0
                    },
                    {
                        "number": 64,
                        "time": 72.04921874999995,
                        "value": 1
                    },
                    {
                        "number": 64,
                        "time": 72.19218749999996,
                        "value": 0
                    },
                    {
                        "number": 64,
                        "time": 72.21874999999996,
                        "value": 1
                    },
                    {
                        "number": 64,
                        "time": 72.38281249999996,
                        "value": 0
                    },
                    {
                        "number": 64,
                        "time": 72.43749999999996,
                        "value": 1
                    },
                    {
                        "number": 64,
                        "time": 72.57031249999996,
                        "value": 0
                    },
                    {
                        "number": 64,
                        "time": 72.61171874999995,
                        "value": 1
                    },
                    {
                        "number": 64,
                        "time": 72.75781249999996,
                        "value": 0
                    },
                    {
                        "number": 64,
                        "time": 72.81249999999996,
                        "value": 1
                    },
                    {
                        "number": 64,
                        "time": 72.94531249999996,
                        "value": 0
                    },
                    {
                        "number": 64,
                        "time": 72.96406249999995,
                        "value": 1
                    },
                    {
                        "number": 64,
                        "time": 73.13046874999996,
                        "value": 0
                    },
                    {
                        "number": 64,
                        "time": 73.15703124999996,
                        "value": 1
                    },
                    {
                        "number": 64,
                        "time": 73.50546874999996,
                        "value": 0
                    },
                    {
                        "number": 64,
                        "time": 73.51640624999996,
                        "value": 1
                    },
                    {
                        "number": 64,
                        "time": 73.71406249999995,
                        "value": 0
                    },
                    {
                        "number": 64,
                        "time": 83.46484374999996,
                        "value": 1
                    },
                    {
                        "number": 64,
                        "time": 84.00703124999995,
                        "value": 0
                    },
                    {
                        "number": 64,
                        "time": 92.52578124999995,
                        "value": 1
                    },
                    {
                        "number": 64,
                        "time": 92.95624999999995,
                        "value": 0
                    },
                    {
                        "number": 64,
                        "time": 101.49296874999996,
                        "value": 1
                    },
                    {
                        "number": 64,
                        "time": 101.96718749999995,
                        "value": 0
                    },
                    {
                        "number": 64,
                        "time": 110.47343749999996,
                        "value": 1
                    },
                    {
                        "number": 64,
                        "time": 110.99453124999995,
                        "value": 0
                    },
                    {
                        "number": 64,
                        "time": 115.87968749999996,
                        "value": 1
                    },
                    {
                        "number": 64,
                        "time": 116.07031249999996,
                        "value": 0
                    },
                    {
                        "number": 64,
                        "time": 116.12499999999996,
                        "value": 1
                    },
                    {
                        "number": 64,
                        "time": 116.25781249999996,
                        "value": 0
                    },
                    {
                        "number": 64,
                        "time": 116.31249999999996,
                        "value": 1
                    },
                    {
                        "number": 64,
                        "time": 116.44453124999995,
                        "value": 0
                    },
                    {
                        "number": 64,
                        "time": 116.50468749999996,
                        "value": 1
                    },
                    {
                        "number": 64,
                        "time": 116.63281249999996,
                        "value": 0
                    },
                    {
                        "number": 64,
                        "time": 116.69609374999996,
                        "value": 1
                    },
                    {
                        "number": 64,
                        "time": 116.82031249999996,
                        "value": 0
                    },
                    {
                        "number": 64,
                        "time": 116.88203124999995,
                        "value": 1
                    },
                    {
                        "number": 64,
                        "time": 116.99999999999996,
                        "value": 0
                    },
                    {
                        "number": 64,
                        "time": 119.27421874999996,
                        "value": 1
                    },
                    {
                        "number": 64,
                        "time": 119.44062499999995,
                        "value": 0
                    },
                    {
                        "number": 64,
                        "time": 119.45781249999996,
                        "value": 1
                    },
                    {
                        "number": 64,
                        "time": 119.62968749999996,
                        "value": 0
                    },
                    {
                        "number": 64,
                        "time": 119.66953124999996,
                        "value": 1
                    },
                    {
                        "number": 64,
                        "time": 120.38359374999996,
                        "value": 0
                    },
                    {
                        "number": 64,
                        "time": 121.14765624999995,
                        "value": 1
                    },
                    {
                        "number": 64,
                        "time": 121.50312499999995,
                        "value": 0
                    },
                    {
                        "number": 64,
                        "time": 121.53124999999996,
                        "value": 1
                    },
                    {
                        "number": 64,
                        "time": 121.88203124999995,
                        "value": 0
                    },
                    {
                        "number": 64,
                        "time": 121.91093749999996,
                        "value": 1
                    },
                    {
                        "number": 64,
                        "time": 122.25624999999995,
                        "value": 0
                    },
                    {
                        "number": 64,
                        "time": 122.30312499999995,
                        "value": 1
                    },
                    {
                        "number": 64,
                        "time": 122.60937499999996,
                        "value": 0
                    },
                    {
                        "number": 64,
                        "time": 122.65859374999995,
                        "value": 1
                    },
                    {
                        "number": 64,
                        "time": 123.38281249999996,
                        "value": 0
                    },
                    {
                        "number": 64,
                        "time": 123.40859374999995,
                        "value": 1
                    },
                    {
                        "number": 64,
                        "time": 123.75468749999996,
                        "value": 0
                    },
                    {
                        "number": 64,
                        "time": 123.77421874999996,
                        "value": 1
                    },
                    {
                        "number": 64,
                        "time": 123.94218749999996,
                        "value": 0
                    },
                    {
                        "number": 64,
                        "time": 123.96171874999996,
                        "value": 1
                    },
                    {
                        "number": 64,
                        "time": 124.13203124999995,
                        "value": 0
                    },
                    {
                        "number": 64,
                        "time": 124.15390624999995,
                        "value": 1
                    },
                    {
                        "number": 64,
                        "time": 124.32578124999995,
                        "value": 0
                    },
                    {
                        "number": 64,
                        "time": 127.89765624999994,
                        "value": 1
                    },
                    {
                        "number": 64,
                        "time": 128.24999999999994,
                        "value": 0
                    },
                    {
                        "number": 64,
                        "time": 128.28828124999995,
                        "value": 1
                    },
                    {
                        "number": 64,
                        "time": 128.63281249999994,
                        "value": 0
                    },
                    {
                        "number": 64,
                        "time": 128.65546874999995,
                        "value": 1
                    },
                    {
                        "number": 64,
                        "time": 129.00781249999994,
                        "value": 0
                    },
                    {
                        "number": 64,
                        "time": 129.03828124999995,
                        "value": 1
                    },
                    {
                        "number": 64,
                        "time": 129.38281249999994,
                        "value": 0
                    },
                    {
                        "number": 64,
                        "time": 129.44296874999995,
                        "value": 1
                    },
                    {
                        "number": 64,
                        "time": 130.31249999999994,
                        "value": 0
                    },
                    {
                        "number": 64,
                        "time": 133.90390624999995,
                        "value": 1
                    },
                    {
                        "number": 64,
                        "time": 135.00546874999995,
                        "value": 0
                    },
                    {
                        "number": 64,
                        "time": 135.03046874999995,
                        "value": 1
                    },
                    {
                        "number": 64,
                        "time": 135.75781249999994,
                        "value": 0
                    },
                    {
                        "number": 64,
                        "time": 135.80234374999995,
                        "value": 1
                    },
                    {
                        "number": 64,
                        "time": 136.12734374999994,
                        "value": 0
                    },
                    {
                        "number": 64,
                        "time": 136.15624999999994,
                        "value": 1
                    },
                    {
                        "number": 64,
                        "time": 136.50781249999994,
                        "value": 0
                    },
                    {
                        "number": 64,
                        "time": 136.52578124999994,
                        "value": 1
                    },
                    {
                        "number": 64,
                        "time": 136.88281249999994,
                        "value": 0
                    },
                    {
                        "number": 64,
                        "time": 136.91562499999995,
                        "value": 1
                    },
                    {
                        "number": 64,
                        "time": 137.24999999999994,
                        "value": 0
                    },
                    {
                        "number": 64,
                        "time": 137.28046874999995,
                        "value": 1
                    },
                    {
                        "number": 64,
                        "time": 138.00546874999995,
                        "value": 0
                    },
                    {
                        "number": 64,
                        "time": 138.04999999999995,
                        "value": 1
                    },
                    {
                        "number": 64,
                        "time": 138.37812499999995,
                        "value": 0
                    },
                    {
                        "number": 64,
                        "time": 138.40781249999995,
                        "value": 1
                    },
                    {
                        "number": 64,
                        "time": 139.14140624999993,
                        "value": 0
                    },
                    {
                        "number": 64,
                        "time": 139.31249999999994,
                        "value": 0
                    },
                    {
                        "number": 64,
                        "time": 142.90390624999995,
                        "value": 1
                    },
                    {
                        "number": 64,
                        "time": 144.00546874999995,
                        "value": 0
                    },
                    {
                        "number": 64,
                        "time": 144.03046874999995,
                        "value": 1
                    },
                    {
                        "number": 64,
                        "time": 144.75781249999994,
                        "value": 0
                    },
                    {
                        "number": 64,
                        "time": 144.80234374999995,
                        "value": 1
                    },
                    {
                        "number": 64,
                        "time": 145.12734374999994,
                        "value": 0
                    },
                    {
                        "number": 64,
                        "time": 145.15624999999994,
                        "value": 1
                    },
                    {
                        "number": 64,
                        "time": 145.50781249999994,
                        "value": 0
                    },
                    {
                        "number": 64,
                        "time": 145.52578124999994,
                        "value": 1
                    },
                    {
                        "number": 64,
                        "time": 145.88281249999994,
                        "value": 0
                    },
                    {
                        "number": 64,
                        "time": 145.91562499999995,
                        "value": 1
                    },
                    {
                        "number": 64,
                        "time": 146.24999999999994,
                        "value": 0
                    },
                    {
                        "number": 64,
                        "time": 146.28046874999995,
                        "value": 1
                    },
                    {
                        "number": 64,
                        "time": 147.00546874999995,
                        "value": 0
                    },
                    {
                        "number": 64,
                        "time": 147.04453124999995,
                        "value": 1
                    },
                    {
                        "number": 64,
                        "time": 147.37812499999995,
                        "value": 0
                    },
                    {
                        "number": 64,
                        "time": 147.40781249999995,
                        "value": 1
                    },
                    {
                        "number": 64,
                        "time": 148.08124999999995,
                        "value": 0
                    },
                    {
                        "number": 64,
                        "time": 150.18749999999994,
                        "value": 1
                    },
                    {
                        "number": 64,
                        "time": 151.88281249999994,
                        "value": 0
                    },
                    {
                        "number": 64,
                        "time": 151.98359374999995,
                        "value": 1
                    },
                    {
                        "number": 64,
                        "time": 153.56796874999995,
                        "value": 0
                    },
                    {
                        "number": 64,
                        "time": 153.72343749999996,
                        "value": 1
                    },
                    {
                        "number": 64,
                        "time": 154.69531249999997,
                        "value": 0
                    },
                    {
                        "number": 64,
                        "time": 154.73671874999997,
                        "value": 1
                    },
                    {
                        "number": 64,
                        "time": 155.25703124999998,
                        "value": 0
                    },
                    {
                        "number": 64,
                        "time": 155.29999999999998,
                        "value": 1
                    },
                    {
                        "number": 64,
                        "time": 156.94453124999998,
                        "value": 0
                    },
                    {
                        "number": 64,
                        "time": 157.04765625,
                        "value": 1
                    },
                    {
                        "number": 64,
                        "time": 158.6328125,
                        "value": 0
                    },
                    {
                        "number": 64,
                        "time": 158.73359375,
                        "value": 1
                    },
                    {
                        "number": 64,
                        "time": 160.3203125,
                        "value": 0
                    },
                    {
                        "number": 64,
                        "time": 160.42265625,
                        "value": 1
                    },
                    {
                        "number": 64,
                        "time": 162.0078125,
                        "value": 0
                    },
                    {
                        "number": 64,
                        "time": 162.10859375,
                        "value": 1
                    },
                    {
                        "number": 64,
                        "time": 163.6921875,
                        "value": 0
                    },
                    {
                        "number": 64,
                        "time": 163.72578124999998,
                        "value": 1
                    },
                    {
                        "number": 64,
                        "time": 164.82031249999997,
                        "value": 0
                    },
                    {
                        "number": 64,
                        "time": 164.85234374999996,
                        "value": 1
                    },
                    {
                        "number": 64,
                        "time": 165.19531249999997,
                        "value": 0
                    },
                    {
                        "number": 64,
                        "time": 165.20781249999996,
                        "value": 1
                    },
                    {
                        "number": 64,
                        "time": 165.37578124999996,
                        "value": 0
                    },
                    {
                        "number": 64,
                        "time": 166.49999999999997,
                        "value": 1
                    },
                    {
                        "number": 64,
                        "time": 167.06640624999997,
                        "value": 0
                    },
                    {
                        "number": 64,
                        "time": 167.10234374999996,
                        "value": 1
                    },
                    {
                        "number": 64,
                        "time": 167.63281249999997,
                        "value": 0
                    },
                    {
                        "number": 64,
                        "time": 167.65156249999998,
                        "value": 1
                    },
                    {
                        "number": 64,
                        "time": 168.19374999999997,
                        "value": 0
                    },
                    {
                        "number": 64,
                        "time": 168.21406249999995,
                        "value": 1
                    },
                    {
                        "number": 64,
                        "time": 168.75546874999998,
                        "value": 0
                    },
                    {
                        "number": 64,
                        "time": 168.84609374999997,
                        "value": 1
                    },
                    {
                        "number": 64,
                        "time": 169.32031249999997,
                        "value": 0
                    },
                    {
                        "number": 64,
                        "time": 169.35234374999996,
                        "value": 1
                    },
                    {
                        "number": 64,
                        "time": 169.88281249999997,
                        "value": 0
                    },
                    {
                        "number": 64,
                        "time": 169.90546874999998,
                        "value": 1
                    },
                    {
                        "number": 64,
                        "time": 170.44218749999996,
                        "value": 0
                    },
                    {
                        "number": 64,
                        "time": 170.53124999999997,
                        "value": 1
                    },
                    {
                        "number": 64,
                        "time": 171.56640624999997,
                        "value": 0
                    },
                    {
                        "number": 64,
                        "time": 171.60234374999996,
                        "value": 1
                    },
                    {
                        "number": 64,
                        "time": 172.12578124999996,
                        "value": 0
                    },
                    {
                        "number": 64,
                        "time": 172.33515624999998,
                        "value": 1
                    },
                    {
                        "number": 64,
                        "time": 172.69218749999996,
                        "value": 0
                    },
                    {
                        "number": 64,
                        "time": 172.89765624999998,
                        "value": 1
                    },
                    {
                        "number": 64,
                        "time": 173.25703124999998,
                        "value": 0
                    },
                    {
                        "number": 64,
                        "time": 173.47343749999996,
                        "value": 1
                    },
                    {
                        "number": 64,
                        "time": 173.81953124999998,
                        "value": 0
                    },
                    {
                        "number": 64,
                        "time": 174.02265624999998,
                        "value": 1
                    },
                    {
                        "number": 64,
                        "time": 174.38203124999998,
                        "value": 0
                    },
                    {
                        "number": 64,
                        "time": 174.56718749999996,
                        "value": 1
                    },
                    {
                        "number": 64,
                        "time": 174.94531249999997,
                        "value": 0
                    },
                    {
                        "number": 64,
                        "time": 175.14765624999998,
                        "value": 1
                    },
                    {
                        "number": 64,
                        "time": 175.50234374999997,
                        "value": 0
                    },
                    {
                        "number": 64,
                        "time": 175.72734374999996,
                        "value": 1
                    },
                    {
                        "number": 64,
                        "time": 176.07031249999997,
                        "value": 0
                    },
                    {
                        "number": 64,
                        "time": 176.28593749999996,
                        "value": 1
                    },
                    {
                        "number": 64,
                        "time": 176.63281249999997,
                        "value": 0
                    },
                    {
                        "number": 64,
                        "time": 176.84843749999996,
                        "value": 1
                    },
                    {
                        "number": 64,
                        "time": 177.19218749999996,
                        "value": 0
                    },
                    {
                        "number": 64,
                        "time": 177.77187499999997,
                        "value": 1
                    },
                    {
                        "number": 64,
                        "time": 181.31249999999997,
                        "value": 0
                    },
                    {
                        "number": 64,
                        "time": 181.69609374999996,
                        "value": 1
                    },
                    {
                        "number": 64,
                        "time": 183.18828124999996,
                        "value": 0
                    },
                    {
                        "number": 64,
                        "time": 183.58671874999996,
                        "value": 1
                    },
                    {
                        "number": 64,
                        "time": 186.18984374999997,
                        "value": 0
                    },
                    {
                        "number": 64,
                        "time": 187.11484374999998,
                        "value": 1
                    },
                    {
                        "number": 64,
                        "time": 187.68906249999998,
                        "value": 0
                    },
                    {
                        "number": 64,
                        "time": 187.87499999999997,
                        "value": 1
                    },
                    {
                        "number": 64,
                        "time": 188.25624999999997,
                        "value": 0
                    },
                    {
                        "number": 64,
                        "time": 188.42734374999998,
                        "value": 1
                    },
                    {
                        "number": 64,
                        "time": 188.81562499999998,
                        "value": 0
                    },
                    {
                        "number": 64,
                        "time": 188.93749999999997,
                        "value": 1
                    },
                    {
                        "number": 64,
                        "time": 189.37499999999997,
                        "value": 0
                    },
                    {
                        "number": 64,
                        "time": 189.52109374999998,
                        "value": 1
                    },
                    {
                        "number": 64,
                        "time": 189.94062499999998,
                        "value": 0
                    },
                    {
                        "number": 64,
                        "time": 190.06953124999998,
                        "value": 1
                    },
                    {
                        "number": 64,
                        "time": 190.50703124999998,
                        "value": 0
                    },
                    {
                        "number": 64,
                        "time": 190.65703125,
                        "value": 1
                    },
                    {
                        "number": 64,
                        "time": 191.0625,
                        "value": 0
                    },
                    {
                        "number": 64,
                        "time": 191.625,
                        "value": 1
                    },
                    {
                        "number": 64,
                        "time": 192.19375,
                        "value": 0
                    },
                    {
                        "number": 64,
                        "time": 192.23749999999998,
                        "value": 1
                    },
                    {
                        "number": 64,
                        "time": 192.75703124999998,
                        "value": 0
                    },
                    {
                        "number": 64,
                        "time": 192.8109375,
                        "value": 1
                    },
                    {
                        "number": 64,
                        "time": 193.315625,
                        "value": 0
                    },
                    {
                        "number": 64,
                        "time": 193.35234375000002,
                        "value": 1
                    },
                    {
                        "number": 64,
                        "time": 193.87968750000002,
                        "value": 0
                    },
                    {
                        "number": 64,
                        "time": 193.91953125,
                        "value": 1
                    },
                    {
                        "number": 64,
                        "time": 194.43984375,
                        "value": 0
                    },
                    {
                        "number": 64,
                        "time": 194.49531249999998,
                        "value": 1
                    },
                    {
                        "number": 64,
                        "time": 195.00468749999996,
                        "value": 0
                    },
                    {
                        "number": 64,
                        "time": 195.03984374999996,
                        "value": 1
                    },
                    {
                        "number": 64,
                        "time": 195.56249999999997,
                        "value": 0
                    },
                    {
                        "number": 64,
                        "time": 195.59999999999997,
                        "value": 1
                    },
                    {
                        "number": 64,
                        "time": 196.12968749999996,
                        "value": 0
                    },
                    {
                        "number": 64,
                        "time": 196.18359374999997,
                        "value": 1
                    },
                    {
                        "number": 64,
                        "time": 196.69218749999996,
                        "value": 0
                    },
                    {
                        "number": 64,
                        "time": 196.73671874999997,
                        "value": 1
                    },
                    {
                        "number": 64,
                        "time": 197.25781249999997,
                        "value": 0
                    },
                    {
                        "number": 64,
                        "time": 197.29921874999997,
                        "value": 1
                    },
                    {
                        "number": 64,
                        "time": 197.81796874999998,
                        "value": 0
                    },
                    {
                        "number": 64,
                        "time": 197.85703124999998,
                        "value": 1
                    },
                    {
                        "number": 64,
                        "time": 198.37968749999996,
                        "value": 0
                    },
                    {
                        "number": 64,
                        "time": 198.41953124999995,
                        "value": 1
                    },
                    {
                        "number": 64,
                        "time": 198.93984374999994,
                        "value": 0
                    },
                    {
                        "number": 64,
                        "time": 198.97343749999993,
                        "value": 1
                    },
                    {
                        "number": 64,
                        "time": 199.50781249999994,
                        "value": 0
                    },
                    {
                        "number": 64,
                        "time": 199.55781249999995,
                        "value": 1
                    },
                    {
                        "number": 64,
                        "time": 200.06796874999995,
                        "value": 0
                    },
                    {
                        "number": 64,
                        "time": 200.11640624999995,
                        "value": 1
                    },
                    {
                        "number": 64,
                        "time": 200.63437499999995,
                        "value": 0
                    },
                    {
                        "number": 64,
                        "time": 200.69218749999996,
                        "value": 1
                    },
                    {
                        "number": 64,
                        "time": 201.19374999999997,
                        "value": 0
                    },
                    {
                        "number": 64,
                        "time": 201.22343749999996,
                        "value": 1
                    },
                    {
                        "number": 64,
                        "time": 201.75546874999998,
                        "value": 0
                    },
                    {
                        "number": 64,
                        "time": 201.80781249999998,
                        "value": 1
                    },
                    {
                        "number": 64,
                        "time": 202.31953124999998,
                        "value": 0
                    },
                    {
                        "number": 64,
                        "time": 202.36171875,
                        "value": 1
                    },
                    {
                        "number": 64,
                        "time": 202.8828125,
                        "value": 0
                    },
                    {
                        "number": 64,
                        "time": 202.91484375,
                        "value": 1
                    },
                    {
                        "number": 64,
                        "time": 203.44453125,
                        "value": 0
                    },
                    {
                        "number": 64,
                        "time": 203.48671875000002,
                        "value": 1
                    },
                    {
                        "number": 64,
                        "time": 204.00781250000003,
                        "value": 0
                    },
                    {
                        "number": 64,
                        "time": 204.06250000000003,
                        "value": 1
                    },
                    {
                        "number": 64,
                        "time": 204.56250000000003,
                        "value": 0
                    },
                    {
                        "number": 64,
                        "time": 204.61406250000002,
                        "value": 1
                    },
                    {
                        "number": 64,
                        "time": 205.13281250000003,
                        "value": 0
                    },
                    {
                        "number": 64,
                        "time": 205.18828125000002,
                        "value": 1
                    },
                    {
                        "number": 64,
                        "time": 205.69218750000002,
                        "value": 0
                    },
                    {
                        "number": 64,
                        "time": 205.75078125000002,
                        "value": 1
                    },
                    {
                        "number": 64,
                        "time": 206.25781250000003,
                        "value": 0
                    },
                    {
                        "number": 64,
                        "time": 206.29843750000003,
                        "value": 1
                    },
                    {
                        "number": 64,
                        "time": 206.81406250000003,
                        "value": 0
                    },
                    {
                        "number": 64,
                        "time": 206.86250000000004,
                        "value": 1
                    },
                    {
                        "number": 64,
                        "time": 207.94375000000002,
                        "value": 0
                    },
                    {
                        "number": 64,
                        "time": 208.00000000000003,
                        "value": 1
                    },
                    {
                        "number": 64,
                        "time": 209.06796875000003,
                        "value": 0
                    },
                    {
                        "number": 64,
                        "time": 209.15625000000003,
                        "value": 1
                    },
                    {
                        "number": 64,
                        "time": 210.19531250000003,
                        "value": 0
                    },
                    {
                        "number": 64,
                        "time": 210.26328125000003,
                        "value": 1
                    },
                    {
                        "number": 64,
                        "time": 211.31484375000002,
                        "value": 0
                    },
                    {
                        "number": 64,
                        "time": 211.38984375,
                        "value": 1
                    },
                    {
                        "number": 64,
                        "time": 212.25234375,
                        "value": 0
                    },
                    {
                        "number": 64,
                        "time": 212.29999999999998,
                        "value": 1
                    },
                    {
                        "number": 64,
                        "time": 213.00312499999998,
                        "value": 0
                    },
                    {
                        "number": 64,
                        "time": 213.01953124999997,
                        "value": 1
                    },
                    {
                        "number": 64,
                        "time": 213.56562499999998,
                        "value": 0
                    },
                    {
                        "number": 64,
                        "time": 213.5984375,
                        "value": 1
                    },
                    {
                        "number": 64,
                        "time": 214.1328125,
                        "value": 0
                    },
                    {
                        "number": 64,
                        "time": 214.17421875,
                        "value": 1
                    },
                    {
                        "number": 64,
                        "time": 214.6953125,
                        "value": 0
                    },
                    {
                        "number": 64,
                        "time": 214.7390625,
                        "value": 1
                    },
                    {
                        "number": 64,
                        "time": 215.8125,
                        "value": 0
                    },
                    {
                        "number": 64,
                        "time": 216.39921875,
                        "value": 1
                    },
                    {
                        "number": 64,
                        "time": 216.93984375,
                        "value": 0
                    },
                    {
                        "number": 64,
                        "time": 216.9703125,
                        "value": 1
                    },
                    {
                        "number": 64,
                        "time": 217.50546875,
                        "value": 0
                    },
                    {
                        "number": 64,
                        "time": 217.534375,
                        "value": 1
                    },
                    {
                        "number": 64,
                        "time": 218.0640625,
                        "value": 0
                    },
                    {
                        "number": 64,
                        "time": 218.09296875,
                        "value": 1
                    },
                    {
                        "number": 64,
                        "time": 218.6328125,
                        "value": 0
                    },
                    {
                        "number": 64,
                        "time": 218.68046875,
                        "value": 1
                    },
                    {
                        "number": 64,
                        "time": 219.1875,
                        "value": 0
                    },
                    {
                        "number": 64,
                        "time": 219.23203125,
                        "value": 1
                    },
                    {
                        "number": 64,
                        "time": 219.7546875,
                        "value": 0
                    },
                    {
                        "number": 64,
                        "time": 219.78125,
                        "value": 1
                    },
                    {
                        "number": 64,
                        "time": 220.31953125,
                        "value": 0
                    },
                    {
                        "number": 64,
                        "time": 220.34296875,
                        "value": 1
                    },
                    {
                        "number": 64,
                        "time": 220.88203125,
                        "value": 0
                    },
                    {
                        "number": 64,
                        "time": 220.91171875,
                        "value": 1
                    },
                    {
                        "number": 64,
                        "time": 221.4375,
                        "value": 0
                    },
                    {
                        "number": 64,
                        "time": 223.7140625,
                        "value": 1
                    },
                    {
                        "number": 64,
                        "time": 224.25625,
                        "value": 0
                    },
                    {
                        "number": 64,
                        "time": 224.28984375,
                        "value": 1
                    },
                    {
                        "number": 64,
                        "time": 224.8171875,
                        "value": 0
                    },
                    {
                        "number": 64,
                        "time": 224.85234375,
                        "value": 1
                    },
                    {
                        "number": 64,
                        "time": 225.3828125,
                        "value": 0
                    },
                    {
                        "number": 64,
                        "time": 225.4328125,
                        "value": 1
                    },
                    {
                        "number": 64,
                        "time": 225.9421875,
                        "value": 0
                    },
                    {
                        "number": 64,
                        "time": 225.9734375,
                        "value": 1
                    },
                    {
                        "number": 64,
                        "time": 226.50859375,
                        "value": 0
                    },
                    {
                        "number": 64,
                        "time": 226.53984375,
                        "value": 1
                    },
                    {
                        "number": 64,
                        "time": 227.0703125,
                        "value": 0
                    },
                    {
                        "number": 64,
                        "time": 232.15546875,
                        "value": 1
                    },
                    {
                        "number": 64,
                        "time": 232.6875,
                        "value": 0
                    },
                    {
                        "number": 64,
                        "time": 232.71796875,
                        "value": 1
                    },
                    {
                        "number": 64,
                        "time": 233.25390625,
                        "value": 0
                    },
                    {
                        "number": 64,
                        "time": 233.271875,
                        "value": 1
                    },
                    {
                        "number": 64,
                        "time": 233.4453125,
                        "value": 0
                    },
                    {
                        "number": 64,
                        "time": 233.48046875,
                        "value": 1
                    },
                    {
                        "number": 64,
                        "time": 233.81953125,
                        "value": 0
                    },
                    {
                        "number": 64,
                        "time": 233.86171875000002,
                        "value": 1
                    },
                    {
                        "number": 64,
                        "time": 234.37968750000002,
                        "value": 0
                    },
                    {
                        "number": 64,
                        "time": 234.41093750000002,
                        "value": 1
                    },
                    {
                        "number": 64,
                        "time": 234.57031250000003,
                        "value": 0
                    },
                    {
                        "number": 64,
                        "time": 234.61171875000002,
                        "value": 1
                    },
                    {
                        "number": 64,
                        "time": 234.94453125000004,
                        "value": 0
                    },
                    {
                        "number": 64,
                        "time": 234.98203125000003,
                        "value": 1
                    },
                    {
                        "number": 64,
                        "time": 235.13046875000003,
                        "value": 0
                    },
                    {
                        "number": 64,
                        "time": 235.16875000000005,
                        "value": 1
                    },
                    {
                        "number": 64,
                        "time": 235.50703125000007,
                        "value": 0
                    },
                    {
                        "number": 64,
                        "time": 235.53984375000007,
                        "value": 1
                    },
                    {
                        "number": 64,
                        "time": 235.69218750000007,
                        "value": 0
                    },
                    {
                        "number": 64,
                        "time": 235.74140625000007,
                        "value": 1
                    },
                    {
                        "number": 64,
                        "time": 236.06250000000006,
                        "value": 0
                    },
                    {
                        "number": 64,
                        "time": 236.11250000000007,
                        "value": 1
                    },
                    {
                        "number": 64,
                        "time": 236.62500000000006,
                        "value": 0
                    },
                    {
                        "number": 64,
                        "time": 236.66328125000007,
                        "value": 1
                    },
                    {
                        "number": 64,
                        "time": 237.19531250000006,
                        "value": 0
                    },
                    {
                        "number": 64,
                        "time": 237.23750000000007,
                        "value": 1
                    },
                    {
                        "number": 64,
                        "time": 237.75781250000006,
                        "value": 0
                    },
                    {
                        "number": 64,
                        "time": 237.80000000000007,
                        "value": 1
                    },
                    {
                        "number": 64,
                        "time": 238.31875000000005,
                        "value": 0
                    },
                    {
                        "number": 64,
                        "time": 238.36796875000005,
                        "value": 1
                    },
                    {
                        "number": 64,
                        "time": 238.88203125000007,
                        "value": 0
                    },
                    {
                        "number": 64,
                        "time": 238.94140625000006,
                        "value": 1
                    },
                    {
                        "number": 64,
                        "time": 239.44531250000006,
                        "value": 0
                    },
                    {
                        "number": 64,
                        "time": 239.49843750000005,
                        "value": 1
                    },
                    {
                        "number": 64,
                        "time": 239.81250000000006,
                        "value": 0
                    },
                    {
                        "number": 64,
                        "time": 240.04296875000006,
                        "value": 1
                    },
                    {
                        "number": 64,
                        "time": 240.56640625000006,
                        "value": 0
                    },
                    {
                        "number": 64,
                        "time": 240.61796875000005,
                        "value": 1
                    },
                    {
                        "number": 64,
                        "time": 240.90468750000005,
                        "value": 0
                    },
                    {
                        "number": 64,
                        "time": 241.16796875000006,
                        "value": 1
                    },
                    {
                        "number": 64,
                        "time": 241.69140625000006,
                        "value": 0
                    },
                    {
                        "number": 64,
                        "time": 241.74296875000005,
                        "value": 1
                    },
                    {
                        "number": 64,
                        "time": 242.06250000000006,
                        "value": 0
                    },
                    {
                        "number": 64,
                        "time": 242.10703125000006,
                        "value": 1
                    },
                    {
                        "number": 64,
                        "time": 242.62890625000006,
                        "value": 0
                    },
                    {
                        "number": 64,
                        "time": 242.66484375000005,
                        "value": 1
                    },
                    {
                        "number": 64,
                        "time": 243.19218750000005,
                        "value": 0
                    },
                    {
                        "number": 64,
                        "time": 243.22343750000005,
                        "value": 1
                    },
                    {
                        "number": 64,
                        "time": 243.75546875000006,
                        "value": 0
                    },
                    {
                        "number": 64,
                        "time": 243.78125000000006,
                        "value": 1
                    },
                    {
                        "number": 64,
                        "time": 244.13281250000006,
                        "value": 0
                    },
                    {
                        "number": 64,
                        "time": 244.15156250000007,
                        "value": 1
                    },
                    {
                        "number": 64,
                        "time": 244.50468750000005,
                        "value": 0
                    },
                    {
                        "number": 64,
                        "time": 244.52265625000004,
                        "value": 1
                    },
                    {
                        "number": 64,
                        "time": 244.87968750000002,
                        "value": 0
                    },
                    {
                        "number": 64,
                        "time": 244.91093750000002,
                        "value": 1
                    },
                    {
                        "number": 64,
                        "time": 245.25546875000003,
                        "value": 0
                    },
                    {
                        "number": 64,
                        "time": 245.28593750000005,
                        "value": 1
                    },
                    {
                        "number": 64,
                        "time": 245.62968750000005,
                        "value": 0
                    },
                    {
                        "number": 64,
                        "time": 245.67421875000005,
                        "value": 1
                    },
                    {
                        "number": 64,
                        "time": 246.00468750000005,
                        "value": 0
                    },
                    {
                        "number": 64,
                        "time": 246.03984375000005,
                        "value": 1
                    },
                    {
                        "number": 64,
                        "time": 246.18750000000006,
                        "value": 0
                    },
                    {
                        "number": 64,
                        "time": 246.43750000000006,
                        "value": 1
                    },
                    {
                        "number": 64,
                        "time": 247.31796875000006,
                        "value": 0
                    },
                    {
                        "number": 64,
                        "time": 247.35703125000006,
                        "value": 1
                    },
                    {
                        "number": 64,
                        "time": 247.88593750000007,
                        "value": 0
                    },
                    {
                        "number": 64,
                        "time": 247.93750000000006,
                        "value": 1
                    },
                    {
                        "number": 64,
                        "time": 248.44609375000005,
                        "value": 0
                    },
                    {
                        "number": 64,
                        "time": 257.63828125000003,
                        "value": 1
                    },
                    {
                        "number": 64,
                        "time": 257.96406250000007,
                        "value": 0
                    },
                    {
                        "number": 64,
                        "time": 258.22343750000005,
                        "value": 1
                    },
                    {
                        "number": 64,
                        "time": 258.56250000000006,
                        "value": 0
                    },
                    {
                        "number": 64,
                        "time": 258.76328125000003,
                        "value": 1
                    },
                    {
                        "number": 64,
                        "time": 259.12031250000007,
                        "value": 0
                    },
                    {
                        "number": 64,
                        "time": 259.3304687500001,
                        "value": 1
                    },
                    {
                        "number": 64,
                        "time": 259.68750000000006,
                        "value": 0
                    },
                    {
                        "number": 64,
                        "time": 259.88828125000003,
                        "value": 1
                    },
                    {
                        "number": 64,
                        "time": 260.24531250000007,
                        "value": 0
                    },
                    {
                        "number": 64,
                        "time": 260.46875000000006,
                        "value": 1
                    },
                    {
                        "number": 64,
                        "time": 260.81250000000006,
                        "value": 0
                    },
                    {
                        "number": 64,
                        "time": 261.00859375000005,
                        "value": 1
                    },
                    {
                        "number": 64,
                        "time": 261.37968750000005,
                        "value": 0
                    },
                    {
                        "number": 64,
                        "time": 261.57109375000005,
                        "value": 1
                    },
                    {
                        "number": 64,
                        "time": 261.94062500000007,
                        "value": 0
                    },
                    {
                        "number": 64,
                        "time": 261.9828125000001,
                        "value": 1
                    },
                    {
                        "number": 64,
                        "time": 262.12812500000007,
                        "value": 0
                    },
                    {
                        "number": 64,
                        "time": 262.1742187500001,
                        "value": 1
                    },
                    {
                        "number": 64,
                        "time": 262.3187500000001,
                        "value": 0
                    },
                    {
                        "number": 64,
                        "time": 262.35546875000006,
                        "value": 1
                    },
                    {
                        "number": 64,
                        "time": 262.50468750000005,
                        "value": 0
                    },
                    {
                        "number": 64,
                        "time": 262.54062500000003,
                        "value": 1
                    },
                    {
                        "number": 64,
                        "time": 262.69218750000005,
                        "value": 0
                    },
                    {
                        "number": 64,
                        "time": 262.73125000000005,
                        "value": 1
                    },
                    {
                        "number": 64,
                        "time": 262.87890625000006,
                        "value": 0
                    },
                    {
                        "number": 64,
                        "time": 262.9164062500001,
                        "value": 1
                    },
                    {
                        "number": 64,
                        "time": 263.06718750000005,
                        "value": 0
                    },
                    {
                        "number": 64,
                        "time": 263.10703125000003,
                        "value": 1
                    },
                    {
                        "number": 64,
                        "time": 263.25390625000006,
                        "value": 0
                    },
                    {
                        "number": 64,
                        "time": 263.29218750000007,
                        "value": 1
                    },
                    {
                        "number": 64,
                        "time": 263.4398437500001,
                        "value": 0
                    },
                    {
                        "number": 64,
                        "time": 263.4781250000001,
                        "value": 1
                    },
                    {
                        "number": 64,
                        "time": 263.6320312500001,
                        "value": 0
                    },
                    {
                        "number": 64,
                        "time": 263.6726562500001,
                        "value": 1
                    },
                    {
                        "number": 64,
                        "time": 263.8171875000001,
                        "value": 0
                    },
                    {
                        "number": 64,
                        "time": 263.8601562500001,
                        "value": 1
                    },
                    {
                        "number": 64,
                        "time": 264.0046875000001,
                        "value": 0
                    },
                    {
                        "number": 64,
                        "time": 264.0453125000001,
                        "value": 1
                    },
                    {
                        "number": 64,
                        "time": 264.19140625000006,
                        "value": 0
                    },
                    {
                        "number": 64,
                        "time": 264.24140625000007,
                        "value": 1
                    },
                    {
                        "number": 64,
                        "time": 264.38203125000007,
                        "value": 0
                    },
                    {
                        "number": 64,
                        "time": 264.4195312500001,
                        "value": 1
                    },
                    {
                        "number": 64,
                        "time": 264.75234375000014,
                        "value": 0
                    },
                    {
                        "number": 64,
                        "time": 264.7882812500001,
                        "value": 1
                    },
                    {
                        "number": 64,
                        "time": 265.1281250000001,
                        "value": 0
                    },
                    {
                        "number": 64,
                        "time": 265.1671875000001,
                        "value": 1
                    },
                    {
                        "number": 64,
                        "time": 265.3179687500001,
                        "value": 0
                    },
                    {
                        "number": 64,
                        "time": 265.3539062500001,
                        "value": 1
                    },
                    {
                        "number": 64,
                        "time": 265.69140625000006,
                        "value": 0
                    },
                    {
                        "number": 64,
                        "time": 265.73203125000003,
                        "value": 1
                    },
                    {
                        "number": 64,
                        "time": 265.88046875000003,
                        "value": 0
                    },
                    {
                        "number": 64,
                        "time": 265.93750000000006,
                        "value": 1
                    },
                    {
                        "number": 64,
                        "time": 266.25312500000007,
                        "value": 0
                    },
                    {
                        "number": 64,
                        "time": 266.29609375000007,
                        "value": 1
                    },
                    {
                        "number": 64,
                        "time": 266.43750000000006,
                        "value": 0
                    },
                    {
                        "number": 64,
                        "time": 266.62500000000006,
                        "value": 1
                    },
                    {
                        "number": 64,
                        "time": 266.81953125000007,
                        "value": 0
                    },
                    {
                        "number": 64,
                        "time": 266.83593750000006,
                        "value": 1
                    },
                    {
                        "number": 64,
                        "time": 267.00703125000007,
                        "value": 0
                    },
                    {
                        "number": 64,
                        "time": 267.0250000000001,
                        "value": 1
                    },
                    {
                        "number": 64,
                        "time": 267.1914062500001,
                        "value": 0
                    },
                    {
                        "number": 64,
                        "time": 267.2125000000001,
                        "value": 1
                    },
                    {
                        "number": 64,
                        "time": 267.3789062500001,
                        "value": 0
                    },
                    {
                        "number": 64,
                        "time": 267.3953125000001,
                        "value": 1
                    },
                    {
                        "number": 64,
                        "time": 267.56875000000014,
                        "value": 0
                    },
                    {
                        "number": 64,
                        "time": 267.60234375000016,
                        "value": 1
                    },
                    {
                        "number": 64,
                        "time": 267.7570312500002,
                        "value": 0
                    },
                    {
                        "number": 64,
                        "time": 267.8039062500002,
                        "value": 1
                    },
                    {
                        "number": 64,
                        "time": 267.94218750000016,
                        "value": 0
                    },
                    {
                        "number": 64,
                        "time": 267.97734375000016,
                        "value": 1
                    },
                    {
                        "number": 64,
                        "time": 268.12968750000016,
                        "value": 0
                    },
                    {
                        "number": 64,
                        "time": 268.16093750000016,
                        "value": 1
                    },
                    {
                        "number": 64,
                        "time": 268.3195312500002,
                        "value": 0
                    },
                    {
                        "number": 64,
                        "time": 268.34843750000016,
                        "value": 1
                    },
                    {
                        "number": 64,
                        "time": 268.5070312500002,
                        "value": 0
                    },
                    {
                        "number": 64,
                        "time": 268.53125000000017,
                        "value": 1
                    },
                    {
                        "number": 64,
                        "time": 268.69140625000017,
                        "value": 0
                    },
                    {
                        "number": 64,
                        "time": 271.5109375000002,
                        "value": 1
                    },
                    {
                        "number": 64,
                        "time": 272.49296875000016,
                        "value": 0
                    },
                    {
                        "number": 64,
                        "time": 272.7132812500002,
                        "value": 1
                    },
                    {
                        "number": 64,
                        "time": 273.18906250000015,
                        "value": 0
                    },
                    {
                        "number": 64,
                        "time": 273.38515625000014,
                        "value": 1
                    },
                    {
                        "number": 64,
                        "time": 273.75625000000014,
                        "value": 0
                    },
                    {
                        "number": 64,
                        "time": 273.94765625000014,
                        "value": 1
                    },
                    {
                        "number": 64,
                        "time": 274.3156250000001,
                        "value": 0
                    },
                    {
                        "number": 64,
                        "time": 274.52109375000015,
                        "value": 1
                    },
                    {
                        "number": 64,
                        "time": 274.87500000000017,
                        "value": 0
                    },
                    {
                        "number": 64,
                        "time": 275.03125000000017,
                        "value": 1
                    },
                    {
                        "number": 64,
                        "time": 275.44140625000017,
                        "value": 0
                    },
                    {
                        "number": 64,
                        "time": 275.5695312500002,
                        "value": 1
                    },
                    {
                        "number": 64,
                        "time": 276.0070312500002,
                        "value": 0
                    },
                    {
                        "number": 64,
                        "time": 276.15703125000016,
                        "value": 1
                    },
                    {
                        "number": 64,
                        "time": 276.56250000000017,
                        "value": 0
                    },
                    {
                        "number": 64,
                        "time": 277.12500000000017,
                        "value": 1
                    },
                    {
                        "number": 64,
                        "time": 277.6937500000002,
                        "value": 0
                    },
                    {
                        "number": 64,
                        "time": 277.7375000000002,
                        "value": 1
                    },
                    {
                        "number": 64,
                        "time": 278.2570312500002,
                        "value": 0
                    },
                    {
                        "number": 64,
                        "time": 278.3109375000002,
                        "value": 1
                    },
                    {
                        "number": 64,
                        "time": 278.8156250000002,
                        "value": 0
                    },
                    {
                        "number": 64,
                        "time": 278.85234375000016,
                        "value": 1
                    },
                    {
                        "number": 64,
                        "time": 279.37968750000016,
                        "value": 0
                    },
                    {
                        "number": 64,
                        "time": 279.41953125000015,
                        "value": 1
                    },
                    {
                        "number": 64,
                        "time": 279.9398437500002,
                        "value": 0
                    },
                    {
                        "number": 64,
                        "time": 279.9953125000002,
                        "value": 1
                    },
                    {
                        "number": 64,
                        "time": 280.50468750000016,
                        "value": 0
                    },
                    {
                        "number": 64,
                        "time": 280.53984375000016,
                        "value": 1
                    },
                    {
                        "number": 64,
                        "time": 281.06250000000017,
                        "value": 0
                    },
                    {
                        "number": 64,
                        "time": 281.1000000000002,
                        "value": 1
                    },
                    {
                        "number": 64,
                        "time": 281.62968750000016,
                        "value": 0
                    },
                    {
                        "number": 64,
                        "time": 281.66093750000016,
                        "value": 1
                    },
                    {
                        "number": 64,
                        "time": 282.19218750000016,
                        "value": 0
                    },
                    {
                        "number": 64,
                        "time": 282.23671875000014,
                        "value": 1
                    },
                    {
                        "number": 64,
                        "time": 282.7578125000001,
                        "value": 0
                    },
                    {
                        "number": 64,
                        "time": 282.79921875000014,
                        "value": 1
                    },
                    {
                        "number": 64,
                        "time": 283.3179687500001,
                        "value": 0
                    },
                    {
                        "number": 64,
                        "time": 283.3570312500001,
                        "value": 1
                    },
                    {
                        "number": 64,
                        "time": 283.8796875000001,
                        "value": 0
                    },
                    {
                        "number": 64,
                        "time": 283.9195312500001,
                        "value": 1
                    },
                    {
                        "number": 64,
                        "time": 284.43984375000014,
                        "value": 0
                    },
                    {
                        "number": 64,
                        "time": 284.4687500000001,
                        "value": 1
                    },
                    {
                        "number": 64,
                        "time": 285.0078125000001,
                        "value": 0
                    },
                    {
                        "number": 64,
                        "time": 285.0578125000001,
                        "value": 1
                    },
                    {
                        "number": 64,
                        "time": 285.5679687500001,
                        "value": 0
                    },
                    {
                        "number": 64,
                        "time": 285.61640625000007,
                        "value": 1
                    },
                    {
                        "number": 64,
                        "time": 286.13437500000003,
                        "value": 0
                    },
                    {
                        "number": 64,
                        "time": 286.19218750000005,
                        "value": 1
                    },
                    {
                        "number": 64,
                        "time": 286.6937500000001,
                        "value": 0
                    },
                    {
                        "number": 64,
                        "time": 286.7234375000001,
                        "value": 1
                    },
                    {
                        "number": 64,
                        "time": 287.2554687500001,
                        "value": 0
                    },
                    {
                        "number": 64,
                        "time": 287.30781250000007,
                        "value": 1
                    },
                    {
                        "number": 64,
                        "time": 287.81953125000007,
                        "value": 0
                    },
                    {
                        "number": 64,
                        "time": 287.8617187500001,
                        "value": 1
                    },
                    {
                        "number": 64,
                        "time": 288.38281250000006,
                        "value": 0
                    },
                    {
                        "number": 64,
                        "time": 288.41484375000005,
                        "value": 1
                    },
                    {
                        "number": 64,
                        "time": 288.94531250000006,
                        "value": 0
                    },
                    {
                        "number": 64,
                        "time": 288.97734375000005,
                        "value": 1
                    },
                    {
                        "number": 64,
                        "time": 289.50781250000006,
                        "value": 0
                    },
                    {
                        "number": 64,
                        "time": 289.53984375000005,
                        "value": 1
                    },
                    {
                        "number": 64,
                        "time": 290.07031250000006,
                        "value": 0
                    },
                    {
                        "number": 64,
                        "time": 290.10234375000005,
                        "value": 1
                    },
                    {
                        "number": 64,
                        "time": 290.63281250000006,
                        "value": 0
                    },
                    {
                        "number": 64,
                        "time": 290.66484375000005,
                        "value": 1
                    },
                    {
                        "number": 64,
                        "time": 291.19531250000006,
                        "value": 0
                    },
                    {
                        "number": 64,
                        "time": 291.22734375000005,
                        "value": 1
                    },
                    {
                        "number": 64,
                        "time": 291.75781250000006,
                        "value": 0
                    },
                    {
                        "number": 64,
                        "time": 291.78984375000005,
                        "value": 1
                    },
                    {
                        "number": 64,
                        "time": 292.32031250000006,
                        "value": 0
                    },
                    {
                        "number": 64,
                        "time": 292.35234375000005,
                        "value": 1
                    },
                    {
                        "number": 64,
                        "time": 292.88281250000006,
                        "value": 0
                    },
                    {
                        "number": 64,
                        "time": 292.91484375000005,
                        "value": 1
                    },
                    {
                        "number": 64,
                        "time": 293.43828125000005,
                        "value": 0
                    },
                    {
                        "number": 64,
                        "time": 293.47343750000005,
                        "value": 1
                    },
                    {
                        "number": 64,
                        "time": 294.00468750000005,
                        "value": 0
                    },
                    {
                        "number": 64,
                        "time": 294.04453125000003,
                        "value": 1
                    },
                    {
                        "number": 64,
                        "time": 294.5687500000001,
                        "value": 0
                    },
                    {
                        "number": 64,
                        "time": 294.60078125000007,
                        "value": 1
                    },
                    {
                        "number": 64,
                        "time": 295.12968750000005,
                        "value": 0
                    },
                    {
                        "number": 64,
                        "time": 295.16953125000003,
                        "value": 1
                    },
                    {
                        "number": 64,
                        "time": 295.6937500000001,
                        "value": 0
                    },
                    {
                        "number": 64,
                        "time": 295.75000000000006,
                        "value": 1
                    },
                    {
                        "number": 64,
                        "time": 296.25468750000005,
                        "value": 0
                    },
                    {
                        "number": 64,
                        "time": 296.28984375000005,
                        "value": 1
                    },
                    {
                        "number": 64,
                        "time": 296.8187500000001,
                        "value": 0
                    },
                    {
                        "number": 64,
                        "time": 296.8570312500001,
                        "value": 1
                    },
                    {
                        "number": 64,
                        "time": 297.3828125000001,
                        "value": 0
                    },
                    {
                        "number": 64,
                        "time": 297.4328125000001,
                        "value": 1
                    },
                    {
                        "number": 64,
                        "time": 297.9445312500001,
                        "value": 0
                    },
                    {
                        "number": 64,
                        "time": 297.98203125000015,
                        "value": 1
                    },
                    {
                        "number": 64,
                        "time": 298.50468750000016,
                        "value": 0
                    },
                    {
                        "number": 64,
                        "time": 298.5578125000002,
                        "value": 1
                    },
                    {
                        "number": 64,
                        "time": 299.0687500000002,
                        "value": 0
                    },
                    {
                        "number": 64,
                        "time": 299.1117187500002,
                        "value": 1
                    },
                    {
                        "number": 64,
                        "time": 299.62968750000016,
                        "value": 0
                    },
                    {
                        "number": 64,
                        "time": 299.66953125000015,
                        "value": 1
                    },
                    {
                        "number": 64,
                        "time": 300.18750000000017,
                        "value": 0
                    }
                ],
                "91": [
                    {
                        "number": 91,
                        "time": 3,
                        "value": 1
                    },
                    {
                        "number": 91,
                        "time": 7.500000000000002,
                        "value": 1
                    },
                    {
                        "number": 91,
                        "time": 12.000000000000005,
                        "value": 1
                    },
                    {
                        "number": 91,
                        "time": 16.500000000000007,
                        "value": 1
                    },
                    {
                        "number": 91,
                        "time": 18.75,
                        "value": 1
                    },
                    {
                        "number": 91,
                        "time": 20.999999999999993,
                        "value": 1
                    },
                    {
                        "number": 91,
                        "time": 23.24999999999999,
                        "value": 1
                    },
                    {
                        "number": 91,
                        "time": 25.499999999999982,
                        "value": 1
                    },
                    {
                        "number": 91,
                        "time": 27.749999999999982,
                        "value": 1
                    },
                    {
                        "number": 91,
                        "time": 29.99999999999998,
                        "value": 1
                    },
                    {
                        "number": 91,
                        "time": 32.24999999999997,
                        "value": 1
                    },
                    {
                        "number": 91,
                        "time": 34.49999999999997,
                        "value": 1
                    }
                ]
            },
            "id": 2,
            "name": "Piano left",
            "instrumentNumber": 0,
            "instrument": "acoustic grand piano",
            "instrumentFamily": "piano",
            "channelNumber": 0,
            "isPercussion": false
        },
        {
            "startTime": 0,
            "duration": 0,
            "length": 0,
            "notes": [],
            "controlChanges": {},
            "id": 3,
            "name": "Schumann: Abegg-Variationen "
        },
        {
            "startTime": 0,
            "duration": 0,
            "length": 0,
            "notes": [],
            "controlChanges": {},
            "id": 4,
            "name": "Copyright  2004 by Bernd Krger"
        },
        {
            "startTime": 0,
            "duration": 0,
            "length": 0,
            "notes": [],
            "controlChanges": {},
            "id": 5,
            "name": "http://www.piano-midi.de"
        },
        {
            "startTime": 0,
            "duration": 0,
            "length": 0,
            "notes": [],
            "controlChanges": {},
            "id": 6,
            "name": "Edition:  2014-03-25"
        },
        {
            "startTime": 0,
            "duration": 0,
            "length": 0,
            "notes": [],
            "controlChanges": {},
            "id": 7,
            "name": "Spur 7"
        }
    ]
}