{
    "header": {
        "PPQ": 480,
        "timeSignature": [
            4,
            4
        ],
        "bpm": 112.50007031254394,
        "name": "Sonata D850, 4. movement"
    },
    "startTime": 0,
    "duration": 491.7330260000251,
    "tracks": [
        {
            "startTime": 0,
            "duration": 0,
            "length": 0,
            "notes": [],
            "controlChanges": {},
            "id": 0,
            "name": "Sonata D850, 4. movement"
        },
        {
            "startTime": 3.1999980000000003,
            "duration": 491.73302600001455,
            "length": 3185,
            "notes": [
                {
                    "name": "A5",
                    "midi": 81,
                    "time": 3.1999980000000003,
                    "velocity": 0.4330708661417323,
                    "duration": 0.3999997500000001
                },
                {
                    "name": "B5",
                    "midi": 83,
                    "time": 3.5999977500000004,
                    "velocity": 0.4015748031496063,
                    "duration": 0.13333325000000018
                },
                {
                    "name": "A5",
                    "midi": 81,
                    "time": 3.7333310000000006,
                    "velocity": 0.4330708661417323,
                    "duration": 0.3999997500000001
                },
                {
                    "name": "F#5",
                    "midi": 78,
                    "time": 4.133330750000001,
                    "velocity": 0.3779527559055118,
                    "duration": 0.13333324999999974
                },
                {
                    "name": "D5",
                    "midi": 74,
                    "time": 4.2666640000000005,
                    "velocity": 0.4330708661417323,
                    "duration": 0.26666650000000036
                },
                {
                    "name": "D5",
                    "midi": 74,
                    "time": 4.799997000000001,
                    "velocity": 0.3858267716535433,
                    "duration": 0.26666650000000036
                },
                {
                    "name": "D5",
                    "midi": 74,
                    "time": 5.266663375000001,
                    "velocity": 0.3937007874015748,
                    "duration": 0.06666662499999987
                },
                {
                    "name": "C#5",
                    "midi": 73,
                    "time": 5.333330000000001,
                    "velocity": 0.44881889763779526,
                    "duration": 0.3999997500000001
                },
                {
                    "name": "B4",
                    "midi": 71,
                    "time": 5.733329750000001,
                    "velocity": 0.4015748031496063,
                    "duration": 0.13333324999999974
                },
                {
                    "name": "C#5",
                    "midi": 73,
                    "time": 5.866663000000001,
                    "velocity": 0.4330708661417323,
                    "duration": 0.3999997500000001
                },
                {
                    "name": "E5",
                    "midi": 76,
                    "time": 6.266662750000001,
                    "velocity": 0.4330708661417323,
                    "duration": 0.13333324999999974
                },
                {
                    "name": "A4",
                    "midi": 69,
                    "time": 6.399996000000001,
                    "velocity": 0.47244094488188976,
                    "duration": 0.5333329999999998
                },
                {
                    "name": "D5",
                    "midi": 74,
                    "time": 6.9333290000000005,
                    "velocity": 0.4330708661417323,
                    "duration": 0.26666650000000036
                },
                {
                    "name": "E5",
                    "midi": 76,
                    "time": 7.466662000000001,
                    "velocity": 0.4645669291338583,
                    "duration": 0.3999997500000001
                },
                {
                    "name": "G5",
                    "midi": 79,
                    "time": 7.866661750000001,
                    "velocity": 0.44881889763779526,
                    "duration": 0.05555552083333293
                },
                {
                    "name": "G5",
                    "midi": 79,
                    "time": 7.933328375000001,
                    "velocity": 0.3543307086614173,
                    "duration": 0.06666662499999987
                },
                {
                    "name": "B5",
                    "midi": 83,
                    "time": 7.999995000000001,
                    "velocity": 0.5196850393700787,
                    "duration": 0.3999997500000001
                },
                {
                    "name": "A5",
                    "midi": 81,
                    "time": 8.399994750000001,
                    "velocity": 0.4409448818897638,
                    "duration": 0.12333325624999958
                },
                {
                    "name": "A5",
                    "midi": 81,
                    "time": 8.533328000000001,
                    "velocity": 0.49606299212598426,
                    "duration": 0.2666664999999995
                },
                {
                    "name": "A5",
                    "midi": 81,
                    "time": 9.066661,
                    "velocity": 0.4094488188976378,
                    "duration": 0.2666664999999995
                },
                {
                    "name": "C#6",
                    "midi": 85,
                    "time": 9.533327374999999,
                    "velocity": 0.41732283464566927,
                    "duration": 0.06666662499999987
                },
                {
                    "name": "B5",
                    "midi": 83,
                    "time": 9.599993999999999,
                    "velocity": 0.5354330708661418,
                    "duration": 0.3999997499999992
                },
                {
                    "name": "A#5",
                    "midi": 82,
                    "time": 9.999993749999998,
                    "velocity": 0.44881889763779526,
                    "duration": 0.13333324999999974
                },
                {
                    "name": "B5",
                    "midi": 83,
                    "time": 10.133326999999998,
                    "velocity": 0.5354330708661418,
                    "duration": 0.3999997499999992
                },
                {
                    "name": "D6",
                    "midi": 86,
                    "time": 10.533326749999997,
                    "velocity": 0.5039370078740157,
                    "duration": 0.13333324999999974
                },
                {
                    "name": "A5",
                    "midi": 81,
                    "time": 10.666659999999997,
                    "velocity": 0.5275590551181102,
                    "duration": 1.0666659999999997
                },
                {
                    "name": "A5",
                    "midi": 81,
                    "time": 11.733325999999996,
                    "velocity": 0.4330708661417323,
                    "duration": 0.3999997499999992
                },
                {
                    "name": "B5",
                    "midi": 83,
                    "time": 12.133325749999996,
                    "velocity": 0.3858267716535433,
                    "duration": 0.13333324999999974
                },
                {
                    "name": "A5",
                    "midi": 81,
                    "time": 12.266658999999995,
                    "velocity": 0.47244094488188976,
                    "duration": 0.3999997499999992
                },
                {
                    "name": "F#5",
                    "midi": 78,
                    "time": 12.666658749999995,
                    "velocity": 0.44881889763779526,
                    "duration": 0.13333324999999974
                },
                {
                    "name": "D5",
                    "midi": 74,
                    "time": 12.799991999999994,
                    "velocity": 0.4330708661417323,
                    "duration": 0.2666664999999995
                },
                {
                    "name": "D5",
                    "midi": 74,
                    "time": 13.333324999999993,
                    "velocity": 0.3858267716535433,
                    "duration": 0.2666664999999995
                },
                {
                    "name": "C#5",
                    "midi": 73,
                    "time": 13.866657999999992,
                    "velocity": 0.44881889763779526,
                    "duration": 0.3999997499999992
                },
                {
                    "name": "B4",
                    "midi": 71,
                    "time": 14.266657749999991,
                    "velocity": 0.4015748031496063,
                    "duration": 0.13333324999999974
                },
                {
                    "name": "C#5",
                    "midi": 73,
                    "time": 14.399990999999991,
                    "velocity": 0.4881889763779528,
                    "duration": 0.3999997499999992
                },
                {
                    "name": "F#5",
                    "midi": 78,
                    "time": 14.79999074999999,
                    "velocity": 0.4645669291338583,
                    "duration": 0.12222214583333368
                },
                {
                    "name": "F#5",
                    "midi": 78,
                    "time": 14.93332399999999,
                    "velocity": 0.5433070866141733,
                    "duration": 1.0666659999999997
                },
                {
                    "name": "G5",
                    "midi": 79,
                    "time": 15.99998999999999,
                    "velocity": 0.5433070866141733,
                    "duration": 0.1777776666666675
                },
                {
                    "name": "B5",
                    "midi": 83,
                    "time": 16.177767666666657,
                    "velocity": 0.48031496062992124,
                    "duration": 0.1777776666666675
                },
                {
                    "name": "E6",
                    "midi": 88,
                    "time": 16.355545333333325,
                    "velocity": 0.48031496062992124,
                    "duration": 0.1777776666666675
                },
                {
                    "name": "D6",
                    "midi": 86,
                    "time": 16.534434110416658,
                    "velocity": 0.5433070866141733,
                    "duration": 0.1777776666666675
                },
                {
                    "name": "B5",
                    "midi": 83,
                    "time": 16.71110066666666,
                    "velocity": 0.5118110236220472,
                    "duration": 0.1777776666666675
                },
                {
                    "name": "G5",
                    "midi": 79,
                    "time": 16.888878333333327,
                    "velocity": 0.4566929133858268,
                    "duration": 0.1777776666666675
                },
                {
                    "name": "F#5",
                    "midi": 78,
                    "time": 17.066655999999995,
                    "velocity": 0.48031496062992124,
                    "duration": 0.2666664999999995
                },
                {
                    "name": "F#5",
                    "midi": 78,
                    "time": 17.599988999999994,
                    "velocity": 0.4566929133858268,
                    "duration": 0.2666664999999995
                },
                {
                    "name": "E5",
                    "midi": 76,
                    "time": 18.133321999999993,
                    "velocity": 0.47244094488188976,
                    "duration": 0.1777776666666675
                },
                {
                    "name": "G5",
                    "midi": 79,
                    "time": 18.31109966666666,
                    "velocity": 0.4409448818897638,
                    "duration": 0.1777776666666675
                },
                {
                    "name": "B5",
                    "midi": 83,
                    "time": 18.488877333333328,
                    "velocity": 0.4330708661417323,
                    "duration": 0.1777776666666675
                },
                {
                    "name": "A5",
                    "midi": 81,
                    "time": 18.666654999999995,
                    "velocity": 0.5039370078740157,
                    "duration": 0.1777776666666675
                },
                {
                    "name": "G5",
                    "midi": 79,
                    "time": 18.844432666666663,
                    "velocity": 0.4330708661417323,
                    "duration": 0.1777776666666675
                },
                {
                    "name": "C#5",
                    "midi": 73,
                    "time": 19.02221033333333,
                    "velocity": 0.4409448818897638,
                    "duration": 0.1777776666666675
                },
                {
                    "name": "D5",
                    "midi": 74,
                    "time": 19.199987999999998,
                    "velocity": 0.5275590551181102,
                    "duration": 1.0666660000000014
                },
                {
                    "name": "D4",
                    "midi": 62,
                    "time": 20.266654,
                    "velocity": 0.5354330708661418,
                    "duration": 0.1777776666666675
                },
                {
                    "name": "F#4",
                    "midi": 66,
                    "time": 20.444431666666667,
                    "velocity": 0.4566929133858268,
                    "duration": 0.1777776666666675
                },
                {
                    "name": "B4",
                    "midi": 71,
                    "time": 20.622209333333334,
                    "velocity": 0.4566929133858268,
                    "duration": 0.1777776666666675
                },
                {
                    "name": "A4",
                    "midi": 69,
                    "time": 20.799987,
                    "velocity": 0.5354330708661418,
                    "duration": 0.1777776666666675
                },
                {
                    "name": "F#4",
                    "midi": 66,
                    "time": 20.97776466666667,
                    "velocity": 0.4566929133858268,
                    "duration": 0.1777776666666675
                },
                {
                    "name": "D4",
                    "midi": 62,
                    "time": 21.155542333333337,
                    "velocity": 0.4566929133858268,
                    "duration": 0.1777776666666675
                },
                {
                    "name": "E4",
                    "midi": 64,
                    "time": 21.333320000000004,
                    "velocity": 0.5433070866141733,
                    "duration": 0.2666664999999995
                },
                {
                    "name": "A3",
                    "midi": 57,
                    "time": 21.333320000000004,
                    "velocity": 0.4566929133858268,
                    "duration": 0.2666664999999995
                },
                {
                    "name": "E4",
                    "midi": 64,
                    "time": 21.866653000000003,
                    "velocity": 0.5039370078740157,
                    "duration": 0.2666664999999995
                },
                {
                    "name": "A3",
                    "midi": 57,
                    "time": 21.866653000000003,
                    "velocity": 0.4251968503937008,
                    "duration": 0.2666664999999995
                },
                {
                    "name": "E4",
                    "midi": 64,
                    "time": 22.399986000000002,
                    "velocity": 0.5354330708661418,
                    "duration": 0.1777776666666675
                },
                {
                    "name": "G4",
                    "midi": 67,
                    "time": 22.57776366666667,
                    "velocity": 0.4566929133858268,
                    "duration": 0.1777776666666675
                },
                {
                    "name": "C#5",
                    "midi": 73,
                    "time": 22.755541333333337,
                    "velocity": 0.4566929133858268,
                    "duration": 0.1777776666666675
                },
                {
                    "name": "B4",
                    "midi": 71,
                    "time": 22.933319000000004,
                    "velocity": 0.5354330708661418,
                    "duration": 0.1777776666666675
                },
                {
                    "name": "G4",
                    "midi": 67,
                    "time": 23.111096666666672,
                    "velocity": 0.4566929133858268,
                    "duration": 0.1777776666666675
                },
                {
                    "name": "E4",
                    "midi": 64,
                    "time": 23.28887433333334,
                    "velocity": 0.4566929133858268,
                    "duration": 0.1777776666666675
                },
                {
                    "name": "A3",
                    "midi": 57,
                    "time": 23.466652000000007,
                    "velocity": 0.4094488188976378,
                    "duration": 1.0666660000000014
                },
                {
                    "name": "D4",
                    "midi": 62,
                    "time": 23.466652000000007,
                    "velocity": 0.4094488188976378,
                    "duration": 1.0666660000000014
                },
                {
                    "name": "F#4",
                    "midi": 66,
                    "time": 23.466652000000007,
                    "velocity": 0.4881889763779528,
                    "duration": 1.0666660000000014
                },
                {
                    "name": "D5",
                    "midi": 74,
                    "time": 24.53331800000001,
                    "velocity": 0.5905511811023622,
                    "duration": 0.1777776666666675
                },
                {
                    "name": "F#5",
                    "midi": 78,
                    "time": 24.711095666666676,
                    "velocity": 0.4566929133858268,
                    "duration": 0.1777776666666675
                },
                {
                    "name": "B5",
                    "midi": 83,
                    "time": 24.888873333333343,
                    "velocity": 0.4566929133858268,
                    "duration": 0.1777776666666675
                },
                {
                    "name": "A5",
                    "midi": 81,
                    "time": 25.06665100000001,
                    "velocity": 0.5354330708661418,
                    "duration": 0.1777776666666675
                },
                {
                    "name": "F#5",
                    "midi": 78,
                    "time": 25.24442866666668,
                    "velocity": 0.4566929133858268,
                    "duration": 0.1777776666666675
                },
                {
                    "name": "D5",
                    "midi": 74,
                    "time": 25.422206333333346,
                    "velocity": 0.4566929133858268,
                    "duration": 0.1777776666666675
                },
                {
                    "name": "C#5",
                    "midi": 73,
                    "time": 25.599984000000013,
                    "velocity": 0.5905511811023622,
                    "duration": 0.1777776666666675
                },
                {
                    "name": "A4",
                    "midi": 69,
                    "time": 25.77776166666668,
                    "velocity": 0.4566929133858268,
                    "duration": 0.1777776666666675
                },
                {
                    "name": "F#5",
                    "midi": 78,
                    "time": 25.95553933333335,
                    "velocity": 0.4566929133858268,
                    "duration": 0.1777776666666675
                },
                {
                    "name": "E5",
                    "midi": 76,
                    "time": 26.133317000000016,
                    "velocity": 0.5354330708661418,
                    "duration": 0.1777776666666675
                },
                {
                    "name": "C#5",
                    "midi": 73,
                    "time": 26.311094666666683,
                    "velocity": 0.4566929133858268,
                    "duration": 0.1777776666666675
                },
                {
                    "name": "A4",
                    "midi": 69,
                    "time": 26.48887233333335,
                    "velocity": 0.4566929133858268,
                    "duration": 0.1777776666666675
                },
                {
                    "name": "G#4",
                    "midi": 68,
                    "time": 26.66665000000002,
                    "velocity": 0.5905511811023622,
                    "duration": 0.1777776666666675
                },
                {
                    "name": "E4",
                    "midi": 64,
                    "time": 26.844427666666686,
                    "velocity": 0.4566929133858268,
                    "duration": 0.1777776666666675
                },
                {
                    "name": "G#4",
                    "midi": 68,
                    "time": 27.022205333333353,
                    "velocity": 0.4566929133858268,
                    "duration": 0.1777776666666675
                },
                {
                    "name": "E5",
                    "midi": 76,
                    "time": 27.19998300000002,
                    "velocity": 0.5354330708661418,
                    "duration": 0.1777776666666675
                },
                {
                    "name": "D5",
                    "midi": 74,
                    "time": 27.37776066666669,
                    "velocity": 0.4566929133858268,
                    "duration": 0.1777776666666675
                },
                {
                    "name": "B4",
                    "midi": 71,
                    "time": 27.555538333333356,
                    "velocity": 0.4566929133858268,
                    "duration": 0.1777776666666675
                },
                {
                    "name": "A4",
                    "midi": 69,
                    "time": 27.733316000000023,
                    "velocity": 0.5354330708661418,
                    "duration": 0.533332999999999
                },
                {
                    "name": "C#5",
                    "midi": 73,
                    "time": 28.266649000000022,
                    "velocity": 0.4015748031496063,
                    "duration": 0.2666664999999995
                },
                {
                    "name": "E5",
                    "midi": 76,
                    "time": 28.266649000000022,
                    "velocity": 0.48031496062992124,
                    "duration": 0.2666664999999995
                },
                {
                    "name": "C#5",
                    "midi": 73,
                    "time": 28.79998200000002,
                    "velocity": 0.4015748031496063,
                    "duration": 0.2666664999999995
                },
                {
                    "name": "E5",
                    "midi": 76,
                    "time": 28.79998200000002,
                    "velocity": 0.48031496062992124,
                    "duration": 0.2666664999999995
                },
                {
                    "name": "A4",
                    "midi": 69,
                    "time": 28.79998200000002,
                    "velocity": 0.4015748031496063,
                    "duration": 0.2666664999999995
                },
                {
                    "name": "C#5",
                    "midi": 73,
                    "time": 29.33331500000002,
                    "velocity": 0.4015748031496063,
                    "duration": 0.2666664999999995
                },
                {
                    "name": "E5",
                    "midi": 76,
                    "time": 29.33331500000002,
                    "velocity": 0.48031496062992124,
                    "duration": 0.2666664999999995
                },
                {
                    "name": "D5",
                    "midi": 74,
                    "time": 29.86664800000002,
                    "velocity": 0.4330708661417323,
                    "duration": 0.2666664999999995
                },
                {
                    "name": "F#5",
                    "midi": 78,
                    "time": 29.86664800000002,
                    "velocity": 0.5118110236220472,
                    "duration": 0.2666664999999995
                },
                {
                    "name": "D5",
                    "midi": 74,
                    "time": 30.399981000000018,
                    "velocity": 0.3700787401574803,
                    "duration": 0.2666664999999995
                },
                {
                    "name": "B4",
                    "midi": 71,
                    "time": 30.399981000000018,
                    "velocity": 0.3700787401574803,
                    "duration": 0.2666664999999995
                },
                {
                    "name": "E5",
                    "midi": 76,
                    "time": 30.399981000000018,
                    "velocity": 0.4409448818897638,
                    "duration": 0.2666664999999995
                },
                {
                    "name": "G#4",
                    "midi": 68,
                    "time": 30.933314000000017,
                    "velocity": 0.4015748031496063,
                    "duration": 0.2666664999999995
                },
                {
                    "name": "B4",
                    "midi": 71,
                    "time": 30.933314000000017,
                    "velocity": 0.4015748031496063,
                    "duration": 0.2666664999999995
                },
                {
                    "name": "E5",
                    "midi": 76,
                    "time": 30.933314000000017,
                    "velocity": 0.48031496062992124,
                    "duration": 0.2666664999999995
                },
                {
                    "name": "D5",
                    "midi": 74,
                    "time": 31.466647000000016,
                    "velocity": 0.4015748031496063,
                    "duration": 0.2666664999999995
                },
                {
                    "name": "B4",
                    "midi": 71,
                    "time": 31.466647000000016,
                    "velocity": 0.4015748031496063,
                    "duration": 0.2666664999999995
                },
                {
                    "name": "E5",
                    "midi": 76,
                    "time": 31.466647000000016,
                    "velocity": 0.48031496062992124,
                    "duration": 0.2666664999999995
                },
                {
                    "name": "F#5",
                    "midi": 78,
                    "time": 31.999980000000015,
                    "velocity": 0.5118110236220472,
                    "duration": 0.2666664999999995
                },
                {
                    "name": "C#5",
                    "midi": 73,
                    "time": 31.999980000000015,
                    "velocity": 0.4330708661417323,
                    "duration": 0.2666664999999995
                },
                {
                    "name": "A4",
                    "midi": 69,
                    "time": 31.999980000000015,
                    "velocity": 0.4330708661417323,
                    "duration": 0.2666664999999995
                },
                {
                    "name": "A4",
                    "midi": 69,
                    "time": 32.533313000000014,
                    "velocity": 0.3700787401574803,
                    "duration": 0.2666664999999995
                },
                {
                    "name": "E5",
                    "midi": 76,
                    "time": 32.533313000000014,
                    "velocity": 0.4409448818897638,
                    "duration": 0.2666664999999995
                },
                {
                    "name": "C#5",
                    "midi": 73,
                    "time": 32.533313000000014,
                    "velocity": 0.3700787401574803,
                    "duration": 0.2666664999999995
                },
                {
                    "name": "C#5",
                    "midi": 73,
                    "time": 33.06664600000001,
                    "velocity": 0.3700787401574803,
                    "duration": 0.2666664999999995
                },
                {
                    "name": "A5",
                    "midi": 81,
                    "time": 33.06664600000001,
                    "velocity": 0.4409448818897638,
                    "duration": 0.2666664999999995
                },
                {
                    "name": "E5",
                    "midi": 76,
                    "time": 33.06664600000001,
                    "velocity": 0.3700787401574803,
                    "duration": 0.2666664999999995
                },
                {
                    "name": "A4",
                    "midi": 69,
                    "time": 33.06664600000001,
                    "velocity": 0.3700787401574803,
                    "duration": 0.2666664999999995
                },
                {
                    "name": "C#5",
                    "midi": 73,
                    "time": 33.59997900000001,
                    "velocity": 0.4015748031496063,
                    "duration": 0.2666664999999995
                },
                {
                    "name": "E5",
                    "midi": 76,
                    "time": 33.59997900000001,
                    "velocity": 0.4015748031496063,
                    "duration": 0.2666664999999995
                },
                {
                    "name": "A5",
                    "midi": 81,
                    "time": 33.59997900000001,
                    "velocity": 0.48031496062992124,
                    "duration": 0.2666664999999995
                },
                {
                    "name": "A4",
                    "midi": 69,
                    "time": 33.59997900000001,
                    "velocity": 0.4015748031496063,
                    "duration": 0.2666664999999995
                },
                {
                    "name": "D5",
                    "midi": 74,
                    "time": 34.13331200000001,
                    "velocity": 0.4645669291338583,
                    "duration": 0.2666664999999995
                },
                {
                    "name": "A5",
                    "midi": 81,
                    "time": 34.13331200000001,
                    "velocity": 0.5511811023622047,
                    "duration": 0.2666664999999995
                },
                {
                    "name": "A4",
                    "midi": 69,
                    "time": 34.13331200000001,
                    "velocity": 0.4645669291338583,
                    "duration": 0.2666664999999995
                },
                {
                    "name": "B4",
                    "midi": 71,
                    "time": 34.66664500000001,
                    "velocity": 0.4015748031496063,
                    "duration": 0.2666664999999995
                },
                {
                    "name": "B5",
                    "midi": 83,
                    "time": 34.66664500000001,
                    "velocity": 0.48031496062992124,
                    "duration": 0.2666664999999995
                },
                {
                    "name": "D5",
                    "midi": 74,
                    "time": 34.66664500000001,
                    "velocity": 0.4015748031496063,
                    "duration": 0.2666664999999995
                },
                {
                    "name": "C#5",
                    "midi": 73,
                    "time": 35.19997800000001,
                    "velocity": 0.49606299212598426,
                    "duration": 0.2666664999999995
                },
                {
                    "name": "E5",
                    "midi": 76,
                    "time": 35.19997800000001,
                    "velocity": 0.5826771653543307,
                    "duration": 0.2666664999999995
                },
                {
                    "name": "G#5",
                    "midi": 80,
                    "time": 35.73331100000001,
                    "velocity": 0.4409448818897638,
                    "duration": 0.2666664999999995
                },
                {
                    "name": "G#4",
                    "midi": 68,
                    "time": 35.73331100000001,
                    "velocity": 0.3700787401574803,
                    "duration": 0.2666664999999995
                },
                {
                    "name": "E5",
                    "midi": 76,
                    "time": 35.73331100000001,
                    "velocity": 0.3700787401574803,
                    "duration": 0.2666664999999995
                },
                {
                    "name": "D5",
                    "midi": 74,
                    "time": 35.73331100000001,
                    "velocity": 0.3700787401574803,
                    "duration": 0.2666664999999995
                },
                {
                    "name": "C#5",
                    "midi": 73,
                    "time": 36.26664400000001,
                    "velocity": 0.4015748031496063,
                    "duration": 1.066665999999998
                },
                {
                    "name": "A5",
                    "midi": 81,
                    "time": 36.26664400000001,
                    "velocity": 0.48031496062992124,
                    "duration": 1.066665999999998
                },
                {
                    "name": "E5",
                    "midi": 76,
                    "time": 36.26664400000001,
                    "velocity": 0.4015748031496063,
                    "duration": 1.066665999999998
                },
                {
                    "name": "A4",
                    "midi": 69,
                    "time": 36.26664400000001,
                    "velocity": 0.4015748031496063,
                    "duration": 0.5311107791666672
                },
                {
                    "name": "A5",
                    "midi": 81,
                    "time": 39.46664200000001,
                    "velocity": 0.4330708661417323,
                    "duration": 0.3999997499999992
                },
                {
                    "name": "B5",
                    "midi": 83,
                    "time": 39.86664175000001,
                    "velocity": 0.4015748031496063,
                    "duration": 0.13333324999999974
                },
                {
                    "name": "A5",
                    "midi": 81,
                    "time": 39.999975000000006,
                    "velocity": 0.4330708661417323,
                    "duration": 0.3999997499999992
                },
                {
                    "name": "F#5",
                    "midi": 78,
                    "time": 40.399974750000005,
                    "velocity": 0.3779527559055118,
                    "duration": 0.13333324999999974
                },
                {
                    "name": "D5",
                    "midi": 74,
                    "time": 40.533308000000005,
                    "velocity": 0.4330708661417323,
                    "duration": 0.2666664999999995
                },
                {
                    "name": "D5",
                    "midi": 74,
                    "time": 41.066641000000004,
                    "velocity": 0.3858267716535433,
                    "duration": 0.2666664999999995
                },
                {
                    "name": "D5",
                    "midi": 74,
                    "time": 41.53330737500001,
                    "velocity": 0.3937007874015748,
                    "duration": 0.06666662500000342
                },
                {
                    "name": "C#5",
                    "midi": 73,
                    "time": 41.59997400000001,
                    "velocity": 0.44881889763779526,
                    "duration": 0.3999997499999992
                },
                {
                    "name": "B4",
                    "midi": 71,
                    "time": 41.99997375000001,
                    "velocity": 0.4015748031496063,
                    "duration": 0.13333324999999974
                },
                {
                    "name": "C#5",
                    "midi": 73,
                    "time": 42.13330700000001,
                    "velocity": 0.4330708661417323,
                    "duration": 0.3999997499999992
                },
                {
                    "name": "E5",
                    "midi": 76,
                    "time": 42.53330675000001,
                    "velocity": 0.4330708661417323,
                    "duration": 0.13333324999999974
                },
                {
                    "name": "A4",
                    "midi": 69,
                    "time": 42.66664000000001,
                    "velocity": 0.47244094488188976,
                    "duration": 0.533332999999999
                },
                {
                    "name": "D5",
                    "midi": 74,
                    "time": 43.19997300000001,
                    "velocity": 0.4330708661417323,
                    "duration": 0.2666664999999995
                },
                {
                    "name": "E5",
                    "midi": 76,
                    "time": 43.733306000000006,
                    "velocity": 0.4645669291338583,
                    "duration": 0.3999997499999992
                },
                {
                    "name": "G5",
                    "midi": 79,
                    "time": 44.133305750000005,
                    "velocity": 0.44881889763779526,
                    "duration": 0.05555552083333026
                },
                {
                    "name": "G5",
                    "midi": 79,
                    "time": 44.199972375,
                    "velocity": 0.3543307086614173,
                    "duration": 0.06666662500000342
                },
                {
                    "name": "B5",
                    "midi": 83,
                    "time": 44.266639000000005,
                    "velocity": 0.5196850393700787,
                    "duration": 0.3999997499999992
                },
                {
                    "name": "A5",
                    "midi": 81,
                    "time": 44.666638750000004,
                    "velocity": 0.4409448818897638,
                    "duration": 0.12222214583333368
                },
                {
                    "name": "A5",
                    "midi": 81,
                    "time": 44.799972000000004,
                    "velocity": 0.5196850393700787,
                    "duration": 0.2666664999999995
                },
                {
                    "name": "A5",
                    "midi": 81,
                    "time": 45.333305,
                    "velocity": 0.4251968503937008,
                    "duration": 0.2666664999999995
                },
                {
                    "name": "C#6",
                    "midi": 85,
                    "time": 45.799971375000005,
                    "velocity": 0.41732283464566927,
                    "duration": 0.06666662500000342
                },
                {
                    "name": "B5",
                    "midi": 83,
                    "time": 45.86663800000001,
                    "velocity": 0.5354330708661418,
                    "duration": 0.3999997499999992
                },
                {
                    "name": "A#5",
                    "midi": 82,
                    "time": 46.26663775000001,
                    "velocity": 0.44881889763779526,
                    "duration": 0.13333324999999974
                },
                {
                    "name": "B5",
                    "midi": 83,
                    "time": 46.39997100000001,
                    "velocity": 0.5354330708661418,
                    "duration": 0.3999997499999992
                },
                {
                    "name": "D6",
                    "midi": 86,
                    "time": 46.79997075000001,
                    "velocity": 0.5196850393700787,
                    "duration": 0.13333324999999974
                },
                {
                    "name": "A5",
                    "midi": 81,
                    "time": 46.93330400000001,
                    "velocity": 0.5511811023622047,
                    "duration": 1.066665999999998
                },
                {
                    "name": "A5",
                    "midi": 81,
                    "time": 47.999970000000005,
                    "velocity": 0.3858267716535433,
                    "duration": 0.3999997499999992
                },
                {
                    "name": "A#5",
                    "midi": 82,
                    "time": 48.399969750000004,
                    "velocity": 0.3464566929133858,
                    "duration": 0.13333324999999974
                },
                {
                    "name": "A5",
                    "midi": 81,
                    "time": 48.533303000000004,
                    "velocity": 0.41732283464566927,
                    "duration": 0.3999997499999992
                },
                {
                    "name": "F5",
                    "midi": 77,
                    "time": 48.93330275,
                    "velocity": 0.3937007874015748,
                    "duration": 0.13333324999999974
                },
                {
                    "name": "D5",
                    "midi": 74,
                    "time": 49.066636,
                    "velocity": 0.3858267716535433,
                    "duration": 0.2666664999999995
                },
                {
                    "name": "D5",
                    "midi": 74,
                    "time": 49.599969,
                    "velocity": 0.3464566929133858,
                    "duration": 0.2666664999999995
                },
                {
                    "name": "D5",
                    "midi": 74,
                    "time": 50.066635375000004,
                    "velocity": 0.4094488188976378,
                    "duration": 0.06666662500000342
                },
                {
                    "name": "F5",
                    "midi": 77,
                    "time": 50.13330200000001,
                    "velocity": 0.4094488188976378,
                    "duration": 0.3999997499999992
                },
                {
                    "name": "A4",
                    "midi": 69,
                    "time": 50.13330200000001,
                    "velocity": 0.4094488188976378,
                    "duration": 0.3999997499999992
                },
                {
                    "name": "F5",
                    "midi": 77,
                    "time": 50.66663500000001,
                    "velocity": 0.44881889763779526,
                    "duration": 0.3999997499999992
                },
                {
                    "name": "A4",
                    "midi": 69,
                    "time": 50.66663500000001,
                    "velocity": 0.44881889763779526,
                    "duration": 0.3999997499999992
                },
                {
                    "name": "F5",
                    "midi": 77,
                    "time": 51.199968000000005,
                    "velocity": 0.5118110236220472,
                    "duration": 0.533332999999999
                },
                {
                    "name": "A#4",
                    "midi": 70,
                    "time": 51.199968000000005,
                    "velocity": 0.4330708661417323,
                    "duration": 0.533332999999999
                },
                {
                    "name": "A#5",
                    "midi": 82,
                    "time": 51.733301000000004,
                    "velocity": 0.5118110236220472,
                    "duration": 0.2666664999999995
                },
                {
                    "name": "D6",
                    "midi": 86,
                    "time": 52.266634,
                    "velocity": 0.5590551181102362,
                    "duration": 0.17777766666666395
                },
                {
                    "name": "E6",
                    "midi": 88,
                    "time": 52.44441166666667,
                    "velocity": 0.4645669291338583,
                    "duration": 0.17777766666666395
                },
                {
                    "name": "C#6",
                    "midi": 85,
                    "time": 52.62218933333333,
                    "velocity": 0.5511811023622047,
                    "duration": 0.17777766666666395
                },
                {
                    "name": "D6",
                    "midi": 86,
                    "time": 52.80107811041666,
                    "velocity": 0.5748031496062992,
                    "duration": 0.17777766666666395
                },
                {
                    "name": "E6",
                    "midi": 88,
                    "time": 52.97774466666666,
                    "velocity": 0.5984251968503937,
                    "duration": 0.17777766666666395
                },
                {
                    "name": "F6",
                    "midi": 89,
                    "time": 53.15552233333332,
                    "velocity": 0.49606299212598426,
                    "duration": 0.17777766666666395
                },
                {
                    "name": "A5",
                    "midi": 81,
                    "time": 53.33329999999999,
                    "velocity": 0.5669291338582677,
                    "duration": 0.2666664999999995
                },
                {
                    "name": "A5",
                    "midi": 81,
                    "time": 53.866632999999986,
                    "velocity": 0.5118110236220472,
                    "duration": 0.533332999999999
                },
                {
                    "name": "E5",
                    "midi": 76,
                    "time": 54.399965999999985,
                    "velocity": 0.5511811023622047,
                    "duration": 0.17777766666666395
                },
                {
                    "name": "G5",
                    "midi": 79,
                    "time": 54.57774366666665,
                    "velocity": 0.49606299212598426,
                    "duration": 0.17777766666666395
                },
                {
                    "name": "B5",
                    "midi": 83,
                    "time": 54.75552133333331,
                    "velocity": 0.41732283464566927,
                    "duration": 0.17777766666666395
                },
                {
                    "name": "A5",
                    "midi": 81,
                    "time": 54.93329899999998,
                    "velocity": 0.5511811023622047,
                    "duration": 0.17777766666666395
                },
                {
                    "name": "G5",
                    "midi": 79,
                    "time": 55.11107666666664,
                    "velocity": 0.47244094488188976,
                    "duration": 0.17777766666666395
                },
                {
                    "name": "C#5",
                    "midi": 73,
                    "time": 55.288854333333305,
                    "velocity": 0.47244094488188976,
                    "duration": 0.17777766666666395
                },
                {
                    "name": "A5",
                    "midi": 81,
                    "time": 55.46663199999997,
                    "velocity": 0.5511811023622047,
                    "duration": 1.066665999999998
                },
                {
                    "name": "G5",
                    "midi": 79,
                    "time": 56.53329799999997,
                    "velocity": 0.5196850393700787,
                    "duration": 0.17777766666666395
                },
                {
                    "name": "B5",
                    "midi": 83,
                    "time": 56.71107566666663,
                    "velocity": 0.4645669291338583,
                    "duration": 0.17777766666666395
                },
                {
                    "name": "E6",
                    "midi": 88,
                    "time": 56.888853333333294,
                    "velocity": 0.4645669291338583,
                    "duration": 0.17777766666666395
                },
                {
                    "name": "D6",
                    "midi": 86,
                    "time": 57.067742110416624,
                    "velocity": 0.5196850393700787,
                    "duration": 0.17777766666666395
                },
                {
                    "name": "B5",
                    "midi": 83,
                    "time": 57.24440866666662,
                    "velocity": 0.4881889763779528,
                    "duration": 0.17777766666666395
                },
                {
                    "name": "G5",
                    "midi": 79,
                    "time": 57.422186333333286,
                    "velocity": 0.4409448818897638,
                    "duration": 0.17777766666666395
                },
                {
                    "name": "F#5",
                    "midi": 78,
                    "time": 57.59996399999995,
                    "velocity": 0.48031496062992124,
                    "duration": 0.13333324999999974
                },
                {
                    "name": "A5",
                    "midi": 81,
                    "time": 57.73329724999995,
                    "velocity": 0.5196850393700787,
                    "duration": 0.2666664999999995
                },
                {
                    "name": "A5",
                    "midi": 81,
                    "time": 58.13329699999995,
                    "velocity": 0.5275590551181102,
                    "duration": 0.533332999999999
                },
                {
                    "name": "E5",
                    "midi": 76,
                    "time": 58.66662999999995,
                    "velocity": 0.5039370078740157,
                    "duration": 0.17777766666666395
                },
                {
                    "name": "G5",
                    "midi": 79,
                    "time": 58.84440766666661,
                    "velocity": 0.4645669291338583,
                    "duration": 0.17777766666666395
                },
                {
                    "name": "B5",
                    "midi": 83,
                    "time": 59.022185333333276,
                    "velocity": 0.41732283464566927,
                    "duration": 0.17777766666666395
                },
                {
                    "name": "A5",
                    "midi": 81,
                    "time": 59.19996299999994,
                    "velocity": 0.5275590551181102,
                    "duration": 0.17777766666666395
                },
                {
                    "name": "G5",
                    "midi": 79,
                    "time": 59.377740666666604,
                    "velocity": 0.4645669291338583,
                    "duration": 0.17777766666666395
                },
                {
                    "name": "C#5",
                    "midi": 73,
                    "time": 59.55551833333327,
                    "velocity": 0.4645669291338583,
                    "duration": 0.17777766666666395
                },
                {
                    "name": "D5",
                    "midi": 74,
                    "time": 59.73329599999993,
                    "velocity": 0.5275590551181102,
                    "duration": 1.066665999999998
                },
                {
                    "name": "D4",
                    "midi": 62,
                    "time": 60.79996199999993,
                    "velocity": 0.5354330708661418,
                    "duration": 0.17777766666666395
                },
                {
                    "name": "F#4",
                    "midi": 66,
                    "time": 60.977739666666594,
                    "velocity": 0.4566929133858268,
                    "duration": 0.17777766666666395
                },
                {
                    "name": "B4",
                    "midi": 71,
                    "time": 61.15551733333326,
                    "velocity": 0.4566929133858268,
                    "duration": 0.17777766666666395
                },
                {
                    "name": "A4",
                    "midi": 69,
                    "time": 61.33329499999992,
                    "velocity": 0.5354330708661418,
                    "duration": 0.17777766666666395
                },
                {
                    "name": "F#4",
                    "midi": 66,
                    "time": 61.511072666666585,
                    "velocity": 0.4566929133858268,
                    "duration": 0.17777766666666395
                },
                {
                    "name": "D4",
                    "midi": 62,
                    "time": 61.68885033333325,
                    "velocity": 0.4566929133858268,
                    "duration": 0.17777766666666395
                },
                {
                    "name": "E4",
                    "midi": 64,
                    "time": 61.86662799999991,
                    "velocity": 0.5433070866141733,
                    "duration": 0.2666664999999995
                },
                {
                    "name": "A3",
                    "midi": 57,
                    "time": 61.86662799999991,
                    "velocity": 0.4566929133858268,
                    "duration": 0.2666664999999995
                },
                {
                    "name": "E4",
                    "midi": 64,
                    "time": 62.39996099999991,
                    "velocity": 0.5039370078740157,
                    "duration": 0.2666664999999995
                },
                {
                    "name": "A3",
                    "midi": 57,
                    "time": 62.39996099999991,
                    "velocity": 0.4251968503937008,
                    "duration": 0.2666664999999995
                },
                {
                    "name": "E4",
                    "midi": 64,
                    "time": 62.93329399999991,
                    "velocity": 0.5354330708661418,
                    "duration": 0.17777766666666395
                },
                {
                    "name": "G4",
                    "midi": 67,
                    "time": 63.111071666666575,
                    "velocity": 0.4566929133858268,
                    "duration": 0.17777766666666395
                },
                {
                    "name": "C#5",
                    "midi": 73,
                    "time": 63.28884933333324,
                    "velocity": 0.4566929133858268,
                    "duration": 0.17777766666666395
                },
                {
                    "name": "B4",
                    "midi": 71,
                    "time": 63.4666269999999,
                    "velocity": 0.5354330708661418,
                    "duration": 0.17777766666666395
                },
                {
                    "name": "G4",
                    "midi": 67,
                    "time": 63.64440466666657,
                    "velocity": 0.4566929133858268,
                    "duration": 0.17777766666666395
                },
                {
                    "name": "E4",
                    "midi": 64,
                    "time": 63.82218233333323,
                    "velocity": 0.4566929133858268,
                    "duration": 0.17777766666666395
                },
                {
                    "name": "F#4",
                    "midi": 66,
                    "time": 63.999959999999895,
                    "velocity": 0.4881889763779528,
                    "duration": 1.066666000000005
                },
                {
                    "name": "A3",
                    "midi": 57,
                    "time": 63.999959999999895,
                    "velocity": 0.4094488188976378,
                    "duration": 1.066666000000005
                },
                {
                    "name": "D4",
                    "midi": 62,
                    "time": 63.999959999999895,
                    "velocity": 0.4094488188976378,
                    "duration": 1.066666000000005
                },
                {
                    "name": "D5",
                    "midi": 74,
                    "time": 65.0666259999999,
                    "velocity": 0.5905511811023622,
                    "duration": 0.17777766666667105
                },
                {
                    "name": "F#5",
                    "midi": 78,
                    "time": 65.24440366666657,
                    "velocity": 0.4566929133858268,
                    "duration": 0.17777766666667105
                },
                {
                    "name": "B5",
                    "midi": 83,
                    "time": 65.42218133333324,
                    "velocity": 0.4566929133858268,
                    "duration": 0.17777766666667105
                },
                {
                    "name": "A5",
                    "midi": 81,
                    "time": 65.59995899999991,
                    "velocity": 0.5354330708661418,
                    "duration": 0.17777766666667105
                },
                {
                    "name": "F#5",
                    "midi": 78,
                    "time": 65.77773666666658,
                    "velocity": 0.4566929133858268,
                    "duration": 0.17777766666667105
                },
                {
                    "name": "D5",
                    "midi": 74,
                    "time": 65.95551433333326,
                    "velocity": 0.4566929133858268,
                    "duration": 0.17777766666667105
                },
                {
                    "name": "C#5",
                    "midi": 73,
                    "time": 66.13329199999993,
                    "velocity": 0.5905511811023622,
                    "duration": 0.17777766666667105
                },
                {
                    "name": "A4",
                    "midi": 69,
                    "time": 66.3110696666666,
                    "velocity": 0.4566929133858268,
                    "duration": 0.17777766666667105
                },
                {
                    "name": "F#5",
                    "midi": 78,
                    "time": 66.48884733333327,
                    "velocity": 0.4566929133858268,
                    "duration": 0.17777766666667105
                },
                {
                    "name": "E5",
                    "midi": 76,
                    "time": 66.66662499999994,
                    "velocity": 0.5354330708661418,
                    "duration": 0.17777766666667105
                },
                {
                    "name": "C#5",
                    "midi": 73,
                    "time": 66.84440266666661,
                    "velocity": 0.4566929133858268,
                    "duration": 0.17777766666667105
                },
                {
                    "name": "A4",
                    "midi": 69,
                    "time": 67.02218033333328,
                    "velocity": 0.4566929133858268,
                    "duration": 0.17777766666667105
                },
                {
                    "name": "G#4",
                    "midi": 68,
                    "time": 67.19995799999995,
                    "velocity": 0.5905511811023622,
                    "duration": 0.17777766666667105
                },
                {
                    "name": "E4",
                    "midi": 64,
                    "time": 67.37773566666662,
                    "velocity": 0.4566929133858268,
                    "duration": 0.17777766666667105
                },
                {
                    "name": "G#4",
                    "midi": 68,
                    "time": 67.5555133333333,
                    "velocity": 0.4566929133858268,
                    "duration": 0.17777766666667105
                },
                {
                    "name": "E5",
                    "midi": 76,
                    "time": 67.73329099999997,
                    "velocity": 0.5354330708661418,
                    "duration": 0.17777766666667105
                },
                {
                    "name": "D5",
                    "midi": 74,
                    "time": 67.91106866666664,
                    "velocity": 0.4566929133858268,
                    "duration": 0.17777766666667105
                },
                {
                    "name": "B4",
                    "midi": 71,
                    "time": 68.08884633333331,
                    "velocity": 0.4566929133858268,
                    "duration": 0.17777766666667105
                },
                {
                    "name": "A4",
                    "midi": 69,
                    "time": 68.26662399999998,
                    "velocity": 0.5354330708661418,
                    "duration": 0.533332999999999
                },
                {
                    "name": "C#5",
                    "midi": 73,
                    "time": 68.79995699999998,
                    "velocity": 0.4015748031496063,
                    "duration": 0.2666664999999995
                },
                {
                    "name": "E5",
                    "midi": 76,
                    "time": 68.79995699999998,
                    "velocity": 0.48031496062992124,
                    "duration": 0.2666664999999995
                },
                {
                    "name": "A4",
                    "midi": 69,
                    "time": 69.33328999999998,
                    "velocity": 0.4015748031496063,
                    "duration": 0.2666664999999995
                },
                {
                    "name": "E5",
                    "midi": 76,
                    "time": 69.33328999999998,
                    "velocity": 0.48031496062992124,
                    "duration": 0.2666664999999995
                },
                {
                    "name": "C#5",
                    "midi": 73,
                    "time": 69.33328999999998,
                    "velocity": 0.4015748031496063,
                    "duration": 0.2666664999999995
                },
                {
                    "name": "C#5",
                    "midi": 73,
                    "time": 69.86662299999998,
                    "velocity": 0.4015748031496063,
                    "duration": 0.2666664999999995
                },
                {
                    "name": "E5",
                    "midi": 76,
                    "time": 69.86662299999998,
                    "velocity": 0.48031496062992124,
                    "duration": 0.2666664999999995
                },
                {
                    "name": "F#5",
                    "midi": 78,
                    "time": 70.39995599999997,
                    "velocity": 0.5118110236220472,
                    "duration": 0.2666664999999995
                },
                {
                    "name": "D5",
                    "midi": 74,
                    "time": 70.39995599999997,
                    "velocity": 0.4330708661417323,
                    "duration": 0.2666664999999995
                },
                {
                    "name": "B4",
                    "midi": 71,
                    "time": 70.93328899999997,
                    "velocity": 0.3700787401574803,
                    "duration": 0.2666664999999995
                },
                {
                    "name": "E5",
                    "midi": 76,
                    "time": 70.93328899999997,
                    "velocity": 0.4409448818897638,
                    "duration": 0.2666664999999995
                },
                {
                    "name": "D5",
                    "midi": 74,
                    "time": 70.93328899999997,
                    "velocity": 0.3700787401574803,
                    "duration": 0.2666664999999995
                },
                {
                    "name": "B4",
                    "midi": 71,
                    "time": 71.46662199999997,
                    "velocity": 0.4015748031496063,
                    "duration": 0.2666664999999995
                },
                {
                    "name": "E5",
                    "midi": 76,
                    "time": 71.46662199999997,
                    "velocity": 0.48031496062992124,
                    "duration": 0.2666664999999995
                },
                {
                    "name": "G#4",
                    "midi": 68,
                    "time": 71.46662199999997,
                    "velocity": 0.4015748031496063,
                    "duration": 0.2666664999999995
                },
                {
                    "name": "B4",
                    "midi": 71,
                    "time": 71.99995499999997,
                    "velocity": 0.4015748031496063,
                    "duration": 0.2666664999999995
                },
                {
                    "name": "E5",
                    "midi": 76,
                    "time": 71.99995499999997,
                    "velocity": 0.48031496062992124,
                    "duration": 0.2666664999999995
                },
                {
                    "name": "D5",
                    "midi": 74,
                    "time": 71.99995499999997,
                    "velocity": 0.4015748031496063,
                    "duration": 0.2666664999999995
                },
                {
                    "name": "F#5",
                    "midi": 78,
                    "time": 72.53328799999997,
                    "velocity": 0.5118110236220472,
                    "duration": 0.2666664999999995
                },
                {
                    "name": "A4",
                    "midi": 69,
                    "time": 72.53328799999997,
                    "velocity": 0.4330708661417323,
                    "duration": 0.2666664999999995
                },
                {
                    "name": "C#5",
                    "midi": 73,
                    "time": 72.53328799999997,
                    "velocity": 0.4330708661417323,
                    "duration": 0.2666664999999995
                },
                {
                    "name": "C#5",
                    "midi": 73,
                    "time": 73.06662099999997,
                    "velocity": 0.3700787401574803,
                    "duration": 0.2666664999999995
                },
                {
                    "name": "E5",
                    "midi": 76,
                    "time": 73.06662099999997,
                    "velocity": 0.4409448818897638,
                    "duration": 0.2666664999999995
                },
                {
                    "name": "A4",
                    "midi": 69,
                    "time": 73.06662099999997,
                    "velocity": 0.3700787401574803,
                    "duration": 0.2666664999999995
                },
                {
                    "name": "A5",
                    "midi": 81,
                    "time": 73.59995399999997,
                    "velocity": 0.4409448818897638,
                    "duration": 0.2666664999999995
                },
                {
                    "name": "E5",
                    "midi": 76,
                    "time": 73.59995399999997,
                    "velocity": 0.3700787401574803,
                    "duration": 0.2666664999999995
                },
                {
                    "name": "A4",
                    "midi": 69,
                    "time": 73.59995399999997,
                    "velocity": 0.3700787401574803,
                    "duration": 0.2666664999999995
                },
                {
                    "name": "C#5",
                    "midi": 73,
                    "time": 73.59995399999997,
                    "velocity": 0.3700787401574803,
                    "duration": 0.2666664999999995
                },
                {
                    "name": "C#5",
                    "midi": 73,
                    "time": 74.13328699999997,
                    "velocity": 0.4015748031496063,
                    "duration": 0.2666664999999995
                },
                {
                    "name": "A5",
                    "midi": 81,
                    "time": 74.13328699999997,
                    "velocity": 0.48031496062992124,
                    "duration": 0.2666664999999995
                },
                {
                    "name": "A4",
                    "midi": 69,
                    "time": 74.13328699999997,
                    "velocity": 0.4015748031496063,
                    "duration": 0.2666664999999995
                },
                {
                    "name": "E5",
                    "midi": 76,
                    "time": 74.13328699999997,
                    "velocity": 0.4015748031496063,
                    "duration": 0.2666664999999995
                },
                {
                    "name": "D5",
                    "midi": 74,
                    "time": 74.66661999999997,
                    "velocity": 0.4645669291338583,
                    "duration": 0.2666664999999995
                },
                {
                    "name": "A4",
                    "midi": 69,
                    "time": 74.66661999999997,
                    "velocity": 0.4645669291338583,
                    "duration": 0.2666664999999995
                },
                {
                    "name": "A5",
                    "midi": 81,
                    "time": 74.66661999999997,
                    "velocity": 0.5511811023622047,
                    "duration": 0.2666664999999995
                },
                {
                    "name": "D5",
                    "midi": 74,
                    "time": 75.19995299999997,
                    "velocity": 0.4015748031496063,
                    "duration": 0.2666664999999995
                },
                {
                    "name": "B4",
                    "midi": 71,
                    "time": 75.19995299999997,
                    "velocity": 0.4015748031496063,
                    "duration": 0.2666664999999995
                },
                {
                    "name": "B5",
                    "midi": 83,
                    "time": 75.19995299999997,
                    "velocity": 0.48031496062992124,
                    "duration": 0.2666664999999995
                },
                {
                    "name": "E5",
                    "midi": 76,
                    "time": 75.73328599999996,
                    "velocity": 0.5826771653543307,
                    "duration": 0.2666664999999995
                },
                {
                    "name": "C#5",
                    "midi": 73,
                    "time": 75.73328599999996,
                    "velocity": 0.49606299212598426,
                    "duration": 0.2666664999999995
                },
                {
                    "name": "D5",
                    "midi": 74,
                    "time": 76.26661899999996,
                    "velocity": 0.3700787401574803,
                    "duration": 0.2666664999999995
                },
                {
                    "name": "G#5",
                    "midi": 80,
                    "time": 76.26661899999996,
                    "velocity": 0.4409448818897638,
                    "duration": 0.2666664999999995
                },
                {
                    "name": "G#4",
                    "midi": 68,
                    "time": 76.26661899999996,
                    "velocity": 0.3700787401574803,
                    "duration": 0.2666664999999995
                },
                {
                    "name": "E5",
                    "midi": 76,
                    "time": 76.26661899999996,
                    "velocity": 0.3700787401574803,
                    "duration": 0.2666664999999995
                },
                {
                    "name": "A5",
                    "midi": 81,
                    "time": 76.79995199999996,
                    "velocity": 0.48031496062992124,
                    "duration": 1.066665999999998
                },
                {
                    "name": "E5",
                    "midi": 76,
                    "time": 76.79995199999996,
                    "velocity": 0.4015748031496063,
                    "duration": 1.066665999999998
                },
                {
                    "name": "A4",
                    "midi": 69,
                    "time": 76.79995199999996,
                    "velocity": 0.4015748031496063,
                    "duration": 0.5311107791666672
                },
                {
                    "name": "C#5",
                    "midi": 73,
                    "time": 76.79995199999996,
                    "velocity": 0.4015748031496063,
                    "duration": 1.066665999999998
                },
                {
                    "name": "A5",
                    "midi": 81,
                    "time": 79.99994999999996,
                    "velocity": 0.4330708661417323,
                    "duration": 0.3999997500000063
                },
                {
                    "name": "B5",
                    "midi": 83,
                    "time": 80.39994974999996,
                    "velocity": 0.4015748031496063,
                    "duration": 0.13333325000000684
                },
                {
                    "name": "A5",
                    "midi": 81,
                    "time": 80.53328299999997,
                    "velocity": 0.4330708661417323,
                    "duration": 0.3999997500000063
                },
                {
                    "name": "F#5",
                    "midi": 78,
                    "time": 80.93328274999998,
                    "velocity": 0.3779527559055118,
                    "duration": 0.13333325000000684
                },
                {
                    "name": "D5",
                    "midi": 74,
                    "time": 81.06661599999998,
                    "velocity": 0.4330708661417323,
                    "duration": 0.2666664999999995
                },
                {
                    "name": "D5",
                    "midi": 74,
                    "time": 81.59994899999998,
                    "velocity": 0.3858267716535433,
                    "duration": 0.2666664999999995
                },
                {
                    "name": "D5",
                    "midi": 74,
                    "time": 82.06661537499998,
                    "velocity": 0.3937007874015748,
                    "duration": 0.06666662499999632
                },
                {
                    "name": "C#5",
                    "midi": 73,
                    "time": 82.13328199999998,
                    "velocity": 0.44881889763779526,
                    "duration": 0.3999997500000063
                },
                {
                    "name": "B4",
                    "midi": 71,
                    "time": 82.53328174999999,
                    "velocity": 0.4015748031496063,
                    "duration": 0.13333325000000684
                },
                {
                    "name": "C#5",
                    "midi": 73,
                    "time": 82.666615,
                    "velocity": 0.4330708661417323,
                    "duration": 0.3999997500000063
                },
                {
                    "name": "E5",
                    "midi": 76,
                    "time": 83.06661475,
                    "velocity": 0.4330708661417323,
                    "duration": 0.13333325000000684
                },
                {
                    "name": "A4",
                    "midi": 69,
                    "time": 83.199948,
                    "velocity": 0.47244094488188976,
                    "duration": 0.533332999999999
                },
                {
                    "name": "D5",
                    "midi": 74,
                    "time": 83.733281,
                    "velocity": 0.4330708661417323,
                    "duration": 0.2666664999999995
                },
                {
                    "name": "E5",
                    "midi": 76,
                    "time": 84.266614,
                    "velocity": 0.4645669291338583,
                    "duration": 0.3999997500000063
                },
                {
                    "name": "G5",
                    "midi": 79,
                    "time": 84.66661375000001,
                    "velocity": 0.44881889763779526,
                    "duration": 0.05555552083333737
                },
                {
                    "name": "G5",
                    "midi": 79,
                    "time": 84.73328037500002,
                    "velocity": 0.3543307086614173,
                    "duration": 0.06666662499999632
                },
                {
                    "name": "B5",
                    "midi": 83,
                    "time": 84.79994700000002,
                    "velocity": 0.5196850393700787,
                    "duration": 0.3977775291666603
                },
                {
                    "name": "A5",
                    "midi": 81,
                    "time": 85.19994675000001,
                    "velocity": 0.4409448818897638,
                    "duration": 0.12222214583333368
                },
                {
                    "name": "A5",
                    "midi": 81,
                    "time": 85.33328000000002,
                    "velocity": 0.5196850393700787,
                    "duration": 0.2666664999999995
                },
                {
                    "name": "A5",
                    "midi": 81,
                    "time": 85.86661300000002,
                    "velocity": 0.4251968503937008,
                    "duration": 0.2666664999999995
                },
                {
                    "name": "C#6",
                    "midi": 85,
                    "time": 86.33327937500002,
                    "velocity": 0.41732283464566927,
                    "duration": 0.06666662499999632
                },
                {
                    "name": "B5",
                    "midi": 83,
                    "time": 86.39994600000001,
                    "velocity": 0.5354330708661418,
                    "duration": 0.3999997500000063
                },
                {
                    "name": "A#5",
                    "midi": 82,
                    "time": 86.79994575000002,
                    "velocity": 0.44881889763779526,
                    "duration": 0.13333325000000684
                },
                {
                    "name": "B5",
                    "midi": 83,
                    "time": 86.93327900000003,
                    "velocity": 0.5354330708661418,
                    "duration": 0.3999997500000063
                },
                {
                    "name": "D6",
                    "midi": 86,
                    "time": 87.33327875000003,
                    "velocity": 0.5196850393700787,
                    "duration": 0.13333325000000684
                },
                {
                    "name": "A5",
                    "midi": 81,
                    "time": 87.46661200000004,
                    "velocity": 0.5511811023622047,
                    "duration": 1.066665999999998
                },
                {
                    "name": "A5",
                    "midi": 81,
                    "time": 88.53327800000004,
                    "velocity": 0.3858267716535433,
                    "duration": 0.3999997500000063
                },
                {
                    "name": "A#5",
                    "midi": 82,
                    "time": 88.93327775000004,
                    "velocity": 0.3464566929133858,
                    "duration": 0.13333325000000684
                },
                {
                    "name": "A5",
                    "midi": 81,
                    "time": 89.06661100000005,
                    "velocity": 0.41732283464566927,
                    "duration": 0.3999997500000063
                },
                {
                    "name": "F5",
                    "midi": 77,
                    "time": 89.46661075000006,
                    "velocity": 0.3937007874015748,
                    "duration": 0.13333325000000684
                },
                {
                    "name": "D5",
                    "midi": 74,
                    "time": 89.59994400000006,
                    "velocity": 0.3858267716535433,
                    "duration": 0.2666664999999995
                },
                {
                    "name": "D5",
                    "midi": 74,
                    "time": 90.13327700000006,
                    "velocity": 0.3464566929133858,
                    "duration": 0.2666664999999995
                },
                {
                    "name": "D5",
                    "midi": 74,
                    "time": 90.59994337500007,
                    "velocity": 0.4094488188976378,
                    "duration": 0.06666662499999632
                },
                {
                    "name": "F5",
                    "midi": 77,
                    "time": 90.66661000000006,
                    "velocity": 0.4094488188976378,
                    "duration": 0.3999997500000063
                },
                {
                    "name": "A4",
                    "midi": 69,
                    "time": 90.66661000000006,
                    "velocity": 0.4094488188976378,
                    "duration": 0.3999997500000063
                },
                {
                    "name": "A4",
                    "midi": 69,
                    "time": 91.19994300000008,
                    "velocity": 0.44881889763779526,
                    "duration": 0.3999997500000063
                },
                {
                    "name": "F5",
                    "midi": 77,
                    "time": 91.19994300000008,
                    "velocity": 0.44881889763779526,
                    "duration": 0.3999997500000063
                },
                {
                    "name": "F5",
                    "midi": 77,
                    "time": 91.73327600000009,
                    "velocity": 0.5118110236220472,
                    "duration": 0.533332999999999
                },
                {
                    "name": "A#4",
                    "midi": 70,
                    "time": 91.73327600000009,
                    "velocity": 0.4330708661417323,
                    "duration": 0.533332999999999
                },
                {
                    "name": "A#5",
                    "midi": 82,
                    "time": 92.26660900000009,
                    "velocity": 0.5118110236220472,
                    "duration": 0.2666664999999995
                },
                {
                    "name": "D6",
                    "midi": 86,
                    "time": 92.79994200000009,
                    "velocity": 0.5590551181102362,
                    "duration": 0.17777766666667105
                },
                {
                    "name": "E6",
                    "midi": 88,
                    "time": 92.97771966666676,
                    "velocity": 0.4645669291338583,
                    "duration": 0.17777766666667105
                },
                {
                    "name": "C#6",
                    "midi": 85,
                    "time": 93.15549733333343,
                    "velocity": 0.5511811023622047,
                    "duration": 0.17777766666667105
                },
                {
                    "name": "D6",
                    "midi": 86,
                    "time": 93.33438611041677,
                    "velocity": 0.5748031496062992,
                    "duration": 0.17777766666667105
                },
                {
                    "name": "E6",
                    "midi": 88,
                    "time": 93.51105266666677,
                    "velocity": 0.5984251968503937,
                    "duration": 0.17777766666667105
                },
                {
                    "name": "F6",
                    "midi": 89,
                    "time": 93.68883033333344,
                    "velocity": 0.49606299212598426,
                    "duration": 0.17777766666667105
                },
                {
                    "name": "A5",
                    "midi": 81,
                    "time": 93.86660800000011,
                    "velocity": 0.5669291338582677,
                    "duration": 0.2666664999999995
                },
                {
                    "name": "A5",
                    "midi": 81,
                    "time": 94.39994100000011,
                    "velocity": 0.5118110236220472,
                    "duration": 0.533332999999999
                },
                {
                    "name": "E5",
                    "midi": 76,
                    "time": 94.93327400000011,
                    "velocity": 0.5511811023622047,
                    "duration": 0.17777766666667105
                },
                {
                    "name": "G5",
                    "midi": 79,
                    "time": 95.11105166666678,
                    "velocity": 0.49606299212598426,
                    "duration": 0.17777766666667105
                },
                {
                    "name": "B5",
                    "midi": 83,
                    "time": 95.28882933333345,
                    "velocity": 0.41732283464566927,
                    "duration": 0.17777766666667105
                },
                {
                    "name": "A5",
                    "midi": 81,
                    "time": 95.46660700000012,
                    "velocity": 0.5511811023622047,
                    "duration": 0.17777766666667105
                },
                {
                    "name": "G5",
                    "midi": 79,
                    "time": 95.6443846666668,
                    "velocity": 0.47244094488188976,
                    "duration": 0.17777766666667105
                },
                {
                    "name": "C#5",
                    "midi": 73,
                    "time": 95.82216233333347,
                    "velocity": 0.47244094488188976,
                    "duration": 0.17777766666667105
                },
                {
                    "name": "A5",
                    "midi": 81,
                    "time": 95.99994000000014,
                    "velocity": 0.5511811023622047,
                    "duration": 1.066665999999998
                },
                {
                    "name": "G5",
                    "midi": 79,
                    "time": 97.06660600000014,
                    "velocity": 0.5196850393700787,
                    "duration": 0.17777766666667105
                },
                {
                    "name": "B5",
                    "midi": 83,
                    "time": 97.2443836666668,
                    "velocity": 0.4645669291338583,
                    "duration": 0.17777766666667105
                },
                {
                    "name": "E6",
                    "midi": 88,
                    "time": 97.42216133333348,
                    "velocity": 0.4645669291338583,
                    "duration": 0.17777766666667105
                },
                {
                    "name": "D6",
                    "midi": 86,
                    "time": 97.60105011041682,
                    "velocity": 0.5196850393700787,
                    "duration": 0.17777766666667105
                },
                {
                    "name": "B5",
                    "midi": 83,
                    "time": 97.77771666666682,
                    "velocity": 0.4881889763779528,
                    "duration": 0.17777766666667105
                },
                {
                    "name": "G5",
                    "midi": 79,
                    "time": 97.95549433333349,
                    "velocity": 0.4409448818897638,
                    "duration": 0.17777766666667105
                },
                {
                    "name": "F#5",
                    "midi": 78,
                    "time": 98.13327200000016,
                    "velocity": 0.48031496062992124,
                    "duration": 0.13333325000000684
                },
                {
                    "name": "A5",
                    "midi": 81,
                    "time": 98.26660525000017,
                    "velocity": 0.5196850393700787,
                    "duration": 0.2666664999999995
                },
                {
                    "name": "A5",
                    "midi": 81,
                    "time": 98.66660500000017,
                    "velocity": 0.5275590551181102,
                    "duration": 0.533332999999999
                },
                {
                    "name": "E5",
                    "midi": 76,
                    "time": 99.19993800000017,
                    "velocity": 0.5039370078740157,
                    "duration": 0.17777766666667105
                },
                {
                    "name": "G5",
                    "midi": 79,
                    "time": 99.37771566666684,
                    "velocity": 0.4645669291338583,
                    "duration": 0.17777766666667105
                },
                {
                    "name": "B5",
                    "midi": 83,
                    "time": 99.55549333333352,
                    "velocity": 0.41732283464566927,
                    "duration": 0.17777766666667105
                },
                {
                    "name": "A5",
                    "midi": 81,
                    "time": 99.73327100000019,
                    "velocity": 0.5275590551181102,
                    "duration": 0.17777766666667105
                },
                {
                    "name": "G5",
                    "midi": 79,
                    "time": 99.91104866666686,
                    "velocity": 0.4645669291338583,
                    "duration": 0.17777766666667105
                },
                {
                    "name": "C#5",
                    "midi": 73,
                    "time": 100.08882633333353,
                    "velocity": 0.4645669291338583,
                    "duration": 0.17777766666667105
                },
                {
                    "name": "D5",
                    "midi": 74,
                    "time": 100.2666040000002,
                    "velocity": 0.5275590551181102,
                    "duration": 1.064443779166666
                },
                {
                    "name": "D4",
                    "midi": 62,
                    "time": 101.3332700000002,
                    "velocity": 0.44881889763779526,
                    "duration": 0.13333325000000684
                },
                {
                    "name": "E4",
                    "midi": 64,
                    "time": 101.4666032500002,
                    "velocity": 0.4094488188976378,
                    "duration": 0.13333325000000684
                },
                {
                    "name": "F#4",
                    "midi": 66,
                    "time": 101.59993650000021,
                    "velocity": 0.44881889763779526,
                    "duration": 0.13333325000000684
                },
                {
                    "name": "G4",
                    "midi": 67,
                    "time": 101.73326975000022,
                    "velocity": 0.41732283464566927,
                    "duration": 0.13333325000000684
                },
                {
                    "name": "G#4",
                    "midi": 68,
                    "time": 101.86660300000023,
                    "velocity": 0.44881889763779526,
                    "duration": 0.13333325000000684
                },
                {
                    "name": "A4",
                    "midi": 69,
                    "time": 101.99993625000023,
                    "velocity": 0.4094488188976378,
                    "duration": 0.13333325000000684
                },
                {
                    "name": "G#4",
                    "midi": 68,
                    "time": 102.13326950000024,
                    "velocity": 0.4251968503937008,
                    "duration": 0.13333325000000684
                },
                {
                    "name": "A4",
                    "midi": 69,
                    "time": 102.26660275000025,
                    "velocity": 0.44881889763779526,
                    "duration": 0.13333325000000684
                },
                {
                    "name": "B4",
                    "midi": 71,
                    "time": 102.39993600000025,
                    "velocity": 0.5118110236220472,
                    "duration": 0.533332999999999
                },
                {
                    "name": "G4",
                    "midi": 67,
                    "time": 102.39993600000025,
                    "velocity": 0.4330708661417323,
                    "duration": 0.533332999999999
                },
                {
                    "name": "A4",
                    "midi": 69,
                    "time": 102.93326900000025,
                    "velocity": 0.41732283464566927,
                    "duration": 0.2666664999999995
                },
                {
                    "name": "D4",
                    "midi": 62,
                    "time": 102.93326900000025,
                    "velocity": 0.30708661417322836,
                    "duration": 0.2666664999999995
                },
                {
                    "name": "F#4",
                    "midi": 66,
                    "time": 102.93326900000025,
                    "velocity": 0.3228346456692913,
                    "duration": 0.2666664999999995
                },
                {
                    "name": "D5",
                    "midi": 74,
                    "time": 103.46660200000025,
                    "velocity": 0.5039370078740157,
                    "duration": 0.17777766666667105
                },
                {
                    "name": "C#5",
                    "midi": 73,
                    "time": 103.64437966666692,
                    "velocity": 0.4566929133858268,
                    "duration": 0.17777766666667105
                },
                {
                    "name": "B4",
                    "midi": 71,
                    "time": 103.82215733333359,
                    "velocity": 0.4566929133858268,
                    "duration": 0.17777766666667105
                },
                {
                    "name": "A4",
                    "midi": 69,
                    "time": 103.99993500000026,
                    "velocity": 0.5039370078740157,
                    "duration": 0.17777766666667105
                },
                {
                    "name": "G4",
                    "midi": 67,
                    "time": 104.17771266666693,
                    "velocity": 0.4566929133858268,
                    "duration": 0.17777766666667105
                },
                {
                    "name": "F#4",
                    "midi": 66,
                    "time": 104.3554903333336,
                    "velocity": 0.4566929133858268,
                    "duration": 0.17777766666667105
                },
                {
                    "name": "A4",
                    "midi": 69,
                    "time": 104.53326800000028,
                    "velocity": 0.5039370078740157,
                    "duration": 0.3999997500000063
                },
                {
                    "name": "G4",
                    "midi": 67,
                    "time": 104.93326775000028,
                    "velocity": 0.4330708661417323,
                    "duration": 0.13333325000000684
                },
                {
                    "name": "E4",
                    "midi": 64,
                    "time": 105.06660100000029,
                    "velocity": 0.48031496062992124,
                    "duration": 0.2666664999999995
                },
                {
                    "name": "A4",
                    "midi": 69,
                    "time": 105.59993400000029,
                    "velocity": 0.5039370078740157,
                    "duration": 0.13333325000000684
                },
                {
                    "name": "B4",
                    "midi": 71,
                    "time": 105.7332672500003,
                    "velocity": 0.4566929133858268,
                    "duration": 0.13333325000000684
                },
                {
                    "name": "C#5",
                    "midi": 73,
                    "time": 105.8666005000003,
                    "velocity": 0.5039370078740157,
                    "duration": 0.13333325000000684
                },
                {
                    "name": "D5",
                    "midi": 74,
                    "time": 105.99993375000031,
                    "velocity": 0.4645669291338583,
                    "duration": 0.13333325000000684
                },
                {
                    "name": "D#5",
                    "midi": 75,
                    "time": 106.13326700000032,
                    "velocity": 0.5433070866141733,
                    "duration": 0.13333325000000684
                },
                {
                    "name": "E5",
                    "midi": 76,
                    "time": 106.26660025000032,
                    "velocity": 0.4566929133858268,
                    "duration": 0.13333325000000684
                },
                {
                    "name": "D#5",
                    "midi": 75,
                    "time": 106.39993350000033,
                    "velocity": 0.48031496062992124,
                    "duration": 0.13333325000000684
                },
                {
                    "name": "E5",
                    "midi": 76,
                    "time": 106.53326675000034,
                    "velocity": 0.5039370078740157,
                    "duration": 0.13333325000000684
                },
                {
                    "name": "D5",
                    "midi": 74,
                    "time": 106.66660000000034,
                    "velocity": 0.5433070866141733,
                    "duration": 0.13333325000000684
                },
                {
                    "name": "E5",
                    "midi": 76,
                    "time": 106.79993325000035,
                    "velocity": 0.4566929133858268,
                    "duration": 0.13333325000000684
                },
                {
                    "name": "F#5",
                    "midi": 78,
                    "time": 106.93326650000036,
                    "velocity": 0.5039370078740157,
                    "duration": 0.13333325000000684
                },
                {
                    "name": "G5",
                    "midi": 79,
                    "time": 107.06659975000036,
                    "velocity": 0.4645669291338583,
                    "duration": 0.13333325000000684
                },
                {
                    "name": "G#5",
                    "midi": 80,
                    "time": 107.19993300000037,
                    "velocity": 0.5511811023622047,
                    "duration": 0.13333325000000684
                },
                {
                    "name": "A5",
                    "midi": 81,
                    "time": 107.33326625000038,
                    "velocity": 0.4566929133858268,
                    "duration": 0.13333325000000684
                },
                {
                    "name": "G#5",
                    "midi": 80,
                    "time": 107.46659950000038,
                    "velocity": 0.48031496062992124,
                    "duration": 0.13333325000000684
                },
                {
                    "name": "A5",
                    "midi": 81,
                    "time": 107.59993275000039,
                    "velocity": 0.5039370078740157,
                    "duration": 0.13333325000000684
                },
                {
                    "name": "B5",
                    "midi": 83,
                    "time": 107.7332660000004,
                    "velocity": 0.5669291338582677,
                    "duration": 0.13333325000000684
                },
                {
                    "name": "A5",
                    "midi": 81,
                    "time": 107.8665992500004,
                    "velocity": 0.5196850393700787,
                    "duration": 0.13333325000000684
                },
                {
                    "name": "G5",
                    "midi": 79,
                    "time": 107.99993250000041,
                    "velocity": 0.5039370078740157,
                    "duration": 0.13333325000000684
                },
                {
                    "name": "F#5",
                    "midi": 78,
                    "time": 108.13326575000042,
                    "velocity": 0.49606299212598426,
                    "duration": 0.13333325000000684
                },
                {
                    "name": "A5",
                    "midi": 81,
                    "time": 108.26659900000043,
                    "velocity": 0.5275590551181102,
                    "duration": 0.13333325000000684
                },
                {
                    "name": "G5",
                    "midi": 79,
                    "time": 108.39993225000043,
                    "velocity": 0.5039370078740157,
                    "duration": 0.13333325000000684
                },
                {
                    "name": "F#5",
                    "midi": 78,
                    "time": 108.53326550000044,
                    "velocity": 0.48031496062992124,
                    "duration": 0.13333325000000684
                },
                {
                    "name": "E5",
                    "midi": 76,
                    "time": 108.66659875000045,
                    "velocity": 0.4645669291338583,
                    "duration": 0.13333325000000684
                },
                {
                    "name": "D5",
                    "midi": 74,
                    "time": 108.79993200000045,
                    "velocity": 0.5275590551181102,
                    "duration": 1.066665999999998
                },
                {
                    "name": "G4",
                    "midi": 67,
                    "time": 109.86659800000045,
                    "velocity": 0.5748031496062992,
                    "duration": 0.13333325000000684
                },
                {
                    "name": "A4",
                    "midi": 69,
                    "time": 109.99993125000046,
                    "velocity": 0.5196850393700787,
                    "duration": 0.13333325000000684
                },
                {
                    "name": "B4",
                    "midi": 71,
                    "time": 110.13326450000046,
                    "velocity": 0.5748031496062992,
                    "duration": 0.13333325000000684
                },
                {
                    "name": "C5",
                    "midi": 72,
                    "time": 110.26659775000047,
                    "velocity": 0.5275590551181102,
                    "duration": 0.13333325000000684
                },
                {
                    "name": "C#5",
                    "midi": 73,
                    "time": 110.39993100000048,
                    "velocity": 0.6220472440944882,
                    "duration": 0.13333325000000684
                },
                {
                    "name": "D5",
                    "midi": 74,
                    "time": 110.53326425000049,
                    "velocity": 0.5826771653543307,
                    "duration": 0.13333325000000684
                },
                {
                    "name": "C#5",
                    "midi": 73,
                    "time": 110.66659750000049,
                    "velocity": 0.5984251968503937,
                    "duration": 0.13333325000000684
                },
                {
                    "name": "D5",
                    "midi": 74,
                    "time": 110.7999307500005,
                    "velocity": 0.5748031496062992,
                    "duration": 0.13333325000000684
                },
                {
                    "name": "F#5",
                    "midi": 78,
                    "time": 110.9332640000005,
                    "velocity": 0.6614173228346457,
                    "duration": 0.13333325000000684
                },
                {
                    "name": "E5",
                    "midi": 76,
                    "time": 111.06659725000051,
                    "velocity": 0.6062992125984252,
                    "duration": 0.13333325000000684
                },
                {
                    "name": "D5",
                    "midi": 74,
                    "time": 111.19993050000052,
                    "velocity": 0.5826771653543307,
                    "duration": 0.13333325000000684
                },
                {
                    "name": "C#5",
                    "midi": 73,
                    "time": 111.33326375000053,
                    "velocity": 0.5590551181102362,
                    "duration": 0.13333325000000684
                },
                {
                    "name": "E5",
                    "midi": 76,
                    "time": 111.46659700000053,
                    "velocity": 0.6299212598425197,
                    "duration": 0.13333325000000684
                },
                {
                    "name": "D5",
                    "midi": 74,
                    "time": 111.59993025000054,
                    "velocity": 0.5905511811023622,
                    "duration": 0.13333325000000684
                },
                {
                    "name": "C#5",
                    "midi": 73,
                    "time": 111.73326350000055,
                    "velocity": 0.5590551181102362,
                    "duration": 0.13333325000000684
                },
                {
                    "name": "B4",
                    "midi": 71,
                    "time": 111.86659675000055,
                    "velocity": 0.5748031496062992,
                    "duration": 0.13333325000000684
                },
                {
                    "name": "A4",
                    "midi": 69,
                    "time": 111.99993000000056,
                    "velocity": 0.6456692913385826,
                    "duration": 0.13333325000000684
                },
                {
                    "name": "G#4",
                    "midi": 68,
                    "time": 112.13326325000057,
                    "velocity": 0.5905511811023622,
                    "duration": 0.13333325000000684
                },
                {
                    "name": "F#4",
                    "midi": 66,
                    "time": 112.26659650000057,
                    "velocity": 0.5748031496062992,
                    "duration": 0.13333325000000684
                },
                {
                    "name": "E4",
                    "midi": 64,
                    "time": 112.39992975000058,
                    "velocity": 0.5669291338582677,
                    "duration": 0.13333325000000684
                },
                {
                    "name": "D#4",
                    "midi": 63,
                    "time": 112.53326300000059,
                    "velocity": 0.6062992125984252,
                    "duration": 0.13333325000000684
                },
                {
                    "name": "E4",
                    "midi": 64,
                    "time": 112.6665962500006,
                    "velocity": 0.5748031496062992,
                    "duration": 0.13333325000000684
                },
                {
                    "name": "F#4",
                    "midi": 66,
                    "time": 112.7999295000006,
                    "velocity": 0.5511811023622047,
                    "duration": 0.13333325000000684
                },
                {
                    "name": "G#4",
                    "midi": 68,
                    "time": 112.93326275000061,
                    "velocity": 0.5275590551181102,
                    "duration": 0.13333325000000684
                },
                {
                    "name": "C#5",
                    "midi": 73,
                    "time": 113.06659600000062,
                    "velocity": 0.5984251968503937,
                    "duration": 0.13333325000000684
                },
                {
                    "name": "A3",
                    "midi": 57,
                    "time": 113.19992925000062,
                    "velocity": 0.4015748031496063,
                    "duration": 0.13333325000000684
                },
                {
                    "name": "B3",
                    "midi": 59,
                    "time": 113.33326250000063,
                    "velocity": 0.44881889763779526,
                    "duration": 0.13333325000000684
                },
                {
                    "name": "A3",
                    "midi": 57,
                    "time": 113.46659575000064,
                    "velocity": 0.3858267716535433,
                    "duration": 0.13333325000000684
                },
                {
                    "name": "B3",
                    "midi": 59,
                    "time": 113.59992900000064,
                    "velocity": 0.4409448818897638,
                    "duration": 0.13333325000000684
                },
                {
                    "name": "A3",
                    "midi": 57,
                    "time": 113.73326225000065,
                    "velocity": 0.3779527559055118,
                    "duration": 0.13333325000000684
                },
                {
                    "name": "B3",
                    "midi": 59,
                    "time": 113.86659550000066,
                    "velocity": 0.3700787401574803,
                    "duration": 0.13333325000000684
                },
                {
                    "name": "C#4",
                    "midi": 61,
                    "time": 113.99992875000066,
                    "velocity": 0.3543307086614173,
                    "duration": 0.13333325000000684
                },
                {
                    "name": "D4",
                    "midi": 62,
                    "time": 114.13326200000067,
                    "velocity": 0.44881889763779526,
                    "duration": 0.13333325000000684
                },
                {
                    "name": "E4",
                    "midi": 64,
                    "time": 114.26659525000068,
                    "velocity": 0.4094488188976378,
                    "duration": 0.13333325000000684
                },
                {
                    "name": "F#4",
                    "midi": 66,
                    "time": 114.39992850000068,
                    "velocity": 0.44881889763779526,
                    "duration": 0.13333325000000684
                },
                {
                    "name": "G4",
                    "midi": 67,
                    "time": 114.53326175000069,
                    "velocity": 0.41732283464566927,
                    "duration": 0.13333325000000684
                },
                {
                    "name": "G#4",
                    "midi": 68,
                    "time": 114.6665950000007,
                    "velocity": 0.44881889763779526,
                    "duration": 0.13333325000000684
                },
                {
                    "name": "A4",
                    "midi": 69,
                    "time": 114.7999282500007,
                    "velocity": 0.4094488188976378,
                    "duration": 0.13333325000000684
                },
                {
                    "name": "G#4",
                    "midi": 68,
                    "time": 114.93326150000071,
                    "velocity": 0.4251968503937008,
                    "duration": 0.13333325000000684
                },
                {
                    "name": "A4",
                    "midi": 69,
                    "time": 115.06659475000072,
                    "velocity": 0.44881889763779526,
                    "duration": 0.13333325000000684
                },
                {
                    "name": "B4",
                    "midi": 71,
                    "time": 115.19992800000072,
                    "velocity": 0.5118110236220472,
                    "duration": 0.533332999999999
                },
                {
                    "name": "G4",
                    "midi": 67,
                    "time": 115.19992800000072,
                    "velocity": 0.4330708661417323,
                    "duration": 0.533332999999999
                },
                {
                    "name": "F#4",
                    "midi": 66,
                    "time": 115.73326100000072,
                    "velocity": 0.3228346456692913,
                    "duration": 0.2666664999999995
                },
                {
                    "name": "A4",
                    "midi": 69,
                    "time": 115.73326100000072,
                    "velocity": 0.41732283464566927,
                    "duration": 0.2666664999999995
                },
                {
                    "name": "D4",
                    "midi": 62,
                    "time": 115.73326100000072,
                    "velocity": 0.30708661417322836,
                    "duration": 0.2666664999999995
                },
                {
                    "name": "D5",
                    "midi": 74,
                    "time": 116.26659400000072,
                    "velocity": 0.5039370078740157,
                    "duration": 0.17777766666667105
                },
                {
                    "name": "C#5",
                    "midi": 73,
                    "time": 116.4443716666674,
                    "velocity": 0.4566929133858268,
                    "duration": 0.17777766666667105
                },
                {
                    "name": "B4",
                    "midi": 71,
                    "time": 116.62214933333406,
                    "velocity": 0.4566929133858268,
                    "duration": 0.17777766666667105
                },
                {
                    "name": "A4",
                    "midi": 69,
                    "time": 116.79992700000074,
                    "velocity": 0.5039370078740157,
                    "duration": 0.17777766666667105
                },
                {
                    "name": "G4",
                    "midi": 67,
                    "time": 116.9777046666674,
                    "velocity": 0.4566929133858268,
                    "duration": 0.17777766666667105
                },
                {
                    "name": "F#4",
                    "midi": 66,
                    "time": 117.15548233333408,
                    "velocity": 0.4566929133858268,
                    "duration": 0.17777766666667105
                },
                {
                    "name": "A4",
                    "midi": 69,
                    "time": 117.33326000000075,
                    "velocity": 0.5039370078740157,
                    "duration": 0.3999997500000063
                },
                {
                    "name": "G4",
                    "midi": 67,
                    "time": 117.73325975000076,
                    "velocity": 0.4330708661417323,
                    "duration": 0.13333325000000684
                },
                {
                    "name": "E4",
                    "midi": 64,
                    "time": 117.86659300000076,
                    "velocity": 0.48031496062992124,
                    "duration": 0.2666664999999995
                },
                {
                    "name": "A4",
                    "midi": 69,
                    "time": 118.39992600000076,
                    "velocity": 0.5039370078740157,
                    "duration": 0.13333325000000684
                },
                {
                    "name": "B4",
                    "midi": 71,
                    "time": 118.53325925000077,
                    "velocity": 0.4566929133858268,
                    "duration": 0.13333325000000684
                },
                {
                    "name": "C#5",
                    "midi": 73,
                    "time": 118.66659250000077,
                    "velocity": 0.5039370078740157,
                    "duration": 0.13333325000000684
                },
                {
                    "name": "D5",
                    "midi": 74,
                    "time": 118.79992575000078,
                    "velocity": 0.4645669291338583,
                    "duration": 0.13333325000000684
                },
                {
                    "name": "D#5",
                    "midi": 75,
                    "time": 118.93325900000079,
                    "velocity": 0.5433070866141733,
                    "duration": 0.13333325000000684
                },
                {
                    "name": "E5",
                    "midi": 76,
                    "time": 119.0665922500008,
                    "velocity": 0.4566929133858268,
                    "duration": 0.13333325000000684
                },
                {
                    "name": "D#5",
                    "midi": 75,
                    "time": 119.1999255000008,
                    "velocity": 0.48031496062992124,
                    "duration": 0.13333325000000684
                },
                {
                    "name": "E5",
                    "midi": 76,
                    "time": 119.33325875000081,
                    "velocity": 0.5039370078740157,
                    "duration": 0.13333325000000684
                },
                {
                    "name": "D5",
                    "midi": 74,
                    "time": 119.46659200000082,
                    "velocity": 0.5433070866141733,
                    "duration": 0.13333325000000684
                },
                {
                    "name": "E5",
                    "midi": 76,
                    "time": 119.59992525000082,
                    "velocity": 0.4566929133858268,
                    "duration": 0.13333325000000684
                },
                {
                    "name": "F#5",
                    "midi": 78,
                    "time": 119.73325850000083,
                    "velocity": 0.5039370078740157,
                    "duration": 0.13333325000000684
                },
                {
                    "name": "G5",
                    "midi": 79,
                    "time": 119.86659175000084,
                    "velocity": 0.4645669291338583,
                    "duration": 0.13333325000000684
                },
                {
                    "name": "G#5",
                    "midi": 80,
                    "time": 119.99992500000084,
                    "velocity": 0.5511811023622047,
                    "duration": 0.13333325000000684
                },
                {
                    "name": "A5",
                    "midi": 81,
                    "time": 120.13325825000085,
                    "velocity": 0.49606299212598426,
                    "duration": 0.13333325000000684
                },
                {
                    "name": "G#5",
                    "midi": 80,
                    "time": 120.26659150000086,
                    "velocity": 0.5196850393700787,
                    "duration": 0.13333325000000684
                },
                {
                    "name": "A5",
                    "midi": 81,
                    "time": 120.39992475000086,
                    "velocity": 0.5354330708661418,
                    "duration": 0.13333325000000684
                },
                {
                    "name": "F#6",
                    "midi": 90,
                    "time": 120.53325800000087,
                    "velocity": 0.5905511811023622,
                    "duration": 0.13333325000000684
                },
                {
                    "name": "E6",
                    "midi": 88,
                    "time": 120.66659125000088,
                    "velocity": 0.5590551181102362,
                    "duration": 0.13333325000000684
                },
                {
                    "name": "D6",
                    "midi": 86,
                    "time": 120.79992450000088,
                    "velocity": 0.5275590551181102,
                    "duration": 0.13333325000000684
                },
                {
                    "name": "C#6",
                    "midi": 85,
                    "time": 120.93325775000089,
                    "velocity": 0.5039370078740157,
                    "duration": 0.13333325000000684
                },
                {
                    "name": "E6",
                    "midi": 88,
                    "time": 121.0665910000009,
                    "velocity": 0.5748031496062992,
                    "duration": 0.13333325000000684
                },
                {
                    "name": "D6",
                    "midi": 86,
                    "time": 121.1999242500009,
                    "velocity": 0.5275590551181102,
                    "duration": 0.13333325000000684
                },
                {
                    "name": "C#6",
                    "midi": 85,
                    "time": 121.33325750000091,
                    "velocity": 0.5039370078740157,
                    "duration": 0.13333325000000684
                },
                {
                    "name": "B5",
                    "midi": 83,
                    "time": 121.46659075000092,
                    "velocity": 0.48031496062992124,
                    "duration": 0.13333325000000684
                },
                {
                    "name": "A5",
                    "midi": 81,
                    "time": 121.59992400000093,
                    "velocity": 0.5984251968503937,
                    "duration": 1.066665999999998
                },
                {
                    "name": "D4",
                    "midi": 62,
                    "time": 122.66659000000092,
                    "velocity": 0.5748031496062992,
                    "duration": 0.13333325000000684
                },
                {
                    "name": "E4",
                    "midi": 64,
                    "time": 122.79992325000093,
                    "velocity": 0.5196850393700787,
                    "duration": 0.13333325000000684
                },
                {
                    "name": "F#4",
                    "midi": 66,
                    "time": 122.93325650000094,
                    "velocity": 0.5748031496062992,
                    "duration": 0.13333325000000684
                },
                {
                    "name": "G4",
                    "midi": 67,
                    "time": 123.06658975000094,
                    "velocity": 0.5275590551181102,
                    "duration": 0.13333325000000684
                },
                {
                    "name": "G#4",
                    "midi": 68,
                    "time": 123.19992300000095,
                    "velocity": 0.6220472440944882,
                    "duration": 0.13333325000000684
                },
                {
                    "name": "A4",
                    "midi": 69,
                    "time": 123.33325625000096,
                    "velocity": 0.5826771653543307,
                    "duration": 0.13333325000000684
                },
                {
                    "name": "G#4",
                    "midi": 68,
                    "time": 123.46658950000096,
                    "velocity": 0.5984251968503937,
                    "duration": 0.13333325000000684
                },
                {
                    "name": "A4",
                    "midi": 69,
                    "time": 123.59992275000097,
                    "velocity": 0.5748031496062992,
                    "duration": 0.13333325000000684
                },
                {
                    "name": "C#5",
                    "midi": 73,
                    "time": 123.73325600000098,
                    "velocity": 0.6614173228346457,
                    "duration": 0.13333325000000684
                },
                {
                    "name": "B4",
                    "midi": 71,
                    "time": 123.86658925000098,
                    "velocity": 0.6062992125984252,
                    "duration": 0.13333325000000684
                },
                {
                    "name": "A4",
                    "midi": 69,
                    "time": 123.99992250000099,
                    "velocity": 0.5826771653543307,
                    "duration": 0.13333325000000684
                },
                {
                    "name": "G#4",
                    "midi": 68,
                    "time": 124.133255750001,
                    "velocity": 0.5590551181102362,
                    "duration": 0.13333325000000684
                },
                {
                    "name": "B4",
                    "midi": 71,
                    "time": 124.266589000001,
                    "velocity": 0.6299212598425197,
                    "duration": 0.13333325000000684
                },
                {
                    "name": "A4",
                    "midi": 69,
                    "time": 124.39992225000101,
                    "velocity": 0.5905511811023622,
                    "duration": 0.13333325000000684
                },
                {
                    "name": "G#4",
                    "midi": 68,
                    "time": 124.53325550000102,
                    "velocity": 0.5590551181102362,
                    "duration": 0.13333325000000684
                },
                {
                    "name": "F#4",
                    "midi": 66,
                    "time": 124.66658875000103,
                    "velocity": 0.5748031496062992,
                    "duration": 0.13333325000000684
                },
                {
                    "name": "E4",
                    "midi": 64,
                    "time": 124.79992200000103,
                    "velocity": 0.6456692913385826,
                    "duration": 0.13333325000000684
                },
                {
                    "name": "F#4",
                    "midi": 66,
                    "time": 124.93325525000104,
                    "velocity": 0.5905511811023622,
                    "duration": 0.13333325000000684
                },
                {
                    "name": "E4",
                    "midi": 64,
                    "time": 125.06658850000105,
                    "velocity": 0.5748031496062992,
                    "duration": 0.13333325000000684
                },
                {
                    "name": "F#4",
                    "midi": 66,
                    "time": 125.19992175000105,
                    "velocity": 0.5669291338582677,
                    "duration": 0.13333325000000684
                },
                {
                    "name": "E4",
                    "midi": 64,
                    "time": 125.33325500000106,
                    "velocity": 0.6062992125984252,
                    "duration": 0.13333325000000684
                },
                {
                    "name": "D4",
                    "midi": 62,
                    "time": 125.46658825000107,
                    "velocity": 0.5748031496062992,
                    "duration": 0.13333325000000684
                },
                {
                    "name": "C#4",
                    "midi": 61,
                    "time": 125.59992150000107,
                    "velocity": 0.5511811023622047,
                    "duration": 0.13333325000000684
                },
                {
                    "name": "B3",
                    "midi": 59,
                    "time": 125.73325475000108,
                    "velocity": 0.5275590551181102,
                    "duration": 0.13333325000000684
                },
                {
                    "name": "A3",
                    "midi": 57,
                    "time": 125.86658800000109,
                    "velocity": 0.5984251968503937,
                    "duration": 0.13333325000000684
                },
                {
                    "name": "C#4",
                    "midi": 61,
                    "time": 125.9999212500011,
                    "velocity": 0.4015748031496063,
                    "duration": 0.13333325000000684
                },
                {
                    "name": "E4",
                    "midi": 64,
                    "time": 126.1332545000011,
                    "velocity": 0.44881889763779526,
                    "duration": 0.13333325000000684
                },
                {
                    "name": "G#4",
                    "midi": 68,
                    "time": 126.26658775000111,
                    "velocity": 0.3858267716535433,
                    "duration": 0.13333325000000684
                },
                {
                    "name": "A4",
                    "midi": 69,
                    "time": 126.39992100000111,
                    "velocity": 0.4409448818897638,
                    "duration": 0.13333325000000684
                },
                {
                    "name": "B4",
                    "midi": 71,
                    "time": 126.53325425000112,
                    "velocity": 0.3779527559055118,
                    "duration": 0.13333325000000684
                },
                {
                    "name": "C#5",
                    "midi": 73,
                    "time": 126.66658750000113,
                    "velocity": 0.3700787401574803,
                    "duration": 0.13333325000000684
                },
                {
                    "name": "D5",
                    "midi": 74,
                    "time": 126.79992075000114,
                    "velocity": 0.3543307086614173,
                    "duration": 0.12222214583333368
                },
                {
                    "name": "E5",
                    "midi": 76,
                    "time": 126.93325400000114,
                    "velocity": 0.5433070866141733,
                    "duration": 0.13333325000000684
                },
                {
                    "name": "F#5",
                    "midi": 78,
                    "time": 127.06658725000115,
                    "velocity": 0.4566929133858268,
                    "duration": 0.13333325000000684
                },
                {
                    "name": "G#5",
                    "midi": 80,
                    "time": 127.19992050000116,
                    "velocity": 0.5039370078740157,
                    "duration": 0.13333325000000684
                },
                {
                    "name": "A5",
                    "midi": 81,
                    "time": 127.33325375000116,
                    "velocity": 0.4645669291338583,
                    "duration": 0.13333325000000684
                },
                {
                    "name": "A#5",
                    "midi": 82,
                    "time": 127.46658700000117,
                    "velocity": 0.5511811023622047,
                    "duration": 0.13333325000000684
                },
                {
                    "name": "B5",
                    "midi": 83,
                    "time": 127.59992025000118,
                    "velocity": 0.49606299212598426,
                    "duration": 0.13333325000000684
                },
                {
                    "name": "A#5",
                    "midi": 82,
                    "time": 127.73325350000118,
                    "velocity": 0.5196850393700787,
                    "duration": 0.13333325000000684
                },
                {
                    "name": "B5",
                    "midi": 83,
                    "time": 127.86658675000119,
                    "velocity": 0.5354330708661418,
                    "duration": 0.13333325000000684
                },
                {
                    "name": "A5",
                    "midi": 81,
                    "time": 127.9999200000012,
                    "velocity": 0.5433070866141733,
                    "duration": 0.13333324999999263
                },
                {
                    "name": "B5",
                    "midi": 83,
                    "time": 128.1332532500012,
                    "velocity": 0.4566929133858268,
                    "duration": 0.13333324999999263
                },
                {
                    "name": "C#6",
                    "midi": 85,
                    "time": 128.26658650000118,
                    "velocity": 0.5039370078740157,
                    "duration": 0.13333324999999263
                },
                {
                    "name": "D6",
                    "midi": 86,
                    "time": 128.39991975000117,
                    "velocity": 0.4645669291338583,
                    "duration": 0.13333324999999263
                },
                {
                    "name": "D#6",
                    "midi": 87,
                    "time": 128.53325300000117,
                    "velocity": 0.5511811023622047,
                    "duration": 0.13333324999999263
                },
                {
                    "name": "E6",
                    "midi": 88,
                    "time": 128.66658625000116,
                    "velocity": 0.49606299212598426,
                    "duration": 0.13333324999999263
                },
                {
                    "name": "D#6",
                    "midi": 87,
                    "time": 128.79991950000115,
                    "velocity": 0.5196850393700787,
                    "duration": 0.13333324999999263
                },
                {
                    "name": "E6",
                    "midi": 88,
                    "time": 128.93325275000115,
                    "velocity": 0.5354330708661418,
                    "duration": 0.13333324999999263
                },
                {
                    "name": "F#6",
                    "midi": 90,
                    "time": 129.06658600000114,
                    "velocity": 0.5905511811023622,
                    "duration": 0.13333324999999263
                },
                {
                    "name": "E6",
                    "midi": 88,
                    "time": 129.19991925000113,
                    "velocity": 0.5118110236220472,
                    "duration": 0.13333324999999263
                },
                {
                    "name": "F#6",
                    "midi": 90,
                    "time": 129.33325250000112,
                    "velocity": 0.5275590551181102,
                    "duration": 0.13333324999999263
                },
                {
                    "name": "E6",
                    "midi": 88,
                    "time": 129.46658575000112,
                    "velocity": 0.5039370078740157,
                    "duration": 0.13333324999999263
                },
                {
                    "name": "B5",
                    "midi": 83,
                    "time": 129.5999190000011,
                    "velocity": 0.5905511811023622,
                    "duration": 0.13333324999999263
                },
                {
                    "name": "G#5",
                    "midi": 80,
                    "time": 129.7332522500011,
                    "velocity": 0.5275590551181102,
                    "duration": 0.13333324999999263
                },
                {
                    "name": "B5",
                    "midi": 83,
                    "time": 129.8665855000011,
                    "velocity": 0.5511811023622047,
                    "duration": 0.13333324999999263
                },
                {
                    "name": "G#5",
                    "midi": 80,
                    "time": 129.9999187500011,
                    "velocity": 0.5118110236220472,
                    "duration": 0.13333324999999263
                },
                {
                    "name": "F#6",
                    "midi": 90,
                    "time": 130.13325200000108,
                    "velocity": 0.5905511811023622,
                    "duration": 0.13333324999999263
                },
                {
                    "name": "E6",
                    "midi": 88,
                    "time": 130.26658525000107,
                    "velocity": 0.5118110236220472,
                    "duration": 0.13333324999999263
                },
                {
                    "name": "F#6",
                    "midi": 90,
                    "time": 130.39991850000106,
                    "velocity": 0.5275590551181102,
                    "duration": 0.13333324999999263
                },
                {
                    "name": "E6",
                    "midi": 88,
                    "time": 130.53325175000106,
                    "velocity": 0.5039370078740157,
                    "duration": 0.13333324999999263
                },
                {
                    "name": "C#6",
                    "midi": 85,
                    "time": 130.66658500000105,
                    "velocity": 0.5905511811023622,
                    "duration": 0.13333324999999263
                },
                {
                    "name": "A5",
                    "midi": 81,
                    "time": 130.79991825000104,
                    "velocity": 0.5275590551181102,
                    "duration": 0.13333324999999263
                },
                {
                    "name": "C#6",
                    "midi": 85,
                    "time": 130.93325150000103,
                    "velocity": 0.5511811023622047,
                    "duration": 0.13333324999999263
                },
                {
                    "name": "A5",
                    "midi": 81,
                    "time": 131.06658475000103,
                    "velocity": 0.5118110236220472,
                    "duration": 0.13333324999999263
                },
                {
                    "name": "D6",
                    "midi": 86,
                    "time": 131.19991800000102,
                    "velocity": 0.6062992125984252,
                    "duration": 0.13333324999999263
                },
                {
                    "name": "B5",
                    "midi": 83,
                    "time": 131.466584500001,
                    "velocity": 0.5039370078740157,
                    "duration": 0.13333324999999263
                },
                {
                    "name": "G#5",
                    "midi": 80,
                    "time": 131.733251000001,
                    "velocity": 0.5039370078740157,
                    "duration": 0.13333324999999263
                },
                {
                    "name": "E5",
                    "midi": 76,
                    "time": 131.99991750000098,
                    "velocity": 0.5039370078740157,
                    "duration": 0.13333324999999263
                },
                {
                    "name": "C#6",
                    "midi": 85,
                    "time": 132.26658400000096,
                    "velocity": 0.6141732283464567,
                    "duration": 0.13333324999999263
                },
                {
                    "name": "A5",
                    "midi": 81,
                    "time": 132.53325050000095,
                    "velocity": 0.5275590551181102,
                    "duration": 0.13333324999999263
                },
                {
                    "name": "C#7",
                    "midi": 97,
                    "time": 132.79991700000093,
                    "velocity": 0.6377952755905512,
                    "duration": 0.13333324999999263
                },
                {
                    "name": "A6",
                    "midi": 93,
                    "time": 133.06658350000092,
                    "velocity": 0.5905511811023622,
                    "duration": 0.13333324999999263
                },
                {
                    "name": "G#6",
                    "midi": 92,
                    "time": 133.3332500000009,
                    "velocity": 0.5905511811023622,
                    "duration": 0.13333324999999263
                },
                {
                    "name": "F#6",
                    "midi": 90,
                    "time": 133.4665832500009,
                    "velocity": 0.5118110236220472,
                    "duration": 0.13333324999999263
                },
                {
                    "name": "G#6",
                    "midi": 92,
                    "time": 133.5999165000009,
                    "velocity": 0.5275590551181102,
                    "duration": 0.13333324999999263
                },
                {
                    "name": "F#6",
                    "midi": 90,
                    "time": 133.73324975000088,
                    "velocity": 0.5039370078740157,
                    "duration": 0.13333324999999263
                },
                {
                    "name": "D6",
                    "midi": 86,
                    "time": 133.86658300000087,
                    "velocity": 0.5905511811023622,
                    "duration": 0.13333324999999263
                },
                {
                    "name": "B5",
                    "midi": 83,
                    "time": 133.99991625000087,
                    "velocity": 0.5275590551181102,
                    "duration": 0.13333324999999263
                },
                {
                    "name": "D6",
                    "midi": 86,
                    "time": 134.13324950000086,
                    "velocity": 0.5511811023622047,
                    "duration": 0.13333324999999263
                },
                {
                    "name": "B5",
                    "midi": 83,
                    "time": 134.26658275000085,
                    "velocity": 0.5118110236220472,
                    "duration": 0.13111102916667505
                },
                {
                    "name": "B5",
                    "midi": 83,
                    "time": 134.39991600000087,
                    "velocity": 0.5590551181102362,
                    "duration": 0.13333324999999263
                },
                {
                    "name": "A5",
                    "midi": 81,
                    "time": 134.53324925000086,
                    "velocity": 0.48031496062992124,
                    "duration": 0.13333324999999263
                },
                {
                    "name": "B5",
                    "midi": 83,
                    "time": 134.66658250000086,
                    "velocity": 0.5118110236220472,
                    "duration": 0.13333324999999263
                },
                {
                    "name": "A5",
                    "midi": 81,
                    "time": 134.79991575000085,
                    "velocity": 0.48031496062992124,
                    "duration": 0.13333324999999263
                },
                {
                    "name": "A6",
                    "midi": 93,
                    "time": 134.93324900000084,
                    "velocity": 0.6220472440944882,
                    "duration": 0.13333324999999263
                },
                {
                    "name": "A5",
                    "midi": 81,
                    "time": 135.19991550000083,
                    "velocity": 0.5433070866141733,
                    "duration": 0.13333324999999263
                },
                {
                    "name": "D5",
                    "midi": 74,
                    "time": 135.4665820000008,
                    "velocity": 0.6771653543307087,
                    "duration": 0.13333324999999263
                },
                {
                    "name": "E5",
                    "midi": 76,
                    "time": 135.4665820000008,
                    "velocity": 0.5748031496062992,
                    "duration": 0.13333324999999263
                },
                {
                    "name": "B4",
                    "midi": 71,
                    "time": 135.7332485000008,
                    "velocity": 0.5196850393700787,
                    "duration": 0.13333324999999263
                },
                {
                    "name": "E5",
                    "midi": 76,
                    "time": 135.7332485000008,
                    "velocity": 0.4409448818897638,
                    "duration": 0.13333324999999263
                },
                {
                    "name": "G#4",
                    "midi": 68,
                    "time": 135.99991500000078,
                    "velocity": 0.5984251968503937,
                    "duration": 0.13333324999999263
                },
                {
                    "name": "E5",
                    "midi": 76,
                    "time": 135.99991500000078,
                    "velocity": 0.5039370078740157,
                    "duration": 0.13333324999999263
                },
                {
                    "name": "E4",
                    "midi": 64,
                    "time": 136.26658150000077,
                    "velocity": 0.5118110236220472,
                    "duration": 0.13333324999999263
                },
                {
                    "name": "E5",
                    "midi": 76,
                    "time": 136.26658150000077,
                    "velocity": 0.4330708661417323,
                    "duration": 0.13333324999999263
                },
                {
                    "name": "D5",
                    "midi": 74,
                    "time": 136.53324800000075,
                    "velocity": 0.6771653543307087,
                    "duration": 0.13333324999999263
                },
                {
                    "name": "E5",
                    "midi": 76,
                    "time": 136.53324800000075,
                    "velocity": 0.5748031496062992,
                    "duration": 0.13333324999999263
                },
                {
                    "name": "B4",
                    "midi": 71,
                    "time": 136.79991450000074,
                    "velocity": 0.5196850393700787,
                    "duration": 0.13333324999999263
                },
                {
                    "name": "E5",
                    "midi": 76,
                    "time": 136.79991450000074,
                    "velocity": 0.4409448818897638,
                    "duration": 0.13333324999999263
                },
                {
                    "name": "E5",
                    "midi": 76,
                    "time": 137.06658100000072,
                    "velocity": 0.5039370078740157,
                    "duration": 0.13333324999999263
                },
                {
                    "name": "G#4",
                    "midi": 68,
                    "time": 137.06658100000072,
                    "velocity": 0.5984251968503937,
                    "duration": 0.13333324999999263
                },
                {
                    "name": "E5",
                    "midi": 76,
                    "time": 137.3332475000007,
                    "velocity": 0.4330708661417323,
                    "duration": 0.13333324999999263
                },
                {
                    "name": "E4",
                    "midi": 64,
                    "time": 137.3332475000007,
                    "velocity": 0.5118110236220472,
                    "duration": 0.13333324999999263
                },
                {
                    "name": "D4",
                    "midi": 62,
                    "time": 137.5999140000007,
                    "velocity": 0.6771653543307087,
                    "duration": 0.13333324999999263
                },
                {
                    "name": "E4",
                    "midi": 64,
                    "time": 137.5999140000007,
                    "velocity": 0.5748031496062992,
                    "duration": 0.13333324999999263
                },
                {
                    "name": "B3",
                    "midi": 59,
                    "time": 137.86658050000068,
                    "velocity": 0.5196850393700787,
                    "duration": 0.13333324999999263
                },
                {
                    "name": "E4",
                    "midi": 64,
                    "time": 137.86658050000068,
                    "velocity": 0.4409448818897638,
                    "duration": 0.13333324999999263
                },
                {
                    "name": "G#3",
                    "midi": 56,
                    "time": 138.13324700000067,
                    "velocity": 0.5984251968503937,
                    "duration": 0.13333324999999263
                },
                {
                    "name": "E4",
                    "midi": 64,
                    "time": 138.13324700000067,
                    "velocity": 0.5039370078740157,
                    "duration": 0.13333324999999263
                },
                {
                    "name": "E4",
                    "midi": 64,
                    "time": 138.39991350000065,
                    "velocity": 0.4330708661417323,
                    "duration": 0.13333324999999263
                },
                {
                    "name": "E3",
                    "midi": 52,
                    "time": 138.39991350000065,
                    "velocity": 0.5118110236220472,
                    "duration": 0.13333324999999263
                },
                {
                    "name": "A4",
                    "midi": 69,
                    "time": 139.73324600000063,
                    "velocity": 0.5984251968503937,
                    "duration": 0.13333324999999263
                },
                {
                    "name": "B4",
                    "midi": 71,
                    "time": 139.86657925000063,
                    "velocity": 0.5511811023622047,
                    "duration": 0.13333324999999263
                },
                {
                    "name": "C5",
                    "midi": 72,
                    "time": 139.99991250000062,
                    "velocity": 0.5984251968503937,
                    "duration": 0.13333324999999263
                },
                {
                    "name": "D5",
                    "midi": 74,
                    "time": 140.1332457500006,
                    "velocity": 0.5590551181102362,
                    "duration": 0.13333324999999263
                },
                {
                    "name": "D#5",
                    "midi": 75,
                    "time": 140.2665790000006,
                    "velocity": 0.5984251968503937,
                    "duration": 0.13333324999999263
                },
                {
                    "name": "E5",
                    "midi": 76,
                    "time": 140.3999122500006,
                    "velocity": 0.5905511811023622,
                    "duration": 0.13333324999999263
                },
                {
                    "name": "D#5",
                    "midi": 75,
                    "time": 140.5332455000006,
                    "velocity": 0.6220472440944882,
                    "duration": 0.13333324999999263
                },
                {
                    "name": "E5",
                    "midi": 76,
                    "time": 140.66657875000058,
                    "velocity": 0.6456692913385826,
                    "duration": 0.13333324999999263
                },
                {
                    "name": "F5",
                    "midi": 77,
                    "time": 140.79991200000057,
                    "velocity": 0.7007874015748031,
                    "duration": 0.533332999999999
                },
                {
                    "name": "D5",
                    "midi": 74,
                    "time": 140.79991200000057,
                    "velocity": 0.5905511811023622,
                    "duration": 0.533332999999999
                },
                {
                    "name": "A4",
                    "midi": 69,
                    "time": 140.79991200000057,
                    "velocity": 0.5905511811023622,
                    "duration": 0.7999995000000126
                },
                {
                    "name": "C5",
                    "midi": 72,
                    "time": 141.33324500000057,
                    "velocity": 0.5275590551181102,
                    "duration": 0.2666665000000137
                },
                {
                    "name": "E5",
                    "midi": 76,
                    "time": 141.33324500000057,
                    "velocity": 0.6220472440944882,
                    "duration": 0.2666665000000137
                },
                {
                    "name": "A4",
                    "midi": 69,
                    "time": 141.8665780000006,
                    "velocity": 0.5905511811023622,
                    "duration": 0.533332999999999
                },
                {
                    "name": "A5",
                    "midi": 81,
                    "time": 141.8665780000006,
                    "velocity": 0.7007874015748031,
                    "duration": 0.533332999999999
                },
                {
                    "name": "C5",
                    "midi": 72,
                    "time": 141.8665780000006,
                    "velocity": 0.5905511811023622,
                    "duration": 0.7999995000000126
                },
                {
                    "name": "F5",
                    "midi": 77,
                    "time": 141.8665780000006,
                    "velocity": 0.5905511811023622,
                    "duration": 0.533332999999999
                },
                {
                    "name": "E5",
                    "midi": 76,
                    "time": 142.3999110000006,
                    "velocity": 0.5275590551181102,
                    "duration": 0.2666665000000137
                },
                {
                    "name": "G5",
                    "midi": 79,
                    "time": 142.3999110000006,
                    "velocity": 0.6220472440944882,
                    "duration": 0.2666665000000137
                },
                {
                    "name": "G4",
                    "midi": 67,
                    "time": 142.3999110000006,
                    "velocity": 0.5275590551181102,
                    "duration": 0.2666665000000137
                },
                {
                    "name": "E5",
                    "midi": 76,
                    "time": 142.93324400000063,
                    "velocity": 0.5748031496062992,
                    "duration": 0.13333324999999263
                },
                {
                    "name": "C5",
                    "midi": 72,
                    "time": 142.93324400000063,
                    "velocity": 0.5748031496062992,
                    "duration": 0.13333324999999263
                },
                {
                    "name": "C6",
                    "midi": 84,
                    "time": 142.93324400000063,
                    "velocity": 0.6771653543307087,
                    "duration": 0.13333324999999263
                },
                {
                    "name": "B5",
                    "midi": 83,
                    "time": 143.1999105000006,
                    "velocity": 0.5669291338582677,
                    "duration": 0.13333324999999263
                },
                {
                    "name": "E5",
                    "midi": 76,
                    "time": 143.1999105000006,
                    "velocity": 0.48031496062992124,
                    "duration": 0.13333324999999263
                },
                {
                    "name": "B4",
                    "midi": 71,
                    "time": 143.1999105000006,
                    "velocity": 0.48031496062992124,
                    "duration": 0.13333324999999263
                },
                {
                    "name": "A4",
                    "midi": 69,
                    "time": 143.4665770000006,
                    "velocity": 0.5196850393700787,
                    "duration": 0.13333324999999263
                },
                {
                    "name": "A5",
                    "midi": 81,
                    "time": 143.4665770000006,
                    "velocity": 0.6141732283464567,
                    "duration": 0.13333324999999263
                },
                {
                    "name": "C5",
                    "midi": 72,
                    "time": 143.4665770000006,
                    "velocity": 0.5196850393700787,
                    "duration": 0.13333324999999263
                },
                {
                    "name": "G5",
                    "midi": 79,
                    "time": 143.73324350000058,
                    "velocity": 0.5511811023622047,
                    "duration": 0.13333324999999263
                },
                {
                    "name": "C5",
                    "midi": 72,
                    "time": 143.73324350000058,
                    "velocity": 0.4645669291338583,
                    "duration": 0.13333324999999263
                },
                {
                    "name": "G4",
                    "midi": 67,
                    "time": 143.73324350000058,
                    "velocity": 0.4645669291338583,
                    "duration": 0.13333324999999263
                },
                {
                    "name": "A4",
                    "midi": 69,
                    "time": 143.99991000000057,
                    "velocity": 0.5748031496062992,
                    "duration": 0.13333324999999263
                },
                {
                    "name": "F5",
                    "midi": 77,
                    "time": 143.99991000000057,
                    "velocity": 0.6771653543307087,
                    "duration": 0.13333324999999263
                },
                {
                    "name": "F4",
                    "midi": 65,
                    "time": 143.99991000000057,
                    "velocity": 0.5748031496062992,
                    "duration": 0.13333324999999263
                },
                {
                    "name": "E5",
                    "midi": 76,
                    "time": 144.26657650000055,
                    "velocity": 0.5511811023622047,
                    "duration": 0.13333324999999263
                },
                {
                    "name": "E4",
                    "midi": 64,
                    "time": 144.26657650000055,
                    "velocity": 0.4645669291338583,
                    "duration": 0.13333324999999263
                },
                {
                    "name": "A4",
                    "midi": 69,
                    "time": 144.26657650000055,
                    "velocity": 0.4645669291338583,
                    "duration": 0.13333324999999263
                },
                {
                    "name": "F4",
                    "midi": 65,
                    "time": 144.53324300000054,
                    "velocity": 0.5354330708661418,
                    "duration": 0.13333324999999263
                },
                {
                    "name": "A4",
                    "midi": 69,
                    "time": 144.53324300000054,
                    "velocity": 0.5354330708661418,
                    "duration": 0.13333324999999263
                },
                {
                    "name": "D5",
                    "midi": 74,
                    "time": 144.53324300000054,
                    "velocity": 0.6299212598425197,
                    "duration": 0.13333324999999263
                },
                {
                    "name": "C5",
                    "midi": 72,
                    "time": 144.79990950000052,
                    "velocity": 0.5511811023622047,
                    "duration": 0.13333324999999263
                },
                {
                    "name": "A4",
                    "midi": 69,
                    "time": 144.79990950000052,
                    "velocity": 0.4645669291338583,
                    "duration": 0.13333324999999263
                },
                {
                    "name": "F#4",
                    "midi": 66,
                    "time": 144.79990950000052,
                    "velocity": 0.4645669291338583,
                    "duration": 0.13333324999999263
                },
                {
                    "name": "E5",
                    "midi": 76,
                    "time": 145.0665760000005,
                    "velocity": 0.6771653543307087,
                    "duration": 0.533332999999999
                },
                {
                    "name": "G#4",
                    "midi": 68,
                    "time": 145.0665760000005,
                    "velocity": 0.5748031496062992,
                    "duration": 0.533332999999999
                },
                {
                    "name": "E4",
                    "midi": 64,
                    "time": 145.0665760000005,
                    "velocity": 0.5748031496062992,
                    "duration": 0.533332999999999
                },
                {
                    "name": "B4",
                    "midi": 71,
                    "time": 145.0665760000005,
                    "velocity": 0.5748031496062992,
                    "duration": 0.533332999999999
                },
                {
                    "name": "E4",
                    "midi": 64,
                    "time": 146.1332420000005,
                    "velocity": 0.5118110236220472,
                    "duration": 0.13333324999999263
                },
                {
                    "name": "F#4",
                    "midi": 66,
                    "time": 146.2665752500005,
                    "velocity": 0.4645669291338583,
                    "duration": 0.13333324999999263
                },
                {
                    "name": "G#4",
                    "midi": 68,
                    "time": 146.3999085000005,
                    "velocity": 0.4645669291338583,
                    "duration": 0.13333324999999263
                },
                {
                    "name": "A4",
                    "midi": 69,
                    "time": 146.53324175000049,
                    "velocity": 0.48031496062992124,
                    "duration": 0.13333324999999263
                },
                {
                    "name": "A#4",
                    "midi": 70,
                    "time": 146.66657500000048,
                    "velocity": 0.5039370078740157,
                    "duration": 0.13333324999999263
                },
                {
                    "name": "B4",
                    "midi": 71,
                    "time": 146.79990825000047,
                    "velocity": 0.4645669291338583,
                    "duration": 0.13333324999999263
                },
                {
                    "name": "A#4",
                    "midi": 70,
                    "time": 146.93324150000046,
                    "velocity": 0.5118110236220472,
                    "duration": 0.13333324999999263
                },
                {
                    "name": "B4",
                    "midi": 71,
                    "time": 147.06657475000046,
                    "velocity": 0.4645669291338583,
                    "duration": 0.13333324999999263
                },
                {
                    "name": "A4",
                    "midi": 69,
                    "time": 147.19990800000045,
                    "velocity": 0.5511811023622047,
                    "duration": 0.13333324999999263
                },
                {
                    "name": "B4",
                    "midi": 71,
                    "time": 147.33324125000044,
                    "velocity": 0.5039370078740157,
                    "duration": 0.13333324999999263
                },
                {
                    "name": "C5",
                    "midi": 72,
                    "time": 147.46657450000043,
                    "velocity": 0.5039370078740157,
                    "duration": 0.13333324999999263
                },
                {
                    "name": "D5",
                    "midi": 74,
                    "time": 147.59990775000043,
                    "velocity": 0.5039370078740157,
                    "duration": 0.13333324999999263
                },
                {
                    "name": "D#5",
                    "midi": 75,
                    "time": 147.73324100000042,
                    "velocity": 0.5433070866141733,
                    "duration": 0.13333324999999263
                },
                {
                    "name": "E5",
                    "midi": 76,
                    "time": 147.8665742500004,
                    "velocity": 0.5039370078740157,
                    "duration": 0.13333324999999263
                },
                {
                    "name": "D#5",
                    "midi": 75,
                    "time": 147.9999075000004,
                    "velocity": 0.5354330708661418,
                    "duration": 0.13333324999999263
                },
                {
                    "name": "E5",
                    "midi": 76,
                    "time": 148.1332407500004,
                    "velocity": 0.5039370078740157,
                    "duration": 0.13333324999999263
                },
                {
                    "name": "F5",
                    "midi": 77,
                    "time": 148.2665740000004,
                    "velocity": 0.5984251968503937,
                    "duration": 0.13333324999999263
                },
                {
                    "name": "E5",
                    "midi": 76,
                    "time": 148.39990725000038,
                    "velocity": 0.5433070866141733,
                    "duration": 0.13333324999999263
                },
                {
                    "name": "D5",
                    "midi": 74,
                    "time": 148.53324050000037,
                    "velocity": 0.5275590551181102,
                    "duration": 0.13333324999999263
                },
                {
                    "name": "C5",
                    "midi": 72,
                    "time": 148.66657375000037,
                    "velocity": 0.5196850393700787,
                    "duration": 0.13333324999999263
                },
                {
                    "name": "E5",
                    "midi": 76,
                    "time": 148.79990700000036,
                    "velocity": 0.6062992125984252,
                    "duration": 0.13333324999999263
                },
                {
                    "name": "D5",
                    "midi": 74,
                    "time": 148.93324025000035,
                    "velocity": 0.5433070866141733,
                    "duration": 0.13333324999999263
                },
                {
                    "name": "C5",
                    "midi": 72,
                    "time": 149.06657350000035,
                    "velocity": 0.5275590551181102,
                    "duration": 0.13333324999999263
                },
                {
                    "name": "B4",
                    "midi": 71,
                    "time": 149.19990675000034,
                    "velocity": 0.5118110236220472,
                    "duration": 0.13333324999999263
                },
                {
                    "name": "A4",
                    "midi": 69,
                    "time": 149.33324000000033,
                    "velocity": 0.5748031496062992,
                    "duration": 0.13333324999999263
                },
                {
                    "name": "B4",
                    "midi": 71,
                    "time": 149.46657325000032,
                    "velocity": 0.5118110236220472,
                    "duration": 0.13333324999999263
                },
                {
                    "name": "C5",
                    "midi": 72,
                    "time": 149.59990650000032,
                    "velocity": 0.5196850393700787,
                    "duration": 0.13333324999999263
                },
                {
                    "name": "D5",
                    "midi": 74,
                    "time": 149.7332397500003,
                    "velocity": 0.5354330708661418,
                    "duration": 0.13333324999999263
                },
                {
                    "name": "E5",
                    "midi": 76,
                    "time": 149.8665730000003,
                    "velocity": 0.5433070866141733,
                    "duration": 0.13333324999999263
                },
                {
                    "name": "F#5",
                    "midi": 78,
                    "time": 149.9999062500003,
                    "velocity": 0.5511811023622047,
                    "duration": 0.13333324999999263
                },
                {
                    "name": "G#5",
                    "midi": 80,
                    "time": 150.1332395000003,
                    "velocity": 0.5669291338582677,
                    "duration": 0.13333324999999263
                },
                {
                    "name": "A5",
                    "midi": 81,
                    "time": 150.26657275000028,
                    "velocity": 0.5748031496062992,
                    "duration": 0.13333324999999263
                },
                {
                    "name": "A#4",
                    "midi": 70,
                    "time": 150.39990600000027,
                    "velocity": 0.6299212598425197,
                    "duration": 0.13333324999999263
                },
                {
                    "name": "A#5",
                    "midi": 82,
                    "time": 150.39990600000027,
                    "velocity": 0.7559055118110236,
                    "duration": 0.13333324999999263
                },
                {
                    "name": "A5",
                    "midi": 81,
                    "time": 150.66657250000026,
                    "velocity": 0.5275590551181102,
                    "duration": 0.13333324999999263
                },
                {
                    "name": "A4",
                    "midi": 69,
                    "time": 150.66657250000026,
                    "velocity": 0.4409448818897638,
                    "duration": 0.13333324999999263
                },
                {
                    "name": "A#5",
                    "midi": 82,
                    "time": 150.93323900000024,
                    "velocity": 0.5511811023622047,
                    "duration": 0.13333324999999263
                },
                {
                    "name": "A#4",
                    "midi": 70,
                    "time": 150.93323900000024,
                    "velocity": 0.47244094488188976,
                    "duration": 0.13333324999999263
                },
                {
                    "name": "C6",
                    "midi": 84,
                    "time": 151.19990550000023,
                    "velocity": 0.5354330708661418,
                    "duration": 0.13333324999999263
                },
                {
                    "name": "C5",
                    "midi": 72,
                    "time": 151.19990550000023,
                    "velocity": 0.44881889763779526,
                    "duration": 0.13333324999999263
                },
                {
                    "name": "A4",
                    "midi": 69,
                    "time": 151.4665720000002,
                    "velocity": 0.6299212598425197,
                    "duration": 0.13333324999999263
                },
                {
                    "name": "A5",
                    "midi": 81,
                    "time": 151.4665720000002,
                    "velocity": 0.7559055118110236,
                    "duration": 0.13333324999999263
                },
                {
                    "name": "F4",
                    "midi": 65,
                    "time": 151.7332385000002,
                    "velocity": 0.4409448818897638,
                    "duration": 0.13333324999999263
                },
                {
                    "name": "F5",
                    "midi": 77,
                    "time": 151.7332385000002,
                    "velocity": 0.5275590551181102,
                    "duration": 0.13333324999999263
                },
                {
                    "name": "G5",
                    "midi": 79,
                    "time": 151.99990500000018,
                    "velocity": 0.5511811023622047,
                    "duration": 0.13333324999999263
                },
                {
                    "name": "G4",
                    "midi": 67,
                    "time": 151.99990500000018,
                    "velocity": 0.47244094488188976,
                    "duration": 0.13333324999999263
                },
                {
                    "name": "A4",
                    "midi": 69,
                    "time": 152.26657150000017,
                    "velocity": 0.44881889763779526,
                    "duration": 0.13333324999999263
                },
                {
                    "name": "A5",
                    "midi": 81,
                    "time": 152.26657150000017,
                    "velocity": 0.5354330708661418,
                    "duration": 0.13333324999999263
                },
                {
                    "name": "A#4",
                    "midi": 70,
                    "time": 152.53323800000015,
                    "velocity": 0.6299212598425197,
                    "duration": 0.13333324999999263
                },
                {
                    "name": "A#5",
                    "midi": 82,
                    "time": 152.53323800000015,
                    "velocity": 0.7559055118110236,
                    "duration": 0.13333324999999263
                },
                {
                    "name": "G4",
                    "midi": 67,
                    "time": 152.79990450000014,
                    "velocity": 0.4409448818897638,
                    "duration": 0.13333324999999263
                },
                {
                    "name": "G5",
                    "midi": 79,
                    "time": 152.79990450000014,
                    "velocity": 0.5275590551181102,
                    "duration": 0.13333324999999263
                },
                {
                    "name": "A4",
                    "midi": 69,
                    "time": 153.06657100000012,
                    "velocity": 0.5433070866141733,
                    "duration": 0.13333324999999263
                },
                {
                    "name": "A5",
                    "midi": 81,
                    "time": 153.06657100000012,
                    "velocity": 0.7165354330708661,
                    "duration": 0.13333324999999263
                },
                {
                    "name": "C6",
                    "midi": 84,
                    "time": 153.3332375000001,
                    "velocity": 0.5354330708661418,
                    "duration": 0.13333324999999263
                },
                {
                    "name": "C5",
                    "midi": 72,
                    "time": 153.3332375000001,
                    "velocity": 0.44881889763779526,
                    "duration": 0.13333324999999263
                },
                {
                    "name": "F4",
                    "midi": 65,
                    "time": 153.5999040000001,
                    "velocity": 0.6299212598425197,
                    "duration": 0.13333324999999263
                },
                {
                    "name": "F5",
                    "midi": 77,
                    "time": 153.5999040000001,
                    "velocity": 0.7559055118110236,
                    "duration": 0.13333324999999263
                },
                {
                    "name": "C5",
                    "midi": 72,
                    "time": 153.86657050000008,
                    "velocity": 0.5275590551181102,
                    "duration": 0.13333324999999263
                },
                {
                    "name": "A4",
                    "midi": 69,
                    "time": 154.13323700000007,
                    "velocity": 0.5511811023622047,
                    "duration": 0.13333324999999263
                },
                {
                    "name": "F4",
                    "midi": 65,
                    "time": 154.39990350000005,
                    "velocity": 0.5354330708661418,
                    "duration": 0.12222214583331947
                },
                {
                    "name": "A4",
                    "midi": 69,
                    "time": 154.66657000000004,
                    "velocity": 0.5354330708661418,
                    "duration": 0.13333324999999263
                },
                {
                    "name": "B4",
                    "midi": 71,
                    "time": 154.79990325000003,
                    "velocity": 0.48031496062992124,
                    "duration": 0.13333324999999263
                },
                {
                    "name": "C#5",
                    "midi": 73,
                    "time": 154.93323650000002,
                    "velocity": 0.48031496062992124,
                    "duration": 0.13333324999999263
                },
                {
                    "name": "D5",
                    "midi": 74,
                    "time": 155.06656975,
                    "velocity": 0.5039370078740157,
                    "duration": 0.13333324999999263
                },
                {
                    "name": "D#5",
                    "midi": 75,
                    "time": 155.199903,
                    "velocity": 0.5275590551181102,
                    "duration": 0.13333324999999263
                },
                {
                    "name": "E5",
                    "midi": 76,
                    "time": 155.33323625,
                    "velocity": 0.48031496062992124,
                    "duration": 0.13333324999999263
                },
                {
                    "name": "D#5",
                    "midi": 75,
                    "time": 155.4665695,
                    "velocity": 0.5354330708661418,
                    "duration": 0.13333324999999263
                },
                {
                    "name": "E5",
                    "midi": 76,
                    "time": 155.59990274999998,
                    "velocity": 0.48031496062992124,
                    "duration": 0.13333324999999263
                },
                {
                    "name": "D5",
                    "midi": 74,
                    "time": 155.73323599999998,
                    "velocity": 0.5748031496062992,
                    "duration": 0.13333324999999263
                },
                {
                    "name": "E5",
                    "midi": 76,
                    "time": 155.86656924999997,
                    "velocity": 0.5275590551181102,
                    "duration": 0.13333324999999263
                },
                {
                    "name": "F5",
                    "midi": 77,
                    "time": 155.99990249999996,
                    "velocity": 0.5275590551181102,
                    "duration": 0.13333324999999263
                },
                {
                    "name": "G5",
                    "midi": 79,
                    "time": 156.13323574999995,
                    "velocity": 0.5275590551181102,
                    "duration": 0.13333324999999263
                },
                {
                    "name": "G#5",
                    "midi": 80,
                    "time": 156.26656899999995,
                    "velocity": 0.5669291338582677,
                    "duration": 0.13333324999999263
                },
                {
                    "name": "A5",
                    "midi": 81,
                    "time": 156.39990224999994,
                    "velocity": 0.5275590551181102,
                    "duration": 0.13333324999999263
                },
                {
                    "name": "G#5",
                    "midi": 80,
                    "time": 156.53323549999993,
                    "velocity": 0.5590551181102362,
                    "duration": 0.13333324999999263
                },
                {
                    "name": "A5",
                    "midi": 81,
                    "time": 156.66656874999993,
                    "velocity": 0.5275590551181102,
                    "duration": 0.13333324999999263
                },
                {
                    "name": "A#5",
                    "midi": 82,
                    "time": 156.79990199999992,
                    "velocity": 0.5984251968503937,
                    "duration": 0.13333324999999263
                },
                {
                    "name": "A5",
                    "midi": 81,
                    "time": 156.9332352499999,
                    "velocity": 0.5669291338582677,
                    "duration": 0.13333324999999263
                },
                {
                    "name": "G5",
                    "midi": 79,
                    "time": 157.0665684999999,
                    "velocity": 0.5511811023622047,
                    "duration": 0.13333324999999263
                },
                {
                    "name": "F5",
                    "midi": 77,
                    "time": 157.1999017499999,
                    "velocity": 0.5433070866141733,
                    "duration": 0.13333324999999263
                },
                {
                    "name": "A5",
                    "midi": 81,
                    "time": 157.3332349999999,
                    "velocity": 0.6062992125984252,
                    "duration": 0.13333324999999263
                },
                {
                    "name": "G5",
                    "midi": 79,
                    "time": 157.46656824999988,
                    "velocity": 0.5669291338582677,
                    "duration": 0.13333324999999263
                },
                {
                    "name": "F5",
                    "midi": 77,
                    "time": 157.59990149999987,
                    "velocity": 0.5511811023622047,
                    "duration": 0.13333324999999263
                },
                {
                    "name": "E5",
                    "midi": 76,
                    "time": 157.73323474999987,
                    "velocity": 0.5354330708661418,
                    "duration": 0.13333324999999263
                },
                {
                    "name": "D5",
                    "midi": 74,
                    "time": 157.86656799999986,
                    "velocity": 0.5984251968503937,
                    "duration": 0.13333324999999263
                },
                {
                    "name": "E5",
                    "midi": 76,
                    "time": 157.99990124999985,
                    "velocity": 0.5354330708661418,
                    "duration": 0.13333324999999263
                },
                {
                    "name": "F5",
                    "midi": 77,
                    "time": 158.13323449999984,
                    "velocity": 0.5433070866141733,
                    "duration": 0.13333324999999263
                },
                {
                    "name": "G5",
                    "midi": 79,
                    "time": 158.26656774999984,
                    "velocity": 0.5590551181102362,
                    "duration": 0.13333324999999263
                },
                {
                    "name": "A5",
                    "midi": 81,
                    "time": 158.39990099999983,
                    "velocity": 0.5669291338582677,
                    "duration": 0.13333324999999263
                },
                {
                    "name": "B5",
                    "midi": 83,
                    "time": 158.53323424999982,
                    "velocity": 0.5748031496062992,
                    "duration": 0.13333324999999263
                },
                {
                    "name": "C#6",
                    "midi": 85,
                    "time": 158.66656749999981,
                    "velocity": 0.5905511811023622,
                    "duration": 0.13333324999999263
                },
                {
                    "name": "D6",
                    "midi": 86,
                    "time": 158.7999007499998,
                    "velocity": 0.5984251968503937,
                    "duration": 0.13333324999999263
                },
                {
                    "name": "D#6",
                    "midi": 87,
                    "time": 158.9332339999998,
                    "velocity": 0.8267716535433071,
                    "duration": 0.13333324999999263
                },
                {
                    "name": "D#5",
                    "midi": 75,
                    "time": 158.9332339999998,
                    "velocity": 0.6929133858267716,
                    "duration": 0.13333324999999263
                },
                {
                    "name": "D6",
                    "midi": 86,
                    "time": 159.19990049999979,
                    "velocity": 0.5511811023622047,
                    "duration": 0.13333324999999263
                },
                {
                    "name": "D5",
                    "midi": 74,
                    "time": 159.19990049999979,
                    "velocity": 0.4566929133858268,
                    "duration": 0.13333324999999263
                },
                {
                    "name": "D#5",
                    "midi": 75,
                    "time": 159.46656699999977,
                    "velocity": 0.49606299212598426,
                    "duration": 0.13333324999999263
                },
                {
                    "name": "D#6",
                    "midi": 87,
                    "time": 159.46656699999977,
                    "velocity": 0.5748031496062992,
                    "duration": 0.13333324999999263
                },
                {
                    "name": "F5",
                    "midi": 77,
                    "time": 159.73323349999976,
                    "velocity": 0.4645669291338583,
                    "duration": 0.13333324999999263
                },
                {
                    "name": "F6",
                    "midi": 89,
                    "time": 159.73323349999976,
                    "velocity": 0.5590551181102362,
                    "duration": 0.13333324999999263
                },
                {
                    "name": "D5",
                    "midi": 74,
                    "time": 159.99989999999974,
                    "velocity": 0.6929133858267716,
                    "duration": 0.13333324999999263
                },
                {
                    "name": "D6",
                    "midi": 86,
                    "time": 159.99989999999974,
                    "velocity": 0.8267716535433071,
                    "duration": 0.13333324999999263
                },
                {
                    "name": "A#5",
                    "midi": 82,
                    "time": 160.26656649999973,
                    "velocity": 0.5511811023622047,
                    "duration": 0.13333324999999263
                },
                {
                    "name": "A#4",
                    "midi": 70,
                    "time": 160.26656649999973,
                    "velocity": 0.4566929133858268,
                    "duration": 0.13333324999999263
                },
                {
                    "name": "C6",
                    "midi": 84,
                    "time": 160.5332329999997,
                    "velocity": 0.5748031496062992,
                    "duration": 0.13333324999999263
                },
                {
                    "name": "C5",
                    "midi": 72,
                    "time": 160.5332329999997,
                    "velocity": 0.49606299212598426,
                    "duration": 0.13333324999999263
                },
                {
                    "name": "D6",
                    "midi": 86,
                    "time": 160.7998994999997,
                    "velocity": 0.5590551181102362,
                    "duration": 0.13333324999999263
                },
                {
                    "name": "D5",
                    "midi": 74,
                    "time": 160.7998994999997,
                    "velocity": 0.4645669291338583,
                    "duration": 0.13333324999999263
                },
                {
                    "name": "D#6",
                    "midi": 87,
                    "time": 161.06656599999968,
                    "velocity": 0.8267716535433071,
                    "duration": 0.13333324999999263
                },
                {
                    "name": "D#5",
                    "midi": 75,
                    "time": 161.06656599999968,
                    "velocity": 0.6929133858267716,
                    "duration": 0.13333324999999263
                },
                {
                    "name": "C6",
                    "midi": 84,
                    "time": 161.33323249999967,
                    "velocity": 0.5511811023622047,
                    "duration": 0.13333324999999263
                },
                {
                    "name": "C5",
                    "midi": 72,
                    "time": 161.33323249999967,
                    "velocity": 0.4566929133858268,
                    "duration": 0.13333324999999263
                },
                {
                    "name": "D6",
                    "midi": 86,
                    "time": 161.59989899999965,
                    "velocity": 0.7480314960629921,
                    "duration": 0.13333324999999263
                },
                {
                    "name": "D5",
                    "midi": 74,
                    "time": 161.59989899999965,
                    "velocity": 0.5669291338582677,
                    "duration": 0.13333324999999263
                },
                {
                    "name": "F6",
                    "midi": 89,
                    "time": 161.86656549999964,
                    "velocity": 0.5590551181102362,
                    "duration": 0.13333324999999263
                },
                {
                    "name": "F5",
                    "midi": 77,
                    "time": 161.86656549999964,
                    "velocity": 0.4645669291338583,
                    "duration": 0.13333324999999263
                },
                {
                    "name": "D5",
                    "midi": 74,
                    "time": 162.13323199999962,
                    "velocity": 0.6614173228346457,
                    "duration": 0.13333324999999263
                },
                {
                    "name": "D6",
                    "midi": 86,
                    "time": 162.13323199999962,
                    "velocity": 0.7874015748031497,
                    "duration": 0.13333324999999263
                },
                {
                    "name": "A#5",
                    "midi": 82,
                    "time": 162.3998984999996,
                    "velocity": 0.5511811023622047,
                    "duration": 0.13333324999999263
                },
                {
                    "name": "A#4",
                    "midi": 70,
                    "time": 162.3998984999996,
                    "velocity": 0.4566929133858268,
                    "duration": 0.13333324999999263
                },
                {
                    "name": "C5",
                    "midi": 72,
                    "time": 162.6665649999996,
                    "velocity": 0.49606299212598426,
                    "duration": 0.13333324999999263
                },
                {
                    "name": "C6",
                    "midi": 84,
                    "time": 162.6665649999996,
                    "velocity": 0.5748031496062992,
                    "duration": 0.13333324999999263
                },
                {
                    "name": "D#6",
                    "midi": 87,
                    "time": 162.93323149999958,
                    "velocity": 0.5590551181102362,
                    "duration": 0.13333324999999263
                },
                {
                    "name": "D#5",
                    "midi": 75,
                    "time": 162.93323149999958,
                    "velocity": 0.4645669291338583,
                    "duration": 0.13333324999999263
                },
                {
                    "name": "C5",
                    "midi": 72,
                    "time": 163.19989799999956,
                    "velocity": 0.6220472440944882,
                    "duration": 0.13333324999999263
                },
                {
                    "name": "C6",
                    "midi": 84,
                    "time": 163.19989799999956,
                    "velocity": 0.7480314960629921,
                    "duration": 0.13333324999999263
                },
                {
                    "name": "A4",
                    "midi": 69,
                    "time": 163.46656449999955,
                    "velocity": 0.4566929133858268,
                    "duration": 0.13333324999999263
                },
                {
                    "name": "A5",
                    "midi": 81,
                    "time": 163.46656449999955,
                    "velocity": 0.5511811023622047,
                    "duration": 0.13333324999999263
                },
                {
                    "name": "A#5",
                    "midi": 82,
                    "time": 163.73323099999953,
                    "velocity": 0.7480314960629921,
                    "duration": 0.13333324999999263
                },
                {
                    "name": "A#4",
                    "midi": 70,
                    "time": 163.73323099999953,
                    "velocity": 0.5669291338582677,
                    "duration": 0.13333324999999263
                },
                {
                    "name": "D5",
                    "midi": 74,
                    "time": 163.99989749999952,
                    "velocity": 0.4645669291338583,
                    "duration": 0.13333324999999263
                },
                {
                    "name": "D6",
                    "midi": 86,
                    "time": 163.99989749999952,
                    "velocity": 0.5590551181102362,
                    "duration": 0.13333324999999263
                },
                {
                    "name": "D6",
                    "midi": 86,
                    "time": 164.2665639999995,
                    "velocity": 0.5748031496062992,
                    "duration": 0.13333324999999263
                },
                {
                    "name": "C6",
                    "midi": 84,
                    "time": 164.3998972499995,
                    "velocity": 0.5275590551181102,
                    "duration": 0.13333324999999263
                },
                {
                    "name": "A#5",
                    "midi": 82,
                    "time": 164.5332304999995,
                    "velocity": 0.5275590551181102,
                    "duration": 0.13333324999999263
                },
                {
                    "name": "A5",
                    "midi": 81,
                    "time": 164.66656374999948,
                    "velocity": 0.5275590551181102,
                    "duration": 0.13333324999999263
                },
                {
                    "name": "C6",
                    "midi": 84,
                    "time": 164.79989699999948,
                    "velocity": 0.5669291338582677,
                    "duration": 0.13333324999999263
                },
                {
                    "name": "A#5",
                    "midi": 82,
                    "time": 164.93323024999947,
                    "velocity": 0.5275590551181102,
                    "duration": 0.13333324999999263
                },
                {
                    "name": "A5",
                    "midi": 81,
                    "time": 165.06656349999946,
                    "velocity": 0.5590551181102362,
                    "duration": 0.13333324999999263
                },
                {
                    "name": "A#5",
                    "midi": 82,
                    "time": 165.19989674999945,
                    "velocity": 0.5275590551181102,
                    "duration": 0.13333324999999263
                },
                {
                    "name": "C6",
                    "midi": 84,
                    "time": 165.33322999999945,
                    "velocity": 0.5984251968503937,
                    "duration": 0.13333324999999263
                },
                {
                    "name": "A#5",
                    "midi": 82,
                    "time": 165.46656324999944,
                    "velocity": 0.5669291338582677,
                    "duration": 0.13333324999999263
                },
                {
                    "name": "A5",
                    "midi": 81,
                    "time": 165.59989649999943,
                    "velocity": 0.5511811023622047,
                    "duration": 0.13333324999999263
                },
                {
                    "name": "G5",
                    "midi": 79,
                    "time": 165.73322974999942,
                    "velocity": 0.5433070866141733,
                    "duration": 0.13333324999999263
                },
                {
                    "name": "A#5",
                    "midi": 82,
                    "time": 165.86656299999942,
                    "velocity": 0.6062992125984252,
                    "duration": 0.13333324999999263
                },
                {
                    "name": "A5",
                    "midi": 81,
                    "time": 165.9998962499994,
                    "velocity": 0.5669291338582677,
                    "duration": 0.13333324999999263
                },
                {
                    "name": "G5",
                    "midi": 79,
                    "time": 166.1332294999994,
                    "velocity": 0.5511811023622047,
                    "duration": 0.13333324999999263
                },
                {
                    "name": "A5",
                    "midi": 81,
                    "time": 166.2665627499994,
                    "velocity": 0.5354330708661418,
                    "duration": 0.13333324999999263
                },
                {
                    "name": "A#5",
                    "midi": 82,
                    "time": 166.3998959999994,
                    "velocity": 0.5748031496062992,
                    "duration": 0.13333324999999263
                },
                {
                    "name": "A5",
                    "midi": 81,
                    "time": 166.53322924999938,
                    "velocity": 0.5275590551181102,
                    "duration": 0.13333324999999263
                },
                {
                    "name": "G5",
                    "midi": 79,
                    "time": 166.66656249999937,
                    "velocity": 0.5275590551181102,
                    "duration": 0.13333324999999263
                },
                {
                    "name": "F5",
                    "midi": 77,
                    "time": 166.79989574999937,
                    "velocity": 0.5275590551181102,
                    "duration": 0.13333324999999263
                },
                {
                    "name": "A5",
                    "midi": 81,
                    "time": 166.93322899999936,
                    "velocity": 0.5669291338582677,
                    "duration": 0.13333324999999263
                },
                {
                    "name": "G5",
                    "midi": 79,
                    "time": 167.06656224999935,
                    "velocity": 0.5275590551181102,
                    "duration": 0.13333324999999263
                },
                {
                    "name": "F5",
                    "midi": 77,
                    "time": 167.19989549999934,
                    "velocity": 0.5590551181102362,
                    "duration": 0.13333324999999263
                },
                {
                    "name": "E5",
                    "midi": 76,
                    "time": 167.33322874999934,
                    "velocity": 0.5275590551181102,
                    "duration": 0.13333324999999263
                },
                {
                    "name": "G5",
                    "midi": 79,
                    "time": 167.46656199999933,
                    "velocity": 0.5984251968503937,
                    "duration": 0.13333324999999263
                },
                {
                    "name": "F5",
                    "midi": 77,
                    "time": 167.59989524999932,
                    "velocity": 0.5669291338582677,
                    "duration": 0.13333324999999263
                },
                {
                    "name": "E5",
                    "midi": 76,
                    "time": 167.7332284999993,
                    "velocity": 0.5511811023622047,
                    "duration": 0.13333324999999263
                },
                {
                    "name": "D5",
                    "midi": 74,
                    "time": 167.8665617499993,
                    "velocity": 0.5433070866141733,
                    "duration": 0.13333324999999263
                },
                {
                    "name": "F5",
                    "midi": 77,
                    "time": 167.9998949999993,
                    "velocity": 0.6062992125984252,
                    "duration": 0.13333324999999263
                },
                {
                    "name": "E5",
                    "midi": 76,
                    "time": 168.1332282499993,
                    "velocity": 0.5669291338582677,
                    "duration": 0.13333324999999263
                },
                {
                    "name": "D5",
                    "midi": 74,
                    "time": 168.26656149999928,
                    "velocity": 0.5511811023622047,
                    "duration": 0.13333324999999263
                },
                {
                    "name": "E5",
                    "midi": 76,
                    "time": 168.39989474999928,
                    "velocity": 0.5354330708661418,
                    "duration": 0.13333324999999263
                },
                {
                    "name": "F5",
                    "midi": 77,
                    "time": 168.53322799999927,
                    "velocity": 0.5748031496062992,
                    "duration": 0.13333324999999263
                },
                {
                    "name": "E5",
                    "midi": 76,
                    "time": 168.66656124999926,
                    "velocity": 0.5275590551181102,
                    "duration": 0.13333324999999263
                },
                {
                    "name": "D5",
                    "midi": 74,
                    "time": 168.79989449999925,
                    "velocity": 0.5275590551181102,
                    "duration": 0.13333324999999263
                },
                {
                    "name": "E5",
                    "midi": 76,
                    "time": 168.93322774999925,
                    "velocity": 0.5275590551181102,
                    "duration": 0.13333324999999263
                },
                {
                    "name": "D5",
                    "midi": 74,
                    "time": 169.06656099999924,
                    "velocity": 0.5669291338582677,
                    "duration": 0.13333324999999263
                },
                {
                    "name": "C5",
                    "midi": 72,
                    "time": 169.19989424999923,
                    "velocity": 0.5275590551181102,
                    "duration": 0.13333324999999263
                },
                {
                    "name": "B4",
                    "midi": 71,
                    "time": 169.33322749999923,
                    "velocity": 0.5590551181102362,
                    "duration": 0.13333324999999263
                },
                {
                    "name": "C5",
                    "midi": 72,
                    "time": 169.46656074999922,
                    "velocity": 0.5275590551181102,
                    "duration": 0.13333324999999263
                },
                {
                    "name": "B4",
                    "midi": 71,
                    "time": 169.5998939999992,
                    "velocity": 0.5984251968503937,
                    "duration": 0.13333324999999263
                },
                {
                    "name": "A4",
                    "midi": 69,
                    "time": 169.7332272499992,
                    "velocity": 0.5669291338582677,
                    "duration": 0.13333324999999263
                },
                {
                    "name": "G#4",
                    "midi": 68,
                    "time": 169.8665604999992,
                    "velocity": 0.5511811023622047,
                    "duration": 0.13333324999999263
                },
                {
                    "name": "A4",
                    "midi": 69,
                    "time": 169.9998937499992,
                    "velocity": 0.5433070866141733,
                    "duration": 0.13333324999999263
                },
                {
                    "name": "G#4",
                    "midi": 68,
                    "time": 170.13322699999918,
                    "velocity": 0.6062992125984252,
                    "duration": 0.13333324999999263
                },
                {
                    "name": "F#4",
                    "midi": 66,
                    "time": 170.26656024999917,
                    "velocity": 0.5669291338582677,
                    "duration": 0.13333324999999263
                },
                {
                    "name": "E4",
                    "midi": 64,
                    "time": 170.39989349999917,
                    "velocity": 0.5511811023622047,
                    "duration": 0.13333324999999263
                },
                {
                    "name": "F#4",
                    "midi": 66,
                    "time": 170.53322674999916,
                    "velocity": 0.5354330708661418,
                    "duration": 0.13333324999999263
                },
                {
                    "name": "G#4",
                    "midi": 68,
                    "time": 170.66655999999915,
                    "velocity": 0.5748031496062992,
                    "duration": 0.13333324999999263
                },
                {
                    "name": "F#4",
                    "midi": 66,
                    "time": 170.79989324999914,
                    "velocity": 0.5275590551181102,
                    "duration": 0.13333324999999263
                },
                {
                    "name": "E4",
                    "midi": 64,
                    "time": 170.93322649999914,
                    "velocity": 0.5275590551181102,
                    "duration": 0.13333324999999263
                },
                {
                    "name": "F#4",
                    "midi": 66,
                    "time": 171.06655974999913,
                    "velocity": 0.5275590551181102,
                    "duration": 0.13333324999999263
                },
                {
                    "name": "G#4",
                    "midi": 68,
                    "time": 171.19989299999912,
                    "velocity": 0.5669291338582677,
                    "duration": 0.13333324999999263
                },
                {
                    "name": "F#4",
                    "midi": 66,
                    "time": 171.33322624999911,
                    "velocity": 0.5275590551181102,
                    "duration": 0.13333324999999263
                },
                {
                    "name": "E4",
                    "midi": 64,
                    "time": 171.4665594999991,
                    "velocity": 0.5590551181102362,
                    "duration": 0.13333324999999263
                },
                {
                    "name": "F#4",
                    "midi": 66,
                    "time": 171.5998927499991,
                    "velocity": 0.5275590551181102,
                    "duration": 0.13333324999999263
                },
                {
                    "name": "G#4",
                    "midi": 68,
                    "time": 171.7332259999991,
                    "velocity": 0.5984251968503937,
                    "duration": 0.13333324999999263
                },
                {
                    "name": "F#4",
                    "midi": 66,
                    "time": 171.86655924999909,
                    "velocity": 0.5669291338582677,
                    "duration": 0.13333324999999263
                },
                {
                    "name": "E4",
                    "midi": 64,
                    "time": 171.99989249999908,
                    "velocity": 0.5511811023622047,
                    "duration": 0.13333324999999263
                },
                {
                    "name": "F#4",
                    "midi": 66,
                    "time": 172.13322574999907,
                    "velocity": 0.5433070866141733,
                    "duration": 0.13333324999999263
                },
                {
                    "name": "G#4",
                    "midi": 68,
                    "time": 172.26655899999906,
                    "velocity": 0.6062992125984252,
                    "duration": 0.13333324999999263
                },
                {
                    "name": "F#4",
                    "midi": 66,
                    "time": 172.39989224999906,
                    "velocity": 0.5669291338582677,
                    "duration": 0.13333324999999263
                },
                {
                    "name": "E4",
                    "midi": 64,
                    "time": 172.53322549999905,
                    "velocity": 0.5511811023622047,
                    "duration": 0.13333324999999263
                },
                {
                    "name": "F#4",
                    "midi": 66,
                    "time": 172.66655874999904,
                    "velocity": 0.5354330708661418,
                    "duration": 0.13333324999999263
                },
                {
                    "name": "E4",
                    "midi": 64,
                    "time": 172.79989199999903,
                    "velocity": 0.6062992125984252,
                    "duration": 0.533332999999999
                },
                {
                    "name": "D4",
                    "midi": 62,
                    "time": 173.86655799999903,
                    "velocity": 0.3543307086614173,
                    "duration": 0.13333324999999263
                },
                {
                    "name": "E4",
                    "midi": 64,
                    "time": 173.86655799999903,
                    "velocity": 0.4251968503937008,
                    "duration": 0.13333324999999263
                },
                {
                    "name": "E4",
                    "midi": 64,
                    "time": 174.13322449999902,
                    "velocity": 0.3858267716535433,
                    "duration": 0.13333324999999263
                },
                {
                    "name": "B3",
                    "midi": 59,
                    "time": 174.13322449999902,
                    "velocity": 0.3228346456692913,
                    "duration": 0.13333324999999263
                },
                {
                    "name": "G#3",
                    "midi": 56,
                    "time": 174.399890999999,
                    "velocity": 0.3543307086614173,
                    "duration": 0.13333324999999263
                },
                {
                    "name": "E4",
                    "midi": 64,
                    "time": 174.399890999999,
                    "velocity": 0.4251968503937008,
                    "duration": 0.13333324999999263
                },
                {
                    "name": "E3",
                    "midi": 52,
                    "time": 174.666557499999,
                    "velocity": 0.31496062992125984,
                    "duration": 0.13333324999999263
                },
                {
                    "name": "E4",
                    "midi": 64,
                    "time": 174.666557499999,
                    "velocity": 0.3779527559055118,
                    "duration": 0.13333324999999263
                },
                {
                    "name": "D5",
                    "midi": 74,
                    "time": 175.99988999999897,
                    "velocity": 0.2992125984251969,
                    "duration": 0.13333324999999263
                },
                {
                    "name": "E5",
                    "midi": 76,
                    "time": 175.99988999999897,
                    "velocity": 0.3543307086614173,
                    "duration": 0.13333324999999263
                },
                {
                    "name": "E5",
                    "midi": 76,
                    "time": 176.26655649999896,
                    "velocity": 0.3228346456692913,
                    "duration": 0.13333324999999263
                },
                {
                    "name": "B4",
                    "midi": 71,
                    "time": 176.26655649999896,
                    "velocity": 0.2677165354330709,
                    "duration": 0.13333324999999263
                },
                {
                    "name": "G#4",
                    "midi": 68,
                    "time": 176.53322299999894,
                    "velocity": 0.2992125984251969,
                    "duration": 0.13333324999999263
                },
                {
                    "name": "E5",
                    "midi": 76,
                    "time": 176.53322299999894,
                    "velocity": 0.3543307086614173,
                    "duration": 0.13333324999999263
                },
                {
                    "name": "E5",
                    "midi": 76,
                    "time": 176.79988949999893,
                    "velocity": 0.31496062992125984,
                    "duration": 0.13333324999999263
                },
                {
                    "name": "E4",
                    "midi": 64,
                    "time": 176.79988949999893,
                    "velocity": 0.2677165354330709,
                    "duration": 0.13333324999999263
                },
                {
                    "name": "A4",
                    "midi": 69,
                    "time": 178.1332219999989,
                    "velocity": 0.41732283464566927,
                    "duration": 0.13333324999999263
                },
                {
                    "name": "B4",
                    "midi": 71,
                    "time": 178.2665552499989,
                    "velocity": 0.3858267716535433,
                    "duration": 0.13333324999999263
                },
                {
                    "name": "C#5",
                    "midi": 73,
                    "time": 178.3998884999989,
                    "velocity": 0.41732283464566927,
                    "duration": 0.13333324999999263
                },
                {
                    "name": "D5",
                    "midi": 74,
                    "time": 178.5332217499989,
                    "velocity": 0.3858267716535433,
                    "duration": 0.13333324999999263
                },
                {
                    "name": "D#5",
                    "midi": 75,
                    "time": 178.66655499999888,
                    "velocity": 0.41732283464566927,
                    "duration": 0.13333324999999263
                },
                {
                    "name": "E5",
                    "midi": 76,
                    "time": 178.79988824999887,
                    "velocity": 0.4094488188976378,
                    "duration": 0.13333324999999263
                },
                {
                    "name": "D#5",
                    "midi": 75,
                    "time": 178.93322149999887,
                    "velocity": 0.4330708661417323,
                    "duration": 0.13333324999999263
                },
                {
                    "name": "E5",
                    "midi": 76,
                    "time": 179.06655474999886,
                    "velocity": 0.44881889763779526,
                    "duration": 0.13333324999999263
                },
                {
                    "name": "A4",
                    "midi": 69,
                    "time": 179.19988799999885,
                    "velocity": 0.4094488188976378,
                    "duration": 0.7999995000000126
                },
                {
                    "name": "D5",
                    "midi": 74,
                    "time": 179.19988799999885,
                    "velocity": 0.4094488188976378,
                    "duration": 0.533332999999999
                },
                {
                    "name": "F#5",
                    "midi": 78,
                    "time": 179.19988799999885,
                    "velocity": 0.4881889763779528,
                    "duration": 0.533332999999999
                },
                {
                    "name": "C#5",
                    "midi": 73,
                    "time": 179.73322099999885,
                    "velocity": 0.36220472440944884,
                    "duration": 0.2666665000000137
                },
                {
                    "name": "E5",
                    "midi": 76,
                    "time": 179.73322099999885,
                    "velocity": 0.4330708661417323,
                    "duration": 0.2666665000000137
                },
                {
                    "name": "A5",
                    "midi": 81,
                    "time": 180.26655399999888,
                    "velocity": 0.5039370078740157,
                    "duration": 0.17777766666665684
                },
                {
                    "name": "G#5",
                    "midi": 80,
                    "time": 180.44433166666553,
                    "velocity": 0.4566929133858268,
                    "duration": 0.17777766666665684
                },
                {
                    "name": "F#5",
                    "midi": 78,
                    "time": 180.6221093333322,
                    "velocity": 0.4566929133858268,
                    "duration": 0.17777766666665684
                },
                {
                    "name": "E5",
                    "midi": 76,
                    "time": 180.79988699999885,
                    "velocity": 0.5039370078740157,
                    "duration": 0.17777766666665684
                },
                {
                    "name": "D5",
                    "midi": 74,
                    "time": 180.9776646666655,
                    "velocity": 0.4566929133858268,
                    "duration": 0.17777766666665684
                },
                {
                    "name": "C#5",
                    "midi": 73,
                    "time": 181.15544233333216,
                    "velocity": 0.4566929133858268,
                    "duration": 0.17777766666665684
                },
                {
                    "name": "E5",
                    "midi": 76,
                    "time": 181.33321999999882,
                    "velocity": 0.5039370078740157,
                    "duration": 0.3999997500000063
                },
                {
                    "name": "D5",
                    "midi": 74,
                    "time": 181.73321974999882,
                    "velocity": 0.4330708661417323,
                    "duration": 0.13333324999999263
                },
                {
                    "name": "B4",
                    "midi": 71,
                    "time": 181.86655299999882,
                    "velocity": 0.48031496062992124,
                    "duration": 0.2666665000000137
                },
                {
                    "name": "E5",
                    "midi": 76,
                    "time": 182.4009971104155,
                    "velocity": 0.5433070866141733,
                    "duration": 0.13333324999999263
                },
                {
                    "name": "F#5",
                    "midi": 78,
                    "time": 182.53433036041548,
                    "velocity": 0.4566929133858268,
                    "duration": 0.13333324999999263
                },
                {
                    "name": "G#5",
                    "midi": 80,
                    "time": 182.66766361041547,
                    "velocity": 0.5039370078740157,
                    "duration": 0.13333324999999263
                },
                {
                    "name": "A5",
                    "midi": 81,
                    "time": 182.80099686041547,
                    "velocity": 0.4645669291338583,
                    "duration": 0.13333324999999263
                },
                {
                    "name": "A#5",
                    "midi": 82,
                    "time": 182.93433011041546,
                    "velocity": 0.5511811023622047,
                    "duration": 0.13333324999999263
                },
                {
                    "name": "B5",
                    "midi": 83,
                    "time": 183.06766336041545,
                    "velocity": 0.49606299212598426,
                    "duration": 0.13333324999999263
                },
                {
                    "name": "A#5",
                    "midi": 82,
                    "time": 183.20099661041544,
                    "velocity": 0.5196850393700787,
                    "duration": 0.13333324999999263
                },
                {
                    "name": "B5",
                    "midi": 83,
                    "time": 183.33432986041544,
                    "velocity": 0.5354330708661418,
                    "duration": 0.13333324999999263
                },
                {
                    "name": "A5",
                    "midi": 81,
                    "time": 183.46766311041543,
                    "velocity": 0.5433070866141733,
                    "duration": 0.13333324999999263
                },
                {
                    "name": "B5",
                    "midi": 83,
                    "time": 183.60099636041542,
                    "velocity": 0.4566929133858268,
                    "duration": 0.13333324999999263
                },
                {
                    "name": "C#6",
                    "midi": 85,
                    "time": 183.73432961041541,
                    "velocity": 0.5039370078740157,
                    "duration": 0.13333324999999263
                },
                {
                    "name": "D6",
                    "midi": 86,
                    "time": 183.8676628604154,
                    "velocity": 0.4645669291338583,
                    "duration": 0.13333324999999263
                },
                {
                    "name": "D#6",
                    "midi": 87,
                    "time": 184.0009961104154,
                    "velocity": 0.5511811023622047,
                    "duration": 0.13333324999999263
                },
                {
                    "name": "E6",
                    "midi": 88,
                    "time": 184.1343293604154,
                    "velocity": 0.49606299212598426,
                    "duration": 0.13333324999999263
                },
                {
                    "name": "D#6",
                    "midi": 87,
                    "time": 184.26766261041539,
                    "velocity": 0.5196850393700787,
                    "duration": 0.13333324999999263
                },
                {
                    "name": "E6",
                    "midi": 88,
                    "time": 184.40099586041538,
                    "velocity": 0.5354330708661418,
                    "duration": 0.13333324999999263
                },
                {
                    "name": "F#6",
                    "midi": 90,
                    "time": 184.53432911041537,
                    "velocity": 0.5905511811023622,
                    "duration": 0.13333324999999263
                },
                {
                    "name": "E6",
                    "midi": 88,
                    "time": 184.66766236041536,
                    "velocity": 0.4645669291338583,
                    "duration": 0.13333324999999263
                },
                {
                    "name": "F#6",
                    "midi": 90,
                    "time": 184.80099561041536,
                    "velocity": 0.5275590551181102,
                    "duration": 0.13333324999999263
                },
                {
                    "name": "E6",
                    "midi": 88,
                    "time": 184.93432886041535,
                    "velocity": 0.4645669291338583,
                    "duration": 0.13333324999999263
                },
                {
                    "name": "B5",
                    "midi": 83,
                    "time": 185.06766211041534,
                    "velocity": 0.5905511811023622,
                    "duration": 0.13333324999999263
                },
                {
                    "name": "G#5",
                    "midi": 80,
                    "time": 185.19988424999866,
                    "velocity": 0.4566929133858268,
                    "duration": 0.13333324999999263
                },
                {
                    "name": "B5",
                    "midi": 83,
                    "time": 185.33432861041533,
                    "velocity": 0.5511811023622047,
                    "duration": 0.13333324999999263
                },
                {
                    "name": "G#5",
                    "midi": 80,
                    "time": 185.46766186041532,
                    "velocity": 0.4645669291338583,
                    "duration": 0.13333324999999263
                },
                {
                    "name": "F#6",
                    "midi": 90,
                    "time": 185.6009951104153,
                    "velocity": 0.5905511811023622,
                    "duration": 0.13333324999999263
                },
                {
                    "name": "E6",
                    "midi": 88,
                    "time": 185.7343283604153,
                    "velocity": 0.47244094488188976,
                    "duration": 0.13333324999999263
                },
                {
                    "name": "F#6",
                    "midi": 90,
                    "time": 185.8676616104153,
                    "velocity": 0.5275590551181102,
                    "duration": 0.13333324999999263
                },
                {
                    "name": "E6",
                    "midi": 88,
                    "time": 186.0009948604153,
                    "velocity": 0.48031496062992124,
                    "duration": 0.13333324999999263
                },
                {
                    "name": "C#6",
                    "midi": 85,
                    "time": 186.13432811041528,
                    "velocity": 0.5905511811023622,
                    "duration": 0.13333324999999263
                },
                {
                    "name": "A5",
                    "midi": 81,
                    "time": 186.26766136041527,
                    "velocity": 0.5275590551181102,
                    "duration": 0.13333324999999263
                },
                {
                    "name": "C#6",
                    "midi": 85,
                    "time": 186.40099461041527,
                    "velocity": 0.5511811023622047,
                    "duration": 0.13333324999999263
                },
                {
                    "name": "A5",
                    "midi": 81,
                    "time": 186.53432786041526,
                    "velocity": 0.5118110236220472,
                    "duration": 0.13333324999999263
                },
                {
                    "name": "D6",
                    "midi": 86,
                    "time": 186.66766111041525,
                    "velocity": 0.6062992125984252,
                    "duration": 0.13333324999999263
                },
                {
                    "name": "B5",
                    "midi": 83,
                    "time": 186.93432761041524,
                    "velocity": 0.5039370078740157,
                    "duration": 0.13333324999999263
                },
                {
                    "name": "G#5",
                    "midi": 80,
                    "time": 187.20099411041522,
                    "velocity": 0.5039370078740157,
                    "duration": 0.13333324999999263
                },
                {
                    "name": "E5",
                    "midi": 76,
                    "time": 187.4676606104152,
                    "velocity": 0.5039370078740157,
                    "duration": 0.13333324999999263
                },
                {
                    "name": "C#6",
                    "midi": 85,
                    "time": 187.7343271104152,
                    "velocity": 0.6141732283464567,
                    "duration": 0.13333324999999263
                },
                {
                    "name": "A5",
                    "midi": 81,
                    "time": 188.00099361041518,
                    "velocity": 0.5275590551181102,
                    "duration": 0.13333324999999263
                },
                {
                    "name": "C#7",
                    "midi": 97,
                    "time": 188.26766011041516,
                    "velocity": 0.6377952755905512,
                    "duration": 0.13333324999999263
                },
                {
                    "name": "A6",
                    "midi": 93,
                    "time": 188.53432661041515,
                    "velocity": 0.5905511811023622,
                    "duration": 0.13333324999999263
                },
                {
                    "name": "G#6",
                    "midi": 92,
                    "time": 188.80099311041513,
                    "velocity": 0.5905511811023622,
                    "duration": 0.13333324999999263
                },
                {
                    "name": "F#6",
                    "midi": 90,
                    "time": 188.93432636041513,
                    "velocity": 0.44881889763779526,
                    "duration": 0.13333324999999263
                },
                {
                    "name": "G#6",
                    "midi": 92,
                    "time": 189.06765961041512,
                    "velocity": 0.5275590551181102,
                    "duration": 0.13333324999999263
                },
                {
                    "name": "F#6",
                    "midi": 90,
                    "time": 189.2009928604151,
                    "velocity": 0.4645669291338583,
                    "duration": 0.13333324999999263
                },
                {
                    "name": "D6",
                    "midi": 86,
                    "time": 189.3343261104151,
                    "velocity": 0.5905511811023622,
                    "duration": 0.13333324999999263
                },
                {
                    "name": "B5",
                    "midi": 83,
                    "time": 189.4676593604151,
                    "velocity": 0.48031496062992124,
                    "duration": 0.13333324999999263
                },
                {
                    "name": "D6",
                    "midi": 86,
                    "time": 189.6009926104151,
                    "velocity": 0.5511811023622047,
                    "duration": 0.13333324999999263
                },
                {
                    "name": "B5",
                    "midi": 83,
                    "time": 189.7332147499984,
                    "velocity": 0.4645669291338583,
                    "duration": 0.13111102916667505
                },
                {
                    "name": "B5",
                    "midi": 83,
                    "time": 189.86765911041508,
                    "velocity": 0.5590551181102362,
                    "duration": 0.13333324999999263
                },
                {
                    "name": "A5",
                    "midi": 81,
                    "time": 190.00099236041507,
                    "velocity": 0.48031496062992124,
                    "duration": 0.13333324999999263
                },
                {
                    "name": "B5",
                    "midi": 83,
                    "time": 190.13432561041506,
                    "velocity": 0.5118110236220472,
                    "duration": 0.13333324999999263
                },
                {
                    "name": "A5",
                    "midi": 81,
                    "time": 190.26765886041505,
                    "velocity": 0.48031496062992124,
                    "duration": 0.13333324999999263
                },
                {
                    "name": "C#7",
                    "midi": 97,
                    "time": 190.39988099999837,
                    "velocity": 0.6220472440944882,
                    "duration": 0.13333324999999263
                },
                {
                    "name": "A6",
                    "midi": 93,
                    "time": 190.66654749999836,
                    "velocity": 0.5433070866141733,
                    "duration": 0.13333324999999263
                },
                {
                    "name": "G#6",
                    "midi": 92,
                    "time": 190.93432511041502,
                    "velocity": 0.5905511811023622,
                    "duration": 0.13333324999999263
                },
                {
                    "name": "F#6",
                    "midi": 90,
                    "time": 191.067658360415,
                    "velocity": 0.4645669291338583,
                    "duration": 0.13333324999999263
                },
                {
                    "name": "G#6",
                    "midi": 92,
                    "time": 191.200991610415,
                    "velocity": 0.5275590551181102,
                    "duration": 0.13333324999999263
                },
                {
                    "name": "F#6",
                    "midi": 90,
                    "time": 191.334324860415,
                    "velocity": 0.4645669291338583,
                    "duration": 0.13333324999999263
                },
                {
                    "name": "D6",
                    "midi": 86,
                    "time": 191.467658110415,
                    "velocity": 0.5905511811023622,
                    "duration": 0.13333324999999263
                },
                {
                    "name": "B5",
                    "midi": 83,
                    "time": 191.60099136041498,
                    "velocity": 0.5275590551181102,
                    "duration": 0.13333324999999263
                },
                {
                    "name": "D6",
                    "midi": 86,
                    "time": 191.73432461041497,
                    "velocity": 0.5511811023622047,
                    "duration": 0.13333324999999263
                },
                {
                    "name": "B5",
                    "midi": 83,
                    "time": 191.8665467499983,
                    "velocity": 0.5118110236220472,
                    "duration": 0.12777769791668447
                },
                {
                    "name": "B5",
                    "midi": 83,
                    "time": 192.000991110415,
                    "velocity": 0.47244094488188976,
                    "duration": 0.13333324999999263
                },
                {
                    "name": "A5",
                    "midi": 81,
                    "time": 192.13432436041498,
                    "velocity": 0.3779527559055118,
                    "duration": 0.13333324999999263
                },
                {
                    "name": "B5",
                    "midi": 83,
                    "time": 192.26765761041497,
                    "velocity": 0.4330708661417323,
                    "duration": 0.13333324999999263
                },
                {
                    "name": "A5",
                    "midi": 81,
                    "time": 192.40099086041496,
                    "velocity": 0.3700787401574803,
                    "duration": 0.13333324999999263
                },
                {
                    "name": "C#7",
                    "midi": 97,
                    "time": 192.53321299999828,
                    "velocity": 0.41732283464566927,
                    "duration": 0.13333324999999263
                },
                {
                    "name": "E7",
                    "midi": 100,
                    "time": 192.53321299999828,
                    "velocity": 0.49606299212598426,
                    "duration": 0.13333324999999263
                },
                {
                    "name": "C#7",
                    "midi": 97,
                    "time": 192.79987949999827,
                    "velocity": 0.4330708661417323,
                    "duration": 0.13333324999999263
                },
                {
                    "name": "A6",
                    "midi": 93,
                    "time": 192.79987949999827,
                    "velocity": 0.36220472440944884,
                    "duration": 0.13333324999999263
                },
                {
                    "name": "G#6",
                    "midi": 92,
                    "time": 193.06765711041493,
                    "velocity": 0.5905511811023622,
                    "duration": 0.13333324999999263
                },
                {
                    "name": "F#6",
                    "midi": 90,
                    "time": 193.20099036041492,
                    "velocity": 0.47244094488188976,
                    "duration": 0.13333324999999263
                },
                {
                    "name": "G#6",
                    "midi": 92,
                    "time": 193.3343236104149,
                    "velocity": 0.5275590551181102,
                    "duration": 0.13333324999999263
                },
                {
                    "name": "F#6",
                    "midi": 90,
                    "time": 193.4676568604149,
                    "velocity": 0.47244094488188976,
                    "duration": 0.13333324999999263
                },
                {
                    "name": "D6",
                    "midi": 86,
                    "time": 193.6009901104149,
                    "velocity": 0.5905511811023622,
                    "duration": 0.13333324999999263
                },
                {
                    "name": "B5",
                    "midi": 83,
                    "time": 193.7343233604149,
                    "velocity": 0.5275590551181102,
                    "duration": 0.13333324999999263
                },
                {
                    "name": "D6",
                    "midi": 86,
                    "time": 193.86765661041488,
                    "velocity": 0.5511811023622047,
                    "duration": 0.13333324999999263
                },
                {
                    "name": "B5",
                    "midi": 83,
                    "time": 193.9998787499982,
                    "velocity": 0.5118110236220472,
                    "duration": 0.12777769791668447
                },
                {
                    "name": "B5",
                    "midi": 83,
                    "time": 194.1343231104149,
                    "velocity": 0.49606299212598426,
                    "duration": 0.13333324999999263
                },
                {
                    "name": "A5",
                    "midi": 81,
                    "time": 194.2676563604149,
                    "velocity": 0.4251968503937008,
                    "duration": 0.13333324999999263
                },
                {
                    "name": "B5",
                    "midi": 83,
                    "time": 194.40098961041488,
                    "velocity": 0.4566929133858268,
                    "duration": 0.13333324999999263
                },
                {
                    "name": "A5",
                    "midi": 81,
                    "time": 194.53432286041487,
                    "velocity": 0.4251968503937008,
                    "duration": 0.13333324999999263
                },
                {
                    "name": "A6",
                    "midi": 93,
                    "time": 194.66765611041487,
                    "velocity": 0.5590551181102362,
                    "duration": 0.13333324999999263
                },
                {
                    "name": "A5",
                    "midi": 81,
                    "time": 194.93432261041485,
                    "velocity": 0.5433070866141733,
                    "duration": 0.13333324999999263
                },
                {
                    "name": "A5",
                    "midi": 81,
                    "time": 195.19987799999817,
                    "velocity": 0.5748031496062992,
                    "duration": 0.13333324999999263
                },
                {
                    "name": "G5",
                    "midi": 79,
                    "time": 195.19987799999817,
                    "velocity": 0.6771653543307087,
                    "duration": 0.13333324999999263
                },
                {
                    "name": "A5",
                    "midi": 81,
                    "time": 195.46654449999815,
                    "velocity": 0.4409448818897638,
                    "duration": 0.13333324999999263
                },
                {
                    "name": "E5",
                    "midi": 76,
                    "time": 195.46765561041482,
                    "velocity": 0.4409448818897638,
                    "duration": 0.13333324999999263
                },
                {
                    "name": "C#5",
                    "midi": 73,
                    "time": 195.73321099999814,
                    "velocity": 0.5039370078740157,
                    "duration": 0.13333324999999263
                },
                {
                    "name": "A5",
                    "midi": 81,
                    "time": 195.73321099999814,
                    "velocity": 0.5039370078740157,
                    "duration": 0.13333324999999263
                },
                {
                    "name": "A5",
                    "midi": 81,
                    "time": 195.99987749999812,
                    "velocity": 0.4330708661417323,
                    "duration": 0.13333324999999263
                },
                {
                    "name": "A4",
                    "midi": 69,
                    "time": 195.99987749999812,
                    "velocity": 0.5118110236220472,
                    "duration": 0.13333324999999263
                },
                {
                    "name": "G4",
                    "midi": 67,
                    "time": 196.2665439999981,
                    "velocity": 0.6771653543307087,
                    "duration": 0.13333324999999263
                },
                {
                    "name": "A4",
                    "midi": 69,
                    "time": 196.2665439999981,
                    "velocity": 0.5748031496062992,
                    "duration": 0.13333324999999263
                },
                {
                    "name": "E4",
                    "midi": 64,
                    "time": 196.5332104999981,
                    "velocity": 0.5196850393700787,
                    "duration": 0.13333324999999263
                },
                {
                    "name": "A4",
                    "midi": 69,
                    "time": 196.5332104999981,
                    "velocity": 0.4409448818897638,
                    "duration": 0.13333324999999263
                },
                {
                    "name": "A4",
                    "midi": 69,
                    "time": 196.79987699999808,
                    "velocity": 0.5039370078740157,
                    "duration": 0.13333324999999263
                },
                {
                    "name": "C#4",
                    "midi": 61,
                    "time": 196.79987699999808,
                    "velocity": 0.5984251968503937,
                    "duration": 0.13333324999999263
                },
                {
                    "name": "A3",
                    "midi": 57,
                    "time": 197.06654349999806,
                    "velocity": 0.5118110236220472,
                    "duration": 0.13333324999999263
                },
                {
                    "name": "A4",
                    "midi": 69,
                    "time": 197.06654349999806,
                    "velocity": 0.4330708661417323,
                    "duration": 0.13333324999999263
                },
                {
                    "name": "F#4",
                    "midi": 66,
                    "time": 198.66654249999806,
                    "velocity": 0.5039370078740157,
                    "duration": 0.13333324999999263
                },
                {
                    "name": "G#4",
                    "midi": 68,
                    "time": 198.79987574999805,
                    "velocity": 0.49606299212598426,
                    "duration": 0.13333324999999263
                },
                {
                    "name": "A4",
                    "midi": 69,
                    "time": 198.93320899999804,
                    "velocity": 0.5275590551181102,
                    "duration": 0.13333324999999263
                },
                {
                    "name": "B4",
                    "midi": 71,
                    "time": 199.06654224999804,
                    "velocity": 0.4094488188976378,
                    "duration": 0.13333324999999263
                },
                {
                    "name": "C#5",
                    "midi": 73,
                    "time": 199.19987549999803,
                    "velocity": 0.4094488188976378,
                    "duration": 0.13333324999999263
                },
                {
                    "name": "D5",
                    "midi": 74,
                    "time": 199.33320874999802,
                    "velocity": 0.4094488188976378,
                    "duration": 0.13333324999999263
                },
                {
                    "name": "D#5",
                    "midi": 75,
                    "time": 199.46654199999801,
                    "velocity": 0.4094488188976378,
                    "duration": 0.13333324999999263
                },
                {
                    "name": "E5",
                    "midi": 76,
                    "time": 199.599875249998,
                    "velocity": 0.3858267716535433,
                    "duration": 0.13333324999999263
                },
                {
                    "name": "D#5",
                    "midi": 75,
                    "time": 199.733208499998,
                    "velocity": 0.3858267716535433,
                    "duration": 0.13333324999999263
                },
                {
                    "name": "E5",
                    "midi": 76,
                    "time": 199.866541749998,
                    "velocity": 0.3858267716535433,
                    "duration": 0.13333324999999263
                },
                {
                    "name": "F#5",
                    "midi": 78,
                    "time": 199.99987499999799,
                    "velocity": 0.4251968503937008,
                    "duration": 0.13333324999999263
                },
                {
                    "name": "G#5",
                    "midi": 80,
                    "time": 200.13320824999798,
                    "velocity": 0.4094488188976378,
                    "duration": 0.13333324999999263
                },
                {
                    "name": "A5",
                    "midi": 81,
                    "time": 200.26654149999797,
                    "velocity": 0.3858267716535433,
                    "duration": 0.13333324999999263
                },
                {
                    "name": "B5",
                    "midi": 83,
                    "time": 200.39987474999796,
                    "velocity": 0.3700787401574803,
                    "duration": 0.13333324999999263
                },
                {
                    "name": "A5",
                    "midi": 81,
                    "time": 200.53320799999796,
                    "velocity": 0.41732283464566927,
                    "duration": 0.13333324999999263
                },
                {
                    "name": "B5",
                    "midi": 83,
                    "time": 200.66654124999795,
                    "velocity": 0.33858267716535434,
                    "duration": 0.13333324999999263
                },
                {
                    "name": "A5",
                    "midi": 81,
                    "time": 200.79987449999794,
                    "velocity": 0.3779527559055118,
                    "duration": 0.13333324999999263
                },
                {
                    "name": "B5",
                    "midi": 83,
                    "time": 200.93320774999793,
                    "velocity": 0.3543307086614173,
                    "duration": 0.13333324999999263
                },
                {
                    "name": "A5",
                    "midi": 81,
                    "time": 201.0676521104146,
                    "velocity": 0.41732283464566927,
                    "duration": 0.13333324999999263
                },
                {
                    "name": "B5",
                    "midi": 83,
                    "time": 201.19987424999792,
                    "velocity": 0.33858267716535434,
                    "duration": 0.13333324999999263
                },
                {
                    "name": "A5",
                    "midi": 81,
                    "time": 201.3332074999979,
                    "velocity": 0.3779527559055118,
                    "duration": 0.13333324999999263
                },
                {
                    "name": "B5",
                    "midi": 83,
                    "time": 201.4665407499979,
                    "velocity": 0.33858267716535434,
                    "duration": 0.13333324999999263
                },
                {
                    "name": "A5",
                    "midi": 81,
                    "time": 201.5998739999979,
                    "velocity": 0.5039370078740157,
                    "duration": 0.13333324999999263
                },
                {
                    "name": "B5",
                    "midi": 83,
                    "time": 201.7332072499979,
                    "velocity": 0.3228346456692913,
                    "duration": 0.13333324999999263
                },
                {
                    "name": "A5",
                    "midi": 81,
                    "time": 201.86654049999788,
                    "velocity": 0.3779527559055118,
                    "duration": 0.13333324999999263
                },
                {
                    "name": "B5",
                    "midi": 83,
                    "time": 201.99987374999787,
                    "velocity": 0.3228346456692913,
                    "duration": 0.13333324999999263
                },
                {
                    "name": "A5",
                    "midi": 81,
                    "time": 202.13320699999787,
                    "velocity": 0.3858267716535433,
                    "duration": 0.13333324999999263
                },
                {
                    "name": "B5",
                    "midi": 83,
                    "time": 202.26654024999786,
                    "velocity": 0.33858267716535434,
                    "duration": 0.13333324999999263
                },
                {
                    "name": "A5",
                    "midi": 81,
                    "time": 202.39987349999785,
                    "velocity": 0.3779527559055118,
                    "duration": 0.13333324999999263
                },
                {
                    "name": "B5",
                    "midi": 83,
                    "time": 202.53320674999785,
                    "velocity": 0.33858267716535434,
                    "duration": 0.13333324999999263
                },
                {
                    "name": "A5",
                    "midi": 81,
                    "time": 202.66653999999784,
                    "velocity": 0.3779527559055118,
                    "duration": 0.13333324999999263
                },
                {
                    "name": "B5",
                    "midi": 83,
                    "time": 202.79987324999783,
                    "velocity": 0.3937007874015748,
                    "duration": 0.13333324999999263
                },
                {
                    "name": "A5",
                    "midi": 81,
                    "time": 202.93320649999782,
                    "velocity": 0.41732283464566927,
                    "duration": 0.13333324999999263
                },
                {
                    "name": "B5",
                    "midi": 83,
                    "time": 203.06653974999782,
                    "velocity": 0.4409448818897638,
                    "duration": 0.13333324999999263
                },
                {
                    "name": "A5",
                    "midi": 81,
                    "time": 203.20098411041448,
                    "velocity": 0.49606299212598426,
                    "duration": 0.13333324999999263
                },
                {
                    "name": "B5",
                    "midi": 83,
                    "time": 203.3332062499978,
                    "velocity": 0.49606299212598426,
                    "duration": 0.13333324999999263
                },
                {
                    "name": "A5",
                    "midi": 81,
                    "time": 203.4665394999978,
                    "velocity": 0.5275590551181102,
                    "duration": 0.13333324999999263
                },
                {
                    "name": "B5",
                    "midi": 83,
                    "time": 203.5998727499978,
                    "velocity": 0.5511811023622047,
                    "duration": 0.13333324999999263
                },
                {
                    "name": "A5",
                    "midi": 81,
                    "time": 203.73320599999778,
                    "velocity": 0.5905511811023622,
                    "duration": 0.13333324999999263
                },
                {
                    "name": "B5",
                    "midi": 83,
                    "time": 203.86653924999777,
                    "velocity": 0.5669291338582677,
                    "duration": 0.13333324999999263
                },
                {
                    "name": "A5",
                    "midi": 81,
                    "time": 203.99987249999776,
                    "velocity": 0.5275590551181102,
                    "duration": 0.13333324999999263
                },
                {
                    "name": "B5",
                    "midi": 83,
                    "time": 204.13320574999776,
                    "velocity": 0.49606299212598426,
                    "duration": 0.13333324999999263
                },
                {
                    "name": "A5",
                    "midi": 81,
                    "time": 204.26653899999775,
                    "velocity": 0.4566929133858268,
                    "duration": 0.13333324999999263
                },
                {
                    "name": "B5",
                    "midi": 83,
                    "time": 204.39987224999774,
                    "velocity": 0.4251968503937008,
                    "duration": 0.13333324999999263
                },
                {
                    "name": "A5",
                    "midi": 81,
                    "time": 204.53320549999773,
                    "velocity": 0.3937007874015748,
                    "duration": 0.13333324999999263
                },
                {
                    "name": "F#5",
                    "midi": 78,
                    "time": 204.66653874999773,
                    "velocity": 0.36220472440944884,
                    "duration": 0.13333324999999263
                },
                {
                    "name": "D5",
                    "midi": 74,
                    "time": 204.79987199999772,
                    "velocity": 0.3858267716535433,
                    "duration": 0.2666665000000137
                },
                {
                    "name": "D5",
                    "midi": 74,
                    "time": 205.33320499999775,
                    "velocity": 0.3464566929133858,
                    "duration": 0.533332999999999
                },
                {
                    "name": "C#5",
                    "midi": 73,
                    "time": 205.86653799999775,
                    "velocity": 0.4015748031496063,
                    "duration": 0.13333324999999263
                },
                {
                    "name": "B4",
                    "midi": 71,
                    "time": 205.99987124999774,
                    "velocity": 0.3228346456692913,
                    "duration": 0.13333324999999263
                },
                {
                    "name": "C#5",
                    "midi": 73,
                    "time": 206.13320449999773,
                    "velocity": 0.3700787401574803,
                    "duration": 0.13333324999999263
                },
                {
                    "name": "D5",
                    "midi": 74,
                    "time": 206.26653774999772,
                    "velocity": 0.33858267716535434,
                    "duration": 0.13333324999999263
                },
                {
                    "name": "C#5",
                    "midi": 73,
                    "time": 206.39987099999772,
                    "velocity": 0.3858267716535433,
                    "duration": 0.13333324999999263
                },
                {
                    "name": "D5",
                    "midi": 74,
                    "time": 206.5332042499977,
                    "velocity": 0.33070866141732286,
                    "duration": 0.13333324999999263
                },
                {
                    "name": "E5",
                    "midi": 76,
                    "time": 206.6665374999977,
                    "velocity": 0.3543307086614173,
                    "duration": 0.13333324999999263
                },
                {
                    "name": "C#5",
                    "midi": 73,
                    "time": 206.7998707499977,
                    "velocity": 0.3858267716535433,
                    "duration": 0.13333324999999263
                },
                {
                    "name": "A4",
                    "midi": 69,
                    "time": 206.9332039999977,
                    "velocity": 0.4645669291338583,
                    "duration": 0.2666665000000137
                },
                {
                    "name": "D5",
                    "midi": 74,
                    "time": 207.46653699999771,
                    "velocity": 0.4330708661417323,
                    "duration": 0.2666665000000137
                },
                {
                    "name": "E5",
                    "midi": 76,
                    "time": 207.99986999999774,
                    "velocity": 0.4566929133858268,
                    "duration": 0.13333324999999263
                },
                {
                    "name": "G5",
                    "midi": 79,
                    "time": 208.13320324999773,
                    "velocity": 0.3700787401574803,
                    "duration": 0.13333324999999263
                },
                {
                    "name": "E5",
                    "midi": 76,
                    "time": 208.26653649999773,
                    "velocity": 0.4409448818897638,
                    "duration": 0.13333324999999263
                },
                {
                    "name": "G5",
                    "midi": 79,
                    "time": 208.39986974999772,
                    "velocity": 0.3779527559055118,
                    "duration": 0.1433332437499928
                },
                {
                    "name": "B5",
                    "midi": 83,
                    "time": 208.5332029999977,
                    "velocity": 0.4881889763779528,
                    "duration": 0.13333324999999263
                },
                {
                    "name": "A5",
                    "midi": 81,
                    "time": 208.6665362499977,
                    "velocity": 0.3779527559055118,
                    "duration": 0.13333324999999263
                },
                {
                    "name": "B5",
                    "midi": 83,
                    "time": 208.7998694999977,
                    "velocity": 0.44881889763779526,
                    "duration": 0.13333324999999263
                },
                {
                    "name": "A5",
                    "midi": 81,
                    "time": 208.9332027499977,
                    "velocity": 0.3937007874015748,
                    "duration": 0.12333325624999247
                },
                {
                    "name": "A5",
                    "midi": 81,
                    "time": 209.06653599999768,
                    "velocity": 0.4409448818897638,
                    "duration": 0.2666665000000137
                },
                {
                    "name": "A5",
                    "midi": 81,
                    "time": 209.5998689999977,
                    "velocity": 0.47244094488188976,
                    "duration": 0.6666662499999916
                },
                {
                    "name": "G5",
                    "midi": 79,
                    "time": 210.2665352499977,
                    "velocity": 0.4409448818897638,
                    "duration": 0.13333324999999263
                },
                {
                    "name": "A5",
                    "midi": 81,
                    "time": 210.3998684999977,
                    "velocity": 0.4566929133858268,
                    "duration": 0.13333324999999263
                },
                {
                    "name": "B5",
                    "midi": 83,
                    "time": 210.5332017499977,
                    "velocity": 0.47244094488188976,
                    "duration": 0.13333324999999263
                },
                {
                    "name": "C#6",
                    "midi": 85,
                    "time": 210.66653499999768,
                    "velocity": 0.5196850393700787,
                    "duration": 0.13333324999999263
                },
                {
                    "name": "D6",
                    "midi": 86,
                    "time": 210.79986824999767,
                    "velocity": 0.4251968503937008,
                    "duration": 0.13333324999999263
                },
                {
                    "name": "C#6",
                    "midi": 85,
                    "time": 210.93320149999766,
                    "velocity": 0.4881889763779528,
                    "duration": 0.13333324999999263
                },
                {
                    "name": "B5",
                    "midi": 83,
                    "time": 211.06653474999766,
                    "velocity": 0.4251968503937008,
                    "duration": 0.13333324999999263
                },
                {
                    "name": "A5",
                    "midi": 81,
                    "time": 211.19986799999765,
                    "velocity": 0.47244094488188976,
                    "duration": 1.0555548958333247
                },
                {
                    "name": "A5",
                    "midi": 81,
                    "time": 212.26653399999765,
                    "velocity": 0.41732283464566927,
                    "duration": 0.13333324999999263
                },
                {
                    "name": "B5",
                    "midi": 83,
                    "time": 212.39986724999764,
                    "velocity": 0.31496062992125984,
                    "duration": 0.13333324999999263
                },
                {
                    "name": "A5",
                    "midi": 81,
                    "time": 212.53320049999763,
                    "velocity": 0.3779527559055118,
                    "duration": 0.13333324999999263
                },
                {
                    "name": "B5",
                    "midi": 83,
                    "time": 212.66653374999763,
                    "velocity": 0.30708661417322836,
                    "duration": 0.13333324999999263
                },
                {
                    "name": "A5",
                    "midi": 81,
                    "time": 212.79986699999762,
                    "velocity": 0.41732283464566927,
                    "duration": 0.13333324999999263
                },
                {
                    "name": "B5",
                    "midi": 83,
                    "time": 212.9332002499976,
                    "velocity": 0.29133858267716534,
                    "duration": 0.13333324999999263
                },
                {
                    "name": "A5",
                    "midi": 81,
                    "time": 213.0665334999976,
                    "velocity": 0.3700787401574803,
                    "duration": 0.13333324999999263
                },
                {
                    "name": "F#5",
                    "midi": 78,
                    "time": 213.1998667499976,
                    "velocity": 0.3464566929133858,
                    "duration": 0.13333324999999263
                },
                {
                    "name": "D5",
                    "midi": 74,
                    "time": 213.3331999999976,
                    "velocity": 0.3858267716535433,
                    "duration": 0.2666665000000137
                },
                {
                    "name": "D5",
                    "midi": 74,
                    "time": 213.86653299999762,
                    "velocity": 0.3464566929133858,
                    "duration": 0.533332999999999
                },
                {
                    "name": "C#5",
                    "midi": 73,
                    "time": 214.39986599999762,
                    "velocity": 0.4015748031496063,
                    "duration": 0.13333324999999263
                },
                {
                    "name": "B4",
                    "midi": 71,
                    "time": 214.5331992499976,
                    "velocity": 0.3543307086614173,
                    "duration": 0.13333324999999263
                },
                {
                    "name": "C#5",
                    "midi": 73,
                    "time": 214.6665324999976,
                    "velocity": 0.3779527559055118,
                    "duration": 0.13333324999999263
                },
                {
                    "name": "D5",
                    "midi": 74,
                    "time": 214.7998657499976,
                    "velocity": 0.3937007874015748,
                    "duration": 0.13333324999999263
                },
                {
                    "name": "C#5",
                    "midi": 73,
                    "time": 214.9331989999976,
                    "velocity": 0.4330708661417323,
                    "duration": 0.13333324999999263
                },
                {
                    "name": "D5",
                    "midi": 74,
                    "time": 215.06653224999758,
                    "velocity": 0.4251968503937008,
                    "duration": 0.13333324999999263
                },
                {
                    "name": "E5",
                    "midi": 76,
                    "time": 215.19986549999757,
                    "velocity": 0.47244094488188976,
                    "duration": 0.13333324999999263
                },
                {
                    "name": "F5",
                    "midi": 77,
                    "time": 215.33319874999756,
                    "velocity": 0.5118110236220472,
                    "duration": 0.12222214583331947
                },
                {
                    "name": "F#5",
                    "midi": 78,
                    "time": 215.46653199999756,
                    "velocity": 0.5669291338582677,
                    "duration": 1.066665999999998
                },
                {
                    "name": "G5",
                    "midi": 79,
                    "time": 216.53319799999755,
                    "velocity": 0.4409448818897638,
                    "duration": 0.13333324999999263
                },
                {
                    "name": "B5",
                    "midi": 83,
                    "time": 216.66653124999755,
                    "velocity": 0.33070866141732286,
                    "duration": 0.13333324999999263
                },
                {
                    "name": "G5",
                    "midi": 79,
                    "time": 216.79986449999754,
                    "velocity": 0.3543307086614173,
                    "duration": 0.13333324999999263
                },
                {
                    "name": "B5",
                    "midi": 83,
                    "time": 216.93319774999753,
                    "velocity": 0.33070866141732286,
                    "duration": 0.13333324999999263
                },
                {
                    "name": "E6",
                    "midi": 88,
                    "time": 217.06653099999752,
                    "velocity": 0.5118110236220472,
                    "duration": 0.13333324999999263
                },
                {
                    "name": "D6",
                    "midi": 86,
                    "time": 217.19986424999752,
                    "velocity": 0.4094488188976378,
                    "duration": 0.13333324999999263
                },
                {
                    "name": "B5",
                    "midi": 83,
                    "time": 217.3331974999975,
                    "velocity": 0.4330708661417323,
                    "duration": 0.13333324999999263
                },
                {
                    "name": "G5",
                    "midi": 79,
                    "time": 217.4665307499975,
                    "velocity": 0.3858267716535433,
                    "duration": 0.13333324999999263
                },
                {
                    "name": "F#5",
                    "midi": 78,
                    "time": 217.5998639999975,
                    "velocity": 0.5039370078740157,
                    "duration": 0.2666665000000137
                },
                {
                    "name": "F#5",
                    "midi": 78,
                    "time": 218.13319699999752,
                    "velocity": 0.4094488188976378,
                    "duration": 0.2666665000000137
                },
                {
                    "name": "E5",
                    "midi": 76,
                    "time": 218.66652999999755,
                    "velocity": 0.4251968503937008,
                    "duration": 0.13333324999999263
                },
                {
                    "name": "G5",
                    "midi": 79,
                    "time": 218.79986324999754,
                    "velocity": 0.33070866141732286,
                    "duration": 0.13333324999999263
                },
                {
                    "name": "E5",
                    "midi": 76,
                    "time": 218.93319649999754,
                    "velocity": 0.3937007874015748,
                    "duration": 0.13333324999999263
                },
                {
                    "name": "G5",
                    "midi": 79,
                    "time": 219.06652974999753,
                    "velocity": 0.33070866141732286,
                    "duration": 0.13333324999999263
                },
                {
                    "name": "B5",
                    "midi": 83,
                    "time": 219.19986299999752,
                    "velocity": 0.4409448818897638,
                    "duration": 0.13333324999999263
                },
                {
                    "name": "A5",
                    "midi": 81,
                    "time": 219.3331962499975,
                    "velocity": 0.3543307086614173,
                    "duration": 0.13333324999999263
                },
                {
                    "name": "G5",
                    "midi": 79,
                    "time": 219.4665294999975,
                    "velocity": 0.4015748031496063,
                    "duration": 0.13333324999999263
                },
                {
                    "name": "C#5",
                    "midi": 73,
                    "time": 219.5998627499975,
                    "velocity": 0.3543307086614173,
                    "duration": 0.13333324999999263
                },
                {
                    "name": "D5",
                    "midi": 74,
                    "time": 219.7331959999975,
                    "velocity": 0.4566929133858268,
                    "duration": 1.066665999999998
                },
                {
                    "name": "D4",
                    "midi": 62,
                    "time": 220.7998619999975,
                    "velocity": 0.5354330708661418,
                    "duration": 0.13333324999999263
                },
                {
                    "name": "F#4",
                    "midi": 66,
                    "time": 220.93319524999748,
                    "velocity": 0.4566929133858268,
                    "duration": 0.13333324999999263
                },
                {
                    "name": "D4",
                    "midi": 62,
                    "time": 221.06652849999747,
                    "velocity": 0.47244094488188976,
                    "duration": 0.13333324999999263
                },
                {
                    "name": "F#4",
                    "midi": 66,
                    "time": 221.19986174999747,
                    "velocity": 0.4566929133858268,
                    "duration": 0.13333324999999263
                },
                {
                    "name": "B4",
                    "midi": 71,
                    "time": 221.33319499999746,
                    "velocity": 0.5354330708661418,
                    "duration": 0.13333324999999263
                },
                {
                    "name": "A4",
                    "midi": 69,
                    "time": 221.46652824999745,
                    "velocity": 0.4566929133858268,
                    "duration": 0.13333324999999263
                },
                {
                    "name": "F#4",
                    "midi": 66,
                    "time": 221.59986149999744,
                    "velocity": 0.4881889763779528,
                    "duration": 0.13333324999999263
                },
                {
                    "name": "D4",
                    "midi": 62,
                    "time": 221.73319474999744,
                    "velocity": 0.4566929133858268,
                    "duration": 0.13333324999999263
                },
                {
                    "name": "E4",
                    "midi": 64,
                    "time": 221.86652799999743,
                    "velocity": 0.5433070866141733,
                    "duration": 0.2666665000000137
                },
                {
                    "name": "A3",
                    "midi": 57,
                    "time": 221.86652799999743,
                    "velocity": 0.4566929133858268,
                    "duration": 0.2666665000000137
                },
                {
                    "name": "E4",
                    "midi": 64,
                    "time": 222.39986099999746,
                    "velocity": 0.5039370078740157,
                    "duration": 0.5222218958333258
                },
                {
                    "name": "A3",
                    "midi": 57,
                    "time": 222.39986099999746,
                    "velocity": 0.4251968503937008,
                    "duration": 0.5222218958333258
                },
                {
                    "name": "E4",
                    "midi": 64,
                    "time": 222.93319399999746,
                    "velocity": 0.5354330708661418,
                    "duration": 0.13333324999999263
                },
                {
                    "name": "G4",
                    "midi": 67,
                    "time": 223.06652724999745,
                    "velocity": 0.4566929133858268,
                    "duration": 0.13333324999999263
                },
                {
                    "name": "E4",
                    "midi": 64,
                    "time": 223.19986049999744,
                    "velocity": 0.4881889763779528,
                    "duration": 0.13333324999999263
                },
                {
                    "name": "G4",
                    "midi": 67,
                    "time": 223.33319374999743,
                    "velocity": 0.4566929133858268,
                    "duration": 0.13333324999999263
                },
                {
                    "name": "C#5",
                    "midi": 73,
                    "time": 223.46652699999743,
                    "velocity": 0.5354330708661418,
                    "duration": 0.13333324999999263
                },
                {
                    "name": "B4",
                    "midi": 71,
                    "time": 223.59986024999742,
                    "velocity": 0.4566929133858268,
                    "duration": 0.13333324999999263
                },
                {
                    "name": "G4",
                    "midi": 67,
                    "time": 223.7331934999974,
                    "velocity": 0.4881889763779528,
                    "duration": 0.13333324999999263
                },
                {
                    "name": "E4",
                    "midi": 64,
                    "time": 223.8665267499974,
                    "velocity": 0.4566929133858268,
                    "duration": 0.13333324999999263
                },
                {
                    "name": "A3",
                    "midi": 57,
                    "time": 223.9998599999974,
                    "velocity": 0.4094488188976378,
                    "duration": 1.066665999999998
                },
                {
                    "name": "F#4",
                    "midi": 66,
                    "time": 223.9998599999974,
                    "velocity": 0.4881889763779528,
                    "duration": 1.066665999999998
                },
                {
                    "name": "D4",
                    "midi": 62,
                    "time": 223.9998599999974,
                    "velocity": 0.4094488188976378,
                    "duration": 1.066665999999998
                },
                {
                    "name": "D5",
                    "midi": 74,
                    "time": 225.0665259999974,
                    "velocity": 0.5905511811023622,
                    "duration": 0.13333324999999263
                },
                {
                    "name": "F#5",
                    "midi": 78,
                    "time": 225.1998592499974,
                    "velocity": 0.4566929133858268,
                    "duration": 0.13333324999999263
                },
                {
                    "name": "D5",
                    "midi": 74,
                    "time": 225.33319249999738,
                    "velocity": 0.4881889763779528,
                    "duration": 0.13333324999999263
                },
                {
                    "name": "F#5",
                    "midi": 78,
                    "time": 225.46652574999737,
                    "velocity": 0.4566929133858268,
                    "duration": 0.13333324999999263
                },
                {
                    "name": "B5",
                    "midi": 83,
                    "time": 225.59985899999737,
                    "velocity": 0.5354330708661418,
                    "duration": 0.13333324999999263
                },
                {
                    "name": "A5",
                    "midi": 81,
                    "time": 225.73319224999736,
                    "velocity": 0.4566929133858268,
                    "duration": 0.13333324999999263
                },
                {
                    "name": "F#5",
                    "midi": 78,
                    "time": 225.86652549999735,
                    "velocity": 0.4881889763779528,
                    "duration": 0.13333324999999263
                },
                {
                    "name": "D5",
                    "midi": 74,
                    "time": 225.99985874999734,
                    "velocity": 0.4566929133858268,
                    "duration": 0.13333324999999263
                },
                {
                    "name": "C#5",
                    "midi": 73,
                    "time": 226.13319199999734,
                    "velocity": 0.5905511811023622,
                    "duration": 0.13333324999999263
                },
                {
                    "name": "A4",
                    "midi": 69,
                    "time": 226.26652524999733,
                    "velocity": 0.4566929133858268,
                    "duration": 0.13333324999999263
                },
                {
                    "name": "C#5",
                    "midi": 73,
                    "time": 226.39985849999732,
                    "velocity": 0.48031496062992124,
                    "duration": 0.13333324999999263
                },
                {
                    "name": "A4",
                    "midi": 69,
                    "time": 226.53319174999731,
                    "velocity": 0.4566929133858268,
                    "duration": 0.13333324999999263
                },
                {
                    "name": "F#5",
                    "midi": 78,
                    "time": 226.6665249999973,
                    "velocity": 0.5354330708661418,
                    "duration": 0.13333324999999263
                },
                {
                    "name": "E5",
                    "midi": 76,
                    "time": 226.7998582499973,
                    "velocity": 0.4566929133858268,
                    "duration": 0.13333324999999263
                },
                {
                    "name": "C#5",
                    "midi": 73,
                    "time": 226.9331914999973,
                    "velocity": 0.4881889763779528,
                    "duration": 0.13333324999999263
                },
                {
                    "name": "A4",
                    "midi": 69,
                    "time": 227.06652474999728,
                    "velocity": 0.4566929133858268,
                    "duration": 0.13333324999999263
                },
                {
                    "name": "G#4",
                    "midi": 68,
                    "time": 227.19985799999728,
                    "velocity": 0.5905511811023622,
                    "duration": 0.13333324999999263
                },
                {
                    "name": "E4",
                    "midi": 64,
                    "time": 227.33319124999727,
                    "velocity": 0.4251968503937008,
                    "duration": 0.13333324999999263
                },
                {
                    "name": "G#4",
                    "midi": 68,
                    "time": 227.46652449999726,
                    "velocity": 0.4881889763779528,
                    "duration": 0.13333324999999263
                },
                {
                    "name": "E4",
                    "midi": 64,
                    "time": 227.59985774999726,
                    "velocity": 0.4094488188976378,
                    "duration": 0.13333324999999263
                },
                {
                    "name": "G#4",
                    "midi": 68,
                    "time": 227.73319099999725,
                    "velocity": 0.5354330708661418,
                    "duration": 0.13333324999999263
                },
                {
                    "name": "E5",
                    "midi": 76,
                    "time": 227.86652424999724,
                    "velocity": 0.3937007874015748,
                    "duration": 0.13333324999999263
                },
                {
                    "name": "D5",
                    "midi": 74,
                    "time": 227.99985749999723,
                    "velocity": 0.4566929133858268,
                    "duration": 0.13333324999999263
                },
                {
                    "name": "B4",
                    "midi": 71,
                    "time": 228.13319074999723,
                    "velocity": 0.3937007874015748,
                    "duration": 0.13333324999999263
                },
                {
                    "name": "A4",
                    "midi": 69,
                    "time": 228.26652399999722,
                    "velocity": 0.5354330708661418,
                    "duration": 0.533332999999999
                },
                {
                    "name": "C#5",
                    "midi": 73,
                    "time": 228.79985699999722,
                    "velocity": 0.4015748031496063,
                    "duration": 0.2666665000000137
                },
                {
                    "name": "E5",
                    "midi": 76,
                    "time": 228.79985699999722,
                    "velocity": 0.48031496062992124,
                    "duration": 0.2666665000000137
                },
                {
                    "name": "A4",
                    "midi": 69,
                    "time": 229.33318999999724,
                    "velocity": 0.4015748031496063,
                    "duration": 0.2666665000000137
                },
                {
                    "name": "C#5",
                    "midi": 73,
                    "time": 229.33318999999724,
                    "velocity": 0.4015748031496063,
                    "duration": 0.2666665000000137
                },
                {
                    "name": "E5",
                    "midi": 76,
                    "time": 229.33318999999724,
                    "velocity": 0.48031496062992124,
                    "duration": 0.2666665000000137
                },
                {
                    "name": "C#5",
                    "midi": 73,
                    "time": 229.86652299999727,
                    "velocity": 0.4015748031496063,
                    "duration": 0.2666665000000137
                },
                {
                    "name": "E5",
                    "midi": 76,
                    "time": 229.86652299999727,
                    "velocity": 0.48031496062992124,
                    "duration": 0.2666665000000137
                },
                {
                    "name": "F#5",
                    "midi": 78,
                    "time": 230.3998559999973,
                    "velocity": 0.5118110236220472,
                    "duration": 0.2666665000000137
                },
                {
                    "name": "D5",
                    "midi": 74,
                    "time": 230.3998559999973,
                    "velocity": 0.4330708661417323,
                    "duration": 0.2666665000000137
                },
                {
                    "name": "E5",
                    "midi": 76,
                    "time": 230.93318899999733,
                    "velocity": 0.4409448818897638,
                    "duration": 0.2666665000000137
                },
                {
                    "name": "D5",
                    "midi": 74,
                    "time": 230.93318899999733,
                    "velocity": 0.3700787401574803,
                    "duration": 0.2666665000000137
                },
                {
                    "name": "B4",
                    "midi": 71,
                    "time": 230.93318899999733,
                    "velocity": 0.3700787401574803,
                    "duration": 0.2666665000000137
                },
                {
                    "name": "G#4",
                    "midi": 68,
                    "time": 231.46652199999735,
                    "velocity": 0.4015748031496063,
                    "duration": 0.2666665000000137
                },
                {
                    "name": "E5",
                    "midi": 76,
                    "time": 231.46652199999735,
                    "velocity": 0.48031496062992124,
                    "duration": 0.2666665000000137
                },
                {
                    "name": "B4",
                    "midi": 71,
                    "time": 231.46652199999735,
                    "velocity": 0.4015748031496063,
                    "duration": 0.2666665000000137
                },
                {
                    "name": "E5",
                    "midi": 76,
                    "time": 231.99985499999738,
                    "velocity": 0.48031496062992124,
                    "duration": 0.2666665000000137
                },
                {
                    "name": "B4",
                    "midi": 71,
                    "time": 231.99985499999738,
                    "velocity": 0.4015748031496063,
                    "duration": 0.2666665000000137
                },
                {
                    "name": "D5",
                    "midi": 74,
                    "time": 231.99985499999738,
                    "velocity": 0.4015748031496063,
                    "duration": 0.2666665000000137
                },
                {
                    "name": "A4",
                    "midi": 69,
                    "time": 232.5331879999974,
                    "velocity": 0.4330708661417323,
                    "duration": 0.2666665000000137
                },
                {
                    "name": "C#5",
                    "midi": 73,
                    "time": 232.5331879999974,
                    "velocity": 0.4330708661417323,
                    "duration": 0.2666665000000137
                },
                {
                    "name": "F#5",
                    "midi": 78,
                    "time": 232.5331879999974,
                    "velocity": 0.5118110236220472,
                    "duration": 0.2666665000000137
                },
                {
                    "name": "C#5",
                    "midi": 73,
                    "time": 233.06652099999744,
                    "velocity": 0.3700787401574803,
                    "duration": 0.2666665000000137
                },
                {
                    "name": "E5",
                    "midi": 76,
                    "time": 233.06652099999744,
                    "velocity": 0.4409448818897638,
                    "duration": 0.2666665000000137
                },
                {
                    "name": "A4",
                    "midi": 69,
                    "time": 233.06652099999744,
                    "velocity": 0.3700787401574803,
                    "duration": 0.2666665000000137
                },
                {
                    "name": "C#5",
                    "midi": 73,
                    "time": 233.59985399999746,
                    "velocity": 0.3700787401574803,
                    "duration": 0.2666665000000137
                },
                {
                    "name": "A4",
                    "midi": 69,
                    "time": 233.59985399999746,
                    "velocity": 0.3700787401574803,
                    "duration": 0.2666665000000137
                },
                {
                    "name": "A5",
                    "midi": 81,
                    "time": 233.59985399999746,
                    "velocity": 0.4409448818897638,
                    "duration": 0.2666665000000137
                },
                {
                    "name": "E5",
                    "midi": 76,
                    "time": 233.59985399999746,
                    "velocity": 0.3700787401574803,
                    "duration": 0.2666665000000137
                },
                {
                    "name": "E5",
                    "midi": 76,
                    "time": 234.1331869999975,
                    "velocity": 0.4015748031496063,
                    "duration": 0.2666665000000137
                },
                {
                    "name": "A5",
                    "midi": 81,
                    "time": 234.1331869999975,
                    "velocity": 0.48031496062992124,
                    "duration": 0.2666665000000137
                },
                {
                    "name": "A4",
                    "midi": 69,
                    "time": 234.1331869999975,
                    "velocity": 0.4015748031496063,
                    "duration": 0.2666665000000137
                },
                {
                    "name": "C#5",
                    "midi": 73,
                    "time": 234.1331869999975,
                    "velocity": 0.4015748031496063,
                    "duration": 0.2666665000000137
                },
                {
                    "name": "A5",
                    "midi": 81,
                    "time": 234.66651999999752,
                    "velocity": 0.5511811023622047,
                    "duration": 0.2666665000000137
                },
                {
                    "name": "D5",
                    "midi": 74,
                    "time": 234.66651999999752,
                    "velocity": 0.4645669291338583,
                    "duration": 0.2666665000000137
                },
                {
                    "name": "A4",
                    "midi": 69,
                    "time": 234.66651999999752,
                    "velocity": 0.4645669291338583,
                    "duration": 0.2666665000000137
                },
                {
                    "name": "D5",
                    "midi": 74,
                    "time": 235.19985299999755,
                    "velocity": 0.4015748031496063,
                    "duration": 0.2666665000000137
                },
                {
                    "name": "B4",
                    "midi": 71,
                    "time": 235.19985299999755,
                    "velocity": 0.4015748031496063,
                    "duration": 0.2666665000000137
                },
                {
                    "name": "B5",
                    "midi": 83,
                    "time": 235.19985299999755,
                    "velocity": 0.48031496062992124,
                    "duration": 0.2666665000000137
                },
                {
                    "name": "E5",
                    "midi": 76,
                    "time": 235.73318599999757,
                    "velocity": 0.5826771653543307,
                    "duration": 0.2666665000000137
                },
                {
                    "name": "C#5",
                    "midi": 73,
                    "time": 235.73318599999757,
                    "velocity": 0.49606299212598426,
                    "duration": 0.2666665000000137
                },
                {
                    "name": "G#4",
                    "midi": 68,
                    "time": 236.2665189999976,
                    "velocity": 0.3700787401574803,
                    "duration": 0.2666665000000137
                },
                {
                    "name": "D5",
                    "midi": 74,
                    "time": 236.2665189999976,
                    "velocity": 0.3700787401574803,
                    "duration": 0.2666665000000137
                },
                {
                    "name": "G#5",
                    "midi": 80,
                    "time": 236.2665189999976,
                    "velocity": 0.4409448818897638,
                    "duration": 0.2666665000000137
                },
                {
                    "name": "E5",
                    "midi": 76,
                    "time": 236.2665189999976,
                    "velocity": 0.3700787401574803,
                    "duration": 0.2666665000000137
                },
                {
                    "name": "A4",
                    "midi": 69,
                    "time": 236.79985199999763,
                    "velocity": 0.4015748031496063,
                    "duration": 0.531110779166653
                },
                {
                    "name": "E5",
                    "midi": 76,
                    "time": 236.79985199999763,
                    "velocity": 0.4015748031496063,
                    "duration": 1.066665999999998
                },
                {
                    "name": "A5",
                    "midi": 81,
                    "time": 236.79985199999763,
                    "velocity": 0.48031496062992124,
                    "duration": 1.066665999999998
                },
                {
                    "name": "C#5",
                    "midi": 73,
                    "time": 236.79985199999763,
                    "velocity": 0.4015748031496063,
                    "duration": 1.066665999999998
                },
                {
                    "name": "A5",
                    "midi": 81,
                    "time": 239.99984999999762,
                    "velocity": 0.4409448818897638,
                    "duration": 0.13333324999999263
                },
                {
                    "name": "B5",
                    "midi": 83,
                    "time": 240.13318324999761,
                    "velocity": 0.41732283464566927,
                    "duration": 0.13333324999999263
                },
                {
                    "name": "A5",
                    "midi": 81,
                    "time": 240.2665164999976,
                    "velocity": 0.4330708661417323,
                    "duration": 0.13333324999999263
                },
                {
                    "name": "B5",
                    "midi": 83,
                    "time": 240.3998497499976,
                    "velocity": 0.41732283464566927,
                    "duration": 0.13333324999999263
                },
                {
                    "name": "A5",
                    "midi": 81,
                    "time": 240.5331829999976,
                    "velocity": 0.41732283464566927,
                    "duration": 0.13333324999999263
                },
                {
                    "name": "B5",
                    "midi": 83,
                    "time": 240.66651624999758,
                    "velocity": 0.3858267716535433,
                    "duration": 0.13333324999999263
                },
                {
                    "name": "A5",
                    "midi": 81,
                    "time": 240.79984949999758,
                    "velocity": 0.3937007874015748,
                    "duration": 0.13333324999999263
                },
                {
                    "name": "F#5",
                    "midi": 78,
                    "time": 240.93318274999757,
                    "velocity": 0.3543307086614173,
                    "duration": 0.13333324999999263
                },
                {
                    "name": "D5",
                    "midi": 74,
                    "time": 241.06651599999756,
                    "velocity": 0.3858267716535433,
                    "duration": 0.2666665000000137
                },
                {
                    "name": "D5",
                    "midi": 74,
                    "time": 241.5998489999976,
                    "velocity": 0.3464566929133858,
                    "duration": 0.533332999999999
                },
                {
                    "name": "C#5",
                    "midi": 73,
                    "time": 242.1331819999976,
                    "velocity": 0.4015748031496063,
                    "duration": 0.13333324999999263
                },
                {
                    "name": "B4",
                    "midi": 71,
                    "time": 242.26651524999758,
                    "velocity": 0.3228346456692913,
                    "duration": 0.13333324999999263
                },
                {
                    "name": "C#5",
                    "midi": 73,
                    "time": 242.39984849999757,
                    "velocity": 0.3543307086614173,
                    "duration": 0.13333324999999263
                },
                {
                    "name": "D5",
                    "midi": 74,
                    "time": 242.53318174999757,
                    "velocity": 0.33858267716535434,
                    "duration": 0.13333324999999263
                },
                {
                    "name": "C#5",
                    "midi": 73,
                    "time": 242.66651499999756,
                    "velocity": 0.3858267716535433,
                    "duration": 0.13333324999999263
                },
                {
                    "name": "D5",
                    "midi": 74,
                    "time": 242.79984824999755,
                    "velocity": 0.33070866141732286,
                    "duration": 0.13333324999999263
                },
                {
                    "name": "E5",
                    "midi": 76,
                    "time": 242.93318149999754,
                    "velocity": 0.3543307086614173,
                    "duration": 0.13333324999999263
                },
                {
                    "name": "C#5",
                    "midi": 73,
                    "time": 243.06651474999754,
                    "velocity": 0.3858267716535433,
                    "duration": 0.13333324999999263
                },
                {
                    "name": "A4",
                    "midi": 69,
                    "time": 243.19984799999753,
                    "velocity": 0.4645669291338583,
                    "duration": 0.2666665000000137
                },
                {
                    "name": "D5",
                    "midi": 74,
                    "time": 243.73318099999756,
                    "velocity": 0.4330708661417323,
                    "duration": 0.2666665000000137
                },
                {
                    "name": "E5",
                    "midi": 76,
                    "time": 244.26651399999758,
                    "velocity": 0.41732283464566927,
                    "duration": 0.13333324999999263
                },
                {
                    "name": "G5",
                    "midi": 79,
                    "time": 244.39984724999758,
                    "velocity": 0.3700787401574803,
                    "duration": 0.13333324999999263
                },
                {
                    "name": "E5",
                    "midi": 76,
                    "time": 244.53318049999757,
                    "velocity": 0.4015748031496063,
                    "duration": 0.13333324999999263
                },
                {
                    "name": "G5",
                    "midi": 79,
                    "time": 244.66651374999756,
                    "velocity": 0.3779527559055118,
                    "duration": 0.1433332437499928
                },
                {
                    "name": "B5",
                    "midi": 83,
                    "time": 244.79984699999756,
                    "velocity": 0.4645669291338583,
                    "duration": 0.13333324999999263
                },
                {
                    "name": "A5",
                    "midi": 81,
                    "time": 244.93318024999755,
                    "velocity": 0.3779527559055118,
                    "duration": 0.13333324999999263
                },
                {
                    "name": "B5",
                    "midi": 83,
                    "time": 245.06651349999754,
                    "velocity": 0.4015748031496063,
                    "duration": 0.13333324999999263
                },
                {
                    "name": "A5",
                    "midi": 81,
                    "time": 245.19984674999753,
                    "velocity": 0.3700787401574803,
                    "duration": 0.12333325624999247
                },
                {
                    "name": "A5",
                    "midi": 81,
                    "time": 245.33317999999753,
                    "velocity": 0.4409448818897638,
                    "duration": 0.2666665000000137
                },
                {
                    "name": "A5",
                    "midi": 81,
                    "time": 245.86651299999755,
                    "velocity": 0.47244094488188976,
                    "duration": 0.6666662499999916
                },
                {
                    "name": "G5",
                    "midi": 79,
                    "time": 246.53317924999754,
                    "velocity": 0.4094488188976378,
                    "duration": 0.13333324999999263
                },
                {
                    "name": "A5",
                    "midi": 81,
                    "time": 246.66651249999754,
                    "velocity": 0.4251968503937008,
                    "duration": 0.13333324999999263
                },
                {
                    "name": "B5",
                    "midi": 83,
                    "time": 246.79984574999753,
                    "velocity": 0.4409448818897638,
                    "duration": 0.13333324999999263
                },
                {
                    "name": "C#6",
                    "midi": 85,
                    "time": 246.93317899999752,
                    "velocity": 0.48031496062992124,
                    "duration": 0.13333324999999263
                },
                {
                    "name": "D6",
                    "midi": 86,
                    "time": 247.06651224999752,
                    "velocity": 0.4251968503937008,
                    "duration": 0.13333324999999263
                },
                {
                    "name": "C#6",
                    "midi": 85,
                    "time": 247.1998454999975,
                    "velocity": 0.4409448818897638,
                    "duration": 0.13333324999999263
                },
                {
                    "name": "B5",
                    "midi": 83,
                    "time": 247.3331787499975,
                    "velocity": 0.4251968503937008,
                    "duration": 0.13333324999999263
                },
                {
                    "name": "A5",
                    "midi": 81,
                    "time": 247.4665119999975,
                    "velocity": 0.47244094488188976,
                    "duration": 1.0555548958333247
                },
                {
                    "name": "A5",
                    "midi": 81,
                    "time": 248.5331779999975,
                    "velocity": 0.3228346456692913,
                    "duration": 0.13333324999999263
                },
                {
                    "name": "A#5",
                    "midi": 82,
                    "time": 248.66651124999748,
                    "velocity": 0.25196850393700787,
                    "duration": 0.13333324999999263
                },
                {
                    "name": "A5",
                    "midi": 81,
                    "time": 248.79984449999748,
                    "velocity": 0.29133858267716534,
                    "duration": 0.13333324999999263
                },
                {
                    "name": "A#5",
                    "midi": 82,
                    "time": 248.93317774999747,
                    "velocity": 0.25984251968503935,
                    "duration": 0.13333324999999263
                },
                {
                    "name": "A5",
                    "midi": 81,
                    "time": 249.06651099999746,
                    "velocity": 0.33070866141732286,
                    "duration": 0.13333324999999263
                },
                {
                    "name": "A#5",
                    "midi": 82,
                    "time": 249.19984424999745,
                    "velocity": 0.2677165354330709,
                    "duration": 0.13333324999999263
                },
                {
                    "name": "A5",
                    "midi": 81,
                    "time": 249.33317749999745,
                    "velocity": 0.30708661417322836,
                    "duration": 0.13333324999999263
                },
                {
                    "name": "F5",
                    "midi": 77,
                    "time": 249.46651074999744,
                    "velocity": 0.2677165354330709,
                    "duration": 0.13333324999999263
                },
                {
                    "name": "D5",
                    "midi": 74,
                    "time": 249.59984399999743,
                    "velocity": 0.3228346456692913,
                    "duration": 0.2666665000000137
                },
                {
                    "name": "D5",
                    "midi": 74,
                    "time": 250.13317699999746,
                    "velocity": 0.29133858267716534,
                    "duration": 0.533332999999999
                },
                {
                    "name": "F5",
                    "midi": 77,
                    "time": 250.66650999999746,
                    "velocity": 0.33858267716535434,
                    "duration": 0.13333324999999263
                },
                {
                    "name": "A4",
                    "midi": 69,
                    "time": 250.66650999999746,
                    "velocity": 0.29133858267716534,
                    "duration": 0.528888558333307
                },
                {
                    "name": "E5",
                    "midi": 76,
                    "time": 250.79984324999745,
                    "velocity": 0.2992125984251969,
                    "duration": 0.13333324999999263
                },
                {
                    "name": "F5",
                    "midi": 77,
                    "time": 250.93317649999744,
                    "velocity": 0.3228346456692913,
                    "duration": 0.13333324999999263
                },
                {
                    "name": "E5",
                    "midi": 76,
                    "time": 251.06650974999744,
                    "velocity": 0.2992125984251969,
                    "duration": 0.13333324999999263
                },
                {
                    "name": "A4",
                    "midi": 69,
                    "time": 251.19984299999743,
                    "velocity": 0.29133858267716534,
                    "duration": 0.5333329999999705
                },
                {
                    "name": "G5",
                    "midi": 79,
                    "time": 251.19984299999743,
                    "velocity": 0.36220472440944884,
                    "duration": 0.13333324999999263
                },
                {
                    "name": "F5",
                    "midi": 77,
                    "time": 251.33317624999742,
                    "velocity": 0.3543307086614173,
                    "duration": 0.13333324999999263
                },
                {
                    "name": "G5",
                    "midi": 79,
                    "time": 251.46650949999741,
                    "velocity": 0.4015748031496063,
                    "duration": 0.13333324999999263
                },
                {
                    "name": "F5",
                    "midi": 77,
                    "time": 251.60539830208074,
                    "velocity": 0.4330708661417323,
                    "duration": 0.12222214583331947
                },
                {
                    "name": "F5",
                    "midi": 77,
                    "time": 251.7331759999974,
                    "velocity": 0.48031496062992124,
                    "duration": 0.533332999999999
                },
                {
                    "name": "A#4",
                    "midi": 70,
                    "time": 251.7331759999974,
                    "velocity": 0.29133858267716534,
                    "duration": 0.7999995000000126
                },
                {
                    "name": "A#5",
                    "midi": 82,
                    "time": 252.2665089999974,
                    "velocity": 0.44881889763779526,
                    "duration": 0.2666665000000137
                },
                {
                    "name": "D6",
                    "midi": 86,
                    "time": 252.79984199999743,
                    "velocity": 0.4409448818897638,
                    "duration": 0.13333324999999263
                },
                {
                    "name": "E6",
                    "midi": 88,
                    "time": 252.93317524999742,
                    "velocity": 0.4015748031496063,
                    "duration": 0.13333324999999263
                },
                {
                    "name": "D6",
                    "midi": 86,
                    "time": 253.0665084999974,
                    "velocity": 0.4566929133858268,
                    "duration": 0.13333324999999263
                },
                {
                    "name": "C#6",
                    "midi": 85,
                    "time": 253.1998417499974,
                    "velocity": 0.4409448818897638,
                    "duration": 0.13333324999999263
                },
                {
                    "name": "D6",
                    "midi": 86,
                    "time": 253.3331749999974,
                    "velocity": 0.5118110236220472,
                    "duration": 0.13333324999999263
                },
                {
                    "name": "E6",
                    "midi": 88,
                    "time": 253.4665082499974,
                    "velocity": 0.4409448818897638,
                    "duration": 0.13333324999999263
                },
                {
                    "name": "F6",
                    "midi": 89,
                    "time": 253.59984149999738,
                    "velocity": 0.4330708661417323,
                    "duration": 0.13333324999999263
                },
                {
                    "name": "D6",
                    "midi": 86,
                    "time": 253.72761919791404,
                    "velocity": 0.3858267716535433,
                    "duration": 0.13333324999999263
                },
                {
                    "name": "A5",
                    "midi": 81,
                    "time": 253.86650799999737,
                    "velocity": 0.5039370078740157,
                    "duration": 0.2666665000000137
                },
                {
                    "name": "A5",
                    "midi": 81,
                    "time": 254.3998409999974,
                    "velocity": 0.4094488188976378,
                    "duration": 1.0666659999999695
                },
                {
                    "name": "E5",
                    "midi": 76,
                    "time": 254.9331739999974,
                    "velocity": 0.4251968503937008,
                    "duration": 0.13333324999999263
                },
                {
                    "name": "G5",
                    "midi": 79,
                    "time": 255.0665072499974,
                    "velocity": 0.33070866141732286,
                    "duration": 0.13333324999999263
                },
                {
                    "name": "E5",
                    "midi": 76,
                    "time": 255.19984049999738,
                    "velocity": 0.3779527559055118,
                    "duration": 0.13333324999999263
                },
                {
                    "name": "G5",
                    "midi": 79,
                    "time": 255.33317374999737,
                    "velocity": 0.3543307086614173,
                    "duration": 0.13333324999999263
                },
                {
                    "name": "B5",
                    "midi": 83,
                    "time": 255.46650699999736,
                    "velocity": 0.4409448818897638,
                    "duration": 0.13333324999999263
                },
                {
                    "name": "A5",
                    "midi": 81,
                    "time": 255.59984024999736,
                    "velocity": 0.3543307086614173,
                    "duration": 0.13333324999999263
                },
                {
                    "name": "G5",
                    "midi": 79,
                    "time": 255.73317349999735,
                    "velocity": 0.4015748031496063,
                    "duration": 0.13333324999999263
                },
                {
                    "name": "E5",
                    "midi": 76,
                    "time": 255.86650674999734,
                    "velocity": 0.3543307086614173,
                    "duration": 0.13333324999999263
                },
                {
                    "name": "A5",
                    "midi": 81,
                    "time": 255.99983999999733,
                    "velocity": 0.4566929133858268,
                    "duration": 1.066665999999998
                },
                {
                    "name": "G5",
                    "midi": 79,
                    "time": 257.06650599999733,
                    "velocity": 0.47244094488188976,
                    "duration": 0.13333325000002105
                },
                {
                    "name": "B5",
                    "midi": 83,
                    "time": 257.19983924999735,
                    "velocity": 0.4015748031496063,
                    "duration": 0.13333325000002105
                },
                {
                    "name": "G5",
                    "midi": 79,
                    "time": 257.3331724999974,
                    "velocity": 0.4330708661417323,
                    "duration": 0.13333325000002105
                },
                {
                    "name": "B5",
                    "midi": 83,
                    "time": 257.4665057499974,
                    "velocity": 0.4566929133858268,
                    "duration": 0.13333325000002105
                },
                {
                    "name": "E6",
                    "midi": 88,
                    "time": 257.5998389999974,
                    "velocity": 0.48031496062992124,
                    "duration": 0.13333325000002105
                },
                {
                    "name": "D6",
                    "midi": 86,
                    "time": 257.73317224999744,
                    "velocity": 0.4409448818897638,
                    "duration": 0.13333325000002105
                },
                {
                    "name": "B5",
                    "midi": 83,
                    "time": 257.86650549999746,
                    "velocity": 0.41732283464566927,
                    "duration": 0.13333325000002105
                },
                {
                    "name": "G5",
                    "midi": 79,
                    "time": 257.9998387499975,
                    "velocity": 0.3937007874015748,
                    "duration": 0.13333325000002105
                },
                {
                    "name": "F#5",
                    "midi": 78,
                    "time": 258.1331719999975,
                    "velocity": 0.4251968503937008,
                    "duration": 0.13333325000002105
                },
                {
                    "name": "A5",
                    "midi": 81,
                    "time": 258.2665052499975,
                    "velocity": 0.47244094488188976,
                    "duration": 0.13333325000002105
                },
                {
                    "name": "A5",
                    "midi": 81,
                    "time": 258.6665049999975,
                    "velocity": 0.48031496062992124,
                    "duration": 0.5333330000000274
                },
                {
                    "name": "E5",
                    "midi": 76,
                    "time": 259.19983799999756,
                    "velocity": 0.41732283464566927,
                    "duration": 0.13333325000002105
                },
                {
                    "name": "G5",
                    "midi": 79,
                    "time": 259.3331712499976,
                    "velocity": 0.3543307086614173,
                    "duration": 0.13333325000002105
                },
                {
                    "name": "E5",
                    "midi": 76,
                    "time": 259.4665044999976,
                    "velocity": 0.3858267716535433,
                    "duration": 0.13333325000002105
                },
                {
                    "name": "G5",
                    "midi": 79,
                    "time": 259.5998377499976,
                    "velocity": 0.36220472440944884,
                    "duration": 0.13333325000002105
                },
                {
                    "name": "B5",
                    "midi": 83,
                    "time": 259.73317099999764,
                    "velocity": 0.4645669291338583,
                    "duration": 0.13333325000002105
                },
                {
                    "name": "A5",
                    "midi": 81,
                    "time": 259.86650424999766,
                    "velocity": 0.44881889763779526,
                    "duration": 0.13333325000002105
                },
                {
                    "name": "G5",
                    "midi": 79,
                    "time": 259.9998374999977,
                    "velocity": 0.4330708661417323,
                    "duration": 0.13333325000002105
                },
                {
                    "name": "E5",
                    "midi": 76,
                    "time": 260.1331707499977,
                    "velocity": 0.41732283464566927,
                    "duration": 0.13333325000002105
                },
                {
                    "name": "D5",
                    "midi": 74,
                    "time": 260.2665039999977,
                    "velocity": 0.44881889763779526,
                    "duration": 1.066665999999998
                },
                {
                    "name": "G4",
                    "midi": 67,
                    "time": 261.3331699999977,
                    "velocity": 0.33070866141732286,
                    "duration": 0.2399998500000038
                },
                {
                    "name": "D5",
                    "midi": 74,
                    "time": 261.3331699999977,
                    "velocity": 0.3937007874015748,
                    "duration": 0.2399998500000038
                },
                {
                    "name": "B4",
                    "midi": 71,
                    "time": 261.3331699999977,
                    "velocity": 0.33070866141732286,
                    "duration": 0.2399998500000038
                },
                {
                    "name": "B4",
                    "midi": 71,
                    "time": 261.5998364999977,
                    "velocity": 0.2992125984251969,
                    "duration": 0.2399998500000038
                },
                {
                    "name": "E5",
                    "midi": 76,
                    "time": 261.5998364999977,
                    "velocity": 0.3543307086614173,
                    "duration": 0.2399998500000038
                },
                {
                    "name": "G4",
                    "midi": 67,
                    "time": 261.5998364999977,
                    "velocity": 0.2992125984251969,
                    "duration": 0.2399998500000038
                },
                {
                    "name": "B4",
                    "midi": 71,
                    "time": 261.8665029999977,
                    "velocity": 0.2992125984251969,
                    "duration": 0.2399998500000038
                },
                {
                    "name": "G4",
                    "midi": 67,
                    "time": 261.8665029999977,
                    "velocity": 0.2992125984251969,
                    "duration": 0.2399998500000038
                },
                {
                    "name": "F#5",
                    "midi": 78,
                    "time": 261.8665029999977,
                    "velocity": 0.3543307086614173,
                    "duration": 0.2399998500000038
                },
                {
                    "name": "B4",
                    "midi": 71,
                    "time": 262.1331694999977,
                    "velocity": 0.2992125984251969,
                    "duration": 0.2399998500000038
                },
                {
                    "name": "G4",
                    "midi": 67,
                    "time": 262.1331694999977,
                    "velocity": 0.2992125984251969,
                    "duration": 0.2399998500000038
                },
                {
                    "name": "G5",
                    "midi": 79,
                    "time": 262.1331694999977,
                    "velocity": 0.3543307086614173,
                    "duration": 0.2399998500000038
                },
                {
                    "name": "G4",
                    "midi": 67,
                    "time": 262.39983599999766,
                    "velocity": 0.3543307086614173,
                    "duration": 0.2399998500000038
                },
                {
                    "name": "G5",
                    "midi": 79,
                    "time": 262.39983599999766,
                    "velocity": 0.41732283464566927,
                    "duration": 0.2399998500000038
                },
                {
                    "name": "B4",
                    "midi": 71,
                    "time": 262.39983599999766,
                    "velocity": 0.41732283464566927,
                    "duration": 0.2399998500000038
                },
                {
                    "name": "B4",
                    "midi": 71,
                    "time": 262.66650249999765,
                    "velocity": 0.3228346456692913,
                    "duration": 0.2399998500000038
                },
                {
                    "name": "G4",
                    "midi": 67,
                    "time": 262.66650249999765,
                    "velocity": 0.2755905511811024,
                    "duration": 0.2399998500000038
                },
                {
                    "name": "B4",
                    "midi": 71,
                    "time": 262.93316899999763,
                    "velocity": 0.3464566929133858,
                    "duration": 0.2399998500000038
                },
                {
                    "name": "G4",
                    "midi": 67,
                    "time": 262.93316899999763,
                    "velocity": 0.29133858267716534,
                    "duration": 0.2399998500000038
                },
                {
                    "name": "B4",
                    "midi": 71,
                    "time": 263.1998354999976,
                    "velocity": 0.3228346456692913,
                    "duration": 0.2399998500000038
                },
                {
                    "name": "G4",
                    "midi": 67,
                    "time": 263.1998354999976,
                    "velocity": 0.2755905511811024,
                    "duration": 0.2399998500000038
                },
                {
                    "name": "G4",
                    "midi": 67,
                    "time": 263.4665019999976,
                    "velocity": 0.3464566929133858,
                    "duration": 0.2399998500000038
                },
                {
                    "name": "G5",
                    "midi": 79,
                    "time": 263.4665019999976,
                    "velocity": 0.4094488188976378,
                    "duration": 0.2399998500000038
                },
                {
                    "name": "A#4",
                    "midi": 70,
                    "time": 263.4665019999976,
                    "velocity": 0.3464566929133858,
                    "duration": 0.2399998500000038
                },
                {
                    "name": "C#5",
                    "midi": 73,
                    "time": 263.7331684999976,
                    "velocity": 0.33070866141732286,
                    "duration": 0.2399998500000038
                },
                {
                    "name": "A#4",
                    "midi": 70,
                    "time": 263.7331684999976,
                    "velocity": 0.28346456692913385,
                    "duration": 0.2399998500000038
                },
                {
                    "name": "G4",
                    "midi": 67,
                    "time": 263.7331684999976,
                    "velocity": 0.28346456692913385,
                    "duration": 0.2399998500000038
                },
                {
                    "name": "G4",
                    "midi": 67,
                    "time": 263.9998349999976,
                    "velocity": 0.2992125984251969,
                    "duration": 0.2399998500000038
                },
                {
                    "name": "A#4",
                    "midi": 70,
                    "time": 263.9998349999976,
                    "velocity": 0.2992125984251969,
                    "duration": 0.2399998500000038
                },
                {
                    "name": "C#5",
                    "midi": 73,
                    "time": 263.9998349999976,
                    "velocity": 0.3543307086614173,
                    "duration": 0.2399998500000038
                },
                {
                    "name": "G4",
                    "midi": 67,
                    "time": 264.26650149999756,
                    "velocity": 0.28346456692913385,
                    "duration": 0.2399998500000038
                },
                {
                    "name": "C#5",
                    "midi": 73,
                    "time": 264.26650149999756,
                    "velocity": 0.33070866141732286,
                    "duration": 0.2399998500000038
                },
                {
                    "name": "A#4",
                    "midi": 70,
                    "time": 264.26650149999756,
                    "velocity": 0.28346456692913385,
                    "duration": 0.2399998500000038
                },
                {
                    "name": "G4",
                    "midi": 67,
                    "time": 264.53316799999754,
                    "velocity": 0.3779527559055118,
                    "duration": 1.066665999999998
                },
                {
                    "name": "B4",
                    "midi": 71,
                    "time": 264.53316799999754,
                    "velocity": 0.3779527559055118,
                    "duration": 1.066665999999998
                },
                {
                    "name": "D5",
                    "midi": 74,
                    "time": 264.53316799999754,
                    "velocity": 0.44881889763779526,
                    "duration": 1.066665999999998
                },
                {
                    "name": "G4",
                    "midi": 67,
                    "time": 265.59983399999754,
                    "velocity": 0.33070866141732286,
                    "duration": 0.2399998500000038
                },
                {
                    "name": "B4",
                    "midi": 71,
                    "time": 265.59983399999754,
                    "velocity": 0.33070866141732286,
                    "duration": 0.2399998500000038
                },
                {
                    "name": "E5",
                    "midi": 76,
                    "time": 265.59983399999754,
                    "velocity": 0.3937007874015748,
                    "duration": 0.2399998500000038
                },
                {
                    "name": "D5",
                    "midi": 74,
                    "time": 265.8665004999975,
                    "velocity": 0.3543307086614173,
                    "duration": 0.2399998500000038
                },
                {
                    "name": "B4",
                    "midi": 71,
                    "time": 265.8665004999975,
                    "velocity": 0.2992125984251969,
                    "duration": 0.2399998500000038
                },
                {
                    "name": "G4",
                    "midi": 67,
                    "time": 265.8665004999975,
                    "velocity": 0.2992125984251969,
                    "duration": 0.2399998500000038
                },
                {
                    "name": "G4",
                    "midi": 67,
                    "time": 266.1331669999975,
                    "velocity": 0.2992125984251969,
                    "duration": 0.2399998500000038
                },
                {
                    "name": "B4",
                    "midi": 71,
                    "time": 266.1331669999975,
                    "velocity": 0.3543307086614173,
                    "duration": 0.2399998500000038
                },
                {
                    "name": "G4",
                    "midi": 67,
                    "time": 266.3998334999975,
                    "velocity": 0.3543307086614173,
                    "duration": 0.2399998500000038
                },
                {
                    "name": "D4",
                    "midi": 62,
                    "time": 266.6664999999975,
                    "velocity": 0.3543307086614173,
                    "duration": 0.2399998500000038
                },
                {
                    "name": "B4",
                    "midi": 71,
                    "time": 266.6664999999975,
                    "velocity": 0.41732283464566927,
                    "duration": 0.2399998500000038
                },
                {
                    "name": "G4",
                    "midi": 67,
                    "time": 266.6664999999975,
                    "velocity": 0.41732283464566927,
                    "duration": 0.2399998500000038
                },
                {
                    "name": "F#4",
                    "midi": 66,
                    "time": 266.93316649999747,
                    "velocity": 0.2755905511811024,
                    "duration": 0.26666649999998526
                },
                {
                    "name": "A4",
                    "midi": 69,
                    "time": 266.93316649999747,
                    "velocity": 0.3228346456692913,
                    "duration": 0.2399998500000038
                },
                {
                    "name": "D4",
                    "midi": 62,
                    "time": 266.93316649999747,
                    "velocity": 0.2755905511811024,
                    "duration": 0.2399998500000038
                },
                {
                    "name": "A4",
                    "midi": 69,
                    "time": 267.19983299999745,
                    "velocity": 0.3464566929133858,
                    "duration": 0.2399998500000038
                },
                {
                    "name": "F#4",
                    "midi": 66,
                    "time": 267.19983299999745,
                    "velocity": 0.29133858267716534,
                    "duration": 0.26666649999998526
                },
                {
                    "name": "D4",
                    "midi": 62,
                    "time": 267.19983299999745,
                    "velocity": 0.29133858267716534,
                    "duration": 0.2399998500000038
                },
                {
                    "name": "D4",
                    "midi": 62,
                    "time": 267.46649949999744,
                    "velocity": 0.2755905511811024,
                    "duration": 0.2399998500000038
                },
                {
                    "name": "F#4",
                    "midi": 66,
                    "time": 267.46649949999744,
                    "velocity": 0.2755905511811024,
                    "duration": 0.26666649999998526
                },
                {
                    "name": "A4",
                    "midi": 69,
                    "time": 267.46649949999744,
                    "velocity": 0.3228346456692913,
                    "duration": 0.2399998500000038
                },
                {
                    "name": "G4",
                    "midi": 67,
                    "time": 267.7331659999974,
                    "velocity": 0.3464566929133858,
                    "duration": 0.2399998500000038
                },
                {
                    "name": "A#4",
                    "midi": 70,
                    "time": 267.7331659999974,
                    "velocity": 0.3464566929133858,
                    "duration": 0.2399998500000038
                },
                {
                    "name": "E5",
                    "midi": 76,
                    "time": 267.7331659999974,
                    "velocity": 0.4094488188976378,
                    "duration": 0.2399998500000038
                },
                {
                    "name": "G4",
                    "midi": 67,
                    "time": 267.9998324999974,
                    "velocity": 0.28346456692913385,
                    "duration": 0.2399998500000038
                },
                {
                    "name": "C#5",
                    "midi": 73,
                    "time": 267.9998324999974,
                    "velocity": 0.33070866141732286,
                    "duration": 0.2399998500000038
                },
                {
                    "name": "A#4",
                    "midi": 70,
                    "time": 267.9998324999974,
                    "velocity": 0.28346456692913385,
                    "duration": 0.2399998500000038
                },
                {
                    "name": "G4",
                    "midi": 67,
                    "time": 268.2664989999974,
                    "velocity": 0.2992125984251969,
                    "duration": 0.2399998500000038
                },
                {
                    "name": "A#4",
                    "midi": 70,
                    "time": 268.2664989999974,
                    "velocity": 0.2992125984251969,
                    "duration": 0.2399998500000038
                },
                {
                    "name": "C#5",
                    "midi": 73,
                    "time": 268.2664989999974,
                    "velocity": 0.3543307086614173,
                    "duration": 0.2399998500000038
                },
                {
                    "name": "C#5",
                    "midi": 73,
                    "time": 268.5331654999974,
                    "velocity": 0.33070866141732286,
                    "duration": 0.2399998500000038
                },
                {
                    "name": "A#4",
                    "midi": 70,
                    "time": 268.5331654999974,
                    "velocity": 0.28346456692913385,
                    "duration": 0.2399998500000038
                },
                {
                    "name": "G4",
                    "midi": 67,
                    "time": 268.5331654999974,
                    "velocity": 0.28346456692913385,
                    "duration": 0.2399998500000038
                },
                {
                    "name": "D5",
                    "midi": 74,
                    "time": 268.79983199999737,
                    "velocity": 0.44881889763779526,
                    "duration": 1.066665999999998
                },
                {
                    "name": "F#4",
                    "midi": 66,
                    "time": 268.79983199999737,
                    "velocity": 0.3779527559055118,
                    "duration": 1.066665999999998
                },
                {
                    "name": "A4",
                    "midi": 69,
                    "time": 268.79983199999737,
                    "velocity": 0.3779527559055118,
                    "duration": 1.066665999999998
                },
                {
                    "name": "F4",
                    "midi": 65,
                    "time": 269.86649799999736,
                    "velocity": 0.33070866141732286,
                    "duration": 0.2399998500000038
                },
                {
                    "name": "D5",
                    "midi": 74,
                    "time": 269.86649799999736,
                    "velocity": 0.3937007874015748,
                    "duration": 0.2399998500000038
                },
                {
                    "name": "A4",
                    "midi": 69,
                    "time": 269.86649799999736,
                    "velocity": 0.33070866141732286,
                    "duration": 0.2399998500000038
                },
                {
                    "name": "A4",
                    "midi": 69,
                    "time": 270.13316449999735,
                    "velocity": 0.30708661417322836,
                    "duration": 0.2399998500000038
                },
                {
                    "name": "F4",
                    "midi": 65,
                    "time": 270.13316449999735,
                    "velocity": 0.30708661417322836,
                    "duration": 0.2399998500000038
                },
                {
                    "name": "D5",
                    "midi": 74,
                    "time": 270.13316449999735,
                    "velocity": 0.3700787401574803,
                    "duration": 0.2399998500000038
                },
                {
                    "name": "E5",
                    "midi": 76,
                    "time": 270.39983099999733,
                    "velocity": 0.3858267716535433,
                    "duration": 0.2399998500000038
                },
                {
                    "name": "A4",
                    "midi": 69,
                    "time": 270.39983099999733,
                    "velocity": 0.3228346456692913,
                    "duration": 0.2399998500000038
                },
                {
                    "name": "F4",
                    "midi": 65,
                    "time": 270.39983099999733,
                    "velocity": 0.3228346456692913,
                    "duration": 0.2399998500000038
                },
                {
                    "name": "F5",
                    "midi": 77,
                    "time": 270.6664974999973,
                    "velocity": 0.4015748031496063,
                    "duration": 0.2399998500000038
                },
                {
                    "name": "A4",
                    "midi": 69,
                    "time": 270.6664974999973,
                    "velocity": 0.33858267716535434,
                    "duration": 0.2399998500000038
                },
                {
                    "name": "F5",
                    "midi": 77,
                    "time": 270.9331639999973,
                    "velocity": 0.41732283464566927,
                    "duration": 0.2399998500000038
                },
                {
                    "name": "G#4",
                    "midi": 68,
                    "time": 270.9331639999973,
                    "velocity": 0.41732283464566927,
                    "duration": 0.2399998500000038
                },
                {
                    "name": "E4",
                    "midi": 64,
                    "time": 270.9331639999973,
                    "velocity": 0.3543307086614173,
                    "duration": 0.2399998500000038
                },
                {
                    "name": "G#4",
                    "midi": 68,
                    "time": 271.1998304999973,
                    "velocity": 0.29133858267716534,
                    "duration": 0.26666649999998526
                },
                {
                    "name": "B4",
                    "midi": 71,
                    "time": 271.1998304999973,
                    "velocity": 0.3464566929133858,
                    "duration": 0.2399998500000038
                },
                {
                    "name": "E4",
                    "midi": 64,
                    "time": 271.1998304999973,
                    "velocity": 0.29133858267716534,
                    "duration": 0.2399998500000038
                },
                {
                    "name": "G#4",
                    "midi": 68,
                    "time": 271.4664969999973,
                    "velocity": 0.29133858267716534,
                    "duration": 0.26666649999998526
                },
                {
                    "name": "E4",
                    "midi": 64,
                    "time": 271.4664969999973,
                    "velocity": 0.29133858267716534,
                    "duration": 0.2399998500000038
                },
                {
                    "name": "B4",
                    "midi": 71,
                    "time": 271.4664969999973,
                    "velocity": 0.3464566929133858,
                    "duration": 0.2399998500000038
                },
                {
                    "name": "G#4",
                    "midi": 68,
                    "time": 271.73316349999726,
                    "velocity": 0.29133858267716534,
                    "duration": 0.26666649999998526
                },
                {
                    "name": "B4",
                    "midi": 71,
                    "time": 271.73316349999726,
                    "velocity": 0.3464566929133858,
                    "duration": 0.2399998500000038
                },
                {
                    "name": "E4",
                    "midi": 64,
                    "time": 271.73316349999726,
                    "velocity": 0.29133858267716534,
                    "duration": 0.2399998500000038
                },
                {
                    "name": "E4",
                    "midi": 64,
                    "time": 271.99982999999725,
                    "velocity": 0.3464566929133858,
                    "duration": 0.2399998500000038
                },
                {
                    "name": "A4",
                    "midi": 69,
                    "time": 271.99982999999725,
                    "velocity": 0.3464566929133858,
                    "duration": 0.2399998500000038
                },
                {
                    "name": "C5",
                    "midi": 72,
                    "time": 271.99982999999725,
                    "velocity": 0.4094488188976378,
                    "duration": 0.2399998500000038
                },
                {
                    "name": "C5",
                    "midi": 72,
                    "time": 272.26649649999723,
                    "velocity": 0.3543307086614173,
                    "duration": 0.2399998500000038
                },
                {
                    "name": "A4",
                    "midi": 69,
                    "time": 272.26649649999723,
                    "velocity": 0.2992125984251969,
                    "duration": 0.2399998500000038
                },
                {
                    "name": "E4",
                    "midi": 64,
                    "time": 272.26649649999723,
                    "velocity": 0.2992125984251969,
                    "duration": 0.2399998500000038
                },
                {
                    "name": "E4",
                    "midi": 64,
                    "time": 272.5331629999972,
                    "velocity": 0.30708661417322836,
                    "duration": 0.2399998500000038
                },
                {
                    "name": "D5",
                    "midi": 74,
                    "time": 272.5331629999972,
                    "velocity": 0.36220472440944884,
                    "duration": 0.2399998500000038
                },
                {
                    "name": "A4",
                    "midi": 69,
                    "time": 272.5331629999972,
                    "velocity": 0.30708661417322836,
                    "duration": 0.2399998500000038
                },
                {
                    "name": "E4",
                    "midi": 64,
                    "time": 272.7998294999972,
                    "velocity": 0.31496062992125984,
                    "duration": 0.2399998500000038
                },
                {
                    "name": "G4",
                    "midi": 67,
                    "time": 272.7998294999972,
                    "velocity": 0.31496062992125984,
                    "duration": 0.2399998500000038
                },
                {
                    "name": "E5",
                    "midi": 76,
                    "time": 272.7998294999972,
                    "velocity": 0.3779527559055118,
                    "duration": 0.2399998500000038
                },
                {
                    "name": "F#4",
                    "midi": 66,
                    "time": 273.0664959999972,
                    "velocity": 0.41732283464566927,
                    "duration": 0.2399998500000038
                },
                {
                    "name": "E5",
                    "midi": 76,
                    "time": 273.0664959999972,
                    "velocity": 0.41732283464566927,
                    "duration": 0.2399998500000038
                },
                {
                    "name": "D4",
                    "midi": 62,
                    "time": 273.0664959999972,
                    "velocity": 0.3543307086614173,
                    "duration": 0.2399998500000038
                },
                {
                    "name": "F#4",
                    "midi": 66,
                    "time": 273.3331624999972,
                    "velocity": 0.25984251968503935,
                    "duration": 0.26666649999998526
                },
                {
                    "name": "D4",
                    "midi": 62,
                    "time": 273.3331624999972,
                    "velocity": 0.25984251968503935,
                    "duration": 0.2399998500000038
                },
                {
                    "name": "A4",
                    "midi": 69,
                    "time": 273.3331624999972,
                    "velocity": 0.30708661417322836,
                    "duration": 0.2399998500000038
                },
                {
                    "name": "D4",
                    "midi": 62,
                    "time": 273.59982899999716,
                    "velocity": 0.29133858267716534,
                    "duration": 0.2399998500000038
                },
                {
                    "name": "F#4",
                    "midi": 66,
                    "time": 273.59982899999716,
                    "velocity": 0.29133858267716534,
                    "duration": 0.26666649999998526
                },
                {
                    "name": "A4",
                    "midi": 69,
                    "time": 273.59982899999716,
                    "velocity": 0.3464566929133858,
                    "duration": 0.2399998500000038
                },
                {
                    "name": "F#4",
                    "midi": 66,
                    "time": 273.86649549999714,
                    "velocity": 0.25984251968503935,
                    "duration": 0.26666649999998526
                },
                {
                    "name": "A4",
                    "midi": 69,
                    "time": 273.86649549999714,
                    "velocity": 0.30708661417322836,
                    "duration": 0.2399998500000038
                },
                {
                    "name": "D4",
                    "midi": 62,
                    "time": 273.86649549999714,
                    "velocity": 0.25984251968503935,
                    "duration": 0.2399998500000038
                },
                {
                    "name": "D4",
                    "midi": 62,
                    "time": 274.1331619999971,
                    "velocity": 0.3464566929133858,
                    "duration": 0.2399998500000038
                },
                {
                    "name": "B4",
                    "midi": 71,
                    "time": 274.1331619999971,
                    "velocity": 0.4094488188976378,
                    "duration": 0.2399998500000038
                },
                {
                    "name": "G4",
                    "midi": 67,
                    "time": 274.1331619999971,
                    "velocity": 0.3464566929133858,
                    "duration": 0.2399998500000038
                },
                {
                    "name": "E5",
                    "midi": 76,
                    "time": 274.3998284999971,
                    "velocity": 0.4251968503937008,
                    "duration": 0.2399998500000038
                },
                {
                    "name": "G4",
                    "midi": 67,
                    "time": 274.3998284999971,
                    "velocity": 0.3543307086614173,
                    "duration": 0.2399998500000038
                },
                {
                    "name": "D4",
                    "midi": 62,
                    "time": 274.3998284999971,
                    "velocity": 0.3543307086614173,
                    "duration": 0.2399998500000038
                },
                {
                    "name": "D4",
                    "midi": 62,
                    "time": 274.6664949999971,
                    "velocity": 0.33858267716535434,
                    "duration": 0.2399998500000038
                },
                {
                    "name": "G4",
                    "midi": 67,
                    "time": 274.6664949999971,
                    "velocity": 0.33858267716535434,
                    "duration": 0.2399998500000038
                },
                {
                    "name": "D5",
                    "midi": 74,
                    "time": 274.6664949999971,
                    "velocity": 0.4015748031496063,
                    "duration": 0.2399998500000038
                },
                {
                    "name": "D4",
                    "midi": 62,
                    "time": 274.9331614999971,
                    "velocity": 0.31496062992125984,
                    "duration": 0.2399998500000038
                },
                {
                    "name": "B4",
                    "midi": 71,
                    "time": 274.9331614999971,
                    "velocity": 0.3779527559055118,
                    "duration": 0.2399998500000038
                },
                {
                    "name": "G4",
                    "midi": 67,
                    "time": 274.9331614999971,
                    "velocity": 0.31496062992125984,
                    "duration": 0.2399998500000038
                },
                {
                    "name": "F#4",
                    "midi": 66,
                    "time": 275.19982799999707,
                    "velocity": 0.41732283464566927,
                    "duration": 0.2399998500000038
                },
                {
                    "name": "D4",
                    "midi": 62,
                    "time": 275.19982799999707,
                    "velocity": 0.3543307086614173,
                    "duration": 0.2399998500000038
                },
                {
                    "name": "D5",
                    "midi": 74,
                    "time": 275.19982799999707,
                    "velocity": 0.41732283464566927,
                    "duration": 0.2399998500000038
                },
                {
                    "name": "D4",
                    "midi": 62,
                    "time": 275.46649449999705,
                    "velocity": 0.25984251968503935,
                    "duration": 0.2399998500000038
                },
                {
                    "name": "F#4",
                    "midi": 66,
                    "time": 275.46649449999705,
                    "velocity": 0.25984251968503935,
                    "duration": 0.26666649999998526
                },
                {
                    "name": "A4",
                    "midi": 69,
                    "time": 275.46649449999705,
                    "velocity": 0.30708661417322836,
                    "duration": 0.2399998500000038
                },
                {
                    "name": "F#4",
                    "midi": 66,
                    "time": 275.73316099999704,
                    "velocity": 0.25984251968503935,
                    "duration": 0.26666649999998526
                },
                {
                    "name": "A4",
                    "midi": 69,
                    "time": 275.73316099999704,
                    "velocity": 0.30708661417322836,
                    "duration": 0.2399998500000038
                },
                {
                    "name": "D4",
                    "midi": 62,
                    "time": 275.73316099999704,
                    "velocity": 0.25984251968503935,
                    "duration": 0.2399998500000038
                },
                {
                    "name": "D4",
                    "midi": 62,
                    "time": 275.999827499997,
                    "velocity": 0.25984251968503935,
                    "duration": 0.2399998500000038
                },
                {
                    "name": "F#4",
                    "midi": 66,
                    "time": 275.999827499997,
                    "velocity": 0.25984251968503935,
                    "duration": 0.26666649999998526
                },
                {
                    "name": "A4",
                    "midi": 69,
                    "time": 275.999827499997,
                    "velocity": 0.30708661417322836,
                    "duration": 0.2399998500000038
                },
                {
                    "name": "B4",
                    "midi": 71,
                    "time": 276.266493999997,
                    "velocity": 0.4094488188976378,
                    "duration": 0.2399998500000038
                },
                {
                    "name": "G4",
                    "midi": 67,
                    "time": 276.266493999997,
                    "velocity": 0.3464566929133858,
                    "duration": 0.2399998500000038
                },
                {
                    "name": "D4",
                    "midi": 62,
                    "time": 276.266493999997,
                    "velocity": 0.3464566929133858,
                    "duration": 0.2399998500000038
                },
                {
                    "name": "E5",
                    "midi": 76,
                    "time": 276.533160499997,
                    "velocity": 0.4251968503937008,
                    "duration": 0.2399998500000038
                },
                {
                    "name": "G4",
                    "midi": 67,
                    "time": 276.533160499997,
                    "velocity": 0.3543307086614173,
                    "duration": 0.2399998500000038
                },
                {
                    "name": "D4",
                    "midi": 62,
                    "time": 276.533160499997,
                    "velocity": 0.3543307086614173,
                    "duration": 0.2399998500000038
                },
                {
                    "name": "D5",
                    "midi": 74,
                    "time": 276.799826999997,
                    "velocity": 0.4015748031496063,
                    "duration": 0.2399998500000038
                },
                {
                    "name": "D4",
                    "midi": 62,
                    "time": 276.799826999997,
                    "velocity": 0.33858267716535434,
                    "duration": 0.2399998500000038
                },
                {
                    "name": "G4",
                    "midi": 67,
                    "time": 276.799826999997,
                    "velocity": 0.33858267716535434,
                    "duration": 0.2399998500000038
                },
                {
                    "name": "D4",
                    "midi": 62,
                    "time": 277.06649349999697,
                    "velocity": 0.31496062992125984,
                    "duration": 0.2399998500000038
                },
                {
                    "name": "G4",
                    "midi": 67,
                    "time": 277.06649349999697,
                    "velocity": 0.31496062992125984,
                    "duration": 0.2399998500000038
                },
                {
                    "name": "B4",
                    "midi": 71,
                    "time": 277.06649349999697,
                    "velocity": 0.3779527559055118,
                    "duration": 0.2399998500000038
                },
                {
                    "name": "F#4",
                    "midi": 66,
                    "time": 277.33315999999695,
                    "velocity": 0.30708661417322836,
                    "duration": 0.2399998500000038
                },
                {
                    "name": "D4",
                    "midi": 62,
                    "time": 277.33315999999695,
                    "velocity": 0.30708661417322836,
                    "duration": 0.2399998500000038
                },
                {
                    "name": "D5",
                    "midi": 74,
                    "time": 277.33315999999695,
                    "velocity": 0.3700787401574803,
                    "duration": 0.2399998500000038
                },
                {
                    "name": "D4",
                    "midi": 62,
                    "time": 277.59982649999694,
                    "velocity": 0.2677165354330709,
                    "duration": 0.2399998500000038
                },
                {
                    "name": "F#4",
                    "midi": 66,
                    "time": 277.59982649999694,
                    "velocity": 0.2677165354330709,
                    "duration": 0.26666649999998526
                },
                {
                    "name": "A4",
                    "midi": 69,
                    "time": 277.59982649999694,
                    "velocity": 0.31496062992125984,
                    "duration": 0.2399998500000038
                },
                {
                    "name": "A4",
                    "midi": 69,
                    "time": 277.8664929999969,
                    "velocity": 0.23622047244094488,
                    "duration": 0.2399998500000038
                },
                {
                    "name": "D5",
                    "midi": 74,
                    "time": 277.8664929999969,
                    "velocity": 0.28346456692913385,
                    "duration": 0.2399998500000038
                },
                {
                    "name": "F#4",
                    "midi": 66,
                    "time": 277.8664929999969,
                    "velocity": 0.23622047244094488,
                    "duration": 0.26666649999998526
                },
                {
                    "name": "A#4",
                    "midi": 70,
                    "time": 278.1331594999969,
                    "velocity": 0.2204724409448819,
                    "duration": 0.2399998500000038
                },
                {
                    "name": "D5",
                    "midi": 74,
                    "time": 278.1331594999969,
                    "velocity": 0.25984251968503935,
                    "duration": 0.2399998500000038
                },
                {
                    "name": "F#4",
                    "midi": 66,
                    "time": 278.1331594999969,
                    "velocity": 0.2204724409448819,
                    "duration": 0.26666649999998526
                },
                {
                    "name": "B4",
                    "midi": 71,
                    "time": 278.3998259999969,
                    "velocity": 0.29133858267716534,
                    "duration": 0.2399998500000038
                },
                {
                    "name": "D5",
                    "midi": 74,
                    "time": 278.3998259999969,
                    "velocity": 0.3543307086614173,
                    "duration": 0.2399998500000038
                },
                {
                    "name": "G4",
                    "midi": 67,
                    "time": 278.3998259999969,
                    "velocity": 0.29133858267716534,
                    "duration": 0.2399998500000038
                },
                {
                    "name": "E5",
                    "midi": 76,
                    "time": 278.6664924999969,
                    "velocity": 0.3543307086614173,
                    "duration": 0.2399998500000038
                },
                {
                    "name": "B4",
                    "midi": 71,
                    "time": 278.6664924999969,
                    "velocity": 0.2992125984251969,
                    "duration": 0.2399998500000038
                },
                {
                    "name": "G4",
                    "midi": 67,
                    "time": 278.6664924999969,
                    "velocity": 0.2992125984251969,
                    "duration": 0.2399998500000038
                },
                {
                    "name": "B4",
                    "midi": 71,
                    "time": 278.93315899999686,
                    "velocity": 0.2992125984251969,
                    "duration": 0.2399998500000038
                },
                {
                    "name": "G4",
                    "midi": 67,
                    "time": 278.93315899999686,
                    "velocity": 0.2992125984251969,
                    "duration": 0.2399998500000038
                },
                {
                    "name": "F#5",
                    "midi": 78,
                    "time": 278.93315899999686,
                    "velocity": 0.3543307086614173,
                    "duration": 0.2399998500000038
                },
                {
                    "name": "G4",
                    "midi": 67,
                    "time": 279.19982549999685,
                    "velocity": 0.2992125984251969,
                    "duration": 0.2399998500000038
                },
                {
                    "name": "G5",
                    "midi": 79,
                    "time": 279.19982549999685,
                    "velocity": 0.3543307086614173,
                    "duration": 0.2399998500000038
                },
                {
                    "name": "B4",
                    "midi": 71,
                    "time": 279.19982549999685,
                    "velocity": 0.2992125984251969,
                    "duration": 0.2399998500000038
                },
                {
                    "name": "B4",
                    "midi": 71,
                    "time": 279.46649199999683,
                    "velocity": 0.41732283464566927,
                    "duration": 0.2399998500000038
                },
                {
                    "name": "G5",
                    "midi": 79,
                    "time": 279.46649199999683,
                    "velocity": 0.41732283464566927,
                    "duration": 0.2399998500000038
                },
                {
                    "name": "G4",
                    "midi": 67,
                    "time": 279.46649199999683,
                    "velocity": 0.3543307086614173,
                    "duration": 0.2399998500000038
                },
                {
                    "name": "G4",
                    "midi": 67,
                    "time": 279.7331584999968,
                    "velocity": 0.25984251968503935,
                    "duration": 0.2399998500000038
                },
                {
                    "name": "B4",
                    "midi": 71,
                    "time": 279.7331584999968,
                    "velocity": 0.30708661417322836,
                    "duration": 0.2399998500000038
                },
                {
                    "name": "B4",
                    "midi": 71,
                    "time": 279.9998249999968,
                    "velocity": 0.3464566929133858,
                    "duration": 0.2399998500000038
                },
                {
                    "name": "G4",
                    "midi": 67,
                    "time": 279.9998249999968,
                    "velocity": 0.29133858267716534,
                    "duration": 0.2399998500000038
                },
                {
                    "name": "G4",
                    "midi": 67,
                    "time": 280.2664914999968,
                    "velocity": 0.25984251968503935,
                    "duration": 0.2399998500000038
                },
                {
                    "name": "B4",
                    "midi": 71,
                    "time": 280.2664914999968,
                    "velocity": 0.30708661417322836,
                    "duration": 0.2399998500000038
                },
                {
                    "name": "A#4",
                    "midi": 70,
                    "time": 280.5331579999968,
                    "velocity": 0.3464566929133858,
                    "duration": 0.2399998500000038
                },
                {
                    "name": "G4",
                    "midi": 67,
                    "time": 280.5331579999968,
                    "velocity": 0.3464566929133858,
                    "duration": 0.2399998500000038
                },
                {
                    "name": "G5",
                    "midi": 79,
                    "time": 280.5331579999968,
                    "velocity": 0.4094488188976378,
                    "duration": 0.2399998500000038
                },
                {
                    "name": "G4",
                    "midi": 67,
                    "time": 280.79982449999676,
                    "velocity": 0.2677165354330709,
                    "duration": 0.2399998500000038
                },
                {
                    "name": "C#5",
                    "midi": 73,
                    "time": 280.79982449999676,
                    "velocity": 0.31496062992125984,
                    "duration": 0.2399998500000038
                },
                {
                    "name": "A#4",
                    "midi": 70,
                    "time": 280.79982449999676,
                    "velocity": 0.2677165354330709,
                    "duration": 0.2399998500000038
                },
                {
                    "name": "C#5",
                    "midi": 73,
                    "time": 281.06649099999674,
                    "velocity": 0.3543307086614173,
                    "duration": 0.2399998500000038
                },
                {
                    "name": "G4",
                    "midi": 67,
                    "time": 281.06649099999674,
                    "velocity": 0.2992125984251969,
                    "duration": 0.2399998500000038
                },
                {
                    "name": "A#4",
                    "midi": 70,
                    "time": 281.06649099999674,
                    "velocity": 0.2992125984251969,
                    "duration": 0.2399998500000038
                },
                {
                    "name": "G4",
                    "midi": 67,
                    "time": 281.33315749999673,
                    "velocity": 0.2992125984251969,
                    "duration": 0.2399998500000038
                },
                {
                    "name": "A#4",
                    "midi": 70,
                    "time": 281.33315749999673,
                    "velocity": 0.2992125984251969,
                    "duration": 0.2399998500000038
                },
                {
                    "name": "C#5",
                    "midi": 73,
                    "time": 281.33315749999673,
                    "velocity": 0.3543307086614173,
                    "duration": 0.2399998500000038
                },
                {
                    "name": "B4",
                    "midi": 71,
                    "time": 281.5998239999967,
                    "velocity": 0.3779527559055118,
                    "duration": 1.066665999999998
                },
                {
                    "name": "D5",
                    "midi": 74,
                    "time": 281.5998239999967,
                    "velocity": 0.44881889763779526,
                    "duration": 1.066665999999998
                },
                {
                    "name": "G4",
                    "midi": 67,
                    "time": 281.5998239999967,
                    "velocity": 0.3779527559055118,
                    "duration": 1.066665999999998
                },
                {
                    "name": "G4",
                    "midi": 67,
                    "time": 282.6664899999967,
                    "velocity": 0.4015748031496063,
                    "duration": 0.2399998500000038
                },
                {
                    "name": "F5",
                    "midi": 77,
                    "time": 282.6664899999967,
                    "velocity": 0.48031496062992124,
                    "duration": 0.2399998500000038
                },
                {
                    "name": "B4",
                    "midi": 71,
                    "time": 282.6664899999967,
                    "velocity": 0.4015748031496063,
                    "duration": 0.2399998500000038
                },
                {
                    "name": "B4",
                    "midi": 71,
                    "time": 282.9331564999967,
                    "velocity": 0.3464566929133858,
                    "duration": 0.2399998500000038
                },
                {
                    "name": "E5",
                    "midi": 76,
                    "time": 282.9331564999967,
                    "velocity": 0.4094488188976378,
                    "duration": 0.2399998500000038
                },
                {
                    "name": "G4",
                    "midi": 67,
                    "time": 282.9331564999967,
                    "velocity": 0.3464566929133858,
                    "duration": 0.2399998500000038
                },
                {
                    "name": "G4",
                    "midi": 67,
                    "time": 283.1998229999967,
                    "velocity": 0.3779527559055118,
                    "duration": 0.2399998500000038
                },
                {
                    "name": "B4",
                    "midi": 71,
                    "time": 283.1998229999967,
                    "velocity": 0.3779527559055118,
                    "duration": 0.26666649999998526
                },
                {
                    "name": "F5",
                    "midi": 77,
                    "time": 283.1998229999967,
                    "velocity": 0.44881889763779526,
                    "duration": 0.2399998500000038
                },
                {
                    "name": "G5",
                    "midi": 79,
                    "time": 283.46648949999667,
                    "velocity": 0.4094488188976378,
                    "duration": 0.2399998500000038
                },
                {
                    "name": "B4",
                    "midi": 71,
                    "time": 283.46648949999667,
                    "velocity": 0.3464566929133858,
                    "duration": 0.26666649999998526
                },
                {
                    "name": "G4",
                    "midi": 67,
                    "time": 283.73315599999665,
                    "velocity": 0.41732283464566927,
                    "duration": 0.2399998500000038
                },
                {
                    "name": "F5",
                    "midi": 77,
                    "time": 283.73315599999665,
                    "velocity": 0.49606299212598426,
                    "duration": 0.2399998500000038
                },
                {
                    "name": "C5",
                    "midi": 72,
                    "time": 283.73315599999665,
                    "velocity": 0.41732283464566927,
                    "duration": 0.2399998500000038
                },
                {
                    "name": "C5",
                    "midi": 72,
                    "time": 283.99982249999664,
                    "velocity": 0.33858267716535434,
                    "duration": 0.26666649999998526
                },
                {
                    "name": "G4",
                    "midi": 67,
                    "time": 283.99982249999664,
                    "velocity": 0.33858267716535434,
                    "duration": 0.2399998500000038
                },
                {
                    "name": "E5",
                    "midi": 76,
                    "time": 283.99982249999664,
                    "velocity": 0.4094488188976378,
                    "duration": 0.2399998500000038
                },
                {
                    "name": "G4",
                    "midi": 67,
                    "time": 284.2664889999966,
                    "velocity": 0.36220472440944884,
                    "duration": 0.26666649999998526
                },
                {
                    "name": "D5",
                    "midi": 74,
                    "time": 284.2664889999966,
                    "velocity": 0.4330708661417323,
                    "duration": 0.2399998500000038
                },
                {
                    "name": "C5",
                    "midi": 72,
                    "time": 284.5331554999966,
                    "velocity": 0.4015748031496063,
                    "duration": 0.2399998500000038
                },
                {
                    "name": "E4",
                    "midi": 64,
                    "time": 284.5331554999966,
                    "velocity": 0.33070866141732286,
                    "duration": 0.2399998500000038
                },
                {
                    "name": "G4",
                    "midi": 67,
                    "time": 284.5331554999966,
                    "velocity": 0.33070866141732286,
                    "duration": 0.26666649999998526
                },
                {
                    "name": "D4",
                    "midi": 62,
                    "time": 284.7998219999966,
                    "velocity": 0.3937007874015748,
                    "duration": 0.2399998500000038
                },
                {
                    "name": "G4",
                    "midi": 67,
                    "time": 284.7998219999966,
                    "velocity": 0.3937007874015748,
                    "duration": 0.2399998500000038
                },
                {
                    "name": "C5",
                    "midi": 72,
                    "time": 284.7998219999966,
                    "velocity": 0.4645669291338583,
                    "duration": 0.2399998500000038
                },
                {
                    "name": "G4",
                    "midi": 67,
                    "time": 285.0664884999966,
                    "velocity": 0.3543307086614173,
                    "duration": 0.2399998500000038
                },
                {
                    "name": "B4",
                    "midi": 71,
                    "time": 285.0664884999966,
                    "velocity": 0.41732283464566927,
                    "duration": 0.2399998500000038
                },
                {
                    "name": "D4",
                    "midi": 62,
                    "time": 285.0664884999966,
                    "velocity": 0.3543307086614173,
                    "duration": 0.2399998500000038
                },
                {
                    "name": "D4",
                    "midi": 62,
                    "time": 285.33315499999657,
                    "velocity": 0.3700787401574803,
                    "duration": 0.2399998500000038
                },
                {
                    "name": "F#4",
                    "midi": 66,
                    "time": 285.33315499999657,
                    "velocity": 0.3700787401574803,
                    "duration": 0.2399998500000038
                },
                {
                    "name": "D5",
                    "midi": 74,
                    "time": 285.33315499999657,
                    "velocity": 0.4409448818897638,
                    "duration": 0.2399998500000038
                },
                {
                    "name": "F#4",
                    "midi": 66,
                    "time": 285.59982149999655,
                    "velocity": 0.3543307086614173,
                    "duration": 0.2399998500000038
                },
                {
                    "name": "D4",
                    "midi": 62,
                    "time": 285.59982149999655,
                    "velocity": 0.3543307086614173,
                    "duration": 0.2399998500000038
                },
                {
                    "name": "C5",
                    "midi": 72,
                    "time": 285.59982149999655,
                    "velocity": 0.41732283464566927,
                    "duration": 0.2399998500000038
                },
                {
                    "name": "D4",
                    "midi": 62,
                    "time": 285.86648799999654,
                    "velocity": 0.4015748031496063,
                    "duration": 0.5333330000000274
                },
                {
                    "name": "B4",
                    "midi": 71,
                    "time": 285.86648799999654,
                    "velocity": 0.48031496062992124,
                    "duration": 0.5333330000000274
                },
                {
                    "name": "G4",
                    "midi": 67,
                    "time": 285.86648799999654,
                    "velocity": 0.4015748031496063,
                    "duration": 0.5333330000000274
                },
                {
                    "name": "G4",
                    "midi": 67,
                    "time": 286.39982099999656,
                    "velocity": 0.4015748031496063,
                    "duration": 0.26666649999998526
                },
                {
                    "name": "B4",
                    "midi": 71,
                    "time": 286.39982099999656,
                    "velocity": 0.4015748031496063,
                    "duration": 0.26666649999998526
                },
                {
                    "name": "D5",
                    "midi": 74,
                    "time": 286.39982099999656,
                    "velocity": 0.47244094488188976,
                    "duration": 0.26666649999998526
                },
                {
                    "name": "E5",
                    "midi": 76,
                    "time": 286.66648749999655,
                    "velocity": 0.4881889763779528,
                    "duration": 0.26666649999998526
                },
                {
                    "name": "B4",
                    "midi": 71,
                    "time": 286.66648749999655,
                    "velocity": 0.4094488188976378,
                    "duration": 0.26666649999998526
                },
                {
                    "name": "G4",
                    "midi": 67,
                    "time": 286.66648749999655,
                    "velocity": 0.4094488188976378,
                    "duration": 0.26666649999998526
                },
                {
                    "name": "G4",
                    "midi": 67,
                    "time": 286.93315399999653,
                    "velocity": 0.4409448818897638,
                    "duration": 0.2399998500000038
                },
                {
                    "name": "B4",
                    "midi": 71,
                    "time": 286.93315399999653,
                    "velocity": 0.4409448818897638,
                    "duration": 0.2399998500000038
                },
                {
                    "name": "F5",
                    "midi": 77,
                    "time": 286.93315399999653,
                    "velocity": 0.5196850393700787,
                    "duration": 0.2399998500000038
                },
                {
                    "name": "G4",
                    "midi": 67,
                    "time": 287.1998204999965,
                    "velocity": 0.4094488188976378,
                    "duration": 0.2399998500000038
                },
                {
                    "name": "B4",
                    "midi": 71,
                    "time": 287.1998204999965,
                    "velocity": 0.4094488188976378,
                    "duration": 0.2399998500000038
                },
                {
                    "name": "E5",
                    "midi": 76,
                    "time": 287.1998204999965,
                    "velocity": 0.4881889763779528,
                    "duration": 0.2399998500000038
                },
                {
                    "name": "B4",
                    "midi": 71,
                    "time": 287.4664869999965,
                    "velocity": 0.4566929133858268,
                    "duration": 0.2399998500000038
                },
                {
                    "name": "G4",
                    "midi": 67,
                    "time": 287.4664869999965,
                    "velocity": 0.4566929133858268,
                    "duration": 0.2399998500000038
                },
                {
                    "name": "F5",
                    "midi": 77,
                    "time": 287.4664869999965,
                    "velocity": 0.5433070866141733,
                    "duration": 0.13333325000002105
                },
                {
                    "name": "A5",
                    "midi": 81,
                    "time": 287.5998202499965,
                    "velocity": 0.5118110236220472,
                    "duration": 0.1333332499999642
                },
                {
                    "name": "B4",
                    "midi": 71,
                    "time": 287.7331534999965,
                    "velocity": 0.4409448818897638,
                    "duration": 0.2399998500000038
                },
                {
                    "name": "G5",
                    "midi": 79,
                    "time": 287.7331534999965,
                    "velocity": 0.5196850393700787,
                    "duration": 0.2399998500000038
                },
                {
                    "name": "F5",
                    "midi": 77,
                    "time": 287.9998199999965,
                    "velocity": 0.5196850393700787,
                    "duration": 0.2399998500000038
                },
                {
                    "name": "C5",
                    "midi": 72,
                    "time": 287.9998199999965,
                    "velocity": 0.4409448818897638,
                    "duration": 0.2399998500000038
                },
                {
                    "name": "G4",
                    "midi": 67,
                    "time": 287.9998199999965,
                    "velocity": 0.4409448818897638,
                    "duration": 0.2399998500000038
                },
                {
                    "name": "G4",
                    "midi": 67,
                    "time": 288.26648649999646,
                    "velocity": 0.33858267716535434,
                    "duration": 0.2399998500000038
                },
                {
                    "name": "C5",
                    "midi": 72,
                    "time": 288.26648649999646,
                    "velocity": 0.33858267716535434,
                    "duration": 0.26666649999998526
                },
                {
                    "name": "E5",
                    "midi": 76,
                    "time": 288.26648649999646,
                    "velocity": 0.4015748031496063,
                    "duration": 0.2399998500000038
                },
                {
                    "name": "D5",
                    "midi": 74,
                    "time": 288.53315299999645,
                    "velocity": 0.3937007874015748,
                    "duration": 0.2399998500000038
                },
                {
                    "name": "G4",
                    "midi": 67,
                    "time": 288.53315299999645,
                    "velocity": 0.33070866141732286,
                    "duration": 0.26666649999998526
                },
                {
                    "name": "F4",
                    "midi": 65,
                    "time": 288.53315299999645,
                    "velocity": 0.33070866141732286,
                    "duration": 0.2399998500000038
                },
                {
                    "name": "C5",
                    "midi": 72,
                    "time": 288.79981949999643,
                    "velocity": 0.4094488188976378,
                    "duration": 0.2399998500000038
                },
                {
                    "name": "G4",
                    "midi": 67,
                    "time": 288.79981949999643,
                    "velocity": 0.3464566929133858,
                    "duration": 0.26666649999998526
                },
                {
                    "name": "E4",
                    "midi": 64,
                    "time": 288.79981949999643,
                    "velocity": 0.3464566929133858,
                    "duration": 0.2399998500000038
                },
                {
                    "name": "D4",
                    "midi": 62,
                    "time": 289.0664859999964,
                    "velocity": 0.41732283464566927,
                    "duration": 0.2399998500000038
                },
                {
                    "name": "C5",
                    "midi": 72,
                    "time": 289.0664859999964,
                    "velocity": 0.49606299212598426,
                    "duration": 0.2399998500000038
                },
                {
                    "name": "G4",
                    "midi": 67,
                    "time": 289.0664859999964,
                    "velocity": 0.41732283464566927,
                    "duration": 0.2399998500000038
                },
                {
                    "name": "G4",
                    "midi": 67,
                    "time": 289.3331524999964,
                    "velocity": 0.3543307086614173,
                    "duration": 0.2399998500000038
                },
                {
                    "name": "D4",
                    "midi": 62,
                    "time": 289.3331524999964,
                    "velocity": 0.3543307086614173,
                    "duration": 0.2399998500000038
                },
                {
                    "name": "B4",
                    "midi": 71,
                    "time": 289.3331524999964,
                    "velocity": 0.4251968503937008,
                    "duration": 0.2399998500000038
                },
                {
                    "name": "D4",
                    "midi": 62,
                    "time": 289.5998189999964,
                    "velocity": 0.3700787401574803,
                    "duration": 0.2399998500000038
                },
                {
                    "name": "C5",
                    "midi": 72,
                    "time": 289.5998189999964,
                    "velocity": 0.4409448818897638,
                    "duration": 0.2399998500000038
                },
                {
                    "name": "F#4",
                    "midi": 66,
                    "time": 289.5998189999964,
                    "velocity": 0.3700787401574803,
                    "duration": 0.2399998500000038
                },
                {
                    "name": "F#4",
                    "midi": 66,
                    "time": 289.8664854999964,
                    "velocity": 0.3543307086614173,
                    "duration": 0.2399998500000038
                },
                {
                    "name": "B4",
                    "midi": 71,
                    "time": 289.8664854999964,
                    "velocity": 0.41732283464566927,
                    "duration": 0.2399998500000038
                },
                {
                    "name": "D4",
                    "midi": 62,
                    "time": 289.8664854999964,
                    "velocity": 0.3543307086614173,
                    "duration": 0.2399998500000038
                },
                {
                    "name": "D4",
                    "midi": 62,
                    "time": 290.13315199999636,
                    "velocity": 0.2992125984251969,
                    "duration": 1.066665999999998
                },
                {
                    "name": "B3",
                    "midi": 59,
                    "time": 290.13315199999636,
                    "velocity": 0.3543307086614173,
                    "duration": 1.066665999999998
                },
                {
                    "name": "G4",
                    "midi": 67,
                    "time": 290.13315199999636,
                    "velocity": 0.41732283464566927,
                    "duration": 1.066665999999998
                },
                {
                    "name": "A#3",
                    "midi": 58,
                    "time": 291.19981799999636,
                    "velocity": 0.5590551181102362,
                    "duration": 0.13333325000002105
                },
                {
                    "name": "A3",
                    "midi": 57,
                    "time": 291.3331512499964,
                    "velocity": 0.47244094488188976,
                    "duration": 0.13333325000002105
                },
                {
                    "name": "G3",
                    "midi": 55,
                    "time": 291.4664844999964,
                    "velocity": 0.48031496062992124,
                    "duration": 0.13333325000002105
                },
                {
                    "name": "A3",
                    "midi": 57,
                    "time": 291.5998177499964,
                    "velocity": 0.48031496062992124,
                    "duration": 0.13333325000002105
                },
                {
                    "name": "A#3",
                    "midi": 58,
                    "time": 291.73315099999644,
                    "velocity": 0.5590551181102362,
                    "duration": 0.13333325000002105
                },
                {
                    "name": "G3",
                    "midi": 55,
                    "time": 291.86648424999646,
                    "velocity": 0.4881889763779528,
                    "duration": 0.13333325000002105
                },
                {
                    "name": "A#3",
                    "midi": 58,
                    "time": 291.9998174999965,
                    "velocity": 0.4881889763779528,
                    "duration": 0.13333325000002105
                },
                {
                    "name": "G3",
                    "midi": 55,
                    "time": 292.1331507499965,
                    "velocity": 0.4881889763779528,
                    "duration": 0.1222221458333479
                },
                {
                    "name": "G4",
                    "midi": 67,
                    "time": 292.2664839999965,
                    "velocity": 0.6456692913385826,
                    "duration": 0.2555553958333121
                },
                {
                    "name": "G3",
                    "midi": 55,
                    "time": 292.5331504999965,
                    "velocity": 0.5354330708661418,
                    "duration": 0.13333325000002105
                },
                {
                    "name": "G3",
                    "midi": 55,
                    "time": 292.79981699999655,
                    "velocity": 0.5354330708661418,
                    "duration": 0.13333325000002105
                },
                {
                    "name": "G3",
                    "midi": 55,
                    "time": 293.0664834999966,
                    "velocity": 0.5354330708661418,
                    "duration": 0.13333325000002105
                },
                {
                    "name": "C4",
                    "midi": 60,
                    "time": 293.33314999999664,
                    "velocity": 0.5039370078740157,
                    "duration": 0.2399998500000038
                },
                {
                    "name": "G4",
                    "midi": 67,
                    "time": 293.33314999999664,
                    "velocity": 0.5984251968503937,
                    "duration": 0.26666649999998526
                },
                {
                    "name": "D#4",
                    "midi": 63,
                    "time": 293.33314999999664,
                    "velocity": 0.5039370078740157,
                    "duration": 0.26666649999998526
                },
                {
                    "name": "G3",
                    "midi": 55,
                    "time": 293.5998164999966,
                    "velocity": 0.4881889763779528,
                    "duration": 0.13333325000002105
                },
                {
                    "name": "G3",
                    "midi": 55,
                    "time": 293.86648299999666,
                    "velocity": 0.4881889763779528,
                    "duration": 0.13333325000002105
                },
                {
                    "name": "G3",
                    "midi": 55,
                    "time": 294.1331494999967,
                    "velocity": 0.4881889763779528,
                    "duration": 0.13333325000002105
                },
                {
                    "name": "G4",
                    "midi": 67,
                    "time": 294.39981599999675,
                    "velocity": 0.5984251968503937,
                    "duration": 0.26666649999998526
                },
                {
                    "name": "A#3",
                    "midi": 58,
                    "time": 294.39981599999675,
                    "velocity": 0.5039370078740157,
                    "duration": 0.26666649999998526
                },
                {
                    "name": "D4",
                    "midi": 62,
                    "time": 294.39981599999675,
                    "velocity": 0.5039370078740157,
                    "duration": 0.26666649999998526
                },
                {
                    "name": "G3",
                    "midi": 55,
                    "time": 294.66648249999673,
                    "velocity": 0.48031496062992124,
                    "duration": 0.13333325000002105
                },
                {
                    "name": "G3",
                    "midi": 55,
                    "time": 294.9331489999968,
                    "velocity": 0.48031496062992124,
                    "duration": 0.13333325000002105
                },
                {
                    "name": "G3",
                    "midi": 55,
                    "time": 295.1998154999968,
                    "velocity": 0.48031496062992124,
                    "duration": 0.13333325000002105
                },
                {
                    "name": "D4",
                    "midi": 62,
                    "time": 295.46648199999686,
                    "velocity": 0.4409448818897638,
                    "duration": 0.13333325000002105
                },
                {
                    "name": "D5",
                    "midi": 74,
                    "time": 295.46648199999686,
                    "velocity": 0.6377952755905512,
                    "duration": 0.13333325000002105
                },
                {
                    "name": "G#4",
                    "midi": 68,
                    "time": 295.46648199999686,
                    "velocity": 0.4409448818897638,
                    "duration": 0.13333325000002105
                },
                {
                    "name": "C#5",
                    "midi": 73,
                    "time": 295.5998152499969,
                    "velocity": 0.5433070866141733,
                    "duration": 0.13333325000002105
                },
                {
                    "name": "B4",
                    "midi": 71,
                    "time": 295.7331484999969,
                    "velocity": 0.5669291338582677,
                    "duration": 0.13333325000002105
                },
                {
                    "name": "D4",
                    "midi": 62,
                    "time": 295.7331484999969,
                    "velocity": 0.44881889763779526,
                    "duration": 0.13333325000002105
                },
                {
                    "name": "G#4",
                    "midi": 68,
                    "time": 295.7331484999969,
                    "velocity": 0.44881889763779526,
                    "duration": 0.13333325000002105
                },
                {
                    "name": "C#5",
                    "midi": 73,
                    "time": 295.8664817499969,
                    "velocity": 0.5748031496062992,
                    "duration": 0.13333325000002105
                },
                {
                    "name": "G#4",
                    "midi": 68,
                    "time": 295.99981499999694,
                    "velocity": 0.4645669291338583,
                    "duration": 0.13333325000002105
                },
                {
                    "name": "F4",
                    "midi": 65,
                    "time": 295.99981499999694,
                    "velocity": 0.4645669291338583,
                    "duration": 0.13333325000002105
                },
                {
                    "name": "D5",
                    "midi": 74,
                    "time": 295.99981499999694,
                    "velocity": 0.6771653543307087,
                    "duration": 0.13333325000002105
                },
                {
                    "name": "B4",
                    "midi": 71,
                    "time": 296.13314824999696,
                    "velocity": 0.6062992125984252,
                    "duration": 0.13333325000002105
                },
                {
                    "name": "D5",
                    "midi": 74,
                    "time": 296.266481499997,
                    "velocity": 0.6141732283464567,
                    "duration": 0.13333325000002105
                },
                {
                    "name": "G#4",
                    "midi": 68,
                    "time": 296.266481499997,
                    "velocity": 0.4881889763779528,
                    "duration": 0.13333325000002105
                },
                {
                    "name": "F4",
                    "midi": 65,
                    "time": 296.266481499997,
                    "velocity": 0.4881889763779528,
                    "duration": 0.13333325000002105
                },
                {
                    "name": "B4",
                    "midi": 71,
                    "time": 296.399814749997,
                    "velocity": 0.6299212598425197,
                    "duration": 0.13333325000002105
                },
                {
                    "name": "F#5",
                    "midi": 78,
                    "time": 296.533147999997,
                    "velocity": 0.7480314960629921,
                    "duration": 0.26666649999998526
                },
                {
                    "name": "F#4",
                    "midi": 66,
                    "time": 296.533147999997,
                    "velocity": 0.6377952755905512,
                    "duration": 0.26666649999998526
                },
                {
                    "name": "B4",
                    "midi": 71,
                    "time": 296.533147999997,
                    "velocity": 0.6377952755905512,
                    "duration": 0.26666649999998526
                },
                {
                    "name": "D5",
                    "midi": 74,
                    "time": 296.533147999997,
                    "velocity": 0.6377952755905512,
                    "duration": 0.26666649999998526
                },
                {
                    "name": "F#4",
                    "midi": 66,
                    "time": 296.799814499997,
                    "velocity": 0.5590551181102362,
                    "duration": 0.13333325000002105
                },
                {
                    "name": "D4",
                    "midi": 62,
                    "time": 296.799814499997,
                    "velocity": 0.4645669291338583,
                    "duration": 0.13333325000002105
                },
                {
                    "name": "D4",
                    "midi": 62,
                    "time": 297.06648099999705,
                    "velocity": 0.4645669291338583,
                    "duration": 0.13333325000002105
                },
                {
                    "name": "F#4",
                    "midi": 66,
                    "time": 297.06648099999705,
                    "velocity": 0.5590551181102362,
                    "duration": 0.13333325000002105
                },
                {
                    "name": "F#4",
                    "midi": 66,
                    "time": 297.3331474999971,
                    "velocity": 0.5590551181102362,
                    "duration": 0.13333325000002105
                },
                {
                    "name": "D4",
                    "midi": 62,
                    "time": 297.3331474999971,
                    "velocity": 0.4645669291338583,
                    "duration": 0.13333325000002105
                },
                {
                    "name": "G4",
                    "midi": 67,
                    "time": 297.59981399999714,
                    "velocity": 0.47244094488188976,
                    "duration": 0.13333325000002105
                },
                {
                    "name": "C#4",
                    "midi": 61,
                    "time": 297.59981399999714,
                    "velocity": 0.3700787401574803,
                    "duration": 0.13333325000002105
                },
                {
                    "name": "F#4",
                    "midi": 66,
                    "time": 297.73314724999716,
                    "velocity": 0.3937007874015748,
                    "duration": 0.13333325000002105
                },
                {
                    "name": "A4",
                    "midi": 69,
                    "time": 297.8664804999972,
                    "velocity": 0.4015748031496063,
                    "duration": 0.13333325000002105
                },
                {
                    "name": "C#4",
                    "midi": 61,
                    "time": 297.8664804999972,
                    "velocity": 0.3700787401574803,
                    "duration": 0.13333325000002105
                },
                {
                    "name": "G4",
                    "midi": 67,
                    "time": 297.9998137499972,
                    "velocity": 0.4015748031496063,
                    "duration": 0.13333325000002105
                },
                {
                    "name": "F#4",
                    "midi": 66,
                    "time": 298.1331469999972,
                    "velocity": 0.47244094488188976,
                    "duration": 0.13333325000002105
                },
                {
                    "name": "E4",
                    "midi": 64,
                    "time": 298.1331469999972,
                    "velocity": 0.3700787401574803,
                    "duration": 0.13333325000002105
                },
                {
                    "name": "F#4",
                    "midi": 66,
                    "time": 298.39981349999726,
                    "velocity": 0.4094488188976378,
                    "duration": 0.13333325000002105
                },
                {
                    "name": "E4",
                    "midi": 64,
                    "time": 298.39981349999726,
                    "velocity": 0.3700787401574803,
                    "duration": 0.13333325000002105
                },
                {
                    "name": "B4",
                    "midi": 71,
                    "time": 298.6664799999973,
                    "velocity": 0.5748031496062992,
                    "duration": 0.13333325000002105
                },
                {
                    "name": "B3",
                    "midi": 59,
                    "time": 298.6664799999973,
                    "velocity": 0.4881889763779528,
                    "duration": 0.13333325000002105
                },
                {
                    "name": "F#4",
                    "midi": 66,
                    "time": 298.6664799999973,
                    "velocity": 0.4881889763779528,
                    "duration": 0.13333325000002105
                },
                {
                    "name": "D4",
                    "midi": 62,
                    "time": 298.6664799999973,
                    "velocity": 0.4881889763779528,
                    "duration": 0.13333325000002105
                },
                {
                    "name": "D4",
                    "midi": 62,
                    "time": 298.93314649999735,
                    "velocity": 0.49606299212598426,
                    "duration": 0.13333325000002105
                },
                {
                    "name": "D4",
                    "midi": 62,
                    "time": 299.1998129999974,
                    "velocity": 0.49606299212598426,
                    "duration": 0.13333325000002105
                },
                {
                    "name": "A3",
                    "midi": 57,
                    "time": 299.1998129999974,
                    "velocity": 0.49606299212598426,
                    "duration": 0.13333325000002105
                },
                {
                    "name": "C4",
                    "midi": 60,
                    "time": 299.1998129999974,
                    "velocity": 0.49606299212598426,
                    "duration": 0.13333325000002105
                },
                {
                    "name": "F#4",
                    "midi": 66,
                    "time": 299.1998129999974,
                    "velocity": 0.5905511811023622,
                    "duration": 0.13333325000002105
                },
                {
                    "name": "D4",
                    "midi": 62,
                    "time": 299.46647949999743,
                    "velocity": 0.6141732283464567,
                    "duration": 0.13333325000002105
                },
                {
                    "name": "D4",
                    "midi": 62,
                    "time": 299.7331459999975,
                    "velocity": 0.5433070866141733,
                    "duration": 0.13333325000002105
                },
                {
                    "name": "A#3",
                    "midi": 58,
                    "time": 299.7331459999975,
                    "velocity": 0.5433070866141733,
                    "duration": 0.13333325000002105
                },
                {
                    "name": "G4",
                    "midi": 67,
                    "time": 299.7331459999975,
                    "velocity": 0.6377952755905512,
                    "duration": 0.13333325000002105
                },
                {
                    "name": "A3",
                    "midi": 57,
                    "time": 299.8664792499975,
                    "velocity": 0.5433070866141733,
                    "duration": 0.13333325000002105
                },
                {
                    "name": "G3",
                    "midi": 55,
                    "time": 299.9998124999975,
                    "velocity": 0.5511811023622047,
                    "duration": 0.13333325000002105
                },
                {
                    "name": "A3",
                    "midi": 57,
                    "time": 300.13314574999754,
                    "velocity": 0.5511811023622047,
                    "duration": 0.13333325000002105
                },
                {
                    "name": "A#3",
                    "midi": 58,
                    "time": 300.26647899999756,
                    "velocity": 0.6377952755905512,
                    "duration": 0.13333325000002105
                },
                {
                    "name": "G3",
                    "midi": 55,
                    "time": 300.3998122499976,
                    "velocity": 0.5590551181102362,
                    "duration": 0.13333325000002105
                },
                {
                    "name": "A#3",
                    "midi": 58,
                    "time": 300.5331454999976,
                    "velocity": 0.5590551181102362,
                    "duration": 0.13333325000002105
                },
                {
                    "name": "G3",
                    "midi": 55,
                    "time": 300.6664787499976,
                    "velocity": 0.5590551181102362,
                    "duration": 0.1222221458333479
                },
                {
                    "name": "G4",
                    "midi": 67,
                    "time": 300.79981199999764,
                    "velocity": 0.6456692913385826,
                    "duration": 0.2555553958333121
                },
                {
                    "name": "G3",
                    "midi": 55,
                    "time": 301.06647849999763,
                    "velocity": 0.5354330708661418,
                    "duration": 0.13333325000002105
                },
                {
                    "name": "G3",
                    "midi": 55,
                    "time": 301.33314499999767,
                    "velocity": 0.5354330708661418,
                    "duration": 0.13333325000002105
                },
                {
                    "name": "G3",
                    "midi": 55,
                    "time": 301.5998114999977,
                    "velocity": 0.5354330708661418,
                    "duration": 0.13333325000002105
                },
                {
                    "name": "C4",
                    "midi": 60,
                    "time": 301.86647799999776,
                    "velocity": 0.5275590551181102,
                    "duration": 0.13333325000002105
                },
                {
                    "name": "G4",
                    "midi": 67,
                    "time": 301.86647799999776,
                    "velocity": 0.6220472440944882,
                    "duration": 0.13333325000002105
                },
                {
                    "name": "D#4",
                    "midi": 63,
                    "time": 301.86647799999776,
                    "velocity": 0.5275590551181102,
                    "duration": 0.13333325000002105
                },
                {
                    "name": "G3",
                    "midi": 55,
                    "time": 302.1331444999978,
                    "velocity": 0.4881889763779528,
                    "duration": 0.13333325000002105
                },
                {
                    "name": "G3",
                    "midi": 55,
                    "time": 302.39981099999784,
                    "velocity": 0.4881889763779528,
                    "duration": 0.13333325000002105
                },
                {
                    "name": "G3",
                    "midi": 55,
                    "time": 302.6664774999979,
                    "velocity": 0.4881889763779528,
                    "duration": 0.13333325000002105
                },
                {
                    "name": "A#3",
                    "midi": 58,
                    "time": 302.9331439999979,
                    "velocity": 0.5039370078740157,
                    "duration": 0.26666649999998526
                },
                {
                    "name": "D4",
                    "midi": 62,
                    "time": 302.9331439999979,
                    "velocity": 0.5039370078740157,
                    "duration": 0.26666649999998526
                },
                {
                    "name": "G4",
                    "midi": 67,
                    "time": 302.9331439999979,
                    "velocity": 0.5984251968503937,
                    "duration": 0.26666649999998526
                },
                {
                    "name": "G3",
                    "midi": 55,
                    "time": 303.1998104999979,
                    "velocity": 0.48031496062992124,
                    "duration": 0.13333325000002105
                },
                {
                    "name": "G3",
                    "midi": 55,
                    "time": 303.46647699999795,
                    "velocity": 0.48031496062992124,
                    "duration": 0.13333325000002105
                },
                {
                    "name": "G3",
                    "midi": 55,
                    "time": 303.733143499998,
                    "velocity": 0.48031496062992124,
                    "duration": 0.13333325000002105
                },
                {
                    "name": "F5",
                    "midi": 77,
                    "time": 303.99980999999804,
                    "velocity": 0.7007874015748031,
                    "duration": 0.13333325000002105
                },
                {
                    "name": "F4",
                    "midi": 65,
                    "time": 303.99980999999804,
                    "velocity": 0.48031496062992124,
                    "duration": 0.13333325000002105
                },
                {
                    "name": "B4",
                    "midi": 71,
                    "time": 303.99980999999804,
                    "velocity": 0.48031496062992124,
                    "duration": 0.13333325000002105
                },
                {
                    "name": "E5",
                    "midi": 76,
                    "time": 304.13314324999806,
                    "velocity": 0.5905511811023622,
                    "duration": 0.13333325000002105
                },
                {
                    "name": "F4",
                    "midi": 65,
                    "time": 304.2664764999981,
                    "velocity": 0.4881889763779528,
                    "duration": 0.13333325000002105
                },
                {
                    "name": "B4",
                    "midi": 71,
                    "time": 304.2664764999981,
                    "velocity": 0.4881889763779528,
                    "duration": 0.13333325000002105
                },
                {
                    "name": "D5",
                    "midi": 74,
                    "time": 304.2664764999981,
                    "velocity": 0.6220472440944882,
                    "duration": 0.13333325000002105
                },
                {
                    "name": "E5",
                    "midi": 76,
                    "time": 304.3998097499981,
                    "velocity": 0.6299212598425197,
                    "duration": 0.13333325000002105
                },
                {
                    "name": "B4",
                    "midi": 71,
                    "time": 304.5331429999981,
                    "velocity": 0.5039370078740157,
                    "duration": 0.13333325000002105
                },
                {
                    "name": "F5",
                    "midi": 77,
                    "time": 304.5331429999981,
                    "velocity": 0.7401574803149606,
                    "duration": 0.13333325000002105
                },
                {
                    "name": "G#4",
                    "midi": 68,
                    "time": 304.5331429999981,
                    "velocity": 0.5039370078740157,
                    "duration": 0.13333325000002105
                },
                {
                    "name": "D5",
                    "midi": 74,
                    "time": 304.66647624999814,
                    "velocity": 0.6614173228346457,
                    "duration": 0.13333325000002105
                },
                {
                    "name": "F5",
                    "midi": 77,
                    "time": 304.79980949999816,
                    "velocity": 0.6692913385826772,
                    "duration": 0.13333325000002105
                },
                {
                    "name": "B4",
                    "midi": 71,
                    "time": 304.79980949999816,
                    "velocity": 0.5354330708661418,
                    "duration": 0.13333325000002105
                },
                {
                    "name": "G#4",
                    "midi": 68,
                    "time": 304.79980949999816,
                    "velocity": 0.5354330708661418,
                    "duration": 0.13333325000002105
                },
                {
                    "name": "D5",
                    "midi": 74,
                    "time": 304.9331427499982,
                    "velocity": 0.6929133858267716,
                    "duration": 0.13333325000002105
                },
                {
                    "name": "A4",
                    "midi": 69,
                    "time": 305.0664759999982,
                    "velocity": 0.6377952755905512,
                    "duration": 0.26666649999998526
                },
                {
                    "name": "A5",
                    "midi": 81,
                    "time": 305.0664759999982,
                    "velocity": 0.7480314960629921,
                    "duration": 0.26666649999998526
                },
                {
                    "name": "D5",
                    "midi": 74,
                    "time": 305.0664759999982,
                    "velocity": 0.6377952755905512,
                    "duration": 0.26666649999998526
                },
                {
                    "name": "F5",
                    "midi": 77,
                    "time": 305.0664759999982,
                    "velocity": 0.6377952755905512,
                    "duration": 0.26666649999998526
                },
                {
                    "name": "A4",
                    "midi": 69,
                    "time": 305.3331424999982,
                    "velocity": 0.6141732283464567,
                    "duration": 0.13333325000002105
                },
                {
                    "name": "F4",
                    "midi": 65,
                    "time": 305.3331424999982,
                    "velocity": 0.5039370078740157,
                    "duration": 0.13333325000002105
                },
                {
                    "name": "A4",
                    "midi": 69,
                    "time": 305.59980899999823,
                    "velocity": 0.6141732283464567,
                    "duration": 0.13333325000002105
                },
                {
                    "name": "F4",
                    "midi": 65,
                    "time": 305.59980899999823,
                    "velocity": 0.5039370078740157,
                    "duration": 0.13333325000002105
                },
                {
                    "name": "A4",
                    "midi": 69,
                    "time": 305.8664754999983,
                    "velocity": 0.6141732283464567,
                    "duration": 0.13333325000002105
                },
                {
                    "name": "F4",
                    "midi": 65,
                    "time": 305.8664754999983,
                    "velocity": 0.5039370078740157,
                    "duration": 0.13333325000002105
                },
                {
                    "name": "A#4",
                    "midi": 70,
                    "time": 306.1331419999983,
                    "velocity": 0.47244094488188976,
                    "duration": 0.13333325000002105
                },
                {
                    "name": "E4",
                    "midi": 64,
                    "time": 306.1331419999983,
                    "velocity": 0.3700787401574803,
                    "duration": 0.13333325000002105
                },
                {
                    "name": "A4",
                    "midi": 69,
                    "time": 306.26647524999834,
                    "velocity": 0.4015748031496063,
                    "duration": 0.13333325000002105
                },
                {
                    "name": "E4",
                    "midi": 64,
                    "time": 306.39980849999836,
                    "velocity": 0.3700787401574803,
                    "duration": 0.13333325000002105
                },
                {
                    "name": "C5",
                    "midi": 72,
                    "time": 306.39980849999836,
                    "velocity": 0.4015748031496063,
                    "duration": 0.13333325000002105
                },
                {
                    "name": "A#4",
                    "midi": 70,
                    "time": 306.5331417499984,
                    "velocity": 0.4015748031496063,
                    "duration": 0.13333325000002105
                },
                {
                    "name": "G4",
                    "midi": 67,
                    "time": 306.6664749999984,
                    "velocity": 0.3700787401574803,
                    "duration": 0.13333325000002105
                },
                {
                    "name": "A4",
                    "midi": 69,
                    "time": 306.6664749999984,
                    "velocity": 0.47244094488188976,
                    "duration": 0.13333325000002105
                },
                {
                    "name": "G4",
                    "midi": 67,
                    "time": 306.93314149999844,
                    "velocity": 0.3700787401574803,
                    "duration": 0.13333325000002105
                },
                {
                    "name": "A4",
                    "midi": 69,
                    "time": 306.93314149999844,
                    "velocity": 0.4094488188976378,
                    "duration": 0.13333325000002105
                },
                {
                    "name": "D5",
                    "midi": 74,
                    "time": 307.1998079999985,
                    "velocity": 0.5748031496062992,
                    "duration": 0.26666649999998526
                },
                {
                    "name": "A4",
                    "midi": 69,
                    "time": 307.1998079999985,
                    "velocity": 0.4881889763779528,
                    "duration": 0.26666649999998526
                },
                {
                    "name": "F4",
                    "midi": 65,
                    "time": 307.1998079999985,
                    "velocity": 0.4881889763779528,
                    "duration": 0.26666649999998526
                },
                {
                    "name": "D4",
                    "midi": 62,
                    "time": 307.1998079999985,
                    "velocity": 0.4881889763779528,
                    "duration": 0.26444427916663926
                },
                {
                    "name": "D4",
                    "midi": 62,
                    "time": 307.46647449999847,
                    "velocity": 0.49606299212598426,
                    "duration": 0.13333325000002105
                },
                {
                    "name": "D4",
                    "midi": 62,
                    "time": 307.7331409999985,
                    "velocity": 0.5905511811023622,
                    "duration": 0.13333325000002105
                },
                {
                    "name": "D4",
                    "midi": 62,
                    "time": 307.99980749999855,
                    "velocity": 0.6141732283464567,
                    "duration": 0.13333325000002105
                },
                {
                    "name": "F4",
                    "midi": 65,
                    "time": 308.2664739999986,
                    "velocity": 0.3700787401574803,
                    "duration": 0.522221895833411
                },
                {
                    "name": "A4",
                    "midi": 69,
                    "time": 308.2664739999986,
                    "velocity": 0.47244094488188976,
                    "duration": 0.13333325000002105
                },
                {
                    "name": "G#4",
                    "midi": 68,
                    "time": 308.3998072499986,
                    "velocity": 0.4015748031496063,
                    "duration": 0.13333325000002105
                },
                {
                    "name": "A#4",
                    "midi": 70,
                    "time": 308.53314049999864,
                    "velocity": 0.41732283464566927,
                    "duration": 0.13333325000002105
                },
                {
                    "name": "A4",
                    "midi": 69,
                    "time": 308.66647374999866,
                    "velocity": 0.4015748031496063,
                    "duration": 0.1222221458333479
                },
                {
                    "name": "F4",
                    "midi": 65,
                    "time": 308.7998069999987,
                    "velocity": 0.3700787401574803,
                    "duration": 0.13333325000002105
                },
                {
                    "name": "A4",
                    "midi": 69,
                    "time": 308.7998069999987,
                    "velocity": 0.47244094488188976,
                    "duration": 0.13333325000002105
                },
                {
                    "name": "A4",
                    "midi": 69,
                    "time": 309.0664734999987,
                    "velocity": 0.4094488188976378,
                    "duration": 0.13333325000002105
                },
                {
                    "name": "F4",
                    "midi": 65,
                    "time": 309.0664734999987,
                    "velocity": 0.3700787401574803,
                    "duration": 0.13333325000002105
                },
                {
                    "name": "E4",
                    "midi": 64,
                    "time": 309.33313999999876,
                    "velocity": 0.4645669291338583,
                    "duration": 0.5222218958333542
                },
                {
                    "name": "C5",
                    "midi": 72,
                    "time": 309.33313999999876,
                    "velocity": 0.5511811023622047,
                    "duration": 0.26666649999998526
                },
                {
                    "name": "G4",
                    "midi": 67,
                    "time": 309.59980649999875,
                    "velocity": 0.41732283464566927,
                    "duration": 0.13333325000002105
                },
                {
                    "name": "E4",
                    "midi": 64,
                    "time": 309.8664729999988,
                    "velocity": 0.4409448818897638,
                    "duration": 0.13333325000002105
                },
                {
                    "name": "G4",
                    "midi": 67,
                    "time": 309.8664729999988,
                    "velocity": 0.5196850393700787,
                    "duration": 0.13333325000002105
                },
                {
                    "name": "E4",
                    "midi": 64,
                    "time": 310.13313949999883,
                    "velocity": 0.4094488188976378,
                    "duration": 0.13333325000002105
                },
                {
                    "name": "G4",
                    "midi": 67,
                    "time": 310.13313949999883,
                    "velocity": 0.4881889763779528,
                    "duration": 0.13333325000002105
                },
                {
                    "name": "G4",
                    "midi": 67,
                    "time": 310.3998059999989,
                    "velocity": 0.5433070866141733,
                    "duration": 0.522221895833411
                },
                {
                    "name": "A#4",
                    "midi": 70,
                    "time": 310.3998059999989,
                    "velocity": 0.5433070866141733,
                    "duration": 0.13333325000002105
                },
                {
                    "name": "A4",
                    "midi": 69,
                    "time": 310.5331392499989,
                    "velocity": 0.44881889763779526,
                    "duration": 0.13333325000002105
                },
                {
                    "name": "C5",
                    "midi": 72,
                    "time": 310.6664724999989,
                    "velocity": 0.44881889763779526,
                    "duration": 0.13333325000002105
                },
                {
                    "name": "A#4",
                    "midi": 70,
                    "time": 310.79980574999894,
                    "velocity": 0.44881889763779526,
                    "duration": 0.1222221458333479
                },
                {
                    "name": "A#4",
                    "midi": 70,
                    "time": 310.93313899999896,
                    "velocity": 0.5433070866141733,
                    "duration": 0.13333325000002105
                },
                {
                    "name": "G4",
                    "midi": 67,
                    "time": 310.93313899999896,
                    "velocity": 0.5433070866141733,
                    "duration": 0.13333325000002105
                },
                {
                    "name": "G4",
                    "midi": 67,
                    "time": 311.199805499999,
                    "velocity": 0.3858267716535433,
                    "duration": 0.13333325000002105
                },
                {
                    "name": "A#4",
                    "midi": 70,
                    "time": 311.199805499999,
                    "velocity": 0.4251968503937008,
                    "duration": 0.13333325000002105
                },
                {
                    "name": "D5",
                    "midi": 74,
                    "time": 311.46647199999904,
                    "velocity": 0.5748031496062992,
                    "duration": 0.26666649999998526
                },
                {
                    "name": "F#4",
                    "midi": 66,
                    "time": 311.46647199999904,
                    "velocity": 0.48031496062992124,
                    "duration": 0.5222218958333542
                },
                {
                    "name": "A4",
                    "midi": 69,
                    "time": 311.73313849999903,
                    "velocity": 0.4330708661417323,
                    "duration": 0.13333325000002105
                },
                {
                    "name": "F#4",
                    "midi": 66,
                    "time": 311.99980499999907,
                    "velocity": 0.4566929133858268,
                    "duration": 0.13333325000002105
                },
                {
                    "name": "A4",
                    "midi": 69,
                    "time": 311.99980499999907,
                    "velocity": 0.5433070866141733,
                    "duration": 0.13333325000002105
                },
                {
                    "name": "F#4",
                    "midi": 66,
                    "time": 312.2664714999991,
                    "velocity": 0.4251968503937008,
                    "duration": 0.13333325000002105
                },
                {
                    "name": "A4",
                    "midi": 69,
                    "time": 312.2664714999991,
                    "velocity": 0.5118110236220472,
                    "duration": 0.13333325000002105
                },
                {
                    "name": "D5",
                    "midi": 74,
                    "time": 312.53313799999916,
                    "velocity": 0.5669291338582677,
                    "duration": 0.13333325000002105
                },
                {
                    "name": "A#4",
                    "midi": 70,
                    "time": 312.53313799999916,
                    "velocity": 0.5669291338582677,
                    "duration": 0.522221895833411
                },
                {
                    "name": "C#5",
                    "midi": 73,
                    "time": 312.6664712499992,
                    "velocity": 0.4645669291338583,
                    "duration": 0.13333325000002105
                },
                {
                    "name": "E5",
                    "midi": 76,
                    "time": 312.7998044999992,
                    "velocity": 0.4881889763779528,
                    "duration": 0.13333325000002105
                },
                {
                    "name": "D5",
                    "midi": 74,
                    "time": 312.9331377499992,
                    "velocity": 0.48031496062992124,
                    "duration": 0.1222221458333479
                },
                {
                    "name": "D5",
                    "midi": 74,
                    "time": 313.06647099999924,
                    "velocity": 0.5669291338582677,
                    "duration": 0.13333325000002105
                },
                {
                    "name": "A#4",
                    "midi": 70,
                    "time": 313.06647099999924,
                    "velocity": 0.5669291338582677,
                    "duration": 0.13333325000002105
                },
                {
                    "name": "A#4",
                    "midi": 70,
                    "time": 313.3331374999993,
                    "velocity": 0.4015748031496063,
                    "duration": 0.13333325000002105
                },
                {
                    "name": "D5",
                    "midi": 74,
                    "time": 313.3331374999993,
                    "velocity": 0.4409448818897638,
                    "duration": 0.13333325000002105
                },
                {
                    "name": "A4",
                    "midi": 69,
                    "time": 313.5998039999993,
                    "velocity": 0.5039370078740157,
                    "duration": 0.5222218958333542
                },
                {
                    "name": "F5",
                    "midi": 77,
                    "time": 313.5998039999993,
                    "velocity": 0.5984251968503937,
                    "duration": 0.26666649999998526
                },
                {
                    "name": "C5",
                    "midi": 72,
                    "time": 313.8664704999993,
                    "velocity": 0.44881889763779526,
                    "duration": 0.13333325000002105
                },
                {
                    "name": "C5",
                    "midi": 72,
                    "time": 314.13313699999935,
                    "velocity": 0.5669291338582677,
                    "duration": 0.13333325000002105
                },
                {
                    "name": "A4",
                    "midi": 69,
                    "time": 314.13313699999935,
                    "velocity": 0.47244094488188976,
                    "duration": 0.13333325000002105
                },
                {
                    "name": "C5",
                    "midi": 72,
                    "time": 314.3998034999994,
                    "velocity": 0.5354330708661418,
                    "duration": 0.13333325000002105
                },
                {
                    "name": "A4",
                    "midi": 69,
                    "time": 314.3998034999994,
                    "velocity": 0.4409448818897638,
                    "duration": 0.13333325000002105
                },
                {
                    "name": "G4",
                    "midi": 67,
                    "time": 314.66646999999944,
                    "velocity": 0.5039370078740157,
                    "duration": 0.5222218958333542
                },
                {
                    "name": "G5",
                    "midi": 79,
                    "time": 314.66646999999944,
                    "velocity": 0.6220472440944882,
                    "duration": 0.26666649999998526
                },
                {
                    "name": "E5",
                    "midi": 76,
                    "time": 314.9331364999994,
                    "velocity": 0.49606299212598426,
                    "duration": 0.13333325000002105
                },
                {
                    "name": "C5",
                    "midi": 72,
                    "time": 315.19980299999946,
                    "velocity": 0.5669291338582677,
                    "duration": 0.13333325000002105
                },
                {
                    "name": "G4",
                    "midi": 67,
                    "time": 315.19980299999946,
                    "velocity": 0.47244094488188976,
                    "duration": 0.13333325000002105
                },
                {
                    "name": "A#4",
                    "midi": 70,
                    "time": 315.4664694999995,
                    "velocity": 0.5354330708661418,
                    "duration": 0.13333325000002105
                },
                {
                    "name": "G4",
                    "midi": 67,
                    "time": 315.4664694999995,
                    "velocity": 0.4409448818897638,
                    "duration": 0.13333325000002105
                },
                {
                    "name": "A#4",
                    "midi": 70,
                    "time": 315.73313599999955,
                    "velocity": 0.5354330708661418,
                    "duration": 0.13333325000002105
                },
                {
                    "name": "F4",
                    "midi": 65,
                    "time": 315.73313599999955,
                    "velocity": 0.5354330708661418,
                    "duration": 0.522221895833411
                },
                {
                    "name": "A4",
                    "midi": 69,
                    "time": 315.86646924999957,
                    "velocity": 0.41732283464566927,
                    "duration": 0.13333325000002105
                },
                {
                    "name": "D5",
                    "midi": 74,
                    "time": 315.9998024999996,
                    "velocity": 0.4409448818897638,
                    "duration": 0.13333325000002105
                },
                {
                    "name": "C5",
                    "midi": 72,
                    "time": 316.1331357499996,
                    "velocity": 0.4330708661417323,
                    "duration": 0.1222221458333479
                },
                {
                    "name": "C5",
                    "midi": 72,
                    "time": 316.26646899999963,
                    "velocity": 0.5354330708661418,
                    "duration": 0.13333325000002105
                },
                {
                    "name": "F4",
                    "midi": 65,
                    "time": 316.26646899999963,
                    "velocity": 0.44881889763779526,
                    "duration": 0.13333325000002105
                },
                {
                    "name": "C5",
                    "midi": 72,
                    "time": 316.5331354999997,
                    "velocity": 0.41732283464566927,
                    "duration": 0.13333325000002105
                },
                {
                    "name": "E4",
                    "midi": 64,
                    "time": 316.5331354999997,
                    "velocity": 0.3779527559055118,
                    "duration": 0.13333325000002105
                },
                {
                    "name": "C5",
                    "midi": 72,
                    "time": 316.7998019999997,
                    "velocity": 0.5669291338582677,
                    "duration": 0.26666649999998526
                },
                {
                    "name": "D4",
                    "midi": 62,
                    "time": 316.7998019999997,
                    "velocity": 0.47244094488188976,
                    "duration": 0.2555553958333121
                },
                {
                    "name": "A#4",
                    "midi": 70,
                    "time": 317.0664684999997,
                    "velocity": 0.4251968503937008,
                    "duration": 0.13333325000002105
                },
                {
                    "name": "D4",
                    "midi": 62,
                    "time": 317.0664684999997,
                    "velocity": 0.3779527559055118,
                    "duration": 0.13333325000002105
                },
                {
                    "name": "A#3",
                    "midi": 58,
                    "time": 317.33313499999974,
                    "velocity": 0.44881889763779526,
                    "duration": 0.13333325000002105
                },
                {
                    "name": "G4",
                    "midi": 67,
                    "time": 317.33313499999974,
                    "velocity": 0.5354330708661418,
                    "duration": 0.13333325000002105
                },
                {
                    "name": "E4",
                    "midi": 64,
                    "time": 317.33313499999974,
                    "velocity": 0.44881889763779526,
                    "duration": 0.13333325000002105
                },
                {
                    "name": "A4",
                    "midi": 69,
                    "time": 317.5998014999998,
                    "velocity": 0.5039370078740157,
                    "duration": 0.13333325000002105
                },
                {
                    "name": "E4",
                    "midi": 64,
                    "time": 317.5998014999998,
                    "velocity": 0.41732283464566927,
                    "duration": 0.13333325000002105
                },
                {
                    "name": "C4",
                    "midi": 60,
                    "time": 317.5998014999998,
                    "velocity": 0.41732283464566927,
                    "duration": 0.13333325000002105
                },
                {
                    "name": "A3",
                    "midi": 57,
                    "time": 317.8664679999998,
                    "velocity": 0.5354330708661418,
                    "duration": 0.522221895833411
                },
                {
                    "name": "F4",
                    "midi": 65,
                    "time": 317.8664679999998,
                    "velocity": 0.5354330708661418,
                    "duration": 0.13333325000002105
                },
                {
                    "name": "E4",
                    "midi": 64,
                    "time": 317.99980124999985,
                    "velocity": 0.4094488188976378,
                    "duration": 0.13333325000002105
                },
                {
                    "name": "G4",
                    "midi": 67,
                    "time": 318.13313449999987,
                    "velocity": 0.4409448818897638,
                    "duration": 0.13333325000002105
                },
                {
                    "name": "F4",
                    "midi": 65,
                    "time": 318.2664677499999,
                    "velocity": 0.4094488188976378,
                    "duration": 0.1222221458333479
                },
                {
                    "name": "A3",
                    "midi": 57,
                    "time": 318.3998009999999,
                    "velocity": 0.44881889763779526,
                    "duration": 0.13333325000002105
                },
                {
                    "name": "F4",
                    "midi": 65,
                    "time": 318.3998009999999,
                    "velocity": 0.5354330708661418,
                    "duration": 0.13333325000002105
                },
                {
                    "name": "A3",
                    "midi": 57,
                    "time": 318.66646749999995,
                    "velocity": 0.3779527559055118,
                    "duration": 0.13333325000002105
                },
                {
                    "name": "F4",
                    "midi": 65,
                    "time": 318.66646749999995,
                    "velocity": 0.41732283464566927,
                    "duration": 0.13333325000002105
                },
                {
                    "name": "A3",
                    "midi": 57,
                    "time": 318.933134,
                    "velocity": 0.5039370078740157,
                    "duration": 0.13333325000002105
                },
                {
                    "name": "D4",
                    "midi": 62,
                    "time": 318.933134,
                    "velocity": 0.5039370078740157,
                    "duration": 0.13333325000002105
                },
                {
                    "name": "C4",
                    "midi": 60,
                    "time": 318.933134,
                    "velocity": 0.5039370078740157,
                    "duration": 0.13333325000002105
                },
                {
                    "name": "F#4",
                    "midi": 66,
                    "time": 318.933134,
                    "velocity": 0.5984251968503937,
                    "duration": 0.13333325000002105
                },
                {
                    "name": "F#4",
                    "midi": 66,
                    "time": 319.19980050000004,
                    "velocity": 0.5590551181102362,
                    "duration": 0.13333325000002105
                },
                {
                    "name": "C4",
                    "midi": 60,
                    "time": 319.19980050000004,
                    "velocity": 0.47244094488188976,
                    "duration": 0.13333325000002105
                },
                {
                    "name": "A3",
                    "midi": 57,
                    "time": 319.19980050000004,
                    "velocity": 0.47244094488188976,
                    "duration": 0.13333325000002105
                },
                {
                    "name": "D4",
                    "midi": 62,
                    "time": 319.19980050000004,
                    "velocity": 0.47244094488188976,
                    "duration": 0.13333325000002105
                },
                {
                    "name": "C4",
                    "midi": 60,
                    "time": 319.4664670000001,
                    "velocity": 0.4645669291338583,
                    "duration": 0.13333325000002105
                },
                {
                    "name": "D4",
                    "midi": 62,
                    "time": 319.4664670000001,
                    "velocity": 0.4645669291338583,
                    "duration": 0.13333325000002105
                },
                {
                    "name": "A3",
                    "midi": 57,
                    "time": 319.4664670000001,
                    "velocity": 0.4645669291338583,
                    "duration": 0.13333325000002105
                },
                {
                    "name": "F#4",
                    "midi": 66,
                    "time": 319.4664670000001,
                    "velocity": 0.5511811023622047,
                    "duration": 0.13333325000002105
                },
                {
                    "name": "F#4",
                    "midi": 66,
                    "time": 319.7331335000001,
                    "velocity": 0.5511811023622047,
                    "duration": 0.13333325000002105
                },
                {
                    "name": "D4",
                    "midi": 62,
                    "time": 319.7331335000001,
                    "velocity": 0.4645669291338583,
                    "duration": 0.13333325000002105
                },
                {
                    "name": "C4",
                    "midi": 60,
                    "time": 319.7331335000001,
                    "velocity": 0.4645669291338583,
                    "duration": 0.13333325000002105
                },
                {
                    "name": "A3",
                    "midi": 57,
                    "time": 319.7331335000001,
                    "velocity": 0.4645669291338583,
                    "duration": 0.13333325000002105
                },
                {
                    "name": "D4",
                    "midi": 62,
                    "time": 319.99980000000016,
                    "velocity": 0.4566929133858268,
                    "duration": 0.13333325000002105
                },
                {
                    "name": "F#4",
                    "midi": 66,
                    "time": 319.99980000000016,
                    "velocity": 0.4566929133858268,
                    "duration": 0.13333325000002105
                },
                {
                    "name": "D5",
                    "midi": 74,
                    "time": 319.99980000000016,
                    "velocity": 0.5433070866141733,
                    "duration": 0.13333325000002105
                },
                {
                    "name": "A4",
                    "midi": 69,
                    "time": 319.99980000000016,
                    "velocity": 0.4566929133858268,
                    "duration": 0.13333325000002105
                },
                {
                    "name": "A4",
                    "midi": 69,
                    "time": 320.2664665000002,
                    "velocity": 0.41732283464566927,
                    "duration": 0.13333325000002105
                },
                {
                    "name": "F#4",
                    "midi": 66,
                    "time": 320.2664665000002,
                    "velocity": 0.41732283464566927,
                    "duration": 0.13333325000002105
                },
                {
                    "name": "D5",
                    "midi": 74,
                    "time": 320.2664665000002,
                    "velocity": 0.49606299212598426,
                    "duration": 0.13333325000002105
                },
                {
                    "name": "D4",
                    "midi": 62,
                    "time": 320.2664665000002,
                    "velocity": 0.41732283464566927,
                    "duration": 0.13333325000002105
                },
                {
                    "name": "D5",
                    "midi": 74,
                    "time": 320.53313300000025,
                    "velocity": 0.49606299212598426,
                    "duration": 0.13333325000002105
                },
                {
                    "name": "D4",
                    "midi": 62,
                    "time": 320.53313300000025,
                    "velocity": 0.41732283464566927,
                    "duration": 0.13333325000002105
                },
                {
                    "name": "F#4",
                    "midi": 66,
                    "time": 320.53313300000025,
                    "velocity": 0.41732283464566927,
                    "duration": 0.13333325000002105
                },
                {
                    "name": "A4",
                    "midi": 69,
                    "time": 320.53313300000025,
                    "velocity": 0.41732283464566927,
                    "duration": 0.13333325000002105
                },
                {
                    "name": "D4",
                    "midi": 62,
                    "time": 320.7997995000003,
                    "velocity": 0.41732283464566927,
                    "duration": 0.13333325000002105
                },
                {
                    "name": "F#4",
                    "midi": 66,
                    "time": 320.7997995000003,
                    "velocity": 0.41732283464566927,
                    "duration": 0.13333325000002105
                },
                {
                    "name": "D5",
                    "midi": 74,
                    "time": 320.7997995000003,
                    "velocity": 0.49606299212598426,
                    "duration": 0.13333325000002105
                },
                {
                    "name": "A4",
                    "midi": 69,
                    "time": 320.7997995000003,
                    "velocity": 0.41732283464566927,
                    "duration": 0.13333325000002105
                },
                {
                    "name": "A#3",
                    "midi": 58,
                    "time": 321.06646600000033,
                    "velocity": 0.6377952755905512,
                    "duration": 0.13333325000002105
                },
                {
                    "name": "A3",
                    "midi": 57,
                    "time": 321.19979925000035,
                    "velocity": 0.5354330708661418,
                    "duration": 0.13333325000002105
                },
                {
                    "name": "G3",
                    "midi": 55,
                    "time": 321.3331325000004,
                    "velocity": 0.5511811023622047,
                    "duration": 0.13333325000002105
                },
                {
                    "name": "A3",
                    "midi": 57,
                    "time": 321.4664657500004,
                    "velocity": 0.5511811023622047,
                    "duration": 0.13333325000002105
                },
                {
                    "name": "A#3",
                    "midi": 58,
                    "time": 321.5997990000004,
                    "velocity": 0.6377952755905512,
                    "duration": 0.13333325000002105
                },
                {
                    "name": "G3",
                    "midi": 55,
                    "time": 321.73313225000044,
                    "velocity": 0.5590551181102362,
                    "duration": 0.13333325000002105
                },
                {
                    "name": "A#3",
                    "midi": 58,
                    "time": 321.86646550000046,
                    "velocity": 0.5590551181102362,
                    "duration": 0.13333325000002105
                },
                {
                    "name": "G3",
                    "midi": 55,
                    "time": 321.9997987500005,
                    "velocity": 0.5590551181102362,
                    "duration": 0.1222221458333479
                },
                {
                    "name": "G4",
                    "midi": 67,
                    "time": 322.1331320000005,
                    "velocity": 0.6456692913385826,
                    "duration": 0.2555553958333121
                },
                {
                    "name": "G3",
                    "midi": 55,
                    "time": 322.3997985000005,
                    "velocity": 0.5354330708661418,
                    "duration": 0.13333325000002105
                },
                {
                    "name": "G3",
                    "midi": 55,
                    "time": 322.6664650000005,
                    "velocity": 0.5354330708661418,
                    "duration": 0.13333325000002105
                },
                {
                    "name": "G3",
                    "midi": 55,
                    "time": 322.93313150000057,
                    "velocity": 0.5354330708661418,
                    "duration": 0.13333325000002105
                },
                {
                    "name": "C4",
                    "midi": 60,
                    "time": 323.1997980000006,
                    "velocity": 0.5275590551181102,
                    "duration": 0.13333325000002105
                },
                {
                    "name": "D#4",
                    "midi": 63,
                    "time": 323.1997980000006,
                    "velocity": 0.5275590551181102,
                    "duration": 0.13333325000002105
                },
                {
                    "name": "G4",
                    "midi": 67,
                    "time": 323.1997980000006,
                    "velocity": 0.6220472440944882,
                    "duration": 0.13333325000002105
                },
                {
                    "name": "G3",
                    "midi": 55,
                    "time": 323.46646450000065,
                    "velocity": 0.4881889763779528,
                    "duration": 0.13333325000002105
                },
                {
                    "name": "G3",
                    "midi": 55,
                    "time": 323.7331310000007,
                    "velocity": 0.4881889763779528,
                    "duration": 0.13333325000002105
                },
                {
                    "name": "G3",
                    "midi": 55,
                    "time": 323.99979750000074,
                    "velocity": 0.4881889763779528,
                    "duration": 0.13333325000002105
                },
                {
                    "name": "G4",
                    "midi": 67,
                    "time": 324.2664640000008,
                    "velocity": 0.5984251968503937,
                    "duration": 0.26666649999998526
                },
                {
                    "name": "D4",
                    "midi": 62,
                    "time": 324.2664640000008,
                    "velocity": 0.5039370078740157,
                    "duration": 0.26666649999998526
                },
                {
                    "name": "A#3",
                    "midi": 58,
                    "time": 324.2664640000008,
                    "velocity": 0.5039370078740157,
                    "duration": 0.26666649999998526
                },
                {
                    "name": "G3",
                    "midi": 55,
                    "time": 324.53313050000077,
                    "velocity": 0.48031496062992124,
                    "duration": 0.13333325000002105
                },
                {
                    "name": "G3",
                    "midi": 55,
                    "time": 324.7997970000008,
                    "velocity": 0.48031496062992124,
                    "duration": 0.13333325000002105
                },
                {
                    "name": "G3",
                    "midi": 55,
                    "time": 325.06646350000085,
                    "velocity": 0.48031496062992124,
                    "duration": 0.13333325000002105
                },
                {
                    "name": "D4",
                    "midi": 62,
                    "time": 325.3331300000009,
                    "velocity": 0.4409448818897638,
                    "duration": 0.522221895833411
                },
                {
                    "name": "D5",
                    "midi": 74,
                    "time": 325.3331300000009,
                    "velocity": 0.6377952755905512,
                    "duration": 0.13333325000002105
                },
                {
                    "name": "G#4",
                    "midi": 68,
                    "time": 325.3331300000009,
                    "velocity": 0.4409448818897638,
                    "duration": 0.522221895833411
                },
                {
                    "name": "C#5",
                    "midi": 73,
                    "time": 325.4664632500009,
                    "velocity": 0.5433070866141733,
                    "duration": 0.13333325000002105
                },
                {
                    "name": "B4",
                    "midi": 71,
                    "time": 325.59979650000093,
                    "velocity": 0.5669291338582677,
                    "duration": 0.13333325000002105
                },
                {
                    "name": "C#5",
                    "midi": 73,
                    "time": 325.73312975000096,
                    "velocity": 0.5748031496062992,
                    "duration": 0.13333325000002105
                },
                {
                    "name": "D5",
                    "midi": 74,
                    "time": 325.866463000001,
                    "velocity": 0.6771653543307087,
                    "duration": 0.13333325000002105
                },
                {
                    "name": "F4",
                    "midi": 65,
                    "time": 325.866463000001,
                    "velocity": 0.4645669291338583,
                    "duration": 0.13333325000002105
                },
                {
                    "name": "G#4",
                    "midi": 68,
                    "time": 325.866463000001,
                    "velocity": 0.4645669291338583,
                    "duration": 0.13333325000002105
                },
                {
                    "name": "B4",
                    "midi": 71,
                    "time": 325.999796250001,
                    "velocity": 0.6062992125984252,
                    "duration": 0.13333325000002105
                },
                {
                    "name": "G#4",
                    "midi": 68,
                    "time": 326.133129500001,
                    "velocity": 0.4881889763779528,
                    "duration": 0.13333325000002105
                },
                {
                    "name": "D5",
                    "midi": 74,
                    "time": 326.133129500001,
                    "velocity": 0.6141732283464567,
                    "duration": 0.13333325000002105
                },
                {
                    "name": "F4",
                    "midi": 65,
                    "time": 326.133129500001,
                    "velocity": 0.4881889763779528,
                    "duration": 0.13333325000002105
                },
                {
                    "name": "B4",
                    "midi": 71,
                    "time": 326.26646275000104,
                    "velocity": 0.6299212598425197,
                    "duration": 0.13333325000002105
                },
                {
                    "name": "B4",
                    "midi": 71,
                    "time": 326.39979600000106,
                    "velocity": 0.6377952755905512,
                    "duration": 0.26666649999998526
                },
                {
                    "name": "F#4",
                    "midi": 66,
                    "time": 326.39979600000106,
                    "velocity": 0.6377952755905512,
                    "duration": 0.26444427916663926
                },
                {
                    "name": "D5",
                    "midi": 74,
                    "time": 326.39979600000106,
                    "velocity": 0.6377952755905512,
                    "duration": 0.26666649999998526
                },
                {
                    "name": "F#5",
                    "midi": 78,
                    "time": 326.39979600000106,
                    "velocity": 0.7480314960629921,
                    "duration": 0.26666649999998526
                },
                {
                    "name": "D4",
                    "midi": 62,
                    "time": 326.66646250000105,
                    "velocity": 0.4645669291338583,
                    "duration": 0.13333325000002105
                },
                {
                    "name": "F#4",
                    "midi": 66,
                    "time": 326.66646250000105,
                    "velocity": 0.5590551181102362,
                    "duration": 0.13333325000002105
                },
                {
                    "name": "D4",
                    "midi": 62,
                    "time": 326.9331290000011,
                    "velocity": 0.4645669291338583,
                    "duration": 0.13333325000002105
                },
                {
                    "name": "F#4",
                    "midi": 66,
                    "time": 326.9331290000011,
                    "velocity": 0.5590551181102362,
                    "duration": 0.13333325000002105
                },
                {
                    "name": "D4",
                    "midi": 62,
                    "time": 327.19979550000113,
                    "velocity": 0.4645669291338583,
                    "duration": 0.13333325000002105
                },
                {
                    "name": "F#4",
                    "midi": 66,
                    "time": 327.19979550000113,
                    "velocity": 0.5590551181102362,
                    "duration": 0.13333325000002105
                },
                {
                    "name": "G4",
                    "midi": 67,
                    "time": 327.4664620000012,
                    "velocity": 0.47244094488188976,
                    "duration": 0.13333325000002105
                },
                {
                    "name": "C#4",
                    "midi": 61,
                    "time": 327.4664620000012,
                    "velocity": 0.3700787401574803,
                    "duration": 0.13333325000002105
                },
                {
                    "name": "F#4",
                    "midi": 66,
                    "time": 327.5997952500012,
                    "velocity": 0.4015748031496063,
                    "duration": 0.13333325000002105
                },
                {
                    "name": "A4",
                    "midi": 69,
                    "time": 327.7331285000012,
                    "velocity": 0.4015748031496063,
                    "duration": 0.13333325000002105
                },
                {
                    "name": "C#4",
                    "midi": 61,
                    "time": 327.7331285000012,
                    "velocity": 0.3700787401574803,
                    "duration": 0.13333325000002105
                },
                {
                    "name": "G4",
                    "midi": 67,
                    "time": 327.86646175000124,
                    "velocity": 0.4015748031496063,
                    "duration": 0.13333325000002105
                },
                {
                    "name": "E4",
                    "midi": 64,
                    "time": 327.99979500000126,
                    "velocity": 0.3700787401574803,
                    "duration": 0.13333325000002105
                },
                {
                    "name": "F#4",
                    "midi": 66,
                    "time": 327.99979500000126,
                    "velocity": 0.47244094488188976,
                    "duration": 0.13333325000002105
                },
                {
                    "name": "F#4",
                    "midi": 66,
                    "time": 328.2664615000013,
                    "velocity": 0.4094488188976378,
                    "duration": 0.13333325000002105
                },
                {
                    "name": "E4",
                    "midi": 64,
                    "time": 328.2664615000013,
                    "velocity": 0.3700787401574803,
                    "duration": 0.13333325000002105
                },
                {
                    "name": "F#4",
                    "midi": 66,
                    "time": 328.53312800000134,
                    "velocity": 0.4881889763779528,
                    "duration": 0.26666649999998526
                },
                {
                    "name": "B4",
                    "midi": 71,
                    "time": 328.53312800000134,
                    "velocity": 0.5748031496062992,
                    "duration": 0.26666649999998526
                },
                {
                    "name": "D4",
                    "midi": 62,
                    "time": 328.53312800000134,
                    "velocity": 0.4881889763779528,
                    "duration": 0.26444427916663926
                },
                {
                    "name": "B3",
                    "midi": 59,
                    "time": 328.53312800000134,
                    "velocity": 0.4881889763779528,
                    "duration": 0.26666649999998526
                },
                {
                    "name": "D4",
                    "midi": 62,
                    "time": 328.7997945000013,
                    "velocity": 0.49606299212598426,
                    "duration": 0.13333325000002105
                },
                {
                    "name": "D4",
                    "midi": 62,
                    "time": 329.06646100000137,
                    "velocity": 0.49606299212598426,
                    "duration": 0.13333325000002105
                },
                {
                    "name": "F#4",
                    "midi": 66,
                    "time": 329.06646100000137,
                    "velocity": 0.5905511811023622,
                    "duration": 0.13333325000002105
                },
                {
                    "name": "A3",
                    "midi": 57,
                    "time": 329.06646100000137,
                    "velocity": 0.49606299212598426,
                    "duration": 0.13333325000002105
                },
                {
                    "name": "C4",
                    "midi": 60,
                    "time": 329.06646100000137,
                    "velocity": 0.49606299212598426,
                    "duration": 0.13333325000002105
                },
                {
                    "name": "D4",
                    "midi": 62,
                    "time": 329.3331275000014,
                    "velocity": 0.6141732283464567,
                    "duration": 0.13333325000002105
                },
                {
                    "name": "A#3",
                    "midi": 58,
                    "time": 329.59979400000145,
                    "velocity": 0.5433070866141733,
                    "duration": 0.13333325000002105
                },
                {
                    "name": "D4",
                    "midi": 62,
                    "time": 329.59979400000145,
                    "velocity": 0.5433070866141733,
                    "duration": 0.13333325000002105
                },
                {
                    "name": "G4",
                    "midi": 67,
                    "time": 329.59979400000145,
                    "velocity": 0.6377952755905512,
                    "duration": 0.13333325000002105
                },
                {
                    "name": "A3",
                    "midi": 57,
                    "time": 329.7331272500015,
                    "velocity": 0.5433070866141733,
                    "duration": 0.13333325000002105
                },
                {
                    "name": "G3",
                    "midi": 55,
                    "time": 329.8664605000015,
                    "velocity": 0.5511811023622047,
                    "duration": 0.13333325000002105
                },
                {
                    "name": "A3",
                    "midi": 57,
                    "time": 329.9997937500015,
                    "velocity": 0.5511811023622047,
                    "duration": 0.13333325000002105
                },
                {
                    "name": "A#3",
                    "midi": 58,
                    "time": 330.13312700000154,
                    "velocity": 0.6377952755905512,
                    "duration": 0.13333325000002105
                },
                {
                    "name": "G3",
                    "midi": 55,
                    "time": 330.26646025000156,
                    "velocity": 0.5590551181102362,
                    "duration": 0.13333325000002105
                },
                {
                    "name": "A#3",
                    "midi": 58,
                    "time": 330.3997935000016,
                    "velocity": 0.5590551181102362,
                    "duration": 0.13333325000002105
                },
                {
                    "name": "G3",
                    "midi": 55,
                    "time": 330.5331267500016,
                    "velocity": 0.5590551181102362,
                    "duration": 0.13333325000002105
                },
                {
                    "name": "G4",
                    "midi": 67,
                    "time": 330.6664600000016,
                    "velocity": 0.6456692913385826,
                    "duration": 0.2555553958333121
                },
                {
                    "name": "G3",
                    "midi": 55,
                    "time": 330.9331265000016,
                    "velocity": 0.5354330708661418,
                    "duration": 0.13333325000002105
                },
                {
                    "name": "G3",
                    "midi": 55,
                    "time": 331.19979300000165,
                    "velocity": 0.5354330708661418,
                    "duration": 0.13333325000002105
                },
                {
                    "name": "G3",
                    "midi": 55,
                    "time": 331.4664595000017,
                    "velocity": 0.5354330708661418,
                    "duration": 0.13333325000002105
                },
                {
                    "name": "D#4",
                    "midi": 63,
                    "time": 331.73312600000173,
                    "velocity": 0.5275590551181102,
                    "duration": 0.13333325000002105
                },
                {
                    "name": "G4",
                    "midi": 67,
                    "time": 331.73312600000173,
                    "velocity": 0.6220472440944882,
                    "duration": 0.13333325000002105
                },
                {
                    "name": "C4",
                    "midi": 60,
                    "time": 331.73312600000173,
                    "velocity": 0.5275590551181102,
                    "duration": 0.13333325000002105
                },
                {
                    "name": "G3",
                    "midi": 55,
                    "time": 331.9997925000018,
                    "velocity": 0.4881889763779528,
                    "duration": 0.13333325000002105
                },
                {
                    "name": "G3",
                    "midi": 55,
                    "time": 332.2664590000018,
                    "velocity": 0.4881889763779528,
                    "duration": 0.13333325000002105
                },
                {
                    "name": "G3",
                    "midi": 55,
                    "time": 332.53312550000186,
                    "velocity": 0.4881889763779528,
                    "duration": 0.13333325000002105
                },
                {
                    "name": "D4",
                    "midi": 62,
                    "time": 332.7997920000019,
                    "velocity": 0.5039370078740157,
                    "duration": 0.26666649999998526
                },
                {
                    "name": "G4",
                    "midi": 67,
                    "time": 332.7997920000019,
                    "velocity": 0.5984251968503937,
                    "duration": 0.26666649999998526
                },
                {
                    "name": "A#3",
                    "midi": 58,
                    "time": 332.7997920000019,
                    "velocity": 0.5039370078740157,
                    "duration": 0.26666649999998526
                },
                {
                    "name": "G3",
                    "midi": 55,
                    "time": 333.0664585000019,
                    "velocity": 0.48031496062992124,
                    "duration": 0.13333325000002105
                },
                {
                    "name": "G3",
                    "midi": 55,
                    "time": 333.3331250000019,
                    "velocity": 0.48031496062992124,
                    "duration": 0.13333325000002105
                },
                {
                    "name": "G3",
                    "midi": 55,
                    "time": 333.59979150000197,
                    "velocity": 0.48031496062992124,
                    "duration": 0.13333325000002105
                },
                {
                    "name": "F4",
                    "midi": 65,
                    "time": 333.866458000002,
                    "velocity": 0.48031496062992124,
                    "duration": 0.522221895833411
                },
                {
                    "name": "B4",
                    "midi": 71,
                    "time": 333.866458000002,
                    "velocity": 0.48031496062992124,
                    "duration": 0.522221895833411
                },
                {
                    "name": "F5",
                    "midi": 77,
                    "time": 333.866458000002,
                    "velocity": 0.7007874015748031,
                    "duration": 0.13333325000002105
                },
                {
                    "name": "E5",
                    "midi": 76,
                    "time": 333.99979125000203,
                    "velocity": 0.5905511811023622,
                    "duration": 0.13333325000002105
                },
                {
                    "name": "D5",
                    "midi": 74,
                    "time": 334.13312450000205,
                    "velocity": 0.6220472440944882,
                    "duration": 0.13333325000002105
                },
                {
                    "name": "E5",
                    "midi": 76,
                    "time": 334.2664577500021,
                    "velocity": 0.6299212598425197,
                    "duration": 0.13333325000002105
                },
                {
                    "name": "G#4",
                    "midi": 68,
                    "time": 334.3997910000021,
                    "velocity": 0.5039370078740157,
                    "duration": 0.13333325000002105
                },
                {
                    "name": "F5",
                    "midi": 77,
                    "time": 334.3997910000021,
                    "velocity": 0.7401574803149606,
                    "duration": 0.13333325000002105
                },
                {
                    "name": "B4",
                    "midi": 71,
                    "time": 334.3997910000021,
                    "velocity": 0.5039370078740157,
                    "duration": 0.13333325000002105
                },
                {
                    "name": "D5",
                    "midi": 74,
                    "time": 334.5331242500021,
                    "velocity": 0.6614173228346457,
                    "duration": 0.13333325000002105
                },
                {
                    "name": "F5",
                    "midi": 77,
                    "time": 334.66645750000214,
                    "velocity": 0.6692913385826772,
                    "duration": 0.13333325000002105
                },
                {
                    "name": "B4",
                    "midi": 71,
                    "time": 334.66645750000214,
                    "velocity": 0.5354330708661418,
                    "duration": 0.13333325000002105
                },
                {
                    "name": "G#4",
                    "midi": 68,
                    "time": 334.66645750000214,
                    "velocity": 0.5354330708661418,
                    "duration": 0.13333325000002105
                },
                {
                    "name": "D5",
                    "midi": 74,
                    "time": 334.79979075000216,
                    "velocity": 0.6929133858267716,
                    "duration": 0.13111102916667505
                },
                {
                    "name": "A5",
                    "midi": 81,
                    "time": 334.9331240000022,
                    "velocity": 0.7480314960629921,
                    "duration": 0.26666649999998526
                },
                {
                    "name": "D5",
                    "midi": 74,
                    "time": 334.9331240000022,
                    "velocity": 0.6377952755905512,
                    "duration": 0.26666649999998526
                },
                {
                    "name": "A4",
                    "midi": 69,
                    "time": 334.9331240000022,
                    "velocity": 0.6377952755905512,
                    "duration": 0.2555553958333121
                },
                {
                    "name": "F5",
                    "midi": 77,
                    "time": 334.9331240000022,
                    "velocity": 0.6377952755905512,
                    "duration": 0.26666649999998526
                },
                {
                    "name": "A4",
                    "midi": 69,
                    "time": 335.19979050000217,
                    "velocity": 0.6141732283464567,
                    "duration": 0.13333325000002105
                },
                {
                    "name": "F4",
                    "midi": 65,
                    "time": 335.19979050000217,
                    "velocity": 0.5039370078740157,
                    "duration": 0.13333325000002105
                },
                {
                    "name": "F4",
                    "midi": 65,
                    "time": 335.4664570000022,
                    "velocity": 0.5039370078740157,
                    "duration": 0.13333325000002105
                },
                {
                    "name": "A4",
                    "midi": 69,
                    "time": 335.4664570000022,
                    "velocity": 0.6141732283464567,
                    "duration": 0.13333325000002105
                },
                {
                    "name": "F4",
                    "midi": 65,
                    "time": 335.73312350000225,
                    "velocity": 0.5039370078740157,
                    "duration": 0.13333325000002105
                },
                {
                    "name": "A4",
                    "midi": 69,
                    "time": 335.73312350000225,
                    "velocity": 0.6141732283464567,
                    "duration": 0.13333325000002105
                },
                {
                    "name": "A5",
                    "midi": 81,
                    "time": 335.9997900000023,
                    "velocity": 0.7637795275590551,
                    "duration": 0.13333325000002105
                },
                {
                    "name": "D#5",
                    "midi": 75,
                    "time": 335.9997900000023,
                    "velocity": 0.5275590551181102,
                    "duration": 0.522221895833411
                },
                {
                    "name": "A4",
                    "midi": 69,
                    "time": 335.9997900000023,
                    "velocity": 0.5275590551181102,
                    "duration": 0.522221895833411
                },
                {
                    "name": "G#5",
                    "midi": 80,
                    "time": 336.1331232500023,
                    "velocity": 0.6456692913385826,
                    "duration": 0.13333325000002105
                },
                {
                    "name": "F#5",
                    "midi": 78,
                    "time": 336.26645650000233,
                    "velocity": 0.6771653543307087,
                    "duration": 0.13333325000002105
                },
                {
                    "name": "G#5",
                    "midi": 80,
                    "time": 336.39978975000236,
                    "velocity": 0.6929133858267716,
                    "duration": 0.13333325000002105
                },
                {
                    "name": "D#5",
                    "midi": 75,
                    "time": 336.5331230000024,
                    "velocity": 0.5511811023622047,
                    "duration": 0.13333325000002105
                },
                {
                    "name": "A5",
                    "midi": 81,
                    "time": 336.5331230000024,
                    "velocity": 0.8110236220472441,
                    "duration": 0.13333325000002105
                },
                {
                    "name": "B4",
                    "midi": 71,
                    "time": 336.5331230000024,
                    "velocity": 0.5511811023622047,
                    "duration": 0.13333325000002105
                },
                {
                    "name": "F#5",
                    "midi": 78,
                    "time": 336.6664562500024,
                    "velocity": 0.7244094488188977,
                    "duration": 0.13333325000002105
                },
                {
                    "name": "B4",
                    "midi": 71,
                    "time": 336.7997895000024,
                    "velocity": 0.5826771653543307,
                    "duration": 0.13333325000002105
                },
                {
                    "name": "D#5",
                    "midi": 75,
                    "time": 336.7997895000024,
                    "velocity": 0.5826771653543307,
                    "duration": 0.13333325000002105
                },
                {
                    "name": "A5",
                    "midi": 81,
                    "time": 336.7997895000024,
                    "velocity": 0.7322834645669292,
                    "duration": 0.13333325000002105
                },
                {
                    "name": "F#5",
                    "midi": 78,
                    "time": 336.93312275000244,
                    "velocity": 0.7559055118110236,
                    "duration": 0.13333325000002105
                },
                {
                    "name": "F#5",
                    "midi": 78,
                    "time": 337.06645600000246,
                    "velocity": 0.7007874015748031,
                    "duration": 0.26666649999998526
                },
                {
                    "name": "C#5",
                    "midi": 73,
                    "time": 337.06645600000246,
                    "velocity": 0.7007874015748031,
                    "duration": 0.2555553958333121
                },
                {
                    "name": "C#6",
                    "midi": 85,
                    "time": 337.06645600000246,
                    "velocity": 0.8188976377952756,
                    "duration": 0.26666649999998526
                },
                {
                    "name": "A5",
                    "midi": 81,
                    "time": 337.06645600000246,
                    "velocity": 0.7007874015748031,
                    "duration": 0.26666649999998526
                },
                {
                    "name": "A4",
                    "midi": 69,
                    "time": 337.33312250000245,
                    "velocity": 0.5039370078740157,
                    "duration": 0.13333325000002105
                },
                {
                    "name": "C#5",
                    "midi": 73,
                    "time": 337.33312250000245,
                    "velocity": 0.6141732283464567,
                    "duration": 0.13333325000002105
                },
                {
                    "name": "C#5",
                    "midi": 73,
                    "time": 337.5997890000025,
                    "velocity": 0.6141732283464567,
                    "duration": 0.13333325000002105
                },
                {
                    "name": "A4",
                    "midi": 69,
                    "time": 337.5997890000025,
                    "velocity": 0.5039370078740157,
                    "duration": 0.13333325000002105
                },
                {
                    "name": "A4",
                    "midi": 69,
                    "time": 337.86645550000253,
                    "velocity": 0.5039370078740157,
                    "duration": 0.13333325000002105
                },
                {
                    "name": "C#5",
                    "midi": 73,
                    "time": 337.86645550000253,
                    "velocity": 0.6141732283464567,
                    "duration": 0.13333325000002105
                },
                {
                    "name": "G#4",
                    "midi": 68,
                    "time": 338.1331220000026,
                    "velocity": 0.3700787401574803,
                    "duration": 0.522221895833411
                },
                {
                    "name": "D5",
                    "midi": 74,
                    "time": 338.1331220000026,
                    "velocity": 0.47244094488188976,
                    "duration": 0.13333325000002105
                },
                {
                    "name": "C#5",
                    "midi": 73,
                    "time": 338.2664552500026,
                    "velocity": 0.3858267716535433,
                    "duration": 0.13333325000002105
                },
                {
                    "name": "E5",
                    "midi": 76,
                    "time": 338.3997885000026,
                    "velocity": 0.4015748031496063,
                    "duration": 0.13333325000002105
                },
                {
                    "name": "D5",
                    "midi": 74,
                    "time": 338.53312175000264,
                    "velocity": 0.3779527559055118,
                    "duration": 0.1222221458333479
                },
                {
                    "name": "C#5",
                    "midi": 73,
                    "time": 338.66645500000266,
                    "velocity": 0.47244094488188976,
                    "duration": 0.13333325000002105
                },
                {
                    "name": "B4",
                    "midi": 71,
                    "time": 338.66645500000266,
                    "velocity": 0.3700787401574803,
                    "duration": 0.13333325000002105
                },
                {
                    "name": "B4",
                    "midi": 71,
                    "time": 338.9331215000027,
                    "velocity": 0.3700787401574803,
                    "duration": 0.13333325000002105
                },
                {
                    "name": "C#5",
                    "midi": 73,
                    "time": 338.9331215000027,
                    "velocity": 0.4094488188976378,
                    "duration": 0.13333325000002105
                },
                {
                    "name": "F#5",
                    "midi": 78,
                    "time": 339.19978800000274,
                    "velocity": 0.48031496062992124,
                    "duration": 0.13333325000002105
                },
                {
                    "name": "F#4",
                    "midi": 66,
                    "time": 339.19978800000274,
                    "velocity": 0.4015748031496063,
                    "duration": 0.13333325000002105
                },
                {
                    "name": "A4",
                    "midi": 69,
                    "time": 339.19978800000274,
                    "velocity": 0.4015748031496063,
                    "duration": 0.13333325000002105
                },
                {
                    "name": "C#5",
                    "midi": 73,
                    "time": 339.19978800000274,
                    "velocity": 0.4015748031496063,
                    "duration": 0.13333325000002105
                },
                {
                    "name": "F#4",
                    "midi": 66,
                    "time": 339.4664545000028,
                    "velocity": 0.33858267716535434,
                    "duration": 0.13333325000002105
                },
                {
                    "name": "A4",
                    "midi": 69,
                    "time": 339.4664545000028,
                    "velocity": 0.33858267716535434,
                    "duration": 0.13333325000002105
                },
                {
                    "name": "C#5",
                    "midi": 73,
                    "time": 339.4664545000028,
                    "velocity": 0.4015748031496063,
                    "duration": 0.13333325000002105
                },
                {
                    "name": "F#4",
                    "midi": 66,
                    "time": 339.7331210000028,
                    "velocity": 0.33858267716535434,
                    "duration": 0.13333325000002105
                },
                {
                    "name": "A4",
                    "midi": 69,
                    "time": 339.7331210000028,
                    "velocity": 0.33858267716535434,
                    "duration": 0.13333325000002105
                },
                {
                    "name": "C#5",
                    "midi": 73,
                    "time": 339.7331210000028,
                    "velocity": 0.4015748031496063,
                    "duration": 0.13333325000002105
                },
                {
                    "name": "C#5",
                    "midi": 73,
                    "time": 339.99978750000287,
                    "velocity": 0.4015748031496063,
                    "duration": 0.13333325000002105
                },
                {
                    "name": "F#4",
                    "midi": 66,
                    "time": 339.99978750000287,
                    "velocity": 0.33858267716535434,
                    "duration": 0.13333325000002105
                },
                {
                    "name": "A4",
                    "midi": 69,
                    "time": 339.99978750000287,
                    "velocity": 0.33858267716535434,
                    "duration": 0.13333325000002105
                },
                {
                    "name": "F#5",
                    "midi": 78,
                    "time": 340.2664540000029,
                    "velocity": 0.48031496062992124,
                    "duration": 0.13333325000002105
                },
                {
                    "name": "F#4",
                    "midi": 66,
                    "time": 340.2664540000029,
                    "velocity": 0.4015748031496063,
                    "duration": 0.13333325000002105
                },
                {
                    "name": "A4",
                    "midi": 69,
                    "time": 340.2664540000029,
                    "velocity": 0.4015748031496063,
                    "duration": 0.13333325000002105
                },
                {
                    "name": "C#5",
                    "midi": 73,
                    "time": 340.2664540000029,
                    "velocity": 0.4015748031496063,
                    "duration": 0.13333325000002105
                },
                {
                    "name": "A4",
                    "midi": 69,
                    "time": 340.53312050000295,
                    "velocity": 0.33858267716535434,
                    "duration": 0.13333325000002105
                },
                {
                    "name": "C#5",
                    "midi": 73,
                    "time": 340.53312050000295,
                    "velocity": 0.4015748031496063,
                    "duration": 0.13333325000002105
                },
                {
                    "name": "F#4",
                    "midi": 66,
                    "time": 340.53312050000295,
                    "velocity": 0.33858267716535434,
                    "duration": 0.13333325000002105
                },
                {
                    "name": "C#5",
                    "midi": 73,
                    "time": 340.799787000003,
                    "velocity": 0.4015748031496063,
                    "duration": 0.13333325000002105
                },
                {
                    "name": "A4",
                    "midi": 69,
                    "time": 340.799787000003,
                    "velocity": 0.33858267716535434,
                    "duration": 0.13333325000002105
                },
                {
                    "name": "F#4",
                    "midi": 66,
                    "time": 340.799787000003,
                    "velocity": 0.33858267716535434,
                    "duration": 0.13333325000002105
                },
                {
                    "name": "A4",
                    "midi": 69,
                    "time": 341.06645350000304,
                    "velocity": 0.33858267716535434,
                    "duration": 0.13333325000002105
                },
                {
                    "name": "F#4",
                    "midi": 66,
                    "time": 341.06645350000304,
                    "velocity": 0.33858267716535434,
                    "duration": 0.13333325000002105
                },
                {
                    "name": "C#5",
                    "midi": 73,
                    "time": 341.06645350000304,
                    "velocity": 0.4015748031496063,
                    "duration": 0.13333325000002105
                },
                {
                    "name": "D5",
                    "midi": 74,
                    "time": 341.3331200000031,
                    "velocity": 0.4015748031496063,
                    "duration": 0.26666649999998526
                },
                {
                    "name": "C5",
                    "midi": 72,
                    "time": 341.3331200000031,
                    "velocity": 0.4015748031496063,
                    "duration": 0.26666649999998526
                },
                {
                    "name": "F#4",
                    "midi": 66,
                    "time": 341.3331200000031,
                    "velocity": 0.4015748031496063,
                    "duration": 0.26666649999998526
                },
                {
                    "name": "A4",
                    "midi": 69,
                    "time": 341.3331200000031,
                    "velocity": 0.4015748031496063,
                    "duration": 0.26666649999998526
                },
                {
                    "name": "F#5",
                    "midi": 78,
                    "time": 341.3331200000031,
                    "velocity": 0.48031496062992124,
                    "duration": 0.26666649999998526
                },
                {
                    "name": "D5",
                    "midi": 74,
                    "time": 341.59978650000306,
                    "velocity": 0.3937007874015748,
                    "duration": 0.2399998500000038
                },
                {
                    "name": "C5",
                    "midi": 72,
                    "time": 341.59978650000306,
                    "velocity": 0.33070866141732286,
                    "duration": 0.2399998500000038
                },
                {
                    "name": "F#4",
                    "midi": 66,
                    "time": 341.59978650000306,
                    "velocity": 0.33070866141732286,
                    "duration": 0.2399998500000038
                },
                {
                    "name": "A4",
                    "midi": 69,
                    "time": 341.59978650000306,
                    "velocity": 0.33070866141732286,
                    "duration": 0.2399998500000038
                },
                {
                    "name": "D5",
                    "midi": 74,
                    "time": 341.86645300000305,
                    "velocity": 0.3858267716535433,
                    "duration": 0.13333325000002105
                },
                {
                    "name": "C5",
                    "midi": 72,
                    "time": 341.86645300000305,
                    "velocity": 0.3228346456692913,
                    "duration": 0.13333325000002105
                },
                {
                    "name": "F#4",
                    "midi": 66,
                    "time": 341.86645300000305,
                    "velocity": 0.3228346456692913,
                    "duration": 0.13333325000002105
                },
                {
                    "name": "A4",
                    "midi": 69,
                    "time": 341.86645300000305,
                    "velocity": 0.3228346456692913,
                    "duration": 0.13333325000002105
                },
                {
                    "name": "A4",
                    "midi": 69,
                    "time": 342.1331195000031,
                    "velocity": 0.31496062992125984,
                    "duration": 0.13333325000002105
                },
                {
                    "name": "C5",
                    "midi": 72,
                    "time": 342.1331195000031,
                    "velocity": 0.31496062992125984,
                    "duration": 0.13333325000002105
                },
                {
                    "name": "D5",
                    "midi": 74,
                    "time": 342.1331195000031,
                    "velocity": 0.3779527559055118,
                    "duration": 0.13333325000002105
                },
                {
                    "name": "F#4",
                    "midi": 66,
                    "time": 342.1331195000031,
                    "velocity": 0.31496062992125984,
                    "duration": 0.13333325000002105
                },
                {
                    "name": "C5",
                    "midi": 72,
                    "time": 342.39978600000313,
                    "velocity": 0.3700787401574803,
                    "duration": 0.26666649999998526
                },
                {
                    "name": "D5",
                    "midi": 74,
                    "time": 342.39978600000313,
                    "velocity": 0.3700787401574803,
                    "duration": 0.26666649999998526
                },
                {
                    "name": "F#4",
                    "midi": 66,
                    "time": 342.39978600000313,
                    "velocity": 0.3700787401574803,
                    "duration": 0.26666649999998526
                },
                {
                    "name": "F#5",
                    "midi": 78,
                    "time": 342.39978600000313,
                    "velocity": 0.4409448818897638,
                    "duration": 0.26666649999998526
                },
                {
                    "name": "A4",
                    "midi": 69,
                    "time": 342.39978600000313,
                    "velocity": 0.3700787401574803,
                    "duration": 0.26666649999998526
                },
                {
                    "name": "D5",
                    "midi": 74,
                    "time": 342.6664525000031,
                    "velocity": 0.36220472440944884,
                    "duration": 0.2399998500000038
                },
                {
                    "name": "C5",
                    "midi": 72,
                    "time": 342.6664525000031,
                    "velocity": 0.30708661417322836,
                    "duration": 0.2399998500000038
                },
                {
                    "name": "F#4",
                    "midi": 66,
                    "time": 342.6664525000031,
                    "velocity": 0.30708661417322836,
                    "duration": 0.2399998500000038
                },
                {
                    "name": "A4",
                    "midi": 69,
                    "time": 342.6664525000031,
                    "velocity": 0.30708661417322836,
                    "duration": 0.2399998500000038
                },
                {
                    "name": "D5",
                    "midi": 74,
                    "time": 342.9331190000031,
                    "velocity": 0.3543307086614173,
                    "duration": 0.13333325000002105
                },
                {
                    "name": "F#4",
                    "midi": 66,
                    "time": 342.9331190000031,
                    "velocity": 0.2992125984251969,
                    "duration": 0.13333325000002105
                },
                {
                    "name": "A4",
                    "midi": 69,
                    "time": 342.9331190000031,
                    "velocity": 0.2992125984251969,
                    "duration": 0.13333325000002105
                },
                {
                    "name": "C5",
                    "midi": 72,
                    "time": 342.9331190000031,
                    "velocity": 0.2992125984251969,
                    "duration": 0.13333325000002105
                },
                {
                    "name": "C5",
                    "midi": 72,
                    "time": 343.19978550000314,
                    "velocity": 0.29133858267716534,
                    "duration": 0.13333325000002105
                },
                {
                    "name": "A4",
                    "midi": 69,
                    "time": 343.19978550000314,
                    "velocity": 0.29133858267716534,
                    "duration": 0.13333325000002105
                },
                {
                    "name": "F#4",
                    "midi": 66,
                    "time": 343.19978550000314,
                    "velocity": 0.29133858267716534,
                    "duration": 0.13333325000002105
                },
                {
                    "name": "D5",
                    "midi": 74,
                    "time": 343.19978550000314,
                    "velocity": 0.3464566929133858,
                    "duration": 0.13333325000002105
                },
                {
                    "name": "C5",
                    "midi": 72,
                    "time": 343.4664520000032,
                    "velocity": 0.33858267716535434,
                    "duration": 0.26666649999998526
                },
                {
                    "name": "D5",
                    "midi": 74,
                    "time": 343.4664520000032,
                    "velocity": 0.33858267716535434,
                    "duration": 0.26444427916663926
                },
                {
                    "name": "A4",
                    "midi": 69,
                    "time": 343.4664520000032,
                    "velocity": 0.33858267716535434,
                    "duration": 0.26444427916663926
                },
                {
                    "name": "F#4",
                    "midi": 66,
                    "time": 343.4664520000032,
                    "velocity": 0.33858267716535434,
                    "duration": 0.26444427916663926
                },
                {
                    "name": "F#5",
                    "midi": 78,
                    "time": 343.4664520000032,
                    "velocity": 0.4015748031496063,
                    "duration": 0.26666649999998526
                },
                {
                    "name": "A4",
                    "midi": 69,
                    "time": 343.7331185000032,
                    "velocity": 0.2677165354330709,
                    "duration": 0.2399998500000038
                },
                {
                    "name": "F#4",
                    "midi": 66,
                    "time": 343.7331185000032,
                    "velocity": 0.2677165354330709,
                    "duration": 0.2399998500000038
                },
                {
                    "name": "D5",
                    "midi": 74,
                    "time": 343.7331185000032,
                    "velocity": 0.31496062992125984,
                    "duration": 0.2399998500000038
                },
                {
                    "name": "D5",
                    "midi": 74,
                    "time": 343.99978500000316,
                    "velocity": 0.2992125984251969,
                    "duration": 0.13333325000002105
                },
                {
                    "name": "B4",
                    "midi": 71,
                    "time": 343.99978500000316,
                    "velocity": 0.25196850393700787,
                    "duration": 0.13333325000002105
                },
                {
                    "name": "G4",
                    "midi": 67,
                    "time": 343.99978500000316,
                    "velocity": 0.25196850393700787,
                    "duration": 0.13333325000002105
                },
                {
                    "name": "A4",
                    "midi": 69,
                    "time": 344.2664515000032,
                    "velocity": 0.23622047244094488,
                    "duration": 0.13333325000002105
                },
                {
                    "name": "D5",
                    "midi": 74,
                    "time": 344.2664515000032,
                    "velocity": 0.2755905511811024,
                    "duration": 0.13333325000002105
                },
                {
                    "name": "C5",
                    "midi": 72,
                    "time": 344.2664515000032,
                    "velocity": 0.23622047244094488,
                    "duration": 0.13333325000002105
                },
                {
                    "name": "B4",
                    "midi": 71,
                    "time": 344.53311800000324,
                    "velocity": 0.33070866141732286,
                    "duration": 0.2399998500000038
                },
                {
                    "name": "G4",
                    "midi": 67,
                    "time": 344.53311800000324,
                    "velocity": 0.33070866141732286,
                    "duration": 0.2399998500000038
                },
                {
                    "name": "D5",
                    "midi": 74,
                    "time": 344.53311800000324,
                    "velocity": 0.3937007874015748,
                    "duration": 0.2399998500000038
                },
                {
                    "name": "E5",
                    "midi": 76,
                    "time": 344.7997845000032,
                    "velocity": 0.3543307086614173,
                    "duration": 0.2399998500000038
                },
                {
                    "name": "B4",
                    "midi": 71,
                    "time": 344.7997845000032,
                    "velocity": 0.2992125984251969,
                    "duration": 0.2399998500000038
                },
                {
                    "name": "G4",
                    "midi": 67,
                    "time": 344.7997845000032,
                    "velocity": 0.2992125984251969,
                    "duration": 0.2399998500000038
                },
                {
                    "name": "B4",
                    "midi": 71,
                    "time": 345.0664510000032,
                    "velocity": 0.2992125984251969,
                    "duration": 0.2399998500000038
                },
                {
                    "name": "F#5",
                    "midi": 78,
                    "time": 345.0664510000032,
                    "velocity": 0.3543307086614173,
                    "duration": 0.2399998500000038
                },
                {
                    "name": "G4",
                    "midi": 67,
                    "time": 345.0664510000032,
                    "velocity": 0.2992125984251969,
                    "duration": 0.2399998500000038
                },
                {
                    "name": "G5",
                    "midi": 79,
                    "time": 345.3331175000032,
                    "velocity": 0.3543307086614173,
                    "duration": 0.2399998500000038
                },
                {
                    "name": "G4",
                    "midi": 67,
                    "time": 345.3331175000032,
                    "velocity": 0.2992125984251969,
                    "duration": 0.2399998500000038
                },
                {
                    "name": "B4",
                    "midi": 71,
                    "time": 345.3331175000032,
                    "velocity": 0.2992125984251969,
                    "duration": 0.2399998500000038
                },
                {
                    "name": "B4",
                    "midi": 71,
                    "time": 345.5997840000032,
                    "velocity": 0.41732283464566927,
                    "duration": 0.2399998500000038
                },
                {
                    "name": "G4",
                    "midi": 67,
                    "time": 345.5997840000032,
                    "velocity": 0.3543307086614173,
                    "duration": 0.2399998500000038
                },
                {
                    "name": "G5",
                    "midi": 79,
                    "time": 345.5997840000032,
                    "velocity": 0.41732283464566927,
                    "duration": 0.2399998500000038
                },
                {
                    "name": "G4",
                    "midi": 67,
                    "time": 345.86645050000317,
                    "velocity": 0.2755905511811024,
                    "duration": 0.2399998500000038
                },
                {
                    "name": "B4",
                    "midi": 71,
                    "time": 345.86645050000317,
                    "velocity": 0.3228346456692913,
                    "duration": 0.2399998500000038
                },
                {
                    "name": "G4",
                    "midi": 67,
                    "time": 346.13311700000315,
                    "velocity": 0.29133858267716534,
                    "duration": 0.2399998500000038
                },
                {
                    "name": "B4",
                    "midi": 71,
                    "time": 346.13311700000315,
                    "velocity": 0.3464566929133858,
                    "duration": 0.2399998500000038
                },
                {
                    "name": "B4",
                    "midi": 71,
                    "time": 346.39978350000314,
                    "velocity": 0.3228346456692913,
                    "duration": 0.2399998500000038
                },
                {
                    "name": "G4",
                    "midi": 67,
                    "time": 346.39978350000314,
                    "velocity": 0.2755905511811024,
                    "duration": 0.2399998500000038
                },
                {
                    "name": "G4",
                    "midi": 67,
                    "time": 346.6664500000031,
                    "velocity": 0.3464566929133858,
                    "duration": 0.2399998500000038
                },
                {
                    "name": "G5",
                    "midi": 79,
                    "time": 346.6664500000031,
                    "velocity": 0.4094488188976378,
                    "duration": 0.2399998500000038
                },
                {
                    "name": "A#4",
                    "midi": 70,
                    "time": 346.6664500000031,
                    "velocity": 0.3464566929133858,
                    "duration": 0.2399998500000038
                },
                {
                    "name": "C#5",
                    "midi": 73,
                    "time": 346.9331165000031,
                    "velocity": 0.33070866141732286,
                    "duration": 0.2399998500000038
                },
                {
                    "name": "G4",
                    "midi": 67,
                    "time": 346.9331165000031,
                    "velocity": 0.28346456692913385,
                    "duration": 0.2399998500000038
                },
                {
                    "name": "A#4",
                    "midi": 70,
                    "time": 346.9331165000031,
                    "velocity": 0.28346456692913385,
                    "duration": 0.2399998500000038
                },
                {
                    "name": "G4",
                    "midi": 67,
                    "time": 347.1997830000031,
                    "velocity": 0.2992125984251969,
                    "duration": 0.2399998500000038
                },
                {
                    "name": "C#5",
                    "midi": 73,
                    "time": 347.1997830000031,
                    "velocity": 0.3543307086614173,
                    "duration": 0.2399998500000038
                },
                {
                    "name": "A#4",
                    "midi": 70,
                    "time": 347.1997830000031,
                    "velocity": 0.2992125984251969,
                    "duration": 0.2399998500000038
                },
                {
                    "name": "C#5",
                    "midi": 73,
                    "time": 347.4664495000031,
                    "velocity": 0.33070866141732286,
                    "duration": 0.2399998500000038
                },
                {
                    "name": "A#4",
                    "midi": 70,
                    "time": 347.4664495000031,
                    "velocity": 0.28346456692913385,
                    "duration": 0.2399998500000038
                },
                {
                    "name": "G4",
                    "midi": 67,
                    "time": 347.4664495000031,
                    "velocity": 0.28346456692913385,
                    "duration": 0.2399998500000038
                },
                {
                    "name": "B4",
                    "midi": 71,
                    "time": 347.73311600000306,
                    "velocity": 0.3779527559055118,
                    "duration": 1.066665999999998
                },
                {
                    "name": "D5",
                    "midi": 74,
                    "time": 347.73311600000306,
                    "velocity": 0.44881889763779526,
                    "duration": 1.066665999999998
                },
                {
                    "name": "G4",
                    "midi": 67,
                    "time": 347.73311600000306,
                    "velocity": 0.3779527559055118,
                    "duration": 1.066665999999998
                },
                {
                    "name": "B4",
                    "midi": 71,
                    "time": 348.79978200000306,
                    "velocity": 0.33070866141732286,
                    "duration": 0.2399998500000038
                },
                {
                    "name": "G4",
                    "midi": 67,
                    "time": 348.79978200000306,
                    "velocity": 0.33070866141732286,
                    "duration": 0.2399998500000038
                },
                {
                    "name": "E5",
                    "midi": 76,
                    "time": 348.79978200000306,
                    "velocity": 0.3937007874015748,
                    "duration": 0.2399998500000038
                },
                {
                    "name": "D5",
                    "midi": 74,
                    "time": 349.06644850000305,
                    "velocity": 0.3543307086614173,
                    "duration": 0.2399998500000038
                },
                {
                    "name": "B4",
                    "midi": 71,
                    "time": 349.06644850000305,
                    "velocity": 0.2992125984251969,
                    "duration": 0.2399998500000038
                },
                {
                    "name": "G4",
                    "midi": 67,
                    "time": 349.06644850000305,
                    "velocity": 0.2992125984251969,
                    "duration": 0.2399998500000038
                },
                {
                    "name": "G4",
                    "midi": 67,
                    "time": 349.33311500000303,
                    "velocity": 0.2992125984251969,
                    "duration": 0.2399998500000038
                },
                {
                    "name": "B4",
                    "midi": 71,
                    "time": 349.33311500000303,
                    "velocity": 0.3543307086614173,
                    "duration": 0.2399998500000038
                },
                {
                    "name": "G4",
                    "midi": 67,
                    "time": 349.599781500003,
                    "velocity": 0.3543307086614173,
                    "duration": 0.2399998500000038
                },
                {
                    "name": "G4",
                    "midi": 67,
                    "time": 349.866448000003,
                    "velocity": 0.41732283464566927,
                    "duration": 0.2399998500000038
                },
                {
                    "name": "B4",
                    "midi": 71,
                    "time": 349.866448000003,
                    "velocity": 0.41732283464566927,
                    "duration": 0.2399998500000038
                },
                {
                    "name": "D4",
                    "midi": 62,
                    "time": 349.866448000003,
                    "velocity": 0.3543307086614173,
                    "duration": 0.2399998500000038
                },
                {
                    "name": "A4",
                    "midi": 69,
                    "time": 350.133114500003,
                    "velocity": 0.3228346456692913,
                    "duration": 0.2399998500000038
                },
                {
                    "name": "D4",
                    "midi": 62,
                    "time": 350.133114500003,
                    "velocity": 0.2755905511811024,
                    "duration": 0.2399998500000038
                },
                {
                    "name": "F#4",
                    "midi": 66,
                    "time": 350.133114500003,
                    "velocity": 0.2755905511811024,
                    "duration": 0.26666649999998526
                },
                {
                    "name": "F#4",
                    "midi": 66,
                    "time": 350.399781000003,
                    "velocity": 0.29133858267716534,
                    "duration": 0.26666649999998526
                },
                {
                    "name": "D4",
                    "midi": 62,
                    "time": 350.399781000003,
                    "velocity": 0.29133858267716534,
                    "duration": 0.2399998500000038
                },
                {
                    "name": "A4",
                    "midi": 69,
                    "time": 350.399781000003,
                    "velocity": 0.3464566929133858,
                    "duration": 0.2399998500000038
                },
                {
                    "name": "F#4",
                    "midi": 66,
                    "time": 350.66644750000296,
                    "velocity": 0.2755905511811024,
                    "duration": 0.26666649999998526
                },
                {
                    "name": "A4",
                    "midi": 69,
                    "time": 350.66644750000296,
                    "velocity": 0.3228346456692913,
                    "duration": 0.2399998500000038
                },
                {
                    "name": "D4",
                    "midi": 62,
                    "time": 350.66644750000296,
                    "velocity": 0.2755905511811024,
                    "duration": 0.2399998500000038
                },
                {
                    "name": "E5",
                    "midi": 76,
                    "time": 350.93311400000294,
                    "velocity": 0.4094488188976378,
                    "duration": 0.2399998500000038
                },
                {
                    "name": "A#4",
                    "midi": 70,
                    "time": 350.93311400000294,
                    "velocity": 0.3464566929133858,
                    "duration": 0.2399998500000038
                },
                {
                    "name": "G4",
                    "midi": 67,
                    "time": 350.93311400000294,
                    "velocity": 0.3464566929133858,
                    "duration": 0.2399998500000038
                },
                {
                    "name": "C#5",
                    "midi": 73,
                    "time": 351.19978050000293,
                    "velocity": 0.33070866141732286,
                    "duration": 0.2399998500000038
                },
                {
                    "name": "G4",
                    "midi": 67,
                    "time": 351.19978050000293,
                    "velocity": 0.28346456692913385,
                    "duration": 0.2399998500000038
                },
                {
                    "name": "A#4",
                    "midi": 70,
                    "time": 351.19978050000293,
                    "velocity": 0.28346456692913385,
                    "duration": 0.2399998500000038
                },
                {
                    "name": "A#4",
                    "midi": 70,
                    "time": 351.4664470000029,
                    "velocity": 0.2992125984251969,
                    "duration": 0.2399998500000038
                },
                {
                    "name": "C#5",
                    "midi": 73,
                    "time": 351.4664470000029,
                    "velocity": 0.3543307086614173,
                    "duration": 0.2399998500000038
                },
                {
                    "name": "G4",
                    "midi": 67,
                    "time": 351.4664470000029,
                    "velocity": 0.2992125984251969,
                    "duration": 0.2399998500000038
                },
                {
                    "name": "A#4",
                    "midi": 70,
                    "time": 351.7331135000029,
                    "velocity": 0.28346456692913385,
                    "duration": 0.2399998500000038
                },
                {
                    "name": "C#5",
                    "midi": 73,
                    "time": 351.7331135000029,
                    "velocity": 0.33070866141732286,
                    "duration": 0.2399998500000038
                },
                {
                    "name": "G4",
                    "midi": 67,
                    "time": 351.7331135000029,
                    "velocity": 0.28346456692913385,
                    "duration": 0.2399998500000038
                },
                {
                    "name": "D5",
                    "midi": 74,
                    "time": 351.9997800000029,
                    "velocity": 0.44881889763779526,
                    "duration": 1.066665999999998
                },
                {
                    "name": "F#4",
                    "midi": 66,
                    "time": 351.9997800000029,
                    "velocity": 0.3779527559055118,
                    "duration": 1.066665999999998
                },
                {
                    "name": "A4",
                    "midi": 69,
                    "time": 351.9997800000029,
                    "velocity": 0.3779527559055118,
                    "duration": 1.066665999999998
                },
                {
                    "name": "D5",
                    "midi": 74,
                    "time": 353.0664460000029,
                    "velocity": 0.3937007874015748,
                    "duration": 0.2399998500000038
                },
                {
                    "name": "A4",
                    "midi": 69,
                    "time": 353.0664460000029,
                    "velocity": 0.33070866141732286,
                    "duration": 0.2399998500000038
                },
                {
                    "name": "F4",
                    "midi": 65,
                    "time": 353.0664460000029,
                    "velocity": 0.33070866141732286,
                    "duration": 0.2399998500000038
                },
                {
                    "name": "A4",
                    "midi": 69,
                    "time": 353.33311250000287,
                    "velocity": 0.30708661417322836,
                    "duration": 0.2399998500000038
                },
                {
                    "name": "F4",
                    "midi": 65,
                    "time": 353.33311250000287,
                    "velocity": 0.30708661417322836,
                    "duration": 0.2399998500000038
                },
                {
                    "name": "D5",
                    "midi": 74,
                    "time": 353.33311250000287,
                    "velocity": 0.3700787401574803,
                    "duration": 0.2399998500000038
                },
                {
                    "name": "A4",
                    "midi": 69,
                    "time": 353.59977900000285,
                    "velocity": 0.3228346456692913,
                    "duration": 0.2399998500000038
                },
                {
                    "name": "F4",
                    "midi": 65,
                    "time": 353.59977900000285,
                    "velocity": 0.3228346456692913,
                    "duration": 0.2399998500000038
                },
                {
                    "name": "E5",
                    "midi": 76,
                    "time": 353.59977900000285,
                    "velocity": 0.3858267716535433,
                    "duration": 0.2399998500000038
                },
                {
                    "name": "A4",
                    "midi": 69,
                    "time": 353.86644550000284,
                    "velocity": 0.33858267716535434,
                    "duration": 0.2399998500000038
                },
                {
                    "name": "F5",
                    "midi": 77,
                    "time": 353.86644550000284,
                    "velocity": 0.4015748031496063,
                    "duration": 0.2399998500000038
                },
                {
                    "name": "G#4",
                    "midi": 68,
                    "time": 354.1331120000028,
                    "velocity": 0.41732283464566927,
                    "duration": 0.2399998500000038
                },
                {
                    "name": "F5",
                    "midi": 77,
                    "time": 354.1331120000028,
                    "velocity": 0.41732283464566927,
                    "duration": 0.2399998500000038
                },
                {
                    "name": "E4",
                    "midi": 64,
                    "time": 354.1331120000028,
                    "velocity": 0.3543307086614173,
                    "duration": 0.2399998500000038
                },
                {
                    "name": "G#4",
                    "midi": 68,
                    "time": 354.3997785000028,
                    "velocity": 0.2755905511811024,
                    "duration": 0.26666649999998526
                },
                {
                    "name": "E4",
                    "midi": 64,
                    "time": 354.3997785000028,
                    "velocity": 0.2755905511811024,
                    "duration": 0.2399998500000038
                },
                {
                    "name": "B4",
                    "midi": 71,
                    "time": 354.3997785000028,
                    "velocity": 0.3228346456692913,
                    "duration": 0.2399998500000038
                },
                {
                    "name": "G#4",
                    "midi": 68,
                    "time": 354.6664450000028,
                    "velocity": 0.29133858267716534,
                    "duration": 0.26666649999998526
                },
                {
                    "name": "B4",
                    "midi": 71,
                    "time": 354.6664450000028,
                    "velocity": 0.3464566929133858,
                    "duration": 0.2399998500000038
                },
                {
                    "name": "E4",
                    "midi": 64,
                    "time": 354.6664450000028,
                    "velocity": 0.29133858267716534,
                    "duration": 0.2399998500000038
                },
                {
                    "name": "G#4",
                    "midi": 68,
                    "time": 354.9331115000028,
                    "velocity": 0.2755905511811024,
                    "duration": 0.26666649999998526
                },
                {
                    "name": "E4",
                    "midi": 64,
                    "time": 354.9331115000028,
                    "velocity": 0.2755905511811024,
                    "duration": 0.2399998500000038
                },
                {
                    "name": "B4",
                    "midi": 71,
                    "time": 354.9331115000028,
                    "velocity": 0.3228346456692913,
                    "duration": 0.2399998500000038
                },
                {
                    "name": "E4",
                    "midi": 64,
                    "time": 355.19977800000277,
                    "velocity": 0.3464566929133858,
                    "duration": 0.2399998500000038
                },
                {
                    "name": "A4",
                    "midi": 69,
                    "time": 355.19977800000277,
                    "velocity": 0.3464566929133858,
                    "duration": 0.2399998500000038
                },
                {
                    "name": "C5",
                    "midi": 72,
                    "time": 355.19977800000277,
                    "velocity": 0.4094488188976378,
                    "duration": 0.2399998500000038
                },
                {
                    "name": "C5",
                    "midi": 72,
                    "time": 355.46644450000275,
                    "velocity": 0.3543307086614173,
                    "duration": 0.2399998500000038
                },
                {
                    "name": "E4",
                    "midi": 64,
                    "time": 355.46644450000275,
                    "velocity": 0.2992125984251969,
                    "duration": 0.2399998500000038
                },
                {
                    "name": "A4",
                    "midi": 69,
                    "time": 355.46644450000275,
                    "velocity": 0.2992125984251969,
                    "duration": 0.2399998500000038
                },
                {
                    "name": "D5",
                    "midi": 74,
                    "time": 355.73311100000274,
                    "velocity": 0.3543307086614173,
                    "duration": 0.2399998500000038
                },
                {
                    "name": "E4",
                    "midi": 64,
                    "time": 355.73311100000274,
                    "velocity": 0.2992125984251969,
                    "duration": 0.2399998500000038
                },
                {
                    "name": "A4",
                    "midi": 69,
                    "time": 355.73311100000274,
                    "velocity": 0.2992125984251969,
                    "duration": 0.2399998500000038
                },
                {
                    "name": "E5",
                    "midi": 76,
                    "time": 355.9997775000027,
                    "velocity": 0.3543307086614173,
                    "duration": 0.2399998500000038
                },
                {
                    "name": "E4",
                    "midi": 64,
                    "time": 355.9997775000027,
                    "velocity": 0.2992125984251969,
                    "duration": 0.2399998500000038
                },
                {
                    "name": "G4",
                    "midi": 67,
                    "time": 355.9997775000027,
                    "velocity": 0.2992125984251969,
                    "duration": 0.2399998500000038
                },
                {
                    "name": "F#4",
                    "midi": 66,
                    "time": 356.2664440000027,
                    "velocity": 0.41732283464566927,
                    "duration": 0.2399998500000038
                },
                {
                    "name": "E5",
                    "midi": 76,
                    "time": 356.2664440000027,
                    "velocity": 0.41732283464566927,
                    "duration": 0.2399998500000038
                },
                {
                    "name": "D4",
                    "midi": 62,
                    "time": 356.2664440000027,
                    "velocity": 0.3543307086614173,
                    "duration": 0.2399998500000038
                },
                {
                    "name": "D4",
                    "midi": 62,
                    "time": 356.5331105000027,
                    "velocity": 0.2755905511811024,
                    "duration": 0.2399998500000038
                },
                {
                    "name": "A4",
                    "midi": 69,
                    "time": 356.5331105000027,
                    "velocity": 0.3228346456692913,
                    "duration": 0.2399998500000038
                },
                {
                    "name": "F#4",
                    "midi": 66,
                    "time": 356.5331105000027,
                    "velocity": 0.2755905511811024,
                    "duration": 0.26666649999998526
                },
                {
                    "name": "D4",
                    "midi": 62,
                    "time": 356.7997770000027,
                    "velocity": 0.29133858267716534,
                    "duration": 0.2399998500000038
                },
                {
                    "name": "F#4",
                    "midi": 66,
                    "time": 356.7997770000027,
                    "velocity": 0.29133858267716534,
                    "duration": 0.26666649999998526
                },
                {
                    "name": "A4",
                    "midi": 69,
                    "time": 356.7997770000027,
                    "velocity": 0.3464566929133858,
                    "duration": 0.2399998500000038
                },
                {
                    "name": "D4",
                    "midi": 62,
                    "time": 357.06644350000266,
                    "velocity": 0.2755905511811024,
                    "duration": 0.2399998500000038
                },
                {
                    "name": "F#4",
                    "midi": 66,
                    "time": 357.06644350000266,
                    "velocity": 0.2755905511811024,
                    "duration": 0.26666649999998526
                },
                {
                    "name": "A4",
                    "midi": 69,
                    "time": 357.06644350000266,
                    "velocity": 0.3228346456692913,
                    "duration": 0.2399998500000038
                },
                {
                    "name": "B4",
                    "midi": 71,
                    "time": 357.33311000000265,
                    "velocity": 0.4094488188976378,
                    "duration": 0.2399998500000038
                },
                {
                    "name": "G4",
                    "midi": 67,
                    "time": 357.33311000000265,
                    "velocity": 0.3464566929133858,
                    "duration": 0.2399998500000038
                },
                {
                    "name": "D4",
                    "midi": 62,
                    "time": 357.33311000000265,
                    "velocity": 0.3464566929133858,
                    "duration": 0.2399998500000038
                },
                {
                    "name": "D4",
                    "midi": 62,
                    "time": 357.59977650000263,
                    "velocity": 0.3543307086614173,
                    "duration": 0.2399998500000038
                },
                {
                    "name": "E5",
                    "midi": 76,
                    "time": 357.59977650000263,
                    "velocity": 0.4251968503937008,
                    "duration": 0.2399998500000038
                },
                {
                    "name": "G4",
                    "midi": 67,
                    "time": 357.59977650000263,
                    "velocity": 0.3543307086614173,
                    "duration": 0.2399998500000038
                },
                {
                    "name": "G4",
                    "midi": 67,
                    "time": 357.8664430000026,
                    "velocity": 0.33858267716535434,
                    "duration": 0.2399998500000038
                },
                {
                    "name": "D5",
                    "midi": 74,
                    "time": 357.8664430000026,
                    "velocity": 0.4015748031496063,
                    "duration": 0.2399998500000038
                },
                {
                    "name": "D4",
                    "midi": 62,
                    "time": 357.8664430000026,
                    "velocity": 0.33858267716535434,
                    "duration": 0.2399998500000038
                },
                {
                    "name": "D4",
                    "midi": 62,
                    "time": 358.1331095000026,
                    "velocity": 0.31496062992125984,
                    "duration": 0.2399998500000038
                },
                {
                    "name": "G4",
                    "midi": 67,
                    "time": 358.1331095000026,
                    "velocity": 0.31496062992125984,
                    "duration": 0.2399998500000038
                },
                {
                    "name": "B4",
                    "midi": 71,
                    "time": 358.1331095000026,
                    "velocity": 0.3779527559055118,
                    "duration": 0.2399998500000038
                },
                {
                    "name": "F#4",
                    "midi": 66,
                    "time": 358.3997760000026,
                    "velocity": 0.41732283464566927,
                    "duration": 0.2399998500000038
                },
                {
                    "name": "D4",
                    "midi": 62,
                    "time": 358.3997760000026,
                    "velocity": 0.3543307086614173,
                    "duration": 0.2399998500000038
                },
                {
                    "name": "D5",
                    "midi": 74,
                    "time": 358.3997760000026,
                    "velocity": 0.41732283464566927,
                    "duration": 0.2399998500000038
                },
                {
                    "name": "A4",
                    "midi": 69,
                    "time": 358.6664425000026,
                    "velocity": 0.3228346456692913,
                    "duration": 0.2399998500000038
                },
                {
                    "name": "D4",
                    "midi": 62,
                    "time": 358.6664425000026,
                    "velocity": 0.2755905511811024,
                    "duration": 0.2399998500000038
                },
                {
                    "name": "F#4",
                    "midi": 66,
                    "time": 358.6664425000026,
                    "velocity": 0.2755905511811024,
                    "duration": 0.26666649999998526
                },
                {
                    "name": "D4",
                    "midi": 62,
                    "time": 358.93310900000256,
                    "velocity": 0.29133858267716534,
                    "duration": 0.2399998500000038
                },
                {
                    "name": "A4",
                    "midi": 69,
                    "time": 358.93310900000256,
                    "velocity": 0.3464566929133858,
                    "duration": 0.2399998500000038
                },
                {
                    "name": "F#4",
                    "midi": 66,
                    "time": 358.93310900000256,
                    "velocity": 0.29133858267716534,
                    "duration": 0.26666649999998526
                },
                {
                    "name": "F#4",
                    "midi": 66,
                    "time": 359.19977550000254,
                    "velocity": 0.2755905511811024,
                    "duration": 0.26666649999998526
                },
                {
                    "name": "A4",
                    "midi": 69,
                    "time": 359.19977550000254,
                    "velocity": 0.3228346456692913,
                    "duration": 0.2399998500000038
                },
                {
                    "name": "D4",
                    "midi": 62,
                    "time": 359.19977550000254,
                    "velocity": 0.2755905511811024,
                    "duration": 0.2399998500000038
                },
                {
                    "name": "B4",
                    "midi": 71,
                    "time": 359.46644200000253,
                    "velocity": 0.4094488188976378,
                    "duration": 0.2399998500000038
                },
                {
                    "name": "D4",
                    "midi": 62,
                    "time": 359.46644200000253,
                    "velocity": 0.3464566929133858,
                    "duration": 0.2399998500000038
                },
                {
                    "name": "G4",
                    "midi": 67,
                    "time": 359.46644200000253,
                    "velocity": 0.3464566929133858,
                    "duration": 0.2399998500000038
                },
                {
                    "name": "D4",
                    "midi": 62,
                    "time": 359.7331085000025,
                    "velocity": 0.3543307086614173,
                    "duration": 0.2399998500000038
                },
                {
                    "name": "E5",
                    "midi": 76,
                    "time": 359.7331085000025,
                    "velocity": 0.4251968503937008,
                    "duration": 0.2399998500000038
                },
                {
                    "name": "G4",
                    "midi": 67,
                    "time": 359.7331085000025,
                    "velocity": 0.3543307086614173,
                    "duration": 0.2399998500000038
                },
                {
                    "name": "D5",
                    "midi": 74,
                    "time": 359.9997750000025,
                    "velocity": 0.4015748031496063,
                    "duration": 0.2399998500000038
                },
                {
                    "name": "G4",
                    "midi": 67,
                    "time": 359.9997750000025,
                    "velocity": 0.33858267716535434,
                    "duration": 0.2399998500000038
                },
                {
                    "name": "D4",
                    "midi": 62,
                    "time": 359.9997750000025,
                    "velocity": 0.33858267716535434,
                    "duration": 0.2399998500000038
                },
                {
                    "name": "D4",
                    "midi": 62,
                    "time": 360.2664415000025,
                    "velocity": 0.31496062992125984,
                    "duration": 0.2399998500000038
                },
                {
                    "name": "G4",
                    "midi": 67,
                    "time": 360.2664415000025,
                    "velocity": 0.31496062992125984,
                    "duration": 0.2399998500000038
                },
                {
                    "name": "B4",
                    "midi": 71,
                    "time": 360.2664415000025,
                    "velocity": 0.3779527559055118,
                    "duration": 0.2399998500000038
                },
                {
                    "name": "F#4",
                    "midi": 66,
                    "time": 360.53310800000247,
                    "velocity": 0.30708661417322836,
                    "duration": 0.2399998500000038
                },
                {
                    "name": "D5",
                    "midi": 74,
                    "time": 360.53310800000247,
                    "velocity": 0.3700787401574803,
                    "duration": 0.2399998500000038
                },
                {
                    "name": "D4",
                    "midi": 62,
                    "time": 360.53310800000247,
                    "velocity": 0.30708661417322836,
                    "duration": 0.2399998500000038
                },
                {
                    "name": "F#4",
                    "midi": 66,
                    "time": 360.79977450000246,
                    "velocity": 0.2677165354330709,
                    "duration": 0.26666649999998526
                },
                {
                    "name": "D4",
                    "midi": 62,
                    "time": 360.79977450000246,
                    "velocity": 0.2677165354330709,
                    "duration": 0.2399998500000038
                },
                {
                    "name": "A4",
                    "midi": 69,
                    "time": 360.79977450000246,
                    "velocity": 0.31496062992125984,
                    "duration": 0.2399998500000038
                },
                {
                    "name": "D5",
                    "midi": 74,
                    "time": 361.06644100000244,
                    "velocity": 0.28346456692913385,
                    "duration": 0.2399998500000038
                },
                {
                    "name": "F#4",
                    "midi": 66,
                    "time": 361.06644100000244,
                    "velocity": 0.23622047244094488,
                    "duration": 0.26666649999998526
                },
                {
                    "name": "A4",
                    "midi": 69,
                    "time": 361.06644100000244,
                    "velocity": 0.23622047244094488,
                    "duration": 0.2399998500000038
                },
                {
                    "name": "F#4",
                    "midi": 66,
                    "time": 361.3331075000024,
                    "velocity": 0.2204724409448819,
                    "duration": 0.26666649999998526
                },
                {
                    "name": "D5",
                    "midi": 74,
                    "time": 361.3331075000024,
                    "velocity": 0.25984251968503935,
                    "duration": 0.2399998500000038
                },
                {
                    "name": "A#4",
                    "midi": 70,
                    "time": 361.3331075000024,
                    "velocity": 0.2204724409448819,
                    "duration": 0.2399998500000038
                },
                {
                    "name": "B4",
                    "midi": 71,
                    "time": 361.5997740000024,
                    "velocity": 0.29133858267716534,
                    "duration": 0.2399998500000038
                },
                {
                    "name": "D5",
                    "midi": 74,
                    "time": 361.5997740000024,
                    "velocity": 0.3543307086614173,
                    "duration": 0.2399998500000038
                },
                {
                    "name": "G4",
                    "midi": 67,
                    "time": 361.5997740000024,
                    "velocity": 0.29133858267716534,
                    "duration": 0.2399998500000038
                },
                {
                    "name": "E5",
                    "midi": 76,
                    "time": 361.8664405000024,
                    "velocity": 0.3543307086614173,
                    "duration": 0.2399998500000038
                },
                {
                    "name": "G4",
                    "midi": 67,
                    "time": 361.8664405000024,
                    "velocity": 0.2992125984251969,
                    "duration": 0.2399998500000038
                },
                {
                    "name": "B4",
                    "midi": 71,
                    "time": 361.8664405000024,
                    "velocity": 0.2992125984251969,
                    "duration": 0.2399998500000038
                },
                {
                    "name": "F#5",
                    "midi": 78,
                    "time": 362.1331070000024,
                    "velocity": 0.3543307086614173,
                    "duration": 0.2399998500000038
                },
                {
                    "name": "B4",
                    "midi": 71,
                    "time": 362.1331070000024,
                    "velocity": 0.2992125984251969,
                    "duration": 0.2399998500000038
                },
                {
                    "name": "G4",
                    "midi": 67,
                    "time": 362.1331070000024,
                    "velocity": 0.2992125984251969,
                    "duration": 0.2399998500000038
                },
                {
                    "name": "G4",
                    "midi": 67,
                    "time": 362.39977350000237,
                    "velocity": 0.2992125984251969,
                    "duration": 0.2399998500000038
                },
                {
                    "name": "G5",
                    "midi": 79,
                    "time": 362.39977350000237,
                    "velocity": 0.3543307086614173,
                    "duration": 0.2399998500000038
                },
                {
                    "name": "B4",
                    "midi": 71,
                    "time": 362.39977350000237,
                    "velocity": 0.2992125984251969,
                    "duration": 0.2399998500000038
                },
                {
                    "name": "B4",
                    "midi": 71,
                    "time": 362.66644000000235,
                    "velocity": 0.41732283464566927,
                    "duration": 0.2399998500000038
                },
                {
                    "name": "G4",
                    "midi": 67,
                    "time": 362.66644000000235,
                    "velocity": 0.3543307086614173,
                    "duration": 0.2399998500000038
                },
                {
                    "name": "G5",
                    "midi": 79,
                    "time": 362.66644000000235,
                    "velocity": 0.41732283464566927,
                    "duration": 0.2399998500000038
                },
                {
                    "name": "G4",
                    "midi": 67,
                    "time": 362.93310650000234,
                    "velocity": 0.2755905511811024,
                    "duration": 0.2399998500000038
                },
                {
                    "name": "B4",
                    "midi": 71,
                    "time": 362.93310650000234,
                    "velocity": 0.3228346456692913,
                    "duration": 0.2399998500000038
                },
                {
                    "name": "G4",
                    "midi": 67,
                    "time": 363.1997730000023,
                    "velocity": 0.29133858267716534,
                    "duration": 0.2399998500000038
                },
                {
                    "name": "B4",
                    "midi": 71,
                    "time": 363.1997730000023,
                    "velocity": 0.3464566929133858,
                    "duration": 0.2399998500000038
                },
                {
                    "name": "G4",
                    "midi": 67,
                    "time": 363.4664395000023,
                    "velocity": 0.2755905511811024,
                    "duration": 0.2399998500000038
                },
                {
                    "name": "B4",
                    "midi": 71,
                    "time": 363.4664395000023,
                    "velocity": 0.3228346456692913,
                    "duration": 0.2399998500000038
                },
                {
                    "name": "G5",
                    "midi": 79,
                    "time": 363.7331060000023,
                    "velocity": 0.4094488188976378,
                    "duration": 0.2399998500000038
                },
                {
                    "name": "G4",
                    "midi": 67,
                    "time": 363.7331060000023,
                    "velocity": 0.3464566929133858,
                    "duration": 0.2399998500000038
                },
                {
                    "name": "A#4",
                    "midi": 70,
                    "time": 363.7331060000023,
                    "velocity": 0.3464566929133858,
                    "duration": 0.2399998500000038
                },
                {
                    "name": "G4",
                    "midi": 67,
                    "time": 363.9997725000023,
                    "velocity": 0.2992125984251969,
                    "duration": 0.2399998500000038
                },
                {
                    "name": "A#4",
                    "midi": 70,
                    "time": 363.9997725000023,
                    "velocity": 0.2992125984251969,
                    "duration": 0.2399998500000038
                },
                {
                    "name": "C#5",
                    "midi": 73,
                    "time": 363.9997725000023,
                    "velocity": 0.3543307086614173,
                    "duration": 0.2399998500000038
                },
                {
                    "name": "A#4",
                    "midi": 70,
                    "time": 364.26643900000226,
                    "velocity": 0.2992125984251969,
                    "duration": 0.2399998500000038
                },
                {
                    "name": "G4",
                    "midi": 67,
                    "time": 364.26643900000226,
                    "velocity": 0.2992125984251969,
                    "duration": 0.2399998500000038
                },
                {
                    "name": "C#5",
                    "midi": 73,
                    "time": 364.26643900000226,
                    "velocity": 0.3543307086614173,
                    "duration": 0.2399998500000038
                },
                {
                    "name": "G4",
                    "midi": 67,
                    "time": 364.53310550000225,
                    "velocity": 0.2992125984251969,
                    "duration": 0.2399998500000038
                },
                {
                    "name": "C#5",
                    "midi": 73,
                    "time": 364.53310550000225,
                    "velocity": 0.3543307086614173,
                    "duration": 0.2399998500000038
                },
                {
                    "name": "A#4",
                    "midi": 70,
                    "time": 364.53310550000225,
                    "velocity": 0.2992125984251969,
                    "duration": 0.2399998500000038
                },
                {
                    "name": "D5",
                    "midi": 74,
                    "time": 364.79977200000224,
                    "velocity": 0.44881889763779526,
                    "duration": 1.066665999999998
                },
                {
                    "name": "B4",
                    "midi": 71,
                    "time": 364.79977200000224,
                    "velocity": 0.3779527559055118,
                    "duration": 1.066665999999998
                },
                {
                    "name": "G4",
                    "midi": 67,
                    "time": 364.79977200000224,
                    "velocity": 0.3779527559055118,
                    "duration": 1.066665999999998
                },
                {
                    "name": "B4",
                    "midi": 71,
                    "time": 365.86643800000223,
                    "velocity": 0.4015748031496063,
                    "duration": 0.2399998500000038
                },
                {
                    "name": "F5",
                    "midi": 77,
                    "time": 365.86643800000223,
                    "velocity": 0.48031496062992124,
                    "duration": 0.2399998500000038
                },
                {
                    "name": "G4",
                    "midi": 67,
                    "time": 365.86643800000223,
                    "velocity": 0.4015748031496063,
                    "duration": 0.2399998500000038
                },
                {
                    "name": "G4",
                    "midi": 67,
                    "time": 366.1331045000022,
                    "velocity": 0.3464566929133858,
                    "duration": 0.2399998500000038
                },
                {
                    "name": "B4",
                    "midi": 71,
                    "time": 366.1331045000022,
                    "velocity": 0.3464566929133858,
                    "duration": 0.2399998500000038
                },
                {
                    "name": "E5",
                    "midi": 76,
                    "time": 366.1331045000022,
                    "velocity": 0.4094488188976378,
                    "duration": 0.2399998500000038
                },
                {
                    "name": "F5",
                    "midi": 77,
                    "time": 366.3997710000022,
                    "velocity": 0.44881889763779526,
                    "duration": 0.2399998500000038
                },
                {
                    "name": "G4",
                    "midi": 67,
                    "time": 366.3997710000022,
                    "velocity": 0.3779527559055118,
                    "duration": 0.2399998500000038
                },
                {
                    "name": "B4",
                    "midi": 71,
                    "time": 366.3997710000022,
                    "velocity": 0.3779527559055118,
                    "duration": 0.26666649999998526
                },
                {
                    "name": "B4",
                    "midi": 71,
                    "time": 366.6664375000022,
                    "velocity": 0.3464566929133858,
                    "duration": 0.26666649999998526
                },
                {
                    "name": "G5",
                    "midi": 79,
                    "time": 366.6664375000022,
                    "velocity": 0.4094488188976378,
                    "duration": 0.2399998500000038
                },
                {
                    "name": "F5",
                    "midi": 77,
                    "time": 366.9331040000022,
                    "velocity": 0.49606299212598426,
                    "duration": 0.2399998500000038
                },
                {
                    "name": "C5",
                    "midi": 72,
                    "time": 366.9331040000022,
                    "velocity": 0.41732283464566927,
                    "duration": 0.2399998500000038
                },
                {
                    "name": "G4",
                    "midi": 67,
                    "time": 366.9331040000022,
                    "velocity": 0.41732283464566927,
                    "duration": 0.2399998500000038
                },
                {
                    "name": "C5",
                    "midi": 72,
                    "time": 367.19977050000216,
                    "velocity": 0.36220472440944884,
                    "duration": 0.26666649999998526
                },
                {
                    "name": "E5",
                    "midi": 76,
                    "time": 367.19977050000216,
                    "velocity": 0.4330708661417323,
                    "duration": 0.2399998500000038
                },
                {
                    "name": "G4",
                    "midi": 67,
                    "time": 367.19977050000216,
                    "velocity": 0.36220472440944884,
                    "duration": 0.2399998500000038
                },
                {
                    "name": "G4",
                    "midi": 67,
                    "time": 367.46643700000214,
                    "velocity": 0.36220472440944884,
                    "duration": 0.26666649999998526
                },
                {
                    "name": "D5",
                    "midi": 74,
                    "time": 367.46643700000214,
                    "velocity": 0.4330708661417323,
                    "duration": 0.2399998500000038
                },
                {
                    "name": "E4",
                    "midi": 64,
                    "time": 367.73310350000213,
                    "velocity": 0.3543307086614173,
                    "duration": 0.2399998500000038
                },
                {
                    "name": "G4",
                    "midi": 67,
                    "time": 367.73310350000213,
                    "velocity": 0.3543307086614173,
                    "duration": 0.26666649999998526
                },
                {
                    "name": "C5",
                    "midi": 72,
                    "time": 367.73310350000213,
                    "velocity": 0.4251968503937008,
                    "duration": 0.2399998500000038
                },
                {
                    "name": "D4",
                    "midi": 62,
                    "time": 367.9997700000021,
                    "velocity": 0.3937007874015748,
                    "duration": 0.2399998500000038
                },
                {
                    "name": "G4",
                    "midi": 67,
                    "time": 367.9997700000021,
                    "velocity": 0.3937007874015748,
                    "duration": 0.2399998500000038
                },
                {
                    "name": "C5",
                    "midi": 72,
                    "time": 367.9997700000021,
                    "velocity": 0.4645669291338583,
                    "duration": 0.2399998500000038
                },
                {
                    "name": "G4",
                    "midi": 67,
                    "time": 368.2664365000021,
                    "velocity": 0.3543307086614173,
                    "duration": 0.2399998500000038
                },
                {
                    "name": "D4",
                    "midi": 62,
                    "time": 368.2664365000021,
                    "velocity": 0.3543307086614173,
                    "duration": 0.2399998500000038
                },
                {
                    "name": "B4",
                    "midi": 71,
                    "time": 368.2664365000021,
                    "velocity": 0.41732283464566927,
                    "duration": 0.2399998500000038
                },
                {
                    "name": "D5",
                    "midi": 74,
                    "time": 368.5331030000021,
                    "velocity": 0.4409448818897638,
                    "duration": 0.2399998500000038
                },
                {
                    "name": "D4",
                    "midi": 62,
                    "time": 368.5331030000021,
                    "velocity": 0.3700787401574803,
                    "duration": 0.2399998500000038
                },
                {
                    "name": "F#4",
                    "midi": 66,
                    "time": 368.5331030000021,
                    "velocity": 0.3700787401574803,
                    "duration": 0.2399998500000038
                },
                {
                    "name": "C5",
                    "midi": 72,
                    "time": 368.79976950000207,
                    "velocity": 0.41732283464566927,
                    "duration": 0.2399998500000038
                },
                {
                    "name": "F#4",
                    "midi": 66,
                    "time": 368.79976950000207,
                    "velocity": 0.3543307086614173,
                    "duration": 0.2399998500000038
                },
                {
                    "name": "D4",
                    "midi": 62,
                    "time": 368.79976950000207,
                    "velocity": 0.3543307086614173,
                    "duration": 0.2399998500000038
                },
                {
                    "name": "B4",
                    "midi": 71,
                    "time": 369.06643600000206,
                    "velocity": 0.48031496062992124,
                    "duration": 0.5333330000000274
                },
                {
                    "name": "G4",
                    "midi": 67,
                    "time": 369.06643600000206,
                    "velocity": 0.4015748031496063,
                    "duration": 0.5333330000000274
                },
                {
                    "name": "D4",
                    "midi": 62,
                    "time": 369.06643600000206,
                    "velocity": 0.4015748031496063,
                    "duration": 0.5333330000000274
                },
                {
                    "name": "B4",
                    "midi": 71,
                    "time": 369.5997690000021,
                    "velocity": 0.4015748031496063,
                    "duration": 0.26666649999998526
                },
                {
                    "name": "D5",
                    "midi": 74,
                    "time": 369.5997690000021,
                    "velocity": 0.47244094488188976,
                    "duration": 0.26666649999998526
                },
                {
                    "name": "G4",
                    "midi": 67,
                    "time": 369.5997690000021,
                    "velocity": 0.4015748031496063,
                    "duration": 0.26666649999998526
                },
                {
                    "name": "G4",
                    "midi": 67,
                    "time": 369.86643550000207,
                    "velocity": 0.4094488188976378,
                    "duration": 0.26666649999998526
                },
                {
                    "name": "B4",
                    "midi": 71,
                    "time": 369.86643550000207,
                    "velocity": 0.4094488188976378,
                    "duration": 0.26666649999998526
                },
                {
                    "name": "E5",
                    "midi": 76,
                    "time": 369.86643550000207,
                    "velocity": 0.4881889763779528,
                    "duration": 0.26666649999998526
                },
                {
                    "name": "B4",
                    "midi": 71,
                    "time": 370.13310200000205,
                    "velocity": 0.4409448818897638,
                    "duration": 0.2399998500000038
                },
                {
                    "name": "G4",
                    "midi": 67,
                    "time": 370.13310200000205,
                    "velocity": 0.4409448818897638,
                    "duration": 0.2399998500000038
                },
                {
                    "name": "F5",
                    "midi": 77,
                    "time": 370.13310200000205,
                    "velocity": 0.5196850393700787,
                    "duration": 0.2399998500000038
                },
                {
                    "name": "B4",
                    "midi": 71,
                    "time": 370.39976850000204,
                    "velocity": 0.4094488188976378,
                    "duration": 0.2399998500000038
                },
                {
                    "name": "G4",
                    "midi": 67,
                    "time": 370.39976850000204,
                    "velocity": 0.4094488188976378,
                    "duration": 0.2399998500000038
                },
                {
                    "name": "E5",
                    "midi": 76,
                    "time": 370.39976850000204,
                    "velocity": 0.4881889763779528,
                    "duration": 0.2399998500000038
                },
                {
                    "name": "F5",
                    "midi": 77,
                    "time": 370.666435000002,
                    "velocity": 0.5433070866141733,
                    "duration": 0.13333325000002105
                },
                {
                    "name": "B4",
                    "midi": 71,
                    "time": 370.666435000002,
                    "velocity": 0.4566929133858268,
                    "duration": 0.2399998500000038
                },
                {
                    "name": "G4",
                    "midi": 67,
                    "time": 370.666435000002,
                    "velocity": 0.4566929133858268,
                    "duration": 0.2399998500000038
                },
                {
                    "name": "A5",
                    "midi": 81,
                    "time": 370.79976825000205,
                    "velocity": 0.5118110236220472,
                    "duration": 0.1333332499999642
                },
                {
                    "name": "B4",
                    "midi": 71,
                    "time": 370.933101500002,
                    "velocity": 0.4409448818897638,
                    "duration": 0.2399998500000038
                },
                {
                    "name": "G5",
                    "midi": 79,
                    "time": 370.933101500002,
                    "velocity": 0.5196850393700787,
                    "duration": 0.2399998500000038
                },
                {
                    "name": "G4",
                    "midi": 67,
                    "time": 371.199768000002,
                    "velocity": 0.4409448818897638,
                    "duration": 0.2399998500000038
                },
                {
                    "name": "F5",
                    "midi": 77,
                    "time": 371.199768000002,
                    "velocity": 0.5196850393700787,
                    "duration": 0.2399998500000038
                },
                {
                    "name": "C5",
                    "midi": 72,
                    "time": 371.199768000002,
                    "velocity": 0.4409448818897638,
                    "duration": 0.2399998500000038
                },
                {
                    "name": "G4",
                    "midi": 67,
                    "time": 371.466434500002,
                    "velocity": 0.33858267716535434,
                    "duration": 0.2399998500000038
                },
                {
                    "name": "E5",
                    "midi": 76,
                    "time": 371.466434500002,
                    "velocity": 0.4015748031496063,
                    "duration": 0.2399998500000038
                },
                {
                    "name": "C5",
                    "midi": 72,
                    "time": 371.466434500002,
                    "velocity": 0.33858267716535434,
                    "duration": 0.26666649999998526
                },
                {
                    "name": "D5",
                    "midi": 74,
                    "time": 371.73310100000197,
                    "velocity": 0.3937007874015748,
                    "duration": 0.2399998500000038
                },
                {
                    "name": "G4",
                    "midi": 67,
                    "time": 371.73310100000197,
                    "velocity": 0.33070866141732286,
                    "duration": 0.26666649999998526
                },
                {
                    "name": "F4",
                    "midi": 65,
                    "time": 371.73310100000197,
                    "velocity": 0.33070866141732286,
                    "duration": 0.2399998500000038
                },
                {
                    "name": "G4",
                    "midi": 67,
                    "time": 371.99976750000195,
                    "velocity": 0.3464566929133858,
                    "duration": 0.26666649999998526
                },
                {
                    "name": "E4",
                    "midi": 64,
                    "time": 371.99976750000195,
                    "velocity": 0.3464566929133858,
                    "duration": 0.2399998500000038
                },
                {
                    "name": "C5",
                    "midi": 72,
                    "time": 371.99976750000195,
                    "velocity": 0.4094488188976378,
                    "duration": 0.2399998500000038
                },
                {
                    "name": "G4",
                    "midi": 67,
                    "time": 372.26643400000194,
                    "velocity": 0.41732283464566927,
                    "duration": 0.2399998500000038
                },
                {
                    "name": "C5",
                    "midi": 72,
                    "time": 372.26643400000194,
                    "velocity": 0.49606299212598426,
                    "duration": 0.2399998500000038
                },
                {
                    "name": "D4",
                    "midi": 62,
                    "time": 372.26643400000194,
                    "velocity": 0.41732283464566927,
                    "duration": 0.2399998500000038
                },
                {
                    "name": "D4",
                    "midi": 62,
                    "time": 372.5331005000019,
                    "velocity": 0.3543307086614173,
                    "duration": 0.2399998500000038
                },
                {
                    "name": "B4",
                    "midi": 71,
                    "time": 372.5331005000019,
                    "velocity": 0.4251968503937008,
                    "duration": 0.2399998500000038
                },
                {
                    "name": "G4",
                    "midi": 67,
                    "time": 372.5331005000019,
                    "velocity": 0.3543307086614173,
                    "duration": 0.2399998500000038
                },
                {
                    "name": "D4",
                    "midi": 62,
                    "time": 372.7997670000019,
                    "velocity": 0.3700787401574803,
                    "duration": 0.2399998500000038
                },
                {
                    "name": "C5",
                    "midi": 72,
                    "time": 372.7997670000019,
                    "velocity": 0.4409448818897638,
                    "duration": 0.2399998500000038
                },
                {
                    "name": "F#4",
                    "midi": 66,
                    "time": 372.7997670000019,
                    "velocity": 0.3700787401574803,
                    "duration": 0.2399998500000038
                },
                {
                    "name": "F#4",
                    "midi": 66,
                    "time": 373.0664335000019,
                    "velocity": 0.3543307086614173,
                    "duration": 0.2399998500000038
                },
                {
                    "name": "D4",
                    "midi": 62,
                    "time": 373.0664335000019,
                    "velocity": 0.3543307086614173,
                    "duration": 0.2399998500000038
                },
                {
                    "name": "B4",
                    "midi": 71,
                    "time": 373.0664335000019,
                    "velocity": 0.41732283464566927,
                    "duration": 0.2399998500000038
                },
                {
                    "name": "B3",
                    "midi": 59,
                    "time": 373.3331000000019,
                    "velocity": 0.3543307086614173,
                    "duration": 0.7888883958333395
                },
                {
                    "name": "D4",
                    "midi": 62,
                    "time": 373.3331000000019,
                    "velocity": 0.2992125984251969,
                    "duration": 0.7888883958333395
                },
                {
                    "name": "G4",
                    "midi": 67,
                    "time": 373.3331000000019,
                    "velocity": 0.41732283464566927,
                    "duration": 0.7888883958333395
                },
                {
                    "name": "D4",
                    "midi": 62,
                    "time": 374.1330995000019,
                    "velocity": 0.3228346456692913,
                    "duration": 0.26666649999998526
                },
                {
                    "name": "B3",
                    "midi": 59,
                    "time": 374.1330995000019,
                    "velocity": 0.3228346456692913,
                    "duration": 0.2399998500000038
                },
                {
                    "name": "B4",
                    "midi": 71,
                    "time": 374.1330995000019,
                    "velocity": 0.3858267716535433,
                    "duration": 0.2399998500000038
                },
                {
                    "name": "B4",
                    "midi": 71,
                    "time": 374.3997660000019,
                    "velocity": 0.4645669291338583,
                    "duration": 0.2399998500000038
                },
                {
                    "name": "C4",
                    "midi": 60,
                    "time": 374.3997660000019,
                    "velocity": 0.3937007874015748,
                    "duration": 0.2399998500000038
                },
                {
                    "name": "D4",
                    "midi": 62,
                    "time": 374.3997660000019,
                    "velocity": 0.3937007874015748,
                    "duration": 0.2399998500000038
                },
                {
                    "name": "C4",
                    "midi": 60,
                    "time": 374.66643250000186,
                    "velocity": 0.33070866141732286,
                    "duration": 0.2399998500000038
                },
                {
                    "name": "D4",
                    "midi": 62,
                    "time": 374.66643250000186,
                    "velocity": 0.33070866141732286,
                    "duration": 0.2399998500000038
                },
                {
                    "name": "C5",
                    "midi": 72,
                    "time": 374.66643250000186,
                    "velocity": 0.4015748031496063,
                    "duration": 0.2399998500000038
                },
                {
                    "name": "D4",
                    "midi": 62,
                    "time": 374.93309900000185,
                    "velocity": 0.3464566929133858,
                    "duration": 0.2399998500000038
                },
                {
                    "name": "A4",
                    "midi": 69,
                    "time": 374.93309900000185,
                    "velocity": 0.41732283464566927,
                    "duration": 0.2399998500000038
                },
                {
                    "name": "C4",
                    "midi": 60,
                    "time": 374.93309900000185,
                    "velocity": 0.3464566929133858,
                    "duration": 0.2399998500000038
                },
                {
                    "name": "C4",
                    "midi": 60,
                    "time": 375.19976550000183,
                    "velocity": 0.30708661417322836,
                    "duration": 0.2399998500000038
                },
                {
                    "name": "D4",
                    "midi": 62,
                    "time": 375.19976550000183,
                    "velocity": 0.30708661417322836,
                    "duration": 0.2399998500000038
                },
                {
                    "name": "A4",
                    "midi": 69,
                    "time": 375.19976550000183,
                    "velocity": 0.3700787401574803,
                    "duration": 0.2399998500000038
                },
                {
                    "name": "B3",
                    "midi": 59,
                    "time": 375.4664320000018,
                    "velocity": 0.3937007874015748,
                    "duration": 0.2399998500000038
                },
                {
                    "name": "A4",
                    "midi": 69,
                    "time": 375.4664320000018,
                    "velocity": 0.4645669291338583,
                    "duration": 0.2399998500000038
                },
                {
                    "name": "D4",
                    "midi": 62,
                    "time": 375.4664320000018,
                    "velocity": 0.3937007874015748,
                    "duration": 0.2399998500000038
                },
                {
                    "name": "B3",
                    "midi": 59,
                    "time": 375.7330985000018,
                    "velocity": 0.33070866141732286,
                    "duration": 0.2399998500000038
                },
                {
                    "name": "D4",
                    "midi": 62,
                    "time": 375.7330985000018,
                    "velocity": 0.33070866141732286,
                    "duration": 0.2399998500000038
                },
                {
                    "name": "B4",
                    "midi": 71,
                    "time": 375.7330985000018,
                    "velocity": 0.4015748031496063,
                    "duration": 0.2399998500000038
                },
                {
                    "name": "G4",
                    "midi": 67,
                    "time": 375.9997650000018,
                    "velocity": 0.41732283464566927,
                    "duration": 0.2399998500000038
                },
                {
                    "name": "D4",
                    "midi": 62,
                    "time": 375.9997650000018,
                    "velocity": 0.3464566929133858,
                    "duration": 0.2399998500000038
                },
                {
                    "name": "B3",
                    "midi": 59,
                    "time": 375.9997650000018,
                    "velocity": 0.3464566929133858,
                    "duration": 0.2399998500000038
                },
                {
                    "name": "G4",
                    "midi": 67,
                    "time": 376.2664315000018,
                    "velocity": 0.3700787401574803,
                    "duration": 0.2399998500000038
                },
                {
                    "name": "B3",
                    "midi": 59,
                    "time": 376.2664315000018,
                    "velocity": 0.30708661417322836,
                    "duration": 0.2399998500000038
                },
                {
                    "name": "D4",
                    "midi": 62,
                    "time": 376.2664315000018,
                    "velocity": 0.30708661417322836,
                    "duration": 0.2399998500000038
                },
                {
                    "name": "D4",
                    "midi": 62,
                    "time": 376.53309800000176,
                    "velocity": 0.3937007874015748,
                    "duration": 0.2399998500000038
                },
                {
                    "name": "C4",
                    "midi": 60,
                    "time": 376.53309800000176,
                    "velocity": 0.3937007874015748,
                    "duration": 0.2399998500000038
                },
                {
                    "name": "G4",
                    "midi": 67,
                    "time": 376.53309800000176,
                    "velocity": 0.4645669291338583,
                    "duration": 0.2399998500000038
                },
                {
                    "name": "D4",
                    "midi": 62,
                    "time": 376.79976450000174,
                    "velocity": 0.33070866141732286,
                    "duration": 0.2399998500000038
                },
                {
                    "name": "C4",
                    "midi": 60,
                    "time": 376.79976450000174,
                    "velocity": 0.33070866141732286,
                    "duration": 0.2399998500000038
                },
                {
                    "name": "F#4",
                    "midi": 66,
                    "time": 376.79976450000174,
                    "velocity": 0.4015748031496063,
                    "duration": 0.2399998500000038
                },
                {
                    "name": "A4",
                    "midi": 69,
                    "time": 377.0664310000017,
                    "velocity": 0.3464566929133858,
                    "duration": 0.2399998500000038
                },
                {
                    "name": "F#4",
                    "midi": 66,
                    "time": 377.0664310000017,
                    "velocity": 0.3464566929133858,
                    "duration": 0.2399998500000038
                },
                {
                    "name": "E5",
                    "midi": 76,
                    "time": 377.0664310000017,
                    "velocity": 0.5118110236220472,
                    "duration": 0.2399998500000038
                },
                {
                    "name": "D5",
                    "midi": 74,
                    "time": 377.3330975000017,
                    "velocity": 0.47244094488188976,
                    "duration": 0.2399998500000038
                },
                {
                    "name": "F#4",
                    "midi": 66,
                    "time": 377.3330975000017,
                    "velocity": 0.33070866141732286,
                    "duration": 0.2399998500000038
                },
                {
                    "name": "A4",
                    "midi": 69,
                    "time": 377.3330975000017,
                    "velocity": 0.33070866141732286,
                    "duration": 0.2399998500000038
                },
                {
                    "name": "B4",
                    "midi": 71,
                    "time": 377.5997640000017,
                    "velocity": 0.2992125984251969,
                    "duration": 0.7888883958333395
                },
                {
                    "name": "G4",
                    "midi": 67,
                    "time": 377.5997640000017,
                    "velocity": 0.3543307086614173,
                    "duration": 0.7888883958333395
                },
                {
                    "name": "D5",
                    "midi": 74,
                    "time": 377.5997640000017,
                    "velocity": 0.4645669291338583,
                    "duration": 0.7888883958333395
                },
                {
                    "name": "D4",
                    "midi": 62,
                    "time": 378.3997635000017,
                    "velocity": 0.3228346456692913,
                    "duration": 0.26666649999998526
                },
                {
                    "name": "B3",
                    "midi": 59,
                    "time": 378.3997635000017,
                    "velocity": 0.3228346456692913,
                    "duration": 0.2399998500000038
                },
                {
                    "name": "B4",
                    "midi": 71,
                    "time": 378.3997635000017,
                    "velocity": 0.3858267716535433,
                    "duration": 0.2399998500000038
                },
                {
                    "name": "D4",
                    "midi": 62,
                    "time": 378.6664300000017,
                    "velocity": 0.3937007874015748,
                    "duration": 0.2399998500000038
                },
                {
                    "name": "C4",
                    "midi": 60,
                    "time": 378.6664300000017,
                    "velocity": 0.3937007874015748,
                    "duration": 0.2399998500000038
                },
                {
                    "name": "B4",
                    "midi": 71,
                    "time": 378.6664300000017,
                    "velocity": 0.4645669291338583,
                    "duration": 0.2399998500000038
                },
                {
                    "name": "C5",
                    "midi": 72,
                    "time": 378.9330965000017,
                    "velocity": 0.4015748031496063,
                    "duration": 0.2399998500000038
                },
                {
                    "name": "D4",
                    "midi": 62,
                    "time": 378.9330965000017,
                    "velocity": 0.33070866141732286,
                    "duration": 0.2399998500000038
                },
                {
                    "name": "C4",
                    "midi": 60,
                    "time": 378.9330965000017,
                    "velocity": 0.33070866141732286,
                    "duration": 0.2399998500000038
                },
                {
                    "name": "A4",
                    "midi": 69,
                    "time": 379.19976300000167,
                    "velocity": 0.41732283464566927,
                    "duration": 0.2399998500000038
                },
                {
                    "name": "C4",
                    "midi": 60,
                    "time": 379.19976300000167,
                    "velocity": 0.3464566929133858,
                    "duration": 0.2399998500000038
                },
                {
                    "name": "D4",
                    "midi": 62,
                    "time": 379.19976300000167,
                    "velocity": 0.3464566929133858,
                    "duration": 0.2399998500000038
                },
                {
                    "name": "C4",
                    "midi": 60,
                    "time": 379.46642950000165,
                    "velocity": 0.30708661417322836,
                    "duration": 0.2399998500000038
                },
                {
                    "name": "D4",
                    "midi": 62,
                    "time": 379.46642950000165,
                    "velocity": 0.30708661417322836,
                    "duration": 0.2399998500000038
                },
                {
                    "name": "A4",
                    "midi": 69,
                    "time": 379.46642950000165,
                    "velocity": 0.3700787401574803,
                    "duration": 0.2399998500000038
                },
                {
                    "name": "A4",
                    "midi": 69,
                    "time": 379.73309600000164,
                    "velocity": 0.4645669291338583,
                    "duration": 0.2399998500000038
                },
                {
                    "name": "D4",
                    "midi": 62,
                    "time": 379.73309600000164,
                    "velocity": 0.3937007874015748,
                    "duration": 0.2399998500000038
                },
                {
                    "name": "B3",
                    "midi": 59,
                    "time": 379.73309600000164,
                    "velocity": 0.3937007874015748,
                    "duration": 0.2399998500000038
                },
                {
                    "name": "D4",
                    "midi": 62,
                    "time": 379.9997625000016,
                    "velocity": 0.33070866141732286,
                    "duration": 0.2399998500000038
                },
                {
                    "name": "B3",
                    "midi": 59,
                    "time": 379.9997625000016,
                    "velocity": 0.33070866141732286,
                    "duration": 0.2399998500000038
                },
                {
                    "name": "B4",
                    "midi": 71,
                    "time": 379.9997625000016,
                    "velocity": 0.4015748031496063,
                    "duration": 0.2399998500000038
                },
                {
                    "name": "G4",
                    "midi": 67,
                    "time": 380.2664290000016,
                    "velocity": 0.41732283464566927,
                    "duration": 0.2399998500000038
                },
                {
                    "name": "B3",
                    "midi": 59,
                    "time": 380.2664290000016,
                    "velocity": 0.3464566929133858,
                    "duration": 0.2399998500000038
                },
                {
                    "name": "D4",
                    "midi": 62,
                    "time": 380.2664290000016,
                    "velocity": 0.3464566929133858,
                    "duration": 0.2399998500000038
                },
                {
                    "name": "B3",
                    "midi": 59,
                    "time": 380.5330955000016,
                    "velocity": 0.30708661417322836,
                    "duration": 0.2399998500000038
                },
                {
                    "name": "D4",
                    "midi": 62,
                    "time": 380.5330955000016,
                    "velocity": 0.30708661417322836,
                    "duration": 0.2399998500000038
                },
                {
                    "name": "G4",
                    "midi": 67,
                    "time": 380.5330955000016,
                    "velocity": 0.3700787401574803,
                    "duration": 0.2399998500000038
                },
                {
                    "name": "G4",
                    "midi": 67,
                    "time": 380.7997620000016,
                    "velocity": 0.4645669291338583,
                    "duration": 0.2399998500000038
                },
                {
                    "name": "D4",
                    "midi": 62,
                    "time": 380.7997620000016,
                    "velocity": 0.3937007874015748,
                    "duration": 0.2399998500000038
                },
                {
                    "name": "C4",
                    "midi": 60,
                    "time": 380.7997620000016,
                    "velocity": 0.3937007874015748,
                    "duration": 0.2399998500000038
                },
                {
                    "name": "F#4",
                    "midi": 66,
                    "time": 381.06642850000156,
                    "velocity": 0.4015748031496063,
                    "duration": 0.2399998500000038
                },
                {
                    "name": "C4",
                    "midi": 60,
                    "time": 381.06642850000156,
                    "velocity": 0.33070866141732286,
                    "duration": 0.2399998500000038
                },
                {
                    "name": "D4",
                    "midi": 62,
                    "time": 381.06642850000156,
                    "velocity": 0.33070866141732286,
                    "duration": 0.2399998500000038
                },
                {
                    "name": "D4",
                    "midi": 62,
                    "time": 381.33309500000155,
                    "velocity": 0.3464566929133858,
                    "duration": 0.2399998500000038
                },
                {
                    "name": "C4",
                    "midi": 60,
                    "time": 381.33309500000155,
                    "velocity": 0.3464566929133858,
                    "duration": 0.2399998500000038
                },
                {
                    "name": "B4",
                    "midi": 71,
                    "time": 381.33309500000155,
                    "velocity": 0.44881889763779526,
                    "duration": 0.2399998500000038
                },
                {
                    "name": "A4",
                    "midi": 69,
                    "time": 381.59976150000153,
                    "velocity": 0.4251968503937008,
                    "duration": 0.2399998500000038
                },
                {
                    "name": "C4",
                    "midi": 60,
                    "time": 381.59976150000153,
                    "velocity": 0.33070866141732286,
                    "duration": 0.2399998500000038
                },
                {
                    "name": "D4",
                    "midi": 62,
                    "time": 381.59976150000153,
                    "velocity": 0.33070866141732286,
                    "duration": 0.2399998500000038
                },
                {
                    "name": "B3",
                    "midi": 59,
                    "time": 381.8664280000015,
                    "velocity": 0.3543307086614173,
                    "duration": 1.066665999999998
                },
                {
                    "name": "G4",
                    "midi": 67,
                    "time": 381.8664280000015,
                    "velocity": 0.41732283464566927,
                    "duration": 1.066665999999998
                },
                {
                    "name": "D4",
                    "midi": 62,
                    "time": 381.8664280000015,
                    "velocity": 0.2992125984251969,
                    "duration": 1.066665999999998
                },
                {
                    "name": "A#3",
                    "midi": 58,
                    "time": 382.9330940000015,
                    "velocity": 0.3858267716535433,
                    "duration": 0.13333325000002105
                },
                {
                    "name": "A3",
                    "midi": 57,
                    "time": 383.06642725000154,
                    "velocity": 0.33070866141732286,
                    "duration": 0.13333325000002105
                },
                {
                    "name": "G3",
                    "midi": 55,
                    "time": 383.19976050000156,
                    "velocity": 0.33070866141732286,
                    "duration": 0.13333325000002105
                },
                {
                    "name": "A3",
                    "midi": 57,
                    "time": 383.3330937500016,
                    "velocity": 0.33070866141732286,
                    "duration": 0.13333325000002105
                },
                {
                    "name": "A#3",
                    "midi": 58,
                    "time": 383.4664270000016,
                    "velocity": 0.3858267716535433,
                    "duration": 0.13333325000002105
                },
                {
                    "name": "G3",
                    "midi": 55,
                    "time": 383.5997602500016,
                    "velocity": 0.33858267716535434,
                    "duration": 0.13333325000002105
                },
                {
                    "name": "A#3",
                    "midi": 58,
                    "time": 383.73309350000164,
                    "velocity": 0.33858267716535434,
                    "duration": 0.13333325000002105
                },
                {
                    "name": "G3",
                    "midi": 55,
                    "time": 383.86642675000166,
                    "velocity": 0.33858267716535434,
                    "duration": 0.13333325000002105
                },
                {
                    "name": "A#3",
                    "midi": 58,
                    "time": 383.9997600000017,
                    "velocity": 0.3858267716535433,
                    "duration": 0.13333325000002105
                },
                {
                    "name": "A3",
                    "midi": 57,
                    "time": 384.1330932500017,
                    "velocity": 0.33070866141732286,
                    "duration": 0.13333325000002105
                },
                {
                    "name": "G3",
                    "midi": 55,
                    "time": 384.2664265000017,
                    "velocity": 0.33070866141732286,
                    "duration": 0.13333325000002105
                },
                {
                    "name": "A3",
                    "midi": 57,
                    "time": 384.39975975000175,
                    "velocity": 0.33070866141732286,
                    "duration": 0.13333325000002105
                },
                {
                    "name": "A#3",
                    "midi": 58,
                    "time": 384.53309300000177,
                    "velocity": 0.3858267716535433,
                    "duration": 0.13333325000002105
                },
                {
                    "name": "G3",
                    "midi": 55,
                    "time": 384.6664262500018,
                    "velocity": 0.33858267716535434,
                    "duration": 0.13333325000002105
                },
                {
                    "name": "A#3",
                    "midi": 58,
                    "time": 384.7997595000018,
                    "velocity": 0.33858267716535434,
                    "duration": 0.13333325000002105
                },
                {
                    "name": "G3",
                    "midi": 55,
                    "time": 384.93309275000183,
                    "velocity": 0.33858267716535434,
                    "duration": 0.13333325000002105
                },
                {
                    "name": "E4",
                    "midi": 64,
                    "time": 385.06642600000185,
                    "velocity": 0.3464566929133858,
                    "duration": 0.26666649999998526
                },
                {
                    "name": "C#4",
                    "midi": 61,
                    "time": 385.06642600000185,
                    "velocity": 0.3464566929133858,
                    "duration": 0.2399998500000038
                },
                {
                    "name": "G4",
                    "midi": 67,
                    "time": 385.06642600000185,
                    "velocity": 0.3464566929133858,
                    "duration": 0.26666649999998526
                },
                {
                    "name": "A#4",
                    "midi": 70,
                    "time": 385.06642600000185,
                    "velocity": 0.41732283464566927,
                    "duration": 0.26666649999998526
                },
                {
                    "name": "A4",
                    "midi": 69,
                    "time": 385.33309250000184,
                    "velocity": 0.33858267716535434,
                    "duration": 0.13333325000002105
                },
                {
                    "name": "E4",
                    "midi": 64,
                    "time": 385.33309250000184,
                    "velocity": 0.28346456692913385,
                    "duration": 0.13333325000002105
                },
                {
                    "name": "C#4",
                    "midi": 61,
                    "time": 385.33309250000184,
                    "velocity": 0.28346456692913385,
                    "duration": 0.13333325000002105
                },
                {
                    "name": "G4",
                    "midi": 67,
                    "time": 385.33309250000184,
                    "velocity": 0.28346456692913385,
                    "duration": 0.13333325000002105
                },
                {
                    "name": "C#4",
                    "midi": 61,
                    "time": 385.5997590000019,
                    "velocity": 0.28346456692913385,
                    "duration": 0.13333325000002105
                },
                {
                    "name": "E4",
                    "midi": 64,
                    "time": 385.5997590000019,
                    "velocity": 0.28346456692913385,
                    "duration": 0.13333325000002105
                },
                {
                    "name": "G4",
                    "midi": 67,
                    "time": 385.5997590000019,
                    "velocity": 0.28346456692913385,
                    "duration": 0.13333325000002105
                },
                {
                    "name": "A4",
                    "midi": 69,
                    "time": 385.5997590000019,
                    "velocity": 0.33858267716535434,
                    "duration": 0.13333325000002105
                },
                {
                    "name": "E4",
                    "midi": 64,
                    "time": 385.8664255000019,
                    "velocity": 0.28346456692913385,
                    "duration": 0.13333325000002105
                },
                {
                    "name": "C#4",
                    "midi": 61,
                    "time": 385.8664255000019,
                    "velocity": 0.28346456692913385,
                    "duration": 0.13333325000002105
                },
                {
                    "name": "G4",
                    "midi": 67,
                    "time": 385.8664255000019,
                    "velocity": 0.28346456692913385,
                    "duration": 0.13333325000002105
                },
                {
                    "name": "A4",
                    "midi": 69,
                    "time": 385.8664255000019,
                    "velocity": 0.33858267716535434,
                    "duration": 0.13333325000002105
                },
                {
                    "name": "G4",
                    "midi": 67,
                    "time": 386.13309200000197,
                    "velocity": 0.3464566929133858,
                    "duration": 1.066665999999998
                },
                {
                    "name": "C#4",
                    "midi": 61,
                    "time": 386.13309200000197,
                    "velocity": 0.3464566929133858,
                    "duration": 1.066665999999998
                },
                {
                    "name": "A4",
                    "midi": 69,
                    "time": 386.13309200000197,
                    "velocity": 0.41732283464566927,
                    "duration": 1.066665999999998
                },
                {
                    "name": "E4",
                    "midi": 64,
                    "time": 386.13309200000197,
                    "velocity": 0.3464566929133858,
                    "duration": 1.066665999999998
                },
                {
                    "name": "A#3",
                    "midi": 58,
                    "time": 387.19975800000196,
                    "velocity": 0.3858267716535433,
                    "duration": 0.13333325000002105
                },
                {
                    "name": "A3",
                    "midi": 57,
                    "time": 387.333091250002,
                    "velocity": 0.3228346456692913,
                    "duration": 0.13333325000002105
                },
                {
                    "name": "G3",
                    "midi": 55,
                    "time": 387.466424500002,
                    "velocity": 0.33070866141732286,
                    "duration": 0.13333325000002105
                },
                {
                    "name": "A3",
                    "midi": 57,
                    "time": 387.599757750002,
                    "velocity": 0.3228346456692913,
                    "duration": 0.13333325000002105
                },
                {
                    "name": "A#3",
                    "midi": 58,
                    "time": 387.73309100000205,
                    "velocity": 0.3858267716535433,
                    "duration": 0.13333325000002105
                },
                {
                    "name": "G3",
                    "midi": 55,
                    "time": 387.86642425000207,
                    "velocity": 0.3228346456692913,
                    "duration": 0.13333325000002105
                },
                {
                    "name": "A#3",
                    "midi": 58,
                    "time": 387.9997575000021,
                    "velocity": 0.33858267716535434,
                    "duration": 0.13333325000002105
                },
                {
                    "name": "G3",
                    "midi": 55,
                    "time": 388.1330907500021,
                    "velocity": 0.3228346456692913,
                    "duration": 0.13333325000002105
                },
                {
                    "name": "A#3",
                    "midi": 58,
                    "time": 388.26642400000213,
                    "velocity": 0.3858267716535433,
                    "duration": 0.13333325000002105
                },
                {
                    "name": "A3",
                    "midi": 57,
                    "time": 388.39975725000215,
                    "velocity": 0.3228346456692913,
                    "duration": 0.13333325000002105
                },
                {
                    "name": "G3",
                    "midi": 55,
                    "time": 388.5330905000022,
                    "velocity": 0.33070866141732286,
                    "duration": 0.13333325000002105
                },
                {
                    "name": "A3",
                    "midi": 57,
                    "time": 388.6664237500022,
                    "velocity": 0.31496062992125984,
                    "duration": 0.13333325000002105
                },
                {
                    "name": "A#3",
                    "midi": 58,
                    "time": 388.7997570000022,
                    "velocity": 0.3858267716535433,
                    "duration": 0.13333325000002105
                },
                {
                    "name": "G3",
                    "midi": 55,
                    "time": 388.93309025000224,
                    "velocity": 0.3228346456692913,
                    "duration": 0.13333325000002105
                },
                {
                    "name": "A#3",
                    "midi": 58,
                    "time": 389.06642350000226,
                    "velocity": 0.33858267716535434,
                    "duration": 0.13333325000002105
                },
                {
                    "name": "G3",
                    "midi": 55,
                    "time": 389.1997567500023,
                    "velocity": 0.3228346456692913,
                    "duration": 0.13333325000002105
                },
                {
                    "name": "E4",
                    "midi": 64,
                    "time": 389.3330900000023,
                    "velocity": 0.3464566929133858,
                    "duration": 0.26666649999998526
                },
                {
                    "name": "A#4",
                    "midi": 70,
                    "time": 389.3330900000023,
                    "velocity": 0.41732283464566927,
                    "duration": 0.26666649999998526
                },
                {
                    "name": "C#4",
                    "midi": 61,
                    "time": 389.3330900000023,
                    "velocity": 0.3464566929133858,
                    "duration": 0.2399998500000038
                },
                {
                    "name": "G4",
                    "midi": 67,
                    "time": 389.3330900000023,
                    "velocity": 0.3464566929133858,
                    "duration": 0.26666649999998526
                },
                {
                    "name": "A4",
                    "midi": 69,
                    "time": 389.5997565000023,
                    "velocity": 0.33858267716535434,
                    "duration": 0.13333325000002105
                },
                {
                    "name": "C#4",
                    "midi": 61,
                    "time": 389.5997565000023,
                    "velocity": 0.28346456692913385,
                    "duration": 0.13333325000002105
                },
                {
                    "name": "G4",
                    "midi": 67,
                    "time": 389.5997565000023,
                    "velocity": 0.28346456692913385,
                    "duration": 0.13333325000002105
                },
                {
                    "name": "E4",
                    "midi": 64,
                    "time": 389.5997565000023,
                    "velocity": 0.28346456692913385,
                    "duration": 0.13333325000002105
                },
                {
                    "name": "G4",
                    "midi": 67,
                    "time": 389.8664230000023,
                    "velocity": 0.28346456692913385,
                    "duration": 0.13333325000002105
                },
                {
                    "name": "C#4",
                    "midi": 61,
                    "time": 389.8664230000023,
                    "velocity": 0.28346456692913385,
                    "duration": 0.13333325000002105
                },
                {
                    "name": "A4",
                    "midi": 69,
                    "time": 389.8664230000023,
                    "velocity": 0.33858267716535434,
                    "duration": 0.13333325000002105
                },
                {
                    "name": "E4",
                    "midi": 64,
                    "time": 389.8664230000023,
                    "velocity": 0.28346456692913385,
                    "duration": 0.13333325000002105
                },
                {
                    "name": "A4",
                    "midi": 69,
                    "time": 390.13308950000237,
                    "velocity": 0.33858267716535434,
                    "duration": 0.13333325000002105
                },
                {
                    "name": "C#4",
                    "midi": 61,
                    "time": 390.13308950000237,
                    "velocity": 0.28346456692913385,
                    "duration": 0.13333325000002105
                },
                {
                    "name": "E4",
                    "midi": 64,
                    "time": 390.13308950000237,
                    "velocity": 0.28346456692913385,
                    "duration": 0.13333325000002105
                },
                {
                    "name": "G4",
                    "midi": 67,
                    "time": 390.13308950000237,
                    "velocity": 0.28346456692913385,
                    "duration": 0.13333325000002105
                },
                {
                    "name": "E4",
                    "midi": 64,
                    "time": 390.3997560000024,
                    "velocity": 0.3464566929133858,
                    "duration": 2.1222208958333226
                },
                {
                    "name": "A4",
                    "midi": 69,
                    "time": 390.3997560000024,
                    "velocity": 0.41732283464566927,
                    "duration": 2.1222208958333226
                },
                {
                    "name": "C#4",
                    "midi": 61,
                    "time": 390.3997560000024,
                    "velocity": 0.3464566929133858,
                    "duration": 2.1222208958333226
                },
                {
                    "name": "G4",
                    "midi": 67,
                    "time": 390.3997560000024,
                    "velocity": 0.3464566929133858,
                    "duration": 2.1222208958333226
                },
                {
                    "name": "A4",
                    "midi": 69,
                    "time": 392.5330880000024,
                    "velocity": 0.33858267716535434,
                    "duration": 0.13333325000002105
                },
                {
                    "name": "A3",
                    "midi": 57,
                    "time": 392.66642125000243,
                    "velocity": 0.29133858267716534,
                    "duration": 0.13333325000002105
                },
                {
                    "name": "C#4",
                    "midi": 61,
                    "time": 392.79975450000245,
                    "velocity": 0.29133858267716534,
                    "duration": 0.13333325000002105
                },
                {
                    "name": "E4",
                    "midi": 64,
                    "time": 392.93308775000247,
                    "velocity": 0.2992125984251969,
                    "duration": 0.13333325000002105
                },
                {
                    "name": "A4",
                    "midi": 69,
                    "time": 393.0664210000025,
                    "velocity": 0.33858267716535434,
                    "duration": 0.13333325000002105
                },
                {
                    "name": "A3",
                    "midi": 57,
                    "time": 393.1997542500025,
                    "velocity": 0.2992125984251969,
                    "duration": 0.13333325000002105
                },
                {
                    "name": "A4",
                    "midi": 69,
                    "time": 393.33308750000253,
                    "velocity": 0.30708661417322836,
                    "duration": 0.13333325000002105
                },
                {
                    "name": "A3",
                    "midi": 57,
                    "time": 393.46642075000256,
                    "velocity": 0.30708661417322836,
                    "duration": 0.13333325000002105
                },
                {
                    "name": "C#5",
                    "midi": 73,
                    "time": 393.5997540000026,
                    "velocity": 0.33858267716535434,
                    "duration": 0.13333325000002105
                },
                {
                    "name": "C#4",
                    "midi": 61,
                    "time": 393.7330872500026,
                    "velocity": 0.30708661417322836,
                    "duration": 0.13333325000002105
                },
                {
                    "name": "E4",
                    "midi": 64,
                    "time": 393.8664205000026,
                    "velocity": 0.30708661417322836,
                    "duration": 0.13333325000002105
                },
                {
                    "name": "A4",
                    "midi": 69,
                    "time": 393.99975375000264,
                    "velocity": 0.31496062992125984,
                    "duration": 0.13333325000002105
                },
                {
                    "name": "C#5",
                    "midi": 73,
                    "time": 394.13308700000266,
                    "velocity": 0.3543307086614173,
                    "duration": 0.13333325000002105
                },
                {
                    "name": "C#4",
                    "midi": 61,
                    "time": 394.2664202500027,
                    "velocity": 0.31496062992125984,
                    "duration": 0.13333325000002105
                },
                {
                    "name": "C#5",
                    "midi": 73,
                    "time": 394.3997535000027,
                    "velocity": 0.31496062992125984,
                    "duration": 0.13333325000002105
                },
                {
                    "name": "C#4",
                    "midi": 61,
                    "time": 394.5330867500027,
                    "velocity": 0.3228346456692913,
                    "duration": 0.13333325000002105
                },
                {
                    "name": "E5",
                    "midi": 76,
                    "time": 394.66642000000274,
                    "velocity": 0.3700787401574803,
                    "duration": 0.13333325000002105
                },
                {
                    "name": "E4",
                    "midi": 64,
                    "time": 394.79975325000277,
                    "velocity": 0.3228346456692913,
                    "duration": 0.13333325000002105
                },
                {
                    "name": "A4",
                    "midi": 69,
                    "time": 394.9330865000028,
                    "velocity": 0.3228346456692913,
                    "duration": 0.13333325000002105
                },
                {
                    "name": "C#5",
                    "midi": 73,
                    "time": 395.0664197500028,
                    "velocity": 0.33070866141732286,
                    "duration": 0.13333325000002105
                },
                {
                    "name": "E5",
                    "midi": 76,
                    "time": 395.19975300000283,
                    "velocity": 0.3858267716535433,
                    "duration": 0.13333325000002105
                },
                {
                    "name": "E4",
                    "midi": 64,
                    "time": 395.33308625000285,
                    "velocity": 0.3464566929133858,
                    "duration": 0.13333325000002105
                },
                {
                    "name": "E5",
                    "midi": 76,
                    "time": 395.46641950000287,
                    "velocity": 0.3543307086614173,
                    "duration": 0.13333325000002105
                },
                {
                    "name": "E4",
                    "midi": 64,
                    "time": 395.5997527500029,
                    "velocity": 0.36220472440944884,
                    "duration": 0.13333325000002105
                },
                {
                    "name": "A5",
                    "midi": 81,
                    "time": 395.7330860000029,
                    "velocity": 0.41732283464566927,
                    "duration": 0.13333325000002105
                },
                {
                    "name": "A4",
                    "midi": 69,
                    "time": 395.86641925000293,
                    "velocity": 0.36220472440944884,
                    "duration": 0.13333325000002105
                },
                {
                    "name": "C#5",
                    "midi": 73,
                    "time": 395.99975250000296,
                    "velocity": 0.3779527559055118,
                    "duration": 0.13333325000002105
                },
                {
                    "name": "E5",
                    "midi": 76,
                    "time": 396.133085750003,
                    "velocity": 0.36220472440944884,
                    "duration": 0.13333325000002105
                },
                {
                    "name": "A5",
                    "midi": 81,
                    "time": 396.266419000003,
                    "velocity": 0.41732283464566927,
                    "duration": 0.13333325000002105
                },
                {
                    "name": "A4",
                    "midi": 69,
                    "time": 396.399752250003,
                    "velocity": 0.3543307086614173,
                    "duration": 0.13333325000002105
                },
                {
                    "name": "A5",
                    "midi": 81,
                    "time": 396.53308550000304,
                    "velocity": 0.3700787401574803,
                    "duration": 0.13333325000002105
                },
                {
                    "name": "A4",
                    "midi": 69,
                    "time": 396.66641875000306,
                    "velocity": 0.36220472440944884,
                    "duration": 0.13333325000002105
                },
                {
                    "name": "A5",
                    "midi": 81,
                    "time": 396.7997520000031,
                    "velocity": 0.41732283464566927,
                    "duration": 0.13333325000002105
                },
                {
                    "name": "A4",
                    "midi": 69,
                    "time": 396.9330852500031,
                    "velocity": 0.3543307086614173,
                    "duration": 0.13333325000002105
                },
                {
                    "name": "D#5",
                    "midi": 75,
                    "time": 397.0664185000031,
                    "velocity": 0.3779527559055118,
                    "duration": 0.13333325000002105
                },
                {
                    "name": "F#5",
                    "midi": 78,
                    "time": 397.19975175000314,
                    "velocity": 0.3700787401574803,
                    "duration": 0.13333325000002105
                },
                {
                    "name": "A5",
                    "midi": 81,
                    "time": 397.33308500000317,
                    "velocity": 0.41732283464566927,
                    "duration": 0.13333325000002105
                },
                {
                    "name": "A4",
                    "midi": 69,
                    "time": 397.4664182500032,
                    "velocity": 0.3543307086614173,
                    "duration": 0.13333325000002105
                },
                {
                    "name": "A5",
                    "midi": 81,
                    "time": 397.5997515000032,
                    "velocity": 0.3700787401574803,
                    "duration": 0.13333325000002105
                },
                {
                    "name": "A4",
                    "midi": 69,
                    "time": 397.73308475000323,
                    "velocity": 0.3543307086614173,
                    "duration": 0.13333325000002105
                },
                {
                    "name": "A5",
                    "midi": 81,
                    "time": 397.86641800000325,
                    "velocity": 0.41732283464566927,
                    "duration": 0.13333325000002105
                },
                {
                    "name": "A4",
                    "midi": 69,
                    "time": 397.99975125000327,
                    "velocity": 0.36220472440944884,
                    "duration": 0.13333325000002105
                },
                {
                    "name": "E5",
                    "midi": 76,
                    "time": 398.1330845000033,
                    "velocity": 0.3779527559055118,
                    "duration": 0.13333325000002105
                },
                {
                    "name": "G5",
                    "midi": 79,
                    "time": 398.2664177500033,
                    "velocity": 0.3700787401574803,
                    "duration": 0.13333325000002105
                },
                {
                    "name": "A5",
                    "midi": 81,
                    "time": 398.39975100000333,
                    "velocity": 0.41732283464566927,
                    "duration": 0.13333325000002105
                },
                {
                    "name": "A4",
                    "midi": 69,
                    "time": 398.53308425000336,
                    "velocity": 0.3543307086614173,
                    "duration": 0.13333325000002105
                },
                {
                    "name": "A5",
                    "midi": 81,
                    "time": 398.6664175000034,
                    "velocity": 0.3700787401574803,
                    "duration": 0.13333325000002105
                },
                {
                    "name": "A4",
                    "midi": 69,
                    "time": 398.7997507500034,
                    "velocity": 0.3543307086614173,
                    "duration": 0.13333325000002105
                },
                {
                    "name": "A5",
                    "midi": 81,
                    "time": 398.9330840000034,
                    "velocity": 0.41732283464566927,
                    "duration": 0.13333325000002105
                },
                {
                    "name": "A4",
                    "midi": 69,
                    "time": 399.06641725000344,
                    "velocity": 0.36220472440944884,
                    "duration": 0.13333325000002105
                },
                {
                    "name": "E5",
                    "midi": 76,
                    "time": 399.19975050000346,
                    "velocity": 0.3779527559055118,
                    "duration": 0.13333325000002105
                },
                {
                    "name": "G5",
                    "midi": 79,
                    "time": 399.3330837500035,
                    "velocity": 0.36220472440944884,
                    "duration": 0.13333325000002105
                },
                {
                    "name": "A5",
                    "midi": 81,
                    "time": 399.4664170000035,
                    "velocity": 0.41732283464566927,
                    "duration": 0.13333325000002105
                },
                {
                    "name": "A4",
                    "midi": 69,
                    "time": 399.5997502500035,
                    "velocity": 0.3543307086614173,
                    "duration": 0.13333325000002105
                },
                {
                    "name": "A5",
                    "midi": 81,
                    "time": 399.73308350000354,
                    "velocity": 0.3700787401574803,
                    "duration": 0.13333325000002105
                },
                {
                    "name": "A4",
                    "midi": 69,
                    "time": 399.86641675000357,
                    "velocity": 0.36220472440944884,
                    "duration": 0.13333325000002105
                },
                {
                    "name": "A5",
                    "midi": 81,
                    "time": 399.9997500000036,
                    "velocity": 0.41732283464566927,
                    "duration": 0.13333325000002105
                },
                {
                    "name": "C#5",
                    "midi": 73,
                    "time": 400.1330832500036,
                    "velocity": 0.3543307086614173,
                    "duration": 0.13333325000002105
                },
                {
                    "name": "A5",
                    "midi": 81,
                    "time": 400.26641650000363,
                    "velocity": 0.3700787401574803,
                    "duration": 0.13333325000002105
                },
                {
                    "name": "C#5",
                    "midi": 73,
                    "time": 400.39974975000365,
                    "velocity": 0.3543307086614173,
                    "duration": 0.13333325000002105
                },
                {
                    "name": "A5",
                    "midi": 81,
                    "time": 400.53308300000367,
                    "velocity": 0.41732283464566927,
                    "duration": 0.13333325000002105
                },
                {
                    "name": "E5",
                    "midi": 76,
                    "time": 400.6664162500037,
                    "velocity": 0.3543307086614173,
                    "duration": 0.13333325000002105
                },
                {
                    "name": "A5",
                    "midi": 81,
                    "time": 400.7997495000037,
                    "velocity": 0.3700787401574803,
                    "duration": 0.13333325000002105
                },
                {
                    "name": "E5",
                    "midi": 76,
                    "time": 400.93308275000373,
                    "velocity": 0.3543307086614173,
                    "duration": 0.13333325000002105
                },
                {
                    "name": "A5",
                    "midi": 81,
                    "time": 401.06641600000376,
                    "velocity": 0.4566929133858268,
                    "duration": 0.13333325000002105
                },
                {
                    "name": "G5",
                    "midi": 79,
                    "time": 401.1997492500038,
                    "velocity": 0.3700787401574803,
                    "duration": 0.13333325000002105
                },
                {
                    "name": "A5",
                    "midi": 81,
                    "time": 401.3330825000038,
                    "velocity": 0.3858267716535433,
                    "duration": 0.13333325000002105
                },
                {
                    "name": "G5",
                    "midi": 79,
                    "time": 401.4664157500038,
                    "velocity": 0.3779527559055118,
                    "duration": 0.13333325000002105
                },
                {
                    "name": "A5",
                    "midi": 81,
                    "time": 401.59974900000384,
                    "velocity": 0.4566929133858268,
                    "duration": 0.13333325000002105
                },
                {
                    "name": "G#5",
                    "midi": 80,
                    "time": 401.73308225000386,
                    "velocity": 0.3779527559055118,
                    "duration": 0.13333325000002105
                },
                {
                    "name": "A5",
                    "midi": 81,
                    "time": 401.8664155000039,
                    "velocity": 0.4094488188976378,
                    "duration": 0.13333325000002105
                },
                {
                    "name": "G#5",
                    "midi": 80,
                    "time": 401.9997487500039,
                    "velocity": 0.3937007874015748,
                    "duration": 0.13333325000002105
                },
                {
                    "name": "B5",
                    "midi": 83,
                    "time": 402.1330820000039,
                    "velocity": 0.4645669291338583,
                    "duration": 0.13333325000002105
                },
                {
                    "name": "A5",
                    "midi": 81,
                    "time": 402.26641525000394,
                    "velocity": 0.3937007874015748,
                    "duration": 0.13333325000002105
                },
                {
                    "name": "B5",
                    "midi": 83,
                    "time": 402.39974850000397,
                    "velocity": 0.4251968503937008,
                    "duration": 0.13333325000002105
                },
                {
                    "name": "A5",
                    "midi": 81,
                    "time": 402.533081750004,
                    "velocity": 0.4015748031496063,
                    "duration": 0.13333325000002105
                },
                {
                    "name": "B5",
                    "midi": 83,
                    "time": 402.666415000004,
                    "velocity": 0.49606299212598426,
                    "duration": 0.13333325000002105
                },
                {
                    "name": "A5",
                    "midi": 81,
                    "time": 402.79974825000403,
                    "velocity": 0.4015748031496063,
                    "duration": 0.13333325000002105
                },
                {
                    "name": "B5",
                    "midi": 83,
                    "time": 402.93308150000405,
                    "velocity": 0.4409448818897638,
                    "duration": 0.13333325000002105
                },
                {
                    "name": "A5",
                    "midi": 81,
                    "time": 403.06641475000407,
                    "velocity": 0.4015748031496063,
                    "duration": 0.13333325000002105
                },
                {
                    "name": "B5",
                    "midi": 83,
                    "time": 403.1997480000041,
                    "velocity": 0.48031496062992124,
                    "duration": 0.13333325000002105
                },
                {
                    "name": "A5",
                    "midi": 81,
                    "time": 403.3330812500041,
                    "velocity": 0.4330708661417323,
                    "duration": 0.13333325000002105
                },
                {
                    "name": "B5",
                    "midi": 83,
                    "time": 403.46641450000413,
                    "velocity": 0.4409448818897638,
                    "duration": 0.13333325000002105
                },
                {
                    "name": "A5",
                    "midi": 81,
                    "time": 403.59974775000416,
                    "velocity": 0.44881889763779526,
                    "duration": 0.13333325000002105
                },
                {
                    "name": "B5",
                    "midi": 83,
                    "time": 403.7330810000042,
                    "velocity": 0.5196850393700787,
                    "duration": 0.13333325000002105
                },
                {
                    "name": "A5",
                    "midi": 81,
                    "time": 403.8664142500042,
                    "velocity": 0.47244094488188976,
                    "duration": 0.13333325000002105
                },
                {
                    "name": "B5",
                    "midi": 83,
                    "time": 403.9997475000042,
                    "velocity": 0.47244094488188976,
                    "duration": 0.13333325000002105
                },
                {
                    "name": "A5",
                    "midi": 81,
                    "time": 404.13308075000424,
                    "velocity": 0.48031496062992124,
                    "duration": 0.13333325000002105
                },
                {
                    "name": "B5",
                    "midi": 83,
                    "time": 404.26641400000426,
                    "velocity": 0.5511811023622047,
                    "duration": 0.13333325000002105
                },
                {
                    "name": "A5",
                    "midi": 81,
                    "time": 404.3997472500043,
                    "velocity": 0.4566929133858268,
                    "duration": 0.13333325000002105
                },
                {
                    "name": "D6",
                    "midi": 86,
                    "time": 404.5330805000043,
                    "velocity": 0.44881889763779526,
                    "duration": 0.13333325000002105
                },
                {
                    "name": "A5",
                    "midi": 81,
                    "time": 404.6664137500043,
                    "velocity": 0.4409448818897638,
                    "duration": 0.13333325000002105
                },
                {
                    "name": "G#5",
                    "midi": 80,
                    "time": 404.79974700000434,
                    "velocity": 0.4881889763779528,
                    "duration": 0.13333325000002105
                },
                {
                    "name": "B5",
                    "midi": 83,
                    "time": 404.93308025000437,
                    "velocity": 0.4330708661417323,
                    "duration": 0.13333325000002105
                },
                {
                    "name": "A5",
                    "midi": 81,
                    "time": 405.0664135000044,
                    "velocity": 0.41732283464566927,
                    "duration": 0.13333325000002105
                },
                {
                    "name": "F#5",
                    "midi": 78,
                    "time": 405.1997467500044,
                    "velocity": 0.4094488188976378,
                    "duration": 0.13333325000002105
                },
                {
                    "name": "D5",
                    "midi": 74,
                    "time": 405.33308000000443,
                    "velocity": 0.3858267716535433,
                    "duration": 0.26666649999998526
                },
                {
                    "name": "E5",
                    "midi": 76,
                    "time": 405.5997465000044,
                    "velocity": 0.3858267716535433,
                    "duration": 0.13333325000002105
                },
                {
                    "name": "D5",
                    "midi": 74,
                    "time": 405.73307975000444,
                    "velocity": 0.2755905511811024,
                    "duration": 0.13333325000002105
                },
                {
                    "name": "E5",
                    "midi": 76,
                    "time": 405.86641300000446,
                    "velocity": 0.3779527559055118,
                    "duration": 0.13333325000002105
                },
                {
                    "name": "D5",
                    "midi": 74,
                    "time": 405.9997462500045,
                    "velocity": 0.2677165354330709,
                    "duration": 0.13333325000002105
                },
                {
                    "name": "F#5",
                    "midi": 78,
                    "time": 406.1330795000045,
                    "velocity": 0.3779527559055118,
                    "duration": 0.13333325000002105
                },
                {
                    "name": "E5",
                    "midi": 76,
                    "time": 406.2664127500045,
                    "velocity": 0.28346456692913385,
                    "duration": 0.13333325000002105
                },
                {
                    "name": "D5",
                    "midi": 74,
                    "time": 406.39974600000454,
                    "velocity": 0.4015748031496063,
                    "duration": 0.13333325000002105
                },
                {
                    "name": "C#5",
                    "midi": 73,
                    "time": 406.53307925000456,
                    "velocity": 0.3464566929133858,
                    "duration": 0.13333325000002105
                },
                {
                    "name": "B4",
                    "midi": 71,
                    "time": 406.6664125000046,
                    "velocity": 0.36220472440944884,
                    "duration": 0.13333325000002105
                },
                {
                    "name": "A4",
                    "midi": 69,
                    "time": 406.7997457500046,
                    "velocity": 0.33858267716535434,
                    "duration": 0.13333325000002105
                },
                {
                    "name": "B4",
                    "midi": 71,
                    "time": 406.9330790000046,
                    "velocity": 0.3858267716535433,
                    "duration": 0.13333325000002105
                },
                {
                    "name": "C#5",
                    "midi": 73,
                    "time": 407.06641225000465,
                    "velocity": 0.3543307086614173,
                    "duration": 0.13333325000002105
                },
                {
                    "name": "D5",
                    "midi": 74,
                    "time": 407.19974550000467,
                    "velocity": 0.3700787401574803,
                    "duration": 0.13333325000002105
                },
                {
                    "name": "E5",
                    "midi": 76,
                    "time": 407.3330787500047,
                    "velocity": 0.3858267716535433,
                    "duration": 0.13333325000002105
                },
                {
                    "name": "A4",
                    "midi": 69,
                    "time": 407.4664120000047,
                    "velocity": 0.4251968503937008,
                    "duration": 0.26666649999998526
                },
                {
                    "name": "B4",
                    "midi": 71,
                    "time": 407.7330785000047,
                    "velocity": 0.4251968503937008,
                    "duration": 0.13333325000002105
                },
                {
                    "name": "A4",
                    "midi": 69,
                    "time": 407.8664117500047,
                    "velocity": 0.29133858267716534,
                    "duration": 0.13333325000002105
                },
                {
                    "name": "B4",
                    "midi": 71,
                    "time": 407.99974500000474,
                    "velocity": 0.4251968503937008,
                    "duration": 0.13333325000002105
                },
                {
                    "name": "A4",
                    "midi": 69,
                    "time": 408.13307825000476,
                    "velocity": 0.3543307086614173,
                    "duration": 0.13333325000002105
                },
                {
                    "name": "F#5",
                    "midi": 78,
                    "time": 408.2664115000048,
                    "velocity": 0.47244094488188976,
                    "duration": 0.13333325000002105
                },
                {
                    "name": "D5",
                    "midi": 74,
                    "time": 408.3997447500048,
                    "velocity": 0.3779527559055118,
                    "duration": 0.13333325000002105
                },
                {
                    "name": "C#5",
                    "midi": 73,
                    "time": 408.5330780000048,
                    "velocity": 0.41732283464566927,
                    "duration": 0.13333325000002105
                },
                {
                    "name": "D5",
                    "midi": 74,
                    "time": 408.66641125000484,
                    "velocity": 0.3937007874015748,
                    "duration": 0.13333325000002105
                },
                {
                    "name": "E5",
                    "midi": 76,
                    "time": 408.79974450000486,
                    "velocity": 0.41732283464566927,
                    "duration": 0.13333325000002105
                },
                {
                    "name": "F#5",
                    "midi": 78,
                    "time": 408.9330777500049,
                    "velocity": 0.4015748031496063,
                    "duration": 0.13333325000002105
                },
                {
                    "name": "G5",
                    "midi": 79,
                    "time": 409.0664110000049,
                    "velocity": 0.4645669291338583,
                    "duration": 0.13333325000002105
                },
                {
                    "name": "A5",
                    "midi": 81,
                    "time": 409.1997442500049,
                    "velocity": 0.4330708661417323,
                    "duration": 0.13333325000002105
                },
                {
                    "name": "B5",
                    "midi": 83,
                    "time": 409.33307750000495,
                    "velocity": 0.5039370078740157,
                    "duration": 0.13333325000002105
                },
                {
                    "name": "A5",
                    "midi": 81,
                    "time": 409.46641075000497,
                    "velocity": 0.44881889763779526,
                    "duration": 0.1233332562500209
                },
                {
                    "name": "A5",
                    "midi": 81,
                    "time": 409.599744000005,
                    "velocity": 0.49606299212598426,
                    "duration": 0.26666649999998526
                },
                {
                    "name": "B5",
                    "midi": 83,
                    "time": 409.866410500005,
                    "velocity": 0.4409448818897638,
                    "duration": 0.13333325000002105
                },
                {
                    "name": "A5",
                    "midi": 81,
                    "time": 409.999743750005,
                    "velocity": 0.33858267716535434,
                    "duration": 0.13333325000002105
                },
                {
                    "name": "B5",
                    "midi": 83,
                    "time": 410.133077000005,
                    "velocity": 0.4409448818897638,
                    "duration": 0.13333325000002105
                },
                {
                    "name": "A5",
                    "midi": 81,
                    "time": 410.26641025000504,
                    "velocity": 0.3543307086614173,
                    "duration": 0.13333325000002105
                },
                {
                    "name": "D6",
                    "midi": 86,
                    "time": 410.39974350000506,
                    "velocity": 0.47244094488188976,
                    "duration": 0.13333325000002105
                },
                {
                    "name": "C#6",
                    "midi": 85,
                    "time": 410.5330767500051,
                    "velocity": 0.33858267716535434,
                    "duration": 0.13333325000002105
                },
                {
                    "name": "B5",
                    "midi": 83,
                    "time": 410.6664100000051,
                    "velocity": 0.41732283464566927,
                    "duration": 0.033333312500019474
                },
                {
                    "name": "C#6",
                    "midi": 85,
                    "time": 410.6997433125051,
                    "velocity": 0.41732283464566927,
                    "duration": 0.033333312500019474
                },
                {
                    "name": "B5",
                    "midi": 83,
                    "time": 410.73307662500514,
                    "velocity": 0.48031496062992124,
                    "duration": 0.0666666249999821
                },
                {
                    "name": "A#5",
                    "midi": 82,
                    "time": 410.7997432500051,
                    "velocity": 0.4409448818897638,
                    "duration": 0.13333325000002105
                },
                {
                    "name": "B5",
                    "midi": 83,
                    "time": 410.93307650000514,
                    "velocity": 0.48031496062992124,
                    "duration": 0.13333325000002105
                },
                {
                    "name": "C#6",
                    "midi": 85,
                    "time": 411.06640975000516,
                    "velocity": 0.4409448818897638,
                    "duration": 0.13333325000002105
                },
                {
                    "name": "B5",
                    "midi": 83,
                    "time": 411.1997430000052,
                    "velocity": 0.48031496062992124,
                    "duration": 0.13333325000002105
                },
                {
                    "name": "G6",
                    "midi": 91,
                    "time": 411.3330762500052,
                    "velocity": 0.5275590551181102,
                    "duration": 0.13333325000002105
                },
                {
                    "name": "F#6",
                    "midi": 90,
                    "time": 411.4664095000052,
                    "velocity": 0.48031496062992124,
                    "duration": 0.13333325000002105
                },
                {
                    "name": "D6",
                    "midi": 86,
                    "time": 411.59974275000525,
                    "velocity": 0.44881889763779526,
                    "duration": 0.13333325000002105
                },
                {
                    "name": "A5",
                    "midi": 81,
                    "time": 411.73307600000527,
                    "velocity": 0.5511811023622047,
                    "duration": 0.26666649999998526
                },
                {
                    "name": "B5",
                    "midi": 83,
                    "time": 411.99974250000525,
                    "velocity": 0.5196850393700787,
                    "duration": 0.13333325000002105
                },
                {
                    "name": "A5",
                    "midi": 81,
                    "time": 412.1330757500053,
                    "velocity": 0.3700787401574803,
                    "duration": 0.13333325000002105
                },
                {
                    "name": "B5",
                    "midi": 83,
                    "time": 412.2664090000053,
                    "velocity": 0.5196850393700787,
                    "duration": 0.13333325000002105
                },
                {
                    "name": "A5",
                    "midi": 81,
                    "time": 412.3997422500053,
                    "velocity": 0.3700787401574803,
                    "duration": 0.13333325000002105
                },
                {
                    "name": "B5",
                    "midi": 83,
                    "time": 412.53307550000534,
                    "velocity": 0.5354330708661418,
                    "duration": 0.13333325000002105
                },
                {
                    "name": "A5",
                    "midi": 81,
                    "time": 412.66640875000536,
                    "velocity": 0.3858267716535433,
                    "duration": 0.13333325000002105
                },
                {
                    "name": "B5",
                    "midi": 83,
                    "time": 412.7997420000054,
                    "velocity": 0.5433070866141733,
                    "duration": 0.13333325000002105
                },
                {
                    "name": "A5",
                    "midi": 81,
                    "time": 412.9330752500054,
                    "velocity": 0.4409448818897638,
                    "duration": 0.13333325000002105
                },
                {
                    "name": "D6",
                    "midi": 86,
                    "time": 413.0664085000054,
                    "velocity": 0.49606299212598426,
                    "duration": 0.13333325000002105
                },
                {
                    "name": "A5",
                    "midi": 81,
                    "time": 413.19974175000544,
                    "velocity": 0.3700787401574803,
                    "duration": 0.13333325000002105
                },
                {
                    "name": "G#5",
                    "midi": 80,
                    "time": 413.33307500000546,
                    "velocity": 0.48031496062992124,
                    "duration": 0.13333325000002105
                },
                {
                    "name": "B5",
                    "midi": 83,
                    "time": 413.4664082500055,
                    "velocity": 0.4251968503937008,
                    "duration": 0.13333325000002105
                },
                {
                    "name": "A5",
                    "midi": 81,
                    "time": 413.5997415000055,
                    "velocity": 0.4645669291338583,
                    "duration": 0.13333325000002105
                },
                {
                    "name": "F#5",
                    "midi": 78,
                    "time": 413.7330747500055,
                    "velocity": 0.4015748031496063,
                    "duration": 0.13333325000002105
                },
                {
                    "name": "D5",
                    "midi": 74,
                    "time": 413.86640800000555,
                    "velocity": 0.3858267716535433,
                    "duration": 0.26666649999998526
                },
                {
                    "name": "E5",
                    "midi": 76,
                    "time": 414.13307450000553,
                    "velocity": 0.3858267716535433,
                    "duration": 0.13333325000002105
                },
                {
                    "name": "D5",
                    "midi": 74,
                    "time": 414.26640775000556,
                    "velocity": 0.2755905511811024,
                    "duration": 0.13333325000002105
                },
                {
                    "name": "E5",
                    "midi": 76,
                    "time": 414.3997410000056,
                    "velocity": 0.3937007874015748,
                    "duration": 0.13333325000002105
                },
                {
                    "name": "D5",
                    "midi": 74,
                    "time": 414.5330742500056,
                    "velocity": 0.2755905511811024,
                    "duration": 0.13333325000002105
                },
                {
                    "name": "F#5",
                    "midi": 78,
                    "time": 414.6664075000056,
                    "velocity": 0.4251968503937008,
                    "duration": 0.13333325000002105
                },
                {
                    "name": "E5",
                    "midi": 76,
                    "time": 414.79974075000564,
                    "velocity": 0.31496062992125984,
                    "duration": 0.13333325000002105
                },
                {
                    "name": "D5",
                    "midi": 74,
                    "time": 414.93307400000566,
                    "velocity": 0.4015748031496063,
                    "duration": 0.13333325000002105
                },
                {
                    "name": "C#5",
                    "midi": 73,
                    "time": 415.0664072500057,
                    "velocity": 0.3543307086614173,
                    "duration": 0.13333325000002105
                },
                {
                    "name": "B4",
                    "midi": 71,
                    "time": 415.1997405000057,
                    "velocity": 0.4015748031496063,
                    "duration": 0.13333325000002105
                },
                {
                    "name": "A4",
                    "midi": 69,
                    "time": 415.3330737500057,
                    "velocity": 0.36220472440944884,
                    "duration": 0.13333325000002105
                },
                {
                    "name": "B4",
                    "midi": 71,
                    "time": 415.46640700000574,
                    "velocity": 0.4409448818897638,
                    "duration": 0.13333325000002105
                },
                {
                    "name": "C#5",
                    "midi": 73,
                    "time": 415.59974025000577,
                    "velocity": 0.4566929133858268,
                    "duration": 0.13333325000002105
                },
                {
                    "name": "D5",
                    "midi": 74,
                    "time": 415.7330735000058,
                    "velocity": 0.48031496062992124,
                    "duration": 0.13333325000002105
                },
                {
                    "name": "E5",
                    "midi": 76,
                    "time": 415.8664067500058,
                    "velocity": 0.49606299212598426,
                    "duration": 0.1222221458333479
                },
                {
                    "name": "F#5",
                    "midi": 78,
                    "time": 415.99974000000583,
                    "velocity": 0.5196850393700787,
                    "duration": 0.26666649999998526
                },
                {
                    "name": "F5",
                    "midi": 77,
                    "time": 416.2664065000058,
                    "velocity": 0.4881889763779528,
                    "duration": 0.13333325000002105
                },
                {
                    "name": "F#5",
                    "midi": 78,
                    "time": 416.39973975000584,
                    "velocity": 0.4094488188976378,
                    "duration": 0.13333325000002105
                },
                {
                    "name": "F5",
                    "midi": 77,
                    "time": 416.53307300000586,
                    "velocity": 0.4881889763779528,
                    "duration": 0.13333325000002105
                },
                {
                    "name": "F#5",
                    "midi": 78,
                    "time": 416.6664062500059,
                    "velocity": 0.3543307086614173,
                    "duration": 0.13333325000002105
                },
                {
                    "name": "F5",
                    "midi": 77,
                    "time": 416.7997395000059,
                    "velocity": 0.4881889763779528,
                    "duration": 0.13333325000002105
                },
                {
                    "name": "F#5",
                    "midi": 78,
                    "time": 416.9330727500059,
                    "velocity": 0.3543307086614173,
                    "duration": 0.13333325000002105
                },
                {
                    "name": "G5",
                    "midi": 79,
                    "time": 417.06640600000594,
                    "velocity": 0.4881889763779528,
                    "duration": 0.13333325000002105
                },
                {
                    "name": "B5",
                    "midi": 83,
                    "time": 417.19973925000596,
                    "velocity": 0.44881889763779526,
                    "duration": 0.13333325000002105
                },
                {
                    "name": "E6",
                    "midi": 88,
                    "time": 417.333072500006,
                    "velocity": 0.5275590551181102,
                    "duration": 0.13333325000002105
                },
                {
                    "name": "D6",
                    "midi": 86,
                    "time": 417.466405750006,
                    "velocity": 0.4251968503937008,
                    "duration": 0.13333325000002105
                },
                {
                    "name": "C#6",
                    "midi": 85,
                    "time": 417.599739000006,
                    "velocity": 0.4881889763779528,
                    "duration": 0.13333325000002105
                },
                {
                    "name": "B5",
                    "midi": 83,
                    "time": 417.73307225000605,
                    "velocity": 0.4251968503937008,
                    "duration": 0.13333325000002105
                },
                {
                    "name": "A5",
                    "midi": 81,
                    "time": 417.86640550000607,
                    "velocity": 0.4094488188976378,
                    "duration": 0.13333325000002105
                },
                {
                    "name": "G5",
                    "midi": 79,
                    "time": 417.9997387500061,
                    "velocity": 0.4094488188976378,
                    "duration": 0.13333325000002105
                },
                {
                    "name": "F#5",
                    "midi": 78,
                    "time": 418.1330720000061,
                    "velocity": 0.4566929133858268,
                    "duration": 0.26666649999998526
                },
                {
                    "name": "A5",
                    "midi": 81,
                    "time": 418.3997385000061,
                    "velocity": 0.4251968503937008,
                    "duration": 0.13333325000002105
                },
                {
                    "name": "F#5",
                    "midi": 78,
                    "time": 418.5330717500061,
                    "velocity": 0.3228346456692913,
                    "duration": 0.13333325000002105
                },
                {
                    "name": "A5",
                    "midi": 81,
                    "time": 418.66640500000614,
                    "velocity": 0.4330708661417323,
                    "duration": 0.13333325000002105
                },
                {
                    "name": "F#5",
                    "midi": 78,
                    "time": 418.79973825000616,
                    "velocity": 0.3228346456692913,
                    "duration": 0.13333325000002105
                },
                {
                    "name": "A5",
                    "midi": 81,
                    "time": 418.9330715000062,
                    "velocity": 0.4409448818897638,
                    "duration": 0.13333325000002105
                },
                {
                    "name": "F#5",
                    "midi": 78,
                    "time": 419.0664047500062,
                    "velocity": 0.36220472440944884,
                    "duration": 0.13333325000002105
                },
                {
                    "name": "E5",
                    "midi": 76,
                    "time": 419.1997380000062,
                    "velocity": 0.4251968503937008,
                    "duration": 0.13333325000002105
                },
                {
                    "name": "F#5",
                    "midi": 78,
                    "time": 419.33307125000624,
                    "velocity": 0.3937007874015748,
                    "duration": 0.13333325000002105
                },
                {
                    "name": "G5",
                    "midi": 79,
                    "time": 419.46640450000626,
                    "velocity": 0.4251968503937008,
                    "duration": 0.13333325000002105
                },
                {
                    "name": "B5",
                    "midi": 83,
                    "time": 419.5997377500063,
                    "velocity": 0.47244094488188976,
                    "duration": 0.13333325000002105
                },
                {
                    "name": "A5",
                    "midi": 81,
                    "time": 419.7330710000063,
                    "velocity": 0.44881889763779526,
                    "duration": 0.13333325000002105
                },
                {
                    "name": "G5",
                    "midi": 79,
                    "time": 419.8664042500063,
                    "velocity": 0.3858267716535433,
                    "duration": 0.13333325000002105
                },
                {
                    "name": "F#5",
                    "midi": 78,
                    "time": 419.99973750000635,
                    "velocity": 0.44881889763779526,
                    "duration": 0.13333325000002105
                },
                {
                    "name": "E5",
                    "midi": 76,
                    "time": 420.13307075000637,
                    "velocity": 0.36220472440944884,
                    "duration": 0.13333325000002105
                },
                {
                    "name": "D5",
                    "midi": 74,
                    "time": 420.2664040000064,
                    "velocity": 0.3858267716535433,
                    "duration": 0.26666649999998526
                },
                {
                    "name": "E5",
                    "midi": 76,
                    "time": 420.5330705000064,
                    "velocity": 0.3858267716535433,
                    "duration": 0.13333325000002105
                },
                {
                    "name": "D5",
                    "midi": 74,
                    "time": 420.6664037500064,
                    "velocity": 0.25984251968503935,
                    "duration": 0.13333325000002105
                },
                {
                    "name": "E5",
                    "midi": 76,
                    "time": 420.7997370000064,
                    "velocity": 0.3858267716535433,
                    "duration": 0.13333325000002105
                },
                {
                    "name": "D5",
                    "midi": 74,
                    "time": 420.93307025000644,
                    "velocity": 0.2677165354330709,
                    "duration": 0.13333325000002105
                },
                {
                    "name": "E5",
                    "midi": 76,
                    "time": 421.06640350000646,
                    "velocity": 0.3779527559055118,
                    "duration": 0.13333325000002105
                },
                {
                    "name": "D5",
                    "midi": 74,
                    "time": 421.1997367500065,
                    "velocity": 0.31496062992125984,
                    "duration": 0.13333325000002105
                },
                {
                    "name": "D4",
                    "midi": 62,
                    "time": 421.3330700000065,
                    "velocity": 0.48031496062992124,
                    "duration": 0.13333325000002105
                },
                {
                    "name": "E4",
                    "midi": 64,
                    "time": 421.4664032500065,
                    "velocity": 0.4094488188976378,
                    "duration": 0.13333325000002105
                },
                {
                    "name": "F#4",
                    "midi": 66,
                    "time": 421.59973650000654,
                    "velocity": 0.4330708661417323,
                    "duration": 0.13333325000002105
                },
                {
                    "name": "B4",
                    "midi": 71,
                    "time": 421.73306975000656,
                    "velocity": 0.4094488188976378,
                    "duration": 0.13333325000002105
                },
                {
                    "name": "A4",
                    "midi": 69,
                    "time": 421.8664030000066,
                    "velocity": 0.48031496062992124,
                    "duration": 0.13333325000002105
                },
                {
                    "name": "F#4",
                    "midi": 66,
                    "time": 421.9997362500066,
                    "velocity": 0.4094488188976378,
                    "duration": 0.13333325000002105
                },
                {
                    "name": "E4",
                    "midi": 64,
                    "time": 422.1330695000066,
                    "velocity": 0.4330708661417323,
                    "duration": 0.13333325000002105
                },
                {
                    "name": "D4",
                    "midi": 62,
                    "time": 422.26640275000665,
                    "velocity": 0.4094488188976378,
                    "duration": 0.13333325000002105
                },
                {
                    "name": "E4",
                    "midi": 64,
                    "time": 422.39973600000667,
                    "velocity": 0.4881889763779528,
                    "duration": 0.26666649999998526
                },
                {
                    "name": "F#4",
                    "midi": 66,
                    "time": 422.66640250000665,
                    "velocity": 0.4645669291338583,
                    "duration": 0.13333325000002105
                },
                {
                    "name": "E4",
                    "midi": 64,
                    "time": 422.7997357500067,
                    "velocity": 0.3464566929133858,
                    "duration": 0.13333325000002105
                },
                {
                    "name": "F#4",
                    "midi": 66,
                    "time": 422.9330690000067,
                    "velocity": 0.44881889763779526,
                    "duration": 0.13333325000002105
                },
                {
                    "name": "E4",
                    "midi": 64,
                    "time": 423.0664022500067,
                    "velocity": 0.3464566929133858,
                    "duration": 0.13333325000002105
                },
                {
                    "name": "F#4",
                    "midi": 66,
                    "time": 423.19973550000674,
                    "velocity": 0.44881889763779526,
                    "duration": 0.13333325000002105
                },
                {
                    "name": "E4",
                    "midi": 64,
                    "time": 423.33306875000676,
                    "velocity": 0.3464566929133858,
                    "duration": 0.13333325000002105
                },
                {
                    "name": "E4",
                    "midi": 64,
                    "time": 423.4664020000068,
                    "velocity": 0.44881889763779526,
                    "duration": 0.13333325000002105
                },
                {
                    "name": "F#4",
                    "midi": 66,
                    "time": 423.5997352500068,
                    "velocity": 0.4094488188976378,
                    "duration": 0.13333325000002105
                },
                {
                    "name": "G4",
                    "midi": 67,
                    "time": 423.7330685000068,
                    "velocity": 0.4094488188976378,
                    "duration": 0.13333325000002105
                },
                {
                    "name": "C#5",
                    "midi": 73,
                    "time": 423.86640175000684,
                    "velocity": 0.47244094488188976,
                    "duration": 0.13333325000002105
                },
                {
                    "name": "B4",
                    "midi": 71,
                    "time": 423.99973500000686,
                    "velocity": 0.48031496062992124,
                    "duration": 0.13333325000002105
                },
                {
                    "name": "A4",
                    "midi": 69,
                    "time": 424.1330682500069,
                    "velocity": 0.3858267716535433,
                    "duration": 0.13333325000002105
                },
                {
                    "name": "G4",
                    "midi": 67,
                    "time": 424.2664015000069,
                    "velocity": 0.4330708661417323,
                    "duration": 0.13333325000002105
                },
                {
                    "name": "E4",
                    "midi": 64,
                    "time": 424.3997347500069,
                    "velocity": 0.3858267716535433,
                    "duration": 0.13333325000002105
                },
                {
                    "name": "F#4",
                    "midi": 66,
                    "time": 424.53306800000695,
                    "velocity": 0.4566929133858268,
                    "duration": 0.26666649999998526
                },
                {
                    "name": "F4",
                    "midi": 65,
                    "time": 424.79973450000693,
                    "velocity": 0.4015748031496063,
                    "duration": 0.13333325000002105
                },
                {
                    "name": "F#4",
                    "midi": 66,
                    "time": 424.93306775000696,
                    "velocity": 0.30708661417322836,
                    "duration": 0.13333325000002105
                },
                {
                    "name": "F4",
                    "midi": 65,
                    "time": 425.066401000007,
                    "velocity": 0.4015748031496063,
                    "duration": 0.13333325000002105
                },
                {
                    "name": "F#4",
                    "midi": 66,
                    "time": 425.199734250007,
                    "velocity": 0.31496062992125984,
                    "duration": 0.13333325000002105
                },
                {
                    "name": "A4",
                    "midi": 69,
                    "time": 425.333067500007,
                    "velocity": 0.4015748031496063,
                    "duration": 0.13333325000002105
                },
                {
                    "name": "C#5",
                    "midi": 73,
                    "time": 425.46640075000704,
                    "velocity": 0.4409448818897638,
                    "duration": 0.13333325000002105
                },
                {
                    "name": "D5",
                    "midi": 74,
                    "time": 425.59973400000706,
                    "velocity": 0.49606299212598426,
                    "duration": 0.13333325000002105
                },
                {
                    "name": "E5",
                    "midi": 76,
                    "time": 425.7330672500071,
                    "velocity": 0.4645669291338583,
                    "duration": 0.13333325000002105
                },
                {
                    "name": "F#5",
                    "midi": 78,
                    "time": 425.8664005000071,
                    "velocity": 0.5039370078740157,
                    "duration": 0.13333325000002105
                },
                {
                    "name": "B5",
                    "midi": 83,
                    "time": 425.9997337500071,
                    "velocity": 0.5433070866141733,
                    "duration": 0.13333325000002105
                },
                {
                    "name": "A5",
                    "midi": 81,
                    "time": 426.13306700000714,
                    "velocity": 0.5118110236220472,
                    "duration": 0.13333325000002105
                },
                {
                    "name": "F#5",
                    "midi": 78,
                    "time": 426.26640025000717,
                    "velocity": 0.4409448818897638,
                    "duration": 0.13333325000002105
                },
                {
                    "name": "E5",
                    "midi": 76,
                    "time": 426.3997335000072,
                    "velocity": 0.47244094488188976,
                    "duration": 0.13333325000002105
                },
                {
                    "name": "D5",
                    "midi": 74,
                    "time": 426.5330667500072,
                    "velocity": 0.4409448818897638,
                    "duration": 0.13333325000002105
                },
                {
                    "name": "C#5",
                    "midi": 73,
                    "time": 426.66640000000723,
                    "velocity": 0.5275590551181102,
                    "duration": 0.13333325000002105
                },
                {
                    "name": "B4",
                    "midi": 71,
                    "time": 426.79973325000725,
                    "velocity": 0.4330708661417323,
                    "duration": 0.13333325000002105
                },
                {
                    "name": "A4",
                    "midi": 69,
                    "time": 426.93306650000727,
                    "velocity": 0.4566929133858268,
                    "duration": 0.13333325000002105
                },
                {
                    "name": "F#5",
                    "midi": 78,
                    "time": 427.0663997500073,
                    "velocity": 0.5275590551181102,
                    "duration": 0.13333325000002105
                },
                {
                    "name": "E5",
                    "midi": 76,
                    "time": 427.1997330000073,
                    "velocity": 0.48031496062992124,
                    "duration": 0.13333325000002105
                },
                {
                    "name": "C#5",
                    "midi": 73,
                    "time": 427.33306625000733,
                    "velocity": 0.4330708661417323,
                    "duration": 0.13333325000002105
                },
                {
                    "name": "B4",
                    "midi": 71,
                    "time": 427.46639950000736,
                    "velocity": 0.47244094488188976,
                    "duration": 0.13333325000002105
                },
                {
                    "name": "A4",
                    "midi": 69,
                    "time": 427.5997327500074,
                    "velocity": 0.4094488188976378,
                    "duration": 0.13333325000002105
                },
                {
                    "name": "G#4",
                    "midi": 68,
                    "time": 427.7330660000074,
                    "velocity": 0.5275590551181102,
                    "duration": 0.13333325000002105
                },
                {
                    "name": "F#4",
                    "midi": 66,
                    "time": 427.8663992500074,
                    "velocity": 0.4094488188976378,
                    "duration": 0.13333325000002105
                },
                {
                    "name": "E4",
                    "midi": 64,
                    "time": 427.99973250000744,
                    "velocity": 0.4881889763779528,
                    "duration": 0.13333325000002105
                },
                {
                    "name": "G#4",
                    "midi": 68,
                    "time": 428.13306575000746,
                    "velocity": 0.4094488188976378,
                    "duration": 0.13333325000002105
                },
                {
                    "name": "E5",
                    "midi": 76,
                    "time": 428.2663990000075,
                    "velocity": 0.5039370078740157,
                    "duration": 0.13333325000002105
                },
                {
                    "name": "D5",
                    "midi": 74,
                    "time": 428.3997322500075,
                    "velocity": 0.4330708661417323,
                    "duration": 0.13333325000002105
                },
                {
                    "name": "C#5",
                    "midi": 73,
                    "time": 428.5330655000075,
                    "velocity": 0.4645669291338583,
                    "duration": 0.13333325000002105
                },
                {
                    "name": "B4",
                    "midi": 71,
                    "time": 428.66639875000755,
                    "velocity": 0.4094488188976378,
                    "duration": 0.13333325000002105
                },
                {
                    "name": "A4",
                    "midi": 69,
                    "time": 428.79973200000757,
                    "velocity": 0.48031496062992124,
                    "duration": 0.26666649999998526
                },
                {
                    "name": "B4",
                    "midi": 71,
                    "time": 429.06639850000755,
                    "velocity": 0.48031496062992124,
                    "duration": 0.13333325000002105
                },
                {
                    "name": "A4",
                    "midi": 69,
                    "time": 429.1997317500076,
                    "velocity": 0.41732283464566927,
                    "duration": 0.13333325000002105
                },
                {
                    "name": "E5",
                    "midi": 76,
                    "time": 429.3330650000076,
                    "velocity": 0.47244094488188976,
                    "duration": 0.13333325000002105
                },
                {
                    "name": "C#5",
                    "midi": 73,
                    "time": 429.3330650000076,
                    "velocity": 0.4015748031496063,
                    "duration": 0.13333325000002105
                },
                {
                    "name": "E5",
                    "midi": 76,
                    "time": 429.59973150000764,
                    "velocity": 0.4409448818897638,
                    "duration": 0.13333325000002105
                },
                {
                    "name": "C#5",
                    "midi": 73,
                    "time": 429.59973150000764,
                    "velocity": 0.3700787401574803,
                    "duration": 0.13333325000002105
                },
                {
                    "name": "A4",
                    "midi": 69,
                    "time": 429.8663980000077,
                    "velocity": 0.2992125984251969,
                    "duration": 0.13333325000002105
                },
                {
                    "name": "C#5",
                    "midi": 73,
                    "time": 429.8663980000077,
                    "velocity": 0.2992125984251969,
                    "duration": 0.13333325000002105
                },
                {
                    "name": "E5",
                    "midi": 76,
                    "time": 429.8663980000077,
                    "velocity": 0.4251968503937008,
                    "duration": 0.13333325000002105
                },
                {
                    "name": "E5",
                    "midi": 76,
                    "time": 430.1330645000077,
                    "velocity": 0.4015748031496063,
                    "duration": 0.13333325000002105
                },
                {
                    "name": "A4",
                    "midi": 69,
                    "time": 430.1330645000077,
                    "velocity": 0.33858267716535434,
                    "duration": 0.13333325000002105
                },
                {
                    "name": "C#5",
                    "midi": 73,
                    "time": 430.1330645000077,
                    "velocity": 0.33858267716535434,
                    "duration": 0.13333325000002105
                },
                {
                    "name": "C#5",
                    "midi": 73,
                    "time": 430.39973100000776,
                    "velocity": 0.3858267716535433,
                    "duration": 0.13333325000002105
                },
                {
                    "name": "E5",
                    "midi": 76,
                    "time": 430.39973100000776,
                    "velocity": 0.4566929133858268,
                    "duration": 0.13333325000002105
                },
                {
                    "name": "C#5",
                    "midi": 73,
                    "time": 430.6663975000078,
                    "velocity": 0.3700787401574803,
                    "duration": 0.13333325000002105
                },
                {
                    "name": "E5",
                    "midi": 76,
                    "time": 430.6663975000078,
                    "velocity": 0.4409448818897638,
                    "duration": 0.13333325000002105
                },
                {
                    "name": "B4",
                    "midi": 71,
                    "time": 430.93306400000785,
                    "velocity": 0.3858267716535433,
                    "duration": 0.13333325000002105
                },
                {
                    "name": "D5",
                    "midi": 74,
                    "time": 430.93306400000785,
                    "velocity": 0.3858267716535433,
                    "duration": 0.13333325000002105
                },
                {
                    "name": "F#5",
                    "midi": 78,
                    "time": 430.93306400000785,
                    "velocity": 0.4566929133858268,
                    "duration": 0.13333325000002105
                },
                {
                    "name": "F#5",
                    "midi": 78,
                    "time": 431.1997305000079,
                    "velocity": 0.41732283464566927,
                    "duration": 0.13333325000002105
                },
                {
                    "name": "B4",
                    "midi": 71,
                    "time": 431.1997305000079,
                    "velocity": 0.3543307086614173,
                    "duration": 0.13333325000002105
                },
                {
                    "name": "D5",
                    "midi": 74,
                    "time": 431.1997305000079,
                    "velocity": 0.3543307086614173,
                    "duration": 0.13333325000002105
                },
                {
                    "name": "D5",
                    "midi": 74,
                    "time": 431.46639700000793,
                    "velocity": 0.3700787401574803,
                    "duration": 0.13333325000002105
                },
                {
                    "name": "B4",
                    "midi": 71,
                    "time": 431.46639700000793,
                    "velocity": 0.3700787401574803,
                    "duration": 0.13333325000002105
                },
                {
                    "name": "E5",
                    "midi": 76,
                    "time": 431.46639700000793,
                    "velocity": 0.4409448818897638,
                    "duration": 0.13333325000002105
                },
                {
                    "name": "D5",
                    "midi": 74,
                    "time": 431.733063500008,
                    "velocity": 0.3543307086614173,
                    "duration": 0.13333325000002105
                },
                {
                    "name": "E5",
                    "midi": 76,
                    "time": 431.733063500008,
                    "velocity": 0.41732283464566927,
                    "duration": 0.13333325000002105
                },
                {
                    "name": "B4",
                    "midi": 71,
                    "time": 431.733063500008,
                    "velocity": 0.3543307086614173,
                    "duration": 0.13333325000002105
                },
                {
                    "name": "B4",
                    "midi": 71,
                    "time": 431.999730000008,
                    "velocity": 0.3779527559055118,
                    "duration": 0.13333325000002105
                },
                {
                    "name": "G#4",
                    "midi": 68,
                    "time": 431.999730000008,
                    "velocity": 0.3779527559055118,
                    "duration": 0.13333325000002105
                },
                {
                    "name": "E5",
                    "midi": 76,
                    "time": 431.999730000008,
                    "velocity": 0.44881889763779526,
                    "duration": 0.13333325000002105
                },
                {
                    "name": "B4",
                    "midi": 71,
                    "time": 432.26639650000806,
                    "velocity": 0.3228346456692913,
                    "duration": 0.13333325000002105
                },
                {
                    "name": "G#4",
                    "midi": 68,
                    "time": 432.26639650000806,
                    "velocity": 0.3228346456692913,
                    "duration": 0.13333325000002105
                },
                {
                    "name": "E5",
                    "midi": 76,
                    "time": 432.26639650000806,
                    "velocity": 0.3858267716535433,
                    "duration": 0.13333325000002105
                },
                {
                    "name": "D5",
                    "midi": 74,
                    "time": 432.5330630000081,
                    "velocity": 0.36220472440944884,
                    "duration": 0.13333325000002105
                },
                {
                    "name": "E5",
                    "midi": 76,
                    "time": 432.5330630000081,
                    "velocity": 0.4330708661417323,
                    "duration": 0.13333325000002105
                },
                {
                    "name": "B4",
                    "midi": 71,
                    "time": 432.5330630000081,
                    "velocity": 0.36220472440944884,
                    "duration": 0.13333325000002105
                },
                {
                    "name": "E5",
                    "midi": 76,
                    "time": 432.79972950000814,
                    "velocity": 0.3937007874015748,
                    "duration": 0.13333325000002105
                },
                {
                    "name": "D5",
                    "midi": 74,
                    "time": 432.79972950000814,
                    "velocity": 0.33070866141732286,
                    "duration": 0.13333325000002105
                },
                {
                    "name": "B4",
                    "midi": 71,
                    "time": 432.79972950000814,
                    "velocity": 0.33070866141732286,
                    "duration": 0.13333325000002105
                },
                {
                    "name": "F#5",
                    "midi": 78,
                    "time": 433.0663960000082,
                    "velocity": 0.4566929133858268,
                    "duration": 0.13333325000002105
                },
                {
                    "name": "C#5",
                    "midi": 73,
                    "time": 433.0663960000082,
                    "velocity": 0.3858267716535433,
                    "duration": 0.13333325000002105
                },
                {
                    "name": "A4",
                    "midi": 69,
                    "time": 433.0663960000082,
                    "velocity": 0.3858267716535433,
                    "duration": 0.13333325000002105
                },
                {
                    "name": "C#5",
                    "midi": 73,
                    "time": 433.3330625000082,
                    "velocity": 0.3543307086614173,
                    "duration": 0.13333325000002105
                },
                {
                    "name": "A4",
                    "midi": 69,
                    "time": 433.3330625000082,
                    "velocity": 0.3543307086614173,
                    "duration": 0.13333325000002105
                },
                {
                    "name": "F#5",
                    "midi": 78,
                    "time": 433.3330625000082,
                    "velocity": 0.41732283464566927,
                    "duration": 0.13333325000002105
                },
                {
                    "name": "A4",
                    "midi": 69,
                    "time": 433.59972900000827,
                    "velocity": 0.3543307086614173,
                    "duration": 0.13333325000002105
                },
                {
                    "name": "E5",
                    "midi": 76,
                    "time": 433.59972900000827,
                    "velocity": 0.41732283464566927,
                    "duration": 0.13333325000002105
                },
                {
                    "name": "C#5",
                    "midi": 73,
                    "time": 433.59972900000827,
                    "velocity": 0.3543307086614173,
                    "duration": 0.13333325000002105
                },
                {
                    "name": "A4",
                    "midi": 69,
                    "time": 433.8663955000083,
                    "velocity": 0.33070866141732286,
                    "duration": 0.13333325000002105
                },
                {
                    "name": "C#5",
                    "midi": 73,
                    "time": 433.8663955000083,
                    "velocity": 0.33070866141732286,
                    "duration": 0.13333325000002105
                },
                {
                    "name": "E5",
                    "midi": 76,
                    "time": 433.8663955000083,
                    "velocity": 0.3937007874015748,
                    "duration": 0.13333325000002105
                },
                {
                    "name": "C#5",
                    "midi": 73,
                    "time": 434.13306200000835,
                    "velocity": 0.3543307086614173,
                    "duration": 0.13333325000002105
                },
                {
                    "name": "A5",
                    "midi": 81,
                    "time": 434.13306200000835,
                    "velocity": 0.4251968503937008,
                    "duration": 0.13333325000002105
                },
                {
                    "name": "E5",
                    "midi": 76,
                    "time": 434.13306200000835,
                    "velocity": 0.3543307086614173,
                    "duration": 0.13333325000002105
                },
                {
                    "name": "A4",
                    "midi": 69,
                    "time": 434.13306200000835,
                    "velocity": 0.3543307086614173,
                    "duration": 0.13333325000002105
                },
                {
                    "name": "A4",
                    "midi": 69,
                    "time": 434.3997285000084,
                    "velocity": 0.3228346456692913,
                    "duration": 0.13333325000002105
                },
                {
                    "name": "C#5",
                    "midi": 73,
                    "time": 434.3997285000084,
                    "velocity": 0.3228346456692913,
                    "duration": 0.13333325000002105
                },
                {
                    "name": "A5",
                    "midi": 81,
                    "time": 434.3997285000084,
                    "velocity": 0.3858267716535433,
                    "duration": 0.13333325000002105
                },
                {
                    "name": "E5",
                    "midi": 76,
                    "time": 434.3997285000084,
                    "velocity": 0.3228346456692913,
                    "duration": 0.13333325000002105
                },
                {
                    "name": "A5",
                    "midi": 81,
                    "time": 434.66639500000844,
                    "velocity": 0.44881889763779526,
                    "duration": 0.13333325000002105
                },
                {
                    "name": "A4",
                    "midi": 69,
                    "time": 434.66639500000844,
                    "velocity": 0.3779527559055118,
                    "duration": 0.13333325000002105
                },
                {
                    "name": "E5",
                    "midi": 76,
                    "time": 434.66639500000844,
                    "velocity": 0.3779527559055118,
                    "duration": 0.13333325000002105
                },
                {
                    "name": "C#5",
                    "midi": 73,
                    "time": 434.66639500000844,
                    "velocity": 0.3779527559055118,
                    "duration": 0.13333325000002105
                },
                {
                    "name": "A4",
                    "midi": 69,
                    "time": 434.9330615000085,
                    "velocity": 0.36220472440944884,
                    "duration": 0.13333325000002105
                },
                {
                    "name": "C#5",
                    "midi": 73,
                    "time": 434.9330615000085,
                    "velocity": 0.36220472440944884,
                    "duration": 0.13333325000002105
                },
                {
                    "name": "A5",
                    "midi": 81,
                    "time": 434.9330615000085,
                    "velocity": 0.4330708661417323,
                    "duration": 0.13333325000002105
                },
                {
                    "name": "E5",
                    "midi": 76,
                    "time": 434.9330615000085,
                    "velocity": 0.36220472440944884,
                    "duration": 0.13333325000002105
                },
                {
                    "name": "D5",
                    "midi": 74,
                    "time": 435.1997280000085,
                    "velocity": 0.3543307086614173,
                    "duration": 0.13333325000002105
                },
                {
                    "name": "A5",
                    "midi": 81,
                    "time": 435.1997280000085,
                    "velocity": 0.49606299212598426,
                    "duration": 0.13333325000002105
                },
                {
                    "name": "A4",
                    "midi": 69,
                    "time": 435.1997280000085,
                    "velocity": 0.3543307086614173,
                    "duration": 0.13333325000002105
                },
                {
                    "name": "D5",
                    "midi": 74,
                    "time": 435.46639450000856,
                    "velocity": 0.4015748031496063,
                    "duration": 0.13333325000002105
                },
                {
                    "name": "A5",
                    "midi": 81,
                    "time": 435.46639450000856,
                    "velocity": 0.48031496062992124,
                    "duration": 0.13333325000002105
                },
                {
                    "name": "A4",
                    "midi": 69,
                    "time": 435.46639450000856,
                    "velocity": 0.4015748031496063,
                    "duration": 0.13333325000002105
                },
                {
                    "name": "B4",
                    "midi": 71,
                    "time": 435.7330610000086,
                    "velocity": 0.4094488188976378,
                    "duration": 0.13333325000002105
                },
                {
                    "name": "D5",
                    "midi": 74,
                    "time": 435.7330610000086,
                    "velocity": 0.4094488188976378,
                    "duration": 0.13333325000002105
                },
                {
                    "name": "B5",
                    "midi": 83,
                    "time": 435.7330610000086,
                    "velocity": 0.4881889763779528,
                    "duration": 0.13333325000002105
                },
                {
                    "name": "D5",
                    "midi": 74,
                    "time": 435.99972750000865,
                    "velocity": 0.36220472440944884,
                    "duration": 0.13333325000002105
                },
                {
                    "name": "B5",
                    "midi": 83,
                    "time": 435.99972750000865,
                    "velocity": 0.4330708661417323,
                    "duration": 0.13333325000002105
                },
                {
                    "name": "B4",
                    "midi": 71,
                    "time": 435.99972750000865,
                    "velocity": 0.36220472440944884,
                    "duration": 0.13333325000002105
                },
                {
                    "name": "E5",
                    "midi": 76,
                    "time": 436.2663940000087,
                    "velocity": 0.5275590551181102,
                    "duration": 0.13333325000002105
                },
                {
                    "name": "C#5",
                    "midi": 73,
                    "time": 436.2663940000087,
                    "velocity": 0.4409448818897638,
                    "duration": 0.13333325000002105
                },
                {
                    "name": "E5",
                    "midi": 76,
                    "time": 436.53306050000873,
                    "velocity": 0.48031496062992124,
                    "duration": 0.13333325000002105
                },
                {
                    "name": "C#5",
                    "midi": 73,
                    "time": 436.53306050000873,
                    "velocity": 0.4015748031496063,
                    "duration": 0.13333325000002105
                },
                {
                    "name": "E5",
                    "midi": 76,
                    "time": 436.7997270000088,
                    "velocity": 0.4015748031496063,
                    "duration": 0.13333325000002105
                },
                {
                    "name": "G#4",
                    "midi": 68,
                    "time": 436.7997270000088,
                    "velocity": 0.4015748031496063,
                    "duration": 0.13333325000002105
                },
                {
                    "name": "G#5",
                    "midi": 80,
                    "time": 436.7997270000088,
                    "velocity": 0.47244094488188976,
                    "duration": 0.13333325000002105
                },
                {
                    "name": "D5",
                    "midi": 74,
                    "time": 436.7997270000088,
                    "velocity": 0.4015748031496063,
                    "duration": 0.13333325000002105
                },
                {
                    "name": "G#4",
                    "midi": 68,
                    "time": 437.0663935000088,
                    "velocity": 0.3464566929133858,
                    "duration": 0.13333325000002105
                },
                {
                    "name": "G#5",
                    "midi": 80,
                    "time": 437.0663935000088,
                    "velocity": 0.4094488188976378,
                    "duration": 0.13333325000002105
                },
                {
                    "name": "D5",
                    "midi": 74,
                    "time": 437.0663935000088,
                    "velocity": 0.3464566929133858,
                    "duration": 0.13333325000002105
                },
                {
                    "name": "E5",
                    "midi": 76,
                    "time": 437.0663935000088,
                    "velocity": 0.3464566929133858,
                    "duration": 0.13333325000002105
                },
                {
                    "name": "C#5",
                    "midi": 73,
                    "time": 437.33306000000886,
                    "velocity": 0.3937007874015748,
                    "duration": 1.066665999999998
                },
                {
                    "name": "A5",
                    "midi": 81,
                    "time": 437.33306000000886,
                    "velocity": 0.4645669291338583,
                    "duration": 1.066665999999998
                },
                {
                    "name": "A4",
                    "midi": 69,
                    "time": 437.33306000000886,
                    "velocity": 0.3937007874015748,
                    "duration": 0.5311107791666814
                },
                {
                    "name": "E5",
                    "midi": 76,
                    "time": 437.33306000000886,
                    "velocity": 0.3937007874015748,
                    "duration": 1.066665999999998
                },
                {
                    "name": "B5",
                    "midi": 83,
                    "time": 440.53305800000885,
                    "velocity": 0.5118110236220472,
                    "duration": 0.13333325000002105
                },
                {
                    "name": "A5",
                    "midi": 81,
                    "time": 440.66639125000887,
                    "velocity": 0.41732283464566927,
                    "duration": 0.13333325000002105
                },
                {
                    "name": "D6",
                    "midi": 86,
                    "time": 440.7997245000089,
                    "velocity": 0.44881889763779526,
                    "duration": 0.13333325000002105
                },
                {
                    "name": "A5",
                    "midi": 81,
                    "time": 440.9330577500089,
                    "velocity": 0.4409448818897638,
                    "duration": 0.13333325000002105
                },
                {
                    "name": "G#5",
                    "midi": 80,
                    "time": 441.06639100000893,
                    "velocity": 0.4881889763779528,
                    "duration": 0.13333325000002105
                },
                {
                    "name": "B5",
                    "midi": 83,
                    "time": 441.19972425000896,
                    "velocity": 0.4330708661417323,
                    "duration": 0.13333325000002105
                },
                {
                    "name": "A5",
                    "midi": 81,
                    "time": 441.333057500009,
                    "velocity": 0.41732283464566927,
                    "duration": 0.13333325000002105
                },
                {
                    "name": "F#5",
                    "midi": 78,
                    "time": 441.466390750009,
                    "velocity": 0.4094488188976378,
                    "duration": 0.13333325000002105
                },
                {
                    "name": "D5",
                    "midi": 74,
                    "time": 441.599724000009,
                    "velocity": 0.3858267716535433,
                    "duration": 0.26666649999998526
                },
                {
                    "name": "E5",
                    "midi": 76,
                    "time": 441.866390500009,
                    "velocity": 0.3858267716535433,
                    "duration": 0.13333325000002105
                },
                {
                    "name": "D5",
                    "midi": 74,
                    "time": 441.999723750009,
                    "velocity": 0.2755905511811024,
                    "duration": 0.13333325000002105
                },
                {
                    "name": "E5",
                    "midi": 76,
                    "time": 442.13305700000905,
                    "velocity": 0.3858267716535433,
                    "duration": 0.13333325000002105
                },
                {
                    "name": "D5",
                    "midi": 74,
                    "time": 442.26639025000907,
                    "velocity": 0.25984251968503935,
                    "duration": 0.13333325000002105
                },
                {
                    "name": "F#5",
                    "midi": 78,
                    "time": 442.3997235000091,
                    "velocity": 0.3779527559055118,
                    "duration": 0.13333325000002105
                },
                {
                    "name": "E5",
                    "midi": 76,
                    "time": 442.5330567500091,
                    "velocity": 0.3228346456692913,
                    "duration": 0.13333325000002105
                },
                {
                    "name": "D5",
                    "midi": 74,
                    "time": 442.66639000000913,
                    "velocity": 0.4015748031496063,
                    "duration": 0.13333325000002105
                },
                {
                    "name": "C#5",
                    "midi": 73,
                    "time": 442.79972325000915,
                    "velocity": 0.3464566929133858,
                    "duration": 0.13333325000002105
                },
                {
                    "name": "B4",
                    "midi": 71,
                    "time": 442.9330565000092,
                    "velocity": 0.36220472440944884,
                    "duration": 0.13333325000002105
                },
                {
                    "name": "A4",
                    "midi": 69,
                    "time": 443.0663897500092,
                    "velocity": 0.3543307086614173,
                    "duration": 0.13333325000002105
                },
                {
                    "name": "B4",
                    "midi": 71,
                    "time": 443.1997230000092,
                    "velocity": 0.3858267716535433,
                    "duration": 0.13333325000002105
                },
                {
                    "name": "C#5",
                    "midi": 73,
                    "time": 443.33305625000924,
                    "velocity": 0.3543307086614173,
                    "duration": 0.13333325000002105
                },
                {
                    "name": "D5",
                    "midi": 74,
                    "time": 443.46638950000926,
                    "velocity": 0.3700787401574803,
                    "duration": 0.13333325000002105
                },
                {
                    "name": "E5",
                    "midi": 76,
                    "time": 443.5997227500093,
                    "velocity": 0.3858267716535433,
                    "duration": 0.13333325000002105
                },
                {
                    "name": "A4",
                    "midi": 69,
                    "time": 443.7330560000093,
                    "velocity": 0.4251968503937008,
                    "duration": 0.26666649999998526
                },
                {
                    "name": "B4",
                    "midi": 71,
                    "time": 443.9997225000093,
                    "velocity": 0.4251968503937008,
                    "duration": 0.13333325000002105
                },
                {
                    "name": "A4",
                    "midi": 69,
                    "time": 444.1330557500093,
                    "velocity": 0.30708661417322836,
                    "duration": 0.13333325000002105
                },
                {
                    "name": "B4",
                    "midi": 71,
                    "time": 444.2663890000093,
                    "velocity": 0.4251968503937008,
                    "duration": 0.13333325000002105
                },
                {
                    "name": "A4",
                    "midi": 69,
                    "time": 444.39972225000935,
                    "velocity": 0.3543307086614173,
                    "duration": 0.13333325000002105
                },
                {
                    "name": "F#5",
                    "midi": 78,
                    "time": 444.53305550000937,
                    "velocity": 0.47244094488188976,
                    "duration": 0.13333325000002105
                },
                {
                    "name": "D5",
                    "midi": 74,
                    "time": 444.6663887500094,
                    "velocity": 0.3779527559055118,
                    "duration": 0.13333325000002105
                },
                {
                    "name": "C#5",
                    "midi": 73,
                    "time": 444.7997220000094,
                    "velocity": 0.41732283464566927,
                    "duration": 0.13333325000002105
                },
                {
                    "name": "D5",
                    "midi": 74,
                    "time": 444.93305525000943,
                    "velocity": 0.3937007874015748,
                    "duration": 0.13333325000002105
                },
                {
                    "name": "E5",
                    "midi": 76,
                    "time": 445.06638850000945,
                    "velocity": 0.41732283464566927,
                    "duration": 0.13333325000002105
                },
                {
                    "name": "F#5",
                    "midi": 78,
                    "time": 445.1997217500095,
                    "velocity": 0.4015748031496063,
                    "duration": 0.13333325000002105
                },
                {
                    "name": "G5",
                    "midi": 79,
                    "time": 445.3330550000095,
                    "velocity": 0.4645669291338583,
                    "duration": 0.13333325000002105
                },
                {
                    "name": "A5",
                    "midi": 81,
                    "time": 445.4663882500095,
                    "velocity": 0.41732283464566927,
                    "duration": 0.13333325000002105
                },
                {
                    "name": "B5",
                    "midi": 83,
                    "time": 445.59972150000954,
                    "velocity": 0.5039370078740157,
                    "duration": 0.13333325000002105
                },
                {
                    "name": "A5",
                    "midi": 81,
                    "time": 445.73305475000956,
                    "velocity": 0.44881889763779526,
                    "duration": 0.1233332562500209
                },
                {
                    "name": "A5",
                    "midi": 81,
                    "time": 445.8663880000096,
                    "velocity": 0.49606299212598426,
                    "duration": 0.26666649999998526
                },
                {
                    "name": "B5",
                    "midi": 83,
                    "time": 446.13305450000956,
                    "velocity": 0.4409448818897638,
                    "duration": 0.13333325000002105
                },
                {
                    "name": "A5",
                    "midi": 81,
                    "time": 446.2663877500096,
                    "velocity": 0.3779527559055118,
                    "duration": 0.13333325000002105
                },
                {
                    "name": "B5",
                    "midi": 83,
                    "time": 446.3997210000096,
                    "velocity": 0.4330708661417323,
                    "duration": 0.13333325000002105
                },
                {
                    "name": "A5",
                    "midi": 81,
                    "time": 446.5330542500096,
                    "velocity": 0.36220472440944884,
                    "duration": 0.13333325000002105
                },
                {
                    "name": "D6",
                    "midi": 86,
                    "time": 446.66638750000965,
                    "velocity": 0.47244094488188976,
                    "duration": 0.13333325000002105
                },
                {
                    "name": "C#6",
                    "midi": 85,
                    "time": 446.79972075000967,
                    "velocity": 0.4094488188976378,
                    "duration": 0.13333325000002105
                },
                {
                    "name": "B5",
                    "midi": 83,
                    "time": 446.9330540000097,
                    "velocity": 0.3779527559055118,
                    "duration": 0.033333312500019474
                },
                {
                    "name": "C#6",
                    "midi": 85,
                    "time": 446.9663873125097,
                    "velocity": 0.3700787401574803,
                    "duration": 0.033333312500019474
                },
                {
                    "name": "B5",
                    "midi": 83,
                    "time": 446.99972062500973,
                    "velocity": 0.48031496062992124,
                    "duration": 0.0666666249999821
                },
                {
                    "name": "A#5",
                    "midi": 82,
                    "time": 447.0663872500097,
                    "velocity": 0.4409448818897638,
                    "duration": 0.13333325000002105
                },
                {
                    "name": "B5",
                    "midi": 83,
                    "time": 447.19972050000973,
                    "velocity": 0.48031496062992124,
                    "duration": 0.13333325000002105
                },
                {
                    "name": "C#6",
                    "midi": 85,
                    "time": 447.33305375000975,
                    "velocity": 0.4409448818897638,
                    "duration": 0.13333325000002105
                },
                {
                    "name": "B5",
                    "midi": 83,
                    "time": 447.4663870000098,
                    "velocity": 0.48031496062992124,
                    "duration": 0.13333325000002105
                },
                {
                    "name": "G6",
                    "midi": 91,
                    "time": 447.5997202500098,
                    "velocity": 0.5275590551181102,
                    "duration": 0.13333325000002105
                },
                {
                    "name": "D6",
                    "midi": 86,
                    "time": 447.7330535000098,
                    "velocity": 0.48031496062992124,
                    "duration": 0.13333325000002105
                },
                {
                    "name": "B5",
                    "midi": 83,
                    "time": 447.86638675000984,
                    "velocity": 0.44881889763779526,
                    "duration": 0.13333325000002105
                },
                {
                    "name": "A5",
                    "midi": 81,
                    "time": 447.99972000000986,
                    "velocity": 0.5511811023622047,
                    "duration": 0.26666649999998526
                },
                {
                    "name": "B5",
                    "midi": 83,
                    "time": 448.26638650000984,
                    "velocity": 0.5196850393700787,
                    "duration": 0.13333325000002105
                },
                {
                    "name": "A5",
                    "midi": 81,
                    "time": 448.39971975000987,
                    "velocity": 0.4251968503937008,
                    "duration": 0.13333325000002105
                },
                {
                    "name": "B5",
                    "midi": 83,
                    "time": 448.5330530000099,
                    "velocity": 0.5275590551181102,
                    "duration": 0.13333325000002105
                },
                {
                    "name": "A5",
                    "midi": 81,
                    "time": 448.6663862500099,
                    "velocity": 0.41732283464566927,
                    "duration": 0.13333325000002105
                },
                {
                    "name": "B5",
                    "midi": 83,
                    "time": 448.7997195000099,
                    "velocity": 0.5354330708661418,
                    "duration": 0.13333325000002105
                },
                {
                    "name": "A5",
                    "midi": 81,
                    "time": 448.93305275000995,
                    "velocity": 0.49606299212598426,
                    "duration": 0.13333325000002105
                },
                {
                    "name": "A#5",
                    "midi": 82,
                    "time": 449.06638600000997,
                    "velocity": 0.4566929133858268,
                    "duration": 0.13333325000002105
                },
                {
                    "name": "A5",
                    "midi": 81,
                    "time": 449.19971925001,
                    "velocity": 0.33070866141732286,
                    "duration": 0.13333325000002105
                },
                {
                    "name": "D6",
                    "midi": 86,
                    "time": 449.33305250001,
                    "velocity": 0.41732283464566927,
                    "duration": 0.13333325000002105
                },
                {
                    "name": "A5",
                    "midi": 81,
                    "time": 449.46638575001003,
                    "velocity": 0.33858267716535434,
                    "duration": 0.13333325000002105
                },
                {
                    "name": "G#5",
                    "midi": 80,
                    "time": 449.59971900001005,
                    "velocity": 0.4015748031496063,
                    "duration": 0.13333325000002105
                },
                {
                    "name": "A#5",
                    "midi": 82,
                    "time": 449.7330522500101,
                    "velocity": 0.33858267716535434,
                    "duration": 0.13333325000002105
                },
                {
                    "name": "A5",
                    "midi": 81,
                    "time": 449.8663855000101,
                    "velocity": 0.3937007874015748,
                    "duration": 0.13333325000002105
                },
                {
                    "name": "F5",
                    "midi": 77,
                    "time": 449.9997187500101,
                    "velocity": 0.33858267716535434,
                    "duration": 0.13333325000002105
                },
                {
                    "name": "D5",
                    "midi": 74,
                    "time": 450.13305200001014,
                    "velocity": 0.3228346456692913,
                    "duration": 0.26666649999998526
                },
                {
                    "name": "E5",
                    "midi": 76,
                    "time": 450.3997185000101,
                    "velocity": 0.3228346456692913,
                    "duration": 0.13333325000002105
                },
                {
                    "name": "D5",
                    "midi": 74,
                    "time": 450.53305175001015,
                    "velocity": 0.25984251968503935,
                    "duration": 0.13333325000002105
                },
                {
                    "name": "E5",
                    "midi": 76,
                    "time": 450.66638500001017,
                    "velocity": 0.33070866141732286,
                    "duration": 0.13333325000002105
                },
                {
                    "name": "D5",
                    "midi": 74,
                    "time": 450.7997182500102,
                    "velocity": 0.2440944881889764,
                    "duration": 0.13333325000002105
                },
                {
                    "name": "E5",
                    "midi": 76,
                    "time": 450.9330515000102,
                    "velocity": 0.3543307086614173,
                    "duration": 0.13333325000002105
                },
                {
                    "name": "D5",
                    "midi": 74,
                    "time": 451.06638475001023,
                    "velocity": 0.2677165354330709,
                    "duration": 0.13333325000002105
                },
                {
                    "name": "G5",
                    "midi": 79,
                    "time": 451.19971800001025,
                    "velocity": 0.33858267716535434,
                    "duration": 0.13333325000002105
                },
                {
                    "name": "F5",
                    "midi": 77,
                    "time": 451.33305125001027,
                    "velocity": 0.2992125984251969,
                    "duration": 0.13333325000002105
                },
                {
                    "name": "E5",
                    "midi": 76,
                    "time": 451.4663845000103,
                    "velocity": 0.3464566929133858,
                    "duration": 0.13333325000002105
                },
                {
                    "name": "F5",
                    "midi": 77,
                    "time": 451.5997177500103,
                    "velocity": 0.3228346456692913,
                    "duration": 0.13333325000002105
                },
                {
                    "name": "G5",
                    "midi": 79,
                    "time": 451.73305100001033,
                    "velocity": 0.4015748031496063,
                    "duration": 0.13333325000002105
                },
                {
                    "name": "A5",
                    "midi": 81,
                    "time": 451.86638425001036,
                    "velocity": 0.4251968503937008,
                    "duration": 0.13333325000002105
                },
                {
                    "name": "A#5",
                    "midi": 82,
                    "time": 451.9997175000104,
                    "velocity": 0.4566929133858268,
                    "duration": 0.13333325000002105
                },
                {
                    "name": "C6",
                    "midi": 84,
                    "time": 452.1330507500104,
                    "velocity": 0.48031496062992124,
                    "duration": 0.1222221458333479
                },
                {
                    "name": "D6",
                    "midi": 86,
                    "time": 452.2663840000104,
                    "velocity": 0.5196850393700787,
                    "duration": 0.26666649999998526
                },
                {
                    "name": "C#6",
                    "midi": 85,
                    "time": 452.5330505000104,
                    "velocity": 0.4881889763779528,
                    "duration": 0.13333325000002105
                },
                {
                    "name": "D6",
                    "midi": 86,
                    "time": 452.6663837500104,
                    "velocity": 0.3937007874015748,
                    "duration": 0.13333325000002105
                },
                {
                    "name": "C#6",
                    "midi": 85,
                    "time": 452.79971700001045,
                    "velocity": 0.4881889763779528,
                    "duration": 0.13333325000002105
                },
                {
                    "name": "D6",
                    "midi": 86,
                    "time": 452.93305025001047,
                    "velocity": 0.3779527559055118,
                    "duration": 0.13333325000002105
                },
                {
                    "name": "E6",
                    "midi": 88,
                    "time": 453.0663835000105,
                    "velocity": 0.4881889763779528,
                    "duration": 0.13333325000002105
                },
                {
                    "name": "D6",
                    "midi": 86,
                    "time": 453.1997167500105,
                    "velocity": 0.41732283464566927,
                    "duration": 0.13333325000002105
                },
                {
                    "name": "E6",
                    "midi": 88,
                    "time": 453.33305000001053,
                    "velocity": 0.4881889763779528,
                    "duration": 0.13333325000002105
                },
                {
                    "name": "D6",
                    "midi": 86,
                    "time": 453.46638325001055,
                    "velocity": 0.47244094488188976,
                    "duration": 0.13333325000002105
                },
                {
                    "name": "F6",
                    "midi": 89,
                    "time": 453.5997165000106,
                    "velocity": 0.5275590551181102,
                    "duration": 0.13333325000002105
                },
                {
                    "name": "E6",
                    "midi": 88,
                    "time": 453.7330497500106,
                    "velocity": 0.47244094488188976,
                    "duration": 0.13333325000002105
                },
                {
                    "name": "D6",
                    "midi": 86,
                    "time": 453.8663830000106,
                    "velocity": 0.5433070866141733,
                    "duration": 0.13333325000002105
                },
                {
                    "name": "E6",
                    "midi": 88,
                    "time": 453.99971625001064,
                    "velocity": 0.5196850393700787,
                    "duration": 0.13333325000002105
                },
                {
                    "name": "F6",
                    "midi": 89,
                    "time": 454.13304950001066,
                    "velocity": 0.5354330708661418,
                    "duration": 0.13333325000002105
                },
                {
                    "name": "G#6",
                    "midi": 92,
                    "time": 454.2663827500107,
                    "velocity": 0.5590551181102362,
                    "duration": 0.13333325000002105
                },
                {
                    "name": "A6",
                    "midi": 93,
                    "time": 454.3997160000107,
                    "velocity": 0.5826771653543307,
                    "duration": 0.3999997500000063
                },
                {
                    "name": "F#6",
                    "midi": 90,
                    "time": 454.7997157500107,
                    "velocity": 0.48031496062992124,
                    "duration": 0.13333325000002105
                },
                {
                    "name": "A6",
                    "midi": 93,
                    "time": 454.9330490000107,
                    "velocity": 0.5433070866141733,
                    "duration": 0.13333325000002105
                },
                {
                    "name": "F#6",
                    "midi": 90,
                    "time": 455.06638225001075,
                    "velocity": 0.4251968503937008,
                    "duration": 0.13333325000002105
                },
                {
                    "name": "A6",
                    "midi": 93,
                    "time": 455.19971550001077,
                    "velocity": 0.5039370078740157,
                    "duration": 0.13333325000002105
                },
                {
                    "name": "F#6",
                    "midi": 90,
                    "time": 455.3330487500108,
                    "velocity": 0.4409448818897638,
                    "duration": 0.13333325000002105
                },
                {
                    "name": "E6",
                    "midi": 88,
                    "time": 455.4663820000108,
                    "velocity": 0.4881889763779528,
                    "duration": 0.13333325000002105
                },
                {
                    "name": "F#6",
                    "midi": 90,
                    "time": 455.59971525001083,
                    "velocity": 0.44881889763779526,
                    "duration": 0.13333325000002105
                },
                {
                    "name": "G6",
                    "midi": 91,
                    "time": 455.73304850001085,
                    "velocity": 0.4881889763779528,
                    "duration": 0.13333325000002105
                },
                {
                    "name": "B6",
                    "midi": 95,
                    "time": 455.8663817500109,
                    "velocity": 0.5433070866141733,
                    "duration": 0.13333325000002105
                },
                {
                    "name": "A6",
                    "midi": 93,
                    "time": 455.9997150000109,
                    "velocity": 0.5118110236220472,
                    "duration": 0.13333325000002105
                },
                {
                    "name": "G6",
                    "midi": 91,
                    "time": 456.1330482500109,
                    "velocity": 0.4409448818897638,
                    "duration": 0.13333325000002105
                },
                {
                    "name": "F#6",
                    "midi": 90,
                    "time": 456.26638150001094,
                    "velocity": 0.5118110236220472,
                    "duration": 0.13333325000002105
                },
                {
                    "name": "E6",
                    "midi": 88,
                    "time": 456.39971475001096,
                    "velocity": 0.44881889763779526,
                    "duration": 0.13333325000002105
                },
                {
                    "name": "A6",
                    "midi": 93,
                    "time": 456.533048000011,
                    "velocity": 0.5826771653543307,
                    "duration": 0.3999997500000063
                },
                {
                    "name": "F#6",
                    "midi": 90,
                    "time": 456.933047750011,
                    "velocity": 0.48031496062992124,
                    "duration": 0.13333325000002105
                },
                {
                    "name": "A6",
                    "midi": 93,
                    "time": 457.066381000011,
                    "velocity": 0.5433070866141733,
                    "duration": 0.13333325000002105
                },
                {
                    "name": "F#6",
                    "midi": 90,
                    "time": 457.199714250011,
                    "velocity": 0.4251968503937008,
                    "duration": 0.13333325000002105
                },
                {
                    "name": "D6",
                    "midi": 86,
                    "time": 457.33304750001105,
                    "velocity": 0.5039370078740157,
                    "duration": 0.13333325000002105
                },
                {
                    "name": "C#6",
                    "midi": 85,
                    "time": 457.46638075001107,
                    "velocity": 0.4409448818897638,
                    "duration": 0.13333325000002105
                },
                {
                    "name": "B5",
                    "midi": 83,
                    "time": 457.5997140000111,
                    "velocity": 0.4881889763779528,
                    "duration": 0.13333325000002105
                },
                {
                    "name": "D6",
                    "midi": 86,
                    "time": 457.7330472500111,
                    "velocity": 0.4409448818897638,
                    "duration": 0.13333325000002105
                },
                {
                    "name": "G6",
                    "midi": 91,
                    "time": 457.86638050001113,
                    "velocity": 0.47244094488188976,
                    "duration": 0.13333325000002105
                },
                {
                    "name": "F#6",
                    "midi": 90,
                    "time": 457.99971375001115,
                    "velocity": 0.5118110236220472,
                    "duration": 0.13333325000002105
                },
                {
                    "name": "E6",
                    "midi": 88,
                    "time": 458.1330470000112,
                    "velocity": 0.47244094488188976,
                    "duration": 0.13333325000002105
                },
                {
                    "name": "D6",
                    "midi": 86,
                    "time": 458.2663802500112,
                    "velocity": 0.3937007874015748,
                    "duration": 0.13333325000002105
                },
                {
                    "name": "C#6",
                    "midi": 85,
                    "time": 458.3997135000112,
                    "velocity": 0.44881889763779526,
                    "duration": 0.13333325000002105
                },
                {
                    "name": "B5",
                    "midi": 83,
                    "time": 458.53304675001124,
                    "velocity": 0.3858267716535433,
                    "duration": 0.13333325000002105
                },
                {
                    "name": "A5",
                    "midi": 81,
                    "time": 458.66638000001126,
                    "velocity": 0.4330708661417323,
                    "duration": 0.3999997500000063
                },
                {
                    "name": "F#5",
                    "midi": 78,
                    "time": 459.06637975001127,
                    "velocity": 0.3543307086614173,
                    "duration": 0.13333325000002105
                },
                {
                    "name": "A5",
                    "midi": 81,
                    "time": 459.1997130000113,
                    "velocity": 0.4015748031496063,
                    "duration": 0.13333325000002105
                },
                {
                    "name": "F#5",
                    "midi": 78,
                    "time": 459.3330462500113,
                    "velocity": 0.31496062992125984,
                    "duration": 0.13333325000002105
                },
                {
                    "name": "A5",
                    "midi": 81,
                    "time": 459.4663795000113,
                    "velocity": 0.3779527559055118,
                    "duration": 0.13333325000002105
                },
                {
                    "name": "F#5",
                    "midi": 78,
                    "time": 459.59971275001135,
                    "velocity": 0.33070866141732286,
                    "duration": 0.13333325000002105
                },
                {
                    "name": "E5",
                    "midi": 76,
                    "time": 459.73304600001137,
                    "velocity": 0.36220472440944884,
                    "duration": 0.13333325000002105
                },
                {
                    "name": "F#5",
                    "midi": 78,
                    "time": 459.8663792500114,
                    "velocity": 0.33070866141732286,
                    "duration": 0.13333325000002105
                },
                {
                    "name": "G5",
                    "midi": 79,
                    "time": 459.9997125000114,
                    "velocity": 0.36220472440944884,
                    "duration": 0.13333325000002105
                },
                {
                    "name": "B5",
                    "midi": 83,
                    "time": 460.13304575001143,
                    "velocity": 0.4015748031496063,
                    "duration": 0.13333325000002105
                },
                {
                    "name": "A5",
                    "midi": 81,
                    "time": 460.26637900001145,
                    "velocity": 0.3779527559055118,
                    "duration": 0.13333325000002105
                },
                {
                    "name": "G5",
                    "midi": 79,
                    "time": 460.3997122500115,
                    "velocity": 0.33070866141732286,
                    "duration": 0.13333325000002105
                },
                {
                    "name": "F#5",
                    "midi": 78,
                    "time": 460.5330455000115,
                    "velocity": 0.3779527559055118,
                    "duration": 0.13333325000002105
                },
                {
                    "name": "E5",
                    "midi": 76,
                    "time": 460.6663787500115,
                    "velocity": 0.33070866141732286,
                    "duration": 0.13333325000002105
                },
                {
                    "name": "A5",
                    "midi": 81,
                    "time": 460.79971200001154,
                    "velocity": 0.4330708661417323,
                    "duration": 0.3999997500000063
                },
                {
                    "name": "F#5",
                    "midi": 78,
                    "time": 461.19971175001155,
                    "velocity": 0.3543307086614173,
                    "duration": 0.13333325000002105
                },
                {
                    "name": "A5",
                    "midi": 81,
                    "time": 461.33304500001157,
                    "velocity": 0.4015748031496063,
                    "duration": 0.13333325000002105
                },
                {
                    "name": "F#5",
                    "midi": 78,
                    "time": 461.4663782500116,
                    "velocity": 0.31496062992125984,
                    "duration": 0.13333325000002105
                },
                {
                    "name": "D5",
                    "midi": 74,
                    "time": 461.5997115000116,
                    "velocity": 0.3779527559055118,
                    "duration": 0.13333325000002105
                },
                {
                    "name": "C#5",
                    "midi": 73,
                    "time": 461.73304475001163,
                    "velocity": 0.33070866141732286,
                    "duration": 0.13333325000002105
                },
                {
                    "name": "B4",
                    "midi": 71,
                    "time": 461.86637800001165,
                    "velocity": 0.36220472440944884,
                    "duration": 0.13333325000002105
                },
                {
                    "name": "D5",
                    "midi": 74,
                    "time": 461.99971125001167,
                    "velocity": 0.33070866141732286,
                    "duration": 0.13333325000002105
                },
                {
                    "name": "G5",
                    "midi": 79,
                    "time": 462.1330445000117,
                    "velocity": 0.36220472440944884,
                    "duration": 0.13333325000002105
                },
                {
                    "name": "F#5",
                    "midi": 78,
                    "time": 462.2663777500117,
                    "velocity": 0.4015748031496063,
                    "duration": 0.13333325000002105
                },
                {
                    "name": "E5",
                    "midi": 76,
                    "time": 462.39971100001173,
                    "velocity": 0.3779527559055118,
                    "duration": 0.13333325000002105
                },
                {
                    "name": "D5",
                    "midi": 74,
                    "time": 462.53304425001176,
                    "velocity": 0.33070866141732286,
                    "duration": 0.13333325000002105
                },
                {
                    "name": "C#5",
                    "midi": 73,
                    "time": 462.6663775000118,
                    "velocity": 0.3779527559055118,
                    "duration": 0.13333325000002105
                },
                {
                    "name": "B4",
                    "midi": 71,
                    "time": 462.7997107500118,
                    "velocity": 0.33070866141732286,
                    "duration": 0.13333325000002105
                },
                {
                    "name": "A4",
                    "midi": 69,
                    "time": 462.9330440000118,
                    "velocity": 0.4330708661417323,
                    "duration": 0.3999997500000063
                },
                {
                    "name": "F#6",
                    "midi": 90,
                    "time": 463.3330437500118,
                    "velocity": 0.3858267716535433,
                    "duration": 0.13333325000002105
                },
                {
                    "name": "A6",
                    "midi": 93,
                    "time": 463.46637700001185,
                    "velocity": 0.4409448818897638,
                    "duration": 0.13333325000002105
                },
                {
                    "name": "F#6",
                    "midi": 90,
                    "time": 463.59971025001187,
                    "velocity": 0.3464566929133858,
                    "duration": 0.13333325000002105
                },
                {
                    "name": "A6",
                    "midi": 93,
                    "time": 463.7330435000119,
                    "velocity": 0.4094488188976378,
                    "duration": 0.13333325000002105
                },
                {
                    "name": "F#6",
                    "midi": 90,
                    "time": 463.8663767500119,
                    "velocity": 0.36220472440944884,
                    "duration": 0.13333325000002105
                },
                {
                    "name": "E6",
                    "midi": 88,
                    "time": 463.99971000001193,
                    "velocity": 0.3937007874015748,
                    "duration": 0.13333325000002105
                },
                {
                    "name": "F#6",
                    "midi": 90,
                    "time": 464.13304325001195,
                    "velocity": 0.36220472440944884,
                    "duration": 0.13333325000002105
                },
                {
                    "name": "G6",
                    "midi": 91,
                    "time": 464.266376500012,
                    "velocity": 0.3937007874015748,
                    "duration": 0.13333325000002105
                },
                {
                    "name": "B6",
                    "midi": 95,
                    "time": 464.399709750012,
                    "velocity": 0.4409448818897638,
                    "duration": 0.13333325000002105
                },
                {
                    "name": "A6",
                    "midi": 93,
                    "time": 464.533043000012,
                    "velocity": 0.4094488188976378,
                    "duration": 0.13333325000002105
                },
                {
                    "name": "G6",
                    "midi": 91,
                    "time": 464.66637625001204,
                    "velocity": 0.36220472440944884,
                    "duration": 0.13333325000002105
                },
                {
                    "name": "F#6",
                    "midi": 90,
                    "time": 464.79970950001206,
                    "velocity": 0.4094488188976378,
                    "duration": 0.13333325000002105
                },
                {
                    "name": "E6",
                    "midi": 88,
                    "time": 464.9330427500121,
                    "velocity": 0.36220472440944884,
                    "duration": 0.13333325000002105
                },
                {
                    "name": "A6",
                    "midi": 93,
                    "time": 465.0663760000121,
                    "velocity": 0.47244094488188976,
                    "duration": 0.3999997500000063
                },
                {
                    "name": "F#6",
                    "midi": 90,
                    "time": 465.4663757500121,
                    "velocity": 0.3858267716535433,
                    "duration": 0.13333325000002105
                },
                {
                    "name": "A6",
                    "midi": 93,
                    "time": 465.5997090000121,
                    "velocity": 0.4409448818897638,
                    "duration": 0.13333325000002105
                },
                {
                    "name": "F#6",
                    "midi": 90,
                    "time": 465.73304225001215,
                    "velocity": 0.3464566929133858,
                    "duration": 0.13333325000002105
                },
                {
                    "name": "D6",
                    "midi": 86,
                    "time": 465.86637550001217,
                    "velocity": 0.4094488188976378,
                    "duration": 0.13333325000002105
                },
                {
                    "name": "C#6",
                    "midi": 85,
                    "time": 465.9997087500122,
                    "velocity": 0.36220472440944884,
                    "duration": 0.13333325000002105
                },
                {
                    "name": "B5",
                    "midi": 83,
                    "time": 466.1330420000122,
                    "velocity": 0.3937007874015748,
                    "duration": 0.13333325000002105
                },
                {
                    "name": "D6",
                    "midi": 86,
                    "time": 466.26637525001223,
                    "velocity": 0.36220472440944884,
                    "duration": 0.13333325000002105
                },
                {
                    "name": "G6",
                    "midi": 91,
                    "time": 466.39970850001225,
                    "velocity": 0.3937007874015748,
                    "duration": 0.13333325000002105
                },
                {
                    "name": "F#6",
                    "midi": 90,
                    "time": 466.5330417500123,
                    "velocity": 0.4330708661417323,
                    "duration": 0.13333325000002105
                },
                {
                    "name": "E6",
                    "midi": 88,
                    "time": 466.6663750000123,
                    "velocity": 0.4015748031496063,
                    "duration": 0.13333325000002105
                },
                {
                    "name": "D6",
                    "midi": 86,
                    "time": 466.7997082500123,
                    "velocity": 0.3543307086614173,
                    "duration": 0.13333325000002105
                },
                {
                    "name": "C#6",
                    "midi": 85,
                    "time": 466.93304150001234,
                    "velocity": 0.3937007874015748,
                    "duration": 0.13333325000002105
                },
                {
                    "name": "B5",
                    "midi": 83,
                    "time": 467.06637475001236,
                    "velocity": 0.3543307086614173,
                    "duration": 0.13333325000002105
                },
                {
                    "name": "A5",
                    "midi": 81,
                    "time": 467.1997080000124,
                    "velocity": 0.41732283464566927,
                    "duration": 0.3999997500000063
                },
                {
                    "name": "F#5",
                    "midi": 78,
                    "time": 467.5997077500124,
                    "velocity": 0.33858267716535434,
                    "duration": 0.13333325000002105
                },
                {
                    "name": "A5",
                    "midi": 81,
                    "time": 467.7330410000124,
                    "velocity": 0.3779527559055118,
                    "duration": 0.13333325000002105
                },
                {
                    "name": "F#5",
                    "midi": 78,
                    "time": 467.8663742500124,
                    "velocity": 0.2992125984251969,
                    "duration": 0.13333325000002105
                },
                {
                    "name": "A5",
                    "midi": 81,
                    "time": 467.99970750001245,
                    "velocity": 0.3543307086614173,
                    "duration": 0.13333325000002105
                },
                {
                    "name": "F#5",
                    "midi": 78,
                    "time": 468.13304075001247,
                    "velocity": 0.30708661417322836,
                    "duration": 0.13333325000002105
                },
                {
                    "name": "E5",
                    "midi": 76,
                    "time": 468.2663740000125,
                    "velocity": 0.33858267716535434,
                    "duration": 0.13333325000002105
                },
                {
                    "name": "F#5",
                    "midi": 78,
                    "time": 468.3997072500125,
                    "velocity": 0.30708661417322836,
                    "duration": 0.13333325000002105
                },
                {
                    "name": "G5",
                    "midi": 79,
                    "time": 468.53304050001253,
                    "velocity": 0.33858267716535434,
                    "duration": 0.13333325000002105
                },
                {
                    "name": "B5",
                    "midi": 83,
                    "time": 468.66637375001255,
                    "velocity": 0.3700787401574803,
                    "duration": 0.13333325000002105
                },
                {
                    "name": "A5",
                    "midi": 81,
                    "time": 468.7997070000126,
                    "velocity": 0.3464566929133858,
                    "duration": 0.13333325000002105
                },
                {
                    "name": "G5",
                    "midi": 79,
                    "time": 468.9330402500126,
                    "velocity": 0.30708661417322836,
                    "duration": 0.13333325000002105
                },
                {
                    "name": "F#5",
                    "midi": 78,
                    "time": 469.0663735000126,
                    "velocity": 0.3464566929133858,
                    "duration": 0.13333325000002105
                },
                {
                    "name": "E5",
                    "midi": 76,
                    "time": 469.19970675001264,
                    "velocity": 0.2992125984251969,
                    "duration": 0.13333325000002105
                },
                {
                    "name": "A5",
                    "midi": 81,
                    "time": 469.33304000001266,
                    "velocity": 0.3937007874015748,
                    "duration": 0.3999997500000063
                },
                {
                    "name": "F#5",
                    "midi": 78,
                    "time": 469.73303975001267,
                    "velocity": 0.31496062992125984,
                    "duration": 0.13333325000002105
                },
                {
                    "name": "A5",
                    "midi": 81,
                    "time": 469.8663730000127,
                    "velocity": 0.3543307086614173,
                    "duration": 0.13333325000002105
                },
                {
                    "name": "F#5",
                    "midi": 78,
                    "time": 469.9997062500127,
                    "velocity": 0.28346456692913385,
                    "duration": 0.13333325000002105
                },
                {
                    "name": "A5",
                    "midi": 81,
                    "time": 470.1330395000127,
                    "velocity": 0.33070866141732286,
                    "duration": 0.13333325000002105
                },
                {
                    "name": "F#5",
                    "midi": 78,
                    "time": 470.26637275001275,
                    "velocity": 0.29133858267716534,
                    "duration": 0.13333325000002105
                },
                {
                    "name": "E5",
                    "midi": 76,
                    "time": 470.39970600001277,
                    "velocity": 0.31496062992125984,
                    "duration": 0.13333325000002105
                },
                {
                    "name": "F#5",
                    "midi": 78,
                    "time": 470.5330392500128,
                    "velocity": 0.28346456692913385,
                    "duration": 0.13333325000002105
                },
                {
                    "name": "G5",
                    "midi": 79,
                    "time": 470.6663725000128,
                    "velocity": 0.31496062992125984,
                    "duration": 0.13333325000002105
                },
                {
                    "name": "B5",
                    "midi": 83,
                    "time": 470.79970575001283,
                    "velocity": 0.3464566929133858,
                    "duration": 0.13333325000002105
                },
                {
                    "name": "A5",
                    "midi": 81,
                    "time": 470.93303900001285,
                    "velocity": 0.3228346456692913,
                    "duration": 0.13333325000002105
                },
                {
                    "name": "G5",
                    "midi": 79,
                    "time": 471.0663722500129,
                    "velocity": 0.28346456692913385,
                    "duration": 0.13333325000002105
                },
                {
                    "name": "F#5",
                    "midi": 78,
                    "time": 471.1997055000129,
                    "velocity": 0.3228346456692913,
                    "duration": 0.13333325000002105
                },
                {
                    "name": "E5",
                    "midi": 76,
                    "time": 471.3330387500129,
                    "velocity": 0.28346456692913385,
                    "duration": 0.13333325000002105
                },
                {
                    "name": "D5",
                    "midi": 74,
                    "time": 471.46637200001294,
                    "velocity": 0.3464566929133858,
                    "duration": 0.26666649999998526
                },
                {
                    "name": "E5",
                    "midi": 76,
                    "time": 471.7330385000129,
                    "velocity": 0.3464566929133858,
                    "duration": 0.13333325000002105
                },
                {
                    "name": "D5",
                    "midi": 74,
                    "time": 471.86637175001295,
                    "velocity": 0.28346456692913385,
                    "duration": 0.13333325000002105
                },
                {
                    "name": "E5",
                    "midi": 76,
                    "time": 471.99970500001297,
                    "velocity": 0.3228346456692913,
                    "duration": 0.13333325000002105
                },
                {
                    "name": "D5",
                    "midi": 74,
                    "time": 472.133038250013,
                    "velocity": 0.28346456692913385,
                    "duration": 0.13333325000002105
                },
                {
                    "name": "C#5",
                    "midi": 73,
                    "time": 472.266371500013,
                    "velocity": 0.33858267716535434,
                    "duration": 0.13333325000002105
                },
                {
                    "name": "B4",
                    "midi": 71,
                    "time": 472.39970475001303,
                    "velocity": 0.30708661417322836,
                    "duration": 0.13333325000002105
                },
                {
                    "name": "A4",
                    "midi": 69,
                    "time": 472.53303800001305,
                    "velocity": 0.3464566929133858,
                    "duration": 0.26666649999998526
                },
                {
                    "name": "B4",
                    "midi": 71,
                    "time": 472.79970450001304,
                    "velocity": 0.3464566929133858,
                    "duration": 0.13333325000002105
                },
                {
                    "name": "A4",
                    "midi": 69,
                    "time": 472.93303775001306,
                    "velocity": 0.28346456692913385,
                    "duration": 0.13333325000002105
                },
                {
                    "name": "B4",
                    "midi": 71,
                    "time": 473.0663710000131,
                    "velocity": 0.3464566929133858,
                    "duration": 0.13333325000002105
                },
                {
                    "name": "A4",
                    "midi": 69,
                    "time": 473.1997042500131,
                    "velocity": 0.31496062992125984,
                    "duration": 0.13333325000002105
                },
                {
                    "name": "F#5",
                    "midi": 78,
                    "time": 473.3330375000131,
                    "velocity": 0.3700787401574803,
                    "duration": 0.13333325000002105
                },
                {
                    "name": "E5",
                    "midi": 76,
                    "time": 473.46637075001314,
                    "velocity": 0.30708661417322836,
                    "duration": 0.13333325000002105
                },
                {
                    "name": "D5",
                    "midi": 74,
                    "time": 473.59970400001316,
                    "velocity": 0.3464566929133858,
                    "duration": 0.26666649999998526
                },
                {
                    "name": "E5",
                    "midi": 76,
                    "time": 473.86637050001315,
                    "velocity": 0.33858267716535434,
                    "duration": 0.13333325000002105
                },
                {
                    "name": "D5",
                    "midi": 74,
                    "time": 473.99970375001317,
                    "velocity": 0.28346456692913385,
                    "duration": 0.13333325000002105
                },
                {
                    "name": "E5",
                    "midi": 76,
                    "time": 474.1330370000132,
                    "velocity": 0.31496062992125984,
                    "duration": 0.13333325000002105
                },
                {
                    "name": "D5",
                    "midi": 74,
                    "time": 474.2663702500132,
                    "velocity": 0.28346456692913385,
                    "duration": 0.13333325000002105
                },
                {
                    "name": "C#5",
                    "midi": 73,
                    "time": 474.39970350001323,
                    "velocity": 0.33858267716535434,
                    "duration": 0.13333325000002105
                },
                {
                    "name": "B4",
                    "midi": 71,
                    "time": 474.53303675001325,
                    "velocity": 0.30708661417322836,
                    "duration": 0.13333325000002105
                },
                {
                    "name": "A4",
                    "midi": 69,
                    "time": 474.6663700000133,
                    "velocity": 0.3464566929133858,
                    "duration": 0.26666649999998526
                },
                {
                    "name": "B4",
                    "midi": 71,
                    "time": 474.93303650001326,
                    "velocity": 0.3464566929133858,
                    "duration": 0.13333325000002105
                },
                {
                    "name": "A4",
                    "midi": 69,
                    "time": 475.0663697500133,
                    "velocity": 0.28346456692913385,
                    "duration": 0.13333325000002105
                },
                {
                    "name": "B4",
                    "midi": 71,
                    "time": 475.1997030000133,
                    "velocity": 0.3464566929133858,
                    "duration": 0.13333325000002105
                },
                {
                    "name": "A4",
                    "midi": 69,
                    "time": 475.3330362500133,
                    "velocity": 0.31496062992125984,
                    "duration": 0.13333325000002105
                },
                {
                    "name": "F#5",
                    "midi": 78,
                    "time": 475.46636950001334,
                    "velocity": 0.33070866141732286,
                    "duration": 0.13333325000002105
                },
                {
                    "name": "E5",
                    "midi": 76,
                    "time": 475.59970275001336,
                    "velocity": 0.31496062992125984,
                    "duration": 0.13333325000002105
                },
                {
                    "name": "D5",
                    "midi": 74,
                    "time": 475.7330360000134,
                    "velocity": 0.3464566929133858,
                    "duration": 0.13333325000002105
                },
                {
                    "name": "D6",
                    "midi": 86,
                    "time": 475.8663692500134,
                    "velocity": 0.28346456692913385,
                    "duration": 0.13333325000002105
                },
                {
                    "name": "E6",
                    "midi": 88,
                    "time": 475.9997025000134,
                    "velocity": 0.3464566929133858,
                    "duration": 0.13333325000002105
                },
                {
                    "name": "D6",
                    "midi": 86,
                    "time": 476.13303575001345,
                    "velocity": 0.28346456692913385,
                    "duration": 0.13333325000002105
                },
                {
                    "name": "E6",
                    "midi": 88,
                    "time": 476.26636900001347,
                    "velocity": 0.3464566929133858,
                    "duration": 0.13333325000002105
                },
                {
                    "name": "D6",
                    "midi": 86,
                    "time": 476.3997022500135,
                    "velocity": 0.28346456692913385,
                    "duration": 0.13333325000002105
                },
                {
                    "name": "C#6",
                    "midi": 85,
                    "time": 476.5330355000135,
                    "velocity": 0.33858267716535434,
                    "duration": 0.13333325000002105
                },
                {
                    "name": "B5",
                    "midi": 83,
                    "time": 476.66636875001353,
                    "velocity": 0.30708661417322836,
                    "duration": 0.13333325000002105
                },
                {
                    "name": "A5",
                    "midi": 81,
                    "time": 476.79970200001355,
                    "velocity": 0.3464566929133858,
                    "duration": 0.26666649999998526
                },
                {
                    "name": "B5",
                    "midi": 83,
                    "time": 477.06636850001354,
                    "velocity": 0.3464566929133858,
                    "duration": 0.13333325000002105
                },
                {
                    "name": "A5",
                    "midi": 81,
                    "time": 477.19970175001356,
                    "velocity": 0.28346456692913385,
                    "duration": 0.13333325000002105
                },
                {
                    "name": "B5",
                    "midi": 83,
                    "time": 477.3330350000136,
                    "velocity": 0.3464566929133858,
                    "duration": 0.13333325000002105
                },
                {
                    "name": "A5",
                    "midi": 81,
                    "time": 477.4663682500136,
                    "velocity": 0.31496062992125984,
                    "duration": 0.13333325000002105
                },
                {
                    "name": "F#6",
                    "midi": 90,
                    "time": 477.5997015000136,
                    "velocity": 0.33070866141732286,
                    "duration": 0.13333325000002105
                },
                {
                    "name": "E6",
                    "midi": 88,
                    "time": 477.73303475001364,
                    "velocity": 0.31496062992125984,
                    "duration": 0.13333325000002105
                },
                {
                    "name": "D6",
                    "midi": 86,
                    "time": 477.86636800001367,
                    "velocity": 0.3464566929133858,
                    "duration": 0.26666649999998526
                },
                {
                    "name": "E6",
                    "midi": 88,
                    "time": 478.13303450001365,
                    "velocity": 0.3464566929133858,
                    "duration": 0.13333325000002105
                },
                {
                    "name": "D6",
                    "midi": 86,
                    "time": 478.26636775001367,
                    "velocity": 0.28346456692913385,
                    "duration": 0.13333325000002105
                },
                {
                    "name": "E6",
                    "midi": 88,
                    "time": 478.3997010000137,
                    "velocity": 0.3464566929133858,
                    "duration": 0.13333325000002105
                },
                {
                    "name": "D6",
                    "midi": 86,
                    "time": 478.5330342500137,
                    "velocity": 0.28346456692913385,
                    "duration": 0.13333325000002105
                },
                {
                    "name": "C#6",
                    "midi": 85,
                    "time": 478.66636750001373,
                    "velocity": 0.33858267716535434,
                    "duration": 0.13333325000002105
                },
                {
                    "name": "B5",
                    "midi": 83,
                    "time": 478.79970075001376,
                    "velocity": 0.30708661417322836,
                    "duration": 0.13333325000002105
                },
                {
                    "name": "A5",
                    "midi": 81,
                    "time": 478.9330340000138,
                    "velocity": 0.3464566929133858,
                    "duration": 0.26666649999998526
                },
                {
                    "name": "B5",
                    "midi": 83,
                    "time": 479.19970050001376,
                    "velocity": 0.3464566929133858,
                    "duration": 0.13333325000002105
                },
                {
                    "name": "A5",
                    "midi": 81,
                    "time": 479.3330337500138,
                    "velocity": 0.28346456692913385,
                    "duration": 0.13333325000002105
                },
                {
                    "name": "B5",
                    "midi": 83,
                    "time": 479.4663670000138,
                    "velocity": 0.3464566929133858,
                    "duration": 0.13333325000002105
                },
                {
                    "name": "A5",
                    "midi": 81,
                    "time": 479.5997002500138,
                    "velocity": 0.31496062992125984,
                    "duration": 0.13333325000002105
                },
                {
                    "name": "F#6",
                    "midi": 90,
                    "time": 479.73303350001385,
                    "velocity": 0.33070866141732286,
                    "duration": 0.13333325000002105
                },
                {
                    "name": "E6",
                    "midi": 88,
                    "time": 479.86636675001387,
                    "velocity": 0.31496062992125984,
                    "duration": 0.13333325000002105
                },
                {
                    "name": "D6",
                    "midi": 86,
                    "time": 479.9997000000139,
                    "velocity": 0.3464566929133858,
                    "duration": 0.26666649999998526
                },
                {
                    "name": "F#6",
                    "midi": 90,
                    "time": 480.2663665000139,
                    "velocity": 0.3464566929133858,
                    "duration": 0.13333325000002105
                },
                {
                    "name": "D6",
                    "midi": 86,
                    "time": 480.3996997500139,
                    "velocity": 0.28346456692913385,
                    "duration": 0.13333325000002105
                },
                {
                    "name": "F#6",
                    "midi": 90,
                    "time": 480.5330330000139,
                    "velocity": 0.3464566929133858,
                    "duration": 0.13333325000002105
                },
                {
                    "name": "D6",
                    "midi": 86,
                    "time": 480.66636625001394,
                    "velocity": 0.28346456692913385,
                    "duration": 0.13333325000002105
                },
                {
                    "name": "F#6",
                    "midi": 90,
                    "time": 480.79969950001396,
                    "velocity": 0.33858267716535434,
                    "duration": 0.13333325000002105
                },
                {
                    "name": "D6",
                    "midi": 86,
                    "time": 480.933032750014,
                    "velocity": 0.30708661417322836,
                    "duration": 0.13333325000002105
                },
                {
                    "name": "F#6",
                    "midi": 90,
                    "time": 481.066366000014,
                    "velocity": 0.3464566929133858,
                    "duration": 0.26666649999998526
                },
                {
                    "name": "A6",
                    "midi": 93,
                    "time": 481.333032500014,
                    "velocity": 0.3464566929133858,
                    "duration": 0.13333325000002105
                },
                {
                    "name": "F#6",
                    "midi": 90,
                    "time": 481.466365750014,
                    "velocity": 0.28346456692913385,
                    "duration": 0.13333325000002105
                },
                {
                    "name": "A6",
                    "midi": 93,
                    "time": 481.599699000014,
                    "velocity": 0.3464566929133858,
                    "duration": 0.13333325000002105
                },
                {
                    "name": "F#6",
                    "midi": 90,
                    "time": 481.73303225001405,
                    "velocity": 0.31496062992125984,
                    "duration": 0.13333325000002105
                },
                {
                    "name": "A6",
                    "midi": 93,
                    "time": 481.86636550001407,
                    "velocity": 0.33070866141732286,
                    "duration": 0.13333325000002105
                },
                {
                    "name": "F#6",
                    "midi": 90,
                    "time": 481.9996987500141,
                    "velocity": 0.30708661417322836,
                    "duration": 0.13333325000002105
                },
                {
                    "name": "A6",
                    "midi": 93,
                    "time": 482.1330320000141,
                    "velocity": 0.3464566929133858,
                    "duration": 0.26666649999998526
                },
                {
                    "name": "D7",
                    "midi": 98,
                    "time": 482.3996985000141,
                    "velocity": 0.3858267716535433,
                    "duration": 0.13333325000002105
                },
                {
                    "name": "A6",
                    "midi": 93,
                    "time": 482.5330317500141,
                    "velocity": 0.28346456692913385,
                    "duration": 0.13333325000002105
                },
                {
                    "name": "D7",
                    "midi": 98,
                    "time": 482.66636500001414,
                    "velocity": 0.3858267716535433,
                    "duration": 0.13333325000002105
                },
                {
                    "name": "A6",
                    "midi": 93,
                    "time": 482.79969825001416,
                    "velocity": 0.28346456692913385,
                    "duration": 0.13333325000002105
                },
                {
                    "name": "D7",
                    "midi": 98,
                    "time": 482.9330315000142,
                    "velocity": 0.33858267716535434,
                    "duration": 0.13333325000002105
                },
                {
                    "name": "A6",
                    "midi": 93,
                    "time": 483.0663647500142,
                    "velocity": 0.30708661417322836,
                    "duration": 0.13333325000002105
                },
                {
                    "name": "D7",
                    "midi": 98,
                    "time": 483.1996980000142,
                    "velocity": 0.3700787401574803,
                    "duration": 0.13333325000002105
                },
                {
                    "name": "A6",
                    "midi": 93,
                    "time": 483.33303125001424,
                    "velocity": 0.30708661417322836,
                    "duration": 0.13333325000002105
                },
                {
                    "name": "D7",
                    "midi": 98,
                    "time": 483.46636450001427,
                    "velocity": 0.3464566929133858,
                    "duration": 0.13333325000002105
                },
                {
                    "name": "A6",
                    "midi": 93,
                    "time": 483.5996977500143,
                    "velocity": 0.28346456692913385,
                    "duration": 0.13333325000002105
                },
                {
                    "name": "D7",
                    "midi": 98,
                    "time": 483.7330310000143,
                    "velocity": 0.3464566929133858,
                    "duration": 0.13333325000002105
                },
                {
                    "name": "A6",
                    "midi": 93,
                    "time": 483.8663642500143,
                    "velocity": 0.31496062992125984,
                    "duration": 0.13333325000002105
                },
                {
                    "name": "F#6",
                    "midi": 90,
                    "time": 483.99969750001435,
                    "velocity": 0.33070866141732286,
                    "duration": 0.13333325000002105
                },
                {
                    "name": "A6",
                    "midi": 93,
                    "time": 484.13303075001437,
                    "velocity": 0.29133858267716534,
                    "duration": 0.13333325000002105
                },
                {
                    "name": "D7",
                    "midi": 98,
                    "time": 484.2663640000144,
                    "velocity": 0.3700787401574803,
                    "duration": 0.26666649999998526
                },
                {
                    "name": "F#6",
                    "midi": 90,
                    "time": 484.2663640000144,
                    "velocity": 0.30708661417322836,
                    "duration": 0.26666649999998526
                },
                {
                    "name": "D7",
                    "midi": 98,
                    "time": 484.79969700001436,
                    "velocity": 0.3464566929133858,
                    "duration": 0.13333325000002105
                },
                {
                    "name": "A6",
                    "midi": 93,
                    "time": 484.9330302500144,
                    "velocity": 0.28346456692913385,
                    "duration": 0.13333325000002105
                },
                {
                    "name": "F#6",
                    "midi": 90,
                    "time": 485.0663635000144,
                    "velocity": 0.33858267716535434,
                    "duration": 0.13333325000002105
                },
                {
                    "name": "A6",
                    "midi": 93,
                    "time": 485.1996967500144,
                    "velocity": 0.30708661417322836,
                    "duration": 0.13333325000002105
                },
                {
                    "name": "F#6",
                    "midi": 90,
                    "time": 485.33303000001445,
                    "velocity": 0.2677165354330709,
                    "duration": 0.26666649999998526
                },
                {
                    "name": "D7",
                    "midi": 98,
                    "time": 485.33303000001445,
                    "velocity": 0.3464566929133858,
                    "duration": 0.26666649999998526
                },
                {
                    "name": "D7",
                    "midi": 98,
                    "time": 485.8663630000144,
                    "velocity": 0.3464566929133858,
                    "duration": 0.13333325000002105
                },
                {
                    "name": "A6",
                    "midi": 93,
                    "time": 485.99969625001444,
                    "velocity": 0.31496062992125984,
                    "duration": 0.13333325000002105
                },
                {
                    "name": "F#6",
                    "midi": 90,
                    "time": 486.13302950001446,
                    "velocity": 0.3464566929133858,
                    "duration": 0.13333325000002105
                },
                {
                    "name": "A6",
                    "midi": 93,
                    "time": 486.2663627500145,
                    "velocity": 0.30708661417322836,
                    "duration": 0.13333325000002105
                },
                {
                    "name": "D7",
                    "midi": 98,
                    "time": 486.3996960000145,
                    "velocity": 0.3543307086614173,
                    "duration": 0.26666649999998526
                },
                {
                    "name": "F#6",
                    "midi": 90,
                    "time": 486.3996960000145,
                    "velocity": 0.2992125984251969,
                    "duration": 0.26666649999998526
                },
                {
                    "name": "A5",
                    "midi": 81,
                    "time": 487.4663620000145,
                    "velocity": 0.2992125984251969,
                    "duration": 0.3999997500000063
                },
                {
                    "name": "B5",
                    "midi": 83,
                    "time": 487.8663617500145,
                    "velocity": 0.2677165354330709,
                    "duration": 0.13333325000002105
                },
                {
                    "name": "A5",
                    "midi": 81,
                    "time": 487.9996950000145,
                    "velocity": 0.2992125984251969,
                    "duration": 0.3999997500000063
                },
                {
                    "name": "F#5",
                    "midi": 78,
                    "time": 488.39969475001453,
                    "velocity": 0.2677165354330709,
                    "duration": 0.13333325000002105
                },
                {
                    "name": "D5",
                    "midi": 74,
                    "time": 488.53302800001455,
                    "velocity": 0.2992125984251969,
                    "duration": 0.3999997500000063
                },
                {
                    "name": "D4",
                    "midi": 62,
                    "time": 489.59969400001455,
                    "velocity": 0.2125984251968504,
                    "duration": 0.3999997500000063
                },
                {
                    "name": "F#4",
                    "midi": 66,
                    "time": 489.59969400001455,
                    "velocity": 0.2125984251968504,
                    "duration": 0.3999997500000063
                },
                {
                    "name": "D5",
                    "midi": 74,
                    "time": 489.59969400001455,
                    "velocity": 0.25196850393700787,
                    "duration": 0.3999997500000063
                },
                {
                    "name": "D4",
                    "midi": 62,
                    "time": 490.66636000001455,
                    "velocity": 0.2125984251968504,
                    "duration": 1.066665999999998
                },
                {
                    "name": "F#4",
                    "midi": 66,
                    "time": 490.66636000001455,
                    "velocity": 0.2125984251968504,
                    "duration": 1.066665999999998
                },
                {
                    "name": "D5",
                    "midi": 74,
                    "time": 490.66636000001455,
                    "velocity": 0.25196850393700787,
                    "duration": 1.066665999999998
                }
            ],
            "controlChanges": {},
            "id": 1,
            "name": "Piano right",
            "instrumentNumber": 0,
            "instrument": "acoustic grand piano",
            "instrumentFamily": "piano",
            "channelNumber": 0,
            "isPercussion": false
        },
        {
            "startTime": 0,
            "duration": 491.7330260000251,
            "length": 2792,
            "notes": [
                {
                    "name": "D4",
                    "midi": 62,
                    "time": 0,
                    "velocity": 0.2677165354330709,
                    "duration": 0.19999987500000002
                },
                {
                    "name": "F#4",
                    "midi": 66,
                    "time": 0,
                    "velocity": 0.31496062992125984,
                    "duration": 0.19999987500000002
                },
                {
                    "name": "F#4",
                    "midi": 66,
                    "time": 0.5333330000000001,
                    "velocity": 0.25196850393700787,
                    "duration": 0.19999987500000005
                },
                {
                    "name": "A3",
                    "midi": 57,
                    "time": 0.5333330000000001,
                    "velocity": 0.2125984251968504,
                    "duration": 0.19999987500000005
                },
                {
                    "name": "D4",
                    "midi": 62,
                    "time": 1.0666660000000001,
                    "velocity": 0.2677165354330709,
                    "duration": 0.19999987500000005
                },
                {
                    "name": "F#4",
                    "midi": 66,
                    "time": 1.0666660000000001,
                    "velocity": 0.31496062992125984,
                    "duration": 0.19999987500000005
                },
                {
                    "name": "F#4",
                    "midi": 66,
                    "time": 1.5999990000000002,
                    "velocity": 0.2677165354330709,
                    "duration": 0.19999987500000005
                },
                {
                    "name": "A3",
                    "midi": 57,
                    "time": 1.5999990000000002,
                    "velocity": 0.2204724409448819,
                    "duration": 0.19999987500000005
                },
                {
                    "name": "D4",
                    "midi": 62,
                    "time": 2.1333320000000002,
                    "velocity": 0.2677165354330709,
                    "duration": 0.19999987500000005
                },
                {
                    "name": "F#4",
                    "midi": 66,
                    "time": 2.1333320000000002,
                    "velocity": 0.31496062992125984,
                    "duration": 0.19999987500000005
                },
                {
                    "name": "F#4",
                    "midi": 66,
                    "time": 2.666665,
                    "velocity": 0.2677165354330709,
                    "duration": 0.19999987500000005
                },
                {
                    "name": "A3",
                    "midi": 57,
                    "time": 2.666665,
                    "velocity": 0.2204724409448819,
                    "duration": 0.19999987500000005
                },
                {
                    "name": "F#4",
                    "midi": 66,
                    "time": 3.199998,
                    "velocity": 0.31496062992125984,
                    "duration": 0.2666664999999999
                },
                {
                    "name": "D4",
                    "midi": 62,
                    "time": 3.199998,
                    "velocity": 0.2677165354330709,
                    "duration": 0.2666664999999999
                },
                {
                    "name": "F#4",
                    "midi": 66,
                    "time": 3.7333309999999997,
                    "velocity": 0.29133858267716534,
                    "duration": 0.2666664999999999
                },
                {
                    "name": "A3",
                    "midi": 57,
                    "time": 3.7333309999999997,
                    "velocity": 0.2440944881889764,
                    "duration": 0.2666664999999999
                },
                {
                    "name": "D4",
                    "midi": 62,
                    "time": 4.266664,
                    "velocity": 0.2677165354330709,
                    "duration": 0.26666650000000036
                },
                {
                    "name": "F#4",
                    "midi": 66,
                    "time": 4.266664,
                    "velocity": 0.31496062992125984,
                    "duration": 0.26666650000000036
                },
                {
                    "name": "A3",
                    "midi": 57,
                    "time": 4.799997,
                    "velocity": 0.2283464566929134,
                    "duration": 0.26666650000000036
                },
                {
                    "name": "F#4",
                    "midi": 66,
                    "time": 4.799997,
                    "velocity": 0.2755905511811024,
                    "duration": 0.26666650000000036
                },
                {
                    "name": "E4",
                    "midi": 64,
                    "time": 5.333330000000001,
                    "velocity": 0.2677165354330709,
                    "duration": 0.26666650000000036
                },
                {
                    "name": "G4",
                    "midi": 67,
                    "time": 5.333330000000001,
                    "velocity": 0.31496062992125984,
                    "duration": 0.26666650000000036
                },
                {
                    "name": "G4",
                    "midi": 67,
                    "time": 5.866663000000002,
                    "velocity": 0.2755905511811024,
                    "duration": 0.26666650000000036
                },
                {
                    "name": "A3",
                    "midi": 57,
                    "time": 5.866663000000002,
                    "velocity": 0.2283464566929134,
                    "duration": 0.26666650000000036
                },
                {
                    "name": "D4",
                    "midi": 62,
                    "time": 6.3999960000000025,
                    "velocity": 0.2677165354330709,
                    "duration": 0.26666650000000036
                },
                {
                    "name": "F#4",
                    "midi": 66,
                    "time": 6.3999960000000025,
                    "velocity": 0.31496062992125984,
                    "duration": 0.26666650000000036
                },
                {
                    "name": "F#4",
                    "midi": 66,
                    "time": 6.933329000000003,
                    "velocity": 0.2677165354330709,
                    "duration": 0.26666650000000036
                },
                {
                    "name": "A3",
                    "midi": 57,
                    "time": 6.933329000000003,
                    "velocity": 0.2204724409448819,
                    "duration": 0.26666650000000036
                },
                {
                    "name": "G4",
                    "midi": 67,
                    "time": 7.466662000000004,
                    "velocity": 0.31496062992125984,
                    "duration": 0.26666650000000036
                },
                {
                    "name": "C#4",
                    "midi": 61,
                    "time": 7.466662000000004,
                    "velocity": 0.2677165354330709,
                    "duration": 0.26666650000000036
                },
                {
                    "name": "A3",
                    "midi": 57,
                    "time": 7.999995000000005,
                    "velocity": 0.23622047244094488,
                    "duration": 0.26666650000000036
                },
                {
                    "name": "G4",
                    "midi": 67,
                    "time": 7.999995000000005,
                    "velocity": 0.28346456692913385,
                    "duration": 0.26666650000000036
                },
                {
                    "name": "D4",
                    "midi": 62,
                    "time": 8.533328000000004,
                    "velocity": 0.2677165354330709,
                    "duration": 0.2666664999999995
                },
                {
                    "name": "F#4",
                    "midi": 66,
                    "time": 8.533328000000004,
                    "velocity": 0.31496062992125984,
                    "duration": 0.2666664999999995
                },
                {
                    "name": "A3",
                    "midi": 57,
                    "time": 9.066661000000003,
                    "velocity": 0.2283464566929134,
                    "duration": 0.2666664999999995
                },
                {
                    "name": "F#4",
                    "midi": 66,
                    "time": 9.066661000000003,
                    "velocity": 0.2755905511811024,
                    "duration": 0.2666664999999995
                },
                {
                    "name": "G4",
                    "midi": 67,
                    "time": 9.599994000000002,
                    "velocity": 0.31496062992125984,
                    "duration": 0.2666664999999995
                },
                {
                    "name": "D4",
                    "midi": 62,
                    "time": 9.599994000000002,
                    "velocity": 0.2677165354330709,
                    "duration": 0.2666664999999995
                },
                {
                    "name": "G3",
                    "midi": 55,
                    "time": 9.599994000000002,
                    "velocity": 0.2677165354330709,
                    "duration": 0.2666664999999995
                },
                {
                    "name": "G4",
                    "midi": 67,
                    "time": 10.133327000000001,
                    "velocity": 0.2755905511811024,
                    "duration": 0.2666664999999995
                },
                {
                    "name": "B3",
                    "midi": 59,
                    "time": 10.133327000000001,
                    "velocity": 0.2283464566929134,
                    "duration": 0.2666664999999995
                },
                {
                    "name": "D4",
                    "midi": 62,
                    "time": 10.133327000000001,
                    "velocity": 0.2283464566929134,
                    "duration": 0.2666664999999995
                },
                {
                    "name": "D4",
                    "midi": 62,
                    "time": 10.66666,
                    "velocity": 0.2677165354330709,
                    "duration": 0.2666664999999995
                },
                {
                    "name": "F#4",
                    "midi": 66,
                    "time": 10.66666,
                    "velocity": 0.31496062992125984,
                    "duration": 0.2666664999999995
                },
                {
                    "name": "F#4",
                    "midi": 66,
                    "time": 11.199993,
                    "velocity": 0.2677165354330709,
                    "duration": 0.2666664999999995
                },
                {
                    "name": "A3",
                    "midi": 57,
                    "time": 11.199993,
                    "velocity": 0.2204724409448819,
                    "duration": 0.2666664999999995
                },
                {
                    "name": "F#4",
                    "midi": 66,
                    "time": 11.733325999999998,
                    "velocity": 0.31496062992125984,
                    "duration": 0.2666664999999995
                },
                {
                    "name": "D4",
                    "midi": 62,
                    "time": 11.733325999999998,
                    "velocity": 0.2677165354330709,
                    "duration": 0.2666664999999995
                },
                {
                    "name": "A3",
                    "midi": 57,
                    "time": 12.266658999999997,
                    "velocity": 0.23622047244094488,
                    "duration": 0.2666664999999995
                },
                {
                    "name": "F#4",
                    "midi": 66,
                    "time": 12.266658999999997,
                    "velocity": 0.28346456692913385,
                    "duration": 0.2666664999999995
                },
                {
                    "name": "F#4",
                    "midi": 66,
                    "time": 12.799991999999996,
                    "velocity": 0.31496062992125984,
                    "duration": 0.2666664999999995
                },
                {
                    "name": "D4",
                    "midi": 62,
                    "time": 12.799991999999996,
                    "velocity": 0.2677165354330709,
                    "duration": 0.2666664999999995
                },
                {
                    "name": "A3",
                    "midi": 57,
                    "time": 13.333324999999995,
                    "velocity": 0.2283464566929134,
                    "duration": 0.2666664999999995
                },
                {
                    "name": "F#4",
                    "midi": 66,
                    "time": 13.333324999999995,
                    "velocity": 0.2755905511811024,
                    "duration": 0.2666664999999995
                },
                {
                    "name": "E4",
                    "midi": 64,
                    "time": 13.866657999999994,
                    "velocity": 0.2677165354330709,
                    "duration": 0.2666664999999995
                },
                {
                    "name": "G4",
                    "midi": 67,
                    "time": 13.866657999999994,
                    "velocity": 0.31496062992125984,
                    "duration": 0.2666664999999995
                },
                {
                    "name": "G4",
                    "midi": 67,
                    "time": 14.399990999999993,
                    "velocity": 0.2755905511811024,
                    "duration": 0.2666664999999995
                },
                {
                    "name": "A3",
                    "midi": 57,
                    "time": 14.399990999999993,
                    "velocity": 0.2283464566929134,
                    "duration": 0.2666664999999995
                },
                {
                    "name": "F#4",
                    "midi": 66,
                    "time": 14.933323999999992,
                    "velocity": 0.31496062992125984,
                    "duration": 0.2666664999999995
                },
                {
                    "name": "A#3",
                    "midi": 58,
                    "time": 14.933323999999992,
                    "velocity": 0.2677165354330709,
                    "duration": 0.2666664999999995
                },
                {
                    "name": "A#3",
                    "midi": 58,
                    "time": 15.46665699999999,
                    "velocity": 0.2204724409448819,
                    "duration": 0.2666664999999995
                },
                {
                    "name": "C#4",
                    "midi": 61,
                    "time": 15.46665699999999,
                    "velocity": 0.2677165354330709,
                    "duration": 0.2666664999999995
                },
                {
                    "name": "B3",
                    "midi": 59,
                    "time": 15.99998999999999,
                    "velocity": 0.2677165354330709,
                    "duration": 0.2666664999999995
                },
                {
                    "name": "D4",
                    "midi": 62,
                    "time": 15.99998999999999,
                    "velocity": 0.31496062992125984,
                    "duration": 0.2666664999999995
                },
                {
                    "name": "D4",
                    "midi": 62,
                    "time": 16.53332299999999,
                    "velocity": 0.23622047244094488,
                    "duration": 0.2666664999999995
                },
                {
                    "name": "G3",
                    "midi": 55,
                    "time": 16.53332299999999,
                    "velocity": 0.23622047244094488,
                    "duration": 0.2666664999999995
                },
                {
                    "name": "G4",
                    "midi": 67,
                    "time": 16.53332299999999,
                    "velocity": 0.28346456692913385,
                    "duration": 0.2666664999999995
                },
                {
                    "name": "F#4",
                    "midi": 66,
                    "time": 17.066655999999988,
                    "velocity": 0.31496062992125984,
                    "duration": 0.2666664999999995
                },
                {
                    "name": "D4",
                    "midi": 62,
                    "time": 17.066655999999988,
                    "velocity": 0.2677165354330709,
                    "duration": 0.2666664999999995
                },
                {
                    "name": "A3",
                    "midi": 57,
                    "time": 17.599988999999987,
                    "velocity": 0.2283464566929134,
                    "duration": 0.2666664999999995
                },
                {
                    "name": "F#4",
                    "midi": 66,
                    "time": 17.599988999999987,
                    "velocity": 0.2755905511811024,
                    "duration": 0.2666664999999995
                },
                {
                    "name": "G4",
                    "midi": 67,
                    "time": 18.133321999999986,
                    "velocity": 0.31496062992125984,
                    "duration": 0.2666664999999995
                },
                {
                    "name": "C#4",
                    "midi": 61,
                    "time": 18.133321999999986,
                    "velocity": 0.2677165354330709,
                    "duration": 0.2666664999999995
                },
                {
                    "name": "G4",
                    "midi": 67,
                    "time": 18.666654999999984,
                    "velocity": 0.2755905511811024,
                    "duration": 0.2666664999999995
                },
                {
                    "name": "A3",
                    "midi": 57,
                    "time": 18.666654999999984,
                    "velocity": 0.2283464566929134,
                    "duration": 0.2666664999999995
                },
                {
                    "name": "D4",
                    "midi": 62,
                    "time": 19.199987999999983,
                    "velocity": 0.2677165354330709,
                    "duration": 1.0555548958333318
                },
                {
                    "name": "F#4",
                    "midi": 66,
                    "time": 19.199987999999983,
                    "velocity": 0.31496062992125984,
                    "duration": 1.066665999999998
                },
                {
                    "name": "D3",
                    "midi": 50,
                    "time": 20.26665399999998,
                    "velocity": 0.4566929133858268,
                    "duration": 0.1777776666666675
                },
                {
                    "name": "F#3",
                    "midi": 54,
                    "time": 20.44443166666665,
                    "velocity": 0.4094488188976378,
                    "duration": 0.1777776666666675
                },
                {
                    "name": "B3",
                    "midi": 59,
                    "time": 20.622209333333316,
                    "velocity": 0.4094488188976378,
                    "duration": 0.1777776666666675
                },
                {
                    "name": "A3",
                    "midi": 57,
                    "time": 20.799986999999984,
                    "velocity": 0.4566929133858268,
                    "duration": 0.1777776666666675
                },
                {
                    "name": "F#3",
                    "midi": 54,
                    "time": 20.97776466666665,
                    "velocity": 0.4094488188976378,
                    "duration": 0.1777776666666675
                },
                {
                    "name": "D3",
                    "midi": 50,
                    "time": 21.15554233333332,
                    "velocity": 0.4094488188976378,
                    "duration": 0.1777776666666675
                },
                {
                    "name": "C#3",
                    "midi": 49,
                    "time": 21.333319999999986,
                    "velocity": 0.3858267716535433,
                    "duration": 0.2666664999999995
                },
                {
                    "name": "G3",
                    "midi": 55,
                    "time": 21.333319999999986,
                    "velocity": 0.4566929133858268,
                    "duration": 0.2666664999999995
                },
                {
                    "name": "A2",
                    "midi": 45,
                    "time": 21.866652999999985,
                    "velocity": 0.3700787401574803,
                    "duration": 0.2666664999999995
                },
                {
                    "name": "G3",
                    "midi": 55,
                    "time": 21.866652999999985,
                    "velocity": 0.4409448818897638,
                    "duration": 0.2666664999999995
                },
                {
                    "name": "C#3",
                    "midi": 49,
                    "time": 22.399985999999984,
                    "velocity": 0.3700787401574803,
                    "duration": 0.2666664999999995
                },
                {
                    "name": "G3",
                    "midi": 55,
                    "time": 22.399985999999984,
                    "velocity": 0.4409448818897638,
                    "duration": 0.2666664999999995
                },
                {
                    "name": "A2",
                    "midi": 45,
                    "time": 22.933318999999983,
                    "velocity": 0.3700787401574803,
                    "duration": 0.2666664999999995
                },
                {
                    "name": "G3",
                    "midi": 55,
                    "time": 22.933318999999983,
                    "velocity": 0.4409448818897638,
                    "duration": 0.2666664999999995
                },
                {
                    "name": "D3",
                    "midi": 50,
                    "time": 23.466651999999982,
                    "velocity": 0.3858267716535433,
                    "duration": 0.2666664999999995
                },
                {
                    "name": "F#3",
                    "midi": 54,
                    "time": 23.466651999999982,
                    "velocity": 0.4566929133858268,
                    "duration": 0.2666664999999995
                },
                {
                    "name": "A2",
                    "midi": 45,
                    "time": 23.99998499999998,
                    "velocity": 0.3700787401574803,
                    "duration": 0.2666664999999995
                },
                {
                    "name": "F#3",
                    "midi": 54,
                    "time": 23.99998499999998,
                    "velocity": 0.4409448818897638,
                    "duration": 0.2666664999999995
                },
                {
                    "name": "F#3",
                    "midi": 54,
                    "time": 24.53331799999998,
                    "velocity": 0.4409448818897638,
                    "duration": 0.2666664999999995
                },
                {
                    "name": "D3",
                    "midi": 50,
                    "time": 24.53331799999998,
                    "velocity": 0.3700787401574803,
                    "duration": 0.2666664999999995
                },
                {
                    "name": "A3",
                    "midi": 57,
                    "time": 25.06665099999998,
                    "velocity": 0.4409448818897638,
                    "duration": 0.2666664999999995
                },
                {
                    "name": "F#3",
                    "midi": 54,
                    "time": 25.06665099999998,
                    "velocity": 0.3700787401574803,
                    "duration": 0.2666664999999995
                },
                {
                    "name": "E3",
                    "midi": 52,
                    "time": 25.599983999999978,
                    "velocity": 0.3700787401574803,
                    "duration": 0.2666664999999995
                },
                {
                    "name": "C#4",
                    "midi": 61,
                    "time": 25.599983999999978,
                    "velocity": 0.4409448818897638,
                    "duration": 0.2666664999999995
                },
                {
                    "name": "C#4",
                    "midi": 61,
                    "time": 26.133316999999977,
                    "velocity": 0.4409448818897638,
                    "duration": 0.2666664999999995
                },
                {
                    "name": "A3",
                    "midi": 57,
                    "time": 26.133316999999977,
                    "velocity": 0.3700787401574803,
                    "duration": 0.2666664999999995
                },
                {
                    "name": "B3",
                    "midi": 59,
                    "time": 26.666649999999976,
                    "velocity": 0.3700787401574803,
                    "duration": 0.2666664999999995
                },
                {
                    "name": "D4",
                    "midi": 62,
                    "time": 26.666649999999976,
                    "velocity": 0.4409448818897638,
                    "duration": 0.2666664999999995
                },
                {
                    "name": "D4",
                    "midi": 62,
                    "time": 27.199982999999975,
                    "velocity": 0.4409448818897638,
                    "duration": 0.2666664999999995
                },
                {
                    "name": "E3",
                    "midi": 52,
                    "time": 27.199982999999975,
                    "velocity": 0.3700787401574803,
                    "duration": 0.2666664999999995
                },
                {
                    "name": "A3",
                    "midi": 57,
                    "time": 27.733315999999974,
                    "velocity": 0.4409448818897638,
                    "duration": 1.0633326687500002
                },
                {
                    "name": "C#4",
                    "midi": 61,
                    "time": 27.733315999999974,
                    "velocity": 0.49606299212598426,
                    "duration": 1.0666660000000014
                },
                {
                    "name": "A3",
                    "midi": 57,
                    "time": 28.799981999999975,
                    "velocity": 0.5354330708661418,
                    "duration": 0.1777776666666675
                },
                {
                    "name": "C#4",
                    "midi": 61,
                    "time": 28.977759666666643,
                    "velocity": 0.4566929133858268,
                    "duration": 0.1777776666666675
                },
                {
                    "name": "F#4",
                    "midi": 66,
                    "time": 29.15553733333331,
                    "velocity": 0.4566929133858268,
                    "duration": 0.1777776666666675
                },
                {
                    "name": "E4",
                    "midi": 64,
                    "time": 29.333314999999978,
                    "velocity": 0.5354330708661418,
                    "duration": 0.1777776666666675
                },
                {
                    "name": "C#4",
                    "midi": 61,
                    "time": 29.511092666666645,
                    "velocity": 0.4566929133858268,
                    "duration": 0.1777776666666675
                },
                {
                    "name": "A3",
                    "midi": 57,
                    "time": 29.688870333333313,
                    "velocity": 0.4566929133858268,
                    "duration": 0.1777776666666675
                },
                {
                    "name": "A3",
                    "midi": 57,
                    "time": 29.86664799999998,
                    "velocity": 0.5669291338582677,
                    "duration": 0.533332999999999
                },
                {
                    "name": "G#3",
                    "midi": 56,
                    "time": 30.39998099999998,
                    "velocity": 0.5039370078740157,
                    "duration": 0.2666664999999995
                },
                {
                    "name": "B3",
                    "midi": 59,
                    "time": 30.933313999999978,
                    "velocity": 0.5354330708661418,
                    "duration": 0.1777776666666675
                },
                {
                    "name": "D4",
                    "midi": 62,
                    "time": 31.111091666666645,
                    "velocity": 0.4566929133858268,
                    "duration": 0.1777776666666675
                },
                {
                    "name": "F#4",
                    "midi": 66,
                    "time": 31.288869333333313,
                    "velocity": 0.4566929133858268,
                    "duration": 0.1777776666666675
                },
                {
                    "name": "E4",
                    "midi": 64,
                    "time": 31.46664699999998,
                    "velocity": 0.5354330708661418,
                    "duration": 0.1777776666666675
                },
                {
                    "name": "D4",
                    "midi": 62,
                    "time": 31.644424666666648,
                    "velocity": 0.4566929133858268,
                    "duration": 0.1777776666666675
                },
                {
                    "name": "B3",
                    "midi": 59,
                    "time": 31.822202333333315,
                    "velocity": 0.4566929133858268,
                    "duration": 0.1777776666666675
                },
                {
                    "name": "C#4",
                    "midi": 61,
                    "time": 31.999979999999983,
                    "velocity": 0.5669291338582677,
                    "duration": 0.5333330000000025
                },
                {
                    "name": "A3",
                    "midi": 57,
                    "time": 32.533312999999985,
                    "velocity": 0.5039370078740157,
                    "duration": 0.2666664999999995
                },
                {
                    "name": "G3",
                    "midi": 55,
                    "time": 33.066645999999984,
                    "velocity": 0.49606299212598426,
                    "duration": 0.17777766666666395
                },
                {
                    "name": "C#4",
                    "midi": 61,
                    "time": 33.24442366666665,
                    "velocity": 0.4251968503937008,
                    "duration": 0.17777766666666395
                },
                {
                    "name": "F#4",
                    "midi": 66,
                    "time": 33.42220133333331,
                    "velocity": 0.4251968503937008,
                    "duration": 0.17777766666666395
                },
                {
                    "name": "E4",
                    "midi": 64,
                    "time": 33.599978999999976,
                    "velocity": 0.48031496062992124,
                    "duration": 0.17777766666666395
                },
                {
                    "name": "C#4",
                    "midi": 61,
                    "time": 33.77775666666664,
                    "velocity": 0.4645669291338583,
                    "duration": 0.17777766666666395
                },
                {
                    "name": "G3",
                    "midi": 55,
                    "time": 33.955534333333304,
                    "velocity": 0.4881889763779528,
                    "duration": 0.17777766666666395
                },
                {
                    "name": "F#3",
                    "midi": 54,
                    "time": 34.13331199999997,
                    "velocity": 0.5275590551181102,
                    "duration": 0.17777766666666395
                },
                {
                    "name": "A3",
                    "midi": 57,
                    "time": 34.31108966666663,
                    "velocity": 0.4566929133858268,
                    "duration": 0.17777766666666395
                },
                {
                    "name": "D4",
                    "midi": 62,
                    "time": 34.488867333333296,
                    "velocity": 0.4566929133858268,
                    "duration": 0.17777766666666395
                },
                {
                    "name": "F3",
                    "midi": 53,
                    "time": 34.66664499999996,
                    "velocity": 0.5118110236220472,
                    "duration": 0.17777766666666395
                },
                {
                    "name": "A3",
                    "midi": 57,
                    "time": 34.844422666666624,
                    "velocity": 0.4094488188976378,
                    "duration": 0.17777766666666395
                },
                {
                    "name": "D4",
                    "midi": 62,
                    "time": 35.02220033333329,
                    "velocity": 0.4094488188976378,
                    "duration": 0.17777766666666395
                },
                {
                    "name": "E3",
                    "midi": 52,
                    "time": 35.19997799999995,
                    "velocity": 0.49606299212598426,
                    "duration": 0.17777766666666395
                },
                {
                    "name": "A3",
                    "midi": 57,
                    "time": 35.377755666666616,
                    "velocity": 0.4094488188976378,
                    "duration": 0.17777766666666395
                },
                {
                    "name": "C#4",
                    "midi": 61,
                    "time": 35.55553333333328,
                    "velocity": 0.4094488188976378,
                    "duration": 0.17777766666666395
                },
                {
                    "name": "E4",
                    "midi": 64,
                    "time": 35.733310999999944,
                    "velocity": 0.47244094488188976,
                    "duration": 0.17777766666666395
                },
                {
                    "name": "D4",
                    "midi": 62,
                    "time": 35.91108866666661,
                    "velocity": 0.4094488188976378,
                    "duration": 0.17777766666666395
                },
                {
                    "name": "B3",
                    "midi": 59,
                    "time": 36.08886633333327,
                    "velocity": 0.4094488188976378,
                    "duration": 0.17777766666666395
                },
                {
                    "name": "A3",
                    "midi": 57,
                    "time": 36.266643999999935,
                    "velocity": 0.4881889763779528,
                    "duration": 0.5311107791666672
                },
                {
                    "name": "A4",
                    "midi": 69,
                    "time": 36.799976999999934,
                    "velocity": 0.4251968503937008,
                    "duration": 0.533332999999999
                },
                {
                    "name": "C#4",
                    "midi": 61,
                    "time": 36.799976999999934,
                    "velocity": 0.3543307086614173,
                    "duration": 0.533332999999999
                },
                {
                    "name": "A3",
                    "midi": 57,
                    "time": 36.799976999999934,
                    "velocity": 0.3543307086614173,
                    "duration": 0.533332999999999
                },
                {
                    "name": "B3",
                    "midi": 59,
                    "time": 37.33330999999993,
                    "velocity": 0.3228346456692913,
                    "duration": 0.533332999999999
                },
                {
                    "name": "G#4",
                    "midi": 68,
                    "time": 37.33330999999993,
                    "velocity": 0.3858267716535433,
                    "duration": 0.533332999999999
                },
                {
                    "name": "D4",
                    "midi": 62,
                    "time": 37.33330999999993,
                    "velocity": 0.3228346456692913,
                    "duration": 0.533332999999999
                },
                {
                    "name": "E4",
                    "midi": 64,
                    "time": 37.86664299999993,
                    "velocity": 0.30708661417322836,
                    "duration": 0.533332999999999
                },
                {
                    "name": "G4",
                    "midi": 67,
                    "time": 37.86664299999993,
                    "velocity": 0.3700787401574803,
                    "duration": 0.533332999999999
                },
                {
                    "name": "C#4",
                    "midi": 61,
                    "time": 37.86664299999993,
                    "velocity": 0.30708661417322836,
                    "duration": 0.533332999999999
                },
                {
                    "name": "F#4",
                    "midi": 66,
                    "time": 38.39997599999993,
                    "velocity": 0.31496062992125984,
                    "duration": 0.19999987500000316
                },
                {
                    "name": "D4",
                    "midi": 62,
                    "time": 38.39997599999993,
                    "velocity": 0.2677165354330709,
                    "duration": 0.19999987500000316
                },
                {
                    "name": "F#4",
                    "midi": 66,
                    "time": 38.93330899999994,
                    "velocity": 0.2677165354330709,
                    "duration": 0.19999987500000316
                },
                {
                    "name": "A3",
                    "midi": 57,
                    "time": 38.93330899999994,
                    "velocity": 0.2204724409448819,
                    "duration": 0.19999987500000316
                },
                {
                    "name": "F#4",
                    "midi": 66,
                    "time": 39.46664199999994,
                    "velocity": 0.31496062992125984,
                    "duration": 0.2666664999999995
                },
                {
                    "name": "D4",
                    "midi": 62,
                    "time": 39.46664199999994,
                    "velocity": 0.2677165354330709,
                    "duration": 0.2666664999999995
                },
                {
                    "name": "F#4",
                    "midi": 66,
                    "time": 39.99997499999994,
                    "velocity": 0.29133858267716534,
                    "duration": 0.2666664999999995
                },
                {
                    "name": "A3",
                    "midi": 57,
                    "time": 39.99997499999994,
                    "velocity": 0.2440944881889764,
                    "duration": 0.2666664999999995
                },
                {
                    "name": "D4",
                    "midi": 62,
                    "time": 40.53330799999994,
                    "velocity": 0.2677165354330709,
                    "duration": 0.2666664999999995
                },
                {
                    "name": "F#4",
                    "midi": 66,
                    "time": 40.53330799999994,
                    "velocity": 0.31496062992125984,
                    "duration": 0.2666664999999995
                },
                {
                    "name": "A3",
                    "midi": 57,
                    "time": 41.06664099999994,
                    "velocity": 0.2283464566929134,
                    "duration": 0.2666664999999995
                },
                {
                    "name": "F#4",
                    "midi": 66,
                    "time": 41.06664099999994,
                    "velocity": 0.2755905511811024,
                    "duration": 0.2666664999999995
                },
                {
                    "name": "G4",
                    "midi": 67,
                    "time": 41.59997399999994,
                    "velocity": 0.31496062992125984,
                    "duration": 0.2666664999999995
                },
                {
                    "name": "E4",
                    "midi": 64,
                    "time": 41.59997399999994,
                    "velocity": 0.2677165354330709,
                    "duration": 0.2666664999999995
                },
                {
                    "name": "A3",
                    "midi": 57,
                    "time": 42.13330699999994,
                    "velocity": 0.2283464566929134,
                    "duration": 0.2666664999999995
                },
                {
                    "name": "G4",
                    "midi": 67,
                    "time": 42.13330699999994,
                    "velocity": 0.2755905511811024,
                    "duration": 0.2666664999999995
                },
                {
                    "name": "D4",
                    "midi": 62,
                    "time": 42.66663999999994,
                    "velocity": 0.2677165354330709,
                    "duration": 0.2666664999999995
                },
                {
                    "name": "F#4",
                    "midi": 66,
                    "time": 42.66663999999994,
                    "velocity": 0.31496062992125984,
                    "duration": 0.2666664999999995
                },
                {
                    "name": "A3",
                    "midi": 57,
                    "time": 43.199972999999936,
                    "velocity": 0.2204724409448819,
                    "duration": 0.2666664999999995
                },
                {
                    "name": "F#4",
                    "midi": 66,
                    "time": 43.199972999999936,
                    "velocity": 0.2677165354330709,
                    "duration": 0.2666664999999995
                },
                {
                    "name": "C#4",
                    "midi": 61,
                    "time": 43.733305999999935,
                    "velocity": 0.2677165354330709,
                    "duration": 0.2666664999999995
                },
                {
                    "name": "G4",
                    "midi": 67,
                    "time": 43.733305999999935,
                    "velocity": 0.31496062992125984,
                    "duration": 0.2666664999999995
                },
                {
                    "name": "A3",
                    "midi": 57,
                    "time": 44.266638999999934,
                    "velocity": 0.23622047244094488,
                    "duration": 0.2666664999999995
                },
                {
                    "name": "G4",
                    "midi": 67,
                    "time": 44.266638999999934,
                    "velocity": 0.28346456692913385,
                    "duration": 0.2666664999999995
                },
                {
                    "name": "F#4",
                    "midi": 66,
                    "time": 44.79997199999993,
                    "velocity": 0.31496062992125984,
                    "duration": 0.2666664999999995
                },
                {
                    "name": "D4",
                    "midi": 62,
                    "time": 44.79997199999993,
                    "velocity": 0.2677165354330709,
                    "duration": 0.2666664999999995
                },
                {
                    "name": "A3",
                    "midi": 57,
                    "time": 45.33330499999993,
                    "velocity": 0.2283464566929134,
                    "duration": 0.2666664999999995
                },
                {
                    "name": "F#4",
                    "midi": 66,
                    "time": 45.33330499999993,
                    "velocity": 0.2755905511811024,
                    "duration": 0.2666664999999995
                },
                {
                    "name": "G4",
                    "midi": 67,
                    "time": 45.86663799999993,
                    "velocity": 0.31496062992125984,
                    "duration": 0.2666664999999995
                },
                {
                    "name": "G3",
                    "midi": 55,
                    "time": 45.86663799999993,
                    "velocity": 0.2677165354330709,
                    "duration": 0.2666664999999995
                },
                {
                    "name": "D4",
                    "midi": 62,
                    "time": 45.86663799999993,
                    "velocity": 0.2677165354330709,
                    "duration": 0.2666664999999995
                },
                {
                    "name": "G4",
                    "midi": 67,
                    "time": 46.39997099999993,
                    "velocity": 0.2755905511811024,
                    "duration": 0.2666664999999995
                },
                {
                    "name": "D4",
                    "midi": 62,
                    "time": 46.39997099999993,
                    "velocity": 0.2283464566929134,
                    "duration": 0.2666664999999995
                },
                {
                    "name": "B3",
                    "midi": 59,
                    "time": 46.39997099999993,
                    "velocity": 0.2283464566929134,
                    "duration": 0.2666664999999995
                },
                {
                    "name": "D4",
                    "midi": 62,
                    "time": 46.93330399999993,
                    "velocity": 0.2677165354330709,
                    "duration": 0.2666664999999995
                },
                {
                    "name": "F#4",
                    "midi": 66,
                    "time": 46.93330399999993,
                    "velocity": 0.31496062992125984,
                    "duration": 0.2666664999999995
                },
                {
                    "name": "A3",
                    "midi": 57,
                    "time": 47.46663699999993,
                    "velocity": 0.2204724409448819,
                    "duration": 0.2666664999999995
                },
                {
                    "name": "F#4",
                    "midi": 66,
                    "time": 47.46663699999993,
                    "velocity": 0.2677165354330709,
                    "duration": 0.2666664999999995
                },
                {
                    "name": "F4",
                    "midi": 65,
                    "time": 47.99996999999993,
                    "velocity": 0.28346456692913385,
                    "duration": 0.2666664999999995
                },
                {
                    "name": "D4",
                    "midi": 62,
                    "time": 47.99996999999993,
                    "velocity": 0.23622047244094488,
                    "duration": 0.2666664999999995
                },
                {
                    "name": "F4",
                    "midi": 65,
                    "time": 48.533302999999925,
                    "velocity": 0.25196850393700787,
                    "duration": 0.2666664999999995
                },
                {
                    "name": "A3",
                    "midi": 57,
                    "time": 48.533302999999925,
                    "velocity": 0.2125984251968504,
                    "duration": 0.2666664999999995
                },
                {
                    "name": "D4",
                    "midi": 62,
                    "time": 49.066635999999924,
                    "velocity": 0.23622047244094488,
                    "duration": 0.2666664999999995
                },
                {
                    "name": "F4",
                    "midi": 65,
                    "time": 49.066635999999924,
                    "velocity": 0.28346456692913385,
                    "duration": 0.2666664999999995
                },
                {
                    "name": "F4",
                    "midi": 65,
                    "time": 49.59996899999992,
                    "velocity": 0.2440944881889764,
                    "duration": 0.2666664999999995
                },
                {
                    "name": "A3",
                    "midi": 57,
                    "time": 49.59996899999992,
                    "velocity": 0.2047244094488189,
                    "duration": 0.2666664999999995
                },
                {
                    "name": "F4",
                    "midi": 65,
                    "time": 50.13330199999992,
                    "velocity": 0.31496062992125984,
                    "duration": 0.2666664999999995
                },
                {
                    "name": "C4",
                    "midi": 60,
                    "time": 50.13330199999992,
                    "velocity": 0.2677165354330709,
                    "duration": 0.2666664999999995
                },
                {
                    "name": "D#4",
                    "midi": 63,
                    "time": 50.13330199999992,
                    "velocity": 0.31496062992125984,
                    "duration": 0.2666664999999995
                },
                {
                    "name": "F3",
                    "midi": 53,
                    "time": 50.66663499999992,
                    "velocity": 0.2283464566929134,
                    "duration": 0.2666664999999995
                },
                {
                    "name": "D#4",
                    "midi": 63,
                    "time": 50.66663499999992,
                    "velocity": 0.2283464566929134,
                    "duration": 0.2666664999999995
                },
                {
                    "name": "C4",
                    "midi": 60,
                    "time": 50.66663499999992,
                    "velocity": 0.2283464566929134,
                    "duration": 0.2666664999999995
                },
                {
                    "name": "F4",
                    "midi": 65,
                    "time": 50.66663499999992,
                    "velocity": 0.2755905511811024,
                    "duration": 0.2666664999999995
                },
                {
                    "name": "F4",
                    "midi": 65,
                    "time": 51.19996799999992,
                    "velocity": 0.31496062992125984,
                    "duration": 0.2666664999999995
                },
                {
                    "name": "D4",
                    "midi": 62,
                    "time": 51.19996799999992,
                    "velocity": 0.2677165354330709,
                    "duration": 0.2666664999999995
                },
                {
                    "name": "A#3",
                    "midi": 58,
                    "time": 51.19996799999992,
                    "velocity": 0.2677165354330709,
                    "duration": 0.2666664999999995
                },
                {
                    "name": "D4",
                    "midi": 62,
                    "time": 51.73330099999992,
                    "velocity": 0.2204724409448819,
                    "duration": 0.2666664999999995
                },
                {
                    "name": "F4",
                    "midi": 65,
                    "time": 51.73330099999992,
                    "velocity": 0.2677165354330709,
                    "duration": 0.2666664999999995
                },
                {
                    "name": "A#3",
                    "midi": 58,
                    "time": 52.26663399999992,
                    "velocity": 0.30708661417322836,
                    "duration": 0.2666664999999995
                },
                {
                    "name": "D4",
                    "midi": 62,
                    "time": 52.26663399999992,
                    "velocity": 0.30708661417322836,
                    "duration": 0.2666664999999995
                },
                {
                    "name": "F4",
                    "midi": 65,
                    "time": 52.26663399999992,
                    "velocity": 0.3700787401574803,
                    "duration": 0.2666664999999995
                },
                {
                    "name": "D4",
                    "midi": 62,
                    "time": 52.79996699999992,
                    "velocity": 0.30708661417322836,
                    "duration": 0.2666664999999995
                },
                {
                    "name": "A#3",
                    "midi": 58,
                    "time": 52.79996699999992,
                    "velocity": 0.30708661417322836,
                    "duration": 0.2666664999999995
                },
                {
                    "name": "G#4",
                    "midi": 68,
                    "time": 52.79996699999992,
                    "velocity": 0.3700787401574803,
                    "duration": 0.2666664999999995
                },
                {
                    "name": "D4",
                    "midi": 62,
                    "time": 53.333299999999916,
                    "velocity": 0.33858267716535434,
                    "duration": 0.2666664999999995
                },
                {
                    "name": "A4",
                    "midi": 69,
                    "time": 53.333299999999916,
                    "velocity": 0.4015748031496063,
                    "duration": 0.2666664999999995
                },
                {
                    "name": "F#4",
                    "midi": 66,
                    "time": 53.333299999999916,
                    "velocity": 0.33858267716535434,
                    "duration": 0.2666664999999995
                },
                {
                    "name": "A4",
                    "midi": 69,
                    "time": 53.866632999999915,
                    "velocity": 0.3228346456692913,
                    "duration": 0.2666664999999995
                },
                {
                    "name": "F#4",
                    "midi": 66,
                    "time": 53.866632999999915,
                    "velocity": 0.2677165354330709,
                    "duration": 0.2666664999999995
                },
                {
                    "name": "A3",
                    "midi": 57,
                    "time": 53.866632999999915,
                    "velocity": 0.2677165354330709,
                    "duration": 0.2666664999999995
                },
                {
                    "name": "C#4",
                    "midi": 61,
                    "time": 54.399965999999914,
                    "velocity": 0.31496062992125984,
                    "duration": 0.2666664999999995
                },
                {
                    "name": "G4",
                    "midi": 67,
                    "time": 54.399965999999914,
                    "velocity": 0.31496062992125984,
                    "duration": 0.2666664999999995
                },
                {
                    "name": "A4",
                    "midi": 69,
                    "time": 54.399965999999914,
                    "velocity": 0.3779527559055118,
                    "duration": 0.2666664999999995
                },
                {
                    "name": "G4",
                    "midi": 67,
                    "time": 54.93329899999991,
                    "velocity": 0.28346456692913385,
                    "duration": 0.2666664999999995
                },
                {
                    "name": "A4",
                    "midi": 69,
                    "time": 54.93329899999991,
                    "velocity": 0.33858267716535434,
                    "duration": 0.2666664999999995
                },
                {
                    "name": "A3",
                    "midi": 57,
                    "time": 54.93329899999991,
                    "velocity": 0.28346456692913385,
                    "duration": 0.2666664999999995
                },
                {
                    "name": "A4",
                    "midi": 69,
                    "time": 55.46663199999991,
                    "velocity": 0.41732283464566927,
                    "duration": 0.2666664999999995
                },
                {
                    "name": "F#4",
                    "midi": 66,
                    "time": 55.46663199999991,
                    "velocity": 0.3543307086614173,
                    "duration": 0.2666664999999995
                },
                {
                    "name": "D4",
                    "midi": 62,
                    "time": 55.99996499999991,
                    "velocity": 0.2755905511811024,
                    "duration": 0.2666664999999995
                },
                {
                    "name": "A4",
                    "midi": 69,
                    "time": 55.99996499999991,
                    "velocity": 0.3228346456692913,
                    "duration": 0.2666664999999995
                },
                {
                    "name": "F#4",
                    "midi": 66,
                    "time": 55.99996499999991,
                    "velocity": 0.2755905511811024,
                    "duration": 0.2666664999999995
                },
                {
                    "name": "G4",
                    "midi": 67,
                    "time": 56.53329799999991,
                    "velocity": 0.4015748031496063,
                    "duration": 0.2666664999999995
                },
                {
                    "name": "D4",
                    "midi": 62,
                    "time": 56.53329799999991,
                    "velocity": 0.33858267716535434,
                    "duration": 0.2666664999999995
                },
                {
                    "name": "B3",
                    "midi": 59,
                    "time": 56.53329799999991,
                    "velocity": 0.33858267716535434,
                    "duration": 0.2666664999999995
                },
                {
                    "name": "G3",
                    "midi": 55,
                    "time": 57.06663099999991,
                    "velocity": 0.29133858267716534,
                    "duration": 0.2666664999999995
                },
                {
                    "name": "D4",
                    "midi": 62,
                    "time": 57.06663099999991,
                    "velocity": 0.29133858267716534,
                    "duration": 0.2666664999999995
                },
                {
                    "name": "G4",
                    "midi": 67,
                    "time": 57.06663099999991,
                    "velocity": 0.3464566929133858,
                    "duration": 0.2666664999999995
                },
                {
                    "name": "D4",
                    "midi": 62,
                    "time": 57.59996399999991,
                    "velocity": 0.33858267716535434,
                    "duration": 0.2666664999999995
                },
                {
                    "name": "F#4",
                    "midi": 66,
                    "time": 57.59996399999991,
                    "velocity": 0.4015748031496063,
                    "duration": 0.2666664999999995
                },
                {
                    "name": "F#4",
                    "midi": 66,
                    "time": 58.13329699999991,
                    "velocity": 0.3543307086614173,
                    "duration": 0.2666664999999995
                },
                {
                    "name": "A3",
                    "midi": 57,
                    "time": 58.13329699999991,
                    "velocity": 0.2992125984251969,
                    "duration": 0.2666664999999995
                },
                {
                    "name": "G4",
                    "midi": 67,
                    "time": 58.666629999999905,
                    "velocity": 0.41732283464566927,
                    "duration": 0.2666664999999995
                },
                {
                    "name": "C#4",
                    "midi": 61,
                    "time": 58.666629999999905,
                    "velocity": 0.3543307086614173,
                    "duration": 0.2666664999999995
                },
                {
                    "name": "A3",
                    "midi": 57,
                    "time": 59.199962999999904,
                    "velocity": 0.30708661417322836,
                    "duration": 0.2666664999999995
                },
                {
                    "name": "G4",
                    "midi": 67,
                    "time": 59.199962999999904,
                    "velocity": 0.36220472440944884,
                    "duration": 0.2666664999999995
                },
                {
                    "name": "F#4",
                    "midi": 66,
                    "time": 59.7332959999999,
                    "velocity": 0.4645669291338583,
                    "duration": 1.066665999999998
                },
                {
                    "name": "D4",
                    "midi": 62,
                    "time": 59.7332959999999,
                    "velocity": 0.3937007874015748,
                    "duration": 1.0555548958333318
                },
                {
                    "name": "D3",
                    "midi": 50,
                    "time": 60.7999619999999,
                    "velocity": 0.4566929133858268,
                    "duration": 0.17777766666666395
                },
                {
                    "name": "F#3",
                    "midi": 54,
                    "time": 60.977739666666565,
                    "velocity": 0.4094488188976378,
                    "duration": 0.17777766666666395
                },
                {
                    "name": "B3",
                    "midi": 59,
                    "time": 61.15551733333323,
                    "velocity": 0.4094488188976378,
                    "duration": 0.17777766666666395
                },
                {
                    "name": "A3",
                    "midi": 57,
                    "time": 61.33329499999989,
                    "velocity": 0.4566929133858268,
                    "duration": 0.17777766666666395
                },
                {
                    "name": "F#3",
                    "midi": 54,
                    "time": 61.51107266666656,
                    "velocity": 0.4094488188976378,
                    "duration": 0.17777766666666395
                },
                {
                    "name": "D3",
                    "midi": 50,
                    "time": 61.68885033333322,
                    "velocity": 0.4094488188976378,
                    "duration": 0.17777766666666395
                },
                {
                    "name": "C#3",
                    "midi": 49,
                    "time": 61.866627999999885,
                    "velocity": 0.3858267716535433,
                    "duration": 0.2666664999999995
                },
                {
                    "name": "G3",
                    "midi": 55,
                    "time": 61.866627999999885,
                    "velocity": 0.4566929133858268,
                    "duration": 0.2666664999999995
                },
                {
                    "name": "A2",
                    "midi": 45,
                    "time": 62.399960999999884,
                    "velocity": 0.3700787401574803,
                    "duration": 0.2666664999999995
                },
                {
                    "name": "G3",
                    "midi": 55,
                    "time": 62.399960999999884,
                    "velocity": 0.4409448818897638,
                    "duration": 0.2666664999999995
                },
                {
                    "name": "C#3",
                    "midi": 49,
                    "time": 62.93329399999988,
                    "velocity": 0.3700787401574803,
                    "duration": 0.2666664999999995
                },
                {
                    "name": "G3",
                    "midi": 55,
                    "time": 62.93329399999988,
                    "velocity": 0.4409448818897638,
                    "duration": 0.2666664999999995
                },
                {
                    "name": "A2",
                    "midi": 45,
                    "time": 63.46662699999988,
                    "velocity": 0.3700787401574803,
                    "duration": 0.2666664999999995
                },
                {
                    "name": "G3",
                    "midi": 55,
                    "time": 63.46662699999988,
                    "velocity": 0.4409448818897638,
                    "duration": 0.2666664999999995
                },
                {
                    "name": "D3",
                    "midi": 50,
                    "time": 63.99995999999988,
                    "velocity": 0.3858267716535433,
                    "duration": 0.2666665000000066
                },
                {
                    "name": "F#3",
                    "midi": 54,
                    "time": 63.99995999999988,
                    "velocity": 0.4566929133858268,
                    "duration": 0.2666665000000066
                },
                {
                    "name": "F#3",
                    "midi": 54,
                    "time": 64.53329299999989,
                    "velocity": 0.4409448818897638,
                    "duration": 0.2666664999999995
                },
                {
                    "name": "A2",
                    "midi": 45,
                    "time": 64.53329299999989,
                    "velocity": 0.3700787401574803,
                    "duration": 0.2666664999999995
                },
                {
                    "name": "F#3",
                    "midi": 54,
                    "time": 65.06662599999989,
                    "velocity": 0.4409448818897638,
                    "duration": 0.2666664999999995
                },
                {
                    "name": "D3",
                    "midi": 50,
                    "time": 65.06662599999989,
                    "velocity": 0.3700787401574803,
                    "duration": 0.2666664999999995
                },
                {
                    "name": "A3",
                    "midi": 57,
                    "time": 65.59995899999988,
                    "velocity": 0.4409448818897638,
                    "duration": 0.2666664999999995
                },
                {
                    "name": "F#3",
                    "midi": 54,
                    "time": 65.59995899999988,
                    "velocity": 0.3700787401574803,
                    "duration": 0.2666664999999995
                },
                {
                    "name": "E3",
                    "midi": 52,
                    "time": 66.13329199999988,
                    "velocity": 0.3700787401574803,
                    "duration": 0.2666664999999995
                },
                {
                    "name": "C#4",
                    "midi": 61,
                    "time": 66.13329199999988,
                    "velocity": 0.4409448818897638,
                    "duration": 0.2666664999999995
                },
                {
                    "name": "C#4",
                    "midi": 61,
                    "time": 66.66662499999988,
                    "velocity": 0.4409448818897638,
                    "duration": 0.2666664999999995
                },
                {
                    "name": "A3",
                    "midi": 57,
                    "time": 66.66662499999988,
                    "velocity": 0.3700787401574803,
                    "duration": 0.2666664999999995
                },
                {
                    "name": "D4",
                    "midi": 62,
                    "time": 67.19995799999988,
                    "velocity": 0.4409448818897638,
                    "duration": 0.2666664999999995
                },
                {
                    "name": "B3",
                    "midi": 59,
                    "time": 67.19995799999988,
                    "velocity": 0.3700787401574803,
                    "duration": 0.2666664999999995
                },
                {
                    "name": "E3",
                    "midi": 52,
                    "time": 67.73329099999988,
                    "velocity": 0.3700787401574803,
                    "duration": 0.2666664999999995
                },
                {
                    "name": "D4",
                    "midi": 62,
                    "time": 67.73329099999988,
                    "velocity": 0.4409448818897638,
                    "duration": 0.2666664999999995
                },
                {
                    "name": "C#4",
                    "midi": 61,
                    "time": 68.26662399999988,
                    "velocity": 0.49606299212598426,
                    "duration": 1.066665999999998
                },
                {
                    "name": "A3",
                    "midi": 57,
                    "time": 68.26662399999988,
                    "velocity": 0.4409448818897638,
                    "duration": 1.064443779166666
                },
                {
                    "name": "A3",
                    "midi": 57,
                    "time": 69.33328999999988,
                    "velocity": 0.5354330708661418,
                    "duration": 0.17777766666667105
                },
                {
                    "name": "C#4",
                    "midi": 61,
                    "time": 69.51106766666655,
                    "velocity": 0.4566929133858268,
                    "duration": 0.17777766666667105
                },
                {
                    "name": "F#4",
                    "midi": 66,
                    "time": 69.68884533333322,
                    "velocity": 0.4566929133858268,
                    "duration": 0.17777766666667105
                },
                {
                    "name": "E4",
                    "midi": 64,
                    "time": 69.86662299999989,
                    "velocity": 0.5354330708661418,
                    "duration": 0.17777766666667105
                },
                {
                    "name": "C#4",
                    "midi": 61,
                    "time": 70.04440066666656,
                    "velocity": 0.4566929133858268,
                    "duration": 0.17777766666667105
                },
                {
                    "name": "A3",
                    "midi": 57,
                    "time": 70.22217833333323,
                    "velocity": 0.4566929133858268,
                    "duration": 0.17555544583333926
                },
                {
                    "name": "A3",
                    "midi": 57,
                    "time": 70.3999559999999,
                    "velocity": 0.5669291338582677,
                    "duration": 0.533332999999999
                },
                {
                    "name": "G#3",
                    "midi": 56,
                    "time": 70.9332889999999,
                    "velocity": 0.5039370078740157,
                    "duration": 0.2666664999999995
                },
                {
                    "name": "B3",
                    "midi": 59,
                    "time": 71.4666219999999,
                    "velocity": 0.5354330708661418,
                    "duration": 0.17777766666667105
                },
                {
                    "name": "D4",
                    "midi": 62,
                    "time": 71.64439966666657,
                    "velocity": 0.4566929133858268,
                    "duration": 0.17777766666667105
                },
                {
                    "name": "F#4",
                    "midi": 66,
                    "time": 71.82217733333324,
                    "velocity": 0.4566929133858268,
                    "duration": 0.17777766666667105
                },
                {
                    "name": "E4",
                    "midi": 64,
                    "time": 71.99995499999991,
                    "velocity": 0.5354330708661418,
                    "duration": 0.17777766666667105
                },
                {
                    "name": "D4",
                    "midi": 62,
                    "time": 72.17773266666659,
                    "velocity": 0.4566929133858268,
                    "duration": 0.17777766666667105
                },
                {
                    "name": "B3",
                    "midi": 59,
                    "time": 72.35551033333326,
                    "velocity": 0.4566929133858268,
                    "duration": 0.17777766666667105
                },
                {
                    "name": "C#4",
                    "midi": 61,
                    "time": 72.53328799999993,
                    "velocity": 0.5669291338582677,
                    "duration": 0.533332999999999
                },
                {
                    "name": "A3",
                    "midi": 57,
                    "time": 73.06662099999993,
                    "velocity": 0.5039370078740157,
                    "duration": 0.2666664999999995
                },
                {
                    "name": "G3",
                    "midi": 55,
                    "time": 73.59995399999993,
                    "velocity": 0.49606299212598426,
                    "duration": 0.17777766666667105
                },
                {
                    "name": "C#4",
                    "midi": 61,
                    "time": 73.7777316666666,
                    "velocity": 0.4251968503937008,
                    "duration": 0.17777766666667105
                },
                {
                    "name": "F#4",
                    "midi": 66,
                    "time": 73.95550933333327,
                    "velocity": 0.4251968503937008,
                    "duration": 0.17777766666667105
                },
                {
                    "name": "E4",
                    "midi": 64,
                    "time": 74.13328699999994,
                    "velocity": 0.48031496062992124,
                    "duration": 0.17777766666667105
                },
                {
                    "name": "C#4",
                    "midi": 61,
                    "time": 74.31106466666661,
                    "velocity": 0.4645669291338583,
                    "duration": 0.17777766666667105
                },
                {
                    "name": "G3",
                    "midi": 55,
                    "time": 74.48884233333328,
                    "velocity": 0.4881889763779528,
                    "duration": 0.17777766666667105
                },
                {
                    "name": "F#3",
                    "midi": 54,
                    "time": 74.66661999999995,
                    "velocity": 0.5275590551181102,
                    "duration": 0.17777766666667105
                },
                {
                    "name": "A3",
                    "midi": 57,
                    "time": 74.84439766666662,
                    "velocity": 0.4566929133858268,
                    "duration": 0.17777766666667105
                },
                {
                    "name": "D4",
                    "midi": 62,
                    "time": 75.0221753333333,
                    "velocity": 0.4566929133858268,
                    "duration": 0.17777766666667105
                },
                {
                    "name": "F3",
                    "midi": 53,
                    "time": 75.19995299999997,
                    "velocity": 0.5118110236220472,
                    "duration": 0.17777766666667105
                },
                {
                    "name": "A3",
                    "midi": 57,
                    "time": 75.37773066666664,
                    "velocity": 0.4094488188976378,
                    "duration": 0.17777766666667105
                },
                {
                    "name": "D4",
                    "midi": 62,
                    "time": 75.55550833333331,
                    "velocity": 0.4094488188976378,
                    "duration": 0.17777766666667105
                },
                {
                    "name": "E3",
                    "midi": 52,
                    "time": 75.73328599999998,
                    "velocity": 0.49606299212598426,
                    "duration": 0.17777766666667105
                },
                {
                    "name": "A3",
                    "midi": 57,
                    "time": 75.91106366666665,
                    "velocity": 0.4094488188976378,
                    "duration": 0.17777766666667105
                },
                {
                    "name": "C#4",
                    "midi": 61,
                    "time": 76.08884133333332,
                    "velocity": 0.4094488188976378,
                    "duration": 0.17777766666667105
                },
                {
                    "name": "E4",
                    "midi": 64,
                    "time": 76.26661899999999,
                    "velocity": 0.47244094488188976,
                    "duration": 0.17777766666667105
                },
                {
                    "name": "D4",
                    "midi": 62,
                    "time": 76.44439666666666,
                    "velocity": 0.4094488188976378,
                    "duration": 0.17777766666667105
                },
                {
                    "name": "B3",
                    "midi": 59,
                    "time": 76.62217433333333,
                    "velocity": 0.4094488188976378,
                    "duration": 0.17777766666667105
                },
                {
                    "name": "A3",
                    "midi": 57,
                    "time": 76.799952,
                    "velocity": 0.4881889763779528,
                    "duration": 0.5311107791666672
                },
                {
                    "name": "C#4",
                    "midi": 61,
                    "time": 77.333285,
                    "velocity": 0.3543307086614173,
                    "duration": 0.533332999999999
                },
                {
                    "name": "A4",
                    "midi": 69,
                    "time": 77.333285,
                    "velocity": 0.4251968503937008,
                    "duration": 0.533332999999999
                },
                {
                    "name": "A3",
                    "midi": 57,
                    "time": 77.333285,
                    "velocity": 0.3543307086614173,
                    "duration": 0.533332999999999
                },
                {
                    "name": "D4",
                    "midi": 62,
                    "time": 77.866618,
                    "velocity": 0.3228346456692913,
                    "duration": 0.533332999999999
                },
                {
                    "name": "G#4",
                    "midi": 68,
                    "time": 77.866618,
                    "velocity": 0.3858267716535433,
                    "duration": 0.533332999999999
                },
                {
                    "name": "B3",
                    "midi": 59,
                    "time": 77.866618,
                    "velocity": 0.3228346456692913,
                    "duration": 0.533332999999999
                },
                {
                    "name": "C#4",
                    "midi": 61,
                    "time": 78.399951,
                    "velocity": 0.30708661417322836,
                    "duration": 0.533332999999999
                },
                {
                    "name": "E4",
                    "midi": 64,
                    "time": 78.399951,
                    "velocity": 0.30708661417322836,
                    "duration": 0.533332999999999
                },
                {
                    "name": "G4",
                    "midi": 67,
                    "time": 78.399951,
                    "velocity": 0.3700787401574803,
                    "duration": 0.533332999999999
                },
                {
                    "name": "D4",
                    "midi": 62,
                    "time": 78.933284,
                    "velocity": 0.2677165354330709,
                    "duration": 0.19999987500000316
                },
                {
                    "name": "F#4",
                    "midi": 66,
                    "time": 78.933284,
                    "velocity": 0.31496062992125984,
                    "duration": 0.19999987500000316
                },
                {
                    "name": "F#4",
                    "midi": 66,
                    "time": 79.466617,
                    "velocity": 0.2677165354330709,
                    "duration": 0.19999987500000316
                },
                {
                    "name": "A3",
                    "midi": 57,
                    "time": 79.466617,
                    "velocity": 0.2204724409448819,
                    "duration": 0.19999987500000316
                },
                {
                    "name": "D4",
                    "midi": 62,
                    "time": 79.99995,
                    "velocity": 0.2677165354330709,
                    "duration": 0.2666664999999995
                },
                {
                    "name": "F#4",
                    "midi": 66,
                    "time": 79.99995,
                    "velocity": 0.31496062992125984,
                    "duration": 0.2666664999999995
                },
                {
                    "name": "F#4",
                    "midi": 66,
                    "time": 80.533283,
                    "velocity": 0.29133858267716534,
                    "duration": 0.2666664999999995
                },
                {
                    "name": "A3",
                    "midi": 57,
                    "time": 80.533283,
                    "velocity": 0.2440944881889764,
                    "duration": 0.2666664999999995
                },
                {
                    "name": "F#4",
                    "midi": 66,
                    "time": 81.066616,
                    "velocity": 0.31496062992125984,
                    "duration": 0.2666664999999995
                },
                {
                    "name": "D4",
                    "midi": 62,
                    "time": 81.066616,
                    "velocity": 0.2677165354330709,
                    "duration": 0.2666664999999995
                },
                {
                    "name": "A3",
                    "midi": 57,
                    "time": 81.599949,
                    "velocity": 0.2283464566929134,
                    "duration": 0.2666664999999995
                },
                {
                    "name": "F#4",
                    "midi": 66,
                    "time": 81.599949,
                    "velocity": 0.2755905511811024,
                    "duration": 0.2666664999999995
                },
                {
                    "name": "E4",
                    "midi": 64,
                    "time": 82.133282,
                    "velocity": 0.2677165354330709,
                    "duration": 0.2666664999999995
                },
                {
                    "name": "G4",
                    "midi": 67,
                    "time": 82.133282,
                    "velocity": 0.31496062992125984,
                    "duration": 0.2666664999999995
                },
                {
                    "name": "A3",
                    "midi": 57,
                    "time": 82.666615,
                    "velocity": 0.2283464566929134,
                    "duration": 0.2666664999999995
                },
                {
                    "name": "G4",
                    "midi": 67,
                    "time": 82.666615,
                    "velocity": 0.2755905511811024,
                    "duration": 0.2666664999999995
                },
                {
                    "name": "D4",
                    "midi": 62,
                    "time": 83.19994799999999,
                    "velocity": 0.2677165354330709,
                    "duration": 0.2666664999999995
                },
                {
                    "name": "F#4",
                    "midi": 66,
                    "time": 83.19994799999999,
                    "velocity": 0.31496062992125984,
                    "duration": 0.2666664999999995
                },
                {
                    "name": "A3",
                    "midi": 57,
                    "time": 83.73328099999999,
                    "velocity": 0.2204724409448819,
                    "duration": 0.2666664999999995
                },
                {
                    "name": "F#4",
                    "midi": 66,
                    "time": 83.73328099999999,
                    "velocity": 0.2677165354330709,
                    "duration": 0.2666664999999995
                },
                {
                    "name": "C#4",
                    "midi": 61,
                    "time": 84.26661399999999,
                    "velocity": 0.2677165354330709,
                    "duration": 0.2666664999999995
                },
                {
                    "name": "G4",
                    "midi": 67,
                    "time": 84.26661399999999,
                    "velocity": 0.31496062992125984,
                    "duration": 0.2666664999999995
                },
                {
                    "name": "G4",
                    "midi": 67,
                    "time": 84.79994699999999,
                    "velocity": 0.28346456692913385,
                    "duration": 0.2666664999999995
                },
                {
                    "name": "A3",
                    "midi": 57,
                    "time": 84.79994699999999,
                    "velocity": 0.23622047244094488,
                    "duration": 0.2666664999999995
                },
                {
                    "name": "D4",
                    "midi": 62,
                    "time": 85.33327999999999,
                    "velocity": 0.2677165354330709,
                    "duration": 0.2666664999999995
                },
                {
                    "name": "F#4",
                    "midi": 66,
                    "time": 85.33327999999999,
                    "velocity": 0.31496062992125984,
                    "duration": 0.2666664999999995
                },
                {
                    "name": "A3",
                    "midi": 57,
                    "time": 85.86661299999999,
                    "velocity": 0.2283464566929134,
                    "duration": 0.2666664999999995
                },
                {
                    "name": "F#4",
                    "midi": 66,
                    "time": 85.86661299999999,
                    "velocity": 0.2755905511811024,
                    "duration": 0.2666664999999995
                },
                {
                    "name": "G4",
                    "midi": 67,
                    "time": 86.39994599999999,
                    "velocity": 0.31496062992125984,
                    "duration": 0.2666664999999995
                },
                {
                    "name": "D4",
                    "midi": 62,
                    "time": 86.39994599999999,
                    "velocity": 0.2677165354330709,
                    "duration": 0.2666664999999995
                },
                {
                    "name": "G3",
                    "midi": 55,
                    "time": 86.39994599999999,
                    "velocity": 0.2677165354330709,
                    "duration": 0.2666664999999995
                },
                {
                    "name": "D4",
                    "midi": 62,
                    "time": 86.93327899999998,
                    "velocity": 0.2283464566929134,
                    "duration": 0.2666664999999995
                },
                {
                    "name": "B3",
                    "midi": 59,
                    "time": 86.93327899999998,
                    "velocity": 0.2283464566929134,
                    "duration": 0.2666664999999995
                },
                {
                    "name": "G4",
                    "midi": 67,
                    "time": 86.93327899999998,
                    "velocity": 0.2755905511811024,
                    "duration": 0.2666664999999995
                },
                {
                    "name": "F#4",
                    "midi": 66,
                    "time": 87.46661199999998,
                    "velocity": 0.31496062992125984,
                    "duration": 0.2666664999999995
                },
                {
                    "name": "D4",
                    "midi": 62,
                    "time": 87.46661199999998,
                    "velocity": 0.2677165354330709,
                    "duration": 0.2666664999999995
                },
                {
                    "name": "F#4",
                    "midi": 66,
                    "time": 87.99994499999998,
                    "velocity": 0.2677165354330709,
                    "duration": 0.2666664999999995
                },
                {
                    "name": "A3",
                    "midi": 57,
                    "time": 87.99994499999998,
                    "velocity": 0.2204724409448819,
                    "duration": 0.2666664999999995
                },
                {
                    "name": "D4",
                    "midi": 62,
                    "time": 88.53327799999998,
                    "velocity": 0.23622047244094488,
                    "duration": 0.2666664999999995
                },
                {
                    "name": "F4",
                    "midi": 65,
                    "time": 88.53327799999998,
                    "velocity": 0.28346456692913385,
                    "duration": 0.2666664999999995
                },
                {
                    "name": "F4",
                    "midi": 65,
                    "time": 89.06661099999998,
                    "velocity": 0.25196850393700787,
                    "duration": 0.2666664999999995
                },
                {
                    "name": "A3",
                    "midi": 57,
                    "time": 89.06661099999998,
                    "velocity": 0.2125984251968504,
                    "duration": 0.2666664999999995
                },
                {
                    "name": "D4",
                    "midi": 62,
                    "time": 89.59994399999998,
                    "velocity": 0.23622047244094488,
                    "duration": 0.2666664999999995
                },
                {
                    "name": "F4",
                    "midi": 65,
                    "time": 89.59994399999998,
                    "velocity": 0.28346456692913385,
                    "duration": 0.2666664999999995
                },
                {
                    "name": "F4",
                    "midi": 65,
                    "time": 90.13327699999998,
                    "velocity": 0.2440944881889764,
                    "duration": 0.2666664999999995
                },
                {
                    "name": "A3",
                    "midi": 57,
                    "time": 90.13327699999998,
                    "velocity": 0.2047244094488189,
                    "duration": 0.2666664999999995
                },
                {
                    "name": "D#4",
                    "midi": 63,
                    "time": 90.66660999999998,
                    "velocity": 0.31496062992125984,
                    "duration": 0.2666664999999995
                },
                {
                    "name": "F4",
                    "midi": 65,
                    "time": 90.66660999999998,
                    "velocity": 0.31496062992125984,
                    "duration": 0.2666664999999995
                },
                {
                    "name": "C4",
                    "midi": 60,
                    "time": 90.66660999999998,
                    "velocity": 0.2677165354330709,
                    "duration": 0.2666664999999995
                },
                {
                    "name": "C4",
                    "midi": 60,
                    "time": 91.19994299999998,
                    "velocity": 0.2283464566929134,
                    "duration": 0.2666664999999995
                },
                {
                    "name": "F4",
                    "midi": 65,
                    "time": 91.19994299999998,
                    "velocity": 0.2755905511811024,
                    "duration": 0.2666664999999995
                },
                {
                    "name": "F3",
                    "midi": 53,
                    "time": 91.19994299999998,
                    "velocity": 0.2283464566929134,
                    "duration": 0.2666664999999995
                },
                {
                    "name": "D#4",
                    "midi": 63,
                    "time": 91.19994299999998,
                    "velocity": 0.2283464566929134,
                    "duration": 0.2666664999999995
                },
                {
                    "name": "F4",
                    "midi": 65,
                    "time": 91.73327599999998,
                    "velocity": 0.31496062992125984,
                    "duration": 0.2666664999999995
                },
                {
                    "name": "D4",
                    "midi": 62,
                    "time": 91.73327599999998,
                    "velocity": 0.2677165354330709,
                    "duration": 0.2666664999999995
                },
                {
                    "name": "A#3",
                    "midi": 58,
                    "time": 91.73327599999998,
                    "velocity": 0.2677165354330709,
                    "duration": 0.2666664999999995
                },
                {
                    "name": "D4",
                    "midi": 62,
                    "time": 92.26660899999997,
                    "velocity": 0.2204724409448819,
                    "duration": 0.2666664999999995
                },
                {
                    "name": "F4",
                    "midi": 65,
                    "time": 92.26660899999997,
                    "velocity": 0.2677165354330709,
                    "duration": 0.2666664999999995
                },
                {
                    "name": "F4",
                    "midi": 65,
                    "time": 92.79994199999997,
                    "velocity": 0.3700787401574803,
                    "duration": 0.2666664999999995
                },
                {
                    "name": "D4",
                    "midi": 62,
                    "time": 92.79994199999997,
                    "velocity": 0.30708661417322836,
                    "duration": 0.2666664999999995
                },
                {
                    "name": "A#3",
                    "midi": 58,
                    "time": 92.79994199999997,
                    "velocity": 0.30708661417322836,
                    "duration": 0.2666664999999995
                },
                {
                    "name": "G#4",
                    "midi": 68,
                    "time": 93.33327499999997,
                    "velocity": 0.3700787401574803,
                    "duration": 0.2666664999999995
                },
                {
                    "name": "D4",
                    "midi": 62,
                    "time": 93.33327499999997,
                    "velocity": 0.30708661417322836,
                    "duration": 0.2666664999999995
                },
                {
                    "name": "A#3",
                    "midi": 58,
                    "time": 93.33327499999997,
                    "velocity": 0.30708661417322836,
                    "duration": 0.2666664999999995
                },
                {
                    "name": "D4",
                    "midi": 62,
                    "time": 93.86660799999997,
                    "velocity": 0.33858267716535434,
                    "duration": 0.2666664999999995
                },
                {
                    "name": "F#4",
                    "midi": 66,
                    "time": 93.86660799999997,
                    "velocity": 0.33858267716535434,
                    "duration": 0.2666664999999995
                },
                {
                    "name": "A4",
                    "midi": 69,
                    "time": 93.86660799999997,
                    "velocity": 0.4015748031496063,
                    "duration": 0.2666664999999995
                },
                {
                    "name": "F#4",
                    "midi": 66,
                    "time": 94.39994099999997,
                    "velocity": 0.2677165354330709,
                    "duration": 0.2666664999999995
                },
                {
                    "name": "A3",
                    "midi": 57,
                    "time": 94.39994099999997,
                    "velocity": 0.2677165354330709,
                    "duration": 0.2666664999999995
                },
                {
                    "name": "A4",
                    "midi": 69,
                    "time": 94.39994099999997,
                    "velocity": 0.3228346456692913,
                    "duration": 0.2666664999999995
                },
                {
                    "name": "G4",
                    "midi": 67,
                    "time": 94.93327399999997,
                    "velocity": 0.31496062992125984,
                    "duration": 0.2666664999999995
                },
                {
                    "name": "A4",
                    "midi": 69,
                    "time": 94.93327399999997,
                    "velocity": 0.3779527559055118,
                    "duration": 0.2666664999999995
                },
                {
                    "name": "C#4",
                    "midi": 61,
                    "time": 94.93327399999997,
                    "velocity": 0.31496062992125984,
                    "duration": 0.2666664999999995
                },
                {
                    "name": "G4",
                    "midi": 67,
                    "time": 95.46660699999997,
                    "velocity": 0.28346456692913385,
                    "duration": 0.2666664999999995
                },
                {
                    "name": "A4",
                    "midi": 69,
                    "time": 95.46660699999997,
                    "velocity": 0.33858267716535434,
                    "duration": 0.2666664999999995
                },
                {
                    "name": "A3",
                    "midi": 57,
                    "time": 95.46660699999997,
                    "velocity": 0.28346456692913385,
                    "duration": 0.2666664999999995
                },
                {
                    "name": "A4",
                    "midi": 69,
                    "time": 95.99993999999997,
                    "velocity": 0.41732283464566927,
                    "duration": 0.2666664999999995
                },
                {
                    "name": "F#4",
                    "midi": 66,
                    "time": 95.99993999999997,
                    "velocity": 0.3543307086614173,
                    "duration": 0.2666664999999995
                },
                {
                    "name": "D4",
                    "midi": 62,
                    "time": 96.53327299999997,
                    "velocity": 0.2755905511811024,
                    "duration": 0.2666664999999995
                },
                {
                    "name": "F#4",
                    "midi": 66,
                    "time": 96.53327299999997,
                    "velocity": 0.2755905511811024,
                    "duration": 0.2666664999999995
                },
                {
                    "name": "A4",
                    "midi": 69,
                    "time": 96.53327299999997,
                    "velocity": 0.3228346456692913,
                    "duration": 0.2666664999999995
                },
                {
                    "name": "B3",
                    "midi": 59,
                    "time": 97.06660599999996,
                    "velocity": 0.33858267716535434,
                    "duration": 0.2666664999999995
                },
                {
                    "name": "D4",
                    "midi": 62,
                    "time": 97.06660599999996,
                    "velocity": 0.33858267716535434,
                    "duration": 0.2666664999999995
                },
                {
                    "name": "G4",
                    "midi": 67,
                    "time": 97.06660599999996,
                    "velocity": 0.4015748031496063,
                    "duration": 0.2666664999999995
                },
                {
                    "name": "G4",
                    "midi": 67,
                    "time": 97.59993899999996,
                    "velocity": 0.3464566929133858,
                    "duration": 0.2666664999999995
                },
                {
                    "name": "D4",
                    "midi": 62,
                    "time": 97.59993899999996,
                    "velocity": 0.29133858267716534,
                    "duration": 0.2666664999999995
                },
                {
                    "name": "G3",
                    "midi": 55,
                    "time": 97.59993899999996,
                    "velocity": 0.29133858267716534,
                    "duration": 0.2666664999999995
                },
                {
                    "name": "D4",
                    "midi": 62,
                    "time": 98.13327199999996,
                    "velocity": 0.33858267716535434,
                    "duration": 0.2666664999999995
                },
                {
                    "name": "F#4",
                    "midi": 66,
                    "time": 98.13327199999996,
                    "velocity": 0.4015748031496063,
                    "duration": 0.2666664999999995
                },
                {
                    "name": "A3",
                    "midi": 57,
                    "time": 98.66660499999996,
                    "velocity": 0.2992125984251969,
                    "duration": 0.2666664999999995
                },
                {
                    "name": "F#4",
                    "midi": 66,
                    "time": 98.66660499999996,
                    "velocity": 0.3543307086614173,
                    "duration": 0.2666664999999995
                },
                {
                    "name": "C#4",
                    "midi": 61,
                    "time": 99.19993799999996,
                    "velocity": 0.3543307086614173,
                    "duration": 0.2666664999999995
                },
                {
                    "name": "G4",
                    "midi": 67,
                    "time": 99.19993799999996,
                    "velocity": 0.41732283464566927,
                    "duration": 0.2666664999999995
                },
                {
                    "name": "A3",
                    "midi": 57,
                    "time": 99.73327099999996,
                    "velocity": 0.30708661417322836,
                    "duration": 0.2666664999999995
                },
                {
                    "name": "G4",
                    "midi": 67,
                    "time": 99.73327099999996,
                    "velocity": 0.36220472440944884,
                    "duration": 0.2666664999999995
                },
                {
                    "name": "F#4",
                    "midi": 66,
                    "time": 100.26660399999996,
                    "velocity": 0.4645669291338583,
                    "duration": 1.064443779166666
                },
                {
                    "name": "D4",
                    "midi": 62,
                    "time": 100.26660399999996,
                    "velocity": 0.3937007874015748,
                    "duration": 1.064443779166666
                },
                {
                    "name": "D3",
                    "midi": 50,
                    "time": 101.33326999999996,
                    "velocity": 0.3543307086614173,
                    "duration": 0.13333325000000684
                },
                {
                    "name": "E3",
                    "midi": 52,
                    "time": 101.46660324999996,
                    "velocity": 0.3228346456692913,
                    "duration": 0.13333325000000684
                },
                {
                    "name": "F#3",
                    "midi": 54,
                    "time": 101.59993649999997,
                    "velocity": 0.3543307086614173,
                    "duration": 0.13333325000000684
                },
                {
                    "name": "G3",
                    "midi": 55,
                    "time": 101.73326974999998,
                    "velocity": 0.33070866141732286,
                    "duration": 0.13333325000000684
                },
                {
                    "name": "G#3",
                    "midi": 56,
                    "time": 101.86660299999998,
                    "velocity": 0.3543307086614173,
                    "duration": 0.13333325000000684
                },
                {
                    "name": "A3",
                    "midi": 57,
                    "time": 101.99993624999999,
                    "velocity": 0.3228346456692913,
                    "duration": 0.13333325000000684
                },
                {
                    "name": "G#3",
                    "midi": 56,
                    "time": 102.1332695,
                    "velocity": 0.33858267716535434,
                    "duration": 0.13333325000000684
                },
                {
                    "name": "A3",
                    "midi": 57,
                    "time": 102.26660275,
                    "velocity": 0.3543307086614173,
                    "duration": 0.13333325000000684
                },
                {
                    "name": "B3",
                    "midi": 59,
                    "time": 102.39993600000001,
                    "velocity": 0.4094488188976378,
                    "duration": 0.533332999999999
                },
                {
                    "name": "G3",
                    "midi": 55,
                    "time": 102.39993600000001,
                    "velocity": 0.3464566929133858,
                    "duration": 0.533332999999999
                },
                {
                    "name": "A3",
                    "midi": 57,
                    "time": 102.93326900000001,
                    "velocity": 0.33070866141732286,
                    "duration": 0.2666664999999995
                },
                {
                    "name": "D3",
                    "midi": 50,
                    "time": 102.93326900000001,
                    "velocity": 0.28346456692913385,
                    "duration": 0.2666664999999995
                },
                {
                    "name": "F#3",
                    "midi": 54,
                    "time": 103.46660200000001,
                    "velocity": 0.4015748031496063,
                    "duration": 0.17777766666667105
                },
                {
                    "name": "A3",
                    "midi": 57,
                    "time": 103.64437966666668,
                    "velocity": 0.3543307086614173,
                    "duration": 0.17777766666667105
                },
                {
                    "name": "G3",
                    "midi": 55,
                    "time": 103.82215733333335,
                    "velocity": 0.3543307086614173,
                    "duration": 0.17777766666667105
                },
                {
                    "name": "F#3",
                    "midi": 54,
                    "time": 103.99993500000002,
                    "velocity": 0.4251968503937008,
                    "duration": 0.17777766666667105
                },
                {
                    "name": "A3",
                    "midi": 57,
                    "time": 104.1777126666667,
                    "velocity": 0.33858267716535434,
                    "duration": 0.17777766666667105
                },
                {
                    "name": "D4",
                    "midi": 62,
                    "time": 104.35549033333336,
                    "velocity": 0.33858267716535434,
                    "duration": 0.17777766666667105
                },
                {
                    "name": "E4",
                    "midi": 64,
                    "time": 104.53326800000004,
                    "velocity": 0.44881889763779526,
                    "duration": 0.5311107791666672
                },
                {
                    "name": "A3",
                    "midi": 57,
                    "time": 105.06660100000003,
                    "velocity": 0.3937007874015748,
                    "duration": 0.2666664999999995
                },
                {
                    "name": "G4",
                    "midi": 67,
                    "time": 105.59993400000003,
                    "velocity": 0.4015748031496063,
                    "duration": 0.13333325000000684
                },
                {
                    "name": "F#4",
                    "midi": 66,
                    "time": 105.86660050000005,
                    "velocity": 0.3543307086614173,
                    "duration": 0.13333325000000684
                },
                {
                    "name": "G4",
                    "midi": 67,
                    "time": 106.13326700000006,
                    "velocity": 0.3543307086614173,
                    "duration": 0.13333325000000684
                },
                {
                    "name": "A4",
                    "midi": 69,
                    "time": 106.39993350000007,
                    "velocity": 0.3543307086614173,
                    "duration": 0.13333325000000684
                },
                {
                    "name": "F#4",
                    "midi": 66,
                    "time": 106.66660000000009,
                    "velocity": 0.4015748031496063,
                    "duration": 0.13333325000000684
                },
                {
                    "name": "D4",
                    "midi": 62,
                    "time": 106.9332665000001,
                    "velocity": 0.3700787401574803,
                    "duration": 0.13333325000000684
                },
                {
                    "name": "E4",
                    "midi": 64,
                    "time": 107.19993300000012,
                    "velocity": 0.3700787401574803,
                    "duration": 0.13333325000000684
                },
                {
                    "name": "F#4",
                    "midi": 66,
                    "time": 107.46659950000013,
                    "velocity": 0.3700787401574803,
                    "duration": 0.13333325000000684
                },
                {
                    "name": "G4",
                    "midi": 67,
                    "time": 107.73326600000014,
                    "velocity": 0.4015748031496063,
                    "duration": 0.13333325000000684
                },
                {
                    "name": "E4",
                    "midi": 64,
                    "time": 107.99993250000016,
                    "velocity": 0.36220472440944884,
                    "duration": 0.13333325000000684
                },
                {
                    "name": "F#4",
                    "midi": 66,
                    "time": 108.26659900000017,
                    "velocity": 0.36220472440944884,
                    "duration": 0.13333325000000684
                },
                {
                    "name": "A4",
                    "midi": 69,
                    "time": 108.53326550000018,
                    "velocity": 0.36220472440944884,
                    "duration": 0.13333325000000684
                },
                {
                    "name": "D4",
                    "midi": 62,
                    "time": 108.7999320000002,
                    "velocity": 0.4330708661417323,
                    "duration": 0.13333325000000684
                },
                {
                    "name": "F#4",
                    "midi": 66,
                    "time": 108.7999320000002,
                    "velocity": 0.4330708661417323,
                    "duration": 0.13333325000000684
                },
                {
                    "name": "A3",
                    "midi": 57,
                    "time": 109.06659850000021,
                    "velocity": 0.3779527559055118,
                    "duration": 0.13333325000000684
                },
                {
                    "name": "F#3",
                    "midi": 54,
                    "time": 109.33326500000022,
                    "velocity": 0.4251968503937008,
                    "duration": 0.13333325000000684
                },
                {
                    "name": "D3",
                    "midi": 50,
                    "time": 109.59993150000024,
                    "velocity": 0.4015748031496063,
                    "duration": 0.13333325000000684
                },
                {
                    "name": "G3",
                    "midi": 55,
                    "time": 109.86659800000025,
                    "velocity": 0.4566929133858268,
                    "duration": 0.13333325000000684
                },
                {
                    "name": "A3",
                    "midi": 57,
                    "time": 109.99993125000026,
                    "velocity": 0.4094488188976378,
                    "duration": 0.13333325000000684
                },
                {
                    "name": "B3",
                    "midi": 59,
                    "time": 110.13326450000027,
                    "velocity": 0.4566929133858268,
                    "duration": 0.13333325000000684
                },
                {
                    "name": "C4",
                    "midi": 60,
                    "time": 110.26659775000027,
                    "velocity": 0.41732283464566927,
                    "duration": 0.13333325000000684
                },
                {
                    "name": "C#4",
                    "midi": 61,
                    "time": 110.39993100000028,
                    "velocity": 0.49606299212598426,
                    "duration": 0.13333325000000684
                },
                {
                    "name": "D4",
                    "midi": 62,
                    "time": 110.53326425000029,
                    "velocity": 0.4645669291338583,
                    "duration": 0.13333325000000684
                },
                {
                    "name": "C#4",
                    "midi": 61,
                    "time": 110.6665975000003,
                    "velocity": 0.47244094488188976,
                    "duration": 0.13333325000000684
                },
                {
                    "name": "D4",
                    "midi": 62,
                    "time": 110.7999307500003,
                    "velocity": 0.4566929133858268,
                    "duration": 0.13333325000000684
                },
                {
                    "name": "F#4",
                    "midi": 66,
                    "time": 110.9332640000003,
                    "velocity": 0.5275590551181102,
                    "duration": 0.13333325000000684
                },
                {
                    "name": "E4",
                    "midi": 64,
                    "time": 111.06659725000031,
                    "velocity": 0.48031496062992124,
                    "duration": 0.13333325000000684
                },
                {
                    "name": "D4",
                    "midi": 62,
                    "time": 111.19993050000032,
                    "velocity": 0.4645669291338583,
                    "duration": 0.13333325000000684
                },
                {
                    "name": "C#4",
                    "midi": 61,
                    "time": 111.33326375000033,
                    "velocity": 0.4409448818897638,
                    "duration": 0.13333325000000684
                },
                {
                    "name": "E4",
                    "midi": 64,
                    "time": 111.46659700000033,
                    "velocity": 0.5039370078740157,
                    "duration": 0.13333325000000684
                },
                {
                    "name": "D4",
                    "midi": 62,
                    "time": 111.59993025000034,
                    "velocity": 0.47244094488188976,
                    "duration": 0.13333325000000684
                },
                {
                    "name": "C#4",
                    "midi": 61,
                    "time": 111.73326350000035,
                    "velocity": 0.4409448818897638,
                    "duration": 0.13333325000000684
                },
                {
                    "name": "B3",
                    "midi": 59,
                    "time": 111.86659675000035,
                    "velocity": 0.4566929133858268,
                    "duration": 0.13333325000000684
                },
                {
                    "name": "A3",
                    "midi": 57,
                    "time": 111.99993000000036,
                    "velocity": 0.5118110236220472,
                    "duration": 0.13333325000000684
                },
                {
                    "name": "G#3",
                    "midi": 56,
                    "time": 112.13326325000037,
                    "velocity": 0.47244094488188976,
                    "duration": 0.13333325000000684
                },
                {
                    "name": "F#3",
                    "midi": 54,
                    "time": 112.26659650000038,
                    "velocity": 0.4566929133858268,
                    "duration": 0.13333325000000684
                },
                {
                    "name": "E3",
                    "midi": 52,
                    "time": 112.39992975000038,
                    "velocity": 0.44881889763779526,
                    "duration": 0.13333325000000684
                },
                {
                    "name": "D#3",
                    "midi": 51,
                    "time": 112.53326300000039,
                    "velocity": 0.48031496062992124,
                    "duration": 0.13333325000000684
                },
                {
                    "name": "E3",
                    "midi": 52,
                    "time": 112.6665962500004,
                    "velocity": 0.4566929133858268,
                    "duration": 0.13333325000000684
                },
                {
                    "name": "F#3",
                    "midi": 54,
                    "time": 112.7999295000004,
                    "velocity": 0.4409448818897638,
                    "duration": 0.13333325000000684
                },
                {
                    "name": "G#3",
                    "midi": 56,
                    "time": 112.93326275000041,
                    "velocity": 0.41732283464566927,
                    "duration": 0.13333325000000684
                },
                {
                    "name": "A3",
                    "midi": 57,
                    "time": 113.06659600000042,
                    "velocity": 0.48031496062992124,
                    "duration": 0.12999991875000205
                },
                {
                    "name": "D3",
                    "midi": 50,
                    "time": 114.13326200000041,
                    "velocity": 0.3543307086614173,
                    "duration": 0.13333325000000684
                },
                {
                    "name": "E3",
                    "midi": 52,
                    "time": 114.26659525000042,
                    "velocity": 0.3228346456692913,
                    "duration": 0.13333325000000684
                },
                {
                    "name": "F#3",
                    "midi": 54,
                    "time": 114.39992850000043,
                    "velocity": 0.3543307086614173,
                    "duration": 0.13333325000000684
                },
                {
                    "name": "G3",
                    "midi": 55,
                    "time": 114.53326175000043,
                    "velocity": 0.33070866141732286,
                    "duration": 0.13333325000000684
                },
                {
                    "name": "G#3",
                    "midi": 56,
                    "time": 114.66659500000044,
                    "velocity": 0.3543307086614173,
                    "duration": 0.13333325000000684
                },
                {
                    "name": "A3",
                    "midi": 57,
                    "time": 114.79992825000045,
                    "velocity": 0.3228346456692913,
                    "duration": 0.13333325000000684
                },
                {
                    "name": "G#3",
                    "midi": 56,
                    "time": 114.93326150000046,
                    "velocity": 0.33858267716535434,
                    "duration": 0.13333325000000684
                },
                {
                    "name": "A3",
                    "midi": 57,
                    "time": 115.06659475000046,
                    "velocity": 0.3543307086614173,
                    "duration": 0.13333325000000684
                },
                {
                    "name": "B3",
                    "midi": 59,
                    "time": 115.19992800000047,
                    "velocity": 0.4094488188976378,
                    "duration": 0.533332999999999
                },
                {
                    "name": "G3",
                    "midi": 55,
                    "time": 115.19992800000047,
                    "velocity": 0.3464566929133858,
                    "duration": 0.533332999999999
                },
                {
                    "name": "D3",
                    "midi": 50,
                    "time": 115.73326100000047,
                    "velocity": 0.28346456692913385,
                    "duration": 0.2666664999999995
                },
                {
                    "name": "A3",
                    "midi": 57,
                    "time": 115.73326100000047,
                    "velocity": 0.33070866141732286,
                    "duration": 0.2666664999999995
                },
                {
                    "name": "F#3",
                    "midi": 54,
                    "time": 116.26659400000047,
                    "velocity": 0.4015748031496063,
                    "duration": 0.17777766666667105
                },
                {
                    "name": "A3",
                    "midi": 57,
                    "time": 116.44437166666714,
                    "velocity": 0.3543307086614173,
                    "duration": 0.17777766666667105
                },
                {
                    "name": "G3",
                    "midi": 55,
                    "time": 116.62214933333381,
                    "velocity": 0.3543307086614173,
                    "duration": 0.17777766666667105
                },
                {
                    "name": "F#3",
                    "midi": 54,
                    "time": 116.79992700000048,
                    "velocity": 0.4251968503937008,
                    "duration": 0.17777766666667105
                },
                {
                    "name": "A3",
                    "midi": 57,
                    "time": 116.97770466666715,
                    "velocity": 0.33858267716535434,
                    "duration": 0.17777766666667105
                },
                {
                    "name": "D4",
                    "midi": 62,
                    "time": 117.15548233333382,
                    "velocity": 0.33858267716535434,
                    "duration": 0.17777766666667105
                },
                {
                    "name": "E4",
                    "midi": 64,
                    "time": 117.3332600000005,
                    "velocity": 0.44881889763779526,
                    "duration": 0.5311107791666672
                },
                {
                    "name": "A3",
                    "midi": 57,
                    "time": 117.86659300000049,
                    "velocity": 0.3937007874015748,
                    "duration": 0.2666664999999995
                },
                {
                    "name": "G4",
                    "midi": 67,
                    "time": 118.39992600000049,
                    "velocity": 0.4015748031496063,
                    "duration": 0.13333325000000684
                },
                {
                    "name": "F#4",
                    "midi": 66,
                    "time": 118.6665925000005,
                    "velocity": 0.3543307086614173,
                    "duration": 0.13333325000000684
                },
                {
                    "name": "G4",
                    "midi": 67,
                    "time": 118.93325900000052,
                    "velocity": 0.3543307086614173,
                    "duration": 0.13333325000000684
                },
                {
                    "name": "A4",
                    "midi": 69,
                    "time": 119.19992550000053,
                    "velocity": 0.3543307086614173,
                    "duration": 0.13333325000000684
                },
                {
                    "name": "F#4",
                    "midi": 66,
                    "time": 119.46659200000055,
                    "velocity": 0.4015748031496063,
                    "duration": 0.13333325000000684
                },
                {
                    "name": "A4",
                    "midi": 69,
                    "time": 119.73325850000056,
                    "velocity": 0.3700787401574803,
                    "duration": 0.13333325000000684
                },
                {
                    "name": "F#4",
                    "midi": 66,
                    "time": 119.99992500000057,
                    "velocity": 0.3700787401574803,
                    "duration": 0.13333325000000684
                },
                {
                    "name": "E4",
                    "midi": 64,
                    "time": 120.26659150000059,
                    "velocity": 0.3700787401574803,
                    "duration": 0.13333325000000684
                },
                {
                    "name": "D4",
                    "midi": 62,
                    "time": 120.5332580000006,
                    "velocity": 0.4015748031496063,
                    "duration": 0.13333325000000684
                },
                {
                    "name": "B3",
                    "midi": 59,
                    "time": 120.79992450000061,
                    "velocity": 0.36220472440944884,
                    "duration": 0.13333325000000684
                },
                {
                    "name": "C#4",
                    "midi": 61,
                    "time": 121.06659100000063,
                    "velocity": 0.36220472440944884,
                    "duration": 0.13333325000000684
                },
                {
                    "name": "E4",
                    "midi": 64,
                    "time": 121.33325750000064,
                    "velocity": 0.36220472440944884,
                    "duration": 0.13333325000000684
                },
                {
                    "name": "A3",
                    "midi": 57,
                    "time": 121.59992400000066,
                    "velocity": 0.4330708661417323,
                    "duration": 0.13333325000000684
                },
                {
                    "name": "C#4",
                    "midi": 61,
                    "time": 121.59992400000066,
                    "velocity": 0.4330708661417323,
                    "duration": 0.13333325000000684
                },
                {
                    "name": "E3",
                    "midi": 52,
                    "time": 121.86659050000067,
                    "velocity": 0.3779527559055118,
                    "duration": 0.13333325000000684
                },
                {
                    "name": "C#3",
                    "midi": 49,
                    "time": 122.13325700000068,
                    "velocity": 0.4251968503937008,
                    "duration": 0.13333325000000684
                },
                {
                    "name": "A2",
                    "midi": 45,
                    "time": 122.3999235000007,
                    "velocity": 0.4015748031496063,
                    "duration": 0.13333325000000684
                },
                {
                    "name": "D3",
                    "midi": 50,
                    "time": 122.66659000000071,
                    "velocity": 0.4566929133858268,
                    "duration": 0.13333325000000684
                },
                {
                    "name": "E3",
                    "midi": 52,
                    "time": 122.79992325000072,
                    "velocity": 0.4094488188976378,
                    "duration": 0.13333325000000684
                },
                {
                    "name": "F#3",
                    "midi": 54,
                    "time": 122.93325650000072,
                    "velocity": 0.4566929133858268,
                    "duration": 0.13333325000000684
                },
                {
                    "name": "G3",
                    "midi": 55,
                    "time": 123.06658975000073,
                    "velocity": 0.41732283464566927,
                    "duration": 0.13333325000000684
                },
                {
                    "name": "G#3",
                    "midi": 56,
                    "time": 123.19992300000074,
                    "velocity": 0.49606299212598426,
                    "duration": 0.13333325000000684
                },
                {
                    "name": "A3",
                    "midi": 57,
                    "time": 123.33325625000074,
                    "velocity": 0.4645669291338583,
                    "duration": 0.13333325000000684
                },
                {
                    "name": "G#3",
                    "midi": 56,
                    "time": 123.46658950000075,
                    "velocity": 0.47244094488188976,
                    "duration": 0.13333325000000684
                },
                {
                    "name": "A3",
                    "midi": 57,
                    "time": 123.59992275000076,
                    "velocity": 0.4566929133858268,
                    "duration": 0.13333325000000684
                },
                {
                    "name": "C#4",
                    "midi": 61,
                    "time": 123.73325600000076,
                    "velocity": 0.5275590551181102,
                    "duration": 0.13333325000000684
                },
                {
                    "name": "B3",
                    "midi": 59,
                    "time": 123.86658925000077,
                    "velocity": 0.48031496062992124,
                    "duration": 0.13333325000000684
                },
                {
                    "name": "A3",
                    "midi": 57,
                    "time": 123.99992250000078,
                    "velocity": 0.4645669291338583,
                    "duration": 0.13333325000000684
                },
                {
                    "name": "G#3",
                    "midi": 56,
                    "time": 124.13325575000079,
                    "velocity": 0.4409448818897638,
                    "duration": 0.13333325000000684
                },
                {
                    "name": "B3",
                    "midi": 59,
                    "time": 124.26658900000079,
                    "velocity": 0.5039370078740157,
                    "duration": 0.13333325000000684
                },
                {
                    "name": "A3",
                    "midi": 57,
                    "time": 124.3999222500008,
                    "velocity": 0.47244094488188976,
                    "duration": 0.13333325000000684
                },
                {
                    "name": "G#3",
                    "midi": 56,
                    "time": 124.5332555000008,
                    "velocity": 0.4409448818897638,
                    "duration": 0.13333325000000684
                },
                {
                    "name": "F#3",
                    "midi": 54,
                    "time": 124.66658875000081,
                    "velocity": 0.4566929133858268,
                    "duration": 0.13333325000000684
                },
                {
                    "name": "E3",
                    "midi": 52,
                    "time": 124.79992200000082,
                    "velocity": 0.5118110236220472,
                    "duration": 0.13333325000000684
                },
                {
                    "name": "F#3",
                    "midi": 54,
                    "time": 124.93325525000083,
                    "velocity": 0.47244094488188976,
                    "duration": 0.13333325000000684
                },
                {
                    "name": "E3",
                    "midi": 52,
                    "time": 125.06658850000083,
                    "velocity": 0.4566929133858268,
                    "duration": 0.13333325000000684
                },
                {
                    "name": "F#3",
                    "midi": 54,
                    "time": 125.19992175000084,
                    "velocity": 0.44881889763779526,
                    "duration": 0.13333325000000684
                },
                {
                    "name": "E3",
                    "midi": 52,
                    "time": 125.33325500000085,
                    "velocity": 0.48031496062992124,
                    "duration": 0.13333325000000684
                },
                {
                    "name": "D3",
                    "midi": 50,
                    "time": 125.46658825000085,
                    "velocity": 0.4566929133858268,
                    "duration": 0.13333325000000684
                },
                {
                    "name": "C#3",
                    "midi": 49,
                    "time": 125.59992150000086,
                    "velocity": 0.4409448818897638,
                    "duration": 0.13333325000000684
                },
                {
                    "name": "B2",
                    "midi": 47,
                    "time": 125.73325475000087,
                    "velocity": 0.41732283464566927,
                    "duration": 0.13333325000000684
                },
                {
                    "name": "A2",
                    "midi": 45,
                    "time": 125.86658800000087,
                    "velocity": 0.48031496062992124,
                    "duration": 0.2666664999999995
                },
                {
                    "name": "D5",
                    "midi": 74,
                    "time": 126.93325400000087,
                    "velocity": 0.4015748031496063,
                    "duration": 0.13333325000000684
                },
                {
                    "name": "B4",
                    "midi": 71,
                    "time": 127.19992050000089,
                    "velocity": 0.3700787401574803,
                    "duration": 0.13333325000000684
                },
                {
                    "name": "G#4",
                    "midi": 68,
                    "time": 127.4665870000009,
                    "velocity": 0.3700787401574803,
                    "duration": 0.13333325000000684
                },
                {
                    "name": "E4",
                    "midi": 64,
                    "time": 127.73325350000091,
                    "velocity": 0.3700787401574803,
                    "duration": 0.13333325000000684
                },
                {
                    "name": "C#5",
                    "midi": 73,
                    "time": 127.99992000000093,
                    "velocity": 0.4015748031496063,
                    "duration": 0.13333325000000684
                },
                {
                    "name": "A4",
                    "midi": 69,
                    "time": 128.26658650000093,
                    "velocity": 0.3700787401574803,
                    "duration": 0.13333324999999263
                },
                {
                    "name": "E4",
                    "midi": 64,
                    "time": 128.5332530000009,
                    "velocity": 0.3700787401574803,
                    "duration": 0.13333324999999263
                },
                {
                    "name": "C#4",
                    "midi": 61,
                    "time": 128.7999195000009,
                    "velocity": 0.3700787401574803,
                    "duration": 0.13333324999999263
                },
                {
                    "name": "D4",
                    "midi": 62,
                    "time": 129.06658600000088,
                    "velocity": 0.4015748031496063,
                    "duration": 0.13333324999999263
                },
                {
                    "name": "E4",
                    "midi": 64,
                    "time": 129.19991925000087,
                    "velocity": 0.33070866141732286,
                    "duration": 0.13333324999999263
                },
                {
                    "name": "D4",
                    "midi": 62,
                    "time": 129.33325250000087,
                    "velocity": 0.36220472440944884,
                    "duration": 0.13333324999999263
                },
                {
                    "name": "E4",
                    "midi": 64,
                    "time": 129.46658575000086,
                    "velocity": 0.33070866141732286,
                    "duration": 0.13333324999999263
                },
                {
                    "name": "G#4",
                    "midi": 68,
                    "time": 129.59991900000085,
                    "velocity": 0.4015748031496063,
                    "duration": 0.13333324999999263
                },
                {
                    "name": "B4",
                    "midi": 71,
                    "time": 129.73325225000085,
                    "velocity": 0.3228346456692913,
                    "duration": 0.13333324999999263
                },
                {
                    "name": "G#4",
                    "midi": 68,
                    "time": 129.86658550000084,
                    "velocity": 0.3543307086614173,
                    "duration": 0.13333324999999263
                },
                {
                    "name": "B4",
                    "midi": 71,
                    "time": 129.99991875000083,
                    "velocity": 0.3228346456692913,
                    "duration": 0.13333324999999263
                },
                {
                    "name": "C#4",
                    "midi": 61,
                    "time": 130.13325200000082,
                    "velocity": 0.4015748031496063,
                    "duration": 0.13333324999999263
                },
                {
                    "name": "E4",
                    "midi": 64,
                    "time": 130.26658525000082,
                    "velocity": 0.33070866141732286,
                    "duration": 0.13333324999999263
                },
                {
                    "name": "C#4",
                    "midi": 61,
                    "time": 130.3999185000008,
                    "velocity": 0.36220472440944884,
                    "duration": 0.13333324999999263
                },
                {
                    "name": "E4",
                    "midi": 64,
                    "time": 130.5332517500008,
                    "velocity": 0.33070866141732286,
                    "duration": 0.13333324999999263
                },
                {
                    "name": "A4",
                    "midi": 69,
                    "time": 130.6665850000008,
                    "velocity": 0.4015748031496063,
                    "duration": 0.13333324999999263
                },
                {
                    "name": "C#5",
                    "midi": 73,
                    "time": 130.7999182500008,
                    "velocity": 0.3228346456692913,
                    "duration": 0.13333324999999263
                },
                {
                    "name": "A4",
                    "midi": 69,
                    "time": 130.93325150000078,
                    "velocity": 0.3543307086614173,
                    "duration": 0.13333324999999263
                },
                {
                    "name": "C#5",
                    "midi": 73,
                    "time": 131.06658475000077,
                    "velocity": 0.3228346456692913,
                    "duration": 0.13333324999999263
                },
                {
                    "name": "E4",
                    "midi": 64,
                    "time": 131.19991800000076,
                    "velocity": 0.5433070866141733,
                    "duration": 0.13333324999999263
                },
                {
                    "name": "F#4",
                    "midi": 66,
                    "time": 131.33325125000076,
                    "velocity": 0.4566929133858268,
                    "duration": 0.13333324999999263
                },
                {
                    "name": "G#4",
                    "midi": 68,
                    "time": 131.46658450000075,
                    "velocity": 0.5039370078740157,
                    "duration": 0.13333324999999263
                },
                {
                    "name": "A4",
                    "midi": 69,
                    "time": 131.59991775000074,
                    "velocity": 0.4645669291338583,
                    "duration": 0.13333324999999263
                },
                {
                    "name": "A#4",
                    "midi": 70,
                    "time": 131.73325100000073,
                    "velocity": 0.5433070866141733,
                    "duration": 0.13333324999999263
                },
                {
                    "name": "B4",
                    "midi": 71,
                    "time": 131.86658425000073,
                    "velocity": 0.4409448818897638,
                    "duration": 0.13333324999999263
                },
                {
                    "name": "A#4",
                    "midi": 70,
                    "time": 131.99991750000072,
                    "velocity": 0.5118110236220472,
                    "duration": 0.13333324999999263
                },
                {
                    "name": "B4",
                    "midi": 71,
                    "time": 132.1332507500007,
                    "velocity": 0.4645669291338583,
                    "duration": 0.13333324999999263
                },
                {
                    "name": "A4",
                    "midi": 69,
                    "time": 132.2665840000007,
                    "velocity": 0.5433070866141733,
                    "duration": 0.13333324999999263
                },
                {
                    "name": "B4",
                    "midi": 71,
                    "time": 132.3999172500007,
                    "velocity": 0.4566929133858268,
                    "duration": 0.13333324999999263
                },
                {
                    "name": "C#5",
                    "midi": 73,
                    "time": 132.5332505000007,
                    "velocity": 0.5039370078740157,
                    "duration": 0.13333324999999263
                },
                {
                    "name": "D5",
                    "midi": 74,
                    "time": 132.66658375000068,
                    "velocity": 0.4645669291338583,
                    "duration": 0.13333324999999263
                },
                {
                    "name": "D#5",
                    "midi": 75,
                    "time": 132.79991700000068,
                    "velocity": 0.5511811023622047,
                    "duration": 0.13333324999999263
                },
                {
                    "name": "E5",
                    "midi": 76,
                    "time": 132.93325025000067,
                    "velocity": 0.44881889763779526,
                    "duration": 0.13333324999999263
                },
                {
                    "name": "D#5",
                    "midi": 75,
                    "time": 133.06658350000066,
                    "velocity": 0.4881889763779528,
                    "duration": 0.13333324999999263
                },
                {
                    "name": "E5",
                    "midi": 76,
                    "time": 133.19991675000065,
                    "velocity": 0.3858267716535433,
                    "duration": 0.13333324999999263
                },
                {
                    "name": "D4",
                    "midi": 62,
                    "time": 133.33325000000065,
                    "velocity": 0.4566929133858268,
                    "duration": 0.13333324999999263
                },
                {
                    "name": "B4",
                    "midi": 71,
                    "time": 133.46658325000064,
                    "velocity": 0.33070866141732286,
                    "duration": 0.13333324999999263
                },
                {
                    "name": "D4",
                    "midi": 62,
                    "time": 133.59991650000063,
                    "velocity": 0.36220472440944884,
                    "duration": 0.13333324999999263
                },
                {
                    "name": "B4",
                    "midi": 71,
                    "time": 133.73324975000062,
                    "velocity": 0.33070866141732286,
                    "duration": 0.13333324999999263
                },
                {
                    "name": "E4",
                    "midi": 64,
                    "time": 133.86658300000062,
                    "velocity": 0.4015748031496063,
                    "duration": 0.13333324999999263
                },
                {
                    "name": "D#5",
                    "midi": 75,
                    "time": 133.9999162500006,
                    "velocity": 0.3228346456692913,
                    "duration": 0.13333324999999263
                },
                {
                    "name": "E4",
                    "midi": 64,
                    "time": 134.1332495000006,
                    "velocity": 0.3543307086614173,
                    "duration": 0.13333324999999263
                },
                {
                    "name": "D#5",
                    "midi": 75,
                    "time": 134.2665827500006,
                    "velocity": 0.3228346456692913,
                    "duration": 0.13333324999999263
                },
                {
                    "name": "A4",
                    "midi": 69,
                    "time": 134.3999160000006,
                    "velocity": 0.4015748031496063,
                    "duration": 0.13333324999999263
                },
                {
                    "name": "C#5",
                    "midi": 73,
                    "time": 134.53324925000058,
                    "velocity": 0.33070866141732286,
                    "duration": 0.13333324999999263
                },
                {
                    "name": "A4",
                    "midi": 69,
                    "time": 134.66658250000057,
                    "velocity": 0.36220472440944884,
                    "duration": 0.13333324999999263
                },
                {
                    "name": "C#5",
                    "midi": 73,
                    "time": 134.79991575000057,
                    "velocity": 0.33070866141732286,
                    "duration": 0.13333324999999263
                },
                {
                    "name": "A3",
                    "midi": 57,
                    "time": 134.93324900000056,
                    "velocity": 0.4015748031496063,
                    "duration": 0.13333324999999263
                },
                {
                    "name": "A4",
                    "midi": 69,
                    "time": 135.19991550000054,
                    "velocity": 0.3543307086614173,
                    "duration": 0.13333324999999263
                },
                {
                    "name": "E3",
                    "midi": 52,
                    "time": 135.46658200000053,
                    "velocity": 0.5905511811023622,
                    "duration": 0.13333324999999263
                },
                {
                    "name": "F#3",
                    "midi": 54,
                    "time": 135.59991525000052,
                    "velocity": 0.4566929133858268,
                    "duration": 0.13333324999999263
                },
                {
                    "name": "G#3",
                    "midi": 56,
                    "time": 135.7332485000005,
                    "velocity": 0.5039370078740157,
                    "duration": 0.13333324999999263
                },
                {
                    "name": "A3",
                    "midi": 57,
                    "time": 135.8665817500005,
                    "velocity": 0.4645669291338583,
                    "duration": 0.13333324999999263
                },
                {
                    "name": "A#3",
                    "midi": 58,
                    "time": 135.9999150000005,
                    "velocity": 0.5511811023622047,
                    "duration": 0.13333324999999263
                },
                {
                    "name": "B3",
                    "midi": 59,
                    "time": 136.1332482500005,
                    "velocity": 0.48031496062992124,
                    "duration": 0.13333324999999263
                },
                {
                    "name": "A#3",
                    "midi": 58,
                    "time": 136.26658150000048,
                    "velocity": 0.5354330708661418,
                    "duration": 0.13333324999999263
                },
                {
                    "name": "B3",
                    "midi": 59,
                    "time": 136.39991475000048,
                    "velocity": 0.4645669291338583,
                    "duration": 0.13333324999999263
                },
                {
                    "name": "E3",
                    "midi": 52,
                    "time": 136.53324800000047,
                    "velocity": 0.5905511811023622,
                    "duration": 0.13333324999999263
                },
                {
                    "name": "F#3",
                    "midi": 54,
                    "time": 136.66658125000046,
                    "velocity": 0.4566929133858268,
                    "duration": 0.13333324999999263
                },
                {
                    "name": "G#3",
                    "midi": 56,
                    "time": 136.79991450000045,
                    "velocity": 0.5039370078740157,
                    "duration": 0.13333324999999263
                },
                {
                    "name": "A3",
                    "midi": 57,
                    "time": 136.93324775000045,
                    "velocity": 0.4645669291338583,
                    "duration": 0.13333324999999263
                },
                {
                    "name": "A#3",
                    "midi": 58,
                    "time": 137.06658100000044,
                    "velocity": 0.5511811023622047,
                    "duration": 0.13333324999999263
                },
                {
                    "name": "B3",
                    "midi": 59,
                    "time": 137.19991425000043,
                    "velocity": 0.48031496062992124,
                    "duration": 0.13333324999999263
                },
                {
                    "name": "A#3",
                    "midi": 58,
                    "time": 137.33324750000043,
                    "velocity": 0.5354330708661418,
                    "duration": 0.13333324999999263
                },
                {
                    "name": "B3",
                    "midi": 59,
                    "time": 137.46658075000042,
                    "velocity": 0.4645669291338583,
                    "duration": 0.13333324999999263
                },
                {
                    "name": "E2",
                    "midi": 40,
                    "time": 137.5999140000004,
                    "velocity": 0.5905511811023622,
                    "duration": 0.13333324999999263
                },
                {
                    "name": "F#2",
                    "midi": 42,
                    "time": 137.7332472500004,
                    "velocity": 0.4566929133858268,
                    "duration": 0.13333324999999263
                },
                {
                    "name": "G#2",
                    "midi": 44,
                    "time": 137.8665805000004,
                    "velocity": 0.5039370078740157,
                    "duration": 0.13333324999999263
                },
                {
                    "name": "A2",
                    "midi": 45,
                    "time": 137.9999137500004,
                    "velocity": 0.4645669291338583,
                    "duration": 0.13333324999999263
                },
                {
                    "name": "A#2",
                    "midi": 46,
                    "time": 138.13324700000038,
                    "velocity": 0.5511811023622047,
                    "duration": 0.13333324999999263
                },
                {
                    "name": "B2",
                    "midi": 47,
                    "time": 138.26658025000037,
                    "velocity": 0.48031496062992124,
                    "duration": 0.13333324999999263
                },
                {
                    "name": "A#2",
                    "midi": 46,
                    "time": 138.39991350000037,
                    "velocity": 0.5354330708661418,
                    "duration": 0.13333324999999263
                },
                {
                    "name": "B2",
                    "midi": 47,
                    "time": 138.53324675000036,
                    "velocity": 0.4645669291338583,
                    "duration": 0.13333324999999263
                },
                {
                    "name": "A#2",
                    "midi": 46,
                    "time": 138.66658000000035,
                    "velocity": 0.5905511811023622,
                    "duration": 0.13333324999999263
                },
                {
                    "name": "B2",
                    "midi": 47,
                    "time": 138.79991325000034,
                    "velocity": 0.4881889763779528,
                    "duration": 0.13333324999999263
                },
                {
                    "name": "C#3",
                    "midi": 49,
                    "time": 138.93324650000034,
                    "velocity": 0.5196850393700787,
                    "duration": 0.13333324999999263
                },
                {
                    "name": "D3",
                    "midi": 50,
                    "time": 139.06657975000033,
                    "velocity": 0.4881889763779528,
                    "duration": 0.13333324999999263
                },
                {
                    "name": "D#3",
                    "midi": 51,
                    "time": 139.19991300000032,
                    "velocity": 0.5826771653543307,
                    "duration": 0.13333324999999263
                },
                {
                    "name": "E3",
                    "midi": 52,
                    "time": 139.33324625000031,
                    "velocity": 0.49606299212598426,
                    "duration": 0.13333324999999263
                },
                {
                    "name": "F#3",
                    "midi": 54,
                    "time": 139.4665795000003,
                    "velocity": 0.5039370078740157,
                    "duration": 0.13333324999999263
                },
                {
                    "name": "G#3",
                    "midi": 56,
                    "time": 139.5999127500003,
                    "velocity": 0.5118110236220472,
                    "duration": 0.13333324999999263
                },
                {
                    "name": "A3",
                    "midi": 57,
                    "time": 139.7332460000003,
                    "velocity": 0.47244094488188976,
                    "duration": 0.13333324999999263
                },
                {
                    "name": "B3",
                    "midi": 59,
                    "time": 139.86657925000029,
                    "velocity": 0.4330708661417323,
                    "duration": 0.13333324999999263
                },
                {
                    "name": "C4",
                    "midi": 60,
                    "time": 139.99991250000028,
                    "velocity": 0.47244094488188976,
                    "duration": 0.13333324999999263
                },
                {
                    "name": "D4",
                    "midi": 62,
                    "time": 140.13324575000027,
                    "velocity": 0.4409448818897638,
                    "duration": 0.13333324999999263
                },
                {
                    "name": "D#4",
                    "midi": 63,
                    "time": 140.26657900000026,
                    "velocity": 0.47244094488188976,
                    "duration": 0.13333324999999263
                },
                {
                    "name": "E4",
                    "midi": 64,
                    "time": 140.39991225000026,
                    "velocity": 0.4330708661417323,
                    "duration": 0.13333324999999263
                },
                {
                    "name": "D#4",
                    "midi": 63,
                    "time": 140.53324550000025,
                    "velocity": 0.4566929133858268,
                    "duration": 0.13333324999999263
                },
                {
                    "name": "E4",
                    "midi": 64,
                    "time": 140.66657875000024,
                    "velocity": 0.47244094488188976,
                    "duration": 0.13333324999999263
                },
                {
                    "name": "D4",
                    "midi": 62,
                    "time": 140.79991200000023,
                    "velocity": 0.4645669291338583,
                    "duration": 0.533332999999999
                },
                {
                    "name": "F4",
                    "midi": 65,
                    "time": 140.79991200000023,
                    "velocity": 0.5511811023622047,
                    "duration": 0.533332999999999
                },
                {
                    "name": "E4",
                    "midi": 64,
                    "time": 141.33324500000023,
                    "velocity": 0.4409448818897638,
                    "duration": 0.2666665000000137
                },
                {
                    "name": "A3",
                    "midi": 57,
                    "time": 141.33324500000023,
                    "velocity": 0.3779527559055118,
                    "duration": 0.2666665000000137
                },
                {
                    "name": "F3",
                    "midi": 53,
                    "time": 141.86657800000026,
                    "velocity": 0.4645669291338583,
                    "duration": 0.533332999999999
                },
                {
                    "name": "C4",
                    "midi": 60,
                    "time": 141.86657800000026,
                    "velocity": 0.4645669291338583,
                    "duration": 0.533332999999999
                },
                {
                    "name": "F4",
                    "midi": 65,
                    "time": 141.86657800000026,
                    "velocity": 0.5511811023622047,
                    "duration": 0.533332999999999
                },
                {
                    "name": "C3",
                    "midi": 48,
                    "time": 142.39991100000026,
                    "velocity": 0.3779527559055118,
                    "duration": 0.2666665000000137
                },
                {
                    "name": "C4",
                    "midi": 60,
                    "time": 142.39991100000026,
                    "velocity": 0.4409448818897638,
                    "duration": 0.2666665000000137
                },
                {
                    "name": "A3",
                    "midi": 57,
                    "time": 142.9332440000003,
                    "velocity": 0.5118110236220472,
                    "duration": 0.13333324999999263
                },
                {
                    "name": "A2",
                    "midi": 45,
                    "time": 142.9332440000003,
                    "velocity": 0.4330708661417323,
                    "duration": 0.13333324999999263
                },
                {
                    "name": "G2",
                    "midi": 43,
                    "time": 143.19991050000027,
                    "velocity": 0.3543307086614173,
                    "duration": 0.13333324999999263
                },
                {
                    "name": "G3",
                    "midi": 55,
                    "time": 143.19991050000027,
                    "velocity": 0.4251968503937008,
                    "duration": 0.13333324999999263
                },
                {
                    "name": "F2",
                    "midi": 41,
                    "time": 143.46657700000026,
                    "velocity": 0.3937007874015748,
                    "duration": 0.13333324999999263
                },
                {
                    "name": "F3",
                    "midi": 53,
                    "time": 143.46657700000026,
                    "velocity": 0.4645669291338583,
                    "duration": 0.13333324999999263
                },
                {
                    "name": "E2",
                    "midi": 40,
                    "time": 143.73324350000024,
                    "velocity": 0.3543307086614173,
                    "duration": 0.13333324999999263
                },
                {
                    "name": "E3",
                    "midi": 52,
                    "time": 143.73324350000024,
                    "velocity": 0.41732283464566927,
                    "duration": 0.13333324999999263
                },
                {
                    "name": "D3",
                    "midi": 50,
                    "time": 143.99991000000023,
                    "velocity": 0.5118110236220472,
                    "duration": 0.13333324999999263
                },
                {
                    "name": "D2",
                    "midi": 38,
                    "time": 143.99991000000023,
                    "velocity": 0.4330708661417323,
                    "duration": 0.13333324999999263
                },
                {
                    "name": "C3",
                    "midi": 48,
                    "time": 144.2665765000002,
                    "velocity": 0.41732283464566927,
                    "duration": 0.13333324999999263
                },
                {
                    "name": "C2",
                    "midi": 36,
                    "time": 144.2665765000002,
                    "velocity": 0.3543307086614173,
                    "duration": 0.13333324999999263
                },
                {
                    "name": "D3",
                    "midi": 50,
                    "time": 144.5332430000002,
                    "velocity": 0.48031496062992124,
                    "duration": 0.13333324999999263
                },
                {
                    "name": "D2",
                    "midi": 38,
                    "time": 144.5332430000002,
                    "velocity": 0.4015748031496063,
                    "duration": 0.13333324999999263
                },
                {
                    "name": "D#2",
                    "midi": 39,
                    "time": 144.79990950000018,
                    "velocity": 0.3543307086614173,
                    "duration": 0.13333324999999263
                },
                {
                    "name": "D#3",
                    "midi": 51,
                    "time": 144.79990950000018,
                    "velocity": 0.41732283464566927,
                    "duration": 0.13333324999999263
                },
                {
                    "name": "E3",
                    "midi": 52,
                    "time": 145.06657600000017,
                    "velocity": 0.5433070866141733,
                    "duration": 0.13333324999999263
                },
                {
                    "name": "E2",
                    "midi": 40,
                    "time": 145.06657600000017,
                    "velocity": 0.5433070866141733,
                    "duration": 0.13333324999999263
                },
                {
                    "name": "G#2",
                    "midi": 44,
                    "time": 145.19990925000016,
                    "velocity": 0.49606299212598426,
                    "duration": 0.13333324999999263
                },
                {
                    "name": "B2",
                    "midi": 47,
                    "time": 145.33324250000015,
                    "velocity": 0.49606299212598426,
                    "duration": 0.13333324999999263
                },
                {
                    "name": "E3",
                    "midi": 52,
                    "time": 145.46657575000015,
                    "velocity": 0.49606299212598426,
                    "duration": 0.13333324999999263
                },
                {
                    "name": "G#3",
                    "midi": 56,
                    "time": 145.59990900000014,
                    "velocity": 0.5118110236220472,
                    "duration": 0.13333324999999263
                },
                {
                    "name": "A3",
                    "midi": 57,
                    "time": 145.73324225000013,
                    "velocity": 0.48031496062992124,
                    "duration": 0.13333324999999263
                },
                {
                    "name": "B3",
                    "midi": 59,
                    "time": 145.86657550000012,
                    "velocity": 0.48031496062992124,
                    "duration": 0.13333324999999263
                },
                {
                    "name": "C4",
                    "midi": 60,
                    "time": 145.99990875000012,
                    "velocity": 0.48031496062992124,
                    "duration": 0.13333324999999263
                },
                {
                    "name": "D3",
                    "midi": 50,
                    "time": 146.1332420000001,
                    "velocity": 0.5433070866141733,
                    "duration": 0.13333324999999263
                },
                {
                    "name": "D4",
                    "midi": 62,
                    "time": 146.1332420000001,
                    "velocity": 0.6377952755905512,
                    "duration": 0.13333324999999263
                },
                {
                    "name": "C#4",
                    "midi": 61,
                    "time": 146.3999085000001,
                    "velocity": 0.4330708661417323,
                    "duration": 0.13333324999999263
                },
                {
                    "name": "C#3",
                    "midi": 49,
                    "time": 146.3999085000001,
                    "velocity": 0.36220472440944884,
                    "duration": 0.13333324999999263
                },
                {
                    "name": "D3",
                    "midi": 50,
                    "time": 146.66657500000008,
                    "velocity": 0.4015748031496063,
                    "duration": 0.13333324999999263
                },
                {
                    "name": "D4",
                    "midi": 62,
                    "time": 146.66657500000008,
                    "velocity": 0.48031496062992124,
                    "duration": 0.13333324999999263
                },
                {
                    "name": "E3",
                    "midi": 52,
                    "time": 146.93324150000007,
                    "velocity": 0.3779527559055118,
                    "duration": 0.13333324999999263
                },
                {
                    "name": "E4",
                    "midi": 64,
                    "time": 146.93324150000007,
                    "velocity": 0.44881889763779526,
                    "duration": 0.13333324999999263
                },
                {
                    "name": "C3",
                    "midi": 48,
                    "time": 147.19990800000005,
                    "velocity": 0.5275590551181102,
                    "duration": 0.13333324999999263
                },
                {
                    "name": "C4",
                    "midi": 60,
                    "time": 147.19990800000005,
                    "velocity": 0.6299212598425197,
                    "duration": 0.13333324999999263
                },
                {
                    "name": "A2",
                    "midi": 45,
                    "time": 147.46657450000004,
                    "velocity": 0.3700787401574803,
                    "duration": 0.13333324999999263
                },
                {
                    "name": "A3",
                    "midi": 57,
                    "time": 147.46657450000004,
                    "velocity": 0.4409448818897638,
                    "duration": 0.13333324999999263
                },
                {
                    "name": "B3",
                    "midi": 59,
                    "time": 147.73324100000002,
                    "velocity": 0.4645669291338583,
                    "duration": 0.13333324999999263
                },
                {
                    "name": "B2",
                    "midi": 47,
                    "time": 147.73324100000002,
                    "velocity": 0.3937007874015748,
                    "duration": 0.13333324999999263
                },
                {
                    "name": "C3",
                    "midi": 48,
                    "time": 147.9999075,
                    "velocity": 0.3779527559055118,
                    "duration": 0.13333324999999263
                },
                {
                    "name": "C4",
                    "midi": 60,
                    "time": 147.9999075,
                    "velocity": 0.44881889763779526,
                    "duration": 0.13333324999999263
                },
                {
                    "name": "D4",
                    "midi": 62,
                    "time": 148.266574,
                    "velocity": 0.6377952755905512,
                    "duration": 0.13333324999999263
                },
                {
                    "name": "D3",
                    "midi": 50,
                    "time": 148.266574,
                    "velocity": 0.5433070866141733,
                    "duration": 0.13333324999999263
                },
                {
                    "name": "B3",
                    "midi": 59,
                    "time": 148.53324049999998,
                    "velocity": 0.44881889763779526,
                    "duration": 0.13333324999999263
                },
                {
                    "name": "B2",
                    "midi": 47,
                    "time": 148.53324049999998,
                    "velocity": 0.3779527559055118,
                    "duration": 0.13333324999999263
                },
                {
                    "name": "C4",
                    "midi": 60,
                    "time": 148.79990699999996,
                    "velocity": 0.47244094488188976,
                    "duration": 0.13333324999999263
                },
                {
                    "name": "C3",
                    "midi": 48,
                    "time": 148.79990699999996,
                    "velocity": 0.4015748031496063,
                    "duration": 0.13333324999999263
                },
                {
                    "name": "E4",
                    "midi": 64,
                    "time": 149.06657349999995,
                    "velocity": 0.44881889763779526,
                    "duration": 0.13333324999999263
                },
                {
                    "name": "E3",
                    "midi": 52,
                    "time": 149.06657349999995,
                    "velocity": 0.3779527559055118,
                    "duration": 0.13333324999999263
                },
                {
                    "name": "A3",
                    "midi": 57,
                    "time": 149.33323999999993,
                    "velocity": 0.6377952755905512,
                    "duration": 0.13333324999999263
                },
                {
                    "name": "A2",
                    "midi": 45,
                    "time": 149.33323999999993,
                    "velocity": 0.5433070866141733,
                    "duration": 0.13333324999999263
                },
                {
                    "name": "E3",
                    "midi": 52,
                    "time": 149.59990649999992,
                    "velocity": 0.4330708661417323,
                    "duration": 0.13333324999999263
                },
                {
                    "name": "C3",
                    "midi": 48,
                    "time": 149.8665729999999,
                    "velocity": 0.48031496062992124,
                    "duration": 0.13333324999999263
                },
                {
                    "name": "A2",
                    "midi": 45,
                    "time": 150.1332394999999,
                    "velocity": 0.44881889763779526,
                    "duration": 0.13333324999999263
                },
                {
                    "name": "C3",
                    "midi": 48,
                    "time": 150.39990599999987,
                    "velocity": 0.49606299212598426,
                    "duration": 0.14666657499998337
                },
                {
                    "name": "D3",
                    "midi": 50,
                    "time": 150.53323924999987,
                    "velocity": 0.44881889763779526,
                    "duration": 0.14666657499998337
                },
                {
                    "name": "E3",
                    "midi": 52,
                    "time": 150.66657249999986,
                    "velocity": 0.44881889763779526,
                    "duration": 0.14666657499998337
                },
                {
                    "name": "F3",
                    "midi": 53,
                    "time": 150.79990574999985,
                    "velocity": 0.44881889763779526,
                    "duration": 0.14666657499998337
                },
                {
                    "name": "F#3",
                    "midi": 54,
                    "time": 150.93323899999984,
                    "velocity": 0.4881889763779528,
                    "duration": 0.14666657499998337
                },
                {
                    "name": "G3",
                    "midi": 55,
                    "time": 151.06657224999984,
                    "velocity": 0.44881889763779526,
                    "duration": 0.14666657499998337
                },
                {
                    "name": "F#3",
                    "midi": 54,
                    "time": 151.19990549999983,
                    "velocity": 0.48031496062992124,
                    "duration": 0.14666657499998337
                },
                {
                    "name": "G3",
                    "midi": 55,
                    "time": 151.33323874999982,
                    "velocity": 0.44881889763779526,
                    "duration": 0.13333324999999263
                },
                {
                    "name": "F3",
                    "midi": 53,
                    "time": 151.46657199999981,
                    "velocity": 0.49606299212598426,
                    "duration": 0.14666657499998337
                },
                {
                    "name": "G3",
                    "midi": 55,
                    "time": 151.5999052499998,
                    "velocity": 0.44881889763779526,
                    "duration": 0.14666657499998337
                },
                {
                    "name": "A3",
                    "midi": 57,
                    "time": 151.7332384999998,
                    "velocity": 0.44881889763779526,
                    "duration": 0.14666657499998337
                },
                {
                    "name": "A#3",
                    "midi": 58,
                    "time": 151.8665717499998,
                    "velocity": 0.44881889763779526,
                    "duration": 0.14666657499998337
                },
                {
                    "name": "B3",
                    "midi": 59,
                    "time": 151.99990499999979,
                    "velocity": 0.4881889763779528,
                    "duration": 0.14666657499998337
                },
                {
                    "name": "C4",
                    "midi": 60,
                    "time": 152.13323824999978,
                    "velocity": 0.44881889763779526,
                    "duration": 0.14666657499998337
                },
                {
                    "name": "B3",
                    "midi": 59,
                    "time": 152.26657149999977,
                    "velocity": 0.48031496062992124,
                    "duration": 0.14666657499998337
                },
                {
                    "name": "C4",
                    "midi": 60,
                    "time": 152.39990474999976,
                    "velocity": 0.44881889763779526,
                    "duration": 0.13333324999999263
                },
                {
                    "name": "D4",
                    "midi": 62,
                    "time": 152.53323799999976,
                    "velocity": 0.49606299212598426,
                    "duration": 0.14666657499998337
                },
                {
                    "name": "C4",
                    "midi": 60,
                    "time": 152.66657124999975,
                    "velocity": 0.44881889763779526,
                    "duration": 0.14666657499998337
                },
                {
                    "name": "A#3",
                    "midi": 58,
                    "time": 152.79990449999974,
                    "velocity": 0.44881889763779526,
                    "duration": 0.14666657499998337
                },
                {
                    "name": "A3",
                    "midi": 57,
                    "time": 152.93323774999973,
                    "velocity": 0.44881889763779526,
                    "duration": 0.14666657499998337
                },
                {
                    "name": "C4",
                    "midi": 60,
                    "time": 153.06657099999973,
                    "velocity": 0.4881889763779528,
                    "duration": 0.14666657499998337
                },
                {
                    "name": "A#3",
                    "midi": 58,
                    "time": 153.19990424999972,
                    "velocity": 0.44881889763779526,
                    "duration": 0.14666657499998337
                },
                {
                    "name": "A3",
                    "midi": 57,
                    "time": 153.3332374999997,
                    "velocity": 0.48031496062992124,
                    "duration": 0.14666657499998337
                },
                {
                    "name": "G3",
                    "midi": 55,
                    "time": 153.4665707499997,
                    "velocity": 0.44881889763779526,
                    "duration": 0.13333324999999263
                },
                {
                    "name": "F3",
                    "midi": 53,
                    "time": 153.5999039999997,
                    "velocity": 0.49606299212598426,
                    "duration": 0.14666657499998337
                },
                {
                    "name": "G3",
                    "midi": 55,
                    "time": 153.7332372499997,
                    "velocity": 0.44881889763779526,
                    "duration": 0.14666657499998337
                },
                {
                    "name": "A3",
                    "midi": 57,
                    "time": 153.86657049999968,
                    "velocity": 0.44881889763779526,
                    "duration": 0.14666657499998337
                },
                {
                    "name": "A#3",
                    "midi": 58,
                    "time": 153.99990374999967,
                    "velocity": 0.44881889763779526,
                    "duration": 0.14666657499998337
                },
                {
                    "name": "C4",
                    "midi": 60,
                    "time": 154.13323699999967,
                    "velocity": 0.4881889763779528,
                    "duration": 0.14666657499998337
                },
                {
                    "name": "D4",
                    "midi": 62,
                    "time": 154.26657024999966,
                    "velocity": 0.44881889763779526,
                    "duration": 0.14666657499998337
                },
                {
                    "name": "E4",
                    "midi": 64,
                    "time": 154.39990349999965,
                    "velocity": 0.48031496062992124,
                    "duration": 0.14666657499998337
                },
                {
                    "name": "F4",
                    "midi": 65,
                    "time": 154.53323674999965,
                    "velocity": 0.44881889763779526,
                    "duration": 0.13333324999999263
                },
                {
                    "name": "G3",
                    "midi": 55,
                    "time": 154.66656999999964,
                    "velocity": 0.5433070866141733,
                    "duration": 0.13333324999999263
                },
                {
                    "name": "G4",
                    "midi": 67,
                    "time": 154.66656999999964,
                    "velocity": 0.6377952755905512,
                    "duration": 0.13333324999999263
                },
                {
                    "name": "F#4",
                    "midi": 66,
                    "time": 154.93323649999962,
                    "velocity": 0.4330708661417323,
                    "duration": 0.13333324999999263
                },
                {
                    "name": "F#3",
                    "midi": 54,
                    "time": 154.93323649999962,
                    "velocity": 0.36220472440944884,
                    "duration": 0.13333324999999263
                },
                {
                    "name": "G3",
                    "midi": 55,
                    "time": 155.1999029999996,
                    "velocity": 0.4015748031496063,
                    "duration": 0.13333324999999263
                },
                {
                    "name": "G4",
                    "midi": 67,
                    "time": 155.1999029999996,
                    "velocity": 0.48031496062992124,
                    "duration": 0.13333324999999263
                },
                {
                    "name": "A4",
                    "midi": 69,
                    "time": 155.4665694999996,
                    "velocity": 0.44881889763779526,
                    "duration": 0.13333324999999263
                },
                {
                    "name": "A3",
                    "midi": 57,
                    "time": 155.4665694999996,
                    "velocity": 0.3779527559055118,
                    "duration": 0.13333324999999263
                },
                {
                    "name": "F4",
                    "midi": 65,
                    "time": 155.73323599999958,
                    "velocity": 0.6299212598425197,
                    "duration": 0.13333324999999263
                },
                {
                    "name": "F3",
                    "midi": 53,
                    "time": 155.73323599999958,
                    "velocity": 0.5275590551181102,
                    "duration": 0.13333324999999263
                },
                {
                    "name": "D4",
                    "midi": 62,
                    "time": 155.99990249999956,
                    "velocity": 0.4409448818897638,
                    "duration": 0.13333324999999263
                },
                {
                    "name": "D3",
                    "midi": 50,
                    "time": 155.99990249999956,
                    "velocity": 0.3700787401574803,
                    "duration": 0.13333324999999263
                },
                {
                    "name": "E3",
                    "midi": 52,
                    "time": 156.26656899999955,
                    "velocity": 0.3937007874015748,
                    "duration": 0.13333324999999263
                },
                {
                    "name": "E4",
                    "midi": 64,
                    "time": 156.26656899999955,
                    "velocity": 0.4645669291338583,
                    "duration": 0.13333324999999263
                },
                {
                    "name": "F3",
                    "midi": 53,
                    "time": 156.53323549999953,
                    "velocity": 0.3779527559055118,
                    "duration": 0.13333324999999263
                },
                {
                    "name": "F4",
                    "midi": 65,
                    "time": 156.53323549999953,
                    "velocity": 0.44881889763779526,
                    "duration": 0.13333324999999263
                },
                {
                    "name": "G4",
                    "midi": 67,
                    "time": 156.79990199999952,
                    "velocity": 0.6377952755905512,
                    "duration": 0.13333324999999263
                },
                {
                    "name": "G3",
                    "midi": 55,
                    "time": 156.79990199999952,
                    "velocity": 0.5433070866141733,
                    "duration": 0.13333324999999263
                },
                {
                    "name": "E4",
                    "midi": 64,
                    "time": 157.0665684999995,
                    "velocity": 0.44881889763779526,
                    "duration": 0.13333324999999263
                },
                {
                    "name": "E3",
                    "midi": 52,
                    "time": 157.0665684999995,
                    "velocity": 0.3779527559055118,
                    "duration": 0.13333324999999263
                },
                {
                    "name": "F3",
                    "midi": 53,
                    "time": 157.3332349999995,
                    "velocity": 0.4015748031496063,
                    "duration": 0.13333324999999263
                },
                {
                    "name": "F4",
                    "midi": 65,
                    "time": 157.3332349999995,
                    "velocity": 0.47244094488188976,
                    "duration": 0.13333324999999263
                },
                {
                    "name": "A4",
                    "midi": 69,
                    "time": 157.59990149999948,
                    "velocity": 0.44881889763779526,
                    "duration": 0.13333324999999263
                },
                {
                    "name": "A3",
                    "midi": 57,
                    "time": 157.59990149999948,
                    "velocity": 0.3779527559055118,
                    "duration": 0.13333324999999263
                },
                {
                    "name": "D4",
                    "midi": 62,
                    "time": 157.86656799999946,
                    "velocity": 0.6377952755905512,
                    "duration": 0.13333324999999263
                },
                {
                    "name": "D3",
                    "midi": 50,
                    "time": 157.86656799999946,
                    "velocity": 0.5433070866141733,
                    "duration": 0.13333324999999263
                },
                {
                    "name": "A3",
                    "midi": 57,
                    "time": 158.13323449999945,
                    "velocity": 0.4330708661417323,
                    "duration": 0.13333324999999263
                },
                {
                    "name": "F3",
                    "midi": 53,
                    "time": 158.39990099999943,
                    "velocity": 0.48031496062992124,
                    "duration": 0.13333324999999263
                },
                {
                    "name": "D3",
                    "midi": 50,
                    "time": 158.66656749999942,
                    "velocity": 0.44881889763779526,
                    "duration": 0.13333324999999263
                },
                {
                    "name": "F3",
                    "midi": 53,
                    "time": 158.9332339999994,
                    "velocity": 0.49606299212598426,
                    "duration": 0.14666657499998337
                },
                {
                    "name": "G3",
                    "midi": 55,
                    "time": 159.0665672499994,
                    "velocity": 0.44881889763779526,
                    "duration": 0.14666657499998337
                },
                {
                    "name": "A3",
                    "midi": 57,
                    "time": 159.1999004999994,
                    "velocity": 0.44881889763779526,
                    "duration": 0.14666657499998337
                },
                {
                    "name": "A#3",
                    "midi": 58,
                    "time": 159.33323374999938,
                    "velocity": 0.44881889763779526,
                    "duration": 0.14666657499998337
                },
                {
                    "name": "B3",
                    "midi": 59,
                    "time": 159.46656699999937,
                    "velocity": 0.4881889763779528,
                    "duration": 0.14666657499998337
                },
                {
                    "name": "C4",
                    "midi": 60,
                    "time": 159.59990024999937,
                    "velocity": 0.44881889763779526,
                    "duration": 0.14666657499998337
                },
                {
                    "name": "B3",
                    "midi": 59,
                    "time": 159.73323349999936,
                    "velocity": 0.48031496062992124,
                    "duration": 0.14666657499998337
                },
                {
                    "name": "C4",
                    "midi": 60,
                    "time": 159.86656674999935,
                    "velocity": 0.44881889763779526,
                    "duration": 0.13333324999999263
                },
                {
                    "name": "A#3",
                    "midi": 58,
                    "time": 159.99989999999934,
                    "velocity": 0.49606299212598426,
                    "duration": 0.14666657499998337
                },
                {
                    "name": "C4",
                    "midi": 60,
                    "time": 160.13323324999934,
                    "velocity": 0.44881889763779526,
                    "duration": 0.14666657499998337
                },
                {
                    "name": "D4",
                    "midi": 62,
                    "time": 160.26656649999933,
                    "velocity": 0.44881889763779526,
                    "duration": 0.14666657499998337
                },
                {
                    "name": "D#4",
                    "midi": 63,
                    "time": 160.39989974999932,
                    "velocity": 0.44881889763779526,
                    "duration": 0.14666657499998337
                },
                {
                    "name": "E4",
                    "midi": 64,
                    "time": 160.5332329999993,
                    "velocity": 0.4881889763779528,
                    "duration": 0.14666657499998337
                },
                {
                    "name": "F4",
                    "midi": 65,
                    "time": 160.6665662499993,
                    "velocity": 0.44881889763779526,
                    "duration": 0.14666657499998337
                },
                {
                    "name": "E4",
                    "midi": 64,
                    "time": 160.7998994999993,
                    "velocity": 0.48031496062992124,
                    "duration": 0.14666657499998337
                },
                {
                    "name": "F4",
                    "midi": 65,
                    "time": 160.9332327499993,
                    "velocity": 0.44881889763779526,
                    "duration": 0.13333324999999263
                },
                {
                    "name": "G4",
                    "midi": 67,
                    "time": 161.06656599999928,
                    "velocity": 0.49606299212598426,
                    "duration": 0.14666657499998337
                },
                {
                    "name": "F4",
                    "midi": 65,
                    "time": 161.19989924999928,
                    "velocity": 0.44881889763779526,
                    "duration": 0.14666657499998337
                },
                {
                    "name": "D#4",
                    "midi": 63,
                    "time": 161.33323249999927,
                    "velocity": 0.44881889763779526,
                    "duration": 0.14666657499998337
                },
                {
                    "name": "D4",
                    "midi": 62,
                    "time": 161.46656574999926,
                    "velocity": 0.44881889763779526,
                    "duration": 0.14666657499998337
                },
                {
                    "name": "F4",
                    "midi": 65,
                    "time": 161.59989899999925,
                    "velocity": 0.4881889763779528,
                    "duration": 0.14666657499998337
                },
                {
                    "name": "D#4",
                    "midi": 63,
                    "time": 161.73323224999925,
                    "velocity": 0.44881889763779526,
                    "duration": 0.14666657499998337
                },
                {
                    "name": "D4",
                    "midi": 62,
                    "time": 161.86656549999924,
                    "velocity": 0.48031496062992124,
                    "duration": 0.14666657499998337
                },
                {
                    "name": "C4",
                    "midi": 60,
                    "time": 161.99989874999923,
                    "velocity": 0.44881889763779526,
                    "duration": 0.13333324999999263
                },
                {
                    "name": "F4",
                    "midi": 65,
                    "time": 162.13323199999923,
                    "velocity": 0.49606299212598426,
                    "duration": 0.14666657499998337
                },
                {
                    "name": "D#4",
                    "midi": 63,
                    "time": 162.26656524999922,
                    "velocity": 0.44881889763779526,
                    "duration": 0.14666657499998337
                },
                {
                    "name": "D4",
                    "midi": 62,
                    "time": 162.3998984999992,
                    "velocity": 0.44881889763779526,
                    "duration": 0.14666657499998337
                },
                {
                    "name": "C4",
                    "midi": 60,
                    "time": 162.5332317499992,
                    "velocity": 0.44881889763779526,
                    "duration": 0.14666657499998337
                },
                {
                    "name": "D#4",
                    "midi": 63,
                    "time": 162.6665649999992,
                    "velocity": 0.4881889763779528,
                    "duration": 0.14666657499998337
                },
                {
                    "name": "D4",
                    "midi": 62,
                    "time": 162.7998982499992,
                    "velocity": 0.44881889763779526,
                    "duration": 0.14666657499998337
                },
                {
                    "name": "C4",
                    "midi": 60,
                    "time": 162.93323149999918,
                    "velocity": 0.48031496062992124,
                    "duration": 0.14666657499998337
                },
                {
                    "name": "D4",
                    "midi": 62,
                    "time": 163.06656474999917,
                    "velocity": 0.44881889763779526,
                    "duration": 0.13333324999999263
                },
                {
                    "name": "D#4",
                    "midi": 63,
                    "time": 163.19989799999917,
                    "velocity": 0.49606299212598426,
                    "duration": 0.14666657499998337
                },
                {
                    "name": "D4",
                    "midi": 62,
                    "time": 163.33323124999916,
                    "velocity": 0.44881889763779526,
                    "duration": 0.14666657499998337
                },
                {
                    "name": "C4",
                    "midi": 60,
                    "time": 163.46656449999915,
                    "velocity": 0.44881889763779526,
                    "duration": 0.14666657499998337
                },
                {
                    "name": "A#3",
                    "midi": 58,
                    "time": 163.59989774999914,
                    "velocity": 0.44881889763779526,
                    "duration": 0.14666657499998337
                },
                {
                    "name": "D4",
                    "midi": 62,
                    "time": 163.73323099999914,
                    "velocity": 0.4881889763779528,
                    "duration": 0.14666657499998337
                },
                {
                    "name": "C4",
                    "midi": 60,
                    "time": 163.86656424999913,
                    "velocity": 0.44881889763779526,
                    "duration": 0.14666657499998337
                },
                {
                    "name": "A#3",
                    "midi": 58,
                    "time": 163.99989749999912,
                    "velocity": 0.48031496062992124,
                    "duration": 0.14666657499998337
                },
                {
                    "name": "C4",
                    "midi": 60,
                    "time": 164.13323074999911,
                    "velocity": 0.44881889763779526,
                    "duration": 0.13333324999999263
                },
                {
                    "name": "A#3",
                    "midi": 58,
                    "time": 164.2665639999991,
                    "velocity": 0.6299212598425197,
                    "duration": 0.13333324999999263
                },
                {
                    "name": "A#2",
                    "midi": 46,
                    "time": 164.2665639999991,
                    "velocity": 0.5275590551181102,
                    "duration": 0.13333324999999263
                },
                {
                    "name": "G2",
                    "midi": 43,
                    "time": 164.5332304999991,
                    "velocity": 0.3700787401574803,
                    "duration": 0.13333324999999263
                },
                {
                    "name": "G3",
                    "midi": 55,
                    "time": 164.5332304999991,
                    "velocity": 0.4409448818897638,
                    "duration": 0.13333324999999263
                },
                {
                    "name": "A3",
                    "midi": 57,
                    "time": 164.79989699999908,
                    "velocity": 0.4645669291338583,
                    "duration": 0.13333324999999263
                },
                {
                    "name": "A2",
                    "midi": 45,
                    "time": 164.79989699999908,
                    "velocity": 0.3937007874015748,
                    "duration": 0.13333324999999263
                },
                {
                    "name": "C4",
                    "midi": 60,
                    "time": 165.06656349999906,
                    "velocity": 0.44881889763779526,
                    "duration": 0.13333324999999263
                },
                {
                    "name": "C3",
                    "midi": 48,
                    "time": 165.06656349999906,
                    "velocity": 0.3779527559055118,
                    "duration": 0.13333324999999263
                },
                {
                    "name": "A2",
                    "midi": 45,
                    "time": 165.33322999999905,
                    "velocity": 0.5433070866141733,
                    "duration": 0.13333324999999263
                },
                {
                    "name": "A3",
                    "midi": 57,
                    "time": 165.33322999999905,
                    "velocity": 0.6377952755905512,
                    "duration": 0.13333324999999263
                },
                {
                    "name": "F#3",
                    "midi": 54,
                    "time": 165.59989649999903,
                    "velocity": 0.44881889763779526,
                    "duration": 0.13333324999999263
                },
                {
                    "name": "F#2",
                    "midi": 42,
                    "time": 165.59989649999903,
                    "velocity": 0.3779527559055118,
                    "duration": 0.13333324999999263
                },
                {
                    "name": "G2",
                    "midi": 43,
                    "time": 165.86656299999902,
                    "velocity": 0.4015748031496063,
                    "duration": 0.13333324999999263
                },
                {
                    "name": "G3",
                    "midi": 55,
                    "time": 165.86656299999902,
                    "velocity": 0.47244094488188976,
                    "duration": 0.13333324999999263
                },
                {
                    "name": "A#3",
                    "midi": 58,
                    "time": 166.133229499999,
                    "velocity": 0.44881889763779526,
                    "duration": 0.13333324999999263
                },
                {
                    "name": "A#2",
                    "midi": 46,
                    "time": 166.133229499999,
                    "velocity": 0.3779527559055118,
                    "duration": 0.13333324999999263
                },
                {
                    "name": "G2",
                    "midi": 43,
                    "time": 166.399895999999,
                    "velocity": 0.5275590551181102,
                    "duration": 0.13333324999999263
                },
                {
                    "name": "G3",
                    "midi": 55,
                    "time": 166.399895999999,
                    "velocity": 0.6299212598425197,
                    "duration": 0.13333324999999263
                },
                {
                    "name": "A#2",
                    "midi": 46,
                    "time": 166.66656249999897,
                    "velocity": 0.3700787401574803,
                    "duration": 0.13333324999999263
                },
                {
                    "name": "A#3",
                    "midi": 58,
                    "time": 166.66656249999897,
                    "velocity": 0.4409448818897638,
                    "duration": 0.13333324999999263
                },
                {
                    "name": "F3",
                    "midi": 53,
                    "time": 166.93322899999896,
                    "velocity": 0.5275590551181102,
                    "duration": 0.13333324999999263
                },
                {
                    "name": "F2",
                    "midi": 41,
                    "time": 166.93322899999896,
                    "velocity": 0.44881889763779526,
                    "duration": 0.13333324999999263
                },
                {
                    "name": "A3",
                    "midi": 57,
                    "time": 167.19989549999895,
                    "velocity": 0.44881889763779526,
                    "duration": 0.13333324999999263
                },
                {
                    "name": "A2",
                    "midi": 45,
                    "time": 167.19989549999895,
                    "velocity": 0.3779527559055118,
                    "duration": 0.13333324999999263
                },
                {
                    "name": "E3",
                    "midi": 52,
                    "time": 167.46656199999893,
                    "velocity": 0.6377952755905512,
                    "duration": 0.13333324999999263
                },
                {
                    "name": "E2",
                    "midi": 40,
                    "time": 167.46656199999893,
                    "velocity": 0.5433070866141733,
                    "duration": 0.13333324999999263
                },
                {
                    "name": "G2",
                    "midi": 43,
                    "time": 167.73322849999892,
                    "velocity": 0.3779527559055118,
                    "duration": 0.13333324999999263
                },
                {
                    "name": "G3",
                    "midi": 55,
                    "time": 167.73322849999892,
                    "velocity": 0.44881889763779526,
                    "duration": 0.13333324999999263
                },
                {
                    "name": "D2",
                    "midi": 38,
                    "time": 167.9998949999989,
                    "velocity": 0.4566929133858268,
                    "duration": 0.13333324999999263
                },
                {
                    "name": "D3",
                    "midi": 50,
                    "time": 167.9998949999989,
                    "velocity": 0.5433070866141733,
                    "duration": 0.13333324999999263
                },
                {
                    "name": "F2",
                    "midi": 41,
                    "time": 168.2665614999989,
                    "velocity": 0.3779527559055118,
                    "duration": 0.13333324999999263
                },
                {
                    "name": "F3",
                    "midi": 53,
                    "time": 168.2665614999989,
                    "velocity": 0.44881889763779526,
                    "duration": 0.13333324999999263
                },
                {
                    "name": "D2",
                    "midi": 38,
                    "time": 168.53322799999887,
                    "velocity": 0.5275590551181102,
                    "duration": 0.13333324999999263
                },
                {
                    "name": "D3",
                    "midi": 50,
                    "time": 168.53322799999887,
                    "velocity": 0.6299212598425197,
                    "duration": 0.13333324999999263
                },
                {
                    "name": "F3",
                    "midi": 53,
                    "time": 168.79989449999886,
                    "velocity": 0.4409448818897638,
                    "duration": 0.13333324999999263
                },
                {
                    "name": "F2",
                    "midi": 41,
                    "time": 168.79989449999886,
                    "velocity": 0.3700787401574803,
                    "duration": 0.13333324999999263
                },
                {
                    "name": "B1",
                    "midi": 35,
                    "time": 169.06656099999884,
                    "velocity": 0.44881889763779526,
                    "duration": 0.13333324999999263
                },
                {
                    "name": "B2",
                    "midi": 47,
                    "time": 169.06656099999884,
                    "velocity": 0.5275590551181102,
                    "duration": 0.13333324999999263
                },
                {
                    "name": "D2",
                    "midi": 38,
                    "time": 169.33322749999883,
                    "velocity": 0.3779527559055118,
                    "duration": 0.13333324999999263
                },
                {
                    "name": "D3",
                    "midi": 50,
                    "time": 169.33322749999883,
                    "velocity": 0.44881889763779526,
                    "duration": 0.13333324999999263
                },
                {
                    "name": "G#1",
                    "midi": 32,
                    "time": 169.5998939999988,
                    "velocity": 0.5433070866141733,
                    "duration": 0.13333324999999263
                },
                {
                    "name": "G#2",
                    "midi": 44,
                    "time": 169.5998939999988,
                    "velocity": 0.6377952755905512,
                    "duration": 0.13333324999999263
                },
                {
                    "name": "B1",
                    "midi": 35,
                    "time": 169.8665604999988,
                    "velocity": 0.3779527559055118,
                    "duration": 0.13333324999999263
                },
                {
                    "name": "B2",
                    "midi": 47,
                    "time": 169.8665604999988,
                    "velocity": 0.44881889763779526,
                    "duration": 0.13333324999999263
                },
                {
                    "name": "E2",
                    "midi": 40,
                    "time": 170.13322699999878,
                    "velocity": 0.5433070866141733,
                    "duration": 0.13333324999999263
                },
                {
                    "name": "G#2",
                    "midi": 44,
                    "time": 170.39989349999877,
                    "velocity": 0.44881889763779526,
                    "duration": 0.13333324999999263
                },
                {
                    "name": "E2",
                    "midi": 40,
                    "time": 170.66655999999875,
                    "velocity": 0.6299212598425197,
                    "duration": 0.13333324999999263
                },
                {
                    "name": "G#2",
                    "midi": 44,
                    "time": 170.93322649999874,
                    "velocity": 0.4409448818897638,
                    "duration": 0.13333324999999263
                },
                {
                    "name": "E2",
                    "midi": 40,
                    "time": 171.19989299999872,
                    "velocity": 0.5275590551181102,
                    "duration": 0.13333324999999263
                },
                {
                    "name": "G#2",
                    "midi": 44,
                    "time": 171.4665594999987,
                    "velocity": 0.44881889763779526,
                    "duration": 0.13333324999999263
                },
                {
                    "name": "E2",
                    "midi": 40,
                    "time": 171.7332259999987,
                    "velocity": 0.6377952755905512,
                    "duration": 0.13333324999999263
                },
                {
                    "name": "G#2",
                    "midi": 44,
                    "time": 171.99989249999868,
                    "velocity": 0.44881889763779526,
                    "duration": 0.13333324999999263
                },
                {
                    "name": "E2",
                    "midi": 40,
                    "time": 172.26655899999867,
                    "velocity": 0.5433070866141733,
                    "duration": 0.13333324999999263
                },
                {
                    "name": "G#2",
                    "midi": 44,
                    "time": 172.53322549999865,
                    "velocity": 0.44881889763779526,
                    "duration": 0.13333324999999263
                },
                {
                    "name": "E2",
                    "midi": 40,
                    "time": 172.79989199999864,
                    "velocity": 0.47244094488188976,
                    "duration": 0.13333324999999263
                },
                {
                    "name": "F#2",
                    "midi": 42,
                    "time": 172.93322524999863,
                    "velocity": 0.4094488188976378,
                    "duration": 0.13333324999999263
                },
                {
                    "name": "G#2",
                    "midi": 44,
                    "time": 173.06655849999862,
                    "velocity": 0.4094488188976378,
                    "duration": 0.13333324999999263
                },
                {
                    "name": "A2",
                    "midi": 45,
                    "time": 173.1998917499986,
                    "velocity": 0.4094488188976378,
                    "duration": 0.13333324999999263
                },
                {
                    "name": "A#2",
                    "midi": 46,
                    "time": 173.3332249999986,
                    "velocity": 0.47244094488188976,
                    "duration": 0.13333324999999263
                },
                {
                    "name": "B2",
                    "midi": 47,
                    "time": 173.4665582499986,
                    "velocity": 0.4015748031496063,
                    "duration": 0.13333324999999263
                },
                {
                    "name": "A#2",
                    "midi": 46,
                    "time": 173.5998914999986,
                    "velocity": 0.4566929133858268,
                    "duration": 0.13333324999999263
                },
                {
                    "name": "B2",
                    "midi": 47,
                    "time": 173.73322474999858,
                    "velocity": 0.4015748031496063,
                    "duration": 0.13333324999999263
                },
                {
                    "name": "E2",
                    "midi": 40,
                    "time": 173.86655799999858,
                    "velocity": 0.47244094488188976,
                    "duration": 0.13333324999999263
                },
                {
                    "name": "F#2",
                    "midi": 42,
                    "time": 173.99989124999857,
                    "velocity": 0.4094488188976378,
                    "duration": 0.13333324999999263
                },
                {
                    "name": "G#2",
                    "midi": 44,
                    "time": 174.13322449999856,
                    "velocity": 0.4094488188976378,
                    "duration": 0.13333324999999263
                },
                {
                    "name": "A2",
                    "midi": 45,
                    "time": 174.26655774999855,
                    "velocity": 0.4094488188976378,
                    "duration": 0.13333324999999263
                },
                {
                    "name": "A#2",
                    "midi": 46,
                    "time": 174.39989099999855,
                    "velocity": 0.47244094488188976,
                    "duration": 0.13333324999999263
                },
                {
                    "name": "B2",
                    "midi": 47,
                    "time": 174.53322424999854,
                    "velocity": 0.4015748031496063,
                    "duration": 0.13333324999999263
                },
                {
                    "name": "A#2",
                    "midi": 46,
                    "time": 174.66655749999853,
                    "velocity": 0.4566929133858268,
                    "duration": 0.13333324999999263
                },
                {
                    "name": "B2",
                    "midi": 47,
                    "time": 174.79989074999853,
                    "velocity": 0.4015748031496063,
                    "duration": 0.13333324999999263
                },
                {
                    "name": "E2",
                    "midi": 40,
                    "time": 174.93322399999852,
                    "velocity": 0.4015748031496063,
                    "duration": 0.13333324999999263
                },
                {
                    "name": "F#2",
                    "midi": 42,
                    "time": 175.0665572499985,
                    "velocity": 0.3464566929133858,
                    "duration": 0.13333324999999263
                },
                {
                    "name": "G#2",
                    "midi": 44,
                    "time": 175.1998904999985,
                    "velocity": 0.3464566929133858,
                    "duration": 0.13333324999999263
                },
                {
                    "name": "A2",
                    "midi": 45,
                    "time": 175.3332237499985,
                    "velocity": 0.3464566929133858,
                    "duration": 0.13333324999999263
                },
                {
                    "name": "A#2",
                    "midi": 46,
                    "time": 175.4665569999985,
                    "velocity": 0.4015748031496063,
                    "duration": 0.13333324999999263
                },
                {
                    "name": "B2",
                    "midi": 47,
                    "time": 175.59989024999848,
                    "velocity": 0.33858267716535434,
                    "duration": 0.13333324999999263
                },
                {
                    "name": "A#2",
                    "midi": 46,
                    "time": 175.73322349999847,
                    "velocity": 0.3858267716535433,
                    "duration": 0.13333324999999263
                },
                {
                    "name": "B2",
                    "midi": 47,
                    "time": 175.86655674999847,
                    "velocity": 0.33858267716535434,
                    "duration": 0.13333324999999263
                },
                {
                    "name": "E2",
                    "midi": 40,
                    "time": 175.99988999999846,
                    "velocity": 0.4015748031496063,
                    "duration": 0.13333324999999263
                },
                {
                    "name": "F#2",
                    "midi": 42,
                    "time": 176.13322324999845,
                    "velocity": 0.3464566929133858,
                    "duration": 0.13333324999999263
                },
                {
                    "name": "G#2",
                    "midi": 44,
                    "time": 176.26655649999844,
                    "velocity": 0.3464566929133858,
                    "duration": 0.13333324999999263
                },
                {
                    "name": "A2",
                    "midi": 45,
                    "time": 176.39988974999844,
                    "velocity": 0.3464566929133858,
                    "duration": 0.13333324999999263
                },
                {
                    "name": "A#2",
                    "midi": 46,
                    "time": 176.53322299999843,
                    "velocity": 0.4015748031496063,
                    "duration": 0.13333324999999263
                },
                {
                    "name": "B2",
                    "midi": 47,
                    "time": 176.66655624999842,
                    "velocity": 0.33858267716535434,
                    "duration": 0.13333324999999263
                },
                {
                    "name": "A#2",
                    "midi": 46,
                    "time": 176.79988949999841,
                    "velocity": 0.3858267716535433,
                    "duration": 0.13333324999999263
                },
                {
                    "name": "B2",
                    "midi": 47,
                    "time": 176.9332227499984,
                    "velocity": 0.33858267716535434,
                    "duration": 0.13333324999999263
                },
                {
                    "name": "A#2",
                    "midi": 46,
                    "time": 177.0665559999984,
                    "velocity": 0.4094488188976378,
                    "duration": 0.13333324999999263
                },
                {
                    "name": "B2",
                    "midi": 47,
                    "time": 177.1998892499984,
                    "velocity": 0.33858267716535434,
                    "duration": 0.13333324999999263
                },
                {
                    "name": "C#3",
                    "midi": 49,
                    "time": 177.33322249999839,
                    "velocity": 0.36220472440944884,
                    "duration": 0.13333324999999263
                },
                {
                    "name": "D3",
                    "midi": 50,
                    "time": 177.46655574999838,
                    "velocity": 0.33858267716535434,
                    "duration": 0.13333324999999263
                },
                {
                    "name": "D#3",
                    "midi": 51,
                    "time": 177.59988899999837,
                    "velocity": 0.4015748031496063,
                    "duration": 0.13333324999999263
                },
                {
                    "name": "E3",
                    "midi": 52,
                    "time": 177.73322224999836,
                    "velocity": 0.3464566929133858,
                    "duration": 0.13333324999999263
                },
                {
                    "name": "F#3",
                    "midi": 54,
                    "time": 177.86655549999836,
                    "velocity": 0.3464566929133858,
                    "duration": 0.13333324999999263
                },
                {
                    "name": "G#3",
                    "midi": 56,
                    "time": 177.99988874999835,
                    "velocity": 0.3543307086614173,
                    "duration": 0.13333324999999263
                },
                {
                    "name": "A3",
                    "midi": 57,
                    "time": 178.13322199999834,
                    "velocity": 0.33070866141732286,
                    "duration": 0.13333324999999263
                },
                {
                    "name": "B3",
                    "midi": 59,
                    "time": 178.26655524999833,
                    "velocity": 0.2992125984251969,
                    "duration": 0.13333324999999263
                },
                {
                    "name": "C#4",
                    "midi": 61,
                    "time": 178.39988849999833,
                    "velocity": 0.33070866141732286,
                    "duration": 0.13333324999999263
                },
                {
                    "name": "D4",
                    "midi": 62,
                    "time": 178.53322174999832,
                    "velocity": 0.30708661417322836,
                    "duration": 0.13333324999999263
                },
                {
                    "name": "D#4",
                    "midi": 63,
                    "time": 178.6665549999983,
                    "velocity": 0.33070866141732286,
                    "duration": 0.13333324999999263
                },
                {
                    "name": "E4",
                    "midi": 64,
                    "time": 178.7998882499983,
                    "velocity": 0.2992125984251969,
                    "duration": 0.13333324999999263
                },
                {
                    "name": "D#4",
                    "midi": 63,
                    "time": 178.9332214999983,
                    "velocity": 0.31496062992125984,
                    "duration": 0.13333324999999263
                },
                {
                    "name": "E4",
                    "midi": 64,
                    "time": 179.0665547499983,
                    "velocity": 0.33070866141732286,
                    "duration": 0.13333324999999263
                },
                {
                    "name": "F#4",
                    "midi": 66,
                    "time": 179.19988799999828,
                    "velocity": 0.3858267716535433,
                    "duration": 0.533332999999999
                },
                {
                    "name": "D4",
                    "midi": 62,
                    "time": 179.19988799999828,
                    "velocity": 0.3228346456692913,
                    "duration": 0.533332999999999
                },
                {
                    "name": "A3",
                    "midi": 57,
                    "time": 179.19988799999828,
                    "velocity": 0.3228346456692913,
                    "duration": 0.7999995000000126
                },
                {
                    "name": "E4",
                    "midi": 64,
                    "time": 179.73322099999828,
                    "velocity": 0.30708661417322836,
                    "duration": 0.2666665000000137
                },
                {
                    "name": "C#4",
                    "midi": 61,
                    "time": 179.73322099999828,
                    "velocity": 0.25984251968503935,
                    "duration": 0.2666665000000137
                },
                {
                    "name": "C#4",
                    "midi": 61,
                    "time": 180.2665539999983,
                    "velocity": 0.4015748031496063,
                    "duration": 0.17777766666665684
                },
                {
                    "name": "E4",
                    "midi": 64,
                    "time": 180.44433166666497,
                    "velocity": 0.3543307086614173,
                    "duration": 0.17777766666665684
                },
                {
                    "name": "D4",
                    "midi": 62,
                    "time": 180.62210933333162,
                    "velocity": 0.3543307086614173,
                    "duration": 0.17777766666665684
                },
                {
                    "name": "C#4",
                    "midi": 61,
                    "time": 180.79988699999828,
                    "velocity": 0.4251968503937008,
                    "duration": 0.17777766666665684
                },
                {
                    "name": "E4",
                    "midi": 64,
                    "time": 180.97766466666494,
                    "velocity": 0.33858267716535434,
                    "duration": 0.17777766666665684
                },
                {
                    "name": "A4",
                    "midi": 69,
                    "time": 181.1554423333316,
                    "velocity": 0.33858267716535434,
                    "duration": 0.17777766666665684
                },
                {
                    "name": "B4",
                    "midi": 71,
                    "time": 181.33321999999825,
                    "velocity": 0.44881889763779526,
                    "duration": 0.5255552270833448
                },
                {
                    "name": "E4",
                    "midi": 64,
                    "time": 181.86655299999825,
                    "velocity": 0.3937007874015748,
                    "duration": 0.2666665000000137
                },
                {
                    "name": "D5",
                    "midi": 74,
                    "time": 182.40099711041492,
                    "velocity": 0.4015748031496063,
                    "duration": 0.13333324999999263
                },
                {
                    "name": "B4",
                    "midi": 71,
                    "time": 182.6676636104149,
                    "velocity": 0.3700787401574803,
                    "duration": 0.13333324999999263
                },
                {
                    "name": "G#4",
                    "midi": 68,
                    "time": 182.9343301104149,
                    "velocity": 0.3700787401574803,
                    "duration": 0.13333324999999263
                },
                {
                    "name": "E4",
                    "midi": 64,
                    "time": 183.20099661041488,
                    "velocity": 0.3700787401574803,
                    "duration": 0.13333324999999263
                },
                {
                    "name": "C#5",
                    "midi": 73,
                    "time": 183.46766311041486,
                    "velocity": 0.4015748031496063,
                    "duration": 0.13333324999999263
                },
                {
                    "name": "A4",
                    "midi": 69,
                    "time": 183.73432961041485,
                    "velocity": 0.3700787401574803,
                    "duration": 0.13333324999999263
                },
                {
                    "name": "E4",
                    "midi": 64,
                    "time": 184.00099611041483,
                    "velocity": 0.3700787401574803,
                    "duration": 0.13333324999999263
                },
                {
                    "name": "C#4",
                    "midi": 61,
                    "time": 184.26766261041482,
                    "velocity": 0.3700787401574803,
                    "duration": 0.13333324999999263
                },
                {
                    "name": "D4",
                    "midi": 62,
                    "time": 184.5343291104148,
                    "velocity": 0.4015748031496063,
                    "duration": 0.13333324999999263
                },
                {
                    "name": "E4",
                    "midi": 64,
                    "time": 184.6676623604148,
                    "velocity": 0.30708661417322836,
                    "duration": 0.13333324999999263
                },
                {
                    "name": "D4",
                    "midi": 62,
                    "time": 184.8009956104148,
                    "velocity": 0.36220472440944884,
                    "duration": 0.13333324999999263
                },
                {
                    "name": "E4",
                    "midi": 64,
                    "time": 184.93432886041478,
                    "velocity": 0.2992125984251969,
                    "duration": 0.13333324999999263
                },
                {
                    "name": "G#4",
                    "midi": 68,
                    "time": 185.06766211041477,
                    "velocity": 0.4015748031496063,
                    "duration": 0.13333324999999263
                },
                {
                    "name": "B4",
                    "midi": 71,
                    "time": 185.20099536041477,
                    "velocity": 0.2992125984251969,
                    "duration": 0.13333324999999263
                },
                {
                    "name": "G#4",
                    "midi": 68,
                    "time": 185.33432861041476,
                    "velocity": 0.3543307086614173,
                    "duration": 0.13333324999999263
                },
                {
                    "name": "B4",
                    "midi": 71,
                    "time": 185.46766186041475,
                    "velocity": 0.30708661417322836,
                    "duration": 0.13333324999999263
                },
                {
                    "name": "C#4",
                    "midi": 61,
                    "time": 185.60099511041474,
                    "velocity": 0.4015748031496063,
                    "duration": 0.13333324999999263
                },
                {
                    "name": "E4",
                    "midi": 64,
                    "time": 185.73432836041474,
                    "velocity": 0.33070866141732286,
                    "duration": 0.13333324999999263
                },
                {
                    "name": "C#4",
                    "midi": 61,
                    "time": 185.86766161041473,
                    "velocity": 0.36220472440944884,
                    "duration": 0.13333324999999263
                },
                {
                    "name": "E4",
                    "midi": 64,
                    "time": 186.00099486041472,
                    "velocity": 0.33070866141732286,
                    "duration": 0.13333324999999263
                },
                {
                    "name": "A4",
                    "midi": 69,
                    "time": 186.1343281104147,
                    "velocity": 0.4015748031496063,
                    "duration": 0.13333324999999263
                },
                {
                    "name": "C#5",
                    "midi": 73,
                    "time": 186.2676613604147,
                    "velocity": 0.3228346456692913,
                    "duration": 0.13333324999999263
                },
                {
                    "name": "A4",
                    "midi": 69,
                    "time": 186.4009946104147,
                    "velocity": 0.3543307086614173,
                    "duration": 0.13333324999999263
                },
                {
                    "name": "C#5",
                    "midi": 73,
                    "time": 186.5343278604147,
                    "velocity": 0.3228346456692913,
                    "duration": 0.13333324999999263
                },
                {
                    "name": "E4",
                    "midi": 64,
                    "time": 186.66766111041468,
                    "velocity": 0.5433070866141733,
                    "duration": 0.13333324999999263
                },
                {
                    "name": "F#4",
                    "midi": 66,
                    "time": 186.80099436041468,
                    "velocity": 0.4566929133858268,
                    "duration": 0.13333324999999263
                },
                {
                    "name": "G#4",
                    "midi": 68,
                    "time": 186.93432761041467,
                    "velocity": 0.5039370078740157,
                    "duration": 0.13333324999999263
                },
                {
                    "name": "A4",
                    "midi": 69,
                    "time": 187.06766086041466,
                    "velocity": 0.4645669291338583,
                    "duration": 0.13333324999999263
                },
                {
                    "name": "A#4",
                    "midi": 70,
                    "time": 187.20099411041465,
                    "velocity": 0.5433070866141733,
                    "duration": 0.13333324999999263
                },
                {
                    "name": "B4",
                    "midi": 71,
                    "time": 187.33432736041465,
                    "velocity": 0.4409448818897638,
                    "duration": 0.13333324999999263
                },
                {
                    "name": "A#4",
                    "midi": 70,
                    "time": 187.46766061041464,
                    "velocity": 0.5118110236220472,
                    "duration": 0.13333324999999263
                },
                {
                    "name": "B4",
                    "midi": 71,
                    "time": 187.60099386041463,
                    "velocity": 0.4645669291338583,
                    "duration": 0.13333324999999263
                },
                {
                    "name": "A4",
                    "midi": 69,
                    "time": 187.73432711041463,
                    "velocity": 0.5433070866141733,
                    "duration": 0.13333324999999263
                },
                {
                    "name": "B4",
                    "midi": 71,
                    "time": 187.86766036041462,
                    "velocity": 0.4566929133858268,
                    "duration": 0.13333324999999263
                },
                {
                    "name": "C#5",
                    "midi": 73,
                    "time": 188.0009936104146,
                    "velocity": 0.5039370078740157,
                    "duration": 0.13333324999999263
                },
                {
                    "name": "D5",
                    "midi": 74,
                    "time": 188.1343268604146,
                    "velocity": 0.4645669291338583,
                    "duration": 0.13333324999999263
                },
                {
                    "name": "D#5",
                    "midi": 75,
                    "time": 188.26654899999792,
                    "velocity": 0.5511811023622047,
                    "duration": 0.13333324999999263
                },
                {
                    "name": "E5",
                    "midi": 76,
                    "time": 188.4009933604146,
                    "velocity": 0.44881889763779526,
                    "duration": 0.13333324999999263
                },
                {
                    "name": "D#5",
                    "midi": 75,
                    "time": 188.5332154999979,
                    "velocity": 0.4881889763779528,
                    "duration": 0.13333324999999263
                },
                {
                    "name": "E5",
                    "midi": 76,
                    "time": 188.66765986041457,
                    "velocity": 0.3858267716535433,
                    "duration": 0.13333324999999263
                },
                {
                    "name": "D4",
                    "midi": 62,
                    "time": 188.80099311041457,
                    "velocity": 0.4566929133858268,
                    "duration": 0.13333324999999263
                },
                {
                    "name": "B4",
                    "midi": 71,
                    "time": 188.93432636041456,
                    "velocity": 0.29133858267716534,
                    "duration": 0.13333324999999263
                },
                {
                    "name": "D4",
                    "midi": 62,
                    "time": 189.06765961041455,
                    "velocity": 0.36220472440944884,
                    "duration": 0.13333324999999263
                },
                {
                    "name": "B4",
                    "midi": 71,
                    "time": 189.20099286041454,
                    "velocity": 0.2992125984251969,
                    "duration": 0.13333324999999263
                },
                {
                    "name": "E4",
                    "midi": 64,
                    "time": 189.33432611041454,
                    "velocity": 0.4015748031496063,
                    "duration": 0.13333324999999263
                },
                {
                    "name": "D5",
                    "midi": 74,
                    "time": 189.46654824999786,
                    "velocity": 0.2992125984251969,
                    "duration": 0.13333324999999263
                },
                {
                    "name": "E4",
                    "midi": 64,
                    "time": 189.60099261041452,
                    "velocity": 0.3543307086614173,
                    "duration": 0.13333324999999263
                },
                {
                    "name": "D5",
                    "midi": 74,
                    "time": 189.73321474999784,
                    "velocity": 0.3228346456692913,
                    "duration": 0.13333324999999263
                },
                {
                    "name": "A4",
                    "midi": 69,
                    "time": 189.8676591104145,
                    "velocity": 0.4015748031496063,
                    "duration": 0.13333324999999263
                },
                {
                    "name": "C#5",
                    "midi": 73,
                    "time": 190.0009923604145,
                    "velocity": 0.33070866141732286,
                    "duration": 0.13333324999999263
                },
                {
                    "name": "A4",
                    "midi": 69,
                    "time": 190.1343256104145,
                    "velocity": 0.36220472440944884,
                    "duration": 0.13333324999999263
                },
                {
                    "name": "C#5",
                    "midi": 73,
                    "time": 190.26765886041449,
                    "velocity": 0.33070866141732286,
                    "duration": 0.13333324999999263
                },
                {
                    "name": "A3",
                    "midi": 57,
                    "time": 190.40099211041448,
                    "velocity": 0.4015748031496063,
                    "duration": 0.13333324999999263
                },
                {
                    "name": "C#4",
                    "midi": 61,
                    "time": 190.6665474999978,
                    "velocity": 0.3543307086614173,
                    "duration": 0.13333324999999263
                },
                {
                    "name": "D4",
                    "midi": 62,
                    "time": 190.93432511041445,
                    "velocity": 0.4566929133858268,
                    "duration": 0.13333324999999263
                },
                {
                    "name": "B4",
                    "midi": 71,
                    "time": 191.06765836041444,
                    "velocity": 0.31496062992125984,
                    "duration": 0.13333324999999263
                },
                {
                    "name": "D4",
                    "midi": 62,
                    "time": 191.20099161041443,
                    "velocity": 0.36220472440944884,
                    "duration": 0.13333324999999263
                },
                {
                    "name": "B4",
                    "midi": 71,
                    "time": 191.33432486041443,
                    "velocity": 0.2992125984251969,
                    "duration": 0.13333324999999263
                },
                {
                    "name": "E4",
                    "midi": 64,
                    "time": 191.46765811041442,
                    "velocity": 0.4015748031496063,
                    "duration": 0.13333324999999263
                },
                {
                    "name": "D5",
                    "midi": 74,
                    "time": 191.59988024999774,
                    "velocity": 0.3228346456692913,
                    "duration": 0.13333324999999263
                },
                {
                    "name": "E4",
                    "midi": 64,
                    "time": 191.7343246104144,
                    "velocity": 0.3543307086614173,
                    "duration": 0.13333324999999263
                },
                {
                    "name": "D5",
                    "midi": 74,
                    "time": 191.86654674999772,
                    "velocity": 0.3228346456692913,
                    "duration": 0.13333324999999263
                },
                {
                    "name": "A4",
                    "midi": 69,
                    "time": 192.0009911104144,
                    "velocity": 0.33858267716535434,
                    "duration": 0.13333324999999263
                },
                {
                    "name": "C#5",
                    "midi": 73,
                    "time": 192.13432436041438,
                    "velocity": 0.2755905511811024,
                    "duration": 0.13333324999999263
                },
                {
                    "name": "A4",
                    "midi": 69,
                    "time": 192.26765761041437,
                    "velocity": 0.30708661417322836,
                    "duration": 0.13333324999999263
                },
                {
                    "name": "C#5",
                    "midi": 73,
                    "time": 192.40099086041437,
                    "velocity": 0.2755905511811024,
                    "duration": 0.13333324999999263
                },
                {
                    "name": "C#4",
                    "midi": 61,
                    "time": 192.5332129999977,
                    "velocity": 0.31496062992125984,
                    "duration": 0.13333324999999263
                },
                {
                    "name": "A3",
                    "midi": 57,
                    "time": 192.53432411041436,
                    "velocity": 0.2677165354330709,
                    "duration": 0.13333324999999263
                },
                {
                    "name": "E4",
                    "midi": 64,
                    "time": 192.79987949999767,
                    "velocity": 0.28346456692913385,
                    "duration": 0.13333324999999263
                },
                {
                    "name": "C#4",
                    "midi": 61,
                    "time": 192.79987949999767,
                    "velocity": 0.23622047244094488,
                    "duration": 0.13333324999999263
                },
                {
                    "name": "D4",
                    "midi": 62,
                    "time": 193.06765711041433,
                    "velocity": 0.4566929133858268,
                    "duration": 0.13333324999999263
                },
                {
                    "name": "B4",
                    "midi": 71,
                    "time": 193.20099036041432,
                    "velocity": 0.2992125984251969,
                    "duration": 0.13333324999999263
                },
                {
                    "name": "D4",
                    "midi": 62,
                    "time": 193.33432361041432,
                    "velocity": 0.36220472440944884,
                    "duration": 0.13333324999999263
                },
                {
                    "name": "B4",
                    "midi": 71,
                    "time": 193.4676568604143,
                    "velocity": 0.2992125984251969,
                    "duration": 0.13333324999999263
                },
                {
                    "name": "E4",
                    "midi": 64,
                    "time": 193.6009901104143,
                    "velocity": 0.4015748031496063,
                    "duration": 0.13333324999999263
                },
                {
                    "name": "D5",
                    "midi": 74,
                    "time": 193.73321224999762,
                    "velocity": 0.3228346456692913,
                    "duration": 0.13333324999999263
                },
                {
                    "name": "E4",
                    "midi": 64,
                    "time": 193.8676566104143,
                    "velocity": 0.3543307086614173,
                    "duration": 0.13333324999999263
                },
                {
                    "name": "D5",
                    "midi": 74,
                    "time": 193.9998787499976,
                    "velocity": 0.3228346456692913,
                    "duration": 0.13333324999999263
                },
                {
                    "name": "A4",
                    "midi": 69,
                    "time": 194.13432311041427,
                    "velocity": 0.3543307086614173,
                    "duration": 0.13333324999999263
                },
                {
                    "name": "C#5",
                    "midi": 73,
                    "time": 194.26765636041426,
                    "velocity": 0.29133858267716534,
                    "duration": 0.13333324999999263
                },
                {
                    "name": "A4",
                    "midi": 69,
                    "time": 194.40098961041426,
                    "velocity": 0.3228346456692913,
                    "duration": 0.13333324999999263
                },
                {
                    "name": "C#5",
                    "midi": 73,
                    "time": 194.53432286041425,
                    "velocity": 0.29133858267716534,
                    "duration": 0.13333324999999263
                },
                {
                    "name": "A3",
                    "midi": 57,
                    "time": 194.66765611041424,
                    "velocity": 0.3543307086614173,
                    "duration": 0.13333324999999263
                },
                {
                    "name": "A4",
                    "midi": 69,
                    "time": 194.93432261041423,
                    "velocity": 0.3543307086614173,
                    "duration": 0.13222213958331963
                },
                {
                    "name": "A3",
                    "midi": 57,
                    "time": 195.19987799999754,
                    "velocity": 0.5905511811023622,
                    "duration": 0.13333324999999263
                },
                {
                    "name": "B3",
                    "midi": 59,
                    "time": 195.33321124999753,
                    "velocity": 0.4566929133858268,
                    "duration": 0.13333324999999263
                },
                {
                    "name": "C#4",
                    "midi": 61,
                    "time": 195.46654449999753,
                    "velocity": 0.5039370078740157,
                    "duration": 0.13333324999999263
                },
                {
                    "name": "D4",
                    "midi": 62,
                    "time": 195.59987774999752,
                    "velocity": 0.4645669291338583,
                    "duration": 0.13333324999999263
                },
                {
                    "name": "D#4",
                    "midi": 63,
                    "time": 195.7332109999975,
                    "velocity": 0.5511811023622047,
                    "duration": 0.13333324999999263
                },
                {
                    "name": "E4",
                    "midi": 64,
                    "time": 195.8665442499975,
                    "velocity": 0.48031496062992124,
                    "duration": 0.13333324999999263
                },
                {
                    "name": "D#4",
                    "midi": 63,
                    "time": 195.9998774999975,
                    "velocity": 0.5354330708661418,
                    "duration": 0.13333324999999263
                },
                {
                    "name": "E4",
                    "midi": 64,
                    "time": 196.1332107499975,
                    "velocity": 0.4645669291338583,
                    "duration": 0.13333324999999263
                },
                {
                    "name": "A2",
                    "midi": 45,
                    "time": 196.26654399999748,
                    "velocity": 0.5905511811023622,
                    "duration": 0.13333324999999263
                },
                {
                    "name": "B2",
                    "midi": 47,
                    "time": 196.39987724999747,
                    "velocity": 0.4566929133858268,
                    "duration": 0.13333324999999263
                },
                {
                    "name": "C#3",
                    "midi": 49,
                    "time": 196.53321049999747,
                    "velocity": 0.5039370078740157,
                    "duration": 0.13333324999999263
                },
                {
                    "name": "D3",
                    "midi": 50,
                    "time": 196.66654374999746,
                    "velocity": 0.4645669291338583,
                    "duration": 0.13333324999999263
                },
                {
                    "name": "D#3",
                    "midi": 51,
                    "time": 196.79987699999745,
                    "velocity": 0.5511811023622047,
                    "duration": 0.13333324999999263
                },
                {
                    "name": "E3",
                    "midi": 52,
                    "time": 196.93321024999744,
                    "velocity": 0.48031496062992124,
                    "duration": 0.13333324999999263
                },
                {
                    "name": "D#3",
                    "midi": 51,
                    "time": 197.06654349999744,
                    "velocity": 0.5354330708661418,
                    "duration": 0.13333324999999263
                },
                {
                    "name": "E3",
                    "midi": 52,
                    "time": 197.19987674999743,
                    "velocity": 0.4645669291338583,
                    "duration": 0.13333324999999263
                },
                {
                    "name": "D#3",
                    "midi": 51,
                    "time": 197.33320999999742,
                    "velocity": 0.5905511811023622,
                    "duration": 0.13333324999999263
                },
                {
                    "name": "E3",
                    "midi": 52,
                    "time": 197.46654324999741,
                    "velocity": 0.4881889763779528,
                    "duration": 0.13333324999999263
                },
                {
                    "name": "F#3",
                    "midi": 54,
                    "time": 197.5998764999974,
                    "velocity": 0.5196850393700787,
                    "duration": 0.13333324999999263
                },
                {
                    "name": "G#3",
                    "midi": 56,
                    "time": 197.7332097499974,
                    "velocity": 0.4881889763779528,
                    "duration": 0.13333324999999263
                },
                {
                    "name": "A3",
                    "midi": 57,
                    "time": 197.8665429999974,
                    "velocity": 0.5826771653543307,
                    "duration": 0.13333324999999263
                },
                {
                    "name": "B3",
                    "midi": 59,
                    "time": 197.99987624999739,
                    "velocity": 0.49606299212598426,
                    "duration": 0.13333324999999263
                },
                {
                    "name": "C#4",
                    "midi": 61,
                    "time": 198.13320949999738,
                    "velocity": 0.5039370078740157,
                    "duration": 0.13333324999999263
                },
                {
                    "name": "D4",
                    "midi": 62,
                    "time": 198.26654274999737,
                    "velocity": 0.5118110236220472,
                    "duration": 0.13333324999999263
                },
                {
                    "name": "D#4",
                    "midi": 63,
                    "time": 198.39987599999736,
                    "velocity": 0.5118110236220472,
                    "duration": 0.13333324999999263
                },
                {
                    "name": "E4",
                    "midi": 64,
                    "time": 198.53320924999736,
                    "velocity": 0.47244094488188976,
                    "duration": 0.13333324999999263
                },
                {
                    "name": "D4",
                    "midi": 62,
                    "time": 204.79987199999735,
                    "velocity": 0.23622047244094488,
                    "duration": 0.2666665000000137
                },
                {
                    "name": "F#4",
                    "midi": 66,
                    "time": 204.79987199999735,
                    "velocity": 0.28346456692913385,
                    "duration": 0.2666665000000137
                },
                {
                    "name": "A3",
                    "midi": 57,
                    "time": 205.33320499999738,
                    "velocity": 0.2047244094488189,
                    "duration": 0.2666665000000137
                },
                {
                    "name": "F#4",
                    "midi": 66,
                    "time": 205.33320499999738,
                    "velocity": 0.2440944881889764,
                    "duration": 0.2666665000000137
                },
                {
                    "name": "G4",
                    "midi": 67,
                    "time": 205.8665379999974,
                    "velocity": 0.28346456692913385,
                    "duration": 0.2666665000000137
                },
                {
                    "name": "E4",
                    "midi": 64,
                    "time": 205.8665379999974,
                    "velocity": 0.23622047244094488,
                    "duration": 0.2666665000000137
                },
                {
                    "name": "A3",
                    "midi": 57,
                    "time": 206.39987099999743,
                    "velocity": 0.2047244094488189,
                    "duration": 0.2666665000000137
                },
                {
                    "name": "G4",
                    "midi": 67,
                    "time": 206.39987099999743,
                    "velocity": 0.2440944881889764,
                    "duration": 0.2666665000000137
                },
                {
                    "name": "D4",
                    "midi": 62,
                    "time": 206.93320399999746,
                    "velocity": 0.23622047244094488,
                    "duration": 0.2666665000000137
                },
                {
                    "name": "F#4",
                    "midi": 66,
                    "time": 206.93320399999746,
                    "velocity": 0.28346456692913385,
                    "duration": 0.2666665000000137
                },
                {
                    "name": "A3",
                    "midi": 57,
                    "time": 207.4665369999975,
                    "velocity": 0.1968503937007874,
                    "duration": 0.2666665000000137
                },
                {
                    "name": "F#4",
                    "midi": 66,
                    "time": 207.4665369999975,
                    "velocity": 0.23622047244094488,
                    "duration": 0.2666665000000137
                },
                {
                    "name": "C#4",
                    "midi": 61,
                    "time": 207.99986999999751,
                    "velocity": 0.23622047244094488,
                    "duration": 0.2666665000000137
                },
                {
                    "name": "G4",
                    "midi": 67,
                    "time": 207.99986999999751,
                    "velocity": 0.28346456692913385,
                    "duration": 0.2666665000000137
                },
                {
                    "name": "G4",
                    "midi": 67,
                    "time": 208.53320299999754,
                    "velocity": 0.25196850393700787,
                    "duration": 0.2666665000000137
                },
                {
                    "name": "A3",
                    "midi": 57,
                    "time": 208.53320299999754,
                    "velocity": 0.2125984251968504,
                    "duration": 0.2666665000000137
                },
                {
                    "name": "D4",
                    "midi": 62,
                    "time": 209.06653599999757,
                    "velocity": 0.23622047244094488,
                    "duration": 0.2666665000000137
                },
                {
                    "name": "F#4",
                    "midi": 66,
                    "time": 209.06653599999757,
                    "velocity": 0.28346456692913385,
                    "duration": 0.2666665000000137
                },
                {
                    "name": "A3",
                    "midi": 57,
                    "time": 209.5998689999976,
                    "velocity": 0.2047244094488189,
                    "duration": 0.2666665000000137
                },
                {
                    "name": "F#4",
                    "midi": 66,
                    "time": 209.5998689999976,
                    "velocity": 0.2440944881889764,
                    "duration": 0.2666665000000137
                },
                {
                    "name": "G4",
                    "midi": 67,
                    "time": 210.13320199999762,
                    "velocity": 0.28346456692913385,
                    "duration": 0.2666665000000137
                },
                {
                    "name": "D4",
                    "midi": 62,
                    "time": 210.13320199999762,
                    "velocity": 0.23622047244094488,
                    "duration": 0.2666665000000137
                },
                {
                    "name": "B3",
                    "midi": 59,
                    "time": 210.13320199999762,
                    "velocity": 0.23622047244094488,
                    "duration": 0.2666665000000137
                },
                {
                    "name": "G4",
                    "midi": 67,
                    "time": 210.66653499999765,
                    "velocity": 0.2440944881889764,
                    "duration": 0.2666665000000137
                },
                {
                    "name": "D4",
                    "midi": 62,
                    "time": 210.66653499999765,
                    "velocity": 0.2047244094488189,
                    "duration": 0.2666665000000137
                },
                {
                    "name": "G3",
                    "midi": 55,
                    "time": 210.66653499999765,
                    "velocity": 0.2047244094488189,
                    "duration": 0.2666665000000137
                },
                {
                    "name": "F#4",
                    "midi": 66,
                    "time": 211.19986799999768,
                    "velocity": 0.28346456692913385,
                    "duration": 0.2666665000000137
                },
                {
                    "name": "D4",
                    "midi": 62,
                    "time": 211.19986799999768,
                    "velocity": 0.23622047244094488,
                    "duration": 0.2666665000000137
                },
                {
                    "name": "A3",
                    "midi": 57,
                    "time": 211.7332009999977,
                    "velocity": 0.1968503937007874,
                    "duration": 0.2666665000000137
                },
                {
                    "name": "F#4",
                    "midi": 66,
                    "time": 211.7332009999977,
                    "velocity": 0.23622047244094488,
                    "duration": 0.2666665000000137
                },
                {
                    "name": "F#4",
                    "midi": 66,
                    "time": 212.26653399999773,
                    "velocity": 0.28346456692913385,
                    "duration": 0.2666665000000137
                },
                {
                    "name": "D4",
                    "midi": 62,
                    "time": 212.26653399999773,
                    "velocity": 0.23622047244094488,
                    "duration": 0.2666665000000137
                },
                {
                    "name": "F#4",
                    "midi": 66,
                    "time": 212.79986699999776,
                    "velocity": 0.25196850393700787,
                    "duration": 0.2666665000000137
                },
                {
                    "name": "A3",
                    "midi": 57,
                    "time": 212.79986699999776,
                    "velocity": 0.2125984251968504,
                    "duration": 0.2666665000000137
                },
                {
                    "name": "F#4",
                    "midi": 66,
                    "time": 213.3331999999978,
                    "velocity": 0.28346456692913385,
                    "duration": 0.2666665000000137
                },
                {
                    "name": "D4",
                    "midi": 62,
                    "time": 213.3331999999978,
                    "velocity": 0.23622047244094488,
                    "duration": 0.2666665000000137
                },
                {
                    "name": "F#4",
                    "midi": 66,
                    "time": 213.86653299999782,
                    "velocity": 0.2440944881889764,
                    "duration": 0.2666665000000137
                },
                {
                    "name": "A3",
                    "midi": 57,
                    "time": 213.86653299999782,
                    "velocity": 0.2047244094488189,
                    "duration": 0.2666665000000137
                },
                {
                    "name": "E4",
                    "midi": 64,
                    "time": 214.39986599999784,
                    "velocity": 0.23622047244094488,
                    "duration": 0.2666665000000137
                },
                {
                    "name": "G4",
                    "midi": 67,
                    "time": 214.39986599999784,
                    "velocity": 0.28346456692913385,
                    "duration": 0.2666665000000137
                },
                {
                    "name": "G4",
                    "midi": 67,
                    "time": 214.93319899999787,
                    "velocity": 0.2755905511811024,
                    "duration": 0.2666665000000137
                },
                {
                    "name": "A3",
                    "midi": 57,
                    "time": 214.93319899999787,
                    "velocity": 0.2047244094488189,
                    "duration": 0.2666665000000137
                },
                {
                    "name": "A#3",
                    "midi": 58,
                    "time": 215.4665319999979,
                    "velocity": 0.23622047244094488,
                    "duration": 0.2666665000000137
                },
                {
                    "name": "F#4",
                    "midi": 66,
                    "time": 215.4665319999979,
                    "velocity": 0.3228346456692913,
                    "duration": 0.2666665000000137
                },
                {
                    "name": "C#4",
                    "midi": 61,
                    "time": 215.99986499999792,
                    "velocity": 0.23622047244094488,
                    "duration": 0.2666665000000137
                },
                {
                    "name": "A#3",
                    "midi": 58,
                    "time": 215.99986499999792,
                    "velocity": 0.1968503937007874,
                    "duration": 0.2666665000000137
                },
                {
                    "name": "B3",
                    "midi": 59,
                    "time": 216.53319799999795,
                    "velocity": 0.23622047244094488,
                    "duration": 0.2666665000000137
                },
                {
                    "name": "D4",
                    "midi": 62,
                    "time": 216.53319799999795,
                    "velocity": 0.28346456692913385,
                    "duration": 0.2666665000000137
                },
                {
                    "name": "G4",
                    "midi": 67,
                    "time": 217.06653099999798,
                    "velocity": 0.25196850393700787,
                    "duration": 0.2666665000000137
                },
                {
                    "name": "G3",
                    "midi": 55,
                    "time": 217.06653099999798,
                    "velocity": 0.2125984251968504,
                    "duration": 0.2666665000000137
                },
                {
                    "name": "D4",
                    "midi": 62,
                    "time": 217.06653099999798,
                    "velocity": 0.2125984251968504,
                    "duration": 0.2666665000000137
                },
                {
                    "name": "F#4",
                    "midi": 66,
                    "time": 217.599863999998,
                    "velocity": 0.28346456692913385,
                    "duration": 0.2666665000000137
                },
                {
                    "name": "D4",
                    "midi": 62,
                    "time": 217.599863999998,
                    "velocity": 0.23622047244094488,
                    "duration": 0.2666665000000137
                },
                {
                    "name": "A3",
                    "midi": 57,
                    "time": 218.13319699999803,
                    "velocity": 0.2047244094488189,
                    "duration": 0.2666665000000137
                },
                {
                    "name": "F#4",
                    "midi": 66,
                    "time": 218.13319699999803,
                    "velocity": 0.2440944881889764,
                    "duration": 0.2666665000000137
                },
                {
                    "name": "G4",
                    "midi": 67,
                    "time": 218.66652999999806,
                    "velocity": 0.28346456692913385,
                    "duration": 0.2666665000000137
                },
                {
                    "name": "C#4",
                    "midi": 61,
                    "time": 218.66652999999806,
                    "velocity": 0.23622047244094488,
                    "duration": 0.2666665000000137
                },
                {
                    "name": "G4",
                    "midi": 67,
                    "time": 219.1998629999981,
                    "velocity": 0.2440944881889764,
                    "duration": 0.2666665000000137
                },
                {
                    "name": "A3",
                    "midi": 57,
                    "time": 219.1998629999981,
                    "velocity": 0.2047244094488189,
                    "duration": 0.2666665000000137
                },
                {
                    "name": "F#4",
                    "midi": 66,
                    "time": 219.73319599999812,
                    "velocity": 0.28346456692913385,
                    "duration": 1.066665999999998
                },
                {
                    "name": "D4",
                    "midi": 62,
                    "time": 219.73319599999812,
                    "velocity": 0.23622047244094488,
                    "duration": 1.0555548958333247
                },
                {
                    "name": "D3",
                    "midi": 50,
                    "time": 220.79986199999811,
                    "velocity": 0.4566929133858268,
                    "duration": 0.13333324999999263
                },
                {
                    "name": "F#3",
                    "midi": 54,
                    "time": 220.9331952499981,
                    "velocity": 0.4094488188976378,
                    "duration": 0.13333324999999263
                },
                {
                    "name": "D3",
                    "midi": 50,
                    "time": 221.0665284999981,
                    "velocity": 0.4251968503937008,
                    "duration": 0.13333324999999263
                },
                {
                    "name": "F#3",
                    "midi": 54,
                    "time": 221.1998617499981,
                    "velocity": 0.4094488188976378,
                    "duration": 0.13333324999999263
                },
                {
                    "name": "B3",
                    "midi": 59,
                    "time": 221.33319499999808,
                    "velocity": 0.4566929133858268,
                    "duration": 0.13333324999999263
                },
                {
                    "name": "A3",
                    "midi": 57,
                    "time": 221.46652824999808,
                    "velocity": 0.4094488188976378,
                    "duration": 0.13333324999999263
                },
                {
                    "name": "F#3",
                    "midi": 54,
                    "time": 221.59986149999807,
                    "velocity": 0.4330708661417323,
                    "duration": 0.13333324999999263
                },
                {
                    "name": "D3",
                    "midi": 50,
                    "time": 221.73319474999806,
                    "velocity": 0.4094488188976378,
                    "duration": 0.13333324999999263
                },
                {
                    "name": "C#3",
                    "midi": 49,
                    "time": 221.86652799999806,
                    "velocity": 0.3858267716535433,
                    "duration": 0.2666665000000137
                },
                {
                    "name": "G3",
                    "midi": 55,
                    "time": 221.86652799999806,
                    "velocity": 0.4566929133858268,
                    "duration": 0.2666665000000137
                },
                {
                    "name": "A2",
                    "midi": 45,
                    "time": 222.39986099999808,
                    "velocity": 0.33070866141732286,
                    "duration": 0.2666665000000137
                },
                {
                    "name": "G3",
                    "midi": 55,
                    "time": 222.39986099999808,
                    "velocity": 0.3937007874015748,
                    "duration": 0.2666665000000137
                },
                {
                    "name": "C#3",
                    "midi": 49,
                    "time": 222.9331939999981,
                    "velocity": 0.3700787401574803,
                    "duration": 0.2666665000000137
                },
                {
                    "name": "G3",
                    "midi": 55,
                    "time": 222.9331939999981,
                    "velocity": 0.4409448818897638,
                    "duration": 0.2666665000000137
                },
                {
                    "name": "A2",
                    "midi": 45,
                    "time": 223.46652699999814,
                    "velocity": 0.3700787401574803,
                    "duration": 0.2666665000000137
                },
                {
                    "name": "G3",
                    "midi": 55,
                    "time": 223.46652699999814,
                    "velocity": 0.4409448818897638,
                    "duration": 0.2666665000000137
                },
                {
                    "name": "D3",
                    "midi": 50,
                    "time": 223.99985999999816,
                    "velocity": 0.3858267716535433,
                    "duration": 0.2666665000000137
                },
                {
                    "name": "F#3",
                    "midi": 54,
                    "time": 223.99985999999816,
                    "velocity": 0.4566929133858268,
                    "duration": 0.2666665000000137
                },
                {
                    "name": "A2",
                    "midi": 45,
                    "time": 224.5331929999982,
                    "velocity": 0.29133858267716534,
                    "duration": 0.2666665000000137
                },
                {
                    "name": "F#3",
                    "midi": 54,
                    "time": 224.5331929999982,
                    "velocity": 0.3464566929133858,
                    "duration": 0.2666665000000137
                },
                {
                    "name": "F#3",
                    "midi": 54,
                    "time": 225.06652599999822,
                    "velocity": 0.4409448818897638,
                    "duration": 0.2666665000000137
                },
                {
                    "name": "D3",
                    "midi": 50,
                    "time": 225.06652599999822,
                    "velocity": 0.3700787401574803,
                    "duration": 0.2666665000000137
                },
                {
                    "name": "F#3",
                    "midi": 54,
                    "time": 225.59985899999825,
                    "velocity": 0.3700787401574803,
                    "duration": 0.2666665000000137
                },
                {
                    "name": "A3",
                    "midi": 57,
                    "time": 225.59985899999825,
                    "velocity": 0.4409448818897638,
                    "duration": 0.2666665000000137
                },
                {
                    "name": "C#4",
                    "midi": 61,
                    "time": 226.13319199999827,
                    "velocity": 0.4409448818897638,
                    "duration": 0.2666665000000137
                },
                {
                    "name": "E3",
                    "midi": 52,
                    "time": 226.13319199999827,
                    "velocity": 0.3700787401574803,
                    "duration": 0.2666665000000137
                },
                {
                    "name": "A3",
                    "midi": 57,
                    "time": 226.6665249999983,
                    "velocity": 0.33070866141732286,
                    "duration": 0.2666665000000137
                },
                {
                    "name": "C#4",
                    "midi": 61,
                    "time": 226.6665249999983,
                    "velocity": 0.3937007874015748,
                    "duration": 0.2666665000000137
                },
                {
                    "name": "B3",
                    "midi": 59,
                    "time": 227.19985799999833,
                    "velocity": 0.3700787401574803,
                    "duration": 0.2666665000000137
                },
                {
                    "name": "D4",
                    "midi": 62,
                    "time": 227.19985799999833,
                    "velocity": 0.4409448818897638,
                    "duration": 0.2666665000000137
                },
                {
                    "name": "D4",
                    "midi": 62,
                    "time": 227.73319099999836,
                    "velocity": 0.3937007874015748,
                    "duration": 0.2666665000000137
                },
                {
                    "name": "E3",
                    "midi": 52,
                    "time": 227.73319099999836,
                    "velocity": 0.33070866141732286,
                    "duration": 0.2666665000000137
                },
                {
                    "name": "C#4",
                    "midi": 61,
                    "time": 228.26652399999838,
                    "velocity": 0.49606299212598426,
                    "duration": 1.066665999999998
                },
                {
                    "name": "A3",
                    "midi": 57,
                    "time": 228.26652399999838,
                    "velocity": 0.4409448818897638,
                    "duration": 1.066665999999998
                },
                {
                    "name": "A3",
                    "midi": 57,
                    "time": 229.33318999999838,
                    "velocity": 0.5354330708661418,
                    "duration": 0.13333324999999263
                },
                {
                    "name": "C#4",
                    "midi": 61,
                    "time": 229.46652324999837,
                    "velocity": 0.41732283464566927,
                    "duration": 0.13333324999999263
                },
                {
                    "name": "A3",
                    "midi": 57,
                    "time": 229.59985649999837,
                    "velocity": 0.48031496062992124,
                    "duration": 0.13333324999999263
                },
                {
                    "name": "C#4",
                    "midi": 61,
                    "time": 229.73318974999836,
                    "velocity": 0.41732283464566927,
                    "duration": 0.13333324999999263
                },
                {
                    "name": "F#4",
                    "midi": 66,
                    "time": 229.86652299999835,
                    "velocity": 0.5354330708661418,
                    "duration": 0.13333324999999263
                },
                {
                    "name": "E4",
                    "midi": 64,
                    "time": 229.99985624999834,
                    "velocity": 0.4566929133858268,
                    "duration": 0.13333324999999263
                },
                {
                    "name": "C#4",
                    "midi": 61,
                    "time": 230.13318949999834,
                    "velocity": 0.49606299212598426,
                    "duration": 0.13333324999999263
                },
                {
                    "name": "A3",
                    "midi": 57,
                    "time": 230.26652274999833,
                    "velocity": 0.4566929133858268,
                    "duration": 0.12222214583331947
                },
                {
                    "name": "A3",
                    "midi": 57,
                    "time": 230.39985599999832,
                    "velocity": 0.5669291338582677,
                    "duration": 0.533332999999999
                },
                {
                    "name": "G#3",
                    "midi": 56,
                    "time": 230.93318899999832,
                    "velocity": 0.5039370078740157,
                    "duration": 0.2666665000000137
                },
                {
                    "name": "B3",
                    "midi": 59,
                    "time": 231.46652199999835,
                    "velocity": 0.5354330708661418,
                    "duration": 0.13333324999999263
                },
                {
                    "name": "D4",
                    "midi": 62,
                    "time": 231.59985524999834,
                    "velocity": 0.41732283464566927,
                    "duration": 0.13333324999999263
                },
                {
                    "name": "B3",
                    "midi": 59,
                    "time": 231.73318849999833,
                    "velocity": 0.4881889763779528,
                    "duration": 0.13333324999999263
                },
                {
                    "name": "D4",
                    "midi": 62,
                    "time": 231.86652174999833,
                    "velocity": 0.41732283464566927,
                    "duration": 0.13333324999999263
                },
                {
                    "name": "F#4",
                    "midi": 66,
                    "time": 231.99985499999832,
                    "velocity": 0.5354330708661418,
                    "duration": 0.13333324999999263
                },
                {
                    "name": "E4",
                    "midi": 64,
                    "time": 232.1331882499983,
                    "velocity": 0.4566929133858268,
                    "duration": 0.13333324999999263
                },
                {
                    "name": "D4",
                    "midi": 62,
                    "time": 232.2665214999983,
                    "velocity": 0.48031496062992124,
                    "duration": 0.13333324999999263
                },
                {
                    "name": "B3",
                    "midi": 59,
                    "time": 232.3998547499983,
                    "velocity": 0.4566929133858268,
                    "duration": 0.13333324999999263
                },
                {
                    "name": "C#4",
                    "midi": 61,
                    "time": 232.5331879999983,
                    "velocity": 0.5669291338582677,
                    "duration": 0.533332999999999
                },
                {
                    "name": "A3",
                    "midi": 57,
                    "time": 233.0665209999983,
                    "velocity": 0.5039370078740157,
                    "duration": 0.2666665000000137
                },
                {
                    "name": "G3",
                    "midi": 55,
                    "time": 233.59985399999832,
                    "velocity": 0.5196850393700787,
                    "duration": 0.13333324999999263
                },
                {
                    "name": "C#4",
                    "midi": 61,
                    "time": 233.7331872499983,
                    "velocity": 0.4251968503937008,
                    "duration": 0.13333324999999263
                },
                {
                    "name": "G3",
                    "midi": 55,
                    "time": 233.8665204999983,
                    "velocity": 0.4566929133858268,
                    "duration": 0.13333324999999263
                },
                {
                    "name": "C#4",
                    "midi": 61,
                    "time": 233.9998537499983,
                    "velocity": 0.4251968503937008,
                    "duration": 0.13333324999999263
                },
                {
                    "name": "F#4",
                    "midi": 66,
                    "time": 234.1331869999983,
                    "velocity": 0.48031496062992124,
                    "duration": 0.13333324999999263
                },
                {
                    "name": "E4",
                    "midi": 64,
                    "time": 234.26652024999828,
                    "velocity": 0.4645669291338583,
                    "duration": 0.13333324999999263
                },
                {
                    "name": "C#4",
                    "midi": 61,
                    "time": 234.39985349999827,
                    "velocity": 0.4881889763779528,
                    "duration": 0.13333324999999263
                },
                {
                    "name": "G3",
                    "midi": 55,
                    "time": 234.53318674999826,
                    "velocity": 0.47244094488188976,
                    "duration": 0.13333324999999263
                },
                {
                    "name": "F#3",
                    "midi": 54,
                    "time": 234.66651999999826,
                    "velocity": 0.5275590551181102,
                    "duration": 0.13333324999999263
                },
                {
                    "name": "A3",
                    "midi": 57,
                    "time": 234.79985324999825,
                    "velocity": 0.4566929133858268,
                    "duration": 0.13333324999999263
                },
                {
                    "name": "F#3",
                    "midi": 54,
                    "time": 234.93318649999824,
                    "velocity": 0.4881889763779528,
                    "duration": 0.13333324999999263
                },
                {
                    "name": "D4",
                    "midi": 62,
                    "time": 235.06651974999824,
                    "velocity": 0.4566929133858268,
                    "duration": 0.13333324999999263
                },
                {
                    "name": "F3",
                    "midi": 53,
                    "time": 235.19985299999823,
                    "velocity": 0.5118110236220472,
                    "duration": 0.13333324999999263
                },
                {
                    "name": "A3",
                    "midi": 57,
                    "time": 235.33318624999822,
                    "velocity": 0.4094488188976378,
                    "duration": 0.13333324999999263
                },
                {
                    "name": "F3",
                    "midi": 53,
                    "time": 235.4665194999982,
                    "velocity": 0.4409448818897638,
                    "duration": 0.13333324999999263
                },
                {
                    "name": "D4",
                    "midi": 62,
                    "time": 235.5998527499982,
                    "velocity": 0.4094488188976378,
                    "duration": 0.13333324999999263
                },
                {
                    "name": "E3",
                    "midi": 52,
                    "time": 235.7331859999982,
                    "velocity": 0.49606299212598426,
                    "duration": 0.13333324999999263
                },
                {
                    "name": "C#4",
                    "midi": 61,
                    "time": 235.8665192499982,
                    "velocity": 0.4094488188976378,
                    "duration": 0.13333324999999263
                },
                {
                    "name": "A3",
                    "midi": 57,
                    "time": 235.99985249999818,
                    "velocity": 0.44881889763779526,
                    "duration": 0.13333324999999263
                },
                {
                    "name": "C#4",
                    "midi": 61,
                    "time": 236.13318574999818,
                    "velocity": 0.4094488188976378,
                    "duration": 0.13333324999999263
                },
                {
                    "name": "E4",
                    "midi": 64,
                    "time": 236.26651899999817,
                    "velocity": 0.47244094488188976,
                    "duration": 0.13333324999999263
                },
                {
                    "name": "D4",
                    "midi": 62,
                    "time": 236.39985224999816,
                    "velocity": 0.4094488188976378,
                    "duration": 0.13333324999999263
                },
                {
                    "name": "B3",
                    "midi": 59,
                    "time": 236.53318549999815,
                    "velocity": 0.4409448818897638,
                    "duration": 0.13333324999999263
                },
                {
                    "name": "C#4",
                    "midi": 61,
                    "time": 236.66651874999815,
                    "velocity": 0.4094488188976378,
                    "duration": 0.13333324999999263
                },
                {
                    "name": "A3",
                    "midi": 57,
                    "time": 236.79985199999814,
                    "velocity": 0.4881889763779528,
                    "duration": 0.531110779166653
                },
                {
                    "name": "A3",
                    "midi": 57,
                    "time": 237.33318499999814,
                    "velocity": 0.3543307086614173,
                    "duration": 0.533332999999999
                },
                {
                    "name": "A4",
                    "midi": 69,
                    "time": 237.33318499999814,
                    "velocity": 0.4251968503937008,
                    "duration": 0.533332999999999
                },
                {
                    "name": "C#4",
                    "midi": 61,
                    "time": 237.33318499999814,
                    "velocity": 0.3543307086614173,
                    "duration": 0.533332999999999
                },
                {
                    "name": "B3",
                    "midi": 59,
                    "time": 237.86651799999814,
                    "velocity": 0.3228346456692913,
                    "duration": 0.533332999999999
                },
                {
                    "name": "G#4",
                    "midi": 68,
                    "time": 237.86651799999814,
                    "velocity": 0.3858267716535433,
                    "duration": 0.533332999999999
                },
                {
                    "name": "D4",
                    "midi": 62,
                    "time": 237.86651799999814,
                    "velocity": 0.3228346456692913,
                    "duration": 0.533332999999999
                },
                {
                    "name": "E4",
                    "midi": 64,
                    "time": 238.39985099999814,
                    "velocity": 0.30708661417322836,
                    "duration": 0.533332999999999
                },
                {
                    "name": "G4",
                    "midi": 67,
                    "time": 238.39985099999814,
                    "velocity": 0.3700787401574803,
                    "duration": 0.533332999999999
                },
                {
                    "name": "C#4",
                    "midi": 61,
                    "time": 238.39985099999814,
                    "velocity": 0.30708661417322836,
                    "duration": 0.533332999999999
                },
                {
                    "name": "F#4",
                    "midi": 66,
                    "time": 238.93318399999814,
                    "velocity": 0.28346456692913385,
                    "duration": 0.2666665000000137
                },
                {
                    "name": "D4",
                    "midi": 62,
                    "time": 238.93318399999814,
                    "velocity": 0.23622047244094488,
                    "duration": 0.2666665000000137
                },
                {
                    "name": "F#4",
                    "midi": 66,
                    "time": 239.46651699999816,
                    "velocity": 0.2440944881889764,
                    "duration": 0.2666665000000137
                },
                {
                    "name": "A3",
                    "midi": 57,
                    "time": 239.46651699999816,
                    "velocity": 0.2047244094488189,
                    "duration": 0.2666665000000137
                },
                {
                    "name": "G4",
                    "midi": 67,
                    "time": 239.9998499999982,
                    "velocity": 0.28346456692913385,
                    "duration": 0.2666665000000137
                },
                {
                    "name": "E4",
                    "midi": 64,
                    "time": 239.9998499999982,
                    "velocity": 0.23622047244094488,
                    "duration": 0.2666665000000137
                },
                {
                    "name": "F#4",
                    "midi": 66,
                    "time": 240.53318299999822,
                    "velocity": 0.2440944881889764,
                    "duration": 0.2666665000000137
                },
                {
                    "name": "A3",
                    "midi": 57,
                    "time": 240.53318299999822,
                    "velocity": 0.2047244094488189,
                    "duration": 0.2666665000000137
                },
                {
                    "name": "F#4",
                    "midi": 66,
                    "time": 241.06651599999824,
                    "velocity": 0.28346456692913385,
                    "duration": 0.2666665000000137
                },
                {
                    "name": "D4",
                    "midi": 62,
                    "time": 241.06651599999824,
                    "velocity": 0.23622047244094488,
                    "duration": 0.2666665000000137
                },
                {
                    "name": "F#4",
                    "midi": 66,
                    "time": 241.59984899999827,
                    "velocity": 0.2440944881889764,
                    "duration": 0.2666665000000137
                },
                {
                    "name": "A3",
                    "midi": 57,
                    "time": 241.59984899999827,
                    "velocity": 0.2047244094488189,
                    "duration": 0.2666665000000137
                },
                {
                    "name": "G4",
                    "midi": 67,
                    "time": 242.1331819999983,
                    "velocity": 0.28346456692913385,
                    "duration": 0.2666665000000137
                },
                {
                    "name": "E4",
                    "midi": 64,
                    "time": 242.1331819999983,
                    "velocity": 0.23622047244094488,
                    "duration": 0.2666665000000137
                },
                {
                    "name": "A3",
                    "midi": 57,
                    "time": 242.66651499999833,
                    "velocity": 0.2047244094488189,
                    "duration": 0.2666665000000137
                },
                {
                    "name": "G4",
                    "midi": 67,
                    "time": 242.66651499999833,
                    "velocity": 0.2440944881889764,
                    "duration": 0.2666665000000137
                },
                {
                    "name": "F#4",
                    "midi": 66,
                    "time": 243.19984799999835,
                    "velocity": 0.28346456692913385,
                    "duration": 0.2666665000000137
                },
                {
                    "name": "D4",
                    "midi": 62,
                    "time": 243.19984799999835,
                    "velocity": 0.23622047244094488,
                    "duration": 0.2666665000000137
                },
                {
                    "name": "F#4",
                    "midi": 66,
                    "time": 243.73318099999838,
                    "velocity": 0.23622047244094488,
                    "duration": 0.2666665000000137
                },
                {
                    "name": "A3",
                    "midi": 57,
                    "time": 243.73318099999838,
                    "velocity": 0.1968503937007874,
                    "duration": 0.2666665000000137
                },
                {
                    "name": "G4",
                    "midi": 67,
                    "time": 244.2665139999984,
                    "velocity": 0.28346456692913385,
                    "duration": 0.2666665000000137
                },
                {
                    "name": "C#4",
                    "midi": 61,
                    "time": 244.2665139999984,
                    "velocity": 0.23622047244094488,
                    "duration": 0.2666665000000137
                },
                {
                    "name": "A3",
                    "midi": 57,
                    "time": 244.79984699999844,
                    "velocity": 0.2125984251968504,
                    "duration": 0.2666665000000137
                },
                {
                    "name": "G4",
                    "midi": 67,
                    "time": 244.79984699999844,
                    "velocity": 0.25196850393700787,
                    "duration": 0.2666665000000137
                },
                {
                    "name": "F#4",
                    "midi": 66,
                    "time": 245.33317999999846,
                    "velocity": 0.28346456692913385,
                    "duration": 0.2666665000000137
                },
                {
                    "name": "D4",
                    "midi": 62,
                    "time": 245.33317999999846,
                    "velocity": 0.23622047244094488,
                    "duration": 0.2666665000000137
                },
                {
                    "name": "A3",
                    "midi": 57,
                    "time": 245.8665129999985,
                    "velocity": 0.2047244094488189,
                    "duration": 0.2666665000000137
                },
                {
                    "name": "F#4",
                    "midi": 66,
                    "time": 245.8665129999985,
                    "velocity": 0.2440944881889764,
                    "duration": 0.2666665000000137
                },
                {
                    "name": "B3",
                    "midi": 59,
                    "time": 246.39984599999852,
                    "velocity": 0.23622047244094488,
                    "duration": 0.2666665000000137
                },
                {
                    "name": "G4",
                    "midi": 67,
                    "time": 246.39984599999852,
                    "velocity": 0.28346456692913385,
                    "duration": 0.2666665000000137
                },
                {
                    "name": "D4",
                    "midi": 62,
                    "time": 246.39984599999852,
                    "velocity": 0.23622047244094488,
                    "duration": 0.2666665000000137
                },
                {
                    "name": "G3",
                    "midi": 55,
                    "time": 246.93317899999855,
                    "velocity": 0.2047244094488189,
                    "duration": 0.2666665000000137
                },
                {
                    "name": "D4",
                    "midi": 62,
                    "time": 246.93317899999855,
                    "velocity": 0.2047244094488189,
                    "duration": 0.2666665000000137
                },
                {
                    "name": "G4",
                    "midi": 67,
                    "time": 246.93317899999855,
                    "velocity": 0.2440944881889764,
                    "duration": 0.2666665000000137
                },
                {
                    "name": "F#4",
                    "midi": 66,
                    "time": 247.46651199999857,
                    "velocity": 0.28346456692913385,
                    "duration": 0.2666665000000137
                },
                {
                    "name": "D4",
                    "midi": 62,
                    "time": 247.46651199999857,
                    "velocity": 0.23622047244094488,
                    "duration": 0.2666665000000137
                },
                {
                    "name": "F#4",
                    "midi": 66,
                    "time": 247.9998449999986,
                    "velocity": 0.23622047244094488,
                    "duration": 0.2666665000000137
                },
                {
                    "name": "A3",
                    "midi": 57,
                    "time": 247.9998449999986,
                    "velocity": 0.1968503937007874,
                    "duration": 0.2666665000000137
                },
                {
                    "name": "D4",
                    "midi": 62,
                    "time": 248.53317799999863,
                    "velocity": 0.1968503937007874,
                    "duration": 0.2666665000000137
                },
                {
                    "name": "F4",
                    "midi": 65,
                    "time": 248.53317799999863,
                    "velocity": 0.23622047244094488,
                    "duration": 0.2666665000000137
                },
                {
                    "name": "F4",
                    "midi": 65,
                    "time": 249.06651099999866,
                    "velocity": 0.2125984251968504,
                    "duration": 0.2666665000000137
                },
                {
                    "name": "A3",
                    "midi": 57,
                    "time": 249.06651099999866,
                    "velocity": 0.1732283464566929,
                    "duration": 0.2666665000000137
                },
                {
                    "name": "D4",
                    "midi": 62,
                    "time": 249.59984399999868,
                    "velocity": 0.1968503937007874,
                    "duration": 0.2666665000000137
                },
                {
                    "name": "F4",
                    "midi": 65,
                    "time": 249.59984399999868,
                    "velocity": 0.23622047244094488,
                    "duration": 0.2666665000000137
                },
                {
                    "name": "A3",
                    "midi": 57,
                    "time": 250.1331769999987,
                    "velocity": 0.1732283464566929,
                    "duration": 0.2666665000000137
                },
                {
                    "name": "F4",
                    "midi": 65,
                    "time": 250.1331769999987,
                    "velocity": 0.2047244094488189,
                    "duration": 0.2666665000000137
                },
                {
                    "name": "F4",
                    "midi": 65,
                    "time": 250.66650999999874,
                    "velocity": 0.23622047244094488,
                    "duration": 0.2666665000000137
                },
                {
                    "name": "D#4",
                    "midi": 63,
                    "time": 250.66650999999874,
                    "velocity": 0.1968503937007874,
                    "duration": 0.2666665000000137
                },
                {
                    "name": "C4",
                    "midi": 60,
                    "time": 250.66650999999874,
                    "velocity": 0.1968503937007874,
                    "duration": 0.2666665000000137
                },
                {
                    "name": "D#4",
                    "midi": 63,
                    "time": 251.19984299999876,
                    "velocity": 0.1732283464566929,
                    "duration": 0.2666665000000137
                },
                {
                    "name": "F4",
                    "midi": 65,
                    "time": 251.19984299999876,
                    "velocity": 0.2283464566929134,
                    "duration": 0.2666665000000137
                },
                {
                    "name": "F3",
                    "midi": 53,
                    "time": 251.19984299999876,
                    "velocity": 0.1732283464566929,
                    "duration": 0.2666665000000137
                },
                {
                    "name": "D4",
                    "midi": 62,
                    "time": 251.7331759999988,
                    "velocity": 0.1968503937007874,
                    "duration": 0.2666665000000137
                },
                {
                    "name": "A#3",
                    "midi": 58,
                    "time": 251.7331759999988,
                    "velocity": 0.1968503937007874,
                    "duration": 0.2666665000000137
                },
                {
                    "name": "F4",
                    "midi": 65,
                    "time": 251.7331759999988,
                    "velocity": 0.2677165354330709,
                    "duration": 0.2666665000000137
                },
                {
                    "name": "F4",
                    "midi": 65,
                    "time": 252.26650899999882,
                    "velocity": 0.1968503937007874,
                    "duration": 0.2666665000000137
                },
                {
                    "name": "F3",
                    "midi": 53,
                    "time": 252.26650899999882,
                    "velocity": 0.16535433070866143,
                    "duration": 0.2666665000000137
                },
                {
                    "name": "D4",
                    "midi": 62,
                    "time": 252.26650899999882,
                    "velocity": 0.16535433070866143,
                    "duration": 0.2666665000000137
                },
                {
                    "name": "A#3",
                    "midi": 58,
                    "time": 252.79984199999885,
                    "velocity": 0.23622047244094488,
                    "duration": 0.2666665000000137
                },
                {
                    "name": "D4",
                    "midi": 62,
                    "time": 252.79984199999885,
                    "velocity": 0.23622047244094488,
                    "duration": 0.2666665000000137
                },
                {
                    "name": "F4",
                    "midi": 65,
                    "time": 252.79984199999885,
                    "velocity": 0.28346456692913385,
                    "duration": 0.2666665000000137
                },
                {
                    "name": "G#4",
                    "midi": 68,
                    "time": 253.33317499999887,
                    "velocity": 0.2992125984251969,
                    "duration": 0.2666665000000137
                },
                {
                    "name": "D4",
                    "midi": 62,
                    "time": 253.33317499999887,
                    "velocity": 0.25196850393700787,
                    "duration": 0.2666665000000137
                },
                {
                    "name": "A#3",
                    "midi": 58,
                    "time": 253.33317499999887,
                    "velocity": 0.25196850393700787,
                    "duration": 0.2666665000000137
                },
                {
                    "name": "D4",
                    "midi": 62,
                    "time": 253.8665079999989,
                    "velocity": 0.23622047244094488,
                    "duration": 0.2666665000000137
                },
                {
                    "name": "A4",
                    "midi": 69,
                    "time": 253.8665079999989,
                    "velocity": 0.28346456692913385,
                    "duration": 0.2666665000000137
                },
                {
                    "name": "F#4",
                    "midi": 66,
                    "time": 253.8665079999989,
                    "velocity": 0.23622047244094488,
                    "duration": 0.2666665000000137
                },
                {
                    "name": "A4",
                    "midi": 69,
                    "time": 254.39984099999893,
                    "velocity": 0.2440944881889764,
                    "duration": 0.2666665000000137
                },
                {
                    "name": "F#4",
                    "midi": 66,
                    "time": 254.39984099999893,
                    "velocity": 0.2047244094488189,
                    "duration": 0.2666665000000137
                },
                {
                    "name": "A3",
                    "midi": 57,
                    "time": 254.39984099999893,
                    "velocity": 0.2047244094488189,
                    "duration": 0.2666665000000137
                },
                {
                    "name": "G4",
                    "midi": 67,
                    "time": 254.93317399999896,
                    "velocity": 0.23622047244094488,
                    "duration": 0.2666665000000137
                },
                {
                    "name": "C#4",
                    "midi": 61,
                    "time": 254.93317399999896,
                    "velocity": 0.23622047244094488,
                    "duration": 0.2666665000000137
                },
                {
                    "name": "A4",
                    "midi": 69,
                    "time": 254.93317399999896,
                    "velocity": 0.28346456692913385,
                    "duration": 0.2666665000000137
                },
                {
                    "name": "A3",
                    "midi": 57,
                    "time": 255.46650699999898,
                    "velocity": 0.2047244094488189,
                    "duration": 0.2666665000000137
                },
                {
                    "name": "G4",
                    "midi": 67,
                    "time": 255.46650699999898,
                    "velocity": 0.2047244094488189,
                    "duration": 0.2666665000000137
                },
                {
                    "name": "A4",
                    "midi": 69,
                    "time": 255.46650699999898,
                    "velocity": 0.2440944881889764,
                    "duration": 0.2666665000000137
                },
                {
                    "name": "A4",
                    "midi": 69,
                    "time": 255.999839999999,
                    "velocity": 0.28346456692913385,
                    "duration": 0.2666665000000137
                },
                {
                    "name": "F#4",
                    "midi": 66,
                    "time": 255.999839999999,
                    "velocity": 0.23622047244094488,
                    "duration": 0.2666665000000137
                },
                {
                    "name": "D4",
                    "midi": 62,
                    "time": 256.533172999999,
                    "velocity": 0.2047244094488189,
                    "duration": 0.26666649999998526
                },
                {
                    "name": "F#4",
                    "midi": 66,
                    "time": 256.533172999999,
                    "velocity": 0.2047244094488189,
                    "duration": 0.26666649999998526
                },
                {
                    "name": "A4",
                    "midi": 69,
                    "time": 256.533172999999,
                    "velocity": 0.2440944881889764,
                    "duration": 0.26666649999998526
                },
                {
                    "name": "D4",
                    "midi": 62,
                    "time": 257.066505999999,
                    "velocity": 0.23622047244094488,
                    "duration": 0.26666649999998526
                },
                {
                    "name": "G4",
                    "midi": 67,
                    "time": 257.066505999999,
                    "velocity": 0.28346456692913385,
                    "duration": 0.26666649999998526
                },
                {
                    "name": "B3",
                    "midi": 59,
                    "time": 257.066505999999,
                    "velocity": 0.23622047244094488,
                    "duration": 0.26666649999998526
                },
                {
                    "name": "G3",
                    "midi": 55,
                    "time": 257.59983899999895,
                    "velocity": 0.2047244094488189,
                    "duration": 0.26666649999998526
                },
                {
                    "name": "G4",
                    "midi": 67,
                    "time": 257.59983899999895,
                    "velocity": 0.2440944881889764,
                    "duration": 0.26666649999998526
                },
                {
                    "name": "D4",
                    "midi": 62,
                    "time": 257.59983899999895,
                    "velocity": 0.2047244094488189,
                    "duration": 0.26666649999998526
                },
                {
                    "name": "D4",
                    "midi": 62,
                    "time": 258.1331719999989,
                    "velocity": 0.2755905511811024,
                    "duration": 0.26666649999998526
                },
                {
                    "name": "F#4",
                    "midi": 66,
                    "time": 258.1331719999989,
                    "velocity": 0.33070866141732286,
                    "duration": 0.26666649999998526
                },
                {
                    "name": "A3",
                    "midi": 57,
                    "time": 258.6665049999989,
                    "velocity": 0.2204724409448819,
                    "duration": 0.26666649999998526
                },
                {
                    "name": "F#4",
                    "midi": 66,
                    "time": 258.6665049999989,
                    "velocity": 0.2677165354330709,
                    "duration": 0.26666649999998526
                },
                {
                    "name": "G4",
                    "midi": 67,
                    "time": 259.19983799999886,
                    "velocity": 0.31496062992125984,
                    "duration": 0.26666649999998526
                },
                {
                    "name": "C#4",
                    "midi": 61,
                    "time": 259.19983799999886,
                    "velocity": 0.2677165354330709,
                    "duration": 0.26666649999998526
                },
                {
                    "name": "A3",
                    "midi": 57,
                    "time": 259.73317099999883,
                    "velocity": 0.23622047244094488,
                    "duration": 0.26666649999998526
                },
                {
                    "name": "G4",
                    "midi": 67,
                    "time": 259.73317099999883,
                    "velocity": 0.28346456692913385,
                    "duration": 0.26666649999998526
                },
                {
                    "name": "F#4",
                    "midi": 66,
                    "time": 260.2665039999988,
                    "velocity": 0.33858267716535434,
                    "duration": 1.066665999999998
                },
                {
                    "name": "D4",
                    "midi": 62,
                    "time": 260.2665039999988,
                    "velocity": 0.28346456692913385,
                    "duration": 1.066665999999998
                },
                {
                    "name": "G2",
                    "midi": 43,
                    "time": 262.3998359999988,
                    "velocity": 0.3543307086614173,
                    "duration": 0.0666666249999821
                },
                {
                    "name": "G3",
                    "midi": 55,
                    "time": 262.53316924999876,
                    "velocity": 0.2755905511811024,
                    "duration": 0.13333325000002105
                },
                {
                    "name": "B3",
                    "midi": 59,
                    "time": 262.6665024999988,
                    "velocity": 0.2992125984251969,
                    "duration": 0.13333325000002105
                },
                {
                    "name": "G3",
                    "midi": 55,
                    "time": 262.7998357499988,
                    "velocity": 0.29133858267716534,
                    "duration": 0.13333325000002105
                },
                {
                    "name": "D4",
                    "midi": 62,
                    "time": 262.9331689999988,
                    "velocity": 0.33070866141732286,
                    "duration": 0.13333325000002105
                },
                {
                    "name": "G3",
                    "midi": 55,
                    "time": 263.06650224999885,
                    "velocity": 0.25196850393700787,
                    "duration": 0.13333325000002105
                },
                {
                    "name": "B3",
                    "midi": 59,
                    "time": 263.19983549999887,
                    "velocity": 0.28346456692913385,
                    "duration": 0.13333325000002105
                },
                {
                    "name": "G3",
                    "midi": 55,
                    "time": 263.3331687499989,
                    "velocity": 0.28346456692913385,
                    "duration": 0.13333325000002105
                },
                {
                    "name": "G2",
                    "midi": 43,
                    "time": 263.4665019999989,
                    "velocity": 0.3858267716535433,
                    "duration": 0.0666666249999821
                },
                {
                    "name": "G3",
                    "midi": 55,
                    "time": 263.5998352499989,
                    "velocity": 0.25984251968503935,
                    "duration": 0.13333325000002105
                },
                {
                    "name": "A#3",
                    "midi": 58,
                    "time": 263.7331684999989,
                    "velocity": 0.28346456692913385,
                    "duration": 0.13333325000002105
                },
                {
                    "name": "G3",
                    "midi": 55,
                    "time": 263.8665017499989,
                    "velocity": 0.25984251968503935,
                    "duration": 0.13333325000002105
                },
                {
                    "name": "E4",
                    "midi": 64,
                    "time": 263.99983499999894,
                    "velocity": 0.33070866141732286,
                    "duration": 0.13333325000002105
                },
                {
                    "name": "G3",
                    "midi": 55,
                    "time": 264.13316824999896,
                    "velocity": 0.2755905511811024,
                    "duration": 0.13333325000002105
                },
                {
                    "name": "A#3",
                    "midi": 58,
                    "time": 264.266501499999,
                    "velocity": 0.29133858267716534,
                    "duration": 0.13333325000002105
                },
                {
                    "name": "G3",
                    "midi": 55,
                    "time": 264.399834749999,
                    "velocity": 0.2755905511811024,
                    "duration": 0.13333325000002105
                },
                {
                    "name": "G2",
                    "midi": 43,
                    "time": 264.533167999999,
                    "velocity": 0.3543307086614173,
                    "duration": 0.0666666249999821
                },
                {
                    "name": "G3",
                    "midi": 55,
                    "time": 264.666501249999,
                    "velocity": 0.28346456692913385,
                    "duration": 0.13333325000002105
                },
                {
                    "name": "B3",
                    "midi": 59,
                    "time": 264.799834499999,
                    "velocity": 0.2992125984251969,
                    "duration": 0.13333325000002105
                },
                {
                    "name": "G3",
                    "midi": 55,
                    "time": 264.93316774999903,
                    "velocity": 0.28346456692913385,
                    "duration": 0.13333325000002105
                },
                {
                    "name": "D4",
                    "midi": 62,
                    "time": 265.06650099999905,
                    "velocity": 0.33070866141732286,
                    "duration": 0.13333325000002105
                },
                {
                    "name": "G3",
                    "midi": 55,
                    "time": 265.19983424999907,
                    "velocity": 0.28346456692913385,
                    "duration": 0.13333325000002105
                },
                {
                    "name": "B3",
                    "midi": 59,
                    "time": 265.3331674999991,
                    "velocity": 0.28346456692913385,
                    "duration": 0.13333325000002105
                },
                {
                    "name": "G3",
                    "midi": 55,
                    "time": 265.4665007499991,
                    "velocity": 0.25984251968503935,
                    "duration": 0.13333325000002105
                },
                {
                    "name": "E4",
                    "midi": 64,
                    "time": 265.59983399999913,
                    "velocity": 0.2755905511811024,
                    "duration": 0.2399998500000038
                },
                {
                    "name": "D4",
                    "midi": 62,
                    "time": 265.8665004999991,
                    "velocity": 0.25196850393700787,
                    "duration": 0.2399998500000038
                },
                {
                    "name": "B3",
                    "midi": 59,
                    "time": 266.1331669999991,
                    "velocity": 0.25196850393700787,
                    "duration": 0.2399998500000038
                },
                {
                    "name": "G3",
                    "midi": 55,
                    "time": 266.3998334999991,
                    "velocity": 0.2992125984251969,
                    "duration": 0.2399998500000038
                },
                {
                    "name": "D2",
                    "midi": 38,
                    "time": 266.6664999999991,
                    "velocity": 0.3543307086614173,
                    "duration": 0.0666666249999821
                },
                {
                    "name": "D3",
                    "midi": 50,
                    "time": 266.79983324999904,
                    "velocity": 0.29133858267716534,
                    "duration": 0.13333325000002105
                },
                {
                    "name": "F#3",
                    "midi": 54,
                    "time": 266.93316649999906,
                    "velocity": 0.2992125984251969,
                    "duration": 0.13333325000002105
                },
                {
                    "name": "D3",
                    "midi": 50,
                    "time": 267.0664997499991,
                    "velocity": 0.28346456692913385,
                    "duration": 0.13333325000002105
                },
                {
                    "name": "A3",
                    "midi": 57,
                    "time": 267.1998329999991,
                    "velocity": 0.33070866141732286,
                    "duration": 0.13333325000002105
                },
                {
                    "name": "D3",
                    "midi": 50,
                    "time": 267.3331662499991,
                    "velocity": 0.2677165354330709,
                    "duration": 0.13333325000002105
                },
                {
                    "name": "F#3",
                    "midi": 54,
                    "time": 267.46649949999914,
                    "velocity": 0.28346456692913385,
                    "duration": 0.13333325000002105
                },
                {
                    "name": "D3",
                    "midi": 50,
                    "time": 267.59983274999917,
                    "velocity": 0.2677165354330709,
                    "duration": 0.13333325000002105
                },
                {
                    "name": "A2",
                    "midi": 45,
                    "time": 267.7331659999992,
                    "velocity": 0.3858267716535433,
                    "duration": 0.0666666249999821
                },
                {
                    "name": "E3",
                    "midi": 52,
                    "time": 267.86649924999915,
                    "velocity": 0.25984251968503935,
                    "duration": 0.13333325000002105
                },
                {
                    "name": "G3",
                    "midi": 55,
                    "time": 267.9998324999992,
                    "velocity": 0.28346456692913385,
                    "duration": 0.13333325000002105
                },
                {
                    "name": "E3",
                    "midi": 52,
                    "time": 268.1331657499992,
                    "velocity": 0.25984251968503935,
                    "duration": 0.13333325000002105
                },
                {
                    "name": "A3",
                    "midi": 57,
                    "time": 268.2664989999992,
                    "velocity": 0.33070866141732286,
                    "duration": 0.13333325000002105
                },
                {
                    "name": "E3",
                    "midi": 52,
                    "time": 268.39983224999924,
                    "velocity": 0.2677165354330709,
                    "duration": 0.13333325000002105
                },
                {
                    "name": "G3",
                    "midi": 55,
                    "time": 268.53316549999926,
                    "velocity": 0.29133858267716534,
                    "duration": 0.13333325000002105
                },
                {
                    "name": "E3",
                    "midi": 52,
                    "time": 268.6664987499993,
                    "velocity": 0.2755905511811024,
                    "duration": 0.13333325000002105
                },
                {
                    "name": "D2",
                    "midi": 38,
                    "time": 268.7998319999993,
                    "velocity": 0.3543307086614173,
                    "duration": 0.0666666249999821
                },
                {
                    "name": "D3",
                    "midi": 50,
                    "time": 268.93316524999926,
                    "velocity": 0.29133858267716534,
                    "duration": 0.13333325000002105
                },
                {
                    "name": "F#3",
                    "midi": 54,
                    "time": 269.0664984999993,
                    "velocity": 0.2992125984251969,
                    "duration": 0.13333325000002105
                },
                {
                    "name": "D3",
                    "midi": 50,
                    "time": 269.1998317499993,
                    "velocity": 0.29133858267716534,
                    "duration": 0.13333325000002105
                },
                {
                    "name": "A3",
                    "midi": 57,
                    "time": 269.3331649999993,
                    "velocity": 0.33070866141732286,
                    "duration": 0.13333325000002105
                },
                {
                    "name": "D3",
                    "midi": 50,
                    "time": 269.46649824999935,
                    "velocity": 0.2755905511811024,
                    "duration": 0.13333325000002105
                },
                {
                    "name": "C#4",
                    "midi": 61,
                    "time": 269.59983149999937,
                    "velocity": 0.28346456692913385,
                    "duration": 0.13333325000002105
                },
                {
                    "name": "D3",
                    "midi": 50,
                    "time": 269.7331647499994,
                    "velocity": 0.25984251968503935,
                    "duration": 0.13333325000002105
                },
                {
                    "name": "D4",
                    "midi": 62,
                    "time": 269.8664979999994,
                    "velocity": 0.2755905511811024,
                    "duration": 0.2399998500000038
                },
                {
                    "name": "D4",
                    "midi": 62,
                    "time": 270.1331644999994,
                    "velocity": 0.25984251968503935,
                    "duration": 0.2399998500000038
                },
                {
                    "name": "E4",
                    "midi": 64,
                    "time": 270.3998309999994,
                    "velocity": 0.2755905511811024,
                    "duration": 0.2399998500000038
                },
                {
                    "name": "F4",
                    "midi": 65,
                    "time": 270.66649749999937,
                    "velocity": 0.28346456692913385,
                    "duration": 0.2399998500000038
                },
                {
                    "name": "E2",
                    "midi": 40,
                    "time": 270.93316399999935,
                    "velocity": 0.3543307086614173,
                    "duration": 0.0666666249999821
                },
                {
                    "name": "E3",
                    "midi": 52,
                    "time": 271.0664972499993,
                    "velocity": 0.2755905511811024,
                    "duration": 0.13333325000002105
                },
                {
                    "name": "G#3",
                    "midi": 56,
                    "time": 271.19983049999934,
                    "velocity": 0.2992125984251969,
                    "duration": 0.13333325000002105
                },
                {
                    "name": "E3",
                    "midi": 52,
                    "time": 271.33316374999936,
                    "velocity": 0.2992125984251969,
                    "duration": 0.13333325000002105
                },
                {
                    "name": "D4",
                    "midi": 62,
                    "time": 271.4664969999994,
                    "velocity": 0.33070866141732286,
                    "duration": 0.13333325000002105
                },
                {
                    "name": "E3",
                    "midi": 52,
                    "time": 271.5998302499994,
                    "velocity": 0.2677165354330709,
                    "duration": 0.13333325000002105
                },
                {
                    "name": "G#3",
                    "midi": 56,
                    "time": 271.7331634999994,
                    "velocity": 0.28346456692913385,
                    "duration": 0.13333325000002105
                },
                {
                    "name": "E3",
                    "midi": 52,
                    "time": 271.86649674999944,
                    "velocity": 0.28346456692913385,
                    "duration": 0.13333325000002105
                },
                {
                    "name": "A2",
                    "midi": 45,
                    "time": 271.99982999999946,
                    "velocity": 0.3858267716535433,
                    "duration": 0.0666666249999821
                },
                {
                    "name": "E3",
                    "midi": 52,
                    "time": 272.1331632499994,
                    "velocity": 0.29133858267716534,
                    "duration": 0.13333325000002105
                },
                {
                    "name": "A3",
                    "midi": 57,
                    "time": 272.26649649999945,
                    "velocity": 0.28346456692913385,
                    "duration": 0.13333325000002105
                },
                {
                    "name": "E3",
                    "midi": 52,
                    "time": 272.39982974999947,
                    "velocity": 0.28346456692913385,
                    "duration": 0.13333325000002105
                },
                {
                    "name": "C4",
                    "midi": 60,
                    "time": 272.5331629999995,
                    "velocity": 0.36220472440944884,
                    "duration": 0.13333325000002105
                },
                {
                    "name": "E3",
                    "midi": 52,
                    "time": 272.6664962499995,
                    "velocity": 0.30708661417322836,
                    "duration": 0.13333325000002105
                },
                {
                    "name": "B3",
                    "midi": 59,
                    "time": 272.79982949999953,
                    "velocity": 0.31496062992125984,
                    "duration": 0.13333325000002105
                },
                {
                    "name": "E3",
                    "midi": 52,
                    "time": 272.93316274999955,
                    "velocity": 0.33070866141732286,
                    "duration": 0.13333325000002105
                },
                {
                    "name": "D2",
                    "midi": 38,
                    "time": 273.0664959999996,
                    "velocity": 0.3543307086614173,
                    "duration": 0.0666666249999821
                },
                {
                    "name": "D3",
                    "midi": 50,
                    "time": 273.19982924999954,
                    "velocity": 0.2755905511811024,
                    "duration": 0.13333325000002105
                },
                {
                    "name": "F#3",
                    "midi": 54,
                    "time": 273.33316249999956,
                    "velocity": 0.2992125984251969,
                    "duration": 0.13333325000002105
                },
                {
                    "name": "D3",
                    "midi": 50,
                    "time": 273.4664957499996,
                    "velocity": 0.28346456692913385,
                    "duration": 0.13333325000002105
                },
                {
                    "name": "C4",
                    "midi": 60,
                    "time": 273.5998289999996,
                    "velocity": 0.33070866141732286,
                    "duration": 0.13333325000002105
                },
                {
                    "name": "D3",
                    "midi": 50,
                    "time": 273.7331622499996,
                    "velocity": 0.25984251968503935,
                    "duration": 0.13333325000002105
                },
                {
                    "name": "F#3",
                    "midi": 54,
                    "time": 273.86649549999964,
                    "velocity": 0.28346456692913385,
                    "duration": 0.13333325000002105
                },
                {
                    "name": "D3",
                    "midi": 50,
                    "time": 273.99982874999966,
                    "velocity": 0.2677165354330709,
                    "duration": 0.13333325000002105
                },
                {
                    "name": "G3",
                    "midi": 55,
                    "time": 274.1331619999997,
                    "velocity": 0.33070866141732286,
                    "duration": 0.13333325000002105
                },
                {
                    "name": "D3",
                    "midi": 50,
                    "time": 274.2664952499997,
                    "velocity": 0.31496062992125984,
                    "duration": 0.13333325000002105
                },
                {
                    "name": "C4",
                    "midi": 60,
                    "time": 274.3998284999997,
                    "velocity": 0.3700787401574803,
                    "duration": 0.13333325000002105
                },
                {
                    "name": "D3",
                    "midi": 50,
                    "time": 274.53316174999975,
                    "velocity": 0.33070866141732286,
                    "duration": 0.13333325000002105
                },
                {
                    "name": "B3",
                    "midi": 59,
                    "time": 274.66649499999977,
                    "velocity": 0.3700787401574803,
                    "duration": 0.13333325000002105
                },
                {
                    "name": "D3",
                    "midi": 50,
                    "time": 274.7998282499998,
                    "velocity": 0.31496062992125984,
                    "duration": 0.13333325000002105
                },
                {
                    "name": "G3",
                    "midi": 55,
                    "time": 274.9331614999998,
                    "velocity": 0.30708661417322836,
                    "duration": 0.13333325000002105
                },
                {
                    "name": "D3",
                    "midi": 50,
                    "time": 275.06649474999983,
                    "velocity": 0.2992125984251969,
                    "duration": 0.13333325000002105
                },
                {
                    "name": "D2",
                    "midi": 38,
                    "time": 275.19982799999985,
                    "velocity": 0.3543307086614173,
                    "duration": 0.0666666249999821
                },
                {
                    "name": "D3",
                    "midi": 50,
                    "time": 275.3331612499998,
                    "velocity": 0.29133858267716534,
                    "duration": 0.13333325000002105
                },
                {
                    "name": "F#3",
                    "midi": 54,
                    "time": 275.46649449999984,
                    "velocity": 0.2992125984251969,
                    "duration": 0.13333325000002105
                },
                {
                    "name": "D3",
                    "midi": 50,
                    "time": 275.59982774999986,
                    "velocity": 0.2755905511811024,
                    "duration": 0.13333325000002105
                },
                {
                    "name": "C4",
                    "midi": 60,
                    "time": 275.7331609999999,
                    "velocity": 0.33070866141732286,
                    "duration": 0.13333325000002105
                },
                {
                    "name": "D3",
                    "midi": 50,
                    "time": 275.8664942499999,
                    "velocity": 0.2677165354330709,
                    "duration": 0.13333325000002105
                },
                {
                    "name": "F#3",
                    "midi": 54,
                    "time": 275.9998274999999,
                    "velocity": 0.28346456692913385,
                    "duration": 0.13333325000002105
                },
                {
                    "name": "D3",
                    "midi": 50,
                    "time": 276.13316074999994,
                    "velocity": 0.2677165354330709,
                    "duration": 0.13333325000002105
                },
                {
                    "name": "G3",
                    "midi": 55,
                    "time": 276.26649399999997,
                    "velocity": 0.33070866141732286,
                    "duration": 0.13333325000002105
                },
                {
                    "name": "D3",
                    "midi": 50,
                    "time": 276.39982725,
                    "velocity": 0.3464566929133858,
                    "duration": 0.13333325000002105
                },
                {
                    "name": "C4",
                    "midi": 60,
                    "time": 276.5331605,
                    "velocity": 0.33858267716535434,
                    "duration": 0.13333325000002105
                },
                {
                    "name": "D3",
                    "midi": 50,
                    "time": 276.66649375000003,
                    "velocity": 0.33070866141732286,
                    "duration": 0.13333325000002105
                },
                {
                    "name": "B3",
                    "midi": 59,
                    "time": 276.79982700000005,
                    "velocity": 0.3700787401574803,
                    "duration": 0.13333325000002105
                },
                {
                    "name": "D3",
                    "midi": 50,
                    "time": 276.93316025000007,
                    "velocity": 0.31496062992125984,
                    "duration": 0.13333325000002105
                },
                {
                    "name": "G3",
                    "midi": 55,
                    "time": 277.0664935000001,
                    "velocity": 0.30708661417322836,
                    "duration": 0.13333325000002105
                },
                {
                    "name": "D3",
                    "midi": 50,
                    "time": 277.1998267500001,
                    "velocity": 0.2992125984251969,
                    "duration": 0.13333325000002105
                },
                {
                    "name": "D2",
                    "midi": 38,
                    "time": 277.33316000000013,
                    "velocity": 0.3543307086614173,
                    "duration": 0.0666666249999821
                },
                {
                    "name": "D3",
                    "midi": 50,
                    "time": 277.4664932500001,
                    "velocity": 0.2992125984251969,
                    "duration": 0.13333325000002105
                },
                {
                    "name": "F#3",
                    "midi": 54,
                    "time": 277.5998265000001,
                    "velocity": 0.2992125984251969,
                    "duration": 0.13333325000002105
                },
                {
                    "name": "D3",
                    "midi": 50,
                    "time": 277.73315975000014,
                    "velocity": 0.2992125984251969,
                    "duration": 0.13333325000002105
                },
                {
                    "name": "D4",
                    "midi": 62,
                    "time": 277.86649300000016,
                    "velocity": 0.33070866141732286,
                    "duration": 0.13333325000002105
                },
                {
                    "name": "D3",
                    "midi": 50,
                    "time": 277.9998262500002,
                    "velocity": 0.2283464566929134,
                    "duration": 0.13333325000002105
                },
                {
                    "name": "C4",
                    "midi": 60,
                    "time": 278.1331595000002,
                    "velocity": 0.28346456692913385,
                    "duration": 0.13333325000002105
                },
                {
                    "name": "D3",
                    "midi": 50,
                    "time": 278.2664927500002,
                    "velocity": 0.2204724409448819,
                    "duration": 0.13333325000002105
                },
                {
                    "name": "G3",
                    "midi": 55,
                    "time": 278.39982600000025,
                    "velocity": 0.23622047244094488,
                    "duration": 0.26666649999998526
                },
                {
                    "name": "B3",
                    "midi": 59,
                    "time": 278.39982600000025,
                    "velocity": 0.28346456692913385,
                    "duration": 0.26666649999998526
                },
                {
                    "name": "G2",
                    "midi": 43,
                    "time": 279.46649200000024,
                    "velocity": 0.3543307086614173,
                    "duration": 0.0666666249999821
                },
                {
                    "name": "G3",
                    "midi": 55,
                    "time": 279.5998252500002,
                    "velocity": 0.2755905511811024,
                    "duration": 0.13333325000002105
                },
                {
                    "name": "B3",
                    "midi": 59,
                    "time": 279.73315850000023,
                    "velocity": 0.2992125984251969,
                    "duration": 0.13333325000002105
                },
                {
                    "name": "G3",
                    "midi": 55,
                    "time": 279.86649175000025,
                    "velocity": 0.28346456692913385,
                    "duration": 0.13333325000002105
                },
                {
                    "name": "D4",
                    "midi": 62,
                    "time": 279.99982500000027,
                    "velocity": 0.33070866141732286,
                    "duration": 0.13333325000002105
                },
                {
                    "name": "G3",
                    "midi": 55,
                    "time": 280.1331582500003,
                    "velocity": 0.2677165354330709,
                    "duration": 0.13333325000002105
                },
                {
                    "name": "B3",
                    "midi": 59,
                    "time": 280.2664915000003,
                    "velocity": 0.28346456692913385,
                    "duration": 0.13333325000002105
                },
                {
                    "name": "G3",
                    "midi": 55,
                    "time": 280.39982475000033,
                    "velocity": 0.2677165354330709,
                    "duration": 0.13333325000002105
                },
                {
                    "name": "G2",
                    "midi": 43,
                    "time": 280.53315800000036,
                    "velocity": 0.3858267716535433,
                    "duration": 0.0666666249999821
                },
                {
                    "name": "G3",
                    "midi": 55,
                    "time": 280.6664912500003,
                    "velocity": 0.29133858267716534,
                    "duration": 0.13333325000002105
                },
                {
                    "name": "A#3",
                    "midi": 58,
                    "time": 280.79982450000034,
                    "velocity": 0.31496062992125984,
                    "duration": 0.13333325000002105
                },
                {
                    "name": "G3",
                    "midi": 55,
                    "time": 280.93315775000036,
                    "velocity": 0.28346456692913385,
                    "duration": 0.13333325000002105
                },
                {
                    "name": "E4",
                    "midi": 64,
                    "time": 281.0664910000004,
                    "velocity": 0.33070866141732286,
                    "duration": 0.13333325000002105
                },
                {
                    "name": "G3",
                    "midi": 55,
                    "time": 281.1998242500004,
                    "velocity": 0.2755905511811024,
                    "duration": 0.13333325000002105
                },
                {
                    "name": "A#3",
                    "midi": 58,
                    "time": 281.3331575000004,
                    "velocity": 0.29133858267716534,
                    "duration": 0.13333325000002105
                },
                {
                    "name": "G3",
                    "midi": 55,
                    "time": 281.46649075000045,
                    "velocity": 0.2755905511811024,
                    "duration": 0.13333325000002105
                },
                {
                    "name": "G2",
                    "midi": 43,
                    "time": 281.59982400000047,
                    "velocity": 0.3543307086614173,
                    "duration": 0.0666666249999821
                },
                {
                    "name": "G3",
                    "midi": 55,
                    "time": 281.73315725000043,
                    "velocity": 0.28346456692913385,
                    "duration": 0.13333325000002105
                },
                {
                    "name": "B3",
                    "midi": 59,
                    "time": 281.86649050000045,
                    "velocity": 0.2992125984251969,
                    "duration": 0.13333325000002105
                },
                {
                    "name": "G3",
                    "midi": 55,
                    "time": 281.9998237500005,
                    "velocity": 0.29133858267716534,
                    "duration": 0.13333325000002105
                },
                {
                    "name": "D4",
                    "midi": 62,
                    "time": 282.1331570000005,
                    "velocity": 0.3543307086614173,
                    "duration": 0.13333325000002105
                },
                {
                    "name": "G3",
                    "midi": 55,
                    "time": 282.2664902500005,
                    "velocity": 0.33858267716535434,
                    "duration": 0.13333325000002105
                },
                {
                    "name": "B3",
                    "midi": 59,
                    "time": 282.39982350000054,
                    "velocity": 0.36220472440944884,
                    "duration": 0.13333325000002105
                },
                {
                    "name": "D4",
                    "midi": 62,
                    "time": 282.53315675000056,
                    "velocity": 0.3779527559055118,
                    "duration": 0.13333325000002105
                },
                {
                    "name": "F4",
                    "midi": 65,
                    "time": 282.6664900000006,
                    "velocity": 0.3937007874015748,
                    "duration": 0.2399998500000038
                },
                {
                    "name": "E4",
                    "midi": 64,
                    "time": 282.93315650000056,
                    "velocity": 0.33070866141732286,
                    "duration": 0.2399998500000038
                },
                {
                    "name": "F4",
                    "midi": 65,
                    "time": 283.19982300000055,
                    "velocity": 0.33070866141732286,
                    "duration": 0.2399998500000038
                },
                {
                    "name": "G4",
                    "midi": 67,
                    "time": 283.46648950000053,
                    "velocity": 0.3700787401574803,
                    "duration": 0.2399998500000038
                },
                {
                    "name": "C3",
                    "midi": 48,
                    "time": 283.7331560000005,
                    "velocity": 0.4015748031496063,
                    "duration": 0.0666666249999821
                },
                {
                    "name": "G3",
                    "midi": 55,
                    "time": 283.8664892500005,
                    "velocity": 0.31496062992125984,
                    "duration": 0.13333325000002105
                },
                {
                    "name": "C4",
                    "midi": 60,
                    "time": 283.9998225000005,
                    "velocity": 0.33858267716535434,
                    "duration": 0.13333325000002105
                },
                {
                    "name": "G3",
                    "midi": 55,
                    "time": 284.1331557500005,
                    "velocity": 0.31496062992125984,
                    "duration": 0.13333325000002105
                },
                {
                    "name": "E4",
                    "midi": 64,
                    "time": 284.26648900000055,
                    "velocity": 0.3779527559055118,
                    "duration": 0.13333325000002105
                },
                {
                    "name": "G3",
                    "midi": 55,
                    "time": 284.39982225000057,
                    "velocity": 0.2992125984251969,
                    "duration": 0.13333325000002105
                },
                {
                    "name": "C4",
                    "midi": 60,
                    "time": 284.5331555000006,
                    "velocity": 0.3228346456692913,
                    "duration": 0.13333325000002105
                },
                {
                    "name": "G3",
                    "midi": 55,
                    "time": 284.6664887500006,
                    "velocity": 0.31496062992125984,
                    "duration": 0.13333325000002105
                },
                {
                    "name": "D2",
                    "midi": 38,
                    "time": 284.79982200000063,
                    "velocity": 0.4409448818897638,
                    "duration": 0.0666666249999821
                },
                {
                    "name": "D3",
                    "midi": 50,
                    "time": 284.9331552500006,
                    "velocity": 0.30708661417322836,
                    "duration": 0.13333325000002105
                },
                {
                    "name": "G3",
                    "midi": 55,
                    "time": 285.0664885000006,
                    "velocity": 0.3228346456692913,
                    "duration": 0.13333325000002105
                },
                {
                    "name": "D3",
                    "midi": 50,
                    "time": 285.19982175000064,
                    "velocity": 0.30708661417322836,
                    "duration": 0.13333325000002105
                },
                {
                    "name": "B3",
                    "midi": 59,
                    "time": 285.33315500000066,
                    "velocity": 0.3779527559055118,
                    "duration": 0.13333325000002105
                },
                {
                    "name": "D3",
                    "midi": 50,
                    "time": 285.4664882500007,
                    "velocity": 0.31496062992125984,
                    "duration": 0.13333325000002105
                },
                {
                    "name": "A3",
                    "midi": 57,
                    "time": 285.5998215000007,
                    "velocity": 0.33070866141732286,
                    "duration": 0.13333325000002105
                },
                {
                    "name": "D3",
                    "midi": 50,
                    "time": 285.7331547500007,
                    "velocity": 0.2992125984251969,
                    "duration": 0.13333325000002105
                },
                {
                    "name": "D2",
                    "midi": 38,
                    "time": 285.86648800000074,
                    "velocity": 0.4015748031496063,
                    "duration": 0.0666666249999821
                },
                {
                    "name": "D3",
                    "midi": 50,
                    "time": 285.9998212500007,
                    "velocity": 0.31496062992125984,
                    "duration": 0.13333325000002105
                },
                {
                    "name": "G3",
                    "midi": 55,
                    "time": 286.1331545000007,
                    "velocity": 0.31496062992125984,
                    "duration": 0.13333325000002105
                },
                {
                    "name": "D3",
                    "midi": 50,
                    "time": 286.26648775000075,
                    "velocity": 0.2992125984251969,
                    "duration": 0.13333325000002105
                },
                {
                    "name": "G3",
                    "midi": 55,
                    "time": 286.39982100000077,
                    "velocity": 0.4015748031496063,
                    "duration": 0.13333325000002105
                },
                {
                    "name": "B3",
                    "midi": 59,
                    "time": 286.5331542500008,
                    "velocity": 0.3228346456692913,
                    "duration": 0.13333325000002105
                },
                {
                    "name": "D4",
                    "midi": 62,
                    "time": 286.6664875000008,
                    "velocity": 0.3464566929133858,
                    "duration": 0.13333325000002105
                },
                {
                    "name": "E4",
                    "midi": 64,
                    "time": 286.79982075000083,
                    "velocity": 0.3228346456692913,
                    "duration": 0.13333325000002105
                },
                {
                    "name": "F4",
                    "midi": 65,
                    "time": 286.93315400000085,
                    "velocity": 0.4015748031496063,
                    "duration": 0.2399998500000038
                },
                {
                    "name": "E4",
                    "midi": 64,
                    "time": 287.19982050000084,
                    "velocity": 0.31496062992125984,
                    "duration": 0.2399998500000038
                },
                {
                    "name": "F4",
                    "midi": 65,
                    "time": 287.4664870000008,
                    "velocity": 0.33070866141732286,
                    "duration": 0.13333325000002105
                },
                {
                    "name": "A4",
                    "midi": 69,
                    "time": 287.59982025000085,
                    "velocity": 0.30708661417322836,
                    "duration": 0.13333325000002105
                },
                {
                    "name": "G4",
                    "midi": 67,
                    "time": 287.73315350000087,
                    "velocity": 0.3700787401574803,
                    "duration": 0.2399998500000038
                },
                {
                    "name": "C3",
                    "midi": 48,
                    "time": 287.99982000000085,
                    "velocity": 0.41732283464566927,
                    "duration": 0.0666666249999821
                },
                {
                    "name": "G3",
                    "midi": 55,
                    "time": 288.1331532500008,
                    "velocity": 0.31496062992125984,
                    "duration": 0.13333325000002105
                },
                {
                    "name": "C4",
                    "midi": 60,
                    "time": 288.26648650000084,
                    "velocity": 0.33070866141732286,
                    "duration": 0.13333325000002105
                },
                {
                    "name": "G3",
                    "midi": 55,
                    "time": 288.39981975000086,
                    "velocity": 0.30708661417322836,
                    "duration": 0.13333325000002105
                },
                {
                    "name": "B3",
                    "midi": 59,
                    "time": 288.5331530000009,
                    "velocity": 0.3937007874015748,
                    "duration": 0.13333325000002105
                },
                {
                    "name": "G3",
                    "midi": 55,
                    "time": 288.6664862500009,
                    "velocity": 0.28346456692913385,
                    "duration": 0.13333325000002105
                },
                {
                    "name": "C4",
                    "midi": 60,
                    "time": 288.7998195000009,
                    "velocity": 0.30708661417322836,
                    "duration": 0.13333325000002105
                },
                {
                    "name": "G3",
                    "midi": 55,
                    "time": 288.93315275000094,
                    "velocity": 0.28346456692913385,
                    "duration": 0.13333325000002105
                },
                {
                    "name": "D2",
                    "midi": 38,
                    "time": 289.06648600000096,
                    "velocity": 0.3858267716535433,
                    "duration": 0.0666666249999821
                },
                {
                    "name": "D3",
                    "midi": 50,
                    "time": 289.1998192500009,
                    "velocity": 0.2755905511811024,
                    "duration": 0.13333325000002105
                },
                {
                    "name": "G3",
                    "midi": 55,
                    "time": 289.33315250000095,
                    "velocity": 0.28346456692913385,
                    "duration": 0.13333325000002105
                },
                {
                    "name": "D3",
                    "midi": 50,
                    "time": 289.46648575000097,
                    "velocity": 0.2755905511811024,
                    "duration": 0.13333325000002105
                },
                {
                    "name": "A3",
                    "midi": 57,
                    "time": 289.599819000001,
                    "velocity": 0.33070866141732286,
                    "duration": 0.13333325000002105
                },
                {
                    "name": "D3",
                    "midi": 50,
                    "time": 289.733152250001,
                    "velocity": 0.28346456692913385,
                    "duration": 0.13333325000002105
                },
                {
                    "name": "C4",
                    "midi": 60,
                    "time": 289.86648550000103,
                    "velocity": 0.29133858267716534,
                    "duration": 0.13333325000002105
                },
                {
                    "name": "D3",
                    "midi": 50,
                    "time": 289.99981875000105,
                    "velocity": 0.2677165354330709,
                    "duration": 0.13333325000002105
                },
                {
                    "name": "G2",
                    "midi": 43,
                    "time": 290.1331520000011,
                    "velocity": 0.3543307086614173,
                    "duration": 0.0666666249999821
                },
                {
                    "name": "D3",
                    "midi": 50,
                    "time": 290.26648525000104,
                    "velocity": 0.28346456692913385,
                    "duration": 0.13333325000002105
                },
                {
                    "name": "G3",
                    "midi": 55,
                    "time": 290.39981850000106,
                    "velocity": 0.2992125984251969,
                    "duration": 0.13333325000002105
                },
                {
                    "name": "D3",
                    "midi": 50,
                    "time": 290.5331517500011,
                    "velocity": 0.29133858267716534,
                    "duration": 0.13333325000002105
                },
                {
                    "name": "G3",
                    "midi": 55,
                    "time": 290.6664850000011,
                    "velocity": 0.33070866141732286,
                    "duration": 0.13333325000002105
                },
                {
                    "name": "D3",
                    "midi": 50,
                    "time": 290.7998182500011,
                    "velocity": 0.28346456692913385,
                    "duration": 0.13333325000002105
                },
                {
                    "name": "G2",
                    "midi": 43,
                    "time": 290.93315150000114,
                    "velocity": 0.30708661417322836,
                    "duration": 0.13333325000002105
                },
                {
                    "name": "A2",
                    "midi": 45,
                    "time": 291.06648475000117,
                    "velocity": 0.28346456692913385,
                    "duration": 0.13333325000002105
                },
                {
                    "name": "A#2",
                    "midi": 46,
                    "time": 291.1998180000012,
                    "velocity": 0.4409448818897638,
                    "duration": 0.13333325000002105
                },
                {
                    "name": "A2",
                    "midi": 45,
                    "time": 291.3331512500012,
                    "velocity": 0.3779527559055118,
                    "duration": 0.13333325000002105
                },
                {
                    "name": "G2",
                    "midi": 43,
                    "time": 291.46648450000123,
                    "velocity": 0.3779527559055118,
                    "duration": 0.13333325000002105
                },
                {
                    "name": "A2",
                    "midi": 45,
                    "time": 291.59981775000125,
                    "velocity": 0.3779527559055118,
                    "duration": 0.13333325000002105
                },
                {
                    "name": "A#2",
                    "midi": 46,
                    "time": 291.73315100000127,
                    "velocity": 0.4409448818897638,
                    "duration": 0.13333325000002105
                },
                {
                    "name": "G2",
                    "midi": 43,
                    "time": 291.8664842500013,
                    "velocity": 0.3858267716535433,
                    "duration": 0.13333325000002105
                },
                {
                    "name": "A#2",
                    "midi": 46,
                    "time": 291.9998175000013,
                    "velocity": 0.3858267716535433,
                    "duration": 0.13333325000002105
                },
                {
                    "name": "G2",
                    "midi": 43,
                    "time": 292.13315075000133,
                    "velocity": 0.3858267716535433,
                    "duration": 0.13333325000002105
                },
                {
                    "name": "G3",
                    "midi": 55,
                    "time": 292.26648400000136,
                    "velocity": 0.5118110236220472,
                    "duration": 0.2555553958333121
                },
                {
                    "name": "G2",
                    "midi": 43,
                    "time": 292.53315050000134,
                    "velocity": 0.4015748031496063,
                    "duration": 0.13333325000002105
                },
                {
                    "name": "G2",
                    "midi": 43,
                    "time": 292.7998170000014,
                    "velocity": 0.4094488188976378,
                    "duration": 0.13333325000002105
                },
                {
                    "name": "G2",
                    "midi": 43,
                    "time": 293.0664835000014,
                    "velocity": 0.4094488188976378,
                    "duration": 0.13333325000002105
                },
                {
                    "name": "D#2",
                    "midi": 39,
                    "time": 293.33315000000147,
                    "velocity": 0.4881889763779528,
                    "duration": 0.13333325000002105
                },
                {
                    "name": "D2",
                    "midi": 38,
                    "time": 293.4664832500015,
                    "velocity": 0.3858267716535433,
                    "duration": 0.13333325000002105
                },
                {
                    "name": "C2",
                    "midi": 36,
                    "time": 293.5998165000015,
                    "velocity": 0.3858267716535433,
                    "duration": 0.13333325000002105
                },
                {
                    "name": "D2",
                    "midi": 38,
                    "time": 293.73314975000153,
                    "velocity": 0.3858267716535433,
                    "duration": 0.13333325000002105
                },
                {
                    "name": "D#2",
                    "midi": 39,
                    "time": 293.86648300000155,
                    "velocity": 0.49606299212598426,
                    "duration": 0.13333325000002105
                },
                {
                    "name": "C2",
                    "midi": 36,
                    "time": 293.9998162500016,
                    "velocity": 0.4094488188976378,
                    "duration": 0.13333325000002105
                },
                {
                    "name": "D#2",
                    "midi": 39,
                    "time": 294.1331495000016,
                    "velocity": 0.4094488188976378,
                    "duration": 0.13333325000002105
                },
                {
                    "name": "C2",
                    "midi": 36,
                    "time": 294.2664827500016,
                    "velocity": 0.3937007874015748,
                    "duration": 0.13333325000002105
                },
                {
                    "name": "G2",
                    "midi": 43,
                    "time": 294.39981600000164,
                    "velocity": 0.5118110236220472,
                    "duration": 0.26666649999998526
                },
                {
                    "name": "G1",
                    "midi": 31,
                    "time": 294.6664825000016,
                    "velocity": 0.3779527559055118,
                    "duration": 0.13333325000002105
                },
                {
                    "name": "G1",
                    "midi": 31,
                    "time": 294.93314900000166,
                    "velocity": 0.3779527559055118,
                    "duration": 0.13333325000002105
                },
                {
                    "name": "G1",
                    "midi": 31,
                    "time": 295.1998155000017,
                    "velocity": 0.3779527559055118,
                    "duration": 0.13333325000002105
                },
                {
                    "name": "F3",
                    "midi": 53,
                    "time": 295.46648200000175,
                    "velocity": 0.4409448818897638,
                    "duration": 0.13333325000002105
                },
                {
                    "name": "F2",
                    "midi": 41,
                    "time": 295.46648200000175,
                    "velocity": 0.4409448818897638,
                    "duration": 0.13333325000002105
                },
                {
                    "name": "G#3",
                    "midi": 56,
                    "time": 295.7331485000018,
                    "velocity": 0.3858267716535433,
                    "duration": 0.13333325000002105
                },
                {
                    "name": "G#2",
                    "midi": 44,
                    "time": 295.7331485000018,
                    "velocity": 0.44881889763779526,
                    "duration": 0.13333325000002105
                },
                {
                    "name": "B2",
                    "midi": 47,
                    "time": 295.99981500000183,
                    "velocity": 0.4645669291338583,
                    "duration": 0.13333325000002105
                },
                {
                    "name": "B3",
                    "midi": 59,
                    "time": 295.99981500000183,
                    "velocity": 0.4645669291338583,
                    "duration": 0.13333325000002105
                },
                {
                    "name": "D3",
                    "midi": 50,
                    "time": 296.2664815000019,
                    "velocity": 0.4881889763779528,
                    "duration": 0.13333325000002105
                },
                {
                    "name": "D4",
                    "midi": 62,
                    "time": 296.2664815000019,
                    "velocity": 0.4251968503937008,
                    "duration": 0.13333325000002105
                },
                {
                    "name": "F#2",
                    "midi": 42,
                    "time": 296.5331480000019,
                    "velocity": 0.5039370078740157,
                    "duration": 0.26666649999998526
                },
                {
                    "name": "D3",
                    "midi": 50,
                    "time": 296.5331480000019,
                    "velocity": 0.5039370078740157,
                    "duration": 0.26666649999998526
                },
                {
                    "name": "B2",
                    "midi": 47,
                    "time": 296.5331480000019,
                    "velocity": 0.5039370078740157,
                    "duration": 0.26666649999998526
                },
                {
                    "name": "F#3",
                    "midi": 54,
                    "time": 296.5331480000019,
                    "velocity": 0.5905511811023622,
                    "duration": 0.26666649999998526
                },
                {
                    "name": "F#3",
                    "midi": 54,
                    "time": 296.7998145000019,
                    "velocity": 0.3700787401574803,
                    "duration": 0.13333325000002105
                },
                {
                    "name": "B3",
                    "midi": 59,
                    "time": 296.7998145000019,
                    "velocity": 0.4409448818897638,
                    "duration": 0.13333325000002105
                },
                {
                    "name": "F#3",
                    "midi": 54,
                    "time": 297.06648100000194,
                    "velocity": 0.3700787401574803,
                    "duration": 0.13333325000002105
                },
                {
                    "name": "B3",
                    "midi": 59,
                    "time": 297.06648100000194,
                    "velocity": 0.4409448818897638,
                    "duration": 0.13333325000002105
                },
                {
                    "name": "B3",
                    "midi": 59,
                    "time": 297.333147500002,
                    "velocity": 0.4409448818897638,
                    "duration": 0.13333325000002105
                },
                {
                    "name": "F#3",
                    "midi": 54,
                    "time": 297.333147500002,
                    "velocity": 0.3700787401574803,
                    "duration": 0.13333325000002105
                },
                {
                    "name": "E3",
                    "midi": 52,
                    "time": 297.599814000002,
                    "velocity": 0.3700787401574803,
                    "duration": 0.13333325000002105
                },
                {
                    "name": "B3",
                    "midi": 59,
                    "time": 297.599814000002,
                    "velocity": 0.3700787401574803,
                    "duration": 0.13333325000002105
                },
                {
                    "name": "E3",
                    "midi": 52,
                    "time": 297.86648050000207,
                    "velocity": 0.3700787401574803,
                    "duration": 0.13333325000002105
                },
                {
                    "name": "B3",
                    "midi": 59,
                    "time": 297.86648050000207,
                    "velocity": 0.31496062992125984,
                    "duration": 0.13333325000002105
                },
                {
                    "name": "F#3",
                    "midi": 54,
                    "time": 298.1331470000021,
                    "velocity": 0.3700787401574803,
                    "duration": 0.13333325000002105
                },
                {
                    "name": "A#3",
                    "midi": 58,
                    "time": 298.1331470000021,
                    "velocity": 0.3700787401574803,
                    "duration": 0.13333325000002105
                },
                {
                    "name": "F#3",
                    "midi": 54,
                    "time": 298.39981350000215,
                    "velocity": 0.3700787401574803,
                    "duration": 0.13333325000002105
                },
                {
                    "name": "A#3",
                    "midi": 58,
                    "time": 298.39981350000215,
                    "velocity": 0.3228346456692913,
                    "duration": 0.13333325000002105
                },
                {
                    "name": "F#3",
                    "midi": 54,
                    "time": 298.6664800000022,
                    "velocity": 0.4566929133858268,
                    "duration": 0.13333325000002105
                },
                {
                    "name": "B2",
                    "midi": 47,
                    "time": 298.6664800000022,
                    "velocity": 0.3858267716535433,
                    "duration": 0.13333325000002105
                },
                {
                    "name": "D3",
                    "midi": 50,
                    "time": 298.93314650000224,
                    "velocity": 0.3937007874015748,
                    "duration": 0.13333325000002105
                },
                {
                    "name": "D2",
                    "midi": 38,
                    "time": 299.1998130000023,
                    "velocity": 0.3858267716535433,
                    "duration": 0.13333325000002105
                },
                {
                    "name": "D3",
                    "midi": 50,
                    "time": 299.1998130000023,
                    "velocity": 0.4645669291338583,
                    "duration": 0.13333325000002105
                },
                {
                    "name": "D3",
                    "midi": 50,
                    "time": 299.4664795000023,
                    "velocity": 0.4881889763779528,
                    "duration": 0.13333325000002105
                },
                {
                    "name": "A#2",
                    "midi": 46,
                    "time": 299.73314600000236,
                    "velocity": 0.5039370078740157,
                    "duration": 0.13333325000002105
                },
                {
                    "name": "A2",
                    "midi": 45,
                    "time": 299.8664792500024,
                    "velocity": 0.4330708661417323,
                    "duration": 0.13333325000002105
                },
                {
                    "name": "G2",
                    "midi": 43,
                    "time": 299.9998125000024,
                    "velocity": 0.4330708661417323,
                    "duration": 0.13333325000002105
                },
                {
                    "name": "A2",
                    "midi": 45,
                    "time": 300.1331457500024,
                    "velocity": 0.4330708661417323,
                    "duration": 0.13333325000002105
                },
                {
                    "name": "A#2",
                    "midi": 46,
                    "time": 300.26647900000245,
                    "velocity": 0.5039370078740157,
                    "duration": 0.13333325000002105
                },
                {
                    "name": "G2",
                    "midi": 43,
                    "time": 300.39981225000247,
                    "velocity": 0.4409448818897638,
                    "duration": 0.13333325000002105
                },
                {
                    "name": "A#2",
                    "midi": 46,
                    "time": 300.5331455000025,
                    "velocity": 0.4409448818897638,
                    "duration": 0.13333325000002105
                },
                {
                    "name": "G2",
                    "midi": 43,
                    "time": 300.6664787500025,
                    "velocity": 0.4409448818897638,
                    "duration": 0.13333325000002105
                },
                {
                    "name": "G3",
                    "midi": 55,
                    "time": 300.79981200000253,
                    "velocity": 0.5118110236220472,
                    "duration": 0.2555553958333121
                },
                {
                    "name": "G2",
                    "midi": 43,
                    "time": 301.0664785000025,
                    "velocity": 0.4015748031496063,
                    "duration": 0.13333325000002105
                },
                {
                    "name": "G2",
                    "midi": 43,
                    "time": 301.33314500000256,
                    "velocity": 0.4094488188976378,
                    "duration": 0.13333325000002105
                },
                {
                    "name": "G2",
                    "midi": 43,
                    "time": 301.5998115000026,
                    "velocity": 0.4094488188976378,
                    "duration": 0.13333325000002105
                },
                {
                    "name": "D#2",
                    "midi": 39,
                    "time": 301.86647800000264,
                    "velocity": 0.4881889763779528,
                    "duration": 0.13333325000002105
                },
                {
                    "name": "D2",
                    "midi": 38,
                    "time": 301.99981125000267,
                    "velocity": 0.3858267716535433,
                    "duration": 0.13333325000002105
                },
                {
                    "name": "C2",
                    "midi": 36,
                    "time": 302.1331445000027,
                    "velocity": 0.3858267716535433,
                    "duration": 0.13333325000002105
                },
                {
                    "name": "D2",
                    "midi": 38,
                    "time": 302.2664777500027,
                    "velocity": 0.3858267716535433,
                    "duration": 0.13333325000002105
                },
                {
                    "name": "D#2",
                    "midi": 39,
                    "time": 302.3998110000027,
                    "velocity": 0.49606299212598426,
                    "duration": 0.13333325000002105
                },
                {
                    "name": "C2",
                    "midi": 36,
                    "time": 302.53314425000275,
                    "velocity": 0.4094488188976378,
                    "duration": 0.13333325000002105
                },
                {
                    "name": "D#2",
                    "midi": 39,
                    "time": 302.66647750000277,
                    "velocity": 0.4094488188976378,
                    "duration": 0.13333325000002105
                },
                {
                    "name": "C2",
                    "midi": 36,
                    "time": 302.7998107500028,
                    "velocity": 0.3937007874015748,
                    "duration": 0.13333325000002105
                },
                {
                    "name": "G2",
                    "midi": 43,
                    "time": 302.9331440000028,
                    "velocity": 0.5118110236220472,
                    "duration": 0.26666649999998526
                },
                {
                    "name": "G1",
                    "midi": 31,
                    "time": 303.1998105000028,
                    "velocity": 0.3779527559055118,
                    "duration": 0.13333325000002105
                },
                {
                    "name": "G1",
                    "midi": 31,
                    "time": 303.46647700000284,
                    "velocity": 0.3779527559055118,
                    "duration": 0.13333325000002105
                },
                {
                    "name": "G1",
                    "midi": 31,
                    "time": 303.7331435000029,
                    "velocity": 0.3779527559055118,
                    "duration": 0.13333325000002105
                },
                {
                    "name": "G#1",
                    "midi": 32,
                    "time": 303.9998100000029,
                    "velocity": 0.48031496062992124,
                    "duration": 0.13333325000002105
                },
                {
                    "name": "G#2",
                    "midi": 44,
                    "time": 303.9998100000029,
                    "velocity": 0.48031496062992124,
                    "duration": 0.13333325000002105
                },
                {
                    "name": "B2",
                    "midi": 47,
                    "time": 304.26647650000297,
                    "velocity": 0.41732283464566927,
                    "duration": 0.13333325000002105
                },
                {
                    "name": "B1",
                    "midi": 35,
                    "time": 304.26647650000297,
                    "velocity": 0.4881889763779528,
                    "duration": 0.13333325000002105
                },
                {
                    "name": "D3",
                    "midi": 50,
                    "time": 304.533143000003,
                    "velocity": 0.5039370078740157,
                    "duration": 0.13333325000002105
                },
                {
                    "name": "D2",
                    "midi": 38,
                    "time": 304.533143000003,
                    "velocity": 0.5039370078740157,
                    "duration": 0.13333325000002105
                },
                {
                    "name": "F2",
                    "midi": 41,
                    "time": 304.79980950000305,
                    "velocity": 0.5354330708661418,
                    "duration": 0.13333325000002105
                },
                {
                    "name": "F3",
                    "midi": 53,
                    "time": 304.79980950000305,
                    "velocity": 0.4645669291338583,
                    "duration": 0.13333325000002105
                },
                {
                    "name": "F3",
                    "midi": 53,
                    "time": 305.0664760000031,
                    "velocity": 0.5039370078740157,
                    "duration": 0.26666649999998526
                },
                {
                    "name": "A3",
                    "midi": 57,
                    "time": 305.0664760000031,
                    "velocity": 0.5905511811023622,
                    "duration": 0.26444427916663926
                },
                {
                    "name": "A2",
                    "midi": 45,
                    "time": 305.0664760000031,
                    "velocity": 0.5039370078740157,
                    "duration": 0.26666649999998526
                },
                {
                    "name": "D3",
                    "midi": 50,
                    "time": 305.0664760000031,
                    "velocity": 0.5039370078740157,
                    "duration": 0.26666649999998526
                },
                {
                    "name": "A3",
                    "midi": 57,
                    "time": 305.3331425000031,
                    "velocity": 0.4015748031496063,
                    "duration": 0.13333325000002105
                },
                {
                    "name": "D4",
                    "midi": 62,
                    "time": 305.3331425000031,
                    "velocity": 0.48031496062992124,
                    "duration": 0.13333325000002105
                },
                {
                    "name": "D4",
                    "midi": 62,
                    "time": 305.5998090000031,
                    "velocity": 0.48031496062992124,
                    "duration": 0.13333325000002105
                },
                {
                    "name": "A3",
                    "midi": 57,
                    "time": 305.5998090000031,
                    "velocity": 0.4015748031496063,
                    "duration": 0.13333325000002105
                },
                {
                    "name": "A3",
                    "midi": 57,
                    "time": 305.86647550000316,
                    "velocity": 0.4015748031496063,
                    "duration": 0.13333325000002105
                },
                {
                    "name": "D4",
                    "midi": 62,
                    "time": 305.86647550000316,
                    "velocity": 0.48031496062992124,
                    "duration": 0.13333325000002105
                },
                {
                    "name": "D4",
                    "midi": 62,
                    "time": 306.1331420000032,
                    "velocity": 0.3700787401574803,
                    "duration": 0.13333325000002105
                },
                {
                    "name": "G3",
                    "midi": 55,
                    "time": 306.1331420000032,
                    "velocity": 0.3700787401574803,
                    "duration": 0.13333325000002105
                },
                {
                    "name": "G3",
                    "midi": 55,
                    "time": 306.39980850000325,
                    "velocity": 0.3700787401574803,
                    "duration": 0.13333325000002105
                },
                {
                    "name": "D4",
                    "midi": 62,
                    "time": 306.39980850000325,
                    "velocity": 0.31496062992125984,
                    "duration": 0.13333325000002105
                },
                {
                    "name": "C#4",
                    "midi": 61,
                    "time": 306.6664750000033,
                    "velocity": 0.3700787401574803,
                    "duration": 0.13333325000002105
                },
                {
                    "name": "A3",
                    "midi": 57,
                    "time": 306.6664750000033,
                    "velocity": 0.3700787401574803,
                    "duration": 0.13333325000002105
                },
                {
                    "name": "A3",
                    "midi": 57,
                    "time": 306.93314150000333,
                    "velocity": 0.3700787401574803,
                    "duration": 0.13333325000002105
                },
                {
                    "name": "C#4",
                    "midi": 61,
                    "time": 306.93314150000333,
                    "velocity": 0.3228346456692913,
                    "duration": 0.13333325000002105
                },
                {
                    "name": "D3",
                    "midi": 50,
                    "time": 307.1998080000034,
                    "velocity": 0.3858267716535433,
                    "duration": 0.26444427916663926
                },
                {
                    "name": "A3",
                    "midi": 57,
                    "time": 307.1998080000034,
                    "velocity": 0.4566929133858268,
                    "duration": 0.26666649999998526
                },
                {
                    "name": "D3",
                    "midi": 50,
                    "time": 307.46647450000336,
                    "velocity": 0.3937007874015748,
                    "duration": 0.13333325000002105
                },
                {
                    "name": "D3",
                    "midi": 50,
                    "time": 307.7331410000034,
                    "velocity": 0.4645669291338583,
                    "duration": 0.13333325000002105
                },
                {
                    "name": "D3",
                    "midi": 50,
                    "time": 307.99980750000344,
                    "velocity": 0.4881889763779528,
                    "duration": 0.13333325000002105
                },
                {
                    "name": "C4",
                    "midi": 60,
                    "time": 308.2664740000035,
                    "velocity": 0.3700787401574803,
                    "duration": 0.5333330000000274
                },
                {
                    "name": "F3",
                    "midi": 53,
                    "time": 308.2664740000035,
                    "velocity": 0.3700787401574803,
                    "duration": 0.5333330000000274
                },
                {
                    "name": "C3",
                    "midi": 48,
                    "time": 309.33314000000354,
                    "velocity": 0.47244094488188976,
                    "duration": 0.13333325000002105
                },
                {
                    "name": "B2",
                    "midi": 47,
                    "time": 309.46647325000356,
                    "velocity": 0.4251968503937008,
                    "duration": 0.13333325000002105
                },
                {
                    "name": "D3",
                    "midi": 50,
                    "time": 309.5998065000036,
                    "velocity": 0.47244094488188976,
                    "duration": 0.13333325000002105
                },
                {
                    "name": "C3",
                    "midi": 48,
                    "time": 309.7331397500036,
                    "velocity": 0.4251968503937008,
                    "duration": 0.1222221458333479
                },
                {
                    "name": "C3",
                    "midi": 48,
                    "time": 309.8664730000036,
                    "velocity": 0.4645669291338583,
                    "duration": 0.13333325000002105
                },
                {
                    "name": "C3",
                    "midi": 48,
                    "time": 310.13313950000367,
                    "velocity": 0.4409448818897638,
                    "duration": 0.13333325000002105
                },
                {
                    "name": "G3",
                    "midi": 55,
                    "time": 310.3998060000037,
                    "velocity": 0.5196850393700787,
                    "duration": 0.26666649999998526
                },
                {
                    "name": "D3",
                    "midi": 50,
                    "time": 310.6664725000037,
                    "velocity": 0.4330708661417323,
                    "duration": 0.13333325000002105
                },
                {
                    "name": "D3",
                    "midi": 50,
                    "time": 310.93313900000373,
                    "velocity": 0.4330708661417323,
                    "duration": 0.13333325000002105
                },
                {
                    "name": "C#3",
                    "midi": 49,
                    "time": 311.1998055000038,
                    "velocity": 0.4330708661417323,
                    "duration": 0.13333325000002105
                },
                {
                    "name": "D3",
                    "midi": 50,
                    "time": 311.4664720000038,
                    "velocity": 0.49606299212598426,
                    "duration": 0.13333325000002105
                },
                {
                    "name": "C#3",
                    "midi": 49,
                    "time": 311.59980525000384,
                    "velocity": 0.4409448818897638,
                    "duration": 0.13333325000002105
                },
                {
                    "name": "E3",
                    "midi": 52,
                    "time": 311.73313850000386,
                    "velocity": 0.49606299212598426,
                    "duration": 0.13333325000002105
                },
                {
                    "name": "D3",
                    "midi": 50,
                    "time": 311.8664717500039,
                    "velocity": 0.4409448818897638,
                    "duration": 0.1222221458333479
                },
                {
                    "name": "D3",
                    "midi": 50,
                    "time": 311.9998050000039,
                    "velocity": 0.48031496062992124,
                    "duration": 0.13333325000002105
                },
                {
                    "name": "D3",
                    "midi": 50,
                    "time": 312.26647150000395,
                    "velocity": 0.4566929133858268,
                    "duration": 0.13333325000002105
                },
                {
                    "name": "A#3",
                    "midi": 58,
                    "time": 312.533138000004,
                    "velocity": 0.5433070866141733,
                    "duration": 0.26666649999998526
                },
                {
                    "name": "F3",
                    "midi": 53,
                    "time": 312.799804500004,
                    "velocity": 0.44881889763779526,
                    "duration": 0.13333325000002105
                },
                {
                    "name": "F3",
                    "midi": 53,
                    "time": 313.066471000004,
                    "velocity": 0.44881889763779526,
                    "duration": 0.13333325000002105
                },
                {
                    "name": "F3",
                    "midi": 53,
                    "time": 313.33313750000406,
                    "velocity": 0.44881889763779526,
                    "duration": 0.13333325000002105
                },
                {
                    "name": "F3",
                    "midi": 53,
                    "time": 313.5998040000041,
                    "velocity": 0.5196850393700787,
                    "duration": 0.13333325000002105
                },
                {
                    "name": "E3",
                    "midi": 52,
                    "time": 313.7331372500041,
                    "velocity": 0.4566929133858268,
                    "duration": 0.13333325000002105
                },
                {
                    "name": "G3",
                    "midi": 55,
                    "time": 313.86647050000414,
                    "velocity": 0.5196850393700787,
                    "duration": 0.13333325000002105
                },
                {
                    "name": "F3",
                    "midi": 53,
                    "time": 313.99980375000416,
                    "velocity": 0.4566929133858268,
                    "duration": 0.1222221458333479
                },
                {
                    "name": "F3",
                    "midi": 53,
                    "time": 314.1331370000042,
                    "velocity": 0.5039370078740157,
                    "duration": 0.13333325000002105
                },
                {
                    "name": "F3",
                    "midi": 53,
                    "time": 314.3998035000042,
                    "velocity": 0.47244094488188976,
                    "duration": 0.13333325000002105
                },
                {
                    "name": "E3",
                    "midi": 52,
                    "time": 314.66647000000427,
                    "velocity": 0.5196850393700787,
                    "duration": 0.5333330000000274
                },
                {
                    "name": "G3",
                    "midi": 55,
                    "time": 314.93313650000425,
                    "velocity": 0.5196850393700787,
                    "duration": 0.13333325000002105
                },
                {
                    "name": "E3",
                    "midi": 52,
                    "time": 315.1998030000043,
                    "velocity": 0.4251968503937008,
                    "duration": 0.13333325000002105
                },
                {
                    "name": "C4",
                    "midi": 60,
                    "time": 315.1998030000043,
                    "velocity": 0.5039370078740157,
                    "duration": 0.13333325000002105
                },
                {
                    "name": "E3",
                    "midi": 52,
                    "time": 315.46646950000434,
                    "velocity": 0.4015748031496063,
                    "duration": 0.13333325000002105
                },
                {
                    "name": "C4",
                    "midi": 60,
                    "time": 315.46646950000434,
                    "velocity": 0.47244094488188976,
                    "duration": 0.13333325000002105
                },
                {
                    "name": "C4",
                    "midi": 60,
                    "time": 315.7331360000044,
                    "velocity": 0.5118110236220472,
                    "duration": 0.26666649999998526
                },
                {
                    "name": "F3",
                    "midi": 53,
                    "time": 315.7331360000044,
                    "velocity": 0.4409448818897638,
                    "duration": 0.5333330000000274
                },
                {
                    "name": "A#3",
                    "midi": 58,
                    "time": 315.99980250000436,
                    "velocity": 0.4251968503937008,
                    "duration": 0.13333325000002105
                },
                {
                    "name": "A3",
                    "midi": 57,
                    "time": 316.1331357500044,
                    "velocity": 0.3779527559055118,
                    "duration": 0.13333325000002105
                },
                {
                    "name": "A3",
                    "midi": 57,
                    "time": 316.2664690000044,
                    "velocity": 0.4251968503937008,
                    "duration": 0.13333325000002105
                },
                {
                    "name": "F3",
                    "midi": 53,
                    "time": 316.2664690000044,
                    "velocity": 0.3543307086614173,
                    "duration": 0.13333325000002105
                },
                {
                    "name": "A3",
                    "midi": 57,
                    "time": 316.53313550000445,
                    "velocity": 0.4251968503937008,
                    "duration": 0.13333325000002105
                },
                {
                    "name": "F3",
                    "midi": 53,
                    "time": 316.53313550000445,
                    "velocity": 0.3543307086614173,
                    "duration": 0.13333325000002105
                },
                {
                    "name": "A#2",
                    "midi": 46,
                    "time": 316.7998020000045,
                    "velocity": 0.4881889763779528,
                    "duration": 0.13333325000002105
                },
                {
                    "name": "A2",
                    "midi": 45,
                    "time": 316.9331352500045,
                    "velocity": 0.4330708661417323,
                    "duration": 0.13333325000002105
                },
                {
                    "name": "C3",
                    "midi": 48,
                    "time": 317.06646850000453,
                    "velocity": 0.4881889763779528,
                    "duration": 0.13333325000002105
                },
                {
                    "name": "A#2",
                    "midi": 46,
                    "time": 317.19980175000455,
                    "velocity": 0.4330708661417323,
                    "duration": 0.1222221458333479
                },
                {
                    "name": "C3",
                    "midi": 48,
                    "time": 317.3331350000046,
                    "velocity": 0.47244094488188976,
                    "duration": 0.13333325000002105
                },
                {
                    "name": "C3",
                    "midi": 48,
                    "time": 317.5998015000046,
                    "velocity": 0.44881889763779526,
                    "duration": 0.13333325000002105
                },
                {
                    "name": "F2",
                    "midi": 41,
                    "time": 317.86646800000466,
                    "velocity": 0.4409448818897638,
                    "duration": 0.5333330000000274
                },
                {
                    "name": "F2",
                    "midi": 41,
                    "time": 318.3998010000047,
                    "velocity": 0.4251968503937008,
                    "duration": 0.13333325000002105
                },
                {
                    "name": "D#2",
                    "midi": 39,
                    "time": 318.6664675000047,
                    "velocity": 0.4015748031496063,
                    "duration": 0.13333325000002105
                },
                {
                    "name": "D2",
                    "midi": 38,
                    "time": 318.93313400000477,
                    "velocity": 0.49606299212598426,
                    "duration": 0.13333325000002105
                },
                {
                    "name": "D2",
                    "midi": 38,
                    "time": 319.1998005000048,
                    "velocity": 0.4566929133858268,
                    "duration": 0.13333325000002105
                },
                {
                    "name": "D2",
                    "midi": 38,
                    "time": 319.46646700000485,
                    "velocity": 0.4566929133858268,
                    "duration": 0.13333325000002105
                },
                {
                    "name": "D2",
                    "midi": 38,
                    "time": 319.7331335000049,
                    "velocity": 0.4566929133858268,
                    "duration": 0.13333325000002105
                },
                {
                    "name": "C4",
                    "midi": 60,
                    "time": 319.99980000000494,
                    "velocity": 0.5433070866141733,
                    "duration": 0.13333325000002105
                },
                {
                    "name": "A3",
                    "midi": 57,
                    "time": 319.99980000000494,
                    "velocity": 0.4566929133858268,
                    "duration": 0.13333325000002105
                },
                {
                    "name": "D3",
                    "midi": 50,
                    "time": 319.99980000000494,
                    "velocity": 0.4566929133858268,
                    "duration": 0.13333325000002105
                },
                {
                    "name": "A3",
                    "midi": 57,
                    "time": 320.266466500005,
                    "velocity": 0.4015748031496063,
                    "duration": 0.13333325000002105
                },
                {
                    "name": "D3",
                    "midi": 50,
                    "time": 320.266466500005,
                    "velocity": 0.4015748031496063,
                    "duration": 0.13333325000002105
                },
                {
                    "name": "C4",
                    "midi": 60,
                    "time": 320.266466500005,
                    "velocity": 0.47244094488188976,
                    "duration": 0.13333325000002105
                },
                {
                    "name": "A3",
                    "midi": 57,
                    "time": 320.533133000005,
                    "velocity": 0.4015748031496063,
                    "duration": 0.13333325000002105
                },
                {
                    "name": "D3",
                    "midi": 50,
                    "time": 320.533133000005,
                    "velocity": 0.4015748031496063,
                    "duration": 0.13333325000002105
                },
                {
                    "name": "C4",
                    "midi": 60,
                    "time": 320.533133000005,
                    "velocity": 0.47244094488188976,
                    "duration": 0.13333325000002105
                },
                {
                    "name": "D3",
                    "midi": 50,
                    "time": 320.79979950000507,
                    "velocity": 0.4015748031496063,
                    "duration": 0.13333325000002105
                },
                {
                    "name": "A3",
                    "midi": 57,
                    "time": 320.79979950000507,
                    "velocity": 0.4015748031496063,
                    "duration": 0.13333325000002105
                },
                {
                    "name": "C4",
                    "midi": 60,
                    "time": 320.79979950000507,
                    "velocity": 0.47244094488188976,
                    "duration": 0.13333325000002105
                },
                {
                    "name": "A#2",
                    "midi": 46,
                    "time": 321.0664660000051,
                    "velocity": 0.5039370078740157,
                    "duration": 0.13333325000002105
                },
                {
                    "name": "A2",
                    "midi": 45,
                    "time": 321.1997992500051,
                    "velocity": 0.4330708661417323,
                    "duration": 0.13333325000002105
                },
                {
                    "name": "G2",
                    "midi": 43,
                    "time": 321.33313250000515,
                    "velocity": 0.4330708661417323,
                    "duration": 0.13333325000002105
                },
                {
                    "name": "A2",
                    "midi": 45,
                    "time": 321.46646575000517,
                    "velocity": 0.4330708661417323,
                    "duration": 0.13333325000002105
                },
                {
                    "name": "A#2",
                    "midi": 46,
                    "time": 321.5997990000052,
                    "velocity": 0.5039370078740157,
                    "duration": 0.13333325000002105
                },
                {
                    "name": "G2",
                    "midi": 43,
                    "time": 321.7331322500052,
                    "velocity": 0.4409448818897638,
                    "duration": 0.13333325000002105
                },
                {
                    "name": "A#2",
                    "midi": 46,
                    "time": 321.86646550000523,
                    "velocity": 0.4409448818897638,
                    "duration": 0.13333325000002105
                },
                {
                    "name": "G2",
                    "midi": 43,
                    "time": 321.99979875000525,
                    "velocity": 0.4409448818897638,
                    "duration": 0.13333325000002105
                },
                {
                    "name": "G3",
                    "midi": 55,
                    "time": 322.1331320000053,
                    "velocity": 0.5118110236220472,
                    "duration": 0.2555553958333121
                },
                {
                    "name": "G2",
                    "midi": 43,
                    "time": 322.39979850000526,
                    "velocity": 0.4015748031496063,
                    "duration": 0.13333325000002105
                },
                {
                    "name": "G2",
                    "midi": 43,
                    "time": 322.6664650000053,
                    "velocity": 0.4094488188976378,
                    "duration": 0.13333325000002105
                },
                {
                    "name": "G2",
                    "midi": 43,
                    "time": 322.93313150000535,
                    "velocity": 0.4094488188976378,
                    "duration": 0.13333325000002105
                },
                {
                    "name": "D#2",
                    "midi": 39,
                    "time": 323.1997980000054,
                    "velocity": 0.4881889763779528,
                    "duration": 0.13333325000002105
                },
                {
                    "name": "D2",
                    "midi": 38,
                    "time": 323.3331312500054,
                    "velocity": 0.3858267716535433,
                    "duration": 0.13333325000002105
                },
                {
                    "name": "C2",
                    "midi": 36,
                    "time": 323.46646450000543,
                    "velocity": 0.3858267716535433,
                    "duration": 0.13333325000002105
                },
                {
                    "name": "D2",
                    "midi": 38,
                    "time": 323.59979775000545,
                    "velocity": 0.3858267716535433,
                    "duration": 0.13333325000002105
                },
                {
                    "name": "D#2",
                    "midi": 39,
                    "time": 323.73313100000547,
                    "velocity": 0.49606299212598426,
                    "duration": 0.13333325000002105
                },
                {
                    "name": "C2",
                    "midi": 36,
                    "time": 323.8664642500055,
                    "velocity": 0.4094488188976378,
                    "duration": 0.13333325000002105
                },
                {
                    "name": "D#2",
                    "midi": 39,
                    "time": 323.9997975000055,
                    "velocity": 0.4094488188976378,
                    "duration": 0.13333325000002105
                },
                {
                    "name": "C2",
                    "midi": 36,
                    "time": 324.13313075000553,
                    "velocity": 0.3937007874015748,
                    "duration": 0.13333325000002105
                },
                {
                    "name": "G2",
                    "midi": 43,
                    "time": 324.26646400000556,
                    "velocity": 0.5118110236220472,
                    "duration": 0.26666649999998526
                },
                {
                    "name": "G1",
                    "midi": 31,
                    "time": 324.53313050000554,
                    "velocity": 0.3779527559055118,
                    "duration": 0.13333325000002105
                },
                {
                    "name": "G1",
                    "midi": 31,
                    "time": 324.7997970000056,
                    "velocity": 0.3779527559055118,
                    "duration": 0.13333325000002105
                },
                {
                    "name": "G1",
                    "midi": 31,
                    "time": 325.0664635000056,
                    "velocity": 0.3779527559055118,
                    "duration": 0.13333325000002105
                },
                {
                    "name": "F3",
                    "midi": 53,
                    "time": 325.33313000000567,
                    "velocity": 0.4409448818897638,
                    "duration": 0.13333325000002105
                },
                {
                    "name": "F2",
                    "midi": 41,
                    "time": 325.33313000000567,
                    "velocity": 0.4409448818897638,
                    "duration": 0.13333325000002105
                },
                {
                    "name": "G#2",
                    "midi": 44,
                    "time": 325.5997965000057,
                    "velocity": 0.44881889763779526,
                    "duration": 0.13333325000002105
                },
                {
                    "name": "G#3",
                    "midi": 56,
                    "time": 325.5997965000057,
                    "velocity": 0.3858267716535433,
                    "duration": 0.13333325000002105
                },
                {
                    "name": "B3",
                    "midi": 59,
                    "time": 325.86646300000575,
                    "velocity": 0.4645669291338583,
                    "duration": 0.13333325000002105
                },
                {
                    "name": "B2",
                    "midi": 47,
                    "time": 325.86646300000575,
                    "velocity": 0.4645669291338583,
                    "duration": 0.13333325000002105
                },
                {
                    "name": "D4",
                    "midi": 62,
                    "time": 326.1331295000058,
                    "velocity": 0.4251968503937008,
                    "duration": 0.13333325000002105
                },
                {
                    "name": "D3",
                    "midi": 50,
                    "time": 326.1331295000058,
                    "velocity": 0.4881889763779528,
                    "duration": 0.13333325000002105
                },
                {
                    "name": "B2",
                    "midi": 47,
                    "time": 326.39979600000584,
                    "velocity": 0.5039370078740157,
                    "duration": 0.26666649999998526
                },
                {
                    "name": "F#2",
                    "midi": 42,
                    "time": 326.39979600000584,
                    "velocity": 0.5039370078740157,
                    "duration": 0.26666649999998526
                },
                {
                    "name": "D3",
                    "midi": 50,
                    "time": 326.39979600000584,
                    "velocity": 0.5039370078740157,
                    "duration": 0.26666649999998526
                },
                {
                    "name": "F#3",
                    "midi": 54,
                    "time": 326.39979600000584,
                    "velocity": 0.5905511811023622,
                    "duration": 0.26444427916663926
                },
                {
                    "name": "F#3",
                    "midi": 54,
                    "time": 326.6664625000058,
                    "velocity": 0.3700787401574803,
                    "duration": 0.13333325000002105
                },
                {
                    "name": "B3",
                    "midi": 59,
                    "time": 326.6664625000058,
                    "velocity": 0.4409448818897638,
                    "duration": 0.13333325000002105
                },
                {
                    "name": "F#3",
                    "midi": 54,
                    "time": 326.93312900000586,
                    "velocity": 0.3700787401574803,
                    "duration": 0.13333325000002105
                },
                {
                    "name": "B3",
                    "midi": 59,
                    "time": 326.93312900000586,
                    "velocity": 0.4409448818897638,
                    "duration": 0.13333325000002105
                },
                {
                    "name": "F#3",
                    "midi": 54,
                    "time": 327.1997955000059,
                    "velocity": 0.3700787401574803,
                    "duration": 0.13333325000002105
                },
                {
                    "name": "B3",
                    "midi": 59,
                    "time": 327.1997955000059,
                    "velocity": 0.4409448818897638,
                    "duration": 0.13333325000002105
                },
                {
                    "name": "E3",
                    "midi": 52,
                    "time": 327.46646200000595,
                    "velocity": 0.3700787401574803,
                    "duration": 0.13333325000002105
                },
                {
                    "name": "B3",
                    "midi": 59,
                    "time": 327.46646200000595,
                    "velocity": 0.3700787401574803,
                    "duration": 0.13333325000002105
                },
                {
                    "name": "B3",
                    "midi": 59,
                    "time": 327.733128500006,
                    "velocity": 0.31496062992125984,
                    "duration": 0.13333325000002105
                },
                {
                    "name": "E3",
                    "midi": 52,
                    "time": 327.733128500006,
                    "velocity": 0.3700787401574803,
                    "duration": 0.13333325000002105
                },
                {
                    "name": "A#3",
                    "midi": 58,
                    "time": 327.99979500000603,
                    "velocity": 0.3700787401574803,
                    "duration": 0.13333325000002105
                },
                {
                    "name": "F#3",
                    "midi": 54,
                    "time": 327.99979500000603,
                    "velocity": 0.3700787401574803,
                    "duration": 0.13333325000002105
                },
                {
                    "name": "A#3",
                    "midi": 58,
                    "time": 328.2664615000061,
                    "velocity": 0.3228346456692913,
                    "duration": 0.13333325000002105
                },
                {
                    "name": "F#3",
                    "midi": 54,
                    "time": 328.2664615000061,
                    "velocity": 0.3700787401574803,
                    "duration": 0.13333325000002105
                },
                {
                    "name": "B2",
                    "midi": 47,
                    "time": 328.5331280000061,
                    "velocity": 0.3858267716535433,
                    "duration": 0.26666649999998526
                },
                {
                    "name": "F#3",
                    "midi": 54,
                    "time": 328.5331280000061,
                    "velocity": 0.4566929133858268,
                    "duration": 0.26666649999998526
                },
                {
                    "name": "D3",
                    "midi": 50,
                    "time": 328.7997945000061,
                    "velocity": 0.3937007874015748,
                    "duration": 0.13333325000002105
                },
                {
                    "name": "D3",
                    "midi": 50,
                    "time": 329.06646100000614,
                    "velocity": 0.4645669291338583,
                    "duration": 0.13333325000002105
                },
                {
                    "name": "D2",
                    "midi": 38,
                    "time": 329.06646100000614,
                    "velocity": 0.3858267716535433,
                    "duration": 0.13333325000002105
                },
                {
                    "name": "D3",
                    "midi": 50,
                    "time": 329.3331275000062,
                    "velocity": 0.4881889763779528,
                    "duration": 0.13333325000002105
                },
                {
                    "name": "A#2",
                    "midi": 46,
                    "time": 329.5997940000062,
                    "velocity": 0.5039370078740157,
                    "duration": 0.13333325000002105
                },
                {
                    "name": "A2",
                    "midi": 45,
                    "time": 329.73312725000625,
                    "velocity": 0.4330708661417323,
                    "duration": 0.13333325000002105
                },
                {
                    "name": "G2",
                    "midi": 43,
                    "time": 329.86646050000627,
                    "velocity": 0.4330708661417323,
                    "duration": 0.13333325000002105
                },
                {
                    "name": "A2",
                    "midi": 45,
                    "time": 329.9997937500063,
                    "velocity": 0.4330708661417323,
                    "duration": 0.13333325000002105
                },
                {
                    "name": "A#2",
                    "midi": 46,
                    "time": 330.1331270000063,
                    "velocity": 0.5039370078740157,
                    "duration": 0.13333325000002105
                },
                {
                    "name": "G2",
                    "midi": 43,
                    "time": 330.26646025000633,
                    "velocity": 0.4409448818897638,
                    "duration": 0.13333325000002105
                },
                {
                    "name": "A#2",
                    "midi": 46,
                    "time": 330.39979350000635,
                    "velocity": 0.4409448818897638,
                    "duration": 0.13333325000002105
                },
                {
                    "name": "G2",
                    "midi": 43,
                    "time": 330.5331267500064,
                    "velocity": 0.4409448818897638,
                    "duration": 0.13333325000002105
                },
                {
                    "name": "G3",
                    "midi": 55,
                    "time": 330.6664600000064,
                    "velocity": 0.5118110236220472,
                    "duration": 0.2555553958333121
                },
                {
                    "name": "G2",
                    "midi": 43,
                    "time": 330.9331265000064,
                    "velocity": 0.4015748031496063,
                    "duration": 0.13333325000002105
                },
                {
                    "name": "G2",
                    "midi": 43,
                    "time": 331.1997930000064,
                    "velocity": 0.4094488188976378,
                    "duration": 0.13333325000002105
                },
                {
                    "name": "G2",
                    "midi": 43,
                    "time": 331.46645950000647,
                    "velocity": 0.4094488188976378,
                    "duration": 0.13333325000002105
                },
                {
                    "name": "D#2",
                    "midi": 39,
                    "time": 331.7331260000065,
                    "velocity": 0.4881889763779528,
                    "duration": 0.13333325000002105
                },
                {
                    "name": "D2",
                    "midi": 38,
                    "time": 331.8664592500065,
                    "velocity": 0.3858267716535433,
                    "duration": 0.13333325000002105
                },
                {
                    "name": "C2",
                    "midi": 36,
                    "time": 331.99979250000655,
                    "velocity": 0.3858267716535433,
                    "duration": 0.13333325000002105
                },
                {
                    "name": "D2",
                    "midi": 38,
                    "time": 332.13312575000657,
                    "velocity": 0.3858267716535433,
                    "duration": 0.13333325000002105
                },
                {
                    "name": "D#2",
                    "midi": 39,
                    "time": 332.2664590000066,
                    "velocity": 0.49606299212598426,
                    "duration": 0.13333325000002105
                },
                {
                    "name": "C2",
                    "midi": 36,
                    "time": 332.3997922500066,
                    "velocity": 0.4094488188976378,
                    "duration": 0.13333325000002105
                },
                {
                    "name": "D#2",
                    "midi": 39,
                    "time": 332.53312550000663,
                    "velocity": 0.4094488188976378,
                    "duration": 0.13333325000002105
                },
                {
                    "name": "C2",
                    "midi": 36,
                    "time": 332.66645875000665,
                    "velocity": 0.3937007874015748,
                    "duration": 0.13333325000002105
                },
                {
                    "name": "G2",
                    "midi": 43,
                    "time": 332.7997920000067,
                    "velocity": 0.5118110236220472,
                    "duration": 0.26666649999998526
                },
                {
                    "name": "G1",
                    "midi": 31,
                    "time": 333.06645850000666,
                    "velocity": 0.3779527559055118,
                    "duration": 0.13333325000002105
                },
                {
                    "name": "G1",
                    "midi": 31,
                    "time": 333.3331250000067,
                    "velocity": 0.3779527559055118,
                    "duration": 0.13333325000002105
                },
                {
                    "name": "G1",
                    "midi": 31,
                    "time": 333.59979150000675,
                    "velocity": 0.3779527559055118,
                    "duration": 0.13333325000002105
                },
                {
                    "name": "G#2",
                    "midi": 44,
                    "time": 333.8664580000068,
                    "velocity": 0.48031496062992124,
                    "duration": 0.13333325000002105
                },
                {
                    "name": "G#1",
                    "midi": 32,
                    "time": 333.8664580000068,
                    "velocity": 0.48031496062992124,
                    "duration": 0.13333325000002105
                },
                {
                    "name": "B2",
                    "midi": 47,
                    "time": 334.13312450000683,
                    "velocity": 0.41732283464566927,
                    "duration": 0.13333325000002105
                },
                {
                    "name": "B1",
                    "midi": 35,
                    "time": 334.13312450000683,
                    "velocity": 0.4881889763779528,
                    "duration": 0.13333325000002105
                },
                {
                    "name": "D2",
                    "midi": 38,
                    "time": 334.39979100000687,
                    "velocity": 0.5039370078740157,
                    "duration": 0.13333325000002105
                },
                {
                    "name": "D3",
                    "midi": 50,
                    "time": 334.39979100000687,
                    "velocity": 0.5039370078740157,
                    "duration": 0.13333325000002105
                },
                {
                    "name": "F2",
                    "midi": 41,
                    "time": 334.6664575000069,
                    "velocity": 0.5354330708661418,
                    "duration": 0.13333325000002105
                },
                {
                    "name": "F3",
                    "midi": 53,
                    "time": 334.6664575000069,
                    "velocity": 0.4645669291338583,
                    "duration": 0.13333325000002105
                },
                {
                    "name": "F3",
                    "midi": 53,
                    "time": 334.93312400000696,
                    "velocity": 0.5039370078740157,
                    "duration": 0.26666649999998526
                },
                {
                    "name": "A3",
                    "midi": 57,
                    "time": 334.93312400000696,
                    "velocity": 0.5905511811023622,
                    "duration": 0.26444427916663926
                },
                {
                    "name": "D3",
                    "midi": 50,
                    "time": 334.93312400000696,
                    "velocity": 0.5039370078740157,
                    "duration": 0.26666649999998526
                },
                {
                    "name": "A2",
                    "midi": 45,
                    "time": 334.93312400000696,
                    "velocity": 0.5039370078740157,
                    "duration": 0.26666649999998526
                },
                {
                    "name": "A3",
                    "midi": 57,
                    "time": 335.19979050000694,
                    "velocity": 0.4015748031496063,
                    "duration": 0.13333325000002105
                },
                {
                    "name": "D4",
                    "midi": 62,
                    "time": 335.19979050000694,
                    "velocity": 0.48031496062992124,
                    "duration": 0.13333325000002105
                },
                {
                    "name": "A3",
                    "midi": 57,
                    "time": 335.466457000007,
                    "velocity": 0.4015748031496063,
                    "duration": 0.13333325000002105
                },
                {
                    "name": "D4",
                    "midi": 62,
                    "time": 335.466457000007,
                    "velocity": 0.48031496062992124,
                    "duration": 0.13333325000002105
                },
                {
                    "name": "A3",
                    "midi": 57,
                    "time": 335.733123500007,
                    "velocity": 0.4015748031496063,
                    "duration": 0.13333325000002105
                },
                {
                    "name": "D4",
                    "midi": 62,
                    "time": 335.733123500007,
                    "velocity": 0.48031496062992124,
                    "duration": 0.13333325000002105
                },
                {
                    "name": "C2",
                    "midi": 36,
                    "time": 335.99979000000707,
                    "velocity": 0.5275590551181102,
                    "duration": 0.13333325000002105
                },
                {
                    "name": "C3",
                    "midi": 48,
                    "time": 335.99979000000707,
                    "velocity": 0.5275590551181102,
                    "duration": 0.13333325000002105
                },
                {
                    "name": "D#3",
                    "midi": 51,
                    "time": 336.2664565000071,
                    "velocity": 0.4566929133858268,
                    "duration": 0.13333325000002105
                },
                {
                    "name": "D#2",
                    "midi": 39,
                    "time": 336.2664565000071,
                    "velocity": 0.5354330708661418,
                    "duration": 0.13333325000002105
                },
                {
                    "name": "F#2",
                    "midi": 42,
                    "time": 336.53312300000715,
                    "velocity": 0.5511811023622047,
                    "duration": 0.13333325000002105
                },
                {
                    "name": "F#3",
                    "midi": 54,
                    "time": 336.53312300000715,
                    "velocity": 0.5511811023622047,
                    "duration": 0.13333325000002105
                },
                {
                    "name": "A3",
                    "midi": 57,
                    "time": 336.7997895000072,
                    "velocity": 0.5039370078740157,
                    "duration": 0.13333325000002105
                },
                {
                    "name": "A2",
                    "midi": 45,
                    "time": 336.7997895000072,
                    "velocity": 0.5826771653543307,
                    "duration": 0.13333325000002105
                },
                {
                    "name": "C#4",
                    "midi": 61,
                    "time": 337.06645600000724,
                    "velocity": 0.6456692913385826,
                    "duration": 0.26444427916663926
                },
                {
                    "name": "F#3",
                    "midi": 54,
                    "time": 337.06645600000724,
                    "velocity": 0.5511811023622047,
                    "duration": 0.26666649999998526
                },
                {
                    "name": "A3",
                    "midi": 57,
                    "time": 337.06645600000724,
                    "velocity": 0.5511811023622047,
                    "duration": 0.26666649999998526
                },
                {
                    "name": "C#3",
                    "midi": 49,
                    "time": 337.06645600000724,
                    "velocity": 0.5511811023622047,
                    "duration": 0.26666649999998526
                },
                {
                    "name": "C#4",
                    "midi": 61,
                    "time": 337.3331225000072,
                    "velocity": 0.4015748031496063,
                    "duration": 0.13333325000002105
                },
                {
                    "name": "F#4",
                    "midi": 66,
                    "time": 337.3331225000072,
                    "velocity": 0.48031496062992124,
                    "duration": 0.13333325000002105
                },
                {
                    "name": "C#4",
                    "midi": 61,
                    "time": 337.59978900000726,
                    "velocity": 0.4015748031496063,
                    "duration": 0.13333325000002105
                },
                {
                    "name": "F#4",
                    "midi": 66,
                    "time": 337.59978900000726,
                    "velocity": 0.48031496062992124,
                    "duration": 0.13333325000002105
                },
                {
                    "name": "C#4",
                    "midi": 61,
                    "time": 337.8664555000073,
                    "velocity": 0.4015748031496063,
                    "duration": 0.13333325000002105
                },
                {
                    "name": "F#4",
                    "midi": 66,
                    "time": 337.8664555000073,
                    "velocity": 0.48031496062992124,
                    "duration": 0.13333325000002105
                },
                {
                    "name": "B3",
                    "midi": 59,
                    "time": 338.13312200000735,
                    "velocity": 0.2992125984251969,
                    "duration": 0.13333325000002105
                },
                {
                    "name": "F#4",
                    "midi": 66,
                    "time": 338.13312200000735,
                    "velocity": 0.3543307086614173,
                    "duration": 0.13333325000002105
                },
                {
                    "name": "B3",
                    "midi": 59,
                    "time": 338.3997885000074,
                    "velocity": 0.2677165354330709,
                    "duration": 0.13333325000002105
                },
                {
                    "name": "F#4",
                    "midi": 66,
                    "time": 338.3997885000074,
                    "velocity": 0.3228346456692913,
                    "duration": 0.13333325000002105
                },
                {
                    "name": "C#4",
                    "midi": 61,
                    "time": 338.66645500000743,
                    "velocity": 0.2992125984251969,
                    "duration": 0.13333325000002105
                },
                {
                    "name": "F4",
                    "midi": 65,
                    "time": 338.66645500000743,
                    "velocity": 0.3543307086614173,
                    "duration": 0.13333325000002105
                },
                {
                    "name": "C#4",
                    "midi": 61,
                    "time": 338.9331215000075,
                    "velocity": 0.28346456692913385,
                    "duration": 0.13333325000002105
                },
                {
                    "name": "F4",
                    "midi": 65,
                    "time": 338.9331215000075,
                    "velocity": 0.33858267716535434,
                    "duration": 0.13333325000002105
                },
                {
                    "name": "F#3",
                    "midi": 54,
                    "time": 339.1997880000075,
                    "velocity": 0.2992125984251969,
                    "duration": 0.5333330000000274
                },
                {
                    "name": "C#4",
                    "midi": 61,
                    "time": 339.1997880000075,
                    "velocity": 0.3543307086614173,
                    "duration": 0.5333330000000274
                },
                {
                    "name": "D4",
                    "midi": 62,
                    "time": 341.33312000000757,
                    "velocity": 0.3543307086614173,
                    "duration": 1.3333324999999832
                },
                {
                    "name": "D4",
                    "midi": 62,
                    "time": 342.66645250000755,
                    "velocity": 0.29133858267716534,
                    "duration": 0.2399998500000038
                },
                {
                    "name": "D4",
                    "midi": 62,
                    "time": 342.93311900000754,
                    "velocity": 0.28346456692913385,
                    "duration": 0.13333325000002105
                },
                {
                    "name": "D4",
                    "midi": 62,
                    "time": 343.1997855000076,
                    "velocity": 0.2755905511811024,
                    "duration": 0.13333325000002105
                },
                {
                    "name": "D4",
                    "midi": 62,
                    "time": 343.4664520000076,
                    "velocity": 0.2992125984251969,
                    "duration": 1.3066658500000017
                },
                {
                    "name": "E4",
                    "midi": 64,
                    "time": 344.7997845000076,
                    "velocity": 0.25196850393700787,
                    "duration": 0.2399998500000038
                },
                {
                    "name": "F#4",
                    "midi": 66,
                    "time": 345.0664510000076,
                    "velocity": 0.25196850393700787,
                    "duration": 0.2399998500000038
                },
                {
                    "name": "G4",
                    "midi": 67,
                    "time": 345.3331175000076,
                    "velocity": 0.25196850393700787,
                    "duration": 0.2399998500000038
                },
                {
                    "name": "G2",
                    "midi": 43,
                    "time": 345.59978400000756,
                    "velocity": 0.3543307086614173,
                    "duration": 0.0666666249999821
                },
                {
                    "name": "G3",
                    "midi": 55,
                    "time": 345.7331172500075,
                    "velocity": 0.28346456692913385,
                    "duration": 0.13333325000002105
                },
                {
                    "name": "B3",
                    "midi": 59,
                    "time": 345.86645050000755,
                    "velocity": 0.2992125984251969,
                    "duration": 0.13333325000002105
                },
                {
                    "name": "G3",
                    "midi": 55,
                    "time": 345.99978375000757,
                    "velocity": 0.29133858267716534,
                    "duration": 0.13333325000002105
                },
                {
                    "name": "D4",
                    "midi": 62,
                    "time": 346.1331170000076,
                    "velocity": 0.33070866141732286,
                    "duration": 0.13333325000002105
                },
                {
                    "name": "G3",
                    "midi": 55,
                    "time": 346.2664502500076,
                    "velocity": 0.2677165354330709,
                    "duration": 0.13333325000002105
                },
                {
                    "name": "B3",
                    "midi": 59,
                    "time": 346.39978350000763,
                    "velocity": 0.28346456692913385,
                    "duration": 0.13333325000002105
                },
                {
                    "name": "G3",
                    "midi": 55,
                    "time": 346.53311675000765,
                    "velocity": 0.28346456692913385,
                    "duration": 0.13333325000002105
                },
                {
                    "name": "G2",
                    "midi": 43,
                    "time": 346.66645000000767,
                    "velocity": 0.3858267716535433,
                    "duration": 0.0666666249999821
                },
                {
                    "name": "G3",
                    "midi": 55,
                    "time": 346.79978325000764,
                    "velocity": 0.28346456692913385,
                    "duration": 0.13333325000002105
                },
                {
                    "name": "A#3",
                    "midi": 58,
                    "time": 346.93311650000766,
                    "velocity": 0.28346456692913385,
                    "duration": 0.13333325000002105
                },
                {
                    "name": "G3",
                    "midi": 55,
                    "time": 347.0664497500077,
                    "velocity": 0.2677165354330709,
                    "duration": 0.13333325000002105
                },
                {
                    "name": "E4",
                    "midi": 64,
                    "time": 347.1997830000077,
                    "velocity": 0.33070866141732286,
                    "duration": 0.13333325000002105
                },
                {
                    "name": "G3",
                    "midi": 55,
                    "time": 347.3331162500077,
                    "velocity": 0.2755905511811024,
                    "duration": 0.13333325000002105
                },
                {
                    "name": "A#3",
                    "midi": 58,
                    "time": 347.46644950000774,
                    "velocity": 0.29133858267716534,
                    "duration": 0.13333325000002105
                },
                {
                    "name": "G3",
                    "midi": 55,
                    "time": 347.59978275000776,
                    "velocity": 0.2755905511811024,
                    "duration": 0.13333325000002105
                },
                {
                    "name": "G2",
                    "midi": 43,
                    "time": 347.7331160000078,
                    "velocity": 0.3543307086614173,
                    "duration": 0.0666666249999821
                },
                {
                    "name": "G3",
                    "midi": 55,
                    "time": 347.86644925000775,
                    "velocity": 0.2755905511811024,
                    "duration": 0.13333325000002105
                },
                {
                    "name": "B3",
                    "midi": 59,
                    "time": 347.99978250000777,
                    "velocity": 0.2992125984251969,
                    "duration": 0.13333325000002105
                },
                {
                    "name": "G3",
                    "midi": 55,
                    "time": 348.1331157500078,
                    "velocity": 0.2677165354330709,
                    "duration": 0.13333325000002105
                },
                {
                    "name": "D4",
                    "midi": 62,
                    "time": 348.2664490000078,
                    "velocity": 0.33070866141732286,
                    "duration": 0.13333325000002105
                },
                {
                    "name": "G3",
                    "midi": 55,
                    "time": 348.39978225000783,
                    "velocity": 0.25984251968503935,
                    "duration": 0.13333325000002105
                },
                {
                    "name": "B3",
                    "midi": 59,
                    "time": 348.53311550000785,
                    "velocity": 0.28346456692913385,
                    "duration": 0.13333325000002105
                },
                {
                    "name": "G3",
                    "midi": 55,
                    "time": 348.6664487500079,
                    "velocity": 0.2677165354330709,
                    "duration": 0.13333325000002105
                },
                {
                    "name": "E4",
                    "midi": 64,
                    "time": 348.7997820000079,
                    "velocity": 0.2755905511811024,
                    "duration": 0.2399998500000038
                },
                {
                    "name": "D4",
                    "midi": 62,
                    "time": 349.0664485000079,
                    "velocity": 0.25196850393700787,
                    "duration": 0.2399998500000038
                },
                {
                    "name": "B3",
                    "midi": 59,
                    "time": 349.33311500000787,
                    "velocity": 0.25196850393700787,
                    "duration": 0.2399998500000038
                },
                {
                    "name": "G3",
                    "midi": 55,
                    "time": 349.59978150000785,
                    "velocity": 0.2992125984251969,
                    "duration": 0.2399998500000038
                },
                {
                    "name": "D2",
                    "midi": 38,
                    "time": 349.86644800000784,
                    "velocity": 0.3543307086614173,
                    "duration": 0.0666666249999821
                },
                {
                    "name": "D3",
                    "midi": 50,
                    "time": 349.9997812500078,
                    "velocity": 0.28346456692913385,
                    "duration": 0.13333325000002105
                },
                {
                    "name": "F#3",
                    "midi": 54,
                    "time": 350.1331145000078,
                    "velocity": 0.2992125984251969,
                    "duration": 0.13333325000002105
                },
                {
                    "name": "D3",
                    "midi": 50,
                    "time": 350.26644775000784,
                    "velocity": 0.28346456692913385,
                    "duration": 0.13333325000002105
                },
                {
                    "name": "A3",
                    "midi": 57,
                    "time": 350.39978100000786,
                    "velocity": 0.33070866141732286,
                    "duration": 0.13333325000002105
                },
                {
                    "name": "D3",
                    "midi": 50,
                    "time": 350.5331142500079,
                    "velocity": 0.2755905511811024,
                    "duration": 0.13333325000002105
                },
                {
                    "name": "F#3",
                    "midi": 54,
                    "time": 350.6664475000079,
                    "velocity": 0.28346456692913385,
                    "duration": 0.13333325000002105
                },
                {
                    "name": "D3",
                    "midi": 50,
                    "time": 350.7997807500079,
                    "velocity": 0.2755905511811024,
                    "duration": 0.13333325000002105
                },
                {
                    "name": "A2",
                    "midi": 45,
                    "time": 350.93311400000795,
                    "velocity": 0.3858267716535433,
                    "duration": 0.0666666249999821
                },
                {
                    "name": "E3",
                    "midi": 52,
                    "time": 351.0664472500079,
                    "velocity": 0.2755905511811024,
                    "duration": 0.13333325000002105
                },
                {
                    "name": "G3",
                    "midi": 55,
                    "time": 351.19978050000793,
                    "velocity": 0.28346456692913385,
                    "duration": 0.13333325000002105
                },
                {
                    "name": "E3",
                    "midi": 52,
                    "time": 351.33311375000795,
                    "velocity": 0.2755905511811024,
                    "duration": 0.13333325000002105
                },
                {
                    "name": "A3",
                    "midi": 57,
                    "time": 351.466447000008,
                    "velocity": 0.33070866141732286,
                    "duration": 0.13333325000002105
                },
                {
                    "name": "E3",
                    "midi": 52,
                    "time": 351.599780250008,
                    "velocity": 0.2755905511811024,
                    "duration": 0.13333325000002105
                },
                {
                    "name": "G3",
                    "midi": 55,
                    "time": 351.733113500008,
                    "velocity": 0.29133858267716534,
                    "duration": 0.13333325000002105
                },
                {
                    "name": "E3",
                    "midi": 52,
                    "time": 351.86644675000804,
                    "velocity": 0.28346456692913385,
                    "duration": 0.13333325000002105
                },
                {
                    "name": "D2",
                    "midi": 38,
                    "time": 351.99978000000806,
                    "velocity": 0.3543307086614173,
                    "duration": 0.0666666249999821
                },
                {
                    "name": "D3",
                    "midi": 50,
                    "time": 352.133113250008,
                    "velocity": 0.2755905511811024,
                    "duration": 0.13333325000002105
                },
                {
                    "name": "F#3",
                    "midi": 54,
                    "time": 352.26644650000804,
                    "velocity": 0.2992125984251969,
                    "duration": 0.13333325000002105
                },
                {
                    "name": "D3",
                    "midi": 50,
                    "time": 352.39977975000807,
                    "velocity": 0.28346456692913385,
                    "duration": 0.13333325000002105
                },
                {
                    "name": "A3",
                    "midi": 57,
                    "time": 352.5331130000081,
                    "velocity": 0.33070866141732286,
                    "duration": 0.13333325000002105
                },
                {
                    "name": "D3",
                    "midi": 50,
                    "time": 352.6664462500081,
                    "velocity": 0.2677165354330709,
                    "duration": 0.13333325000002105
                },
                {
                    "name": "C#4",
                    "midi": 61,
                    "time": 352.7997795000081,
                    "velocity": 0.28346456692913385,
                    "duration": 0.13333325000002105
                },
                {
                    "name": "D3",
                    "midi": 50,
                    "time": 352.93311275000815,
                    "velocity": 0.2677165354330709,
                    "duration": 0.13333325000002105
                },
                {
                    "name": "D4",
                    "midi": 62,
                    "time": 353.06644600000817,
                    "velocity": 0.2755905511811024,
                    "duration": 0.2399998500000038
                },
                {
                    "name": "D4",
                    "midi": 62,
                    "time": 353.33311250000816,
                    "velocity": 0.25984251968503935,
                    "duration": 0.2399998500000038
                },
                {
                    "name": "E4",
                    "midi": 64,
                    "time": 353.59977900000814,
                    "velocity": 0.2755905511811024,
                    "duration": 0.2399998500000038
                },
                {
                    "name": "F4",
                    "midi": 65,
                    "time": 353.8664455000081,
                    "velocity": 0.28346456692913385,
                    "duration": 0.2399998500000038
                },
                {
                    "name": "E2",
                    "midi": 40,
                    "time": 354.1331120000081,
                    "velocity": 0.3543307086614173,
                    "duration": 0.0666666249999821
                },
                {
                    "name": "E3",
                    "midi": 52,
                    "time": 354.2664452500081,
                    "velocity": 0.28346456692913385,
                    "duration": 0.13333325000002105
                },
                {
                    "name": "G#3",
                    "midi": 56,
                    "time": 354.3997785000081,
                    "velocity": 0.2992125984251969,
                    "duration": 0.13333325000002105
                },
                {
                    "name": "E3",
                    "midi": 52,
                    "time": 354.5331117500081,
                    "velocity": 0.28346456692913385,
                    "duration": 0.13333325000002105
                },
                {
                    "name": "D4",
                    "midi": 62,
                    "time": 354.66644500000814,
                    "velocity": 0.33070866141732286,
                    "duration": 0.13333325000002105
                },
                {
                    "name": "E3",
                    "midi": 52,
                    "time": 354.79977825000816,
                    "velocity": 0.2755905511811024,
                    "duration": 0.13333325000002105
                },
                {
                    "name": "G#3",
                    "midi": 56,
                    "time": 354.9331115000082,
                    "velocity": 0.28346456692913385,
                    "duration": 0.13333325000002105
                },
                {
                    "name": "E3",
                    "midi": 52,
                    "time": 355.0664447500082,
                    "velocity": 0.2755905511811024,
                    "duration": 0.13333325000002105
                },
                {
                    "name": "A2",
                    "midi": 45,
                    "time": 355.1997780000082,
                    "velocity": 0.3858267716535433,
                    "duration": 0.0666666249999821
                },
                {
                    "name": "E3",
                    "midi": 52,
                    "time": 355.3331112500082,
                    "velocity": 0.2677165354330709,
                    "duration": 0.13333325000002105
                },
                {
                    "name": "A3",
                    "midi": 57,
                    "time": 355.4664445000082,
                    "velocity": 0.28346456692913385,
                    "duration": 0.13333325000002105
                },
                {
                    "name": "E3",
                    "midi": 52,
                    "time": 355.59977775000823,
                    "velocity": 0.2755905511811024,
                    "duration": 0.13333325000002105
                },
                {
                    "name": "C4",
                    "midi": 60,
                    "time": 355.73311100000825,
                    "velocity": 0.33070866141732286,
                    "duration": 0.13333325000002105
                },
                {
                    "name": "E3",
                    "midi": 52,
                    "time": 355.86644425000827,
                    "velocity": 0.28346456692913385,
                    "duration": 0.13333325000002105
                },
                {
                    "name": "B3",
                    "midi": 59,
                    "time": 355.9997775000083,
                    "velocity": 0.29133858267716534,
                    "duration": 0.13333325000002105
                },
                {
                    "name": "E3",
                    "midi": 52,
                    "time": 356.1331107500083,
                    "velocity": 0.2755905511811024,
                    "duration": 0.13333325000002105
                },
                {
                    "name": "D2",
                    "midi": 38,
                    "time": 356.26644400000833,
                    "velocity": 0.3543307086614173,
                    "duration": 0.0666666249999821
                },
                {
                    "name": "D3",
                    "midi": 50,
                    "time": 356.3997772500083,
                    "velocity": 0.28346456692913385,
                    "duration": 0.13333325000002105
                },
                {
                    "name": "F#3",
                    "midi": 54,
                    "time": 356.5331105000083,
                    "velocity": 0.2992125984251969,
                    "duration": 0.13333325000002105
                },
                {
                    "name": "D3",
                    "midi": 50,
                    "time": 356.66644375000834,
                    "velocity": 0.2755905511811024,
                    "duration": 0.13333325000002105
                },
                {
                    "name": "C4",
                    "midi": 60,
                    "time": 356.79977700000836,
                    "velocity": 0.33070866141732286,
                    "duration": 0.13333325000002105
                },
                {
                    "name": "D3",
                    "midi": 50,
                    "time": 356.9331102500084,
                    "velocity": 0.28346456692913385,
                    "duration": 0.13333325000002105
                },
                {
                    "name": "F#3",
                    "midi": 54,
                    "time": 357.0664435000084,
                    "velocity": 0.28346456692913385,
                    "duration": 0.13333325000002105
                },
                {
                    "name": "D3",
                    "midi": 50,
                    "time": 357.1997767500084,
                    "velocity": 0.28346456692913385,
                    "duration": 0.13333325000002105
                },
                {
                    "name": "G3",
                    "midi": 55,
                    "time": 357.33311000000845,
                    "velocity": 0.33070866141732286,
                    "duration": 0.13333325000002105
                },
                {
                    "name": "D3",
                    "midi": 50,
                    "time": 357.46644325000847,
                    "velocity": 0.33858267716535434,
                    "duration": 0.13333325000002105
                },
                {
                    "name": "C4",
                    "midi": 60,
                    "time": 357.5997765000085,
                    "velocity": 0.33858267716535434,
                    "duration": 0.13333325000002105
                },
                {
                    "name": "D3",
                    "midi": 50,
                    "time": 357.7331097500085,
                    "velocity": 0.33070866141732286,
                    "duration": 0.13333325000002105
                },
                {
                    "name": "B3",
                    "midi": 59,
                    "time": 357.86644300000853,
                    "velocity": 0.3700787401574803,
                    "duration": 0.13333325000002105
                },
                {
                    "name": "D3",
                    "midi": 50,
                    "time": 357.99977625000855,
                    "velocity": 0.31496062992125984,
                    "duration": 0.13333325000002105
                },
                {
                    "name": "G3",
                    "midi": 55,
                    "time": 358.1331095000086,
                    "velocity": 0.30708661417322836,
                    "duration": 0.13333325000002105
                },
                {
                    "name": "D3",
                    "midi": 50,
                    "time": 358.2664427500086,
                    "velocity": 0.2992125984251969,
                    "duration": 0.13333325000002105
                },
                {
                    "name": "D2",
                    "midi": 38,
                    "time": 358.3997760000086,
                    "velocity": 0.3543307086614173,
                    "duration": 0.0666666249999821
                },
                {
                    "name": "D3",
                    "midi": 50,
                    "time": 358.5331092500086,
                    "velocity": 0.28346456692913385,
                    "duration": 0.13333325000002105
                },
                {
                    "name": "F#3",
                    "midi": 54,
                    "time": 358.6664425000086,
                    "velocity": 0.2992125984251969,
                    "duration": 0.13333325000002105
                },
                {
                    "name": "D3",
                    "midi": 50,
                    "time": 358.7997757500086,
                    "velocity": 0.2992125984251969,
                    "duration": 0.13333325000002105
                },
                {
                    "name": "C4",
                    "midi": 60,
                    "time": 358.93310900000864,
                    "velocity": 0.33070866141732286,
                    "duration": 0.13333325000002105
                },
                {
                    "name": "D3",
                    "midi": 50,
                    "time": 359.06644225000866,
                    "velocity": 0.2677165354330709,
                    "duration": 0.13333325000002105
                },
                {
                    "name": "F#3",
                    "midi": 54,
                    "time": 359.1997755000087,
                    "velocity": 0.28346456692913385,
                    "duration": 0.13333325000002105
                },
                {
                    "name": "D3",
                    "midi": 50,
                    "time": 359.3331087500087,
                    "velocity": 0.2677165354330709,
                    "duration": 0.13333325000002105
                },
                {
                    "name": "G3",
                    "midi": 55,
                    "time": 359.4664420000087,
                    "velocity": 0.33070866141732286,
                    "duration": 0.13333325000002105
                },
                {
                    "name": "D3",
                    "midi": 50,
                    "time": 359.59977525000875,
                    "velocity": 0.3464566929133858,
                    "duration": 0.13333325000002105
                },
                {
                    "name": "C4",
                    "midi": 60,
                    "time": 359.73310850000877,
                    "velocity": 0.33858267716535434,
                    "duration": 0.13333325000002105
                },
                {
                    "name": "D3",
                    "midi": 50,
                    "time": 359.8664417500088,
                    "velocity": 0.33070866141732286,
                    "duration": 0.13333325000002105
                },
                {
                    "name": "B3",
                    "midi": 59,
                    "time": 359.9997750000088,
                    "velocity": 0.3700787401574803,
                    "duration": 0.13333325000002105
                },
                {
                    "name": "D3",
                    "midi": 50,
                    "time": 360.13310825000883,
                    "velocity": 0.31496062992125984,
                    "duration": 0.13333325000002105
                },
                {
                    "name": "G3",
                    "midi": 55,
                    "time": 360.26644150000885,
                    "velocity": 0.30708661417322836,
                    "duration": 0.13333325000002105
                },
                {
                    "name": "D3",
                    "midi": 50,
                    "time": 360.3997747500089,
                    "velocity": 0.2992125984251969,
                    "duration": 0.13333325000002105
                },
                {
                    "name": "D2",
                    "midi": 38,
                    "time": 360.5331080000089,
                    "velocity": 0.3543307086614173,
                    "duration": 0.0666666249999821
                },
                {
                    "name": "D3",
                    "midi": 50,
                    "time": 360.66644125000886,
                    "velocity": 0.28346456692913385,
                    "duration": 0.13333325000002105
                },
                {
                    "name": "F#3",
                    "midi": 54,
                    "time": 360.7997745000089,
                    "velocity": 0.2992125984251969,
                    "duration": 0.13333325000002105
                },
                {
                    "name": "D3",
                    "midi": 50,
                    "time": 360.9331077500089,
                    "velocity": 0.2755905511811024,
                    "duration": 0.13333325000002105
                },
                {
                    "name": "A3",
                    "midi": 57,
                    "time": 361.0664410000089,
                    "velocity": 0.33070866141732286,
                    "duration": 0.13333325000002105
                },
                {
                    "name": "D3",
                    "midi": 50,
                    "time": 361.19977425000894,
                    "velocity": 0.2283464566929134,
                    "duration": 0.13333325000002105
                },
                {
                    "name": "C4",
                    "midi": 60,
                    "time": 361.33310750000896,
                    "velocity": 0.28346456692913385,
                    "duration": 0.13333325000002105
                },
                {
                    "name": "D3",
                    "midi": 50,
                    "time": 361.466440750009,
                    "velocity": 0.2204724409448819,
                    "duration": 0.13333325000002105
                },
                {
                    "name": "B3",
                    "midi": 59,
                    "time": 361.599774000009,
                    "velocity": 0.28346456692913385,
                    "duration": 0.26666649999998526
                },
                {
                    "name": "G3",
                    "midi": 55,
                    "time": 361.599774000009,
                    "velocity": 0.23622047244094488,
                    "duration": 0.26666649999998526
                },
                {
                    "name": "G2",
                    "midi": 43,
                    "time": 362.666440000009,
                    "velocity": 0.3543307086614173,
                    "duration": 0.0666666249999821
                },
                {
                    "name": "G3",
                    "midi": 55,
                    "time": 362.79977325000897,
                    "velocity": 0.28346456692913385,
                    "duration": 0.13333325000002105
                },
                {
                    "name": "B3",
                    "midi": 59,
                    "time": 362.933106500009,
                    "velocity": 0.2992125984251969,
                    "duration": 0.13333325000002105
                },
                {
                    "name": "G3",
                    "midi": 55,
                    "time": 363.066439750009,
                    "velocity": 0.28346456692913385,
                    "duration": 0.13333325000002105
                },
                {
                    "name": "D4",
                    "midi": 62,
                    "time": 363.19977300000903,
                    "velocity": 0.33070866141732286,
                    "duration": 0.13333325000002105
                },
                {
                    "name": "G3",
                    "midi": 55,
                    "time": 363.33310625000905,
                    "velocity": 0.2677165354330709,
                    "duration": 0.13333325000002105
                },
                {
                    "name": "B3",
                    "midi": 59,
                    "time": 363.4664395000091,
                    "velocity": 0.28346456692913385,
                    "duration": 0.13333325000002105
                },
                {
                    "name": "G3",
                    "midi": 55,
                    "time": 363.5997727500091,
                    "velocity": 0.2677165354330709,
                    "duration": 0.13333325000002105
                },
                {
                    "name": "G2",
                    "midi": 43,
                    "time": 363.7331060000091,
                    "velocity": 0.3858267716535433,
                    "duration": 0.0666666249999821
                },
                {
                    "name": "G3",
                    "midi": 55,
                    "time": 363.8664392500091,
                    "velocity": 0.2755905511811024,
                    "duration": 0.13333325000002105
                },
                {
                    "name": "A#3",
                    "midi": 58,
                    "time": 363.9997725000091,
                    "velocity": 0.28346456692913385,
                    "duration": 0.13333325000002105
                },
                {
                    "name": "G3",
                    "midi": 55,
                    "time": 364.1331057500091,
                    "velocity": 0.2755905511811024,
                    "duration": 0.13333325000002105
                },
                {
                    "name": "E4",
                    "midi": 64,
                    "time": 364.26643900000914,
                    "velocity": 0.33070866141732286,
                    "duration": 0.13333325000002105
                },
                {
                    "name": "G3",
                    "midi": 55,
                    "time": 364.39977225000916,
                    "velocity": 0.28346456692913385,
                    "duration": 0.13333325000002105
                },
                {
                    "name": "A#3",
                    "midi": 58,
                    "time": 364.5331055000092,
                    "velocity": 0.29133858267716534,
                    "duration": 0.13333325000002105
                },
                {
                    "name": "G3",
                    "midi": 55,
                    "time": 364.6664387500092,
                    "velocity": 0.29133858267716534,
                    "duration": 0.13333325000002105
                },
                {
                    "name": "G2",
                    "midi": 43,
                    "time": 364.7997720000092,
                    "velocity": 0.3543307086614173,
                    "duration": 0.0666666249999821
                },
                {
                    "name": "G3",
                    "midi": 55,
                    "time": 364.9331052500092,
                    "velocity": 0.29133858267716534,
                    "duration": 0.13333325000002105
                },
                {
                    "name": "B3",
                    "midi": 59,
                    "time": 365.0664385000092,
                    "velocity": 0.2992125984251969,
                    "duration": 0.13333325000002105
                },
                {
                    "name": "G3",
                    "midi": 55,
                    "time": 365.19977175000923,
                    "velocity": 0.28346456692913385,
                    "duration": 0.13333325000002105
                },
                {
                    "name": "D4",
                    "midi": 62,
                    "time": 365.33310500000925,
                    "velocity": 0.3543307086614173,
                    "duration": 0.13333325000002105
                },
                {
                    "name": "G3",
                    "midi": 55,
                    "time": 365.4664382500093,
                    "velocity": 0.33858267716535434,
                    "duration": 0.13333325000002105
                },
                {
                    "name": "B3",
                    "midi": 59,
                    "time": 365.5997715000093,
                    "velocity": 0.36220472440944884,
                    "duration": 0.13333325000002105
                },
                {
                    "name": "G3",
                    "midi": 55,
                    "time": 365.7331047500093,
                    "velocity": 0.3779527559055118,
                    "duration": 0.13333325000002105
                },
                {
                    "name": "F4",
                    "midi": 65,
                    "time": 365.86643800000934,
                    "velocity": 0.3937007874015748,
                    "duration": 0.2399998500000038
                },
                {
                    "name": "E4",
                    "midi": 64,
                    "time": 366.1331045000093,
                    "velocity": 0.33070866141732286,
                    "duration": 0.2399998500000038
                },
                {
                    "name": "F4",
                    "midi": 65,
                    "time": 366.3997710000093,
                    "velocity": 0.33070866141732286,
                    "duration": 0.2399998500000038
                },
                {
                    "name": "G4",
                    "midi": 67,
                    "time": 366.6664375000093,
                    "velocity": 0.3700787401574803,
                    "duration": 0.2399998500000038
                },
                {
                    "name": "C3",
                    "midi": 48,
                    "time": 366.9331040000093,
                    "velocity": 0.4015748031496063,
                    "duration": 0.0666666249999821
                },
                {
                    "name": "G3",
                    "midi": 55,
                    "time": 367.06643725000924,
                    "velocity": 0.31496062992125984,
                    "duration": 0.13333325000002105
                },
                {
                    "name": "C4",
                    "midi": 60,
                    "time": 367.19977050000927,
                    "velocity": 0.33858267716535434,
                    "duration": 0.13333325000002105
                },
                {
                    "name": "G3",
                    "midi": 55,
                    "time": 367.3331037500093,
                    "velocity": 0.31496062992125984,
                    "duration": 0.13333325000002105
                },
                {
                    "name": "E4",
                    "midi": 64,
                    "time": 367.4664370000093,
                    "velocity": 0.3779527559055118,
                    "duration": 0.13333325000002105
                },
                {
                    "name": "G3",
                    "midi": 55,
                    "time": 367.5997702500093,
                    "velocity": 0.2992125984251969,
                    "duration": 0.13333325000002105
                },
                {
                    "name": "C4",
                    "midi": 60,
                    "time": 367.73310350000935,
                    "velocity": 0.3228346456692913,
                    "duration": 0.13333325000002105
                },
                {
                    "name": "G3",
                    "midi": 55,
                    "time": 367.86643675000937,
                    "velocity": 0.31496062992125984,
                    "duration": 0.13333325000002105
                },
                {
                    "name": "D2",
                    "midi": 38,
                    "time": 367.9997700000094,
                    "velocity": 0.4409448818897638,
                    "duration": 0.0666666249999821
                },
                {
                    "name": "D3",
                    "midi": 50,
                    "time": 368.13310325000936,
                    "velocity": 0.30708661417322836,
                    "duration": 0.13333325000002105
                },
                {
                    "name": "G3",
                    "midi": 55,
                    "time": 368.2664365000094,
                    "velocity": 0.3228346456692913,
                    "duration": 0.13333325000002105
                },
                {
                    "name": "D3",
                    "midi": 50,
                    "time": 368.3997697500094,
                    "velocity": 0.2992125984251969,
                    "duration": 0.13333325000002105
                },
                {
                    "name": "B3",
                    "midi": 59,
                    "time": 368.5331030000094,
                    "velocity": 0.3779527559055118,
                    "duration": 0.13333325000002105
                },
                {
                    "name": "D3",
                    "midi": 50,
                    "time": 368.66643625000944,
                    "velocity": 0.30708661417322836,
                    "duration": 0.13333325000002105
                },
                {
                    "name": "A3",
                    "midi": 57,
                    "time": 368.79976950000946,
                    "velocity": 0.33070866141732286,
                    "duration": 0.13333325000002105
                },
                {
                    "name": "D3",
                    "midi": 50,
                    "time": 368.9331027500095,
                    "velocity": 0.3228346456692913,
                    "duration": 0.13333325000002105
                },
                {
                    "name": "D2",
                    "midi": 38,
                    "time": 369.0664360000095,
                    "velocity": 0.4015748031496063,
                    "duration": 0.0666666249999821
                },
                {
                    "name": "D3",
                    "midi": 50,
                    "time": 369.19976925000947,
                    "velocity": 0.2992125984251969,
                    "duration": 0.13333325000002105
                },
                {
                    "name": "G3",
                    "midi": 55,
                    "time": 369.3331025000095,
                    "velocity": 0.31496062992125984,
                    "duration": 0.13333325000002105
                },
                {
                    "name": "D3",
                    "midi": 50,
                    "time": 369.4664357500095,
                    "velocity": 0.2992125984251969,
                    "duration": 0.13333325000002105
                },
                {
                    "name": "G3",
                    "midi": 55,
                    "time": 369.59976900000953,
                    "velocity": 0.4015748031496063,
                    "duration": 0.13333325000002105
                },
                {
                    "name": "B3",
                    "midi": 59,
                    "time": 369.73310225000955,
                    "velocity": 0.3228346456692913,
                    "duration": 0.13333325000002105
                },
                {
                    "name": "D4",
                    "midi": 62,
                    "time": 369.8664355000096,
                    "velocity": 0.3543307086614173,
                    "duration": 0.13333325000002105
                },
                {
                    "name": "E4",
                    "midi": 64,
                    "time": 369.9997687500096,
                    "velocity": 0.36220472440944884,
                    "duration": 0.13333325000002105
                },
                {
                    "name": "F4",
                    "midi": 65,
                    "time": 370.1331020000096,
                    "velocity": 0.4094488188976378,
                    "duration": 0.2399998500000038
                },
                {
                    "name": "E4",
                    "midi": 64,
                    "time": 370.3997685000096,
                    "velocity": 0.31496062992125984,
                    "duration": 0.2399998500000038
                },
                {
                    "name": "F4",
                    "midi": 65,
                    "time": 370.6664350000096,
                    "velocity": 0.33070866141732286,
                    "duration": 0.13333325000002105
                },
                {
                    "name": "A4",
                    "midi": 69,
                    "time": 370.7997682500096,
                    "velocity": 0.30708661417322836,
                    "duration": 0.13333325000002105
                },
                {
                    "name": "G4",
                    "midi": 67,
                    "time": 370.9331015000096,
                    "velocity": 0.3700787401574803,
                    "duration": 0.2399998500000038
                },
                {
                    "name": "C3",
                    "midi": 48,
                    "time": 371.1997680000096,
                    "velocity": 0.41732283464566927,
                    "duration": 0.0666666249999821
                },
                {
                    "name": "G3",
                    "midi": 55,
                    "time": 371.3331012500096,
                    "velocity": 0.31496062992125984,
                    "duration": 0.13333325000002105
                },
                {
                    "name": "C4",
                    "midi": 60,
                    "time": 371.4664345000096,
                    "velocity": 0.33070866141732286,
                    "duration": 0.13333325000002105
                },
                {
                    "name": "G3",
                    "midi": 55,
                    "time": 371.5997677500096,
                    "velocity": 0.30708661417322836,
                    "duration": 0.13333325000002105
                },
                {
                    "name": "B3",
                    "midi": 59,
                    "time": 371.73310100000964,
                    "velocity": 0.3937007874015748,
                    "duration": 0.13333325000002105
                },
                {
                    "name": "G3",
                    "midi": 55,
                    "time": 371.86643425000966,
                    "velocity": 0.2677165354330709,
                    "duration": 0.13333325000002105
                },
                {
                    "name": "C4",
                    "midi": 60,
                    "time": 371.9997675000097,
                    "velocity": 0.28346456692913385,
                    "duration": 0.13333325000002105
                },
                {
                    "name": "G3",
                    "midi": 55,
                    "time": 372.1331007500097,
                    "velocity": 0.2755905511811024,
                    "duration": 0.13333325000002105
                },
                {
                    "name": "D2",
                    "midi": 38,
                    "time": 372.2664340000097,
                    "velocity": 0.3858267716535433,
                    "duration": 0.0666666249999821
                },
                {
                    "name": "D3",
                    "midi": 50,
                    "time": 372.3997672500097,
                    "velocity": 0.2755905511811024,
                    "duration": 0.13333325000002105
                },
                {
                    "name": "G3",
                    "midi": 55,
                    "time": 372.5331005000097,
                    "velocity": 0.28346456692913385,
                    "duration": 0.13333325000002105
                },
                {
                    "name": "D3",
                    "midi": 50,
                    "time": 372.66643375000973,
                    "velocity": 0.2755905511811024,
                    "duration": 0.13333325000002105
                },
                {
                    "name": "A3",
                    "midi": 57,
                    "time": 372.79976700000975,
                    "velocity": 0.33070866141732286,
                    "duration": 0.13333325000002105
                },
                {
                    "name": "D3",
                    "midi": 50,
                    "time": 372.9331002500098,
                    "velocity": 0.2755905511811024,
                    "duration": 0.13333325000002105
                },
                {
                    "name": "C4",
                    "midi": 60,
                    "time": 373.0664335000098,
                    "velocity": 0.29133858267716534,
                    "duration": 0.13333325000002105
                },
                {
                    "name": "D3",
                    "midi": 50,
                    "time": 373.1997667500098,
                    "velocity": 0.2755905511811024,
                    "duration": 0.13333325000002105
                },
                {
                    "name": "G2",
                    "midi": 43,
                    "time": 373.33310000000984,
                    "velocity": 0.3543307086614173,
                    "duration": 0.0666666249999821
                },
                {
                    "name": "D3",
                    "midi": 50,
                    "time": 373.4664332500098,
                    "velocity": 0.29133858267716534,
                    "duration": 0.13333325000002105
                },
                {
                    "name": "G3",
                    "midi": 55,
                    "time": 373.5997665000098,
                    "velocity": 0.2992125984251969,
                    "duration": 0.13333325000002105
                },
                {
                    "name": "D3",
                    "midi": 50,
                    "time": 373.73309975000984,
                    "velocity": 0.28346456692913385,
                    "duration": 0.13333325000002105
                },
                {
                    "name": "G3",
                    "midi": 55,
                    "time": 373.86643300000986,
                    "velocity": 0.33070866141732286,
                    "duration": 0.13333325000002105
                },
                {
                    "name": "D3",
                    "midi": 50,
                    "time": 373.9997662500099,
                    "velocity": 0.28346456692913385,
                    "duration": 0.13333325000002105
                },
                {
                    "name": "G3",
                    "midi": 55,
                    "time": 374.1330995000099,
                    "velocity": 0.30708661417322836,
                    "duration": 0.13333325000002105
                },
                {
                    "name": "D3",
                    "midi": 50,
                    "time": 374.2664327500099,
                    "velocity": 0.2677165354330709,
                    "duration": 0.13333325000002105
                },
                {
                    "name": "G2",
                    "midi": 43,
                    "time": 374.39976600000995,
                    "velocity": 0.36220472440944884,
                    "duration": 0.0666666249999821
                },
                {
                    "name": "D3",
                    "midi": 50,
                    "time": 374.5330992500099,
                    "velocity": 0.25984251968503935,
                    "duration": 0.13333325000002105
                },
                {
                    "name": "F#3",
                    "midi": 54,
                    "time": 374.66643250000993,
                    "velocity": 0.2677165354330709,
                    "duration": 0.13333325000002105
                },
                {
                    "name": "D3",
                    "midi": 50,
                    "time": 374.79976575000995,
                    "velocity": 0.25196850393700787,
                    "duration": 0.13333325000002105
                },
                {
                    "name": "F#3",
                    "midi": 54,
                    "time": 374.93309900001,
                    "velocity": 0.30708661417322836,
                    "duration": 0.13333325000002105
                },
                {
                    "name": "D3",
                    "midi": 50,
                    "time": 375.06643225001,
                    "velocity": 0.25984251968503935,
                    "duration": 0.13333325000002105
                },
                {
                    "name": "F#3",
                    "midi": 54,
                    "time": 375.19976550001,
                    "velocity": 0.2755905511811024,
                    "duration": 0.13333325000002105
                },
                {
                    "name": "D3",
                    "midi": 50,
                    "time": 375.33309875001004,
                    "velocity": 0.2677165354330709,
                    "duration": 0.13333325000002105
                },
                {
                    "name": "G2",
                    "midi": 43,
                    "time": 375.46643200001006,
                    "velocity": 0.36220472440944884,
                    "duration": 0.0666666249999821
                },
                {
                    "name": "D3",
                    "midi": 50,
                    "time": 375.59976525001,
                    "velocity": 0.25984251968503935,
                    "duration": 0.13333325000002105
                },
                {
                    "name": "G3",
                    "midi": 55,
                    "time": 375.73309850001004,
                    "velocity": 0.2677165354330709,
                    "duration": 0.13333325000002105
                },
                {
                    "name": "D3",
                    "midi": 50,
                    "time": 375.86643175001007,
                    "velocity": 0.25984251968503935,
                    "duration": 0.13333325000002105
                },
                {
                    "name": "G3",
                    "midi": 55,
                    "time": 375.9997650000101,
                    "velocity": 0.30708661417322836,
                    "duration": 0.13333325000002105
                },
                {
                    "name": "D3",
                    "midi": 50,
                    "time": 376.1330982500101,
                    "velocity": 0.25984251968503935,
                    "duration": 0.13333325000002105
                },
                {
                    "name": "G3",
                    "midi": 55,
                    "time": 376.2664315000101,
                    "velocity": 0.2755905511811024,
                    "duration": 0.13333325000002105
                },
                {
                    "name": "D3",
                    "midi": 50,
                    "time": 376.39976475001015,
                    "velocity": 0.2677165354330709,
                    "duration": 0.13333325000002105
                },
                {
                    "name": "G2",
                    "midi": 43,
                    "time": 376.53309800001017,
                    "velocity": 0.36220472440944884,
                    "duration": 0.0666666249999821
                },
                {
                    "name": "D3",
                    "midi": 50,
                    "time": 376.66643125001013,
                    "velocity": 0.25984251968503935,
                    "duration": 0.13333325000002105
                },
                {
                    "name": "A3",
                    "midi": 57,
                    "time": 376.79976450001016,
                    "velocity": 0.2677165354330709,
                    "duration": 0.13333325000002105
                },
                {
                    "name": "D3",
                    "midi": 50,
                    "time": 376.9330977500102,
                    "velocity": 0.25984251968503935,
                    "duration": 0.13333325000002105
                },
                {
                    "name": "C4",
                    "midi": 60,
                    "time": 377.0664310000102,
                    "velocity": 0.30708661417322836,
                    "duration": 0.13333325000002105
                },
                {
                    "name": "D3",
                    "midi": 50,
                    "time": 377.1997642500102,
                    "velocity": 0.25984251968503935,
                    "duration": 0.13333325000002105
                },
                {
                    "name": "C4",
                    "midi": 60,
                    "time": 377.33309750001024,
                    "velocity": 0.2755905511811024,
                    "duration": 0.13333325000002105
                },
                {
                    "name": "D3",
                    "midi": 50,
                    "time": 377.46643075001026,
                    "velocity": 0.2677165354330709,
                    "duration": 0.13333325000002105
                },
                {
                    "name": "G2",
                    "midi": 43,
                    "time": 377.5997640000103,
                    "velocity": 0.3543307086614173,
                    "duration": 0.0666666249999821
                },
                {
                    "name": "D3",
                    "midi": 50,
                    "time": 377.73309725001025,
                    "velocity": 0.2992125984251969,
                    "duration": 0.13333325000002105
                },
                {
                    "name": "B3",
                    "midi": 59,
                    "time": 377.86643050001027,
                    "velocity": 0.33070866141732286,
                    "duration": 0.13333325000002105
                },
                {
                    "name": "D3",
                    "midi": 50,
                    "time": 377.9997637500103,
                    "velocity": 0.2992125984251969,
                    "duration": 0.13333325000002105
                },
                {
                    "name": "B3",
                    "midi": 59,
                    "time": 378.1330970000103,
                    "velocity": 0.33070866141732286,
                    "duration": 0.13333325000002105
                },
                {
                    "name": "D3",
                    "midi": 50,
                    "time": 378.26643025001033,
                    "velocity": 0.28346456692913385,
                    "duration": 0.13333325000002105
                },
                {
                    "name": "G3",
                    "midi": 55,
                    "time": 378.39976350001035,
                    "velocity": 0.30708661417322836,
                    "duration": 0.13333325000002105
                },
                {
                    "name": "D3",
                    "midi": 50,
                    "time": 378.5330967500104,
                    "velocity": 0.2677165354330709,
                    "duration": 0.13333325000002105
                },
                {
                    "name": "G2",
                    "midi": 43,
                    "time": 378.6664300000104,
                    "velocity": 0.36220472440944884,
                    "duration": 0.0666666249999821
                },
                {
                    "name": "D3",
                    "midi": 50,
                    "time": 378.79976325001036,
                    "velocity": 0.25984251968503935,
                    "duration": 0.13333325000002105
                },
                {
                    "name": "F#3",
                    "midi": 54,
                    "time": 378.9330965000104,
                    "velocity": 0.2677165354330709,
                    "duration": 0.13333325000002105
                },
                {
                    "name": "D3",
                    "midi": 50,
                    "time": 379.0664297500104,
                    "velocity": 0.25196850393700787,
                    "duration": 0.13333325000002105
                },
                {
                    "name": "F#3",
                    "midi": 54,
                    "time": 379.1997630000104,
                    "velocity": 0.30708661417322836,
                    "duration": 0.13333325000002105
                },
                {
                    "name": "D3",
                    "midi": 50,
                    "time": 379.33309625001044,
                    "velocity": 0.25196850393700787,
                    "duration": 0.13333325000002105
                },
                {
                    "name": "F#3",
                    "midi": 54,
                    "time": 379.46642950001046,
                    "velocity": 0.2755905511811024,
                    "duration": 0.13333325000002105
                },
                {
                    "name": "D3",
                    "midi": 50,
                    "time": 379.5997627500105,
                    "velocity": 0.2677165354330709,
                    "duration": 0.13333325000002105
                },
                {
                    "name": "G2",
                    "midi": 43,
                    "time": 379.7330960000105,
                    "velocity": 0.36220472440944884,
                    "duration": 0.0666666249999821
                },
                {
                    "name": "D3",
                    "midi": 50,
                    "time": 379.86642925001047,
                    "velocity": 0.25196850393700787,
                    "duration": 0.13333325000002105
                },
                {
                    "name": "G3",
                    "midi": 55,
                    "time": 379.9997625000105,
                    "velocity": 0.2677165354330709,
                    "duration": 0.13333325000002105
                },
                {
                    "name": "D3",
                    "midi": 50,
                    "time": 380.1330957500105,
                    "velocity": 0.25196850393700787,
                    "duration": 0.13333325000002105
                },
                {
                    "name": "G3",
                    "midi": 55,
                    "time": 380.26642900001053,
                    "velocity": 0.30708661417322836,
                    "duration": 0.13333325000002105
                },
                {
                    "name": "D3",
                    "midi": 50,
                    "time": 380.39976225001055,
                    "velocity": 0.25984251968503935,
                    "duration": 0.13333325000002105
                },
                {
                    "name": "G3",
                    "midi": 55,
                    "time": 380.5330955000106,
                    "velocity": 0.2755905511811024,
                    "duration": 0.13333325000002105
                },
                {
                    "name": "D3",
                    "midi": 50,
                    "time": 380.6664287500106,
                    "velocity": 0.2677165354330709,
                    "duration": 0.13333325000002105
                },
                {
                    "name": "G2",
                    "midi": 43,
                    "time": 380.7997620000106,
                    "velocity": 0.36220472440944884,
                    "duration": 0.0666666249999821
                },
                {
                    "name": "D3",
                    "midi": 50,
                    "time": 380.9330952500106,
                    "velocity": 0.25984251968503935,
                    "duration": 0.13333325000002105
                },
                {
                    "name": "A3",
                    "midi": 57,
                    "time": 381.0664285000106,
                    "velocity": 0.2677165354330709,
                    "duration": 0.13333325000002105
                },
                {
                    "name": "D3",
                    "midi": 50,
                    "time": 381.1997617500106,
                    "velocity": 0.25984251968503935,
                    "duration": 0.13333325000002105
                },
                {
                    "name": "G3",
                    "midi": 55,
                    "time": 381.33309500001064,
                    "velocity": 0.30708661417322836,
                    "duration": 0.13333325000002105
                },
                {
                    "name": "D3",
                    "midi": 50,
                    "time": 381.46642825001067,
                    "velocity": 0.25984251968503935,
                    "duration": 0.13333325000002105
                },
                {
                    "name": "F#3",
                    "midi": 54,
                    "time": 381.5997615000107,
                    "velocity": 0.2755905511811024,
                    "duration": 0.13333325000002105
                },
                {
                    "name": "D3",
                    "midi": 50,
                    "time": 381.7330947500107,
                    "velocity": 0.2677165354330709,
                    "duration": 0.13333325000002105
                },
                {
                    "name": "G2",
                    "midi": 43,
                    "time": 381.8664280000107,
                    "velocity": 0.3543307086614173,
                    "duration": 0.0666666249999821
                },
                {
                    "name": "D3",
                    "midi": 50,
                    "time": 381.9997612500107,
                    "velocity": 0.2755905511811024,
                    "duration": 0.13333325000002105
                },
                {
                    "name": "G3",
                    "midi": 55,
                    "time": 382.1330945000107,
                    "velocity": 0.2992125984251969,
                    "duration": 0.13333325000002105
                },
                {
                    "name": "D3",
                    "midi": 50,
                    "time": 382.26642775001073,
                    "velocity": 0.28346456692913385,
                    "duration": 0.13333325000002105
                },
                {
                    "name": "G3",
                    "midi": 55,
                    "time": 382.39976100001076,
                    "velocity": 0.33070866141732286,
                    "duration": 0.13333325000002105
                },
                {
                    "name": "D3",
                    "midi": 50,
                    "time": 382.5330942500108,
                    "velocity": 0.25984251968503935,
                    "duration": 0.13333325000002105
                },
                {
                    "name": "G2",
                    "midi": 43,
                    "time": 382.6664275000108,
                    "velocity": 0.28346456692913385,
                    "duration": 0.13333325000002105
                },
                {
                    "name": "A2",
                    "midi": 45,
                    "time": 382.7997607500108,
                    "velocity": 0.28346456692913385,
                    "duration": 0.13333325000002105
                },
                {
                    "name": "A#2",
                    "midi": 46,
                    "time": 382.93309400001084,
                    "velocity": 0.30708661417322836,
                    "duration": 0.13333325000002105
                },
                {
                    "name": "A2",
                    "midi": 45,
                    "time": 383.06642725001086,
                    "velocity": 0.25984251968503935,
                    "duration": 0.13333325000002105
                },
                {
                    "name": "G2",
                    "midi": 43,
                    "time": 383.1997605000109,
                    "velocity": 0.25984251968503935,
                    "duration": 0.13333325000002105
                },
                {
                    "name": "A2",
                    "midi": 45,
                    "time": 383.3330937500109,
                    "velocity": 0.25984251968503935,
                    "duration": 0.13333325000002105
                },
                {
                    "name": "A#2",
                    "midi": 46,
                    "time": 383.4664270000109,
                    "velocity": 0.30708661417322836,
                    "duration": 0.13333325000002105
                },
                {
                    "name": "G2",
                    "midi": 43,
                    "time": 383.59976025001095,
                    "velocity": 0.2677165354330709,
                    "duration": 0.13333325000002105
                },
                {
                    "name": "A#2",
                    "midi": 46,
                    "time": 383.73309350001097,
                    "velocity": 0.2677165354330709,
                    "duration": 0.13333325000002105
                },
                {
                    "name": "G2",
                    "midi": 43,
                    "time": 383.866426750011,
                    "velocity": 0.2677165354330709,
                    "duration": 0.13333325000002105
                },
                {
                    "name": "A#2",
                    "midi": 46,
                    "time": 383.999760000011,
                    "velocity": 0.30708661417322836,
                    "duration": 0.13333325000002105
                },
                {
                    "name": "A2",
                    "midi": 45,
                    "time": 384.13309325001103,
                    "velocity": 0.2440944881889764,
                    "duration": 0.13333325000002105
                },
                {
                    "name": "G2",
                    "midi": 43,
                    "time": 384.26642650001105,
                    "velocity": 0.25984251968503935,
                    "duration": 0.13333325000002105
                },
                {
                    "name": "A2",
                    "midi": 45,
                    "time": 384.39975975001107,
                    "velocity": 0.25196850393700787,
                    "duration": 0.13333325000002105
                },
                {
                    "name": "A#2",
                    "midi": 46,
                    "time": 384.5330930000111,
                    "velocity": 0.30708661417322836,
                    "duration": 0.13333325000002105
                },
                {
                    "name": "G2",
                    "midi": 43,
                    "time": 384.6664262500111,
                    "velocity": 0.2677165354330709,
                    "duration": 0.13333325000002105
                },
                {
                    "name": "A#2",
                    "midi": 46,
                    "time": 384.79975950001113,
                    "velocity": 0.2677165354330709,
                    "duration": 0.13333325000002105
                },
                {
                    "name": "G2",
                    "midi": 43,
                    "time": 384.93309275001116,
                    "velocity": 0.2677165354330709,
                    "duration": 0.13333325000002105
                },
                {
                    "name": "A2",
                    "midi": 45,
                    "time": 385.0664260000112,
                    "velocity": 0.33858267716535434,
                    "duration": 0.13333325000002105
                },
                {
                    "name": "E2",
                    "midi": 40,
                    "time": 385.1997592500112,
                    "velocity": 0.25196850393700787,
                    "duration": 0.13333325000002105
                },
                {
                    "name": "A1",
                    "midi": 33,
                    "time": 385.3330925000112,
                    "velocity": 0.2677165354330709,
                    "duration": 0.13333325000002105
                },
                {
                    "name": "E2",
                    "midi": 40,
                    "time": 385.46642575001124,
                    "velocity": 0.25196850393700787,
                    "duration": 0.13333325000002105
                },
                {
                    "name": "A2",
                    "midi": 45,
                    "time": 385.59975900001126,
                    "velocity": 0.3464566929133858,
                    "duration": 0.13333325000002105
                },
                {
                    "name": "A1",
                    "midi": 33,
                    "time": 385.7330922500113,
                    "velocity": 0.2677165354330709,
                    "duration": 0.13333325000002105
                },
                {
                    "name": "A2",
                    "midi": 45,
                    "time": 385.8664255000113,
                    "velocity": 0.28346456692913385,
                    "duration": 0.13333325000002105
                },
                {
                    "name": "A1",
                    "midi": 33,
                    "time": 385.9997587500113,
                    "velocity": 0.2677165354330709,
                    "duration": 0.13333325000002105
                },
                {
                    "name": "A2",
                    "midi": 45,
                    "time": 386.13309200001135,
                    "velocity": 0.33858267716535434,
                    "duration": 0.13333325000002105
                },
                {
                    "name": "E2",
                    "midi": 40,
                    "time": 386.26642525001137,
                    "velocity": 0.25196850393700787,
                    "duration": 0.13333325000002105
                },
                {
                    "name": "A1",
                    "midi": 33,
                    "time": 386.3997585000114,
                    "velocity": 0.2677165354330709,
                    "duration": 0.13333325000002105
                },
                {
                    "name": "E2",
                    "midi": 40,
                    "time": 386.5330917500114,
                    "velocity": 0.25984251968503935,
                    "duration": 0.13333325000002105
                },
                {
                    "name": "A2",
                    "midi": 45,
                    "time": 386.66642500001143,
                    "velocity": 0.3464566929133858,
                    "duration": 0.13333325000002105
                },
                {
                    "name": "A1",
                    "midi": 33,
                    "time": 386.79975825001145,
                    "velocity": 0.25984251968503935,
                    "duration": 0.13333325000002105
                },
                {
                    "name": "A2",
                    "midi": 45,
                    "time": 386.93309150001147,
                    "velocity": 0.28346456692913385,
                    "duration": 0.13333325000002105
                },
                {
                    "name": "A1",
                    "midi": 33,
                    "time": 387.0664247500115,
                    "velocity": 0.25984251968503935,
                    "duration": 0.13333325000002105
                },
                {
                    "name": "A#2",
                    "midi": 46,
                    "time": 387.1997580000115,
                    "velocity": 0.30708661417322836,
                    "duration": 0.13333325000002105
                },
                {
                    "name": "A2",
                    "midi": 45,
                    "time": 387.33309125001153,
                    "velocity": 0.25984251968503935,
                    "duration": 0.13333325000002105
                },
                {
                    "name": "G2",
                    "midi": 43,
                    "time": 387.46642450001156,
                    "velocity": 0.25984251968503935,
                    "duration": 0.13333325000002105
                },
                {
                    "name": "A2",
                    "midi": 45,
                    "time": 387.5997577500116,
                    "velocity": 0.25984251968503935,
                    "duration": 0.13333325000002105
                },
                {
                    "name": "A#2",
                    "midi": 46,
                    "time": 387.7330910000116,
                    "velocity": 0.30708661417322836,
                    "duration": 0.13333325000002105
                },
                {
                    "name": "G2",
                    "midi": 43,
                    "time": 387.8664242500116,
                    "velocity": 0.2677165354330709,
                    "duration": 0.13333325000002105
                },
                {
                    "name": "A#2",
                    "midi": 46,
                    "time": 387.99975750001164,
                    "velocity": 0.2677165354330709,
                    "duration": 0.13333325000002105
                },
                {
                    "name": "G2",
                    "midi": 43,
                    "time": 388.13309075001166,
                    "velocity": 0.2677165354330709,
                    "duration": 0.13333325000002105
                },
                {
                    "name": "A#2",
                    "midi": 46,
                    "time": 388.2664240000117,
                    "velocity": 0.30708661417322836,
                    "duration": 0.13333325000002105
                },
                {
                    "name": "A2",
                    "midi": 45,
                    "time": 388.3997572500117,
                    "velocity": 0.25984251968503935,
                    "duration": 0.13333325000002105
                },
                {
                    "name": "G2",
                    "midi": 43,
                    "time": 388.5330905000117,
                    "velocity": 0.25984251968503935,
                    "duration": 0.13333325000002105
                },
                {
                    "name": "A2",
                    "midi": 45,
                    "time": 388.66642375001175,
                    "velocity": 0.25984251968503935,
                    "duration": 0.13333325000002105
                },
                {
                    "name": "A#2",
                    "midi": 46,
                    "time": 388.79975700001177,
                    "velocity": 0.30708661417322836,
                    "duration": 0.13333325000002105
                },
                {
                    "name": "G2",
                    "midi": 43,
                    "time": 388.9330902500118,
                    "velocity": 0.2677165354330709,
                    "duration": 0.13333325000002105
                },
                {
                    "name": "A#2",
                    "midi": 46,
                    "time": 389.0664235000118,
                    "velocity": 0.2677165354330709,
                    "duration": 0.13333325000002105
                },
                {
                    "name": "G2",
                    "midi": 43,
                    "time": 389.19975675001183,
                    "velocity": 0.2677165354330709,
                    "duration": 0.13333325000002105
                },
                {
                    "name": "A2",
                    "midi": 45,
                    "time": 389.33309000001185,
                    "velocity": 0.33858267716535434,
                    "duration": 0.13333325000002105
                },
                {
                    "name": "E2",
                    "midi": 40,
                    "time": 389.46642325001187,
                    "velocity": 0.25196850393700787,
                    "duration": 0.13333325000002105
                },
                {
                    "name": "A1",
                    "midi": 33,
                    "time": 389.5997565000119,
                    "velocity": 0.2677165354330709,
                    "duration": 0.13333325000002105
                },
                {
                    "name": "E2",
                    "midi": 40,
                    "time": 389.7330897500119,
                    "velocity": 0.25196850393700787,
                    "duration": 0.13333325000002105
                },
                {
                    "name": "A2",
                    "midi": 45,
                    "time": 389.86642300001193,
                    "velocity": 0.3464566929133858,
                    "duration": 0.13333325000002105
                },
                {
                    "name": "A1",
                    "midi": 33,
                    "time": 389.99975625001196,
                    "velocity": 0.2677165354330709,
                    "duration": 0.13333325000002105
                },
                {
                    "name": "A2",
                    "midi": 45,
                    "time": 390.133089500012,
                    "velocity": 0.28346456692913385,
                    "duration": 0.13333325000002105
                },
                {
                    "name": "A1",
                    "midi": 33,
                    "time": 390.266422750012,
                    "velocity": 0.2755905511811024,
                    "duration": 0.13333325000002105
                },
                {
                    "name": "A2",
                    "midi": 45,
                    "time": 390.399756000012,
                    "velocity": 0.33858267716535434,
                    "duration": 0.13333325000002105
                },
                {
                    "name": "E2",
                    "midi": 40,
                    "time": 390.53308925001204,
                    "velocity": 0.2677165354330709,
                    "duration": 0.13333325000002105
                },
                {
                    "name": "A1",
                    "midi": 33,
                    "time": 390.66642250001206,
                    "velocity": 0.29133858267716534,
                    "duration": 0.13333325000002105
                },
                {
                    "name": "E2",
                    "midi": 40,
                    "time": 390.7997557500121,
                    "velocity": 0.2677165354330709,
                    "duration": 0.13333325000002105
                },
                {
                    "name": "A2",
                    "midi": 45,
                    "time": 390.9330890000121,
                    "velocity": 0.3464566929133858,
                    "duration": 0.13333325000002105
                },
                {
                    "name": "A1",
                    "midi": 33,
                    "time": 391.0664222500121,
                    "velocity": 0.28346456692913385,
                    "duration": 0.13333325000002105
                },
                {
                    "name": "A2",
                    "midi": 45,
                    "time": 391.19975550001215,
                    "velocity": 0.28346456692913385,
                    "duration": 0.13333325000002105
                },
                {
                    "name": "A1",
                    "midi": 33,
                    "time": 391.33308875001217,
                    "velocity": 0.2755905511811024,
                    "duration": 0.13333325000002105
                },
                {
                    "name": "A2",
                    "midi": 45,
                    "time": 391.4664220000122,
                    "velocity": 0.33858267716535434,
                    "duration": 0.13333325000002105
                },
                {
                    "name": "E2",
                    "midi": 40,
                    "time": 391.5997552500122,
                    "velocity": 0.2677165354330709,
                    "duration": 0.13333325000002105
                },
                {
                    "name": "A1",
                    "midi": 33,
                    "time": 391.73308850001223,
                    "velocity": 0.29133858267716534,
                    "duration": 0.13333325000002105
                },
                {
                    "name": "E2",
                    "midi": 40,
                    "time": 391.86642175001225,
                    "velocity": 0.2677165354330709,
                    "duration": 0.13333325000002105
                },
                {
                    "name": "A2",
                    "midi": 45,
                    "time": 391.99975500001227,
                    "velocity": 0.3464566929133858,
                    "duration": 0.13333325000002105
                },
                {
                    "name": "A1",
                    "midi": 33,
                    "time": 392.1330882500123,
                    "velocity": 0.2755905511811024,
                    "duration": 0.13333325000002105
                },
                {
                    "name": "A2",
                    "midi": 45,
                    "time": 392.2664215000123,
                    "velocity": 0.28346456692913385,
                    "duration": 0.13333325000002105
                },
                {
                    "name": "A1",
                    "midi": 33,
                    "time": 392.39975475001233,
                    "velocity": 0.2755905511811024,
                    "duration": 0.13333325000002105
                },
                {
                    "name": "A2",
                    "midi": 45,
                    "time": 392.53308800001236,
                    "velocity": 0.28346456692913385,
                    "duration": 0.26666649999998526
                },
                {
                    "name": "E3",
                    "midi": 52,
                    "time": 393.0664210000123,
                    "velocity": 0.23622047244094488,
                    "duration": 0.5333330000000274
                },
                {
                    "name": "A2",
                    "midi": 45,
                    "time": 393.0664210000123,
                    "velocity": 0.23622047244094488,
                    "duration": 0.5333330000000274
                },
                {
                    "name": "G3",
                    "midi": 55,
                    "time": 393.0664210000123,
                    "velocity": 0.28346456692913385,
                    "duration": 0.5333330000000274
                },
                {
                    "name": "A2",
                    "midi": 45,
                    "time": 394.1330870000124,
                    "velocity": 0.2440944881889764,
                    "duration": 0.5333330000000274
                },
                {
                    "name": "E3",
                    "midi": 52,
                    "time": 394.1330870000124,
                    "velocity": 0.2440944881889764,
                    "duration": 0.5333330000000274
                },
                {
                    "name": "G3",
                    "midi": 55,
                    "time": 394.1330870000124,
                    "velocity": 0.29133858267716534,
                    "duration": 0.5333330000000274
                },
                {
                    "name": "A2",
                    "midi": 45,
                    "time": 395.19975300001244,
                    "velocity": 0.2677165354330709,
                    "duration": 0.5333330000000274
                },
                {
                    "name": "G3",
                    "midi": 55,
                    "time": 395.19975300001244,
                    "velocity": 0.3228346456692913,
                    "duration": 0.5333330000000274
                },
                {
                    "name": "E3",
                    "midi": 52,
                    "time": 395.19975300001244,
                    "velocity": 0.2677165354330709,
                    "duration": 0.5333330000000274
                },
                {
                    "name": "A3",
                    "midi": 57,
                    "time": 396.2664190000125,
                    "velocity": 0.29133858267716534,
                    "duration": 0.5333330000000274
                },
                {
                    "name": "C#4",
                    "midi": 61,
                    "time": 396.2664190000125,
                    "velocity": 0.29133858267716534,
                    "duration": 0.5333330000000274
                },
                {
                    "name": "E4",
                    "midi": 64,
                    "time": 396.2664190000125,
                    "velocity": 0.3543307086614173,
                    "duration": 0.5333330000000274
                },
                {
                    "name": "F#4",
                    "midi": 66,
                    "time": 397.33308500001255,
                    "velocity": 0.3543307086614173,
                    "duration": 0.5333330000000274
                },
                {
                    "name": "D#4",
                    "midi": 63,
                    "time": 397.33308500001255,
                    "velocity": 0.29133858267716534,
                    "duration": 0.5333330000000274
                },
                {
                    "name": "A3",
                    "midi": 57,
                    "time": 397.33308500001255,
                    "velocity": 0.29133858267716534,
                    "duration": 0.5333330000000274
                },
                {
                    "name": "E4",
                    "midi": 64,
                    "time": 398.3997510000126,
                    "velocity": 0.29133858267716534,
                    "duration": 0.5333330000000274
                },
                {
                    "name": "G4",
                    "midi": 67,
                    "time": 398.3997510000126,
                    "velocity": 0.3543307086614173,
                    "duration": 0.5333330000000274
                },
                {
                    "name": "A3",
                    "midi": 57,
                    "time": 398.3997510000126,
                    "velocity": 0.29133858267716534,
                    "duration": 0.5333330000000274
                },
                {
                    "name": "A3",
                    "midi": 57,
                    "time": 399.46641700001265,
                    "velocity": 0.29133858267716534,
                    "duration": 1.5999990000000253
                },
                {
                    "name": "G4",
                    "midi": 67,
                    "time": 399.46641700001265,
                    "velocity": 0.3543307086614173,
                    "duration": 1.5999990000000253
                },
                {
                    "name": "E4",
                    "midi": 64,
                    "time": 399.46641700001265,
                    "velocity": 0.29133858267716534,
                    "duration": 1.5999990000000253
                },
                {
                    "name": "D4",
                    "midi": 62,
                    "time": 405.33308000001267,
                    "velocity": 0.23622047244094488,
                    "duration": 0.13333325000002105
                },
                {
                    "name": "F#4",
                    "midi": 66,
                    "time": 405.33308000001267,
                    "velocity": 0.28346456692913385,
                    "duration": 0.13333325000002105
                },
                {
                    "name": "F#4",
                    "midi": 66,
                    "time": 405.5997465000127,
                    "velocity": 0.2440944881889764,
                    "duration": 0.13333325000002105
                },
                {
                    "name": "A3",
                    "midi": 57,
                    "time": 405.5997465000127,
                    "velocity": 0.2047244094488189,
                    "duration": 0.13333325000002105
                },
                {
                    "name": "D4",
                    "midi": 62,
                    "time": 405.86641300001276,
                    "velocity": 0.23622047244094488,
                    "duration": 0.13333325000002105
                },
                {
                    "name": "F#4",
                    "midi": 66,
                    "time": 405.86641300001276,
                    "velocity": 0.28346456692913385,
                    "duration": 0.13333325000002105
                },
                {
                    "name": "A3",
                    "midi": 57,
                    "time": 406.1330795000128,
                    "velocity": 0.2047244094488189,
                    "duration": 0.13333325000002105
                },
                {
                    "name": "F#4",
                    "midi": 66,
                    "time": 406.1330795000128,
                    "velocity": 0.2440944881889764,
                    "duration": 0.13333325000002105
                },
                {
                    "name": "G4",
                    "midi": 67,
                    "time": 406.39974600001284,
                    "velocity": 0.28346456692913385,
                    "duration": 0.13333325000002105
                },
                {
                    "name": "E4",
                    "midi": 64,
                    "time": 406.39974600001284,
                    "velocity": 0.23622047244094488,
                    "duration": 0.13333325000002105
                },
                {
                    "name": "A3",
                    "midi": 57,
                    "time": 406.6664125000129,
                    "velocity": 0.2047244094488189,
                    "duration": 0.13333325000002105
                },
                {
                    "name": "G4",
                    "midi": 67,
                    "time": 406.6664125000129,
                    "velocity": 0.2440944881889764,
                    "duration": 0.13333325000002105
                },
                {
                    "name": "G4",
                    "midi": 67,
                    "time": 406.9330790000129,
                    "velocity": 0.28346456692913385,
                    "duration": 0.13333325000002105
                },
                {
                    "name": "C#4",
                    "midi": 61,
                    "time": 406.9330790000129,
                    "velocity": 0.23622047244094488,
                    "duration": 0.13333325000002105
                },
                {
                    "name": "A3",
                    "midi": 57,
                    "time": 407.19974550001297,
                    "velocity": 0.2047244094488189,
                    "duration": 0.13333325000002105
                },
                {
                    "name": "G4",
                    "midi": 67,
                    "time": 407.19974550001297,
                    "velocity": 0.2440944881889764,
                    "duration": 0.13333325000002105
                },
                {
                    "name": "D4",
                    "midi": 62,
                    "time": 407.466412000013,
                    "velocity": 0.23622047244094488,
                    "duration": 0.13333325000002105
                },
                {
                    "name": "F#4",
                    "midi": 66,
                    "time": 407.466412000013,
                    "velocity": 0.28346456692913385,
                    "duration": 0.13333325000002105
                },
                {
                    "name": "A3",
                    "midi": 57,
                    "time": 407.73307850001305,
                    "velocity": 0.1968503937007874,
                    "duration": 0.13333325000002105
                },
                {
                    "name": "F#4",
                    "midi": 66,
                    "time": 407.73307850001305,
                    "velocity": 0.23622047244094488,
                    "duration": 0.13333325000002105
                },
                {
                    "name": "F#4",
                    "midi": 66,
                    "time": 407.9997450000131,
                    "velocity": 0.28346456692913385,
                    "duration": 0.13333325000002105
                },
                {
                    "name": "D4",
                    "midi": 62,
                    "time": 407.9997450000131,
                    "velocity": 0.23622047244094488,
                    "duration": 0.13333325000002105
                },
                {
                    "name": "F#4",
                    "midi": 66,
                    "time": 408.26641150001313,
                    "velocity": 0.23622047244094488,
                    "duration": 0.13333325000002105
                },
                {
                    "name": "A3",
                    "midi": 57,
                    "time": 408.26641150001313,
                    "velocity": 0.1968503937007874,
                    "duration": 0.13333325000002105
                },
                {
                    "name": "G4",
                    "midi": 67,
                    "time": 408.5330780000132,
                    "velocity": 0.28346456692913385,
                    "duration": 0.13333325000002105
                },
                {
                    "name": "E4",
                    "midi": 64,
                    "time": 408.5330780000132,
                    "velocity": 0.23622047244094488,
                    "duration": 0.13333325000002105
                },
                {
                    "name": "G4",
                    "midi": 67,
                    "time": 408.7997445000132,
                    "velocity": 0.25196850393700787,
                    "duration": 0.13333325000002105
                },
                {
                    "name": "A3",
                    "midi": 57,
                    "time": 408.7997445000132,
                    "velocity": 0.2125984251968504,
                    "duration": 0.13333325000002105
                },
                {
                    "name": "C#4",
                    "midi": 61,
                    "time": 409.06641100001326,
                    "velocity": 0.23622047244094488,
                    "duration": 0.13333325000002105
                },
                {
                    "name": "G4",
                    "midi": 67,
                    "time": 409.06641100001326,
                    "velocity": 0.28346456692913385,
                    "duration": 0.13333325000002105
                },
                {
                    "name": "A3",
                    "midi": 57,
                    "time": 409.3330775000133,
                    "velocity": 0.2125984251968504,
                    "duration": 0.13333325000002105
                },
                {
                    "name": "G4",
                    "midi": 67,
                    "time": 409.3330775000133,
                    "velocity": 0.25196850393700787,
                    "duration": 0.13333325000002105
                },
                {
                    "name": "D4",
                    "midi": 62,
                    "time": 409.59974400001335,
                    "velocity": 0.23622047244094488,
                    "duration": 0.13333325000002105
                },
                {
                    "name": "F#4",
                    "midi": 66,
                    "time": 409.59974400001335,
                    "velocity": 0.28346456692913385,
                    "duration": 0.13333325000002105
                },
                {
                    "name": "A3",
                    "midi": 57,
                    "time": 409.8664105000134,
                    "velocity": 0.2047244094488189,
                    "duration": 0.13333325000002105
                },
                {
                    "name": "F#4",
                    "midi": 66,
                    "time": 409.8664105000134,
                    "velocity": 0.2440944881889764,
                    "duration": 0.13333325000002105
                },
                {
                    "name": "D4",
                    "midi": 62,
                    "time": 410.13307700001343,
                    "velocity": 0.23622047244094488,
                    "duration": 0.13333325000002105
                },
                {
                    "name": "F#4",
                    "midi": 66,
                    "time": 410.13307700001343,
                    "velocity": 0.28346456692913385,
                    "duration": 0.13333325000002105
                },
                {
                    "name": "F#4",
                    "midi": 66,
                    "time": 410.39974350001347,
                    "velocity": 0.2440944881889764,
                    "duration": 0.13333325000002105
                },
                {
                    "name": "A3",
                    "midi": 57,
                    "time": 410.39974350001347,
                    "velocity": 0.2047244094488189,
                    "duration": 0.13333325000002105
                },
                {
                    "name": "D4",
                    "midi": 62,
                    "time": 410.6664100000135,
                    "velocity": 0.23622047244094488,
                    "duration": 0.13333325000002105
                },
                {
                    "name": "G4",
                    "midi": 67,
                    "time": 410.6664100000135,
                    "velocity": 0.28346456692913385,
                    "duration": 0.13333325000002105
                },
                {
                    "name": "G3",
                    "midi": 55,
                    "time": 410.93307650001356,
                    "velocity": 0.2047244094488189,
                    "duration": 0.13333325000002105
                },
                {
                    "name": "D4",
                    "midi": 62,
                    "time": 410.93307650001356,
                    "velocity": 0.2047244094488189,
                    "duration": 0.13333325000002105
                },
                {
                    "name": "G4",
                    "midi": 67,
                    "time": 410.93307650001356,
                    "velocity": 0.2440944881889764,
                    "duration": 0.13333325000002105
                },
                {
                    "name": "G4",
                    "midi": 67,
                    "time": 411.1997430000136,
                    "velocity": 0.28346456692913385,
                    "duration": 0.13333325000002105
                },
                {
                    "name": "D4",
                    "midi": 62,
                    "time": 411.1997430000136,
                    "velocity": 0.23622047244094488,
                    "duration": 0.13333325000002105
                },
                {
                    "name": "B3",
                    "midi": 59,
                    "time": 411.46640950001364,
                    "velocity": 0.2047244094488189,
                    "duration": 0.13333325000002105
                },
                {
                    "name": "D4",
                    "midi": 62,
                    "time": 411.46640950001364,
                    "velocity": 0.2047244094488189,
                    "duration": 0.13333325000002105
                },
                {
                    "name": "G4",
                    "midi": 67,
                    "time": 411.46640950001364,
                    "velocity": 0.2440944881889764,
                    "duration": 0.13333325000002105
                },
                {
                    "name": "F#4",
                    "midi": 66,
                    "time": 411.7330760000137,
                    "velocity": 0.28346456692913385,
                    "duration": 0.13333325000002105
                },
                {
                    "name": "D4",
                    "midi": 62,
                    "time": 411.7330760000137,
                    "velocity": 0.23622047244094488,
                    "duration": 0.13333325000002105
                },
                {
                    "name": "F#4",
                    "midi": 66,
                    "time": 411.9997425000137,
                    "velocity": 0.23622047244094488,
                    "duration": 0.13333325000002105
                },
                {
                    "name": "A3",
                    "midi": 57,
                    "time": 411.9997425000137,
                    "velocity": 0.1968503937007874,
                    "duration": 0.13333325000002105
                },
                {
                    "name": "F#4",
                    "midi": 66,
                    "time": 412.26640900001377,
                    "velocity": 0.28346456692913385,
                    "duration": 0.13333325000002105
                },
                {
                    "name": "D4",
                    "midi": 62,
                    "time": 412.26640900001377,
                    "velocity": 0.23622047244094488,
                    "duration": 0.13333325000002105
                },
                {
                    "name": "A3",
                    "midi": 57,
                    "time": 412.5330755000138,
                    "velocity": 0.1968503937007874,
                    "duration": 0.13333325000002105
                },
                {
                    "name": "F#4",
                    "midi": 66,
                    "time": 412.5330755000138,
                    "velocity": 0.23622047244094488,
                    "duration": 0.13333325000002105
                },
                {
                    "name": "D4",
                    "midi": 62,
                    "time": 412.79974200001385,
                    "velocity": 0.23622047244094488,
                    "duration": 0.13333325000002105
                },
                {
                    "name": "F#4",
                    "midi": 66,
                    "time": 412.79974200001385,
                    "velocity": 0.28346456692913385,
                    "duration": 0.13333325000002105
                },
                {
                    "name": "F#4",
                    "midi": 66,
                    "time": 413.0664085000139,
                    "velocity": 0.25196850393700787,
                    "duration": 0.13333325000002105
                },
                {
                    "name": "A3",
                    "midi": 57,
                    "time": 413.0664085000139,
                    "velocity": 0.2125984251968504,
                    "duration": 0.13333325000002105
                },
                {
                    "name": "F#4",
                    "midi": 66,
                    "time": 413.33307500001393,
                    "velocity": 0.28346456692913385,
                    "duration": 0.13333325000002105
                },
                {
                    "name": "D4",
                    "midi": 62,
                    "time": 413.33307500001393,
                    "velocity": 0.23622047244094488,
                    "duration": 0.13333325000002105
                },
                {
                    "name": "A3",
                    "midi": 57,
                    "time": 413.599741500014,
                    "velocity": 0.2125984251968504,
                    "duration": 0.13333325000002105
                },
                {
                    "name": "F#4",
                    "midi": 66,
                    "time": 413.599741500014,
                    "velocity": 0.25196850393700787,
                    "duration": 0.13333325000002105
                },
                {
                    "name": "D4",
                    "midi": 62,
                    "time": 413.866408000014,
                    "velocity": 0.23622047244094488,
                    "duration": 0.13333325000002105
                },
                {
                    "name": "F#4",
                    "midi": 66,
                    "time": 413.866408000014,
                    "velocity": 0.28346456692913385,
                    "duration": 0.13333325000002105
                },
                {
                    "name": "A3",
                    "midi": 57,
                    "time": 414.13307450001406,
                    "velocity": 0.2047244094488189,
                    "duration": 0.13333325000002105
                },
                {
                    "name": "F#4",
                    "midi": 66,
                    "time": 414.13307450001406,
                    "velocity": 0.2440944881889764,
                    "duration": 0.13333325000002105
                },
                {
                    "name": "D4",
                    "midi": 62,
                    "time": 414.3997410000141,
                    "velocity": 0.23622047244094488,
                    "duration": 0.13333325000002105
                },
                {
                    "name": "F#4",
                    "midi": 66,
                    "time": 414.3997410000141,
                    "velocity": 0.28346456692913385,
                    "duration": 0.13333325000002105
                },
                {
                    "name": "A3",
                    "midi": 57,
                    "time": 414.66640750001415,
                    "velocity": 0.2047244094488189,
                    "duration": 0.13333325000002105
                },
                {
                    "name": "F#4",
                    "midi": 66,
                    "time": 414.66640750001415,
                    "velocity": 0.2440944881889764,
                    "duration": 0.13333325000002105
                },
                {
                    "name": "E4",
                    "midi": 64,
                    "time": 414.9330740000142,
                    "velocity": 0.23622047244094488,
                    "duration": 0.13333325000002105
                },
                {
                    "name": "G4",
                    "midi": 67,
                    "time": 414.9330740000142,
                    "velocity": 0.28346456692913385,
                    "duration": 0.13333325000002105
                },
                {
                    "name": "A3",
                    "midi": 57,
                    "time": 415.19974050001423,
                    "velocity": 0.2047244094488189,
                    "duration": 0.13333325000002105
                },
                {
                    "name": "G4",
                    "midi": 67,
                    "time": 415.19974050001423,
                    "velocity": 0.2440944881889764,
                    "duration": 0.13333325000002105
                },
                {
                    "name": "G4",
                    "midi": 67,
                    "time": 415.46640700001427,
                    "velocity": 0.28346456692913385,
                    "duration": 0.13333325000002105
                },
                {
                    "name": "E4",
                    "midi": 64,
                    "time": 415.46640700001427,
                    "velocity": 0.23622047244094488,
                    "duration": 0.13333325000002105
                },
                {
                    "name": "A3",
                    "midi": 57,
                    "time": 415.7330735000143,
                    "velocity": 0.2047244094488189,
                    "duration": 0.13333325000002105
                },
                {
                    "name": "G4",
                    "midi": 67,
                    "time": 415.7330735000143,
                    "velocity": 0.2440944881889764,
                    "duration": 0.13333325000002105
                },
                {
                    "name": "F#4",
                    "midi": 66,
                    "time": 415.99974000001436,
                    "velocity": 0.28346456692913385,
                    "duration": 0.13333325000002105
                },
                {
                    "name": "A#3",
                    "midi": 58,
                    "time": 415.99974000001436,
                    "velocity": 0.23622047244094488,
                    "duration": 0.13333325000002105
                },
                {
                    "name": "A#3",
                    "midi": 58,
                    "time": 416.2664065000144,
                    "velocity": 0.1968503937007874,
                    "duration": 0.13333325000002105
                },
                {
                    "name": "C#4",
                    "midi": 61,
                    "time": 416.2664065000144,
                    "velocity": 0.23622047244094488,
                    "duration": 0.13333325000002105
                },
                {
                    "name": "A#3",
                    "midi": 58,
                    "time": 416.53307300001444,
                    "velocity": 0.23622047244094488,
                    "duration": 0.13333325000002105
                },
                {
                    "name": "F#4",
                    "midi": 66,
                    "time": 416.53307300001444,
                    "velocity": 0.28346456692913385,
                    "duration": 0.13333325000002105
                },
                {
                    "name": "A#3",
                    "midi": 58,
                    "time": 416.7997395000145,
                    "velocity": 0.1968503937007874,
                    "duration": 0.13333325000002105
                },
                {
                    "name": "C#4",
                    "midi": 61,
                    "time": 416.7997395000145,
                    "velocity": 0.23622047244094488,
                    "duration": 0.13333325000002105
                },
                {
                    "name": "D4",
                    "midi": 62,
                    "time": 417.0664060000145,
                    "velocity": 0.28346456692913385,
                    "duration": 0.13333325000002105
                },
                {
                    "name": "B3",
                    "midi": 59,
                    "time": 417.0664060000145,
                    "velocity": 0.23622047244094488,
                    "duration": 0.13333325000002105
                },
                {
                    "name": "G4",
                    "midi": 67,
                    "time": 417.33307250001457,
                    "velocity": 0.25196850393700787,
                    "duration": 0.13333325000002105
                },
                {
                    "name": "D4",
                    "midi": 62,
                    "time": 417.33307250001457,
                    "velocity": 0.2125984251968504,
                    "duration": 0.13333325000002105
                },
                {
                    "name": "B3",
                    "midi": 59,
                    "time": 417.33307250001457,
                    "velocity": 0.2125984251968504,
                    "duration": 0.13333325000002105
                },
                {
                    "name": "D4",
                    "midi": 62,
                    "time": 417.5997390000146,
                    "velocity": 0.23622047244094488,
                    "duration": 0.13333325000002105
                },
                {
                    "name": "G3",
                    "midi": 55,
                    "time": 417.5997390000146,
                    "velocity": 0.23622047244094488,
                    "duration": 0.13333325000002105
                },
                {
                    "name": "G4",
                    "midi": 67,
                    "time": 417.5997390000146,
                    "velocity": 0.28346456692913385,
                    "duration": 0.13333325000002105
                },
                {
                    "name": "G4",
                    "midi": 67,
                    "time": 417.86640550001465,
                    "velocity": 0.25196850393700787,
                    "duration": 0.13333325000002105
                },
                {
                    "name": "B3",
                    "midi": 59,
                    "time": 417.86640550001465,
                    "velocity": 0.2125984251968504,
                    "duration": 0.13333325000002105
                },
                {
                    "name": "D4",
                    "midi": 62,
                    "time": 417.86640550001465,
                    "velocity": 0.2125984251968504,
                    "duration": 0.13333325000002105
                },
                {
                    "name": "F#4",
                    "midi": 66,
                    "time": 418.1330720000147,
                    "velocity": 0.28346456692913385,
                    "duration": 0.13333325000002105
                },
                {
                    "name": "D4",
                    "midi": 62,
                    "time": 418.1330720000147,
                    "velocity": 0.23622047244094488,
                    "duration": 0.13333325000002105
                },
                {
                    "name": "F#4",
                    "midi": 66,
                    "time": 418.39973850001473,
                    "velocity": 0.2440944881889764,
                    "duration": 0.13333325000002105
                },
                {
                    "name": "A3",
                    "midi": 57,
                    "time": 418.39973850001473,
                    "velocity": 0.2047244094488189,
                    "duration": 0.13333325000002105
                },
                {
                    "name": "F#4",
                    "midi": 66,
                    "time": 418.6664050000148,
                    "velocity": 0.28346456692913385,
                    "duration": 0.13333325000002105
                },
                {
                    "name": "D4",
                    "midi": 62,
                    "time": 418.6664050000148,
                    "velocity": 0.23622047244094488,
                    "duration": 0.13333325000002105
                },
                {
                    "name": "F#4",
                    "midi": 66,
                    "time": 418.9330715000148,
                    "velocity": 0.2440944881889764,
                    "duration": 0.13333325000002105
                },
                {
                    "name": "A3",
                    "midi": 57,
                    "time": 418.9330715000148,
                    "velocity": 0.2047244094488189,
                    "duration": 0.13333325000002105
                },
                {
                    "name": "G4",
                    "midi": 67,
                    "time": 419.19973800001486,
                    "velocity": 0.28346456692913385,
                    "duration": 0.13333325000002105
                },
                {
                    "name": "C#4",
                    "midi": 61,
                    "time": 419.19973800001486,
                    "velocity": 0.23622047244094488,
                    "duration": 0.13333325000002105
                },
                {
                    "name": "A3",
                    "midi": 57,
                    "time": 419.4664045000149,
                    "velocity": 0.2047244094488189,
                    "duration": 0.13333325000002105
                },
                {
                    "name": "G4",
                    "midi": 67,
                    "time": 419.4664045000149,
                    "velocity": 0.2440944881889764,
                    "duration": 0.13333325000002105
                },
                {
                    "name": "G4",
                    "midi": 67,
                    "time": 419.73307100001495,
                    "velocity": 0.28346456692913385,
                    "duration": 0.13333325000002105
                },
                {
                    "name": "C#4",
                    "midi": 61,
                    "time": 419.73307100001495,
                    "velocity": 0.23622047244094488,
                    "duration": 0.13333325000002105
                },
                {
                    "name": "A3",
                    "midi": 57,
                    "time": 419.999737500015,
                    "velocity": 0.2047244094488189,
                    "duration": 0.13333325000002105
                },
                {
                    "name": "G4",
                    "midi": 67,
                    "time": 419.999737500015,
                    "velocity": 0.2440944881889764,
                    "duration": 0.13333325000002105
                },
                {
                    "name": "D4",
                    "midi": 62,
                    "time": 420.26640400001503,
                    "velocity": 0.23622047244094488,
                    "duration": 0.13333325000002105
                },
                {
                    "name": "F#4",
                    "midi": 66,
                    "time": 420.26640400001503,
                    "velocity": 0.28346456692913385,
                    "duration": 0.13333325000002105
                },
                {
                    "name": "F#4",
                    "midi": 66,
                    "time": 420.53307050001507,
                    "velocity": 0.2440944881889764,
                    "duration": 0.13333325000002105
                },
                {
                    "name": "A3",
                    "midi": 57,
                    "time": 420.53307050001507,
                    "velocity": 0.2047244094488189,
                    "duration": 0.13333325000002105
                },
                {
                    "name": "F#4",
                    "midi": 66,
                    "time": 420.7997370000151,
                    "velocity": 0.28346456692913385,
                    "duration": 0.13333325000002105
                },
                {
                    "name": "D4",
                    "midi": 62,
                    "time": 420.7997370000151,
                    "velocity": 0.23622047244094488,
                    "duration": 0.13333325000002105
                },
                {
                    "name": "A3",
                    "midi": 57,
                    "time": 421.06640350001516,
                    "velocity": 0.2047244094488189,
                    "duration": 0.13333325000002105
                },
                {
                    "name": "F#4",
                    "midi": 66,
                    "time": 421.06640350001516,
                    "velocity": 0.2440944881889764,
                    "duration": 0.13333325000002105
                },
                {
                    "name": "D3",
                    "midi": 50,
                    "time": 421.3330700000152,
                    "velocity": 0.4094488188976378,
                    "duration": 0.13333325000002105
                },
                {
                    "name": "E3",
                    "midi": 52,
                    "time": 421.4664032500152,
                    "velocity": 0.36220472440944884,
                    "duration": 0.13333325000002105
                },
                {
                    "name": "F#3",
                    "midi": 54,
                    "time": 421.59973650001524,
                    "velocity": 0.36220472440944884,
                    "duration": 0.13333325000002105
                },
                {
                    "name": "B3",
                    "midi": 59,
                    "time": 421.73306975001526,
                    "velocity": 0.36220472440944884,
                    "duration": 0.13333325000002105
                },
                {
                    "name": "A3",
                    "midi": 57,
                    "time": 421.8664030000153,
                    "velocity": 0.4094488188976378,
                    "duration": 0.13333325000002105
                },
                {
                    "name": "F#3",
                    "midi": 54,
                    "time": 421.9997362500153,
                    "velocity": 0.36220472440944884,
                    "duration": 0.13333325000002105
                },
                {
                    "name": "E3",
                    "midi": 52,
                    "time": 422.1330695000153,
                    "velocity": 0.36220472440944884,
                    "duration": 0.13333325000002105
                },
                {
                    "name": "D3",
                    "midi": 50,
                    "time": 422.26640275001535,
                    "velocity": 0.36220472440944884,
                    "duration": 0.13333325000002105
                },
                {
                    "name": "C#3",
                    "midi": 49,
                    "time": 422.39973600001537,
                    "velocity": 0.3464566929133858,
                    "duration": 0.13333325000002105
                },
                {
                    "name": "G3",
                    "midi": 55,
                    "time": 422.39973600001537,
                    "velocity": 0.4094488188976378,
                    "duration": 0.13333325000002105
                },
                {
                    "name": "G3",
                    "midi": 55,
                    "time": 422.6664025000154,
                    "velocity": 0.36220472440944884,
                    "duration": 0.13333325000002105
                },
                {
                    "name": "A2",
                    "midi": 45,
                    "time": 422.6664025000154,
                    "velocity": 0.36220472440944884,
                    "duration": 0.13333325000002105
                },
                {
                    "name": "C#3",
                    "midi": 49,
                    "time": 422.93306900001545,
                    "velocity": 0.3464566929133858,
                    "duration": 0.13333325000002105
                },
                {
                    "name": "G3",
                    "midi": 55,
                    "time": 422.93306900001545,
                    "velocity": 0.4094488188976378,
                    "duration": 0.13333325000002105
                },
                {
                    "name": "G3",
                    "midi": 55,
                    "time": 423.1997355000155,
                    "velocity": 0.3937007874015748,
                    "duration": 0.13333325000002105
                },
                {
                    "name": "A2",
                    "midi": 45,
                    "time": 423.1997355000155,
                    "velocity": 0.33070866141732286,
                    "duration": 0.13333325000002105
                },
                {
                    "name": "G3",
                    "midi": 55,
                    "time": 423.46640200001553,
                    "velocity": 0.3937007874015748,
                    "duration": 0.13333325000002105
                },
                {
                    "name": "C#3",
                    "midi": 49,
                    "time": 423.46640200001553,
                    "velocity": 0.33070866141732286,
                    "duration": 0.13333325000002105
                },
                {
                    "name": "G3",
                    "midi": 55,
                    "time": 423.7330685000156,
                    "velocity": 0.3937007874015748,
                    "duration": 0.13333325000002105
                },
                {
                    "name": "A2",
                    "midi": 45,
                    "time": 423.7330685000156,
                    "velocity": 0.33070866141732286,
                    "duration": 0.13333325000002105
                },
                {
                    "name": "G3",
                    "midi": 55,
                    "time": 423.9997350000156,
                    "velocity": 0.3937007874015748,
                    "duration": 0.13333325000002105
                },
                {
                    "name": "C#3",
                    "midi": 49,
                    "time": 423.9997350000156,
                    "velocity": 0.33070866141732286,
                    "duration": 0.13333325000002105
                },
                {
                    "name": "A2",
                    "midi": 45,
                    "time": 424.26640150001566,
                    "velocity": 0.36220472440944884,
                    "duration": 0.13333325000002105
                },
                {
                    "name": "G3",
                    "midi": 55,
                    "time": 424.26640150001566,
                    "velocity": 0.36220472440944884,
                    "duration": 0.13333325000002105
                },
                {
                    "name": "D3",
                    "midi": 50,
                    "time": 424.5330680000157,
                    "velocity": 0.3464566929133858,
                    "duration": 0.13333325000002105
                },
                {
                    "name": "F#3",
                    "midi": 54,
                    "time": 424.5330680000157,
                    "velocity": 0.4094488188976378,
                    "duration": 0.13333325000002105
                },
                {
                    "name": "F#3",
                    "midi": 54,
                    "time": 424.79973450001575,
                    "velocity": 0.3937007874015748,
                    "duration": 0.13333325000002105
                },
                {
                    "name": "A2",
                    "midi": 45,
                    "time": 424.79973450001575,
                    "velocity": 0.33070866141732286,
                    "duration": 0.13333325000002105
                },
                {
                    "name": "D3",
                    "midi": 50,
                    "time": 425.0664010000158,
                    "velocity": 0.3464566929133858,
                    "duration": 0.13333325000002105
                },
                {
                    "name": "F#3",
                    "midi": 54,
                    "time": 425.0664010000158,
                    "velocity": 0.4094488188976378,
                    "duration": 0.13333325000002105
                },
                {
                    "name": "F#3",
                    "midi": 54,
                    "time": 425.33306750001583,
                    "velocity": 0.3937007874015748,
                    "duration": 0.13333325000002105
                },
                {
                    "name": "A2",
                    "midi": 45,
                    "time": 425.33306750001583,
                    "velocity": 0.33070866141732286,
                    "duration": 0.13333325000002105
                },
                {
                    "name": "F#3",
                    "midi": 54,
                    "time": 425.59973400001587,
                    "velocity": 0.3937007874015748,
                    "duration": 0.13333325000002105
                },
                {
                    "name": "D3",
                    "midi": 50,
                    "time": 425.59973400001587,
                    "velocity": 0.33070866141732286,
                    "duration": 0.13333325000002105
                },
                {
                    "name": "A2",
                    "midi": 45,
                    "time": 425.8664005000159,
                    "velocity": 0.33070866141732286,
                    "duration": 0.13333325000002105
                },
                {
                    "name": "F#3",
                    "midi": 54,
                    "time": 425.8664005000159,
                    "velocity": 0.3937007874015748,
                    "duration": 0.13333325000002105
                },
                {
                    "name": "F#3",
                    "midi": 54,
                    "time": 426.13306700001596,
                    "velocity": 0.3937007874015748,
                    "duration": 0.13333325000002105
                },
                {
                    "name": "D3",
                    "midi": 50,
                    "time": 426.13306700001596,
                    "velocity": 0.33070866141732286,
                    "duration": 0.13333325000002105
                },
                {
                    "name": "A3",
                    "midi": 57,
                    "time": 426.399733500016,
                    "velocity": 0.3937007874015748,
                    "duration": 0.13333325000002105
                },
                {
                    "name": "F#3",
                    "midi": 54,
                    "time": 426.399733500016,
                    "velocity": 0.33070866141732286,
                    "duration": 0.13333325000002105
                },
                {
                    "name": "A3",
                    "midi": 57,
                    "time": 426.66640000001604,
                    "velocity": 0.33070866141732286,
                    "duration": 0.13333325000002105
                },
                {
                    "name": "C#4",
                    "midi": 61,
                    "time": 426.66640000001604,
                    "velocity": 0.3937007874015748,
                    "duration": 0.13333325000002105
                },
                {
                    "name": "C#4",
                    "midi": 61,
                    "time": 426.9330665000161,
                    "velocity": 0.3937007874015748,
                    "duration": 0.13333325000002105
                },
                {
                    "name": "E3",
                    "midi": 52,
                    "time": 426.9330665000161,
                    "velocity": 0.33070866141732286,
                    "duration": 0.13333325000002105
                },
                {
                    "name": "A3",
                    "midi": 57,
                    "time": 427.1997330000161,
                    "velocity": 0.33070866141732286,
                    "duration": 0.13333325000002105
                },
                {
                    "name": "C#4",
                    "midi": 61,
                    "time": 427.1997330000161,
                    "velocity": 0.3937007874015748,
                    "duration": 0.13333325000002105
                },
                {
                    "name": "C#4",
                    "midi": 61,
                    "time": 427.46639950001617,
                    "velocity": 0.3937007874015748,
                    "duration": 0.13333325000002105
                },
                {
                    "name": "E3",
                    "midi": 52,
                    "time": 427.46639950001617,
                    "velocity": 0.33070866141732286,
                    "duration": 0.13333325000002105
                },
                {
                    "name": "D4",
                    "midi": 62,
                    "time": 427.7330660000162,
                    "velocity": 0.3937007874015748,
                    "duration": 0.13333325000002105
                },
                {
                    "name": "B3",
                    "midi": 59,
                    "time": 427.7330660000162,
                    "velocity": 0.33070866141732286,
                    "duration": 0.13333325000002105
                },
                {
                    "name": "E3",
                    "midi": 52,
                    "time": 427.99973250001625,
                    "velocity": 0.33070866141732286,
                    "duration": 0.13333325000002105
                },
                {
                    "name": "D4",
                    "midi": 62,
                    "time": 427.99973250001625,
                    "velocity": 0.3937007874015748,
                    "duration": 0.13333325000002105
                },
                {
                    "name": "D4",
                    "midi": 62,
                    "time": 428.2663990000163,
                    "velocity": 0.33070866141732286,
                    "duration": 0.13333325000002105
                },
                {
                    "name": "G#3",
                    "midi": 56,
                    "time": 428.2663990000163,
                    "velocity": 0.33070866141732286,
                    "duration": 0.13333325000002105
                },
                {
                    "name": "E3",
                    "midi": 52,
                    "time": 428.53306550001633,
                    "velocity": 0.33070866141732286,
                    "duration": 0.13333325000002105
                },
                {
                    "name": "D4",
                    "midi": 62,
                    "time": 428.53306550001633,
                    "velocity": 0.3937007874015748,
                    "duration": 0.13333325000002105
                },
                {
                    "name": "A3",
                    "midi": 57,
                    "time": 428.7997320000164,
                    "velocity": 0.3937007874015748,
                    "duration": 0.5333330000000274
                },
                {
                    "name": "C#4",
                    "midi": 61,
                    "time": 428.7997320000164,
                    "velocity": 0.4409448818897638,
                    "duration": 0.5333330000000274
                },
                {
                    "name": "A3",
                    "midi": 57,
                    "time": 429.86639800001643,
                    "velocity": 0.4251968503937008,
                    "duration": 0.13333325000002105
                },
                {
                    "name": "B3",
                    "midi": 59,
                    "time": 429.99973125001645,
                    "velocity": 0.3228346456692913,
                    "duration": 0.13333325000002105
                },
                {
                    "name": "C#4",
                    "midi": 61,
                    "time": 430.1330645000165,
                    "velocity": 0.4015748031496063,
                    "duration": 0.13333325000002105
                },
                {
                    "name": "F#4",
                    "midi": 66,
                    "time": 430.2663977500165,
                    "velocity": 0.33070866141732286,
                    "duration": 0.13333325000002105
                },
                {
                    "name": "E4",
                    "midi": 64,
                    "time": 430.3997310000165,
                    "velocity": 0.4251968503937008,
                    "duration": 0.13333325000002105
                },
                {
                    "name": "C#4",
                    "midi": 61,
                    "time": 430.53306425001654,
                    "velocity": 0.31496062992125984,
                    "duration": 0.13333325000002105
                },
                {
                    "name": "B3",
                    "midi": 59,
                    "time": 430.66639750001656,
                    "velocity": 0.3937007874015748,
                    "duration": 0.13333325000002105
                },
                {
                    "name": "A3",
                    "midi": 57,
                    "time": 430.7997307500166,
                    "velocity": 0.36220472440944884,
                    "duration": 0.13333325000002105
                },
                {
                    "name": "A3",
                    "midi": 57,
                    "time": 430.9330640000166,
                    "velocity": 0.44881889763779526,
                    "duration": 0.26666649999998526
                },
                {
                    "name": "B3",
                    "midi": 59,
                    "time": 431.1997305000166,
                    "velocity": 0.44881889763779526,
                    "duration": 0.13333325000002105
                },
                {
                    "name": "A3",
                    "midi": 57,
                    "time": 431.3330637500166,
                    "velocity": 0.33070866141732286,
                    "duration": 0.13333325000002105
                },
                {
                    "name": "G#3",
                    "midi": 56,
                    "time": 431.4663970000166,
                    "velocity": 0.41732283464566927,
                    "duration": 0.13333325000002105
                },
                {
                    "name": "A3",
                    "midi": 57,
                    "time": 431.59973025001665,
                    "velocity": 0.2992125984251969,
                    "duration": 0.13333325000002105
                },
                {
                    "name": "G#3",
                    "midi": 56,
                    "time": 431.73306350001667,
                    "velocity": 0.4251968503937008,
                    "duration": 0.13333325000002105
                },
                {
                    "name": "A3",
                    "midi": 57,
                    "time": 431.8663967500167,
                    "velocity": 0.30708661417322836,
                    "duration": 0.13333325000002105
                },
                {
                    "name": "B3",
                    "midi": 59,
                    "time": 431.9997300000167,
                    "velocity": 0.4251968503937008,
                    "duration": 0.13333325000002105
                },
                {
                    "name": "C#4",
                    "midi": 61,
                    "time": 432.13306325001673,
                    "velocity": 0.33858267716535434,
                    "duration": 0.13333325000002105
                },
                {
                    "name": "D4",
                    "midi": 62,
                    "time": 432.26639650001675,
                    "velocity": 0.3858267716535433,
                    "duration": 0.13333325000002105
                },
                {
                    "name": "F#4",
                    "midi": 66,
                    "time": 432.3997297500168,
                    "velocity": 0.33858267716535434,
                    "duration": 0.13333325000002105
                },
                {
                    "name": "E4",
                    "midi": 64,
                    "time": 432.5330630000168,
                    "velocity": 0.4251968503937008,
                    "duration": 0.13333325000002105
                },
                {
                    "name": "D4",
                    "midi": 62,
                    "time": 432.6663962500168,
                    "velocity": 0.3464566929133858,
                    "duration": 0.13333325000002105
                },
                {
                    "name": "C#4",
                    "midi": 61,
                    "time": 432.79972950001684,
                    "velocity": 0.3937007874015748,
                    "duration": 0.13333325000002105
                },
                {
                    "name": "B3",
                    "midi": 59,
                    "time": 432.93306275001686,
                    "velocity": 0.3464566929133858,
                    "duration": 0.13333325000002105
                },
                {
                    "name": "C#4",
                    "midi": 61,
                    "time": 433.0663960000169,
                    "velocity": 0.44881889763779526,
                    "duration": 0.26666649999998526
                },
                {
                    "name": "C4",
                    "midi": 60,
                    "time": 433.33306250001687,
                    "velocity": 0.44881889763779526,
                    "duration": 0.13333325000002105
                },
                {
                    "name": "C#4",
                    "midi": 61,
                    "time": 433.4663957500169,
                    "velocity": 0.3937007874015748,
                    "duration": 0.13333325000002105
                },
                {
                    "name": "E4",
                    "midi": 64,
                    "time": 433.5997290000169,
                    "velocity": 0.4251968503937008,
                    "duration": 0.13333325000002105
                },
                {
                    "name": "C#4",
                    "midi": 61,
                    "time": 433.7330622500169,
                    "velocity": 0.4015748031496063,
                    "duration": 0.13333325000002105
                },
                {
                    "name": "B3",
                    "midi": 59,
                    "time": 433.86639550001695,
                    "velocity": 0.4251968503937008,
                    "duration": 0.13333325000002105
                },
                {
                    "name": "A3",
                    "midi": 57,
                    "time": 433.99972875001697,
                    "velocity": 0.4015748031496063,
                    "duration": 0.13333325000002105
                },
                {
                    "name": "G3",
                    "midi": 55,
                    "time": 434.133062000017,
                    "velocity": 0.3937007874015748,
                    "duration": 0.13333325000002105
                },
                {
                    "name": "A3",
                    "midi": 57,
                    "time": 434.266395250017,
                    "velocity": 0.36220472440944884,
                    "duration": 0.13333325000002105
                },
                {
                    "name": "C#4",
                    "midi": 61,
                    "time": 434.39972850001703,
                    "velocity": 0.3937007874015748,
                    "duration": 0.13333325000002105
                },
                {
                    "name": "F#4",
                    "midi": 66,
                    "time": 434.53306175001705,
                    "velocity": 0.33858267716535434,
                    "duration": 0.13333325000002105
                },
                {
                    "name": "E4",
                    "midi": 64,
                    "time": 434.6663950000171,
                    "velocity": 0.3779527559055118,
                    "duration": 0.13333325000002105
                },
                {
                    "name": "C#4",
                    "midi": 61,
                    "time": 434.7997282500171,
                    "velocity": 0.3700787401574803,
                    "duration": 0.13333325000002105
                },
                {
                    "name": "A3",
                    "midi": 57,
                    "time": 434.9330615000171,
                    "velocity": 0.41732283464566927,
                    "duration": 0.13333325000002105
                },
                {
                    "name": "G3",
                    "midi": 55,
                    "time": 435.06639475001714,
                    "velocity": 0.3858267716535433,
                    "duration": 0.13333325000002105
                },
                {
                    "name": "F#3",
                    "midi": 54,
                    "time": 435.19972800001716,
                    "velocity": 0.4566929133858268,
                    "duration": 0.13333325000002105
                },
                {
                    "name": "G#3",
                    "midi": 56,
                    "time": 435.3330612500172,
                    "velocity": 0.36220472440944884,
                    "duration": 0.13333325000002105
                },
                {
                    "name": "A3",
                    "midi": 57,
                    "time": 435.4663945000172,
                    "velocity": 0.4015748031496063,
                    "duration": 0.13333325000002105
                },
                {
                    "name": "D4",
                    "midi": 62,
                    "time": 435.5997277500172,
                    "velocity": 0.36220472440944884,
                    "duration": 0.13333325000002105
                },
                {
                    "name": "F3",
                    "midi": 53,
                    "time": 435.73306100001724,
                    "velocity": 0.4094488188976378,
                    "duration": 0.13333325000002105
                },
                {
                    "name": "G#3",
                    "midi": 56,
                    "time": 435.86639425001727,
                    "velocity": 0.3228346456692913,
                    "duration": 0.13333325000002105
                },
                {
                    "name": "A3",
                    "midi": 57,
                    "time": 435.9997275000173,
                    "velocity": 0.36220472440944884,
                    "duration": 0.13333325000002105
                },
                {
                    "name": "D4",
                    "midi": 62,
                    "time": 436.1330607500173,
                    "velocity": 0.3228346456692913,
                    "duration": 0.13333325000002105
                },
                {
                    "name": "E3",
                    "midi": 52,
                    "time": 436.2663940000173,
                    "velocity": 0.3937007874015748,
                    "duration": 0.13333325000002105
                },
                {
                    "name": "A3",
                    "midi": 57,
                    "time": 436.39972725001735,
                    "velocity": 0.3228346456692913,
                    "duration": 0.13333325000002105
                },
                {
                    "name": "B3",
                    "midi": 59,
                    "time": 436.53306050001737,
                    "velocity": 0.36220472440944884,
                    "duration": 0.13333325000002105
                },
                {
                    "name": "C#4",
                    "midi": 61,
                    "time": 436.6663937500174,
                    "velocity": 0.3228346456692913,
                    "duration": 0.13333325000002105
                },
                {
                    "name": "E4",
                    "midi": 64,
                    "time": 436.7997270000174,
                    "velocity": 0.3779527559055118,
                    "duration": 0.13333325000002105
                },
                {
                    "name": "D4",
                    "midi": 62,
                    "time": 436.93306025001743,
                    "velocity": 0.3228346456692913,
                    "duration": 0.13333325000002105
                },
                {
                    "name": "C#4",
                    "midi": 61,
                    "time": 437.06639350001745,
                    "velocity": 0.3464566929133858,
                    "duration": 0.13333325000002105
                },
                {
                    "name": "B3",
                    "midi": 59,
                    "time": 437.1997267500175,
                    "velocity": 0.3228346456692913,
                    "duration": 0.13333325000002105
                },
                {
                    "name": "A3",
                    "midi": 57,
                    "time": 437.3330600000175,
                    "velocity": 0.3858267716535433,
                    "duration": 0.12777769791665605
                },
                {
                    "name": "A3",
                    "midi": 57,
                    "time": 437.5997265000175,
                    "velocity": 0.3858267716535433,
                    "duration": 0.12777769791665605
                },
                {
                    "name": "A3",
                    "midi": 57,
                    "time": 437.86639300001747,
                    "velocity": 0.2677165354330709,
                    "duration": 0.13333325000002105
                },
                {
                    "name": "C#4",
                    "midi": 61,
                    "time": 437.86639300001747,
                    "velocity": 0.2677165354330709,
                    "duration": 0.13333325000002105
                },
                {
                    "name": "A4",
                    "midi": 69,
                    "time": 437.86639300001747,
                    "velocity": 0.3779527559055118,
                    "duration": 0.13333325000002105
                },
                {
                    "name": "C#4",
                    "midi": 61,
                    "time": 438.1330595000175,
                    "velocity": 0.3543307086614173,
                    "duration": 0.13333325000002105
                },
                {
                    "name": "A4",
                    "midi": 69,
                    "time": 438.1330595000175,
                    "velocity": 0.41732283464566927,
                    "duration": 0.13333325000002105
                },
                {
                    "name": "A3",
                    "midi": 57,
                    "time": 438.1330595000175,
                    "velocity": 0.3543307086614173,
                    "duration": 0.13333325000002105
                },
                {
                    "name": "B3",
                    "midi": 59,
                    "time": 438.39972600001755,
                    "velocity": 0.3779527559055118,
                    "duration": 0.13333325000002105
                },
                {
                    "name": "D4",
                    "midi": 62,
                    "time": 438.39972600001755,
                    "velocity": 0.3779527559055118,
                    "duration": 0.13333325000002105
                },
                {
                    "name": "G#4",
                    "midi": 68,
                    "time": 438.39972600001755,
                    "velocity": 0.44881889763779526,
                    "duration": 0.13333325000002105
                },
                {
                    "name": "G#4",
                    "midi": 68,
                    "time": 438.6663925000176,
                    "velocity": 0.4251968503937008,
                    "duration": 0.13333325000002105
                },
                {
                    "name": "B3",
                    "midi": 59,
                    "time": 438.6663925000176,
                    "velocity": 0.3543307086614173,
                    "duration": 0.13333325000002105
                },
                {
                    "name": "D4",
                    "midi": 62,
                    "time": 438.6663925000176,
                    "velocity": 0.3543307086614173,
                    "duration": 0.13333325000002105
                },
                {
                    "name": "E4",
                    "midi": 64,
                    "time": 438.93305900001764,
                    "velocity": 0.31496062992125984,
                    "duration": 0.13333325000002105
                },
                {
                    "name": "C#4",
                    "midi": 61,
                    "time": 438.93305900001764,
                    "velocity": 0.31496062992125984,
                    "duration": 0.13333325000002105
                },
                {
                    "name": "G4",
                    "midi": 67,
                    "time": 438.93305900001764,
                    "velocity": 0.3779527559055118,
                    "duration": 0.13333325000002105
                },
                {
                    "name": "C#4",
                    "midi": 61,
                    "time": 439.1997255000177,
                    "velocity": 0.28346456692913385,
                    "duration": 0.13333325000002105
                },
                {
                    "name": "G4",
                    "midi": 67,
                    "time": 439.1997255000177,
                    "velocity": 0.3464566929133858,
                    "duration": 0.13333325000002105
                },
                {
                    "name": "E4",
                    "midi": 64,
                    "time": 439.1997255000177,
                    "velocity": 0.28346456692913385,
                    "duration": 0.13333325000002105
                },
                {
                    "name": "F#4",
                    "midi": 66,
                    "time": 439.4663920000177,
                    "velocity": 0.28346456692913385,
                    "duration": 0.13333325000002105
                },
                {
                    "name": "D4",
                    "midi": 62,
                    "time": 439.4663920000177,
                    "velocity": 0.23622047244094488,
                    "duration": 0.13333325000002105
                },
                {
                    "name": "A3",
                    "midi": 57,
                    "time": 439.73305850001776,
                    "velocity": 0.2047244094488189,
                    "duration": 0.13333325000002105
                },
                {
                    "name": "F#4",
                    "midi": 66,
                    "time": 439.73305850001776,
                    "velocity": 0.2440944881889764,
                    "duration": 0.13333325000002105
                },
                {
                    "name": "F#4",
                    "midi": 66,
                    "time": 439.9997250000178,
                    "velocity": 0.28346456692913385,
                    "duration": 0.13333325000002105
                },
                {
                    "name": "D4",
                    "midi": 62,
                    "time": 439.9997250000178,
                    "velocity": 0.23622047244094488,
                    "duration": 0.13333325000002105
                },
                {
                    "name": "A3",
                    "midi": 57,
                    "time": 440.26639150001785,
                    "velocity": 0.2047244094488189,
                    "duration": 0.13333325000002105
                },
                {
                    "name": "F#4",
                    "midi": 66,
                    "time": 440.26639150001785,
                    "velocity": 0.2440944881889764,
                    "duration": 0.13333325000002105
                },
                {
                    "name": "D4",
                    "midi": 62,
                    "time": 440.5330580000179,
                    "velocity": 0.23622047244094488,
                    "duration": 0.13333325000002105
                },
                {
                    "name": "F#4",
                    "midi": 66,
                    "time": 440.5330580000179,
                    "velocity": 0.28346456692913385,
                    "duration": 0.13333325000002105
                },
                {
                    "name": "F#4",
                    "midi": 66,
                    "time": 440.79972450001793,
                    "velocity": 0.2440944881889764,
                    "duration": 0.13333325000002105
                },
                {
                    "name": "A3",
                    "midi": 57,
                    "time": 440.79972450001793,
                    "velocity": 0.2047244094488189,
                    "duration": 0.13333325000002105
                },
                {
                    "name": "D4",
                    "midi": 62,
                    "time": 441.066391000018,
                    "velocity": 0.23622047244094488,
                    "duration": 0.13333325000002105
                },
                {
                    "name": "F#4",
                    "midi": 66,
                    "time": 441.066391000018,
                    "velocity": 0.28346456692913385,
                    "duration": 0.13333325000002105
                },
                {
                    "name": "A3",
                    "midi": 57,
                    "time": 441.333057500018,
                    "velocity": 0.2047244094488189,
                    "duration": 0.13333325000002105
                },
                {
                    "name": "F#4",
                    "midi": 66,
                    "time": 441.333057500018,
                    "velocity": 0.2440944881889764,
                    "duration": 0.13333325000002105
                },
                {
                    "name": "F#4",
                    "midi": 66,
                    "time": 441.59972400001806,
                    "velocity": 0.28346456692913385,
                    "duration": 0.13333325000002105
                },
                {
                    "name": "D4",
                    "midi": 62,
                    "time": 441.59972400001806,
                    "velocity": 0.23622047244094488,
                    "duration": 0.13333325000002105
                },
                {
                    "name": "F#4",
                    "midi": 66,
                    "time": 441.8663905000181,
                    "velocity": 0.2440944881889764,
                    "duration": 0.13333325000002105
                },
                {
                    "name": "A3",
                    "midi": 57,
                    "time": 441.8663905000181,
                    "velocity": 0.2047244094488189,
                    "duration": 0.13333325000002105
                },
                {
                    "name": "D4",
                    "midi": 62,
                    "time": 442.13305700001814,
                    "velocity": 0.23622047244094488,
                    "duration": 0.13333325000002105
                },
                {
                    "name": "F#4",
                    "midi": 66,
                    "time": 442.13305700001814,
                    "velocity": 0.28346456692913385,
                    "duration": 0.13333325000002105
                },
                {
                    "name": "A3",
                    "midi": 57,
                    "time": 442.3997235000182,
                    "velocity": 0.2047244094488189,
                    "duration": 0.13333325000002105
                },
                {
                    "name": "F#4",
                    "midi": 66,
                    "time": 442.3997235000182,
                    "velocity": 0.2440944881889764,
                    "duration": 0.13333325000002105
                },
                {
                    "name": "E4",
                    "midi": 64,
                    "time": 442.6663900000182,
                    "velocity": 0.23622047244094488,
                    "duration": 0.13333325000002105
                },
                {
                    "name": "G4",
                    "midi": 67,
                    "time": 442.6663900000182,
                    "velocity": 0.28346456692913385,
                    "duration": 0.13333325000002105
                },
                {
                    "name": "A3",
                    "midi": 57,
                    "time": 442.93305650001827,
                    "velocity": 0.2047244094488189,
                    "duration": 0.13333325000002105
                },
                {
                    "name": "G4",
                    "midi": 67,
                    "time": 442.93305650001827,
                    "velocity": 0.2440944881889764,
                    "duration": 0.13333325000002105
                },
                {
                    "name": "C#4",
                    "midi": 61,
                    "time": 443.1997230000183,
                    "velocity": 0.23622047244094488,
                    "duration": 0.13333325000002105
                },
                {
                    "name": "G4",
                    "midi": 67,
                    "time": 443.1997230000183,
                    "velocity": 0.28346456692913385,
                    "duration": 0.13333325000002105
                },
                {
                    "name": "A3",
                    "midi": 57,
                    "time": 443.46638950001835,
                    "velocity": 0.2047244094488189,
                    "duration": 0.13333325000002105
                },
                {
                    "name": "G4",
                    "midi": 67,
                    "time": 443.46638950001835,
                    "velocity": 0.2440944881889764,
                    "duration": 0.13333325000002105
                },
                {
                    "name": "F#4",
                    "midi": 66,
                    "time": 443.7330560000184,
                    "velocity": 0.28346456692913385,
                    "duration": 0.13333325000002105
                },
                {
                    "name": "D4",
                    "midi": 62,
                    "time": 443.7330560000184,
                    "velocity": 0.23622047244094488,
                    "duration": 0.13333325000002105
                },
                {
                    "name": "F#4",
                    "midi": 66,
                    "time": 443.99972250001844,
                    "velocity": 0.23622047244094488,
                    "duration": 0.13333325000002105
                },
                {
                    "name": "A3",
                    "midi": 57,
                    "time": 443.99972250001844,
                    "velocity": 0.1968503937007874,
                    "duration": 0.13333325000002105
                },
                {
                    "name": "F#4",
                    "midi": 66,
                    "time": 444.2663890000185,
                    "velocity": 0.28346456692913385,
                    "duration": 0.13333325000002105
                },
                {
                    "name": "D4",
                    "midi": 62,
                    "time": 444.2663890000185,
                    "velocity": 0.23622047244094488,
                    "duration": 0.13333325000002105
                },
                {
                    "name": "F#4",
                    "midi": 66,
                    "time": 444.5330555000185,
                    "velocity": 0.23622047244094488,
                    "duration": 0.13333325000002105
                },
                {
                    "name": "A3",
                    "midi": 57,
                    "time": 444.5330555000185,
                    "velocity": 0.1968503937007874,
                    "duration": 0.13333325000002105
                },
                {
                    "name": "E4",
                    "midi": 64,
                    "time": 444.79972200001856,
                    "velocity": 0.23622047244094488,
                    "duration": 0.13333325000002105
                },
                {
                    "name": "G4",
                    "midi": 67,
                    "time": 444.79972200001856,
                    "velocity": 0.28346456692913385,
                    "duration": 0.13333325000002105
                },
                {
                    "name": "A3",
                    "midi": 57,
                    "time": 445.0663885000186,
                    "velocity": 0.2125984251968504,
                    "duration": 0.13333325000002105
                },
                {
                    "name": "G4",
                    "midi": 67,
                    "time": 445.0663885000186,
                    "velocity": 0.25196850393700787,
                    "duration": 0.13333325000002105
                },
                {
                    "name": "G4",
                    "midi": 67,
                    "time": 445.33305500001865,
                    "velocity": 0.28346456692913385,
                    "duration": 0.13333325000002105
                },
                {
                    "name": "C#4",
                    "midi": 61,
                    "time": 445.33305500001865,
                    "velocity": 0.23622047244094488,
                    "duration": 0.13333325000002105
                },
                {
                    "name": "G4",
                    "midi": 67,
                    "time": 445.5997215000187,
                    "velocity": 0.25196850393700787,
                    "duration": 0.13333325000002105
                },
                {
                    "name": "A3",
                    "midi": 57,
                    "time": 445.5997215000187,
                    "velocity": 0.2125984251968504,
                    "duration": 0.13333325000002105
                },
                {
                    "name": "F#4",
                    "midi": 66,
                    "time": 445.86638800001873,
                    "velocity": 0.28346456692913385,
                    "duration": 0.13333325000002105
                },
                {
                    "name": "D4",
                    "midi": 62,
                    "time": 445.86638800001873,
                    "velocity": 0.23622047244094488,
                    "duration": 0.13333325000002105
                },
                {
                    "name": "A3",
                    "midi": 57,
                    "time": 446.1330545000188,
                    "velocity": 0.2047244094488189,
                    "duration": 0.13333325000002105
                },
                {
                    "name": "F#4",
                    "midi": 66,
                    "time": 446.1330545000188,
                    "velocity": 0.2440944881889764,
                    "duration": 0.13333325000002105
                },
                {
                    "name": "D4",
                    "midi": 62,
                    "time": 446.3997210000188,
                    "velocity": 0.23622047244094488,
                    "duration": 0.13333325000002105
                },
                {
                    "name": "F#4",
                    "midi": 66,
                    "time": 446.3997210000188,
                    "velocity": 0.28346456692913385,
                    "duration": 0.13333325000002105
                },
                {
                    "name": "A3",
                    "midi": 57,
                    "time": 446.66638750001886,
                    "velocity": 0.2047244094488189,
                    "duration": 0.13333325000002105
                },
                {
                    "name": "F#4",
                    "midi": 66,
                    "time": 446.66638750001886,
                    "velocity": 0.2440944881889764,
                    "duration": 0.13333325000002105
                },
                {
                    "name": "G4",
                    "midi": 67,
                    "time": 446.9330540000189,
                    "velocity": 0.28346456692913385,
                    "duration": 0.13333325000002105
                },
                {
                    "name": "D4",
                    "midi": 62,
                    "time": 446.9330540000189,
                    "velocity": 0.23622047244094488,
                    "duration": 0.13333325000002105
                },
                {
                    "name": "G4",
                    "midi": 67,
                    "time": 447.19972050001894,
                    "velocity": 0.2440944881889764,
                    "duration": 0.13333325000002105
                },
                {
                    "name": "D4",
                    "midi": 62,
                    "time": 447.19972050001894,
                    "velocity": 0.2047244094488189,
                    "duration": 0.13333325000002105
                },
                {
                    "name": "G3",
                    "midi": 55,
                    "time": 447.19972050001894,
                    "velocity": 0.2047244094488189,
                    "duration": 0.13333325000002105
                },
                {
                    "name": "D4",
                    "midi": 62,
                    "time": 447.466387000019,
                    "velocity": 0.23622047244094488,
                    "duration": 0.13333325000002105
                },
                {
                    "name": "G4",
                    "midi": 67,
                    "time": 447.466387000019,
                    "velocity": 0.28346456692913385,
                    "duration": 0.13333325000002105
                },
                {
                    "name": "G4",
                    "midi": 67,
                    "time": 447.733053500019,
                    "velocity": 0.2440944881889764,
                    "duration": 0.13333325000002105
                },
                {
                    "name": "D4",
                    "midi": 62,
                    "time": 447.733053500019,
                    "velocity": 0.2047244094488189,
                    "duration": 0.13333325000002105
                },
                {
                    "name": "B3",
                    "midi": 59,
                    "time": 447.733053500019,
                    "velocity": 0.2047244094488189,
                    "duration": 0.13333325000002105
                },
                {
                    "name": "D4",
                    "midi": 62,
                    "time": 447.99972000001907,
                    "velocity": 0.23622047244094488,
                    "duration": 0.13333325000002105
                },
                {
                    "name": "F#4",
                    "midi": 66,
                    "time": 447.99972000001907,
                    "velocity": 0.28346456692913385,
                    "duration": 0.13333325000002105
                },
                {
                    "name": "A3",
                    "midi": 57,
                    "time": 448.2663865000191,
                    "velocity": 0.1968503937007874,
                    "duration": 0.13333325000002105
                },
                {
                    "name": "F#4",
                    "midi": 66,
                    "time": 448.2663865000191,
                    "velocity": 0.23622047244094488,
                    "duration": 0.13333325000002105
                },
                {
                    "name": "F#4",
                    "midi": 66,
                    "time": 448.53305300001915,
                    "velocity": 0.28346456692913385,
                    "duration": 0.13333325000002105
                },
                {
                    "name": "D4",
                    "midi": 62,
                    "time": 448.53305300001915,
                    "velocity": 0.23622047244094488,
                    "duration": 0.13333325000002105
                },
                {
                    "name": "A3",
                    "midi": 57,
                    "time": 448.7997195000192,
                    "velocity": 0.1968503937007874,
                    "duration": 0.13333325000002105
                },
                {
                    "name": "F#4",
                    "midi": 66,
                    "time": 448.7997195000192,
                    "velocity": 0.23622047244094488,
                    "duration": 0.13333325000002105
                },
                {
                    "name": "D4",
                    "midi": 62,
                    "time": 449.06638600001924,
                    "velocity": 0.1968503937007874,
                    "duration": 0.13333325000002105
                },
                {
                    "name": "F4",
                    "midi": 65,
                    "time": 449.06638600001924,
                    "velocity": 0.23622047244094488,
                    "duration": 0.13333325000002105
                },
                {
                    "name": "F4",
                    "midi": 65,
                    "time": 449.3330525000193,
                    "velocity": 0.2125984251968504,
                    "duration": 0.13333325000002105
                },
                {
                    "name": "A3",
                    "midi": 57,
                    "time": 449.3330525000193,
                    "velocity": 0.1732283464566929,
                    "duration": 0.13333325000002105
                },
                {
                    "name": "D4",
                    "midi": 62,
                    "time": 449.5997190000193,
                    "velocity": 0.1968503937007874,
                    "duration": 0.13333325000002105
                },
                {
                    "name": "F4",
                    "midi": 65,
                    "time": 449.5997190000193,
                    "velocity": 0.23622047244094488,
                    "duration": 0.13333325000002105
                },
                {
                    "name": "A3",
                    "midi": 57,
                    "time": 449.86638550001936,
                    "velocity": 0.1732283464566929,
                    "duration": 0.13333325000002105
                },
                {
                    "name": "F4",
                    "midi": 65,
                    "time": 449.86638550001936,
                    "velocity": 0.2125984251968504,
                    "duration": 0.13333325000002105
                },
                {
                    "name": "D4",
                    "midi": 62,
                    "time": 450.1330520000194,
                    "velocity": 0.1968503937007874,
                    "duration": 0.13333325000002105
                },
                {
                    "name": "F4",
                    "midi": 65,
                    "time": 450.1330520000194,
                    "velocity": 0.23622047244094488,
                    "duration": 0.13333325000002105
                },
                {
                    "name": "F4",
                    "midi": 65,
                    "time": 450.39971850001945,
                    "velocity": 0.2047244094488189,
                    "duration": 0.13333325000002105
                },
                {
                    "name": "A3",
                    "midi": 57,
                    "time": 450.39971850001945,
                    "velocity": 0.1732283464566929,
                    "duration": 0.13333325000002105
                },
                {
                    "name": "D4",
                    "midi": 62,
                    "time": 450.6663850000195,
                    "velocity": 0.1968503937007874,
                    "duration": 0.13333325000002105
                },
                {
                    "name": "F4",
                    "midi": 65,
                    "time": 450.6663850000195,
                    "velocity": 0.23622047244094488,
                    "duration": 0.13333325000002105
                },
                {
                    "name": "F4",
                    "midi": 65,
                    "time": 450.93305150001953,
                    "velocity": 0.2047244094488189,
                    "duration": 0.13333325000002105
                },
                {
                    "name": "A3",
                    "midi": 57,
                    "time": 450.93305150001953,
                    "velocity": 0.1732283464566929,
                    "duration": 0.13333325000002105
                },
                {
                    "name": "D#4",
                    "midi": 63,
                    "time": 451.1997180000196,
                    "velocity": 0.1968503937007874,
                    "duration": 0.13333325000002105
                },
                {
                    "name": "F4",
                    "midi": 65,
                    "time": 451.1997180000196,
                    "velocity": 0.23622047244094488,
                    "duration": 0.13333325000002105
                },
                {
                    "name": "F4",
                    "midi": 65,
                    "time": 451.4663845000196,
                    "velocity": 0.2125984251968504,
                    "duration": 0.13333325000002105
                },
                {
                    "name": "D#4",
                    "midi": 63,
                    "time": 451.4663845000196,
                    "velocity": 0.1732283464566929,
                    "duration": 0.13333325000002105
                },
                {
                    "name": "A3",
                    "midi": 57,
                    "time": 451.4663845000196,
                    "velocity": 0.1732283464566929,
                    "duration": 0.13333325000002105
                },
                {
                    "name": "C4",
                    "midi": 60,
                    "time": 451.73305100001966,
                    "velocity": 0.2125984251968504,
                    "duration": 0.13333325000002105
                },
                {
                    "name": "F4",
                    "midi": 65,
                    "time": 451.73305100001966,
                    "velocity": 0.25984251968503935,
                    "duration": 0.13333325000002105
                },
                {
                    "name": "D#4",
                    "midi": 63,
                    "time": 451.73305100001966,
                    "velocity": 0.2125984251968504,
                    "duration": 0.13333325000002105
                },
                {
                    "name": "D#4",
                    "midi": 63,
                    "time": 451.9997175000197,
                    "velocity": 0.1889763779527559,
                    "duration": 0.13333325000002105
                },
                {
                    "name": "F4",
                    "midi": 65,
                    "time": 451.9997175000197,
                    "velocity": 0.2283464566929134,
                    "duration": 0.13333325000002105
                },
                {
                    "name": "F3",
                    "midi": 53,
                    "time": 451.9997175000197,
                    "velocity": 0.1889763779527559,
                    "duration": 0.13333325000002105
                },
                {
                    "name": "A#3",
                    "midi": 58,
                    "time": 452.26638400001974,
                    "velocity": 0.23622047244094488,
                    "duration": 0.13333325000002105
                },
                {
                    "name": "F4",
                    "midi": 65,
                    "time": 452.26638400001974,
                    "velocity": 0.28346456692913385,
                    "duration": 0.13333325000002105
                },
                {
                    "name": "D4",
                    "midi": 62,
                    "time": 452.26638400001974,
                    "velocity": 0.23622047244094488,
                    "duration": 0.13333325000002105
                },
                {
                    "name": "F4",
                    "midi": 65,
                    "time": 452.5330505000198,
                    "velocity": 0.23622047244094488,
                    "duration": 0.13333325000002105
                },
                {
                    "name": "D4",
                    "midi": 62,
                    "time": 452.5330505000198,
                    "velocity": 0.1968503937007874,
                    "duration": 0.13333325000002105
                },
                {
                    "name": "A#3",
                    "midi": 58,
                    "time": 452.7997170000198,
                    "velocity": 0.23622047244094488,
                    "duration": 0.13333325000002105
                },
                {
                    "name": "D4",
                    "midi": 62,
                    "time": 452.7997170000198,
                    "velocity": 0.23622047244094488,
                    "duration": 0.13333325000002105
                },
                {
                    "name": "F4",
                    "midi": 65,
                    "time": 452.7997170000198,
                    "velocity": 0.28346456692913385,
                    "duration": 0.13333325000002105
                },
                {
                    "name": "D4",
                    "midi": 62,
                    "time": 453.06638350001987,
                    "velocity": 0.1968503937007874,
                    "duration": 0.13333325000002105
                },
                {
                    "name": "F4",
                    "midi": 65,
                    "time": 453.06638350001987,
                    "velocity": 0.23622047244094488,
                    "duration": 0.13333325000002105
                },
                {
                    "name": "G#4",
                    "midi": 68,
                    "time": 453.3330500000199,
                    "velocity": 0.28346456692913385,
                    "duration": 0.13333325000002105
                },
                {
                    "name": "D4",
                    "midi": 62,
                    "time": 453.3330500000199,
                    "velocity": 0.23622047244094488,
                    "duration": 0.13333325000002105
                },
                {
                    "name": "A#3",
                    "midi": 58,
                    "time": 453.3330500000199,
                    "velocity": 0.23622047244094488,
                    "duration": 0.13333325000002105
                },
                {
                    "name": "F4",
                    "midi": 65,
                    "time": 453.59971650001995,
                    "velocity": 0.25196850393700787,
                    "duration": 0.13333325000002105
                },
                {
                    "name": "D4",
                    "midi": 62,
                    "time": 453.59971650001995,
                    "velocity": 0.2125984251968504,
                    "duration": 0.13333325000002105
                },
                {
                    "name": "A#3",
                    "midi": 58,
                    "time": 453.59971650001995,
                    "velocity": 0.2125984251968504,
                    "duration": 0.13333325000002105
                },
                {
                    "name": "D4",
                    "midi": 62,
                    "time": 453.86638300002,
                    "velocity": 0.2440944881889764,
                    "duration": 0.13333325000002105
                },
                {
                    "name": "G#4",
                    "midi": 68,
                    "time": 453.86638300002,
                    "velocity": 0.2992125984251969,
                    "duration": 0.13333325000002105
                },
                {
                    "name": "A#3",
                    "midi": 58,
                    "time": 453.86638300002,
                    "velocity": 0.2440944881889764,
                    "duration": 0.13333325000002105
                },
                {
                    "name": "D4",
                    "midi": 62,
                    "time": 454.13304950002004,
                    "velocity": 0.2283464566929134,
                    "duration": 0.13333325000002105
                },
                {
                    "name": "F4",
                    "midi": 65,
                    "time": 454.13304950002004,
                    "velocity": 0.2755905511811024,
                    "duration": 0.13333325000002105
                },
                {
                    "name": "A#3",
                    "midi": 58,
                    "time": 454.13304950002004,
                    "velocity": 0.2283464566929134,
                    "duration": 0.13333325000002105
                },
                {
                    "name": "A4",
                    "midi": 69,
                    "time": 454.3997160000201,
                    "velocity": 0.31496062992125984,
                    "duration": 0.13333325000002105
                },
                {
                    "name": "D4",
                    "midi": 62,
                    "time": 454.3997160000201,
                    "velocity": 0.25984251968503935,
                    "duration": 0.13333325000002105
                },
                {
                    "name": "A3",
                    "midi": 57,
                    "time": 454.3997160000201,
                    "velocity": 0.25984251968503935,
                    "duration": 0.13333325000002105
                },
                {
                    "name": "F#4",
                    "midi": 66,
                    "time": 454.3997160000201,
                    "velocity": 0.25984251968503935,
                    "duration": 0.13333325000002105
                },
                {
                    "name": "F#4",
                    "midi": 66,
                    "time": 454.6663825000201,
                    "velocity": 0.2047244094488189,
                    "duration": 0.13333325000002105
                },
                {
                    "name": "D4",
                    "midi": 62,
                    "time": 454.6663825000201,
                    "velocity": 0.2047244094488189,
                    "duration": 0.13333325000002105
                },
                {
                    "name": "A4",
                    "midi": 69,
                    "time": 454.6663825000201,
                    "velocity": 0.2440944881889764,
                    "duration": 0.13333325000002105
                },
                {
                    "name": "A3",
                    "midi": 57,
                    "time": 454.93304900002016,
                    "velocity": 0.23622047244094488,
                    "duration": 0.13333325000002105
                },
                {
                    "name": "A4",
                    "midi": 69,
                    "time": 454.93304900002016,
                    "velocity": 0.28346456692913385,
                    "duration": 0.13333325000002105
                },
                {
                    "name": "F#4",
                    "midi": 66,
                    "time": 454.93304900002016,
                    "velocity": 0.23622047244094488,
                    "duration": 0.13333325000002105
                },
                {
                    "name": "F#4",
                    "midi": 66,
                    "time": 455.1997155000202,
                    "velocity": 0.2047244094488189,
                    "duration": 0.13333325000002105
                },
                {
                    "name": "D4",
                    "midi": 62,
                    "time": 455.1997155000202,
                    "velocity": 0.2047244094488189,
                    "duration": 0.13333325000002105
                },
                {
                    "name": "A4",
                    "midi": 69,
                    "time": 455.1997155000202,
                    "velocity": 0.2440944881889764,
                    "duration": 0.13333325000002105
                },
                {
                    "name": "G4",
                    "midi": 67,
                    "time": 455.46638200002025,
                    "velocity": 0.23622047244094488,
                    "duration": 0.13333325000002105
                },
                {
                    "name": "A4",
                    "midi": 69,
                    "time": 455.46638200002025,
                    "velocity": 0.28346456692913385,
                    "duration": 0.13333325000002105
                },
                {
                    "name": "C#4",
                    "midi": 61,
                    "time": 455.46638200002025,
                    "velocity": 0.23622047244094488,
                    "duration": 0.13333325000002105
                },
                {
                    "name": "A3",
                    "midi": 57,
                    "time": 455.7330485000203,
                    "velocity": 0.2047244094488189,
                    "duration": 0.13333325000002105
                },
                {
                    "name": "G4",
                    "midi": 67,
                    "time": 455.7330485000203,
                    "velocity": 0.2047244094488189,
                    "duration": 0.13333325000002105
                },
                {
                    "name": "A4",
                    "midi": 69,
                    "time": 455.7330485000203,
                    "velocity": 0.2440944881889764,
                    "duration": 0.13333325000002105
                },
                {
                    "name": "A4",
                    "midi": 69,
                    "time": 455.99971500002033,
                    "velocity": 0.28346456692913385,
                    "duration": 0.13333325000002105
                },
                {
                    "name": "G4",
                    "midi": 67,
                    "time": 455.99971500002033,
                    "velocity": 0.23622047244094488,
                    "duration": 0.13333325000002105
                },
                {
                    "name": "C#4",
                    "midi": 61,
                    "time": 455.99971500002033,
                    "velocity": 0.23622047244094488,
                    "duration": 0.13333325000002105
                },
                {
                    "name": "A4",
                    "midi": 69,
                    "time": 456.2663815000204,
                    "velocity": 0.2440944881889764,
                    "duration": 0.13333325000002105
                },
                {
                    "name": "A3",
                    "midi": 57,
                    "time": 456.2663815000204,
                    "velocity": 0.2047244094488189,
                    "duration": 0.13333325000002105
                },
                {
                    "name": "G4",
                    "midi": 67,
                    "time": 456.2663815000204,
                    "velocity": 0.2047244094488189,
                    "duration": 0.13333325000002105
                },
                {
                    "name": "A3",
                    "midi": 57,
                    "time": 456.5330480000204,
                    "velocity": 0.25984251968503935,
                    "duration": 0.13333325000002105
                },
                {
                    "name": "F#4",
                    "midi": 66,
                    "time": 456.5330480000204,
                    "velocity": 0.25984251968503935,
                    "duration": 0.13333325000002105
                },
                {
                    "name": "A4",
                    "midi": 69,
                    "time": 456.5330480000204,
                    "velocity": 0.31496062992125984,
                    "duration": 0.13333325000002105
                },
                {
                    "name": "F#4",
                    "midi": 66,
                    "time": 456.79971450002046,
                    "velocity": 0.2047244094488189,
                    "duration": 0.13333325000002105
                },
                {
                    "name": "A4",
                    "midi": 69,
                    "time": 456.79971450002046,
                    "velocity": 0.2440944881889764,
                    "duration": 0.13333325000002105
                },
                {
                    "name": "D4",
                    "midi": 62,
                    "time": 456.79971450002046,
                    "velocity": 0.2047244094488189,
                    "duration": 0.13333325000002105
                },
                {
                    "name": "A3",
                    "midi": 57,
                    "time": 457.0663810000205,
                    "velocity": 0.23622047244094488,
                    "duration": 0.13333325000002105
                },
                {
                    "name": "A4",
                    "midi": 69,
                    "time": 457.0663810000205,
                    "velocity": 0.28346456692913385,
                    "duration": 0.13333325000002105
                },
                {
                    "name": "F#4",
                    "midi": 66,
                    "time": 457.0663810000205,
                    "velocity": 0.23622047244094488,
                    "duration": 0.13333325000002105
                },
                {
                    "name": "A4",
                    "midi": 69,
                    "time": 457.33304750002054,
                    "velocity": 0.2440944881889764,
                    "duration": 0.13333325000002105
                },
                {
                    "name": "F#4",
                    "midi": 66,
                    "time": 457.33304750002054,
                    "velocity": 0.2047244094488189,
                    "duration": 0.13333325000002105
                },
                {
                    "name": "D4",
                    "midi": 62,
                    "time": 457.33304750002054,
                    "velocity": 0.2047244094488189,
                    "duration": 0.13333325000002105
                },
                {
                    "name": "D4",
                    "midi": 62,
                    "time": 457.5997140000206,
                    "velocity": 0.23622047244094488,
                    "duration": 0.13333325000002105
                },
                {
                    "name": "G3",
                    "midi": 55,
                    "time": 457.5997140000206,
                    "velocity": 0.23622047244094488,
                    "duration": 0.13333325000002105
                },
                {
                    "name": "G4",
                    "midi": 67,
                    "time": 457.5997140000206,
                    "velocity": 0.28346456692913385,
                    "duration": 0.13333325000002105
                },
                {
                    "name": "B3",
                    "midi": 59,
                    "time": 457.8663805000206,
                    "velocity": 0.1968503937007874,
                    "duration": 0.13333325000002105
                },
                {
                    "name": "G4",
                    "midi": 67,
                    "time": 457.8663805000206,
                    "velocity": 0.23622047244094488,
                    "duration": 0.13333325000002105
                },
                {
                    "name": "D4",
                    "midi": 62,
                    "time": 457.8663805000206,
                    "velocity": 0.1968503937007874,
                    "duration": 0.13333325000002105
                },
                {
                    "name": "D4",
                    "midi": 62,
                    "time": 458.13304700002067,
                    "velocity": 0.2125984251968504,
                    "duration": 0.13333325000002105
                },
                {
                    "name": "B3",
                    "midi": 59,
                    "time": 458.13304700002067,
                    "velocity": 0.2125984251968504,
                    "duration": 0.13333325000002105
                },
                {
                    "name": "G4",
                    "midi": 67,
                    "time": 458.13304700002067,
                    "velocity": 0.25984251968503935,
                    "duration": 0.13333325000002105
                },
                {
                    "name": "D4",
                    "midi": 62,
                    "time": 458.3997135000207,
                    "velocity": 0.18110236220472442,
                    "duration": 0.13333325000002105
                },
                {
                    "name": "G4",
                    "midi": 67,
                    "time": 458.3997135000207,
                    "velocity": 0.2125984251968504,
                    "duration": 0.13333325000002105
                },
                {
                    "name": "F#4",
                    "midi": 66,
                    "time": 458.66638000002075,
                    "velocity": 0.1889763779527559,
                    "duration": 0.13333325000002105
                },
                {
                    "name": "A4",
                    "midi": 69,
                    "time": 458.66638000002075,
                    "velocity": 0.23622047244094488,
                    "duration": 0.13333325000002105
                },
                {
                    "name": "D4",
                    "midi": 62,
                    "time": 458.66638000002075,
                    "velocity": 0.1889763779527559,
                    "duration": 0.13333325000002105
                },
                {
                    "name": "A4",
                    "midi": 69,
                    "time": 458.9330465000208,
                    "velocity": 0.18110236220472442,
                    "duration": 0.13333325000002105
                },
                {
                    "name": "F#4",
                    "midi": 66,
                    "time": 458.9330465000208,
                    "velocity": 0.14960629921259844,
                    "duration": 0.13333325000002105
                },
                {
                    "name": "A3",
                    "midi": 57,
                    "time": 458.9330465000208,
                    "velocity": 0.14960629921259844,
                    "duration": 0.13333325000002105
                },
                {
                    "name": "A4",
                    "midi": 69,
                    "time": 459.19971300002084,
                    "velocity": 0.2125984251968504,
                    "duration": 0.13333325000002105
                },
                {
                    "name": "D4",
                    "midi": 62,
                    "time": 459.19971300002084,
                    "velocity": 0.1732283464566929,
                    "duration": 0.13333325000002105
                },
                {
                    "name": "F#4",
                    "midi": 66,
                    "time": 459.19971300002084,
                    "velocity": 0.1732283464566929,
                    "duration": 0.13333325000002105
                },
                {
                    "name": "A4",
                    "midi": 69,
                    "time": 459.4663795000209,
                    "velocity": 0.18110236220472442,
                    "duration": 0.13333325000002105
                },
                {
                    "name": "A3",
                    "midi": 57,
                    "time": 459.4663795000209,
                    "velocity": 0.14960629921259844,
                    "duration": 0.13333325000002105
                },
                {
                    "name": "F#4",
                    "midi": 66,
                    "time": 459.4663795000209,
                    "velocity": 0.14960629921259844,
                    "duration": 0.13333325000002105
                },
                {
                    "name": "G4",
                    "midi": 67,
                    "time": 459.7330460000209,
                    "velocity": 0.1732283464566929,
                    "duration": 0.13333325000002105
                },
                {
                    "name": "A4",
                    "midi": 69,
                    "time": 459.7330460000209,
                    "velocity": 0.2125984251968504,
                    "duration": 0.13333325000002105
                },
                {
                    "name": "C#4",
                    "midi": 61,
                    "time": 459.7330460000209,
                    "velocity": 0.1732283464566929,
                    "duration": 0.13333325000002105
                },
                {
                    "name": "A3",
                    "midi": 57,
                    "time": 459.99971250002096,
                    "velocity": 0.14960629921259844,
                    "duration": 0.13333325000002105
                },
                {
                    "name": "G4",
                    "midi": 67,
                    "time": 459.99971250002096,
                    "velocity": 0.14960629921259844,
                    "duration": 0.13333325000002105
                },
                {
                    "name": "A4",
                    "midi": 69,
                    "time": 459.99971250002096,
                    "velocity": 0.18110236220472442,
                    "duration": 0.13333325000002105
                },
                {
                    "name": "G4",
                    "midi": 67,
                    "time": 460.266379000021,
                    "velocity": 0.1732283464566929,
                    "duration": 0.13333325000002105
                },
                {
                    "name": "C#4",
                    "midi": 61,
                    "time": 460.266379000021,
                    "velocity": 0.1732283464566929,
                    "duration": 0.13333325000002105
                },
                {
                    "name": "A4",
                    "midi": 69,
                    "time": 460.266379000021,
                    "velocity": 0.2125984251968504,
                    "duration": 0.13333325000002105
                },
                {
                    "name": "A3",
                    "midi": 57,
                    "time": 460.53304550002105,
                    "velocity": 0.14960629921259844,
                    "duration": 0.13333325000002105
                },
                {
                    "name": "G4",
                    "midi": 67,
                    "time": 460.53304550002105,
                    "velocity": 0.14960629921259844,
                    "duration": 0.13333325000002105
                },
                {
                    "name": "A4",
                    "midi": 69,
                    "time": 460.53304550002105,
                    "velocity": 0.18110236220472442,
                    "duration": 0.13333325000002105
                },
                {
                    "name": "A3",
                    "midi": 57,
                    "time": 460.7997120000211,
                    "velocity": 0.1889763779527559,
                    "duration": 0.13333325000002105
                },
                {
                    "name": "A4",
                    "midi": 69,
                    "time": 460.7997120000211,
                    "velocity": 0.23622047244094488,
                    "duration": 0.13333325000002105
                },
                {
                    "name": "F#4",
                    "midi": 66,
                    "time": 460.7997120000211,
                    "velocity": 0.1889763779527559,
                    "duration": 0.13333325000002105
                },
                {
                    "name": "F#4",
                    "midi": 66,
                    "time": 461.06637850002113,
                    "velocity": 0.14960629921259844,
                    "duration": 0.13333325000002105
                },
                {
                    "name": "D4",
                    "midi": 62,
                    "time": 461.06637850002113,
                    "velocity": 0.14960629921259844,
                    "duration": 0.13333325000002105
                },
                {
                    "name": "A4",
                    "midi": 69,
                    "time": 461.06637850002113,
                    "velocity": 0.18110236220472442,
                    "duration": 0.13333325000002105
                },
                {
                    "name": "A4",
                    "midi": 69,
                    "time": 461.3330450000212,
                    "velocity": 0.2125984251968504,
                    "duration": 0.13333325000002105
                },
                {
                    "name": "A3",
                    "midi": 57,
                    "time": 461.3330450000212,
                    "velocity": 0.1732283464566929,
                    "duration": 0.13333325000002105
                },
                {
                    "name": "F#4",
                    "midi": 66,
                    "time": 461.3330450000212,
                    "velocity": 0.1732283464566929,
                    "duration": 0.13333325000002105
                },
                {
                    "name": "D4",
                    "midi": 62,
                    "time": 461.5997115000212,
                    "velocity": 0.14960629921259844,
                    "duration": 0.13333325000002105
                },
                {
                    "name": "F#4",
                    "midi": 66,
                    "time": 461.5997115000212,
                    "velocity": 0.14960629921259844,
                    "duration": 0.13333325000002105
                },
                {
                    "name": "A4",
                    "midi": 69,
                    "time": 461.5997115000212,
                    "velocity": 0.18110236220472442,
                    "duration": 0.13333325000002105
                },
                {
                    "name": "G4",
                    "midi": 67,
                    "time": 461.86637800002126,
                    "velocity": 0.2125984251968504,
                    "duration": 0.13333325000002105
                },
                {
                    "name": "G3",
                    "midi": 55,
                    "time": 461.86637800002126,
                    "velocity": 0.1732283464566929,
                    "duration": 0.13333325000002105
                },
                {
                    "name": "D4",
                    "midi": 62,
                    "time": 461.86637800002126,
                    "velocity": 0.1732283464566929,
                    "duration": 0.13333325000002105
                },
                {
                    "name": "D4",
                    "midi": 62,
                    "time": 462.1330445000213,
                    "velocity": 0.14960629921259844,
                    "duration": 0.13333325000002105
                },
                {
                    "name": "B3",
                    "midi": 59,
                    "time": 462.1330445000213,
                    "velocity": 0.14960629921259844,
                    "duration": 0.13333325000002105
                },
                {
                    "name": "G4",
                    "midi": 67,
                    "time": 462.1330445000213,
                    "velocity": 0.18110236220472442,
                    "duration": 0.13333325000002105
                },
                {
                    "name": "D4",
                    "midi": 62,
                    "time": 462.39971100002134,
                    "velocity": 0.1732283464566929,
                    "duration": 0.13333325000002105
                },
                {
                    "name": "B3",
                    "midi": 59,
                    "time": 462.39971100002134,
                    "velocity": 0.1732283464566929,
                    "duration": 0.13333325000002105
                },
                {
                    "name": "G4",
                    "midi": 67,
                    "time": 462.39971100002134,
                    "velocity": 0.2125984251968504,
                    "duration": 0.13333325000002105
                },
                {
                    "name": "D4",
                    "midi": 62,
                    "time": 462.6663775000214,
                    "velocity": 0.14960629921259844,
                    "duration": 0.13333325000002105
                },
                {
                    "name": "G4",
                    "midi": 67,
                    "time": 462.6663775000214,
                    "velocity": 0.18110236220472442,
                    "duration": 0.13333325000002105
                },
                {
                    "name": "F#4",
                    "midi": 66,
                    "time": 462.9330440000214,
                    "velocity": 0.23622047244094488,
                    "duration": 0.13333325000002105
                },
                {
                    "name": "D4",
                    "midi": 62,
                    "time": 462.9330440000214,
                    "velocity": 0.1889763779527559,
                    "duration": 0.13333325000002105
                },
                {
                    "name": "F#4",
                    "midi": 66,
                    "time": 463.19971050002147,
                    "velocity": 0.18110236220472442,
                    "duration": 0.13333325000002105
                },
                {
                    "name": "A3",
                    "midi": 57,
                    "time": 463.19971050002147,
                    "velocity": 0.14960629921259844,
                    "duration": 0.13333325000002105
                },
                {
                    "name": "F#4",
                    "midi": 66,
                    "time": 463.4663770000215,
                    "velocity": 0.2125984251968504,
                    "duration": 0.13333325000002105
                },
                {
                    "name": "D4",
                    "midi": 62,
                    "time": 463.4663770000215,
                    "velocity": 0.1732283464566929,
                    "duration": 0.13333325000002105
                },
                {
                    "name": "A3",
                    "midi": 57,
                    "time": 463.73304350002155,
                    "velocity": 0.14960629921259844,
                    "duration": 0.13333325000002105
                },
                {
                    "name": "F#4",
                    "midi": 66,
                    "time": 463.73304350002155,
                    "velocity": 0.18110236220472442,
                    "duration": 0.13333325000002105
                },
                {
                    "name": "C#4",
                    "midi": 61,
                    "time": 463.9997100000216,
                    "velocity": 0.1732283464566929,
                    "duration": 0.13333325000002105
                },
                {
                    "name": "G4",
                    "midi": 67,
                    "time": 463.9997100000216,
                    "velocity": 0.2125984251968504,
                    "duration": 0.13333325000002105
                },
                {
                    "name": "G4",
                    "midi": 67,
                    "time": 464.26637650002164,
                    "velocity": 0.18110236220472442,
                    "duration": 0.13333325000002105
                },
                {
                    "name": "A3",
                    "midi": 57,
                    "time": 464.26637650002164,
                    "velocity": 0.14960629921259844,
                    "duration": 0.13333325000002105
                },
                {
                    "name": "C#4",
                    "midi": 61,
                    "time": 464.5330430000217,
                    "velocity": 0.1732283464566929,
                    "duration": 0.13333325000002105
                },
                {
                    "name": "G4",
                    "midi": 67,
                    "time": 464.5330430000217,
                    "velocity": 0.2125984251968504,
                    "duration": 0.13333325000002105
                },
                {
                    "name": "A3",
                    "midi": 57,
                    "time": 464.7997095000217,
                    "velocity": 0.14960629921259844,
                    "duration": 0.13333325000002105
                },
                {
                    "name": "G4",
                    "midi": 67,
                    "time": 464.7997095000217,
                    "velocity": 0.18110236220472442,
                    "duration": 0.13333325000002105
                },
                {
                    "name": "A3",
                    "midi": 57,
                    "time": 465.06637600002176,
                    "velocity": 0.1889763779527559,
                    "duration": 0.13333325000002105
                },
                {
                    "name": "F#4",
                    "midi": 66,
                    "time": 465.06637600002176,
                    "velocity": 0.23622047244094488,
                    "duration": 0.13333325000002105
                },
                {
                    "name": "D4",
                    "midi": 62,
                    "time": 465.3330425000218,
                    "velocity": 0.14960629921259844,
                    "duration": 0.13333325000002105
                },
                {
                    "name": "F#4",
                    "midi": 66,
                    "time": 465.3330425000218,
                    "velocity": 0.18110236220472442,
                    "duration": 0.13333325000002105
                },
                {
                    "name": "F#4",
                    "midi": 66,
                    "time": 465.59970900002185,
                    "velocity": 0.2125984251968504,
                    "duration": 0.13333325000002105
                },
                {
                    "name": "A3",
                    "midi": 57,
                    "time": 465.59970900002185,
                    "velocity": 0.1732283464566929,
                    "duration": 0.13333325000002105
                },
                {
                    "name": "D4",
                    "midi": 62,
                    "time": 465.8663755000219,
                    "velocity": 0.14960629921259844,
                    "duration": 0.13333325000002105
                },
                {
                    "name": "F#4",
                    "midi": 66,
                    "time": 465.8663755000219,
                    "velocity": 0.18110236220472442,
                    "duration": 0.13333325000002105
                },
                {
                    "name": "D4",
                    "midi": 62,
                    "time": 466.13304200002193,
                    "velocity": 0.1732283464566929,
                    "duration": 0.13333325000002105
                },
                {
                    "name": "G4",
                    "midi": 67,
                    "time": 466.13304200002193,
                    "velocity": 0.2125984251968504,
                    "duration": 0.13333325000002105
                },
                {
                    "name": "G3",
                    "midi": 55,
                    "time": 466.13304200002193,
                    "velocity": 0.1732283464566929,
                    "duration": 0.13333325000002105
                },
                {
                    "name": "D4",
                    "midi": 62,
                    "time": 466.399708500022,
                    "velocity": 0.14960629921259844,
                    "duration": 0.13333325000002105
                },
                {
                    "name": "B3",
                    "midi": 59,
                    "time": 466.399708500022,
                    "velocity": 0.14960629921259844,
                    "duration": 0.13333325000002105
                },
                {
                    "name": "G4",
                    "midi": 67,
                    "time": 466.399708500022,
                    "velocity": 0.18110236220472442,
                    "duration": 0.13333325000002105
                },
                {
                    "name": "G4",
                    "midi": 67,
                    "time": 466.666375000022,
                    "velocity": 0.2047244094488189,
                    "duration": 0.13333325000002105
                },
                {
                    "name": "B3",
                    "midi": 59,
                    "time": 466.666375000022,
                    "velocity": 0.16535433070866143,
                    "duration": 0.13333325000002105
                },
                {
                    "name": "D4",
                    "midi": 62,
                    "time": 466.666375000022,
                    "velocity": 0.16535433070866143,
                    "duration": 0.13333325000002105
                },
                {
                    "name": "G4",
                    "midi": 67,
                    "time": 466.93304150002206,
                    "velocity": 0.1732283464566929,
                    "duration": 0.13333325000002105
                },
                {
                    "name": "D4",
                    "midi": 62,
                    "time": 466.93304150002206,
                    "velocity": 0.14173228346456693,
                    "duration": 0.13333325000002105
                },
                {
                    "name": "D4",
                    "midi": 62,
                    "time": 467.1997080000221,
                    "velocity": 0.18110236220472442,
                    "duration": 0.13333325000002105
                },
                {
                    "name": "F#4",
                    "midi": 66,
                    "time": 467.1997080000221,
                    "velocity": 0.2283464566929134,
                    "duration": 0.13333325000002105
                },
                {
                    "name": "A3",
                    "midi": 57,
                    "time": 467.46637450002214,
                    "velocity": 0.14173228346456693,
                    "duration": 0.13333325000002105
                },
                {
                    "name": "F#4",
                    "midi": 66,
                    "time": 467.46637450002214,
                    "velocity": 0.1732283464566929,
                    "duration": 0.13333325000002105
                },
                {
                    "name": "D4",
                    "midi": 62,
                    "time": 467.7330410000222,
                    "velocity": 0.16535433070866143,
                    "duration": 0.13333325000002105
                },
                {
                    "name": "F#4",
                    "midi": 66,
                    "time": 467.7330410000222,
                    "velocity": 0.1968503937007874,
                    "duration": 0.13333325000002105
                },
                {
                    "name": "A3",
                    "midi": 57,
                    "time": 467.9997075000222,
                    "velocity": 0.14173228346456693,
                    "duration": 0.13333325000002105
                },
                {
                    "name": "F#4",
                    "midi": 66,
                    "time": 467.9997075000222,
                    "velocity": 0.16535433070866143,
                    "duration": 0.13333325000002105
                },
                {
                    "name": "G4",
                    "midi": 67,
                    "time": 468.26637400002227,
                    "velocity": 0.1968503937007874,
                    "duration": 0.13333325000002105
                },
                {
                    "name": "C#4",
                    "midi": 61,
                    "time": 468.26637400002227,
                    "velocity": 0.15748031496062992,
                    "duration": 0.13333325000002105
                },
                {
                    "name": "G4",
                    "midi": 67,
                    "time": 468.5330405000223,
                    "velocity": 0.16535433070866143,
                    "duration": 0.13333325000002105
                },
                {
                    "name": "A3",
                    "midi": 57,
                    "time": 468.5330405000223,
                    "velocity": 0.13385826771653545,
                    "duration": 0.13333325000002105
                },
                {
                    "name": "G4",
                    "midi": 67,
                    "time": 468.79970700002235,
                    "velocity": 0.1968503937007874,
                    "duration": 0.13333325000002105
                },
                {
                    "name": "C#4",
                    "midi": 61,
                    "time": 468.79970700002235,
                    "velocity": 0.15748031496062992,
                    "duration": 0.13333325000002105
                },
                {
                    "name": "A3",
                    "midi": 57,
                    "time": 469.0663735000224,
                    "velocity": 0.13385826771653545,
                    "duration": 0.13333325000002105
                },
                {
                    "name": "G4",
                    "midi": 67,
                    "time": 469.0663735000224,
                    "velocity": 0.16535433070866143,
                    "duration": 0.13333325000002105
                },
                {
                    "name": "D4",
                    "midi": 62,
                    "time": 469.33304000002244,
                    "velocity": 0.16535433070866143,
                    "duration": 0.13333325000002105
                },
                {
                    "name": "F#4",
                    "midi": 66,
                    "time": 469.33304000002244,
                    "velocity": 0.2125984251968504,
                    "duration": 0.13333325000002105
                },
                {
                    "name": "F#4",
                    "midi": 66,
                    "time": 469.5997065000225,
                    "velocity": 0.15748031496062992,
                    "duration": 0.13333325000002105
                },
                {
                    "name": "A3",
                    "midi": 57,
                    "time": 469.5997065000225,
                    "velocity": 0.13385826771653545,
                    "duration": 0.13333325000002105
                },
                {
                    "name": "D4",
                    "midi": 62,
                    "time": 469.8663730000225,
                    "velocity": 0.14960629921259844,
                    "duration": 0.13333325000002105
                },
                {
                    "name": "F#4",
                    "midi": 66,
                    "time": 469.8663730000225,
                    "velocity": 0.1889763779527559,
                    "duration": 0.13333325000002105
                },
                {
                    "name": "A3",
                    "midi": 57,
                    "time": 470.13303950002256,
                    "velocity": 0.12598425196850394,
                    "duration": 0.13333325000002105
                },
                {
                    "name": "F#4",
                    "midi": 66,
                    "time": 470.13303950002256,
                    "velocity": 0.15748031496062992,
                    "duration": 0.13333325000002105
                },
                {
                    "name": "C#4",
                    "midi": 61,
                    "time": 470.3997060000226,
                    "velocity": 0.14960629921259844,
                    "duration": 0.13333325000002105
                },
                {
                    "name": "G4",
                    "midi": 67,
                    "time": 470.3997060000226,
                    "velocity": 0.18110236220472442,
                    "duration": 0.13333325000002105
                },
                {
                    "name": "A3",
                    "midi": 57,
                    "time": 470.66637250002265,
                    "velocity": 0.12598425196850394,
                    "duration": 0.13333325000002105
                },
                {
                    "name": "G4",
                    "midi": 67,
                    "time": 470.66637250002265,
                    "velocity": 0.15748031496062992,
                    "duration": 0.13333325000002105
                },
                {
                    "name": "G4",
                    "midi": 67,
                    "time": 470.9330390000227,
                    "velocity": 0.18110236220472442,
                    "duration": 0.13333325000002105
                },
                {
                    "name": "C#4",
                    "midi": 61,
                    "time": 470.9330390000227,
                    "velocity": 0.14960629921259844,
                    "duration": 0.13333325000002105
                },
                {
                    "name": "A3",
                    "midi": 57,
                    "time": 471.19970550002273,
                    "velocity": 0.12598425196850394,
                    "duration": 0.13333325000002105
                },
                {
                    "name": "G4",
                    "midi": 67,
                    "time": 471.19970550002273,
                    "velocity": 0.14960629921259844,
                    "duration": 0.13333325000002105
                },
                {
                    "name": "D4",
                    "midi": 62,
                    "time": 471.4663720000228,
                    "velocity": 0.1889763779527559,
                    "duration": 0.13333325000002105
                },
                {
                    "name": "F#4",
                    "midi": 66,
                    "time": 471.4663720000228,
                    "velocity": 0.2204724409448819,
                    "duration": 0.13333325000002105
                },
                {
                    "name": "F#4",
                    "midi": 66,
                    "time": 471.7330385000228,
                    "velocity": 0.1889763779527559,
                    "duration": 0.13333325000002105
                },
                {
                    "name": "C#4",
                    "midi": 61,
                    "time": 471.7330385000228,
                    "velocity": 0.15748031496062992,
                    "duration": 0.13333325000002105
                },
                {
                    "name": "B3",
                    "midi": 59,
                    "time": 471.99970500002286,
                    "velocity": 0.1889763779527559,
                    "duration": 0.13333325000002105
                },
                {
                    "name": "F#4",
                    "midi": 66,
                    "time": 471.99970500002286,
                    "velocity": 0.2204724409448819,
                    "duration": 0.13333325000002105
                },
                {
                    "name": "F#4",
                    "midi": 66,
                    "time": 472.2663715000229,
                    "velocity": 0.1889763779527559,
                    "duration": 0.13333325000002105
                },
                {
                    "name": "A3",
                    "midi": 57,
                    "time": 472.2663715000229,
                    "velocity": 0.15748031496062992,
                    "duration": 0.13333325000002105
                },
                {
                    "name": "C#4",
                    "midi": 61,
                    "time": 472.53303800002294,
                    "velocity": 0.1889763779527559,
                    "duration": 0.13333325000002105
                },
                {
                    "name": "G4",
                    "midi": 67,
                    "time": 472.53303800002294,
                    "velocity": 0.2204724409448819,
                    "duration": 0.13333325000002105
                },
                {
                    "name": "E4",
                    "midi": 64,
                    "time": 472.799704500023,
                    "velocity": 0.15748031496062992,
                    "duration": 0.13333325000002105
                },
                {
                    "name": "G4",
                    "midi": 67,
                    "time": 472.799704500023,
                    "velocity": 0.1889763779527559,
                    "duration": 0.13333325000002105
                },
                {
                    "name": "C#4",
                    "midi": 61,
                    "time": 473.066371000023,
                    "velocity": 0.1889763779527559,
                    "duration": 0.13333325000002105
                },
                {
                    "name": "G4",
                    "midi": 67,
                    "time": 473.066371000023,
                    "velocity": 0.2204724409448819,
                    "duration": 0.13333325000002105
                },
                {
                    "name": "A3",
                    "midi": 57,
                    "time": 473.33303750002307,
                    "velocity": 0.15748031496062992,
                    "duration": 0.13333325000002105
                },
                {
                    "name": "G4",
                    "midi": 67,
                    "time": 473.33303750002307,
                    "velocity": 0.1889763779527559,
                    "duration": 0.13333325000002105
                },
                {
                    "name": "F#4",
                    "midi": 66,
                    "time": 473.5997040000231,
                    "velocity": 0.2204724409448819,
                    "duration": 0.13333325000002105
                },
                {
                    "name": "D4",
                    "midi": 62,
                    "time": 473.5997040000231,
                    "velocity": 0.1889763779527559,
                    "duration": 0.13333325000002105
                },
                {
                    "name": "F#4",
                    "midi": 66,
                    "time": 473.86637050002315,
                    "velocity": 0.1889763779527559,
                    "duration": 0.13333325000002105
                },
                {
                    "name": "C#4",
                    "midi": 61,
                    "time": 473.86637050002315,
                    "velocity": 0.15748031496062992,
                    "duration": 0.13333325000002105
                },
                {
                    "name": "B3",
                    "midi": 59,
                    "time": 474.1330370000232,
                    "velocity": 0.1889763779527559,
                    "duration": 0.13333325000002105
                },
                {
                    "name": "F#4",
                    "midi": 66,
                    "time": 474.1330370000232,
                    "velocity": 0.2204724409448819,
                    "duration": 0.13333325000002105
                },
                {
                    "name": "A3",
                    "midi": 57,
                    "time": 474.39970350002324,
                    "velocity": 0.15748031496062992,
                    "duration": 0.13333325000002105
                },
                {
                    "name": "F#4",
                    "midi": 66,
                    "time": 474.39970350002324,
                    "velocity": 0.1889763779527559,
                    "duration": 0.13333325000002105
                },
                {
                    "name": "G4",
                    "midi": 67,
                    "time": 474.6663700000233,
                    "velocity": 0.2204724409448819,
                    "duration": 0.13333325000002105
                },
                {
                    "name": "C#4",
                    "midi": 61,
                    "time": 474.6663700000233,
                    "velocity": 0.1889763779527559,
                    "duration": 0.13333325000002105
                },
                {
                    "name": "G4",
                    "midi": 67,
                    "time": 474.9330365000233,
                    "velocity": 0.1889763779527559,
                    "duration": 0.13333325000002105
                },
                {
                    "name": "E4",
                    "midi": 64,
                    "time": 474.9330365000233,
                    "velocity": 0.15748031496062992,
                    "duration": 0.13333325000002105
                },
                {
                    "name": "G4",
                    "midi": 67,
                    "time": 475.19970300002336,
                    "velocity": 0.2204724409448819,
                    "duration": 0.13333325000002105
                },
                {
                    "name": "C#4",
                    "midi": 61,
                    "time": 475.19970300002336,
                    "velocity": 0.1889763779527559,
                    "duration": 0.13333325000002105
                },
                {
                    "name": "G4",
                    "midi": 67,
                    "time": 475.4663695000234,
                    "velocity": 0.1889763779527559,
                    "duration": 0.13333325000002105
                },
                {
                    "name": "A3",
                    "midi": 57,
                    "time": 475.4663695000234,
                    "velocity": 0.15748031496062992,
                    "duration": 0.13333325000002105
                },
                {
                    "name": "D3",
                    "midi": 50,
                    "time": 475.73303600002345,
                    "velocity": 0.1889763779527559,
                    "duration": 0.13333325000002105
                },
                {
                    "name": "F#3",
                    "midi": 54,
                    "time": 475.73303600002345,
                    "velocity": 0.2204724409448819,
                    "duration": 0.13333325000002105
                },
                {
                    "name": "C#3",
                    "midi": 49,
                    "time": 475.9997025000235,
                    "velocity": 0.15748031496062992,
                    "duration": 0.13333325000002105
                },
                {
                    "name": "F#3",
                    "midi": 54,
                    "time": 475.9997025000235,
                    "velocity": 0.1889763779527559,
                    "duration": 0.13333325000002105
                },
                {
                    "name": "B2",
                    "midi": 47,
                    "time": 476.26636900002353,
                    "velocity": 0.1889763779527559,
                    "duration": 0.13333325000002105
                },
                {
                    "name": "F#3",
                    "midi": 54,
                    "time": 476.26636900002353,
                    "velocity": 0.2204724409448819,
                    "duration": 0.13333325000002105
                },
                {
                    "name": "A2",
                    "midi": 45,
                    "time": 476.5330355000236,
                    "velocity": 0.15748031496062992,
                    "duration": 0.13333325000002105
                },
                {
                    "name": "F#3",
                    "midi": 54,
                    "time": 476.5330355000236,
                    "velocity": 0.1889763779527559,
                    "duration": 0.13333325000002105
                },
                {
                    "name": "G3",
                    "midi": 55,
                    "time": 476.7997020000236,
                    "velocity": 0.2204724409448819,
                    "duration": 0.13333325000002105
                },
                {
                    "name": "C#3",
                    "midi": 49,
                    "time": 476.7997020000236,
                    "velocity": 0.1889763779527559,
                    "duration": 0.13333325000002105
                },
                {
                    "name": "E3",
                    "midi": 52,
                    "time": 477.06636850002366,
                    "velocity": 0.15748031496062992,
                    "duration": 0.13333325000002105
                },
                {
                    "name": "G3",
                    "midi": 55,
                    "time": 477.06636850002366,
                    "velocity": 0.1889763779527559,
                    "duration": 0.13333325000002105
                },
                {
                    "name": "G3",
                    "midi": 55,
                    "time": 477.3330350000237,
                    "velocity": 0.2204724409448819,
                    "duration": 0.13333325000002105
                },
                {
                    "name": "C#3",
                    "midi": 49,
                    "time": 477.3330350000237,
                    "velocity": 0.1889763779527559,
                    "duration": 0.13333325000002105
                },
                {
                    "name": "A2",
                    "midi": 45,
                    "time": 477.59970150002374,
                    "velocity": 0.15748031496062992,
                    "duration": 0.13333325000002105
                },
                {
                    "name": "G3",
                    "midi": 55,
                    "time": 477.59970150002374,
                    "velocity": 0.1889763779527559,
                    "duration": 0.13333325000002105
                },
                {
                    "name": "D3",
                    "midi": 50,
                    "time": 477.8663680000238,
                    "velocity": 0.1889763779527559,
                    "duration": 0.13333325000002105
                },
                {
                    "name": "F#3",
                    "midi": 54,
                    "time": 477.8663680000238,
                    "velocity": 0.2204724409448819,
                    "duration": 0.13333325000002105
                },
                {
                    "name": "C#3",
                    "midi": 49,
                    "time": 478.1330345000238,
                    "velocity": 0.15748031496062992,
                    "duration": 0.13333325000002105
                },
                {
                    "name": "F#3",
                    "midi": 54,
                    "time": 478.1330345000238,
                    "velocity": 0.1889763779527559,
                    "duration": 0.13333325000002105
                },
                {
                    "name": "B2",
                    "midi": 47,
                    "time": 478.39970100002387,
                    "velocity": 0.1889763779527559,
                    "duration": 0.13333325000002105
                },
                {
                    "name": "F#3",
                    "midi": 54,
                    "time": 478.39970100002387,
                    "velocity": 0.2204724409448819,
                    "duration": 0.13333325000002105
                },
                {
                    "name": "A2",
                    "midi": 45,
                    "time": 478.6663675000239,
                    "velocity": 0.15748031496062992,
                    "duration": 0.13333325000002105
                },
                {
                    "name": "F#3",
                    "midi": 54,
                    "time": 478.6663675000239,
                    "velocity": 0.1889763779527559,
                    "duration": 0.13333325000002105
                },
                {
                    "name": "G3",
                    "midi": 55,
                    "time": 478.93303400002395,
                    "velocity": 0.2204724409448819,
                    "duration": 0.13333325000002105
                },
                {
                    "name": "C#3",
                    "midi": 49,
                    "time": 478.93303400002395,
                    "velocity": 0.1889763779527559,
                    "duration": 0.13333325000002105
                },
                {
                    "name": "E3",
                    "midi": 52,
                    "time": 479.199700500024,
                    "velocity": 0.15748031496062992,
                    "duration": 0.13333325000002105
                },
                {
                    "name": "G3",
                    "midi": 55,
                    "time": 479.199700500024,
                    "velocity": 0.1889763779527559,
                    "duration": 0.13333325000002105
                },
                {
                    "name": "G3",
                    "midi": 55,
                    "time": 479.46636700002404,
                    "velocity": 0.2204724409448819,
                    "duration": 0.13333325000002105
                },
                {
                    "name": "C#3",
                    "midi": 49,
                    "time": 479.46636700002404,
                    "velocity": 0.1889763779527559,
                    "duration": 0.13333325000002105
                },
                {
                    "name": "A2",
                    "midi": 45,
                    "time": 479.7330335000241,
                    "velocity": 0.15748031496062992,
                    "duration": 0.13333325000002105
                },
                {
                    "name": "G3",
                    "midi": 55,
                    "time": 479.7330335000241,
                    "velocity": 0.1889763779527559,
                    "duration": 0.13333325000002105
                },
                {
                    "name": "D3",
                    "midi": 50,
                    "time": 479.9997000000241,
                    "velocity": 0.1889763779527559,
                    "duration": 0.13333325000002105
                },
                {
                    "name": "F#3",
                    "midi": 54,
                    "time": 479.9997000000241,
                    "velocity": 0.2204724409448819,
                    "duration": 0.13333325000002105
                },
                {
                    "name": "A2",
                    "midi": 45,
                    "time": 480.26636650002416,
                    "velocity": 0.15748031496062992,
                    "duration": 0.13333325000002105
                },
                {
                    "name": "F#3",
                    "midi": 54,
                    "time": 480.26636650002416,
                    "velocity": 0.1889763779527559,
                    "duration": 0.13333325000002105
                },
                {
                    "name": "F#3",
                    "midi": 54,
                    "time": 480.5330330000242,
                    "velocity": 0.2125984251968504,
                    "duration": 0.13333325000002105
                },
                {
                    "name": "D3",
                    "midi": 50,
                    "time": 480.5330330000242,
                    "velocity": 0.18110236220472442,
                    "duration": 0.13333325000002105
                },
                {
                    "name": "A2",
                    "midi": 45,
                    "time": 480.79969950002425,
                    "velocity": 0.14960629921259844,
                    "duration": 0.13333325000002105
                },
                {
                    "name": "F#3",
                    "midi": 54,
                    "time": 480.79969950002425,
                    "velocity": 0.18110236220472442,
                    "duration": 0.13333325000002105
                },
                {
                    "name": "D3",
                    "midi": 50,
                    "time": 481.0663660000243,
                    "velocity": 0.18110236220472442,
                    "duration": 0.13333325000002105
                },
                {
                    "name": "F#3",
                    "midi": 54,
                    "time": 481.0663660000243,
                    "velocity": 0.2125984251968504,
                    "duration": 0.13333325000002105
                },
                {
                    "name": "A2",
                    "midi": 45,
                    "time": 481.33303250002433,
                    "velocity": 0.14960629921259844,
                    "duration": 0.13333325000002105
                },
                {
                    "name": "F#3",
                    "midi": 54,
                    "time": 481.33303250002433,
                    "velocity": 0.18110236220472442,
                    "duration": 0.13333325000002105
                },
                {
                    "name": "D3",
                    "midi": 50,
                    "time": 481.5996990000244,
                    "velocity": 0.18110236220472442,
                    "duration": 0.13333325000002105
                },
                {
                    "name": "F#3",
                    "midi": 54,
                    "time": 481.5996990000244,
                    "velocity": 0.2047244094488189,
                    "duration": 0.13333325000002105
                },
                {
                    "name": "F#3",
                    "midi": 54,
                    "time": 481.8663655000244,
                    "velocity": 0.1732283464566929,
                    "duration": 0.13333325000002105
                },
                {
                    "name": "A2",
                    "midi": 45,
                    "time": 481.8663655000244,
                    "velocity": 0.14960629921259844,
                    "duration": 0.13333325000002105
                },
                {
                    "name": "D3",
                    "midi": 50,
                    "time": 482.13303200002446,
                    "velocity": 0.2047244094488189,
                    "duration": 0.13333325000002105
                },
                {
                    "name": "F#2",
                    "midi": 42,
                    "time": 482.13303200002446,
                    "velocity": 0.1732283464566929,
                    "duration": 0.13333325000002105
                },
                {
                    "name": "A2",
                    "midi": 45,
                    "time": 482.3996985000245,
                    "velocity": 0.14173228346456693,
                    "duration": 0.13333325000002105
                },
                {
                    "name": "F#2",
                    "midi": 42,
                    "time": 482.66636500002454,
                    "velocity": 0.1732283464566929,
                    "duration": 0.13333325000002105
                },
                {
                    "name": "D3",
                    "midi": 50,
                    "time": 482.66636500002454,
                    "velocity": 0.1968503937007874,
                    "duration": 0.13333325000002105
                },
                {
                    "name": "A2",
                    "midi": 45,
                    "time": 482.9330315000246,
                    "velocity": 0.14173228346456693,
                    "duration": 0.13333325000002105
                },
                {
                    "name": "D3",
                    "midi": 50,
                    "time": 483.1996980000246,
                    "velocity": 0.1968503937007874,
                    "duration": 0.13333325000002105
                },
                {
                    "name": "F#2",
                    "midi": 42,
                    "time": 483.1996980000246,
                    "velocity": 0.16535433070866143,
                    "duration": 0.13333325000002105
                },
                {
                    "name": "A2",
                    "midi": 45,
                    "time": 483.46636450002467,
                    "velocity": 0.14173228346456693,
                    "duration": 0.13333325000002105
                },
                {
                    "name": "F#2",
                    "midi": 42,
                    "time": 483.7330310000247,
                    "velocity": 0.16535433070866143,
                    "duration": 0.13333325000002105
                },
                {
                    "name": "D3",
                    "midi": 50,
                    "time": 483.7330310000247,
                    "velocity": 0.1889763779527559,
                    "duration": 0.13333325000002105
                },
                {
                    "name": "A2",
                    "midi": 45,
                    "time": 483.99969750002475,
                    "velocity": 0.13385826771653545,
                    "duration": 0.13333325000002105
                },
                {
                    "name": "D3",
                    "midi": 50,
                    "time": 484.2663640000248,
                    "velocity": 0.1889763779527559,
                    "duration": 0.13333325000002105
                },
                {
                    "name": "D2",
                    "midi": 38,
                    "time": 484.2663640000248,
                    "velocity": 0.15748031496062992,
                    "duration": 0.13333325000002105
                },
                {
                    "name": "F#2",
                    "midi": 42,
                    "time": 484.7996970000248,
                    "velocity": 0.1889763779527559,
                    "duration": 0.13333325000002105
                },
                {
                    "name": "A2",
                    "midi": 45,
                    "time": 485.06636350002486,
                    "velocity": 0.15748031496062992,
                    "duration": 0.13333325000002105
                },
                {
                    "name": "D3",
                    "midi": 50,
                    "time": 485.3330300000249,
                    "velocity": 0.18110236220472442,
                    "duration": 0.13333325000002105
                },
                {
                    "name": "D2",
                    "midi": 38,
                    "time": 485.3330300000249,
                    "velocity": 0.15748031496062992,
                    "duration": 0.13333325000002105
                },
                {
                    "name": "F#2",
                    "midi": 42,
                    "time": 485.86636300002493,
                    "velocity": 0.18110236220472442,
                    "duration": 0.13333325000002105
                },
                {
                    "name": "A2",
                    "midi": 45,
                    "time": 486.133029500025,
                    "velocity": 0.14960629921259844,
                    "duration": 0.13333325000002105
                },
                {
                    "name": "D3",
                    "midi": 50,
                    "time": 486.399696000025,
                    "velocity": 0.1732283464566929,
                    "duration": 0.13333325000002105
                },
                {
                    "name": "D2",
                    "midi": 38,
                    "time": 486.399696000025,
                    "velocity": 0.14960629921259844,
                    "duration": 0.13333325000002105
                },
                {
                    "name": "F#4",
                    "midi": 66,
                    "time": 487.466362000025,
                    "velocity": 0.1732283464566929,
                    "duration": 0.3999997500000063
                },
                {
                    "name": "A3",
                    "midi": 57,
                    "time": 487.466362000025,
                    "velocity": 0.14173228346456693,
                    "duration": 0.3999997500000063
                },
                {
                    "name": "A3",
                    "midi": 57,
                    "time": 487.99969500002504,
                    "velocity": 0.14173228346456693,
                    "duration": 0.3999997500000063
                },
                {
                    "name": "F#4",
                    "midi": 66,
                    "time": 487.99969500002504,
                    "velocity": 0.1732283464566929,
                    "duration": 0.3999997500000063
                },
                {
                    "name": "F#4",
                    "midi": 66,
                    "time": 488.53302800002507,
                    "velocity": 0.1732283464566929,
                    "duration": 0.3999997500000063
                },
                {
                    "name": "D4",
                    "midi": 62,
                    "time": 488.53302800002507,
                    "velocity": 0.14173228346456693,
                    "duration": 0.3999997500000063
                },
                {
                    "name": "D2",
                    "midi": 38,
                    "time": 489.59969400002507,
                    "velocity": 0.14173228346456693,
                    "duration": 0.3999997500000063
                },
                {
                    "name": "A2",
                    "midi": 45,
                    "time": 489.59969400002507,
                    "velocity": 0.1732283464566929,
                    "duration": 0.3999997500000063
                },
                {
                    "name": "A2",
                    "midi": 45,
                    "time": 490.1330270000251,
                    "velocity": 0.1732283464566929,
                    "duration": 0.3999997500000063
                },
                {
                    "name": "D2",
                    "midi": 38,
                    "time": 490.6663600000251,
                    "velocity": 0.14173228346456693,
                    "duration": 1.066665999999998
                },
                {
                    "name": "A2",
                    "midi": 45,
                    "time": 490.6663600000251,
                    "velocity": 0.14173228346456693,
                    "duration": 1.066665999999998
                },
                {
                    "name": "D3",
                    "midi": 50,
                    "time": 490.6663600000251,
                    "velocity": 0.1732283464566929,
                    "duration": 1.066665999999998
                }
            ],
            "controlChanges": {},
            "id": 2,
            "name": "Piano left",
            "instrumentNumber": 0,
            "instrument": "acoustic grand piano",
            "instrumentFamily": "piano",
            "channelNumber": 0,
            "isPercussion": false
        },
        {
            "startTime": 0,
            "duration": 0,
            "length": 0,
            "notes": [],
            "controlChanges": {
                "64": [
                    {
                        "number": 64,
                        "time": 3.266664625,
                        "value": 1
                    },
                    {
                        "number": 64,
                        "time": 4.2666640000000005,
                        "value": 0
                    },
                    {
                        "number": 64,
                        "time": 4.329997293750001,
                        "value": 1
                    },
                    {
                        "number": 64,
                        "time": 5.349996656250001,
                        "value": 0
                    },
                    {
                        "number": 64,
                        "time": 5.486663237500001,
                        "value": 1
                    },
                    {
                        "number": 64,
                        "time": 6.419995987500001,
                        "value": 0
                    },
                    {
                        "number": 64,
                        "time": 6.471107066666668,
                        "value": 1
                    },
                    {
                        "number": 64,
                        "time": 7.483328656250001,
                        "value": 0
                    },
                    {
                        "number": 64,
                        "time": 7.545550839583335,
                        "value": 1
                    },
                    {
                        "number": 64,
                        "time": 8.533328000000001,
                        "value": 0
                    },
                    {
                        "number": 64,
                        "time": 8.596661293750001,
                        "value": 1
                    },
                    {
                        "number": 64,
                        "time": 9.616660656250001,
                        "value": 0
                    },
                    {
                        "number": 64,
                        "time": 9.7533272375,
                        "value": 1
                    },
                    {
                        "number": 64,
                        "time": 10.6866599875,
                        "value": 0
                    },
                    {
                        "number": 64,
                        "time": 10.737771066666667,
                        "value": 1
                    },
                    {
                        "number": 64,
                        "time": 11.74999265625,
                        "value": 0
                    },
                    {
                        "number": 64,
                        "time": 11.812214839583334,
                        "value": 1
                    },
                    {
                        "number": 64,
                        "time": 12.799992,
                        "value": 0
                    },
                    {
                        "number": 64,
                        "time": 12.86332529375,
                        "value": 1
                    },
                    {
                        "number": 64,
                        "time": 13.88332465625,
                        "value": 0
                    },
                    {
                        "number": 64,
                        "time": 14.0199912375,
                        "value": 1
                    },
                    {
                        "number": 64,
                        "time": 14.9533239875,
                        "value": 0
                    },
                    {
                        "number": 64,
                        "time": 15.078879464583332,
                        "value": 1
                    },
                    {
                        "number": 64,
                        "time": 16.01665665625,
                        "value": 0
                    },
                    {
                        "number": 64,
                        "time": 16.078878839583332,
                        "value": 1
                    },
                    {
                        "number": 64,
                        "time": 17.066656,
                        "value": 0
                    },
                    {
                        "number": 64,
                        "time": 17.199989249999998,
                        "value": 1
                    },
                    {
                        "number": 64,
                        "time": 18.14998865625,
                        "value": 0
                    },
                    {
                        "number": 64,
                        "time": 18.2866552375,
                        "value": 1
                    },
                    {
                        "number": 64,
                        "time": 19.199988,
                        "value": 0
                    },
                    {
                        "number": 64,
                        "time": 19.644432166666668,
                        "value": 1
                    },
                    {
                        "number": 64,
                        "time": 20.28332065625,
                        "value": 0
                    },
                    {
                        "number": 64,
                        "time": 20.392209477083334,
                        "value": 1
                    },
                    {
                        "number": 64,
                        "time": 21.381097747916666,
                        "value": 0
                    },
                    {
                        "number": 64,
                        "time": 21.584430954166667,
                        "value": 1
                    },
                    {
                        "number": 64,
                        "time": 22.41665265625,
                        "value": 0
                    },
                    {
                        "number": 64,
                        "time": 22.525541477083333,
                        "value": 1
                    },
                    {
                        "number": 64,
                        "time": 23.514429747916665,
                        "value": 0
                    },
                    {
                        "number": 64,
                        "time": 23.717762954166666,
                        "value": 1
                    },
                    {
                        "number": 64,
                        "time": 24.54998465625,
                        "value": 0
                    },
                    {
                        "number": 64,
                        "time": 24.658873477083333,
                        "value": 1
                    },
                    {
                        "number": 64,
                        "time": 25.61665065625,
                        "value": 0
                    },
                    {
                        "number": 64,
                        "time": 25.72553947708333,
                        "value": 1
                    },
                    {
                        "number": 64,
                        "time": 26.683316656249996,
                        "value": 0
                    },
                    {
                        "number": 64,
                        "time": 26.79220547708333,
                        "value": 1
                    },
                    {
                        "number": 64,
                        "time": 27.736649331249996,
                        "value": 0
                    },
                    {
                        "number": 64,
                        "time": 27.999982499999994,
                        "value": 1
                    },
                    {
                        "number": 64,
                        "time": 28.81553754583333,
                        "value": 0
                    },
                    {
                        "number": 64,
                        "time": 28.94887079583333,
                        "value": 1
                    },
                    {
                        "number": 64,
                        "time": 29.892203539583328,
                        "value": 0
                    },
                    {
                        "number": 64,
                        "time": 30.032203452083326,
                        "value": 1
                    },
                    {
                        "number": 64,
                        "time": 30.415536545833326,
                        "value": 0
                    },
                    {
                        "number": 64,
                        "time": 30.948869545833325,
                        "value": 0
                    },
                    {
                        "number": 64,
                        "time": 31.082202795833325,
                        "value": 1
                    },
                    {
                        "number": 64,
                        "time": 32.02553553958332,
                        "value": 0
                    },
                    {
                        "number": 64,
                        "time": 32.165535452083326,
                        "value": 1
                    },
                    {
                        "number": 64,
                        "time": 32.54886854583332,
                        "value": 0
                    },
                    {
                        "number": 64,
                        "time": 33.16109038541666,
                        "value": 1
                    },
                    {
                        "number": 64,
                        "time": 34.20997861874999,
                        "value": 0
                    },
                    {
                        "number": 64,
                        "time": 34.32442299166666,
                        "value": 1
                    },
                    {
                        "number": 64,
                        "time": 34.67886721458333,
                        "value": 0
                    },
                    {
                        "number": 64,
                        "time": 34.77442271041666,
                        "value": 1
                    },
                    {
                        "number": 64,
                        "time": 35.21664465624999,
                        "value": 0
                    },
                    {
                        "number": 64,
                        "time": 35.32775569791666,
                        "value": 1
                    },
                    {
                        "number": 64,
                        "time": 35.745533214583325,
                        "value": 0
                    },
                    {
                        "number": 64,
                        "time": 35.81664428124999,
                        "value": 1
                    },
                    {
                        "number": 64,
                        "time": 36.26664399999999,
                        "value": 0
                    },
                    {
                        "number": 64,
                        "time": 39.53330862499999,
                        "value": 1
                    },
                    {
                        "number": 64,
                        "time": 40.53330799999999,
                        "value": 0
                    },
                    {
                        "number": 64,
                        "time": 40.59664129374999,
                        "value": 1
                    },
                    {
                        "number": 64,
                        "time": 41.61664065624999,
                        "value": 0
                    },
                    {
                        "number": 64,
                        "time": 41.75330723749999,
                        "value": 1
                    },
                    {
                        "number": 64,
                        "time": 42.68663998749999,
                        "value": 0
                    },
                    {
                        "number": 64,
                        "time": 42.737751066666654,
                        "value": 1
                    },
                    {
                        "number": 64,
                        "time": 43.74997265624999,
                        "value": 0
                    },
                    {
                        "number": 64,
                        "time": 43.81219483958332,
                        "value": 1
                    },
                    {
                        "number": 64,
                        "time": 44.79997199999999,
                        "value": 0
                    },
                    {
                        "number": 64,
                        "time": 44.86330529374999,
                        "value": 1
                    },
                    {
                        "number": 64,
                        "time": 45.88330465624999,
                        "value": 0
                    },
                    {
                        "number": 64,
                        "time": 46.01997123749999,
                        "value": 1
                    },
                    {
                        "number": 64,
                        "time": 46.953303987499986,
                        "value": 0
                    },
                    {
                        "number": 64,
                        "time": 47.00441506666665,
                        "value": 1
                    },
                    {
                        "number": 64,
                        "time": 48.016636656249986,
                        "value": 0
                    },
                    {
                        "number": 64,
                        "time": 48.07885883958332,
                        "value": 1
                    },
                    {
                        "number": 64,
                        "time": 49.06663599999999,
                        "value": 0
                    },
                    {
                        "number": 64,
                        "time": 49.12996929374999,
                        "value": 1
                    },
                    {
                        "number": 64,
                        "time": 50.14996865624999,
                        "value": 0
                    },
                    {
                        "number": 64,
                        "time": 50.286635237499986,
                        "value": 1
                    },
                    {
                        "number": 64,
                        "time": 51.219967987499984,
                        "value": 0
                    },
                    {
                        "number": 64,
                        "time": 51.345523464583316,
                        "value": 1
                    },
                    {
                        "number": 64,
                        "time": 52.283300656249985,
                        "value": 0
                    },
                    {
                        "number": 64,
                        "time": 52.34552283958332,
                        "value": 1
                    },
                    {
                        "number": 64,
                        "time": 53.33329999999999,
                        "value": 0
                    },
                    {
                        "number": 64,
                        "time": 53.48218879583332,
                        "value": 1
                    },
                    {
                        "number": 64,
                        "time": 54.41663265624999,
                        "value": 0
                    },
                    {
                        "number": 64,
                        "time": 54.553299237499985,
                        "value": 1
                    },
                    {
                        "number": 64,
                        "time": 55.48663198749998,
                        "value": 0
                    },
                    {
                        "number": 64,
                        "time": 55.612187464583315,
                        "value": 1
                    },
                    {
                        "number": 64,
                        "time": 56.54996465624998,
                        "value": 0
                    },
                    {
                        "number": 64,
                        "time": 56.612186839583316,
                        "value": 1
                    },
                    {
                        "number": 64,
                        "time": 57.599963999999986,
                        "value": 0
                    },
                    {
                        "number": 64,
                        "time": 57.741075022916654,
                        "value": 1
                    },
                    {
                        "number": 64,
                        "time": 58.683296656249986,
                        "value": 0
                    },
                    {
                        "number": 64,
                        "time": 58.819963237499984,
                        "value": 1
                    },
                    {
                        "number": 64,
                        "time": 59.73329599999998,
                        "value": 0
                    },
                    {
                        "number": 64,
                        "time": 60.177740166666645,
                        "value": 1
                    },
                    {
                        "number": 64,
                        "time": 60.816628656249975,
                        "value": 0
                    },
                    {
                        "number": 64,
                        "time": 60.92551747708331,
                        "value": 1
                    },
                    {
                        "number": 64,
                        "time": 61.914405747916646,
                        "value": 0
                    },
                    {
                        "number": 64,
                        "time": 62.11773895416665,
                        "value": 1
                    },
                    {
                        "number": 64,
                        "time": 62.94996065624998,
                        "value": 0
                    },
                    {
                        "number": 64,
                        "time": 63.058849477083314,
                        "value": 1
                    },
                    {
                        "number": 64,
                        "time": 64.04773774791664,
                        "value": 0
                    },
                    {
                        "number": 64,
                        "time": 64.25107095416664,
                        "value": 1
                    },
                    {
                        "number": 64,
                        "time": 65.08329265624997,
                        "value": 0
                    },
                    {
                        "number": 64,
                        "time": 65.1921814770833,
                        "value": 1
                    },
                    {
                        "number": 64,
                        "time": 66.14995865624996,
                        "value": 0
                    },
                    {
                        "number": 64,
                        "time": 66.2588474770833,
                        "value": 1
                    },
                    {
                        "number": 64,
                        "time": 67.21662465624996,
                        "value": 0
                    },
                    {
                        "number": 64,
                        "time": 67.32551347708329,
                        "value": 1
                    },
                    {
                        "number": 64,
                        "time": 68.26995733124996,
                        "value": 0
                    },
                    {
                        "number": 64,
                        "time": 68.53329049999995,
                        "value": 1
                    },
                    {
                        "number": 64,
                        "time": 69.34884554583329,
                        "value": 0
                    },
                    {
                        "number": 64,
                        "time": 69.48217879583329,
                        "value": 1
                    },
                    {
                        "number": 64,
                        "time": 70.4255115395833,
                        "value": 0
                    },
                    {
                        "number": 64,
                        "time": 70.5655114520833,
                        "value": 1
                    },
                    {
                        "number": 64,
                        "time": 70.9488445458333,
                        "value": 0
                    },
                    {
                        "number": 64,
                        "time": 71.4821775458333,
                        "value": 0
                    },
                    {
                        "number": 64,
                        "time": 71.6155107958333,
                        "value": 1
                    },
                    {
                        "number": 64,
                        "time": 72.55884353958331,
                        "value": 0
                    },
                    {
                        "number": 64,
                        "time": 72.69884345208331,
                        "value": 1
                    },
                    {
                        "number": 64,
                        "time": 73.0821765458333,
                        "value": 0
                    },
                    {
                        "number": 64,
                        "time": 73.69439838541663,
                        "value": 1
                    },
                    {
                        "number": 64,
                        "time": 74.74328661874996,
                        "value": 0
                    },
                    {
                        "number": 64,
                        "time": 74.85773099166663,
                        "value": 1
                    },
                    {
                        "number": 64,
                        "time": 75.2121752145833,
                        "value": 0
                    },
                    {
                        "number": 64,
                        "time": 75.30773071041664,
                        "value": 1
                    },
                    {
                        "number": 64,
                        "time": 75.74995265624997,
                        "value": 0
                    },
                    {
                        "number": 64,
                        "time": 75.86106369791663,
                        "value": 1
                    },
                    {
                        "number": 64,
                        "time": 76.2788412145833,
                        "value": 0
                    },
                    {
                        "number": 64,
                        "time": 76.34995228124995,
                        "value": 1
                    },
                    {
                        "number": 64,
                        "time": 76.79995199999996,
                        "value": 0
                    },
                    {
                        "number": 64,
                        "time": 80.06661662499997,
                        "value": 1
                    },
                    {
                        "number": 64,
                        "time": 81.06661599999997,
                        "value": 0
                    },
                    {
                        "number": 64,
                        "time": 81.12994929374997,
                        "value": 1
                    },
                    {
                        "number": 64,
                        "time": 82.14994865624998,
                        "value": 0
                    },
                    {
                        "number": 64,
                        "time": 82.28661523749997,
                        "value": 1
                    },
                    {
                        "number": 64,
                        "time": 83.21994798749998,
                        "value": 0
                    },
                    {
                        "number": 64,
                        "time": 83.27105906666664,
                        "value": 1
                    },
                    {
                        "number": 64,
                        "time": 84.28328065624997,
                        "value": 0
                    },
                    {
                        "number": 64,
                        "time": 84.3455028395833,
                        "value": 1
                    },
                    {
                        "number": 64,
                        "time": 85.33327999999997,
                        "value": 0
                    },
                    {
                        "number": 64,
                        "time": 85.39661329374998,
                        "value": 1
                    },
                    {
                        "number": 64,
                        "time": 86.41661265624998,
                        "value": 0
                    },
                    {
                        "number": 64,
                        "time": 86.55327923749998,
                        "value": 1
                    },
                    {
                        "number": 64,
                        "time": 87.48661198749998,
                        "value": 0
                    },
                    {
                        "number": 64,
                        "time": 87.53772306666664,
                        "value": 1
                    },
                    {
                        "number": 64,
                        "time": 88.54994465624998,
                        "value": 0
                    },
                    {
                        "number": 64,
                        "time": 88.61216683958331,
                        "value": 1
                    },
                    {
                        "number": 64,
                        "time": 89.59994399999998,
                        "value": 0
                    },
                    {
                        "number": 64,
                        "time": 89.66327729374999,
                        "value": 1
                    },
                    {
                        "number": 64,
                        "time": 90.68327665624999,
                        "value": 0
                    },
                    {
                        "number": 64,
                        "time": 90.81994323749998,
                        "value": 1
                    },
                    {
                        "number": 64,
                        "time": 91.75327598749999,
                        "value": 0
                    },
                    {
                        "number": 64,
                        "time": 91.87883146458333,
                        "value": 1
                    },
                    {
                        "number": 64,
                        "time": 92.81660865625,
                        "value": 0
                    },
                    {
                        "number": 64,
                        "time": 92.87883083958333,
                        "value": 1
                    },
                    {
                        "number": 64,
                        "time": 93.866608,
                        "value": 0
                    },
                    {
                        "number": 64,
                        "time": 94.01549679583333,
                        "value": 1
                    },
                    {
                        "number": 64,
                        "time": 94.94994065624999,
                        "value": 0
                    },
                    {
                        "number": 64,
                        "time": 95.08660723749999,
                        "value": 1
                    },
                    {
                        "number": 64,
                        "time": 96.0199399875,
                        "value": 0
                    },
                    {
                        "number": 64,
                        "time": 96.14549546458333,
                        "value": 1
                    },
                    {
                        "number": 64,
                        "time": 97.08327265625,
                        "value": 0
                    },
                    {
                        "number": 64,
                        "time": 97.14549483958334,
                        "value": 1
                    },
                    {
                        "number": 64,
                        "time": 98.133272,
                        "value": 0
                    },
                    {
                        "number": 64,
                        "time": 98.27438302291667,
                        "value": 1
                    },
                    {
                        "number": 64,
                        "time": 99.21660465625,
                        "value": 0
                    },
                    {
                        "number": 64,
                        "time": 99.3532712375,
                        "value": 1
                    },
                    {
                        "number": 64,
                        "time": 100.266604,
                        "value": 0
                    },
                    {
                        "number": 64,
                        "time": 100.49549274583333,
                        "value": 1
                    },
                    {
                        "number": 64,
                        "time": 101.33327,
                        "value": 0
                    },
                    {
                        "number": 64,
                        "time": 101.45438103541666,
                        "value": 1
                    },
                    {
                        "number": 64,
                        "time": 101.87993632499999,
                        "value": 0
                    },
                    {
                        "number": 64,
                        "time": 101.94993628124999,
                        "value": 1
                    },
                    {
                        "number": 64,
                        "time": 102.14438060416666,
                        "value": 0
                    },
                    {
                        "number": 64,
                        "time": 102.21660278124999,
                        "value": 1
                    },
                    {
                        "number": 64,
                        "time": 102.39993599999998,
                        "value": 0
                    },
                    {
                        "number": 64,
                        "time": 102.55660256874998,
                        "value": 1
                    },
                    {
                        "number": 64,
                        "time": 102.94438010416664,
                        "value": 0
                    },
                    {
                        "number": 64,
                        "time": 103.0354911583333,
                        "value": 1
                    },
                    {
                        "number": 64,
                        "time": 103.22326881874997,
                        "value": 0
                    },
                    {
                        "number": 64,
                        "time": 103.55326861249998,
                        "value": 1
                    },
                    {
                        "number": 64,
                        "time": 104.01771276666665,
                        "value": 0
                    },
                    {
                        "number": 64,
                        "time": 104.09437938541664,
                        "value": 1
                    },
                    {
                        "number": 64,
                        "time": 104.53771244166664,
                        "value": 0
                    },
                    {
                        "number": 64,
                        "time": 104.65104570416665,
                        "value": 1
                    },
                    {
                        "number": 64,
                        "time": 105.08326765624999,
                        "value": 0
                    },
                    {
                        "number": 64,
                        "time": 105.19437869791665,
                        "value": 1
                    },
                    {
                        "number": 64,
                        "time": 105.40993411874999,
                        "value": 0
                    },
                    {
                        "number": 64,
                        "time": 105.65104507916665,
                        "value": 1
                    },
                    {
                        "number": 64,
                        "time": 106.09548924583332,
                        "value": 0
                    },
                    {
                        "number": 64,
                        "time": 106.19104474166666,
                        "value": 1
                    },
                    {
                        "number": 64,
                        "time": 106.6732666625,
                        "value": 0
                    },
                    {
                        "number": 64,
                        "time": 106.82326656875,
                        "value": 1
                    },
                    {
                        "number": 64,
                        "time": 107.20993299375,
                        "value": 0
                    },
                    {
                        "number": 64,
                        "time": 107.30215515833333,
                        "value": 1
                    },
                    {
                        "number": 64,
                        "time": 107.74104377291667,
                        "value": 0
                    },
                    {
                        "number": 64,
                        "time": 107.8732659125,
                        "value": 1
                    },
                    {
                        "number": 64,
                        "time": 108.27771010416667,
                        "value": 0
                    },
                    {
                        "number": 64,
                        "time": 108.38771003541667,
                        "value": 1
                    },
                    {
                        "number": 64,
                        "time": 108.80770977291668,
                        "value": 0
                    },
                    {
                        "number": 64,
                        "time": 109.92215352083335,
                        "value": 1
                    },
                    {
                        "number": 64,
                        "time": 110.40770877291668,
                        "value": 0
                    },
                    {
                        "number": 64,
                        "time": 110.4865976125,
                        "value": 1
                    },
                    {
                        "number": 64,
                        "time": 110.93326400000001,
                        "value": 0
                    },
                    {
                        "number": 64,
                        "time": 111.00993061875,
                        "value": 1
                    },
                    {
                        "number": 64,
                        "time": 111.47215255208334,
                        "value": 0
                    },
                    {
                        "number": 64,
                        "time": 111.56881915833334,
                        "value": 1
                    },
                    {
                        "number": 64,
                        "time": 112.00548555208334,
                        "value": 0
                    },
                    {
                        "number": 64,
                        "time": 112.08881883333335,
                        "value": 1
                    },
                    {
                        "number": 64,
                        "time": 112.53881855208336,
                        "value": 0
                    },
                    {
                        "number": 64,
                        "time": 112.64104071041669,
                        "value": 1
                    },
                    {
                        "number": 64,
                        "time": 113.06659600000002,
                        "value": 0
                    },
                    {
                        "number": 64,
                        "time": 114.13326200000002,
                        "value": 0
                    },
                    {
                        "number": 64,
                        "time": 114.25437303541668,
                        "value": 1
                    },
                    {
                        "number": 64,
                        "time": 114.679928325,
                        "value": 0
                    },
                    {
                        "number": 64,
                        "time": 114.74992828125,
                        "value": 1
                    },
                    {
                        "number": 64,
                        "time": 114.94437260416667,
                        "value": 0
                    },
                    {
                        "number": 64,
                        "time": 115.01659478125,
                        "value": 1
                    },
                    {
                        "number": 64,
                        "time": 115.199928,
                        "value": 0
                    },
                    {
                        "number": 64,
                        "time": 115.35659456875,
                        "value": 1
                    },
                    {
                        "number": 64,
                        "time": 115.74437210416666,
                        "value": 0
                    },
                    {
                        "number": 64,
                        "time": 115.83548315833332,
                        "value": 1
                    },
                    {
                        "number": 64,
                        "time": 116.02326081874999,
                        "value": 0
                    },
                    {
                        "number": 64,
                        "time": 116.3532606125,
                        "value": 1
                    },
                    {
                        "number": 64,
                        "time": 116.81770476666667,
                        "value": 0
                    },
                    {
                        "number": 64,
                        "time": 116.89437138541666,
                        "value": 1
                    },
                    {
                        "number": 64,
                        "time": 117.33770444166666,
                        "value": 0
                    },
                    {
                        "number": 64,
                        "time": 117.45103770416667,
                        "value": 1
                    },
                    {
                        "number": 64,
                        "time": 117.88325965625,
                        "value": 0
                    },
                    {
                        "number": 64,
                        "time": 117.99437069791666,
                        "value": 1
                    },
                    {
                        "number": 64,
                        "time": 118.20992611875,
                        "value": 0
                    },
                    {
                        "number": 64,
                        "time": 118.45103707916667,
                        "value": 1
                    },
                    {
                        "number": 64,
                        "time": 118.89548124583334,
                        "value": 0
                    },
                    {
                        "number": 64,
                        "time": 118.99103674166668,
                        "value": 1
                    },
                    {
                        "number": 64,
                        "time": 119.47325866250002,
                        "value": 0
                    },
                    {
                        "number": 64,
                        "time": 119.62325856875002,
                        "value": 1
                    },
                    {
                        "number": 64,
                        "time": 120.00992499375002,
                        "value": 0
                    },
                    {
                        "number": 64,
                        "time": 120.10214715833335,
                        "value": 1
                    },
                    {
                        "number": 64,
                        "time": 120.54103577291669,
                        "value": 0
                    },
                    {
                        "number": 64,
                        "time": 120.67325791250002,
                        "value": 1
                    },
                    {
                        "number": 64,
                        "time": 121.07770210416669,
                        "value": 0
                    },
                    {
                        "number": 64,
                        "time": 121.18770203541669,
                        "value": 1
                    },
                    {
                        "number": 64,
                        "time": 121.6077017729167,
                        "value": 0
                    },
                    {
                        "number": 64,
                        "time": 122.72214552083337,
                        "value": 1
                    },
                    {
                        "number": 64,
                        "time": 123.2077007729167,
                        "value": 0
                    },
                    {
                        "number": 64,
                        "time": 123.28658961250002,
                        "value": 1
                    },
                    {
                        "number": 64,
                        "time": 123.73325600000003,
                        "value": 0
                    },
                    {
                        "number": 64,
                        "time": 123.80992261875002,
                        "value": 1
                    },
                    {
                        "number": 64,
                        "time": 124.27214455208336,
                        "value": 0
                    },
                    {
                        "number": 64,
                        "time": 124.36881115833336,
                        "value": 1
                    },
                    {
                        "number": 64,
                        "time": 124.80547755208336,
                        "value": 0
                    },
                    {
                        "number": 64,
                        "time": 124.88881083333337,
                        "value": 1
                    },
                    {
                        "number": 64,
                        "time": 125.33881055208337,
                        "value": 0
                    },
                    {
                        "number": 64,
                        "time": 125.4410327104167,
                        "value": 1
                    },
                    {
                        "number": 64,
                        "time": 125.86658800000004,
                        "value": 0
                    },
                    {
                        "number": 64,
                        "time": 126.93992066250003,
                        "value": 0
                    },
                    {
                        "number": 64,
                        "time": 127.08992056875003,
                        "value": 1
                    },
                    {
                        "number": 64,
                        "time": 127.47658699375003,
                        "value": 0
                    },
                    {
                        "number": 64,
                        "time": 127.56880915833337,
                        "value": 1
                    },
                    {
                        "number": 64,
                        "time": 128.00658666250004,
                        "value": 0
                    },
                    {
                        "number": 64,
                        "time": 128.15658656875004,
                        "value": 1
                    },
                    {
                        "number": 64,
                        "time": 128.54325299375003,
                        "value": 0
                    },
                    {
                        "number": 64,
                        "time": 128.63547515833338,
                        "value": 1
                    },
                    {
                        "number": 64,
                        "time": 129.0743637729167,
                        "value": 0
                    },
                    {
                        "number": 64,
                        "time": 129.20658591250003,
                        "value": 1
                    },
                    {
                        "number": 64,
                        "time": 129.6110301041667,
                        "value": 0
                    },
                    {
                        "number": 64,
                        "time": 129.7210300354167,
                        "value": 1
                    },
                    {
                        "number": 64,
                        "time": 130.1410297729167,
                        "value": 0
                    },
                    {
                        "number": 64,
                        "time": 130.27325191250003,
                        "value": 1
                    },
                    {
                        "number": 64,
                        "time": 130.6776961041667,
                        "value": 0
                    },
                    {
                        "number": 64,
                        "time": 130.7876960354167,
                        "value": 1
                    },
                    {
                        "number": 64,
                        "time": 131.21214021458337,
                        "value": 0
                    },
                    {
                        "number": 64,
                        "time": 131.30214015833337,
                        "value": 1
                    },
                    {
                        "number": 64,
                        "time": 131.74769543541672,
                        "value": 0
                    },
                    {
                        "number": 64,
                        "time": 131.8988064520834,
                        "value": 1
                    },
                    {
                        "number": 64,
                        "time": 132.2921395395834,
                        "value": 0
                    },
                    {
                        "number": 64,
                        "time": 132.38102837291672,
                        "value": 1
                    },
                    {
                        "number": 64,
                        "time": 132.8276947604167,
                        "value": 0
                    },
                    {
                        "number": 64,
                        "time": 132.9776946666667,
                        "value": 1
                    },
                    {
                        "number": 64,
                        "time": 133.3410277729167,
                        "value": 0
                    },
                    {
                        "number": 64,
                        "time": 133.47324991250002,
                        "value": 1
                    },
                    {
                        "number": 64,
                        "time": 133.8776941041667,
                        "value": 0
                    },
                    {
                        "number": 64,
                        "time": 133.9876940354167,
                        "value": 1
                    },
                    {
                        "number": 64,
                        "time": 134.4076937729167,
                        "value": 0
                    },
                    {
                        "number": 64,
                        "time": 134.53991591250002,
                        "value": 1
                    },
                    {
                        "number": 64,
                        "time": 134.9443601041667,
                        "value": 0
                    },
                    {
                        "number": 64,
                        "time": 135.0543600354167,
                        "value": 1
                    },
                    {
                        "number": 64,
                        "time": 135.49213753958335,
                        "value": 0
                    },
                    {
                        "number": 64,
                        "time": 135.58102637291668,
                        "value": 1
                    },
                    {
                        "number": 64,
                        "time": 136.02769276041667,
                        "value": 0
                    },
                    {
                        "number": 64,
                        "time": 136.17769266666667,
                        "value": 1
                    },
                    {
                        "number": 64,
                        "time": 136.55880353958335,
                        "value": 0
                    },
                    {
                        "number": 64,
                        "time": 136.64769237291668,
                        "value": 1
                    },
                    {
                        "number": 64,
                        "time": 137.09435876041667,
                        "value": 0
                    },
                    {
                        "number": 64,
                        "time": 137.24435866666667,
                        "value": 1
                    },
                    {
                        "number": 64,
                        "time": 137.62546953958335,
                        "value": 0
                    },
                    {
                        "number": 64,
                        "time": 137.71435837291668,
                        "value": 1
                    },
                    {
                        "number": 64,
                        "time": 138.16102476041667,
                        "value": 0
                    },
                    {
                        "number": 64,
                        "time": 138.31102466666667,
                        "value": 1
                    },
                    {
                        "number": 64,
                        "time": 138.6732466625,
                        "value": 0
                    },
                    {
                        "number": 64,
                        "time": 138.72435774166667,
                        "value": 1
                    },
                    {
                        "number": 64,
                        "time": 139.21546854583335,
                        "value": 0
                    },
                    {
                        "number": 64,
                        "time": 139.26991295625,
                        "value": 1
                    },
                    {
                        "number": 64,
                        "time": 139.733246,
                        "value": 0
                    },
                    {
                        "number": 64,
                        "time": 139.85435703541668,
                        "value": 1
                    },
                    {
                        "number": 64,
                        "time": 140.27991232500003,
                        "value": 0
                    },
                    {
                        "number": 64,
                        "time": 140.34991228125003,
                        "value": 1
                    },
                    {
                        "number": 64,
                        "time": 140.5443566041667,
                        "value": 0
                    },
                    {
                        "number": 64,
                        "time": 140.61657878125004,
                        "value": 1
                    },
                    {
                        "number": 64,
                        "time": 140.79991200000003,
                        "value": 0
                    },
                    {
                        "number": 64,
                        "time": 140.95657856875005,
                        "value": 1
                    },
                    {
                        "number": 64,
                        "time": 141.3443561041667,
                        "value": 0
                    },
                    {
                        "number": 64,
                        "time": 141.43546715833338,
                        "value": 1
                    },
                    {
                        "number": 64,
                        "time": 141.62324481875004,
                        "value": 0
                    },
                    {
                        "number": 64,
                        "time": 141.86657800000003,
                        "value": 0
                    },
                    {
                        "number": 64,
                        "time": 142.02324456875004,
                        "value": 1
                    },
                    {
                        "number": 64,
                        "time": 142.4110221041667,
                        "value": 0
                    },
                    {
                        "number": 64,
                        "time": 142.50213315833338,
                        "value": 1
                    },
                    {
                        "number": 64,
                        "time": 142.68991081875004,
                        "value": 0
                    },
                    {
                        "number": 64,
                        "time": 145.13657595625003,
                        "value": 1
                    },
                    {
                        "number": 64,
                        "time": 146.14879754583336,
                        "value": 0
                    },
                    {
                        "number": 64,
                        "time": 154.68212554583337,
                        "value": 0
                    },
                    {
                        "number": 64,
                        "time": 172.86989195625003,
                        "value": 1
                    },
                    {
                        "number": 64,
                        "time": 173.3410027729167,
                        "value": 0
                    },
                    {
                        "number": 64,
                        "time": 173.4410027104167,
                        "value": 1
                    },
                    {
                        "number": 64,
                        "time": 173.88322465625004,
                        "value": 0
                    },
                    {
                        "number": 64,
                        "time": 174.9843350791667,
                        "value": 1
                    },
                    {
                        "number": 64,
                        "time": 175.4843347666667,
                        "value": 0
                    },
                    {
                        "number": 64,
                        "time": 175.56877915833337,
                        "value": 1
                    },
                    {
                        "number": 64,
                        "time": 176.01655665625003,
                        "value": 0
                    },
                    {
                        "number": 64,
                        "time": 177.07322266250003,
                        "value": 0
                    },
                    {
                        "number": 64,
                        "time": 177.1243337416667,
                        "value": 1
                    },
                    {
                        "number": 64,
                        "time": 177.61544454583338,
                        "value": 0
                    },
                    {
                        "number": 64,
                        "time": 177.66988895625005,
                        "value": 1
                    },
                    {
                        "number": 64,
                        "time": 178.13322200000005,
                        "value": 0
                    },
                    {
                        "number": 64,
                        "time": 178.25433303541672,
                        "value": 1
                    },
                    {
                        "number": 64,
                        "time": 178.67988832500006,
                        "value": 0
                    },
                    {
                        "number": 64,
                        "time": 178.74988828125007,
                        "value": 1
                    },
                    {
                        "number": 64,
                        "time": 179.19988800000007,
                        "value": 0
                    },
                    {
                        "number": 64,
                        "time": 179.35655456875008,
                        "value": 1
                    },
                    {
                        "number": 64,
                        "time": 179.74433210416674,
                        "value": 0
                    },
                    {
                        "number": 64,
                        "time": 179.83544315833342,
                        "value": 1
                    },
                    {
                        "number": 64,
                        "time": 180.02544303958342,
                        "value": 0
                    },
                    {
                        "number": 64,
                        "time": 180.35322061250008,
                        "value": 1
                    },
                    {
                        "number": 64,
                        "time": 180.81766476666675,
                        "value": 0
                    },
                    {
                        "number": 64,
                        "time": 180.89433138541676,
                        "value": 1
                    },
                    {
                        "number": 64,
                        "time": 181.33766444166676,
                        "value": 0
                    },
                    {
                        "number": 64,
                        "time": 181.45099770416675,
                        "value": 1
                    },
                    {
                        "number": 64,
                        "time": 181.88321965625008,
                        "value": 0
                    },
                    {
                        "number": 64,
                        "time": 181.99433069791675,
                        "value": 1
                    },
                    {
                        "number": 64,
                        "time": 182.40766377291675,
                        "value": 0
                    },
                    {
                        "number": 64,
                        "time": 182.55766367916675,
                        "value": 1
                    },
                    {
                        "number": 64,
                        "time": 182.94433010416674,
                        "value": 0
                    },
                    {
                        "number": 64,
                        "time": 183.0354411583334,
                        "value": 1
                    },
                    {
                        "number": 64,
                        "time": 183.47432977291675,
                        "value": 0
                    },
                    {
                        "number": 64,
                        "time": 183.62432967916675,
                        "value": 1
                    },
                    {
                        "number": 64,
                        "time": 184.01099610416674,
                        "value": 0
                    },
                    {
                        "number": 64,
                        "time": 184.1021071583334,
                        "value": 1
                    },
                    {
                        "number": 64,
                        "time": 184.54210688333342,
                        "value": 0
                    },
                    {
                        "number": 64,
                        "time": 184.6732179125001,
                        "value": 1
                    },
                    {
                        "number": 64,
                        "time": 185.07877321458344,
                        "value": 0
                    },
                    {
                        "number": 64,
                        "time": 185.18766203541676,
                        "value": 1
                    },
                    {
                        "number": 64,
                        "time": 185.60877288333344,
                        "value": 0
                    },
                    {
                        "number": 64,
                        "time": 185.73988391250012,
                        "value": 1
                    },
                    {
                        "number": 64,
                        "time": 186.14543921458346,
                        "value": 0
                    },
                    {
                        "number": 64,
                        "time": 186.2543280354168,
                        "value": 1
                    },
                    {
                        "number": 64,
                        "time": 186.67988332500013,
                        "value": 0
                    },
                    {
                        "number": 64,
                        "time": 186.76877215833346,
                        "value": 1
                    },
                    {
                        "number": 64,
                        "time": 187.21543854583345,
                        "value": 0
                    },
                    {
                        "number": 64,
                        "time": 187.36543845208345,
                        "value": 1
                    },
                    {
                        "number": 64,
                        "time": 187.75877153958345,
                        "value": 0
                    },
                    {
                        "number": 64,
                        "time": 187.84877148333345,
                        "value": 1
                    },
                    {
                        "number": 64,
                        "time": 188.2943267604168,
                        "value": 0
                    },
                    {
                        "number": 64,
                        "time": 188.44543777708347,
                        "value": 1
                    },
                    {
                        "number": 64,
                        "time": 188.80877088333347,
                        "value": 0
                    },
                    {
                        "number": 64,
                        "time": 188.93988191250014,
                        "value": 1
                    },
                    {
                        "number": 64,
                        "time": 189.34543721458348,
                        "value": 0
                    },
                    {
                        "number": 64,
                        "time": 189.4543260354168,
                        "value": 1
                    },
                    {
                        "number": 64,
                        "time": 189.8754368833335,
                        "value": 0
                    },
                    {
                        "number": 64,
                        "time": 190.00654791250017,
                        "value": 1
                    },
                    {
                        "number": 64,
                        "time": 190.4121032145835,
                        "value": 0
                    },
                    {
                        "number": 64,
                        "time": 190.52099203541684,
                        "value": 1
                    },
                    {
                        "number": 64,
                        "time": 190.94210288333352,
                        "value": 0
                    },
                    {
                        "number": 64,
                        "time": 191.0732139125002,
                        "value": 1
                    },
                    {
                        "number": 64,
                        "time": 191.47876921458354,
                        "value": 0
                    },
                    {
                        "number": 64,
                        "time": 191.58765803541687,
                        "value": 1
                    },
                    {
                        "number": 64,
                        "time": 192.00876888333354,
                        "value": 0
                    },
                    {
                        "number": 64,
                        "time": 192.13987991250022,
                        "value": 1
                    },
                    {
                        "number": 64,
                        "time": 192.54543521458356,
                        "value": 0
                    },
                    {
                        "number": 64,
                        "time": 192.6543240354169,
                        "value": 1
                    },
                    {
                        "number": 64,
                        "time": 193.07543488333357,
                        "value": 0
                    },
                    {
                        "number": 64,
                        "time": 193.20654591250025,
                        "value": 1
                    },
                    {
                        "number": 64,
                        "time": 193.6121012145836,
                        "value": 0
                    },
                    {
                        "number": 64,
                        "time": 193.72099003541692,
                        "value": 1
                    },
                    {
                        "number": 64,
                        "time": 194.1421008833336,
                        "value": 0
                    },
                    {
                        "number": 64,
                        "time": 194.27321191250027,
                        "value": 1
                    },
                    {
                        "number": 64,
                        "time": 194.67876721458362,
                        "value": 0
                    },
                    {
                        "number": 64,
                        "time": 194.78765603541694,
                        "value": 1
                    },
                    {
                        "number": 64,
                        "time": 195.2254335395836,
                        "value": 0
                    },
                    {
                        "number": 64,
                        "time": 195.31432237291693,
                        "value": 1
                    },
                    {
                        "number": 64,
                        "time": 195.76098876041692,
                        "value": 0
                    },
                    {
                        "number": 64,
                        "time": 195.91098866666692,
                        "value": 1
                    },
                    {
                        "number": 64,
                        "time": 196.2920995395836,
                        "value": 0
                    },
                    {
                        "number": 64,
                        "time": 196.38098837291693,
                        "value": 1
                    },
                    {
                        "number": 64,
                        "time": 196.82765476041692,
                        "value": 0
                    },
                    {
                        "number": 64,
                        "time": 196.97765466666692,
                        "value": 1
                    },
                    {
                        "number": 64,
                        "time": 197.33987666250025,
                        "value": 0
                    },
                    {
                        "number": 64,
                        "time": 198.39987600000023,
                        "value": 0
                    },
                    {
                        "number": 64,
                        "time": 201.65542952083356,
                        "value": 1
                    },
                    {
                        "number": 64,
                        "time": 204.28209454583356,
                        "value": 0
                    },
                    {
                        "number": 64,
                        "time": 204.36876115833357,
                        "value": 1
                    },
                    {
                        "number": 64,
                        "time": 204.79987200000025,
                        "value": 0
                    },
                    {
                        "number": 64,
                        "time": 204.86320529375024,
                        "value": 1
                    },
                    {
                        "number": 64,
                        "time": 205.88320465625023,
                        "value": 0
                    },
                    {
                        "number": 64,
                        "time": 206.01987123750024,
                        "value": 1
                    },
                    {
                        "number": 64,
                        "time": 206.95320398750025,
                        "value": 0
                    },
                    {
                        "number": 64,
                        "time": 207.00431506666692,
                        "value": 1
                    },
                    {
                        "number": 64,
                        "time": 208.01653665625025,
                        "value": 0
                    },
                    {
                        "number": 64,
                        "time": 208.0787588395836,
                        "value": 1
                    },
                    {
                        "number": 64,
                        "time": 209.06653600000027,
                        "value": 0
                    },
                    {
                        "number": 64,
                        "time": 209.12986929375026,
                        "value": 1
                    },
                    {
                        "number": 64,
                        "time": 210.14986865625025,
                        "value": 0
                    },
                    {
                        "number": 64,
                        "time": 210.28653523750026,
                        "value": 1
                    },
                    {
                        "number": 64,
                        "time": 211.21986798750027,
                        "value": 0
                    },
                    {
                        "number": 64,
                        "time": 211.27097906666694,
                        "value": 1
                    },
                    {
                        "number": 64,
                        "time": 212.28320065625027,
                        "value": 0
                    },
                    {
                        "number": 64,
                        "time": 212.34542283958362,
                        "value": 1
                    },
                    {
                        "number": 64,
                        "time": 213.3332000000003,
                        "value": 0
                    },
                    {
                        "number": 64,
                        "time": 213.39653329375028,
                        "value": 1
                    },
                    {
                        "number": 64,
                        "time": 214.41653265625027,
                        "value": 0
                    },
                    {
                        "number": 64,
                        "time": 214.55319923750028,
                        "value": 1
                    },
                    {
                        "number": 64,
                        "time": 214.93986566250027,
                        "value": 0
                    },
                    {
                        "number": 64,
                        "time": 215.6120874645836,
                        "value": 1
                    },
                    {
                        "number": 64,
                        "time": 216.54986465625026,
                        "value": 0
                    },
                    {
                        "number": 64,
                        "time": 216.6120868395836,
                        "value": 1
                    },
                    {
                        "number": 64,
                        "time": 217.59986400000028,
                        "value": 0
                    },
                    {
                        "number": 64,
                        "time": 217.73319725000027,
                        "value": 1
                    },
                    {
                        "number": 64,
                        "time": 218.68319665625026,
                        "value": 0
                    },
                    {
                        "number": 64,
                        "time": 218.81986323750027,
                        "value": 1
                    },
                    {
                        "number": 64,
                        "time": 219.73319600000028,
                        "value": 0
                    },
                    {
                        "number": 64,
                        "time": 220.17764016666695,
                        "value": 1
                    },
                    {
                        "number": 64,
                        "time": 220.8131953250003,
                        "value": 0
                    },
                    {
                        "number": 64,
                        "time": 220.89430638541697,
                        "value": 1
                    },
                    {
                        "number": 64,
                        "time": 221.91430574791696,
                        "value": 0
                    },
                    {
                        "number": 64,
                        "time": 222.11763895416695,
                        "value": 1
                    },
                    {
                        "number": 64,
                        "time": 222.94986065625028,
                        "value": 0
                    },
                    {
                        "number": 64,
                        "time": 223.0587494770836,
                        "value": 1
                    },
                    {
                        "number": 64,
                        "time": 224.04763774791695,
                        "value": 0
                    },
                    {
                        "number": 64,
                        "time": 224.25097095416695,
                        "value": 1
                    },
                    {
                        "number": 64,
                        "time": 225.08319265625028,
                        "value": 0
                    },
                    {
                        "number": 64,
                        "time": 225.1920814770836,
                        "value": 1
                    },
                    {
                        "number": 64,
                        "time": 226.14985865625027,
                        "value": 0
                    },
                    {
                        "number": 64,
                        "time": 226.2587474770836,
                        "value": 1
                    },
                    {
                        "number": 64,
                        "time": 227.21652465625027,
                        "value": 0
                    },
                    {
                        "number": 64,
                        "time": 227.3254134770836,
                        "value": 1
                    },
                    {
                        "number": 64,
                        "time": 228.26985733125028,
                        "value": 0
                    },
                    {
                        "number": 64,
                        "time": 228.53319050000027,
                        "value": 1
                    },
                    {
                        "number": 64,
                        "time": 229.3487455458336,
                        "value": 0
                    },
                    {
                        "number": 64,
                        "time": 229.4820787958336,
                        "value": 1
                    },
                    {
                        "number": 64,
                        "time": 230.4254115395836,
                        "value": 0
                    },
                    {
                        "number": 64,
                        "time": 230.5654114520836,
                        "value": 1
                    },
                    {
                        "number": 64,
                        "time": 230.9487445458336,
                        "value": 0
                    },
                    {
                        "number": 64,
                        "time": 231.4820775458336,
                        "value": 0
                    },
                    {
                        "number": 64,
                        "time": 231.61541079583358,
                        "value": 1
                    },
                    {
                        "number": 64,
                        "time": 232.5587435395836,
                        "value": 0
                    },
                    {
                        "number": 64,
                        "time": 232.6987434520836,
                        "value": 1
                    },
                    {
                        "number": 64,
                        "time": 233.0820765458336,
                        "value": 0
                    },
                    {
                        "number": 64,
                        "time": 233.69429838541691,
                        "value": 1
                    },
                    {
                        "number": 64,
                        "time": 234.74318661875026,
                        "value": 0
                    },
                    {
                        "number": 64,
                        "time": 234.85763099166692,
                        "value": 1
                    },
                    {
                        "number": 64,
                        "time": 235.2120752145836,
                        "value": 0
                    },
                    {
                        "number": 64,
                        "time": 235.30763071041693,
                        "value": 1
                    },
                    {
                        "number": 64,
                        "time": 235.74985265625025,
                        "value": 0
                    },
                    {
                        "number": 64,
                        "time": 235.86096369791693,
                        "value": 1
                    },
                    {
                        "number": 64,
                        "time": 236.2787412145836,
                        "value": 0
                    },
                    {
                        "number": 64,
                        "time": 236.34985228125026,
                        "value": 1
                    },
                    {
                        "number": 64,
                        "time": 236.79985200000027,
                        "value": 0
                    },
                    {
                        "number": 64,
                        "time": 240.01318332500028,
                        "value": 1
                    },
                    {
                        "number": 64,
                        "time": 240.54873854583363,
                        "value": 0
                    },
                    {
                        "number": 64,
                        "time": 240.63540515833364,
                        "value": 1
                    },
                    {
                        "number": 64,
                        "time": 241.06651600000032,
                        "value": 0
                    },
                    {
                        "number": 64,
                        "time": 241.1298492937503,
                        "value": 1
                    },
                    {
                        "number": 64,
                        "time": 242.1498486562503,
                        "value": 0
                    },
                    {
                        "number": 64,
                        "time": 242.2865152375003,
                        "value": 1
                    },
                    {
                        "number": 64,
                        "time": 243.21984798750032,
                        "value": 0
                    },
                    {
                        "number": 64,
                        "time": 243.270959066667,
                        "value": 1
                    },
                    {
                        "number": 64,
                        "time": 244.28318065625032,
                        "value": 0
                    },
                    {
                        "number": 64,
                        "time": 244.34540283958367,
                        "value": 1
                    },
                    {
                        "number": 64,
                        "time": 245.33318000000034,
                        "value": 0
                    },
                    {
                        "number": 64,
                        "time": 245.39651329375033,
                        "value": 1
                    },
                    {
                        "number": 64,
                        "time": 246.41651265625032,
                        "value": 0
                    },
                    {
                        "number": 64,
                        "time": 246.55317923750033,
                        "value": 1
                    },
                    {
                        "number": 64,
                        "time": 247.48651198750034,
                        "value": 0
                    },
                    {
                        "number": 64,
                        "time": 247.537623066667,
                        "value": 1
                    },
                    {
                        "number": 64,
                        "time": 248.54984465625034,
                        "value": 0
                    },
                    {
                        "number": 64,
                        "time": 248.6120668395837,
                        "value": 1
                    },
                    {
                        "number": 64,
                        "time": 249.59984400000036,
                        "value": 0
                    },
                    {
                        "number": 64,
                        "time": 249.66317729375035,
                        "value": 1
                    },
                    {
                        "number": 64,
                        "time": 250.68317665625034,
                        "value": 0
                    },
                    {
                        "number": 64,
                        "time": 250.81984323750035,
                        "value": 1
                    },
                    {
                        "number": 64,
                        "time": 251.21095410416703,
                        "value": 0
                    },
                    {
                        "number": 64,
                        "time": 251.3020651583337,
                        "value": 1
                    },
                    {
                        "number": 64,
                        "time": 251.75317598750038,
                        "value": 0
                    },
                    {
                        "number": 64,
                        "time": 251.87873146458372,
                        "value": 1
                    },
                    {
                        "number": 64,
                        "time": 252.8165086562504,
                        "value": 0
                    },
                    {
                        "number": 64,
                        "time": 252.87873083958374,
                        "value": 1
                    },
                    {
                        "number": 64,
                        "time": 253.8665080000004,
                        "value": 0
                    },
                    {
                        "number": 64,
                        "time": 253.9998412500004,
                        "value": 1
                    },
                    {
                        "number": 64,
                        "time": 254.9498406562504,
                        "value": 0
                    },
                    {
                        "number": 64,
                        "time": 255.0865072375004,
                        "value": 1
                    },
                    {
                        "number": 64,
                        "time": 255.9998400000004,
                        "value": 0
                    },
                    {
                        "number": 64,
                        "time": 256.1331732500004,
                        "value": 1
                    },
                    {
                        "number": 64,
                        "time": 257.0798393250004,
                        "value": 0
                    },
                    {
                        "number": 64,
                        "time": 257.1609503854171,
                        "value": 1
                    },
                    {
                        "number": 64,
                        "time": 258.1809497479171,
                        "value": 0
                    },
                    {
                        "number": 64,
                        "time": 258.38428295416713,
                        "value": 1
                    },
                    {
                        "number": 64,
                        "time": 259.2165046562505,
                        "value": 0
                    },
                    {
                        "number": 64,
                        "time": 259.3253934770838,
                        "value": 1
                    },
                    {
                        "number": 64,
                        "time": 260.31428174791716,
                        "value": 0
                    },
                    {
                        "number": 64,
                        "time": 260.6820592958338,
                        "value": 1
                    },
                    {
                        "number": 64,
                        "time": 261.2442811666672,
                        "value": 0
                    },
                    {
                        "number": 64,
                        "time": 262.45539152083387,
                        "value": 1
                    },
                    {
                        "number": 64,
                        "time": 263.4776131041672,
                        "value": 0
                    },
                    {
                        "number": 64,
                        "time": 263.5376130666672,
                        "value": 1
                    },
                    {
                        "number": 64,
                        "time": 264.54872354583387,
                        "value": 0
                    },
                    {
                        "number": 64,
                        "time": 264.5920568520839,
                        "value": 1
                    },
                    {
                        "number": 64,
                        "time": 265.6087228833339,
                        "value": 0
                    },
                    {
                        "number": 64,
                        "time": 266.19983362500057,
                        "value": 1
                    },
                    {
                        "number": 64,
                        "time": 266.67649999375055,
                        "value": 0
                    },
                    {
                        "number": 64,
                        "time": 266.7253888520839,
                        "value": 1
                    },
                    {
                        "number": 64,
                        "time": 266.9409442729172,
                        "value": 0
                    },
                    {
                        "number": 64,
                        "time": 267.0353886583339,
                        "value": 1
                    },
                    {
                        "number": 64,
                        "time": 267.7442771041672,
                        "value": 0
                    },
                    {
                        "number": 64,
                        "time": 267.8042770666672,
                        "value": 1
                    },
                    {
                        "number": 64,
                        "time": 268.27427677291723,
                        "value": 0
                    },
                    {
                        "number": 64,
                        "time": 268.33316562500056,
                        "value": 1
                    },
                    {
                        "number": 64,
                        "time": 268.8153875458339,
                        "value": 0
                    },
                    {
                        "number": 64,
                        "time": 268.85872085208393,
                        "value": 1
                    },
                    {
                        "number": 64,
                        "time": 269.85538689583393,
                        "value": 0
                    },
                    {
                        "number": 64,
                        "time": 269.9331646250006,
                        "value": 1
                    },
                    {
                        "number": 64,
                        "time": 270.3998310000006,
                        "value": 0
                    },
                    {
                        "number": 64,
                        "time": 270.9887195208339,
                        "value": 1
                    },
                    {
                        "number": 64,
                        "time": 272.0109411041672,
                        "value": 0
                    },
                    {
                        "number": 64,
                        "time": 272.0709410666672,
                        "value": 1
                    },
                    {
                        "number": 64,
                        "time": 272.8120517145839,
                        "value": 0
                    },
                    {
                        "number": 64,
                        "time": 272.87427389791725,
                        "value": 1
                    },
                    {
                        "number": 64,
                        "time": 273.0764959937506,
                        "value": 0
                    },
                    {
                        "number": 64,
                        "time": 273.1253848520839,
                        "value": 1
                    },
                    {
                        "number": 64,
                        "time": 274.14427310416727,
                        "value": 0
                    },
                    {
                        "number": 64,
                        "time": 274.20427306666727,
                        "value": 1
                    },
                    {
                        "number": 64,
                        "time": 274.6887172083339,
                        "value": 0
                    },
                    {
                        "number": 64,
                        "time": 274.7487171708339,
                        "value": 1
                    },
                    {
                        "number": 64,
                        "time": 275.2098279937506,
                        "value": 0
                    },
                    {
                        "number": 64,
                        "time": 275.2587168520839,
                        "value": 1
                    },
                    {
                        "number": 64,
                        "time": 276.27760510416726,
                        "value": 0
                    },
                    {
                        "number": 64,
                        "time": 276.33760506666727,
                        "value": 1
                    },
                    {
                        "number": 64,
                        "time": 276.8220492083339,
                        "value": 0
                    },
                    {
                        "number": 64,
                        "time": 276.8820491708339,
                        "value": 1
                    },
                    {
                        "number": 64,
                        "time": 277.3431599937506,
                        "value": 0
                    },
                    {
                        "number": 64,
                        "time": 277.3920488520839,
                        "value": 1
                    },
                    {
                        "number": 64,
                        "time": 278.40760377291724,
                        "value": 0
                    },
                    {
                        "number": 64,
                        "time": 278.46649262500057,
                        "value": 1
                    },
                    {
                        "number": 64,
                        "time": 278.9498256562506,
                        "value": 0
                    },
                    {
                        "number": 64,
                        "time": 279.0042700666673,
                        "value": 1
                    },
                    {
                        "number": 64,
                        "time": 279.4742697729173,
                        "value": 0
                    },
                    {
                        "number": 64,
                        "time": 279.5298252937506,
                        "value": 1
                    },
                    {
                        "number": 64,
                        "time": 280.54426910416726,
                        "value": 0
                    },
                    {
                        "number": 64,
                        "time": 280.60426906666726,
                        "value": 1
                    },
                    {
                        "number": 64,
                        "time": 281.61537954583395,
                        "value": 0
                    },
                    {
                        "number": 64,
                        "time": 281.65871285208397,
                        "value": 1
                    },
                    {
                        "number": 64,
                        "time": 282.67537888333396,
                        "value": 0
                    },
                    {
                        "number": 64,
                        "time": 283.325378477084,
                        "value": 1
                    },
                    {
                        "number": 64,
                        "time": 283.74315599375063,
                        "value": 0
                    },
                    {
                        "number": 64,
                        "time": 283.79204485208396,
                        "value": 1
                    },
                    {
                        "number": 64,
                        "time": 284.28204454583397,
                        "value": 0
                    },
                    {
                        "number": 64,
                        "time": 284.37315560000064,
                        "value": 1
                    },
                    {
                        "number": 64,
                        "time": 284.8109331041673,
                        "value": 0
                    },
                    {
                        "number": 64,
                        "time": 284.8709330666673,
                        "value": 1
                    },
                    {
                        "number": 64,
                        "time": 285.3409327729173,
                        "value": 0
                    },
                    {
                        "number": 64,
                        "time": 285.39982162500064,
                        "value": 1
                    },
                    {
                        "number": 64,
                        "time": 285.882043545834,
                        "value": 0
                    },
                    {
                        "number": 64,
                        "time": 285.925376852084,
                        "value": 1
                    },
                    {
                        "number": 64,
                        "time": 286.922042895834,
                        "value": 0
                    },
                    {
                        "number": 64,
                        "time": 287.50648697500066,
                        "value": 1
                    },
                    {
                        "number": 64,
                        "time": 287.9998200000007,
                        "value": 0
                    },
                    {
                        "number": 64,
                        "time": 288.0942643854174,
                        "value": 1
                    },
                    {
                        "number": 64,
                        "time": 288.54093077291736,
                        "value": 0
                    },
                    {
                        "number": 64,
                        "time": 288.61204183958404,
                        "value": 1
                    },
                    {
                        "number": 64,
                        "time": 288.82093059791737,
                        "value": 0
                    },
                    {
                        "number": 64,
                        "time": 288.878708339584,
                        "value": 1
                    },
                    {
                        "number": 64,
                        "time": 289.07759710416735,
                        "value": 0
                    },
                    {
                        "number": 64,
                        "time": 289.13759706666735,
                        "value": 1
                    },
                    {
                        "number": 64,
                        "time": 289.615374545834,
                        "value": 0
                    },
                    {
                        "number": 64,
                        "time": 289.65870785208404,
                        "value": 1
                    },
                    {
                        "number": 64,
                        "time": 290.1431519937507,
                        "value": 0
                    },
                    {
                        "number": 64,
                        "time": 290.192040852084,
                        "value": 1
                    },
                    {
                        "number": 64,
                        "time": 291.21092910416735,
                        "value": 0
                    },
                    {
                        "number": 64,
                        "time": 291.27092906666735,
                        "value": 1
                    },
                    {
                        "number": 64,
                        "time": 291.755373208334,
                        "value": 0
                    },
                    {
                        "number": 64,
                        "time": 291.815373170834,
                        "value": 1
                    },
                    {
                        "number": 64,
                        "time": 292.27315066250065,
                        "value": 0
                    },
                    {
                        "number": 64,
                        "time": 292.2764839937507,
                        "value": 0
                    },
                    {
                        "number": 64,
                        "time": 292.362039495834,
                        "value": 1
                    },
                    {
                        "number": 64,
                        "time": 292.5475949354173,
                        "value": 0
                    },
                    {
                        "number": 64,
                        "time": 293.3442611041673,
                        "value": 0
                    },
                    {
                        "number": 64,
                        "time": 293.4042610666673,
                        "value": 1
                    },
                    {
                        "number": 64,
                        "time": 293.61203871458395,
                        "value": 0
                    },
                    {
                        "number": 64,
                        "time": 293.7209275354173,
                        "value": 1
                    },
                    {
                        "number": 64,
                        "time": 293.88870520833393,
                        "value": 0
                    },
                    {
                        "number": 64,
                        "time": 293.94870517083393,
                        "value": 1
                    },
                    {
                        "number": 64,
                        "time": 294.4098159937506,
                        "value": 0
                    },
                    {
                        "number": 64,
                        "time": 294.45759374166727,
                        "value": 1
                    },
                    {
                        "number": 64,
                        "time": 294.6809269354173,
                        "value": 0
                    },
                    {
                        "number": 64,
                        "time": 295.5109264166673,
                        "value": 1
                    },
                    {
                        "number": 64,
                        "time": 295.99981500000064,
                        "value": 0
                    },
                    {
                        "number": 64,
                        "time": 296.1275926979173,
                        "value": 1
                    },
                    {
                        "number": 64,
                        "time": 296.53981466250065,
                        "value": 0
                    },
                    {
                        "number": 64,
                        "time": 296.64314793125067,
                        "value": 1
                    },
                    {
                        "number": 64,
                        "time": 296.815370045834,
                        "value": 0
                    },
                    {
                        "number": 64,
                        "time": 297.69536949583403,
                        "value": 1
                    },
                    {
                        "number": 64,
                        "time": 298.1331470000007,
                        "value": 0
                    },
                    {
                        "number": 64,
                        "time": 298.26092469791735,
                        "value": 1
                    },
                    {
                        "number": 64,
                        "time": 298.6731466625007,
                        "value": 0
                    },
                    {
                        "number": 64,
                        "time": 298.7764799312507,
                        "value": 1
                    },
                    {
                        "number": 64,
                        "time": 298.94870204583407,
                        "value": 0
                    },
                    {
                        "number": 64,
                        "time": 299.2631462937507,
                        "value": 1
                    },
                    {
                        "number": 64,
                        "time": 299.478701714584,
                        "value": 0
                    },
                    {
                        "number": 64,
                        "time": 299.5998127500007,
                        "value": 1
                    },
                    {
                        "number": 64,
                        "time": 299.76092376041737,
                        "value": 0
                    },
                    {
                        "number": 64,
                        "time": 300.2609234479174,
                        "value": 1
                    },
                    {
                        "number": 64,
                        "time": 300.8064786625007,
                        "value": 0
                    },
                    {
                        "number": 64,
                        "time": 300.895367495834,
                        "value": 1
                    },
                    {
                        "number": 64,
                        "time": 301.08092293541733,
                        "value": 0
                    },
                    {
                        "number": 64,
                        "time": 301.9498112812507,
                        "value": 1
                    },
                    {
                        "number": 64,
                        "time": 302.145366714584,
                        "value": 0
                    },
                    {
                        "number": 64,
                        "time": 302.2542555354173,
                        "value": 1
                    },
                    {
                        "number": 64,
                        "time": 302.41647765625066,
                        "value": 0
                    },
                    {
                        "number": 64,
                        "time": 302.5142553729173,
                        "value": 1
                    },
                    {
                        "number": 64,
                        "time": 302.972032864584,
                        "value": 0
                    },
                    {
                        "number": 64,
                        "time": 303.0609216979173,
                        "value": 1
                    },
                    {
                        "number": 64,
                        "time": 303.21425493541733,
                        "value": 0
                    },
                    {
                        "number": 64,
                        "time": 304.04425441666734,
                        "value": 1
                    },
                    {
                        "number": 64,
                        "time": 304.5331430000007,
                        "value": 0
                    },
                    {
                        "number": 64,
                        "time": 304.66092069791733,
                        "value": 1
                    },
                    {
                        "number": 64,
                        "time": 305.0731426625007,
                        "value": 0
                    },
                    {
                        "number": 64,
                        "time": 305.1764759312507,
                        "value": 1
                    },
                    {
                        "number": 64,
                        "time": 305.34869804583406,
                        "value": 0
                    },
                    {
                        "number": 64,
                        "time": 306.22869749583407,
                        "value": 1
                    },
                    {
                        "number": 64,
                        "time": 306.66647500000073,
                        "value": 0
                    },
                    {
                        "number": 64,
                        "time": 306.7942526979174,
                        "value": 1
                    },
                    {
                        "number": 64,
                        "time": 307.20647466250074,
                        "value": 0
                    },
                    {
                        "number": 64,
                        "time": 307.30980793125076,
                        "value": 1
                    },
                    {
                        "number": 64,
                        "time": 307.4820300458341,
                        "value": 0
                    },
                    {
                        "number": 64,
                        "time": 308.2753628833341,
                        "value": 0
                    },
                    {
                        "number": 64,
                        "time": 308.7998070000007,
                        "value": 0
                    },
                    {
                        "number": 64,
                        "time": 308.9275846979174,
                        "value": 1
                    },
                    {
                        "number": 64,
                        "time": 309.33980666250073,
                        "value": 0
                    },
                    {
                        "number": 64,
                        "time": 309.8742507729174,
                        "value": 0
                    },
                    {
                        "number": 64,
                        "time": 309.96869515833407,
                        "value": 1
                    },
                    {
                        "number": 64,
                        "time": 310.4086948833341,
                        "value": 0
                    },
                    {
                        "number": 64,
                        "time": 310.9331390000007,
                        "value": 0
                    },
                    {
                        "number": 64,
                        "time": 311.0031389562507,
                        "value": 1
                    },
                    {
                        "number": 64,
                        "time": 311.2153610458341,
                        "value": 0
                    },
                    {
                        "number": 64,
                        "time": 311.2831387812507,
                        "value": 1
                    },
                    {
                        "number": 64,
                        "time": 311.47313866250073,
                        "value": 0
                    },
                    {
                        "number": 64,
                        "time": 312.0075827729174,
                        "value": 0
                    },
                    {
                        "number": 64,
                        "time": 312.10202715833407,
                        "value": 1
                    },
                    {
                        "number": 64,
                        "time": 312.5420268833341,
                        "value": 0
                    },
                    {
                        "number": 64,
                        "time": 313.0664710000007,
                        "value": 0
                    },
                    {
                        "number": 64,
                        "time": 313.1364709562507,
                        "value": 1
                    },
                    {
                        "number": 64,
                        "time": 313.6064706625007,
                        "value": 0
                    },
                    {
                        "number": 64,
                        "time": 314.14091477291737,
                        "value": 0
                    },
                    {
                        "number": 64,
                        "time": 314.23535915833406,
                        "value": 1
                    },
                    {
                        "number": 64,
                        "time": 314.6731366625007,
                        "value": 0
                    },
                    {
                        "number": 64,
                        "time": 314.77646993125074,
                        "value": 1
                    },
                    {
                        "number": 64,
                        "time": 315.2075807729174,
                        "value": 0
                    },
                    {
                        "number": 64,
                        "time": 315.3020251583341,
                        "value": 1
                    },
                    {
                        "number": 64,
                        "time": 315.7420248833341,
                        "value": 0
                    },
                    {
                        "number": 64,
                        "time": 316.26646900000077,
                        "value": 0
                    },
                    {
                        "number": 64,
                        "time": 316.33646895625077,
                        "value": 1
                    },
                    {
                        "number": 64,
                        "time": 316.8064686625008,
                        "value": 0
                    },
                    {
                        "number": 64,
                        "time": 317.3409127729174,
                        "value": 0
                    },
                    {
                        "number": 64,
                        "time": 317.4353571583341,
                        "value": 1
                    },
                    {
                        "number": 64,
                        "time": 317.8753568833341,
                        "value": 0
                    },
                    {
                        "number": 64,
                        "time": 318.39980100000076,
                        "value": 0
                    },
                    {
                        "number": 64,
                        "time": 318.46980095625077,
                        "value": 1
                    },
                    {
                        "number": 64,
                        "time": 318.94091177291745,
                        "value": 0
                    },
                    {
                        "number": 64,
                        "time": 319.02091172291745,
                        "value": 1
                    },
                    {
                        "number": 64,
                        "time": 319.9998000000008,
                        "value": 0
                    },
                    {
                        "number": 64,
                        "time": 320.1331332500008,
                        "value": 1
                    },
                    {
                        "number": 64,
                        "time": 321.0942437604175,
                        "value": 0
                    },
                    {
                        "number": 64,
                        "time": 321.66313229375083,
                        "value": 1
                    },
                    {
                        "number": 64,
                        "time": 322.1397986625008,
                        "value": 0
                    },
                    {
                        "number": 64,
                        "time": 322.22868749583415,
                        "value": 1
                    },
                    {
                        "number": 64,
                        "time": 322.41424293541746,
                        "value": 0
                    },
                    {
                        "number": 64,
                        "time": 323.2831312812508,
                        "value": 1
                    },
                    {
                        "number": 64,
                        "time": 323.4786867145841,
                        "value": 0
                    },
                    {
                        "number": 64,
                        "time": 323.58757553541744,
                        "value": 1
                    },
                    {
                        "number": 64,
                        "time": 323.7497976562508,
                        "value": 0
                    },
                    {
                        "number": 64,
                        "time": 323.84757537291745,
                        "value": 1
                    },
                    {
                        "number": 64,
                        "time": 324.3053528645841,
                        "value": 0
                    },
                    {
                        "number": 64,
                        "time": 324.39424169791744,
                        "value": 1
                    },
                    {
                        "number": 64,
                        "time": 324.54757493541746,
                        "value": 0
                    },
                    {
                        "number": 64,
                        "time": 325.8664630000008,
                        "value": 0
                    },
                    {
                        "number": 64,
                        "time": 325.99424069791746,
                        "value": 1
                    },
                    {
                        "number": 64,
                        "time": 326.4064626625008,
                        "value": 0
                    },
                    {
                        "number": 64,
                        "time": 326.50979593125084,
                        "value": 1
                    },
                    {
                        "number": 64,
                        "time": 326.6820180458342,
                        "value": 0
                    },
                    {
                        "number": 64,
                        "time": 327.99979500000086,
                        "value": 0
                    },
                    {
                        "number": 64,
                        "time": 328.1275726979175,
                        "value": 1
                    },
                    {
                        "number": 64,
                        "time": 328.53979466250087,
                        "value": 0
                    },
                    {
                        "number": 64,
                        "time": 328.6431279312509,
                        "value": 1
                    },
                    {
                        "number": 64,
                        "time": 328.81535004583424,
                        "value": 0
                    },
                    {
                        "number": 64,
                        "time": 329.1297942937509,
                        "value": 1
                    },
                    {
                        "number": 64,
                        "time": 329.3453497145842,
                        "value": 0
                    },
                    {
                        "number": 64,
                        "time": 329.46646075000086,
                        "value": 1
                    },
                    {
                        "number": 64,
                        "time": 329.62757176041754,
                        "value": 0
                    },
                    {
                        "number": 64,
                        "time": 330.12757144791755,
                        "value": 1
                    },
                    {
                        "number": 64,
                        "time": 330.67312666250086,
                        "value": 0
                    },
                    {
                        "number": 64,
                        "time": 330.7620154958342,
                        "value": 1
                    },
                    {
                        "number": 64,
                        "time": 330.9475709354175,
                        "value": 0
                    },
                    {
                        "number": 64,
                        "time": 331.81645928125084,
                        "value": 1
                    },
                    {
                        "number": 64,
                        "time": 332.01201471458415,
                        "value": 0
                    },
                    {
                        "number": 64,
                        "time": 332.1209035354175,
                        "value": 1
                    },
                    {
                        "number": 64,
                        "time": 332.28312565625083,
                        "value": 0
                    },
                    {
                        "number": 64,
                        "time": 332.3809033729175,
                        "value": 1
                    },
                    {
                        "number": 64,
                        "time": 332.83868086458415,
                        "value": 0
                    },
                    {
                        "number": 64,
                        "time": 332.9275696979175,
                        "value": 1
                    },
                    {
                        "number": 64,
                        "time": 333.0809029354175,
                        "value": 0
                    },
                    {
                        "number": 64,
                        "time": 334.39979100000085,
                        "value": 0
                    },
                    {
                        "number": 64,
                        "time": 334.5275686979175,
                        "value": 1
                    },
                    {
                        "number": 64,
                        "time": 334.93979066250085,
                        "value": 0
                    },
                    {
                        "number": 64,
                        "time": 335.0431239312509,
                        "value": 1
                    },
                    {
                        "number": 64,
                        "time": 335.2153460458342,
                        "value": 0
                    },
                    {
                        "number": 64,
                        "time": 336.04423441666756,
                        "value": 1
                    },
                    {
                        "number": 64,
                        "time": 336.5331230000009,
                        "value": 0
                    },
                    {
                        "number": 64,
                        "time": 336.66090069791755,
                        "value": 1
                    },
                    {
                        "number": 64,
                        "time": 337.0731226625009,
                        "value": 0
                    },
                    {
                        "number": 64,
                        "time": 337.1764559312509,
                        "value": 1
                    },
                    {
                        "number": 64,
                        "time": 337.3486780458343,
                        "value": 0
                    },
                    {
                        "number": 64,
                        "time": 338.14201088333425,
                        "value": 0
                    },
                    {
                        "number": 64,
                        "time": 338.6664550000009,
                        "value": 0
                    },
                    {
                        "number": 64,
                        "time": 338.79423269791755,
                        "value": 1
                    },
                    {
                        "number": 64,
                        "time": 339.19978800000086,
                        "value": 0
                    },
                    {
                        "number": 64,
                        "time": 339.26978795625087,
                        "value": 1
                    },
                    {
                        "number": 64,
                        "time": 340.2742317729175,
                        "value": 0
                    },
                    {
                        "number": 64,
                        "time": 340.3686761583342,
                        "value": 1
                    },
                    {
                        "number": 64,
                        "time": 341.33312000000086,
                        "value": 0
                    },
                    {
                        "number": 64,
                        "time": 341.4664532500009,
                        "value": 1
                    },
                    {
                        "number": 64,
                        "time": 343.46645200000086,
                        "value": 0
                    },
                    {
                        "number": 64,
                        "time": 343.55089639166755,
                        "value": 1
                    },
                    {
                        "number": 64,
                        "time": 344.01645165625087,
                        "value": 0
                    },
                    {
                        "number": 64,
                        "time": 345.6553395208342,
                        "value": 1
                    },
                    {
                        "number": 64,
                        "time": 346.6775611041675,
                        "value": 0
                    },
                    {
                        "number": 64,
                        "time": 346.7375610666675,
                        "value": 1
                    },
                    {
                        "number": 64,
                        "time": 347.7486715458342,
                        "value": 0
                    },
                    {
                        "number": 64,
                        "time": 347.79200485208423,
                        "value": 1
                    },
                    {
                        "number": 64,
                        "time": 348.80867088333423,
                        "value": 0
                    },
                    {
                        "number": 64,
                        "time": 349.3997816250009,
                        "value": 1
                    },
                    {
                        "number": 64,
                        "time": 349.8764479937509,
                        "value": 0
                    },
                    {
                        "number": 64,
                        "time": 349.92533685208423,
                        "value": 1
                    },
                    {
                        "number": 64,
                        "time": 350.14089227291754,
                        "value": 0
                    },
                    {
                        "number": 64,
                        "time": 350.23533665833423,
                        "value": 1
                    },
                    {
                        "number": 64,
                        "time": 350.9442251041676,
                        "value": 0
                    },
                    {
                        "number": 64,
                        "time": 351.0042250666676,
                        "value": 1
                    },
                    {
                        "number": 64,
                        "time": 351.4742247729176,
                        "value": 0
                    },
                    {
                        "number": 64,
                        "time": 351.5331136250009,
                        "value": 1
                    },
                    {
                        "number": 64,
                        "time": 352.01533554583426,
                        "value": 0
                    },
                    {
                        "number": 64,
                        "time": 352.0586688520843,
                        "value": 1
                    },
                    {
                        "number": 64,
                        "time": 353.0553348958343,
                        "value": 0
                    },
                    {
                        "number": 64,
                        "time": 353.13311262500093,
                        "value": 1
                    },
                    {
                        "number": 64,
                        "time": 353.5997790000009,
                        "value": 0
                    },
                    {
                        "number": 64,
                        "time": 354.18866752083426,
                        "value": 1
                    },
                    {
                        "number": 64,
                        "time": 355.21088910416756,
                        "value": 0
                    },
                    {
                        "number": 64,
                        "time": 355.27088906666756,
                        "value": 1
                    },
                    {
                        "number": 64,
                        "time": 356.01199971458425,
                        "value": 0
                    },
                    {
                        "number": 64,
                        "time": 356.0742218979176,
                        "value": 1
                    },
                    {
                        "number": 64,
                        "time": 356.27644399375095,
                        "value": 0
                    },
                    {
                        "number": 64,
                        "time": 356.3253328520843,
                        "value": 1
                    },
                    {
                        "number": 64,
                        "time": 357.3442211041676,
                        "value": 0
                    },
                    {
                        "number": 64,
                        "time": 357.4042210666676,
                        "value": 1
                    },
                    {
                        "number": 64,
                        "time": 357.88866520833426,
                        "value": 0
                    },
                    {
                        "number": 64,
                        "time": 357.94866517083426,
                        "value": 1
                    },
                    {
                        "number": 64,
                        "time": 358.40977599375094,
                        "value": 0
                    },
                    {
                        "number": 64,
                        "time": 358.45866485208427,
                        "value": 1
                    },
                    {
                        "number": 64,
                        "time": 359.4775531041676,
                        "value": 0
                    },
                    {
                        "number": 64,
                        "time": 359.5375530666676,
                        "value": 1
                    },
                    {
                        "number": 64,
                        "time": 360.02199720833426,
                        "value": 0
                    },
                    {
                        "number": 64,
                        "time": 360.08199717083426,
                        "value": 1
                    },
                    {
                        "number": 64,
                        "time": 360.54310799375094,
                        "value": 0
                    },
                    {
                        "number": 64,
                        "time": 360.59199685208426,
                        "value": 1
                    },
                    {
                        "number": 64,
                        "time": 361.6075517729176,
                        "value": 0
                    },
                    {
                        "number": 64,
                        "time": 361.6664406250009,
                        "value": 1
                    },
                    {
                        "number": 64,
                        "time": 362.14977365625094,
                        "value": 0
                    },
                    {
                        "number": 64,
                        "time": 362.20421806666764,
                        "value": 1
                    },
                    {
                        "number": 64,
                        "time": 362.67421777291764,
                        "value": 0
                    },
                    {
                        "number": 64,
                        "time": 362.72977329375095,
                        "value": 1
                    },
                    {
                        "number": 64,
                        "time": 363.7442171041676,
                        "value": 0
                    },
                    {
                        "number": 64,
                        "time": 363.8042170666676,
                        "value": 1
                    },
                    {
                        "number": 64,
                        "time": 364.8153275458343,
                        "value": 0
                    },
                    {
                        "number": 64,
                        "time": 364.8586608520843,
                        "value": 1
                    },
                    {
                        "number": 64,
                        "time": 365.8753268833343,
                        "value": 0
                    },
                    {
                        "number": 64,
                        "time": 366.5253264770843,
                        "value": 1
                    },
                    {
                        "number": 64,
                        "time": 366.943103993751,
                        "value": 0
                    },
                    {
                        "number": 64,
                        "time": 366.9919928520843,
                        "value": 1
                    },
                    {
                        "number": 64,
                        "time": 367.4819925458343,
                        "value": 0
                    },
                    {
                        "number": 64,
                        "time": 367.573103600001,
                        "value": 1
                    },
                    {
                        "number": 64,
                        "time": 368.01088110416765,
                        "value": 0
                    },
                    {
                        "number": 64,
                        "time": 368.07088106666765,
                        "value": 1
                    },
                    {
                        "number": 64,
                        "time": 368.54088077291766,
                        "value": 0
                    },
                    {
                        "number": 64,
                        "time": 368.599769625001,
                        "value": 1
                    },
                    {
                        "number": 64,
                        "time": 369.08199154583434,
                        "value": 0
                    },
                    {
                        "number": 64,
                        "time": 369.12532485208436,
                        "value": 1
                    },
                    {
                        "number": 64,
                        "time": 370.12199089583436,
                        "value": 0
                    },
                    {
                        "number": 64,
                        "time": 370.706434975001,
                        "value": 1
                    },
                    {
                        "number": 64,
                        "time": 371.19976800000103,
                        "value": 0
                    },
                    {
                        "number": 64,
                        "time": 371.2942123854177,
                        "value": 1
                    },
                    {
                        "number": 64,
                        "time": 371.7408787729177,
                        "value": 0
                    },
                    {
                        "number": 64,
                        "time": 371.8119898395844,
                        "value": 1
                    },
                    {
                        "number": 64,
                        "time": 372.0208785979177,
                        "value": 0
                    },
                    {
                        "number": 64,
                        "time": 372.07865633958437,
                        "value": 1
                    },
                    {
                        "number": 64,
                        "time": 372.2775451041677,
                        "value": 0
                    },
                    {
                        "number": 64,
                        "time": 372.3375450666677,
                        "value": 1
                    },
                    {
                        "number": 64,
                        "time": 372.81532254583436,
                        "value": 0
                    },
                    {
                        "number": 64,
                        "time": 372.8586558520844,
                        "value": 1
                    },
                    {
                        "number": 64,
                        "time": 373.343099993751,
                        "value": 0
                    },
                    {
                        "number": 64,
                        "time": 373.39198885208435,
                        "value": 1
                    },
                    {
                        "number": 64,
                        "time": 374.4108771041677,
                        "value": 0
                    },
                    {
                        "number": 64,
                        "time": 374.4708770666677,
                        "value": 1
                    },
                    {
                        "number": 64,
                        "time": 375.4775431041677,
                        "value": 0
                    },
                    {
                        "number": 64,
                        "time": 375.5375430666677,
                        "value": 1
                    },
                    {
                        "number": 64,
                        "time": 376.5442091041677,
                        "value": 0
                    },
                    {
                        "number": 64,
                        "time": 376.6042090666677,
                        "value": 1
                    },
                    {
                        "number": 64,
                        "time": 377.609763993751,
                        "value": 0
                    },
                    {
                        "number": 64,
                        "time": 377.65865285208434,
                        "value": 1
                    },
                    {
                        "number": 64,
                        "time": 378.6775411041677,
                        "value": 0
                    },
                    {
                        "number": 64,
                        "time": 378.7375410666677,
                        "value": 1
                    },
                    {
                        "number": 64,
                        "time": 379.7442071041677,
                        "value": 0
                    },
                    {
                        "number": 64,
                        "time": 379.8042070666677,
                        "value": 1
                    },
                    {
                        "number": 64,
                        "time": 380.8108731041677,
                        "value": 0
                    },
                    {
                        "number": 64,
                        "time": 380.8708730666677,
                        "value": 1
                    },
                    {
                        "number": 64,
                        "time": 381.876427993751,
                        "value": 0
                    },
                    {
                        "number": 64,
                        "time": 381.92531685208434,
                        "value": 1
                    },
                    {
                        "number": 64,
                        "time": 382.9442051041677,
                        "value": 0
                    },
                    {
                        "number": 64,
                        "time": 383.0042050666677,
                        "value": 1
                    },
                    {
                        "number": 64,
                        "time": 383.4886492083343,
                        "value": 0
                    },
                    {
                        "number": 64,
                        "time": 383.5486491708343,
                        "value": 1
                    },
                    {
                        "number": 64,
                        "time": 384.0108711041677,
                        "value": 0
                    },
                    {
                        "number": 64,
                        "time": 384.0708710666677,
                        "value": 1
                    },
                    {
                        "number": 64,
                        "time": 384.5553152083343,
                        "value": 0
                    },
                    {
                        "number": 64,
                        "time": 384.6153151708343,
                        "value": 1
                    },
                    {
                        "number": 64,
                        "time": 385.0775371041677,
                        "value": 0
                    },
                    {
                        "number": 64,
                        "time": 385.1375370666677,
                        "value": 1
                    },
                    {
                        "number": 64,
                        "time": 385.34531471458433,
                        "value": 0
                    },
                    {
                        "number": 64,
                        "time": 385.45420353541766,
                        "value": 1
                    },
                    {
                        "number": 64,
                        "time": 386.1442031041677,
                        "value": 0
                    },
                    {
                        "number": 64,
                        "time": 386.2042030666677,
                        "value": 1
                    },
                    {
                        "number": 64,
                        "time": 386.41198071458433,
                        "value": 0
                    },
                    {
                        "number": 64,
                        "time": 386.52086953541766,
                        "value": 1
                    },
                    {
                        "number": 64,
                        "time": 387.21086910416767,
                        "value": 0
                    },
                    {
                        "number": 64,
                        "time": 387.2708690666677,
                        "value": 1
                    },
                    {
                        "number": 64,
                        "time": 387.7553132083343,
                        "value": 0
                    },
                    {
                        "number": 64,
                        "time": 387.8153131708343,
                        "value": 1
                    },
                    {
                        "number": 64,
                        "time": 388.27753510416767,
                        "value": 0
                    },
                    {
                        "number": 64,
                        "time": 388.33753506666767,
                        "value": 1
                    },
                    {
                        "number": 64,
                        "time": 388.8219792083343,
                        "value": 0
                    },
                    {
                        "number": 64,
                        "time": 388.8819791708343,
                        "value": 1
                    },
                    {
                        "number": 64,
                        "time": 389.34420110416767,
                        "value": 0
                    },
                    {
                        "number": 64,
                        "time": 389.40420106666767,
                        "value": 1
                    },
                    {
                        "number": 64,
                        "time": 389.6119787145843,
                        "value": 0
                    },
                    {
                        "number": 64,
                        "time": 389.72086753541765,
                        "value": 1
                    },
                    {
                        "number": 64,
                        "time": 390.41086710416766,
                        "value": 0
                    },
                    {
                        "number": 64,
                        "time": 390.47086706666767,
                        "value": 1
                    },
                    {
                        "number": 64,
                        "time": 396.8119742145843,
                        "value": 0
                    },
                    {
                        "number": 64,
                        "time": 396.946418575001,
                        "value": 1
                    },
                    {
                        "number": 64,
                        "time": 397.883084656251,
                        "value": 0
                    },
                    {
                        "number": 64,
                        "time": 398.0186401270843,
                        "value": 1
                    },
                    {
                        "number": 64,
                        "time": 401.0741937729177,
                        "value": 0
                    },
                    {
                        "number": 64,
                        "time": 401.149749281251,
                        "value": 1
                    },
                    {
                        "number": 64,
                        "time": 401.616415656251,
                        "value": 0
                    },
                    {
                        "number": 64,
                        "time": 401.72752669791765,
                        "value": 1
                    },
                    {
                        "number": 64,
                        "time": 402.14752643541766,
                        "value": 0
                    },
                    {
                        "number": 64,
                        "time": 402.22197083333435,
                        "value": 1
                    },
                    {
                        "number": 64,
                        "time": 404.81196921458434,
                        "value": 0
                    },
                    {
                        "number": 64,
                        "time": 404.8886358333343,
                        "value": 1
                    },
                    {
                        "number": 64,
                        "time": 405.33308000000096,
                        "value": 0
                    },
                    {
                        "number": 64,
                        "time": 405.396413293751,
                        "value": 1
                    },
                    {
                        "number": 64,
                        "time": 406.416412656251,
                        "value": 0
                    },
                    {
                        "number": 64,
                        "time": 406.553079237501,
                        "value": 1
                    },
                    {
                        "number": 64,
                        "time": 407.48641198750096,
                        "value": 0
                    },
                    {
                        "number": 64,
                        "time": 407.53752306666763,
                        "value": 1
                    },
                    {
                        "number": 64,
                        "time": 408.54974465625094,
                        "value": 0
                    },
                    {
                        "number": 64,
                        "time": 408.6119668395843,
                        "value": 1
                    },
                    {
                        "number": 64,
                        "time": 409.59974400000095,
                        "value": 0
                    },
                    {
                        "number": 64,
                        "time": 409.663077293751,
                        "value": 1
                    },
                    {
                        "number": 64,
                        "time": 410.683076656251,
                        "value": 0
                    },
                    {
                        "number": 64,
                        "time": 410.74085439791764,
                        "value": 1
                    },
                    {
                        "number": 64,
                        "time": 411.753075987501,
                        "value": 0
                    },
                    {
                        "number": 64,
                        "time": 411.8041870666677,
                        "value": 1
                    },
                    {
                        "number": 64,
                        "time": 412.81640865625104,
                        "value": 0
                    },
                    {
                        "number": 64,
                        "time": 412.8786308395844,
                        "value": 1
                    },
                    {
                        "number": 64,
                        "time": 413.86640800000106,
                        "value": 0
                    },
                    {
                        "number": 64,
                        "time": 413.9297412937511,
                        "value": 1
                    },
                    {
                        "number": 64,
                        "time": 414.9497406562511,
                        "value": 0
                    },
                    {
                        "number": 64,
                        "time": 415.0864072375011,
                        "value": 1
                    },
                    {
                        "number": 64,
                        "time": 416.01973998750105,
                        "value": 0
                    },
                    {
                        "number": 64,
                        "time": 416.0830732812511,
                        "value": 1
                    },
                    {
                        "number": 64,
                        "time": 417.0830726562511,
                        "value": 0
                    },
                    {
                        "number": 64,
                        "time": 417.14529483958444,
                        "value": 1
                    },
                    {
                        "number": 64,
                        "time": 418.1330720000011,
                        "value": 0
                    },
                    {
                        "number": 64,
                        "time": 418.2664052500011,
                        "value": 1
                    },
                    {
                        "number": 64,
                        "time": 419.21640465625114,
                        "value": 0
                    },
                    {
                        "number": 64,
                        "time": 419.3530712375011,
                        "value": 1
                    },
                    {
                        "number": 64,
                        "time": 420.2664040000011,
                        "value": 0
                    },
                    {
                        "number": 64,
                        "time": 420.36862615833445,
                        "value": 1
                    },
                    {
                        "number": 64,
                        "time": 421.3464033250011,
                        "value": 0
                    },
                    {
                        "number": 64,
                        "time": 421.4275143854178,
                        "value": 1
                    },
                    {
                        "number": 64,
                        "time": 421.8764029937511,
                        "value": 0
                    },
                    {
                        "number": 64,
                        "time": 421.99973625000115,
                        "value": 1
                    },
                    {
                        "number": 64,
                        "time": 422.4130693250012,
                        "value": 0
                    },
                    {
                        "number": 64,
                        "time": 422.51751370416787,
                        "value": 1
                    },
                    {
                        "number": 64,
                        "time": 423.4830686562512,
                        "value": 0
                    },
                    {
                        "number": 64,
                        "time": 423.5919574770845,
                        "value": 1
                    },
                    {
                        "number": 64,
                        "time": 424.54640132500117,
                        "value": 0
                    },
                    {
                        "number": 64,
                        "time": 424.6286234958345,
                        "value": 1
                    },
                    {
                        "number": 64,
                        "time": 425.6164006562512,
                        "value": 0
                    },
                    {
                        "number": 64,
                        "time": 425.7252894770845,
                        "value": 1
                    },
                    {
                        "number": 64,
                        "time": 426.6830666562512,
                        "value": 0
                    },
                    {
                        "number": 64,
                        "time": 426.78084437291784,
                        "value": 1
                    },
                    {
                        "number": 64,
                        "time": 427.7497326562512,
                        "value": 0
                    },
                    {
                        "number": 64,
                        "time": 427.8586214770845,
                        "value": 1
                    },
                    {
                        "number": 64,
                        "time": 428.80306533125116,
                        "value": 0
                    },
                    {
                        "number": 64,
                        "time": 428.9563985687512,
                        "value": 1
                    },
                    {
                        "number": 64,
                        "time": 429.8819535458345,
                        "value": 0
                    },
                    {
                        "number": 64,
                        "time": 430.0152867958345,
                        "value": 1
                    },
                    {
                        "number": 64,
                        "time": 430.4075087729179,
                        "value": 0
                    },
                    {
                        "number": 64,
                        "time": 430.49417538541786,
                        "value": 1
                    },
                    {
                        "number": 64,
                        "time": 430.9586195395845,
                        "value": 0
                    },
                    {
                        "number": 64,
                        "time": 431.04750837291783,
                        "value": 1
                    },
                    {
                        "number": 64,
                        "time": 431.4819525458345,
                        "value": 0
                    },
                    {
                        "number": 64,
                        "time": 431.59973025000113,
                        "value": 1
                    },
                    {
                        "number": 64,
                        "time": 432.01528554583444,
                        "value": 0
                    },
                    {
                        "number": 64,
                        "time": 432.09528549583445,
                        "value": 1
                    },
                    {
                        "number": 64,
                        "time": 432.5486185458345,
                        "value": 0
                    },
                    {
                        "number": 64,
                        "time": 432.67972957500115,
                        "value": 1
                    },
                    {
                        "number": 64,
                        "time": 433.0775071041678,
                        "value": 0
                    },
                    {
                        "number": 64,
                        "time": 433.14972928125115,
                        "value": 1
                    },
                    {
                        "number": 64,
                        "time": 433.61528454583447,
                        "value": 0
                    },
                    {
                        "number": 64,
                        "time": 433.69528449583447,
                        "value": 1
                    },
                    {
                        "number": 64,
                        "time": 434.1486175458345,
                        "value": 0
                    },
                    {
                        "number": 64,
                        "time": 434.2852841270845,
                        "value": 1
                    },
                    {
                        "number": 64,
                        "time": 434.67750610416783,
                        "value": 0
                    },
                    {
                        "number": 64,
                        "time": 434.8252837895845,
                        "value": 1
                    },
                    {
                        "number": 64,
                        "time": 435.21306132500115,
                        "value": 0
                    },
                    {
                        "number": 64,
                        "time": 435.28306128125115,
                        "value": 1
                    },
                    {
                        "number": 64,
                        "time": 435.7452832145845,
                        "value": 0
                    },
                    {
                        "number": 64,
                        "time": 435.8408387104178,
                        "value": 1
                    },
                    {
                        "number": 64,
                        "time": 436.28306065625117,
                        "value": 0
                    },
                    {
                        "number": 64,
                        "time": 436.39417169791784,
                        "value": 1
                    },
                    {
                        "number": 64,
                        "time": 436.8119492145845,
                        "value": 0
                    },
                    {
                        "number": 64,
                        "time": 436.8830602812512,
                        "value": 1
                    },
                    {
                        "number": 64,
                        "time": 437.3330600000012,
                        "value": 0
                    },
                    {
                        "number": 64,
                        "time": 437.40972661875117,
                        "value": 1
                    },
                    {
                        "number": 64,
                        "time": 438.41639265625116,
                        "value": 0
                    },
                    {
                        "number": 64,
                        "time": 438.52083703541786,
                        "value": 1
                    },
                    {
                        "number": 64,
                        "time": 438.95194787708454,
                        "value": 0
                    },
                    {
                        "number": 64,
                        "time": 439.0286144958345,
                        "value": 1
                    },
                    {
                        "number": 64,
                        "time": 439.47194755208454,
                        "value": 0
                    },
                    {
                        "number": 64,
                        "time": 440.6097246187512,
                        "value": 1
                    },
                    {
                        "number": 64,
                        "time": 441.59972400000123,
                        "value": 0
                    },
                    {
                        "number": 64,
                        "time": 441.66305729375125,
                        "value": 1
                    },
                    {
                        "number": 64,
                        "time": 442.68305665625127,
                        "value": 0
                    },
                    {
                        "number": 64,
                        "time": 442.81972323750125,
                        "value": 1
                    },
                    {
                        "number": 64,
                        "time": 443.7530559875012,
                        "value": 0
                    },
                    {
                        "number": 64,
                        "time": 443.8041670666679,
                        "value": 1
                    },
                    {
                        "number": 64,
                        "time": 444.8163886562512,
                        "value": 0
                    },
                    {
                        "number": 64,
                        "time": 444.87861083958455,
                        "value": 1
                    },
                    {
                        "number": 64,
                        "time": 445.8663880000012,
                        "value": 0
                    },
                    {
                        "number": 64,
                        "time": 445.92972129375124,
                        "value": 1
                    },
                    {
                        "number": 64,
                        "time": 446.94972065625126,
                        "value": 0
                    },
                    {
                        "number": 64,
                        "time": 447.08638723750124,
                        "value": 1
                    },
                    {
                        "number": 64,
                        "time": 448.0197199875012,
                        "value": 0
                    },
                    {
                        "number": 64,
                        "time": 448.0708310666679,
                        "value": 1
                    },
                    {
                        "number": 64,
                        "time": 449.0830526562512,
                        "value": 0
                    },
                    {
                        "number": 64,
                        "time": 449.14527483958454,
                        "value": 1
                    },
                    {
                        "number": 64,
                        "time": 450.1330520000012,
                        "value": 0
                    },
                    {
                        "number": 64,
                        "time": 450.19638529375123,
                        "value": 1
                    },
                    {
                        "number": 64,
                        "time": 451.21638465625125,
                        "value": 0
                    },
                    {
                        "number": 64,
                        "time": 451.35305123750123,
                        "value": 1
                    },
                    {
                        "number": 64,
                        "time": 452.2852728770846,
                        "value": 0
                    },
                    {
                        "number": 64,
                        "time": 452.3497172812513,
                        "value": 1
                    },
                    {
                        "number": 64,
                        "time": 453.3497166562513,
                        "value": 0
                    },
                    {
                        "number": 64,
                        "time": 453.41193883958465,
                        "value": 1
                    },
                    {
                        "number": 64,
                        "time": 454.407493772918,
                        "value": 0
                    },
                    {
                        "number": 64,
                        "time": 454.5330492500013,
                        "value": 1
                    },
                    {
                        "number": 64,
                        "time": 455.4830486562513,
                        "value": 0
                    },
                    {
                        "number": 64,
                        "time": 455.6197152375013,
                        "value": 1
                    },
                    {
                        "number": 64,
                        "time": 456.54082577291797,
                        "value": 0
                    },
                    {
                        "number": 64,
                        "time": 456.6663812500013,
                        "value": 1
                    },
                    {
                        "number": 64,
                        "time": 457.6163806562513,
                        "value": 0
                    },
                    {
                        "number": 64,
                        "time": 457.7530472375013,
                        "value": 1
                    },
                    {
                        "number": 64,
                        "time": 458.6730466625013,
                        "value": 0
                    },
                    {
                        "number": 64,
                        "time": 458.7997132500013,
                        "value": 1
                    },
                    {
                        "number": 64,
                        "time": 459.7497126562513,
                        "value": 0
                    },
                    {
                        "number": 64,
                        "time": 459.8863792375013,
                        "value": 1
                    },
                    {
                        "number": 64,
                        "time": 460.8063786625013,
                        "value": 0
                    },
                    {
                        "number": 64,
                        "time": 460.93304525000127,
                        "value": 1
                    },
                    {
                        "number": 64,
                        "time": 461.8830446562513,
                        "value": 0
                    },
                    {
                        "number": 64,
                        "time": 462.01971123750127,
                        "value": 1
                    },
                    {
                        "number": 64,
                        "time": 462.9397106625013,
                        "value": 0
                    },
                    {
                        "number": 64,
                        "time": 463.06637725000127,
                        "value": 1
                    },
                    {
                        "number": 64,
                        "time": 464.0163766562513,
                        "value": 0
                    },
                    {
                        "number": 64,
                        "time": 464.1097099312513,
                        "value": 1
                    },
                    {
                        "number": 64,
                        "time": 465.077487104168,
                        "value": 0
                    },
                    {
                        "number": 64,
                        "time": 465.1997092500013,
                        "value": 1
                    },
                    {
                        "number": 64,
                        "time": 466.14970865625133,
                        "value": 0
                    },
                    {
                        "number": 64,
                        "time": 466.2863752375013,
                        "value": 1
                    },
                    {
                        "number": 64,
                        "time": 467.21081910416797,
                        "value": 0
                    },
                    {
                        "number": 64,
                        "time": 467.3330412500013,
                        "value": 1
                    },
                    {
                        "number": 64,
                        "time": 468.28304065625133,
                        "value": 0
                    },
                    {
                        "number": 64,
                        "time": 468.4197072375013,
                        "value": 1
                    },
                    {
                        "number": 64,
                        "time": 469.3397066625013,
                        "value": 0
                    },
                    {
                        "number": 64,
                        "time": 469.4663732500013,
                        "value": 1
                    },
                    {
                        "number": 64,
                        "time": 470.4163726562513,
                        "value": 0
                    },
                    {
                        "number": 64,
                        "time": 470.5530392375013,
                        "value": 1
                    },
                    {
                        "number": 64,
                        "time": 471.4797053250013,
                        "value": 0
                    },
                    {
                        "number": 64,
                        "time": 471.56859415833463,
                        "value": 1
                    },
                    {
                        "number": 64,
                        "time": 472.0097049937513,
                        "value": 0
                    },
                    {
                        "number": 64,
                        "time": 472.1097049312513,
                        "value": 1
                    },
                    {
                        "number": 64,
                        "time": 472.5497046562513,
                        "value": 0
                    },
                    {
                        "number": 64,
                        "time": 472.6863712375013,
                        "value": 1
                    },
                    {
                        "number": 64,
                        "time": 473.607481772918,
                        "value": 0
                    },
                    {
                        "number": 64,
                        "time": 473.70970393125134,
                        "value": 1
                    },
                    {
                        "number": 64,
                        "time": 474.14970365625135,
                        "value": 0
                    },
                    {
                        "number": 64,
                        "time": 474.23525915833466,
                        "value": 1
                    },
                    {
                        "number": 64,
                        "time": 474.6830366562513,
                        "value": 0
                    },
                    {
                        "number": 64,
                        "time": 474.77636993125134,
                        "value": 1
                    },
                    {
                        "number": 64,
                        "time": 475.74636932500135,
                        "value": 0
                    },
                    {
                        "number": 64,
                        "time": 475.84303593125134,
                        "value": 1
                    },
                    {
                        "number": 64,
                        "time": 476.2752578833347,
                        "value": 0
                    },
                    {
                        "number": 64,
                        "time": 476.37636893125136,
                        "value": 1
                    },
                    {
                        "number": 64,
                        "time": 476.81636865625137,
                        "value": 0
                    },
                    {
                        "number": 64,
                        "time": 476.95303523750135,
                        "value": 1
                    },
                    {
                        "number": 64,
                        "time": 477.877479104168,
                        "value": 0
                    },
                    {
                        "number": 64,
                        "time": 477.97636793125133,
                        "value": 1
                    },
                    {
                        "number": 64,
                        "time": 478.4085898833347,
                        "value": 0
                    },
                    {
                        "number": 64,
                        "time": 478.50970093125136,
                        "value": 1
                    },
                    {
                        "number": 64,
                        "time": 478.94970065625137,
                        "value": 0
                    },
                    {
                        "number": 64,
                        "time": 479.08636723750135,
                        "value": 1
                    },
                    {
                        "number": 64,
                        "time": 480.0119222145847,
                        "value": 0
                    },
                    {
                        "number": 64,
                        "time": 480.1019221583347,
                        "value": 1
                    },
                    {
                        "number": 64,
                        "time": 486.7996957500013,
                        "value": 0
                    },
                    {
                        "number": 64,
                        "time": 487.58413970416797,
                        "value": 1
                    },
                    {
                        "number": 64,
                        "time": 488.5496946562513,
                        "value": 0
                    },
                    {
                        "number": 64,
                        "time": 488.69747234166795,
                        "value": 1
                    },
                    {
                        "number": 64,
                        "time": 492.2663590000013,
                        "value": 0
                    }
                ]
            },
            "id": 3,
            "name": "Pedale",
            "instrumentNumber": 0,
            "instrument": "acoustic grand piano",
            "instrumentFamily": "piano",
            "channelNumber": 0,
            "isPercussion": false
        },
        {
            "startTime": 0,
            "duration": 0,
            "length": 0,
            "notes": [],
            "controlChanges": {},
            "id": 4,
            "name": "Schubert: Sonata D850, 4. movement"
        },
        {
            "startTime": 0,
            "duration": 0,
            "length": 0,
            "notes": [],
            "controlChanges": {},
            "id": 5,
            "name": "Copyright  2010 by Bernd Krueger"
        },
        {
            "startTime": 0,
            "duration": 0,
            "length": 0,
            "notes": [],
            "controlChanges": {},
            "id": 6,
            "name": "http://www.piano-midi.de/"
        },
        {
            "startTime": 0,
            "duration": 0,
            "length": 0,
            "notes": [],
            "controlChanges": {},
            "id": 7,
            "name": "Edition: 2014-03-13"
        },
        {
            "startTime": 0,
            "duration": 0,
            "length": 0,
            "notes": [],
            "controlChanges": {},
            "id": 8,
            "name": "Spur 8"
        },
        {
            "startTime": 0,
            "duration": 0,
            "length": 0,
            "notes": [],
            "controlChanges": {},
            "id": 9,
            "name": "Spur 9"
        },
        {
            "startTime": 0,
            "duration": 0,
            "length": 0,
            "notes": [],
            "controlChanges": {},
            "id": 10,
            "name": "Spur 10"
        },
        {
            "startTime": 0,
            "duration": 0,
            "length": 0,
            "notes": [],
            "controlChanges": {},
            "id": 11,
            "name": "Spur 11"
        },
        {
            "startTime": 0,
            "duration": 0,
            "length": 0,
            "notes": [],
            "controlChanges": {},
            "id": 12,
            "name": "Spur 12"
        },
        {
            "startTime": 0,
            "duration": 0,
            "length": 0,
            "notes": [],
            "controlChanges": {},
            "id": 13,
            "name": "Spur 13"
        },
        {
            "startTime": 0,
            "duration": 0,
            "length": 0,
            "notes": [],
            "controlChanges": {},
            "id": 14,
            "name": "Spur 14"
        },
        {
            "startTime": 0,
            "duration": 0,
            "length": 0,
            "notes": [],
            "controlChanges": {},
            "id": 15,
            "name": "Spur 15"
        },
        {
            "startTime": 0,
            "duration": 0,
            "length": 0,
            "notes": [],
            "controlChanges": {},
            "id": 16,
            "name": "Spur 16"
        }
    ]
}