{
    "header": {
        "PPQ": 480,
        "timeSignature": [
            4,
            4
        ],
        "bpm": 99.34992035448052,
        "name": "Der Dichter spricht"
    },
    "startTime": 0,
    "duration": 68.8475640000001,
    "tracks": [
        {
            "startTime": 0,
            "duration": 0,
            "length": 0,
            "notes": [],
            "controlChanges": {},
            "id": 0,
            "name": "Der Dichter spricht"
        },
        {
            "startTime": 0.0012581791666666665,
            "duration": 68.8475640000001,
            "length": 150,
            "notes": [
                {
                    "name": "D4",
                    "midi": 62,
                    "time": 0.0012581791666666665,
                    "velocity": 0.3464566929133858,
                    "duration": 1.206593820833333
                },
                {
                    "name": "F#4",
                    "midi": 66,
                    "time": 0.0012581791666666665,
                    "velocity": 0.3464566929133858,
                    "duration": 1.2078519999999997
                },
                {
                    "name": "D4",
                    "midi": 62,
                    "time": 1.2078519999999997,
                    "velocity": 0.36220472440944884,
                    "duration": 1.2078519999999997
                },
                {
                    "name": "G4",
                    "midi": 67,
                    "time": 1.2078519999999997,
                    "velocity": 0.36220472440944884,
                    "duration": 1.2078519999999997
                },
                {
                    "name": "D4",
                    "midi": 62,
                    "time": 2.4157039999999994,
                    "velocity": 0.4251968503937008,
                    "duration": 1.8117779999999999
                },
                {
                    "name": "C5",
                    "midi": 72,
                    "time": 2.4157039999999994,
                    "velocity": 0.4251968503937008,
                    "duration": 1.8117779999999999
                },
                {
                    "name": "D4",
                    "midi": 62,
                    "time": 4.227481999999999,
                    "velocity": 0.30708661417322836,
                    "duration": 0.6039260000000004
                },
                {
                    "name": "B4",
                    "midi": 71,
                    "time": 4.227481999999999,
                    "velocity": 0.30708661417322836,
                    "duration": 0.6039260000000004
                },
                {
                    "name": "A4",
                    "midi": 69,
                    "time": 4.831408,
                    "velocity": 0.31496062992125984,
                    "duration": 0.7549074999999998
                },
                {
                    "name": "E4",
                    "midi": 64,
                    "time": 4.831408,
                    "velocity": 0.31496062992125984,
                    "duration": 1.2078520000000008
                },
                {
                    "name": "B4",
                    "midi": 71,
                    "time": 5.5863154999999995,
                    "velocity": 0.25196850393700787,
                    "duration": 0.11323612500000024
                },
                {
                    "name": "A4",
                    "midi": 69,
                    "time": 5.699551625,
                    "velocity": 0.25196850393700787,
                    "duration": 0.11323612500000024
                },
                {
                    "name": "G4",
                    "midi": 67,
                    "time": 5.81278775,
                    "velocity": 0.25196850393700787,
                    "duration": 0.11323612500000024
                },
                {
                    "name": "A4",
                    "midi": 69,
                    "time": 5.926023875,
                    "velocity": 0.25196850393700787,
                    "duration": 0.11323612500000024
                },
                {
                    "name": "B4",
                    "midi": 71,
                    "time": 6.0392600000000005,
                    "velocity": 0.30708661417322836,
                    "duration": 0.9058890000000002
                },
                {
                    "name": "E4",
                    "midi": 64,
                    "time": 6.0392600000000005,
                    "velocity": 0.30708661417322836,
                    "duration": 1.207852
                },
                {
                    "name": "G4",
                    "midi": 67,
                    "time": 6.945149000000001,
                    "velocity": 0.25196850393700787,
                    "duration": 0.30196299999999976
                },
                {
                    "name": "D4",
                    "midi": 62,
                    "time": 7.247112,
                    "velocity": 0.2992125984251969,
                    "duration": 2.415703999999999
                },
                {
                    "name": "B4",
                    "midi": 71,
                    "time": 7.247112,
                    "velocity": 0.2992125984251969,
                    "duration": 1.207852
                },
                {
                    "name": "A4",
                    "midi": 69,
                    "time": 8.454964,
                    "velocity": 0.25984251968503935,
                    "duration": 1.207851999999999
                },
                {
                    "name": "G#4",
                    "midi": 68,
                    "time": 9.662816,
                    "velocity": 0.3464566929133858,
                    "duration": 1.207851999999999
                },
                {
                    "name": "F4",
                    "midi": 65,
                    "time": 9.662816,
                    "velocity": 0.3464566929133858,
                    "duration": 1.207851999999999
                },
                {
                    "name": "E4",
                    "midi": 64,
                    "time": 10.870667999999998,
                    "velocity": 0.3937007874015748,
                    "duration": 1.207851999999999
                },
                {
                    "name": "A4",
                    "midi": 69,
                    "time": 10.870667999999998,
                    "velocity": 0.3937007874015748,
                    "duration": 1.207851999999999
                },
                {
                    "name": "F4",
                    "midi": 65,
                    "time": 12.078519999999997,
                    "velocity": 0.44881889763779526,
                    "duration": 1.2078520000000008
                },
                {
                    "name": "D5",
                    "midi": 74,
                    "time": 12.078519999999997,
                    "velocity": 0.44881889763779526,
                    "duration": 1.2078520000000008
                },
                {
                    "name": "E4",
                    "midi": 64,
                    "time": 13.210881249999998,
                    "velocity": 0.33858267716535434,
                    "duration": 1.283342750000001
                },
                {
                    "name": "C5",
                    "midi": 72,
                    "time": 13.286371999999998,
                    "velocity": 0.4409448818897638,
                    "duration": 1.2078520000000008
                },
                {
                    "name": "F4",
                    "midi": 65,
                    "time": 15.098149999999999,
                    "velocity": 0.2755905511811024,
                    "duration": 1.5098150000000015
                },
                {
                    "name": "D4",
                    "midi": 62,
                    "time": 15.098149999999999,
                    "velocity": 0.2755905511811024,
                    "duration": 1.5098150000000015
                },
                {
                    "name": "B4",
                    "midi": 71,
                    "time": 15.098149999999999,
                    "velocity": 0.2204724409448819,
                    "duration": 1.5098150000000015
                },
                {
                    "name": "B3",
                    "midi": 59,
                    "time": 16.7589465,
                    "velocity": 0.25196850393700787,
                    "duration": 0.15098150000000032
                },
                {
                    "name": "E4",
                    "midi": 64,
                    "time": 16.7589465,
                    "velocity": 0.25196850393700787,
                    "duration": 0.15098150000000032
                },
                {
                    "name": "G#4",
                    "midi": 68,
                    "time": 16.7589465,
                    "velocity": 0.1968503937007874,
                    "duration": 0.15098150000000032
                },
                {
                    "name": "B3",
                    "midi": 59,
                    "time": 16.909928,
                    "velocity": 0.25196850393700787,
                    "duration": 1.207851999999999
                },
                {
                    "name": "E4",
                    "midi": 64,
                    "time": 16.909928,
                    "velocity": 0.25196850393700787,
                    "duration": 1.8117780000000003
                },
                {
                    "name": "G#4",
                    "midi": 68,
                    "time": 16.909928,
                    "velocity": 0.1968503937007874,
                    "duration": 1.207851999999999
                },
                {
                    "name": "C4",
                    "midi": 60,
                    "time": 18.11778,
                    "velocity": 0.23622047244094488,
                    "duration": 0.6039260000000013
                },
                {
                    "name": "A4",
                    "midi": 69,
                    "time": 18.11778,
                    "velocity": 0.1889763779527559,
                    "duration": 0.6039260000000013
                },
                {
                    "name": "F#4",
                    "midi": 66,
                    "time": 19.325632000000002,
                    "velocity": 0.28346456692913385,
                    "duration": 1.2078520000000026
                },
                {
                    "name": "D4",
                    "midi": 62,
                    "time": 19.627595000000003,
                    "velocity": 0.2283464566929134,
                    "duration": 0.30196300000000065
                },
                {
                    "name": "G4",
                    "midi": 67,
                    "time": 20.533484000000005,
                    "velocity": 0.28346456692913385,
                    "duration": 1.2078520000000026
                },
                {
                    "name": "D4",
                    "midi": 62,
                    "time": 20.835447000000006,
                    "velocity": 0.2283464566929134,
                    "duration": 0.30196300000000065
                },
                {
                    "name": "C5",
                    "midi": 72,
                    "time": 21.741336000000008,
                    "velocity": 0.25196850393700787,
                    "duration": 2.4157040000000016
                },
                {
                    "name": "D#4",
                    "midi": 63,
                    "time": 22.043299000000008,
                    "velocity": 0.2047244094488189,
                    "duration": 2.113741000000001
                },
                {
                    "name": "D#4",
                    "midi": 63,
                    "time": 24.15704000000001,
                    "velocity": 0.25984251968503935,
                    "duration": 1.2078520000000026
                },
                {
                    "name": "C4",
                    "midi": 60,
                    "time": 24.45900300000001,
                    "velocity": 0.2204724409448819,
                    "duration": 0.30196300000000065
                },
                {
                    "name": "E4",
                    "midi": 64,
                    "time": 25.36489200000001,
                    "velocity": 0.25984251968503935,
                    "duration": 1.2078520000000026
                },
                {
                    "name": "B3",
                    "midi": 59,
                    "time": 25.666855000000012,
                    "velocity": 0.2204724409448819,
                    "duration": 0.30196300000000065
                },
                {
                    "name": "A4",
                    "midi": 69,
                    "time": 26.572744000000014,
                    "velocity": 0.2440944881889764,
                    "duration": 1.8117780000000003
                },
                {
                    "name": "C4",
                    "midi": 60,
                    "time": 26.874707000000015,
                    "velocity": 0.2047244094488189,
                    "duration": 2.1137409999999974
                },
                {
                    "name": "A4",
                    "midi": 69,
                    "time": 28.58583066666668,
                    "velocity": 0.25196850393700787,
                    "duration": 0.21389045833333142
                },
                {
                    "name": "B4",
                    "midi": 71,
                    "time": 28.787139333333347,
                    "velocity": 0.2755905511811024,
                    "duration": 0.21389045833333142
                },
                {
                    "name": "C5",
                    "midi": 72,
                    "time": 28.988448000000012,
                    "velocity": 0.25984251968503935,
                    "duration": 0.21389045833333142
                },
                {
                    "name": "B4",
                    "midi": 71,
                    "time": 29.18975666666668,
                    "velocity": 0.28346456692913385,
                    "duration": 0.21389045833333142
                },
                {
                    "name": "A4",
                    "midi": 69,
                    "time": 29.391065333333344,
                    "velocity": 0.29133858267716534,
                    "duration": 0.20130866666666591
                },
                {
                    "name": "F#5",
                    "midi": 78,
                    "time": 29.59237400000001,
                    "velocity": 0.30708661417322836,
                    "duration": 0.9058889999999984
                },
                {
                    "name": "E5",
                    "midi": 76,
                    "time": 30.49826300000001,
                    "velocity": 0.25196850393700787,
                    "duration": 0.30196300000000065
                },
                {
                    "name": "E5",
                    "midi": 76,
                    "time": 30.80022600000001,
                    "velocity": 0.25196850393700787,
                    "duration": 0.6039260000000013
                },
                {
                    "name": "D#5",
                    "midi": 75,
                    "time": 31.40415200000001,
                    "velocity": 0.2204724409448819,
                    "duration": 0.6039260000000013
                },
                {
                    "name": "D#5",
                    "midi": 75,
                    "time": 32.00807800000001,
                    "velocity": 0.29133858267716534,
                    "duration": 0.10065433333333118
                },
                {
                    "name": "D#5",
                    "midi": 75,
                    "time": 32.10873233333334,
                    "velocity": 0.30708661417322836,
                    "duration": 0.10065433333333118
                },
                {
                    "name": "E5",
                    "midi": 76,
                    "time": 32.209386666666674,
                    "velocity": 0.31496062992125984,
                    "duration": 0.10065433333333118
                },
                {
                    "name": "D#5",
                    "midi": 75,
                    "time": 32.310041000000005,
                    "velocity": 0.31496062992125984,
                    "duration": 0.10065433333333118
                },
                {
                    "name": "D5",
                    "midi": 74,
                    "time": 32.41069533333334,
                    "velocity": 0.33070866141732286,
                    "duration": 0.10065433333333118
                },
                {
                    "name": "D#5",
                    "midi": 75,
                    "time": 32.51134966666667,
                    "velocity": 0.3464566929133858,
                    "duration": 0.10065433333333118
                },
                {
                    "name": "E5",
                    "midi": 76,
                    "time": 32.612004,
                    "velocity": 0.3543307086614173,
                    "duration": 2.4157040000000194
                },
                {
                    "name": "A#3",
                    "midi": 58,
                    "time": 32.612004,
                    "velocity": 0.3543307086614173,
                    "duration": 1.811778000000018
                },
                {
                    "name": "E4",
                    "midi": 64,
                    "time": 32.81331266666667,
                    "velocity": 0.2755905511811024,
                    "duration": 0.21389045833333853
                },
                {
                    "name": "F#4",
                    "midi": 66,
                    "time": 33.01462133333334,
                    "velocity": 0.29133858267716534,
                    "duration": 0.21389045833333853
                },
                {
                    "name": "G4",
                    "midi": 67,
                    "time": 33.21593000000001,
                    "velocity": 0.31496062992125984,
                    "duration": 0.21389045833333853
                },
                {
                    "name": "F#4",
                    "midi": 66,
                    "time": 33.41723866666668,
                    "velocity": 0.30708661417322836,
                    "duration": 0.21389045833333853
                },
                {
                    "name": "E4",
                    "midi": 64,
                    "time": 33.618547333333346,
                    "velocity": 0.3228346456692913,
                    "duration": 0.20130866666666947
                },
                {
                    "name": "C#5",
                    "midi": 73,
                    "time": 33.819856000000016,
                    "velocity": 0.3464566929133858,
                    "duration": 0.9058890000000019
                },
                {
                    "name": "B3",
                    "midi": 59,
                    "time": 34.42378200000002,
                    "velocity": 0.30708661417322836,
                    "duration": 0.6039260000000013
                },
                {
                    "name": "B4",
                    "midi": 71,
                    "time": 34.72574500000002,
                    "velocity": 0.33070866141732286,
                    "duration": 0.30196300000000065
                },
                {
                    "name": "C#4",
                    "midi": 61,
                    "time": 34.87672650000002,
                    "velocity": 0.29133858267716534,
                    "duration": 1.3588335000000171
                },
                {
                    "name": "E4",
                    "midi": 64,
                    "time": 34.95221725000002,
                    "velocity": 0.29133858267716534,
                    "duration": 1.283342750000017
                },
                {
                    "name": "E5",
                    "midi": 76,
                    "time": 35.02770800000002,
                    "velocity": 0.3464566929133858,
                    "duration": 0.20130866666666947
                },
                {
                    "name": "B4",
                    "midi": 71,
                    "time": 35.02770800000002,
                    "velocity": 0.3464566929133858,
                    "duration": 0.6039260000000084
                },
                {
                    "name": "E5",
                    "midi": 76,
                    "time": 35.22901666666669,
                    "velocity": 0.33070866141732286,
                    "duration": 0.21389045833333853
                },
                {
                    "name": "F#5",
                    "midi": 78,
                    "time": 35.43032533333336,
                    "velocity": 0.3543307086614173,
                    "duration": 0.21389045833333853
                },
                {
                    "name": "G5",
                    "midi": 79,
                    "time": 35.63163400000003,
                    "velocity": 0.3779527559055118,
                    "duration": 0.21389045833333853
                },
                {
                    "name": "A#4",
                    "midi": 70,
                    "time": 35.63163400000003,
                    "velocity": 0.30708661417322836,
                    "duration": 1.8117780000000252
                },
                {
                    "name": "F#5",
                    "midi": 78,
                    "time": 35.832942666666696,
                    "velocity": 0.36220472440944884,
                    "duration": 0.21389045833333853
                },
                {
                    "name": "E5",
                    "midi": 76,
                    "time": 36.034251333333366,
                    "velocity": 0.3543307086614173,
                    "duration": 0.20130866666666947
                },
                {
                    "name": "G6",
                    "midi": 91,
                    "time": 36.235560000000035,
                    "velocity": 0.2992125984251969,
                    "duration": 0.20130866666666947
                },
                {
                    "name": "E6",
                    "midi": 88,
                    "time": 36.436868666666705,
                    "velocity": 0.29133858267716534,
                    "duration": 0.20130866666666947
                },
                {
                    "name": "C#6",
                    "midi": 85,
                    "time": 36.638177333333374,
                    "velocity": 0.28346456692913385,
                    "duration": 0.20130866666666947
                },
                {
                    "name": "A#5",
                    "midi": 82,
                    "time": 36.83948600000004,
                    "velocity": 0.25196850393700787,
                    "duration": 0.20130866666666947
                },
                {
                    "name": "G5",
                    "midi": 79,
                    "time": 37.04079466666671,
                    "velocity": 0.2283464566929134,
                    "duration": 0.20130866666666947
                },
                {
                    "name": "E5",
                    "midi": 76,
                    "time": 37.24210333333338,
                    "velocity": 0.2047244094488189,
                    "duration": 0.20130866666666947
                },
                {
                    "name": "F#4",
                    "midi": 66,
                    "time": 37.44467017916672,
                    "velocity": 0.28346456692913385,
                    "duration": 1.2078520000000026
                },
                {
                    "name": "D4",
                    "midi": 62,
                    "time": 37.44467017916672,
                    "velocity": 0.28346456692913385,
                    "duration": 1.2078520000000026
                },
                {
                    "name": "D4",
                    "midi": 62,
                    "time": 38.651264000000054,
                    "velocity": 0.33070866141732286,
                    "duration": 1.2078520000000026
                },
                {
                    "name": "G4",
                    "midi": 67,
                    "time": 38.651264000000054,
                    "velocity": 0.33070866141732286,
                    "duration": 1.2078520000000026
                },
                {
                    "name": "D4",
                    "midi": 62,
                    "time": 39.85911600000006,
                    "velocity": 0.4094488188976378,
                    "duration": 1.8117779999999968
                },
                {
                    "name": "C5",
                    "midi": 72,
                    "time": 39.85911600000006,
                    "velocity": 0.4094488188976378,
                    "duration": 1.8117779999999968
                },
                {
                    "name": "D4",
                    "midi": 62,
                    "time": 41.670894000000054,
                    "velocity": 0.3858267716535433,
                    "duration": 0.6039260000000013
                },
                {
                    "name": "B4",
                    "midi": 71,
                    "time": 41.670894000000054,
                    "velocity": 0.3858267716535433,
                    "duration": 0.6039260000000013
                },
                {
                    "name": "E4",
                    "midi": 64,
                    "time": 42.274820000000055,
                    "velocity": 0.4094488188976378,
                    "duration": 1.2078520000000026
                },
                {
                    "name": "A4",
                    "midi": 69,
                    "time": 42.274820000000055,
                    "velocity": 0.4094488188976378,
                    "duration": 0.7549075000000016
                },
                {
                    "name": "B4",
                    "midi": 71,
                    "time": 43.02972750000006,
                    "velocity": 0.33070866141732286,
                    "duration": 0.11323612500000024
                },
                {
                    "name": "A4",
                    "midi": 69,
                    "time": 43.14296362500006,
                    "velocity": 0.33070866141732286,
                    "duration": 0.11323612500000024
                },
                {
                    "name": "G4",
                    "midi": 67,
                    "time": 43.25619975000006,
                    "velocity": 0.33070866141732286,
                    "duration": 0.11323612500000024
                },
                {
                    "name": "A4",
                    "midi": 69,
                    "time": 43.36943587500006,
                    "velocity": 0.33070866141732286,
                    "duration": 0.11323612500000024
                },
                {
                    "name": "B4",
                    "midi": 71,
                    "time": 43.48267200000006,
                    "velocity": 0.3858267716535433,
                    "duration": 0.9058890000000019
                },
                {
                    "name": "E4",
                    "midi": 64,
                    "time": 43.48267200000006,
                    "velocity": 0.3858267716535433,
                    "duration": 1.2078520000000026
                },
                {
                    "name": "G4",
                    "midi": 67,
                    "time": 44.38856100000006,
                    "velocity": 0.33070866141732286,
                    "duration": 0.30196300000000065
                },
                {
                    "name": "B4",
                    "midi": 71,
                    "time": 44.69052400000006,
                    "velocity": 0.25196850393700787,
                    "duration": 1.2078520000000026
                },
                {
                    "name": "D4",
                    "midi": 62,
                    "time": 44.69052400000006,
                    "velocity": 0.25196850393700787,
                    "duration": 2.415704000000005
                },
                {
                    "name": "A4",
                    "midi": 69,
                    "time": 45.89837600000006,
                    "velocity": 0.2283464566929134,
                    "duration": 1.2078520000000026
                },
                {
                    "name": "F4",
                    "midi": 65,
                    "time": 47.106228000000065,
                    "velocity": 0.30708661417322836,
                    "duration": 1.2078520000000026
                },
                {
                    "name": "G#4",
                    "midi": 68,
                    "time": 47.106228000000065,
                    "velocity": 0.30708661417322836,
                    "duration": 1.2078520000000026
                },
                {
                    "name": "A4",
                    "midi": 69,
                    "time": 48.31408000000007,
                    "velocity": 0.3464566929133858,
                    "duration": 1.2078520000000026
                },
                {
                    "name": "E4",
                    "midi": 64,
                    "time": 48.31408000000007,
                    "velocity": 0.3464566929133858,
                    "duration": 1.2078520000000026
                },
                {
                    "name": "F4",
                    "midi": 65,
                    "time": 49.52193200000007,
                    "velocity": 0.4330708661417323,
                    "duration": 1.2078520000000026
                },
                {
                    "name": "D5",
                    "midi": 74,
                    "time": 49.52193200000007,
                    "velocity": 0.4330708661417323,
                    "duration": 1.2078520000000026
                },
                {
                    "name": "E4",
                    "midi": 64,
                    "time": 50.65429325000007,
                    "velocity": 0.33858267716535434,
                    "duration": 1.2833427500000028
                },
                {
                    "name": "C5",
                    "midi": 72,
                    "time": 50.72978400000007,
                    "velocity": 0.44881889763779526,
                    "duration": 1.2078520000000026
                },
                {
                    "name": "D4",
                    "midi": 62,
                    "time": 52.54156200000008,
                    "velocity": 0.1889763779527559,
                    "duration": 1.5098150000000032
                },
                {
                    "name": "F4",
                    "midi": 65,
                    "time": 52.54156200000008,
                    "velocity": 0.1889763779527559,
                    "duration": 1.5098150000000032
                },
                {
                    "name": "B4",
                    "midi": 71,
                    "time": 52.54156200000008,
                    "velocity": 0.2283464566929134,
                    "duration": 1.5098150000000032
                },
                {
                    "name": "E4",
                    "midi": 64,
                    "time": 54.20235850000008,
                    "velocity": 0.1732283464566929,
                    "duration": 0.15098150000000032
                },
                {
                    "name": "B3",
                    "midi": 59,
                    "time": 54.20235850000008,
                    "velocity": 0.1732283464566929,
                    "duration": 0.15098150000000032
                },
                {
                    "name": "G#4",
                    "midi": 68,
                    "time": 54.20235850000008,
                    "velocity": 0.2047244094488189,
                    "duration": 0.15098150000000032
                },
                {
                    "name": "B3",
                    "midi": 59,
                    "time": 54.35334000000008,
                    "velocity": 0.1732283464566929,
                    "duration": 1.2078520000000026
                },
                {
                    "name": "E4",
                    "midi": 64,
                    "time": 54.35334000000008,
                    "velocity": 0.1732283464566929,
                    "duration": 1.8117780000000039
                },
                {
                    "name": "G#4",
                    "midi": 68,
                    "time": 54.35334000000008,
                    "velocity": 0.2047244094488189,
                    "duration": 1.2078520000000026
                },
                {
                    "name": "C4",
                    "midi": 60,
                    "time": 55.561192000000084,
                    "velocity": 0.15748031496062992,
                    "duration": 0.6039260000000013
                },
                {
                    "name": "A4",
                    "midi": 69,
                    "time": 55.561192000000084,
                    "velocity": 0.1889763779527559,
                    "duration": 0.6039260000000013
                },
                {
                    "name": "A4",
                    "midi": 69,
                    "time": 57.37297000000009,
                    "velocity": 0.1889763779527559,
                    "duration": 1.5098150000000032
                },
                {
                    "name": "D#4",
                    "midi": 63,
                    "time": 57.37297000000009,
                    "velocity": 0.15748031496062992,
                    "duration": 1.5098150000000032
                },
                {
                    "name": "C4",
                    "midi": 60,
                    "time": 57.37297000000009,
                    "velocity": 0.15748031496062992,
                    "duration": 1.5098150000000032
                },
                {
                    "name": "F#4",
                    "midi": 66,
                    "time": 59.03376650000009,
                    "velocity": 0.1732283464566929,
                    "duration": 0.15098150000000032
                },
                {
                    "name": "D4",
                    "midi": 62,
                    "time": 59.03376650000009,
                    "velocity": 0.14173228346456693,
                    "duration": 0.15098150000000032
                },
                {
                    "name": "A3",
                    "midi": 57,
                    "time": 59.03376650000009,
                    "velocity": 0.14173228346456693,
                    "duration": 0.15098150000000032
                },
                {
                    "name": "F#4",
                    "midi": 66,
                    "time": 59.18474800000009,
                    "velocity": 0.1732283464566929,
                    "duration": 1.2078520000000026
                },
                {
                    "name": "D4",
                    "midi": 62,
                    "time": 59.18474800000009,
                    "velocity": 0.14173228346456693,
                    "duration": 1.8117780000000039
                },
                {
                    "name": "A3",
                    "midi": 57,
                    "time": 59.18474800000009,
                    "velocity": 0.14173228346456693,
                    "duration": 1.2078520000000026
                },
                {
                    "name": "G3",
                    "midi": 55,
                    "time": 60.392600000000094,
                    "velocity": 0.12598425196850394,
                    "duration": 0.6039260000000013
                },
                {
                    "name": "G4",
                    "midi": 67,
                    "time": 60.392600000000094,
                    "velocity": 0.14960629921259844,
                    "duration": 0.6039260000000013
                },
                {
                    "name": "C4",
                    "midi": 60,
                    "time": 62.2043780000001,
                    "velocity": 0.12598425196850394,
                    "duration": 1.8117779999999968
                },
                {
                    "name": "G3",
                    "midi": 55,
                    "time": 62.2043780000001,
                    "velocity": 0.12598425196850394,
                    "duration": 1.8117779999999968
                },
                {
                    "name": "E4",
                    "midi": 64,
                    "time": 62.2043780000001,
                    "velocity": 0.15748031496062992,
                    "duration": 1.8117779999999968
                },
                {
                    "name": "D4",
                    "midi": 62,
                    "time": 64.6200820000001,
                    "velocity": 0.14960629921259844,
                    "duration": 1.8117780000000039
                },
                {
                    "name": "A3",
                    "midi": 57,
                    "time": 64.6200820000001,
                    "velocity": 0.11811023622047244,
                    "duration": 1.8117780000000039
                },
                {
                    "name": "F#3",
                    "midi": 54,
                    "time": 64.6200820000001,
                    "velocity": 0.11023622047244094,
                    "duration": 1.8117780000000039
                },
                {
                    "name": "G3",
                    "midi": 55,
                    "time": 66.4318600000001,
                    "velocity": 0.11023622047244094,
                    "duration": 2.415704000000005
                },
                {
                    "name": "D4",
                    "midi": 62,
                    "time": 66.4318600000001,
                    "velocity": 0.14960629921259844,
                    "duration": 2.415704000000005
                }
            ],
            "controlChanges": {
                "7": [
                    {
                        "number": 7,
                        "time": 0,
                        "value": 0.7874015748031497
                    }
                ],
                "10": [
                    {
                        "number": 10,
                        "time": 0,
                        "value": 0.5039370078740157
                    }
                ],
                "91": [
                    {
                        "number": 91,
                        "time": 0,
                        "value": 1
                    },
                    {
                        "number": 91,
                        "time": 37.44341200000005,
                        "value": 1
                    }
                ]
            },
            "id": 1,
            "name": "Piano right",
            "instrumentNumber": 0,
            "instrument": "acoustic grand piano",
            "instrumentFamily": "piano",
            "channelNumber": 0,
            "isPercussion": false
        },
        {
            "startTime": 0.0012581791666666665,
            "duration": 68.847564,
            "length": 87,
            "notes": [
                {
                    "name": "C3",
                    "midi": 48,
                    "time": 0.0012581791666666665,
                    "velocity": 0.2755905511811024,
                    "duration": 1.2078519999999997
                },
                {
                    "name": "A3",
                    "midi": 57,
                    "time": 0.0012581791666666665,
                    "velocity": 0.2755905511811024,
                    "duration": 1.2078519999999997
                },
                {
                    "name": "B2",
                    "midi": 47,
                    "time": 1.2078519999999997,
                    "velocity": 0.28346456692913385,
                    "duration": 1.2078519999999997
                },
                {
                    "name": "G3",
                    "midi": 55,
                    "time": 1.2078519999999997,
                    "velocity": 0.28346456692913385,
                    "duration": 1.2078519999999997
                },
                {
                    "name": "F#3",
                    "midi": 54,
                    "time": 2.4157039999999994,
                    "velocity": 0.33070866141732286,
                    "duration": 1.8117779999999999
                },
                {
                    "name": "A2",
                    "midi": 45,
                    "time": 2.4157039999999994,
                    "velocity": 0.33070866141732286,
                    "duration": 1.8117779999999999
                },
                {
                    "name": "G3",
                    "midi": 55,
                    "time": 4.227481999999999,
                    "velocity": 0.23622047244094488,
                    "duration": 0.6039260000000004
                },
                {
                    "name": "B2",
                    "midi": 47,
                    "time": 4.227481999999999,
                    "velocity": 0.23622047244094488,
                    "duration": 0.6039260000000004
                },
                {
                    "name": "G3",
                    "midi": 55,
                    "time": 4.831408,
                    "velocity": 0.2440944881889764,
                    "duration": 1.207852
                },
                {
                    "name": "C3",
                    "midi": 48,
                    "time": 4.831408,
                    "velocity": 0.2440944881889764,
                    "duration": 1.207852
                },
                {
                    "name": "C#3",
                    "midi": 49,
                    "time": 6.03926,
                    "velocity": 0.1889763779527559,
                    "duration": 1.207852
                },
                {
                    "name": "G3",
                    "midi": 55,
                    "time": 6.03926,
                    "velocity": 0.1889763779527559,
                    "duration": 1.207852
                },
                {
                    "name": "G3",
                    "midi": 55,
                    "time": 7.2471119999999996,
                    "velocity": 0.2125984251968504,
                    "duration": 1.207851999999999
                },
                {
                    "name": "D3",
                    "midi": 50,
                    "time": 7.2471119999999996,
                    "velocity": 0.2125984251968504,
                    "duration": 2.415703999999998
                },
                {
                    "name": "F#3",
                    "midi": 54,
                    "time": 8.454963999999999,
                    "velocity": 0.1889763779527559,
                    "duration": 1.207851999999999
                },
                {
                    "name": "B3",
                    "midi": 59,
                    "time": 9.662815999999998,
                    "velocity": 0.2755905511811024,
                    "duration": 1.2078520000000008
                },
                {
                    "name": "D3",
                    "midi": 50,
                    "time": 9.662815999999998,
                    "velocity": 0.2755905511811024,
                    "duration": 1.2078520000000008
                },
                {
                    "name": "A3",
                    "midi": 57,
                    "time": 10.870667999999998,
                    "velocity": 0.2992125984251969,
                    "duration": 1.2078520000000008
                },
                {
                    "name": "C3",
                    "midi": 48,
                    "time": 10.870667999999998,
                    "velocity": 0.2992125984251969,
                    "duration": 1.2078520000000008
                },
                {
                    "name": "G#3",
                    "midi": 56,
                    "time": 12.07852,
                    "velocity": 0.33070866141732286,
                    "duration": 0.7549075000000016
                },
                {
                    "name": "B2",
                    "midi": 47,
                    "time": 12.07852,
                    "velocity": 0.33070866141732286,
                    "duration": 1.2078520000000026
                },
                {
                    "name": "A3",
                    "midi": 57,
                    "time": 12.8334275,
                    "velocity": 0.31496062992125984,
                    "duration": 0.11323612500000024
                },
                {
                    "name": "G#3",
                    "midi": 56,
                    "time": 12.946663625000001,
                    "velocity": 0.31496062992125984,
                    "duration": 0.11323612500000024
                },
                {
                    "name": "G3",
                    "midi": 55,
                    "time": 13.059899750000001,
                    "velocity": 0.31496062992125984,
                    "duration": 0.11323612500000024
                },
                {
                    "name": "G#3",
                    "midi": 56,
                    "time": 13.173135875000002,
                    "velocity": 0.31496062992125984,
                    "duration": 0.11323612500000024
                },
                {
                    "name": "C3",
                    "midi": 48,
                    "time": 13.286372000000002,
                    "velocity": 0.3464566929133858,
                    "duration": 1.2078520000000008
                },
                {
                    "name": "D3",
                    "midi": 50,
                    "time": 15.098150000000002,
                    "velocity": 0.2440944881889764,
                    "duration": 1.5098150000000015
                },
                {
                    "name": "E3",
                    "midi": 52,
                    "time": 16.758946500000004,
                    "velocity": 0.2283464566929134,
                    "duration": 0.15098150000000032
                },
                {
                    "name": "E3",
                    "midi": 52,
                    "time": 16.909928000000004,
                    "velocity": 0.2283464566929134,
                    "duration": 1.207851999999999
                },
                {
                    "name": "A2",
                    "midi": 45,
                    "time": 18.117780000000003,
                    "velocity": 0.2204724409448819,
                    "duration": 0.6039260000000013
                },
                {
                    "name": "C3",
                    "midi": 48,
                    "time": 19.325632000000006,
                    "velocity": 0.25196850393700787,
                    "duration": 1.2078520000000026
                },
                {
                    "name": "A3",
                    "midi": 57,
                    "time": 19.929558000000007,
                    "velocity": 0.2283464566929134,
                    "duration": 0.30196300000000065
                },
                {
                    "name": "D3",
                    "midi": 50,
                    "time": 20.231521000000008,
                    "velocity": 0.2283464566929134,
                    "duration": 0.30196300000000065
                },
                {
                    "name": "B2",
                    "midi": 47,
                    "time": 20.53348400000001,
                    "velocity": 0.25984251968503935,
                    "duration": 1.207851999999999
                },
                {
                    "name": "G3",
                    "midi": 55,
                    "time": 21.137410000000006,
                    "velocity": 0.2283464566929134,
                    "duration": 0.30196300000000065
                },
                {
                    "name": "D3",
                    "midi": 50,
                    "time": 21.439373000000007,
                    "velocity": 0.2283464566929134,
                    "duration": 0.30196300000000065
                },
                {
                    "name": "A2",
                    "midi": 45,
                    "time": 21.741336000000008,
                    "velocity": 0.28346456692913385,
                    "duration": 2.415703999999998
                },
                {
                    "name": "F#3",
                    "midi": 54,
                    "time": 22.345262000000005,
                    "velocity": 0.1889763779527559,
                    "duration": 1.8117780000000003
                },
                {
                    "name": "C3",
                    "midi": 48,
                    "time": 22.647225000000006,
                    "velocity": 0.15748031496062992,
                    "duration": 1.5098149999999997
                },
                {
                    "name": "A2",
                    "midi": 45,
                    "time": 24.157040000000006,
                    "velocity": 0.2440944881889764,
                    "duration": 1.207851999999999
                },
                {
                    "name": "F#3",
                    "midi": 54,
                    "time": 24.760966000000003,
                    "velocity": 0.2204724409448819,
                    "duration": 0.30196300000000065
                },
                {
                    "name": "C3",
                    "midi": 48,
                    "time": 25.062929000000004,
                    "velocity": 0.2204724409448819,
                    "duration": 0.30196300000000065
                },
                {
                    "name": "G2",
                    "midi": 43,
                    "time": 25.364892000000005,
                    "velocity": 0.25196850393700787,
                    "duration": 1.207851999999999
                },
                {
                    "name": "E3",
                    "midi": 52,
                    "time": 25.968818000000002,
                    "velocity": 0.2204724409448819,
                    "duration": 0.30196300000000065
                },
                {
                    "name": "B2",
                    "midi": 47,
                    "time": 26.270781000000003,
                    "velocity": 0.2204724409448819,
                    "duration": 0.30196300000000065
                },
                {
                    "name": "F#2",
                    "midi": 42,
                    "time": 26.572744000000004,
                    "velocity": 0.25196850393700787,
                    "duration": 1.8117779999999968
                },
                {
                    "name": "D#3",
                    "midi": 51,
                    "time": 27.17667,
                    "velocity": 0.1732283464566929,
                    "duration": 1.207851999999999
                },
                {
                    "name": "A2",
                    "midi": 45,
                    "time": 27.478633000000002,
                    "velocity": 0.14960629921259844,
                    "duration": 0.9058889999999984
                },
                {
                    "name": "C3",
                    "midi": 48,
                    "time": 37.44467017916667,
                    "velocity": 0.28346456692913385,
                    "duration": 1.2078520000000026
                },
                {
                    "name": "A3",
                    "midi": 57,
                    "time": 37.44467017916667,
                    "velocity": 0.28346456692913385,
                    "duration": 1.2078520000000026
                },
                {
                    "name": "G3",
                    "midi": 55,
                    "time": 38.651264000000005,
                    "velocity": 0.28346456692913385,
                    "duration": 1.2078519999999955
                },
                {
                    "name": "B2",
                    "midi": 47,
                    "time": 38.651264000000005,
                    "velocity": 0.28346456692913385,
                    "duration": 1.2078519999999955
                },
                {
                    "name": "A2",
                    "midi": 45,
                    "time": 39.859116,
                    "velocity": 0.3779527559055118,
                    "duration": 1.8117780000000039
                },
                {
                    "name": "F#3",
                    "midi": 54,
                    "time": 39.859116,
                    "velocity": 0.3779527559055118,
                    "duration": 1.8117780000000039
                },
                {
                    "name": "G3",
                    "midi": 55,
                    "time": 41.670894000000004,
                    "velocity": 0.30708661417322836,
                    "duration": 0.6039259999999942
                },
                {
                    "name": "B2",
                    "midi": 47,
                    "time": 41.670894000000004,
                    "velocity": 0.30708661417322836,
                    "duration": 0.6039259999999942
                },
                {
                    "name": "G3",
                    "midi": 55,
                    "time": 42.27482,
                    "velocity": 0.31496062992125984,
                    "duration": 1.2078519999999955
                },
                {
                    "name": "C3",
                    "midi": 48,
                    "time": 42.27482,
                    "velocity": 0.31496062992125984,
                    "duration": 1.2078519999999955
                },
                {
                    "name": "G3",
                    "midi": 55,
                    "time": 43.482671999999994,
                    "velocity": 0.2440944881889764,
                    "duration": 1.2078520000000026
                },
                {
                    "name": "C#3",
                    "midi": 49,
                    "time": 43.482671999999994,
                    "velocity": 0.2440944881889764,
                    "duration": 1.2078520000000026
                },
                {
                    "name": "G3",
                    "midi": 55,
                    "time": 44.690523999999996,
                    "velocity": 0.18110236220472442,
                    "duration": 1.2078519999999955
                },
                {
                    "name": "D3",
                    "midi": 50,
                    "time": 44.690523999999996,
                    "velocity": 0.18110236220472442,
                    "duration": 2.415703999999991
                },
                {
                    "name": "F#3",
                    "midi": 54,
                    "time": 45.89837599999999,
                    "velocity": 0.16535433070866143,
                    "duration": 1.2078519999999955
                },
                {
                    "name": "B3",
                    "midi": 59,
                    "time": 47.10622799999999,
                    "velocity": 0.2440944881889764,
                    "duration": 1.2078520000000026
                },
                {
                    "name": "D3",
                    "midi": 50,
                    "time": 47.10622799999999,
                    "velocity": 0.2440944881889764,
                    "duration": 1.2078520000000026
                },
                {
                    "name": "C3",
                    "midi": 48,
                    "time": 48.31407999999999,
                    "velocity": 0.2755905511811024,
                    "duration": 1.2078520000000026
                },
                {
                    "name": "A3",
                    "midi": 57,
                    "time": 48.31407999999999,
                    "velocity": 0.2755905511811024,
                    "duration": 1.2078520000000026
                },
                {
                    "name": "G#3",
                    "midi": 56,
                    "time": 49.52193199999999,
                    "velocity": 0.31496062992125984,
                    "duration": 0.7549075000000016
                },
                {
                    "name": "B2",
                    "midi": 47,
                    "time": 49.52193199999999,
                    "velocity": 0.31496062992125984,
                    "duration": 1.2078520000000026
                },
                {
                    "name": "A3",
                    "midi": 57,
                    "time": 50.276839499999994,
                    "velocity": 0.30708661417322836,
                    "duration": 0.11323612500000024
                },
                {
                    "name": "G#3",
                    "midi": 56,
                    "time": 50.390075624999994,
                    "velocity": 0.31496062992125984,
                    "duration": 0.11323612500000024
                },
                {
                    "name": "G3",
                    "midi": 55,
                    "time": 50.503311749999995,
                    "velocity": 0.33070866141732286,
                    "duration": 0.11323612500000024
                },
                {
                    "name": "G#3",
                    "midi": 56,
                    "time": 50.616547874999995,
                    "velocity": 0.33070866141732286,
                    "duration": 0.11323612500000024
                },
                {
                    "name": "C3",
                    "midi": 48,
                    "time": 50.729783999999995,
                    "velocity": 0.3543307086614173,
                    "duration": 1.2078520000000026
                },
                {
                    "name": "D3",
                    "midi": 50,
                    "time": 52.541562,
                    "velocity": 0.1732283464566929,
                    "duration": 1.5098149999999961
                },
                {
                    "name": "E3",
                    "midi": 52,
                    "time": 54.202358499999995,
                    "velocity": 0.15748031496062992,
                    "duration": 0.15098150000000032
                },
                {
                    "name": "E3",
                    "midi": 52,
                    "time": 54.353339999999996,
                    "velocity": 0.15748031496062992,
                    "duration": 1.2078520000000026
                },
                {
                    "name": "A2",
                    "midi": 45,
                    "time": 55.561192,
                    "velocity": 0.14173228346456693,
                    "duration": 0.6039259999999942
                },
                {
                    "name": "C3",
                    "midi": 48,
                    "time": 57.372969999999995,
                    "velocity": 0.14960629921259844,
                    "duration": 1.5098150000000032
                },
                {
                    "name": "D3",
                    "midi": 50,
                    "time": 59.0337665,
                    "velocity": 0.13385826771653545,
                    "duration": 0.15098150000000032
                },
                {
                    "name": "D3",
                    "midi": 50,
                    "time": 59.184748,
                    "velocity": 0.13385826771653545,
                    "duration": 1.2078520000000026
                },
                {
                    "name": "B2",
                    "midi": 47,
                    "time": 60.3926,
                    "velocity": 0.12598425196850394,
                    "duration": 0.6039260000000013
                },
                {
                    "name": "C3",
                    "midi": 48,
                    "time": 62.204378000000005,
                    "velocity": 0.12598425196850394,
                    "duration": 1.8117780000000039
                },
                {
                    "name": "D2",
                    "midi": 38,
                    "time": 64.62008200000001,
                    "velocity": 0.11023622047244094,
                    "duration": 1.8117780000000039
                },
                {
                    "name": "C3",
                    "midi": 48,
                    "time": 64.62008200000001,
                    "velocity": 0.11023622047244094,
                    "duration": 1.8117780000000039
                },
                {
                    "name": "B2",
                    "midi": 47,
                    "time": 66.43186000000001,
                    "velocity": 0.09448818897637795,
                    "duration": 2.415703999999991
                },
                {
                    "name": "G1",
                    "midi": 31,
                    "time": 66.43186000000001,
                    "velocity": 0.09448818897637795,
                    "duration": 2.415703999999991
                }
            ],
            "controlChanges": {
                "7": [
                    {
                        "number": 7,
                        "time": 0,
                        "value": 0.7874015748031497
                    }
                ],
                "10": [
                    {
                        "number": 10,
                        "time": 0,
                        "value": 0.5039370078740157
                    }
                ],
                "64": [
                    {
                        "number": 64,
                        "time": 0,
                        "value": 1
                    },
                    {
                        "number": 64,
                        "time": 1.229241045833333,
                        "value": 0
                    },
                    {
                        "number": 64,
                        "time": 1.6104693333333329,
                        "value": 1
                    },
                    {
                        "number": 64,
                        "time": 2.4207367166666662,
                        "value": 0
                    },
                    {
                        "number": 64,
                        "time": 2.952946504166666,
                        "value": 1
                    },
                    {
                        "number": 64,
                        "time": 4.237547433333333,
                        "value": 0
                    },
                    {
                        "number": 64,
                        "time": 4.973582245833333,
                        "value": 1
                    },
                    {
                        "number": 64,
                        "time": 6.0505836125,
                        "value": 0
                    },
                    {
                        "number": 64,
                        "time": 6.155012483333333,
                        "value": 1
                    },
                    {
                        "number": 64,
                        "time": 7.254661075,
                        "value": 0
                    },
                    {
                        "number": 64,
                        "time": 7.549074999999999,
                        "value": 1
                    },
                    {
                        "number": 64,
                        "time": 8.471320329166666,
                        "value": 0
                    },
                    {
                        "number": 64,
                        "time": 9.092860837499998,
                        "value": 1
                    },
                    {
                        "number": 64,
                        "time": 9.662815999999998,
                        "value": 0
                    },
                    {
                        "number": 64,
                        "time": 9.989942583333331,
                        "value": 1
                    },
                    {
                        "number": 64,
                        "time": 10.875700716666666,
                        "value": 0
                    },
                    {
                        "number": 64,
                        "time": 11.3273870375,
                        "value": 1
                    },
                    {
                        "number": 64,
                        "time": 12.086069075,
                        "value": 0
                    },
                    {
                        "number": 64,
                        "time": 12.215661529166667,
                        "value": 1
                    },
                    {
                        "number": 64,
                        "time": 13.290146537500002,
                        "value": 0
                    },
                    {
                        "number": 64,
                        "time": 13.452451650000002,
                        "value": 1
                    },
                    {
                        "number": 64,
                        "time": 14.494224000000003,
                        "value": 0
                    },
                    {
                        "number": 64,
                        "time": 15.15602624166667,
                        "value": 1
                    },
                    {
                        "number": 64,
                        "time": 16.565186908333338,
                        "value": 0
                    },
                    {
                        "number": 64,
                        "time": 16.751397425000004,
                        "value": 1
                    },
                    {
                        "number": 64,
                        "time": 18.142943583333338,
                        "value": 0
                    },
                    {
                        "number": 64,
                        "time": 19.325632000000006,
                        "value": 1
                    },
                    {
                        "number": 64,
                        "time": 20.546065791666674,
                        "value": 0
                    },
                    {
                        "number": 64,
                        "time": 20.764988966666674,
                        "value": 1
                    },
                    {
                        "number": 64,
                        "time": 21.750143254166673,
                        "value": 0
                    },
                    {
                        "number": 64,
                        "time": 21.98542275833334,
                        "value": 1
                    },
                    {
                        "number": 64,
                        "time": 24.157040000000006,
                        "value": 0
                    },
                    {
                        "number": 64,
                        "time": 24.38854496666667,
                        "value": 1
                    },
                    {
                        "number": 64,
                        "time": 25.372441075000005,
                        "value": 0
                    },
                    {
                        "number": 64,
                        "time": 25.57752427916667,
                        "value": 1
                    },
                    {
                        "number": 64,
                        "time": 26.572744000000004,
                        "value": 0
                    },
                    {
                        "number": 64,
                        "time": 26.70611099166667,
                        "value": 1
                    },
                    {
                        "number": 64,
                        "time": 28.3882965375,
                        "value": 0
                    },
                    {
                        "number": 64,
                        "time": 29.696802870833334,
                        "value": 1
                    },
                    {
                        "number": 64,
                        "time": 30.825389583333333,
                        "value": 0
                    },
                    {
                        "number": 64,
                        "time": 30.893331258333333,
                        "value": 1
                    },
                    {
                        "number": 64,
                        "time": 31.428057404166665,
                        "value": 0
                    },
                    {
                        "number": 64,
                        "time": 31.51612994583333,
                        "value": 1
                    },
                    {
                        "number": 64,
                        "time": 32.01059435833333,
                        "value": 0
                    },
                    {
                        "number": 64,
                        "time": 32.04456519583333,
                        "value": 1
                    },
                    {
                        "number": 64,
                        "time": 32.61200399999999,
                        "value": 0
                    },
                    {
                        "number": 64,
                        "time": 32.70510925833332,
                        "value": 1
                    },
                    {
                        "number": 64,
                        "time": 33.21970453749999,
                        "value": 0
                    },
                    {
                        "number": 64,
                        "time": 33.31406797499999,
                        "value": 1
                    },
                    {
                        "number": 64,
                        "time": 33.831179612499994,
                        "value": 0
                    },
                    {
                        "number": 64,
                        "time": 33.956997529166664,
                        "value": 1
                    },
                    {
                        "number": 64,
                        "time": 35.027708,
                        "value": 0
                    },
                    {
                        "number": 64,
                        "time": 35.12081325833333,
                        "value": 1
                    },
                    {
                        "number": 64,
                        "time": 35.65302304583333,
                        "value": 0
                    },
                    {
                        "number": 64,
                        "time": 35.75367737916666,
                        "value": 1
                    },
                    {
                        "number": 64,
                        "time": 36.24310907499999,
                        "value": 0
                    },
                    {
                        "number": 64,
                        "time": 36.31985800416666,
                        "value": 1
                    },
                    {
                        "number": 64,
                        "time": 36.84955143333333,
                        "value": 0
                    },
                    {
                        "number": 64,
                        "time": 36.9338494375,
                        "value": 1
                    },
                    {
                        "number": 64,
                        "time": 37.443412,
                        "value": 0
                    },
                    {
                        "number": 64,
                        "time": 37.88000017083334,
                        "value": 1
                    },
                    {
                        "number": 64,
                        "time": 38.673911225000005,
                        "value": 0
                    },
                    {
                        "number": 64,
                        "time": 39.01991049583334,
                        "value": 1
                    },
                    {
                        "number": 64,
                        "time": 39.8628905375,
                        "value": 0
                    },
                    {
                        "number": 64,
                        "time": 40.36238766666667,
                        "value": 1
                    },
                    {
                        "number": 64,
                        "time": 41.692283045833335,
                        "value": 0
                    },
                    {
                        "number": 64,
                        "time": 42.46606323333333,
                        "value": 1
                    },
                    {
                        "number": 64,
                        "time": 43.49525379166666,
                        "value": 0
                    },
                    {
                        "number": 64,
                        "time": 43.74059872916666,
                        "value": 1
                    },
                    {
                        "number": 64,
                        "time": 44.690523999999996,
                        "value": 0
                    },
                    {
                        "number": 64,
                        "time": 45.12711217083333,
                        "value": 1
                    },
                    {
                        "number": 64,
                        "time": 45.92353958333332,
                        "value": 0
                    },
                    {
                        "number": 64,
                        "time": 46.435618504166655,
                        "value": 1
                    },
                    {
                        "number": 64,
                        "time": 47.10622799999999,
                        "value": 0
                    },
                    {
                        "number": 64,
                        "time": 47.46606724166666,
                        "value": 1
                    },
                    {
                        "number": 64,
                        "time": 48.32414543333332,
                        "value": 0
                    },
                    {
                        "number": 64,
                        "time": 48.77079903749999,
                        "value": 1
                    },
                    {
                        "number": 64,
                        "time": 49.52193199999999,
                        "value": 0
                    },
                    {
                        "number": 64,
                        "time": 49.73456427916666,
                        "value": 1
                    },
                    {
                        "number": 64,
                        "time": 50.739849433333326,
                        "value": 0
                    },
                    {
                        "number": 64,
                        "time": 50.960030787499996,
                        "value": 1
                    },
                    {
                        "number": 64,
                        "time": 51.937636,
                        "value": 0
                    },
                    {
                        "number": 64,
                        "time": 52.56295104583333,
                        "value": 1
                    },
                    {
                        "number": 64,
                        "time": 53.964562637499995,
                        "value": 0
                    },
                    {
                        "number": 64,
                        "time": 54.152031333333326,
                        "value": 1
                    },
                    {
                        "number": 64,
                        "time": 55.58258104583333,
                        "value": 0
                    },
                    {
                        "number": 64,
                        "time": 57.381777254166664,
                        "value": 1
                    },
                    {
                        "number": 64,
                        "time": 58.58962925416667,
                        "value": 0
                    },
                    {
                        "number": 64,
                        "time": 58.92682127083333,
                        "value": 1
                    },
                    {
                        "number": 64,
                        "time": 60.4190217625,
                        "value": 0
                    },
                    {
                        "number": 64,
                        "time": 62.33900317083334,
                        "value": 1
                    },
                    {
                        "number": 64,
                        "time": 64.01615600000001,
                        "value": 0
                    },
                    {
                        "number": 64,
                        "time": 64.68676549583334,
                        "value": 1
                    },
                    {
                        "number": 64,
                        "time": 66.44444179166668,
                        "value": 0
                    },
                    {
                        "number": 64,
                        "time": 67.13644033333334,
                        "value": 1
                    },
                    {
                        "number": 64,
                        "time": 70.92859234166667,
                        "value": 0
                    }
                ],
                "91": [
                    {
                        "number": 91,
                        "time": 0,
                        "value": 1
                    },
                    {
                        "number": 91,
                        "time": 37.443412,
                        "value": 1
                    }
                ]
            },
            "id": 2,
            "name": "Piano left",
            "instrumentNumber": 0,
            "instrument": "acoustic grand piano",
            "instrumentFamily": "piano",
            "channelNumber": 0,
            "isPercussion": false
        },
        {
            "startTime": 0,
            "duration": 0,
            "length": 0,
            "notes": [],
            "controlChanges": {},
            "id": 3,
            "name": "Schumann: Scenes from Childhood Op. 15"
        },
        {
            "startTime": 0,
            "duration": 0,
            "length": 0,
            "notes": [],
            "controlChanges": {},
            "id": 4,
            "name": "Copyright  1997 by Bernd Krueger"
        },
        {
            "startTime": 0,
            "duration": 0,
            "length": 0,
            "notes": [],
            "controlChanges": {},
            "id": 5,
            "name": "http://www.piano-midi.de"
        },
        {
            "startTime": 0,
            "duration": 0,
            "length": 0,
            "notes": [],
            "controlChanges": {},
            "id": 6,
            "name": "Edition: 2014-03-26"
        }
    ]
}