{
    "header": {
        "PPQ": 480,
        "timeSignature": [
            3,
            4
        ],
        "bpm": 243.9996421338582,
        "name": "Ritter vom Steckenpferd"
    },
    "startTime": 0,
    "duration": 35.409887999999995,
    "tracks": [
        {
            "startTime": 0,
            "duration": 0,
            "length": 0,
            "notes": [],
            "controlChanges": {},
            "id": 0,
            "name": "Ritter vom Steckenpferd"
        },
        {
            "startTime": 0.122951,
            "duration": 35.40988799999992,
            "length": 366,
            "notes": [
                {
                    "name": "G5",
                    "midi": 79,
                    "time": 0.122951,
                    "velocity": 0.44881889763779526,
                    "duration": 0.24334052083333338
                },
                {
                    "name": "C5",
                    "midi": 72,
                    "time": 0.122951,
                    "velocity": 0.44881889763779526,
                    "duration": 0.24334052083333338
                },
                {
                    "name": "G5",
                    "midi": 79,
                    "time": 0.36885300000000004,
                    "velocity": 0.44881889763779526,
                    "duration": 0.12192640833333335
                },
                {
                    "name": "C5",
                    "midi": 72,
                    "time": 0.36885300000000004,
                    "velocity": 0.44881889763779526,
                    "duration": 0.12192640833333335
                },
                {
                    "name": "C5",
                    "midi": 72,
                    "time": 0.4918040000000001,
                    "velocity": 0.5511811023622047,
                    "duration": 0.2433405208333333
                },
                {
                    "name": "A5",
                    "midi": 81,
                    "time": 0.4918040000000001,
                    "velocity": 0.5511811023622047,
                    "duration": 0.2433405208333333
                },
                {
                    "name": "G5",
                    "midi": 79,
                    "time": 0.860657,
                    "velocity": 0.44881889763779526,
                    "duration": 0.24334052083333346
                },
                {
                    "name": "C5",
                    "midi": 72,
                    "time": 0.860657,
                    "velocity": 0.44881889763779526,
                    "duration": 0.24334052083333346
                },
                {
                    "name": "G5",
                    "midi": 79,
                    "time": 1.106559,
                    "velocity": 0.44881889763779526,
                    "duration": 0.12192640833333335
                },
                {
                    "name": "C5",
                    "midi": 72,
                    "time": 1.106559,
                    "velocity": 0.44881889763779526,
                    "duration": 0.12192640833333335
                },
                {
                    "name": "E5",
                    "midi": 76,
                    "time": 1.22951,
                    "velocity": 0.5354330708661418,
                    "duration": 0.24334052083333346
                },
                {
                    "name": "C5",
                    "midi": 72,
                    "time": 1.22951,
                    "velocity": 0.5354330708661418,
                    "duration": 0.24334052083333346
                },
                {
                    "name": "F5",
                    "midi": 77,
                    "time": 1.5983630000000002,
                    "velocity": 0.4251968503937008,
                    "duration": 0.24334052083333346
                },
                {
                    "name": "C5",
                    "midi": 72,
                    "time": 1.5983630000000002,
                    "velocity": 0.4251968503937008,
                    "duration": 0.24334052083333346
                },
                {
                    "name": "C5",
                    "midi": 72,
                    "time": 1.8442650000000003,
                    "velocity": 0.4251968503937008,
                    "duration": 0.12192640833333335
                },
                {
                    "name": "F5",
                    "midi": 77,
                    "time": 1.8442650000000003,
                    "velocity": 0.4251968503937008,
                    "duration": 0.12192640833333335
                },
                {
                    "name": "D5",
                    "midi": 74,
                    "time": 1.9672160000000003,
                    "velocity": 0.5118110236220472,
                    "duration": 0.24334052083333346
                },
                {
                    "name": "G5",
                    "midi": 79,
                    "time": 1.9672160000000003,
                    "velocity": 0.5118110236220472,
                    "duration": 0.24334052083333346
                },
                {
                    "name": "E5",
                    "midi": 76,
                    "time": 2.3360690000000006,
                    "velocity": 0.4015748031496063,
                    "duration": 0.24334052083333324
                },
                {
                    "name": "C5",
                    "midi": 72,
                    "time": 2.3360690000000006,
                    "velocity": 0.4015748031496063,
                    "duration": 0.24334052083333324
                },
                {
                    "name": "C5",
                    "midi": 72,
                    "time": 2.5819710000000007,
                    "velocity": 0.4015748031496063,
                    "duration": 0.12192640833333313
                },
                {
                    "name": "E5",
                    "midi": 76,
                    "time": 2.5819710000000007,
                    "velocity": 0.4015748031496063,
                    "duration": 0.12192640833333313
                },
                {
                    "name": "G4",
                    "midi": 67,
                    "time": 2.7049220000000003,
                    "velocity": 0.47244094488188976,
                    "duration": 0.24334052083333324
                },
                {
                    "name": "C5",
                    "midi": 72,
                    "time": 2.7049220000000003,
                    "velocity": 0.47244094488188976,
                    "duration": 0.24334052083333324
                },
                {
                    "name": "G4",
                    "midi": 67,
                    "time": 3.0737750000000004,
                    "velocity": 0.3543307086614173,
                    "duration": 0.24334052083333324
                },
                {
                    "name": "C5",
                    "midi": 72,
                    "time": 3.0737750000000004,
                    "velocity": 0.3543307086614173,
                    "duration": 0.24334052083333324
                },
                {
                    "name": "G4",
                    "midi": 67,
                    "time": 3.3196770000000004,
                    "velocity": 0.3543307086614173,
                    "duration": 0.12192640833333357
                },
                {
                    "name": "C5",
                    "midi": 72,
                    "time": 3.3196770000000004,
                    "velocity": 0.3543307086614173,
                    "duration": 0.12192640833333357
                },
                {
                    "name": "C5",
                    "midi": 72,
                    "time": 3.4426280000000005,
                    "velocity": 0.4330708661417323,
                    "duration": 0.24334052083333324
                },
                {
                    "name": "A4",
                    "midi": 69,
                    "time": 3.4426280000000005,
                    "velocity": 0.4330708661417323,
                    "duration": 0.24334052083333324
                },
                {
                    "name": "C5",
                    "midi": 72,
                    "time": 3.8114810000000006,
                    "velocity": 0.3543307086614173,
                    "duration": 0.24334052083333368
                },
                {
                    "name": "G4",
                    "midi": 67,
                    "time": 3.8114810000000006,
                    "velocity": 0.3543307086614173,
                    "duration": 0.24334052083333368
                },
                {
                    "name": "C5",
                    "midi": 72,
                    "time": 4.057383000000001,
                    "velocity": 0.36220472440944884,
                    "duration": 0.12192640833333357
                },
                {
                    "name": "G4",
                    "midi": 67,
                    "time": 4.057383000000001,
                    "velocity": 0.36220472440944884,
                    "duration": 0.12192640833333357
                },
                {
                    "name": "C5",
                    "midi": 72,
                    "time": 4.180334000000001,
                    "velocity": 0.4251968503937008,
                    "duration": 0.24334052083333368
                },
                {
                    "name": "E4",
                    "midi": 64,
                    "time": 4.180334000000001,
                    "velocity": 0.4251968503937008,
                    "duration": 0.24334052083333368
                },
                {
                    "name": "F4",
                    "midi": 65,
                    "time": 4.549187000000002,
                    "velocity": 0.33858267716535434,
                    "duration": 0.24334052083333368
                },
                {
                    "name": "G4",
                    "midi": 67,
                    "time": 4.549187000000002,
                    "velocity": 0.33858267716535434,
                    "duration": 0.24334052083333368
                },
                {
                    "name": "G4",
                    "midi": 67,
                    "time": 4.795089000000002,
                    "velocity": 0.33858267716535434,
                    "duration": 0.12192640833333357
                },
                {
                    "name": "F4",
                    "midi": 65,
                    "time": 4.795089000000002,
                    "velocity": 0.33858267716535434,
                    "duration": 0.12192640833333357
                },
                {
                    "name": "G4",
                    "midi": 67,
                    "time": 4.918040000000002,
                    "velocity": 0.4566929133858268,
                    "duration": 0.24334052083333368
                },
                {
                    "name": "G4",
                    "midi": 67,
                    "time": 5.286893000000003,
                    "velocity": 0.2677165354330709,
                    "duration": 0.24334052083333368
                },
                {
                    "name": "E4",
                    "midi": 64,
                    "time": 5.286893000000003,
                    "velocity": 0.2677165354330709,
                    "duration": 0.24334052083333368
                },
                {
                    "name": "G4",
                    "midi": 67,
                    "time": 5.532795000000003,
                    "velocity": 0.2677165354330709,
                    "duration": 0.12192640833333357
                },
                {
                    "name": "E4",
                    "midi": 64,
                    "time": 5.532795000000003,
                    "velocity": 0.2677165354330709,
                    "duration": 0.12192640833333357
                },
                {
                    "name": "E4",
                    "midi": 64,
                    "time": 5.655746000000003,
                    "velocity": 0.3543307086614173,
                    "duration": 0.24334052083333368
                },
                {
                    "name": "G4",
                    "midi": 67,
                    "time": 5.655746000000003,
                    "velocity": 0.3543307086614173,
                    "duration": 0.24334052083333368
                },
                {
                    "name": "G5",
                    "midi": 79,
                    "time": 6.024599000000003,
                    "velocity": 0.44881889763779526,
                    "duration": 0.24334052083333368
                },
                {
                    "name": "C5",
                    "midi": 72,
                    "time": 6.024599000000003,
                    "velocity": 0.44881889763779526,
                    "duration": 0.24334052083333368
                },
                {
                    "name": "C5",
                    "midi": 72,
                    "time": 6.270501000000003,
                    "velocity": 0.44881889763779526,
                    "duration": 0.12192640833333357
                },
                {
                    "name": "G5",
                    "midi": 79,
                    "time": 6.270501000000003,
                    "velocity": 0.44881889763779526,
                    "duration": 0.12192640833333357
                },
                {
                    "name": "C5",
                    "midi": 72,
                    "time": 6.3934520000000035,
                    "velocity": 0.5511811023622047,
                    "duration": 0.24334052083333368
                },
                {
                    "name": "A5",
                    "midi": 81,
                    "time": 6.3934520000000035,
                    "velocity": 0.5511811023622047,
                    "duration": 0.24334052083333368
                },
                {
                    "name": "G5",
                    "midi": 79,
                    "time": 6.762305000000004,
                    "velocity": 0.44881889763779526,
                    "duration": 0.24334052083333368
                },
                {
                    "name": "C5",
                    "midi": 72,
                    "time": 6.762305000000004,
                    "velocity": 0.44881889763779526,
                    "duration": 0.24334052083333368
                },
                {
                    "name": "C5",
                    "midi": 72,
                    "time": 7.008207000000004,
                    "velocity": 0.44881889763779526,
                    "duration": 0.12192640833333357
                },
                {
                    "name": "G5",
                    "midi": 79,
                    "time": 7.008207000000004,
                    "velocity": 0.44881889763779526,
                    "duration": 0.12192640833333357
                },
                {
                    "name": "C5",
                    "midi": 72,
                    "time": 7.1311580000000045,
                    "velocity": 0.5354330708661418,
                    "duration": 0.24334052083333368
                },
                {
                    "name": "E5",
                    "midi": 76,
                    "time": 7.1311580000000045,
                    "velocity": 0.5354330708661418,
                    "duration": 0.24334052083333368
                },
                {
                    "name": "C5",
                    "midi": 72,
                    "time": 7.500011000000005,
                    "velocity": 0.4251968503937008,
                    "duration": 0.24334052083333368
                },
                {
                    "name": "F5",
                    "midi": 77,
                    "time": 7.500011000000005,
                    "velocity": 0.4251968503937008,
                    "duration": 0.24334052083333368
                },
                {
                    "name": "C5",
                    "midi": 72,
                    "time": 7.745913000000005,
                    "velocity": 0.4251968503937008,
                    "duration": 0.12192640833333357
                },
                {
                    "name": "F5",
                    "midi": 77,
                    "time": 7.745913000000005,
                    "velocity": 0.4251968503937008,
                    "duration": 0.12192640833333357
                },
                {
                    "name": "D5",
                    "midi": 74,
                    "time": 7.868864000000006,
                    "velocity": 0.5275590551181102,
                    "duration": 0.24334052083333368
                },
                {
                    "name": "G5",
                    "midi": 79,
                    "time": 7.868864000000006,
                    "velocity": 0.5275590551181102,
                    "duration": 0.24334052083333368
                },
                {
                    "name": "C5",
                    "midi": 72,
                    "time": 8.237717000000005,
                    "velocity": 0.4015748031496063,
                    "duration": 0.24334052083333368
                },
                {
                    "name": "E5",
                    "midi": 76,
                    "time": 8.237717000000005,
                    "velocity": 0.4015748031496063,
                    "duration": 0.24334052083333368
                },
                {
                    "name": "C5",
                    "midi": 72,
                    "time": 8.483619000000006,
                    "velocity": 0.4015748031496063,
                    "duration": 0.12192640833333357
                },
                {
                    "name": "E5",
                    "midi": 76,
                    "time": 8.483619000000006,
                    "velocity": 0.4015748031496063,
                    "duration": 0.12192640833333357
                },
                {
                    "name": "G4",
                    "midi": 67,
                    "time": 8.606570000000007,
                    "velocity": 0.49606299212598426,
                    "duration": 0.24334052083333368
                },
                {
                    "name": "C5",
                    "midi": 72,
                    "time": 8.606570000000007,
                    "velocity": 0.49606299212598426,
                    "duration": 0.24334052083333368
                },
                {
                    "name": "C5",
                    "midi": 72,
                    "time": 8.975423000000008,
                    "velocity": 0.3543307086614173,
                    "duration": 0.24334052083333368
                },
                {
                    "name": "G4",
                    "midi": 67,
                    "time": 8.975423000000008,
                    "velocity": 0.3543307086614173,
                    "duration": 0.24334052083333368
                },
                {
                    "name": "G4",
                    "midi": 67,
                    "time": 9.221325000000009,
                    "velocity": 0.3543307086614173,
                    "duration": 0.12192640833333357
                },
                {
                    "name": "C5",
                    "midi": 72,
                    "time": 9.221325000000009,
                    "velocity": 0.3543307086614173,
                    "duration": 0.12192640833333357
                },
                {
                    "name": "C5",
                    "midi": 72,
                    "time": 9.34427600000001,
                    "velocity": 0.4409448818897638,
                    "duration": 0.24334052083333368
                },
                {
                    "name": "A4",
                    "midi": 69,
                    "time": 9.34427600000001,
                    "velocity": 0.4409448818897638,
                    "duration": 0.24334052083333368
                },
                {
                    "name": "G4",
                    "midi": 67,
                    "time": 9.71312900000001,
                    "velocity": 0.3543307086614173,
                    "duration": 0.24334052083333368
                },
                {
                    "name": "C5",
                    "midi": 72,
                    "time": 9.71312900000001,
                    "velocity": 0.3543307086614173,
                    "duration": 0.24334052083333368
                },
                {
                    "name": "C5",
                    "midi": 72,
                    "time": 9.95903100000001,
                    "velocity": 0.36220472440944884,
                    "duration": 0.12192640833333357
                },
                {
                    "name": "G4",
                    "midi": 67,
                    "time": 9.95903100000001,
                    "velocity": 0.36220472440944884,
                    "duration": 0.12192640833333357
                },
                {
                    "name": "C5",
                    "midi": 72,
                    "time": 10.08198200000001,
                    "velocity": 0.4330708661417323,
                    "duration": 0.24334052083333368
                },
                {
                    "name": "E4",
                    "midi": 64,
                    "time": 10.08198200000001,
                    "velocity": 0.4330708661417323,
                    "duration": 0.24334052083333368
                },
                {
                    "name": "G4",
                    "midi": 67,
                    "time": 10.45083500000001,
                    "velocity": 0.33858267716535434,
                    "duration": 0.24334052083333368
                },
                {
                    "name": "F4",
                    "midi": 65,
                    "time": 10.45083500000001,
                    "velocity": 0.33858267716535434,
                    "duration": 0.24334052083333368
                },
                {
                    "name": "G4",
                    "midi": 67,
                    "time": 10.696737000000011,
                    "velocity": 0.33858267716535434,
                    "duration": 0.12192640833333357
                },
                {
                    "name": "F4",
                    "midi": 65,
                    "time": 10.696737000000011,
                    "velocity": 0.33858267716535434,
                    "duration": 0.12192640833333357
                },
                {
                    "name": "G4",
                    "midi": 67,
                    "time": 10.819688000000012,
                    "velocity": 0.4251968503937008,
                    "duration": 0.24334052083333368
                },
                {
                    "name": "G4",
                    "midi": 67,
                    "time": 11.188541000000011,
                    "velocity": 0.2677165354330709,
                    "duration": 0.24334052083333368
                },
                {
                    "name": "E4",
                    "midi": 64,
                    "time": 11.188541000000011,
                    "velocity": 0.2677165354330709,
                    "duration": 0.24334052083333368
                },
                {
                    "name": "G4",
                    "midi": 67,
                    "time": 11.434443000000012,
                    "velocity": 0.2677165354330709,
                    "duration": 0.12192640833333357
                },
                {
                    "name": "E4",
                    "midi": 64,
                    "time": 11.434443000000012,
                    "velocity": 0.2677165354330709,
                    "duration": 0.12192640833333357
                },
                {
                    "name": "G4",
                    "midi": 67,
                    "time": 11.557394000000013,
                    "velocity": 0.36220472440944884,
                    "duration": 0.24334052083333368
                },
                {
                    "name": "E4",
                    "midi": 64,
                    "time": 11.557394000000013,
                    "velocity": 0.36220472440944884,
                    "duration": 0.24334052083333368
                },
                {
                    "name": "G4",
                    "midi": 67,
                    "time": 11.926247000000014,
                    "velocity": 0.36220472440944884,
                    "duration": 0.24334052083333368
                },
                {
                    "name": "E4",
                    "midi": 64,
                    "time": 11.926247000000014,
                    "velocity": 0.36220472440944884,
                    "duration": 0.24334052083333368
                },
                {
                    "name": "C5",
                    "midi": 72,
                    "time": 11.926247000000014,
                    "velocity": 0.36220472440944884,
                    "duration": 0.24334052083333368
                },
                {
                    "name": "C5",
                    "midi": 72,
                    "time": 12.172149000000015,
                    "velocity": 0.36220472440944884,
                    "duration": 0.12192640833333357
                },
                {
                    "name": "E4",
                    "midi": 64,
                    "time": 12.172149000000015,
                    "velocity": 0.36220472440944884,
                    "duration": 0.12192640833333357
                },
                {
                    "name": "G4",
                    "midi": 67,
                    "time": 12.172149000000015,
                    "velocity": 0.36220472440944884,
                    "duration": 0.12192640833333357
                },
                {
                    "name": "A4",
                    "midi": 69,
                    "time": 12.295100000000016,
                    "velocity": 0.4330708661417323,
                    "duration": 0.24334052083333368
                },
                {
                    "name": "C5",
                    "midi": 72,
                    "time": 12.295100000000016,
                    "velocity": 0.4330708661417323,
                    "duration": 0.24334052083333368
                },
                {
                    "name": "E4",
                    "midi": 64,
                    "time": 12.295100000000016,
                    "velocity": 0.4330708661417323,
                    "duration": 0.24334052083333368
                },
                {
                    "name": "A#4",
                    "midi": 70,
                    "time": 12.663953000000017,
                    "velocity": 0.3700787401574803,
                    "duration": 0.24334052083333368
                },
                {
                    "name": "E4",
                    "midi": 64,
                    "time": 12.663953000000017,
                    "velocity": 0.3700787401574803,
                    "duration": 0.24334052083333368
                },
                {
                    "name": "C5",
                    "midi": 72,
                    "time": 12.663953000000017,
                    "velocity": 0.3700787401574803,
                    "duration": 0.24334052083333368
                },
                {
                    "name": "C5",
                    "midi": 72,
                    "time": 12.909855000000018,
                    "velocity": 0.3700787401574803,
                    "duration": 0.12192640833333357
                },
                {
                    "name": "E4",
                    "midi": 64,
                    "time": 12.909855000000018,
                    "velocity": 0.3700787401574803,
                    "duration": 0.12192640833333357
                },
                {
                    "name": "A#4",
                    "midi": 70,
                    "time": 12.909855000000018,
                    "velocity": 0.3700787401574803,
                    "duration": 0.12192640833333357
                },
                {
                    "name": "A#4",
                    "midi": 70,
                    "time": 13.032806000000019,
                    "velocity": 0.44881889763779526,
                    "duration": 0.24334052083333368
                },
                {
                    "name": "C5",
                    "midi": 72,
                    "time": 13.032806000000019,
                    "velocity": 0.44881889763779526,
                    "duration": 0.24334052083333368
                },
                {
                    "name": "F4",
                    "midi": 65,
                    "time": 13.032806000000019,
                    "velocity": 0.44881889763779526,
                    "duration": 0.24334052083333368
                },
                {
                    "name": "A#4",
                    "midi": 70,
                    "time": 13.40165900000002,
                    "velocity": 0.4251968503937008,
                    "duration": 0.24334052083333368
                },
                {
                    "name": "G4",
                    "midi": 67,
                    "time": 13.40165900000002,
                    "velocity": 0.4251968503937008,
                    "duration": 0.24334052083333368
                },
                {
                    "name": "C5",
                    "midi": 72,
                    "time": 13.40165900000002,
                    "velocity": 0.4251968503937008,
                    "duration": 0.24334052083333368
                },
                {
                    "name": "C5",
                    "midi": 72,
                    "time": 13.647561000000021,
                    "velocity": 0.4251968503937008,
                    "duration": 0.12192640833333357
                },
                {
                    "name": "G4",
                    "midi": 67,
                    "time": 13.647561000000021,
                    "velocity": 0.4251968503937008,
                    "duration": 0.12192640833333357
                },
                {
                    "name": "A#4",
                    "midi": 70,
                    "time": 13.647561000000021,
                    "velocity": 0.4251968503937008,
                    "duration": 0.12192640833333357
                },
                {
                    "name": "A#4",
                    "midi": 70,
                    "time": 13.770512000000021,
                    "velocity": 0.5275590551181102,
                    "duration": 0.24334052083333368
                },
                {
                    "name": "C#5",
                    "midi": 73,
                    "time": 13.770512000000021,
                    "velocity": 0.5275590551181102,
                    "duration": 0.24334052083333368
                },
                {
                    "name": "G4",
                    "midi": 67,
                    "time": 13.770512000000021,
                    "velocity": 0.5275590551181102,
                    "duration": 0.24334052083333368
                },
                {
                    "name": "A#4",
                    "midi": 70,
                    "time": 14.139365000000023,
                    "velocity": 0.44881889763779526,
                    "duration": 0.24334052083333368
                },
                {
                    "name": "G4",
                    "midi": 67,
                    "time": 14.139365000000023,
                    "velocity": 0.44881889763779526,
                    "duration": 0.24334052083333368
                },
                {
                    "name": "D5",
                    "midi": 74,
                    "time": 14.139365000000023,
                    "velocity": 0.44881889763779526,
                    "duration": 0.24334052083333368
                },
                {
                    "name": "D5",
                    "midi": 74,
                    "time": 14.385267000000024,
                    "velocity": 0.44881889763779526,
                    "duration": 0.12192640833333357
                },
                {
                    "name": "G4",
                    "midi": 67,
                    "time": 14.385267000000024,
                    "velocity": 0.44881889763779526,
                    "duration": 0.12192640833333357
                },
                {
                    "name": "A#4",
                    "midi": 70,
                    "time": 14.385267000000024,
                    "velocity": 0.44881889763779526,
                    "duration": 0.12192640833333357
                },
                {
                    "name": "A#4",
                    "midi": 70,
                    "time": 14.508218000000024,
                    "velocity": 0.5748031496062992,
                    "duration": 0.24334052083333368
                },
                {
                    "name": "E5",
                    "midi": 76,
                    "time": 14.508218000000024,
                    "velocity": 0.5748031496062992,
                    "duration": 0.24334052083333368
                },
                {
                    "name": "G4",
                    "midi": 67,
                    "time": 14.508218000000024,
                    "velocity": 0.5748031496062992,
                    "duration": 0.24334052083333368
                },
                {
                    "name": "F5",
                    "midi": 77,
                    "time": 14.877071000000026,
                    "velocity": 0.4645669291338583,
                    "duration": 0.24334052083333368
                },
                {
                    "name": "A4",
                    "midi": 69,
                    "time": 14.877071000000026,
                    "velocity": 0.4645669291338583,
                    "duration": 0.24334052083333368
                },
                {
                    "name": "D5",
                    "midi": 74,
                    "time": 14.877071000000026,
                    "velocity": 0.4645669291338583,
                    "duration": 0.24334052083333368
                },
                {
                    "name": "D5",
                    "midi": 74,
                    "time": 15.122973000000027,
                    "velocity": 0.4645669291338583,
                    "duration": 0.12192640833333357
                },
                {
                    "name": "A4",
                    "midi": 69,
                    "time": 15.122973000000027,
                    "velocity": 0.4645669291338583,
                    "duration": 0.12192640833333357
                },
                {
                    "name": "F5",
                    "midi": 77,
                    "time": 15.122973000000027,
                    "velocity": 0.4645669291338583,
                    "duration": 0.12192640833333357
                },
                {
                    "name": "A#4",
                    "midi": 70,
                    "time": 15.245924000000027,
                    "velocity": 0.6456692913385826,
                    "duration": 0.24334052083333368
                },
                {
                    "name": "E5",
                    "midi": 76,
                    "time": 15.245924000000027,
                    "velocity": 0.6456692913385826,
                    "duration": 0.24334052083333368
                },
                {
                    "name": "G4",
                    "midi": 67,
                    "time": 15.245924000000027,
                    "velocity": 0.6456692913385826,
                    "duration": 0.24334052083333368
                },
                {
                    "name": "A4",
                    "midi": 69,
                    "time": 15.614777000000029,
                    "velocity": 0.49606299212598426,
                    "duration": 0.24334052083333368
                },
                {
                    "name": "F4",
                    "midi": 65,
                    "time": 15.614777000000029,
                    "velocity": 0.49606299212598426,
                    "duration": 0.24334052083333368
                },
                {
                    "name": "D5",
                    "midi": 74,
                    "time": 15.614777000000029,
                    "velocity": 0.49606299212598426,
                    "duration": 0.24334052083333368
                },
                {
                    "name": "A4",
                    "midi": 69,
                    "time": 15.86067900000003,
                    "velocity": 0.49606299212598426,
                    "duration": 0.12192640833333357
                },
                {
                    "name": "F4",
                    "midi": 65,
                    "time": 15.86067900000003,
                    "velocity": 0.49606299212598426,
                    "duration": 0.12192640833333357
                },
                {
                    "name": "D5",
                    "midi": 74,
                    "time": 15.86067900000003,
                    "velocity": 0.49606299212598426,
                    "duration": 0.12192640833333357
                },
                {
                    "name": "A4",
                    "midi": 69,
                    "time": 15.98363000000003,
                    "velocity": 0.6535433070866141,
                    "duration": 0.2433405208333319
                },
                {
                    "name": "C#5",
                    "midi": 73,
                    "time": 15.98363000000003,
                    "velocity": 0.6535433070866141,
                    "duration": 0.2433405208333319
                },
                {
                    "name": "E4",
                    "midi": 64,
                    "time": 15.98363000000003,
                    "velocity": 0.6535433070866141,
                    "duration": 0.2433405208333319
                },
                {
                    "name": "A4",
                    "midi": 69,
                    "time": 16.352483000000028,
                    "velocity": 0.5354330708661418,
                    "duration": 0.2433405208333319
                },
                {
                    "name": "F4",
                    "midi": 65,
                    "time": 16.352483000000028,
                    "velocity": 0.5354330708661418,
                    "duration": 0.2433405208333319
                },
                {
                    "name": "D5",
                    "midi": 74,
                    "time": 16.352483000000028,
                    "velocity": 0.5354330708661418,
                    "duration": 0.2433405208333319
                },
                {
                    "name": "A4",
                    "midi": 69,
                    "time": 16.598385000000025,
                    "velocity": 0.5433070866141733,
                    "duration": 0.12192640833333357
                },
                {
                    "name": "F4",
                    "midi": 65,
                    "time": 16.598385000000025,
                    "velocity": 0.5433070866141733,
                    "duration": 0.12192640833333357
                },
                {
                    "name": "D5",
                    "midi": 74,
                    "time": 16.598385000000025,
                    "velocity": 0.5433070866141733,
                    "duration": 0.12192640833333357
                },
                {
                    "name": "F#4",
                    "midi": 66,
                    "time": 16.721336000000026,
                    "velocity": 0.6850393700787402,
                    "duration": 0.2433405208333319
                },
                {
                    "name": "C5",
                    "midi": 72,
                    "time": 16.721336000000026,
                    "velocity": 0.6850393700787402,
                    "duration": 0.2433405208333319
                },
                {
                    "name": "D#4",
                    "midi": 63,
                    "time": 16.721336000000026,
                    "velocity": 0.6850393700787402,
                    "duration": 0.2433405208333319
                },
                {
                    "name": "F4",
                    "midi": 65,
                    "time": 17.090189000000024,
                    "velocity": 0.5905511811023622,
                    "duration": 0.2433405208333319
                },
                {
                    "name": "D4",
                    "midi": 62,
                    "time": 17.090189000000024,
                    "velocity": 0.5905511811023622,
                    "duration": 0.2433405208333319
                },
                {
                    "name": "C5",
                    "midi": 72,
                    "time": 17.090189000000024,
                    "velocity": 0.5905511811023622,
                    "duration": 0.2433405208333319
                },
                {
                    "name": "F4",
                    "midi": 65,
                    "time": 17.33609100000002,
                    "velocity": 0.5905511811023622,
                    "duration": 0.12192640833333357
                },
                {
                    "name": "D4",
                    "midi": 62,
                    "time": 17.33609100000002,
                    "velocity": 0.5905511811023622,
                    "duration": 0.12192640833333357
                },
                {
                    "name": "C5",
                    "midi": 72,
                    "time": 17.33609100000002,
                    "velocity": 0.5905511811023622,
                    "duration": 0.12192640833333357
                },
                {
                    "name": "F4",
                    "midi": 65,
                    "time": 17.45904200000002,
                    "velocity": 0.7007874015748031,
                    "duration": 0.2433405208333319
                },
                {
                    "name": "B4",
                    "midi": 71,
                    "time": 17.45904200000002,
                    "velocity": 0.7007874015748031,
                    "duration": 0.2433405208333319
                },
                {
                    "name": "D4",
                    "midi": 62,
                    "time": 17.45904200000002,
                    "velocity": 0.7007874015748031,
                    "duration": 0.2433405208333319
                },
                {
                    "name": "C5",
                    "midi": 72,
                    "time": 17.82789500000002,
                    "velocity": 0.5748031496062992,
                    "duration": 0.2433405208333319
                },
                {
                    "name": "G4",
                    "midi": 67,
                    "time": 17.82789500000002,
                    "velocity": 0.5748031496062992,
                    "duration": 0.2433405208333319
                },
                {
                    "name": "G4",
                    "midi": 67,
                    "time": 18.073797000000017,
                    "velocity": 0.5748031496062992,
                    "duration": 0.12192640833333357
                },
                {
                    "name": "C5",
                    "midi": 72,
                    "time": 18.073797000000017,
                    "velocity": 0.5748031496062992,
                    "duration": 0.12192640833333357
                },
                {
                    "name": "C5",
                    "midi": 72,
                    "time": 18.196748000000017,
                    "velocity": 0.7165354330708661,
                    "duration": 0.2433405208333319
                },
                {
                    "name": "A4",
                    "midi": 69,
                    "time": 18.196748000000017,
                    "velocity": 0.7165354330708661,
                    "duration": 0.2433405208333319
                },
                {
                    "name": "G4",
                    "midi": 67,
                    "time": 18.565601000000015,
                    "velocity": 0.5984251968503937,
                    "duration": 0.2433405208333319
                },
                {
                    "name": "C5",
                    "midi": 72,
                    "time": 18.565601000000015,
                    "velocity": 0.5984251968503937,
                    "duration": 0.2433405208333319
                },
                {
                    "name": "C5",
                    "midi": 72,
                    "time": 18.811503000000013,
                    "velocity": 0.5984251968503937,
                    "duration": 0.12192640833333357
                },
                {
                    "name": "G4",
                    "midi": 67,
                    "time": 18.811503000000013,
                    "velocity": 0.5984251968503937,
                    "duration": 0.12192640833333357
                },
                {
                    "name": "G4",
                    "midi": 67,
                    "time": 18.934454000000013,
                    "velocity": 0.7165354330708661,
                    "duration": 0.2433405208333319
                },
                {
                    "name": "C5",
                    "midi": 72,
                    "time": 18.934454000000013,
                    "velocity": 0.7165354330708661,
                    "duration": 0.2433405208333319
                },
                {
                    "name": "E4",
                    "midi": 64,
                    "time": 18.934454000000013,
                    "velocity": 0.7165354330708661,
                    "duration": 0.2433405208333319
                },
                {
                    "name": "C5",
                    "midi": 72,
                    "time": 19.30330700000001,
                    "velocity": 0.6377952755905512,
                    "duration": 0.2433405208333319
                },
                {
                    "name": "G4",
                    "midi": 67,
                    "time": 19.30330700000001,
                    "velocity": 0.6377952755905512,
                    "duration": 0.2433405208333319
                },
                {
                    "name": "F4",
                    "midi": 65,
                    "time": 19.30330700000001,
                    "velocity": 0.6377952755905512,
                    "duration": 0.2433405208333319
                },
                {
                    "name": "C5",
                    "midi": 72,
                    "time": 19.54920900000001,
                    "velocity": 0.6377952755905512,
                    "duration": 0.12192640833333357
                },
                {
                    "name": "G4",
                    "midi": 67,
                    "time": 19.54920900000001,
                    "velocity": 0.6377952755905512,
                    "duration": 0.12192640833333357
                },
                {
                    "name": "F4",
                    "midi": 65,
                    "time": 19.54920900000001,
                    "velocity": 0.6377952755905512,
                    "duration": 0.12192640833333357
                },
                {
                    "name": "C5",
                    "midi": 72,
                    "time": 19.67216000000001,
                    "velocity": 0.7559055118110236,
                    "duration": 0.2433405208333319
                },
                {
                    "name": "G4",
                    "midi": 67,
                    "time": 19.67216000000001,
                    "velocity": 0.7559055118110236,
                    "duration": 0.2433405208333319
                },
                {
                    "name": "C5",
                    "midi": 72,
                    "time": 20.041013000000007,
                    "velocity": 0.6614173228346457,
                    "duration": 0.2433405208333319
                },
                {
                    "name": "G4",
                    "midi": 67,
                    "time": 20.041013000000007,
                    "velocity": 0.6614173228346457,
                    "duration": 0.2433405208333319
                },
                {
                    "name": "E4",
                    "midi": 64,
                    "time": 20.041013000000007,
                    "velocity": 0.6614173228346457,
                    "duration": 0.2433405208333319
                },
                {
                    "name": "C5",
                    "midi": 72,
                    "time": 20.286915000000004,
                    "velocity": 0.6614173228346457,
                    "duration": 0.12192640833333357
                },
                {
                    "name": "G4",
                    "midi": 67,
                    "time": 20.286915000000004,
                    "velocity": 0.6614173228346457,
                    "duration": 0.12192640833333357
                },
                {
                    "name": "E4",
                    "midi": 64,
                    "time": 20.286915000000004,
                    "velocity": 0.6614173228346457,
                    "duration": 0.12192640833333357
                },
                {
                    "name": "C5",
                    "midi": 72,
                    "time": 20.409866000000005,
                    "velocity": 0.7795275590551181,
                    "duration": 0.2433405208333319
                },
                {
                    "name": "G4",
                    "midi": 67,
                    "time": 20.409866000000005,
                    "velocity": 0.7795275590551181,
                    "duration": 0.2433405208333319
                },
                {
                    "name": "C4",
                    "midi": 60,
                    "time": 20.409866000000005,
                    "velocity": 0.7795275590551181,
                    "duration": 0.2433405208333319
                },
                {
                    "name": "E4",
                    "midi": 64,
                    "time": 20.778719000000002,
                    "velocity": 0.5984251968503937,
                    "duration": 0.2433405208333319
                },
                {
                    "name": "C5",
                    "midi": 72,
                    "time": 20.778719000000002,
                    "velocity": 0.5984251968503937,
                    "duration": 0.2433405208333319
                },
                {
                    "name": "G4",
                    "midi": 67,
                    "time": 20.778719000000002,
                    "velocity": 0.5984251968503937,
                    "duration": 0.2433405208333319
                },
                {
                    "name": "E4",
                    "midi": 64,
                    "time": 21.024621,
                    "velocity": 0.5984251968503937,
                    "duration": 0.12192640833333357
                },
                {
                    "name": "G4",
                    "midi": 67,
                    "time": 21.024621,
                    "velocity": 0.5984251968503937,
                    "duration": 0.12192640833333357
                },
                {
                    "name": "C5",
                    "midi": 72,
                    "time": 21.024621,
                    "velocity": 0.5984251968503937,
                    "duration": 0.12192640833333357
                },
                {
                    "name": "F4",
                    "midi": 65,
                    "time": 21.147572,
                    "velocity": 0.7244094488188977,
                    "duration": 0.2433405208333319
                },
                {
                    "name": "C5",
                    "midi": 72,
                    "time": 21.147572,
                    "velocity": 0.7244094488188977,
                    "duration": 0.2433405208333319
                },
                {
                    "name": "G4",
                    "midi": 67,
                    "time": 21.147572,
                    "velocity": 0.7244094488188977,
                    "duration": 0.2433405208333319
                },
                {
                    "name": "E4",
                    "midi": 64,
                    "time": 21.516424999999998,
                    "velocity": 0.5984251968503937,
                    "duration": 0.2433405208333319
                },
                {
                    "name": "G4",
                    "midi": 67,
                    "time": 21.516424999999998,
                    "velocity": 0.5984251968503937,
                    "duration": 0.2433405208333319
                },
                {
                    "name": "C5",
                    "midi": 72,
                    "time": 21.516424999999998,
                    "velocity": 0.5984251968503937,
                    "duration": 0.2433405208333319
                },
                {
                    "name": "E4",
                    "midi": 64,
                    "time": 21.762326999999996,
                    "velocity": 0.5984251968503937,
                    "duration": 0.12192640833333357
                },
                {
                    "name": "C5",
                    "midi": 72,
                    "time": 21.762326999999996,
                    "velocity": 0.5984251968503937,
                    "duration": 0.12192640833333357
                },
                {
                    "name": "G4",
                    "midi": 67,
                    "time": 21.762326999999996,
                    "velocity": 0.5984251968503937,
                    "duration": 0.12192640833333357
                },
                {
                    "name": "G4",
                    "midi": 67,
                    "time": 21.885277999999996,
                    "velocity": 0.7165354330708661,
                    "duration": 0.2433405208333319
                },
                {
                    "name": "C5",
                    "midi": 72,
                    "time": 21.885277999999996,
                    "velocity": 0.7165354330708661,
                    "duration": 0.2433405208333319
                },
                {
                    "name": "C4",
                    "midi": 60,
                    "time": 21.885277999999996,
                    "velocity": 0.7165354330708661,
                    "duration": 0.2433405208333319
                },
                {
                    "name": "C5",
                    "midi": 72,
                    "time": 22.254130999999994,
                    "velocity": 0.5905511811023622,
                    "duration": 0.2433405208333319
                },
                {
                    "name": "D4",
                    "midi": 62,
                    "time": 22.254130999999994,
                    "velocity": 0.5905511811023622,
                    "duration": 0.2433405208333319
                },
                {
                    "name": "G4",
                    "midi": 67,
                    "time": 22.254130999999994,
                    "velocity": 0.5905511811023622,
                    "duration": 0.2433405208333319
                },
                {
                    "name": "C5",
                    "midi": 72,
                    "time": 22.50003299999999,
                    "velocity": 0.5905511811023622,
                    "duration": 0.12192640833333357
                },
                {
                    "name": "D4",
                    "midi": 62,
                    "time": 22.50003299999999,
                    "velocity": 0.5905511811023622,
                    "duration": 0.12192640833333357
                },
                {
                    "name": "G4",
                    "midi": 67,
                    "time": 22.50003299999999,
                    "velocity": 0.5905511811023622,
                    "duration": 0.12192640833333357
                },
                {
                    "name": "C5",
                    "midi": 72,
                    "time": 22.62298399999999,
                    "velocity": 0.7165354330708661,
                    "duration": 0.2433405208333319
                },
                {
                    "name": "E4",
                    "midi": 64,
                    "time": 22.62298399999999,
                    "velocity": 0.7165354330708661,
                    "duration": 0.2433405208333319
                },
                {
                    "name": "G4",
                    "midi": 67,
                    "time": 22.62298399999999,
                    "velocity": 0.7165354330708661,
                    "duration": 0.2433405208333319
                },
                {
                    "name": "C5",
                    "midi": 72,
                    "time": 22.99183699999999,
                    "velocity": 0.5826771653543307,
                    "duration": 0.2433405208333319
                },
                {
                    "name": "G4",
                    "midi": 67,
                    "time": 22.99183699999999,
                    "velocity": 0.5826771653543307,
                    "duration": 0.2433405208333319
                },
                {
                    "name": "C4",
                    "midi": 60,
                    "time": 22.99183699999999,
                    "velocity": 0.5826771653543307,
                    "duration": 0.2433405208333319
                },
                {
                    "name": "C5",
                    "midi": 72,
                    "time": 23.237738999999987,
                    "velocity": 0.5826771653543307,
                    "duration": 0.12192640833333357
                },
                {
                    "name": "C4",
                    "midi": 60,
                    "time": 23.237738999999987,
                    "velocity": 0.5826771653543307,
                    "duration": 0.12192640833333357
                },
                {
                    "name": "C5",
                    "midi": 72,
                    "time": 23.360689999999988,
                    "velocity": 0.7244094488188977,
                    "duration": 0.18442650000000071
                },
                {
                    "name": "C4",
                    "midi": 60,
                    "time": 23.360689999999988,
                    "velocity": 0.7244094488188977,
                    "duration": 0.18442650000000071
                },
                {
                    "name": "G4",
                    "midi": 67,
                    "time": 23.72954299999999,
                    "velocity": 0.36220472440944884,
                    "duration": 0.2433405208333319
                },
                {
                    "name": "E4",
                    "midi": 64,
                    "time": 23.72954299999999,
                    "velocity": 0.36220472440944884,
                    "duration": 0.2433405208333319
                },
                {
                    "name": "C5",
                    "midi": 72,
                    "time": 23.72954299999999,
                    "velocity": 0.36220472440944884,
                    "duration": 0.2433405208333319
                },
                {
                    "name": "C5",
                    "midi": 72,
                    "time": 23.975444999999986,
                    "velocity": 0.36220472440944884,
                    "duration": 0.12192640833333357
                },
                {
                    "name": "E4",
                    "midi": 64,
                    "time": 23.975444999999986,
                    "velocity": 0.36220472440944884,
                    "duration": 0.12192640833333357
                },
                {
                    "name": "G4",
                    "midi": 67,
                    "time": 23.975444999999986,
                    "velocity": 0.36220472440944884,
                    "duration": 0.12192640833333357
                },
                {
                    "name": "A4",
                    "midi": 69,
                    "time": 24.098395999999987,
                    "velocity": 0.4409448818897638,
                    "duration": 0.2433405208333319
                },
                {
                    "name": "C5",
                    "midi": 72,
                    "time": 24.098395999999987,
                    "velocity": 0.4409448818897638,
                    "duration": 0.2433405208333319
                },
                {
                    "name": "E4",
                    "midi": 64,
                    "time": 24.098395999999987,
                    "velocity": 0.4409448818897638,
                    "duration": 0.2433405208333319
                },
                {
                    "name": "A#4",
                    "midi": 70,
                    "time": 24.467248999999985,
                    "velocity": 0.3700787401574803,
                    "duration": 0.2433405208333319
                },
                {
                    "name": "E4",
                    "midi": 64,
                    "time": 24.467248999999985,
                    "velocity": 0.3700787401574803,
                    "duration": 0.2433405208333319
                },
                {
                    "name": "C5",
                    "midi": 72,
                    "time": 24.467248999999985,
                    "velocity": 0.3700787401574803,
                    "duration": 0.2433405208333319
                },
                {
                    "name": "C5",
                    "midi": 72,
                    "time": 24.713150999999982,
                    "velocity": 0.3700787401574803,
                    "duration": 0.12192640833333357
                },
                {
                    "name": "E4",
                    "midi": 64,
                    "time": 24.713150999999982,
                    "velocity": 0.3700787401574803,
                    "duration": 0.12192640833333357
                },
                {
                    "name": "A#4",
                    "midi": 70,
                    "time": 24.713150999999982,
                    "velocity": 0.3700787401574803,
                    "duration": 0.12192640833333357
                },
                {
                    "name": "A#4",
                    "midi": 70,
                    "time": 24.836101999999983,
                    "velocity": 0.4566929133858268,
                    "duration": 0.2433405208333319
                },
                {
                    "name": "C5",
                    "midi": 72,
                    "time": 24.836101999999983,
                    "velocity": 0.4566929133858268,
                    "duration": 0.2433405208333319
                },
                {
                    "name": "F4",
                    "midi": 65,
                    "time": 24.836101999999983,
                    "velocity": 0.4566929133858268,
                    "duration": 0.2433405208333319
                },
                {
                    "name": "A#4",
                    "midi": 70,
                    "time": 25.20495499999998,
                    "velocity": 0.4251968503937008,
                    "duration": 0.2433405208333319
                },
                {
                    "name": "G4",
                    "midi": 67,
                    "time": 25.20495499999998,
                    "velocity": 0.4251968503937008,
                    "duration": 0.2433405208333319
                },
                {
                    "name": "C5",
                    "midi": 72,
                    "time": 25.20495499999998,
                    "velocity": 0.4251968503937008,
                    "duration": 0.2433405208333319
                },
                {
                    "name": "C5",
                    "midi": 72,
                    "time": 25.450856999999978,
                    "velocity": 0.4251968503937008,
                    "duration": 0.12192640833333357
                },
                {
                    "name": "G4",
                    "midi": 67,
                    "time": 25.450856999999978,
                    "velocity": 0.4251968503937008,
                    "duration": 0.12192640833333357
                },
                {
                    "name": "A#4",
                    "midi": 70,
                    "time": 25.450856999999978,
                    "velocity": 0.4251968503937008,
                    "duration": 0.12192640833333357
                },
                {
                    "name": "A#4",
                    "midi": 70,
                    "time": 25.57380799999998,
                    "velocity": 0.5275590551181102,
                    "duration": 0.2433405208333319
                },
                {
                    "name": "C#5",
                    "midi": 73,
                    "time": 25.57380799999998,
                    "velocity": 0.5275590551181102,
                    "duration": 0.2433405208333319
                },
                {
                    "name": "G4",
                    "midi": 67,
                    "time": 25.57380799999998,
                    "velocity": 0.5275590551181102,
                    "duration": 0.2433405208333319
                },
                {
                    "name": "A#4",
                    "midi": 70,
                    "time": 25.942660999999976,
                    "velocity": 0.44881889763779526,
                    "duration": 0.2433405208333319
                },
                {
                    "name": "G4",
                    "midi": 67,
                    "time": 25.942660999999976,
                    "velocity": 0.44881889763779526,
                    "duration": 0.2433405208333319
                },
                {
                    "name": "D5",
                    "midi": 74,
                    "time": 25.942660999999976,
                    "velocity": 0.44881889763779526,
                    "duration": 0.2433405208333319
                },
                {
                    "name": "D5",
                    "midi": 74,
                    "time": 26.188562999999974,
                    "velocity": 0.44881889763779526,
                    "duration": 0.12192640833333357
                },
                {
                    "name": "G4",
                    "midi": 67,
                    "time": 26.188562999999974,
                    "velocity": 0.44881889763779526,
                    "duration": 0.12192640833333357
                },
                {
                    "name": "A#4",
                    "midi": 70,
                    "time": 26.188562999999974,
                    "velocity": 0.44881889763779526,
                    "duration": 0.12192640833333357
                },
                {
                    "name": "A#4",
                    "midi": 70,
                    "time": 26.311513999999974,
                    "velocity": 0.5748031496062992,
                    "duration": 0.2433405208333319
                },
                {
                    "name": "E5",
                    "midi": 76,
                    "time": 26.311513999999974,
                    "velocity": 0.5748031496062992,
                    "duration": 0.2433405208333319
                },
                {
                    "name": "G4",
                    "midi": 67,
                    "time": 26.311513999999974,
                    "velocity": 0.5748031496062992,
                    "duration": 0.2433405208333319
                },
                {
                    "name": "F5",
                    "midi": 77,
                    "time": 26.680366999999972,
                    "velocity": 0.4645669291338583,
                    "duration": 0.2433405208333319
                },
                {
                    "name": "A4",
                    "midi": 69,
                    "time": 26.680366999999972,
                    "velocity": 0.4645669291338583,
                    "duration": 0.2433405208333319
                },
                {
                    "name": "D5",
                    "midi": 74,
                    "time": 26.680366999999972,
                    "velocity": 0.4645669291338583,
                    "duration": 0.2433405208333319
                },
                {
                    "name": "D5",
                    "midi": 74,
                    "time": 26.92626899999997,
                    "velocity": 0.4645669291338583,
                    "duration": 0.12192640833333357
                },
                {
                    "name": "A4",
                    "midi": 69,
                    "time": 26.92626899999997,
                    "velocity": 0.4645669291338583,
                    "duration": 0.12192640833333357
                },
                {
                    "name": "F5",
                    "midi": 77,
                    "time": 26.92626899999997,
                    "velocity": 0.4645669291338583,
                    "duration": 0.12192640833333357
                },
                {
                    "name": "A#4",
                    "midi": 70,
                    "time": 27.04921999999997,
                    "velocity": 0.6456692913385826,
                    "duration": 0.2433405208333319
                },
                {
                    "name": "E5",
                    "midi": 76,
                    "time": 27.04921999999997,
                    "velocity": 0.6456692913385826,
                    "duration": 0.2433405208333319
                },
                {
                    "name": "G4",
                    "midi": 67,
                    "time": 27.04921999999997,
                    "velocity": 0.6456692913385826,
                    "duration": 0.2433405208333319
                },
                {
                    "name": "A4",
                    "midi": 69,
                    "time": 27.418072999999968,
                    "velocity": 0.49606299212598426,
                    "duration": 0.2433405208333319
                },
                {
                    "name": "F4",
                    "midi": 65,
                    "time": 27.418072999999968,
                    "velocity": 0.49606299212598426,
                    "duration": 0.2433405208333319
                },
                {
                    "name": "D5",
                    "midi": 74,
                    "time": 27.418072999999968,
                    "velocity": 0.49606299212598426,
                    "duration": 0.2433405208333319
                },
                {
                    "name": "A4",
                    "midi": 69,
                    "time": 27.663974999999965,
                    "velocity": 0.49606299212598426,
                    "duration": 0.12192640833333357
                },
                {
                    "name": "F4",
                    "midi": 65,
                    "time": 27.663974999999965,
                    "velocity": 0.49606299212598426,
                    "duration": 0.12192640833333357
                },
                {
                    "name": "D5",
                    "midi": 74,
                    "time": 27.663974999999965,
                    "velocity": 0.49606299212598426,
                    "duration": 0.12192640833333357
                },
                {
                    "name": "A4",
                    "midi": 69,
                    "time": 27.786925999999966,
                    "velocity": 0.6535433070866141,
                    "duration": 0.2433405208333319
                },
                {
                    "name": "C#5",
                    "midi": 73,
                    "time": 27.786925999999966,
                    "velocity": 0.6535433070866141,
                    "duration": 0.2433405208333319
                },
                {
                    "name": "E4",
                    "midi": 64,
                    "time": 27.786925999999966,
                    "velocity": 0.6535433070866141,
                    "duration": 0.2433405208333319
                },
                {
                    "name": "A4",
                    "midi": 69,
                    "time": 28.155778999999963,
                    "velocity": 0.5354330708661418,
                    "duration": 0.2433405208333319
                },
                {
                    "name": "F4",
                    "midi": 65,
                    "time": 28.155778999999963,
                    "velocity": 0.5354330708661418,
                    "duration": 0.2433405208333319
                },
                {
                    "name": "D5",
                    "midi": 74,
                    "time": 28.155778999999963,
                    "velocity": 0.5354330708661418,
                    "duration": 0.2433405208333319
                },
                {
                    "name": "A4",
                    "midi": 69,
                    "time": 28.40168099999996,
                    "velocity": 0.5433070866141733,
                    "duration": 0.12192640833333357
                },
                {
                    "name": "F4",
                    "midi": 65,
                    "time": 28.40168099999996,
                    "velocity": 0.5433070866141733,
                    "duration": 0.12192640833333357
                },
                {
                    "name": "D5",
                    "midi": 74,
                    "time": 28.40168099999996,
                    "velocity": 0.5433070866141733,
                    "duration": 0.12192640833333357
                },
                {
                    "name": "F#4",
                    "midi": 66,
                    "time": 28.52463199999996,
                    "velocity": 0.6850393700787402,
                    "duration": 0.2433405208333319
                },
                {
                    "name": "C5",
                    "midi": 72,
                    "time": 28.52463199999996,
                    "velocity": 0.6850393700787402,
                    "duration": 0.2433405208333319
                },
                {
                    "name": "D#4",
                    "midi": 63,
                    "time": 28.52463199999996,
                    "velocity": 0.6850393700787402,
                    "duration": 0.2433405208333319
                },
                {
                    "name": "F4",
                    "midi": 65,
                    "time": 28.89348499999996,
                    "velocity": 0.5905511811023622,
                    "duration": 0.2433405208333319
                },
                {
                    "name": "D4",
                    "midi": 62,
                    "time": 28.89348499999996,
                    "velocity": 0.5905511811023622,
                    "duration": 0.2433405208333319
                },
                {
                    "name": "C5",
                    "midi": 72,
                    "time": 28.89348499999996,
                    "velocity": 0.5905511811023622,
                    "duration": 0.2433405208333319
                },
                {
                    "name": "F4",
                    "midi": 65,
                    "time": 29.139386999999957,
                    "velocity": 0.5905511811023622,
                    "duration": 0.12192640833333357
                },
                {
                    "name": "D4",
                    "midi": 62,
                    "time": 29.139386999999957,
                    "velocity": 0.5905511811023622,
                    "duration": 0.12192640833333357
                },
                {
                    "name": "C5",
                    "midi": 72,
                    "time": 29.139386999999957,
                    "velocity": 0.5905511811023622,
                    "duration": 0.12192640833333357
                },
                {
                    "name": "F4",
                    "midi": 65,
                    "time": 29.262337999999957,
                    "velocity": 0.7007874015748031,
                    "duration": 0.2433405208333319
                },
                {
                    "name": "B4",
                    "midi": 71,
                    "time": 29.262337999999957,
                    "velocity": 0.7007874015748031,
                    "duration": 0.2433405208333319
                },
                {
                    "name": "D4",
                    "midi": 62,
                    "time": 29.262337999999957,
                    "velocity": 0.7007874015748031,
                    "duration": 0.2433405208333319
                },
                {
                    "name": "C5",
                    "midi": 72,
                    "time": 29.631190999999955,
                    "velocity": 0.5748031496062992,
                    "duration": 0.2433405208333319
                },
                {
                    "name": "G4",
                    "midi": 67,
                    "time": 29.631190999999955,
                    "velocity": 0.5748031496062992,
                    "duration": 0.2433405208333319
                },
                {
                    "name": "G4",
                    "midi": 67,
                    "time": 29.877092999999952,
                    "velocity": 0.5748031496062992,
                    "duration": 0.12192640833333357
                },
                {
                    "name": "C5",
                    "midi": 72,
                    "time": 29.877092999999952,
                    "velocity": 0.5748031496062992,
                    "duration": 0.12192640833333357
                },
                {
                    "name": "C5",
                    "midi": 72,
                    "time": 30.000043999999953,
                    "velocity": 0.7165354330708661,
                    "duration": 0.2433405208333319
                },
                {
                    "name": "A4",
                    "midi": 69,
                    "time": 30.000043999999953,
                    "velocity": 0.7165354330708661,
                    "duration": 0.2433405208333319
                },
                {
                    "name": "G4",
                    "midi": 67,
                    "time": 30.36889699999995,
                    "velocity": 0.5984251968503937,
                    "duration": 0.2433405208333319
                },
                {
                    "name": "C5",
                    "midi": 72,
                    "time": 30.36889699999995,
                    "velocity": 0.5984251968503937,
                    "duration": 0.2433405208333319
                },
                {
                    "name": "C5",
                    "midi": 72,
                    "time": 30.614798999999948,
                    "velocity": 0.5984251968503937,
                    "duration": 0.12192640833333357
                },
                {
                    "name": "G4",
                    "midi": 67,
                    "time": 30.614798999999948,
                    "velocity": 0.5984251968503937,
                    "duration": 0.12192640833333357
                },
                {
                    "name": "G4",
                    "midi": 67,
                    "time": 30.73774999999995,
                    "velocity": 0.7165354330708661,
                    "duration": 0.2433405208333319
                },
                {
                    "name": "C5",
                    "midi": 72,
                    "time": 30.73774999999995,
                    "velocity": 0.7165354330708661,
                    "duration": 0.2433405208333319
                },
                {
                    "name": "E4",
                    "midi": 64,
                    "time": 30.73774999999995,
                    "velocity": 0.7165354330708661,
                    "duration": 0.2433405208333319
                },
                {
                    "name": "C5",
                    "midi": 72,
                    "time": 31.106602999999946,
                    "velocity": 0.6377952755905512,
                    "duration": 0.2433405208333319
                },
                {
                    "name": "G4",
                    "midi": 67,
                    "time": 31.106602999999946,
                    "velocity": 0.6377952755905512,
                    "duration": 0.2433405208333319
                },
                {
                    "name": "F4",
                    "midi": 65,
                    "time": 31.106602999999946,
                    "velocity": 0.6377952755905512,
                    "duration": 0.2433405208333319
                },
                {
                    "name": "C5",
                    "midi": 72,
                    "time": 31.352504999999944,
                    "velocity": 0.6377952755905512,
                    "duration": 0.12192640833333357
                },
                {
                    "name": "G4",
                    "midi": 67,
                    "time": 31.352504999999944,
                    "velocity": 0.6377952755905512,
                    "duration": 0.12192640833333357
                },
                {
                    "name": "F4",
                    "midi": 65,
                    "time": 31.352504999999944,
                    "velocity": 0.6377952755905512,
                    "duration": 0.12192640833333357
                },
                {
                    "name": "C5",
                    "midi": 72,
                    "time": 31.475455999999944,
                    "velocity": 0.7716535433070866,
                    "duration": 0.2433405208333319
                },
                {
                    "name": "G4",
                    "midi": 67,
                    "time": 31.475455999999944,
                    "velocity": 0.7716535433070866,
                    "duration": 0.2433405208333319
                },
                {
                    "name": "C5",
                    "midi": 72,
                    "time": 31.844308999999942,
                    "velocity": 0.6614173228346457,
                    "duration": 0.2433405208333319
                },
                {
                    "name": "G4",
                    "midi": 67,
                    "time": 31.844308999999942,
                    "velocity": 0.6614173228346457,
                    "duration": 0.2433405208333319
                },
                {
                    "name": "E4",
                    "midi": 64,
                    "time": 31.844308999999942,
                    "velocity": 0.6614173228346457,
                    "duration": 0.2433405208333319
                },
                {
                    "name": "C5",
                    "midi": 72,
                    "time": 32.09021099999994,
                    "velocity": 0.6614173228346457,
                    "duration": 0.12192640833333002
                },
                {
                    "name": "G4",
                    "midi": 67,
                    "time": 32.09021099999994,
                    "velocity": 0.6614173228346457,
                    "duration": 0.12192640833333002
                },
                {
                    "name": "E4",
                    "midi": 64,
                    "time": 32.09021099999994,
                    "velocity": 0.6614173228346457,
                    "duration": 0.12192640833333002
                },
                {
                    "name": "C5",
                    "midi": 72,
                    "time": 32.21316199999993,
                    "velocity": 0.7716535433070866,
                    "duration": 0.24334052083333546
                },
                {
                    "name": "G4",
                    "midi": 67,
                    "time": 32.21316199999993,
                    "velocity": 0.7716535433070866,
                    "duration": 0.24334052083333546
                },
                {
                    "name": "C4",
                    "midi": 60,
                    "time": 32.21316199999993,
                    "velocity": 0.7716535433070866,
                    "duration": 0.24334052083333546
                },
                {
                    "name": "E4",
                    "midi": 64,
                    "time": 32.582014999999934,
                    "velocity": 0.6220472440944882,
                    "duration": 0.24334052083333546
                },
                {
                    "name": "C5",
                    "midi": 72,
                    "time": 32.582014999999934,
                    "velocity": 0.6220472440944882,
                    "duration": 0.24334052083333546
                },
                {
                    "name": "G4",
                    "midi": 67,
                    "time": 32.582014999999934,
                    "velocity": 0.6220472440944882,
                    "duration": 0.24334052083333546
                },
                {
                    "name": "E4",
                    "midi": 64,
                    "time": 32.827916999999935,
                    "velocity": 0.6220472440944882,
                    "duration": 0.12192640833333002
                },
                {
                    "name": "G4",
                    "midi": 67,
                    "time": 32.827916999999935,
                    "velocity": 0.6220472440944882,
                    "duration": 0.12192640833333002
                },
                {
                    "name": "C5",
                    "midi": 72,
                    "time": 32.827916999999935,
                    "velocity": 0.6220472440944882,
                    "duration": 0.12192640833333002
                },
                {
                    "name": "F4",
                    "midi": 65,
                    "time": 32.95086799999993,
                    "velocity": 0.7480314960629921,
                    "duration": 0.24334052083333546
                },
                {
                    "name": "C5",
                    "midi": 72,
                    "time": 32.95086799999993,
                    "velocity": 0.7480314960629921,
                    "duration": 0.24334052083333546
                },
                {
                    "name": "G4",
                    "midi": 67,
                    "time": 32.95086799999993,
                    "velocity": 0.7480314960629921,
                    "duration": 0.24334052083333546
                },
                {
                    "name": "E4",
                    "midi": 64,
                    "time": 33.31972099999993,
                    "velocity": 0.6220472440944882,
                    "duration": 0.24334052083333546
                },
                {
                    "name": "G4",
                    "midi": 67,
                    "time": 33.31972099999993,
                    "velocity": 0.6220472440944882,
                    "duration": 0.24334052083333546
                },
                {
                    "name": "C5",
                    "midi": 72,
                    "time": 33.31972099999993,
                    "velocity": 0.6220472440944882,
                    "duration": 0.24334052083333546
                },
                {
                    "name": "E4",
                    "midi": 64,
                    "time": 33.56562299999993,
                    "velocity": 0.6220472440944882,
                    "duration": 0.12192640833333002
                },
                {
                    "name": "C5",
                    "midi": 72,
                    "time": 33.56562299999993,
                    "velocity": 0.6220472440944882,
                    "duration": 0.12192640833333002
                },
                {
                    "name": "G4",
                    "midi": 67,
                    "time": 33.56562299999993,
                    "velocity": 0.6220472440944882,
                    "duration": 0.12192640833333002
                },
                {
                    "name": "G4",
                    "midi": 67,
                    "time": 33.688573999999925,
                    "velocity": 0.7480314960629921,
                    "duration": 0.24334052083333546
                },
                {
                    "name": "C5",
                    "midi": 72,
                    "time": 33.688573999999925,
                    "velocity": 0.7480314960629921,
                    "duration": 0.24334052083333546
                },
                {
                    "name": "C4",
                    "midi": 60,
                    "time": 33.688573999999925,
                    "velocity": 0.7480314960629921,
                    "duration": 0.24334052083333546
                },
                {
                    "name": "C5",
                    "midi": 72,
                    "time": 34.057426999999926,
                    "velocity": 0.6062992125984252,
                    "duration": 0.24334052083333546
                },
                {
                    "name": "D4",
                    "midi": 62,
                    "time": 34.057426999999926,
                    "velocity": 0.6062992125984252,
                    "duration": 0.24334052083333546
                },
                {
                    "name": "G4",
                    "midi": 67,
                    "time": 34.057426999999926,
                    "velocity": 0.6062992125984252,
                    "duration": 0.24334052083333546
                },
                {
                    "name": "C5",
                    "midi": 72,
                    "time": 34.30332899999993,
                    "velocity": 0.6062992125984252,
                    "duration": 0.12192640833333002
                },
                {
                    "name": "D4",
                    "midi": 62,
                    "time": 34.30332899999993,
                    "velocity": 0.6062992125984252,
                    "duration": 0.12192640833333002
                },
                {
                    "name": "G4",
                    "midi": 67,
                    "time": 34.30332899999993,
                    "velocity": 0.6062992125984252,
                    "duration": 0.12192640833333002
                },
                {
                    "name": "C5",
                    "midi": 72,
                    "time": 34.42627999999992,
                    "velocity": 0.7480314960629921,
                    "duration": 0.24334052083333546
                },
                {
                    "name": "E4",
                    "midi": 64,
                    "time": 34.42627999999992,
                    "velocity": 0.7480314960629921,
                    "duration": 0.24334052083333546
                },
                {
                    "name": "G4",
                    "midi": 67,
                    "time": 34.42627999999992,
                    "velocity": 0.7480314960629921,
                    "duration": 0.24334052083333546
                },
                {
                    "name": "C5",
                    "midi": 72,
                    "time": 34.79513299999992,
                    "velocity": 0.5984251968503937,
                    "duration": 0.24334052083333546
                },
                {
                    "name": "G4",
                    "midi": 67,
                    "time": 34.79513299999992,
                    "velocity": 0.5984251968503937,
                    "duration": 0.24334052083333546
                },
                {
                    "name": "C4",
                    "midi": 60,
                    "time": 34.79513299999992,
                    "velocity": 0.5984251968503937,
                    "duration": 0.24334052083333546
                },
                {
                    "name": "C5",
                    "midi": 72,
                    "time": 35.04103499999992,
                    "velocity": 0.5984251968503937,
                    "duration": 0.12192640833333002
                },
                {
                    "name": "C4",
                    "midi": 60,
                    "time": 35.04103499999992,
                    "velocity": 0.5984251968503937,
                    "duration": 0.12192640833333002
                },
                {
                    "name": "C5",
                    "midi": 72,
                    "time": 35.163985999999916,
                    "velocity": 0.7480314960629921,
                    "duration": 0.24590200000000095
                },
                {
                    "name": "C4",
                    "midi": 60,
                    "time": 35.163985999999916,
                    "velocity": 0.7480314960629921,
                    "duration": 0.24590200000000095
                }
            ],
            "controlChanges": {
                "7": [
                    {
                        "number": 7,
                        "time": 0,
                        "value": 0.7874015748031497
                    }
                ],
                "10": [
                    {
                        "number": 10,
                        "time": 0,
                        "value": 0.5039370078740157
                    }
                ],
                "91": [
                    {
                        "number": 91,
                        "time": 0,
                        "value": 1
                    },
                    {
                        "number": 91,
                        "time": 2.9508240000000003,
                        "value": 1
                    },
                    {
                        "number": 91,
                        "time": 5.901648000000003,
                        "value": 1
                    },
                    {
                        "number": 91,
                        "time": 8.852472000000008,
                        "value": 1
                    },
                    {
                        "number": 91,
                        "time": 11.803296000000014,
                        "value": 1
                    },
                    {
                        "number": 91,
                        "time": 12.541002000000017,
                        "value": 1
                    },
                    {
                        "number": 91,
                        "time": 13.27870800000002,
                        "value": 1
                    },
                    {
                        "number": 91,
                        "time": 14.016414000000022,
                        "value": 1
                    },
                    {
                        "number": 91,
                        "time": 14.754120000000025,
                        "value": 1
                    },
                    {
                        "number": 91,
                        "time": 15.491826000000028,
                        "value": 1
                    },
                    {
                        "number": 91,
                        "time": 16.229532000000027,
                        "value": 1
                    },
                    {
                        "number": 91,
                        "time": 16.967238000000023,
                        "value": 1
                    },
                    {
                        "number": 91,
                        "time": 17.70494400000002,
                        "value": 1
                    },
                    {
                        "number": 91,
                        "time": 20.655768000000002,
                        "value": 1
                    },
                    {
                        "number": 91,
                        "time": 23.60659199999999,
                        "value": 1
                    },
                    {
                        "number": 91,
                        "time": 24.344297999999984,
                        "value": 1
                    },
                    {
                        "number": 91,
                        "time": 25.08200399999998,
                        "value": 1
                    },
                    {
                        "number": 91,
                        "time": 25.819709999999976,
                        "value": 1
                    },
                    {
                        "number": 91,
                        "time": 26.55741599999997,
                        "value": 1
                    },
                    {
                        "number": 91,
                        "time": 27.295121999999967,
                        "value": 1
                    },
                    {
                        "number": 91,
                        "time": 28.032827999999963,
                        "value": 1
                    },
                    {
                        "number": 91,
                        "time": 28.77053399999996,
                        "value": 1
                    },
                    {
                        "number": 91,
                        "time": 29.508239999999955,
                        "value": 1
                    },
                    {
                        "number": 91,
                        "time": 32.459063999999934,
                        "value": 1
                    }
                ]
            },
            "id": 1,
            "name": "Piano right",
            "instrumentNumber": 0,
            "instrument": "acoustic grand piano",
            "instrumentFamily": "piano",
            "channelNumber": 0,
            "isPercussion": false
        },
        {
            "startTime": 0.0005122958333333334,
            "duration": 35.409887999999995,
            "length": 188,
            "notes": [
                {
                    "name": "E4",
                    "midi": 64,
                    "time": 0.0005122958333333334,
                    "velocity": 0.5354330708661418,
                    "duration": 0.491804
                },
                {
                    "name": "G4",
                    "midi": 67,
                    "time": 0.0005122958333333334,
                    "velocity": 0.5354330708661418,
                    "duration": 0.491804
                },
                {
                    "name": "G3",
                    "midi": 55,
                    "time": 0.245902,
                    "velocity": 0.48031496062992124,
                    "duration": 0.7377060000000002
                },
                {
                    "name": "D#4",
                    "midi": 63,
                    "time": 0.491804,
                    "velocity": 0.4015748031496063,
                    "duration": 0.24334052083333335
                },
                {
                    "name": "F#4",
                    "midi": 66,
                    "time": 0.491804,
                    "velocity": 0.4015748031496063,
                    "duration": 0.24334052083333335
                },
                {
                    "name": "E4",
                    "midi": 64,
                    "time": 0.7377060000000001,
                    "velocity": 0.5511811023622047,
                    "duration": 0.491804
                },
                {
                    "name": "G4",
                    "midi": 67,
                    "time": 0.7377060000000001,
                    "velocity": 0.5511811023622047,
                    "duration": 0.491804
                },
                {
                    "name": "G3",
                    "midi": 55,
                    "time": 0.9836080000000001,
                    "velocity": 0.4645669291338583,
                    "duration": 0.7377059999999999
                },
                {
                    "name": "G4",
                    "midi": 67,
                    "time": 1.22951,
                    "velocity": 0.4015748031496063,
                    "duration": 0.24334052083333324
                },
                {
                    "name": "C4",
                    "midi": 60,
                    "time": 1.22951,
                    "velocity": 0.4015748031496063,
                    "duration": 0.24334052083333324
                },
                {
                    "name": "G4",
                    "midi": 67,
                    "time": 1.475412,
                    "velocity": 0.5433070866141733,
                    "duration": 0.49180400000000013
                },
                {
                    "name": "D4",
                    "midi": 62,
                    "time": 1.475412,
                    "velocity": 0.5433070866141733,
                    "duration": 0.49180400000000013
                },
                {
                    "name": "G3",
                    "midi": 55,
                    "time": 1.721314,
                    "velocity": 0.4566929133858268,
                    "duration": 0.7377060000000002
                },
                {
                    "name": "B3",
                    "midi": 59,
                    "time": 1.967216,
                    "velocity": 0.3700787401574803,
                    "duration": 0.24334052083333324
                },
                {
                    "name": "G4",
                    "midi": 67,
                    "time": 1.967216,
                    "velocity": 0.3700787401574803,
                    "duration": 0.24334052083333324
                },
                {
                    "name": "C4",
                    "midi": 60,
                    "time": 2.213118,
                    "velocity": 0.5433070866141733,
                    "duration": 0.49180400000000013
                },
                {
                    "name": "G4",
                    "midi": 67,
                    "time": 2.213118,
                    "velocity": 0.5433070866141733,
                    "duration": 0.4902671125000002
                },
                {
                    "name": "G3",
                    "midi": 55,
                    "time": 2.45902,
                    "velocity": 0.44881889763779526,
                    "duration": 0.7377060000000002
                },
                {
                    "name": "C4",
                    "midi": 60,
                    "time": 2.7049220000000003,
                    "velocity": 0.36220472440944884,
                    "duration": 0.24334052083333324
                },
                {
                    "name": "E4",
                    "midi": 64,
                    "time": 2.7049220000000003,
                    "velocity": 0.36220472440944884,
                    "duration": 0.24334052083333324
                },
                {
                    "name": "E4",
                    "midi": 64,
                    "time": 2.951336295833334,
                    "velocity": 0.5196850393700787,
                    "duration": 0.49180400000000013
                },
                {
                    "name": "G3",
                    "midi": 55,
                    "time": 3.1967260000000004,
                    "velocity": 0.36220472440944884,
                    "duration": 0.7377060000000002
                },
                {
                    "name": "F4",
                    "midi": 65,
                    "time": 3.4426280000000005,
                    "velocity": 0.30708661417322836,
                    "duration": 0.24334052083333324
                },
                {
                    "name": "E4",
                    "midi": 64,
                    "time": 3.6885300000000005,
                    "velocity": 0.5196850393700787,
                    "duration": 0.4902671125000002
                },
                {
                    "name": "G3",
                    "midi": 55,
                    "time": 3.9344320000000006,
                    "velocity": 0.3464566929133858,
                    "duration": 0.7377060000000006
                },
                {
                    "name": "C4",
                    "midi": 60,
                    "time": 4.180334000000001,
                    "velocity": 0.30708661417322836,
                    "duration": 0.24334052083333368
                },
                {
                    "name": "D4",
                    "midi": 62,
                    "time": 4.426236000000001,
                    "velocity": 0.4645669291338583,
                    "duration": 0.49180400000000013
                },
                {
                    "name": "G3",
                    "midi": 55,
                    "time": 4.672138000000001,
                    "velocity": 0.3464566929133858,
                    "duration": 0.7377060000000002
                },
                {
                    "name": "E4",
                    "midi": 64,
                    "time": 4.918040000000001,
                    "velocity": 0.2992125984251969,
                    "duration": 0.24334052083333368
                },
                {
                    "name": "C4",
                    "midi": 60,
                    "time": 5.163942000000001,
                    "velocity": 0.44881889763779526,
                    "duration": 0.49180400000000013
                },
                {
                    "name": "G3",
                    "midi": 55,
                    "time": 5.409844000000001,
                    "velocity": 0.3464566929133858,
                    "duration": 0.49180400000000013
                },
                {
                    "name": "C4",
                    "midi": 60,
                    "time": 5.6557460000000015,
                    "velocity": 0.2755905511811024,
                    "duration": 0.24334052083333368
                },
                {
                    "name": "G4",
                    "midi": 67,
                    "time": 5.902160295833335,
                    "velocity": 0.5748031496062992,
                    "duration": 0.49180400000000013
                },
                {
                    "name": "E4",
                    "midi": 64,
                    "time": 5.902160295833335,
                    "velocity": 0.5748031496062992,
                    "duration": 0.49180400000000013
                },
                {
                    "name": "G3",
                    "midi": 55,
                    "time": 6.147550000000002,
                    "velocity": 0.48031496062992124,
                    "duration": 0.7377060000000002
                },
                {
                    "name": "D#4",
                    "midi": 63,
                    "time": 6.393452000000002,
                    "velocity": 0.4015748031496063,
                    "duration": 0.24334052083333368
                },
                {
                    "name": "F#4",
                    "midi": 66,
                    "time": 6.393452000000002,
                    "velocity": 0.4015748031496063,
                    "duration": 0.24334052083333368
                },
                {
                    "name": "E4",
                    "midi": 64,
                    "time": 6.639354000000002,
                    "velocity": 0.5748031496062992,
                    "duration": 0.49180400000000013
                },
                {
                    "name": "G4",
                    "midi": 67,
                    "time": 6.639354000000002,
                    "velocity": 0.5748031496062992,
                    "duration": 0.49180400000000013
                },
                {
                    "name": "G3",
                    "midi": 55,
                    "time": 6.885256000000002,
                    "velocity": 0.4645669291338583,
                    "duration": 0.7377060000000002
                },
                {
                    "name": "C4",
                    "midi": 60,
                    "time": 7.131158000000002,
                    "velocity": 0.4015748031496063,
                    "duration": 0.24334052083333368
                },
                {
                    "name": "G4",
                    "midi": 67,
                    "time": 7.131158000000002,
                    "velocity": 0.4015748031496063,
                    "duration": 0.24334052083333368
                },
                {
                    "name": "D4",
                    "midi": 62,
                    "time": 7.377060000000002,
                    "velocity": 0.5511811023622047,
                    "duration": 0.49180400000000013
                },
                {
                    "name": "G4",
                    "midi": 67,
                    "time": 7.377060000000002,
                    "velocity": 0.5511811023622047,
                    "duration": 0.49180400000000013
                },
                {
                    "name": "G3",
                    "midi": 55,
                    "time": 7.622962000000002,
                    "velocity": 0.4566929133858268,
                    "duration": 0.737706000000002
                },
                {
                    "name": "B3",
                    "midi": 59,
                    "time": 7.868864000000002,
                    "velocity": 0.3700787401574803,
                    "duration": 0.24334052083333368
                },
                {
                    "name": "G4",
                    "midi": 67,
                    "time": 7.868864000000002,
                    "velocity": 0.3700787401574803,
                    "duration": 0.24334052083333368
                },
                {
                    "name": "C4",
                    "midi": 60,
                    "time": 8.114766000000003,
                    "velocity": 0.5590551181102362,
                    "duration": 0.4918040000000019
                },
                {
                    "name": "G4",
                    "midi": 67,
                    "time": 8.114766000000003,
                    "velocity": 0.5590551181102362,
                    "duration": 0.4897548166666681
                },
                {
                    "name": "G3",
                    "midi": 55,
                    "time": 8.360668000000004,
                    "velocity": 0.44881889763779526,
                    "duration": 0.7377060000000029
                },
                {
                    "name": "C4",
                    "midi": 60,
                    "time": 8.606570000000005,
                    "velocity": 0.36220472440944884,
                    "duration": 0.24334052083333368
                },
                {
                    "name": "E4",
                    "midi": 64,
                    "time": 8.606570000000005,
                    "velocity": 0.36220472440944884,
                    "duration": 0.24334052083333368
                },
                {
                    "name": "E4",
                    "midi": 64,
                    "time": 8.85298429583334,
                    "velocity": 0.5196850393700787,
                    "duration": 0.49180400000000013
                },
                {
                    "name": "G3",
                    "midi": 55,
                    "time": 9.098374000000007,
                    "velocity": 0.36220472440944884,
                    "duration": 0.7377060000000011
                },
                {
                    "name": "F4",
                    "midi": 65,
                    "time": 9.344276000000006,
                    "velocity": 0.30708661417322836,
                    "duration": 0.24334052083333368
                },
                {
                    "name": "E4",
                    "midi": 64,
                    "time": 9.590178000000007,
                    "velocity": 0.5196850393700787,
                    "duration": 0.49026711250000155
                },
                {
                    "name": "G3",
                    "midi": 55,
                    "time": 9.836080000000008,
                    "velocity": 0.3464566929133858,
                    "duration": 0.7377060000000011
                },
                {
                    "name": "C4",
                    "midi": 60,
                    "time": 10.081982000000009,
                    "velocity": 0.30708661417322836,
                    "duration": 0.24334052083333368
                },
                {
                    "name": "D4",
                    "midi": 62,
                    "time": 10.32788400000001,
                    "velocity": 0.4645669291338583,
                    "duration": 0.49180399999999835
                },
                {
                    "name": "G3",
                    "midi": 55,
                    "time": 10.573786000000009,
                    "velocity": 0.3464566929133858,
                    "duration": 0.7377059999999993
                },
                {
                    "name": "E4",
                    "midi": 64,
                    "time": 10.819688000000008,
                    "velocity": 0.2992125984251969,
                    "duration": 0.24334052083333368
                },
                {
                    "name": "C4",
                    "midi": 60,
                    "time": 11.06559000000001,
                    "velocity": 0.44881889763779526,
                    "duration": 0.49180399999999835
                },
                {
                    "name": "G3",
                    "midi": 55,
                    "time": 11.311492000000008,
                    "velocity": 0.3464566929133858,
                    "duration": 0.49180399999999835
                },
                {
                    "name": "C4",
                    "midi": 60,
                    "time": 11.557394000000007,
                    "velocity": 0.2755905511811024,
                    "duration": 0.2433405208333319
                },
                {
                    "name": "A#3",
                    "midi": 58,
                    "time": 11.803296000000007,
                    "velocity": 0.47244094488188976,
                    "duration": 0.49180400000000013
                },
                {
                    "name": "C4",
                    "midi": 60,
                    "time": 12.049198000000008,
                    "velocity": 0.4566929133858268,
                    "duration": 0.7377059999999975
                },
                {
                    "name": "A3",
                    "midi": 57,
                    "time": 12.295100000000007,
                    "velocity": 0.4409448818897638,
                    "duration": 0.24590199999999918
                },
                {
                    "name": "G3",
                    "midi": 55,
                    "time": 12.541002000000006,
                    "velocity": 0.5039370078740157,
                    "duration": 0.49180399999999835
                },
                {
                    "name": "C4",
                    "midi": 60,
                    "time": 12.786904000000005,
                    "velocity": 0.47244094488188976,
                    "duration": 0.7377059999999975
                },
                {
                    "name": "F3",
                    "midi": 53,
                    "time": 13.032806000000004,
                    "velocity": 0.4566929133858268,
                    "duration": 0.24590199999999918
                },
                {
                    "name": "E3",
                    "midi": 52,
                    "time": 13.278708000000004,
                    "velocity": 0.5511811023622047,
                    "duration": 0.49180399999999835
                },
                {
                    "name": "C4",
                    "midi": 60,
                    "time": 13.524610000000003,
                    "velocity": 0.5354330708661418,
                    "duration": 0.24590199999999918
                },
                {
                    "name": "C#4",
                    "midi": 61,
                    "time": 13.770512000000002,
                    "velocity": 0.5354330708661418,
                    "duration": 0.49180400000000013
                },
                {
                    "name": "D#3",
                    "midi": 51,
                    "time": 13.770512000000002,
                    "velocity": 0.5354330708661418,
                    "duration": 0.24590199999999918
                },
                {
                    "name": "D3",
                    "midi": 50,
                    "time": 14.016414000000001,
                    "velocity": 0.6141732283464567,
                    "duration": 0.49180400000000013
                },
                {
                    "name": "D4",
                    "midi": 62,
                    "time": 14.262316000000002,
                    "velocity": 0.5748031496062992,
                    "duration": 0.24590199999999918
                },
                {
                    "name": "E4",
                    "midi": 64,
                    "time": 14.508218000000001,
                    "velocity": 0.5748031496062992,
                    "duration": 0.24590200000000095
                },
                {
                    "name": "C#3",
                    "midi": 49,
                    "time": 14.508218000000001,
                    "velocity": 0.5748031496062992,
                    "duration": 0.24590200000000095
                },
                {
                    "name": "D3",
                    "midi": 50,
                    "time": 14.754120000000002,
                    "velocity": 0.6771653543307087,
                    "duration": 0.49180400000000013
                },
                {
                    "name": "D4",
                    "midi": 62,
                    "time": 15.000022000000003,
                    "velocity": 0.6377952755905512,
                    "duration": 0.24590199999999918
                },
                {
                    "name": "G3",
                    "midi": 55,
                    "time": 15.245924000000002,
                    "velocity": 0.6062992125984252,
                    "duration": 0.24590200000000095
                },
                {
                    "name": "G2",
                    "midi": 43,
                    "time": 15.245924000000002,
                    "velocity": 0.6062992125984252,
                    "duration": 0.24590200000000095
                },
                {
                    "name": "A2",
                    "midi": 45,
                    "time": 15.491826000000003,
                    "velocity": 0.7480314960629921,
                    "duration": 0.49180400000000013
                },
                {
                    "name": "A3",
                    "midi": 57,
                    "time": 15.737728000000004,
                    "velocity": 0.7244094488188977,
                    "duration": 0.24590199999999918
                },
                {
                    "name": "A2",
                    "midi": 45,
                    "time": 15.983630000000003,
                    "velocity": 0.7086614173228346,
                    "duration": 0.24590199999999918
                },
                {
                    "name": "A1",
                    "midi": 33,
                    "time": 15.983630000000003,
                    "velocity": 0.7086614173228346,
                    "duration": 0.24590199999999918
                },
                {
                    "name": "D2",
                    "midi": 38,
                    "time": 16.229532000000003,
                    "velocity": 0.8031496062992126,
                    "duration": 0.4918040000000019
                },
                {
                    "name": "D3",
                    "midi": 50,
                    "time": 16.475434000000003,
                    "velocity": 0.7480314960629921,
                    "duration": 0.24590200000000095
                },
                {
                    "name": "G#2",
                    "midi": 44,
                    "time": 16.721336000000004,
                    "velocity": 0.7244094488188977,
                    "duration": 0.2459019999999974
                },
                {
                    "name": "G#1",
                    "midi": 32,
                    "time": 16.721336000000004,
                    "velocity": 0.7244094488188977,
                    "duration": 0.2459019999999974
                },
                {
                    "name": "G1",
                    "midi": 31,
                    "time": 16.967238000000002,
                    "velocity": 0.8267716535433071,
                    "duration": 0.2459019999999974
                },
                {
                    "name": "G2",
                    "midi": 43,
                    "time": 16.967238000000002,
                    "velocity": 0.8267716535433071,
                    "duration": 0.2459019999999974
                },
                {
                    "name": "G3",
                    "midi": 55,
                    "time": 17.21314,
                    "velocity": 0.7874015748031497,
                    "duration": 0.24590200000000095
                },
                {
                    "name": "G2",
                    "midi": 43,
                    "time": 17.459042,
                    "velocity": 0.7480314960629921,
                    "duration": 0.24590200000000095
                },
                {
                    "name": "G1",
                    "midi": 31,
                    "time": 17.459042,
                    "velocity": 0.7480314960629921,
                    "duration": 0.24590200000000095
                },
                {
                    "name": "C2",
                    "midi": 36,
                    "time": 17.704944,
                    "velocity": 0.8503937007874016,
                    "duration": 0.24590200000000095
                },
                {
                    "name": "E3",
                    "midi": 52,
                    "time": 17.950846000000002,
                    "velocity": 0.7086614173228346,
                    "duration": 0.24590200000000095
                },
                {
                    "name": "F3",
                    "midi": 53,
                    "time": 18.196748000000003,
                    "velocity": 0.6771653543307087,
                    "duration": 0.2459019999999974
                },
                {
                    "name": "E3",
                    "midi": 52,
                    "time": 18.44265,
                    "velocity": 0.8503937007874016,
                    "duration": 0.4918040000000019
                },
                {
                    "name": "C2",
                    "midi": 36,
                    "time": 18.688552,
                    "velocity": 0.7086614173228346,
                    "duration": 0.49180399999999835
                },
                {
                    "name": "C3",
                    "midi": 48,
                    "time": 18.934454000000002,
                    "velocity": 0.6850393700787402,
                    "duration": 0.2459019999999974
                },
                {
                    "name": "D3",
                    "midi": 50,
                    "time": 19.180356,
                    "velocity": 0.8661417322834646,
                    "duration": 0.4918040000000019
                },
                {
                    "name": "C2",
                    "midi": 36,
                    "time": 19.426258,
                    "velocity": 0.7244094488188977,
                    "duration": 0.49180399999999835
                },
                {
                    "name": "E3",
                    "midi": 52,
                    "time": 19.67216,
                    "velocity": 0.6850393700787402,
                    "duration": 0.2459019999999974
                },
                {
                    "name": "C3",
                    "midi": 48,
                    "time": 19.918062,
                    "velocity": 0.8582677165354331,
                    "duration": 0.49180399999999835
                },
                {
                    "name": "C2",
                    "midi": 36,
                    "time": 20.163963999999996,
                    "velocity": 0.7322834645669292,
                    "duration": 0.4918040000000019
                },
                {
                    "name": "G2",
                    "midi": 43,
                    "time": 20.409865999999997,
                    "velocity": 0.7165354330708661,
                    "duration": 0.24590200000000095
                },
                {
                    "name": "E3",
                    "midi": 52,
                    "time": 20.655768,
                    "velocity": 0.8503937007874016,
                    "duration": 0.4918040000000019
                },
                {
                    "name": "G2",
                    "midi": 43,
                    "time": 20.655768,
                    "velocity": 0.7165354330708661,
                    "duration": 0.4918040000000019
                },
                {
                    "name": "C2",
                    "midi": 36,
                    "time": 20.90167,
                    "velocity": 0.6771653543307087,
                    "duration": 0.4918040000000019
                },
                {
                    "name": "A2",
                    "midi": 45,
                    "time": 21.147572,
                    "velocity": 0.6220472440944882,
                    "duration": 0.24590200000000095
                },
                {
                    "name": "F3",
                    "midi": 53,
                    "time": 21.147572,
                    "velocity": 0.7401574803149606,
                    "duration": 0.24590200000000095
                },
                {
                    "name": "G2",
                    "midi": 43,
                    "time": 21.393474,
                    "velocity": 0.7165354330708661,
                    "duration": 0.49180399999999835
                },
                {
                    "name": "E3",
                    "midi": 52,
                    "time": 21.393474,
                    "velocity": 0.8503937007874016,
                    "duration": 0.49180399999999835
                },
                {
                    "name": "C2",
                    "midi": 36,
                    "time": 21.639376,
                    "velocity": 0.6771653543307087,
                    "duration": 0.4918040000000019
                },
                {
                    "name": "E2",
                    "midi": 40,
                    "time": 21.885278,
                    "velocity": 0.6141732283464567,
                    "duration": 0.24590200000000095
                },
                {
                    "name": "C3",
                    "midi": 48,
                    "time": 21.885278,
                    "velocity": 0.7322834645669292,
                    "duration": 0.24590200000000095
                },
                {
                    "name": "F2",
                    "midi": 41,
                    "time": 22.13118,
                    "velocity": 0.7086614173228346,
                    "duration": 0.4918040000000019
                },
                {
                    "name": "D3",
                    "midi": 50,
                    "time": 22.13118,
                    "velocity": 0.8346456692913385,
                    "duration": 0.4918040000000019
                },
                {
                    "name": "C2",
                    "midi": 36,
                    "time": 22.377082,
                    "velocity": 0.6850393700787402,
                    "duration": 0.4918040000000019
                },
                {
                    "name": "G2",
                    "midi": 43,
                    "time": 22.622984000000002,
                    "velocity": 0.6220472440944882,
                    "duration": 0.24590200000000095
                },
                {
                    "name": "E3",
                    "midi": 52,
                    "time": 22.622984000000002,
                    "velocity": 0.7401574803149606,
                    "duration": 0.24590200000000095
                },
                {
                    "name": "E2",
                    "midi": 40,
                    "time": 22.868886000000003,
                    "velocity": 0.7007874015748031,
                    "duration": 0.4918040000000019
                },
                {
                    "name": "C3",
                    "midi": 48,
                    "time": 22.868886000000003,
                    "velocity": 0.8267716535433071,
                    "duration": 0.4918040000000019
                },
                {
                    "name": "C2",
                    "midi": 36,
                    "time": 23.114788000000004,
                    "velocity": 0.6929133858267716,
                    "duration": 0.49180399999999835
                },
                {
                    "name": "C3",
                    "midi": 48,
                    "time": 23.360690000000005,
                    "velocity": 0.7480314960629921,
                    "duration": 0.18442649999999716
                },
                {
                    "name": "A#3",
                    "midi": 58,
                    "time": 23.606592000000003,
                    "velocity": 0.47244094488188976,
                    "duration": 0.4918040000000019
                },
                {
                    "name": "C4",
                    "midi": 60,
                    "time": 23.852494000000004,
                    "velocity": 0.4566929133858268,
                    "duration": 0.7377060000000029
                },
                {
                    "name": "A3",
                    "midi": 57,
                    "time": 24.098396000000005,
                    "velocity": 0.4409448818897638,
                    "duration": 0.24590200000000095
                },
                {
                    "name": "G3",
                    "midi": 55,
                    "time": 24.344298000000006,
                    "velocity": 0.5039370078740157,
                    "duration": 0.4918040000000019
                },
                {
                    "name": "C4",
                    "midi": 60,
                    "time": 24.590200000000006,
                    "velocity": 0.47244094488188976,
                    "duration": 0.7377059999999958
                },
                {
                    "name": "F3",
                    "midi": 53,
                    "time": 24.836102000000007,
                    "velocity": 0.4566929133858268,
                    "duration": 0.2459019999999974
                },
                {
                    "name": "E3",
                    "midi": 52,
                    "time": 25.082004000000005,
                    "velocity": 0.5511811023622047,
                    "duration": 0.49180399999999835
                },
                {
                    "name": "C4",
                    "midi": 60,
                    "time": 25.327906000000002,
                    "velocity": 0.5354330708661418,
                    "duration": 0.24590200000000095
                },
                {
                    "name": "C#4",
                    "midi": 61,
                    "time": 25.573808000000003,
                    "velocity": 0.5354330708661418,
                    "duration": 0.49180399999999835
                },
                {
                    "name": "D#3",
                    "midi": 51,
                    "time": 25.573808000000003,
                    "velocity": 0.5354330708661418,
                    "duration": 0.24590200000000095
                },
                {
                    "name": "D3",
                    "midi": 50,
                    "time": 25.819710000000004,
                    "velocity": 0.6141732283464567,
                    "duration": 0.49180399999999835
                },
                {
                    "name": "D4",
                    "midi": 62,
                    "time": 26.065612,
                    "velocity": 0.5748031496062992,
                    "duration": 0.24590200000000095
                },
                {
                    "name": "E4",
                    "midi": 64,
                    "time": 26.311514000000003,
                    "velocity": 0.5748031496062992,
                    "duration": 0.2459019999999974
                },
                {
                    "name": "C#3",
                    "midi": 49,
                    "time": 26.311514000000003,
                    "velocity": 0.5748031496062992,
                    "duration": 0.2459019999999974
                },
                {
                    "name": "D3",
                    "midi": 50,
                    "time": 26.557416,
                    "velocity": 0.6771653543307087,
                    "duration": 0.4918040000000019
                },
                {
                    "name": "D4",
                    "midi": 62,
                    "time": 26.803318,
                    "velocity": 0.6377952755905512,
                    "duration": 0.24590200000000095
                },
                {
                    "name": "G3",
                    "midi": 55,
                    "time": 27.049220000000002,
                    "velocity": 0.6062992125984252,
                    "duration": 0.24590200000000095
                },
                {
                    "name": "G2",
                    "midi": 43,
                    "time": 27.049220000000002,
                    "velocity": 0.6062992125984252,
                    "duration": 0.24590200000000095
                },
                {
                    "name": "A2",
                    "midi": 45,
                    "time": 27.295122000000003,
                    "velocity": 0.7480314960629921,
                    "duration": 0.4918040000000019
                },
                {
                    "name": "A3",
                    "midi": 57,
                    "time": 27.541024000000004,
                    "velocity": 0.7244094488188977,
                    "duration": 0.24590200000000095
                },
                {
                    "name": "A2",
                    "midi": 45,
                    "time": 27.786926000000005,
                    "velocity": 0.7086614173228346,
                    "duration": 0.2459019999999974
                },
                {
                    "name": "A1",
                    "midi": 33,
                    "time": 27.786926000000005,
                    "velocity": 0.7086614173228346,
                    "duration": 0.2459019999999974
                },
                {
                    "name": "D2",
                    "midi": 38,
                    "time": 28.032828000000002,
                    "velocity": 0.8031496062992126,
                    "duration": 0.49180399999999835
                },
                {
                    "name": "D3",
                    "midi": 50,
                    "time": 28.27873,
                    "velocity": 0.7480314960629921,
                    "duration": 0.24590200000000095
                },
                {
                    "name": "G#2",
                    "midi": 44,
                    "time": 28.524632,
                    "velocity": 0.7244094488188977,
                    "duration": 0.2459019999999974
                },
                {
                    "name": "G#1",
                    "midi": 32,
                    "time": 28.524632,
                    "velocity": 0.7244094488188977,
                    "duration": 0.2459019999999974
                },
                {
                    "name": "G1",
                    "midi": 31,
                    "time": 28.770533999999998,
                    "velocity": 0.8267716535433071,
                    "duration": 0.2459019999999974
                },
                {
                    "name": "G2",
                    "midi": 43,
                    "time": 28.770533999999998,
                    "velocity": 0.8267716535433071,
                    "duration": 0.2459019999999974
                },
                {
                    "name": "G3",
                    "midi": 55,
                    "time": 29.016435999999995,
                    "velocity": 0.7874015748031497,
                    "duration": 0.24590200000000095
                },
                {
                    "name": "G2",
                    "midi": 43,
                    "time": 29.262337999999996,
                    "velocity": 0.7480314960629921,
                    "duration": 0.24590200000000095
                },
                {
                    "name": "G1",
                    "midi": 31,
                    "time": 29.262337999999996,
                    "velocity": 0.7480314960629921,
                    "duration": 0.24590200000000095
                },
                {
                    "name": "C2",
                    "midi": 36,
                    "time": 29.508239999999997,
                    "velocity": 0.8818897637795275,
                    "duration": 0.2459019999999974
                },
                {
                    "name": "E3",
                    "midi": 52,
                    "time": 29.754141999999995,
                    "velocity": 0.7165354330708661,
                    "duration": 0.24590200000000095
                },
                {
                    "name": "F3",
                    "midi": 53,
                    "time": 30.000043999999995,
                    "velocity": 0.6771653543307087,
                    "duration": 0.2459019999999974
                },
                {
                    "name": "E3",
                    "midi": 52,
                    "time": 30.245945999999993,
                    "velocity": 0.8661417322834646,
                    "duration": 0.49180399999999835
                },
                {
                    "name": "C2",
                    "midi": 36,
                    "time": 30.49184799999999,
                    "velocity": 0.7165354330708661,
                    "duration": 0.4918040000000019
                },
                {
                    "name": "C3",
                    "midi": 48,
                    "time": 30.73774999999999,
                    "velocity": 0.6771653543307087,
                    "duration": 0.24590200000000095
                },
                {
                    "name": "D3",
                    "midi": 50,
                    "time": 30.983651999999992,
                    "velocity": 0.8503937007874016,
                    "duration": 0.4918040000000019
                },
                {
                    "name": "C2",
                    "midi": 36,
                    "time": 31.229553999999993,
                    "velocity": 0.7165354330708661,
                    "duration": 0.49180399999999835
                },
                {
                    "name": "E3",
                    "midi": 52,
                    "time": 31.475455999999994,
                    "velocity": 0.6929133858267716,
                    "duration": 0.2459019999999974
                },
                {
                    "name": "C3",
                    "midi": 48,
                    "time": 31.72135799999999,
                    "velocity": 0.8582677165354331,
                    "duration": 0.49180399999999835
                },
                {
                    "name": "C2",
                    "midi": 36,
                    "time": 31.96725999999999,
                    "velocity": 0.7244094488188977,
                    "duration": 0.4918040000000019
                },
                {
                    "name": "G2",
                    "midi": 43,
                    "time": 32.21316199999999,
                    "velocity": 0.6929133858267716,
                    "duration": 0.24590200000000095
                },
                {
                    "name": "E3",
                    "midi": 52,
                    "time": 32.45906399999999,
                    "velocity": 0.84251968503937,
                    "duration": 0.4918040000000019
                },
                {
                    "name": "G2",
                    "midi": 43,
                    "time": 32.45906399999999,
                    "velocity": 0.84251968503937,
                    "duration": 0.4918040000000019
                },
                {
                    "name": "C2",
                    "midi": 36,
                    "time": 32.70496599999999,
                    "velocity": 0.7086614173228346,
                    "duration": 0.4918040000000019
                },
                {
                    "name": "A2",
                    "midi": 45,
                    "time": 32.95086799999999,
                    "velocity": 0.6850393700787402,
                    "duration": 0.24590200000000095
                },
                {
                    "name": "F3",
                    "midi": 53,
                    "time": 32.95086799999999,
                    "velocity": 0.6850393700787402,
                    "duration": 0.24590200000000095
                },
                {
                    "name": "G2",
                    "midi": 43,
                    "time": 33.196769999999994,
                    "velocity": 0.8503937007874016,
                    "duration": 0.4918039999999948
                },
                {
                    "name": "E3",
                    "midi": 52,
                    "time": 33.196769999999994,
                    "velocity": 0.8503937007874016,
                    "duration": 0.4918039999999948
                },
                {
                    "name": "C2",
                    "midi": 36,
                    "time": 33.44267199999999,
                    "velocity": 0.7086614173228346,
                    "duration": 0.4918040000000019
                },
                {
                    "name": "E2",
                    "midi": 40,
                    "time": 33.68857399999999,
                    "velocity": 0.6929133858267716,
                    "duration": 0.24590200000000095
                },
                {
                    "name": "C3",
                    "midi": 48,
                    "time": 33.68857399999999,
                    "velocity": 0.6929133858267716,
                    "duration": 0.24590200000000095
                },
                {
                    "name": "F2",
                    "midi": 41,
                    "time": 33.93447599999999,
                    "velocity": 0.8503937007874016,
                    "duration": 0.4918040000000019
                },
                {
                    "name": "D3",
                    "midi": 50,
                    "time": 33.93447599999999,
                    "velocity": 0.8503937007874016,
                    "duration": 0.4918040000000019
                },
                {
                    "name": "C2",
                    "midi": 36,
                    "time": 34.18037799999999,
                    "velocity": 0.7165354330708661,
                    "duration": 0.4918040000000019
                },
                {
                    "name": "G2",
                    "midi": 43,
                    "time": 34.42627999999999,
                    "velocity": 0.7007874015748031,
                    "duration": 0.24590200000000095
                },
                {
                    "name": "E3",
                    "midi": 52,
                    "time": 34.42627999999999,
                    "velocity": 0.7007874015748031,
                    "duration": 0.24590200000000095
                },
                {
                    "name": "E2",
                    "midi": 40,
                    "time": 34.67218199999999,
                    "velocity": 0.8582677165354331,
                    "duration": 0.4918040000000019
                },
                {
                    "name": "C3",
                    "midi": 48,
                    "time": 34.67218199999999,
                    "velocity": 0.8582677165354331,
                    "duration": 0.4918040000000019
                },
                {
                    "name": "C2",
                    "midi": 36,
                    "time": 34.91808399999999,
                    "velocity": 0.7244094488188977,
                    "duration": 0.4918040000000019
                },
                {
                    "name": "C3",
                    "midi": 48,
                    "time": 35.163985999999994,
                    "velocity": 0.8188976377952756,
                    "duration": 0.24590200000000095
                }
            ],
            "controlChanges": {
                "7": [
                    {
                        "number": 7,
                        "time": 0,
                        "value": 0.7874015748031497
                    }
                ],
                "10": [
                    {
                        "number": 10,
                        "time": 0,
                        "value": 0.5039370078740157
                    }
                ],
                "64": [
                    {
                        "number": 64,
                        "time": 0,
                        "value": 0
                    },
                    {
                        "number": 64,
                        "time": 0.11577885833333333,
                        "value": 1
                    },
                    {
                        "number": 64,
                        "time": 0.49539007083333336,
                        "value": 0
                    },
                    {
                        "number": 64,
                        "time": 0.8247962916666668,
                        "value": 1
                    },
                    {
                        "number": 64,
                        "time": 1.2366821416666667,
                        "value": 0
                    },
                    {
                        "number": 64,
                        "time": 1.576846575,
                        "value": 1
                    },
                    {
                        "number": 64,
                        "time": 1.9743881416666667,
                        "value": 0
                    },
                    {
                        "number": 64,
                        "time": 2.2781795708333337,
                        "value": 1
                    },
                    {
                        "number": 64,
                        "time": 2.716704804166667,
                        "value": 0
                    },
                    {
                        "number": 64,
                        "time": 3.037914291666667,
                        "value": 1
                    },
                    {
                        "number": 64,
                        "time": 3.449800141666667,
                        "value": 0
                    },
                    {
                        "number": 64,
                        "time": 3.753591570833334,
                        "value": 1
                    },
                    {
                        "number": 64,
                        "time": 4.187506141666668,
                        "value": 0
                    },
                    {
                        "number": 64,
                        "time": 4.5041049666666675,
                        "value": 1
                    },
                    {
                        "number": 64,
                        "time": 4.923162958333335,
                        "value": 0
                    },
                    {
                        "number": 64,
                        "time": 5.229003570833335,
                        "value": 1
                    },
                    {
                        "number": 64,
                        "time": 5.659332070833335,
                        "value": 0
                    },
                    {
                        "number": 64,
                        "time": 5.988738291666668,
                        "value": 1
                    },
                    {
                        "number": 64,
                        "time": 6.401648733333335,
                        "value": 0
                    },
                    {
                        "number": 64,
                        "time": 6.7264442916666685,
                        "value": 1
                    },
                    {
                        "number": 64,
                        "time": 7.140379325000002,
                        "value": 0
                    },
                    {
                        "number": 64,
                        "time": 7.478494575000002,
                        "value": 1
                    },
                    {
                        "number": 64,
                        "time": 7.875011550000002,
                        "value": 0
                    },
                    {
                        "number": 64,
                        "time": 8.209028433333337,
                        "value": 1
                    },
                    {
                        "number": 64,
                        "time": 8.614254437500005,
                        "value": 0
                    },
                    {
                        "number": 64,
                        "time": 9.004623862500006,
                        "value": 1
                    },
                    {
                        "number": 64,
                        "time": 9.353497325000006,
                        "value": 0
                    },
                    {
                        "number": 64,
                        "time": 9.720301141666674,
                        "value": 1
                    },
                    {
                        "number": 64,
                        "time": 10.089154141666675,
                        "value": 0
                    },
                    {
                        "number": 64,
                        "time": 10.392945570833342,
                        "value": 1
                    },
                    {
                        "number": 64,
                        "time": 10.826347845833341,
                        "value": 0
                    },
                    {
                        "number": 64,
                        "time": 11.137823712500008,
                        "value": 1
                    },
                    {
                        "number": 64,
                        "time": 11.56251695833334,
                        "value": 0
                    },
                    {
                        "number": 64,
                        "time": 11.911902716666674,
                        "value": 1
                    },
                    {
                        "number": 64,
                        "time": 12.302272141666673,
                        "value": 0
                    },
                    {
                        "number": 64,
                        "time": 12.638338208333339,
                        "value": 1
                    },
                    {
                        "number": 64,
                        "time": 13.040490437500004,
                        "value": 0
                    },
                    {
                        "number": 64,
                        "time": 13.369384362500004,
                        "value": 1
                    },
                    {
                        "number": 64,
                        "time": 13.778196437500002,
                        "value": 0
                    },
                    {
                        "number": 64,
                        "time": 14.117848575000002,
                        "value": 1
                    },
                    {
                        "number": 64,
                        "time": 14.511291775000002,
                        "value": 0
                    },
                    {
                        "number": 64,
                        "time": 14.86272671666667,
                        "value": 1
                    },
                    {
                        "number": 64,
                        "time": 15.254120733333336,
                        "value": 0
                    },
                    {
                        "number": 64,
                        "time": 15.614777000000004,
                        "value": 1
                    },
                    {
                        "number": 64,
                        "time": 15.989777550000003,
                        "value": 0
                    },
                    {
                        "number": 64,
                        "time": 16.30279030416667,
                        "value": 1
                    },
                    {
                        "number": 64,
                        "time": 16.729532733333336,
                        "value": 0
                    },
                    {
                        "number": 64,
                        "time": 17.097361141666667,
                        "value": 1
                    },
                    {
                        "number": 64,
                        "time": 17.464164958333335,
                        "value": 0
                    },
                    {
                        "number": 64,
                        "time": 17.784862150000002,
                        "value": 1
                    },
                    {
                        "number": 64,
                        "time": 18.205969325,
                        "value": 0
                    },
                    {
                        "number": 64,
                        "time": 18.5148837125,
                        "value": 1
                    },
                    {
                        "number": 64,
                        "time": 18.943675325,
                        "value": 0
                    },
                    {
                        "number": 64,
                        "time": 19.258224966666667,
                        "value": 1
                    },
                    {
                        "number": 64,
                        "time": 19.674721479166667,
                        "value": 0
                    },
                    {
                        "number": 64,
                        "time": 20.03384085833333,
                        "value": 1
                    },
                    {
                        "number": 64,
                        "time": 20.414988958333332,
                        "value": 0
                    },
                    {
                        "number": 64,
                        "time": 20.793063283333332,
                        "value": 1
                    },
                    {
                        "number": 64,
                        "time": 21.15371955,
                        "value": 0
                    },
                    {
                        "number": 64,
                        "time": 21.523597141666666,
                        "value": 1
                    },
                    {
                        "number": 64,
                        "time": 21.890400958333334,
                        "value": 0
                    },
                    {
                        "number": 64,
                        "time": 22.268475283333334,
                        "value": 1
                    },
                    {
                        "number": 64,
                        "time": 22.629131550000004,
                        "value": 0
                    },
                    {
                        "number": 64,
                        "time": 22.91601721666667,
                        "value": 1
                    },
                    {
                        "number": 64,
                        "time": 23.368886733333337,
                        "value": 0
                    },
                    {
                        "number": 64,
                        "time": 23.66448142916667,
                        "value": 1
                    },
                    {
                        "number": 64,
                        "time": 24.105568141666673,
                        "value": 0
                    },
                    {
                        "number": 64,
                        "time": 24.434974362500007,
                        "value": 1
                    },
                    {
                        "number": 64,
                        "time": 24.83968807083334,
                        "value": 0
                    },
                    {
                        "number": 64,
                        "time": 25.198807450000004,
                        "value": 1
                    },
                    {
                        "number": 64,
                        "time": 25.583541620833337,
                        "value": 0
                    },
                    {
                        "number": 64,
                        "time": 25.921144575000003,
                        "value": 1
                    },
                    {
                        "number": 64,
                        "time": 26.315100070833335,
                        "value": 0
                    },
                    {
                        "number": 64,
                        "time": 26.63733415,
                        "value": 1
                    },
                    {
                        "number": 64,
                        "time": 27.058953620833336,
                        "value": 0
                    },
                    {
                        "number": 64,
                        "time": 27.33149500416667,
                        "value": 1
                    },
                    {
                        "number": 64,
                        "time": 27.795122733333336,
                        "value": 0
                    },
                    {
                        "number": 64,
                        "time": 28.079446920833334,
                        "value": 1
                    },
                    {
                        "number": 64,
                        "time": 28.532828733333332,
                        "value": 0
                    },
                    {
                        "number": 64,
                        "time": 28.88631285833333,
                        "value": 1
                    },
                    {
                        "number": 64,
                        "time": 29.269510141666665,
                        "value": 0
                    },
                    {
                        "number": 64,
                        "time": 29.595330291666663,
                        "value": 1
                    },
                    {
                        "number": 64,
                        "time": 30.009265324999994,
                        "value": 0
                    },
                    {
                        "number": 64,
                        "time": 30.347380574999992,
                        "value": 1
                    },
                    {
                        "number": 64,
                        "time": 30.742872958333326,
                        "value": 0
                    },
                    {
                        "number": 64,
                        "time": 31.093795604166658,
                        "value": 1
                    },
                    {
                        "number": 64,
                        "time": 31.484677324999993,
                        "value": 0
                    },
                    {
                        "number": 64,
                        "time": 31.808448291666657,
                        "value": 1
                    },
                    {
                        "number": 64,
                        "time": 32.221358733333325,
                        "value": 0
                    },
                    {
                        "number": 64,
                        "time": 32.589187141666656,
                        "value": 1
                    },
                    {
                        "number": 64,
                        "time": 32.95906473333333,
                        "value": 0
                    },
                    {
                        "number": 64,
                        "time": 33.35609400416666,
                        "value": 1
                    },
                    {
                        "number": 64,
                        "time": 33.696770733333324,
                        "value": 0
                    },
                    {
                        "number": 64,
                        "time": 34.02156629166666,
                        "value": 1
                    },
                    {
                        "number": 64,
                        "time": 34.43550132499999,
                        "value": 0
                    },
                    {
                        "number": 64,
                        "time": 34.74441571249999,
                        "value": 1
                    },
                    {
                        "number": 64,
                        "time": 35.655789999999996,
                        "value": 0
                    }
                ],
                "91": [
                    {
                        "number": 91,
                        "time": 0,
                        "value": 1
                    },
                    {
                        "number": 91,
                        "time": 2.9508240000000003,
                        "value": 1
                    },
                    {
                        "number": 91,
                        "time": 5.901648000000002,
                        "value": 1
                    },
                    {
                        "number": 91,
                        "time": 8.852472000000006,
                        "value": 1
                    },
                    {
                        "number": 91,
                        "time": 11.803296000000007,
                        "value": 1
                    },
                    {
                        "number": 91,
                        "time": 12.541002000000006,
                        "value": 1
                    },
                    {
                        "number": 91,
                        "time": 13.278708000000004,
                        "value": 1
                    },
                    {
                        "number": 91,
                        "time": 14.016414000000001,
                        "value": 1
                    },
                    {
                        "number": 91,
                        "time": 14.754120000000002,
                        "value": 1
                    },
                    {
                        "number": 91,
                        "time": 15.491826000000003,
                        "value": 1
                    },
                    {
                        "number": 91,
                        "time": 16.229532000000003,
                        "value": 1
                    },
                    {
                        "number": 91,
                        "time": 16.967238000000002,
                        "value": 1
                    },
                    {
                        "number": 91,
                        "time": 17.704944,
                        "value": 1
                    },
                    {
                        "number": 91,
                        "time": 20.655768,
                        "value": 1
                    },
                    {
                        "number": 91,
                        "time": 23.606592000000003,
                        "value": 1
                    },
                    {
                        "number": 91,
                        "time": 24.344298000000006,
                        "value": 1
                    },
                    {
                        "number": 91,
                        "time": 25.082004000000005,
                        "value": 1
                    },
                    {
                        "number": 91,
                        "time": 25.819710000000004,
                        "value": 1
                    },
                    {
                        "number": 91,
                        "time": 26.557416,
                        "value": 1
                    },
                    {
                        "number": 91,
                        "time": 27.295122000000003,
                        "value": 1
                    },
                    {
                        "number": 91,
                        "time": 28.032828000000002,
                        "value": 1
                    },
                    {
                        "number": 91,
                        "time": 28.770533999999998,
                        "value": 1
                    },
                    {
                        "number": 91,
                        "time": 29.508239999999997,
                        "value": 1
                    },
                    {
                        "number": 91,
                        "time": 32.45906399999999,
                        "value": 1
                    }
                ]
            },
            "id": 2,
            "name": "Piano left",
            "instrumentNumber": 0,
            "instrument": "acoustic grand piano",
            "instrumentFamily": "piano",
            "channelNumber": 0,
            "isPercussion": false
        },
        {
            "startTime": 0,
            "duration": 0,
            "length": 0,
            "notes": [],
            "controlChanges": {},
            "id": 3,
            "name": "Schumann: Scenes from Childhood Op. 15"
        },
        {
            "startTime": 0,
            "duration": 0,
            "length": 0,
            "notes": [],
            "controlChanges": {},
            "id": 4,
            "name": "Copyright  1997 by Bernd Krueger"
        },
        {
            "startTime": 0,
            "duration": 0,
            "length": 0,
            "notes": [],
            "controlChanges": {},
            "id": 5,
            "name": "http://www.piano-midi.de"
        },
        {
            "startTime": 0,
            "duration": 0,
            "length": 0,
            "notes": [],
            "controlChanges": {},
            "id": 6,
            "name": "Edition: 2014-03-26"
        }
    ]
}