{
    "header": {
        "PPQ": 480,
        "timeSignature": [
            2,
            4
        ],
        "bpm": 150.1899903377773,
        "name": "Kreisleriana No. 7"
    },
    "startTime": 0,
    "duration": 109.0618620000006,
    "tracks": [
        {
            "startTime": 0,
            "duration": 0,
            "length": 0,
            "notes": [],
            "controlChanges": {},
            "id": 0,
            "name": "Kreisleriana No. 7"
        },
        {
            "startTime": 0.6991145000000001,
            "duration": 107.4638860000007,
            "length": 891,
            "notes": [
                {
                    "name": "G4",
                    "midi": 67,
                    "time": 0.6991145000000001,
                    "velocity": 0.3937007874015748,
                    "duration": 0.09987349999999995
                },
                {
                    "name": "C5",
                    "midi": 72,
                    "time": 0.7324056666666667,
                    "velocity": 0.3228346456692913,
                    "duration": 0.03329116666666665
                },
                {
                    "name": "D5",
                    "midi": 74,
                    "time": 0.7656968333333334,
                    "velocity": 0.3228346456692913,
                    "duration": 0.03329116666666665
                },
                {
                    "name": "D#5",
                    "midi": 75,
                    "time": 0.798988,
                    "velocity": 0.5669291338582677,
                    "duration": 0.09987349999999995
                },
                {
                    "name": "F#4",
                    "midi": 66,
                    "time": 0.8988615,
                    "velocity": 0.3700787401574803,
                    "duration": 0.09987349999999995
                },
                {
                    "name": "C5",
                    "midi": 72,
                    "time": 0.9987349999999999,
                    "velocity": 0.3937007874015748,
                    "duration": 0.09987349999999995
                },
                {
                    "name": "D#5",
                    "midi": 75,
                    "time": 1.0986084999999999,
                    "velocity": 0.3937007874015748,
                    "duration": 0.09987349999999995
                },
                {
                    "name": "D5",
                    "midi": 74,
                    "time": 1.1984819999999998,
                    "velocity": 0.5590551181102362,
                    "duration": 0.09987349999999995
                },
                {
                    "name": "F4",
                    "midi": 65,
                    "time": 1.2983554999999998,
                    "velocity": 0.3543307086614173,
                    "duration": 0.09987349999999995
                },
                {
                    "name": "B4",
                    "midi": 71,
                    "time": 1.3982289999999997,
                    "velocity": 0.3937007874015748,
                    "duration": 0.09987349999999995
                },
                {
                    "name": "D5",
                    "midi": 74,
                    "time": 1.4981024999999997,
                    "velocity": 0.3937007874015748,
                    "duration": 0.09987349999999995
                },
                {
                    "name": "C5",
                    "midi": 72,
                    "time": 1.5979759999999996,
                    "velocity": 0.5590551181102362,
                    "duration": 0.09987349999999995
                },
                {
                    "name": "A4",
                    "midi": 69,
                    "time": 1.6978494999999996,
                    "velocity": 0.36220472440944884,
                    "duration": 0.09987349999999995
                },
                {
                    "name": "F#4",
                    "midi": 66,
                    "time": 1.7977229999999995,
                    "velocity": 0.3937007874015748,
                    "duration": 0.09987349999999995
                },
                {
                    "name": "D#4",
                    "midi": 63,
                    "time": 1.8975964999999995,
                    "velocity": 0.3937007874015748,
                    "duration": 0.09987349999999995
                },
                {
                    "name": "G4",
                    "midi": 67,
                    "time": 2.2970904999999995,
                    "velocity": 0.3937007874015748,
                    "duration": 0.09987350000000061
                },
                {
                    "name": "C5",
                    "midi": 72,
                    "time": 2.3303816666666664,
                    "velocity": 0.3228346456692913,
                    "duration": 0.03329116666666687
                },
                {
                    "name": "D5",
                    "midi": 74,
                    "time": 2.3636728333333332,
                    "velocity": 0.3228346456692913,
                    "duration": 0.03329116666666687
                },
                {
                    "name": "D#5",
                    "midi": 75,
                    "time": 2.396964,
                    "velocity": 0.5669291338582677,
                    "duration": 0.09987350000000017
                },
                {
                    "name": "F#4",
                    "midi": 66,
                    "time": 2.4968375000000003,
                    "velocity": 0.3700787401574803,
                    "duration": 0.09987350000000017
                },
                {
                    "name": "C5",
                    "midi": 72,
                    "time": 2.5967110000000004,
                    "velocity": 0.3937007874015748,
                    "duration": 0.09987350000000017
                },
                {
                    "name": "D#5",
                    "midi": 75,
                    "time": 2.6965845000000006,
                    "velocity": 0.3937007874015748,
                    "duration": 0.09987350000000017
                },
                {
                    "name": "D5",
                    "midi": 74,
                    "time": 2.7964580000000008,
                    "velocity": 0.5590551181102362,
                    "duration": 0.09987350000000017
                },
                {
                    "name": "F4",
                    "midi": 65,
                    "time": 2.896331500000001,
                    "velocity": 0.3543307086614173,
                    "duration": 0.09987350000000017
                },
                {
                    "name": "B4",
                    "midi": 71,
                    "time": 2.996205000000001,
                    "velocity": 0.3937007874015748,
                    "duration": 0.09987350000000017
                },
                {
                    "name": "D5",
                    "midi": 74,
                    "time": 3.0960785000000013,
                    "velocity": 0.3937007874015748,
                    "duration": 0.09987350000000017
                },
                {
                    "name": "C5",
                    "midi": 72,
                    "time": 3.1959520000000015,
                    "velocity": 0.5590551181102362,
                    "duration": 0.09987350000000017
                },
                {
                    "name": "A4",
                    "midi": 69,
                    "time": 3.2958255000000016,
                    "velocity": 0.36220472440944884,
                    "duration": 0.09987350000000017
                },
                {
                    "name": "F#4",
                    "midi": 66,
                    "time": 3.395699000000002,
                    "velocity": 0.3937007874015748,
                    "duration": 0.09987350000000017
                },
                {
                    "name": "D#4",
                    "midi": 63,
                    "time": 3.495572500000002,
                    "velocity": 0.3937007874015748,
                    "duration": 0.09987350000000017
                },
                {
                    "name": "D#4",
                    "midi": 63,
                    "time": 3.895066500000002,
                    "velocity": 0.3937007874015748,
                    "duration": 0.09987350000000061
                },
                {
                    "name": "G4",
                    "midi": 67,
                    "time": 3.928357666666669,
                    "velocity": 0.3228346456692913,
                    "duration": 0.03329116666666687
                },
                {
                    "name": "G#4",
                    "midi": 68,
                    "time": 3.961648833333336,
                    "velocity": 0.3228346456692913,
                    "duration": 0.03329116666666687
                },
                {
                    "name": "A#4",
                    "midi": 70,
                    "time": 3.994940000000003,
                    "velocity": 0.5590551181102362,
                    "duration": 0.09987349999999973
                },
                {
                    "name": "C#4",
                    "midi": 61,
                    "time": 4.0948135000000025,
                    "velocity": 0.33070866141732286,
                    "duration": 0.09987350000000017
                },
                {
                    "name": "G4",
                    "midi": 67,
                    "time": 4.194687000000003,
                    "velocity": 0.3700787401574803,
                    "duration": 0.09987350000000017
                },
                {
                    "name": "A#4",
                    "midi": 70,
                    "time": 4.294560500000003,
                    "velocity": 0.31496062992125984,
                    "duration": 0.09987350000000017
                },
                {
                    "name": "G#4",
                    "midi": 68,
                    "time": 4.394434000000003,
                    "velocity": 0.5196850393700787,
                    "duration": 0.09987350000000017
                },
                {
                    "name": "C4",
                    "midi": 60,
                    "time": 4.494307500000003,
                    "velocity": 0.31496062992125984,
                    "duration": 0.09987350000000017
                },
                {
                    "name": "F4",
                    "midi": 65,
                    "time": 4.594181000000003,
                    "velocity": 0.36220472440944884,
                    "duration": 0.09987350000000017
                },
                {
                    "name": "G#4",
                    "midi": 68,
                    "time": 4.694054500000004,
                    "velocity": 0.33070866141732286,
                    "duration": 0.09987350000000017
                },
                {
                    "name": "G4",
                    "midi": 67,
                    "time": 4.793928000000004,
                    "velocity": 0.5196850393700787,
                    "duration": 0.09987350000000017
                },
                {
                    "name": "E4",
                    "midi": 64,
                    "time": 4.893801500000004,
                    "velocity": 0.31496062992125984,
                    "duration": 0.09987350000000017
                },
                {
                    "name": "C#4",
                    "midi": 61,
                    "time": 4.993675000000004,
                    "velocity": 0.3543307086614173,
                    "duration": 0.09987350000000017
                },
                {
                    "name": "A#3",
                    "midi": 58,
                    "time": 5.093548500000004,
                    "velocity": 0.31496062992125984,
                    "duration": 0.09987350000000017
                },
                {
                    "name": "A#3",
                    "midi": 58,
                    "time": 5.493042500000004,
                    "velocity": 0.3937007874015748,
                    "duration": 0.09987349999999928
                },
                {
                    "name": "C#4",
                    "midi": 61,
                    "time": 5.5263336666666705,
                    "velocity": 0.3228346456692913,
                    "duration": 0.03329116666666643
                },
                {
                    "name": "E4",
                    "midi": 64,
                    "time": 5.559624833333337,
                    "velocity": 0.3228346456692913,
                    "duration": 0.03329116666666643
                },
                {
                    "name": "F4",
                    "midi": 65,
                    "time": 5.592916000000003,
                    "velocity": 0.5275590551181102,
                    "duration": 0.09987350000000017
                },
                {
                    "name": "G#3",
                    "midi": 56,
                    "time": 5.6927895000000035,
                    "velocity": 0.33070866141732286,
                    "duration": 0.09987350000000017
                },
                {
                    "name": "C4",
                    "midi": 60,
                    "time": 5.792663000000004,
                    "velocity": 0.3700787401574803,
                    "duration": 0.09987350000000017
                },
                {
                    "name": "F4",
                    "midi": 65,
                    "time": 5.892536500000004,
                    "velocity": 0.31496062992125984,
                    "duration": 0.09987350000000017
                },
                {
                    "name": "D4",
                    "midi": 62,
                    "time": 5.992410000000004,
                    "velocity": 0.5196850393700787,
                    "duration": 0.09987350000000017
                },
                {
                    "name": "F3",
                    "midi": 53,
                    "time": 6.092283500000004,
                    "velocity": 0.31496062992125984,
                    "duration": 0.09987350000000017
                },
                {
                    "name": "B3",
                    "midi": 59,
                    "time": 6.192157000000004,
                    "velocity": 0.36220472440944884,
                    "duration": 0.09987350000000017
                },
                {
                    "name": "D4",
                    "midi": 62,
                    "time": 6.2920305000000045,
                    "velocity": 0.33070866141732286,
                    "duration": 0.09987350000000017
                },
                {
                    "name": "C4",
                    "midi": 60,
                    "time": 6.391904000000005,
                    "velocity": 0.5196850393700787,
                    "duration": 0.0798987999999996
                },
                {
                    "name": "G3",
                    "midi": 55,
                    "time": 6.471802800000004,
                    "velocity": 0.31496062992125984,
                    "duration": 0.0798987999999996
                },
                {
                    "name": "D#3",
                    "midi": 51,
                    "time": 6.551701600000004,
                    "velocity": 0.3543307086614173,
                    "duration": 0.0798987999999996
                },
                {
                    "name": "C3",
                    "midi": 48,
                    "time": 6.6316004000000035,
                    "velocity": 0.31496062992125984,
                    "duration": 0.0798987999999996
                },
                {
                    "name": "G2",
                    "midi": 43,
                    "time": 6.711499200000003,
                    "velocity": 0.31496062992125984,
                    "duration": 0.0798987999999996
                },
                {
                    "name": "G4",
                    "midi": 67,
                    "time": 7.091018500000002,
                    "velocity": 0.3937007874015748,
                    "duration": 0.09987349999999928
                },
                {
                    "name": "C5",
                    "midi": 72,
                    "time": 7.124309666666669,
                    "velocity": 0.3228346456692913,
                    "duration": 0.03329116666666643
                },
                {
                    "name": "D5",
                    "midi": 74,
                    "time": 7.157600833333335,
                    "velocity": 0.3228346456692913,
                    "duration": 0.03329116666666643
                },
                {
                    "name": "D#5",
                    "midi": 75,
                    "time": 7.190892000000002,
                    "velocity": 0.5669291338582677,
                    "duration": 0.09987350000000017
                },
                {
                    "name": "F#4",
                    "midi": 66,
                    "time": 7.290765500000002,
                    "velocity": 0.3700787401574803,
                    "duration": 0.09987350000000017
                },
                {
                    "name": "C5",
                    "midi": 72,
                    "time": 7.390639000000002,
                    "velocity": 0.3937007874015748,
                    "duration": 0.09987350000000017
                },
                {
                    "name": "D#5",
                    "midi": 75,
                    "time": 7.490512500000002,
                    "velocity": 0.3937007874015748,
                    "duration": 0.09987350000000017
                },
                {
                    "name": "D5",
                    "midi": 74,
                    "time": 7.590386000000002,
                    "velocity": 0.5590551181102362,
                    "duration": 0.09987350000000017
                },
                {
                    "name": "F4",
                    "midi": 65,
                    "time": 7.6902595000000025,
                    "velocity": 0.3543307086614173,
                    "duration": 0.09987350000000017
                },
                {
                    "name": "B4",
                    "midi": 71,
                    "time": 7.790133000000003,
                    "velocity": 0.3937007874015748,
                    "duration": 0.09987350000000017
                },
                {
                    "name": "D5",
                    "midi": 74,
                    "time": 7.890006500000003,
                    "velocity": 0.3937007874015748,
                    "duration": 0.09987350000000017
                },
                {
                    "name": "C5",
                    "midi": 72,
                    "time": 7.989880000000003,
                    "velocity": 0.5590551181102362,
                    "duration": 0.09987349999999928
                },
                {
                    "name": "A4",
                    "midi": 69,
                    "time": 8.089753500000002,
                    "velocity": 0.36220472440944884,
                    "duration": 0.09987349999999928
                },
                {
                    "name": "F#4",
                    "midi": 66,
                    "time": 8.189627000000002,
                    "velocity": 0.3937007874015748,
                    "duration": 0.09987349999999928
                },
                {
                    "name": "D#4",
                    "midi": 63,
                    "time": 8.2895005,
                    "velocity": 0.3937007874015748,
                    "duration": 0.09987349999999928
                },
                {
                    "name": "G4",
                    "midi": 67,
                    "time": 8.6889945,
                    "velocity": 0.3937007874015748,
                    "duration": 0.09987349999999928
                },
                {
                    "name": "C5",
                    "midi": 72,
                    "time": 8.722285666666666,
                    "velocity": 0.3228346456692913,
                    "duration": 0.03329116666666643
                },
                {
                    "name": "D5",
                    "midi": 74,
                    "time": 8.755576833333333,
                    "velocity": 0.3228346456692913,
                    "duration": 0.03329116666666643
                },
                {
                    "name": "D#5",
                    "midi": 75,
                    "time": 8.788867999999999,
                    "velocity": 0.5669291338582677,
                    "duration": 0.09987349999999928
                },
                {
                    "name": "F#4",
                    "midi": 66,
                    "time": 8.888741499999998,
                    "velocity": 0.3700787401574803,
                    "duration": 0.09987349999999928
                },
                {
                    "name": "C5",
                    "midi": 72,
                    "time": 8.988614999999998,
                    "velocity": 0.3937007874015748,
                    "duration": 0.09987349999999928
                },
                {
                    "name": "D#5",
                    "midi": 75,
                    "time": 9.088488499999997,
                    "velocity": 0.3937007874015748,
                    "duration": 0.09987349999999928
                },
                {
                    "name": "D5",
                    "midi": 74,
                    "time": 9.188361999999996,
                    "velocity": 0.5590551181102362,
                    "duration": 0.09987349999999928
                },
                {
                    "name": "F4",
                    "midi": 65,
                    "time": 9.288235499999995,
                    "velocity": 0.3543307086614173,
                    "duration": 0.09987349999999928
                },
                {
                    "name": "B4",
                    "midi": 71,
                    "time": 9.388108999999995,
                    "velocity": 0.3937007874015748,
                    "duration": 0.09987349999999928
                },
                {
                    "name": "D5",
                    "midi": 74,
                    "time": 9.487982499999994,
                    "velocity": 0.3937007874015748,
                    "duration": 0.09987349999999928
                },
                {
                    "name": "C5",
                    "midi": 72,
                    "time": 9.587855999999993,
                    "velocity": 0.5590551181102362,
                    "duration": 0.09987349999999928
                },
                {
                    "name": "A4",
                    "midi": 69,
                    "time": 9.687729499999993,
                    "velocity": 0.36220472440944884,
                    "duration": 0.09987349999999928
                },
                {
                    "name": "F#4",
                    "midi": 66,
                    "time": 9.787602999999992,
                    "velocity": 0.3937007874015748,
                    "duration": 0.09987349999999928
                },
                {
                    "name": "D#4",
                    "midi": 63,
                    "time": 9.887476499999991,
                    "velocity": 0.3937007874015748,
                    "duration": 0.09987349999999928
                },
                {
                    "name": "D#4",
                    "midi": 63,
                    "time": 10.28697049999999,
                    "velocity": 0.3937007874015748,
                    "duration": 0.09987349999999928
                },
                {
                    "name": "G4",
                    "midi": 67,
                    "time": 10.320261666666656,
                    "velocity": 0.3228346456692913,
                    "duration": 0.03329116666666643
                },
                {
                    "name": "G#4",
                    "midi": 68,
                    "time": 10.353552833333323,
                    "velocity": 0.3228346456692913,
                    "duration": 0.03329116666666643
                },
                {
                    "name": "A#4",
                    "midi": 70,
                    "time": 10.38684399999999,
                    "velocity": 0.5590551181102362,
                    "duration": 0.09987349999999928
                },
                {
                    "name": "C#4",
                    "midi": 61,
                    "time": 10.486717499999989,
                    "velocity": 0.33070866141732286,
                    "duration": 0.09987349999999928
                },
                {
                    "name": "G4",
                    "midi": 67,
                    "time": 10.586590999999988,
                    "velocity": 0.3700787401574803,
                    "duration": 0.09987349999999928
                },
                {
                    "name": "A#4",
                    "midi": 70,
                    "time": 10.686464499999987,
                    "velocity": 0.31496062992125984,
                    "duration": 0.09987349999999928
                },
                {
                    "name": "G#4",
                    "midi": 68,
                    "time": 10.786337999999986,
                    "velocity": 0.5196850393700787,
                    "duration": 0.09987349999999928
                },
                {
                    "name": "C4",
                    "midi": 60,
                    "time": 10.886211499999986,
                    "velocity": 0.31496062992125984,
                    "duration": 0.09987349999999928
                },
                {
                    "name": "F4",
                    "midi": 65,
                    "time": 10.986084999999985,
                    "velocity": 0.36220472440944884,
                    "duration": 0.09987349999999928
                },
                {
                    "name": "G#4",
                    "midi": 68,
                    "time": 11.085958499999984,
                    "velocity": 0.33070866141732286,
                    "duration": 0.09987349999999928
                },
                {
                    "name": "G4",
                    "midi": 67,
                    "time": 11.185831999999984,
                    "velocity": 0.5196850393700787,
                    "duration": 0.09987349999999928
                },
                {
                    "name": "E4",
                    "midi": 64,
                    "time": 11.285705499999983,
                    "velocity": 0.31496062992125984,
                    "duration": 0.09987349999999928
                },
                {
                    "name": "C#4",
                    "midi": 61,
                    "time": 11.385578999999982,
                    "velocity": 0.3543307086614173,
                    "duration": 0.09987349999999928
                },
                {
                    "name": "A#3",
                    "midi": 58,
                    "time": 11.485452499999981,
                    "velocity": 0.31496062992125984,
                    "duration": 0.09987349999999928
                },
                {
                    "name": "A#3",
                    "midi": 58,
                    "time": 11.88494649999998,
                    "velocity": 0.3937007874015748,
                    "duration": 0.09987349999999928
                },
                {
                    "name": "C#4",
                    "midi": 61,
                    "time": 11.918237666666647,
                    "velocity": 0.3228346456692913,
                    "duration": 0.03329116666666643
                },
                {
                    "name": "E4",
                    "midi": 64,
                    "time": 11.951528833333313,
                    "velocity": 0.3228346456692913,
                    "duration": 0.03329116666666643
                },
                {
                    "name": "F4",
                    "midi": 65,
                    "time": 11.98481999999998,
                    "velocity": 0.5275590551181102,
                    "duration": 0.09987349999999928
                },
                {
                    "name": "G#3",
                    "midi": 56,
                    "time": 12.084693499999979,
                    "velocity": 0.33070866141732286,
                    "duration": 0.09987349999999928
                },
                {
                    "name": "C4",
                    "midi": 60,
                    "time": 12.184566999999978,
                    "velocity": 0.3700787401574803,
                    "duration": 0.09987349999999928
                },
                {
                    "name": "F4",
                    "midi": 65,
                    "time": 12.284440499999977,
                    "velocity": 0.31496062992125984,
                    "duration": 0.09987349999999928
                },
                {
                    "name": "D4",
                    "midi": 62,
                    "time": 12.384313999999977,
                    "velocity": 0.5196850393700787,
                    "duration": 0.09987349999999928
                },
                {
                    "name": "F3",
                    "midi": 53,
                    "time": 12.484187499999976,
                    "velocity": 0.31496062992125984,
                    "duration": 0.09987349999999928
                },
                {
                    "name": "B3",
                    "midi": 59,
                    "time": 12.584060999999975,
                    "velocity": 0.36220472440944884,
                    "duration": 0.09987349999999928
                },
                {
                    "name": "D4",
                    "midi": 62,
                    "time": 12.683934499999975,
                    "velocity": 0.33070866141732286,
                    "duration": 0.09987349999999928
                },
                {
                    "name": "C4",
                    "midi": 60,
                    "time": 12.783807999999974,
                    "velocity": 0.5196850393700787,
                    "duration": 0.07989880000000049
                },
                {
                    "name": "G3",
                    "midi": 55,
                    "time": 12.863706799999974,
                    "velocity": 0.31496062992125984,
                    "duration": 0.07989880000000049
                },
                {
                    "name": "D#3",
                    "midi": 51,
                    "time": 12.943605599999975,
                    "velocity": 0.3543307086614173,
                    "duration": 0.07989880000000049
                },
                {
                    "name": "C3",
                    "midi": 48,
                    "time": 13.023504399999975,
                    "velocity": 0.31496062992125984,
                    "duration": 0.07989880000000049
                },
                {
                    "name": "G2",
                    "midi": 43,
                    "time": 13.103403199999976,
                    "velocity": 0.31496062992125984,
                    "duration": 0.07989880000000049
                },
                {
                    "name": "D4",
                    "midi": 62,
                    "time": 13.383048999999977,
                    "velocity": 0.4645669291338583,
                    "duration": 0.09987349999999928
                },
                {
                    "name": "D#4",
                    "midi": 63,
                    "time": 13.482922499999976,
                    "velocity": 0.33858267716535434,
                    "duration": 0.09987349999999928
                },
                {
                    "name": "D4",
                    "midi": 62,
                    "time": 13.582795999999975,
                    "velocity": 0.5275590551181102,
                    "duration": 0.5992409999999975
                },
                {
                    "name": "A#3",
                    "midi": 58,
                    "time": 13.682669499999975,
                    "velocity": 0.3228346456692913,
                    "duration": 0.09987349999999928
                },
                {
                    "name": "A3",
                    "midi": 57,
                    "time": 13.782542999999974,
                    "velocity": 0.36220472440944884,
                    "duration": 0.09987349999999928
                },
                {
                    "name": "G3",
                    "midi": 55,
                    "time": 13.882416499999973,
                    "velocity": 0.30708661417322836,
                    "duration": 0.09987349999999928
                },
                {
                    "name": "D4",
                    "midi": 62,
                    "time": 14.182036999999973,
                    "velocity": 0.44881889763779526,
                    "duration": 0.09987349999999928
                },
                {
                    "name": "G4",
                    "midi": 67,
                    "time": 14.182036999999973,
                    "velocity": 0.44881889763779526,
                    "duration": 0.1498102499999998
                },
                {
                    "name": "D#4",
                    "midi": 63,
                    "time": 14.281910499999972,
                    "velocity": 0.36220472440944884,
                    "duration": 0.09987350000000106
                },
                {
                    "name": "D4",
                    "midi": 62,
                    "time": 14.381783999999973,
                    "velocity": 0.5511811023622047,
                    "duration": 0.09987349999999928
                },
                {
                    "name": "F#4",
                    "midi": 66,
                    "time": 14.381783999999973,
                    "velocity": 0.5511811023622047,
                    "duration": 0.5992409999999975
                },
                {
                    "name": "C4",
                    "midi": 60,
                    "time": 14.481657499999972,
                    "velocity": 0.3464566929133858,
                    "duration": 0.09987349999999928
                },
                {
                    "name": "A#3",
                    "midi": 58,
                    "time": 14.581530999999972,
                    "velocity": 0.3543307086614173,
                    "duration": 0.09987349999999928
                },
                {
                    "name": "A3",
                    "midi": 57,
                    "time": 14.68140449999997,
                    "velocity": 0.3543307086614173,
                    "duration": 0.09987349999999928
                },
                {
                    "name": "D4",
                    "midi": 62,
                    "time": 14.98102499999997,
                    "velocity": 0.4881889763779528,
                    "duration": 0.1498102499999998
                },
                {
                    "name": "D#4",
                    "midi": 63,
                    "time": 15.08089849999997,
                    "velocity": 0.3543307086614173,
                    "duration": 0.09987350000000106
                },
                {
                    "name": "D4",
                    "midi": 62,
                    "time": 15.18077199999997,
                    "velocity": 0.5669291338582677,
                    "duration": 0.5992409999999975
                },
                {
                    "name": "A#3",
                    "midi": 58,
                    "time": 15.28064549999997,
                    "velocity": 0.3228346456692913,
                    "duration": 0.09987349999999928
                },
                {
                    "name": "A3",
                    "midi": 57,
                    "time": 15.38051899999997,
                    "velocity": 0.36220472440944884,
                    "duration": 0.09987349999999928
                },
                {
                    "name": "G3",
                    "midi": 55,
                    "time": 15.480392499999969,
                    "velocity": 0.30708661417322836,
                    "duration": 0.09987349999999928
                },
                {
                    "name": "D4",
                    "midi": 62,
                    "time": 15.780012999999968,
                    "velocity": 0.41732283464566927,
                    "duration": 0.09987349999999928
                },
                {
                    "name": "G4",
                    "midi": 67,
                    "time": 15.780012999999968,
                    "velocity": 0.41732283464566927,
                    "duration": 0.1498102499999998
                },
                {
                    "name": "D#4",
                    "midi": 63,
                    "time": 15.879886499999968,
                    "velocity": 0.36220472440944884,
                    "duration": 0.09987350000000106
                },
                {
                    "name": "D4",
                    "midi": 62,
                    "time": 15.979759999999969,
                    "velocity": 0.5433070866141733,
                    "duration": 0.09987349999999928
                },
                {
                    "name": "F#4",
                    "midi": 66,
                    "time": 15.979759999999969,
                    "velocity": 0.5433070866141733,
                    "duration": 0.599241000000001
                },
                {
                    "name": "C4",
                    "midi": 60,
                    "time": 16.079633499999968,
                    "velocity": 0.3464566929133858,
                    "duration": 0.09987350000000106
                },
                {
                    "name": "A#3",
                    "midi": 58,
                    "time": 16.17950699999997,
                    "velocity": 0.3543307086614173,
                    "duration": 0.09987350000000106
                },
                {
                    "name": "A3",
                    "midi": 57,
                    "time": 16.27938049999997,
                    "velocity": 0.3543307086614173,
                    "duration": 0.09987350000000106
                },
                {
                    "name": "D4",
                    "midi": 62,
                    "time": 16.57900099999997,
                    "velocity": 0.44881889763779526,
                    "duration": 0.19974700000000212
                },
                {
                    "name": "D#4",
                    "midi": 63,
                    "time": 16.67887449999997,
                    "velocity": 0.3543307086614173,
                    "duration": 0.09987350000000106
                },
                {
                    "name": "D4",
                    "midi": 62,
                    "time": 16.778747999999972,
                    "velocity": 0.5354330708661418,
                    "duration": 0.39949400000000423
                },
                {
                    "name": "A#3",
                    "midi": 58,
                    "time": 16.878621499999973,
                    "velocity": 0.3228346456692913,
                    "duration": 0.09987350000000106
                },
                {
                    "name": "A3",
                    "midi": 57,
                    "time": 16.978494999999974,
                    "velocity": 0.36220472440944884,
                    "duration": 0.09987350000000106
                },
                {
                    "name": "G3",
                    "midi": 55,
                    "time": 17.078368499999975,
                    "velocity": 0.30708661417322836,
                    "duration": 0.09987350000000106
                },
                {
                    "name": "A#4",
                    "midi": 70,
                    "time": 17.178241999999976,
                    "velocity": 0.5433070866141733,
                    "duration": 0.19974699999999856
                },
                {
                    "name": "D#4",
                    "midi": 63,
                    "time": 17.377988999999975,
                    "velocity": 0.41732283464566927,
                    "duration": 0.19974700000000212
                },
                {
                    "name": "F4",
                    "midi": 65,
                    "time": 17.477862499999976,
                    "velocity": 0.36220472440944884,
                    "duration": 0.09987350000000106
                },
                {
                    "name": "D#4",
                    "midi": 63,
                    "time": 17.577735999999977,
                    "velocity": 0.5511811023622047,
                    "duration": 0.39949400000000423
                },
                {
                    "name": "A#3",
                    "midi": 58,
                    "time": 17.677609499999978,
                    "velocity": 0.3228346456692913,
                    "duration": 0.09987350000000106
                },
                {
                    "name": "A3",
                    "midi": 57,
                    "time": 17.77748299999998,
                    "velocity": 0.36220472440944884,
                    "duration": 0.09987350000000106
                },
                {
                    "name": "G3",
                    "midi": 55,
                    "time": 17.87735649999998,
                    "velocity": 0.30708661417322836,
                    "duration": 0.09987350000000106
                },
                {
                    "name": "D#5",
                    "midi": 75,
                    "time": 17.97722999999998,
                    "velocity": 0.5984251968503937,
                    "duration": 0.19974699999999856
                },
                {
                    "name": "D#4",
                    "midi": 63,
                    "time": 18.17697699999998,
                    "velocity": 0.41732283464566927,
                    "duration": 0.19974700000000212
                },
                {
                    "name": "F4",
                    "midi": 65,
                    "time": 18.27685049999998,
                    "velocity": 0.36220472440944884,
                    "duration": 0.09987350000000106
                },
                {
                    "name": "D#4",
                    "midi": 63,
                    "time": 18.37672399999998,
                    "velocity": 0.5511811023622047,
                    "duration": 0.39949400000000423
                },
                {
                    "name": "A3",
                    "midi": 57,
                    "time": 18.476597499999983,
                    "velocity": 0.3228346456692913,
                    "duration": 0.09987350000000106
                },
                {
                    "name": "G3",
                    "midi": 55,
                    "time": 18.576470999999984,
                    "velocity": 0.36220472440944884,
                    "duration": 0.09987350000000106
                },
                {
                    "name": "F3",
                    "midi": 53,
                    "time": 18.676344499999985,
                    "velocity": 0.30708661417322836,
                    "duration": 0.09987350000000106
                },
                {
                    "name": "A4",
                    "midi": 69,
                    "time": 18.776217999999986,
                    "velocity": 0.5748031496062992,
                    "duration": 0.19974699999999856
                },
                {
                    "name": "D4",
                    "midi": 62,
                    "time": 18.975964999999984,
                    "velocity": 0.41732283464566927,
                    "duration": 0.19974700000000212
                },
                {
                    "name": "D#4",
                    "midi": 63,
                    "time": 19.075838499999985,
                    "velocity": 0.36220472440944884,
                    "duration": 0.09987350000000106
                },
                {
                    "name": "D4",
                    "midi": 62,
                    "time": 19.175711999999987,
                    "velocity": 0.5511811023622047,
                    "duration": 0.39949400000000423
                },
                {
                    "name": "A3",
                    "midi": 57,
                    "time": 19.275585499999988,
                    "velocity": 0.3228346456692913,
                    "duration": 0.09987350000000106
                },
                {
                    "name": "G3",
                    "midi": 55,
                    "time": 19.37545899999999,
                    "velocity": 0.36220472440944884,
                    "duration": 0.09987350000000106
                },
                {
                    "name": "F3",
                    "midi": 53,
                    "time": 19.47533249999999,
                    "velocity": 0.30708661417322836,
                    "duration": 0.09987350000000106
                },
                {
                    "name": "D5",
                    "midi": 74,
                    "time": 19.57520599999999,
                    "velocity": 0.5984251968503937,
                    "duration": 0.19974699999999856
                },
                {
                    "name": "D4",
                    "midi": 62,
                    "time": 19.77495299999999,
                    "velocity": 0.41732283464566927,
                    "duration": 0.19974700000000212
                },
                {
                    "name": "D#4",
                    "midi": 63,
                    "time": 19.87482649999999,
                    "velocity": 0.36220472440944884,
                    "duration": 0.09987350000000106
                },
                {
                    "name": "D4",
                    "midi": 62,
                    "time": 19.97469999999999,
                    "velocity": 0.5511811023622047,
                    "duration": 0.39949400000000423
                },
                {
                    "name": "G3",
                    "midi": 55,
                    "time": 20.074573499999993,
                    "velocity": 0.3228346456692913,
                    "duration": 0.09987350000000106
                },
                {
                    "name": "F3",
                    "midi": 53,
                    "time": 20.174446999999994,
                    "velocity": 0.36220472440944884,
                    "duration": 0.09987350000000106
                },
                {
                    "name": "D#3",
                    "midi": 51,
                    "time": 20.274320499999995,
                    "velocity": 0.30708661417322836,
                    "duration": 0.09987350000000106
                },
                {
                    "name": "G4",
                    "midi": 67,
                    "time": 20.374193999999996,
                    "velocity": 0.5748031496062992,
                    "duration": 0.19974699999999856
                },
                {
                    "name": "C4",
                    "midi": 60,
                    "time": 20.573940999999994,
                    "velocity": 0.41732283464566927,
                    "duration": 0.19974700000000212
                },
                {
                    "name": "D4",
                    "midi": 62,
                    "time": 20.673814499999995,
                    "velocity": 0.36220472440944884,
                    "duration": 0.09987350000000106
                },
                {
                    "name": "C4",
                    "midi": 60,
                    "time": 20.773687999999996,
                    "velocity": 0.5511811023622047,
                    "duration": 0.39949400000000423
                },
                {
                    "name": "G3",
                    "midi": 55,
                    "time": 20.873561499999997,
                    "velocity": 0.3228346456692913,
                    "duration": 0.09987350000000106
                },
                {
                    "name": "F3",
                    "midi": 53,
                    "time": 20.973435,
                    "velocity": 0.36220472440944884,
                    "duration": 0.09987350000000106
                },
                {
                    "name": "D#3",
                    "midi": 51,
                    "time": 21.0733085,
                    "velocity": 0.30708661417322836,
                    "duration": 0.09987350000000106
                },
                {
                    "name": "C5",
                    "midi": 72,
                    "time": 21.173182,
                    "velocity": 0.5984251968503937,
                    "duration": 0.19974699999999856
                },
                {
                    "name": "C4",
                    "midi": 60,
                    "time": 21.372929,
                    "velocity": 0.41732283464566927,
                    "duration": 0.19974700000000212
                },
                {
                    "name": "D4",
                    "midi": 62,
                    "time": 21.4728025,
                    "velocity": 0.36220472440944884,
                    "duration": 0.09987350000000106
                },
                {
                    "name": "C4",
                    "midi": 60,
                    "time": 21.572676,
                    "velocity": 0.5511811023622047,
                    "duration": 0.39949400000000423
                },
                {
                    "name": "F#3",
                    "midi": 54,
                    "time": 21.672549500000002,
                    "velocity": 0.3228346456692913,
                    "duration": 0.09987350000000106
                },
                {
                    "name": "E3",
                    "midi": 52,
                    "time": 21.772423000000003,
                    "velocity": 0.36220472440944884,
                    "duration": 0.09987350000000106
                },
                {
                    "name": "D3",
                    "midi": 50,
                    "time": 21.872296500000004,
                    "velocity": 0.30708661417322836,
                    "duration": 0.09987350000000106
                },
                {
                    "name": "F#4",
                    "midi": 66,
                    "time": 21.972170000000006,
                    "velocity": 0.5748031496062992,
                    "duration": 0.19974699999999856
                },
                {
                    "name": "C5",
                    "midi": 72,
                    "time": 22.171917000000004,
                    "velocity": 0.41732283464566927,
                    "duration": 0.19974700000000212
                },
                {
                    "name": "D5",
                    "midi": 74,
                    "time": 22.271790500000005,
                    "velocity": 0.36220472440944884,
                    "duration": 0.09987350000000106
                },
                {
                    "name": "C5",
                    "midi": 72,
                    "time": 22.371664000000006,
                    "velocity": 0.5511811023622047,
                    "duration": 0.39949400000000423
                },
                {
                    "name": "F#4",
                    "midi": 66,
                    "time": 22.471537500000007,
                    "velocity": 0.3228346456692913,
                    "duration": 0.09987350000000106
                },
                {
                    "name": "E4",
                    "midi": 64,
                    "time": 22.57141100000001,
                    "velocity": 0.36220472440944884,
                    "duration": 0.09987350000000106
                },
                {
                    "name": "D4",
                    "midi": 62,
                    "time": 22.67128450000001,
                    "velocity": 0.30708661417322836,
                    "duration": 0.09987350000000106
                },
                {
                    "name": "F#5",
                    "midi": 78,
                    "time": 22.77115800000001,
                    "velocity": 0.5748031496062992,
                    "duration": 0.19974699999999856
                },
                {
                    "name": "D5",
                    "midi": 74,
                    "time": 22.97090500000001,
                    "velocity": 0.5039370078740157,
                    "duration": 0.1498102500000016
                },
                {
                    "name": "D#5",
                    "midi": 75,
                    "time": 23.07077850000001,
                    "velocity": 0.3700787401574803,
                    "duration": 0.09987350000000106
                },
                {
                    "name": "D5",
                    "midi": 74,
                    "time": 23.17065200000001,
                    "velocity": 0.5748031496062992,
                    "duration": 0.5992410000000028
                },
                {
                    "name": "A#4",
                    "midi": 70,
                    "time": 23.270525500000012,
                    "velocity": 0.3543307086614173,
                    "duration": 0.09987350000000106
                },
                {
                    "name": "A4",
                    "midi": 69,
                    "time": 23.370399000000013,
                    "velocity": 0.3937007874015748,
                    "duration": 0.09987350000000106
                },
                {
                    "name": "G4",
                    "midi": 67,
                    "time": 23.470272500000014,
                    "velocity": 0.33070866141732286,
                    "duration": 0.09987350000000106
                },
                {
                    "name": "D5",
                    "midi": 74,
                    "time": 23.769893000000014,
                    "velocity": 0.4881889763779528,
                    "duration": 0.09987350000000106
                },
                {
                    "name": "G5",
                    "midi": 79,
                    "time": 23.769893000000014,
                    "velocity": 0.4881889763779528,
                    "duration": 0.1498102500000016
                },
                {
                    "name": "D#5",
                    "midi": 75,
                    "time": 23.869766500000015,
                    "velocity": 0.3937007874015748,
                    "duration": 0.09987350000000106
                },
                {
                    "name": "D5",
                    "midi": 74,
                    "time": 23.969640000000016,
                    "velocity": 0.6062992125984252,
                    "duration": 0.09987350000000106
                },
                {
                    "name": "F#5",
                    "midi": 78,
                    "time": 23.969640000000016,
                    "velocity": 0.6062992125984252,
                    "duration": 0.5992410000000028
                },
                {
                    "name": "C5",
                    "midi": 72,
                    "time": 24.069513500000017,
                    "velocity": 0.3779527559055118,
                    "duration": 0.09987350000000106
                },
                {
                    "name": "A#4",
                    "midi": 70,
                    "time": 24.169387000000018,
                    "velocity": 0.3858267716535433,
                    "duration": 0.09987350000000106
                },
                {
                    "name": "A4",
                    "midi": 69,
                    "time": 24.26926050000002,
                    "velocity": 0.3858267716535433,
                    "duration": 0.09987350000000106
                },
                {
                    "name": "D5",
                    "midi": 74,
                    "time": 24.56888100000002,
                    "velocity": 0.5354330708661418,
                    "duration": 0.1498102500000016
                },
                {
                    "name": "D#5",
                    "midi": 75,
                    "time": 24.66875450000002,
                    "velocity": 0.3858267716535433,
                    "duration": 0.09987350000000106
                },
                {
                    "name": "D5",
                    "midi": 74,
                    "time": 24.76862800000002,
                    "velocity": 0.6220472440944882,
                    "duration": 0.5992410000000028
                },
                {
                    "name": "A#4",
                    "midi": 70,
                    "time": 24.868501500000022,
                    "velocity": 0.3543307086614173,
                    "duration": 0.09987350000000106
                },
                {
                    "name": "A4",
                    "midi": 69,
                    "time": 24.968375000000023,
                    "velocity": 0.3937007874015748,
                    "duration": 0.09987350000000106
                },
                {
                    "name": "G4",
                    "midi": 67,
                    "time": 25.068248500000024,
                    "velocity": 0.33070866141732286,
                    "duration": 0.09987350000000106
                },
                {
                    "name": "D5",
                    "midi": 74,
                    "time": 25.367869000000024,
                    "velocity": 0.4566929133858268,
                    "duration": 0.09987350000000106
                },
                {
                    "name": "G5",
                    "midi": 79,
                    "time": 25.367869000000024,
                    "velocity": 0.4566929133858268,
                    "duration": 0.1498102500000016
                },
                {
                    "name": "D#5",
                    "midi": 75,
                    "time": 25.467742500000025,
                    "velocity": 0.3937007874015748,
                    "duration": 0.09987350000000106
                },
                {
                    "name": "D5",
                    "midi": 74,
                    "time": 25.567616000000026,
                    "velocity": 0.5905511811023622,
                    "duration": 0.09987350000000106
                },
                {
                    "name": "F#5",
                    "midi": 78,
                    "time": 25.567616000000026,
                    "velocity": 0.5905511811023622,
                    "duration": 0.5992410000000028
                },
                {
                    "name": "C5",
                    "midi": 72,
                    "time": 25.667489500000027,
                    "velocity": 0.3779527559055118,
                    "duration": 0.09987350000000106
                },
                {
                    "name": "A#4",
                    "midi": 70,
                    "time": 25.767363000000028,
                    "velocity": 0.3858267716535433,
                    "duration": 0.09987350000000106
                },
                {
                    "name": "A4",
                    "midi": 69,
                    "time": 25.86723650000003,
                    "velocity": 0.3858267716535433,
                    "duration": 0.09987350000000106
                },
                {
                    "name": "D5",
                    "midi": 74,
                    "time": 26.16685700000003,
                    "velocity": 0.4881889763779528,
                    "duration": 0.19974700000000212
                },
                {
                    "name": "D#5",
                    "midi": 75,
                    "time": 26.26673050000003,
                    "velocity": 0.3858267716535433,
                    "duration": 0.09987350000000106
                },
                {
                    "name": "D5",
                    "midi": 74,
                    "time": 26.36660400000003,
                    "velocity": 0.5826771653543307,
                    "duration": 0.39949400000000423
                },
                {
                    "name": "A#4",
                    "midi": 70,
                    "time": 26.466477500000032,
                    "velocity": 0.3543307086614173,
                    "duration": 0.09987350000000106
                },
                {
                    "name": "A4",
                    "midi": 69,
                    "time": 26.566351000000033,
                    "velocity": 0.3937007874015748,
                    "duration": 0.09987350000000106
                },
                {
                    "name": "G4",
                    "midi": 67,
                    "time": 26.666224500000034,
                    "velocity": 0.33070866141732286,
                    "duration": 0.09987350000000106
                },
                {
                    "name": "A#5",
                    "midi": 82,
                    "time": 26.766098000000035,
                    "velocity": 0.5905511811023622,
                    "duration": 0.19974699999999856
                },
                {
                    "name": "D#5",
                    "midi": 75,
                    "time": 26.965845000000034,
                    "velocity": 0.4566929133858268,
                    "duration": 0.19974700000000212
                },
                {
                    "name": "F5",
                    "midi": 77,
                    "time": 27.065718500000035,
                    "velocity": 0.3937007874015748,
                    "duration": 0.09987350000000106
                },
                {
                    "name": "D#5",
                    "midi": 75,
                    "time": 27.165592000000036,
                    "velocity": 0.6062992125984252,
                    "duration": 0.39949400000000423
                },
                {
                    "name": "A#4",
                    "midi": 70,
                    "time": 27.265465500000037,
                    "velocity": 0.3543307086614173,
                    "duration": 0.09987350000000106
                },
                {
                    "name": "A4",
                    "midi": 69,
                    "time": 27.365339000000038,
                    "velocity": 0.3937007874015748,
                    "duration": 0.09987350000000106
                },
                {
                    "name": "G4",
                    "midi": 67,
                    "time": 27.46521250000004,
                    "velocity": 0.33070866141732286,
                    "duration": 0.09987350000000106
                },
                {
                    "name": "D#6",
                    "midi": 87,
                    "time": 27.56508600000004,
                    "velocity": 0.6535433070866141,
                    "duration": 0.19974699999999856
                },
                {
                    "name": "D#5",
                    "midi": 75,
                    "time": 27.76483300000004,
                    "velocity": 0.4566929133858268,
                    "duration": 0.19974700000000212
                },
                {
                    "name": "F5",
                    "midi": 77,
                    "time": 27.86470650000004,
                    "velocity": 0.3937007874015748,
                    "duration": 0.09987350000000106
                },
                {
                    "name": "D#5",
                    "midi": 75,
                    "time": 27.96458000000004,
                    "velocity": 0.6062992125984252,
                    "duration": 0.39949400000000423
                },
                {
                    "name": "A4",
                    "midi": 69,
                    "time": 28.06445350000004,
                    "velocity": 0.3543307086614173,
                    "duration": 0.09987350000000106
                },
                {
                    "name": "G4",
                    "midi": 67,
                    "time": 28.164327000000043,
                    "velocity": 0.3937007874015748,
                    "duration": 0.09987350000000106
                },
                {
                    "name": "F4",
                    "midi": 65,
                    "time": 28.264200500000044,
                    "velocity": 0.33070866141732286,
                    "duration": 0.09987350000000106
                },
                {
                    "name": "A5",
                    "midi": 81,
                    "time": 28.364074000000045,
                    "velocity": 0.5118110236220472,
                    "duration": 0.19974699999999856
                },
                {
                    "name": "D5",
                    "midi": 74,
                    "time": 28.563821000000043,
                    "velocity": 0.4566929133858268,
                    "duration": 0.19974700000000212
                },
                {
                    "name": "D#5",
                    "midi": 75,
                    "time": 28.663694500000044,
                    "velocity": 0.3937007874015748,
                    "duration": 0.09987350000000106
                },
                {
                    "name": "D5",
                    "midi": 74,
                    "time": 28.763568000000046,
                    "velocity": 0.6062992125984252,
                    "duration": 0.39949400000000423
                },
                {
                    "name": "A4",
                    "midi": 69,
                    "time": 28.863441500000047,
                    "velocity": 0.3543307086614173,
                    "duration": 0.09987350000000106
                },
                {
                    "name": "G4",
                    "midi": 67,
                    "time": 28.963315000000048,
                    "velocity": 0.3937007874015748,
                    "duration": 0.09987350000000106
                },
                {
                    "name": "F4",
                    "midi": 65,
                    "time": 29.06318850000005,
                    "velocity": 0.33070866141732286,
                    "duration": 0.09987350000000106
                },
                {
                    "name": "D6",
                    "midi": 86,
                    "time": 29.16306200000005,
                    "velocity": 0.6299212598425197,
                    "duration": 0.19974699999999856
                },
                {
                    "name": "D5",
                    "midi": 74,
                    "time": 29.36280900000005,
                    "velocity": 0.4566929133858268,
                    "duration": 0.19974700000000212
                },
                {
                    "name": "D#5",
                    "midi": 75,
                    "time": 29.46268250000005,
                    "velocity": 0.3937007874015748,
                    "duration": 0.09987350000000106
                },
                {
                    "name": "D5",
                    "midi": 74,
                    "time": 29.56255600000005,
                    "velocity": 0.6062992125984252,
                    "duration": 0.39949400000000423
                },
                {
                    "name": "G4",
                    "midi": 67,
                    "time": 29.66242950000005,
                    "velocity": 0.3543307086614173,
                    "duration": 0.09987350000000106
                },
                {
                    "name": "F4",
                    "midi": 65,
                    "time": 29.762303000000053,
                    "velocity": 0.3937007874015748,
                    "duration": 0.09987350000000106
                },
                {
                    "name": "D#4",
                    "midi": 63,
                    "time": 29.862176500000054,
                    "velocity": 0.33070866141732286,
                    "duration": 0.09987350000000106
                },
                {
                    "name": "G5",
                    "midi": 79,
                    "time": 29.962050000000055,
                    "velocity": 0.5433070866141733,
                    "duration": 0.19974699999999856
                },
                {
                    "name": "C5",
                    "midi": 72,
                    "time": 30.161797000000053,
                    "velocity": 0.4566929133858268,
                    "duration": 0.19974700000000212
                },
                {
                    "name": "D5",
                    "midi": 74,
                    "time": 30.261670500000054,
                    "velocity": 0.3937007874015748,
                    "duration": 0.09987350000000106
                },
                {
                    "name": "C5",
                    "midi": 72,
                    "time": 30.361544000000055,
                    "velocity": 0.6062992125984252,
                    "duration": 0.39949400000000423
                },
                {
                    "name": "G4",
                    "midi": 67,
                    "time": 30.461417500000056,
                    "velocity": 0.3543307086614173,
                    "duration": 0.09987350000000106
                },
                {
                    "name": "F4",
                    "midi": 65,
                    "time": 30.561291000000057,
                    "velocity": 0.3937007874015748,
                    "duration": 0.09987350000000106
                },
                {
                    "name": "D#4",
                    "midi": 63,
                    "time": 30.66116450000006,
                    "velocity": 0.33070866141732286,
                    "duration": 0.09987350000000106
                },
                {
                    "name": "C6",
                    "midi": 84,
                    "time": 30.76103800000006,
                    "velocity": 0.6535433070866141,
                    "duration": 0.19974699999999856
                },
                {
                    "name": "C5",
                    "midi": 72,
                    "time": 30.960785000000058,
                    "velocity": 0.41732283464566927,
                    "duration": 0.19974700000000212
                },
                {
                    "name": "D5",
                    "midi": 74,
                    "time": 31.06065850000006,
                    "velocity": 0.36220472440944884,
                    "duration": 0.09987350000000106
                },
                {
                    "name": "C5",
                    "midi": 72,
                    "time": 31.16053200000006,
                    "velocity": 0.5511811023622047,
                    "duration": 0.39949400000000423
                },
                {
                    "name": "F#4",
                    "midi": 66,
                    "time": 31.26040550000006,
                    "velocity": 0.3228346456692913,
                    "duration": 0.09987350000000106
                },
                {
                    "name": "E4",
                    "midi": 64,
                    "time": 31.360279000000062,
                    "velocity": 0.36220472440944884,
                    "duration": 0.09987350000000106
                },
                {
                    "name": "D4",
                    "midi": 62,
                    "time": 31.460152500000063,
                    "velocity": 0.30708661417322836,
                    "duration": 0.09987350000000106
                },
                {
                    "name": "F#5",
                    "midi": 78,
                    "time": 31.560026000000065,
                    "velocity": 0.5354330708661418,
                    "duration": 0.19974699999999856
                },
                {
                    "name": "C5",
                    "midi": 72,
                    "time": 31.759773000000063,
                    "velocity": 0.41732283464566927,
                    "duration": 0.19974700000000212
                },
                {
                    "name": "D5",
                    "midi": 74,
                    "time": 31.859646500000064,
                    "velocity": 0.36220472440944884,
                    "duration": 0.09987350000000106
                },
                {
                    "name": "C5",
                    "midi": 72,
                    "time": 31.959520000000065,
                    "velocity": 0.5511811023622047,
                    "duration": 0.3994940000000007
                },
                {
                    "name": "F#4",
                    "midi": 66,
                    "time": 32.05939350000006,
                    "velocity": 0.3228346456692913,
                    "duration": 0.09987350000000106
                },
                {
                    "name": "E4",
                    "midi": 64,
                    "time": 32.159267000000064,
                    "velocity": 0.36220472440944884,
                    "duration": 0.09987350000000106
                },
                {
                    "name": "D4",
                    "midi": 62,
                    "time": 32.259140500000065,
                    "velocity": 0.30708661417322836,
                    "duration": 0.09987350000000106
                },
                {
                    "name": "C6",
                    "midi": 84,
                    "time": 32.359014000000066,
                    "velocity": 0.5748031496062992,
                    "duration": 0.19974700000000212
                },
                {
                    "name": "D5",
                    "midi": 74,
                    "time": 32.65863450000007,
                    "velocity": 0.4881889763779528,
                    "duration": 0.09987349999999395
                },
                {
                    "name": "G5",
                    "midi": 79,
                    "time": 32.691925666666734,
                    "velocity": 0.41732283464566927,
                    "duration": 0.03329116666666465
                },
                {
                    "name": "A5",
                    "midi": 81,
                    "time": 32.7252168333334,
                    "velocity": 0.4409448818897638,
                    "duration": 0.03329116666666465
                },
                {
                    "name": "A#5",
                    "midi": 82,
                    "time": 32.75850800000006,
                    "velocity": 0.6220472440944882,
                    "duration": 0.09987350000000106
                },
                {
                    "name": "C#5",
                    "midi": 73,
                    "time": 32.858381500000064,
                    "velocity": 0.4015748031496063,
                    "duration": 0.09987350000000106
                },
                {
                    "name": "G5",
                    "midi": 79,
                    "time": 32.958255000000065,
                    "velocity": 0.4330708661417323,
                    "duration": 0.09987350000000106
                },
                {
                    "name": "A#5",
                    "midi": 82,
                    "time": 33.058128500000066,
                    "velocity": 0.4330708661417323,
                    "duration": 0.09987350000000106
                },
                {
                    "name": "A5",
                    "midi": 81,
                    "time": 33.15800200000007,
                    "velocity": 0.6141732283464567,
                    "duration": 0.09987350000000106
                },
                {
                    "name": "C5",
                    "midi": 72,
                    "time": 33.25787550000007,
                    "velocity": 0.3858267716535433,
                    "duration": 0.09987350000000106
                },
                {
                    "name": "F#5",
                    "midi": 78,
                    "time": 33.35774900000007,
                    "velocity": 0.4330708661417323,
                    "duration": 0.09987350000000106
                },
                {
                    "name": "A5",
                    "midi": 81,
                    "time": 33.45762250000007,
                    "velocity": 0.4330708661417323,
                    "duration": 0.09987350000000106
                },
                {
                    "name": "G5",
                    "midi": 79,
                    "time": 33.55749600000007,
                    "velocity": 0.6141732283464567,
                    "duration": 0.09987350000000106
                },
                {
                    "name": "E5",
                    "midi": 76,
                    "time": 33.65736950000007,
                    "velocity": 0.48031496062992124,
                    "duration": 0.09987350000000106
                },
                {
                    "name": "C#5",
                    "midi": 73,
                    "time": 33.757243000000074,
                    "velocity": 0.5118110236220472,
                    "duration": 0.09987350000000106
                },
                {
                    "name": "A#4",
                    "midi": 70,
                    "time": 33.857116500000075,
                    "velocity": 0.5433070866141733,
                    "duration": 0.09987350000000106
                },
                {
                    "name": "D5",
                    "midi": 74,
                    "time": 34.25661050000008,
                    "velocity": 0.5039370078740157,
                    "duration": 0.09987349999999395
                },
                {
                    "name": "G5",
                    "midi": 79,
                    "time": 34.28990166666674,
                    "velocity": 0.4409448818897638,
                    "duration": 0.03329116666666465
                },
                {
                    "name": "A5",
                    "midi": 81,
                    "time": 34.32319283333341,
                    "velocity": 0.4566929133858268,
                    "duration": 0.03329116666666465
                },
                {
                    "name": "A#5",
                    "midi": 82,
                    "time": 34.35648400000007,
                    "velocity": 0.6220472440944882,
                    "duration": 0.09987350000000106
                },
                {
                    "name": "C#5",
                    "midi": 73,
                    "time": 34.456357500000074,
                    "velocity": 0.4015748031496063,
                    "duration": 0.09987350000000106
                },
                {
                    "name": "G5",
                    "midi": 79,
                    "time": 34.556231000000075,
                    "velocity": 0.4330708661417323,
                    "duration": 0.09987350000000106
                },
                {
                    "name": "A#5",
                    "midi": 82,
                    "time": 34.656104500000076,
                    "velocity": 0.4330708661417323,
                    "duration": 0.09987350000000106
                },
                {
                    "name": "A5",
                    "midi": 81,
                    "time": 34.75597800000008,
                    "velocity": 0.6141732283464567,
                    "duration": 0.09987350000000106
                },
                {
                    "name": "C5",
                    "midi": 72,
                    "time": 34.85585150000008,
                    "velocity": 0.3858267716535433,
                    "duration": 0.09987350000000106
                },
                {
                    "name": "F#5",
                    "midi": 78,
                    "time": 34.95572500000008,
                    "velocity": 0.4330708661417323,
                    "duration": 0.09987350000000106
                },
                {
                    "name": "A5",
                    "midi": 81,
                    "time": 35.05559850000008,
                    "velocity": 0.4330708661417323,
                    "duration": 0.09987350000000106
                },
                {
                    "name": "G5",
                    "midi": 79,
                    "time": 35.15547200000008,
                    "velocity": 0.6141732283464567,
                    "duration": 0.09987350000000106
                },
                {
                    "name": "E5",
                    "midi": 76,
                    "time": 35.25534550000008,
                    "velocity": 0.4566929133858268,
                    "duration": 0.09987350000000106
                },
                {
                    "name": "C#5",
                    "midi": 73,
                    "time": 35.35521900000008,
                    "velocity": 0.4881889763779528,
                    "duration": 0.09987350000000106
                },
                {
                    "name": "A#4",
                    "midi": 70,
                    "time": 35.455092500000084,
                    "velocity": 0.5118110236220472,
                    "duration": 0.09987350000000106
                },
                {
                    "name": "A#4",
                    "midi": 70,
                    "time": 35.85458650000009,
                    "velocity": 0.49606299212598426,
                    "duration": 0.09987349999999395
                },
                {
                    "name": "D5",
                    "midi": 74,
                    "time": 35.88787766666675,
                    "velocity": 0.4015748031496063,
                    "duration": 0.03329116666666465
                },
                {
                    "name": "D#5",
                    "midi": 75,
                    "time": 35.92116883333342,
                    "velocity": 0.44881889763779526,
                    "duration": 0.03329116666666465
                },
                {
                    "name": "F5",
                    "midi": 77,
                    "time": 35.95446000000008,
                    "velocity": 0.6141732283464567,
                    "duration": 0.09987350000000106
                },
                {
                    "name": "G#4",
                    "midi": 68,
                    "time": 36.054333500000084,
                    "velocity": 0.36220472440944884,
                    "duration": 0.09987350000000106
                },
                {
                    "name": "D5",
                    "midi": 74,
                    "time": 36.154207000000085,
                    "velocity": 0.4015748031496063,
                    "duration": 0.09987350000000106
                },
                {
                    "name": "F5",
                    "midi": 77,
                    "time": 36.254080500000086,
                    "velocity": 0.3464566929133858,
                    "duration": 0.09987350000000106
                },
                {
                    "name": "D#5",
                    "midi": 75,
                    "time": 36.35395400000009,
                    "velocity": 0.5669291338582677,
                    "duration": 0.09987350000000106
                },
                {
                    "name": "G4",
                    "midi": 67,
                    "time": 36.45382750000009,
                    "velocity": 0.3464566929133858,
                    "duration": 0.09987350000000106
                },
                {
                    "name": "C5",
                    "midi": 72,
                    "time": 36.55370100000009,
                    "velocity": 0.3937007874015748,
                    "duration": 0.09987350000000106
                },
                {
                    "name": "D#5",
                    "midi": 75,
                    "time": 36.65357450000009,
                    "velocity": 0.36220472440944884,
                    "duration": 0.09987350000000106
                },
                {
                    "name": "D5",
                    "midi": 74,
                    "time": 36.75344800000009,
                    "velocity": 0.5669291338582677,
                    "duration": 0.09987350000000106
                },
                {
                    "name": "B4",
                    "midi": 71,
                    "time": 36.85332150000009,
                    "velocity": 0.3464566929133858,
                    "duration": 0.09987350000000106
                },
                {
                    "name": "G#4",
                    "midi": 68,
                    "time": 36.95319500000009,
                    "velocity": 0.3858267716535433,
                    "duration": 0.09987350000000106
                },
                {
                    "name": "F4",
                    "midi": 65,
                    "time": 37.053068500000094,
                    "velocity": 0.3464566929133858,
                    "duration": 0.09987350000000106
                },
                {
                    "name": "F4",
                    "midi": 65,
                    "time": 37.392638400000095,
                    "velocity": 0.49606299212598426,
                    "duration": 0.15979759999999033
                },
                {
                    "name": "G#4",
                    "midi": 68,
                    "time": 37.44590426666676,
                    "velocity": 0.3543307086614173,
                    "duration": 0.05326586666666344
                },
                {
                    "name": "B4",
                    "midi": 71,
                    "time": 37.49917013333342,
                    "velocity": 0.4409448818897638,
                    "duration": 0.05326586666666344
                },
                {
                    "name": "C5",
                    "midi": 72,
                    "time": 37.552436000000085,
                    "velocity": 0.5748031496062992,
                    "duration": 0.09987350000000106
                },
                {
                    "name": "D#4",
                    "midi": 63,
                    "time": 37.65230950000009,
                    "velocity": 0.36220472440944884,
                    "duration": 0.09987350000000106
                },
                {
                    "name": "G4",
                    "midi": 67,
                    "time": 37.75218300000009,
                    "velocity": 0.4015748031496063,
                    "duration": 0.09987350000000106
                },
                {
                    "name": "C5",
                    "midi": 72,
                    "time": 37.85205650000009,
                    "velocity": 0.3464566929133858,
                    "duration": 0.09987350000000106
                },
                {
                    "name": "A4",
                    "midi": 69,
                    "time": 37.95193000000009,
                    "velocity": 0.5669291338582677,
                    "duration": 0.09987350000000106
                },
                {
                    "name": "C4",
                    "midi": 60,
                    "time": 38.05180350000009,
                    "velocity": 0.3464566929133858,
                    "duration": 0.09987350000000106
                },
                {
                    "name": "F#4",
                    "midi": 66,
                    "time": 38.15167700000009,
                    "velocity": 0.3937007874015748,
                    "duration": 0.09987350000000106
                },
                {
                    "name": "A4",
                    "midi": 69,
                    "time": 38.25155050000009,
                    "velocity": 0.36220472440944884,
                    "duration": 0.09987350000000106
                },
                {
                    "name": "G4",
                    "midi": 67,
                    "time": 38.351424000000094,
                    "velocity": 0.5669291338582677,
                    "duration": 0.07989880000000227
                },
                {
                    "name": "D4",
                    "midi": 62,
                    "time": 38.431322800000096,
                    "velocity": 0.4094488188976378,
                    "duration": 0.07989880000000227
                },
                {
                    "name": "A#3",
                    "midi": 58,
                    "time": 38.5112216000001,
                    "velocity": 0.4330708661417323,
                    "duration": 0.07989880000000227
                },
                {
                    "name": "G3",
                    "midi": 55,
                    "time": 38.5911204000001,
                    "velocity": 0.4566929133858268,
                    "duration": 0.07989880000000227
                },
                {
                    "name": "D3",
                    "midi": 50,
                    "time": 38.6710192000001,
                    "velocity": 0.48031496062992124,
                    "duration": 0.07989880000000227
                },
                {
                    "name": "C4",
                    "midi": 60,
                    "time": 42.146617000000106,
                    "velocity": 0.4251968503937008,
                    "duration": 0.09987350000000106
                },
                {
                    "name": "B3",
                    "midi": 59,
                    "time": 42.24649050000011,
                    "velocity": 0.3228346456692913,
                    "duration": 0.09987350000000106
                },
                {
                    "name": "C4",
                    "midi": 60,
                    "time": 42.34636400000011,
                    "velocity": 0.48031496062992124,
                    "duration": 0.11984819999999985
                },
                {
                    "name": "D4",
                    "midi": 62,
                    "time": 42.44623750000011,
                    "velocity": 0.3543307086614173,
                    "duration": 0.09987350000000106
                },
                {
                    "name": "C4",
                    "midi": 60,
                    "time": 42.54611100000011,
                    "velocity": 0.4094488188976378,
                    "duration": 0.11984819999999985
                },
                {
                    "name": "D4",
                    "midi": 62,
                    "time": 42.64598450000011,
                    "velocity": 0.3464566929133858,
                    "duration": 0.09987350000000106
                },
                {
                    "name": "A#3",
                    "midi": 58,
                    "time": 42.74585800000011,
                    "velocity": 0.4251968503937008,
                    "duration": 0.11984819999999985
                },
                {
                    "name": "C4",
                    "midi": 60,
                    "time": 42.84573150000011,
                    "velocity": 0.3543307086614173,
                    "duration": 0.09987350000000106
                },
                {
                    "name": "A3",
                    "midi": 57,
                    "time": 42.945605000000114,
                    "velocity": 0.3937007874015748,
                    "duration": 0.11984819999999985
                },
                {
                    "name": "A#3",
                    "midi": 58,
                    "time": 43.045478500000115,
                    "velocity": 0.33858267716535434,
                    "duration": 0.09987350000000106
                },
                {
                    "name": "G3",
                    "midi": 55,
                    "time": 43.145352000000116,
                    "velocity": 0.4251968503937008,
                    "duration": 0.09987350000000106
                },
                {
                    "name": "A3",
                    "midi": 57,
                    "time": 43.24522550000012,
                    "velocity": 0.3543307086614173,
                    "duration": 0.09987350000000106
                },
                {
                    "name": "A#3",
                    "midi": 58,
                    "time": 43.34509900000012,
                    "velocity": 0.3543307086614173,
                    "duration": 0.09987350000000106
                },
                {
                    "name": "D4",
                    "midi": 62,
                    "time": 43.44497250000012,
                    "velocity": 0.4015748031496063,
                    "duration": 0.09987350000000106
                },
                {
                    "name": "G4",
                    "midi": 67,
                    "time": 43.54484600000012,
                    "velocity": 0.3937007874015748,
                    "duration": 0.09987350000000106
                },
                {
                    "name": "A4",
                    "midi": 69,
                    "time": 43.64471950000012,
                    "velocity": 0.4251968503937008,
                    "duration": 0.09987350000000106
                },
                {
                    "name": "A#4",
                    "midi": 70,
                    "time": 43.74459300000012,
                    "velocity": 0.4566929133858268,
                    "duration": 0.09987350000000106
                },
                {
                    "name": "F#4",
                    "midi": 66,
                    "time": 43.844466500000124,
                    "velocity": 0.3937007874015748,
                    "duration": 0.09987350000000106
                },
                {
                    "name": "G4",
                    "midi": 67,
                    "time": 43.944340000000125,
                    "velocity": 0.47244094488188976,
                    "duration": 0.11984819999999985
                },
                {
                    "name": "F#4",
                    "midi": 66,
                    "time": 44.044213500000126,
                    "velocity": 0.3543307086614173,
                    "duration": 0.09987350000000106
                },
                {
                    "name": "G4",
                    "midi": 67,
                    "time": 44.14408700000013,
                    "velocity": 0.41732283464566927,
                    "duration": 0.11984819999999985
                },
                {
                    "name": "D4",
                    "midi": 62,
                    "time": 44.24396050000013,
                    "velocity": 0.3543307086614173,
                    "duration": 0.09987350000000106
                },
                {
                    "name": "D#4",
                    "midi": 63,
                    "time": 44.34383400000013,
                    "velocity": 0.4251968503937008,
                    "duration": 0.11984819999999985
                },
                {
                    "name": "D4",
                    "midi": 62,
                    "time": 44.44370750000013,
                    "velocity": 0.33858267716535434,
                    "duration": 0.09987350000000106
                },
                {
                    "name": "D#4",
                    "midi": 63,
                    "time": 44.54358100000013,
                    "velocity": 0.3779527559055118,
                    "duration": 0.11984819999999985
                },
                {
                    "name": "B3",
                    "midi": 59,
                    "time": 44.64345450000013,
                    "velocity": 0.33070866141732286,
                    "duration": 0.09987350000000106
                },
                {
                    "name": "C4",
                    "midi": 60,
                    "time": 44.74332800000013,
                    "velocity": 0.4094488188976378,
                    "duration": 0.11984819999999985
                },
                {
                    "name": "B3",
                    "midi": 59,
                    "time": 44.843201500000134,
                    "velocity": 0.3543307086614173,
                    "duration": 0.09987350000000106
                },
                {
                    "name": "C4",
                    "midi": 60,
                    "time": 44.943075000000135,
                    "velocity": 0.3779527559055118,
                    "duration": 0.11984819999999985
                },
                {
                    "name": "G3",
                    "midi": 55,
                    "time": 45.042948500000136,
                    "velocity": 0.33858267716535434,
                    "duration": 0.09987350000000106
                },
                {
                    "name": "B3",
                    "midi": 59,
                    "time": 45.14282200000014,
                    "velocity": 0.4015748031496063,
                    "duration": 0.11984819999999985
                },
                {
                    "name": "G3",
                    "midi": 55,
                    "time": 45.24269550000014,
                    "velocity": 0.3937007874015748,
                    "duration": 0.09987350000000106
                },
                {
                    "name": "G4",
                    "midi": 67,
                    "time": 45.34256900000014,
                    "velocity": 0.5196850393700787,
                    "duration": 0.11984819999999985
                },
                {
                    "name": "F#4",
                    "midi": 66,
                    "time": 45.44244250000014,
                    "velocity": 0.3937007874015748,
                    "duration": 0.09987350000000106
                },
                {
                    "name": "G4",
                    "midi": 67,
                    "time": 45.54231600000014,
                    "velocity": 0.5826771653543307,
                    "duration": 0.11984819999999985
                },
                {
                    "name": "G#4",
                    "midi": 68,
                    "time": 45.64218950000014,
                    "velocity": 0.4330708661417323,
                    "duration": 0.09987350000000106
                },
                {
                    "name": "F4",
                    "midi": 65,
                    "time": 45.742063000000144,
                    "velocity": 0.49606299212598426,
                    "duration": 0.11984819999999985
                },
                {
                    "name": "G4",
                    "midi": 67,
                    "time": 45.841936500000145,
                    "velocity": 0.41732283464566927,
                    "duration": 0.09987350000000106
                },
                {
                    "name": "D#4",
                    "midi": 63,
                    "time": 45.941810000000146,
                    "velocity": 0.5196850393700787,
                    "duration": 0.11984819999999985
                },
                {
                    "name": "F4",
                    "midi": 65,
                    "time": 46.04168350000015,
                    "velocity": 0.4330708661417323,
                    "duration": 0.09987350000000106
                },
                {
                    "name": "D4",
                    "midi": 62,
                    "time": 46.14155700000015,
                    "velocity": 0.48031496062992124,
                    "duration": 0.11984819999999985
                },
                {
                    "name": "D#4",
                    "midi": 63,
                    "time": 46.24143050000015,
                    "velocity": 0.4094488188976378,
                    "duration": 0.09987350000000106
                },
                {
                    "name": "C4",
                    "midi": 60,
                    "time": 46.34130400000015,
                    "velocity": 0.5196850393700787,
                    "duration": 0.09987350000000106
                },
                {
                    "name": "D4",
                    "midi": 62,
                    "time": 46.44117750000015,
                    "velocity": 0.4409448818897638,
                    "duration": 0.09987350000000106
                },
                {
                    "name": "D#4",
                    "midi": 63,
                    "time": 46.54105100000015,
                    "velocity": 0.4409448818897638,
                    "duration": 0.09987350000000106
                },
                {
                    "name": "G4",
                    "midi": 67,
                    "time": 46.64092450000015,
                    "velocity": 0.4881889763779528,
                    "duration": 0.09987350000000106
                },
                {
                    "name": "C5",
                    "midi": 72,
                    "time": 46.740798000000154,
                    "velocity": 0.48031496062992124,
                    "duration": 0.09987350000000106
                },
                {
                    "name": "D5",
                    "midi": 74,
                    "time": 46.840671500000155,
                    "velocity": 0.5196850393700787,
                    "duration": 0.09987350000000106
                },
                {
                    "name": "D#5",
                    "midi": 75,
                    "time": 46.94054500000016,
                    "velocity": 0.5590551181102362,
                    "duration": 0.09987350000000106
                },
                {
                    "name": "F#4",
                    "midi": 66,
                    "time": 47.04041850000016,
                    "velocity": 0.48031496062992124,
                    "duration": 0.09987350000000106
                },
                {
                    "name": "D5",
                    "midi": 74,
                    "time": 47.14029200000016,
                    "velocity": 0.5748031496062992,
                    "duration": 0.09987350000000106
                },
                {
                    "name": "G4",
                    "midi": 67,
                    "time": 47.24016550000016,
                    "velocity": 0.4409448818897638,
                    "duration": 0.09987350000000106
                },
                {
                    "name": "A#4",
                    "midi": 70,
                    "time": 47.34003900000016,
                    "velocity": 0.5039370078740157,
                    "duration": 0.09987350000000106
                },
                {
                    "name": "D5",
                    "midi": 74,
                    "time": 47.43991250000016,
                    "velocity": 0.4409448818897638,
                    "duration": 0.09987350000000106
                },
                {
                    "name": "C5",
                    "midi": 72,
                    "time": 47.53978600000016,
                    "velocity": 0.5196850393700787,
                    "duration": 0.09987350000000106
                },
                {
                    "name": "D#4",
                    "midi": 63,
                    "time": 47.639659500000164,
                    "velocity": 0.4094488188976378,
                    "duration": 0.09987350000000106
                },
                {
                    "name": "A4",
                    "midi": 69,
                    "time": 47.739533000000165,
                    "velocity": 0.4645669291338583,
                    "duration": 0.09987350000000106
                },
                {
                    "name": "C5",
                    "midi": 72,
                    "time": 47.839406500000166,
                    "velocity": 0.4015748031496063,
                    "duration": 0.09987350000000106
                },
                {
                    "name": "F#4",
                    "midi": 66,
                    "time": 47.93928000000017,
                    "velocity": 0.49606299212598426,
                    "duration": 0.09987350000000106
                },
                {
                    "name": "C4",
                    "midi": 60,
                    "time": 48.03915350000017,
                    "velocity": 0.4330708661417323,
                    "duration": 0.09987350000000106
                },
                {
                    "name": "D4",
                    "midi": 62,
                    "time": 48.13902700000017,
                    "velocity": 0.4645669291338583,
                    "duration": 0.09987350000000106
                },
                {
                    "name": "F#4",
                    "midi": 66,
                    "time": 48.23890050000017,
                    "velocity": 0.4094488188976378,
                    "duration": 0.09987350000000106
                },
                {
                    "name": "B3",
                    "midi": 59,
                    "time": 48.33877400000017,
                    "velocity": 0.4645669291338583,
                    "duration": 0.19974700000000212
                },
                {
                    "name": "G4",
                    "midi": 67,
                    "time": 48.33877400000017,
                    "velocity": 0.5511811023622047,
                    "duration": 0.19974700000000212
                },
                {
                    "name": "C4",
                    "midi": 60,
                    "time": 51.73447300000017,
                    "velocity": 0.4251968503937008,
                    "duration": 0.09987350000000106
                },
                {
                    "name": "B3",
                    "midi": 59,
                    "time": 51.83434650000017,
                    "velocity": 0.3228346456692913,
                    "duration": 0.09987350000000106
                },
                {
                    "name": "C4",
                    "midi": 60,
                    "time": 51.934220000000174,
                    "velocity": 0.48031496062992124,
                    "duration": 0.11984819999999985
                },
                {
                    "name": "D4",
                    "midi": 62,
                    "time": 52.034093500000175,
                    "velocity": 0.3543307086614173,
                    "duration": 0.09987350000000106
                },
                {
                    "name": "C4",
                    "midi": 60,
                    "time": 52.133967000000176,
                    "velocity": 0.4094488188976378,
                    "duration": 0.11984819999999985
                },
                {
                    "name": "D4",
                    "midi": 62,
                    "time": 52.23384050000018,
                    "velocity": 0.3464566929133858,
                    "duration": 0.09987350000000106
                },
                {
                    "name": "A#3",
                    "midi": 58,
                    "time": 52.33371400000018,
                    "velocity": 0.4251968503937008,
                    "duration": 0.11984819999999985
                },
                {
                    "name": "C4",
                    "midi": 60,
                    "time": 52.43358750000018,
                    "velocity": 0.3543307086614173,
                    "duration": 0.09987350000000106
                },
                {
                    "name": "A3",
                    "midi": 57,
                    "time": 52.53346100000018,
                    "velocity": 0.3937007874015748,
                    "duration": 0.11984819999999985
                },
                {
                    "name": "A#3",
                    "midi": 58,
                    "time": 52.63333450000018,
                    "velocity": 0.33858267716535434,
                    "duration": 0.09987350000000106
                },
                {
                    "name": "G3",
                    "midi": 55,
                    "time": 52.73320800000018,
                    "velocity": 0.4251968503937008,
                    "duration": 0.09987350000000106
                },
                {
                    "name": "A3",
                    "midi": 57,
                    "time": 52.83308150000018,
                    "velocity": 0.3543307086614173,
                    "duration": 0.09987350000000106
                },
                {
                    "name": "A#3",
                    "midi": 58,
                    "time": 52.932955000000184,
                    "velocity": 0.3543307086614173,
                    "duration": 0.09987350000000106
                },
                {
                    "name": "D4",
                    "midi": 62,
                    "time": 53.032828500000186,
                    "velocity": 0.4015748031496063,
                    "duration": 0.09987350000000106
                },
                {
                    "name": "G4",
                    "midi": 67,
                    "time": 53.13270200000019,
                    "velocity": 0.3937007874015748,
                    "duration": 0.09987350000000106
                },
                {
                    "name": "A4",
                    "midi": 69,
                    "time": 53.23257550000019,
                    "velocity": 0.4251968503937008,
                    "duration": 0.09987350000000106
                },
                {
                    "name": "A#4",
                    "midi": 70,
                    "time": 53.33244900000019,
                    "velocity": 0.4566929133858268,
                    "duration": 0.09987350000000106
                },
                {
                    "name": "F#4",
                    "midi": 66,
                    "time": 53.43232250000019,
                    "velocity": 0.3937007874015748,
                    "duration": 0.09987350000000106
                },
                {
                    "name": "G4",
                    "midi": 67,
                    "time": 53.53219600000019,
                    "velocity": 0.47244094488188976,
                    "duration": 0.11984819999999985
                },
                {
                    "name": "F#4",
                    "midi": 66,
                    "time": 53.63206950000019,
                    "velocity": 0.3543307086614173,
                    "duration": 0.09987350000000106
                },
                {
                    "name": "G4",
                    "midi": 67,
                    "time": 53.73194300000019,
                    "velocity": 0.41732283464566927,
                    "duration": 0.11984819999999985
                },
                {
                    "name": "D4",
                    "midi": 62,
                    "time": 53.831816500000194,
                    "velocity": 0.3543307086614173,
                    "duration": 0.09987350000000106
                },
                {
                    "name": "D#4",
                    "midi": 63,
                    "time": 53.931690000000195,
                    "velocity": 0.4251968503937008,
                    "duration": 0.11984819999999985
                },
                {
                    "name": "D4",
                    "midi": 62,
                    "time": 54.031563500000196,
                    "velocity": 0.33858267716535434,
                    "duration": 0.09987350000000106
                },
                {
                    "name": "D#4",
                    "midi": 63,
                    "time": 54.1314370000002,
                    "velocity": 0.3779527559055118,
                    "duration": 0.11984819999999985
                },
                {
                    "name": "B3",
                    "midi": 59,
                    "time": 54.2313105000002,
                    "velocity": 0.33070866141732286,
                    "duration": 0.09987350000000106
                },
                {
                    "name": "C4",
                    "midi": 60,
                    "time": 54.3311840000002,
                    "velocity": 0.4094488188976378,
                    "duration": 0.11984819999999985
                },
                {
                    "name": "B3",
                    "midi": 59,
                    "time": 54.4310575000002,
                    "velocity": 0.3543307086614173,
                    "duration": 0.09987350000000106
                },
                {
                    "name": "C4",
                    "midi": 60,
                    "time": 54.5309310000002,
                    "velocity": 0.3779527559055118,
                    "duration": 0.11984819999999985
                },
                {
                    "name": "G3",
                    "midi": 55,
                    "time": 54.6308045000002,
                    "velocity": 0.33858267716535434,
                    "duration": 0.09987350000000106
                },
                {
                    "name": "B3",
                    "midi": 59,
                    "time": 54.730678000000204,
                    "velocity": 0.4015748031496063,
                    "duration": 0.11984819999999985
                },
                {
                    "name": "G3",
                    "midi": 55,
                    "time": 54.830551500000205,
                    "velocity": 0.3937007874015748,
                    "duration": 0.09987350000000106
                },
                {
                    "name": "G4",
                    "midi": 67,
                    "time": 54.930425000000206,
                    "velocity": 0.5196850393700787,
                    "duration": 0.11984819999999985
                },
                {
                    "name": "F#4",
                    "midi": 66,
                    "time": 55.03029850000021,
                    "velocity": 0.3937007874015748,
                    "duration": 0.09987350000000106
                },
                {
                    "name": "G4",
                    "midi": 67,
                    "time": 55.13017200000021,
                    "velocity": 0.5826771653543307,
                    "duration": 0.11984819999999985
                },
                {
                    "name": "G#4",
                    "midi": 68,
                    "time": 55.23004550000021,
                    "velocity": 0.4330708661417323,
                    "duration": 0.09987350000000106
                },
                {
                    "name": "F4",
                    "midi": 65,
                    "time": 55.32991900000021,
                    "velocity": 0.49606299212598426,
                    "duration": 0.11984819999999985
                },
                {
                    "name": "G4",
                    "midi": 67,
                    "time": 55.42979250000021,
                    "velocity": 0.41732283464566927,
                    "duration": 0.09987350000000106
                },
                {
                    "name": "D#4",
                    "midi": 63,
                    "time": 55.52966600000021,
                    "velocity": 0.5196850393700787,
                    "duration": 0.11984819999999985
                },
                {
                    "name": "F4",
                    "midi": 65,
                    "time": 55.62953950000021,
                    "velocity": 0.4330708661417323,
                    "duration": 0.09987350000000106
                },
                {
                    "name": "D4",
                    "midi": 62,
                    "time": 55.729413000000214,
                    "velocity": 0.48031496062992124,
                    "duration": 0.11984819999999985
                },
                {
                    "name": "D#4",
                    "midi": 63,
                    "time": 55.829286500000215,
                    "velocity": 0.4094488188976378,
                    "duration": 0.09987350000000106
                },
                {
                    "name": "C4",
                    "midi": 60,
                    "time": 55.929160000000216,
                    "velocity": 0.5196850393700787,
                    "duration": 0.09987350000000106
                },
                {
                    "name": "D4",
                    "midi": 62,
                    "time": 56.02903350000022,
                    "velocity": 0.4409448818897638,
                    "duration": 0.09987350000000106
                },
                {
                    "name": "D#4",
                    "midi": 63,
                    "time": 56.12890700000022,
                    "velocity": 0.4409448818897638,
                    "duration": 0.09987350000000106
                },
                {
                    "name": "G4",
                    "midi": 67,
                    "time": 56.22878050000022,
                    "velocity": 0.4881889763779528,
                    "duration": 0.09987350000000106
                },
                {
                    "name": "C5",
                    "midi": 72,
                    "time": 56.32865400000022,
                    "velocity": 0.48031496062992124,
                    "duration": 0.09987350000000106
                },
                {
                    "name": "D5",
                    "midi": 74,
                    "time": 56.42852750000022,
                    "velocity": 0.5196850393700787,
                    "duration": 0.09987350000000106
                },
                {
                    "name": "D#5",
                    "midi": 75,
                    "time": 56.52840100000022,
                    "velocity": 0.5590551181102362,
                    "duration": 0.09987350000000106
                },
                {
                    "name": "F#4",
                    "midi": 66,
                    "time": 56.628274500000224,
                    "velocity": 0.48031496062992124,
                    "duration": 0.09987350000000106
                },
                {
                    "name": "D5",
                    "midi": 74,
                    "time": 56.728148000000225,
                    "velocity": 0.5748031496062992,
                    "duration": 0.09987350000000106
                },
                {
                    "name": "G4",
                    "midi": 67,
                    "time": 56.828021500000226,
                    "velocity": 0.4409448818897638,
                    "duration": 0.09987350000000106
                },
                {
                    "name": "A#4",
                    "midi": 70,
                    "time": 56.92789500000023,
                    "velocity": 0.5039370078740157,
                    "duration": 0.09987350000000106
                },
                {
                    "name": "D5",
                    "midi": 74,
                    "time": 57.02776850000023,
                    "velocity": 0.4409448818897638,
                    "duration": 0.09987350000000106
                },
                {
                    "name": "C5",
                    "midi": 72,
                    "time": 57.12764200000023,
                    "velocity": 0.5196850393700787,
                    "duration": 0.09987350000000106
                },
                {
                    "name": "D#4",
                    "midi": 63,
                    "time": 57.22751550000023,
                    "velocity": 0.4094488188976378,
                    "duration": 0.09987350000000106
                },
                {
                    "name": "A4",
                    "midi": 69,
                    "time": 57.32738900000023,
                    "velocity": 0.4645669291338583,
                    "duration": 0.09987350000000106
                },
                {
                    "name": "C5",
                    "midi": 72,
                    "time": 57.42726250000023,
                    "velocity": 0.4015748031496063,
                    "duration": 0.09987350000000106
                },
                {
                    "name": "F#4",
                    "midi": 66,
                    "time": 57.52713600000023,
                    "velocity": 0.49606299212598426,
                    "duration": 0.09987350000000106
                },
                {
                    "name": "C4",
                    "midi": 60,
                    "time": 57.627009500000234,
                    "velocity": 0.4330708661417323,
                    "duration": 0.09987350000000106
                },
                {
                    "name": "D4",
                    "midi": 62,
                    "time": 57.726883000000235,
                    "velocity": 0.4645669291338583,
                    "duration": 0.09987350000000106
                },
                {
                    "name": "F#4",
                    "midi": 66,
                    "time": 57.826756500000236,
                    "velocity": 0.4094488188976378,
                    "duration": 0.09987350000000106
                },
                {
                    "name": "B3",
                    "midi": 59,
                    "time": 57.92663000000024,
                    "velocity": 0.4645669291338583,
                    "duration": 0.19974700000000212
                },
                {
                    "name": "G4",
                    "midi": 67,
                    "time": 57.92663000000024,
                    "velocity": 0.5511811023622047,
                    "duration": 0.19974700000000212
                },
                {
                    "name": "C5",
                    "midi": 72,
                    "time": 58.12637700000024,
                    "velocity": 0.4251968503937008,
                    "duration": 0.09987350000000106
                },
                {
                    "name": "B4",
                    "midi": 71,
                    "time": 58.22625050000024,
                    "velocity": 0.3228346456692913,
                    "duration": 0.09987350000000106
                },
                {
                    "name": "C5",
                    "midi": 72,
                    "time": 58.32612400000024,
                    "velocity": 0.48031496062992124,
                    "duration": 0.09987350000000106
                },
                {
                    "name": "C#5",
                    "midi": 73,
                    "time": 58.42599750000024,
                    "velocity": 0.3543307086614173,
                    "duration": 0.09987350000000106
                },
                {
                    "name": "A#4",
                    "midi": 70,
                    "time": 58.525871000000244,
                    "velocity": 0.4094488188976378,
                    "duration": 0.09987350000000106
                },
                {
                    "name": "C5",
                    "midi": 72,
                    "time": 58.625744500000245,
                    "velocity": 0.3464566929133858,
                    "duration": 0.09987350000000106
                },
                {
                    "name": "G#4",
                    "midi": 68,
                    "time": 58.725618000000246,
                    "velocity": 0.4251968503937008,
                    "duration": 0.09987350000000106
                },
                {
                    "name": "A#4",
                    "midi": 70,
                    "time": 58.82549150000025,
                    "velocity": 0.3543307086614173,
                    "duration": 0.09987350000000106
                },
                {
                    "name": "G4",
                    "midi": 67,
                    "time": 58.92536500000025,
                    "velocity": 0.3937007874015748,
                    "duration": 0.09987350000000106
                },
                {
                    "name": "G#4",
                    "midi": 68,
                    "time": 59.02523850000025,
                    "velocity": 0.33858267716535434,
                    "duration": 0.09987350000000106
                },
                {
                    "name": "F4",
                    "midi": 65,
                    "time": 59.12511200000025,
                    "velocity": 0.4251968503937008,
                    "duration": 0.09987350000000106
                },
                {
                    "name": "G4",
                    "midi": 67,
                    "time": 59.22498550000025,
                    "velocity": 0.3543307086614173,
                    "duration": 0.09987350000000106
                },
                {
                    "name": "G#4",
                    "midi": 68,
                    "time": 59.32485900000025,
                    "velocity": 0.3543307086614173,
                    "duration": 0.09987350000000106
                },
                {
                    "name": "C5",
                    "midi": 72,
                    "time": 59.42473250000025,
                    "velocity": 0.4015748031496063,
                    "duration": 0.09987350000000106
                },
                {
                    "name": "F5",
                    "midi": 77,
                    "time": 59.524606000000254,
                    "velocity": 0.3937007874015748,
                    "duration": 0.09987350000000106
                },
                {
                    "name": "G5",
                    "midi": 79,
                    "time": 59.624479500000255,
                    "velocity": 0.4251968503937008,
                    "duration": 0.09987350000000106
                },
                {
                    "name": "G#5",
                    "midi": 80,
                    "time": 59.72435300000026,
                    "velocity": 0.4566929133858268,
                    "duration": 0.09987350000000106
                },
                {
                    "name": "D#5",
                    "midi": 75,
                    "time": 59.82422650000026,
                    "velocity": 0.3937007874015748,
                    "duration": 0.09987350000000106
                },
                {
                    "name": "D5",
                    "midi": 74,
                    "time": 59.92410000000026,
                    "velocity": 0.47244094488188976,
                    "duration": 0.09987350000000106
                },
                {
                    "name": "D#5",
                    "midi": 75,
                    "time": 60.02397350000026,
                    "velocity": 0.3543307086614173,
                    "duration": 0.09987350000000106
                },
                {
                    "name": "C5",
                    "midi": 72,
                    "time": 60.12384700000026,
                    "velocity": 0.41732283464566927,
                    "duration": 0.09987350000000106
                },
                {
                    "name": "D5",
                    "midi": 74,
                    "time": 60.22372050000026,
                    "velocity": 0.3543307086614173,
                    "duration": 0.09987350000000106
                },
                {
                    "name": "A#4",
                    "midi": 70,
                    "time": 60.32359400000026,
                    "velocity": 0.4251968503937008,
                    "duration": 0.09987350000000106
                },
                {
                    "name": "C5",
                    "midi": 72,
                    "time": 60.423467500000264,
                    "velocity": 0.33858267716535434,
                    "duration": 0.09987350000000106
                },
                {
                    "name": "A4",
                    "midi": 69,
                    "time": 60.523341000000265,
                    "velocity": 0.3779527559055118,
                    "duration": 0.09987350000000106
                },
                {
                    "name": "A#4",
                    "midi": 70,
                    "time": 60.623214500000266,
                    "velocity": 0.33070866141732286,
                    "duration": 0.09987350000000106
                },
                {
                    "name": "G4",
                    "midi": 67,
                    "time": 60.72308800000027,
                    "velocity": 0.4251968503937008,
                    "duration": 0.09987350000000106
                },
                {
                    "name": "A4",
                    "midi": 69,
                    "time": 60.82296150000027,
                    "velocity": 0.3779527559055118,
                    "duration": 0.09987350000000106
                },
                {
                    "name": "A#4",
                    "midi": 70,
                    "time": 60.92283500000027,
                    "velocity": 0.3779527559055118,
                    "duration": 0.09987350000000106
                },
                {
                    "name": "D5",
                    "midi": 74,
                    "time": 61.02270850000027,
                    "velocity": 0.4015748031496063,
                    "duration": 0.09987350000000106
                },
                {
                    "name": "G5",
                    "midi": 79,
                    "time": 61.12258200000027,
                    "velocity": 0.3937007874015748,
                    "duration": 0.09987350000000106
                },
                {
                    "name": "A5",
                    "midi": 81,
                    "time": 61.22245550000027,
                    "velocity": 0.4251968503937008,
                    "duration": 0.09987350000000106
                },
                {
                    "name": "A#5",
                    "midi": 82,
                    "time": 61.32232900000027,
                    "velocity": 0.4566929133858268,
                    "duration": 0.09987350000000106
                },
                {
                    "name": "F#5",
                    "midi": 78,
                    "time": 61.422202500000274,
                    "velocity": 0.3937007874015748,
                    "duration": 0.09987350000000106
                },
                {
                    "name": "G5",
                    "midi": 79,
                    "time": 61.522076000000276,
                    "velocity": 0.47244094488188976,
                    "duration": 0.09987350000000106
                },
                {
                    "name": "G#5",
                    "midi": 80,
                    "time": 61.62194950000028,
                    "velocity": 0.41732283464566927,
                    "duration": 0.09987350000000106
                },
                {
                    "name": "F5",
                    "midi": 77,
                    "time": 61.72182300000028,
                    "velocity": 0.47244094488188976,
                    "duration": 0.09987350000000106
                },
                {
                    "name": "G5",
                    "midi": 79,
                    "time": 61.82169650000028,
                    "velocity": 0.4015748031496063,
                    "duration": 0.09987350000000106
                },
                {
                    "name": "D#5",
                    "midi": 75,
                    "time": 61.92157000000028,
                    "velocity": 0.48031496062992124,
                    "duration": 0.09987350000000106
                },
                {
                    "name": "F5",
                    "midi": 77,
                    "time": 62.02144350000028,
                    "velocity": 0.3937007874015748,
                    "duration": 0.09987350000000106
                },
                {
                    "name": "D5",
                    "midi": 74,
                    "time": 62.12131700000028,
                    "velocity": 0.4330708661417323,
                    "duration": 0.09987350000000106
                },
                {
                    "name": "D#5",
                    "midi": 75,
                    "time": 62.22119050000028,
                    "velocity": 0.4094488188976378,
                    "duration": 0.09987350000000106
                },
                {
                    "name": "C5",
                    "midi": 72,
                    "time": 62.321064000000284,
                    "velocity": 0.48031496062992124,
                    "duration": 0.09987350000000106
                },
                {
                    "name": "D5",
                    "midi": 74,
                    "time": 62.420937500000285,
                    "velocity": 0.3937007874015748,
                    "duration": 0.09987350000000106
                },
                {
                    "name": "D#5",
                    "midi": 75,
                    "time": 62.520811000000286,
                    "velocity": 0.3937007874015748,
                    "duration": 0.09987350000000106
                },
                {
                    "name": "G5",
                    "midi": 79,
                    "time": 62.62068450000029,
                    "velocity": 0.4330708661417323,
                    "duration": 0.09987350000000106
                },
                {
                    "name": "C6",
                    "midi": 84,
                    "time": 62.72055800000029,
                    "velocity": 0.4409448818897638,
                    "duration": 0.09987350000000106
                },
                {
                    "name": "D6",
                    "midi": 86,
                    "time": 62.82043150000029,
                    "velocity": 0.47244094488188976,
                    "duration": 0.09987350000000106
                },
                {
                    "name": "D#6",
                    "midi": 87,
                    "time": 62.92030500000029,
                    "velocity": 0.5118110236220472,
                    "duration": 0.09987350000000106
                },
                {
                    "name": "B5",
                    "midi": 83,
                    "time": 63.02017850000029,
                    "velocity": 0.4409448818897638,
                    "duration": 0.09987350000000106
                },
                {
                    "name": "C6",
                    "midi": 84,
                    "time": 63.12005200000029,
                    "velocity": 0.5590551181102362,
                    "duration": 0.09987350000000106
                },
                {
                    "name": "D6",
                    "midi": 86,
                    "time": 63.21992550000029,
                    "velocity": 0.4251968503937008,
                    "duration": 0.09987350000000106
                },
                {
                    "name": "D#6",
                    "midi": 87,
                    "time": 63.319799000000295,
                    "velocity": 0.49606299212598426,
                    "duration": 0.09987350000000106
                },
                {
                    "name": "B5",
                    "midi": 83,
                    "time": 63.419672500000296,
                    "velocity": 0.41732283464566927,
                    "duration": 0.09987350000000106
                },
                {
                    "name": "C6",
                    "midi": 84,
                    "time": 63.5195460000003,
                    "velocity": 0.5354330708661418,
                    "duration": 0.09987350000000106
                },
                {
                    "name": "D6",
                    "midi": 86,
                    "time": 63.6194195000003,
                    "velocity": 0.41732283464566927,
                    "duration": 0.09987350000000106
                },
                {
                    "name": "D#6",
                    "midi": 87,
                    "time": 63.7192930000003,
                    "velocity": 0.4645669291338583,
                    "duration": 0.09987350000000106
                },
                {
                    "name": "F#5",
                    "midi": 78,
                    "time": 63.8191665000003,
                    "velocity": 0.4015748031496063,
                    "duration": 0.09987350000000106
                },
                {
                    "name": "G5",
                    "midi": 79,
                    "time": 63.9190400000003,
                    "velocity": 0.47244094488188976,
                    "duration": 0.09987349999999395
                },
                {
                    "name": "G#5",
                    "midi": 80,
                    "time": 64.0189135000003,
                    "velocity": 0.4330708661417323,
                    "duration": 0.09987350000000106
                },
                {
                    "name": "G5",
                    "midi": 79,
                    "time": 64.1187870000003,
                    "velocity": 0.49606299212598426,
                    "duration": 0.09987350000000106
                },
                {
                    "name": "G#5",
                    "midi": 80,
                    "time": 64.2186605000003,
                    "velocity": 0.47244094488188976,
                    "duration": 0.09987350000000106
                },
                {
                    "name": "G5",
                    "midi": 79,
                    "time": 64.3185340000003,
                    "velocity": 0.5196850393700787,
                    "duration": 0.09987350000000106
                },
                {
                    "name": "G#5",
                    "midi": 80,
                    "time": 64.4184075000003,
                    "velocity": 0.48031496062992124,
                    "duration": 0.09987350000000106
                },
                {
                    "name": "G5",
                    "midi": 79,
                    "time": 64.5182810000003,
                    "velocity": 0.5039370078740157,
                    "duration": 0.09987350000000106
                },
                {
                    "name": "G#5",
                    "midi": 80,
                    "time": 64.6181545000003,
                    "velocity": 0.4330708661417323,
                    "duration": 0.09987350000000106
                },
                {
                    "name": "G5",
                    "midi": 79,
                    "time": 64.7180280000003,
                    "velocity": 0.5196850393700787,
                    "duration": 0.09987350000000106
                },
                {
                    "name": "G#5",
                    "midi": 80,
                    "time": 64.8179015000003,
                    "velocity": 0.47244094488188976,
                    "duration": 0.09987350000000106
                },
                {
                    "name": "F5",
                    "midi": 77,
                    "time": 64.9177750000003,
                    "velocity": 0.5118110236220472,
                    "duration": 0.09987350000000106
                },
                {
                    "name": "G5",
                    "midi": 79,
                    "time": 65.0176485000003,
                    "velocity": 0.44881889763779526,
                    "duration": 0.09987350000000106
                },
                {
                    "name": "D#5",
                    "midi": 75,
                    "time": 65.1175220000003,
                    "velocity": 0.49606299212598426,
                    "duration": 0.09987350000000106
                },
                {
                    "name": "F5",
                    "midi": 77,
                    "time": 65.21739550000031,
                    "velocity": 0.4251968503937008,
                    "duration": 0.09987350000000106
                },
                {
                    "name": "D5",
                    "midi": 74,
                    "time": 65.31726900000031,
                    "velocity": 0.49606299212598426,
                    "duration": 0.09987350000000106
                },
                {
                    "name": "D#5",
                    "midi": 75,
                    "time": 65.41714250000031,
                    "velocity": 0.4251968503937008,
                    "duration": 0.09987350000000106
                },
                {
                    "name": "C5",
                    "midi": 72,
                    "time": 65.51701600000031,
                    "velocity": 0.48031496062992124,
                    "duration": 0.09987350000000106
                },
                {
                    "name": "D5",
                    "midi": 74,
                    "time": 65.61688950000031,
                    "velocity": 0.4409448818897638,
                    "duration": 0.09987350000000106
                },
                {
                    "name": "D#5",
                    "midi": 75,
                    "time": 65.71676300000031,
                    "velocity": 0.47244094488188976,
                    "duration": 0.09987350000000106
                },
                {
                    "name": "G5",
                    "midi": 79,
                    "time": 65.81663650000031,
                    "velocity": 0.49606299212598426,
                    "duration": 0.09987350000000106
                },
                {
                    "name": "C6",
                    "midi": 84,
                    "time": 65.91651000000032,
                    "velocity": 0.5118110236220472,
                    "duration": 0.09987350000000106
                },
                {
                    "name": "D6",
                    "midi": 86,
                    "time": 66.01638350000032,
                    "velocity": 0.49606299212598426,
                    "duration": 0.09987350000000106
                },
                {
                    "name": "G5",
                    "midi": 79,
                    "time": 66.11625700000032,
                    "velocity": 0.4566929133858268,
                    "duration": 0.09987350000000106
                },
                {
                    "name": "D#6",
                    "midi": 87,
                    "time": 66.11625700000032,
                    "velocity": 0.5354330708661418,
                    "duration": 0.09987350000000106
                },
                {
                    "name": "F#5",
                    "midi": 78,
                    "time": 66.21613050000032,
                    "velocity": 0.48031496062992124,
                    "duration": 0.09987350000000106
                },
                {
                    "name": "G5",
                    "midi": 79,
                    "time": 66.31600400000032,
                    "velocity": 0.5196850393700787,
                    "duration": 0.09987350000000106
                },
                {
                    "name": "G#5",
                    "midi": 80,
                    "time": 66.41587750000032,
                    "velocity": 0.47244094488188976,
                    "duration": 0.09987350000000106
                },
                {
                    "name": "F5",
                    "midi": 77,
                    "time": 66.51575100000032,
                    "velocity": 0.5118110236220472,
                    "duration": 0.09987350000000106
                },
                {
                    "name": "G5",
                    "midi": 79,
                    "time": 66.61562450000032,
                    "velocity": 0.44881889763779526,
                    "duration": 0.09987350000000106
                },
                {
                    "name": "D#5",
                    "midi": 75,
                    "time": 66.71549800000032,
                    "velocity": 0.49606299212598426,
                    "duration": 0.09987350000000106
                },
                {
                    "name": "F5",
                    "midi": 77,
                    "time": 66.81537150000032,
                    "velocity": 0.4251968503937008,
                    "duration": 0.09987350000000106
                },
                {
                    "name": "D5",
                    "midi": 74,
                    "time": 66.91524500000033,
                    "velocity": 0.49606299212598426,
                    "duration": 0.09987350000000106
                },
                {
                    "name": "D#5",
                    "midi": 75,
                    "time": 67.01511850000033,
                    "velocity": 0.4251968503937008,
                    "duration": 0.09987350000000106
                },
                {
                    "name": "C5",
                    "midi": 72,
                    "time": 67.11499200000033,
                    "velocity": 0.48031496062992124,
                    "duration": 0.09987350000000106
                },
                {
                    "name": "D5",
                    "midi": 74,
                    "time": 67.21486550000033,
                    "velocity": 0.4409448818897638,
                    "duration": 0.09987350000000106
                },
                {
                    "name": "D#5",
                    "midi": 75,
                    "time": 67.31473900000033,
                    "velocity": 0.47244094488188976,
                    "duration": 0.09987350000000106
                },
                {
                    "name": "G5",
                    "midi": 79,
                    "time": 67.41461250000033,
                    "velocity": 0.49606299212598426,
                    "duration": 0.09987350000000106
                },
                {
                    "name": "C6",
                    "midi": 84,
                    "time": 67.51448600000033,
                    "velocity": 0.5118110236220472,
                    "duration": 0.09987350000000106
                },
                {
                    "name": "D6",
                    "midi": 86,
                    "time": 67.61435950000033,
                    "velocity": 0.4094488188976378,
                    "duration": 0.09987350000000106
                },
                {
                    "name": "G5",
                    "midi": 79,
                    "time": 67.71423300000033,
                    "velocity": 0.4881889763779528,
                    "duration": 0.09987350000000106
                },
                {
                    "name": "D#6",
                    "midi": 87,
                    "time": 67.71423300000033,
                    "velocity": 0.4881889763779528,
                    "duration": 0.09987350000000106
                },
                {
                    "name": "F#5",
                    "midi": 78,
                    "time": 67.81410650000034,
                    "velocity": 0.4330708661417323,
                    "duration": 0.09987350000000106
                },
                {
                    "name": "G5",
                    "midi": 79,
                    "time": 67.91398000000034,
                    "velocity": 0.5275590551181102,
                    "duration": 0.09987350000000106
                },
                {
                    "name": "G#5",
                    "midi": 80,
                    "time": 68.01385350000034,
                    "velocity": 0.4094488188976378,
                    "duration": 0.09987350000000106
                },
                {
                    "name": "F5",
                    "midi": 77,
                    "time": 68.11372700000034,
                    "velocity": 0.44881889763779526,
                    "duration": 0.09987350000000106
                },
                {
                    "name": "F6",
                    "midi": 89,
                    "time": 68.21360050000034,
                    "velocity": 0.4094488188976378,
                    "duration": 0.09987350000000106
                },
                {
                    "name": "F5",
                    "midi": 77,
                    "time": 68.31347400000034,
                    "velocity": 0.5354330708661418,
                    "duration": 0.09987350000000106
                },
                {
                    "name": "G5",
                    "midi": 79,
                    "time": 68.41334750000034,
                    "velocity": 0.4094488188976378,
                    "duration": 0.09987350000000106
                },
                {
                    "name": "D#5",
                    "midi": 75,
                    "time": 68.51322100000034,
                    "velocity": 0.44881889763779526,
                    "duration": 0.09987350000000106
                },
                {
                    "name": "D#6",
                    "midi": 87,
                    "time": 68.61309450000034,
                    "velocity": 0.4251968503937008,
                    "duration": 0.09987350000000106
                },
                {
                    "name": "D#5",
                    "midi": 75,
                    "time": 68.71296800000034,
                    "velocity": 0.5354330708661418,
                    "duration": 0.09987350000000106
                },
                {
                    "name": "F5",
                    "midi": 77,
                    "time": 68.81284150000035,
                    "velocity": 0.4251968503937008,
                    "duration": 0.09987350000000106
                },
                {
                    "name": "D5",
                    "midi": 74,
                    "time": 68.91271500000035,
                    "velocity": 0.4566929133858268,
                    "duration": 0.09987350000000106
                },
                {
                    "name": "D6",
                    "midi": 86,
                    "time": 69.01258850000035,
                    "velocity": 0.4251968503937008,
                    "duration": 0.09987350000000106
                },
                {
                    "name": "D5",
                    "midi": 74,
                    "time": 69.11246200000035,
                    "velocity": 0.5433070866141733,
                    "duration": 0.09987350000000106
                },
                {
                    "name": "D#5",
                    "midi": 75,
                    "time": 69.21233550000035,
                    "velocity": 0.4330708661417323,
                    "duration": 0.09987350000000106
                },
                {
                    "name": "C5",
                    "midi": 72,
                    "time": 69.31220900000035,
                    "velocity": 0.4566929133858268,
                    "duration": 0.09987350000000106
                },
                {
                    "name": "C6",
                    "midi": 84,
                    "time": 69.41208250000035,
                    "velocity": 0.4330708661417323,
                    "duration": 0.09987350000000106
                },
                {
                    "name": "C5",
                    "midi": 72,
                    "time": 69.51195600000035,
                    "velocity": 0.5511811023622047,
                    "duration": 0.09987350000000106
                },
                {
                    "name": "D5",
                    "midi": 74,
                    "time": 69.61182950000035,
                    "velocity": 0.4330708661417323,
                    "duration": 0.09987350000000106
                },
                {
                    "name": "A#4",
                    "midi": 70,
                    "time": 69.71170300000036,
                    "velocity": 0.4330708661417323,
                    "duration": 0.09987350000000106
                },
                {
                    "name": "A#5",
                    "midi": 82,
                    "time": 69.81157650000036,
                    "velocity": 0.4330708661417323,
                    "duration": 0.09987350000000106
                },
                {
                    "name": "A#4",
                    "midi": 70,
                    "time": 69.91145000000036,
                    "velocity": 0.5748031496062992,
                    "duration": 0.09987350000000106
                },
                {
                    "name": "C5",
                    "midi": 72,
                    "time": 70.01132350000036,
                    "velocity": 0.4330708661417323,
                    "duration": 0.09987350000000106
                },
                {
                    "name": "G#4",
                    "midi": 68,
                    "time": 70.11119700000036,
                    "velocity": 0.4330708661417323,
                    "duration": 0.09987350000000106
                },
                {
                    "name": "G#5",
                    "midi": 80,
                    "time": 70.21107050000036,
                    "velocity": 0.4330708661417323,
                    "duration": 0.09987350000000106
                },
                {
                    "name": "G#4",
                    "midi": 68,
                    "time": 70.31094400000036,
                    "velocity": 0.5984251968503937,
                    "duration": 0.09987350000000106
                },
                {
                    "name": "A#4",
                    "midi": 70,
                    "time": 70.41081750000036,
                    "velocity": 0.4409448818897638,
                    "duration": 0.09987350000000106
                },
                {
                    "name": "G4",
                    "midi": 67,
                    "time": 70.51069100000036,
                    "velocity": 0.44881889763779526,
                    "duration": 0.09987350000000106
                },
                {
                    "name": "G5",
                    "midi": 79,
                    "time": 70.61056450000036,
                    "velocity": 0.44881889763779526,
                    "duration": 0.09987350000000106
                },
                {
                    "name": "G4",
                    "midi": 67,
                    "time": 70.71043800000037,
                    "velocity": 0.5590551181102362,
                    "duration": 0.09987350000000106
                },
                {
                    "name": "G5",
                    "midi": 79,
                    "time": 70.81031150000037,
                    "velocity": 0.4330708661417323,
                    "duration": 0.09987350000000106
                },
                {
                    "name": "G4",
                    "midi": 67,
                    "time": 70.91018500000037,
                    "velocity": 0.5984251968503937,
                    "duration": 0.1498102500000016
                },
                {
                    "name": "G#4",
                    "midi": 68,
                    "time": 71.01005850000037,
                    "velocity": 0.4330708661417323,
                    "duration": 0.09987350000000106
                },
                {
                    "name": "G4",
                    "midi": 67,
                    "time": 71.10993200000037,
                    "velocity": 0.6062992125984252,
                    "duration": 0.5992410000000064
                },
                {
                    "name": "D#4",
                    "midi": 63,
                    "time": 71.20980550000037,
                    "velocity": 0.3700787401574803,
                    "duration": 0.09987350000000106
                },
                {
                    "name": "D4",
                    "midi": 62,
                    "time": 71.30967900000037,
                    "velocity": 0.4094488188976378,
                    "duration": 0.09987350000000106
                },
                {
                    "name": "C4",
                    "midi": 60,
                    "time": 71.40955250000037,
                    "velocity": 0.3464566929133858,
                    "duration": 0.09987350000000106
                },
                {
                    "name": "G4",
                    "midi": 67,
                    "time": 71.70917300000038,
                    "velocity": 0.5118110236220472,
                    "duration": 0.09987350000000106
                },
                {
                    "name": "C5",
                    "midi": 72,
                    "time": 71.70917300000038,
                    "velocity": 0.5118110236220472,
                    "duration": 0.1498102500000016
                },
                {
                    "name": "G#4",
                    "midi": 68,
                    "time": 71.80904650000038,
                    "velocity": 0.4094488188976378,
                    "duration": 0.09987350000000106
                },
                {
                    "name": "G4",
                    "midi": 67,
                    "time": 71.90892000000038,
                    "velocity": 0.6299212598425197,
                    "duration": 0.09987350000000106
                },
                {
                    "name": "B4",
                    "midi": 71,
                    "time": 71.90892000000038,
                    "velocity": 0.6299212598425197,
                    "duration": 0.5992410000000064
                },
                {
                    "name": "F4",
                    "midi": 65,
                    "time": 72.00879350000038,
                    "velocity": 0.3937007874015748,
                    "duration": 0.09987350000000106
                },
                {
                    "name": "D#4",
                    "midi": 63,
                    "time": 72.10866700000038,
                    "velocity": 0.4015748031496063,
                    "duration": 0.09987350000000106
                },
                {
                    "name": "D4",
                    "midi": 62,
                    "time": 72.20854050000038,
                    "velocity": 0.4015748031496063,
                    "duration": 0.09987350000000106
                },
                {
                    "name": "G4",
                    "midi": 67,
                    "time": 72.50816100000038,
                    "velocity": 0.5590551181102362,
                    "duration": 0.1498102500000016
                },
                {
                    "name": "G#4",
                    "midi": 68,
                    "time": 72.60803450000039,
                    "velocity": 0.4015748031496063,
                    "duration": 0.09987350000000106
                },
                {
                    "name": "G4",
                    "midi": 67,
                    "time": 72.70790800000039,
                    "velocity": 0.6456692913385826,
                    "duration": 0.5992410000000064
                },
                {
                    "name": "D#4",
                    "midi": 63,
                    "time": 72.80778150000039,
                    "velocity": 0.3700787401574803,
                    "duration": 0.09987350000000106
                },
                {
                    "name": "D4",
                    "midi": 62,
                    "time": 72.90765500000039,
                    "velocity": 0.4094488188976378,
                    "duration": 0.09987350000000106
                },
                {
                    "name": "C4",
                    "midi": 60,
                    "time": 73.00752850000039,
                    "velocity": 0.3464566929133858,
                    "duration": 0.09987350000000106
                },
                {
                    "name": "G4",
                    "midi": 67,
                    "time": 73.3071490000004,
                    "velocity": 0.47244094488188976,
                    "duration": 0.09987350000000106
                },
                {
                    "name": "C5",
                    "midi": 72,
                    "time": 73.3071490000004,
                    "velocity": 0.47244094488188976,
                    "duration": 0.1498102500000016
                },
                {
                    "name": "G#4",
                    "midi": 68,
                    "time": 73.4070225000004,
                    "velocity": 0.4094488188976378,
                    "duration": 0.09987350000000106
                },
                {
                    "name": "G4",
                    "midi": 67,
                    "time": 73.5068960000004,
                    "velocity": 0.6220472440944882,
                    "duration": 0.09987350000000106
                },
                {
                    "name": "B4",
                    "midi": 71,
                    "time": 73.5068960000004,
                    "velocity": 0.6220472440944882,
                    "duration": 0.5992410000000064
                },
                {
                    "name": "F4",
                    "midi": 65,
                    "time": 73.6067695000004,
                    "velocity": 0.3937007874015748,
                    "duration": 0.09987350000000106
                },
                {
                    "name": "D#4",
                    "midi": 63,
                    "time": 73.7066430000004,
                    "velocity": 0.4015748031496063,
                    "duration": 0.09987350000000106
                },
                {
                    "name": "D4",
                    "midi": 62,
                    "time": 73.8065165000004,
                    "velocity": 0.4015748031496063,
                    "duration": 0.09987350000000106
                },
                {
                    "name": "G4",
                    "midi": 67,
                    "time": 74.1061370000004,
                    "velocity": 0.5118110236220472,
                    "duration": 0.1498102500000016
                },
                {
                    "name": "G#4",
                    "midi": 68,
                    "time": 74.2060105000004,
                    "velocity": 0.4015748031496063,
                    "duration": 0.09987350000000106
                },
                {
                    "name": "G4",
                    "midi": 67,
                    "time": 74.3058840000004,
                    "velocity": 0.6141732283464567,
                    "duration": 0.39949400000000423
                },
                {
                    "name": "D#4",
                    "midi": 63,
                    "time": 74.4057575000004,
                    "velocity": 0.3700787401574803,
                    "duration": 0.09987350000000106
                },
                {
                    "name": "D4",
                    "midi": 62,
                    "time": 74.5056310000004,
                    "velocity": 0.4094488188976378,
                    "duration": 0.09987350000000106
                },
                {
                    "name": "C4",
                    "midi": 60,
                    "time": 74.60550450000041,
                    "velocity": 0.3464566929133858,
                    "duration": 0.09987350000000106
                },
                {
                    "name": "D#5",
                    "midi": 75,
                    "time": 74.70537800000041,
                    "velocity": 0.6220472440944882,
                    "duration": 0.19974700000000212
                },
                {
                    "name": "G#4",
                    "midi": 68,
                    "time": 74.90512500000041,
                    "velocity": 0.47244094488188976,
                    "duration": 0.19974700000000212
                },
                {
                    "name": "A#4",
                    "midi": 70,
                    "time": 75.00499850000041,
                    "velocity": 0.4094488188976378,
                    "duration": 0.09987350000000106
                },
                {
                    "name": "G#4",
                    "midi": 68,
                    "time": 75.10487200000041,
                    "velocity": 0.6299212598425197,
                    "duration": 0.39949400000000423
                },
                {
                    "name": "D#4",
                    "midi": 63,
                    "time": 75.20474550000041,
                    "velocity": 0.3700787401574803,
                    "duration": 0.09987350000000106
                },
                {
                    "name": "F4",
                    "midi": 65,
                    "time": 75.30461900000041,
                    "velocity": 0.4094488188976378,
                    "duration": 0.09987350000000106
                },
                {
                    "name": "C4",
                    "midi": 60,
                    "time": 75.40449250000042,
                    "velocity": 0.3464566929133858,
                    "duration": 0.09987350000000106
                },
                {
                    "name": "G#5",
                    "midi": 80,
                    "time": 75.50436600000042,
                    "velocity": 0.6850393700787402,
                    "duration": 0.19974700000000212
                },
                {
                    "name": "G#4",
                    "midi": 68,
                    "time": 75.70411300000042,
                    "velocity": 0.47244094488188976,
                    "duration": 0.19974700000000212
                },
                {
                    "name": "A#4",
                    "midi": 70,
                    "time": 75.80398650000042,
                    "velocity": 0.4094488188976378,
                    "duration": 0.09987350000000106
                },
                {
                    "name": "G#4",
                    "midi": 68,
                    "time": 75.90386000000042,
                    "velocity": 0.6299212598425197,
                    "duration": 0.39949400000000423
                },
                {
                    "name": "D4",
                    "midi": 62,
                    "time": 76.00373350000042,
                    "velocity": 0.3700787401574803,
                    "duration": 0.09987350000000106
                },
                {
                    "name": "C4",
                    "midi": 60,
                    "time": 76.10360700000042,
                    "velocity": 0.4094488188976378,
                    "duration": 0.09987350000000106
                },
                {
                    "name": "A#3",
                    "midi": 58,
                    "time": 76.20348050000042,
                    "velocity": 0.3464566929133858,
                    "duration": 0.09987350000000106
                },
                {
                    "name": "D5",
                    "midi": 74,
                    "time": 76.30335400000043,
                    "velocity": 0.6535433070866141,
                    "duration": 0.19974700000000212
                },
                {
                    "name": "G4",
                    "midi": 67,
                    "time": 76.50310100000043,
                    "velocity": 0.4645669291338583,
                    "duration": 0.19974700000000212
                },
                {
                    "name": "G#4",
                    "midi": 68,
                    "time": 76.60297450000043,
                    "velocity": 0.4015748031496063,
                    "duration": 0.09987350000000106
                },
                {
                    "name": "G4",
                    "midi": 67,
                    "time": 76.70284800000043,
                    "velocity": 0.6220472440944882,
                    "duration": 0.39949400000000423
                },
                {
                    "name": "D4",
                    "midi": 62,
                    "time": 76.80272150000043,
                    "velocity": 0.36220472440944884,
                    "duration": 0.09987350000000106
                },
                {
                    "name": "D#4",
                    "midi": 63,
                    "time": 76.90259500000043,
                    "velocity": 0.3937007874015748,
                    "duration": 0.09987350000000106
                },
                {
                    "name": "A#3",
                    "midi": 58,
                    "time": 77.00246850000043,
                    "velocity": 0.33858267716535434,
                    "duration": 0.09987350000000106
                },
                {
                    "name": "G5",
                    "midi": 79,
                    "time": 77.10234200000043,
                    "velocity": 0.6692913385826772,
                    "duration": 0.19974700000000212
                },
                {
                    "name": "G4",
                    "midi": 67,
                    "time": 77.30208900000044,
                    "velocity": 0.4566929133858268,
                    "duration": 0.19974700000000212
                },
                {
                    "name": "G#4",
                    "midi": 68,
                    "time": 77.40196250000044,
                    "velocity": 0.3937007874015748,
                    "duration": 0.09987350000000106
                },
                {
                    "name": "G4",
                    "midi": 67,
                    "time": 77.50183600000044,
                    "velocity": 0.6062992125984252,
                    "duration": 0.39949400000000423
                },
                {
                    "name": "C4",
                    "midi": 60,
                    "time": 77.60170950000044,
                    "velocity": 0.3543307086614173,
                    "duration": 0.09987350000000106
                },
                {
                    "name": "A#3",
                    "midi": 58,
                    "time": 77.70158300000044,
                    "velocity": 0.3937007874015748,
                    "duration": 0.09987350000000106
                },
                {
                    "name": "G#3",
                    "midi": 56,
                    "time": 77.80145650000044,
                    "velocity": 0.33070866141732286,
                    "duration": 0.09987350000000106
                },
                {
                    "name": "C5",
                    "midi": 72,
                    "time": 77.90133000000044,
                    "velocity": 0.6220472440944882,
                    "duration": 0.19974700000000212
                },
                {
                    "name": "F4",
                    "midi": 65,
                    "time": 78.10107700000044,
                    "velocity": 0.44881889763779526,
                    "duration": 0.19974700000000212
                },
                {
                    "name": "G4",
                    "midi": 67,
                    "time": 78.20095050000045,
                    "velocity": 0.3858267716535433,
                    "duration": 0.09987350000000106
                },
                {
                    "name": "F4",
                    "midi": 65,
                    "time": 78.30082400000045,
                    "velocity": 0.5984251968503937,
                    "duration": 0.39949400000000423
                },
                {
                    "name": "C4",
                    "midi": 60,
                    "time": 78.40069750000045,
                    "velocity": 0.3464566929133858,
                    "duration": 0.09987350000000106
                },
                {
                    "name": "D4",
                    "midi": 62,
                    "time": 78.50057100000045,
                    "velocity": 0.3858267716535433,
                    "duration": 0.09987350000000106
                },
                {
                    "name": "G#3",
                    "midi": 56,
                    "time": 78.60044450000045,
                    "velocity": 0.3228346456692913,
                    "duration": 0.09987350000000106
                },
                {
                    "name": "F5",
                    "midi": 77,
                    "time": 78.70031800000045,
                    "velocity": 0.6377952755905512,
                    "duration": 0.19974700000000212
                },
                {
                    "name": "F4",
                    "midi": 65,
                    "time": 78.90006500000045,
                    "velocity": 0.4409448818897638,
                    "duration": 0.19974700000000212
                },
                {
                    "name": "G4",
                    "midi": 67,
                    "time": 78.99993850000045,
                    "velocity": 0.3779527559055118,
                    "duration": 0.09987350000000106
                },
                {
                    "name": "F4",
                    "midi": 65,
                    "time": 79.09981200000045,
                    "velocity": 0.5905511811023622,
                    "duration": 0.39949400000000423
                },
                {
                    "name": "B3",
                    "midi": 59,
                    "time": 79.19968550000046,
                    "velocity": 0.33858267716535434,
                    "duration": 0.09987350000000106
                },
                {
                    "name": "A3",
                    "midi": 57,
                    "time": 79.29955900000046,
                    "velocity": 0.3779527559055118,
                    "duration": 0.09987350000000106
                },
                {
                    "name": "G3",
                    "midi": 55,
                    "time": 79.39943250000046,
                    "velocity": 0.31496062992125984,
                    "duration": 0.09987350000000106
                },
                {
                    "name": "B4",
                    "midi": 71,
                    "time": 79.49930600000046,
                    "velocity": 0.6062992125984252,
                    "duration": 0.19974700000000212
                },
                {
                    "name": "F4",
                    "midi": 65,
                    "time": 79.69905300000046,
                    "velocity": 0.4330708661417323,
                    "duration": 0.19974700000000212
                },
                {
                    "name": "G4",
                    "midi": 67,
                    "time": 79.79892650000046,
                    "velocity": 0.3700787401574803,
                    "duration": 0.09987350000000106
                },
                {
                    "name": "F4",
                    "midi": 65,
                    "time": 79.89880000000046,
                    "velocity": 0.5748031496062992,
                    "duration": 0.39949400000000423
                },
                {
                    "name": "B3",
                    "midi": 59,
                    "time": 79.99867350000046,
                    "velocity": 0.33858267716535434,
                    "duration": 0.09987350000000106
                },
                {
                    "name": "D4",
                    "midi": 62,
                    "time": 80.09854700000047,
                    "velocity": 0.3700787401574803,
                    "duration": 0.09987350000000106
                },
                {
                    "name": "G3",
                    "midi": 55,
                    "time": 80.19842050000047,
                    "velocity": 0.31496062992125984,
                    "duration": 0.09987350000000106
                },
                {
                    "name": "F5",
                    "midi": 77,
                    "time": 80.29829400000047,
                    "velocity": 0.5905511811023622,
                    "duration": 0.19974700000000212
                },
                {
                    "name": "G4",
                    "midi": 67,
                    "time": 80.59791450000047,
                    "velocity": 0.4094488188976378,
                    "duration": 0.09987350000001527
                },
                {
                    "name": "C5",
                    "midi": 72,
                    "time": 80.63120566666714,
                    "velocity": 0.33858267716535434,
                    "duration": 0.033291166666671757
                },
                {
                    "name": "D5",
                    "midi": 74,
                    "time": 80.66449683333381,
                    "velocity": 0.33858267716535434,
                    "duration": 0.033291166666671757
                },
                {
                    "name": "D#5",
                    "midi": 75,
                    "time": 80.69778800000049,
                    "velocity": 0.5905511811023622,
                    "duration": 0.09987350000000106
                },
                {
                    "name": "F#4",
                    "midi": 66,
                    "time": 80.79766150000049,
                    "velocity": 0.3858267716535433,
                    "duration": 0.09987350000000106
                },
                {
                    "name": "C5",
                    "midi": 72,
                    "time": 80.89753500000049,
                    "velocity": 0.4094488188976378,
                    "duration": 0.09987350000000106
                },
                {
                    "name": "D#5",
                    "midi": 75,
                    "time": 80.99740850000049,
                    "velocity": 0.4094488188976378,
                    "duration": 0.09987350000000106
                },
                {
                    "name": "D5",
                    "midi": 74,
                    "time": 81.09728200000049,
                    "velocity": 0.5826771653543307,
                    "duration": 0.09987350000000106
                },
                {
                    "name": "F4",
                    "midi": 65,
                    "time": 81.19715550000049,
                    "velocity": 0.3700787401574803,
                    "duration": 0.09987350000000106
                },
                {
                    "name": "B4",
                    "midi": 71,
                    "time": 81.29702900000049,
                    "velocity": 0.4094488188976378,
                    "duration": 0.09987350000000106
                },
                {
                    "name": "D5",
                    "midi": 74,
                    "time": 81.3969025000005,
                    "velocity": 0.4094488188976378,
                    "duration": 0.09987350000000106
                },
                {
                    "name": "C5",
                    "midi": 72,
                    "time": 81.4967760000005,
                    "velocity": 0.5826771653543307,
                    "duration": 0.09987350000000106
                },
                {
                    "name": "A4",
                    "midi": 69,
                    "time": 81.5966495000005,
                    "velocity": 0.3779527559055118,
                    "duration": 0.09987350000000106
                },
                {
                    "name": "F#4",
                    "midi": 66,
                    "time": 81.6965230000005,
                    "velocity": 0.4094488188976378,
                    "duration": 0.09987350000000106
                },
                {
                    "name": "D#4",
                    "midi": 63,
                    "time": 81.7963965000005,
                    "velocity": 0.4094488188976378,
                    "duration": 0.09987350000000106
                },
                {
                    "name": "G4",
                    "midi": 67,
                    "time": 82.1958905000005,
                    "velocity": 0.4094488188976378,
                    "duration": 0.09987350000001527
                },
                {
                    "name": "C5",
                    "midi": 72,
                    "time": 82.22918166666717,
                    "velocity": 0.33858267716535434,
                    "duration": 0.033291166666671757
                },
                {
                    "name": "D5",
                    "midi": 74,
                    "time": 82.26247283333385,
                    "velocity": 0.33858267716535434,
                    "duration": 0.033291166666671757
                },
                {
                    "name": "D#5",
                    "midi": 75,
                    "time": 82.29576400000052,
                    "velocity": 0.5905511811023622,
                    "duration": 0.09987350000000106
                },
                {
                    "name": "F#4",
                    "midi": 66,
                    "time": 82.39563750000052,
                    "velocity": 0.3858267716535433,
                    "duration": 0.09987350000000106
                },
                {
                    "name": "C5",
                    "midi": 72,
                    "time": 82.49551100000052,
                    "velocity": 0.4094488188976378,
                    "duration": 0.09987350000000106
                },
                {
                    "name": "D#5",
                    "midi": 75,
                    "time": 82.59538450000052,
                    "velocity": 0.4094488188976378,
                    "duration": 0.09987350000000106
                },
                {
                    "name": "D5",
                    "midi": 74,
                    "time": 82.69525800000052,
                    "velocity": 0.5826771653543307,
                    "duration": 0.09987350000000106
                },
                {
                    "name": "F4",
                    "midi": 65,
                    "time": 82.79513150000052,
                    "velocity": 0.3700787401574803,
                    "duration": 0.09987350000000106
                },
                {
                    "name": "B4",
                    "midi": 71,
                    "time": 82.89500500000052,
                    "velocity": 0.4094488188976378,
                    "duration": 0.09987350000000106
                },
                {
                    "name": "D5",
                    "midi": 74,
                    "time": 82.99487850000052,
                    "velocity": 0.4094488188976378,
                    "duration": 0.09987350000000106
                },
                {
                    "name": "C5",
                    "midi": 72,
                    "time": 83.09475200000053,
                    "velocity": 0.5826771653543307,
                    "duration": 0.09987350000000106
                },
                {
                    "name": "A4",
                    "midi": 69,
                    "time": 83.19462550000053,
                    "velocity": 0.3779527559055118,
                    "duration": 0.09987350000000106
                },
                {
                    "name": "F#4",
                    "midi": 66,
                    "time": 83.29449900000053,
                    "velocity": 0.4094488188976378,
                    "duration": 0.09987350000000106
                },
                {
                    "name": "D#4",
                    "midi": 63,
                    "time": 83.39437250000053,
                    "velocity": 0.4094488188976378,
                    "duration": 0.09987350000000106
                },
                {
                    "name": "D#4",
                    "midi": 63,
                    "time": 83.79386650000053,
                    "velocity": 0.4094488188976378,
                    "duration": 0.09987350000001527
                },
                {
                    "name": "G4",
                    "midi": 67,
                    "time": 83.8271576666672,
                    "velocity": 0.33858267716535434,
                    "duration": 0.033291166666671757
                },
                {
                    "name": "G#4",
                    "midi": 68,
                    "time": 83.86044883333388,
                    "velocity": 0.33858267716535434,
                    "duration": 0.033291166666671757
                },
                {
                    "name": "A#4",
                    "midi": 70,
                    "time": 83.89374000000055,
                    "velocity": 0.5826771653543307,
                    "duration": 0.09987350000000106
                },
                {
                    "name": "C#4",
                    "midi": 61,
                    "time": 83.99361350000055,
                    "velocity": 0.3464566929133858,
                    "duration": 0.09987350000000106
                },
                {
                    "name": "G4",
                    "midi": 67,
                    "time": 84.09348700000055,
                    "velocity": 0.3858267716535433,
                    "duration": 0.09987350000000106
                },
                {
                    "name": "A#4",
                    "midi": 70,
                    "time": 84.19336050000055,
                    "velocity": 0.33070866141732286,
                    "duration": 0.09987350000000106
                },
                {
                    "name": "G#4",
                    "midi": 68,
                    "time": 84.29323400000055,
                    "velocity": 0.5433070866141733,
                    "duration": 0.09987350000000106
                },
                {
                    "name": "C4",
                    "midi": 60,
                    "time": 84.39310750000055,
                    "velocity": 0.33070866141732286,
                    "duration": 0.09987350000000106
                },
                {
                    "name": "F4",
                    "midi": 65,
                    "time": 84.49298100000055,
                    "velocity": 0.3779527559055118,
                    "duration": 0.09987350000000106
                },
                {
                    "name": "G#4",
                    "midi": 68,
                    "time": 84.59285450000056,
                    "velocity": 0.3464566929133858,
                    "duration": 0.09987350000000106
                },
                {
                    "name": "G4",
                    "midi": 67,
                    "time": 84.69272800000056,
                    "velocity": 0.5433070866141733,
                    "duration": 0.09987350000000106
                },
                {
                    "name": "E4",
                    "midi": 64,
                    "time": 84.79260150000056,
                    "velocity": 0.33070866141732286,
                    "duration": 0.09987350000000106
                },
                {
                    "name": "C#4",
                    "midi": 61,
                    "time": 84.89247500000056,
                    "velocity": 0.3700787401574803,
                    "duration": 0.09987350000000106
                },
                {
                    "name": "A#3",
                    "midi": 58,
                    "time": 84.99234850000056,
                    "velocity": 0.33070866141732286,
                    "duration": 0.09987350000000106
                },
                {
                    "name": "A#3",
                    "midi": 58,
                    "time": 85.33191840000056,
                    "velocity": 0.4094488188976378,
                    "duration": 0.15979759999999033
                },
                {
                    "name": "C#4",
                    "midi": 61,
                    "time": 85.38518426666722,
                    "velocity": 0.33858267716535434,
                    "duration": 0.05326586666666344
                },
                {
                    "name": "E4",
                    "midi": 64,
                    "time": 85.43845013333389,
                    "velocity": 0.33858267716535434,
                    "duration": 0.05326586666666344
                },
                {
                    "name": "F4",
                    "midi": 65,
                    "time": 85.49171600000055,
                    "velocity": 0.5511811023622047,
                    "duration": 0.09987350000000106
                },
                {
                    "name": "G#3",
                    "midi": 56,
                    "time": 85.59158950000055,
                    "velocity": 0.3464566929133858,
                    "duration": 0.09987350000000106
                },
                {
                    "name": "C4",
                    "midi": 60,
                    "time": 85.69146300000055,
                    "velocity": 0.3858267716535433,
                    "duration": 0.09987350000000106
                },
                {
                    "name": "F4",
                    "midi": 65,
                    "time": 85.79133650000055,
                    "velocity": 0.33070866141732286,
                    "duration": 0.09987350000000106
                },
                {
                    "name": "D4",
                    "midi": 62,
                    "time": 85.89121000000056,
                    "velocity": 0.5433070866141733,
                    "duration": 0.09987350000000106
                },
                {
                    "name": "F3",
                    "midi": 53,
                    "time": 85.99108350000056,
                    "velocity": 0.33070866141732286,
                    "duration": 0.09987350000000106
                },
                {
                    "name": "B3",
                    "midi": 59,
                    "time": 86.09095700000056,
                    "velocity": 0.3779527559055118,
                    "duration": 0.09987350000000106
                },
                {
                    "name": "D4",
                    "midi": 62,
                    "time": 86.19083050000056,
                    "velocity": 0.3464566929133858,
                    "duration": 0.09987350000000106
                },
                {
                    "name": "C4",
                    "midi": 60,
                    "time": 86.29070400000056,
                    "velocity": 0.5433070866141733,
                    "duration": 0.07989879999999516
                },
                {
                    "name": "G3",
                    "midi": 55,
                    "time": 86.37060280000055,
                    "velocity": 0.33070866141732286,
                    "duration": 0.07989879999999516
                },
                {
                    "name": "D#3",
                    "midi": 51,
                    "time": 86.45050160000055,
                    "velocity": 0.3700787401574803,
                    "duration": 0.07989879999999516
                },
                {
                    "name": "C3",
                    "midi": 48,
                    "time": 86.53040040000054,
                    "velocity": 0.33070866141732286,
                    "duration": 0.07989879999999516
                },
                {
                    "name": "G2",
                    "midi": 43,
                    "time": 86.61029920000054,
                    "velocity": 0.33070866141732286,
                    "duration": 0.07989879999999516
                },
                {
                    "name": "A#3",
                    "midi": 58,
                    "time": 86.88994500000054,
                    "velocity": 0.29133858267716534,
                    "duration": 0.17977229999999622
                },
                {
                    "name": "D#4",
                    "midi": 63,
                    "time": 86.88994500000054,
                    "velocity": 0.29133858267716534,
                    "duration": 0.17977229999999622
                },
                {
                    "name": "G4",
                    "midi": 67,
                    "time": 86.88994500000054,
                    "velocity": 0.3464566929133858,
                    "duration": 0.17977229999999622
                },
                {
                    "name": "A#3",
                    "midi": 58,
                    "time": 87.08969200000054,
                    "velocity": 0.33070866141732286,
                    "duration": 0.37951929999999834
                },
                {
                    "name": "F4",
                    "midi": 65,
                    "time": 87.08969200000054,
                    "velocity": 0.33070866141732286,
                    "duration": 0.37951929999999834
                },
                {
                    "name": "A3",
                    "midi": 57,
                    "time": 87.48918600000054,
                    "velocity": 0.30708661417322836,
                    "duration": 0.37951929999999834
                },
                {
                    "name": "D#4",
                    "midi": 63,
                    "time": 87.48918600000054,
                    "velocity": 0.30708661417322836,
                    "duration": 0.37951929999999834
                },
                {
                    "name": "A4",
                    "midi": 69,
                    "time": 87.48918600000054,
                    "velocity": 0.3700787401574803,
                    "duration": 0.37951929999999834
                },
                {
                    "name": "A#3",
                    "midi": 58,
                    "time": 87.88868000000055,
                    "velocity": 0.33070866141732286,
                    "duration": 0.37951929999999834
                },
                {
                    "name": "D4",
                    "midi": 62,
                    "time": 87.88868000000055,
                    "velocity": 0.33070866141732286,
                    "duration": 0.37951929999999834
                },
                {
                    "name": "A#4",
                    "midi": 70,
                    "time": 87.88868000000055,
                    "velocity": 0.3937007874015748,
                    "duration": 0.37951929999999834
                },
                {
                    "name": "A#3",
                    "midi": 58,
                    "time": 88.48792100000054,
                    "velocity": 0.29133858267716534,
                    "duration": 0.19974700000000212
                },
                {
                    "name": "D#4",
                    "midi": 63,
                    "time": 88.48792100000054,
                    "velocity": 0.29133858267716534,
                    "duration": 0.19974700000000212
                },
                {
                    "name": "G4",
                    "midi": 67,
                    "time": 88.48792100000054,
                    "velocity": 0.3464566929133858,
                    "duration": 0.19974700000000212
                },
                {
                    "name": "A#3",
                    "midi": 58,
                    "time": 88.68766800000054,
                    "velocity": 0.33070866141732286,
                    "duration": 0.37951929999999834
                },
                {
                    "name": "F4",
                    "midi": 65,
                    "time": 88.68766800000054,
                    "velocity": 0.33070866141732286,
                    "duration": 0.37951929999999834
                },
                {
                    "name": "A3",
                    "midi": 57,
                    "time": 89.08716200000055,
                    "velocity": 0.30708661417322836,
                    "duration": 0.37951929999999834
                },
                {
                    "name": "D#4",
                    "midi": 63,
                    "time": 89.08716200000055,
                    "velocity": 0.30708661417322836,
                    "duration": 0.37951929999999834
                },
                {
                    "name": "A4",
                    "midi": 69,
                    "time": 89.08716200000055,
                    "velocity": 0.3700787401574803,
                    "duration": 0.37951929999999834
                },
                {
                    "name": "A#3",
                    "midi": 58,
                    "time": 89.48665600000055,
                    "velocity": 0.33070866141732286,
                    "duration": 0.37951929999999834
                },
                {
                    "name": "D4",
                    "midi": 62,
                    "time": 89.48665600000055,
                    "velocity": 0.33070866141732286,
                    "duration": 0.37951929999999834
                },
                {
                    "name": "A#4",
                    "midi": 70,
                    "time": 89.48665600000055,
                    "velocity": 0.3937007874015748,
                    "duration": 0.37951929999999834
                },
                {
                    "name": "A#3",
                    "midi": 58,
                    "time": 90.08589700000054,
                    "velocity": 0.3543307086614173,
                    "duration": 0.19974700000000212
                },
                {
                    "name": "D4",
                    "midi": 62,
                    "time": 90.08589700000054,
                    "velocity": 0.3543307086614173,
                    "duration": 0.19974700000000212
                },
                {
                    "name": "F4",
                    "midi": 65,
                    "time": 90.08589700000054,
                    "velocity": 0.41732283464566927,
                    "duration": 0.19974700000000212
                },
                {
                    "name": "G4",
                    "midi": 67,
                    "time": 90.28564400000054,
                    "velocity": 0.44881889763779526,
                    "duration": 0.39949400000000423
                },
                {
                    "name": "A#3",
                    "midi": 58,
                    "time": 90.28564400000054,
                    "velocity": 0.3779527559055118,
                    "duration": 0.39949400000000423
                },
                {
                    "name": "D#4",
                    "midi": 63,
                    "time": 90.28564400000054,
                    "velocity": 0.3779527559055118,
                    "duration": 0.39949400000000423
                },
                {
                    "name": "G3",
                    "midi": 55,
                    "time": 90.68513800000055,
                    "velocity": 0.33070866141732286,
                    "duration": 0.39949400000000423
                },
                {
                    "name": "A#3",
                    "midi": 58,
                    "time": 90.68513800000055,
                    "velocity": 0.33070866141732286,
                    "duration": 0.39949400000000423
                },
                {
                    "name": "D#4",
                    "midi": 63,
                    "time": 90.68513800000055,
                    "velocity": 0.4015748031496063,
                    "duration": 0.39949400000000423
                },
                {
                    "name": "F3",
                    "midi": 53,
                    "time": 91.08463200000055,
                    "velocity": 0.3858267716535433,
                    "duration": 0.39949400000000423
                },
                {
                    "name": "A#3",
                    "midi": 58,
                    "time": 91.08463200000055,
                    "velocity": 0.3858267716535433,
                    "duration": 0.39949400000000423
                },
                {
                    "name": "F4",
                    "midi": 65,
                    "time": 91.08463200000055,
                    "velocity": 0.4566929133858268,
                    "duration": 0.39949400000000423
                },
                {
                    "name": "F3",
                    "midi": 53,
                    "time": 91.68387300000056,
                    "velocity": 0.3543307086614173,
                    "duration": 0.19974700000000212
                },
                {
                    "name": "A#3",
                    "midi": 58,
                    "time": 91.68387300000056,
                    "velocity": 0.3543307086614173,
                    "duration": 0.19974700000000212
                },
                {
                    "name": "F4",
                    "midi": 65,
                    "time": 91.68387300000056,
                    "velocity": 0.4251968503937008,
                    "duration": 0.19974700000000212
                },
                {
                    "name": "G4",
                    "midi": 67,
                    "time": 91.88362000000056,
                    "velocity": 0.4645669291338583,
                    "duration": 0.39949400000000423
                },
                {
                    "name": "G3",
                    "midi": 55,
                    "time": 91.88362000000056,
                    "velocity": 0.3937007874015748,
                    "duration": 0.39949400000000423
                },
                {
                    "name": "G3",
                    "midi": 55,
                    "time": 92.28311400000057,
                    "velocity": 0.33070866141732286,
                    "duration": 0.39949400000000423
                },
                {
                    "name": "A#3",
                    "midi": 58,
                    "time": 92.28311400000057,
                    "velocity": 0.33070866141732286,
                    "duration": 0.39949400000000423
                },
                {
                    "name": "D#4",
                    "midi": 63,
                    "time": 92.28311400000057,
                    "velocity": 0.4015748031496063,
                    "duration": 0.39949400000000423
                },
                {
                    "name": "F3",
                    "midi": 53,
                    "time": 92.68260800000057,
                    "velocity": 0.4015748031496063,
                    "duration": 0.39949400000000423
                },
                {
                    "name": "A#3",
                    "midi": 58,
                    "time": 92.68260800000057,
                    "velocity": 0.4015748031496063,
                    "duration": 0.39949400000000423
                },
                {
                    "name": "F4",
                    "midi": 65,
                    "time": 92.68260800000057,
                    "velocity": 0.47244094488188976,
                    "duration": 0.39949400000000423
                },
                {
                    "name": "F3",
                    "midi": 53,
                    "time": 93.28184900000058,
                    "velocity": 0.2755905511811024,
                    "duration": 0.19974700000000212
                },
                {
                    "name": "A#3",
                    "midi": 58,
                    "time": 93.28184900000058,
                    "velocity": 0.2755905511811024,
                    "duration": 0.19974700000000212
                },
                {
                    "name": "D4",
                    "midi": 62,
                    "time": 93.28184900000058,
                    "velocity": 0.33070866141732286,
                    "duration": 0.19974700000000212
                },
                {
                    "name": "A#3",
                    "midi": 58,
                    "time": 93.48159600000058,
                    "velocity": 0.31496062992125984,
                    "duration": 0.39949400000000423
                },
                {
                    "name": "D#4",
                    "midi": 63,
                    "time": 93.48159600000058,
                    "velocity": 0.3779527559055118,
                    "duration": 0.39949400000000423
                },
                {
                    "name": "G3",
                    "midi": 55,
                    "time": 93.48159600000058,
                    "velocity": 0.31496062992125984,
                    "duration": 0.39949400000000423
                },
                {
                    "name": "F3",
                    "midi": 53,
                    "time": 93.88109000000058,
                    "velocity": 0.2677165354330709,
                    "duration": 0.39949400000000423
                },
                {
                    "name": "C4",
                    "midi": 60,
                    "time": 93.88109000000058,
                    "velocity": 0.2677165354330709,
                    "duration": 0.39949400000000423
                },
                {
                    "name": "D#4",
                    "midi": 63,
                    "time": 93.88109000000058,
                    "velocity": 0.3228346456692913,
                    "duration": 0.39949400000000423
                },
                {
                    "name": "F3",
                    "midi": 53,
                    "time": 94.28058400000059,
                    "velocity": 0.31496062992125984,
                    "duration": 0.39949400000000423
                },
                {
                    "name": "C4",
                    "midi": 60,
                    "time": 94.28058400000059,
                    "velocity": 0.31496062992125984,
                    "duration": 0.39949400000000423
                },
                {
                    "name": "D4",
                    "midi": 62,
                    "time": 94.28058400000059,
                    "velocity": 0.3779527559055118,
                    "duration": 0.39949400000000423
                },
                {
                    "name": "F3",
                    "midi": 53,
                    "time": 94.8798250000006,
                    "velocity": 0.2283464566929134,
                    "duration": 0.19974700000000212
                },
                {
                    "name": "A#3",
                    "midi": 58,
                    "time": 94.8798250000006,
                    "velocity": 0.2283464566929134,
                    "duration": 0.19974700000000212
                },
                {
                    "name": "D4",
                    "midi": 62,
                    "time": 94.8798250000006,
                    "velocity": 0.2755905511811024,
                    "duration": 0.19974700000000212
                },
                {
                    "name": "A#3",
                    "midi": 58,
                    "time": 95.0795720000006,
                    "velocity": 0.28346456692913385,
                    "duration": 0.39949400000000423
                },
                {
                    "name": "C4",
                    "midi": 60,
                    "time": 95.0795720000006,
                    "velocity": 0.33858267716535434,
                    "duration": 0.39949400000000423
                },
                {
                    "name": "G3",
                    "midi": 55,
                    "time": 95.0795720000006,
                    "velocity": 0.28346456692913385,
                    "duration": 0.39949400000000423
                },
                {
                    "name": "F3",
                    "midi": 53,
                    "time": 95.4790660000006,
                    "velocity": 0.2440944881889764,
                    "duration": 0.39949400000000423
                },
                {
                    "name": "C4",
                    "midi": 60,
                    "time": 95.4790660000006,
                    "velocity": 0.29133858267716534,
                    "duration": 0.39949400000000423
                },
                {
                    "name": "A#3",
                    "midi": 58,
                    "time": 95.8785600000006,
                    "velocity": 0.33858267716535434,
                    "duration": 0.39949400000000423
                },
                {
                    "name": "D#4",
                    "midi": 63,
                    "time": 96.47780100000061,
                    "velocity": 0.2992125984251969,
                    "duration": 0.19974700000000212
                },
                {
                    "name": "G#4",
                    "midi": 68,
                    "time": 96.47780100000061,
                    "velocity": 0.2992125984251969,
                    "duration": 0.19974700000000212
                },
                {
                    "name": "C5",
                    "midi": 72,
                    "time": 96.47780100000061,
                    "velocity": 0.3543307086614173,
                    "duration": 0.19974700000000212
                },
                {
                    "name": "D#4",
                    "midi": 63,
                    "time": 96.67754800000061,
                    "velocity": 0.3228346456692913,
                    "duration": 0.37951929999999834
                },
                {
                    "name": "A#4",
                    "midi": 70,
                    "time": 96.67754800000061,
                    "velocity": 0.3858267716535433,
                    "duration": 0.37951929999999834
                },
                {
                    "name": "D4",
                    "midi": 62,
                    "time": 97.07704200000062,
                    "velocity": 0.28346456692913385,
                    "duration": 0.37951929999999834
                },
                {
                    "name": "G#4",
                    "midi": 68,
                    "time": 97.07704200000062,
                    "velocity": 0.28346456692913385,
                    "duration": 0.37951929999999834
                },
                {
                    "name": "D5",
                    "midi": 74,
                    "time": 97.07704200000062,
                    "velocity": 0.33858267716535434,
                    "duration": 0.37951929999999834
                },
                {
                    "name": "D#4",
                    "midi": 63,
                    "time": 97.47653600000062,
                    "velocity": 0.2992125984251969,
                    "duration": 0.37951929999999834
                },
                {
                    "name": "G4",
                    "midi": 67,
                    "time": 97.47653600000062,
                    "velocity": 0.2992125984251969,
                    "duration": 0.37951929999999834
                },
                {
                    "name": "D#5",
                    "midi": 75,
                    "time": 97.47653600000062,
                    "velocity": 0.36220472440944884,
                    "duration": 0.37951929999999834
                },
                {
                    "name": "D#4",
                    "midi": 63,
                    "time": 98.07577700000061,
                    "velocity": 0.28346456692913385,
                    "duration": 0.19974700000000212
                },
                {
                    "name": "C5",
                    "midi": 72,
                    "time": 98.07577700000061,
                    "velocity": 0.33858267716535434,
                    "duration": 0.19974700000000212
                },
                {
                    "name": "D#4",
                    "midi": 63,
                    "time": 98.27552400000062,
                    "velocity": 0.33070866141732286,
                    "duration": 0.37951929999999834
                },
                {
                    "name": "A#4",
                    "midi": 70,
                    "time": 98.27552400000062,
                    "velocity": 0.3937007874015748,
                    "duration": 0.37951929999999834
                },
                {
                    "name": "D4",
                    "midi": 62,
                    "time": 98.67501800000062,
                    "velocity": 0.29133858267716534,
                    "duration": 0.37951929999999834
                },
                {
                    "name": "G#4",
                    "midi": 68,
                    "time": 98.67501800000062,
                    "velocity": 0.29133858267716534,
                    "duration": 0.37951929999999834
                },
                {
                    "name": "D5",
                    "midi": 74,
                    "time": 98.67501800000062,
                    "velocity": 0.3464566929133858,
                    "duration": 0.37951929999999834
                },
                {
                    "name": "D#4",
                    "midi": 63,
                    "time": 99.07451200000062,
                    "velocity": 0.2992125984251969,
                    "duration": 0.37951929999999834
                },
                {
                    "name": "G4",
                    "midi": 67,
                    "time": 99.07451200000062,
                    "velocity": 0.2992125984251969,
                    "duration": 0.37951929999999834
                },
                {
                    "name": "D#5",
                    "midi": 75,
                    "time": 99.07451200000062,
                    "velocity": 0.3543307086614173,
                    "duration": 0.37951929999999834
                },
                {
                    "name": "G4",
                    "midi": 67,
                    "time": 99.67375300000062,
                    "velocity": 0.30708661417322836,
                    "duration": 0.19974700000000212
                },
                {
                    "name": "D#4",
                    "midi": 63,
                    "time": 99.67375300000062,
                    "velocity": 0.30708661417322836,
                    "duration": 0.19974700000000212
                },
                {
                    "name": "A#4",
                    "midi": 70,
                    "time": 99.67375300000062,
                    "velocity": 0.30708661417322836,
                    "duration": 0.19974700000000212
                },
                {
                    "name": "G4",
                    "midi": 67,
                    "time": 99.87350000000062,
                    "velocity": 0.3543307086614173,
                    "duration": 0.39949400000000423
                },
                {
                    "name": "D#4",
                    "midi": 63,
                    "time": 99.87350000000062,
                    "velocity": 0.3543307086614173,
                    "duration": 0.39949400000000423
                },
                {
                    "name": "D#5",
                    "midi": 75,
                    "time": 99.87350000000062,
                    "velocity": 0.41732283464566927,
                    "duration": 0.39949400000000423
                },
                {
                    "name": "D4",
                    "midi": 62,
                    "time": 100.27299400000062,
                    "velocity": 0.3543307086614173,
                    "duration": 0.39949400000000423
                },
                {
                    "name": "F#4",
                    "midi": 66,
                    "time": 100.27299400000062,
                    "velocity": 0.3543307086614173,
                    "duration": 0.39949400000000423
                },
                {
                    "name": "D5",
                    "midi": 74,
                    "time": 100.27299400000062,
                    "velocity": 0.41732283464566927,
                    "duration": 0.39949400000000423
                },
                {
                    "name": "D4",
                    "midi": 62,
                    "time": 100.67248800000063,
                    "velocity": 0.3779527559055118,
                    "duration": 0.39949400000000423
                },
                {
                    "name": "G4",
                    "midi": 67,
                    "time": 100.67248800000063,
                    "velocity": 0.3779527559055118,
                    "duration": 0.39949400000000423
                },
                {
                    "name": "A#4",
                    "midi": 70,
                    "time": 100.67248800000063,
                    "velocity": 0.44881889763779526,
                    "duration": 0.39949400000000423
                },
                {
                    "name": "C#4",
                    "midi": 61,
                    "time": 101.27172900000063,
                    "velocity": 0.2677165354330709,
                    "duration": 0.19974700000000212
                },
                {
                    "name": "A#4",
                    "midi": 70,
                    "time": 101.27172900000063,
                    "velocity": 0.3228346456692913,
                    "duration": 0.19974700000000212
                },
                {
                    "name": "C4",
                    "midi": 60,
                    "time": 101.47147600000064,
                    "velocity": 0.30708661417322836,
                    "duration": 0.39949400000000423
                },
                {
                    "name": "C5",
                    "midi": 72,
                    "time": 101.47147600000064,
                    "velocity": 0.3700787401574803,
                    "duration": 0.39949400000000423
                },
                {
                    "name": "F4",
                    "midi": 65,
                    "time": 101.87097000000064,
                    "velocity": 0.2677165354330709,
                    "duration": 0.39949400000000423
                },
                {
                    "name": "A#4",
                    "midi": 70,
                    "time": 101.87097000000064,
                    "velocity": 0.3228346456692913,
                    "duration": 0.39949400000000423
                },
                {
                    "name": "A#3",
                    "midi": 58,
                    "time": 102.27046400000064,
                    "velocity": 0.31496062992125984,
                    "duration": 0.39949400000000423
                },
                {
                    "name": "E4",
                    "midi": 64,
                    "time": 102.27046400000064,
                    "velocity": 0.31496062992125984,
                    "duration": 0.39949400000000423
                },
                {
                    "name": "G4",
                    "midi": 67,
                    "time": 102.27046400000064,
                    "velocity": 0.3779527559055118,
                    "duration": 0.39949400000000423
                },
                {
                    "name": "A#3",
                    "midi": 58,
                    "time": 102.86970500000065,
                    "velocity": 0.2677165354330709,
                    "duration": 0.19974700000000212
                },
                {
                    "name": "E4",
                    "midi": 64,
                    "time": 102.86970500000065,
                    "velocity": 0.2677165354330709,
                    "duration": 0.19974700000000212
                },
                {
                    "name": "G4",
                    "midi": 67,
                    "time": 102.86970500000065,
                    "velocity": 0.3228346456692913,
                    "duration": 0.19974700000000212
                },
                {
                    "name": "F4",
                    "midi": 65,
                    "time": 103.06945200000065,
                    "velocity": 0.30708661417322836,
                    "duration": 0.39949400000000423
                },
                {
                    "name": "C4",
                    "midi": 60,
                    "time": 103.06945200000065,
                    "velocity": 0.30708661417322836,
                    "duration": 0.39949400000000423
                },
                {
                    "name": "G#4",
                    "midi": 68,
                    "time": 103.06945200000065,
                    "velocity": 0.3700787401574803,
                    "duration": 0.39949400000000423
                },
                {
                    "name": "G#3",
                    "midi": 56,
                    "time": 103.46894600000066,
                    "velocity": 0.2677165354330709,
                    "duration": 0.2996205000000032
                },
                {
                    "name": "D4",
                    "midi": 62,
                    "time": 103.46894600000066,
                    "velocity": 0.2677165354330709,
                    "duration": 0.39949400000000423
                },
                {
                    "name": "F4",
                    "midi": 65,
                    "time": 103.46894600000066,
                    "velocity": 0.3228346456692913,
                    "duration": 0.39949400000000423
                },
                {
                    "name": "A3",
                    "midi": 57,
                    "time": 103.76856650000066,
                    "velocity": 0.2677165354330709,
                    "duration": 0.09987350000000106
                },
                {
                    "name": "A#3",
                    "midi": 58,
                    "time": 103.86844000000066,
                    "velocity": 0.31496062992125984,
                    "duration": 0.39949400000000423
                },
                {
                    "name": "D4",
                    "midi": 62,
                    "time": 103.86844000000066,
                    "velocity": 0.31496062992125984,
                    "duration": 0.39949400000000423
                },
                {
                    "name": "G4",
                    "midi": 67,
                    "time": 103.86844000000066,
                    "velocity": 0.3779527559055118,
                    "duration": 0.39949400000000423
                },
                {
                    "name": "A#3",
                    "midi": 58,
                    "time": 104.46768100000067,
                    "velocity": 0.2677165354330709,
                    "duration": 0.19974700000000212
                },
                {
                    "name": "E4",
                    "midi": 64,
                    "time": 104.46768100000067,
                    "velocity": 0.2677165354330709,
                    "duration": 0.19974700000000212
                },
                {
                    "name": "G4",
                    "midi": 67,
                    "time": 104.46768100000067,
                    "velocity": 0.3228346456692913,
                    "duration": 0.19974700000000212
                },
                {
                    "name": "F4",
                    "midi": 65,
                    "time": 104.66742800000067,
                    "velocity": 0.30708661417322836,
                    "duration": 0.39949400000000423
                },
                {
                    "name": "C4",
                    "midi": 60,
                    "time": 104.66742800000067,
                    "velocity": 0.30708661417322836,
                    "duration": 0.39949400000000423
                },
                {
                    "name": "G#4",
                    "midi": 68,
                    "time": 104.66742800000067,
                    "velocity": 0.3700787401574803,
                    "duration": 0.39949400000000423
                },
                {
                    "name": "G#3",
                    "midi": 56,
                    "time": 105.06692200000067,
                    "velocity": 0.2677165354330709,
                    "duration": 0.39949400000000423
                },
                {
                    "name": "D4",
                    "midi": 62,
                    "time": 105.06692200000067,
                    "velocity": 0.2677165354330709,
                    "duration": 0.39949400000000423
                },
                {
                    "name": "F4",
                    "midi": 65,
                    "time": 105.06692200000067,
                    "velocity": 0.3228346456692913,
                    "duration": 0.39949400000000423
                },
                {
                    "name": "G3",
                    "midi": 55,
                    "time": 105.46641600000068,
                    "velocity": 0.31496062992125984,
                    "duration": 0.39949400000000423
                },
                {
                    "name": "D#4",
                    "midi": 63,
                    "time": 105.46641600000068,
                    "velocity": 0.3779527559055118,
                    "duration": 0.39949400000000423
                },
                {
                    "name": "G3",
                    "midi": 55,
                    "time": 106.06565700000068,
                    "velocity": 0.2677165354330709,
                    "duration": 0.19974700000000212
                },
                {
                    "name": "D#4",
                    "midi": 63,
                    "time": 106.06565700000068,
                    "velocity": 0.3228346456692913,
                    "duration": 1.3982290000000148
                },
                {
                    "name": "C4",
                    "midi": 60,
                    "time": 106.26540400000069,
                    "velocity": 0.30708661417322836,
                    "duration": 0.39949400000000423
                },
                {
                    "name": "B3",
                    "midi": 59,
                    "time": 106.66489800000069,
                    "velocity": 0.2677165354330709,
                    "duration": 0.39949400000000423
                },
                {
                    "name": "A#3",
                    "midi": 58,
                    "time": 107.0643920000007,
                    "velocity": 0.31496062992125984,
                    "duration": 0.39949400000000423
                }
            ],
            "controlChanges": {},
            "id": 1,
            "name": "Piano right",
            "instrumentNumber": 0,
            "instrument": "acoustic grand piano",
            "instrumentFamily": "piano",
            "channelNumber": 0,
            "isPercussion": false
        },
        {
            "startTime": 0.7490512500000001,
            "duration": 109.0618620000006,
            "length": 587,
            "notes": [
                {
                    "name": "G2",
                    "midi": 43,
                    "time": 0.7490512500000001,
                    "velocity": 0.3779527559055118,
                    "duration": 0.2496837500000001
                },
                {
                    "name": "C3",
                    "midi": 48,
                    "time": 0.7740196250000001,
                    "velocity": 0.4251968503937008,
                    "duration": 0.22471537500000005
                },
                {
                    "name": "A3",
                    "midi": 57,
                    "time": 0.7989880000000001,
                    "velocity": 0.47244094488188976,
                    "duration": 0.199747
                },
                {
                    "name": "G2",
                    "midi": 43,
                    "time": 1.1485452500000002,
                    "velocity": 0.4330708661417323,
                    "duration": 0.24968374999999998
                },
                {
                    "name": "D3",
                    "midi": 50,
                    "time": 1.1735136250000002,
                    "velocity": 0.4645669291338583,
                    "duration": 0.22471537499999994
                },
                {
                    "name": "B3",
                    "midi": 59,
                    "time": 1.1984820000000003,
                    "velocity": 0.49606299212598426,
                    "duration": 0.1997469999999999
                },
                {
                    "name": "G2",
                    "midi": 43,
                    "time": 1.5480392500000002,
                    "velocity": 0.4015748031496063,
                    "duration": 0.2496837500000002
                },
                {
                    "name": "D#3",
                    "midi": 51,
                    "time": 1.5730076250000002,
                    "velocity": 0.4251968503937008,
                    "duration": 0.22471537500000016
                },
                {
                    "name": "C4",
                    "midi": 60,
                    "time": 1.5979760000000003,
                    "velocity": 0.4566929133858268,
                    "duration": 0.19974700000000012
                },
                {
                    "name": "C4",
                    "midi": 60,
                    "time": 1.9974700000000003,
                    "velocity": 0.4094488188976378,
                    "duration": 0.09987350000000017
                },
                {
                    "name": "A3",
                    "midi": 57,
                    "time": 2.0973435000000005,
                    "velocity": 0.4015748031496063,
                    "duration": 0.09987350000000017
                },
                {
                    "name": "F#3",
                    "midi": 54,
                    "time": 2.1972170000000006,
                    "velocity": 0.3937007874015748,
                    "duration": 0.09987350000000017
                },
                {
                    "name": "D#3",
                    "midi": 51,
                    "time": 2.297090500000001,
                    "velocity": 0.3937007874015748,
                    "duration": 0.09987350000000017
                },
                {
                    "name": "G2",
                    "midi": 43,
                    "time": 2.396964000000001,
                    "velocity": 0.3779527559055118,
                    "duration": 0.1997469999999999
                },
                {
                    "name": "C3",
                    "midi": 48,
                    "time": 2.396964000000001,
                    "velocity": 0.4094488188976378,
                    "duration": 0.1997469999999999
                },
                {
                    "name": "A3",
                    "midi": 57,
                    "time": 2.396964000000001,
                    "velocity": 0.47244094488188976,
                    "duration": 0.1997469999999999
                },
                {
                    "name": "G2",
                    "midi": 43,
                    "time": 2.7964580000000008,
                    "velocity": 0.4015748031496063,
                    "duration": 0.1997469999999999
                },
                {
                    "name": "D3",
                    "midi": 50,
                    "time": 2.7964580000000008,
                    "velocity": 0.4330708661417323,
                    "duration": 0.1997469999999999
                },
                {
                    "name": "B3",
                    "midi": 59,
                    "time": 2.7964580000000008,
                    "velocity": 0.47244094488188976,
                    "duration": 0.1997469999999999
                },
                {
                    "name": "G2",
                    "midi": 43,
                    "time": 3.1959520000000006,
                    "velocity": 0.36220472440944884,
                    "duration": 0.1997469999999999
                },
                {
                    "name": "D#3",
                    "midi": 51,
                    "time": 3.1959520000000006,
                    "velocity": 0.4015748031496063,
                    "duration": 0.1997469999999999
                },
                {
                    "name": "C4",
                    "midi": 60,
                    "time": 3.1959520000000006,
                    "velocity": 0.44881889763779526,
                    "duration": 0.1997469999999999
                },
                {
                    "name": "C4",
                    "midi": 60,
                    "time": 3.5954460000000004,
                    "velocity": 0.4094488188976378,
                    "duration": 0.09987350000000017
                },
                {
                    "name": "A3",
                    "midi": 57,
                    "time": 3.6953195000000005,
                    "velocity": 0.4015748031496063,
                    "duration": 0.09987350000000017
                },
                {
                    "name": "F#3",
                    "midi": 54,
                    "time": 3.7951930000000007,
                    "velocity": 0.3937007874015748,
                    "duration": 0.09987350000000017
                },
                {
                    "name": "D#3",
                    "midi": 51,
                    "time": 3.895066500000001,
                    "velocity": 0.3937007874015748,
                    "duration": 0.09987350000000017
                },
                {
                    "name": "G2",
                    "midi": 43,
                    "time": 3.945003250000001,
                    "velocity": 0.31496062992125984,
                    "duration": 0.3994939999999998
                },
                {
                    "name": "E3",
                    "midi": 52,
                    "time": 3.994940000000001,
                    "velocity": 0.4566929133858268,
                    "duration": 0.3495572499999997
                },
                {
                    "name": "G2",
                    "midi": 43,
                    "time": 4.344497250000001,
                    "velocity": 0.33858267716535434,
                    "duration": 0.3994939999999998
                },
                {
                    "name": "F3",
                    "midi": 53,
                    "time": 4.394434,
                    "velocity": 0.49606299212598426,
                    "duration": 0.34955725000000015
                },
                {
                    "name": "G2",
                    "midi": 43,
                    "time": 4.7439912500000005,
                    "velocity": 0.30708661417322836,
                    "duration": 0.44943074999999943
                },
                {
                    "name": "G3",
                    "midi": 55,
                    "time": 4.793928,
                    "velocity": 0.3779527559055118,
                    "duration": 0.3994939999999998
                },
                {
                    "name": "G3",
                    "midi": 55,
                    "time": 5.193422,
                    "velocity": 0.4094488188976378,
                    "duration": 0.0798987999999996
                },
                {
                    "name": "E3",
                    "midi": 52,
                    "time": 5.2733208,
                    "velocity": 0.4015748031496063,
                    "duration": 0.0798987999999996
                },
                {
                    "name": "C#3",
                    "midi": 49,
                    "time": 5.353219599999999,
                    "velocity": 0.3937007874015748,
                    "duration": 0.0798987999999996
                },
                {
                    "name": "A#2",
                    "midi": 46,
                    "time": 5.433118399999999,
                    "velocity": 0.3937007874015748,
                    "duration": 0.0798987999999996
                },
                {
                    "name": "G2",
                    "midi": 43,
                    "time": 5.513017199999998,
                    "velocity": 0.3937007874015748,
                    "duration": 0.0798987999999996
                },
                {
                    "name": "G1",
                    "midi": 31,
                    "time": 5.592915999999998,
                    "velocity": 0.4409448818897638,
                    "duration": 0.3994939999999998
                },
                {
                    "name": "G2",
                    "midi": 43,
                    "time": 5.592915999999998,
                    "velocity": 0.5511811023622047,
                    "duration": 0.3994939999999998
                },
                {
                    "name": "G1",
                    "midi": 31,
                    "time": 5.992409999999998,
                    "velocity": 0.47244094488188976,
                    "duration": 0.3994939999999998
                },
                {
                    "name": "G2",
                    "midi": 43,
                    "time": 5.992409999999998,
                    "velocity": 0.5511811023622047,
                    "duration": 0.3994939999999998
                },
                {
                    "name": "C2",
                    "midi": 36,
                    "time": 6.391903999999998,
                    "velocity": 0.4251968503937008,
                    "duration": 0.3994939999999998
                },
                {
                    "name": "G2",
                    "midi": 43,
                    "time": 6.391903999999998,
                    "velocity": 0.5275590551181102,
                    "duration": 0.2996204999999996
                },
                {
                    "name": "C2",
                    "midi": 36,
                    "time": 6.791397999999997,
                    "velocity": 0.6141732283464567,
                    "duration": 0.3994940000000007
                },
                {
                    "name": "G2",
                    "midi": 43,
                    "time": 7.1409552499999975,
                    "velocity": 0.44881889763779526,
                    "duration": 0.24968375000000087
                },
                {
                    "name": "C3",
                    "midi": 48,
                    "time": 7.165923624999998,
                    "velocity": 0.47244094488188976,
                    "duration": 0.2247153750000006
                },
                {
                    "name": "A3",
                    "midi": 57,
                    "time": 7.190891999999998,
                    "velocity": 0.5039370078740157,
                    "duration": 0.19974700000000034
                },
                {
                    "name": "G2",
                    "midi": 43,
                    "time": 7.540449249999998,
                    "velocity": 0.4330708661417323,
                    "duration": 0.24968375000000087
                },
                {
                    "name": "D3",
                    "midi": 50,
                    "time": 7.5654176249999985,
                    "velocity": 0.4566929133858268,
                    "duration": 0.2247153750000006
                },
                {
                    "name": "B3",
                    "midi": 59,
                    "time": 7.590385999999999,
                    "velocity": 0.47244094488188976,
                    "duration": 0.19974700000000034
                },
                {
                    "name": "G2",
                    "midi": 43,
                    "time": 7.939943249999999,
                    "velocity": 0.4330708661417323,
                    "duration": 0.24968375000000087
                },
                {
                    "name": "D#3",
                    "midi": 51,
                    "time": 7.964911624999999,
                    "velocity": 0.4645669291338583,
                    "duration": 0.2247153750000006
                },
                {
                    "name": "C4",
                    "midi": 60,
                    "time": 7.989879999999999,
                    "velocity": 0.49606299212598426,
                    "duration": 0.19974700000000034
                },
                {
                    "name": "C4",
                    "midi": 60,
                    "time": 8.389374,
                    "velocity": 0.4094488188976378,
                    "duration": 0.09987349999999928
                },
                {
                    "name": "A3",
                    "midi": 57,
                    "time": 8.4892475,
                    "velocity": 0.4015748031496063,
                    "duration": 0.09987349999999928
                },
                {
                    "name": "F#3",
                    "midi": 54,
                    "time": 8.589120999999999,
                    "velocity": 0.3937007874015748,
                    "duration": 0.09987349999999928
                },
                {
                    "name": "D#3",
                    "midi": 51,
                    "time": 8.688994499999998,
                    "velocity": 0.3937007874015748,
                    "duration": 0.09987349999999928
                },
                {
                    "name": "G2",
                    "midi": 43,
                    "time": 8.788867999999997,
                    "velocity": 0.3779527559055118,
                    "duration": 0.19974700000000034
                },
                {
                    "name": "C3",
                    "midi": 48,
                    "time": 8.788867999999997,
                    "velocity": 0.4094488188976378,
                    "duration": 0.19974700000000034
                },
                {
                    "name": "A3",
                    "midi": 57,
                    "time": 8.788867999999997,
                    "velocity": 0.47244094488188976,
                    "duration": 0.19974700000000034
                },
                {
                    "name": "G2",
                    "midi": 43,
                    "time": 9.188361999999998,
                    "velocity": 0.4015748031496063,
                    "duration": 0.19974700000000034
                },
                {
                    "name": "D3",
                    "midi": 50,
                    "time": 9.188361999999998,
                    "velocity": 0.4330708661417323,
                    "duration": 0.19974700000000034
                },
                {
                    "name": "B3",
                    "midi": 59,
                    "time": 9.188361999999998,
                    "velocity": 0.47244094488188976,
                    "duration": 0.19974700000000034
                },
                {
                    "name": "G2",
                    "midi": 43,
                    "time": 9.587855999999999,
                    "velocity": 0.36220472440944884,
                    "duration": 0.19974700000000034
                },
                {
                    "name": "D#3",
                    "midi": 51,
                    "time": 9.587855999999999,
                    "velocity": 0.4015748031496063,
                    "duration": 0.19974700000000034
                },
                {
                    "name": "C4",
                    "midi": 60,
                    "time": 9.587855999999999,
                    "velocity": 0.44881889763779526,
                    "duration": 0.19974700000000034
                },
                {
                    "name": "C4",
                    "midi": 60,
                    "time": 9.98735,
                    "velocity": 0.4094488188976378,
                    "duration": 0.09987349999999928
                },
                {
                    "name": "A3",
                    "midi": 57,
                    "time": 10.087223499999999,
                    "velocity": 0.4015748031496063,
                    "duration": 0.09987349999999928
                },
                {
                    "name": "F#3",
                    "midi": 54,
                    "time": 10.187096999999998,
                    "velocity": 0.3937007874015748,
                    "duration": 0.09987349999999928
                },
                {
                    "name": "D#3",
                    "midi": 51,
                    "time": 10.286970499999997,
                    "velocity": 0.3937007874015748,
                    "duration": 0.09987350000000106
                },
                {
                    "name": "G2",
                    "midi": 43,
                    "time": 10.336907249999998,
                    "velocity": 0.31496062992125984,
                    "duration": 0.3994940000000007
                },
                {
                    "name": "E3",
                    "midi": 52,
                    "time": 10.386843999999998,
                    "velocity": 0.3937007874015748,
                    "duration": 0.34955725000000015
                },
                {
                    "name": "G2",
                    "midi": 43,
                    "time": 10.736401249999998,
                    "velocity": 0.33858267716535434,
                    "duration": 0.3994940000000007
                },
                {
                    "name": "F3",
                    "midi": 53,
                    "time": 10.786337999999999,
                    "velocity": 0.3937007874015748,
                    "duration": 0.34955725000000015
                },
                {
                    "name": "G2",
                    "midi": 43,
                    "time": 11.135895249999999,
                    "velocity": 0.30708661417322836,
                    "duration": 0.4494307500000012
                },
                {
                    "name": "G3",
                    "midi": 55,
                    "time": 11.185832,
                    "velocity": 0.3779527559055118,
                    "duration": 0.3994940000000007
                },
                {
                    "name": "G3",
                    "midi": 55,
                    "time": 11.585326,
                    "velocity": 0.4094488188976378,
                    "duration": 0.07989880000000049
                },
                {
                    "name": "E3",
                    "midi": 52,
                    "time": 11.6652248,
                    "velocity": 0.4015748031496063,
                    "duration": 0.07989880000000049
                },
                {
                    "name": "C#3",
                    "midi": 49,
                    "time": 11.745123600000001,
                    "velocity": 0.3937007874015748,
                    "duration": 0.07989880000000049
                },
                {
                    "name": "A#2",
                    "midi": 46,
                    "time": 11.825022400000002,
                    "velocity": 0.3937007874015748,
                    "duration": 0.07989880000000049
                },
                {
                    "name": "G2",
                    "midi": 43,
                    "time": 11.904921200000002,
                    "velocity": 0.3937007874015748,
                    "duration": 0.07989880000000049
                },
                {
                    "name": "G1",
                    "midi": 31,
                    "time": 11.984820000000003,
                    "velocity": 0.4409448818897638,
                    "duration": 0.3994940000000007
                },
                {
                    "name": "G2",
                    "midi": 43,
                    "time": 11.984820000000003,
                    "velocity": 0.5511811023622047,
                    "duration": 0.3994940000000007
                },
                {
                    "name": "G1",
                    "midi": 31,
                    "time": 12.384314000000003,
                    "velocity": 0.47244094488188976,
                    "duration": 0.3994940000000007
                },
                {
                    "name": "G2",
                    "midi": 43,
                    "time": 12.384314000000003,
                    "velocity": 0.5511811023622047,
                    "duration": 0.3994940000000007
                },
                {
                    "name": "C2",
                    "midi": 36,
                    "time": 12.783808000000004,
                    "velocity": 0.4251968503937008,
                    "duration": 0.3994939999999989
                },
                {
                    "name": "G2",
                    "midi": 43,
                    "time": 12.783808000000004,
                    "velocity": 0.5275590551181102,
                    "duration": 0.2996204999999996
                },
                {
                    "name": "C2",
                    "midi": 36,
                    "time": 13.183302000000003,
                    "velocity": 0.6299212598425197,
                    "duration": 0.3994940000000007
                },
                {
                    "name": "G2",
                    "midi": 43,
                    "time": 13.582796000000004,
                    "velocity": 0.4094488188976378,
                    "duration": 0.3994940000000007
                },
                {
                    "name": "D3",
                    "midi": 50,
                    "time": 13.982290000000004,
                    "velocity": 0.33070866141732286,
                    "duration": 0.3994940000000007
                },
                {
                    "name": "D2",
                    "midi": 38,
                    "time": 14.381784000000005,
                    "velocity": 0.4015748031496063,
                    "duration": 0.3994940000000007
                },
                {
                    "name": "D3",
                    "midi": 50,
                    "time": 14.781278000000006,
                    "velocity": 0.33858267716535434,
                    "duration": 0.3994940000000007
                },
                {
                    "name": "G2",
                    "midi": 43,
                    "time": 15.180772000000006,
                    "velocity": 0.4094488188976378,
                    "duration": 0.3994940000000007
                },
                {
                    "name": "D3",
                    "midi": 50,
                    "time": 15.580266000000007,
                    "velocity": 0.33070866141732286,
                    "duration": 0.3994940000000007
                },
                {
                    "name": "D2",
                    "midi": 38,
                    "time": 15.979760000000008,
                    "velocity": 0.4015748031496063,
                    "duration": 0.3994939999999989
                },
                {
                    "name": "D3",
                    "midi": 50,
                    "time": 16.379254000000007,
                    "velocity": 0.33858267716535434,
                    "duration": 0.3994940000000007
                },
                {
                    "name": "G2",
                    "midi": 43,
                    "time": 16.778748000000007,
                    "velocity": 0.5433070866141733,
                    "duration": 0.3994940000000007
                },
                {
                    "name": "D3",
                    "midi": 50,
                    "time": 17.178242000000008,
                    "velocity": 0.33070866141732286,
                    "duration": 0.3994940000000007
                },
                {
                    "name": "C2",
                    "midi": 36,
                    "time": 17.57773600000001,
                    "velocity": 0.5669291338582677,
                    "duration": 0.3994940000000007
                },
                {
                    "name": "C3",
                    "midi": 48,
                    "time": 17.97723000000001,
                    "velocity": 0.33070866141732286,
                    "duration": 0.3994940000000007
                },
                {
                    "name": "F2",
                    "midi": 41,
                    "time": 18.37672400000001,
                    "velocity": 0.5905511811023622,
                    "duration": 0.3994940000000007
                },
                {
                    "name": "C3",
                    "midi": 48,
                    "time": 18.77621800000001,
                    "velocity": 0.33070866141732286,
                    "duration": 0.3994940000000007
                },
                {
                    "name": "A#1",
                    "midi": 34,
                    "time": 19.17571200000001,
                    "velocity": 0.6299212598425197,
                    "duration": 0.3994940000000007
                },
                {
                    "name": "A#2",
                    "midi": 46,
                    "time": 19.575206000000012,
                    "velocity": 0.33070866141732286,
                    "duration": 0.3994940000000007
                },
                {
                    "name": "D#2",
                    "midi": 39,
                    "time": 19.974700000000013,
                    "velocity": 0.5669291338582677,
                    "duration": 0.3994940000000007
                },
                {
                    "name": "A#2",
                    "midi": 46,
                    "time": 20.374194000000013,
                    "velocity": 0.33070866141732286,
                    "duration": 0.3994940000000007
                },
                {
                    "name": "A1",
                    "midi": 33,
                    "time": 20.773688000000014,
                    "velocity": 0.5590551181102362,
                    "duration": 0.3994940000000007
                },
                {
                    "name": "A2",
                    "midi": 45,
                    "time": 21.173182000000015,
                    "velocity": 0.33070866141732286,
                    "duration": 0.3994940000000007
                },
                {
                    "name": "D2",
                    "midi": 38,
                    "time": 21.572676000000016,
                    "velocity": 0.5275590551181102,
                    "duration": 0.3994940000000007
                },
                {
                    "name": "A2",
                    "midi": 45,
                    "time": 21.972170000000016,
                    "velocity": 0.33070866141732286,
                    "duration": 0.3994940000000007
                },
                {
                    "name": "D2",
                    "midi": 38,
                    "time": 22.371664000000017,
                    "velocity": 0.5354330708661418,
                    "duration": 0.3994940000000007
                },
                {
                    "name": "A3",
                    "midi": 57,
                    "time": 22.771158000000018,
                    "velocity": 0.33070866141732286,
                    "duration": 0.3994940000000007
                },
                {
                    "name": "G2",
                    "midi": 43,
                    "time": 23.17065200000002,
                    "velocity": 0.4094488188976378,
                    "duration": 0.3994940000000007
                },
                {
                    "name": "G3",
                    "midi": 55,
                    "time": 23.17065200000002,
                    "velocity": 0.4094488188976378,
                    "duration": 0.3994940000000007
                },
                {
                    "name": "D4",
                    "midi": 62,
                    "time": 23.57014600000002,
                    "velocity": 0.33070866141732286,
                    "duration": 0.3994940000000007
                },
                {
                    "name": "D4",
                    "midi": 62,
                    "time": 23.96964000000002,
                    "velocity": 0.4015748031496063,
                    "duration": 0.3994940000000007
                },
                {
                    "name": "D3",
                    "midi": 50,
                    "time": 23.96964000000002,
                    "velocity": 0.4015748031496063,
                    "duration": 0.3994940000000007
                },
                {
                    "name": "D4",
                    "midi": 62,
                    "time": 24.36913400000002,
                    "velocity": 0.33858267716535434,
                    "duration": 0.3994940000000007
                },
                {
                    "name": "G4",
                    "midi": 67,
                    "time": 24.76862800000002,
                    "velocity": 0.4094488188976378,
                    "duration": 0.3994940000000007
                },
                {
                    "name": "G3",
                    "midi": 55,
                    "time": 24.76862800000002,
                    "velocity": 0.4094488188976378,
                    "duration": 0.3994940000000007
                },
                {
                    "name": "D4",
                    "midi": 62,
                    "time": 25.16812200000002,
                    "velocity": 0.33070866141732286,
                    "duration": 0.3994940000000007
                },
                {
                    "name": "D4",
                    "midi": 62,
                    "time": 25.567616000000022,
                    "velocity": 0.4015748031496063,
                    "duration": 0.3994940000000007
                },
                {
                    "name": "D3",
                    "midi": 50,
                    "time": 25.567616000000022,
                    "velocity": 0.4015748031496063,
                    "duration": 0.3994940000000007
                },
                {
                    "name": "D4",
                    "midi": 62,
                    "time": 25.967110000000023,
                    "velocity": 0.33858267716535434,
                    "duration": 0.3994940000000007
                },
                {
                    "name": "G2",
                    "midi": 43,
                    "time": 26.366604000000024,
                    "velocity": 0.4881889763779528,
                    "duration": 0.3994940000000007
                },
                {
                    "name": "G3",
                    "midi": 55,
                    "time": 26.366604000000024,
                    "velocity": 0.4881889763779528,
                    "duration": 0.3994940000000007
                },
                {
                    "name": "D4",
                    "midi": 62,
                    "time": 26.766098000000024,
                    "velocity": 0.33070866141732286,
                    "duration": 0.3994940000000007
                },
                {
                    "name": "C3",
                    "midi": 48,
                    "time": 27.165592000000025,
                    "velocity": 0.4881889763779528,
                    "duration": 0.3994940000000007
                },
                {
                    "name": "C4",
                    "midi": 60,
                    "time": 27.565086000000026,
                    "velocity": 0.33070866141732286,
                    "duration": 0.3994940000000007
                },
                {
                    "name": "F2",
                    "midi": 41,
                    "time": 27.964580000000026,
                    "velocity": 0.4881889763779528,
                    "duration": 0.3994940000000007
                },
                {
                    "name": "C4",
                    "midi": 60,
                    "time": 28.364074000000027,
                    "velocity": 0.33070866141732286,
                    "duration": 0.3994940000000007
                },
                {
                    "name": "A#2",
                    "midi": 46,
                    "time": 28.763568000000028,
                    "velocity": 0.4881889763779528,
                    "duration": 0.3994940000000007
                },
                {
                    "name": "A#3",
                    "midi": 58,
                    "time": 29.16306200000003,
                    "velocity": 0.33070866141732286,
                    "duration": 0.3994940000000007
                },
                {
                    "name": "D#2",
                    "midi": 39,
                    "time": 29.56255600000003,
                    "velocity": 0.4881889763779528,
                    "duration": 0.3994940000000007
                },
                {
                    "name": "A#3",
                    "midi": 58,
                    "time": 29.96205000000003,
                    "velocity": 0.33070866141732286,
                    "duration": 0.3994940000000007
                },
                {
                    "name": "A2",
                    "midi": 45,
                    "time": 30.36154400000003,
                    "velocity": 0.5118110236220472,
                    "duration": 0.3994940000000007
                },
                {
                    "name": "A3",
                    "midi": 57,
                    "time": 30.76103800000003,
                    "velocity": 0.33070866141732286,
                    "duration": 0.3994940000000007
                },
                {
                    "name": "D3",
                    "midi": 50,
                    "time": 31.160532000000032,
                    "velocity": 0.5275590551181102,
                    "duration": 0.3994940000000007
                },
                {
                    "name": "A3",
                    "midi": 57,
                    "time": 31.560026000000033,
                    "velocity": 0.33070866141732286,
                    "duration": 0.3994940000000007
                },
                {
                    "name": "D2",
                    "midi": 38,
                    "time": 31.959520000000033,
                    "velocity": 0.5354330708661418,
                    "duration": 0.39949399999999713
                },
                {
                    "name": "D3",
                    "midi": 50,
                    "time": 31.959520000000033,
                    "velocity": 0.5354330708661418,
                    "duration": 0.39949399999999713
                },
                {
                    "name": "A3",
                    "midi": 57,
                    "time": 32.35901400000003,
                    "velocity": 0.33070866141732286,
                    "duration": 0.39949399999999713
                },
                {
                    "name": "D3",
                    "midi": 50,
                    "time": 32.75850800000003,
                    "velocity": 0.3464566929133858,
                    "duration": 0.19974700000000212
                },
                {
                    "name": "G3",
                    "midi": 55,
                    "time": 32.75850800000003,
                    "velocity": 0.3779527559055118,
                    "duration": 0.19974700000000212
                },
                {
                    "name": "E4",
                    "midi": 64,
                    "time": 32.75850800000003,
                    "velocity": 0.4330708661417323,
                    "duration": 0.19974700000000212
                },
                {
                    "name": "D3",
                    "midi": 50,
                    "time": 33.15800200000003,
                    "velocity": 0.3700787401574803,
                    "duration": 0.19974700000000212
                },
                {
                    "name": "A3",
                    "midi": 57,
                    "time": 33.15800200000003,
                    "velocity": 0.3937007874015748,
                    "duration": 0.19974700000000212
                },
                {
                    "name": "F#4",
                    "midi": 66,
                    "time": 33.15800200000003,
                    "velocity": 0.4330708661417323,
                    "duration": 0.19974700000000212
                },
                {
                    "name": "D3",
                    "midi": 50,
                    "time": 33.557496000000036,
                    "velocity": 0.33070866141732286,
                    "duration": 0.19974700000000212
                },
                {
                    "name": "A#3",
                    "midi": 58,
                    "time": 33.557496000000036,
                    "velocity": 0.3700787401574803,
                    "duration": 0.19974700000000212
                },
                {
                    "name": "G4",
                    "midi": 67,
                    "time": 33.557496000000036,
                    "velocity": 0.4094488188976378,
                    "duration": 0.19974700000000212
                },
                {
                    "name": "G4",
                    "midi": 67,
                    "time": 33.95699000000004,
                    "velocity": 0.48031496062992124,
                    "duration": 0.09987350000000106
                },
                {
                    "name": "E4",
                    "midi": 64,
                    "time": 34.05686350000004,
                    "velocity": 0.5196850393700787,
                    "duration": 0.09987350000000106
                },
                {
                    "name": "C#4",
                    "midi": 61,
                    "time": 34.15673700000004,
                    "velocity": 0.4330708661417323,
                    "duration": 0.09987350000000106
                },
                {
                    "name": "A#3",
                    "midi": 58,
                    "time": 34.25661050000004,
                    "velocity": 0.4330708661417323,
                    "duration": 0.09987350000000106
                },
                {
                    "name": "D3",
                    "midi": 50,
                    "time": 34.356484000000044,
                    "velocity": 0.3464566929133858,
                    "duration": 0.19974700000000212
                },
                {
                    "name": "G3",
                    "midi": 55,
                    "time": 34.356484000000044,
                    "velocity": 0.3779527559055118,
                    "duration": 0.19974700000000212
                },
                {
                    "name": "E4",
                    "midi": 64,
                    "time": 34.356484000000044,
                    "velocity": 0.4330708661417323,
                    "duration": 0.19974700000000212
                },
                {
                    "name": "D3",
                    "midi": 50,
                    "time": 34.75597800000005,
                    "velocity": 0.3700787401574803,
                    "duration": 0.19974700000000212
                },
                {
                    "name": "A3",
                    "midi": 57,
                    "time": 34.75597800000005,
                    "velocity": 0.3937007874015748,
                    "duration": 0.19974700000000212
                },
                {
                    "name": "F#4",
                    "midi": 66,
                    "time": 34.75597800000005,
                    "velocity": 0.4330708661417323,
                    "duration": 0.19974700000000212
                },
                {
                    "name": "D3",
                    "midi": 50,
                    "time": 35.15547200000005,
                    "velocity": 0.33070866141732286,
                    "duration": 0.19974700000000212
                },
                {
                    "name": "A#3",
                    "midi": 58,
                    "time": 35.15547200000005,
                    "velocity": 0.3700787401574803,
                    "duration": 0.19974700000000212
                },
                {
                    "name": "G4",
                    "midi": 67,
                    "time": 35.15547200000005,
                    "velocity": 0.4094488188976378,
                    "duration": 0.19974700000000212
                },
                {
                    "name": "G4",
                    "midi": 67,
                    "time": 35.55496600000006,
                    "velocity": 0.48031496062992124,
                    "duration": 0.09987350000000106
                },
                {
                    "name": "E4",
                    "midi": 64,
                    "time": 35.65483950000006,
                    "velocity": 0.5196850393700787,
                    "duration": 0.09987350000000106
                },
                {
                    "name": "C#4",
                    "midi": 61,
                    "time": 35.75471300000006,
                    "velocity": 0.4330708661417323,
                    "duration": 0.09987350000000106
                },
                {
                    "name": "A#3",
                    "midi": 58,
                    "time": 35.85458650000006,
                    "velocity": 0.4330708661417323,
                    "duration": 0.09987350000000106
                },
                {
                    "name": "D3",
                    "midi": 50,
                    "time": 35.90452325000006,
                    "velocity": 0.3464566929133858,
                    "duration": 0.39949399999999713
                },
                {
                    "name": "B3",
                    "midi": 59,
                    "time": 35.95446000000006,
                    "velocity": 0.4881889763779528,
                    "duration": 0.3495572499999966
                },
                {
                    "name": "D3",
                    "midi": 50,
                    "time": 36.30401725000006,
                    "velocity": 0.3700787401574803,
                    "duration": 0.39949399999999713
                },
                {
                    "name": "C4",
                    "midi": 60,
                    "time": 36.35395400000006,
                    "velocity": 0.4566929133858268,
                    "duration": 0.3495572499999966
                },
                {
                    "name": "D3",
                    "midi": 50,
                    "time": 36.703511250000055,
                    "velocity": 0.33070866141732286,
                    "duration": 0.44943074999999766
                },
                {
                    "name": "D4",
                    "midi": 62,
                    "time": 36.753448000000056,
                    "velocity": 0.4094488188976378,
                    "duration": 0.39949399999999713
                },
                {
                    "name": "D4",
                    "midi": 62,
                    "time": 37.15294200000005,
                    "velocity": 0.44881889763779526,
                    "duration": 0.07989880000000227
                },
                {
                    "name": "B3",
                    "midi": 59,
                    "time": 37.232840800000055,
                    "velocity": 0.4409448818897638,
                    "duration": 0.07989880000000227
                },
                {
                    "name": "G#3",
                    "midi": 56,
                    "time": 37.31273960000006,
                    "velocity": 0.4330708661417323,
                    "duration": 0.07989880000000227
                },
                {
                    "name": "F3",
                    "midi": 53,
                    "time": 37.39263840000006,
                    "velocity": 0.4330708661417323,
                    "duration": 0.07989880000000227
                },
                {
                    "name": "D3",
                    "midi": 50,
                    "time": 37.47253720000006,
                    "velocity": 0.4330708661417323,
                    "duration": 0.07989880000000227
                },
                {
                    "name": "D2",
                    "midi": 38,
                    "time": 37.552436000000064,
                    "velocity": 0.3464566929133858,
                    "duration": 0.39949399999999713
                },
                {
                    "name": "D3",
                    "midi": 50,
                    "time": 37.552436000000064,
                    "velocity": 0.4330708661417323,
                    "duration": 0.39949399999999713
                },
                {
                    "name": "D2",
                    "midi": 38,
                    "time": 37.95193000000006,
                    "velocity": 0.3700787401574803,
                    "duration": 0.39949399999999713
                },
                {
                    "name": "D3",
                    "midi": 50,
                    "time": 37.95193000000006,
                    "velocity": 0.4330708661417323,
                    "duration": 0.39949399999999713
                },
                {
                    "name": "G2",
                    "midi": 43,
                    "time": 38.35142400000006,
                    "velocity": 0.33070866141732286,
                    "duration": 0.39949400000000423
                },
                {
                    "name": "D3",
                    "midi": 50,
                    "time": 38.35142400000006,
                    "velocity": 0.4094488188976378,
                    "duration": 0.2996205000000032
                },
                {
                    "name": "G2",
                    "midi": 43,
                    "time": 38.75091800000006,
                    "velocity": 0.6456692913385826,
                    "duration": 0.19974700000000212
                },
                {
                    "name": "G3",
                    "midi": 55,
                    "time": 38.950665000000065,
                    "velocity": 0.47244094488188976,
                    "duration": 0.11984819999999985
                },
                {
                    "name": "F#3",
                    "midi": 54,
                    "time": 39.050538500000066,
                    "velocity": 0.36220472440944884,
                    "duration": 0.09987350000000106
                },
                {
                    "name": "G3",
                    "midi": 55,
                    "time": 39.15041200000007,
                    "velocity": 0.5354330708661418,
                    "duration": 0.11984819999999985
                },
                {
                    "name": "G#3",
                    "midi": 56,
                    "time": 39.25028550000007,
                    "velocity": 0.3937007874015748,
                    "duration": 0.09987350000000106
                },
                {
                    "name": "F3",
                    "midi": 53,
                    "time": 39.35015900000007,
                    "velocity": 0.4566929133858268,
                    "duration": 0.11984819999999985
                },
                {
                    "name": "G3",
                    "midi": 55,
                    "time": 39.45003250000007,
                    "velocity": 0.3858267716535433,
                    "duration": 0.09987350000000106
                },
                {
                    "name": "D#3",
                    "midi": 51,
                    "time": 39.54990600000007,
                    "velocity": 0.47244094488188976,
                    "duration": 0.11984819999999985
                },
                {
                    "name": "F3",
                    "midi": 53,
                    "time": 39.64977950000007,
                    "velocity": 0.3937007874015748,
                    "duration": 0.09987350000000106
                },
                {
                    "name": "D3",
                    "midi": 50,
                    "time": 39.74965300000007,
                    "velocity": 0.4409448818897638,
                    "duration": 0.11984819999999985
                },
                {
                    "name": "D#3",
                    "midi": 51,
                    "time": 39.849526500000074,
                    "velocity": 0.3779527559055118,
                    "duration": 0.09987350000000106
                },
                {
                    "name": "C3",
                    "midi": 48,
                    "time": 39.949400000000075,
                    "velocity": 0.47244094488188976,
                    "duration": 0.09987350000000106
                },
                {
                    "name": "D3",
                    "midi": 50,
                    "time": 40.049273500000076,
                    "velocity": 0.4015748031496063,
                    "duration": 0.09987350000000106
                },
                {
                    "name": "D#3",
                    "midi": 51,
                    "time": 40.14914700000008,
                    "velocity": 0.4015748031496063,
                    "duration": 0.09987350000000106
                },
                {
                    "name": "G3",
                    "midi": 55,
                    "time": 40.24902050000008,
                    "velocity": 0.44881889763779526,
                    "duration": 0.09987350000000106
                },
                {
                    "name": "C4",
                    "midi": 60,
                    "time": 40.34889400000008,
                    "velocity": 0.4409448818897638,
                    "duration": 0.09987350000000106
                },
                {
                    "name": "D4",
                    "midi": 62,
                    "time": 40.44876750000008,
                    "velocity": 0.47244094488188976,
                    "duration": 0.09987350000000106
                },
                {
                    "name": "D#4",
                    "midi": 63,
                    "time": 40.54864100000008,
                    "velocity": 0.5118110236220472,
                    "duration": 0.09987350000000106
                },
                {
                    "name": "B3",
                    "midi": 59,
                    "time": 40.64851450000008,
                    "velocity": 0.4409448818897638,
                    "duration": 0.09987350000000106
                },
                {
                    "name": "C4",
                    "midi": 60,
                    "time": 40.748388000000084,
                    "velocity": 0.5275590551181102,
                    "duration": 0.11984819999999985
                },
                {
                    "name": "B3",
                    "midi": 59,
                    "time": 40.848261500000085,
                    "velocity": 0.4015748031496063,
                    "duration": 0.09987350000000106
                },
                {
                    "name": "C4",
                    "midi": 60,
                    "time": 40.948135000000086,
                    "velocity": 0.4645669291338583,
                    "duration": 0.11984819999999985
                },
                {
                    "name": "G3",
                    "midi": 55,
                    "time": 41.04800850000009,
                    "velocity": 0.4015748031496063,
                    "duration": 0.09987350000000106
                },
                {
                    "name": "G#3",
                    "midi": 56,
                    "time": 41.14788200000009,
                    "velocity": 0.47244094488188976,
                    "duration": 0.11984819999999985
                },
                {
                    "name": "G3",
                    "midi": 55,
                    "time": 41.24775550000009,
                    "velocity": 0.3779527559055118,
                    "duration": 0.09987350000000106
                },
                {
                    "name": "G#3",
                    "midi": 56,
                    "time": 41.34762900000009,
                    "velocity": 0.4251968503937008,
                    "duration": 0.11984819999999985
                },
                {
                    "name": "E3",
                    "midi": 52,
                    "time": 41.44750250000009,
                    "velocity": 0.3700787401574803,
                    "duration": 0.09987350000000106
                },
                {
                    "name": "F3",
                    "midi": 53,
                    "time": 41.54737600000009,
                    "velocity": 0.4566929133858268,
                    "duration": 0.11984819999999985
                },
                {
                    "name": "E3",
                    "midi": 52,
                    "time": 41.64724950000009,
                    "velocity": 0.3937007874015748,
                    "duration": 0.09987350000000106
                },
                {
                    "name": "F3",
                    "midi": 53,
                    "time": 41.747123000000094,
                    "velocity": 0.4251968503937008,
                    "duration": 0.11984819999999985
                },
                {
                    "name": "D3",
                    "midi": 50,
                    "time": 41.846996500000095,
                    "velocity": 0.3779527559055118,
                    "duration": 0.09987350000000106
                },
                {
                    "name": "G3",
                    "midi": 55,
                    "time": 41.9468700000001,
                    "velocity": 0.44881889763779526,
                    "duration": 0.09987350000000106
                },
                {
                    "name": "F3",
                    "midi": 53,
                    "time": 42.0467435000001,
                    "velocity": 0.4409448818897638,
                    "duration": 0.09987350000000106
                },
                {
                    "name": "D#3",
                    "midi": 51,
                    "time": 42.1466170000001,
                    "velocity": 0.4330708661417323,
                    "duration": 0.09987350000000106
                },
                {
                    "name": "D3",
                    "midi": 50,
                    "time": 42.2464905000001,
                    "velocity": 0.4251968503937008,
                    "duration": 0.09987350000000106
                },
                {
                    "name": "D#3",
                    "midi": 51,
                    "time": 42.3463640000001,
                    "velocity": 0.4330708661417323,
                    "duration": 0.19974700000000212
                },
                {
                    "name": "D#3",
                    "midi": 51,
                    "time": 42.5461110000001,
                    "velocity": 0.41732283464566927,
                    "duration": 0.09987350000000106
                },
                {
                    "name": "D3",
                    "midi": 50,
                    "time": 42.745858000000105,
                    "velocity": 0.4645669291338583,
                    "duration": 0.09987350000000106
                },
                {
                    "name": "C3",
                    "midi": 48,
                    "time": 42.94560500000011,
                    "velocity": 0.41732283464566927,
                    "duration": 0.09987350000000106
                },
                {
                    "name": "A#2",
                    "midi": 46,
                    "time": 43.14535200000011,
                    "velocity": 0.4645669291338583,
                    "duration": 0.5992409999999992
                },
                {
                    "name": "A2",
                    "midi": 45,
                    "time": 43.74459300000011,
                    "velocity": 0.41732283464566927,
                    "duration": 0.19974700000000212
                },
                {
                    "name": "A#2",
                    "midi": 46,
                    "time": 43.94434000000011,
                    "velocity": 0.48031496062992124,
                    "duration": 0.19974700000000212
                },
                {
                    "name": "B2",
                    "midi": 47,
                    "time": 44.14408700000011,
                    "velocity": 0.4330708661417323,
                    "duration": 0.09987350000000106
                },
                {
                    "name": "C3",
                    "midi": 48,
                    "time": 44.343834000000115,
                    "velocity": 0.48031496062992124,
                    "duration": 0.09987350000000106
                },
                {
                    "name": "D3",
                    "midi": 50,
                    "time": 44.54358100000012,
                    "velocity": 0.4330708661417323,
                    "duration": 0.09987350000000106
                },
                {
                    "name": "D#3",
                    "midi": 51,
                    "time": 44.74332800000012,
                    "velocity": 0.5118110236220472,
                    "duration": 0.09987350000000106
                },
                {
                    "name": "C3",
                    "midi": 48,
                    "time": 44.94307500000012,
                    "velocity": 0.4330708661417323,
                    "duration": 0.09987350000000106
                },
                {
                    "name": "D3",
                    "midi": 50,
                    "time": 45.14282200000012,
                    "velocity": 0.4330708661417323,
                    "duration": 0.09987350000000106
                },
                {
                    "name": "F3",
                    "midi": 53,
                    "time": 45.342569000000125,
                    "velocity": 0.4566929133858268,
                    "duration": 0.11984819999999985
                },
                {
                    "name": "D3",
                    "midi": 50,
                    "time": 45.442442500000126,
                    "velocity": 0.4094488188976378,
                    "duration": 0.09987350000000106
                },
                {
                    "name": "D#3",
                    "midi": 51,
                    "time": 45.54231600000013,
                    "velocity": 0.5039370078740157,
                    "duration": 0.19974700000000212
                },
                {
                    "name": "D2",
                    "midi": 38,
                    "time": 45.74206300000013,
                    "velocity": 0.4330708661417323,
                    "duration": 0.09987350000000106
                },
                {
                    "name": "D3",
                    "midi": 50,
                    "time": 45.74206300000013,
                    "velocity": 0.4330708661417323,
                    "duration": 0.09987350000000106
                },
                {
                    "name": "C2",
                    "midi": 36,
                    "time": 45.94181000000013,
                    "velocity": 0.48031496062992124,
                    "duration": 0.09987350000000106
                },
                {
                    "name": "C3",
                    "midi": 48,
                    "time": 45.94181000000013,
                    "velocity": 0.48031496062992124,
                    "duration": 0.09987350000000106
                },
                {
                    "name": "A#1",
                    "midi": 34,
                    "time": 46.141557000000134,
                    "velocity": 0.4330708661417323,
                    "duration": 0.09987350000000106
                },
                {
                    "name": "A#2",
                    "midi": 46,
                    "time": 46.141557000000134,
                    "velocity": 0.4330708661417323,
                    "duration": 0.09987350000000106
                },
                {
                    "name": "A1",
                    "midi": 33,
                    "time": 46.341304000000136,
                    "velocity": 0.5196850393700787,
                    "duration": 0.5992409999999992
                },
                {
                    "name": "A2",
                    "midi": 45,
                    "time": 46.341304000000136,
                    "velocity": 0.5196850393700787,
                    "duration": 0.5992409999999992
                },
                {
                    "name": "A1",
                    "midi": 33,
                    "time": 46.940545000000135,
                    "velocity": 0.4409448818897638,
                    "duration": 0.19974700000000212
                },
                {
                    "name": "A2",
                    "midi": 45,
                    "time": 46.940545000000135,
                    "velocity": 0.4409448818897638,
                    "duration": 0.19974700000000212
                },
                {
                    "name": "A#1",
                    "midi": 34,
                    "time": 47.14029200000014,
                    "velocity": 0.48031496062992124,
                    "duration": 0.39949399999999713
                },
                {
                    "name": "A#2",
                    "midi": 46,
                    "time": 47.14029200000014,
                    "velocity": 0.48031496062992124,
                    "duration": 0.39949399999999713
                },
                {
                    "name": "C2",
                    "midi": 36,
                    "time": 47.539786000000134,
                    "velocity": 0.47244094488188976,
                    "duration": 0.39949399999999713
                },
                {
                    "name": "C3",
                    "midi": 48,
                    "time": 47.539786000000134,
                    "velocity": 0.47244094488188976,
                    "duration": 0.39949399999999713
                },
                {
                    "name": "D2",
                    "midi": 38,
                    "time": 47.93928000000013,
                    "velocity": 0.49606299212598426,
                    "duration": 0.39949399999999713
                },
                {
                    "name": "D3",
                    "midi": 50,
                    "time": 47.93928000000013,
                    "velocity": 0.49606299212598426,
                    "duration": 0.39949399999999713
                },
                {
                    "name": "G2",
                    "midi": 43,
                    "time": 48.33877400000013,
                    "velocity": 0.4251968503937008,
                    "duration": 0.19974700000000212
                },
                {
                    "name": "D3",
                    "midi": 50,
                    "time": 48.33877400000013,
                    "velocity": 0.5039370078740157,
                    "duration": 0.19974700000000212
                },
                {
                    "name": "G3",
                    "midi": 55,
                    "time": 48.53852100000013,
                    "velocity": 0.47244094488188976,
                    "duration": 0.11984819999999985
                },
                {
                    "name": "F#3",
                    "midi": 54,
                    "time": 48.63839450000013,
                    "velocity": 0.36220472440944884,
                    "duration": 0.09987350000000106
                },
                {
                    "name": "G3",
                    "midi": 55,
                    "time": 48.73826800000013,
                    "velocity": 0.5354330708661418,
                    "duration": 0.11984819999999985
                },
                {
                    "name": "G#3",
                    "midi": 56,
                    "time": 48.838141500000134,
                    "velocity": 0.3937007874015748,
                    "duration": 0.09987350000000106
                },
                {
                    "name": "F3",
                    "midi": 53,
                    "time": 48.938015000000135,
                    "velocity": 0.4566929133858268,
                    "duration": 0.11984819999999985
                },
                {
                    "name": "G3",
                    "midi": 55,
                    "time": 49.037888500000136,
                    "velocity": 0.3858267716535433,
                    "duration": 0.09987350000000106
                },
                {
                    "name": "D#3",
                    "midi": 51,
                    "time": 49.13776200000014,
                    "velocity": 0.47244094488188976,
                    "duration": 0.11984819999999985
                },
                {
                    "name": "F3",
                    "midi": 53,
                    "time": 49.23763550000014,
                    "velocity": 0.3937007874015748,
                    "duration": 0.09987350000000106
                },
                {
                    "name": "D3",
                    "midi": 50,
                    "time": 49.33750900000014,
                    "velocity": 0.4409448818897638,
                    "duration": 0.11984819999999985
                },
                {
                    "name": "D#3",
                    "midi": 51,
                    "time": 49.43738250000014,
                    "velocity": 0.3779527559055118,
                    "duration": 0.09987350000000106
                },
                {
                    "name": "C3",
                    "midi": 48,
                    "time": 49.53725600000014,
                    "velocity": 0.47244094488188976,
                    "duration": 0.09987350000000106
                },
                {
                    "name": "D3",
                    "midi": 50,
                    "time": 49.63712950000014,
                    "velocity": 0.4015748031496063,
                    "duration": 0.09987350000000106
                },
                {
                    "name": "D#3",
                    "midi": 51,
                    "time": 49.73700300000014,
                    "velocity": 0.4015748031496063,
                    "duration": 0.09987350000000106
                },
                {
                    "name": "G3",
                    "midi": 55,
                    "time": 49.836876500000145,
                    "velocity": 0.44881889763779526,
                    "duration": 0.09987350000000106
                },
                {
                    "name": "C4",
                    "midi": 60,
                    "time": 49.936750000000146,
                    "velocity": 0.4409448818897638,
                    "duration": 0.09987350000000106
                },
                {
                    "name": "D4",
                    "midi": 62,
                    "time": 50.03662350000015,
                    "velocity": 0.47244094488188976,
                    "duration": 0.09987350000000106
                },
                {
                    "name": "D#4",
                    "midi": 63,
                    "time": 50.13649700000015,
                    "velocity": 0.5118110236220472,
                    "duration": 0.09987350000000106
                },
                {
                    "name": "B3",
                    "midi": 59,
                    "time": 50.23637050000015,
                    "velocity": 0.4409448818897638,
                    "duration": 0.09987350000000106
                },
                {
                    "name": "C4",
                    "midi": 60,
                    "time": 50.33624400000015,
                    "velocity": 0.5275590551181102,
                    "duration": 0.11984819999999985
                },
                {
                    "name": "B3",
                    "midi": 59,
                    "time": 50.43611750000015,
                    "velocity": 0.4015748031496063,
                    "duration": 0.09987350000000106
                },
                {
                    "name": "C4",
                    "midi": 60,
                    "time": 50.53599100000015,
                    "velocity": 0.4645669291338583,
                    "duration": 0.11984819999999985
                },
                {
                    "name": "G3",
                    "midi": 55,
                    "time": 50.63586450000015,
                    "velocity": 0.4015748031496063,
                    "duration": 0.09987350000000106
                },
                {
                    "name": "G#3",
                    "midi": 56,
                    "time": 50.735738000000154,
                    "velocity": 0.47244094488188976,
                    "duration": 0.11984819999999985
                },
                {
                    "name": "G3",
                    "midi": 55,
                    "time": 50.835611500000155,
                    "velocity": 0.3779527559055118,
                    "duration": 0.09987350000000106
                },
                {
                    "name": "G#3",
                    "midi": 56,
                    "time": 50.935485000000156,
                    "velocity": 0.4251968503937008,
                    "duration": 0.11984819999999985
                },
                {
                    "name": "E3",
                    "midi": 52,
                    "time": 51.03535850000016,
                    "velocity": 0.3700787401574803,
                    "duration": 0.09987350000000106
                },
                {
                    "name": "F3",
                    "midi": 53,
                    "time": 51.13523200000016,
                    "velocity": 0.4566929133858268,
                    "duration": 0.11984819999999985
                },
                {
                    "name": "E3",
                    "midi": 52,
                    "time": 51.23510550000016,
                    "velocity": 0.3937007874015748,
                    "duration": 0.09987350000000106
                },
                {
                    "name": "F3",
                    "midi": 53,
                    "time": 51.33497900000016,
                    "velocity": 0.4251968503937008,
                    "duration": 0.11984819999999985
                },
                {
                    "name": "D3",
                    "midi": 50,
                    "time": 51.43485250000016,
                    "velocity": 0.3779527559055118,
                    "duration": 0.09987350000000106
                },
                {
                    "name": "G3",
                    "midi": 55,
                    "time": 51.53472600000016,
                    "velocity": 0.44881889763779526,
                    "duration": 0.09987350000000106
                },
                {
                    "name": "F3",
                    "midi": 53,
                    "time": 51.634599500000164,
                    "velocity": 0.4409448818897638,
                    "duration": 0.09987350000000106
                },
                {
                    "name": "D#3",
                    "midi": 51,
                    "time": 51.734473000000165,
                    "velocity": 0.4330708661417323,
                    "duration": 0.09987350000000106
                },
                {
                    "name": "D3",
                    "midi": 50,
                    "time": 51.834346500000166,
                    "velocity": 0.4251968503937008,
                    "duration": 0.09987350000000106
                },
                {
                    "name": "D#3",
                    "midi": 51,
                    "time": 51.93422000000017,
                    "velocity": 0.4330708661417323,
                    "duration": 0.19974700000000212
                },
                {
                    "name": "D#3",
                    "midi": 51,
                    "time": 52.13396700000017,
                    "velocity": 0.41732283464566927,
                    "duration": 0.09987350000000106
                },
                {
                    "name": "D3",
                    "midi": 50,
                    "time": 52.33371400000017,
                    "velocity": 0.4645669291338583,
                    "duration": 0.09987350000000106
                },
                {
                    "name": "C3",
                    "midi": 48,
                    "time": 52.53346100000017,
                    "velocity": 0.41732283464566927,
                    "duration": 0.09987350000000106
                },
                {
                    "name": "A#2",
                    "midi": 46,
                    "time": 52.733208000000175,
                    "velocity": 0.4645669291338583,
                    "duration": 0.5992409999999992
                },
                {
                    "name": "A2",
                    "midi": 45,
                    "time": 53.332449000000175,
                    "velocity": 0.41732283464566927,
                    "duration": 0.19974700000000212
                },
                {
                    "name": "A#2",
                    "midi": 46,
                    "time": 53.53219600000018,
                    "velocity": 0.48031496062992124,
                    "duration": 0.19974700000000212
                },
                {
                    "name": "B2",
                    "midi": 47,
                    "time": 53.73194300000018,
                    "velocity": 0.4330708661417323,
                    "duration": 0.09987350000000106
                },
                {
                    "name": "C3",
                    "midi": 48,
                    "time": 53.93169000000018,
                    "velocity": 0.48031496062992124,
                    "duration": 0.09987350000000106
                },
                {
                    "name": "D3",
                    "midi": 50,
                    "time": 54.13143700000018,
                    "velocity": 0.4330708661417323,
                    "duration": 0.09987350000000106
                },
                {
                    "name": "D#3",
                    "midi": 51,
                    "time": 54.331184000000185,
                    "velocity": 0.5118110236220472,
                    "duration": 0.09987350000000106
                },
                {
                    "name": "C3",
                    "midi": 48,
                    "time": 54.53093100000019,
                    "velocity": 0.4330708661417323,
                    "duration": 0.09987350000000106
                },
                {
                    "name": "D3",
                    "midi": 50,
                    "time": 54.73067800000019,
                    "velocity": 0.4330708661417323,
                    "duration": 0.09987350000000106
                },
                {
                    "name": "F3",
                    "midi": 53,
                    "time": 54.93042500000019,
                    "velocity": 0.4566929133858268,
                    "duration": 0.11984819999999985
                },
                {
                    "name": "D3",
                    "midi": 50,
                    "time": 55.03029850000019,
                    "velocity": 0.4094488188976378,
                    "duration": 0.09987350000000106
                },
                {
                    "name": "D#3",
                    "midi": 51,
                    "time": 55.130172000000194,
                    "velocity": 0.5039370078740157,
                    "duration": 0.19974700000000212
                },
                {
                    "name": "D2",
                    "midi": 38,
                    "time": 55.329919000000196,
                    "velocity": 0.4330708661417323,
                    "duration": 0.09987350000000106
                },
                {
                    "name": "D3",
                    "midi": 50,
                    "time": 55.329919000000196,
                    "velocity": 0.4330708661417323,
                    "duration": 0.09987350000000106
                },
                {
                    "name": "C2",
                    "midi": 36,
                    "time": 55.5296660000002,
                    "velocity": 0.48031496062992124,
                    "duration": 0.09987350000000106
                },
                {
                    "name": "C3",
                    "midi": 48,
                    "time": 55.5296660000002,
                    "velocity": 0.48031496062992124,
                    "duration": 0.09987350000000106
                },
                {
                    "name": "A#1",
                    "midi": 34,
                    "time": 55.7294130000002,
                    "velocity": 0.4330708661417323,
                    "duration": 0.09987350000000106
                },
                {
                    "name": "A#2",
                    "midi": 46,
                    "time": 55.7294130000002,
                    "velocity": 0.4330708661417323,
                    "duration": 0.09987350000000106
                },
                {
                    "name": "A1",
                    "midi": 33,
                    "time": 55.9291600000002,
                    "velocity": 0.5196850393700787,
                    "duration": 0.5992409999999992
                },
                {
                    "name": "A2",
                    "midi": 45,
                    "time": 55.9291600000002,
                    "velocity": 0.5196850393700787,
                    "duration": 0.5992409999999992
                },
                {
                    "name": "A1",
                    "midi": 33,
                    "time": 56.5284010000002,
                    "velocity": 0.4409448818897638,
                    "duration": 0.19974700000000212
                },
                {
                    "name": "A2",
                    "midi": 45,
                    "time": 56.5284010000002,
                    "velocity": 0.4409448818897638,
                    "duration": 0.19974700000000212
                },
                {
                    "name": "A#1",
                    "midi": 34,
                    "time": 56.7281480000002,
                    "velocity": 0.48031496062992124,
                    "duration": 0.39949399999999713
                },
                {
                    "name": "A#2",
                    "midi": 46,
                    "time": 56.7281480000002,
                    "velocity": 0.48031496062992124,
                    "duration": 0.39949399999999713
                },
                {
                    "name": "C2",
                    "midi": 36,
                    "time": 57.1276420000002,
                    "velocity": 0.47244094488188976,
                    "duration": 0.39949399999999713
                },
                {
                    "name": "C3",
                    "midi": 48,
                    "time": 57.1276420000002,
                    "velocity": 0.47244094488188976,
                    "duration": 0.39949399999999713
                },
                {
                    "name": "D2",
                    "midi": 38,
                    "time": 57.5271360000002,
                    "velocity": 0.49606299212598426,
                    "duration": 0.39949399999999713
                },
                {
                    "name": "D3",
                    "midi": 50,
                    "time": 57.5271360000002,
                    "velocity": 0.49606299212598426,
                    "duration": 0.39949399999999713
                },
                {
                    "name": "G2",
                    "midi": 43,
                    "time": 57.926630000000195,
                    "velocity": 0.4251968503937008,
                    "duration": 0.19974700000000212
                },
                {
                    "name": "D3",
                    "midi": 50,
                    "time": 57.926630000000195,
                    "velocity": 0.5039370078740157,
                    "duration": 0.19974700000000212
                },
                {
                    "name": "C2",
                    "midi": 36,
                    "time": 58.3261240000002,
                    "velocity": 0.5196850393700787,
                    "duration": 0.19974700000000212
                },
                {
                    "name": "C3",
                    "midi": 48,
                    "time": 58.5258710000002,
                    "velocity": 0.49606299212598426,
                    "duration": 0.39949399999999713
                },
                {
                    "name": "E3",
                    "midi": 52,
                    "time": 58.9253650000002,
                    "velocity": 0.5118110236220472,
                    "duration": 0.19974700000000212
                },
                {
                    "name": "F3",
                    "midi": 53,
                    "time": 59.1251120000002,
                    "velocity": 0.5511811023622047,
                    "duration": 0.9987350000000035
                },
                {
                    "name": "F2",
                    "midi": 41,
                    "time": 59.3248590000002,
                    "velocity": 0.49606299212598426,
                    "duration": 0.39949399999999713
                },
                {
                    "name": "G#2",
                    "midi": 44,
                    "time": 59.7243530000002,
                    "velocity": 0.49606299212598426,
                    "duration": 0.19974700000000212
                },
                {
                    "name": "A#2",
                    "midi": 46,
                    "time": 59.9241000000002,
                    "velocity": 0.5590551181102362,
                    "duration": 0.9987350000000106
                },
                {
                    "name": "F3",
                    "midi": 53,
                    "time": 60.123847000000204,
                    "velocity": 0.49606299212598426,
                    "duration": 0.19974700000000212
                },
                {
                    "name": "G3",
                    "midi": 55,
                    "time": 60.323594000000206,
                    "velocity": 0.5354330708661418,
                    "duration": 0.19974700000000212
                },
                {
                    "name": "A3",
                    "midi": 57,
                    "time": 60.52334100000021,
                    "velocity": 0.5433070866141733,
                    "duration": 0.19974700000000212
                },
                {
                    "name": "A#3",
                    "midi": 58,
                    "time": 60.72308800000021,
                    "velocity": 0.5511811023622047,
                    "duration": 0.9987350000000035
                },
                {
                    "name": "A#2",
                    "midi": 46,
                    "time": 60.92283500000021,
                    "velocity": 0.49606299212598426,
                    "duration": 0.39949399999999713
                },
                {
                    "name": "D3",
                    "midi": 50,
                    "time": 61.32232900000021,
                    "velocity": 0.49606299212598426,
                    "duration": 0.19974700000000212
                },
                {
                    "name": "D#3",
                    "midi": 51,
                    "time": 61.52207600000021,
                    "velocity": 0.5590551181102362,
                    "duration": 0.9987350000000106
                },
                {
                    "name": "B3",
                    "midi": 59,
                    "time": 61.721823000000214,
                    "velocity": 0.49606299212598426,
                    "duration": 0.19974700000000212
                },
                {
                    "name": "C4",
                    "midi": 60,
                    "time": 61.921570000000216,
                    "velocity": 0.5354330708661418,
                    "duration": 0.19974700000000212
                },
                {
                    "name": "D4",
                    "midi": 62,
                    "time": 62.12131700000022,
                    "velocity": 0.5433070866141733,
                    "duration": 0.19974700000000212
                },
                {
                    "name": "D#4",
                    "midi": 63,
                    "time": 62.32106400000022,
                    "velocity": 0.5511811023622047,
                    "duration": 0.9987350000000035
                },
                {
                    "name": "D#3",
                    "midi": 51,
                    "time": 62.52081100000022,
                    "velocity": 0.49606299212598426,
                    "duration": 0.39949399999999713
                },
                {
                    "name": "G3",
                    "midi": 55,
                    "time": 62.92030500000022,
                    "velocity": 0.49606299212598426,
                    "duration": 0.19974700000000212
                },
                {
                    "name": "G#3",
                    "midi": 56,
                    "time": 63.12005200000022,
                    "velocity": 0.5905511811023622,
                    "duration": 0.39949400000000423
                },
                {
                    "name": "D#4",
                    "midi": 63,
                    "time": 63.31979900000022,
                    "velocity": 0.5669291338582677,
                    "duration": 0.39949400000000423
                },
                {
                    "name": "C4",
                    "midi": 60,
                    "time": 63.31979900000022,
                    "velocity": 0.48031496062992124,
                    "duration": 0.39949400000000423
                },
                {
                    "name": "A3",
                    "midi": 57,
                    "time": 63.519546000000226,
                    "velocity": 0.5748031496062992,
                    "duration": 0.39949400000000423
                },
                {
                    "name": "F#4",
                    "midi": 66,
                    "time": 63.71929300000023,
                    "velocity": 0.5196850393700787,
                    "duration": 0.19974700000000212
                },
                {
                    "name": "D#4",
                    "midi": 63,
                    "time": 63.71929300000023,
                    "velocity": 0.4330708661417323,
                    "duration": 0.19974700000000212
                },
                {
                    "name": "C4",
                    "midi": 60,
                    "time": 63.71929300000023,
                    "velocity": 0.36220472440944884,
                    "duration": 0.19974700000000212
                },
                {
                    "name": "B3",
                    "midi": 59,
                    "time": 63.91904000000023,
                    "velocity": 0.3543307086614173,
                    "duration": 0.199746999999995
                },
                {
                    "name": "D4",
                    "midi": 62,
                    "time": 63.91904000000023,
                    "velocity": 0.3700787401574803,
                    "duration": 0.199746999999995
                },
                {
                    "name": "G4",
                    "midi": 67,
                    "time": 63.91904000000023,
                    "velocity": 0.49606299212598426,
                    "duration": 0.199746999999995
                },
                {
                    "name": "F4",
                    "midi": 65,
                    "time": 63.91904000000023,
                    "velocity": 0.4251968503937008,
                    "duration": 0.199746999999995
                },
                {
                    "name": "C4",
                    "midi": 60,
                    "time": 64.11878700000022,
                    "velocity": 0.3779527559055118,
                    "duration": 0.19974700000000212
                },
                {
                    "name": "D#4",
                    "midi": 63,
                    "time": 64.11878700000022,
                    "velocity": 0.3779527559055118,
                    "duration": 0.19974700000000212
                },
                {
                    "name": "G#4",
                    "midi": 68,
                    "time": 64.11878700000022,
                    "velocity": 0.44881889763779526,
                    "duration": 0.19974700000000212
                },
                {
                    "name": "D4",
                    "midi": 62,
                    "time": 64.31853400000023,
                    "velocity": 0.3543307086614173,
                    "duration": 0.19974700000000212
                },
                {
                    "name": "F4",
                    "midi": 65,
                    "time": 64.31853400000023,
                    "velocity": 0.3937007874015748,
                    "duration": 0.19974700000000212
                },
                {
                    "name": "G4",
                    "midi": 67,
                    "time": 64.31853400000023,
                    "velocity": 0.3937007874015748,
                    "duration": 0.19974700000000212
                },
                {
                    "name": "B4",
                    "midi": 71,
                    "time": 64.31853400000023,
                    "velocity": 0.47244094488188976,
                    "duration": 0.19974700000000212
                },
                {
                    "name": "D#4",
                    "midi": 63,
                    "time": 64.51828100000023,
                    "velocity": 0.4015748031496063,
                    "duration": 0.19974700000000212
                },
                {
                    "name": "G4",
                    "midi": 67,
                    "time": 64.51828100000023,
                    "velocity": 0.4015748031496063,
                    "duration": 0.19974700000000212
                },
                {
                    "name": "C5",
                    "midi": 72,
                    "time": 64.51828100000023,
                    "velocity": 0.48031496062992124,
                    "duration": 0.19974700000000212
                },
                {
                    "name": "G4",
                    "midi": 67,
                    "time": 64.71802800000023,
                    "velocity": 0.48031496062992124,
                    "duration": 0.19974700000000212
                },
                {
                    "name": "F4",
                    "midi": 65,
                    "time": 64.71802800000023,
                    "velocity": 0.48031496062992124,
                    "duration": 0.19974700000000212
                },
                {
                    "name": "D5",
                    "midi": 74,
                    "time": 64.71802800000023,
                    "velocity": 0.5669291338582677,
                    "duration": 0.19974700000000212
                },
                {
                    "name": "G3",
                    "midi": 55,
                    "time": 64.91777500000023,
                    "velocity": 0.4566929133858268,
                    "duration": 0.39949400000000423
                },
                {
                    "name": "G4",
                    "midi": 67,
                    "time": 64.91777500000023,
                    "velocity": 0.5590551181102362,
                    "duration": 0.39949400000000423
                },
                {
                    "name": "G3",
                    "midi": 55,
                    "time": 65.31726900000024,
                    "velocity": 0.4409448818897638,
                    "duration": 0.19974700000000212
                },
                {
                    "name": "G4",
                    "midi": 67,
                    "time": 65.31726900000024,
                    "velocity": 0.5433070866141733,
                    "duration": 0.39949400000000423
                },
                {
                    "name": "C4",
                    "midi": 60,
                    "time": 65.51701600000024,
                    "velocity": 0.4251968503937008,
                    "duration": 0.19974700000000212
                },
                {
                    "name": "D#4",
                    "midi": 63,
                    "time": 65.71676300000024,
                    "velocity": 0.5354330708661418,
                    "duration": 0.19974700000000212
                },
                {
                    "name": "A4",
                    "midi": 69,
                    "time": 65.91651000000024,
                    "velocity": 0.5433070866141733,
                    "duration": 0.19974700000000212
                },
                {
                    "name": "C5",
                    "midi": 72,
                    "time": 66.11625700000025,
                    "velocity": 0.5590551181102362,
                    "duration": 0.19974700000000212
                },
                {
                    "name": "F4",
                    "midi": 65,
                    "time": 66.31600400000025,
                    "velocity": 0.47244094488188976,
                    "duration": 0.19974700000000212
                },
                {
                    "name": "D4",
                    "midi": 62,
                    "time": 66.31600400000025,
                    "velocity": 0.3937007874015748,
                    "duration": 0.19974700000000212
                },
                {
                    "name": "B4",
                    "midi": 71,
                    "time": 66.31600400000025,
                    "velocity": 0.5826771653543307,
                    "duration": 0.19974700000000212
                },
                {
                    "name": "G3",
                    "midi": 55,
                    "time": 66.51575100000025,
                    "velocity": 0.4881889763779528,
                    "duration": 0.39949400000000423
                },
                {
                    "name": "G4",
                    "midi": 67,
                    "time": 66.51575100000025,
                    "velocity": 0.5748031496062992,
                    "duration": 0.39949400000000423
                },
                {
                    "name": "G3",
                    "midi": 55,
                    "time": 66.91524500000025,
                    "velocity": 0.4409448818897638,
                    "duration": 0.19974700000000212
                },
                {
                    "name": "G4",
                    "midi": 67,
                    "time": 66.91524500000025,
                    "velocity": 0.5433070866141733,
                    "duration": 0.39949400000000423
                },
                {
                    "name": "C4",
                    "midi": 60,
                    "time": 67.11499200000026,
                    "velocity": 0.4251968503937008,
                    "duration": 0.19974700000000212
                },
                {
                    "name": "D#4",
                    "midi": 63,
                    "time": 67.31473900000026,
                    "velocity": 0.5354330708661418,
                    "duration": 0.19974700000000212
                },
                {
                    "name": "A4",
                    "midi": 69,
                    "time": 67.51448600000026,
                    "velocity": 0.5669291338582677,
                    "duration": 0.19974700000000212
                },
                {
                    "name": "C5",
                    "midi": 72,
                    "time": 67.71423300000026,
                    "velocity": 0.5590551181102362,
                    "duration": 0.19974700000000212
                },
                {
                    "name": "D4",
                    "midi": 62,
                    "time": 67.91398000000027,
                    "velocity": 0.33070866141732286,
                    "duration": 0.19974700000000212
                },
                {
                    "name": "F4",
                    "midi": 65,
                    "time": 67.91398000000027,
                    "velocity": 0.41732283464566927,
                    "duration": 0.19974700000000212
                },
                {
                    "name": "B4",
                    "midi": 71,
                    "time": 67.91398000000027,
                    "velocity": 0.5511811023622047,
                    "duration": 0.19974700000000212
                },
                {
                    "name": "G3",
                    "midi": 55,
                    "time": 68.11372700000027,
                    "velocity": 0.5433070866141733,
                    "duration": 0.19974700000000212
                },
                {
                    "name": "D#4",
                    "midi": 63,
                    "time": 68.31347400000027,
                    "velocity": 0.33070866141732286,
                    "duration": 0.19974700000000212
                },
                {
                    "name": "G4",
                    "midi": 67,
                    "time": 68.31347400000027,
                    "velocity": 0.41732283464566927,
                    "duration": 0.19974700000000212
                },
                {
                    "name": "C5",
                    "midi": 72,
                    "time": 68.31347400000027,
                    "velocity": 0.5511811023622047,
                    "duration": 0.19974700000000212
                },
                {
                    "name": "G3",
                    "midi": 55,
                    "time": 68.51322100000027,
                    "velocity": 0.5433070866141733,
                    "duration": 0.19974700000000212
                },
                {
                    "name": "F4",
                    "midi": 65,
                    "time": 68.71296800000027,
                    "velocity": 0.44881889763779526,
                    "duration": 0.19974700000000212
                },
                {
                    "name": "G#4",
                    "midi": 68,
                    "time": 68.71296800000027,
                    "velocity": 0.5669291338582677,
                    "duration": 0.19974700000000212
                },
                {
                    "name": "G3",
                    "midi": 55,
                    "time": 68.91271500000028,
                    "velocity": 0.5275590551181102,
                    "duration": 0.19974700000000212
                },
                {
                    "name": "D#4",
                    "midi": 63,
                    "time": 69.11246200000028,
                    "velocity": 0.4251968503937008,
                    "duration": 0.39949400000000423
                },
                {
                    "name": "G4",
                    "midi": 67,
                    "time": 69.11246200000028,
                    "velocity": 0.5590551181102362,
                    "duration": 0.39949400000000423
                },
                {
                    "name": "G3",
                    "midi": 55,
                    "time": 69.31220900000028,
                    "velocity": 0.5511811023622047,
                    "duration": 0.39949400000000423
                },
                {
                    "name": "D4",
                    "midi": 62,
                    "time": 69.51195600000028,
                    "velocity": 0.4409448818897638,
                    "duration": 0.39949400000000423
                },
                {
                    "name": "F4",
                    "midi": 65,
                    "time": 69.51195600000028,
                    "velocity": 0.5748031496062992,
                    "duration": 0.39949400000000423
                },
                {
                    "name": "G3",
                    "midi": 55,
                    "time": 69.71170300000028,
                    "velocity": 0.5590551181102362,
                    "duration": 0.39949400000000423
                },
                {
                    "name": "C4",
                    "midi": 60,
                    "time": 69.91145000000029,
                    "velocity": 0.4251968503937008,
                    "duration": 0.39949400000000423
                },
                {
                    "name": "D#4",
                    "midi": 63,
                    "time": 69.91145000000029,
                    "velocity": 0.5826771653543307,
                    "duration": 0.39949400000000423
                },
                {
                    "name": "G3",
                    "midi": 55,
                    "time": 70.11119700000029,
                    "velocity": 0.5826771653543307,
                    "duration": 0.39949400000000423
                },
                {
                    "name": "B3",
                    "midi": 59,
                    "time": 70.31094400000029,
                    "velocity": 0.4094488188976378,
                    "duration": 0.19974700000000212
                },
                {
                    "name": "D4",
                    "midi": 62,
                    "time": 70.31094400000029,
                    "velocity": 0.5196850393700787,
                    "duration": 0.19974700000000212
                },
                {
                    "name": "G3",
                    "midi": 55,
                    "time": 70.51069100000029,
                    "velocity": 0.6850393700787402,
                    "duration": 0.39949400000000423
                },
                {
                    "name": "G2",
                    "midi": 43,
                    "time": 70.9101850000003,
                    "velocity": 0.5039370078740157,
                    "duration": 0.19974700000000212
                },
                {
                    "name": "G3",
                    "midi": 55,
                    "time": 70.9101850000003,
                    "velocity": 0.6299212598425197,
                    "duration": 0.19974700000000212
                },
                {
                    "name": "C2",
                    "midi": 36,
                    "time": 71.1099320000003,
                    "velocity": 0.5984251968503937,
                    "duration": 0.39949400000000423
                },
                {
                    "name": "C3",
                    "midi": 48,
                    "time": 71.1099320000003,
                    "velocity": 0.7086614173228346,
                    "duration": 0.39949400000000423
                },
                {
                    "name": "G3",
                    "midi": 55,
                    "time": 71.5094260000003,
                    "velocity": 0.5748031496062992,
                    "duration": 0.39949400000000423
                },
                {
                    "name": "G3",
                    "midi": 55,
                    "time": 71.90892000000031,
                    "velocity": 0.7007874015748031,
                    "duration": 0.39949400000000423
                },
                {
                    "name": "G2",
                    "midi": 43,
                    "time": 71.90892000000031,
                    "velocity": 0.5905511811023622,
                    "duration": 0.39949400000000423
                },
                {
                    "name": "G3",
                    "midi": 55,
                    "time": 72.30841400000031,
                    "velocity": 0.5905511811023622,
                    "duration": 0.39949400000000423
                },
                {
                    "name": "C4",
                    "midi": 60,
                    "time": 72.70790800000032,
                    "velocity": 0.6929133858267716,
                    "duration": 0.2912977083333317
                },
                {
                    "name": "C3",
                    "midi": 48,
                    "time": 72.70790800000032,
                    "velocity": 0.5826771653543307,
                    "duration": 0.39949400000000423
                },
                {
                    "name": "G3",
                    "midi": 55,
                    "time": 73.10740200000032,
                    "velocity": 0.5905511811023622,
                    "duration": 0.39949400000000423
                },
                {
                    "name": "G2",
                    "midi": 43,
                    "time": 73.50689600000032,
                    "velocity": 0.5905511811023622,
                    "duration": 0.39949400000000423
                },
                {
                    "name": "G3",
                    "midi": 55,
                    "time": 73.51272195416699,
                    "velocity": 0.7007874015748031,
                    "duration": 0.39949400000000423
                },
                {
                    "name": "G3",
                    "midi": 55,
                    "time": 73.90639000000033,
                    "velocity": 0.5984251968503937,
                    "duration": 0.39949400000000423
                },
                {
                    "name": "C2",
                    "midi": 36,
                    "time": 74.30588400000033,
                    "velocity": 0.5275590551181102,
                    "duration": 0.39949400000000423
                },
                {
                    "name": "C3",
                    "midi": 48,
                    "time": 74.30588400000033,
                    "velocity": 0.6220472440944882,
                    "duration": 0.39949400000000423
                },
                {
                    "name": "G3",
                    "midi": 55,
                    "time": 74.70537800000034,
                    "velocity": 0.44881889763779526,
                    "duration": 0.39949400000000423
                },
                {
                    "name": "F3",
                    "midi": 53,
                    "time": 75.10487200000034,
                    "velocity": 0.6456692913385826,
                    "duration": 0.39949400000000423
                },
                {
                    "name": "F2",
                    "midi": 41,
                    "time": 75.10487200000034,
                    "velocity": 0.5433070866141733,
                    "duration": 0.39949400000000423
                },
                {
                    "name": "F3",
                    "midi": 53,
                    "time": 75.50436600000035,
                    "velocity": 0.4881889763779528,
                    "duration": 0.39949400000000423
                },
                {
                    "name": "A#1",
                    "midi": 34,
                    "time": 75.90386000000035,
                    "velocity": 0.5748031496062992,
                    "duration": 0.39949400000000423
                },
                {
                    "name": "A#2",
                    "midi": 46,
                    "time": 75.90386000000035,
                    "velocity": 0.6771653543307087,
                    "duration": 0.39949400000000423
                },
                {
                    "name": "F3",
                    "midi": 53,
                    "time": 76.30335400000035,
                    "velocity": 0.48031496062992124,
                    "duration": 0.39949400000000423
                },
                {
                    "name": "D#3",
                    "midi": 51,
                    "time": 76.70284800000036,
                    "velocity": 0.7165354330708661,
                    "duration": 0.39949400000000423
                },
                {
                    "name": "D#2",
                    "midi": 39,
                    "time": 76.70284800000036,
                    "velocity": 0.6062992125984252,
                    "duration": 0.39949400000000423
                },
                {
                    "name": "D#3",
                    "midi": 51,
                    "time": 77.10234200000036,
                    "velocity": 0.47244094488188976,
                    "duration": 0.39949400000000423
                },
                {
                    "name": "G#1",
                    "midi": 32,
                    "time": 77.50183600000037,
                    "velocity": 0.5196850393700787,
                    "duration": 0.39949400000000423
                },
                {
                    "name": "G#2",
                    "midi": 44,
                    "time": 77.50183600000037,
                    "velocity": 0.6220472440944882,
                    "duration": 0.39949400000000423
                },
                {
                    "name": "D#3",
                    "midi": 51,
                    "time": 77.90133000000037,
                    "velocity": 0.44881889763779526,
                    "duration": 0.39949400000000423
                },
                {
                    "name": "D3",
                    "midi": 50,
                    "time": 78.30082400000038,
                    "velocity": 0.5984251968503937,
                    "duration": 0.39949400000000423
                },
                {
                    "name": "D2",
                    "midi": 38,
                    "time": 78.30082400000038,
                    "velocity": 0.5039370078740157,
                    "duration": 0.39949400000000423
                },
                {
                    "name": "D3",
                    "midi": 50,
                    "time": 78.70031800000038,
                    "velocity": 0.4409448818897638,
                    "duration": 0.39949400000000423
                },
                {
                    "name": "G1",
                    "midi": 31,
                    "time": 79.09981200000038,
                    "velocity": 0.48031496062992124,
                    "duration": 0.39949400000000423
                },
                {
                    "name": "G2",
                    "midi": 43,
                    "time": 79.09981200000038,
                    "velocity": 0.5669291338582677,
                    "duration": 0.39949400000000423
                },
                {
                    "name": "D3",
                    "midi": 50,
                    "time": 79.49930600000039,
                    "velocity": 0.4409448818897638,
                    "duration": 0.39949400000000423
                },
                {
                    "name": "G1",
                    "midi": 31,
                    "time": 79.89880000000039,
                    "velocity": 0.47244094488188976,
                    "duration": 0.39949400000000423
                },
                {
                    "name": "G2",
                    "midi": 43,
                    "time": 79.89880000000039,
                    "velocity": 0.5590551181102362,
                    "duration": 0.39949400000000423
                },
                {
                    "name": "D3",
                    "midi": 50,
                    "time": 80.2982940000004,
                    "velocity": 0.44881889763779526,
                    "duration": 0.39949400000000423
                },
                {
                    "name": "G2",
                    "midi": 43,
                    "time": 80.6478512500004,
                    "velocity": 0.3937007874015748,
                    "duration": 0.24968375000000265
                },
                {
                    "name": "C3",
                    "midi": 48,
                    "time": 80.6728196250004,
                    "velocity": 0.4409448818897638,
                    "duration": 0.22471537500000238
                },
                {
                    "name": "A3",
                    "midi": 57,
                    "time": 80.6977880000004,
                    "velocity": 0.49606299212598426,
                    "duration": 0.19974700000000212
                },
                {
                    "name": "G2",
                    "midi": 43,
                    "time": 81.0473452500004,
                    "velocity": 0.44881889763779526,
                    "duration": 0.24968375000000265
                },
                {
                    "name": "D3",
                    "midi": 50,
                    "time": 81.0723136250004,
                    "velocity": 0.48031496062992124,
                    "duration": 0.22471537500000238
                },
                {
                    "name": "B3",
                    "midi": 59,
                    "time": 81.0972820000004,
                    "velocity": 0.5196850393700787,
                    "duration": 0.19974700000000212
                },
                {
                    "name": "G2",
                    "midi": 43,
                    "time": 81.44683925000041,
                    "velocity": 0.41732283464566927,
                    "duration": 0.24968375000000265
                },
                {
                    "name": "D#3",
                    "midi": 51,
                    "time": 81.47180762500041,
                    "velocity": 0.4409448818897638,
                    "duration": 0.22471537500000238
                },
                {
                    "name": "C4",
                    "midi": 60,
                    "time": 81.49677600000041,
                    "velocity": 0.47244094488188976,
                    "duration": 0.19974700000000212
                },
                {
                    "name": "C4",
                    "midi": 60,
                    "time": 81.89627000000041,
                    "velocity": 0.4251968503937008,
                    "duration": 0.09987350000000106
                },
                {
                    "name": "A3",
                    "midi": 57,
                    "time": 81.99614350000041,
                    "velocity": 0.41732283464566927,
                    "duration": 0.09987350000000106
                },
                {
                    "name": "F#3",
                    "midi": 54,
                    "time": 82.09601700000042,
                    "velocity": 0.4094488188976378,
                    "duration": 0.09987350000000106
                },
                {
                    "name": "D#3",
                    "midi": 51,
                    "time": 82.19589050000042,
                    "velocity": 0.4094488188976378,
                    "duration": 0.09987350000000106
                },
                {
                    "name": "G2",
                    "midi": 43,
                    "time": 82.29576400000042,
                    "velocity": 0.3937007874015748,
                    "duration": 0.19974700000000212
                },
                {
                    "name": "C3",
                    "midi": 48,
                    "time": 82.29576400000042,
                    "velocity": 0.4251968503937008,
                    "duration": 0.19974700000000212
                },
                {
                    "name": "A3",
                    "midi": 57,
                    "time": 82.29576400000042,
                    "velocity": 0.49606299212598426,
                    "duration": 0.19974700000000212
                },
                {
                    "name": "G2",
                    "midi": 43,
                    "time": 82.69525800000042,
                    "velocity": 0.41732283464566927,
                    "duration": 0.19974700000000212
                },
                {
                    "name": "D3",
                    "midi": 50,
                    "time": 82.69525800000042,
                    "velocity": 0.44881889763779526,
                    "duration": 0.19974700000000212
                },
                {
                    "name": "B3",
                    "midi": 59,
                    "time": 82.69525800000042,
                    "velocity": 0.49606299212598426,
                    "duration": 0.19974700000000212
                },
                {
                    "name": "G2",
                    "midi": 43,
                    "time": 83.09475200000043,
                    "velocity": 0.3779527559055118,
                    "duration": 0.19974700000000212
                },
                {
                    "name": "D#3",
                    "midi": 51,
                    "time": 83.09475200000043,
                    "velocity": 0.41732283464566927,
                    "duration": 0.19974700000000212
                },
                {
                    "name": "C4",
                    "midi": 60,
                    "time": 83.09475200000043,
                    "velocity": 0.4645669291338583,
                    "duration": 0.19974700000000212
                },
                {
                    "name": "C4",
                    "midi": 60,
                    "time": 83.49424600000043,
                    "velocity": 0.4251968503937008,
                    "duration": 0.09987350000000106
                },
                {
                    "name": "A3",
                    "midi": 57,
                    "time": 83.59411950000043,
                    "velocity": 0.41732283464566927,
                    "duration": 0.09987350000000106
                },
                {
                    "name": "F#3",
                    "midi": 54,
                    "time": 83.69399300000043,
                    "velocity": 0.4094488188976378,
                    "duration": 0.09987350000000106
                },
                {
                    "name": "D#3",
                    "midi": 51,
                    "time": 83.79386650000043,
                    "velocity": 0.4094488188976378,
                    "duration": 0.09987350000000106
                },
                {
                    "name": "G2",
                    "midi": 43,
                    "time": 83.84380325000043,
                    "velocity": 0.33070866141732286,
                    "duration": 0.39949400000000423
                },
                {
                    "name": "E3",
                    "midi": 52,
                    "time": 83.89374000000043,
                    "velocity": 0.47244094488188976,
                    "duration": 0.3495572500000037
                },
                {
                    "name": "G2",
                    "midi": 43,
                    "time": 84.24329725000044,
                    "velocity": 0.3543307086614173,
                    "duration": 0.39949400000000423
                },
                {
                    "name": "F3",
                    "midi": 53,
                    "time": 84.29323400000044,
                    "velocity": 0.5196850393700787,
                    "duration": 0.3495572500000037
                },
                {
                    "name": "G2",
                    "midi": 43,
                    "time": 84.64279125000044,
                    "velocity": 0.31496062992125984,
                    "duration": 0.44943075000000476
                },
                {
                    "name": "G3",
                    "midi": 55,
                    "time": 84.69272800000044,
                    "velocity": 0.3937007874015748,
                    "duration": 0.39949400000000423
                },
                {
                    "name": "G3",
                    "midi": 55,
                    "time": 85.09222200000045,
                    "velocity": 0.4251968503937008,
                    "duration": 0.07989879999999516
                },
                {
                    "name": "E3",
                    "midi": 52,
                    "time": 85.17212080000044,
                    "velocity": 0.41732283464566927,
                    "duration": 0.07989879999999516
                },
                {
                    "name": "C#3",
                    "midi": 49,
                    "time": 85.25201960000044,
                    "velocity": 0.4094488188976378,
                    "duration": 0.07989879999999516
                },
                {
                    "name": "A#2",
                    "midi": 46,
                    "time": 85.33191840000043,
                    "velocity": 0.4094488188976378,
                    "duration": 0.07989879999999516
                },
                {
                    "name": "G2",
                    "midi": 43,
                    "time": 85.41181720000043,
                    "velocity": 0.4094488188976378,
                    "duration": 0.07989879999999516
                },
                {
                    "name": "G1",
                    "midi": 31,
                    "time": 85.49171600000042,
                    "velocity": 0.4566929133858268,
                    "duration": 0.39949400000000423
                },
                {
                    "name": "G2",
                    "midi": 43,
                    "time": 85.49171600000042,
                    "velocity": 0.5748031496062992,
                    "duration": 0.39949400000000423
                },
                {
                    "name": "G1",
                    "midi": 31,
                    "time": 85.89121000000043,
                    "velocity": 0.49606299212598426,
                    "duration": 0.39949400000000423
                },
                {
                    "name": "G2",
                    "midi": 43,
                    "time": 85.89121000000043,
                    "velocity": 0.5748031496062992,
                    "duration": 0.39949400000000423
                },
                {
                    "name": "C2",
                    "midi": 36,
                    "time": 86.29070400000043,
                    "velocity": 0.4409448818897638,
                    "duration": 0.39949400000000423
                },
                {
                    "name": "G2",
                    "midi": 43,
                    "time": 86.29070400000043,
                    "velocity": 0.5511811023622047,
                    "duration": 0.2996205000000032
                },
                {
                    "name": "C2",
                    "midi": 36,
                    "time": 86.69019800000044,
                    "velocity": 0.6377952755905512,
                    "duration": 0.19974700000000212
                },
                {
                    "name": "D#3",
                    "midi": 51,
                    "time": 86.88994500000044,
                    "velocity": 0.25196850393700787,
                    "duration": 0.17977229999999622
                },
                {
                    "name": "G3",
                    "midi": 55,
                    "time": 86.88994500000044,
                    "velocity": 0.2047244094488189,
                    "duration": 0.17977229999999622
                },
                {
                    "name": "D3",
                    "midi": 50,
                    "time": 87.08969200000044,
                    "velocity": 0.2992125984251969,
                    "duration": 0.37951929999999834
                },
                {
                    "name": "F3",
                    "midi": 53,
                    "time": 87.08969200000044,
                    "velocity": 0.25196850393700787,
                    "duration": 0.37951929999999834
                },
                {
                    "name": "C3",
                    "midi": 48,
                    "time": 87.48918600000044,
                    "velocity": 0.2755905511811024,
                    "duration": 0.37951929999999834
                },
                {
                    "name": "F3",
                    "midi": 53,
                    "time": 87.48918600000044,
                    "velocity": 0.2283464566929134,
                    "duration": 0.37951929999999834
                },
                {
                    "name": "F3",
                    "midi": 53,
                    "time": 87.88868000000045,
                    "velocity": 0.2677165354330709,
                    "duration": 0.37951929999999834
                },
                {
                    "name": "A#2",
                    "midi": 46,
                    "time": 87.88868000000045,
                    "velocity": 0.31496062992125984,
                    "duration": 0.37951929999999834
                },
                {
                    "name": "D#3",
                    "midi": 51,
                    "time": 88.48792100000044,
                    "velocity": 0.25984251968503935,
                    "duration": 0.19974700000000212
                },
                {
                    "name": "G3",
                    "midi": 55,
                    "time": 88.48792100000044,
                    "velocity": 0.2125984251968504,
                    "duration": 0.19974700000000212
                },
                {
                    "name": "D3",
                    "midi": 50,
                    "time": 88.68766800000044,
                    "velocity": 0.2992125984251969,
                    "duration": 0.37951929999999834
                },
                {
                    "name": "F3",
                    "midi": 53,
                    "time": 88.68766800000044,
                    "velocity": 0.25196850393700787,
                    "duration": 0.37951929999999834
                },
                {
                    "name": "C3",
                    "midi": 48,
                    "time": 89.08716200000045,
                    "velocity": 0.2755905511811024,
                    "duration": 0.37951929999999834
                },
                {
                    "name": "F3",
                    "midi": 53,
                    "time": 89.08716200000045,
                    "velocity": 0.2283464566929134,
                    "duration": 0.37951929999999834
                },
                {
                    "name": "F3",
                    "midi": 53,
                    "time": 89.48665600000045,
                    "velocity": 0.2677165354330709,
                    "duration": 0.37951929999999834
                },
                {
                    "name": "A#2",
                    "midi": 46,
                    "time": 89.48665600000045,
                    "velocity": 0.31496062992125984,
                    "duration": 0.37951929999999834
                },
                {
                    "name": "A#2",
                    "midi": 46,
                    "time": 90.08589700000044,
                    "velocity": 0.25984251968503935,
                    "duration": 0.19974700000000212
                },
                {
                    "name": "F3",
                    "midi": 53,
                    "time": 90.08589700000044,
                    "velocity": 0.30708661417322836,
                    "duration": 0.19974700000000212
                },
                {
                    "name": "D#2",
                    "midi": 39,
                    "time": 90.28564400000045,
                    "velocity": 0.28346456692913385,
                    "duration": 0.39949400000000423
                },
                {
                    "name": "D#3",
                    "midi": 51,
                    "time": 90.28564400000045,
                    "velocity": 0.33858267716535434,
                    "duration": 0.39949400000000423
                },
                {
                    "name": "D#3",
                    "midi": 51,
                    "time": 90.68513800000045,
                    "velocity": 0.2992125984251969,
                    "duration": 0.39949400000000423
                },
                {
                    "name": "G2",
                    "midi": 43,
                    "time": 90.68513800000045,
                    "velocity": 0.25196850393700787,
                    "duration": 0.39949400000000423
                },
                {
                    "name": "D3",
                    "midi": 50,
                    "time": 91.08463200000045,
                    "velocity": 0.36220472440944884,
                    "duration": 0.39949400000000423
                },
                {
                    "name": "A#2",
                    "midi": 46,
                    "time": 91.08463200000045,
                    "velocity": 0.30708661417322836,
                    "duration": 0.39949400000000423
                },
                {
                    "name": "A#2",
                    "midi": 46,
                    "time": 91.68387300000046,
                    "velocity": 0.2677165354330709,
                    "duration": 0.19974700000000212
                },
                {
                    "name": "D3",
                    "midi": 50,
                    "time": 91.68387300000046,
                    "velocity": 0.3228346456692913,
                    "duration": 0.19974700000000212
                },
                {
                    "name": "D#2",
                    "midi": 39,
                    "time": 91.88362000000046,
                    "velocity": 0.30708661417322836,
                    "duration": 0.39949400000000423
                },
                {
                    "name": "D#3",
                    "midi": 51,
                    "time": 91.88362000000046,
                    "velocity": 0.36220472440944884,
                    "duration": 0.39949400000000423
                },
                {
                    "name": "D#3",
                    "midi": 51,
                    "time": 92.28311400000047,
                    "velocity": 0.31496062992125984,
                    "duration": 0.39949400000000423
                },
                {
                    "name": "G2",
                    "midi": 43,
                    "time": 92.28311400000047,
                    "velocity": 0.2677165354330709,
                    "duration": 0.39949400000000423
                },
                {
                    "name": "D3",
                    "midi": 50,
                    "time": 92.68260800000047,
                    "velocity": 0.3779527559055118,
                    "duration": 0.39949400000000423
                },
                {
                    "name": "A#2",
                    "midi": 46,
                    "time": 92.68260800000047,
                    "velocity": 0.31496062992125984,
                    "duration": 0.39949400000000423
                },
                {
                    "name": "A#2",
                    "midi": 46,
                    "time": 93.28184900000048,
                    "velocity": 0.1889763779527559,
                    "duration": 0.19974700000000212
                },
                {
                    "name": "D3",
                    "midi": 50,
                    "time": 93.28184900000048,
                    "velocity": 0.2283464566929134,
                    "duration": 0.19974700000000212
                },
                {
                    "name": "A#2",
                    "midi": 46,
                    "time": 93.48159600000048,
                    "velocity": 0.2283464566929134,
                    "duration": 0.39949400000000423
                },
                {
                    "name": "C3",
                    "midi": 48,
                    "time": 93.48159600000048,
                    "velocity": 0.2755905511811024,
                    "duration": 0.39949400000000423
                },
                {
                    "name": "C3",
                    "midi": 48,
                    "time": 93.88109000000048,
                    "velocity": 0.2440944881889764,
                    "duration": 0.39949400000000423
                },
                {
                    "name": "A2",
                    "midi": 45,
                    "time": 93.88109000000048,
                    "velocity": 0.2047244094488189,
                    "duration": 0.39949400000000423
                },
                {
                    "name": "A#2",
                    "midi": 46,
                    "time": 94.28058400000049,
                    "velocity": 0.2755905511811024,
                    "duration": 0.39949400000000423
                },
                {
                    "name": "A2",
                    "midi": 45,
                    "time": 94.28058400000049,
                    "velocity": 0.2283464566929134,
                    "duration": 0.39949400000000423
                },
                {
                    "name": "A#2",
                    "midi": 46,
                    "time": 94.8798250000005,
                    "velocity": 0.2125984251968504,
                    "duration": 0.19974700000000212
                },
                {
                    "name": "D#2",
                    "midi": 39,
                    "time": 95.0795720000005,
                    "velocity": 0.2283464566929134,
                    "duration": 0.39949400000000423
                },
                {
                    "name": "A#2",
                    "midi": 46,
                    "time": 95.0795720000005,
                    "velocity": 0.2755905511811024,
                    "duration": 0.39949400000000423
                },
                {
                    "name": "F2",
                    "midi": 41,
                    "time": 95.4790660000005,
                    "velocity": 0.1968503937007874,
                    "duration": 0.39949400000000423
                },
                {
                    "name": "A2",
                    "midi": 45,
                    "time": 95.4790660000005,
                    "velocity": 0.23622047244094488,
                    "duration": 0.39949400000000423
                },
                {
                    "name": "A#2",
                    "midi": 46,
                    "time": 95.8785600000005,
                    "velocity": 0.28346456692913385,
                    "duration": 1.1984820000000127
                },
                {
                    "name": "A#1",
                    "midi": 34,
                    "time": 95.8785600000005,
                    "velocity": 0.23622047244094488,
                    "duration": 1.1984820000000127
                },
                {
                    "name": "G#3",
                    "midi": 56,
                    "time": 96.47780100000051,
                    "velocity": 0.2677165354330709,
                    "duration": 0.19974700000000212
                },
                {
                    "name": "C4",
                    "midi": 60,
                    "time": 96.47780100000051,
                    "velocity": 0.2204724409448819,
                    "duration": 0.19974700000000212
                },
                {
                    "name": "G3",
                    "midi": 55,
                    "time": 96.67754800000051,
                    "velocity": 0.2992125984251969,
                    "duration": 0.37951929999999834
                },
                {
                    "name": "A#3",
                    "midi": 58,
                    "time": 96.67754800000051,
                    "velocity": 0.25196850393700787,
                    "duration": 0.37951929999999834
                },
                {
                    "name": "F3",
                    "midi": 53,
                    "time": 97.07704200000052,
                    "velocity": 0.2755905511811024,
                    "duration": 0.37951929999999834
                },
                {
                    "name": "A#3",
                    "midi": 58,
                    "time": 97.07704200000052,
                    "velocity": 0.2283464566929134,
                    "duration": 0.37951929999999834
                },
                {
                    "name": "A#3",
                    "midi": 58,
                    "time": 97.47653600000052,
                    "velocity": 0.25196850393700787,
                    "duration": 0.37951929999999834
                },
                {
                    "name": "D#3",
                    "midi": 51,
                    "time": 97.47653600000052,
                    "velocity": 0.2992125984251969,
                    "duration": 0.37951929999999834
                },
                {
                    "name": "G#3",
                    "midi": 56,
                    "time": 98.07577700000051,
                    "velocity": 0.25196850393700787,
                    "duration": 0.19974700000000212
                },
                {
                    "name": "C4",
                    "midi": 60,
                    "time": 98.07577700000051,
                    "velocity": 0.2125984251968504,
                    "duration": 0.19974700000000212
                },
                {
                    "name": "G3",
                    "midi": 55,
                    "time": 98.27552400000052,
                    "velocity": 0.2992125984251969,
                    "duration": 0.37951929999999834
                },
                {
                    "name": "A#3",
                    "midi": 58,
                    "time": 98.27552400000052,
                    "velocity": 0.25196850393700787,
                    "duration": 0.37951929999999834
                },
                {
                    "name": "F3",
                    "midi": 53,
                    "time": 98.67501800000052,
                    "velocity": 0.25984251968503935,
                    "duration": 0.37951929999999834
                },
                {
                    "name": "A#3",
                    "midi": 58,
                    "time": 98.67501800000052,
                    "velocity": 0.2204724409448819,
                    "duration": 0.37951929999999834
                },
                {
                    "name": "A#3",
                    "midi": 58,
                    "time": 99.07451200000052,
                    "velocity": 0.25984251968503935,
                    "duration": 0.37951929999999834
                },
                {
                    "name": "D#3",
                    "midi": 51,
                    "time": 99.07451200000052,
                    "velocity": 0.30708661417322836,
                    "duration": 0.37951929999999834
                },
                {
                    "name": "D#3",
                    "midi": 51,
                    "time": 99.67375300000052,
                    "velocity": 0.2677165354330709,
                    "duration": 0.19974700000000212
                },
                {
                    "name": "A#3",
                    "midi": 58,
                    "time": 99.67375300000052,
                    "velocity": 0.2677165354330709,
                    "duration": 0.19974700000000212
                },
                {
                    "name": "C3",
                    "midi": 48,
                    "time": 99.87350000000052,
                    "velocity": 0.28346456692913385,
                    "duration": 0.39949400000000423
                },
                {
                    "name": "A#3",
                    "midi": 58,
                    "time": 99.87350000000052,
                    "velocity": 0.33858267716535434,
                    "duration": 0.39949400000000423
                },
                {
                    "name": "D3",
                    "midi": 50,
                    "time": 100.27299400000052,
                    "velocity": 0.2755905511811024,
                    "duration": 0.39949400000000423
                },
                {
                    "name": "A3",
                    "midi": 57,
                    "time": 100.27299400000052,
                    "velocity": 0.33070866141732286,
                    "duration": 0.39949400000000423
                },
                {
                    "name": "G3",
                    "midi": 55,
                    "time": 100.67248800000053,
                    "velocity": 0.3543307086614173,
                    "duration": 0.39949400000000423
                },
                {
                    "name": "G2",
                    "midi": 43,
                    "time": 100.67248800000053,
                    "velocity": 0.2992125984251969,
                    "duration": 0.39949400000000423
                },
                {
                    "name": "G2",
                    "midi": 43,
                    "time": 101.27172900000053,
                    "velocity": 0.1889763779527559,
                    "duration": 0.19974700000000212
                },
                {
                    "name": "D#3",
                    "midi": 51,
                    "time": 101.27172900000053,
                    "velocity": 0.2283464566929134,
                    "duration": 0.19974700000000212
                },
                {
                    "name": "G#2",
                    "midi": 44,
                    "time": 101.47147600000054,
                    "velocity": 0.2283464566929134,
                    "duration": 0.39949400000000423
                },
                {
                    "name": "D#3",
                    "midi": 51,
                    "time": 101.47147600000054,
                    "velocity": 0.2755905511811024,
                    "duration": 0.39949400000000423
                },
                {
                    "name": "A#2",
                    "midi": 46,
                    "time": 101.87097000000054,
                    "velocity": 0.2125984251968504,
                    "duration": 0.39949400000000423
                },
                {
                    "name": "D3",
                    "midi": 50,
                    "time": 101.87097000000054,
                    "velocity": 0.25196850393700787,
                    "duration": 0.39949400000000423
                },
                {
                    "name": "C3",
                    "midi": 48,
                    "time": 102.27046400000054,
                    "velocity": 0.2677165354330709,
                    "duration": 0.39949400000000423
                },
                {
                    "name": "C3",
                    "midi": 48,
                    "time": 102.86970500000055,
                    "velocity": 0.2283464566929134,
                    "duration": 0.19974700000000212
                },
                {
                    "name": "F2",
                    "midi": 41,
                    "time": 103.06945200000055,
                    "velocity": 0.2755905511811024,
                    "duration": 0.39949400000000423
                },
                {
                    "name": "A#2",
                    "midi": 46,
                    "time": 103.46894600000056,
                    "velocity": 0.25196850393700787,
                    "duration": 0.39949400000000423
                },
                {
                    "name": "G2",
                    "midi": 43,
                    "time": 103.86844000000056,
                    "velocity": 0.2677165354330709,
                    "duration": 0.39949400000000423
                },
                {
                    "name": "C3",
                    "midi": 48,
                    "time": 104.46768100000057,
                    "velocity": 0.2283464566929134,
                    "duration": 0.19974700000000212
                },
                {
                    "name": "F2",
                    "midi": 41,
                    "time": 104.66742800000057,
                    "velocity": 0.2755905511811024,
                    "duration": 0.39949400000000423
                },
                {
                    "name": "A#2",
                    "midi": 46,
                    "time": 105.06692200000057,
                    "velocity": 0.25196850393700787,
                    "duration": 0.39949400000000423
                },
                {
                    "name": "D#2",
                    "midi": 39,
                    "time": 105.46641600000058,
                    "velocity": 0.2677165354330709,
                    "duration": 0.39949400000000423
                },
                {
                    "name": "D#2",
                    "midi": 39,
                    "time": 106.06565700000058,
                    "velocity": 0.2283464566929134,
                    "duration": 0.19974700000000212
                },
                {
                    "name": "G#2",
                    "midi": 44,
                    "time": 106.26540400000059,
                    "velocity": 0.2755905511811024,
                    "duration": 0.7989879999999943
                },
                {
                    "name": "G2",
                    "midi": 43,
                    "time": 107.06439200000058,
                    "velocity": 0.2677165354330709,
                    "duration": 0.39949400000000423
                },
                {
                    "name": "D#2",
                    "midi": 39,
                    "time": 107.66363300000059,
                    "velocity": 0.2047244094488189,
                    "duration": 0.19974700000000212
                },
                {
                    "name": "D#3",
                    "midi": 51,
                    "time": 107.66363300000059,
                    "velocity": 0.2047244094488189,
                    "duration": 1.3982290000000148
                },
                {
                    "name": "D#4",
                    "midi": 63,
                    "time": 107.66363300000059,
                    "velocity": 0.2047244094488189,
                    "duration": 1.3982290000000148
                },
                {
                    "name": "C3",
                    "midi": 48,
                    "time": 107.86338000000059,
                    "velocity": 0.2677165354330709,
                    "duration": 0.39949400000000423
                },
                {
                    "name": "G#3",
                    "midi": 56,
                    "time": 107.86338000000059,
                    "velocity": 0.2440944881889764,
                    "duration": 0.7989880000000085
                },
                {
                    "name": "B2",
                    "midi": 47,
                    "time": 108.2628740000006,
                    "velocity": 0.25196850393700787,
                    "duration": 0.39949400000000423
                },
                {
                    "name": "A#2",
                    "midi": 46,
                    "time": 108.6623680000006,
                    "velocity": 0.23622047244094488,
                    "duration": 0.39949400000000423
                },
                {
                    "name": "G3",
                    "midi": 55,
                    "time": 108.6623680000006,
                    "velocity": 0.18110236220472442,
                    "duration": 0.39949400000000423
                }
            ],
            "controlChanges": {},
            "id": 2,
            "name": "Piano left",
            "instrumentNumber": 0,
            "instrument": "acoustic grand piano",
            "instrumentFamily": "piano",
            "channelNumber": 0,
            "isPercussion": false
        },
        {
            "startTime": 0,
            "duration": 0,
            "length": 0,
            "notes": [],
            "controlChanges": {
                "64": [
                    {
                        "number": 64,
                        "time": 0.8430987958333334,
                        "value": 1
                    },
                    {
                        "number": 64,
                        "time": 1.0220388166666667,
                        "value": 0
                    },
                    {
                        "number": 64,
                        "time": 1.2484187500000001,
                        "value": 1
                    },
                    {
                        "number": 64,
                        "time": 1.419035979166667,
                        "value": 0
                    },
                    {
                        "number": 64,
                        "time": 1.6504095875000002,
                        "value": 1
                    },
                    {
                        "number": 64,
                        "time": 2.3337107833333337,
                        "value": 0
                    },
                    {
                        "number": 64,
                        "time": 2.477695079166667,
                        "value": 1
                    },
                    {
                        "number": 64,
                        "time": 2.6300021666666673,
                        "value": 0
                    },
                    {
                        "number": 64,
                        "time": 2.873027683333334,
                        "value": 1
                    },
                    {
                        "number": 64,
                        "time": 3.0344898416666672,
                        "value": 0
                    },
                    {
                        "number": 64,
                        "time": 3.234236841666667,
                        "value": 1
                    },
                    {
                        "number": 64,
                        "time": 3.9333513416666674,
                        "value": 0
                    },
                    {
                        "number": 64,
                        "time": 4.0423799125,
                        "value": 1
                    },
                    {
                        "number": 64,
                        "time": 4.232971841666667,
                        "value": 0
                    },
                    {
                        "number": 64,
                        "time": 4.4418739125,
                        "value": 1
                    },
                    {
                        "number": 64,
                        "time": 4.614987979166667,
                        "value": 0
                    },
                    {
                        "number": 64,
                        "time": 4.8413679125,
                        "value": 1
                    },
                    {
                        "number": 64,
                        "time": 5.4888811041666665,
                        "value": 0
                    },
                    {
                        "number": 64,
                        "time": 5.6503432625,
                        "value": 1
                    },
                    {
                        "number": 64,
                        "time": 6.00239735,
                        "value": 0
                    },
                    {
                        "number": 64,
                        "time": 6.073141079166667,
                        "value": 1
                    },
                    {
                        "number": 64,
                        "time": 6.391904,
                        "value": 0
                    },
                    {
                        "number": 64,
                        "time": 6.44184075,
                        "value": 1
                    },
                    {
                        "number": 64,
                        "time": 6.791398,
                        "value": 0
                    },
                    {
                        "number": 64,
                        "time": 6.827186004166666,
                        "value": 1
                    },
                    {
                        "number": 64,
                        "time": 7.0710438,
                        "value": 0
                    },
                    {
                        "number": 64,
                        "time": 7.235002795833333,
                        "value": 1
                    },
                    {
                        "number": 64,
                        "time": 7.413942816666666,
                        "value": 0
                    },
                    {
                        "number": 64,
                        "time": 7.640322749999999,
                        "value": 1
                    },
                    {
                        "number": 64,
                        "time": 7.810939979166666,
                        "value": 0
                    },
                    {
                        "number": 64,
                        "time": 8.042313587499999,
                        "value": 1
                    },
                    {
                        "number": 64,
                        "time": 8.725614783333333,
                        "value": 0
                    },
                    {
                        "number": 64,
                        "time": 8.869599079166665,
                        "value": 1
                    },
                    {
                        "number": 64,
                        "time": 9.021906166666666,
                        "value": 0
                    },
                    {
                        "number": 64,
                        "time": 9.264931683333332,
                        "value": 1
                    },
                    {
                        "number": 64,
                        "time": 9.426393841666666,
                        "value": 0
                    },
                    {
                        "number": 64,
                        "time": 9.626140841666667,
                        "value": 1
                    },
                    {
                        "number": 64,
                        "time": 10.325255341666667,
                        "value": 0
                    },
                    {
                        "number": 64,
                        "time": 10.4342839125,
                        "value": 1
                    },
                    {
                        "number": 64,
                        "time": 10.624875841666666,
                        "value": 0
                    },
                    {
                        "number": 64,
                        "time": 10.8337779125,
                        "value": 1
                    },
                    {
                        "number": 64,
                        "time": 11.006891979166667,
                        "value": 0
                    },
                    {
                        "number": 64,
                        "time": 11.233271912500001,
                        "value": 1
                    },
                    {
                        "number": 64,
                        "time": 11.880785104166668,
                        "value": 0
                    },
                    {
                        "number": 64,
                        "time": 12.042247262500002,
                        "value": 1
                    },
                    {
                        "number": 64,
                        "time": 12.394301350000003,
                        "value": 0
                    },
                    {
                        "number": 64,
                        "time": 12.46504507916667,
                        "value": 1
                    },
                    {
                        "number": 64,
                        "time": 12.783808000000002,
                        "value": 0
                    },
                    {
                        "number": 64,
                        "time": 12.833744750000003,
                        "value": 1
                    },
                    {
                        "number": 64,
                        "time": 13.183302000000003,
                        "value": 0
                    },
                    {
                        "number": 64,
                        "time": 13.21909000416667,
                        "value": 1
                    },
                    {
                        "number": 64,
                        "time": 13.394700908333336,
                        "value": 0
                    },
                    {
                        "number": 64,
                        "time": 13.447966775000003,
                        "value": 1
                    },
                    {
                        "number": 64,
                        "time": 13.582796000000004,
                        "value": 0
                    },
                    {
                        "number": 64,
                        "time": 13.649378333333336,
                        "value": 1
                    },
                    {
                        "number": 64,
                        "time": 14.197018025000004,
                        "value": 0
                    },
                    {
                        "number": 64,
                        "time": 14.244457937500004,
                        "value": 1
                    },
                    {
                        "number": 64,
                        "time": 14.386777675000003,
                        "value": 0
                    },
                    {
                        "number": 64,
                        "time": 14.46750875416667,
                        "value": 1
                    },
                    {
                        "number": 64,
                        "time": 14.991012350000002,
                        "value": 0
                    },
                    {
                        "number": 64,
                        "time": 15.038452262500002,
                        "value": 1
                    },
                    {
                        "number": 64,
                        "time": 15.185765675000003,
                        "value": 0
                    },
                    {
                        "number": 64,
                        "time": 15.261503079166669,
                        "value": 1
                    },
                    {
                        "number": 64,
                        "time": 15.790832629166669,
                        "value": 0
                    },
                    {
                        "number": 64,
                        "time": 15.86573775416667,
                        "value": 1
                    },
                    {
                        "number": 64,
                        "time": 15.984753675000004,
                        "value": 0
                    },
                    {
                        "number": 64,
                        "time": 16.07047842916667,
                        "value": 1
                    },
                    {
                        "number": 64,
                        "time": 16.588988350000005,
                        "value": 0
                    },
                    {
                        "number": 64,
                        "time": 16.655570683333337,
                        "value": 1
                    },
                    {
                        "number": 64,
                        "time": 16.778748000000004,
                        "value": 0
                    },
                    {
                        "number": 64,
                        "time": 16.845330333333337,
                        "value": 1
                    },
                    {
                        "number": 64,
                        "time": 17.582729675000003,
                        "value": 0
                    },
                    {
                        "number": 64,
                        "time": 17.66346075416667,
                        "value": 1
                    },
                    {
                        "number": 64,
                        "time": 18.381717675000004,
                        "value": 0
                    },
                    {
                        "number": 64,
                        "time": 18.462448754166672,
                        "value": 1
                    },
                    {
                        "number": 64,
                        "time": 19.180705675000006,
                        "value": 0
                    },
                    {
                        "number": 64,
                        "time": 19.261436754166674,
                        "value": 1
                    },
                    {
                        "number": 64,
                        "time": 19.979693675000007,
                        "value": 0
                    },
                    {
                        "number": 64,
                        "time": 20.060424754166675,
                        "value": 1
                    },
                    {
                        "number": 64,
                        "time": 20.77868167500001,
                        "value": 0
                    },
                    {
                        "number": 64,
                        "time": 20.859412754166677,
                        "value": 1
                    },
                    {
                        "number": 64,
                        "time": 21.57766967500001,
                        "value": 0
                    },
                    {
                        "number": 64,
                        "time": 21.658400754166678,
                        "value": 1
                    },
                    {
                        "number": 64,
                        "time": 22.37665767500001,
                        "value": 0
                    },
                    {
                        "number": 64,
                        "time": 22.45738875416668,
                        "value": 1
                    },
                    {
                        "number": 64,
                        "time": 22.982556908333347,
                        "value": 0
                    },
                    {
                        "number": 64,
                        "time": 23.035822775000014,
                        "value": 1
                    },
                    {
                        "number": 64,
                        "time": 23.170652000000015,
                        "value": 0
                    },
                    {
                        "number": 64,
                        "time": 23.237234333333348,
                        "value": 1
                    },
                    {
                        "number": 64,
                        "time": 23.784874025000015,
                        "value": 0
                    },
                    {
                        "number": 64,
                        "time": 23.832313937500015,
                        "value": 1
                    },
                    {
                        "number": 64,
                        "time": 23.974633675000014,
                        "value": 0
                    },
                    {
                        "number": 64,
                        "time": 24.055364754166682,
                        "value": 1
                    },
                    {
                        "number": 64,
                        "time": 24.578868350000015,
                        "value": 0
                    },
                    {
                        "number": 64,
                        "time": 24.626308262500014,
                        "value": 1
                    },
                    {
                        "number": 64,
                        "time": 24.773621675000015,
                        "value": 0
                    },
                    {
                        "number": 64,
                        "time": 24.812738795833347,
                        "value": 1
                    },
                    {
                        "number": 64,
                        "time": 25.378688629166682,
                        "value": 0
                    },
                    {
                        "number": 64,
                        "time": 25.453593754166683,
                        "value": 1
                    },
                    {
                        "number": 64,
                        "time": 25.572609675000017,
                        "value": 0
                    },
                    {
                        "number": 64,
                        "time": 25.658334429166683,
                        "value": 1
                    },
                    {
                        "number": 64,
                        "time": 26.176844350000017,
                        "value": 0
                    },
                    {
                        "number": 64,
                        "time": 26.24342668333335,
                        "value": 1
                    },
                    {
                        "number": 64,
                        "time": 26.366604000000017,
                        "value": 0
                    },
                    {
                        "number": 64,
                        "time": 26.43318633333335,
                        "value": 1
                    },
                    {
                        "number": 64,
                        "time": 27.170585675000016,
                        "value": 0
                    },
                    {
                        "number": 64,
                        "time": 27.251316754166684,
                        "value": 1
                    },
                    {
                        "number": 64,
                        "time": 27.969573675000017,
                        "value": 0
                    },
                    {
                        "number": 64,
                        "time": 28.050304754166685,
                        "value": 1
                    },
                    {
                        "number": 64,
                        "time": 28.76856167500002,
                        "value": 0
                    },
                    {
                        "number": 64,
                        "time": 28.849292754166687,
                        "value": 1
                    },
                    {
                        "number": 64,
                        "time": 29.56754967500002,
                        "value": 0
                    },
                    {
                        "number": 64,
                        "time": 29.648280754166688,
                        "value": 1
                    },
                    {
                        "number": 64,
                        "time": 30.36653767500002,
                        "value": 0
                    },
                    {
                        "number": 64,
                        "time": 30.44726875416669,
                        "value": 1
                    },
                    {
                        "number": 64,
                        "time": 31.165525675000023,
                        "value": 0
                    },
                    {
                        "number": 64,
                        "time": 31.24625675416669,
                        "value": 1
                    },
                    {
                        "number": 64,
                        "time": 31.964513675000024,
                        "value": 0
                    },
                    {
                        "number": 64,
                        "time": 32.04524475416669,
                        "value": 1
                    },
                    {
                        "number": 64,
                        "time": 32.802618795833354,
                        "value": 1
                    },
                    {
                        "number": 64,
                        "time": 32.981558816666684,
                        "value": 0
                    },
                    {
                        "number": 64,
                        "time": 33.20793875000002,
                        "value": 1
                    },
                    {
                        "number": 64,
                        "time": 33.378555979166684,
                        "value": 0
                    },
                    {
                        "number": 64,
                        "time": 33.60992958750002,
                        "value": 1
                    },
                    {
                        "number": 64,
                        "time": 34.29323078333335,
                        "value": 0
                    },
                    {
                        "number": 64,
                        "time": 34.437215079166684,
                        "value": 1
                    },
                    {
                        "number": 64,
                        "time": 34.58952216666668,
                        "value": 0
                    },
                    {
                        "number": 64,
                        "time": 34.83254768333335,
                        "value": 1
                    },
                    {
                        "number": 64,
                        "time": 34.99400984166669,
                        "value": 0
                    },
                    {
                        "number": 64,
                        "time": 35.19375684166669,
                        "value": 1
                    },
                    {
                        "number": 64,
                        "time": 35.89287134166669,
                        "value": 0
                    },
                    {
                        "number": 64,
                        "time": 36.00189991250002,
                        "value": 1
                    },
                    {
                        "number": 64,
                        "time": 36.19249184166669,
                        "value": 0
                    },
                    {
                        "number": 64,
                        "time": 36.40139391250002,
                        "value": 1
                    },
                    {
                        "number": 64,
                        "time": 36.57450797916668,
                        "value": 0
                    },
                    {
                        "number": 64,
                        "time": 36.800887912500016,
                        "value": 1
                    },
                    {
                        "number": 64,
                        "time": 37.41927133333335,
                        "value": 0
                    },
                    {
                        "number": 64,
                        "time": 37.60986326250001,
                        "value": 1
                    },
                    {
                        "number": 64,
                        "time": 37.961917350000014,
                        "value": 0
                    },
                    {
                        "number": 64,
                        "time": 38.03266107916668,
                        "value": 1
                    },
                    {
                        "number": 64,
                        "time": 38.351424000000016,
                        "value": 0
                    },
                    {
                        "number": 64,
                        "time": 38.401360750000016,
                        "value": 1
                    },
                    {
                        "number": 64,
                        "time": 38.75091800000001,
                        "value": 0
                    },
                    {
                        "number": 64,
                        "time": 38.78670600416668,
                        "value": 1
                    },
                    {
                        "number": 64,
                        "time": 38.97147197916668,
                        "value": 0
                    },
                    {
                        "number": 64,
                        "time": 40.02097600833335,
                        "value": 1
                    },
                    {
                        "number": 64,
                        "time": 40.35721679166668,
                        "value": 0
                    },
                    {
                        "number": 64,
                        "time": 40.420470008333346,
                        "value": 1
                    },
                    {
                        "number": 64,
                        "time": 40.74838800000001,
                        "value": 0
                    },
                    {
                        "number": 64,
                        "time": 42.01844600833335,
                        "value": 1
                    },
                    {
                        "number": 64,
                        "time": 42.346364000000015,
                        "value": 0
                    },
                    {
                        "number": 64,
                        "time": 43.15034567500002,
                        "value": 1
                    },
                    {
                        "number": 64,
                        "time": 43.55649790833335,
                        "value": 0
                    },
                    {
                        "number": 64,
                        "time": 43.61142833333335,
                        "value": 1
                    },
                    {
                        "number": 64,
                        "time": 43.94434000000002,
                        "value": 0
                    },
                    {
                        "number": 64,
                        "time": 46.37459516666669,
                        "value": 1
                    },
                    {
                        "number": 64,
                        "time": 46.749120791666684,
                        "value": 0
                    },
                    {
                        "number": 64,
                        "time": 46.850658850000016,
                        "value": 1
                    },
                    {
                        "number": 64,
                        "time": 47.14029200000002,
                        "value": 0
                    },
                    {
                        "number": 64,
                        "time": 47.21186800833335,
                        "value": 1
                    },
                    {
                        "number": 64,
                        "time": 47.54810879166668,
                        "value": 0
                    },
                    {
                        "number": 64,
                        "time": 47.59721326250001,
                        "value": 1
                    },
                    {
                        "number": 64,
                        "time": 47.93928000000001,
                        "value": 0
                    },
                    {
                        "number": 64,
                        "time": 48.01085600833334,
                        "value": 1
                    },
                    {
                        "number": 64,
                        "time": 48.34876135000001,
                        "value": 0
                    },
                    {
                        "number": 64,
                        "time": 48.559327979166675,
                        "value": 0
                    },
                    {
                        "number": 64,
                        "time": 49.608832008333344,
                        "value": 1
                    },
                    {
                        "number": 64,
                        "time": 49.945072791666675,
                        "value": 0
                    },
                    {
                        "number": 64,
                        "time": 50.00832600833334,
                        "value": 1
                    },
                    {
                        "number": 64,
                        "time": 50.33624400000001,
                        "value": 0
                    },
                    {
                        "number": 64,
                        "time": 51.606302008333344,
                        "value": 1
                    },
                    {
                        "number": 64,
                        "time": 51.93422000000001,
                        "value": 0
                    },
                    {
                        "number": 64,
                        "time": 52.73820167500001,
                        "value": 1
                    },
                    {
                        "number": 64,
                        "time": 53.14435390833334,
                        "value": 0
                    },
                    {
                        "number": 64,
                        "time": 53.199284333333345,
                        "value": 1
                    },
                    {
                        "number": 64,
                        "time": 53.53219600000001,
                        "value": 0
                    },
                    {
                        "number": 64,
                        "time": 55.96245116666668,
                        "value": 1
                    },
                    {
                        "number": 64,
                        "time": 56.33697679166668,
                        "value": 0
                    },
                    {
                        "number": 64,
                        "time": 56.43851485000001,
                        "value": 1
                    },
                    {
                        "number": 64,
                        "time": 56.72814800000001,
                        "value": 0
                    },
                    {
                        "number": 64,
                        "time": 56.79972400833334,
                        "value": 1
                    },
                    {
                        "number": 64,
                        "time": 57.13596479166667,
                        "value": 0
                    },
                    {
                        "number": 64,
                        "time": 57.18506926250001,
                        "value": 1
                    },
                    {
                        "number": 64,
                        "time": 57.527136000000006,
                        "value": 0
                    },
                    {
                        "number": 64,
                        "time": 57.59871200833334,
                        "value": 1
                    },
                    {
                        "number": 64,
                        "time": 57.936617350000006,
                        "value": 0
                    },
                    {
                        "number": 64,
                        "time": 58.32612400000001,
                        "value": 1
                    },
                    {
                        "number": 64,
                        "time": 58.535858350000005,
                        "value": 0
                    },
                    {
                        "number": 64,
                        "time": 58.59245333333334,
                        "value": 1
                    },
                    {
                        "number": 64,
                        "time": 59.12511200000001,
                        "value": 0
                    },
                    {
                        "number": 64,
                        "time": 59.21915954583334,
                        "value": 1
                    },
                    {
                        "number": 64,
                        "time": 59.336510908333345,
                        "value": 0
                    },
                    {
                        "number": 64,
                        "time": 59.418906545833345,
                        "value": 1
                    },
                    {
                        "number": 64,
                        "time": 59.92410000000001,
                        "value": 0
                    },
                    {
                        "number": 64,
                        "time": 60.00066968333334,
                        "value": 1
                    },
                    {
                        "number": 64,
                        "time": 60.35272377083334,
                        "value": 0
                    },
                    {
                        "number": 64,
                        "time": 60.400163683333346,
                        "value": 1
                    },
                    {
                        "number": 64,
                        "time": 60.72308800000001,
                        "value": 0
                    },
                    {
                        "number": 64,
                        "time": 60.80381907916668,
                        "value": 1
                    },
                    {
                        "number": 64,
                        "time": 60.94197742083335,
                        "value": 0
                    },
                    {
                        "number": 64,
                        "time": 61.00356607916668,
                        "value": 1
                    },
                    {
                        "number": 64,
                        "time": 61.52207600000001,
                        "value": 0
                    },
                    {
                        "number": 64,
                        "time": 61.61029759166668,
                        "value": 1
                    },
                    {
                        "number": 64,
                        "time": 61.97483586666668,
                        "value": 0
                    },
                    {
                        "number": 64,
                        "time": 62.02726945416668,
                        "value": 1
                    },
                    {
                        "number": 64,
                        "time": 62.321064000000014,
                        "value": 0
                    },
                    {
                        "number": 64,
                        "time": 62.397633683333346,
                        "value": 1
                    },
                    {
                        "number": 64,
                        "time": 62.53079835000001,
                        "value": 0
                    },
                    {
                        "number": 64,
                        "time": 62.578238262500015,
                        "value": 1
                    },
                    {
                        "number": 64,
                        "time": 63.120052000000015,
                        "value": 0
                    },
                    {
                        "number": 64,
                        "time": 63.182472937500016,
                        "value": 1
                    },
                    {
                        "number": 64,
                        "time": 63.51039092916668,
                        "value": 0
                    },
                    {
                        "number": 64,
                        "time": 63.557830841666686,
                        "value": 1
                    },
                    {
                        "number": 64,
                        "time": 63.92320139583335,
                        "value": 0
                    },
                    {
                        "number": 64,
                        "time": 63.98978372916669,
                        "value": 1
                    },
                    {
                        "number": 64,
                        "time": 64.13043890833336,
                        "value": 0
                    },
                    {
                        "number": 64,
                        "time": 64.18370477500002,
                        "value": 1
                    },
                    {
                        "number": 64,
                        "time": 64.32768907083336,
                        "value": 0
                    },
                    {
                        "number": 64,
                        "time": 64.3892777291667,
                        "value": 1
                    },
                    {
                        "number": 64,
                        "time": 64.52993290833336,
                        "value": 0
                    },
                    {
                        "number": 64,
                        "time": 64.5890247291667,
                        "value": 1
                    },
                    {
                        "number": 64,
                        "time": 64.71802800000003,
                        "value": 0
                    },
                    {
                        "number": 64,
                        "time": 64.80042363750003,
                        "value": 1
                    },
                    {
                        "number": 64,
                        "time": 64.92776235000004,
                        "value": 0
                    },
                    {
                        "number": 64,
                        "time": 65.02930040833337,
                        "value": 1
                    },
                    {
                        "number": 64,
                        "time": 65.33141774583336,
                        "value": 0
                    },
                    {
                        "number": 64,
                        "time": 65.42879440833336,
                        "value": 1
                    },
                    {
                        "number": 64,
                        "time": 65.52367423333337,
                        "value": 0
                    },
                    {
                        "number": 64,
                        "time": 65.58359833333337,
                        "value": 1
                    },
                    {
                        "number": 64,
                        "time": 65.92566507083338,
                        "value": 0
                    },
                    {
                        "number": 64,
                        "time": 65.96394991250004,
                        "value": 1
                    },
                    {
                        "number": 64,
                        "time": 66.31600400000004,
                        "value": 0
                    },
                    {
                        "number": 64,
                        "time": 66.39839963750003,
                        "value": 1
                    },
                    {
                        "number": 64,
                        "time": 66.52573835000004,
                        "value": 0
                    },
                    {
                        "number": 64,
                        "time": 66.62727640833337,
                        "value": 1
                    },
                    {
                        "number": 64,
                        "time": 66.92939374583337,
                        "value": 0
                    },
                    {
                        "number": 64,
                        "time": 67.02677040833336,
                        "value": 1
                    },
                    {
                        "number": 64,
                        "time": 67.12165023333337,
                        "value": 0
                    },
                    {
                        "number": 64,
                        "time": 67.18157433333337,
                        "value": 1
                    },
                    {
                        "number": 64,
                        "time": 67.52364107083338,
                        "value": 0
                    },
                    {
                        "number": 64,
                        "time": 67.56192591250004,
                        "value": 1
                    },
                    {
                        "number": 64,
                        "time": 67.88568250833337,
                        "value": 0
                    },
                    {
                        "number": 64,
                        "time": 67.91398000000004,
                        "value": 1
                    },
                    {
                        "number": 64,
                        "time": 68.32262907083337,
                        "value": 0
                    },
                    {
                        "number": 64,
                        "time": 68.40169559166671,
                        "value": 1
                    },
                    {
                        "number": 64,
                        "time": 68.72212307083338,
                        "value": 0
                    },
                    {
                        "number": 64,
                        "time": 68.81866745416671,
                        "value": 1
                    },
                    {
                        "number": 64,
                        "time": 69.12328162916671,
                        "value": 0
                    },
                    {
                        "number": 64,
                        "time": 69.22398740833337,
                        "value": 1
                    },
                    {
                        "number": 64,
                        "time": 69.51195600000004,
                        "value": 0
                    },
                    {
                        "number": 64,
                        "time": 69.60017759166671,
                        "value": 1
                    },
                    {
                        "number": 64,
                        "time": 69.92143735000003,
                        "value": 0
                    },
                    {
                        "number": 64,
                        "time": 70.00549754583336,
                        "value": 1
                    },
                    {
                        "number": 64,
                        "time": 70.31593767500003,
                        "value": 0
                    },
                    {
                        "number": 64,
                        "time": 70.41664345416669,
                        "value": 1
                    },
                    {
                        "number": 64,
                        "time": 70.71543167500002,
                        "value": 0
                    },
                    {
                        "number": 64,
                        "time": 70.81031150000003,
                        "value": 1
                    },
                    {
                        "number": 64,
                        "time": 71.10993200000003,
                        "value": 0
                    },
                    {
                        "number": 64,
                        "time": 71.10993200000003,
                        "value": 0
                    },
                    {
                        "number": 64,
                        "time": 71.17651433333336,
                        "value": 1
                    },
                    {
                        "number": 64,
                        "time": 71.72415402500002,
                        "value": 0
                    },
                    {
                        "number": 64,
                        "time": 71.77159393750001,
                        "value": 1
                    },
                    {
                        "number": 64,
                        "time": 71.91391367500002,
                        "value": 0
                    },
                    {
                        "number": 64,
                        "time": 71.99464475416669,
                        "value": 1
                    },
                    {
                        "number": 64,
                        "time": 72.51814835000002,
                        "value": 0
                    },
                    {
                        "number": 64,
                        "time": 72.56558826250001,
                        "value": 1
                    },
                    {
                        "number": 64,
                        "time": 72.71290167500001,
                        "value": 0
                    },
                    {
                        "number": 64,
                        "time": 72.78863907916669,
                        "value": 1
                    },
                    {
                        "number": 64,
                        "time": 73.31796862916669,
                        "value": 0
                    },
                    {
                        "number": 64,
                        "time": 73.39287375416669,
                        "value": 1
                    },
                    {
                        "number": 64,
                        "time": 73.51188967500002,
                        "value": 0
                    },
                    {
                        "number": 64,
                        "time": 73.59761442916668,
                        "value": 1
                    },
                    {
                        "number": 64,
                        "time": 74.11612435000002,
                        "value": 0
                    },
                    {
                        "number": 64,
                        "time": 74.18270668333335,
                        "value": 1
                    },
                    {
                        "number": 64,
                        "time": 74.30588400000002,
                        "value": 0
                    },
                    {
                        "number": 64,
                        "time": 74.37246633333335,
                        "value": 1
                    },
                    {
                        "number": 64,
                        "time": 75.10986567500002,
                        "value": 0
                    },
                    {
                        "number": 64,
                        "time": 75.19059675416669,
                        "value": 1
                    },
                    {
                        "number": 64,
                        "time": 75.90885367500002,
                        "value": 0
                    },
                    {
                        "number": 64,
                        "time": 75.98958475416669,
                        "value": 1
                    },
                    {
                        "number": 64,
                        "time": 76.70784167500003,
                        "value": 0
                    },
                    {
                        "number": 64,
                        "time": 76.7885727541667,
                        "value": 1
                    },
                    {
                        "number": 64,
                        "time": 77.50682967500003,
                        "value": 0
                    },
                    {
                        "number": 64,
                        "time": 77.5875607541667,
                        "value": 1
                    },
                    {
                        "number": 64,
                        "time": 78.30581767500004,
                        "value": 0
                    },
                    {
                        "number": 64,
                        "time": 78.38654875416671,
                        "value": 1
                    },
                    {
                        "number": 64,
                        "time": 79.10480567500005,
                        "value": 0
                    },
                    {
                        "number": 64,
                        "time": 79.18553675416672,
                        "value": 1
                    },
                    {
                        "number": 64,
                        "time": 79.90379367500006,
                        "value": 0
                    },
                    {
                        "number": 64,
                        "time": 79.98452475416673,
                        "value": 1
                    },
                    {
                        "number": 64,
                        "time": 80.7418987958334,
                        "value": 1
                    },
                    {
                        "number": 64,
                        "time": 80.92083881666673,
                        "value": 0
                    },
                    {
                        "number": 64,
                        "time": 81.14721875000006,
                        "value": 1
                    },
                    {
                        "number": 64,
                        "time": 81.31783597916673,
                        "value": 0
                    },
                    {
                        "number": 64,
                        "time": 81.54920958750006,
                        "value": 1
                    },
                    {
                        "number": 64,
                        "time": 82.2325107833334,
                        "value": 0
                    },
                    {
                        "number": 64,
                        "time": 82.37649507916673,
                        "value": 1
                    },
                    {
                        "number": 64,
                        "time": 82.52880216666674,
                        "value": 0
                    },
                    {
                        "number": 64,
                        "time": 82.7718276833334,
                        "value": 1
                    },
                    {
                        "number": 64,
                        "time": 82.93328984166673,
                        "value": 0
                    },
                    {
                        "number": 64,
                        "time": 83.13303684166674,
                        "value": 1
                    },
                    {
                        "number": 64,
                        "time": 83.83215134166673,
                        "value": 0
                    },
                    {
                        "number": 64,
                        "time": 83.94117991250006,
                        "value": 1
                    },
                    {
                        "number": 64,
                        "time": 84.13177184166673,
                        "value": 0
                    },
                    {
                        "number": 64,
                        "time": 84.34067391250007,
                        "value": 1
                    },
                    {
                        "number": 64,
                        "time": 84.51378797916674,
                        "value": 0
                    },
                    {
                        "number": 64,
                        "time": 84.74016791250007,
                        "value": 1
                    },
                    {
                        "number": 64,
                        "time": 85.3635450083334,
                        "value": 0
                    },
                    {
                        "number": 64,
                        "time": 85.54914326250007,
                        "value": 1
                    },
                    {
                        "number": 64,
                        "time": 85.90119735000006,
                        "value": 0
                    },
                    {
                        "number": 64,
                        "time": 85.97194107916673,
                        "value": 1
                    },
                    {
                        "number": 64,
                        "time": 86.29070400000006,
                        "value": 0
                    },
                    {
                        "number": 64,
                        "time": 86.34064075000006,
                        "value": 1
                    },
                    {
                        "number": 64,
                        "time": 86.69019800000007,
                        "value": 0
                    },
                    {
                        "number": 64,
                        "time": 86.72598600416673,
                        "value": 1
                    },
                    {
                        "number": 64,
                        "time": 86.85166015833339,
                        "value": 0
                    },
                    {
                        "number": 64,
                        "time": 87.18540410416672,
                        "value": 1
                    },
                    {
                        "number": 64,
                        "time": 87.5008379083334,
                        "value": 0
                    },
                    {
                        "number": 64,
                        "time": 87.64149308750007,
                        "value": 1
                    },
                    {
                        "number": 64,
                        "time": 87.89450595416673,
                        "value": 0
                    },
                    {
                        "number": 64,
                        "time": 88.0301674583334,
                        "value": 1
                    },
                    {
                        "number": 64,
                        "time": 88.24156636666673,
                        "value": 0
                    },
                    {
                        "number": 64,
                        "time": 88.78338010416672,
                        "value": 1
                    },
                    {
                        "number": 64,
                        "time": 89.09298795416673,
                        "value": 0
                    },
                    {
                        "number": 64,
                        "time": 89.33434891250006,
                        "value": 1
                    },
                    {
                        "number": 64,
                        "time": 89.49664335000006,
                        "value": 0
                    },
                    {
                        "number": 64,
                        "time": 89.58070354583339,
                        "value": 1
                    },
                    {
                        "number": 64,
                        "time": 89.80375436250006,
                        "value": 0
                    },
                    {
                        "number": 64,
                        "time": 90.37469787083339,
                        "value": 1
                    },
                    {
                        "number": 64,
                        "time": 90.69346079166672,
                        "value": 0
                    },
                    {
                        "number": 64,
                        "time": 90.88488500000005,
                        "value": 1
                    },
                    {
                        "number": 64,
                        "time": 91.09212251250005,
                        "value": 0
                    },
                    {
                        "number": 64,
                        "time": 91.22611945833339,
                        "value": 1
                    },
                    {
                        "number": 64,
                        "time": 91.50742981666671,
                        "value": 0
                    },
                    {
                        "number": 64,
                        "time": 91.97267387083338,
                        "value": 1
                    },
                    {
                        "number": 64,
                        "time": 92.29310135000004,
                        "value": 0
                    },
                    {
                        "number": 64,
                        "time": 92.48286100000004,
                        "value": 1
                    },
                    {
                        "number": 64,
                        "time": 92.73004791250004,
                        "value": 0
                    },
                    {
                        "number": 64,
                        "time": 92.82409545833337,
                        "value": 1
                    },
                    {
                        "number": 64,
                        "time": 93.01219055000004,
                        "value": 0
                    },
                    {
                        "number": 64,
                        "time": 93.57647582500005,
                        "value": 1
                    },
                    {
                        "number": 64,
                        "time": 93.89523874583338,
                        "value": 0
                    },
                    {
                        "number": 64,
                        "time": 94.07168192916672,
                        "value": 1
                    },
                    {
                        "number": 64,
                        "time": 94.29306818750005,
                        "value": 0
                    },
                    {
                        "number": 64,
                        "time": 94.42123917916672,
                        "value": 1
                    },
                    {
                        "number": 64,
                        "time": 94.60434059583339,
                        "value": 0
                    },
                    {
                        "number": 64,
                        "time": 95.21273666666673,
                        "value": 1
                    },
                    {
                        "number": 64,
                        "time": 95.48822107083339,
                        "value": 0
                    },
                    {
                        "number": 64,
                        "time": 95.68880035000005,
                        "value": 1
                    },
                    {
                        "number": 64,
                        "time": 95.88688279166672,
                        "value": 0
                    },
                    {
                        "number": 64,
                        "time": 96.03169936666671,
                        "value": 1
                    },
                    {
                        "number": 64,
                        "time": 96.37210154583339,
                        "value": 0
                    },
                    {
                        "number": 64,
                        "time": 96.7890734083334,
                        "value": 1
                    },
                    {
                        "number": 64,
                        "time": 97.08702935000007,
                        "value": 0
                    },
                    {
                        "number": 64,
                        "time": 97.29926053750006,
                        "value": 1
                    },
                    {
                        "number": 64,
                        "time": 97.48735562916673,
                        "value": 0
                    },
                    {
                        "number": 64,
                        "time": 97.60637155000006,
                        "value": 1
                    },
                    {
                        "number": 64,
                        "time": 97.8527261833334,
                        "value": 0
                    },
                    {
                        "number": 64,
                        "time": 98.49774253750007,
                        "value": 1
                    },
                    {
                        "number": 64,
                        "time": 98.68500535000007,
                        "value": 0
                    },
                    {
                        "number": 64,
                        "time": 98.87476500000007,
                        "value": 1
                    },
                    {
                        "number": 64,
                        "time": 99.08449935000007,
                        "value": 0
                    },
                    {
                        "number": 64,
                        "time": 99.2159994583334,
                        "value": 1
                    },
                    {
                        "number": 64,
                        "time": 99.4507021833334,
                        "value": 0
                    },
                    {
                        "number": 64,
                        "time": 99.95006968333341,
                        "value": 1
                    },
                    {
                        "number": 64,
                        "time": 100.28547818750008,
                        "value": 0
                    },
                    {
                        "number": 64,
                        "time": 100.4444435083334,
                        "value": 1
                    },
                    {
                        "number": 64,
                        "time": 100.68081079166674,
                        "value": 0
                    },
                    {
                        "number": 64,
                        "time": 100.78651024583341,
                        "value": 1
                    },
                    {
                        "number": 64,
                        "time": 101.00539966666675,
                        "value": 0
                    },
                    {
                        "number": 64,
                        "time": 101.62711220416675,
                        "value": 1
                    },
                    {
                        "number": 64,
                        "time": 101.87929279166676,
                        "value": 0
                    },
                    {
                        "number": 64,
                        "time": 102.09318853750008,
                        "value": 1
                    },
                    {
                        "number": 64,
                        "time": 102.27961907083342,
                        "value": 0
                    },
                    {
                        "number": 64,
                        "time": 102.36617610416675,
                        "value": 1
                    },
                    {
                        "number": 64,
                        "time": 102.63250543750009,
                        "value": 0
                    },
                    {
                        "number": 64,
                        "time": 103.16932550000008,
                        "value": 1
                    },
                    {
                        "number": 64,
                        "time": 103.47893335000009,
                        "value": 0
                    },
                    {
                        "number": 64,
                        "time": 103.56465810416675,
                        "value": 1
                    },
                    {
                        "number": 64,
                        "time": 103.87426595416676,
                        "value": 0
                    },
                    {
                        "number": 64,
                        "time": 104.03073443750009,
                        "value": 1
                    },
                    {
                        "number": 64,
                        "time": 104.28707642083342,
                        "value": 0
                    },
                    {
                        "number": 64,
                        "time": 104.73401033333342,
                        "value": 1
                    },
                    {
                        "number": 64,
                        "time": 105.07690935000008,
                        "value": 0
                    },
                    {
                        "number": 64,
                        "time": 105.26666900000008,
                        "value": 1
                    },
                    {
                        "number": 64,
                        "time": 105.47723562916674,
                        "value": 0
                    },
                    {
                        "number": 64,
                        "time": 105.63120727500008,
                        "value": 1
                    },
                    {
                        "number": 64,
                        "time": 105.84260618333342,
                        "value": 0
                    },
                    {
                        "number": 64,
                        "time": 106.37942624583341,
                        "value": 1
                    },
                    {
                        "number": 64,
                        "time": 107.07604390833342,
                        "value": 0
                    },
                    {
                        "number": 64,
                        "time": 107.21753136666675,
                        "value": 1
                    },
                    {
                        "number": 64,
                        "time": 107.45223409166675,
                        "value": 0
                    },
                    {
                        "number": 64,
                        "time": 107.86338000000009,
                        "value": 1
                    },
                    {
                        "number": 64,
                        "time": 108.67152307083343,
                        "value": 0
                    },
                    {
                        "number": 64,
                        "time": 108.84047574166676,
                        "value": 1
                    },
                    {
                        "number": 64,
                        "time": 110.01648620416677,
                        "value": 0
                    }
                ]
            },
            "id": 3,
            "name": "Pedale",
            "instrumentNumber": 0,
            "instrument": "acoustic grand piano",
            "instrumentFamily": "piano",
            "channelNumber": 0,
            "isPercussion": false
        },
        {
            "startTime": 0,
            "duration": 0,
            "length": 0,
            "notes": [],
            "controlChanges": {},
            "id": 4,
            "name": "Schumann: Kreisleriana No. 7"
        },
        {
            "startTime": 0,
            "duration": 0,
            "length": 0,
            "notes": [],
            "controlChanges": {},
            "id": 5,
            "name": "Copyright  2007 by Bernd Krueger"
        },
        {
            "startTime": 0,
            "duration": 0,
            "length": 0,
            "notes": [],
            "controlChanges": {},
            "id": 6,
            "name": "http://www.piano-midi.de/"
        },
        {
            "startTime": 0,
            "duration": 0,
            "length": 0,
            "notes": [],
            "controlChanges": {},
            "id": 7,
            "name": "Edition: 2014-03-27"
        },
        {
            "startTime": 0,
            "duration": 0,
            "length": 0,
            "notes": [],
            "controlChanges": {},
            "id": 8,
            "name": "Spur 8"
        },
        {
            "startTime": 0,
            "duration": 0,
            "length": 0,
            "notes": [],
            "controlChanges": {},
            "id": 9,
            "name": "Spur 9"
        },
        {
            "startTime": 0,
            "duration": 0,
            "length": 0,
            "notes": [],
            "controlChanges": {},
            "id": 10,
            "name": "Spur 10"
        },
        {
            "startTime": 0,
            "duration": 0,
            "length": 0,
            "notes": [],
            "controlChanges": {},
            "id": 11,
            "name": "Spur 11"
        },
        {
            "startTime": 0,
            "duration": 0,
            "length": 0,
            "notes": [],
            "controlChanges": {},
            "id": 12,
            "name": "Spur 12"
        },
        {
            "startTime": 0,
            "duration": 0,
            "length": 0,
            "notes": [],
            "controlChanges": {},
            "id": 13,
            "name": "Spur 13"
        },
        {
            "startTime": 0,
            "duration": 0,
            "length": 0,
            "notes": [],
            "controlChanges": {},
            "id": 14,
            "name": "Spur 14"
        },
        {
            "startTime": 0,
            "duration": 0,
            "length": 0,
            "notes": [],
            "controlChanges": {},
            "id": 15,
            "name": "Spur 15"
        },
        {
            "startTime": 0,
            "duration": 0,
            "length": 0,
            "notes": [],
            "controlChanges": {},
            "id": 16,
            "name": "Spur 16"
        }
    ]
}