{
    "header": {
        "PPQ": 480,
        "timeSignature": [
            2,
            4
        ],
        "bpm": 80,
        "name": "Glückes genug"
    },
    "startTime": 0,
    "duration": 61.5,
    "tracks": [
        {
            "startTime": 0,
            "duration": 0,
            "length": 0,
            "notes": [],
            "controlChanges": {},
            "id": 0,
            "name": "Glückes genug"
        },
        {
            "startTime": 1.1249999999999998,
            "duration": 61.5,
            "length": 467,
            "notes": [
                {
                    "name": "G#4",
                    "midi": 68,
                    "time": 1.1249999999999998,
                    "velocity": 0.4645669291338583,
                    "duration": 0.375
                },
                {
                    "name": "G4",
                    "midi": 67,
                    "time": 1.3124999999999998,
                    "velocity": 0.2755905511811024,
                    "duration": 0.1875
                },
                {
                    "name": "E4",
                    "midi": 64,
                    "time": 1.3124999999999998,
                    "velocity": 0.2755905511811024,
                    "duration": 0.1875
                },
                {
                    "name": "A4",
                    "midi": 69,
                    "time": 1.4999999999999998,
                    "velocity": 0.4881889763779528,
                    "duration": 0.375
                },
                {
                    "name": "E4",
                    "midi": 64,
                    "time": 1.6874999999999998,
                    "velocity": 0.2755905511811024,
                    "duration": 0.1875
                },
                {
                    "name": "G4",
                    "midi": 67,
                    "time": 1.6874999999999998,
                    "velocity": 0.2755905511811024,
                    "duration": 0.1875
                },
                {
                    "name": "C#5",
                    "midi": 73,
                    "time": 1.8749999999999998,
                    "velocity": 0.5039370078740157,
                    "duration": 0.3750000000000002
                },
                {
                    "name": "A4",
                    "midi": 69,
                    "time": 2.0625,
                    "velocity": 0.29133858267716534,
                    "duration": 0.1875
                },
                {
                    "name": "G4",
                    "midi": 67,
                    "time": 2.0625,
                    "velocity": 0.29133858267716534,
                    "duration": 0.1875
                },
                {
                    "name": "F#5",
                    "midi": 78,
                    "time": 2.25,
                    "velocity": 0.5354330708661418,
                    "duration": 0.375
                },
                {
                    "name": "G4",
                    "midi": 67,
                    "time": 2.4375,
                    "velocity": 0.31496062992125984,
                    "duration": 0.1875
                },
                {
                    "name": "A4",
                    "midi": 69,
                    "time": 2.4375,
                    "velocity": 0.31496062992125984,
                    "duration": 0.1875
                },
                {
                    "name": "E5",
                    "midi": 76,
                    "time": 2.625,
                    "velocity": 0.5354330708661418,
                    "duration": 0.375
                },
                {
                    "name": "G4",
                    "midi": 67,
                    "time": 2.8125,
                    "velocity": 0.31496062992125984,
                    "duration": 0.1875
                },
                {
                    "name": "A4",
                    "midi": 69,
                    "time": 2.8125,
                    "velocity": 0.31496062992125984,
                    "duration": 0.1875
                },
                {
                    "name": "D5",
                    "midi": 74,
                    "time": 3,
                    "velocity": 0.5196850393700787,
                    "duration": 0.375
                },
                {
                    "name": "D4",
                    "midi": 62,
                    "time": 3.1875,
                    "velocity": 0.2992125984251969,
                    "duration": 0.1875
                },
                {
                    "name": "F#4",
                    "midi": 66,
                    "time": 3.1875,
                    "velocity": 0.2992125984251969,
                    "duration": 0.1875
                },
                {
                    "name": "A4",
                    "midi": 69,
                    "time": 3.375,
                    "velocity": 0.49606299212598426,
                    "duration": 0.375
                },
                {
                    "name": "D4",
                    "midi": 62,
                    "time": 3.5625,
                    "velocity": 0.28346456692913385,
                    "duration": 0.1875
                },
                {
                    "name": "F#4",
                    "midi": 66,
                    "time": 3.5625,
                    "velocity": 0.28346456692913385,
                    "duration": 0.1875
                },
                {
                    "name": "D4",
                    "midi": 62,
                    "time": 3.9375,
                    "velocity": 0.2992125984251969,
                    "duration": 0.1875
                },
                {
                    "name": "F#4",
                    "midi": 66,
                    "time": 3.9375,
                    "velocity": 0.2992125984251969,
                    "duration": 0.1875
                },
                {
                    "name": "A4",
                    "midi": 69,
                    "time": 4.125,
                    "velocity": 0.5039370078740157,
                    "duration": 0.09375
                },
                {
                    "name": "D4",
                    "midi": 62,
                    "time": 4.3125,
                    "velocity": 0.30708661417322836,
                    "duration": 0.1875
                },
                {
                    "name": "F#4",
                    "midi": 66,
                    "time": 4.3125,
                    "velocity": 0.30708661417322836,
                    "duration": 0.1875
                },
                {
                    "name": "A4",
                    "midi": 69,
                    "time": 4.5,
                    "velocity": 0.5275590551181102,
                    "duration": 0.1875
                },
                {
                    "name": "C#4",
                    "midi": 61,
                    "time": 4.6875,
                    "velocity": 0.3779527559055118,
                    "duration": 0.09375
                },
                {
                    "name": "E4",
                    "midi": 64,
                    "time": 4.6875,
                    "velocity": 0.3779527559055118,
                    "duration": 0.09375
                },
                {
                    "name": "C#4",
                    "midi": 61,
                    "time": 4.875,
                    "velocity": 0.4409448818897638,
                    "duration": 0.375
                },
                {
                    "name": "E4",
                    "midi": 64,
                    "time": 4.875,
                    "velocity": 0.4409448818897638,
                    "duration": 0.1875
                },
                {
                    "name": "F#4",
                    "midi": 66,
                    "time": 5.0625,
                    "velocity": 0.3543307086614173,
                    "duration": 0.1875
                },
                {
                    "name": "G4",
                    "midi": 67,
                    "time": 5.25,
                    "velocity": 0.4645669291338583,
                    "duration": 0.375
                },
                {
                    "name": "C#4",
                    "midi": 61,
                    "time": 5.4375,
                    "velocity": 0.33070866141732286,
                    "duration": 0.1875
                },
                {
                    "name": "E4",
                    "midi": 64,
                    "time": 5.4375,
                    "velocity": 0.33070866141732286,
                    "duration": 0.1875
                },
                {
                    "name": "B4",
                    "midi": 71,
                    "time": 5.625,
                    "velocity": 0.4645669291338583,
                    "duration": 0.375
                },
                {
                    "name": "B3",
                    "midi": 59,
                    "time": 5.8125,
                    "velocity": 0.33858267716535434,
                    "duration": 0.1875
                },
                {
                    "name": "G4",
                    "midi": 67,
                    "time": 5.8125,
                    "velocity": 0.33858267716535434,
                    "duration": 0.1875
                },
                {
                    "name": "A4",
                    "midi": 69,
                    "time": 6,
                    "velocity": 0.44881889763779526,
                    "duration": 0.375
                },
                {
                    "name": "A3",
                    "midi": 57,
                    "time": 6.1875,
                    "velocity": 0.30708661417322836,
                    "duration": 0.1875
                },
                {
                    "name": "F#4",
                    "midi": 66,
                    "time": 6.1875,
                    "velocity": 0.30708661417322836,
                    "duration": 0.1875
                },
                {
                    "name": "F#4",
                    "midi": 66,
                    "time": 6.375,
                    "velocity": 0.4330708661417323,
                    "duration": 0.375
                },
                {
                    "name": "A3",
                    "midi": 57,
                    "time": 6.5625,
                    "velocity": 0.28346456692913385,
                    "duration": 0.1875
                },
                {
                    "name": "D4",
                    "midi": 62,
                    "time": 6.5625,
                    "velocity": 0.28346456692913385,
                    "duration": 0.1875
                },
                {
                    "name": "E4",
                    "midi": 64,
                    "time": 6.75,
                    "velocity": 0.41732283464566927,
                    "duration": 0.375
                },
                {
                    "name": "A3",
                    "midi": 57,
                    "time": 6.9375,
                    "velocity": 0.2677165354330709,
                    "duration": 0.1875
                },
                {
                    "name": "C#4",
                    "midi": 61,
                    "time": 6.9375,
                    "velocity": 0.2677165354330709,
                    "duration": 0.1875
                },
                {
                    "name": "G#4",
                    "midi": 68,
                    "time": 7.125,
                    "velocity": 0.4645669291338583,
                    "duration": 0.375
                },
                {
                    "name": "E4",
                    "midi": 64,
                    "time": 7.3125,
                    "velocity": 0.31496062992125984,
                    "duration": 0.1875
                },
                {
                    "name": "G4",
                    "midi": 67,
                    "time": 7.3125,
                    "velocity": 0.31496062992125984,
                    "duration": 0.1875
                },
                {
                    "name": "A4",
                    "midi": 69,
                    "time": 7.5,
                    "velocity": 0.5433070866141733,
                    "duration": 0.75
                },
                {
                    "name": "E4",
                    "midi": 64,
                    "time": 7.6875,
                    "velocity": 0.2992125984251969,
                    "duration": 0.1875
                },
                {
                    "name": "G4",
                    "midi": 67,
                    "time": 7.6875,
                    "velocity": 0.2992125984251969,
                    "duration": 0.1875
                },
                {
                    "name": "G3",
                    "midi": 55,
                    "time": 8.0625,
                    "velocity": 0.31496062992125984,
                    "duration": 0.1875
                },
                {
                    "name": "A3",
                    "midi": 57,
                    "time": 8.0625,
                    "velocity": 0.31496062992125984,
                    "duration": 0.1875
                },
                {
                    "name": "G3",
                    "midi": 55,
                    "time": 8.4375,
                    "velocity": 0.2992125984251969,
                    "duration": 0.1875
                },
                {
                    "name": "A3",
                    "midi": 57,
                    "time": 8.4375,
                    "velocity": 0.2992125984251969,
                    "duration": 0.1875
                },
                {
                    "name": "C#4",
                    "midi": 61,
                    "time": 8.625,
                    "velocity": 0.3543307086614173,
                    "duration": 0.375
                },
                {
                    "name": "G3",
                    "midi": 55,
                    "time": 8.8125,
                    "velocity": 0.2992125984251969,
                    "duration": 0.1875
                },
                {
                    "name": "A3",
                    "midi": 57,
                    "time": 8.8125,
                    "velocity": 0.2992125984251969,
                    "duration": 0.1875
                },
                {
                    "name": "D4",
                    "midi": 62,
                    "time": 9,
                    "velocity": 0.4881889763779528,
                    "duration": 0.375
                },
                {
                    "name": "A3",
                    "midi": 57,
                    "time": 9.1875,
                    "velocity": 0.2992125984251969,
                    "duration": 0.1875
                },
                {
                    "name": "F#3",
                    "midi": 54,
                    "time": 9.1875,
                    "velocity": 0.2992125984251969,
                    "duration": 0.1875
                },
                {
                    "name": "F#4",
                    "midi": 66,
                    "time": 9.375,
                    "velocity": 0.5039370078740157,
                    "duration": 0.375
                },
                {
                    "name": "A3",
                    "midi": 57,
                    "time": 9.5625,
                    "velocity": 0.30708661417322836,
                    "duration": 0.1875
                },
                {
                    "name": "D4",
                    "midi": 62,
                    "time": 9.5625,
                    "velocity": 0.30708661417322836,
                    "duration": 0.1875
                },
                {
                    "name": "B4",
                    "midi": 71,
                    "time": 9.75,
                    "velocity": 0.5354330708661418,
                    "duration": 0.375
                },
                {
                    "name": "F#4",
                    "midi": 66,
                    "time": 9.9375,
                    "velocity": 0.31496062992125984,
                    "duration": 0.1875
                },
                {
                    "name": "D4",
                    "midi": 62,
                    "time": 9.9375,
                    "velocity": 0.31496062992125984,
                    "duration": 0.1875
                },
                {
                    "name": "A4",
                    "midi": 69,
                    "time": 10.125,
                    "velocity": 0.5354330708661418,
                    "duration": 0.375
                },
                {
                    "name": "F#4",
                    "midi": 66,
                    "time": 10.3125,
                    "velocity": 0.31496062992125984,
                    "duration": 0.1875
                },
                {
                    "name": "D4",
                    "midi": 62,
                    "time": 10.3125,
                    "velocity": 0.31496062992125984,
                    "duration": 0.1875
                },
                {
                    "name": "G4",
                    "midi": 67,
                    "time": 10.5,
                    "velocity": 0.5354330708661418,
                    "duration": 0.375
                },
                {
                    "name": "D4",
                    "midi": 62,
                    "time": 10.6875,
                    "velocity": 0.31496062992125984,
                    "duration": 0.1875
                },
                {
                    "name": "G3",
                    "midi": 55,
                    "time": 10.6875,
                    "velocity": 0.31496062992125984,
                    "duration": 0.1875
                },
                {
                    "name": "B4",
                    "midi": 71,
                    "time": 10.875,
                    "velocity": 0.5511811023622047,
                    "duration": 0.375
                },
                {
                    "name": "D4",
                    "midi": 62,
                    "time": 11.0625,
                    "velocity": 0.33070866141732286,
                    "duration": 0.1875
                },
                {
                    "name": "G4",
                    "midi": 67,
                    "time": 11.0625,
                    "velocity": 0.33070866141732286,
                    "duration": 0.1875
                },
                {
                    "name": "E5",
                    "midi": 76,
                    "time": 11.25,
                    "velocity": 0.5826771653543307,
                    "duration": 0.375
                },
                {
                    "name": "G4",
                    "midi": 67,
                    "time": 11.4375,
                    "velocity": 0.3464566929133858,
                    "duration": 0.1875
                },
                {
                    "name": "E4",
                    "midi": 64,
                    "time": 11.4375,
                    "velocity": 0.3464566929133858,
                    "duration": 0.1875
                },
                {
                    "name": "D5",
                    "midi": 74,
                    "time": 11.625,
                    "velocity": 0.5669291338582677,
                    "duration": 0.375
                },
                {
                    "name": "G4",
                    "midi": 67,
                    "time": 11.8125,
                    "velocity": 0.3228346456692913,
                    "duration": 0.1875
                },
                {
                    "name": "D4",
                    "midi": 62,
                    "time": 11.8125,
                    "velocity": 0.3228346456692913,
                    "duration": 0.1875
                },
                {
                    "name": "C#5",
                    "midi": 73,
                    "time": 12,
                    "velocity": 0.5354330708661418,
                    "duration": 0.375
                },
                {
                    "name": "C#4",
                    "midi": 61,
                    "time": 12.1875,
                    "velocity": 0.2992125984251969,
                    "duration": 0.1875
                },
                {
                    "name": "G4",
                    "midi": 67,
                    "time": 12.1875,
                    "velocity": 0.2992125984251969,
                    "duration": 0.1875
                },
                {
                    "name": "B4",
                    "midi": 71,
                    "time": 12.375,
                    "velocity": 0.5118110236220472,
                    "duration": 0.375
                },
                {
                    "name": "D4",
                    "midi": 62,
                    "time": 12.5625,
                    "velocity": 0.2992125984251969,
                    "duration": 0.1875
                },
                {
                    "name": "G4",
                    "midi": 67,
                    "time": 12.5625,
                    "velocity": 0.2992125984251969,
                    "duration": 0.1875
                },
                {
                    "name": "A4",
                    "midi": 69,
                    "time": 12.75,
                    "velocity": 0.47244094488188976,
                    "duration": 0.375
                },
                {
                    "name": "D#4",
                    "midi": 63,
                    "time": 12.9375,
                    "velocity": 0.2755905511811024,
                    "duration": 0.1875
                },
                {
                    "name": "G4",
                    "midi": 67,
                    "time": 12.9375,
                    "velocity": 0.2755905511811024,
                    "duration": 0.1875
                },
                {
                    "name": "G#4",
                    "midi": 68,
                    "time": 13.125,
                    "velocity": 0.4645669291338583,
                    "duration": 0.375
                },
                {
                    "name": "E4",
                    "midi": 64,
                    "time": 13.3125,
                    "velocity": 0.2755905511811024,
                    "duration": 0.1875
                },
                {
                    "name": "G4",
                    "midi": 67,
                    "time": 13.3125,
                    "velocity": 0.2755905511811024,
                    "duration": 0.1875
                },
                {
                    "name": "A4",
                    "midi": 69,
                    "time": 13.5,
                    "velocity": 0.4881889763779528,
                    "duration": 0.375
                },
                {
                    "name": "E4",
                    "midi": 64,
                    "time": 13.6875,
                    "velocity": 0.2755905511811024,
                    "duration": 0.1875
                },
                {
                    "name": "G4",
                    "midi": 67,
                    "time": 13.6875,
                    "velocity": 0.2755905511811024,
                    "duration": 0.1875
                },
                {
                    "name": "C#5",
                    "midi": 73,
                    "time": 13.875,
                    "velocity": 0.5039370078740157,
                    "duration": 0.375
                },
                {
                    "name": "G4",
                    "midi": 67,
                    "time": 14.0625,
                    "velocity": 0.29133858267716534,
                    "duration": 0.1875
                },
                {
                    "name": "A4",
                    "midi": 69,
                    "time": 14.0625,
                    "velocity": 0.29133858267716534,
                    "duration": 0.1875
                },
                {
                    "name": "F#5",
                    "midi": 78,
                    "time": 14.25,
                    "velocity": 0.5354330708661418,
                    "duration": 0.375
                },
                {
                    "name": "G4",
                    "midi": 67,
                    "time": 14.4375,
                    "velocity": 0.31496062992125984,
                    "duration": 0.1875
                },
                {
                    "name": "A4",
                    "midi": 69,
                    "time": 14.4375,
                    "velocity": 0.31496062992125984,
                    "duration": 0.1875
                },
                {
                    "name": "E5",
                    "midi": 76,
                    "time": 14.625,
                    "velocity": 0.5354330708661418,
                    "duration": 0.375
                },
                {
                    "name": "G4",
                    "midi": 67,
                    "time": 14.8125,
                    "velocity": 0.31496062992125984,
                    "duration": 0.1875
                },
                {
                    "name": "A4",
                    "midi": 69,
                    "time": 14.8125,
                    "velocity": 0.31496062992125984,
                    "duration": 0.1875
                },
                {
                    "name": "D5",
                    "midi": 74,
                    "time": 15,
                    "velocity": 0.5196850393700787,
                    "duration": 0.375
                },
                {
                    "name": "D4",
                    "midi": 62,
                    "time": 15.1875,
                    "velocity": 0.2992125984251969,
                    "duration": 0.1875
                },
                {
                    "name": "F#4",
                    "midi": 66,
                    "time": 15.1875,
                    "velocity": 0.2992125984251969,
                    "duration": 0.1875
                },
                {
                    "name": "A4",
                    "midi": 69,
                    "time": 15.375,
                    "velocity": 0.49606299212598426,
                    "duration": 0.375
                },
                {
                    "name": "D4",
                    "midi": 62,
                    "time": 15.5625,
                    "velocity": 0.28346456692913385,
                    "duration": 0.1875
                },
                {
                    "name": "F#4",
                    "midi": 66,
                    "time": 15.5625,
                    "velocity": 0.28346456692913385,
                    "duration": 0.1875
                },
                {
                    "name": "D4",
                    "midi": 62,
                    "time": 15.9375,
                    "velocity": 0.2992125984251969,
                    "duration": 0.1875
                },
                {
                    "name": "F#4",
                    "midi": 66,
                    "time": 15.9375,
                    "velocity": 0.2992125984251969,
                    "duration": 0.1875
                },
                {
                    "name": "A4",
                    "midi": 69,
                    "time": 16.125,
                    "velocity": 0.5039370078740157,
                    "duration": 0.09375
                },
                {
                    "name": "D4",
                    "midi": 62,
                    "time": 16.3125,
                    "velocity": 0.30708661417322836,
                    "duration": 0.1875
                },
                {
                    "name": "F#4",
                    "midi": 66,
                    "time": 16.3125,
                    "velocity": 0.30708661417322836,
                    "duration": 0.1875
                },
                {
                    "name": "A4",
                    "midi": 69,
                    "time": 16.5,
                    "velocity": 0.5275590551181102,
                    "duration": 0.1875
                },
                {
                    "name": "C#4",
                    "midi": 61,
                    "time": 16.6875,
                    "velocity": 0.3779527559055118,
                    "duration": 0.09375
                },
                {
                    "name": "E4",
                    "midi": 64,
                    "time": 16.6875,
                    "velocity": 0.3779527559055118,
                    "duration": 0.09375
                },
                {
                    "name": "C#4",
                    "midi": 61,
                    "time": 16.875,
                    "velocity": 0.4409448818897638,
                    "duration": 0.375
                },
                {
                    "name": "E4",
                    "midi": 64,
                    "time": 16.875,
                    "velocity": 0.4409448818897638,
                    "duration": 0.1875
                },
                {
                    "name": "F#4",
                    "midi": 66,
                    "time": 17.0625,
                    "velocity": 0.3543307086614173,
                    "duration": 0.1875
                },
                {
                    "name": "G4",
                    "midi": 67,
                    "time": 17.25,
                    "velocity": 0.4645669291338583,
                    "duration": 0.375
                },
                {
                    "name": "C#4",
                    "midi": 61,
                    "time": 17.4375,
                    "velocity": 0.33070866141732286,
                    "duration": 0.1875
                },
                {
                    "name": "E4",
                    "midi": 64,
                    "time": 17.4375,
                    "velocity": 0.33070866141732286,
                    "duration": 0.1875
                },
                {
                    "name": "B4",
                    "midi": 71,
                    "time": 17.625,
                    "velocity": 0.4645669291338583,
                    "duration": 0.375
                },
                {
                    "name": "B3",
                    "midi": 59,
                    "time": 17.8125,
                    "velocity": 0.30708661417322836,
                    "duration": 0.1875
                },
                {
                    "name": "G4",
                    "midi": 67,
                    "time": 17.8125,
                    "velocity": 0.30708661417322836,
                    "duration": 0.1875
                },
                {
                    "name": "A4",
                    "midi": 69,
                    "time": 18,
                    "velocity": 0.4409448818897638,
                    "duration": 0.375
                },
                {
                    "name": "A3",
                    "midi": 57,
                    "time": 18.1875,
                    "velocity": 0.28346456692913385,
                    "duration": 0.1875
                },
                {
                    "name": "F#4",
                    "midi": 66,
                    "time": 18.1875,
                    "velocity": 0.28346456692913385,
                    "duration": 0.1875
                },
                {
                    "name": "F#4",
                    "midi": 66,
                    "time": 18.375,
                    "velocity": 0.4330708661417323,
                    "duration": 0.375
                },
                {
                    "name": "A3",
                    "midi": 57,
                    "time": 18.5625,
                    "velocity": 0.2755905511811024,
                    "duration": 0.1875
                },
                {
                    "name": "D4",
                    "midi": 62,
                    "time": 18.5625,
                    "velocity": 0.2755905511811024,
                    "duration": 0.1875
                },
                {
                    "name": "E4",
                    "midi": 64,
                    "time": 18.75,
                    "velocity": 0.4015748031496063,
                    "duration": 0.375
                },
                {
                    "name": "A3",
                    "midi": 57,
                    "time": 18.9375,
                    "velocity": 0.2677165354330709,
                    "duration": 0.1875
                },
                {
                    "name": "C#4",
                    "midi": 61,
                    "time": 18.9375,
                    "velocity": 0.2677165354330709,
                    "duration": 0.1875
                },
                {
                    "name": "G#4",
                    "midi": 68,
                    "time": 19.125,
                    "velocity": 0.4645669291338583,
                    "duration": 0.375
                },
                {
                    "name": "E4",
                    "midi": 64,
                    "time": 19.3125,
                    "velocity": 0.31496062992125984,
                    "duration": 0.1875
                },
                {
                    "name": "G4",
                    "midi": 67,
                    "time": 19.3125,
                    "velocity": 0.31496062992125984,
                    "duration": 0.1875
                },
                {
                    "name": "A4",
                    "midi": 69,
                    "time": 19.5,
                    "velocity": 0.5433070866141733,
                    "duration": 0.75
                },
                {
                    "name": "E4",
                    "midi": 64,
                    "time": 19.6875,
                    "velocity": 0.2992125984251969,
                    "duration": 0.1875
                },
                {
                    "name": "G4",
                    "midi": 67,
                    "time": 19.6875,
                    "velocity": 0.2992125984251969,
                    "duration": 0.1875
                },
                {
                    "name": "G3",
                    "midi": 55,
                    "time": 20.0625,
                    "velocity": 0.31496062992125984,
                    "duration": 0.1875
                },
                {
                    "name": "A3",
                    "midi": 57,
                    "time": 20.0625,
                    "velocity": 0.31496062992125984,
                    "duration": 0.1875
                },
                {
                    "name": "G3",
                    "midi": 55,
                    "time": 20.4375,
                    "velocity": 0.2992125984251969,
                    "duration": 0.1875
                },
                {
                    "name": "A3",
                    "midi": 57,
                    "time": 20.4375,
                    "velocity": 0.2992125984251969,
                    "duration": 0.1875
                },
                {
                    "name": "C#4",
                    "midi": 61,
                    "time": 20.625,
                    "velocity": 0.3543307086614173,
                    "duration": 0.375
                },
                {
                    "name": "G3",
                    "midi": 55,
                    "time": 20.8125,
                    "velocity": 0.2992125984251969,
                    "duration": 0.1875
                },
                {
                    "name": "A3",
                    "midi": 57,
                    "time": 20.8125,
                    "velocity": 0.2992125984251969,
                    "duration": 0.1875
                },
                {
                    "name": "D4",
                    "midi": 62,
                    "time": 21,
                    "velocity": 0.4881889763779528,
                    "duration": 0.375
                },
                {
                    "name": "A3",
                    "midi": 57,
                    "time": 21.1875,
                    "velocity": 0.2992125984251969,
                    "duration": 0.1875
                },
                {
                    "name": "F#3",
                    "midi": 54,
                    "time": 21.1875,
                    "velocity": 0.2992125984251969,
                    "duration": 0.1875
                },
                {
                    "name": "F#4",
                    "midi": 66,
                    "time": 21.375,
                    "velocity": 0.5039370078740157,
                    "duration": 0.375
                },
                {
                    "name": "A3",
                    "midi": 57,
                    "time": 21.5625,
                    "velocity": 0.30708661417322836,
                    "duration": 0.1875
                },
                {
                    "name": "D4",
                    "midi": 62,
                    "time": 21.5625,
                    "velocity": 0.30708661417322836,
                    "duration": 0.1875
                },
                {
                    "name": "B4",
                    "midi": 71,
                    "time": 21.75,
                    "velocity": 0.5354330708661418,
                    "duration": 0.375
                },
                {
                    "name": "F#4",
                    "midi": 66,
                    "time": 21.9375,
                    "velocity": 0.31496062992125984,
                    "duration": 0.1875
                },
                {
                    "name": "D4",
                    "midi": 62,
                    "time": 21.9375,
                    "velocity": 0.31496062992125984,
                    "duration": 0.1875
                },
                {
                    "name": "A4",
                    "midi": 69,
                    "time": 22.125,
                    "velocity": 0.5354330708661418,
                    "duration": 0.375
                },
                {
                    "name": "F#4",
                    "midi": 66,
                    "time": 22.3125,
                    "velocity": 0.31496062992125984,
                    "duration": 0.1875
                },
                {
                    "name": "D4",
                    "midi": 62,
                    "time": 22.3125,
                    "velocity": 0.31496062992125984,
                    "duration": 0.1875
                },
                {
                    "name": "G4",
                    "midi": 67,
                    "time": 22.5,
                    "velocity": 0.5354330708661418,
                    "duration": 0.375
                },
                {
                    "name": "D4",
                    "midi": 62,
                    "time": 22.6875,
                    "velocity": 0.31496062992125984,
                    "duration": 0.1875
                },
                {
                    "name": "G3",
                    "midi": 55,
                    "time": 22.6875,
                    "velocity": 0.31496062992125984,
                    "duration": 0.1875
                },
                {
                    "name": "B4",
                    "midi": 71,
                    "time": 22.875,
                    "velocity": 0.5511811023622047,
                    "duration": 0.375
                },
                {
                    "name": "D4",
                    "midi": 62,
                    "time": 23.0625,
                    "velocity": 0.33070866141732286,
                    "duration": 0.1875
                },
                {
                    "name": "G4",
                    "midi": 67,
                    "time": 23.0625,
                    "velocity": 0.33070866141732286,
                    "duration": 0.1875
                },
                {
                    "name": "E5",
                    "midi": 76,
                    "time": 23.25,
                    "velocity": 0.5826771653543307,
                    "duration": 0.375
                },
                {
                    "name": "G4",
                    "midi": 67,
                    "time": 23.4375,
                    "velocity": 0.3464566929133858,
                    "duration": 0.1875
                },
                {
                    "name": "E4",
                    "midi": 64,
                    "time": 23.4375,
                    "velocity": 0.3464566929133858,
                    "duration": 0.1875
                },
                {
                    "name": "D5",
                    "midi": 74,
                    "time": 23.625,
                    "velocity": 0.5669291338582677,
                    "duration": 0.375
                },
                {
                    "name": "G4",
                    "midi": 67,
                    "time": 23.8125,
                    "velocity": 0.3228346456692913,
                    "duration": 0.1875
                },
                {
                    "name": "D4",
                    "midi": 62,
                    "time": 23.8125,
                    "velocity": 0.3228346456692913,
                    "duration": 0.1875
                },
                {
                    "name": "C#5",
                    "midi": 73,
                    "time": 24,
                    "velocity": 0.49606299212598426,
                    "duration": 0.375
                },
                {
                    "name": "C#4",
                    "midi": 61,
                    "time": 24.1875,
                    "velocity": 0.2992125984251969,
                    "duration": 0.1875
                },
                {
                    "name": "G4",
                    "midi": 67,
                    "time": 24.1875,
                    "velocity": 0.2992125984251969,
                    "duration": 0.1875
                },
                {
                    "name": "B4",
                    "midi": 71,
                    "time": 24.375,
                    "velocity": 0.4566929133858268,
                    "duration": 0.375
                },
                {
                    "name": "D4",
                    "midi": 62,
                    "time": 24.5625,
                    "velocity": 0.2992125984251969,
                    "duration": 0.1875
                },
                {
                    "name": "G4",
                    "midi": 67,
                    "time": 24.5625,
                    "velocity": 0.2992125984251969,
                    "duration": 0.1875
                },
                {
                    "name": "A4",
                    "midi": 69,
                    "time": 24.75,
                    "velocity": 0.41732283464566927,
                    "duration": 0.375
                },
                {
                    "name": "D#4",
                    "midi": 63,
                    "time": 24.9375,
                    "velocity": 0.2755905511811024,
                    "duration": 0.1875
                },
                {
                    "name": "G4",
                    "midi": 67,
                    "time": 24.9375,
                    "velocity": 0.2755905511811024,
                    "duration": 0.1875
                },
                {
                    "name": "A4",
                    "midi": 69,
                    "time": 25.125,
                    "velocity": 0.3937007874015748,
                    "duration": 0.375
                },
                {
                    "name": "G4",
                    "midi": 67,
                    "time": 25.3125,
                    "velocity": 0.2283464566929134,
                    "duration": 0.1875
                },
                {
                    "name": "E4",
                    "midi": 64,
                    "time": 25.3125,
                    "velocity": 0.2283464566929134,
                    "duration": 0.1875
                },
                {
                    "name": "A#4",
                    "midi": 70,
                    "time": 25.5,
                    "velocity": 0.4094488188976378,
                    "duration": 0.375
                },
                {
                    "name": "G4",
                    "midi": 67,
                    "time": 25.6875,
                    "velocity": 0.2283464566929134,
                    "duration": 0.1875
                },
                {
                    "name": "E4",
                    "midi": 64,
                    "time": 25.6875,
                    "velocity": 0.2283464566929134,
                    "duration": 0.1875
                },
                {
                    "name": "E5",
                    "midi": 76,
                    "time": 25.875,
                    "velocity": 0.4251968503937008,
                    "duration": 0.375
                },
                {
                    "name": "G4",
                    "midi": 67,
                    "time": 26.0625,
                    "velocity": 0.2440944881889764,
                    "duration": 0.1875
                },
                {
                    "name": "A#4",
                    "midi": 70,
                    "time": 26.0625,
                    "velocity": 0.2440944881889764,
                    "duration": 0.1875
                },
                {
                    "name": "A5",
                    "midi": 81,
                    "time": 26.25,
                    "velocity": 0.44881889763779526,
                    "duration": 0.375
                },
                {
                    "name": "G4",
                    "midi": 67,
                    "time": 26.4375,
                    "velocity": 0.2677165354330709,
                    "duration": 0.1875
                },
                {
                    "name": "A#4",
                    "midi": 70,
                    "time": 26.4375,
                    "velocity": 0.2677165354330709,
                    "duration": 0.1875
                },
                {
                    "name": "G5",
                    "midi": 79,
                    "time": 26.625,
                    "velocity": 0.44881889763779526,
                    "duration": 0.375
                },
                {
                    "name": "A#4",
                    "midi": 70,
                    "time": 26.8125,
                    "velocity": 0.2677165354330709,
                    "duration": 0.1875
                },
                {
                    "name": "G4",
                    "midi": 67,
                    "time": 26.8125,
                    "velocity": 0.2677165354330709,
                    "duration": 0.1875
                },
                {
                    "name": "F5",
                    "midi": 77,
                    "time": 27,
                    "velocity": 0.4409448818897638,
                    "duration": 0.375
                },
                {
                    "name": "A4",
                    "midi": 69,
                    "time": 27.1875,
                    "velocity": 0.25196850393700787,
                    "duration": 0.1875
                },
                {
                    "name": "F4",
                    "midi": 65,
                    "time": 27.1875,
                    "velocity": 0.25196850393700787,
                    "duration": 0.1875
                },
                {
                    "name": "C5",
                    "midi": 72,
                    "time": 27.375,
                    "velocity": 0.41732283464566927,
                    "duration": 0.375
                },
                {
                    "name": "F4",
                    "midi": 65,
                    "time": 27.5625,
                    "velocity": 0.23622047244094488,
                    "duration": 0.1875
                },
                {
                    "name": "A4",
                    "midi": 69,
                    "time": 27.5625,
                    "velocity": 0.23622047244094488,
                    "duration": 0.1875
                },
                {
                    "name": "A4",
                    "midi": 69,
                    "time": 27.9375,
                    "velocity": 0.25196850393700787,
                    "duration": 0.1875
                },
                {
                    "name": "F4",
                    "midi": 65,
                    "time": 27.9375,
                    "velocity": 0.25196850393700787,
                    "duration": 0.1875
                },
                {
                    "name": "C5",
                    "midi": 72,
                    "time": 28.125,
                    "velocity": 0.4251968503937008,
                    "duration": 0.09375
                },
                {
                    "name": "F4",
                    "midi": 65,
                    "time": 28.3125,
                    "velocity": 0.25984251968503935,
                    "duration": 0.1875
                },
                {
                    "name": "A4",
                    "midi": 69,
                    "time": 28.3125,
                    "velocity": 0.25984251968503935,
                    "duration": 0.1875
                },
                {
                    "name": "C5",
                    "midi": 72,
                    "time": 28.5,
                    "velocity": 0.4409448818897638,
                    "duration": 0.1875
                },
                {
                    "name": "G4",
                    "midi": 67,
                    "time": 28.6875,
                    "velocity": 0.31496062992125984,
                    "duration": 0.09375
                },
                {
                    "name": "E4",
                    "midi": 64,
                    "time": 28.6875,
                    "velocity": 0.31496062992125984,
                    "duration": 0.09375
                },
                {
                    "name": "G4",
                    "midi": 67,
                    "time": 28.875,
                    "velocity": 0.3700787401574803,
                    "duration": 0.1875
                },
                {
                    "name": "E4",
                    "midi": 64,
                    "time": 28.875,
                    "velocity": 0.3700787401574803,
                    "duration": 0.375
                },
                {
                    "name": "A4",
                    "midi": 69,
                    "time": 29.0625,
                    "velocity": 0.2992125984251969,
                    "duration": 0.1875
                },
                {
                    "name": "A#4",
                    "midi": 70,
                    "time": 29.25,
                    "velocity": 0.3937007874015748,
                    "duration": 0.375
                },
                {
                    "name": "G4",
                    "midi": 67,
                    "time": 29.4375,
                    "velocity": 0.2755905511811024,
                    "duration": 0.1875
                },
                {
                    "name": "E4",
                    "midi": 64,
                    "time": 29.4375,
                    "velocity": 0.2755905511811024,
                    "duration": 0.1875
                },
                {
                    "name": "D5",
                    "midi": 74,
                    "time": 29.625,
                    "velocity": 0.4094488188976378,
                    "duration": 0.375
                },
                {
                    "name": "C4",
                    "midi": 60,
                    "time": 29.8125,
                    "velocity": 0.28346456692913385,
                    "duration": 0.1875
                },
                {
                    "name": "A#4",
                    "midi": 70,
                    "time": 29.8125,
                    "velocity": 0.28346456692913385,
                    "duration": 0.1875
                },
                {
                    "name": "C5",
                    "midi": 72,
                    "time": 30,
                    "velocity": 0.4015748031496063,
                    "duration": 0.375
                },
                {
                    "name": "C4",
                    "midi": 60,
                    "time": 30.1875,
                    "velocity": 0.2677165354330709,
                    "duration": 0.1875
                },
                {
                    "name": "A4",
                    "midi": 69,
                    "time": 30.1875,
                    "velocity": 0.2677165354330709,
                    "duration": 0.1875
                },
                {
                    "name": "A4",
                    "midi": 69,
                    "time": 30.375,
                    "velocity": 0.3858267716535433,
                    "duration": 0.375
                },
                {
                    "name": "F4",
                    "midi": 65,
                    "time": 30.5625,
                    "velocity": 0.25984251968503935,
                    "duration": 0.1875
                },
                {
                    "name": "C4",
                    "midi": 60,
                    "time": 30.5625,
                    "velocity": 0.25984251968503935,
                    "duration": 0.1875
                },
                {
                    "name": "G4",
                    "midi": 67,
                    "time": 30.75,
                    "velocity": 0.3700787401574803,
                    "duration": 0.375
                },
                {
                    "name": "C4",
                    "midi": 60,
                    "time": 30.9375,
                    "velocity": 0.25984251968503935,
                    "duration": 0.1875
                },
                {
                    "name": "A4",
                    "midi": 69,
                    "time": 31.125,
                    "velocity": 0.4409448818897638,
                    "duration": 0.375
                },
                {
                    "name": "E4",
                    "midi": 64,
                    "time": 31.3125,
                    "velocity": 0.2677165354330709,
                    "duration": 0.1875
                },
                {
                    "name": "G4",
                    "midi": 67,
                    "time": 31.3125,
                    "velocity": 0.2677165354330709,
                    "duration": 0.1875
                },
                {
                    "name": "A#4",
                    "midi": 70,
                    "time": 31.5,
                    "velocity": 0.47244094488188976,
                    "duration": 0.375
                },
                {
                    "name": "G4",
                    "midi": 67,
                    "time": 31.6875,
                    "velocity": 0.29133858267716534,
                    "duration": 0.1875
                },
                {
                    "name": "E4",
                    "midi": 64,
                    "time": 31.6875,
                    "velocity": 0.29133858267716534,
                    "duration": 0.1875
                },
                {
                    "name": "E5",
                    "midi": 76,
                    "time": 31.875,
                    "velocity": 0.49606299212598426,
                    "duration": 0.375
                },
                {
                    "name": "G4",
                    "midi": 67,
                    "time": 32.0625,
                    "velocity": 0.31496062992125984,
                    "duration": 0.1875
                },
                {
                    "name": "A#4",
                    "midi": 70,
                    "time": 32.0625,
                    "velocity": 0.31496062992125984,
                    "duration": 0.1875
                },
                {
                    "name": "A5",
                    "midi": 81,
                    "time": 32.25,
                    "velocity": 0.5275590551181102,
                    "duration": 0.375
                },
                {
                    "name": "G4",
                    "midi": 67,
                    "time": 32.4375,
                    "velocity": 0.33070866141732286,
                    "duration": 0.1875
                },
                {
                    "name": "A#4",
                    "midi": 70,
                    "time": 32.4375,
                    "velocity": 0.33070866141732286,
                    "duration": 0.1875
                },
                {
                    "name": "G5",
                    "midi": 79,
                    "time": 32.625,
                    "velocity": 0.49606299212598426,
                    "duration": 0.375
                },
                {
                    "name": "A#4",
                    "midi": 70,
                    "time": 32.8125,
                    "velocity": 0.31496062992125984,
                    "duration": 0.1875
                },
                {
                    "name": "G4",
                    "midi": 67,
                    "time": 32.8125,
                    "velocity": 0.31496062992125984,
                    "duration": 0.1875
                },
                {
                    "name": "F#5",
                    "midi": 78,
                    "time": 33,
                    "velocity": 0.5039370078740157,
                    "duration": 0.375
                },
                {
                    "name": "F#4",
                    "midi": 66,
                    "time": 33.1875,
                    "velocity": 0.30708661417322836,
                    "duration": 0.1875
                },
                {
                    "name": "A4",
                    "midi": 69,
                    "time": 33.1875,
                    "velocity": 0.30708661417322836,
                    "duration": 0.1875
                },
                {
                    "name": "C#5",
                    "midi": 73,
                    "time": 33.375,
                    "velocity": 0.4645669291338583,
                    "duration": 0.375
                },
                {
                    "name": "G4",
                    "midi": 67,
                    "time": 33.5625,
                    "velocity": 0.30708661417322836,
                    "duration": 0.1875
                },
                {
                    "name": "A4",
                    "midi": 69,
                    "time": 33.5625,
                    "velocity": 0.30708661417322836,
                    "duration": 0.1875
                },
                {
                    "name": "E5",
                    "midi": 76,
                    "time": 33.75,
                    "velocity": 0.49606299212598426,
                    "duration": 0.375
                },
                {
                    "name": "E4",
                    "midi": 64,
                    "time": 33.9375,
                    "velocity": 0.33070866141732286,
                    "duration": 0.1875
                },
                {
                    "name": "A4",
                    "midi": 69,
                    "time": 33.9375,
                    "velocity": 0.33070866141732286,
                    "duration": 0.1875
                },
                {
                    "name": "D5",
                    "midi": 74,
                    "time": 34.125,
                    "velocity": 0.4881889763779528,
                    "duration": 0.375
                },
                {
                    "name": "D4",
                    "midi": 62,
                    "time": 34.3125,
                    "velocity": 0.30708661417322836,
                    "duration": 0.1875
                },
                {
                    "name": "A4",
                    "midi": 69,
                    "time": 34.3125,
                    "velocity": 0.30708661417322836,
                    "duration": 0.1875
                },
                {
                    "name": "B4",
                    "midi": 71,
                    "time": 34.5,
                    "velocity": 0.4881889763779528,
                    "duration": 0.375
                },
                {
                    "name": "D4",
                    "midi": 62,
                    "time": 34.6875,
                    "velocity": 0.30708661417322836,
                    "duration": 0.1875
                },
                {
                    "name": "G4",
                    "midi": 67,
                    "time": 34.6875,
                    "velocity": 0.30708661417322836,
                    "duration": 0.1875
                },
                {
                    "name": "F#4",
                    "midi": 66,
                    "time": 34.875,
                    "velocity": 0.3858267716535433,
                    "duration": 0.375
                },
                {
                    "name": "C4",
                    "midi": 60,
                    "time": 35.0625,
                    "velocity": 0.2440944881889764,
                    "duration": 0.1875
                },
                {
                    "name": "D4",
                    "midi": 62,
                    "time": 35.0625,
                    "velocity": 0.2440944881889764,
                    "duration": 0.1875
                },
                {
                    "name": "A4",
                    "midi": 69,
                    "time": 35.25,
                    "velocity": 0.4094488188976378,
                    "duration": 0.375
                },
                {
                    "name": "A3",
                    "midi": 57,
                    "time": 35.4375,
                    "velocity": 0.25196850393700787,
                    "duration": 0.1875
                },
                {
                    "name": "D4",
                    "midi": 62,
                    "time": 35.4375,
                    "velocity": 0.25196850393700787,
                    "duration": 0.1875
                },
                {
                    "name": "G4",
                    "midi": 67,
                    "time": 35.625,
                    "velocity": 0.3779527559055118,
                    "duration": 0.375
                },
                {
                    "name": "G3",
                    "midi": 55,
                    "time": 35.8125,
                    "velocity": 0.2440944881889764,
                    "duration": 0.1875
                },
                {
                    "name": "D4",
                    "midi": 62,
                    "time": 35.8125,
                    "velocity": 0.2440944881889764,
                    "duration": 0.1875
                },
                {
                    "name": "F#4",
                    "midi": 66,
                    "time": 36,
                    "velocity": 0.3543307086614173,
                    "duration": 0.375
                },
                {
                    "name": "A3",
                    "midi": 57,
                    "time": 36.1875,
                    "velocity": 0.23622047244094488,
                    "duration": 0.1875
                },
                {
                    "name": "D4",
                    "midi": 62,
                    "time": 36.1875,
                    "velocity": 0.23622047244094488,
                    "duration": 0.1875
                },
                {
                    "name": "E4",
                    "midi": 64,
                    "time": 36.375,
                    "velocity": 0.30708661417322836,
                    "duration": 0.375
                },
                {
                    "name": "G3",
                    "midi": 55,
                    "time": 36.5625,
                    "velocity": 0.2204724409448819,
                    "duration": 0.1875
                },
                {
                    "name": "C#4",
                    "midi": 61,
                    "time": 36.5625,
                    "velocity": 0.2204724409448819,
                    "duration": 0.1875
                },
                {
                    "name": "D4",
                    "midi": 62,
                    "time": 36.75,
                    "velocity": 0.2992125984251969,
                    "duration": 0.375
                },
                {
                    "name": "F#3",
                    "midi": 54,
                    "time": 36.9375,
                    "velocity": 0.1732283464566929,
                    "duration": 0.28125
                },
                {
                    "name": "A3",
                    "midi": 57,
                    "time": 36.9375,
                    "velocity": 0.1732283464566929,
                    "duration": 0.28125
                },
                {
                    "name": "G#4",
                    "midi": 68,
                    "time": 37.125,
                    "velocity": 0.4645669291338583,
                    "duration": 0.375
                },
                {
                    "name": "G4",
                    "midi": 67,
                    "time": 37.3125,
                    "velocity": 0.2755905511811024,
                    "duration": 0.1875
                },
                {
                    "name": "E4",
                    "midi": 64,
                    "time": 37.3125,
                    "velocity": 0.2755905511811024,
                    "duration": 0.1875
                },
                {
                    "name": "A4",
                    "midi": 69,
                    "time": 37.5,
                    "velocity": 0.4881889763779528,
                    "duration": 0.375
                },
                {
                    "name": "E4",
                    "midi": 64,
                    "time": 37.6875,
                    "velocity": 0.2755905511811024,
                    "duration": 0.1875
                },
                {
                    "name": "G4",
                    "midi": 67,
                    "time": 37.6875,
                    "velocity": 0.2755905511811024,
                    "duration": 0.1875
                },
                {
                    "name": "C#5",
                    "midi": 73,
                    "time": 37.875,
                    "velocity": 0.5039370078740157,
                    "duration": 0.375
                },
                {
                    "name": "G4",
                    "midi": 67,
                    "time": 38.0625,
                    "velocity": 0.29133858267716534,
                    "duration": 0.1875
                },
                {
                    "name": "A4",
                    "midi": 69,
                    "time": 38.0625,
                    "velocity": 0.29133858267716534,
                    "duration": 0.1875
                },
                {
                    "name": "F#5",
                    "midi": 78,
                    "time": 38.25,
                    "velocity": 0.5511811023622047,
                    "duration": 0.375
                },
                {
                    "name": "G4",
                    "midi": 67,
                    "time": 38.4375,
                    "velocity": 0.31496062992125984,
                    "duration": 0.1875
                },
                {
                    "name": "A4",
                    "midi": 69,
                    "time": 38.4375,
                    "velocity": 0.31496062992125984,
                    "duration": 0.1875
                },
                {
                    "name": "E5",
                    "midi": 76,
                    "time": 38.625,
                    "velocity": 0.5354330708661418,
                    "duration": 0.375
                },
                {
                    "name": "G4",
                    "midi": 67,
                    "time": 38.8125,
                    "velocity": 0.31496062992125984,
                    "duration": 0.1875
                },
                {
                    "name": "A4",
                    "midi": 69,
                    "time": 38.8125,
                    "velocity": 0.31496062992125984,
                    "duration": 0.1875
                },
                {
                    "name": "D5",
                    "midi": 74,
                    "time": 39,
                    "velocity": 0.5196850393700787,
                    "duration": 0.375
                },
                {
                    "name": "D4",
                    "midi": 62,
                    "time": 39.1875,
                    "velocity": 0.2992125984251969,
                    "duration": 0.1875
                },
                {
                    "name": "F#4",
                    "midi": 66,
                    "time": 39.1875,
                    "velocity": 0.2992125984251969,
                    "duration": 0.1875
                },
                {
                    "name": "A4",
                    "midi": 69,
                    "time": 39.375,
                    "velocity": 0.49606299212598426,
                    "duration": 0.375
                },
                {
                    "name": "D4",
                    "midi": 62,
                    "time": 39.5625,
                    "velocity": 0.28346456692913385,
                    "duration": 0.1875
                },
                {
                    "name": "F#4",
                    "midi": 66,
                    "time": 39.5625,
                    "velocity": 0.28346456692913385,
                    "duration": 0.1875
                },
                {
                    "name": "D4",
                    "midi": 62,
                    "time": 39.9375,
                    "velocity": 0.2992125984251969,
                    "duration": 0.1875
                },
                {
                    "name": "F#4",
                    "midi": 66,
                    "time": 39.9375,
                    "velocity": 0.2992125984251969,
                    "duration": 0.1875
                },
                {
                    "name": "A4",
                    "midi": 69,
                    "time": 40.125,
                    "velocity": 0.5039370078740157,
                    "duration": 0.09375
                },
                {
                    "name": "D4",
                    "midi": 62,
                    "time": 40.3125,
                    "velocity": 0.30708661417322836,
                    "duration": 0.1875
                },
                {
                    "name": "F#4",
                    "midi": 66,
                    "time": 40.3125,
                    "velocity": 0.30708661417322836,
                    "duration": 0.1875
                },
                {
                    "name": "A4",
                    "midi": 69,
                    "time": 40.5,
                    "velocity": 0.5275590551181102,
                    "duration": 0.1875
                },
                {
                    "name": "C#4",
                    "midi": 61,
                    "time": 40.6875,
                    "velocity": 0.3779527559055118,
                    "duration": 0.09375
                },
                {
                    "name": "E4",
                    "midi": 64,
                    "time": 40.6875,
                    "velocity": 0.3779527559055118,
                    "duration": 0.09375
                },
                {
                    "name": "C#4",
                    "midi": 61,
                    "time": 40.875,
                    "velocity": 0.4409448818897638,
                    "duration": 0.375
                },
                {
                    "name": "E4",
                    "midi": 64,
                    "time": 40.875,
                    "velocity": 0.4409448818897638,
                    "duration": 0.1875
                },
                {
                    "name": "F#4",
                    "midi": 66,
                    "time": 41.0625,
                    "velocity": 0.3543307086614173,
                    "duration": 0.1875
                },
                {
                    "name": "G4",
                    "midi": 67,
                    "time": 41.25,
                    "velocity": 0.4645669291338583,
                    "duration": 0.375
                },
                {
                    "name": "C#4",
                    "midi": 61,
                    "time": 41.4375,
                    "velocity": 0.33070866141732286,
                    "duration": 0.1875
                },
                {
                    "name": "E4",
                    "midi": 64,
                    "time": 41.4375,
                    "velocity": 0.33070866141732286,
                    "duration": 0.1875
                },
                {
                    "name": "B4",
                    "midi": 71,
                    "time": 41.625,
                    "velocity": 0.4645669291338583,
                    "duration": 0.375
                },
                {
                    "name": "B3",
                    "midi": 59,
                    "time": 41.8125,
                    "velocity": 0.33858267716535434,
                    "duration": 0.1875
                },
                {
                    "name": "G4",
                    "midi": 67,
                    "time": 41.8125,
                    "velocity": 0.33858267716535434,
                    "duration": 0.1875
                },
                {
                    "name": "A4",
                    "midi": 69,
                    "time": 42,
                    "velocity": 0.44881889763779526,
                    "duration": 0.375
                },
                {
                    "name": "A3",
                    "midi": 57,
                    "time": 42.1875,
                    "velocity": 0.30708661417322836,
                    "duration": 0.1875
                },
                {
                    "name": "F#4",
                    "midi": 66,
                    "time": 42.1875,
                    "velocity": 0.30708661417322836,
                    "duration": 0.1875
                },
                {
                    "name": "F#4",
                    "midi": 66,
                    "time": 42.375,
                    "velocity": 0.4330708661417323,
                    "duration": 0.375
                },
                {
                    "name": "A3",
                    "midi": 57,
                    "time": 42.5625,
                    "velocity": 0.28346456692913385,
                    "duration": 0.1875
                },
                {
                    "name": "D4",
                    "midi": 62,
                    "time": 42.5625,
                    "velocity": 0.28346456692913385,
                    "duration": 0.1875
                },
                {
                    "name": "E4",
                    "midi": 64,
                    "time": 42.75,
                    "velocity": 0.41732283464566927,
                    "duration": 0.375
                },
                {
                    "name": "A3",
                    "midi": 57,
                    "time": 42.9375,
                    "velocity": 0.2677165354330709,
                    "duration": 0.1875
                },
                {
                    "name": "C#4",
                    "midi": 61,
                    "time": 42.9375,
                    "velocity": 0.2677165354330709,
                    "duration": 0.1875
                },
                {
                    "name": "G#4",
                    "midi": 68,
                    "time": 43.125,
                    "velocity": 0.4645669291338583,
                    "duration": 0.375
                },
                {
                    "name": "E4",
                    "midi": 64,
                    "time": 43.3125,
                    "velocity": 0.31496062992125984,
                    "duration": 0.1875
                },
                {
                    "name": "G4",
                    "midi": 67,
                    "time": 43.3125,
                    "velocity": 0.31496062992125984,
                    "duration": 0.1875
                },
                {
                    "name": "A4",
                    "midi": 69,
                    "time": 43.5,
                    "velocity": 0.5433070866141733,
                    "duration": 0.75
                },
                {
                    "name": "E4",
                    "midi": 64,
                    "time": 43.6875,
                    "velocity": 0.2992125984251969,
                    "duration": 0.1875
                },
                {
                    "name": "G4",
                    "midi": 67,
                    "time": 43.6875,
                    "velocity": 0.2992125984251969,
                    "duration": 0.1875
                },
                {
                    "name": "G3",
                    "midi": 55,
                    "time": 44.0625,
                    "velocity": 0.31496062992125984,
                    "duration": 0.1875
                },
                {
                    "name": "A3",
                    "midi": 57,
                    "time": 44.0625,
                    "velocity": 0.31496062992125984,
                    "duration": 0.1875
                },
                {
                    "name": "G3",
                    "midi": 55,
                    "time": 44.4375,
                    "velocity": 0.2992125984251969,
                    "duration": 0.1875
                },
                {
                    "name": "A3",
                    "midi": 57,
                    "time": 44.4375,
                    "velocity": 0.2992125984251969,
                    "duration": 0.1875
                },
                {
                    "name": "C#4",
                    "midi": 61,
                    "time": 44.625,
                    "velocity": 0.3543307086614173,
                    "duration": 0.375
                },
                {
                    "name": "G3",
                    "midi": 55,
                    "time": 44.8125,
                    "velocity": 0.2992125984251969,
                    "duration": 0.1875
                },
                {
                    "name": "A3",
                    "midi": 57,
                    "time": 44.8125,
                    "velocity": 0.2992125984251969,
                    "duration": 0.1875
                },
                {
                    "name": "D4",
                    "midi": 62,
                    "time": 45,
                    "velocity": 0.4881889763779528,
                    "duration": 0.375
                },
                {
                    "name": "A3",
                    "midi": 57,
                    "time": 45.1875,
                    "velocity": 0.2992125984251969,
                    "duration": 0.1875
                },
                {
                    "name": "F#3",
                    "midi": 54,
                    "time": 45.1875,
                    "velocity": 0.2992125984251969,
                    "duration": 0.1875
                },
                {
                    "name": "F#4",
                    "midi": 66,
                    "time": 45.375,
                    "velocity": 0.5039370078740157,
                    "duration": 0.375
                },
                {
                    "name": "A3",
                    "midi": 57,
                    "time": 45.5625,
                    "velocity": 0.30708661417322836,
                    "duration": 0.1875
                },
                {
                    "name": "D4",
                    "midi": 62,
                    "time": 45.5625,
                    "velocity": 0.30708661417322836,
                    "duration": 0.1875
                },
                {
                    "name": "B4",
                    "midi": 71,
                    "time": 45.75,
                    "velocity": 0.5354330708661418,
                    "duration": 0.375
                },
                {
                    "name": "F#4",
                    "midi": 66,
                    "time": 45.9375,
                    "velocity": 0.31496062992125984,
                    "duration": 0.1875
                },
                {
                    "name": "D4",
                    "midi": 62,
                    "time": 45.9375,
                    "velocity": 0.31496062992125984,
                    "duration": 0.1875
                },
                {
                    "name": "A4",
                    "midi": 69,
                    "time": 46.125,
                    "velocity": 0.5354330708661418,
                    "duration": 0.375
                },
                {
                    "name": "F#4",
                    "midi": 66,
                    "time": 46.3125,
                    "velocity": 0.31496062992125984,
                    "duration": 0.1875
                },
                {
                    "name": "D4",
                    "midi": 62,
                    "time": 46.3125,
                    "velocity": 0.31496062992125984,
                    "duration": 0.1875
                },
                {
                    "name": "G4",
                    "midi": 67,
                    "time": 46.5,
                    "velocity": 0.5354330708661418,
                    "duration": 0.375
                },
                {
                    "name": "D4",
                    "midi": 62,
                    "time": 46.6875,
                    "velocity": 0.31496062992125984,
                    "duration": 0.1875
                },
                {
                    "name": "G3",
                    "midi": 55,
                    "time": 46.6875,
                    "velocity": 0.31496062992125984,
                    "duration": 0.1875
                },
                {
                    "name": "B4",
                    "midi": 71,
                    "time": 46.875,
                    "velocity": 0.5511811023622047,
                    "duration": 0.375
                },
                {
                    "name": "D4",
                    "midi": 62,
                    "time": 47.0625,
                    "velocity": 0.33070866141732286,
                    "duration": 0.1875
                },
                {
                    "name": "G4",
                    "midi": 67,
                    "time": 47.0625,
                    "velocity": 0.33070866141732286,
                    "duration": 0.1875
                },
                {
                    "name": "E5",
                    "midi": 76,
                    "time": 47.25,
                    "velocity": 0.5826771653543307,
                    "duration": 0.375
                },
                {
                    "name": "G4",
                    "midi": 67,
                    "time": 47.4375,
                    "velocity": 0.3464566929133858,
                    "duration": 0.1875
                },
                {
                    "name": "E4",
                    "midi": 64,
                    "time": 47.4375,
                    "velocity": 0.3464566929133858,
                    "duration": 0.1875
                },
                {
                    "name": "D5",
                    "midi": 74,
                    "time": 47.625,
                    "velocity": 0.5669291338582677,
                    "duration": 0.375
                },
                {
                    "name": "G4",
                    "midi": 67,
                    "time": 47.8125,
                    "velocity": 0.3228346456692913,
                    "duration": 0.1875
                },
                {
                    "name": "D4",
                    "midi": 62,
                    "time": 47.8125,
                    "velocity": 0.3228346456692913,
                    "duration": 0.1875
                },
                {
                    "name": "C#5",
                    "midi": 73,
                    "time": 48,
                    "velocity": 0.49606299212598426,
                    "duration": 0.375
                },
                {
                    "name": "C#4",
                    "midi": 61,
                    "time": 48.1875,
                    "velocity": 0.2992125984251969,
                    "duration": 0.1875
                },
                {
                    "name": "G4",
                    "midi": 67,
                    "time": 48.1875,
                    "velocity": 0.2992125984251969,
                    "duration": 0.1875
                },
                {
                    "name": "B4",
                    "midi": 71,
                    "time": 48.375,
                    "velocity": 0.4566929133858268,
                    "duration": 0.375
                },
                {
                    "name": "D4",
                    "midi": 62,
                    "time": 48.5625,
                    "velocity": 0.2992125984251969,
                    "duration": 0.1875
                },
                {
                    "name": "G4",
                    "midi": 67,
                    "time": 48.5625,
                    "velocity": 0.2992125984251969,
                    "duration": 0.1875
                },
                {
                    "name": "A4",
                    "midi": 69,
                    "time": 48.75,
                    "velocity": 0.41732283464566927,
                    "duration": 0.375
                },
                {
                    "name": "D#4",
                    "midi": 63,
                    "time": 48.9375,
                    "velocity": 0.2755905511811024,
                    "duration": 0.1875
                },
                {
                    "name": "G4",
                    "midi": 67,
                    "time": 48.9375,
                    "velocity": 0.2755905511811024,
                    "duration": 0.1875
                },
                {
                    "name": "A4",
                    "midi": 69,
                    "time": 49.125,
                    "velocity": 0.3937007874015748,
                    "duration": 0.375
                },
                {
                    "name": "G4",
                    "midi": 67,
                    "time": 49.3125,
                    "velocity": 0.2283464566929134,
                    "duration": 0.1875
                },
                {
                    "name": "E4",
                    "midi": 64,
                    "time": 49.3125,
                    "velocity": 0.2283464566929134,
                    "duration": 0.1875
                },
                {
                    "name": "A#4",
                    "midi": 70,
                    "time": 49.5,
                    "velocity": 0.4094488188976378,
                    "duration": 0.375
                },
                {
                    "name": "G4",
                    "midi": 67,
                    "time": 49.6875,
                    "velocity": 0.2283464566929134,
                    "duration": 0.1875
                },
                {
                    "name": "E4",
                    "midi": 64,
                    "time": 49.6875,
                    "velocity": 0.2283464566929134,
                    "duration": 0.1875
                },
                {
                    "name": "E5",
                    "midi": 76,
                    "time": 49.875,
                    "velocity": 0.4251968503937008,
                    "duration": 0.375
                },
                {
                    "name": "G4",
                    "midi": 67,
                    "time": 50.0625,
                    "velocity": 0.2440944881889764,
                    "duration": 0.1875
                },
                {
                    "name": "A#4",
                    "midi": 70,
                    "time": 50.0625,
                    "velocity": 0.2440944881889764,
                    "duration": 0.1875
                },
                {
                    "name": "A5",
                    "midi": 81,
                    "time": 50.25,
                    "velocity": 0.44881889763779526,
                    "duration": 0.375
                },
                {
                    "name": "G4",
                    "midi": 67,
                    "time": 50.4375,
                    "velocity": 0.2677165354330709,
                    "duration": 0.1875
                },
                {
                    "name": "A#4",
                    "midi": 70,
                    "time": 50.4375,
                    "velocity": 0.2677165354330709,
                    "duration": 0.1875
                },
                {
                    "name": "G5",
                    "midi": 79,
                    "time": 50.625,
                    "velocity": 0.44881889763779526,
                    "duration": 0.375
                },
                {
                    "name": "A#4",
                    "midi": 70,
                    "time": 50.8125,
                    "velocity": 0.2677165354330709,
                    "duration": 0.1875
                },
                {
                    "name": "G4",
                    "midi": 67,
                    "time": 50.8125,
                    "velocity": 0.2677165354330709,
                    "duration": 0.1875
                },
                {
                    "name": "F5",
                    "midi": 77,
                    "time": 51,
                    "velocity": 0.4409448818897638,
                    "duration": 0.375
                },
                {
                    "name": "A4",
                    "midi": 69,
                    "time": 51.1875,
                    "velocity": 0.25196850393700787,
                    "duration": 0.1875
                },
                {
                    "name": "F4",
                    "midi": 65,
                    "time": 51.1875,
                    "velocity": 0.25196850393700787,
                    "duration": 0.1875
                },
                {
                    "name": "C5",
                    "midi": 72,
                    "time": 51.375,
                    "velocity": 0.41732283464566927,
                    "duration": 0.375
                },
                {
                    "name": "F4",
                    "midi": 65,
                    "time": 51.5625,
                    "velocity": 0.23622047244094488,
                    "duration": 0.1875
                },
                {
                    "name": "A4",
                    "midi": 69,
                    "time": 51.5625,
                    "velocity": 0.23622047244094488,
                    "duration": 0.1875
                },
                {
                    "name": "A4",
                    "midi": 69,
                    "time": 51.9375,
                    "velocity": 0.25196850393700787,
                    "duration": 0.1875
                },
                {
                    "name": "F4",
                    "midi": 65,
                    "time": 51.9375,
                    "velocity": 0.25196850393700787,
                    "duration": 0.1875
                },
                {
                    "name": "C5",
                    "midi": 72,
                    "time": 52.125,
                    "velocity": 0.4251968503937008,
                    "duration": 0.09375
                },
                {
                    "name": "F4",
                    "midi": 65,
                    "time": 52.3125,
                    "velocity": 0.25984251968503935,
                    "duration": 0.1875
                },
                {
                    "name": "A4",
                    "midi": 69,
                    "time": 52.3125,
                    "velocity": 0.25984251968503935,
                    "duration": 0.1875
                },
                {
                    "name": "C5",
                    "midi": 72,
                    "time": 52.5,
                    "velocity": 0.4409448818897638,
                    "duration": 0.1875
                },
                {
                    "name": "G4",
                    "midi": 67,
                    "time": 52.6875,
                    "velocity": 0.31496062992125984,
                    "duration": 0.09375
                },
                {
                    "name": "E4",
                    "midi": 64,
                    "time": 52.6875,
                    "velocity": 0.31496062992125984,
                    "duration": 0.09375
                },
                {
                    "name": "G4",
                    "midi": 67,
                    "time": 52.875,
                    "velocity": 0.3700787401574803,
                    "duration": 0.1875
                },
                {
                    "name": "E4",
                    "midi": 64,
                    "time": 52.875,
                    "velocity": 0.3700787401574803,
                    "duration": 0.375
                },
                {
                    "name": "A4",
                    "midi": 69,
                    "time": 53.0625,
                    "velocity": 0.2992125984251969,
                    "duration": 0.1875
                },
                {
                    "name": "A#4",
                    "midi": 70,
                    "time": 53.25,
                    "velocity": 0.3937007874015748,
                    "duration": 0.375
                },
                {
                    "name": "G4",
                    "midi": 67,
                    "time": 53.4375,
                    "velocity": 0.2755905511811024,
                    "duration": 0.1875
                },
                {
                    "name": "E4",
                    "midi": 64,
                    "time": 53.4375,
                    "velocity": 0.2755905511811024,
                    "duration": 0.1875
                },
                {
                    "name": "D5",
                    "midi": 74,
                    "time": 53.625,
                    "velocity": 0.4094488188976378,
                    "duration": 0.375
                },
                {
                    "name": "C4",
                    "midi": 60,
                    "time": 53.8125,
                    "velocity": 0.28346456692913385,
                    "duration": 0.1875
                },
                {
                    "name": "A#4",
                    "midi": 70,
                    "time": 53.8125,
                    "velocity": 0.28346456692913385,
                    "duration": 0.1875
                },
                {
                    "name": "C5",
                    "midi": 72,
                    "time": 54,
                    "velocity": 0.4015748031496063,
                    "duration": 0.375
                },
                {
                    "name": "C4",
                    "midi": 60,
                    "time": 54.1875,
                    "velocity": 0.2677165354330709,
                    "duration": 0.1875
                },
                {
                    "name": "A4",
                    "midi": 69,
                    "time": 54.1875,
                    "velocity": 0.2677165354330709,
                    "duration": 0.1875
                },
                {
                    "name": "A4",
                    "midi": 69,
                    "time": 54.375,
                    "velocity": 0.3858267716535433,
                    "duration": 0.375
                },
                {
                    "name": "F4",
                    "midi": 65,
                    "time": 54.5625,
                    "velocity": 0.25984251968503935,
                    "duration": 0.1875
                },
                {
                    "name": "C4",
                    "midi": 60,
                    "time": 54.5625,
                    "velocity": 0.25984251968503935,
                    "duration": 0.1875
                },
                {
                    "name": "G4",
                    "midi": 67,
                    "time": 54.75,
                    "velocity": 0.3700787401574803,
                    "duration": 0.375
                },
                {
                    "name": "C4",
                    "midi": 60,
                    "time": 54.9375,
                    "velocity": 0.25984251968503935,
                    "duration": 0.1875
                },
                {
                    "name": "A4",
                    "midi": 69,
                    "time": 55.125,
                    "velocity": 0.4409448818897638,
                    "duration": 0.375
                },
                {
                    "name": "E4",
                    "midi": 64,
                    "time": 55.3125,
                    "velocity": 0.2677165354330709,
                    "duration": 0.1875
                },
                {
                    "name": "G4",
                    "midi": 67,
                    "time": 55.3125,
                    "velocity": 0.2677165354330709,
                    "duration": 0.1875
                },
                {
                    "name": "A#4",
                    "midi": 70,
                    "time": 55.5,
                    "velocity": 0.4881889763779528,
                    "duration": 0.375
                },
                {
                    "name": "G4",
                    "midi": 67,
                    "time": 55.6875,
                    "velocity": 0.29133858267716534,
                    "duration": 0.1875
                },
                {
                    "name": "E4",
                    "midi": 64,
                    "time": 55.6875,
                    "velocity": 0.29133858267716534,
                    "duration": 0.1875
                },
                {
                    "name": "E5",
                    "midi": 76,
                    "time": 55.875,
                    "velocity": 0.5118110236220472,
                    "duration": 0.375
                },
                {
                    "name": "G4",
                    "midi": 67,
                    "time": 56.0625,
                    "velocity": 0.31496062992125984,
                    "duration": 0.1875
                },
                {
                    "name": "A#4",
                    "midi": 70,
                    "time": 56.0625,
                    "velocity": 0.31496062992125984,
                    "duration": 0.1875
                },
                {
                    "name": "A5",
                    "midi": 81,
                    "time": 56.25,
                    "velocity": 0.5433070866141733,
                    "duration": 0.375
                },
                {
                    "name": "G4",
                    "midi": 67,
                    "time": 56.4375,
                    "velocity": 0.33070866141732286,
                    "duration": 0.1875
                },
                {
                    "name": "A#4",
                    "midi": 70,
                    "time": 56.4375,
                    "velocity": 0.33070866141732286,
                    "duration": 0.1875
                },
                {
                    "name": "G5",
                    "midi": 79,
                    "time": 56.625,
                    "velocity": 0.49606299212598426,
                    "duration": 0.375
                },
                {
                    "name": "A#4",
                    "midi": 70,
                    "time": 56.8125,
                    "velocity": 0.31496062992125984,
                    "duration": 0.1875
                },
                {
                    "name": "G4",
                    "midi": 67,
                    "time": 56.8125,
                    "velocity": 0.31496062992125984,
                    "duration": 0.1875
                },
                {
                    "name": "F#5",
                    "midi": 78,
                    "time": 57,
                    "velocity": 0.5039370078740157,
                    "duration": 0.375
                },
                {
                    "name": "F#4",
                    "midi": 66,
                    "time": 57.1875,
                    "velocity": 0.30708661417322836,
                    "duration": 0.1875
                },
                {
                    "name": "A4",
                    "midi": 69,
                    "time": 57.1875,
                    "velocity": 0.30708661417322836,
                    "duration": 0.1875
                },
                {
                    "name": "C#5",
                    "midi": 73,
                    "time": 57.375,
                    "velocity": 0.4645669291338583,
                    "duration": 0.375
                },
                {
                    "name": "G4",
                    "midi": 67,
                    "time": 57.5625,
                    "velocity": 0.30708661417322836,
                    "duration": 0.1875
                },
                {
                    "name": "A4",
                    "midi": 69,
                    "time": 57.5625,
                    "velocity": 0.30708661417322836,
                    "duration": 0.1875
                },
                {
                    "name": "E5",
                    "midi": 76,
                    "time": 57.75,
                    "velocity": 0.49606299212598426,
                    "duration": 0.375
                },
                {
                    "name": "E4",
                    "midi": 64,
                    "time": 57.9375,
                    "velocity": 0.33070866141732286,
                    "duration": 0.1875
                },
                {
                    "name": "A4",
                    "midi": 69,
                    "time": 57.9375,
                    "velocity": 0.33070866141732286,
                    "duration": 0.1875
                },
                {
                    "name": "D5",
                    "midi": 74,
                    "time": 58.125,
                    "velocity": 0.4881889763779528,
                    "duration": 0.375
                },
                {
                    "name": "D4",
                    "midi": 62,
                    "time": 58.3125,
                    "velocity": 0.30708661417322836,
                    "duration": 0.1875
                },
                {
                    "name": "A4",
                    "midi": 69,
                    "time": 58.3125,
                    "velocity": 0.30708661417322836,
                    "duration": 0.1875
                },
                {
                    "name": "B4",
                    "midi": 71,
                    "time": 58.5,
                    "velocity": 0.4881889763779528,
                    "duration": 0.375
                },
                {
                    "name": "D4",
                    "midi": 62,
                    "time": 58.6875,
                    "velocity": 0.30708661417322836,
                    "duration": 0.1875
                },
                {
                    "name": "G4",
                    "midi": 67,
                    "time": 58.6875,
                    "velocity": 0.30708661417322836,
                    "duration": 0.1875
                },
                {
                    "name": "F#4",
                    "midi": 66,
                    "time": 58.875,
                    "velocity": 0.3858267716535433,
                    "duration": 0.375
                },
                {
                    "name": "C4",
                    "midi": 60,
                    "time": 59.0625,
                    "velocity": 0.2440944881889764,
                    "duration": 0.1875
                },
                {
                    "name": "D4",
                    "midi": 62,
                    "time": 59.0625,
                    "velocity": 0.2440944881889764,
                    "duration": 0.1875
                },
                {
                    "name": "A4",
                    "midi": 69,
                    "time": 59.25,
                    "velocity": 0.4094488188976378,
                    "duration": 0.375
                },
                {
                    "name": "A3",
                    "midi": 57,
                    "time": 59.4375,
                    "velocity": 0.25196850393700787,
                    "duration": 0.1875
                },
                {
                    "name": "D4",
                    "midi": 62,
                    "time": 59.4375,
                    "velocity": 0.25196850393700787,
                    "duration": 0.1875
                },
                {
                    "name": "G4",
                    "midi": 67,
                    "time": 59.625,
                    "velocity": 0.3779527559055118,
                    "duration": 0.375
                },
                {
                    "name": "G3",
                    "midi": 55,
                    "time": 59.8125,
                    "velocity": 0.2440944881889764,
                    "duration": 0.1875
                },
                {
                    "name": "D4",
                    "midi": 62,
                    "time": 59.8125,
                    "velocity": 0.2440944881889764,
                    "duration": 0.1875
                },
                {
                    "name": "F#4",
                    "midi": 66,
                    "time": 60,
                    "velocity": 0.3543307086614173,
                    "duration": 0.375
                },
                {
                    "name": "A3",
                    "midi": 57,
                    "time": 60.1875,
                    "velocity": 0.23622047244094488,
                    "duration": 0.1875
                },
                {
                    "name": "D4",
                    "midi": 62,
                    "time": 60.1875,
                    "velocity": 0.23622047244094488,
                    "duration": 0.1875
                },
                {
                    "name": "E4",
                    "midi": 64,
                    "time": 60.375,
                    "velocity": 0.30708661417322836,
                    "duration": 0.375
                },
                {
                    "name": "G3",
                    "midi": 55,
                    "time": 60.5625,
                    "velocity": 0.2204724409448819,
                    "duration": 0.1875
                },
                {
                    "name": "C#4",
                    "midi": 61,
                    "time": 60.5625,
                    "velocity": 0.2204724409448819,
                    "duration": 0.1875
                },
                {
                    "name": "D4",
                    "midi": 62,
                    "time": 60.75,
                    "velocity": 0.2992125984251969,
                    "duration": 0.75
                },
                {
                    "name": "F#3",
                    "midi": 54,
                    "time": 60.9375,
                    "velocity": 0.1732283464566929,
                    "duration": 0.5625
                },
                {
                    "name": "A3",
                    "midi": 57,
                    "time": 60.9375,
                    "velocity": 0.1732283464566929,
                    "duration": 0.5625
                }
            ],
            "controlChanges": {
                "7": [
                    {
                        "number": 7,
                        "time": 0,
                        "value": 0.7874015748031497
                    }
                ],
                "10": [
                    {
                        "number": 10,
                        "time": 0,
                        "value": 0.5039370078740157
                    }
                ],
                "91": [
                    {
                        "number": 91,
                        "time": 1.1234374999999999,
                        "value": 1
                    },
                    {
                        "number": 91,
                        "time": 25.1234375,
                        "value": 1
                    },
                    {
                        "number": 91,
                        "time": 49.1234375,
                        "value": 1
                    }
                ]
            },
            "id": 1,
            "name": "Piano right",
            "instrumentNumber": 0,
            "instrument": "acoustic grand piano",
            "instrumentFamily": "piano",
            "channelNumber": 0,
            "isPercussion": false
        },
        {
            "startTime": 1.5,
            "duration": 61.499999999999986,
            "length": 208,
            "notes": [
                {
                    "name": "A2",
                    "midi": 45,
                    "time": 1.5,
                    "velocity": 0.4015748031496063,
                    "duration": 0.1875
                },
                {
                    "name": "A1",
                    "midi": 33,
                    "time": 1.5,
                    "velocity": 0.4015748031496063,
                    "duration": 0.1875
                },
                {
                    "name": "C#3",
                    "midi": 49,
                    "time": 2.625,
                    "velocity": 0.4015748031496063,
                    "duration": 0.375
                },
                {
                    "name": "A2",
                    "midi": 45,
                    "time": 3,
                    "velocity": 0.4251968503937008,
                    "duration": 1.5
                },
                {
                    "name": "D3",
                    "midi": 50,
                    "time": 3,
                    "velocity": 0.4251968503937008,
                    "duration": 0.375
                },
                {
                    "name": "F#3",
                    "midi": 54,
                    "time": 3.375,
                    "velocity": 0.44881889763779526,
                    "duration": 0.375
                },
                {
                    "name": "B3",
                    "midi": 59,
                    "time": 3.75,
                    "velocity": 0.48031496062992124,
                    "duration": 0.375
                },
                {
                    "name": "A3",
                    "midi": 57,
                    "time": 4.125,
                    "velocity": 0.4645669291338583,
                    "duration": 0.375
                },
                {
                    "name": "A2",
                    "midi": 45,
                    "time": 4.5,
                    "velocity": 0.4015748031496063,
                    "duration": 0.1875
                },
                {
                    "name": "G3",
                    "midi": 55,
                    "time": 4.6875,
                    "velocity": 0.2992125984251969,
                    "duration": 0.09375
                },
                {
                    "name": "A3",
                    "midi": 57,
                    "time": 4.6875,
                    "velocity": 0.2992125984251969,
                    "duration": 0.09375
                },
                {
                    "name": "G3",
                    "midi": 55,
                    "time": 4.875,
                    "velocity": 0.3228346456692913,
                    "duration": 0.1875
                },
                {
                    "name": "A3",
                    "midi": 57,
                    "time": 4.875,
                    "velocity": 0.3228346456692913,
                    "duration": 0.75
                },
                {
                    "name": "F#3",
                    "midi": 54,
                    "time": 5.0625,
                    "velocity": 0.2992125984251969,
                    "duration": 0.1875
                },
                {
                    "name": "E3",
                    "midi": 52,
                    "time": 5.25,
                    "velocity": 0.4015748031496063,
                    "duration": 0.375
                },
                {
                    "name": "A1",
                    "midi": 33,
                    "time": 5.625,
                    "velocity": 0.3464566929133858,
                    "duration": 0.375
                },
                {
                    "name": "A2",
                    "midi": 45,
                    "time": 5.625,
                    "velocity": 0.3464566929133858,
                    "duration": 1.6875
                },
                {
                    "name": "D2",
                    "midi": 38,
                    "time": 6,
                    "velocity": 0.4094488188976378,
                    "duration": 0.375
                },
                {
                    "name": "F#2",
                    "midi": 42,
                    "time": 6.375,
                    "velocity": 0.3858267716535433,
                    "duration": 0.375
                },
                {
                    "name": "A2",
                    "midi": 45,
                    "time": 6.75,
                    "velocity": 0.3543307086614173,
                    "duration": 0.75
                },
                {
                    "name": "A1",
                    "midi": 33,
                    "time": 7.3125,
                    "velocity": 0.41732283464566927,
                    "duration": 0.1875
                },
                {
                    "name": "A2",
                    "midi": 45,
                    "time": 7.5,
                    "velocity": 0.41732283464566927,
                    "duration": 1.5000000000000018
                },
                {
                    "name": "C#3",
                    "midi": 49,
                    "time": 7.875,
                    "velocity": 0.4566929133858268,
                    "duration": 0.375
                },
                {
                    "name": "F#3",
                    "midi": 54,
                    "time": 8.25,
                    "velocity": 0.49606299212598426,
                    "duration": 0.3750000000000018
                },
                {
                    "name": "E3",
                    "midi": 52,
                    "time": 8.625000000000002,
                    "velocity": 0.48031496062992124,
                    "duration": 0.375
                },
                {
                    "name": "D2",
                    "midi": 38,
                    "time": 9.000000000000002,
                    "velocity": 0.4015748031496063,
                    "duration": 1.125
                },
                {
                    "name": "D3",
                    "midi": 50,
                    "time": 9.000000000000002,
                    "velocity": 0.4015748031496063,
                    "duration": 1.125
                },
                {
                    "name": "C2",
                    "midi": 36,
                    "time": 10.125000000000002,
                    "velocity": 0.3700787401574803,
                    "duration": 0.375
                },
                {
                    "name": "C3",
                    "midi": 48,
                    "time": 10.125000000000002,
                    "velocity": 0.3700787401574803,
                    "duration": 0.375
                },
                {
                    "name": "B1",
                    "midi": 35,
                    "time": 10.500000000000002,
                    "velocity": 0.4409448818897638,
                    "duration": 1.1249999999999982
                },
                {
                    "name": "B2",
                    "midi": 47,
                    "time": 10.500000000000002,
                    "velocity": 0.4409448818897638,
                    "duration": 1.1249999999999982
                },
                {
                    "name": "A#1",
                    "midi": 34,
                    "time": 11.625,
                    "velocity": 0.33858267716535434,
                    "duration": 0.375
                },
                {
                    "name": "A#2",
                    "midi": 46,
                    "time": 11.625,
                    "velocity": 0.33858267716535434,
                    "duration": 0.375
                },
                {
                    "name": "A1",
                    "midi": 33,
                    "time": 12,
                    "velocity": 0.3543307086614173,
                    "duration": 0.375
                },
                {
                    "name": "A2",
                    "midi": 45,
                    "time": 12,
                    "velocity": 0.3543307086614173,
                    "duration": 0.375
                },
                {
                    "name": "B1",
                    "midi": 35,
                    "time": 12.375,
                    "velocity": 0.33858267716535434,
                    "duration": 0.375
                },
                {
                    "name": "B2",
                    "midi": 47,
                    "time": 12.375,
                    "velocity": 0.33858267716535434,
                    "duration": 0.375
                },
                {
                    "name": "C2",
                    "midi": 36,
                    "time": 12.75,
                    "velocity": 0.31496062992125984,
                    "duration": 0.375
                },
                {
                    "name": "C3",
                    "midi": 48,
                    "time": 12.75,
                    "velocity": 0.31496062992125984,
                    "duration": 0.375
                },
                {
                    "name": "C#2",
                    "midi": 37,
                    "time": 13.125,
                    "velocity": 0.4015748031496063,
                    "duration": 0.7500000000000018
                },
                {
                    "name": "C#3",
                    "midi": 49,
                    "time": 13.125,
                    "velocity": 0.4015748031496063,
                    "duration": 0.7500000000000018
                },
                {
                    "name": "A1",
                    "midi": 33,
                    "time": 13.875000000000002,
                    "velocity": 0.4015748031496063,
                    "duration": 0.375
                },
                {
                    "name": "C#3",
                    "midi": 49,
                    "time": 14.625000000000002,
                    "velocity": 0.4015748031496063,
                    "duration": 0.375
                },
                {
                    "name": "A2",
                    "midi": 45,
                    "time": 15.000000000000002,
                    "velocity": 0.4251968503937008,
                    "duration": 1.4999999999999982
                },
                {
                    "name": "D3",
                    "midi": 50,
                    "time": 15.000000000000002,
                    "velocity": 0.4251968503937008,
                    "duration": 0.375
                },
                {
                    "name": "F#3",
                    "midi": 54,
                    "time": 15.375000000000002,
                    "velocity": 0.44881889763779526,
                    "duration": 0.375
                },
                {
                    "name": "B3",
                    "midi": 59,
                    "time": 15.750000000000002,
                    "velocity": 0.48031496062992124,
                    "duration": 0.3749999999999982
                },
                {
                    "name": "A3",
                    "midi": 57,
                    "time": 16.125,
                    "velocity": 0.4645669291338583,
                    "duration": 0.375
                },
                {
                    "name": "A2",
                    "midi": 45,
                    "time": 16.5,
                    "velocity": 0.4015748031496063,
                    "duration": 0.1875
                },
                {
                    "name": "G3",
                    "midi": 55,
                    "time": 16.6875,
                    "velocity": 0.2992125984251969,
                    "duration": 0.09375
                },
                {
                    "name": "A3",
                    "midi": 57,
                    "time": 16.6875,
                    "velocity": 0.2992125984251969,
                    "duration": 0.09375
                },
                {
                    "name": "G3",
                    "midi": 55,
                    "time": 16.875,
                    "velocity": 0.3228346456692913,
                    "duration": 0.1875
                },
                {
                    "name": "A3",
                    "midi": 57,
                    "time": 16.875,
                    "velocity": 0.3228346456692913,
                    "duration": 0.75
                },
                {
                    "name": "F#3",
                    "midi": 54,
                    "time": 17.0625,
                    "velocity": 0.2992125984251969,
                    "duration": 0.1875
                },
                {
                    "name": "E3",
                    "midi": 52,
                    "time": 17.25,
                    "velocity": 0.4015748031496063,
                    "duration": 0.375
                },
                {
                    "name": "A1",
                    "midi": 33,
                    "time": 17.625,
                    "velocity": 0.3464566929133858,
                    "duration": 0.375
                },
                {
                    "name": "A2",
                    "midi": 45,
                    "time": 17.625,
                    "velocity": 0.3464566929133858,
                    "duration": 1.6875000000000036
                },
                {
                    "name": "D2",
                    "midi": 38,
                    "time": 18,
                    "velocity": 0.4015748031496063,
                    "duration": 0.375
                },
                {
                    "name": "F#2",
                    "midi": 42,
                    "time": 18.375,
                    "velocity": 0.3700787401574803,
                    "duration": 0.375
                },
                {
                    "name": "A2",
                    "midi": 45,
                    "time": 18.75,
                    "velocity": 0.3543307086614173,
                    "duration": 0.7500000000000036
                },
                {
                    "name": "A1",
                    "midi": 33,
                    "time": 19.312500000000004,
                    "velocity": 0.41732283464566927,
                    "duration": 0.1875
                },
                {
                    "name": "A2",
                    "midi": 45,
                    "time": 19.500000000000004,
                    "velocity": 0.41732283464566927,
                    "duration": 1.5
                },
                {
                    "name": "C#3",
                    "midi": 49,
                    "time": 19.875000000000004,
                    "velocity": 0.4566929133858268,
                    "duration": 0.375
                },
                {
                    "name": "F#3",
                    "midi": 54,
                    "time": 20.250000000000004,
                    "velocity": 0.49606299212598426,
                    "duration": 0.375
                },
                {
                    "name": "E3",
                    "midi": 52,
                    "time": 20.625000000000004,
                    "velocity": 0.48031496062992124,
                    "duration": 0.375
                },
                {
                    "name": "D2",
                    "midi": 38,
                    "time": 21.000000000000004,
                    "velocity": 0.4015748031496063,
                    "duration": 1.1250000000000036
                },
                {
                    "name": "D3",
                    "midi": 50,
                    "time": 21.000000000000004,
                    "velocity": 0.4015748031496063,
                    "duration": 1.1250000000000036
                },
                {
                    "name": "C2",
                    "midi": 36,
                    "time": 22.125000000000007,
                    "velocity": 0.3700787401574803,
                    "duration": 0.375
                },
                {
                    "name": "C3",
                    "midi": 48,
                    "time": 22.125000000000007,
                    "velocity": 0.3700787401574803,
                    "duration": 0.375
                },
                {
                    "name": "B1",
                    "midi": 35,
                    "time": 22.500000000000007,
                    "velocity": 0.4409448818897638,
                    "duration": 1.1249999999999964
                },
                {
                    "name": "B2",
                    "midi": 47,
                    "time": 22.500000000000007,
                    "velocity": 0.4409448818897638,
                    "duration": 1.1249999999999964
                },
                {
                    "name": "A#1",
                    "midi": 34,
                    "time": 23.625000000000004,
                    "velocity": 0.33858267716535434,
                    "duration": 0.375
                },
                {
                    "name": "A#2",
                    "midi": 46,
                    "time": 23.625000000000004,
                    "velocity": 0.33858267716535434,
                    "duration": 0.375
                },
                {
                    "name": "A1",
                    "midi": 33,
                    "time": 24.000000000000004,
                    "velocity": 0.33070866141732286,
                    "duration": 0.375
                },
                {
                    "name": "A2",
                    "midi": 45,
                    "time": 24.000000000000004,
                    "velocity": 0.33070866141732286,
                    "duration": 0.375
                },
                {
                    "name": "B1",
                    "midi": 35,
                    "time": 24.375000000000004,
                    "velocity": 0.31496062992125984,
                    "duration": 0.375
                },
                {
                    "name": "B2",
                    "midi": 47,
                    "time": 24.375000000000004,
                    "velocity": 0.31496062992125984,
                    "duration": 0.375
                },
                {
                    "name": "C#2",
                    "midi": 37,
                    "time": 24.750000000000004,
                    "velocity": 0.2992125984251969,
                    "duration": 0.37499999999999645
                },
                {
                    "name": "C#3",
                    "midi": 49,
                    "time": 24.750000000000004,
                    "velocity": 0.2992125984251969,
                    "duration": 0.37499999999999645
                },
                {
                    "name": "C2",
                    "midi": 36,
                    "time": 25.125,
                    "velocity": 0.2992125984251969,
                    "duration": 1.5
                },
                {
                    "name": "C3",
                    "midi": 48,
                    "time": 25.125,
                    "velocity": 0.2992125984251969,
                    "duration": 1.5
                },
                {
                    "name": "E3",
                    "midi": 52,
                    "time": 26.625,
                    "velocity": 0.33858267716535434,
                    "duration": 0.375
                },
                {
                    "name": "C3",
                    "midi": 48,
                    "time": 27,
                    "velocity": 0.3543307086614173,
                    "duration": 1.4999999999999964
                },
                {
                    "name": "F3",
                    "midi": 53,
                    "time": 27,
                    "velocity": 0.3543307086614173,
                    "duration": 0.375
                },
                {
                    "name": "A3",
                    "midi": 57,
                    "time": 27.375,
                    "velocity": 0.3779527559055118,
                    "duration": 0.375
                },
                {
                    "name": "D4",
                    "midi": 62,
                    "time": 27.75,
                    "velocity": 0.4015748031496063,
                    "duration": 0.37499999999999645
                },
                {
                    "name": "C4",
                    "midi": 60,
                    "time": 28.124999999999996,
                    "velocity": 0.3937007874015748,
                    "duration": 0.375
                },
                {
                    "name": "C3",
                    "midi": 48,
                    "time": 28.499999999999996,
                    "velocity": 0.33858267716535434,
                    "duration": 0.1875
                },
                {
                    "name": "A#3",
                    "midi": 58,
                    "time": 28.687499999999996,
                    "velocity": 0.25196850393700787,
                    "duration": 0.09375
                },
                {
                    "name": "D4",
                    "midi": 62,
                    "time": 28.687499999999996,
                    "velocity": 0.25196850393700787,
                    "duration": 0.09375
                },
                {
                    "name": "D4",
                    "midi": 62,
                    "time": 28.874999999999996,
                    "velocity": 0.2677165354330709,
                    "duration": 0.75
                },
                {
                    "name": "A#3",
                    "midi": 58,
                    "time": 28.874999999999996,
                    "velocity": 0.2677165354330709,
                    "duration": 0.1875
                },
                {
                    "name": "A3",
                    "midi": 57,
                    "time": 29.062499999999996,
                    "velocity": 0.25196850393700787,
                    "duration": 0.1875
                },
                {
                    "name": "G3",
                    "midi": 55,
                    "time": 29.249999999999996,
                    "velocity": 0.33858267716535434,
                    "duration": 0.375
                },
                {
                    "name": "E3",
                    "midi": 52,
                    "time": 29.624999999999996,
                    "velocity": 0.29133858267716534,
                    "duration": 0.375
                },
                {
                    "name": "C2",
                    "midi": 36,
                    "time": 29.624999999999996,
                    "velocity": 0.29133858267716534,
                    "duration": 0.375
                },
                {
                    "name": "F3",
                    "midi": 53,
                    "time": 29.999999999999996,
                    "velocity": 0.3543307086614173,
                    "duration": 0.75
                },
                {
                    "name": "F2",
                    "midi": 41,
                    "time": 29.999999999999996,
                    "velocity": 0.3543307086614173,
                    "duration": 0.375
                },
                {
                    "name": "A2",
                    "midi": 45,
                    "time": 30.374999999999996,
                    "velocity": 0.31496062992125984,
                    "duration": 0.375
                },
                {
                    "name": "E3",
                    "midi": 52,
                    "time": 30.749999999999996,
                    "velocity": 0.30708661417322836,
                    "duration": 0.75
                },
                {
                    "name": "C3",
                    "midi": 48,
                    "time": 30.749999999999996,
                    "velocity": 0.30708661417322836,
                    "duration": 0.75
                },
                {
                    "name": "C2",
                    "midi": 36,
                    "time": 31.499999999999996,
                    "velocity": 0.3779527559055118,
                    "duration": 1.1249999999999964
                },
                {
                    "name": "C3",
                    "midi": 48,
                    "time": 31.499999999999996,
                    "velocity": 0.3779527559055118,
                    "duration": 1.1249999999999964
                },
                {
                    "name": "C#2",
                    "midi": 37,
                    "time": 32.62499999999999,
                    "velocity": 0.30708661417322836,
                    "duration": 0.375
                },
                {
                    "name": "C#3",
                    "midi": 49,
                    "time": 32.62499999999999,
                    "velocity": 0.30708661417322836,
                    "duration": 0.375
                },
                {
                    "name": "D2",
                    "midi": 38,
                    "time": 32.99999999999999,
                    "velocity": 0.30708661417322836,
                    "duration": 0.375
                },
                {
                    "name": "D3",
                    "midi": 50,
                    "time": 32.99999999999999,
                    "velocity": 0.30708661417322836,
                    "duration": 0.375
                },
                {
                    "name": "E2",
                    "midi": 40,
                    "time": 33.37499999999999,
                    "velocity": 0.2992125984251969,
                    "duration": 0.375
                },
                {
                    "name": "E3",
                    "midi": 52,
                    "time": 33.37499999999999,
                    "velocity": 0.2992125984251969,
                    "duration": 0.375
                },
                {
                    "name": "F2",
                    "midi": 41,
                    "time": 33.74999999999999,
                    "velocity": 0.28346456692913385,
                    "duration": 0.375
                },
                {
                    "name": "F3",
                    "midi": 53,
                    "time": 33.74999999999999,
                    "velocity": 0.28346456692913385,
                    "duration": 0.375
                },
                {
                    "name": "F#2",
                    "midi": 42,
                    "time": 34.12499999999999,
                    "velocity": 0.2755905511811024,
                    "duration": 0.375
                },
                {
                    "name": "F#3",
                    "midi": 54,
                    "time": 34.12499999999999,
                    "velocity": 0.2755905511811024,
                    "duration": 0.375
                },
                {
                    "name": "G2",
                    "midi": 43,
                    "time": 34.49999999999999,
                    "velocity": 0.2677165354330709,
                    "duration": 0.375
                },
                {
                    "name": "G3",
                    "midi": 55,
                    "time": 34.49999999999999,
                    "velocity": 0.2677165354330709,
                    "duration": 0.375
                },
                {
                    "name": "A2",
                    "midi": 45,
                    "time": 34.87499999999999,
                    "velocity": 0.18110236220472442,
                    "duration": 0.375
                },
                {
                    "name": "A3",
                    "midi": 57,
                    "time": 34.87499999999999,
                    "velocity": 0.18110236220472442,
                    "duration": 0.375
                },
                {
                    "name": "A#2",
                    "midi": 46,
                    "time": 35.24999999999999,
                    "velocity": 0.2204724409448819,
                    "duration": 0.375
                },
                {
                    "name": "A#3",
                    "midi": 58,
                    "time": 35.24999999999999,
                    "velocity": 0.2204724409448819,
                    "duration": 0.375
                },
                {
                    "name": "B2",
                    "midi": 47,
                    "time": 35.62499999999999,
                    "velocity": 0.1732283464566929,
                    "duration": 0.375
                },
                {
                    "name": "B3",
                    "midi": 59,
                    "time": 35.62499999999999,
                    "velocity": 0.1732283464566929,
                    "duration": 0.375
                },
                {
                    "name": "A2",
                    "midi": 45,
                    "time": 35.99999999999999,
                    "velocity": 0.1889763779527559,
                    "duration": 1.5
                },
                {
                    "name": "A1",
                    "midi": 33,
                    "time": 36.37499999999999,
                    "velocity": 0.15748031496062992,
                    "duration": 0.375
                },
                {
                    "name": "D2",
                    "midi": 38,
                    "time": 36.74999999999999,
                    "velocity": 0.1732283464566929,
                    "duration": 0.375
                },
                {
                    "name": "A1",
                    "midi": 33,
                    "time": 37.49999999999999,
                    "velocity": 0.4015748031496063,
                    "duration": 0.1875
                },
                {
                    "name": "A2",
                    "midi": 45,
                    "time": 37.49999999999999,
                    "velocity": 0.4015748031496063,
                    "duration": 0.1875
                },
                {
                    "name": "C#3",
                    "midi": 49,
                    "time": 38.62499999999999,
                    "velocity": 0.4015748031496063,
                    "duration": 0.375
                },
                {
                    "name": "A2",
                    "midi": 45,
                    "time": 38.99999999999999,
                    "velocity": 0.4251968503937008,
                    "duration": 1.499999999999993
                },
                {
                    "name": "D3",
                    "midi": 50,
                    "time": 38.99999999999999,
                    "velocity": 0.4251968503937008,
                    "duration": 0.375
                },
                {
                    "name": "F#3",
                    "midi": 54,
                    "time": 39.37499999999999,
                    "velocity": 0.4566929133858268,
                    "duration": 0.375
                },
                {
                    "name": "B3",
                    "midi": 59,
                    "time": 39.74999999999999,
                    "velocity": 0.4881889763779528,
                    "duration": 0.3749999999999929
                },
                {
                    "name": "A3",
                    "midi": 57,
                    "time": 40.124999999999986,
                    "velocity": 0.4645669291338583,
                    "duration": 0.375
                },
                {
                    "name": "A2",
                    "midi": 45,
                    "time": 40.499999999999986,
                    "velocity": 0.4015748031496063,
                    "duration": 0.1875
                },
                {
                    "name": "G3",
                    "midi": 55,
                    "time": 40.687499999999986,
                    "velocity": 0.2992125984251969,
                    "duration": 0.09375
                },
                {
                    "name": "A3",
                    "midi": 57,
                    "time": 40.687499999999986,
                    "velocity": 0.2992125984251969,
                    "duration": 0.09375
                },
                {
                    "name": "G3",
                    "midi": 55,
                    "time": 40.874999999999986,
                    "velocity": 0.3228346456692913,
                    "duration": 0.1875
                },
                {
                    "name": "A3",
                    "midi": 57,
                    "time": 40.874999999999986,
                    "velocity": 0.3228346456692913,
                    "duration": 0.7499999999999929
                },
                {
                    "name": "F#3",
                    "midi": 54,
                    "time": 41.062499999999986,
                    "velocity": 0.2992125984251969,
                    "duration": 0.1875
                },
                {
                    "name": "E3",
                    "midi": 52,
                    "time": 41.249999999999986,
                    "velocity": 0.4015748031496063,
                    "duration": 0.3749999999999929
                },
                {
                    "name": "A1",
                    "midi": 33,
                    "time": 41.62499999999998,
                    "velocity": 0.3464566929133858,
                    "duration": 0.375
                },
                {
                    "name": "A2",
                    "midi": 45,
                    "time": 41.62499999999998,
                    "velocity": 0.3464566929133858,
                    "duration": 1.687500000000007
                },
                {
                    "name": "D2",
                    "midi": 38,
                    "time": 41.99999999999998,
                    "velocity": 0.4094488188976378,
                    "duration": 0.3750000000000071
                },
                {
                    "name": "F#2",
                    "midi": 42,
                    "time": 42.374999999999986,
                    "velocity": 0.3858267716535433,
                    "duration": 0.375
                },
                {
                    "name": "A2",
                    "midi": 45,
                    "time": 42.749999999999986,
                    "velocity": 0.3543307086614173,
                    "duration": 0.75
                },
                {
                    "name": "A1",
                    "midi": 33,
                    "time": 43.312499999999986,
                    "velocity": 0.41732283464566927,
                    "duration": 0.1875
                },
                {
                    "name": "A2",
                    "midi": 45,
                    "time": 43.499999999999986,
                    "velocity": 0.41732283464566927,
                    "duration": 1.5
                },
                {
                    "name": "C#3",
                    "midi": 49,
                    "time": 43.874999999999986,
                    "velocity": 0.4645669291338583,
                    "duration": 0.375
                },
                {
                    "name": "F#3",
                    "midi": 54,
                    "time": 44.249999999999986,
                    "velocity": 0.49606299212598426,
                    "duration": 0.375
                },
                {
                    "name": "E3",
                    "midi": 52,
                    "time": 44.624999999999986,
                    "velocity": 0.48031496062992124,
                    "duration": 0.375
                },
                {
                    "name": "D2",
                    "midi": 38,
                    "time": 44.999999999999986,
                    "velocity": 0.4015748031496063,
                    "duration": 1.125000000000007
                },
                {
                    "name": "D3",
                    "midi": 50,
                    "time": 44.999999999999986,
                    "velocity": 0.4015748031496063,
                    "duration": 1.125000000000007
                },
                {
                    "name": "C2",
                    "midi": 36,
                    "time": 46.12499999999999,
                    "velocity": 0.3700787401574803,
                    "duration": 0.375
                },
                {
                    "name": "C3",
                    "midi": 48,
                    "time": 46.12499999999999,
                    "velocity": 0.3700787401574803,
                    "duration": 0.375
                },
                {
                    "name": "B1",
                    "midi": 35,
                    "time": 46.49999999999999,
                    "velocity": 0.4409448818897638,
                    "duration": 1.124999999999993
                },
                {
                    "name": "B2",
                    "midi": 47,
                    "time": 46.49999999999999,
                    "velocity": 0.4409448818897638,
                    "duration": 1.124999999999993
                },
                {
                    "name": "A#1",
                    "midi": 34,
                    "time": 47.624999999999986,
                    "velocity": 0.33858267716535434,
                    "duration": 0.375
                },
                {
                    "name": "A#2",
                    "midi": 46,
                    "time": 47.624999999999986,
                    "velocity": 0.33858267716535434,
                    "duration": 0.375
                },
                {
                    "name": "A1",
                    "midi": 33,
                    "time": 47.999999999999986,
                    "velocity": 0.33070866141732286,
                    "duration": 0.375
                },
                {
                    "name": "A2",
                    "midi": 45,
                    "time": 47.999999999999986,
                    "velocity": 0.33070866141732286,
                    "duration": 0.375
                },
                {
                    "name": "B1",
                    "midi": 35,
                    "time": 48.374999999999986,
                    "velocity": 0.31496062992125984,
                    "duration": 0.375
                },
                {
                    "name": "B2",
                    "midi": 47,
                    "time": 48.374999999999986,
                    "velocity": 0.31496062992125984,
                    "duration": 0.375
                },
                {
                    "name": "C#2",
                    "midi": 37,
                    "time": 48.749999999999986,
                    "velocity": 0.2992125984251969,
                    "duration": 0.375
                },
                {
                    "name": "C#3",
                    "midi": 49,
                    "time": 48.749999999999986,
                    "velocity": 0.2992125984251969,
                    "duration": 0.375
                },
                {
                    "name": "C2",
                    "midi": 36,
                    "time": 49.124999999999986,
                    "velocity": 0.2992125984251969,
                    "duration": 1.5
                },
                {
                    "name": "C3",
                    "midi": 48,
                    "time": 49.124999999999986,
                    "velocity": 0.2992125984251969,
                    "duration": 1.5
                },
                {
                    "name": "E3",
                    "midi": 52,
                    "time": 50.624999999999986,
                    "velocity": 0.33858267716535434,
                    "duration": 0.375
                },
                {
                    "name": "C3",
                    "midi": 48,
                    "time": 50.999999999999986,
                    "velocity": 0.3543307086614173,
                    "duration": 1.5
                },
                {
                    "name": "F3",
                    "midi": 53,
                    "time": 50.999999999999986,
                    "velocity": 0.3543307086614173,
                    "duration": 0.375
                },
                {
                    "name": "A3",
                    "midi": 57,
                    "time": 51.374999999999986,
                    "velocity": 0.3858267716535433,
                    "duration": 0.375
                },
                {
                    "name": "D4",
                    "midi": 62,
                    "time": 51.749999999999986,
                    "velocity": 0.41732283464566927,
                    "duration": 0.375
                },
                {
                    "name": "C4",
                    "midi": 60,
                    "time": 52.124999999999986,
                    "velocity": 0.3937007874015748,
                    "duration": 0.375
                },
                {
                    "name": "C3",
                    "midi": 48,
                    "time": 52.499999999999986,
                    "velocity": 0.33858267716535434,
                    "duration": 0.1875
                },
                {
                    "name": "A#3",
                    "midi": 58,
                    "time": 52.687499999999986,
                    "velocity": 0.25196850393700787,
                    "duration": 0.09375
                },
                {
                    "name": "D4",
                    "midi": 62,
                    "time": 52.687499999999986,
                    "velocity": 0.25196850393700787,
                    "duration": 0.09375
                },
                {
                    "name": "D4",
                    "midi": 62,
                    "time": 52.874999999999986,
                    "velocity": 0.2677165354330709,
                    "duration": 0.7499999999999929
                },
                {
                    "name": "A#3",
                    "midi": 58,
                    "time": 52.874999999999986,
                    "velocity": 0.2677165354330709,
                    "duration": 0.1875
                },
                {
                    "name": "A3",
                    "midi": 57,
                    "time": 53.062499999999986,
                    "velocity": 0.25196850393700787,
                    "duration": 0.1875
                },
                {
                    "name": "G3",
                    "midi": 55,
                    "time": 53.249999999999986,
                    "velocity": 0.33858267716535434,
                    "duration": 0.3749999999999929
                },
                {
                    "name": "E3",
                    "midi": 52,
                    "time": 53.62499999999998,
                    "velocity": 0.29133858267716534,
                    "duration": 0.375
                },
                {
                    "name": "C2",
                    "midi": 36,
                    "time": 53.62499999999998,
                    "velocity": 0.29133858267716534,
                    "duration": 0.375
                },
                {
                    "name": "F3",
                    "midi": 53,
                    "time": 53.99999999999998,
                    "velocity": 0.3543307086614173,
                    "duration": 0.75
                },
                {
                    "name": "F2",
                    "midi": 41,
                    "time": 53.99999999999998,
                    "velocity": 0.3543307086614173,
                    "duration": 0.375
                },
                {
                    "name": "A2",
                    "midi": 45,
                    "time": 54.37499999999998,
                    "velocity": 0.31496062992125984,
                    "duration": 0.375
                },
                {
                    "name": "E3",
                    "midi": 52,
                    "time": 54.74999999999998,
                    "velocity": 0.30708661417322836,
                    "duration": 0.75
                },
                {
                    "name": "C3",
                    "midi": 48,
                    "time": 54.74999999999998,
                    "velocity": 0.30708661417322836,
                    "duration": 0.75
                },
                {
                    "name": "C2",
                    "midi": 36,
                    "time": 55.49999999999998,
                    "velocity": 0.3779527559055118,
                    "duration": 1.125
                },
                {
                    "name": "C3",
                    "midi": 48,
                    "time": 55.49999999999998,
                    "velocity": 0.3779527559055118,
                    "duration": 1.125
                },
                {
                    "name": "C#2",
                    "midi": 37,
                    "time": 56.62499999999998,
                    "velocity": 0.30708661417322836,
                    "duration": 0.375
                },
                {
                    "name": "C#3",
                    "midi": 49,
                    "time": 56.62499999999998,
                    "velocity": 0.30708661417322836,
                    "duration": 0.375
                },
                {
                    "name": "D2",
                    "midi": 38,
                    "time": 56.99999999999998,
                    "velocity": 0.30708661417322836,
                    "duration": 0.375
                },
                {
                    "name": "D3",
                    "midi": 50,
                    "time": 56.99999999999998,
                    "velocity": 0.30708661417322836,
                    "duration": 0.375
                },
                {
                    "name": "E2",
                    "midi": 40,
                    "time": 57.37499999999998,
                    "velocity": 0.2992125984251969,
                    "duration": 0.375
                },
                {
                    "name": "E3",
                    "midi": 52,
                    "time": 57.37499999999998,
                    "velocity": 0.2992125984251969,
                    "duration": 0.375
                },
                {
                    "name": "F2",
                    "midi": 41,
                    "time": 57.74999999999998,
                    "velocity": 0.28346456692913385,
                    "duration": 0.375
                },
                {
                    "name": "F3",
                    "midi": 53,
                    "time": 57.74999999999998,
                    "velocity": 0.28346456692913385,
                    "duration": 0.375
                },
                {
                    "name": "F#2",
                    "midi": 42,
                    "time": 58.12499999999998,
                    "velocity": 0.2755905511811024,
                    "duration": 0.375
                },
                {
                    "name": "F#3",
                    "midi": 54,
                    "time": 58.12499999999998,
                    "velocity": 0.2755905511811024,
                    "duration": 0.375
                },
                {
                    "name": "G2",
                    "midi": 43,
                    "time": 58.49999999999998,
                    "velocity": 0.2677165354330709,
                    "duration": 0.375
                },
                {
                    "name": "G3",
                    "midi": 55,
                    "time": 58.49999999999998,
                    "velocity": 0.2677165354330709,
                    "duration": 0.375
                },
                {
                    "name": "A2",
                    "midi": 45,
                    "time": 58.87499999999998,
                    "velocity": 0.18110236220472442,
                    "duration": 0.375
                },
                {
                    "name": "A3",
                    "midi": 57,
                    "time": 58.87499999999998,
                    "velocity": 0.18110236220472442,
                    "duration": 0.375
                },
                {
                    "name": "A#2",
                    "midi": 46,
                    "time": 59.24999999999998,
                    "velocity": 0.2204724409448819,
                    "duration": 0.3750000000000071
                },
                {
                    "name": "A#3",
                    "midi": 58,
                    "time": 59.24999999999998,
                    "velocity": 0.2204724409448819,
                    "duration": 0.3750000000000071
                },
                {
                    "name": "B2",
                    "midi": 47,
                    "time": 59.624999999999986,
                    "velocity": 0.1732283464566929,
                    "duration": 0.375
                },
                {
                    "name": "B3",
                    "midi": 59,
                    "time": 59.624999999999986,
                    "velocity": 0.1732283464566929,
                    "duration": 0.375
                },
                {
                    "name": "A2",
                    "midi": 45,
                    "time": 59.999999999999986,
                    "velocity": 0.1889763779527559,
                    "duration": 1.5
                },
                {
                    "name": "A1",
                    "midi": 33,
                    "time": 60.374999999999986,
                    "velocity": 0.15748031496062992,
                    "duration": 0.375
                },
                {
                    "name": "D2",
                    "midi": 38,
                    "time": 60.749999999999986,
                    "velocity": 0.1732283464566929,
                    "duration": 0.75
                }
            ],
            "controlChanges": {
                "7": [
                    {
                        "number": 7,
                        "time": 0,
                        "value": 0.7874015748031497
                    }
                ],
                "10": [
                    {
                        "number": 10,
                        "time": 0,
                        "value": 0.5039370078740157
                    }
                ],
                "64": [
                    {
                        "number": 64,
                        "time": 1.1234374999999999,
                        "value": 0
                    },
                    {
                        "number": 64,
                        "time": 1.5890625,
                        "value": 1
                    },
                    {
                        "number": 64,
                        "time": 2.2734375,
                        "value": 0
                    },
                    {
                        "number": 64,
                        "time": 2.4375,
                        "value": 1
                    },
                    {
                        "number": 64,
                        "time": 3.0171875,
                        "value": 0
                    },
                    {
                        "number": 64,
                        "time": 3.115625,
                        "value": 1
                    },
                    {
                        "number": 64,
                        "time": 3.7609375,
                        "value": 0
                    },
                    {
                        "number": 64,
                        "time": 3.815625,
                        "value": 1
                    },
                    {
                        "number": 64,
                        "time": 4.428125,
                        "value": 0
                    },
                    {
                        "number": 64,
                        "time": 4.5,
                        "value": 1
                    },
                    {
                        "number": 64,
                        "time": 5.259375,
                        "value": 0
                    },
                    {
                        "number": 64,
                        "time": 5.309375,
                        "value": 1
                    },
                    {
                        "number": 64,
                        "time": 6.0046875,
                        "value": 0
                    },
                    {
                        "number": 64,
                        "time": 6.2421875,
                        "value": 1
                    },
                    {
                        "number": 64,
                        "time": 6.771875,
                        "value": 0
                    },
                    {
                        "number": 64,
                        "time": 6.9046875,
                        "value": 1
                    },
                    {
                        "number": 64,
                        "time": 7.146875,
                        "value": 0
                    },
                    {
                        "number": 64,
                        "time": 7.56875,
                        "value": 1
                    },
                    {
                        "number": 64,
                        "time": 8.2609375,
                        "value": 0
                    },
                    {
                        "number": 64,
                        "time": 8.389062500000001,
                        "value": 1
                    },
                    {
                        "number": 64,
                        "time": 9.000000000000002,
                        "value": 0
                    },
                    {
                        "number": 64,
                        "time": 9.187500000000002,
                        "value": 1
                    },
                    {
                        "number": 64,
                        "time": 9.760937500000002,
                        "value": 0
                    },
                    {
                        "number": 64,
                        "time": 9.937500000000002,
                        "value": 1
                    },
                    {
                        "number": 64,
                        "time": 10.500000000000002,
                        "value": 0
                    },
                    {
                        "number": 64,
                        "time": 10.665625000000002,
                        "value": 1
                    },
                    {
                        "number": 64,
                        "time": 11.271875000000001,
                        "value": 0
                    },
                    {
                        "number": 64,
                        "time": 11.39375,
                        "value": 1
                    },
                    {
                        "number": 64,
                        "time": 12,
                        "value": 0
                    },
                    {
                        "number": 64,
                        "time": 12.125,
                        "value": 1
                    },
                    {
                        "number": 64,
                        "time": 12.778125,
                        "value": 0
                    },
                    {
                        "number": 64,
                        "time": 12.9296875,
                        "value": 1
                    },
                    {
                        "number": 64,
                        "time": 13.1515625,
                        "value": 0
                    },
                    {
                        "number": 64,
                        "time": 13.568750000000001,
                        "value": 1
                    },
                    {
                        "number": 64,
                        "time": 14.270312500000001,
                        "value": 0
                    },
                    {
                        "number": 64,
                        "time": 14.398437500000002,
                        "value": 1
                    },
                    {
                        "number": 64,
                        "time": 15.021875000000001,
                        "value": 0
                    },
                    {
                        "number": 64,
                        "time": 15.110937500000002,
                        "value": 1
                    },
                    {
                        "number": 64,
                        "time": 15.771875000000001,
                        "value": 0
                    },
                    {
                        "number": 64,
                        "time": 15.9484375,
                        "value": 1
                    },
                    {
                        "number": 64,
                        "time": 16.503125,
                        "value": 0
                    },
                    {
                        "number": 64,
                        "time": 16.56875,
                        "value": 1
                    },
                    {
                        "number": 64,
                        "time": 17.2703125,
                        "value": 0
                    },
                    {
                        "number": 64,
                        "time": 17.3484375,
                        "value": 1
                    },
                    {
                        "number": 64,
                        "time": 18,
                        "value": 0
                    },
                    {
                        "number": 64,
                        "time": 18.1984375,
                        "value": 1
                    },
                    {
                        "number": 64,
                        "time": 18.771875,
                        "value": 0
                    },
                    {
                        "number": 64,
                        "time": 18.85,
                        "value": 1
                    },
                    {
                        "number": 64,
                        "time": 19.137500000000003,
                        "value": 0
                    },
                    {
                        "number": 64,
                        "time": 19.568750000000005,
                        "value": 1
                    },
                    {
                        "number": 64,
                        "time": 20.268750000000004,
                        "value": 0
                    },
                    {
                        "number": 64,
                        "time": 20.428125000000005,
                        "value": 1
                    },
                    {
                        "number": 64,
                        "time": 21.000000000000004,
                        "value": 0
                    },
                    {
                        "number": 64,
                        "time": 21.143750000000004,
                        "value": 1
                    },
                    {
                        "number": 64,
                        "time": 21.771875000000005,
                        "value": 0
                    },
                    {
                        "number": 64,
                        "time": 21.970312500000006,
                        "value": 1
                    },
                    {
                        "number": 64,
                        "time": 22.500000000000007,
                        "value": 0
                    },
                    {
                        "number": 64,
                        "time": 22.621875000000006,
                        "value": 1
                    },
                    {
                        "number": 64,
                        "time": 23.271875000000005,
                        "value": 0
                    },
                    {
                        "number": 64,
                        "time": 23.448437500000004,
                        "value": 1
                    },
                    {
                        "number": 64,
                        "time": 24.000000000000004,
                        "value": 0
                    },
                    {
                        "number": 64,
                        "time": 24.134375000000002,
                        "value": 1
                    },
                    {
                        "number": 64,
                        "time": 24.767187500000002,
                        "value": 0
                    },
                    {
                        "number": 64,
                        "time": 24.884375000000002,
                        "value": 1
                    },
                    {
                        "number": 64,
                        "time": 25.1328125,
                        "value": 0
                    },
                    {
                        "number": 64,
                        "time": 25.5796875,
                        "value": 1
                    },
                    {
                        "number": 64,
                        "time": 26.275,
                        "value": 0
                    },
                    {
                        "number": 64,
                        "time": 26.4296875,
                        "value": 1
                    },
                    {
                        "number": 64,
                        "time": 27,
                        "value": 0
                    },
                    {
                        "number": 64,
                        "time": 27.1,
                        "value": 1
                    },
                    {
                        "number": 64,
                        "time": 27.778125,
                        "value": 0
                    },
                    {
                        "number": 64,
                        "time": 27.849999999999998,
                        "value": 1
                    },
                    {
                        "number": 64,
                        "time": 28.499999999999996,
                        "value": 0
                    },
                    {
                        "number": 64,
                        "time": 28.553124999999998,
                        "value": 1
                    },
                    {
                        "number": 64,
                        "time": 29.270312499999996,
                        "value": 0
                    },
                    {
                        "number": 64,
                        "time": 29.360937499999995,
                        "value": 1
                    },
                    {
                        "number": 64,
                        "time": 29.999999999999996,
                        "value": 0
                    },
                    {
                        "number": 64,
                        "time": 30.160937499999996,
                        "value": 1
                    },
                    {
                        "number": 64,
                        "time": 30.785937499999996,
                        "value": 0
                    },
                    {
                        "number": 64,
                        "time": 30.892187499999995,
                        "value": 1
                    },
                    {
                        "number": 64,
                        "time": 31.374999999999996,
                        "value": 0
                    },
                    {
                        "number": 64,
                        "time": 31.634374999999995,
                        "value": 1
                    },
                    {
                        "number": 64,
                        "time": 32.25937499999999,
                        "value": 0
                    },
                    {
                        "number": 64,
                        "time": 32.37499999999999,
                        "value": 1
                    },
                    {
                        "number": 64,
                        "time": 32.99999999999999,
                        "value": 0
                    },
                    {
                        "number": 64,
                        "time": 33.07968749999999,
                        "value": 1
                    },
                    {
                        "number": 64,
                        "time": 33.770312499999996,
                        "value": 0
                    },
                    {
                        "number": 64,
                        "time": 33.857812499999994,
                        "value": 1
                    },
                    {
                        "number": 64,
                        "time": 34.13437499999999,
                        "value": 0
                    },
                    {
                        "number": 64,
                        "time": 34.24374999999999,
                        "value": 1
                    },
                    {
                        "number": 64,
                        "time": 34.50781249999999,
                        "value": 0
                    },
                    {
                        "number": 64,
                        "time": 34.56562499999999,
                        "value": 1
                    },
                    {
                        "number": 64,
                        "time": 34.889062499999994,
                        "value": 0
                    },
                    {
                        "number": 64,
                        "time": 34.97656249999999,
                        "value": 1
                    },
                    {
                        "number": 64,
                        "time": 35.285937499999996,
                        "value": 0
                    },
                    {
                        "number": 64,
                        "time": 35.33593749999999,
                        "value": 1
                    },
                    {
                        "number": 64,
                        "time": 35.62499999999999,
                        "value": 0
                    },
                    {
                        "number": 64,
                        "time": 35.68124999999999,
                        "value": 1
                    },
                    {
                        "number": 64,
                        "time": 36.00312499999999,
                        "value": 0
                    },
                    {
                        "number": 64,
                        "time": 36.16562499999999,
                        "value": 1
                    },
                    {
                        "number": 64,
                        "time": 36.717187499999994,
                        "value": 0
                    },
                    {
                        "number": 64,
                        "time": 36.849999999999994,
                        "value": 1
                    },
                    {
                        "number": 64,
                        "time": 37.12499999999999,
                        "value": 0
                    },
                    {
                        "number": 64,
                        "time": 37.58906249999999,
                        "value": 1
                    },
                    {
                        "number": 64,
                        "time": 38.270312499999996,
                        "value": 0
                    },
                    {
                        "number": 64,
                        "time": 38.387499999999996,
                        "value": 1
                    },
                    {
                        "number": 64,
                        "time": 39.00937499999999,
                        "value": 0
                    },
                    {
                        "number": 64,
                        "time": 39.115624999999994,
                        "value": 1
                    },
                    {
                        "number": 64,
                        "time": 39.76718749999999,
                        "value": 0
                    },
                    {
                        "number": 64,
                        "time": 39.83281249999999,
                        "value": 1
                    },
                    {
                        "number": 64,
                        "time": 40.42812499999999,
                        "value": 0
                    },
                    {
                        "number": 64,
                        "time": 40.499999999999986,
                        "value": 1
                    },
                    {
                        "number": 64,
                        "time": 41.259374999999984,
                        "value": 0
                    },
                    {
                        "number": 64,
                        "time": 41.30937499999998,
                        "value": 1
                    },
                    {
                        "number": 64,
                        "time": 42.00624999999998,
                        "value": 0
                    },
                    {
                        "number": 64,
                        "time": 42.14374999999998,
                        "value": 1
                    },
                    {
                        "number": 64,
                        "time": 42.76406249999999,
                        "value": 0
                    },
                    {
                        "number": 64,
                        "time": 42.87187499999999,
                        "value": 1
                    },
                    {
                        "number": 64,
                        "time": 43.14687499999999,
                        "value": 0
                    },
                    {
                        "number": 64,
                        "time": 43.499999999999986,
                        "value": 1
                    },
                    {
                        "number": 64,
                        "time": 44.273437499999986,
                        "value": 0
                    },
                    {
                        "number": 64,
                        "time": 44.398437499999986,
                        "value": 1
                    },
                    {
                        "number": 64,
                        "time": 45.007812499999986,
                        "value": 0
                    },
                    {
                        "number": 64,
                        "time": 45.12187499999999,
                        "value": 1
                    },
                    {
                        "number": 64,
                        "time": 45.78281249999999,
                        "value": 0
                    },
                    {
                        "number": 64,
                        "time": 45.88281249999999,
                        "value": 1
                    },
                    {
                        "number": 64,
                        "time": 46.49999999999999,
                        "value": 0
                    },
                    {
                        "number": 64,
                        "time": 46.63281249999999,
                        "value": 1
                    },
                    {
                        "number": 64,
                        "time": 47.26874999999999,
                        "value": 0
                    },
                    {
                        "number": 64,
                        "time": 47.48124999999999,
                        "value": 1
                    },
                    {
                        "number": 64,
                        "time": 48.00468749999999,
                        "value": 0
                    },
                    {
                        "number": 64,
                        "time": 48.124999999999986,
                        "value": 1
                    },
                    {
                        "number": 64,
                        "time": 48.767187499999984,
                        "value": 0
                    },
                    {
                        "number": 64,
                        "time": 48.85781249999999,
                        "value": 1
                    },
                    {
                        "number": 64,
                        "time": 49.142187499999984,
                        "value": 0
                    },
                    {
                        "number": 64,
                        "time": 49.579687499999984,
                        "value": 1
                    },
                    {
                        "number": 64,
                        "time": 50.281249999999986,
                        "value": 0
                    },
                    {
                        "number": 64,
                        "time": 50.392187499999984,
                        "value": 1
                    },
                    {
                        "number": 64,
                        "time": 51.00468749999999,
                        "value": 0
                    },
                    {
                        "number": 64,
                        "time": 51.11562499999999,
                        "value": 1
                    },
                    {
                        "number": 64,
                        "time": 51.773437499999986,
                        "value": 0
                    },
                    {
                        "number": 64,
                        "time": 51.85468749999998,
                        "value": 1
                    },
                    {
                        "number": 64,
                        "time": 52.42812499999999,
                        "value": 0
                    },
                    {
                        "number": 64,
                        "time": 52.55312499999999,
                        "value": 1
                    },
                    {
                        "number": 64,
                        "time": 53.27656249999998,
                        "value": 0
                    },
                    {
                        "number": 64,
                        "time": 53.34843749999998,
                        "value": 1
                    },
                    {
                        "number": 64,
                        "time": 54.026562499999976,
                        "value": 0
                    },
                    {
                        "number": 64,
                        "time": 54.13437499999998,
                        "value": 1
                    },
                    {
                        "number": 64,
                        "time": 54.768749999999976,
                        "value": 0
                    },
                    {
                        "number": 64,
                        "time": 54.94687499999998,
                        "value": 1
                    },
                    {
                        "number": 64,
                        "time": 55.37499999999998,
                        "value": 0
                    },
                    {
                        "number": 64,
                        "time": 55.70468749999998,
                        "value": 1
                    },
                    {
                        "number": 64,
                        "time": 56.27968749999998,
                        "value": 0
                    },
                    {
                        "number": 64,
                        "time": 56.43749999999998,
                        "value": 1
                    },
                    {
                        "number": 64,
                        "time": 56.99999999999998,
                        "value": 0
                    },
                    {
                        "number": 64,
                        "time": 57.19687499999998,
                        "value": 1
                    },
                    {
                        "number": 64,
                        "time": 57.76562499999998,
                        "value": 0
                    },
                    {
                        "number": 64,
                        "time": 57.839062499999976,
                        "value": 1
                    },
                    {
                        "number": 64,
                        "time": 58.13281249999998,
                        "value": 0
                    },
                    {
                        "number": 64,
                        "time": 58.27343749999998,
                        "value": 1
                    },
                    {
                        "number": 64,
                        "time": 58.50468749999998,
                        "value": 0
                    },
                    {
                        "number": 64,
                        "time": 58.58593749999998,
                        "value": 1
                    },
                    {
                        "number": 64,
                        "time": 58.89062499999998,
                        "value": 0
                    },
                    {
                        "number": 64,
                        "time": 58.971874999999976,
                        "value": 1
                    },
                    {
                        "number": 64,
                        "time": 59.27031249999998,
                        "value": 0
                    },
                    {
                        "number": 64,
                        "time": 59.33124999999998,
                        "value": 1
                    },
                    {
                        "number": 64,
                        "time": 59.640624999999986,
                        "value": 0
                    },
                    {
                        "number": 64,
                        "time": 59.735937499999984,
                        "value": 1
                    },
                    {
                        "number": 64,
                        "time": 60.031249999999986,
                        "value": 0
                    },
                    {
                        "number": 64,
                        "time": 60.15468749999999,
                        "value": 1
                    },
                    {
                        "number": 64,
                        "time": 60.757812499999986,
                        "value": 0
                    },
                    {
                        "number": 64,
                        "time": 60.90468749999999,
                        "value": 1
                    },
                    {
                        "number": 64,
                        "time": 61.499999999999986,
                        "value": 0
                    }
                ],
                "91": [
                    {
                        "number": 91,
                        "time": 1.1234374999999999,
                        "value": 1
                    },
                    {
                        "number": 91,
                        "time": 25.1234375,
                        "value": 1
                    },
                    {
                        "number": 91,
                        "time": 49.12343749999999,
                        "value": 1
                    }
                ]
            },
            "id": 2,
            "name": "Piano left",
            "instrumentNumber": 0,
            "instrument": "acoustic grand piano",
            "instrumentFamily": "piano",
            "channelNumber": 0,
            "isPercussion": false
        },
        {
            "startTime": 0,
            "duration": 0,
            "length": 0,
            "notes": [],
            "controlChanges": {},
            "id": 3,
            "name": "Schumann: Scenes from Childhood Op. 15"
        },
        {
            "startTime": 0,
            "duration": 0,
            "length": 0,
            "notes": [],
            "controlChanges": {},
            "id": 4,
            "name": "Copyright © 1997 by Bernd Krueger"
        },
        {
            "startTime": 0,
            "duration": 0,
            "length": 0,
            "notes": [],
            "controlChanges": {},
            "id": 5,
            "name": "http://www.piano-midi.de"
        },
        {
            "startTime": 0,
            "duration": 0,
            "length": 0,
            "notes": [],
            "controlChanges": {},
            "id": 6,
            "name": "Edition: 2014-03-14"
        },
        {
            "startTime": 0,
            "duration": 0,
            "length": 0,
            "notes": [],
            "controlChanges": {},
            "id": 7,
            "name": "Spur 7"
        }
    ]
}