{
    "header": {
        "PPQ": 480,
        "timeSignature": [
            2,
            4
        ],
        "bpm": 96,
        "name": "gershwin an american in paris part3 of 4"
    },
    "startTime": 0,
    "duration": 242.5,
    "tracks": [
        {
            "startTime": 0,
            "duration": 0,
            "length": 0,
            "notes": [],
            "controlChanges": {},
            "id": 0,
            "name": "gershwin an american in paris part3 of 4"
        },
        {
            "startTime": 0,
            "duration": 230,
            "length": 902,
            "notes": [
                {
                    "name": "A#4",
                    "midi": 70,
                    "time": 0,
                    "velocity": 0.5905511811023622,
                    "duration": 5
                },
                {
                    "name": "A#4",
                    "midi": 70,
                    "time": 5,
                    "velocity": 0.5905511811023622,
                    "duration": 0.3125
                },
                {
                    "name": "C4",
                    "midi": 60,
                    "time": 5.3125,
                    "velocity": 0.5905511811023622,
                    "duration": 0.3125
                },
                {
                    "name": "D4",
                    "midi": 62,
                    "time": 5.625,
                    "velocity": 0.5905511811023622,
                    "duration": 0.625
                },
                {
                    "name": "A#4",
                    "midi": 70,
                    "time": 6.25,
                    "velocity": 0.5905511811023622,
                    "duration": 4.375
                },
                {
                    "name": "A#4",
                    "midi": 70,
                    "time": 10.625,
                    "velocity": 0.5905511811023622,
                    "duration": 0.3125
                },
                {
                    "name": "C4",
                    "midi": 60,
                    "time": 10.9375,
                    "velocity": 0.5905511811023622,
                    "duration": 0.3125
                },
                {
                    "name": "D4",
                    "midi": 62,
                    "time": 11.25,
                    "velocity": 0.5905511811023622,
                    "duration": 0.625
                },
                {
                    "name": "A#4",
                    "midi": 70,
                    "time": 11.875,
                    "velocity": 0.5905511811023622,
                    "duration": 0.625
                },
                {
                    "name": "C5",
                    "midi": 72,
                    "time": 12.5,
                    "velocity": 0.5905511811023622,
                    "duration": 1.25
                },
                {
                    "name": "G#3",
                    "midi": 56,
                    "time": 13.75,
                    "velocity": 0.3858267716535433,
                    "duration": 0.625
                },
                {
                    "name": "C4",
                    "midi": 60,
                    "time": 13.75,
                    "velocity": 0.3858267716535433,
                    "duration": 0.625
                },
                {
                    "name": "D#4",
                    "midi": 63,
                    "time": 13.75,
                    "velocity": 0.3858267716535433,
                    "duration": 0.625
                },
                {
                    "name": "G4",
                    "midi": 67,
                    "time": 13.75,
                    "velocity": 0.3858267716535433,
                    "duration": 0.625
                },
                {
                    "name": "A#3",
                    "midi": 58,
                    "time": 14.375,
                    "velocity": 0.3858267716535433,
                    "duration": 0.625
                },
                {
                    "name": "C#4",
                    "midi": 61,
                    "time": 14.375,
                    "velocity": 0.3858267716535433,
                    "duration": 0.625
                },
                {
                    "name": "F4",
                    "midi": 65,
                    "time": 14.375,
                    "velocity": 0.3858267716535433,
                    "duration": 0.625
                },
                {
                    "name": "G#4",
                    "midi": 68,
                    "time": 14.375,
                    "velocity": 0.3858267716535433,
                    "duration": 0.625
                },
                {
                    "name": "G#3",
                    "midi": 56,
                    "time": 15,
                    "velocity": 0.3858267716535433,
                    "duration": 0.625
                },
                {
                    "name": "C4",
                    "midi": 60,
                    "time": 15,
                    "velocity": 0.3858267716535433,
                    "duration": 0.625
                },
                {
                    "name": "D#4",
                    "midi": 63,
                    "time": 15,
                    "velocity": 0.3858267716535433,
                    "duration": 0.625
                },
                {
                    "name": "G4",
                    "midi": 67,
                    "time": 15,
                    "velocity": 0.3858267716535433,
                    "duration": 0.625
                },
                {
                    "name": "A#3",
                    "midi": 58,
                    "time": 15.625,
                    "velocity": 0.3858267716535433,
                    "duration": 0.625
                },
                {
                    "name": "C#4",
                    "midi": 61,
                    "time": 15.625,
                    "velocity": 0.3858267716535433,
                    "duration": 0.625
                },
                {
                    "name": "F4",
                    "midi": 65,
                    "time": 15.625,
                    "velocity": 0.3858267716535433,
                    "duration": 0.625
                },
                {
                    "name": "G#4",
                    "midi": 68,
                    "time": 15.625,
                    "velocity": 0.3858267716535433,
                    "duration": 0.625
                },
                {
                    "name": "C4",
                    "midi": 60,
                    "time": 16.25,
                    "velocity": 0.3858267716535433,
                    "duration": 0.625
                },
                {
                    "name": "D#4",
                    "midi": 63,
                    "time": 16.25,
                    "velocity": 0.3858267716535433,
                    "duration": 0.625
                },
                {
                    "name": "G4",
                    "midi": 67,
                    "time": 16.25,
                    "velocity": 0.3858267716535433,
                    "duration": 0.625
                },
                {
                    "name": "A#4",
                    "midi": 70,
                    "time": 16.25,
                    "velocity": 0.3858267716535433,
                    "duration": 0.625
                },
                {
                    "name": "C#4",
                    "midi": 61,
                    "time": 16.875,
                    "velocity": 0.3858267716535433,
                    "duration": 0.625
                },
                {
                    "name": "F4",
                    "midi": 65,
                    "time": 16.875,
                    "velocity": 0.3858267716535433,
                    "duration": 0.625
                },
                {
                    "name": "G#4",
                    "midi": 68,
                    "time": 16.875,
                    "velocity": 0.3858267716535433,
                    "duration": 0.625
                },
                {
                    "name": "C5",
                    "midi": 72,
                    "time": 16.875,
                    "velocity": 0.3858267716535433,
                    "duration": 0.625
                },
                {
                    "name": "G#3",
                    "midi": 56,
                    "time": 17.5,
                    "velocity": 0.3858267716535433,
                    "duration": 0.625
                },
                {
                    "name": "C4",
                    "midi": 60,
                    "time": 17.5,
                    "velocity": 0.3858267716535433,
                    "duration": 0.625
                },
                {
                    "name": "D#4",
                    "midi": 63,
                    "time": 17.5,
                    "velocity": 0.3858267716535433,
                    "duration": 0.625
                },
                {
                    "name": "G4",
                    "midi": 67,
                    "time": 17.5,
                    "velocity": 0.3858267716535433,
                    "duration": 0.625
                },
                {
                    "name": "A#3",
                    "midi": 58,
                    "time": 18.125,
                    "velocity": 0.3858267716535433,
                    "duration": 0.625
                },
                {
                    "name": "C#4",
                    "midi": 61,
                    "time": 18.125,
                    "velocity": 0.3858267716535433,
                    "duration": 0.625
                },
                {
                    "name": "F4",
                    "midi": 65,
                    "time": 18.125,
                    "velocity": 0.3858267716535433,
                    "duration": 0.625
                },
                {
                    "name": "G#4",
                    "midi": 68,
                    "time": 18.125,
                    "velocity": 0.3858267716535433,
                    "duration": 0.625
                },
                {
                    "name": "C4",
                    "midi": 60,
                    "time": 18.75,
                    "velocity": 0.3858267716535433,
                    "duration": 0.625
                },
                {
                    "name": "D#4",
                    "midi": 63,
                    "time": 18.75,
                    "velocity": 0.3858267716535433,
                    "duration": 0.625
                },
                {
                    "name": "G4",
                    "midi": 67,
                    "time": 18.75,
                    "velocity": 0.3858267716535433,
                    "duration": 0.625
                },
                {
                    "name": "A#4",
                    "midi": 70,
                    "time": 18.75,
                    "velocity": 0.3858267716535433,
                    "duration": 0.625
                },
                {
                    "name": "D4",
                    "midi": 62,
                    "time": 19.375,
                    "velocity": 0.3858267716535433,
                    "duration": 0.625
                },
                {
                    "name": "F4",
                    "midi": 65,
                    "time": 19.375,
                    "velocity": 0.3858267716535433,
                    "duration": 0.625
                },
                {
                    "name": "A4",
                    "midi": 69,
                    "time": 19.375,
                    "velocity": 0.3858267716535433,
                    "duration": 0.625
                },
                {
                    "name": "C5",
                    "midi": 72,
                    "time": 19.375,
                    "velocity": 0.3858267716535433,
                    "duration": 0.625
                },
                {
                    "name": "D#4",
                    "midi": 63,
                    "time": 20,
                    "velocity": 0.3858267716535433,
                    "duration": 0.625
                },
                {
                    "name": "G4",
                    "midi": 67,
                    "time": 20,
                    "velocity": 0.3858267716535433,
                    "duration": 0.625
                },
                {
                    "name": "A#4",
                    "midi": 70,
                    "time": 20,
                    "velocity": 0.3858267716535433,
                    "duration": 0.625
                },
                {
                    "name": "D5",
                    "midi": 74,
                    "time": 20,
                    "velocity": 0.3858267716535433,
                    "duration": 0.625
                },
                {
                    "name": "D#4",
                    "midi": 63,
                    "time": 20.625,
                    "velocity": 0.3858267716535433,
                    "duration": 0.625
                },
                {
                    "name": "G4",
                    "midi": 67,
                    "time": 20.625,
                    "velocity": 0.3858267716535433,
                    "duration": 0.625
                },
                {
                    "name": "A#4",
                    "midi": 70,
                    "time": 20.625,
                    "velocity": 0.3858267716535433,
                    "duration": 0.625
                },
                {
                    "name": "D5",
                    "midi": 74,
                    "time": 20.625,
                    "velocity": 0.3858267716535433,
                    "duration": 0.625
                },
                {
                    "name": "F4",
                    "midi": 65,
                    "time": 21.25,
                    "velocity": 0.3858267716535433,
                    "duration": 0.625
                },
                {
                    "name": "A4",
                    "midi": 69,
                    "time": 21.25,
                    "velocity": 0.3858267716535433,
                    "duration": 0.625
                },
                {
                    "name": "C5",
                    "midi": 72,
                    "time": 21.25,
                    "velocity": 0.3858267716535433,
                    "duration": 0.625
                },
                {
                    "name": "D#5",
                    "midi": 75,
                    "time": 21.25,
                    "velocity": 0.3858267716535433,
                    "duration": 0.625
                },
                {
                    "name": "G4",
                    "midi": 67,
                    "time": 21.875,
                    "velocity": 0.3858267716535433,
                    "duration": 0.625
                },
                {
                    "name": "A#4",
                    "midi": 70,
                    "time": 21.875,
                    "velocity": 0.3858267716535433,
                    "duration": 0.625
                },
                {
                    "name": "D5",
                    "midi": 74,
                    "time": 21.875,
                    "velocity": 0.3858267716535433,
                    "duration": 0.625
                },
                {
                    "name": "F5",
                    "midi": 77,
                    "time": 21.875,
                    "velocity": 0.3858267716535433,
                    "duration": 0.625
                },
                {
                    "name": "A4",
                    "midi": 69,
                    "time": 22.5,
                    "velocity": 0.3858267716535433,
                    "duration": 0.625
                },
                {
                    "name": "C5",
                    "midi": 72,
                    "time": 22.5,
                    "velocity": 0.3858267716535433,
                    "duration": 0.625
                },
                {
                    "name": "E5",
                    "midi": 76,
                    "time": 22.5,
                    "velocity": 0.3858267716535433,
                    "duration": 0.625
                },
                {
                    "name": "G5",
                    "midi": 79,
                    "time": 22.5,
                    "velocity": 0.3858267716535433,
                    "duration": 0.625
                },
                {
                    "name": "A#4",
                    "midi": 70,
                    "time": 23.125,
                    "velocity": 0.3858267716535433,
                    "duration": 0.625
                },
                {
                    "name": "D5",
                    "midi": 74,
                    "time": 23.125,
                    "velocity": 0.3858267716535433,
                    "duration": 0.625
                },
                {
                    "name": "F5",
                    "midi": 77,
                    "time": 23.125,
                    "velocity": 0.3858267716535433,
                    "duration": 0.625
                },
                {
                    "name": "A5",
                    "midi": 81,
                    "time": 23.125,
                    "velocity": 0.3858267716535433,
                    "duration": 0.625
                },
                {
                    "name": "D5",
                    "midi": 74,
                    "time": 23.75,
                    "velocity": 0.3858267716535433,
                    "duration": 0.625
                },
                {
                    "name": "F5",
                    "midi": 77,
                    "time": 23.75,
                    "velocity": 0.3858267716535433,
                    "duration": 0.625
                },
                {
                    "name": "A5",
                    "midi": 81,
                    "time": 23.75,
                    "velocity": 0.3858267716535433,
                    "duration": 0.625
                },
                {
                    "name": "C6",
                    "midi": 84,
                    "time": 23.75,
                    "velocity": 0.3858267716535433,
                    "duration": 0.625
                },
                {
                    "name": "A#4",
                    "midi": 70,
                    "time": 24.375,
                    "velocity": 0.3858267716535433,
                    "duration": 0.625
                },
                {
                    "name": "D5",
                    "midi": 74,
                    "time": 24.375,
                    "velocity": 0.3858267716535433,
                    "duration": 0.625
                },
                {
                    "name": "F5",
                    "midi": 77,
                    "time": 24.375,
                    "velocity": 0.3858267716535433,
                    "duration": 0.625
                },
                {
                    "name": "A5",
                    "midi": 81,
                    "time": 24.375,
                    "velocity": 0.3858267716535433,
                    "duration": 0.625
                },
                {
                    "name": "A4",
                    "midi": 69,
                    "time": 25,
                    "velocity": 0.3858267716535433,
                    "duration": 0.625
                },
                {
                    "name": "C5",
                    "midi": 72,
                    "time": 25,
                    "velocity": 0.3858267716535433,
                    "duration": 0.625
                },
                {
                    "name": "E5",
                    "midi": 76,
                    "time": 25,
                    "velocity": 0.3858267716535433,
                    "duration": 0.625
                },
                {
                    "name": "G5",
                    "midi": 79,
                    "time": 25,
                    "velocity": 0.3858267716535433,
                    "duration": 0.625
                },
                {
                    "name": "G4",
                    "midi": 67,
                    "time": 25.625,
                    "velocity": 0.3858267716535433,
                    "duration": 0.625
                },
                {
                    "name": "A#4",
                    "midi": 70,
                    "time": 25.625,
                    "velocity": 0.3858267716535433,
                    "duration": 0.625
                },
                {
                    "name": "D5",
                    "midi": 74,
                    "time": 25.625,
                    "velocity": 0.3858267716535433,
                    "duration": 0.625
                },
                {
                    "name": "F5",
                    "midi": 77,
                    "time": 25.625,
                    "velocity": 0.3858267716535433,
                    "duration": 0.625
                },
                {
                    "name": "D#4",
                    "midi": 63,
                    "time": 26.25,
                    "velocity": 0.3858267716535433,
                    "duration": 1.875
                },
                {
                    "name": "G4",
                    "midi": 67,
                    "time": 26.25,
                    "velocity": 0.3858267716535433,
                    "duration": 1.875
                },
                {
                    "name": "A#4",
                    "midi": 70,
                    "time": 26.25,
                    "velocity": 0.3858267716535433,
                    "duration": 1.875
                },
                {
                    "name": "D5",
                    "midi": 74,
                    "time": 26.25,
                    "velocity": 0.3858267716535433,
                    "duration": 1.875
                },
                {
                    "name": "D#4",
                    "midi": 63,
                    "time": 28.125,
                    "velocity": 0.3858267716535433,
                    "duration": 0.625
                },
                {
                    "name": "G4",
                    "midi": 67,
                    "time": 28.125,
                    "velocity": 0.3858267716535433,
                    "duration": 0.625
                },
                {
                    "name": "A#4",
                    "midi": 70,
                    "time": 28.125,
                    "velocity": 0.3858267716535433,
                    "duration": 0.625
                },
                {
                    "name": "D5",
                    "midi": 74,
                    "time": 28.125,
                    "velocity": 0.3858267716535433,
                    "duration": 0.625
                },
                {
                    "name": "F4",
                    "midi": 65,
                    "time": 28.75,
                    "velocity": 0.3858267716535433,
                    "duration": 0.625
                },
                {
                    "name": "G#4",
                    "midi": 68,
                    "time": 28.75,
                    "velocity": 0.3858267716535433,
                    "duration": 0.625
                },
                {
                    "name": "C5",
                    "midi": 72,
                    "time": 28.75,
                    "velocity": 0.3858267716535433,
                    "duration": 0.625
                },
                {
                    "name": "D#5",
                    "midi": 75,
                    "time": 28.75,
                    "velocity": 0.3858267716535433,
                    "duration": 0.625
                },
                {
                    "name": "A#3",
                    "midi": 58,
                    "time": 29.375,
                    "velocity": 0.3858267716535433,
                    "duration": 0.625
                },
                {
                    "name": "C#4",
                    "midi": 61,
                    "time": 29.375,
                    "velocity": 0.3858267716535433,
                    "duration": 0.625
                },
                {
                    "name": "F4",
                    "midi": 65,
                    "time": 29.375,
                    "velocity": 0.3858267716535433,
                    "duration": 0.625
                },
                {
                    "name": "G#4",
                    "midi": 68,
                    "time": 29.375,
                    "velocity": 0.3858267716535433,
                    "duration": 0.625
                },
                {
                    "name": "C4",
                    "midi": 60,
                    "time": 30,
                    "velocity": 0.3858267716535433,
                    "duration": 0.625
                },
                {
                    "name": "D#4",
                    "midi": 63,
                    "time": 30,
                    "velocity": 0.3858267716535433,
                    "duration": 0.625
                },
                {
                    "name": "G4",
                    "midi": 67,
                    "time": 30,
                    "velocity": 0.3858267716535433,
                    "duration": 0.625
                },
                {
                    "name": "A#4",
                    "midi": 70,
                    "time": 30,
                    "velocity": 0.3858267716535433,
                    "duration": 0.625
                },
                {
                    "name": "C#4",
                    "midi": 61,
                    "time": 30.625,
                    "velocity": 0.3858267716535433,
                    "duration": 0.625
                },
                {
                    "name": "F4",
                    "midi": 65,
                    "time": 30.625,
                    "velocity": 0.3858267716535433,
                    "duration": 0.625
                },
                {
                    "name": "G#4",
                    "midi": 68,
                    "time": 30.625,
                    "velocity": 0.3858267716535433,
                    "duration": 0.625
                },
                {
                    "name": "C5",
                    "midi": 72,
                    "time": 30.625,
                    "velocity": 0.3858267716535433,
                    "duration": 0.625
                },
                {
                    "name": "D#4",
                    "midi": 63,
                    "time": 31.25,
                    "velocity": 0.3858267716535433,
                    "duration": 0.625
                },
                {
                    "name": "F#4",
                    "midi": 66,
                    "time": 31.25,
                    "velocity": 0.3858267716535433,
                    "duration": 0.625
                },
                {
                    "name": "A#4",
                    "midi": 70,
                    "time": 31.25,
                    "velocity": 0.3858267716535433,
                    "duration": 0.625
                },
                {
                    "name": "C#5",
                    "midi": 73,
                    "time": 31.25,
                    "velocity": 0.3858267716535433,
                    "duration": 0.625
                },
                {
                    "name": "G#3",
                    "midi": 56,
                    "time": 31.875,
                    "velocity": 0.3858267716535433,
                    "duration": 0.625
                },
                {
                    "name": "B3",
                    "midi": 59,
                    "time": 31.875,
                    "velocity": 0.3858267716535433,
                    "duration": 0.625
                },
                {
                    "name": "D#4",
                    "midi": 63,
                    "time": 31.875,
                    "velocity": 0.3858267716535433,
                    "duration": 0.625
                },
                {
                    "name": "F#4",
                    "midi": 66,
                    "time": 31.875,
                    "velocity": 0.3858267716535433,
                    "duration": 0.625
                },
                {
                    "name": "A#3",
                    "midi": 58,
                    "time": 32.5,
                    "velocity": 0.3858267716535433,
                    "duration": 0.625
                },
                {
                    "name": "C#4",
                    "midi": 61,
                    "time": 32.5,
                    "velocity": 0.3858267716535433,
                    "duration": 0.625
                },
                {
                    "name": "F4",
                    "midi": 65,
                    "time": 32.5,
                    "velocity": 0.3858267716535433,
                    "duration": 0.625
                },
                {
                    "name": "G#4",
                    "midi": 68,
                    "time": 32.5,
                    "velocity": 0.3858267716535433,
                    "duration": 0.625
                },
                {
                    "name": "B3",
                    "midi": 59,
                    "time": 33.125,
                    "velocity": 0.3858267716535433,
                    "duration": 0.625
                },
                {
                    "name": "D#4",
                    "midi": 63,
                    "time": 33.125,
                    "velocity": 0.3858267716535433,
                    "duration": 0.625
                },
                {
                    "name": "F#4",
                    "midi": 66,
                    "time": 33.125,
                    "velocity": 0.3858267716535433,
                    "duration": 0.625
                },
                {
                    "name": "A#4",
                    "midi": 70,
                    "time": 33.125,
                    "velocity": 0.3858267716535433,
                    "duration": 0.625
                },
                {
                    "name": "C#4",
                    "midi": 61,
                    "time": 33.75,
                    "velocity": 0.3858267716535433,
                    "duration": 0.625
                },
                {
                    "name": "E4",
                    "midi": 64,
                    "time": 33.75,
                    "velocity": 0.3858267716535433,
                    "duration": 0.625
                },
                {
                    "name": "G#4",
                    "midi": 68,
                    "time": 33.75,
                    "velocity": 0.3858267716535433,
                    "duration": 0.625
                },
                {
                    "name": "B4",
                    "midi": 71,
                    "time": 33.75,
                    "velocity": 0.3858267716535433,
                    "duration": 0.625
                },
                {
                    "name": "F#3",
                    "midi": 54,
                    "time": 34.375,
                    "velocity": 0.3858267716535433,
                    "duration": 0.625
                },
                {
                    "name": "A3",
                    "midi": 57,
                    "time": 34.375,
                    "velocity": 0.3858267716535433,
                    "duration": 0.625
                },
                {
                    "name": "C#4",
                    "midi": 61,
                    "time": 34.375,
                    "velocity": 0.3858267716535433,
                    "duration": 0.625
                },
                {
                    "name": "E4",
                    "midi": 64,
                    "time": 34.375,
                    "velocity": 0.3858267716535433,
                    "duration": 0.625
                },
                {
                    "name": "G#3",
                    "midi": 56,
                    "time": 35,
                    "velocity": 0.4881889763779528,
                    "duration": 1.25
                },
                {
                    "name": "B3",
                    "midi": 59,
                    "time": 35,
                    "velocity": 0.4881889763779528,
                    "duration": 1.25
                },
                {
                    "name": "D#4",
                    "midi": 63,
                    "time": 35,
                    "velocity": 0.4881889763779528,
                    "duration": 1.25
                },
                {
                    "name": "F#4",
                    "midi": 66,
                    "time": 35,
                    "velocity": 0.4881889763779528,
                    "duration": 1.25
                },
                {
                    "name": "G#3",
                    "midi": 56,
                    "time": 40,
                    "velocity": 0.4881889763779528,
                    "duration": 1.25
                },
                {
                    "name": "B3",
                    "midi": 59,
                    "time": 40,
                    "velocity": 0.4881889763779528,
                    "duration": 1.25
                },
                {
                    "name": "D#4",
                    "midi": 63,
                    "time": 40,
                    "velocity": 0.4881889763779528,
                    "duration": 1.25
                },
                {
                    "name": "F#4",
                    "midi": 66,
                    "time": 40,
                    "velocity": 0.4881889763779528,
                    "duration": 1.25
                },
                {
                    "name": "G#3",
                    "midi": 56,
                    "time": 45,
                    "velocity": 0.5905511811023622,
                    "duration": 0.029947916666664298
                },
                {
                    "name": "B3",
                    "midi": 59,
                    "time": 45,
                    "velocity": 0.5905511811023622,
                    "duration": 0.029947916666664298
                },
                {
                    "name": "D#4",
                    "midi": 63,
                    "time": 45,
                    "velocity": 0.5905511811023622,
                    "duration": 0.029947916666664298
                },
                {
                    "name": "G#3",
                    "midi": 56,
                    "time": 45.15625,
                    "velocity": 0.5905511811023622,
                    "duration": 0.029947916666664298
                },
                {
                    "name": "B3",
                    "midi": 59,
                    "time": 45.15625,
                    "velocity": 0.5905511811023622,
                    "duration": 0.029947916666664298
                },
                {
                    "name": "D#4",
                    "midi": 63,
                    "time": 45.15625,
                    "velocity": 0.5905511811023622,
                    "duration": 0.029947916666664298
                },
                {
                    "name": "G#3",
                    "midi": 56,
                    "time": 45.3125,
                    "velocity": 0.5905511811023622,
                    "duration": 0.029947916666664298
                },
                {
                    "name": "B3",
                    "midi": 59,
                    "time": 45.3125,
                    "velocity": 0.5905511811023622,
                    "duration": 0.029947916666664298
                },
                {
                    "name": "D#4",
                    "midi": 63,
                    "time": 45.3125,
                    "velocity": 0.5905511811023622,
                    "duration": 0.029947916666664298
                },
                {
                    "name": "G#3",
                    "midi": 56,
                    "time": 45.46875,
                    "velocity": 0.5905511811023622,
                    "duration": 0.029947916666664298
                },
                {
                    "name": "B3",
                    "midi": 59,
                    "time": 45.46875,
                    "velocity": 0.5905511811023622,
                    "duration": 0.029947916666664298
                },
                {
                    "name": "D#4",
                    "midi": 63,
                    "time": 45.46875,
                    "velocity": 0.5905511811023622,
                    "duration": 0.029947916666664298
                },
                {
                    "name": "G#3",
                    "midi": 56,
                    "time": 45.625,
                    "velocity": 0.5905511811023622,
                    "duration": 0.0611979166666643
                },
                {
                    "name": "B3",
                    "midi": 59,
                    "time": 45.625,
                    "velocity": 0.5905511811023622,
                    "duration": 0.0611979166666643
                },
                {
                    "name": "D#4",
                    "midi": 63,
                    "time": 45.625,
                    "velocity": 0.5905511811023622,
                    "duration": 0.0611979166666643
                },
                {
                    "name": "B3",
                    "midi": 59,
                    "time": 45.9375,
                    "velocity": 0.7952755905511811,
                    "duration": 0.0611979166666643
                },
                {
                    "name": "D#4",
                    "midi": 63,
                    "time": 45.9375,
                    "velocity": 0.7952755905511811,
                    "duration": 0.0611979166666643
                },
                {
                    "name": "G#4",
                    "midi": 68,
                    "time": 45.9375,
                    "velocity": 0.7952755905511811,
                    "duration": 0.0611979166666643
                },
                {
                    "name": "B3",
                    "midi": 59,
                    "time": 46.25,
                    "velocity": 0.7952755905511811,
                    "duration": 1.25
                },
                {
                    "name": "D#4",
                    "midi": 63,
                    "time": 46.25,
                    "velocity": 0.7952755905511811,
                    "duration": 1.25
                },
                {
                    "name": "F#4",
                    "midi": 66,
                    "time": 46.25,
                    "velocity": 0.7952755905511811,
                    "duration": 1.25
                },
                {
                    "name": "A3",
                    "midi": 57,
                    "time": 47.5,
                    "velocity": 0.5905511811023622,
                    "duration": 0.029947916666664298
                },
                {
                    "name": "C4",
                    "midi": 60,
                    "time": 47.5,
                    "velocity": 0.5905511811023622,
                    "duration": 0.029947916666664298
                },
                {
                    "name": "D#4",
                    "midi": 63,
                    "time": 47.5,
                    "velocity": 0.5905511811023622,
                    "duration": 0.029947916666664298
                },
                {
                    "name": "A3",
                    "midi": 57,
                    "time": 47.65625,
                    "velocity": 0.5905511811023622,
                    "duration": 0.029947916666664298
                },
                {
                    "name": "C4",
                    "midi": 60,
                    "time": 47.65625,
                    "velocity": 0.5905511811023622,
                    "duration": 0.029947916666664298
                },
                {
                    "name": "D#4",
                    "midi": 63,
                    "time": 47.65625,
                    "velocity": 0.5905511811023622,
                    "duration": 0.029947916666664298
                },
                {
                    "name": "A3",
                    "midi": 57,
                    "time": 47.8125,
                    "velocity": 0.5905511811023622,
                    "duration": 0.029947916666664298
                },
                {
                    "name": "C4",
                    "midi": 60,
                    "time": 47.8125,
                    "velocity": 0.5905511811023622,
                    "duration": 0.029947916666664298
                },
                {
                    "name": "D#4",
                    "midi": 63,
                    "time": 47.8125,
                    "velocity": 0.5905511811023622,
                    "duration": 0.029947916666664298
                },
                {
                    "name": "A3",
                    "midi": 57,
                    "time": 47.96875,
                    "velocity": 0.5905511811023622,
                    "duration": 0.029947916666664298
                },
                {
                    "name": "C4",
                    "midi": 60,
                    "time": 47.96875,
                    "velocity": 0.5905511811023622,
                    "duration": 0.029947916666664298
                },
                {
                    "name": "D#4",
                    "midi": 63,
                    "time": 47.96875,
                    "velocity": 0.5905511811023622,
                    "duration": 0.029947916666664298
                },
                {
                    "name": "A3",
                    "midi": 57,
                    "time": 48.125,
                    "velocity": 0.5905511811023622,
                    "duration": 0.0611979166666643
                },
                {
                    "name": "C4",
                    "midi": 60,
                    "time": 48.125,
                    "velocity": 0.5905511811023622,
                    "duration": 0.0611979166666643
                },
                {
                    "name": "D#4",
                    "midi": 63,
                    "time": 48.125,
                    "velocity": 0.5905511811023622,
                    "duration": 0.0611979166666643
                },
                {
                    "name": "C4",
                    "midi": 60,
                    "time": 48.4375,
                    "velocity": 0.7952755905511811,
                    "duration": 0.3125
                },
                {
                    "name": "D#4",
                    "midi": 63,
                    "time": 48.4375,
                    "velocity": 0.7952755905511811,
                    "duration": 0.3125
                },
                {
                    "name": "G#4",
                    "midi": 68,
                    "time": 48.4375,
                    "velocity": 0.7952755905511811,
                    "duration": 0.3125
                },
                {
                    "name": "C4",
                    "midi": 60,
                    "time": 48.75,
                    "velocity": 0.7952755905511811,
                    "duration": 0.625
                },
                {
                    "name": "D#4",
                    "midi": 63,
                    "time": 48.75,
                    "velocity": 0.7952755905511811,
                    "duration": 0.625
                },
                {
                    "name": "F#4",
                    "midi": 66,
                    "time": 48.75,
                    "velocity": 0.7952755905511811,
                    "duration": 0.625
                },
                {
                    "name": "F#3",
                    "midi": 54,
                    "time": 49.375,
                    "velocity": 0.5905511811023622,
                    "duration": 0.029947916666664298
                },
                {
                    "name": "C4",
                    "midi": 60,
                    "time": 49.375,
                    "velocity": 0.5905511811023622,
                    "duration": 0.029947916666664298
                },
                {
                    "name": "D#4",
                    "midi": 63,
                    "time": 49.375,
                    "velocity": 0.5905511811023622,
                    "duration": 0.029947916666664298
                },
                {
                    "name": "F#3",
                    "midi": 54,
                    "time": 49.53125,
                    "velocity": 0.5905511811023622,
                    "duration": 0.029947916666664298
                },
                {
                    "name": "C4",
                    "midi": 60,
                    "time": 49.53125,
                    "velocity": 0.5905511811023622,
                    "duration": 0.029947916666664298
                },
                {
                    "name": "D#4",
                    "midi": 63,
                    "time": 49.53125,
                    "velocity": 0.5905511811023622,
                    "duration": 0.029947916666664298
                },
                {
                    "name": "F#3",
                    "midi": 54,
                    "time": 49.6875,
                    "velocity": 0.5905511811023622,
                    "duration": 0.029947916666664298
                },
                {
                    "name": "C4",
                    "midi": 60,
                    "time": 49.6875,
                    "velocity": 0.5905511811023622,
                    "duration": 0.029947916666664298
                },
                {
                    "name": "D#4",
                    "midi": 63,
                    "time": 49.6875,
                    "velocity": 0.5905511811023622,
                    "duration": 0.029947916666664298
                },
                {
                    "name": "F#3",
                    "midi": 54,
                    "time": 49.84375,
                    "velocity": 0.5905511811023622,
                    "duration": 0.029947916666664298
                },
                {
                    "name": "C4",
                    "midi": 60,
                    "time": 49.84375,
                    "velocity": 0.5905511811023622,
                    "duration": 0.029947916666664298
                },
                {
                    "name": "D#4",
                    "midi": 63,
                    "time": 49.84375,
                    "velocity": 0.5905511811023622,
                    "duration": 0.029947916666664298
                },
                {
                    "name": "F#3",
                    "midi": 54,
                    "time": 50,
                    "velocity": 0.5905511811023622,
                    "duration": 0.0611979166666643
                },
                {
                    "name": "C4",
                    "midi": 60,
                    "time": 50,
                    "velocity": 0.5905511811023622,
                    "duration": 0.0611979166666643
                },
                {
                    "name": "D#4",
                    "midi": 63,
                    "time": 50,
                    "velocity": 0.5905511811023622,
                    "duration": 0.0611979166666643
                },
                {
                    "name": "C4",
                    "midi": 60,
                    "time": 50.3125,
                    "velocity": 0.5905511811023622,
                    "duration": 0.0611979166666643
                },
                {
                    "name": "D#4",
                    "midi": 63,
                    "time": 50.3125,
                    "velocity": 0.5905511811023622,
                    "duration": 0.0611979166666643
                },
                {
                    "name": "G#4",
                    "midi": 68,
                    "time": 50.3125,
                    "velocity": 0.5905511811023622,
                    "duration": 0.0611979166666643
                },
                {
                    "name": "C4",
                    "midi": 60,
                    "time": 50.625,
                    "velocity": 0.7952755905511811,
                    "duration": 0.625
                },
                {
                    "name": "D#4",
                    "midi": 63,
                    "time": 50.625,
                    "velocity": 0.7952755905511811,
                    "duration": 0.625
                },
                {
                    "name": "G#4",
                    "midi": 68,
                    "time": 50.625,
                    "velocity": 0.7952755905511811,
                    "duration": 0.625
                },
                {
                    "name": "G#2",
                    "midi": 44,
                    "time": 52.1875,
                    "velocity": 0.5905511811023622,
                    "duration": 0.625
                },
                {
                    "name": "A2",
                    "midi": 45,
                    "time": 52.8125,
                    "velocity": 0.5905511811023622,
                    "duration": 0.625
                },
                {
                    "name": "A#2",
                    "midi": 46,
                    "time": 53.4375,
                    "velocity": 0.5905511811023622,
                    "duration": 0.625
                },
                {
                    "name": "B2",
                    "midi": 47,
                    "time": 54.0625,
                    "velocity": 0.5905511811023622,
                    "duration": 0.625
                },
                {
                    "name": "C3",
                    "midi": 48,
                    "time": 54.6875,
                    "velocity": 0.5905511811023622,
                    "duration": 0.625
                },
                {
                    "name": "C#3",
                    "midi": 49,
                    "time": 55.3125,
                    "velocity": 0.5905511811023622,
                    "duration": 0.625
                },
                {
                    "name": "D3",
                    "midi": 50,
                    "time": 55.9375,
                    "velocity": 0.5905511811023622,
                    "duration": 0.625
                },
                {
                    "name": "D#3",
                    "midi": 51,
                    "time": 56.5625,
                    "velocity": 0.5905511811023622,
                    "duration": 0.625
                },
                {
                    "name": "E3",
                    "midi": 52,
                    "time": 57.1875,
                    "velocity": 0.5905511811023622,
                    "duration": 0.625
                },
                {
                    "name": "F3",
                    "midi": 53,
                    "time": 57.8125,
                    "velocity": 0.5905511811023622,
                    "duration": 0.625
                },
                {
                    "name": "F#3",
                    "midi": 54,
                    "time": 58.4375,
                    "velocity": 0.5905511811023622,
                    "duration": 0.9375
                },
                {
                    "name": "F3",
                    "midi": 53,
                    "time": 59.375,
                    "velocity": 0.5905511811023622,
                    "duration": 0.3125
                },
                {
                    "name": "E3",
                    "midi": 52,
                    "time": 59.6875,
                    "velocity": 0.5905511811023622,
                    "duration": 0.3125
                },
                {
                    "name": "F#3",
                    "midi": 54,
                    "time": 60,
                    "velocity": 0.5905511811023622,
                    "duration": 0.3125
                },
                {
                    "name": "F3",
                    "midi": 53,
                    "time": 60.3125,
                    "velocity": 0.5905511811023622,
                    "duration": 0.3125
                },
                {
                    "name": "E3",
                    "midi": 52,
                    "time": 60.625,
                    "velocity": 0.5905511811023622,
                    "duration": 0.625
                },
                {
                    "name": "F#3",
                    "midi": 54,
                    "time": 61.25,
                    "velocity": 0.5905511811023622,
                    "duration": 0.625
                },
                {
                    "name": "F3",
                    "midi": 53,
                    "time": 61.875,
                    "velocity": 0.5905511811023622,
                    "duration": 0.625
                },
                {
                    "name": "E3",
                    "midi": 52,
                    "time": 62.5,
                    "velocity": 0.5905511811023622,
                    "duration": 1.25
                },
                {
                    "name": "A#4",
                    "midi": 70,
                    "time": 73.4375,
                    "velocity": 0.5905511811023622,
                    "duration": 0.15625
                },
                {
                    "name": "B4",
                    "midi": 71,
                    "time": 73.59375,
                    "velocity": 0.5905511811023622,
                    "duration": 0.15625
                },
                {
                    "name": "C#5",
                    "midi": 73,
                    "time": 73.75,
                    "velocity": 0.5905511811023622,
                    "duration": 0.029947916666671404
                },
                {
                    "name": "C#5",
                    "midi": 73,
                    "time": 73.90625,
                    "velocity": 0.5905511811023622,
                    "duration": 0.029947916666671404
                },
                {
                    "name": "C#5",
                    "midi": 73,
                    "time": 74.0625,
                    "velocity": 0.6929133858267716,
                    "duration": 0.029947916666671404
                },
                {
                    "name": "C#5",
                    "midi": 73,
                    "time": 74.21875,
                    "velocity": 0.6929133858267716,
                    "duration": 0.029947916666671404
                },
                {
                    "name": "C#5",
                    "midi": 73,
                    "time": 74.375,
                    "velocity": 0.6929133858267716,
                    "duration": 0.061197916666671404
                },
                {
                    "name": "A#5",
                    "midi": 82,
                    "time": 74.6875,
                    "velocity": 0.6929133858267716,
                    "duration": 0.3125
                },
                {
                    "name": "G#5",
                    "midi": 80,
                    "time": 75,
                    "velocity": 0.6929133858267716,
                    "duration": 0.625
                },
                {
                    "name": "F#5",
                    "midi": 78,
                    "time": 75.625,
                    "velocity": 0.6929133858267716,
                    "duration": 1.875
                },
                {
                    "name": "B4",
                    "midi": 71,
                    "time": 84.6875,
                    "velocity": 0.4881889763779528,
                    "duration": 0.15625
                },
                {
                    "name": "C#5",
                    "midi": 73,
                    "time": 84.84375,
                    "velocity": 0.4881889763779528,
                    "duration": 0.15625
                },
                {
                    "name": "D5",
                    "midi": 74,
                    "time": 85,
                    "velocity": 0.4881889763779528,
                    "duration": 0.029947916666671404
                },
                {
                    "name": "D5",
                    "midi": 74,
                    "time": 85.15625,
                    "velocity": 0.4881889763779528,
                    "duration": 0.029947916666671404
                },
                {
                    "name": "D5",
                    "midi": 74,
                    "time": 85.3125,
                    "velocity": 0.5905511811023622,
                    "duration": 0.029947916666671404
                },
                {
                    "name": "D5",
                    "midi": 74,
                    "time": 85.46875,
                    "velocity": 0.5905511811023622,
                    "duration": 0.029947916666671404
                },
                {
                    "name": "D5",
                    "midi": 74,
                    "time": 85.625,
                    "velocity": 0.5905511811023622,
                    "duration": 0.061197916666671404
                },
                {
                    "name": "B5",
                    "midi": 83,
                    "time": 85.9375,
                    "velocity": 0.5905511811023622,
                    "duration": 0.3125
                },
                {
                    "name": "A5",
                    "midi": 81,
                    "time": 86.25,
                    "velocity": 0.5905511811023622,
                    "duration": 0.625
                },
                {
                    "name": "G5",
                    "midi": 79,
                    "time": 86.875,
                    "velocity": 0.5905511811023622,
                    "duration": 1.875
                },
                {
                    "name": "G#4",
                    "midi": 68,
                    "time": 88.75,
                    "velocity": 0.6929133858267716,
                    "duration": 0.061197916666671404
                },
                {
                    "name": "A4",
                    "midi": 69,
                    "time": 89.0625,
                    "velocity": 0.6929133858267716,
                    "duration": 0.061197916666671404
                },
                {
                    "name": "B4",
                    "midi": 71,
                    "time": 89.375,
                    "velocity": 0.6929133858267716,
                    "duration": 0.061197916666671404
                },
                {
                    "name": "C#5",
                    "midi": 73,
                    "time": 89.6875,
                    "velocity": 0.6929133858267716,
                    "duration": 0.061197916666671404
                },
                {
                    "name": "D#5",
                    "midi": 75,
                    "time": 90,
                    "velocity": 0.6929133858267716,
                    "duration": 0.061197916666671404
                },
                {
                    "name": "D#5",
                    "midi": 75,
                    "time": 90.3125,
                    "velocity": 0.6929133858267716,
                    "duration": 0.061197916666671404
                },
                {
                    "name": "D#5",
                    "midi": 75,
                    "time": 90.625,
                    "velocity": 0.6929133858267716,
                    "duration": 0.061197916666671404
                },
                {
                    "name": "D#5",
                    "midi": 75,
                    "time": 90.9375,
                    "velocity": 0.6929133858267716,
                    "duration": 0.061197916666671404
                },
                {
                    "name": "D#5",
                    "midi": 75,
                    "time": 91.25,
                    "velocity": 0.8976377952755905,
                    "duration": 0.3125
                },
                {
                    "name": "D#5",
                    "midi": 75,
                    "time": 91.5625,
                    "velocity": 0.8976377952755905,
                    "duration": 0.3125
                },
                {
                    "name": "D#5",
                    "midi": 75,
                    "time": 91.875,
                    "velocity": 0.8976377952755905,
                    "duration": 0.3125
                },
                {
                    "name": "D#5",
                    "midi": 75,
                    "time": 92.1875,
                    "velocity": 0.8976377952755905,
                    "duration": 0.3125
                },
                {
                    "name": "D#5",
                    "midi": 75,
                    "time": 92.5,
                    "velocity": 0.8976377952755905,
                    "duration": 0.3125
                },
                {
                    "name": "C#5",
                    "midi": 73,
                    "time": 92.8125,
                    "velocity": 0.8976377952755905,
                    "duration": 0.3125
                },
                {
                    "name": "B4",
                    "midi": 71,
                    "time": 93.125,
                    "velocity": 0.8976377952755905,
                    "duration": 0.3125
                },
                {
                    "name": "A#4",
                    "midi": 70,
                    "time": 93.4375,
                    "velocity": 0.8976377952755905,
                    "duration": 0.3125
                },
                {
                    "name": "G#4",
                    "midi": 68,
                    "time": 93.75,
                    "velocity": 0.6929133858267716,
                    "duration": 2.5
                },
                {
                    "name": "G#4",
                    "midi": 68,
                    "time": 96.25,
                    "velocity": 0.6929133858267716,
                    "duration": 0.061197916666671404
                },
                {
                    "name": "A4",
                    "midi": 69,
                    "time": 96.5625,
                    "velocity": 0.6929133858267716,
                    "duration": 0.061197916666671404
                },
                {
                    "name": "B4",
                    "midi": 71,
                    "time": 96.875,
                    "velocity": 0.6929133858267716,
                    "duration": 0.061197916666671404
                },
                {
                    "name": "C#5",
                    "midi": 73,
                    "time": 97.1875,
                    "velocity": 0.6929133858267716,
                    "duration": 0.061197916666671404
                },
                {
                    "name": "D#5",
                    "midi": 75,
                    "time": 97.5,
                    "velocity": 0.6929133858267716,
                    "duration": 0.061197916666671404
                },
                {
                    "name": "D#5",
                    "midi": 75,
                    "time": 97.8125,
                    "velocity": 0.6929133858267716,
                    "duration": 0.061197916666671404
                },
                {
                    "name": "D#5",
                    "midi": 75,
                    "time": 98.125,
                    "velocity": 0.6929133858267716,
                    "duration": 0.061197916666671404
                },
                {
                    "name": "D#5",
                    "midi": 75,
                    "time": 98.4375,
                    "velocity": 0.6929133858267716,
                    "duration": 0.061197916666671404
                },
                {
                    "name": "D#5",
                    "midi": 75,
                    "time": 98.75,
                    "velocity": 0.8976377952755905,
                    "duration": 0.3125
                },
                {
                    "name": "D#5",
                    "midi": 75,
                    "time": 99.0625,
                    "velocity": 0.8976377952755905,
                    "duration": 0.3125
                },
                {
                    "name": "D#5",
                    "midi": 75,
                    "time": 99.375,
                    "velocity": 0.8976377952755905,
                    "duration": 0.3125
                },
                {
                    "name": "D#5",
                    "midi": 75,
                    "time": 99.6875,
                    "velocity": 0.8976377952755905,
                    "duration": 0.3125
                },
                {
                    "name": "C#5",
                    "midi": 73,
                    "time": 100,
                    "velocity": 0.8976377952755905,
                    "duration": 0.3125
                },
                {
                    "name": "B4",
                    "midi": 71,
                    "time": 100.3125,
                    "velocity": 0.8976377952755905,
                    "duration": 0.3125
                },
                {
                    "name": "A4",
                    "midi": 69,
                    "time": 100.625,
                    "velocity": 0.8976377952755905,
                    "duration": 0.3125
                },
                {
                    "name": "G#4",
                    "midi": 68,
                    "time": 100.9375,
                    "velocity": 0.8976377952755905,
                    "duration": 0.3125
                },
                {
                    "name": "F#4",
                    "midi": 66,
                    "time": 101.25,
                    "velocity": 0.8976377952755905,
                    "duration": 2.5
                },
                {
                    "name": "F#4",
                    "midi": 66,
                    "time": 103.75,
                    "velocity": 0.8976377952755905,
                    "duration": 2.5
                },
                {
                    "name": "A4",
                    "midi": 69,
                    "time": 106.5625,
                    "velocity": 0.8976377952755905,
                    "duration": 0.3125
                },
                {
                    "name": "C#5",
                    "midi": 73,
                    "time": 106.5625,
                    "velocity": 0.8976377952755905,
                    "duration": 0.3125
                },
                {
                    "name": "E5",
                    "midi": 76,
                    "time": 106.5625,
                    "velocity": 0.8976377952755905,
                    "duration": 0.3125
                },
                {
                    "name": "B4",
                    "midi": 71,
                    "time": 106.875,
                    "velocity": 0.6929133858267716,
                    "duration": 0.3125
                },
                {
                    "name": "D#5",
                    "midi": 75,
                    "time": 106.875,
                    "velocity": 0.6929133858267716,
                    "duration": 0.3125
                },
                {
                    "name": "F#5",
                    "midi": 78,
                    "time": 106.875,
                    "velocity": 0.6929133858267716,
                    "duration": 0.3125
                },
                {
                    "name": "G#4",
                    "midi": 68,
                    "time": 107.1875,
                    "velocity": 0.6929133858267716,
                    "duration": 0.3125
                },
                {
                    "name": "B4",
                    "midi": 71,
                    "time": 107.1875,
                    "velocity": 0.6929133858267716,
                    "duration": 0.3125
                },
                {
                    "name": "D#5",
                    "midi": 75,
                    "time": 107.1875,
                    "velocity": 0.6929133858267716,
                    "duration": 0.3125
                },
                {
                    "name": "A4",
                    "midi": 69,
                    "time": 107.5,
                    "velocity": 0.8976377952755905,
                    "duration": 0.3125
                },
                {
                    "name": "C#5",
                    "midi": 73,
                    "time": 107.5,
                    "velocity": 0.8976377952755905,
                    "duration": 0.3125
                },
                {
                    "name": "E5",
                    "midi": 76,
                    "time": 107.5,
                    "velocity": 0.8976377952755905,
                    "duration": 0.3125
                },
                {
                    "name": "G#4",
                    "midi": 68,
                    "time": 107.8125,
                    "velocity": 0.8976377952755905,
                    "duration": 0.3125
                },
                {
                    "name": "B4",
                    "midi": 71,
                    "time": 107.8125,
                    "velocity": 0.8976377952755905,
                    "duration": 0.3125
                },
                {
                    "name": "D#5",
                    "midi": 75,
                    "time": 107.8125,
                    "velocity": 0.8976377952755905,
                    "duration": 0.3125
                },
                {
                    "name": "F#4",
                    "midi": 66,
                    "time": 108.125,
                    "velocity": 0.8976377952755905,
                    "duration": 0.625
                },
                {
                    "name": "A4",
                    "midi": 69,
                    "time": 108.125,
                    "velocity": 0.8976377952755905,
                    "duration": 0.625
                },
                {
                    "name": "C#5",
                    "midi": 73,
                    "time": 108.125,
                    "velocity": 0.8976377952755905,
                    "duration": 0.625
                },
                {
                    "name": "D#5",
                    "midi": 75,
                    "time": 109.0625,
                    "velocity": 0.6929133858267716,
                    "duration": 0.15625
                },
                {
                    "name": "E5",
                    "midi": 76,
                    "time": 109.21875,
                    "velocity": 0.6929133858267716,
                    "duration": 0.15625
                },
                {
                    "name": "G5",
                    "midi": 79,
                    "time": 109.375,
                    "velocity": 0.6929133858267716,
                    "duration": 0.029947916666671404
                },
                {
                    "name": "F#5",
                    "midi": 78,
                    "time": 109.53125,
                    "velocity": 0.6929133858267716,
                    "duration": 0.029947916666671404
                },
                {
                    "name": "D5",
                    "midi": 74,
                    "time": 109.6875,
                    "velocity": 0.6929133858267716,
                    "duration": 0.029947916666671404
                },
                {
                    "name": "D#5",
                    "midi": 75,
                    "time": 109.84375,
                    "velocity": 0.6929133858267716,
                    "duration": 0.029947916666671404
                },
                {
                    "name": "A4",
                    "midi": 69,
                    "time": 110,
                    "velocity": 0.8976377952755905,
                    "duration": 0.3125
                },
                {
                    "name": "C#5",
                    "midi": 73,
                    "time": 110,
                    "velocity": 0.8976377952755905,
                    "duration": 0.3125
                },
                {
                    "name": "E5",
                    "midi": 76,
                    "time": 110,
                    "velocity": 0.8976377952755905,
                    "duration": 0.3125
                },
                {
                    "name": "G#4",
                    "midi": 68,
                    "time": 110.3125,
                    "velocity": 0.8976377952755905,
                    "duration": 0.3125
                },
                {
                    "name": "B4",
                    "midi": 71,
                    "time": 110.3125,
                    "velocity": 0.8976377952755905,
                    "duration": 0.3125
                },
                {
                    "name": "D#5",
                    "midi": 75,
                    "time": 110.3125,
                    "velocity": 0.8976377952755905,
                    "duration": 0.3125
                },
                {
                    "name": "F#4",
                    "midi": 66,
                    "time": 110.625,
                    "velocity": 0.8976377952755905,
                    "duration": 0.625
                },
                {
                    "name": "A4",
                    "midi": 69,
                    "time": 110.625,
                    "velocity": 0.8976377952755905,
                    "duration": 0.625
                },
                {
                    "name": "C#5",
                    "midi": 73,
                    "time": 110.625,
                    "velocity": 0.8976377952755905,
                    "duration": 0.625
                },
                {
                    "name": "E4",
                    "midi": 64,
                    "time": 111.5625,
                    "velocity": 0.6929133858267716,
                    "duration": 0.3125
                },
                {
                    "name": "G#4",
                    "midi": 68,
                    "time": 111.5625,
                    "velocity": 0.6929133858267716,
                    "duration": 0.3125
                },
                {
                    "name": "B4",
                    "midi": 71,
                    "time": 111.5625,
                    "velocity": 0.6929133858267716,
                    "duration": 0.3125
                },
                {
                    "name": "F#4",
                    "midi": 66,
                    "time": 111.875,
                    "velocity": 0.6929133858267716,
                    "duration": 0.3125
                },
                {
                    "name": "A4",
                    "midi": 69,
                    "time": 111.875,
                    "velocity": 0.6929133858267716,
                    "duration": 0.3125
                },
                {
                    "name": "C#5",
                    "midi": 73,
                    "time": 111.875,
                    "velocity": 0.6929133858267716,
                    "duration": 0.3125
                },
                {
                    "name": "G#4",
                    "midi": 68,
                    "time": 112.1875,
                    "velocity": 0.6929133858267716,
                    "duration": 0.061197916666671404
                },
                {
                    "name": "B4",
                    "midi": 71,
                    "time": 112.1875,
                    "velocity": 0.6929133858267716,
                    "duration": 0.061197916666671404
                },
                {
                    "name": "D#5",
                    "midi": 75,
                    "time": 112.1875,
                    "velocity": 0.6929133858267716,
                    "duration": 0.061197916666671404
                },
                {
                    "name": "F#5",
                    "midi": 78,
                    "time": 112.5,
                    "velocity": 0.8976377952755905,
                    "duration": 1.25
                },
                {
                    "name": "D7",
                    "midi": 98,
                    "time": 113.671875,
                    "velocity": 0.6929133858267716,
                    "duration": 0.078125
                },
                {
                    "name": "D#7",
                    "midi": 99,
                    "time": 113.75,
                    "velocity": 0.6929133858267716,
                    "duration": 0.061197916666671404
                },
                {
                    "name": "A#6",
                    "midi": 94,
                    "time": 114.0625,
                    "velocity": 0.6929133858267716,
                    "duration": 0.061197916666671404
                },
                {
                    "name": "D#6",
                    "midi": 87,
                    "time": 114.375,
                    "velocity": 0.6929133858267716,
                    "duration": 0.061197916666671404
                },
                {
                    "name": "A#5",
                    "midi": 82,
                    "time": 114.6875,
                    "velocity": 0.6929133858267716,
                    "duration": 0.061197916666671404
                },
                {
                    "name": "A6",
                    "midi": 93,
                    "time": 114.921875,
                    "velocity": 0.6929133858267716,
                    "duration": 0.078125
                },
                {
                    "name": "A#6",
                    "midi": 94,
                    "time": 115,
                    "velocity": 0.6929133858267716,
                    "duration": 0.061197916666671404
                },
                {
                    "name": "D#6",
                    "midi": 87,
                    "time": 115.3125,
                    "velocity": 0.6929133858267716,
                    "duration": 0.061197916666671404
                },
                {
                    "name": "A#5",
                    "midi": 82,
                    "time": 115.625,
                    "velocity": 0.6929133858267716,
                    "duration": 0.061197916666671404
                },
                {
                    "name": "D#5",
                    "midi": 75,
                    "time": 115.9375,
                    "velocity": 0.6929133858267716,
                    "duration": 0.061197916666671404
                },
                {
                    "name": "D6",
                    "midi": 86,
                    "time": 116.171875,
                    "velocity": 0.6929133858267716,
                    "duration": 0.078125
                },
                {
                    "name": "D#6",
                    "midi": 87,
                    "time": 116.25,
                    "velocity": 0.6929133858267716,
                    "duration": 0.061197916666671404
                },
                {
                    "name": "A#5",
                    "midi": 82,
                    "time": 116.5625,
                    "velocity": 0.6929133858267716,
                    "duration": 0.061197916666671404
                },
                {
                    "name": "D#5",
                    "midi": 75,
                    "time": 116.875,
                    "velocity": 0.6929133858267716,
                    "duration": 0.061197916666671404
                },
                {
                    "name": "A#4",
                    "midi": 70,
                    "time": 117.1875,
                    "velocity": 0.6929133858267716,
                    "duration": 0.061197916666671404
                },
                {
                    "name": "A4",
                    "midi": 69,
                    "time": 117.8125,
                    "velocity": 0.8976377952755905,
                    "duration": 0.3125
                },
                {
                    "name": "C#5",
                    "midi": 73,
                    "time": 117.8125,
                    "velocity": 0.8976377952755905,
                    "duration": 0.3125
                },
                {
                    "name": "E5",
                    "midi": 76,
                    "time": 117.8125,
                    "velocity": 0.8976377952755905,
                    "duration": 0.3125
                },
                {
                    "name": "B4",
                    "midi": 71,
                    "time": 118.125,
                    "velocity": 0.6929133858267716,
                    "duration": 0.3125
                },
                {
                    "name": "D#5",
                    "midi": 75,
                    "time": 118.125,
                    "velocity": 0.6929133858267716,
                    "duration": 0.3125
                },
                {
                    "name": "F#5",
                    "midi": 78,
                    "time": 118.125,
                    "velocity": 0.6929133858267716,
                    "duration": 0.3125
                },
                {
                    "name": "G#4",
                    "midi": 68,
                    "time": 118.4375,
                    "velocity": 0.6929133858267716,
                    "duration": 0.3125
                },
                {
                    "name": "B4",
                    "midi": 71,
                    "time": 118.4375,
                    "velocity": 0.6929133858267716,
                    "duration": 0.3125
                },
                {
                    "name": "D#5",
                    "midi": 75,
                    "time": 118.4375,
                    "velocity": 0.6929133858267716,
                    "duration": 0.3125
                },
                {
                    "name": "A4",
                    "midi": 69,
                    "time": 118.75,
                    "velocity": 0.8976377952755905,
                    "duration": 0.3125
                },
                {
                    "name": "C#5",
                    "midi": 73,
                    "time": 118.75,
                    "velocity": 0.8976377952755905,
                    "duration": 0.3125
                },
                {
                    "name": "E5",
                    "midi": 76,
                    "time": 118.75,
                    "velocity": 0.8976377952755905,
                    "duration": 0.3125
                },
                {
                    "name": "G#4",
                    "midi": 68,
                    "time": 119.0625,
                    "velocity": 0.8976377952755905,
                    "duration": 0.3125
                },
                {
                    "name": "B4",
                    "midi": 71,
                    "time": 119.0625,
                    "velocity": 0.8976377952755905,
                    "duration": 0.3125
                },
                {
                    "name": "D#5",
                    "midi": 75,
                    "time": 119.0625,
                    "velocity": 0.8976377952755905,
                    "duration": 0.3125
                },
                {
                    "name": "F#4",
                    "midi": 66,
                    "time": 119.375,
                    "velocity": 0.8976377952755905,
                    "duration": 0.625
                },
                {
                    "name": "A4",
                    "midi": 69,
                    "time": 119.375,
                    "velocity": 0.8976377952755905,
                    "duration": 0.625
                },
                {
                    "name": "C#5",
                    "midi": 73,
                    "time": 119.375,
                    "velocity": 0.8976377952755905,
                    "duration": 0.625
                },
                {
                    "name": "D#5",
                    "midi": 75,
                    "time": 120.3125,
                    "velocity": 0.6929133858267716,
                    "duration": 0.15625
                },
                {
                    "name": "E5",
                    "midi": 76,
                    "time": 120.46875,
                    "velocity": 0.6929133858267716,
                    "duration": 0.15625
                },
                {
                    "name": "G5",
                    "midi": 79,
                    "time": 120.625,
                    "velocity": 0.6929133858267716,
                    "duration": 0.029947916666671404
                },
                {
                    "name": "F#5",
                    "midi": 78,
                    "time": 120.78125,
                    "velocity": 0.6929133858267716,
                    "duration": 0.029947916666671404
                },
                {
                    "name": "D5",
                    "midi": 74,
                    "time": 120.9375,
                    "velocity": 0.6929133858267716,
                    "duration": 0.029947916666671404
                },
                {
                    "name": "D#5",
                    "midi": 75,
                    "time": 121.09375,
                    "velocity": 0.6929133858267716,
                    "duration": 0.029947916666671404
                },
                {
                    "name": "A4",
                    "midi": 69,
                    "time": 121.25,
                    "velocity": 0.8976377952755905,
                    "duration": 0.3125
                },
                {
                    "name": "C#5",
                    "midi": 73,
                    "time": 121.25,
                    "velocity": 0.8976377952755905,
                    "duration": 0.3125
                },
                {
                    "name": "E5",
                    "midi": 76,
                    "time": 121.25,
                    "velocity": 0.8976377952755905,
                    "duration": 0.3125
                },
                {
                    "name": "G#4",
                    "midi": 68,
                    "time": 121.5625,
                    "velocity": 0.8976377952755905,
                    "duration": 0.3125
                },
                {
                    "name": "B4",
                    "midi": 71,
                    "time": 121.5625,
                    "velocity": 0.8976377952755905,
                    "duration": 0.3125
                },
                {
                    "name": "D#5",
                    "midi": 75,
                    "time": 121.5625,
                    "velocity": 0.8976377952755905,
                    "duration": 0.3125
                },
                {
                    "name": "F#4",
                    "midi": 66,
                    "time": 121.875,
                    "velocity": 0.8976377952755905,
                    "duration": 0.625
                },
                {
                    "name": "A4",
                    "midi": 69,
                    "time": 121.875,
                    "velocity": 0.8976377952755905,
                    "duration": 0.625
                },
                {
                    "name": "C#5",
                    "midi": 73,
                    "time": 121.875,
                    "velocity": 0.8976377952755905,
                    "duration": 0.625
                },
                {
                    "name": "E4",
                    "midi": 64,
                    "time": 122.8125,
                    "velocity": 0.6929133858267716,
                    "duration": 0.3125
                },
                {
                    "name": "G#4",
                    "midi": 68,
                    "time": 122.8125,
                    "velocity": 0.6929133858267716,
                    "duration": 0.3125
                },
                {
                    "name": "B4",
                    "midi": 71,
                    "time": 122.8125,
                    "velocity": 0.6929133858267716,
                    "duration": 0.3125
                },
                {
                    "name": "F#4",
                    "midi": 66,
                    "time": 123.125,
                    "velocity": 0.6929133858267716,
                    "duration": 0.3125
                },
                {
                    "name": "A4",
                    "midi": 69,
                    "time": 123.125,
                    "velocity": 0.6929133858267716,
                    "duration": 0.3125
                },
                {
                    "name": "C#5",
                    "midi": 73,
                    "time": 123.125,
                    "velocity": 0.6929133858267716,
                    "duration": 0.3125
                },
                {
                    "name": "G#4",
                    "midi": 68,
                    "time": 123.4375,
                    "velocity": 0.6929133858267716,
                    "duration": 0.061197916666671404
                },
                {
                    "name": "B4",
                    "midi": 71,
                    "time": 123.4375,
                    "velocity": 0.6929133858267716,
                    "duration": 0.061197916666671404
                },
                {
                    "name": "D#5",
                    "midi": 75,
                    "time": 123.4375,
                    "velocity": 0.6929133858267716,
                    "duration": 0.061197916666671404
                },
                {
                    "name": "G5",
                    "midi": 79,
                    "time": 123.75,
                    "velocity": 0.8976377952755905,
                    "duration": 1.25
                },
                {
                    "name": "D#7",
                    "midi": 99,
                    "time": 124.921875,
                    "velocity": 0.6929133858267716,
                    "duration": 0.078125
                },
                {
                    "name": "E7",
                    "midi": 100,
                    "time": 125,
                    "velocity": 0.6929133858267716,
                    "duration": 0.061197916666671404
                },
                {
                    "name": "B6",
                    "midi": 95,
                    "time": 125.3125,
                    "velocity": 0.6929133858267716,
                    "duration": 0.061197916666671404
                },
                {
                    "name": "E6",
                    "midi": 88,
                    "time": 125.625,
                    "velocity": 0.6929133858267716,
                    "duration": 0.061197916666671404
                },
                {
                    "name": "B5",
                    "midi": 83,
                    "time": 125.9375,
                    "velocity": 0.6929133858267716,
                    "duration": 0.061197916666671404
                },
                {
                    "name": "A#6",
                    "midi": 94,
                    "time": 126.171875,
                    "velocity": 0.6929133858267716,
                    "duration": 0.078125
                },
                {
                    "name": "B6",
                    "midi": 95,
                    "time": 126.25,
                    "velocity": 0.6929133858267716,
                    "duration": 0.061197916666671404
                },
                {
                    "name": "E6",
                    "midi": 88,
                    "time": 126.5625,
                    "velocity": 0.6929133858267716,
                    "duration": 0.061197916666671404
                },
                {
                    "name": "B5",
                    "midi": 83,
                    "time": 126.875,
                    "velocity": 0.6929133858267716,
                    "duration": 0.061197916666671404
                },
                {
                    "name": "E5",
                    "midi": 76,
                    "time": 127.1875,
                    "velocity": 0.6929133858267716,
                    "duration": 0.061197916666671404
                },
                {
                    "name": "D#6",
                    "midi": 87,
                    "time": 127.421875,
                    "velocity": 0.6929133858267716,
                    "duration": 0.078125
                },
                {
                    "name": "E6",
                    "midi": 88,
                    "time": 127.5,
                    "velocity": 0.6929133858267716,
                    "duration": 0.061197916666671404
                },
                {
                    "name": "B5",
                    "midi": 83,
                    "time": 127.8125,
                    "velocity": 0.6929133858267716,
                    "duration": 0.061197916666671404
                },
                {
                    "name": "E5",
                    "midi": 76,
                    "time": 128.125,
                    "velocity": 0.6929133858267716,
                    "duration": 0.06119791666665719
                },
                {
                    "name": "B4",
                    "midi": 71,
                    "time": 128.4375,
                    "velocity": 0.6929133858267716,
                    "duration": 0.06119791666665719
                },
                {
                    "name": "G#4",
                    "midi": 68,
                    "time": 128.75,
                    "velocity": 0.6929133858267716,
                    "duration": 0.15625
                },
                {
                    "name": "A4",
                    "midi": 69,
                    "time": 128.90625,
                    "velocity": 0.6929133858267716,
                    "duration": 0.15625
                },
                {
                    "name": "B4",
                    "midi": 71,
                    "time": 129.0625,
                    "velocity": 0.6929133858267716,
                    "duration": 0.029947916666657193
                },
                {
                    "name": "C#5",
                    "midi": 73,
                    "time": 129.21875,
                    "velocity": 0.6929133858267716,
                    "duration": 0.029947916666657193
                },
                {
                    "name": "D#5",
                    "midi": 75,
                    "time": 129.375,
                    "velocity": 0.6929133858267716,
                    "duration": 0.029947916666657193
                },
                {
                    "name": "D#5",
                    "midi": 75,
                    "time": 129.53125,
                    "velocity": 0.6929133858267716,
                    "duration": 0.029947916666657193
                },
                {
                    "name": "D#5",
                    "midi": 75,
                    "time": 129.6875,
                    "velocity": 0.6929133858267716,
                    "duration": 0.029947916666657193
                },
                {
                    "name": "D#5",
                    "midi": 75,
                    "time": 129.84375,
                    "velocity": 0.6929133858267716,
                    "duration": 0.029947916666657193
                },
                {
                    "name": "D#5",
                    "midi": 75,
                    "time": 130,
                    "velocity": 0.6929133858267716,
                    "duration": 0.029947916666657193
                },
                {
                    "name": "D#5",
                    "midi": 75,
                    "time": 130.15625,
                    "velocity": 0.6929133858267716,
                    "duration": 0.029947916666657193
                },
                {
                    "name": "D#5",
                    "midi": 75,
                    "time": 130.3125,
                    "velocity": 0.6929133858267716,
                    "duration": 0.029947916666657193
                },
                {
                    "name": "D#5",
                    "midi": 75,
                    "time": 130.46875,
                    "velocity": 0.6929133858267716,
                    "duration": 0.029947916666657193
                },
                {
                    "name": "D#5",
                    "midi": 75,
                    "time": 130.625,
                    "velocity": 0.6929133858267716,
                    "duration": 0.029947916666657193
                },
                {
                    "name": "C#5",
                    "midi": 73,
                    "time": 130.78125,
                    "velocity": 0.6929133858267716,
                    "duration": 0.029947916666657193
                },
                {
                    "name": "B4",
                    "midi": 71,
                    "time": 130.9375,
                    "velocity": 0.6929133858267716,
                    "duration": 0.029947916666657193
                },
                {
                    "name": "A#4",
                    "midi": 70,
                    "time": 131.09375,
                    "velocity": 0.6929133858267716,
                    "duration": 0.029947916666657193
                },
                {
                    "name": "G#4",
                    "midi": 68,
                    "time": 131.25,
                    "velocity": 0.8976377952755905,
                    "duration": 2.5
                },
                {
                    "name": "G#4",
                    "midi": 68,
                    "time": 133.75,
                    "velocity": 0.6929133858267716,
                    "duration": 0.15625
                },
                {
                    "name": "A4",
                    "midi": 69,
                    "time": 133.90625,
                    "velocity": 0.6929133858267716,
                    "duration": 0.15625
                },
                {
                    "name": "B4",
                    "midi": 71,
                    "time": 134.0625,
                    "velocity": 0.6929133858267716,
                    "duration": 0.029947916666657193
                },
                {
                    "name": "C#5",
                    "midi": 73,
                    "time": 134.21875,
                    "velocity": 0.6929133858267716,
                    "duration": 0.029947916666657193
                },
                {
                    "name": "D#5",
                    "midi": 75,
                    "time": 134.375,
                    "velocity": 0.6929133858267716,
                    "duration": 0.029947916666657193
                },
                {
                    "name": "D#5",
                    "midi": 75,
                    "time": 134.53125,
                    "velocity": 0.6929133858267716,
                    "duration": 0.029947916666657193
                },
                {
                    "name": "D#5",
                    "midi": 75,
                    "time": 134.6875,
                    "velocity": 0.6929133858267716,
                    "duration": 0.029947916666657193
                },
                {
                    "name": "D#5",
                    "midi": 75,
                    "time": 134.84375,
                    "velocity": 0.6929133858267716,
                    "duration": 0.029947916666657193
                },
                {
                    "name": "D#5",
                    "midi": 75,
                    "time": 135,
                    "velocity": 0.6929133858267716,
                    "duration": 0.029947916666657193
                },
                {
                    "name": "D#5",
                    "midi": 75,
                    "time": 135.15625,
                    "velocity": 0.6929133858267716,
                    "duration": 0.029947916666657193
                },
                {
                    "name": "D#5",
                    "midi": 75,
                    "time": 135.3125,
                    "velocity": 0.6929133858267716,
                    "duration": 0.029947916666657193
                },
                {
                    "name": "D#5",
                    "midi": 75,
                    "time": 135.46875,
                    "velocity": 0.6929133858267716,
                    "duration": 0.029947916666657193
                },
                {
                    "name": "A4",
                    "midi": 69,
                    "time": 135.625,
                    "velocity": 0.6929133858267716,
                    "duration": 0.15625
                },
                {
                    "name": "B4",
                    "midi": 71,
                    "time": 135.78125,
                    "velocity": 0.6929133858267716,
                    "duration": 0.15625
                },
                {
                    "name": "C#5",
                    "midi": 73,
                    "time": 135.9375,
                    "velocity": 0.6929133858267716,
                    "duration": 0.029947916666657193
                },
                {
                    "name": "D#5",
                    "midi": 75,
                    "time": 136.09375,
                    "velocity": 0.6929133858267716,
                    "duration": 0.029947916666657193
                },
                {
                    "name": "A4",
                    "midi": 69,
                    "time": 136.5625,
                    "velocity": 0.6929133858267716,
                    "duration": 0.3125
                },
                {
                    "name": "C#5",
                    "midi": 73,
                    "time": 136.5625,
                    "velocity": 0.6929133858267716,
                    "duration": 0.3125
                },
                {
                    "name": "E5",
                    "midi": 76,
                    "time": 136.5625,
                    "velocity": 0.6929133858267716,
                    "duration": 0.3125
                },
                {
                    "name": "B4",
                    "midi": 71,
                    "time": 136.875,
                    "velocity": 0.6929133858267716,
                    "duration": 0.3125
                },
                {
                    "name": "D#5",
                    "midi": 75,
                    "time": 136.875,
                    "velocity": 0.6929133858267716,
                    "duration": 0.3125
                },
                {
                    "name": "F#5",
                    "midi": 78,
                    "time": 136.875,
                    "velocity": 0.6929133858267716,
                    "duration": 0.3125
                },
                {
                    "name": "G#4",
                    "midi": 68,
                    "time": 137.1875,
                    "velocity": 0.6929133858267716,
                    "duration": 0.06119791666665719
                },
                {
                    "name": "B4",
                    "midi": 71,
                    "time": 137.1875,
                    "velocity": 0.6929133858267716,
                    "duration": 0.06119791666665719
                },
                {
                    "name": "D#5",
                    "midi": 75,
                    "time": 137.1875,
                    "velocity": 0.6929133858267716,
                    "duration": 0.06119791666665719
                },
                {
                    "name": "A4",
                    "midi": 69,
                    "time": 137.5,
                    "velocity": 0.6929133858267716,
                    "duration": 0.06119791666665719
                },
                {
                    "name": "C#5",
                    "midi": 73,
                    "time": 137.5,
                    "velocity": 0.6929133858267716,
                    "duration": 0.06119791666665719
                },
                {
                    "name": "E5",
                    "midi": 76,
                    "time": 137.5,
                    "velocity": 0.6929133858267716,
                    "duration": 0.06119791666665719
                },
                {
                    "name": "G#4",
                    "midi": 68,
                    "time": 137.8125,
                    "velocity": 0.6929133858267716,
                    "duration": 0.06119791666665719
                },
                {
                    "name": "B4",
                    "midi": 71,
                    "time": 137.8125,
                    "velocity": 0.6929133858267716,
                    "duration": 0.06119791666665719
                },
                {
                    "name": "D#5",
                    "midi": 75,
                    "time": 137.8125,
                    "velocity": 0.6929133858267716,
                    "duration": 0.06119791666665719
                },
                {
                    "name": "F#4",
                    "midi": 66,
                    "time": 138.125,
                    "velocity": 0.6929133858267716,
                    "duration": 0.06119791666665719
                },
                {
                    "name": "A4",
                    "midi": 69,
                    "time": 138.125,
                    "velocity": 0.6929133858267716,
                    "duration": 0.06119791666665719
                },
                {
                    "name": "C#5",
                    "midi": 73,
                    "time": 138.125,
                    "velocity": 0.6929133858267716,
                    "duration": 0.06119791666665719
                },
                {
                    "name": "E4",
                    "midi": 64,
                    "time": 138.4375,
                    "velocity": 0.8976377952755905,
                    "duration": 0.3125
                },
                {
                    "name": "G#4",
                    "midi": 68,
                    "time": 138.4375,
                    "velocity": 0.8976377952755905,
                    "duration": 0.3125
                },
                {
                    "name": "B4",
                    "midi": 71,
                    "time": 138.4375,
                    "velocity": 0.8976377952755905,
                    "duration": 0.3125
                },
                {
                    "name": "F#4",
                    "midi": 66,
                    "time": 138.75,
                    "velocity": 0.6929133858267716,
                    "duration": 0.3125
                },
                {
                    "name": "A4",
                    "midi": 69,
                    "time": 138.75,
                    "velocity": 0.6929133858267716,
                    "duration": 0.3125
                },
                {
                    "name": "C#5",
                    "midi": 73,
                    "time": 138.75,
                    "velocity": 0.6929133858267716,
                    "duration": 0.3125
                },
                {
                    "name": "D#4",
                    "midi": 63,
                    "time": 139.0625,
                    "velocity": 0.6929133858267716,
                    "duration": 0.06119791666665719
                },
                {
                    "name": "F#4",
                    "midi": 66,
                    "time": 139.0625,
                    "velocity": 0.6929133858267716,
                    "duration": 0.06119791666665719
                },
                {
                    "name": "A4",
                    "midi": 69,
                    "time": 139.0625,
                    "velocity": 0.6929133858267716,
                    "duration": 0.06119791666665719
                },
                {
                    "name": "E4",
                    "midi": 64,
                    "time": 139.375,
                    "velocity": 0.6929133858267716,
                    "duration": 0.06119791666665719
                },
                {
                    "name": "G#4",
                    "midi": 68,
                    "time": 139.375,
                    "velocity": 0.6929133858267716,
                    "duration": 0.06119791666665719
                },
                {
                    "name": "B4",
                    "midi": 71,
                    "time": 139.375,
                    "velocity": 0.6929133858267716,
                    "duration": 0.06119791666665719
                },
                {
                    "name": "D#4",
                    "midi": 63,
                    "time": 139.6875,
                    "velocity": 0.6929133858267716,
                    "duration": 0.06119791666665719
                },
                {
                    "name": "F#4",
                    "midi": 66,
                    "time": 139.6875,
                    "velocity": 0.6929133858267716,
                    "duration": 0.06119791666665719
                },
                {
                    "name": "A4",
                    "midi": 69,
                    "time": 139.6875,
                    "velocity": 0.6929133858267716,
                    "duration": 0.06119791666665719
                },
                {
                    "name": "C#4",
                    "midi": 61,
                    "time": 140,
                    "velocity": 0.6929133858267716,
                    "duration": 0.06119791666665719
                },
                {
                    "name": "E4",
                    "midi": 64,
                    "time": 140,
                    "velocity": 0.6929133858267716,
                    "duration": 0.06119791666665719
                },
                {
                    "name": "G#4",
                    "midi": 68,
                    "time": 140,
                    "velocity": 0.6929133858267716,
                    "duration": 0.06119791666665719
                },
                {
                    "name": "B3",
                    "midi": 59,
                    "time": 140.3125,
                    "velocity": 0.8976377952755905,
                    "duration": 0.3125
                },
                {
                    "name": "D#4",
                    "midi": 63,
                    "time": 140.3125,
                    "velocity": 0.8976377952755905,
                    "duration": 0.3125
                },
                {
                    "name": "F#4",
                    "midi": 66,
                    "time": 140.3125,
                    "velocity": 0.8976377952755905,
                    "duration": 0.3125
                },
                {
                    "name": "C#4",
                    "midi": 61,
                    "time": 140.625,
                    "velocity": 0.6929133858267716,
                    "duration": 0.3125
                },
                {
                    "name": "E4",
                    "midi": 64,
                    "time": 140.625,
                    "velocity": 0.6929133858267716,
                    "duration": 0.3125
                },
                {
                    "name": "G#4",
                    "midi": 68,
                    "time": 140.625,
                    "velocity": 0.6929133858267716,
                    "duration": 0.3125
                },
                {
                    "name": "A3",
                    "midi": 57,
                    "time": 140.9375,
                    "velocity": 0.6929133858267716,
                    "duration": 0.06119791666665719
                },
                {
                    "name": "C#4",
                    "midi": 61,
                    "time": 140.9375,
                    "velocity": 0.6929133858267716,
                    "duration": 0.06119791666665719
                },
                {
                    "name": "E4",
                    "midi": 64,
                    "time": 140.9375,
                    "velocity": 0.6929133858267716,
                    "duration": 0.06119791666665719
                },
                {
                    "name": "B3",
                    "midi": 59,
                    "time": 141.25,
                    "velocity": 0.6929133858267716,
                    "duration": 0.06119791666665719
                },
                {
                    "name": "D#4",
                    "midi": 63,
                    "time": 141.25,
                    "velocity": 0.6929133858267716,
                    "duration": 0.06119791666665719
                },
                {
                    "name": "F#4",
                    "midi": 66,
                    "time": 141.25,
                    "velocity": 0.6929133858267716,
                    "duration": 0.06119791666665719
                },
                {
                    "name": "A3",
                    "midi": 57,
                    "time": 141.5625,
                    "velocity": 0.6929133858267716,
                    "duration": 0.06119791666665719
                },
                {
                    "name": "C#4",
                    "midi": 61,
                    "time": 141.5625,
                    "velocity": 0.6929133858267716,
                    "duration": 0.06119791666665719
                },
                {
                    "name": "E4",
                    "midi": 64,
                    "time": 141.5625,
                    "velocity": 0.6929133858267716,
                    "duration": 0.06119791666665719
                },
                {
                    "name": "G#3",
                    "midi": 56,
                    "time": 141.875,
                    "velocity": 0.6929133858267716,
                    "duration": 0.06119791666665719
                },
                {
                    "name": "B3",
                    "midi": 59,
                    "time": 141.875,
                    "velocity": 0.6929133858267716,
                    "duration": 0.06119791666665719
                },
                {
                    "name": "D#4",
                    "midi": 63,
                    "time": 141.875,
                    "velocity": 0.6929133858267716,
                    "duration": 0.06119791666665719
                },
                {
                    "name": "F#3",
                    "midi": 54,
                    "time": 142.1875,
                    "velocity": 0.8976377952755905,
                    "duration": 0.3125
                },
                {
                    "name": "A3",
                    "midi": 57,
                    "time": 142.1875,
                    "velocity": 0.8976377952755905,
                    "duration": 0.3125
                },
                {
                    "name": "C#4",
                    "midi": 61,
                    "time": 142.1875,
                    "velocity": 0.8976377952755905,
                    "duration": 0.3125
                },
                {
                    "name": "G#3",
                    "midi": 56,
                    "time": 142.5,
                    "velocity": 0.6929133858267716,
                    "duration": 0.3125
                },
                {
                    "name": "B3",
                    "midi": 59,
                    "time": 142.5,
                    "velocity": 0.6929133858267716,
                    "duration": 0.3125
                },
                {
                    "name": "D#4",
                    "midi": 63,
                    "time": 142.5,
                    "velocity": 0.6929133858267716,
                    "duration": 0.3125
                },
                {
                    "name": "E3",
                    "midi": 52,
                    "time": 142.8125,
                    "velocity": 0.6929133858267716,
                    "duration": 0.06119791666665719
                },
                {
                    "name": "G#3",
                    "midi": 56,
                    "time": 142.8125,
                    "velocity": 0.6929133858267716,
                    "duration": 0.06119791666665719
                },
                {
                    "name": "B3",
                    "midi": 59,
                    "time": 142.8125,
                    "velocity": 0.6929133858267716,
                    "duration": 0.06119791666665719
                },
                {
                    "name": "B4",
                    "midi": 71,
                    "time": 143.125,
                    "velocity": 0.6929133858267716,
                    "duration": 1.25
                },
                {
                    "name": "E4",
                    "midi": 64,
                    "time": 148.125,
                    "velocity": 0.5905511811023622,
                    "duration": 0.3125
                },
                {
                    "name": "G#4",
                    "midi": 68,
                    "time": 148.125,
                    "velocity": 0.5905511811023622,
                    "duration": 0.3125
                },
                {
                    "name": "B4",
                    "midi": 71,
                    "time": 148.125,
                    "velocity": 0.5905511811023622,
                    "duration": 0.3125
                },
                {
                    "name": "C#4",
                    "midi": 61,
                    "time": 148.4375,
                    "velocity": 0.5905511811023622,
                    "duration": 0.3125
                },
                {
                    "name": "G#3",
                    "midi": 56,
                    "time": 148.75,
                    "velocity": 0.5905511811023622,
                    "duration": 0.625
                },
                {
                    "name": "B3",
                    "midi": 59,
                    "time": 148.75,
                    "velocity": 0.5905511811023622,
                    "duration": 0.625
                },
                {
                    "name": "D#4",
                    "midi": 63,
                    "time": 148.75,
                    "velocity": 0.5905511811023622,
                    "duration": 0.625
                },
                {
                    "name": "F#3",
                    "midi": 54,
                    "time": 149.375,
                    "velocity": 0.5905511811023622,
                    "duration": 0.3125
                },
                {
                    "name": "A3",
                    "midi": 57,
                    "time": 149.375,
                    "velocity": 0.5905511811023622,
                    "duration": 0.3125
                },
                {
                    "name": "C#4",
                    "midi": 61,
                    "time": 149.375,
                    "velocity": 0.5905511811023622,
                    "duration": 0.3125
                },
                {
                    "name": "E4",
                    "midi": 64,
                    "time": 149.375,
                    "velocity": 0.5905511811023622,
                    "duration": 0.3125
                },
                {
                    "name": "F#3",
                    "midi": 54,
                    "time": 149.6875,
                    "velocity": 0.5905511811023622,
                    "duration": 0.3125
                },
                {
                    "name": "G#3",
                    "midi": 56,
                    "time": 150,
                    "velocity": 0.5905511811023622,
                    "duration": 0.625
                },
                {
                    "name": "D#4",
                    "midi": 63,
                    "time": 150.625,
                    "velocity": 0.5905511811023622,
                    "duration": 0.625
                },
                {
                    "name": "F#4",
                    "midi": 66,
                    "time": 150.625,
                    "velocity": 0.5905511811023622,
                    "duration": 0.625
                },
                {
                    "name": "A4",
                    "midi": 69,
                    "time": 150.625,
                    "velocity": 0.5905511811023622,
                    "duration": 0.625
                },
                {
                    "name": "C#4",
                    "midi": 61,
                    "time": 151.25,
                    "velocity": 0.5905511811023622,
                    "duration": 0.625
                },
                {
                    "name": "E4",
                    "midi": 64,
                    "time": 151.25,
                    "velocity": 0.5905511811023622,
                    "duration": 0.625
                },
                {
                    "name": "G#4",
                    "midi": 68,
                    "time": 151.25,
                    "velocity": 0.5905511811023622,
                    "duration": 0.625
                },
                {
                    "name": "B4",
                    "midi": 71,
                    "time": 151.25,
                    "velocity": 0.5905511811023622,
                    "duration": 0.625
                },
                {
                    "name": "D#4",
                    "midi": 63,
                    "time": 151.875,
                    "velocity": 0.5905511811023622,
                    "duration": 0.625
                },
                {
                    "name": "F#4",
                    "midi": 66,
                    "time": 151.875,
                    "velocity": 0.5905511811023622,
                    "duration": 0.625
                },
                {
                    "name": "A4",
                    "midi": 69,
                    "time": 151.875,
                    "velocity": 0.5905511811023622,
                    "duration": 0.625
                },
                {
                    "name": "C#5",
                    "midi": 73,
                    "time": 151.875,
                    "velocity": 0.5905511811023622,
                    "duration": 0.625
                },
                {
                    "name": "E4",
                    "midi": 64,
                    "time": 152.5,
                    "velocity": 0.5905511811023622,
                    "duration": 0.625
                },
                {
                    "name": "G#4",
                    "midi": 68,
                    "time": 152.5,
                    "velocity": 0.5905511811023622,
                    "duration": 0.625
                },
                {
                    "name": "B4",
                    "midi": 71,
                    "time": 152.5,
                    "velocity": 0.5905511811023622,
                    "duration": 0.625
                },
                {
                    "name": "D#5",
                    "midi": 75,
                    "time": 152.5,
                    "velocity": 0.5905511811023622,
                    "duration": 0.625
                },
                {
                    "name": "G#4",
                    "midi": 68,
                    "time": 153.125,
                    "velocity": 0.5905511811023622,
                    "duration": 0.625
                },
                {
                    "name": "B4",
                    "midi": 71,
                    "time": 153.125,
                    "velocity": 0.5905511811023622,
                    "duration": 0.625
                },
                {
                    "name": "D#5",
                    "midi": 75,
                    "time": 153.125,
                    "velocity": 0.5905511811023622,
                    "duration": 0.625
                },
                {
                    "name": "F#5",
                    "midi": 78,
                    "time": 153.125,
                    "velocity": 0.5905511811023622,
                    "duration": 0.625
                },
                {
                    "name": "E4",
                    "midi": 64,
                    "time": 153.75,
                    "velocity": 0.5905511811023622,
                    "duration": 0.625
                },
                {
                    "name": "G#4",
                    "midi": 68,
                    "time": 153.75,
                    "velocity": 0.5905511811023622,
                    "duration": 0.625
                },
                {
                    "name": "B4",
                    "midi": 71,
                    "time": 153.75,
                    "velocity": 0.5905511811023622,
                    "duration": 0.625
                },
                {
                    "name": "D#5",
                    "midi": 75,
                    "time": 153.75,
                    "velocity": 0.5905511811023622,
                    "duration": 0.625
                },
                {
                    "name": "D#4",
                    "midi": 63,
                    "time": 154.375,
                    "velocity": 0.5905511811023622,
                    "duration": 0.625
                },
                {
                    "name": "F#4",
                    "midi": 66,
                    "time": 154.375,
                    "velocity": 0.5905511811023622,
                    "duration": 0.625
                },
                {
                    "name": "A4",
                    "midi": 69,
                    "time": 154.375,
                    "velocity": 0.5905511811023622,
                    "duration": 0.625
                },
                {
                    "name": "C#5",
                    "midi": 73,
                    "time": 154.375,
                    "velocity": 0.5905511811023622,
                    "duration": 0.625
                },
                {
                    "name": "C#4",
                    "midi": 61,
                    "time": 155,
                    "velocity": 0.5905511811023622,
                    "duration": 0.625
                },
                {
                    "name": "E4",
                    "midi": 64,
                    "time": 155,
                    "velocity": 0.5905511811023622,
                    "duration": 0.625
                },
                {
                    "name": "G#4",
                    "midi": 68,
                    "time": 155,
                    "velocity": 0.5905511811023622,
                    "duration": 0.625
                },
                {
                    "name": "B4",
                    "midi": 71,
                    "time": 155,
                    "velocity": 0.5905511811023622,
                    "duration": 0.625
                },
                {
                    "name": "A3",
                    "midi": 57,
                    "time": 155.625,
                    "velocity": 0.5905511811023622,
                    "duration": 0.625
                },
                {
                    "name": "C#4",
                    "midi": 61,
                    "time": 155.625,
                    "velocity": 0.5905511811023622,
                    "duration": 0.625
                },
                {
                    "name": "E4",
                    "midi": 64,
                    "time": 155.625,
                    "velocity": 0.5905511811023622,
                    "duration": 0.625
                },
                {
                    "name": "G#4",
                    "midi": 68,
                    "time": 155.625,
                    "velocity": 0.5905511811023622,
                    "duration": 0.625
                },
                {
                    "name": "C5",
                    "midi": 72,
                    "time": 156.25,
                    "velocity": 0.8976377952755905,
                    "duration": 0.3125
                },
                {
                    "name": "C5",
                    "midi": 72,
                    "time": 156.5625,
                    "velocity": 0.6929133858267716,
                    "duration": 0.029947916666657193
                },
                {
                    "name": "C5",
                    "midi": 72,
                    "time": 156.71875,
                    "velocity": 0.6929133858267716,
                    "duration": 0.029947916666657193
                },
                {
                    "name": "C5",
                    "midi": 72,
                    "time": 156.875,
                    "velocity": 0.6929133858267716,
                    "duration": 0.029947916666657193
                },
                {
                    "name": "C5",
                    "midi": 72,
                    "time": 157.03125,
                    "velocity": 0.6929133858267716,
                    "duration": 0.029947916666657193
                },
                {
                    "name": "E5",
                    "midi": 76,
                    "time": 157.1875,
                    "velocity": 0.8976377952755905,
                    "duration": 0.06119791666665719
                },
                {
                    "name": "A#3",
                    "midi": 58,
                    "time": 157.5,
                    "velocity": 0.8976377952755905,
                    "duration": 1.25
                },
                {
                    "name": "A#4",
                    "midi": 70,
                    "time": 157.5,
                    "velocity": 0.8976377952755905,
                    "duration": 1.25
                },
                {
                    "name": "D4",
                    "midi": 62,
                    "time": 158.75,
                    "velocity": 0.6929133858267716,
                    "duration": 0.15625
                },
                {
                    "name": "F#4",
                    "midi": 66,
                    "time": 158.90625,
                    "velocity": 0.6929133858267716,
                    "duration": 0.15625
                },
                {
                    "name": "A4",
                    "midi": 69,
                    "time": 159.0625,
                    "velocity": 0.6929133858267716,
                    "duration": 0.15625
                },
                {
                    "name": "C#5",
                    "midi": 73,
                    "time": 159.21875,
                    "velocity": 0.6929133858267716,
                    "duration": 0.15625
                },
                {
                    "name": "E5",
                    "midi": 76,
                    "time": 159.375,
                    "velocity": 0.6929133858267716,
                    "duration": 0.15625
                },
                {
                    "name": "G#5",
                    "midi": 80,
                    "time": 159.53125,
                    "velocity": 0.6929133858267716,
                    "duration": 0.15625
                },
                {
                    "name": "B5",
                    "midi": 83,
                    "time": 159.6875,
                    "velocity": 0.6929133858267716,
                    "duration": 0.15625
                },
                {
                    "name": "D#6",
                    "midi": 87,
                    "time": 159.84375,
                    "velocity": 0.6929133858267716,
                    "duration": 0.15625
                },
                {
                    "name": "F#6",
                    "midi": 90,
                    "time": 160,
                    "velocity": 0.6929133858267716,
                    "duration": 0.15625
                },
                {
                    "name": "D#6",
                    "midi": 87,
                    "time": 160.15625,
                    "velocity": 0.6929133858267716,
                    "duration": 0.15625
                },
                {
                    "name": "B5",
                    "midi": 83,
                    "time": 160.3125,
                    "velocity": 0.6929133858267716,
                    "duration": 0.15625
                },
                {
                    "name": "G#5",
                    "midi": 80,
                    "time": 160.46875,
                    "velocity": 0.6929133858267716,
                    "duration": 0.15625
                },
                {
                    "name": "E5",
                    "midi": 76,
                    "time": 160.625,
                    "velocity": 0.6929133858267716,
                    "duration": 0.15625
                },
                {
                    "name": "C#5",
                    "midi": 73,
                    "time": 160.78125,
                    "velocity": 0.6929133858267716,
                    "duration": 0.15625
                },
                {
                    "name": "A4",
                    "midi": 69,
                    "time": 160.9375,
                    "velocity": 0.6929133858267716,
                    "duration": 0.15625
                },
                {
                    "name": "F#4",
                    "midi": 66,
                    "time": 161.09375,
                    "velocity": 0.6929133858267716,
                    "duration": 0.15625
                },
                {
                    "name": "F#5",
                    "midi": 78,
                    "time": 161.25,
                    "velocity": 0.6929133858267716,
                    "duration": 0.15625
                },
                {
                    "name": "D#5",
                    "midi": 75,
                    "time": 161.40625,
                    "velocity": 0.6929133858267716,
                    "duration": 0.15625
                },
                {
                    "name": "B4",
                    "midi": 71,
                    "time": 161.5625,
                    "velocity": 0.6929133858267716,
                    "duration": 0.15625
                },
                {
                    "name": "G#4",
                    "midi": 68,
                    "time": 161.71875,
                    "velocity": 0.6929133858267716,
                    "duration": 0.15625
                },
                {
                    "name": "E5",
                    "midi": 76,
                    "time": 161.875,
                    "velocity": 0.8976377952755905,
                    "duration": 0.3125
                },
                {
                    "name": "E5",
                    "midi": 76,
                    "time": 162.1875,
                    "velocity": 0.6929133858267716,
                    "duration": 0.029947916666657193
                },
                {
                    "name": "E5",
                    "midi": 76,
                    "time": 162.34375,
                    "velocity": 0.6929133858267716,
                    "duration": 0.029947916666657193
                },
                {
                    "name": "E5",
                    "midi": 76,
                    "time": 162.5,
                    "velocity": 0.6929133858267716,
                    "duration": 0.029947916666657193
                },
                {
                    "name": "E5",
                    "midi": 76,
                    "time": 162.65625,
                    "velocity": 0.6929133858267716,
                    "duration": 0.029947916666657193
                },
                {
                    "name": "G#5",
                    "midi": 80,
                    "time": 162.8125,
                    "velocity": 0.8976377952755905,
                    "duration": 0.3125
                },
                {
                    "name": "D4",
                    "midi": 62,
                    "time": 163.125,
                    "velocity": 0.8976377952755905,
                    "duration": 1.25
                },
                {
                    "name": "D5",
                    "midi": 74,
                    "time": 163.125,
                    "velocity": 0.8976377952755905,
                    "duration": 1.25
                },
                {
                    "name": "F#4",
                    "midi": 66,
                    "time": 164.375,
                    "velocity": 0.6929133858267716,
                    "duration": 0.15625
                },
                {
                    "name": "A#4",
                    "midi": 70,
                    "time": 164.53125,
                    "velocity": 0.6929133858267716,
                    "duration": 0.15625
                },
                {
                    "name": "C#5",
                    "midi": 73,
                    "time": 164.6875,
                    "velocity": 0.6929133858267716,
                    "duration": 0.15625
                },
                {
                    "name": "F5",
                    "midi": 77,
                    "time": 164.84375,
                    "velocity": 0.6929133858267716,
                    "duration": 0.15625
                },
                {
                    "name": "G#5",
                    "midi": 80,
                    "time": 165,
                    "velocity": 0.6929133858267716,
                    "duration": 0.15625
                },
                {
                    "name": "C6",
                    "midi": 84,
                    "time": 165.15625,
                    "velocity": 0.6929133858267716,
                    "duration": 0.15625
                },
                {
                    "name": "D#6",
                    "midi": 87,
                    "time": 165.3125,
                    "velocity": 0.6929133858267716,
                    "duration": 0.15625
                },
                {
                    "name": "G6",
                    "midi": 91,
                    "time": 165.46875,
                    "velocity": 0.6929133858267716,
                    "duration": 0.15625
                },
                {
                    "name": "A#6",
                    "midi": 94,
                    "time": 165.625,
                    "velocity": 0.6929133858267716,
                    "duration": 0.15625
                },
                {
                    "name": "G6",
                    "midi": 91,
                    "time": 165.78125,
                    "velocity": 0.6929133858267716,
                    "duration": 0.15625
                },
                {
                    "name": "D#6",
                    "midi": 87,
                    "time": 165.9375,
                    "velocity": 0.6929133858267716,
                    "duration": 0.15625
                },
                {
                    "name": "C6",
                    "midi": 84,
                    "time": 166.09375,
                    "velocity": 0.6929133858267716,
                    "duration": 0.15625
                },
                {
                    "name": "G#5",
                    "midi": 80,
                    "time": 166.25,
                    "velocity": 0.6929133858267716,
                    "duration": 0.15625
                },
                {
                    "name": "F5",
                    "midi": 77,
                    "time": 166.40625,
                    "velocity": 0.6929133858267716,
                    "duration": 0.15625
                },
                {
                    "name": "C#5",
                    "midi": 73,
                    "time": 166.5625,
                    "velocity": 0.6929133858267716,
                    "duration": 0.15625
                },
                {
                    "name": "A#4",
                    "midi": 70,
                    "time": 166.71875,
                    "velocity": 0.6929133858267716,
                    "duration": 0.15625
                },
                {
                    "name": "A#5",
                    "midi": 82,
                    "time": 166.875,
                    "velocity": 0.6929133858267716,
                    "duration": 0.15625
                },
                {
                    "name": "G5",
                    "midi": 79,
                    "time": 167.03125,
                    "velocity": 0.6929133858267716,
                    "duration": 0.15625
                },
                {
                    "name": "D#5",
                    "midi": 75,
                    "time": 167.1875,
                    "velocity": 0.6929133858267716,
                    "duration": 0.15625
                },
                {
                    "name": "C5",
                    "midi": 72,
                    "time": 167.34375,
                    "velocity": 0.6929133858267716,
                    "duration": 0.15625
                },
                {
                    "name": "G#4",
                    "midi": 68,
                    "time": 167.5,
                    "velocity": 0.6929133858267716,
                    "duration": 0.15625
                },
                {
                    "name": "C5",
                    "midi": 72,
                    "time": 167.65625,
                    "velocity": 0.6929133858267716,
                    "duration": 0.15625
                },
                {
                    "name": "D#5",
                    "midi": 75,
                    "time": 167.8125,
                    "velocity": 0.6929133858267716,
                    "duration": 0.15625
                },
                {
                    "name": "G5",
                    "midi": 79,
                    "time": 167.96875,
                    "velocity": 0.6929133858267716,
                    "duration": 0.15625
                },
                {
                    "name": "A#5",
                    "midi": 82,
                    "time": 168.125,
                    "velocity": 0.6929133858267716,
                    "duration": 0.15625
                },
                {
                    "name": "C#6",
                    "midi": 85,
                    "time": 168.28125,
                    "velocity": 0.6929133858267716,
                    "duration": 0.15625
                },
                {
                    "name": "F6",
                    "midi": 89,
                    "time": 168.4375,
                    "velocity": 0.6929133858267716,
                    "duration": 0.15625
                },
                {
                    "name": "G#6",
                    "midi": 92,
                    "time": 168.59375,
                    "velocity": 0.6929133858267716,
                    "duration": 0.15625
                },
                {
                    "name": "C7",
                    "midi": 96,
                    "time": 168.75,
                    "velocity": 0.6929133858267716,
                    "duration": 0.15625
                },
                {
                    "name": "G#6",
                    "midi": 92,
                    "time": 168.90625,
                    "velocity": 0.6929133858267716,
                    "duration": 0.15625
                },
                {
                    "name": "F6",
                    "midi": 89,
                    "time": 169.0625,
                    "velocity": 0.6929133858267716,
                    "duration": 0.15625
                },
                {
                    "name": "C#6",
                    "midi": 85,
                    "time": 169.21875,
                    "velocity": 0.6929133858267716,
                    "duration": 0.15625
                },
                {
                    "name": "A#5",
                    "midi": 82,
                    "time": 169.375,
                    "velocity": 0.6929133858267716,
                    "duration": 0.15625
                },
                {
                    "name": "G5",
                    "midi": 79,
                    "time": 169.53125,
                    "velocity": 0.6929133858267716,
                    "duration": 0.15625
                },
                {
                    "name": "D#5",
                    "midi": 75,
                    "time": 169.6875,
                    "velocity": 0.6929133858267716,
                    "duration": 0.15625
                },
                {
                    "name": "C5",
                    "midi": 72,
                    "time": 169.84375,
                    "velocity": 0.6929133858267716,
                    "duration": 0.15625
                },
                {
                    "name": "G#4",
                    "midi": 68,
                    "time": 170,
                    "velocity": 0.6929133858267716,
                    "duration": 0.15625
                },
                {
                    "name": "C5",
                    "midi": 72,
                    "time": 170.15625,
                    "velocity": 0.6929133858267716,
                    "duration": 0.15625
                },
                {
                    "name": "D#5",
                    "midi": 75,
                    "time": 170.3125,
                    "velocity": 0.6929133858267716,
                    "duration": 0.15625
                },
                {
                    "name": "G5",
                    "midi": 79,
                    "time": 170.46875,
                    "velocity": 0.6929133858267716,
                    "duration": 0.15625
                },
                {
                    "name": "A#5",
                    "midi": 82,
                    "time": 170.625,
                    "velocity": 0.6929133858267716,
                    "duration": 0.15625
                },
                {
                    "name": "C#6",
                    "midi": 85,
                    "time": 170.78125,
                    "velocity": 0.6929133858267716,
                    "duration": 0.15625
                },
                {
                    "name": "F6",
                    "midi": 89,
                    "time": 170.9375,
                    "velocity": 0.6929133858267716,
                    "duration": 0.15625
                },
                {
                    "name": "G#6",
                    "midi": 92,
                    "time": 171.09375,
                    "velocity": 0.6929133858267716,
                    "duration": 0.15625
                },
                {
                    "name": "C#7",
                    "midi": 97,
                    "time": 171.25,
                    "velocity": 0.6929133858267716,
                    "duration": 0.15625
                },
                {
                    "name": "G#6",
                    "midi": 92,
                    "time": 171.40625,
                    "velocity": 0.6929133858267716,
                    "duration": 0.15625
                },
                {
                    "name": "F#6",
                    "midi": 90,
                    "time": 171.5625,
                    "velocity": 0.6929133858267716,
                    "duration": 0.15625
                },
                {
                    "name": "D6",
                    "midi": 86,
                    "time": 171.71875,
                    "velocity": 0.6929133858267716,
                    "duration": 0.15625
                },
                {
                    "name": "B5",
                    "midi": 83,
                    "time": 171.875,
                    "velocity": 0.6929133858267716,
                    "duration": 0.15625
                },
                {
                    "name": "G#5",
                    "midi": 80,
                    "time": 172.03125,
                    "velocity": 0.6929133858267716,
                    "duration": 0.15625
                },
                {
                    "name": "E5",
                    "midi": 76,
                    "time": 172.1875,
                    "velocity": 0.6929133858267716,
                    "duration": 0.15625
                },
                {
                    "name": "D#5",
                    "midi": 75,
                    "time": 172.34375,
                    "velocity": 0.6929133858267716,
                    "duration": 0.15625
                },
                {
                    "name": "A4",
                    "midi": 69,
                    "time": 172.5,
                    "velocity": 0.6929133858267716,
                    "duration": 0.15625
                },
                {
                    "name": "C#5",
                    "midi": 73,
                    "time": 172.65625,
                    "velocity": 0.6929133858267716,
                    "duration": 0.15625
                },
                {
                    "name": "E5",
                    "midi": 76,
                    "time": 172.8125,
                    "velocity": 0.6929133858267716,
                    "duration": 0.15625
                },
                {
                    "name": "G#5",
                    "midi": 80,
                    "time": 172.96875,
                    "velocity": 0.6929133858267716,
                    "duration": 0.15625
                },
                {
                    "name": "B5",
                    "midi": 83,
                    "time": 173.125,
                    "velocity": 0.6929133858267716,
                    "duration": 0.15625
                },
                {
                    "name": "D6",
                    "midi": 86,
                    "time": 173.28125,
                    "velocity": 0.6929133858267716,
                    "duration": 0.15625
                },
                {
                    "name": "F#6",
                    "midi": 90,
                    "time": 173.4375,
                    "velocity": 0.6929133858267716,
                    "duration": 0.15625
                },
                {
                    "name": "A6",
                    "midi": 93,
                    "time": 173.59375,
                    "velocity": 0.6929133858267716,
                    "duration": 0.15625
                },
                {
                    "name": "C#7",
                    "midi": 97,
                    "time": 173.75,
                    "velocity": 0.6929133858267716,
                    "duration": 0.15625
                },
                {
                    "name": "A6",
                    "midi": 93,
                    "time": 173.90625,
                    "velocity": 0.6929133858267716,
                    "duration": 0.15625
                },
                {
                    "name": "F6",
                    "midi": 89,
                    "time": 174.0625,
                    "velocity": 0.6929133858267716,
                    "duration": 0.15625
                },
                {
                    "name": "C#6",
                    "midi": 85,
                    "time": 174.21875,
                    "velocity": 0.6929133858267716,
                    "duration": 0.15625
                },
                {
                    "name": "A#5",
                    "midi": 82,
                    "time": 174.375,
                    "velocity": 0.6929133858267716,
                    "duration": 0.15625
                },
                {
                    "name": "G5",
                    "midi": 79,
                    "time": 174.53125,
                    "velocity": 0.6929133858267716,
                    "duration": 0.15625
                },
                {
                    "name": "D#5",
                    "midi": 75,
                    "time": 174.6875,
                    "velocity": 0.6929133858267716,
                    "duration": 0.15625
                },
                {
                    "name": "C5",
                    "midi": 72,
                    "time": 174.84375,
                    "velocity": 0.6929133858267716,
                    "duration": 0.15625
                },
                {
                    "name": "G#4",
                    "midi": 68,
                    "time": 175.3125,
                    "velocity": 0.6929133858267716,
                    "duration": 0.3125
                },
                {
                    "name": "A#4",
                    "midi": 70,
                    "time": 175.625,
                    "velocity": 0.4881889763779528,
                    "duration": 0.06119791666665719
                },
                {
                    "name": "G4",
                    "midi": 67,
                    "time": 175.9375,
                    "velocity": 0.4881889763779528,
                    "duration": 0.06119791666665719
                },
                {
                    "name": "A#4",
                    "midi": 70,
                    "time": 176.171875,
                    "velocity": 0.4881889763779528,
                    "duration": 0.078125
                },
                {
                    "name": "G#4",
                    "midi": 68,
                    "time": 176.25,
                    "velocity": 0.4881889763779528,
                    "duration": 0.06119791666665719
                },
                {
                    "name": "G4",
                    "midi": 67,
                    "time": 176.5625,
                    "velocity": 0.4881889763779528,
                    "duration": 0.06119791666665719
                },
                {
                    "name": "F4",
                    "midi": 65,
                    "time": 176.875,
                    "velocity": 0.6929133858267716,
                    "duration": 0.625
                },
                {
                    "name": "G4",
                    "midi": 67,
                    "time": 177.8125,
                    "velocity": 0.4881889763779528,
                    "duration": 0.15625
                },
                {
                    "name": "G#4",
                    "midi": 68,
                    "time": 177.96875,
                    "velocity": 0.4881889763779528,
                    "duration": 0.15625
                },
                {
                    "name": "B4",
                    "midi": 71,
                    "time": 178.125,
                    "velocity": 0.4881889763779528,
                    "duration": 0.029947916666657193
                },
                {
                    "name": "A#4",
                    "midi": 70,
                    "time": 178.28125,
                    "velocity": 0.4881889763779528,
                    "duration": 0.029947916666657193
                },
                {
                    "name": "F#4",
                    "midi": 66,
                    "time": 178.4375,
                    "velocity": 0.4881889763779528,
                    "duration": 0.029947916666657193
                },
                {
                    "name": "G4",
                    "midi": 67,
                    "time": 178.59375,
                    "velocity": 0.4881889763779528,
                    "duration": 0.029947916666657193
                },
                {
                    "name": "A#4",
                    "midi": 70,
                    "time": 178.671875,
                    "velocity": 0.4881889763779528,
                    "duration": 0.078125
                },
                {
                    "name": "G#4",
                    "midi": 68,
                    "time": 178.75,
                    "velocity": 0.4881889763779528,
                    "duration": 0.06119791666665719
                },
                {
                    "name": "G4",
                    "midi": 67,
                    "time": 179.0625,
                    "velocity": 0.4881889763779528,
                    "duration": 0.06119791666665719
                },
                {
                    "name": "F4",
                    "midi": 65,
                    "time": 179.375,
                    "velocity": 0.4881889763779528,
                    "duration": 1.875
                },
                {
                    "name": "G#4",
                    "midi": 68,
                    "time": 181.25,
                    "velocity": 0.4881889763779528,
                    "duration": 0.15625
                },
                {
                    "name": "C5",
                    "midi": 72,
                    "time": 181.40625,
                    "velocity": 0.4881889763779528,
                    "duration": 0.15625
                },
                {
                    "name": "D#5",
                    "midi": 75,
                    "time": 181.5625,
                    "velocity": 0.4881889763779528,
                    "duration": 0.15625
                },
                {
                    "name": "G5",
                    "midi": 79,
                    "time": 181.71875,
                    "velocity": 0.4881889763779528,
                    "duration": 0.15625
                },
                {
                    "name": "A#5",
                    "midi": 82,
                    "time": 181.875,
                    "velocity": 0.4881889763779528,
                    "duration": 0.15625
                },
                {
                    "name": "C#6",
                    "midi": 85,
                    "time": 182.03125,
                    "velocity": 0.4881889763779528,
                    "duration": 0.15625
                },
                {
                    "name": "F6",
                    "midi": 89,
                    "time": 182.1875,
                    "velocity": 0.4881889763779528,
                    "duration": 0.15625
                },
                {
                    "name": "G#6",
                    "midi": 92,
                    "time": 182.34375,
                    "velocity": 0.4881889763779528,
                    "duration": 0.15625
                },
                {
                    "name": "C7",
                    "midi": 96,
                    "time": 182.5,
                    "velocity": 0.4881889763779528,
                    "duration": 0.15625
                },
                {
                    "name": "G#6",
                    "midi": 92,
                    "time": 182.65625,
                    "velocity": 0.4881889763779528,
                    "duration": 0.15625
                },
                {
                    "name": "F6",
                    "midi": 89,
                    "time": 182.8125,
                    "velocity": 0.4881889763779528,
                    "duration": 0.15625
                },
                {
                    "name": "C#6",
                    "midi": 85,
                    "time": 182.96875,
                    "velocity": 0.4881889763779528,
                    "duration": 0.15625
                },
                {
                    "name": "A#5",
                    "midi": 82,
                    "time": 183.125,
                    "velocity": 0.4881889763779528,
                    "duration": 0.15625
                },
                {
                    "name": "G5",
                    "midi": 79,
                    "time": 183.28125,
                    "velocity": 0.4881889763779528,
                    "duration": 0.15625
                },
                {
                    "name": "D#5",
                    "midi": 75,
                    "time": 183.4375,
                    "velocity": 0.4881889763779528,
                    "duration": 0.15625
                },
                {
                    "name": "C5",
                    "midi": 72,
                    "time": 183.59375,
                    "velocity": 0.4881889763779528,
                    "duration": 0.15625
                },
                {
                    "name": "G#4",
                    "midi": 68,
                    "time": 183.75,
                    "velocity": 0.6929133858267716,
                    "duration": 0.15625
                },
                {
                    "name": "F4",
                    "midi": 65,
                    "time": 183.90625,
                    "velocity": 0.6929133858267716,
                    "duration": 0.15625
                },
                {
                    "name": "C#4",
                    "midi": 61,
                    "time": 184.0625,
                    "velocity": 0.6929133858267716,
                    "duration": 0.15625
                },
                {
                    "name": "A#3",
                    "midi": 58,
                    "time": 184.21875,
                    "velocity": 0.6929133858267716,
                    "duration": 0.15625
                },
                {
                    "name": "C4",
                    "midi": 60,
                    "time": 185,
                    "velocity": 0.8976377952755905,
                    "duration": 0.3125
                },
                {
                    "name": "D#4",
                    "midi": 63,
                    "time": 185,
                    "velocity": 0.8976377952755905,
                    "duration": 0.3125
                },
                {
                    "name": "G#4",
                    "midi": 68,
                    "time": 185,
                    "velocity": 0.8976377952755905,
                    "duration": 0.3125
                },
                {
                    "name": "C4",
                    "midi": 60,
                    "time": 185.3125,
                    "velocity": 0.6929133858267716,
                    "duration": 0.029947916666657193
                },
                {
                    "name": "D#4",
                    "midi": 63,
                    "time": 185.3125,
                    "velocity": 0.6929133858267716,
                    "duration": 0.029947916666657193
                },
                {
                    "name": "G#4",
                    "midi": 68,
                    "time": 185.3125,
                    "velocity": 0.6929133858267716,
                    "duration": 0.029947916666657193
                },
                {
                    "name": "C4",
                    "midi": 60,
                    "time": 185.46875,
                    "velocity": 0.6929133858267716,
                    "duration": 0.029947916666657193
                },
                {
                    "name": "D#4",
                    "midi": 63,
                    "time": 185.46875,
                    "velocity": 0.6929133858267716,
                    "duration": 0.029947916666657193
                },
                {
                    "name": "G#4",
                    "midi": 68,
                    "time": 185.46875,
                    "velocity": 0.6929133858267716,
                    "duration": 0.029947916666657193
                },
                {
                    "name": "C4",
                    "midi": 60,
                    "time": 185.625,
                    "velocity": 0.6929133858267716,
                    "duration": 0.029947916666657193
                },
                {
                    "name": "D#4",
                    "midi": 63,
                    "time": 185.625,
                    "velocity": 0.6929133858267716,
                    "duration": 0.029947916666657193
                },
                {
                    "name": "G#4",
                    "midi": 68,
                    "time": 185.625,
                    "velocity": 0.6929133858267716,
                    "duration": 0.029947916666657193
                },
                {
                    "name": "C4",
                    "midi": 60,
                    "time": 185.78125,
                    "velocity": 0.6929133858267716,
                    "duration": 0.029947916666657193
                },
                {
                    "name": "D#4",
                    "midi": 63,
                    "time": 185.78125,
                    "velocity": 0.6929133858267716,
                    "duration": 0.029947916666657193
                },
                {
                    "name": "G#4",
                    "midi": 68,
                    "time": 185.78125,
                    "velocity": 0.6929133858267716,
                    "duration": 0.029947916666657193
                },
                {
                    "name": "D#4",
                    "midi": 63,
                    "time": 185.9375,
                    "velocity": 0.8976377952755905,
                    "duration": 0.06119791666665719
                },
                {
                    "name": "F#4",
                    "midi": 66,
                    "time": 185.9375,
                    "velocity": 0.8976377952755905,
                    "duration": 0.06119791666665719
                },
                {
                    "name": "C5",
                    "midi": 72,
                    "time": 185.9375,
                    "velocity": 0.8976377952755905,
                    "duration": 0.06119791666665719
                },
                {
                    "name": "C4",
                    "midi": 60,
                    "time": 186.25,
                    "velocity": 0.6929133858267716,
                    "duration": 0.029947916666657193
                },
                {
                    "name": "D#4",
                    "midi": 63,
                    "time": 186.25,
                    "velocity": 0.6929133858267716,
                    "duration": 0.029947916666657193
                },
                {
                    "name": "G#4",
                    "midi": 68,
                    "time": 186.25,
                    "velocity": 0.6929133858267716,
                    "duration": 0.029947916666657193
                },
                {
                    "name": "C4",
                    "midi": 60,
                    "time": 186.40625,
                    "velocity": 0.6929133858267716,
                    "duration": 0.029947916666657193
                },
                {
                    "name": "D#4",
                    "midi": 63,
                    "time": 186.40625,
                    "velocity": 0.6929133858267716,
                    "duration": 0.029947916666657193
                },
                {
                    "name": "G#4",
                    "midi": 68,
                    "time": 186.40625,
                    "velocity": 0.6929133858267716,
                    "duration": 0.029947916666657193
                },
                {
                    "name": "C4",
                    "midi": 60,
                    "time": 186.5625,
                    "velocity": 0.6929133858267716,
                    "duration": 0.029947916666657193
                },
                {
                    "name": "D#4",
                    "midi": 63,
                    "time": 186.5625,
                    "velocity": 0.6929133858267716,
                    "duration": 0.029947916666657193
                },
                {
                    "name": "G#4",
                    "midi": 68,
                    "time": 186.5625,
                    "velocity": 0.6929133858267716,
                    "duration": 0.029947916666657193
                },
                {
                    "name": "C4",
                    "midi": 60,
                    "time": 186.71875,
                    "velocity": 0.6929133858267716,
                    "duration": 0.029947916666657193
                },
                {
                    "name": "D#4",
                    "midi": 63,
                    "time": 186.71875,
                    "velocity": 0.6929133858267716,
                    "duration": 0.029947916666657193
                },
                {
                    "name": "G#4",
                    "midi": 68,
                    "time": 186.71875,
                    "velocity": 0.6929133858267716,
                    "duration": 0.029947916666657193
                },
                {
                    "name": "C4",
                    "midi": 60,
                    "time": 186.875,
                    "velocity": 0.6929133858267716,
                    "duration": 0.029947916666657193
                },
                {
                    "name": "D#4",
                    "midi": 63,
                    "time": 186.875,
                    "velocity": 0.6929133858267716,
                    "duration": 0.029947916666657193
                },
                {
                    "name": "G#4",
                    "midi": 68,
                    "time": 186.875,
                    "velocity": 0.6929133858267716,
                    "duration": 0.029947916666657193
                },
                {
                    "name": "C4",
                    "midi": 60,
                    "time": 187.03125,
                    "velocity": 0.6929133858267716,
                    "duration": 0.029947916666657193
                },
                {
                    "name": "D#4",
                    "midi": 63,
                    "time": 187.03125,
                    "velocity": 0.6929133858267716,
                    "duration": 0.029947916666657193
                },
                {
                    "name": "G#4",
                    "midi": 68,
                    "time": 187.03125,
                    "velocity": 0.6929133858267716,
                    "duration": 0.029947916666657193
                },
                {
                    "name": "D#4",
                    "midi": 63,
                    "time": 187.1875,
                    "velocity": 0.8976377952755905,
                    "duration": 0.06119791666665719
                },
                {
                    "name": "F#4",
                    "midi": 66,
                    "time": 187.1875,
                    "velocity": 0.8976377952755905,
                    "duration": 0.06119791666665719
                },
                {
                    "name": "C5",
                    "midi": 72,
                    "time": 187.1875,
                    "velocity": 0.8976377952755905,
                    "duration": 0.06119791666665719
                },
                {
                    "name": "A#3",
                    "midi": 58,
                    "time": 187.5,
                    "velocity": 0.8976377952755905,
                    "duration": 0.3125
                },
                {
                    "name": "C#4",
                    "midi": 61,
                    "time": 187.5,
                    "velocity": 0.8976377952755905,
                    "duration": 0.3125
                },
                {
                    "name": "D#4",
                    "midi": 63,
                    "time": 187.5,
                    "velocity": 0.8976377952755905,
                    "duration": 0.3125
                },
                {
                    "name": "A#3",
                    "midi": 58,
                    "time": 187.8125,
                    "velocity": 0.6929133858267716,
                    "duration": 0.029947916666657193
                },
                {
                    "name": "C#4",
                    "midi": 61,
                    "time": 187.8125,
                    "velocity": 0.6929133858267716,
                    "duration": 0.029947916666657193
                },
                {
                    "name": "D#4",
                    "midi": 63,
                    "time": 187.8125,
                    "velocity": 0.6929133858267716,
                    "duration": 0.029947916666657193
                },
                {
                    "name": "A#3",
                    "midi": 58,
                    "time": 187.96875,
                    "velocity": 0.6929133858267716,
                    "duration": 0.029947916666657193
                },
                {
                    "name": "C#4",
                    "midi": 61,
                    "time": 187.96875,
                    "velocity": 0.6929133858267716,
                    "duration": 0.029947916666657193
                },
                {
                    "name": "D#4",
                    "midi": 63,
                    "time": 187.96875,
                    "velocity": 0.6929133858267716,
                    "duration": 0.029947916666657193
                },
                {
                    "name": "A#3",
                    "midi": 58,
                    "time": 188.125,
                    "velocity": 0.6929133858267716,
                    "duration": 0.029947916666657193
                },
                {
                    "name": "C#4",
                    "midi": 61,
                    "time": 188.125,
                    "velocity": 0.6929133858267716,
                    "duration": 0.029947916666657193
                },
                {
                    "name": "D#4",
                    "midi": 63,
                    "time": 188.125,
                    "velocity": 0.6929133858267716,
                    "duration": 0.029947916666657193
                },
                {
                    "name": "A#3",
                    "midi": 58,
                    "time": 188.28125,
                    "velocity": 0.6929133858267716,
                    "duration": 0.029947916666657193
                },
                {
                    "name": "C#4",
                    "midi": 61,
                    "time": 188.28125,
                    "velocity": 0.6929133858267716,
                    "duration": 0.029947916666657193
                },
                {
                    "name": "D#4",
                    "midi": 63,
                    "time": 188.28125,
                    "velocity": 0.6929133858267716,
                    "duration": 0.029947916666657193
                },
                {
                    "name": "C#4",
                    "midi": 61,
                    "time": 188.4375,
                    "velocity": 0.8976377952755905,
                    "duration": 0.06119791666665719
                },
                {
                    "name": "D#4",
                    "midi": 63,
                    "time": 188.4375,
                    "velocity": 0.8976377952755905,
                    "duration": 0.06119791666665719
                },
                {
                    "name": "F#4",
                    "midi": 66,
                    "time": 188.4375,
                    "velocity": 0.8976377952755905,
                    "duration": 0.06119791666665719
                },
                {
                    "name": "A#3",
                    "midi": 58,
                    "time": 188.75,
                    "velocity": 0.6929133858267716,
                    "duration": 0.029947916666657193
                },
                {
                    "name": "C#4",
                    "midi": 61,
                    "time": 188.75,
                    "velocity": 0.6929133858267716,
                    "duration": 0.029947916666657193
                },
                {
                    "name": "D#4",
                    "midi": 63,
                    "time": 188.75,
                    "velocity": 0.6929133858267716,
                    "duration": 0.029947916666657193
                },
                {
                    "name": "A#3",
                    "midi": 58,
                    "time": 188.90625,
                    "velocity": 0.6929133858267716,
                    "duration": 0.029947916666657193
                },
                {
                    "name": "C#4",
                    "midi": 61,
                    "time": 188.90625,
                    "velocity": 0.6929133858267716,
                    "duration": 0.029947916666657193
                },
                {
                    "name": "D#4",
                    "midi": 63,
                    "time": 188.90625,
                    "velocity": 0.6929133858267716,
                    "duration": 0.029947916666657193
                },
                {
                    "name": "A#3",
                    "midi": 58,
                    "time": 189.0625,
                    "velocity": 0.6929133858267716,
                    "duration": 0.029947916666657193
                },
                {
                    "name": "C#4",
                    "midi": 61,
                    "time": 189.0625,
                    "velocity": 0.6929133858267716,
                    "duration": 0.029947916666657193
                },
                {
                    "name": "D#4",
                    "midi": 63,
                    "time": 189.0625,
                    "velocity": 0.6929133858267716,
                    "duration": 0.029947916666657193
                },
                {
                    "name": "A#3",
                    "midi": 58,
                    "time": 189.21875,
                    "velocity": 0.6929133858267716,
                    "duration": 0.029947916666657193
                },
                {
                    "name": "C#4",
                    "midi": 61,
                    "time": 189.21875,
                    "velocity": 0.6929133858267716,
                    "duration": 0.029947916666657193
                },
                {
                    "name": "D#4",
                    "midi": 63,
                    "time": 189.21875,
                    "velocity": 0.6929133858267716,
                    "duration": 0.029947916666657193
                },
                {
                    "name": "A#3",
                    "midi": 58,
                    "time": 189.375,
                    "velocity": 0.6929133858267716,
                    "duration": 0.029947916666657193
                },
                {
                    "name": "C#4",
                    "midi": 61,
                    "time": 189.375,
                    "velocity": 0.6929133858267716,
                    "duration": 0.029947916666657193
                },
                {
                    "name": "D#4",
                    "midi": 63,
                    "time": 189.375,
                    "velocity": 0.6929133858267716,
                    "duration": 0.029947916666657193
                },
                {
                    "name": "A#3",
                    "midi": 58,
                    "time": 189.53125,
                    "velocity": 0.6929133858267716,
                    "duration": 0.029947916666657193
                },
                {
                    "name": "C#4",
                    "midi": 61,
                    "time": 189.53125,
                    "velocity": 0.6929133858267716,
                    "duration": 0.029947916666657193
                },
                {
                    "name": "D#4",
                    "midi": 63,
                    "time": 189.53125,
                    "velocity": 0.6929133858267716,
                    "duration": 0.029947916666657193
                },
                {
                    "name": "C#4",
                    "midi": 61,
                    "time": 189.6875,
                    "velocity": 0.8976377952755905,
                    "duration": 0.06119791666665719
                },
                {
                    "name": "D#4",
                    "midi": 63,
                    "time": 189.6875,
                    "velocity": 0.8976377952755905,
                    "duration": 0.06119791666665719
                },
                {
                    "name": "F#4",
                    "midi": 66,
                    "time": 189.6875,
                    "velocity": 0.8976377952755905,
                    "duration": 0.06119791666665719
                },
                {
                    "name": "C4",
                    "midi": 60,
                    "time": 190,
                    "velocity": 0.8976377952755905,
                    "duration": 0.3125
                },
                {
                    "name": "D#4",
                    "midi": 63,
                    "time": 190,
                    "velocity": 0.8976377952755905,
                    "duration": 0.3125
                },
                {
                    "name": "G#4",
                    "midi": 68,
                    "time": 190,
                    "velocity": 0.8976377952755905,
                    "duration": 0.3125
                },
                {
                    "name": "C4",
                    "midi": 60,
                    "time": 190.3125,
                    "velocity": 0.8976377952755905,
                    "duration": 0.3125
                },
                {
                    "name": "E4",
                    "midi": 64,
                    "time": 190.3125,
                    "velocity": 0.8976377952755905,
                    "duration": 0.3125
                },
                {
                    "name": "G4",
                    "midi": 67,
                    "time": 190.3125,
                    "velocity": 0.8976377952755905,
                    "duration": 0.3125
                },
                {
                    "name": "C4",
                    "midi": 60,
                    "time": 190.625,
                    "velocity": 0.8976377952755905,
                    "duration": 0.3125
                },
                {
                    "name": "D#4",
                    "midi": 63,
                    "time": 190.625,
                    "velocity": 0.8976377952755905,
                    "duration": 0.3125
                },
                {
                    "name": "G4",
                    "midi": 67,
                    "time": 190.625,
                    "velocity": 0.8976377952755905,
                    "duration": 0.3125
                },
                {
                    "name": "B3",
                    "midi": 59,
                    "time": 190.9375,
                    "velocity": 0.8976377952755905,
                    "duration": 0.3125
                },
                {
                    "name": "D#4",
                    "midi": 63,
                    "time": 190.9375,
                    "velocity": 0.8976377952755905,
                    "duration": 0.3125
                },
                {
                    "name": "F#4",
                    "midi": 66,
                    "time": 190.9375,
                    "velocity": 0.8976377952755905,
                    "duration": 0.3125
                },
                {
                    "name": "C4",
                    "midi": 60,
                    "time": 191.25,
                    "velocity": 0.6929133858267716,
                    "duration": 0.3125
                },
                {
                    "name": "D#4",
                    "midi": 63,
                    "time": 191.25,
                    "velocity": 0.6929133858267716,
                    "duration": 0.3125
                },
                {
                    "name": "G#4",
                    "midi": 68,
                    "time": 191.25,
                    "velocity": 0.6929133858267716,
                    "duration": 0.3125
                },
                {
                    "name": "D4",
                    "midi": 62,
                    "time": 191.5625,
                    "velocity": 0.8976377952755905,
                    "duration": 0.3125
                },
                {
                    "name": "G4",
                    "midi": 67,
                    "time": 191.5625,
                    "velocity": 0.8976377952755905,
                    "duration": 0.3125
                },
                {
                    "name": "B4",
                    "midi": 71,
                    "time": 191.5625,
                    "velocity": 0.8976377952755905,
                    "duration": 0.3125
                },
                {
                    "name": "C4",
                    "midi": 60,
                    "time": 191.875,
                    "velocity": 0.6929133858267716,
                    "duration": 0.3125
                },
                {
                    "name": "D#4",
                    "midi": 63,
                    "time": 191.875,
                    "velocity": 0.6929133858267716,
                    "duration": 0.3125
                },
                {
                    "name": "G#4",
                    "midi": 68,
                    "time": 191.875,
                    "velocity": 0.6929133858267716,
                    "duration": 0.3125
                },
                {
                    "name": "C#4",
                    "midi": 61,
                    "time": 192.1875,
                    "velocity": 0.8976377952755905,
                    "duration": 0.3125
                },
                {
                    "name": "F#4",
                    "midi": 66,
                    "time": 192.1875,
                    "velocity": 0.8976377952755905,
                    "duration": 0.3125
                },
                {
                    "name": "B4",
                    "midi": 71,
                    "time": 192.1875,
                    "velocity": 0.8976377952755905,
                    "duration": 0.3125
                },
                {
                    "name": "C4",
                    "midi": 60,
                    "time": 192.5,
                    "velocity": 0.6929133858267716,
                    "duration": 0.3125
                },
                {
                    "name": "D#4",
                    "midi": 63,
                    "time": 192.5,
                    "velocity": 0.6929133858267716,
                    "duration": 0.3125
                },
                {
                    "name": "G#4",
                    "midi": 68,
                    "time": 192.5,
                    "velocity": 0.6929133858267716,
                    "duration": 0.3125
                },
                {
                    "name": "C#4",
                    "midi": 61,
                    "time": 192.8125,
                    "velocity": 0.8976377952755905,
                    "duration": 0.3125
                },
                {
                    "name": "E4",
                    "midi": 64,
                    "time": 192.8125,
                    "velocity": 0.8976377952755905,
                    "duration": 0.3125
                },
                {
                    "name": "A4",
                    "midi": 69,
                    "time": 192.8125,
                    "velocity": 0.8976377952755905,
                    "duration": 0.3125
                },
                {
                    "name": "C#5",
                    "midi": 73,
                    "time": 192.8125,
                    "velocity": 0.8976377952755905,
                    "duration": 0.3125
                },
                {
                    "name": "C4",
                    "midi": 60,
                    "time": 193.125,
                    "velocity": 0.6929133858267716,
                    "duration": 0.3125
                },
                {
                    "name": "D#4",
                    "midi": 63,
                    "time": 193.125,
                    "velocity": 0.6929133858267716,
                    "duration": 0.3125
                },
                {
                    "name": "G#4",
                    "midi": 68,
                    "time": 193.125,
                    "velocity": 0.6929133858267716,
                    "duration": 0.3125
                },
                {
                    "name": "C4",
                    "midi": 60,
                    "time": 193.4375,
                    "velocity": 0.8976377952755905,
                    "duration": 0.3125
                },
                {
                    "name": "F4",
                    "midi": 65,
                    "time": 193.4375,
                    "velocity": 0.8976377952755905,
                    "duration": 0.3125
                },
                {
                    "name": "G#4",
                    "midi": 68,
                    "time": 193.4375,
                    "velocity": 0.8976377952755905,
                    "duration": 0.3125
                },
                {
                    "name": "C5",
                    "midi": 72,
                    "time": 193.4375,
                    "velocity": 0.8976377952755905,
                    "duration": 0.3125
                },
                {
                    "name": "C4",
                    "midi": 60,
                    "time": 193.75,
                    "velocity": 0.6929133858267716,
                    "duration": 0.3125
                },
                {
                    "name": "D#4",
                    "midi": 63,
                    "time": 193.75,
                    "velocity": 0.6929133858267716,
                    "duration": 0.3125
                },
                {
                    "name": "G#4",
                    "midi": 68,
                    "time": 193.75,
                    "velocity": 0.6929133858267716,
                    "duration": 0.3125
                },
                {
                    "name": "B3",
                    "midi": 59,
                    "time": 194.0625,
                    "velocity": 0.8976377952755905,
                    "duration": 0.3125
                },
                {
                    "name": "E4",
                    "midi": 64,
                    "time": 194.0625,
                    "velocity": 0.8976377952755905,
                    "duration": 0.3125
                },
                {
                    "name": "G#4",
                    "midi": 68,
                    "time": 194.0625,
                    "velocity": 0.8976377952755905,
                    "duration": 0.3125
                },
                {
                    "name": "B4",
                    "midi": 71,
                    "time": 194.0625,
                    "velocity": 0.8976377952755905,
                    "duration": 0.3125
                },
                {
                    "name": "C4",
                    "midi": 60,
                    "time": 194.375,
                    "velocity": 0.6929133858267716,
                    "duration": 0.3125
                },
                {
                    "name": "D#4",
                    "midi": 63,
                    "time": 194.375,
                    "velocity": 0.6929133858267716,
                    "duration": 0.3125
                },
                {
                    "name": "G#4",
                    "midi": 68,
                    "time": 194.375,
                    "velocity": 0.6929133858267716,
                    "duration": 0.3125
                },
                {
                    "name": "D#4",
                    "midi": 63,
                    "time": 194.6875,
                    "velocity": 0.8976377952755905,
                    "duration": 0.3125
                },
                {
                    "name": "G#4",
                    "midi": 68,
                    "time": 194.6875,
                    "velocity": 0.8976377952755905,
                    "duration": 0.3125
                },
                {
                    "name": "C5",
                    "midi": 72,
                    "time": 194.6875,
                    "velocity": 0.8976377952755905,
                    "duration": 0.3125
                },
                {
                    "name": "E4",
                    "midi": 64,
                    "time": 195,
                    "velocity": 0.5905511811023622,
                    "duration": 0.3125
                },
                {
                    "name": "G4",
                    "midi": 67,
                    "time": 195,
                    "velocity": 0.5905511811023622,
                    "duration": 0.3125
                },
                {
                    "name": "C5",
                    "midi": 72,
                    "time": 195,
                    "velocity": 0.5905511811023622,
                    "duration": 0.3125
                },
                {
                    "name": "E5",
                    "midi": 76,
                    "time": 195,
                    "velocity": 0.5905511811023622,
                    "duration": 0.3125
                },
                {
                    "name": "D5",
                    "midi": 74,
                    "time": 195.3125,
                    "velocity": 0.5905511811023622,
                    "duration": 0.3125
                },
                {
                    "name": "C5",
                    "midi": 72,
                    "time": 195.625,
                    "velocity": 0.5905511811023622,
                    "duration": 0.3125
                },
                {
                    "name": "A#4",
                    "midi": 70,
                    "time": 195.9375,
                    "velocity": 0.5905511811023622,
                    "duration": 0.3125
                },
                {
                    "name": "A4",
                    "midi": 69,
                    "time": 196.25,
                    "velocity": 0.5905511811023622,
                    "duration": 0.3125
                },
                {
                    "name": "G4",
                    "midi": 67,
                    "time": 196.5625,
                    "velocity": 0.5905511811023622,
                    "duration": 0.3125
                },
                {
                    "name": "F4",
                    "midi": 65,
                    "time": 196.875,
                    "velocity": 0.5905511811023622,
                    "duration": 0.3125
                },
                {
                    "name": "E4",
                    "midi": 64,
                    "time": 197.1875,
                    "velocity": 0.5905511811023622,
                    "duration": 0.3125
                },
                {
                    "name": "D4",
                    "midi": 62,
                    "time": 197.5,
                    "velocity": 0.5905511811023622,
                    "duration": 0.3125
                },
                {
                    "name": "C4",
                    "midi": 60,
                    "time": 197.8125,
                    "velocity": 0.5905511811023622,
                    "duration": 0.3125
                },
                {
                    "name": "A#3",
                    "midi": 58,
                    "time": 198.125,
                    "velocity": 0.5905511811023622,
                    "duration": 0.3125
                },
                {
                    "name": "A3",
                    "midi": 57,
                    "time": 198.4375,
                    "velocity": 0.5905511811023622,
                    "duration": 0.3125
                },
                {
                    "name": "G3",
                    "midi": 55,
                    "time": 198.75,
                    "velocity": 0.5905511811023622,
                    "duration": 0.3125
                },
                {
                    "name": "F3",
                    "midi": 53,
                    "time": 199.0625,
                    "velocity": 0.5905511811023622,
                    "duration": 0.3125
                },
                {
                    "name": "E3",
                    "midi": 52,
                    "time": 199.375,
                    "velocity": 0.4881889763779528,
                    "duration": 0.15625
                },
                {
                    "name": "G3",
                    "midi": 55,
                    "time": 199.53125,
                    "velocity": 0.4881889763779528,
                    "duration": 0.15625
                },
                {
                    "name": "C4",
                    "midi": 60,
                    "time": 199.6875,
                    "velocity": 0.4881889763779528,
                    "duration": 0.15625
                },
                {
                    "name": "E4",
                    "midi": 64,
                    "time": 199.84375,
                    "velocity": 0.4881889763779528,
                    "duration": 0.15625
                },
                {
                    "name": "G#3",
                    "midi": 56,
                    "time": 200,
                    "velocity": 0.4881889763779528,
                    "duration": 0.15625
                },
                {
                    "name": "C4",
                    "midi": 60,
                    "time": 200.15625,
                    "velocity": 0.4881889763779528,
                    "duration": 0.15625
                },
                {
                    "name": "D#4",
                    "midi": 63,
                    "time": 200.3125,
                    "velocity": 0.4881889763779528,
                    "duration": 0.15625
                },
                {
                    "name": "G#4",
                    "midi": 68,
                    "time": 200.46875,
                    "velocity": 0.4881889763779528,
                    "duration": 0.15625
                },
                {
                    "name": "E3",
                    "midi": 52,
                    "time": 200.625,
                    "velocity": 0.4881889763779528,
                    "duration": 0.15625
                },
                {
                    "name": "G3",
                    "midi": 55,
                    "time": 200.78125,
                    "velocity": 0.4881889763779528,
                    "duration": 0.15625
                },
                {
                    "name": "C4",
                    "midi": 60,
                    "time": 200.9375,
                    "velocity": 0.4881889763779528,
                    "duration": 0.15625
                },
                {
                    "name": "E4",
                    "midi": 64,
                    "time": 201.09375,
                    "velocity": 0.4881889763779528,
                    "duration": 0.15625
                },
                {
                    "name": "G#3",
                    "midi": 56,
                    "time": 201.25,
                    "velocity": 0.4881889763779528,
                    "duration": 0.15625
                },
                {
                    "name": "C4",
                    "midi": 60,
                    "time": 201.40625,
                    "velocity": 0.4881889763779528,
                    "duration": 0.15625
                },
                {
                    "name": "D#4",
                    "midi": 63,
                    "time": 201.5625,
                    "velocity": 0.4881889763779528,
                    "duration": 0.15625
                },
                {
                    "name": "G#4",
                    "midi": 68,
                    "time": 201.71875,
                    "velocity": 0.4881889763779528,
                    "duration": 0.15625
                },
                {
                    "name": "E3",
                    "midi": 52,
                    "time": 201.875,
                    "velocity": 0.4881889763779528,
                    "duration": 0.15625
                },
                {
                    "name": "G3",
                    "midi": 55,
                    "time": 202.03125,
                    "velocity": 0.4881889763779528,
                    "duration": 0.15625
                },
                {
                    "name": "C4",
                    "midi": 60,
                    "time": 202.1875,
                    "velocity": 0.4881889763779528,
                    "duration": 0.15625
                },
                {
                    "name": "E4",
                    "midi": 64,
                    "time": 202.34375,
                    "velocity": 0.4881889763779528,
                    "duration": 0.15625
                },
                {
                    "name": "A#3",
                    "midi": 58,
                    "time": 202.5,
                    "velocity": 0.4881889763779528,
                    "duration": 0.15625
                },
                {
                    "name": "D4",
                    "midi": 62,
                    "time": 202.65625,
                    "velocity": 0.4881889763779528,
                    "duration": 0.15625
                },
                {
                    "name": "E4",
                    "midi": 64,
                    "time": 202.8125,
                    "velocity": 0.4881889763779528,
                    "duration": 0.15625
                },
                {
                    "name": "A#4",
                    "midi": 70,
                    "time": 202.96875,
                    "velocity": 0.4881889763779528,
                    "duration": 0.15625
                },
                {
                    "name": "G4",
                    "midi": 67,
                    "time": 208.75,
                    "velocity": 0.4881889763779528,
                    "duration": 1.25
                },
                {
                    "name": "F#4",
                    "midi": 66,
                    "time": 214.375,
                    "velocity": 0.3858267716535433,
                    "duration": 0.625
                },
                {
                    "name": "A#4",
                    "midi": 70,
                    "time": 214.375,
                    "velocity": 0.3858267716535433,
                    "duration": 0.625
                },
                {
                    "name": "C#5",
                    "midi": 73,
                    "time": 214.375,
                    "velocity": 0.3858267716535433,
                    "duration": 0.625
                },
                {
                    "name": "F#5",
                    "midi": 78,
                    "time": 214.375,
                    "velocity": 0.3858267716535433,
                    "duration": 0.625
                },
                {
                    "name": "G#4",
                    "midi": 68,
                    "time": 215,
                    "velocity": 0.3858267716535433,
                    "duration": 0.625
                },
                {
                    "name": "C5",
                    "midi": 72,
                    "time": 215,
                    "velocity": 0.3858267716535433,
                    "duration": 0.625
                },
                {
                    "name": "D#5",
                    "midi": 75,
                    "time": 215,
                    "velocity": 0.3858267716535433,
                    "duration": 0.625
                },
                {
                    "name": "G#5",
                    "midi": 80,
                    "time": 215,
                    "velocity": 0.3858267716535433,
                    "duration": 0.625
                },
                {
                    "name": "F4",
                    "midi": 65,
                    "time": 215.625,
                    "velocity": 0.3858267716535433,
                    "duration": 0.625
                },
                {
                    "name": "A4",
                    "midi": 69,
                    "time": 215.625,
                    "velocity": 0.3858267716535433,
                    "duration": 0.625
                },
                {
                    "name": "C5",
                    "midi": 72,
                    "time": 215.625,
                    "velocity": 0.3858267716535433,
                    "duration": 0.625
                },
                {
                    "name": "F5",
                    "midi": 77,
                    "time": 215.625,
                    "velocity": 0.3858267716535433,
                    "duration": 0.625
                },
                {
                    "name": "F#4",
                    "midi": 66,
                    "time": 216.25,
                    "velocity": 0.3858267716535433,
                    "duration": 0.625
                },
                {
                    "name": "A#4",
                    "midi": 70,
                    "time": 216.25,
                    "velocity": 0.3858267716535433,
                    "duration": 0.625
                },
                {
                    "name": "C#5",
                    "midi": 73,
                    "time": 216.25,
                    "velocity": 0.3858267716535433,
                    "duration": 0.625
                },
                {
                    "name": "F#5",
                    "midi": 78,
                    "time": 216.25,
                    "velocity": 0.3858267716535433,
                    "duration": 0.625
                },
                {
                    "name": "F4",
                    "midi": 65,
                    "time": 216.875,
                    "velocity": 0.3858267716535433,
                    "duration": 0.625
                },
                {
                    "name": "A4",
                    "midi": 69,
                    "time": 216.875,
                    "velocity": 0.3858267716535433,
                    "duration": 0.625
                },
                {
                    "name": "C5",
                    "midi": 72,
                    "time": 216.875,
                    "velocity": 0.3858267716535433,
                    "duration": 0.625
                },
                {
                    "name": "F5",
                    "midi": 77,
                    "time": 216.875,
                    "velocity": 0.3858267716535433,
                    "duration": 0.625
                },
                {
                    "name": "D#4",
                    "midi": 63,
                    "time": 217.5,
                    "velocity": 0.3858267716535433,
                    "duration": 1.25
                },
                {
                    "name": "G4",
                    "midi": 67,
                    "time": 217.5,
                    "velocity": 0.3858267716535433,
                    "duration": 1.25
                },
                {
                    "name": "A#4",
                    "midi": 70,
                    "time": 217.5,
                    "velocity": 0.3858267716535433,
                    "duration": 1.25
                },
                {
                    "name": "D#5",
                    "midi": 75,
                    "time": 217.5,
                    "velocity": 0.3858267716535433,
                    "duration": 1.25
                },
                {
                    "name": "F5",
                    "midi": 77,
                    "time": 226.5625,
                    "velocity": 0.4881889763779528,
                    "duration": 0.3125
                },
                {
                    "name": "G#5",
                    "midi": 80,
                    "time": 226.5625,
                    "velocity": 0.4881889763779528,
                    "duration": 0.3125
                },
                {
                    "name": "G#5",
                    "midi": 80,
                    "time": 226.875,
                    "velocity": 0.4881889763779528,
                    "duration": 0.3125
                },
                {
                    "name": "C#6",
                    "midi": 85,
                    "time": 226.875,
                    "velocity": 0.4881889763779528,
                    "duration": 0.3125
                },
                {
                    "name": "C#6",
                    "midi": 85,
                    "time": 227.1875,
                    "velocity": 0.4881889763779528,
                    "duration": 0.3125
                },
                {
                    "name": "F6",
                    "midi": 89,
                    "time": 227.1875,
                    "velocity": 0.4881889763779528,
                    "duration": 0.3125
                },
                {
                    "name": "F6",
                    "midi": 89,
                    "time": 227.5,
                    "velocity": 0.4881889763779528,
                    "duration": 0.10416666666665719
                },
                {
                    "name": "G#6",
                    "midi": 92,
                    "time": 227.5,
                    "velocity": 0.4881889763779528,
                    "duration": 0.10416666666665719
                },
                {
                    "name": "A#6",
                    "midi": 94,
                    "time": 227.60416666666666,
                    "velocity": 0.4881889763779528,
                    "duration": 0.10286458333334281
                },
                {
                    "name": "F6",
                    "midi": 89,
                    "time": 227.70703125,
                    "velocity": 0.4881889763779528,
                    "duration": 0.10546875
                },
                {
                    "name": "G#6",
                    "midi": 92,
                    "time": 227.70703125,
                    "velocity": 0.4881889763779528,
                    "duration": 0.10546875
                },
                {
                    "name": "C#6",
                    "midi": 85,
                    "time": 227.8125,
                    "velocity": 0.4881889763779528,
                    "duration": 0.15625
                },
                {
                    "name": "F6",
                    "midi": 89,
                    "time": 227.8125,
                    "velocity": 0.4881889763779528,
                    "duration": 0.15625
                },
                {
                    "name": "G#5",
                    "midi": 80,
                    "time": 227.96875,
                    "velocity": 0.4881889763779528,
                    "duration": 0.15625
                },
                {
                    "name": "C#6",
                    "midi": 85,
                    "time": 227.96875,
                    "velocity": 0.4881889763779528,
                    "duration": 0.15625
                },
                {
                    "name": "F5",
                    "midi": 77,
                    "time": 228.125,
                    "velocity": 0.4881889763779528,
                    "duration": 0.20703125
                },
                {
                    "name": "G#5",
                    "midi": 80,
                    "time": 228.125,
                    "velocity": 0.4881889763779528,
                    "duration": 0.20703125
                },
                {
                    "name": "C#6",
                    "midi": 85,
                    "time": 228.33203125,
                    "velocity": 0.4881889763779528,
                    "duration": 0.2096354166666572
                },
                {
                    "name": "C#6",
                    "midi": 85,
                    "time": 228.54166666666666,
                    "velocity": 0.4881889763779528,
                    "duration": 0.2083333333333428
                },
                {
                    "name": "F6",
                    "midi": 89,
                    "time": 228.54166666666666,
                    "velocity": 0.4881889763779528,
                    "duration": 0.2083333333333428
                },
                {
                    "name": "F6",
                    "midi": 89,
                    "time": 228.75,
                    "velocity": 0.4881889763779528,
                    "duration": 1.25
                },
                {
                    "name": "A6",
                    "midi": 93,
                    "time": 228.75,
                    "velocity": 0.4881889763779528,
                    "duration": 1.25
                }
            ],
            "controlChanges": {
                "7": [
                    {
                        "number": 7,
                        "time": 0,
                        "value": 1
                    }
                ],
                "10": [
                    {
                        "number": 10,
                        "time": 0,
                        "value": 0.7637795275590551
                    }
                ],
                "64": [
                    {
                        "number": 64,
                        "time": 20.625,
                        "value": 1
                    },
                    {
                        "number": 64,
                        "time": 23.125,
                        "value": 0
                    },
                    {
                        "number": 64,
                        "time": 23.75,
                        "value": 1
                    },
                    {
                        "number": 64,
                        "time": 25.625,
                        "value": 0
                    },
                    {
                        "number": 64,
                        "time": 28.125,
                        "value": 1
                    },
                    {
                        "number": 64,
                        "time": 30,
                        "value": 0
                    },
                    {
                        "number": 64,
                        "time": 30.625,
                        "value": 1
                    },
                    {
                        "number": 64,
                        "time": 32.5,
                        "value": 0
                    },
                    {
                        "number": 64,
                        "time": 33.125,
                        "value": 1
                    },
                    {
                        "number": 64,
                        "time": 34.375,
                        "value": 0
                    },
                    {
                        "number": 64,
                        "time": 35,
                        "value": 1
                    },
                    {
                        "number": 64,
                        "time": 39.375,
                        "value": 0
                    },
                    {
                        "number": 64,
                        "time": 40,
                        "value": 1
                    },
                    {
                        "number": 64,
                        "time": 44.375,
                        "value": 0
                    },
                    {
                        "number": 64,
                        "time": 143.125,
                        "value": 1
                    },
                    {
                        "number": 64,
                        "time": 146.25,
                        "value": 0
                    },
                    {
                        "number": 64,
                        "time": 158.75,
                        "value": 1
                    },
                    {
                        "number": 64,
                        "time": 159.21875,
                        "value": 0
                    },
                    {
                        "number": 64,
                        "time": 159.375,
                        "value": 1
                    },
                    {
                        "number": 64,
                        "time": 159.84375,
                        "value": 0
                    },
                    {
                        "number": 64,
                        "time": 160,
                        "value": 1
                    },
                    {
                        "number": 64,
                        "time": 160.46875,
                        "value": 0
                    },
                    {
                        "number": 64,
                        "time": 160.625,
                        "value": 1
                    },
                    {
                        "number": 64,
                        "time": 161.09375,
                        "value": 0
                    },
                    {
                        "number": 64,
                        "time": 161.25,
                        "value": 1
                    },
                    {
                        "number": 64,
                        "time": 161.71875,
                        "value": 0
                    },
                    {
                        "number": 64,
                        "time": 164.375,
                        "value": 1
                    },
                    {
                        "number": 64,
                        "time": 164.84375,
                        "value": 0
                    },
                    {
                        "number": 64,
                        "time": 165,
                        "value": 1
                    },
                    {
                        "number": 64,
                        "time": 165.46875,
                        "value": 0
                    },
                    {
                        "number": 64,
                        "time": 165.625,
                        "value": 1
                    },
                    {
                        "number": 64,
                        "time": 166.25,
                        "value": 0
                    },
                    {
                        "number": 64,
                        "time": 166.875,
                        "value": 1
                    },
                    {
                        "number": 64,
                        "time": 167.34375,
                        "value": 0
                    },
                    {
                        "number": 64,
                        "time": 199.375,
                        "value": 1
                    },
                    {
                        "number": 64,
                        "time": 199.84375,
                        "value": 0
                    },
                    {
                        "number": 64,
                        "time": 202.5,
                        "value": 1
                    },
                    {
                        "number": 64,
                        "time": 208.125,
                        "value": 0
                    },
                    {
                        "number": 64,
                        "time": 208.75,
                        "value": 1
                    },
                    {
                        "number": 64,
                        "time": 213.75,
                        "value": 0
                    },
                    {
                        "number": 64,
                        "time": 217.5,
                        "value": 1
                    },
                    {
                        "number": 64,
                        "time": 225.625,
                        "value": 0
                    },
                    {
                        "number": 64,
                        "time": 228.75,
                        "value": 1
                    },
                    {
                        "number": 64,
                        "time": 241.25,
                        "value": 0
                    }
                ]
            },
            "id": 1,
            "name": "Grand Piano",
            "instrumentNumber": 0,
            "instrument": "acoustic grand piano",
            "instrumentFamily": "piano",
            "channelNumber": 0,
            "isPercussion": false
        },
        {
            "startTime": 13.75,
            "duration": 230.00000000000003,
            "length": 795,
            "notes": [
                {
                    "name": "C3",
                    "midi": 48,
                    "time": 13.75,
                    "velocity": 0.3858267716535433,
                    "duration": 0.625
                },
                {
                    "name": "G3",
                    "midi": 55,
                    "time": 13.75,
                    "velocity": 0.3858267716535433,
                    "duration": 0.625
                },
                {
                    "name": "A#2",
                    "midi": 46,
                    "time": 14.375,
                    "velocity": 0.3858267716535433,
                    "duration": 0.625
                },
                {
                    "name": "F3",
                    "midi": 53,
                    "time": 14.375,
                    "velocity": 0.3858267716535433,
                    "duration": 0.625
                },
                {
                    "name": "C3",
                    "midi": 48,
                    "time": 15,
                    "velocity": 0.3858267716535433,
                    "duration": 0.625
                },
                {
                    "name": "G3",
                    "midi": 55,
                    "time": 15,
                    "velocity": 0.3858267716535433,
                    "duration": 0.625
                },
                {
                    "name": "A#2",
                    "midi": 46,
                    "time": 15.625,
                    "velocity": 0.3858267716535433,
                    "duration": 0.625
                },
                {
                    "name": "F3",
                    "midi": 53,
                    "time": 15.625,
                    "velocity": 0.3858267716535433,
                    "duration": 0.625
                },
                {
                    "name": "D#3",
                    "midi": 51,
                    "time": 16.25,
                    "velocity": 0.3858267716535433,
                    "duration": 0.625
                },
                {
                    "name": "A#3",
                    "midi": 58,
                    "time": 16.25,
                    "velocity": 0.3858267716535433,
                    "duration": 0.625
                },
                {
                    "name": "C#3",
                    "midi": 49,
                    "time": 16.875,
                    "velocity": 0.3858267716535433,
                    "duration": 0.625
                },
                {
                    "name": "G#3",
                    "midi": 56,
                    "time": 16.875,
                    "velocity": 0.3858267716535433,
                    "duration": 0.625
                },
                {
                    "name": "C3",
                    "midi": 48,
                    "time": 17.5,
                    "velocity": 0.3858267716535433,
                    "duration": 0.625
                },
                {
                    "name": "G3",
                    "midi": 55,
                    "time": 17.5,
                    "velocity": 0.3858267716535433,
                    "duration": 0.625
                },
                {
                    "name": "A#2",
                    "midi": 46,
                    "time": 18.125,
                    "velocity": 0.3858267716535433,
                    "duration": 0.625
                },
                {
                    "name": "F3",
                    "midi": 53,
                    "time": 18.125,
                    "velocity": 0.3858267716535433,
                    "duration": 0.625
                },
                {
                    "name": "D#3",
                    "midi": 51,
                    "time": 18.75,
                    "velocity": 0.3858267716535433,
                    "duration": 0.625
                },
                {
                    "name": "A#3",
                    "midi": 58,
                    "time": 18.75,
                    "velocity": 0.3858267716535433,
                    "duration": 0.625
                },
                {
                    "name": "D3",
                    "midi": 50,
                    "time": 19.375,
                    "velocity": 0.3858267716535433,
                    "duration": 0.625
                },
                {
                    "name": "A3",
                    "midi": 57,
                    "time": 19.375,
                    "velocity": 0.3858267716535433,
                    "duration": 0.625
                },
                {
                    "name": "C3",
                    "midi": 48,
                    "time": 20,
                    "velocity": 0.3858267716535433,
                    "duration": 0.625
                },
                {
                    "name": "G3",
                    "midi": 55,
                    "time": 20,
                    "velocity": 0.3858267716535433,
                    "duration": 0.625
                },
                {
                    "name": "G3",
                    "midi": 55,
                    "time": 20.625,
                    "velocity": 0.3858267716535433,
                    "duration": 0.625
                },
                {
                    "name": "D4",
                    "midi": 62,
                    "time": 20.625,
                    "velocity": 0.3858267716535433,
                    "duration": 0.625
                },
                {
                    "name": "F3",
                    "midi": 53,
                    "time": 21.25,
                    "velocity": 0.3858267716535433,
                    "duration": 0.625
                },
                {
                    "name": "C4",
                    "midi": 60,
                    "time": 21.25,
                    "velocity": 0.3858267716535433,
                    "duration": 0.625
                },
                {
                    "name": "D#3",
                    "midi": 51,
                    "time": 21.875,
                    "velocity": 0.3858267716535433,
                    "duration": 0.625
                },
                {
                    "name": "A#3",
                    "midi": 58,
                    "time": 21.875,
                    "velocity": 0.3858267716535433,
                    "duration": 0.625
                },
                {
                    "name": "D3",
                    "midi": 50,
                    "time": 22.5,
                    "velocity": 0.3858267716535433,
                    "duration": 0.625
                },
                {
                    "name": "A3",
                    "midi": 57,
                    "time": 22.5,
                    "velocity": 0.3858267716535433,
                    "duration": 0.625
                },
                {
                    "name": "C3",
                    "midi": 48,
                    "time": 23.125,
                    "velocity": 0.3858267716535433,
                    "duration": 0.625
                },
                {
                    "name": "G3",
                    "midi": 55,
                    "time": 23.125,
                    "velocity": 0.3858267716535433,
                    "duration": 0.625
                },
                {
                    "name": "G2",
                    "midi": 43,
                    "time": 23.75,
                    "velocity": 0.3858267716535433,
                    "duration": 0.625
                },
                {
                    "name": "D3",
                    "midi": 50,
                    "time": 23.75,
                    "velocity": 0.3858267716535433,
                    "duration": 0.625
                },
                {
                    "name": "C3",
                    "midi": 48,
                    "time": 24.375,
                    "velocity": 0.3858267716535433,
                    "duration": 0.625
                },
                {
                    "name": "G3",
                    "midi": 55,
                    "time": 24.375,
                    "velocity": 0.3858267716535433,
                    "duration": 0.625
                },
                {
                    "name": "D3",
                    "midi": 50,
                    "time": 25,
                    "velocity": 0.3858267716535433,
                    "duration": 0.625
                },
                {
                    "name": "A3",
                    "midi": 57,
                    "time": 25,
                    "velocity": 0.3858267716535433,
                    "duration": 0.625
                },
                {
                    "name": "D#3",
                    "midi": 51,
                    "time": 25.625,
                    "velocity": 0.3858267716535433,
                    "duration": 0.625
                },
                {
                    "name": "A#3",
                    "midi": 58,
                    "time": 25.625,
                    "velocity": 0.3858267716535433,
                    "duration": 0.625
                },
                {
                    "name": "G3",
                    "midi": 55,
                    "time": 26.25,
                    "velocity": 0.3858267716535433,
                    "duration": 1.875
                },
                {
                    "name": "D4",
                    "midi": 62,
                    "time": 26.25,
                    "velocity": 0.3858267716535433,
                    "duration": 1.875
                },
                {
                    "name": "G3",
                    "midi": 55,
                    "time": 28.125,
                    "velocity": 0.3858267716535433,
                    "duration": 0.625
                },
                {
                    "name": "D4",
                    "midi": 62,
                    "time": 28.125,
                    "velocity": 0.3858267716535433,
                    "duration": 0.625
                },
                {
                    "name": "F3",
                    "midi": 53,
                    "time": 28.75,
                    "velocity": 0.3858267716535433,
                    "duration": 0.625
                },
                {
                    "name": "C4",
                    "midi": 60,
                    "time": 28.75,
                    "velocity": 0.3858267716535433,
                    "duration": 0.625
                },
                {
                    "name": "A#2",
                    "midi": 46,
                    "time": 29.375,
                    "velocity": 0.3858267716535433,
                    "duration": 0.625
                },
                {
                    "name": "F3",
                    "midi": 53,
                    "time": 29.375,
                    "velocity": 0.3858267716535433,
                    "duration": 0.625
                },
                {
                    "name": "G#2",
                    "midi": 44,
                    "time": 30,
                    "velocity": 0.3858267716535433,
                    "duration": 0.625
                },
                {
                    "name": "D#3",
                    "midi": 51,
                    "time": 30,
                    "velocity": 0.3858267716535433,
                    "duration": 0.625
                },
                {
                    "name": "F3",
                    "midi": 53,
                    "time": 30.625,
                    "velocity": 0.3858267716535433,
                    "duration": 0.625
                },
                {
                    "name": "C4",
                    "midi": 60,
                    "time": 30.625,
                    "velocity": 0.3858267716535433,
                    "duration": 0.625
                },
                {
                    "name": "D#3",
                    "midi": 51,
                    "time": 31.25,
                    "velocity": 0.3858267716535433,
                    "duration": 0.625
                },
                {
                    "name": "A#3",
                    "midi": 58,
                    "time": 31.25,
                    "velocity": 0.3858267716535433,
                    "duration": 0.625
                },
                {
                    "name": "G#2",
                    "midi": 44,
                    "time": 31.875,
                    "velocity": 0.3858267716535433,
                    "duration": 0.625
                },
                {
                    "name": "D#3",
                    "midi": 51,
                    "time": 31.875,
                    "velocity": 0.3858267716535433,
                    "duration": 0.625
                },
                {
                    "name": "F#2",
                    "midi": 42,
                    "time": 32.5,
                    "velocity": 0.3858267716535433,
                    "duration": 0.625
                },
                {
                    "name": "C#3",
                    "midi": 49,
                    "time": 32.5,
                    "velocity": 0.3858267716535433,
                    "duration": 0.625
                },
                {
                    "name": "D#3",
                    "midi": 51,
                    "time": 33.125,
                    "velocity": 0.3858267716535433,
                    "duration": 0.625
                },
                {
                    "name": "A#3",
                    "midi": 58,
                    "time": 33.125,
                    "velocity": 0.3858267716535433,
                    "duration": 0.625
                },
                {
                    "name": "C#3",
                    "midi": 49,
                    "time": 33.75,
                    "velocity": 0.3858267716535433,
                    "duration": 0.625
                },
                {
                    "name": "G#3",
                    "midi": 56,
                    "time": 33.75,
                    "velocity": 0.3858267716535433,
                    "duration": 0.625
                },
                {
                    "name": "F#2",
                    "midi": 42,
                    "time": 34.375,
                    "velocity": 0.3858267716535433,
                    "duration": 0.625
                },
                {
                    "name": "C#3",
                    "midi": 49,
                    "time": 34.375,
                    "velocity": 0.3858267716535433,
                    "duration": 0.625
                },
                {
                    "name": "E2",
                    "midi": 40,
                    "time": 35,
                    "velocity": 0.5905511811023622,
                    "duration": 0.3125
                },
                {
                    "name": "B2",
                    "midi": 47,
                    "time": 35,
                    "velocity": 0.5905511811023622,
                    "duration": 0.3125
                },
                {
                    "name": "B1",
                    "midi": 35,
                    "time": 35.3125,
                    "velocity": 0.5905511811023622,
                    "duration": 0.029947916666664298
                },
                {
                    "name": "C#2",
                    "midi": 37,
                    "time": 35.46875,
                    "velocity": 0.5905511811023622,
                    "duration": 0.029947916666664298
                },
                {
                    "name": "D#2",
                    "midi": 39,
                    "time": 35.625,
                    "velocity": 0.5905511811023622,
                    "duration": 0.0611979166666643
                },
                {
                    "name": "E2",
                    "midi": 40,
                    "time": 35.9375,
                    "velocity": 0.5905511811023622,
                    "duration": 0.0611979166666643
                },
                {
                    "name": "F#2",
                    "midi": 42,
                    "time": 36.25,
                    "velocity": 0.5905511811023622,
                    "duration": 0.0611979166666643
                },
                {
                    "name": "G#2",
                    "midi": 44,
                    "time": 36.5625,
                    "velocity": 0.5905511811023622,
                    "duration": 0.029947916666664298
                },
                {
                    "name": "A2",
                    "midi": 45,
                    "time": 36.71875,
                    "velocity": 0.5905511811023622,
                    "duration": 0.029947916666664298
                },
                {
                    "name": "B2",
                    "midi": 47,
                    "time": 36.875,
                    "velocity": 0.5905511811023622,
                    "duration": 0.0611979166666643
                },
                {
                    "name": "C#3",
                    "midi": 49,
                    "time": 37.1875,
                    "velocity": 0.5905511811023622,
                    "duration": 0.0611979166666643
                },
                {
                    "name": "D#3",
                    "midi": 51,
                    "time": 37.5,
                    "velocity": 0.7952755905511811,
                    "duration": 0.15625
                },
                {
                    "name": "D#3",
                    "midi": 51,
                    "time": 37.65625,
                    "velocity": 0.5905511811023622,
                    "duration": 0.029947916666664298
                },
                {
                    "name": "D#3",
                    "midi": 51,
                    "time": 37.8125,
                    "velocity": 0.5905511811023622,
                    "duration": 0.029947916666664298
                },
                {
                    "name": "D#3",
                    "midi": 51,
                    "time": 37.96875,
                    "velocity": 0.5905511811023622,
                    "duration": 0.029947916666664298
                },
                {
                    "name": "D#3",
                    "midi": 51,
                    "time": 38.125,
                    "velocity": 0.5905511811023622,
                    "duration": 0.0611979166666643
                },
                {
                    "name": "G#3",
                    "midi": 56,
                    "time": 38.4375,
                    "velocity": 0.5905511811023622,
                    "duration": 0.0611979166666643
                },
                {
                    "name": "F#3",
                    "midi": 54,
                    "time": 38.75,
                    "velocity": 0.7952755905511811,
                    "duration": 1.25
                },
                {
                    "name": "E2",
                    "midi": 40,
                    "time": 40,
                    "velocity": 0.5905511811023622,
                    "duration": 0.3125
                },
                {
                    "name": "B2",
                    "midi": 47,
                    "time": 40,
                    "velocity": 0.5905511811023622,
                    "duration": 0.3125
                },
                {
                    "name": "B1",
                    "midi": 35,
                    "time": 40.3125,
                    "velocity": 0.5905511811023622,
                    "duration": 0.029947916666664298
                },
                {
                    "name": "C#2",
                    "midi": 37,
                    "time": 40.46875,
                    "velocity": 0.5905511811023622,
                    "duration": 0.029947916666664298
                },
                {
                    "name": "D#2",
                    "midi": 39,
                    "time": 40.625,
                    "velocity": 0.5905511811023622,
                    "duration": 0.0611979166666643
                },
                {
                    "name": "E2",
                    "midi": 40,
                    "time": 40.9375,
                    "velocity": 0.5905511811023622,
                    "duration": 0.0611979166666643
                },
                {
                    "name": "F#2",
                    "midi": 42,
                    "time": 41.25,
                    "velocity": 0.5905511811023622,
                    "duration": 0.0611979166666643
                },
                {
                    "name": "G#2",
                    "midi": 44,
                    "time": 41.5625,
                    "velocity": 0.5905511811023622,
                    "duration": 0.029947916666664298
                },
                {
                    "name": "A2",
                    "midi": 45,
                    "time": 41.71875,
                    "velocity": 0.5905511811023622,
                    "duration": 0.029947916666664298
                },
                {
                    "name": "B2",
                    "midi": 47,
                    "time": 41.875,
                    "velocity": 0.5905511811023622,
                    "duration": 0.0611979166666643
                },
                {
                    "name": "C#3",
                    "midi": 49,
                    "time": 42.1875,
                    "velocity": 0.5905511811023622,
                    "duration": 0.0611979166666643
                },
                {
                    "name": "D#3",
                    "midi": 51,
                    "time": 42.5,
                    "velocity": 0.7952755905511811,
                    "duration": 0.15625
                },
                {
                    "name": "D#3",
                    "midi": 51,
                    "time": 42.65625,
                    "velocity": 0.5905511811023622,
                    "duration": 0.029947916666664298
                },
                {
                    "name": "D#3",
                    "midi": 51,
                    "time": 42.8125,
                    "velocity": 0.5905511811023622,
                    "duration": 0.029947916666664298
                },
                {
                    "name": "D#3",
                    "midi": 51,
                    "time": 42.96875,
                    "velocity": 0.5905511811023622,
                    "duration": 0.029947916666664298
                },
                {
                    "name": "D#3",
                    "midi": 51,
                    "time": 43.125,
                    "velocity": 0.5905511811023622,
                    "duration": 0.0611979166666643
                },
                {
                    "name": "G#3",
                    "midi": 56,
                    "time": 43.4375,
                    "velocity": 0.5905511811023622,
                    "duration": 0.0611979166666643
                },
                {
                    "name": "F#3",
                    "midi": 54,
                    "time": 43.75,
                    "velocity": 0.7952755905511811,
                    "duration": 1.25
                },
                {
                    "name": "G#2",
                    "midi": 44,
                    "time": 45,
                    "velocity": 0.6929133858267716,
                    "duration": 1.5625
                },
                {
                    "name": "D#3",
                    "midi": 51,
                    "time": 45,
                    "velocity": 0.6929133858267716,
                    "duration": 1.5625
                },
                {
                    "name": "B2",
                    "midi": 47,
                    "time": 46.5625,
                    "velocity": 0.4881889763779528,
                    "duration": 0.3125
                },
                {
                    "name": "F#3",
                    "midi": 54,
                    "time": 46.5625,
                    "velocity": 0.4881889763779528,
                    "duration": 0.3125
                },
                {
                    "name": "G#2",
                    "midi": 44,
                    "time": 46.875,
                    "velocity": 0.4881889763779528,
                    "duration": 0.3125
                },
                {
                    "name": "D#3",
                    "midi": 51,
                    "time": 46.875,
                    "velocity": 0.4881889763779528,
                    "duration": 0.3125
                },
                {
                    "name": "F#2",
                    "midi": 42,
                    "time": 47.1875,
                    "velocity": 0.4881889763779528,
                    "duration": 0.3125
                },
                {
                    "name": "C#3",
                    "midi": 49,
                    "time": 47.1875,
                    "velocity": 0.4881889763779528,
                    "duration": 0.3125
                },
                {
                    "name": "F2",
                    "midi": 41,
                    "time": 47.5,
                    "velocity": 0.4881889763779528,
                    "duration": 1.5625
                },
                {
                    "name": "C3",
                    "midi": 48,
                    "time": 47.5,
                    "velocity": 0.4881889763779528,
                    "duration": 1.5625
                },
                {
                    "name": "F2",
                    "midi": 41,
                    "time": 49.0625,
                    "velocity": 0.4881889763779528,
                    "duration": 0.3125
                },
                {
                    "name": "C3",
                    "midi": 48,
                    "time": 49.0625,
                    "velocity": 0.4881889763779528,
                    "duration": 0.3125
                },
                {
                    "name": "D2",
                    "midi": 38,
                    "time": 49.375,
                    "velocity": 0.4881889763779528,
                    "duration": 1.5625
                },
                {
                    "name": "A2",
                    "midi": 45,
                    "time": 49.375,
                    "velocity": 0.4881889763779528,
                    "duration": 1.5625
                },
                {
                    "name": "D2",
                    "midi": 38,
                    "time": 50.9375,
                    "velocity": 0.4881889763779528,
                    "duration": 0.3125
                },
                {
                    "name": "A2",
                    "midi": 45,
                    "time": 50.9375,
                    "velocity": 0.4881889763779528,
                    "duration": 0.3125
                },
                {
                    "name": "B1",
                    "midi": 35,
                    "time": 51.25,
                    "velocity": 0.4881889763779528,
                    "duration": 1.25
                },
                {
                    "name": "F#2",
                    "midi": 42,
                    "time": 51.25,
                    "velocity": 0.4881889763779528,
                    "duration": 1.25
                },
                {
                    "name": "E2",
                    "midi": 40,
                    "time": 63.75,
                    "velocity": 0.6929133858267716,
                    "duration": 0.3125
                },
                {
                    "name": "B2",
                    "midi": 47,
                    "time": 63.75,
                    "velocity": 0.6929133858267716,
                    "duration": 0.3125
                },
                {
                    "name": "A3",
                    "midi": 57,
                    "time": 64.0625,
                    "velocity": 0.6929133858267716,
                    "duration": 0.3125
                },
                {
                    "name": "B3",
                    "midi": 59,
                    "time": 64.0625,
                    "velocity": 0.6929133858267716,
                    "duration": 0.3125
                },
                {
                    "name": "C#4",
                    "midi": 61,
                    "time": 64.0625,
                    "velocity": 0.6929133858267716,
                    "duration": 0.3125
                },
                {
                    "name": "E4",
                    "midi": 64,
                    "time": 64.0625,
                    "velocity": 0.6929133858267716,
                    "duration": 0.3125
                },
                {
                    "name": "E2",
                    "midi": 40,
                    "time": 64.375,
                    "velocity": 0.6929133858267716,
                    "duration": 0.3125
                },
                {
                    "name": "B2",
                    "midi": 47,
                    "time": 64.375,
                    "velocity": 0.6929133858267716,
                    "duration": 0.3125
                },
                {
                    "name": "A3",
                    "midi": 57,
                    "time": 64.6875,
                    "velocity": 0.6929133858267716,
                    "duration": 0.3125
                },
                {
                    "name": "B3",
                    "midi": 59,
                    "time": 64.6875,
                    "velocity": 0.6929133858267716,
                    "duration": 0.3125
                },
                {
                    "name": "C#4",
                    "midi": 61,
                    "time": 64.6875,
                    "velocity": 0.6929133858267716,
                    "duration": 0.3125
                },
                {
                    "name": "E4",
                    "midi": 64,
                    "time": 64.6875,
                    "velocity": 0.6929133858267716,
                    "duration": 0.3125
                },
                {
                    "name": "E2",
                    "midi": 40,
                    "time": 65,
                    "velocity": 0.6929133858267716,
                    "duration": 0.3125
                },
                {
                    "name": "B2",
                    "midi": 47,
                    "time": 65,
                    "velocity": 0.6929133858267716,
                    "duration": 0.3125
                },
                {
                    "name": "E2",
                    "midi": 40,
                    "time": 65.3125,
                    "velocity": 0.6929133858267716,
                    "duration": 0.3125
                },
                {
                    "name": "B2",
                    "midi": 47,
                    "time": 65.3125,
                    "velocity": 0.6929133858267716,
                    "duration": 0.3125
                },
                {
                    "name": "A3",
                    "midi": 57,
                    "time": 65.625,
                    "velocity": 0.6929133858267716,
                    "duration": 0.3125
                },
                {
                    "name": "B3",
                    "midi": 59,
                    "time": 65.625,
                    "velocity": 0.6929133858267716,
                    "duration": 0.3125
                },
                {
                    "name": "C#4",
                    "midi": 61,
                    "time": 65.625,
                    "velocity": 0.6929133858267716,
                    "duration": 0.3125
                },
                {
                    "name": "E4",
                    "midi": 64,
                    "time": 65.625,
                    "velocity": 0.6929133858267716,
                    "duration": 0.3125
                },
                {
                    "name": "E2",
                    "midi": 40,
                    "time": 65.9375,
                    "velocity": 0.6929133858267716,
                    "duration": 0.3125
                },
                {
                    "name": "B2",
                    "midi": 47,
                    "time": 65.9375,
                    "velocity": 0.6929133858267716,
                    "duration": 0.3125
                },
                {
                    "name": "E2",
                    "midi": 40,
                    "time": 66.25,
                    "velocity": 0.5905511811023622,
                    "duration": 0.3125
                },
                {
                    "name": "B2",
                    "midi": 47,
                    "time": 66.25,
                    "velocity": 0.5905511811023622,
                    "duration": 0.3125
                },
                {
                    "name": "A3",
                    "midi": 57,
                    "time": 66.5625,
                    "velocity": 0.5905511811023622,
                    "duration": 0.3125
                },
                {
                    "name": "B3",
                    "midi": 59,
                    "time": 66.5625,
                    "velocity": 0.5905511811023622,
                    "duration": 0.3125
                },
                {
                    "name": "E2",
                    "midi": 40,
                    "time": 66.875,
                    "velocity": 0.5905511811023622,
                    "duration": 0.3125
                },
                {
                    "name": "B2",
                    "midi": 47,
                    "time": 66.875,
                    "velocity": 0.5905511811023622,
                    "duration": 0.3125
                },
                {
                    "name": "A3",
                    "midi": 57,
                    "time": 67.1875,
                    "velocity": 0.5905511811023622,
                    "duration": 0.3125
                },
                {
                    "name": "B3",
                    "midi": 59,
                    "time": 67.1875,
                    "velocity": 0.5905511811023622,
                    "duration": 0.3125
                },
                {
                    "name": "E2",
                    "midi": 40,
                    "time": 67.5,
                    "velocity": 0.5905511811023622,
                    "duration": 0.3125
                },
                {
                    "name": "B2",
                    "midi": 47,
                    "time": 67.5,
                    "velocity": 0.5905511811023622,
                    "duration": 0.3125
                },
                {
                    "name": "E2",
                    "midi": 40,
                    "time": 67.8125,
                    "velocity": 0.5905511811023622,
                    "duration": 0.3125
                },
                {
                    "name": "B2",
                    "midi": 47,
                    "time": 67.8125,
                    "velocity": 0.5905511811023622,
                    "duration": 0.3125
                },
                {
                    "name": "A3",
                    "midi": 57,
                    "time": 67.8125,
                    "velocity": 0.5905511811023622,
                    "duration": 0.3125
                },
                {
                    "name": "B3",
                    "midi": 59,
                    "time": 67.8125,
                    "velocity": 0.5905511811023622,
                    "duration": 0.3125
                },
                {
                    "name": "E2",
                    "midi": 40,
                    "time": 68.4375,
                    "velocity": 0.5905511811023622,
                    "duration": 0.3125
                },
                {
                    "name": "B2",
                    "midi": 47,
                    "time": 68.4375,
                    "velocity": 0.5905511811023622,
                    "duration": 0.3125
                },
                {
                    "name": "A3",
                    "midi": 57,
                    "time": 68.4375,
                    "velocity": 0.5905511811023622,
                    "duration": 0.3125
                },
                {
                    "name": "B3",
                    "midi": 59,
                    "time": 68.4375,
                    "velocity": 0.5905511811023622,
                    "duration": 0.3125
                },
                {
                    "name": "E2",
                    "midi": 40,
                    "time": 68.75,
                    "velocity": 0.5905511811023622,
                    "duration": 0.3125
                },
                {
                    "name": "B2",
                    "midi": 47,
                    "time": 68.75,
                    "velocity": 0.5905511811023622,
                    "duration": 0.3125
                },
                {
                    "name": "A3",
                    "midi": 57,
                    "time": 69.0625,
                    "velocity": 0.5905511811023622,
                    "duration": 0.3125
                },
                {
                    "name": "B3",
                    "midi": 59,
                    "time": 69.0625,
                    "velocity": 0.5905511811023622,
                    "duration": 0.3125
                },
                {
                    "name": "E2",
                    "midi": 40,
                    "time": 69.375,
                    "velocity": 0.5905511811023622,
                    "duration": 0.3125
                },
                {
                    "name": "B2",
                    "midi": 47,
                    "time": 69.375,
                    "velocity": 0.5905511811023622,
                    "duration": 0.3125
                },
                {
                    "name": "A3",
                    "midi": 57,
                    "time": 69.6875,
                    "velocity": 0.5905511811023622,
                    "duration": 0.3125
                },
                {
                    "name": "B3",
                    "midi": 59,
                    "time": 69.6875,
                    "velocity": 0.5905511811023622,
                    "duration": 0.3125
                },
                {
                    "name": "E2",
                    "midi": 40,
                    "time": 70,
                    "velocity": 0.5905511811023622,
                    "duration": 0.3125
                },
                {
                    "name": "B2",
                    "midi": 47,
                    "time": 70,
                    "velocity": 0.5905511811023622,
                    "duration": 0.3125
                },
                {
                    "name": "E2",
                    "midi": 40,
                    "time": 70.3125,
                    "velocity": 0.5905511811023622,
                    "duration": 0.3125
                },
                {
                    "name": "B2",
                    "midi": 47,
                    "time": 70.3125,
                    "velocity": 0.5905511811023622,
                    "duration": 0.3125
                },
                {
                    "name": "A3",
                    "midi": 57,
                    "time": 70.3125,
                    "velocity": 0.5905511811023622,
                    "duration": 0.3125
                },
                {
                    "name": "B3",
                    "midi": 59,
                    "time": 70.3125,
                    "velocity": 0.5905511811023622,
                    "duration": 0.3125
                },
                {
                    "name": "E2",
                    "midi": 40,
                    "time": 70.9375,
                    "velocity": 0.5905511811023622,
                    "duration": 0.3125
                },
                {
                    "name": "B2",
                    "midi": 47,
                    "time": 70.9375,
                    "velocity": 0.5905511811023622,
                    "duration": 0.3125
                },
                {
                    "name": "A3",
                    "midi": 57,
                    "time": 70.9375,
                    "velocity": 0.5905511811023622,
                    "duration": 0.3125
                },
                {
                    "name": "B3",
                    "midi": 59,
                    "time": 70.9375,
                    "velocity": 0.5905511811023622,
                    "duration": 0.3125
                },
                {
                    "name": "E2",
                    "midi": 40,
                    "time": 71.25,
                    "velocity": 0.5905511811023622,
                    "duration": 0.3125
                },
                {
                    "name": "B2",
                    "midi": 47,
                    "time": 71.25,
                    "velocity": 0.5905511811023622,
                    "duration": 0.3125
                },
                {
                    "name": "A3",
                    "midi": 57,
                    "time": 71.5625,
                    "velocity": 0.5905511811023622,
                    "duration": 0.3125
                },
                {
                    "name": "B3",
                    "midi": 59,
                    "time": 71.5625,
                    "velocity": 0.5905511811023622,
                    "duration": 0.3125
                },
                {
                    "name": "E2",
                    "midi": 40,
                    "time": 71.875,
                    "velocity": 0.5905511811023622,
                    "duration": 0.3125
                },
                {
                    "name": "B2",
                    "midi": 47,
                    "time": 71.875,
                    "velocity": 0.5905511811023622,
                    "duration": 0.3125
                },
                {
                    "name": "A3",
                    "midi": 57,
                    "time": 72.1875,
                    "velocity": 0.5905511811023622,
                    "duration": 0.3125
                },
                {
                    "name": "B3",
                    "midi": 59,
                    "time": 72.1875,
                    "velocity": 0.5905511811023622,
                    "duration": 0.3125
                },
                {
                    "name": "D#2",
                    "midi": 39,
                    "time": 72.5,
                    "velocity": 0.5905511811023622,
                    "duration": 0.061197916666671404
                },
                {
                    "name": "A#2",
                    "midi": 46,
                    "time": 72.8125,
                    "velocity": 0.5905511811023622,
                    "duration": 0.061197916666671404
                },
                {
                    "name": "D#3",
                    "midi": 51,
                    "time": 73.125,
                    "velocity": 0.5905511811023622,
                    "duration": 0.061197916666671404
                },
                {
                    "name": "A#3",
                    "midi": 58,
                    "time": 73.4375,
                    "velocity": 0.5905511811023622,
                    "duration": 0.061197916666671404
                },
                {
                    "name": "D#4",
                    "midi": 63,
                    "time": 73.75,
                    "velocity": 0.5905511811023622,
                    "duration": 0.061197916666671404
                },
                {
                    "name": "A#3",
                    "midi": 58,
                    "time": 74.0625,
                    "velocity": 0.5905511811023622,
                    "duration": 0.061197916666671404
                },
                {
                    "name": "D#3",
                    "midi": 51,
                    "time": 74.375,
                    "velocity": 0.5905511811023622,
                    "duration": 0.061197916666671404
                },
                {
                    "name": "A#2",
                    "midi": 46,
                    "time": 74.6875,
                    "velocity": 0.5905511811023622,
                    "duration": 0.061197916666671404
                },
                {
                    "name": "A#3",
                    "midi": 58,
                    "time": 75,
                    "velocity": 0.5905511811023622,
                    "duration": 0.061197916666671404
                },
                {
                    "name": "D#3",
                    "midi": 51,
                    "time": 75.3125,
                    "velocity": 0.5905511811023622,
                    "duration": 0.061197916666671404
                },
                {
                    "name": "A#2",
                    "midi": 46,
                    "time": 75.625,
                    "velocity": 0.5905511811023622,
                    "duration": 0.061197916666671404
                },
                {
                    "name": "D#2",
                    "midi": 39,
                    "time": 75.9375,
                    "velocity": 0.5905511811023622,
                    "duration": 0.061197916666671404
                },
                {
                    "name": "D#3",
                    "midi": 51,
                    "time": 76.25,
                    "velocity": 0.5905511811023622,
                    "duration": 0.061197916666671404
                },
                {
                    "name": "A#2",
                    "midi": 46,
                    "time": 76.5625,
                    "velocity": 0.5905511811023622,
                    "duration": 0.061197916666671404
                },
                {
                    "name": "D#2",
                    "midi": 39,
                    "time": 76.875,
                    "velocity": 0.5905511811023622,
                    "duration": 0.061197916666671404
                },
                {
                    "name": "A#1",
                    "midi": 34,
                    "time": 77.1875,
                    "velocity": 0.5905511811023622,
                    "duration": 0.061197916666671404
                },
                {
                    "name": "E2",
                    "midi": 40,
                    "time": 77.5,
                    "velocity": 0.5905511811023622,
                    "duration": 0.3125
                },
                {
                    "name": "B2",
                    "midi": 47,
                    "time": 77.5,
                    "velocity": 0.5905511811023622,
                    "duration": 0.3125
                },
                {
                    "name": "A3",
                    "midi": 57,
                    "time": 77.8125,
                    "velocity": 0.5905511811023622,
                    "duration": 0.3125
                },
                {
                    "name": "B3",
                    "midi": 59,
                    "time": 77.8125,
                    "velocity": 0.5905511811023622,
                    "duration": 0.3125
                },
                {
                    "name": "E2",
                    "midi": 40,
                    "time": 78.125,
                    "velocity": 0.5905511811023622,
                    "duration": 0.3125
                },
                {
                    "name": "B2",
                    "midi": 47,
                    "time": 78.125,
                    "velocity": 0.5905511811023622,
                    "duration": 0.3125
                },
                {
                    "name": "A3",
                    "midi": 57,
                    "time": 78.4375,
                    "velocity": 0.5905511811023622,
                    "duration": 0.3125
                },
                {
                    "name": "B3",
                    "midi": 59,
                    "time": 78.4375,
                    "velocity": 0.5905511811023622,
                    "duration": 0.3125
                },
                {
                    "name": "E2",
                    "midi": 40,
                    "time": 78.75,
                    "velocity": 0.5905511811023622,
                    "duration": 0.3125
                },
                {
                    "name": "B2",
                    "midi": 47,
                    "time": 78.75,
                    "velocity": 0.5905511811023622,
                    "duration": 0.3125
                },
                {
                    "name": "E2",
                    "midi": 40,
                    "time": 79.0625,
                    "velocity": 0.5905511811023622,
                    "duration": 0.3125
                },
                {
                    "name": "B2",
                    "midi": 47,
                    "time": 79.0625,
                    "velocity": 0.5905511811023622,
                    "duration": 0.3125
                },
                {
                    "name": "A3",
                    "midi": 57,
                    "time": 79.0625,
                    "velocity": 0.5905511811023622,
                    "duration": 0.3125
                },
                {
                    "name": "B3",
                    "midi": 59,
                    "time": 79.0625,
                    "velocity": 0.5905511811023622,
                    "duration": 0.3125
                },
                {
                    "name": "E2",
                    "midi": 40,
                    "time": 79.6875,
                    "velocity": 0.5905511811023622,
                    "duration": 0.3125
                },
                {
                    "name": "B2",
                    "midi": 47,
                    "time": 79.6875,
                    "velocity": 0.5905511811023622,
                    "duration": 0.3125
                },
                {
                    "name": "A3",
                    "midi": 57,
                    "time": 79.6875,
                    "velocity": 0.5905511811023622,
                    "duration": 0.3125
                },
                {
                    "name": "B3",
                    "midi": 59,
                    "time": 79.6875,
                    "velocity": 0.5905511811023622,
                    "duration": 0.3125
                },
                {
                    "name": "E2",
                    "midi": 40,
                    "time": 80,
                    "velocity": 0.5905511811023622,
                    "duration": 0.3125
                },
                {
                    "name": "B2",
                    "midi": 47,
                    "time": 80,
                    "velocity": 0.5905511811023622,
                    "duration": 0.3125
                },
                {
                    "name": "A3",
                    "midi": 57,
                    "time": 80.3125,
                    "velocity": 0.5905511811023622,
                    "duration": 0.3125
                },
                {
                    "name": "B3",
                    "midi": 59,
                    "time": 80.3125,
                    "velocity": 0.5905511811023622,
                    "duration": 0.3125
                },
                {
                    "name": "E2",
                    "midi": 40,
                    "time": 80.625,
                    "velocity": 0.5905511811023622,
                    "duration": 0.3125
                },
                {
                    "name": "B2",
                    "midi": 47,
                    "time": 80.625,
                    "velocity": 0.5905511811023622,
                    "duration": 0.3125
                },
                {
                    "name": "A3",
                    "midi": 57,
                    "time": 80.9375,
                    "velocity": 0.5905511811023622,
                    "duration": 0.3125
                },
                {
                    "name": "B3",
                    "midi": 59,
                    "time": 80.9375,
                    "velocity": 0.5905511811023622,
                    "duration": 0.3125
                },
                {
                    "name": "E2",
                    "midi": 40,
                    "time": 81.25,
                    "velocity": 0.5905511811023622,
                    "duration": 0.3125
                },
                {
                    "name": "B2",
                    "midi": 47,
                    "time": 81.25,
                    "velocity": 0.5905511811023622,
                    "duration": 0.3125
                },
                {
                    "name": "E2",
                    "midi": 40,
                    "time": 81.5625,
                    "velocity": 0.5905511811023622,
                    "duration": 0.3125
                },
                {
                    "name": "B2",
                    "midi": 47,
                    "time": 81.5625,
                    "velocity": 0.5905511811023622,
                    "duration": 0.3125
                },
                {
                    "name": "A3",
                    "midi": 57,
                    "time": 81.5625,
                    "velocity": 0.5905511811023622,
                    "duration": 0.3125
                },
                {
                    "name": "B3",
                    "midi": 59,
                    "time": 81.5625,
                    "velocity": 0.5905511811023622,
                    "duration": 0.3125
                },
                {
                    "name": "E2",
                    "midi": 40,
                    "time": 82.1875,
                    "velocity": 0.5905511811023622,
                    "duration": 0.3125
                },
                {
                    "name": "B2",
                    "midi": 47,
                    "time": 82.1875,
                    "velocity": 0.5905511811023622,
                    "duration": 0.3125
                },
                {
                    "name": "A3",
                    "midi": 57,
                    "time": 82.1875,
                    "velocity": 0.5905511811023622,
                    "duration": 0.3125
                },
                {
                    "name": "B3",
                    "midi": 59,
                    "time": 82.1875,
                    "velocity": 0.5905511811023622,
                    "duration": 0.3125
                },
                {
                    "name": "E2",
                    "midi": 40,
                    "time": 82.5,
                    "velocity": 0.5905511811023622,
                    "duration": 0.3125
                },
                {
                    "name": "B2",
                    "midi": 47,
                    "time": 82.5,
                    "velocity": 0.5905511811023622,
                    "duration": 0.3125
                },
                {
                    "name": "A3",
                    "midi": 57,
                    "time": 82.8125,
                    "velocity": 0.5905511811023622,
                    "duration": 0.3125
                },
                {
                    "name": "B3",
                    "midi": 59,
                    "time": 82.8125,
                    "velocity": 0.5905511811023622,
                    "duration": 0.3125
                },
                {
                    "name": "E2",
                    "midi": 40,
                    "time": 83.125,
                    "velocity": 0.5905511811023622,
                    "duration": 0.3125
                },
                {
                    "name": "B2",
                    "midi": 47,
                    "time": 83.125,
                    "velocity": 0.5905511811023622,
                    "duration": 0.3125
                },
                {
                    "name": "A3",
                    "midi": 57,
                    "time": 83.4375,
                    "velocity": 0.5905511811023622,
                    "duration": 0.3125
                },
                {
                    "name": "B3",
                    "midi": 59,
                    "time": 83.4375,
                    "velocity": 0.5905511811023622,
                    "duration": 0.3125
                },
                {
                    "name": "E2",
                    "midi": 40,
                    "time": 83.75,
                    "velocity": 0.5905511811023622,
                    "duration": 0.061197916666671404
                },
                {
                    "name": "B2",
                    "midi": 47,
                    "time": 84.0625,
                    "velocity": 0.5905511811023622,
                    "duration": 0.061197916666671404
                },
                {
                    "name": "E3",
                    "midi": 52,
                    "time": 84.375,
                    "velocity": 0.5905511811023622,
                    "duration": 0.061197916666671404
                },
                {
                    "name": "B3",
                    "midi": 59,
                    "time": 84.6875,
                    "velocity": 0.5905511811023622,
                    "duration": 0.061197916666671404
                },
                {
                    "name": "E4",
                    "midi": 64,
                    "time": 85,
                    "velocity": 0.5905511811023622,
                    "duration": 0.061197916666671404
                },
                {
                    "name": "B3",
                    "midi": 59,
                    "time": 85.3125,
                    "velocity": 0.5905511811023622,
                    "duration": 0.061197916666671404
                },
                {
                    "name": "E3",
                    "midi": 52,
                    "time": 85.625,
                    "velocity": 0.5905511811023622,
                    "duration": 0.061197916666671404
                },
                {
                    "name": "B2",
                    "midi": 47,
                    "time": 85.9375,
                    "velocity": 0.5905511811023622,
                    "duration": 0.061197916666671404
                },
                {
                    "name": "B3",
                    "midi": 59,
                    "time": 86.25,
                    "velocity": 0.5905511811023622,
                    "duration": 0.061197916666671404
                },
                {
                    "name": "E3",
                    "midi": 52,
                    "time": 86.5625,
                    "velocity": 0.5905511811023622,
                    "duration": 0.061197916666671404
                },
                {
                    "name": "B2",
                    "midi": 47,
                    "time": 86.875,
                    "velocity": 0.5905511811023622,
                    "duration": 0.061197916666671404
                },
                {
                    "name": "E2",
                    "midi": 40,
                    "time": 87.1875,
                    "velocity": 0.5905511811023622,
                    "duration": 0.061197916666671404
                },
                {
                    "name": "E3",
                    "midi": 52,
                    "time": 87.5,
                    "velocity": 0.5905511811023622,
                    "duration": 0.061197916666671404
                },
                {
                    "name": "B2",
                    "midi": 47,
                    "time": 87.8125,
                    "velocity": 0.5905511811023622,
                    "duration": 0.061197916666671404
                },
                {
                    "name": "E2",
                    "midi": 40,
                    "time": 88.125,
                    "velocity": 0.5905511811023622,
                    "duration": 0.061197916666671404
                },
                {
                    "name": "B1",
                    "midi": 35,
                    "time": 88.4375,
                    "velocity": 0.5905511811023622,
                    "duration": 0.061197916666671404
                },
                {
                    "name": "C#4",
                    "midi": 61,
                    "time": 88.75,
                    "velocity": 0.5905511811023622,
                    "duration": 1.25
                },
                {
                    "name": "G#4",
                    "midi": 68,
                    "time": 88.75,
                    "velocity": 0.5905511811023622,
                    "duration": 1.25
                },
                {
                    "name": "B3",
                    "midi": 59,
                    "time": 90,
                    "velocity": 0.5905511811023622,
                    "duration": 1.25
                },
                {
                    "name": "F#4",
                    "midi": 66,
                    "time": 90,
                    "velocity": 0.5905511811023622,
                    "duration": 1.25
                },
                {
                    "name": "A3",
                    "midi": 57,
                    "time": 91.25,
                    "velocity": 0.5905511811023622,
                    "duration": 1.25
                },
                {
                    "name": "E4",
                    "midi": 64,
                    "time": 91.25,
                    "velocity": 0.5905511811023622,
                    "duration": 1.25
                },
                {
                    "name": "D#4",
                    "midi": 63,
                    "time": 92.5,
                    "velocity": 0.5905511811023622,
                    "duration": 1.25
                },
                {
                    "name": "G#2",
                    "midi": 44,
                    "time": 93.75,
                    "velocity": 0.5905511811023622,
                    "duration": 0.3125
                },
                {
                    "name": "D#3",
                    "midi": 51,
                    "time": 93.75,
                    "velocity": 0.5905511811023622,
                    "duration": 0.3125
                },
                {
                    "name": "A#3",
                    "midi": 58,
                    "time": 94.0625,
                    "velocity": 0.5905511811023622,
                    "duration": 0.3125
                },
                {
                    "name": "C4",
                    "midi": 60,
                    "time": 94.0625,
                    "velocity": 0.5905511811023622,
                    "duration": 0.3125
                },
                {
                    "name": "D#4",
                    "midi": 63,
                    "time": 94.0625,
                    "velocity": 0.5905511811023622,
                    "duration": 0.3125
                },
                {
                    "name": "F4",
                    "midi": 65,
                    "time": 94.0625,
                    "velocity": 0.5905511811023622,
                    "duration": 0.3125
                },
                {
                    "name": "G#2",
                    "midi": 44,
                    "time": 94.375,
                    "velocity": 0.5905511811023622,
                    "duration": 0.3125
                },
                {
                    "name": "D#3",
                    "midi": 51,
                    "time": 94.375,
                    "velocity": 0.5905511811023622,
                    "duration": 0.3125
                },
                {
                    "name": "A#3",
                    "midi": 58,
                    "time": 94.6875,
                    "velocity": 0.5905511811023622,
                    "duration": 0.3125
                },
                {
                    "name": "C4",
                    "midi": 60,
                    "time": 94.6875,
                    "velocity": 0.5905511811023622,
                    "duration": 0.3125
                },
                {
                    "name": "D#4",
                    "midi": 63,
                    "time": 94.6875,
                    "velocity": 0.5905511811023622,
                    "duration": 0.3125
                },
                {
                    "name": "F4",
                    "midi": 65,
                    "time": 94.6875,
                    "velocity": 0.5905511811023622,
                    "duration": 0.3125
                },
                {
                    "name": "G#2",
                    "midi": 44,
                    "time": 95,
                    "velocity": 0.5905511811023622,
                    "duration": 0.3125
                },
                {
                    "name": "D#3",
                    "midi": 51,
                    "time": 95,
                    "velocity": 0.5905511811023622,
                    "duration": 0.3125
                },
                {
                    "name": "G#2",
                    "midi": 44,
                    "time": 95.3125,
                    "velocity": 0.5905511811023622,
                    "duration": 0.3125
                },
                {
                    "name": "D#3",
                    "midi": 51,
                    "time": 95.3125,
                    "velocity": 0.5905511811023622,
                    "duration": 0.3125
                },
                {
                    "name": "A#3",
                    "midi": 58,
                    "time": 95.625,
                    "velocity": 0.5905511811023622,
                    "duration": 0.3125
                },
                {
                    "name": "C4",
                    "midi": 60,
                    "time": 95.625,
                    "velocity": 0.5905511811023622,
                    "duration": 0.3125
                },
                {
                    "name": "D#4",
                    "midi": 63,
                    "time": 95.625,
                    "velocity": 0.5905511811023622,
                    "duration": 0.3125
                },
                {
                    "name": "F4",
                    "midi": 65,
                    "time": 95.625,
                    "velocity": 0.5905511811023622,
                    "duration": 0.3125
                },
                {
                    "name": "G#2",
                    "midi": 44,
                    "time": 95.9375,
                    "velocity": 0.5905511811023622,
                    "duration": 0.3125
                },
                {
                    "name": "D#3",
                    "midi": 51,
                    "time": 95.9375,
                    "velocity": 0.5905511811023622,
                    "duration": 0.3125
                },
                {
                    "name": "G#4",
                    "midi": 68,
                    "time": 96.25,
                    "velocity": 0.5905511811023622,
                    "duration": 1.25
                },
                {
                    "name": "F#4",
                    "midi": 66,
                    "time": 97.5,
                    "velocity": 0.5905511811023622,
                    "duration": 1.25
                },
                {
                    "name": "E4",
                    "midi": 64,
                    "time": 98.75,
                    "velocity": 0.5905511811023622,
                    "duration": 1.25
                },
                {
                    "name": "D4",
                    "midi": 62,
                    "time": 100,
                    "velocity": 0.5905511811023622,
                    "duration": 1.25
                },
                {
                    "name": "E2",
                    "midi": 40,
                    "time": 101.25,
                    "velocity": 0.5905511811023622,
                    "duration": 0.061197916666671404
                },
                {
                    "name": "F#3",
                    "midi": 54,
                    "time": 101.5625,
                    "velocity": 0.5905511811023622,
                    "duration": 0.3125
                },
                {
                    "name": "A3",
                    "midi": 57,
                    "time": 101.5625,
                    "velocity": 0.5905511811023622,
                    "duration": 0.3125
                },
                {
                    "name": "C#4",
                    "midi": 61,
                    "time": 101.5625,
                    "velocity": 0.5905511811023622,
                    "duration": 0.3125
                },
                {
                    "name": "C2",
                    "midi": 36,
                    "time": 101.875,
                    "velocity": 0.5905511811023622,
                    "duration": 0.061197916666671404
                },
                {
                    "name": "F#3",
                    "midi": 54,
                    "time": 102.1875,
                    "velocity": 0.5905511811023622,
                    "duration": 0.3125
                },
                {
                    "name": "A#3",
                    "midi": 58,
                    "time": 102.1875,
                    "velocity": 0.5905511811023622,
                    "duration": 0.3125
                },
                {
                    "name": "D4",
                    "midi": 62,
                    "time": 102.1875,
                    "velocity": 0.5905511811023622,
                    "duration": 0.3125
                },
                {
                    "name": "G#1",
                    "midi": 32,
                    "time": 102.5,
                    "velocity": 0.5905511811023622,
                    "duration": 0.061197916666671404
                },
                {
                    "name": "F#3",
                    "midi": 54,
                    "time": 102.8125,
                    "velocity": 0.5905511811023622,
                    "duration": 0.3125
                },
                {
                    "name": "B3",
                    "midi": 59,
                    "time": 102.8125,
                    "velocity": 0.5905511811023622,
                    "duration": 0.3125
                },
                {
                    "name": "D#4",
                    "midi": 63,
                    "time": 102.8125,
                    "velocity": 0.5905511811023622,
                    "duration": 0.3125
                },
                {
                    "name": "B1",
                    "midi": 35,
                    "time": 103.125,
                    "velocity": 0.5905511811023622,
                    "duration": 0.061197916666671404
                },
                {
                    "name": "F#3",
                    "midi": 54,
                    "time": 103.4375,
                    "velocity": 0.5905511811023622,
                    "duration": 0.3125
                },
                {
                    "name": "A#3",
                    "midi": 58,
                    "time": 103.4375,
                    "velocity": 0.5905511811023622,
                    "duration": 0.3125
                },
                {
                    "name": "D#4",
                    "midi": 63,
                    "time": 103.4375,
                    "velocity": 0.5905511811023622,
                    "duration": 0.3125
                },
                {
                    "name": "E2",
                    "midi": 40,
                    "time": 103.75,
                    "velocity": 0.5905511811023622,
                    "duration": 0.061197916666671404
                },
                {
                    "name": "F#3",
                    "midi": 54,
                    "time": 104.0625,
                    "velocity": 0.5905511811023622,
                    "duration": 0.3125
                },
                {
                    "name": "A3",
                    "midi": 57,
                    "time": 104.0625,
                    "velocity": 0.5905511811023622,
                    "duration": 0.3125
                },
                {
                    "name": "C#4",
                    "midi": 61,
                    "time": 104.0625,
                    "velocity": 0.5905511811023622,
                    "duration": 0.3125
                },
                {
                    "name": "C2",
                    "midi": 36,
                    "time": 104.375,
                    "velocity": 0.5905511811023622,
                    "duration": 0.061197916666671404
                },
                {
                    "name": "F#3",
                    "midi": 54,
                    "time": 104.6875,
                    "velocity": 0.5905511811023622,
                    "duration": 0.3125
                },
                {
                    "name": "A#3",
                    "midi": 58,
                    "time": 104.6875,
                    "velocity": 0.5905511811023622,
                    "duration": 0.3125
                },
                {
                    "name": "D4",
                    "midi": 62,
                    "time": 104.6875,
                    "velocity": 0.5905511811023622,
                    "duration": 0.3125
                },
                {
                    "name": "G#1",
                    "midi": 32,
                    "time": 105,
                    "velocity": 0.5905511811023622,
                    "duration": 0.061197916666671404
                },
                {
                    "name": "F#3",
                    "midi": 54,
                    "time": 105.3125,
                    "velocity": 0.5905511811023622,
                    "duration": 0.3125
                },
                {
                    "name": "B3",
                    "midi": 59,
                    "time": 105.3125,
                    "velocity": 0.5905511811023622,
                    "duration": 0.3125
                },
                {
                    "name": "D#4",
                    "midi": 63,
                    "time": 105.3125,
                    "velocity": 0.5905511811023622,
                    "duration": 0.3125
                },
                {
                    "name": "B1",
                    "midi": 35,
                    "time": 105.625,
                    "velocity": 0.5905511811023622,
                    "duration": 0.061197916666671404
                },
                {
                    "name": "F#3",
                    "midi": 54,
                    "time": 105.9375,
                    "velocity": 0.5905511811023622,
                    "duration": 0.3125
                },
                {
                    "name": "A#3",
                    "midi": 58,
                    "time": 105.9375,
                    "velocity": 0.5905511811023622,
                    "duration": 0.3125
                },
                {
                    "name": "D#4",
                    "midi": 63,
                    "time": 105.9375,
                    "velocity": 0.5905511811023622,
                    "duration": 0.3125
                },
                {
                    "name": "E2",
                    "midi": 40,
                    "time": 106.25,
                    "velocity": 0.5905511811023622,
                    "duration": 0.3125
                },
                {
                    "name": "B2",
                    "midi": 47,
                    "time": 106.25,
                    "velocity": 0.5905511811023622,
                    "duration": 0.3125
                },
                {
                    "name": "A3",
                    "midi": 57,
                    "time": 106.5625,
                    "velocity": 0.5905511811023622,
                    "duration": 0.3125
                },
                {
                    "name": "B3",
                    "midi": 59,
                    "time": 106.5625,
                    "velocity": 0.5905511811023622,
                    "duration": 0.3125
                },
                {
                    "name": "C#4",
                    "midi": 61,
                    "time": 106.5625,
                    "velocity": 0.5905511811023622,
                    "duration": 0.3125
                },
                {
                    "name": "E4",
                    "midi": 64,
                    "time": 106.5625,
                    "velocity": 0.5905511811023622,
                    "duration": 0.3125
                },
                {
                    "name": "E2",
                    "midi": 40,
                    "time": 106.875,
                    "velocity": 0.5905511811023622,
                    "duration": 0.3125
                },
                {
                    "name": "B2",
                    "midi": 47,
                    "time": 106.875,
                    "velocity": 0.5905511811023622,
                    "duration": 0.3125
                },
                {
                    "name": "A3",
                    "midi": 57,
                    "time": 107.1875,
                    "velocity": 0.5905511811023622,
                    "duration": 0.3125
                },
                {
                    "name": "B3",
                    "midi": 59,
                    "time": 107.1875,
                    "velocity": 0.5905511811023622,
                    "duration": 0.3125
                },
                {
                    "name": "C#4",
                    "midi": 61,
                    "time": 107.1875,
                    "velocity": 0.5905511811023622,
                    "duration": 0.3125
                },
                {
                    "name": "E4",
                    "midi": 64,
                    "time": 107.1875,
                    "velocity": 0.5905511811023622,
                    "duration": 0.3125
                },
                {
                    "name": "E2",
                    "midi": 40,
                    "time": 107.5,
                    "velocity": 0.5905511811023622,
                    "duration": 0.3125
                },
                {
                    "name": "B2",
                    "midi": 47,
                    "time": 107.5,
                    "velocity": 0.5905511811023622,
                    "duration": 0.3125
                },
                {
                    "name": "E2",
                    "midi": 40,
                    "time": 107.8125,
                    "velocity": 0.5905511811023622,
                    "duration": 0.3125
                },
                {
                    "name": "B2",
                    "midi": 47,
                    "time": 107.8125,
                    "velocity": 0.5905511811023622,
                    "duration": 0.3125
                },
                {
                    "name": "A3",
                    "midi": 57,
                    "time": 108.125,
                    "velocity": 0.5905511811023622,
                    "duration": 0.3125
                },
                {
                    "name": "B3",
                    "midi": 59,
                    "time": 108.125,
                    "velocity": 0.5905511811023622,
                    "duration": 0.3125
                },
                {
                    "name": "C#4",
                    "midi": 61,
                    "time": 108.125,
                    "velocity": 0.5905511811023622,
                    "duration": 0.3125
                },
                {
                    "name": "E4",
                    "midi": 64,
                    "time": 108.125,
                    "velocity": 0.5905511811023622,
                    "duration": 0.3125
                },
                {
                    "name": "E2",
                    "midi": 40,
                    "time": 108.4375,
                    "velocity": 0.5905511811023622,
                    "duration": 0.3125
                },
                {
                    "name": "B2",
                    "midi": 47,
                    "time": 108.4375,
                    "velocity": 0.5905511811023622,
                    "duration": 0.3125
                },
                {
                    "name": "E2",
                    "midi": 40,
                    "time": 108.75,
                    "velocity": 0.5905511811023622,
                    "duration": 0.3125
                },
                {
                    "name": "B2",
                    "midi": 47,
                    "time": 108.75,
                    "velocity": 0.5905511811023622,
                    "duration": 0.3125
                },
                {
                    "name": "A3",
                    "midi": 57,
                    "time": 109.0625,
                    "velocity": 0.5905511811023622,
                    "duration": 0.3125
                },
                {
                    "name": "B3",
                    "midi": 59,
                    "time": 109.0625,
                    "velocity": 0.5905511811023622,
                    "duration": 0.3125
                },
                {
                    "name": "C#4",
                    "midi": 61,
                    "time": 109.0625,
                    "velocity": 0.5905511811023622,
                    "duration": 0.3125
                },
                {
                    "name": "E4",
                    "midi": 64,
                    "time": 109.0625,
                    "velocity": 0.5905511811023622,
                    "duration": 0.3125
                },
                {
                    "name": "E2",
                    "midi": 40,
                    "time": 109.375,
                    "velocity": 0.5905511811023622,
                    "duration": 0.3125
                },
                {
                    "name": "B2",
                    "midi": 47,
                    "time": 109.375,
                    "velocity": 0.5905511811023622,
                    "duration": 0.3125
                },
                {
                    "name": "A3",
                    "midi": 57,
                    "time": 109.6875,
                    "velocity": 0.5905511811023622,
                    "duration": 0.3125
                },
                {
                    "name": "B3",
                    "midi": 59,
                    "time": 109.6875,
                    "velocity": 0.5905511811023622,
                    "duration": 0.3125
                },
                {
                    "name": "C#4",
                    "midi": 61,
                    "time": 109.6875,
                    "velocity": 0.5905511811023622,
                    "duration": 0.3125
                },
                {
                    "name": "E4",
                    "midi": 64,
                    "time": 109.6875,
                    "velocity": 0.5905511811023622,
                    "duration": 0.3125
                },
                {
                    "name": "E2",
                    "midi": 40,
                    "time": 110,
                    "velocity": 0.5905511811023622,
                    "duration": 0.3125
                },
                {
                    "name": "B2",
                    "midi": 47,
                    "time": 110,
                    "velocity": 0.5905511811023622,
                    "duration": 0.3125
                },
                {
                    "name": "E2",
                    "midi": 40,
                    "time": 110.3125,
                    "velocity": 0.5905511811023622,
                    "duration": 0.3125
                },
                {
                    "name": "B2",
                    "midi": 47,
                    "time": 110.3125,
                    "velocity": 0.5905511811023622,
                    "duration": 0.3125
                },
                {
                    "name": "A3",
                    "midi": 57,
                    "time": 110.625,
                    "velocity": 0.5905511811023622,
                    "duration": 0.3125
                },
                {
                    "name": "B3",
                    "midi": 59,
                    "time": 110.625,
                    "velocity": 0.5905511811023622,
                    "duration": 0.3125
                },
                {
                    "name": "C#4",
                    "midi": 61,
                    "time": 110.625,
                    "velocity": 0.5905511811023622,
                    "duration": 0.3125
                },
                {
                    "name": "E4",
                    "midi": 64,
                    "time": 110.625,
                    "velocity": 0.5905511811023622,
                    "duration": 0.3125
                },
                {
                    "name": "E2",
                    "midi": 40,
                    "time": 110.9375,
                    "velocity": 0.5905511811023622,
                    "duration": 0.3125
                },
                {
                    "name": "B2",
                    "midi": 47,
                    "time": 110.9375,
                    "velocity": 0.5905511811023622,
                    "duration": 0.3125
                },
                {
                    "name": "E2",
                    "midi": 40,
                    "time": 111.25,
                    "velocity": 0.5905511811023622,
                    "duration": 0.3125
                },
                {
                    "name": "B2",
                    "midi": 47,
                    "time": 111.25,
                    "velocity": 0.5905511811023622,
                    "duration": 0.3125
                },
                {
                    "name": "G#3",
                    "midi": 56,
                    "time": 111.5625,
                    "velocity": 0.5905511811023622,
                    "duration": 0.3125
                },
                {
                    "name": "B3",
                    "midi": 59,
                    "time": 111.5625,
                    "velocity": 0.5905511811023622,
                    "duration": 0.3125
                },
                {
                    "name": "D#4",
                    "midi": 63,
                    "time": 111.5625,
                    "velocity": 0.5905511811023622,
                    "duration": 0.3125
                },
                {
                    "name": "E4",
                    "midi": 64,
                    "time": 111.5625,
                    "velocity": 0.5905511811023622,
                    "duration": 0.3125
                },
                {
                    "name": "E2",
                    "midi": 40,
                    "time": 111.875,
                    "velocity": 0.5905511811023622,
                    "duration": 0.3125
                },
                {
                    "name": "B2",
                    "midi": 47,
                    "time": 111.875,
                    "velocity": 0.5905511811023622,
                    "duration": 0.3125
                },
                {
                    "name": "G#3",
                    "midi": 56,
                    "time": 112.1875,
                    "velocity": 0.5905511811023622,
                    "duration": 0.3125
                },
                {
                    "name": "B3",
                    "midi": 59,
                    "time": 112.1875,
                    "velocity": 0.5905511811023622,
                    "duration": 0.3125
                },
                {
                    "name": "D#4",
                    "midi": 63,
                    "time": 112.1875,
                    "velocity": 0.5905511811023622,
                    "duration": 0.3125
                },
                {
                    "name": "E4",
                    "midi": 64,
                    "time": 112.1875,
                    "velocity": 0.5905511811023622,
                    "duration": 0.3125
                },
                {
                    "name": "D#2",
                    "midi": 39,
                    "time": 112.5,
                    "velocity": 0.5905511811023622,
                    "duration": 0.061197916666671404
                },
                {
                    "name": "G4",
                    "midi": 67,
                    "time": 112.5,
                    "velocity": 0.5905511811023622,
                    "duration": 0.061197916666671404
                },
                {
                    "name": "A#4",
                    "midi": 70,
                    "time": 112.5,
                    "velocity": 0.5905511811023622,
                    "duration": 0.061197916666671404
                },
                {
                    "name": "C#5",
                    "midi": 73,
                    "time": 112.5,
                    "velocity": 0.5905511811023622,
                    "duration": 0.061197916666671404
                },
                {
                    "name": "F#5",
                    "midi": 78,
                    "time": 112.5,
                    "velocity": 0.5905511811023622,
                    "duration": 0.061197916666671404
                },
                {
                    "name": "A#2",
                    "midi": 46,
                    "time": 112.8125,
                    "velocity": 0.5905511811023622,
                    "duration": 0.061197916666671404
                },
                {
                    "name": "A#5",
                    "midi": 82,
                    "time": 112.8125,
                    "velocity": 0.5905511811023622,
                    "duration": 0.061197916666671404
                },
                {
                    "name": "D#3",
                    "midi": 51,
                    "time": 113.125,
                    "velocity": 0.5905511811023622,
                    "duration": 0.061197916666671404
                },
                {
                    "name": "D#6",
                    "midi": 87,
                    "time": 113.125,
                    "velocity": 0.5905511811023622,
                    "duration": 0.061197916666671404
                },
                {
                    "name": "A#3",
                    "midi": 58,
                    "time": 113.4375,
                    "velocity": 0.5905511811023622,
                    "duration": 0.061197916666671404
                },
                {
                    "name": "F#6",
                    "midi": 90,
                    "time": 113.4375,
                    "velocity": 0.5905511811023622,
                    "duration": 0.061197916666671404
                },
                {
                    "name": "D4",
                    "midi": 62,
                    "time": 113.671875,
                    "velocity": 0.5905511811023622,
                    "duration": 0.078125
                },
                {
                    "name": "D#4",
                    "midi": 63,
                    "time": 113.75,
                    "velocity": 0.5905511811023622,
                    "duration": 0.061197916666671404
                },
                {
                    "name": "A3",
                    "midi": 57,
                    "time": 114.0625,
                    "velocity": 0.5905511811023622,
                    "duration": 0.061197916666671404
                },
                {
                    "name": "D#3",
                    "midi": 51,
                    "time": 114.375,
                    "velocity": 0.5905511811023622,
                    "duration": 0.061197916666671404
                },
                {
                    "name": "A2",
                    "midi": 45,
                    "time": 114.6875,
                    "velocity": 0.5905511811023622,
                    "duration": 0.061197916666671404
                },
                {
                    "name": "A3",
                    "midi": 57,
                    "time": 114.921875,
                    "velocity": 0.5905511811023622,
                    "duration": 0.078125
                },
                {
                    "name": "A#3",
                    "midi": 58,
                    "time": 115,
                    "velocity": 0.5905511811023622,
                    "duration": 0.061197916666671404
                },
                {
                    "name": "D#3",
                    "midi": 51,
                    "time": 115.3125,
                    "velocity": 0.5905511811023622,
                    "duration": 0.061197916666671404
                },
                {
                    "name": "A#2",
                    "midi": 46,
                    "time": 115.625,
                    "velocity": 0.5905511811023622,
                    "duration": 0.061197916666671404
                },
                {
                    "name": "D#2",
                    "midi": 39,
                    "time": 115.9375,
                    "velocity": 0.5905511811023622,
                    "duration": 0.061197916666671404
                },
                {
                    "name": "D3",
                    "midi": 50,
                    "time": 116.171875,
                    "velocity": 0.5905511811023622,
                    "duration": 0.078125
                },
                {
                    "name": "D#3",
                    "midi": 51,
                    "time": 116.25,
                    "velocity": 0.5905511811023622,
                    "duration": 0.061197916666671404
                },
                {
                    "name": "A#2",
                    "midi": 46,
                    "time": 116.5625,
                    "velocity": 0.5905511811023622,
                    "duration": 0.061197916666671404
                },
                {
                    "name": "D#2",
                    "midi": 39,
                    "time": 116.875,
                    "velocity": 0.5905511811023622,
                    "duration": 0.061197916666671404
                },
                {
                    "name": "A#1",
                    "midi": 34,
                    "time": 117.1875,
                    "velocity": 0.5905511811023622,
                    "duration": 0.061197916666671404
                },
                {
                    "name": "E2",
                    "midi": 40,
                    "time": 117.5,
                    "velocity": 0.5905511811023622,
                    "duration": 0.3125
                },
                {
                    "name": "B2",
                    "midi": 47,
                    "time": 117.5,
                    "velocity": 0.5905511811023622,
                    "duration": 0.3125
                },
                {
                    "name": "A3",
                    "midi": 57,
                    "time": 117.8125,
                    "velocity": 0.5905511811023622,
                    "duration": 0.3125
                },
                {
                    "name": "B3",
                    "midi": 59,
                    "time": 117.8125,
                    "velocity": 0.5905511811023622,
                    "duration": 0.3125
                },
                {
                    "name": "C#4",
                    "midi": 61,
                    "time": 117.8125,
                    "velocity": 0.5905511811023622,
                    "duration": 0.3125
                },
                {
                    "name": "E4",
                    "midi": 64,
                    "time": 117.8125,
                    "velocity": 0.5905511811023622,
                    "duration": 0.3125
                },
                {
                    "name": "E2",
                    "midi": 40,
                    "time": 118.125,
                    "velocity": 0.5905511811023622,
                    "duration": 0.3125
                },
                {
                    "name": "B2",
                    "midi": 47,
                    "time": 118.125,
                    "velocity": 0.5905511811023622,
                    "duration": 0.3125
                },
                {
                    "name": "A3",
                    "midi": 57,
                    "time": 118.4375,
                    "velocity": 0.5905511811023622,
                    "duration": 0.3125
                },
                {
                    "name": "B3",
                    "midi": 59,
                    "time": 118.4375,
                    "velocity": 0.5905511811023622,
                    "duration": 0.3125
                },
                {
                    "name": "C#4",
                    "midi": 61,
                    "time": 118.4375,
                    "velocity": 0.5905511811023622,
                    "duration": 0.3125
                },
                {
                    "name": "E4",
                    "midi": 64,
                    "time": 118.4375,
                    "velocity": 0.5905511811023622,
                    "duration": 0.3125
                },
                {
                    "name": "E2",
                    "midi": 40,
                    "time": 118.75,
                    "velocity": 0.5905511811023622,
                    "duration": 0.3125
                },
                {
                    "name": "B2",
                    "midi": 47,
                    "time": 118.75,
                    "velocity": 0.5905511811023622,
                    "duration": 0.3125
                },
                {
                    "name": "E2",
                    "midi": 40,
                    "time": 119.0625,
                    "velocity": 0.5905511811023622,
                    "duration": 0.3125
                },
                {
                    "name": "B2",
                    "midi": 47,
                    "time": 119.0625,
                    "velocity": 0.5905511811023622,
                    "duration": 0.3125
                },
                {
                    "name": "A3",
                    "midi": 57,
                    "time": 119.375,
                    "velocity": 0.5905511811023622,
                    "duration": 0.3125
                },
                {
                    "name": "B3",
                    "midi": 59,
                    "time": 119.375,
                    "velocity": 0.5905511811023622,
                    "duration": 0.3125
                },
                {
                    "name": "C#4",
                    "midi": 61,
                    "time": 119.375,
                    "velocity": 0.5905511811023622,
                    "duration": 0.3125
                },
                {
                    "name": "E4",
                    "midi": 64,
                    "time": 119.375,
                    "velocity": 0.5905511811023622,
                    "duration": 0.3125
                },
                {
                    "name": "E2",
                    "midi": 40,
                    "time": 119.6875,
                    "velocity": 0.5905511811023622,
                    "duration": 0.3125
                },
                {
                    "name": "B2",
                    "midi": 47,
                    "time": 119.6875,
                    "velocity": 0.5905511811023622,
                    "duration": 0.3125
                },
                {
                    "name": "E2",
                    "midi": 40,
                    "time": 120,
                    "velocity": 0.5905511811023622,
                    "duration": 0.3125
                },
                {
                    "name": "B2",
                    "midi": 47,
                    "time": 120,
                    "velocity": 0.5905511811023622,
                    "duration": 0.3125
                },
                {
                    "name": "A3",
                    "midi": 57,
                    "time": 120.3125,
                    "velocity": 0.5905511811023622,
                    "duration": 0.3125
                },
                {
                    "name": "B3",
                    "midi": 59,
                    "time": 120.3125,
                    "velocity": 0.5905511811023622,
                    "duration": 0.3125
                },
                {
                    "name": "C#4",
                    "midi": 61,
                    "time": 120.3125,
                    "velocity": 0.5905511811023622,
                    "duration": 0.3125
                },
                {
                    "name": "E4",
                    "midi": 64,
                    "time": 120.3125,
                    "velocity": 0.5905511811023622,
                    "duration": 0.3125
                },
                {
                    "name": "E2",
                    "midi": 40,
                    "time": 120.625,
                    "velocity": 0.5905511811023622,
                    "duration": 0.3125
                },
                {
                    "name": "B2",
                    "midi": 47,
                    "time": 120.625,
                    "velocity": 0.5905511811023622,
                    "duration": 0.3125
                },
                {
                    "name": "A3",
                    "midi": 57,
                    "time": 120.9375,
                    "velocity": 0.5905511811023622,
                    "duration": 0.3125
                },
                {
                    "name": "B3",
                    "midi": 59,
                    "time": 120.9375,
                    "velocity": 0.5905511811023622,
                    "duration": 0.3125
                },
                {
                    "name": "C#4",
                    "midi": 61,
                    "time": 120.9375,
                    "velocity": 0.5905511811023622,
                    "duration": 0.3125
                },
                {
                    "name": "E4",
                    "midi": 64,
                    "time": 120.9375,
                    "velocity": 0.5905511811023622,
                    "duration": 0.3125
                },
                {
                    "name": "E2",
                    "midi": 40,
                    "time": 121.25,
                    "velocity": 0.5905511811023622,
                    "duration": 0.3125
                },
                {
                    "name": "B2",
                    "midi": 47,
                    "time": 121.25,
                    "velocity": 0.5905511811023622,
                    "duration": 0.3125
                },
                {
                    "name": "E2",
                    "midi": 40,
                    "time": 121.5625,
                    "velocity": 0.5905511811023622,
                    "duration": 0.3125
                },
                {
                    "name": "B2",
                    "midi": 47,
                    "time": 121.5625,
                    "velocity": 0.5905511811023622,
                    "duration": 0.3125
                },
                {
                    "name": "A3",
                    "midi": 57,
                    "time": 121.875,
                    "velocity": 0.5905511811023622,
                    "duration": 0.3125
                },
                {
                    "name": "B3",
                    "midi": 59,
                    "time": 121.875,
                    "velocity": 0.5905511811023622,
                    "duration": 0.3125
                },
                {
                    "name": "C#4",
                    "midi": 61,
                    "time": 121.875,
                    "velocity": 0.5905511811023622,
                    "duration": 0.3125
                },
                {
                    "name": "E4",
                    "midi": 64,
                    "time": 121.875,
                    "velocity": 0.5905511811023622,
                    "duration": 0.3125
                },
                {
                    "name": "E2",
                    "midi": 40,
                    "time": 122.1875,
                    "velocity": 0.5905511811023622,
                    "duration": 0.3125
                },
                {
                    "name": "B2",
                    "midi": 47,
                    "time": 122.1875,
                    "velocity": 0.5905511811023622,
                    "duration": 0.3125
                },
                {
                    "name": "E2",
                    "midi": 40,
                    "time": 122.5,
                    "velocity": 0.5905511811023622,
                    "duration": 0.3125
                },
                {
                    "name": "B2",
                    "midi": 47,
                    "time": 122.5,
                    "velocity": 0.5905511811023622,
                    "duration": 0.3125
                },
                {
                    "name": "G#3",
                    "midi": 56,
                    "time": 122.8125,
                    "velocity": 0.5905511811023622,
                    "duration": 0.3125
                },
                {
                    "name": "B3",
                    "midi": 59,
                    "time": 122.8125,
                    "velocity": 0.5905511811023622,
                    "duration": 0.3125
                },
                {
                    "name": "D#4",
                    "midi": 63,
                    "time": 122.8125,
                    "velocity": 0.5905511811023622,
                    "duration": 0.3125
                },
                {
                    "name": "E4",
                    "midi": 64,
                    "time": 122.8125,
                    "velocity": 0.5905511811023622,
                    "duration": 0.3125
                },
                {
                    "name": "E2",
                    "midi": 40,
                    "time": 123.125,
                    "velocity": 0.5905511811023622,
                    "duration": 0.3125
                },
                {
                    "name": "B2",
                    "midi": 47,
                    "time": 123.125,
                    "velocity": 0.5905511811023622,
                    "duration": 0.3125
                },
                {
                    "name": "G#3",
                    "midi": 56,
                    "time": 123.4375,
                    "velocity": 0.5905511811023622,
                    "duration": 0.3125
                },
                {
                    "name": "B3",
                    "midi": 59,
                    "time": 123.4375,
                    "velocity": 0.5905511811023622,
                    "duration": 0.3125
                },
                {
                    "name": "D#4",
                    "midi": 63,
                    "time": 123.4375,
                    "velocity": 0.5905511811023622,
                    "duration": 0.3125
                },
                {
                    "name": "E4",
                    "midi": 64,
                    "time": 123.4375,
                    "velocity": 0.5905511811023622,
                    "duration": 0.3125
                },
                {
                    "name": "E2",
                    "midi": 40,
                    "time": 123.75,
                    "velocity": 0.5905511811023622,
                    "duration": 0.061197916666671404
                },
                {
                    "name": "G#4",
                    "midi": 68,
                    "time": 123.75,
                    "velocity": 0.5905511811023622,
                    "duration": 0.061197916666671404
                },
                {
                    "name": "B4",
                    "midi": 71,
                    "time": 123.75,
                    "velocity": 0.5905511811023622,
                    "duration": 0.061197916666671404
                },
                {
                    "name": "D#5",
                    "midi": 75,
                    "time": 123.75,
                    "velocity": 0.5905511811023622,
                    "duration": 0.061197916666671404
                },
                {
                    "name": "G5",
                    "midi": 79,
                    "time": 123.75,
                    "velocity": 0.5905511811023622,
                    "duration": 0.061197916666671404
                },
                {
                    "name": "B2",
                    "midi": 47,
                    "time": 124.0625,
                    "velocity": 0.5905511811023622,
                    "duration": 0.061197916666671404
                },
                {
                    "name": "B5",
                    "midi": 83,
                    "time": 124.0625,
                    "velocity": 0.5905511811023622,
                    "duration": 0.061197916666671404
                },
                {
                    "name": "E3",
                    "midi": 52,
                    "time": 124.375,
                    "velocity": 0.5905511811023622,
                    "duration": 0.061197916666671404
                },
                {
                    "name": "E6",
                    "midi": 88,
                    "time": 124.375,
                    "velocity": 0.5905511811023622,
                    "duration": 0.061197916666671404
                },
                {
                    "name": "B3",
                    "midi": 59,
                    "time": 124.6875,
                    "velocity": 0.5905511811023622,
                    "duration": 0.061197916666671404
                },
                {
                    "name": "B6",
                    "midi": 95,
                    "time": 124.6875,
                    "velocity": 0.5905511811023622,
                    "duration": 0.061197916666671404
                },
                {
                    "name": "D#4",
                    "midi": 63,
                    "time": 124.921875,
                    "velocity": 0.5905511811023622,
                    "duration": 0.078125
                },
                {
                    "name": "E4",
                    "midi": 64,
                    "time": 125,
                    "velocity": 0.5905511811023622,
                    "duration": 0.061197916666671404
                },
                {
                    "name": "B3",
                    "midi": 59,
                    "time": 125.3125,
                    "velocity": 0.5905511811023622,
                    "duration": 0.061197916666671404
                },
                {
                    "name": "E3",
                    "midi": 52,
                    "time": 125.625,
                    "velocity": 0.5905511811023622,
                    "duration": 0.061197916666671404
                },
                {
                    "name": "B2",
                    "midi": 47,
                    "time": 125.9375,
                    "velocity": 0.5905511811023622,
                    "duration": 0.061197916666671404
                },
                {
                    "name": "A#3",
                    "midi": 58,
                    "time": 126.171875,
                    "velocity": 0.5905511811023622,
                    "duration": 0.078125
                },
                {
                    "name": "B3",
                    "midi": 59,
                    "time": 126.25,
                    "velocity": 0.5905511811023622,
                    "duration": 0.061197916666671404
                },
                {
                    "name": "E3",
                    "midi": 52,
                    "time": 126.5625,
                    "velocity": 0.5905511811023622,
                    "duration": 0.061197916666671404
                },
                {
                    "name": "B2",
                    "midi": 47,
                    "time": 126.875,
                    "velocity": 0.5905511811023622,
                    "duration": 0.061197916666671404
                },
                {
                    "name": "E2",
                    "midi": 40,
                    "time": 127.1875,
                    "velocity": 0.5905511811023622,
                    "duration": 0.061197916666671404
                },
                {
                    "name": "D#3",
                    "midi": 51,
                    "time": 127.421875,
                    "velocity": 0.5905511811023622,
                    "duration": 0.078125
                },
                {
                    "name": "E3",
                    "midi": 52,
                    "time": 127.5,
                    "velocity": 0.5905511811023622,
                    "duration": 0.061197916666671404
                },
                {
                    "name": "B2",
                    "midi": 47,
                    "time": 127.8125,
                    "velocity": 0.5905511811023622,
                    "duration": 0.061197916666671404
                },
                {
                    "name": "E2",
                    "midi": 40,
                    "time": 128.125,
                    "velocity": 0.5905511811023622,
                    "duration": 0.06119791666665719
                },
                {
                    "name": "B1",
                    "midi": 35,
                    "time": 128.4375,
                    "velocity": 0.5905511811023622,
                    "duration": 0.06119791666665719
                },
                {
                    "name": "A1",
                    "midi": 33,
                    "time": 128.75,
                    "velocity": 0.5905511811023622,
                    "duration": 0.3125
                },
                {
                    "name": "E2",
                    "midi": 40,
                    "time": 128.75,
                    "velocity": 0.5905511811023622,
                    "duration": 0.3125
                },
                {
                    "name": "G#2",
                    "midi": 44,
                    "time": 131.25,
                    "velocity": 0.5905511811023622,
                    "duration": 0.3125
                },
                {
                    "name": "D#3",
                    "midi": 51,
                    "time": 131.25,
                    "velocity": 0.5905511811023622,
                    "duration": 0.3125
                },
                {
                    "name": "A#3",
                    "midi": 58,
                    "time": 131.5625,
                    "velocity": 0.5905511811023622,
                    "duration": 0.3125
                },
                {
                    "name": "C4",
                    "midi": 60,
                    "time": 131.5625,
                    "velocity": 0.5905511811023622,
                    "duration": 0.3125
                },
                {
                    "name": "D#4",
                    "midi": 63,
                    "time": 131.5625,
                    "velocity": 0.5905511811023622,
                    "duration": 0.3125
                },
                {
                    "name": "F4",
                    "midi": 65,
                    "time": 131.5625,
                    "velocity": 0.5905511811023622,
                    "duration": 0.3125
                },
                {
                    "name": "G#2",
                    "midi": 44,
                    "time": 131.875,
                    "velocity": 0.5905511811023622,
                    "duration": 0.3125
                },
                {
                    "name": "D#3",
                    "midi": 51,
                    "time": 131.875,
                    "velocity": 0.5905511811023622,
                    "duration": 0.3125
                },
                {
                    "name": "A#3",
                    "midi": 58,
                    "time": 132.1875,
                    "velocity": 0.5905511811023622,
                    "duration": 0.3125
                },
                {
                    "name": "C4",
                    "midi": 60,
                    "time": 132.1875,
                    "velocity": 0.5905511811023622,
                    "duration": 0.3125
                },
                {
                    "name": "D#4",
                    "midi": 63,
                    "time": 132.1875,
                    "velocity": 0.5905511811023622,
                    "duration": 0.3125
                },
                {
                    "name": "F4",
                    "midi": 65,
                    "time": 132.1875,
                    "velocity": 0.5905511811023622,
                    "duration": 0.3125
                },
                {
                    "name": "G#2",
                    "midi": 44,
                    "time": 132.5,
                    "velocity": 0.5905511811023622,
                    "duration": 0.3125
                },
                {
                    "name": "D#3",
                    "midi": 51,
                    "time": 132.5,
                    "velocity": 0.5905511811023622,
                    "duration": 0.3125
                },
                {
                    "name": "G#2",
                    "midi": 44,
                    "time": 132.8125,
                    "velocity": 0.5905511811023622,
                    "duration": 0.3125
                },
                {
                    "name": "D#3",
                    "midi": 51,
                    "time": 132.8125,
                    "velocity": 0.5905511811023622,
                    "duration": 0.3125
                },
                {
                    "name": "A#3",
                    "midi": 58,
                    "time": 133.125,
                    "velocity": 0.5905511811023622,
                    "duration": 0.3125
                },
                {
                    "name": "C4",
                    "midi": 60,
                    "time": 133.125,
                    "velocity": 0.5905511811023622,
                    "duration": 0.3125
                },
                {
                    "name": "D#4",
                    "midi": 63,
                    "time": 133.125,
                    "velocity": 0.5905511811023622,
                    "duration": 0.3125
                },
                {
                    "name": "F4",
                    "midi": 65,
                    "time": 133.125,
                    "velocity": 0.5905511811023622,
                    "duration": 0.3125
                },
                {
                    "name": "G#2",
                    "midi": 44,
                    "time": 133.4375,
                    "velocity": 0.5905511811023622,
                    "duration": 0.3125
                },
                {
                    "name": "D#3",
                    "midi": 51,
                    "time": 133.4375,
                    "velocity": 0.5905511811023622,
                    "duration": 0.3125
                },
                {
                    "name": "G#4",
                    "midi": 68,
                    "time": 136.5625,
                    "velocity": 0.5905511811023622,
                    "duration": 0.3125
                },
                {
                    "name": "D#4",
                    "midi": 63,
                    "time": 136.875,
                    "velocity": 0.5905511811023622,
                    "duration": 0.3125
                },
                {
                    "name": "F#4",
                    "midi": 66,
                    "time": 137.1875,
                    "velocity": 0.5905511811023622,
                    "duration": 0.06119791666665719
                },
                {
                    "name": "C#4",
                    "midi": 61,
                    "time": 137.5,
                    "velocity": 0.5905511811023622,
                    "duration": 0.06119791666665719
                },
                {
                    "name": "E4",
                    "midi": 64,
                    "time": 137.8125,
                    "velocity": 0.5905511811023622,
                    "duration": 0.06119791666665719
                },
                {
                    "name": "B3",
                    "midi": 59,
                    "time": 138.125,
                    "velocity": 0.5905511811023622,
                    "duration": 0.06119791666665719
                },
                {
                    "name": "D#4",
                    "midi": 63,
                    "time": 138.4375,
                    "velocity": 0.7952755905511811,
                    "duration": 0.3125
                },
                {
                    "name": "A3",
                    "midi": 57,
                    "time": 138.75,
                    "velocity": 0.5905511811023622,
                    "duration": 0.3125
                },
                {
                    "name": "C#4",
                    "midi": 61,
                    "time": 139.0625,
                    "velocity": 0.5905511811023622,
                    "duration": 0.06119791666665719
                },
                {
                    "name": "G#3",
                    "midi": 56,
                    "time": 139.375,
                    "velocity": 0.5905511811023622,
                    "duration": 0.06119791666665719
                },
                {
                    "name": "B3",
                    "midi": 59,
                    "time": 139.6875,
                    "velocity": 0.5905511811023622,
                    "duration": 0.06119791666665719
                },
                {
                    "name": "F#3",
                    "midi": 54,
                    "time": 140,
                    "velocity": 0.5905511811023622,
                    "duration": 0.06119791666665719
                },
                {
                    "name": "A3",
                    "midi": 57,
                    "time": 140.3125,
                    "velocity": 0.7952755905511811,
                    "duration": 0.3125
                },
                {
                    "name": "E3",
                    "midi": 52,
                    "time": 140.625,
                    "velocity": 0.5905511811023622,
                    "duration": 0.3125
                },
                {
                    "name": "G#3",
                    "midi": 56,
                    "time": 140.9375,
                    "velocity": 0.5905511811023622,
                    "duration": 0.06119791666665719
                },
                {
                    "name": "D#3",
                    "midi": 51,
                    "time": 141.25,
                    "velocity": 0.5905511811023622,
                    "duration": 0.06119791666665719
                },
                {
                    "name": "F#3",
                    "midi": 54,
                    "time": 141.5625,
                    "velocity": 0.5905511811023622,
                    "duration": 0.06119791666665719
                },
                {
                    "name": "C#3",
                    "midi": 49,
                    "time": 141.875,
                    "velocity": 0.5905511811023622,
                    "duration": 0.06119791666665719
                },
                {
                    "name": "E3",
                    "midi": 52,
                    "time": 142.1875,
                    "velocity": 0.7952755905511811,
                    "duration": 0.3125
                },
                {
                    "name": "B2",
                    "midi": 47,
                    "time": 142.5,
                    "velocity": 0.5905511811023622,
                    "duration": 0.3125
                },
                {
                    "name": "D#3",
                    "midi": 51,
                    "time": 142.8125,
                    "velocity": 0.5905511811023622,
                    "duration": 0.06119791666665719
                },
                {
                    "name": "F#2",
                    "midi": 42,
                    "time": 143.125,
                    "velocity": 0.4881889763779528,
                    "duration": 0.625
                },
                {
                    "name": "C#3",
                    "midi": 49,
                    "time": 143.125,
                    "velocity": 0.4881889763779528,
                    "duration": 0.625
                },
                {
                    "name": "D#3",
                    "midi": 51,
                    "time": 143.125,
                    "velocity": 0.4881889763779528,
                    "duration": 0.625
                },
                {
                    "name": "F#3",
                    "midi": 54,
                    "time": 143.125,
                    "velocity": 0.4881889763779528,
                    "duration": 0.625
                },
                {
                    "name": "A3",
                    "midi": 57,
                    "time": 143.125,
                    "velocity": 0.4881889763779528,
                    "duration": 0.625
                },
                {
                    "name": "C#4",
                    "midi": 61,
                    "time": 143.125,
                    "velocity": 0.4881889763779528,
                    "duration": 0.625
                },
                {
                    "name": "E2",
                    "midi": 40,
                    "time": 143.75,
                    "velocity": 0.4881889763779528,
                    "duration": 0.625
                },
                {
                    "name": "B2",
                    "midi": 47,
                    "time": 143.75,
                    "velocity": 0.4881889763779528,
                    "duration": 0.625
                },
                {
                    "name": "E3",
                    "midi": 52,
                    "time": 143.75,
                    "velocity": 0.4881889763779528,
                    "duration": 0.625
                },
                {
                    "name": "G#3",
                    "midi": 56,
                    "time": 143.75,
                    "velocity": 0.4881889763779528,
                    "duration": 0.625
                },
                {
                    "name": "B3",
                    "midi": 59,
                    "time": 143.75,
                    "velocity": 0.4881889763779528,
                    "duration": 0.625
                },
                {
                    "name": "D#4",
                    "midi": 63,
                    "time": 143.75,
                    "velocity": 0.4881889763779528,
                    "duration": 0.625
                },
                {
                    "name": "F#2",
                    "midi": 42,
                    "time": 144.375,
                    "velocity": 0.4881889763779528,
                    "duration": 0.625
                },
                {
                    "name": "C#3",
                    "midi": 49,
                    "time": 144.375,
                    "velocity": 0.4881889763779528,
                    "duration": 0.625
                },
                {
                    "name": "D#3",
                    "midi": 51,
                    "time": 144.375,
                    "velocity": 0.4881889763779528,
                    "duration": 0.625
                },
                {
                    "name": "F#3",
                    "midi": 54,
                    "time": 144.375,
                    "velocity": 0.4881889763779528,
                    "duration": 0.625
                },
                {
                    "name": "A3",
                    "midi": 57,
                    "time": 144.375,
                    "velocity": 0.4881889763779528,
                    "duration": 0.625
                },
                {
                    "name": "C#4",
                    "midi": 61,
                    "time": 144.375,
                    "velocity": 0.4881889763779528,
                    "duration": 0.625
                },
                {
                    "name": "E2",
                    "midi": 40,
                    "time": 145,
                    "velocity": 0.4881889763779528,
                    "duration": 0.625
                },
                {
                    "name": "B2",
                    "midi": 47,
                    "time": 145,
                    "velocity": 0.4881889763779528,
                    "duration": 0.625
                },
                {
                    "name": "E3",
                    "midi": 52,
                    "time": 145,
                    "velocity": 0.4881889763779528,
                    "duration": 0.625
                },
                {
                    "name": "G#3",
                    "midi": 56,
                    "time": 145,
                    "velocity": 0.4881889763779528,
                    "duration": 0.625
                },
                {
                    "name": "B3",
                    "midi": 59,
                    "time": 145,
                    "velocity": 0.4881889763779528,
                    "duration": 0.625
                },
                {
                    "name": "D#4",
                    "midi": 63,
                    "time": 145,
                    "velocity": 0.4881889763779528,
                    "duration": 0.625
                },
                {
                    "name": "A2",
                    "midi": 45,
                    "time": 145.625,
                    "velocity": 0.4881889763779528,
                    "duration": 0.625
                },
                {
                    "name": "E3",
                    "midi": 52,
                    "time": 145.625,
                    "velocity": 0.4881889763779528,
                    "duration": 0.625
                },
                {
                    "name": "F#3",
                    "midi": 54,
                    "time": 145.625,
                    "velocity": 0.4881889763779528,
                    "duration": 0.625
                },
                {
                    "name": "A3",
                    "midi": 57,
                    "time": 145.625,
                    "velocity": 0.4881889763779528,
                    "duration": 0.625
                },
                {
                    "name": "C#4",
                    "midi": 61,
                    "time": 145.625,
                    "velocity": 0.4881889763779528,
                    "duration": 0.625
                },
                {
                    "name": "E4",
                    "midi": 64,
                    "time": 145.625,
                    "velocity": 0.4881889763779528,
                    "duration": 0.625
                },
                {
                    "name": "G#2",
                    "midi": 44,
                    "time": 146.25,
                    "velocity": 0.4881889763779528,
                    "duration": 0.625
                },
                {
                    "name": "D#3",
                    "midi": 51,
                    "time": 146.25,
                    "velocity": 0.4881889763779528,
                    "duration": 0.625
                },
                {
                    "name": "G#3",
                    "midi": 56,
                    "time": 146.25,
                    "velocity": 0.4881889763779528,
                    "duration": 0.625
                },
                {
                    "name": "B3",
                    "midi": 59,
                    "time": 146.25,
                    "velocity": 0.4881889763779528,
                    "duration": 0.625
                },
                {
                    "name": "D#4",
                    "midi": 63,
                    "time": 146.25,
                    "velocity": 0.4881889763779528,
                    "duration": 0.625
                },
                {
                    "name": "F#4",
                    "midi": 66,
                    "time": 146.25,
                    "velocity": 0.4881889763779528,
                    "duration": 0.625
                },
                {
                    "name": "F#2",
                    "midi": 42,
                    "time": 146.875,
                    "velocity": 0.4881889763779528,
                    "duration": 0.625
                },
                {
                    "name": "C#3",
                    "midi": 49,
                    "time": 146.875,
                    "velocity": 0.4881889763779528,
                    "duration": 0.625
                },
                {
                    "name": "D#3",
                    "midi": 51,
                    "time": 146.875,
                    "velocity": 0.4881889763779528,
                    "duration": 0.625
                },
                {
                    "name": "F#3",
                    "midi": 54,
                    "time": 146.875,
                    "velocity": 0.4881889763779528,
                    "duration": 0.625
                },
                {
                    "name": "A3",
                    "midi": 57,
                    "time": 146.875,
                    "velocity": 0.4881889763779528,
                    "duration": 0.625
                },
                {
                    "name": "C#4",
                    "midi": 61,
                    "time": 146.875,
                    "velocity": 0.4881889763779528,
                    "duration": 0.625
                },
                {
                    "name": "E2",
                    "midi": 40,
                    "time": 147.5,
                    "velocity": 0.4881889763779528,
                    "duration": 0.625
                },
                {
                    "name": "B2",
                    "midi": 47,
                    "time": 147.5,
                    "velocity": 0.4881889763779528,
                    "duration": 0.625
                },
                {
                    "name": "E3",
                    "midi": 52,
                    "time": 147.5,
                    "velocity": 0.4881889763779528,
                    "duration": 0.625
                },
                {
                    "name": "G#3",
                    "midi": 56,
                    "time": 147.5,
                    "velocity": 0.4881889763779528,
                    "duration": 0.625
                },
                {
                    "name": "B3",
                    "midi": 59,
                    "time": 147.5,
                    "velocity": 0.4881889763779528,
                    "duration": 0.625
                },
                {
                    "name": "D#4",
                    "midi": 63,
                    "time": 147.5,
                    "velocity": 0.4881889763779528,
                    "duration": 0.625
                },
                {
                    "name": "A2",
                    "midi": 45,
                    "time": 148.125,
                    "velocity": 0.4881889763779528,
                    "duration": 0.625
                },
                {
                    "name": "E3",
                    "midi": 52,
                    "time": 148.125,
                    "velocity": 0.4881889763779528,
                    "duration": 0.625
                },
                {
                    "name": "A3",
                    "midi": 57,
                    "time": 148.125,
                    "velocity": 0.4881889763779528,
                    "duration": 0.625
                },
                {
                    "name": "F#2",
                    "midi": 42,
                    "time": 148.75,
                    "velocity": 0.4881889763779528,
                    "duration": 0.625
                },
                {
                    "name": "D#3",
                    "midi": 51,
                    "time": 148.75,
                    "velocity": 0.4881889763779528,
                    "duration": 0.625
                },
                {
                    "name": "G#3",
                    "midi": 56,
                    "time": 148.75,
                    "velocity": 0.4881889763779528,
                    "duration": 0.625
                },
                {
                    "name": "F#2",
                    "midi": 42,
                    "time": 149.375,
                    "velocity": 0.4881889763779528,
                    "duration": 0.625
                },
                {
                    "name": "C#3",
                    "midi": 49,
                    "time": 149.375,
                    "velocity": 0.4881889763779528,
                    "duration": 0.625
                },
                {
                    "name": "C#3",
                    "midi": 49,
                    "time": 150,
                    "velocity": 0.4881889763779528,
                    "duration": 0.625
                },
                {
                    "name": "E3",
                    "midi": 52,
                    "time": 150,
                    "velocity": 0.4881889763779528,
                    "duration": 0.625
                },
                {
                    "name": "B2",
                    "midi": 47,
                    "time": 150.625,
                    "velocity": 0.4881889763779528,
                    "duration": 0.625
                },
                {
                    "name": "F#3",
                    "midi": 54,
                    "time": 150.625,
                    "velocity": 0.4881889763779528,
                    "duration": 0.625
                },
                {
                    "name": "B3",
                    "midi": 59,
                    "time": 150.625,
                    "velocity": 0.4881889763779528,
                    "duration": 1.25
                },
                {
                    "name": "A2",
                    "midi": 45,
                    "time": 151.25,
                    "velocity": 0.4881889763779528,
                    "duration": 0.625
                },
                {
                    "name": "E3",
                    "midi": 52,
                    "time": 151.25,
                    "velocity": 0.4881889763779528,
                    "duration": 0.625
                },
                {
                    "name": "G#2",
                    "midi": 44,
                    "time": 151.875,
                    "velocity": 0.4881889763779528,
                    "duration": 0.625
                },
                {
                    "name": "D#3",
                    "midi": 51,
                    "time": 151.875,
                    "velocity": 0.4881889763779528,
                    "duration": 0.625
                },
                {
                    "name": "F#2",
                    "midi": 42,
                    "time": 152.5,
                    "velocity": 0.4881889763779528,
                    "duration": 0.625
                },
                {
                    "name": "C#3",
                    "midi": 49,
                    "time": 152.5,
                    "velocity": 0.4881889763779528,
                    "duration": 0.625
                },
                {
                    "name": "C#2",
                    "midi": 37,
                    "time": 153.125,
                    "velocity": 0.4881889763779528,
                    "duration": 0.625
                },
                {
                    "name": "G#2",
                    "midi": 44,
                    "time": 153.125,
                    "velocity": 0.4881889763779528,
                    "duration": 0.625
                },
                {
                    "name": "F#2",
                    "midi": 42,
                    "time": 153.75,
                    "velocity": 0.4881889763779528,
                    "duration": 0.6250000000000284
                },
                {
                    "name": "C#3",
                    "midi": 49,
                    "time": 153.75,
                    "velocity": 0.4881889763779528,
                    "duration": 0.6250000000000284
                },
                {
                    "name": "G#2",
                    "midi": 44,
                    "time": 154.27083333333334,
                    "velocity": 0.4881889763779528,
                    "duration": 0.7291666666666856
                },
                {
                    "name": "D#3",
                    "midi": 51,
                    "time": 154.32291666666669,
                    "velocity": 0.4881889763779528,
                    "duration": 0.6770833333333428
                },
                {
                    "name": "B3",
                    "midi": 59,
                    "time": 154.37500000000003,
                    "velocity": 0.4881889763779528,
                    "duration": 1.875
                },
                {
                    "name": "A2",
                    "midi": 45,
                    "time": 155.00000000000003,
                    "velocity": 0.4881889763779528,
                    "duration": 0.625
                },
                {
                    "name": "E3",
                    "midi": 52,
                    "time": 155.00000000000003,
                    "velocity": 0.4881889763779528,
                    "duration": 0.625
                },
                {
                    "name": "C#3",
                    "midi": 49,
                    "time": 155.62500000000003,
                    "velocity": 0.4881889763779528,
                    "duration": 0.625
                },
                {
                    "name": "G#3",
                    "midi": 56,
                    "time": 155.62500000000003,
                    "velocity": 0.4881889763779528,
                    "duration": 0.625
                },
                {
                    "name": "C4",
                    "midi": 60,
                    "time": 156.25000000000003,
                    "velocity": 0.8976377952755905,
                    "duration": 0.3125
                },
                {
                    "name": "C4",
                    "midi": 60,
                    "time": 156.56250000000003,
                    "velocity": 0.6929133858267716,
                    "duration": 0.029947916666657193
                },
                {
                    "name": "C4",
                    "midi": 60,
                    "time": 156.71875000000003,
                    "velocity": 0.6929133858267716,
                    "duration": 0.029947916666657193
                },
                {
                    "name": "C4",
                    "midi": 60,
                    "time": 156.87500000000003,
                    "velocity": 0.6929133858267716,
                    "duration": 0.029947916666657193
                },
                {
                    "name": "C4",
                    "midi": 60,
                    "time": 157.03125000000003,
                    "velocity": 0.6929133858267716,
                    "duration": 0.029947916666657193
                },
                {
                    "name": "E4",
                    "midi": 64,
                    "time": 157.18750000000003,
                    "velocity": 0.8976377952755905,
                    "duration": 0.06119791666665719
                },
                {
                    "name": "D#4",
                    "midi": 63,
                    "time": 157.50000000000003,
                    "velocity": 0.8976377952755905,
                    "duration": 0.3125
                },
                {
                    "name": "D#4",
                    "midi": 63,
                    "time": 157.81250000000003,
                    "velocity": 0.6929133858267716,
                    "duration": 0.029947916666657193
                },
                {
                    "name": "D#4",
                    "midi": 63,
                    "time": 157.96875000000003,
                    "velocity": 0.6929133858267716,
                    "duration": 0.029947916666657193
                },
                {
                    "name": "D#4",
                    "midi": 63,
                    "time": 158.12500000000003,
                    "velocity": 0.6929133858267716,
                    "duration": 0.029947916666657193
                },
                {
                    "name": "D#4",
                    "midi": 63,
                    "time": 158.28125000000003,
                    "velocity": 0.6929133858267716,
                    "duration": 0.029947916666657193
                },
                {
                    "name": "G4",
                    "midi": 67,
                    "time": 158.43750000000003,
                    "velocity": 0.6929133858267716,
                    "duration": 0.029947916666657193
                },
                {
                    "name": "C#4",
                    "midi": 61,
                    "time": 158.59375000000003,
                    "velocity": 0.6929133858267716,
                    "duration": 0.029947916666657193
                },
                {
                    "name": "E4",
                    "midi": 64,
                    "time": 158.75000000000003,
                    "velocity": 0.8976377952755905,
                    "duration": 0.3125
                },
                {
                    "name": "E4",
                    "midi": 64,
                    "time": 159.06250000000003,
                    "velocity": 0.6929133858267716,
                    "duration": 0.029947916666657193
                },
                {
                    "name": "E4",
                    "midi": 64,
                    "time": 159.21875000000003,
                    "velocity": 0.6929133858267716,
                    "duration": 0.029947916666657193
                },
                {
                    "name": "E4",
                    "midi": 64,
                    "time": 159.37500000000003,
                    "velocity": 0.6929133858267716,
                    "duration": 0.029947916666657193
                },
                {
                    "name": "E4",
                    "midi": 64,
                    "time": 159.53125000000003,
                    "velocity": 0.6929133858267716,
                    "duration": 0.029947916666657193
                },
                {
                    "name": "G#4",
                    "midi": 68,
                    "time": 159.68750000000003,
                    "velocity": 0.8976377952755905,
                    "duration": 0.06119791666665719
                },
                {
                    "name": "B3",
                    "midi": 59,
                    "time": 160.00000000000003,
                    "velocity": 0.8976377952755905,
                    "duration": 1.25
                },
                {
                    "name": "E4",
                    "midi": 64,
                    "time": 161.87500000000003,
                    "velocity": 0.8976377952755905,
                    "duration": 0.3125
                },
                {
                    "name": "E4",
                    "midi": 64,
                    "time": 162.18750000000003,
                    "velocity": 0.6929133858267716,
                    "duration": 0.029947916666657193
                },
                {
                    "name": "E4",
                    "midi": 64,
                    "time": 162.34375000000003,
                    "velocity": 0.6929133858267716,
                    "duration": 0.029947916666657193
                },
                {
                    "name": "E4",
                    "midi": 64,
                    "time": 162.50000000000003,
                    "velocity": 0.6929133858267716,
                    "duration": 0.029947916666657193
                },
                {
                    "name": "E4",
                    "midi": 64,
                    "time": 162.65625000000003,
                    "velocity": 0.6929133858267716,
                    "duration": 0.029947916666657193
                },
                {
                    "name": "G#4",
                    "midi": 68,
                    "time": 162.81250000000003,
                    "velocity": 0.8976377952755905,
                    "duration": 0.3125
                },
                {
                    "name": "G4",
                    "midi": 67,
                    "time": 163.12500000000003,
                    "velocity": 0.8976377952755905,
                    "duration": 0.3125
                },
                {
                    "name": "G4",
                    "midi": 67,
                    "time": 163.43750000000003,
                    "velocity": 0.6929133858267716,
                    "duration": 0.029947916666657193
                },
                {
                    "name": "G4",
                    "midi": 67,
                    "time": 163.59375000000003,
                    "velocity": 0.6929133858267716,
                    "duration": 0.029947916666657193
                },
                {
                    "name": "G4",
                    "midi": 67,
                    "time": 163.75000000000003,
                    "velocity": 0.6929133858267716,
                    "duration": 0.029947916666657193
                },
                {
                    "name": "G4",
                    "midi": 67,
                    "time": 163.90625000000003,
                    "velocity": 0.6929133858267716,
                    "duration": 0.029947916666657193
                },
                {
                    "name": "B4",
                    "midi": 71,
                    "time": 164.06250000000003,
                    "velocity": 0.6929133858267716,
                    "duration": 0.029947916666657193
                },
                {
                    "name": "F4",
                    "midi": 65,
                    "time": 164.21875000000003,
                    "velocity": 0.6929133858267716,
                    "duration": 0.029947916666657193
                },
                {
                    "name": "G#4",
                    "midi": 68,
                    "time": 164.37500000000003,
                    "velocity": 0.8976377952755905,
                    "duration": 0.3125
                },
                {
                    "name": "G#4",
                    "midi": 68,
                    "time": 164.68750000000003,
                    "velocity": 0.6929133858267716,
                    "duration": 0.029947916666657193
                },
                {
                    "name": "G#4",
                    "midi": 68,
                    "time": 164.84375000000003,
                    "velocity": 0.6929133858267716,
                    "duration": 0.029947916666657193
                },
                {
                    "name": "G#4",
                    "midi": 68,
                    "time": 165.00000000000003,
                    "velocity": 0.6929133858267716,
                    "duration": 0.029947916666657193
                },
                {
                    "name": "G#4",
                    "midi": 68,
                    "time": 165.15625000000003,
                    "velocity": 0.6929133858267716,
                    "duration": 0.029947916666657193
                },
                {
                    "name": "C5",
                    "midi": 72,
                    "time": 165.31250000000003,
                    "velocity": 0.8976377952755905,
                    "duration": 0.3125
                },
                {
                    "name": "D#4",
                    "midi": 63,
                    "time": 165.62500000000003,
                    "velocity": 0.8976377952755905,
                    "duration": 1.875
                },
                {
                    "name": "G#4",
                    "midi": 68,
                    "time": 167.50000000000003,
                    "velocity": 0.8976377952755905,
                    "duration": 0.3125
                },
                {
                    "name": "A#4",
                    "midi": 70,
                    "time": 167.81250000000003,
                    "velocity": 0.8976377952755905,
                    "duration": 0.3125
                },
                {
                    "name": "C5",
                    "midi": 72,
                    "time": 168.12500000000003,
                    "velocity": 0.8976377952755905,
                    "duration": 0.3125
                },
                {
                    "name": "C#5",
                    "midi": 73,
                    "time": 168.43750000000003,
                    "velocity": 0.8976377952755905,
                    "duration": 0.3125
                },
                {
                    "name": "D#5",
                    "midi": 75,
                    "time": 168.75000000000003,
                    "velocity": 0.8976377952755905,
                    "duration": 0.3125
                },
                {
                    "name": "C#5",
                    "midi": 73,
                    "time": 169.06250000000003,
                    "velocity": 0.8976377952755905,
                    "duration": 0.3125
                },
                {
                    "name": "C5",
                    "midi": 72,
                    "time": 169.37500000000003,
                    "velocity": 0.8976377952755905,
                    "duration": 0.3125
                },
                {
                    "name": "A#4",
                    "midi": 70,
                    "time": 169.68750000000003,
                    "velocity": 0.8976377952755905,
                    "duration": 0.3125
                },
                {
                    "name": "G#4",
                    "midi": 68,
                    "time": 170.00000000000003,
                    "velocity": 0.8976377952755905,
                    "duration": 0.3125
                },
                {
                    "name": "A#4",
                    "midi": 70,
                    "time": 170.31250000000003,
                    "velocity": 0.8976377952755905,
                    "duration": 0.3125
                },
                {
                    "name": "C5",
                    "midi": 72,
                    "time": 170.62500000000003,
                    "velocity": 0.8976377952755905,
                    "duration": 0.3125
                },
                {
                    "name": "C#5",
                    "midi": 73,
                    "time": 170.93750000000003,
                    "velocity": 0.8976377952755905,
                    "duration": 0.3125
                },
                {
                    "name": "E5",
                    "midi": 76,
                    "time": 171.25000000000003,
                    "velocity": 0.8976377952755905,
                    "duration": 0.3125
                },
                {
                    "name": "D5",
                    "midi": 74,
                    "time": 171.56250000000003,
                    "velocity": 0.8976377952755905,
                    "duration": 0.3125
                },
                {
                    "name": "C#5",
                    "midi": 73,
                    "time": 171.87500000000003,
                    "velocity": 0.8976377952755905,
                    "duration": 0.3125
                },
                {
                    "name": "B4",
                    "midi": 71,
                    "time": 172.18750000000003,
                    "velocity": 0.8976377952755905,
                    "duration": 0.3125
                },
                {
                    "name": "A4",
                    "midi": 69,
                    "time": 172.50000000000003,
                    "velocity": 0.8976377952755905,
                    "duration": 0.3125
                },
                {
                    "name": "B4",
                    "midi": 71,
                    "time": 172.81250000000003,
                    "velocity": 0.8976377952755905,
                    "duration": 0.3125
                },
                {
                    "name": "C#5",
                    "midi": 73,
                    "time": 173.12500000000003,
                    "velocity": 0.8976377952755905,
                    "duration": 0.3125
                },
                {
                    "name": "D5",
                    "midi": 74,
                    "time": 173.43750000000003,
                    "velocity": 0.8976377952755905,
                    "duration": 0.3125
                },
                {
                    "name": "E5",
                    "midi": 76,
                    "time": 173.75000000000003,
                    "velocity": 0.8976377952755905,
                    "duration": 0.15625
                },
                {
                    "name": "D5",
                    "midi": 74,
                    "time": 173.90625000000003,
                    "velocity": 0.8976377952755905,
                    "duration": 0.15625
                },
                {
                    "name": "C#5",
                    "midi": 73,
                    "time": 174.06250000000003,
                    "velocity": 0.8976377952755905,
                    "duration": 0.3125
                },
                {
                    "name": "C5",
                    "midi": 72,
                    "time": 174.37500000000003,
                    "velocity": 0.8976377952755905,
                    "duration": 0.3125
                },
                {
                    "name": "A#4",
                    "midi": 70,
                    "time": 174.68750000000003,
                    "velocity": 0.8976377952755905,
                    "duration": 0.3125
                },
                {
                    "name": "G3",
                    "midi": 55,
                    "time": 184.37500000000003,
                    "velocity": 0.6929133858267716,
                    "duration": 0.15625
                },
                {
                    "name": "D#3",
                    "midi": 51,
                    "time": 184.53125000000003,
                    "velocity": 0.6929133858267716,
                    "duration": 0.15625
                },
                {
                    "name": "C3",
                    "midi": 48,
                    "time": 184.68750000000003,
                    "velocity": 0.6929133858267716,
                    "duration": 0.15625
                },
                {
                    "name": "D#3",
                    "midi": 51,
                    "time": 184.84375000000003,
                    "velocity": 0.6929133858267716,
                    "duration": 0.15625
                },
                {
                    "name": "G#2",
                    "midi": 44,
                    "time": 185.00000000000003,
                    "velocity": 0.6929133858267716,
                    "duration": 0.3125
                },
                {
                    "name": "G#3",
                    "midi": 56,
                    "time": 185.00000000000003,
                    "velocity": 0.6929133858267716,
                    "duration": 0.3125
                },
                {
                    "name": "A#1",
                    "midi": 34,
                    "time": 185.31250000000003,
                    "velocity": 0.6929133858267716,
                    "duration": 0.3125
                },
                {
                    "name": "A#2",
                    "midi": 46,
                    "time": 185.31250000000003,
                    "velocity": 0.6929133858267716,
                    "duration": 0.3125
                },
                {
                    "name": "C2",
                    "midi": 36,
                    "time": 185.62500000000003,
                    "velocity": 0.6929133858267716,
                    "duration": 0.3125
                },
                {
                    "name": "C3",
                    "midi": 48,
                    "time": 185.62500000000003,
                    "velocity": 0.6929133858267716,
                    "duration": 0.3125
                },
                {
                    "name": "D#2",
                    "midi": 39,
                    "time": 185.93750000000003,
                    "velocity": 0.6929133858267716,
                    "duration": 0.15625
                },
                {
                    "name": "D#3",
                    "midi": 51,
                    "time": 185.93750000000003,
                    "velocity": 0.6929133858267716,
                    "duration": 0.15625
                },
                {
                    "name": "F2",
                    "midi": 41,
                    "time": 186.09375000000003,
                    "velocity": 0.6929133858267716,
                    "duration": 0.078125
                },
                {
                    "name": "F3",
                    "midi": 53,
                    "time": 186.09375000000003,
                    "velocity": 0.6929133858267716,
                    "duration": 0.078125
                },
                {
                    "name": "F#2",
                    "midi": 42,
                    "time": 186.17187500000003,
                    "velocity": 0.6929133858267716,
                    "duration": 0.078125
                },
                {
                    "name": "F#3",
                    "midi": 54,
                    "time": 186.17187500000003,
                    "velocity": 0.6929133858267716,
                    "duration": 0.078125
                },
                {
                    "name": "G#2",
                    "midi": 44,
                    "time": 186.25000000000003,
                    "velocity": 0.6929133858267716,
                    "duration": 0.3125
                },
                {
                    "name": "G#3",
                    "midi": 56,
                    "time": 186.25000000000003,
                    "velocity": 0.6929133858267716,
                    "duration": 0.3125
                },
                {
                    "name": "A#1",
                    "midi": 34,
                    "time": 186.56250000000003,
                    "velocity": 0.6929133858267716,
                    "duration": 0.3125
                },
                {
                    "name": "A#2",
                    "midi": 46,
                    "time": 186.56250000000003,
                    "velocity": 0.6929133858267716,
                    "duration": 0.3125
                },
                {
                    "name": "C2",
                    "midi": 36,
                    "time": 186.87500000000003,
                    "velocity": 0.6929133858267716,
                    "duration": 0.3125
                },
                {
                    "name": "C3",
                    "midi": 48,
                    "time": 186.87500000000003,
                    "velocity": 0.6929133858267716,
                    "duration": 0.3125
                },
                {
                    "name": "D#2",
                    "midi": 39,
                    "time": 187.18750000000003,
                    "velocity": 0.6929133858267716,
                    "duration": 0.15625
                },
                {
                    "name": "D#3",
                    "midi": 51,
                    "time": 187.18750000000003,
                    "velocity": 0.6929133858267716,
                    "duration": 0.15625
                },
                {
                    "name": "F2",
                    "midi": 41,
                    "time": 187.34375000000003,
                    "velocity": 0.6929133858267716,
                    "duration": 0.078125
                },
                {
                    "name": "F3",
                    "midi": 53,
                    "time": 187.34375000000003,
                    "velocity": 0.6929133858267716,
                    "duration": 0.078125
                },
                {
                    "name": "F#2",
                    "midi": 42,
                    "time": 187.42187500000003,
                    "velocity": 0.6929133858267716,
                    "duration": 0.078125
                },
                {
                    "name": "F#3",
                    "midi": 54,
                    "time": 187.42187500000003,
                    "velocity": 0.6929133858267716,
                    "duration": 0.078125
                },
                {
                    "name": "G#2",
                    "midi": 44,
                    "time": 187.50000000000003,
                    "velocity": 0.6929133858267716,
                    "duration": 0.3125
                },
                {
                    "name": "G#3",
                    "midi": 56,
                    "time": 187.50000000000003,
                    "velocity": 0.6929133858267716,
                    "duration": 0.3125
                },
                {
                    "name": "A#1",
                    "midi": 34,
                    "time": 187.81250000000003,
                    "velocity": 0.6929133858267716,
                    "duration": 0.3125
                },
                {
                    "name": "A#2",
                    "midi": 46,
                    "time": 187.81250000000003,
                    "velocity": 0.6929133858267716,
                    "duration": 0.3125
                },
                {
                    "name": "C2",
                    "midi": 36,
                    "time": 188.12500000000003,
                    "velocity": 0.6929133858267716,
                    "duration": 0.3125
                },
                {
                    "name": "C3",
                    "midi": 48,
                    "time": 188.12500000000003,
                    "velocity": 0.6929133858267716,
                    "duration": 0.3125
                },
                {
                    "name": "D#2",
                    "midi": 39,
                    "time": 188.43750000000003,
                    "velocity": 0.6929133858267716,
                    "duration": 0.15625
                },
                {
                    "name": "D#3",
                    "midi": 51,
                    "time": 188.43750000000003,
                    "velocity": 0.6929133858267716,
                    "duration": 0.15625
                },
                {
                    "name": "F2",
                    "midi": 41,
                    "time": 188.59375000000003,
                    "velocity": 0.6929133858267716,
                    "duration": 0.078125
                },
                {
                    "name": "F3",
                    "midi": 53,
                    "time": 188.59375000000003,
                    "velocity": 0.6929133858267716,
                    "duration": 0.078125
                },
                {
                    "name": "F#2",
                    "midi": 42,
                    "time": 188.67187500000003,
                    "velocity": 0.6929133858267716,
                    "duration": 0.078125
                },
                {
                    "name": "F#3",
                    "midi": 54,
                    "time": 188.67187500000003,
                    "velocity": 0.6929133858267716,
                    "duration": 0.078125
                },
                {
                    "name": "G#2",
                    "midi": 44,
                    "time": 188.75000000000003,
                    "velocity": 0.6929133858267716,
                    "duration": 0.3125
                },
                {
                    "name": "G#3",
                    "midi": 56,
                    "time": 188.75000000000003,
                    "velocity": 0.6929133858267716,
                    "duration": 0.3125
                },
                {
                    "name": "A#1",
                    "midi": 34,
                    "time": 189.06250000000003,
                    "velocity": 0.6929133858267716,
                    "duration": 0.3125
                },
                {
                    "name": "A#2",
                    "midi": 46,
                    "time": 189.06250000000003,
                    "velocity": 0.6929133858267716,
                    "duration": 0.3125
                },
                {
                    "name": "C2",
                    "midi": 36,
                    "time": 189.37500000000003,
                    "velocity": 0.6929133858267716,
                    "duration": 0.3125
                },
                {
                    "name": "C3",
                    "midi": 48,
                    "time": 189.37500000000003,
                    "velocity": 0.6929133858267716,
                    "duration": 0.3125
                },
                {
                    "name": "D#2",
                    "midi": 39,
                    "time": 189.68750000000003,
                    "velocity": 0.6929133858267716,
                    "duration": 0.15625
                },
                {
                    "name": "D#3",
                    "midi": 51,
                    "time": 189.68750000000003,
                    "velocity": 0.6929133858267716,
                    "duration": 0.15625
                },
                {
                    "name": "F2",
                    "midi": 41,
                    "time": 189.84375000000003,
                    "velocity": 0.6929133858267716,
                    "duration": 0.078125
                },
                {
                    "name": "F3",
                    "midi": 53,
                    "time": 189.84375000000003,
                    "velocity": 0.6929133858267716,
                    "duration": 0.078125
                },
                {
                    "name": "F#2",
                    "midi": 42,
                    "time": 189.92187500000003,
                    "velocity": 0.6929133858267716,
                    "duration": 0.078125
                },
                {
                    "name": "F#3",
                    "midi": 54,
                    "time": 189.92187500000003,
                    "velocity": 0.6929133858267716,
                    "duration": 0.078125
                },
                {
                    "name": "G#2",
                    "midi": 44,
                    "time": 190.00000000000003,
                    "velocity": 0.8976377952755905,
                    "duration": 0.3125
                },
                {
                    "name": "G#3",
                    "midi": 56,
                    "time": 190.00000000000003,
                    "velocity": 0.8976377952755905,
                    "duration": 0.3125
                },
                {
                    "name": "C2",
                    "midi": 36,
                    "time": 190.31250000000003,
                    "velocity": 0.8976377952755905,
                    "duration": 0.3125
                },
                {
                    "name": "C3",
                    "midi": 48,
                    "time": 190.31250000000003,
                    "velocity": 0.8976377952755905,
                    "duration": 0.3125
                },
                {
                    "name": "G#2",
                    "midi": 44,
                    "time": 190.62500000000003,
                    "velocity": 0.8976377952755905,
                    "duration": 0.3125
                },
                {
                    "name": "G#3",
                    "midi": 56,
                    "time": 190.62500000000003,
                    "velocity": 0.8976377952755905,
                    "duration": 0.3125
                },
                {
                    "name": "B1",
                    "midi": 35,
                    "time": 190.93750000000003,
                    "velocity": 0.8976377952755905,
                    "duration": 0.3125
                },
                {
                    "name": "B2",
                    "midi": 47,
                    "time": 190.93750000000003,
                    "velocity": 0.8976377952755905,
                    "duration": 0.3125
                },
                {
                    "name": "G#2",
                    "midi": 44,
                    "time": 191.25000000000003,
                    "velocity": 0.6929133858267716,
                    "duration": 0.3125
                },
                {
                    "name": "G#3",
                    "midi": 56,
                    "time": 191.25000000000003,
                    "velocity": 0.6929133858267716,
                    "duration": 0.3125
                },
                {
                    "name": "G2",
                    "midi": 43,
                    "time": 191.56250000000003,
                    "velocity": 0.8976377952755905,
                    "duration": 0.3125
                },
                {
                    "name": "G3",
                    "midi": 55,
                    "time": 191.56250000000003,
                    "velocity": 0.8976377952755905,
                    "duration": 0.3125
                },
                {
                    "name": "G#2",
                    "midi": 44,
                    "time": 191.87500000000003,
                    "velocity": 0.6929133858267716,
                    "duration": 0.3125
                },
                {
                    "name": "G#3",
                    "midi": 56,
                    "time": 191.87500000000003,
                    "velocity": 0.6929133858267716,
                    "duration": 0.3125
                },
                {
                    "name": "F#2",
                    "midi": 42,
                    "time": 192.18750000000003,
                    "velocity": 0.8976377952755905,
                    "duration": 0.3125
                },
                {
                    "name": "F#3",
                    "midi": 54,
                    "time": 192.18750000000003,
                    "velocity": 0.8976377952755905,
                    "duration": 0.3125
                },
                {
                    "name": "G#2",
                    "midi": 44,
                    "time": 192.50000000000003,
                    "velocity": 0.6929133858267716,
                    "duration": 0.3125
                },
                {
                    "name": "G#3",
                    "midi": 56,
                    "time": 192.50000000000003,
                    "velocity": 0.6929133858267716,
                    "duration": 0.3125
                },
                {
                    "name": "A2",
                    "midi": 45,
                    "time": 192.81250000000003,
                    "velocity": 0.8976377952755905,
                    "duration": 0.3125
                },
                {
                    "name": "A3",
                    "midi": 57,
                    "time": 192.81250000000003,
                    "velocity": 0.8976377952755905,
                    "duration": 0.3125
                },
                {
                    "name": "G#2",
                    "midi": 44,
                    "time": 193.12500000000003,
                    "velocity": 0.6929133858267716,
                    "duration": 0.3125
                },
                {
                    "name": "G#3",
                    "midi": 56,
                    "time": 193.12500000000003,
                    "velocity": 0.6929133858267716,
                    "duration": 0.3125
                },
                {
                    "name": "F2",
                    "midi": 41,
                    "time": 193.43750000000003,
                    "velocity": 0.8976377952755905,
                    "duration": 0.3125
                },
                {
                    "name": "F3",
                    "midi": 53,
                    "time": 193.43750000000003,
                    "velocity": 0.8976377952755905,
                    "duration": 0.3125
                },
                {
                    "name": "G#2",
                    "midi": 44,
                    "time": 193.75000000000003,
                    "velocity": 0.6929133858267716,
                    "duration": 0.3125
                },
                {
                    "name": "G#3",
                    "midi": 56,
                    "time": 193.75000000000003,
                    "velocity": 0.6929133858267716,
                    "duration": 0.3125
                },
                {
                    "name": "E2",
                    "midi": 40,
                    "time": 194.06250000000003,
                    "velocity": 0.8976377952755905,
                    "duration": 0.3125
                },
                {
                    "name": "E3",
                    "midi": 52,
                    "time": 194.06250000000003,
                    "velocity": 0.8976377952755905,
                    "duration": 0.3125
                },
                {
                    "name": "G#2",
                    "midi": 44,
                    "time": 194.37500000000003,
                    "velocity": 0.6929133858267716,
                    "duration": 0.3125
                },
                {
                    "name": "G#3",
                    "midi": 56,
                    "time": 194.37500000000003,
                    "velocity": 0.6929133858267716,
                    "duration": 0.3125
                },
                {
                    "name": "F2",
                    "midi": 41,
                    "time": 194.68750000000003,
                    "velocity": 0.8976377952755905,
                    "duration": 0.3125
                },
                {
                    "name": "F3",
                    "midi": 53,
                    "time": 194.68750000000003,
                    "velocity": 0.8976377952755905,
                    "duration": 0.3125
                },
                {
                    "name": "C2",
                    "midi": 36,
                    "time": 195.00000000000003,
                    "velocity": 0.4881889763779528,
                    "duration": 0.3125
                },
                {
                    "name": "C3",
                    "midi": 48,
                    "time": 195.00000000000003,
                    "velocity": 0.4881889763779528,
                    "duration": 0.3125
                },
                {
                    "name": "A#3",
                    "midi": 58,
                    "time": 195.31250000000003,
                    "velocity": 0.4881889763779528,
                    "duration": 0.3125
                },
                {
                    "name": "F4",
                    "midi": 65,
                    "time": 195.31250000000003,
                    "velocity": 0.4881889763779528,
                    "duration": 0.3125
                },
                {
                    "name": "A3",
                    "midi": 57,
                    "time": 195.62500000000003,
                    "velocity": 0.4881889763779528,
                    "duration": 0.3125
                },
                {
                    "name": "E4",
                    "midi": 64,
                    "time": 195.62500000000003,
                    "velocity": 0.4881889763779528,
                    "duration": 0.3125
                },
                {
                    "name": "G3",
                    "midi": 55,
                    "time": 195.93750000000003,
                    "velocity": 0.4881889763779528,
                    "duration": 0.3125
                },
                {
                    "name": "D4",
                    "midi": 62,
                    "time": 195.93750000000003,
                    "velocity": 0.4881889763779528,
                    "duration": 0.3125
                },
                {
                    "name": "F3",
                    "midi": 53,
                    "time": 196.25000000000003,
                    "velocity": 0.4881889763779528,
                    "duration": 0.3125
                },
                {
                    "name": "C4",
                    "midi": 60,
                    "time": 196.25000000000003,
                    "velocity": 0.4881889763779528,
                    "duration": 0.3125
                },
                {
                    "name": "E3",
                    "midi": 52,
                    "time": 196.56250000000003,
                    "velocity": 0.4881889763779528,
                    "duration": 0.3125
                },
                {
                    "name": "A#3",
                    "midi": 58,
                    "time": 196.56250000000003,
                    "velocity": 0.4881889763779528,
                    "duration": 0.3125
                },
                {
                    "name": "D3",
                    "midi": 50,
                    "time": 196.87500000000003,
                    "velocity": 0.4881889763779528,
                    "duration": 0.3125
                },
                {
                    "name": "A3",
                    "midi": 57,
                    "time": 196.87500000000003,
                    "velocity": 0.4881889763779528,
                    "duration": 0.3125
                },
                {
                    "name": "C3",
                    "midi": 48,
                    "time": 197.18750000000003,
                    "velocity": 0.4881889763779528,
                    "duration": 0.3125
                },
                {
                    "name": "G3",
                    "midi": 55,
                    "time": 197.18750000000003,
                    "velocity": 0.4881889763779528,
                    "duration": 0.3125
                },
                {
                    "name": "A#2",
                    "midi": 46,
                    "time": 197.50000000000003,
                    "velocity": 0.4881889763779528,
                    "duration": 0.3125
                },
                {
                    "name": "F3",
                    "midi": 53,
                    "time": 197.50000000000003,
                    "velocity": 0.4881889763779528,
                    "duration": 0.3125
                },
                {
                    "name": "A2",
                    "midi": 45,
                    "time": 197.81250000000003,
                    "velocity": 0.4881889763779528,
                    "duration": 0.3125
                },
                {
                    "name": "E3",
                    "midi": 52,
                    "time": 197.81250000000003,
                    "velocity": 0.4881889763779528,
                    "duration": 0.3125
                },
                {
                    "name": "G2",
                    "midi": 43,
                    "time": 198.12500000000003,
                    "velocity": 0.4881889763779528,
                    "duration": 0.3125
                },
                {
                    "name": "D3",
                    "midi": 50,
                    "time": 198.12500000000003,
                    "velocity": 0.4881889763779528,
                    "duration": 0.3125
                },
                {
                    "name": "F2",
                    "midi": 41,
                    "time": 198.43750000000003,
                    "velocity": 0.4881889763779528,
                    "duration": 0.3125
                },
                {
                    "name": "C3",
                    "midi": 48,
                    "time": 198.43750000000003,
                    "velocity": 0.4881889763779528,
                    "duration": 0.3125
                },
                {
                    "name": "E2",
                    "midi": 40,
                    "time": 198.75000000000003,
                    "velocity": 0.4881889763779528,
                    "duration": 0.3125
                },
                {
                    "name": "A#2",
                    "midi": 46,
                    "time": 198.75000000000003,
                    "velocity": 0.4881889763779528,
                    "duration": 0.3125
                },
                {
                    "name": "D2",
                    "midi": 38,
                    "time": 199.06250000000003,
                    "velocity": 0.4881889763779528,
                    "duration": 0.3125
                },
                {
                    "name": "A2",
                    "midi": 45,
                    "time": 199.06250000000003,
                    "velocity": 0.4881889763779528,
                    "duration": 0.3125
                },
                {
                    "name": "C2",
                    "midi": 36,
                    "time": 199.37500000000003,
                    "velocity": 0.4881889763779528,
                    "duration": 0.625
                },
                {
                    "name": "G2",
                    "midi": 43,
                    "time": 199.37500000000003,
                    "velocity": 0.4881889763779528,
                    "duration": 0.625
                },
                {
                    "name": "E3",
                    "midi": 52,
                    "time": 199.37500000000003,
                    "velocity": 0.4881889763779528,
                    "duration": 0.625
                },
                {
                    "name": "F2",
                    "midi": 41,
                    "time": 228.75000000000003,
                    "velocity": 0.4881889763779528,
                    "duration": 1.25
                },
                {
                    "name": "C3",
                    "midi": 48,
                    "time": 228.75000000000003,
                    "velocity": 0.4881889763779528,
                    "duration": 1.25
                },
                {
                    "name": "A3",
                    "midi": 57,
                    "time": 228.75000000000003,
                    "velocity": 0.4881889763779528,
                    "duration": 1.25
                }
            ],
            "controlChanges": {
                "7": [
                    {
                        "number": 7,
                        "time": 0,
                        "value": 1
                    }
                ],
                "10": [
                    {
                        "number": 10,
                        "time": 0,
                        "value": 0.7637795275590551
                    }
                ],
                "64": [
                    {
                        "number": 64,
                        "time": 20.625,
                        "value": 1
                    },
                    {
                        "number": 64,
                        "time": 23.125,
                        "value": 0
                    },
                    {
                        "number": 64,
                        "time": 23.75,
                        "value": 1
                    },
                    {
                        "number": 64,
                        "time": 25.625,
                        "value": 0
                    },
                    {
                        "number": 64,
                        "time": 28.125,
                        "value": 1
                    },
                    {
                        "number": 64,
                        "time": 30,
                        "value": 0
                    },
                    {
                        "number": 64,
                        "time": 30.625,
                        "value": 1
                    },
                    {
                        "number": 64,
                        "time": 32.5,
                        "value": 0
                    },
                    {
                        "number": 64,
                        "time": 33.125,
                        "value": 1
                    },
                    {
                        "number": 64,
                        "time": 34.375,
                        "value": 0
                    },
                    {
                        "number": 64,
                        "time": 51.25,
                        "value": 1
                    },
                    {
                        "number": 64,
                        "time": 54.375,
                        "value": 0
                    },
                    {
                        "number": 64,
                        "time": 199.37500000000003,
                        "value": 1
                    },
                    {
                        "number": 64,
                        "time": 213.75000000000003,
                        "value": 0
                    },
                    {
                        "number": 64,
                        "time": 228.75000000000003,
                        "value": 1
                    },
                    {
                        "number": 64,
                        "time": 241.25000000000003,
                        "value": 0
                    }
                ]
            },
            "id": 2,
            "name": "Instrument17",
            "instrumentNumber": 0,
            "instrument": "acoustic grand piano",
            "instrumentFamily": "piano",
            "channelNumber": 1,
            "isPercussion": false
        },
        {
            "startTime": 0,
            "duration": 237.5,
            "length": 1119,
            "notes": [
                {
                    "name": "D3",
                    "midi": 50,
                    "time": 0,
                    "velocity": 0.3858267716535433,
                    "duration": 0.625
                },
                {
                    "name": "F3",
                    "midi": 53,
                    "time": 0,
                    "velocity": 0.3858267716535433,
                    "duration": 0.625
                },
                {
                    "name": "G#3",
                    "midi": 56,
                    "time": 0,
                    "velocity": 0.3858267716535433,
                    "duration": 0.625
                },
                {
                    "name": "C4",
                    "midi": 60,
                    "time": 0,
                    "velocity": 0.3858267716535433,
                    "duration": 0.625
                },
                {
                    "name": "D#3",
                    "midi": 51,
                    "time": 0.625,
                    "velocity": 0.3858267716535433,
                    "duration": 0.625
                },
                {
                    "name": "G3",
                    "midi": 55,
                    "time": 0.625,
                    "velocity": 0.3858267716535433,
                    "duration": 0.625
                },
                {
                    "name": "A#3",
                    "midi": 58,
                    "time": 0.625,
                    "velocity": 0.3858267716535433,
                    "duration": 0.625
                },
                {
                    "name": "D4",
                    "midi": 62,
                    "time": 0.625,
                    "velocity": 0.3858267716535433,
                    "duration": 0.625
                },
                {
                    "name": "D3",
                    "midi": 50,
                    "time": 1.25,
                    "velocity": 0.3858267716535433,
                    "duration": 0.625
                },
                {
                    "name": "F3",
                    "midi": 53,
                    "time": 1.25,
                    "velocity": 0.3858267716535433,
                    "duration": 0.625
                },
                {
                    "name": "G#3",
                    "midi": 56,
                    "time": 1.25,
                    "velocity": 0.3858267716535433,
                    "duration": 0.625
                },
                {
                    "name": "C4",
                    "midi": 60,
                    "time": 1.25,
                    "velocity": 0.3858267716535433,
                    "duration": 0.625
                },
                {
                    "name": "D#3",
                    "midi": 51,
                    "time": 1.875,
                    "velocity": 0.3858267716535433,
                    "duration": 0.625
                },
                {
                    "name": "G3",
                    "midi": 55,
                    "time": 1.875,
                    "velocity": 0.3858267716535433,
                    "duration": 0.625
                },
                {
                    "name": "A#3",
                    "midi": 58,
                    "time": 1.875,
                    "velocity": 0.3858267716535433,
                    "duration": 0.625
                },
                {
                    "name": "D4",
                    "midi": 62,
                    "time": 1.875,
                    "velocity": 0.3858267716535433,
                    "duration": 0.625
                },
                {
                    "name": "F3",
                    "midi": 53,
                    "time": 2.5,
                    "velocity": 0.3858267716535433,
                    "duration": 0.625
                },
                {
                    "name": "G#3",
                    "midi": 56,
                    "time": 2.5,
                    "velocity": 0.3858267716535433,
                    "duration": 0.625
                },
                {
                    "name": "C4",
                    "midi": 60,
                    "time": 2.5,
                    "velocity": 0.3858267716535433,
                    "duration": 0.625
                },
                {
                    "name": "D#4",
                    "midi": 63,
                    "time": 2.5,
                    "velocity": 0.3858267716535433,
                    "duration": 0.625
                },
                {
                    "name": "G3",
                    "midi": 55,
                    "time": 3.125,
                    "velocity": 0.3858267716535433,
                    "duration": 0.625
                },
                {
                    "name": "A#3",
                    "midi": 58,
                    "time": 3.125,
                    "velocity": 0.3858267716535433,
                    "duration": 0.625
                },
                {
                    "name": "D4",
                    "midi": 62,
                    "time": 3.125,
                    "velocity": 0.3858267716535433,
                    "duration": 0.625
                },
                {
                    "name": "F4",
                    "midi": 65,
                    "time": 3.125,
                    "velocity": 0.3858267716535433,
                    "duration": 0.625
                },
                {
                    "name": "D3",
                    "midi": 50,
                    "time": 3.75,
                    "velocity": 0.3858267716535433,
                    "duration": 0.625
                },
                {
                    "name": "F3",
                    "midi": 53,
                    "time": 3.75,
                    "velocity": 0.3858267716535433,
                    "duration": 0.625
                },
                {
                    "name": "G#3",
                    "midi": 56,
                    "time": 3.75,
                    "velocity": 0.3858267716535433,
                    "duration": 0.625
                },
                {
                    "name": "C4",
                    "midi": 60,
                    "time": 3.75,
                    "velocity": 0.3858267716535433,
                    "duration": 0.625
                },
                {
                    "name": "D#3",
                    "midi": 51,
                    "time": 4.375,
                    "velocity": 0.3858267716535433,
                    "duration": 0.625
                },
                {
                    "name": "G3",
                    "midi": 55,
                    "time": 4.375,
                    "velocity": 0.3858267716535433,
                    "duration": 0.625
                },
                {
                    "name": "A#3",
                    "midi": 58,
                    "time": 4.375,
                    "velocity": 0.3858267716535433,
                    "duration": 0.625
                },
                {
                    "name": "D4",
                    "midi": 62,
                    "time": 4.375,
                    "velocity": 0.3858267716535433,
                    "duration": 0.625
                },
                {
                    "name": "F3",
                    "midi": 53,
                    "time": 5,
                    "velocity": 0.3858267716535433,
                    "duration": 0.625
                },
                {
                    "name": "G#3",
                    "midi": 56,
                    "time": 5,
                    "velocity": 0.3858267716535433,
                    "duration": 0.625
                },
                {
                    "name": "C4",
                    "midi": 60,
                    "time": 5,
                    "velocity": 0.3858267716535433,
                    "duration": 0.625
                },
                {
                    "name": "D#4",
                    "midi": 63,
                    "time": 5,
                    "velocity": 0.3858267716535433,
                    "duration": 0.625
                },
                {
                    "name": "G3",
                    "midi": 55,
                    "time": 5.625,
                    "velocity": 0.3858267716535433,
                    "duration": 0.625
                },
                {
                    "name": "A#3",
                    "midi": 58,
                    "time": 5.625,
                    "velocity": 0.3858267716535433,
                    "duration": 0.625
                },
                {
                    "name": "D4",
                    "midi": 62,
                    "time": 5.625,
                    "velocity": 0.3858267716535433,
                    "duration": 0.625
                },
                {
                    "name": "F4",
                    "midi": 65,
                    "time": 5.625,
                    "velocity": 0.3858267716535433,
                    "duration": 0.625
                },
                {
                    "name": "G#3",
                    "midi": 56,
                    "time": 6.25,
                    "velocity": 0.3858267716535433,
                    "duration": 0.625
                },
                {
                    "name": "C4",
                    "midi": 60,
                    "time": 6.25,
                    "velocity": 0.3858267716535433,
                    "duration": 0.625
                },
                {
                    "name": "D#4",
                    "midi": 63,
                    "time": 6.25,
                    "velocity": 0.3858267716535433,
                    "duration": 0.625
                },
                {
                    "name": "G4",
                    "midi": 67,
                    "time": 6.25,
                    "velocity": 0.3858267716535433,
                    "duration": 0.625
                },
                {
                    "name": "G#3",
                    "midi": 56,
                    "time": 6.875,
                    "velocity": 0.3858267716535433,
                    "duration": 0.625
                },
                {
                    "name": "C4",
                    "midi": 60,
                    "time": 6.875,
                    "velocity": 0.3858267716535433,
                    "duration": 0.625
                },
                {
                    "name": "D#4",
                    "midi": 63,
                    "time": 6.875,
                    "velocity": 0.3858267716535433,
                    "duration": 0.625
                },
                {
                    "name": "G4",
                    "midi": 67,
                    "time": 6.875,
                    "velocity": 0.3858267716535433,
                    "duration": 0.625
                },
                {
                    "name": "A#3",
                    "midi": 58,
                    "time": 7.5,
                    "velocity": 0.3858267716535433,
                    "duration": 0.625
                },
                {
                    "name": "D4",
                    "midi": 62,
                    "time": 7.5,
                    "velocity": 0.3858267716535433,
                    "duration": 0.625
                },
                {
                    "name": "F4",
                    "midi": 65,
                    "time": 7.5,
                    "velocity": 0.3858267716535433,
                    "duration": 0.625
                },
                {
                    "name": "G#4",
                    "midi": 68,
                    "time": 7.5,
                    "velocity": 0.3858267716535433,
                    "duration": 0.625
                },
                {
                    "name": "C4",
                    "midi": 60,
                    "time": 8.125,
                    "velocity": 0.3858267716535433,
                    "duration": 0.625
                },
                {
                    "name": "D#4",
                    "midi": 63,
                    "time": 8.125,
                    "velocity": 0.3858267716535433,
                    "duration": 0.625
                },
                {
                    "name": "G4",
                    "midi": 67,
                    "time": 8.125,
                    "velocity": 0.3858267716535433,
                    "duration": 0.625
                },
                {
                    "name": "A#4",
                    "midi": 70,
                    "time": 8.125,
                    "velocity": 0.3858267716535433,
                    "duration": 0.625
                },
                {
                    "name": "D4",
                    "midi": 62,
                    "time": 8.75,
                    "velocity": 0.3858267716535433,
                    "duration": 0.625
                },
                {
                    "name": "F4",
                    "midi": 65,
                    "time": 8.75,
                    "velocity": 0.3858267716535433,
                    "duration": 0.625
                },
                {
                    "name": "G#4",
                    "midi": 68,
                    "time": 8.75,
                    "velocity": 0.3858267716535433,
                    "duration": 0.625
                },
                {
                    "name": "C5",
                    "midi": 72,
                    "time": 8.75,
                    "velocity": 0.3858267716535433,
                    "duration": 0.625
                },
                {
                    "name": "D#4",
                    "midi": 63,
                    "time": 9.375,
                    "velocity": 0.3858267716535433,
                    "duration": 0.625
                },
                {
                    "name": "G4",
                    "midi": 67,
                    "time": 9.375,
                    "velocity": 0.3858267716535433,
                    "duration": 0.625
                },
                {
                    "name": "A#4",
                    "midi": 70,
                    "time": 9.375,
                    "velocity": 0.3858267716535433,
                    "duration": 0.625
                },
                {
                    "name": "D5",
                    "midi": 74,
                    "time": 9.375,
                    "velocity": 0.3858267716535433,
                    "duration": 0.625
                },
                {
                    "name": "G4",
                    "midi": 67,
                    "time": 10,
                    "velocity": 0.3858267716535433,
                    "duration": 0.625
                },
                {
                    "name": "A#4",
                    "midi": 70,
                    "time": 10,
                    "velocity": 0.3858267716535433,
                    "duration": 0.625
                },
                {
                    "name": "D5",
                    "midi": 74,
                    "time": 10,
                    "velocity": 0.3858267716535433,
                    "duration": 0.625
                },
                {
                    "name": "F5",
                    "midi": 77,
                    "time": 10,
                    "velocity": 0.3858267716535433,
                    "duration": 0.625
                },
                {
                    "name": "D#4",
                    "midi": 63,
                    "time": 10.625,
                    "velocity": 0.3858267716535433,
                    "duration": 0.625
                },
                {
                    "name": "G4",
                    "midi": 67,
                    "time": 10.625,
                    "velocity": 0.3858267716535433,
                    "duration": 0.625
                },
                {
                    "name": "A#4",
                    "midi": 70,
                    "time": 10.625,
                    "velocity": 0.3858267716535433,
                    "duration": 0.625
                },
                {
                    "name": "D5",
                    "midi": 74,
                    "time": 10.625,
                    "velocity": 0.3858267716535433,
                    "duration": 0.625
                },
                {
                    "name": "D4",
                    "midi": 62,
                    "time": 11.25,
                    "velocity": 0.3858267716535433,
                    "duration": 0.625
                },
                {
                    "name": "F4",
                    "midi": 65,
                    "time": 11.25,
                    "velocity": 0.3858267716535433,
                    "duration": 0.625
                },
                {
                    "name": "G#4",
                    "midi": 68,
                    "time": 11.25,
                    "velocity": 0.3858267716535433,
                    "duration": 0.625
                },
                {
                    "name": "C5",
                    "midi": 72,
                    "time": 11.25,
                    "velocity": 0.3858267716535433,
                    "duration": 0.625
                },
                {
                    "name": "C4",
                    "midi": 60,
                    "time": 11.875,
                    "velocity": 0.3858267716535433,
                    "duration": 0.625
                },
                {
                    "name": "D#4",
                    "midi": 63,
                    "time": 11.875,
                    "velocity": 0.3858267716535433,
                    "duration": 0.625
                },
                {
                    "name": "G4",
                    "midi": 67,
                    "time": 11.875,
                    "velocity": 0.3858267716535433,
                    "duration": 0.625
                },
                {
                    "name": "A#4",
                    "midi": 70,
                    "time": 11.875,
                    "velocity": 0.3858267716535433,
                    "duration": 0.625
                },
                {
                    "name": "G#3",
                    "midi": 56,
                    "time": 12.5,
                    "velocity": 0.3858267716535433,
                    "duration": 1.25
                },
                {
                    "name": "C4",
                    "midi": 60,
                    "time": 12.5,
                    "velocity": 0.3858267716535433,
                    "duration": 1.25
                },
                {
                    "name": "D#4",
                    "midi": 63,
                    "time": 12.5,
                    "velocity": 0.3858267716535433,
                    "duration": 1.25
                },
                {
                    "name": "G4",
                    "midi": 67,
                    "time": 12.5,
                    "velocity": 0.3858267716535433,
                    "duration": 1.25
                },
                {
                    "name": "F5",
                    "midi": 77,
                    "time": 13.75,
                    "velocity": 0.5905511811023622,
                    "duration": 5
                },
                {
                    "name": "F5",
                    "midi": 77,
                    "time": 18.75,
                    "velocity": 0.5905511811023622,
                    "duration": 0.3125
                },
                {
                    "name": "G4",
                    "midi": 67,
                    "time": 19.0625,
                    "velocity": 0.5905511811023622,
                    "duration": 0.3125
                },
                {
                    "name": "A4",
                    "midi": 69,
                    "time": 19.375,
                    "velocity": 0.5905511811023622,
                    "duration": 0.625
                },
                {
                    "name": "F5",
                    "midi": 77,
                    "time": 20,
                    "velocity": 0.5905511811023622,
                    "duration": 4.375
                },
                {
                    "name": "F5",
                    "midi": 77,
                    "time": 24.375,
                    "velocity": 0.5905511811023622,
                    "duration": 0.3125
                },
                {
                    "name": "G4",
                    "midi": 67,
                    "time": 24.6875,
                    "velocity": 0.5905511811023622,
                    "duration": 0.3125
                },
                {
                    "name": "A4",
                    "midi": 69,
                    "time": 25,
                    "velocity": 0.5905511811023622,
                    "duration": 0.625
                },
                {
                    "name": "F5",
                    "midi": 77,
                    "time": 25.625,
                    "velocity": 0.5905511811023622,
                    "duration": 0.625
                },
                {
                    "name": "G5",
                    "midi": 79,
                    "time": 26.25,
                    "velocity": 0.5905511811023622,
                    "duration": 2.5
                },
                {
                    "name": "D#5",
                    "midi": 75,
                    "time": 28.75,
                    "velocity": 0.5905511811023622,
                    "duration": 0.02994791666666785
                },
                {
                    "name": "D#5",
                    "midi": 75,
                    "time": 28.90625,
                    "velocity": 0.5905511811023622,
                    "duration": 0.02994791666666785
                },
                {
                    "name": "D#5",
                    "midi": 75,
                    "time": 29.0625,
                    "velocity": 0.5905511811023622,
                    "duration": 0.02994791666666785
                },
                {
                    "name": "D#5",
                    "midi": 75,
                    "time": 29.21875,
                    "velocity": 0.5905511811023622,
                    "duration": 0.02994791666666785
                },
                {
                    "name": "F5",
                    "midi": 77,
                    "time": 29.375,
                    "velocity": 0.5905511811023622,
                    "duration": 0.06119791666666785
                },
                {
                    "name": "A#5",
                    "midi": 82,
                    "time": 29.6875,
                    "velocity": 0.7952755905511811,
                    "duration": 0.625
                },
                {
                    "name": "G#5",
                    "midi": 80,
                    "time": 30.3125,
                    "velocity": 0.5905511811023622,
                    "duration": 0.15625
                },
                {
                    "name": "G5",
                    "midi": 79,
                    "time": 30.46875,
                    "velocity": 0.5905511811023622,
                    "duration": 0.15625
                },
                {
                    "name": "F5",
                    "midi": 77,
                    "time": 30.625,
                    "velocity": 0.5905511811023622,
                    "duration": 0.06119791666666785
                },
                {
                    "name": "D#5",
                    "midi": 75,
                    "time": 30.9375,
                    "velocity": 0.5905511811023622,
                    "duration": 0.06119791666666785
                },
                {
                    "name": "C#5",
                    "midi": 73,
                    "time": 31.25,
                    "velocity": 0.5905511811023622,
                    "duration": 0.02994791666666785
                },
                {
                    "name": "C#5",
                    "midi": 73,
                    "time": 31.40625,
                    "velocity": 0.5905511811023622,
                    "duration": 0.02994791666666785
                },
                {
                    "name": "C#5",
                    "midi": 73,
                    "time": 31.5625,
                    "velocity": 0.5905511811023622,
                    "duration": 0.02994791666666785
                },
                {
                    "name": "C#5",
                    "midi": 73,
                    "time": 31.71875,
                    "velocity": 0.5905511811023622,
                    "duration": 0.02994791666666785
                },
                {
                    "name": "D#5",
                    "midi": 75,
                    "time": 31.875,
                    "velocity": 0.5905511811023622,
                    "duration": 0.06119791666666785
                },
                {
                    "name": "G#5",
                    "midi": 80,
                    "time": 32.1875,
                    "velocity": 0.7952755905511811,
                    "duration": 0.625
                },
                {
                    "name": "F#5",
                    "midi": 78,
                    "time": 32.8125,
                    "velocity": 0.5905511811023622,
                    "duration": 0.15625
                },
                {
                    "name": "F5",
                    "midi": 77,
                    "time": 32.96875,
                    "velocity": 0.5905511811023622,
                    "duration": 0.15625
                },
                {
                    "name": "D#5",
                    "midi": 75,
                    "time": 33.125,
                    "velocity": 0.5905511811023622,
                    "duration": 0.0611979166666643
                },
                {
                    "name": "C#5",
                    "midi": 73,
                    "time": 33.4375,
                    "velocity": 0.5905511811023622,
                    "duration": 0.0611979166666643
                },
                {
                    "name": "B4",
                    "midi": 71,
                    "time": 33.75,
                    "velocity": 0.5905511811023622,
                    "duration": 0.029947916666664298
                },
                {
                    "name": "B4",
                    "midi": 71,
                    "time": 33.90625,
                    "velocity": 0.5905511811023622,
                    "duration": 0.029947916666664298
                },
                {
                    "name": "B4",
                    "midi": 71,
                    "time": 34.0625,
                    "velocity": 0.5905511811023622,
                    "duration": 0.029947916666664298
                },
                {
                    "name": "B4",
                    "midi": 71,
                    "time": 34.21875,
                    "velocity": 0.5905511811023622,
                    "duration": 0.029947916666664298
                },
                {
                    "name": "C#5",
                    "midi": 73,
                    "time": 34.375,
                    "velocity": 0.5905511811023622,
                    "duration": 0.3125
                },
                {
                    "name": "D#5",
                    "midi": 75,
                    "time": 34.6875,
                    "velocity": 0.5905511811023622,
                    "duration": 0.3125
                },
                {
                    "name": "F#5",
                    "midi": 78,
                    "time": 35,
                    "velocity": 0.4881889763779528,
                    "duration": 0.625
                },
                {
                    "name": "G#5",
                    "midi": 80,
                    "time": 35.625,
                    "velocity": 0.4881889763779528,
                    "duration": 0.625
                },
                {
                    "name": "D#5",
                    "midi": 75,
                    "time": 36.25,
                    "velocity": 0.4881889763779528,
                    "duration": 0.625
                },
                {
                    "name": "C#5",
                    "midi": 73,
                    "time": 36.875,
                    "velocity": 0.4881889763779528,
                    "duration": 0.625
                },
                {
                    "name": "B4",
                    "midi": 71,
                    "time": 37.5,
                    "velocity": 0.4881889763779528,
                    "duration": 0.0611979166666643
                },
                {
                    "name": "B4",
                    "midi": 71,
                    "time": 37.8125,
                    "velocity": 0.4881889763779528,
                    "duration": 0.15625
                },
                {
                    "name": "C#5",
                    "midi": 73,
                    "time": 37.96875,
                    "velocity": 0.4881889763779528,
                    "duration": 0.15625
                },
                {
                    "name": "B4",
                    "midi": 71,
                    "time": 38.125,
                    "velocity": 0.4881889763779528,
                    "duration": 0.125
                },
                {
                    "name": "F#4",
                    "midi": 66,
                    "time": 38.90625,
                    "velocity": 0.4881889763779528,
                    "duration": 0.15625
                },
                {
                    "name": "G#4",
                    "midi": 68,
                    "time": 39.0625,
                    "velocity": 0.4881889763779528,
                    "duration": 0.15625
                },
                {
                    "name": "A4",
                    "midi": 69,
                    "time": 39.21875,
                    "velocity": 0.4881889763779528,
                    "duration": 0.15625
                },
                {
                    "name": "B4",
                    "midi": 71,
                    "time": 39.375,
                    "velocity": 0.4881889763779528,
                    "duration": 0.15625
                },
                {
                    "name": "C#5",
                    "midi": 73,
                    "time": 39.53125,
                    "velocity": 0.4881889763779528,
                    "duration": 0.15625
                },
                {
                    "name": "D#5",
                    "midi": 75,
                    "time": 39.6875,
                    "velocity": 0.4881889763779528,
                    "duration": 0.15625
                },
                {
                    "name": "E5",
                    "midi": 76,
                    "time": 39.84375,
                    "velocity": 0.4881889763779528,
                    "duration": 0.15625
                },
                {
                    "name": "F#5",
                    "midi": 78,
                    "time": 40,
                    "velocity": 0.4881889763779528,
                    "duration": 0.625
                },
                {
                    "name": "E5",
                    "midi": 76,
                    "time": 40.625,
                    "velocity": 0.4881889763779528,
                    "duration": 0.625
                },
                {
                    "name": "D#5",
                    "midi": 75,
                    "time": 41.25,
                    "velocity": 0.4881889763779528,
                    "duration": 0.625
                },
                {
                    "name": "C#5",
                    "midi": 73,
                    "time": 41.875,
                    "velocity": 0.4881889763779528,
                    "duration": 0.625
                },
                {
                    "name": "B4",
                    "midi": 71,
                    "time": 42.5,
                    "velocity": 0.4881889763779528,
                    "duration": 0.0611979166666643
                },
                {
                    "name": "B4",
                    "midi": 71,
                    "time": 42.8125,
                    "velocity": 0.4881889763779528,
                    "duration": 0.15625
                },
                {
                    "name": "C#5",
                    "midi": 73,
                    "time": 42.96875,
                    "velocity": 0.4881889763779528,
                    "duration": 0.15625
                },
                {
                    "name": "B4",
                    "midi": 71,
                    "time": 43.125,
                    "velocity": 0.4881889763779528,
                    "duration": 0.125
                },
                {
                    "name": "F#4",
                    "midi": 66,
                    "time": 43.90625,
                    "velocity": 0.4881889763779528,
                    "duration": 0.15625
                },
                {
                    "name": "G#4",
                    "midi": 68,
                    "time": 44.0625,
                    "velocity": 0.4881889763779528,
                    "duration": 0.15625
                },
                {
                    "name": "A4",
                    "midi": 69,
                    "time": 44.21875,
                    "velocity": 0.4881889763779528,
                    "duration": 0.15625
                },
                {
                    "name": "B4",
                    "midi": 71,
                    "time": 44.375,
                    "velocity": 0.4881889763779528,
                    "duration": 0.15625
                },
                {
                    "name": "C#5",
                    "midi": 73,
                    "time": 44.53125,
                    "velocity": 0.4881889763779528,
                    "duration": 0.15625
                },
                {
                    "name": "D#5",
                    "midi": 75,
                    "time": 44.6875,
                    "velocity": 0.4881889763779528,
                    "duration": 0.15625
                },
                {
                    "name": "E5",
                    "midi": 76,
                    "time": 44.84375,
                    "velocity": 0.4881889763779528,
                    "duration": 0.15625
                },
                {
                    "name": "D#5",
                    "midi": 75,
                    "time": 45,
                    "velocity": 0.4881889763779528,
                    "duration": 1.5625
                },
                {
                    "name": "D#5",
                    "midi": 75,
                    "time": 46.5625,
                    "velocity": 0.4881889763779528,
                    "duration": 0.029947916666664298
                },
                {
                    "name": "D#5",
                    "midi": 75,
                    "time": 46.71875,
                    "velocity": 0.4881889763779528,
                    "duration": 0.029947916666664298
                },
                {
                    "name": "D#5",
                    "midi": 75,
                    "time": 46.875,
                    "velocity": 0.4881889763779528,
                    "duration": 0.029947916666664298
                },
                {
                    "name": "D#5",
                    "midi": 75,
                    "time": 47.03125,
                    "velocity": 0.5905511811023622,
                    "duration": 0.029947916666664298
                },
                {
                    "name": "D#5",
                    "midi": 75,
                    "time": 47.1875,
                    "velocity": 0.5905511811023622,
                    "duration": 0.029947916666664298
                },
                {
                    "name": "D#5",
                    "midi": 75,
                    "time": 47.34375,
                    "velocity": 0.5905511811023622,
                    "duration": 0.029947916666664298
                },
                {
                    "name": "D#5",
                    "midi": 75,
                    "time": 47.5,
                    "velocity": 0.5905511811023622,
                    "duration": 3.75
                },
                {
                    "name": "C6",
                    "midi": 84,
                    "time": 51.5625,
                    "velocity": 0.4881889763779528,
                    "duration": 0.3125
                },
                {
                    "name": "D6",
                    "midi": 86,
                    "time": 51.5625,
                    "velocity": 0.4881889763779528,
                    "duration": 0.3125
                },
                {
                    "name": "B5",
                    "midi": 83,
                    "time": 51.875,
                    "velocity": 0.4881889763779528,
                    "duration": 0.3125
                },
                {
                    "name": "D#6",
                    "midi": 87,
                    "time": 51.875,
                    "velocity": 0.4881889763779528,
                    "duration": 0.3125
                },
                {
                    "name": "A#5",
                    "midi": 82,
                    "time": 52.1875,
                    "velocity": 0.4881889763779528,
                    "duration": 0.3125
                },
                {
                    "name": "F#6",
                    "midi": 90,
                    "time": 52.1875,
                    "velocity": 0.4881889763779528,
                    "duration": 0.3125
                },
                {
                    "name": "A5",
                    "midi": 81,
                    "time": 52.5,
                    "velocity": 0.4881889763779528,
                    "duration": 0.3125
                },
                {
                    "name": "B5",
                    "midi": 83,
                    "time": 52.5,
                    "velocity": 0.4881889763779528,
                    "duration": 0.3125
                },
                {
                    "name": "G#5",
                    "midi": 80,
                    "time": 52.8125,
                    "velocity": 0.4881889763779528,
                    "duration": 0.3125
                },
                {
                    "name": "C6",
                    "midi": 84,
                    "time": 52.8125,
                    "velocity": 0.4881889763779528,
                    "duration": 0.3125
                },
                {
                    "name": "G5",
                    "midi": 79,
                    "time": 53.125,
                    "velocity": 0.4881889763779528,
                    "duration": 0.3125
                },
                {
                    "name": "D#6",
                    "midi": 87,
                    "time": 53.125,
                    "velocity": 0.4881889763779528,
                    "duration": 0.3125
                },
                {
                    "name": "F#5",
                    "midi": 78,
                    "time": 53.4375,
                    "velocity": 0.4881889763779528,
                    "duration": 0.3125
                },
                {
                    "name": "G#5",
                    "midi": 80,
                    "time": 53.4375,
                    "velocity": 0.4881889763779528,
                    "duration": 0.3125
                },
                {
                    "name": "F5",
                    "midi": 77,
                    "time": 53.75,
                    "velocity": 0.4881889763779528,
                    "duration": 0.3125
                },
                {
                    "name": "A5",
                    "midi": 81,
                    "time": 53.75,
                    "velocity": 0.4881889763779528,
                    "duration": 0.3125
                },
                {
                    "name": "E5",
                    "midi": 76,
                    "time": 54.0625,
                    "velocity": 0.4881889763779528,
                    "duration": 0.3125
                },
                {
                    "name": "C6",
                    "midi": 84,
                    "time": 54.0625,
                    "velocity": 0.4881889763779528,
                    "duration": 0.3125
                },
                {
                    "name": "D#5",
                    "midi": 75,
                    "time": 54.375,
                    "velocity": 0.4881889763779528,
                    "duration": 0.3125
                },
                {
                    "name": "F5",
                    "midi": 77,
                    "time": 54.375,
                    "velocity": 0.4881889763779528,
                    "duration": 0.3125
                },
                {
                    "name": "D5",
                    "midi": 74,
                    "time": 54.6875,
                    "velocity": 0.4881889763779528,
                    "duration": 0.3125
                },
                {
                    "name": "F#5",
                    "midi": 78,
                    "time": 54.6875,
                    "velocity": 0.4881889763779528,
                    "duration": 0.3125
                },
                {
                    "name": "C#5",
                    "midi": 73,
                    "time": 55,
                    "velocity": 0.4881889763779528,
                    "duration": 0.3125
                },
                {
                    "name": "A5",
                    "midi": 81,
                    "time": 55,
                    "velocity": 0.4881889763779528,
                    "duration": 0.3125
                },
                {
                    "name": "C5",
                    "midi": 72,
                    "time": 55.3125,
                    "velocity": 0.4881889763779528,
                    "duration": 0.3125
                },
                {
                    "name": "D5",
                    "midi": 74,
                    "time": 55.3125,
                    "velocity": 0.4881889763779528,
                    "duration": 0.3125
                },
                {
                    "name": "B4",
                    "midi": 71,
                    "time": 55.625,
                    "velocity": 0.4881889763779528,
                    "duration": 0.3125
                },
                {
                    "name": "D#5",
                    "midi": 75,
                    "time": 55.625,
                    "velocity": 0.4881889763779528,
                    "duration": 0.3125
                },
                {
                    "name": "A#4",
                    "midi": 70,
                    "time": 55.9375,
                    "velocity": 0.4881889763779528,
                    "duration": 0.3125
                },
                {
                    "name": "F#5",
                    "midi": 78,
                    "time": 55.9375,
                    "velocity": 0.4881889763779528,
                    "duration": 0.3125
                },
                {
                    "name": "A4",
                    "midi": 69,
                    "time": 56.25,
                    "velocity": 0.4881889763779528,
                    "duration": 0.3125
                },
                {
                    "name": "B4",
                    "midi": 71,
                    "time": 56.25,
                    "velocity": 0.4881889763779528,
                    "duration": 0.3125
                },
                {
                    "name": "G#4",
                    "midi": 68,
                    "time": 56.5625,
                    "velocity": 0.4881889763779528,
                    "duration": 0.3125
                },
                {
                    "name": "C5",
                    "midi": 72,
                    "time": 56.5625,
                    "velocity": 0.4881889763779528,
                    "duration": 0.3125
                },
                {
                    "name": "G4",
                    "midi": 67,
                    "time": 56.875,
                    "velocity": 0.4881889763779528,
                    "duration": 0.3125
                },
                {
                    "name": "D#5",
                    "midi": 75,
                    "time": 56.875,
                    "velocity": 0.4881889763779528,
                    "duration": 0.3125
                },
                {
                    "name": "F#4",
                    "midi": 66,
                    "time": 57.1875,
                    "velocity": 0.4881889763779528,
                    "duration": 0.3125
                },
                {
                    "name": "G#4",
                    "midi": 68,
                    "time": 57.1875,
                    "velocity": 0.4881889763779528,
                    "duration": 0.3125
                },
                {
                    "name": "F4",
                    "midi": 65,
                    "time": 57.5,
                    "velocity": 0.4881889763779528,
                    "duration": 0.3125
                },
                {
                    "name": "A4",
                    "midi": 69,
                    "time": 57.5,
                    "velocity": 0.4881889763779528,
                    "duration": 0.3125
                },
                {
                    "name": "E4",
                    "midi": 64,
                    "time": 57.8125,
                    "velocity": 0.4881889763779528,
                    "duration": 0.3125
                },
                {
                    "name": "C5",
                    "midi": 72,
                    "time": 57.8125,
                    "velocity": 0.4881889763779528,
                    "duration": 0.3125
                },
                {
                    "name": "D#4",
                    "midi": 63,
                    "time": 58.125,
                    "velocity": 0.4881889763779528,
                    "duration": 0.3125
                },
                {
                    "name": "F4",
                    "midi": 65,
                    "time": 58.125,
                    "velocity": 0.4881889763779528,
                    "duration": 0.3125
                },
                {
                    "name": "D4",
                    "midi": 62,
                    "time": 58.4375,
                    "velocity": 0.4881889763779528,
                    "duration": 0.3125
                },
                {
                    "name": "F#4",
                    "midi": 66,
                    "time": 58.4375,
                    "velocity": 0.4881889763779528,
                    "duration": 0.3125
                },
                {
                    "name": "C#4",
                    "midi": 61,
                    "time": 58.75,
                    "velocity": 0.4881889763779528,
                    "duration": 0.3125
                },
                {
                    "name": "A4",
                    "midi": 69,
                    "time": 58.75,
                    "velocity": 0.4881889763779528,
                    "duration": 0.3125
                },
                {
                    "name": "C4",
                    "midi": 60,
                    "time": 59.0625,
                    "velocity": 0.4881889763779528,
                    "duration": 0.3125
                },
                {
                    "name": "D4",
                    "midi": 62,
                    "time": 59.0625,
                    "velocity": 0.4881889763779528,
                    "duration": 0.3125
                },
                {
                    "name": "B3",
                    "midi": 59,
                    "time": 59.375,
                    "velocity": 0.4881889763779528,
                    "duration": 0.3125
                },
                {
                    "name": "D#4",
                    "midi": 63,
                    "time": 59.375,
                    "velocity": 0.4881889763779528,
                    "duration": 0.3125
                },
                {
                    "name": "A#3",
                    "midi": 58,
                    "time": 59.6875,
                    "velocity": 0.4881889763779528,
                    "duration": 0.3125
                },
                {
                    "name": "F#4",
                    "midi": 66,
                    "time": 59.6875,
                    "velocity": 0.4881889763779528,
                    "duration": 0.3125
                },
                {
                    "name": "C4",
                    "midi": 60,
                    "time": 60,
                    "velocity": 0.4881889763779528,
                    "duration": 0.3125
                },
                {
                    "name": "D4",
                    "midi": 62,
                    "time": 60,
                    "velocity": 0.4881889763779528,
                    "duration": 0.3125
                },
                {
                    "name": "B3",
                    "midi": 59,
                    "time": 60.3125,
                    "velocity": 0.4881889763779528,
                    "duration": 0.3125
                },
                {
                    "name": "D#4",
                    "midi": 63,
                    "time": 60.3125,
                    "velocity": 0.4881889763779528,
                    "duration": 0.3125
                },
                {
                    "name": "G#3",
                    "midi": 56,
                    "time": 60.625,
                    "velocity": 0.4881889763779528,
                    "duration": 0.625
                },
                {
                    "name": "F#4",
                    "midi": 66,
                    "time": 60.625,
                    "velocity": 0.4881889763779528,
                    "duration": 0.625
                },
                {
                    "name": "C4",
                    "midi": 60,
                    "time": 61.25,
                    "velocity": 0.4881889763779528,
                    "duration": 0.625
                },
                {
                    "name": "D4",
                    "midi": 62,
                    "time": 61.25,
                    "velocity": 0.4881889763779528,
                    "duration": 0.625
                },
                {
                    "name": "B3",
                    "midi": 59,
                    "time": 61.875,
                    "velocity": 0.4881889763779528,
                    "duration": 0.625
                },
                {
                    "name": "D#4",
                    "midi": 63,
                    "time": 61.875,
                    "velocity": 0.4881889763779528,
                    "duration": 0.625
                },
                {
                    "name": "A#3",
                    "midi": 58,
                    "time": 62.5,
                    "velocity": 0.4881889763779528,
                    "duration": 1.25
                },
                {
                    "name": "F#4",
                    "midi": 66,
                    "time": 62.5,
                    "velocity": 0.4881889763779528,
                    "duration": 1.25
                },
                {
                    "name": "E4",
                    "midi": 64,
                    "time": 66.5625,
                    "velocity": 0.8976377952755905,
                    "duration": 0.3125
                },
                {
                    "name": "F#4",
                    "midi": 66,
                    "time": 66.875,
                    "velocity": 0.6929133858267716,
                    "duration": 0.3125
                },
                {
                    "name": "D#4",
                    "midi": 63,
                    "time": 67.1875,
                    "velocity": 0.6929133858267716,
                    "duration": 0.3125
                },
                {
                    "name": "E4",
                    "midi": 64,
                    "time": 67.5,
                    "velocity": 0.8976377952755905,
                    "duration": 0.3125
                },
                {
                    "name": "D#4",
                    "midi": 63,
                    "time": 67.8125,
                    "velocity": 0.8976377952755905,
                    "duration": 0.3125
                },
                {
                    "name": "C#4",
                    "midi": 61,
                    "time": 68.125,
                    "velocity": 0.8976377952755905,
                    "duration": 0.625
                },
                {
                    "name": "E4",
                    "midi": 64,
                    "time": 69.0625,
                    "velocity": 0.8976377952755905,
                    "duration": 0.3125
                },
                {
                    "name": "F#4",
                    "midi": 66,
                    "time": 69.375,
                    "velocity": 0.6929133858267716,
                    "duration": 0.3125
                },
                {
                    "name": "D#4",
                    "midi": 63,
                    "time": 69.6875,
                    "velocity": 0.6929133858267716,
                    "duration": 0.3125
                },
                {
                    "name": "E4",
                    "midi": 64,
                    "time": 70,
                    "velocity": 0.8976377952755905,
                    "duration": 0.3125
                },
                {
                    "name": "D#4",
                    "midi": 63,
                    "time": 70.3125,
                    "velocity": 0.8976377952755905,
                    "duration": 0.3125
                },
                {
                    "name": "C#4",
                    "midi": 61,
                    "time": 70.625,
                    "velocity": 0.8976377952755905,
                    "duration": 0.625
                },
                {
                    "name": "B3",
                    "midi": 59,
                    "time": 71.5625,
                    "velocity": 0.6929133858267716,
                    "duration": 0.3125
                },
                {
                    "name": "C#4",
                    "midi": 61,
                    "time": 71.875,
                    "velocity": 0.6929133858267716,
                    "duration": 0.3125
                },
                {
                    "name": "D#4",
                    "midi": 63,
                    "time": 72.1875,
                    "velocity": 0.6929133858267716,
                    "duration": 0.3125
                },
                {
                    "name": "F#3",
                    "midi": 54,
                    "time": 72.5,
                    "velocity": 0.8976377952755905,
                    "duration": 1.25
                },
                {
                    "name": "F#4",
                    "midi": 66,
                    "time": 72.5,
                    "velocity": 0.8976377952755905,
                    "duration": 1.25
                },
                {
                    "name": "E4",
                    "midi": 64,
                    "time": 77.8125,
                    "velocity": 0.8976377952755905,
                    "duration": 0.3125
                },
                {
                    "name": "F#4",
                    "midi": 66,
                    "time": 78.125,
                    "velocity": 0.6929133858267716,
                    "duration": 0.3125
                },
                {
                    "name": "D#4",
                    "midi": 63,
                    "time": 78.4375,
                    "velocity": 0.6929133858267716,
                    "duration": 0.3125
                },
                {
                    "name": "E4",
                    "midi": 64,
                    "time": 78.75,
                    "velocity": 0.8976377952755905,
                    "duration": 0.3125
                },
                {
                    "name": "D#4",
                    "midi": 63,
                    "time": 79.0625,
                    "velocity": 0.8976377952755905,
                    "duration": 0.3125
                },
                {
                    "name": "C#4",
                    "midi": 61,
                    "time": 79.375,
                    "velocity": 0.8976377952755905,
                    "duration": 0.625
                },
                {
                    "name": "E4",
                    "midi": 64,
                    "time": 80.3125,
                    "velocity": 0.8976377952755905,
                    "duration": 0.3125
                },
                {
                    "name": "F#4",
                    "midi": 66,
                    "time": 80.625,
                    "velocity": 0.6929133858267716,
                    "duration": 0.3125
                },
                {
                    "name": "D#4",
                    "midi": 63,
                    "time": 80.9375,
                    "velocity": 0.6929133858267716,
                    "duration": 0.3125
                },
                {
                    "name": "E4",
                    "midi": 64,
                    "time": 81.25,
                    "velocity": 0.6929133858267716,
                    "duration": 0.061197916666671404
                },
                {
                    "name": "D#4",
                    "midi": 63,
                    "time": 81.5625,
                    "velocity": 0.6929133858267716,
                    "duration": 0.061197916666671404
                },
                {
                    "name": "C#4",
                    "midi": 61,
                    "time": 81.875,
                    "velocity": 0.8976377952755905,
                    "duration": 0.625
                },
                {
                    "name": "B3",
                    "midi": 59,
                    "time": 82.8125,
                    "velocity": 0.6929133858267716,
                    "duration": 0.3125
                },
                {
                    "name": "C#4",
                    "midi": 61,
                    "time": 83.125,
                    "velocity": 0.6929133858267716,
                    "duration": 0.3125
                },
                {
                    "name": "D#4",
                    "midi": 63,
                    "time": 83.4375,
                    "velocity": 0.6929133858267716,
                    "duration": 0.3125
                },
                {
                    "name": "G3",
                    "midi": 55,
                    "time": 83.75,
                    "velocity": 0.8976377952755905,
                    "duration": 1.25
                },
                {
                    "name": "G4",
                    "midi": 67,
                    "time": 83.75,
                    "velocity": 0.8976377952755905,
                    "duration": 1.25
                },
                {
                    "name": "G#5",
                    "midi": 80,
                    "time": 88.75,
                    "velocity": 0.3858267716535433,
                    "duration": 1.25
                },
                {
                    "name": "A5",
                    "midi": 81,
                    "time": 88.75,
                    "velocity": 0.3858267716535433,
                    "duration": 1.25
                },
                {
                    "name": "C#6",
                    "midi": 85,
                    "time": 88.75,
                    "velocity": 0.3858267716535433,
                    "duration": 1.25
                },
                {
                    "name": "F#5",
                    "midi": 78,
                    "time": 90,
                    "velocity": 0.3858267716535433,
                    "duration": 1.25
                },
                {
                    "name": "G#5",
                    "midi": 80,
                    "time": 90,
                    "velocity": 0.3858267716535433,
                    "duration": 1.25
                },
                {
                    "name": "B5",
                    "midi": 83,
                    "time": 90,
                    "velocity": 0.3858267716535433,
                    "duration": 1.25
                },
                {
                    "name": "E5",
                    "midi": 76,
                    "time": 91.25,
                    "velocity": 0.3858267716535433,
                    "duration": 1.25
                },
                {
                    "name": "F#5",
                    "midi": 78,
                    "time": 91.25,
                    "velocity": 0.3858267716535433,
                    "duration": 1.25
                },
                {
                    "name": "A5",
                    "midi": 81,
                    "time": 91.25,
                    "velocity": 0.3858267716535433,
                    "duration": 1.25
                },
                {
                    "name": "C#5",
                    "midi": 73,
                    "time": 92.5,
                    "velocity": 0.3858267716535433,
                    "duration": 1.25
                },
                {
                    "name": "D#5",
                    "midi": 75,
                    "time": 92.5,
                    "velocity": 0.3858267716535433,
                    "duration": 1.25
                },
                {
                    "name": "G5",
                    "midi": 79,
                    "time": 92.5,
                    "velocity": 0.3858267716535433,
                    "duration": 1.25
                },
                {
                    "name": "A#4",
                    "midi": 70,
                    "time": 93.75,
                    "velocity": 0.4881889763779528,
                    "duration": 0.029947916666671404
                },
                {
                    "name": "D#5",
                    "midi": 75,
                    "time": 93.75,
                    "velocity": 0.4881889763779528,
                    "duration": 0.029947916666671404
                },
                {
                    "name": "C5",
                    "midi": 72,
                    "time": 93.90625,
                    "velocity": 0.4881889763779528,
                    "duration": 0.029947916666671404
                },
                {
                    "name": "F5",
                    "midi": 77,
                    "time": 93.90625,
                    "velocity": 0.4881889763779528,
                    "duration": 0.029947916666671404
                },
                {
                    "name": "D5",
                    "midi": 74,
                    "time": 94.0625,
                    "velocity": 0.4881889763779528,
                    "duration": 0.029947916666671404
                },
                {
                    "name": "G5",
                    "midi": 79,
                    "time": 94.0625,
                    "velocity": 0.4881889763779528,
                    "duration": 0.029947916666671404
                },
                {
                    "name": "D#5",
                    "midi": 75,
                    "time": 94.21875,
                    "velocity": 0.4881889763779528,
                    "duration": 0.029947916666671404
                },
                {
                    "name": "G#5",
                    "midi": 80,
                    "time": 94.21875,
                    "velocity": 0.4881889763779528,
                    "duration": 0.029947916666671404
                },
                {
                    "name": "F5",
                    "midi": 77,
                    "time": 94.375,
                    "velocity": 0.4881889763779528,
                    "duration": 0.029947916666671404
                },
                {
                    "name": "A#5",
                    "midi": 82,
                    "time": 94.375,
                    "velocity": 0.4881889763779528,
                    "duration": 0.029947916666671404
                },
                {
                    "name": "F5",
                    "midi": 77,
                    "time": 94.53125,
                    "velocity": 0.4881889763779528,
                    "duration": 0.029947916666671404
                },
                {
                    "name": "A#5",
                    "midi": 82,
                    "time": 94.53125,
                    "velocity": 0.4881889763779528,
                    "duration": 0.029947916666671404
                },
                {
                    "name": "F5",
                    "midi": 77,
                    "time": 94.6875,
                    "velocity": 0.4881889763779528,
                    "duration": 0.029947916666671404
                },
                {
                    "name": "A#5",
                    "midi": 82,
                    "time": 94.6875,
                    "velocity": 0.4881889763779528,
                    "duration": 0.029947916666671404
                },
                {
                    "name": "F5",
                    "midi": 77,
                    "time": 94.84375,
                    "velocity": 0.4881889763779528,
                    "duration": 0.029947916666671404
                },
                {
                    "name": "A#5",
                    "midi": 82,
                    "time": 94.84375,
                    "velocity": 0.4881889763779528,
                    "duration": 0.029947916666671404
                },
                {
                    "name": "F5",
                    "midi": 77,
                    "time": 95,
                    "velocity": 0.4881889763779528,
                    "duration": 0.029947916666671404
                },
                {
                    "name": "A#5",
                    "midi": 82,
                    "time": 95,
                    "velocity": 0.4881889763779528,
                    "duration": 0.029947916666671404
                },
                {
                    "name": "F5",
                    "midi": 77,
                    "time": 95.15625,
                    "velocity": 0.4881889763779528,
                    "duration": 0.029947916666671404
                },
                {
                    "name": "A#5",
                    "midi": 82,
                    "time": 95.15625,
                    "velocity": 0.4881889763779528,
                    "duration": 0.029947916666671404
                },
                {
                    "name": "F5",
                    "midi": 77,
                    "time": 95.3125,
                    "velocity": 0.4881889763779528,
                    "duration": 0.029947916666671404
                },
                {
                    "name": "A#5",
                    "midi": 82,
                    "time": 95.3125,
                    "velocity": 0.4881889763779528,
                    "duration": 0.029947916666671404
                },
                {
                    "name": "F5",
                    "midi": 77,
                    "time": 95.46875,
                    "velocity": 0.4881889763779528,
                    "duration": 0.029947916666671404
                },
                {
                    "name": "A#5",
                    "midi": 82,
                    "time": 95.46875,
                    "velocity": 0.4881889763779528,
                    "duration": 0.029947916666671404
                },
                {
                    "name": "F5",
                    "midi": 77,
                    "time": 95.625,
                    "velocity": 0.4881889763779528,
                    "duration": 0.029947916666671404
                },
                {
                    "name": "A#5",
                    "midi": 82,
                    "time": 95.625,
                    "velocity": 0.4881889763779528,
                    "duration": 0.029947916666671404
                },
                {
                    "name": "D#5",
                    "midi": 75,
                    "time": 95.78125,
                    "velocity": 0.4881889763779528,
                    "duration": 0.029947916666671404
                },
                {
                    "name": "G#5",
                    "midi": 80,
                    "time": 95.78125,
                    "velocity": 0.4881889763779528,
                    "duration": 0.029947916666671404
                },
                {
                    "name": "D5",
                    "midi": 74,
                    "time": 95.9375,
                    "velocity": 0.4881889763779528,
                    "duration": 0.029947916666671404
                },
                {
                    "name": "G5",
                    "midi": 79,
                    "time": 95.9375,
                    "velocity": 0.4881889763779528,
                    "duration": 0.029947916666671404
                },
                {
                    "name": "C5",
                    "midi": 72,
                    "time": 96.09375,
                    "velocity": 0.4881889763779528,
                    "duration": 0.029947916666671404
                },
                {
                    "name": "F5",
                    "midi": 77,
                    "time": 96.09375,
                    "velocity": 0.4881889763779528,
                    "duration": 0.029947916666671404
                },
                {
                    "name": "G#5",
                    "midi": 80,
                    "time": 96.25,
                    "velocity": 0.4881889763779528,
                    "duration": 1.25
                },
                {
                    "name": "A5",
                    "midi": 81,
                    "time": 96.25,
                    "velocity": 0.4881889763779528,
                    "duration": 1.25
                },
                {
                    "name": "C#6",
                    "midi": 85,
                    "time": 96.25,
                    "velocity": 0.4881889763779528,
                    "duration": 1.25
                },
                {
                    "name": "F#5",
                    "midi": 78,
                    "time": 97.5,
                    "velocity": 0.4881889763779528,
                    "duration": 1.25
                },
                {
                    "name": "G#5",
                    "midi": 80,
                    "time": 97.5,
                    "velocity": 0.4881889763779528,
                    "duration": 1.25
                },
                {
                    "name": "B5",
                    "midi": 83,
                    "time": 97.5,
                    "velocity": 0.4881889763779528,
                    "duration": 1.25
                },
                {
                    "name": "E5",
                    "midi": 76,
                    "time": 98.75,
                    "velocity": 0.4881889763779528,
                    "duration": 1.25
                },
                {
                    "name": "F#5",
                    "midi": 78,
                    "time": 98.75,
                    "velocity": 0.4881889763779528,
                    "duration": 1.25
                },
                {
                    "name": "A5",
                    "midi": 81,
                    "time": 98.75,
                    "velocity": 0.4881889763779528,
                    "duration": 1.25
                },
                {
                    "name": "D5",
                    "midi": 74,
                    "time": 100,
                    "velocity": 0.4881889763779528,
                    "duration": 1.25
                },
                {
                    "name": "F5",
                    "midi": 77,
                    "time": 100,
                    "velocity": 0.4881889763779528,
                    "duration": 1.25
                },
                {
                    "name": "G#5",
                    "midi": 80,
                    "time": 100,
                    "velocity": 0.4881889763779528,
                    "duration": 1.25
                },
                {
                    "name": "F#5",
                    "midi": 78,
                    "time": 101.25,
                    "velocity": 0.4881889763779528,
                    "duration": 0.20703125
                },
                {
                    "name": "A5",
                    "midi": 81,
                    "time": 101.25,
                    "velocity": 0.4881889763779528,
                    "duration": 0.20703125
                },
                {
                    "name": "C#6",
                    "midi": 85,
                    "time": 101.25,
                    "velocity": 0.4881889763779528,
                    "duration": 0.20703125
                },
                {
                    "name": "G#5",
                    "midi": 80,
                    "time": 101.45703125,
                    "velocity": 0.4881889763779528,
                    "duration": 0.2096354166666714
                },
                {
                    "name": "B5",
                    "midi": 83,
                    "time": 101.45703125,
                    "velocity": 0.4881889763779528,
                    "duration": 0.2096354166666714
                },
                {
                    "name": "D#6",
                    "midi": 87,
                    "time": 101.45703125,
                    "velocity": 0.4881889763779528,
                    "duration": 0.2096354166666714
                },
                {
                    "name": "F#5",
                    "midi": 78,
                    "time": 101.66666666666667,
                    "velocity": 0.4881889763779528,
                    "duration": 0.2083333333333286
                },
                {
                    "name": "A5",
                    "midi": 81,
                    "time": 101.66666666666667,
                    "velocity": 0.4881889763779528,
                    "duration": 0.2083333333333286
                },
                {
                    "name": "C#6",
                    "midi": 85,
                    "time": 101.66666666666667,
                    "velocity": 0.4881889763779528,
                    "duration": 0.2083333333333286
                },
                {
                    "name": "F#5",
                    "midi": 78,
                    "time": 101.875,
                    "velocity": 0.4881889763779528,
                    "duration": 0.20703125
                },
                {
                    "name": "A#5",
                    "midi": 82,
                    "time": 101.875,
                    "velocity": 0.4881889763779528,
                    "duration": 0.20703125
                },
                {
                    "name": "D6",
                    "midi": 86,
                    "time": 101.875,
                    "velocity": 0.4881889763779528,
                    "duration": 0.20703125
                },
                {
                    "name": "G#5",
                    "midi": 80,
                    "time": 102.08203125,
                    "velocity": 0.4881889763779528,
                    "duration": 0.2096354166666714
                },
                {
                    "name": "C6",
                    "midi": 84,
                    "time": 102.08203125,
                    "velocity": 0.4881889763779528,
                    "duration": 0.2096354166666714
                },
                {
                    "name": "E6",
                    "midi": 88,
                    "time": 102.08203125,
                    "velocity": 0.4881889763779528,
                    "duration": 0.2096354166666714
                },
                {
                    "name": "F#5",
                    "midi": 78,
                    "time": 102.29166666666667,
                    "velocity": 0.4881889763779528,
                    "duration": 0.2083333333333286
                },
                {
                    "name": "A#5",
                    "midi": 82,
                    "time": 102.29166666666667,
                    "velocity": 0.4881889763779528,
                    "duration": 0.2083333333333286
                },
                {
                    "name": "D6",
                    "midi": 86,
                    "time": 102.29166666666667,
                    "velocity": 0.4881889763779528,
                    "duration": 0.2083333333333286
                },
                {
                    "name": "F#5",
                    "midi": 78,
                    "time": 102.5,
                    "velocity": 0.4881889763779528,
                    "duration": 0.20703125
                },
                {
                    "name": "C6",
                    "midi": 84,
                    "time": 102.5,
                    "velocity": 0.4881889763779528,
                    "duration": 0.20703125
                },
                {
                    "name": "D#6",
                    "midi": 87,
                    "time": 102.5,
                    "velocity": 0.4881889763779528,
                    "duration": 0.20703125
                },
                {
                    "name": "G#5",
                    "midi": 80,
                    "time": 102.70703125,
                    "velocity": 0.4881889763779528,
                    "duration": 0.2096354166666714
                },
                {
                    "name": "C#6",
                    "midi": 85,
                    "time": 102.70703125,
                    "velocity": 0.4881889763779528,
                    "duration": 0.2096354166666714
                },
                {
                    "name": "F6",
                    "midi": 89,
                    "time": 102.70703125,
                    "velocity": 0.4881889763779528,
                    "duration": 0.2096354166666714
                },
                {
                    "name": "F#5",
                    "midi": 78,
                    "time": 102.91666666666667,
                    "velocity": 0.4881889763779528,
                    "duration": 0.2083333333333286
                },
                {
                    "name": "C6",
                    "midi": 84,
                    "time": 102.91666666666667,
                    "velocity": 0.4881889763779528,
                    "duration": 0.2083333333333286
                },
                {
                    "name": "D#6",
                    "midi": 87,
                    "time": 102.91666666666667,
                    "velocity": 0.4881889763779528,
                    "duration": 0.2083333333333286
                },
                {
                    "name": "F#5",
                    "midi": 78,
                    "time": 103.125,
                    "velocity": 0.4881889763779528,
                    "duration": 0.20703125
                },
                {
                    "name": "A#5",
                    "midi": 82,
                    "time": 103.125,
                    "velocity": 0.4881889763779528,
                    "duration": 0.20703125
                },
                {
                    "name": "D6",
                    "midi": 86,
                    "time": 103.125,
                    "velocity": 0.4881889763779528,
                    "duration": 0.20703125
                },
                {
                    "name": "G#5",
                    "midi": 80,
                    "time": 103.33203125,
                    "velocity": 0.4881889763779528,
                    "duration": 0.2096354166666714
                },
                {
                    "name": "C6",
                    "midi": 84,
                    "time": 103.33203125,
                    "velocity": 0.4881889763779528,
                    "duration": 0.2096354166666714
                },
                {
                    "name": "E6",
                    "midi": 88,
                    "time": 103.33203125,
                    "velocity": 0.4881889763779528,
                    "duration": 0.2096354166666714
                },
                {
                    "name": "F#5",
                    "midi": 78,
                    "time": 103.54166666666667,
                    "velocity": 0.4881889763779528,
                    "duration": 0.2083333333333286
                },
                {
                    "name": "A#5",
                    "midi": 82,
                    "time": 103.54166666666667,
                    "velocity": 0.4881889763779528,
                    "duration": 0.2083333333333286
                },
                {
                    "name": "D6",
                    "midi": 86,
                    "time": 103.54166666666667,
                    "velocity": 0.4881889763779528,
                    "duration": 0.2083333333333286
                },
                {
                    "name": "F#5",
                    "midi": 78,
                    "time": 103.75,
                    "velocity": 0.4881889763779528,
                    "duration": 0.20703125
                },
                {
                    "name": "A5",
                    "midi": 81,
                    "time": 103.75,
                    "velocity": 0.4881889763779528,
                    "duration": 0.20703125
                },
                {
                    "name": "C#6",
                    "midi": 85,
                    "time": 103.75,
                    "velocity": 0.4881889763779528,
                    "duration": 0.20703125
                },
                {
                    "name": "G#5",
                    "midi": 80,
                    "time": 103.95703125,
                    "velocity": 0.4881889763779528,
                    "duration": 0.2096354166666714
                },
                {
                    "name": "B5",
                    "midi": 83,
                    "time": 103.95703125,
                    "velocity": 0.4881889763779528,
                    "duration": 0.2096354166666714
                },
                {
                    "name": "D#6",
                    "midi": 87,
                    "time": 103.95703125,
                    "velocity": 0.4881889763779528,
                    "duration": 0.2096354166666714
                },
                {
                    "name": "F#5",
                    "midi": 78,
                    "time": 104.16666666666667,
                    "velocity": 0.4881889763779528,
                    "duration": 0.2083333333333286
                },
                {
                    "name": "A5",
                    "midi": 81,
                    "time": 104.16666666666667,
                    "velocity": 0.4881889763779528,
                    "duration": 0.2083333333333286
                },
                {
                    "name": "C#6",
                    "midi": 85,
                    "time": 104.16666666666667,
                    "velocity": 0.4881889763779528,
                    "duration": 0.2083333333333286
                },
                {
                    "name": "F#5",
                    "midi": 78,
                    "time": 104.375,
                    "velocity": 0.4881889763779528,
                    "duration": 0.20703125
                },
                {
                    "name": "A#5",
                    "midi": 82,
                    "time": 104.375,
                    "velocity": 0.4881889763779528,
                    "duration": 0.20703125
                },
                {
                    "name": "D6",
                    "midi": 86,
                    "time": 104.375,
                    "velocity": 0.4881889763779528,
                    "duration": 0.20703125
                },
                {
                    "name": "G#5",
                    "midi": 80,
                    "time": 104.58203125,
                    "velocity": 0.4881889763779528,
                    "duration": 0.2096354166666714
                },
                {
                    "name": "C6",
                    "midi": 84,
                    "time": 104.58203125,
                    "velocity": 0.4881889763779528,
                    "duration": 0.2096354166666714
                },
                {
                    "name": "E6",
                    "midi": 88,
                    "time": 104.58203125,
                    "velocity": 0.4881889763779528,
                    "duration": 0.2096354166666714
                },
                {
                    "name": "F#5",
                    "midi": 78,
                    "time": 104.79166666666667,
                    "velocity": 0.4881889763779528,
                    "duration": 0.2083333333333286
                },
                {
                    "name": "A#5",
                    "midi": 82,
                    "time": 104.79166666666667,
                    "velocity": 0.4881889763779528,
                    "duration": 0.2083333333333286
                },
                {
                    "name": "D6",
                    "midi": 86,
                    "time": 104.79166666666667,
                    "velocity": 0.4881889763779528,
                    "duration": 0.2083333333333286
                },
                {
                    "name": "F#5",
                    "midi": 78,
                    "time": 105,
                    "velocity": 0.4881889763779528,
                    "duration": 0.20703125
                },
                {
                    "name": "C6",
                    "midi": 84,
                    "time": 105,
                    "velocity": 0.4881889763779528,
                    "duration": 0.20703125
                },
                {
                    "name": "D#6",
                    "midi": 87,
                    "time": 105,
                    "velocity": 0.4881889763779528,
                    "duration": 0.20703125
                },
                {
                    "name": "G#5",
                    "midi": 80,
                    "time": 105.20703125,
                    "velocity": 0.4881889763779528,
                    "duration": 0.2096354166666714
                },
                {
                    "name": "C#6",
                    "midi": 85,
                    "time": 105.20703125,
                    "velocity": 0.4881889763779528,
                    "duration": 0.2096354166666714
                },
                {
                    "name": "F6",
                    "midi": 89,
                    "time": 105.20703125,
                    "velocity": 0.4881889763779528,
                    "duration": 0.2096354166666714
                },
                {
                    "name": "F#5",
                    "midi": 78,
                    "time": 105.41666666666667,
                    "velocity": 0.4881889763779528,
                    "duration": 0.2083333333333286
                },
                {
                    "name": "C6",
                    "midi": 84,
                    "time": 105.41666666666667,
                    "velocity": 0.4881889763779528,
                    "duration": 0.2083333333333286
                },
                {
                    "name": "D#6",
                    "midi": 87,
                    "time": 105.41666666666667,
                    "velocity": 0.4881889763779528,
                    "duration": 0.2083333333333286
                },
                {
                    "name": "F#5",
                    "midi": 78,
                    "time": 105.625,
                    "velocity": 0.4881889763779528,
                    "duration": 0.20703125
                },
                {
                    "name": "A#5",
                    "midi": 82,
                    "time": 105.625,
                    "velocity": 0.4881889763779528,
                    "duration": 0.20703125
                },
                {
                    "name": "D6",
                    "midi": 86,
                    "time": 105.625,
                    "velocity": 0.4881889763779528,
                    "duration": 0.20703125
                },
                {
                    "name": "G#5",
                    "midi": 80,
                    "time": 105.83203125,
                    "velocity": 0.4881889763779528,
                    "duration": 0.2096354166666714
                },
                {
                    "name": "C6",
                    "midi": 84,
                    "time": 105.83203125,
                    "velocity": 0.4881889763779528,
                    "duration": 0.2096354166666714
                },
                {
                    "name": "E6",
                    "midi": 88,
                    "time": 105.83203125,
                    "velocity": 0.4881889763779528,
                    "duration": 0.2096354166666714
                },
                {
                    "name": "F#5",
                    "midi": 78,
                    "time": 106.04166666666667,
                    "velocity": 0.4881889763779528,
                    "duration": 0.2083333333333286
                },
                {
                    "name": "A#5",
                    "midi": 82,
                    "time": 106.04166666666667,
                    "velocity": 0.4881889763779528,
                    "duration": 0.2083333333333286
                },
                {
                    "name": "D6",
                    "midi": 86,
                    "time": 106.04166666666667,
                    "velocity": 0.4881889763779528,
                    "duration": 0.2083333333333286
                },
                {
                    "name": "G#4",
                    "midi": 68,
                    "time": 107.1875,
                    "velocity": 0.8976377952755905,
                    "duration": 0.061197916666671404
                },
                {
                    "name": "F#4",
                    "midi": 66,
                    "time": 107.5,
                    "velocity": 0.8976377952755905,
                    "duration": 1.25
                },
                {
                    "name": "G#4",
                    "midi": 68,
                    "time": 109.6875,
                    "velocity": 0.8976377952755905,
                    "duration": 0.061197916666671404
                },
                {
                    "name": "F#4",
                    "midi": 66,
                    "time": 110,
                    "velocity": 0.8976377952755905,
                    "duration": 1.25
                },
                {
                    "name": "G#4",
                    "midi": 68,
                    "time": 112.1875,
                    "velocity": 0.8976377952755905,
                    "duration": 0.061197916666671404
                },
                {
                    "name": "F#4",
                    "midi": 66,
                    "time": 112.5,
                    "velocity": 0.7952755905511811,
                    "duration": 0.20703125
                },
                {
                    "name": "C#6",
                    "midi": 85,
                    "time": 112.5,
                    "velocity": 0.7952755905511811,
                    "duration": 0.20703125
                },
                {
                    "name": "D#6",
                    "midi": 87,
                    "time": 112.70703125,
                    "velocity": 0.5905511811023622,
                    "duration": 0.2096354166666714
                },
                {
                    "name": "C#6",
                    "midi": 85,
                    "time": 112.91666666666667,
                    "velocity": 0.5905511811023622,
                    "duration": 0.2083333333333286
                },
                {
                    "name": "A#5",
                    "midi": 82,
                    "time": 113.125,
                    "velocity": 0.5905511811023622,
                    "duration": 0.20703125
                },
                {
                    "name": "B5",
                    "midi": 83,
                    "time": 113.33203125,
                    "velocity": 0.5905511811023622,
                    "duration": 0.2096354166666714
                },
                {
                    "name": "A#5",
                    "midi": 82,
                    "time": 113.54166666666667,
                    "velocity": 0.5905511811023622,
                    "duration": 0.2083333333333286
                },
                {
                    "name": "G5",
                    "midi": 79,
                    "time": 113.75,
                    "velocity": 0.5905511811023622,
                    "duration": 0.20703125
                },
                {
                    "name": "G#5",
                    "midi": 80,
                    "time": 113.95703125,
                    "velocity": 0.5905511811023622,
                    "duration": 0.2096354166666714
                },
                {
                    "name": "G5",
                    "midi": 79,
                    "time": 114.16666666666667,
                    "velocity": 0.5905511811023622,
                    "duration": 0.2083333333333286
                },
                {
                    "name": "F#5",
                    "midi": 78,
                    "time": 114.375,
                    "velocity": 0.5905511811023622,
                    "duration": 0.20703125
                },
                {
                    "name": "G5",
                    "midi": 79,
                    "time": 114.58203125,
                    "velocity": 0.5905511811023622,
                    "duration": 0.2096354166666714
                },
                {
                    "name": "F#5",
                    "midi": 78,
                    "time": 114.79166666666667,
                    "velocity": 0.5905511811023622,
                    "duration": 0.2083333333333286
                },
                {
                    "name": "C#5",
                    "midi": 73,
                    "time": 115,
                    "velocity": 0.5905511811023622,
                    "duration": 0.20703125
                },
                {
                    "name": "D#5",
                    "midi": 75,
                    "time": 115.20703125,
                    "velocity": 0.5905511811023622,
                    "duration": 0.2096354166666714
                },
                {
                    "name": "C#5",
                    "midi": 73,
                    "time": 115.41666666666667,
                    "velocity": 0.5905511811023622,
                    "duration": 0.2083333333333286
                },
                {
                    "name": "A#4",
                    "midi": 70,
                    "time": 115.625,
                    "velocity": 0.5905511811023622,
                    "duration": 0.20703125
                },
                {
                    "name": "B4",
                    "midi": 71,
                    "time": 115.83203125,
                    "velocity": 0.5905511811023622,
                    "duration": 0.2096354166666714
                },
                {
                    "name": "A#4",
                    "midi": 70,
                    "time": 116.04166666666667,
                    "velocity": 0.5905511811023622,
                    "duration": 0.2083333333333286
                },
                {
                    "name": "G4",
                    "midi": 67,
                    "time": 116.25,
                    "velocity": 0.5905511811023622,
                    "duration": 0.20703125
                },
                {
                    "name": "G#4",
                    "midi": 68,
                    "time": 116.45703125,
                    "velocity": 0.5905511811023622,
                    "duration": 0.2096354166666714
                },
                {
                    "name": "G4",
                    "midi": 67,
                    "time": 116.66666666666667,
                    "velocity": 0.5905511811023622,
                    "duration": 0.2083333333333286
                },
                {
                    "name": "F#4",
                    "midi": 66,
                    "time": 116.875,
                    "velocity": 0.5905511811023622,
                    "duration": 0.20703125
                },
                {
                    "name": "G4",
                    "midi": 67,
                    "time": 117.08203125,
                    "velocity": 0.5905511811023622,
                    "duration": 0.2096354166666714
                },
                {
                    "name": "F#4",
                    "midi": 66,
                    "time": 117.29166666666667,
                    "velocity": 0.5905511811023622,
                    "duration": 0.2083333333333286
                },
                {
                    "name": "G#4",
                    "midi": 68,
                    "time": 118.4375,
                    "velocity": 0.8976377952755905,
                    "duration": 0.061197916666671404
                },
                {
                    "name": "F#4",
                    "midi": 66,
                    "time": 118.75,
                    "velocity": 0.8976377952755905,
                    "duration": 1.25
                },
                {
                    "name": "G#4",
                    "midi": 68,
                    "time": 120.9375,
                    "velocity": 0.8976377952755905,
                    "duration": 0.061197916666671404
                },
                {
                    "name": "F#4",
                    "midi": 66,
                    "time": 121.25,
                    "velocity": 0.8976377952755905,
                    "duration": 1.25
                },
                {
                    "name": "G#4",
                    "midi": 68,
                    "time": 123.4375,
                    "velocity": 0.8976377952755905,
                    "duration": 0.061197916666671404
                },
                {
                    "name": "G4",
                    "midi": 67,
                    "time": 123.75,
                    "velocity": 0.5905511811023622,
                    "duration": 0.20703125
                },
                {
                    "name": "D6",
                    "midi": 86,
                    "time": 123.75,
                    "velocity": 0.5905511811023622,
                    "duration": 0.20703125
                },
                {
                    "name": "E6",
                    "midi": 88,
                    "time": 123.95703125,
                    "velocity": 0.5905511811023622,
                    "duration": 0.2096354166666714
                },
                {
                    "name": "D6",
                    "midi": 86,
                    "time": 124.16666666666667,
                    "velocity": 0.5905511811023622,
                    "duration": 0.2083333333333286
                },
                {
                    "name": "B5",
                    "midi": 83,
                    "time": 124.375,
                    "velocity": 0.5905511811023622,
                    "duration": 0.20703125
                },
                {
                    "name": "C6",
                    "midi": 84,
                    "time": 124.58203125,
                    "velocity": 0.5905511811023622,
                    "duration": 0.2096354166666714
                },
                {
                    "name": "B5",
                    "midi": 83,
                    "time": 124.79166666666667,
                    "velocity": 0.5905511811023622,
                    "duration": 0.2083333333333286
                },
                {
                    "name": "G#5",
                    "midi": 80,
                    "time": 125,
                    "velocity": 0.5905511811023622,
                    "duration": 0.20703125
                },
                {
                    "name": "A5",
                    "midi": 81,
                    "time": 125.20703125,
                    "velocity": 0.5905511811023622,
                    "duration": 0.2096354166666714
                },
                {
                    "name": "G#5",
                    "midi": 80,
                    "time": 125.41666666666667,
                    "velocity": 0.5905511811023622,
                    "duration": 0.2083333333333286
                },
                {
                    "name": "G5",
                    "midi": 79,
                    "time": 125.625,
                    "velocity": 0.5905511811023622,
                    "duration": 0.20703125
                },
                {
                    "name": "G#5",
                    "midi": 80,
                    "time": 125.83203125,
                    "velocity": 0.5905511811023622,
                    "duration": 0.2096354166666714
                },
                {
                    "name": "G5",
                    "midi": 79,
                    "time": 126.04166666666667,
                    "velocity": 0.5905511811023622,
                    "duration": 0.2083333333333286
                },
                {
                    "name": "D5",
                    "midi": 74,
                    "time": 126.25,
                    "velocity": 0.5905511811023622,
                    "duration": 0.20703125
                },
                {
                    "name": "E5",
                    "midi": 76,
                    "time": 126.45703125,
                    "velocity": 0.5905511811023622,
                    "duration": 0.2096354166666714
                },
                {
                    "name": "D5",
                    "midi": 74,
                    "time": 126.66666666666667,
                    "velocity": 0.5905511811023622,
                    "duration": 0.2083333333333286
                },
                {
                    "name": "B4",
                    "midi": 71,
                    "time": 126.875,
                    "velocity": 0.5905511811023622,
                    "duration": 0.20703125
                },
                {
                    "name": "C5",
                    "midi": 72,
                    "time": 127.08203125,
                    "velocity": 0.5905511811023622,
                    "duration": 0.2096354166666714
                },
                {
                    "name": "B4",
                    "midi": 71,
                    "time": 127.29166666666667,
                    "velocity": 0.5905511811023622,
                    "duration": 0.2083333333333286
                },
                {
                    "name": "G#4",
                    "midi": 68,
                    "time": 127.5,
                    "velocity": 0.5905511811023622,
                    "duration": 0.20703125
                },
                {
                    "name": "A4",
                    "midi": 69,
                    "time": 127.70703125,
                    "velocity": 0.5905511811023622,
                    "duration": 0.2096354166666714
                },
                {
                    "name": "G#4",
                    "midi": 68,
                    "time": 127.91666666666667,
                    "velocity": 0.5905511811023622,
                    "duration": 0.2083333333333286
                },
                {
                    "name": "G4",
                    "midi": 67,
                    "time": 128.125,
                    "velocity": 0.5905511811023622,
                    "duration": 0.20703125
                },
                {
                    "name": "G#4",
                    "midi": 68,
                    "time": 128.33203125,
                    "velocity": 0.5905511811023622,
                    "duration": 0.2096354166666572
                },
                {
                    "name": "G4",
                    "midi": 67,
                    "time": 128.54166666666666,
                    "velocity": 0.5905511811023622,
                    "duration": 0.2083333333333428
                },
                {
                    "name": "G#4",
                    "midi": 68,
                    "time": 128.75,
                    "velocity": 0.7952755905511811,
                    "duration": 0.625
                },
                {
                    "name": "F#4",
                    "midi": 66,
                    "time": 129.375,
                    "velocity": 0.7952755905511811,
                    "duration": 0.625
                },
                {
                    "name": "E4",
                    "midi": 64,
                    "time": 130,
                    "velocity": 0.7952755905511811,
                    "duration": 0.625
                },
                {
                    "name": "D#4",
                    "midi": 63,
                    "time": 130.625,
                    "velocity": 0.7952755905511811,
                    "duration": 0.625
                },
                {
                    "name": "A#4",
                    "midi": 70,
                    "time": 131.25,
                    "velocity": 0.5905511811023622,
                    "duration": 0.15625
                },
                {
                    "name": "D#5",
                    "midi": 75,
                    "time": 131.25,
                    "velocity": 0.5905511811023622,
                    "duration": 0.15625
                },
                {
                    "name": "C5",
                    "midi": 72,
                    "time": 131.40625,
                    "velocity": 0.5905511811023622,
                    "duration": 0.15625
                },
                {
                    "name": "F5",
                    "midi": 77,
                    "time": 131.40625,
                    "velocity": 0.5905511811023622,
                    "duration": 0.15625
                },
                {
                    "name": "D5",
                    "midi": 74,
                    "time": 131.5625,
                    "velocity": 0.5905511811023622,
                    "duration": 0.029947916666657193
                },
                {
                    "name": "G5",
                    "midi": 79,
                    "time": 131.5625,
                    "velocity": 0.5905511811023622,
                    "duration": 0.029947916666657193
                },
                {
                    "name": "D#5",
                    "midi": 75,
                    "time": 131.71875,
                    "velocity": 0.5905511811023622,
                    "duration": 0.029947916666657193
                },
                {
                    "name": "G#5",
                    "midi": 80,
                    "time": 131.71875,
                    "velocity": 0.5905511811023622,
                    "duration": 0.029947916666657193
                },
                {
                    "name": "F5",
                    "midi": 77,
                    "time": 131.875,
                    "velocity": 0.5905511811023622,
                    "duration": 0.029947916666657193
                },
                {
                    "name": "A#5",
                    "midi": 82,
                    "time": 131.875,
                    "velocity": 0.5905511811023622,
                    "duration": 0.029947916666657193
                },
                {
                    "name": "F5",
                    "midi": 77,
                    "time": 132.03125,
                    "velocity": 0.5905511811023622,
                    "duration": 0.029947916666657193
                },
                {
                    "name": "A#5",
                    "midi": 82,
                    "time": 132.03125,
                    "velocity": 0.5905511811023622,
                    "duration": 0.029947916666657193
                },
                {
                    "name": "F5",
                    "midi": 77,
                    "time": 132.1875,
                    "velocity": 0.5905511811023622,
                    "duration": 0.029947916666657193
                },
                {
                    "name": "A#5",
                    "midi": 82,
                    "time": 132.1875,
                    "velocity": 0.5905511811023622,
                    "duration": 0.029947916666657193
                },
                {
                    "name": "F5",
                    "midi": 77,
                    "time": 132.34375,
                    "velocity": 0.5905511811023622,
                    "duration": 0.029947916666657193
                },
                {
                    "name": "A#5",
                    "midi": 82,
                    "time": 132.34375,
                    "velocity": 0.5905511811023622,
                    "duration": 0.029947916666657193
                },
                {
                    "name": "F5",
                    "midi": 77,
                    "time": 132.5,
                    "velocity": 0.5905511811023622,
                    "duration": 0.029947916666657193
                },
                {
                    "name": "A#5",
                    "midi": 82,
                    "time": 132.5,
                    "velocity": 0.5905511811023622,
                    "duration": 0.029947916666657193
                },
                {
                    "name": "F5",
                    "midi": 77,
                    "time": 132.65625,
                    "velocity": 0.5905511811023622,
                    "duration": 0.029947916666657193
                },
                {
                    "name": "A#5",
                    "midi": 82,
                    "time": 132.65625,
                    "velocity": 0.5905511811023622,
                    "duration": 0.029947916666657193
                },
                {
                    "name": "F5",
                    "midi": 77,
                    "time": 132.8125,
                    "velocity": 0.5905511811023622,
                    "duration": 0.029947916666657193
                },
                {
                    "name": "A#5",
                    "midi": 82,
                    "time": 132.8125,
                    "velocity": 0.5905511811023622,
                    "duration": 0.029947916666657193
                },
                {
                    "name": "F5",
                    "midi": 77,
                    "time": 132.96875,
                    "velocity": 0.5905511811023622,
                    "duration": 0.029947916666657193
                },
                {
                    "name": "A#5",
                    "midi": 82,
                    "time": 132.96875,
                    "velocity": 0.5905511811023622,
                    "duration": 0.029947916666657193
                },
                {
                    "name": "F5",
                    "midi": 77,
                    "time": 133.125,
                    "velocity": 0.5905511811023622,
                    "duration": 0.029947916666657193
                },
                {
                    "name": "A#5",
                    "midi": 82,
                    "time": 133.125,
                    "velocity": 0.5905511811023622,
                    "duration": 0.029947916666657193
                },
                {
                    "name": "D#5",
                    "midi": 75,
                    "time": 133.28125,
                    "velocity": 0.5905511811023622,
                    "duration": 0.029947916666657193
                },
                {
                    "name": "G#5",
                    "midi": 80,
                    "time": 133.28125,
                    "velocity": 0.5905511811023622,
                    "duration": 0.029947916666657193
                },
                {
                    "name": "D5",
                    "midi": 74,
                    "time": 133.4375,
                    "velocity": 0.5905511811023622,
                    "duration": 0.029947916666657193
                },
                {
                    "name": "G5",
                    "midi": 79,
                    "time": 133.4375,
                    "velocity": 0.5905511811023622,
                    "duration": 0.029947916666657193
                },
                {
                    "name": "C5",
                    "midi": 72,
                    "time": 133.59375,
                    "velocity": 0.5905511811023622,
                    "duration": 0.029947916666657193
                },
                {
                    "name": "F5",
                    "midi": 77,
                    "time": 133.59375,
                    "velocity": 0.5905511811023622,
                    "duration": 0.029947916666657193
                },
                {
                    "name": "G#4",
                    "midi": 68,
                    "time": 133.75,
                    "velocity": 0.7952755905511811,
                    "duration": 0.625
                },
                {
                    "name": "F#4",
                    "midi": 66,
                    "time": 134.375,
                    "velocity": 0.7952755905511811,
                    "duration": 0.625
                },
                {
                    "name": "E4",
                    "midi": 64,
                    "time": 135,
                    "velocity": 0.7952755905511811,
                    "duration": 0.625
                },
                {
                    "name": "D#4",
                    "midi": 63,
                    "time": 135.625,
                    "velocity": 0.7952755905511811,
                    "duration": 0.625
                },
                {
                    "name": "E5",
                    "midi": 76,
                    "time": 137.5,
                    "velocity": 0.5905511811023622,
                    "duration": 0.15625
                },
                {
                    "name": "F#5",
                    "midi": 78,
                    "time": 137.65625,
                    "velocity": 0.5905511811023622,
                    "duration": 0.15625
                },
                {
                    "name": "G#5",
                    "midi": 80,
                    "time": 137.8125,
                    "velocity": 0.5905511811023622,
                    "duration": 0.029947916666657193
                },
                {
                    "name": "A5",
                    "midi": 81,
                    "time": 137.96875,
                    "velocity": 0.5905511811023622,
                    "duration": 0.029947916666657193
                },
                {
                    "name": "B5",
                    "midi": 83,
                    "time": 138.125,
                    "velocity": 0.5905511811023622,
                    "duration": 0.029947916666657193
                },
                {
                    "name": "B5",
                    "midi": 83,
                    "time": 138.28125,
                    "velocity": 0.5905511811023622,
                    "duration": 0.029947916666657193
                },
                {
                    "name": "B5",
                    "midi": 83,
                    "time": 138.4375,
                    "velocity": 0.5905511811023622,
                    "duration": 0.029947916666657193
                },
                {
                    "name": "B5",
                    "midi": 83,
                    "time": 138.59375,
                    "velocity": 0.5905511811023622,
                    "duration": 0.029947916666657193
                },
                {
                    "name": "B5",
                    "midi": 83,
                    "time": 138.75,
                    "velocity": 0.5905511811023622,
                    "duration": 0.029947916666657193
                },
                {
                    "name": "B5",
                    "midi": 83,
                    "time": 138.90625,
                    "velocity": 0.5905511811023622,
                    "duration": 0.029947916666657193
                },
                {
                    "name": "B5",
                    "midi": 83,
                    "time": 139.0625,
                    "velocity": 0.5905511811023622,
                    "duration": 0.029947916666657193
                },
                {
                    "name": "B5",
                    "midi": 83,
                    "time": 139.21875,
                    "velocity": 0.5905511811023622,
                    "duration": 0.029947916666657193
                },
                {
                    "name": "B5",
                    "midi": 83,
                    "time": 139.375,
                    "velocity": 0.5905511811023622,
                    "duration": 0.029947916666657193
                },
                {
                    "name": "A5",
                    "midi": 81,
                    "time": 139.53125,
                    "velocity": 0.5905511811023622,
                    "duration": 0.029947916666657193
                },
                {
                    "name": "G#5",
                    "midi": 80,
                    "time": 139.6875,
                    "velocity": 0.5905511811023622,
                    "duration": 0.029947916666657193
                },
                {
                    "name": "F#5",
                    "midi": 78,
                    "time": 139.84375,
                    "velocity": 0.5905511811023622,
                    "duration": 0.029947916666657193
                },
                {
                    "name": "E5",
                    "midi": 76,
                    "time": 140,
                    "velocity": 0.5905511811023622,
                    "duration": 0.15625
                },
                {
                    "name": "F#5",
                    "midi": 78,
                    "time": 140.15625,
                    "velocity": 0.5905511811023622,
                    "duration": 0.15625
                },
                {
                    "name": "G#5",
                    "midi": 80,
                    "time": 140.3125,
                    "velocity": 0.5905511811023622,
                    "duration": 0.029947916666657193
                },
                {
                    "name": "A5",
                    "midi": 81,
                    "time": 140.46875,
                    "velocity": 0.5905511811023622,
                    "duration": 0.029947916666657193
                },
                {
                    "name": "B5",
                    "midi": 83,
                    "time": 140.625,
                    "velocity": 0.5905511811023622,
                    "duration": 0.029947916666657193
                },
                {
                    "name": "B5",
                    "midi": 83,
                    "time": 140.78125,
                    "velocity": 0.5905511811023622,
                    "duration": 0.029947916666657193
                },
                {
                    "name": "B5",
                    "midi": 83,
                    "time": 140.9375,
                    "velocity": 0.5905511811023622,
                    "duration": 0.029947916666657193
                },
                {
                    "name": "B5",
                    "midi": 83,
                    "time": 141.09375,
                    "velocity": 0.5905511811023622,
                    "duration": 0.029947916666657193
                },
                {
                    "name": "B5",
                    "midi": 83,
                    "time": 141.25,
                    "velocity": 0.5905511811023622,
                    "duration": 0.029947916666657193
                },
                {
                    "name": "B5",
                    "midi": 83,
                    "time": 141.40625,
                    "velocity": 0.5905511811023622,
                    "duration": 0.029947916666657193
                },
                {
                    "name": "B5",
                    "midi": 83,
                    "time": 141.5625,
                    "velocity": 0.5905511811023622,
                    "duration": 0.029947916666657193
                },
                {
                    "name": "B5",
                    "midi": 83,
                    "time": 141.71875,
                    "velocity": 0.5905511811023622,
                    "duration": 0.029947916666657193
                },
                {
                    "name": "B5",
                    "midi": 83,
                    "time": 141.875,
                    "velocity": 0.5905511811023622,
                    "duration": 0.15625
                },
                {
                    "name": "A5",
                    "midi": 81,
                    "time": 142.03125,
                    "velocity": 0.5905511811023622,
                    "duration": 0.15625
                },
                {
                    "name": "G#5",
                    "midi": 80,
                    "time": 142.1875,
                    "velocity": 0.5905511811023622,
                    "duration": 0.029947916666657193
                },
                {
                    "name": "F#5",
                    "midi": 78,
                    "time": 142.34375,
                    "velocity": 0.5905511811023622,
                    "duration": 0.029947916666657193
                },
                {
                    "name": "E5",
                    "midi": 76,
                    "time": 142.5,
                    "velocity": 0.5905511811023622,
                    "duration": 0.15625
                },
                {
                    "name": "F#5",
                    "midi": 78,
                    "time": 142.65625,
                    "velocity": 0.5905511811023622,
                    "duration": 0.15625
                },
                {
                    "name": "G#5",
                    "midi": 80,
                    "time": 142.8125,
                    "velocity": 0.5905511811023622,
                    "duration": 0.029947916666657193
                },
                {
                    "name": "A5",
                    "midi": 81,
                    "time": 142.96875,
                    "velocity": 0.5905511811023622,
                    "duration": 0.029947916666657193
                },
                {
                    "name": "B4",
                    "midi": 71,
                    "time": 143.125,
                    "velocity": 0.5905511811023622,
                    "duration": 0.15625
                },
                {
                    "name": "B5",
                    "midi": 83,
                    "time": 143.125,
                    "velocity": 0.5905511811023622,
                    "duration": 0.15625
                },
                {
                    "name": "C#5",
                    "midi": 73,
                    "time": 143.28125,
                    "velocity": 0.5905511811023622,
                    "duration": 0.15625
                },
                {
                    "name": "C#6",
                    "midi": 85,
                    "time": 143.28125,
                    "velocity": 0.5905511811023622,
                    "duration": 0.15625
                },
                {
                    "name": "D#5",
                    "midi": 75,
                    "time": 143.4375,
                    "velocity": 0.5905511811023622,
                    "duration": 0.029947916666657193
                },
                {
                    "name": "D#6",
                    "midi": 87,
                    "time": 143.4375,
                    "velocity": 0.5905511811023622,
                    "duration": 0.029947916666657193
                },
                {
                    "name": "E5",
                    "midi": 76,
                    "time": 143.59375,
                    "velocity": 0.5905511811023622,
                    "duration": 0.029947916666657193
                },
                {
                    "name": "E6",
                    "midi": 88,
                    "time": 143.59375,
                    "velocity": 0.5905511811023622,
                    "duration": 0.029947916666657193
                },
                {
                    "name": "F#5",
                    "midi": 78,
                    "time": 143.75,
                    "velocity": 0.5905511811023622,
                    "duration": 0.029947916666657193
                },
                {
                    "name": "F#6",
                    "midi": 90,
                    "time": 143.75,
                    "velocity": 0.5905511811023622,
                    "duration": 0.029947916666657193
                },
                {
                    "name": "F#5",
                    "midi": 78,
                    "time": 143.90625,
                    "velocity": 0.5905511811023622,
                    "duration": 0.029947916666657193
                },
                {
                    "name": "F#6",
                    "midi": 90,
                    "time": 143.90625,
                    "velocity": 0.5905511811023622,
                    "duration": 0.029947916666657193
                },
                {
                    "name": "F#5",
                    "midi": 78,
                    "time": 144.0625,
                    "velocity": 0.5905511811023622,
                    "duration": 0.029947916666657193
                },
                {
                    "name": "F#6",
                    "midi": 90,
                    "time": 144.0625,
                    "velocity": 0.5905511811023622,
                    "duration": 0.029947916666657193
                },
                {
                    "name": "F#5",
                    "midi": 78,
                    "time": 144.21875,
                    "velocity": 0.5905511811023622,
                    "duration": 0.029947916666657193
                },
                {
                    "name": "F#6",
                    "midi": 90,
                    "time": 144.21875,
                    "velocity": 0.5905511811023622,
                    "duration": 0.029947916666657193
                },
                {
                    "name": "F#5",
                    "midi": 78,
                    "time": 144.375,
                    "velocity": 0.5905511811023622,
                    "duration": 0.029947916666657193
                },
                {
                    "name": "F#6",
                    "midi": 90,
                    "time": 144.375,
                    "velocity": 0.5905511811023622,
                    "duration": 0.029947916666657193
                },
                {
                    "name": "F#5",
                    "midi": 78,
                    "time": 144.53125,
                    "velocity": 0.5905511811023622,
                    "duration": 0.029947916666657193
                },
                {
                    "name": "F#6",
                    "midi": 90,
                    "time": 144.53125,
                    "velocity": 0.5905511811023622,
                    "duration": 0.029947916666657193
                },
                {
                    "name": "F#5",
                    "midi": 78,
                    "time": 144.6875,
                    "velocity": 0.5905511811023622,
                    "duration": 0.029947916666657193
                },
                {
                    "name": "F#6",
                    "midi": 90,
                    "time": 144.6875,
                    "velocity": 0.5905511811023622,
                    "duration": 0.029947916666657193
                },
                {
                    "name": "F#5",
                    "midi": 78,
                    "time": 144.84375,
                    "velocity": 0.5905511811023622,
                    "duration": 0.029947916666657193
                },
                {
                    "name": "F#6",
                    "midi": 90,
                    "time": 144.84375,
                    "velocity": 0.5905511811023622,
                    "duration": 0.029947916666657193
                },
                {
                    "name": "F#5",
                    "midi": 78,
                    "time": 145,
                    "velocity": 0.5905511811023622,
                    "duration": 0.15625
                },
                {
                    "name": "F#6",
                    "midi": 90,
                    "time": 145,
                    "velocity": 0.5905511811023622,
                    "duration": 0.15625
                },
                {
                    "name": "E5",
                    "midi": 76,
                    "time": 145.15625,
                    "velocity": 0.5905511811023622,
                    "duration": 0.15625
                },
                {
                    "name": "E6",
                    "midi": 88,
                    "time": 145.15625,
                    "velocity": 0.5905511811023622,
                    "duration": 0.15625
                },
                {
                    "name": "D#5",
                    "midi": 75,
                    "time": 145.3125,
                    "velocity": 0.5905511811023622,
                    "duration": 0.029947916666657193
                },
                {
                    "name": "D#6",
                    "midi": 87,
                    "time": 145.3125,
                    "velocity": 0.5905511811023622,
                    "duration": 0.029947916666657193
                },
                {
                    "name": "C#5",
                    "midi": 73,
                    "time": 145.46875,
                    "velocity": 0.5905511811023622,
                    "duration": 0.029947916666657193
                },
                {
                    "name": "C#6",
                    "midi": 85,
                    "time": 145.46875,
                    "velocity": 0.5905511811023622,
                    "duration": 0.029947916666657193
                },
                {
                    "name": "B4",
                    "midi": 71,
                    "time": 145.625,
                    "velocity": 0.5905511811023622,
                    "duration": 0.15625
                },
                {
                    "name": "B5",
                    "midi": 83,
                    "time": 145.625,
                    "velocity": 0.5905511811023622,
                    "duration": 0.15625
                },
                {
                    "name": "C#5",
                    "midi": 73,
                    "time": 145.78125,
                    "velocity": 0.5905511811023622,
                    "duration": 0.15625
                },
                {
                    "name": "C#6",
                    "midi": 85,
                    "time": 145.78125,
                    "velocity": 0.5905511811023622,
                    "duration": 0.15625
                },
                {
                    "name": "D#5",
                    "midi": 75,
                    "time": 145.9375,
                    "velocity": 0.5905511811023622,
                    "duration": 0.029947916666657193
                },
                {
                    "name": "D#6",
                    "midi": 87,
                    "time": 145.9375,
                    "velocity": 0.5905511811023622,
                    "duration": 0.029947916666657193
                },
                {
                    "name": "E5",
                    "midi": 76,
                    "time": 146.09375,
                    "velocity": 0.5905511811023622,
                    "duration": 0.029947916666657193
                },
                {
                    "name": "E6",
                    "midi": 88,
                    "time": 146.09375,
                    "velocity": 0.5905511811023622,
                    "duration": 0.029947916666657193
                },
                {
                    "name": "F#5",
                    "midi": 78,
                    "time": 146.25,
                    "velocity": 0.5905511811023622,
                    "duration": 0.029947916666657193
                },
                {
                    "name": "F#6",
                    "midi": 90,
                    "time": 146.25,
                    "velocity": 0.5905511811023622,
                    "duration": 0.029947916666657193
                },
                {
                    "name": "F#5",
                    "midi": 78,
                    "time": 146.40625,
                    "velocity": 0.5905511811023622,
                    "duration": 0.029947916666657193
                },
                {
                    "name": "F#6",
                    "midi": 90,
                    "time": 146.40625,
                    "velocity": 0.5905511811023622,
                    "duration": 0.029947916666657193
                },
                {
                    "name": "F#5",
                    "midi": 78,
                    "time": 146.5625,
                    "velocity": 0.5905511811023622,
                    "duration": 0.029947916666657193
                },
                {
                    "name": "F#6",
                    "midi": 90,
                    "time": 146.5625,
                    "velocity": 0.5905511811023622,
                    "duration": 0.029947916666657193
                },
                {
                    "name": "F#5",
                    "midi": 78,
                    "time": 146.71875,
                    "velocity": 0.5905511811023622,
                    "duration": 0.029947916666657193
                },
                {
                    "name": "F#6",
                    "midi": 90,
                    "time": 146.71875,
                    "velocity": 0.5905511811023622,
                    "duration": 0.029947916666657193
                },
                {
                    "name": "F#5",
                    "midi": 78,
                    "time": 146.875,
                    "velocity": 0.5905511811023622,
                    "duration": 0.029947916666657193
                },
                {
                    "name": "F#6",
                    "midi": 90,
                    "time": 146.875,
                    "velocity": 0.5905511811023622,
                    "duration": 0.029947916666657193
                },
                {
                    "name": "F#5",
                    "midi": 78,
                    "time": 147.03125,
                    "velocity": 0.5905511811023622,
                    "duration": 0.029947916666657193
                },
                {
                    "name": "F#6",
                    "midi": 90,
                    "time": 147.03125,
                    "velocity": 0.5905511811023622,
                    "duration": 0.029947916666657193
                },
                {
                    "name": "F#5",
                    "midi": 78,
                    "time": 147.1875,
                    "velocity": 0.5905511811023622,
                    "duration": 0.029947916666657193
                },
                {
                    "name": "F#6",
                    "midi": 90,
                    "time": 147.1875,
                    "velocity": 0.5905511811023622,
                    "duration": 0.029947916666657193
                },
                {
                    "name": "F#5",
                    "midi": 78,
                    "time": 147.34375,
                    "velocity": 0.5905511811023622,
                    "duration": 0.029947916666657193
                },
                {
                    "name": "F#6",
                    "midi": 90,
                    "time": 147.34375,
                    "velocity": 0.5905511811023622,
                    "duration": 0.029947916666657193
                },
                {
                    "name": "F#5",
                    "midi": 78,
                    "time": 147.5,
                    "velocity": 0.5905511811023622,
                    "duration": 0.15625
                },
                {
                    "name": "F#6",
                    "midi": 90,
                    "time": 147.5,
                    "velocity": 0.5905511811023622,
                    "duration": 0.15625
                },
                {
                    "name": "E5",
                    "midi": 76,
                    "time": 147.65625,
                    "velocity": 0.5905511811023622,
                    "duration": 0.15625
                },
                {
                    "name": "E6",
                    "midi": 88,
                    "time": 147.65625,
                    "velocity": 0.5905511811023622,
                    "duration": 0.15625
                },
                {
                    "name": "D#5",
                    "midi": 75,
                    "time": 147.8125,
                    "velocity": 0.5905511811023622,
                    "duration": 0.029947916666657193
                },
                {
                    "name": "D#6",
                    "midi": 87,
                    "time": 147.8125,
                    "velocity": 0.5905511811023622,
                    "duration": 0.029947916666657193
                },
                {
                    "name": "C#5",
                    "midi": 73,
                    "time": 147.96875,
                    "velocity": 0.5905511811023622,
                    "duration": 0.029947916666657193
                },
                {
                    "name": "C#6",
                    "midi": 85,
                    "time": 147.96875,
                    "velocity": 0.5905511811023622,
                    "duration": 0.029947916666657193
                },
                {
                    "name": "B4",
                    "midi": 71,
                    "time": 148.125,
                    "velocity": 0.5905511811023622,
                    "duration": 0.15625
                },
                {
                    "name": "B5",
                    "midi": 83,
                    "time": 148.125,
                    "velocity": 0.5905511811023622,
                    "duration": 0.15625
                },
                {
                    "name": "C#5",
                    "midi": 73,
                    "time": 148.28125,
                    "velocity": 0.5905511811023622,
                    "duration": 0.15625
                },
                {
                    "name": "C#6",
                    "midi": 85,
                    "time": 148.28125,
                    "velocity": 0.5905511811023622,
                    "duration": 0.15625
                },
                {
                    "name": "D#5",
                    "midi": 75,
                    "time": 148.4375,
                    "velocity": 0.5905511811023622,
                    "duration": 0.029947916666657193
                },
                {
                    "name": "D#6",
                    "midi": 87,
                    "time": 148.4375,
                    "velocity": 0.5905511811023622,
                    "duration": 0.029947916666657193
                },
                {
                    "name": "E5",
                    "midi": 76,
                    "time": 148.59375,
                    "velocity": 0.5905511811023622,
                    "duration": 0.029947916666657193
                },
                {
                    "name": "E6",
                    "midi": 88,
                    "time": 148.59375,
                    "velocity": 0.5905511811023622,
                    "duration": 0.029947916666657193
                },
                {
                    "name": "F#5",
                    "midi": 78,
                    "time": 148.75,
                    "velocity": 0.5905511811023622,
                    "duration": 0.029947916666657193
                },
                {
                    "name": "F#6",
                    "midi": 90,
                    "time": 148.75,
                    "velocity": 0.5905511811023622,
                    "duration": 0.029947916666657193
                },
                {
                    "name": "G#5",
                    "midi": 80,
                    "time": 148.90625,
                    "velocity": 0.5905511811023622,
                    "duration": 0.029947916666657193
                },
                {
                    "name": "G#6",
                    "midi": 92,
                    "time": 148.90625,
                    "velocity": 0.5905511811023622,
                    "duration": 0.029947916666657193
                },
                {
                    "name": "A5",
                    "midi": 81,
                    "time": 149.0625,
                    "velocity": 0.5905511811023622,
                    "duration": 0.029947916666657193
                },
                {
                    "name": "A6",
                    "midi": 93,
                    "time": 149.0625,
                    "velocity": 0.5905511811023622,
                    "duration": 0.029947916666657193
                },
                {
                    "name": "B5",
                    "midi": 83,
                    "time": 149.21875,
                    "velocity": 0.5905511811023622,
                    "duration": 0.029947916666657193
                },
                {
                    "name": "B6",
                    "midi": 95,
                    "time": 149.21875,
                    "velocity": 0.5905511811023622,
                    "duration": 0.029947916666657193
                },
                {
                    "name": "C#6",
                    "midi": 85,
                    "time": 149.375,
                    "velocity": 0.5905511811023622,
                    "duration": 0.029947916666657193
                },
                {
                    "name": "C#7",
                    "midi": 97,
                    "time": 149.375,
                    "velocity": 0.5905511811023622,
                    "duration": 0.029947916666657193
                },
                {
                    "name": "C#6",
                    "midi": 85,
                    "time": 149.53125,
                    "velocity": 0.5905511811023622,
                    "duration": 0.029947916666657193
                },
                {
                    "name": "C#7",
                    "midi": 97,
                    "time": 149.53125,
                    "velocity": 0.5905511811023622,
                    "duration": 0.029947916666657193
                },
                {
                    "name": "C#6",
                    "midi": 85,
                    "time": 149.6875,
                    "velocity": 0.5905511811023622,
                    "duration": 0.029947916666657193
                },
                {
                    "name": "C#7",
                    "midi": 97,
                    "time": 149.6875,
                    "velocity": 0.5905511811023622,
                    "duration": 0.029947916666657193
                },
                {
                    "name": "C#6",
                    "midi": 85,
                    "time": 149.84375,
                    "velocity": 0.5905511811023622,
                    "duration": 0.029947916666657193
                },
                {
                    "name": "C#7",
                    "midi": 97,
                    "time": 149.84375,
                    "velocity": 0.5905511811023622,
                    "duration": 0.029947916666657193
                },
                {
                    "name": "C#6",
                    "midi": 85,
                    "time": 150,
                    "velocity": 0.5905511811023622,
                    "duration": 0.029947916666657193
                },
                {
                    "name": "C#7",
                    "midi": 97,
                    "time": 150,
                    "velocity": 0.5905511811023622,
                    "duration": 0.029947916666657193
                },
                {
                    "name": "B5",
                    "midi": 83,
                    "time": 150.15625,
                    "velocity": 0.5905511811023622,
                    "duration": 0.029947916666657193
                },
                {
                    "name": "B6",
                    "midi": 95,
                    "time": 150.15625,
                    "velocity": 0.5905511811023622,
                    "duration": 0.029947916666657193
                },
                {
                    "name": "A5",
                    "midi": 81,
                    "time": 150.3125,
                    "velocity": 0.5905511811023622,
                    "duration": 0.029947916666657193
                },
                {
                    "name": "A6",
                    "midi": 93,
                    "time": 150.3125,
                    "velocity": 0.5905511811023622,
                    "duration": 0.029947916666657193
                },
                {
                    "name": "G#5",
                    "midi": 80,
                    "time": 150.46875,
                    "velocity": 0.5905511811023622,
                    "duration": 0.029947916666657193
                },
                {
                    "name": "G#6",
                    "midi": 92,
                    "time": 150.46875,
                    "velocity": 0.5905511811023622,
                    "duration": 0.029947916666657193
                },
                {
                    "name": "F#5",
                    "midi": 78,
                    "time": 150.625,
                    "velocity": 0.5905511811023622,
                    "duration": 0.15625
                },
                {
                    "name": "F#6",
                    "midi": 90,
                    "time": 150.625,
                    "velocity": 0.5905511811023622,
                    "duration": 0.15625
                },
                {
                    "name": "G#5",
                    "midi": 80,
                    "time": 150.78125,
                    "velocity": 0.5905511811023622,
                    "duration": 0.15625
                },
                {
                    "name": "G#6",
                    "midi": 92,
                    "time": 150.78125,
                    "velocity": 0.5905511811023622,
                    "duration": 0.15625
                },
                {
                    "name": "A5",
                    "midi": 81,
                    "time": 150.9375,
                    "velocity": 0.5905511811023622,
                    "duration": 0.029947916666657193
                },
                {
                    "name": "A6",
                    "midi": 93,
                    "time": 150.9375,
                    "velocity": 0.5905511811023622,
                    "duration": 0.029947916666657193
                },
                {
                    "name": "B5",
                    "midi": 83,
                    "time": 151.09375,
                    "velocity": 0.5905511811023622,
                    "duration": 0.029947916666657193
                },
                {
                    "name": "B6",
                    "midi": 95,
                    "time": 151.09375,
                    "velocity": 0.5905511811023622,
                    "duration": 0.029947916666657193
                },
                {
                    "name": "C#6",
                    "midi": 85,
                    "time": 151.25,
                    "velocity": 0.5905511811023622,
                    "duration": 0.029947916666657193
                },
                {
                    "name": "C#7",
                    "midi": 97,
                    "time": 151.25,
                    "velocity": 0.5905511811023622,
                    "duration": 0.029947916666657193
                },
                {
                    "name": "D#6",
                    "midi": 87,
                    "time": 151.40625,
                    "velocity": 0.5905511811023622,
                    "duration": 0.029947916666657193
                },
                {
                    "name": "D#7",
                    "midi": 99,
                    "time": 151.40625,
                    "velocity": 0.5905511811023622,
                    "duration": 0.029947916666657193
                },
                {
                    "name": "E6",
                    "midi": 88,
                    "time": 151.5625,
                    "velocity": 0.5905511811023622,
                    "duration": 0.029947916666657193
                },
                {
                    "name": "E7",
                    "midi": 100,
                    "time": 151.5625,
                    "velocity": 0.5905511811023622,
                    "duration": 0.029947916666657193
                },
                {
                    "name": "F#6",
                    "midi": 90,
                    "time": 151.71875,
                    "velocity": 0.5905511811023622,
                    "duration": 0.029947916666657193
                },
                {
                    "name": "F#7",
                    "midi": 102,
                    "time": 151.71875,
                    "velocity": 0.5905511811023622,
                    "duration": 0.029947916666657193
                },
                {
                    "name": "F#4",
                    "midi": 66,
                    "time": 151.875,
                    "velocity": 0.5905511811023622,
                    "duration": 0.15625
                },
                {
                    "name": "F#5",
                    "midi": 78,
                    "time": 151.875,
                    "velocity": 0.5905511811023622,
                    "duration": 0.15625
                },
                {
                    "name": "G#4",
                    "midi": 68,
                    "time": 152.03125,
                    "velocity": 0.5905511811023622,
                    "duration": 0.15625
                },
                {
                    "name": "G#5",
                    "midi": 80,
                    "time": 152.03125,
                    "velocity": 0.5905511811023622,
                    "duration": 0.15625
                },
                {
                    "name": "A4",
                    "midi": 69,
                    "time": 152.1875,
                    "velocity": 0.5905511811023622,
                    "duration": 0.029947916666657193
                },
                {
                    "name": "A5",
                    "midi": 81,
                    "time": 152.1875,
                    "velocity": 0.5905511811023622,
                    "duration": 0.029947916666657193
                },
                {
                    "name": "B4",
                    "midi": 71,
                    "time": 152.34375,
                    "velocity": 0.5905511811023622,
                    "duration": 0.029947916666657193
                },
                {
                    "name": "B5",
                    "midi": 83,
                    "time": 152.34375,
                    "velocity": 0.5905511811023622,
                    "duration": 0.029947916666657193
                },
                {
                    "name": "C#5",
                    "midi": 73,
                    "time": 152.5,
                    "velocity": 0.5905511811023622,
                    "duration": 0.029947916666657193
                },
                {
                    "name": "C#6",
                    "midi": 85,
                    "time": 152.5,
                    "velocity": 0.5905511811023622,
                    "duration": 0.029947916666657193
                },
                {
                    "name": "D#5",
                    "midi": 75,
                    "time": 152.65625,
                    "velocity": 0.5905511811023622,
                    "duration": 0.029947916666657193
                },
                {
                    "name": "D#6",
                    "midi": 87,
                    "time": 152.65625,
                    "velocity": 0.5905511811023622,
                    "duration": 0.029947916666657193
                },
                {
                    "name": "E5",
                    "midi": 76,
                    "time": 152.8125,
                    "velocity": 0.5905511811023622,
                    "duration": 0.029947916666657193
                },
                {
                    "name": "E6",
                    "midi": 88,
                    "time": 152.8125,
                    "velocity": 0.5905511811023622,
                    "duration": 0.029947916666657193
                },
                {
                    "name": "F#5",
                    "midi": 78,
                    "time": 152.96875,
                    "velocity": 0.5905511811023622,
                    "duration": 0.029947916666657193
                },
                {
                    "name": "F#6",
                    "midi": 90,
                    "time": 152.96875,
                    "velocity": 0.5905511811023622,
                    "duration": 0.029947916666657193
                },
                {
                    "name": "B5",
                    "midi": 83,
                    "time": 153.125,
                    "velocity": 0.5905511811023622,
                    "duration": 0.029947916666657193
                },
                {
                    "name": "B6",
                    "midi": 95,
                    "time": 153.125,
                    "velocity": 0.5905511811023622,
                    "duration": 0.029947916666657193
                },
                {
                    "name": "B5",
                    "midi": 83,
                    "time": 153.28125,
                    "velocity": 0.5905511811023622,
                    "duration": 0.029947916666657193
                },
                {
                    "name": "B6",
                    "midi": 95,
                    "time": 153.28125,
                    "velocity": 0.5905511811023622,
                    "duration": 0.029947916666657193
                },
                {
                    "name": "B5",
                    "midi": 83,
                    "time": 153.4375,
                    "velocity": 0.5905511811023622,
                    "duration": 0.029947916666657193
                },
                {
                    "name": "B6",
                    "midi": 95,
                    "time": 153.4375,
                    "velocity": 0.5905511811023622,
                    "duration": 0.029947916666657193
                },
                {
                    "name": "B5",
                    "midi": 83,
                    "time": 153.59375,
                    "velocity": 0.5905511811023622,
                    "duration": 0.029947916666657193
                },
                {
                    "name": "B6",
                    "midi": 95,
                    "time": 153.59375,
                    "velocity": 0.5905511811023622,
                    "duration": 0.029947916666657193
                },
                {
                    "name": "B5",
                    "midi": 83,
                    "time": 153.75,
                    "velocity": 0.5905511811023622,
                    "duration": 0.029947916666657193
                },
                {
                    "name": "B6",
                    "midi": 95,
                    "time": 153.75,
                    "velocity": 0.5905511811023622,
                    "duration": 0.029947916666657193
                },
                {
                    "name": "B5",
                    "midi": 83,
                    "time": 153.90625,
                    "velocity": 0.5905511811023622,
                    "duration": 0.029947916666657193
                },
                {
                    "name": "B6",
                    "midi": 95,
                    "time": 153.90625,
                    "velocity": 0.5905511811023622,
                    "duration": 0.029947916666657193
                },
                {
                    "name": "B5",
                    "midi": 83,
                    "time": 154.0625,
                    "velocity": 0.5905511811023622,
                    "duration": 0.029947916666657193
                },
                {
                    "name": "B6",
                    "midi": 95,
                    "time": 154.0625,
                    "velocity": 0.5905511811023622,
                    "duration": 0.029947916666657193
                },
                {
                    "name": "B5",
                    "midi": 83,
                    "time": 154.21875,
                    "velocity": 0.5905511811023622,
                    "duration": 0.029947916666657193
                },
                {
                    "name": "B6",
                    "midi": 95,
                    "time": 154.21875,
                    "velocity": 0.5905511811023622,
                    "duration": 0.029947916666657193
                },
                {
                    "name": "B5",
                    "midi": 83,
                    "time": 154.375,
                    "velocity": 0.5905511811023622,
                    "duration": 0.15625
                },
                {
                    "name": "B6",
                    "midi": 95,
                    "time": 154.375,
                    "velocity": 0.5905511811023622,
                    "duration": 0.15625
                },
                {
                    "name": "A5",
                    "midi": 81,
                    "time": 154.53125,
                    "velocity": 0.5905511811023622,
                    "duration": 0.15625
                },
                {
                    "name": "A6",
                    "midi": 93,
                    "time": 154.53125,
                    "velocity": 0.5905511811023622,
                    "duration": 0.15625
                },
                {
                    "name": "G#5",
                    "midi": 80,
                    "time": 154.6875,
                    "velocity": 0.5905511811023622,
                    "duration": 0.15625
                },
                {
                    "name": "G#6",
                    "midi": 92,
                    "time": 154.6875,
                    "velocity": 0.5905511811023622,
                    "duration": 0.15625
                },
                {
                    "name": "F#5",
                    "midi": 78,
                    "time": 154.84375,
                    "velocity": 0.5905511811023622,
                    "duration": 0.15625
                },
                {
                    "name": "F#6",
                    "midi": 90,
                    "time": 154.84375,
                    "velocity": 0.5905511811023622,
                    "duration": 0.15625
                },
                {
                    "name": "E5",
                    "midi": 76,
                    "time": 155,
                    "velocity": 0.5905511811023622,
                    "duration": 0.029947916666657193
                },
                {
                    "name": "E6",
                    "midi": 88,
                    "time": 155,
                    "velocity": 0.5905511811023622,
                    "duration": 0.029947916666657193
                },
                {
                    "name": "E5",
                    "midi": 76,
                    "time": 155.15625,
                    "velocity": 0.5905511811023622,
                    "duration": 0.029947916666657193
                },
                {
                    "name": "E6",
                    "midi": 88,
                    "time": 155.15625,
                    "velocity": 0.5905511811023622,
                    "duration": 0.029947916666657193
                },
                {
                    "name": "E5",
                    "midi": 76,
                    "time": 155.3125,
                    "velocity": 0.5905511811023622,
                    "duration": 0.029947916666657193
                },
                {
                    "name": "E6",
                    "midi": 88,
                    "time": 155.3125,
                    "velocity": 0.5905511811023622,
                    "duration": 0.029947916666657193
                },
                {
                    "name": "E5",
                    "midi": 76,
                    "time": 155.46875,
                    "velocity": 0.5905511811023622,
                    "duration": 0.029947916666657193
                },
                {
                    "name": "E6",
                    "midi": 88,
                    "time": 155.46875,
                    "velocity": 0.5905511811023622,
                    "duration": 0.029947916666657193
                },
                {
                    "name": "E5",
                    "midi": 76,
                    "time": 155.625,
                    "velocity": 0.5905511811023622,
                    "duration": 0.029947916666657193
                },
                {
                    "name": "E6",
                    "midi": 88,
                    "time": 155.625,
                    "velocity": 0.5905511811023622,
                    "duration": 0.029947916666657193
                },
                {
                    "name": "D#5",
                    "midi": 75,
                    "time": 155.78125,
                    "velocity": 0.5905511811023622,
                    "duration": 0.029947916666657193
                },
                {
                    "name": "D#6",
                    "midi": 87,
                    "time": 155.78125,
                    "velocity": 0.5905511811023622,
                    "duration": 0.029947916666657193
                },
                {
                    "name": "C#5",
                    "midi": 73,
                    "time": 155.9375,
                    "velocity": 0.5905511811023622,
                    "duration": 0.029947916666657193
                },
                {
                    "name": "C#6",
                    "midi": 85,
                    "time": 155.9375,
                    "velocity": 0.5905511811023622,
                    "duration": 0.029947916666657193
                },
                {
                    "name": "B4",
                    "midi": 71,
                    "time": 156.09375,
                    "velocity": 0.5905511811023622,
                    "duration": 0.029947916666657193
                },
                {
                    "name": "B5",
                    "midi": 83,
                    "time": 156.09375,
                    "velocity": 0.5905511811023622,
                    "duration": 0.029947916666657193
                },
                {
                    "name": "E3",
                    "midi": 52,
                    "time": 156.5625,
                    "velocity": 0.5905511811023622,
                    "duration": 0.3125
                },
                {
                    "name": "G3",
                    "midi": 55,
                    "time": 156.5625,
                    "velocity": 0.5905511811023622,
                    "duration": 0.3125
                },
                {
                    "name": "A3",
                    "midi": 57,
                    "time": 156.5625,
                    "velocity": 0.5905511811023622,
                    "duration": 0.3125
                },
                {
                    "name": "E3",
                    "midi": 52,
                    "time": 157.1875,
                    "velocity": 0.5905511811023622,
                    "duration": 0.3125
                },
                {
                    "name": "G3",
                    "midi": 55,
                    "time": 157.1875,
                    "velocity": 0.5905511811023622,
                    "duration": 0.3125
                },
                {
                    "name": "A3",
                    "midi": 57,
                    "time": 157.1875,
                    "velocity": 0.5905511811023622,
                    "duration": 0.3125
                },
                {
                    "name": "C#3",
                    "midi": 49,
                    "time": 157.8125,
                    "velocity": 0.5905511811023622,
                    "duration": 0.3125
                },
                {
                    "name": "F3",
                    "midi": 53,
                    "time": 157.8125,
                    "velocity": 0.5905511811023622,
                    "duration": 0.3125
                },
                {
                    "name": "D3",
                    "midi": 50,
                    "time": 158.125,
                    "velocity": 0.5905511811023622,
                    "duration": 0.3125
                },
                {
                    "name": "F#3",
                    "midi": 54,
                    "time": 158.125,
                    "velocity": 0.5905511811023622,
                    "duration": 0.3125
                },
                {
                    "name": "D#3",
                    "midi": 51,
                    "time": 158.4375,
                    "velocity": 0.5905511811023622,
                    "duration": 0.3125
                },
                {
                    "name": "G3",
                    "midi": 55,
                    "time": 158.4375,
                    "velocity": 0.5905511811023622,
                    "duration": 0.3125
                },
                {
                    "name": "E3",
                    "midi": 52,
                    "time": 158.75,
                    "velocity": 0.7952755905511811,
                    "duration": 0.625
                },
                {
                    "name": "G#3",
                    "midi": 56,
                    "time": 158.75,
                    "velocity": 0.7952755905511811,
                    "duration": 0.625
                },
                {
                    "name": "B3",
                    "midi": 59,
                    "time": 158.75,
                    "velocity": 0.7952755905511811,
                    "duration": 0.625
                },
                {
                    "name": "E3",
                    "midi": 52,
                    "time": 159.375,
                    "velocity": 0.7952755905511811,
                    "duration": 0.625
                },
                {
                    "name": "G#3",
                    "midi": 56,
                    "time": 159.375,
                    "velocity": 0.7952755905511811,
                    "duration": 0.625
                },
                {
                    "name": "C#4",
                    "midi": 61,
                    "time": 159.375,
                    "velocity": 0.7952755905511811,
                    "duration": 0.625
                },
                {
                    "name": "E3",
                    "midi": 52,
                    "time": 160,
                    "velocity": 0.7952755905511811,
                    "duration": 0.625
                },
                {
                    "name": "G#3",
                    "midi": 56,
                    "time": 160,
                    "velocity": 0.7952755905511811,
                    "duration": 0.625
                },
                {
                    "name": "B3",
                    "midi": 59,
                    "time": 160,
                    "velocity": 0.7952755905511811,
                    "duration": 0.625
                },
                {
                    "name": "D#4",
                    "midi": 63,
                    "time": 160,
                    "velocity": 0.7952755905511811,
                    "duration": 0.625
                },
                {
                    "name": "D3",
                    "midi": 50,
                    "time": 160.625,
                    "velocity": 0.7952755905511811,
                    "duration": 0.625
                },
                {
                    "name": "A3",
                    "midi": 57,
                    "time": 160.625,
                    "velocity": 0.7952755905511811,
                    "duration": 0.625
                },
                {
                    "name": "C#4",
                    "midi": 61,
                    "time": 160.625,
                    "velocity": 0.7952755905511811,
                    "duration": 0.625
                },
                {
                    "name": "E4",
                    "midi": 64,
                    "time": 160.625,
                    "velocity": 0.7952755905511811,
                    "duration": 0.625
                },
                {
                    "name": "D#3",
                    "midi": 51,
                    "time": 161.25,
                    "velocity": 0.7952755905511811,
                    "duration": 0.625
                },
                {
                    "name": "A3",
                    "midi": 57,
                    "time": 161.25,
                    "velocity": 0.7952755905511811,
                    "duration": 0.625
                },
                {
                    "name": "B3",
                    "midi": 59,
                    "time": 161.25,
                    "velocity": 0.7952755905511811,
                    "duration": 0.625
                },
                {
                    "name": "F#4",
                    "midi": 66,
                    "time": 161.25,
                    "velocity": 0.7952755905511811,
                    "duration": 0.625
                },
                {
                    "name": "G#3",
                    "midi": 56,
                    "time": 162.5,
                    "velocity": 0.5905511811023622,
                    "duration": 0.3125
                },
                {
                    "name": "B3",
                    "midi": 59,
                    "time": 162.5,
                    "velocity": 0.5905511811023622,
                    "duration": 0.3125
                },
                {
                    "name": "C#4",
                    "midi": 61,
                    "time": 162.5,
                    "velocity": 0.5905511811023622,
                    "duration": 0.3125
                },
                {
                    "name": "F3",
                    "midi": 53,
                    "time": 163.4375,
                    "velocity": 0.5905511811023622,
                    "duration": 0.3125
                },
                {
                    "name": "A3",
                    "midi": 57,
                    "time": 163.4375,
                    "velocity": 0.5905511811023622,
                    "duration": 0.3125
                },
                {
                    "name": "F#3",
                    "midi": 54,
                    "time": 163.75,
                    "velocity": 0.5905511811023622,
                    "duration": 0.3125
                },
                {
                    "name": "A#3",
                    "midi": 58,
                    "time": 163.75,
                    "velocity": 0.5905511811023622,
                    "duration": 0.3125
                },
                {
                    "name": "G3",
                    "midi": 55,
                    "time": 164.0625,
                    "velocity": 0.5905511811023622,
                    "duration": 0.3125
                },
                {
                    "name": "B3",
                    "midi": 59,
                    "time": 164.0625,
                    "velocity": 0.5905511811023622,
                    "duration": 0.3125
                },
                {
                    "name": "G#3",
                    "midi": 56,
                    "time": 164.375,
                    "velocity": 0.7952755905511811,
                    "duration": 0.625
                },
                {
                    "name": "C4",
                    "midi": 60,
                    "time": 164.375,
                    "velocity": 0.7952755905511811,
                    "duration": 0.625
                },
                {
                    "name": "D#4",
                    "midi": 63,
                    "time": 164.375,
                    "velocity": 0.7952755905511811,
                    "duration": 0.625
                },
                {
                    "name": "G#3",
                    "midi": 56,
                    "time": 165,
                    "velocity": 0.7952755905511811,
                    "duration": 0.625
                },
                {
                    "name": "C4",
                    "midi": 60,
                    "time": 165,
                    "velocity": 0.7952755905511811,
                    "duration": 0.625
                },
                {
                    "name": "F4",
                    "midi": 65,
                    "time": 165,
                    "velocity": 0.7952755905511811,
                    "duration": 0.625
                },
                {
                    "name": "G#3",
                    "midi": 56,
                    "time": 165.625,
                    "velocity": 0.7952755905511811,
                    "duration": 0.625
                },
                {
                    "name": "C4",
                    "midi": 60,
                    "time": 165.625,
                    "velocity": 0.7952755905511811,
                    "duration": 0.625
                },
                {
                    "name": "D#4",
                    "midi": 63,
                    "time": 165.625,
                    "velocity": 0.7952755905511811,
                    "duration": 0.625
                },
                {
                    "name": "G4",
                    "midi": 67,
                    "time": 165.625,
                    "velocity": 0.7952755905511811,
                    "duration": 0.625
                },
                {
                    "name": "G3",
                    "midi": 55,
                    "time": 166.25,
                    "velocity": 0.7952755905511811,
                    "duration": 0.625
                },
                {
                    "name": "C#4",
                    "midi": 61,
                    "time": 166.25,
                    "velocity": 0.7952755905511811,
                    "duration": 0.625
                },
                {
                    "name": "F4",
                    "midi": 65,
                    "time": 166.25,
                    "velocity": 0.7952755905511811,
                    "duration": 0.625
                },
                {
                    "name": "G#4",
                    "midi": 68,
                    "time": 166.25,
                    "velocity": 0.7952755905511811,
                    "duration": 0.625
                },
                {
                    "name": "G3",
                    "midi": 55,
                    "time": 166.875,
                    "velocity": 0.7952755905511811,
                    "duration": 0.625
                },
                {
                    "name": "C#4",
                    "midi": 61,
                    "time": 166.875,
                    "velocity": 0.7952755905511811,
                    "duration": 0.625
                },
                {
                    "name": "D#4",
                    "midi": 63,
                    "time": 166.875,
                    "velocity": 0.7952755905511811,
                    "duration": 0.625
                },
                {
                    "name": "A#4",
                    "midi": 70,
                    "time": 166.875,
                    "velocity": 0.7952755905511811,
                    "duration": 0.625
                },
                {
                    "name": "G#3",
                    "midi": 56,
                    "time": 167.5,
                    "velocity": 0.7952755905511811,
                    "duration": 0.3125
                },
                {
                    "name": "C4",
                    "midi": 60,
                    "time": 167.5,
                    "velocity": 0.7952755905511811,
                    "duration": 0.3125
                },
                {
                    "name": "D#4",
                    "midi": 63,
                    "time": 167.5,
                    "velocity": 0.7952755905511811,
                    "duration": 0.3125
                },
                {
                    "name": "G4",
                    "midi": 67,
                    "time": 167.5,
                    "velocity": 0.7952755905511811,
                    "duration": 0.3125
                },
                {
                    "name": "G3",
                    "midi": 55,
                    "time": 167.8125,
                    "velocity": 0.5905511811023622,
                    "duration": 0.3125
                },
                {
                    "name": "A#3",
                    "midi": 58,
                    "time": 167.8125,
                    "velocity": 0.5905511811023622,
                    "duration": 0.3125
                },
                {
                    "name": "C#4",
                    "midi": 61,
                    "time": 167.8125,
                    "velocity": 0.5905511811023622,
                    "duration": 0.3125
                },
                {
                    "name": "F4",
                    "midi": 65,
                    "time": 167.8125,
                    "velocity": 0.5905511811023622,
                    "duration": 0.3125
                },
                {
                    "name": "F3",
                    "midi": 53,
                    "time": 168.125,
                    "velocity": 0.7952755905511811,
                    "duration": 0.3125
                },
                {
                    "name": "G#3",
                    "midi": 56,
                    "time": 168.125,
                    "velocity": 0.7952755905511811,
                    "duration": 0.3125
                },
                {
                    "name": "C4",
                    "midi": 60,
                    "time": 168.125,
                    "velocity": 0.7952755905511811,
                    "duration": 0.3125
                },
                {
                    "name": "D#4",
                    "midi": 63,
                    "time": 168.125,
                    "velocity": 0.7952755905511811,
                    "duration": 0.3125
                },
                {
                    "name": "D#3",
                    "midi": 51,
                    "time": 168.4375,
                    "velocity": 0.7952755905511811,
                    "duration": 0.3125
                },
                {
                    "name": "G3",
                    "midi": 55,
                    "time": 168.4375,
                    "velocity": 0.7952755905511811,
                    "duration": 0.3125
                },
                {
                    "name": "A#3",
                    "midi": 58,
                    "time": 168.4375,
                    "velocity": 0.7952755905511811,
                    "duration": 0.3125
                },
                {
                    "name": "C#4",
                    "midi": 61,
                    "time": 168.4375,
                    "velocity": 0.7952755905511811,
                    "duration": 0.3125
                },
                {
                    "name": "C#3",
                    "midi": 49,
                    "time": 168.75,
                    "velocity": 0.7952755905511811,
                    "duration": 0.3125
                },
                {
                    "name": "F3",
                    "midi": 53,
                    "time": 168.75,
                    "velocity": 0.7952755905511811,
                    "duration": 0.3125
                },
                {
                    "name": "G#3",
                    "midi": 56,
                    "time": 168.75,
                    "velocity": 0.7952755905511811,
                    "duration": 0.3125
                },
                {
                    "name": "C4",
                    "midi": 60,
                    "time": 168.75,
                    "velocity": 0.7952755905511811,
                    "duration": 0.3125
                },
                {
                    "name": "D#3",
                    "midi": 51,
                    "time": 169.0625,
                    "velocity": 0.7952755905511811,
                    "duration": 0.3125
                },
                {
                    "name": "G3",
                    "midi": 55,
                    "time": 169.0625,
                    "velocity": 0.7952755905511811,
                    "duration": 0.3125
                },
                {
                    "name": "A#3",
                    "midi": 58,
                    "time": 169.0625,
                    "velocity": 0.7952755905511811,
                    "duration": 0.3125
                },
                {
                    "name": "C#4",
                    "midi": 61,
                    "time": 169.0625,
                    "velocity": 0.7952755905511811,
                    "duration": 0.3125
                },
                {
                    "name": "F3",
                    "midi": 53,
                    "time": 169.375,
                    "velocity": 0.7952755905511811,
                    "duration": 0.3125
                },
                {
                    "name": "G#3",
                    "midi": 56,
                    "time": 169.375,
                    "velocity": 0.7952755905511811,
                    "duration": 0.3125
                },
                {
                    "name": "C4",
                    "midi": 60,
                    "time": 169.375,
                    "velocity": 0.7952755905511811,
                    "duration": 0.3125
                },
                {
                    "name": "D#4",
                    "midi": 63,
                    "time": 169.375,
                    "velocity": 0.7952755905511811,
                    "duration": 0.3125
                },
                {
                    "name": "G3",
                    "midi": 55,
                    "time": 169.6875,
                    "velocity": 0.7952755905511811,
                    "duration": 0.3125
                },
                {
                    "name": "A#3",
                    "midi": 58,
                    "time": 169.6875,
                    "velocity": 0.7952755905511811,
                    "duration": 0.3125
                },
                {
                    "name": "C#4",
                    "midi": 61,
                    "time": 169.6875,
                    "velocity": 0.7952755905511811,
                    "duration": 0.3125
                },
                {
                    "name": "F4",
                    "midi": 65,
                    "time": 169.6875,
                    "velocity": 0.7952755905511811,
                    "duration": 0.3125
                },
                {
                    "name": "G#3",
                    "midi": 56,
                    "time": 170,
                    "velocity": 0.7952755905511811,
                    "duration": 0.3125
                },
                {
                    "name": "C4",
                    "midi": 60,
                    "time": 170,
                    "velocity": 0.7952755905511811,
                    "duration": 0.3125
                },
                {
                    "name": "D#4",
                    "midi": 63,
                    "time": 170,
                    "velocity": 0.7952755905511811,
                    "duration": 0.3125
                },
                {
                    "name": "G4",
                    "midi": 67,
                    "time": 170,
                    "velocity": 0.7952755905511811,
                    "duration": 0.3125
                },
                {
                    "name": "G3",
                    "midi": 55,
                    "time": 170.3125,
                    "velocity": 0.5905511811023622,
                    "duration": 0.3125
                },
                {
                    "name": "A#3",
                    "midi": 58,
                    "time": 170.3125,
                    "velocity": 0.5905511811023622,
                    "duration": 0.3125
                },
                {
                    "name": "C#4",
                    "midi": 61,
                    "time": 170.3125,
                    "velocity": 0.5905511811023622,
                    "duration": 0.3125
                },
                {
                    "name": "F4",
                    "midi": 65,
                    "time": 170.3125,
                    "velocity": 0.5905511811023622,
                    "duration": 0.3125
                },
                {
                    "name": "F3",
                    "midi": 53,
                    "time": 170.625,
                    "velocity": 0.7952755905511811,
                    "duration": 0.3125
                },
                {
                    "name": "G#3",
                    "midi": 56,
                    "time": 170.625,
                    "velocity": 0.7952755905511811,
                    "duration": 0.3125
                },
                {
                    "name": "C4",
                    "midi": 60,
                    "time": 170.625,
                    "velocity": 0.7952755905511811,
                    "duration": 0.3125
                },
                {
                    "name": "D#4",
                    "midi": 63,
                    "time": 170.625,
                    "velocity": 0.7952755905511811,
                    "duration": 0.3125
                },
                {
                    "name": "D#3",
                    "midi": 51,
                    "time": 170.9375,
                    "velocity": 0.7952755905511811,
                    "duration": 0.3125
                },
                {
                    "name": "G3",
                    "midi": 55,
                    "time": 170.9375,
                    "velocity": 0.7952755905511811,
                    "duration": 0.3125
                },
                {
                    "name": "A#3",
                    "midi": 58,
                    "time": 170.9375,
                    "velocity": 0.7952755905511811,
                    "duration": 0.3125
                },
                {
                    "name": "C#4",
                    "midi": 61,
                    "time": 170.9375,
                    "velocity": 0.7952755905511811,
                    "duration": 0.3125
                },
                {
                    "name": "D3",
                    "midi": 50,
                    "time": 171.25,
                    "velocity": 0.7952755905511811,
                    "duration": 0.3125
                },
                {
                    "name": "F#3",
                    "midi": 54,
                    "time": 171.25,
                    "velocity": 0.7952755905511811,
                    "duration": 0.3125
                },
                {
                    "name": "A3",
                    "midi": 57,
                    "time": 171.25,
                    "velocity": 0.7952755905511811,
                    "duration": 0.3125
                },
                {
                    "name": "C#4",
                    "midi": 61,
                    "time": 171.25,
                    "velocity": 0.7952755905511811,
                    "duration": 0.3125
                },
                {
                    "name": "E3",
                    "midi": 52,
                    "time": 171.5625,
                    "velocity": 0.7952755905511811,
                    "duration": 0.3125
                },
                {
                    "name": "G#3",
                    "midi": 56,
                    "time": 171.5625,
                    "velocity": 0.7952755905511811,
                    "duration": 0.3125
                },
                {
                    "name": "B3",
                    "midi": 59,
                    "time": 171.5625,
                    "velocity": 0.7952755905511811,
                    "duration": 0.3125
                },
                {
                    "name": "D4",
                    "midi": 62,
                    "time": 171.5625,
                    "velocity": 0.7952755905511811,
                    "duration": 0.3125
                },
                {
                    "name": "F#3",
                    "midi": 54,
                    "time": 171.875,
                    "velocity": 0.7952755905511811,
                    "duration": 0.3125
                },
                {
                    "name": "A3",
                    "midi": 57,
                    "time": 171.875,
                    "velocity": 0.7952755905511811,
                    "duration": 0.3125
                },
                {
                    "name": "C#4",
                    "midi": 61,
                    "time": 171.875,
                    "velocity": 0.7952755905511811,
                    "duration": 0.3125
                },
                {
                    "name": "E4",
                    "midi": 64,
                    "time": 171.875,
                    "velocity": 0.7952755905511811,
                    "duration": 0.3125
                },
                {
                    "name": "G#3",
                    "midi": 56,
                    "time": 172.1875,
                    "velocity": 0.7952755905511811,
                    "duration": 0.3125
                },
                {
                    "name": "B3",
                    "midi": 59,
                    "time": 172.1875,
                    "velocity": 0.7952755905511811,
                    "duration": 0.3125
                },
                {
                    "name": "D4",
                    "midi": 62,
                    "time": 172.1875,
                    "velocity": 0.7952755905511811,
                    "duration": 0.3125
                },
                {
                    "name": "F#4",
                    "midi": 66,
                    "time": 172.1875,
                    "velocity": 0.7952755905511811,
                    "duration": 0.3125
                },
                {
                    "name": "A3",
                    "midi": 57,
                    "time": 172.5,
                    "velocity": 0.7952755905511811,
                    "duration": 0.3125
                },
                {
                    "name": "C#4",
                    "midi": 61,
                    "time": 172.5,
                    "velocity": 0.7952755905511811,
                    "duration": 0.3125
                },
                {
                    "name": "E4",
                    "midi": 64,
                    "time": 172.5,
                    "velocity": 0.7952755905511811,
                    "duration": 0.3125
                },
                {
                    "name": "G#4",
                    "midi": 68,
                    "time": 172.5,
                    "velocity": 0.7952755905511811,
                    "duration": 0.3125
                },
                {
                    "name": "G#3",
                    "midi": 56,
                    "time": 172.8125,
                    "velocity": 0.7952755905511811,
                    "duration": 0.3125
                },
                {
                    "name": "B3",
                    "midi": 59,
                    "time": 172.8125,
                    "velocity": 0.7952755905511811,
                    "duration": 0.3125
                },
                {
                    "name": "D4",
                    "midi": 62,
                    "time": 172.8125,
                    "velocity": 0.7952755905511811,
                    "duration": 0.3125
                },
                {
                    "name": "F#4",
                    "midi": 66,
                    "time": 172.8125,
                    "velocity": 0.7952755905511811,
                    "duration": 0.3125
                },
                {
                    "name": "F#3",
                    "midi": 54,
                    "time": 173.125,
                    "velocity": 0.7952755905511811,
                    "duration": 0.3125
                },
                {
                    "name": "A3",
                    "midi": 57,
                    "time": 173.125,
                    "velocity": 0.7952755905511811,
                    "duration": 0.3125
                },
                {
                    "name": "C#4",
                    "midi": 61,
                    "time": 173.125,
                    "velocity": 0.7952755905511811,
                    "duration": 0.3125
                },
                {
                    "name": "E4",
                    "midi": 64,
                    "time": 173.125,
                    "velocity": 0.7952755905511811,
                    "duration": 0.3125
                },
                {
                    "name": "E3",
                    "midi": 52,
                    "time": 173.4375,
                    "velocity": 0.7952755905511811,
                    "duration": 0.3125
                },
                {
                    "name": "G#3",
                    "midi": 56,
                    "time": 173.4375,
                    "velocity": 0.7952755905511811,
                    "duration": 0.3125
                },
                {
                    "name": "B3",
                    "midi": 59,
                    "time": 173.4375,
                    "velocity": 0.7952755905511811,
                    "duration": 0.3125
                },
                {
                    "name": "D4",
                    "midi": 62,
                    "time": 173.4375,
                    "velocity": 0.7952755905511811,
                    "duration": 0.3125
                },
                {
                    "name": "C#3",
                    "midi": 49,
                    "time": 173.75,
                    "velocity": 0.7952755905511811,
                    "duration": 0.3125
                },
                {
                    "name": "F#3",
                    "midi": 54,
                    "time": 173.75,
                    "velocity": 0.7952755905511811,
                    "duration": 0.3125
                },
                {
                    "name": "A3",
                    "midi": 57,
                    "time": 173.75,
                    "velocity": 0.7952755905511811,
                    "duration": 0.3125
                },
                {
                    "name": "C#4",
                    "midi": 61,
                    "time": 173.75,
                    "velocity": 0.7952755905511811,
                    "duration": 0.3125
                },
                {
                    "name": "D#3",
                    "midi": 51,
                    "time": 174.0625,
                    "velocity": 0.7952755905511811,
                    "duration": 0.3125
                },
                {
                    "name": "G3",
                    "midi": 55,
                    "time": 174.0625,
                    "velocity": 0.7952755905511811,
                    "duration": 0.3125
                },
                {
                    "name": "A#3",
                    "midi": 58,
                    "time": 174.0625,
                    "velocity": 0.7952755905511811,
                    "duration": 0.3125
                },
                {
                    "name": "C#4",
                    "midi": 61,
                    "time": 174.0625,
                    "velocity": 0.7952755905511811,
                    "duration": 0.3125
                },
                {
                    "name": "F3",
                    "midi": 53,
                    "time": 174.375,
                    "velocity": 0.7952755905511811,
                    "duration": 0.3125
                },
                {
                    "name": "G#3",
                    "midi": 56,
                    "time": 174.375,
                    "velocity": 0.7952755905511811,
                    "duration": 0.3125
                },
                {
                    "name": "C4",
                    "midi": 60,
                    "time": 174.375,
                    "velocity": 0.7952755905511811,
                    "duration": 0.3125
                },
                {
                    "name": "D#4",
                    "midi": 63,
                    "time": 174.375,
                    "velocity": 0.7952755905511811,
                    "duration": 0.3125
                },
                {
                    "name": "G3",
                    "midi": 55,
                    "time": 174.6875,
                    "velocity": 0.7952755905511811,
                    "duration": 0.3125
                },
                {
                    "name": "A#3",
                    "midi": 58,
                    "time": 174.6875,
                    "velocity": 0.7952755905511811,
                    "duration": 0.3125
                },
                {
                    "name": "C#4",
                    "midi": 61,
                    "time": 174.6875,
                    "velocity": 0.7952755905511811,
                    "duration": 0.3125
                },
                {
                    "name": "F4",
                    "midi": 65,
                    "time": 174.6875,
                    "velocity": 0.7952755905511811,
                    "duration": 0.3125
                },
                {
                    "name": "B3",
                    "midi": 59,
                    "time": 175.3125,
                    "velocity": 0.3858267716535433,
                    "duration": 0.625
                },
                {
                    "name": "C#4",
                    "midi": 61,
                    "time": 175.3125,
                    "velocity": 0.3858267716535433,
                    "duration": 0.625
                },
                {
                    "name": "C4",
                    "midi": 60,
                    "time": 175.9375,
                    "velocity": 0.3858267716535433,
                    "duration": 0.625
                },
                {
                    "name": "D4",
                    "midi": 62,
                    "time": 175.9375,
                    "velocity": 0.3858267716535433,
                    "duration": 0.625
                },
                {
                    "name": "C#4",
                    "midi": 61,
                    "time": 176.5625,
                    "velocity": 0.3858267716535433,
                    "duration": 0.625
                },
                {
                    "name": "D#4",
                    "midi": 63,
                    "time": 176.5625,
                    "velocity": 0.3858267716535433,
                    "duration": 0.625
                },
                {
                    "name": "C#4",
                    "midi": 61,
                    "time": 177.1875,
                    "velocity": 0.3858267716535433,
                    "duration": 0.625
                },
                {
                    "name": "D#4",
                    "midi": 63,
                    "time": 177.1875,
                    "velocity": 0.3858267716535433,
                    "duration": 0.625
                },
                {
                    "name": "B3",
                    "midi": 59,
                    "time": 177.8125,
                    "velocity": 0.3858267716535433,
                    "duration": 0.625
                },
                {
                    "name": "C#4",
                    "midi": 61,
                    "time": 177.8125,
                    "velocity": 0.3858267716535433,
                    "duration": 0.625
                },
                {
                    "name": "C4",
                    "midi": 60,
                    "time": 178.4375,
                    "velocity": 0.3858267716535433,
                    "duration": 0.625
                },
                {
                    "name": "D4",
                    "midi": 62,
                    "time": 178.4375,
                    "velocity": 0.3858267716535433,
                    "duration": 0.625
                },
                {
                    "name": "C#4",
                    "midi": 61,
                    "time": 179.0625,
                    "velocity": 0.3858267716535433,
                    "duration": 0.625
                },
                {
                    "name": "D#4",
                    "midi": 63,
                    "time": 179.0625,
                    "velocity": 0.3858267716535433,
                    "duration": 0.625
                },
                {
                    "name": "C#4",
                    "midi": 61,
                    "time": 179.6875,
                    "velocity": 0.3858267716535433,
                    "duration": 0.625
                },
                {
                    "name": "D#4",
                    "midi": 63,
                    "time": 179.6875,
                    "velocity": 0.3858267716535433,
                    "duration": 0.625
                },
                {
                    "name": "C#4",
                    "midi": 61,
                    "time": 180.3125,
                    "velocity": 0.3858267716535433,
                    "duration": 0.625
                },
                {
                    "name": "D#4",
                    "midi": 63,
                    "time": 180.3125,
                    "velocity": 0.3858267716535433,
                    "duration": 0.625
                },
                {
                    "name": "C#4",
                    "midi": 61,
                    "time": 180.9375,
                    "velocity": 0.3858267716535433,
                    "duration": 0.625
                },
                {
                    "name": "D#4",
                    "midi": 63,
                    "time": 180.9375,
                    "velocity": 0.3858267716535433,
                    "duration": 0.625
                },
                {
                    "name": "C#4",
                    "midi": 61,
                    "time": 181.5625,
                    "velocity": 0.3858267716535433,
                    "duration": 0.625
                },
                {
                    "name": "D#4",
                    "midi": 63,
                    "time": 181.5625,
                    "velocity": 0.3858267716535433,
                    "duration": 0.625
                },
                {
                    "name": "C#4",
                    "midi": 61,
                    "time": 182.1875,
                    "velocity": 0.3858267716535433,
                    "duration": 0.625
                },
                {
                    "name": "D#4",
                    "midi": 63,
                    "time": 182.1875,
                    "velocity": 0.3858267716535433,
                    "duration": 0.625
                },
                {
                    "name": "G#3",
                    "midi": 56,
                    "time": 182.8125,
                    "velocity": 0.3858267716535433,
                    "duration": 0.625
                },
                {
                    "name": "C#4",
                    "midi": 61,
                    "time": 182.8125,
                    "velocity": 0.3858267716535433,
                    "duration": 0.625
                },
                {
                    "name": "D#4",
                    "midi": 63,
                    "time": 182.8125,
                    "velocity": 0.3858267716535433,
                    "duration": 0.625
                },
                {
                    "name": "G#3",
                    "midi": 56,
                    "time": 183.4375,
                    "velocity": 0.3858267716535433,
                    "duration": 0.625
                },
                {
                    "name": "C#4",
                    "midi": 61,
                    "time": 183.4375,
                    "velocity": 0.3858267716535433,
                    "duration": 0.625
                },
                {
                    "name": "D#4",
                    "midi": 63,
                    "time": 183.4375,
                    "velocity": 0.3858267716535433,
                    "duration": 0.625
                },
                {
                    "name": "G#3",
                    "midi": 56,
                    "time": 184.0625,
                    "velocity": 0.3858267716535433,
                    "duration": 0.625
                },
                {
                    "name": "C#4",
                    "midi": 61,
                    "time": 184.0625,
                    "velocity": 0.3858267716535433,
                    "duration": 0.625
                },
                {
                    "name": "D#4",
                    "midi": 63,
                    "time": 184.0625,
                    "velocity": 0.3858267716535433,
                    "duration": 0.625
                },
                {
                    "name": "G3",
                    "midi": 55,
                    "time": 184.6875,
                    "velocity": 0.3858267716535433,
                    "duration": 0.3125
                },
                {
                    "name": "D#4",
                    "midi": 63,
                    "time": 184.6875,
                    "velocity": 0.3858267716535433,
                    "duration": 0.3125
                },
                {
                    "name": "G#4",
                    "midi": 68,
                    "time": 185,
                    "velocity": 0.8976377952755905,
                    "duration": 0.20703125
                },
                {
                    "name": "C5",
                    "midi": 72,
                    "time": 185,
                    "velocity": 0.8976377952755905,
                    "duration": 0.20703125
                },
                {
                    "name": "G#5",
                    "midi": 80,
                    "time": 185,
                    "velocity": 0.8976377952755905,
                    "duration": 0.20703125
                },
                {
                    "name": "C6",
                    "midi": 84,
                    "time": 185,
                    "velocity": 0.8976377952755905,
                    "duration": 0.20703125
                },
                {
                    "name": "A#4",
                    "midi": 70,
                    "time": 185.20703125,
                    "velocity": 0.6929133858267716,
                    "duration": 0.2096354166666572
                },
                {
                    "name": "C#5",
                    "midi": 73,
                    "time": 185.20703125,
                    "velocity": 0.6929133858267716,
                    "duration": 0.2096354166666572
                },
                {
                    "name": "A#5",
                    "midi": 82,
                    "time": 185.20703125,
                    "velocity": 0.6929133858267716,
                    "duration": 0.2096354166666572
                },
                {
                    "name": "C#6",
                    "midi": 85,
                    "time": 185.20703125,
                    "velocity": 0.6929133858267716,
                    "duration": 0.2096354166666572
                },
                {
                    "name": "C5",
                    "midi": 72,
                    "time": 185.41666666666666,
                    "velocity": 0.6929133858267716,
                    "duration": 0.2083333333333428
                },
                {
                    "name": "D#5",
                    "midi": 75,
                    "time": 185.41666666666666,
                    "velocity": 0.6929133858267716,
                    "duration": 0.2083333333333428
                },
                {
                    "name": "C6",
                    "midi": 84,
                    "time": 185.41666666666666,
                    "velocity": 0.6929133858267716,
                    "duration": 0.2083333333333428
                },
                {
                    "name": "D#6",
                    "midi": 87,
                    "time": 185.41666666666666,
                    "velocity": 0.6929133858267716,
                    "duration": 0.2083333333333428
                },
                {
                    "name": "C5",
                    "midi": 72,
                    "time": 185.625,
                    "velocity": 0.8976377952755905,
                    "duration": 0.20703125
                },
                {
                    "name": "D#5",
                    "midi": 75,
                    "time": 185.625,
                    "velocity": 0.8976377952755905,
                    "duration": 0.20703125
                },
                {
                    "name": "C6",
                    "midi": 84,
                    "time": 185.625,
                    "velocity": 0.8976377952755905,
                    "duration": 0.20703125
                },
                {
                    "name": "D#6",
                    "midi": 87,
                    "time": 185.625,
                    "velocity": 0.8976377952755905,
                    "duration": 0.20703125
                },
                {
                    "name": "A#4",
                    "midi": 70,
                    "time": 185.83203125,
                    "velocity": 0.6929133858267716,
                    "duration": 0.2096354166666572
                },
                {
                    "name": "C#5",
                    "midi": 73,
                    "time": 185.83203125,
                    "velocity": 0.6929133858267716,
                    "duration": 0.2096354166666572
                },
                {
                    "name": "A#5",
                    "midi": 82,
                    "time": 185.83203125,
                    "velocity": 0.6929133858267716,
                    "duration": 0.2096354166666572
                },
                {
                    "name": "C#6",
                    "midi": 85,
                    "time": 185.83203125,
                    "velocity": 0.6929133858267716,
                    "duration": 0.2096354166666572
                },
                {
                    "name": "G#4",
                    "midi": 68,
                    "time": 186.04166666666666,
                    "velocity": 0.6929133858267716,
                    "duration": 0.2083333333333428
                },
                {
                    "name": "C5",
                    "midi": 72,
                    "time": 186.04166666666666,
                    "velocity": 0.6929133858267716,
                    "duration": 0.2083333333333428
                },
                {
                    "name": "G#5",
                    "midi": 80,
                    "time": 186.04166666666666,
                    "velocity": 0.6929133858267716,
                    "duration": 0.2083333333333428
                },
                {
                    "name": "C6",
                    "midi": 84,
                    "time": 186.04166666666666,
                    "velocity": 0.6929133858267716,
                    "duration": 0.2083333333333428
                },
                {
                    "name": "G#4",
                    "midi": 68,
                    "time": 186.25,
                    "velocity": 0.6929133858267716,
                    "duration": 0.4166666666666572
                },
                {
                    "name": "C5",
                    "midi": 72,
                    "time": 186.25,
                    "velocity": 0.6929133858267716,
                    "duration": 0.4166666666666572
                },
                {
                    "name": "G#5",
                    "midi": 80,
                    "time": 186.25,
                    "velocity": 0.6929133858267716,
                    "duration": 0.4166666666666572
                },
                {
                    "name": "C6",
                    "midi": 84,
                    "time": 186.25,
                    "velocity": 0.6929133858267716,
                    "duration": 0.4166666666666572
                },
                {
                    "name": "A#4",
                    "midi": 70,
                    "time": 186.66666666666666,
                    "velocity": 0.6929133858267716,
                    "duration": 0.4153645833333428
                },
                {
                    "name": "C#5",
                    "midi": 73,
                    "time": 186.66666666666666,
                    "velocity": 0.6929133858267716,
                    "duration": 0.4153645833333428
                },
                {
                    "name": "A#5",
                    "midi": 82,
                    "time": 186.66666666666666,
                    "velocity": 0.6929133858267716,
                    "duration": 0.4153645833333428
                },
                {
                    "name": "C#6",
                    "midi": 85,
                    "time": 186.66666666666666,
                    "velocity": 0.6929133858267716,
                    "duration": 0.4153645833333428
                },
                {
                    "name": "C5",
                    "midi": 72,
                    "time": 187.08203125,
                    "velocity": 0.6929133858267716,
                    "duration": 0.41796875
                },
                {
                    "name": "D#5",
                    "midi": 75,
                    "time": 187.08203125,
                    "velocity": 0.6929133858267716,
                    "duration": 0.41796875
                },
                {
                    "name": "C6",
                    "midi": 84,
                    "time": 187.08203125,
                    "velocity": 0.6929133858267716,
                    "duration": 0.41796875
                },
                {
                    "name": "D#6",
                    "midi": 87,
                    "time": 187.08203125,
                    "velocity": 0.6929133858267716,
                    "duration": 0.41796875
                },
                {
                    "name": "C#5",
                    "midi": 73,
                    "time": 187.5,
                    "velocity": 0.6929133858267716,
                    "duration": 0.4166666666666572
                },
                {
                    "name": "F5",
                    "midi": 77,
                    "time": 187.5,
                    "velocity": 0.6929133858267716,
                    "duration": 0.4166666666666572
                },
                {
                    "name": "C#6",
                    "midi": 85,
                    "time": 187.5,
                    "velocity": 0.6929133858267716,
                    "duration": 0.4166666666666572
                },
                {
                    "name": "F6",
                    "midi": 89,
                    "time": 187.5,
                    "velocity": 0.6929133858267716,
                    "duration": 0.4166666666666572
                },
                {
                    "name": "C5",
                    "midi": 72,
                    "time": 187.91666666666666,
                    "velocity": 0.6929133858267716,
                    "duration": 0.4153645833333428
                },
                {
                    "name": "D#5",
                    "midi": 75,
                    "time": 187.91666666666666,
                    "velocity": 0.6929133858267716,
                    "duration": 0.4153645833333428
                },
                {
                    "name": "C6",
                    "midi": 84,
                    "time": 187.91666666666666,
                    "velocity": 0.6929133858267716,
                    "duration": 0.4153645833333428
                },
                {
                    "name": "D#6",
                    "midi": 87,
                    "time": 187.91666666666666,
                    "velocity": 0.6929133858267716,
                    "duration": 0.4153645833333428
                },
                {
                    "name": "A#4",
                    "midi": 70,
                    "time": 188.33203125,
                    "velocity": 0.6929133858267716,
                    "duration": 0.41796875
                },
                {
                    "name": "C#5",
                    "midi": 73,
                    "time": 188.33203125,
                    "velocity": 0.6929133858267716,
                    "duration": 0.41796875
                },
                {
                    "name": "A#5",
                    "midi": 82,
                    "time": 188.33203125,
                    "velocity": 0.6929133858267716,
                    "duration": 0.41796875
                },
                {
                    "name": "C#6",
                    "midi": 85,
                    "time": 188.33203125,
                    "velocity": 0.6929133858267716,
                    "duration": 0.41796875
                },
                {
                    "name": "G#4",
                    "midi": 68,
                    "time": 188.75,
                    "velocity": 0.6929133858267716,
                    "duration": 0.20703125
                },
                {
                    "name": "C5",
                    "midi": 72,
                    "time": 188.75,
                    "velocity": 0.6929133858267716,
                    "duration": 0.20703125
                },
                {
                    "name": "G#5",
                    "midi": 80,
                    "time": 188.75,
                    "velocity": 0.6929133858267716,
                    "duration": 0.20703125
                },
                {
                    "name": "C6",
                    "midi": 84,
                    "time": 188.75,
                    "velocity": 0.6929133858267716,
                    "duration": 0.20703125
                },
                {
                    "name": "G4",
                    "midi": 67,
                    "time": 188.95703125,
                    "velocity": 0.6929133858267716,
                    "duration": 0.2096354166666572
                },
                {
                    "name": "A#4",
                    "midi": 70,
                    "time": 188.95703125,
                    "velocity": 0.6929133858267716,
                    "duration": 0.2096354166666572
                },
                {
                    "name": "G5",
                    "midi": 79,
                    "time": 188.95703125,
                    "velocity": 0.6929133858267716,
                    "duration": 0.2096354166666572
                },
                {
                    "name": "A#5",
                    "midi": 82,
                    "time": 188.95703125,
                    "velocity": 0.6929133858267716,
                    "duration": 0.2096354166666572
                },
                {
                    "name": "F4",
                    "midi": 65,
                    "time": 189.16666666666666,
                    "velocity": 0.6929133858267716,
                    "duration": 0.2083333333333428
                },
                {
                    "name": "G#4",
                    "midi": 68,
                    "time": 189.16666666666666,
                    "velocity": 0.6929133858267716,
                    "duration": 0.2083333333333428
                },
                {
                    "name": "F5",
                    "midi": 77,
                    "time": 189.16666666666666,
                    "velocity": 0.6929133858267716,
                    "duration": 0.2083333333333428
                },
                {
                    "name": "G#5",
                    "midi": 80,
                    "time": 189.16666666666666,
                    "velocity": 0.6929133858267716,
                    "duration": 0.2083333333333428
                },
                {
                    "name": "D#4",
                    "midi": 63,
                    "time": 189.375,
                    "velocity": 0.6929133858267716,
                    "duration": 0.20703125
                },
                {
                    "name": "G4",
                    "midi": 67,
                    "time": 189.375,
                    "velocity": 0.6929133858267716,
                    "duration": 0.20703125
                },
                {
                    "name": "D#5",
                    "midi": 75,
                    "time": 189.375,
                    "velocity": 0.6929133858267716,
                    "duration": 0.20703125
                },
                {
                    "name": "G5",
                    "midi": 79,
                    "time": 189.375,
                    "velocity": 0.6929133858267716,
                    "duration": 0.20703125
                },
                {
                    "name": "F4",
                    "midi": 65,
                    "time": 189.58203125,
                    "velocity": 0.6929133858267716,
                    "duration": 0.2096354166666572
                },
                {
                    "name": "G#4",
                    "midi": 68,
                    "time": 189.58203125,
                    "velocity": 0.6929133858267716,
                    "duration": 0.2096354166666572
                },
                {
                    "name": "F5",
                    "midi": 77,
                    "time": 189.58203125,
                    "velocity": 0.6929133858267716,
                    "duration": 0.2096354166666572
                },
                {
                    "name": "G#5",
                    "midi": 80,
                    "time": 189.58203125,
                    "velocity": 0.6929133858267716,
                    "duration": 0.2096354166666572
                },
                {
                    "name": "G4",
                    "midi": 67,
                    "time": 189.79166666666666,
                    "velocity": 0.6929133858267716,
                    "duration": 0.2083333333333428
                },
                {
                    "name": "A#4",
                    "midi": 70,
                    "time": 189.79166666666666,
                    "velocity": 0.6929133858267716,
                    "duration": 0.2083333333333428
                },
                {
                    "name": "G5",
                    "midi": 79,
                    "time": 189.79166666666666,
                    "velocity": 0.6929133858267716,
                    "duration": 0.2083333333333428
                },
                {
                    "name": "A#5",
                    "midi": 82,
                    "time": 189.79166666666666,
                    "velocity": 0.6929133858267716,
                    "duration": 0.2083333333333428
                },
                {
                    "name": "G#4",
                    "midi": 68,
                    "time": 190,
                    "velocity": 0.6929133858267716,
                    "duration": 0.15625
                },
                {
                    "name": "G#5",
                    "midi": 80,
                    "time": 190,
                    "velocity": 0.6929133858267716,
                    "duration": 0.15625
                },
                {
                    "name": "A#3",
                    "midi": 58,
                    "time": 190.15625,
                    "velocity": 0.6929133858267716,
                    "duration": 0.15625
                },
                {
                    "name": "C4",
                    "midi": 60,
                    "time": 190.3125,
                    "velocity": 0.6929133858267716,
                    "duration": 0.15625
                },
                {
                    "name": "A#4",
                    "midi": 70,
                    "time": 190.46875,
                    "velocity": 0.6929133858267716,
                    "duration": 0.15625
                },
                {
                    "name": "A#5",
                    "midi": 82,
                    "time": 190.46875,
                    "velocity": 0.6929133858267716,
                    "duration": 0.15625
                },
                {
                    "name": "C5",
                    "midi": 72,
                    "time": 190.625,
                    "velocity": 0.6929133858267716,
                    "duration": 0.15625
                },
                {
                    "name": "C6",
                    "midi": 84,
                    "time": 190.625,
                    "velocity": 0.6929133858267716,
                    "duration": 0.15625
                },
                {
                    "name": "C#4",
                    "midi": 61,
                    "time": 190.78125,
                    "velocity": 0.6929133858267716,
                    "duration": 0.15625
                },
                {
                    "name": "D#4",
                    "midi": 63,
                    "time": 190.9375,
                    "velocity": 0.6929133858267716,
                    "duration": 0.15625
                },
                {
                    "name": "C#5",
                    "midi": 73,
                    "time": 191.09375,
                    "velocity": 0.6929133858267716,
                    "duration": 0.15625
                },
                {
                    "name": "C#6",
                    "midi": 85,
                    "time": 191.09375,
                    "velocity": 0.6929133858267716,
                    "duration": 0.15625
                },
                {
                    "name": "D#5",
                    "midi": 75,
                    "time": 191.25,
                    "velocity": 0.6929133858267716,
                    "duration": 0.15625
                },
                {
                    "name": "D#6",
                    "midi": 87,
                    "time": 191.25,
                    "velocity": 0.6929133858267716,
                    "duration": 0.15625
                },
                {
                    "name": "F4",
                    "midi": 65,
                    "time": 191.40625,
                    "velocity": 0.6929133858267716,
                    "duration": 0.15625
                },
                {
                    "name": "G4",
                    "midi": 67,
                    "time": 191.5625,
                    "velocity": 0.6929133858267716,
                    "duration": 0.15625
                },
                {
                    "name": "F5",
                    "midi": 77,
                    "time": 191.71875,
                    "velocity": 0.6929133858267716,
                    "duration": 0.15625
                },
                {
                    "name": "F6",
                    "midi": 89,
                    "time": 191.71875,
                    "velocity": 0.6929133858267716,
                    "duration": 0.15625
                },
                {
                    "name": "G5",
                    "midi": 79,
                    "time": 191.875,
                    "velocity": 0.6929133858267716,
                    "duration": 0.15625
                },
                {
                    "name": "G6",
                    "midi": 91,
                    "time": 191.875,
                    "velocity": 0.6929133858267716,
                    "duration": 0.15625
                },
                {
                    "name": "G#4",
                    "midi": 68,
                    "time": 192.03125,
                    "velocity": 0.6929133858267716,
                    "duration": 0.15625
                },
                {
                    "name": "A#4",
                    "midi": 70,
                    "time": 192.1875,
                    "velocity": 0.6929133858267716,
                    "duration": 0.15625
                },
                {
                    "name": "G#5",
                    "midi": 80,
                    "time": 192.34375,
                    "velocity": 0.6929133858267716,
                    "duration": 0.15625
                },
                {
                    "name": "G#6",
                    "midi": 92,
                    "time": 192.34375,
                    "velocity": 0.6929133858267716,
                    "duration": 0.15625
                },
                {
                    "name": "A#4",
                    "midi": 70,
                    "time": 192.5,
                    "velocity": 0.6929133858267716,
                    "duration": 0.15625
                },
                {
                    "name": "A#5",
                    "midi": 82,
                    "time": 192.5,
                    "velocity": 0.6929133858267716,
                    "duration": 0.15625
                },
                {
                    "name": "C4",
                    "midi": 60,
                    "time": 192.65625,
                    "velocity": 0.6929133858267716,
                    "duration": 0.15625
                },
                {
                    "name": "C#4",
                    "midi": 61,
                    "time": 192.8125,
                    "velocity": 0.6929133858267716,
                    "duration": 0.15625
                },
                {
                    "name": "C5",
                    "midi": 72,
                    "time": 192.96875,
                    "velocity": 0.6929133858267716,
                    "duration": 0.15625
                },
                {
                    "name": "C6",
                    "midi": 84,
                    "time": 192.96875,
                    "velocity": 0.6929133858267716,
                    "duration": 0.15625
                },
                {
                    "name": "C#5",
                    "midi": 73,
                    "time": 193.125,
                    "velocity": 0.6929133858267716,
                    "duration": 0.15625
                },
                {
                    "name": "C#6",
                    "midi": 85,
                    "time": 193.125,
                    "velocity": 0.6929133858267716,
                    "duration": 0.15625
                },
                {
                    "name": "D#4",
                    "midi": 63,
                    "time": 193.28125,
                    "velocity": 0.6929133858267716,
                    "duration": 0.15625
                },
                {
                    "name": "F4",
                    "midi": 65,
                    "time": 193.4375,
                    "velocity": 0.6929133858267716,
                    "duration": 0.15625
                },
                {
                    "name": "D#5",
                    "midi": 75,
                    "time": 193.59375,
                    "velocity": 0.6929133858267716,
                    "duration": 0.15625
                },
                {
                    "name": "D#6",
                    "midi": 87,
                    "time": 193.59375,
                    "velocity": 0.6929133858267716,
                    "duration": 0.15625
                },
                {
                    "name": "F5",
                    "midi": 77,
                    "time": 193.75,
                    "velocity": 0.6929133858267716,
                    "duration": 0.15625
                },
                {
                    "name": "F6",
                    "midi": 89,
                    "time": 193.75,
                    "velocity": 0.6929133858267716,
                    "duration": 0.15625
                },
                {
                    "name": "G4",
                    "midi": 67,
                    "time": 193.90625,
                    "velocity": 0.6929133858267716,
                    "duration": 0.15625
                },
                {
                    "name": "G#4",
                    "midi": 68,
                    "time": 194.0625,
                    "velocity": 0.6929133858267716,
                    "duration": 0.15625
                },
                {
                    "name": "G5",
                    "midi": 79,
                    "time": 194.21875,
                    "velocity": 0.6929133858267716,
                    "duration": 0.15625
                },
                {
                    "name": "G6",
                    "midi": 91,
                    "time": 194.21875,
                    "velocity": 0.6929133858267716,
                    "duration": 0.15625
                },
                {
                    "name": "G#5",
                    "midi": 80,
                    "time": 194.375,
                    "velocity": 0.6929133858267716,
                    "duration": 0.15625
                },
                {
                    "name": "G#6",
                    "midi": 92,
                    "time": 194.375,
                    "velocity": 0.6929133858267716,
                    "duration": 0.15625
                },
                {
                    "name": "A#4",
                    "midi": 70,
                    "time": 194.53125,
                    "velocity": 0.6929133858267716,
                    "duration": 0.15625
                },
                {
                    "name": "C5",
                    "midi": 72,
                    "time": 194.6875,
                    "velocity": 0.6929133858267716,
                    "duration": 0.15625
                },
                {
                    "name": "A#5",
                    "midi": 82,
                    "time": 194.84375,
                    "velocity": 0.6929133858267716,
                    "duration": 0.15625
                },
                {
                    "name": "A#6",
                    "midi": 94,
                    "time": 194.84375,
                    "velocity": 0.6929133858267716,
                    "duration": 0.15625
                },
                {
                    "name": "C6",
                    "midi": 84,
                    "time": 195,
                    "velocity": 0.7952755905511811,
                    "duration": 0.3125
                },
                {
                    "name": "D5",
                    "midi": 74,
                    "time": 195.3125,
                    "velocity": 0.7952755905511811,
                    "duration": 0.3125
                },
                {
                    "name": "E5",
                    "midi": 76,
                    "time": 195.625,
                    "velocity": 0.7952755905511811,
                    "duration": 0.625
                },
                {
                    "name": "C6",
                    "midi": 84,
                    "time": 196.25,
                    "velocity": 0.7952755905511811,
                    "duration": 0.3125
                },
                {
                    "name": "D5",
                    "midi": 74,
                    "time": 196.5625,
                    "velocity": 0.7952755905511811,
                    "duration": 0.3125
                },
                {
                    "name": "E5",
                    "midi": 76,
                    "time": 196.875,
                    "velocity": 0.7952755905511811,
                    "duration": 0.625
                },
                {
                    "name": "C6",
                    "midi": 84,
                    "time": 197.5,
                    "velocity": 0.7952755905511811,
                    "duration": 0.3125
                },
                {
                    "name": "D5",
                    "midi": 74,
                    "time": 197.8125,
                    "velocity": 0.5905511811023622,
                    "duration": 0.06119791666665719
                },
                {
                    "name": "E5",
                    "midi": 76,
                    "time": 198.125,
                    "velocity": 0.5905511811023622,
                    "duration": 0.06119791666665719
                },
                {
                    "name": "D6",
                    "midi": 86,
                    "time": 198.4375,
                    "velocity": 0.7952755905511811,
                    "duration": 0.3125
                },
                {
                    "name": "C6",
                    "midi": 84,
                    "time": 198.75,
                    "velocity": 0.5905511811023622,
                    "duration": 0.3125
                },
                {
                    "name": "C5",
                    "midi": 72,
                    "time": 199.0625,
                    "velocity": 0.5905511811023622,
                    "duration": 0.15625
                },
                {
                    "name": "D5",
                    "midi": 74,
                    "time": 199.21875,
                    "velocity": 0.5905511811023622,
                    "duration": 0.15625
                },
                {
                    "name": "E5",
                    "midi": 76,
                    "time": 199.375,
                    "velocity": 0.5905511811023622,
                    "duration": 0.625
                },
                {
                    "name": "G5",
                    "midi": 79,
                    "time": 205.3125,
                    "velocity": 0.4881889763779528,
                    "duration": 0.3125
                },
                {
                    "name": "C6",
                    "midi": 84,
                    "time": 205.625,
                    "velocity": 0.4881889763779528,
                    "duration": 0.3125
                },
                {
                    "name": "E6",
                    "midi": 88,
                    "time": 205.9375,
                    "velocity": 0.4881889763779528,
                    "duration": 0.3125
                },
                {
                    "name": "D6",
                    "midi": 86,
                    "time": 206.25,
                    "velocity": 0.4881889763779528,
                    "duration": 0.10416666666665719
                },
                {
                    "name": "E6",
                    "midi": 88,
                    "time": 206.35416666666666,
                    "velocity": 0.4881889763779528,
                    "duration": 0.10286458333334281
                },
                {
                    "name": "D6",
                    "midi": 86,
                    "time": 206.45703125,
                    "velocity": 0.4881889763779528,
                    "duration": 0.10546875
                },
                {
                    "name": "A#5",
                    "midi": 82,
                    "time": 206.5625,
                    "velocity": 0.4881889763779528,
                    "duration": 0.029947916666657193
                },
                {
                    "name": "G5",
                    "midi": 79,
                    "time": 206.71875,
                    "velocity": 0.4881889763779528,
                    "duration": 0.029947916666657193
                },
                {
                    "name": "E5",
                    "midi": 76,
                    "time": 206.875,
                    "velocity": 0.4881889763779528,
                    "duration": 0.3125
                },
                {
                    "name": "A5",
                    "midi": 81,
                    "time": 207.1875,
                    "velocity": 0.4881889763779528,
                    "duration": 0.3125
                },
                {
                    "name": "F5",
                    "midi": 77,
                    "time": 207.5,
                    "velocity": 0.4881889763779528,
                    "duration": 0.10416666666665719
                },
                {
                    "name": "G5",
                    "midi": 79,
                    "time": 207.60416666666666,
                    "velocity": 0.4881889763779528,
                    "duration": 0.10286458333334281
                },
                {
                    "name": "F5",
                    "midi": 77,
                    "time": 207.70703125,
                    "velocity": 0.4881889763779528,
                    "duration": 0.10546875
                },
                {
                    "name": "D5",
                    "midi": 74,
                    "time": 207.8125,
                    "velocity": 0.4881889763779528,
                    "duration": 0.029947916666657193
                },
                {
                    "name": "A#4",
                    "midi": 70,
                    "time": 207.96875,
                    "velocity": 0.4881889763779528,
                    "duration": 0.029947916666657193
                },
                {
                    "name": "G4",
                    "midi": 67,
                    "time": 208.125,
                    "velocity": 0.4881889763779528,
                    "duration": 0.625
                },
                {
                    "name": "F#4",
                    "midi": 66,
                    "time": 215,
                    "velocity": 0.5905511811023622,
                    "duration": 0.625
                },
                {
                    "name": "D#4",
                    "midi": 63,
                    "time": 215.625,
                    "velocity": 0.5905511811023622,
                    "duration": 0.625
                },
                {
                    "name": "E4",
                    "midi": 64,
                    "time": 216.25,
                    "velocity": 0.5905511811023622,
                    "duration": 0.625
                },
                {
                    "name": "D#4",
                    "midi": 63,
                    "time": 216.875,
                    "velocity": 0.5905511811023622,
                    "duration": 0.625
                },
                {
                    "name": "A#5",
                    "midi": 82,
                    "time": 219.0625,
                    "velocity": 0.4881889763779528,
                    "duration": 0.3125
                },
                {
                    "name": "D#6",
                    "midi": 87,
                    "time": 219.375,
                    "velocity": 0.4881889763779528,
                    "duration": 0.3125
                },
                {
                    "name": "G6",
                    "midi": 91,
                    "time": 219.6875,
                    "velocity": 0.4881889763779528,
                    "duration": 0.3125
                },
                {
                    "name": "F6",
                    "midi": 89,
                    "time": 220,
                    "velocity": 0.4881889763779528,
                    "duration": 0.10416666666665719
                },
                {
                    "name": "G6",
                    "midi": 91,
                    "time": 220.10416666666666,
                    "velocity": 0.4881889763779528,
                    "duration": 0.10286458333334281
                },
                {
                    "name": "F6",
                    "midi": 89,
                    "time": 220.20703125,
                    "velocity": 0.4881889763779528,
                    "duration": 0.10546875
                },
                {
                    "name": "C#6",
                    "midi": 85,
                    "time": 220.3125,
                    "velocity": 0.4881889763779528,
                    "duration": 0.15625
                },
                {
                    "name": "A#5",
                    "midi": 82,
                    "time": 220.46875,
                    "velocity": 0.4881889763779528,
                    "duration": 0.15625
                },
                {
                    "name": "G5",
                    "midi": 79,
                    "time": 220.625,
                    "velocity": 0.4881889763779528,
                    "duration": 0.3125
                },
                {
                    "name": "C6",
                    "midi": 84,
                    "time": 220.9375,
                    "velocity": 0.4881889763779528,
                    "duration": 0.3125
                },
                {
                    "name": "A#5",
                    "midi": 82,
                    "time": 221.25,
                    "velocity": 0.4881889763779528,
                    "duration": 0.10416666666665719
                },
                {
                    "name": "C6",
                    "midi": 84,
                    "time": 221.35416666666666,
                    "velocity": 0.4881889763779528,
                    "duration": 0.10286458333334281
                },
                {
                    "name": "A#5",
                    "midi": 82,
                    "time": 221.45703125,
                    "velocity": 0.4881889763779528,
                    "duration": 0.10546875
                },
                {
                    "name": "G5",
                    "midi": 79,
                    "time": 221.5625,
                    "velocity": 0.4881889763779528,
                    "duration": 0.15625
                },
                {
                    "name": "D#5",
                    "midi": 75,
                    "time": 221.71875,
                    "velocity": 0.4881889763779528,
                    "duration": 0.15625
                },
                {
                    "name": "A#4",
                    "midi": 70,
                    "time": 221.875,
                    "velocity": 0.4881889763779528,
                    "duration": 1.25
                },
                {
                    "name": "D#5",
                    "midi": 75,
                    "time": 223.125,
                    "velocity": 0.4881889763779528,
                    "duration": 0.3125
                },
                {
                    "name": "F4",
                    "midi": 65,
                    "time": 223.4375,
                    "velocity": 0.4881889763779528,
                    "duration": 0.3125
                },
                {
                    "name": "G4",
                    "midi": 67,
                    "time": 223.75,
                    "velocity": 0.4881889763779528,
                    "duration": 0.3125
                },
                {
                    "name": "A#4",
                    "midi": 70,
                    "time": 223.75,
                    "velocity": 0.4881889763779528,
                    "duration": 0.3125
                },
                {
                    "name": "F5",
                    "midi": 77,
                    "time": 224.0625,
                    "velocity": 0.4881889763779528,
                    "duration": 0.3125
                },
                {
                    "name": "D#5",
                    "midi": 75,
                    "time": 224.375,
                    "velocity": 0.4881889763779528,
                    "duration": 0.3125
                },
                {
                    "name": "D#4",
                    "midi": 63,
                    "time": 224.6875,
                    "velocity": 0.4881889763779528,
                    "duration": 0.15625
                },
                {
                    "name": "F4",
                    "midi": 65,
                    "time": 224.84375,
                    "velocity": 0.4881889763779528,
                    "duration": 0.15625
                },
                {
                    "name": "D#4",
                    "midi": 63,
                    "time": 225,
                    "velocity": 0.4881889763779528,
                    "duration": 0.3125
                },
                {
                    "name": "G4",
                    "midi": 67,
                    "time": 225,
                    "velocity": 0.4881889763779528,
                    "duration": 0.3125
                },
                {
                    "name": "A#4",
                    "midi": 70,
                    "time": 225,
                    "velocity": 0.4881889763779528,
                    "duration": 0.3125
                },
                {
                    "name": "D#4",
                    "midi": 63,
                    "time": 225.3125,
                    "velocity": 0.4881889763779528,
                    "duration": 0.15625
                },
                {
                    "name": "D#4",
                    "midi": 63,
                    "time": 225.46875,
                    "velocity": 0.4881889763779528,
                    "duration": 0.15625
                },
                {
                    "name": "D#4",
                    "midi": 63,
                    "time": 225.625,
                    "velocity": 0.4881889763779528,
                    "duration": 0.15625
                },
                {
                    "name": "D#4",
                    "midi": 63,
                    "time": 225.78125,
                    "velocity": 0.4881889763779528,
                    "duration": 0.15625
                },
                {
                    "name": "G4",
                    "midi": 67,
                    "time": 225.9375,
                    "velocity": 0.4881889763779528,
                    "duration": 0.3125
                },
                {
                    "name": "G#4",
                    "midi": 68,
                    "time": 226.25,
                    "velocity": 0.4881889763779528,
                    "duration": 2.5
                },
                {
                    "name": "B5",
                    "midi": 83,
                    "time": 229.0625,
                    "velocity": 0.4881889763779528,
                    "duration": 0.3125
                },
                {
                    "name": "C#6",
                    "midi": 85,
                    "time": 229.0625,
                    "velocity": 0.4881889763779528,
                    "duration": 0.3125
                },
                {
                    "name": "A#5",
                    "midi": 82,
                    "time": 229.375,
                    "velocity": 0.4881889763779528,
                    "duration": 0.3125
                },
                {
                    "name": "D6",
                    "midi": 86,
                    "time": 229.375,
                    "velocity": 0.4881889763779528,
                    "duration": 0.3125
                },
                {
                    "name": "A5",
                    "midi": 81,
                    "time": 229.6875,
                    "velocity": 0.4881889763779528,
                    "duration": 0.3125
                },
                {
                    "name": "F6",
                    "midi": 89,
                    "time": 229.6875,
                    "velocity": 0.4881889763779528,
                    "duration": 0.3125
                },
                {
                    "name": "G#5",
                    "midi": 80,
                    "time": 230,
                    "velocity": 0.4881889763779528,
                    "duration": 0.3125
                },
                {
                    "name": "A#5",
                    "midi": 82,
                    "time": 230,
                    "velocity": 0.4881889763779528,
                    "duration": 0.3125
                },
                {
                    "name": "G5",
                    "midi": 79,
                    "time": 230.3125,
                    "velocity": 0.4881889763779528,
                    "duration": 0.3125
                },
                {
                    "name": "B5",
                    "midi": 83,
                    "time": 230.3125,
                    "velocity": 0.4881889763779528,
                    "duration": 0.3125
                },
                {
                    "name": "F#5",
                    "midi": 78,
                    "time": 230.625,
                    "velocity": 0.4881889763779528,
                    "duration": 0.3125
                },
                {
                    "name": "D6",
                    "midi": 86,
                    "time": 230.625,
                    "velocity": 0.4881889763779528,
                    "duration": 0.3125
                },
                {
                    "name": "F5",
                    "midi": 77,
                    "time": 230.9375,
                    "velocity": 0.4881889763779528,
                    "duration": 0.3125
                },
                {
                    "name": "G5",
                    "midi": 79,
                    "time": 230.9375,
                    "velocity": 0.4881889763779528,
                    "duration": 0.3125
                },
                {
                    "name": "E5",
                    "midi": 76,
                    "time": 231.25,
                    "velocity": 0.4881889763779528,
                    "duration": 0.3125
                },
                {
                    "name": "G#5",
                    "midi": 80,
                    "time": 231.25,
                    "velocity": 0.4881889763779528,
                    "duration": 0.3125
                },
                {
                    "name": "D#5",
                    "midi": 75,
                    "time": 231.5625,
                    "velocity": 0.4881889763779528,
                    "duration": 0.3125
                },
                {
                    "name": "B5",
                    "midi": 83,
                    "time": 231.5625,
                    "velocity": 0.4881889763779528,
                    "duration": 0.3125
                },
                {
                    "name": "D5",
                    "midi": 74,
                    "time": 231.875,
                    "velocity": 0.4881889763779528,
                    "duration": 0.3125
                },
                {
                    "name": "E5",
                    "midi": 76,
                    "time": 231.875,
                    "velocity": 0.4881889763779528,
                    "duration": 0.3125
                },
                {
                    "name": "C#5",
                    "midi": 73,
                    "time": 232.1875,
                    "velocity": 0.4881889763779528,
                    "duration": 0.3125
                },
                {
                    "name": "F5",
                    "midi": 77,
                    "time": 232.1875,
                    "velocity": 0.4881889763779528,
                    "duration": 0.3125
                },
                {
                    "name": "C5",
                    "midi": 72,
                    "time": 232.5,
                    "velocity": 0.4881889763779528,
                    "duration": 0.3125
                },
                {
                    "name": "G#5",
                    "midi": 80,
                    "time": 232.5,
                    "velocity": 0.4881889763779528,
                    "duration": 0.3125
                },
                {
                    "name": "B4",
                    "midi": 71,
                    "time": 232.8125,
                    "velocity": 0.4881889763779528,
                    "duration": 0.3125
                },
                {
                    "name": "C#5",
                    "midi": 73,
                    "time": 232.8125,
                    "velocity": 0.4881889763779528,
                    "duration": 0.3125
                },
                {
                    "name": "A#4",
                    "midi": 70,
                    "time": 233.125,
                    "velocity": 0.4881889763779528,
                    "duration": 0.3125
                },
                {
                    "name": "D5",
                    "midi": 74,
                    "time": 233.125,
                    "velocity": 0.4881889763779528,
                    "duration": 0.3125
                },
                {
                    "name": "A4",
                    "midi": 69,
                    "time": 233.4375,
                    "velocity": 0.4881889763779528,
                    "duration": 0.3125
                },
                {
                    "name": "E5",
                    "midi": 76,
                    "time": 233.4375,
                    "velocity": 0.4881889763779528,
                    "duration": 0.3125
                },
                {
                    "name": "G#4",
                    "midi": 68,
                    "time": 233.75,
                    "velocity": 0.4881889763779528,
                    "duration": 0.3125
                },
                {
                    "name": "A#4",
                    "midi": 70,
                    "time": 233.75,
                    "velocity": 0.4881889763779528,
                    "duration": 0.3125
                },
                {
                    "name": "G4",
                    "midi": 67,
                    "time": 234.0625,
                    "velocity": 0.4881889763779528,
                    "duration": 0.3125
                },
                {
                    "name": "B4",
                    "midi": 71,
                    "time": 234.0625,
                    "velocity": 0.4881889763779528,
                    "duration": 0.3125
                },
                {
                    "name": "F#4",
                    "midi": 66,
                    "time": 234.375,
                    "velocity": 0.4881889763779528,
                    "duration": 0.3125
                },
                {
                    "name": "D5",
                    "midi": 74,
                    "time": 234.375,
                    "velocity": 0.4881889763779528,
                    "duration": 0.3125
                },
                {
                    "name": "F4",
                    "midi": 65,
                    "time": 234.6875,
                    "velocity": 0.4881889763779528,
                    "duration": 0.3125
                },
                {
                    "name": "G4",
                    "midi": 67,
                    "time": 234.6875,
                    "velocity": 0.4881889763779528,
                    "duration": 0.3125
                },
                {
                    "name": "E4",
                    "midi": 64,
                    "time": 235,
                    "velocity": 0.4881889763779528,
                    "duration": 0.3125
                },
                {
                    "name": "G#4",
                    "midi": 68,
                    "time": 235,
                    "velocity": 0.4881889763779528,
                    "duration": 0.3125
                },
                {
                    "name": "D#4",
                    "midi": 63,
                    "time": 235.3125,
                    "velocity": 0.4881889763779528,
                    "duration": 0.3125
                },
                {
                    "name": "B4",
                    "midi": 71,
                    "time": 235.3125,
                    "velocity": 0.4881889763779528,
                    "duration": 0.3125
                },
                {
                    "name": "D4",
                    "midi": 62,
                    "time": 235.625,
                    "velocity": 0.4881889763779528,
                    "duration": 0.3125
                },
                {
                    "name": "E4",
                    "midi": 64,
                    "time": 235.625,
                    "velocity": 0.4881889763779528,
                    "duration": 0.3125
                },
                {
                    "name": "C#4",
                    "midi": 61,
                    "time": 235.9375,
                    "velocity": 0.4881889763779528,
                    "duration": 0.3125
                },
                {
                    "name": "F4",
                    "midi": 65,
                    "time": 235.9375,
                    "velocity": 0.4881889763779528,
                    "duration": 0.3125
                },
                {
                    "name": "C4",
                    "midi": 60,
                    "time": 236.25,
                    "velocity": 0.4881889763779528,
                    "duration": 0.3125
                },
                {
                    "name": "G#4",
                    "midi": 68,
                    "time": 236.25,
                    "velocity": 0.4881889763779528,
                    "duration": 0.3125
                },
                {
                    "name": "B3",
                    "midi": 59,
                    "time": 236.5625,
                    "velocity": 0.4881889763779528,
                    "duration": 0.3125
                },
                {
                    "name": "C#4",
                    "midi": 61,
                    "time": 236.5625,
                    "velocity": 0.4881889763779528,
                    "duration": 0.3125
                },
                {
                    "name": "A#3",
                    "midi": 58,
                    "time": 236.875,
                    "velocity": 0.4881889763779528,
                    "duration": 0.3125
                },
                {
                    "name": "D4",
                    "midi": 62,
                    "time": 236.875,
                    "velocity": 0.4881889763779528,
                    "duration": 0.3125
                },
                {
                    "name": "A3",
                    "midi": 57,
                    "time": 237.1875,
                    "velocity": 0.4881889763779528,
                    "duration": 0.3125
                },
                {
                    "name": "F4",
                    "midi": 65,
                    "time": 237.1875,
                    "velocity": 0.4881889763779528,
                    "duration": 0.3125
                }
            ],
            "controlChanges": {
                "7": [
                    {
                        "number": 7,
                        "time": 0,
                        "value": 1
                    }
                ],
                "10": [
                    {
                        "number": 10,
                        "time": 0,
                        "value": 0.23622047244094488
                    }
                ],
                "64": [
                    {
                        "number": 64,
                        "time": 6.875,
                        "value": 1
                    },
                    {
                        "number": 64,
                        "time": 9.375,
                        "value": 0
                    },
                    {
                        "number": 64,
                        "time": 10,
                        "value": 1
                    },
                    {
                        "number": 64,
                        "time": 12.5,
                        "value": 0
                    },
                    {
                        "number": 64,
                        "time": 24.375,
                        "value": 1
                    },
                    {
                        "number": 64,
                        "time": 25.625,
                        "value": 0
                    },
                    {
                        "number": 64,
                        "time": 35,
                        "value": 1
                    },
                    {
                        "number": 64,
                        "time": 36.875,
                        "value": 0
                    },
                    {
                        "number": 64,
                        "time": 38.90625,
                        "value": 1
                    },
                    {
                        "number": 64,
                        "time": 39.84375,
                        "value": 0
                    },
                    {
                        "number": 64,
                        "time": 40,
                        "value": 1
                    },
                    {
                        "number": 64,
                        "time": 41.875,
                        "value": 0
                    },
                    {
                        "number": 64,
                        "time": 43.90625,
                        "value": 1
                    },
                    {
                        "number": 64,
                        "time": 44.84375,
                        "value": 0
                    },
                    {
                        "number": 64,
                        "time": 72.5,
                        "value": 1
                    },
                    {
                        "number": 64,
                        "time": 75.625,
                        "value": 0
                    },
                    {
                        "number": 64,
                        "time": 83.75,
                        "value": 1
                    },
                    {
                        "number": 64,
                        "time": 88.125,
                        "value": 0
                    },
                    {
                        "number": 64,
                        "time": 112.5,
                        "value": 1
                    },
                    {
                        "number": 64,
                        "time": 113.54166666666667,
                        "value": 0
                    },
                    {
                        "number": 64,
                        "time": 208.125,
                        "value": 1
                    },
                    {
                        "number": 64,
                        "time": 213.75,
                        "value": 0
                    },
                    {
                        "number": 64,
                        "time": 237.1875,
                        "value": 1
                    }
                ]
            },
            "id": 3,
            "name": "Instrument18",
            "instrumentNumber": 0,
            "instrument": "acoustic grand piano",
            "instrumentFamily": "piano",
            "channelNumber": 2,
            "isPercussion": false
        },
        {
            "startTime": 0,
            "duration": 242.5,
            "length": 450,
            "notes": [
                {
                    "name": "F2",
                    "midi": 41,
                    "time": 0,
                    "velocity": 0.3858267716535433,
                    "duration": 0.625
                },
                {
                    "name": "C3",
                    "midi": 48,
                    "time": 0,
                    "velocity": 0.3858267716535433,
                    "duration": 0.625
                },
                {
                    "name": "D#2",
                    "midi": 39,
                    "time": 0.625,
                    "velocity": 0.3858267716535433,
                    "duration": 0.625
                },
                {
                    "name": "A#2",
                    "midi": 46,
                    "time": 0.625,
                    "velocity": 0.3858267716535433,
                    "duration": 0.625
                },
                {
                    "name": "F2",
                    "midi": 41,
                    "time": 1.25,
                    "velocity": 0.3858267716535433,
                    "duration": 0.625
                },
                {
                    "name": "C3",
                    "midi": 48,
                    "time": 1.25,
                    "velocity": 0.3858267716535433,
                    "duration": 0.625
                },
                {
                    "name": "D#2",
                    "midi": 39,
                    "time": 1.875,
                    "velocity": 0.3858267716535433,
                    "duration": 0.625
                },
                {
                    "name": "A#2",
                    "midi": 46,
                    "time": 1.875,
                    "velocity": 0.3858267716535433,
                    "duration": 0.625
                },
                {
                    "name": "G#2",
                    "midi": 44,
                    "time": 2.5,
                    "velocity": 0.3858267716535433,
                    "duration": 0.625
                },
                {
                    "name": "D#3",
                    "midi": 51,
                    "time": 2.5,
                    "velocity": 0.3858267716535433,
                    "duration": 0.625
                },
                {
                    "name": "G2",
                    "midi": 43,
                    "time": 3.125,
                    "velocity": 0.3858267716535433,
                    "duration": 0.625
                },
                {
                    "name": "D3",
                    "midi": 50,
                    "time": 3.125,
                    "velocity": 0.3858267716535433,
                    "duration": 0.625
                },
                {
                    "name": "F2",
                    "midi": 41,
                    "time": 3.75,
                    "velocity": 0.3858267716535433,
                    "duration": 0.625
                },
                {
                    "name": "C3",
                    "midi": 48,
                    "time": 3.75,
                    "velocity": 0.3858267716535433,
                    "duration": 0.625
                },
                {
                    "name": "D#2",
                    "midi": 39,
                    "time": 4.375,
                    "velocity": 0.3858267716535433,
                    "duration": 0.625
                },
                {
                    "name": "A#2",
                    "midi": 46,
                    "time": 4.375,
                    "velocity": 0.3858267716535433,
                    "duration": 0.625
                },
                {
                    "name": "G#2",
                    "midi": 44,
                    "time": 5,
                    "velocity": 0.3858267716535433,
                    "duration": 0.625
                },
                {
                    "name": "D#3",
                    "midi": 51,
                    "time": 5,
                    "velocity": 0.3858267716535433,
                    "duration": 0.625
                },
                {
                    "name": "G2",
                    "midi": 43,
                    "time": 5.625,
                    "velocity": 0.3858267716535433,
                    "duration": 0.625
                },
                {
                    "name": "D3",
                    "midi": 50,
                    "time": 5.625,
                    "velocity": 0.3858267716535433,
                    "duration": 0.625
                },
                {
                    "name": "F2",
                    "midi": 41,
                    "time": 6.25,
                    "velocity": 0.3858267716535433,
                    "duration": 0.625
                },
                {
                    "name": "C3",
                    "midi": 48,
                    "time": 6.25,
                    "velocity": 0.3858267716535433,
                    "duration": 0.625
                },
                {
                    "name": "C3",
                    "midi": 48,
                    "time": 6.875,
                    "velocity": 0.3858267716535433,
                    "duration": 0.625
                },
                {
                    "name": "G3",
                    "midi": 55,
                    "time": 6.875,
                    "velocity": 0.3858267716535433,
                    "duration": 0.625
                },
                {
                    "name": "A#2",
                    "midi": 46,
                    "time": 7.5,
                    "velocity": 0.3858267716535433,
                    "duration": 0.625
                },
                {
                    "name": "F3",
                    "midi": 53,
                    "time": 7.5,
                    "velocity": 0.3858267716535433,
                    "duration": 0.625
                },
                {
                    "name": "G#2",
                    "midi": 44,
                    "time": 8.125,
                    "velocity": 0.3858267716535433,
                    "duration": 0.625
                },
                {
                    "name": "D#3",
                    "midi": 51,
                    "time": 8.125,
                    "velocity": 0.3858267716535433,
                    "duration": 0.625
                },
                {
                    "name": "G2",
                    "midi": 43,
                    "time": 8.75,
                    "velocity": 0.3858267716535433,
                    "duration": 0.625
                },
                {
                    "name": "D3",
                    "midi": 50,
                    "time": 8.75,
                    "velocity": 0.3858267716535433,
                    "duration": 0.625
                },
                {
                    "name": "F2",
                    "midi": 41,
                    "time": 9.375,
                    "velocity": 0.3858267716535433,
                    "duration": 0.625
                },
                {
                    "name": "C3",
                    "midi": 48,
                    "time": 9.375,
                    "velocity": 0.3858267716535433,
                    "duration": 0.625
                },
                {
                    "name": "G2",
                    "midi": 43,
                    "time": 10,
                    "velocity": 0.3858267716535433,
                    "duration": 0.625
                },
                {
                    "name": "D3",
                    "midi": 50,
                    "time": 10,
                    "velocity": 0.3858267716535433,
                    "duration": 0.625
                },
                {
                    "name": "G#2",
                    "midi": 44,
                    "time": 10.625,
                    "velocity": 0.3858267716535433,
                    "duration": 0.625
                },
                {
                    "name": "D#3",
                    "midi": 51,
                    "time": 10.625,
                    "velocity": 0.3858267716535433,
                    "duration": 0.625
                },
                {
                    "name": "G2",
                    "midi": 43,
                    "time": 11.25,
                    "velocity": 0.3858267716535433,
                    "duration": 0.625
                },
                {
                    "name": "D3",
                    "midi": 50,
                    "time": 11.25,
                    "velocity": 0.3858267716535433,
                    "duration": 0.625
                },
                {
                    "name": "G#2",
                    "midi": 44,
                    "time": 11.875,
                    "velocity": 0.3858267716535433,
                    "duration": 0.625
                },
                {
                    "name": "D#3",
                    "midi": 51,
                    "time": 11.875,
                    "velocity": 0.3858267716535433,
                    "duration": 0.625
                },
                {
                    "name": "C3",
                    "midi": 48,
                    "time": 12.5,
                    "velocity": 0.3858267716535433,
                    "duration": 1.25
                },
                {
                    "name": "G3",
                    "midi": 55,
                    "time": 12.5,
                    "velocity": 0.3858267716535433,
                    "duration": 1.25
                },
                {
                    "name": "F#4",
                    "midi": 66,
                    "time": 35,
                    "velocity": 0.4881889763779528,
                    "duration": 0.625
                },
                {
                    "name": "G#4",
                    "midi": 68,
                    "time": 35.625,
                    "velocity": 0.4881889763779528,
                    "duration": 0.625
                },
                {
                    "name": "D#4",
                    "midi": 63,
                    "time": 36.25,
                    "velocity": 0.4881889763779528,
                    "duration": 0.625
                },
                {
                    "name": "C#4",
                    "midi": 61,
                    "time": 36.875,
                    "velocity": 0.4881889763779528,
                    "duration": 0.625
                },
                {
                    "name": "B3",
                    "midi": 59,
                    "time": 37.5,
                    "velocity": 0.4881889763779528,
                    "duration": 0.0611979166666643
                },
                {
                    "name": "B3",
                    "midi": 59,
                    "time": 37.8125,
                    "velocity": 0.4881889763779528,
                    "duration": 0.15625
                },
                {
                    "name": "C#4",
                    "midi": 61,
                    "time": 37.96875,
                    "velocity": 0.4881889763779528,
                    "duration": 0.15625
                },
                {
                    "name": "B3",
                    "midi": 59,
                    "time": 38.125,
                    "velocity": 0.4881889763779528,
                    "duration": 0.125
                },
                {
                    "name": "F#3",
                    "midi": 54,
                    "time": 38.90625,
                    "velocity": 0.4881889763779528,
                    "duration": 0.15625
                },
                {
                    "name": "G#3",
                    "midi": 56,
                    "time": 39.0625,
                    "velocity": 0.4881889763779528,
                    "duration": 0.15625
                },
                {
                    "name": "A3",
                    "midi": 57,
                    "time": 39.21875,
                    "velocity": 0.4881889763779528,
                    "duration": 0.15625
                },
                {
                    "name": "B3",
                    "midi": 59,
                    "time": 39.375,
                    "velocity": 0.4881889763779528,
                    "duration": 0.15625
                },
                {
                    "name": "C#4",
                    "midi": 61,
                    "time": 39.53125,
                    "velocity": 0.4881889763779528,
                    "duration": 0.15625
                },
                {
                    "name": "D#4",
                    "midi": 63,
                    "time": 39.6875,
                    "velocity": 0.4881889763779528,
                    "duration": 0.15625
                },
                {
                    "name": "E4",
                    "midi": 64,
                    "time": 39.84375,
                    "velocity": 0.4881889763779528,
                    "duration": 0.15625
                },
                {
                    "name": "F#4",
                    "midi": 66,
                    "time": 40,
                    "velocity": 0.4881889763779528,
                    "duration": 0.625
                },
                {
                    "name": "E4",
                    "midi": 64,
                    "time": 40.625,
                    "velocity": 0.4881889763779528,
                    "duration": 0.625
                },
                {
                    "name": "D#4",
                    "midi": 63,
                    "time": 41.25,
                    "velocity": 0.4881889763779528,
                    "duration": 0.625
                },
                {
                    "name": "C#4",
                    "midi": 61,
                    "time": 41.875,
                    "velocity": 0.4881889763779528,
                    "duration": 0.625
                },
                {
                    "name": "B3",
                    "midi": 59,
                    "time": 42.5,
                    "velocity": 0.4881889763779528,
                    "duration": 0.0611979166666643
                },
                {
                    "name": "B3",
                    "midi": 59,
                    "time": 42.8125,
                    "velocity": 0.4881889763779528,
                    "duration": 0.15625
                },
                {
                    "name": "C#4",
                    "midi": 61,
                    "time": 42.96875,
                    "velocity": 0.4881889763779528,
                    "duration": 0.15625
                },
                {
                    "name": "B3",
                    "midi": 59,
                    "time": 43.125,
                    "velocity": 0.4881889763779528,
                    "duration": 0.125
                },
                {
                    "name": "F#3",
                    "midi": 54,
                    "time": 43.90625,
                    "velocity": 0.4881889763779528,
                    "duration": 0.15625
                },
                {
                    "name": "G#3",
                    "midi": 56,
                    "time": 44.0625,
                    "velocity": 0.4881889763779528,
                    "duration": 0.15625
                },
                {
                    "name": "A3",
                    "midi": 57,
                    "time": 44.21875,
                    "velocity": 0.4881889763779528,
                    "duration": 0.15625
                },
                {
                    "name": "B3",
                    "midi": 59,
                    "time": 44.375,
                    "velocity": 0.4881889763779528,
                    "duration": 0.15625
                },
                {
                    "name": "C#4",
                    "midi": 61,
                    "time": 44.53125,
                    "velocity": 0.4881889763779528,
                    "duration": 0.15625
                },
                {
                    "name": "D#4",
                    "midi": 63,
                    "time": 44.6875,
                    "velocity": 0.4881889763779528,
                    "duration": 0.15625
                },
                {
                    "name": "E4",
                    "midi": 64,
                    "time": 44.84375,
                    "velocity": 0.4881889763779528,
                    "duration": 0.15625
                },
                {
                    "name": "D#4",
                    "midi": 63,
                    "time": 45,
                    "velocity": 0.4881889763779528,
                    "duration": 1.5625
                },
                {
                    "name": "D#4",
                    "midi": 63,
                    "time": 46.5625,
                    "velocity": 0.4881889763779528,
                    "duration": 0.029947916666664298
                },
                {
                    "name": "D#4",
                    "midi": 63,
                    "time": 46.71875,
                    "velocity": 0.4881889763779528,
                    "duration": 0.029947916666664298
                },
                {
                    "name": "D#4",
                    "midi": 63,
                    "time": 46.875,
                    "velocity": 0.4881889763779528,
                    "duration": 0.029947916666664298
                },
                {
                    "name": "D#4",
                    "midi": 63,
                    "time": 47.03125,
                    "velocity": 0.5905511811023622,
                    "duration": 0.029947916666664298
                },
                {
                    "name": "D#4",
                    "midi": 63,
                    "time": 47.1875,
                    "velocity": 0.5905511811023622,
                    "duration": 0.029947916666664298
                },
                {
                    "name": "D#4",
                    "midi": 63,
                    "time": 47.34375,
                    "velocity": 0.5905511811023622,
                    "duration": 0.029947916666664298
                },
                {
                    "name": "D#4",
                    "midi": 63,
                    "time": 47.5,
                    "velocity": 0.5905511811023622,
                    "duration": 3.75
                },
                {
                    "name": "E3",
                    "midi": 52,
                    "time": 66.5625,
                    "velocity": 0.8976377952755905,
                    "duration": 0.3125
                },
                {
                    "name": "F#3",
                    "midi": 54,
                    "time": 66.875,
                    "velocity": 0.6929133858267716,
                    "duration": 0.3125
                },
                {
                    "name": "D#3",
                    "midi": 51,
                    "time": 67.1875,
                    "velocity": 0.6929133858267716,
                    "duration": 0.3125
                },
                {
                    "name": "E3",
                    "midi": 52,
                    "time": 67.5,
                    "velocity": 0.8976377952755905,
                    "duration": 0.3125
                },
                {
                    "name": "D#3",
                    "midi": 51,
                    "time": 67.8125,
                    "velocity": 0.8976377952755905,
                    "duration": 0.3125
                },
                {
                    "name": "C#3",
                    "midi": 49,
                    "time": 68.125,
                    "velocity": 0.8976377952755905,
                    "duration": 0.625
                },
                {
                    "name": "E3",
                    "midi": 52,
                    "time": 69.0625,
                    "velocity": 0.8976377952755905,
                    "duration": 0.3125
                },
                {
                    "name": "F#3",
                    "midi": 54,
                    "time": 69.375,
                    "velocity": 0.6929133858267716,
                    "duration": 0.3125
                },
                {
                    "name": "D#3",
                    "midi": 51,
                    "time": 69.6875,
                    "velocity": 0.6929133858267716,
                    "duration": 0.3125
                },
                {
                    "name": "E3",
                    "midi": 52,
                    "time": 70,
                    "velocity": 0.8976377952755905,
                    "duration": 0.3125
                },
                {
                    "name": "D#3",
                    "midi": 51,
                    "time": 70.3125,
                    "velocity": 0.8976377952755905,
                    "duration": 0.3125
                },
                {
                    "name": "C#3",
                    "midi": 49,
                    "time": 70.625,
                    "velocity": 0.8976377952755905,
                    "duration": 0.625
                },
                {
                    "name": "B2",
                    "midi": 47,
                    "time": 71.5625,
                    "velocity": 0.6929133858267716,
                    "duration": 0.3125
                },
                {
                    "name": "C#3",
                    "midi": 49,
                    "time": 71.875,
                    "velocity": 0.6929133858267716,
                    "duration": 0.3125
                },
                {
                    "name": "D#3",
                    "midi": 51,
                    "time": 72.1875,
                    "velocity": 0.6929133858267716,
                    "duration": 0.3125
                },
                {
                    "name": "G3",
                    "midi": 55,
                    "time": 72.5,
                    "velocity": 0.5905511811023622,
                    "duration": 0.3125
                },
                {
                    "name": "C#4",
                    "midi": 61,
                    "time": 72.5,
                    "velocity": 0.5905511811023622,
                    "duration": 0.3125
                },
                {
                    "name": "G3",
                    "midi": 55,
                    "time": 72.8125,
                    "velocity": 0.5905511811023622,
                    "duration": 0.3125
                },
                {
                    "name": "C#4",
                    "midi": 61,
                    "time": 72.8125,
                    "velocity": 0.5905511811023622,
                    "duration": 0.3125
                },
                {
                    "name": "G3",
                    "midi": 55,
                    "time": 73.4375,
                    "velocity": 0.5905511811023622,
                    "duration": 0.3125
                },
                {
                    "name": "C#4",
                    "midi": 61,
                    "time": 73.4375,
                    "velocity": 0.5905511811023622,
                    "duration": 0.3125
                },
                {
                    "name": "G3",
                    "midi": 55,
                    "time": 74.0625,
                    "velocity": 0.5905511811023622,
                    "duration": 0.3125
                },
                {
                    "name": "C#4",
                    "midi": 61,
                    "time": 74.0625,
                    "velocity": 0.5905511811023622,
                    "duration": 0.3125
                },
                {
                    "name": "G3",
                    "midi": 55,
                    "time": 74.6875,
                    "velocity": 0.5905511811023622,
                    "duration": 0.3125
                },
                {
                    "name": "C#4",
                    "midi": 61,
                    "time": 74.6875,
                    "velocity": 0.5905511811023622,
                    "duration": 0.3125
                },
                {
                    "name": "G3",
                    "midi": 55,
                    "time": 75.3125,
                    "velocity": 0.5905511811023622,
                    "duration": 0.3125
                },
                {
                    "name": "C#4",
                    "midi": 61,
                    "time": 75.3125,
                    "velocity": 0.5905511811023622,
                    "duration": 0.3125
                },
                {
                    "name": "G3",
                    "midi": 55,
                    "time": 75.9375,
                    "velocity": 0.5905511811023622,
                    "duration": 0.3125
                },
                {
                    "name": "C#4",
                    "midi": 61,
                    "time": 75.9375,
                    "velocity": 0.5905511811023622,
                    "duration": 0.3125
                },
                {
                    "name": "G3",
                    "midi": 55,
                    "time": 76.5625,
                    "velocity": 0.5905511811023622,
                    "duration": 0.3125
                },
                {
                    "name": "C#4",
                    "midi": 61,
                    "time": 76.5625,
                    "velocity": 0.5905511811023622,
                    "duration": 0.3125
                },
                {
                    "name": "G3",
                    "midi": 55,
                    "time": 77.1875,
                    "velocity": 0.5905511811023622,
                    "duration": 0.3125
                },
                {
                    "name": "C#4",
                    "midi": 61,
                    "time": 77.1875,
                    "velocity": 0.5905511811023622,
                    "duration": 0.3125
                },
                {
                    "name": "E3",
                    "midi": 52,
                    "time": 77.8125,
                    "velocity": 0.8976377952755905,
                    "duration": 0.3125
                },
                {
                    "name": "F#3",
                    "midi": 54,
                    "time": 78.125,
                    "velocity": 0.6929133858267716,
                    "duration": 0.3125
                },
                {
                    "name": "D#3",
                    "midi": 51,
                    "time": 78.4375,
                    "velocity": 0.6929133858267716,
                    "duration": 0.3125
                },
                {
                    "name": "E3",
                    "midi": 52,
                    "time": 78.75,
                    "velocity": 0.8976377952755905,
                    "duration": 0.3125
                },
                {
                    "name": "D#3",
                    "midi": 51,
                    "time": 79.0625,
                    "velocity": 0.8976377952755905,
                    "duration": 0.3125
                },
                {
                    "name": "C#3",
                    "midi": 49,
                    "time": 79.375,
                    "velocity": 0.8976377952755905,
                    "duration": 0.625
                },
                {
                    "name": "E3",
                    "midi": 52,
                    "time": 80.3125,
                    "velocity": 0.8976377952755905,
                    "duration": 0.3125
                },
                {
                    "name": "F#3",
                    "midi": 54,
                    "time": 80.625,
                    "velocity": 0.6929133858267716,
                    "duration": 0.3125
                },
                {
                    "name": "D#3",
                    "midi": 51,
                    "time": 80.9375,
                    "velocity": 0.6929133858267716,
                    "duration": 0.3125
                },
                {
                    "name": "E3",
                    "midi": 52,
                    "time": 81.25,
                    "velocity": 0.6929133858267716,
                    "duration": 0.061197916666671404
                },
                {
                    "name": "D#3",
                    "midi": 51,
                    "time": 81.5625,
                    "velocity": 0.6929133858267716,
                    "duration": 0.061197916666671404
                },
                {
                    "name": "C#3",
                    "midi": 49,
                    "time": 81.875,
                    "velocity": 0.8976377952755905,
                    "duration": 0.625
                },
                {
                    "name": "B2",
                    "midi": 47,
                    "time": 82.8125,
                    "velocity": 0.6929133858267716,
                    "duration": 0.3125
                },
                {
                    "name": "C#3",
                    "midi": 49,
                    "time": 83.125,
                    "velocity": 0.6929133858267716,
                    "duration": 0.3125
                },
                {
                    "name": "D#3",
                    "midi": 51,
                    "time": 83.4375,
                    "velocity": 0.6929133858267716,
                    "duration": 0.3125
                },
                {
                    "name": "G#3",
                    "midi": 56,
                    "time": 83.75,
                    "velocity": 0.6929133858267716,
                    "duration": 0.3125
                },
                {
                    "name": "D4",
                    "midi": 62,
                    "time": 83.75,
                    "velocity": 0.6929133858267716,
                    "duration": 0.3125
                },
                {
                    "name": "G#3",
                    "midi": 56,
                    "time": 84.0625,
                    "velocity": 0.6929133858267716,
                    "duration": 0.3125
                },
                {
                    "name": "D4",
                    "midi": 62,
                    "time": 84.0625,
                    "velocity": 0.6929133858267716,
                    "duration": 0.3125
                },
                {
                    "name": "G#3",
                    "midi": 56,
                    "time": 84.6875,
                    "velocity": 0.6929133858267716,
                    "duration": 0.3125
                },
                {
                    "name": "D4",
                    "midi": 62,
                    "time": 84.6875,
                    "velocity": 0.6929133858267716,
                    "duration": 0.3125
                },
                {
                    "name": "G#3",
                    "midi": 56,
                    "time": 85.3125,
                    "velocity": 0.6929133858267716,
                    "duration": 0.3125
                },
                {
                    "name": "D4",
                    "midi": 62,
                    "time": 85.3125,
                    "velocity": 0.6929133858267716,
                    "duration": 0.3125
                },
                {
                    "name": "G#3",
                    "midi": 56,
                    "time": 85.9375,
                    "velocity": 0.6929133858267716,
                    "duration": 0.3125
                },
                {
                    "name": "D4",
                    "midi": 62,
                    "time": 85.9375,
                    "velocity": 0.6929133858267716,
                    "duration": 0.3125
                },
                {
                    "name": "G#3",
                    "midi": 56,
                    "time": 86.5625,
                    "velocity": 0.6929133858267716,
                    "duration": 0.3125
                },
                {
                    "name": "D4",
                    "midi": 62,
                    "time": 86.5625,
                    "velocity": 0.6929133858267716,
                    "duration": 0.3125
                },
                {
                    "name": "G#3",
                    "midi": 56,
                    "time": 87.1875,
                    "velocity": 0.6929133858267716,
                    "duration": 0.3125
                },
                {
                    "name": "D4",
                    "midi": 62,
                    "time": 87.1875,
                    "velocity": 0.6929133858267716,
                    "duration": 0.3125
                },
                {
                    "name": "G#3",
                    "midi": 56,
                    "time": 87.8125,
                    "velocity": 0.6929133858267716,
                    "duration": 0.3125
                },
                {
                    "name": "D4",
                    "midi": 62,
                    "time": 87.8125,
                    "velocity": 0.6929133858267716,
                    "duration": 0.3125
                },
                {
                    "name": "G#3",
                    "midi": 56,
                    "time": 88.4375,
                    "velocity": 0.6929133858267716,
                    "duration": 0.3125
                },
                {
                    "name": "D4",
                    "midi": 62,
                    "time": 88.4375,
                    "velocity": 0.6929133858267716,
                    "duration": 0.3125
                },
                {
                    "name": "A2",
                    "midi": 45,
                    "time": 88.75,
                    "velocity": 0.4881889763779528,
                    "duration": 0.15625
                },
                {
                    "name": "E3",
                    "midi": 52,
                    "time": 88.90625,
                    "velocity": 0.4881889763779528,
                    "duration": 0.15625
                },
                {
                    "name": "C#4",
                    "midi": 61,
                    "time": 89.0625,
                    "velocity": 0.4881889763779528,
                    "duration": 0.061197916666671404
                },
                {
                    "name": "E3",
                    "midi": 52,
                    "time": 89.375,
                    "velocity": 0.4881889763779528,
                    "duration": 0.061197916666671404
                },
                {
                    "name": "A2",
                    "midi": 45,
                    "time": 89.6875,
                    "velocity": 0.4881889763779528,
                    "duration": 0.061197916666671404
                },
                {
                    "name": "G#2",
                    "midi": 44,
                    "time": 90,
                    "velocity": 0.4881889763779528,
                    "duration": 0.15625
                },
                {
                    "name": "D#3",
                    "midi": 51,
                    "time": 90.15625,
                    "velocity": 0.4881889763779528,
                    "duration": 0.15625
                },
                {
                    "name": "B3",
                    "midi": 59,
                    "time": 90.3125,
                    "velocity": 0.4881889763779528,
                    "duration": 0.061197916666671404
                },
                {
                    "name": "D#3",
                    "midi": 51,
                    "time": 90.625,
                    "velocity": 0.4881889763779528,
                    "duration": 0.061197916666671404
                },
                {
                    "name": "G#2",
                    "midi": 44,
                    "time": 90.9375,
                    "velocity": 0.4881889763779528,
                    "duration": 0.061197916666671404
                },
                {
                    "name": "F#2",
                    "midi": 42,
                    "time": 91.25,
                    "velocity": 0.4881889763779528,
                    "duration": 0.15625
                },
                {
                    "name": "C#3",
                    "midi": 49,
                    "time": 91.40625,
                    "velocity": 0.4881889763779528,
                    "duration": 0.15625
                },
                {
                    "name": "A3",
                    "midi": 57,
                    "time": 91.5625,
                    "velocity": 0.4881889763779528,
                    "duration": 0.061197916666671404
                },
                {
                    "name": "C#3",
                    "midi": 49,
                    "time": 91.875,
                    "velocity": 0.4881889763779528,
                    "duration": 0.061197916666671404
                },
                {
                    "name": "F#2",
                    "midi": 42,
                    "time": 92.1875,
                    "velocity": 0.4881889763779528,
                    "duration": 0.061197916666671404
                },
                {
                    "name": "G2",
                    "midi": 43,
                    "time": 92.5,
                    "velocity": 0.4881889763779528,
                    "duration": 0.15625
                },
                {
                    "name": "D#3",
                    "midi": 51,
                    "time": 92.65625,
                    "velocity": 0.4881889763779528,
                    "duration": 0.15625
                },
                {
                    "name": "A#3",
                    "midi": 58,
                    "time": 92.8125,
                    "velocity": 0.4881889763779528,
                    "duration": 0.061197916666671404
                },
                {
                    "name": "D#3",
                    "midi": 51,
                    "time": 93.125,
                    "velocity": 0.4881889763779528,
                    "duration": 0.061197916666671404
                },
                {
                    "name": "G2",
                    "midi": 43,
                    "time": 93.4375,
                    "velocity": 0.4881889763779528,
                    "duration": 0.061197916666671404
                },
                {
                    "name": "A2",
                    "midi": 45,
                    "time": 96.25,
                    "velocity": 0.4881889763779528,
                    "duration": 0.15625
                },
                {
                    "name": "E3",
                    "midi": 52,
                    "time": 96.40625,
                    "velocity": 0.4881889763779528,
                    "duration": 0.15625
                },
                {
                    "name": "C#4",
                    "midi": 61,
                    "time": 96.5625,
                    "velocity": 0.4881889763779528,
                    "duration": 0.061197916666671404
                },
                {
                    "name": "E3",
                    "midi": 52,
                    "time": 96.875,
                    "velocity": 0.4881889763779528,
                    "duration": 0.061197916666671404
                },
                {
                    "name": "A2",
                    "midi": 45,
                    "time": 97.1875,
                    "velocity": 0.4881889763779528,
                    "duration": 0.061197916666671404
                },
                {
                    "name": "G#2",
                    "midi": 44,
                    "time": 97.5,
                    "velocity": 0.4881889763779528,
                    "duration": 0.15625
                },
                {
                    "name": "D#3",
                    "midi": 51,
                    "time": 97.65625,
                    "velocity": 0.4881889763779528,
                    "duration": 0.15625
                },
                {
                    "name": "B3",
                    "midi": 59,
                    "time": 97.8125,
                    "velocity": 0.4881889763779528,
                    "duration": 0.061197916666671404
                },
                {
                    "name": "D#3",
                    "midi": 51,
                    "time": 98.125,
                    "velocity": 0.4881889763779528,
                    "duration": 0.061197916666671404
                },
                {
                    "name": "G#2",
                    "midi": 44,
                    "time": 98.4375,
                    "velocity": 0.4881889763779528,
                    "duration": 0.061197916666671404
                },
                {
                    "name": "F#2",
                    "midi": 42,
                    "time": 98.75,
                    "velocity": 0.4881889763779528,
                    "duration": 0.15625
                },
                {
                    "name": "C#3",
                    "midi": 49,
                    "time": 98.90625,
                    "velocity": 0.4881889763779528,
                    "duration": 0.15625
                },
                {
                    "name": "A3",
                    "midi": 57,
                    "time": 99.0625,
                    "velocity": 0.4881889763779528,
                    "duration": 0.061197916666671404
                },
                {
                    "name": "C#3",
                    "midi": 49,
                    "time": 99.375,
                    "velocity": 0.4881889763779528,
                    "duration": 0.061197916666671404
                },
                {
                    "name": "F#2",
                    "midi": 42,
                    "time": 99.6875,
                    "velocity": 0.4881889763779528,
                    "duration": 0.061197916666671404
                },
                {
                    "name": "E2",
                    "midi": 40,
                    "time": 100,
                    "velocity": 0.4881889763779528,
                    "duration": 0.15625
                },
                {
                    "name": "C#3",
                    "midi": 49,
                    "time": 100.15625,
                    "velocity": 0.4881889763779528,
                    "duration": 0.15625
                },
                {
                    "name": "G#3",
                    "midi": 56,
                    "time": 100.3125,
                    "velocity": 0.4881889763779528,
                    "duration": 0.061197916666671404
                },
                {
                    "name": "C#3",
                    "midi": 49,
                    "time": 100.625,
                    "velocity": 0.4881889763779528,
                    "duration": 0.061197916666671404
                },
                {
                    "name": "E2",
                    "midi": 40,
                    "time": 100.9375,
                    "velocity": 0.4881889763779528,
                    "duration": 0.061197916666671404
                },
                {
                    "name": "B3",
                    "midi": 59,
                    "time": 106.25,
                    "velocity": 0.8976377952755905,
                    "duration": 0.3125
                },
                {
                    "name": "B3",
                    "midi": 59,
                    "time": 106.5625,
                    "velocity": 0.6929133858267716,
                    "duration": 0.029947916666671404
                },
                {
                    "name": "B3",
                    "midi": 59,
                    "time": 106.71875,
                    "velocity": 0.6929133858267716,
                    "duration": 0.029947916666671404
                },
                {
                    "name": "B3",
                    "midi": 59,
                    "time": 106.875,
                    "velocity": 0.6929133858267716,
                    "duration": 0.029947916666671404
                },
                {
                    "name": "B3",
                    "midi": 59,
                    "time": 107.03125,
                    "velocity": 0.6929133858267716,
                    "duration": 0.029947916666671404
                },
                {
                    "name": "B3",
                    "midi": 59,
                    "time": 108.75,
                    "velocity": 0.8976377952755905,
                    "duration": 0.3125
                },
                {
                    "name": "B3",
                    "midi": 59,
                    "time": 109.0625,
                    "velocity": 0.6929133858267716,
                    "duration": 0.029947916666671404
                },
                {
                    "name": "B3",
                    "midi": 59,
                    "time": 109.21875,
                    "velocity": 0.6929133858267716,
                    "duration": 0.029947916666671404
                },
                {
                    "name": "B3",
                    "midi": 59,
                    "time": 109.375,
                    "velocity": 0.6929133858267716,
                    "duration": 0.029947916666671404
                },
                {
                    "name": "B3",
                    "midi": 59,
                    "time": 109.53125,
                    "velocity": 0.6929133858267716,
                    "duration": 0.029947916666671404
                },
                {
                    "name": "B3",
                    "midi": 59,
                    "time": 111.25,
                    "velocity": 0.8976377952755905,
                    "duration": 0.3125
                },
                {
                    "name": "B3",
                    "midi": 59,
                    "time": 111.5625,
                    "velocity": 0.6929133858267716,
                    "duration": 0.029947916666671404
                },
                {
                    "name": "B3",
                    "midi": 59,
                    "time": 111.71875,
                    "velocity": 0.6929133858267716,
                    "duration": 0.029947916666671404
                },
                {
                    "name": "B3",
                    "midi": 59,
                    "time": 111.875,
                    "velocity": 0.6929133858267716,
                    "duration": 0.029947916666671404
                },
                {
                    "name": "B3",
                    "midi": 59,
                    "time": 112.03125,
                    "velocity": 0.6929133858267716,
                    "duration": 0.029947916666671404
                },
                {
                    "name": "G3",
                    "midi": 55,
                    "time": 112.5,
                    "velocity": 0.5905511811023622,
                    "duration": 0.3125
                },
                {
                    "name": "A#3",
                    "midi": 58,
                    "time": 112.5,
                    "velocity": 0.5905511811023622,
                    "duration": 0.3125
                },
                {
                    "name": "C#4",
                    "midi": 61,
                    "time": 112.5,
                    "velocity": 0.5905511811023622,
                    "duration": 0.3125
                },
                {
                    "name": "G3",
                    "midi": 55,
                    "time": 112.8125,
                    "velocity": 0.5905511811023622,
                    "duration": 0.3125
                },
                {
                    "name": "A#3",
                    "midi": 58,
                    "time": 112.8125,
                    "velocity": 0.5905511811023622,
                    "duration": 0.3125
                },
                {
                    "name": "C#4",
                    "midi": 61,
                    "time": 112.8125,
                    "velocity": 0.5905511811023622,
                    "duration": 0.3125
                },
                {
                    "name": "G3",
                    "midi": 55,
                    "time": 113.4375,
                    "velocity": 0.5905511811023622,
                    "duration": 0.3125
                },
                {
                    "name": "A#3",
                    "midi": 58,
                    "time": 113.4375,
                    "velocity": 0.5905511811023622,
                    "duration": 0.3125
                },
                {
                    "name": "C#4",
                    "midi": 61,
                    "time": 113.4375,
                    "velocity": 0.5905511811023622,
                    "duration": 0.3125
                },
                {
                    "name": "G3",
                    "midi": 55,
                    "time": 114.0625,
                    "velocity": 0.5905511811023622,
                    "duration": 0.3125
                },
                {
                    "name": "A#3",
                    "midi": 58,
                    "time": 114.0625,
                    "velocity": 0.5905511811023622,
                    "duration": 0.3125
                },
                {
                    "name": "C#4",
                    "midi": 61,
                    "time": 114.0625,
                    "velocity": 0.5905511811023622,
                    "duration": 0.3125
                },
                {
                    "name": "G3",
                    "midi": 55,
                    "time": 114.6875,
                    "velocity": 0.5905511811023622,
                    "duration": 0.3125
                },
                {
                    "name": "A#3",
                    "midi": 58,
                    "time": 114.6875,
                    "velocity": 0.5905511811023622,
                    "duration": 0.3125
                },
                {
                    "name": "C#4",
                    "midi": 61,
                    "time": 114.6875,
                    "velocity": 0.5905511811023622,
                    "duration": 0.3125
                },
                {
                    "name": "G3",
                    "midi": 55,
                    "time": 115.3125,
                    "velocity": 0.5905511811023622,
                    "duration": 0.3125
                },
                {
                    "name": "A#3",
                    "midi": 58,
                    "time": 115.3125,
                    "velocity": 0.5905511811023622,
                    "duration": 0.3125
                },
                {
                    "name": "C#4",
                    "midi": 61,
                    "time": 115.3125,
                    "velocity": 0.5905511811023622,
                    "duration": 0.3125
                },
                {
                    "name": "G3",
                    "midi": 55,
                    "time": 115.9375,
                    "velocity": 0.5905511811023622,
                    "duration": 0.3125
                },
                {
                    "name": "A#3",
                    "midi": 58,
                    "time": 115.9375,
                    "velocity": 0.5905511811023622,
                    "duration": 0.3125
                },
                {
                    "name": "C#4",
                    "midi": 61,
                    "time": 115.9375,
                    "velocity": 0.5905511811023622,
                    "duration": 0.3125
                },
                {
                    "name": "G3",
                    "midi": 55,
                    "time": 116.5625,
                    "velocity": 0.5905511811023622,
                    "duration": 0.3125
                },
                {
                    "name": "A#3",
                    "midi": 58,
                    "time": 116.5625,
                    "velocity": 0.5905511811023622,
                    "duration": 0.3125
                },
                {
                    "name": "C#4",
                    "midi": 61,
                    "time": 116.5625,
                    "velocity": 0.5905511811023622,
                    "duration": 0.3125
                },
                {
                    "name": "G3",
                    "midi": 55,
                    "time": 117.1875,
                    "velocity": 0.5905511811023622,
                    "duration": 0.3125
                },
                {
                    "name": "A#3",
                    "midi": 58,
                    "time": 117.1875,
                    "velocity": 0.5905511811023622,
                    "duration": 0.3125
                },
                {
                    "name": "C#4",
                    "midi": 61,
                    "time": 117.1875,
                    "velocity": 0.5905511811023622,
                    "duration": 0.3125
                },
                {
                    "name": "B3",
                    "midi": 59,
                    "time": 117.5,
                    "velocity": 0.8976377952755905,
                    "duration": 0.3125
                },
                {
                    "name": "B3",
                    "midi": 59,
                    "time": 117.8125,
                    "velocity": 0.6929133858267716,
                    "duration": 0.029947916666671404
                },
                {
                    "name": "B3",
                    "midi": 59,
                    "time": 117.96875,
                    "velocity": 0.6929133858267716,
                    "duration": 0.029947916666671404
                },
                {
                    "name": "B3",
                    "midi": 59,
                    "time": 118.125,
                    "velocity": 0.6929133858267716,
                    "duration": 0.029947916666671404
                },
                {
                    "name": "B3",
                    "midi": 59,
                    "time": 118.28125,
                    "velocity": 0.6929133858267716,
                    "duration": 0.029947916666671404
                },
                {
                    "name": "B3",
                    "midi": 59,
                    "time": 120,
                    "velocity": 0.8976377952755905,
                    "duration": 0.3125
                },
                {
                    "name": "B3",
                    "midi": 59,
                    "time": 120.3125,
                    "velocity": 0.6929133858267716,
                    "duration": 0.029947916666671404
                },
                {
                    "name": "B3",
                    "midi": 59,
                    "time": 120.46875,
                    "velocity": 0.6929133858267716,
                    "duration": 0.029947916666671404
                },
                {
                    "name": "B3",
                    "midi": 59,
                    "time": 120.625,
                    "velocity": 0.6929133858267716,
                    "duration": 0.029947916666671404
                },
                {
                    "name": "B3",
                    "midi": 59,
                    "time": 120.78125,
                    "velocity": 0.6929133858267716,
                    "duration": 0.029947916666671404
                },
                {
                    "name": "B3",
                    "midi": 59,
                    "time": 122.5,
                    "velocity": 0.8976377952755905,
                    "duration": 0.15625
                },
                {
                    "name": "B3",
                    "midi": 59,
                    "time": 122.65625,
                    "velocity": 0.6929133858267716,
                    "duration": 0.029947916666671404
                },
                {
                    "name": "B3",
                    "midi": 59,
                    "time": 122.8125,
                    "velocity": 0.6929133858267716,
                    "duration": 0.029947916666671404
                },
                {
                    "name": "B3",
                    "midi": 59,
                    "time": 122.96875,
                    "velocity": 0.6929133858267716,
                    "duration": 0.029947916666671404
                },
                {
                    "name": "B3",
                    "midi": 59,
                    "time": 123.125,
                    "velocity": 0.6929133858267716,
                    "duration": 0.061197916666671404
                },
                {
                    "name": "G#3",
                    "midi": 56,
                    "time": 123.75,
                    "velocity": 0.5905511811023622,
                    "duration": 0.3125
                },
                {
                    "name": "B3",
                    "midi": 59,
                    "time": 123.75,
                    "velocity": 0.5905511811023622,
                    "duration": 0.3125
                },
                {
                    "name": "D4",
                    "midi": 62,
                    "time": 123.75,
                    "velocity": 0.5905511811023622,
                    "duration": 0.3125
                },
                {
                    "name": "G4",
                    "midi": 67,
                    "time": 123.75,
                    "velocity": 0.5905511811023622,
                    "duration": 0.3125
                },
                {
                    "name": "G#3",
                    "midi": 56,
                    "time": 124.0625,
                    "velocity": 0.5905511811023622,
                    "duration": 0.3125
                },
                {
                    "name": "B3",
                    "midi": 59,
                    "time": 124.0625,
                    "velocity": 0.5905511811023622,
                    "duration": 0.3125
                },
                {
                    "name": "D4",
                    "midi": 62,
                    "time": 124.0625,
                    "velocity": 0.5905511811023622,
                    "duration": 0.3125
                },
                {
                    "name": "G#3",
                    "midi": 56,
                    "time": 124.6875,
                    "velocity": 0.5905511811023622,
                    "duration": 0.3125
                },
                {
                    "name": "B3",
                    "midi": 59,
                    "time": 124.6875,
                    "velocity": 0.5905511811023622,
                    "duration": 0.3125
                },
                {
                    "name": "D4",
                    "midi": 62,
                    "time": 124.6875,
                    "velocity": 0.5905511811023622,
                    "duration": 0.3125
                },
                {
                    "name": "G#3",
                    "midi": 56,
                    "time": 125.3125,
                    "velocity": 0.5905511811023622,
                    "duration": 0.3125
                },
                {
                    "name": "B3",
                    "midi": 59,
                    "time": 125.3125,
                    "velocity": 0.5905511811023622,
                    "duration": 0.3125
                },
                {
                    "name": "D4",
                    "midi": 62,
                    "time": 125.3125,
                    "velocity": 0.5905511811023622,
                    "duration": 0.3125
                },
                {
                    "name": "G#3",
                    "midi": 56,
                    "time": 125.9375,
                    "velocity": 0.5905511811023622,
                    "duration": 0.3125
                },
                {
                    "name": "B3",
                    "midi": 59,
                    "time": 125.9375,
                    "velocity": 0.5905511811023622,
                    "duration": 0.3125
                },
                {
                    "name": "D4",
                    "midi": 62,
                    "time": 125.9375,
                    "velocity": 0.5905511811023622,
                    "duration": 0.3125
                },
                {
                    "name": "G#3",
                    "midi": 56,
                    "time": 126.5625,
                    "velocity": 0.5905511811023622,
                    "duration": 0.3125
                },
                {
                    "name": "B3",
                    "midi": 59,
                    "time": 126.5625,
                    "velocity": 0.5905511811023622,
                    "duration": 0.3125
                },
                {
                    "name": "D4",
                    "midi": 62,
                    "time": 126.5625,
                    "velocity": 0.5905511811023622,
                    "duration": 0.3125
                },
                {
                    "name": "G#3",
                    "midi": 56,
                    "time": 127.1875,
                    "velocity": 0.5905511811023622,
                    "duration": 0.3125
                },
                {
                    "name": "B3",
                    "midi": 59,
                    "time": 127.1875,
                    "velocity": 0.5905511811023622,
                    "duration": 0.3125
                },
                {
                    "name": "D4",
                    "midi": 62,
                    "time": 127.1875,
                    "velocity": 0.5905511811023622,
                    "duration": 0.3125
                },
                {
                    "name": "G#3",
                    "midi": 56,
                    "time": 127.8125,
                    "velocity": 0.5905511811023622,
                    "duration": 0.3125
                },
                {
                    "name": "B3",
                    "midi": 59,
                    "time": 127.8125,
                    "velocity": 0.5905511811023622,
                    "duration": 0.3125
                },
                {
                    "name": "D4",
                    "midi": 62,
                    "time": 127.8125,
                    "velocity": 0.5905511811023622,
                    "duration": 0.3125
                },
                {
                    "name": "G#3",
                    "midi": 56,
                    "time": 128.4375,
                    "velocity": 0.5905511811023622,
                    "duration": 0.3125
                },
                {
                    "name": "B3",
                    "midi": 59,
                    "time": 128.4375,
                    "velocity": 0.5905511811023622,
                    "duration": 0.3125
                },
                {
                    "name": "D4",
                    "midi": 62,
                    "time": 128.4375,
                    "velocity": 0.5905511811023622,
                    "duration": 0.3125
                },
                {
                    "name": "A2",
                    "midi": 45,
                    "time": 128.75,
                    "velocity": 0.5905511811023622,
                    "duration": 0.15625
                },
                {
                    "name": "E3",
                    "midi": 52,
                    "time": 128.90625,
                    "velocity": 0.5905511811023622,
                    "duration": 0.15625
                },
                {
                    "name": "C#4",
                    "midi": 61,
                    "time": 129.0625,
                    "velocity": 0.5905511811023622,
                    "duration": 0.06119791666665719
                },
                {
                    "name": "E4",
                    "midi": 64,
                    "time": 129.0625,
                    "velocity": 0.5905511811023622,
                    "duration": 0.06119791666665719
                },
                {
                    "name": "G#2",
                    "midi": 44,
                    "time": 129.375,
                    "velocity": 0.5905511811023622,
                    "duration": 0.15625
                },
                {
                    "name": "D#3",
                    "midi": 51,
                    "time": 129.53125,
                    "velocity": 0.5905511811023622,
                    "duration": 0.15625
                },
                {
                    "name": "B3",
                    "midi": 59,
                    "time": 129.6875,
                    "velocity": 0.5905511811023622,
                    "duration": 0.06119791666665719
                },
                {
                    "name": "D#4",
                    "midi": 63,
                    "time": 129.6875,
                    "velocity": 0.5905511811023622,
                    "duration": 0.06119791666665719
                },
                {
                    "name": "F#2",
                    "midi": 42,
                    "time": 130,
                    "velocity": 0.5905511811023622,
                    "duration": 0.15625
                },
                {
                    "name": "C#3",
                    "midi": 49,
                    "time": 130.15625,
                    "velocity": 0.5905511811023622,
                    "duration": 0.15625
                },
                {
                    "name": "A3",
                    "midi": 57,
                    "time": 130.3125,
                    "velocity": 0.5905511811023622,
                    "duration": 0.06119791666665719
                },
                {
                    "name": "C#4",
                    "midi": 61,
                    "time": 130.3125,
                    "velocity": 0.5905511811023622,
                    "duration": 0.06119791666665719
                },
                {
                    "name": "G2",
                    "midi": 43,
                    "time": 130.625,
                    "velocity": 0.5905511811023622,
                    "duration": 0.15625
                },
                {
                    "name": "D#3",
                    "midi": 51,
                    "time": 130.78125,
                    "velocity": 0.5905511811023622,
                    "duration": 0.15625
                },
                {
                    "name": "G3",
                    "midi": 55,
                    "time": 130.9375,
                    "velocity": 0.5905511811023622,
                    "duration": 0.06119791666665719
                },
                {
                    "name": "C#4",
                    "midi": 61,
                    "time": 130.9375,
                    "velocity": 0.5905511811023622,
                    "duration": 0.06119791666665719
                },
                {
                    "name": "A2",
                    "midi": 45,
                    "time": 133.75,
                    "velocity": 0.5905511811023622,
                    "duration": 0.15625
                },
                {
                    "name": "E3",
                    "midi": 52,
                    "time": 133.90625,
                    "velocity": 0.5905511811023622,
                    "duration": 0.15625
                },
                {
                    "name": "A3",
                    "midi": 57,
                    "time": 134.0625,
                    "velocity": 0.5905511811023622,
                    "duration": 0.06119791666665719
                },
                {
                    "name": "C#4",
                    "midi": 61,
                    "time": 134.0625,
                    "velocity": 0.5905511811023622,
                    "duration": 0.06119791666665719
                },
                {
                    "name": "G#2",
                    "midi": 44,
                    "time": 134.375,
                    "velocity": 0.5905511811023622,
                    "duration": 0.15625
                },
                {
                    "name": "D#3",
                    "midi": 51,
                    "time": 134.53125,
                    "velocity": 0.5905511811023622,
                    "duration": 0.15625
                },
                {
                    "name": "G#3",
                    "midi": 56,
                    "time": 134.6875,
                    "velocity": 0.5905511811023622,
                    "duration": 0.06119791666665719
                },
                {
                    "name": "B3",
                    "midi": 59,
                    "time": 134.6875,
                    "velocity": 0.5905511811023622,
                    "duration": 0.06119791666665719
                },
                {
                    "name": "F#2",
                    "midi": 42,
                    "time": 135,
                    "velocity": 0.5905511811023622,
                    "duration": 0.15625
                },
                {
                    "name": "C#3",
                    "midi": 49,
                    "time": 135.15625,
                    "velocity": 0.5905511811023622,
                    "duration": 0.15625
                },
                {
                    "name": "F#3",
                    "midi": 54,
                    "time": 135.3125,
                    "velocity": 0.5905511811023622,
                    "duration": 0.06119791666665719
                },
                {
                    "name": "A3",
                    "midi": 57,
                    "time": 135.3125,
                    "velocity": 0.5905511811023622,
                    "duration": 0.06119791666665719
                },
                {
                    "name": "F2",
                    "midi": 41,
                    "time": 135.625,
                    "velocity": 0.5905511811023622,
                    "duration": 0.15625
                },
                {
                    "name": "B2",
                    "midi": 47,
                    "time": 135.78125,
                    "velocity": 0.5905511811023622,
                    "duration": 0.15625
                },
                {
                    "name": "F3",
                    "midi": 53,
                    "time": 135.9375,
                    "velocity": 0.5905511811023622,
                    "duration": 0.06119791666665719
                },
                {
                    "name": "G#3",
                    "midi": 56,
                    "time": 135.9375,
                    "velocity": 0.5905511811023622,
                    "duration": 0.06119791666665719
                },
                {
                    "name": "C2",
                    "midi": 36,
                    "time": 156.25,
                    "velocity": 0.5905511811023622,
                    "duration": 0.3125
                },
                {
                    "name": "G2",
                    "midi": 43,
                    "time": 156.25,
                    "velocity": 0.5905511811023622,
                    "duration": 0.3125
                },
                {
                    "name": "C2",
                    "midi": 36,
                    "time": 156.875,
                    "velocity": 0.5905511811023622,
                    "duration": 0.3125
                },
                {
                    "name": "G2",
                    "midi": 43,
                    "time": 156.875,
                    "velocity": 0.5905511811023622,
                    "duration": 0.3125
                },
                {
                    "name": "C2",
                    "midi": 36,
                    "time": 157.5,
                    "velocity": 0.5905511811023622,
                    "duration": 0.3125
                },
                {
                    "name": "G2",
                    "midi": 43,
                    "time": 157.5,
                    "velocity": 0.5905511811023622,
                    "duration": 0.3125
                },
                {
                    "name": "G#2",
                    "midi": 44,
                    "time": 157.8125,
                    "velocity": 0.5905511811023622,
                    "duration": 0.3125
                },
                {
                    "name": "A2",
                    "midi": 45,
                    "time": 158.125,
                    "velocity": 0.5905511811023622,
                    "duration": 0.3125
                },
                {
                    "name": "B2",
                    "midi": 47,
                    "time": 158.4375,
                    "velocity": 0.5905511811023622,
                    "duration": 0.3125
                },
                {
                    "name": "E2",
                    "midi": 40,
                    "time": 158.75,
                    "velocity": 0.7952755905511811,
                    "duration": 0.625
                },
                {
                    "name": "B2",
                    "midi": 47,
                    "time": 158.75,
                    "velocity": 0.7952755905511811,
                    "duration": 0.625
                },
                {
                    "name": "C#2",
                    "midi": 37,
                    "time": 159.375,
                    "velocity": 0.7952755905511811,
                    "duration": 0.625
                },
                {
                    "name": "C#3",
                    "midi": 49,
                    "time": 159.375,
                    "velocity": 0.7952755905511811,
                    "duration": 0.625
                },
                {
                    "name": "F#1",
                    "midi": 30,
                    "time": 160,
                    "velocity": 0.7952755905511811,
                    "duration": 0.625
                },
                {
                    "name": "F#2",
                    "midi": 42,
                    "time": 160,
                    "velocity": 0.7952755905511811,
                    "duration": 0.625
                },
                {
                    "name": "B1",
                    "midi": 35,
                    "time": 160.625,
                    "velocity": 0.7952755905511811,
                    "duration": 0.625
                },
                {
                    "name": "B2",
                    "midi": 47,
                    "time": 160.625,
                    "velocity": 0.7952755905511811,
                    "duration": 0.625
                },
                {
                    "name": "B1",
                    "midi": 35,
                    "time": 161.25,
                    "velocity": 0.7952755905511811,
                    "duration": 0.625
                },
                {
                    "name": "B2",
                    "midi": 47,
                    "time": 161.25,
                    "velocity": 0.7952755905511811,
                    "duration": 0.625
                },
                {
                    "name": "E2",
                    "midi": 40,
                    "time": 161.875,
                    "velocity": 0.5905511811023622,
                    "duration": 0.3125
                },
                {
                    "name": "B2",
                    "midi": 47,
                    "time": 161.875,
                    "velocity": 0.5905511811023622,
                    "duration": 0.3125
                },
                {
                    "name": "E2",
                    "midi": 40,
                    "time": 162.1875,
                    "velocity": 0.5905511811023622,
                    "duration": 0.3125
                },
                {
                    "name": "B2",
                    "midi": 47,
                    "time": 162.1875,
                    "velocity": 0.5905511811023622,
                    "duration": 0.3125
                },
                {
                    "name": "E2",
                    "midi": 40,
                    "time": 162.8125,
                    "velocity": 0.5905511811023622,
                    "duration": 0.3125
                },
                {
                    "name": "B2",
                    "midi": 47,
                    "time": 162.8125,
                    "velocity": 0.5905511811023622,
                    "duration": 0.3125
                },
                {
                    "name": "E2",
                    "midi": 40,
                    "time": 163.125,
                    "velocity": 0.5905511811023622,
                    "duration": 0.3125
                },
                {
                    "name": "B2",
                    "midi": 47,
                    "time": 163.125,
                    "velocity": 0.5905511811023622,
                    "duration": 0.3125
                },
                {
                    "name": "C3",
                    "midi": 48,
                    "time": 163.4375,
                    "velocity": 0.5905511811023622,
                    "duration": 0.3125
                },
                {
                    "name": "C#3",
                    "midi": 49,
                    "time": 163.75,
                    "velocity": 0.5905511811023622,
                    "duration": 0.3125
                },
                {
                    "name": "D3",
                    "midi": 50,
                    "time": 164.0625,
                    "velocity": 0.5905511811023622,
                    "duration": 0.3125
                },
                {
                    "name": "G#2",
                    "midi": 44,
                    "time": 164.375,
                    "velocity": 0.7952755905511811,
                    "duration": 0.625
                },
                {
                    "name": "D#3",
                    "midi": 51,
                    "time": 164.375,
                    "velocity": 0.7952755905511811,
                    "duration": 0.625
                },
                {
                    "name": "F2",
                    "midi": 41,
                    "time": 165,
                    "velocity": 0.7952755905511811,
                    "duration": 0.625
                },
                {
                    "name": "F3",
                    "midi": 53,
                    "time": 165,
                    "velocity": 0.7952755905511811,
                    "duration": 0.625
                },
                {
                    "name": "A#1",
                    "midi": 34,
                    "time": 165.625,
                    "velocity": 0.7952755905511811,
                    "duration": 0.625
                },
                {
                    "name": "A#2",
                    "midi": 46,
                    "time": 165.625,
                    "velocity": 0.7952755905511811,
                    "duration": 0.625
                },
                {
                    "name": "D#2",
                    "midi": 39,
                    "time": 166.25,
                    "velocity": 0.7952755905511811,
                    "duration": 0.625
                },
                {
                    "name": "D#3",
                    "midi": 51,
                    "time": 166.25,
                    "velocity": 0.7952755905511811,
                    "duration": 0.625
                },
                {
                    "name": "D#2",
                    "midi": 39,
                    "time": 166.875,
                    "velocity": 0.7952755905511811,
                    "duration": 0.625
                },
                {
                    "name": "D#3",
                    "midi": 51,
                    "time": 166.875,
                    "velocity": 0.7952755905511811,
                    "duration": 0.625
                },
                {
                    "name": "G#1",
                    "midi": 32,
                    "time": 167.5,
                    "velocity": 0.5905511811023622,
                    "duration": 0.3125
                },
                {
                    "name": "G#2",
                    "midi": 44,
                    "time": 167.5,
                    "velocity": 0.5905511811023622,
                    "duration": 0.3125
                },
                {
                    "name": "G#1",
                    "midi": 32,
                    "time": 167.8125,
                    "velocity": 0.5905511811023622,
                    "duration": 0.3125
                },
                {
                    "name": "G#2",
                    "midi": 44,
                    "time": 167.8125,
                    "velocity": 0.5905511811023622,
                    "duration": 0.3125
                },
                {
                    "name": "G#1",
                    "midi": 32,
                    "time": 168.4375,
                    "velocity": 0.5905511811023622,
                    "duration": 0.3125
                },
                {
                    "name": "G#2",
                    "midi": 44,
                    "time": 168.4375,
                    "velocity": 0.5905511811023622,
                    "duration": 0.3125
                },
                {
                    "name": "G#1",
                    "midi": 32,
                    "time": 169.0625,
                    "velocity": 0.5905511811023622,
                    "duration": 0.3125
                },
                {
                    "name": "G#2",
                    "midi": 44,
                    "time": 169.0625,
                    "velocity": 0.5905511811023622,
                    "duration": 0.3125
                },
                {
                    "name": "G#1",
                    "midi": 32,
                    "time": 169.6875,
                    "velocity": 0.5905511811023622,
                    "duration": 0.3125
                },
                {
                    "name": "G#2",
                    "midi": 44,
                    "time": 169.6875,
                    "velocity": 0.5905511811023622,
                    "duration": 0.3125
                },
                {
                    "name": "G#1",
                    "midi": 32,
                    "time": 170.3125,
                    "velocity": 0.5905511811023622,
                    "duration": 0.3125
                },
                {
                    "name": "G#2",
                    "midi": 44,
                    "time": 170.3125,
                    "velocity": 0.5905511811023622,
                    "duration": 0.3125
                },
                {
                    "name": "G#1",
                    "midi": 32,
                    "time": 170.9375,
                    "velocity": 0.5905511811023622,
                    "duration": 0.3125
                },
                {
                    "name": "G#2",
                    "midi": 44,
                    "time": 170.9375,
                    "velocity": 0.5905511811023622,
                    "duration": 0.3125
                },
                {
                    "name": "G#1",
                    "midi": 32,
                    "time": 171.5625,
                    "velocity": 0.5905511811023622,
                    "duration": 0.3125
                },
                {
                    "name": "G#2",
                    "midi": 44,
                    "time": 171.5625,
                    "velocity": 0.5905511811023622,
                    "duration": 0.3125
                },
                {
                    "name": "G#1",
                    "midi": 32,
                    "time": 172.1875,
                    "velocity": 0.5905511811023622,
                    "duration": 0.3125
                },
                {
                    "name": "G#2",
                    "midi": 44,
                    "time": 172.1875,
                    "velocity": 0.5905511811023622,
                    "duration": 0.3125
                },
                {
                    "name": "G#1",
                    "midi": 32,
                    "time": 172.8125,
                    "velocity": 0.5905511811023622,
                    "duration": 0.3125
                },
                {
                    "name": "G#2",
                    "midi": 44,
                    "time": 172.8125,
                    "velocity": 0.5905511811023622,
                    "duration": 0.3125
                },
                {
                    "name": "G#1",
                    "midi": 32,
                    "time": 173.4375,
                    "velocity": 0.5905511811023622,
                    "duration": 0.3125
                },
                {
                    "name": "G#2",
                    "midi": 44,
                    "time": 173.4375,
                    "velocity": 0.5905511811023622,
                    "duration": 0.3125
                },
                {
                    "name": "G#1",
                    "midi": 32,
                    "time": 174.0625,
                    "velocity": 0.5905511811023622,
                    "duration": 0.3125
                },
                {
                    "name": "G#2",
                    "midi": 44,
                    "time": 174.0625,
                    "velocity": 0.5905511811023622,
                    "duration": 0.3125
                },
                {
                    "name": "G#1",
                    "midi": 32,
                    "time": 174.6875,
                    "velocity": 0.5905511811023622,
                    "duration": 0.3125
                },
                {
                    "name": "G#2",
                    "midi": 44,
                    "time": 174.6875,
                    "velocity": 0.5905511811023622,
                    "duration": 0.3125
                },
                {
                    "name": "G#3",
                    "midi": 56,
                    "time": 175,
                    "velocity": 0.4881889763779528,
                    "duration": 2.5
                },
                {
                    "name": "G#3",
                    "midi": 56,
                    "time": 177.5,
                    "velocity": 0.4881889763779528,
                    "duration": 3.75
                },
                {
                    "name": "G#3",
                    "midi": 56,
                    "time": 181.25,
                    "velocity": 0.4881889763779528,
                    "duration": 0.06119791666665719
                },
                {
                    "name": "G3",
                    "midi": 55,
                    "time": 181.5625,
                    "velocity": 0.4881889763779528,
                    "duration": 0.06119791666665719
                },
                {
                    "name": "F3",
                    "midi": 53,
                    "time": 181.875,
                    "velocity": 0.4881889763779528,
                    "duration": 0.06119791666665719
                },
                {
                    "name": "D#3",
                    "midi": 51,
                    "time": 182.1875,
                    "velocity": 0.4881889763779528,
                    "duration": 0.06119791666665719
                },
                {
                    "name": "C#3",
                    "midi": 49,
                    "time": 182.5,
                    "velocity": 0.4881889763779528,
                    "duration": 0.06119791666665719
                },
                {
                    "name": "C3",
                    "midi": 48,
                    "time": 182.8125,
                    "velocity": 0.4881889763779528,
                    "duration": 0.06119791666665719
                },
                {
                    "name": "A#2",
                    "midi": 46,
                    "time": 183.125,
                    "velocity": 0.4881889763779528,
                    "duration": 0.06119791666665719
                },
                {
                    "name": "G#2",
                    "midi": 44,
                    "time": 183.4375,
                    "velocity": 0.4881889763779528,
                    "duration": 0.06119791666665719
                },
                {
                    "name": "G2",
                    "midi": 43,
                    "time": 183.75,
                    "velocity": 0.6929133858267716,
                    "duration": 0.3125
                },
                {
                    "name": "F2",
                    "midi": 41,
                    "time": 184.0625,
                    "velocity": 0.6929133858267716,
                    "duration": 0.3125
                },
                {
                    "name": "D#2",
                    "midi": 39,
                    "time": 184.375,
                    "velocity": 0.6929133858267716,
                    "duration": 0.3125
                },
                {
                    "name": "C#2",
                    "midi": 37,
                    "time": 184.6875,
                    "velocity": 0.6929133858267716,
                    "duration": 0.3125
                },
                {
                    "name": "C4",
                    "midi": 60,
                    "time": 195,
                    "velocity": 0.5905511811023622,
                    "duration": 0.15625
                },
                {
                    "name": "D4",
                    "midi": 62,
                    "time": 195.15625,
                    "velocity": 0.5905511811023622,
                    "duration": 0.15625
                },
                {
                    "name": "E4",
                    "midi": 64,
                    "time": 195.3125,
                    "velocity": 0.5905511811023622,
                    "duration": 0.029947916666657193
                },
                {
                    "name": "F4",
                    "midi": 65,
                    "time": 195.46875,
                    "velocity": 0.5905511811023622,
                    "duration": 0.029947916666657193
                },
                {
                    "name": "G4",
                    "midi": 67,
                    "time": 195.625,
                    "velocity": 0.5905511811023622,
                    "duration": 0.029947916666657193
                },
                {
                    "name": "G4",
                    "midi": 67,
                    "time": 195.78125,
                    "velocity": 0.5905511811023622,
                    "duration": 0.029947916666657193
                },
                {
                    "name": "G4",
                    "midi": 67,
                    "time": 195.9375,
                    "velocity": 0.5905511811023622,
                    "duration": 0.029947916666657193
                },
                {
                    "name": "G4",
                    "midi": 67,
                    "time": 196.09375,
                    "velocity": 0.5905511811023622,
                    "duration": 0.029947916666657193
                },
                {
                    "name": "G4",
                    "midi": 67,
                    "time": 196.25,
                    "velocity": 0.5905511811023622,
                    "duration": 0.029947916666657193
                },
                {
                    "name": "G4",
                    "midi": 67,
                    "time": 196.40625,
                    "velocity": 0.5905511811023622,
                    "duration": 0.029947916666657193
                },
                {
                    "name": "G4",
                    "midi": 67,
                    "time": 196.5625,
                    "velocity": 0.5905511811023622,
                    "duration": 0.029947916666657193
                },
                {
                    "name": "G4",
                    "midi": 67,
                    "time": 196.71875,
                    "velocity": 0.5905511811023622,
                    "duration": 0.029947916666657193
                },
                {
                    "name": "G3",
                    "midi": 55,
                    "time": 196.875,
                    "velocity": 0.5905511811023622,
                    "duration": 0.15625
                },
                {
                    "name": "A3",
                    "midi": 57,
                    "time": 197.03125,
                    "velocity": 0.5905511811023622,
                    "duration": 0.15625
                },
                {
                    "name": "A#3",
                    "midi": 58,
                    "time": 197.1875,
                    "velocity": 0.5905511811023622,
                    "duration": 0.029947916666657193
                },
                {
                    "name": "C4",
                    "midi": 60,
                    "time": 197.34375,
                    "velocity": 0.5905511811023622,
                    "duration": 0.029947916666657193
                },
                {
                    "name": "D4",
                    "midi": 62,
                    "time": 197.5,
                    "velocity": 0.5905511811023622,
                    "duration": 0.029947916666657193
                },
                {
                    "name": "D4",
                    "midi": 62,
                    "time": 197.65625,
                    "velocity": 0.5905511811023622,
                    "duration": 0.029947916666657193
                },
                {
                    "name": "D4",
                    "midi": 62,
                    "time": 197.8125,
                    "velocity": 0.5905511811023622,
                    "duration": 0.029947916666657193
                },
                {
                    "name": "D4",
                    "midi": 62,
                    "time": 197.96875,
                    "velocity": 0.5905511811023622,
                    "duration": 0.029947916666657193
                },
                {
                    "name": "D4",
                    "midi": 62,
                    "time": 198.125,
                    "velocity": 0.5905511811023622,
                    "duration": 0.029947916666657193
                },
                {
                    "name": "D4",
                    "midi": 62,
                    "time": 198.28125,
                    "velocity": 0.5905511811023622,
                    "duration": 0.029947916666657193
                },
                {
                    "name": "E4",
                    "midi": 64,
                    "time": 198.4375,
                    "velocity": 0.5905511811023622,
                    "duration": 0.029947916666657193
                },
                {
                    "name": "F4",
                    "midi": 65,
                    "time": 198.59375,
                    "velocity": 0.5905511811023622,
                    "duration": 0.029947916666657193
                },
                {
                    "name": "G4",
                    "midi": 67,
                    "time": 198.75,
                    "velocity": 0.5905511811023622,
                    "duration": 0.029947916666657193
                },
                {
                    "name": "G4",
                    "midi": 67,
                    "time": 198.90625,
                    "velocity": 0.5905511811023622,
                    "duration": 0.029947916666657193
                },
                {
                    "name": "G4",
                    "midi": 67,
                    "time": 199.0625,
                    "velocity": 0.5905511811023622,
                    "duration": 0.029947916666657193
                },
                {
                    "name": "G4",
                    "midi": 67,
                    "time": 199.21875,
                    "velocity": 0.5905511811023622,
                    "duration": 0.029947916666657193
                },
                {
                    "name": "G4",
                    "midi": 67,
                    "time": 199.375,
                    "velocity": 0.5905511811023622,
                    "duration": 0.06119791666665719
                },
                {
                    "name": "C5",
                    "midi": 72,
                    "time": 199.6875,
                    "velocity": 0.4881889763779528,
                    "duration": 0.05078125
                },
                {
                    "name": "G4",
                    "midi": 67,
                    "time": 199.73828125,
                    "velocity": 0.4881889763779528,
                    "duration": 0.05338541666665719
                },
                {
                    "name": "E4",
                    "midi": 64,
                    "time": 199.79166666666666,
                    "velocity": 0.4881889763779528,
                    "duration": 0.05208333333334281
                },
                {
                    "name": "C4",
                    "midi": 60,
                    "time": 199.84375,
                    "velocity": 0.4881889763779528,
                    "duration": 0.05078125
                },
                {
                    "name": "A#3",
                    "midi": 58,
                    "time": 199.89453125,
                    "velocity": 0.4881889763779528,
                    "duration": 0.05338541666665719
                },
                {
                    "name": "G3",
                    "midi": 55,
                    "time": 199.94791666666666,
                    "velocity": 0.4881889763779528,
                    "duration": 0.05208333333334281
                },
                {
                    "name": "C5",
                    "midi": 72,
                    "time": 209.375,
                    "velocity": 0.4881889763779528,
                    "duration": 0.3125
                },
                {
                    "name": "D4",
                    "midi": 62,
                    "time": 209.6875,
                    "velocity": 0.4881889763779528,
                    "duration": 0.3125
                },
                {
                    "name": "E4",
                    "midi": 64,
                    "time": 210,
                    "velocity": 0.4881889763779528,
                    "duration": 0.3125
                },
                {
                    "name": "D5",
                    "midi": 74,
                    "time": 210.3125,
                    "velocity": 0.4881889763779528,
                    "duration": 0.3125
                },
                {
                    "name": "C5",
                    "midi": 72,
                    "time": 210.625,
                    "velocity": 0.4881889763779528,
                    "duration": 0.3125
                },
                {
                    "name": "C4",
                    "midi": 60,
                    "time": 210.9375,
                    "velocity": 0.4881889763779528,
                    "duration": 0.15625
                },
                {
                    "name": "D4",
                    "midi": 62,
                    "time": 211.09375,
                    "velocity": 0.4881889763779528,
                    "duration": 0.15625
                },
                {
                    "name": "D#4",
                    "midi": 63,
                    "time": 211.25,
                    "velocity": 0.4881889763779528,
                    "duration": 1.25
                },
                {
                    "name": "E4",
                    "midi": 64,
                    "time": 212.5,
                    "velocity": 0.4881889763779528,
                    "duration": 1.875
                },
                {
                    "name": "C3",
                    "midi": 48,
                    "time": 214.375,
                    "velocity": 0.3858267716535433,
                    "duration": 0.625
                },
                {
                    "name": "G3",
                    "midi": 55,
                    "time": 214.375,
                    "velocity": 0.3858267716535433,
                    "duration": 0.625
                },
                {
                    "name": "D3",
                    "midi": 50,
                    "time": 215,
                    "velocity": 0.5905511811023622,
                    "duration": 0.625
                },
                {
                    "name": "A3",
                    "midi": 57,
                    "time": 215,
                    "velocity": 0.5905511811023622,
                    "duration": 0.625
                },
                {
                    "name": "B2",
                    "midi": 47,
                    "time": 215.625,
                    "velocity": 0.5905511811023622,
                    "duration": 0.625
                },
                {
                    "name": "F#3",
                    "midi": 54,
                    "time": 215.625,
                    "velocity": 0.5905511811023622,
                    "duration": 0.625
                },
                {
                    "name": "C3",
                    "midi": 48,
                    "time": 216.25,
                    "velocity": 0.5905511811023622,
                    "duration": 0.625
                },
                {
                    "name": "G3",
                    "midi": 55,
                    "time": 216.25,
                    "velocity": 0.5905511811023622,
                    "duration": 0.625
                },
                {
                    "name": "B2",
                    "midi": 47,
                    "time": 216.875,
                    "velocity": 0.5905511811023622,
                    "duration": 0.625
                },
                {
                    "name": "F#3",
                    "midi": 54,
                    "time": 216.875,
                    "velocity": 0.5905511811023622,
                    "duration": 0.625
                },
                {
                    "name": "A2",
                    "midi": 45,
                    "time": 217.5,
                    "velocity": 0.3858267716535433,
                    "duration": 1.25
                },
                {
                    "name": "E3",
                    "midi": 52,
                    "time": 217.5,
                    "velocity": 0.3858267716535433,
                    "duration": 1.25
                },
                {
                    "name": "C#4",
                    "midi": 61,
                    "time": 217.5,
                    "velocity": 0.3858267716535433,
                    "duration": 1.25
                },
                {
                    "name": "G2",
                    "midi": 43,
                    "time": 226.25,
                    "velocity": 0.3858267716535433,
                    "duration": 2.5
                },
                {
                    "name": "D3",
                    "midi": 50,
                    "time": 226.25,
                    "velocity": 0.3858267716535433,
                    "duration": 2.5
                },
                {
                    "name": "B3",
                    "midi": 59,
                    "time": 226.25,
                    "velocity": 0.3858267716535433,
                    "duration": 2.5
                },
                {
                    "name": "C3",
                    "midi": 48,
                    "time": 238.75,
                    "velocity": 0.3858267716535433,
                    "duration": 0.3125
                },
                {
                    "name": "C3",
                    "midi": 48,
                    "time": 239.0625,
                    "velocity": 0.3858267716535433,
                    "duration": 0.15625
                },
                {
                    "name": "C3",
                    "midi": 48,
                    "time": 239.21875,
                    "velocity": 0.3858267716535433,
                    "duration": 0.15625
                },
                {
                    "name": "C3",
                    "midi": 48,
                    "time": 239.375,
                    "velocity": 0.3858267716535433,
                    "duration": 0.15625
                },
                {
                    "name": "C3",
                    "midi": 48,
                    "time": 239.53125,
                    "velocity": 0.3858267716535433,
                    "duration": 0.15625
                },
                {
                    "name": "F3",
                    "midi": 53,
                    "time": 239.6875,
                    "velocity": 0.3858267716535433,
                    "duration": 0.3125
                },
                {
                    "name": "D#3",
                    "midi": 51,
                    "time": 240,
                    "velocity": 0.3858267716535433,
                    "duration": 2.5
                }
            ],
            "controlChanges": {
                "7": [
                    {
                        "number": 7,
                        "time": 0,
                        "value": 1
                    }
                ],
                "10": [
                    {
                        "number": 10,
                        "time": 0,
                        "value": 0.23622047244094488
                    }
                ],
                "64": [
                    {
                        "number": 64,
                        "time": 6.875,
                        "value": 1
                    },
                    {
                        "number": 64,
                        "time": 9.375,
                        "value": 0
                    },
                    {
                        "number": 64,
                        "time": 10,
                        "value": 1
                    },
                    {
                        "number": 64,
                        "time": 12.5,
                        "value": 0
                    },
                    {
                        "number": 64,
                        "time": 35,
                        "value": 1
                    },
                    {
                        "number": 64,
                        "time": 36.875,
                        "value": 0
                    },
                    {
                        "number": 64,
                        "time": 38.90625,
                        "value": 1
                    },
                    {
                        "number": 64,
                        "time": 39.84375,
                        "value": 0
                    },
                    {
                        "number": 64,
                        "time": 40,
                        "value": 1
                    },
                    {
                        "number": 64,
                        "time": 41.875,
                        "value": 0
                    },
                    {
                        "number": 64,
                        "time": 43.90625,
                        "value": 1
                    },
                    {
                        "number": 64,
                        "time": 44.84375,
                        "value": 0
                    },
                    {
                        "number": 64,
                        "time": 199.6875,
                        "value": 1
                    },
                    {
                        "number": 64,
                        "time": 199.94791666666666,
                        "value": 0
                    },
                    {
                        "number": 64,
                        "time": 217.5,
                        "value": 1
                    },
                    {
                        "number": 64,
                        "time": 225.625,
                        "value": 0
                    },
                    {
                        "number": 64,
                        "time": 242.5,
                        "value": 1
                    },
                    {
                        "number": 64,
                        "time": 243.125,
                        "value": 0
                    }
                ]
            },
            "id": 4,
            "name": "Instrument19",
            "instrumentNumber": 0,
            "instrument": "acoustic grand piano",
            "instrumentFamily": "piano",
            "channelNumber": 3,
            "isPercussion": false
        },
        {
            "startTime": 0,
            "duration": 0,
            "length": 0,
            "notes": [],
            "controlChanges": {},
            "id": 5
        }
    ]
}